<?xml version="1.0" encoding="UTF-8" standalone="no"?>
<!DOCTYPE svg PUBLIC "-//W3C//DTD SVG 1.1//EN"
 "http://www.w3.org/Graphics/SVG/1.1/DTD/svg11.dtd">
<!-- Generated by graphviz version 2.38.0 (20140413.2041)
 -->
<!-- Title: Cpl/Memory/Aligned.h Pages: 1 -->
<svg width="377pt" height="151pt"
 viewBox="0.00 0.00 377.00 151.00" xmlns="http://www.w3.org/2000/svg" xmlns:xlink="http://www.w3.org/1999/xlink">
<g id="graph0" class="graph" transform="scale(1 1) rotate(0) translate(4 147)">
<title>Cpl/Memory/Aligned.h</title>
<polygon fill="white" stroke="none" points="-4,4 -4,-147 373,-147 373,4 -4,4"/>
<!-- Node1 -->
<g id="node1" class="node"><title>Node1</title>
<g id="a_node1"><a xlink:title=" ">
<polygon fill="#bfbfbf" stroke="black" points="122,-123.5 122,-142.5 235,-142.5 235,-123.5 122,-123.5"/>
<text text-anchor="middle" x="178.5" y="-130.5" font-family="Helvetica,sans-Serif" font-size="10.00">Cpl/Memory/Aligned.h</text>
</a>
</g>
</g>
<!-- Node2 -->
<g id="node2" class="node"><title>Node2</title>
<g id="a_node2"><a xlink:href="_h_pool_8h.html" target="_top" xlink:title=" ">
<polygon fill="white" stroke="black" points="0,-62 0,-81 107,-81 107,-62 0,-62"/>
<text text-anchor="middle" x="53.5" y="-69" font-family="Helvetica,sans-Serif" font-size="10.00">Cpl/Memory/HPool.h</text>
</a>
</g>
</g>
<!-- Node1&#45;&gt;Node2 -->
<g id="edge1" class="edge"><title>Node1&#45;&gt;Node2</title>
<path fill="none" stroke="midnightblue" d="M151.555,-119.174C127.3,-107.629 92.3393,-90.9875 71.3762,-81.0091"/>
<polygon fill="midnightblue" stroke="midnightblue" points="150.057,-122.337 160.591,-123.475 153.066,-116.017 150.057,-122.337"/>
</g>
<!-- Node3 -->
<g id="node3" class="node"><title>Node3</title>
<g id="a_node3"><a xlink:href="_s_pool_8h.html" target="_top" xlink:title=" ">
<polygon fill="white" stroke="black" points="125,-62 125,-81 232,-81 232,-62 125,-62"/>
<text text-anchor="middle" x="178.5" y="-69" font-family="Helvetica,sans-Serif" font-size="10.00">Cpl/Memory/SPool.h</text>
</a>
</g>
</g>
<!-- Node1&#45;&gt;Node3 -->
<g id="edge2" class="edge"><title>Node1&#45;&gt;Node3</title>
<path fill="none" stroke="midnightblue" d="M178.5,-113.317C178.5,-102.496 178.5,-89.398 178.5,-81.0091"/>
<polygon fill="midnightblue" stroke="midnightblue" points="175,-113.475 178.5,-123.475 182,-113.475 175,-113.475"/>
</g>
<!-- Node5 -->
<g id="node5" class="node"><title>Node5</title>
<g id="a_node5"><a xlink:href="_run_time_record_8h_source.html" target="_top" xlink:title=" ">
<polygon fill="white" stroke="black" points="250,-56.5 250,-86.5 369,-86.5 369,-56.5 250,-56.5"/>
<text text-anchor="start" x="258" y="-74.5" font-family="Helvetica,sans-Serif" font-size="10.00">Storm/Thermostat/Main</text>
<text text-anchor="middle" x="309.5" y="-63.5" font-family="Helvetica,sans-Serif" font-size="10.00">/RunTimeRecord.h</text>
</a>
</g>
</g>
<!-- Node1&#45;&gt;Node5 -->
<g id="edge4" class="edge"><title>Node1&#45;&gt;Node5</title>
<path fill="none" stroke="midnightblue" d="M206.394,-119.331C227.589,-109.704 256.73,-96.468 278.626,-86.523"/>
<polygon fill="midnightblue" stroke="midnightblue" points="204.927,-116.153 197.269,-123.475 207.821,-122.526 204.927,-116.153"/>
</g>
<!-- Node4 -->
<g id="node4" class="node"><title>Node4</title>
<g id="a_node4"><a xlink:href="_stream_pool_8h.html" target="_top" xlink:title=" ">
<polygon fill="white" stroke="black" points="109.5,-0.5 109.5,-19.5 247.5,-19.5 247.5,-0.5 109.5,-0.5"/>
<text text-anchor="middle" x="178.5" y="-7.5" font-family="Helvetica,sans-Serif" font-size="10.00">Cpl/Io/Socket/StreamPool.h</text>
</a>
</g>
</g>
<!-- Node3&#45;&gt;Node4 -->
<g id="edge3" class="edge"><title>Node3&#45;&gt;Node4</title>
<path fill="none" stroke="midnightblue" d="M178.5,-51.8165C178.5,-40.9962 178.5,-27.898 178.5,-19.5091"/>
<polygon fill="midnightblue" stroke="midnightblue" points="175,-51.9751 178.5,-61.9751 182,-51.9751 175,-51.9751"/>
</g>
</g>
</svg>
