<?xml version="1.0" encoding="UTF-8" standalone="no"?>
<!DOCTYPE svg PUBLIC "-//W3C//DTD SVG 1.1//EN"
 "http://www.w3.org/Graphics/SVG/1.1/DTD/svg11.dtd">
<!-- Generated by graphviz version 2.38.0 (20140413.2041)
 -->
<!-- Title: Cpl/Memory/Allocator.h Pages: 1 -->
<svg width="256pt" height="196pt"
 viewBox="0.00 0.00 255.50 196.00" xmlns="http://www.w3.org/2000/svg" xmlns:xlink="http://www.w3.org/1999/xlink">
<g id="graph0" class="graph" transform="scale(1 1) rotate(0) translate(4 192)">
<title>Cpl/Memory/Allocator.h</title>
<polygon fill="white" stroke="none" points="-4,4 -4,-192 251.5,-192 251.5,4 -4,4"/>
<!-- Node1 -->
<g id="node1" class="node"><title>Node1</title>
<g id="a_node1"><a xlink:title=" ">
<polygon fill="#bfbfbf" stroke="black" points="56,-168.5 56,-187.5 175,-187.5 175,-168.5 56,-168.5"/>
<text text-anchor="middle" x="115.5" y="-175.5" font-family="Helvetica,sans-Serif" font-size="10.00">Cpl/Memory/Allocator.h</text>
</a>
</g>
</g>
<!-- Node2 -->
<g id="node2" class="node"><title>Node2</title>
<g id="a_node2"><a xlink:href="_pool___8h.html" target="_top" xlink:title=" ">
<polygon fill="white" stroke="black" points="63,-112.5 63,-131.5 168,-131.5 168,-112.5 63,-112.5"/>
<text text-anchor="middle" x="115.5" y="-119.5" font-family="Helvetica,sans-Serif" font-size="10.00">Cpl/Memory/Pool_.h</text>
</a>
</g>
</g>
<!-- Node1&#45;&gt;Node2 -->
<g id="edge1" class="edge"><title>Node1&#45;&gt;Node2</title>
<path fill="none" stroke="midnightblue" d="M115.5,-157.805C115.5,-148.91 115.5,-138.78 115.5,-131.751"/>
<polygon fill="midnightblue" stroke="midnightblue" points="112,-158.083 115.5,-168.083 119,-158.083 112,-158.083"/>
</g>
<!-- Node3 -->
<g id="node3" class="node"><title>Node3</title>
<g id="a_node3"><a xlink:href="_h_pool_8h.html" target="_top" xlink:title=" ">
<polygon fill="white" stroke="black" points="0,-56.5 0,-75.5 107,-75.5 107,-56.5 0,-56.5"/>
<text text-anchor="middle" x="53.5" y="-63.5" font-family="Helvetica,sans-Serif" font-size="10.00">Cpl/Memory/HPool.h</text>
</a>
</g>
</g>
<!-- Node2&#45;&gt;Node3 -->
<g id="edge2" class="edge"><title>Node2&#45;&gt;Node3</title>
<path fill="none" stroke="midnightblue" d="M97.7464,-105.537C86.6915,-95.9087 72.8685,-83.8694 63.6426,-75.8339"/>
<polygon fill="midnightblue" stroke="midnightblue" points="95.699,-108.395 105.539,-112.324 100.297,-103.117 95.699,-108.395"/>
</g>
<!-- Node4 -->
<g id="node4" class="node"><title>Node4</title>
<g id="a_node4"><a xlink:href="_s_pool_8h.html" target="_top" xlink:title=" ">
<polygon fill="white" stroke="black" points="125,-56.5 125,-75.5 232,-75.5 232,-56.5 125,-56.5"/>
<text text-anchor="middle" x="178.5" y="-63.5" font-family="Helvetica,sans-Serif" font-size="10.00">Cpl/Memory/SPool.h</text>
</a>
</g>
</g>
<!-- Node2&#45;&gt;Node4 -->
<g id="edge3" class="edge"><title>Node2&#45;&gt;Node4</title>
<path fill="none" stroke="midnightblue" d="M133.54,-105.537C144.773,-95.9087 158.819,-83.8694 168.194,-75.8339"/>
<polygon fill="midnightblue" stroke="midnightblue" points="130.937,-103.159 125.622,-112.324 135.492,-108.473 130.937,-103.159"/>
</g>
<!-- Node5 -->
<g id="node5" class="node"><title>Node5</title>
<g id="a_node5"><a xlink:href="_stream_pool_8h.html" target="_top" xlink:title=" ">
<polygon fill="white" stroke="black" points="109.5,-0.5 109.5,-19.5 247.5,-19.5 247.5,-0.5 109.5,-0.5"/>
<text text-anchor="middle" x="178.5" y="-7.5" font-family="Helvetica,sans-Serif" font-size="10.00">Cpl/Io/Socket/StreamPool.h</text>
</a>
</g>
</g>
<!-- Node4&#45;&gt;Node5 -->
<g id="edge4" class="edge"><title>Node4&#45;&gt;Node5</title>
<path fill="none" stroke="midnightblue" d="M178.5,-45.8045C178.5,-36.9102 178.5,-26.7798 178.5,-19.7511"/>
<polygon fill="midnightblue" stroke="midnightblue" points="175,-46.083 178.5,-56.083 182,-46.083 175,-46.083"/>
</g>
</g>
</svg>
