<?xml version="1.0" encoding="UTF-8" standalone="no"?>
<!DOCTYPE svg PUBLIC "-//W3C//DTD SVG 1.1//EN"
 "http://www.w3.org/Graphics/SVG/1.1/DTD/svg11.dtd">
<!-- Generated by graphviz version 2.38.0 (20140413.2041)
 -->
<!-- Title: Cpl/System/BareMetal/mappings_.h Pages: 1 -->
<svg width="302pt" height="151pt"
 viewBox="0.00 0.00 301.50 151.00" xmlns="http://www.w3.org/2000/svg" xmlns:xlink="http://www.w3.org/1999/xlink">
<g id="graph0" class="graph" transform="scale(1 1) rotate(0) translate(4 147)">
<title>Cpl/System/BareMetal/mappings_.h</title>
<polygon fill="white" stroke="none" points="-4,4 -4,-147 297.5,-147 297.5,4 -4,4"/>
<!-- Node1 -->
<g id="node1" class="node"><title>Node1</title>
<g id="a_node1"><a xlink:title="This file provides the mappings for Platform specific types, etc.">
<polygon fill="#bfbfbf" stroke="black" points="60,-112.5 60,-142.5 175,-142.5 175,-112.5 60,-112.5"/>
<text text-anchor="start" x="68" y="-130.5" font-family="Helvetica,sans-Serif" font-size="10.00">Cpl/System/BareMetal</text>
<text text-anchor="middle" x="117.5" y="-119.5" font-family="Helvetica,sans-Serif" font-size="10.00">/mappings_.h</text>
</a>
</g>
</g>
<!-- Node2 -->
<g id="node2" class="node"><title>Node2</title>
<g id="a_node2"><a xlink:title=" ">
<polygon fill="white" stroke="#bfbfbf" points="0,-56.5 0,-75.5 49,-75.5 49,-56.5 0,-56.5"/>
<text text-anchor="middle" x="24.5" y="-63.5" font-family="Helvetica,sans-Serif" font-size="10.00">stdint.h</text>
</a>
</g>
</g>
<!-- Node1&#45;&gt;Node2 -->
<g id="edge1" class="edge"><title>Node1&#45;&gt;Node2</title>
<path fill="none" stroke="midnightblue" d="M95.4603,-112.399C80.6924,-102.951 61.3231,-90.5589 46.5525,-81.1089"/>
<polygon fill="midnightblue" stroke="midnightblue" points="48.3421,-78.0988 38.0323,-75.6578 44.5696,-83.9953 48.3421,-78.0988"/>
</g>
<!-- Node3 -->
<g id="node3" class="node"><title>Node3</title>
<g id="a_node3"><a xlink:title=" ">
<polygon fill="white" stroke="#bfbfbf" points="67.5,-56.5 67.5,-75.5 115.5,-75.5 115.5,-56.5 67.5,-56.5"/>
<text text-anchor="middle" x="91.5" y="-63.5" font-family="Helvetica,sans-Serif" font-size="10.00">stdlib.h</text>
</a>
</g>
</g>
<!-- Node1&#45;&gt;Node3 -->
<g id="edge2" class="edge"><title>Node1&#45;&gt;Node3</title>
<path fill="none" stroke="midnightblue" d="M111.338,-112.399C107.755,-104.199 103.203,-93.7809 99.3628,-84.9936"/>
<polygon fill="midnightblue" stroke="midnightblue" points="102.495,-83.4197 95.2832,-75.6578 96.0803,-86.2226 102.495,-83.4197"/>
</g>
<!-- Node4 -->
<g id="node4" class="node"><title>Node4</title>
<g id="a_node4"><a xlink:title=" ">
<polygon fill="white" stroke="#bfbfbf" points="102,-0.5 102,-19.5 187,-19.5 187,-0.5 102,-0.5"/>
<text text-anchor="middle" x="144.5" y="-7.5" font-family="Helvetica,sans-Serif" font-size="10.00">colony_config.h</text>
</a>
</g>
</g>
<!-- Node1&#45;&gt;Node4 -->
<g id="edge3" class="edge"><title>Node1&#45;&gt;Node4</title>
<path fill="none" stroke="midnightblue" d="M120.811,-112.337C125.675,-91.5271 134.761,-52.6632 140.156,-29.5834"/>
<polygon fill="midnightblue" stroke="midnightblue" points="143.605,-30.2037 142.473,-19.6695 136.789,-28.6102 143.605,-30.2037"/>
</g>
<!-- Node5 -->
<g id="node5" class="node"><title>Node5</title>
<g id="a_node5"><a xlink:href="_fatal_error_8h.html" target="_top" xlink:title=" ">
<polygon fill="white" stroke="black" points="171.5,-56.5 171.5,-75.5 293.5,-75.5 293.5,-56.5 171.5,-56.5"/>
<text text-anchor="middle" x="232.5" y="-63.5" font-family="Helvetica,sans-Serif" font-size="10.00">Cpl/System/FatalError.h</text>
</a>
</g>
</g>
<!-- Node1&#45;&gt;Node5 -->
<g id="edge4" class="edge"><title>Node1&#45;&gt;Node5</title>
<path fill="none" stroke="midnightblue" d="M144.753,-112.399C163.532,-102.684 188.326,-89.8551 206.768,-80.3137"/>
<polygon fill="midnightblue" stroke="midnightblue" points="208.493,-83.3617 215.766,-75.6578 205.276,-77.1445 208.493,-83.3617"/>
</g>
<!-- Node5&#45;&gt;Node4 -->
<g id="edge6" class="edge"><title>Node5&#45;&gt;Node4</title>
<path fill="none" stroke="midnightblue" d="M218.361,-56.324C204.634,-47.9002 183.564,-34.9709 167.436,-25.0741"/>
<polygon fill="midnightblue" stroke="midnightblue" points="168.957,-21.9016 158.604,-19.6545 165.296,-27.8678 168.957,-21.9016"/>
</g>
<!-- Node6 -->
<g id="node6" class="node"><title>Node6</title>
<g id="a_node6"><a xlink:title=" ">
<polygon fill="white" stroke="#bfbfbf" points="206.5,-0.5 206.5,-19.5 258.5,-19.5 258.5,-0.5 206.5,-0.5"/>
<text text-anchor="middle" x="232.5" y="-7.5" font-family="Helvetica,sans-Serif" font-size="10.00">stddef.h</text>
</a>
</g>
</g>
<!-- Node5&#45;&gt;Node6 -->
<g id="edge5" class="edge"><title>Node5&#45;&gt;Node6</title>
<path fill="none" stroke="midnightblue" d="M232.5,-56.083C232.5,-49.0059 232.5,-38.8611 232.5,-29.9865"/>
<polygon fill="midnightblue" stroke="midnightblue" points="236,-29.751 232.5,-19.7511 229,-29.7511 236,-29.751"/>
</g>
</g>
</svg>
