<?xml version="1.0" encoding="UTF-8" standalone="no"?>
<!DOCTYPE svg PUBLIC "-//W3C//DTD SVG 1.1//EN"
 "http://www.w3.org/Graphics/SVG/1.1/DTD/svg11.dtd">
<!-- Generated by graphviz version 10.0.1 (20240210.2158)
 -->
<!-- Title: Cpl/Text/Frame/BlockEncoder.h Pages: 1 -->
<svg width="529pt" height="364pt"
 viewBox="0.00 0.00 529.12 364.00" xmlns="http://www.w3.org/2000/svg" xmlns:xlink="http://www.w3.org/1999/xlink">
<g id="graph0" class="graph" transform="scale(1 1) rotate(0) translate(4 360)">
<title>Cpl/Text/Frame/BlockEncoder.h</title>
<!-- Node1 -->
<g id="Node000001" class="node">
<title>Node1</title>
<g id="a_Node000001"><a xlink:title=" ">
<polygon fill="#999999" stroke="#666666" points="344.12,-356 189.38,-356 189.38,-336 344.12,-336 344.12,-356"/>
<text text-anchor="middle" x="266.75" y="-342.5" font-family="Helvetica,sans-Serif" font-size="10.00">Cpl/Text/Frame/BlockEncoder.h</text>
</a>
</g>
</g>
<!-- Node2 -->
<g id="Node000002" class="node">
<title>Node2</title>
<g id="a_Node000002"><a xlink:href="_stream_encoder_8h.html" target="_top" xlink:title=" ">
<polygon fill="white" stroke="#666666" points="293.5,-300 132,-300 132,-280 293.5,-280 293.5,-300"/>
<text text-anchor="middle" x="212.75" y="-286.5" font-family="Helvetica,sans-Serif" font-size="10.00">Cpl/Text/Frame/StreamEncoder.h</text>
</a>
</g>
</g>
<!-- Node1&#45;&gt;Node2 -->
<g id="edge1_Node000001_Node000002" class="edge">
<title>Node1&#45;&gt;Node2</title>
<g id="a_edge1_Node000001_Node000002"><a xlink:title=" ">
<path fill="none" stroke="#63b8ff" d="M257.34,-335.59C249.83,-328.08 239.1,-317.35 230.05,-308.3"/>
<polygon fill="#63b8ff" stroke="#63b8ff" points="232.66,-305.96 223.12,-301.37 227.71,-310.91 232.66,-305.96"/>
</a>
</g>
</g>
<!-- Node6 -->
<g id="Node000006" class="node">
<title>Node6</title>
<g id="a_Node000006"><a xlink:href="_output_8h.html" target="_top" xlink:title=" ">
<polygon fill="white" stroke="#666666" points="362.38,-244 281.12,-244 281.12,-224 362.38,-224 362.38,-244"/>
<text text-anchor="middle" x="321.75" y="-230.5" font-family="Helvetica,sans-Serif" font-size="10.00">Cpl/Io/Output.h</text>
</a>
</g>
</g>
<!-- Node1&#45;&gt;Node6 -->
<g id="edge21_Node000001_Node000006" class="edge">
<title>Node1&#45;&gt;Node6</title>
<g id="a_edge21_Node000001_Node000006"><a xlink:title=" ">
<path fill="none" stroke="#63b8ff" d="M275.96,-335.77C284.06,-327.18 295.64,-313.67 302.75,-300 310.07,-285.93 314.95,-268.64 317.93,-255.43"/>
<polygon fill="#63b8ff" stroke="#63b8ff" points="321.34,-256.24 319.92,-245.74 314.48,-254.83 321.34,-256.24"/>
</a>
</g>
</g>
<!-- Node3 -->
<g id="Node000003" class="node">
<title>Node3</title>
<g id="a_Node000003"><a xlink:href="_encoder___8h.html" target="_top" xlink:title=" ">
<polygon fill="white" stroke="#666666" points="227.38,-244 92.12,-244 92.12,-224 227.38,-224 227.38,-244"/>
<text text-anchor="middle" x="159.75" y="-230.5" font-family="Helvetica,sans-Serif" font-size="10.00">Cpl/Text/Frame/Encoder_.h</text>
</a>
</g>
</g>
<!-- Node2&#45;&gt;Node3 -->
<g id="edge2_Node000002_Node000003" class="edge">
<title>Node2&#45;&gt;Node3</title>
<g id="a_edge2_Node000002_Node000003"><a xlink:title=" ">
<path fill="none" stroke="#63b8ff" d="M203.52,-279.59C196.15,-272.08 185.62,-261.35 176.73,-252.3"/>
<polygon fill="#63b8ff" stroke="#63b8ff" points="179.44,-250.06 169.94,-245.38 174.44,-254.97 179.44,-250.06"/>
</a>
</g>
</g>
<!-- Node2&#45;&gt;Node6 -->
<g id="edge5_Node000002_Node000006" class="edge">
<title>Node2&#45;&gt;Node6</title>
<g id="a_edge5_Node000002_Node000006"><a xlink:title=" ">
<path fill="none" stroke="#63b8ff" d="M231.74,-279.59C248.51,-271.28 273.24,-259.03 292.54,-249.47"/>
<polygon fill="#63b8ff" stroke="#63b8ff" points="293.85,-252.73 301.26,-245.15 290.74,-246.45 293.85,-252.73"/>
</a>
</g>
</g>
<!-- Node4 -->
<g id="Node000004" class="node">
<title>Node4</title>
<g id="a_Node000004"><a xlink:href="_encoder_8h.html" target="_top" xlink:title=" ">
<polygon fill="white" stroke="#666666" points="138.75,-188 8.75,-188 8.75,-168 138.75,-168 138.75,-188"/>
<text text-anchor="middle" x="73.75" y="-174.5" font-family="Helvetica,sans-Serif" font-size="10.00">Cpl/Text/Frame/Encoder.h</text>
</a>
</g>
</g>
<!-- Node3&#45;&gt;Node4 -->
<g id="edge3_Node000003_Node000004" class="edge">
<title>Node3&#45;&gt;Node4</title>
<g id="a_edge3_Node000003_Node000004"><a xlink:title=" ">
<path fill="none" stroke="#63b8ff" d="M144.77,-223.59C132.02,-215.59 113.46,-203.93 98.51,-194.54"/>
<polygon fill="#63b8ff" stroke="#63b8ff" points="100.46,-191.64 90.13,-189.28 96.74,-197.57 100.46,-191.64"/>
</a>
</g>
</g>
<!-- Node5 -->
<g id="Node000005" class="node">
<title>Node5</title>
<g id="a_Node000005"><a xlink:title=" ">
<polygon fill="#e0e0e0" stroke="#999999" points="47.5,-132 0,-132 0,-112 47.5,-112 47.5,-132"/>
<text text-anchor="middle" x="23.75" y="-118.5" font-family="Helvetica,sans-Serif" font-size="10.00">stdlib.h</text>
</a>
</g>
</g>
<!-- Node4&#45;&gt;Node5 -->
<g id="edge4_Node000004_Node000005" class="edge">
<title>Node4&#45;&gt;Node5</title>
<g id="a_edge4_Node000004_Node000005"><a xlink:title=" ">
<path fill="none" stroke="#63b8ff" d="M65.04,-167.59C58.16,-160.16 48.36,-149.58 40.03,-140.58"/>
<polygon fill="#63b8ff" stroke="#63b8ff" points="42.75,-138.37 33.39,-133.41 37.61,-143.12 42.75,-138.37"/>
</a>
</g>
</g>
<!-- Node7 -->
<g id="Node000007" class="node">
<title>Node7</title>
<g id="a_Node000007"><a xlink:href="_text_2_string_8h.html" target="_top" xlink:title=" ">
<polygon fill="white" stroke="#666666" points="294.12,-188 205.38,-188 205.38,-168 294.12,-168 294.12,-188"/>
<text text-anchor="middle" x="249.75" y="-174.5" font-family="Helvetica,sans-Serif" font-size="10.00">Cpl/Text/String.h</text>
</a>
</g>
</g>
<!-- Node6&#45;&gt;Node7 -->
<g id="edge6_Node000006_Node000007" class="edge">
<title>Node6&#45;&gt;Node7</title>
<g id="a_edge6_Node000006_Node000007"><a xlink:title=" ">
<path fill="none" stroke="#63b8ff" d="M309.21,-223.59C298.78,-215.77 283.7,-204.46 271.34,-195.19"/>
<polygon fill="#63b8ff" stroke="#63b8ff" points="273.46,-192.41 263.36,-189.21 269.26,-198.01 273.46,-192.41"/>
</a>
</g>
</g>
<!-- Node15 -->
<g id="Node000015" class="node">
<title>Node15</title>
<g id="a_Node000015"><a xlink:title=" ">
<polygon fill="#e0e0e0" stroke="#999999" points="347.38,-132 296.12,-132 296.12,-112 347.38,-112 347.38,-132"/>
<text text-anchor="middle" x="321.75" y="-118.5" font-family="Helvetica,sans-Serif" font-size="10.00">stdarg.h</text>
</a>
</g>
</g>
<!-- Node6&#45;&gt;Node15 -->
<g id="edge20_Node000006_Node000015" class="edge">
<title>Node6&#45;&gt;Node15</title>
<g id="a_edge20_Node000006_Node000015"><a xlink:title=" ">
<path fill="none" stroke="#63b8ff" d="M321.75,-223.62C321.75,-206.01 321.75,-167.59 321.75,-143.65"/>
<polygon fill="#63b8ff" stroke="#63b8ff" points="325.25,-143.87 321.75,-133.87 318.25,-143.87 325.25,-143.87"/>
</a>
</g>
</g>
<!-- Node17 -->
<g id="Node000017" class="node">
<title>Node17</title>
<g id="a_Node000017"><a xlink:href="_close_8h.html" target="_top" xlink:title=" ">
<polygon fill="white" stroke="#666666" points="426.12,-188 349.38,-188 349.38,-168 426.12,-168 426.12,-188"/>
<text text-anchor="middle" x="387.75" y="-174.5" font-family="Helvetica,sans-Serif" font-size="10.00">Cpl/Io/Close.h</text>
</a>
</g>
</g>
<!-- Node6&#45;&gt;Node17 -->
<g id="edge17_Node000006_Node000017" class="edge">
<title>Node6&#45;&gt;Node17</title>
<g id="a_edge17_Node000006_Node000017"><a xlink:title=" ">
<path fill="none" stroke="#63b8ff" d="M333.25,-223.59C342.71,-215.85 356.35,-204.69 367.62,-195.47"/>
<polygon fill="#63b8ff" stroke="#63b8ff" points="369.69,-198.3 375.21,-189.26 365.26,-192.88 369.69,-198.3"/>
</a>
</g>
</g>
<!-- Node19 -->
<g id="Node000019" class="node">
<title>Node19</title>
<g id="a_Node000019"><a xlink:href="_is_eos_8h.html" target="_top" xlink:title=" ">
<polygon fill="white" stroke="#666666" points="521.12,-188 444.38,-188 444.38,-168 521.12,-168 521.12,-188"/>
<text text-anchor="middle" x="482.75" y="-174.5" font-family="Helvetica,sans-Serif" font-size="10.00">Cpl/Io/IsEos.h</text>
</a>
</g>
</g>
<!-- Node6&#45;&gt;Node19 -->
<g id="edge19_Node000006_Node000019" class="edge">
<title>Node6&#45;&gt;Node19</title>
<g id="a_edge19_Node000006_Node000019"><a xlink:title=" ">
<path fill="none" stroke="#63b8ff" d="M349.79,-223.59C375.84,-214.86 414.85,-201.77 443.89,-192.03"/>
<polygon fill="#63b8ff" stroke="#63b8ff" points="444.68,-195.46 453.05,-188.96 442.46,-188.82 444.68,-195.46"/>
</a>
</g>
</g>
<!-- Node8 -->
<g id="Node000008" class="node">
<title>Node8</title>
<g id="a_Node000008"><a xlink:title=" ">
<polygon fill="#e0e0e0" stroke="#999999" points="77.12,-76 0.38,-76 0.38,-56 77.12,-56 77.12,-76"/>
<text text-anchor="middle" x="38.75" y="-62.5" font-family="Helvetica,sans-Serif" font-size="10.00">colony_map.h</text>
</a>
</g>
</g>
<!-- Node7&#45;&gt;Node8 -->
<g id="edge7_Node000007_Node000008" class="edge">
<title>Node7&#45;&gt;Node8</title>
<g id="a_edge7_Node000007_Node000008"><a xlink:title=" ">
<path fill="none" stroke="#63b8ff" d="M205.17,-171.04C172.56,-165.08 128.34,-153.58 94.75,-132 76.4,-120.21 60.72,-100.63 50.66,-86.04"/>
<polygon fill="#63b8ff" stroke="#63b8ff" points="53.62,-84.18 45.2,-77.74 47.77,-88.02 53.62,-84.18"/>
</a>
</g>
</g>
<!-- Node9 -->
<g id="Node000009" class="node">
<title>Node9</title>
<g id="a_Node000009"><a xlink:href="_key_8h.html" target="_top" xlink:title=" ">
<polygon fill="white" stroke="#666666" points="207.25,-132 104.25,-132 104.25,-112 207.25,-112 207.25,-132"/>
<text text-anchor="middle" x="155.75" y="-118.5" font-family="Helvetica,sans-Serif" font-size="10.00">Cpl/Container/Key.h</text>
</a>
</g>
</g>
<!-- Node7&#45;&gt;Node9 -->
<g id="edge8_Node000007_Node000009" class="edge">
<title>Node7&#45;&gt;Node9</title>
<g id="a_edge8_Node000007_Node000009"><a xlink:title=" ">
<path fill="none" stroke="#63b8ff" d="M233.38,-167.59C219.18,-159.44 198.37,-147.48 181.87,-138"/>
<polygon fill="#63b8ff" stroke="#63b8ff" points="183.98,-135.18 173.56,-133.23 180.49,-141.25 183.98,-135.18"/>
</a>
</g>
</g>
<!-- Node7&#45;&gt;Node15 -->
<g id="edge15_Node000007_Node000015" class="edge">
<title>Node7&#45;&gt;Node15</title>
<g id="a_edge15_Node000007_Node000015"><a xlink:title=" ">
<path fill="none" stroke="#63b8ff" d="M262.29,-167.59C272.72,-159.77 287.8,-148.46 300.16,-139.19"/>
<polygon fill="#63b8ff" stroke="#63b8ff" points="302.24,-142.01 308.14,-133.21 298.04,-136.41 302.24,-142.01"/>
</a>
</g>
</g>
<!-- Node16 -->
<g id="Node000016" class="node">
<title>Node16</title>
<g id="a_Node000016"><a xlink:title=" ">
<polygon fill="#e0e0e0" stroke="#999999" points="278.5,-132 225,-132 225,-112 278.5,-112 278.5,-132"/>
<text text-anchor="middle" x="251.75" y="-118.5" font-family="Helvetica,sans-Serif" font-size="10.00">iostream</text>
</a>
</g>
</g>
<!-- Node7&#45;&gt;Node16 -->
<g id="edge16_Node000007_Node000016" class="edge">
<title>Node7&#45;&gt;Node16</title>
<g id="a_edge16_Node000007_Node000016"><a xlink:title=" ">
<path fill="none" stroke="#63b8ff" d="M250.1,-167.59C250.34,-161.01 250.68,-151.96 250.98,-143.73"/>
<polygon fill="#63b8ff" stroke="#63b8ff" points="254.48,-143.93 251.35,-133.81 247.48,-143.67 254.48,-143.93"/>
</a>
</g>
</g>
<!-- Node9&#45;&gt;Node8 -->
<g id="edge14_Node000009_Node000008" class="edge">
<title>Node9&#45;&gt;Node8</title>
<g id="a_edge14_Node000009_Node000008"><a xlink:title=" ">
<path fill="none" stroke="#63b8ff" d="M135.37,-111.59C117.19,-103.21 90.32,-90.8 69.53,-81.21"/>
<polygon fill="#63b8ff" stroke="#63b8ff" points="71.21,-78.13 60.66,-77.11 68.28,-84.48 71.21,-78.13"/>
</a>
</g>
</g>
<!-- Node10 -->
<g id="Node000010" class="node">
<title>Node10</title>
<g id="a_Node000010"><a xlink:href="_fatal_error_8h.html" target="_top" xlink:title=" ">
<polygon fill="white" stroke="#666666" points="216.25,-76 95.25,-76 95.25,-56 216.25,-56 216.25,-76"/>
<text text-anchor="middle" x="155.75" y="-62.5" font-family="Helvetica,sans-Serif" font-size="10.00">Cpl/System/FatalError.h</text>
</a>
</g>
</g>
<!-- Node9&#45;&gt;Node10 -->
<g id="edge9_Node000009_Node000010" class="edge">
<title>Node9&#45;&gt;Node10</title>
<g id="a_edge9_Node000009_Node000010"><a xlink:title=" ">
<path fill="none" stroke="#63b8ff" d="M155.75,-111.59C155.75,-105.01 155.75,-95.96 155.75,-87.73"/>
<polygon fill="#63b8ff" stroke="#63b8ff" points="159.25,-87.81 155.75,-77.81 152.25,-87.81 159.25,-87.81"/>
</a>
</g>
</g>
<!-- Node13 -->
<g id="Node000013" class="node">
<title>Node13</title>
<g id="a_Node000013"><a xlink:title=" ">
<polygon fill="#e0e0e0" stroke="#999999" points="282.88,-76 234.62,-76 234.62,-56 282.88,-56 282.88,-76"/>
<text text-anchor="middle" x="258.75" y="-62.5" font-family="Helvetica,sans-Serif" font-size="10.00">stdint.h</text>
</a>
</g>
</g>
<!-- Node9&#45;&gt;Node13 -->
<g id="edge12_Node000009_Node000013" class="edge">
<title>Node9&#45;&gt;Node13</title>
<g id="a_edge12_Node000009_Node000013"><a xlink:title=" ">
<path fill="none" stroke="#63b8ff" d="M173.69,-111.59C189.4,-103.36 212.48,-91.26 230.64,-81.74"/>
<polygon fill="#63b8ff" stroke="#63b8ff" points="232.1,-84.93 239.33,-77.18 228.85,-78.73 232.1,-84.93"/>
</a>
</g>
</g>
<!-- Node14 -->
<g id="Node000014" class="node">
<title>Node14</title>
<g id="a_Node000014"><a xlink:title=" ">
<polygon fill="#e0e0e0" stroke="#999999" points="348.88,-76 300.62,-76 300.62,-56 348.88,-56 348.88,-76"/>
<text text-anchor="middle" x="324.75" y="-62.5" font-family="Helvetica,sans-Serif" font-size="10.00">string.h</text>
</a>
</g>
</g>
<!-- Node9&#45;&gt;Node14 -->
<g id="edge13_Node000009_Node000014" class="edge">
<title>Node9&#45;&gt;Node14</title>
<g id="a_edge13_Node000009_Node000014"><a xlink:title=" ">
<path fill="none" stroke="#63b8ff" d="M185.19,-111.59C214.25,-102.31 258.69,-88.11 289.59,-78.23"/>
<polygon fill="#63b8ff" stroke="#63b8ff" points="290.4,-81.65 298.86,-75.27 288.27,-74.98 290.4,-81.65"/>
</a>
</g>
</g>
<!-- Node11 -->
<g id="Node000011" class="node">
<title>Node11</title>
<g id="a_Node000011"><a xlink:title=" ">
<polygon fill="#e0e0e0" stroke="#999999" points="139,-20 88.5,-20 88.5,0 139,0 139,-20"/>
<text text-anchor="middle" x="113.75" y="-6.5" font-family="Helvetica,sans-Serif" font-size="10.00">stddef.h</text>
</a>
</g>
</g>
<!-- Node10&#45;&gt;Node11 -->
<g id="edge10_Node000010_Node000011" class="edge">
<title>Node10&#45;&gt;Node11</title>
<g id="a_edge10_Node000010_Node000011"><a xlink:title=" ">
<path fill="none" stroke="#63b8ff" d="M148.43,-55.59C142.77,-48.32 134.76,-38.02 127.86,-29.15"/>
<polygon fill="#63b8ff" stroke="#63b8ff" points="130.81,-27.24 121.91,-21.49 125.29,-31.54 130.81,-27.24"/>
</a>
</g>
</g>
<!-- Node12 -->
<g id="Node000012" class="node">
<title>Node12</title>
<g id="a_Node000012"><a xlink:title=" ">
<polygon fill="#e0e0e0" stroke="#999999" points="240.5,-20 157,-20 157,0 240.5,0 240.5,-20"/>
<text text-anchor="middle" x="198.75" y="-6.5" font-family="Helvetica,sans-Serif" font-size="10.00">colony_config.h</text>
</a>
</g>
</g>
<!-- Node10&#45;&gt;Node12 -->
<g id="edge11_Node000010_Node000012" class="edge">
<title>Node10&#45;&gt;Node12</title>
<g id="a_edge11_Node000010_Node000012"><a xlink:title=" ">
<path fill="none" stroke="#63b8ff" d="M163.24,-55.59C169.04,-48.32 177.24,-38.02 184.3,-29.15"/>
<polygon fill="#63b8ff" stroke="#63b8ff" points="186.91,-31.49 190.4,-21.48 181.44,-27.12 186.91,-31.49"/>
</a>
</g>
</g>
<!-- Node18 -->
<g id="Node000018" class="node">
<title>Node18</title>
<g id="a_Node000018"><a xlink:href="_item_8h.html" target="_top" xlink:title=" ">
<polygon fill="white" stroke="#666666" points="470,-132 365.5,-132 365.5,-112 470,-112 470,-132"/>
<text text-anchor="middle" x="417.75" y="-118.5" font-family="Helvetica,sans-Serif" font-size="10.00">Cpl/Container/Item.h</text>
</a>
</g>
</g>
<!-- Node17&#45;&gt;Node18 -->
<g id="edge18_Node000017_Node000018" class="edge">
<title>Node17&#45;&gt;Node18</title>
<g id="a_edge18_Node000017_Node000018"><a xlink:title=" ">
<path fill="none" stroke="#63b8ff" d="M392.98,-167.59C396.85,-160.63 402.26,-150.89 407.03,-142.29"/>
<polygon fill="#63b8ff" stroke="#63b8ff" points="410.05,-144.06 411.85,-133.62 403.93,-140.66 410.05,-144.06"/>
</a>
</g>
</g>
</g>
</svg>
