<?xml version="1.0" encoding="UTF-8" standalone="no"?>
<!DOCTYPE svg PUBLIC "-//W3C//DTD SVG 1.1//EN"
 "http://www.w3.org/Graphics/SVG/1.1/DTD/svg11.dtd">
<!-- Generated by graphviz version 10.0.1 (20240210.2158)
 -->
<!-- Title: Cpl/Dm/Mp/Bool.h Pages: 1 -->
<svg width="1717pt" height="356pt"
 viewBox="0.00 0.00 1716.92 356.00" xmlns="http://www.w3.org/2000/svg" xmlns:xlink="http://www.w3.org/1999/xlink">
<g id="graph0" class="graph" transform="scale(1 1) rotate(0) translate(4 352)">
<title>Cpl/Dm/Mp/Bool.h</title>
<!-- Node1 -->
<g id="Node000001" class="node">
<title>Node1</title>
<g id="a_Node000001"><a xlink:title=" ">
<polygon fill="#999999" stroke="#666666" points="1084.54,-348 989.04,-348 989.04,-328 1084.54,-328 1084.54,-348"/>
<text text-anchor="middle" x="1036.79" y="-334.5" font-family="Helvetica,sans-Serif" font-size="10.00">Cpl/Dm/Mp/Bool.h</text>
</a>
</g>
</g>
<!-- Node2 -->
<g id="Node000002" class="node">
<title>Node2</title>
<g id="a_Node000002"><a xlink:href="_control_8h.html" target="_top" xlink:title=" ">
<polygon fill="white" stroke="#666666" points="358.17,-286 221.42,-286 221.42,-266 358.17,-266 358.17,-286"/>
<text text-anchor="middle" x="289.79" y="-272.5" font-family="Helvetica,sans-Serif" font-size="10.00">Storm/Component/Control.h</text>
</a>
</g>
</g>
<!-- Node1&#45;&gt;Node2 -->
<g id="edge1_Node000001_Node000002" class="edge">
<title>Node1&#45;&gt;Node2</title>
<g id="a_edge1_Node000001_Node000002"><a xlink:title=" ">
<path fill="none" stroke="#63b8ff" d="M977.19,-332.21C840.3,-321.22 504.04,-294.21 358.64,-282.53"/>
<polygon fill="#63b8ff" stroke="#63b8ff" points="976.88,-335.7 987.13,-333.01 977.44,-328.72 976.88,-335.7"/>
</a>
</g>
</g>
<!-- Node11 -->
<g id="Node000011" class="node">
<title>Node11</title>
<g id="a_Node000011"><a xlink:href="_fan_control_8h.html" target="_top" xlink:title=" ">
<polygon fill="white" stroke="#666666" points="870.42,-82 717.17,-82 717.17,-62 870.42,-62 870.42,-82"/>
<text text-anchor="middle" x="793.79" y="-68.5" font-family="Helvetica,sans-Serif" font-size="10.00">Storm/Component/FanControl.h</text>
</a>
</g>
</g>
<!-- Node1&#45;&gt;Node11 -->
<g id="edge17_Node000001_Node000011" class="edge">
<title>Node1&#45;&gt;Node11</title>
<g id="a_edge17_Node000001_Node000011"><a xlink:title=" ">
<path fill="none" stroke="#63b8ff" d="M1007.83,-322.49C992.67,-314.35 974.11,-303.54 958.79,-292 889.23,-239.63 862.74,-230.57 817.79,-156 803.23,-131.85 797.11,-98.41 794.89,-82.35"/>
<polygon fill="#63b8ff" stroke="#63b8ff" points="1005.89,-325.42 1016.37,-326.96 1009.14,-319.22 1005.89,-325.42"/>
</a>
</g>
</g>
<!-- Node12 -->
<g id="Node000012" class="node">
<title>Node12</title>
<g id="a_Node000012"><a xlink:href="_component_2_hvac_relay_outputs_8h.html" target="_top" xlink:title=" ">
<polygon fill="white" stroke="#666666" points="970.54,-156 827.04,-156 827.04,-124 970.54,-124 970.54,-156"/>
<text text-anchor="start" x="835.04" y="-142.5" font-family="Helvetica,sans-Serif" font-size="10.00">Storm/Component/HvacRelay</text>
<text text-anchor="middle" x="898.79" y="-130.5" font-family="Helvetica,sans-Serif" font-size="10.00">Outputs.h</text>
</a>
</g>
</g>
<!-- Node1&#45;&gt;Node12 -->
<g id="edge19_Node000001_Node000012" class="edge">
<title>Node1&#45;&gt;Node12</title>
<g id="a_edge19_Node000001_Node000012"><a xlink:title=" ">
<path fill="none" stroke="#63b8ff" d="M1014.82,-320.78C1004.92,-312.8 993.52,-302.63 984.79,-292 948.03,-247.24 918.03,-184.68 905.34,-156.2"/>
<polygon fill="#63b8ff" stroke="#63b8ff" points="1012.48,-323.39 1022.53,-326.77 1016.78,-317.87 1012.48,-323.39"/>
</a>
</g>
</g>
<!-- Node13 -->
<g id="Node000013" class="node">
<title>Node13</title>
<g id="a_Node000013"><a xlink:href="_idt_selection_8h.html" target="_top" xlink:title=" ">
<polygon fill="white" stroke="#666666" points="1084.29,-82 927.29,-82 927.29,-62 1084.29,-62 1084.29,-82"/>
<text text-anchor="middle" x="1005.79" y="-68.5" font-family="Helvetica,sans-Serif" font-size="10.00">Storm/Component/IdtSelection.h</text>
</a>
</g>
</g>
<!-- Node1&#45;&gt;Node13 -->
<g id="edge21_Node000001_Node000013" class="edge">
<title>Node1&#45;&gt;Node13</title>
<g id="a_edge21_Node000001_Node000013"><a xlink:title=" ">
<path fill="none" stroke="#63b8ff" d="M1029.42,-316.72C1026.92,-309.07 1024.37,-300.23 1022.79,-292 1007.41,-211.85 1005.87,-112.67 1005.77,-82.28"/>
<polygon fill="#63b8ff" stroke="#63b8ff" points="1026.08,-317.77 1032.66,-326.07 1032.7,-315.48 1026.08,-317.77"/>
</a>
</g>
</g>
<!-- Node14 -->
<g id="Node000014" class="node">
<title>Node14</title>
<g id="a_Node000014"><a xlink:href="_component_2_operating_mode_8h.html" target="_top" xlink:title=" ">
<polygon fill="white" stroke="#666666" points="1241.67,-88 1101.92,-88 1101.92,-56 1241.67,-56 1241.67,-88"/>
<text text-anchor="start" x="1109.92" y="-74.5" font-family="Helvetica,sans-Serif" font-size="10.00">Storm/Component/Operating</text>
<text text-anchor="middle" x="1171.79" y="-62.5" font-family="Helvetica,sans-Serif" font-size="10.00">Mode.h</text>
</a>
</g>
</g>
<!-- Node1&#45;&gt;Node14 -->
<g id="edge23_Node000001_Node000014" class="edge">
<title>Node1&#45;&gt;Node14</title>
<g id="a_edge23_Node000001_Node000014"><a xlink:title=" ">
<path fill="none" stroke="#63b8ff" d="M1033.02,-316.7C1026.63,-275.92 1018.19,-182.9 1060.79,-124 1072.78,-107.42 1091.51,-96.09 1110.18,-88.41"/>
<polygon fill="#63b8ff" stroke="#63b8ff" points="1029.52,-317.04 1034.66,-326.3 1036.42,-315.86 1029.52,-317.04"/>
</a>
</g>
</g>
<!-- Node15 -->
<g id="Node000015" class="node">
<title>Node15</title>
<g id="a_Node000015"><a xlink:href="_pi_8h.html" target="_top" xlink:title=" ">
<polygon fill="white" stroke="#666666" points="1374.29,-82 1259.29,-82 1259.29,-62 1374.29,-62 1374.29,-82"/>
<text text-anchor="middle" x="1316.79" y="-68.5" font-family="Helvetica,sans-Serif" font-size="10.00">Storm/Component/Pi.h</text>
</a>
</g>
</g>
<!-- Node1&#45;&gt;Node15 -->
<g id="edge25_Node000001_Node000015" class="edge">
<title>Node1&#45;&gt;Node15</title>
<g id="a_edge25_Node000001_Node000015"><a xlink:title=" ">
<path fill="none" stroke="#63b8ff" d="M1040.2,-316.43C1046.2,-285.99 1061.21,-228.59 1093.79,-192 1146.62,-132.68 1236.22,-97.76 1284.19,-82.38"/>
<polygon fill="#63b8ff" stroke="#63b8ff" points="1036.77,-315.74 1038.43,-326.2 1043.66,-316.99 1036.77,-315.74"/>
</a>
</g>
</g>
<!-- Node16 -->
<g id="Node000016" class="node">
<title>Node16</title>
<g id="a_Node000016"><a xlink:href="_pi_pre_process_8h.html" target="_top" xlink:title=" ">
<polygon fill="white" stroke="#666666" points="672.79,-150 506.79,-150 506.79,-130 672.79,-130 672.79,-150"/>
<text text-anchor="middle" x="589.79" y="-136.5" font-family="Helvetica,sans-Serif" font-size="10.00">Storm/Component/PiPreProcess.h</text>
</a>
</g>
</g>
<!-- Node1&#45;&gt;Node16 -->
<g id="edge27_Node000001_Node000016" class="edge">
<title>Node1&#45;&gt;Node16</title>
<g id="a_edge27_Node000001_Node000016"><a xlink:title=" ">
<path fill="none" stroke="#63b8ff" d="M977.66,-334.62C924.61,-330.64 845.66,-320.05 782.79,-292 701.2,-255.6 623.6,-177.31 598.34,-150.35"/>
<polygon fill="#63b8ff" stroke="#63b8ff" points="977.18,-338.1 987.39,-335.29 977.66,-331.11 977.18,-338.1"/>
</a>
</g>
</g>
<!-- Node17 -->
<g id="Node000017" class="node">
<title>Node17</title>
<g id="a_Node000017"><a xlink:href="_model_points_8h.html" target="_top" xlink:title="This file defines all of the Model Points for the Thermostat Application.">
<polygon fill="white" stroke="#666666" points="1262.42,-286 1103.17,-286 1103.17,-266 1262.42,-266 1262.42,-286"/>
<text text-anchor="middle" x="1182.79" y="-272.5" font-family="Helvetica,sans-Serif" font-size="10.00">Storm/Thermostat/ModelPoints.h</text>
</a>
</g>
</g>
<!-- Node1&#45;&gt;Node17 -->
<g id="edge31_Node000001_Node000017" class="edge">
<title>Node1&#45;&gt;Node17</title>
<g id="a_edge31_Node000001_Node000017"><a xlink:title=" ">
<path fill="none" stroke="#63b8ff" d="M1069.94,-323.38C1097.5,-312.05 1135.99,-296.23 1160.14,-286.31"/>
<polygon fill="#63b8ff" stroke="#63b8ff" points="1068.92,-320.01 1061,-327.05 1071.58,-326.49 1068.92,-320.01"/>
</a>
</g>
</g>
<!-- Node23 -->
<g id="Node000023" class="node">
<title>Node23</title>
<g id="a_Node000023"><a xlink:href="_sim_house_2_model_points_8h.html" target="_top" xlink:title="This file defines test/simulation specific Model Points for the Thermostat Application.">
<polygon fill="white" stroke="#666666" points="1576.79,-292 1434.79,-292 1434.79,-260 1576.79,-260 1576.79,-292"/>
<text text-anchor="start" x="1442.79" y="-278.5" font-family="Helvetica,sans-Serif" font-size="10.00">Storm/Thermostat/SimHouse</text>
<text text-anchor="middle" x="1505.79" y="-266.5" font-family="Helvetica,sans-Serif" font-size="10.00">/ModelPoints.h</text>
</a>
</g>
</g>
<!-- Node1&#45;&gt;Node23 -->
<g id="edge39_Node000001_Node000023" class="edge">
<title>Node1&#45;&gt;Node23</title>
<g id="a_edge39_Node000001_Node000023"><a xlink:title=" ">
<path fill="none" stroke="#63b8ff" d="M1096.13,-331.44C1172.56,-323.99 1309.43,-309.62 1425.79,-292 1428.59,-291.58 1431.43,-291.13 1434.3,-290.66"/>
<polygon fill="#63b8ff" stroke="#63b8ff" points="1095.97,-327.94 1086.35,-332.39 1096.64,-334.91 1095.97,-327.94"/>
</a>
</g>
</g>
<!-- Node24 -->
<g id="Node000024" class="node">
<title>Node24</title>
<g id="a_Node000024"><a xlink:href="_ui_2_pico_display_2_model_points_8h.html" target="_top" xlink:title="This file defines the Model Points that are UI specific for the Thermostat Application.">
<polygon fill="white" stroke="#666666" points="1416.79,-292 1280.79,-292 1280.79,-260 1416.79,-260 1416.79,-292"/>
<text text-anchor="start" x="1288.79" y="-278.5" font-family="Helvetica,sans-Serif" font-size="10.00">Storm/Thermostat/Ui</text>
<text text-anchor="middle" x="1348.79" y="-266.5" font-family="Helvetica,sans-Serif" font-size="10.00">/PicoDisplay/ModelPoints.h</text>
</a>
</g>
</g>
<!-- Node1&#45;&gt;Node24 -->
<g id="edge40_Node000001_Node000024" class="edge">
<title>Node1&#45;&gt;Node24</title>
<g id="a_edge40_Node000001_Node000024"><a xlink:title=" ">
<path fill="none" stroke="#63b8ff" d="M1095.97,-325.72C1143.5,-316.65 1211.94,-303.56 1271.79,-292 1274.6,-291.46 1277.46,-290.9 1280.36,-290.34"/>
<polygon fill="#63b8ff" stroke="#63b8ff" points="1095.61,-322.23 1086.44,-327.54 1096.92,-329.1 1095.61,-322.23"/>
</a>
</g>
</g>
<!-- Node25 -->
<g id="Node000025" class="node">
<title>Node25</title>
<g id="a_Node000025"><a xlink:href="__file__logger_2_model_points_8h.html" target="_top" xlink:title="This file defines test/simulation specific Model Points for the Thermostat Application.">
<polygon fill="white" stroke="#666666" points="1708.92,-292 1594.67,-292 1594.67,-260 1708.92,-260 1708.92,-292"/>
<text text-anchor="start" x="1602.67" y="-278.5" font-family="Helvetica,sans-Serif" font-size="10.00">Storm/Thermostat/_file</text>
<text text-anchor="middle" x="1651.79" y="-266.5" font-family="Helvetica,sans-Serif" font-size="10.00">_logger/ModelPoints.h</text>
</a>
</g>
</g>
<!-- Node1&#45;&gt;Node25 -->
<g id="edge42_Node000001_Node000025" class="edge">
<title>Node1&#45;&gt;Node25</title>
<g id="a_edge42_Node000001_Node000025"><a xlink:title=" ">
<path fill="none" stroke="#63b8ff" d="M1096.27,-334.89C1197.36,-330.68 1408.95,-319.2 1585.79,-292 1588.58,-291.57 1591.42,-291.09 1594.29,-290.57"/>
<polygon fill="#63b8ff" stroke="#63b8ff" points="1096.15,-331.39 1086.3,-335.29 1096.44,-338.38 1096.15,-331.39"/>
</a>
</g>
</g>
<!-- Node3 -->
<g id="Node000003" class="node">
<title>Node3</title>
<g id="a_Node000003"><a xlink:href="_cooling_8h.html" target="_top" xlink:title=" ">
<polygon fill="white" stroke="#666666" points="164.92,-156 20.67,-156 20.67,-124 164.92,-124 164.92,-156"/>
<text text-anchor="start" x="28.67" y="-142.5" font-family="Helvetica,sans-Serif" font-size="10.00">Storm/Component/Equipment</text>
<text text-anchor="middle" x="92.79" y="-130.5" font-family="Helvetica,sans-Serif" font-size="10.00">/Cooling.h</text>
</a>
</g>
</g>
<!-- Node2&#45;&gt;Node3 -->
<g id="edge2_Node000002_Node000003" class="edge">
<title>Node2&#45;&gt;Node3</title>
<g id="a_edge2_Node000002_Node000003"><a xlink:title=" ">
<path fill="none" stroke="#63b8ff" d="M239.71,-262.33C213.89,-254.18 182.86,-241.74 158.79,-224 133.45,-205.32 112.51,-174.56 101.41,-156.2"/>
<polygon fill="#63b8ff" stroke="#63b8ff" points="238.38,-265.58 248.97,-265.12 240.41,-258.88 238.38,-265.58"/>
</a>
</g>
</g>
<!-- Node4 -->
<g id="Node000004" class="node">
<title>Node4</title>
<g id="a_Node000004"><a xlink:href="_algorithm_8h.html" target="_top" xlink:title=" ">
<polygon fill="white" stroke="#666666" points="743.04,-20 596.54,-20 596.54,0 743.04,0 743.04,-20"/>
<text text-anchor="middle" x="669.79" y="-6.5" font-family="Helvetica,sans-Serif" font-size="10.00">Storm/Thermostat/Algorithm.h</text>
</a>
</g>
</g>
<!-- Node2&#45;&gt;Node4 -->
<g id="edge16_Node000002_Node000004" class="edge">
<title>Node2&#45;&gt;Node4</title>
<g id="a_edge16_Node000002_Node000004"><a xlink:title=" ">
<path fill="none" stroke="#63b8ff" d="M210.76,-263.59C110.48,-245.58 -43.22,-204.07 11.79,-124 77.1,-28.95 438.48,-13.39 596.17,-11.17"/>
<polygon fill="#63b8ff" stroke="#63b8ff" points="209.85,-266.98 220.31,-265.25 211.06,-260.09 209.85,-266.98"/>
</a>
</g>
</g>
<!-- Node5 -->
<g id="Node000005" class="node">
<title>Node5</title>
<g id="a_Node000005"><a xlink:href="_indoor_heating_8h.html" target="_top" xlink:title=" ">
<polygon fill="white" stroke="#666666" points="326.92,-156 182.67,-156 182.67,-124 326.92,-124 326.92,-156"/>
<text text-anchor="start" x="190.67" y="-142.5" font-family="Helvetica,sans-Serif" font-size="10.00">Storm/Component/Equipment</text>
<text text-anchor="middle" x="254.79" y="-130.5" font-family="Helvetica,sans-Serif" font-size="10.00">/IndoorHeating.h</text>
</a>
</g>
</g>
<!-- Node2&#45;&gt;Node5 -->
<g id="edge4_Node000002_Node000005" class="edge">
<title>Node2&#45;&gt;Node5</title>
<g id="a_edge4_Node000002_Node000005"><a xlink:title=" ">
<path fill="none" stroke="#63b8ff" d="M305.25,-256.59C317.63,-239.48 331.33,-213.47 320.79,-192 313.32,-176.79 298.9,-164.83 285.43,-156.33"/>
<polygon fill="#63b8ff" stroke="#63b8ff" points="302.6,-254.3 299.23,-264.34 308.13,-258.59 302.6,-254.3"/>
</a>
</g>
</g>
<!-- Node6 -->
<g id="Node000006" class="node">
<title>Node6</title>
<g id="a_Node000006"><a xlink:href="_off_8h.html" target="_top" xlink:title=" ">
<polygon fill="white" stroke="#666666" points="597.92,-224 453.67,-224 453.67,-192 597.92,-192 597.92,-224"/>
<text text-anchor="start" x="461.67" y="-210.5" font-family="Helvetica,sans-Serif" font-size="10.00">Storm/Component/Equipment</text>
<text text-anchor="middle" x="525.79" y="-198.5" font-family="Helvetica,sans-Serif" font-size="10.00">/Off.h</text>
</a>
</g>
</g>
<!-- Node2&#45;&gt;Node6 -->
<g id="edge6_Node000002_Node000006" class="edge">
<title>Node2&#45;&gt;Node6</title>
<g id="a_edge6_Node000002_Node000006"><a xlink:title=" ">
<path fill="none" stroke="#63b8ff" d="M334.51,-262.49C373.17,-251.68 429.19,-236.01 470.62,-224.43"/>
<polygon fill="#63b8ff" stroke="#63b8ff" points="333.75,-259.07 325.06,-265.14 335.63,-265.81 333.75,-259.07"/>
</a>
</g>
</g>
<!-- Node7 -->
<g id="Node000007" class="node">
<title>Node7</title>
<g id="a_Node000007"><a xlink:href="_stage_api_8h.html" target="_top" xlink:title=" ">
<polygon fill="white" stroke="#666666" points="311.92,-224 167.67,-224 167.67,-192 311.92,-192 311.92,-224"/>
<text text-anchor="start" x="175.67" y="-210.5" font-family="Helvetica,sans-Serif" font-size="10.00">Storm/Component/Equipment</text>
<text text-anchor="middle" x="239.79" y="-198.5" font-family="Helvetica,sans-Serif" font-size="10.00">/StageApi.h</text>
</a>
</g>
</g>
<!-- Node2&#45;&gt;Node7 -->
<g id="edge8_Node000002_Node000007" class="edge">
<title>Node2&#45;&gt;Node7</title>
<g id="a_edge8_Node000002_Node000007"><a xlink:title=" ">
<path fill="none" stroke="#63b8ff" d="M275.9,-256.67C268.19,-246.48 258.7,-233.96 251.38,-224.3"/>
<polygon fill="#63b8ff" stroke="#63b8ff" points="272.88,-258.48 281.71,-264.34 278.46,-254.25 272.88,-258.48"/>
</a>
</g>
</g>
<!-- Node3&#45;&gt;Node4 -->
<g id="edge3_Node000003_Node000004" class="edge">
<title>Node3&#45;&gt;Node4</title>
<g id="a_edge3_Node000003_Node000004"><a xlink:title=" ">
<path fill="none" stroke="#63b8ff" d="M129.51,-118.07C165.37,-98.65 222.1,-70.62 274.79,-56 384.03,-25.69 515.7,-15.75 596.04,-12.52"/>
<polygon fill="#63b8ff" stroke="#63b8ff" points="127.94,-114.94 120.85,-122.82 131.3,-121.08 127.94,-114.94"/>
</a>
</g>
</g>
<!-- Node5&#45;&gt;Node4 -->
<g id="edge5_Node000005_Node000004" class="edge">
<title>Node5&#45;&gt;Node4</title>
<g id="a_edge5_Node000005_Node000004"><a xlink:title=" ">
<path fill="none" stroke="#63b8ff" d="M264.14,-113.36C272.52,-94.26 286.76,-69.27 307.79,-56 354.32,-26.63 504.44,-16.4 596.11,-12.86"/>
<polygon fill="#63b8ff" stroke="#63b8ff" points="260.99,-111.81 260.45,-122.39 267.47,-114.46 260.99,-111.81"/>
</a>
</g>
</g>
<!-- Node6&#45;&gt;Node4 -->
<g id="edge7_Node000006_Node000004" class="edge">
<title>Node6&#45;&gt;Node4</title>
<g id="a_edge7_Node000006_Node000004"><a xlink:title=" ">
<path fill="none" stroke="#63b8ff" d="M609.1,-199.28C636.76,-192.28 664.81,-179.42 681.79,-156 712.49,-113.67 685.7,-44.99 674.32,-20.25"/>
<polygon fill="#63b8ff" stroke="#63b8ff" points="608.58,-195.81 599.6,-201.44 610.13,-202.64 608.58,-195.81"/>
</a>
</g>
</g>
<!-- Node7&#45;&gt;Node3 -->
<g id="edge9_Node000007_Node000003" class="edge">
<title>Node7&#45;&gt;Node3</title>
<g id="a_edge9_Node000007_Node000003"><a xlink:title=" ">
<path fill="none" stroke="#63b8ff" d="M195.01,-186.89C173.25,-177.12 147.5,-165.56 127.29,-156.49"/>
<polygon fill="#63b8ff" stroke="#63b8ff" points="193.39,-190 203.95,-190.91 196.26,-183.62 193.39,-190"/>
</a>
</g>
</g>
<!-- Node7&#45;&gt;Node5 -->
<g id="edge10_Node000007_Node000005" class="edge">
<title>Node7&#45;&gt;Node5</title>
<g id="a_edge10_Node000007_Node000005"><a xlink:title=" ">
<path fill="none" stroke="#63b8ff" d="M245.79,-180.6C247.67,-172.32 249.69,-163.46 251.33,-156.22"/>
<polygon fill="#63b8ff" stroke="#63b8ff" points="242.41,-179.69 243.61,-190.22 249.23,-181.24 242.41,-179.69"/>
</a>
</g>
</g>
<!-- Node8 -->
<g id="Node000008" class="node">
<title>Node8</title>
<g id="a_Node000008"><a xlink:href="_storm_2_component_2_equipment_2_stage_2_basic_8h.html" target="_top" xlink:title=" ">
<polygon fill="white" stroke="#666666" points="488.92,-156 344.67,-156 344.67,-124 488.92,-124 488.92,-156"/>
<text text-anchor="start" x="352.67" y="-142.5" font-family="Helvetica,sans-Serif" font-size="10.00">Storm/Component/Equipment</text>
<text text-anchor="middle" x="416.79" y="-130.5" font-family="Helvetica,sans-Serif" font-size="10.00">/Stage/Basic.h</text>
</a>
</g>
</g>
<!-- Node7&#45;&gt;Node8 -->
<g id="edge11_Node000007_Node000008" class="edge">
<title>Node7&#45;&gt;Node8</title>
<g id="a_edge11_Node000007_Node000008"><a xlink:title=" ">
<path fill="none" stroke="#63b8ff" d="M291.94,-187.56C318.5,-177.65 350.36,-165.77 375.25,-156.49"/>
<polygon fill="#63b8ff" stroke="#63b8ff" points="290.85,-184.22 282.71,-191 293.3,-190.78 290.85,-184.22"/>
</a>
</g>
</g>
<!-- Node9 -->
<g id="Node000009" class="node">
<title>Node9</title>
<g id="a_Node000009"><a xlink:href="_basic_cooling_8h.html" target="_top" xlink:title=" ">
<polygon fill="white" stroke="#666666" points="460.92,-88 316.67,-88 316.67,-56 460.92,-56 460.92,-88"/>
<text text-anchor="start" x="324.67" y="-74.5" font-family="Helvetica,sans-Serif" font-size="10.00">Storm/Component/Equipment</text>
<text text-anchor="middle" x="388.79" y="-62.5" font-family="Helvetica,sans-Serif" font-size="10.00">/Stage/BasicCooling.h</text>
</a>
</g>
</g>
<!-- Node8&#45;&gt;Node9 -->
<g id="edge12_Node000008_Node000009" class="edge">
<title>Node8&#45;&gt;Node9</title>
<g id="a_edge12_Node000008_Node000009"><a xlink:title=" ">
<path fill="none" stroke="#63b8ff" d="M405.83,-113.17C402.25,-104.73 398.39,-95.63 395.25,-88.22"/>
<polygon fill="#63b8ff" stroke="#63b8ff" points="402.58,-114.46 409.71,-122.3 409.02,-111.73 402.58,-114.46"/>
</a>
</g>
</g>
<!-- Node10 -->
<g id="Node000010" class="node">
<title>Node10</title>
<g id="a_Node000010"><a xlink:href="_basic_indoor_heat_8h.html" target="_top" xlink:title=" ">
<polygon fill="white" stroke="#666666" points="622.92,-88 478.67,-88 478.67,-56 622.92,-56 622.92,-88"/>
<text text-anchor="start" x="486.67" y="-74.5" font-family="Helvetica,sans-Serif" font-size="10.00">Storm/Component/Equipment</text>
<text text-anchor="middle" x="550.79" y="-62.5" font-family="Helvetica,sans-Serif" font-size="10.00">/Stage/BasicIndoorHeat.h</text>
</a>
</g>
</g>
<!-- Node8&#45;&gt;Node10 -->
<g id="edge14_Node000008_Node000010" class="edge">
<title>Node8&#45;&gt;Node10</title>
<g id="a_edge14_Node000008_Node000010"><a xlink:title=" ">
<path fill="none" stroke="#63b8ff" d="M458.47,-118.47C478.2,-108.75 501.38,-97.34 519.57,-88.38"/>
<polygon fill="#63b8ff" stroke="#63b8ff" points="456.99,-115.3 449.57,-122.86 460.08,-121.58 456.99,-115.3"/>
</a>
</g>
</g>
<!-- Node9&#45;&gt;Node4 -->
<g id="edge13_Node000009_Node000004" class="edge">
<title>Node9&#45;&gt;Node4</title>
<g id="a_edge13_Node000009_Node000004"><a xlink:title=" ">
<path fill="none" stroke="#63b8ff" d="M472.33,-53.16C522.5,-42.45 584.35,-29.24 625.32,-20.5"/>
<polygon fill="#63b8ff" stroke="#63b8ff" points="471.68,-49.72 462.64,-55.23 473.15,-56.57 471.68,-49.72"/>
</a>
</g>
</g>
<!-- Node10&#45;&gt;Node4 -->
<g id="edge15_Node000010_Node000004" class="edge">
<title>Node10&#45;&gt;Node4</title>
<g id="a_edge15_Node000010_Node000004"><a xlink:title=" ">
<path fill="none" stroke="#63b8ff" d="M591.65,-50.4C611.86,-40.21 635.25,-28.42 651.13,-20.41"/>
<polygon fill="#63b8ff" stroke="#63b8ff" points="590.14,-47.24 582.79,-54.87 593.29,-53.49 590.14,-47.24"/>
</a>
</g>
</g>
<!-- Node11&#45;&gt;Node4 -->
<g id="edge18_Node000011_Node000004" class="edge">
<title>Node11&#45;&gt;Node4</title>
<g id="a_edge18_Node000011_Node000004"><a xlink:title=" ">
<path fill="none" stroke="#63b8ff" d="M764.07,-56.62C740.79,-45.35 709.09,-30.01 689.03,-20.31"/>
<polygon fill="#63b8ff" stroke="#63b8ff" points="762.53,-59.76 773.05,-60.97 765.58,-53.46 762.53,-59.76"/>
</a>
</g>
</g>
<!-- Node12&#45;&gt;Node4 -->
<g id="edge20_Node000012_Node000004" class="edge">
<title>Node12&#45;&gt;Node4</title>
<g id="a_edge20_Node000012_Node000004"><a xlink:title=" ">
<path fill="none" stroke="#63b8ff" d="M899.71,-112.43C898.85,-94.13 894.57,-70.58 879.79,-56 860.58,-37.05 795.95,-25.14 743.41,-18.37"/>
<polygon fill="#63b8ff" stroke="#63b8ff" points="896.21,-112.35 899.83,-122.31 903.21,-112.27 896.21,-112.35"/>
</a>
</g>
</g>
<!-- Node13&#45;&gt;Node4 -->
<g id="edge22_Node000013_Node000004" class="edge">
<title>Node13&#45;&gt;Node4</title>
<g id="a_edge22_Node000013_Node000004"><a xlink:title=" ">
<path fill="none" stroke="#63b8ff" d="M941.86,-59.58C878.41,-48.25 782.28,-31.09 722.91,-20.48"/>
<polygon fill="#63b8ff" stroke="#63b8ff" points="940.97,-62.98 951.43,-61.29 942.2,-56.09 940.97,-62.98"/>
</a>
</g>
</g>
<!-- Node14&#45;&gt;Node4 -->
<g id="edge24_Node000014_Node000004" class="edge">
<title>Node14&#45;&gt;Node4</title>
<g id="a_edge24_Node000014_Node000004"><a xlink:title=" ">
<path fill="none" stroke="#63b8ff" d="M1090.49,-55.74C962.74,-37.19 825.56,-24.1 743.38,-16.99"/>
<polygon fill="#63b8ff" stroke="#63b8ff" points="1089.73,-59.16 1100.13,-57.15 1090.75,-52.24 1089.73,-59.16"/>
</a>
</g>
</g>
<!-- Node15&#45;&gt;Node4 -->
<g id="edge26_Node000015_Node000004" class="edge">
<title>Node15&#45;&gt;Node4</title>
<g id="a_edge26_Node000015_Node000004"><a xlink:title=" ">
<path fill="none" stroke="#63b8ff" d="M1268.41,-59.16C1262.5,-57.96 1256.53,-56.87 1250.79,-56 1069.49,-28.53 853.67,-17.4 743.1,-13.24"/>
<polygon fill="#63b8ff" stroke="#63b8ff" points="1267.63,-62.57 1278.14,-61.24 1269.1,-55.72 1267.63,-62.57"/>
</a>
</g>
</g>
<!-- Node16&#45;&gt;Node4 -->
<g id="edge30_Node000016_Node000004" class="edge">
<title>Node16&#45;&gt;Node4</title>
<g id="a_edge30_Node000016_Node000004"><a xlink:title=" ">
<path fill="none" stroke="#63b8ff" d="M606.13,-121.25C614.38,-111.79 624.23,-99.71 631.79,-88 646.68,-64.96 659.8,-35.26 666,-20.38"/>
<polygon fill="#63b8ff" stroke="#63b8ff" points="603.61,-118.82 599.55,-128.61 608.83,-123.48 603.61,-118.82"/>
</a>
</g>
</g>
<!-- Node16&#45;&gt;Node9 -->
<g id="edge28_Node000016_Node000009" class="edge">
<title>Node16&#45;&gt;Node9</title>
<g id="a_edge28_Node000016_Node000009"><a xlink:title=" ">
<path fill="none" stroke="#63b8ff" d="M550.42,-126.07C517.55,-115.28 470.61,-99.87 435.78,-88.43"/>
<polygon fill="#63b8ff" stroke="#63b8ff" points="548.96,-129.28 559.55,-129.07 551.15,-122.63 548.96,-129.28"/>
</a>
</g>
</g>
<!-- Node16&#45;&gt;Node10 -->
<g id="edge29_Node000016_Node000010" class="edge">
<title>Node16&#45;&gt;Node10</title>
<g id="a_edge29_Node000016_Node000010"><a xlink:title=" ">
<path fill="none" stroke="#63b8ff" d="M578.39,-119.71C572.48,-109.71 565.36,-97.66 559.83,-88.3"/>
<polygon fill="#63b8ff" stroke="#63b8ff" points="575.33,-121.41 583.43,-128.24 581.36,-117.85 575.33,-121.41"/>
</a>
</g>
</g>
<!-- Node18 -->
<g id="Node000018" class="node">
<title>Node18</title>
<g id="a_Node000018"><a xlink:href="_installer_record_8h_source.html" target="_top" xlink:title=" ">
<polygon fill="white" stroke="#666666" points="1220.79,-224 1102.79,-224 1102.79,-192 1220.79,-192 1220.79,-224"/>
<text text-anchor="start" x="1110.79" y="-210.5" font-family="Helvetica,sans-Serif" font-size="10.00">Storm/Thermostat/Main</text>
<text text-anchor="middle" x="1161.79" y="-198.5" font-family="Helvetica,sans-Serif" font-size="10.00">/InstallerRecord.h</text>
</a>
</g>
</g>
<!-- Node17&#45;&gt;Node18 -->
<g id="edge32_Node000017_Node000018" class="edge">
<title>Node17&#45;&gt;Node18</title>
<g id="a_edge32_Node000017_Node000018"><a xlink:title=" ">
<path fill="none" stroke="#63b8ff" d="M1176.35,-254.75C1173.23,-244.94 1169.54,-233.36 1166.66,-224.3"/>
<polygon fill="#63b8ff" stroke="#63b8ff" points="1172.96,-255.63 1179.32,-264.1 1179.63,-253.51 1172.96,-255.63"/>
</a>
</g>
</g>
<!-- Node20 -->
<g id="Node000020" class="node">
<title>Node20</title>
<g id="a_Node000020"><a xlink:href="_run_time_record_8h_source.html" target="_top" xlink:title=" ">
<polygon fill="white" stroke="#666666" points="1356.79,-224 1238.79,-224 1238.79,-192 1356.79,-192 1356.79,-224"/>
<text text-anchor="start" x="1246.79" y="-210.5" font-family="Helvetica,sans-Serif" font-size="10.00">Storm/Thermostat/Main</text>
<text text-anchor="middle" x="1297.79" y="-198.5" font-family="Helvetica,sans-Serif" font-size="10.00">/RunTimeRecord.h</text>
</a>
</g>
</g>
<!-- Node17&#45;&gt;Node20 -->
<g id="edge34_Node000017_Node000020" class="edge">
<title>Node17&#45;&gt;Node20</title>
<g id="a_edge34_Node000017_Node000020"><a xlink:title=" ">
<path fill="none" stroke="#63b8ff" d="M1209.13,-259.88C1227.7,-249.23 1252.49,-235 1271.13,-224.3"/>
<polygon fill="#63b8ff" stroke="#63b8ff" points="1207.51,-256.78 1200.58,-264.79 1211,-262.85 1207.51,-256.78"/>
</a>
</g>
</g>
<!-- Node21 -->
<g id="Node000021" class="node">
<title>Node21</title>
<g id="a_Node000021"><a xlink:href="_user_record_8h_source.html" target="_top" xlink:title=" ">
<polygon fill="white" stroke="#666666" points="1492.79,-224 1374.79,-224 1374.79,-192 1492.79,-192 1492.79,-224"/>
<text text-anchor="start" x="1382.79" y="-210.5" font-family="Helvetica,sans-Serif" font-size="10.00">Storm/Thermostat/Main</text>
<text text-anchor="middle" x="1433.79" y="-198.5" font-family="Helvetica,sans-Serif" font-size="10.00">/UserRecord.h</text>
</a>
</g>
</g>
<!-- Node17&#45;&gt;Node21 -->
<g id="edge36_Node000017_Node000021" class="edge">
<title>Node17&#45;&gt;Node21</title>
<g id="a_edge36_Node000017_Node000021"><a xlink:title=" ">
<path fill="none" stroke="#63b8ff" d="M1229.83,-262.63C1270.96,-251.82 1330.86,-236.06 1375.12,-224.43"/>
<polygon fill="#63b8ff" stroke="#63b8ff" points="1229,-259.23 1220.22,-265.16 1230.78,-266 1229,-259.23"/>
</a>
</g>
</g>
<!-- Node22 -->
<g id="Node000022" class="node">
<title>Node22</title>
<g id="a_Node000022"><a xlink:href="_event_monitor_8h_source.html" target="_top" xlink:title=" ">
<polygon fill="white" stroke="#666666" points="1648.92,-224 1510.67,-224 1510.67,-192 1648.92,-192 1648.92,-224"/>
<text text-anchor="start" x="1518.67" y="-210.5" font-family="Helvetica,sans-Serif" font-size="10.00">Storm/Thermostat/Ui</text>
<text text-anchor="middle" x="1579.79" y="-198.5" font-family="Helvetica,sans-Serif" font-size="10.00">/PicoDisplay/EventMonitor.h</text>
</a>
</g>
</g>
<!-- Node17&#45;&gt;Node22 -->
<g id="edge38_Node000017_Node000022" class="edge">
<title>Node17&#45;&gt;Node22</title>
<g id="a_edge38_Node000017_Node000022"><a xlink:title=" ">
<path fill="none" stroke="#63b8ff" d="M1249.61,-263.65C1257.09,-262.41 1264.6,-261.17 1271.79,-260 1373.92,-243.4 1399.86,-241.77 1501.79,-224 1504.64,-223.5 1507.55,-222.99 1510.49,-222.46"/>
<polygon fill="#63b8ff" stroke="#63b8ff" points="1249.1,-260.19 1239.81,-265.29 1250.25,-267.09 1249.1,-260.19"/>
</a>
</g>
</g>
<!-- Node19 -->
<g id="Node000019" class="node">
<title>Node19</title>
<g id="a_Node000019"><a xlink:href="statics___8h.html" target="_top" xlink:title="This file defines/creates persistent records and record server for the Thermostat simulation.">
<polygon fill="white" stroke="#666666" points="1356.79,-156 1238.79,-156 1238.79,-124 1356.79,-124 1356.79,-156"/>
<text text-anchor="start" x="1246.79" y="-142.5" font-family="Helvetica,sans-Serif" font-size="10.00">Storm/Thermostat/Main</text>
<text text-anchor="middle" x="1297.79" y="-130.5" font-family="Helvetica,sans-Serif" font-size="10.00">/_simulation/statics_.h</text>
</a>
</g>
</g>
<!-- Node18&#45;&gt;Node19 -->
<g id="edge33_Node000018_Node000019" class="edge">
<title>Node18&#45;&gt;Node19</title>
<g id="a_edge33_Node000018_Node000019"><a xlink:title=" ">
<path fill="none" stroke="#63b8ff" d="M1203.81,-186.61C1223.9,-176.86 1247.56,-165.38 1266.1,-156.38"/>
<polygon fill="#63b8ff" stroke="#63b8ff" points="1202.51,-183.35 1195.04,-190.87 1205.56,-189.65 1202.51,-183.35"/>
</a>
</g>
</g>
<!-- Node20&#45;&gt;Node19 -->
<g id="edge35_Node000020_Node000019" class="edge">
<title>Node20&#45;&gt;Node19</title>
<g id="a_edge35_Node000020_Node000019"><a xlink:title=" ">
<path fill="none" stroke="#63b8ff" d="M1297.79,-180.31C1297.79,-172.12 1297.79,-163.38 1297.79,-156.22"/>
<polygon fill="#63b8ff" stroke="#63b8ff" points="1294.29,-180.18 1297.79,-190.18 1301.29,-180.18 1294.29,-180.18"/>
</a>
</g>
</g>
<!-- Node21&#45;&gt;Node19 -->
<g id="edge37_Node000021_Node000019" class="edge">
<title>Node21&#45;&gt;Node19</title>
<g id="a_edge37_Node000021_Node000019"><a xlink:title=" ">
<path fill="none" stroke="#63b8ff" d="M1391.77,-186.61C1371.68,-176.86 1348.03,-165.38 1329.48,-156.38"/>
<polygon fill="#63b8ff" stroke="#63b8ff" points="1390.02,-189.65 1400.54,-190.87 1393.07,-183.35 1390.02,-189.65"/>
</a>
</g>
</g>
<!-- Node24&#45;&gt;Node22 -->
<g id="edge41_Node000024_Node000022" class="edge">
<title>Node24&#45;&gt;Node22</title>
<g id="a_edge41_Node000024_Node000022"><a xlink:title=" ">
<path fill="none" stroke="#63b8ff" d="M1413.63,-256.47C1448.92,-246.39 1492.08,-234.06 1525.57,-224.49"/>
<polygon fill="#63b8ff" stroke="#63b8ff" points="1413.06,-253 1404.41,-259.11 1414.98,-259.73 1413.06,-253"/>
</a>
</g>
</g>
</g>
</svg>
