<?xml version="1.0" encoding="UTF-8" standalone="no"?>
<!DOCTYPE svg PUBLIC "-//W3C//DTD SVG 1.1//EN"
 "http://www.w3.org/Graphics/SVG/1.1/DTD/svg11.dtd">
<!-- Generated by graphviz version 2.38.0 (20140413.2041)
 -->
<!-- Title: Cpl/Dm/Mp/Bool.h Pages: 1 -->
<svg width="1637pt" height="352pt"
 viewBox="0.00 0.00 1637.00 352.00" xmlns="http://www.w3.org/2000/svg" xmlns:xlink="http://www.w3.org/1999/xlink">
<g id="graph0" class="graph" transform="scale(1 1) rotate(0) translate(4 348)">
<title>Cpl/Dm/Mp/Bool.h</title>
<polygon fill="white" stroke="none" points="-4,4 -4,-348 1633,-348 1633,4 -4,4"/>
<!-- Node1 -->
<g id="node1" class="node"><title>Node1</title>
<g id="a_node1"><a xlink:title=" ">
<polygon fill="#bfbfbf" stroke="black" points="1040.5,-324.5 1040.5,-343.5 1136.5,-343.5 1136.5,-324.5 1040.5,-324.5"/>
<text text-anchor="middle" x="1088.5" y="-331.5" font-family="Helvetica,sans-Serif" font-size="10.00">Cpl/Dm/Mp/Bool.h</text>
</a>
</g>
</g>
<!-- Node2 -->
<g id="node2" class="node"><title>Node2</title>
<g id="a_node2"><a xlink:href="_control_8h.html" target="_top" xlink:title=" ">
<polygon fill="white" stroke="black" points="219,-263 219,-282 356,-282 356,-263 219,-263"/>
<text text-anchor="middle" x="287.5" y="-270" font-family="Helvetica,sans-Serif" font-size="10.00">Storm/Component/Control.h</text>
</a>
</g>
</g>
<!-- Node1&#45;&gt;Node2 -->
<g id="edge1" class="edge"><title>Node1&#45;&gt;Node2</title>
<path fill="none" stroke="midnightblue" d="M1030.51,-328.692C886.19,-317.972 511.382,-290.13 356.266,-278.608"/>
<polygon fill="midnightblue" stroke="midnightblue" points="1030.26,-332.184 1040.5,-329.434 1030.78,-325.203 1030.26,-332.184"/>
</g>
<!-- Node11 -->
<g id="node11" class="node"><title>Node11</title>
<g id="a_node11"><a xlink:href="_fan_control_8h.html" target="_top" xlink:title=" ">
<polygon fill="white" stroke="black" points="791.5,-62 791.5,-81 945.5,-81 945.5,-62 791.5,-62"/>
<text text-anchor="middle" x="868.5" y="-69" font-family="Helvetica,sans-Serif" font-size="10.00">Storm/Component/FanControl.h</text>
</a>
</g>
</g>
<!-- Node1&#45;&gt;Node11 -->
<g id="edge17" class="edge"><title>Node1&#45;&gt;Node11</title>
<path fill="none" stroke="midnightblue" d="M1053.01,-320.826C1011.27,-304.649 942.928,-272.023 905.5,-221 872.655,-176.225 868.779,-105.581 868.462,-81.1507"/>
<polygon fill="midnightblue" stroke="midnightblue" points="1051.92,-324.154 1062.51,-324.4 1054.38,-317.602 1051.92,-324.154"/>
</g>
<!-- Node12 -->
<g id="node12" class="node"><title>Node12</title>
<g id="a_node12"><a xlink:href="_component_2_hvac_relay_outputs_8h.html" target="_top" xlink:title=" ">
<polygon fill="white" stroke="black" points="914.5,-190.5 914.5,-220.5 1060.5,-220.5 1060.5,-190.5 914.5,-190.5"/>
<text text-anchor="start" x="922.5" y="-208.5" font-family="Helvetica,sans-Serif" font-size="10.00">Storm/Component/HvacRelay</text>
<text text-anchor="middle" x="987.5" y="-197.5" font-family="Helvetica,sans-Serif" font-size="10.00">Outputs.h</text>
</a>
</g>
</g>
<!-- Node1&#45;&gt;Node12 -->
<g id="edge19" class="edge"><title>Node1&#45;&gt;Node12</title>
<path fill="none" stroke="midnightblue" d="M1075.29,-316.459C1055.35,-291.477 1017.87,-244.534 998.988,-220.888"/>
<polygon fill="midnightblue" stroke="midnightblue" points="1072.58,-318.674 1081.56,-324.305 1078.05,-314.307 1072.58,-318.674"/>
</g>
<!-- Node13 -->
<g id="node13" class="node"><title>Node13</title>
<g id="a_node13"><a xlink:href="_idt_selection_8h.html" target="_top" xlink:title=" ">
<polygon fill="white" stroke="black" points="973.5,-129 973.5,-148 1131.5,-148 1131.5,-129 973.5,-129"/>
<text text-anchor="middle" x="1052.5" y="-136" font-family="Helvetica,sans-Serif" font-size="10.00">Storm/Component/IdtSelection.h</text>
</a>
</g>
</g>
<!-- Node1&#45;&gt;Node13 -->
<g id="edge21" class="edge"><title>Node1&#45;&gt;Node13</title>
<path fill="none" stroke="midnightblue" d="M1087.15,-313.996C1084.92,-286.401 1079.67,-233.757 1069.5,-190 1066.02,-175.042 1059.91,-158.249 1056.04,-148.29"/>
<polygon fill="midnightblue" stroke="midnightblue" points="1083.67,-314.484 1087.92,-324.189 1090.65,-313.952 1083.67,-314.484"/>
</g>
<!-- Node14 -->
<g id="node14" class="node"><title>Node14</title>
<g id="a_node14"><a xlink:href="_component_2_operating_mode_8h.html" target="_top" xlink:title=" ">
<polygon fill="white" stroke="black" points="1039.5,-56.5 1039.5,-86.5 1179.5,-86.5 1179.5,-56.5 1039.5,-56.5"/>
<text text-anchor="start" x="1047.5" y="-74.5" font-family="Helvetica,sans-Serif" font-size="10.00">Storm/Component/Operating</text>
<text text-anchor="middle" x="1109.5" y="-63.5" font-family="Helvetica,sans-Serif" font-size="10.00">Mode.h</text>
</a>
</g>
</g>
<!-- Node1&#45;&gt;Node14 -->
<g id="edge23" class="edge"><title>Node1&#45;&gt;Node14</title>
<path fill="none" stroke="midnightblue" d="M1095.61,-314.912C1107.73,-283.022 1131.9,-214.447 1140.5,-154 1142.44,-140.36 1144.24,-136.259 1140.5,-123 1136.7,-109.536 1128.19,-96.1249 1121.04,-86.5106"/>
<polygon fill="midnightblue" stroke="midnightblue" points="1092.34,-313.666 1092.01,-324.256 1098.87,-316.187 1092.34,-313.666"/>
</g>
<!-- Node15 -->
<g id="node15" class="node"><title>Node15</title>
<g id="a_node15"><a xlink:href="_pi_8h.html" target="_top" xlink:title=" ">
<polygon fill="white" stroke="black" points="1160.5,-263 1160.5,-282 1276.5,-282 1276.5,-263 1160.5,-263"/>
<text text-anchor="middle" x="1218.5" y="-270" font-family="Helvetica,sans-Serif" font-size="10.00">Storm/Component/Pi.h</text>
</a>
</g>
</g>
<!-- Node1&#45;&gt;Node15 -->
<g id="edge25" class="edge"><title>Node1&#45;&gt;Node15</title>
<path fill="none" stroke="midnightblue" d="M1116.52,-320.174C1141.75,-308.629 1178.11,-291.987 1199.91,-282.009"/>
<polygon fill="midnightblue" stroke="midnightblue" points="1114.76,-317.131 1107.13,-324.475 1117.68,-323.496 1114.76,-317.131"/>
</g>
<!-- Node16 -->
<g id="node16" class="node"><title>Node16</title>
<g id="a_node16"><a xlink:href="_pi_pre_process_8h.html" target="_top" xlink:title=" ">
<polygon fill="white" stroke="black" points="691,-129 691,-148 858,-148 858,-129 691,-129"/>
<text text-anchor="middle" x="774.5" y="-136" font-family="Helvetica,sans-Serif" font-size="10.00">Storm/Component/PiPreProcess.h</text>
</a>
</g>
</g>
<!-- Node1&#45;&gt;Node16 -->
<g id="edge27" class="edge"><title>Node1&#45;&gt;Node16</title>
<path fill="none" stroke="midnightblue" d="M1030.04,-332.696C983.704,-329.82 919.199,-319.705 872.5,-288 818.577,-251.391 786.968,-174.248 777.521,-148.259"/>
<polygon fill="midnightblue" stroke="midnightblue" points="1030.06,-336.201 1040.23,-333.23 1030.43,-329.211 1030.06,-336.201"/>
</g>
<!-- Node17 -->
<g id="node17" class="node"><title>Node17</title>
<g id="a_node17"><a xlink:href="_model_points_8h.html" target="_top" xlink:title=" ">
<polygon fill="white" stroke="black" points="1295,-263 1295,-282 1456,-282 1456,-263 1295,-263"/>
<text text-anchor="middle" x="1375.5" y="-270" font-family="Helvetica,sans-Serif" font-size="10.00">Storm/Thermostat/ModelPoints.h</text>
</a>
</g>
</g>
<!-- Node1&#45;&gt;Node17 -->
<g id="edge31" class="edge"><title>Node1&#45;&gt;Node17</title>
<path fill="none" stroke="midnightblue" d="M1139.62,-322.402C1195.26,-310.867 1283.13,-292.65 1334.46,-282.009"/>
<polygon fill="midnightblue" stroke="midnightblue" points="1138.7,-319.018 1129.62,-324.475 1140.12,-325.872 1138.7,-319.018"/>
</g>
<!-- Node21 -->
<g id="node21" class="node"><title>Node21</title>
<g id="a_node21"><a xlink:href="_sim_house_2_model_points_8h.html" target="_top" xlink:title=" ">
<polygon fill="white" stroke="black" points="1474,-257.5 1474,-287.5 1617,-287.5 1617,-257.5 1474,-257.5"/>
<text text-anchor="start" x="1482" y="-275.5" font-family="Helvetica,sans-Serif" font-size="10.00">Storm/Thermostat/SimHouse</text>
<text text-anchor="middle" x="1545.5" y="-264.5" font-family="Helvetica,sans-Serif" font-size="10.00">/ModelPoints.h</text>
</a>
</g>
</g>
<!-- Node1&#45;&gt;Node21 -->
<g id="edge35" class="edge"><title>Node1&#45;&gt;Node21</title>
<path fill="none" stroke="midnightblue" d="M1146.75,-327.088C1220.77,-319.332 1352.4,-304.727 1464.5,-288 1467.61,-287.536 1470.78,-287.045 1473.98,-286.535"/>
<polygon fill="midnightblue" stroke="midnightblue" points="1146.28,-323.618 1136.7,-328.136 1147.01,-330.58 1146.28,-323.618"/>
</g>
<!-- Node3 -->
<g id="node3" class="node"><title>Node3</title>
<g id="a_node3"><a xlink:href="_cooling_8h.html" target="_top" xlink:title=" ">
<polygon fill="white" stroke="black" points="365,-123.5 365,-153.5 510,-153.5 510,-123.5 365,-123.5"/>
<text text-anchor="start" x="373" y="-141.5" font-family="Helvetica,sans-Serif" font-size="10.00">Storm/Component/Equipment</text>
<text text-anchor="middle" x="437.5" y="-130.5" font-family="Helvetica,sans-Serif" font-size="10.00">/Cooling.h</text>
</a>
</g>
</g>
<!-- Node2&#45;&gt;Node3 -->
<g id="edge2" class="edge"><title>Node2&#45;&gt;Node3</title>
<path fill="none" stroke="midnightblue" d="M296.364,-253.865C306.024,-236.014 322.888,-208.479 343.5,-190 360.604,-174.666 383.193,-162.338 401.94,-153.703"/>
<polygon fill="midnightblue" stroke="midnightblue" points="293.177,-252.407 291.648,-262.891 299.381,-255.649 293.177,-252.407"/>
</g>
<!-- Node4 -->
<g id="node4" class="node"><title>Node4</title>
<g id="a_node4"><a xlink:href="_algorithm_8h.html" target="_top" xlink:title=" ">
<polygon fill="white" stroke="black" points="638.5,-0.5 638.5,-19.5 786.5,-19.5 786.5,-0.5 638.5,-0.5"/>
<text text-anchor="middle" x="712.5" y="-7.5" font-family="Helvetica,sans-Serif" font-size="10.00">Storm/Thermostat/Algorithm.h</text>
</a>
</g>
</g>
<!-- Node2&#45;&gt;Node4 -->
<g id="edge16" class="edge"><title>Node2&#45;&gt;Node4</title>
<path fill="none" stroke="midnightblue" d="M265.917,-257.006C229.022,-230.392 160.74,-171.971 192.5,-123 240.52,-48.9584 506.678,-23.046 638.493,-14.6676"/>
<polygon fill="midnightblue" stroke="midnightblue" points="263.924,-259.883 274.118,-262.772 267.951,-254.157 263.924,-259.883"/>
</g>
<!-- Node5 -->
<g id="node5" class="node"><title>Node5</title>
<g id="a_node5"><a xlink:href="_indoor_heating_8h.html" target="_top" xlink:title=" ">
<polygon fill="white" stroke="black" points="202,-123.5 202,-153.5 347,-153.5 347,-123.5 202,-123.5"/>
<text text-anchor="start" x="210" y="-141.5" font-family="Helvetica,sans-Serif" font-size="10.00">Storm/Component/Equipment</text>
<text text-anchor="middle" x="274.5" y="-130.5" font-family="Helvetica,sans-Serif" font-size="10.00">/IndoorHeating.h</text>
</a>
</g>
</g>
<!-- Node2&#45;&gt;Node5 -->
<g id="edge4" class="edge"><title>Node2&#45;&gt;Node5</title>
<path fill="none" stroke="midnightblue" d="M285.632,-252.531C283,-225.812 278.261,-177.691 275.907,-153.783"/>
<polygon fill="midnightblue" stroke="midnightblue" points="282.184,-253.23 286.647,-262.839 289.15,-252.544 282.184,-253.23"/>
</g>
<!-- Node6 -->
<g id="node6" class="node"><title>Node6</title>
<g id="a_node6"><a xlink:href="_off_8h.html" target="_top" xlink:title=" ">
<polygon fill="white" stroke="black" points="0,-56.5 0,-86.5 145,-86.5 145,-56.5 0,-56.5"/>
<text text-anchor="start" x="8" y="-74.5" font-family="Helvetica,sans-Serif" font-size="10.00">Storm/Component/Equipment</text>
<text text-anchor="middle" x="72.5" y="-63.5" font-family="Helvetica,sans-Serif" font-size="10.00">/Off.h</text>
</a>
</g>
</g>
<!-- Node2&#45;&gt;Node6 -->
<g id="edge6" class="edge"><title>Node2&#45;&gt;Node6</title>
<path fill="none" stroke="midnightblue" d="M237.366,-260.112C211.875,-252.373 181.683,-240.002 159.5,-221 115.022,-182.901 87.6533,-116.093 77.2673,-86.8697"/>
<polygon fill="midnightblue" stroke="midnightblue" points="236.66,-263.551 247.238,-262.953 238.597,-256.824 236.66,-263.551"/>
</g>
<!-- Node7 -->
<g id="node7" class="node"><title>Node7</title>
<g id="a_node7"><a xlink:href="_stage_api_8h.html" target="_top" xlink:title=" ">
<polygon fill="white" stroke="black" points="353,-190.5 353,-220.5 498,-220.5 498,-190.5 353,-190.5"/>
<text text-anchor="start" x="361" y="-208.5" font-family="Helvetica,sans-Serif" font-size="10.00">Storm/Component/Equipment</text>
<text text-anchor="middle" x="425.5" y="-197.5" font-family="Helvetica,sans-Serif" font-size="10.00">/StageApi.h</text>
</a>
</g>
</g>
<!-- Node2&#45;&gt;Node7 -->
<g id="edge8" class="edge"><title>Node2&#45;&gt;Node7</title>
<path fill="none" stroke="midnightblue" d="M315.156,-258.474C338.486,-247.485 371.805,-231.791 395.717,-220.528"/>
<polygon fill="midnightblue" stroke="midnightblue" points="313.381,-255.441 305.825,-262.869 316.363,-261.774 313.381,-255.441"/>
</g>
<!-- Node3&#45;&gt;Node4 -->
<g id="edge3" class="edge"><title>Node3&#45;&gt;Node4</title>
<path fill="none" stroke="midnightblue" d="M422.185,-114.709C412.249,-96.8135 403.514,-72.281 417.5,-56 445.435,-23.4803 560.544,-14.2001 638.438,-11.7029"/>
<polygon fill="midnightblue" stroke="midnightblue" points="419.238,-116.6 427.377,-123.383 425.244,-113.005 419.238,-116.6"/>
</g>
<!-- Node5&#45;&gt;Node4 -->
<g id="edge5" class="edge"><title>Node5&#45;&gt;Node4</title>
<path fill="none" stroke="midnightblue" d="M300.085,-117.266C325.544,-98.2474 366.488,-70.5861 406.5,-56 482.552,-28.2759 575.145,-17.599 638.426,-13.506"/>
<polygon fill="midnightblue" stroke="midnightblue" points="297.916,-114.519 292.068,-123.354 302.149,-120.094 297.916,-114.519"/>
</g>
<!-- Node6&#45;&gt;Node4 -->
<g id="edge7" class="edge"><title>Node6&#45;&gt;Node4</title>
<path fill="none" stroke="midnightblue" d="M155.047,-56.5669C156.543,-56.3715 158.028,-56.1823 159.5,-56 330.136,-34.8754 531.672,-21.3317 638.057,-15.0674"/>
<polygon fill="midnightblue" stroke="midnightblue" points="154.495,-53.1097 145.065,-57.9379 155.448,-60.0446 154.495,-53.1097"/>
</g>
<!-- Node7&#45;&gt;Node3 -->
<g id="edge9" class="edge"><title>Node7&#45;&gt;Node3</title>
<path fill="none" stroke="midnightblue" d="M429.949,-180.403C431.616,-171.37 433.455,-161.408 434.901,-153.577"/>
<polygon fill="midnightblue" stroke="midnightblue" points="426.478,-179.927 428.104,-190.396 433.361,-181.198 426.478,-179.927"/>
</g>
<!-- Node7&#45;&gt;Node5 -->
<g id="edge10" class="edge"><title>Node7&#45;&gt;Node5</title>
<path fill="none" stroke="midnightblue" d="M383.468,-186.407C359.361,-176.029 329.546,-163.195 307.201,-153.577"/>
<polygon fill="midnightblue" stroke="midnightblue" points="382.166,-189.657 392.735,-190.396 384.934,-183.227 382.166,-189.657"/>
</g>
<!-- Node8 -->
<g id="node8" class="node"><title>Node8</title>
<g id="a_node8"><a xlink:href="_storm_2_component_2_equipment_2_stage_2_basic_8h.html" target="_top" xlink:title=" ">
<polygon fill="white" stroke="black" points="528,-123.5 528,-153.5 673,-153.5 673,-123.5 528,-123.5"/>
<text text-anchor="start" x="536" y="-141.5" font-family="Helvetica,sans-Serif" font-size="10.00">Storm/Component/Equipment</text>
<text text-anchor="middle" x="600.5" y="-130.5" font-family="Helvetica,sans-Serif" font-size="10.00">/Stage/Basic.h</text>
</a>
</g>
</g>
<!-- Node7&#45;&gt;Node8 -->
<g id="edge11" class="edge"><title>Node7&#45;&gt;Node8</title>
<path fill="none" stroke="midnightblue" d="M473.104,-186.819C501.233,-176.371 536.361,-163.323 562.602,-153.577"/>
<polygon fill="midnightblue" stroke="midnightblue" points="471.628,-183.633 463.472,-190.396 474.065,-190.195 471.628,-183.633"/>
</g>
<!-- Node9 -->
<g id="node9" class="node"><title>Node9</title>
<g id="a_node9"><a xlink:href="_basic_cooling_8h.html" target="_top" xlink:title=" ">
<polygon fill="white" stroke="black" points="590,-56.5 590,-86.5 735,-86.5 735,-56.5 590,-56.5"/>
<text text-anchor="start" x="598" y="-74.5" font-family="Helvetica,sans-Serif" font-size="10.00">Storm/Component/Equipment</text>
<text text-anchor="middle" x="662.5" y="-63.5" font-family="Helvetica,sans-Serif" font-size="10.00">/Stage/BasicCooling.h</text>
</a>
</g>
</g>
<!-- Node8&#45;&gt;Node9 -->
<g id="edge12" class="edge"><title>Node8&#45;&gt;Node9</title>
<path fill="none" stroke="midnightblue" d="M620.985,-116.024C630.222,-106.34 640.873,-95.1739 649.073,-86.5765"/>
<polygon fill="midnightblue" stroke="midnightblue" points="618.323,-113.744 613.953,-123.396 623.388,-118.576 618.323,-113.744"/>
</g>
<!-- Node10 -->
<g id="node10" class="node"><title>Node10</title>
<g id="a_node10"><a xlink:href="_basic_indoor_heat_8h.html" target="_top" xlink:title=" ">
<polygon fill="white" stroke="black" points="427,-56.5 427,-86.5 572,-86.5 572,-56.5 427,-56.5"/>
<text text-anchor="start" x="435" y="-74.5" font-family="Helvetica,sans-Serif" font-size="10.00">Storm/Component/Equipment</text>
<text text-anchor="middle" x="499.5" y="-63.5" font-family="Helvetica,sans-Serif" font-size="10.00">/Stage/BasicIndoorHeat.h</text>
</a>
</g>
</g>
<!-- Node8&#45;&gt;Node10 -->
<g id="edge14" class="edge"><title>Node8&#45;&gt;Node10</title>
<path fill="none" stroke="midnightblue" d="M569.786,-117.734C554.157,-107.676 535.525,-95.6847 521.373,-86.5765"/>
<polygon fill="midnightblue" stroke="midnightblue" points="568.281,-120.927 578.585,-123.396 572.07,-115.041 568.281,-120.927"/>
</g>
<!-- Node9&#45;&gt;Node4 -->
<g id="edge13" class="edge"><title>Node9&#45;&gt;Node4</title>
<path fill="none" stroke="midnightblue" d="M680.816,-48.7037C689.276,-38.636 698.839,-27.2567 705.225,-19.6578"/>
<polygon fill="midnightblue" stroke="midnightblue" points="678.103,-46.4918 674.349,-56.3993 683.462,-50.9952 678.103,-46.4918"/>
</g>
<!-- Node10&#45;&gt;Node4 -->
<g id="edge15" class="edge"><title>Node10&#45;&gt;Node4</title>
<path fill="none" stroke="midnightblue" d="M559.352,-53.7808C599.306,-42.62 650.176,-28.4098 682.049,-19.5064"/>
<polygon fill="midnightblue" stroke="midnightblue" points="558.398,-50.4132 549.708,-56.4747 560.281,-57.1551 558.398,-50.4132"/>
</g>
<!-- Node11&#45;&gt;Node4 -->
<g id="edge18" class="edge"><title>Node11&#45;&gt;Node4</title>
<path fill="none" stroke="midnightblue" d="M836.467,-58.2824C806.152,-46.7199 761.434,-29.6641 734.81,-19.5091"/>
<polygon fill="midnightblue" stroke="midnightblue" points="835.558,-61.6816 846.149,-61.9751 838.053,-55.1411 835.558,-61.6816"/>
</g>
<!-- Node12&#45;&gt;Node4 -->
<g id="edge20" class="edge"><title>Node12&#45;&gt;Node4</title>
<path fill="none" stroke="midnightblue" d="M974.995,-181.25C971.013,-172.88 966.998,-163.223 964.5,-154 953.053,-111.741 984.161,-88.2037 954.5,-56 932.208,-31.7965 849.161,-20.4284 786.523,-15.2117"/>
<polygon fill="midnightblue" stroke="midnightblue" points="971.958,-183.003 979.56,-190.382 978.219,-179.873 971.958,-183.003"/>
</g>
<!-- Node13&#45;&gt;Node4 -->
<g id="edge22" class="edge"><title>Node13&#45;&gt;Node4</title>
<path fill="none" stroke="midnightblue" d="M1043.67,-120.012C1033.07,-100.965 1013.43,-71.1896 987.5,-56 954.314,-36.561 856.268,-23.9098 786.732,-17.1134"/>
<polygon fill="midnightblue" stroke="midnightblue" points="1040.59,-121.674 1048.37,-128.861 1046.77,-118.389 1040.59,-121.674"/>
</g>
<!-- Node14&#45;&gt;Node4 -->
<g id="edge24" class="edge"><title>Node14&#45;&gt;Node4</title>
<path fill="none" stroke="midnightblue" d="M1029.35,-56.6135C1028.06,-56.4062 1026.77,-56.2016 1025.5,-56 939.011,-42.3207 838.793,-28.2187 775.527,-19.5308"/>
<polygon fill="midnightblue" stroke="midnightblue" points="1028.97,-60.0965 1039.4,-58.2473 1030.09,-53.1873 1028.97,-60.0965"/>
</g>
<!-- Node15&#45;&gt;Node4 -->
<g id="edge26" class="edge"><title>Node15&#45;&gt;Node4</title>
<path fill="none" stroke="midnightblue" d="M1218.73,-252.499C1218.89,-204.962 1216.49,-82.7799 1188.5,-56 1160.11,-28.8305 913.242,-17.233 786.67,-13.0366"/>
<polygon fill="midnightblue" stroke="midnightblue" points="1215.23,-252.614 1218.66,-262.64 1222.23,-252.667 1215.23,-252.614"/>
</g>
<!-- Node16&#45;&gt;Node4 -->
<g id="edge30" class="edge"><title>Node16&#45;&gt;Node4</title>
<path fill="none" stroke="midnightblue" d="M768.841,-118.898C763.378,-102.014 754.35,-76.6716 743.5,-56 736.446,-42.5599 726.1,-28.3418 719.333,-19.5682"/>
<polygon fill="midnightblue" stroke="midnightblue" points="765.564,-120.146 771.9,-128.638 772.243,-118.049 765.564,-120.146"/>
</g>
<!-- Node16&#45;&gt;Node9 -->
<g id="edge28" class="edge"><title>Node16&#45;&gt;Node9</title>
<path fill="none" stroke="midnightblue" d="M750.555,-123.604C731.748,-112.689 705.668,-97.5531 686.776,-86.589"/>
<polygon fill="midnightblue" stroke="midnightblue" points="748.989,-126.741 759.395,-128.734 752.503,-120.687 748.989,-126.741"/>
</g>
<!-- Node16&#45;&gt;Node10 -->
<g id="edge29" class="edge"><title>Node16&#45;&gt;Node10</title>
<path fill="none" stroke="midnightblue" d="M728.454,-126.616C681.92,-115.617 609.817,-98.575 558.981,-86.5592"/>
<polygon fill="midnightblue" stroke="midnightblue" points="727.729,-130.041 738.266,-128.936 729.339,-123.229 727.729,-130.041"/>
</g>
<!-- Node18 -->
<g id="node18" class="node"><title>Node18</title>
<g id="a_node18"><a xlink:href="_installer_record_8h_source.html" target="_top" xlink:title=" ">
<polygon fill="white" stroke="black" points="1510,-190.5 1510,-220.5 1629,-220.5 1629,-190.5 1510,-190.5"/>
<text text-anchor="start" x="1518" y="-208.5" font-family="Helvetica,sans-Serif" font-size="10.00">Storm/Thermostat/Main</text>
<text text-anchor="middle" x="1569.5" y="-197.5" font-family="Helvetica,sans-Serif" font-size="10.00">/InstallerRecord.h</text>
</a>
</g>
</g>
<!-- Node17&#45;&gt;Node18 -->
<g id="edge32" class="edge"><title>Node17&#45;&gt;Node18</title>
<path fill="none" stroke="midnightblue" d="M1410.92,-259.633C1443.81,-248.612 1492.82,-232.193 1527.63,-220.528"/>
<polygon fill="midnightblue" stroke="midnightblue" points="1409.63,-256.373 1401.26,-262.869 1411.86,-263.01 1409.63,-256.373"/>
</g>
<!-- Node19 -->
<g id="node19" class="node"><title>Node19</title>
<g id="a_node19"><a xlink:href="_run_time_record_8h_source.html" target="_top" xlink:title=" ">
<polygon fill="white" stroke="black" points="1236,-190.5 1236,-220.5 1355,-220.5 1355,-190.5 1236,-190.5"/>
<text text-anchor="start" x="1244" y="-208.5" font-family="Helvetica,sans-Serif" font-size="10.00">Storm/Thermostat/Main</text>
<text text-anchor="middle" x="1295.5" y="-197.5" font-family="Helvetica,sans-Serif" font-size="10.00">/RunTimeRecord.h</text>
</a>
</g>
</g>
<!-- Node17&#45;&gt;Node19 -->
<g id="edge33" class="edge"><title>Node17&#45;&gt;Node19</title>
<path fill="none" stroke="midnightblue" d="M1356.71,-256.237C1343.44,-245.452 1325.78,-231.102 1312.84,-220.589"/>
<polygon fill="midnightblue" stroke="midnightblue" points="1354.74,-259.144 1364.71,-262.734 1359.16,-253.711 1354.74,-259.144"/>
</g>
<!-- Node20 -->
<g id="node20" class="node"><title>Node20</title>
<g id="a_node20"><a xlink:href="_user_record_8h_source.html" target="_top" xlink:title=" ">
<polygon fill="white" stroke="black" points="1373,-190.5 1373,-220.5 1492,-220.5 1492,-190.5 1373,-190.5"/>
<text text-anchor="start" x="1381" y="-208.5" font-family="Helvetica,sans-Serif" font-size="10.00">Storm/Thermostat/Main</text>
<text text-anchor="middle" x="1432.5" y="-197.5" font-family="Helvetica,sans-Serif" font-size="10.00">/UserRecord.h</text>
</a>
</g>
</g>
<!-- Node17&#45;&gt;Node20 -->
<g id="edge34" class="edge"><title>Node17&#45;&gt;Node20</title>
<path fill="none" stroke="midnightblue" d="M1389.98,-254.989C1399.3,-244.364 1411.28,-230.702 1420.15,-220.589"/>
<polygon fill="midnightblue" stroke="midnightblue" points="1387.15,-252.908 1383.19,-262.734 1392.41,-257.523 1387.15,-252.908"/>
</g>
</g>
</svg>
