<?xml version="1.0" encoding="UTF-8" standalone="no"?>
<!DOCTYPE svg PUBLIC "-//W3C//DTD SVG 1.1//EN"
 "http://www.w3.org/Graphics/SVG/1.1/DTD/svg11.dtd">
<!-- Generated by graphviz version 2.38.0 (20140413.2041)
 -->
<!-- Title: Cpl/Persistent/Chunk.h Pages: 1 -->
<svg width="1293pt" height="364pt"
 viewBox="0.00 0.00 1292.93 364.00" xmlns="http://www.w3.org/2000/svg" xmlns:xlink="http://www.w3.org/1999/xlink">
<g id="graph0" class="graph" transform="scale(1 1) rotate(0) translate(4 360)">
<title>Cpl/Persistent/Chunk.h</title>
<polygon fill="white" stroke="none" points="-4,4 -4,-360 1288.93,-360 1288.93,4 -4,4"/>
<!-- Node1 -->
<g id="node1" class="node"><title>Node1</title>
<g id="a_node1"><a xlink:title=" ">
<polygon fill="#bfbfbf" stroke="black" points="132,-336.5 132,-355.5 249,-355.5 249,-336.5 132,-336.5"/>
<text text-anchor="middle" x="190.5" y="-343.5" font-family="Helvetica,sans-Serif" font-size="10.00">Cpl/Persistent/Chunk.h</text>
</a>
</g>
</g>
<!-- Node2 -->
<g id="node2" class="node"><title>Node2</title>
<g id="a_node2"><a xlink:href="_payload_8h.html" target="_top" xlink:title=" ">
<polygon fill="white" stroke="black" points="57,-280.5 57,-299.5 182,-299.5 182,-280.5 57,-280.5"/>
<text text-anchor="middle" x="119.5" y="-287.5" font-family="Helvetica,sans-Serif" font-size="10.00">Cpl/Persistent/Payload.h</text>
</a>
</g>
</g>
<!-- Node1&#45;&gt;Node2 -->
<g id="edge1" class="edge"><title>Node1&#45;&gt;Node2</title>
<path fill="none" stroke="midnightblue" d="M179.093,-336.324C168.391,-328.185 152.159,-315.839 139.337,-306.087"/>
<polygon fill="midnightblue" stroke="midnightblue" points="141.193,-303.102 131.115,-299.834 136.956,-308.673 141.193,-303.102"/>
</g>
<!-- Node4 -->
<g id="node4" class="node"><title>Node4</title>
<g id="a_node4"><a xlink:href="_dm_2_mailbox_server_8h.html" target="_top" xlink:title=" ">
<polygon fill="white" stroke="black" points="200.5,-280.5 200.5,-299.5 322.5,-299.5 322.5,-280.5 200.5,-280.5"/>
<text text-anchor="middle" x="261.5" y="-287.5" font-family="Helvetica,sans-Serif" font-size="10.00">Cpl/Dm/MailboxServer.h</text>
</a>
</g>
</g>
<!-- Node1&#45;&gt;Node4 -->
<g id="edge3" class="edge"><title>Node1&#45;&gt;Node4</title>
<path fill="none" stroke="midnightblue" d="M201.907,-336.324C212.609,-328.185 228.841,-315.839 241.663,-306.087"/>
<polygon fill="midnightblue" stroke="midnightblue" points="244.044,-308.673 249.885,-299.834 239.807,-303.102 244.044,-308.673"/>
</g>
<!-- Node3 -->
<g id="node3" class="node"><title>Node3</title>
<g id="a_node3"><a xlink:title=" ">
<polygon fill="white" stroke="#bfbfbf" points="95.5,-112.5 95.5,-131.5 143.5,-131.5 143.5,-112.5 95.5,-112.5"/>
<text text-anchor="middle" x="119.5" y="-119.5" font-family="Helvetica,sans-Serif" font-size="10.00">stdlib.h</text>
</a>
</g>
</g>
<!-- Node2&#45;&gt;Node3 -->
<g id="edge2" class="edge"><title>Node2&#45;&gt;Node3</title>
<path fill="none" stroke="midnightblue" d="M119.5,-280.075C119.5,-253.945 119.5,-177.211 119.5,-141.577"/>
<polygon fill="midnightblue" stroke="midnightblue" points="123,-141.568 119.5,-131.568 116,-141.568 123,-141.568"/>
</g>
<!-- Node5 -->
<g id="node5" class="node"><title>Node5</title>
<g id="a_node5"><a xlink:href="_dm_2_event_loop_8h.html" target="_top" xlink:title=" ">
<polygon fill="white" stroke="black" points="841,-224.5 841,-243.5 948,-243.5 948,-224.5 841,-224.5"/>
<text text-anchor="middle" x="894.5" y="-231.5" font-family="Helvetica,sans-Serif" font-size="10.00">Cpl/Dm/EventLoop.h</text>
</a>
</g>
</g>
<!-- Node4&#45;&gt;Node5 -->
<g id="edge4" class="edge"><title>Node4&#45;&gt;Node5</title>
<path fill="none" stroke="midnightblue" d="M322.77,-283.773C442.911,-273.524 708.337,-250.881 830.58,-240.453"/>
<polygon fill="midnightblue" stroke="midnightblue" points="831.231,-243.91 840.897,-239.573 830.636,-236.936 831.231,-243.91"/>
</g>
<!-- Node23 -->
<g id="node23" class="node"><title>Node23</title>
<g id="a_node23"><a xlink:href="_mailbox_8h.html" target="_top" xlink:title=" ">
<polygon fill="white" stroke="black" points="186.5,-224.5 186.5,-243.5 276.5,-243.5 276.5,-224.5 186.5,-224.5"/>
<text text-anchor="middle" x="231.5" y="-231.5" font-family="Helvetica,sans-Serif" font-size="10.00">Cpl/Itc/Mailbox.h</text>
</a>
</g>
</g>
<!-- Node4&#45;&gt;Node23 -->
<g id="edge33" class="edge"><title>Node4&#45;&gt;Node23</title>
<path fill="none" stroke="midnightblue" d="M256.546,-280.083C252.396,-272.613 246.347,-261.724 241.233,-252.52"/>
<polygon fill="midnightblue" stroke="midnightblue" points="244.278,-250.793 236.362,-243.751 238.159,-254.192 244.278,-250.793"/>
</g>
<!-- Node6 -->
<g id="node6" class="node"><title>Node6</title>
<g id="a_node6"><a xlink:href="_system_2_event_loop_8h.html" target="_top" xlink:title=" ">
<polygon fill="white" stroke="black" points="655,-168.5 655,-187.5 780,-187.5 780,-168.5 655,-168.5"/>
<text text-anchor="middle" x="717.5" y="-175.5" font-family="Helvetica,sans-Serif" font-size="10.00">Cpl/System/EventLoop.h</text>
</a>
</g>
</g>
<!-- Node5&#45;&gt;Node6 -->
<g id="edge5" class="edge"><title>Node5&#45;&gt;Node6</title>
<path fill="none" stroke="midnightblue" d="M866.454,-224.444C836.418,-215.28 788.587,-200.688 755.257,-190.519"/>
<polygon fill="midnightblue" stroke="midnightblue" points="756.001,-187.087 745.415,-187.516 753.958,-193.782 756.001,-187.087"/>
</g>
<!-- Node18 -->
<g id="node18" class="node"><title>Node18</title>
<g id="a_node18"><a xlink:href="_d_list_8h.html" target="_top" xlink:title=" ">
<polygon fill="white" stroke="black" points="867,-56.5 867,-75.5 976,-75.5 976,-56.5 867,-56.5"/>
<text text-anchor="middle" x="921.5" y="-63.5" font-family="Helvetica,sans-Serif" font-size="10.00">Cpl/Container/DList.h</text>
</a>
</g>
</g>
<!-- Node5&#45;&gt;Node18 -->
<g id="edge27" class="edge"><title>Node5&#45;&gt;Node18</title>
<path fill="none" stroke="midnightblue" d="M925.49,-224.411C965.004,-211.601 1031.65,-183.315 1060.5,-132 1064.86,-124.251 1065.73,-119.188 1060.5,-112 1050.18,-97.8109 1010.42,-85.8158 976.054,-77.7872"/>
<polygon fill="midnightblue" stroke="midnightblue" points="976.594,-74.321 966.068,-75.5273 975.049,-81.1483 976.594,-74.321"/>
</g>
<!-- Node19 -->
<g id="node19" class="node"><title>Node19</title>
<g id="a_node19"><a xlink:href="_thread_8h.html" target="_top" xlink:title=" ">
<polygon fill="white" stroke="black" points="275,-168.5 275,-187.5 384,-187.5 384,-168.5 275,-168.5"/>
<text text-anchor="middle" x="329.5" y="-175.5" font-family="Helvetica,sans-Serif" font-size="10.00">Cpl/System/Thread.h</text>
</a>
</g>
</g>
<!-- Node5&#45;&gt;Node19 -->
<g id="edge21" class="edge"><title>Node5&#45;&gt;Node19</title>
<path fill="none" stroke="midnightblue" d="M840.837,-227.871C736.528,-217.902 506.804,-195.946 394.239,-185.187"/>
<polygon fill="midnightblue" stroke="midnightblue" points="394.335,-181.681 384.047,-184.213 393.668,-188.649 394.335,-181.681"/>
</g>
<!-- Node21 -->
<g id="node21" class="node"><title>Node21</title>
<g id="a_node21"><a xlink:href="_subscriber_api_8h.html" target="_top" xlink:title=" ">
<polygon fill="white" stroke="black" points="1142,-56.5 1142,-75.5 1263,-75.5 1263,-56.5 1142,-56.5"/>
<text text-anchor="middle" x="1202.5" y="-63.5" font-family="Helvetica,sans-Serif" font-size="10.00">Cpl/Dm/SubscriberApi.h</text>
</a>
</g>
</g>
<!-- Node5&#45;&gt;Node21 -->
<g id="edge28" class="edge"><title>Node5&#45;&gt;Node21</title>
<path fill="none" stroke="midnightblue" d="M948.099,-230.55C1047.91,-225.434 1254.12,-212.051 1275.5,-188 1305.74,-153.974 1253.79,-105.704 1222.91,-81.7151"/>
<polygon fill="midnightblue" stroke="midnightblue" points="1224.94,-78.8577 1214.85,-75.6249 1220.72,-84.444 1224.94,-78.8577"/>
</g>
<!-- Node22 -->
<g id="node22" class="node"><title>Node22</title>
<g id="a_node22"><a xlink:href="_notification_api___8h.html" target="_top" xlink:title=" ">
<polygon fill="white" stroke="black" points="1138.5,-168.5 1138.5,-187.5 1266.5,-187.5 1266.5,-168.5 1138.5,-168.5"/>
<text text-anchor="middle" x="1202.5" y="-175.5" font-family="Helvetica,sans-Serif" font-size="10.00">Cpl/Dm/NotificationApi_.h</text>
</a>
</g>
</g>
<!-- Node5&#45;&gt;Node22 -->
<g id="edge31" class="edge"><title>Node5&#45;&gt;Node22</title>
<path fill="none" stroke="midnightblue" d="M943.304,-224.444C997.709,-214.905 1085.67,-199.483 1143.79,-189.293"/>
<polygon fill="midnightblue" stroke="midnightblue" points="1144.68,-192.691 1153.92,-187.516 1143.47,-185.796 1144.68,-192.691"/>
</g>
<!-- Node7 -->
<g id="node7" class="node"><title>Node7</title>
<g id="a_node7"><a xlink:href="_runnable_8h.html" target="_top" xlink:title=" ">
<polygon fill="white" stroke="black" points="402,-112.5 402,-131.5 521,-131.5 521,-112.5 402,-112.5"/>
<text text-anchor="middle" x="461.5" y="-119.5" font-family="Helvetica,sans-Serif" font-size="10.00">Cpl/System/Runnable.h</text>
</a>
</g>
</g>
<!-- Node6&#45;&gt;Node7 -->
<g id="edge6" class="edge"><title>Node6&#45;&gt;Node7</title>
<path fill="none" stroke="midnightblue" d="M676.936,-168.444C632.184,-159.004 560.117,-143.802 511.805,-133.611"/>
<polygon fill="midnightblue" stroke="midnightblue" points="512.381,-130.156 501.874,-131.516 510.936,-137.005 512.381,-130.156"/>
</g>
<!-- Node8 -->
<g id="node8" class="node"><title>Node8</title>
<g id="a_node8"><a xlink:href="_semaphore_8h.html" target="_top" xlink:title=" ">
<polygon fill="white" stroke="black" points="577.5,-112.5 577.5,-131.5 705.5,-131.5 705.5,-112.5 577.5,-112.5"/>
<text text-anchor="middle" x="641.5" y="-119.5" font-family="Helvetica,sans-Serif" font-size="10.00">Cpl/System/Semaphore.h</text>
</a>
</g>
</g>
<!-- Node6&#45;&gt;Node8 -->
<g id="edge7" class="edge"><title>Node6&#45;&gt;Node8</title>
<path fill="none" stroke="midnightblue" d="M705.289,-168.324C693.724,-160.107 676.125,-147.602 662.339,-137.807"/>
<polygon fill="midnightblue" stroke="midnightblue" points="664.112,-134.773 653.933,-131.834 660.057,-140.479 664.112,-134.773"/>
</g>
<!-- Node10 -->
<g id="node10" class="node"><title>Node10</title>
<g id="a_node10"><a xlink:href="_signable_8h.html" target="_top" xlink:title=" ">
<polygon fill="white" stroke="black" points="468.5,-56.5 468.5,-75.5 584.5,-75.5 584.5,-56.5 468.5,-56.5"/>
<text text-anchor="middle" x="526.5" y="-63.5" font-family="Helvetica,sans-Serif" font-size="10.00">Cpl/System/Signable.h</text>
</a>
</g>
</g>
<!-- Node6&#45;&gt;Node10 -->
<g id="edge11" class="edge"><title>Node6&#45;&gt;Node10</title>
<path fill="none" stroke="midnightblue" d="M655.761,-168.423C627.054,-162.046 593.76,-151.013 568.5,-132 552.433,-119.907 540.797,-99.7359 533.903,-85.0664"/>
<polygon fill="midnightblue" stroke="midnightblue" points="536.95,-83.3004 529.725,-75.5511 530.54,-86.1145 536.95,-83.3004"/>
</g>
<!-- Node12 -->
<g id="node12" class="node"><title>Node12</title>
<g id="a_node12"><a xlink:href="_event_flag_8h.html" target="_top" xlink:title=" ">
<polygon fill="white" stroke="black" points="1001,-56.5 1001,-75.5 1124,-75.5 1124,-56.5 1001,-56.5"/>
<text text-anchor="middle" x="1062.5" y="-63.5" font-family="Helvetica,sans-Serif" font-size="10.00">Cpl/System/EventFlag.h</text>
</a>
</g>
</g>
<!-- Node6&#45;&gt;Node12 -->
<g id="edge12" class="edge"><title>Node6&#45;&gt;Node12</title>
<path fill="none" stroke="midnightblue" d="M780.384,-173.106C874.254,-166.653 1042.04,-152.401 1060.5,-132 1071.61,-119.726 1070.65,-100.189 1067.8,-85.735"/>
<polygon fill="midnightblue" stroke="midnightblue" points="1071.17,-84.7782 1065.42,-75.8775 1064.36,-86.4194 1071.17,-84.7782"/>
</g>
<!-- Node15 -->
<g id="node15" class="node"><title>Node15</title>
<g id="a_node15"><a xlink:href="_shared_event_handler_8h.html" target="_top" xlink:title=" ">
<polygon fill="white" stroke="black" points="883.5,-112.5 883.5,-131.5 1051.5,-131.5 1051.5,-112.5 883.5,-112.5"/>
<text text-anchor="middle" x="967.5" y="-119.5" font-family="Helvetica,sans-Serif" font-size="10.00">Cpl/System/SharedEventHandler.h</text>
</a>
</g>
</g>
<!-- Node6&#45;&gt;Node15 -->
<g id="edge15" class="edge"><title>Node6&#45;&gt;Node15</title>
<path fill="none" stroke="midnightblue" d="M757.113,-168.444C800.725,-159.023 870.9,-143.866 918.078,-133.675"/>
<polygon fill="midnightblue" stroke="midnightblue" points="919.036,-137.049 928.072,-131.516 917.559,-130.207 919.036,-137.049"/>
</g>
<!-- Node16 -->
<g id="node16" class="node"><title>Node16</title>
<g id="a_node16"><a xlink:href="_timer_manager_8h.html" target="_top" xlink:title=" ">
<polygon fill="white" stroke="black" points="724,-112.5 724,-131.5 865,-131.5 865,-112.5 724,-112.5"/>
<text text-anchor="middle" x="794.5" y="-119.5" font-family="Helvetica,sans-Serif" font-size="10.00">Cpl/System/TimerManager.h</text>
</a>
</g>
</g>
<!-- Node6&#45;&gt;Node16 -->
<g id="edge17" class="edge"><title>Node6&#45;&gt;Node16</title>
<path fill="none" stroke="midnightblue" d="M729.871,-168.324C741.658,-160.058 759.632,-147.453 773.636,-137.632"/>
<polygon fill="midnightblue" stroke="midnightblue" points="775.982,-140.262 782.159,-131.655 771.962,-134.531 775.982,-140.262"/>
</g>
<!-- Node9 -->
<g id="node9" class="node"><title>Node9</title>
<g id="a_node9"><a xlink:title=" ">
<polygon fill="white" stroke="#bfbfbf" points="603,-56.5 603,-75.5 680,-75.5 680,-56.5 603,-56.5"/>
<text text-anchor="middle" x="641.5" y="-63.5" font-family="Helvetica,sans-Serif" font-size="10.00">colony_map.h</text>
</a>
</g>
</g>
<!-- Node8&#45;&gt;Node9 -->
<g id="edge8" class="edge"><title>Node8&#45;&gt;Node9</title>
<path fill="none" stroke="midnightblue" d="M641.5,-112.083C641.5,-105.006 641.5,-94.8611 641.5,-85.9865"/>
<polygon fill="midnightblue" stroke="midnightblue" points="645,-85.751 641.5,-75.7511 638,-85.7511 645,-85.751"/>
</g>
<!-- Node8&#45;&gt;Node10 -->
<g id="edge9" class="edge"><title>Node8&#45;&gt;Node10</title>
<path fill="none" stroke="midnightblue" d="M623.278,-112.444C604.604,-103.675 575.344,-89.9355 553.883,-79.8579"/>
<polygon fill="midnightblue" stroke="midnightblue" points="555.176,-76.5988 544.637,-75.5164 552.201,-82.935 555.176,-76.5988"/>
</g>
<!-- Node11 -->
<g id="node11" class="node"><title>Node11</title>
<g id="a_node11"><a xlink:href="_item_8h.html" target="_top" xlink:title=" ">
<polygon fill="white" stroke="black" points="473.5,-0.5 473.5,-19.5 579.5,-19.5 579.5,-0.5 473.5,-0.5"/>
<text text-anchor="middle" x="526.5" y="-7.5" font-family="Helvetica,sans-Serif" font-size="10.00">Cpl/Container/Item.h</text>
</a>
</g>
</g>
<!-- Node10&#45;&gt;Node11 -->
<g id="edge10" class="edge"><title>Node10&#45;&gt;Node11</title>
<path fill="none" stroke="midnightblue" d="M526.5,-56.083C526.5,-49.0059 526.5,-38.8611 526.5,-29.9865"/>
<polygon fill="midnightblue" stroke="midnightblue" points="530,-29.751 526.5,-19.7511 523,-29.7511 530,-29.751"/>
</g>
<!-- Node13 -->
<g id="node13" class="node"><title>Node13</title>
<g id="a_node13"><a xlink:title=" ">
<polygon fill="white" stroke="#bfbfbf" points="1020,-0.5 1020,-19.5 1105,-19.5 1105,-0.5 1020,-0.5"/>
<text text-anchor="middle" x="1062.5" y="-7.5" font-family="Helvetica,sans-Serif" font-size="10.00">colony_config.h</text>
</a>
</g>
</g>
<!-- Node12&#45;&gt;Node13 -->
<g id="edge13" class="edge"><title>Node12&#45;&gt;Node13</title>
<path fill="none" stroke="midnightblue" d="M1062.5,-56.083C1062.5,-49.0059 1062.5,-38.8611 1062.5,-29.9865"/>
<polygon fill="midnightblue" stroke="midnightblue" points="1066,-29.751 1062.5,-19.7511 1059,-29.7511 1066,-29.751"/>
</g>
<!-- Node14 -->
<g id="node14" class="node"><title>Node14</title>
<g id="a_node14"><a xlink:title=" ">
<polygon fill="white" stroke="#bfbfbf" points="1150,-0.5 1150,-19.5 1199,-19.5 1199,-0.5 1150,-0.5"/>
<text text-anchor="middle" x="1174.5" y="-7.5" font-family="Helvetica,sans-Serif" font-size="10.00">stdint.h</text>
</a>
</g>
</g>
<!-- Node12&#45;&gt;Node14 -->
<g id="edge14" class="edge"><title>Node12&#45;&gt;Node14</title>
<path fill="none" stroke="midnightblue" d="M1080.49,-56.324C1098.54,-47.6247 1126.55,-34.1202 1147.3,-24.113"/>
<polygon fill="midnightblue" stroke="midnightblue" points="1149.06,-27.1502 1156.55,-19.6545 1146.02,-20.8449 1149.06,-27.1502"/>
</g>
<!-- Node15&#45;&gt;Node12 -->
<g id="edge16" class="edge"><title>Node15&#45;&gt;Node12</title>
<path fill="none" stroke="midnightblue" d="M982.763,-112.324C997.721,-103.822 1020.75,-90.7288 1038.23,-80.7975"/>
<polygon fill="midnightblue" stroke="midnightblue" points="1040.31,-83.639 1047.27,-75.6545 1036.85,-77.5534 1040.31,-83.639"/>
</g>
<!-- Node17 -->
<g id="node17" class="node"><title>Node17</title>
<g id="a_node17"><a xlink:href="_counter___8h.html" target="_top" xlink:title=" ">
<polygon fill="white" stroke="black" points="716.5,-56.5 716.5,-75.5 834.5,-75.5 834.5,-56.5 716.5,-56.5"/>
<text text-anchor="middle" x="775.5" y="-63.5" font-family="Helvetica,sans-Serif" font-size="10.00">Cpl/System/Counter_.h</text>
</a>
</g>
</g>
<!-- Node16&#45;&gt;Node17 -->
<g id="edge18" class="edge"><title>Node16&#45;&gt;Node17</title>
<path fill="none" stroke="midnightblue" d="M791.363,-112.083C788.817,-104.849 785.144,-94.4087 781.973,-85.3968"/>
<polygon fill="midnightblue" stroke="midnightblue" points="785.2,-84.0225 778.579,-75.7511 778.597,-86.3459 785.2,-84.0225"/>
</g>
<!-- Node16&#45;&gt;Node18 -->
<g id="edge20" class="edge"><title>Node16&#45;&gt;Node18</title>
<path fill="none" stroke="midnightblue" d="M814.624,-112.444C835.524,-103.557 868.435,-89.5632 892.216,-79.4514"/>
<polygon fill="midnightblue" stroke="midnightblue" points="893.638,-82.6504 901.471,-75.5164 890.898,-76.2085 893.638,-82.6504"/>
</g>
<!-- Node17&#45;&gt;Node11 -->
<g id="edge19" class="edge"><title>Node17&#45;&gt;Node11</title>
<path fill="none" stroke="midnightblue" d="M736.045,-56.4435C692.608,-47.0234 622.714,-31.8656 575.724,-21.6752"/>
<polygon fill="midnightblue" stroke="midnightblue" points="576.285,-18.2154 565.77,-19.5164 574.801,-25.0564 576.285,-18.2154"/>
</g>
<!-- Node19&#45;&gt;Node3 -->
<g id="edge26" class="edge"><title>Node19&#45;&gt;Node3</title>
<path fill="none" stroke="midnightblue" d="M296.225,-168.444C257.262,-158.425 193.059,-141.915 153.701,-131.795"/>
<polygon fill="midnightblue" stroke="midnightblue" points="154.338,-128.344 143.781,-129.244 152.594,-135.124 154.338,-128.344"/>
</g>
<!-- Node19&#45;&gt;Node7 -->
<g id="edge23" class="edge"><title>Node19&#45;&gt;Node7</title>
<path fill="none" stroke="midnightblue" d="M350.416,-168.444C372.236,-159.517 406.65,-145.439 431.392,-135.317"/>
<polygon fill="midnightblue" stroke="midnightblue" points="432.752,-138.542 440.682,-131.516 430.101,-132.063 432.752,-138.542"/>
</g>
<!-- Node19&#45;&gt;Node9 -->
<g id="edge22" class="edge"><title>Node19&#45;&gt;Node9</title>
<path fill="none" stroke="midnightblue" d="M310.32,-168.377C285.583,-156.121 247.833,-132.834 266.5,-112 313.378,-59.6783 505.342,-84.5909 592.657,-75.7724"/>
<polygon fill="midnightblue" stroke="midnightblue" points="593.275,-79.2227 602.77,-74.5223 592.416,-72.2756 593.275,-79.2227"/>
</g>
<!-- Node19&#45;&gt;Node10 -->
<g id="edge24" class="edge"><title>Node19&#45;&gt;Node10</title>
<path fill="none" stroke="midnightblue" d="M295.78,-168.43C259.992,-157.754 211.414,-137.738 233.5,-112 261.886,-78.9211 380.995,-69.9157 458.335,-67.6084"/>
<polygon fill="midnightblue" stroke="midnightblue" points="458.585,-71.1031 468.488,-67.3366 458.397,-64.1056 458.585,-71.1031"/>
</g>
<!-- Node20 -->
<g id="node20" class="node"><title>Node20</title>
<g id="a_node20"><a xlink:href="_traverser_8h.html" target="_top" xlink:title=" ">
<polygon fill="white" stroke="black" points="275.5,-112.5 275.5,-131.5 383.5,-131.5 383.5,-112.5 275.5,-112.5"/>
<text text-anchor="middle" x="329.5" y="-119.5" font-family="Helvetica,sans-Serif" font-size="10.00">Cpl/Type/Traverser.h</text>
</a>
</g>
</g>
<!-- Node19&#45;&gt;Node20 -->
<g id="edge25" class="edge"><title>Node19&#45;&gt;Node20</title>
<path fill="none" stroke="midnightblue" d="M329.5,-168.083C329.5,-161.006 329.5,-150.861 329.5,-141.986"/>
<polygon fill="midnightblue" stroke="midnightblue" points="333,-141.751 329.5,-131.751 326,-141.751 333,-141.751"/>
</g>
<!-- Node21&#45;&gt;Node11 -->
<g id="edge29" class="edge"><title>Node21&#45;&gt;Node11</title>
<path fill="none" stroke="midnightblue" d="M1141.94,-56.907C1139.09,-56.5869 1136.26,-56.2825 1133.5,-56 935.679,-35.7817 700.7,-20.9722 590.081,-14.5445"/>
<polygon fill="midnightblue" stroke="midnightblue" points="589.955,-11.0314 579.77,-13.9487 589.551,-18.0198 589.955,-11.0314"/>
</g>
<!-- Node21&#45;&gt;Node14 -->
<g id="edge30" class="edge"><title>Node21&#45;&gt;Node14</title>
<path fill="none" stroke="midnightblue" d="M1197.88,-56.083C1194.04,-48.6913 1188.48,-37.9533 1183.74,-28.8111"/>
<polygon fill="midnightblue" stroke="midnightblue" points="1186.75,-27.0175 1179.04,-19.7511 1180.53,-30.2398 1186.75,-27.0175"/>
</g>
<!-- Node22&#45;&gt;Node21 -->
<g id="edge32" class="edge"><title>Node22&#45;&gt;Node21</title>
<path fill="none" stroke="midnightblue" d="M1202.5,-168.368C1202.5,-150.617 1202.5,-109.666 1202.5,-85.5974"/>
<polygon fill="midnightblue" stroke="midnightblue" points="1206,-85.5914 1202.5,-75.5914 1199,-85.5915 1206,-85.5914"/>
</g>
<!-- Node23&#45;&gt;Node6 -->
<g id="edge39" class="edge"><title>Node23&#45;&gt;Node6</title>
<path fill="none" stroke="midnightblue" d="M276.785,-227.968C361.079,-218.602 542.712,-198.421 644.524,-187.108"/>
<polygon fill="midnightblue" stroke="midnightblue" points="645.172,-190.558 654.724,-185.975 644.399,-183.601 645.172,-190.558"/>
</g>
<!-- Node24 -->
<g id="node24" class="node"><title>Node24</title>
<g id="a_node24"><a xlink:href="_post_api_8h.html" target="_top" xlink:title=" ">
<polygon fill="white" stroke="black" points="0,-168.5 0,-187.5 91,-187.5 91,-168.5 0,-168.5"/>
<text text-anchor="middle" x="45.5" y="-175.5" font-family="Helvetica,sans-Serif" font-size="10.00">Cpl/Itc/PostApi.h</text>
</a>
</g>
</g>
<!-- Node23&#45;&gt;Node24 -->
<g id="edge34" class="edge"><title>Node23&#45;&gt;Node24</title>
<path fill="none" stroke="midnightblue" d="M202.028,-224.444C170.329,-215.241 119.768,-200.562 84.7251,-190.388"/>
<polygon fill="midnightblue" stroke="midnightblue" points="85.4137,-186.943 74.8344,-187.516 83.462,-193.666 85.4137,-186.943"/>
</g>
<!-- Node26 -->
<g id="node26" class="node"><title>Node26</title>
<g id="a_node26"><a xlink:href="_s_list_8h.html" target="_top" xlink:title=" ">
<polygon fill="white" stroke="black" points="148,-168.5 148,-187.5 257,-187.5 257,-168.5 148,-168.5"/>
<text text-anchor="middle" x="202.5" y="-175.5" font-family="Helvetica,sans-Serif" font-size="10.00">Cpl/Container/SList.h</text>
</a>
</g>
</g>
<!-- Node23&#45;&gt;Node26 -->
<g id="edge37" class="edge"><title>Node23&#45;&gt;Node26</title>
<path fill="none" stroke="midnightblue" d="M226.711,-224.083C222.742,-216.691 216.975,-205.953 212.065,-196.811"/>
<polygon fill="midnightblue" stroke="midnightblue" points="215.014,-194.905 207.2,-187.751 208.847,-198.217 215.014,-194.905"/>
</g>
<!-- Node25 -->
<g id="node25" class="node"><title>Node25</title>
<g id="a_node25"><a xlink:href="_message_8h.html" target="_top" xlink:title=" ">
<polygon fill="white" stroke="black" points="28.5,-56.5 28.5,-75.5 124.5,-75.5 124.5,-56.5 28.5,-56.5"/>
<text text-anchor="middle" x="76.5" y="-63.5" font-family="Helvetica,sans-Serif" font-size="10.00">Cpl/Itc/Message.h</text>
</a>
</g>
</g>
<!-- Node24&#45;&gt;Node25 -->
<g id="edge35" class="edge"><title>Node24&#45;&gt;Node25</title>
<path fill="none" stroke="midnightblue" d="M47.9325,-168.368C52.9579,-150.537 64.5804,-109.295 71.3507,-85.2717"/>
<polygon fill="midnightblue" stroke="midnightblue" points="74.735,-86.1659 74.0788,-75.5914 67.9974,-84.2671 74.735,-86.1659"/>
</g>
<!-- Node25&#45;&gt;Node11 -->
<g id="edge36" class="edge"><title>Node25&#45;&gt;Node11</title>
<path fill="none" stroke="midnightblue" d="M124.658,-59.2211C206.419,-49.4098 372.341,-29.4991 463.318,-18.5818"/>
<polygon fill="midnightblue" stroke="midnightblue" points="463.982,-22.0274 473.494,-17.3608 463.148,-15.0772 463.982,-22.0274"/>
</g>
<!-- Node26&#45;&gt;Node11 -->
<g id="edge38" class="edge"><title>Node26&#45;&gt;Node11</title>
<path fill="none" stroke="midnightblue" d="M203.057,-168.139C204.4,-154.282 208.972,-127.472 224.5,-112 288.944,-47.7888 395.318,-24.3952 463.093,-15.8756"/>
<polygon fill="midnightblue" stroke="midnightblue" points="463.695,-19.3288 473.214,-14.6776 462.872,-12.3773 463.695,-19.3288"/>
</g>
</g>
</svg>
