<?xml version="1.0" encoding="UTF-8" standalone="no"?>
<!DOCTYPE svg PUBLIC "-//W3C//DTD SVG 1.1//EN"
 "http://www.w3.org/Graphics/SVG/1.1/DTD/svg11.dtd">
<!-- Generated by graphviz version 10.0.1 (20240210.2158)
 -->
<!-- Title: Cpl/Persistent/Chunk.h Pages: 1 -->
<svg width="1394pt" height="364pt"
 viewBox="0.00 0.00 1393.62 364.00" xmlns="http://www.w3.org/2000/svg" xmlns:xlink="http://www.w3.org/1999/xlink">
<g id="graph0" class="graph" transform="scale(1 1) rotate(0) translate(4 360)">
<title>Cpl/Persistent/Chunk.h</title>
<!-- Node1 -->
<g id="Node000001" class="node">
<title>Node1</title>
<g id="a_Node000001"><a xlink:title=" ">
<polygon fill="#999999" stroke="#666666" points="344.38,-356 227.88,-356 227.88,-336 344.38,-336 344.38,-356"/>
<text text-anchor="middle" x="286.12" y="-342.5" font-family="Helvetica,sans-Serif" font-size="10.00">Cpl/Persistent/Chunk.h</text>
</a>
</g>
</g>
<!-- Node2 -->
<g id="Node000002" class="node">
<title>Node2</title>
<g id="a_Node000002"><a xlink:href="_payload_8h.html" target="_top" xlink:title=" ">
<polygon fill="white" stroke="#666666" points="304.12,-244 180.12,-244 180.12,-224 304.12,-224 304.12,-244"/>
<text text-anchor="middle" x="242.12" y="-230.5" font-family="Helvetica,sans-Serif" font-size="10.00">Cpl/Persistent/Payload.h</text>
</a>
</g>
</g>
<!-- Node1&#45;&gt;Node2 -->
<g id="edge1_Node000001_Node000002" class="edge">
<title>Node1&#45;&gt;Node2</title>
<g id="a_edge1_Node000001_Node000002"><a xlink:title=" ">
<path fill="none" stroke="#63b8ff" d="M280.12,-335.65C274.61,-326.76 266.5,-312.86 261.12,-300 255.08,-285.53 250.18,-268.5 246.87,-255.49"/>
<polygon fill="#63b8ff" stroke="#63b8ff" points="250.31,-254.85 244.55,-245.95 243.51,-256.5 250.31,-254.85"/>
</a>
</g>
</g>
<!-- Node4 -->
<g id="Node000004" class="node">
<title>Node4</title>
<g id="a_Node000004"><a xlink:href="_dm_2_mailbox_server_8h.html" target="_top" xlink:title=" ">
<polygon fill="white" stroke="#666666" points="390.25,-300 270,-300 270,-280 390.25,-280 390.25,-300"/>
<text text-anchor="middle" x="330.12" y="-286.5" font-family="Helvetica,sans-Serif" font-size="10.00">Cpl/Dm/MailboxServer.h</text>
</a>
</g>
</g>
<!-- Node1&#45;&gt;Node4 -->
<g id="edge3_Node000001_Node000004" class="edge">
<title>Node1&#45;&gt;Node4</title>
<g id="a_edge3_Node000001_Node000004"><a xlink:title=" ">
<path fill="none" stroke="#63b8ff" d="M293.79,-335.59C299.72,-328.32 308.11,-318.02 315.34,-309.15"/>
<polygon fill="#63b8ff" stroke="#63b8ff" points="317.99,-311.43 321.59,-301.47 312.56,-307.01 317.99,-311.43"/>
</a>
</g>
</g>
<!-- Node3 -->
<g id="Node000003" class="node">
<title>Node3</title>
<g id="a_Node000003"><a xlink:title=" ">
<polygon fill="#e0e0e0" stroke="#999999" points="265.88,-132 218.38,-132 218.38,-112 265.88,-112 265.88,-132"/>
<text text-anchor="middle" x="242.12" y="-118.5" font-family="Helvetica,sans-Serif" font-size="10.00">stdlib.h</text>
</a>
</g>
</g>
<!-- Node2&#45;&gt;Node3 -->
<g id="edge2_Node000002_Node000003" class="edge">
<title>Node2&#45;&gt;Node3</title>
<g id="a_edge2_Node000002_Node000003"><a xlink:title=" ">
<path fill="none" stroke="#63b8ff" d="M242.12,-223.62C242.12,-206.01 242.12,-167.59 242.12,-143.65"/>
<polygon fill="#63b8ff" stroke="#63b8ff" points="245.63,-143.87 242.13,-133.87 238.63,-143.87 245.63,-143.87"/>
</a>
</g>
</g>
<!-- Node5 -->
<g id="Node000005" class="node">
<title>Node5</title>
<g id="a_Node000005"><a xlink:href="_dm_2_event_loop_8h.html" target="_top" xlink:title=" ">
<polygon fill="white" stroke="#666666" points="1090.38,-244 985.88,-244 985.88,-224 1090.38,-224 1090.38,-244"/>
<text text-anchor="middle" x="1038.12" y="-230.5" font-family="Helvetica,sans-Serif" font-size="10.00">Cpl/Dm/EventLoop.h</text>
</a>
</g>
</g>
<!-- Node4&#45;&gt;Node5 -->
<g id="edge4_Node000004_Node000005" class="edge">
<title>Node4&#45;&gt;Node5</title>
<g id="a_edge4_Node000004_Node000005"><a xlink:title=" ">
<path fill="none" stroke="#63b8ff" d="M390.49,-284.4C523.06,-274.28 838.62,-250.22 974.31,-239.87"/>
<polygon fill="#63b8ff" stroke="#63b8ff" points="974.49,-243.36 984.2,-239.11 973.96,-236.38 974.49,-243.36"/>
</a>
</g>
</g>
<!-- Node23 -->
<g id="Node000023" class="node">
<title>Node23</title>
<g id="a_Node000023"><a xlink:href="_mailbox_8h.html" target="_top" xlink:title=" ">
<polygon fill="white" stroke="#666666" points="170.5,-188 81.75,-188 81.75,-168 170.5,-168 170.5,-188"/>
<text text-anchor="middle" x="126.12" y="-174.5" font-family="Helvetica,sans-Serif" font-size="10.00">Cpl/Itc/Mailbox.h</text>
</a>
</g>
</g>
<!-- Node4&#45;&gt;Node23 -->
<g id="edge33_Node000004_Node000023" class="edge">
<title>Node4&#45;&gt;Node23</title>
<g id="a_edge33_Node000004_Node000023"><a xlink:title=" ">
<path fill="none" stroke="#63b8ff" d="M269.6,-281.87C237.97,-275.8 199.95,-264.6 171.12,-244 154.75,-232.3 142.37,-212.68 134.78,-198.05"/>
<polygon fill="#63b8ff" stroke="#63b8ff" points="138.1,-196.88 130.59,-189.41 131.81,-199.93 138.1,-196.88"/>
</a>
</g>
</g>
<!-- Node6 -->
<g id="Node000006" class="node">
<title>Node6</title>
<g id="a_Node000006"><a xlink:href="_system_2_event_loop_8h.html" target="_top" xlink:title=" ">
<polygon fill="white" stroke="#666666" points="946.75,-188 823.5,-188 823.5,-168 946.75,-168 946.75,-188"/>
<text text-anchor="middle" x="885.12" y="-174.5" font-family="Helvetica,sans-Serif" font-size="10.00">Cpl/System/EventLoop.h</text>
</a>
</g>
</g>
<!-- Node5&#45;&gt;Node6 -->
<g id="edge5_Node000005_Node000006" class="edge">
<title>Node5&#45;&gt;Node6</title>
<g id="a_edge5_Node000005_Node000006"><a xlink:title=" ">
<path fill="none" stroke="#63b8ff" d="M1011.47,-223.59C986.94,-214.94 950.3,-202 922.78,-192.29"/>
<polygon fill="#63b8ff" stroke="#63b8ff" points="924.01,-189.01 913.41,-188.98 921.68,-195.61 924.01,-189.01"/>
</a>
</g>
</g>
<!-- Node18 -->
<g id="Node000018" class="node">
<title>Node18</title>
<g id="a_Node000018"><a xlink:href="_d_list_8h.html" target="_top" xlink:title=" ">
<polygon fill="white" stroke="#666666" points="1152.25,-76 1044,-76 1044,-56 1152.25,-56 1152.25,-76"/>
<text text-anchor="middle" x="1098.12" y="-62.5" font-family="Helvetica,sans-Serif" font-size="10.00">Cpl/Container/DList.h</text>
</a>
</g>
</g>
<!-- Node5&#45;&gt;Node18 -->
<g id="edge27_Node000005_Node000018" class="edge">
<title>Node5&#45;&gt;Node18</title>
<g id="a_edge27_Node000005_Node000018"><a xlink:title=" ">
<path fill="none" stroke="#63b8ff" d="M1061.59,-223.56C1093.64,-209.22 1149.8,-178.59 1173.12,-132 1184.15,-109.99 1159.51,-92.3 1135.58,-80.97"/>
<polygon fill="#63b8ff" stroke="#63b8ff" points="1137.07,-77.8 1126.51,-76.97 1134.25,-84.21 1137.07,-77.8"/>
</a>
</g>
</g>
<!-- Node19 -->
<g id="Node000019" class="node">
<title>Node19</title>
<g id="a_Node000019"><a xlink:href="_thread_8h.html" target="_top" xlink:title=" ">
<polygon fill="white" stroke="#666666" points="467.88,-188 360.38,-188 360.38,-168 467.88,-168 467.88,-188"/>
<text text-anchor="middle" x="414.12" y="-174.5" font-family="Helvetica,sans-Serif" font-size="10.00">Cpl/System/Thread.h</text>
</a>
</g>
</g>
<!-- Node5&#45;&gt;Node19 -->
<g id="edge21_Node000005_Node000019" class="edge">
<title>Node5&#45;&gt;Node19</title>
<g id="a_edge21_Node000005_Node000019"><a xlink:title=" ">
<path fill="none" stroke="#63b8ff" d="M985.46,-228.44C871.77,-218.6 603.63,-195.4 479.4,-184.65"/>
<polygon fill="#63b8ff" stroke="#63b8ff" points="479.97,-181.19 469.71,-183.81 479.37,-188.16 479.97,-181.19"/>
</a>
</g>
</g>
<!-- Node21 -->
<g id="Node000021" class="node">
<title>Node21</title>
<g id="a_Node000021"><a xlink:href="_subscriber_api_8h.html" target="_top" xlink:title=" ">
<polygon fill="white" stroke="#666666" points="1290.25,-76 1170,-76 1170,-56 1290.25,-56 1290.25,-76"/>
<text text-anchor="middle" x="1230.12" y="-62.5" font-family="Helvetica,sans-Serif" font-size="10.00">Cpl/Dm/SubscriberApi.h</text>
</a>
</g>
</g>
<!-- Node5&#45;&gt;Node21 -->
<g id="edge28_Node000005_Node000021" class="edge">
<title>Node5&#45;&gt;Node21</title>
<g id="a_edge28_Node000005_Node000021"><a xlink:title=" ">
<path fill="none" stroke="#63b8ff" d="M1076.19,-223.53C1099.05,-216.47 1127.76,-205.06 1149.12,-188 1184.06,-160.11 1209.38,-113.01 1221.7,-86.56"/>
<polygon fill="#63b8ff" stroke="#63b8ff" points="1224.78,-88.23 1225.68,-77.67 1218.4,-85.37 1224.78,-88.23"/>
</a>
</g>
</g>
<!-- Node22 -->
<g id="Node000022" class="node">
<title>Node22</title>
<g id="a_Node000022"><a xlink:href="_notification_api___8h.html" target="_top" xlink:title=" ">
<polygon fill="white" stroke="#666666" points="1385.62,-188 1258.62,-188 1258.62,-168 1385.62,-168 1385.62,-188"/>
<text text-anchor="middle" x="1322.12" y="-174.5" font-family="Helvetica,sans-Serif" font-size="10.00">Cpl/Dm/NotificationApi_.h</text>
</a>
</g>
</g>
<!-- Node5&#45;&gt;Node22 -->
<g id="edge31_Node000005_Node000022" class="edge">
<title>Node5&#45;&gt;Node22</title>
<g id="a_edge31_Node000005_Node000022"><a xlink:title=" ">
<path fill="none" stroke="#63b8ff" d="M1087.92,-223.53C1136.23,-214.35 1209.64,-200.39 1261.37,-190.55"/>
<polygon fill="#63b8ff" stroke="#63b8ff" points="1261.73,-194.05 1270.9,-188.74 1260.42,-187.17 1261.73,-194.05"/>
</a>
</g>
</g>
<!-- Node7 -->
<g id="Node000007" class="node">
<title>Node7</title>
<g id="a_Node000007"><a xlink:href="_runnable_8h.html" target="_top" xlink:title=" ">
<polygon fill="white" stroke="#666666" points="600.5,-132 481.75,-132 481.75,-112 600.5,-112 600.5,-132"/>
<text text-anchor="middle" x="541.12" y="-118.5" font-family="Helvetica,sans-Serif" font-size="10.00">Cpl/System/Runnable.h</text>
</a>
</g>
</g>
<!-- Node6&#45;&gt;Node7 -->
<g id="edge6_Node000006_Node000007" class="edge">
<title>Node6&#45;&gt;Node7</title>
<g id="a_edge6_Node000006_Node000007"><a xlink:title=" ">
<path fill="none" stroke="#63b8ff" d="M824.81,-167.53C765.37,-158.2 674.58,-143.95 611.79,-134.09"/>
<polygon fill="#63b8ff" stroke="#63b8ff" points="612.71,-130.69 602.29,-132.6 611.62,-137.61 612.71,-130.69"/>
</a>
</g>
</g>
<!-- Node8 -->
<g id="Node000008" class="node">
<title>Node8</title>
<g id="a_Node000008"><a xlink:href="_semaphore_8h.html" target="_top" xlink:title=" ">
<polygon fill="white" stroke="#666666" points="784,-132 656.25,-132 656.25,-112 784,-112 784,-132"/>
<text text-anchor="middle" x="720.12" y="-118.5" font-family="Helvetica,sans-Serif" font-size="10.00">Cpl/System/Semaphore.h</text>
</a>
</g>
</g>
<!-- Node6&#45;&gt;Node8 -->
<g id="edge7_Node000006_Node000008" class="edge">
<title>Node6&#45;&gt;Node8</title>
<g id="a_edge7_Node000006_Node000008"><a xlink:title=" ">
<path fill="none" stroke="#63b8ff" d="M856.38,-167.59C829.69,-158.86 789.71,-145.77 759.95,-136.03"/>
<polygon fill="#63b8ff" stroke="#63b8ff" points="761.12,-132.73 750.53,-132.95 758.94,-139.39 761.12,-132.73"/>
</a>
</g>
</g>
<!-- Node10 -->
<g id="Node000010" class="node">
<title>Node10</title>
<g id="a_Node000010"><a xlink:href="_signable_8h.html" target="_top" xlink:title=" ">
<polygon fill="white" stroke="#666666" points="589,-76 473.25,-76 473.25,-56 589,-56 589,-76"/>
<text text-anchor="middle" x="531.12" y="-62.5" font-family="Helvetica,sans-Serif" font-size="10.00">Cpl/System/Signable.h</text>
</a>
</g>
</g>
<!-- Node6&#45;&gt;Node10 -->
<g id="edge11_Node000006_Node000010" class="edge">
<title>Node6&#45;&gt;Node10</title>
<g id="a_edge11_Node000006_Node000010"><a xlink:title=" ">
<path fill="none" stroke="#63b8ff" d="M823.02,-170.84C774.12,-164.67 704.82,-152.98 647.12,-132 637.77,-128.6 588.35,-100.27 557.11,-82.15"/>
<polygon fill="#63b8ff" stroke="#63b8ff" points="559.01,-79.2 548.61,-77.21 555.49,-85.26 559.01,-79.2"/>
</a>
</g>
</g>
<!-- Node12 -->
<g id="Node000012" class="node">
<title>Node12</title>
<g id="a_Node000012"><a xlink:href="_event_flag_8h.html" target="_top" xlink:title=" ">
<polygon fill="white" stroke="#666666" points="1025.62,-76 904.62,-76 904.62,-56 1025.62,-56 1025.62,-76"/>
<text text-anchor="middle" x="965.12" y="-62.5" font-family="Helvetica,sans-Serif" font-size="10.00">Cpl/System/EventFlag.h</text>
</a>
</g>
</g>
<!-- Node6&#45;&gt;Node12 -->
<g id="edge12_Node000006_Node000012" class="edge">
<title>Node6&#45;&gt;Node12</title>
<g id="a_edge12_Node000006_Node000012"><a xlink:title=" ">
<path fill="none" stroke="#63b8ff" d="M926.34,-167.55C945.26,-160.94 965.92,-149.95 977.12,-132 985.67,-118.31 981.21,-100.05 975.45,-86.37"/>
<polygon fill="#63b8ff" stroke="#63b8ff" points="978.69,-85.03 971.21,-77.52 972.37,-88.05 978.69,-85.03"/>
</a>
</g>
</g>
<!-- Node15 -->
<g id="Node000015" class="node">
<title>Node15</title>
<g id="a_Node000015"><a xlink:href="_shared_event_handler_8h.html" target="_top" xlink:title=" ">
<polygon fill="white" stroke="#666666" points="968.12,-132 802.12,-132 802.12,-112 968.12,-112 968.12,-132"/>
<text text-anchor="middle" x="885.12" y="-118.5" font-family="Helvetica,sans-Serif" font-size="10.00">Cpl/System/SharedEventHandler.h</text>
</a>
</g>
</g>
<!-- Node6&#45;&gt;Node15 -->
<g id="edge15_Node000006_Node000015" class="edge">
<title>Node6&#45;&gt;Node15</title>
<g id="a_edge15_Node000006_Node000015"><a xlink:title=" ">
<path fill="none" stroke="#63b8ff" d="M885.12,-167.59C885.12,-161.01 885.12,-151.96 885.12,-143.73"/>
<polygon fill="#63b8ff" stroke="#63b8ff" points="888.63,-143.81 885.13,-133.81 881.63,-143.81 888.63,-143.81"/>
</a>
</g>
</g>
<!-- Node16 -->
<g id="Node000016" class="node">
<title>Node16</title>
<g id="a_Node000016"><a xlink:href="_timer_manager_8h.html" target="_top" xlink:title=" ">
<polygon fill="white" stroke="#666666" points="1164,-132 1024.25,-132 1024.25,-112 1164,-112 1164,-132"/>
<text text-anchor="middle" x="1094.12" y="-118.5" font-family="Helvetica,sans-Serif" font-size="10.00">Cpl/System/TimerManager.h</text>
</a>
</g>
</g>
<!-- Node6&#45;&gt;Node16 -->
<g id="edge17_Node000006_Node000016" class="edge">
<title>Node6&#45;&gt;Node16</title>
<g id="a_edge17_Node000006_Node000016"><a xlink:title=" ">
<path fill="none" stroke="#63b8ff" d="M921.53,-167.59C956.23,-158.63 1008.68,-145.08 1046.65,-135.27"/>
<polygon fill="#63b8ff" stroke="#63b8ff" points="1047.16,-138.75 1055.97,-132.86 1045.41,-131.97 1047.16,-138.75"/>
</a>
</g>
</g>
<!-- Node9 -->
<g id="Node000009" class="node">
<title>Node9</title>
<g id="a_Node000009"><a xlink:title=" ">
<polygon fill="#e0e0e0" stroke="#999999" points="722.5,-76 645.75,-76 645.75,-56 722.5,-56 722.5,-76"/>
<text text-anchor="middle" x="684.12" y="-62.5" font-family="Helvetica,sans-Serif" font-size="10.00">colony_map.h</text>
</a>
</g>
</g>
<!-- Node8&#45;&gt;Node9 -->
<g id="edge8_Node000008_Node000009" class="edge">
<title>Node8&#45;&gt;Node9</title>
<g id="a_edge8_Node000008_Node000009"><a xlink:title=" ">
<path fill="none" stroke="#63b8ff" d="M713.85,-111.59C709.11,-104.47 702.43,-94.45 696.6,-85.72"/>
<polygon fill="#63b8ff" stroke="#63b8ff" points="699.62,-83.94 691.16,-77.56 693.8,-87.82 699.62,-83.94"/>
</a>
</g>
</g>
<!-- Node8&#45;&gt;Node10 -->
<g id="edge9_Node000008_Node000010" class="edge">
<title>Node8&#45;&gt;Node10</title>
<g id="a_edge9_Node000008_Node000010"><a xlink:title=" ">
<path fill="none" stroke="#63b8ff" d="M687.2,-111.59C656.09,-102.71 609.21,-89.31 574.95,-79.52"/>
<polygon fill="#63b8ff" stroke="#63b8ff" points="576.34,-76.28 565.76,-76.9 574.41,-83.01 576.34,-76.28"/>
</a>
</g>
</g>
<!-- Node11 -->
<g id="Node000011" class="node">
<title>Node11</title>
<g id="a_Node000011"><a xlink:href="_item_8h.html" target="_top" xlink:title=" ">
<polygon fill="white" stroke="#666666" points="583.38,-20 478.88,-20 478.88,0 583.38,0 583.38,-20"/>
<text text-anchor="middle" x="531.12" y="-6.5" font-family="Helvetica,sans-Serif" font-size="10.00">Cpl/Container/Item.h</text>
</a>
</g>
</g>
<!-- Node10&#45;&gt;Node11 -->
<g id="edge10_Node000010_Node000011" class="edge">
<title>Node10&#45;&gt;Node11</title>
<g id="a_edge10_Node000010_Node000011"><a xlink:title=" ">
<path fill="none" stroke="#63b8ff" d="M531.12,-55.59C531.12,-49.01 531.12,-39.96 531.12,-31.73"/>
<polygon fill="#63b8ff" stroke="#63b8ff" points="534.63,-31.81 531.13,-21.81 527.63,-31.81 534.63,-31.81"/>
</a>
</g>
</g>
<!-- Node13 -->
<g id="Node000013" class="node">
<title>Node13</title>
<g id="a_Node000013"><a xlink:title=" ">
<polygon fill="#e0e0e0" stroke="#999999" points="1006.88,-20 923.38,-20 923.38,0 1006.88,0 1006.88,-20"/>
<text text-anchor="middle" x="965.12" y="-6.5" font-family="Helvetica,sans-Serif" font-size="10.00">colony_config.h</text>
</a>
</g>
</g>
<!-- Node12&#45;&gt;Node13 -->
<g id="edge13_Node000012_Node000013" class="edge">
<title>Node12&#45;&gt;Node13</title>
<g id="a_edge13_Node000012_Node000013"><a xlink:title=" ">
<path fill="none" stroke="#63b8ff" d="M965.12,-55.59C965.12,-49.01 965.12,-39.96 965.12,-31.73"/>
<polygon fill="#63b8ff" stroke="#63b8ff" points="968.63,-31.81 965.13,-21.81 961.63,-31.81 968.63,-31.81"/>
</a>
</g>
</g>
<!-- Node14 -->
<g id="Node000014" class="node">
<title>Node14</title>
<g id="a_Node000014"><a xlink:title=" ">
<polygon fill="#e0e0e0" stroke="#999999" points="1163.25,-20 1115,-20 1115,0 1163.25,0 1163.25,-20"/>
<text text-anchor="middle" x="1139.12" y="-6.5" font-family="Helvetica,sans-Serif" font-size="10.00">stdint.h</text>
</a>
</g>
</g>
<!-- Node12&#45;&gt;Node14 -->
<g id="edge14_Node000012_Node000014" class="edge">
<title>Node12&#45;&gt;Node14</title>
<g id="a_edge14_Node000012_Node000014"><a xlink:title=" ">
<path fill="none" stroke="#63b8ff" d="M995.43,-55.59C1025.66,-46.21 1072.05,-31.82 1103.89,-21.93"/>
<polygon fill="#63b8ff" stroke="#63b8ff" points="1104.54,-25.4 1113.06,-19.09 1102.47,-18.71 1104.54,-25.4"/>
</a>
</g>
</g>
<!-- Node15&#45;&gt;Node12 -->
<g id="edge16_Node000015_Node000012" class="edge">
<title>Node15&#45;&gt;Node12</title>
<g id="a_edge16_Node000015_Node000012"><a xlink:title=" ">
<path fill="none" stroke="#63b8ff" d="M899.06,-111.59C910.8,-103.67 927.86,-92.16 941.69,-82.82"/>
<polygon fill="#63b8ff" stroke="#63b8ff" points="943.5,-85.82 949.83,-77.33 939.58,-80.02 943.5,-85.82"/>
</a>
</g>
</g>
<!-- Node17 -->
<g id="Node000017" class="node">
<title>Node17</title>
<g id="a_Node000017"><a xlink:href="_counter___8h.html" target="_top" xlink:title=" ">
<polygon fill="white" stroke="#666666" points="876.75,-76 759.5,-76 759.5,-56 876.75,-56 876.75,-76"/>
<text text-anchor="middle" x="818.12" y="-62.5" font-family="Helvetica,sans-Serif" font-size="10.00">Cpl/System/Counter_.h</text>
</a>
</g>
</g>
<!-- Node16&#45;&gt;Node17 -->
<g id="edge18_Node000016_Node000017" class="edge">
<title>Node16&#45;&gt;Node17</title>
<g id="a_edge18_Node000016_Node000017"><a xlink:title=" ">
<path fill="none" stroke="#63b8ff" d="M1045.73,-111.53C998.88,-102.36 927.74,-88.45 877.49,-78.61"/>
<polygon fill="#63b8ff" stroke="#63b8ff" points="878.43,-75.23 867.95,-76.75 877.09,-82.1 878.43,-75.23"/>
</a>
</g>
</g>
<!-- Node16&#45;&gt;Node18 -->
<g id="edge20_Node000016_Node000018" class="edge">
<title>Node16&#45;&gt;Node18</title>
<g id="a_edge20_Node000016_Node000018"><a xlink:title=" ">
<path fill="none" stroke="#63b8ff" d="M1094.82,-111.59C1095.31,-105.01 1095.98,-95.96 1096.59,-87.73"/>
<polygon fill="#63b8ff" stroke="#63b8ff" points="1100.08,-88.04 1097.32,-77.81 1093.1,-87.52 1100.08,-88.04"/>
</a>
</g>
</g>
<!-- Node17&#45;&gt;Node11 -->
<g id="edge19_Node000017_Node000011" class="edge">
<title>Node17&#45;&gt;Node11</title>
<g id="a_edge19_Node000017_Node000011"><a xlink:title=" ">
<path fill="none" stroke="#63b8ff" d="M767.8,-55.53C718.98,-46.35 644.8,-32.39 592.52,-22.55"/>
<polygon fill="#63b8ff" stroke="#63b8ff" points="593.35,-19.15 582.87,-20.74 592.06,-26.03 593.35,-19.15"/>
</a>
</g>
</g>
<!-- Node19&#45;&gt;Node3 -->
<g id="edge26_Node000019_Node000003" class="edge">
<title>Node19&#45;&gt;Node3</title>
<g id="a_edge26_Node000019_Node000003"><a xlink:title=" ">
<path fill="none" stroke="#63b8ff" d="M384.16,-167.59C354.33,-158.23 308.57,-143.86 277.09,-133.98"/>
<polygon fill="#63b8ff" stroke="#63b8ff" points="278.23,-130.67 267.64,-131.01 276.14,-137.35 278.23,-130.67"/>
</a>
</g>
</g>
<!-- Node19&#45;&gt;Node7 -->
<g id="edge23_Node000019_Node000007" class="edge">
<title>Node19&#45;&gt;Node7</title>
<g id="a_edge23_Node000019_Node000007"><a xlink:title=" ">
<path fill="none" stroke="#63b8ff" d="M436.25,-167.59C456.16,-159.13 485.68,-146.58 508.33,-136.94"/>
<polygon fill="#63b8ff" stroke="#63b8ff" points="509.6,-140.21 517.44,-133.07 506.87,-133.76 509.6,-140.21"/>
</a>
</g>
</g>
<!-- Node19&#45;&gt;Node9 -->
<g id="edge22_Node000019_Node000009" class="edge">
<title>Node19&#45;&gt;Node9</title>
<g id="a_edge22_Node000019_Node000009"><a xlink:title=" ">
<path fill="none" stroke="#63b8ff" d="M419.73,-167.79C428.97,-153.44 448.82,-125.98 473.12,-112 500.05,-96.52 580.63,-82.21 634.06,-74.05"/>
<polygon fill="#63b8ff" stroke="#63b8ff" points="634.48,-77.53 643.85,-72.58 633.44,-70.61 634.48,-77.53"/>
</a>
</g>
</g>
<!-- Node19&#45;&gt;Node10 -->
<g id="edge24_Node000019_Node000010" class="edge">
<title>Node19&#45;&gt;Node10</title>
<g id="a_edge24_Node000019_Node000010"><a xlink:title=" ">
<path fill="none" stroke="#63b8ff" d="M373.96,-167.54C337.34,-157.03 291.92,-138.03 313.12,-112 331.65,-89.26 404.85,-77.67 461.37,-72"/>
<polygon fill="#63b8ff" stroke="#63b8ff" points="461.67,-75.48 471.29,-71.05 461,-68.51 461.67,-75.48"/>
</a>
</g>
</g>
<!-- Node20 -->
<g id="Node000020" class="node">
<title>Node20</title>
<g id="a_Node000020"><a xlink:href="_traverser_8h.html" target="_top" xlink:title=" ">
<polygon fill="white" stroke="#666666" points="426.38,-132 321.88,-132 321.88,-112 426.38,-112 426.38,-132"/>
<text text-anchor="middle" x="374.12" y="-118.5" font-family="Helvetica,sans-Serif" font-size="10.00">Cpl/Type/Traverser.h</text>
</a>
</g>
</g>
<!-- Node19&#45;&gt;Node20 -->
<g id="edge25_Node000019_Node000020" class="edge">
<title>Node19&#45;&gt;Node20</title>
<g id="a_edge25_Node000019_Node000020"><a xlink:title=" ">
<path fill="none" stroke="#63b8ff" d="M407.16,-167.59C401.82,-160.39 394.3,-150.23 387.78,-141.43"/>
<polygon fill="#63b8ff" stroke="#63b8ff" points="390.68,-139.47 381.91,-133.51 385.05,-143.63 390.68,-139.47"/>
</a>
</g>
</g>
<!-- Node21&#45;&gt;Node11 -->
<g id="edge29_Node000021_Node000011" class="edge">
<title>Node21&#45;&gt;Node11</title>
<g id="a_edge29_Node000021_Node000011"><a xlink:title=" ">
<path fill="none" stroke="#63b8ff" d="M1169.57,-56.9C1166.71,-56.58 1163.89,-56.28 1161.12,-56 954.39,-35.15 708.53,-20.51 594.73,-14.31"/>
<polygon fill="#63b8ff" stroke="#63b8ff" points="595.17,-10.83 585,-13.79 594.79,-17.82 595.17,-10.83"/>
</a>
</g>
</g>
<!-- Node21&#45;&gt;Node14 -->
<g id="edge30_Node000021_Node000014" class="edge">
<title>Node21&#45;&gt;Node14</title>
<g id="a_edge30_Node000021_Node000014"><a xlink:title=" ">
<path fill="none" stroke="#63b8ff" d="M1214.27,-55.59C1200.66,-47.51 1180.76,-35.71 1164.86,-26.27"/>
<polygon fill="#63b8ff" stroke="#63b8ff" points="1166.79,-23.35 1156.4,-21.25 1163.22,-29.37 1166.79,-23.35"/>
</a>
</g>
</g>
<!-- Node22&#45;&gt;Node21 -->
<g id="edge32_Node000022_Node000021" class="edge">
<title>Node22&#45;&gt;Node21</title>
<g id="a_edge32_Node000022_Node000021"><a xlink:title=" ">
<path fill="none" stroke="#63b8ff" d="M1314.28,-167.62C1299,-149.36 1265.03,-108.73 1245.24,-85.07"/>
<polygon fill="#63b8ff" stroke="#63b8ff" points="1248.02,-82.94 1238.92,-77.52 1242.65,-87.43 1248.02,-82.94"/>
</a>
</g>
</g>
<!-- Node23&#45;&gt;Node10 -->
<g id="edge39_Node000023_Node000010" class="edge">
<title>Node23&#45;&gt;Node10</title>
<g id="a_edge39_Node000023_Node000010"><a xlink:title=" ">
<path fill="none" stroke="#63b8ff" d="M134.77,-167.59C148.81,-152.98 178.13,-125.16 209.12,-112 253.35,-93.22 381.16,-79.52 461.82,-72.44"/>
<polygon fill="#63b8ff" stroke="#63b8ff" points="461.71,-75.97 471.37,-71.62 461.1,-68.99 461.71,-75.97"/>
</a>
</g>
</g>
<!-- Node24 -->
<g id="Node000024" class="node">
<title>Node24</title>
<g id="a_Node000024"><a xlink:href="_post_api_8h.html" target="_top" xlink:title=" ">
<polygon fill="white" stroke="#666666" points="161.88,-132 72.38,-132 72.38,-112 161.88,-112 161.88,-132"/>
<text text-anchor="middle" x="117.12" y="-118.5" font-family="Helvetica,sans-Serif" font-size="10.00">Cpl/Itc/PostApi.h</text>
</a>
</g>
</g>
<!-- Node23&#45;&gt;Node24 -->
<g id="edge34_Node000023_Node000024" class="edge">
<title>Node23&#45;&gt;Node24</title>
<g id="a_edge34_Node000023_Node000024"><a xlink:title=" ">
<path fill="none" stroke="#63b8ff" d="M124.56,-167.59C123.45,-160.93 121.92,-151.75 120.53,-143.44"/>
<polygon fill="#63b8ff" stroke="#63b8ff" points="124.02,-143.08 118.92,-133.79 117.12,-144.23 124.02,-143.08"/>
</a>
</g>
</g>
<!-- Node26 -->
<g id="Node000026" class="node">
<title>Node26</title>
<g id="a_Node000026"><a xlink:href="_s_list_8h.html" target="_top" xlink:title=" ">
<polygon fill="white" stroke="#666666" points="108.25,-76 0,-76 0,-56 108.25,-56 108.25,-76"/>
<text text-anchor="middle" x="54.12" y="-62.5" font-family="Helvetica,sans-Serif" font-size="10.00">Cpl/Container/SList.h</text>
</a>
</g>
</g>
<!-- Node23&#45;&gt;Node26 -->
<g id="edge37_Node000023_Node000026" class="edge">
<title>Node23&#45;&gt;Node26</title>
<g id="a_edge37_Node000023_Node000026"><a xlink:title=" ">
<path fill="none" stroke="#63b8ff" d="M105.04,-167.57C90.79,-160.05 72.87,-148.1 63.12,-132 55.08,-118.7 53.05,-101.12 52.92,-87.6"/>
<polygon fill="#63b8ff" stroke="#63b8ff" points="56.41,-87.75 53.19,-77.66 49.42,-87.56 56.41,-87.75"/>
</a>
</g>
</g>
<!-- Node25 -->
<g id="Node000025" class="node">
<title>Node25</title>
<g id="a_Node000025"><a xlink:href="_message_8h.html" target="_top" xlink:title=" ">
<polygon fill="white" stroke="#666666" points="377.5,-76 282.75,-76 282.75,-56 377.5,-56 377.5,-76"/>
<text text-anchor="middle" x="330.12" y="-62.5" font-family="Helvetica,sans-Serif" font-size="10.00">Cpl/Itc/Message.h</text>
</a>
</g>
</g>
<!-- Node24&#45;&gt;Node25 -->
<g id="edge35_Node000024_Node000025" class="edge">
<title>Node24&#45;&gt;Node25</title>
<g id="a_edge35_Node000024_Node000025"><a xlink:title=" ">
<path fill="none" stroke="#63b8ff" d="M154.23,-111.59C189.59,-102.63 243.04,-89.08 281.74,-79.27"/>
<polygon fill="#63b8ff" stroke="#63b8ff" points="282.43,-82.7 291.27,-76.85 280.71,-75.92 282.43,-82.7"/>
</a>
</g>
</g>
<!-- Node25&#45;&gt;Node11 -->
<g id="edge36_Node000025_Node000011" class="edge">
<title>Node25&#45;&gt;Node11</title>
<g id="a_edge36_Node000025_Node000011"><a xlink:title=" ">
<path fill="none" stroke="#63b8ff" d="M365.14,-55.59C398.37,-46.67 448.51,-33.19 484.99,-23.39"/>
<polygon fill="#63b8ff" stroke="#63b8ff" points="485.63,-26.85 494.38,-20.87 483.81,-20.09 485.63,-26.85"/>
</a>
</g>
</g>
<!-- Node26&#45;&gt;Node11 -->
<g id="edge38_Node000026_Node000011" class="edge">
<title>Node26&#45;&gt;Node11</title>
<g id="a_edge38_Node000026_Node000011"><a xlink:title=" ">
<path fill="none" stroke="#63b8ff" d="M108.38,-58.86C196.98,-48.83 372.34,-28.98 466.97,-18.26"/>
<polygon fill="#63b8ff" stroke="#63b8ff" points="467.33,-21.74 476.87,-17.14 466.54,-14.79 467.33,-21.74"/>
</a>
</g>
</g>
</g>
</svg>
