<?xml version="1.0" encoding="UTF-8" standalone="no"?>
<!DOCTYPE svg PUBLIC "-//W3C//DTD SVG 1.1//EN"
 "http://www.w3.org/Graphics/SVG/1.1/DTD/svg11.dtd">
<!-- Generated by graphviz version 2.38.0 (20140413.2041)
 -->
<!-- Title: Cpl/Itc/CloseApi.h Pages: 1 -->
<svg width="314pt" height="207pt"
 viewBox="0.00 0.00 314.00 207.00" xmlns="http://www.w3.org/2000/svg" xmlns:xlink="http://www.w3.org/1999/xlink">
<g id="graph0" class="graph" transform="scale(1 1) rotate(0) translate(4 203)">
<title>Cpl/Itc/CloseApi.h</title>
<polygon fill="white" stroke="none" points="-4,4 -4,-203 310,-203 310,4 -4,4"/>
<!-- Node1 -->
<g id="node1" class="node"><title>Node1</title>
<g id="a_node1"><a xlink:title=" ">
<polygon fill="#bfbfbf" stroke="black" points="103,-179.5 103,-198.5 198,-198.5 198,-179.5 103,-179.5"/>
<text text-anchor="middle" x="150.5" y="-186.5" font-family="Helvetica,sans-Serif" font-size="10.00">Cpl/Itc/CloseApi.h</text>
</a>
</g>
</g>
<!-- Node2 -->
<g id="node2" class="node"><title>Node2</title>
<g id="a_node2"><a xlink:href="_close_sync_8h.html" target="_top" xlink:title=" ">
<polygon fill="white" stroke="black" points="98.5,-123.5 98.5,-142.5 202.5,-142.5 202.5,-123.5 98.5,-123.5"/>
<text text-anchor="middle" x="150.5" y="-130.5" font-family="Helvetica,sans-Serif" font-size="10.00">Cpl/Itc/CloseSync.h</text>
</a>
</g>
</g>
<!-- Node1&#45;&gt;Node2 -->
<g id="edge1" class="edge"><title>Node1&#45;&gt;Node2</title>
<path fill="none" stroke="midnightblue" d="M150.5,-168.805C150.5,-159.91 150.5,-149.78 150.5,-142.751"/>
<polygon fill="midnightblue" stroke="midnightblue" points="147,-169.083 150.5,-179.083 154,-169.083 147,-169.083"/>
</g>
<!-- Node3 -->
<g id="node3" class="node"><title>Node3</title>
<g id="a_node3"><a xlink:href="_indexed_entry_server_8h.html" target="_top" xlink:title=" ">
<polygon fill="white" stroke="black" points="0,-56.5 0,-86.5 139,-86.5 139,-56.5 0,-56.5"/>
<text text-anchor="start" x="8" y="-74.5" font-family="Helvetica,sans-Serif" font-size="10.00">Cpl/Persistent/IndexedEntry</text>
<text text-anchor="middle" x="69.5" y="-63.5" font-family="Helvetica,sans-Serif" font-size="10.00">Server.h</text>
</a>
</g>
</g>
<!-- Node2&#45;&gt;Node3 -->
<g id="edge2" class="edge"><title>Node2&#45;&gt;Node3</title>
<path fill="none" stroke="midnightblue" d="M130.717,-117.468C117.892,-108.047 101.275,-95.8408 88.5901,-86.523"/>
<polygon fill="midnightblue" stroke="midnightblue" points="128.763,-120.376 138.895,-123.475 132.907,-114.734 128.763,-120.376"/>
</g>
<!-- Node4 -->
<g id="node4" class="node"><title>Node4</title>
<g id="a_node4"><a xlink:href="_record_server_8h.html" target="_top" xlink:title=" ">
<polygon fill="white" stroke="black" points="157,-62 157,-81 306,-81 306,-62 157,-62"/>
<text text-anchor="middle" x="231.5" y="-69" font-family="Helvetica,sans-Serif" font-size="10.00">Cpl/Persistent/RecordServer.h</text>
</a>
</g>
</g>
<!-- Node2&#45;&gt;Node4 -->
<g id="edge3" class="edge"><title>Node2&#45;&gt;Node4</title>
<path fill="none" stroke="midnightblue" d="M170.52,-117.294C186.058,-105.88 207.053,-90.4577 219.916,-81.0091"/>
<polygon fill="midnightblue" stroke="midnightblue" points="168.093,-114.734 162.105,-123.475 172.237,-120.376 168.093,-114.734"/>
</g>
<!-- Node5 -->
<g id="node5" class="node"><title>Node5</title>
<g id="a_node5"><a xlink:href="_dm_2_persistent_2_record_8h.html" target="_top" xlink:title=" ">
<polygon fill="white" stroke="black" points="162.5,-0.5 162.5,-19.5 300.5,-19.5 300.5,-0.5 162.5,-0.5"/>
<text text-anchor="middle" x="231.5" y="-7.5" font-family="Helvetica,sans-Serif" font-size="10.00">Cpl/Dm/Persistent/Record.h</text>
</a>
</g>
</g>
<!-- Node4&#45;&gt;Node5 -->
<g id="edge4" class="edge"><title>Node4&#45;&gt;Node5</title>
<path fill="none" stroke="midnightblue" d="M231.5,-51.8165C231.5,-40.9962 231.5,-27.898 231.5,-19.5091"/>
<polygon fill="midnightblue" stroke="midnightblue" points="228,-51.9751 231.5,-61.9751 235,-51.9751 228,-51.9751"/>
</g>
</g>
</svg>
