<?xml version="1.0" encoding="UTF-8" standalone="no"?>
<!DOCTYPE svg PUBLIC "-//W3C//DTD SVG 1.1//EN"
 "http://www.w3.org/Graphics/SVG/1.1/DTD/svg11.dtd">
<!-- Generated by graphviz version 10.0.1 (20240210.2158)
 -->
<!-- Title: Cpl/Itc/CloseSync.h Pages: 1 -->
<svg width="471pt" height="476pt"
 viewBox="0.00 0.00 471.25 476.00" xmlns="http://www.w3.org/2000/svg" xmlns:xlink="http://www.w3.org/1999/xlink">
<g id="graph0" class="graph" transform="scale(1 1) rotate(0) translate(4 472)">
<title>Cpl/Itc/CloseSync.h</title>
<!-- Node1 -->
<g id="Node000001" class="node">
<title>Node1</title>
<g id="a_Node000001"><a xlink:title=" ">
<polygon fill="#999999" stroke="#666666" points="336.25,-468 234,-468 234,-448 336.25,-448 336.25,-468"/>
<text text-anchor="middle" x="285.12" y="-454.5" font-family="Helvetica,sans-Serif" font-size="10.00">Cpl/Itc/CloseSync.h</text>
</a>
</g>
</g>
<!-- Node2 -->
<g id="Node000002" class="node">
<title>Node2</title>
<g id="a_Node000002"><a xlink:href="_open_sync_8h.html" target="_top" xlink:title=" ">
<polygon fill="white" stroke="#666666" points="335.5,-412 234.75,-412 234.75,-392 335.5,-392 335.5,-412"/>
<text text-anchor="middle" x="285.12" y="-398.5" font-family="Helvetica,sans-Serif" font-size="10.00">Cpl/Itc/OpenSync.h</text>
</a>
</g>
</g>
<!-- Node1&#45;&gt;Node2 -->
<g id="edge1_Node000001_Node000002" class="edge">
<title>Node1&#45;&gt;Node2</title>
<g id="a_edge1_Node000001_Node000002"><a xlink:title=" ">
<path fill="none" stroke="#63b8ff" d="M285.12,-447.59C285.12,-441.01 285.12,-431.96 285.12,-423.73"/>
<polygon fill="#63b8ff" stroke="#63b8ff" points="288.63,-423.81 285.13,-413.81 281.63,-423.81 288.63,-423.81"/>
</a>
</g>
</g>
<!-- Node14 -->
<g id="Node000014" class="node">
<title>Node14</title>
<g id="a_Node000014"><a xlink:href="_close_request_8h.html" target="_top" xlink:title=" ">
<polygon fill="white" stroke="#666666" points="221,-356 105.25,-356 105.25,-336 221,-336 221,-356"/>
<text text-anchor="middle" x="163.12" y="-342.5" font-family="Helvetica,sans-Serif" font-size="10.00">Cpl/Itc/CloseRequest.h</text>
</a>
</g>
</g>
<!-- Node1&#45;&gt;Node14 -->
<g id="edge18_Node000001_Node000014" class="edge">
<title>Node1&#45;&gt;Node14</title>
<g id="a_edge18_Node000001_Node000014"><a xlink:title=" ">
<path fill="none" stroke="#63b8ff" d="M271.55,-447.54C259.3,-438.78 240.96,-425.18 226.12,-412 209.13,-396.91 191.23,-378.12 178.87,-364.63"/>
<polygon fill="#63b8ff" stroke="#63b8ff" points="181.61,-362.44 172.3,-357.37 176.42,-367.13 181.61,-362.44"/>
</a>
</g>
</g>
<!-- Node15 -->
<g id="Node000015" class="node">
<title>Node15</title>
<g id="a_Node000015"><a xlink:href="_close_api_8h.html" target="_top" xlink:title=" ">
<polygon fill="white" stroke="#666666" points="447.12,-412 353.12,-412 353.12,-392 447.12,-392 447.12,-412"/>
<text text-anchor="middle" x="400.12" y="-398.5" font-family="Helvetica,sans-Serif" font-size="10.00">Cpl/Itc/CloseApi.h</text>
</a>
</g>
</g>
<!-- Node1&#45;&gt;Node15 -->
<g id="edge22_Node000001_Node000015" class="edge">
<title>Node1&#45;&gt;Node15</title>
<g id="a_edge22_Node000001_Node000015"><a xlink:title=" ">
<path fill="none" stroke="#63b8ff" d="M305.16,-447.59C322.94,-439.24 349.19,-426.92 369.59,-417.34"/>
<polygon fill="#63b8ff" stroke="#63b8ff" points="371,-420.54 378.57,-413.12 368.03,-414.21 371,-420.54"/>
</a>
</g>
</g>
<!-- Node3 -->
<g id="Node000003" class="node">
<title>Node3</title>
<g id="a_Node000003"><a xlink:href="_open_api_8h.html" target="_top" xlink:title=" ">
<polygon fill="white" stroke="#666666" points="331.38,-356 238.88,-356 238.88,-336 331.38,-336 331.38,-356"/>
<text text-anchor="middle" x="285.12" y="-342.5" font-family="Helvetica,sans-Serif" font-size="10.00">Cpl/Itc/OpenApi.h</text>
</a>
</g>
</g>
<!-- Node2&#45;&gt;Node3 -->
<g id="edge2_Node000002_Node000003" class="edge">
<title>Node2&#45;&gt;Node3</title>
<g id="a_edge2_Node000002_Node000003"><a xlink:title=" ">
<path fill="none" stroke="#63b8ff" d="M285.12,-391.59C285.12,-385.01 285.12,-375.96 285.12,-367.73"/>
<polygon fill="#63b8ff" stroke="#63b8ff" points="288.63,-367.81 285.13,-357.81 281.63,-367.81 288.63,-367.81"/>
</a>
</g>
</g>
<!-- Node4 -->
<g id="Node000004" class="node">
<title>Node4</title>
<g id="a_Node000004"><a xlink:href="_open_request_8h.html" target="_top" xlink:title=" ">
<polygon fill="white" stroke="#666666" points="463.25,-356 349,-356 349,-336 463.25,-336 463.25,-356"/>
<text text-anchor="middle" x="406.12" y="-342.5" font-family="Helvetica,sans-Serif" font-size="10.00">Cpl/Itc/OpenRequest.h</text>
</a>
</g>
</g>
<!-- Node2&#45;&gt;Node4 -->
<g id="edge3_Node000002_Node000004" class="edge">
<title>Node2&#45;&gt;Node4</title>
<g id="a_edge3_Node000002_Node000004"><a xlink:title=" ">
<path fill="none" stroke="#63b8ff" d="M306.2,-391.59C325.08,-383.17 353.04,-370.69 374.59,-361.07"/>
<polygon fill="#63b8ff" stroke="#63b8ff" points="375.8,-364.37 383.5,-357.1 372.94,-357.98 375.8,-364.37"/>
</a>
</g>
</g>
<!-- Node5 -->
<g id="Node000005" class="node">
<title>Node5</title>
<g id="a_Node000005"><a xlink:href="_request_message_8h.html" target="_top" xlink:title=" ">
<polygon fill="white" stroke="#666666" points="316.5,-244 185.75,-244 185.75,-224 316.5,-224 316.5,-244"/>
<text text-anchor="middle" x="251.12" y="-230.5" font-family="Helvetica,sans-Serif" font-size="10.00">Cpl/Itc/RequestMessage.h</text>
</a>
</g>
</g>
<!-- Node4&#45;&gt;Node5 -->
<g id="edge4_Node000004_Node000005" class="edge">
<title>Node4&#45;&gt;Node5</title>
<g id="a_edge4_Node000004_Node000005"><a xlink:title=" ">
<path fill="none" stroke="#63b8ff" d="M395.47,-335.7C380.3,-322.65 351.41,-298.42 325.12,-280 309.87,-269.31 292.04,-258.42 277.71,-250.04"/>
<polygon fill="#63b8ff" stroke="#63b8ff" points="279.7,-247.14 269.29,-245.17 276.19,-253.2 279.7,-247.14"/>
</a>
</g>
</g>
<!-- Node10 -->
<g id="Node000010" class="node">
<title>Node10</title>
<g id="a_Node000010"><a xlink:href="_s_a_p_8h.html" target="_top" xlink:title=" ">
<polygon fill="white" stroke="#666666" points="381.75,-188 306.5,-188 306.5,-168 381.75,-168 381.75,-188"/>
<text text-anchor="middle" x="344.12" y="-174.5" font-family="Helvetica,sans-Serif" font-size="10.00">Cpl/Itc/SAP.h</text>
</a>
</g>
</g>
<!-- Node4&#45;&gt;Node10 -->
<g id="edge17_Node000004_Node000010" class="edge">
<title>Node4&#45;&gt;Node10</title>
<g id="a_edge17_Node000004_Node000010"><a xlink:title=" ">
<path fill="none" stroke="#63b8ff" d="M402.61,-335.6C392.81,-309.35 364.98,-234.84 351.55,-198.89"/>
<polygon fill="#63b8ff" stroke="#63b8ff" points="354.9,-197.86 348.13,-189.72 348.35,-200.31 354.9,-197.86"/>
</a>
</g>
</g>
<!-- Node12 -->
<g id="Node000012" class="node">
<title>Node12</title>
<g id="a_Node000012"><a xlink:href="_response_message_8h.html" target="_top" xlink:title=" ">
<polygon fill="white" stroke="#666666" points="316.25,-300 178,-300 178,-280 316.25,-280 316.25,-300"/>
<text text-anchor="middle" x="247.12" y="-286.5" font-family="Helvetica,sans-Serif" font-size="10.00">Cpl/Itc/ResponseMessage.h</text>
</a>
</g>
</g>
<!-- Node4&#45;&gt;Node12 -->
<g id="edge12_Node000004_Node000012" class="edge">
<title>Node4&#45;&gt;Node12</title>
<g id="a_edge12_Node000004_Node000012"><a xlink:title=" ">
<path fill="none" stroke="#63b8ff" d="M378.43,-335.59C352.82,-326.9 314.52,-313.89 285.88,-304.16"/>
<polygon fill="#63b8ff" stroke="#63b8ff" points="287.06,-300.87 276.47,-300.97 284.81,-307.5 287.06,-300.87"/>
</a>
</g>
</g>
<!-- Node6 -->
<g id="Node000006" class="node">
<title>Node6</title>
<g id="a_Node000006"><a xlink:href="_service_message_8h.html" target="_top" xlink:title=" ">
<polygon fill="white" stroke="#666666" points="126.25,-188 0,-188 0,-168 126.25,-168 126.25,-188"/>
<text text-anchor="middle" x="63.12" y="-174.5" font-family="Helvetica,sans-Serif" font-size="10.00">Cpl/Itc/ServiceMessage.h</text>
</a>
</g>
</g>
<!-- Node5&#45;&gt;Node6 -->
<g id="edge5_Node000005_Node000006" class="edge">
<title>Node5&#45;&gt;Node6</title>
<g id="a_edge5_Node000005_Node000006"><a xlink:title=" ">
<path fill="none" stroke="#63b8ff" d="M218.38,-223.59C187.57,-214.74 141.2,-201.43 107.16,-191.65"/>
<polygon fill="#63b8ff" stroke="#63b8ff" points="108.16,-188.29 97.58,-188.9 106.23,-195.02 108.16,-188.29"/>
</a>
</g>
</g>
<!-- Node5&#45;&gt;Node10 -->
<g id="edge9_Node000005_Node000010" class="edge">
<title>Node5&#45;&gt;Node10</title>
<g id="a_edge9_Node000005_Node000010"><a xlink:title=" ">
<path fill="none" stroke="#63b8ff" d="M267.32,-223.59C281.37,-215.44 301.96,-203.48 318.28,-194"/>
<polygon fill="#63b8ff" stroke="#63b8ff" points="319.6,-197.29 326.49,-189.24 316.08,-191.23 319.6,-197.29"/>
</a>
</g>
</g>
<!-- Node7 -->
<g id="Node000007" class="node">
<title>Node7</title>
<g id="a_Node000007"><a xlink:href="_message_8h.html" target="_top" xlink:title=" ">
<polygon fill="white" stroke="#666666" points="213.5,-76 118.75,-76 118.75,-56 213.5,-56 213.5,-76"/>
<text text-anchor="middle" x="166.12" y="-62.5" font-family="Helvetica,sans-Serif" font-size="10.00">Cpl/Itc/Message.h</text>
</a>
</g>
</g>
<!-- Node6&#45;&gt;Node7 -->
<g id="edge6_Node000006_Node000007" class="edge">
<title>Node6&#45;&gt;Node7</title>
<g id="a_edge6_Node000006_Node000007"><a xlink:title=" ">
<path fill="none" stroke="#63b8ff" d="M63.63,-167.56C64.81,-153.89 68.79,-128.43 82.12,-112 93.39,-98.12 110.11,-87.94 125.68,-80.81"/>
<polygon fill="#63b8ff" stroke="#63b8ff" points="126.95,-84.07 134.79,-76.94 124.22,-77.62 126.95,-84.07"/>
</a>
</g>
</g>
<!-- Node9 -->
<g id="Node000009" class="node">
<title>Node9</title>
<g id="a_Node000009"><a xlink:href="_return_handler_8h.html" target="_top" xlink:title=" ">
<polygon fill="white" stroke="#666666" points="207.38,-132 90.88,-132 90.88,-112 207.38,-112 207.38,-132"/>
<text text-anchor="middle" x="149.12" y="-118.5" font-family="Helvetica,sans-Serif" font-size="10.00">Cpl/Itc/ReturnHandler.h</text>
</a>
</g>
</g>
<!-- Node6&#45;&gt;Node9 -->
<g id="edge8_Node000006_Node000009" class="edge">
<title>Node6&#45;&gt;Node9</title>
<g id="a_edge8_Node000006_Node000009"><a xlink:title=" ">
<path fill="none" stroke="#63b8ff" d="M78.11,-167.59C90.85,-159.59 109.42,-147.93 124.37,-138.54"/>
<polygon fill="#63b8ff" stroke="#63b8ff" points="126.14,-141.57 132.75,-133.28 122.42,-135.64 126.14,-141.57"/>
</a>
</g>
</g>
<!-- Node8 -->
<g id="Node000008" class="node">
<title>Node8</title>
<g id="a_Node000008"><a xlink:href="_item_8h.html" target="_top" xlink:title=" ">
<polygon fill="white" stroke="#666666" points="218.38,-20 113.88,-20 113.88,0 218.38,0 218.38,-20"/>
<text text-anchor="middle" x="166.12" y="-6.5" font-family="Helvetica,sans-Serif" font-size="10.00">Cpl/Container/Item.h</text>
</a>
</g>
</g>
<!-- Node7&#45;&gt;Node8 -->
<g id="edge7_Node000007_Node000008" class="edge">
<title>Node7&#45;&gt;Node8</title>
<g id="a_edge7_Node000007_Node000008"><a xlink:title=" ">
<path fill="none" stroke="#63b8ff" d="M166.12,-55.59C166.12,-49.01 166.12,-39.96 166.12,-31.73"/>
<polygon fill="#63b8ff" stroke="#63b8ff" points="169.63,-31.81 166.13,-21.81 162.63,-31.81 169.63,-31.81"/>
</a>
</g>
</g>
<!-- Node11 -->
<g id="Node000011" class="node">
<title>Node11</title>
<g id="a_Node000011"><a xlink:href="_post_api_8h.html" target="_top" xlink:title=" ">
<polygon fill="white" stroke="#666666" points="314.88,-132 225.38,-132 225.38,-112 314.88,-112 314.88,-132"/>
<text text-anchor="middle" x="270.12" y="-118.5" font-family="Helvetica,sans-Serif" font-size="10.00">Cpl/Itc/PostApi.h</text>
</a>
</g>
</g>
<!-- Node10&#45;&gt;Node11 -->
<g id="edge10_Node000010_Node000011" class="edge">
<title>Node10&#45;&gt;Node11</title>
<g id="a_edge10_Node000010_Node000011"><a xlink:title=" ">
<path fill="none" stroke="#63b8ff" d="M331.24,-167.59C320.41,-159.7 304.71,-148.24 291.94,-138.92"/>
<polygon fill="#63b8ff" stroke="#63b8ff" points="294.23,-136.26 284.09,-133.19 290.1,-141.91 294.23,-136.26"/>
</a>
</g>
</g>
<!-- Node11&#45;&gt;Node7 -->
<g id="edge11_Node000011_Node000007" class="edge">
<title>Node11&#45;&gt;Node7</title>
<g id="a_edge11_Node000011_Node000007"><a xlink:title=" ">
<path fill="none" stroke="#63b8ff" d="M252.01,-111.59C236.15,-103.36 212.84,-91.26 194.51,-81.74"/>
<polygon fill="#63b8ff" stroke="#63b8ff" points="196.21,-78.68 185.73,-77.18 192.99,-84.89 196.21,-78.68"/>
</a>
</g>
</g>
<!-- Node12&#45;&gt;Node5 -->
<g id="edge16_Node000012_Node000005" class="edge">
<title>Node12&#45;&gt;Node5</title>
<g id="a_edge16_Node000012_Node000005"><a xlink:title=" ">
<path fill="none" stroke="#63b8ff" d="M247.82,-279.59C248.31,-273.01 248.98,-263.96 249.59,-255.73"/>
<polygon fill="#63b8ff" stroke="#63b8ff" points="253.08,-256.04 250.32,-245.81 246.1,-255.52 253.08,-256.04"/>
</a>
</g>
</g>
<!-- Node13 -->
<g id="Node000013" class="node">
<title>Node13</title>
<g id="a_Node000013"><a xlink:href="_async_return_handler_8h.html" target="_top" xlink:title=" ">
<polygon fill="white" stroke="#666666" points="288.25,-188 144,-188 144,-168 288.25,-168 288.25,-188"/>
<text text-anchor="middle" x="216.12" y="-174.5" font-family="Helvetica,sans-Serif" font-size="10.00">Cpl/Itc/AsyncReturnHandler.h</text>
</a>
</g>
</g>
<!-- Node12&#45;&gt;Node13 -->
<g id="edge13_Node000012_Node000013" class="edge">
<title>Node12&#45;&gt;Node13</title>
<g id="a_edge13_Node000012_Node000013"><a xlink:title=" ">
<path fill="none" stroke="#63b8ff" d="M220.9,-279.66C205.15,-272.52 186.4,-260.99 177.12,-244 167.99,-227.26 181.69,-208.64 195.31,-195.64"/>
<polygon fill="#63b8ff" stroke="#63b8ff" points="197.26,-198.58 202.43,-189.34 192.62,-193.34 197.26,-198.58"/>
</a>
</g>
</g>
<!-- Node13&#45;&gt;Node9 -->
<g id="edge14_Node000013_Node000009" class="edge">
<title>Node13&#45;&gt;Node9</title>
<g id="a_edge14_Node000013_Node000009"><a xlink:title=" ">
<path fill="none" stroke="#63b8ff" d="M204.45,-167.59C194.85,-159.85 181,-148.69 169.56,-139.47"/>
<polygon fill="#63b8ff" stroke="#63b8ff" points="171.82,-136.8 161.84,-133.25 167.43,-142.25 171.82,-136.8"/>
</a>
</g>
</g>
<!-- Node13&#45;&gt;Node11 -->
<g id="edge15_Node000013_Node000011" class="edge">
<title>Node13&#45;&gt;Node11</title>
<g id="a_edge15_Node000013_Node000011"><a xlink:title=" ">
<path fill="none" stroke="#63b8ff" d="M225.53,-167.59C233.04,-160.08 243.77,-149.35 252.82,-140.3"/>
<polygon fill="#63b8ff" stroke="#63b8ff" points="255.16,-142.91 259.76,-133.37 250.21,-137.96 255.16,-142.91"/>
</a>
</g>
</g>
<!-- Node14&#45;&gt;Node5 -->
<g id="edge19_Node000014_Node000005" class="edge">
<title>Node14&#45;&gt;Node5</title>
<g id="a_edge19_Node000014_Node000005"><a xlink:title=" ">
<path fill="none" stroke="#63b8ff" d="M161.44,-335.73C159.52,-322.26 157.94,-297.06 169.12,-280 178.39,-265.88 193.66,-255.8 208.52,-248.82"/>
<polygon fill="#63b8ff" stroke="#63b8ff" points="209.47,-252.22 217.28,-245.06 206.71,-245.79 209.47,-252.22"/>
</a>
</g>
</g>
<!-- Node14&#45;&gt;Node10 -->
<g id="edge21_Node000014_Node000010" class="edge">
<title>Node14&#45;&gt;Node10</title>
<g id="a_edge21_Node000014_Node000010"><a xlink:title=" ">
<path fill="none" stroke="#63b8ff" d="M221.41,-335.63C261.98,-327.88 311.19,-315.64 325.12,-300 349.8,-272.3 349.67,-226.16 347.08,-199.58"/>
<polygon fill="#63b8ff" stroke="#63b8ff" points="350.57,-199.28 345.89,-189.77 343.62,-200.12 350.57,-199.28"/>
</a>
</g>
</g>
<!-- Node14&#45;&gt;Node12 -->
<g id="edge20_Node000014_Node000012" class="edge">
<title>Node14&#45;&gt;Node12</title>
<g id="a_edge20_Node000014_Node000012"><a xlink:title=" ">
<path fill="none" stroke="#63b8ff" d="M177.76,-335.59C190.21,-327.59 208.34,-315.93 222.95,-306.54"/>
<polygon fill="#63b8ff" stroke="#63b8ff" points="224.59,-309.65 231.11,-301.3 220.8,-303.76 224.59,-309.65"/>
</a>
</g>
</g>
</g>
</svg>
