<?xml version="1.0" encoding="UTF-8" standalone="no"?>
<!DOCTYPE svg PUBLIC "-//W3C//DTD SVG 1.1//EN"
 "http://www.w3.org/Graphics/SVG/1.1/DTD/svg11.dtd">
<!-- Generated by graphviz version 2.38.0 (20140413.2041)
 -->
<!-- Title: Cpl/TShell/Cmd/Command.h Pages: 1 -->
<svg width="545pt" height="476pt"
 viewBox="0.00 0.00 544.50 476.00" xmlns="http://www.w3.org/2000/svg" xmlns:xlink="http://www.w3.org/1999/xlink">
<g id="graph0" class="graph" transform="scale(1 1) rotate(0) translate(4 472)">
<title>Cpl/TShell/Cmd/Command.h</title>
<polygon fill="white" stroke="none" points="-4,4 -4,-472 540.5,-472 540.5,4 -4,4"/>
<!-- Node1 -->
<g id="node1" class="node"><title>Node1</title>
<g id="a_node1"><a xlink:title=" ">
<polygon fill="#bfbfbf" stroke="black" points="275,-448.5 275,-467.5 415,-467.5 415,-448.5 275,-448.5"/>
<text text-anchor="middle" x="345" y="-455.5" font-family="Helvetica,sans-Serif" font-size="10.00">Cpl/TShell/Cmd/Command.h</text>
</a>
</g>
</g>
<!-- Node2 -->
<g id="node2" class="node"><title>Node2</title>
<g id="a_node2"><a xlink:title=" ">
<polygon fill="white" stroke="#bfbfbf" points="451.5,-0.5 451.5,-19.5 536.5,-19.5 536.5,-0.5 451.5,-0.5"/>
<text text-anchor="middle" x="494" y="-7.5" font-family="Helvetica,sans-Serif" font-size="10.00">colony_config.h</text>
</a>
</g>
</g>
<!-- Node1&#45;&gt;Node2 -->
<g id="edge1" class="edge"><title>Node1&#45;&gt;Node2</title>
<path fill="none" stroke="midnightblue" d="M400.347,-448.47C455.489,-436.458 532,-408.677 532,-347 532,-347 532,-347 532,-121 532,-86.8131 515.4,-49.7639 504.143,-28.5707"/>
<polygon fill="midnightblue" stroke="midnightblue" points="507.181,-26.832 499.284,-19.769 501.053,-30.2151 507.181,-26.832"/>
</g>
<!-- Node3 -->
<g id="node3" class="node"><title>Node3</title>
<g id="a_node3"><a xlink:href="_command_8h.html" target="_top" xlink:title=" ">
<polygon fill="white" stroke="black" points="241.5,-336.5 241.5,-355.5 358.5,-355.5 358.5,-336.5 241.5,-336.5"/>
<text text-anchor="middle" x="300" y="-343.5" font-family="Helvetica,sans-Serif" font-size="10.00">Cpl/TShell/Command.h</text>
</a>
</g>
</g>
<!-- Node1&#45;&gt;Node3 -->
<g id="edge2" class="edge"><title>Node1&#45;&gt;Node3</title>
<path fill="none" stroke="midnightblue" d="M323.192,-448.447C308.055,-441.221 289.045,-429.264 280,-412 272.063,-396.852 279.51,-378.037 287.473,-364.554"/>
<polygon fill="midnightblue" stroke="midnightblue" points="290.642,-366.101 293.151,-355.807 284.77,-362.29 290.642,-366.101"/>
</g>
<!-- Node14 -->
<g id="node14" class="node"><title>Node14</title>
<g id="a_node14"><a xlink:href="_text_2_string_8h.html" target="_top" xlink:title=" ">
<polygon fill="white" stroke="black" points="0,-224.5 0,-243.5 90,-243.5 90,-224.5 0,-224.5"/>
<text text-anchor="middle" x="45" y="-231.5" font-family="Helvetica,sans-Serif" font-size="10.00">Cpl/Text/String.h</text>
</a>
</g>
</g>
<!-- Node1&#45;&gt;Node14 -->
<g id="edge36" class="edge"><title>Node1&#45;&gt;Node14</title>
<path fill="none" stroke="midnightblue" d="M281.536,-448.463C222.323,-437.236 135.453,-411.902 83,-356 56.0957,-327.326 48.2357,-279.779 45.9423,-253.641"/>
<polygon fill="midnightblue" stroke="midnightblue" points="49.4278,-253.309 45.2462,-243.574 42.4444,-253.792 49.4278,-253.309"/>
</g>
<!-- Node19 -->
<g id="node19" class="node"><title>Node19</title>
<g id="a_node19"><a xlink:href="_context___8h.html" target="_top" xlink:title=" ">
<polygon fill="white" stroke="black" points="289,-392.5 289,-411.5 401,-411.5 401,-392.5 289,-392.5"/>
<text text-anchor="middle" x="345" y="-399.5" font-family="Helvetica,sans-Serif" font-size="10.00">Cpl/TShell/Context_.h</text>
</a>
</g>
</g>
<!-- Node1&#45;&gt;Node19 -->
<g id="edge23" class="edge"><title>Node1&#45;&gt;Node19</title>
<path fill="none" stroke="midnightblue" d="M345,-448.083C345,-441.006 345,-430.861 345,-421.986"/>
<polygon fill="midnightblue" stroke="midnightblue" points="348.5,-421.751 345,-411.751 341.5,-421.751 348.5,-421.751"/>
</g>
<!-- Node22 -->
<g id="node22" class="node"><title>Node22</title>
<g id="a_node22"><a xlink:href="_map_8h.html" target="_top" xlink:title=" ">
<polygon fill="white" stroke="black" points="376.5,-336.5 376.5,-355.5 481.5,-355.5 481.5,-336.5 376.5,-336.5"/>
<text text-anchor="middle" x="429" y="-343.5" font-family="Helvetica,sans-Serif" font-size="10.00">Cpl/Container/Map.h</text>
</a>
</g>
</g>
<!-- Node1&#45;&gt;Node22 -->
<g id="edge35" class="edge"><title>Node1&#45;&gt;Node22</title>
<path fill="none" stroke="midnightblue" d="M363.898,-448.373C378.518,-440.773 398.198,-428.364 410,-412 419.779,-398.441 424.556,-379.892 426.871,-366.079"/>
<polygon fill="midnightblue" stroke="midnightblue" points="430.389,-366.189 428.293,-355.803 423.455,-365.229 430.389,-366.189"/>
</g>
<!-- Node4 -->
<g id="node4" class="node"><title>Node4</title>
<g id="a_node4"><a xlink:href="_map_item_8h.html" target="_top" xlink:title=" ">
<polygon fill="white" stroke="black" points="340.5,-224.5 340.5,-243.5 465.5,-243.5 465.5,-224.5 340.5,-224.5"/>
<text text-anchor="middle" x="403" y="-231.5" font-family="Helvetica,sans-Serif" font-size="10.00">Cpl/Container/MapItem.h</text>
</a>
</g>
</g>
<!-- Node3&#45;&gt;Node4 -->
<g id="edge3" class="edge"><title>Node3&#45;&gt;Node4</title>
<path fill="none" stroke="midnightblue" d="M307.177,-336.402C317.791,-323.782 338.424,-299.617 357,-280 366.41,-270.063 377.347,-259.332 386.196,-250.842"/>
<polygon fill="midnightblue" stroke="midnightblue" points="388.802,-253.193 393.63,-243.763 383.975,-248.124 388.802,-253.193"/>
</g>
<!-- Node13 -->
<g id="node13" class="node"><title>Node13</title>
<g id="a_node13"><a xlink:href="_output_8h.html" target="_top" xlink:title=" ">
<polygon fill="white" stroke="black" points="202.5,-280.5 202.5,-299.5 285.5,-299.5 285.5,-280.5 202.5,-280.5"/>
<text text-anchor="middle" x="244" y="-287.5" font-family="Helvetica,sans-Serif" font-size="10.00">Cpl/Io/Output.h</text>
</a>
</g>
</g>
<!-- Node3&#45;&gt;Node13 -->
<g id="edge13" class="edge"><title>Node3&#45;&gt;Node13</title>
<path fill="none" stroke="midnightblue" d="M291.003,-336.324C282.806,-328.42 270.494,-316.548 260.528,-306.938"/>
<polygon fill="midnightblue" stroke="midnightblue" points="262.789,-304.256 253.161,-299.834 257.93,-309.295 262.789,-304.256"/>
</g>
<!-- Node5 -->
<g id="node5" class="node"><title>Node5</title>
<g id="a_node5"><a xlink:href="_dict_item_8h.html" target="_top" xlink:title=" ">
<polygon fill="white" stroke="black" points="260.5,-168.5 260.5,-187.5 383.5,-187.5 383.5,-168.5 260.5,-168.5"/>
<text text-anchor="middle" x="322" y="-175.5" font-family="Helvetica,sans-Serif" font-size="10.00">Cpl/Container/DictItem.h</text>
</a>
</g>
</g>
<!-- Node4&#45;&gt;Node5 -->
<g id="edge4" class="edge"><title>Node4&#45;&gt;Node5</title>
<path fill="none" stroke="midnightblue" d="M389.986,-224.324C377.468,-215.979 358.318,-203.212 343.529,-193.352"/>
<polygon fill="midnightblue" stroke="midnightblue" points="345.244,-190.289 334.982,-187.655 341.361,-196.114 345.244,-190.289"/>
</g>
<!-- Node6 -->
<g id="node6" class="node"><title>Node6</title>
<g id="a_node6"><a xlink:href="_item_8h.html" target="_top" xlink:title=" ">
<polygon fill="white" stroke="black" points="253,-112.5 253,-131.5 359,-131.5 359,-112.5 253,-112.5"/>
<text text-anchor="middle" x="306" y="-119.5" font-family="Helvetica,sans-Serif" font-size="10.00">Cpl/Container/Item.h</text>
</a>
</g>
</g>
<!-- Node5&#45;&gt;Node6 -->
<g id="edge5" class="edge"><title>Node5&#45;&gt;Node6</title>
<path fill="none" stroke="midnightblue" d="M319.358,-168.083C317.214,-160.849 314.121,-150.409 311.451,-141.397"/>
<polygon fill="midnightblue" stroke="midnightblue" points="314.79,-140.345 308.593,-131.751 308.078,-142.333 314.79,-140.345"/>
</g>
<!-- Node7 -->
<g id="node7" class="node"><title>Node7</title>
<g id="a_node7"><a xlink:href="_key_8h.html" target="_top" xlink:title=" ">
<polygon fill="white" stroke="black" points="127,-112.5 127,-131.5 231,-131.5 231,-112.5 127,-112.5"/>
<text text-anchor="middle" x="179" y="-119.5" font-family="Helvetica,sans-Serif" font-size="10.00">Cpl/Container/Key.h</text>
</a>
</g>
</g>
<!-- Node5&#45;&gt;Node7 -->
<g id="edge6" class="edge"><title>Node5&#45;&gt;Node7</title>
<path fill="none" stroke="midnightblue" d="M299.341,-168.444C275.598,-159.478 238.091,-145.314 211.262,-135.183"/>
<polygon fill="midnightblue" stroke="midnightblue" points="212.144,-131.775 201.553,-131.516 209.671,-138.324 212.144,-131.775"/>
</g>
<!-- Node8 -->
<g id="node8" class="node"><title>Node8</title>
<g id="a_node8"><a xlink:href="_fatal_error_8h.html" target="_top" xlink:title=" ">
<polygon fill="white" stroke="black" points="313,-56.5 313,-75.5 435,-75.5 435,-56.5 313,-56.5"/>
<text text-anchor="middle" x="374" y="-63.5" font-family="Helvetica,sans-Serif" font-size="10.00">Cpl/System/FatalError.h</text>
</a>
</g>
</g>
<!-- Node7&#45;&gt;Node8 -->
<g id="edge7" class="edge"><title>Node7&#45;&gt;Node8</title>
<path fill="none" stroke="midnightblue" d="M209.898,-112.444C243.274,-103.201 296.594,-88.4356 333.349,-78.2572"/>
<polygon fill="midnightblue" stroke="midnightblue" points="334.543,-81.5583 343.246,-75.5164 332.675,-74.8122 334.543,-81.5583"/>
</g>
<!-- Node10 -->
<g id="node10" class="node"><title>Node10</title>
<g id="a_node10"><a xlink:title=" ">
<polygon fill="white" stroke="#bfbfbf" points="146.5,-56.5 146.5,-75.5 195.5,-75.5 195.5,-56.5 146.5,-56.5"/>
<text text-anchor="middle" x="171" y="-63.5" font-family="Helvetica,sans-Serif" font-size="10.00">stdint.h</text>
</a>
</g>
</g>
<!-- Node7&#45;&gt;Node10 -->
<g id="edge10" class="edge"><title>Node7&#45;&gt;Node10</title>
<path fill="none" stroke="midnightblue" d="M177.679,-112.083C176.619,-104.927 175.094,-94.6353 173.769,-85.6911"/>
<polygon fill="midnightblue" stroke="midnightblue" points="177.224,-85.1302 172.296,-75.7511 170.3,-86.1561 177.224,-85.1302"/>
</g>
<!-- Node11 -->
<g id="node11" class="node"><title>Node11</title>
<g id="a_node11"><a xlink:title=" ">
<polygon fill="white" stroke="#bfbfbf" points="213.5,-56.5 213.5,-75.5 262.5,-75.5 262.5,-56.5 213.5,-56.5"/>
<text text-anchor="middle" x="238" y="-63.5" font-family="Helvetica,sans-Serif" font-size="10.00">string.h</text>
</a>
</g>
</g>
<!-- Node7&#45;&gt;Node11 -->
<g id="edge11" class="edge"><title>Node7&#45;&gt;Node11</title>
<path fill="none" stroke="midnightblue" d="M188.479,-112.324C197.201,-104.341 210.343,-92.3128 220.898,-82.6529"/>
<polygon fill="midnightblue" stroke="midnightblue" points="223.334,-85.1674 228.348,-75.8339 218.608,-80.0036 223.334,-85.1674"/>
</g>
<!-- Node12 -->
<g id="node12" class="node"><title>Node12</title>
<g id="a_node12"><a xlink:title=" ">
<polygon fill="white" stroke="#bfbfbf" points="49.5,-56.5 49.5,-75.5 126.5,-75.5 126.5,-56.5 49.5,-56.5"/>
<text text-anchor="middle" x="88" y="-63.5" font-family="Helvetica,sans-Serif" font-size="10.00">colony_map.h</text>
</a>
</g>
</g>
<!-- Node7&#45;&gt;Node12 -->
<g id="edge12" class="edge"><title>Node7&#45;&gt;Node12</title>
<path fill="none" stroke="midnightblue" d="M164.379,-112.324C150.051,-103.822 127.987,-90.7288 111.251,-80.7975"/>
<polygon fill="midnightblue" stroke="midnightblue" points="112.97,-77.7478 102.584,-75.6545 109.398,-83.7677 112.97,-77.7478"/>
</g>
<!-- Node8&#45;&gt;Node2 -->
<g id="edge9" class="edge"><title>Node8&#45;&gt;Node2</title>
<path fill="none" stroke="midnightblue" d="M393.014,-56.4435C412.588,-47.6356 443.308,-33.8116 465.729,-23.722"/>
<polygon fill="midnightblue" stroke="midnightblue" points="467.392,-26.8119 475.075,-19.5164 464.519,-20.4284 467.392,-26.8119"/>
</g>
<!-- Node9 -->
<g id="node9" class="node"><title>Node9</title>
<g id="a_node9"><a xlink:title=" ">
<polygon fill="white" stroke="#bfbfbf" points="348,-0.5 348,-19.5 400,-19.5 400,-0.5 348,-0.5"/>
<text text-anchor="middle" x="374" y="-7.5" font-family="Helvetica,sans-Serif" font-size="10.00">stddef.h</text>
</a>
</g>
</g>
<!-- Node8&#45;&gt;Node9 -->
<g id="edge8" class="edge"><title>Node8&#45;&gt;Node9</title>
<path fill="none" stroke="midnightblue" d="M374,-56.083C374,-49.0059 374,-38.8611 374,-29.9865"/>
<polygon fill="midnightblue" stroke="midnightblue" points="377.5,-29.751 374,-19.7511 370.5,-29.7511 377.5,-29.751"/>
</g>
<!-- Node13&#45;&gt;Node14 -->
<g id="edge14" class="edge"><title>Node13&#45;&gt;Node14</title>
<path fill="none" stroke="midnightblue" d="M212.468,-280.444C178.408,-271.201 123.994,-256.436 86.4849,-246.257"/>
<polygon fill="midnightblue" stroke="midnightblue" points="86.9522,-242.758 76.3846,-243.516 85.119,-249.513 86.9522,-242.758"/>
</g>
<!-- Node15 -->
<g id="node15" class="node"><title>Node15</title>
<g id="a_node15"><a xlink:title=" ">
<polygon fill="white" stroke="#bfbfbf" points="190,-168.5 190,-187.5 242,-187.5 242,-168.5 190,-168.5"/>
<text text-anchor="middle" x="216" y="-175.5" font-family="Helvetica,sans-Serif" font-size="10.00">stdarg.h</text>
</a>
</g>
</g>
<!-- Node13&#45;&gt;Node15 -->
<g id="edge22" class="edge"><title>Node13&#45;&gt;Node15</title>
<path fill="none" stroke="midnightblue" d="M258.405,-280.413C276.643,-268.386 304.297,-245.571 292,-224 283.196,-208.555 266.779,-197.87 251.449,-190.802"/>
<polygon fill="midnightblue" stroke="midnightblue" points="252.697,-187.529 242.123,-186.857 249.97,-193.976 252.697,-187.529"/>
</g>
<!-- Node17 -->
<g id="node17" class="node"><title>Node17</title>
<g id="a_node17"><a xlink:href="_close_8h.html" target="_top" xlink:title=" ">
<polygon fill="white" stroke="black" points="108,-224.5 108,-243.5 186,-243.5 186,-224.5 108,-224.5"/>
<text text-anchor="middle" x="147" y="-231.5" font-family="Helvetica,sans-Serif" font-size="10.00">Cpl/Io/Close.h</text>
</a>
</g>
</g>
<!-- Node13&#45;&gt;Node17 -->
<g id="edge19" class="edge"><title>Node13&#45;&gt;Node17</title>
<path fill="none" stroke="midnightblue" d="M228.415,-280.324C213.001,-271.743 189.188,-258.486 171.29,-248.522"/>
<polygon fill="midnightblue" stroke="midnightblue" points="172.986,-245.461 162.546,-243.655 169.581,-251.577 172.986,-245.461"/>
</g>
<!-- Node18 -->
<g id="node18" class="node"><title>Node18</title>
<g id="a_node18"><a xlink:href="_is_eos_8h.html" target="_top" xlink:title=" ">
<polygon fill="white" stroke="black" points="204.5,-224.5 204.5,-243.5 283.5,-243.5 283.5,-224.5 204.5,-224.5"/>
<text text-anchor="middle" x="244" y="-231.5" font-family="Helvetica,sans-Serif" font-size="10.00">Cpl/Io/IsEos.h</text>
</a>
</g>
</g>
<!-- Node13&#45;&gt;Node18 -->
<g id="edge21" class="edge"><title>Node13&#45;&gt;Node18</title>
<path fill="none" stroke="midnightblue" d="M244,-280.083C244,-273.006 244,-262.861 244,-253.986"/>
<polygon fill="midnightblue" stroke="midnightblue" points="247.5,-253.751 244,-243.751 240.5,-253.751 247.5,-253.751"/>
</g>
<!-- Node14&#45;&gt;Node7 -->
<g id="edge16" class="edge"><title>Node14&#45;&gt;Node7</title>
<path fill="none" stroke="midnightblue" d="M55.5509,-224.382C66.6281,-215.33 84.5487,-200.678 100,-188 120.738,-170.985 144.503,-151.423 160.506,-138.241"/>
<polygon fill="midnightblue" stroke="midnightblue" points="163.036,-140.691 168.529,-131.631 158.585,-135.288 163.036,-140.691"/>
</g>
<!-- Node14&#45;&gt;Node12 -->
<g id="edge15" class="edge"><title>Node14&#45;&gt;Node12</title>
<path fill="none" stroke="midnightblue" d="M50.1519,-224.346C55.1903,-215.506 62.712,-201.237 67,-188 78.3499,-152.964 83.9441,-110.12 86.3825,-85.9557"/>
<polygon fill="midnightblue" stroke="midnightblue" points="89.8942,-85.9917 87.3374,-75.71 82.9244,-85.342 89.8942,-85.9917"/>
</g>
<!-- Node14&#45;&gt;Node15 -->
<g id="edge17" class="edge"><title>Node14&#45;&gt;Node15</title>
<path fill="none" stroke="midnightblue" d="M72.0955,-224.444C101.243,-215.239 147.737,-200.557 179.954,-190.383"/>
<polygon fill="midnightblue" stroke="midnightblue" points="181.391,-193.6 189.872,-187.251 179.283,-186.925 181.391,-193.6"/>
</g>
<!-- Node16 -->
<g id="node16" class="node"><title>Node16</title>
<g id="a_node16"><a xlink:title=" ">
<polygon fill="white" stroke="#bfbfbf" points="4,-168.5 4,-187.5 58,-187.5 58,-168.5 4,-168.5"/>
<text text-anchor="middle" x="31" y="-175.5" font-family="Helvetica,sans-Serif" font-size="10.00">iostream</text>
</a>
</g>
</g>
<!-- Node14&#45;&gt;Node16 -->
<g id="edge18" class="edge"><title>Node14&#45;&gt;Node16</title>
<path fill="none" stroke="midnightblue" d="M42.6882,-224.083C40.833,-216.927 38.1647,-206.635 35.8458,-197.691"/>
<polygon fill="midnightblue" stroke="midnightblue" points="39.1665,-196.553 33.2688,-187.751 32.3905,-198.309 39.1665,-196.553"/>
</g>
<!-- Node17&#45;&gt;Node6 -->
<g id="edge20" class="edge"><title>Node17&#45;&gt;Node6</title>
<path fill="none" stroke="midnightblue" d="M149.365,-224.122C153.502,-210.243 163.34,-183.402 181,-168 199.86,-151.551 225.187,-140.962 248.112,-134.22"/>
<polygon fill="midnightblue" stroke="midnightblue" points="249.052,-137.591 257.763,-131.561 247.193,-130.843 249.052,-137.591"/>
</g>
<!-- Node19&#45;&gt;Node3 -->
<g id="edge30" class="edge"><title>Node19&#45;&gt;Node3</title>
<path fill="none" stroke="midnightblue" d="M337.569,-392.083C331.147,-384.377 321.694,-373.033 313.878,-363.653"/>
<polygon fill="midnightblue" stroke="midnightblue" points="316.383,-361.193 307.293,-355.751 311.006,-365.674 316.383,-361.193"/>
</g>
<!-- Node20 -->
<g id="node20" class="node"><title>Node20</title>
<g id="a_node20"><a xlink:href="_processor_api_8h.html" target="_top" xlink:title=" ">
<polygon fill="white" stroke="black" points="92.5,-336.5 92.5,-355.5 223.5,-355.5 223.5,-336.5 92.5,-336.5"/>
<text text-anchor="middle" x="158" y="-343.5" font-family="Helvetica,sans-Serif" font-size="10.00">Cpl/TShell/ProcessorApi.h</text>
</a>
</g>
</g>
<!-- Node19&#45;&gt;Node20 -->
<g id="edge24" class="edge"><title>Node19&#45;&gt;Node20</title>
<path fill="none" stroke="midnightblue" d="M315.369,-392.444C283.5,-383.241 232.667,-368.562 197.436,-358.388"/>
<polygon fill="midnightblue" stroke="midnightblue" points="198.071,-354.928 187.492,-355.516 196.128,-361.653 198.071,-354.928"/>
</g>
<!-- Node19&#45;&gt;Node22 -->
<g id="edge31" class="edge"><title>Node19&#45;&gt;Node22</title>
<path fill="none" stroke="midnightblue" d="M358.496,-392.324C371.6,-383.9 391.712,-370.971 407.107,-361.074"/>
<polygon fill="midnightblue" stroke="midnightblue" points="409.018,-364.006 415.537,-355.655 405.233,-358.118 409.018,-364.006"/>
</g>
<!-- Node20&#45;&gt;Node13 -->
<g id="edge29" class="edge"><title>Node20&#45;&gt;Node13</title>
<path fill="none" stroke="midnightblue" d="M171.817,-336.324C185.233,-327.9 205.824,-314.971 221.586,-305.074"/>
<polygon fill="midnightblue" stroke="midnightblue" points="223.609,-307.936 230.217,-299.655 219.887,-302.008 223.609,-307.936"/>
</g>
<!-- Node21 -->
<g id="node21" class="node"><title>Node21</title>
<g id="a_node21"><a xlink:href="_input_8h.html" target="_top" xlink:title=" ">
<polygon fill="white" stroke="black" points="109.5,-280.5 109.5,-299.5 184.5,-299.5 184.5,-280.5 109.5,-280.5"/>
<text text-anchor="middle" x="147" y="-287.5" font-family="Helvetica,sans-Serif" font-size="10.00">Cpl/Io/Input.h</text>
</a>
</g>
</g>
<!-- Node20&#45;&gt;Node21 -->
<g id="edge25" class="edge"><title>Node20&#45;&gt;Node21</title>
<path fill="none" stroke="midnightblue" d="M156.184,-336.083C154.726,-328.927 152.629,-318.635 150.807,-309.691"/>
<polygon fill="midnightblue" stroke="midnightblue" points="154.208,-308.851 148.783,-299.751 147.349,-310.248 154.208,-308.851"/>
</g>
<!-- Node21&#45;&gt;Node14 -->
<g id="edge26" class="edge"><title>Node21&#45;&gt;Node14</title>
<path fill="none" stroke="midnightblue" d="M130.612,-280.324C114.329,-271.703 89.1325,-258.364 70.2837,-248.386"/>
<polygon fill="midnightblue" stroke="midnightblue" points="71.8229,-245.24 61.3474,-243.655 68.5477,-251.427 71.8229,-245.24"/>
</g>
<!-- Node21&#45;&gt;Node17 -->
<g id="edge27" class="edge"><title>Node21&#45;&gt;Node17</title>
<path fill="none" stroke="midnightblue" d="M147,-280.083C147,-273.006 147,-262.861 147,-253.986"/>
<polygon fill="midnightblue" stroke="midnightblue" points="150.5,-253.751 147,-243.751 143.5,-253.751 150.5,-253.751"/>
</g>
<!-- Node21&#45;&gt;Node18 -->
<g id="edge28" class="edge"><title>Node21&#45;&gt;Node18</title>
<path fill="none" stroke="midnightblue" d="M162.585,-280.324C177.999,-271.743 201.812,-258.486 219.71,-248.522"/>
<polygon fill="midnightblue" stroke="midnightblue" points="221.419,-251.577 228.454,-243.655 218.014,-245.461 221.419,-251.577"/>
</g>
<!-- Node23 -->
<g id="node23" class="node"><title>Node23</title>
<g id="a_node23"><a xlink:href="_avl_tree___8h.html" target="_top" xlink:title=" ">
<polygon fill="white" stroke="black" points="366.5,-280.5 366.5,-299.5 491.5,-299.5 491.5,-280.5 366.5,-280.5"/>
<text text-anchor="middle" x="429" y="-287.5" font-family="Helvetica,sans-Serif" font-size="10.00">Cpl/Container/AvlTree_.h</text>
</a>
</g>
</g>
<!-- Node22&#45;&gt;Node23 -->
<g id="edge32" class="edge"><title>Node22&#45;&gt;Node23</title>
<path fill="none" stroke="midnightblue" d="M429,-336.083C429,-329.006 429,-318.861 429,-309.986"/>
<polygon fill="midnightblue" stroke="midnightblue" points="432.5,-309.751 429,-299.751 425.5,-309.751 432.5,-309.751"/>
</g>
<!-- Node23&#45;&gt;Node2 -->
<g id="edge33" class="edge"><title>Node23&#45;&gt;Node2</title>
<path fill="none" stroke="midnightblue" d="M440.559,-280.203C450.722,-271.9 465.224,-258.577 474,-244 489.59,-218.106 494,-209.225 494,-179 494,-179 494,-179 494,-121 494,-88.948 494,-51.6426 494,-29.7489"/>
<polygon fill="midnightblue" stroke="midnightblue" points="497.5,-29.5577 494,-19.5578 490.5,-29.5578 497.5,-29.5577"/>
</g>
<!-- Node23&#45;&gt;Node4 -->
<g id="edge34" class="edge"><title>Node23&#45;&gt;Node4</title>
<path fill="none" stroke="midnightblue" d="M424.707,-280.083C421.148,-272.691 415.978,-261.953 411.576,-252.811"/>
<polygon fill="midnightblue" stroke="midnightblue" points="414.705,-251.243 407.213,-243.751 408.398,-254.279 414.705,-251.243"/>
</g>
</g>
</svg>
