<?xml version="1.0" encoding="UTF-8" standalone="no"?>
<!DOCTYPE svg PUBLIC "-//W3C//DTD SVG 1.1//EN"
 "http://www.w3.org/Graphics/SVG/1.1/DTD/svg11.dtd">
<!-- Generated by graphviz version 2.38.0 (20140413.2041)
 -->
<!-- Title: Storm/Thermostat/SimHouse/Cmd.h Pages: 1 -->
<svg width="561pt" height="543pt"
 viewBox="0.00 0.00 560.50 543.00" xmlns="http://www.w3.org/2000/svg" xmlns:xlink="http://www.w3.org/1999/xlink">
<g id="graph0" class="graph" transform="scale(1 1) rotate(0) translate(4 539)">
<title>Storm/Thermostat/SimHouse/Cmd.h</title>
<polygon fill="white" stroke="none" points="-4,4 -4,-539 556.5,-539 556.5,4 -4,4"/>
<!-- Node1 -->
<g id="node1" class="node"><title>Node1</title>
<g id="a_node1"><a xlink:title=" ">
<polygon fill="#bfbfbf" stroke="black" points="409.5,-504.5 409.5,-534.5 552.5,-534.5 552.5,-504.5 409.5,-504.5"/>
<text text-anchor="start" x="417.5" y="-522.5" font-family="Helvetica,sans-Serif" font-size="10.00">Storm/Thermostat/SimHouse</text>
<text text-anchor="middle" x="481" y="-511.5" font-family="Helvetica,sans-Serif" font-size="10.00">/Cmd.h</text>
</a>
</g>
</g>
<!-- Node2 -->
<g id="node2" class="node"><title>Node2</title>
<g id="a_node2"><a xlink:title=" ">
<polygon fill="white" stroke="#bfbfbf" points="446.5,-0.5 446.5,-19.5 531.5,-19.5 531.5,-0.5 446.5,-0.5"/>
<text text-anchor="middle" x="489" y="-7.5" font-family="Helvetica,sans-Serif" font-size="10.00">colony_config.h</text>
</a>
</g>
</g>
<!-- Node1&#45;&gt;Node2 -->
<g id="edge1" class="edge"><title>Node1&#45;&gt;Node2</title>
<path fill="none" stroke="midnightblue" d="M495.426,-504.273C514.575,-483.798 546,-443.957 546,-403 546,-403 546,-403 546,-121 546,-84.3005 520.679,-47.6567 503.79,-27.2973"/>
<polygon fill="midnightblue" stroke="midnightblue" points="506.348,-24.9037 497.167,-19.6161 501.046,-29.475 506.348,-24.9037"/>
</g>
<!-- Node3 -->
<g id="node3" class="node"><title>Node3</title>
<g id="a_node3"><a xlink:href="_cmd_2_command_8h.html" target="_top" xlink:title=" ">
<polygon fill="white" stroke="black" points="304,-448.5 304,-467.5 444,-467.5 444,-448.5 304,-448.5"/>
<text text-anchor="middle" x="374" y="-455.5" font-family="Helvetica,sans-Serif" font-size="10.00">Cpl/TShell/Cmd/Command.h</text>
</a>
</g>
</g>
<!-- Node1&#45;&gt;Node3 -->
<g id="edge2" class="edge"><title>Node1&#45;&gt;Node3</title>
<path fill="none" stroke="midnightblue" d="M455.642,-504.399C438.331,-494.773 415.524,-482.09 398.416,-472.577"/>
<polygon fill="midnightblue" stroke="midnightblue" points="400.01,-469.459 389.569,-467.658 396.608,-475.577 400.01,-469.459"/>
</g>
<!-- Node3&#45;&gt;Node2 -->
<g id="edge3" class="edge"><title>Node3&#45;&gt;Node2</title>
<path fill="none" stroke="midnightblue" d="M401.117,-448.471C440.272,-434.267 508,-401.779 508,-347 508,-347 508,-347 508,-121 508,-88.4885 499.841,-51.3503 494.216,-29.6103"/>
<polygon fill="midnightblue" stroke="midnightblue" points="497.541,-28.498 491.562,-19.7514 490.782,-30.3175 497.541,-28.498"/>
</g>
<!-- Node4 -->
<g id="node4" class="node"><title>Node4</title>
<g id="a_node4"><a xlink:href="_command_8h.html" target="_top" xlink:title=" ">
<polygon fill="white" stroke="black" points="187.5,-336.5 187.5,-355.5 304.5,-355.5 304.5,-336.5 187.5,-336.5"/>
<text text-anchor="middle" x="246" y="-343.5" font-family="Helvetica,sans-Serif" font-size="10.00">Cpl/TShell/Command.h</text>
</a>
</g>
</g>
<!-- Node3&#45;&gt;Node4 -->
<g id="edge4" class="edge"><title>Node3&#45;&gt;Node4</title>
<path fill="none" stroke="midnightblue" d="M332.529,-448.445C310.359,-441.9 284.17,-430.707 267,-412 255.357,-399.315 250.166,-380.112 247.853,-365.863"/>
<polygon fill="midnightblue" stroke="midnightblue" points="251.296,-365.189 246.548,-355.718 244.353,-366.083 251.296,-365.189"/>
</g>
<!-- Node12 -->
<g id="node12" class="node"><title>Node12</title>
<g id="a_node12"><a xlink:href="_string_8h.html" target="_top" xlink:title=" ">
<polygon fill="white" stroke="black" points="130.5,-56.5 130.5,-75.5 179.5,-75.5 179.5,-56.5 130.5,-56.5"/>
<text text-anchor="middle" x="155" y="-63.5" font-family="Helvetica,sans-Serif" font-size="10.00">string.h</text>
</a>
</g>
</g>
<!-- Node3&#45;&gt;Node12 -->
<g id="edge38" class="edge"><title>Node3&#45;&gt;Node12</title>
<path fill="none" stroke="midnightblue" d="M303.638,-449.58C200.401,-436.71 20,-405.806 20,-347 20,-347 20,-347 20,-177 20,-125.05 80.8222,-93.2811 120.817,-78.0064"/>
<polygon fill="midnightblue" stroke="midnightblue" points="122.048,-81.2827 130.239,-74.5624 119.645,-74.7082 122.048,-81.2827"/>
</g>
<!-- Node19 -->
<g id="node19" class="node"><title>Node19</title>
<g id="a_node19"><a xlink:href="_context___8h.html" target="_top" xlink:title=" ">
<polygon fill="white" stroke="black" points="276,-392.5 276,-411.5 388,-411.5 388,-392.5 276,-392.5"/>
<text text-anchor="middle" x="332" y="-399.5" font-family="Helvetica,sans-Serif" font-size="10.00">Cpl/TShell/Context_.h</text>
</a>
</g>
</g>
<!-- Node3&#45;&gt;Node19 -->
<g id="edge25" class="edge"><title>Node3&#45;&gt;Node19</title>
<path fill="none" stroke="midnightblue" d="M367.065,-448.083C361.071,-440.377 352.248,-429.033 344.952,-419.653"/>
<polygon fill="midnightblue" stroke="midnightblue" points="347.709,-417.496 338.806,-411.751 342.183,-421.793 347.709,-417.496"/>
</g>
<!-- Node22 -->
<g id="node22" class="node"><title>Node22</title>
<g id="a_node22"><a xlink:href="_map_8h.html" target="_top" xlink:title=" ">
<polygon fill="white" stroke="black" points="362.5,-336.5 362.5,-355.5 467.5,-355.5 467.5,-336.5 362.5,-336.5"/>
<text text-anchor="middle" x="415" y="-343.5" font-family="Helvetica,sans-Serif" font-size="10.00">Cpl/Container/Map.h</text>
</a>
</g>
</g>
<!-- Node3&#45;&gt;Node22 -->
<g id="edge37" class="edge"><title>Node3&#45;&gt;Node22</title>
<path fill="none" stroke="midnightblue" d="M379.128,-448.28C384.195,-439.389 391.906,-425.081 397,-412 402.975,-396.656 407.817,-378.556 410.968,-365.357"/>
<polygon fill="midnightblue" stroke="midnightblue" points="414.384,-366.121 413.205,-355.592 407.56,-364.558 414.384,-366.121"/>
</g>
<!-- Node5 -->
<g id="node5" class="node"><title>Node5</title>
<g id="a_node5"><a xlink:href="_map_item_8h.html" target="_top" xlink:title=" ">
<polygon fill="white" stroke="black" points="316.5,-224.5 316.5,-243.5 441.5,-243.5 441.5,-224.5 316.5,-224.5"/>
<text text-anchor="middle" x="379" y="-231.5" font-family="Helvetica,sans-Serif" font-size="10.00">Cpl/Container/MapItem.h</text>
</a>
</g>
</g>
<!-- Node4&#45;&gt;Node5 -->
<g id="edge5" class="edge"><title>Node4&#45;&gt;Node5</title>
<path fill="none" stroke="midnightblue" d="M256.436,-336.368C278.968,-317.733 332.411,-273.532 360.702,-250.134"/>
<polygon fill="midnightblue" stroke="midnightblue" points="363.137,-252.662 368.612,-243.591 358.676,-247.268 363.137,-252.662"/>
</g>
<!-- Node16 -->
<g id="node16" class="node"><title>Node16</title>
<g id="a_node16"><a xlink:href="_output_8h.html" target="_top" xlink:title=" ">
<polygon fill="white" stroke="black" points="84.5,-224.5 84.5,-243.5 167.5,-243.5 167.5,-224.5 84.5,-224.5"/>
<text text-anchor="middle" x="126" y="-231.5" font-family="Helvetica,sans-Serif" font-size="10.00">Cpl/Io/Output.h</text>
</a>
</g>
</g>
<!-- Node4&#45;&gt;Node16 -->
<g id="edge19" class="edge"><title>Node4&#45;&gt;Node16</title>
<path fill="none" stroke="midnightblue" d="M210.939,-336.477C190.08,-329.75 164.542,-318.36 148,-300 136.422,-287.149 130.901,-267.968 128.29,-253.77"/>
<polygon fill="midnightblue" stroke="midnightblue" points="131.718,-253.031 126.76,-243.668 124.797,-254.079 131.718,-253.031"/>
</g>
<!-- Node6 -->
<g id="node6" class="node"><title>Node6</title>
<g id="a_node6"><a xlink:href="_dict_item_8h.html" target="_top" xlink:title=" ">
<polygon fill="white" stroke="black" points="318.5,-168.5 318.5,-187.5 441.5,-187.5 441.5,-168.5 318.5,-168.5"/>
<text text-anchor="middle" x="380" y="-175.5" font-family="Helvetica,sans-Serif" font-size="10.00">Cpl/Container/DictItem.h</text>
</a>
</g>
</g>
<!-- Node5&#45;&gt;Node6 -->
<g id="edge6" class="edge"><title>Node5&#45;&gt;Node6</title>
<path fill="none" stroke="midnightblue" d="M379.165,-224.083C379.296,-217.006 379.484,-206.861 379.648,-197.986"/>
<polygon fill="midnightblue" stroke="midnightblue" points="383.152,-197.814 379.838,-187.751 376.153,-197.685 383.152,-197.814"/>
</g>
<!-- Node7 -->
<g id="node7" class="node"><title>Node7</title>
<g id="a_node7"><a xlink:href="_item_8h.html" target="_top" xlink:title=" ">
<polygon fill="white" stroke="black" points="205,-112.5 205,-131.5 311,-131.5 311,-112.5 205,-112.5"/>
<text text-anchor="middle" x="258" y="-119.5" font-family="Helvetica,sans-Serif" font-size="10.00">Cpl/Container/Item.h</text>
</a>
</g>
</g>
<!-- Node6&#45;&gt;Node7 -->
<g id="edge7" class="edge"><title>Node6&#45;&gt;Node7</title>
<path fill="none" stroke="midnightblue" d="M360.669,-168.444C340.68,-159.596 309.257,-145.687 286.436,-135.586"/>
<polygon fill="midnightblue" stroke="midnightblue" points="287.802,-132.363 277.241,-131.516 284.968,-138.764 287.802,-132.363"/>
</g>
<!-- Node8 -->
<g id="node8" class="node"><title>Node8</title>
<g id="a_node8"><a xlink:href="_key_8h.html" target="_top" xlink:title=" ">
<polygon fill="white" stroke="black" points="329,-112.5 329,-131.5 433,-131.5 433,-112.5 329,-112.5"/>
<text text-anchor="middle" x="381" y="-119.5" font-family="Helvetica,sans-Serif" font-size="10.00">Cpl/Container/Key.h</text>
</a>
</g>
</g>
<!-- Node6&#45;&gt;Node8 -->
<g id="edge8" class="edge"><title>Node6&#45;&gt;Node8</title>
<path fill="none" stroke="midnightblue" d="M380.165,-168.083C380.296,-161.006 380.484,-150.861 380.648,-141.986"/>
<polygon fill="midnightblue" stroke="midnightblue" points="384.152,-141.814 380.838,-131.751 377.153,-141.685 384.152,-141.814"/>
</g>
<!-- Node9 -->
<g id="node9" class="node"><title>Node9</title>
<g id="a_node9"><a xlink:href="_fatal_error_8h.html" target="_top" xlink:title=" ">
<polygon fill="white" stroke="black" points="320,-56.5 320,-75.5 442,-75.5 442,-56.5 320,-56.5"/>
<text text-anchor="middle" x="381" y="-63.5" font-family="Helvetica,sans-Serif" font-size="10.00">Cpl/System/FatalError.h</text>
</a>
</g>
</g>
<!-- Node8&#45;&gt;Node9 -->
<g id="edge9" class="edge"><title>Node8&#45;&gt;Node9</title>
<path fill="none" stroke="midnightblue" d="M381,-112.083C381,-105.006 381,-94.8611 381,-85.9865"/>
<polygon fill="midnightblue" stroke="midnightblue" points="384.5,-85.751 381,-75.7511 377.5,-85.7511 384.5,-85.751"/>
</g>
<!-- Node11 -->
<g id="node11" class="node"><title>Node11</title>
<g id="a_node11"><a xlink:title=" ">
<polygon fill="white" stroke="#bfbfbf" points="252.5,-56.5 252.5,-75.5 301.5,-75.5 301.5,-56.5 252.5,-56.5"/>
<text text-anchor="middle" x="277" y="-63.5" font-family="Helvetica,sans-Serif" font-size="10.00">stdint.h</text>
</a>
</g>
</g>
<!-- Node8&#45;&gt;Node11 -->
<g id="edge12" class="edge"><title>Node8&#45;&gt;Node11</title>
<path fill="none" stroke="midnightblue" d="M364.291,-112.324C347.688,-103.703 321.998,-90.3643 302.78,-80.3855"/>
<polygon fill="midnightblue" stroke="midnightblue" points="304.156,-77.1565 293.668,-75.6545 300.93,-83.3689 304.156,-77.1565"/>
</g>
<!-- Node8&#45;&gt;Node12 -->
<g id="edge13" class="edge"><title>Node8&#45;&gt;Node12</title>
<path fill="none" stroke="midnightblue" d="M340.101,-112.444C296.992,-102.656 230.041,-86.6748 189.499,-76.5064"/>
<polygon fill="midnightblue" stroke="midnightblue" points="190.344,-73.1099 179.791,-74.0537 188.629,-79.8967 190.344,-73.1099"/>
</g>
<!-- Node13 -->
<g id="node13" class="node"><title>Node13</title>
<g id="a_node13"><a xlink:title=" ">
<polygon fill="white" stroke="#bfbfbf" points="185.5,-0.5 185.5,-19.5 262.5,-19.5 262.5,-0.5 185.5,-0.5"/>
<text text-anchor="middle" x="224" y="-7.5" font-family="Helvetica,sans-Serif" font-size="10.00">colony_map.h</text>
</a>
</g>
</g>
<!-- Node8&#45;&gt;Node13 -->
<g id="edge18" class="edge"><title>Node8&#45;&gt;Node13</title>
<path fill="none" stroke="midnightblue" d="M341.567,-112.468C305.866,-103.997 256.815,-90.2471 243,-76 231.117,-63.7453 226.602,-44.4839 224.919,-30.1049"/>
<polygon fill="midnightblue" stroke="midnightblue" points="228.384,-29.5327 224.09,-19.8472 221.407,-30.0966 228.384,-29.5327"/>
</g>
<!-- Node9&#45;&gt;Node2 -->
<g id="edge11" class="edge"><title>Node9&#45;&gt;Node2</title>
<path fill="none" stroke="midnightblue" d="M398.352,-56.324C415.672,-47.6641 442.515,-34.2424 462.502,-24.249"/>
<polygon fill="midnightblue" stroke="midnightblue" points="464.312,-27.2572 471.691,-19.6545 461.181,-20.9962 464.312,-27.2572"/>
</g>
<!-- Node10 -->
<g id="node10" class="node"><title>Node10</title>
<g id="a_node10"><a xlink:title=" ">
<polygon fill="white" stroke="#bfbfbf" points="355,-0.5 355,-19.5 407,-19.5 407,-0.5 355,-0.5"/>
<text text-anchor="middle" x="381" y="-7.5" font-family="Helvetica,sans-Serif" font-size="10.00">stddef.h</text>
</a>
</g>
</g>
<!-- Node9&#45;&gt;Node10 -->
<g id="edge10" class="edge"><title>Node9&#45;&gt;Node10</title>
<path fill="none" stroke="midnightblue" d="M381,-56.083C381,-49.0059 381,-38.8611 381,-29.9865"/>
<polygon fill="midnightblue" stroke="midnightblue" points="384.5,-29.751 381,-19.7511 377.5,-29.7511 384.5,-29.751"/>
</g>
<!-- Node12&#45;&gt;Node8 -->
<g id="edge15" class="edge"><title>Node12&#45;&gt;Node8</title>
<path fill="none" stroke="midnightblue" d="M179.536,-71.8876C218.298,-80.4406 293.62,-98.3199 340.455,-109.983"/>
<polygon fill="midnightblue" stroke="midnightblue" points="339.728,-113.409 350.278,-112.444 341.429,-106.618 339.728,-113.409"/>
</g>
<!-- Node12&#45;&gt;Node13 -->
<g id="edge14" class="edge"><title>Node12&#45;&gt;Node13</title>
<path fill="none" stroke="midnightblue" d="M166.086,-56.324C176.486,-48.1849 192.261,-35.8395 204.722,-26.0874"/>
<polygon fill="midnightblue" stroke="midnightblue" points="206.994,-28.7533 212.712,-19.8339 202.68,-23.2407 206.994,-28.7533"/>
</g>
<!-- Node14 -->
<g id="node14" class="node"><title>Node14</title>
<g id="a_node14"><a xlink:title=" ">
<polygon fill="white" stroke="#bfbfbf" points="0,-0.5 0,-19.5 52,-19.5 52,-0.5 0,-0.5"/>
<text text-anchor="middle" x="26" y="-7.5" font-family="Helvetica,sans-Serif" font-size="10.00">stdarg.h</text>
</a>
</g>
</g>
<!-- Node12&#45;&gt;Node14 -->
<g id="edge16" class="edge"><title>Node12&#45;&gt;Node14</title>
<path fill="none" stroke="midnightblue" d="M134.56,-56.4435C113.33,-47.5566 79.901,-33.5632 55.745,-23.4514"/>
<polygon fill="midnightblue" stroke="midnightblue" points="56.9207,-20.1493 46.3448,-19.5164 54.2177,-26.6064 56.9207,-20.1493"/>
</g>
<!-- Node15 -->
<g id="node15" class="node"><title>Node15</title>
<g id="a_node15"><a xlink:title=" ">
<polygon fill="white" stroke="#bfbfbf" points="113,-0.5 113,-19.5 167,-19.5 167,-0.5 113,-0.5"/>
<text text-anchor="middle" x="140" y="-7.5" font-family="Helvetica,sans-Serif" font-size="10.00">iostream</text>
</a>
</g>
</g>
<!-- Node12&#45;&gt;Node15 -->
<g id="edge17" class="edge"><title>Node12&#45;&gt;Node15</title>
<path fill="none" stroke="midnightblue" d="M152.523,-56.083C150.514,-48.8486 147.614,-38.4087 145.11,-29.3968"/>
<polygon fill="midnightblue" stroke="midnightblue" points="148.48,-28.4495 142.431,-19.7511 141.735,-30.323 148.48,-28.4495"/>
</g>
<!-- Node16&#45;&gt;Node12 -->
<g id="edge20" class="edge"><title>Node16&#45;&gt;Node12</title>
<path fill="none" stroke="midnightblue" d="M111.339,-224.402C99.5939,-216.585 83.9688,-203.862 77,-188 73.4245,-179.862 74.1297,-176.413 77,-168 88.8937,-133.14 118.235,-100.962 137.347,-82.6838"/>
<polygon fill="midnightblue" stroke="midnightblue" points="139.884,-85.1036 144.83,-75.734 135.121,-79.9742 139.884,-85.1036"/>
</g>
<!-- Node16&#45;&gt;Node14 -->
<g id="edge24" class="edge"><title>Node16&#45;&gt;Node14</title>
<path fill="none" stroke="midnightblue" d="M110.882,-224.43C98.3436,-216.547 81.0062,-203.714 71,-188 38.7038,-137.281 29.5624,-64.5749 26.9932,-30.2898"/>
<polygon fill="midnightblue" stroke="midnightblue" points="30.458,-29.6222 26.3314,-19.864 23.4721,-30.0657 30.458,-29.6222"/>
</g>
<!-- Node17 -->
<g id="node17" class="node"><title>Node17</title>
<g id="a_node17"><a xlink:href="_close_8h.html" target="_top" xlink:title=" ">
<polygon fill="white" stroke="black" points="222,-168.5 222,-187.5 300,-187.5 300,-168.5 222,-168.5"/>
<text text-anchor="middle" x="261" y="-175.5" font-family="Helvetica,sans-Serif" font-size="10.00">Cpl/Io/Close.h</text>
</a>
</g>
</g>
<!-- Node16&#45;&gt;Node17 -->
<g id="edge21" class="edge"><title>Node16&#45;&gt;Node17</title>
<path fill="none" stroke="midnightblue" d="M147.391,-224.444C169.707,-215.517 204.903,-201.439 230.208,-191.317"/>
<polygon fill="midnightblue" stroke="midnightblue" points="231.724,-194.48 239.709,-187.516 229.124,-187.981 231.724,-194.48"/>
</g>
<!-- Node18 -->
<g id="node18" class="node"><title>Node18</title>
<g id="a_node18"><a xlink:href="_is_eos_8h.html" target="_top" xlink:title=" ">
<polygon fill="white" stroke="black" points="86.5,-168.5 86.5,-187.5 165.5,-187.5 165.5,-168.5 86.5,-168.5"/>
<text text-anchor="middle" x="126" y="-175.5" font-family="Helvetica,sans-Serif" font-size="10.00">Cpl/Io/IsEos.h</text>
</a>
</g>
</g>
<!-- Node16&#45;&gt;Node18 -->
<g id="edge23" class="edge"><title>Node16&#45;&gt;Node18</title>
<path fill="none" stroke="midnightblue" d="M126,-224.083C126,-217.006 126,-206.861 126,-197.986"/>
<polygon fill="midnightblue" stroke="midnightblue" points="129.5,-197.751 126,-187.751 122.5,-197.751 129.5,-197.751"/>
</g>
<!-- Node17&#45;&gt;Node7 -->
<g id="edge22" class="edge"><title>Node17&#45;&gt;Node7</title>
<path fill="none" stroke="midnightblue" d="M260.505,-168.083C260.111,-161.006 259.548,-150.861 259.055,-141.986"/>
<polygon fill="midnightblue" stroke="midnightblue" points="262.536,-141.542 258.486,-131.751 255.546,-141.93 262.536,-141.542"/>
</g>
<!-- Node19&#45;&gt;Node4 -->
<g id="edge32" class="edge"><title>Node19&#45;&gt;Node4</title>
<path fill="none" stroke="midnightblue" d="M318.183,-392.324C304.767,-383.9 284.176,-370.971 268.414,-361.074"/>
<polygon fill="midnightblue" stroke="midnightblue" points="270.113,-358.008 259.783,-355.655 266.391,-363.936 270.113,-358.008"/>
</g>
<!-- Node20 -->
<g id="node20" class="node"><title>Node20</title>
<g id="a_node20"><a xlink:href="_processor_api_8h.html" target="_top" xlink:title=" ">
<polygon fill="white" stroke="black" points="157.5,-280.5 157.5,-299.5 288.5,-299.5 288.5,-280.5 157.5,-280.5"/>
<text text-anchor="middle" x="223" y="-287.5" font-family="Helvetica,sans-Serif" font-size="10.00">Cpl/TShell/ProcessorApi.h</text>
</a>
</g>
</g>
<!-- Node19&#45;&gt;Node20 -->
<g id="edge26" class="edge"><title>Node19&#45;&gt;Node20</title>
<path fill="none" stroke="midnightblue" d="M331.627,-392.408C330.615,-378.919 326.866,-352.605 313,-336 300.246,-320.727 281.023,-310.136 263.614,-303.085"/>
<polygon fill="midnightblue" stroke="midnightblue" points="264.773,-299.781 254.181,-299.524 262.301,-306.33 264.773,-299.781"/>
</g>
<!-- Node19&#45;&gt;Node22 -->
<g id="edge33" class="edge"><title>Node19&#45;&gt;Node22</title>
<path fill="none" stroke="midnightblue" d="M345.335,-392.324C358.162,-383.979 377.785,-371.212 392.94,-361.352"/>
<polygon fill="midnightblue" stroke="midnightblue" points="395.224,-364.042 401.698,-355.655 391.407,-358.174 395.224,-364.042"/>
</g>
<!-- Node20&#45;&gt;Node16 -->
<g id="edge31" class="edge"><title>Node20&#45;&gt;Node16</title>
<path fill="none" stroke="midnightblue" d="M207.415,-280.324C192.001,-271.743 168.188,-258.486 150.29,-248.522"/>
<polygon fill="midnightblue" stroke="midnightblue" points="151.986,-245.461 141.546,-243.655 148.581,-251.577 151.986,-245.461"/>
</g>
<!-- Node21 -->
<g id="node21" class="node"><title>Node21</title>
<g id="a_node21"><a xlink:href="_input_8h.html" target="_top" xlink:title=" ">
<polygon fill="white" stroke="black" points="185.5,-224.5 185.5,-243.5 260.5,-243.5 260.5,-224.5 185.5,-224.5"/>
<text text-anchor="middle" x="223" y="-231.5" font-family="Helvetica,sans-Serif" font-size="10.00">Cpl/Io/Input.h</text>
</a>
</g>
</g>
<!-- Node20&#45;&gt;Node21 -->
<g id="edge27" class="edge"><title>Node20&#45;&gt;Node21</title>
<path fill="none" stroke="midnightblue" d="M223,-280.083C223,-273.006 223,-262.861 223,-253.986"/>
<polygon fill="midnightblue" stroke="midnightblue" points="226.5,-253.751 223,-243.751 219.5,-253.751 226.5,-253.751"/>
</g>
<!-- Node21&#45;&gt;Node12 -->
<g id="edge28" class="edge"><title>Node21&#45;&gt;Node12</title>
<path fill="none" stroke="midnightblue" d="M219.344,-224.075C208.594,-197.832 176.934,-120.545 162.421,-85.1165"/>
<polygon fill="midnightblue" stroke="midnightblue" points="165.539,-83.4951 158.51,-75.5681 159.062,-86.1486 165.539,-83.4951"/>
</g>
<!-- Node21&#45;&gt;Node17 -->
<g id="edge29" class="edge"><title>Node21&#45;&gt;Node17</title>
<path fill="none" stroke="midnightblue" d="M229.275,-224.083C234.642,-216.455 242.518,-205.264 249.079,-195.941"/>
<polygon fill="midnightblue" stroke="midnightblue" points="251.949,-197.943 254.842,-187.751 246.225,-193.915 251.949,-197.943"/>
</g>
<!-- Node21&#45;&gt;Node18 -->
<g id="edge30" class="edge"><title>Node21&#45;&gt;Node18</title>
<path fill="none" stroke="midnightblue" d="M207.415,-224.324C192.001,-215.743 168.188,-202.486 150.29,-192.522"/>
<polygon fill="midnightblue" stroke="midnightblue" points="151.986,-189.461 141.546,-187.655 148.581,-195.577 151.986,-189.461"/>
</g>
<!-- Node23 -->
<g id="node23" class="node"><title>Node23</title>
<g id="a_node23"><a xlink:href="_avl_tree___8h.html" target="_top" xlink:title=" ">
<polygon fill="white" stroke="black" points="352.5,-280.5 352.5,-299.5 477.5,-299.5 477.5,-280.5 352.5,-280.5"/>
<text text-anchor="middle" x="415" y="-287.5" font-family="Helvetica,sans-Serif" font-size="10.00">Cpl/Container/AvlTree_.h</text>
</a>
</g>
</g>
<!-- Node22&#45;&gt;Node23 -->
<g id="edge34" class="edge"><title>Node22&#45;&gt;Node23</title>
<path fill="none" stroke="midnightblue" d="M415,-336.083C415,-329.006 415,-318.861 415,-309.986"/>
<polygon fill="midnightblue" stroke="midnightblue" points="418.5,-309.751 415,-299.751 411.5,-309.751 418.5,-309.751"/>
</g>
<!-- Node23&#45;&gt;Node2 -->
<g id="edge35" class="edge"><title>Node23&#45;&gt;Node2</title>
<path fill="none" stroke="midnightblue" d="M423.287,-280.364C431.141,-271.762 442.782,-257.872 450,-244 463.951,-217.187 470,-209.225 470,-179 470,-179 470,-179 470,-121 470,-88.4885 478.159,-51.3503 483.784,-29.6103"/>
<polygon fill="midnightblue" stroke="midnightblue" points="487.218,-30.3175 486.438,-19.7514 480.459,-28.498 487.218,-30.3175"/>
</g>
<!-- Node23&#45;&gt;Node5 -->
<g id="edge36" class="edge"><title>Node23&#45;&gt;Node5</title>
<path fill="none" stroke="midnightblue" d="M409.055,-280.083C404.023,-272.534 396.663,-261.495 390.487,-252.23"/>
<polygon fill="midnightblue" stroke="midnightblue" points="393.293,-250.13 384.834,-243.751 387.469,-254.013 393.293,-250.13"/>
</g>
</g>
</svg>
