<?xml version="1.0" encoding="UTF-8" standalone="no"?>
<!DOCTYPE svg PUBLIC "-//W3C//DTD SVG 1.1//EN"
 "http://www.w3.org/Graphics/SVG/1.1/DTD/svg11.dtd">
<!-- Generated by graphviz version 2.38.0 (20140413.2041)
 -->
<!-- Title: Cpl/TShell/Command.h Pages: 1 -->
<svg width="544pt" height="308pt"
 viewBox="0.00 0.00 543.50 308.00" xmlns="http://www.w3.org/2000/svg" xmlns:xlink="http://www.w3.org/1999/xlink">
<g id="graph0" class="graph" transform="scale(1 1) rotate(0) translate(4 304)">
<title>Cpl/TShell/Command.h</title>
<polygon fill="white" stroke="none" points="-4,4 -4,-304 539.5,-304 539.5,4 -4,4"/>
<!-- Node1 -->
<g id="node1" class="node"><title>Node1</title>
<g id="a_node1"><a xlink:title=" ">
<polygon fill="#bfbfbf" stroke="black" points="296.5,-280.5 296.5,-299.5 413.5,-299.5 413.5,-280.5 296.5,-280.5"/>
<text text-anchor="middle" x="355" y="-287.5" font-family="Helvetica,sans-Serif" font-size="10.00">Cpl/TShell/Command.h</text>
</a>
</g>
</g>
<!-- Node2 -->
<g id="node2" class="node"><title>Node2</title>
<g id="a_node2"><a xlink:href="_map_item_8h.html" target="_top" xlink:title=" ">
<polygon fill="white" stroke="black" points="121.5,-224.5 121.5,-243.5 246.5,-243.5 246.5,-224.5 121.5,-224.5"/>
<text text-anchor="middle" x="184" y="-231.5" font-family="Helvetica,sans-Serif" font-size="10.00">Cpl/Container/MapItem.h</text>
</a>
</g>
</g>
<!-- Node1&#45;&gt;Node2 -->
<g id="edge1" class="edge"><title>Node1&#45;&gt;Node2</title>
<path fill="none" stroke="midnightblue" d="M327.905,-280.444C299.012,-271.32 253.075,-256.813 220.895,-246.651"/>
<polygon fill="midnightblue" stroke="midnightblue" points="221.559,-243.19 210.969,-243.516 219.451,-249.865 221.559,-243.19"/>
</g>
<!-- Node12 -->
<g id="node12" class="node"><title>Node12</title>
<g id="a_node12"><a xlink:href="_output_8h.html" target="_top" xlink:title=" ">
<polygon fill="white" stroke="black" points="313.5,-224.5 313.5,-243.5 396.5,-243.5 396.5,-224.5 313.5,-224.5"/>
<text text-anchor="middle" x="355" y="-231.5" font-family="Helvetica,sans-Serif" font-size="10.00">Cpl/Io/Output.h</text>
</a>
</g>
</g>
<!-- Node1&#45;&gt;Node12 -->
<g id="edge11" class="edge"><title>Node1&#45;&gt;Node12</title>
<path fill="none" stroke="midnightblue" d="M355,-280.083C355,-273.006 355,-262.861 355,-253.986"/>
<polygon fill="midnightblue" stroke="midnightblue" points="358.5,-253.751 355,-243.751 351.5,-253.751 358.5,-253.751"/>
</g>
<!-- Node18 -->
<g id="node18" class="node"><title>Node18</title>
<g id="a_node18"><a xlink:href="_security_8h.html" target="_top" xlink:title=" ">
<polygon fill="white" stroke="black" points="414.5,-224.5 414.5,-243.5 523.5,-243.5 523.5,-224.5 414.5,-224.5"/>
<text text-anchor="middle" x="469" y="-231.5" font-family="Helvetica,sans-Serif" font-size="10.00">Cpl/TShell/Security.h</text>
</a>
</g>
</g>
<!-- Node1&#45;&gt;Node18 -->
<g id="edge21" class="edge"><title>Node1&#45;&gt;Node18</title>
<path fill="none" stroke="midnightblue" d="M373.064,-280.444C391.575,-271.675 420.581,-257.935 441.855,-247.858"/>
<polygon fill="midnightblue" stroke="midnightblue" points="443.482,-250.96 451.021,-243.516 440.485,-244.634 443.482,-250.96"/>
</g>
<!-- Node3 -->
<g id="node3" class="node"><title>Node3</title>
<g id="a_node3"><a xlink:href="_dict_item_8h.html" target="_top" xlink:title=" ">
<polygon fill="white" stroke="black" points="72.5,-168.5 72.5,-187.5 195.5,-187.5 195.5,-168.5 72.5,-168.5"/>
<text text-anchor="middle" x="134" y="-175.5" font-family="Helvetica,sans-Serif" font-size="10.00">Cpl/Container/DictItem.h</text>
</a>
</g>
</g>
<!-- Node2&#45;&gt;Node3 -->
<g id="edge2" class="edge"><title>Node2&#45;&gt;Node3</title>
<path fill="none" stroke="midnightblue" d="M175.744,-224.083C168.535,-216.298 157.89,-204.801 149.154,-195.367"/>
<polygon fill="midnightblue" stroke="midnightblue" points="151.465,-192.711 142.103,-187.751 146.329,-197.467 151.465,-192.711"/>
</g>
<!-- Node4 -->
<g id="node4" class="node"><title>Node4</title>
<g id="a_node4"><a xlink:href="_item_8h.html" target="_top" xlink:title=" ">
<polygon fill="white" stroke="black" points="64,-112.5 64,-131.5 170,-131.5 170,-112.5 64,-112.5"/>
<text text-anchor="middle" x="117" y="-119.5" font-family="Helvetica,sans-Serif" font-size="10.00">Cpl/Container/Item.h</text>
</a>
</g>
</g>
<!-- Node3&#45;&gt;Node4 -->
<g id="edge3" class="edge"><title>Node3&#45;&gt;Node4</title>
<path fill="none" stroke="midnightblue" d="M131.193,-168.083C128.915,-160.849 125.629,-150.409 122.792,-141.397"/>
<polygon fill="midnightblue" stroke="midnightblue" points="126.096,-140.239 119.755,-131.751 119.419,-142.341 126.096,-140.239"/>
</g>
<!-- Node5 -->
<g id="node5" class="node"><title>Node5</title>
<g id="a_node5"><a xlink:href="_key_8h.html" target="_top" xlink:title=" ">
<polygon fill="white" stroke="black" points="188,-112.5 188,-131.5 292,-131.5 292,-112.5 188,-112.5"/>
<text text-anchor="middle" x="240" y="-119.5" font-family="Helvetica,sans-Serif" font-size="10.00">Cpl/Container/Key.h</text>
</a>
</g>
</g>
<!-- Node3&#45;&gt;Node5 -->
<g id="edge4" class="edge"><title>Node3&#45;&gt;Node5</title>
<path fill="none" stroke="midnightblue" d="M151.031,-168.324C168.03,-159.664 194.376,-146.242 213.993,-136.249"/>
<polygon fill="midnightblue" stroke="midnightblue" points="215.69,-139.312 223.012,-131.655 212.512,-133.075 215.69,-139.312"/>
</g>
<!-- Node6 -->
<g id="node6" class="node"><title>Node6</title>
<g id="a_node6"><a xlink:href="_fatal_error_8h.html" target="_top" xlink:title=" ">
<polygon fill="white" stroke="black" points="8,-56.5 8,-75.5 130,-75.5 130,-56.5 8,-56.5"/>
<text text-anchor="middle" x="69" y="-63.5" font-family="Helvetica,sans-Serif" font-size="10.00">Cpl/System/FatalError.h</text>
</a>
</g>
</g>
<!-- Node5&#45;&gt;Node6 -->
<g id="edge5" class="edge"><title>Node5&#45;&gt;Node6</title>
<path fill="none" stroke="midnightblue" d="M212.905,-112.444C184.012,-103.32 138.075,-88.8133 105.895,-78.6509"/>
<polygon fill="midnightblue" stroke="midnightblue" points="106.559,-75.1903 95.9687,-75.5164 104.451,-81.8654 106.559,-75.1903"/>
</g>
<!-- Node9 -->
<g id="node9" class="node"><title>Node9</title>
<g id="a_node9"><a xlink:title=" ">
<polygon fill="white" stroke="#bfbfbf" points="148.5,-56.5 148.5,-75.5 197.5,-75.5 197.5,-56.5 148.5,-56.5"/>
<text text-anchor="middle" x="173" y="-63.5" font-family="Helvetica,sans-Serif" font-size="10.00">stdint.h</text>
</a>
</g>
</g>
<!-- Node5&#45;&gt;Node9 -->
<g id="edge8" class="edge"><title>Node5&#45;&gt;Node9</title>
<path fill="none" stroke="midnightblue" d="M229.235,-112.324C219.234,-104.263 204.113,-92.0765 192.07,-82.3695"/>
<polygon fill="midnightblue" stroke="midnightblue" points="193.943,-79.3841 183.961,-75.8339 189.55,-84.8343 193.943,-79.3841"/>
</g>
<!-- Node10 -->
<g id="node10" class="node"><title>Node10</title>
<g id="a_node10"><a xlink:title=" ">
<polygon fill="white" stroke="#bfbfbf" points="215.5,-56.5 215.5,-75.5 264.5,-75.5 264.5,-56.5 215.5,-56.5"/>
<text text-anchor="middle" x="240" y="-63.5" font-family="Helvetica,sans-Serif" font-size="10.00">string.h</text>
</a>
</g>
</g>
<!-- Node5&#45;&gt;Node10 -->
<g id="edge9" class="edge"><title>Node5&#45;&gt;Node10</title>
<path fill="none" stroke="midnightblue" d="M240,-112.083C240,-105.006 240,-94.8611 240,-85.9865"/>
<polygon fill="midnightblue" stroke="midnightblue" points="243.5,-85.751 240,-75.7511 236.5,-85.7511 243.5,-85.751"/>
</g>
<!-- Node11 -->
<g id="node11" class="node"><title>Node11</title>
<g id="a_node11"><a xlink:title=" ">
<polygon fill="white" stroke="#bfbfbf" points="282.5,-56.5 282.5,-75.5 359.5,-75.5 359.5,-56.5 282.5,-56.5"/>
<text text-anchor="middle" x="321" y="-63.5" font-family="Helvetica,sans-Serif" font-size="10.00">colony_map.h</text>
</a>
</g>
</g>
<!-- Node5&#45;&gt;Node11 -->
<g id="edge10" class="edge"><title>Node5&#45;&gt;Node11</title>
<path fill="none" stroke="midnightblue" d="M253.014,-112.324C265.532,-103.979 284.682,-91.2122 299.471,-81.3524"/>
<polygon fill="midnightblue" stroke="midnightblue" points="301.639,-84.1137 308.018,-75.6545 297.756,-78.2894 301.639,-84.1137"/>
</g>
<!-- Node7 -->
<g id="node7" class="node"><title>Node7</title>
<g id="a_node7"><a xlink:title=" ">
<polygon fill="white" stroke="#bfbfbf" points="0,-0.5 0,-19.5 52,-19.5 52,-0.5 0,-0.5"/>
<text text-anchor="middle" x="26" y="-7.5" font-family="Helvetica,sans-Serif" font-size="10.00">stddef.h</text>
</a>
</g>
</g>
<!-- Node6&#45;&gt;Node7 -->
<g id="edge6" class="edge"><title>Node6&#45;&gt;Node7</title>
<path fill="none" stroke="midnightblue" d="M61.8994,-56.083C55.763,-48.3768 46.7303,-37.0333 39.2608,-27.6531"/>
<polygon fill="midnightblue" stroke="midnightblue" points="41.9357,-25.3936 32.9685,-19.7511 36.4598,-29.7542 41.9357,-25.3936"/>
</g>
<!-- Node8 -->
<g id="node8" class="node"><title>Node8</title>
<g id="a_node8"><a xlink:title=" ">
<polygon fill="white" stroke="#bfbfbf" points="70.5,-0.5 70.5,-19.5 155.5,-19.5 155.5,-0.5 70.5,-0.5"/>
<text text-anchor="middle" x="113" y="-7.5" font-family="Helvetica,sans-Serif" font-size="10.00">colony_config.h</text>
</a>
</g>
</g>
<!-- Node6&#45;&gt;Node8 -->
<g id="edge7" class="edge"><title>Node6&#45;&gt;Node8</title>
<path fill="none" stroke="midnightblue" d="M76.2657,-56.083C82.5448,-48.3768 91.7876,-37.0333 99.4308,-27.6531"/>
<polygon fill="midnightblue" stroke="midnightblue" points="102.266,-29.7143 105.869,-19.7511 96.8394,-25.2926 102.266,-29.7143"/>
</g>
<!-- Node13 -->
<g id="node13" class="node"><title>Node13</title>
<g id="a_node13"><a xlink:href="_text_2_string_8h.html" target="_top" xlink:title=" ">
<polygon fill="white" stroke="black" points="310,-168.5 310,-187.5 400,-187.5 400,-168.5 310,-168.5"/>
<text text-anchor="middle" x="355" y="-175.5" font-family="Helvetica,sans-Serif" font-size="10.00">Cpl/Text/String.h</text>
</a>
</g>
</g>
<!-- Node12&#45;&gt;Node13 -->
<g id="edge12" class="edge"><title>Node12&#45;&gt;Node13</title>
<path fill="none" stroke="midnightblue" d="M355,-224.083C355,-217.006 355,-206.861 355,-197.986"/>
<polygon fill="midnightblue" stroke="midnightblue" points="358.5,-197.751 355,-187.751 351.5,-197.751 358.5,-197.751"/>
</g>
<!-- Node14 -->
<g id="node14" class="node"><title>Node14</title>
<g id="a_node14"><a xlink:title=" ">
<polygon fill="white" stroke="#bfbfbf" points="420,-112.5 420,-131.5 472,-131.5 472,-112.5 420,-112.5"/>
<text text-anchor="middle" x="446" y="-119.5" font-family="Helvetica,sans-Serif" font-size="10.00">stdarg.h</text>
</a>
</g>
</g>
<!-- Node12&#45;&gt;Node14 -->
<g id="edge20" class="edge"><title>Node12&#45;&gt;Node14</title>
<path fill="none" stroke="midnightblue" d="M367.689,-224.448C379.403,-216.117 396.783,-202.6 409,-188 421.085,-173.557 431.353,-154.617 437.983,-140.911"/>
<polygon fill="midnightblue" stroke="midnightblue" points="441.265,-142.153 442.314,-131.611 434.92,-139.198 441.265,-142.153"/>
</g>
<!-- Node16 -->
<g id="node16" class="node"><title>Node16</title>
<g id="a_node16"><a xlink:href="_close_8h.html" target="_top" xlink:title=" ">
<polygon fill="white" stroke="black" points="214,-168.5 214,-187.5 292,-187.5 292,-168.5 214,-168.5"/>
<text text-anchor="middle" x="253" y="-175.5" font-family="Helvetica,sans-Serif" font-size="10.00">Cpl/Io/Close.h</text>
</a>
</g>
</g>
<!-- Node12&#45;&gt;Node16 -->
<g id="edge17" class="edge"><title>Node12&#45;&gt;Node16</title>
<path fill="none" stroke="midnightblue" d="M338.612,-224.324C322.329,-215.703 297.133,-202.364 278.284,-192.386"/>
<polygon fill="midnightblue" stroke="midnightblue" points="279.823,-189.24 269.347,-187.655 276.548,-195.427 279.823,-189.24"/>
</g>
<!-- Node17 -->
<g id="node17" class="node"><title>Node17</title>
<g id="a_node17"><a xlink:href="_is_eos_8h.html" target="_top" xlink:title=" ">
<polygon fill="white" stroke="black" points="456.5,-168.5 456.5,-187.5 535.5,-187.5 535.5,-168.5 456.5,-168.5"/>
<text text-anchor="middle" x="496" y="-175.5" font-family="Helvetica,sans-Serif" font-size="10.00">Cpl/Io/IsEos.h</text>
</a>
</g>
</g>
<!-- Node12&#45;&gt;Node17 -->
<g id="edge19" class="edge"><title>Node12&#45;&gt;Node17</title>
<path fill="none" stroke="midnightblue" d="M377.342,-224.444C400.753,-215.478 437.736,-201.314 464.19,-191.183"/>
<polygon fill="midnightblue" stroke="midnightblue" points="465.676,-194.361 473.763,-187.516 463.172,-187.824 465.676,-194.361"/>
</g>
<!-- Node13&#45;&gt;Node5 -->
<g id="edge14" class="edge"><title>Node13&#45;&gt;Node5</title>
<path fill="none" stroke="midnightblue" d="M336.778,-168.444C318.104,-159.675 288.844,-145.935 267.383,-135.858"/>
<polygon fill="midnightblue" stroke="midnightblue" points="268.676,-132.599 258.137,-131.516 265.701,-138.935 268.676,-132.599"/>
</g>
<!-- Node13&#45;&gt;Node11 -->
<g id="edge13" class="edge"><title>Node13&#45;&gt;Node11</title>
<path fill="none" stroke="midnightblue" d="M351.749,-168.435C348.378,-159.427 343.045,-144.809 339,-132 334.096,-116.472 329.209,-98.6342 325.767,-85.5776"/>
<polygon fill="midnightblue" stroke="midnightblue" points="329.152,-84.687 323.247,-75.8903 322.377,-86.4494 329.152,-84.687"/>
</g>
<!-- Node13&#45;&gt;Node14 -->
<g id="edge15" class="edge"><title>Node13&#45;&gt;Node14</title>
<path fill="none" stroke="midnightblue" d="M369.621,-168.324C383.949,-159.822 406.013,-146.729 422.749,-136.797"/>
<polygon fill="midnightblue" stroke="midnightblue" points="424.602,-139.768 431.416,-131.655 421.03,-133.748 424.602,-139.768"/>
</g>
<!-- Node15 -->
<g id="node15" class="node"><title>Node15</title>
<g id="a_node15"><a xlink:title=" ">
<polygon fill="white" stroke="#bfbfbf" points="348,-112.5 348,-131.5 402,-131.5 402,-112.5 348,-112.5"/>
<text text-anchor="middle" x="375" y="-119.5" font-family="Helvetica,sans-Serif" font-size="10.00">iostream</text>
</a>
</g>
</g>
<!-- Node13&#45;&gt;Node15 -->
<g id="edge16" class="edge"><title>Node13&#45;&gt;Node15</title>
<path fill="none" stroke="midnightblue" d="M358.303,-168.083C360.982,-160.849 364.849,-150.409 368.186,-141.397"/>
<polygon fill="midnightblue" stroke="midnightblue" points="371.568,-142.344 371.759,-131.751 365.004,-139.913 371.568,-142.344"/>
</g>
<!-- Node16&#45;&gt;Node4 -->
<g id="edge18" class="edge"><title>Node16&#45;&gt;Node4</title>
<path fill="none" stroke="midnightblue" d="M231.45,-168.444C208.969,-159.517 173.512,-145.439 148.02,-135.317"/>
<polygon fill="midnightblue" stroke="midnightblue" points="149.035,-131.954 138.449,-131.516 146.451,-138.46 149.035,-131.954"/>
</g>
</g>
</svg>
