<?xml version="1.0" encoding="UTF-8" standalone="no"?>
<!DOCTYPE svg PUBLIC "-//W3C//DTD SVG 1.1//EN"
 "http://www.w3.org/Graphics/SVG/1.1/DTD/svg11.dtd">
<!-- Generated by graphviz version 2.38.0 (20140413.2041)
 -->
<!-- Title: Storm/Constants.h Pages: 1 -->
<svg width="1502pt" height="464pt"
 viewBox="0.00 0.00 1501.50 464.00" xmlns="http://www.w3.org/2000/svg" xmlns:xlink="http://www.w3.org/1999/xlink">
<g id="graph0" class="graph" transform="scale(1 1) rotate(0) translate(4 460)">
<title>Storm/Constants.h</title>
<polygon fill="white" stroke="none" points="-4,4 -4,-460 1497.5,-460 1497.5,4 -4,4"/>
<!-- Node1 -->
<g id="node1" class="node"><title>Node1</title>
<g id="a_node1"><a xlink:title=" ">
<polygon fill="#bfbfbf" stroke="black" points="385.5,-436.5 385.5,-455.5 483.5,-455.5 483.5,-436.5 385.5,-436.5"/>
<text text-anchor="middle" x="434.5" y="-443.5" font-family="Helvetica,sans-Serif" font-size="10.00">Storm/Constants.h</text>
</a>
</g>
</g>
<!-- Node2 -->
<g id="node2" class="node"><title>Node2</title>
<g id="a_node2"><a xlink:href="_installer_record_8h_source.html" target="_top" xlink:title=" ">
<polygon fill="white" stroke="black" points="0,-190.5 0,-220.5 119,-220.5 119,-190.5 0,-190.5"/>
<text text-anchor="start" x="8" y="-208.5" font-family="Helvetica,sans-Serif" font-size="10.00">Storm/Thermostat/Main</text>
<text text-anchor="middle" x="59.5" y="-197.5" font-family="Helvetica,sans-Serif" font-size="10.00">/InstallerRecord.h</text>
</a>
</g>
</g>
<!-- Node1&#45;&gt;Node2 -->
<g id="edge1" class="edge"><title>Node1&#45;&gt;Node2</title>
<path fill="none" stroke="midnightblue" d="M375.037,-437.525C339.762,-431.238 295.128,-419.942 259.5,-400 173.075,-351.625 96.815,-256.644 69.8601,-220.719"/>
<polygon fill="midnightblue" stroke="midnightblue" points="374.747,-441.026 385.191,-439.244 375.916,-434.124 374.747,-441.026"/>
</g>
<!-- Node3 -->
<g id="node3" class="node"><title>Node3</title>
<g id="a_node3"><a xlink:href="_type_2_hvac_relay_outputs_8h.html" target="_top" xlink:title=" ">
<polygon fill="white" stroke="black" points="269,-380.5 269,-399.5 430,-399.5 430,-380.5 269,-380.5"/>
<text text-anchor="middle" x="349.5" y="-387.5" font-family="Helvetica,sans-Serif" font-size="10.00">Storm/Type/HvacRelayOutputs.h</text>
</a>
</g>
</g>
<!-- Node1&#45;&gt;Node3 -->
<g id="edge2" class="edge"><title>Node1&#45;&gt;Node3</title>
<path fill="none" stroke="midnightblue" d="M412.306,-430.901C396.72,-420.999 376.37,-408.071 363.123,-399.655"/>
<polygon fill="midnightblue" stroke="midnightblue" points="410.526,-433.916 420.843,-436.324 414.279,-428.007 410.526,-433.916"/>
</g>
<!-- Node10 -->
<g id="node10" class="node"><title>Node10</title>
<g id="a_node10"><a xlink:href="_system_config_8h.html" target="_top" xlink:title=" ">
<polygon fill="white" stroke="black" points="614.5,-380.5 614.5,-399.5 754.5,-399.5 754.5,-380.5 614.5,-380.5"/>
<text text-anchor="middle" x="684.5" y="-387.5" font-family="Helvetica,sans-Serif" font-size="10.00">Storm/Type/SystemConfig.h</text>
</a>
</g>
</g>
<!-- Node1&#45;&gt;Node10 -->
<g id="edge10" class="edge"><title>Node1&#45;&gt;Node10</title>
<path fill="none" stroke="midnightblue" d="M484.123,-434.281C531.366,-424.077 601.536,-408.92 645.072,-399.516"/>
<polygon fill="midnightblue" stroke="midnightblue" points="483.149,-430.911 474.113,-436.444 484.627,-437.753 483.149,-430.911"/>
</g>
<!-- Node24 -->
<g id="node24" class="node"><title>Node24</title>
<g id="a_node24"><a xlink:href="_virtual_outputs_8h.html" target="_top" xlink:title=" ">
<polygon fill="white" stroke="black" points="450,-380.5 450,-399.5 591,-399.5 591,-380.5 450,-380.5"/>
<text text-anchor="middle" x="520.5" y="-387.5" font-family="Helvetica,sans-Serif" font-size="10.00">Storm/Type/VirtualOutputs.h</text>
</a>
</g>
</g>
<!-- Node1&#45;&gt;Node24 -->
<g id="edge40" class="edge"><title>Node1&#45;&gt;Node24</title>
<path fill="none" stroke="midnightblue" d="M456.955,-430.901C472.724,-420.999 493.314,-408.071 506.717,-399.655"/>
<polygon fill="midnightblue" stroke="midnightblue" points="454.925,-428.042 448.317,-436.324 458.648,-433.97 454.925,-428.042"/>
</g>
<!-- Node4 -->
<g id="node4" class="node"><title>Node4</title>
<g id="a_node4"><a xlink:href="_mp_hvac_relay_outputs_8h.html" target="_top" xlink:title=" ">
<polygon fill="white" stroke="black" points="263,-324.5 263,-343.5 430,-343.5 430,-324.5 263,-324.5"/>
<text text-anchor="middle" x="346.5" y="-331.5" font-family="Helvetica,sans-Serif" font-size="10.00">Storm/Dm/MpHvacRelayOutputs.h</text>
</a>
</g>
</g>
<!-- Node3&#45;&gt;Node4 -->
<g id="edge3" class="edge"><title>Node3&#45;&gt;Node4</title>
<path fill="none" stroke="midnightblue" d="M348.434,-369.805C347.939,-360.91 347.377,-350.78 346.986,-343.751"/>
<polygon fill="midnightblue" stroke="midnightblue" points="344.955,-370.293 349.005,-380.083 351.944,-369.904 344.955,-370.293"/>
</g>
<!-- Node5 -->
<g id="node5" class="node"><title>Node5</title>
<g id="a_node5"><a xlink:href="_component_2_hvac_relay_outputs_8h.html" target="_top" xlink:title=" ">
<polygon fill="white" stroke="black" points="449.5,-257.5 449.5,-287.5 595.5,-287.5 595.5,-257.5 449.5,-257.5"/>
<text text-anchor="start" x="457.5" y="-275.5" font-family="Helvetica,sans-Serif" font-size="10.00">Storm/Component/HvacRelay</text>
<text text-anchor="middle" x="522.5" y="-264.5" font-family="Helvetica,sans-Serif" font-size="10.00">Outputs.h</text>
</a>
</g>
</g>
<!-- Node4&#45;&gt;Node5 -->
<g id="edge4" class="edge"><title>Node4&#45;&gt;Node5</title>
<path fill="none" stroke="midnightblue" d="M381.315,-321.23C409.973,-311.542 450.676,-297.782 481.02,-287.523"/>
<polygon fill="midnightblue" stroke="midnightblue" points="380.069,-317.957 371.717,-324.475 382.311,-324.588 380.069,-317.957"/>
</g>
<!-- Node7 -->
<g id="node7" class="node"><title>Node7</title>
<g id="a_node7"><a xlink:href="_model_points_8h.html" target="_top" xlink:title=" ">
<polygon fill="white" stroke="black" points="232,-263 232,-282 393,-282 393,-263 232,-263"/>
<text text-anchor="middle" x="312.5" y="-270" font-family="Helvetica,sans-Serif" font-size="10.00">Storm/Thermostat/ModelPoints.h</text>
</a>
</g>
</g>
<!-- Node4&#45;&gt;Node7 -->
<g id="edge6" class="edge"><title>Node4&#45;&gt;Node7</title>
<path fill="none" stroke="midnightblue" d="M336.598,-315.671C330.276,-304.608 322.358,-290.751 317.362,-282.009"/>
<polygon fill="midnightblue" stroke="midnightblue" points="333.628,-317.529 341.629,-324.475 339.706,-314.056 333.628,-317.529"/>
</g>
<!-- Node6 -->
<g id="node6" class="node"><title>Node6</title>
<g id="a_node6"><a xlink:href="_algorithm_8h.html" target="_top" xlink:title=" ">
<polygon fill="white" stroke="black" points="771.5,-0.5 771.5,-19.5 919.5,-19.5 919.5,-0.5 771.5,-0.5"/>
<text text-anchor="middle" x="845.5" y="-7.5" font-family="Helvetica,sans-Serif" font-size="10.00">Storm/Thermostat/Algorithm.h</text>
</a>
</g>
</g>
<!-- Node5&#45;&gt;Node6 -->
<g id="edge5" class="edge"><title>Node5&#45;&gt;Node6</title>
<path fill="none" stroke="midnightblue" d="M522.628,-247.244C524.272,-202.19 534.656,-105.669 591.5,-56 617.762,-33.0526 706.087,-21.3708 771.235,-15.7407"/>
<polygon fill="midnightblue" stroke="midnightblue" points="519.128,-247.199 522.378,-257.283 526.126,-247.373 519.128,-247.199"/>
</g>
<!-- Node7&#45;&gt;Node2 -->
<g id="edge7" class="edge"><title>Node7&#45;&gt;Node2</title>
<path fill="none" stroke="midnightblue" d="M269.327,-260.408C226.492,-249.403 160.698,-232.499 114.223,-220.559"/>
<polygon fill="midnightblue" stroke="midnightblue" points="268.608,-263.837 279.165,-262.936 270.35,-257.057 268.608,-263.837"/>
</g>
<!-- Node8 -->
<g id="node8" class="node"><title>Node8</title>
<g id="a_node8"><a xlink:href="_run_time_record_8h_source.html" target="_top" xlink:title=" ">
<polygon fill="white" stroke="black" points="137,-190.5 137,-220.5 256,-220.5 256,-190.5 137,-190.5"/>
<text text-anchor="start" x="145" y="-208.5" font-family="Helvetica,sans-Serif" font-size="10.00">Storm/Thermostat/Main</text>
<text text-anchor="middle" x="196.5" y="-197.5" font-family="Helvetica,sans-Serif" font-size="10.00">/RunTimeRecord.h</text>
</a>
</g>
</g>
<!-- Node7&#45;&gt;Node8 -->
<g id="edge8" class="edge"><title>Node7&#45;&gt;Node8</title>
<path fill="none" stroke="midnightblue" d="M287.967,-257.753C268.468,-246.827 241.299,-231.603 221.643,-220.589"/>
<polygon fill="midnightblue" stroke="midnightblue" points="286.421,-260.899 296.856,-262.734 289.843,-254.792 286.421,-260.899"/>
</g>
<!-- Node9 -->
<g id="node9" class="node"><title>Node9</title>
<g id="a_node9"><a xlink:href="_user_record_8h_source.html" target="_top" xlink:title=" ">
<polygon fill="white" stroke="black" points="274,-190.5 274,-220.5 393,-220.5 393,-190.5 274,-190.5"/>
<text text-anchor="start" x="282" y="-208.5" font-family="Helvetica,sans-Serif" font-size="10.00">Storm/Thermostat/Main</text>
<text text-anchor="middle" x="333.5" y="-197.5" font-family="Helvetica,sans-Serif" font-size="10.00">/UserRecord.h</text>
</a>
</g>
</g>
<!-- Node7&#45;&gt;Node9 -->
<g id="edge9" class="edge"><title>Node7&#45;&gt;Node9</title>
<path fill="none" stroke="midnightblue" d="M318.456,-253.065C321.787,-242.753 325.875,-230.101 328.948,-220.589"/>
<polygon fill="midnightblue" stroke="midnightblue" points="315.076,-252.142 315.332,-262.734 321.737,-254.294 315.076,-252.142"/>
</g>
<!-- Node11 -->
<g id="node11" class="node"><title>Node11</title>
<g id="a_node11"><a xlink:href="_mp_system_config_8h.html" target="_top" xlink:title=" ">
<polygon fill="white" stroke="black" points="699,-324.5 699,-343.5 846,-343.5 846,-324.5 699,-324.5"/>
<text text-anchor="middle" x="772.5" y="-331.5" font-family="Helvetica,sans-Serif" font-size="10.00">Storm/Dm/MpSystemConfig.h</text>
</a>
</g>
</g>
<!-- Node10&#45;&gt;Node11 -->
<g id="edge11" class="edge"><title>Node10&#45;&gt;Node11</title>
<path fill="none" stroke="midnightblue" d="M707.477,-374.901C723.613,-364.999 744.681,-352.071 758.396,-343.655"/>
<polygon fill="midnightblue" stroke="midnightblue" points="705.331,-372.111 698.639,-380.324 708.993,-378.077 705.331,-372.111"/>
</g>
<!-- Node11&#45;&gt;Node5 -->
<g id="edge30" class="edge"><title>Node11&#45;&gt;Node5</title>
<path fill="none" stroke="midnightblue" d="M726.732,-322.107C685.887,-312.386 625.841,-298.095 581.42,-287.523"/>
<polygon fill="midnightblue" stroke="midnightblue" points="726.142,-325.565 736.681,-324.475 727.763,-318.755 726.142,-325.565"/>
</g>
<!-- Node11&#45;&gt;Node7 -->
<g id="edge39" class="edge"><title>Node11&#45;&gt;Node7</title>
<path fill="none" stroke="midnightblue" d="M696.592,-323.181C607.847,-311.703 462.426,-292.893 378.285,-282.009"/>
<polygon fill="midnightblue" stroke="midnightblue" points="696.227,-326.663 706.593,-324.475 697.125,-319.721 696.227,-326.663"/>
</g>
<!-- Node12 -->
<g id="node12" class="node"><title>Node12</title>
<g id="a_node12"><a xlink:href="_control_8h.html" target="_top" xlink:title=" ">
<polygon fill="white" stroke="black" points="786,-263 786,-282 923,-282 923,-263 786,-263"/>
<text text-anchor="middle" x="854.5" y="-270" font-family="Helvetica,sans-Serif" font-size="10.00">Storm/Component/Control.h</text>
</a>
</g>
</g>
<!-- Node11&#45;&gt;Node12 -->
<g id="edge12" class="edge"><title>Node11&#45;&gt;Node12</title>
<path fill="none" stroke="midnightblue" d="M792.767,-318.294C808.497,-306.88 829.752,-291.458 842.773,-282.009"/>
<polygon fill="midnightblue" stroke="midnightblue" points="790.287,-315.769 784.249,-324.475 794.398,-321.435 790.287,-315.769"/>
</g>
<!-- Node20 -->
<g id="node20" class="node"><title>Node20</title>
<g id="a_node20"><a xlink:href="_fan_control_8h.html" target="_top" xlink:title=" ">
<polygon fill="white" stroke="black" points="613.5,-263 613.5,-282 767.5,-282 767.5,-263 613.5,-263"/>
<text text-anchor="middle" x="690.5" y="-270" font-family="Helvetica,sans-Serif" font-size="10.00">Storm/Component/FanControl.h</text>
</a>
</g>
</g>
<!-- Node11&#45;&gt;Node20 -->
<g id="edge28" class="edge"><title>Node11&#45;&gt;Node20</title>
<path fill="none" stroke="midnightblue" d="M752.233,-318.294C736.503,-306.88 715.248,-291.458 702.227,-282.009"/>
<polygon fill="midnightblue" stroke="midnightblue" points="750.602,-321.435 760.751,-324.475 754.713,-315.769 750.602,-321.435"/>
</g>
<!-- Node21 -->
<g id="node21" class="node"><title>Node21</title>
<g id="a_node21"><a xlink:href="_component_2_operating_mode_8h.html" target="_top" xlink:title=" ">
<polygon fill="white" stroke="black" points="1265.5,-56.5 1265.5,-86.5 1405.5,-86.5 1405.5,-56.5 1265.5,-56.5"/>
<text text-anchor="start" x="1273.5" y="-74.5" font-family="Helvetica,sans-Serif" font-size="10.00">Storm/Component/Operating</text>
<text text-anchor="middle" x="1335.5" y="-63.5" font-family="Helvetica,sans-Serif" font-size="10.00">Mode.h</text>
</a>
</g>
</g>
<!-- Node11&#45;&gt;Node21 -->
<g id="edge31" class="edge"><title>Node11&#45;&gt;Node21</title>
<path fill="none" stroke="midnightblue" d="M832.993,-322.637C875.294,-314.76 932.874,-302.773 982.5,-288 1141.35,-240.714 1232.56,-287.699 1330.5,-154 1344.91,-134.331 1342.21,-104.302 1338.89,-86.7127"/>
<polygon fill="midnightblue" stroke="midnightblue" points="832.327,-319.2 823.125,-324.451 833.593,-326.085 832.327,-319.2"/>
</g>
<!-- Node22 -->
<g id="node22" class="node"><title>Node22</title>
<g id="a_node22"><a xlink:href="_pi_8h.html" target="_top" xlink:title=" ">
<polygon fill="white" stroke="black" points="1377.5,-129 1377.5,-148 1493.5,-148 1493.5,-129 1377.5,-129"/>
<text text-anchor="middle" x="1435.5" y="-136" font-family="Helvetica,sans-Serif" font-size="10.00">Storm/Component/Pi.h</text>
</a>
</g>
</g>
<!-- Node11&#45;&gt;Node22 -->
<g id="edge33" class="edge"><title>Node11&#45;&gt;Node22</title>
<path fill="none" stroke="midnightblue" d="M856.396,-331.201C1009.57,-327.249 1322.6,-315.842 1363.5,-288 1413.71,-253.82 1430.14,-174.411 1434.3,-148.123"/>
<polygon fill="midnightblue" stroke="midnightblue" points="856.004,-327.709 846.096,-331.461 856.182,-334.707 856.004,-327.709"/>
</g>
<!-- Node23 -->
<g id="node23" class="node"><title>Node23</title>
<g id="a_node23"><a xlink:href="_pi_pre_process_8h.html" target="_top" xlink:title=" ">
<polygon fill="white" stroke="black" points="1154,-129 1154,-148 1321,-148 1321,-129 1154,-129"/>
<text text-anchor="middle" x="1237.5" y="-136" font-family="Helvetica,sans-Serif" font-size="10.00">Storm/Component/PiPreProcess.h</text>
</a>
</g>
</g>
<!-- Node11&#45;&gt;Node23 -->
<g id="edge35" class="edge"><title>Node11&#45;&gt;Node23</title>
<path fill="none" stroke="midnightblue" d="M819.709,-321.963C851.718,-313.917 894.727,-302.001 931.5,-288 1047.11,-243.979 1178.43,-172.556 1222.32,-148.061"/>
<polygon fill="midnightblue" stroke="midnightblue" points="818.59,-318.634 809.726,-324.437 820.274,-325.429 818.59,-318.634"/>
</g>
<!-- Node12&#45;&gt;Node6 -->
<g id="edge27" class="edge"><title>Node12&#45;&gt;Node6</title>
<path fill="none" stroke="midnightblue" d="M800.477,-260.814C756.485,-251.222 698.78,-236.328 680.5,-221 622.165,-172.084 586.61,-115.18 634.5,-56 651.671,-34.7812 717.684,-23.1372 771.358,-17.0434"/>
<polygon fill="midnightblue" stroke="midnightblue" points="799.972,-264.285 810.483,-262.956 801.437,-257.44 799.972,-264.285"/>
</g>
<!-- Node13 -->
<g id="node13" class="node"><title>Node13</title>
<g id="a_node13"><a xlink:href="_cooling_8h.html" target="_top" xlink:title=" ">
<polygon fill="white" stroke="black" points="665,-123.5 665,-153.5 810,-153.5 810,-123.5 665,-123.5"/>
<text text-anchor="start" x="673" y="-141.5" font-family="Helvetica,sans-Serif" font-size="10.00">Storm/Component/Equipment</text>
<text text-anchor="middle" x="737.5" y="-130.5" font-family="Helvetica,sans-Serif" font-size="10.00">/Cooling.h</text>
</a>
</g>
</g>
<!-- Node12&#45;&gt;Node13 -->
<g id="edge13" class="edge"><title>Node12&#45;&gt;Node13</title>
<path fill="none" stroke="midnightblue" d="M819.193,-258.97C800.605,-250.758 778.771,-238.302 764.5,-221 748.187,-201.222 741.606,-171.23 739.044,-153.678"/>
<polygon fill="midnightblue" stroke="midnightblue" points="817.984,-262.258 828.56,-262.881 820.681,-255.799 817.984,-262.258"/>
</g>
<!-- Node14 -->
<g id="node14" class="node"><title>Node14</title>
<g id="a_node14"><a xlink:href="_indoor_heating_8h.html" target="_top" xlink:title=" ">
<polygon fill="white" stroke="black" points="828,-123.5 828,-153.5 973,-153.5 973,-123.5 828,-123.5"/>
<text text-anchor="start" x="836" y="-141.5" font-family="Helvetica,sans-Serif" font-size="10.00">Storm/Component/Equipment</text>
<text text-anchor="middle" x="900.5" y="-130.5" font-family="Helvetica,sans-Serif" font-size="10.00">/IndoorHeating.h</text>
</a>
</g>
</g>
<!-- Node12&#45;&gt;Node14 -->
<g id="edge15" class="edge"><title>Node12&#45;&gt;Node14</title>
<path fill="none" stroke="midnightblue" d="M886.177,-258.277C901.626,-250.015 918.731,-237.729 927.5,-221 939.195,-198.689 923.682,-170.317 911.788,-153.61"/>
<polygon fill="midnightblue" stroke="midnightblue" points="884.259,-255.322 876.861,-262.906 887.374,-261.591 884.259,-255.322"/>
</g>
<!-- Node15 -->
<g id="node15" class="node"><title>Node15</title>
<g id="a_node15"><a xlink:href="_off_8h.html" target="_top" xlink:title=" ">
<polygon fill="white" stroke="black" points="644,-56.5 644,-86.5 789,-86.5 789,-56.5 644,-56.5"/>
<text text-anchor="start" x="652" y="-74.5" font-family="Helvetica,sans-Serif" font-size="10.00">Storm/Component/Equipment</text>
<text text-anchor="middle" x="716.5" y="-63.5" font-family="Helvetica,sans-Serif" font-size="10.00">/Off.h</text>
</a>
</g>
</g>
<!-- Node12&#45;&gt;Node15 -->
<g id="edge17" class="edge"><title>Node12&#45;&gt;Node15</title>
<path fill="none" stroke="midnightblue" d="M808.669,-260.131C759.711,-245.153 685.159,-213.451 655.5,-154 649.349,-141.671 649.636,-135.468 655.5,-123 662.756,-107.573 677.295,-95.2428 690.358,-86.6286"/>
<polygon fill="midnightblue" stroke="midnightblue" points="807.82,-263.529 818.401,-262.992 809.794,-256.813 807.82,-263.529"/>
</g>
<!-- Node16 -->
<g id="node16" class="node"><title>Node16</title>
<g id="a_node16"><a xlink:href="_stage_api_8h.html" target="_top" xlink:title=" ">
<polygon fill="white" stroke="black" points="774,-190.5 774,-220.5 919,-220.5 919,-190.5 774,-190.5"/>
<text text-anchor="start" x="782" y="-208.5" font-family="Helvetica,sans-Serif" font-size="10.00">Storm/Component/Equipment</text>
<text text-anchor="middle" x="846.5" y="-197.5" font-family="Helvetica,sans-Serif" font-size="10.00">/StageApi.h</text>
</a>
</g>
</g>
<!-- Node12&#45;&gt;Node16 -->
<g id="edge19" class="edge"><title>Node12&#45;&gt;Node16</title>
<path fill="none" stroke="midnightblue" d="M852.191,-252.739C850.929,-242.487 849.392,-230.001 848.234,-220.589"/>
<polygon fill="midnightblue" stroke="midnightblue" points="848.726,-253.236 853.421,-262.734 855.673,-252.381 848.726,-253.236"/>
</g>
<!-- Node13&#45;&gt;Node6 -->
<g id="edge14" class="edge"><title>Node13&#45;&gt;Node6</title>
<path fill="none" stroke="midnightblue" d="M765.151,-117.197C775.921,-108.559 787.944,-97.9565 797.5,-87 816.785,-64.8896 833.632,-34.2666 841.221,-19.5581"/>
<polygon fill="midnightblue" stroke="midnightblue" points="762.947,-114.477 757.222,-123.392 767.256,-119.993 762.947,-114.477"/>
</g>
<!-- Node14&#45;&gt;Node6 -->
<g id="edge16" class="edge"><title>Node14&#45;&gt;Node6</title>
<path fill="none" stroke="midnightblue" d="M890.396,-114.262C878.037,-85.8349 857.723,-39.113 849.321,-19.7885"/>
<polygon fill="midnightblue" stroke="midnightblue" points="887.207,-115.704 894.404,-123.479 893.626,-112.913 887.207,-115.704"/>
</g>
<!-- Node15&#45;&gt;Node6 -->
<g id="edge18" class="edge"><title>Node15&#45;&gt;Node6</title>
<path fill="none" stroke="midnightblue" d="M756.427,-52.0841C779.859,-41.2763 808.378,-28.1219 826.729,-19.6578"/>
<polygon fill="midnightblue" stroke="midnightblue" points="754.686,-49.0327 747.071,-56.3993 757.618,-55.3891 754.686,-49.0327"/>
</g>
<!-- Node16&#45;&gt;Node13 -->
<g id="edge20" class="edge"><title>Node16&#45;&gt;Node13</title>
<path fill="none" stroke="midnightblue" d="M813.825,-185.015C796.863,-174.9 776.522,-162.77 761.105,-153.577"/>
<polygon fill="midnightblue" stroke="midnightblue" points="812.467,-188.28 822.849,-190.396 816.052,-182.268 812.467,-188.28"/>
</g>
<!-- Node16&#45;&gt;Node14 -->
<g id="edge21" class="edge"><title>Node16&#45;&gt;Node14</title>
<path fill="none" stroke="midnightblue" d="M864.821,-182.447C872.753,-172.899 881.805,-162.004 888.806,-153.577"/>
<polygon fill="midnightblue" stroke="midnightblue" points="861.915,-180.467 858.217,-190.396 867.3,-184.941 861.915,-180.467"/>
</g>
<!-- Node17 -->
<g id="node17" class="node"><title>Node17</title>
<g id="a_node17"><a xlink:href="_storm_2_component_2_equipment_2_stage_2_basic_8h.html" target="_top" xlink:title=" ">
<polygon fill="white" stroke="black" points="991,-123.5 991,-153.5 1136,-153.5 1136,-123.5 991,-123.5"/>
<text text-anchor="start" x="999" y="-141.5" font-family="Helvetica,sans-Serif" font-size="10.00">Storm/Component/Equipment</text>
<text text-anchor="middle" x="1063.5" y="-130.5" font-family="Helvetica,sans-Serif" font-size="10.00">/Stage/Basic.h</text>
</a>
</g>
</g>
<!-- Node16&#45;&gt;Node17 -->
<g id="edge22" class="edge"><title>Node16&#45;&gt;Node17</title>
<path fill="none" stroke="midnightblue" d="M902.988,-187.58C938.233,-177.022 983.069,-163.592 1016.39,-153.611"/>
<polygon fill="midnightblue" stroke="midnightblue" points="901.894,-184.254 893.319,-190.476 903.902,-190.959 901.894,-184.254"/>
</g>
<!-- Node18 -->
<g id="node18" class="node"><title>Node18</title>
<g id="a_node18"><a xlink:href="_basic_cooling_8h.html" target="_top" xlink:title=" ">
<polygon fill="white" stroke="black" points="898,-56.5 898,-86.5 1043,-86.5 1043,-56.5 898,-56.5"/>
<text text-anchor="start" x="906" y="-74.5" font-family="Helvetica,sans-Serif" font-size="10.00">Storm/Component/Equipment</text>
<text text-anchor="middle" x="970.5" y="-63.5" font-family="Helvetica,sans-Serif" font-size="10.00">/Stage/BasicCooling.h</text>
</a>
</g>
</g>
<!-- Node17&#45;&gt;Node18 -->
<g id="edge23" class="edge"><title>Node17&#45;&gt;Node18</title>
<path fill="none" stroke="midnightblue" d="M1034.81,-117.451C1020.51,-107.452 1003.55,-95.5995 990.64,-86.5765"/>
<polygon fill="midnightblue" stroke="midnightblue" points="1033.12,-120.536 1043.32,-123.396 1037.13,-114.798 1033.12,-120.536"/>
</g>
<!-- Node19 -->
<g id="node19" class="node"><title>Node19</title>
<g id="a_node19"><a xlink:href="_basic_indoor_heat_8h.html" target="_top" xlink:title=" ">
<polygon fill="white" stroke="black" points="1061,-56.5 1061,-86.5 1206,-86.5 1206,-56.5 1061,-56.5"/>
<text text-anchor="start" x="1069" y="-74.5" font-family="Helvetica,sans-Serif" font-size="10.00">Storm/Component/Equipment</text>
<text text-anchor="middle" x="1133.5" y="-63.5" font-family="Helvetica,sans-Serif" font-size="10.00">/Stage/BasicIndoorHeat.h</text>
</a>
</g>
</g>
<!-- Node17&#45;&gt;Node19 -->
<g id="edge25" class="edge"><title>Node17&#45;&gt;Node19</title>
<path fill="none" stroke="midnightblue" d="M1086.32,-116.311C1096.82,-106.561 1108.99,-95.259 1118.34,-86.5765"/>
<polygon fill="midnightblue" stroke="midnightblue" points="1083.64,-114.027 1078.69,-123.396 1088.4,-119.156 1083.64,-114.027"/>
</g>
<!-- Node18&#45;&gt;Node6 -->
<g id="edge24" class="edge"><title>Node18&#45;&gt;Node6</title>
<path fill="none" stroke="midnightblue" d="M931.811,-52.0841C909.106,-41.2763 881.47,-28.1219 863.689,-19.6578"/>
<polygon fill="midnightblue" stroke="midnightblue" points="930.343,-55.2616 940.877,-56.3993 933.352,-48.9411 930.343,-55.2616"/>
</g>
<!-- Node19&#45;&gt;Node6 -->
<g id="edge26" class="edge"><title>Node19&#45;&gt;Node6</title>
<path fill="none" stroke="midnightblue" d="M1055.64,-54.4146C1001.18,-43.1627 930.589,-28.5792 886.674,-19.5064"/>
<polygon fill="midnightblue" stroke="midnightblue" points="1055.11,-57.879 1065.61,-56.4747 1056.53,-51.0237 1055.11,-57.879"/>
</g>
<!-- Node20&#45;&gt;Node6 -->
<g id="edge29" class="edge"><title>Node20&#45;&gt;Node6</title>
<path fill="none" stroke="midnightblue" d="M674.489,-255.515C665.389,-245.966 654.125,-233.328 645.5,-221 602.679,-159.792 564.277,-112.188 613.5,-56 633.98,-32.6227 711.471,-21.1546 771.324,-15.6873"/>
<polygon fill="midnightblue" stroke="midnightblue" points="672.036,-258.012 681.519,-262.736 677.051,-253.129 672.036,-258.012"/>
</g>
<!-- Node21&#45;&gt;Node6 -->
<g id="edge32" class="edge"><title>Node21&#45;&gt;Node6</title>
<path fill="none" stroke="midnightblue" d="M1254.99,-56.6426C1253.48,-56.4231 1251.98,-56.2086 1250.5,-56 1135.26,-39.7825 1000.89,-25.8262 919.566,-17.9215"/>
<polygon fill="midnightblue" stroke="midnightblue" points="1254.64,-60.1297 1265.05,-58.1564 1255.68,-53.2076 1254.64,-60.1297"/>
</g>
<!-- Node22&#45;&gt;Node6 -->
<g id="edge34" class="edge"><title>Node22&#45;&gt;Node6</title>
<path fill="none" stroke="midnightblue" d="M1436.42,-118.85C1436.23,-99.9058 1432.65,-71.2498 1414.5,-56 1377.42,-24.8451 1065.14,-15.0307 919.604,-12.1319"/>
<polygon fill="midnightblue" stroke="midnightblue" points="1432.92,-118.874 1436.21,-128.945 1439.91,-119.02 1432.92,-118.874"/>
</g>
<!-- Node23&#45;&gt;Node6 -->
<g id="edge38" class="edge"><title>Node23&#45;&gt;Node6</title>
<path fill="none" stroke="midnightblue" d="M1238.03,-118.689C1237.46,-99.8499 1233.38,-71.4932 1215.5,-56 1172.59,-18.8116 1014.62,-11.4632 919.52,-10.5189"/>
<polygon fill="midnightblue" stroke="midnightblue" points="1234.53,-118.752 1238.03,-128.751 1241.53,-118.75 1234.53,-118.752"/>
</g>
<!-- Node23&#45;&gt;Node18 -->
<g id="edge36" class="edge"><title>Node23&#45;&gt;Node18</title>
<path fill="none" stroke="midnightblue" d="M1192.51,-126.547C1147.32,-115.546 1077.5,-98.5498 1028.25,-86.5592"/>
<polygon fill="midnightblue" stroke="midnightblue" points="1191.78,-129.971 1202.32,-128.936 1193.43,-123.169 1191.78,-129.971"/>
</g>
<!-- Node23&#45;&gt;Node19 -->
<g id="edge37" class="edge"><title>Node23&#45;&gt;Node19</title>
<path fill="none" stroke="midnightblue" d="M1214.54,-123.153C1197.14,-112.275 1173.34,-97.4029 1156.04,-86.589"/>
<polygon fill="midnightblue" stroke="midnightblue" points="1213.14,-126.402 1223.47,-128.734 1216.85,-120.466 1213.14,-126.402"/>
</g>
<!-- Node25 -->
<g id="node25" class="node"><title>Node25</title>
<g id="a_node25"><a xlink:href="_mp_virtual_outputs_8h.html" target="_top" xlink:title=" ">
<polygon fill="white" stroke="black" points="448.5,-324.5 448.5,-343.5 596.5,-343.5 596.5,-324.5 448.5,-324.5"/>
<text text-anchor="middle" x="522.5" y="-331.5" font-family="Helvetica,sans-Serif" font-size="10.00">Storm/Dm/MpVirtualOutputs.h</text>
</a>
</g>
</g>
<!-- Node24&#45;&gt;Node25 -->
<g id="edge41" class="edge"><title>Node24&#45;&gt;Node25</title>
<path fill="none" stroke="midnightblue" d="M521.211,-369.805C521.54,-360.91 521.916,-350.78 522.176,-343.751"/>
<polygon fill="midnightblue" stroke="midnightblue" points="517.703,-369.96 520.83,-380.083 524.698,-370.219 517.703,-369.96"/>
</g>
<!-- Node25&#45;&gt;Node5 -->
<g id="edge46" class="edge"><title>Node25&#45;&gt;Node5</title>
<path fill="none" stroke="midnightblue" d="M522.5,-314.235C522.5,-305.586 522.5,-295.497 522.5,-287.523"/>
<polygon fill="midnightblue" stroke="midnightblue" points="519,-314.475 522.5,-324.475 526,-314.475 519,-314.475"/>
</g>
<!-- Node25&#45;&gt;Node7 -->
<g id="edge47" class="edge"><title>Node25&#45;&gt;Node7</title>
<path fill="none" stroke="midnightblue" d="M482.532,-321.676C441.727,-310.114 379.308,-292.429 342.532,-282.009"/>
<polygon fill="midnightblue" stroke="midnightblue" points="481.837,-325.116 492.412,-324.475 483.745,-318.382 481.837,-325.116"/>
</g>
<!-- Node25&#45;&gt;Node12 -->
<g id="edge44" class="edge"><title>Node25&#45;&gt;Node12</title>
<path fill="none" stroke="midnightblue" d="M581.165,-322.751C632.663,-313.72 709.578,-300.148 776.5,-288 786.935,-286.106 798.15,-284.039 808.73,-282.075"/>
<polygon fill="midnightblue" stroke="midnightblue" points="580.461,-319.321 571.215,-324.495 581.669,-326.216 580.461,-319.321"/>
</g>
<!-- Node25&#45;&gt;Node20 -->
<g id="edge45" class="edge"><title>Node25&#45;&gt;Node20</title>
<path fill="none" stroke="midnightblue" d="M556.149,-321.083C588.805,-309.517 637.552,-292.252 666.474,-282.009"/>
<polygon fill="midnightblue" stroke="midnightblue" points="554.828,-317.837 546.57,-324.475 557.165,-324.436 554.828,-317.837"/>
</g>
<!-- Node26 -->
<g id="node26" class="node"><title>Node26</title>
<g id="a_node26"><a xlink:href="_air_filter_monitor_8h.html" target="_top" xlink:title=" ">
<polygon fill="white" stroke="black" points="359.5,-56.5 359.5,-86.5 491.5,-86.5 491.5,-56.5 359.5,-56.5"/>
<text text-anchor="start" x="367.5" y="-74.5" font-family="Helvetica,sans-Serif" font-size="10.00">Storm/Component/AirFilter</text>
<text text-anchor="middle" x="425.5" y="-63.5" font-family="Helvetica,sans-Serif" font-size="10.00">Monitor.h</text>
</a>
</g>
</g>
<!-- Node25&#45;&gt;Node26 -->
<g id="edge42" class="edge"><title>Node25&#45;&gt;Node26</title>
<path fill="none" stroke="midnightblue" d="M482.363,-320.494C466.663,-313.497 450.139,-303.066 440.5,-288 398.862,-222.923 414.522,-123.038 422.228,-86.5033"/>
<polygon fill="midnightblue" stroke="midnightblue" points="481.382,-323.874 491.963,-324.417 484.03,-317.394 481.382,-323.874"/>
</g>
<!-- Node26&#45;&gt;Node6 -->
<g id="edge43" class="edge"><title>Node26&#45;&gt;Node6</title>
<path fill="none" stroke="midnightblue" d="M501.719,-57.0626C504.004,-56.6989 506.268,-56.3438 508.5,-56 600.528,-41.8229 707.103,-28.0308 775.353,-19.5324"/>
<polygon fill="midnightblue" stroke="midnightblue" points="500.915,-53.6472 491.605,-58.7048 502.037,-60.5568 500.915,-53.6472"/>
</g>
</g>
</svg>
