<?xml version="1.0" encoding="UTF-8" standalone="no"?>
<!DOCTYPE svg PUBLIC "-//W3C//DTD SVG 1.1//EN"
 "http://www.w3.org/Graphics/SVG/1.1/DTD/svg11.dtd">
<!-- Generated by graphviz version 2.38.0 (20140413.2041)
 -->
<!-- Title: Cpl/TShell/Context_.h Pages: 1 -->
<svg width="529pt" height="420pt"
 viewBox="0.00 0.00 529.00 420.00" xmlns="http://www.w3.org/2000/svg" xmlns:xlink="http://www.w3.org/1999/xlink">
<g id="graph0" class="graph" transform="scale(1 1) rotate(0) translate(4 416)">
<title>Cpl/TShell/Context_.h</title>
<polygon fill="white" stroke="none" points="-4,4 -4,-416 525,-416 525,4 -4,4"/>
<!-- Node1 -->
<g id="node1" class="node"><title>Node1</title>
<g id="a_node1"><a xlink:title=" ">
<polygon fill="#bfbfbf" stroke="black" points="263.5,-392.5 263.5,-411.5 375.5,-411.5 375.5,-392.5 263.5,-392.5"/>
<text text-anchor="middle" x="319.5" y="-399.5" font-family="Helvetica,sans-Serif" font-size="10.00">Cpl/TShell/Context_.h</text>
</a>
</g>
</g>
<!-- Node2 -->
<g id="node2" class="node"><title>Node2</title>
<g id="a_node2"><a xlink:href="_processor_api_8h.html" target="_top" xlink:title=" ">
<polygon fill="white" stroke="black" points="112,-280.5 112,-299.5 243,-299.5 243,-280.5 112,-280.5"/>
<text text-anchor="middle" x="177.5" y="-287.5" font-family="Helvetica,sans-Serif" font-size="10.00">Cpl/TShell/ProcessorApi.h</text>
</a>
</g>
</g>
<!-- Node1&#45;&gt;Node2 -->
<g id="edge1" class="edge"><title>Node1&#45;&gt;Node2</title>
<path fill="none" stroke="midnightblue" d="M308.357,-392.368C284.198,-373.653 226.749,-329.151 196.647,-305.832"/>
<polygon fill="midnightblue" stroke="midnightblue" points="198.64,-302.949 188.591,-299.591 194.353,-308.482 198.64,-302.949"/>
</g>
<!-- Node18 -->
<g id="node18" class="node"><title>Node18</title>
<g id="a_node18"><a xlink:href="_command_8h.html" target="_top" xlink:title=" ">
<polygon fill="white" stroke="black" points="261,-280.5 261,-299.5 378,-299.5 378,-280.5 261,-280.5"/>
<text text-anchor="middle" x="319.5" y="-287.5" font-family="Helvetica,sans-Serif" font-size="10.00">Cpl/TShell/Command.h</text>
</a>
</g>
</g>
<!-- Node1&#45;&gt;Node18 -->
<g id="edge22" class="edge"><title>Node1&#45;&gt;Node18</title>
<path fill="none" stroke="midnightblue" d="M319.5,-392.368C319.5,-374.617 319.5,-333.666 319.5,-309.597"/>
<polygon fill="midnightblue" stroke="midnightblue" points="323,-309.591 319.5,-299.591 316,-309.591 323,-309.591"/>
</g>
<!-- Node21 -->
<g id="node21" class="node"><title>Node21</title>
<g id="a_node21"><a xlink:href="_map_8h.html" target="_top" xlink:title=" ">
<polygon fill="white" stroke="black" points="377,-336.5 377,-355.5 482,-355.5 482,-336.5 377,-336.5"/>
<text text-anchor="middle" x="429.5" y="-343.5" font-family="Helvetica,sans-Serif" font-size="10.00">Cpl/Container/Map.h</text>
</a>
</g>
</g>
<!-- Node1&#45;&gt;Node21 -->
<g id="edge28" class="edge"><title>Node1&#45;&gt;Node21</title>
<path fill="none" stroke="midnightblue" d="M337.173,-392.324C354.894,-383.625 382.403,-370.12 402.788,-360.113"/>
<polygon fill="midnightblue" stroke="midnightblue" points="404.436,-363.203 411.87,-355.655 401.351,-356.919 404.436,-363.203"/>
</g>
<!-- Node3 -->
<g id="node3" class="node"><title>Node3</title>
<g id="a_node3"><a xlink:href="_input_8h.html" target="_top" xlink:title=" ">
<polygon fill="white" stroke="black" points="106,-224.5 106,-243.5 181,-243.5 181,-224.5 106,-224.5"/>
<text text-anchor="middle" x="143.5" y="-231.5" font-family="Helvetica,sans-Serif" font-size="10.00">Cpl/Io/Input.h</text>
</a>
</g>
</g>
<!-- Node2&#45;&gt;Node3 -->
<g id="edge2" class="edge"><title>Node2&#45;&gt;Node3</title>
<path fill="none" stroke="midnightblue" d="M171.886,-280.083C167.133,-272.534 160.182,-261.495 154.348,-252.23"/>
<polygon fill="midnightblue" stroke="midnightblue" points="157.3,-250.349 149.01,-243.751 151.376,-254.078 157.3,-250.349"/>
</g>
<!-- Node17 -->
<g id="node17" class="node"><title>Node17</title>
<g id="a_node17"><a xlink:href="_output_8h.html" target="_top" xlink:title=" ">
<polygon fill="white" stroke="black" points="201,-224.5 201,-243.5 284,-243.5 284,-224.5 201,-224.5"/>
<text text-anchor="middle" x="242.5" y="-231.5" font-family="Helvetica,sans-Serif" font-size="10.00">Cpl/Io/Output.h</text>
</a>
</g>
</g>
<!-- Node2&#45;&gt;Node17 -->
<g id="edge17" class="edge"><title>Node2&#45;&gt;Node17</title>
<path fill="none" stroke="midnightblue" d="M187.943,-280.324C197.646,-272.263 212.315,-260.077 224,-250.369"/>
<polygon fill="midnightblue" stroke="midnightblue" points="226.411,-252.916 231.867,-243.834 221.938,-247.532 226.411,-252.916"/>
</g>
<!-- Node4 -->
<g id="node4" class="node"><title>Node4</title>
<g id="a_node4"><a xlink:href="_text_2_string_8h.html" target="_top" xlink:title=" ">
<polygon fill="white" stroke="black" points="97.5,-168.5 97.5,-187.5 187.5,-187.5 187.5,-168.5 97.5,-168.5"/>
<text text-anchor="middle" x="142.5" y="-175.5" font-family="Helvetica,sans-Serif" font-size="10.00">Cpl/Text/String.h</text>
</a>
</g>
</g>
<!-- Node3&#45;&gt;Node4 -->
<g id="edge3" class="edge"><title>Node3&#45;&gt;Node4</title>
<path fill="none" stroke="midnightblue" d="M143.335,-224.083C143.204,-217.006 143.016,-206.861 142.852,-197.986"/>
<polygon fill="midnightblue" stroke="midnightblue" points="146.347,-197.685 142.662,-187.751 139.348,-197.814 146.347,-197.685"/>
</g>
<!-- Node14 -->
<g id="node14" class="node"><title>Node14</title>
<g id="a_node14"><a xlink:href="_close_8h.html" target="_top" xlink:title=" ">
<polygon fill="white" stroke="black" points="205.5,-168.5 205.5,-187.5 283.5,-187.5 283.5,-168.5 205.5,-168.5"/>
<text text-anchor="middle" x="244.5" y="-175.5" font-family="Helvetica,sans-Serif" font-size="10.00">Cpl/Io/Close.h</text>
</a>
</g>
</g>
<!-- Node3&#45;&gt;Node14 -->
<g id="edge14" class="edge"><title>Node3&#45;&gt;Node14</title>
<path fill="none" stroke="midnightblue" d="M159.727,-224.324C175.851,-215.703 200.8,-202.364 219.464,-192.386"/>
<polygon fill="midnightblue" stroke="midnightblue" points="221.144,-195.456 228.313,-187.655 217.844,-189.283 221.144,-195.456"/>
</g>
<!-- Node16 -->
<g id="node16" class="node"><title>Node16</title>
<g id="a_node16"><a xlink:href="_is_eos_8h.html" target="_top" xlink:title=" ">
<polygon fill="white" stroke="black" points="0,-168.5 0,-187.5 79,-187.5 79,-168.5 0,-168.5"/>
<text text-anchor="middle" x="39.5" y="-175.5" font-family="Helvetica,sans-Serif" font-size="10.00">Cpl/Io/IsEos.h</text>
</a>
</g>
</g>
<!-- Node3&#45;&gt;Node16 -->
<g id="edge16" class="edge"><title>Node3&#45;&gt;Node16</title>
<path fill="none" stroke="midnightblue" d="M126.791,-224.324C110.188,-215.703 84.4979,-202.364 65.2795,-192.386"/>
<polygon fill="midnightblue" stroke="midnightblue" points="66.6558,-189.156 56.1679,-187.655 63.43,-195.369 66.6558,-189.156"/>
</g>
<!-- Node5 -->
<g id="node5" class="node"><title>Node5</title>
<g id="a_node5"><a xlink:title=" ">
<polygon fill="white" stroke="#bfbfbf" points="49,-56.5 49,-75.5 126,-75.5 126,-56.5 49,-56.5"/>
<text text-anchor="middle" x="87.5" y="-63.5" font-family="Helvetica,sans-Serif" font-size="10.00">colony_map.h</text>
</a>
</g>
</g>
<!-- Node4&#45;&gt;Node5 -->
<g id="edge4" class="edge"><title>Node4&#45;&gt;Node5</title>
<path fill="none" stroke="midnightblue" d="M124.418,-168.39C110.938,-160.872 93.5275,-148.565 85.5,-132 78.4994,-117.554 79.8923,-99.1031 82.5145,-85.5528"/>
<polygon fill="midnightblue" stroke="midnightblue" points="85.9919,-86.0515 84.849,-75.5185 79.174,-84.4653 85.9919,-86.0515"/>
</g>
<!-- Node6 -->
<g id="node6" class="node"><title>Node6</title>
<g id="a_node6"><a xlink:href="_key_8h.html" target="_top" xlink:title=" ">
<polygon fill="white" stroke="black" points="236.5,-112.5 236.5,-131.5 340.5,-131.5 340.5,-112.5 236.5,-112.5"/>
<text text-anchor="middle" x="288.5" y="-119.5" font-family="Helvetica,sans-Serif" font-size="10.00">Cpl/Container/Key.h</text>
</a>
</g>
</g>
<!-- Node4&#45;&gt;Node6 -->
<g id="edge5" class="edge"><title>Node4&#45;&gt;Node6</title>
<path fill="none" stroke="midnightblue" d="M165.634,-168.444C189.982,-159.438 228.507,-145.189 255.923,-135.049"/>
<polygon fill="midnightblue" stroke="midnightblue" points="257.309,-138.268 265.474,-131.516 254.881,-131.703 257.309,-138.268"/>
</g>
<!-- Node12 -->
<g id="node12" class="node"><title>Node12</title>
<g id="a_node12"><a xlink:title=" ">
<polygon fill="white" stroke="#bfbfbf" points="166.5,-112.5 166.5,-131.5 218.5,-131.5 218.5,-112.5 166.5,-112.5"/>
<text text-anchor="middle" x="192.5" y="-119.5" font-family="Helvetica,sans-Serif" font-size="10.00">stdarg.h</text>
</a>
</g>
</g>
<!-- Node4&#45;&gt;Node12 -->
<g id="edge12" class="edge"><title>Node4&#45;&gt;Node12</title>
<path fill="none" stroke="midnightblue" d="M150.756,-168.083C157.965,-160.298 168.61,-148.801 177.346,-139.367"/>
<polygon fill="midnightblue" stroke="midnightblue" points="180.171,-141.467 184.397,-131.751 175.035,-136.711 180.171,-141.467"/>
</g>
<!-- Node13 -->
<g id="node13" class="node"><title>Node13</title>
<g id="a_node13"><a xlink:title=" ">
<polygon fill="white" stroke="#bfbfbf" points="94.5,-112.5 94.5,-131.5 148.5,-131.5 148.5,-112.5 94.5,-112.5"/>
<text text-anchor="middle" x="121.5" y="-119.5" font-family="Helvetica,sans-Serif" font-size="10.00">iostream</text>
</a>
</g>
</g>
<!-- Node4&#45;&gt;Node13 -->
<g id="edge13" class="edge"><title>Node4&#45;&gt;Node13</title>
<path fill="none" stroke="midnightblue" d="M139.032,-168.083C136.188,-160.77 132.071,-150.181 128.54,-141.103"/>
<polygon fill="midnightblue" stroke="midnightblue" points="131.79,-139.803 124.903,-131.751 125.266,-142.34 131.79,-139.803"/>
</g>
<!-- Node6&#45;&gt;Node5 -->
<g id="edge11" class="edge"><title>Node6&#45;&gt;Node5</title>
<path fill="none" stroke="midnightblue" d="M256.651,-112.444C222.102,-103.162 166.818,-88.3093 128.917,-78.127"/>
<polygon fill="midnightblue" stroke="midnightblue" points="129.766,-74.7309 119.2,-75.5164 127.949,-81.4912 129.766,-74.7309"/>
</g>
<!-- Node7 -->
<g id="node7" class="node"><title>Node7</title>
<g id="a_node7"><a xlink:href="_fatal_error_8h.html" target="_top" xlink:title=" ">
<polygon fill="white" stroke="black" points="186.5,-56.5 186.5,-75.5 308.5,-75.5 308.5,-56.5 186.5,-56.5"/>
<text text-anchor="middle" x="247.5" y="-63.5" font-family="Helvetica,sans-Serif" font-size="10.00">Cpl/System/FatalError.h</text>
</a>
</g>
</g>
<!-- Node6&#45;&gt;Node7 -->
<g id="edge6" class="edge"><title>Node6&#45;&gt;Node7</title>
<path fill="none" stroke="midnightblue" d="M281.73,-112.083C275.938,-104.455 267.442,-93.2645 260.362,-83.9408"/>
<polygon fill="midnightblue" stroke="midnightblue" points="262.979,-81.5991 254.144,-75.7511 257.404,-85.8321 262.979,-81.5991"/>
</g>
<!-- Node10 -->
<g id="node10" class="node"><title>Node10</title>
<g id="a_node10"><a xlink:title=" ">
<polygon fill="white" stroke="#bfbfbf" points="327,-56.5 327,-75.5 376,-75.5 376,-56.5 327,-56.5"/>
<text text-anchor="middle" x="351.5" y="-63.5" font-family="Helvetica,sans-Serif" font-size="10.00">stdint.h</text>
</a>
</g>
</g>
<!-- Node6&#45;&gt;Node10 -->
<g id="edge9" class="edge"><title>Node6&#45;&gt;Node10</title>
<path fill="none" stroke="midnightblue" d="M298.622,-112.324C308.026,-104.263 322.244,-92.0765 333.569,-82.3695"/>
<polygon fill="midnightblue" stroke="midnightblue" points="335.879,-84.9993 341.194,-75.8339 331.323,-79.6844 335.879,-84.9993"/>
</g>
<!-- Node11 -->
<g id="node11" class="node"><title>Node11</title>
<g id="a_node11"><a xlink:title=" ">
<polygon fill="white" stroke="#bfbfbf" points="394,-56.5 394,-75.5 443,-75.5 443,-56.5 394,-56.5"/>
<text text-anchor="middle" x="418.5" y="-63.5" font-family="Helvetica,sans-Serif" font-size="10.00">string.h</text>
</a>
</g>
</g>
<!-- Node6&#45;&gt;Node11 -->
<g id="edge10" class="edge"><title>Node6&#45;&gt;Node11</title>
<path fill="none" stroke="midnightblue" d="M309.099,-112.444C330.493,-103.557 364.181,-89.5632 388.524,-79.4514"/>
<polygon fill="midnightblue" stroke="midnightblue" points="390.105,-82.5848 397.997,-75.5164 387.42,-76.1203 390.105,-82.5848"/>
</g>
<!-- Node8 -->
<g id="node8" class="node"><title>Node8</title>
<g id="a_node8"><a xlink:title=" ">
<polygon fill="white" stroke="#bfbfbf" points="221.5,-0.5 221.5,-19.5 273.5,-19.5 273.5,-0.5 221.5,-0.5"/>
<text text-anchor="middle" x="247.5" y="-7.5" font-family="Helvetica,sans-Serif" font-size="10.00">stddef.h</text>
</a>
</g>
</g>
<!-- Node7&#45;&gt;Node8 -->
<g id="edge7" class="edge"><title>Node7&#45;&gt;Node8</title>
<path fill="none" stroke="midnightblue" d="M247.5,-56.083C247.5,-49.0059 247.5,-38.8611 247.5,-29.9865"/>
<polygon fill="midnightblue" stroke="midnightblue" points="251,-29.751 247.5,-19.7511 244,-29.7511 251,-29.751"/>
</g>
<!-- Node9 -->
<g id="node9" class="node"><title>Node9</title>
<g id="a_node9"><a xlink:title=" ">
<polygon fill="white" stroke="#bfbfbf" points="371,-0.5 371,-19.5 456,-19.5 456,-0.5 371,-0.5"/>
<text text-anchor="middle" x="413.5" y="-7.5" font-family="Helvetica,sans-Serif" font-size="10.00">colony_config.h</text>
</a>
</g>
</g>
<!-- Node7&#45;&gt;Node9 -->
<g id="edge8" class="edge"><title>Node7&#45;&gt;Node9</title>
<path fill="none" stroke="midnightblue" d="M273.803,-56.4435C301.851,-47.3196 346.444,-32.8133 377.684,-22.6509"/>
<polygon fill="midnightblue" stroke="midnightblue" points="378.893,-25.9383 387.32,-19.5164 376.728,-19.2816 378.893,-25.9383"/>
</g>
<!-- Node15 -->
<g id="node15" class="node"><title>Node15</title>
<g id="a_node15"><a xlink:href="_item_8h.html" target="_top" xlink:title=" ">
<polygon fill="white" stroke="black" points="358.5,-112.5 358.5,-131.5 464.5,-131.5 464.5,-112.5 358.5,-112.5"/>
<text text-anchor="middle" x="411.5" y="-119.5" font-family="Helvetica,sans-Serif" font-size="10.00">Cpl/Container/Item.h</text>
</a>
</g>
</g>
<!-- Node14&#45;&gt;Node15 -->
<g id="edge15" class="edge"><title>Node14&#45;&gt;Node15</title>
<path fill="none" stroke="midnightblue" d="M270.962,-168.444C299.178,-159.32 344.04,-144.813 375.468,-134.651"/>
<polygon fill="midnightblue" stroke="midnightblue" points="376.724,-137.923 385.162,-131.516 374.57,-131.263 376.724,-137.923"/>
</g>
<!-- Node17&#45;&gt;Node4 -->
<g id="edge18" class="edge"><title>Node17&#45;&gt;Node4</title>
<path fill="none" stroke="midnightblue" d="M226.433,-224.324C210.542,-215.743 185.993,-202.486 167.542,-192.522"/>
<polygon fill="midnightblue" stroke="midnightblue" points="168.989,-189.326 158.527,-187.655 165.663,-195.486 168.989,-189.326"/>
</g>
<!-- Node17&#45;&gt;Node12 -->
<g id="edge21" class="edge"><title>Node17&#45;&gt;Node12</title>
<path fill="none" stroke="midnightblue" d="M257.755,-224.296C277.043,-212.133 306.183,-189.162 292.5,-168 284.984,-156.376 253.738,-143.437 228.148,-134.428"/>
<polygon fill="midnightblue" stroke="midnightblue" points="229.273,-131.114 218.678,-131.179 227.001,-137.735 229.273,-131.114"/>
</g>
<!-- Node17&#45;&gt;Node14 -->
<g id="edge19" class="edge"><title>Node17&#45;&gt;Node14</title>
<path fill="none" stroke="midnightblue" d="M242.83,-224.083C243.092,-217.006 243.468,-206.861 243.797,-197.986"/>
<polygon fill="midnightblue" stroke="midnightblue" points="247.303,-197.874 244.176,-187.751 240.308,-197.615 247.303,-197.874"/>
</g>
<!-- Node17&#45;&gt;Node16 -->
<g id="edge20" class="edge"><title>Node17&#45;&gt;Node16</title>
<path fill="none" stroke="midnightblue" d="M210.334,-224.444C175.441,-215.162 119.607,-200.309 81.3291,-190.127"/>
<polygon fill="midnightblue" stroke="midnightblue" points="82.0792,-186.705 71.5155,-187.516 80.2796,-193.47 82.0792,-186.705"/>
</g>
<!-- Node18&#45;&gt;Node17 -->
<g id="edge27" class="edge"><title>Node18&#45;&gt;Node17</title>
<path fill="none" stroke="midnightblue" d="M307.129,-280.324C295.342,-272.058 277.368,-259.453 263.364,-249.632"/>
<polygon fill="midnightblue" stroke="midnightblue" points="265.038,-246.531 254.841,-243.655 261.018,-252.262 265.038,-246.531"/>
</g>
<!-- Node19 -->
<g id="node19" class="node"><title>Node19</title>
<g id="a_node19"><a xlink:href="_map_item_8h.html" target="_top" xlink:title=" ">
<polygon fill="white" stroke="black" points="339,-224.5 339,-243.5 464,-243.5 464,-224.5 339,-224.5"/>
<text text-anchor="middle" x="401.5" y="-231.5" font-family="Helvetica,sans-Serif" font-size="10.00">Cpl/Container/MapItem.h</text>
</a>
</g>
</g>
<!-- Node18&#45;&gt;Node19 -->
<g id="edge23" class="edge"><title>Node18&#45;&gt;Node19</title>
<path fill="none" stroke="midnightblue" d="M332.675,-280.324C345.347,-271.979 364.733,-259.212 379.706,-249.352"/>
<polygon fill="midnightblue" stroke="midnightblue" points="381.931,-252.078 388.358,-243.655 378.081,-246.231 381.931,-252.078"/>
</g>
<!-- Node20 -->
<g id="node20" class="node"><title>Node20</title>
<g id="a_node20"><a xlink:href="_dict_item_8h.html" target="_top" xlink:title=" ">
<polygon fill="white" stroke="black" points="340,-168.5 340,-187.5 463,-187.5 463,-168.5 340,-168.5"/>
<text text-anchor="middle" x="401.5" y="-175.5" font-family="Helvetica,sans-Serif" font-size="10.00">Cpl/Container/DictItem.h</text>
</a>
</g>
</g>
<!-- Node19&#45;&gt;Node20 -->
<g id="edge24" class="edge"><title>Node19&#45;&gt;Node20</title>
<path fill="none" stroke="midnightblue" d="M401.5,-224.083C401.5,-217.006 401.5,-206.861 401.5,-197.986"/>
<polygon fill="midnightblue" stroke="midnightblue" points="405,-197.751 401.5,-187.751 398,-197.751 405,-197.751"/>
</g>
<!-- Node20&#45;&gt;Node6 -->
<g id="edge26" class="edge"><title>Node20&#45;&gt;Node6</title>
<path fill="none" stroke="midnightblue" d="M383.595,-168.444C365.246,-159.675 336.495,-145.935 315.406,-135.858"/>
<polygon fill="midnightblue" stroke="midnightblue" points="316.853,-132.67 306.321,-131.516 313.835,-138.986 316.853,-132.67"/>
</g>
<!-- Node20&#45;&gt;Node15 -->
<g id="edge25" class="edge"><title>Node20&#45;&gt;Node15</title>
<path fill="none" stroke="midnightblue" d="M403.151,-168.083C404.476,-160.927 406.382,-150.635 408.039,-141.691"/>
<polygon fill="midnightblue" stroke="midnightblue" points="411.5,-142.221 409.879,-131.751 404.617,-140.947 411.5,-142.221"/>
</g>
<!-- Node22 -->
<g id="node22" class="node"><title>Node22</title>
<g id="a_node22"><a xlink:href="_avl_tree___8h.html" target="_top" xlink:title=" ">
<polygon fill="white" stroke="black" points="396,-280.5 396,-299.5 521,-299.5 521,-280.5 396,-280.5"/>
<text text-anchor="middle" x="458.5" y="-287.5" font-family="Helvetica,sans-Serif" font-size="10.00">Cpl/Container/AvlTree_.h</text>
</a>
</g>
</g>
<!-- Node21&#45;&gt;Node22 -->
<g id="edge29" class="edge"><title>Node21&#45;&gt;Node22</title>
<path fill="none" stroke="midnightblue" d="M434.289,-336.083C438.258,-328.691 444.025,-317.953 448.935,-308.811"/>
<polygon fill="midnightblue" stroke="midnightblue" points="452.153,-310.217 453.8,-299.751 445.986,-306.905 452.153,-310.217"/>
</g>
<!-- Node22&#45;&gt;Node9 -->
<g id="edge30" class="edge"><title>Node22&#45;&gt;Node9</title>
<path fill="none" stroke="midnightblue" d="M463.085,-280.44C472.366,-262.29 492.5,-218.378 492.5,-179 492.5,-179 492.5,-179 492.5,-121 492.5,-80.7945 457.252,-45.221 433.844,-26.0304"/>
<polygon fill="midnightblue" stroke="midnightblue" points="435.864,-23.1655 425.844,-19.7232 431.53,-28.6628 435.864,-23.1655"/>
</g>
<!-- Node22&#45;&gt;Node19 -->
<g id="edge31" class="edge"><title>Node22&#45;&gt;Node19</title>
<path fill="none" stroke="midnightblue" d="M449.342,-280.324C440.999,-272.42 428.468,-260.548 418.323,-250.938"/>
<polygon fill="midnightblue" stroke="midnightblue" points="420.491,-248.171 410.825,-243.834 415.677,-253.252 420.491,-248.171"/>
</g>
</g>
</svg>
