<?xml version="1.0" encoding="UTF-8" standalone="no"?>
<!DOCTYPE svg PUBLIC "-//W3C//DTD SVG 1.1//EN"
 "http://www.w3.org/Graphics/SVG/1.1/DTD/svg11.dtd">
<!-- Generated by graphviz version 2.38.0 (20140413.2041)
 -->
<!-- Title: Cpl/Memory/ContiguousAllocator.h Pages: 1 -->
<svg width="243pt" height="140pt"
 viewBox="0.00 0.00 242.50 140.00" xmlns="http://www.w3.org/2000/svg" xmlns:xlink="http://www.w3.org/1999/xlink">
<g id="graph0" class="graph" transform="scale(1 1) rotate(0) translate(4 136)">
<title>Cpl/Memory/ContiguousAllocator.h</title>
<polygon fill="white" stroke="none" points="-4,4 -4,-136 238.5,-136 238.5,4 -4,4"/>
<!-- Node1 -->
<g id="node1" class="node"><title>Node1</title>
<g id="a_node1"><a xlink:title=" ">
<polygon fill="#bfbfbf" stroke="black" points="67.5,-112.5 67.5,-131.5 234.5,-131.5 234.5,-112.5 67.5,-112.5"/>
<text text-anchor="middle" x="151" y="-119.5" font-family="Helvetica,sans-Serif" font-size="10.00">Cpl/Memory/ContiguousAllocator.h</text>
</a>
</g>
</g>
<!-- Node2 -->
<g id="node2" class="node"><title>Node2</title>
<g id="a_node2"><a xlink:href="_allocator_8h.html" target="_top" xlink:title=" ">
<polygon fill="white" stroke="black" points="40.5,-56.5 40.5,-75.5 159.5,-75.5 159.5,-56.5 40.5,-56.5"/>
<text text-anchor="middle" x="100" y="-63.5" font-family="Helvetica,sans-Serif" font-size="10.00">Cpl/Memory/Allocator.h</text>
</a>
</g>
</g>
<!-- Node1&#45;&gt;Node2 -->
<g id="edge1" class="edge"><title>Node1&#45;&gt;Node2</title>
<path fill="none" stroke="midnightblue" d="M142.578,-112.083C135.152,-104.22 124.148,-92.5688 115.188,-83.0813"/>
<polygon fill="midnightblue" stroke="midnightblue" points="117.676,-80.618 108.265,-75.7511 112.587,-85.4244 117.676,-80.618"/>
</g>
<!-- Node5 -->
<g id="node5" class="node"><title>Node5</title>
<g id="a_node5"><a xlink:title=" ">
<polygon fill="white" stroke="#bfbfbf" points="177.5,-56.5 177.5,-75.5 226.5,-75.5 226.5,-56.5 177.5,-56.5"/>
<text text-anchor="middle" x="202" y="-63.5" font-family="Helvetica,sans-Serif" font-size="10.00">stdint.h</text>
</a>
</g>
</g>
<!-- Node1&#45;&gt;Node5 -->
<g id="edge4" class="edge"><title>Node1&#45;&gt;Node5</title>
<path fill="none" stroke="midnightblue" d="M159.422,-112.083C166.848,-104.22 177.852,-92.5688 186.812,-83.0813"/>
<polygon fill="midnightblue" stroke="midnightblue" points="189.413,-85.4244 193.735,-75.7511 184.324,-80.618 189.413,-85.4244"/>
</g>
<!-- Node3 -->
<g id="node3" class="node"><title>Node3</title>
<g id="a_node3"><a xlink:href="_item_8h.html" target="_top" xlink:title=" ">
<polygon fill="white" stroke="black" points="0,-0.5 0,-19.5 106,-19.5 106,-0.5 0,-0.5"/>
<text text-anchor="middle" x="53" y="-7.5" font-family="Helvetica,sans-Serif" font-size="10.00">Cpl/Container/Item.h</text>
</a>
</g>
</g>
<!-- Node2&#45;&gt;Node3 -->
<g id="edge2" class="edge"><title>Node2&#45;&gt;Node3</title>
<path fill="none" stroke="midnightblue" d="M92.2389,-56.083C85.4632,-48.2982 75.4568,-36.8015 67.2449,-27.3665"/>
<polygon fill="midnightblue" stroke="midnightblue" points="69.822,-24.9963 60.6167,-19.7511 64.5419,-29.592 69.822,-24.9963"/>
</g>
<!-- Node4 -->
<g id="node4" class="node"><title>Node4</title>
<g id="a_node4"><a xlink:title=" ">
<polygon fill="white" stroke="#bfbfbf" points="124,-0.5 124,-19.5 172,-19.5 172,-0.5 124,-0.5"/>
<text text-anchor="middle" x="148" y="-7.5" font-family="Helvetica,sans-Serif" font-size="10.00">stdlib.h</text>
</a>
</g>
</g>
<!-- Node2&#45;&gt;Node4 -->
<g id="edge3" class="edge"><title>Node2&#45;&gt;Node4</title>
<path fill="none" stroke="midnightblue" d="M107.926,-56.083C114.846,-48.2982 125.065,-36.8015 133.452,-27.3665"/>
<polygon fill="midnightblue" stroke="midnightblue" points="136.194,-29.5505 140.221,-19.7511 130.962,-24.8999 136.194,-29.5505"/>
</g>
</g>
</svg>
