<?xml version="1.0" encoding="UTF-8" standalone="no"?>
<!DOCTYPE svg PUBLIC "-//W3C//DTD SVG 1.1//EN"
 "http://www.w3.org/Graphics/SVG/1.1/DTD/svg11.dtd">
<!-- Generated by graphviz version 10.0.1 (20240210.2158)
 -->
<!-- Title: Storm/Type/Cph.h Pages: 1 -->
<svg width="1499pt" height="468pt"
 viewBox="0.00 0.00 1498.73 468.00" xmlns="http://www.w3.org/2000/svg" xmlns:xlink="http://www.w3.org/1999/xlink">
<g id="graph0" class="graph" transform="scale(1 1) rotate(0) translate(4 464)">
<title>Storm/Type/Cph.h</title>
<!-- Node1 -->
<g id="Node000001" class="node">
<title>Node1</title>
<g id="a_Node000001"><a xlink:title=" ">
<polygon fill="#999999" stroke="#666666" points="792.6,-460 697.85,-460 697.85,-440 792.6,-440 792.6,-460"/>
<text text-anchor="middle" x="745.23" y="-446.5" font-family="Helvetica,sans-Serif" font-size="10.00">Storm/Type/Cph.h</text>
</a>
</g>
</g>
<!-- Node2 -->
<g id="Node000002" class="node">
<title>Node2</title>
<g id="a_Node000002"><a xlink:href="_comfort_config_8h.html" target="_top" xlink:title=" ">
<polygon fill="white" stroke="#666666" points="656.35,-404 518.1,-404 518.1,-384 656.35,-384 656.35,-404"/>
<text text-anchor="middle" x="587.23" y="-390.5" font-family="Helvetica,sans-Serif" font-size="10.00">Storm/Type/ComfortConfig.h</text>
</a>
</g>
</g>
<!-- Node1&#45;&gt;Node2 -->
<g id="edge1_Node000001_Node000002" class="edge">
<title>Node1&#45;&gt;Node2</title>
<g id="a_edge1_Node000001_Node000002"><a xlink:title=" ">
<path fill="none" stroke="#63b8ff" d="M706.96,-435.92C678.56,-426.21 640.48,-413.2 614.97,-404.48"/>
<polygon fill="#63b8ff" stroke="#63b8ff" points="705.68,-439.18 716.28,-439.1 707.94,-432.56 705.68,-439.18"/>
</a>
</g>
</g>
<!-- Node21 -->
<g id="Node000021" class="node">
<title>Node21</title>
<g id="a_Node000021"><a xlink:href="_system_config_8h.html" target="_top" xlink:title=" ">
<polygon fill="white" stroke="#666666" points="814.35,-404 676.1,-404 676.1,-384 814.35,-384 814.35,-404"/>
<text text-anchor="middle" x="745.23" y="-390.5" font-family="Helvetica,sans-Serif" font-size="10.00">Storm/Type/SystemConfig.h</text>
</a>
</g>
</g>
<!-- Node1&#45;&gt;Node21 -->
<g id="edge31_Node000001_Node000021" class="edge">
<title>Node1&#45;&gt;Node21</title>
<g id="a_edge31_Node000001_Node000021"><a xlink:title=" ">
<path fill="none" stroke="#63b8ff" d="M745.23,-428.13C745.23,-419.9 745.23,-410.85 745.23,-404.3"/>
<polygon fill="#63b8ff" stroke="#63b8ff" points="741.73,-428.08 745.23,-438.08 748.73,-428.08 741.73,-428.08"/>
</a>
</g>
</g>
<!-- Node26 -->
<g id="Node000026" class="node">
<title>Node26</title>
<g id="a_Node000026"><a xlink:href="_duty_cycle_8h.html" target="_top" xlink:title=" ">
<polygon fill="white" stroke="#666666" points="953.73,-404 832.73,-404 832.73,-384 953.73,-384 953.73,-404"/>
<text text-anchor="middle" x="893.23" y="-390.5" font-family="Helvetica,sans-Serif" font-size="10.00">Storm/Utils/DutyCycle.h</text>
</a>
</g>
</g>
<!-- Node1&#45;&gt;Node26 -->
<g id="edge45_Node000001_Node000026" class="edge">
<title>Node1&#45;&gt;Node26</title>
<g id="a_edge45_Node000001_Node000026"><a xlink:title=" ">
<path fill="none" stroke="#63b8ff" d="M781.79,-435.66C808.31,-425.98 843.56,-413.12 867.25,-404.48"/>
<polygon fill="#63b8ff" stroke="#63b8ff" points="780.62,-432.36 772.43,-439.08 783.02,-438.94 780.62,-432.36"/>
</a>
</g>
</g>
<!-- Node3 -->
<g id="Node000003" class="node">
<title>Node3</title>
<g id="a_Node000003"><a xlink:href="_mp_comfort_config_8h.html" target="_top" xlink:title=" ">
<polygon fill="white" stroke="#666666" points="656.1,-348 510.35,-348 510.35,-328 656.1,-328 656.1,-348"/>
<text text-anchor="middle" x="583.23" y="-334.5" font-family="Helvetica,sans-Serif" font-size="10.00">Storm/Dm/MpComfortConfig.h</text>
</a>
</g>
</g>
<!-- Node2&#45;&gt;Node3 -->
<g id="edge2_Node000002_Node000003" class="edge">
<title>Node2&#45;&gt;Node3</title>
<g id="a_edge2_Node000002_Node000003"><a xlink:title=" ">
<path fill="none" stroke="#63b8ff" d="M585.68,-372.13C585.07,-363.9 584.4,-354.85 583.92,-348.3"/>
<polygon fill="#63b8ff" stroke="#63b8ff" points="582.19,-372.37 586.42,-382.08 589.17,-371.85 582.19,-372.37"/>
</a>
</g>
</g>
<!-- Node4 -->
<g id="Node000004" class="node">
<title>Node4</title>
<g id="a_Node000004"><a xlink:href="_control_8h.html" target="_top" xlink:title=" ">
<polygon fill="white" stroke="#666666" points="815.6,-286 678.85,-286 678.85,-266 815.6,-266 815.6,-286"/>
<text text-anchor="middle" x="747.23" y="-272.5" font-family="Helvetica,sans-Serif" font-size="10.00">Storm/Component/Control.h</text>
</a>
</g>
</g>
<!-- Node3&#45;&gt;Node4 -->
<g id="edge3_Node000003_Node000004" class="edge">
<title>Node3&#45;&gt;Node4</title>
<g id="a_edge3_Node000003_Node000004"><a xlink:title=" ">
<path fill="none" stroke="#63b8ff" d="M619.61,-323.69C650.53,-312.38 694.12,-296.43 721.51,-286.41"/>
<polygon fill="#63b8ff" stroke="#63b8ff" points="618.46,-320.38 610.28,-327.1 620.87,-326.96 618.46,-320.38"/>
</a>
</g>
</g>
<!-- Node13 -->
<g id="Node000013" class="node">
<title>Node13</title>
<g id="a_Node000013"><a xlink:href="_fan_control_8h.html" target="_top" xlink:title=" ">
<polygon fill="white" stroke="#666666" points="325.85,-286 172.6,-286 172.6,-266 325.85,-266 325.85,-286"/>
<text text-anchor="middle" x="249.23" y="-272.5" font-family="Helvetica,sans-Serif" font-size="10.00">Storm/Component/FanControl.h</text>
</a>
</g>
</g>
<!-- Node3&#45;&gt;Node13 -->
<g id="edge19_Node000003_Node000013" class="edge">
<title>Node3&#45;&gt;Node13</title>
<g id="a_edge19_Node000003_Node000013"><a xlink:title=" ">
<path fill="none" stroke="#63b8ff" d="M519.68,-325.58C456.61,-314.25 361.05,-297.09 302.03,-286.48"/>
<polygon fill="#63b8ff" stroke="#63b8ff" points="518.72,-328.97 529.18,-327.29 519.96,-322.08 518.72,-328.97"/>
</a>
</g>
</g>
<!-- Node14 -->
<g id="Node000014" class="node">
<title>Node14</title>
<g id="a_Node000014"><a xlink:href="_component_2_operating_mode_8h.html" target="_top" xlink:title=" ">
<polygon fill="white" stroke="#666666" points="661.1,-292 521.35,-292 521.35,-260 661.1,-260 661.1,-292"/>
<text text-anchor="start" x="529.35" y="-278.5" font-family="Helvetica,sans-Serif" font-size="10.00">Storm/Component/Operating</text>
<text text-anchor="middle" x="591.23" y="-266.5" font-family="Helvetica,sans-Serif" font-size="10.00">Mode.h</text>
</a>
</g>
</g>
<!-- Node3&#45;&gt;Node14 -->
<g id="edge21_Node000003_Node000014" class="edge">
<title>Node3&#45;&gt;Node14</title>
<g id="a_edge21_Node000003_Node000014"><a xlink:title=" ">
<path fill="none" stroke="#63b8ff" d="M585.99,-316.31C587.05,-308.37 588.23,-299.46 589.21,-292.14"/>
<polygon fill="#63b8ff" stroke="#63b8ff" points="582.53,-315.75 584.68,-326.12 589.47,-316.68 582.53,-315.75"/>
</a>
</g>
</g>
<!-- Node15 -->
<g id="Node000015" class="node">
<title>Node15</title>
<g id="a_Node000015"><a xlink:href="_model_points_8h.html" target="_top" xlink:title="This file defines all of the Model Points for the Thermostat Application.">
<polygon fill="white" stroke="#666666" points="502.85,-286 343.6,-286 343.6,-266 502.85,-266 502.85,-286"/>
<text text-anchor="middle" x="423.23" y="-272.5" font-family="Helvetica,sans-Serif" font-size="10.00">Storm/Thermostat/ModelPoints.h</text>
</a>
</g>
</g>
<!-- Node3&#45;&gt;Node15 -->
<g id="edge23_Node000003_Node000015" class="edge">
<title>Node3&#45;&gt;Node15</title>
<g id="a_edge23_Node000003_Node000015"><a xlink:title=" ">
<path fill="none" stroke="#63b8ff" d="M547.73,-323.69C517.57,-312.38 475.04,-296.43 448.32,-286.41"/>
<polygon fill="#63b8ff" stroke="#63b8ff" points="546.22,-326.86 556.81,-327.09 548.68,-320.31 546.22,-326.86"/>
</a>
</g>
</g>
<!-- Node5 -->
<g id="Node000005" class="node">
<title>Node5</title>
<g id="a_Node000005"><a xlink:href="_cooling_8h.html" target="_top" xlink:title=" ">
<polygon fill="white" stroke="#666666" points="857.35,-156 713.1,-156 713.1,-124 857.35,-124 857.35,-156"/>
<text text-anchor="start" x="721.1" y="-142.5" font-family="Helvetica,sans-Serif" font-size="10.00">Storm/Component/Equipment</text>
<text text-anchor="middle" x="785.23" y="-130.5" font-family="Helvetica,sans-Serif" font-size="10.00">/Cooling.h</text>
</a>
</g>
</g>
<!-- Node4&#45;&gt;Node5 -->
<g id="edge4_Node000004_Node000005" class="edge">
<title>Node4&#45;&gt;Node5</title>
<g id="a_edge4_Node000004_Node000005"><a xlink:title=" ">
<path fill="none" stroke="#63b8ff" d="M751.16,-254.41C754.57,-237.5 759.95,-212.99 766.23,-192 769.86,-179.87 774.9,-166.47 778.87,-156.44"/>
<polygon fill="#63b8ff" stroke="#63b8ff" points="747.73,-253.71 749.24,-264.2 754.6,-255.06 747.73,-253.71"/>
</a>
</g>
</g>
<!-- Node6 -->
<g id="Node000006" class="node">
<title>Node6</title>
<g id="a_Node000006"><a xlink:href="_algorithm_8h.html" target="_top" xlink:title=" ">
<polygon fill="white" stroke="#666666" points="896.48,-20 749.98,-20 749.98,0 896.48,0 896.48,-20"/>
<text text-anchor="middle" x="823.23" y="-6.5" font-family="Helvetica,sans-Serif" font-size="10.00">Storm/Thermostat/Algorithm.h</text>
</a>
</g>
</g>
<!-- Node4&#45;&gt;Node6 -->
<g id="edge18_Node000004_Node000006" class="edge">
<title>Node4&#45;&gt;Node6</title>
<g id="a_edge18_Node000004_Node000006"><a xlink:title=" ">
<path fill="none" stroke="#63b8ff" d="M733.8,-256.15C714.84,-227.04 684.59,-169.73 704.23,-124 715.58,-97.56 783.11,-42.49 811.09,-20.43"/>
<polygon fill="#63b8ff" stroke="#63b8ff" points="730.8,-257.96 739.31,-264.27 736.59,-254.03 730.8,-257.96"/>
</a>
</g>
</g>
<!-- Node7 -->
<g id="Node000007" class="node">
<title>Node7</title>
<g id="a_Node000007"><a xlink:href="_indoor_heating_8h.html" target="_top" xlink:title=" ">
<polygon fill="white" stroke="#666666" points="1019.35,-156 875.1,-156 875.1,-124 1019.35,-124 1019.35,-156"/>
<text text-anchor="start" x="883.1" y="-142.5" font-family="Helvetica,sans-Serif" font-size="10.00">Storm/Component/Equipment</text>
<text text-anchor="middle" x="947.23" y="-130.5" font-family="Helvetica,sans-Serif" font-size="10.00">/IndoorHeating.h</text>
</a>
</g>
</g>
<!-- Node4&#45;&gt;Node7 -->
<g id="edge6_Node000004_Node000007" class="edge">
<title>Node4&#45;&gt;Node7</title>
<g id="a_edge6_Node000004_Node000007"><a xlink:title=" ">
<path fill="none" stroke="#63b8ff" d="M827.04,-270.53C862.55,-264.47 902.13,-251.42 928.23,-224 945.65,-205.69 948.28,-174.81 948.1,-156.32"/>
<polygon fill="#63b8ff" stroke="#63b8ff" points="826.53,-267.07 817.17,-272.04 827.59,-273.99 826.53,-267.07"/>
</a>
</g>
</g>
<!-- Node8 -->
<g id="Node000008" class="node">
<title>Node8</title>
<g id="a_Node000008"><a xlink:href="_off_8h.html" target="_top" xlink:title=" ">
<polygon fill="white" stroke="#666666" points="719.35,-88 575.1,-88 575.1,-56 719.35,-56 719.35,-88"/>
<text text-anchor="start" x="583.1" y="-74.5" font-family="Helvetica,sans-Serif" font-size="10.00">Storm/Component/Equipment</text>
<text text-anchor="middle" x="647.23" y="-62.5" font-family="Helvetica,sans-Serif" font-size="10.00">/Off.h</text>
</a>
</g>
</g>
<!-- Node4&#45;&gt;Node8 -->
<g id="edge8_Node000004_Node000008" class="edge">
<title>Node4&#45;&gt;Node8</title>
<g id="a_edge8_Node000004_Node000008"><a xlink:title=" ">
<path fill="none" stroke="#63b8ff" d="M714.27,-260.67C698.77,-252.23 681.48,-240.04 671.23,-224 643.64,-180.83 644.01,-116.93 645.86,-88.09"/>
<polygon fill="#63b8ff" stroke="#63b8ff" points="712.26,-263.57 722.76,-264.98 715.44,-257.33 712.26,-263.57"/>
</a>
</g>
</g>
<!-- Node9 -->
<g id="Node000009" class="node">
<title>Node9</title>
<g id="a_Node000009"><a xlink:href="_stage_api_8h.html" target="_top" xlink:title=" ">
<polygon fill="white" stroke="#666666" points="919.35,-224 775.1,-224 775.1,-192 919.35,-192 919.35,-224"/>
<text text-anchor="start" x="783.1" y="-210.5" font-family="Helvetica,sans-Serif" font-size="10.00">Storm/Component/Equipment</text>
<text text-anchor="middle" x="847.23" y="-198.5" font-family="Helvetica,sans-Serif" font-size="10.00">/StageApi.h</text>
</a>
</g>
</g>
<!-- Node4&#45;&gt;Node9 -->
<g id="edge10_Node000004_Node000009" class="edge">
<title>Node4&#45;&gt;Node9</title>
<g id="a_edge10_Node000004_Node000009"><a xlink:title=" ">
<path fill="none" stroke="#63b8ff" d="M770.81,-259.44C786.88,-248.83 808.06,-234.85 824.05,-224.3"/>
<polygon fill="#63b8ff" stroke="#63b8ff" points="769.24,-256.28 762.82,-264.71 773.09,-262.12 769.24,-256.28"/>
</a>
</g>
</g>
<!-- Node5&#45;&gt;Node6 -->
<g id="edge5_Node000005_Node000006" class="edge">
<title>Node5&#45;&gt;Node6</title>
<g id="a_edge5_Node000005_Node000006"><a xlink:title=" ">
<path fill="none" stroke="#63b8ff" d="M792.66,-112.78C797.34,-96.43 803.54,-74.96 809.23,-56 812.94,-43.62 817.41,-29.38 820.28,-20.29"/>
<polygon fill="#63b8ff" stroke="#63b8ff" points="789.35,-111.64 789.98,-122.22 796.08,-113.56 789.35,-111.64"/>
</a>
</g>
</g>
<!-- Node7&#45;&gt;Node6 -->
<g id="edge7_Node000007_Node000006" class="edge">
<title>Node7&#45;&gt;Node6</title>
<g id="a_edge7_Node000007_Node000006"><a xlink:title=" ">
<path fill="none" stroke="#63b8ff" d="M883.49,-118.92C868.1,-111.39 853,-101.31 842.23,-88 826.03,-67.98 823.36,-36.12 823.1,-20.4"/>
<polygon fill="#63b8ff" stroke="#63b8ff" points="881.68,-121.94 892.23,-122.89 884.57,-115.57 881.68,-121.94"/>
</a>
</g>
</g>
<!-- Node8&#45;&gt;Node6 -->
<g id="edge9_Node000008_Node000006" class="edge">
<title>Node8&#45;&gt;Node6</title>
<g id="a_edge9_Node000008_Node000006"><a xlink:title=" ">
<path fill="none" stroke="#63b8ff" d="M703.15,-51.94C733.89,-41.46 770.69,-28.91 795.37,-20.5"/>
<polygon fill="#63b8ff" stroke="#63b8ff" points="702.32,-48.52 693.99,-55.06 704.58,-55.15 702.32,-48.52"/>
</a>
</g>
</g>
<!-- Node9&#45;&gt;Node5 -->
<g id="edge11_Node000009_Node000005" class="edge">
<title>Node9&#45;&gt;Node5</title>
<g id="a_edge11_Node000009_Node000005"><a xlink:title=" ">
<path fill="none" stroke="#63b8ff" d="M825.09,-183.43C816.58,-174.38 807.11,-164.29 799.53,-156.22"/>
<polygon fill="#63b8ff" stroke="#63b8ff" points="822.42,-185.7 831.81,-190.59 827.52,-180.9 822.42,-185.7"/>
</a>
</g>
</g>
<!-- Node9&#45;&gt;Node7 -->
<g id="edge12_Node000009_Node000007" class="edge">
<title>Node9&#45;&gt;Node7</title>
<g id="a_edge12_Node000009_Node000007"><a xlink:title=" ">
<path fill="none" stroke="#63b8ff" d="M880.18,-185.25C894.49,-175.81 910.92,-164.97 923.93,-156.38"/>
<polygon fill="#63b8ff" stroke="#63b8ff" points="878.36,-182.26 871.94,-190.69 882.21,-188.1 878.36,-182.26"/>
</a>
</g>
</g>
<!-- Node10 -->
<g id="Node000010" class="node">
<title>Node10</title>
<g id="a_Node000010"><a xlink:href="_storm_2_component_2_equipment_2_stage_2_basic_8h.html" target="_top" xlink:title=" ">
<polygon fill="white" stroke="#666666" points="1219.35,-156 1075.1,-156 1075.1,-124 1219.35,-124 1219.35,-156"/>
<text text-anchor="start" x="1083.1" y="-142.5" font-family="Helvetica,sans-Serif" font-size="10.00">Storm/Component/Equipment</text>
<text text-anchor="middle" x="1147.23" y="-130.5" font-family="Helvetica,sans-Serif" font-size="10.00">/Stage/Basic.h</text>
</a>
</g>
</g>
<!-- Node9&#45;&gt;Node10 -->
<g id="edge13_Node000009_Node000010" class="edge">
<title>Node9&#45;&gt;Node10</title>
<g id="a_edge13_Node000009_Node000010"><a xlink:title=" ">
<path fill="none" stroke="#63b8ff" d="M928.78,-189.06C975.09,-178.87 1032.48,-166.24 1076.81,-156.49"/>
<polygon fill="#63b8ff" stroke="#63b8ff" points="928.06,-185.63 919.04,-191.2 929.56,-192.47 928.06,-185.63"/>
</a>
</g>
</g>
<!-- Node11 -->
<g id="Node000011" class="node">
<title>Node11</title>
<g id="a_Node000011"><a xlink:href="_basic_cooling_8h.html" target="_top" xlink:title=" ">
<polygon fill="white" stroke="#666666" points="1319.35,-88 1175.1,-88 1175.1,-56 1319.35,-56 1319.35,-88"/>
<text text-anchor="start" x="1183.1" y="-74.5" font-family="Helvetica,sans-Serif" font-size="10.00">Storm/Component/Equipment</text>
<text text-anchor="middle" x="1247.23" y="-62.5" font-family="Helvetica,sans-Serif" font-size="10.00">/Stage/BasicCooling.h</text>
</a>
</g>
</g>
<!-- Node10&#45;&gt;Node11 -->
<g id="edge14_Node000010_Node000011" class="edge">
<title>Node10&#45;&gt;Node11</title>
<g id="a_edge14_Node000010_Node000011"><a xlink:title=" ">
<path fill="none" stroke="#63b8ff" d="M1180.18,-117.25C1194.49,-107.81 1210.92,-96.97 1223.93,-88.38"/>
<polygon fill="#63b8ff" stroke="#63b8ff" points="1178.36,-114.26 1171.94,-122.69 1182.21,-120.1 1178.36,-114.26"/>
</a>
</g>
</g>
<!-- Node12 -->
<g id="Node000012" class="node">
<title>Node12</title>
<g id="a_Node000012"><a xlink:href="_basic_indoor_heat_8h.html" target="_top" xlink:title=" ">
<polygon fill="white" stroke="#666666" points="1157.35,-88 1013.1,-88 1013.1,-56 1157.35,-56 1157.35,-88"/>
<text text-anchor="start" x="1021.1" y="-74.5" font-family="Helvetica,sans-Serif" font-size="10.00">Storm/Component/Equipment</text>
<text text-anchor="middle" x="1085.23" y="-62.5" font-family="Helvetica,sans-Serif" font-size="10.00">/Stage/BasicIndoorHeat.h</text>
</a>
</g>
</g>
<!-- Node10&#45;&gt;Node12 -->
<g id="edge16_Node000010_Node000012" class="edge">
<title>Node10&#45;&gt;Node12</title>
<g id="a_edge16_Node000010_Node000012"><a xlink:title=" ">
<path fill="none" stroke="#63b8ff" d="M1125.09,-115.43C1116.58,-106.38 1107.11,-96.29 1099.53,-88.22"/>
<polygon fill="#63b8ff" stroke="#63b8ff" points="1122.42,-117.7 1131.81,-122.59 1127.52,-112.9 1122.42,-117.7"/>
</a>
</g>
</g>
<!-- Node11&#45;&gt;Node6 -->
<g id="edge15_Node000011_Node000006" class="edge">
<title>Node11&#45;&gt;Node6</title>
<g id="a_edge15_Node000011_Node000006"><a xlink:title=" ">
<path fill="none" stroke="#63b8ff" d="M1163.54,-55.62C1065.62,-40.35 963.64,-27.51 896.66,-19.5"/>
<polygon fill="#63b8ff" stroke="#63b8ff" points="1162.92,-59.07 1173.34,-57.16 1164.01,-52.15 1162.92,-59.07"/>
</a>
</g>
</g>
<!-- Node12&#45;&gt;Node6 -->
<g id="edge17_Node000012_Node000006" class="edge">
<title>Node12&#45;&gt;Node6</title>
<g id="a_edge17_Node000012_Node000006"><a xlink:title=" ">
<path fill="none" stroke="#63b8ff" d="M1006.75,-53.03C960.07,-42.34 902.73,-29.21 864.7,-20.5"/>
<polygon fill="#63b8ff" stroke="#63b8ff" points="1005.75,-56.39 1016.28,-55.21 1007.32,-49.57 1005.75,-56.39"/>
</a>
</g>
</g>
<!-- Node13&#45;&gt;Node6 -->
<g id="edge20_Node000013_Node000006" class="edge">
<title>Node13&#45;&gt;Node6</title>
<g id="a_edge20_Node000013_Node000006"><a xlink:title=" ">
<path fill="none" stroke="#63b8ff" d="M160.81,-274.34C77.44,-270.08 -29.53,-253.09 8.23,-192 86.52,-65.32 564.29,-25.39 749.74,-14.56"/>
<polygon fill="#63b8ff" stroke="#63b8ff" points="160.49,-277.82 170.63,-274.78 160.8,-270.83 160.49,-277.82"/>
</a>
</g>
</g>
<!-- Node14&#45;&gt;Node6 -->
<g id="edge22_Node000014_Node000006" class="edge">
<title>Node14&#45;&gt;Node6</title>
<g id="a_edge22_Node000014_Node000006"><a xlink:title=" ">
<path fill="none" stroke="#63b8ff" d="M586.01,-248.23C575.57,-193.03 554.07,-70.47 566.23,-56 589.28,-28.56 682.04,-17.85 749.52,-13.67"/>
<polygon fill="#63b8ff" stroke="#63b8ff" points="582.57,-248.88 587.89,-258.04 589.45,-247.56 582.57,-248.88"/>
</a>
</g>
</g>
<!-- Node16 -->
<g id="Node000016" class="node">
<title>Node16</title>
<g id="a_Node000016"><a xlink:href="_installer_record_8h_source.html" target="_top" xlink:title=" ">
<polygon fill="white" stroke="#666666" points="135.23,-224 17.23,-224 17.23,-192 135.23,-192 135.23,-224"/>
<text text-anchor="start" x="25.23" y="-210.5" font-family="Helvetica,sans-Serif" font-size="10.00">Storm/Thermostat/Main</text>
<text text-anchor="middle" x="76.23" y="-198.5" font-family="Helvetica,sans-Serif" font-size="10.00">/InstallerRecord.h</text>
</a>
</g>
</g>
<!-- Node15&#45;&gt;Node16 -->
<g id="edge24_Node000015_Node000016" class="edge">
<title>Node15&#45;&gt;Node16</title>
<g id="a_edge24_Node000015_Node000016"><a xlink:title=" ">
<path fill="none" stroke="#63b8ff" d="M356.76,-263.55C300.15,-253.63 216.71,-238.61 144.23,-224 141.38,-223.43 138.48,-222.83 135.54,-222.22"/>
<polygon fill="#63b8ff" stroke="#63b8ff" points="356.12,-266.99 366.57,-265.26 357.32,-260.09 356.12,-266.99"/>
</a>
</g>
</g>
<!-- Node18 -->
<g id="Node000018" class="node">
<title>Node18</title>
<g id="a_Node000018"><a xlink:href="_run_time_record_8h_source.html" target="_top" xlink:title=" ">
<polygon fill="white" stroke="#666666" points="271.23,-224 153.23,-224 153.23,-192 271.23,-192 271.23,-224"/>
<text text-anchor="start" x="161.23" y="-210.5" font-family="Helvetica,sans-Serif" font-size="10.00">Storm/Thermostat/Main</text>
<text text-anchor="middle" x="212.23" y="-198.5" font-family="Helvetica,sans-Serif" font-size="10.00">/RunTimeRecord.h</text>
</a>
</g>
</g>
<!-- Node15&#45;&gt;Node18 -->
<g id="edge26_Node000015_Node000018" class="edge">
<title>Node15&#45;&gt;Node18</title>
<g id="a_edge26_Node000015_Node000018"><a xlink:title=" ">
<path fill="none" stroke="#63b8ff" d="M382.35,-262.21C347.82,-251.41 298.28,-235.92 261.55,-224.43"/>
<polygon fill="#63b8ff" stroke="#63b8ff" points="380.96,-265.45 391.55,-265.09 383.05,-258.77 380.96,-265.45"/>
</a>
</g>
</g>
<!-- Node19 -->
<g id="Node000019" class="node">
<title>Node19</title>
<g id="a_Node000019"><a xlink:href="_user_record_8h_source.html" target="_top" xlink:title=" ">
<polygon fill="white" stroke="#666666" points="407.23,-224 289.23,-224 289.23,-192 407.23,-192 407.23,-224"/>
<text text-anchor="start" x="297.23" y="-210.5" font-family="Helvetica,sans-Serif" font-size="10.00">Storm/Thermostat/Main</text>
<text text-anchor="middle" x="348.23" y="-198.5" font-family="Helvetica,sans-Serif" font-size="10.00">/UserRecord.h</text>
</a>
</g>
</g>
<!-- Node15&#45;&gt;Node19 -->
<g id="edge28_Node000015_Node000019" class="edge">
<title>Node15&#45;&gt;Node19</title>
<g id="a_edge28_Node000015_Node000019"><a xlink:title=" ">
<path fill="none" stroke="#63b8ff" d="M404.16,-258.22C392.3,-247.78 377.15,-234.45 365.62,-224.3"/>
<polygon fill="#63b8ff" stroke="#63b8ff" points="401.53,-260.57 411.35,-264.54 406.15,-255.31 401.53,-260.57"/>
</a>
</g>
</g>
<!-- Node20 -->
<g id="Node000020" class="node">
<title>Node20</title>
<g id="a_Node000020"><a xlink:href="_event_monitor_8h_source.html" target="_top" xlink:title=" ">
<polygon fill="white" stroke="#666666" points="563.35,-224 425.1,-224 425.1,-192 563.35,-192 563.35,-224"/>
<text text-anchor="start" x="433.1" y="-210.5" font-family="Helvetica,sans-Serif" font-size="10.00">Storm/Thermostat/Ui</text>
<text text-anchor="middle" x="494.23" y="-198.5" font-family="Helvetica,sans-Serif" font-size="10.00">/PicoDisplay/EventMonitor.h</text>
</a>
</g>
</g>
<!-- Node15&#45;&gt;Node20 -->
<g id="edge30_Node000015_Node000020" class="edge">
<title>Node15&#45;&gt;Node20</title>
<g id="a_edge30_Node000015_Node000020"><a xlink:title=" ">
<path fill="none" stroke="#63b8ff" d="M441.61,-257.91C452.79,-247.52 466.95,-234.35 477.77,-224.3"/>
<polygon fill="#63b8ff" stroke="#63b8ff" points="439.45,-255.14 434.51,-264.51 444.22,-260.27 439.45,-255.14"/>
</a>
</g>
</g>
<!-- Node17 -->
<g id="Node000017" class="node">
<title>Node17</title>
<g id="a_Node000017"><a xlink:href="statics___8h.html" target="_top" xlink:title="This file defines/creates persistent records and record server for the Thermostat simulation.">
<polygon fill="white" stroke="#666666" points="271.23,-156 153.23,-156 153.23,-124 271.23,-124 271.23,-156"/>
<text text-anchor="start" x="161.23" y="-142.5" font-family="Helvetica,sans-Serif" font-size="10.00">Storm/Thermostat/Main</text>
<text text-anchor="middle" x="212.23" y="-130.5" font-family="Helvetica,sans-Serif" font-size="10.00">/_simulation/statics_.h</text>
</a>
</g>
</g>
<!-- Node16&#45;&gt;Node17 -->
<g id="edge25_Node000016_Node000017" class="edge">
<title>Node16&#45;&gt;Node17</title>
<g id="a_edge25_Node000016_Node000017"><a xlink:title=" ">
<path fill="none" stroke="#63b8ff" d="M118.25,-186.61C138.34,-176.86 161.99,-165.38 180.54,-156.38"/>
<polygon fill="#63b8ff" stroke="#63b8ff" points="116.95,-183.35 109.48,-190.87 120,-189.65 116.95,-183.35"/>
</a>
</g>
</g>
<!-- Node18&#45;&gt;Node17 -->
<g id="edge27_Node000018_Node000017" class="edge">
<title>Node18&#45;&gt;Node17</title>
<g id="a_edge27_Node000018_Node000017"><a xlink:title=" ">
<path fill="none" stroke="#63b8ff" d="M212.23,-180.31C212.23,-172.12 212.23,-163.38 212.23,-156.22"/>
<polygon fill="#63b8ff" stroke="#63b8ff" points="208.73,-180.18 212.23,-190.18 215.73,-180.18 208.73,-180.18"/>
</a>
</g>
</g>
<!-- Node19&#45;&gt;Node17 -->
<g id="edge29_Node000019_Node000017" class="edge">
<title>Node19&#45;&gt;Node17</title>
<g id="a_edge29_Node000019_Node000017"><a xlink:title=" ">
<path fill="none" stroke="#63b8ff" d="M306.21,-186.61C286.12,-176.86 262.46,-165.38 243.92,-156.38"/>
<polygon fill="#63b8ff" stroke="#63b8ff" points="304.46,-189.65 314.98,-190.87 307.51,-183.35 304.46,-189.65"/>
</a>
</g>
</g>
<!-- Node22 -->
<g id="Node000022" class="node">
<title>Node22</title>
<g id="a_Node000022"><a xlink:href="_mp_system_config_8h.html" target="_top" xlink:title=" ">
<polygon fill="white" stroke="#666666" points="820.1,-348 674.35,-348 674.35,-328 820.1,-328 820.1,-348"/>
<text text-anchor="middle" x="747.23" y="-334.5" font-family="Helvetica,sans-Serif" font-size="10.00">Storm/Dm/MpSystemConfig.h</text>
</a>
</g>
</g>
<!-- Node21&#45;&gt;Node22 -->
<g id="edge32_Node000021_Node000022" class="edge">
<title>Node21&#45;&gt;Node22</title>
<g id="a_edge32_Node000021_Node000022"><a xlink:title=" ">
<path fill="none" stroke="#63b8ff" d="M746,-372.13C746.31,-363.9 746.64,-354.85 746.88,-348.3"/>
<polygon fill="#63b8ff" stroke="#63b8ff" points="742.51,-371.96 745.63,-382.08 749.5,-372.22 742.51,-371.96"/>
</a>
</g>
</g>
<!-- Node22&#45;&gt;Node4 -->
<g id="edge33_Node000022_Node000004" class="edge">
<title>Node22&#45;&gt;Node4</title>
<g id="a_edge33_Node000022_Node000004"><a xlink:title=" ">
<path fill="none" stroke="#63b8ff" d="M747.23,-316.25C747.23,-305.97 747.23,-294.09 747.23,-286.11"/>
<polygon fill="#63b8ff" stroke="#63b8ff" points="743.73,-316.11 747.23,-326.11 750.73,-316.11 743.73,-316.11"/>
</a>
</g>
</g>
<!-- Node22&#45;&gt;Node13 -->
<g id="edge34_Node000022_Node000013" class="edge">
<title>Node22&#45;&gt;Node13</title>
<g id="a_edge34_Node000022_Node000013"><a xlink:title=" ">
<path fill="none" stroke="#63b8ff" d="M662.71,-327.73C516.23,-311.96 477.15,-312.36 334.23,-292 322.95,-290.39 310.88,-288.42 299.48,-286.44"/>
<polygon fill="#63b8ff" stroke="#63b8ff" points="662.09,-331.19 672.41,-328.79 662.84,-324.23 662.09,-331.19"/>
</a>
</g>
</g>
<!-- Node22&#45;&gt;Node14 -->
<g id="edge37_Node000022_Node000014" class="edge">
<title>Node22&#45;&gt;Node14</title>
<g id="a_edge37_Node000022_Node000014"><a xlink:title=" ">
<path fill="none" stroke="#63b8ff" d="M712.13,-323.5C688.21,-314.3 656.46,-302.09 631.5,-292.49"/>
<polygon fill="#63b8ff" stroke="#63b8ff" points="710.85,-326.76 721.44,-327.08 713.36,-320.23 710.85,-326.76"/>
</a>
</g>
</g>
<!-- Node22&#45;&gt;Node15 -->
<g id="edge44_Node000022_Node000015" class="edge">
<title>Node22&#45;&gt;Node15</title>
<g id="a_edge44_Node000022_Node000015"><a xlink:title=" ">
<path fill="none" stroke="#63b8ff" d="M685.2,-325.51C624.01,-314.18 531.59,-297.07 474.45,-286.48"/>
<polygon fill="#63b8ff" stroke="#63b8ff" points="684.29,-328.9 694.76,-327.28 685.56,-322.02 684.29,-328.9"/>
</a>
</g>
</g>
<!-- Node23 -->
<g id="Node000023" class="node">
<title>Node23</title>
<g id="a_Node000023"><a xlink:href="_component_2_hvac_relay_outputs_8h.html" target="_top" xlink:title=" ">
<polygon fill="white" stroke="#666666" points="994.98,-88 851.48,-88 851.48,-56 994.98,-56 994.98,-88"/>
<text text-anchor="start" x="859.48" y="-74.5" font-family="Helvetica,sans-Serif" font-size="10.00">Storm/Component/HvacRelay</text>
<text text-anchor="middle" x="923.23" y="-62.5" font-family="Helvetica,sans-Serif" font-size="10.00">Outputs.h</text>
</a>
</g>
</g>
<!-- Node22&#45;&gt;Node23 -->
<g id="edge35_Node000022_Node000023" class="edge">
<title>Node22&#45;&gt;Node23</title>
<g id="a_edge35_Node000022_Node000023"><a xlink:title=" ">
<path fill="none" stroke="#63b8ff" d="M793.73,-324.22C861.56,-302.65 984.34,-251.68 1028.23,-156 1034.16,-143.07 1035.78,-136.05 1028.23,-124 1017.85,-107.42 1000.38,-96.1 982.63,-88.42"/>
<polygon fill="#63b8ff" stroke="#63b8ff" points="792.9,-320.81 784.38,-327.11 794.96,-327.5 792.9,-320.81"/>
</a>
</g>
</g>
<!-- Node24 -->
<g id="Node000024" class="node">
<title>Node24</title>
<g id="a_Node000024"><a xlink:href="_pi_8h.html" target="_top" xlink:title=" ">
<polygon fill="white" stroke="#666666" points="1490.73,-82 1375.73,-82 1375.73,-62 1490.73,-62 1490.73,-82"/>
<text text-anchor="middle" x="1433.23" y="-68.5" font-family="Helvetica,sans-Serif" font-size="10.00">Storm/Component/Pi.h</text>
</a>
</g>
</g>
<!-- Node22&#45;&gt;Node24 -->
<g id="edge38_Node000022_Node000024" class="edge">
<title>Node22&#45;&gt;Node24</title>
<g id="a_edge38_Node000022_Node000024"><a xlink:title=" ">
<path fill="none" stroke="#63b8ff" d="M831.75,-333.61C906.02,-328.96 1016.41,-317.97 1109.23,-292 1251.38,-252.23 1317.32,-269.05 1412.23,-156 1430.39,-134.37 1433.16,-99.13 1433.38,-82.39"/>
<polygon fill="#63b8ff" stroke="#63b8ff" points="831.88,-330.1 822.11,-334.19 832.3,-337.08 831.88,-330.1"/>
</a>
</g>
</g>
<!-- Node25 -->
<g id="Node000025" class="node">
<title>Node25</title>
<g id="a_Node000025"><a xlink:href="_pi_pre_process_8h.html" target="_top" xlink:title=" ">
<polygon fill="white" stroke="#666666" points="1403.23,-150 1237.23,-150 1237.23,-130 1403.23,-130 1403.23,-150"/>
<text text-anchor="middle" x="1320.23" y="-136.5" font-family="Helvetica,sans-Serif" font-size="10.00">Storm/Component/PiPreProcess.h</text>
</a>
</g>
</g>
<!-- Node22&#45;&gt;Node25 -->
<g id="edge40_Node000022_Node000025" class="edge">
<title>Node22&#45;&gt;Node25</title>
<g id="a_edge40_Node000022_Node000025"><a xlink:title=" ">
<path fill="none" stroke="#63b8ff" d="M831.81,-333.68C896.22,-329.07 986.29,-318.1 1061.23,-292 1164.45,-256.06 1272.61,-177.47 1308.15,-150.39"/>
<polygon fill="#63b8ff" stroke="#63b8ff" points="831.74,-330.18 822,-334.34 832.22,-337.16 831.74,-330.18"/>
</a>
</g>
</g>
<!-- Node23&#45;&gt;Node6 -->
<g id="edge36_Node000023_Node000006" class="edge">
<title>Node23&#45;&gt;Node6</title>
<g id="a_edge36_Node000023_Node000006"><a xlink:title=" ">
<path fill="none" stroke="#63b8ff" d="M887.95,-49.83C871.19,-39.78 852.01,-28.27 838.91,-20.41"/>
<polygon fill="#63b8ff" stroke="#63b8ff" points="885.8,-52.63 896.18,-54.77 889.4,-46.62 885.8,-52.63"/>
</a>
</g>
</g>
<!-- Node24&#45;&gt;Node6 -->
<g id="edge39_Node000024_Node000006" class="edge">
<title>Node24&#45;&gt;Node6</title>
<g id="a_edge39_Node000024_Node000006"><a xlink:title=" ">
<path fill="none" stroke="#63b8ff" d="M1381.16,-59.37C1374.47,-58.11 1367.7,-56.94 1361.23,-56 1196.13,-31.99 1000.52,-19.61 896.65,-14.3"/>
<polygon fill="#63b8ff" stroke="#63b8ff" points="1380.29,-62.77 1390.78,-61.27 1381.64,-55.9 1380.29,-62.77"/>
</a>
</g>
</g>
<!-- Node25&#45;&gt;Node6 -->
<g id="edge43_Node000025_Node000006" class="edge">
<title>Node25&#45;&gt;Node6</title>
<g id="a_edge43_Node000025_Node000006"><a xlink:title=" ">
<path fill="none" stroke="#63b8ff" d="M1329.61,-119.3C1336.99,-100.6 1343.68,-72.89 1328.23,-56 1299.71,-24.83 1029.91,-15.1 896.79,-12.19"/>
<polygon fill="#63b8ff" stroke="#63b8ff" points="1326.51,-117.66 1325.73,-128.22 1332.93,-120.45 1326.51,-117.66"/>
</a>
</g>
</g>
<!-- Node25&#45;&gt;Node11 -->
<g id="edge41_Node000025_Node000011" class="edge">
<title>Node25&#45;&gt;Node11</title>
<g id="a_edge41_Node000025_Node000011"><a xlink:title=" ">
<path fill="none" stroke="#63b8ff" d="M1301.33,-121.91C1289.83,-111.52 1275.27,-98.35 1264.15,-88.3"/>
<polygon fill="#63b8ff" stroke="#63b8ff" points="1298.88,-124.42 1308.65,-128.53 1303.58,-119.23 1298.88,-124.42"/>
</a>
</g>
</g>
<!-- Node25&#45;&gt;Node12 -->
<g id="edge42_Node000025_Node000012" class="edge">
<title>Node25&#45;&gt;Node12</title>
<g id="a_edge42_Node000025_Node000012"><a xlink:title=" ">
<path fill="none" stroke="#63b8ff" d="M1275.7,-126.49C1237.2,-115.68 1181.42,-100.01 1140.16,-88.43"/>
<polygon fill="#63b8ff" stroke="#63b8ff" points="1274.53,-129.8 1285.1,-129.13 1276.42,-123.06 1274.53,-129.8"/>
</a>
</g>
</g>
</g>
</svg>
