<?xml version="1.0" encoding="UTF-8" standalone="no"?>
<!DOCTYPE svg PUBLIC "-//W3C//DTD SVG 1.1//EN"
 "http://www.w3.org/Graphics/SVG/1.1/DTD/svg11.dtd">
<!-- Generated by graphviz version 10.0.1 (20240210.2158)
 -->
<!-- Title: Cpl/Io/Tcp/lwIP/Picow/Private_.h Pages: 1 -->
<svg width="246pt" height="108pt"
 viewBox="0.00 0.00 245.75 108.00" xmlns="http://www.w3.org/2000/svg" xmlns:xlink="http://www.w3.org/1999/xlink">
<g id="graph0" class="graph" transform="scale(1 1) rotate(0) translate(4 104)">
<title>Cpl/Io/Tcp/lwIP/Picow/Private_.h</title>
<!-- Node1 -->
<g id="Node000001" class="node">
<title>Node1</title>
<g id="a_Node000001"><a xlink:title=" ">
<polygon fill="#999999" stroke="#666666" points="173.75,-100 64,-100 64,-68 173.75,-68 173.75,-100"/>
<text text-anchor="start" x="72" y="-86.5" font-family="Helvetica,sans-Serif" font-size="10.00">Cpl/Io/Tcp/lwIP/Picow</text>
<text text-anchor="middle" x="118.88" y="-74.5" font-family="Helvetica,sans-Serif" font-size="10.00">/Private_.h</text>
</a>
</g>
</g>
<!-- Node2 -->
<g id="Node000002" class="node">
<title>Node2</title>
<g id="a_Node000002"><a xlink:href="lw_i_p_2_picow_2_async_connector_8h.html" target="_top" xlink:title=" ">
<polygon fill="white" stroke="#666666" points="109.75,-32 0,-32 0,0 109.75,0 109.75,-32"/>
<text text-anchor="start" x="8" y="-18.5" font-family="Helvetica,sans-Serif" font-size="10.00">Cpl/Io/Tcp/lwIP/Picow</text>
<text text-anchor="middle" x="54.88" y="-6.5" font-family="Helvetica,sans-Serif" font-size="10.00">/AsyncConnector.h</text>
</a>
</g>
</g>
<!-- Node1&#45;&gt;Node2 -->
<g id="edge1_Node000001_Node000002" class="edge">
<title>Node1&#45;&gt;Node2</title>
<g id="a_edge1_Node000001_Node000002"><a xlink:title=" ">
<path fill="none" stroke="#63b8ff" d="M96.02,-59.43C87.24,-50.38 77.46,-40.29 69.64,-32.22"/>
<polygon fill="#63b8ff" stroke="#63b8ff" points="93.5,-61.86 102.98,-66.61 98.53,-56.99 93.5,-61.86"/>
</a>
</g>
</g>
<!-- Node3 -->
<g id="Node000003" class="node">
<title>Node3</title>
<g id="a_Node000003"><a xlink:href="lw_i_p_2_picow_2_async_listener_8h.html" target="_top" xlink:title=" ">
<polygon fill="white" stroke="#666666" points="237.75,-32 128,-32 128,0 237.75,0 237.75,-32"/>
<text text-anchor="start" x="136" y="-18.5" font-family="Helvetica,sans-Serif" font-size="10.00">Cpl/Io/Tcp/lwIP/Picow</text>
<text text-anchor="middle" x="182.88" y="-6.5" font-family="Helvetica,sans-Serif" font-size="10.00">/AsyncListener.h</text>
</a>
</g>
</g>
<!-- Node1&#45;&gt;Node3 -->
<g id="edge2_Node000001_Node000003" class="edge">
<title>Node1&#45;&gt;Node3</title>
<g id="a_edge2_Node000001_Node000003"><a xlink:title=" ">
<path fill="none" stroke="#63b8ff" d="M141.73,-59.43C150.51,-50.38 160.29,-40.29 168.11,-32.22"/>
<polygon fill="#63b8ff" stroke="#63b8ff" points="139.22,-56.99 134.77,-66.61 144.25,-61.86 139.22,-56.99"/>
</a>
</g>
</g>
</g>
</svg>
