<?xml version="1.0" encoding="UTF-8" standalone="no"?>
<!DOCTYPE svg PUBLIC "-//W3C//DTD SVG 1.1//EN"
 "http://www.w3.org/Graphics/SVG/1.1/DTD/svg11.dtd">
<!-- Generated by graphviz version 2.38.0 (20140413.2041)
 -->
<!-- Title: Cpl/Dm/Mp/Basic.h Pages: 1 -->
<svg width="2134pt" height="419pt"
 viewBox="0.00 0.00 2133.50 419.00" xmlns="http://www.w3.org/2000/svg" xmlns:xlink="http://www.w3.org/1999/xlink">
<g id="graph0" class="graph" transform="scale(1 1) rotate(0) translate(4 415)">
<title>Cpl/Dm/Mp/Basic.h</title>
<polygon fill="white" stroke="none" points="-4,4 -4,-415 2129.5,-415 2129.5,4 -4,4"/>
<!-- Node1 -->
<g id="node1" class="node"><title>Node1</title>
<g id="a_node1"><a xlink:title=" ">
<polygon fill="#bfbfbf" stroke="black" points="1543,-391.5 1543,-410.5 1644,-410.5 1644,-391.5 1543,-391.5"/>
<text text-anchor="middle" x="1593.5" y="-398.5" font-family="Helvetica,sans-Serif" font-size="10.00">Cpl/Dm/Mp/Basic.h</text>
</a>
</g>
</g>
<!-- Node2 -->
<g id="node2" class="node"><title>Node2</title>
<g id="a_node2"><a xlink:href="_bool_8h.html" target="_top" xlink:title=" ">
<polygon fill="white" stroke="black" points="942.5,-330 942.5,-349 1038.5,-349 1038.5,-330 942.5,-330"/>
<text text-anchor="middle" x="990.5" y="-337" font-family="Helvetica,sans-Serif" font-size="10.00">Cpl/Dm/Mp/Bool.h</text>
</a>
</g>
</g>
<!-- Node1&#45;&gt;Node2 -->
<g id="edge1" class="edge"><title>Node1&#45;&gt;Node2</title>
<path fill="none" stroke="midnightblue" d="M1532.79,-396.352C1435.86,-390.162 1240.28,-376.176 1075.5,-355 1062.73,-353.359 1048.95,-351.184 1036.27,-349.019"/>
<polygon fill="midnightblue" stroke="midnightblue" points="1532.78,-399.858 1542.98,-396.997 1533.22,-392.872 1532.78,-399.858"/>
</g>
<!-- Node23 -->
<g id="node23" class="node"><title>Node23</title>
<g id="a_node23"><a xlink:href="_double_8h.html" target="_top" xlink:title=" ">
<polygon fill="white" stroke="black" points="1664,-330 1664,-349 1771,-349 1771,-330 1664,-330"/>
<text text-anchor="middle" x="1717.5" y="-337" font-family="Helvetica,sans-Serif" font-size="10.00">Cpl/Dm/Mp/Double.h</text>
</a>
</g>
</g>
<!-- Node1&#45;&gt;Node23 -->
<g id="edge37" class="edge"><title>Node1&#45;&gt;Node23</title>
<path fill="none" stroke="midnightblue" d="M1620.55,-387.021C1644.6,-375.482 1679.06,-358.943 1699.77,-349.009"/>
<polygon fill="midnightblue" stroke="midnightblue" points="1618.77,-383.993 1611.27,-391.475 1621.8,-390.304 1618.77,-383.993"/>
</g>
<!-- Node24 -->
<g id="node24" class="node"><title>Node24</title>
<g id="a_node24"><a xlink:href="_elapsed_precision_time_8h.html" target="_top" xlink:title=" ">
<polygon fill="white" stroke="black" points="1379.5,-324.5 1379.5,-354.5 1523.5,-354.5 1523.5,-324.5 1379.5,-324.5"/>
<text text-anchor="start" x="1387.5" y="-342.5" font-family="Helvetica,sans-Serif" font-size="10.00">Cpl/Dm/Mp/ElapsedPrecision</text>
<text text-anchor="middle" x="1451.5" y="-331.5" font-family="Helvetica,sans-Serif" font-size="10.00">Time.h</text>
</a>
</g>
</g>
<!-- Node1&#45;&gt;Node24 -->
<g id="edge38" class="edge"><title>Node1&#45;&gt;Node24</title>
<path fill="none" stroke="midnightblue" d="M1563.88,-387.59C1540.86,-377.942 1508.91,-364.558 1484.97,-354.523"/>
<polygon fill="midnightblue" stroke="midnightblue" points="1562.58,-390.839 1573.15,-391.475 1565.28,-384.382 1562.58,-390.839"/>
</g>
<!-- Node26 -->
<g id="node26" class="node"><title>Node26</title>
<g id="a_node26"><a xlink:href="_float_8h.html" target="_top" xlink:title=" ">
<polygon fill="white" stroke="black" points="1084.5,-330 1084.5,-349 1182.5,-349 1182.5,-330 1084.5,-330"/>
<text text-anchor="middle" x="1133.5" y="-337" font-family="Helvetica,sans-Serif" font-size="10.00">Cpl/Dm/Mp/Float.h</text>
</a>
</g>
</g>
<!-- Node1&#45;&gt;Node26 -->
<g id="edge43" class="edge"><title>Node1&#45;&gt;Node26</title>
<path fill="none" stroke="midnightblue" d="M1532.78,-393.713C1458.35,-385.778 1328.4,-371.198 1217.5,-355 1205.49,-353.246 1192.56,-351.128 1180.52,-349.059"/>
<polygon fill="midnightblue" stroke="midnightblue" points="1532.6,-397.212 1542.91,-394.787 1533.34,-390.251 1532.6,-397.212"/>
</g>
<!-- Node27 -->
<g id="node27" class="node"><title>Node27</title>
<g id="a_node27"><a xlink:href="_int32_8h.html" target="_top" xlink:title=" ">
<polygon fill="white" stroke="black" points="1789.5,-330 1789.5,-349 1887.5,-349 1887.5,-330 1789.5,-330"/>
<text text-anchor="middle" x="1838.5" y="-337" font-family="Helvetica,sans-Serif" font-size="10.00">Cpl/Dm/Mp/Int32.h</text>
</a>
</g>
</g>
<!-- Node1&#45;&gt;Node27 -->
<g id="edge52" class="edge"><title>Node1&#45;&gt;Node27</title>
<path fill="none" stroke="midnightblue" d="M1639.58,-389.032C1677.44,-379.989 1732.48,-366.781 1780.5,-355 1788.26,-353.096 1796.6,-351.025 1804.47,-349.061"/>
<polygon fill="midnightblue" stroke="midnightblue" points="1638.29,-385.741 1629.37,-391.467 1639.91,-392.55 1638.29,-385.741"/>
</g>
<!-- Node28 -->
<g id="node28" class="node"><title>Node28</title>
<g id="a_node28"><a xlink:href="_int64_8h.html" target="_top" xlink:title=" ">
<polygon fill="white" stroke="black" points="1905.5,-330 1905.5,-349 2003.5,-349 2003.5,-330 1905.5,-330"/>
<text text-anchor="middle" x="1954.5" y="-337" font-family="Helvetica,sans-Serif" font-size="10.00">Cpl/Dm/Mp/Int64.h</text>
</a>
</g>
</g>
<!-- Node1&#45;&gt;Node28 -->
<g id="edge53" class="edge"><title>Node1&#45;&gt;Node28</title>
<path fill="none" stroke="midnightblue" d="M1654.44,-392.725C1715.84,-384.979 1813.17,-371.563 1896.5,-355 1905.05,-353.3 1914.24,-351.155 1922.72,-349.039"/>
<polygon fill="midnightblue" stroke="midnightblue" points="1653.64,-389.297 1644.16,-394.012 1654.51,-396.243 1653.64,-389.297"/>
</g>
<!-- Node29 -->
<g id="node29" class="node"><title>Node29</title>
<g id="a_node29"><a xlink:href="_ref_counter_8h.html" target="_top" xlink:title=" ">
<polygon fill="white" stroke="black" points="1226,-330 1226,-349 1351,-349 1351,-330 1226,-330"/>
<text text-anchor="middle" x="1288.5" y="-337" font-family="Helvetica,sans-Serif" font-size="10.00">Cpl/Dm/Mp/RefCounter.h</text>
</a>
</g>
</g>
<!-- Node1&#45;&gt;Node29 -->
<g id="edge54" class="edge"><title>Node1&#45;&gt;Node29</title>
<path fill="none" stroke="midnightblue" d="M1539.91,-389.546C1480.82,-378.018 1386.89,-359.694 1332.12,-349.009"/>
<polygon fill="midnightblue" stroke="midnightblue" points="1539.32,-392.996 1549.8,-391.475 1540.66,-386.125 1539.32,-392.996"/>
</g>
<!-- Node30 -->
<g id="node30" class="node"><title>Node30</title>
<g id="a_node30"><a xlink:href="_uint32_8h.html" target="_top" xlink:title=" ">
<polygon fill="white" stroke="black" points="1541.5,-330 1541.5,-349 1645.5,-349 1645.5,-330 1541.5,-330"/>
<text text-anchor="middle" x="1593.5" y="-337" font-family="Helvetica,sans-Serif" font-size="10.00">Cpl/Dm/Mp/Uint32.h</text>
</a>
</g>
</g>
<!-- Node1&#45;&gt;Node30 -->
<g id="edge61" class="edge"><title>Node1&#45;&gt;Node30</title>
<path fill="none" stroke="midnightblue" d="M1593.5,-381.317C1593.5,-370.496 1593.5,-357.398 1593.5,-349.009"/>
<polygon fill="midnightblue" stroke="midnightblue" points="1590,-381.475 1593.5,-391.475 1597,-381.475 1590,-381.475"/>
</g>
<!-- Node31 -->
<g id="node31" class="node"><title>Node31</title>
<g id="a_node31"><a xlink:href="_uint64_8h.html" target="_top" xlink:title=" ">
<polygon fill="white" stroke="black" points="2021.5,-330 2021.5,-349 2125.5,-349 2125.5,-330 2021.5,-330"/>
<text text-anchor="middle" x="2073.5" y="-337" font-family="Helvetica,sans-Serif" font-size="10.00">Cpl/Dm/Mp/Uint64.h</text>
</a>
</g>
</g>
<!-- Node1&#45;&gt;Node31 -->
<g id="edge64" class="edge"><title>Node1&#45;&gt;Node31</title>
<path fill="none" stroke="midnightblue" d="M1654.21,-395.9C1736.01,-389.824 1885.96,-376.745 2012.5,-355 2021.83,-353.396 2031.87,-351.208 2041.05,-349.017"/>
<polygon fill="midnightblue" stroke="midnightblue" points="1653.81,-392.419 1644.09,-396.641 1654.32,-399.4 1653.81,-392.419"/>
</g>
<!-- Node3 -->
<g id="node3" class="node"><title>Node3</title>
<g id="a_node3"><a xlink:href="_control_8h.html" target="_top" xlink:title=" ">
<polygon fill="white" stroke="black" points="525,-263 525,-282 662,-282 662,-263 525,-263"/>
<text text-anchor="middle" x="593.5" y="-270" font-family="Helvetica,sans-Serif" font-size="10.00">Storm/Component/Control.h</text>
</a>
</g>
</g>
<!-- Node2&#45;&gt;Node3 -->
<g id="edge2" class="edge"><title>Node2&#45;&gt;Node3</title>
<path fill="none" stroke="midnightblue" d="M932.173,-329.36C869.098,-319.421 765.608,-302.948 676.5,-288 665.247,-286.112 653.147,-284.029 641.759,-282.044"/>
<polygon fill="midnightblue" stroke="midnightblue" points="931.9,-332.86 942.322,-330.958 932.988,-325.946 931.9,-332.86"/>
</g>
<!-- Node12 -->
<g id="node12" class="node"><title>Node12</title>
<g id="a_node12"><a xlink:href="_fan_control_8h.html" target="_top" xlink:title=" ">
<polygon fill="white" stroke="black" points="718.5,-263 718.5,-282 872.5,-282 872.5,-263 718.5,-263"/>
<text text-anchor="middle" x="795.5" y="-270" font-family="Helvetica,sans-Serif" font-size="10.00">Storm/Component/FanControl.h</text>
</a>
</g>
</g>
<!-- Node2&#45;&gt;Node12 -->
<g id="edge18" class="edge"><title>Node2&#45;&gt;Node12</title>
<path fill="none" stroke="midnightblue" d="M954.804,-326.601C916.141,-313.714 855.418,-293.473 821.191,-282.064"/>
<polygon fill="midnightblue" stroke="midnightblue" points="954.012,-330.027 964.606,-329.869 956.225,-323.386 954.012,-330.027"/>
</g>
<!-- Node13 -->
<g id="node13" class="node"><title>Node13</title>
<g id="a_node13"><a xlink:href="_component_2_hvac_relay_outputs_8h.html" target="_top" xlink:title=" ">
<polygon fill="white" stroke="black" points="890.5,-257.5 890.5,-287.5 1036.5,-287.5 1036.5,-257.5 890.5,-257.5"/>
<text text-anchor="start" x="898.5" y="-275.5" font-family="Helvetica,sans-Serif" font-size="10.00">Storm/Component/HvacRelay</text>
<text text-anchor="middle" x="963.5" y="-264.5" font-family="Helvetica,sans-Serif" font-size="10.00">Outputs.h</text>
</a>
</g>
</g>
<!-- Node2&#45;&gt;Node13 -->
<g id="edge20" class="edge"><title>Node2&#45;&gt;Node13</title>
<path fill="none" stroke="midnightblue" d="M982.977,-320.39C978.67,-310.02 973.345,-297.201 969.352,-287.589"/>
<polygon fill="midnightblue" stroke="midnightblue" points="979.79,-321.841 986.859,-329.734 986.255,-319.156 979.79,-321.841"/>
</g>
<!-- Node14 -->
<g id="node14" class="node"><title>Node14</title>
<g id="a_node14"><a xlink:href="_idt_selection_8h.html" target="_top" xlink:title=" ">
<polygon fill="white" stroke="black" points="1054.5,-263 1054.5,-282 1212.5,-282 1212.5,-263 1054.5,-263"/>
<text text-anchor="middle" x="1133.5" y="-270" font-family="Helvetica,sans-Serif" font-size="10.00">Storm/Component/IdtSelection.h</text>
</a>
</g>
</g>
<!-- Node2&#45;&gt;Node14 -->
<g id="edge22" class="edge"><title>Node2&#45;&gt;Node14</title>
<path fill="none" stroke="midnightblue" d="M1018.85,-325.613C1047.17,-312.739 1089.93,-293.306 1114.43,-282.167"/>
<polygon fill="midnightblue" stroke="midnightblue" points="1017.14,-322.544 1009.49,-329.869 1020.04,-328.917 1017.14,-322.544"/>
</g>
<!-- Node15 -->
<g id="node15" class="node"><title>Node15</title>
<g id="a_node15"><a xlink:href="_component_2_operating_mode_8h.html" target="_top" xlink:title=" ">
<polygon fill="white" stroke="black" points="1364.5,-257.5 1364.5,-287.5 1504.5,-287.5 1504.5,-257.5 1364.5,-257.5"/>
<text text-anchor="start" x="1372.5" y="-275.5" font-family="Helvetica,sans-Serif" font-size="10.00">Storm/Component/Operating</text>
<text text-anchor="middle" x="1434.5" y="-264.5" font-family="Helvetica,sans-Serif" font-size="10.00">Mode.h</text>
</a>
</g>
</g>
<!-- Node2&#45;&gt;Node15 -->
<g id="edge24" class="edge"><title>Node2&#45;&gt;Node15</title>
<path fill="none" stroke="midnightblue" d="M1048.59,-328.265C1057.59,-326.773 1066.79,-325.303 1075.5,-324 1199.59,-305.447 1231.53,-307.332 1355.5,-288 1358.39,-287.549 1361.34,-287.074 1364.32,-286.583"/>
<polygon fill="midnightblue" stroke="midnightblue" points="1047.83,-324.843 1038.54,-329.95 1048.99,-331.746 1047.83,-324.843"/>
</g>
<!-- Node16 -->
<g id="node16" class="node"><title>Node16</title>
<g id="a_node16"><a xlink:href="_pi_8h.html" target="_top" xlink:title=" ">
<polygon fill="white" stroke="black" points="1230.5,-263 1230.5,-282 1346.5,-282 1346.5,-263 1230.5,-263"/>
<text text-anchor="middle" x="1288.5" y="-270" font-family="Helvetica,sans-Serif" font-size="10.00">Storm/Component/Pi.h</text>
</a>
</g>
</g>
<!-- Node2&#45;&gt;Node16 -->
<g id="edge26" class="edge"><title>Node2&#45;&gt;Node16</title>
<path fill="none" stroke="midnightblue" d="M1039.54,-327.803C1098.18,-315.012 1195.17,-293.858 1249.15,-282.083"/>
<polygon fill="midnightblue" stroke="midnightblue" points="1038.79,-324.385 1029.76,-329.936 1040.28,-331.224 1038.79,-324.385"/>
</g>
<!-- Node17 -->
<g id="node17" class="node"><title>Node17</title>
<g id="a_node17"><a xlink:href="_pi_pre_process_8h.html" target="_top" xlink:title=" ">
<polygon fill="white" stroke="black" points="489,-129 489,-148 656,-148 656,-129 489,-129"/>
<text text-anchor="middle" x="572.5" y="-136" font-family="Helvetica,sans-Serif" font-size="10.00">Storm/Component/PiPreProcess.h</text>
</a>
</g>
</g>
<!-- Node2&#45;&gt;Node17 -->
<g id="edge28" class="edge"><title>Node2&#45;&gt;Node17</title>
<path fill="none" stroke="midnightblue" d="M932.148,-336.58C811.371,-332.004 542.913,-318.482 515.5,-288 476.906,-245.086 539.32,-173.264 563.539,-148.339"/>
<polygon fill="midnightblue" stroke="midnightblue" points="932.199,-340.084 942.322,-336.958 932.459,-333.089 932.199,-340.084"/>
</g>
<!-- Node18 -->
<g id="node18" class="node"><title>Node18</title>
<g id="a_node18"><a xlink:href="_model_points_8h.html" target="_top" xlink:title=" ">
<polygon fill="white" stroke="black" points="1523,-263 1523,-282 1684,-282 1684,-263 1523,-263"/>
<text text-anchor="middle" x="1603.5" y="-270" font-family="Helvetica,sans-Serif" font-size="10.00">Storm/Thermostat/ModelPoints.h</text>
</a>
</g>
</g>
<!-- Node2&#45;&gt;Node18 -->
<g id="edge32" class="edge"><title>Node2&#45;&gt;Node18</title>
<path fill="none" stroke="midnightblue" d="M1046.26,-328.276C1055.98,-326.697 1066.02,-325.196 1075.5,-324 1269.29,-299.554 1319.6,-311.552 1513.5,-288 1527.01,-286.359 1541.6,-284.184 1555.02,-282.019"/>
<polygon fill="midnightblue" stroke="midnightblue" points="1045.56,-324.845 1036.27,-329.941 1046.71,-331.749 1045.56,-324.845"/>
</g>
<!-- Node22 -->
<g id="node22" class="node"><title>Node22</title>
<g id="a_node22"><a xlink:href="_sim_house_2_model_points_8h.html" target="_top" xlink:title=" ">
<polygon fill="white" stroke="black" points="325,-257.5 325,-287.5 468,-287.5 468,-257.5 325,-257.5"/>
<text text-anchor="start" x="333" y="-275.5" font-family="Helvetica,sans-Serif" font-size="10.00">Storm/Thermostat/SimHouse</text>
<text text-anchor="middle" x="396.5" y="-264.5" font-family="Helvetica,sans-Serif" font-size="10.00">/ModelPoints.h</text>
</a>
</g>
</g>
<!-- Node2&#45;&gt;Node22 -->
<g id="edge36" class="edge"><title>Node2&#45;&gt;Node22</title>
<path fill="none" stroke="midnightblue" d="M932.177,-333.999C837.567,-326.406 644.858,-309.732 482.5,-288 477.848,-287.377 473.061,-286.693 468.241,-285.971"/>
<polygon fill="midnightblue" stroke="midnightblue" points="932.15,-337.508 942.397,-334.814 932.707,-330.53 932.15,-337.508"/>
</g>
<!-- Node4 -->
<g id="node4" class="node"><title>Node4</title>
<g id="a_node4"><a xlink:href="_cooling_8h.html" target="_top" xlink:title=" ">
<polygon fill="white" stroke="black" points="0,-123.5 0,-153.5 145,-153.5 145,-123.5 0,-123.5"/>
<text text-anchor="start" x="8" y="-141.5" font-family="Helvetica,sans-Serif" font-size="10.00">Storm/Component/Equipment</text>
<text text-anchor="middle" x="72.5" y="-130.5" font-family="Helvetica,sans-Serif" font-size="10.00">/Cooling.h</text>
</a>
</g>
</g>
<!-- Node3&#45;&gt;Node4 -->
<g id="edge3" class="edge"><title>Node3&#45;&gt;Node4</title>
<path fill="none" stroke="midnightblue" d="M518.738,-261.543C439.825,-250.685 320.846,-233.227 276.5,-221 212.342,-203.311 140.864,-171.869 101.855,-153.643"/>
<polygon fill="midnightblue" stroke="midnightblue" points="518.732,-265.075 529.114,-262.965 519.682,-258.14 518.732,-265.075"/>
</g>
<!-- Node5 -->
<g id="node5" class="node"><title>Node5</title>
<g id="a_node5"><a xlink:href="_algorithm_8h.html" target="_top" xlink:title=" ">
<polygon fill="white" stroke="black" points="720.5,-0.5 720.5,-19.5 868.5,-19.5 868.5,-0.5 720.5,-0.5"/>
<text text-anchor="middle" x="794.5" y="-7.5" font-family="Helvetica,sans-Serif" font-size="10.00">Storm/Thermostat/Algorithm.h</text>
</a>
</g>
</g>
<!-- Node3&#45;&gt;Node5 -->
<g id="edge17" class="edge"><title>Node3&#45;&gt;Node5</title>
<path fill="none" stroke="midnightblue" d="M614.224,-256.672C652.267,-228.293 733.124,-162.381 774.5,-87 786.711,-64.7537 791.736,-34.7142 793.571,-19.9496"/>
<polygon fill="midnightblue" stroke="midnightblue" points="611.928,-254.016 605.943,-262.759 616.073,-259.656 611.928,-254.016"/>
</g>
<!-- Node6 -->
<g id="node6" class="node"><title>Node6</title>
<g id="a_node6"><a xlink:href="_indoor_heating_8h.html" target="_top" xlink:title=" ">
<polygon fill="white" stroke="black" points="163,-123.5 163,-153.5 308,-153.5 308,-123.5 163,-123.5"/>
<text text-anchor="start" x="171" y="-141.5" font-family="Helvetica,sans-Serif" font-size="10.00">Storm/Component/Equipment</text>
<text text-anchor="middle" x="235.5" y="-130.5" font-family="Helvetica,sans-Serif" font-size="10.00">/IndoorHeating.h</text>
</a>
</g>
</g>
<!-- Node3&#45;&gt;Node6 -->
<g id="edge5" class="edge"><title>Node3&#45;&gt;Node6</title>
<path fill="none" stroke="midnightblue" d="M571.433,-257.596C542.239,-239.732 488.715,-208.79 439.5,-190 397.063,-173.798 347.654,-161.411 308.09,-152.96"/>
<polygon fill="midnightblue" stroke="midnightblue" points="569.674,-260.624 580.02,-262.905 573.355,-254.67 569.674,-260.624"/>
</g>
<!-- Node7 -->
<g id="node7" class="node"><title>Node7</title>
<g id="a_node7"><a xlink:href="_off_8h.html" target="_top" xlink:title=" ">
<polygon fill="white" stroke="black" points="621,-56.5 621,-86.5 766,-86.5 766,-56.5 621,-56.5"/>
<text text-anchor="start" x="629" y="-74.5" font-family="Helvetica,sans-Serif" font-size="10.00">Storm/Component/Equipment</text>
<text text-anchor="middle" x="693.5" y="-63.5" font-family="Helvetica,sans-Serif" font-size="10.00">/Off.h</text>
</a>
</g>
</g>
<!-- Node3&#45;&gt;Node7 -->
<g id="edge7" class="edge"><title>Node3&#45;&gt;Node7</title>
<path fill="none" stroke="midnightblue" d="M605.186,-254.639C620.281,-232.347 646.722,-191.501 664.5,-154 675.308,-131.201 684.42,-103.227 689.407,-86.6883"/>
<polygon fill="midnightblue" stroke="midnightblue" points="602.229,-252.763 599.47,-262.993 608.006,-256.716 602.229,-252.763"/>
</g>
<!-- Node8 -->
<g id="node8" class="node"><title>Node8</title>
<g id="a_node8"><a xlink:href="_stage_api_8h.html" target="_top" xlink:title=" ">
<polygon fill="white" stroke="black" points="286,-190.5 286,-220.5 431,-220.5 431,-190.5 286,-190.5"/>
<text text-anchor="start" x="294" y="-208.5" font-family="Helvetica,sans-Serif" font-size="10.00">Storm/Component/Equipment</text>
<text text-anchor="middle" x="358.5" y="-197.5" font-family="Helvetica,sans-Serif" font-size="10.00">/StageApi.h</text>
</a>
</g>
</g>
<!-- Node3&#45;&gt;Node8 -->
<g id="edge9" class="edge"><title>Node3&#45;&gt;Node8</title>
<path fill="none" stroke="midnightblue" d="M552.639,-260.198C512.802,-249.179 452.118,-232.394 409.217,-220.528"/>
<polygon fill="midnightblue" stroke="midnightblue" points="551.723,-263.576 562.294,-262.869 553.589,-256.829 551.723,-263.576"/>
</g>
<!-- Node4&#45;&gt;Node5 -->
<g id="edge4" class="edge"><title>Node4&#45;&gt;Node5</title>
<path fill="none" stroke="midnightblue" d="M101.809,-117.568C132.077,-98.1276 181.399,-69.5637 228.5,-56 318.784,-30.0006 588.443,-17.7697 720.282,-13.2185"/>
<polygon fill="midnightblue" stroke="midnightblue" points="99.5134,-114.887 93.0506,-123.282 103.338,-120.75 99.5134,-114.887"/>
</g>
<!-- Node6&#45;&gt;Node5 -->
<g id="edge6" class="edge"><title>Node6&#45;&gt;Node5</title>
<path fill="none" stroke="midnightblue" d="M231.482,-113.347C229.923,-94.9374 231.35,-70.3784 246.5,-56 280.146,-24.0669 578.622,-14.6834 720.372,-12.0162"/>
<polygon fill="midnightblue" stroke="midnightblue" points="228.015,-113.831 232.664,-123.352 234.966,-113.01 228.015,-113.831"/>
</g>
<!-- Node7&#45;&gt;Node5 -->
<g id="edge8" class="edge"><title>Node7&#45;&gt;Node5</title>
<path fill="none" stroke="midnightblue" d="M726.484,-51.0688C744.488,-40.4624 765.883,-27.8586 779.804,-19.6578"/>
<polygon fill="midnightblue" stroke="midnightblue" points="724.275,-48.3079 717.436,-56.3993 727.828,-54.3391 724.275,-48.3079"/>
</g>
<!-- Node8&#45;&gt;Node4 -->
<g id="edge10" class="edge"><title>Node8&#45;&gt;Node4</title>
<path fill="none" stroke="midnightblue" d="M287.011,-188.252C240.131,-177.598 179.444,-163.805 134.588,-153.611"/>
<polygon fill="midnightblue" stroke="midnightblue" points="286.267,-191.673 296.794,-190.476 287.819,-184.847 286.267,-191.673"/>
</g>
<!-- Node8&#45;&gt;Node6 -->
<g id="edge11" class="edge"><title>Node8&#45;&gt;Node6</title>
<path fill="none" stroke="midnightblue" d="M322.952,-185.714C303.553,-175.463 279.936,-162.983 262.137,-153.577"/>
<polygon fill="midnightblue" stroke="midnightblue" points="321.334,-188.818 331.811,-190.396 324.605,-182.629 321.334,-188.818"/>
</g>
<!-- Node9 -->
<g id="node9" class="node"><title>Node9</title>
<g id="a_node9"><a xlink:href="_storm_2_component_2_equipment_2_stage_2_basic_8h.html" target="_top" xlink:title=" ">
<polygon fill="white" stroke="black" points="326,-123.5 326,-153.5 471,-153.5 471,-123.5 326,-123.5"/>
<text text-anchor="start" x="334" y="-141.5" font-family="Helvetica,sans-Serif" font-size="10.00">Storm/Component/Equipment</text>
<text text-anchor="middle" x="398.5" y="-130.5" font-family="Helvetica,sans-Serif" font-size="10.00">/Stage/Basic.h</text>
</a>
</g>
</g>
<!-- Node8&#45;&gt;Node9 -->
<g id="edge12" class="edge"><title>Node8&#45;&gt;Node9</title>
<path fill="none" stroke="midnightblue" d="M372.428,-181.867C378.217,-172.459 384.756,-161.833 389.838,-153.577"/>
<polygon fill="midnightblue" stroke="midnightblue" points="369.44,-180.045 367.179,-190.396 375.401,-183.714 369.44,-180.045"/>
</g>
<!-- Node10 -->
<g id="node10" class="node"><title>Node10</title>
<g id="a_node10"><a xlink:href="_basic_cooling_8h.html" target="_top" xlink:title=" ">
<polygon fill="white" stroke="black" points="419,-56.5 419,-86.5 564,-86.5 564,-56.5 419,-56.5"/>
<text text-anchor="start" x="427" y="-74.5" font-family="Helvetica,sans-Serif" font-size="10.00">Storm/Component/Equipment</text>
<text text-anchor="middle" x="491.5" y="-63.5" font-family="Helvetica,sans-Serif" font-size="10.00">/Stage/BasicCooling.h</text>
</a>
</g>
</g>
<!-- Node9&#45;&gt;Node10 -->
<g id="edge13" class="edge"><title>Node9&#45;&gt;Node10</title>
<path fill="none" stroke="midnightblue" d="M427.185,-117.451C441.492,-107.452 458.45,-95.5995 471.36,-86.5765"/>
<polygon fill="midnightblue" stroke="midnightblue" points="424.871,-114.798 418.68,-123.396 428.881,-120.536 424.871,-114.798"/>
</g>
<!-- Node11 -->
<g id="node11" class="node"><title>Node11</title>
<g id="a_node11"><a xlink:href="_basic_indoor_heat_8h.html" target="_top" xlink:title=" ">
<polygon fill="white" stroke="black" points="256,-56.5 256,-86.5 401,-86.5 401,-56.5 256,-56.5"/>
<text text-anchor="start" x="264" y="-74.5" font-family="Helvetica,sans-Serif" font-size="10.00">Storm/Component/Equipment</text>
<text text-anchor="middle" x="328.5" y="-63.5" font-family="Helvetica,sans-Serif" font-size="10.00">/Stage/BasicIndoorHeat.h</text>
</a>
</g>
</g>
<!-- Node9&#45;&gt;Node11 -->
<g id="edge15" class="edge"><title>Node9&#45;&gt;Node11</title>
<path fill="none" stroke="midnightblue" d="M375.682,-116.311C365.181,-106.561 353.01,-95.259 343.659,-86.5765"/>
<polygon fill="midnightblue" stroke="midnightblue" points="373.601,-119.156 383.311,-123.396 378.365,-114.027 373.601,-119.156"/>
</g>
<!-- Node10&#45;&gt;Node5 -->
<g id="edge14" class="edge"><title>Node10&#45;&gt;Node5</title>
<path fill="none" stroke="midnightblue" d="M573.058,-54.4845C630.405,-43.2232 704.883,-28.5981 751.182,-19.5064"/>
<polygon fill="midnightblue" stroke="midnightblue" points="572.061,-51.1133 562.923,-56.4747 573.41,-57.9821 572.061,-51.1133"/>
</g>
<!-- Node11&#45;&gt;Node5 -->
<g id="edge16" class="edge"><title>Node11&#45;&gt;Node5</title>
<path fill="none" stroke="midnightblue" d="M411.529,-55.7485C524.482,-39.2822 644.762,-26.082 720.157,-18.3353"/>
<polygon fill="midnightblue" stroke="midnightblue" points="410.708,-52.3314 401.324,-57.2483 411.726,-59.257 410.708,-52.3314"/>
</g>
<!-- Node12&#45;&gt;Node5 -->
<g id="edge19" class="edge"><title>Node12&#45;&gt;Node5</title>
<path fill="none" stroke="midnightblue" d="M799.25,-252.842C806.211,-215.333 819.472,-128.201 808.5,-56 806.533,-43.0576 801.556,-28.7151 798.1,-19.7782"/>
<polygon fill="midnightblue" stroke="midnightblue" points="795.783,-252.336 797.325,-262.818 802.656,-253.662 795.783,-252.336"/>
</g>
<!-- Node13&#45;&gt;Node5 -->
<g id="edge21" class="edge"><title>Node13&#45;&gt;Node5</title>
<path fill="none" stroke="midnightblue" d="M948.977,-248.736C923.81,-209.345 870.383,-125.967 824.5,-56 816.159,-43.2802 806.361,-28.6386 800.29,-19.6011"/>
<polygon fill="midnightblue" stroke="midnightblue" points="946.134,-250.788 954.466,-257.332 952.034,-247.02 946.134,-250.788"/>
</g>
<!-- Node14&#45;&gt;Node5 -->
<g id="edge23" class="edge"><title>Node14&#45;&gt;Node5</title>
<path fill="none" stroke="midnightblue" d="M1113.94,-256.466C1051.01,-208.111 855.072,-57.5454 805.821,-19.6999"/>
<polygon fill="midnightblue" stroke="midnightblue" points="1112.16,-259.515 1122.22,-262.833 1116.42,-253.964 1112.16,-259.515"/>
</g>
<!-- Node15&#45;&gt;Node5 -->
<g id="edge25" class="edge"><title>Node15&#45;&gt;Node5</title>
<path fill="none" stroke="midnightblue" d="M1394.57,-253.139C1309.8,-214.454 1105.21,-122.65 929.5,-56 892.887,-42.1125 849.861,-28.1715 822.398,-19.5669"/>
<polygon fill="midnightblue" stroke="midnightblue" points="1393.28,-256.397 1403.83,-257.37 1396.19,-250.03 1393.28,-256.397"/>
</g>
<!-- Node16&#45;&gt;Node5 -->
<g id="edge27" class="edge"><title>Node16&#45;&gt;Node5</title>
<path fill="none" stroke="midnightblue" d="M1260.62,-258.473C1239.56,-248.509 1210.02,-234.271 1184.5,-221 1050.53,-151.328 1021.52,-125.58 887.5,-56 862.03,-42.7761 832.069,-28.5039 813.18,-19.6594"/>
<polygon fill="midnightblue" stroke="midnightblue" points="1259.4,-261.767 1269.94,-262.864 1262.38,-255.435 1259.4,-261.767"/>
</g>
<!-- Node17&#45;&gt;Node5 -->
<g id="edge31" class="edge"><title>Node17&#45;&gt;Node5</title>
<path fill="none" stroke="midnightblue" d="M576.493,-118.887C581.48,-100.206 591.857,-71.9755 611.5,-56 641.959,-31.2279 684.073,-19.7919 720.222,-14.6326"/>
<polygon fill="midnightblue" stroke="midnightblue" points="573.032,-118.312 574.1,-128.853 579.838,-119.947 573.032,-118.312"/>
</g>
<!-- Node17&#45;&gt;Node10 -->
<g id="edge29" class="edge"><title>Node17&#45;&gt;Node10</title>
<path fill="none" stroke="midnightblue" d="M553.48,-122.237C540.04,-111.452 522.158,-97.1025 509.057,-86.589"/>
<polygon fill="midnightblue" stroke="midnightblue" points="551.586,-125.205 561.576,-128.734 555.967,-119.745 551.586,-125.205"/>
</g>
<!-- Node17&#45;&gt;Node11 -->
<g id="edge30" class="edge"><title>Node17&#45;&gt;Node11</title>
<path fill="none" stroke="midnightblue" d="M530.601,-126.338C489.284,-115.332 426.003,-98.4743 381.276,-86.5592"/>
<polygon fill="midnightblue" stroke="midnightblue" points="529.786,-129.743 540.35,-128.936 531.588,-122.979 529.786,-129.743"/>
</g>
<!-- Node19 -->
<g id="node19" class="node"><title>Node19</title>
<g id="a_node19"><a xlink:href="_installer_record_8h_source.html" target="_top" xlink:title=" ">
<polygon fill="white" stroke="black" points="1621,-190.5 1621,-220.5 1740,-220.5 1740,-190.5 1621,-190.5"/>
<text text-anchor="start" x="1629" y="-208.5" font-family="Helvetica,sans-Serif" font-size="10.00">Storm/Thermostat/Main</text>
<text text-anchor="middle" x="1680.5" y="-197.5" font-family="Helvetica,sans-Serif" font-size="10.00">/InstallerRecord.h</text>
</a>
</g>
</g>
<!-- Node18&#45;&gt;Node19 -->
<g id="edge33" class="edge"><title>Node18&#45;&gt;Node19</title>
<path fill="none" stroke="midnightblue" d="M1621.58,-256.237C1634.36,-245.452 1651.36,-231.102 1663.81,-220.589"/>
<polygon fill="midnightblue" stroke="midnightblue" points="1619.27,-253.609 1613.88,-262.734 1623.78,-258.958 1619.27,-253.609"/>
</g>
<!-- Node20 -->
<g id="node20" class="node"><title>Node20</title>
<g id="a_node20"><a xlink:href="_run_time_record_8h_source.html" target="_top" xlink:title=" ">
<polygon fill="white" stroke="black" points="1347,-190.5 1347,-220.5 1466,-220.5 1466,-190.5 1347,-190.5"/>
<text text-anchor="start" x="1355" y="-208.5" font-family="Helvetica,sans-Serif" font-size="10.00">Storm/Thermostat/Main</text>
<text text-anchor="middle" x="1406.5" y="-197.5" font-family="Helvetica,sans-Serif" font-size="10.00">/RunTimeRecord.h</text>
</a>
</g>
</g>
<!-- Node18&#45;&gt;Node20 -->
<g id="edge34" class="edge"><title>Node18&#45;&gt;Node20</title>
<path fill="none" stroke="midnightblue" d="M1567.53,-259.633C1534.13,-248.612 1484.37,-232.193 1449.02,-220.528"/>
<polygon fill="midnightblue" stroke="midnightblue" points="1566.75,-263.059 1577.34,-262.869 1568.94,-256.411 1566.75,-263.059"/>
</g>
<!-- Node21 -->
<g id="node21" class="node"><title>Node21</title>
<g id="a_node21"><a xlink:href="_user_record_8h_source.html" target="_top" xlink:title=" ">
<polygon fill="white" stroke="black" points="1484,-190.5 1484,-220.5 1603,-220.5 1603,-190.5 1484,-190.5"/>
<text text-anchor="start" x="1492" y="-208.5" font-family="Helvetica,sans-Serif" font-size="10.00">Storm/Thermostat/Main</text>
<text text-anchor="middle" x="1543.5" y="-197.5" font-family="Helvetica,sans-Serif" font-size="10.00">/UserRecord.h</text>
</a>
</g>
</g>
<!-- Node18&#45;&gt;Node21 -->
<g id="edge35" class="edge"><title>Node18&#45;&gt;Node21</title>
<path fill="none" stroke="midnightblue" d="M1588.55,-255.304C1578.7,-244.635 1565.93,-230.802 1556.51,-220.589"/>
<polygon fill="midnightblue" stroke="midnightblue" points="1586.05,-257.76 1595.41,-262.734 1591.2,-253.012 1586.05,-257.76"/>
</g>
<!-- Node24&#45;&gt;Node15 -->
<g id="edge41" class="edge"><title>Node24&#45;&gt;Node15</title>
<path fill="none" stroke="midnightblue" d="M1445.27,-314.697C1442.89,-305.587 1440.25,-295.493 1438.18,-287.577"/>
<polygon fill="midnightblue" stroke="midnightblue" points="1441.89,-315.607 1447.81,-324.396 1448.67,-313.836 1441.89,-315.607"/>
</g>
<!-- Node24&#45;&gt;Node18 -->
<g id="edge42" class="edge"><title>Node24&#45;&gt;Node18</title>
<path fill="none" stroke="midnightblue" d="M1493.69,-320.458C1523.06,-307.9 1560.88,-291.724 1583.61,-282.007"/>
<polygon fill="midnightblue" stroke="midnightblue" points="1492.3,-317.246 1484.48,-324.396 1495.05,-323.682 1492.3,-317.246"/>
</g>
<!-- Node25 -->
<g id="node25" class="node"><title>Node25</title>
<g id="a_node25"><a xlink:href="_air_filter_monitor_8h.html" target="_top" xlink:title=" ">
<polygon fill="white" stroke="black" points="1702.5,-257.5 1702.5,-287.5 1834.5,-287.5 1834.5,-257.5 1702.5,-257.5"/>
<text text-anchor="start" x="1710.5" y="-275.5" font-family="Helvetica,sans-Serif" font-size="10.00">Storm/Component/AirFilter</text>
<text text-anchor="middle" x="1768.5" y="-264.5" font-family="Helvetica,sans-Serif" font-size="10.00">Monitor.h</text>
</a>
</g>
</g>
<!-- Node24&#45;&gt;Node25 -->
<g id="edge39" class="edge"><title>Node24&#45;&gt;Node25</title>
<path fill="none" stroke="midnightblue" d="M1529.93,-322.417C1582.95,-311.546 1652.18,-297.35 1702.4,-287.054"/>
<polygon fill="midnightblue" stroke="midnightblue" points="1528.99,-319.039 1519.89,-324.476 1530.39,-325.896 1528.99,-319.039"/>
</g>
<!-- Node25&#45;&gt;Node5 -->
<g id="edge40" class="edge"><title>Node25&#45;&gt;Node5</title>
<path fill="none" stroke="midnightblue" d="M1769.47,-247.265C1768.83,-228.981 1764.78,-204.628 1749.5,-190 1622.61,-68.5474 1070.2,-26.2403 868.538,-14.6832"/>
<polygon fill="midnightblue" stroke="midnightblue" points="1765.97,-247.48 1769.51,-257.466 1772.97,-247.452 1765.97,-247.48"/>
</g>
<!-- Node26&#45;&gt;Node3 -->
<g id="edge44" class="edge"><title>Node26&#45;&gt;Node3</title>
<path fill="none" stroke="midnightblue" d="M1076.73,-328.348C1066.99,-326.774 1056.97,-325.256 1047.5,-324 883.275,-302.215 840.66,-310.271 676.5,-288 664.179,-286.328 650.89,-284.168 638.633,-282.028"/>
<polygon fill="midnightblue" stroke="midnightblue" points="1076.29,-331.823 1086.72,-330 1077.43,-324.916 1076.29,-331.823"/>
</g>
<!-- Node26&#45;&gt;Node12 -->
<g id="edge45" class="edge"><title>Node26&#45;&gt;Node12</title>
<path fill="none" stroke="midnightblue" d="M1079.09,-328.037C1012.61,-315.253 901.412,-293.868 839.865,-282.032"/>
<polygon fill="midnightblue" stroke="midnightblue" points="1078.48,-331.484 1088.96,-329.936 1079.81,-324.61 1078.48,-331.484"/>
</g>
<!-- Node26&#45;&gt;Node13 -->
<g id="edge46" class="edge"><title>Node26&#45;&gt;Node13</title>
<path fill="none" stroke="midnightblue" d="M1101.34,-326.202C1072.53,-315.188 1030.3,-299.042 1000.19,-287.528"/>
<polygon fill="midnightblue" stroke="midnightblue" points="1100.33,-329.566 1110.93,-329.869 1102.83,-323.028 1100.33,-329.566"/>
</g>
<!-- Node26&#45;&gt;Node14 -->
<g id="edge47" class="edge"><title>Node26&#45;&gt;Node14</title>
<path fill="none" stroke="midnightblue" d="M1133.5,-319.537C1133.5,-307.17 1133.5,-291.62 1133.5,-282.127"/>
<polygon fill="midnightblue" stroke="midnightblue" points="1130,-319.734 1133.5,-329.734 1137,-319.734 1130,-319.734"/>
</g>
<!-- Node26&#45;&gt;Node15 -->
<g id="edge48" class="edge"><title>Node26&#45;&gt;Node15</title>
<path fill="none" stroke="midnightblue" d="M1182.94,-327.823C1233.84,-316.832 1313.4,-299.651 1369.4,-287.559"/>
<polygon fill="midnightblue" stroke="midnightblue" points="1182.2,-324.404 1173.16,-329.936 1183.67,-331.246 1182.2,-324.404"/>
</g>
<!-- Node26&#45;&gt;Node16 -->
<g id="edge49" class="edge"><title>Node26&#45;&gt;Node16</title>
<path fill="none" stroke="midnightblue" d="M1163.43,-325.948C1194.12,-313.079 1241.04,-293.403 1267.83,-282.167"/>
<polygon fill="midnightblue" stroke="midnightblue" points="1161.95,-322.773 1154.08,-329.869 1164.66,-329.229 1161.95,-322.773"/>
</g>
<!-- Node26&#45;&gt;Node17 -->
<g id="edge50" class="edge"><title>Node26&#45;&gt;Node17</title>
<path fill="none" stroke="midnightblue" d="M1075.73,-328.263C1066.31,-326.737 1056.64,-325.257 1047.5,-324 972.667,-313.716 776.986,-321.932 709.5,-288 675.811,-271.061 602.078,-177.832 579.324,-148.404"/>
<polygon fill="midnightblue" stroke="midnightblue" points="1075.38,-331.753 1085.82,-329.928 1076.52,-324.846 1075.38,-331.753"/>
</g>
<!-- Node26&#45;&gt;Node18 -->
<g id="edge51" class="edge"><title>Node26&#45;&gt;Node18</title>
<path fill="none" stroke="midnightblue" d="M1190.56,-328.256C1199.56,-326.753 1208.78,-325.283 1217.5,-324 1348.62,-304.723 1382.28,-306.543 1513.5,-288 1526.19,-286.206 1539.86,-284.096 1552.62,-282.049"/>
<polygon fill="midnightblue" stroke="midnightblue" points="1189.8,-324.835 1180.53,-329.957 1190.97,-331.736 1189.8,-324.835"/>
</g>
<!-- Node29&#45;&gt;Node12 -->
<g id="edge55" class="edge"><title>Node29&#45;&gt;Node12</title>
<path fill="none" stroke="midnightblue" d="M1223.52,-328.486C1212.83,-326.925 1201.86,-325.376 1191.5,-324 1054,-305.744 1018.82,-307.537 881.5,-288 869.208,-286.251 855.967,-284.135 843.646,-282.066"/>
<polygon fill="midnightblue" stroke="midnightblue" points="1223.25,-331.984 1233.65,-329.981 1224.27,-325.059 1223.25,-331.984"/>
</g>
<!-- Node29&#45;&gt;Node13 -->
<g id="edge56" class="edge"><title>Node29&#45;&gt;Node13</title>
<path fill="none" stroke="midnightblue" d="M1235.8,-327.96C1180.88,-316.975 1094.5,-299.701 1033.8,-287.559"/>
<polygon fill="midnightblue" stroke="midnightblue" points="1235.19,-331.406 1245.68,-329.936 1236.56,-324.542 1235.19,-331.406"/>
</g>
<!-- Node29&#45;&gt;Node14 -->
<g id="edge57" class="edge"><title>Node29&#45;&gt;Node14</title>
<path fill="none" stroke="midnightblue" d="M1258.57,-325.948C1227.88,-313.079 1180.96,-293.403 1154.17,-282.167"/>
<polygon fill="midnightblue" stroke="midnightblue" points="1257.34,-329.229 1267.92,-329.869 1260.05,-322.773 1257.34,-329.229"/>
</g>
<!-- Node29&#45;&gt;Node15 -->
<g id="edge58" class="edge"><title>Node29&#45;&gt;Node15</title>
<path fill="none" stroke="midnightblue" d="M1317.1,-325.767C1341.81,-314.766 1377.47,-298.892 1402.99,-287.528"/>
<polygon fill="midnightblue" stroke="midnightblue" points="1315.6,-322.604 1307.89,-329.869 1318.45,-328.999 1315.6,-322.604"/>
</g>
<!-- Node29&#45;&gt;Node16 -->
<g id="edge59" class="edge"><title>Node29&#45;&gt;Node16</title>
<path fill="none" stroke="midnightblue" d="M1288.5,-319.537C1288.5,-307.17 1288.5,-291.62 1288.5,-282.127"/>
<polygon fill="midnightblue" stroke="midnightblue" points="1285,-319.734 1288.5,-329.734 1292,-319.734 1285,-319.734"/>
</g>
<!-- Node29&#45;&gt;Node18 -->
<g id="edge60" class="edge"><title>Node29&#45;&gt;Node18</title>
<path fill="none" stroke="midnightblue" d="M1339.97,-327.879C1402.01,-315.077 1505.03,-293.819 1562.15,-282.032"/>
<polygon fill="midnightblue" stroke="midnightblue" points="1339.09,-324.487 1330,-329.936 1340.51,-331.342 1339.09,-324.487"/>
</g>
<!-- Node30&#45;&gt;Node18 -->
<g id="edge63" class="edge"><title>Node30&#45;&gt;Node18</title>
<path fill="none" stroke="midnightblue" d="M1596.42,-319.537C1598.32,-307.17 1600.71,-291.62 1602.17,-282.127"/>
<polygon fill="midnightblue" stroke="midnightblue" points="1592.91,-319.318 1594.85,-329.734 1599.83,-320.382 1592.91,-319.318"/>
</g>
<!-- Node30&#45;&gt;Node25 -->
<g id="edge62" class="edge"><title>Node30&#45;&gt;Node25</title>
<path fill="none" stroke="midnightblue" d="M1626.22,-326.346C1655.88,-315.329 1699.6,-299.093 1730.73,-287.528"/>
<polygon fill="midnightblue" stroke="midnightblue" points="1624.89,-323.106 1616.74,-329.869 1627.33,-329.668 1624.89,-323.106"/>
</g>
</g>
</svg>
