<?xml version="1.0" encoding="UTF-8" standalone="no"?>
<!DOCTYPE svg PUBLIC "-//W3C//DTD SVG 1.1//EN"
 "http://www.w3.org/Graphics/SVG/1.1/DTD/svg11.dtd">
<!-- Generated by graphviz version 2.38.0 (20140413.2041)
 -->
<!-- Title: Cpl/System/Cpp11/Thread.h Pages: 1 -->
<svg width="911pt" height="420pt"
 viewBox="0.00 0.00 910.50 420.00" xmlns="http://www.w3.org/2000/svg" xmlns:xlink="http://www.w3.org/1999/xlink">
<g id="graph0" class="graph" transform="scale(1 1) rotate(0) translate(4 416)">
<title>Cpl/System/Cpp11/Thread.h</title>
<polygon fill="white" stroke="none" points="-4,4 -4,-416 906.5,-416 906.5,4 -4,4"/>
<!-- Node1 -->
<g id="node1" class="node"><title>Node1</title>
<g id="a_node1"><a xlink:title=" ">
<polygon fill="#bfbfbf" stroke="black" points="444.5,-392.5 444.5,-411.5 584.5,-411.5 584.5,-392.5 444.5,-392.5"/>
<text text-anchor="middle" x="514.5" y="-399.5" font-family="Helvetica,sans-Serif" font-size="10.00">Cpl/System/Cpp11/Thread.h</text>
</a>
</g>
</g>
<!-- Node2 -->
<g id="node2" class="node"><title>Node2</title>
<g id="a_node2"><a xlink:href="_thread_8h.html" target="_top" xlink:title=" ">
<polygon fill="white" stroke="black" points="529,-336.5 529,-355.5 638,-355.5 638,-336.5 529,-336.5"/>
<text text-anchor="middle" x="583.5" y="-343.5" font-family="Helvetica,sans-Serif" font-size="10.00">Cpl/System/Thread.h</text>
</a>
</g>
</g>
<!-- Node1&#45;&gt;Node2 -->
<g id="edge1" class="edge"><title>Node1&#45;&gt;Node2</title>
<path fill="none" stroke="midnightblue" d="M525.586,-392.324C535.986,-384.185 551.761,-371.839 564.222,-362.087"/>
<polygon fill="midnightblue" stroke="midnightblue" points="566.494,-364.753 572.212,-355.834 562.18,-359.241 566.494,-364.753"/>
</g>
<!-- Node9 -->
<g id="node9" class="node"><title>Node9</title>
<g id="a_node9"><a xlink:href="_semaphore_8h.html" target="_top" xlink:title=" ">
<polygon fill="white" stroke="black" points="382.5,-336.5 382.5,-355.5 510.5,-355.5 510.5,-336.5 382.5,-336.5"/>
<text text-anchor="middle" x="446.5" y="-343.5" font-family="Helvetica,sans-Serif" font-size="10.00">Cpl/System/Semaphore.h</text>
</a>
</g>
</g>
<!-- Node1&#45;&gt;Node9 -->
<g id="edge8" class="edge"><title>Node1&#45;&gt;Node9</title>
<path fill="none" stroke="midnightblue" d="M503.575,-392.324C493.325,-384.185 477.779,-371.839 465.499,-362.087"/>
<polygon fill="midnightblue" stroke="midnightblue" points="467.632,-359.312 457.624,-355.834 463.279,-364.794 467.632,-359.312"/>
</g>
<!-- Node10 -->
<g id="node10" class="node"><title>Node10</title>
<g id="a_node10"><a xlink:href="_f_string_8h.html" target="_top" xlink:title=" ">
<polygon fill="white" stroke="black" points="234.5,-336.5 234.5,-355.5 330.5,-355.5 330.5,-336.5 234.5,-336.5"/>
<text text-anchor="middle" x="282.5" y="-343.5" font-family="Helvetica,sans-Serif" font-size="10.00">Cpl/Text/FString.h</text>
</a>
</g>
</g>
<!-- Node1&#45;&gt;Node10 -->
<g id="edge11" class="edge"><title>Node1&#45;&gt;Node10</title>
<path fill="none" stroke="midnightblue" d="M477.739,-392.444C437.437,-383.063 372.691,-367.993 328.915,-357.804"/>
<polygon fill="midnightblue" stroke="midnightblue" points="329.622,-354.375 319.089,-355.516 328.035,-361.192 329.622,-354.375"/>
</g>
<!-- Node21 -->
<g id="node21" class="node"><title>Node21</title>
<g id="a_node21"><a xlink:title=" ">
<polygon fill="white" stroke="#bfbfbf" points="656.5,-336.5 656.5,-355.5 700.5,-355.5 700.5,-336.5 656.5,-336.5"/>
<text text-anchor="middle" x="678.5" y="-343.5" font-family="Helvetica,sans-Serif" font-size="10.00">thread</text>
</a>
</g>
</g>
<!-- Node1&#45;&gt;Node21 -->
<g id="edge27" class="edge"><title>Node1&#45;&gt;Node21</title>
<path fill="none" stroke="midnightblue" d="M540.486,-392.444C569.212,-382.985 615.505,-367.742 646.456,-357.551"/>
<polygon fill="midnightblue" stroke="midnightblue" points="647.913,-360.756 656.317,-354.304 645.724,-354.107 647.913,-360.756"/>
</g>
<!-- Node3 -->
<g id="node3" class="node"><title>Node3</title>
<g id="a_node3"><a xlink:title=" ">
<polygon fill="white" stroke="#bfbfbf" points="333,-56.5 333,-75.5 410,-75.5 410,-56.5 333,-56.5"/>
<text text-anchor="middle" x="371.5" y="-63.5" font-family="Helvetica,sans-Serif" font-size="10.00">colony_map.h</text>
</a>
</g>
</g>
<!-- Node2&#45;&gt;Node3 -->
<g id="edge2" class="edge"><title>Node2&#45;&gt;Node3</title>
<path fill="none" stroke="midnightblue" d="M580.668,-336.268C574.936,-317.794 562.5,-273.301 562.5,-235 562.5,-235 562.5,-235 562.5,-177 562.5,-111.301 476.589,-84.2488 420.002,-73.5563"/>
<polygon fill="midnightblue" stroke="midnightblue" points="420.61,-70.1096 410.152,-71.8024 419.383,-77.0013 420.61,-70.1096"/>
</g>
<!-- Node4 -->
<g id="node4" class="node"><title>Node4</title>
<g id="a_node4"><a xlink:href="_runnable_8h.html" target="_top" xlink:title=" ">
<polygon fill="white" stroke="black" points="591,-280.5 591,-299.5 710,-299.5 710,-280.5 591,-280.5"/>
<text text-anchor="middle" x="650.5" y="-287.5" font-family="Helvetica,sans-Serif" font-size="10.00">Cpl/System/Runnable.h</text>
</a>
</g>
</g>
<!-- Node2&#45;&gt;Node4 -->
<g id="edge3" class="edge"><title>Node2&#45;&gt;Node4</title>
<path fill="none" stroke="midnightblue" d="M594.265,-336.324C604.266,-328.263 619.387,-316.077 631.43,-306.369"/>
<polygon fill="midnightblue" stroke="midnightblue" points="633.95,-308.834 639.539,-299.834 629.557,-303.384 633.95,-308.834"/>
</g>
<!-- Node5 -->
<g id="node5" class="node"><title>Node5</title>
<g id="a_node5"><a xlink:href="_signable_8h.html" target="_top" xlink:title=" ">
<polygon fill="white" stroke="black" points="418.5,-280.5 418.5,-299.5 534.5,-299.5 534.5,-280.5 418.5,-280.5"/>
<text text-anchor="middle" x="476.5" y="-287.5" font-family="Helvetica,sans-Serif" font-size="10.00">Cpl/System/Signable.h</text>
</a>
</g>
</g>
<!-- Node2&#45;&gt;Node5 -->
<g id="edge4" class="edge"><title>Node2&#45;&gt;Node5</title>
<path fill="none" stroke="midnightblue" d="M566.309,-336.324C549.149,-327.664 522.554,-314.242 502.753,-304.249"/>
<polygon fill="midnightblue" stroke="midnightblue" points="504.153,-301.035 493.649,-299.655 500.999,-307.285 504.153,-301.035"/>
</g>
<!-- Node7 -->
<g id="node7" class="node"><title>Node7</title>
<g id="a_node7"><a xlink:href="_traverser_8h.html" target="_top" xlink:title=" ">
<polygon fill="white" stroke="black" points="728.5,-280.5 728.5,-299.5 836.5,-299.5 836.5,-280.5 728.5,-280.5"/>
<text text-anchor="middle" x="782.5" y="-287.5" font-family="Helvetica,sans-Serif" font-size="10.00">Cpl/Type/Traverser.h</text>
</a>
</g>
</g>
<!-- Node2&#45;&gt;Node7 -->
<g id="edge6" class="edge"><title>Node2&#45;&gt;Node7</title>
<path fill="none" stroke="midnightblue" d="M615.032,-336.444C649.092,-327.201 703.506,-312.436 741.015,-302.257"/>
<polygon fill="midnightblue" stroke="midnightblue" points="742.381,-305.513 751.115,-299.516 740.548,-298.758 742.381,-305.513"/>
</g>
<!-- Node8 -->
<g id="node8" class="node"><title>Node8</title>
<g id="a_node8"><a xlink:title=" ">
<polygon fill="white" stroke="#bfbfbf" points="854.5,-280.5 854.5,-299.5 902.5,-299.5 902.5,-280.5 854.5,-280.5"/>
<text text-anchor="middle" x="878.5" y="-287.5" font-family="Helvetica,sans-Serif" font-size="10.00">stdlib.h</text>
</a>
</g>
</g>
<!-- Node2&#45;&gt;Node8 -->
<g id="edge7" class="edge"><title>Node2&#45;&gt;Node8</title>
<path fill="none" stroke="midnightblue" d="M638.243,-337.166C689.273,-329.511 767.665,-316.851 844.56,-300.036"/>
<polygon fill="midnightblue" stroke="midnightblue" points="845.408,-303.433 854.416,-297.856 843.896,-296.598 845.408,-303.433"/>
</g>
<!-- Node6 -->
<g id="node6" class="node"><title>Node6</title>
<g id="a_node6"><a xlink:href="_item_8h.html" target="_top" xlink:title=" ">
<polygon fill="white" stroke="black" points="423.5,-224.5 423.5,-243.5 529.5,-243.5 529.5,-224.5 423.5,-224.5"/>
<text text-anchor="middle" x="476.5" y="-231.5" font-family="Helvetica,sans-Serif" font-size="10.00">Cpl/Container/Item.h</text>
</a>
</g>
</g>
<!-- Node5&#45;&gt;Node6 -->
<g id="edge5" class="edge"><title>Node5&#45;&gt;Node6</title>
<path fill="none" stroke="midnightblue" d="M476.5,-280.083C476.5,-273.006 476.5,-262.861 476.5,-253.986"/>
<polygon fill="midnightblue" stroke="midnightblue" points="480,-253.751 476.5,-243.751 473,-253.751 480,-253.751"/>
</g>
<!-- Node9&#45;&gt;Node3 -->
<g id="edge9" class="edge"><title>Node9&#45;&gt;Node3</title>
<path fill="none" stroke="midnightblue" d="M437.668,-336.477C429.312,-327.958 416.968,-314.128 409.5,-300 395.434,-273.391 390.5,-265.098 390.5,-235 390.5,-235 390.5,-235 390.5,-177 390.5,-144.489 382.341,-107.35 376.716,-85.6103"/>
<polygon fill="midnightblue" stroke="midnightblue" points="380.041,-84.498 374.062,-75.7514 373.282,-86.3175 380.041,-84.498"/>
</g>
<!-- Node9&#45;&gt;Node5 -->
<g id="edge10" class="edge"><title>Node9&#45;&gt;Node5</title>
<path fill="none" stroke="midnightblue" d="M451.454,-336.083C455.604,-328.613 461.653,-317.724 466.767,-308.52"/>
<polygon fill="midnightblue" stroke="midnightblue" points="469.841,-310.192 471.638,-299.751 463.722,-306.793 469.841,-310.192"/>
</g>
<!-- Node11 -->
<g id="node11" class="node"><title>Node11</title>
<g id="a_node11"><a xlink:href="_f_string___8h.html" target="_top" xlink:title=" ">
<polygon fill="white" stroke="black" points="153,-280.5 153,-299.5 254,-299.5 254,-280.5 153,-280.5"/>
<text text-anchor="middle" x="203.5" y="-287.5" font-family="Helvetica,sans-Serif" font-size="10.00">Cpl/Text/FString_.h</text>
</a>
</g>
</g>
<!-- Node10&#45;&gt;Node11 -->
<g id="edge12" class="edge"><title>Node10&#45;&gt;Node11</title>
<path fill="none" stroke="midnightblue" d="M269.807,-336.324C257.599,-327.979 238.922,-315.212 224.497,-305.352"/>
<polygon fill="midnightblue" stroke="midnightblue" points="226.392,-302.408 216.161,-299.655 222.442,-308.187 226.392,-302.408"/>
</g>
<!-- Node14 -->
<g id="node14" class="node"><title>Node14</title>
<g id="a_node14"><a xlink:href="_string_8h.html" target="_top" xlink:title=" ">
<polygon fill="white" stroke="black" points="181.5,-168.5 181.5,-187.5 271.5,-187.5 271.5,-168.5 181.5,-168.5"/>
<text text-anchor="middle" x="226.5" y="-175.5" font-family="Helvetica,sans-Serif" font-size="10.00">Cpl/Text/String.h</text>
</a>
</g>
</g>
<!-- Node10&#45;&gt;Node14 -->
<g id="edge26" class="edge"><title>Node10&#45;&gt;Node14</title>
<path fill="none" stroke="midnightblue" d="M282.417,-336.377C281.925,-315.954 278.922,-263.387 261.5,-224 256.865,-213.52 249.263,-203.315 242.326,-195.28"/>
<polygon fill="midnightblue" stroke="midnightblue" points="244.811,-192.81 235.49,-187.771 239.634,-197.522 244.811,-192.81"/>
</g>
<!-- Node12 -->
<g id="node12" class="node"><title>Node12</title>
<g id="a_node12"><a xlink:title=" ">
<polygon fill="white" stroke="#bfbfbf" points="0,-0.5 0,-19.5 85,-19.5 85,-0.5 0,-0.5"/>
<text text-anchor="middle" x="42.5" y="-7.5" font-family="Helvetica,sans-Serif" font-size="10.00">colony_config.h</text>
</a>
</g>
</g>
<!-- Node11&#45;&gt;Node12 -->
<g id="edge13" class="edge"><title>Node11&#45;&gt;Node12</title>
<path fill="none" stroke="midnightblue" d="M163.87,-280.468C115.91,-267.542 41.5,-237.983 41.5,-179 41.5,-179 41.5,-179 41.5,-121 41.5,-88.9467 41.9298,-51.6417 42.2259,-29.7484"/>
<polygon fill="midnightblue" stroke="midnightblue" points="45.7281,-29.6058 42.3693,-19.5575 38.7288,-29.5073 45.7281,-29.6058"/>
</g>
<!-- Node13 -->
<g id="node13" class="node"><title>Node13</title>
<g id="a_node13"><a xlink:href="_text_2_string___8h.html" target="_top" xlink:title=" ">
<polygon fill="white" stroke="black" points="158,-224.5 158,-243.5 253,-243.5 253,-224.5 158,-224.5"/>
<text text-anchor="middle" x="205.5" y="-231.5" font-family="Helvetica,sans-Serif" font-size="10.00">Cpl/Text/String_.h</text>
</a>
</g>
</g>
<!-- Node11&#45;&gt;Node13 -->
<g id="edge14" class="edge"><title>Node11&#45;&gt;Node13</title>
<path fill="none" stroke="midnightblue" d="M203.83,-280.083C204.092,-273.006 204.468,-262.861 204.797,-253.986"/>
<polygon fill="midnightblue" stroke="midnightblue" points="208.303,-253.874 205.176,-243.751 201.308,-253.615 208.303,-253.874"/>
</g>
<!-- Node13&#45;&gt;Node14 -->
<g id="edge15" class="edge"><title>Node13&#45;&gt;Node14</title>
<path fill="none" stroke="midnightblue" d="M208.968,-224.083C211.812,-216.77 215.929,-206.181 219.46,-197.103"/>
<polygon fill="midnightblue" stroke="midnightblue" points="222.734,-198.34 223.097,-187.751 216.21,-195.803 222.734,-198.34"/>
</g>
<!-- Node14&#45;&gt;Node3 -->
<g id="edge16" class="edge"><title>Node14&#45;&gt;Node3</title>
<path fill="none" stroke="midnightblue" d="M261.657,-168.442C284.196,-161.556 312.97,-150.004 333.5,-132 348.051,-119.239 358.482,-99.496 364.691,-85.1159"/>
<polygon fill="midnightblue" stroke="midnightblue" points="367.966,-86.3525 368.464,-75.7694 361.475,-83.7319 367.966,-86.3525"/>
</g>
<!-- Node15 -->
<g id="node15" class="node"><title>Node15</title>
<g id="a_node15"><a xlink:href="_key_8h.html" target="_top" xlink:title=" ">
<polygon fill="white" stroke="black" points="78.5,-112.5 78.5,-131.5 182.5,-131.5 182.5,-112.5 78.5,-112.5"/>
<text text-anchor="middle" x="130.5" y="-119.5" font-family="Helvetica,sans-Serif" font-size="10.00">Cpl/Container/Key.h</text>
</a>
</g>
</g>
<!-- Node14&#45;&gt;Node15 -->
<g id="edge17" class="edge"><title>Node14&#45;&gt;Node15</title>
<path fill="none" stroke="midnightblue" d="M205.961,-168.324C189.162,-159.9 165.878,-146.971 149.511,-137.074"/>
<polygon fill="midnightblue" stroke="midnightblue" points="151.118,-133.952 140.776,-131.655 147.428,-139.9 151.118,-133.952"/>
</g>
<!-- Node19 -->
<g id="node19" class="node"><title>Node19</title>
<g id="a_node19"><a xlink:title=" ">
<polygon fill="white" stroke="#bfbfbf" points="200.5,-112.5 200.5,-131.5 252.5,-131.5 252.5,-112.5 200.5,-112.5"/>
<text text-anchor="middle" x="226.5" y="-119.5" font-family="Helvetica,sans-Serif" font-size="10.00">stdarg.h</text>
</a>
</g>
</g>
<!-- Node14&#45;&gt;Node19 -->
<g id="edge24" class="edge"><title>Node14&#45;&gt;Node19</title>
<path fill="none" stroke="midnightblue" d="M226.5,-168.083C226.5,-161.006 226.5,-150.861 226.5,-141.986"/>
<polygon fill="midnightblue" stroke="midnightblue" points="230,-141.751 226.5,-131.751 223,-141.751 230,-141.751"/>
</g>
<!-- Node20 -->
<g id="node20" class="node"><title>Node20</title>
<g id="a_node20"><a xlink:title=" ">
<polygon fill="white" stroke="#bfbfbf" points="270.5,-112.5 270.5,-131.5 324.5,-131.5 324.5,-112.5 270.5,-112.5"/>
<text text-anchor="middle" x="297.5" y="-119.5" font-family="Helvetica,sans-Serif" font-size="10.00">iostream</text>
</a>
</g>
</g>
<!-- Node14&#45;&gt;Node20 -->
<g id="edge25" class="edge"><title>Node14&#45;&gt;Node20</title>
<path fill="none" stroke="midnightblue" d="M237.907,-168.324C248.609,-160.185 264.841,-147.839 277.663,-138.087"/>
<polygon fill="midnightblue" stroke="midnightblue" points="280.044,-140.673 285.885,-131.834 275.807,-135.102 280.044,-140.673"/>
</g>
<!-- Node15&#45;&gt;Node3 -->
<g id="edge23" class="edge"><title>Node15&#45;&gt;Node3</title>
<path fill="none" stroke="midnightblue" d="M168.687,-112.444C210.641,-103.043 278.094,-87.9291 323.571,-77.7393"/>
<polygon fill="midnightblue" stroke="midnightblue" points="324.499,-81.1183 333.491,-75.5164 322.968,-74.2876 324.499,-81.1183"/>
</g>
<!-- Node15&#45;&gt;Node14 -->
<g id="edge22" class="edge"><title>Node15&#45;&gt;Node14</title>
<path fill="none" stroke="midnightblue" d="M150.996,-131.655C167.784,-140.071 191.068,-152.999 207.447,-162.901"/>
<polygon fill="midnightblue" stroke="midnightblue" points="205.848,-166.027 216.191,-168.324 209.537,-160.079 205.848,-166.027"/>
</g>
<!-- Node16 -->
<g id="node16" class="node"><title>Node16</title>
<g id="a_node16"><a xlink:href="_fatal_error_8h.html" target="_top" xlink:title=" ">
<polygon fill="white" stroke="black" points="69.5,-56.5 69.5,-75.5 191.5,-75.5 191.5,-56.5 69.5,-56.5"/>
<text text-anchor="middle" x="130.5" y="-63.5" font-family="Helvetica,sans-Serif" font-size="10.00">Cpl/System/FatalError.h</text>
</a>
</g>
</g>
<!-- Node15&#45;&gt;Node16 -->
<g id="edge18" class="edge"><title>Node15&#45;&gt;Node16</title>
<path fill="none" stroke="midnightblue" d="M130.5,-112.083C130.5,-105.006 130.5,-94.8611 130.5,-85.9865"/>
<polygon fill="midnightblue" stroke="midnightblue" points="134,-85.751 130.5,-75.7511 127,-85.7511 134,-85.751"/>
</g>
<!-- Node18 -->
<g id="node18" class="node"><title>Node18</title>
<g id="a_node18"><a xlink:title=" ">
<polygon fill="white" stroke="#bfbfbf" points="210,-56.5 210,-75.5 259,-75.5 259,-56.5 210,-56.5"/>
<text text-anchor="middle" x="234.5" y="-63.5" font-family="Helvetica,sans-Serif" font-size="10.00">stdint.h</text>
</a>
</g>
</g>
<!-- Node15&#45;&gt;Node18 -->
<g id="edge21" class="edge"><title>Node15&#45;&gt;Node18</title>
<path fill="none" stroke="midnightblue" d="M147.209,-112.324C163.812,-103.703 189.502,-90.3643 208.72,-80.3855"/>
<polygon fill="midnightblue" stroke="midnightblue" points="210.57,-83.3689 217.832,-75.6545 207.344,-77.1565 210.57,-83.3689"/>
</g>
<!-- Node16&#45;&gt;Node12 -->
<g id="edge20" class="edge"><title>Node16&#45;&gt;Node12</title>
<path fill="none" stroke="midnightblue" d="M116.361,-56.324C102.634,-47.9002 81.5637,-34.9709 65.4357,-25.0741"/>
<polygon fill="midnightblue" stroke="midnightblue" points="66.9574,-21.9016 56.6036,-19.6545 63.2963,-27.8678 66.9574,-21.9016"/>
</g>
<!-- Node17 -->
<g id="node17" class="node"><title>Node17</title>
<g id="a_node17"><a xlink:title=" ">
<polygon fill="white" stroke="#bfbfbf" points="104.5,-0.5 104.5,-19.5 156.5,-19.5 156.5,-0.5 104.5,-0.5"/>
<text text-anchor="middle" x="130.5" y="-7.5" font-family="Helvetica,sans-Serif" font-size="10.00">stddef.h</text>
</a>
</g>
</g>
<!-- Node16&#45;&gt;Node17 -->
<g id="edge19" class="edge"><title>Node16&#45;&gt;Node17</title>
<path fill="none" stroke="midnightblue" d="M130.5,-56.083C130.5,-49.0059 130.5,-38.8611 130.5,-29.9865"/>
<polygon fill="midnightblue" stroke="midnightblue" points="134,-29.751 130.5,-19.7511 127,-29.7511 134,-29.751"/>
</g>
</g>
</svg>
