<?xml version="1.0" encoding="UTF-8" standalone="no"?>
<!DOCTYPE svg PUBLIC "-//W3C//DTD SVG 1.1//EN"
 "http://www.w3.org/Graphics/SVG/1.1/DTD/svg11.dtd">
<!-- Generated by graphviz version 2.38.0 (20140413.2041)
 -->
<!-- Title: Cpl/System/Cpp11/mappings_.h Pages: 1 -->
<svg width="513pt" height="140pt"
 viewBox="0.00 0.00 512.88 140.00" xmlns="http://www.w3.org/2000/svg" xmlns:xlink="http://www.w3.org/1999/xlink">
<g id="graph0" class="graph" transform="scale(1 1) rotate(0) translate(4 136)">
<title>Cpl/System/Cpp11/mappings_.h</title>
<polygon fill="white" stroke="none" points="-4,4 -4,-136 508.875,-136 508.875,4 -4,4"/>
<!-- Node1 -->
<g id="node1" class="node"><title>Node1</title>
<g id="a_node1"><a xlink:title=" ">
<polygon fill="#bfbfbf" stroke="black" points="136.375,-112.5 136.375,-131.5 293.375,-131.5 293.375,-112.5 136.375,-112.5"/>
<text text-anchor="middle" x="214.875" y="-119.5" font-family="Helvetica,sans-Serif" font-size="10.00">Cpl/System/Cpp11/mappings_.h</text>
</a>
</g>
</g>
<!-- Node2 -->
<g id="node2" class="node"><title>Node2</title>
<g id="a_node2"><a xlink:title=" ">
<polygon fill="white" stroke="#bfbfbf" points="130.375,-0.5 130.375,-19.5 215.375,-19.5 215.375,-0.5 130.375,-0.5"/>
<text text-anchor="middle" x="172.875" y="-7.5" font-family="Helvetica,sans-Serif" font-size="10.00">colony_config.h</text>
</a>
</g>
</g>
<!-- Node1&#45;&gt;Node2 -->
<g id="edge1" class="edge"><title>Node1&#45;&gt;Node2</title>
<path fill="none" stroke="midnightblue" d="M136.114,-114.035C84.6395,-107.665 24.0591,-96.0799 7.87539,-76 -25.2735,-34.8705 60.1265,-19.675 120.06,-14.1257"/>
<polygon fill="midnightblue" stroke="midnightblue" points="120.514,-17.5996 130.178,-13.2563 119.915,-10.6253 120.514,-17.5996"/>
</g>
<!-- Node3 -->
<g id="node3" class="node"><title>Node3</title>
<g id="a_node3"><a xlink:title=" ">
<polygon fill="white" stroke="#bfbfbf" points="16.8754,-56.5 16.8754,-75.5 60.8754,-75.5 60.8754,-56.5 16.8754,-56.5"/>
<text text-anchor="middle" x="38.8754" y="-63.5" font-family="Helvetica,sans-Serif" font-size="10.00">mutex</text>
</a>
</g>
</g>
<!-- Node1&#45;&gt;Node3 -->
<g id="edge2" class="edge"><title>Node1&#45;&gt;Node3</title>
<path fill="none" stroke="midnightblue" d="M186.988,-112.444C155.365,-102.741 103.904,-86.952 70.7272,-76.7727"/>
<polygon fill="midnightblue" stroke="midnightblue" points="71.6468,-73.3939 61.06,-73.8067 69.5935,-80.086 71.6468,-73.3939"/>
</g>
<!-- Node4 -->
<g id="node4" class="node"><title>Node4</title>
<g id="a_node4"><a xlink:title=" ">
<polygon fill="white" stroke="#bfbfbf" points="79.3754,-56.5 79.3754,-75.5 174.375,-75.5 174.375,-56.5 79.3754,-56.5"/>
<text text-anchor="middle" x="126.875" y="-63.5" font-family="Helvetica,sans-Serif" font-size="10.00">condition_variable</text>
</a>
</g>
</g>
<!-- Node1&#45;&gt;Node4 -->
<g id="edge3" class="edge"><title>Node1&#45;&gt;Node4</title>
<path fill="none" stroke="midnightblue" d="M200.737,-112.324C187.009,-103.9 165.939,-90.9709 149.811,-81.0741"/>
<polygon fill="midnightblue" stroke="midnightblue" points="151.333,-77.9016 140.979,-75.6545 147.672,-83.8678 151.333,-77.9016"/>
</g>
<!-- Node5 -->
<g id="node5" class="node"><title>Node5</title>
<g id="a_node5"><a xlink:title=" ">
<polygon fill="white" stroke="#bfbfbf" points="192.875,-56.5 192.875,-75.5 236.875,-75.5 236.875,-56.5 192.875,-56.5"/>
<text text-anchor="middle" x="214.875" y="-63.5" font-family="Helvetica,sans-Serif" font-size="10.00">time.h</text>
</a>
</g>
</g>
<!-- Node1&#45;&gt;Node5 -->
<g id="edge4" class="edge"><title>Node1&#45;&gt;Node5</title>
<path fill="none" stroke="midnightblue" d="M214.875,-112.083C214.875,-105.006 214.875,-94.8611 214.875,-85.9865"/>
<polygon fill="midnightblue" stroke="midnightblue" points="218.375,-85.751 214.875,-75.7511 211.375,-85.7511 218.375,-85.751"/>
</g>
<!-- Node6 -->
<g id="node6" class="node"><title>Node6</title>
<g id="a_node6"><a xlink:title=" ">
<polygon fill="white" stroke="#bfbfbf" points="254.875,-56.5 254.875,-75.5 302.875,-75.5 302.875,-56.5 254.875,-56.5"/>
<text text-anchor="middle" x="278.875" y="-63.5" font-family="Helvetica,sans-Serif" font-size="10.00">stdlib.h</text>
</a>
</g>
</g>
<!-- Node1&#45;&gt;Node6 -->
<g id="edge5" class="edge"><title>Node1&#45;&gt;Node6</title>
<path fill="none" stroke="midnightblue" d="M225.158,-112.324C234.712,-104.263 249.155,-92.0765 260.66,-82.3695"/>
<polygon fill="midnightblue" stroke="midnightblue" points="263.02,-84.9577 268.406,-75.8339 258.506,-79.6076 263.02,-84.9577"/>
</g>
<!-- Node7 -->
<g id="node7" class="node"><title>Node7</title>
<g id="a_node7"><a xlink:title=" ">
<polygon fill="white" stroke="#bfbfbf" points="320.875,-56.5 320.875,-75.5 364.875,-75.5 364.875,-56.5 320.875,-56.5"/>
<text text-anchor="middle" x="342.875" y="-63.5" font-family="Helvetica,sans-Serif" font-size="10.00">thread</text>
</a>
</g>
</g>
<!-- Node1&#45;&gt;Node7 -->
<g id="edge6" class="edge"><title>Node1&#45;&gt;Node7</title>
<path fill="none" stroke="midnightblue" d="M235.157,-112.444C256.223,-103.557 289.392,-89.5632 313.361,-79.4514"/>
<polygon fill="midnightblue" stroke="midnightblue" points="314.835,-82.6283 322.688,-75.5164 312.114,-76.1787 314.835,-82.6283"/>
</g>
<!-- Node8 -->
<g id="node8" class="node"><title>Node8</title>
<g id="a_node8"><a xlink:href="_fatal_error_8h.html" target="_top" xlink:title=" ">
<polygon fill="white" stroke="black" points="382.875,-56.5 382.875,-75.5 504.875,-75.5 504.875,-56.5 382.875,-56.5"/>
<text text-anchor="middle" x="443.875" y="-63.5" font-family="Helvetica,sans-Serif" font-size="10.00">Cpl/System/FatalError.h</text>
</a>
</g>
</g>
<!-- Node1&#45;&gt;Node8 -->
<g id="edge7" class="edge"><title>Node1&#45;&gt;Node8</title>
<path fill="none" stroke="midnightblue" d="M251.161,-112.444C290.858,-103.083 354.582,-88.0561 397.787,-77.868"/>
<polygon fill="midnightblue" stroke="midnightblue" points="398.83,-81.2182 407.759,-75.5164 397.223,-74.4051 398.83,-81.2182"/>
</g>
<!-- Node8&#45;&gt;Node2 -->
<g id="edge9" class="edge"><title>Node8&#45;&gt;Node2</title>
<path fill="none" stroke="midnightblue" d="M400.935,-56.4435C353.362,-46.9641 276.632,-31.6747 225.487,-21.4835"/>
<polygon fill="midnightblue" stroke="midnightblue" points="226.106,-18.0382 215.615,-19.5164 224.738,-24.9032 226.106,-18.0382"/>
</g>
<!-- Node9 -->
<g id="node9" class="node"><title>Node9</title>
<g id="a_node9"><a xlink:title=" ">
<polygon fill="white" stroke="#bfbfbf" points="417.875,-0.5 417.875,-19.5 469.875,-19.5 469.875,-0.5 417.875,-0.5"/>
<text text-anchor="middle" x="443.875" y="-7.5" font-family="Helvetica,sans-Serif" font-size="10.00">stddef.h</text>
</a>
</g>
</g>
<!-- Node8&#45;&gt;Node9 -->
<g id="edge8" class="edge"><title>Node8&#45;&gt;Node9</title>
<path fill="none" stroke="midnightblue" d="M443.875,-56.083C443.875,-49.0059 443.875,-38.8611 443.875,-29.9865"/>
<polygon fill="midnightblue" stroke="midnightblue" points="447.375,-29.751 443.875,-19.7511 440.375,-29.7511 447.375,-29.751"/>
</g>
</g>
</svg>
