<?xml version="1.0" encoding="UTF-8" standalone="no"?>
<!DOCTYPE svg PUBLIC "-//W3C//DTD SVG 1.1//EN"
 "http://www.w3.org/Graphics/SVG/1.1/DTD/svg11.dtd">
<!-- Generated by graphviz version 2.38.0 (20140413.2041)
 -->
<!-- Title: Storm/Type/CycleInfo.h Pages: 1 -->
<svg width="295pt" height="140pt"
 viewBox="0.00 0.00 294.50 140.00" xmlns="http://www.w3.org/2000/svg" xmlns:xlink="http://www.w3.org/1999/xlink">
<g id="graph0" class="graph" transform="scale(1 1) rotate(0) translate(4 136)">
<title>Storm/Type/CycleInfo.h</title>
<polygon fill="white" stroke="none" points="-4,4 -4,-136 290.5,-136 290.5,4 -4,4"/>
<!-- Node1 -->
<g id="node1" class="node"><title>Node1</title>
<g id="a_node1"><a xlink:title=" ">
<polygon fill="#bfbfbf" stroke="black" points="84.5,-112.5 84.5,-131.5 204.5,-131.5 204.5,-112.5 84.5,-112.5"/>
<text text-anchor="middle" x="144.5" y="-119.5" font-family="Helvetica,sans-Serif" font-size="10.00">Storm/Type/CycleInfo.h</text>
</a>
</g>
</g>
<!-- Node2 -->
<g id="node2" class="node"><title>Node2</title>
<g id="a_node2"><a xlink:href="_elapsed_time_8h.html" target="_top" xlink:title=" ">
<polygon fill="white" stroke="black" points="0.5,-56.5 0.5,-75.5 136.5,-75.5 136.5,-56.5 0.5,-56.5"/>
<text text-anchor="middle" x="68.5" y="-63.5" font-family="Helvetica,sans-Serif" font-size="10.00">Cpl/System/ElapsedTime.h</text>
</a>
</g>
</g>
<!-- Node1&#45;&gt;Node2 -->
<g id="edge1" class="edge"><title>Node1&#45;&gt;Node2</title>
<path fill="none" stroke="midnightblue" d="M132.289,-112.324C120.724,-104.107 103.125,-91.6017 89.3393,-81.8069"/>
<polygon fill="midnightblue" stroke="midnightblue" points="91.112,-78.7729 80.9329,-75.8339 87.0575,-84.4791 91.112,-78.7729"/>
</g>
<!-- Node5 -->
<g id="node5" class="node"><title>Node5</title>
<g id="a_node5"><a xlink:href="_cycle_status_8h.html" target="_top" xlink:title=" ">
<polygon fill="white" stroke="black" points="154.5,-56.5 154.5,-75.5 286.5,-75.5 286.5,-56.5 154.5,-56.5"/>
<text text-anchor="middle" x="220.5" y="-63.5" font-family="Helvetica,sans-Serif" font-size="10.00">Storm/Type/CycleStatus.h</text>
</a>
</g>
</g>
<!-- Node1&#45;&gt;Node5 -->
<g id="edge4" class="edge"><title>Node1&#45;&gt;Node5</title>
<path fill="none" stroke="midnightblue" d="M156.711,-112.324C168.276,-104.107 185.875,-91.6017 199.661,-81.8069"/>
<polygon fill="midnightblue" stroke="midnightblue" points="201.943,-84.4791 208.067,-75.8339 197.888,-78.7729 201.943,-84.4791"/>
</g>
<!-- Node3 -->
<g id="node3" class="node"><title>Node3</title>
<g id="a_node3"><a xlink:title=" ">
<polygon fill="white" stroke="#bfbfbf" points="0,-0.5 0,-19.5 49,-19.5 49,-0.5 0,-0.5"/>
<text text-anchor="middle" x="24.5" y="-7.5" font-family="Helvetica,sans-Serif" font-size="10.00">stdint.h</text>
</a>
</g>
</g>
<!-- Node2&#45;&gt;Node3 -->
<g id="edge2" class="edge"><title>Node2&#45;&gt;Node3</title>
<path fill="none" stroke="midnightblue" d="M61.2343,-56.083C54.9552,-48.3768 45.7124,-37.0333 38.0692,-27.6531"/>
<polygon fill="midnightblue" stroke="midnightblue" points="40.6606,-25.2926 31.6305,-19.7511 35.2339,-29.7143 40.6606,-25.2926"/>
</g>
<!-- Node4 -->
<g id="node4" class="node"><title>Node4</title>
<g id="a_node4"><a xlink:title=" ">
<polygon fill="white" stroke="#bfbfbf" points="67.5,-0.5 67.5,-19.5 127.5,-19.5 127.5,-0.5 67.5,-0.5"/>
<text text-anchor="middle" x="97.5" y="-7.5" font-family="Helvetica,sans-Serif" font-size="10.00">memory.h</text>
</a>
</g>
</g>
<!-- Node2&#45;&gt;Node4 -->
<g id="edge3" class="edge"><title>Node2&#45;&gt;Node4</title>
<path fill="none" stroke="midnightblue" d="M73.2888,-56.083C77.2584,-48.6913 83.0251,-37.9533 87.9348,-28.8111"/>
<polygon fill="midnightblue" stroke="midnightblue" points="91.1525,-30.217 92.8003,-19.7511 84.9855,-26.9051 91.1525,-30.217"/>
</g>
<!-- Node6 -->
<g id="node6" class="node"><title>Node6</title>
<g id="a_node6"><a xlink:href="enum_8h_source.html" target="_top" xlink:title=" ">
<polygon fill="white" stroke="black" points="175,-0.5 175,-19.5 266,-19.5 266,-0.5 175,-0.5"/>
<text text-anchor="middle" x="220.5" y="-7.5" font-family="Helvetica,sans-Serif" font-size="10.00">Cpl/Type/enum.h</text>
</a>
</g>
</g>
<!-- Node5&#45;&gt;Node6 -->
<g id="edge5" class="edge"><title>Node5&#45;&gt;Node6</title>
<path fill="none" stroke="midnightblue" d="M220.5,-56.083C220.5,-49.0059 220.5,-38.8611 220.5,-29.9865"/>
<polygon fill="midnightblue" stroke="midnightblue" points="224,-29.751 220.5,-19.7511 217,-29.7511 224,-29.751"/>
</g>
</g>
</svg>
