<?xml version="1.0" encoding="UTF-8" standalone="no"?>
<!DOCTYPE svg PUBLIC "-//W3C//DTD SVG 1.1//EN"
 "http://www.w3.org/Graphics/SVG/1.1/DTD/svg11.dtd">
<!-- Generated by graphviz version 10.0.1 (20240210.2158)
 -->
<!-- Title: Cpl/Text/DFStringItem.h Pages: 1 -->
<svg width="482pt" height="420pt"
 viewBox="0.00 0.00 482.00 420.00" xmlns="http://www.w3.org/2000/svg" xmlns:xlink="http://www.w3.org/1999/xlink">
<g id="graph0" class="graph" transform="scale(1 1) rotate(0) translate(4 416)">
<title>Cpl/Text/DFStringItem.h</title>
<!-- Node1 -->
<g id="Node000001" class="node">
<title>Node1</title>
<g id="a_Node000001"><a xlink:title=" ">
<polygon fill="#999999" stroke="#666666" points="391.38,-412 271.12,-412 271.12,-392 391.38,-392 391.38,-412"/>
<text text-anchor="middle" x="331.25" y="-398.5" font-family="Helvetica,sans-Serif" font-size="10.00">Cpl/Text/DFStringItem.h</text>
</a>
</g>
</g>
<!-- Node2 -->
<g id="Node000002" class="node">
<title>Node2</title>
<g id="a_Node000002"><a xlink:href="_string_item_8h.html" target="_top" xlink:title=" ">
<polygon fill="white" stroke="#666666" points="324,-300 216.5,-300 216.5,-280 324,-280 324,-300"/>
<text text-anchor="middle" x="270.25" y="-286.5" font-family="Helvetica,sans-Serif" font-size="10.00">Cpl/Text/StringItem.h</text>
</a>
</g>
</g>
<!-- Node1&#45;&gt;Node2 -->
<g id="edge1_Node000001_Node000002" class="edge">
<title>Node1&#45;&gt;Node2</title>
<g id="a_edge1_Node000001_Node000002"><a xlink:title=" ">
<path fill="none" stroke="#63b8ff" d="M326.05,-391.62C316.1,-373.68 294.19,-334.17 280.98,-310.35"/>
<polygon fill="#63b8ff" stroke="#63b8ff" points="284.08,-308.73 276.17,-301.68 277.96,-312.12 284.08,-308.73"/>
</a>
</g>
</g>
<!-- Node16 -->
<g id="Node000016" class="node">
<title>Node16</title>
<g id="a_Node000016"><a xlink:href="_d_f_string_8h.html" target="_top" xlink:title=" ">
<polygon fill="white" stroke="#666666" points="443,-356 341.5,-356 341.5,-336 443,-336 443,-356"/>
<text text-anchor="middle" x="392.25" y="-342.5" font-family="Helvetica,sans-Serif" font-size="10.00">Cpl/Text/DFString.h</text>
</a>
</g>
</g>
<!-- Node1&#45;&gt;Node16 -->
<g id="edge17_Node000001_Node000016" class="edge">
<title>Node1&#45;&gt;Node16</title>
<g id="a_edge17_Node000001_Node000016"><a xlink:title=" ">
<path fill="none" stroke="#63b8ff" d="M341.88,-391.59C350.53,-383.93 362.98,-372.91 373.33,-363.75"/>
<polygon fill="#63b8ff" stroke="#63b8ff" points="375.45,-366.55 380.61,-357.3 370.81,-361.31 375.45,-366.55"/>
</a>
</g>
</g>
<!-- Node3 -->
<g id="Node000003" class="node">
<title>Node3</title>
<g id="a_Node000003"><a xlink:href="_map_item_8h.html" target="_top" xlink:title=" ">
<polygon fill="white" stroke="#666666" points="238.88,-244 115.62,-244 115.62,-224 238.88,-224 238.88,-244"/>
<text text-anchor="middle" x="177.25" y="-230.5" font-family="Helvetica,sans-Serif" font-size="10.00">Cpl/Container/MapItem.h</text>
</a>
</g>
</g>
<!-- Node2&#45;&gt;Node3 -->
<g id="edge2_Node000002_Node000003" class="edge">
<title>Node2&#45;&gt;Node3</title>
<g id="a_edge2_Node000002_Node000003"><a xlink:title=" ">
<path fill="none" stroke="#63b8ff" d="M254.05,-279.59C240,-271.44 219.42,-259.48 203.09,-250"/>
<polygon fill="#63b8ff" stroke="#63b8ff" points="205.29,-247.23 194.88,-245.24 201.78,-253.29 205.29,-247.23"/>
</a>
</g>
</g>
<!-- Node13 -->
<g id="Node000013" class="node">
<title>Node13</title>
<g id="a_Node000013"><a xlink:href="_text_2_string_8h.html" target="_top" xlink:title=" ">
<polygon fill="white" stroke="#666666" points="362.62,-188 273.88,-188 273.88,-168 362.62,-168 362.62,-188"/>
<text text-anchor="middle" x="318.25" y="-174.5" font-family="Helvetica,sans-Serif" font-size="10.00">Cpl/Text/String.h</text>
</a>
</g>
</g>
<!-- Node2&#45;&gt;Node13 -->
<g id="edge12_Node000002_Node000013" class="edge">
<title>Node2&#45;&gt;Node13</title>
<g id="a_edge12_Node000002_Node000013"><a xlink:title=" ">
<path fill="none" stroke="#63b8ff" d="M274.34,-279.62C282.14,-261.76 299.26,-222.53 309.67,-198.67"/>
<polygon fill="#63b8ff" stroke="#63b8ff" points="312.77,-200.31 313.56,-189.74 306.36,-197.51 312.77,-200.31"/>
</a>
</g>
</g>
<!-- Node4 -->
<g id="Node000004" class="node">
<title>Node4</title>
<g id="a_Node000004"><a xlink:href="_dict_item_8h.html" target="_top" xlink:title=" ">
<polygon fill="white" stroke="#666666" points="235.12,-188 113.38,-188 113.38,-168 235.12,-168 235.12,-188"/>
<text text-anchor="middle" x="174.25" y="-174.5" font-family="Helvetica,sans-Serif" font-size="10.00">Cpl/Container/DictItem.h</text>
</a>
</g>
</g>
<!-- Node3&#45;&gt;Node4 -->
<g id="edge3_Node000003_Node000004" class="edge">
<title>Node3&#45;&gt;Node4</title>
<g id="a_edge3_Node000003_Node000004"><a xlink:title=" ">
<path fill="none" stroke="#63b8ff" d="M176.73,-223.59C176.36,-217.01 175.86,-207.96 175.4,-199.73"/>
<polygon fill="#63b8ff" stroke="#63b8ff" points="178.9,-199.6 174.85,-189.81 171.91,-199.99 178.9,-199.6"/>
</a>
</g>
</g>
<!-- Node5 -->
<g id="Node000005" class="node">
<title>Node5</title>
<g id="a_Node000005"><a xlink:href="_item_8h.html" target="_top" xlink:title=" ">
<polygon fill="white" stroke="#666666" points="104.5,-132 0,-132 0,-112 104.5,-112 104.5,-132"/>
<text text-anchor="middle" x="52.25" y="-118.5" font-family="Helvetica,sans-Serif" font-size="10.00">Cpl/Container/Item.h</text>
</a>
</g>
</g>
<!-- Node4&#45;&gt;Node5 -->
<g id="edge4_Node000004_Node000005" class="edge">
<title>Node4&#45;&gt;Node5</title>
<g id="a_edge4_Node000004_Node000005"><a xlink:title=" ">
<path fill="none" stroke="#63b8ff" d="M153,-167.59C133.96,-159.17 105.77,-146.69 84.05,-137.07"/>
<polygon fill="#63b8ff" stroke="#63b8ff" points="85.61,-133.94 75.05,-133.09 82.78,-140.34 85.61,-133.94"/>
</a>
</g>
</g>
<!-- Node6 -->
<g id="Node000006" class="node">
<title>Node6</title>
<g id="a_Node000006"><a xlink:href="_key_8h.html" target="_top" xlink:title=" ">
<polygon fill="white" stroke="#666666" points="225.75,-132 122.75,-132 122.75,-112 225.75,-112 225.75,-132"/>
<text text-anchor="middle" x="174.25" y="-118.5" font-family="Helvetica,sans-Serif" font-size="10.00">Cpl/Container/Key.h</text>
</a>
</g>
</g>
<!-- Node4&#45;&gt;Node6 -->
<g id="edge5_Node000004_Node000006" class="edge">
<title>Node4&#45;&gt;Node6</title>
<g id="a_edge5_Node000004_Node000006"><a xlink:title=" ">
<path fill="none" stroke="#63b8ff" d="M174.25,-167.59C174.25,-161.01 174.25,-151.96 174.25,-143.73"/>
<polygon fill="#63b8ff" stroke="#63b8ff" points="177.75,-143.81 174.25,-133.81 170.75,-143.81 177.75,-143.81"/>
</a>
</g>
</g>
<!-- Node7 -->
<g id="Node000007" class="node">
<title>Node7</title>
<g id="a_Node000007"><a xlink:href="_fatal_error_8h.html" target="_top" xlink:title=" ">
<polygon fill="white" stroke="#666666" points="143.75,-76 22.75,-76 22.75,-56 143.75,-56 143.75,-76"/>
<text text-anchor="middle" x="83.25" y="-62.5" font-family="Helvetica,sans-Serif" font-size="10.00">Cpl/System/FatalError.h</text>
</a>
</g>
</g>
<!-- Node6&#45;&gt;Node7 -->
<g id="edge6_Node000006_Node000007" class="edge">
<title>Node6&#45;&gt;Node7</title>
<g id="a_edge6_Node000006_Node000007"><a xlink:title=" ">
<path fill="none" stroke="#63b8ff" d="M158.4,-111.59C144.78,-103.51 124.89,-91.71 108.99,-82.27"/>
<polygon fill="#63b8ff" stroke="#63b8ff" points="110.91,-79.35 100.53,-77.25 107.34,-85.37 110.91,-79.35"/>
</a>
</g>
</g>
<!-- Node10 -->
<g id="Node000010" class="node">
<title>Node10</title>
<g id="a_Node000010"><a xlink:title=" ">
<polygon fill="#e0e0e0" stroke="#999999" points="210.38,-76 162.12,-76 162.12,-56 210.38,-56 210.38,-76"/>
<text text-anchor="middle" x="186.25" y="-62.5" font-family="Helvetica,sans-Serif" font-size="10.00">stdint.h</text>
</a>
</g>
</g>
<!-- Node6&#45;&gt;Node10 -->
<g id="edge9_Node000006_Node000010" class="edge">
<title>Node6&#45;&gt;Node10</title>
<g id="a_edge9_Node000006_Node000010"><a xlink:title=" ">
<path fill="none" stroke="#63b8ff" d="M176.34,-111.59C177.82,-104.93 179.86,-95.75 181.71,-87.44"/>
<polygon fill="#63b8ff" stroke="#63b8ff" points="185.1,-88.3 183.86,-77.78 178.27,-86.78 185.1,-88.3"/>
</a>
</g>
</g>
<!-- Node11 -->
<g id="Node000011" class="node">
<title>Node11</title>
<g id="a_Node000011"><a xlink:title=" ">
<polygon fill="#e0e0e0" stroke="#999999" points="276.38,-76 228.12,-76 228.12,-56 276.38,-56 276.38,-76"/>
<text text-anchor="middle" x="252.25" y="-62.5" font-family="Helvetica,sans-Serif" font-size="10.00">string.h</text>
</a>
</g>
</g>
<!-- Node6&#45;&gt;Node11 -->
<g id="edge10_Node000006_Node000011" class="edge">
<title>Node6&#45;&gt;Node11</title>
<g id="a_edge10_Node000006_Node000011"><a xlink:title=" ">
<path fill="none" stroke="#63b8ff" d="M187.84,-111.59C199.29,-103.67 215.91,-92.16 229.41,-82.82"/>
<polygon fill="#63b8ff" stroke="#63b8ff" points="231.08,-85.91 237.31,-77.34 227.1,-80.16 231.08,-85.91"/>
</a>
</g>
</g>
<!-- Node12 -->
<g id="Node000012" class="node">
<title>Node12</title>
<g id="a_Node000012"><a xlink:title=" ">
<polygon fill="#e0e0e0" stroke="#999999" points="393.62,-76 316.88,-76 316.88,-56 393.62,-56 393.62,-76"/>
<text text-anchor="middle" x="355.25" y="-62.5" font-family="Helvetica,sans-Serif" font-size="10.00">colony_map.h</text>
</a>
</g>
</g>
<!-- Node6&#45;&gt;Node12 -->
<g id="edge11_Node000006_Node000012" class="edge">
<title>Node6&#45;&gt;Node12</title>
<g id="a_edge11_Node000006_Node000012"><a xlink:title=" ">
<path fill="none" stroke="#63b8ff" d="M205.78,-111.59C235.44,-102.74 280.08,-89.43 312.86,-79.65"/>
<polygon fill="#63b8ff" stroke="#63b8ff" points="313.44,-83.13 322.03,-76.91 311.44,-76.42 313.44,-83.13"/>
</a>
</g>
</g>
<!-- Node8 -->
<g id="Node000008" class="node">
<title>Node8</title>
<g id="a_Node000008"><a xlink:title=" ">
<polygon fill="#e0e0e0" stroke="#999999" points="108.5,-20 58,-20 58,0 108.5,0 108.5,-20"/>
<text text-anchor="middle" x="83.25" y="-6.5" font-family="Helvetica,sans-Serif" font-size="10.00">stddef.h</text>
</a>
</g>
</g>
<!-- Node7&#45;&gt;Node8 -->
<g id="edge7_Node000007_Node000008" class="edge">
<title>Node7&#45;&gt;Node8</title>
<g id="a_edge7_Node000007_Node000008"><a xlink:title=" ">
<path fill="none" stroke="#63b8ff" d="M83.25,-55.59C83.25,-49.01 83.25,-39.96 83.25,-31.73"/>
<polygon fill="#63b8ff" stroke="#63b8ff" points="86.75,-31.81 83.25,-21.81 79.75,-31.81 86.75,-31.81"/>
</a>
</g>
</g>
<!-- Node9 -->
<g id="Node000009" class="node">
<title>Node9</title>
<g id="a_Node000009"><a xlink:title=" ">
<polygon fill="#e0e0e0" stroke="#999999" points="474,-20 390.5,-20 390.5,0 474,0 474,-20"/>
<text text-anchor="middle" x="432.25" y="-6.5" font-family="Helvetica,sans-Serif" font-size="10.00">colony_config.h</text>
</a>
</g>
</g>
<!-- Node7&#45;&gt;Node9 -->
<g id="edge8_Node000007_Node000009" class="edge">
<title>Node7&#45;&gt;Node9</title>
<g id="a_edge8_Node000007_Node000009"><a xlink:title=" ">
<path fill="none" stroke="#63b8ff" d="M144.04,-55.59C210.41,-45.32 315.65,-29.04 378.92,-19.25"/>
<polygon fill="#63b8ff" stroke="#63b8ff" points="379.39,-22.72 388.73,-17.73 378.32,-15.8 379.39,-22.72"/>
</a>
</g>
</g>
<!-- Node13&#45;&gt;Node6 -->
<g id="edge14_Node000013_Node000006" class="edge">
<title>Node13&#45;&gt;Node6</title>
<g id="a_edge14_Node000013_Node000006"><a xlink:title=" ">
<path fill="none" stroke="#63b8ff" d="M293.17,-167.59C270.18,-158.97 235.9,-146.12 210.04,-136.42"/>
<polygon fill="#63b8ff" stroke="#63b8ff" points="211.54,-133.25 200.95,-133.01 209.08,-139.8 211.54,-133.25"/>
</a>
</g>
</g>
<!-- Node13&#45;&gt;Node12 -->
<g id="edge13_Node000013_Node000012" class="edge">
<title>Node13&#45;&gt;Node12</title>
<g id="a_edge13_Node000013_Node000012"><a xlink:title=" ">
<path fill="none" stroke="#63b8ff" d="M337.73,-167.6C350.99,-160.02 367.5,-148 375.25,-132 382.48,-117.08 375.76,-98.96 368.22,-85.65"/>
<polygon fill="#63b8ff" stroke="#63b8ff" points="371.34,-84.04 363.05,-77.44 365.41,-87.77 371.34,-84.04"/>
</a>
</g>
</g>
<!-- Node14 -->
<g id="Node000014" class="node">
<title>Node14</title>
<g id="a_Node000014"><a xlink:title=" ">
<polygon fill="#e0e0e0" stroke="#999999" points="294.88,-132 243.62,-132 243.62,-112 294.88,-112 294.88,-132"/>
<text text-anchor="middle" x="269.25" y="-118.5" font-family="Helvetica,sans-Serif" font-size="10.00">stdarg.h</text>
</a>
</g>
</g>
<!-- Node13&#45;&gt;Node14 -->
<g id="edge15_Node000013_Node000014" class="edge">
<title>Node13&#45;&gt;Node14</title>
<g id="a_edge15_Node000013_Node000014"><a xlink:title=" ">
<path fill="none" stroke="#63b8ff" d="M309.71,-167.59C302.97,-160.16 293.36,-149.58 285.21,-140.58"/>
<polygon fill="#63b8ff" stroke="#63b8ff" points="288.02,-138.47 278.7,-133.42 282.83,-143.18 288.02,-138.47"/>
</a>
</g>
</g>
<!-- Node15 -->
<g id="Node000015" class="node">
<title>Node15</title>
<g id="a_Node000015"><a xlink:title=" ">
<polygon fill="#e0e0e0" stroke="#999999" points="366,-132 312.5,-132 312.5,-112 366,-112 366,-132"/>
<text text-anchor="middle" x="339.25" y="-118.5" font-family="Helvetica,sans-Serif" font-size="10.00">iostream</text>
</a>
</g>
</g>
<!-- Node13&#45;&gt;Node15 -->
<g id="edge16_Node000013_Node000015" class="edge">
<title>Node13&#45;&gt;Node15</title>
<g id="a_edge16_Node000013_Node000015"><a xlink:title=" ">
<path fill="none" stroke="#63b8ff" d="M321.91,-167.59C324.56,-160.78 328.24,-151.32 331.53,-142.86"/>
<polygon fill="#63b8ff" stroke="#63b8ff" points="334.72,-144.3 335.09,-133.71 328.2,-141.76 334.72,-144.3"/>
</a>
</g>
</g>
<!-- Node16&#45;&gt;Node9 -->
<g id="edge18_Node000016_Node000009" class="edge">
<title>Node16&#45;&gt;Node9</title>
<g id="a_edge18_Node000016_Node000009"><a xlink:title=" ">
<path fill="none" stroke="#63b8ff" d="M409.94,-335.64C423.15,-327.79 440.68,-315.4 451.25,-300 468.29,-275.19 470.25,-265.1 470.25,-235 470.25,-235 470.25,-235 470.25,-121 470.25,-87.77 454.57,-51.85 443.35,-30.4"/>
<polygon fill="#63b8ff" stroke="#63b8ff" points="446.45,-28.76 438.58,-21.66 440.31,-32.12 446.45,-28.76"/>
</a>
</g>
</g>
<!-- Node17 -->
<g id="Node000017" class="node">
<title>Node17</title>
<g id="a_Node000017"><a xlink:href="_f_string___8h.html" target="_top" xlink:title=" ">
<polygon fill="white" stroke="#666666" points="442.25,-300 342.25,-300 342.25,-280 442.25,-280 442.25,-300"/>
<text text-anchor="middle" x="392.25" y="-286.5" font-family="Helvetica,sans-Serif" font-size="10.00">Cpl/Text/FString_.h</text>
</a>
</g>
</g>
<!-- Node16&#45;&gt;Node17 -->
<g id="edge19_Node000016_Node000017" class="edge">
<title>Node16&#45;&gt;Node17</title>
<g id="a_edge19_Node000016_Node000017"><a xlink:title=" ">
<path fill="none" stroke="#63b8ff" d="M392.25,-335.59C392.25,-329.01 392.25,-319.96 392.25,-311.73"/>
<polygon fill="#63b8ff" stroke="#63b8ff" points="395.75,-311.81 392.25,-301.81 388.75,-311.81 395.75,-311.81"/>
</a>
</g>
</g>
<!-- Node17&#45;&gt;Node9 -->
<g id="edge20_Node000017_Node000009" class="edge">
<title>Node17&#45;&gt;Node9</title>
<g id="a_edge20_Node000017_Node000009"><a xlink:title=" ">
<path fill="none" stroke="#63b8ff" d="M398.15,-279.71C409.28,-261.27 432.25,-218.42 432.25,-179 432.25,-179 432.25,-179 432.25,-121 432.25,-89.87 432.25,-53.78 432.25,-31.68"/>
<polygon fill="#63b8ff" stroke="#63b8ff" points="435.75,-31.93 432.25,-21.93 428.75,-31.93 435.75,-31.93"/>
</a>
</g>
</g>
<!-- Node18 -->
<g id="Node000018" class="node">
<title>Node18</title>
<g id="a_Node000018"><a xlink:href="_string___8h.html" target="_top" xlink:title=" ">
<polygon fill="white" stroke="#666666" points="402.25,-244 308.25,-244 308.25,-224 402.25,-224 402.25,-244"/>
<text text-anchor="middle" x="355.25" y="-230.5" font-family="Helvetica,sans-Serif" font-size="10.00">Cpl/Text/String_.h</text>
</a>
</g>
</g>
<!-- Node17&#45;&gt;Node18 -->
<g id="edge21_Node000017_Node000018" class="edge">
<title>Node17&#45;&gt;Node18</title>
<g id="a_edge21_Node000017_Node000018"><a xlink:title=" ">
<path fill="none" stroke="#63b8ff" d="M385.81,-279.59C380.92,-272.47 374.06,-262.45 368.07,-253.72"/>
<polygon fill="#63b8ff" stroke="#63b8ff" points="371.02,-251.82 362.48,-245.55 365.24,-255.77 371.02,-251.82"/>
</a>
</g>
</g>
<!-- Node18&#45;&gt;Node13 -->
<g id="edge22_Node000018_Node000013" class="edge">
<title>Node18&#45;&gt;Node13</title>
<g id="a_edge22_Node000018_Node000013"><a xlink:title=" ">
<path fill="none" stroke="#63b8ff" d="M348.81,-223.59C343.92,-216.47 337.06,-206.45 331.07,-197.72"/>
<polygon fill="#63b8ff" stroke="#63b8ff" points="334.02,-195.82 325.48,-189.55 328.24,-199.77 334.02,-195.82"/>
</a>
</g>
</g>
</g>
</svg>
