<?xml version="1.0" encoding="UTF-8" standalone="no"?>
<!DOCTYPE svg PUBLIC "-//W3C//DTD SVG 1.1//EN"
 "http://www.w3.org/Graphics/SVG/1.1/DTD/svg11.dtd">
<!-- Generated by graphviz version 2.38.0 (20140413.2041)
 -->
<!-- Title: Cpl/Text/DStringItem.h Pages: 1 -->
<svg width="467pt" height="364pt"
 viewBox="0.00 0.00 467.00 364.00" xmlns="http://www.w3.org/2000/svg" xmlns:xlink="http://www.w3.org/1999/xlink">
<g id="graph0" class="graph" transform="scale(1 1) rotate(0) translate(4 360)">
<title>Cpl/Text/DStringItem.h</title>
<polygon fill="white" stroke="none" points="-4,4 -4,-360 463,-360 463,4 -4,4"/>
<!-- Node1 -->
<g id="node1" class="node"><title>Node1</title>
<g id="a_node1"><a xlink:title=" ">
<polygon fill="#bfbfbf" stroke="black" points="280,-336.5 280,-355.5 396,-355.5 396,-336.5 280,-336.5"/>
<text text-anchor="middle" x="338" y="-343.5" font-family="Helvetica,sans-Serif" font-size="10.00">Cpl/Text/DStringItem.h</text>
</a>
</g>
</g>
<!-- Node2 -->
<g id="node2" class="node"><title>Node2</title>
<g id="a_node2"><a xlink:href="_string_item_8h.html" target="_top" xlink:title=" ">
<polygon fill="white" stroke="black" points="222,-280.5 222,-299.5 332,-299.5 332,-280.5 222,-280.5"/>
<text text-anchor="middle" x="277" y="-287.5" font-family="Helvetica,sans-Serif" font-size="10.00">Cpl/Text/StringItem.h</text>
</a>
</g>
</g>
<!-- Node1&#45;&gt;Node2 -->
<g id="edge1" class="edge"><title>Node1&#45;&gt;Node2</title>
<path fill="none" stroke="midnightblue" d="M328.199,-336.324C319.182,-328.341 305.594,-316.313 294.682,-306.653"/>
<polygon fill="midnightblue" stroke="midnightblue" points="296.787,-303.842 286.979,-299.834 292.147,-309.083 296.787,-303.842"/>
</g>
<!-- Node16 -->
<g id="node16" class="node"><title>Node16</title>
<g id="a_node16"><a xlink:href="_d_string_8h.html" target="_top" xlink:title=" ">
<polygon fill="white" stroke="black" points="350.5,-280.5 350.5,-299.5 447.5,-299.5 447.5,-280.5 350.5,-280.5"/>
<text text-anchor="middle" x="399" y="-287.5" font-family="Helvetica,sans-Serif" font-size="10.00">Cpl/Text/DString.h</text>
</a>
</g>
</g>
<!-- Node1&#45;&gt;Node16 -->
<g id="edge17" class="edge"><title>Node1&#45;&gt;Node16</title>
<path fill="none" stroke="midnightblue" d="M347.801,-336.324C356.818,-328.341 370.406,-316.313 381.318,-306.653"/>
<polygon fill="midnightblue" stroke="midnightblue" points="383.853,-309.083 389.021,-299.834 379.213,-303.842 383.853,-309.083"/>
</g>
<!-- Node3 -->
<g id="node3" class="node"><title>Node3</title>
<g id="a_node3"><a xlink:href="_map_item_8h.html" target="_top" xlink:title=" ">
<polygon fill="white" stroke="black" points="138.5,-224.5 138.5,-243.5 263.5,-243.5 263.5,-224.5 138.5,-224.5"/>
<text text-anchor="middle" x="201" y="-231.5" font-family="Helvetica,sans-Serif" font-size="10.00">Cpl/Container/MapItem.h</text>
</a>
</g>
</g>
<!-- Node2&#45;&gt;Node3 -->
<g id="edge2" class="edge"><title>Node2&#45;&gt;Node3</title>
<path fill="none" stroke="midnightblue" d="M264.789,-280.324C253.224,-272.107 235.625,-259.602 221.839,-249.807"/>
<polygon fill="midnightblue" stroke="midnightblue" points="223.612,-246.773 213.433,-243.834 219.557,-252.479 223.612,-246.773"/>
</g>
<!-- Node13 -->
<g id="node13" class="node"><title>Node13</title>
<g id="a_node13"><a xlink:href="_text_2_string_8h.html" target="_top" xlink:title=" ">
<polygon fill="white" stroke="black" points="283,-168.5 283,-187.5 373,-187.5 373,-168.5 283,-168.5"/>
<text text-anchor="middle" x="328" y="-175.5" font-family="Helvetica,sans-Serif" font-size="10.00">Cpl/Text/String.h</text>
</a>
</g>
</g>
<!-- Node2&#45;&gt;Node13 -->
<g id="edge12" class="edge"><title>Node2&#45;&gt;Node13</title>
<path fill="none" stroke="midnightblue" d="M281.002,-280.368C289.307,-262.456 308.563,-220.923 319.679,-196.948"/>
<polygon fill="midnightblue" stroke="midnightblue" points="322.986,-198.136 324.017,-187.591 316.635,-195.192 322.986,-198.136"/>
</g>
<!-- Node4 -->
<g id="node4" class="node"><title>Node4</title>
<g id="a_node4"><a xlink:href="_dict_item_8h.html" target="_top" xlink:title=" ">
<polygon fill="white" stroke="black" points="137.5,-168.5 137.5,-187.5 260.5,-187.5 260.5,-168.5 137.5,-168.5"/>
<text text-anchor="middle" x="199" y="-175.5" font-family="Helvetica,sans-Serif" font-size="10.00">Cpl/Container/DictItem.h</text>
</a>
</g>
</g>
<!-- Node3&#45;&gt;Node4 -->
<g id="edge3" class="edge"><title>Node3&#45;&gt;Node4</title>
<path fill="none" stroke="midnightblue" d="M200.67,-224.083C200.408,-217.006 200.032,-206.861 199.703,-197.986"/>
<polygon fill="midnightblue" stroke="midnightblue" points="203.192,-197.615 199.324,-187.751 196.197,-197.874 203.192,-197.615"/>
</g>
<!-- Node5 -->
<g id="node5" class="node"><title>Node5</title>
<g id="a_node5"><a xlink:href="_item_8h.html" target="_top" xlink:title=" ">
<polygon fill="white" stroke="black" points="23,-112.5 23,-131.5 129,-131.5 129,-112.5 23,-112.5"/>
<text text-anchor="middle" x="76" y="-119.5" font-family="Helvetica,sans-Serif" font-size="10.00">Cpl/Container/Item.h</text>
</a>
</g>
</g>
<!-- Node4&#45;&gt;Node5 -->
<g id="edge4" class="edge"><title>Node4&#45;&gt;Node5</title>
<path fill="none" stroke="midnightblue" d="M179.51,-168.444C159.358,-159.596 127.677,-145.687 104.669,-135.586"/>
<polygon fill="midnightblue" stroke="midnightblue" points="105.962,-132.332 95.3985,-131.516 103.148,-138.741 105.962,-132.332"/>
</g>
<!-- Node6 -->
<g id="node6" class="node"><title>Node6</title>
<g id="a_node6"><a xlink:href="_key_8h.html" target="_top" xlink:title=" ">
<polygon fill="white" stroke="black" points="147,-112.5 147,-131.5 251,-131.5 251,-112.5 147,-112.5"/>
<text text-anchor="middle" x="199" y="-119.5" font-family="Helvetica,sans-Serif" font-size="10.00">Cpl/Container/Key.h</text>
</a>
</g>
</g>
<!-- Node4&#45;&gt;Node6 -->
<g id="edge5" class="edge"><title>Node4&#45;&gt;Node6</title>
<path fill="none" stroke="midnightblue" d="M199,-168.083C199,-161.006 199,-150.861 199,-141.986"/>
<polygon fill="midnightblue" stroke="midnightblue" points="202.5,-141.751 199,-131.751 195.5,-141.751 202.5,-141.751"/>
</g>
<!-- Node7 -->
<g id="node7" class="node"><title>Node7</title>
<g id="a_node7"><a xlink:href="_fatal_error_8h.html" target="_top" xlink:title=" ">
<polygon fill="white" stroke="black" points="0,-56.5 0,-75.5 122,-75.5 122,-56.5 0,-56.5"/>
<text text-anchor="middle" x="61" y="-63.5" font-family="Helvetica,sans-Serif" font-size="10.00">Cpl/System/FatalError.h</text>
</a>
</g>
</g>
<!-- Node6&#45;&gt;Node7 -->
<g id="edge6" class="edge"><title>Node6&#45;&gt;Node7</title>
<path fill="none" stroke="midnightblue" d="M177.133,-112.444C154.221,-103.478 118.025,-89.314 92.1335,-79.1827"/>
<polygon fill="midnightblue" stroke="midnightblue" points="93.3521,-75.9011 82.7642,-75.5164 90.8012,-82.4198 93.3521,-75.9011"/>
</g>
<!-- Node10 -->
<g id="node10" class="node"><title>Node10</title>
<g id="a_node10"><a xlink:title=" ">
<polygon fill="white" stroke="#bfbfbf" points="140.5,-56.5 140.5,-75.5 189.5,-75.5 189.5,-56.5 140.5,-56.5"/>
<text text-anchor="middle" x="165" y="-63.5" font-family="Helvetica,sans-Serif" font-size="10.00">stdint.h</text>
</a>
</g>
</g>
<!-- Node6&#45;&gt;Node10 -->
<g id="edge9" class="edge"><title>Node6&#45;&gt;Node10</title>
<path fill="none" stroke="midnightblue" d="M193.386,-112.083C188.633,-104.534 181.682,-93.4948 175.848,-84.2298"/>
<polygon fill="midnightblue" stroke="midnightblue" points="178.8,-82.3486 170.51,-75.7511 172.876,-86.0783 178.8,-82.3486"/>
</g>
<!-- Node11 -->
<g id="node11" class="node"><title>Node11</title>
<g id="a_node11"><a xlink:title=" ">
<polygon fill="white" stroke="#bfbfbf" points="207.5,-56.5 207.5,-75.5 256.5,-75.5 256.5,-56.5 207.5,-56.5"/>
<text text-anchor="middle" x="232" y="-63.5" font-family="Helvetica,sans-Serif" font-size="10.00">string.h</text>
</a>
</g>
</g>
<!-- Node6&#45;&gt;Node11 -->
<g id="edge10" class="edge"><title>Node6&#45;&gt;Node11</title>
<path fill="none" stroke="midnightblue" d="M204.449,-112.083C209.014,-104.613 215.668,-93.7244 221.293,-84.5199"/>
<polygon fill="midnightblue" stroke="midnightblue" points="224.424,-86.109 226.652,-75.7511 218.451,-82.4588 224.424,-86.109"/>
</g>
<!-- Node12 -->
<g id="node12" class="node"><title>Node12</title>
<g id="a_node12"><a xlink:title=" ">
<polygon fill="white" stroke="#bfbfbf" points="274.5,-56.5 274.5,-75.5 351.5,-75.5 351.5,-56.5 274.5,-56.5"/>
<text text-anchor="middle" x="313" y="-63.5" font-family="Helvetica,sans-Serif" font-size="10.00">colony_map.h</text>
</a>
</g>
</g>
<!-- Node6&#45;&gt;Node12 -->
<g id="edge11" class="edge"><title>Node6&#45;&gt;Node12</title>
<path fill="none" stroke="midnightblue" d="M217.064,-112.444C235.575,-103.675 264.581,-89.9355 285.855,-79.8579"/>
<polygon fill="midnightblue" stroke="midnightblue" points="287.482,-82.9604 295.021,-75.5164 284.485,-76.6343 287.482,-82.9604"/>
</g>
<!-- Node8 -->
<g id="node8" class="node"><title>Node8</title>
<g id="a_node8"><a xlink:title=" ">
<polygon fill="white" stroke="#bfbfbf" points="35,-0.5 35,-19.5 87,-19.5 87,-0.5 35,-0.5"/>
<text text-anchor="middle" x="61" y="-7.5" font-family="Helvetica,sans-Serif" font-size="10.00">stddef.h</text>
</a>
</g>
</g>
<!-- Node7&#45;&gt;Node8 -->
<g id="edge7" class="edge"><title>Node7&#45;&gt;Node8</title>
<path fill="none" stroke="midnightblue" d="M61,-56.083C61,-49.0059 61,-38.8611 61,-29.9865"/>
<polygon fill="midnightblue" stroke="midnightblue" points="64.5001,-29.751 61,-19.7511 57.5001,-29.7511 64.5001,-29.751"/>
</g>
<!-- Node9 -->
<g id="node9" class="node"><title>Node9</title>
<g id="a_node9"><a xlink:title=" ">
<polygon fill="white" stroke="#bfbfbf" points="277.5,-0.5 277.5,-19.5 362.5,-19.5 362.5,-0.5 277.5,-0.5"/>
<text text-anchor="middle" x="320" y="-7.5" font-family="Helvetica,sans-Serif" font-size="10.00">colony_config.h</text>
</a>
</g>
</g>
<!-- Node7&#45;&gt;Node9 -->
<g id="edge8" class="edge"><title>Node7&#45;&gt;Node9</title>
<path fill="none" stroke="midnightblue" d="M102.039,-56.4435C147.316,-47.0036 220.227,-31.802 269.106,-21.6111"/>
<polygon fill="midnightblue" stroke="midnightblue" points="270.078,-24.9839 279.153,-19.5164 268.649,-18.1312 270.078,-24.9839"/>
</g>
<!-- Node13&#45;&gt;Node6 -->
<g id="edge14" class="edge"><title>Node13&#45;&gt;Node6</title>
<path fill="none" stroke="midnightblue" d="M307.56,-168.444C286.33,-159.557 252.901,-145.563 228.745,-135.451"/>
<polygon fill="midnightblue" stroke="midnightblue" points="229.921,-132.149 219.345,-131.516 227.218,-138.606 229.921,-132.149"/>
</g>
<!-- Node13&#45;&gt;Node12 -->
<g id="edge13" class="edge"><title>Node13&#45;&gt;Node12</title>
<path fill="none" stroke="midnightblue" d="M319.786,-168.182C312.456,-159.663 302.245,-146.019 298,-132 293.233,-116.257 298.373,-97.9746 303.894,-84.8168"/>
<polygon fill="midnightblue" stroke="midnightblue" points="307.179,-86.0529 308.222,-75.5095 300.832,-83.1015 307.179,-86.0529"/>
</g>
<!-- Node14 -->
<g id="node14" class="node"><title>Node14</title>
<g id="a_node14"><a xlink:title=" ">
<polygon fill="white" stroke="#bfbfbf" points="307,-112.5 307,-131.5 359,-131.5 359,-112.5 307,-112.5"/>
<text text-anchor="middle" x="333" y="-119.5" font-family="Helvetica,sans-Serif" font-size="10.00">stdarg.h</text>
</a>
</g>
</g>
<!-- Node13&#45;&gt;Node14 -->
<g id="edge15" class="edge"><title>Node13&#45;&gt;Node14</title>
<path fill="none" stroke="midnightblue" d="M328.826,-168.083C329.481,-161.006 330.42,-150.861 331.242,-141.986"/>
<polygon fill="midnightblue" stroke="midnightblue" points="334.753,-142.031 332.19,-131.751 327.783,-141.386 334.753,-142.031"/>
</g>
<!-- Node15 -->
<g id="node15" class="node"><title>Node15</title>
<g id="a_node15"><a xlink:title=" ">
<polygon fill="white" stroke="#bfbfbf" points="377,-112.5 377,-131.5 431,-131.5 431,-112.5 377,-112.5"/>
<text text-anchor="middle" x="404" y="-119.5" font-family="Helvetica,sans-Serif" font-size="10.00">iostream</text>
</a>
</g>
</g>
<!-- Node13&#45;&gt;Node15 -->
<g id="edge16" class="edge"><title>Node13&#45;&gt;Node15</title>
<path fill="none" stroke="midnightblue" d="M340.211,-168.324C351.776,-160.107 369.375,-147.602 383.161,-137.807"/>
<polygon fill="midnightblue" stroke="midnightblue" points="385.443,-140.479 391.567,-131.834 381.388,-134.773 385.443,-140.479"/>
</g>
<!-- Node16&#45;&gt;Node9 -->
<g id="edge20" class="edge"><title>Node16&#45;&gt;Node9</title>
<path fill="none" stroke="midnightblue" d="M407.952,-280.451C416.445,-271.914 429.059,-258.07 437,-244 451.99,-217.439 459,-209.499 459,-179 459,-179 459,-179 459,-121 459,-69.5751 399.775,-38.4164 358.643,-22.9776"/>
<polygon fill="midnightblue" stroke="midnightblue" points="359.733,-19.6505 349.139,-19.5652 357.368,-26.2387 359.733,-19.6505"/>
</g>
<!-- Node17 -->
<g id="node17" class="node"><title>Node17</title>
<g id="a_node17"><a xlink:href="_string___8h.html" target="_top" xlink:title=" ">
<polygon fill="white" stroke="black" points="332.5,-224.5 332.5,-243.5 427.5,-243.5 427.5,-224.5 332.5,-224.5"/>
<text text-anchor="middle" x="380" y="-231.5" font-family="Helvetica,sans-Serif" font-size="10.00">Cpl/Text/String_.h</text>
</a>
</g>
</g>
<!-- Node16&#45;&gt;Node17 -->
<g id="edge18" class="edge"><title>Node16&#45;&gt;Node17</title>
<path fill="none" stroke="midnightblue" d="M395.863,-280.083C393.317,-272.849 389.644,-262.409 386.473,-253.397"/>
<polygon fill="midnightblue" stroke="midnightblue" points="389.7,-252.023 383.079,-243.751 383.097,-254.346 389.7,-252.023"/>
</g>
<!-- Node17&#45;&gt;Node13 -->
<g id="edge19" class="edge"><title>Node17&#45;&gt;Node13</title>
<path fill="none" stroke="midnightblue" d="M371.413,-224.083C363.841,-216.22 352.622,-204.569 343.486,-195.081"/>
<polygon fill="midnightblue" stroke="midnightblue" points="345.885,-192.527 336.427,-187.751 340.842,-197.382 345.885,-192.527"/>
</g>
</g>
</svg>
