<?xml version="1.0" encoding="UTF-8" standalone="no"?>
<!DOCTYPE svg PUBLIC "-//W3C//DTD SVG 1.1//EN"
 "http://www.w3.org/Graphics/SVG/1.1/DTD/svg11.dtd">
<!-- Generated by graphviz version 2.38.0 (20140413.2041)
 -->
<!-- Title: Cpl/Text/Frame/Decoder.h Pages: 1 -->
<svg width="476pt" height="252pt"
 viewBox="0.00 0.00 476.00 252.00" xmlns="http://www.w3.org/2000/svg" xmlns:xlink="http://www.w3.org/1999/xlink">
<g id="graph0" class="graph" transform="scale(1 1) rotate(0) translate(4 248)">
<title>Cpl/Text/Frame/Decoder.h</title>
<polygon fill="white" stroke="none" points="-4,4 -4,-248 472,-248 472,4 -4,4"/>
<!-- Node1 -->
<g id="node1" class="node"><title>Node1</title>
<g id="a_node1"><a xlink:title=" ">
<polygon fill="#bfbfbf" stroke="black" points="235,-224.5 235,-243.5 366,-243.5 366,-224.5 235,-224.5"/>
<text text-anchor="middle" x="300.5" y="-231.5" font-family="Helvetica,sans-Serif" font-size="10.00">Cpl/Text/Frame/Decoder.h</text>
</a>
</g>
</g>
<!-- Node2 -->
<g id="node2" class="node"><title>Node2</title>
<g id="a_node2"><a xlink:href="_decoder___8h.html" target="_top" xlink:title=" ">
<polygon fill="white" stroke="black" points="232,-168.5 232,-187.5 369,-187.5 369,-168.5 232,-168.5"/>
<text text-anchor="middle" x="300.5" y="-175.5" font-family="Helvetica,sans-Serif" font-size="10.00">Cpl/Text/Frame/Decoder_.h</text>
</a>
</g>
</g>
<!-- Node1&#45;&gt;Node2 -->
<g id="edge1" class="edge"><title>Node1&#45;&gt;Node2</title>
<path fill="none" stroke="midnightblue" d="M300.5,-213.805C300.5,-204.91 300.5,-194.78 300.5,-187.751"/>
<polygon fill="midnightblue" stroke="midnightblue" points="297,-214.083 300.5,-224.083 304,-214.083 297,-214.083"/>
</g>
<!-- Node3 -->
<g id="node3" class="node"><title>Node3</title>
<g id="a_node3"><a xlink:href="_stream_decoder_8h.html" target="_top" xlink:title=" ">
<polygon fill="white" stroke="black" points="130,-112.5 130,-131.5 293,-131.5 293,-112.5 130,-112.5"/>
<text text-anchor="middle" x="211.5" y="-119.5" font-family="Helvetica,sans-Serif" font-size="10.00">Cpl/Text/Frame/StreamDecoder.h</text>
</a>
</g>
</g>
<!-- Node2&#45;&gt;Node3 -->
<g id="edge2" class="edge"><title>Node2&#45;&gt;Node3</title>
<path fill="none" stroke="midnightblue" d="M277.262,-162.901C260.942,-152.999 239.635,-140.071 225.764,-131.655"/>
<polygon fill="midnightblue" stroke="midnightblue" points="275.836,-166.129 286.201,-168.324 279.467,-160.144 275.836,-166.129"/>
</g>
<!-- Node8 -->
<g id="node8" class="node"><title>Node8</title>
<g id="a_node8"><a xlink:href="_string_decoder_8h.html" target="_top" xlink:title=" ">
<polygon fill="white" stroke="black" points="311,-112.5 311,-131.5 468,-131.5 468,-112.5 311,-112.5"/>
<text text-anchor="middle" x="389.5" y="-119.5" font-family="Helvetica,sans-Serif" font-size="10.00">Cpl/Text/Frame/StringDecoder.h</text>
</a>
</g>
</g>
<!-- Node2&#45;&gt;Node8 -->
<g id="edge8" class="edge"><title>Node2&#45;&gt;Node8</title>
<path fill="none" stroke="midnightblue" d="M323.738,-162.901C340.058,-152.999 361.365,-140.071 375.236,-131.655"/>
<polygon fill="midnightblue" stroke="midnightblue" points="321.533,-160.144 314.799,-168.324 325.164,-166.129 321.533,-160.144"/>
</g>
<!-- Node4 -->
<g id="node4" class="node"><title>Node4</title>
<g id="a_node4"><a xlink:href="_processor_8h.html" target="_top" xlink:title=" ">
<polygon fill="white" stroke="black" points="0,-56.5 0,-75.5 117,-75.5 117,-56.5 0,-56.5"/>
<text text-anchor="middle" x="58.5" y="-63.5" font-family="Helvetica,sans-Serif" font-size="10.00">Cpl/TShell/Processor.h</text>
</a>
</g>
</g>
<!-- Node3&#45;&gt;Node4 -->
<g id="edge3" class="edge"><title>Node3&#45;&gt;Node4</title>
<path fill="none" stroke="midnightblue" d="M177.611,-109.039C148.823,-98.8786 108.213,-84.5457 82.6299,-75.5164"/>
<polygon fill="midnightblue" stroke="midnightblue" points="176.662,-112.416 187.257,-112.444 178.992,-105.815 176.662,-112.416"/>
</g>
<!-- Node6 -->
<g id="node6" class="node"><title>Node6</title>
<g id="a_node6"><a xlink:href="_ascii_decoder_8h.html" target="_top" xlink:title=" ">
<polygon fill="white" stroke="black" points="135,-56.5 135,-75.5 288,-75.5 288,-56.5 135,-56.5"/>
<text text-anchor="middle" x="211.5" y="-63.5" font-family="Helvetica,sans-Serif" font-size="10.00">Cpl/Text/Frame/AsciiDecoder.h</text>
</a>
</g>
</g>
<!-- Node3&#45;&gt;Node6 -->
<g id="edge5" class="edge"><title>Node3&#45;&gt;Node6</title>
<path fill="none" stroke="midnightblue" d="M211.5,-101.805C211.5,-92.9102 211.5,-82.7798 211.5,-75.7511"/>
<polygon fill="midnightblue" stroke="midnightblue" points="208,-102.083 211.5,-112.083 215,-102.083 208,-102.083"/>
</g>
<!-- Node7 -->
<g id="node7" class="node"><title>Node7</title>
<g id="a_node7"><a xlink:href="_line_decoder_8h.html" target="_top" xlink:title=" ">
<polygon fill="white" stroke="black" points="306,-56.5 306,-75.5 455,-75.5 455,-56.5 306,-56.5"/>
<text text-anchor="middle" x="380.5" y="-63.5" font-family="Helvetica,sans-Serif" font-size="10.00">Cpl/Text/Frame/LineDecoder.h</text>
</a>
</g>
</g>
<!-- Node3&#45;&gt;Node7 -->
<g id="edge6" class="edge"><title>Node3&#45;&gt;Node7</title>
<path fill="none" stroke="midnightblue" d="M248.103,-109.304C279.947,-99.1294 325.342,-84.6246 353.847,-75.5164"/>
<polygon fill="midnightblue" stroke="midnightblue" points="246.739,-106.066 238.279,-112.444 248.869,-112.734 246.739,-106.066"/>
</g>
<!-- Node5 -->
<g id="node5" class="node"><title>Node5</title>
<g id="a_node5"><a xlink:href="_maker_8h.html" target="_top" xlink:title=" ">
<polygon fill="white" stroke="black" points="169.5,-0.5 169.5,-19.5 269.5,-19.5 269.5,-0.5 169.5,-0.5"/>
<text text-anchor="middle" x="219.5" y="-7.5" font-family="Helvetica,sans-Serif" font-size="10.00">Cpl/TShell/Maker.h</text>
</a>
</g>
</g>
<!-- Node4&#45;&gt;Node5 -->
<g id="edge4" class="edge"><title>Node4&#45;&gt;Node5</title>
<path fill="none" stroke="midnightblue" d="M93.7648,-53.172C124.081,-43.0039 167.07,-28.5852 194.108,-19.5164"/>
<polygon fill="midnightblue" stroke="midnightblue" points="92.3789,-49.9452 84.0109,-56.4435 94.6049,-56.5819 92.3789,-49.9452"/>
</g>
<!-- Node7&#45;&gt;Node5 -->
<g id="edge7" class="edge"><title>Node7&#45;&gt;Node5</title>
<path fill="none" stroke="midnightblue" d="M345.235,-53.172C314.919,-43.0039 271.93,-28.5852 244.892,-19.5164"/>
<polygon fill="midnightblue" stroke="midnightblue" points="344.395,-56.5819 354.989,-56.4435 346.621,-49.9452 344.395,-56.5819"/>
</g>
</g>
</svg>
