<?xml version="1.0" encoding="UTF-8" standalone="no"?>
<!DOCTYPE svg PUBLIC "-//W3C//DTD SVG 1.1//EN"
 "http://www.w3.org/Graphics/SVG/1.1/DTD/svg11.dtd">
<!-- Generated by graphviz version 2.38.0 (20140413.2041)
 -->
<!-- Title: Cpl/Io/Descriptor.h Pages: 1 -->
<svg width="1986pt" height="218pt"
 viewBox="0.00 0.00 1985.50 218.00" xmlns="http://www.w3.org/2000/svg" xmlns:xlink="http://www.w3.org/1999/xlink">
<g id="graph0" class="graph" transform="scale(1 1) rotate(0) translate(4 214)">
<title>Cpl/Io/Descriptor.h</title>
<polygon fill="white" stroke="none" points="-4,4 -4,-214 1981.5,-214 1981.5,4 -4,4"/>
<!-- Node1 -->
<g id="node1" class="node"><title>Node1</title>
<g id="a_node1"><a xlink:title=" ">
<polygon fill="#bfbfbf" stroke="black" points="474,-190.5 474,-209.5 572,-209.5 572,-190.5 474,-190.5"/>
<text text-anchor="middle" x="523" y="-197.5" font-family="Helvetica,sans-Serif" font-size="10.00">Cpl/Io/Descriptor.h</text>
</a>
</g>
</g>
<!-- Node2 -->
<g id="node2" class="node"><title>Node2</title>
<g id="a_node2"><a xlink:href="_common___8h.html" target="_top" xlink:title=" ">
<polygon fill="white" stroke="black" points="2,-134.5 2,-153.5 118,-153.5 118,-134.5 2,-134.5"/>
<text text-anchor="middle" x="60" y="-141.5" font-family="Helvetica,sans-Serif" font-size="10.00">Cpl/Io/File/Common_.h</text>
</a>
</g>
</g>
<!-- Node1&#45;&gt;Node2 -->
<g id="edge1" class="edge"><title>Node1&#45;&gt;Node2</title>
<path fill="none" stroke="midnightblue" d="M463.836,-192.657C386.388,-184.267 246.439,-168.807 127,-154 124.088,-153.639 121.106,-153.263 118.095,-152.878"/>
<polygon fill="midnightblue" stroke="midnightblue" points="463.564,-196.148 473.882,-193.744 464.317,-189.189 463.564,-196.148"/>
</g>
<!-- Node3 -->
<g id="node3" class="node"><title>Node3</title>
<g id="a_node3"><a xlink:href="_connector_8h.html" target="_top" xlink:title=" ">
<polygon fill="white" stroke="black" points="136.5,-134.5 136.5,-153.5 267.5,-153.5 267.5,-134.5 136.5,-134.5"/>
<text text-anchor="middle" x="202" y="-141.5" font-family="Helvetica,sans-Serif" font-size="10.00">Cpl/Io/Socket/Connector.h</text>
</a>
</g>
</g>
<!-- Node1&#45;&gt;Node3 -->
<g id="edge2" class="edge"><title>Node1&#45;&gt;Node3</title>
<path fill="none" stroke="midnightblue" d="M463.719,-189.027C403.112,-178.832 309.972,-163.164 252.687,-153.527"/>
<polygon fill="midnightblue" stroke="midnightblue" points="463.455,-192.532 473.898,-190.74 464.617,-185.629 463.455,-192.532"/>
</g>
<!-- Node6 -->
<g id="node6" class="node"><title>Node6</title>
<g id="a_node6"><a xlink:href="_factory_8h.html" target="_top" xlink:title=" ">
<polygon fill="white" stroke="black" points="246,-73 246,-92 366,-92 366,-73 246,-73"/>
<text text-anchor="middle" x="306" y="-80" font-family="Helvetica,sans-Serif" font-size="10.00">Cpl/Io/Socket/Factory.h</text>
</a>
</g>
</g>
<!-- Node1&#45;&gt;Node6 -->
<g id="edge5" class="edge"><title>Node1&#45;&gt;Node6</title>
<path fill="none" stroke="midnightblue" d="M463.696,-193.072C429.733,-187.343 387.704,-176.091 356,-154 332.854,-137.873 316.739,-107.411 309.81,-92.3665"/>
<polygon fill="midnightblue" stroke="midnightblue" points="463.536,-196.589 473.957,-194.678 464.619,-189.673 463.536,-196.589"/>
</g>
<!-- Node8 -->
<g id="node8" class="node"><title>Node8</title>
<g id="a_node8"><a xlink:href="_socket_2_input_output_8h.html" target="_top" xlink:title=" ">
<polygon fill="white" stroke="black" points="365,-134.5 365,-153.5 503,-153.5 503,-134.5 365,-134.5"/>
<text text-anchor="middle" x="434" y="-141.5" font-family="Helvetica,sans-Serif" font-size="10.00">Cpl/Io/Socket/InputOutput.h</text>
</a>
</g>
</g>
<!-- Node1&#45;&gt;Node8 -->
<g id="edge7" class="edge"><title>Node1&#45;&gt;Node8</title>
<path fill="none" stroke="midnightblue" d="M499.762,-184.901C483.442,-174.999 462.135,-162.071 448.264,-153.655"/>
<polygon fill="midnightblue" stroke="midnightblue" points="498.336,-188.129 508.701,-190.324 501.967,-182.144 498.336,-188.129"/>
</g>
<!-- Node10 -->
<g id="node10" class="node"><title>Node10</title>
<g id="a_node10"><a xlink:href="_listener_8h.html" target="_top" xlink:title=" ">
<polygon fill="white" stroke="black" points="552,-134.5 552,-153.5 674,-153.5 674,-134.5 552,-134.5"/>
<text text-anchor="middle" x="613" y="-141.5" font-family="Helvetica,sans-Serif" font-size="10.00">Cpl/Io/Socket/Listener.h</text>
</a>
</g>
</g>
<!-- Node1&#45;&gt;Node10 -->
<g id="edge11" class="edge"><title>Node1&#45;&gt;Node10</title>
<path fill="none" stroke="midnightblue" d="M546.038,-185.177C562.599,-175.241 584.418,-162.149 598.576,-153.655"/>
<polygon fill="midnightblue" stroke="midnightblue" points="544.234,-182.178 537.46,-190.324 547.836,-188.18 544.234,-182.178"/>
</g>
<!-- Node16 -->
<g id="node16" class="node"><title>Node16</title>
<g id="a_node16"><a xlink:href="_input___8h.html" target="_top" xlink:title=" ">
<polygon fill="white" stroke="black" points="936,-134.5 936,-153.5 1042,-153.5 1042,-134.5 936,-134.5"/>
<text text-anchor="middle" x="989" y="-141.5" font-family="Helvetica,sans-Serif" font-size="10.00">Cpl/Io/Stdio/Input_.h</text>
</a>
</g>
</g>
<!-- Node1&#45;&gt;Node16 -->
<g id="edge19" class="edge"><title>Node1&#45;&gt;Node16</title>
<path fill="none" stroke="midnightblue" d="M582.368,-192.12C673.921,-181.511 848.14,-161.323 935.807,-151.164"/>
<polygon fill="midnightblue" stroke="midnightblue" points="581.96,-188.644 572.429,-193.272 582.765,-195.598 581.96,-188.644"/>
</g>
<!-- Node21 -->
<g id="node21" class="node"><title>Node21</title>
<g id="a_node21"><a xlink:href="_output___8h.html" target="_top" xlink:title=" ">
<polygon fill="white" stroke="black" points="1263.5,-134.5 1263.5,-153.5 1376.5,-153.5 1376.5,-134.5 1263.5,-134.5"/>
<text text-anchor="middle" x="1320" y="-141.5" font-family="Helvetica,sans-Serif" font-size="10.00">Cpl/Io/Stdio/Output_.h</text>
</a>
</g>
</g>
<!-- Node1&#45;&gt;Node21 -->
<g id="edge24" class="edge"><title>Node1&#45;&gt;Node21</title>
<path fill="none" stroke="midnightblue" d="M582.552,-194.965C731.368,-184.882 1117.94,-158.69 1263.48,-148.83"/>
<polygon fill="midnightblue" stroke="midnightblue" points="581.995,-191.495 572.254,-195.663 582.468,-198.479 581.995,-191.495"/>
</g>
<!-- Node25 -->
<g id="node25" class="node"><title>Node25</title>
<g id="a_node25"><a xlink:href="_tcp_2_input_output_8h.html" target="_top" xlink:title=" ">
<polygon fill="white" stroke="black" points="1653,-134.5 1653,-153.5 1777,-153.5 1777,-134.5 1653,-134.5"/>
<text text-anchor="middle" x="1715" y="-141.5" font-family="Helvetica,sans-Serif" font-size="10.00">Cpl/Io/Tcp/InputOutput.h</text>
</a>
</g>
</g>
<!-- Node1&#45;&gt;Node25 -->
<g id="edge29" class="edge"><title>Node1&#45;&gt;Node25</title>
<path fill="none" stroke="midnightblue" d="M582.465,-196.306C784.935,-187.134 1446.34,-157.171 1652.84,-147.816"/>
<polygon fill="midnightblue" stroke="midnightblue" points="582.156,-192.816 572.325,-196.765 582.473,-199.809 582.156,-192.816"/>
</g>
<!-- Node4 -->
<g id="node4" class="node"><title>Node4</title>
<g id="a_node4"><a xlink:href="_posix_2_connector_8h.html" target="_top" xlink:title=" ">
<polygon fill="white" stroke="black" points="0,-67.5 0,-97.5 104,-97.5 104,-67.5 0,-67.5"/>
<text text-anchor="start" x="8" y="-85.5" font-family="Helvetica,sans-Serif" font-size="10.00">Cpl/Io/Socket/Posix</text>
<text text-anchor="middle" x="52" y="-74.5" font-family="Helvetica,sans-Serif" font-size="10.00">/Connector.h</text>
</a>
</g>
</g>
<!-- Node3&#45;&gt;Node4 -->
<g id="edge3" class="edge"><title>Node3&#45;&gt;Node4</title>
<path fill="none" stroke="midnightblue" d="M171.039,-130.719C146.694,-121.062 112.762,-107.602 87.352,-97.523"/>
<polygon fill="midnightblue" stroke="midnightblue" points="169.923,-134.041 180.509,-134.475 172.504,-127.534 169.923,-134.041"/>
</g>
<!-- Node5 -->
<g id="node5" class="node"><title>Node5</title>
<g id="a_node5"><a xlink:href="_win32_2_connector_8h.html" target="_top" xlink:title=" ">
<polygon fill="white" stroke="black" points="122,-67.5 122,-97.5 228,-97.5 228,-67.5 122,-67.5"/>
<text text-anchor="start" x="130" y="-85.5" font-family="Helvetica,sans-Serif" font-size="10.00">Cpl/Io/Socket/Win32</text>
<text text-anchor="middle" x="175" y="-74.5" font-family="Helvetica,sans-Serif" font-size="10.00">/Connector.h</text>
</a>
</g>
</g>
<!-- Node3&#45;&gt;Node5 -->
<g id="edge4" class="edge"><title>Node3&#45;&gt;Node5</title>
<path fill="none" stroke="midnightblue" d="M193.879,-125.104C189.87,-116.269 185.104,-105.766 181.363,-97.523"/>
<polygon fill="midnightblue" stroke="midnightblue" points="190.812,-126.815 198.132,-134.475 197.186,-123.922 190.812,-126.815"/>
</g>
<!-- Node7 -->
<g id="node7" class="node"><title>Node7</title>
<g id="a_node7"><a xlink:href="_stream_pool_8h.html" target="_top" xlink:title=" ">
<polygon fill="white" stroke="black" points="281,-6 281,-25 419,-25 419,-6 281,-6"/>
<text text-anchor="middle" x="350" y="-13" font-family="Helvetica,sans-Serif" font-size="10.00">Cpl/Io/Socket/StreamPool.h</text>
</a>
</g>
</g>
<!-- Node6&#45;&gt;Node7 -->
<g id="edge6" class="edge"><title>Node6&#45;&gt;Node7</title>
<path fill="none" stroke="midnightblue" d="M317.573,-64.4037C326.123,-51.7729 337.406,-35.1041 344.16,-25.1273"/>
<polygon fill="midnightblue" stroke="midnightblue" points="314.641,-62.4907 311.934,-72.7338 320.438,-66.4147 314.641,-62.4907"/>
</g>
<!-- Node8&#45;&gt;Node6 -->
<g id="edge8" class="edge"><title>Node8&#45;&gt;Node6</title>
<path fill="none" stroke="midnightblue" d="M406.408,-130.174C381.571,-118.629 345.771,-101.987 324.305,-92.0091"/>
<polygon fill="midnightblue" stroke="midnightblue" points="405.117,-133.434 415.661,-134.475 408.068,-127.086 405.117,-133.434"/>
</g>
<!-- Node8&#45;&gt;Node7 -->
<g id="edge9" class="edge"><title>Node8&#45;&gt;Node7</title>
<path fill="none" stroke="midnightblue" d="M422.554,-125.763C404.382,-98.3972 369.582,-45.99 355.814,-25.2557"/>
<polygon fill="midnightblue" stroke="midnightblue" points="419.779,-127.911 428.226,-134.305 425.61,-124.038 419.779,-127.911"/>
</g>
<!-- Node9 -->
<g id="node9" class="node"><title>Node9</title>
<g id="a_node9"><a xlink:href="_socket_8h.html" target="_top" xlink:title=" ">
<polygon fill="white" stroke="black" points="422,-73 422,-92 526,-92 526,-73 422,-73"/>
<text text-anchor="middle" x="474" y="-80" font-family="Helvetica,sans-Serif" font-size="10.00">Cpl/TShell/Socket.h</text>
</a>
</g>
</g>
<!-- Node8&#45;&gt;Node9 -->
<g id="edge10" class="edge"><title>Node8&#45;&gt;Node9</title>
<path fill="none" stroke="midnightblue" d="M445.425,-126.005C452.899,-114.888 462.343,-100.84 468.28,-92.0091"/>
<polygon fill="midnightblue" stroke="midnightblue" points="442.406,-124.223 439.731,-134.475 448.215,-128.129 442.406,-124.223"/>
</g>
<!-- Node10&#45;&gt;Node9 -->
<g id="edge18" class="edge"><title>Node10&#45;&gt;Node9</title>
<path fill="none" stroke="midnightblue" d="M583.75,-130.48C556.755,-118.924 517.396,-102.076 493.878,-92.0091"/>
<polygon fill="midnightblue" stroke="midnightblue" points="582.514,-133.757 593.085,-134.475 585.269,-127.322 582.514,-133.757"/>
</g>
<!-- Node11 -->
<g id="node11" class="node"><title>Node11</title>
<g id="a_node11"><a xlink:href="_listener_client_request_8h.html" target="_top" xlink:title=" ">
<polygon fill="white" stroke="black" points="544,-67.5 544,-97.5 682,-97.5 682,-67.5 544,-67.5"/>
<text text-anchor="start" x="552" y="-85.5" font-family="Helvetica,sans-Serif" font-size="10.00">Cpl/Io/Socket/ListenerClient</text>
<text text-anchor="middle" x="613" y="-74.5" font-family="Helvetica,sans-Serif" font-size="10.00">Request.h</text>
</a>
</g>
</g>
<!-- Node10&#45;&gt;Node11 -->
<g id="edge12" class="edge"><title>Node10&#45;&gt;Node11</title>
<path fill="none" stroke="midnightblue" d="M613,-124.235C613,-115.586 613,-105.497 613,-97.523"/>
<polygon fill="midnightblue" stroke="midnightblue" points="609.5,-124.475 613,-134.475 616.5,-124.475 609.5,-124.475"/>
</g>
<!-- Node12 -->
<g id="node12" class="node"><title>Node12</title>
<g id="a_node12"><a xlink:href="_listener_client_sync_8h.html" target="_top" xlink:title=" ">
<polygon fill="white" stroke="black" points="556,-0.5 556,-30.5 694,-30.5 694,-0.5 556,-0.5"/>
<text text-anchor="start" x="564" y="-18.5" font-family="Helvetica,sans-Serif" font-size="10.00">Cpl/Io/Socket/ListenerClient</text>
<text text-anchor="middle" x="625" y="-7.5" font-family="Helvetica,sans-Serif" font-size="10.00">Sync.h</text>
</a>
</g>
</g>
<!-- Node10&#45;&gt;Node12 -->
<g id="edge14" class="edge"><title>Node10&#45;&gt;Node12</title>
<path fill="none" stroke="midnightblue" d="M651.383,-130.501C666.513,-123.477 682.323,-113.023 691,-98 697.891,-86.0692 697.102,-79.3527 691,-67 683.204,-51.2187 667.849,-39.0098 653.911,-30.5525"/>
<polygon fill="midnightblue" stroke="midnightblue" points="649.953,-127.306 642.121,-134.441 652.693,-133.747 649.953,-127.306"/>
</g>
<!-- Node13 -->
<g id="node13" class="node"><title>Node13</title>
<g id="a_node13"><a xlink:href="_listener___8h.html" target="_top" xlink:title=" ">
<polygon fill="white" stroke="black" points="738.5,-73 738.5,-92 865.5,-92 865.5,-73 738.5,-73"/>
<text text-anchor="middle" x="802" y="-80" font-family="Helvetica,sans-Serif" font-size="10.00">Cpl/Io/Socket/Listener_.h</text>
</a>
</g>
</g>
<!-- Node10&#45;&gt;Node13 -->
<g id="edge15" class="edge"><title>Node10&#45;&gt;Node13</title>
<path fill="none" stroke="midnightblue" d="M649.909,-131.381C686.646,-119.815 742.153,-102.341 774.971,-92.0091"/>
<polygon fill="midnightblue" stroke="midnightblue" points="648.567,-128.134 640.079,-134.475 650.669,-134.811 648.567,-128.134"/>
</g>
<!-- Node11&#45;&gt;Node12 -->
<g id="edge13" class="edge"><title>Node11&#45;&gt;Node12</title>
<path fill="none" stroke="midnightblue" d="M617.449,-57.4029C619.116,-48.3703 620.955,-38.4078 622.401,-30.5765"/>
<polygon fill="midnightblue" stroke="midnightblue" points="613.978,-56.9267 615.604,-67.396 620.861,-58.1976 613.978,-56.9267"/>
</g>
<!-- Node14 -->
<g id="node14" class="node"><title>Node14</title>
<g id="a_node14"><a xlink:href="_posix_2_listener_8h.html" target="_top" xlink:title=" ">
<polygon fill="white" stroke="black" points="737,-0.5 737,-30.5 841,-30.5 841,-0.5 737,-0.5"/>
<text text-anchor="start" x="745" y="-18.5" font-family="Helvetica,sans-Serif" font-size="10.00">Cpl/Io/Socket/Posix</text>
<text text-anchor="middle" x="789" y="-7.5" font-family="Helvetica,sans-Serif" font-size="10.00">/Listener.h</text>
</a>
</g>
</g>
<!-- Node13&#45;&gt;Node14 -->
<g id="edge16" class="edge"><title>Node13&#45;&gt;Node14</title>
<path fill="none" stroke="midnightblue" d="M798.248,-62.7386C796.197,-52.4873 793.7,-40.0011 791.818,-30.589"/>
<polygon fill="midnightblue" stroke="midnightblue" points="794.853,-63.6144 800.247,-72.7338 801.718,-62.2416 794.853,-63.6144"/>
</g>
<!-- Node15 -->
<g id="node15" class="node"><title>Node15</title>
<g id="a_node15"><a xlink:href="_win32_2_listener_8h.html" target="_top" xlink:title=" ">
<polygon fill="white" stroke="black" points="859,-0.5 859,-30.5 965,-30.5 965,-0.5 859,-0.5"/>
<text text-anchor="start" x="867" y="-18.5" font-family="Helvetica,sans-Serif" font-size="10.00">Cpl/Io/Socket/Win32</text>
<text text-anchor="middle" x="912" y="-7.5" font-family="Helvetica,sans-Serif" font-size="10.00">/Listener.h</text>
</a>
</g>
</g>
<!-- Node13&#45;&gt;Node15 -->
<g id="edge17" class="edge"><title>Node13&#45;&gt;Node15</title>
<path fill="none" stroke="midnightblue" d="M825.517,-67.6036C843.988,-56.6887 869.602,-41.5531 888.157,-30.589"/>
<polygon fill="midnightblue" stroke="midnightblue" points="823.664,-64.6332 816.835,-72.7338 827.225,-70.6597 823.664,-64.6332"/>
</g>
<!-- Node17 -->
<g id="node17" class="node"><title>Node17</title>
<g id="a_node17"><a xlink:href="_file_2_input_8h.html" target="_top" xlink:title=" ">
<polygon fill="white" stroke="black" points="884,-73 884,-92 978,-92 978,-73 884,-73"/>
<text text-anchor="middle" x="931" y="-80" font-family="Helvetica,sans-Serif" font-size="10.00">Cpl/Io/File/Input.h</text>
</a>
</g>
</g>
<!-- Node16&#45;&gt;Node17 -->
<g id="edge20" class="edge"><title>Node16&#45;&gt;Node17</title>
<path fill="none" stroke="midnightblue" d="M973.401,-126.997C962.423,-115.736 948.161,-101.104 939.295,-92.0091"/>
<polygon fill="midnightblue" stroke="midnightblue" points="971.203,-129.757 980.69,-134.475 976.216,-124.871 971.203,-129.757"/>
</g>
<!-- Node18 -->
<g id="node18" class="node"><title>Node18</title>
<g id="a_node18"><a xlink:href="_input_output___8h.html" target="_top" xlink:title=" ">
<polygon fill="white" stroke="black" points="1116.5,-73 1116.5,-92 1251.5,-92 1251.5,-73 1116.5,-73"/>
<text text-anchor="middle" x="1184" y="-80" font-family="Helvetica,sans-Serif" font-size="10.00">Cpl/Io/Stdio/InputOutput_.h</text>
</a>
</g>
</g>
<!-- Node16&#45;&gt;Node18 -->
<g id="edge21" class="edge"><title>Node16&#45;&gt;Node18</title>
<path fill="none" stroke="midnightblue" d="M1026.6,-131.529C1064.49,-119.965 1122.11,-102.385 1156.11,-92.0091"/>
<polygon fill="midnightblue" stroke="midnightblue" points="1025.48,-128.209 1016.94,-134.475 1027.52,-134.904 1025.48,-128.209"/>
</g>
<!-- Node20 -->
<g id="node20" class="node"><title>Node20</title>
<g id="a_node20"><a xlink:href="_std_in_8h.html" target="_top" xlink:title=" ">
<polygon fill="white" stroke="black" points="996,-73 996,-92 1098,-92 1098,-73 996,-73"/>
<text text-anchor="middle" x="1047" y="-80" font-family="Helvetica,sans-Serif" font-size="10.00">Cpl/Io/Stdio/StdIn.h</text>
</a>
</g>
</g>
<!-- Node16&#45;&gt;Node20 -->
<g id="edge23" class="edge"><title>Node16&#45;&gt;Node20</title>
<path fill="none" stroke="midnightblue" d="M1004.6,-126.997C1015.58,-115.736 1029.84,-101.104 1038.71,-92.0091"/>
<polygon fill="midnightblue" stroke="midnightblue" points="1001.78,-124.871 997.31,-134.475 1006.8,-129.757 1001.78,-124.871"/>
</g>
<!-- Node19 -->
<g id="node19" class="node"><title>Node19</title>
<g id="a_node19"><a xlink:href="_file_2_input_output_8h.html" target="_top" xlink:title=" ">
<polygon fill="white" stroke="black" points="1122.5,-6 1122.5,-25 1245.5,-25 1245.5,-6 1122.5,-6"/>
<text text-anchor="middle" x="1184" y="-13" font-family="Helvetica,sans-Serif" font-size="10.00">Cpl/Io/File/InputOutput.h</text>
</a>
</g>
</g>
<!-- Node18&#45;&gt;Node19 -->
<g id="edge22" class="edge"><title>Node18&#45;&gt;Node19</title>
<path fill="none" stroke="midnightblue" d="M1184,-62.537C1184,-50.1703 1184,-34.6198 1184,-25.1273"/>
<polygon fill="midnightblue" stroke="midnightblue" points="1180.5,-62.7338 1184,-72.7338 1187.5,-62.7338 1180.5,-62.7338"/>
</g>
<!-- Node21&#45;&gt;Node18 -->
<g id="edge26" class="edge"><title>Node21&#45;&gt;Node18</title>
<path fill="none" stroke="midnightblue" d="M1291.03,-130.327C1264.63,-118.776 1226.36,-102.032 1203.45,-92.0091"/>
<polygon fill="midnightblue" stroke="midnightblue" points="1289.95,-133.673 1300.51,-134.475 1292.76,-127.26 1289.95,-133.673"/>
</g>
<!-- Node22 -->
<g id="node22" class="node"><title>Node22</title>
<g id="a_node22"><a xlink:href="_file_2_output_8h.html" target="_top" xlink:title=" ">
<polygon fill="white" stroke="black" points="1269.5,-73 1269.5,-92 1370.5,-92 1370.5,-73 1269.5,-73"/>
<text text-anchor="middle" x="1320" y="-80" font-family="Helvetica,sans-Serif" font-size="10.00">Cpl/Io/File/Output.h</text>
</a>
</g>
</g>
<!-- Node21&#45;&gt;Node22 -->
<g id="edge25" class="edge"><title>Node21&#45;&gt;Node22</title>
<path fill="none" stroke="midnightblue" d="M1320,-124.317C1320,-113.496 1320,-100.398 1320,-92.0091"/>
<polygon fill="midnightblue" stroke="midnightblue" points="1316.5,-124.475 1320,-134.475 1323.5,-124.475 1316.5,-124.475"/>
</g>
<!-- Node23 -->
<g id="node23" class="node"><title>Node23</title>
<g id="a_node23"><a xlink:href="_std_err_8h.html" target="_top" xlink:title=" ">
<polygon fill="white" stroke="black" points="1388.5,-73 1388.5,-92 1495.5,-92 1495.5,-73 1388.5,-73"/>
<text text-anchor="middle" x="1442" y="-80" font-family="Helvetica,sans-Serif" font-size="10.00">Cpl/Io/Stdio/StdErr.h</text>
</a>
</g>
</g>
<!-- Node21&#45;&gt;Node23 -->
<g id="edge27" class="edge"><title>Node21&#45;&gt;Node23</title>
<path fill="none" stroke="midnightblue" d="M1346.61,-130.021C1370.27,-118.482 1404.18,-101.943 1424.55,-92.0091"/>
<polygon fill="midnightblue" stroke="midnightblue" points="1344.93,-126.946 1337.48,-134.475 1348,-133.237 1344.93,-126.946"/>
</g>
<!-- Node24 -->
<g id="node24" class="node"><title>Node24</title>
<g id="a_node24"><a xlink:href="_std_out_8h.html" target="_top" xlink:title=" ">
<polygon fill="white" stroke="black" points="1514,-73 1514,-92 1624,-92 1624,-73 1514,-73"/>
<text text-anchor="middle" x="1569" y="-80" font-family="Helvetica,sans-Serif" font-size="10.00">Cpl/Io/Stdio/StdOut.h</text>
</a>
</g>
</g>
<!-- Node21&#45;&gt;Node24 -->
<g id="edge28" class="edge"><title>Node21&#45;&gt;Node24</title>
<path fill="none" stroke="midnightblue" d="M1365.56,-132.114C1413.89,-120.565 1489.23,-102.561 1533.39,-92.0091"/>
<polygon fill="midnightblue" stroke="midnightblue" points="1364.59,-128.747 1355.68,-134.475 1366.22,-135.555 1364.59,-128.747"/>
</g>
<!-- Node26 -->
<g id="node26" class="node"><title>Node26</title>
<g id="a_node26"><a xlink:href="_async_connector_8h.html" target="_top" xlink:title=" ">
<polygon fill="white" stroke="black" points="1642.5,-73 1642.5,-92 1787.5,-92 1787.5,-73 1642.5,-73"/>
<text text-anchor="middle" x="1715" y="-80" font-family="Helvetica,sans-Serif" font-size="10.00">Cpl/Io/Tcp/AsyncConnector.h</text>
</a>
</g>
</g>
<!-- Node25&#45;&gt;Node26 -->
<g id="edge30" class="edge"><title>Node25&#45;&gt;Node26</title>
<path fill="none" stroke="midnightblue" d="M1715,-124.317C1715,-113.496 1715,-100.398 1715,-92.0091"/>
<polygon fill="midnightblue" stroke="midnightblue" points="1711.5,-124.475 1715,-134.475 1718.5,-124.475 1711.5,-124.475"/>
</g>
<!-- Node28 -->
<g id="node28" class="node"><title>Node28</title>
<g id="a_node28"><a xlink:href="_async_listener_8h.html" target="_top" xlink:title=" ">
<polygon fill="white" stroke="black" points="1812.5,-73 1812.5,-92 1947.5,-92 1947.5,-73 1812.5,-73"/>
<text text-anchor="middle" x="1880" y="-80" font-family="Helvetica,sans-Serif" font-size="10.00">Cpl/Io/Tcp/AsyncListener.h</text>
</a>
</g>
</g>
<!-- Node25&#45;&gt;Node28 -->
<g id="edge32" class="edge"><title>Node25&#45;&gt;Node28</title>
<path fill="none" stroke="midnightblue" d="M1748.05,-131.083C1780.12,-119.517 1828,-102.252 1856.4,-92.0091"/>
<polygon fill="midnightblue" stroke="midnightblue" points="1746.86,-127.79 1738.64,-134.475 1749.23,-134.375 1746.86,-127.79"/>
</g>
<!-- Node27 -->
<g id="node27" class="node"><title>Node27</title>
<g id="a_node27"><a xlink:href="_win32_2_async_connector_8h.html" target="_top" xlink:title=" ">
<polygon fill="white" stroke="black" points="1619.5,-6 1619.5,-25 1794.5,-25 1794.5,-6 1619.5,-6"/>
<text text-anchor="middle" x="1707" y="-13" font-family="Helvetica,sans-Serif" font-size="10.00">Cpl/Io/Tcp/Win32/AsyncConnector.h</text>
</a>
</g>
</g>
<!-- Node26&#45;&gt;Node27 -->
<g id="edge31" class="edge"><title>Node26&#45;&gt;Node27</title>
<path fill="none" stroke="midnightblue" d="M1712.67,-62.537C1711.14,-50.1703 1709.23,-34.6198 1708.06,-25.1273"/>
<polygon fill="midnightblue" stroke="midnightblue" points="1709.23,-63.2363 1713.92,-72.7338 1716.17,-62.3811 1709.23,-63.2363"/>
</g>
<!-- Node29 -->
<g id="node29" class="node"><title>Node29</title>
<g id="a_node29"><a xlink:href="_win32_2_async_listener_8h.html" target="_top" xlink:title=" ">
<polygon fill="white" stroke="black" points="1812.5,-6 1812.5,-25 1977.5,-25 1977.5,-6 1812.5,-6"/>
<text text-anchor="middle" x="1895" y="-13" font-family="Helvetica,sans-Serif" font-size="10.00">Cpl/Io/Tcp/Win32/AsyncListener.h</text>
</a>
</g>
</g>
<!-- Node28&#45;&gt;Node29 -->
<g id="edge33" class="edge"><title>Node28&#45;&gt;Node29</title>
<path fill="none" stroke="midnightblue" d="M1884.29,-62.9145C1887.16,-50.4883 1890.8,-34.7166 1893.01,-25.1273"/>
<polygon fill="midnightblue" stroke="midnightblue" points="1880.86,-62.2029 1882.02,-72.7338 1887.68,-63.7769 1880.86,-62.2029"/>
</g>
</g>
</svg>
