<?xml version="1.0" encoding="UTF-8" standalone="no"?>
<!DOCTYPE svg PUBLIC "-//W3C//DTD SVG 1.1//EN"
 "http://www.w3.org/Graphics/SVG/1.1/DTD/svg11.dtd">
<!-- Generated by graphviz version 2.38.0 (20140413.2041)
 -->
<!-- Title: Cpl/Container/DictItem.h Pages: 1 -->
<svg width="4068pt" height="453pt"
 viewBox="0.00 0.00 4067.50 453.00" xmlns="http://www.w3.org/2000/svg" xmlns:xlink="http://www.w3.org/1999/xlink">
<g id="graph0" class="graph" transform="scale(1 1) rotate(0) translate(4 449)">
<title>Cpl/Container/DictItem.h</title>
<polygon fill="white" stroke="none" points="-4,4 -4,-449 4063.5,-449 4063.5,4 -4,4"/>
<!-- Node1 -->
<g id="node1" class="node"><title>Node1</title>
<g id="a_node1"><a xlink:title=" ">
<polygon fill="#bfbfbf" stroke="black" points="939.5,-425.5 939.5,-444.5 1062.5,-444.5 1062.5,-425.5 939.5,-425.5"/>
<text text-anchor="middle" x="1001" y="-432.5" font-family="Helvetica,sans-Serif" font-size="10.00">Cpl/Container/DictItem.h</text>
</a>
</g>
</g>
<!-- Node2 -->
<g id="node2" class="node"><title>Node2</title>
<g id="a_node2"><a xlink:href="_hash_table___8h.html" target="_top" xlink:title=" ">
<polygon fill="white" stroke="black" points="851,-369.5 851,-388.5 989,-388.5 989,-369.5 851,-369.5"/>
<text text-anchor="middle" x="920" y="-376.5" font-family="Helvetica,sans-Serif" font-size="10.00">Cpl/Container/HashTable_.h</text>
</a>
</g>
</g>
<!-- Node1&#45;&gt;Node2 -->
<g id="edge1" class="edge"><title>Node1&#45;&gt;Node2</title>
<path fill="none" stroke="midnightblue" d="M979.433,-419.622C964.636,-409.757 945.488,-396.992 932.982,-388.655"/>
<polygon fill="midnightblue" stroke="midnightblue" points="977.724,-422.689 987.986,-425.324 981.607,-416.865 977.724,-422.689"/>
</g>
<!-- Node4 -->
<g id="node4" class="node"><title>Node4</title>
<g id="a_node4"><a xlink:href="_map_item_8h.html" target="_top" xlink:title=" ">
<polygon fill="white" stroke="black" points="1020.5,-369.5 1020.5,-388.5 1145.5,-388.5 1145.5,-369.5 1020.5,-369.5"/>
<text text-anchor="middle" x="1083" y="-376.5" font-family="Helvetica,sans-Serif" font-size="10.00">Cpl/Container/MapItem.h</text>
</a>
</g>
</g>
<!-- Node1&#45;&gt;Node4 -->
<g id="edge3" class="edge"><title>Node1&#45;&gt;Node4</title>
<path fill="none" stroke="midnightblue" d="M1022.83,-419.622C1037.81,-409.757 1057.2,-396.992 1069.86,-388.655"/>
<polygon fill="midnightblue" stroke="midnightblue" points="1020.6,-416.901 1014.17,-425.324 1024.45,-422.747 1020.6,-416.901"/>
</g>
<!-- Node3 -->
<g id="node3" class="node"><title>Node3</title>
<g id="a_node3"><a xlink:href="_dictionary_8h.html" target="_top" xlink:title=" ">
<polygon fill="white" stroke="black" points="842,-313.5 842,-332.5 972,-332.5 972,-313.5 842,-313.5"/>
<text text-anchor="middle" x="907" y="-320.5" font-family="Helvetica,sans-Serif" font-size="10.00">Cpl/Container/Dictionary.h</text>
</a>
</g>
</g>
<!-- Node2&#45;&gt;Node3 -->
<g id="edge2" class="edge"><title>Node2&#45;&gt;Node3</title>
<path fill="none" stroke="midnightblue" d="M915.45,-359.101C913.292,-350.136 910.818,-339.858 909.107,-332.751"/>
<polygon fill="midnightblue" stroke="midnightblue" points="912.11,-360.18 917.853,-369.083 918.915,-358.542 912.11,-360.18"/>
</g>
<!-- Node5 -->
<g id="node5" class="node"><title>Node5</title>
<g id="a_node5"><a xlink:href="_avl_tree___8h.html" target="_top" xlink:title=" ">
<polygon fill="white" stroke="black" points="1222.5,-313.5 1222.5,-332.5 1347.5,-332.5 1347.5,-313.5 1222.5,-313.5"/>
<text text-anchor="middle" x="1285" y="-320.5" font-family="Helvetica,sans-Serif" font-size="10.00">Cpl/Container/AvlTree_.h</text>
</a>
</g>
</g>
<!-- Node4&#45;&gt;Node5 -->
<g id="edge4" class="edge"><title>Node4&#45;&gt;Node5</title>
<path fill="none" stroke="midnightblue" d="M1124.79,-366.829C1162.93,-356.633 1218.48,-341.782 1253.14,-332.516"/>
<polygon fill="midnightblue" stroke="midnightblue" points="1123.76,-363.48 1115.01,-369.444 1125.57,-370.242 1123.76,-363.48"/>
</g>
<!-- Node77 -->
<g id="node38" class="node"><title>Node77</title>
<g id="a_node38"><a xlink:href="_model_point_8h.html" target="_top" xlink:title=" ">
<polygon fill="white" stroke="black" points="3476.5,-257.5 3476.5,-276.5 3585.5,-276.5 3585.5,-257.5 3476.5,-257.5"/>
<text text-anchor="middle" x="3531" y="-264.5" font-family="Helvetica,sans-Serif" font-size="10.00">Cpl/Dm/ModelPoint.h</text>
</a>
</g>
</g>
<!-- Node4&#45;&gt;Node77 -->
<g id="edge38" class="edge"><title>Node4&#45;&gt;Node77</title>
<path fill="none" stroke="midnightblue" d="M1155.87,-374.726C1521.97,-358.275 3155.64,-284.867 3476.28,-270.459"/>
<polygon fill="midnightblue" stroke="midnightblue" points="1155.5,-371.239 1145.66,-375.184 1155.81,-378.232 1155.5,-371.239"/>
</g>
<!-- Node82 -->
<g id="node46" class="node"><title>Node82</title>
<g id="a_node46"><a xlink:href="_string_item_8h.html" target="_top" xlink:title=" ">
<polygon fill="white" stroke="black" points="1028,-313.5 1028,-332.5 1138,-332.5 1138,-313.5 1028,-313.5"/>
<text text-anchor="middle" x="1083" y="-320.5" font-family="Helvetica,sans-Serif" font-size="10.00">Cpl/Text/StringItem.h</text>
</a>
</g>
</g>
<!-- Node4&#45;&gt;Node82 -->
<g id="edge51" class="edge"><title>Node4&#45;&gt;Node82</title>
<path fill="none" stroke="midnightblue" d="M1083,-358.805C1083,-349.91 1083,-339.78 1083,-332.751"/>
<polygon fill="midnightblue" stroke="midnightblue" points="1079.5,-359.083 1083,-369.083 1086.5,-359.083 1079.5,-359.083"/>
</g>
<!-- Node86 -->
<g id="node50" class="node"><title>Node86</title>
<g id="a_node50"><a xlink:href="_command_8h.html" target="_top" xlink:title=" ">
<polygon fill="white" stroke="black" points="721.5,-257.5 721.5,-276.5 838.5,-276.5 838.5,-257.5 721.5,-257.5"/>
<text text-anchor="middle" x="780" y="-264.5" font-family="Helvetica,sans-Serif" font-size="10.00">Cpl/TShell/Command.h</text>
</a>
</g>
</g>
<!-- Node4&#45;&gt;Node86 -->
<g id="edge55" class="edge"><title>Node4&#45;&gt;Node86</title>
<path fill="none" stroke="midnightblue" d="M1062.22,-363.539C1037.52,-346.577 997.579,-319.889 981,-313 935.099,-293.928 879.786,-282.3 838.814,-275.655"/>
<polygon fill="midnightblue" stroke="midnightblue" points="1060.33,-366.494 1070.55,-369.294 1064.31,-360.733 1060.33,-366.494"/>
</g>
<!-- Node6 -->
<g id="node6" class="node"><title>Node6</title>
<g id="a_node6"><a xlink:href="_map_8h.html" target="_top" xlink:title=" ">
<polygon fill="white" stroke="black" points="1265.5,-257.5 1265.5,-276.5 1370.5,-276.5 1370.5,-257.5 1265.5,-257.5"/>
<text text-anchor="middle" x="1318" y="-264.5" font-family="Helvetica,sans-Serif" font-size="10.00">Cpl/Container/Map.h</text>
</a>
</g>
</g>
<!-- Node5&#45;&gt;Node6 -->
<g id="edge5" class="edge"><title>Node5&#45;&gt;Node6</title>
<path fill="none" stroke="midnightblue" d="M1295.83,-304.275C1301.47,-295.045 1308.12,-284.17 1312.65,-276.751"/>
<polygon fill="midnightblue" stroke="midnightblue" points="1292.68,-302.725 1290.45,-313.083 1298.65,-306.375 1292.68,-302.725"/>
</g>
<!-- Node7 -->
<g id="node7" class="node"><title>Node7</title>
<g id="a_node7"><a xlink:href="_model_database_8h.html" target="_top" xlink:title=" ">
<polygon fill="white" stroke="red" points="1890,-196 1890,-215 2018,-215 2018,-196 1890,-196"/>
<text text-anchor="middle" x="1954" y="-203" font-family="Helvetica,sans-Serif" font-size="10.00">Cpl/Dm/ModelDatabase.h</text>
</a>
</g>
</g>
<!-- Node6&#45;&gt;Node7 -->
<g id="edge6" class="edge"><title>Node6&#45;&gt;Node7</title>
<path fill="none" stroke="midnightblue" d="M1380.82,-260.123C1502.09,-248.778 1767.26,-223.97 1889.7,-212.516"/>
<polygon fill="midnightblue" stroke="midnightblue" points="1380.22,-256.664 1370.59,-261.08 1380.87,-263.633 1380.22,-256.664"/>
</g>
<!-- Node57 -->
<g id="node26" class="node"><title>Node57</title>
<g id="a_node26"><a xlink:href="_cmd_2_command_8h.html" target="_top" xlink:title=" ">
<polygon fill="white" stroke="red" points="666,-134.5 666,-153.5 806,-153.5 806,-134.5 666,-134.5"/>
<text text-anchor="middle" x="736" y="-141.5" font-family="Helvetica,sans-Serif" font-size="10.00">Cpl/TShell/Cmd/Command.h</text>
</a>
</g>
</g>
<!-- Node6&#45;&gt;Node57 -->
<g id="edge25" class="edge"><title>Node6&#45;&gt;Node57</title>
<path fill="none" stroke="midnightblue" d="M1278.58,-254.548C1222.27,-238.486 1115.4,-209.099 1023,-190 947.802,-174.456 860.537,-161.484 802.155,-153.523"/>
<polygon fill="midnightblue" stroke="midnightblue" points="1277.91,-257.997 1288.49,-257.386 1279.84,-251.268 1277.91,-257.997"/>
</g>
<!-- Node73 -->
<g id="node36" class="node"><title>Node73</title>
<g id="a_node36"><a xlink:href="_context___8h.html" target="_top" xlink:title=" ">
<polygon fill="white" stroke="red" points="902,-196 902,-215 1014,-215 1014,-196 902,-196"/>
<text text-anchor="middle" x="958" y="-203" font-family="Helvetica,sans-Serif" font-size="10.00">Cpl/TShell/Context_.h</text>
</a>
</g>
</g>
<!-- Node6&#45;&gt;Node73 -->
<g id="edge35" class="edge"><title>Node6&#45;&gt;Node73</title>
<path fill="none" stroke="midnightblue" d="M1256.47,-255.83C1186.84,-244.322 1074.67,-225.782 1009.48,-215.009"/>
<polygon fill="midnightblue" stroke="midnightblue" points="1255.98,-259.298 1266.42,-257.475 1257.13,-252.391 1255.98,-259.298"/>
</g>
<!-- Node76 -->
<g id="node37" class="node"><title>Node76</title>
<g id="a_node37"><a xlink:href="_main_8h.html" target="_top" xlink:title=" ">
<polygon fill="white" stroke="black" points="764.5,-190.5 764.5,-220.5 883.5,-220.5 883.5,-190.5 764.5,-190.5"/>
<text text-anchor="start" x="772.5" y="-208.5" font-family="Helvetica,sans-Serif" font-size="10.00">Storm/Thermostat/Main</text>
<text text-anchor="middle" x="824" y="-197.5" font-family="Helvetica,sans-Serif" font-size="10.00">/Main.h</text>
</a>
</g>
</g>
<!-- Node6&#45;&gt;Node76 -->
<g id="edge37" class="edge"><title>Node6&#45;&gt;Node76</title>
<path fill="none" stroke="midnightblue" d="M1254.95,-256.933C1093.3,-237.679 1049.95,-245.2 893,-221 889.976,-220.534 886.884,-220.02 883.767,-219.473"/>
<polygon fill="midnightblue" stroke="midnightblue" points="1254.91,-260.454 1265.26,-258.178 1255.75,-253.504 1254.91,-260.454"/>
</g>
<!-- Node8 -->
<g id="node8" class="node"><title>Node8</title>
<g id="a_node8"><a xlink:href="_model_point_common___8h.html" target="_top" xlink:title=" ">
<polygon fill="white" stroke="black" points="2446.5,-134.5 2446.5,-153.5 2599.5,-153.5 2599.5,-134.5 2446.5,-134.5"/>
<text text-anchor="middle" x="2523" y="-141.5" font-family="Helvetica,sans-Serif" font-size="10.00">Cpl/Dm/ModelPointCommon_.h</text>
</a>
</g>
</g>
<!-- Node7&#45;&gt;Node8 -->
<g id="edge7" class="edge"><title>Node7&#45;&gt;Node8</title>
<path fill="none" stroke="midnightblue" d="M2028.36,-196.725C2136.68,-185.398 2336.87,-164.464 2446.43,-153.007"/>
<polygon fill="midnightblue" stroke="midnightblue" points="2027.75,-193.269 2018.17,-197.79 2028.48,-200.231 2027.75,-193.269"/>
</g>
<!-- Node9 -->
<g id="node9" class="node"><title>Node9</title>
<g id="a_node9"><a xlink:href="_cpl_2_dm_2_mp_2_basic_8h.html" target="_top" xlink:title=" ">
<polygon fill="white" stroke="red" points="2539.5,-73 2539.5,-92 2640.5,-92 2640.5,-73 2539.5,-73"/>
<text text-anchor="middle" x="2590" y="-80" font-family="Helvetica,sans-Serif" font-size="10.00">Cpl/Dm/Mp/Basic.h</text>
</a>
</g>
</g>
<!-- Node8&#45;&gt;Node9 -->
<g id="edge8" class="edge"><title>Node8&#45;&gt;Node9</title>
<path fill="none" stroke="midnightblue" d="M2540.29,-127.65C2553.06,-116.306 2569.98,-101.281 2580.42,-92.0091"/>
<polygon fill="midnightblue" stroke="midnightblue" points="2537.75,-125.218 2532.6,-134.475 2542.4,-130.452 2537.75,-125.218"/>
</g>
<!-- Node40 -->
<g id="node10" class="node"><title>Node40</title>
<g id="a_node10"><a xlink:href="_basic_array_8h.html" target="_top" xlink:title=" ">
<polygon fill="white" stroke="red" points="2658.5,-73 2658.5,-92 2783.5,-92 2783.5,-73 2658.5,-73"/>
<text text-anchor="middle" x="2721" y="-80" font-family="Helvetica,sans-Serif" font-size="10.00">Cpl/Dm/Mp/BasicArray.h</text>
</a>
</g>
</g>
<!-- Node8&#45;&gt;Node40 -->
<g id="edge9" class="edge"><title>Node8&#45;&gt;Node40</title>
<path fill="none" stroke="midnightblue" d="M2561.17,-131.529C2599.66,-119.965 2658.16,-102.385 2692.68,-92.0091"/>
<polygon fill="midnightblue" stroke="midnightblue" points="2559.94,-128.245 2551.37,-134.475 2561.95,-134.949 2559.94,-128.245"/>
</g>
<!-- Node42 -->
<g id="node11" class="node"><title>Node42</title>
<g id="a_node11"><a xlink:href="_enum_8h.html" target="_top" xlink:title=" ">
<polygon fill="white" stroke="black" points="3401,-73 3401,-92 3503,-92 3503,-73 3401,-73"/>
<text text-anchor="middle" x="3452" y="-80" font-family="Helvetica,sans-Serif" font-size="10.00">Cpl/Dm/Mp/Enum.h</text>
</a>
</g>
</g>
<!-- Node8&#45;&gt;Node42 -->
<g id="edge10" class="edge"><title>Node8&#45;&gt;Node42</title>
<path fill="none" stroke="midnightblue" d="M2609.55,-143.693C2766.26,-143.799 3107.09,-138.758 3391,-98 3400.81,-96.5924 3411.35,-94.3533 3420.86,-92.0517"/>
<polygon fill="midnightblue" stroke="midnightblue" points="2609.51,-140.193 2599.5,-143.679 2609.5,-147.193 2609.51,-140.193"/>
</g>
<!-- Node45 -->
<g id="node14" class="node"><title>Node45</title>
<g id="a_node14"><a xlink:href="_dm_2_mp_2_string_8h.html" target="_top" xlink:title=" ">
<polygon fill="white" stroke="red" points="2802,-73 2802,-92 2904,-92 2904,-73 2802,-73"/>
<text text-anchor="middle" x="2853" y="-80" font-family="Helvetica,sans-Serif" font-size="10.00">Cpl/Dm/Mp/String.h</text>
</a>
</g>
</g>
<!-- Node8&#45;&gt;Node45 -->
<g id="edge13" class="edge"><title>Node8&#45;&gt;Node45</title>
<path fill="none" stroke="midnightblue" d="M2590.82,-132.953C2645.36,-124.564 2723.84,-111.785 2792,-98 2800.75,-96.2305 2810.15,-94.1069 2818.89,-92.0376"/>
<polygon fill="midnightblue" stroke="midnightblue" points="2590.28,-129.495 2580.93,-134.468 2591.34,-136.415 2590.28,-129.495"/>
</g>
<!-- Node46 -->
<g id="node15" class="node"><title>Node46</title>
<g id="a_node15"><a xlink:href="_mp_comfort_config_8h.html" target="_top" xlink:title=" ">
<polygon fill="white" stroke="red" points="2922,-73 2922,-92 3070,-92 3070,-73 2922,-73"/>
<text text-anchor="middle" x="2996" y="-80" font-family="Helvetica,sans-Serif" font-size="10.00">Storm/Dm/MpComfortConfig.h</text>
</a>
</g>
</g>
<!-- Node8&#45;&gt;Node46 -->
<g id="edge14" class="edge"><title>Node8&#45;&gt;Node46</title>
<path fill="none" stroke="midnightblue" d="M2610.17,-134.406C2689.34,-126.253 2809.23,-113.038 2913,-98 2925.02,-96.2587 2937.96,-94.1223 2949.98,-92.0301"/>
<polygon fill="midnightblue" stroke="midnightblue" points="2609.35,-130.971 2599.76,-135.473 2610.07,-137.935 2609.35,-130.971"/>
</g>
<!-- Node47 -->
<g id="node16" class="node"><title>Node47</title>
<g id="a_node16"><a xlink:href="_mp_cycle_info_8h.html" target="_top" xlink:title=" ">
<polygon fill="white" stroke="red" points="3088.5,-73 3088.5,-92 3215.5,-92 3215.5,-73 3088.5,-73"/>
<text text-anchor="middle" x="3152" y="-80" font-family="Helvetica,sans-Serif" font-size="10.00">Storm/Dm/MpCycleInfo.h</text>
</a>
</g>
</g>
<!-- Node8&#45;&gt;Node47 -->
<g id="edge15" class="edge"><title>Node8&#45;&gt;Node47</title>
<path fill="none" stroke="midnightblue" d="M2609.77,-139.081C2719.46,-133.415 2913.9,-121 3079,-98 3090.26,-96.4311 3102.41,-94.2275 3113.5,-92.0108"/>
<polygon fill="midnightblue" stroke="midnightblue" points="2609.56,-135.587 2599.75,-139.592 2609.92,-142.578 2609.56,-135.587"/>
</g>
<!-- Node48 -->
<g id="node17" class="node"><title>Node48</title>
<g id="a_node17"><a xlink:href="_mp_equipment_begin_times_8h.html" target="_top" xlink:title=" ">
<polygon fill="white" stroke="red" points="3233.5,-67.5 3233.5,-97.5 3382.5,-97.5 3382.5,-67.5 3233.5,-67.5"/>
<text text-anchor="start" x="3241.5" y="-85.5" font-family="Helvetica,sans-Serif" font-size="10.00">Storm/Dm/MpEquipmentBegin</text>
<text text-anchor="middle" x="3308" y="-74.5" font-family="Helvetica,sans-Serif" font-size="10.00">Times.h</text>
</a>
</g>
</g>
<!-- Node8&#45;&gt;Node48 -->
<g id="edge16" class="edge"><title>Node8&#45;&gt;Node48</title>
<path fill="none" stroke="midnightblue" d="M2609.85,-140.408C2742.59,-135.775 3003.72,-124.008 3224,-98 3227.09,-97.6356 3230.23,-97.2334 3233.41,-96.8021"/>
<polygon fill="midnightblue" stroke="midnightblue" points="2609.62,-136.914 2599.74,-140.756 2609.86,-143.91 2609.62,-136.914"/>
</g>
<!-- Node49 -->
<g id="node18" class="node"><title>Node49</title>
<g id="a_node18"><a xlink:href="_mp_equipment_config_8h.html" target="_top" xlink:title=" ">
<polygon fill="white" stroke="red" points="1253,-73 1253,-92 1413,-92 1413,-73 1253,-73"/>
<text text-anchor="middle" x="1333" y="-80" font-family="Helvetica,sans-Serif" font-size="10.00">Storm/Dm/MpEquipmentConfig.h</text>
</a>
</g>
</g>
<!-- Node8&#45;&gt;Node49 -->
<g id="edge17" class="edge"><title>Node8&#45;&gt;Node49</title>
<path fill="none" stroke="midnightblue" d="M2436.35,-143.005C2250.18,-142.239 1798.35,-136.208 1422,-98 1407.83,-96.5611 1392.48,-94.313 1378.59,-92.0127"/>
<polygon fill="midnightblue" stroke="midnightblue" points="2436.34,-146.505 2446.36,-143.043 2436.37,-139.505 2436.34,-146.505"/>
</g>
<!-- Node50 -->
<g id="node19" class="node"><title>Node50</title>
<g id="a_node19"><a xlink:href="_mp_hvac_relay_outputs_8h.html" target="_top" xlink:title=" ">
<polygon fill="white" stroke="red" points="1431.5,-73 1431.5,-92 1598.5,-92 1598.5,-73 1431.5,-73"/>
<text text-anchor="middle" x="1515" y="-80" font-family="Helvetica,sans-Serif" font-size="10.00">Storm/Dm/MpHvacRelayOutputs.h</text>
</a>
</g>
</g>
<!-- Node8&#45;&gt;Node50 -->
<g id="edge18" class="edge"><title>Node8&#45;&gt;Node50</title>
<path fill="none" stroke="midnightblue" d="M2435.83,-141.772C2272.86,-138.798 1911.06,-128.991 1608,-98 1593.53,-96.5205 1577.88,-94.3172 1563.62,-92.0722"/>
<polygon fill="midnightblue" stroke="midnightblue" points="2436.22,-145.28 2446.28,-141.958 2436.34,-138.281 2436.22,-145.28"/>
</g>
<!-- Node51 -->
<g id="node20" class="node"><title>Node51</title>
<g id="a_node20"><a xlink:href="_mp_idt_alarm_8h.html" target="_top" xlink:title=" ">
<polygon fill="white" stroke="red" points="1617,-73 1617,-92 1739,-92 1739,-73 1617,-73"/>
<text text-anchor="middle" x="1678" y="-80" font-family="Helvetica,sans-Serif" font-size="10.00">Storm/Dm/MpIdtAlarm.h</text>
</a>
</g>
</g>
<!-- Node8&#45;&gt;Node51 -->
<g id="edge19" class="edge"><title>Node8&#45;&gt;Node51</title>
<path fill="none" stroke="midnightblue" d="M2436.4,-142.095C2292.75,-139.672 1996.41,-130.762 1748,-98 1736.93,-96.5395 1724.99,-94.3138 1714.16,-92.0414"/>
<polygon fill="midnightblue" stroke="midnightblue" points="2436.42,-145.596 2446.47,-142.258 2436.53,-138.597 2436.42,-145.596"/>
</g>
<!-- Node52 -->
<g id="node21" class="node"><title>Node52</title>
<g id="a_node21"><a xlink:href="_mp_setpoints_8h.html" target="_top" xlink:title=" ">
<polygon fill="white" stroke="red" points="1757.5,-73 1757.5,-92 1884.5,-92 1884.5,-73 1757.5,-73"/>
<text text-anchor="middle" x="1821" y="-80" font-family="Helvetica,sans-Serif" font-size="10.00">Storm/Dm/MpSetpoints.h</text>
</a>
</g>
</g>
<!-- Node8&#45;&gt;Node52 -->
<g id="edge20" class="edge"><title>Node8&#45;&gt;Node52</title>
<path fill="none" stroke="midnightblue" d="M2436.04,-140.292C2314.18,-135.703 2085.87,-124.201 1893,-98 1881.75,-96.4724 1869.63,-94.2544 1858.59,-92.0107"/>
<polygon fill="midnightblue" stroke="midnightblue" points="2435.94,-143.791 2446.06,-140.663 2436.2,-136.796 2435.94,-143.791"/>
</g>
<!-- Node53 -->
<g id="node22" class="node"><title>Node53</title>
<g id="a_node22"><a xlink:href="_mp_simple_alarm_8h.html" target="_top" xlink:title=" ">
<polygon fill="white" stroke="red" points="1902.5,-73 1902.5,-92 2043.5,-92 2043.5,-73 1902.5,-73"/>
<text text-anchor="middle" x="1973" y="-80" font-family="Helvetica,sans-Serif" font-size="10.00">Storm/Dm/MpSimpleAlarm.h</text>
</a>
</g>
</g>
<!-- Node8&#45;&gt;Node53 -->
<g id="edge21" class="edge"><title>Node8&#45;&gt;Node53</title>
<path fill="none" stroke="midnightblue" d="M2436.39,-136.977C2341.7,-129.868 2185.64,-116.613 2052,-98 2040.12,-96.3457 2027.31,-94.1665 2015.53,-92.0018"/>
<polygon fill="midnightblue" stroke="midnightblue" points="2436.26,-140.476 2446.49,-137.729 2436.78,-133.496 2436.26,-140.476"/>
</g>
<!-- Node54 -->
<g id="node23" class="node"><title>Node54</title>
<g id="a_node23"><a xlink:href="_mp_system_config_8h.html" target="_top" xlink:title=" ">
<polygon fill="white" stroke="red" points="2061.5,-73 2061.5,-92 2208.5,-92 2208.5,-73 2061.5,-73"/>
<text text-anchor="middle" x="2135" y="-80" font-family="Helvetica,sans-Serif" font-size="10.00">Storm/Dm/MpSystemConfig.h</text>
</a>
</g>
</g>
<!-- Node8&#45;&gt;Node54 -->
<g id="edge22" class="edge"><title>Node8&#45;&gt;Node54</title>
<path fill="none" stroke="midnightblue" d="M2451.83,-133.043C2389.97,-124.258 2297.97,-110.882 2218,-98 2206.59,-96.1621 2194.32,-94.0777 2182.8,-92.074"/>
<polygon fill="midnightblue" stroke="midnightblue" points="2451.48,-136.529 2461.88,-134.467 2452.47,-129.598 2451.48,-136.529"/>
</g>
<!-- Node55 -->
<g id="node24" class="node"><title>Node55</title>
<g id="a_node24"><a xlink:href="_mp_virtual_outputs_8h.html" target="_top" xlink:title=" ">
<polygon fill="white" stroke="red" points="2227,-73 2227,-92 2375,-92 2375,-73 2227,-73"/>
<text text-anchor="middle" x="2301" y="-80" font-family="Helvetica,sans-Serif" font-size="10.00">Storm/Dm/MpVirtualOutputs.h</text>
</a>
</g>
</g>
<!-- Node8&#45;&gt;Node55 -->
<g id="edge23" class="edge"><title>Node8&#45;&gt;Node55</title>
<path fill="none" stroke="midnightblue" d="M2481.3,-131.822C2438.17,-120.264 2371.79,-102.473 2332.75,-92.0091"/>
<polygon fill="midnightblue" stroke="midnightblue" points="2480.63,-135.267 2491.19,-134.475 2482.44,-128.506 2480.63,-135.267"/>
</g>
<!-- Node56 -->
<g id="node25" class="node"><title>Node56</title>
<g id="a_node25"><a xlink:href="_mp_white_box_8h.html" target="_top" xlink:title=" ">
<polygon fill="white" stroke="red" points="2393,-73 2393,-92 2521,-92 2521,-73 2393,-73"/>
<text text-anchor="middle" x="2457" y="-80" font-family="Helvetica,sans-Serif" font-size="10.00">Storm/Dm/MpWhiteBox.h</text>
</a>
</g>
</g>
<!-- Node8&#45;&gt;Node56 -->
<g id="edge24" class="edge"><title>Node8&#45;&gt;Node56</title>
<path fill="none" stroke="midnightblue" d="M2505.97,-127.65C2493.39,-116.306 2476.72,-101.281 2466.44,-92.0091"/>
<polygon fill="midnightblue" stroke="midnightblue" points="2503.77,-130.379 2513.54,-134.475 2508.46,-125.18 2503.77,-130.379"/>
</g>
<!-- Node43 -->
<g id="node12" class="node"><title>Node43</title>
<g id="a_node12"><a xlink:href="_mp_fan_mode_8h.html" target="_top" xlink:title=" ">
<polygon fill="white" stroke="red" points="3345,-6 3345,-25 3471,-25 3471,-6 3345,-6"/>
<text text-anchor="middle" x="3408" y="-13" font-family="Helvetica,sans-Serif" font-size="10.00">Storm/Dm/MpFanMode.h</text>
</a>
</g>
</g>
<!-- Node42&#45;&gt;Node43 -->
<g id="edge11" class="edge"><title>Node42&#45;&gt;Node43</title>
<path fill="none" stroke="midnightblue" d="M3440.43,-64.4037C3431.88,-51.7729 3420.59,-35.1041 3413.84,-25.1273"/>
<polygon fill="midnightblue" stroke="midnightblue" points="3437.56,-66.4147 3446.07,-72.7338 3443.36,-62.4907 3437.56,-66.4147"/>
</g>
<!-- Node44 -->
<g id="node13" class="node"><title>Node44</title>
<g id="a_node13"><a xlink:href="_mp_thermostat_mode_8h.html" target="_top" xlink:title=" ">
<polygon fill="white" stroke="red" points="3489.5,-6 3489.5,-25 3648.5,-25 3648.5,-6 3489.5,-6"/>
<text text-anchor="middle" x="3569" y="-13" font-family="Helvetica,sans-Serif" font-size="10.00">Storm/Dm/MpThermostatMode.h</text>
</a>
</g>
</g>
<!-- Node42&#45;&gt;Node44 -->
<g id="edge12" class="edge"><title>Node42&#45;&gt;Node44</title>
<path fill="none" stroke="midnightblue" d="M3476.68,-67.7872C3499.87,-54.9047 3533.86,-36.0243 3553.47,-25.1273"/>
<polygon fill="midnightblue" stroke="midnightblue" points="3474.82,-64.8178 3467.78,-72.7338 3478.22,-70.9369 3474.82,-64.8178"/>
</g>
<!-- Node58 -->
<g id="node27" class="node"><title>Node58</title>
<g id="a_node27"><a xlink:href="_dm_8h.html" target="_top" xlink:title=" ">
<polygon fill="white" stroke="black" points="0,-73 0,-92 106,-92 106,-73 0,-73"/>
<text text-anchor="middle" x="53" y="-80" font-family="Helvetica,sans-Serif" font-size="10.00">Cpl/Dm/TShell/Dm.h</text>
</a>
</g>
</g>
<!-- Node57&#45;&gt;Node58 -->
<g id="edge26" class="edge"><title>Node57&#45;&gt;Node58</title>
<path fill="none" stroke="midnightblue" d="M655.65,-141.212C536.852,-137.658 307.62,-127.316 115,-98 105.274,-96.5197 94.8165,-94.3161 85.3123,-92.0711"/>
<polygon fill="midnightblue" stroke="midnightblue" points="655.655,-144.714 665.752,-141.506 655.858,-137.717 655.655,-144.714"/>
</g>
<!-- Node59 -->
<g id="node28" class="node"><title>Node59</title>
<g id="a_node28"><a xlink:href="_dbg_8h.html" target="_top" xlink:title=" ">
<polygon fill="white" stroke="black" points="124.5,-67.5 124.5,-97.5 245.5,-97.5 245.5,-67.5 124.5,-67.5"/>
<text text-anchor="start" x="132.5" y="-85.5" font-family="Helvetica,sans-Serif" font-size="10.00">Cpl/TShell/Cmd/Arduino</text>
<text text-anchor="middle" x="185" y="-74.5" font-family="Helvetica,sans-Serif" font-size="10.00">/Dbg.h</text>
</a>
</g>
</g>
<!-- Node57&#45;&gt;Node59 -->
<g id="edge27" class="edge"><title>Node57&#45;&gt;Node59</title>
<path fill="none" stroke="midnightblue" d="M655.643,-138.31C559.686,-132.062 394.512,-119.252 254,-98 251.216,-97.579 248.376,-97.1165 245.511,-96.6236"/>
<polygon fill="midnightblue" stroke="midnightblue" points="655.648,-141.818 665.852,-138.967 656.098,-134.832 655.648,-141.818"/>
</g>
<!-- Node60 -->
<g id="node29" class="node"><title>Node60</title>
<g id="a_node29"><a xlink:href="_bye_8h.html" target="_top" xlink:title=" ">
<polygon fill="white" stroke="black" points="263.5,-73 263.5,-92 376.5,-92 376.5,-73 263.5,-73"/>
<text text-anchor="middle" x="320" y="-80" font-family="Helvetica,sans-Serif" font-size="10.00">Cpl/TShell/Cmd/Bye.h</text>
</a>
</g>
</g>
<!-- Node57&#45;&gt;Node60 -->
<g id="edge28" class="edge"><title>Node57&#45;&gt;Node60</title>
<path fill="none" stroke="midnightblue" d="M655.434,-134.689C584.298,-126.863 477.904,-113.971 386,-98 376.291,-96.3127 365.848,-94.1716 356.197,-92.0561"/>
<polygon fill="midnightblue" stroke="midnightblue" points="655.347,-138.2 665.668,-135.806 656.107,-131.241 655.347,-138.2"/>
</g>
<!-- Node61 -->
<g id="node30" class="node"><title>Node61</title>
<g id="a_node30"><a xlink:href="_help_8h.html" target="_top" xlink:title=" ">
<polygon fill="white" stroke="black" points="395,-73 395,-92 511,-92 511,-73 395,-73"/>
<text text-anchor="middle" x="453" y="-80" font-family="Helvetica,sans-Serif" font-size="10.00">Cpl/TShell/Cmd/Help.h</text>
</a>
</g>
</g>
<!-- Node57&#45;&gt;Node61 -->
<g id="edge29" class="edge"><title>Node57&#45;&gt;Node61</title>
<path fill="none" stroke="midnightblue" d="M684.734,-132.436C640.954,-123.387 576.314,-109.96 520,-98 511.036,-96.0963 501.403,-94.026 492.314,-92.0615"/>
<polygon fill="midnightblue" stroke="midnightblue" points="684.07,-135.873 694.571,-134.468 685.486,-129.017 684.07,-135.873"/>
</g>
<!-- Node62 -->
<g id="node31" class="node"><title>Node62</title>
<g id="a_node31"><a xlink:href="_threads_8h.html" target="_top" xlink:title=" ">
<polygon fill="white" stroke="red" points="529.5,-73 529.5,-92 660.5,-92 660.5,-73 529.5,-73"/>
<text text-anchor="middle" x="595" y="-80" font-family="Helvetica,sans-Serif" font-size="10.00">Cpl/TShell/Cmd/Threads.h</text>
</a>
</g>
</g>
<!-- Node57&#45;&gt;Node62 -->
<g id="edge30" class="edge"><title>Node57&#45;&gt;Node62</title>
<path fill="none" stroke="midnightblue" d="M706.33,-130.48C678.945,-118.924 639.02,-102.076 615.164,-92.0091"/>
<polygon fill="midnightblue" stroke="midnightblue" points="705.224,-133.812 715.798,-134.475 707.946,-127.363 705.224,-133.812"/>
</g>
<!-- Node65 -->
<g id="node32" class="node"><title>Node65</title>
<g id="a_node32"><a xlink:href="_tick_8h.html" target="_top" xlink:title=" ">
<polygon fill="white" stroke="black" points="678.5,-73 678.5,-92 793.5,-92 793.5,-73 678.5,-73"/>
<text text-anchor="middle" x="736" y="-80" font-family="Helvetica,sans-Serif" font-size="10.00">Cpl/TShell/Cmd/Tick.h</text>
</a>
</g>
</g>
<!-- Node57&#45;&gt;Node65 -->
<g id="edge31" class="edge"><title>Node57&#45;&gt;Node65</title>
<path fill="none" stroke="midnightblue" d="M736,-124.317C736,-113.496 736,-100.398 736,-92.0091"/>
<polygon fill="midnightblue" stroke="midnightblue" points="732.5,-124.475 736,-134.475 739.5,-124.475 732.5,-124.475"/>
</g>
<!-- Node66 -->
<g id="node33" class="node"><title>Node66</title>
<g id="a_node33"><a xlink:href="_t_print_8h.html" target="_top" xlink:title=" ">
<polygon fill="white" stroke="black" points="812,-73 812,-92 934,-92 934,-73 812,-73"/>
<text text-anchor="middle" x="873" y="-80" font-family="Helvetica,sans-Serif" font-size="10.00">Cpl/TShell/Cmd/TPrint.h</text>
</a>
</g>
</g>
<!-- Node57&#45;&gt;Node66 -->
<g id="edge32" class="edge"><title>Node57&#45;&gt;Node66</title>
<path fill="none" stroke="midnightblue" d="M764.829,-130.48C791.436,-118.924 830.229,-102.076 853.408,-92.0091"/>
<polygon fill="midnightblue" stroke="midnightblue" points="763.407,-127.281 755.629,-134.475 766.195,-133.702 763.407,-127.281"/>
</g>
<!-- Node67 -->
<g id="node34" class="node"><title>Node67</title>
<g id="a_node34"><a xlink:href="_t_shell_2_cmd_2_trace_8h.html" target="_top" xlink:title=" ">
<polygon fill="white" stroke="black" points="952.5,-73 952.5,-92 1073.5,-92 1073.5,-73 952.5,-73"/>
<text text-anchor="middle" x="1013" y="-80" font-family="Helvetica,sans-Serif" font-size="10.00">Cpl/TShell/Cmd/Trace.h</text>
</a>
</g>
</g>
<!-- Node57&#45;&gt;Node67 -->
<g id="edge33" class="edge"><title>Node57&#45;&gt;Node67</title>
<path fill="none" stroke="midnightblue" d="M785.672,-132.33C839.391,-120.792 923.952,-102.628 973.386,-92.0091"/>
<polygon fill="midnightblue" stroke="midnightblue" points="784.729,-128.953 775.687,-134.475 786.199,-135.797 784.729,-128.953"/>
</g>
<!-- Node68 -->
<g id="node35" class="node"><title>Node68</title>
<g id="a_node35"><a xlink:href="_cmd_8h.html" target="_top" xlink:title=" ">
<polygon fill="white" stroke="black" points="1091.5,-67.5 1091.5,-97.5 1234.5,-97.5 1234.5,-67.5 1091.5,-67.5"/>
<text text-anchor="start" x="1099.5" y="-85.5" font-family="Helvetica,sans-Serif" font-size="10.00">Storm/Thermostat/SimHouse</text>
<text text-anchor="middle" x="1163" y="-74.5" font-family="Helvetica,sans-Serif" font-size="10.00">/Cmd.h</text>
</a>
</g>
</g>
<!-- Node57&#45;&gt;Node68 -->
<g id="edge34" class="edge"><title>Node57&#45;&gt;Node68</title>
<path fill="none" stroke="midnightblue" d="M816.158,-133.676C886.384,-125.246 991.133,-112.034 1082,-98 1085.11,-97.5203 1088.28,-97.0159 1091.48,-96.4947"/>
<polygon fill="midnightblue" stroke="midnightblue" points="815.567,-130.222 806.054,-134.885 816.398,-137.173 815.567,-130.222"/>
</g>
<!-- Node73&#45;&gt;Node57 -->
<g id="edge36" class="edge"><title>Node73&#45;&gt;Node57</title>
<path fill="none" stroke="midnightblue" d="M916.296,-193.322C873.172,-181.764 806.791,-163.973 767.748,-153.509"/>
<polygon fill="midnightblue" stroke="midnightblue" points="915.628,-196.767 926.193,-195.975 917.44,-190.006 915.628,-196.767"/>
</g>
<!-- Node77&#45;&gt;Node8 -->
<g id="edge39" class="edge"><title>Node77&#45;&gt;Node8</title>
<path fill="none" stroke="midnightblue" d="M3466.35,-258.239C3286.51,-236.652 2781.33,-176.01 2594.04,-153.527"/>
<polygon fill="midnightblue" stroke="midnightblue" points="3466.1,-261.735 3476.45,-259.452 3466.94,-254.785 3466.1,-261.735"/>
</g>
<!-- Node78 -->
<g id="node39" class="node"><title>Node78</title>
<g id="a_node39"><a xlink:href="_dm_2_persistent_2_record_8h.html" target="_top" xlink:title=" ">
<polygon fill="white" stroke="black" points="3708,-73 3708,-92 3846,-92 3846,-73 3708,-73"/>
<text text-anchor="middle" x="3777" y="-80" font-family="Helvetica,sans-Serif" font-size="10.00">Cpl/Dm/Persistent/Record.h</text>
</a>
</g>
</g>
<!-- Node77&#45;&gt;Node78 -->
<g id="edge40" class="edge"><title>Node77&#45;&gt;Node78</title>
<path fill="none" stroke="midnightblue" d="M3595.94,-259.192C3648.73,-252.369 3717.67,-240.104 3738,-221 3775.79,-185.49 3777.87,-116.315 3777.36,-92.1114"/>
<polygon fill="midnightblue" stroke="midnightblue" points="3595.44,-255.728 3585.95,-260.444 3596.31,-262.673 3595.44,-255.728"/>
</g>
<!-- Node79 -->
<g id="node43" class="node"><title>Node79</title>
<g id="a_node43"><a xlink:href="_rmw_composer_8h.html" target="_top" xlink:title=" ">
<polygon fill="white" stroke="black" points="3603,-196 3603,-215 3729,-215 3729,-196 3603,-196"/>
<text text-anchor="middle" x="3666" y="-203" font-family="Helvetica,sans-Serif" font-size="10.00">Cpl/Dm/RmwComposer.h</text>
</a>
</g>
</g>
<!-- Node77&#45;&gt;Node79 -->
<g id="edge44" class="edge"><title>Node77&#45;&gt;Node79</title>
<path fill="none" stroke="midnightblue" d="M3559.75,-253.327C3585.96,-241.776 3623.95,-225.032 3646.69,-215.009"/>
<polygon fill="midnightblue" stroke="midnightblue" points="3558.08,-250.239 3550.34,-257.475 3560.9,-256.645 3558.08,-250.239"/>
</g>
<!-- Node80 -->
<g id="node44" class="node"><title>Node80</title>
<g id="a_node44"><a xlink:href="_subscriber_8h.html" target="_top" xlink:title=" ">
<polygon fill="white" stroke="black" points="3477.5,-196 3477.5,-215 3584.5,-215 3584.5,-196 3477.5,-196"/>
<text text-anchor="middle" x="3531" y="-203" font-family="Helvetica,sans-Serif" font-size="10.00">Cpl/Dm/Subscriber.h</text>
</a>
</g>
</g>
<!-- Node77&#45;&gt;Node80 -->
<g id="edge45" class="edge"><title>Node77&#45;&gt;Node80</title>
<path fill="none" stroke="midnightblue" d="M3531,-247.317C3531,-236.496 3531,-223.398 3531,-215.009"/>
<polygon fill="midnightblue" stroke="midnightblue" points="3527.5,-247.475 3531,-257.475 3534.5,-247.475 3527.5,-247.475"/>
</g>
<!-- Node27 -->
<g id="node40" class="node"><title>Node27</title>
<g id="a_node40"><a xlink:href="_installer_record_8h_source.html" target="_top" xlink:title=" ">
<polygon fill="white" stroke="black" points="3940.5,-0.5 3940.5,-30.5 4059.5,-30.5 4059.5,-0.5 3940.5,-0.5"/>
<text text-anchor="start" x="3948.5" y="-18.5" font-family="Helvetica,sans-Serif" font-size="10.00">Storm/Thermostat/Main</text>
<text text-anchor="middle" x="4000" y="-7.5" font-family="Helvetica,sans-Serif" font-size="10.00">/InstallerRecord.h</text>
</a>
</g>
</g>
<!-- Node78&#45;&gt;Node27 -->
<g id="edge41" class="edge"><title>Node78&#45;&gt;Node27</title>
<path fill="none" stroke="midnightblue" d="M3816.26,-70.0575C3854.07,-59.0371 3911.33,-42.3441 3951.87,-30.5281"/>
<polygon fill="midnightblue" stroke="midnightblue" points="3815.23,-66.7099 3806.61,-72.8685 3817.19,-73.4303 3815.23,-66.7099"/>
</g>
<!-- Node28 -->
<g id="node41" class="node"><title>Node28</title>
<g id="a_node41"><a xlink:href="_run_time_record_8h_source.html" target="_top" xlink:title=" ">
<polygon fill="white" stroke="black" points="3666.5,-0.5 3666.5,-30.5 3785.5,-30.5 3785.5,-0.5 3666.5,-0.5"/>
<text text-anchor="start" x="3674.5" y="-18.5" font-family="Helvetica,sans-Serif" font-size="10.00">Storm/Thermostat/Main</text>
<text text-anchor="middle" x="3726" y="-7.5" font-family="Helvetica,sans-Serif" font-size="10.00">/RunTimeRecord.h</text>
</a>
</g>
</g>
<!-- Node78&#45;&gt;Node28 -->
<g id="edge42" class="edge"><title>Node78&#45;&gt;Node28</title>
<path fill="none" stroke="midnightblue" d="M3763.8,-64.6729C3755.5,-54.0939 3744.91,-40.6019 3737.05,-30.589"/>
<polygon fill="midnightblue" stroke="midnightblue" points="3761.2,-67.0269 3770.12,-72.7338 3766.7,-62.7059 3761.2,-67.0269"/>
</g>
<!-- Node29 -->
<g id="node42" class="node"><title>Node29</title>
<g id="a_node42"><a xlink:href="_user_record_8h_source.html" target="_top" xlink:title=" ">
<polygon fill="white" stroke="black" points="3803.5,-0.5 3803.5,-30.5 3922.5,-30.5 3922.5,-0.5 3803.5,-0.5"/>
<text text-anchor="start" x="3811.5" y="-18.5" font-family="Helvetica,sans-Serif" font-size="10.00">Storm/Thermostat/Main</text>
<text text-anchor="middle" x="3863" y="-7.5" font-family="Helvetica,sans-Serif" font-size="10.00">/UserRecord.h</text>
</a>
</g>
</g>
<!-- Node78&#45;&gt;Node29 -->
<g id="edge43" class="edge"><title>Node78&#45;&gt;Node29</title>
<path fill="none" stroke="midnightblue" d="M3796.79,-66.5443C3811.1,-55.7254 3830.32,-41.2026 3844.36,-30.589"/>
<polygon fill="midnightblue" stroke="midnightblue" points="3794.47,-63.9119 3788.6,-72.7338 3798.69,-69.4963 3794.47,-63.9119"/>
</g>
<!-- Node80&#45;&gt;Node8 -->
<g id="edge46" class="edge"><title>Node80&#45;&gt;Node8</title>
<path fill="none" stroke="midnightblue" d="M3466.94,-200.719C3289.43,-190.241 2791.72,-160.862 2599.81,-149.534"/>
<polygon fill="midnightblue" stroke="midnightblue" points="3466.97,-204.227 3477.16,-201.322 3467.39,-197.239 3466.97,-204.227"/>
</g>
<!-- Node80&#45;&gt;Node43 -->
<g id="edge49" class="edge"><title>Node80&#45;&gt;Node43</title>
<path fill="none" stroke="midnightblue" d="M3533.62,-185.54C3536.5,-156.975 3537.76,-102.477 3512,-67 3496.14,-45.155 3468.24,-32.3245 3445.32,-25.0663"/>
<polygon fill="midnightblue" stroke="midnightblue" points="3530.11,-185.408 3532.4,-195.752 3537.06,-186.237 3530.11,-185.408"/>
</g>
<!-- Node80&#45;&gt;Node44 -->
<g id="edge50" class="edge"><title>Node80&#45;&gt;Node44</title>
<path fill="none" stroke="midnightblue" d="M3536.48,-186.391C3539.26,-176.817 3542.56,-164.834 3545,-154 3555.87,-105.775 3564.65,-47.0947 3567.78,-25.2456"/>
<polygon fill="midnightblue" stroke="midnightblue" points="3533.12,-185.404 3533.63,-195.986 3539.83,-187.395 3533.12,-185.404"/>
</g>
<!-- Node81 -->
<g id="node45" class="node"><title>Node81</title>
<g id="a_node45"><a xlink:href="_subscriber_composer_8h.html" target="_top" xlink:title=" ">
<polygon fill="white" stroke="black" points="3597.5,-134.5 3597.5,-153.5 3748.5,-153.5 3748.5,-134.5 3597.5,-134.5"/>
<text text-anchor="middle" x="3673" y="-141.5" font-family="Helvetica,sans-Serif" font-size="10.00">Cpl/Dm/SubscriberComposer.h</text>
</a>
</g>
</g>
<!-- Node80&#45;&gt;Node81 -->
<g id="edge47" class="edge"><title>Node80&#45;&gt;Node81</title>
<path fill="none" stroke="midnightblue" d="M3560.88,-191.98C3588.46,-180.424 3628.67,-163.576 3652.69,-153.509"/>
<polygon fill="midnightblue" stroke="midnightblue" points="3559.22,-188.882 3551.35,-195.975 3561.92,-195.339 3559.22,-188.882"/>
</g>
<!-- Node81&#45;&gt;Node78 -->
<g id="edge48" class="edge"><title>Node81&#45;&gt;Node78</title>
<path fill="none" stroke="midnightblue" d="M3696.77,-129.401C3716.88,-117.896 3745.07,-101.767 3762.13,-92.0091"/>
<polygon fill="midnightblue" stroke="midnightblue" points="3694.84,-126.471 3687.9,-134.475 3698.32,-132.547 3694.84,-126.471"/>
</g>
<!-- Node83 -->
<g id="node47" class="node"><title>Node83</title>
<g id="a_node47"><a xlink:href="_d_f_string_item_8h.html" target="_top" xlink:title=" ">
<polygon fill="white" stroke="black" points="1125,-257.5 1125,-276.5 1247,-276.5 1247,-257.5 1125,-257.5"/>
<text text-anchor="middle" x="1186" y="-264.5" font-family="Helvetica,sans-Serif" font-size="10.00">Cpl/Text/DFStringItem.h</text>
</a>
</g>
</g>
<!-- Node82&#45;&gt;Node83 -->
<g id="edge52" class="edge"><title>Node82&#45;&gt;Node83</title>
<path fill="none" stroke="midnightblue" d="M1108.58,-308.59C1127.62,-298.605 1153.06,-285.267 1169.49,-276.655"/>
<polygon fill="midnightblue" stroke="midnightblue" points="1106.78,-305.581 1099.55,-313.324 1110.03,-311.78 1106.78,-305.581"/>
</g>
<!-- Node84 -->
<g id="node48" class="node"><title>Node84</title>
<g id="a_node48"><a xlink:href="_d_string_item_8h.html" target="_top" xlink:title=" ">
<polygon fill="white" stroke="black" points="857,-257.5 857,-276.5 973,-276.5 973,-257.5 857,-257.5"/>
<text text-anchor="middle" x="915" y="-264.5" font-family="Helvetica,sans-Serif" font-size="10.00">Cpl/Text/DStringItem.h</text>
</a>
</g>
</g>
<!-- Node82&#45;&gt;Node84 -->
<g id="edge53" class="edge"><title>Node82&#45;&gt;Node84</title>
<path fill="none" stroke="midnightblue" d="M1046.61,-310.304C1014.96,-300.129 969.832,-285.625 941.496,-276.516"/>
<polygon fill="midnightblue" stroke="midnightblue" points="1045.79,-313.715 1056.38,-313.444 1047.93,-307.051 1045.79,-313.715"/>
</g>
<!-- Node85 -->
<g id="node49" class="node"><title>Node85</title>
<g id="a_node49"><a xlink:href="_f_string_item_8h.html" target="_top" xlink:title=" ">
<polygon fill="white" stroke="black" points="991,-257.5 991,-276.5 1107,-276.5 1107,-257.5 991,-257.5"/>
<text text-anchor="middle" x="1049" y="-264.5" font-family="Helvetica,sans-Serif" font-size="10.00">Cpl/Text/FStringItem.h</text>
</a>
</g>
</g>
<!-- Node82&#45;&gt;Node85 -->
<g id="edge54" class="edge"><title>Node82&#45;&gt;Node85</title>
<path fill="none" stroke="midnightblue" d="M1072.02,-304.566C1066.17,-295.275 1059.23,-284.248 1054.51,-276.751"/>
<polygon fill="midnightblue" stroke="midnightblue" points="1069.1,-306.486 1077.39,-313.083 1075.02,-302.756 1069.1,-306.486"/>
</g>
<!-- Node86&#45;&gt;Node57 -->
<g id="edge56" class="edge"><title>Node86&#45;&gt;Node57</title>
<path fill="none" stroke="midnightblue" d="M769.037,-248.784C764.203,-240.611 758.774,-230.56 755,-221 745.71,-197.471 739.89,-168.012 737.401,-153.662"/>
<polygon fill="midnightblue" stroke="midnightblue" points="766.093,-250.678 774.305,-257.373 772.06,-247.019 766.093,-250.678"/>
</g>
<!-- Node86&#45;&gt;Node73 -->
<g id="edge57" class="edge"><title>Node86&#45;&gt;Node73</title>
<path fill="none" stroke="midnightblue" d="M815.205,-254.232C849.806,-242.666 901.768,-225.297 932.544,-215.009"/>
<polygon fill="midnightblue" stroke="midnightblue" points="813.878,-250.985 805.503,-257.475 816.097,-257.624 813.878,-250.985"/>
</g>
<!-- Node86&#45;&gt;Node76 -->
<g id="edge58" class="edge"><title>Node86&#45;&gt;Node76</title>
<path fill="none" stroke="midnightblue" d="M792.389,-249.247C799.089,-240.187 807.27,-229.124 813.63,-220.523"/>
<polygon fill="midnightblue" stroke="midnightblue" points="789.436,-247.354 786.304,-257.475 795.064,-251.516 789.436,-247.354"/>
</g>
</g>
</svg>
