<?xml version="1.0" encoding="UTF-8" standalone="no"?>
<!DOCTYPE svg PUBLIC "-//W3C//DTD SVG 1.1//EN"
 "http://www.w3.org/Graphics/SVG/1.1/DTD/svg11.dtd">
<!-- Generated by graphviz version 2.38.0 (20140413.2041)
 -->
<!-- Title: Cpl/Container/DictItem.h Pages: 1 -->
<svg width="2330pt" height="453pt"
 viewBox="0.00 0.00 2329.79 453.00" xmlns="http://www.w3.org/2000/svg" xmlns:xlink="http://www.w3.org/1999/xlink">
<g id="graph0" class="graph" transform="scale(1 1) rotate(0) translate(4 449)">
<title>Cpl/Container/DictItem.h</title>
<polygon fill="white" stroke="none" points="-4,4 -4,-449 2325.79,-449 2325.79,4 -4,4"/>
<!-- Node1 -->
<g id="node1" class="node"><title>Node1</title>
<g id="a_node1"><a xlink:title=" ">
<polygon fill="#bfbfbf" stroke="black" points="699.292,-425.5 699.292,-444.5 822.292,-444.5 822.292,-425.5 699.292,-425.5"/>
<text text-anchor="middle" x="760.792" y="-432.5" font-family="Helvetica,sans-Serif" font-size="10.00">Cpl/Container/DictItem.h</text>
</a>
</g>
</g>
<!-- Node2 -->
<g id="node2" class="node"><title>Node2</title>
<g id="a_node2"><a xlink:href="_hash_table___8h.html" target="_top" xlink:title=" ">
<polygon fill="white" stroke="black" points="601.792,-369.5 601.792,-388.5 739.792,-388.5 739.792,-369.5 601.792,-369.5"/>
<text text-anchor="middle" x="670.792" y="-376.5" font-family="Helvetica,sans-Serif" font-size="10.00">Cpl/Container/HashTable_.h</text>
</a>
</g>
</g>
<!-- Node1&#45;&gt;Node2 -->
<g id="edge1" class="edge"><title>Node1&#45;&gt;Node2</title>
<path fill="none" stroke="midnightblue" d="M737.754,-420.177C721.193,-410.241 699.374,-397.149 685.216,-388.655"/>
<polygon fill="midnightblue" stroke="midnightblue" points="735.956,-423.18 746.332,-425.324 739.557,-417.178 735.956,-423.18"/>
</g>
<!-- Node4 -->
<g id="node4" class="node"><title>Node4</title>
<g id="a_node4"><a xlink:href="_map_item_8h.html" target="_top" xlink:title=" ">
<polygon fill="white" stroke="black" points="789.292,-369.5 789.292,-388.5 914.292,-388.5 914.292,-369.5 789.292,-369.5"/>
<text text-anchor="middle" x="851.792" y="-376.5" font-family="Helvetica,sans-Serif" font-size="10.00">Cpl/Container/MapItem.h</text>
</a>
</g>
</g>
<!-- Node1&#45;&gt;Node4 -->
<g id="edge3" class="edge"><title>Node1&#45;&gt;Node4</title>
<path fill="none" stroke="midnightblue" d="M784.085,-420.177C800.831,-410.241 822.892,-397.149 837.207,-388.655"/>
<polygon fill="midnightblue" stroke="midnightblue" points="782.226,-417.211 775.412,-425.324 785.798,-423.231 782.226,-417.211"/>
</g>
<!-- Node3 -->
<g id="node3" class="node"><title>Node3</title>
<g id="a_node3"><a xlink:href="_dictionary_8h.html" target="_top" xlink:title=" ">
<polygon fill="white" stroke="black" points="543.792,-313.5 543.792,-332.5 673.792,-332.5 673.792,-313.5 543.792,-313.5"/>
<text text-anchor="middle" x="608.792" y="-320.5" font-family="Helvetica,sans-Serif" font-size="10.00">Cpl/Container/Dictionary.h</text>
</a>
</g>
</g>
<!-- Node2&#45;&gt;Node3 -->
<g id="edge2" class="edge"><title>Node2&#45;&gt;Node3</title>
<path fill="none" stroke="midnightblue" d="M653.038,-362.537C641.983,-352.909 628.16,-340.869 618.934,-332.834"/>
<polygon fill="midnightblue" stroke="midnightblue" points="650.991,-365.395 660.83,-369.324 655.588,-360.117 650.991,-365.395"/>
</g>
<!-- Node5 -->
<g id="node5" class="node"><title>Node5</title>
<g id="a_node5"><a xlink:href="_avl_tree___8h.html" target="_top" xlink:title=" ">
<polygon fill="white" stroke="black" points="820.292,-313.5 820.292,-332.5 945.292,-332.5 945.292,-313.5 820.292,-313.5"/>
<text text-anchor="middle" x="882.792" y="-320.5" font-family="Helvetica,sans-Serif" font-size="10.00">Cpl/Container/AvlTree_.h</text>
</a>
</g>
</g>
<!-- Node4&#45;&gt;Node5 -->
<g id="edge4" class="edge"><title>Node4&#45;&gt;Node5</title>
<path fill="none" stroke="midnightblue" d="M861.967,-360.275C867.266,-351.045 873.509,-340.17 877.768,-332.751"/>
<polygon fill="midnightblue" stroke="midnightblue" points="858.854,-358.668 856.911,-369.083 864.925,-362.153 858.854,-358.668"/>
</g>
<!-- Node32 -->
<g id="node32" class="node"><title>Node32</title>
<g id="a_node32"><a xlink:href="_command_8h.html" target="_top" xlink:title=" ">
<polygon fill="white" stroke="black" points="955.292,-257.5 955.292,-276.5 1072.29,-276.5 1072.29,-257.5 955.292,-257.5"/>
<text text-anchor="middle" x="1013.79" y="-264.5" font-family="Helvetica,sans-Serif" font-size="10.00">Cpl/TShell/Command.h</text>
</a>
</g>
</g>
<!-- Node4&#45;&gt;Node32 -->
<g id="edge34" class="edge"><title>Node4&#45;&gt;Node32</title>
<path fill="none" stroke="midnightblue" d="M889.308,-365.972C909.77,-358.374 934.905,-347.282 954.792,-333 977.568,-316.642 998.083,-290.22 1007.82,-276.651"/>
<polygon fill="midnightblue" stroke="midnightblue" points="887.916,-362.753 879.682,-369.42 890.277,-369.343 887.916,-362.753"/>
</g>
<!-- Node33 -->
<g id="node33" class="node"><title>Node33</title>
<g id="a_node33"><a xlink:href="_string_item_8h.html" target="_top" xlink:title=" ">
<polygon fill="white" stroke="black" points="691.792,-313.5 691.792,-332.5 801.792,-332.5 801.792,-313.5 691.792,-313.5"/>
<text text-anchor="middle" x="746.792" y="-320.5" font-family="Helvetica,sans-Serif" font-size="10.00">Cpl/Text/StringItem.h</text>
</a>
</g>
</g>
<!-- Node4&#45;&gt;Node33 -->
<g id="edge38" class="edge"><title>Node4&#45;&gt;Node33</title>
<path fill="none" stroke="midnightblue" d="M825.981,-364.726C806.539,-354.727 780.443,-341.307 763.62,-332.655"/>
<polygon fill="midnightblue" stroke="midnightblue" points="824.428,-367.863 834.922,-369.324 827.629,-361.638 824.428,-367.863"/>
</g>
<!-- Node6 -->
<g id="node6" class="node"><title>Node6</title>
<g id="a_node6"><a xlink:href="_map_8h.html" target="_top" xlink:title=" ">
<polygon fill="white" stroke="black" points="830.292,-257.5 830.292,-276.5 935.292,-276.5 935.292,-257.5 830.292,-257.5"/>
<text text-anchor="middle" x="882.792" y="-264.5" font-family="Helvetica,sans-Serif" font-size="10.00">Cpl/Container/Map.h</text>
</a>
</g>
</g>
<!-- Node5&#45;&gt;Node6 -->
<g id="edge5" class="edge"><title>Node5&#45;&gt;Node6</title>
<path fill="none" stroke="midnightblue" d="M882.792,-302.805C882.792,-293.91 882.792,-283.78 882.792,-276.751"/>
<polygon fill="midnightblue" stroke="midnightblue" points="879.292,-303.083 882.792,-313.083 886.292,-303.083 879.292,-303.083"/>
</g>
<!-- Node7 -->
<g id="node7" class="node"><title>Node7</title>
<g id="a_node7"><a xlink:href="_cmd_2_command_8h.html" target="_top" xlink:title=" ">
<polygon fill="white" stroke="black" points="945.792,-134.5 945.792,-153.5 1085.79,-153.5 1085.79,-134.5 945.792,-134.5"/>
<text text-anchor="middle" x="1015.79" y="-141.5" font-family="Helvetica,sans-Serif" font-size="10.00">Cpl/TShell/Cmd/Command.h</text>
</a>
</g>
</g>
<!-- Node6&#45;&gt;Node7 -->
<g id="edge6" class="edge"><title>Node6&#45;&gt;Node7</title>
<path fill="none" stroke="midnightblue" d="M849.732,-253.008C836.026,-245.781 821.54,-235.304 813.792,-221 807.229,-208.885 805.173,-200.75 813.792,-190 830.254,-169.466 894.027,-157.697 945.571,-151.386"/>
<polygon fill="midnightblue" stroke="midnightblue" points="848.478,-256.29 859.003,-257.499 851.529,-249.99 848.478,-256.29"/>
</g>
<!-- Node26 -->
<g id="node26" class="node"><title>Node26</title>
<g id="a_node26"><a xlink:href="_context___8h.html" target="_top" xlink:title=" ">
<polygon fill="white" stroke="black" points="959.792,-196 959.792,-215 1071.79,-215 1071.79,-196 959.792,-196"/>
<text text-anchor="middle" x="1015.79" y="-203" font-family="Helvetica,sans-Serif" font-size="10.00">Cpl/TShell/Context_.h</text>
</a>
</g>
</g>
<!-- Node6&#45;&gt;Node26 -->
<g id="edge26" class="edge"><title>Node6&#45;&gt;Node26</title>
<path fill="none" stroke="midnightblue" d="M911.119,-253.327C936.939,-241.776 974.368,-225.032 996.771,-215.009"/>
<polygon fill="midnightblue" stroke="midnightblue" points="909.546,-250.197 901.847,-257.475 912.405,-256.586 909.546,-250.197"/>
</g>
<!-- Node31 -->
<g id="node31" class="node"><title>Node31</title>
<g id="a_node31"><a xlink:href="_main_8h.html" target="_top" xlink:title="This file defines the hardware/platform independent start&#45;up interface(s) for the Storm::Thermostat a...">
<polygon fill="white" stroke="black" points="822.292,-190.5 822.292,-220.5 941.292,-220.5 941.292,-190.5 822.292,-190.5"/>
<text text-anchor="start" x="830.292" y="-208.5" font-family="Helvetica,sans-Serif" font-size="10.00">Storm/Thermostat/Main</text>
<text text-anchor="middle" x="881.792" y="-197.5" font-family="Helvetica,sans-Serif" font-size="10.00">/Main.h</text>
</a>
</g>
</g>
<!-- Node6&#45;&gt;Node31 -->
<g id="edge32" class="edge"><title>Node6&#45;&gt;Node31</title>
<path fill="none" stroke="midnightblue" d="M882.476,-247.235C882.331,-238.586 882.161,-228.497 882.027,-220.523"/>
<polygon fill="midnightblue" stroke="midnightblue" points="878.981,-247.535 882.648,-257.475 885.98,-247.418 878.981,-247.535"/>
</g>
<!-- Node8 -->
<g id="node8" class="node"><title>Node8</title>
<g id="a_node8"><a xlink:href="_dm_8h.html" target="_top" xlink:title=" ">
<polygon fill="white" stroke="black" points="1515.79,-73 1515.79,-92 1621.79,-92 1621.79,-73 1515.79,-73"/>
<text text-anchor="middle" x="1568.79" y="-80" font-family="Helvetica,sans-Serif" font-size="10.00">Cpl/Dm/TShell/Dm.h</text>
</a>
</g>
</g>
<!-- Node7&#45;&gt;Node8 -->
<g id="edge7" class="edge"><title>Node7&#45;&gt;Node8</title>
<path fill="none" stroke="midnightblue" d="M1096.19,-139.052C1193.79,-133.473 1363.16,-121.264 1506.79,-98 1516.39,-96.4447 1526.72,-94.2453 1536.14,-92.0284"/>
<polygon fill="midnightblue" stroke="midnightblue" points="1095.89,-135.563 1086.1,-139.62 1096.28,-142.552 1095.89,-135.563"/>
</g>
<!-- Node9 -->
<g id="node9" class="node"><title>Node9</title>
<g id="a_node9"><a xlink:href="_dbg_8h.html" target="_top" xlink:title=" ">
<polygon fill="white" stroke="black" points="1640.29,-67.5 1640.29,-97.5 1761.29,-97.5 1761.29,-67.5 1640.29,-67.5"/>
<text text-anchor="start" x="1648.29" y="-85.5" font-family="Helvetica,sans-Serif" font-size="10.00">Cpl/TShell/Cmd/Arduino</text>
<text text-anchor="middle" x="1700.79" y="-74.5" font-family="Helvetica,sans-Serif" font-size="10.00">/Dbg.h</text>
</a>
</g>
</g>
<!-- Node7&#45;&gt;Node9 -->
<g id="edge8" class="edge"><title>Node7&#45;&gt;Node9</title>
<path fill="none" stroke="midnightblue" d="M1096.23,-140.481C1214.03,-136.03 1440.19,-124.597 1630.79,-98 1633.86,-97.5712 1637,-97.0879 1640.17,-96.5647"/>
<polygon fill="midnightblue" stroke="midnightblue" points="1096.07,-136.984 1086.2,-140.852 1096.33,-143.979 1096.07,-136.984"/>
</g>
<!-- Node10 -->
<g id="node10" class="node"><title>Node10</title>
<g id="a_node10"><a xlink:href="_bye_8h.html" target="_top" xlink:title=" ">
<polygon fill="white" stroke="black" points="1779.29,-73 1779.29,-92 1892.29,-92 1892.29,-73 1779.29,-73"/>
<text text-anchor="middle" x="1835.79" y="-80" font-family="Helvetica,sans-Serif" font-size="10.00">Cpl/TShell/Cmd/Bye.h</text>
</a>
</g>
</g>
<!-- Node7&#45;&gt;Node10 -->
<g id="edge9" class="edge"><title>Node7&#45;&gt;Node10</title>
<path fill="none" stroke="midnightblue" d="M1096,-142.422C1234.37,-140.488 1526.59,-132.291 1770.79,-98 1781.1,-96.553 1792.19,-94.3313 1802.24,-92.0584"/>
<polygon fill="midnightblue" stroke="midnightblue" points="1095.86,-138.923 1085.9,-142.555 1095.95,-145.922 1095.86,-138.923"/>
</g>
<!-- Node11 -->
<g id="node11" class="node"><title>Node11</title>
<g id="a_node11"><a xlink:href="_help_8h.html" target="_top" xlink:title=" ">
<polygon fill="white" stroke="black" points="21.7916,-73 21.7916,-92 137.792,-92 137.792,-73 21.7916,-73"/>
<text text-anchor="middle" x="79.7916" y="-80" font-family="Helvetica,sans-Serif" font-size="10.00">Cpl/TShell/Cmd/Help.h</text>
</a>
</g>
</g>
<!-- Node7&#45;&gt;Node11 -->
<g id="edge10" class="edge"><title>Node7&#45;&gt;Node11</title>
<path fill="none" stroke="midnightblue" d="M935.303,-143.156C781.43,-142.5 435.168,-136.416 146.792,-98 136.056,-96.5699 124.487,-94.3243 114.033,-92.0237"/>
<polygon fill="midnightblue" stroke="midnightblue" points="935.59,-146.657 945.602,-143.193 935.615,-139.657 935.59,-146.657"/>
</g>
<!-- Node12 -->
<g id="node12" class="node"><title>Node12</title>
<g id="a_node12"><a xlink:href="_t_print_8h.html" target="_top" xlink:title=" ">
<polygon fill="white" stroke="black" points="155.792,-73 155.792,-92 277.792,-92 277.792,-73 155.792,-73"/>
<text text-anchor="middle" x="216.792" y="-80" font-family="Helvetica,sans-Serif" font-size="10.00">Cpl/TShell/Cmd/TPrint.h</text>
</a>
</g>
</g>
<!-- Node7&#45;&gt;Node12 -->
<g id="edge11" class="edge"><title>Node7&#45;&gt;Node12</title>
<path fill="none" stroke="midnightblue" d="M935.374,-141.778C800.652,-138.894 521.06,-129.331 286.792,-98 275.721,-96.5193 263.782,-94.2876 252.954,-92.0159"/>
<polygon fill="midnightblue" stroke="midnightblue" points="935.535,-145.282 945.605,-141.99 935.68,-138.283 935.535,-145.282"/>
</g>
<!-- Node13 -->
<g id="node13" class="node"><title>Node13</title>
<g id="a_node13"><a xlink:href="_threads_8h.html" target="_top" xlink:title=" ">
<polygon fill="white" stroke="black" points="1910.29,-73 1910.29,-92 2041.29,-92 2041.29,-73 1910.29,-73"/>
<text text-anchor="middle" x="1975.79" y="-80" font-family="Helvetica,sans-Serif" font-size="10.00">Cpl/TShell/Cmd/Threads.h</text>
</a>
</g>
</g>
<!-- Node7&#45;&gt;Node13 -->
<g id="edge12" class="edge"><title>Node7&#45;&gt;Node13</title>
<path fill="none" stroke="midnightblue" d="M1096.3,-142.748C1252.31,-141.413 1606.47,-134.246 1901.79,-98 1913.49,-96.5647 1926.1,-94.3465 1937.55,-92.0732"/>
<polygon fill="midnightblue" stroke="midnightblue" points="1095.83,-139.252 1085.86,-142.831 1095.89,-146.252 1095.83,-139.252"/>
</g>
<!-- Node16 -->
<g id="node16" class="node"><title>Node16</title>
<g id="a_node16"><a xlink:href="_tick_8h.html" target="_top" xlink:title=" ">
<polygon fill="white" stroke="black" points="296.292,-73 296.292,-92 411.292,-92 411.292,-73 296.292,-73"/>
<text text-anchor="middle" x="353.792" y="-80" font-family="Helvetica,sans-Serif" font-size="10.00">Cpl/TShell/Cmd/Tick.h</text>
</a>
</g>
</g>
<!-- Node7&#45;&gt;Node16 -->
<g id="edge15" class="edge"><title>Node7&#45;&gt;Node16</title>
<path fill="none" stroke="midnightblue" d="M935.594,-140.532C820.778,-136.186 603.162,-124.928 419.792,-98 409.461,-96.483 398.337,-94.2682 388.219,-92.0242"/>
<polygon fill="midnightblue" stroke="midnightblue" points="935.582,-144.034 945.705,-140.907 935.841,-137.039 935.582,-144.034"/>
</g>
<!-- Node17 -->
<g id="node17" class="node"><title>Node17</title>
<g id="a_node17"><a xlink:href="_t_shell_2_cmd_2_trace_8h.html" target="_top" xlink:title=" ">
<polygon fill="white" stroke="black" points="429.292,-73 429.292,-92 550.292,-92 550.292,-73 429.292,-73"/>
<text text-anchor="middle" x="489.792" y="-80" font-family="Helvetica,sans-Serif" font-size="10.00">Cpl/TShell/Cmd/Trace.h</text>
</a>
</g>
</g>
<!-- Node7&#45;&gt;Node17 -->
<g id="edge16" class="edge"><title>Node7&#45;&gt;Node17</title>
<path fill="none" stroke="midnightblue" d="M935.583,-137.667C844.253,-130.997 690.737,-117.966 559.792,-98 549.24,-96.3912 537.878,-94.2269 527.441,-92.0619"/>
<polygon fill="midnightblue" stroke="midnightblue" points="935.361,-141.16 945.587,-138.39 935.866,-134.178 935.361,-141.16"/>
</g>
<!-- Node18 -->
<g id="node18" class="node"><title>Node18</title>
<g id="a_node18"><a xlink:href="_cpl_2_t_shell_2_cmd_2_user_8h.html" target="_top" xlink:title=" ">
<polygon fill="white" stroke="black" points="568.792,-73 568.792,-92 684.792,-92 684.792,-73 568.792,-73"/>
<text text-anchor="middle" x="626.792" y="-80" font-family="Helvetica,sans-Serif" font-size="10.00">Cpl/TShell/Cmd/User.h</text>
</a>
</g>
</g>
<!-- Node7&#45;&gt;Node18 -->
<g id="edge17" class="edge"><title>Node7&#45;&gt;Node18</title>
<path fill="none" stroke="midnightblue" d="M935.294,-133.435C870,-125.272 775.689,-112.564 693.792,-98 684.066,-96.2705 673.604,-94.1383 663.906,-92.0463"/>
<polygon fill="midnightblue" stroke="midnightblue" points="935.163,-136.946 945.518,-134.706 936.026,-129.999 935.163,-136.946"/>
</g>
<!-- Node19 -->
<g id="node19" class="node"><title>Node19</title>
<g id="a_node19"><a xlink:href="_state_8h.html" target="_top" xlink:title=" ">
<polygon fill="white" stroke="black" points="702.792,-73 702.792,-92 810.792,-92 810.792,-73 702.792,-73"/>
<text text-anchor="middle" x="756.792" y="-80" font-family="Helvetica,sans-Serif" font-size="10.00">Storm/TShell/State.h</text>
</a>
</g>
</g>
<!-- Node7&#45;&gt;Node19 -->
<g id="edge18" class="edge"><title>Node7&#45;&gt;Node19</title>
<path fill="none" stroke="midnightblue" d="M968.72,-132.186C918.463,-120.641 839.861,-102.584 793.831,-92.0091"/>
<polygon fill="midnightblue" stroke="midnightblue" points="968.153,-135.647 978.683,-134.475 969.721,-128.825 968.153,-135.647"/>
</g>
<!-- Node20 -->
<g id="node20" class="node"><title>Node20</title>
<g id="a_node20"><a xlink:href="_storm_2_t_shell_2_user_8h.html" target="_top" xlink:title=" ">
<polygon fill="white" stroke="black" points="829.292,-73 829.292,-92 934.292,-92 934.292,-73 829.292,-73"/>
<text text-anchor="middle" x="881.792" y="-80" font-family="Helvetica,sans-Serif" font-size="10.00">Storm/TShell/User.h</text>
</a>
</g>
</g>
<!-- Node7&#45;&gt;Node20 -->
<g id="edge19" class="edge"><title>Node7&#45;&gt;Node20</title>
<path fill="none" stroke="midnightblue" d="M987.251,-130.327C961.237,-118.776 923.527,-102.032 900.955,-92.0091"/>
<polygon fill="midnightblue" stroke="midnightblue" points="986.033,-133.616 996.593,-134.475 988.874,-127.218 986.033,-133.616"/>
</g>
<!-- Node21 -->
<g id="node21" class="node"><title>Node21</title>
<g id="a_node21"><a xlink:href="_t_shell_2_white_box_8h.html" target="_top" xlink:title=" ">
<polygon fill="white" stroke="black" points="952.292,-73 952.292,-92 1079.29,-92 1079.29,-73 952.292,-73"/>
<text text-anchor="middle" x="1015.79" y="-80" font-family="Helvetica,sans-Serif" font-size="10.00">Storm/TShell/WhiteBox.h</text>
</a>
</g>
</g>
<!-- Node7&#45;&gt;Node21 -->
<g id="edge20" class="edge"><title>Node7&#45;&gt;Node21</title>
<path fill="none" stroke="midnightblue" d="M1015.79,-124.317C1015.79,-113.496 1015.79,-100.398 1015.79,-92.0091"/>
<polygon fill="midnightblue" stroke="midnightblue" points="1012.29,-124.475 1015.79,-134.475 1019.29,-124.475 1012.29,-124.475"/>
</g>
<!-- Node22 -->
<g id="node22" class="node"><title>Node22</title>
<g id="a_node22"><a xlink:href="filter_8h.html" target="_top" xlink:title=" ">
<polygon fill="white" stroke="black" points="1097.79,-73 1097.79,-92 1201.79,-92 1201.79,-73 1097.79,-73"/>
<text text-anchor="middle" x="1149.79" y="-80" font-family="Helvetica,sans-Serif" font-size="10.00">Storm/TShell/filter.h</text>
</a>
</g>
</g>
<!-- Node7&#45;&gt;Node22 -->
<g id="edge21" class="edge"><title>Node7&#45;&gt;Node22</title>
<path fill="none" stroke="midnightblue" d="M1044.33,-130.327C1070.35,-118.776 1108.06,-102.032 1130.63,-92.0091"/>
<polygon fill="midnightblue" stroke="midnightblue" points="1042.71,-127.218 1034.99,-134.475 1045.55,-133.616 1042.71,-127.218"/>
</g>
<!-- Node23 -->
<g id="node23" class="node"><title>Node23</title>
<g id="a_node23"><a xlink:href="_cmd_8h.html" target="_top" xlink:title=" ">
<polygon fill="white" stroke="black" points="1220.29,-67.5 1220.29,-97.5 1363.29,-97.5 1363.29,-67.5 1220.29,-67.5"/>
<text text-anchor="start" x="1228.29" y="-85.5" font-family="Helvetica,sans-Serif" font-size="10.00">Storm/Thermostat/SimHouse</text>
<text text-anchor="middle" x="1291.79" y="-74.5" font-family="Helvetica,sans-Serif" font-size="10.00">/Cmd.h</text>
</a>
</g>
</g>
<!-- Node7&#45;&gt;Node23 -->
<g id="edge22" class="edge"><title>Node7&#45;&gt;Node23</title>
<path fill="none" stroke="midnightblue" d="M1065.18,-132.353C1110.29,-122.629 1177.29,-108.185 1226.74,-97.523"/>
<polygon fill="midnightblue" stroke="midnightblue" points="1064.37,-128.946 1055.34,-134.475 1065.85,-135.789 1064.37,-128.946"/>
</g>
<!-- Node25 -->
<g id="node25" class="node"><title>Node25</title>
<g id="a_node25"><a xlink:href="_log_8h.html" target="_top" xlink:title=" ">
<polygon fill="white" stroke="black" points="1381.79,-67.5 1381.79,-97.5 1497.79,-97.5 1497.79,-67.5 1381.79,-67.5"/>
<text text-anchor="start" x="1389.79" y="-85.5" font-family="Helvetica,sans-Serif" font-size="10.00">Storm/Thermostat/_file</text>
<text text-anchor="middle" x="1439.79" y="-74.5" font-family="Helvetica,sans-Serif" font-size="10.00">_logger/Log.h</text>
</a>
</g>
</g>
<!-- Node7&#45;&gt;Node25 -->
<g id="edge24" class="edge"><title>Node7&#45;&gt;Node25</title>
<path fill="none" stroke="midnightblue" d="M1095.82,-134.944C1168.37,-127.159 1278.11,-114.181 1372.79,-98 1375.72,-97.4988 1378.72,-96.9572 1381.75,-96.3879"/>
<polygon fill="midnightblue" stroke="midnightblue" points="1095.41,-131.468 1085.83,-136.008 1096.15,-138.429 1095.41,-131.468"/>
</g>
<!-- Node14 -->
<g id="node14" class="node"><title>Node14</title>
<g id="a_node14"><a xlink:href="_free_r_t_o_s_2_threads_8h.html" target="_top" xlink:title=" ">
<polygon fill="white" stroke="black" points="1911.79,-0.5 1911.79,-30.5 2045.79,-30.5 2045.79,-0.5 1911.79,-0.5"/>
<text text-anchor="start" x="1919.79" y="-18.5" font-family="Helvetica,sans-Serif" font-size="10.00">Cpl/TShell/Cmd/FreeRTOS</text>
<text text-anchor="middle" x="1978.79" y="-7.5" font-family="Helvetica,sans-Serif" font-size="10.00">/Threads.h</text>
</a>
</g>
</g>
<!-- Node13&#45;&gt;Node14 -->
<g id="edge13" class="edge"><title>Node13&#45;&gt;Node14</title>
<path fill="none" stroke="midnightblue" d="M1976.66,-62.7386C1977.13,-52.4873 1977.71,-40.0011 1978.14,-30.589"/>
<polygon fill="midnightblue" stroke="midnightblue" points="1973.16,-62.583 1976.2,-72.7338 1980.15,-62.9058 1973.16,-62.583"/>
</g>
<!-- Node15 -->
<g id="node15" class="node"><title>Node15</title>
<g id="a_node15"><a xlink:href="_win32_2_threads_8h.html" target="_top" xlink:title=" ">
<polygon fill="white" stroke="black" points="1778.29,-0.5 1778.29,-30.5 1893.29,-30.5 1893.29,-0.5 1778.29,-0.5"/>
<text text-anchor="start" x="1786.29" y="-18.5" font-family="Helvetica,sans-Serif" font-size="10.00">Cpl/TShell/Cmd/Win32</text>
<text text-anchor="middle" x="1835.79" y="-7.5" font-family="Helvetica,sans-Serif" font-size="10.00">/Threads.h</text>
</a>
</g>
</g>
<!-- Node13&#45;&gt;Node15 -->
<g id="edge14" class="edge"><title>Node13&#45;&gt;Node15</title>
<path fill="none" stroke="midnightblue" d="M1948.05,-68.6206C1924.37,-57.6252 1890.37,-41.8413 1866.01,-30.5281"/>
<polygon fill="midnightblue" stroke="midnightblue" points="1946.66,-71.8319 1957.2,-72.8685 1949.6,-65.4828 1946.66,-71.8319"/>
</g>
<!-- Node24 -->
<g id="node24" class="node"><title>Node24</title>
<g id="a_node24"><a xlink:href="statics___8h.html" target="_top" xlink:title="This file defines/creates persistent records and record server for the Thermostat simulation.">
<polygon fill="white" stroke="black" points="1232.29,-0.5 1232.29,-30.5 1351.29,-30.5 1351.29,-0.5 1232.29,-0.5"/>
<text text-anchor="start" x="1240.29" y="-18.5" font-family="Helvetica,sans-Serif" font-size="10.00">Storm/Thermostat/Main</text>
<text text-anchor="middle" x="1291.79" y="-7.5" font-family="Helvetica,sans-Serif" font-size="10.00">/_simulation/statics_.h</text>
</a>
</g>
</g>
<!-- Node23&#45;&gt;Node24 -->
<g id="edge23" class="edge"><title>Node23&#45;&gt;Node24</title>
<path fill="none" stroke="midnightblue" d="M1291.79,-57.1081C1291.79,-48.1539 1291.79,-38.3227 1291.79,-30.5765"/>
<polygon fill="midnightblue" stroke="midnightblue" points="1288.29,-57.3959 1291.79,-67.396 1295.29,-57.396 1288.29,-57.3959"/>
</g>
<!-- Node25&#45;&gt;Node24 -->
<g id="edge25" class="edge"><title>Node25&#45;&gt;Node24</title>
<path fill="none" stroke="midnightblue" d="M1398.28,-63.2687C1374.71,-52.9159 1345.65,-40.1528 1323.84,-30.5765"/>
<polygon fill="midnightblue" stroke="midnightblue" points="1397.11,-66.5793 1407.68,-67.396 1399.93,-60.1702 1397.11,-66.5793"/>
</g>
<!-- Node26&#45;&gt;Node7 -->
<g id="edge27" class="edge"><title>Node26&#45;&gt;Node7</title>
<path fill="none" stroke="midnightblue" d="M1015.79,-185.817C1015.79,-174.996 1015.79,-161.898 1015.79,-153.509"/>
<polygon fill="midnightblue" stroke="midnightblue" points="1012.29,-185.975 1015.79,-195.975 1019.29,-185.975 1012.29,-185.975"/>
</g>
<!-- Node27 -->
<g id="node27" class="node"><title>Node27</title>
<g id="a_node27"><a xlink:href="_processor_8h.html" target="_top" xlink:title=" ">
<polygon fill="white" stroke="black" points="2073.29,-134.5 2073.29,-153.5 2190.29,-153.5 2190.29,-134.5 2073.29,-134.5"/>
<text text-anchor="middle" x="2131.79" y="-141.5" font-family="Helvetica,sans-Serif" font-size="10.00">Cpl/TShell/Processor.h</text>
</a>
</g>
</g>
<!-- Node26&#45;&gt;Node27 -->
<g id="edge28" class="edge"><title>Node26&#45;&gt;Node27</title>
<path fill="none" stroke="midnightblue" d="M1082.01,-200.97C1282.84,-190.262 1882.95,-158.267 2073.23,-148.122"/>
<polygon fill="midnightblue" stroke="midnightblue" points="1081.7,-197.481 1071.9,-201.509 1082.07,-204.471 1081.7,-197.481"/>
</g>
<!-- Node28 -->
<g id="node28" class="node"><title>Node28</title>
<g id="a_node28"><a xlink:href="_maker_8h.html" target="_top" xlink:title=" ">
<polygon fill="white" stroke="black" points="2221.79,-73 2221.79,-92 2321.79,-92 2321.79,-73 2221.79,-73"/>
<text text-anchor="middle" x="2271.79" y="-80" font-family="Helvetica,sans-Serif" font-size="10.00">Cpl/TShell/Maker.h</text>
</a>
</g>
</g>
<!-- Node27&#45;&gt;Node28 -->
<g id="edge29" class="edge"><title>Node27&#45;&gt;Node28</title>
<path fill="none" stroke="midnightblue" d="M2161.25,-130.48C2188.44,-118.924 2228.08,-102.076 2251.77,-92.0091"/>
<polygon fill="midnightblue" stroke="midnightblue" points="2159.68,-127.342 2151.85,-134.475 2162.42,-133.785 2159.68,-127.342"/>
</g>
<!-- Node29 -->
<g id="node29" class="node"><title>Node29</title>
<g id="a_node29"><a xlink:href="_polled_processor_8h.html" target="_top" xlink:title=" ">
<polygon fill="white" stroke="black" points="2059.79,-73 2059.79,-92 2203.79,-92 2203.79,-73 2059.79,-73"/>
<text text-anchor="middle" x="2131.79" y="-80" font-family="Helvetica,sans-Serif" font-size="10.00">Cpl/TShell/PolledProcessor.h</text>
</a>
</g>
</g>
<!-- Node27&#45;&gt;Node29 -->
<g id="edge30" class="edge"><title>Node27&#45;&gt;Node29</title>
<path fill="none" stroke="midnightblue" d="M2131.79,-124.317C2131.79,-113.496 2131.79,-100.398 2131.79,-92.0091"/>
<polygon fill="midnightblue" stroke="midnightblue" points="2128.29,-124.475 2131.79,-134.475 2135.29,-124.475 2128.29,-124.475"/>
</g>
<!-- Node30 -->
<g id="node30" class="node"><title>Node30</title>
<g id="a_node30"><a xlink:href="_polled_maker_8h.html" target="_top" xlink:title=" ">
<polygon fill="white" stroke="black" points="2068.29,-6 2068.29,-25 2195.29,-25 2195.29,-6 2068.29,-6"/>
<text text-anchor="middle" x="2131.79" y="-13" font-family="Helvetica,sans-Serif" font-size="10.00">Cpl/TShell/PolledMaker.h</text>
</a>
</g>
</g>
<!-- Node29&#45;&gt;Node30 -->
<g id="edge31" class="edge"><title>Node29&#45;&gt;Node30</title>
<path fill="none" stroke="midnightblue" d="M2131.79,-62.537C2131.79,-50.1703 2131.79,-34.6198 2131.79,-25.1273"/>
<polygon fill="midnightblue" stroke="midnightblue" points="2128.29,-62.7338 2131.79,-72.7338 2135.29,-62.7338 2128.29,-62.7338"/>
</g>
<!-- Node31&#45;&gt;Node24 -->
<g id="edge33" class="edge"><title>Node31&#45;&gt;Node24</title>
<path fill="none" stroke="midnightblue" d="M811.978,-204.145C586.568,-201.836 -100.779,-185.143 12.7916,-67 55.5035,-22.5684 984.922,-17.2205 1231.95,-16.5843"/>
<polygon fill="midnightblue" stroke="midnightblue" points="812.006,-207.645 822.039,-204.241 812.073,-200.645 812.006,-207.645"/>
</g>
<!-- Node32&#45;&gt;Node7 -->
<g id="edge35" class="edge"><title>Node32&#45;&gt;Node7</title>
<path fill="none" stroke="midnightblue" d="M1045.63,-252.942C1059.03,-245.665 1073.24,-235.166 1080.79,-221 1087.27,-208.841 1087.19,-202.204 1080.79,-190 1071.75,-172.736 1052.74,-160.779 1037.6,-153.553"/>
<polygon fill="midnightblue" stroke="midnightblue" points="1043.96,-249.867 1036.58,-257.471 1047.09,-256.128 1043.96,-249.867"/>
</g>
<!-- Node32&#45;&gt;Node26 -->
<g id="edge36" class="edge"><title>Node32&#45;&gt;Node26</title>
<path fill="none" stroke="midnightblue" d="M1014.42,-247.317C1014.78,-236.496 1015.22,-223.398 1015.51,-215.009"/>
<polygon fill="midnightblue" stroke="midnightblue" points="1010.92,-247.363 1014.08,-257.475 1017.91,-247.598 1010.92,-247.363"/>
</g>
<!-- Node32&#45;&gt;Node31 -->
<g id="edge37" class="edge"><title>Node32&#45;&gt;Node31</title>
<path fill="none" stroke="midnightblue" d="M985.685,-253.331C964.328,-243.704 934.964,-230.468 912.901,-220.523"/>
<polygon fill="midnightblue" stroke="midnightblue" points="984.324,-256.556 994.879,-257.475 987.201,-250.175 984.324,-256.556"/>
</g>
<!-- Node34 -->
<g id="node34" class="node"><title>Node34</title>
<g id="a_node34"><a xlink:href="_d_f_string_item_8h.html" target="_top" xlink:title=" ">
<polygon fill="white" stroke="black" points="555.792,-257.5 555.792,-276.5 677.792,-276.5 677.792,-257.5 555.792,-257.5"/>
<text text-anchor="middle" x="616.792" y="-264.5" font-family="Helvetica,sans-Serif" font-size="10.00">Cpl/Text/DFStringItem.h</text>
</a>
</g>
</g>
<!-- Node33&#45;&gt;Node34 -->
<g id="edge39" class="edge"><title>Node33&#45;&gt;Node34</title>
<path fill="none" stroke="midnightblue" d="M716.706,-309.503C692.335,-299.38 658.652,-285.388 637.294,-276.516"/>
<polygon fill="midnightblue" stroke="midnightblue" points="715.615,-312.84 726.193,-313.444 718.3,-306.375 715.615,-312.84"/>
</g>
<!-- Node35 -->
<g id="node35" class="node"><title>Node35</title>
<g id="a_node35"><a xlink:href="_d_string_item_8h.html" target="_top" xlink:title=" ">
<polygon fill="white" stroke="black" points="695.792,-257.5 695.792,-276.5 811.792,-276.5 811.792,-257.5 695.792,-257.5"/>
<text text-anchor="middle" x="753.792" y="-264.5" font-family="Helvetica,sans-Serif" font-size="10.00">Cpl/Text/DStringItem.h</text>
</a>
</g>
</g>
<!-- Node33&#45;&gt;Node35 -->
<g id="edge40" class="edge"><title>Node33&#45;&gt;Node35</title>
<path fill="none" stroke="midnightblue" d="M749.242,-303.101C750.404,-294.136 751.736,-283.858 752.657,-276.751"/>
<polygon fill="midnightblue" stroke="midnightblue" points="745.762,-302.716 747.948,-313.083 752.704,-303.616 745.762,-302.716"/>
</g>
<!-- Node36 -->
<g id="node36" class="node"><title>Node36</title>
<g id="a_node36"><a xlink:href="_f_string_item_8h.html" target="_top" xlink:title=" ">
<polygon fill="white" stroke="black" points="421.792,-257.5 421.792,-276.5 537.792,-276.5 537.792,-257.5 421.792,-257.5"/>
<text text-anchor="middle" x="479.792" y="-264.5" font-family="Helvetica,sans-Serif" font-size="10.00">Cpl/Text/FStringItem.h</text>
</a>
</g>
</g>
<!-- Node33&#45;&gt;Node36 -->
<g id="edge41" class="edge"><title>Node33&#45;&gt;Node36</title>
<path fill="none" stroke="midnightblue" d="M694.428,-311.41C643.968,-301.204 568.593,-285.96 521.901,-276.516"/>
<polygon fill="midnightblue" stroke="midnightblue" points="693.989,-314.892 704.485,-313.444 695.377,-308.031 693.989,-314.892"/>
</g>
</g>
</svg>
