<?xml version="1.0" encoding="UTF-8" standalone="no"?>
<!DOCTYPE svg PUBLIC "-//W3C//DTD SVG 1.1//EN"
 "http://www.w3.org/Graphics/SVG/1.1/DTD/svg11.dtd">
<!-- Generated by graphviz version 2.38.0 (20140413.2041)
 -->
<!-- Title: Cpl/Dm/Persistent/Record.h Pages: 1 -->
<svg width="1778pt" height="476pt"
 viewBox="0.00 0.00 1777.50 476.00" xmlns="http://www.w3.org/2000/svg" xmlns:xlink="http://www.w3.org/1999/xlink">
<g id="graph0" class="graph" transform="scale(1 1) rotate(0) translate(4 472)">
<title>Cpl/Dm/Persistent/Record.h</title>
<polygon fill="white" stroke="none" points="-4,4 -4,-472 1773.5,-472 1773.5,4 -4,4"/>
<!-- Node1 -->
<g id="node1" class="node"><title>Node1</title>
<g id="a_node1"><a xlink:title=" ">
<polygon fill="#bfbfbf" stroke="black" points="978.5,-448.5 978.5,-467.5 1116.5,-467.5 1116.5,-448.5 978.5,-448.5"/>
<text text-anchor="middle" x="1047.5" y="-455.5" font-family="Helvetica,sans-Serif" font-size="10.00">Cpl/Dm/Persistent/Record.h</text>
</a>
</g>
</g>
<!-- Node2 -->
<g id="node2" class="node"><title>Node2</title>
<g id="a_node2"><a xlink:href="_persistent_2_record_8h.html" target="_top" xlink:title=" ">
<polygon fill="white" stroke="black" points="763.5,-392.5 763.5,-411.5 883.5,-411.5 883.5,-392.5 763.5,-392.5"/>
<text text-anchor="middle" x="823.5" y="-399.5" font-family="Helvetica,sans-Serif" font-size="10.00">Cpl/Persistent/Record.h</text>
</a>
</g>
</g>
<!-- Node1&#45;&gt;Node2 -->
<g id="edge1" class="edge"><title>Node1&#45;&gt;Node2</title>
<path fill="none" stroke="midnightblue" d="M1012.01,-448.444C973.176,-439.083 910.844,-424.056 868.582,-413.868"/>
<polygon fill="midnightblue" stroke="midnightblue" points="869.369,-410.458 858.827,-411.516 867.729,-417.263 869.369,-410.458"/>
</g>
<!-- Node26 -->
<g id="node26" class="node"><title>Node26</title>
<g id="a_node26"><a xlink:href="_chunk_8h.html" target="_top" xlink:title=" ">
<polygon fill="white" stroke="black" points="902,-392.5 902,-411.5 1019,-411.5 1019,-392.5 902,-392.5"/>
<text text-anchor="middle" x="960.5" y="-399.5" font-family="Helvetica,sans-Serif" font-size="10.00">Cpl/Persistent/Chunk.h</text>
</a>
</g>
</g>
<!-- Node1&#45;&gt;Node26 -->
<g id="edge37" class="edge"><title>Node1&#45;&gt;Node26</title>
<path fill="none" stroke="midnightblue" d="M1033.52,-448.324C1019.95,-439.9 999.12,-426.971 983.175,-417.074"/>
<polygon fill="midnightblue" stroke="midnightblue" points="984.786,-413.954 974.443,-411.655 981.094,-419.902 984.786,-413.954"/>
</g>
<!-- Node27 -->
<g id="node27" class="node"><title>Node27</title>
<g id="a_node27"><a xlink:href="_payload_8h.html" target="_top" xlink:title=" ">
<polygon fill="white" stroke="black" points="946,-336.5 946,-355.5 1071,-355.5 1071,-336.5 946,-336.5"/>
<text text-anchor="middle" x="1008.5" y="-343.5" font-family="Helvetica,sans-Serif" font-size="10.00">Cpl/Persistent/Payload.h</text>
</a>
</g>
</g>
<!-- Node1&#45;&gt;Node27 -->
<g id="edge41" class="edge"><title>Node1&#45;&gt;Node27</title>
<path fill="none" stroke="midnightblue" d="M1045.18,-448.496C1041.7,-435.993 1034.77,-411.971 1027.5,-392 1024.2,-382.923 1020.07,-373.014 1016.51,-364.811"/>
<polygon fill="midnightblue" stroke="midnightblue" points="1019.65,-363.255 1012.4,-355.524 1013.25,-366.085 1019.65,-363.255"/>
</g>
<!-- Node28 -->
<g id="node28" class="node"><title>Node28</title>
<g id="a_node28"><a xlink:href="_model_point_8h.html" target="_top" xlink:title=" ">
<polygon fill="white" stroke="black" points="1287,-280.5 1287,-299.5 1396,-299.5 1396,-280.5 1287,-280.5"/>
<text text-anchor="middle" x="1341.5" y="-287.5" font-family="Helvetica,sans-Serif" font-size="10.00">Cpl/Dm/ModelPoint.h</text>
</a>
</g>
</g>
<!-- Node1&#45;&gt;Node28 -->
<g id="edge42" class="edge"><title>Node1&#45;&gt;Node28</title>
<path fill="none" stroke="midnightblue" d="M1116.59,-450.742C1153.92,-444.919 1199.59,-433.682 1235.5,-412 1279.36,-385.518 1314.8,-334.845 1331.36,-308.258"/>
<polygon fill="midnightblue" stroke="midnightblue" points="1334.39,-310.007 1336.59,-299.641 1328.41,-306.376 1334.39,-310.007"/>
</g>
<!-- Node40 -->
<g id="node40" class="node"><title>Node40</title>
<g id="a_node40"><a xlink:href="_subscriber_composer_8h.html" target="_top" xlink:title=" ">
<polygon fill="white" stroke="black" points="1076,-392.5 1076,-411.5 1227,-411.5 1227,-392.5 1076,-392.5"/>
<text text-anchor="middle" x="1151.5" y="-399.5" font-family="Helvetica,sans-Serif" font-size="10.00">Cpl/Dm/SubscriberComposer.h</text>
</a>
</g>
</g>
<!-- Node1&#45;&gt;Node40 -->
<g id="edge65" class="edge"><title>Node1&#45;&gt;Node40</title>
<path fill="none" stroke="midnightblue" d="M1064.21,-448.324C1080.81,-439.703 1106.5,-426.364 1125.72,-416.386"/>
<polygon fill="midnightblue" stroke="midnightblue" points="1127.57,-419.369 1134.83,-411.655 1124.34,-413.156 1127.57,-419.369"/>
</g>
<!-- Node3 -->
<g id="node3" class="node"><title>Node3</title>
<g id="a_node3"><a xlink:href="_dm_2_mailbox_server_8h.html" target="_top" xlink:title=" ">
<polygon fill="white" stroke="black" points="762.5,-336.5 762.5,-355.5 884.5,-355.5 884.5,-336.5 762.5,-336.5"/>
<text text-anchor="middle" x="823.5" y="-343.5" font-family="Helvetica,sans-Serif" font-size="10.00">Cpl/Dm/MailboxServer.h</text>
</a>
</g>
</g>
<!-- Node2&#45;&gt;Node3 -->
<g id="edge2" class="edge"><title>Node2&#45;&gt;Node3</title>
<path fill="none" stroke="midnightblue" d="M823.5,-392.083C823.5,-385.006 823.5,-374.861 823.5,-365.986"/>
<polygon fill="midnightblue" stroke="midnightblue" points="827,-365.751 823.5,-355.751 820,-365.751 827,-365.751"/>
</g>
<!-- Node4 -->
<g id="node4" class="node"><title>Node4</title>
<g id="a_node4"><a xlink:href="_dm_2_event_loop_8h.html" target="_top" xlink:title=" ">
<polygon fill="white" stroke="black" points="770,-280.5 770,-299.5 877,-299.5 877,-280.5 770,-280.5"/>
<text text-anchor="middle" x="823.5" y="-287.5" font-family="Helvetica,sans-Serif" font-size="10.00">Cpl/Dm/EventLoop.h</text>
</a>
</g>
</g>
<!-- Node3&#45;&gt;Node4 -->
<g id="edge3" class="edge"><title>Node3&#45;&gt;Node4</title>
<path fill="none" stroke="midnightblue" d="M823.5,-336.083C823.5,-329.006 823.5,-318.861 823.5,-309.986"/>
<polygon fill="midnightblue" stroke="midnightblue" points="827,-309.751 823.5,-299.751 820,-309.751 827,-309.751"/>
</g>
<!-- Node22 -->
<g id="node22" class="node"><title>Node22</title>
<g id="a_node22"><a xlink:href="_mailbox_8h.html" target="_top" xlink:title=" ">
<polygon fill="white" stroke="black" points="255.5,-280.5 255.5,-299.5 345.5,-299.5 345.5,-280.5 255.5,-280.5"/>
<text text-anchor="middle" x="300.5" y="-287.5" font-family="Helvetica,sans-Serif" font-size="10.00">Cpl/Itc/Mailbox.h</text>
</a>
</g>
</g>
<!-- Node3&#45;&gt;Node22 -->
<g id="edge30" class="edge"><title>Node3&#45;&gt;Node22</title>
<path fill="none" stroke="midnightblue" d="M762.482,-338.7C659.814,-328.099 454.11,-306.86 355.579,-296.687"/>
<polygon fill="midnightblue" stroke="midnightblue" points="355.837,-293.195 345.53,-295.649 355.118,-300.158 355.837,-293.195"/>
</g>
<!-- Node5 -->
<g id="node5" class="node"><title>Node5</title>
<g id="a_node5"><a xlink:href="_system_2_event_loop_8h.html" target="_top" xlink:title=" ">
<polygon fill="white" stroke="black" points="375,-224.5 375,-243.5 500,-243.5 500,-224.5 375,-224.5"/>
<text text-anchor="middle" x="437.5" y="-231.5" font-family="Helvetica,sans-Serif" font-size="10.00">Cpl/System/EventLoop.h</text>
</a>
</g>
</g>
<!-- Node4&#45;&gt;Node5 -->
<g id="edge4" class="edge"><title>Node4&#45;&gt;Node5</title>
<path fill="none" stroke="midnightblue" d="M769.828,-281.492C701.769,-271.97 584.213,-255.525 508.709,-244.962"/>
<polygon fill="midnightblue" stroke="midnightblue" points="508.732,-241.431 498.343,-243.512 507.762,-248.364 508.732,-241.431"/>
</g>
<!-- Node16 -->
<g id="node16" class="node"><title>Node16</title>
<g id="a_node16"><a xlink:href="_d_list_8h.html" target="_top" xlink:title=" ">
<polygon fill="white" stroke="black" points="200,-112.5 200,-131.5 309,-131.5 309,-112.5 200,-112.5"/>
<text text-anchor="middle" x="254.5" y="-119.5" font-family="Helvetica,sans-Serif" font-size="10.00">Cpl/Container/DList.h</text>
</a>
</g>
</g>
<!-- Node4&#45;&gt;Node16 -->
<g id="edge24" class="edge"><title>Node4&#45;&gt;Node16</title>
<path fill="none" stroke="midnightblue" d="M769.838,-288.404C683.503,-286.406 508.918,-278.072 365.5,-244 298.287,-228.032 259.571,-244.973 220.5,-188 209.662,-172.197 223.311,-152.515 236.405,-138.974"/>
<polygon fill="midnightblue" stroke="midnightblue" points="239.091,-141.246 243.862,-131.786 234.233,-136.206 239.091,-141.246"/>
</g>
<!-- Node17 -->
<g id="node17" class="node"><title>Node17</title>
<g id="a_node17"><a xlink:href="_thread_8h.html" target="_top" xlink:title=" ">
<polygon fill="white" stroke="black" points="725,-224.5 725,-243.5 834,-243.5 834,-224.5 725,-224.5"/>
<text text-anchor="middle" x="779.5" y="-231.5" font-family="Helvetica,sans-Serif" font-size="10.00">Cpl/System/Thread.h</text>
</a>
</g>
</g>
<!-- Node4&#45;&gt;Node17 -->
<g id="edge18" class="edge"><title>Node4&#45;&gt;Node17</title>
<path fill="none" stroke="midnightblue" d="M816.234,-280.083C809.955,-272.377 800.712,-261.033 793.069,-251.653"/>
<polygon fill="midnightblue" stroke="midnightblue" points="795.661,-249.293 786.631,-243.751 790.234,-253.714 795.661,-249.293"/>
</g>
<!-- Node20 -->
<g id="node20" class="node"><title>Node20</title>
<g id="a_node20"><a xlink:href="_subscriber_api_8h.html" target="_top" xlink:title=" ">
<polygon fill="white" stroke="black" points="1018,-168.5 1018,-187.5 1139,-187.5 1139,-168.5 1018,-168.5"/>
<text text-anchor="middle" x="1078.5" y="-175.5" font-family="Helvetica,sans-Serif" font-size="10.00">Cpl/Dm/SubscriberApi.h</text>
</a>
</g>
</g>
<!-- Node4&#45;&gt;Node20 -->
<g id="edge25" class="edge"><title>Node4&#45;&gt;Node20</title>
<path fill="none" stroke="midnightblue" d="M873.487,-280.426C907.349,-273.438 952.49,-261.775 989.5,-244 1016.52,-231.02 1043.81,-209.579 1060.91,-194.897"/>
<polygon fill="midnightblue" stroke="midnightblue" points="1063.66,-197.141 1068.87,-187.916 1059.04,-191.878 1063.66,-197.141"/>
</g>
<!-- Node21 -->
<g id="node21" class="node"><title>Node21</title>
<g id="a_node21"><a xlink:href="_notification_api___8h.html" target="_top" xlink:title=" ">
<polygon fill="white" stroke="black" points="852.5,-224.5 852.5,-243.5 980.5,-243.5 980.5,-224.5 852.5,-224.5"/>
<text text-anchor="middle" x="916.5" y="-231.5" font-family="Helvetica,sans-Serif" font-size="10.00">Cpl/Dm/NotificationApi_.h</text>
</a>
</g>
</g>
<!-- Node4&#45;&gt;Node21 -->
<g id="edge28" class="edge"><title>Node4&#45;&gt;Node21</title>
<path fill="none" stroke="midnightblue" d="M838.442,-280.324C853.085,-271.822 875.634,-258.729 892.738,-248.797"/>
<polygon fill="midnightblue" stroke="midnightblue" points="894.705,-251.703 901.595,-243.655 891.19,-245.649 894.705,-251.703"/>
</g>
<!-- Node6 -->
<g id="node6" class="node"><title>Node6</title>
<g id="a_node6"><a xlink:href="_runnable_8h.html" target="_top" xlink:title=" ">
<polygon fill="white" stroke="black" points="612,-168.5 612,-187.5 731,-187.5 731,-168.5 612,-168.5"/>
<text text-anchor="middle" x="671.5" y="-175.5" font-family="Helvetica,sans-Serif" font-size="10.00">Cpl/System/Runnable.h</text>
</a>
</g>
</g>
<!-- Node5&#45;&gt;Node6 -->
<g id="edge5" class="edge"><title>Node5&#45;&gt;Node6</title>
<path fill="none" stroke="midnightblue" d="M474.578,-224.444C515.228,-215.063 580.532,-199.993 624.684,-189.804"/>
<polygon fill="midnightblue" stroke="midnightblue" points="625.639,-193.175 634.595,-187.516 624.065,-186.355 625.639,-193.175"/>
</g>
<!-- Node7 -->
<g id="node7" class="node"><title>Node7</title>
<g id="a_node7"><a xlink:href="_semaphore_8h.html" target="_top" xlink:title=" ">
<polygon fill="white" stroke="black" points="465.5,-168.5 465.5,-187.5 593.5,-187.5 593.5,-168.5 465.5,-168.5"/>
<text text-anchor="middle" x="529.5" y="-175.5" font-family="Helvetica,sans-Serif" font-size="10.00">Cpl/System/Semaphore.h</text>
</a>
</g>
</g>
<!-- Node5&#45;&gt;Node7 -->
<g id="edge6" class="edge"><title>Node5&#45;&gt;Node7</title>
<path fill="none" stroke="midnightblue" d="M452.281,-224.324C466.767,-215.822 489.073,-202.729 505.993,-192.797"/>
<polygon fill="midnightblue" stroke="midnightblue" points="507.903,-195.735 514.755,-187.655 504.359,-189.698 507.903,-195.735"/>
</g>
<!-- Node9 -->
<g id="node9" class="node"><title>Node9</title>
<g id="a_node9"><a xlink:href="_signable_8h.html" target="_top" xlink:title=" ">
<polygon fill="white" stroke="black" points="469.5,-112.5 469.5,-131.5 585.5,-131.5 585.5,-112.5 469.5,-112.5"/>
<text text-anchor="middle" x="527.5" y="-119.5" font-family="Helvetica,sans-Serif" font-size="10.00">Cpl/System/Signable.h</text>
</a>
</g>
</g>
<!-- Node5&#45;&gt;Node9 -->
<g id="edge10" class="edge"><title>Node5&#45;&gt;Node9</title>
<path fill="none" stroke="midnightblue" d="M431.775,-224.248C423.907,-211.005 411.965,-185.559 423.5,-168 434.072,-151.907 451.762,-141.541 469.582,-134.876"/>
<polygon fill="midnightblue" stroke="midnightblue" points="471.097,-138.059 479.451,-131.542 468.856,-131.427 471.097,-138.059"/>
</g>
<!-- Node11 -->
<g id="node11" class="node"><title>Node11</title>
<g id="a_node11"><a xlink:href="_event_flag_8h.html" target="_top" xlink:title=" ">
<polygon fill="white" stroke="black" points="902,-112.5 902,-131.5 1025,-131.5 1025,-112.5 902,-112.5"/>
<text text-anchor="middle" x="963.5" y="-119.5" font-family="Helvetica,sans-Serif" font-size="10.00">Cpl/System/EventFlag.h</text>
</a>
</g>
</g>
<!-- Node5&#45;&gt;Node11 -->
<g id="edge11" class="edge"><title>Node5&#45;&gt;Node11</title>
<path fill="none" stroke="midnightblue" d="M437.194,-224.191C437.227,-209.902 439.599,-181.877 456.5,-168 489.406,-140.981 760.123,-129.139 891.929,-124.936"/>
<polygon fill="midnightblue" stroke="midnightblue" points="892.056,-128.434 901.941,-124.623 891.837,-121.438 892.056,-128.434"/>
</g>
<!-- Node14 -->
<g id="node14" class="node"><title>Node14</title>
<g id="a_node14"><a xlink:href="_timer_manager_8h.html" target="_top" xlink:title=" ">
<polygon fill="white" stroke="black" points="230,-168.5 230,-187.5 371,-187.5 371,-168.5 230,-168.5"/>
<text text-anchor="middle" x="300.5" y="-175.5" font-family="Helvetica,sans-Serif" font-size="10.00">Cpl/System/TimerManager.h</text>
</a>
</g>
</g>
<!-- Node5&#45;&gt;Node14 -->
<g id="edge14" class="edge"><title>Node5&#45;&gt;Node14</title>
<path fill="none" stroke="midnightblue" d="M415.792,-224.444C393.145,-215.517 357.428,-201.439 331.748,-191.317"/>
<polygon fill="midnightblue" stroke="midnightblue" points="332.693,-187.927 322.106,-187.516 330.126,-194.44 332.693,-187.927"/>
</g>
<!-- Node8 -->
<g id="node8" class="node"><title>Node8</title>
<g id="a_node8"><a xlink:title=" ">
<polygon fill="white" stroke="#bfbfbf" points="1229,-56.5 1229,-75.5 1306,-75.5 1306,-56.5 1229,-56.5"/>
<text text-anchor="middle" x="1267.5" y="-63.5" font-family="Helvetica,sans-Serif" font-size="10.00">colony_map.h</text>
</a>
</g>
</g>
<!-- Node7&#45;&gt;Node8 -->
<g id="edge7" class="edge"><title>Node7&#45;&gt;Node8</title>
<path fill="none" stroke="midnightblue" d="M593.578,-168.955C596.593,-168.622 599.579,-168.302 602.5,-168 793.704,-148.236 844.285,-165.873 1033.5,-132 1105.65,-119.083 1187.73,-93.733 1232.97,-78.7937"/>
<polygon fill="midnightblue" stroke="midnightblue" points="1234.2,-82.0729 1242.58,-75.5927 1231.99,-75.4314 1234.2,-82.0729"/>
</g>
<!-- Node7&#45;&gt;Node9 -->
<g id="edge8" class="edge"><title>Node7&#45;&gt;Node9</title>
<path fill="none" stroke="midnightblue" d="M529.17,-168.083C528.908,-161.006 528.532,-150.861 528.203,-141.986"/>
<polygon fill="midnightblue" stroke="midnightblue" points="531.692,-141.615 527.824,-131.751 524.697,-141.874 531.692,-141.615"/>
</g>
<!-- Node10 -->
<g id="node10" class="node"><title>Node10</title>
<g id="a_node10"><a xlink:href="_item_8h.html" target="_top" xlink:title=" ">
<polygon fill="white" stroke="black" points="406.5,-56.5 406.5,-75.5 512.5,-75.5 512.5,-56.5 406.5,-56.5"/>
<text text-anchor="middle" x="459.5" y="-63.5" font-family="Helvetica,sans-Serif" font-size="10.00">Cpl/Container/Item.h</text>
</a>
</g>
</g>
<!-- Node9&#45;&gt;Node10 -->
<g id="edge9" class="edge"><title>Node9&#45;&gt;Node10</title>
<path fill="none" stroke="midnightblue" d="M516.575,-112.324C506.325,-104.185 490.779,-91.8395 478.499,-82.0874"/>
<polygon fill="midnightblue" stroke="midnightblue" points="480.632,-79.3119 470.624,-75.8339 476.279,-84.7937 480.632,-79.3119"/>
</g>
<!-- Node12 -->
<g id="node12" class="node"><title>Node12</title>
<g id="a_node12"><a xlink:title=" ">
<polygon fill="white" stroke="#bfbfbf" points="1387,-0.5 1387,-19.5 1472,-19.5 1472,-0.5 1387,-0.5"/>
<text text-anchor="middle" x="1429.5" y="-7.5" font-family="Helvetica,sans-Serif" font-size="10.00">colony_config.h</text>
</a>
</g>
</g>
<!-- Node11&#45;&gt;Node12 -->
<g id="edge12" class="edge"><title>Node11&#45;&gt;Node12</title>
<path fill="none" stroke="midnightblue" d="M972.492,-112.479C988.278,-98.0855 1022.63,-69.234 1057.5,-56 1114.69,-34.2982 1288.6,-20.1973 1376.88,-14.2409"/>
<polygon fill="midnightblue" stroke="midnightblue" points="1377.21,-17.7271 1386.95,-13.5718 1376.74,-10.7425 1377.21,-17.7271"/>
</g>
<!-- Node13 -->
<g id="node13" class="node"><title>Node13</title>
<g id="a_node13"><a xlink:title=" ">
<polygon fill="white" stroke="#bfbfbf" points="1067,-56.5 1067,-75.5 1116,-75.5 1116,-56.5 1067,-56.5"/>
<text text-anchor="middle" x="1091.5" y="-63.5" font-family="Helvetica,sans-Serif" font-size="10.00">stdint.h</text>
</a>
</g>
</g>
<!-- Node11&#45;&gt;Node13 -->
<g id="edge13" class="edge"><title>Node11&#45;&gt;Node13</title>
<path fill="none" stroke="midnightblue" d="M983.782,-112.444C1004.85,-103.557 1038.02,-89.5632 1061.99,-79.4514"/>
<polygon fill="midnightblue" stroke="midnightblue" points="1063.46,-82.6283 1071.31,-75.5164 1060.74,-76.1787 1063.46,-82.6283"/>
</g>
<!-- Node15 -->
<g id="node15" class="node"><title>Node15</title>
<g id="a_node15"><a xlink:href="_counter___8h.html" target="_top" xlink:title=" ">
<polygon fill="white" stroke="black" points="331.5,-112.5 331.5,-131.5 449.5,-131.5 449.5,-112.5 331.5,-112.5"/>
<text text-anchor="middle" x="390.5" y="-119.5" font-family="Helvetica,sans-Serif" font-size="10.00">Cpl/System/Counter_.h</text>
</a>
</g>
</g>
<!-- Node14&#45;&gt;Node15 -->
<g id="edge15" class="edge"><title>Node14&#45;&gt;Node15</title>
<path fill="none" stroke="midnightblue" d="M314.96,-168.324C329,-159.9 350.548,-146.971 367.043,-137.074"/>
<polygon fill="midnightblue" stroke="midnightblue" points="369.302,-139.801 376.076,-131.655 365.7,-133.798 369.302,-139.801"/>
</g>
<!-- Node14&#45;&gt;Node16 -->
<g id="edge17" class="edge"><title>Node14&#45;&gt;Node16</title>
<path fill="none" stroke="midnightblue" d="M292.904,-168.083C286.273,-160.298 276.479,-148.801 268.442,-139.367"/>
<polygon fill="midnightblue" stroke="midnightblue" points="271.104,-137.094 261.955,-131.751 265.775,-141.633 271.104,-137.094"/>
</g>
<!-- Node15&#45;&gt;Node10 -->
<g id="edge16" class="edge"><title>Node15&#45;&gt;Node10</title>
<path fill="none" stroke="midnightblue" d="M401.586,-112.324C411.986,-104.185 427.761,-91.8395 440.222,-82.0874"/>
<polygon fill="midnightblue" stroke="midnightblue" points="442.494,-84.7533 448.212,-75.8339 438.18,-79.2407 442.494,-84.7533"/>
</g>
<!-- Node17&#45;&gt;Node6 -->
<g id="edge20" class="edge"><title>Node17&#45;&gt;Node6</title>
<path fill="none" stroke="midnightblue" d="M762.148,-224.324C744.828,-215.664 717.985,-202.242 697.998,-192.249"/>
<polygon fill="midnightblue" stroke="midnightblue" points="699.319,-188.996 688.809,-187.655 696.188,-195.257 699.319,-188.996"/>
</g>
<!-- Node17&#45;&gt;Node8 -->
<g id="edge19" class="edge"><title>Node17&#45;&gt;Node8</title>
<path fill="none" stroke="midnightblue" d="M806.747,-224.406C832.359,-216.044 871.573,-202.508 904.5,-188 921.965,-180.305 924.649,-174.751 942.5,-168 1005.82,-144.055 1025.73,-151.7 1090.5,-132 1142.66,-116.133 1201.88,-93.3981 1236.88,-79.4484"/>
<polygon fill="midnightblue" stroke="midnightblue" points="1238.53,-82.5582 1246.51,-75.5893 1235.93,-76.0606 1238.53,-82.5582"/>
</g>
<!-- Node17&#45;&gt;Node9 -->
<g id="edge21" class="edge"><title>Node17&#45;&gt;Node9</title>
<path fill="none" stroke="midnightblue" d="M776.681,-224.264C771.631,-210.08 759.642,-182.202 739.5,-168 697.707,-138.531 640.535,-127.669 596.094,-123.963"/>
<polygon fill="midnightblue" stroke="midnightblue" points="596.182,-120.46 585.954,-123.221 595.672,-127.441 596.182,-120.46"/>
</g>
<!-- Node18 -->
<g id="node18" class="node"><title>Node18</title>
<g id="a_node18"><a xlink:href="_traverser_8h.html" target="_top" xlink:title=" ">
<polygon fill="white" stroke="black" points="787.5,-168.5 787.5,-187.5 895.5,-187.5 895.5,-168.5 787.5,-168.5"/>
<text text-anchor="middle" x="841.5" y="-175.5" font-family="Helvetica,sans-Serif" font-size="10.00">Cpl/Type/Traverser.h</text>
</a>
</g>
</g>
<!-- Node17&#45;&gt;Node18 -->
<g id="edge22" class="edge"><title>Node17&#45;&gt;Node18</title>
<path fill="none" stroke="midnightblue" d="M789.461,-224.324C798.627,-216.341 812.437,-204.313 823.528,-194.653"/>
<polygon fill="midnightblue" stroke="midnightblue" points="826.115,-197.041 831.357,-187.834 821.518,-191.762 826.115,-197.041"/>
</g>
<!-- Node19 -->
<g id="node19" class="node"><title>Node19</title>
<g id="a_node19"><a xlink:title=" ">
<polygon fill="white" stroke="#bfbfbf" points="951.5,-168.5 951.5,-187.5 999.5,-187.5 999.5,-168.5 951.5,-168.5"/>
<text text-anchor="middle" x="975.5" y="-175.5" font-family="Helvetica,sans-Serif" font-size="10.00">stdlib.h</text>
</a>
</g>
</g>
<!-- Node17&#45;&gt;Node19 -->
<g id="edge23" class="edge"><title>Node17&#45;&gt;Node19</title>
<path fill="none" stroke="midnightblue" d="M810.557,-224.444C846.274,-214.603 904.716,-198.502 941.593,-188.342"/>
<polygon fill="midnightblue" stroke="midnightblue" points="942.674,-191.674 951.385,-185.644 940.815,-184.926 942.674,-191.674"/>
</g>
<!-- Node20&#45;&gt;Node10 -->
<g id="edge26" class="edge"><title>Node20&#45;&gt;Node10</title>
<path fill="none" stroke="midnightblue" d="M1024.37,-168.493C969.051,-159.71 880.697,-145.433 804.5,-132 701.161,-113.782 580.783,-90.6701 513.02,-77.4861"/>
<polygon fill="midnightblue" stroke="midnightblue" points="513.494,-74.0128 503.009,-75.5362 512.156,-80.8837 513.494,-74.0128"/>
</g>
<!-- Node20&#45;&gt;Node13 -->
<g id="edge27" class="edge"><title>Node20&#45;&gt;Node13</title>
<path fill="none" stroke="midnightblue" d="M1077.44,-168.106C1076.14,-155.528 1074.48,-131.861 1077.5,-112 1078.87,-103.001 1081.69,-93.3251 1084.45,-85.2601"/>
<polygon fill="midnightblue" stroke="midnightblue" points="1087.77,-86.3722 1087.9,-75.7782 1081.19,-83.9759 1087.77,-86.3722"/>
</g>
<!-- Node21&#45;&gt;Node20 -->
<g id="edge29" class="edge"><title>Node21&#45;&gt;Node20</title>
<path fill="none" stroke="midnightblue" d="M942.169,-224.444C969.423,-215.359 1012.68,-200.939 1043.15,-190.783"/>
<polygon fill="midnightblue" stroke="midnightblue" points="1044.57,-193.999 1052.95,-187.516 1042.36,-187.358 1044.57,-193.999"/>
</g>
<!-- Node22&#45;&gt;Node5 -->
<g id="edge36" class="edge"><title>Node22&#45;&gt;Node5</title>
<path fill="none" stroke="midnightblue" d="M322.208,-280.444C344.855,-271.517 380.572,-257.439 406.252,-247.317"/>
<polygon fill="midnightblue" stroke="midnightblue" points="407.874,-250.44 415.894,-243.516 405.307,-243.927 407.874,-250.44"/>
</g>
<!-- Node23 -->
<g id="node23" class="node"><title>Node23</title>
<g id="a_node23"><a xlink:href="_post_api_8h.html" target="_top" xlink:title=" ">
<polygon fill="white" stroke="black" points="0,-224.5 0,-243.5 91,-243.5 91,-224.5 0,-224.5"/>
<text text-anchor="middle" x="45.5" y="-231.5" font-family="Helvetica,sans-Serif" font-size="10.00">Cpl/Itc/PostApi.h</text>
</a>
</g>
</g>
<!-- Node22&#45;&gt;Node23 -->
<g id="edge31" class="edge"><title>Node22&#45;&gt;Node23</title>
<path fill="none" stroke="midnightblue" d="M260.094,-280.444C215.517,-271.004 143.732,-255.802 95.6081,-245.611"/>
<polygon fill="midnightblue" stroke="midnightblue" points="96.2246,-242.164 85.7165,-243.516 94.7744,-249.012 96.2246,-242.164"/>
</g>
<!-- Node25 -->
<g id="node25" class="node"><title>Node25</title>
<g id="a_node25"><a xlink:href="_s_list_8h.html" target="_top" xlink:title=" ">
<polygon fill="white" stroke="black" points="109,-224.5 109,-243.5 218,-243.5 218,-224.5 109,-224.5"/>
<text text-anchor="middle" x="163.5" y="-231.5" font-family="Helvetica,sans-Serif" font-size="10.00">Cpl/Container/SList.h</text>
</a>
</g>
</g>
<!-- Node22&#45;&gt;Node25 -->
<g id="edge34" class="edge"><title>Node22&#45;&gt;Node25</title>
<path fill="none" stroke="midnightblue" d="M278.792,-280.444C256.145,-271.517 220.428,-257.439 194.748,-247.317"/>
<polygon fill="midnightblue" stroke="midnightblue" points="195.693,-243.927 185.106,-243.516 193.126,-250.44 195.693,-243.927"/>
</g>
<!-- Node24 -->
<g id="node24" class="node"><title>Node24</title>
<g id="a_node24"><a xlink:href="_message_8h.html" target="_top" xlink:title=" ">
<polygon fill="white" stroke="black" points="29.5,-112.5 29.5,-131.5 125.5,-131.5 125.5,-112.5 29.5,-112.5"/>
<text text-anchor="middle" x="77.5" y="-119.5" font-family="Helvetica,sans-Serif" font-size="10.00">Cpl/Itc/Message.h</text>
</a>
</g>
</g>
<!-- Node23&#45;&gt;Node24 -->
<g id="edge32" class="edge"><title>Node23&#45;&gt;Node24</title>
<path fill="none" stroke="midnightblue" d="M48.011,-224.368C53.1984,-206.537 65.1959,-165.295 72.1846,-141.272"/>
<polygon fill="midnightblue" stroke="midnightblue" points="75.568,-142.171 75.0007,-131.591 68.8466,-140.216 75.568,-142.171"/>
</g>
<!-- Node24&#45;&gt;Node10 -->
<g id="edge33" class="edge"><title>Node24&#45;&gt;Node10</title>
<path fill="none" stroke="midnightblue" d="M125.881,-114.161C194.569,-104.451 320.433,-86.6587 396.386,-75.9219"/>
<polygon fill="midnightblue" stroke="midnightblue" points="396.893,-79.3851 406.304,-74.5198 395.913,-72.454 396.893,-79.3851"/>
</g>
<!-- Node25&#45;&gt;Node10 -->
<g id="edge35" class="edge"><title>Node25&#45;&gt;Node10</title>
<path fill="none" stroke="midnightblue" d="M162.504,-224.446C160.445,-202.263 158.316,-142.498 190.5,-112 219.369,-84.6438 326.182,-73.8129 396.214,-69.5991"/>
<polygon fill="midnightblue" stroke="midnightblue" points="396.483,-73.0896 406.266,-69.0242 396.083,-66.101 396.483,-73.0896"/>
</g>
<!-- Node26&#45;&gt;Node3 -->
<g id="edge40" class="edge"><title>Node26&#45;&gt;Node3</title>
<path fill="none" stroke="midnightblue" d="M938.792,-392.444C916.145,-383.517 880.428,-369.439 854.748,-359.317"/>
<polygon fill="midnightblue" stroke="midnightblue" points="855.693,-355.927 845.106,-355.516 853.126,-362.44 855.693,-355.927"/>
</g>
<!-- Node26&#45;&gt;Node27 -->
<g id="edge38" class="edge"><title>Node26&#45;&gt;Node27</title>
<path fill="none" stroke="midnightblue" d="M968.426,-392.083C975.346,-384.298 985.565,-372.801 993.952,-363.367"/>
<polygon fill="midnightblue" stroke="midnightblue" points="996.694,-365.55 1000.72,-355.751 991.462,-360.9 996.694,-365.55"/>
</g>
<!-- Node27&#45;&gt;Node19 -->
<g id="edge39" class="edge"><title>Node27&#45;&gt;Node19</title>
<path fill="none" stroke="midnightblue" d="M1007.59,-336.409C1005.38,-316.48 999.189,-265.629 989.5,-224 987.411,-215.024 984.45,-205.235 981.788,-197.086"/>
<polygon fill="midnightblue" stroke="midnightblue" points="985.075,-195.88 978.561,-187.524 978.443,-198.119 985.075,-195.88"/>
</g>
<!-- Node28&#45;&gt;Node12 -->
<g id="edge43" class="edge"><title>Node28&#45;&gt;Node12</title>
<path fill="none" stroke="midnightblue" d="M1396.21,-285.74C1425.39,-280.878 1459,-269.603 1477.5,-244 1483.01,-236.373 1490.44,-207.475 1476.5,-168 1469.75,-148.887 1456.55,-150.603 1448.5,-132 1433.77,-97.9683 1430.29,-54.155 1429.57,-29.6773"/>
<polygon fill="midnightblue" stroke="midnightblue" points="1433.07,-29.5578 1429.4,-19.6181 1426.07,-29.6756 1433.07,-29.5578"/>
</g>
<!-- Node28&#45;&gt;Node13 -->
<g id="edge64" class="edge"><title>Node28&#45;&gt;Node13</title>
<path fill="none" stroke="midnightblue" d="M1292.43,-280.454C1267.53,-273.996 1238.25,-262.881 1217.5,-244 1189.86,-218.846 1202.14,-199.158 1181.5,-168 1159.61,-134.96 1127.47,-101.592 1108.11,-82.6854"/>
<polygon fill="midnightblue" stroke="midnightblue" points="1110.52,-80.1507 1100.89,-75.7327 1105.67,-85.1916 1110.52,-80.1507"/>
</g>
<!-- Node28&#45;&gt;Node20 -->
<g id="edge61" class="edge"><title>Node28&#45;&gt;Node20</title>
<path fill="none" stroke="midnightblue" d="M1300.44,-280.452C1268.13,-272.968 1222.39,-260.676 1184.5,-244 1152.66,-229.986 1118.9,-207.858 1098.26,-193.385"/>
<polygon fill="midnightblue" stroke="midnightblue" points="1100.18,-190.458 1090,-187.514 1096.12,-196.162 1100.18,-190.458"/>
</g>
<!-- Node29 -->
<g id="node29" class="node"><title>Node29</title>
<g id="a_node29"><a xlink:href="_map_item_8h.html" target="_top" xlink:title=" ">
<polygon fill="white" stroke="black" points="1344,-224.5 1344,-243.5 1469,-243.5 1469,-224.5 1344,-224.5"/>
<text text-anchor="middle" x="1406.5" y="-231.5" font-family="Helvetica,sans-Serif" font-size="10.00">Cpl/Container/MapItem.h</text>
</a>
</g>
</g>
<!-- Node28&#45;&gt;Node29 -->
<g id="edge44" class="edge"><title>Node28&#45;&gt;Node29</title>
<path fill="none" stroke="midnightblue" d="M1351.94,-280.324C1361.65,-272.263 1376.32,-260.077 1388,-250.369"/>
<polygon fill="midnightblue" stroke="midnightblue" points="1390.41,-252.916 1395.87,-243.834 1385.94,-247.532 1390.41,-252.916"/>
</g>
<!-- Node33 -->
<g id="node33" class="node"><title>Node33</title>
<g id="a_node33"><a xlink:title=" ">
<polygon fill="white" stroke="#bfbfbf" points="1658.5,-0.5 1658.5,-19.5 1710.5,-19.5 1710.5,-0.5 1658.5,-0.5"/>
<text text-anchor="middle" x="1684.5" y="-7.5" font-family="Helvetica,sans-Serif" font-size="10.00">stddef.h</text>
</a>
</g>
</g>
<!-- Node28&#45;&gt;Node33 -->
<g id="edge63" class="edge"><title>Node28&#45;&gt;Node33</title>
<path fill="none" stroke="midnightblue" d="M1396.14,-286.395C1511.52,-279.402 1769.5,-255.241 1769.5,-179 1769.5,-179 1769.5,-179 1769.5,-121 1769.5,-79.765 1731.64,-44.5737 1706.45,-25.7262"/>
<polygon fill="midnightblue" stroke="midnightblue" points="1708.32,-22.7563 1698.16,-19.758 1704.23,-28.4388 1708.32,-22.7563"/>
</g>
<!-- Node35 -->
<g id="node35" class="node"><title>Node35</title>
<g id="a_node35"><a xlink:href="_text_2_string_8h.html" target="_top" xlink:title=" ">
<polygon fill="white" stroke="black" points="1598.5,-168.5 1598.5,-187.5 1688.5,-187.5 1688.5,-168.5 1598.5,-168.5"/>
<text text-anchor="middle" x="1643.5" y="-175.5" font-family="Helvetica,sans-Serif" font-size="10.00">Cpl/Text/String.h</text>
</a>
</g>
</g>
<!-- Node28&#45;&gt;Node35 -->
<g id="edge54" class="edge"><title>Node28&#45;&gt;Node35</title>
<path fill="none" stroke="midnightblue" d="M1396.17,-288.346C1472.25,-286.202 1604.35,-277.596 1636.5,-244 1648.13,-231.845 1648.64,-211.976 1647.01,-197.4"/>
<polygon fill="midnightblue" stroke="midnightblue" points="1650.46,-196.855 1645.49,-187.501 1643.55,-197.916 1650.46,-196.855"/>
</g>
<!-- Node38 -->
<g id="node38" class="node"><title>Node38</title>
<g id="a_node38"><a xlink:href="_static_info_8h.html" target="_top" xlink:title=" ">
<polygon fill="white" stroke="black" points="1525.5,-224.5 1525.5,-243.5 1627.5,-243.5 1627.5,-224.5 1525.5,-224.5"/>
<text text-anchor="middle" x="1576.5" y="-231.5" font-family="Helvetica,sans-Serif" font-size="10.00">Cpl/Dm/StaticInfo.h</text>
</a>
</g>
</g>
<!-- Node28&#45;&gt;Node38 -->
<g id="edge59" class="edge"><title>Node28&#45;&gt;Node38</title>
<path fill="none" stroke="midnightblue" d="M1378.74,-280.444C1419.56,-271.063 1485.14,-255.993 1529.48,-245.804"/>
<polygon fill="midnightblue" stroke="midnightblue" points="1530.48,-249.167 1539.44,-243.516 1528.91,-242.345 1530.48,-249.167"/>
</g>
<!-- Node39 -->
<g id="node39" class="node"><title>Node39</title>
<g id="a_node39"><a xlink:href="_arduino_8h_source.html" target="_top" xlink:title=" ">
<polygon fill="white" stroke="black" points="1227,-224.5 1227,-243.5 1326,-243.5 1326,-224.5 1227,-224.5"/>
<text text-anchor="middle" x="1276.5" y="-231.5" font-family="Helvetica,sans-Serif" font-size="10.00">Cpl/Json/Arduino.h</text>
</a>
</g>
</g>
<!-- Node28&#45;&gt;Node39 -->
<g id="edge62" class="edge"><title>Node28&#45;&gt;Node39</title>
<path fill="none" stroke="midnightblue" d="M1331.06,-280.324C1321.35,-272.263 1306.68,-260.077 1295,-250.369"/>
<polygon fill="midnightblue" stroke="midnightblue" points="1297.06,-247.532 1287.13,-243.834 1292.59,-252.916 1297.06,-247.532"/>
</g>
<!-- Node30 -->
<g id="node30" class="node"><title>Node30</title>
<g id="a_node30"><a xlink:href="_dict_item_8h.html" target="_top" xlink:title=" ">
<polygon fill="white" stroke="black" points="1345,-168.5 1345,-187.5 1468,-187.5 1468,-168.5 1345,-168.5"/>
<text text-anchor="middle" x="1406.5" y="-175.5" font-family="Helvetica,sans-Serif" font-size="10.00">Cpl/Container/DictItem.h</text>
</a>
</g>
</g>
<!-- Node29&#45;&gt;Node30 -->
<g id="edge45" class="edge"><title>Node29&#45;&gt;Node30</title>
<path fill="none" stroke="midnightblue" d="M1406.5,-224.083C1406.5,-217.006 1406.5,-206.861 1406.5,-197.986"/>
<polygon fill="midnightblue" stroke="midnightblue" points="1410,-197.751 1406.5,-187.751 1403,-197.751 1410,-197.751"/>
</g>
<!-- Node30&#45;&gt;Node10 -->
<g id="edge46" class="edge"><title>Node30&#45;&gt;Node10</title>
<path fill="none" stroke="midnightblue" d="M1344.64,-172.991C1247.95,-166.407 1055.2,-152.01 892.5,-132 836.223,-125.079 822.552,-120.556 766.5,-112 682.26,-99.1408 584.902,-84.9907 522.806,-76.0554"/>
<polygon fill="midnightblue" stroke="midnightblue" points="523.168,-72.5715 512.771,-74.6128 522.171,-79.5003 523.168,-72.5715"/>
</g>
<!-- Node31 -->
<g id="node31" class="node"><title>Node31</title>
<g id="a_node31"><a xlink:href="_key_8h.html" target="_top" xlink:title=" ">
<polygon fill="white" stroke="black" points="1457.5,-112.5 1457.5,-131.5 1561.5,-131.5 1561.5,-112.5 1457.5,-112.5"/>
<text text-anchor="middle" x="1509.5" y="-119.5" font-family="Helvetica,sans-Serif" font-size="10.00">Cpl/Container/Key.h</text>
</a>
</g>
</g>
<!-- Node30&#45;&gt;Node31 -->
<g id="edge47" class="edge"><title>Node30&#45;&gt;Node31</title>
<path fill="none" stroke="midnightblue" d="M1423.05,-168.324C1439.49,-159.703 1464.93,-146.364 1483.97,-136.386"/>
<polygon fill="midnightblue" stroke="midnightblue" points="1485.76,-139.398 1492.99,-131.655 1482.51,-133.198 1485.76,-139.398"/>
</g>
<!-- Node31&#45;&gt;Node8 -->
<g id="edge53" class="edge"><title>Node31&#45;&gt;Node8</title>
<path fill="none" stroke="midnightblue" d="M1471.15,-112.444C1429.03,-103.043 1361.29,-87.9291 1315.63,-77.7393"/>
<polygon fill="midnightblue" stroke="midnightblue" points="1316.19,-74.2784 1305.67,-75.5164 1314.66,-81.1103 1316.19,-74.2784"/>
</g>
<!-- Node31&#45;&gt;Node13 -->
<g id="edge51" class="edge"><title>Node31&#45;&gt;Node13</title>
<path fill="none" stroke="midnightblue" d="M1457.41,-114.27C1370.84,-103.087 1199.64,-80.9703 1126.24,-71.4882"/>
<polygon fill="midnightblue" stroke="midnightblue" points="1126.51,-67.9938 1116.14,-70.1837 1125.61,-74.9361 1126.51,-67.9938"/>
</g>
<!-- Node32 -->
<g id="node32" class="node"><title>Node32</title>
<g id="a_node32"><a xlink:href="_fatal_error_8h.html" target="_top" xlink:title=" ">
<polygon fill="white" stroke="black" points="1538.5,-56.5 1538.5,-75.5 1660.5,-75.5 1660.5,-56.5 1538.5,-56.5"/>
<text text-anchor="middle" x="1599.5" y="-63.5" font-family="Helvetica,sans-Serif" font-size="10.00">Cpl/System/FatalError.h</text>
</a>
</g>
</g>
<!-- Node31&#45;&gt;Node32 -->
<g id="edge48" class="edge"><title>Node31&#45;&gt;Node32</title>
<path fill="none" stroke="midnightblue" d="M1523.96,-112.324C1538,-103.9 1559.55,-90.9709 1576.04,-81.0741"/>
<polygon fill="midnightblue" stroke="midnightblue" points="1578.3,-83.8007 1585.08,-75.6545 1574.7,-77.7983 1578.3,-83.8007"/>
</g>
<!-- Node34 -->
<g id="node34" class="node"><title>Node34</title>
<g id="a_node34"><a xlink:title=" ">
<polygon fill="white" stroke="#bfbfbf" points="1471,-56.5 1471,-75.5 1520,-75.5 1520,-56.5 1471,-56.5"/>
<text text-anchor="middle" x="1495.5" y="-63.5" font-family="Helvetica,sans-Serif" font-size="10.00">string.h</text>
</a>
</g>
</g>
<!-- Node31&#45;&gt;Node34 -->
<g id="edge52" class="edge"><title>Node31&#45;&gt;Node34</title>
<path fill="none" stroke="midnightblue" d="M1507.19,-112.083C1505.33,-104.927 1502.66,-94.6353 1500.35,-85.6911"/>
<polygon fill="midnightblue" stroke="midnightblue" points="1503.67,-84.5527 1497.77,-75.7511 1496.89,-86.3094 1503.67,-84.5527"/>
</g>
<!-- Node32&#45;&gt;Node12 -->
<g id="edge50" class="edge"><title>Node32&#45;&gt;Node12</title>
<path fill="none" stroke="midnightblue" d="M1572.56,-56.4435C1543.84,-47.3196 1498.17,-32.8133 1466.18,-22.6509"/>
<polygon fill="midnightblue" stroke="midnightblue" points="1466.9,-19.2081 1456.31,-19.5164 1464.78,-25.8797 1466.9,-19.2081"/>
</g>
<!-- Node32&#45;&gt;Node33 -->
<g id="edge49" class="edge"><title>Node32&#45;&gt;Node33</title>
<path fill="none" stroke="midnightblue" d="M1613.16,-56.324C1626.42,-47.9002 1646.77,-34.9709 1662.35,-25.0741"/>
<polygon fill="midnightblue" stroke="midnightblue" points="1664.31,-27.9711 1670.88,-19.6545 1660.56,-22.0626 1664.31,-27.9711"/>
</g>
<!-- Node35&#45;&gt;Node8 -->
<g id="edge55" class="edge"><title>Node35&#45;&gt;Node8</title>
<path fill="none" stroke="midnightblue" d="M1636.52,-168.077C1624.67,-153.626 1599.09,-125.372 1570.5,-112 1526.33,-91.3429 1389.97,-77.1901 1316.16,-70.8226"/>
<polygon fill="midnightblue" stroke="midnightblue" points="1316.43,-67.3335 1306.17,-69.9759 1315.84,-74.3084 1316.43,-67.3335"/>
</g>
<!-- Node35&#45;&gt;Node31 -->
<g id="edge56" class="edge"><title>Node35&#45;&gt;Node31</title>
<path fill="none" stroke="midnightblue" d="M1622.27,-168.444C1600.12,-159.517 1565.18,-145.439 1540.06,-135.317"/>
<polygon fill="midnightblue" stroke="midnightblue" points="1541.22,-132.008 1530.63,-131.516 1538.6,-138.501 1541.22,-132.008"/>
</g>
<!-- Node36 -->
<g id="node36" class="node"><title>Node36</title>
<g id="a_node36"><a xlink:title=" ">
<polygon fill="white" stroke="#bfbfbf" points="1617.5,-112.5 1617.5,-131.5 1669.5,-131.5 1669.5,-112.5 1617.5,-112.5"/>
<text text-anchor="middle" x="1643.5" y="-119.5" font-family="Helvetica,sans-Serif" font-size="10.00">stdarg.h</text>
</a>
</g>
</g>
<!-- Node35&#45;&gt;Node36 -->
<g id="edge57" class="edge"><title>Node35&#45;&gt;Node36</title>
<path fill="none" stroke="midnightblue" d="M1643.5,-168.083C1643.5,-161.006 1643.5,-150.861 1643.5,-141.986"/>
<polygon fill="midnightblue" stroke="midnightblue" points="1647,-141.751 1643.5,-131.751 1640,-141.751 1647,-141.751"/>
</g>
<!-- Node37 -->
<g id="node37" class="node"><title>Node37</title>
<g id="a_node37"><a xlink:title=" ">
<polygon fill="white" stroke="#bfbfbf" points="1687.5,-112.5 1687.5,-131.5 1741.5,-131.5 1741.5,-112.5 1687.5,-112.5"/>
<text text-anchor="middle" x="1714.5" y="-119.5" font-family="Helvetica,sans-Serif" font-size="10.00">iostream</text>
</a>
</g>
</g>
<!-- Node35&#45;&gt;Node37 -->
<g id="edge58" class="edge"><title>Node35&#45;&gt;Node37</title>
<path fill="none" stroke="midnightblue" d="M1654.91,-168.324C1665.61,-160.185 1681.84,-147.839 1694.66,-138.087"/>
<polygon fill="midnightblue" stroke="midnightblue" points="1697.04,-140.673 1702.89,-131.834 1692.81,-135.102 1697.04,-140.673"/>
</g>
<!-- Node38&#45;&gt;Node31 -->
<g id="edge60" class="edge"><title>Node38&#45;&gt;Node31</title>
<path fill="none" stroke="midnightblue" d="M1571.24,-224.368C1560.23,-206.296 1534.58,-164.176 1520.04,-140.307"/>
<polygon fill="midnightblue" stroke="midnightblue" points="1522.92,-138.311 1514.73,-131.591 1516.95,-141.953 1522.92,-138.311"/>
</g>
<!-- Node41 -->
<g id="node41" class="node"><title>Node41</title>
<g id="a_node41"><a xlink:href="_subscriber_8h.html" target="_top" xlink:title=" ">
<polygon fill="white" stroke="black" points="1098,-336.5 1098,-355.5 1205,-355.5 1205,-336.5 1098,-336.5"/>
<text text-anchor="middle" x="1151.5" y="-343.5" font-family="Helvetica,sans-Serif" font-size="10.00">Cpl/Dm/Subscriber.h</text>
</a>
</g>
</g>
<!-- Node40&#45;&gt;Node41 -->
<g id="edge66" class="edge"><title>Node40&#45;&gt;Node41</title>
<path fill="none" stroke="midnightblue" d="M1151.5,-392.083C1151.5,-385.006 1151.5,-374.861 1151.5,-365.986"/>
<polygon fill="midnightblue" stroke="midnightblue" points="1155,-365.751 1151.5,-355.751 1148,-365.751 1155,-365.751"/>
</g>
<!-- Node41&#45;&gt;Node4 -->
<g id="edge69" class="edge"><title>Node41&#45;&gt;Node4</title>
<path fill="none" stroke="midnightblue" d="M1099.53,-336.444C1041.35,-326.865 947.141,-311.356 885.253,-301.167"/>
<polygon fill="midnightblue" stroke="midnightblue" points="885.665,-297.687 875.229,-299.516 884.528,-304.594 885.665,-297.687"/>
</g>
<!-- Node41&#45;&gt;Node13 -->
<g id="edge70" class="edge"><title>Node41&#45;&gt;Node13</title>
<path fill="none" stroke="midnightblue" d="M1152.74,-336.318C1156.18,-310.251 1164.45,-230.601 1147.5,-168 1138.81,-135.902 1117.87,-103 1104.21,-83.8094"/>
<polygon fill="midnightblue" stroke="midnightblue" points="1106.9,-81.5582 1098.17,-75.5536 1101.25,-85.6911 1106.9,-81.5582"/>
</g>
<!-- Node41&#45;&gt;Node20 -->
<g id="edge67" class="edge"><title>Node41&#45;&gt;Node20</title>
<path fill="none" stroke="midnightblue" d="M1147.58,-336.075C1136.03,-309.832 1102.05,-232.545 1086.47,-197.117"/>
<polygon fill="midnightblue" stroke="midnightblue" points="1089.5,-195.313 1082.27,-187.568 1083.09,-198.131 1089.5,-195.313"/>
</g>
<!-- Node41&#45;&gt;Node28 -->
<g id="edge68" class="edge"><title>Node41&#45;&gt;Node28</title>
<path fill="none" stroke="midnightblue" d="M1181.61,-336.444C1214.13,-327.201 1266.08,-312.436 1301.89,-302.257"/>
<polygon fill="midnightblue" stroke="midnightblue" points="1302.87,-305.617 1311.53,-299.516 1300.96,-298.884 1302.87,-305.617"/>
</g>
</g>
</svg>
