<?xml version="1.0" encoding="UTF-8" standalone="no"?>
<!DOCTYPE svg PUBLIC "-//W3C//DTD SVG 1.1//EN"
 "http://www.w3.org/Graphics/SVG/1.1/DTD/svg11.dtd">
<!-- Generated by graphviz version 2.38.0 (20140413.2041)
 -->
<!-- Title: Cpl/System/ElapsedTime.h Pages: 1 -->
<svg width="962pt" height="341pt"
 viewBox="0.00 0.00 962.00 341.00" xmlns="http://www.w3.org/2000/svg" xmlns:xlink="http://www.w3.org/1999/xlink">
<g id="graph0" class="graph" transform="scale(1 1) rotate(0) translate(4 337)">
<title>Cpl/System/ElapsedTime.h</title>
<polygon fill="white" stroke="none" points="-4,4 -4,-337 958,-337 958,4 -4,4"/>
<!-- Node1 -->
<g id="node1" class="node"><title>Node1</title>
<g id="a_node1"><a xlink:title=" ">
<polygon fill="#bfbfbf" stroke="black" points="142,-313.5 142,-332.5 278,-332.5 278,-313.5 142,-313.5"/>
<text text-anchor="middle" x="210" y="-320.5" font-family="Helvetica,sans-Serif" font-size="10.00">Cpl/System/ElapsedTime.h</text>
</a>
</g>
</g>
<!-- Node2 -->
<g id="node2" class="node"><title>Node2</title>
<g id="a_node2"><a xlink:href="_elapsed_precision_time_8h.html" target="_top" xlink:title=" ">
<polygon fill="white" stroke="black" points="2,-246.5 2,-276.5 146,-276.5 146,-246.5 2,-246.5"/>
<text text-anchor="start" x="10" y="-264.5" font-family="Helvetica,sans-Serif" font-size="10.00">Cpl/Dm/Mp/ElapsedPrecision</text>
<text text-anchor="middle" x="74" y="-253.5" font-family="Helvetica,sans-Serif" font-size="10.00">Time.h</text>
</a>
</g>
</g>
<!-- Node1&#45;&gt;Node2 -->
<g id="edge1" class="edge"><title>Node1&#45;&gt;Node2</title>
<path fill="none" stroke="midnightblue" d="M181.338,-309.461C159.31,-299.823 128.886,-286.513 106.053,-276.523"/>
<polygon fill="midnightblue" stroke="midnightblue" points="179.95,-312.673 190.515,-313.475 182.756,-306.26 179.95,-312.673"/>
</g>
<!-- Node3 -->
<g id="node3" class="node"><title>Node3</title>
<g id="a_node3"><a xlink:href="atob_8h.html" target="_top" xlink:title="This file contains a collection of methods that wrap the standard C library functions for converting ...">
<polygon fill="white" stroke="black" points="274.5,-252 274.5,-271 357.5,-271 357.5,-252 274.5,-252"/>
<text text-anchor="middle" x="316" y="-259" font-family="Helvetica,sans-Serif" font-size="10.00">Cpl/Text/atob.h</text>
</a>
</g>
</g>
<!-- Node1&#45;&gt;Node3 -->
<g id="edge2" class="edge"><title>Node1&#45;&gt;Node3</title>
<path fill="none" stroke="midnightblue" d="M233.95,-308.556C254.463,-297.042 283.379,-280.811 300.841,-271.009"/>
<polygon fill="midnightblue" stroke="midnightblue" points="232.194,-305.528 225.187,-313.475 235.621,-311.632 232.194,-305.528"/>
</g>
<!-- Node16 -->
<g id="node16" class="node"><title>Node16</title>
<g id="a_node16"><a xlink:href="format_8h.html" target="_top" xlink:title="This file contains some general purpose string formatting functions.">
<polygon fill="white" stroke="black" points="164,-252 164,-271 256,-271 256,-252 164,-252"/>
<text text-anchor="middle" x="210" y="-259" font-family="Helvetica,sans-Serif" font-size="10.00">Cpl/Text/format.h</text>
</a>
</g>
</g>
<!-- Node1&#45;&gt;Node16 -->
<g id="edge17" class="edge"><title>Node1&#45;&gt;Node16</title>
<path fill="none" stroke="midnightblue" d="M210,-303.317C210,-292.496 210,-279.398 210,-271.009"/>
<polygon fill="midnightblue" stroke="midnightblue" points="206.5,-303.475 210,-313.475 213.5,-303.475 206.5,-303.475"/>
</g>
<!-- Node4 -->
<g id="node4" class="node"><title>Node4</title>
<g id="a_node4"><a xlink:href="_bit_array16_8h.html" target="_top" xlink:title=" ">
<polygon fill="white" stroke="black" points="0,-134.5 0,-153.5 122,-153.5 122,-134.5 0,-134.5"/>
<text text-anchor="middle" x="61" y="-141.5" font-family="Helvetica,sans-Serif" font-size="10.00">Cpl/Dm/Mp/BitArray16.h</text>
</a>
</g>
</g>
<!-- Node3&#45;&gt;Node4 -->
<g id="edge3" class="edge"><title>Node3&#45;&gt;Node4</title>
<path fill="none" stroke="midnightblue" d="M287.439,-247.564C234.94,-223.785 124.421,-173.726 80.041,-153.624"/>
<polygon fill="midnightblue" stroke="midnightblue" points="286.28,-250.881 296.834,-251.819 289.168,-244.505 286.28,-250.881"/>
</g>
<!-- Node5 -->
<g id="node5" class="node"><title>Node5</title>
<g id="a_node5"><a xlink:href="_numeric_8h.html" target="_top" xlink:title=" ">
<polygon fill="white" stroke="black" points="316.5,-190.5 316.5,-209.5 429.5,-209.5 429.5,-190.5 316.5,-190.5"/>
<text text-anchor="middle" x="373" y="-197.5" font-family="Helvetica,sans-Serif" font-size="10.00">Cpl/Dm/Mp/Numeric.h</text>
</a>
</g>
</g>
<!-- Node3&#45;&gt;Node5 -->
<g id="edge4" class="edge"><title>Node3&#45;&gt;Node5</title>
<path fill="none" stroke="midnightblue" d="M331.33,-244.497C342.119,-233.236 356.135,-218.604 364.848,-209.509"/>
<polygon fill="midnightblue" stroke="midnightblue" points="328.557,-242.333 324.167,-251.975 333.612,-247.175 328.557,-242.333"/>
</g>
<!-- Node5&#45;&gt;Node4 -->
<g id="edge5" class="edge"><title>Node5&#45;&gt;Node4</title>
<path fill="none" stroke="midnightblue" d="M313.648,-188.727C254.689,-178.523 165.337,-163.058 110.206,-153.516"/>
<polygon fill="midnightblue" stroke="midnightblue" points="313.112,-192.187 323.563,-190.444 314.306,-185.289 313.112,-192.187"/>
</g>
<!-- Node6 -->
<g id="node6" class="node"><title>Node6</title>
<g id="a_node6"><a xlink:href="_double_8h.html" target="_top" xlink:title=" ">
<polygon fill="white" stroke="black" points="140.5,-134.5 140.5,-153.5 247.5,-153.5 247.5,-134.5 140.5,-134.5"/>
<text text-anchor="middle" x="194" y="-141.5" font-family="Helvetica,sans-Serif" font-size="10.00">Cpl/Dm/Mp/Double.h</text>
</a>
</g>
</g>
<!-- Node5&#45;&gt;Node6 -->
<g id="edge6" class="edge"><title>Node5&#45;&gt;Node6</title>
<path fill="none" stroke="midnightblue" d="M334.669,-187.436C300.92,-177.255 252.553,-162.664 222.23,-153.516"/>
<polygon fill="midnightblue" stroke="midnightblue" points="334.052,-190.906 344.637,-190.444 336.074,-184.204 334.052,-190.906"/>
</g>
<!-- Node7 -->
<g id="node7" class="node"><title>Node7</title>
<g id="a_node7"><a xlink:href="_float_8h.html" target="_top" xlink:title=" ">
<polygon fill="white" stroke="black" points="266,-134.5 266,-153.5 364,-153.5 364,-134.5 266,-134.5"/>
<text text-anchor="middle" x="315" y="-141.5" font-family="Helvetica,sans-Serif" font-size="10.00">Cpl/Dm/Mp/Float.h</text>
</a>
</g>
</g>
<!-- Node5&#45;&gt;Node7 -->
<g id="edge7" class="edge"><title>Node5&#45;&gt;Node7</title>
<path fill="none" stroke="midnightblue" d="M356.087,-183.253C345.797,-173.673 333.034,-161.791 324.488,-153.834"/>
<polygon fill="midnightblue" stroke="midnightblue" points="353.977,-186.071 363.681,-190.324 358.747,-180.948 353.977,-186.071"/>
</g>
<!-- Node8 -->
<g id="node8" class="node"><title>Node8</title>
<g id="a_node8"><a xlink:href="_int32_8h.html" target="_top" xlink:title=" ">
<polygon fill="white" stroke="black" points="382,-134.5 382,-153.5 480,-153.5 480,-134.5 382,-134.5"/>
<text text-anchor="middle" x="431" y="-141.5" font-family="Helvetica,sans-Serif" font-size="10.00">Cpl/Dm/Mp/Int32.h</text>
</a>
</g>
</g>
<!-- Node5&#45;&gt;Node8 -->
<g id="edge8" class="edge"><title>Node5&#45;&gt;Node8</title>
<path fill="none" stroke="midnightblue" d="M389.913,-183.253C400.203,-173.673 412.966,-161.791 421.512,-153.834"/>
<polygon fill="midnightblue" stroke="midnightblue" points="387.253,-180.948 382.319,-190.324 392.023,-186.071 387.253,-180.948"/>
</g>
<!-- Node9 -->
<g id="node9" class="node"><title>Node9</title>
<g id="a_node9"><a xlink:href="_int64_8h.html" target="_top" xlink:title=" ">
<polygon fill="white" stroke="black" points="498,-134.5 498,-153.5 596,-153.5 596,-134.5 498,-134.5"/>
<text text-anchor="middle" x="547" y="-141.5" font-family="Helvetica,sans-Serif" font-size="10.00">Cpl/Dm/Mp/Int64.h</text>
</a>
</g>
</g>
<!-- Node5&#45;&gt;Node9 -->
<g id="edge9" class="edge"><title>Node5&#45;&gt;Node9</title>
<path fill="none" stroke="midnightblue" d="M410.261,-187.436C443.067,-177.255 490.083,-162.664 519.558,-153.516"/>
<polygon fill="midnightblue" stroke="midnightblue" points="409.084,-184.137 400.571,-190.444 411.159,-190.822 409.084,-184.137"/>
</g>
<!-- Node10 -->
<g id="node10" class="node"><title>Node10</title>
<g id="a_node10"><a xlink:href="_uint32_8h.html" target="_top" xlink:title=" ">
<polygon fill="white" stroke="black" points="614,-134.5 614,-153.5 718,-153.5 718,-134.5 614,-134.5"/>
<text text-anchor="middle" x="666" y="-141.5" font-family="Helvetica,sans-Serif" font-size="10.00">Cpl/Dm/Mp/Uint32.h</text>
</a>
</g>
</g>
<!-- Node5&#45;&gt;Node10 -->
<g id="edge10" class="edge"><title>Node5&#45;&gt;Node10</title>
<path fill="none" stroke="midnightblue" d="M429.426,-188.601C484.799,-178.395 568.231,-163.019 619.79,-153.516"/>
<polygon fill="midnightblue" stroke="midnightblue" points="428.627,-185.189 419.427,-190.444 429.895,-192.073 428.627,-185.189"/>
</g>
<!-- Node13 -->
<g id="node13" class="node"><title>Node13</title>
<g id="a_node13"><a xlink:href="_uint64_8h.html" target="_top" xlink:title=" ">
<polygon fill="white" stroke="black" points="736,-134.5 736,-153.5 840,-153.5 840,-134.5 736,-134.5"/>
<text text-anchor="middle" x="788" y="-141.5" font-family="Helvetica,sans-Serif" font-size="10.00">Cpl/Dm/Mp/Uint64.h</text>
</a>
</g>
</g>
<!-- Node5&#45;&gt;Node13 -->
<g id="edge13" class="edge"><title>Node5&#45;&gt;Node13</title>
<path fill="none" stroke="midnightblue" d="M439.935,-190.897C511.158,-182.18 627.111,-167.716 727,-154 729.863,-153.607 732.801,-153.196 735.766,-152.777"/>
<polygon fill="midnightblue" stroke="midnightblue" points="439.26,-187.453 429.759,-192.14 440.109,-194.401 439.26,-187.453"/>
</g>
<!-- Node15 -->
<g id="node15" class="node"><title>Node15</title>
<g id="a_node15"><a xlink:href="_void_8h.html" target="_top" xlink:title=" ">
<polygon fill="white" stroke="black" points="858,-134.5 858,-153.5 954,-153.5 954,-134.5 858,-134.5"/>
<text text-anchor="middle" x="906" y="-141.5" font-family="Helvetica,sans-Serif" font-size="10.00">Cpl/Dm/Mp/Void.h</text>
</a>
</g>
</g>
<!-- Node5&#45;&gt;Node15 -->
<g id="edge16" class="edge"><title>Node5&#45;&gt;Node15</title>
<path fill="none" stroke="midnightblue" d="M439.571,-194.024C531.738,-186.835 703.339,-172.367 849,-154 851.883,-153.637 854.843,-153.24 857.828,-152.822"/>
<polygon fill="midnightblue" stroke="midnightblue" points="439.245,-190.539 429.546,-194.802 439.787,-197.518 439.245,-190.539"/>
</g>
<!-- Node11 -->
<g id="node11" class="node"><title>Node11</title>
<g id="a_node11"><a xlink:href="_ring_buffer_m_p_8h.html" target="_top" xlink:title=" ">
<polygon fill="white" stroke="black" points="573.5,-73 573.5,-92 720.5,-92 720.5,-73 573.5,-73"/>
<text text-anchor="middle" x="647" y="-80" font-family="Helvetica,sans-Serif" font-size="10.00">Cpl/Container/RingBufferMP.h</text>
</a>
</g>
</g>
<!-- Node10&#45;&gt;Node11 -->
<g id="edge11" class="edge"><title>Node10&#45;&gt;Node11</title>
<path fill="none" stroke="midnightblue" d="M660.143,-124.657C656.667,-113.772 652.424,-100.486 649.717,-92.0091"/>
<polygon fill="midnightblue" stroke="midnightblue" points="656.902,-126.014 663.278,-134.475 663.57,-123.884 656.902,-126.014"/>
</g>
<!-- Node12 -->
<g id="node12" class="node"><title>Node12</title>
<g id="a_node12"><a xlink:href="_indexed_entry_server_8h.html" target="_top" xlink:title=" ">
<polygon fill="white" stroke="black" points="657.5,-0.5 657.5,-30.5 796.5,-30.5 796.5,-0.5 657.5,-0.5"/>
<text text-anchor="start" x="665.5" y="-18.5" font-family="Helvetica,sans-Serif" font-size="10.00">Cpl/Persistent/IndexedEntry</text>
<text text-anchor="middle" x="727" y="-7.5" font-family="Helvetica,sans-Serif" font-size="10.00">Server.h</text>
</a>
</g>
</g>
<!-- Node11&#45;&gt;Node12 -->
<g id="edge12" class="edge"><title>Node11&#45;&gt;Node12</title>
<path fill="none" stroke="midnightblue" d="M665.785,-66.2371C679.059,-55.4518 696.72,-41.1025 709.66,-30.589"/>
<polygon fill="midnightblue" stroke="midnightblue" points="663.343,-63.7114 657.789,-72.7338 667.757,-69.1443 663.343,-63.7114"/>
</g>
<!-- Node14 -->
<g id="node14" class="node"><title>Node14</title>
<g id="a_node14"><a xlink:href="_indexed_entry_record_8h.html" target="_top" xlink:title=" ">
<polygon fill="white" stroke="black" points="738.5,-67.5 738.5,-97.5 877.5,-97.5 877.5,-67.5 738.5,-67.5"/>
<text text-anchor="start" x="746.5" y="-85.5" font-family="Helvetica,sans-Serif" font-size="10.00">Cpl/Persistent/IndexedEntry</text>
<text text-anchor="middle" x="808" y="-74.5" font-family="Helvetica,sans-Serif" font-size="10.00">Record.h</text>
</a>
</g>
</g>
<!-- Node13&#45;&gt;Node14 -->
<g id="edge14" class="edge"><title>Node13&#45;&gt;Node14</title>
<path fill="none" stroke="midnightblue" d="M794.112,-124.816C797.062,-116.041 800.546,-105.676 803.286,-97.523"/>
<polygon fill="midnightblue" stroke="midnightblue" points="790.734,-123.881 790.866,-134.475 797.369,-126.111 790.734,-123.881"/>
</g>
<!-- Node14&#45;&gt;Node12 -->
<g id="edge15" class="edge"><title>Node14&#45;&gt;Node12</title>
<path fill="none" stroke="midnightblue" d="M782.308,-60.8832C769.999,-51.0054 755.573,-39.4293 744.541,-30.5765"/>
<polygon fill="midnightblue" stroke="midnightblue" points="780.434,-63.867 790.424,-67.396 784.815,-58.4075 780.434,-63.867"/>
</g>
<!-- Node16&#45;&gt;Node4 -->
<g id="edge18" class="edge"><title>Node16&#45;&gt;Node4</title>
<path fill="none" stroke="midnightblue" d="M190.773,-245.596C159.286,-221.188 97.6935,-173.444 72.3292,-153.782"/>
<polygon fill="midnightblue" stroke="midnightblue" points="188.753,-248.458 198.801,-251.819 193.042,-242.926 188.753,-248.458"/>
</g>
<!-- Node16&#45;&gt;Node5 -->
<g id="edge19" class="edge"><title>Node16&#45;&gt;Node5</title>
<path fill="none" stroke="midnightblue" d="M243.058,-248.433C274.739,-236.868 321.749,-219.708 349.689,-209.509"/>
<polygon fill="midnightblue" stroke="midnightblue" points="241.547,-245.258 233.354,-251.975 243.948,-251.834 241.547,-245.258"/>
</g>
</g>
</svg>
