<?xml version="1.0" encoding="UTF-8" standalone="no"?>
<!DOCTYPE svg PUBLIC "-//W3C//DTD SVG 1.1//EN"
 "http://www.w3.org/Graphics/SVG/1.1/DTD/svg11.dtd">
<!-- Generated by graphviz version 2.38.0 (20140413.2041)
 -->
<!-- Title: Cpl/Dm/Mp/ElapsedPrecisionTime.h Pages: 1 -->
<svg width="594pt" height="173pt"
 viewBox="0.00 0.00 593.50 173.00" xmlns="http://www.w3.org/2000/svg" xmlns:xlink="http://www.w3.org/1999/xlink">
<g id="graph0" class="graph" transform="scale(1 1) rotate(0) translate(4 169)">
<title>Cpl/Dm/Mp/ElapsedPrecisionTime.h</title>
<polygon fill="white" stroke="none" points="-4,4 -4,-169 589.5,-169 589.5,4 -4,4"/>
<!-- Node1 -->
<g id="node1" class="node"><title>Node1</title>
<g id="a_node1"><a xlink:title=" ">
<polygon fill="#bfbfbf" stroke="black" points="148,-134.5 148,-164.5 292,-164.5 292,-134.5 148,-134.5"/>
<text text-anchor="start" x="156" y="-152.5" font-family="Helvetica,sans-Serif" font-size="10.00">Cpl/Dm/Mp/ElapsedPrecision</text>
<text text-anchor="middle" x="220" y="-141.5" font-family="Helvetica,sans-Serif" font-size="10.00">Time.h</text>
</a>
</g>
</g>
<!-- Node2 -->
<g id="node2" class="node"><title>Node2</title>
<g id="a_node2"><a xlink:href="_air_filter_monitor_8h.html" target="_top" xlink:title=" ">
<polygon fill="white" stroke="black" points="0,-67.5 0,-97.5 132,-97.5 132,-67.5 0,-67.5"/>
<text text-anchor="start" x="8" y="-85.5" font-family="Helvetica,sans-Serif" font-size="10.00">Storm/Component/AirFilter</text>
<text text-anchor="middle" x="66" y="-74.5" font-family="Helvetica,sans-Serif" font-size="10.00">Monitor.h</text>
</a>
</g>
</g>
<!-- Node1&#45;&gt;Node2 -->
<g id="edge1" class="edge"><title>Node1&#45;&gt;Node2</title>
<path fill="none" stroke="midnightblue" d="M177.133,-130.407C152.547,-120.029 122.14,-107.195 99.3505,-97.5765"/>
<polygon fill="midnightblue" stroke="midnightblue" points="176.01,-133.732 186.584,-134.396 178.732,-127.283 176.01,-133.732"/>
</g>
<!-- Node4 -->
<g id="node4" class="node"><title>Node4</title>
<g id="a_node4"><a xlink:href="_component_2_operating_mode_8h.html" target="_top" xlink:title=" ">
<polygon fill="white" stroke="black" points="150,-67.5 150,-97.5 290,-97.5 290,-67.5 150,-67.5"/>
<text text-anchor="start" x="158" y="-85.5" font-family="Helvetica,sans-Serif" font-size="10.00">Storm/Component/Operating</text>
<text text-anchor="middle" x="220" y="-74.5" font-family="Helvetica,sans-Serif" font-size="10.00">Mode.h</text>
</a>
</g>
</g>
<!-- Node1&#45;&gt;Node4 -->
<g id="edge3" class="edge"><title>Node1&#45;&gt;Node4</title>
<path fill="none" stroke="midnightblue" d="M220,-124.108C220,-115.154 220,-105.323 220,-97.5765"/>
<polygon fill="midnightblue" stroke="midnightblue" points="216.5,-124.396 220,-134.396 223.5,-124.396 216.5,-124.396"/>
</g>
<!-- Node5 -->
<g id="node5" class="node"><title>Node5</title>
<g id="a_node5"><a xlink:href="_model_points_8h.html" target="_top" xlink:title=" ">
<polygon fill="white" stroke="black" points="308.5,-73 308.5,-92 469.5,-92 469.5,-73 308.5,-73"/>
<text text-anchor="middle" x="389" y="-80" font-family="Helvetica,sans-Serif" font-size="10.00">Storm/Thermostat/ModelPoints.h</text>
</a>
</g>
</g>
<!-- Node1&#45;&gt;Node5 -->
<g id="edge5" class="edge"><title>Node1&#45;&gt;Node5</title>
<path fill="none" stroke="midnightblue" d="M266.062,-130.784C298.83,-118.181 341.399,-101.808 366.882,-92.007"/>
<polygon fill="midnightblue" stroke="midnightblue" points="264.747,-127.539 256.67,-134.396 267.26,-134.073 264.747,-127.539"/>
</g>
<!-- Node3 -->
<g id="node3" class="node"><title>Node3</title>
<g id="a_node3"><a xlink:href="_algorithm_8h.html" target="_top" xlink:title=" ">
<polygon fill="white" stroke="black" points="9,-6 9,-25 157,-25 157,-6 9,-6"/>
<text text-anchor="middle" x="83" y="-13" font-family="Helvetica,sans-Serif" font-size="10.00">Storm/Thermostat/Algorithm.h</text>
</a>
</g>
</g>
<!-- Node2&#45;&gt;Node3 -->
<g id="edge2" class="edge"><title>Node2&#45;&gt;Node3</title>
<path fill="none" stroke="midnightblue" d="M72.2517,-57.5965C75.2119,-46.2781 78.564,-33.4611 80.726,-25.1945"/>
<polygon fill="midnightblue" stroke="midnightblue" points="68.833,-56.8358 69.6887,-67.396 75.6052,-58.607 68.833,-56.8358"/>
</g>
<!-- Node4&#45;&gt;Node3 -->
<g id="edge4" class="edge"><title>Node4&#45;&gt;Node3</title>
<path fill="none" stroke="midnightblue" d="M180.939,-62.9674C154.622,-50.481 121.145,-34.5978 100.93,-25.007"/>
<polygon fill="midnightblue" stroke="midnightblue" points="179.738,-66.2715 190.273,-67.396 182.739,-59.9472 179.738,-66.2715"/>
</g>
<!-- Node6 -->
<g id="node6" class="node"><title>Node6</title>
<g id="a_node6"><a xlink:href="_installer_record_8h_source.html" target="_top" xlink:title=" ">
<polygon fill="white" stroke="black" points="192.5,-0.5 192.5,-30.5 311.5,-30.5 311.5,-0.5 192.5,-0.5"/>
<text text-anchor="start" x="200.5" y="-18.5" font-family="Helvetica,sans-Serif" font-size="10.00">Storm/Thermostat/Main</text>
<text text-anchor="middle" x="252" y="-7.5" font-family="Helvetica,sans-Serif" font-size="10.00">/InstallerRecord.h</text>
</a>
</g>
</g>
<!-- Node5&#45;&gt;Node6 -->
<g id="edge6" class="edge"><title>Node5&#45;&gt;Node6</title>
<path fill="none" stroke="midnightblue" d="M361.545,-68.4738C338.384,-57.485 305.306,-41.791 281.567,-30.5281"/>
<polygon fill="midnightblue" stroke="midnightblue" points="360.272,-71.7441 370.807,-72.8685 363.273,-65.4198 360.272,-71.7441"/>
</g>
<!-- Node7 -->
<g id="node7" class="node"><title>Node7</title>
<g id="a_node7"><a xlink:href="_run_time_record_8h_source.html" target="_top" xlink:title=" ">
<polygon fill="white" stroke="black" points="329.5,-0.5 329.5,-30.5 448.5,-30.5 448.5,-0.5 329.5,-0.5"/>
<text text-anchor="start" x="337.5" y="-18.5" font-family="Helvetica,sans-Serif" font-size="10.00">Storm/Thermostat/Main</text>
<text text-anchor="middle" x="389" y="-7.5" font-family="Helvetica,sans-Serif" font-size="10.00">/RunTimeRecord.h</text>
</a>
</g>
</g>
<!-- Node5&#45;&gt;Node7 -->
<g id="edge7" class="edge"><title>Node5&#45;&gt;Node7</title>
<path fill="none" stroke="midnightblue" d="M389,-62.4107C389,-52.222 389,-39.901 389,-30.589"/>
<polygon fill="midnightblue" stroke="midnightblue" points="385.5,-62.7338 389,-72.7338 392.5,-62.7338 385.5,-62.7338"/>
</g>
<!-- Node8 -->
<g id="node8" class="node"><title>Node8</title>
<g id="a_node8"><a xlink:href="_user_record_8h_source.html" target="_top" xlink:title=" ">
<polygon fill="white" stroke="black" points="466.5,-0.5 466.5,-30.5 585.5,-30.5 585.5,-0.5 466.5,-0.5"/>
<text text-anchor="start" x="474.5" y="-18.5" font-family="Helvetica,sans-Serif" font-size="10.00">Storm/Thermostat/Main</text>
<text text-anchor="middle" x="526" y="-7.5" font-family="Helvetica,sans-Serif" font-size="10.00">/UserRecord.h</text>
</a>
</g>
</g>
<!-- Node5&#45;&gt;Node8 -->
<g id="edge8" class="edge"><title>Node5&#45;&gt;Node8</title>
<path fill="none" stroke="midnightblue" d="M416.455,-68.4738C439.616,-57.485 472.694,-41.791 496.433,-30.5281"/>
<polygon fill="midnightblue" stroke="midnightblue" points="414.727,-65.4198 407.193,-72.8685 417.728,-71.7441 414.727,-65.4198"/>
</g>
</g>
</svg>
