<?xml version="1.0" encoding="UTF-8" standalone="no"?>
<!DOCTYPE svg PUBLIC "-//W3C//DTD SVG 1.1//EN"
 "http://www.w3.org/Graphics/SVG/1.1/DTD/svg11.dtd">
<!-- Generated by graphviz version 2.38.0 (20140413.2041)
 -->
<!-- Title: Cpl/Text/Frame/Encoder.h Pages: 1 -->
<svg width="346pt" height="252pt"
 viewBox="0.00 0.00 346.00 252.00" xmlns="http://www.w3.org/2000/svg" xmlns:xlink="http://www.w3.org/1999/xlink">
<g id="graph0" class="graph" transform="scale(1 1) rotate(0) translate(4 248)">
<title>Cpl/Text/Frame/Encoder.h</title>
<polygon fill="white" stroke="none" points="-4,4 -4,-248 342,-248 342,4 -4,4"/>
<!-- Node1 -->
<g id="node1" class="node"><title>Node1</title>
<g id="a_node1"><a xlink:title=" ">
<polygon fill="#bfbfbf" stroke="black" points="105,-224.5 105,-243.5 236,-243.5 236,-224.5 105,-224.5"/>
<text text-anchor="middle" x="170.5" y="-231.5" font-family="Helvetica,sans-Serif" font-size="10.00">Cpl/Text/Frame/Encoder.h</text>
</a>
</g>
</g>
<!-- Node2 -->
<g id="node2" class="node"><title>Node2</title>
<g id="a_node2"><a xlink:href="_encoder___8h.html" target="_top" xlink:title=" ">
<polygon fill="white" stroke="black" points="102,-168.5 102,-187.5 239,-187.5 239,-168.5 102,-168.5"/>
<text text-anchor="middle" x="170.5" y="-175.5" font-family="Helvetica,sans-Serif" font-size="10.00">Cpl/Text/Frame/Encoder_.h</text>
</a>
</g>
</g>
<!-- Node1&#45;&gt;Node2 -->
<g id="edge1" class="edge"><title>Node1&#45;&gt;Node2</title>
<path fill="none" stroke="midnightblue" d="M170.5,-213.805C170.5,-204.91 170.5,-194.78 170.5,-187.751"/>
<polygon fill="midnightblue" stroke="midnightblue" points="167,-214.083 170.5,-224.083 174,-214.083 167,-214.083"/>
</g>
<!-- Node3 -->
<g id="node3" class="node"><title>Node3</title>
<g id="a_node3"><a xlink:href="_stream_encoder_8h.html" target="_top" xlink:title=" ">
<polygon fill="white" stroke="black" points="0,-112.5 0,-131.5 163,-131.5 163,-112.5 0,-112.5"/>
<text text-anchor="middle" x="81.5" y="-119.5" font-family="Helvetica,sans-Serif" font-size="10.00">Cpl/Text/Frame/StreamEncoder.h</text>
</a>
</g>
</g>
<!-- Node2&#45;&gt;Node3 -->
<g id="edge2" class="edge"><title>Node2&#45;&gt;Node3</title>
<path fill="none" stroke="midnightblue" d="M147.262,-162.901C130.942,-152.999 109.635,-140.071 95.7639,-131.655"/>
<polygon fill="midnightblue" stroke="midnightblue" points="145.836,-166.129 156.201,-168.324 149.467,-160.144 145.836,-166.129"/>
</g>
<!-- Node6 -->
<g id="node6" class="node"><title>Node6</title>
<g id="a_node6"><a xlink:href="_string_encoder_8h.html" target="_top" xlink:title=" ">
<polygon fill="white" stroke="black" points="181,-112.5 181,-131.5 338,-131.5 338,-112.5 181,-112.5"/>
<text text-anchor="middle" x="259.5" y="-119.5" font-family="Helvetica,sans-Serif" font-size="10.00">Cpl/Text/Frame/StringEncoder.h</text>
</a>
</g>
</g>
<!-- Node2&#45;&gt;Node6 -->
<g id="edge5" class="edge"><title>Node2&#45;&gt;Node6</title>
<path fill="none" stroke="midnightblue" d="M193.738,-162.901C210.058,-152.999 231.365,-140.071 245.236,-131.655"/>
<polygon fill="midnightblue" stroke="midnightblue" points="191.533,-160.144 184.799,-168.324 195.164,-166.129 191.533,-160.144"/>
</g>
<!-- Node4 -->
<g id="node4" class="node"><title>Node4</title>
<g id="a_node4"><a xlink:href="_processor_8h.html" target="_top" xlink:title=" ">
<polygon fill="white" stroke="black" points="23,-56.5 23,-75.5 140,-75.5 140,-56.5 23,-56.5"/>
<text text-anchor="middle" x="81.5" y="-63.5" font-family="Helvetica,sans-Serif" font-size="10.00">Cpl/TShell/Processor.h</text>
</a>
</g>
</g>
<!-- Node3&#45;&gt;Node4 -->
<g id="edge3" class="edge"><title>Node3&#45;&gt;Node4</title>
<path fill="none" stroke="midnightblue" d="M81.5,-101.805C81.5,-92.9102 81.5,-82.7798 81.5,-75.7511"/>
<polygon fill="midnightblue" stroke="midnightblue" points="78.0001,-102.083 81.5,-112.083 85.0001,-102.083 78.0001,-102.083"/>
</g>
<!-- Node5 -->
<g id="node5" class="node"><title>Node5</title>
<g id="a_node5"><a xlink:href="_maker_8h.html" target="_top" xlink:title=" ">
<polygon fill="white" stroke="black" points="31.5,-0.5 31.5,-19.5 131.5,-19.5 131.5,-0.5 31.5,-0.5"/>
<text text-anchor="middle" x="81.5" y="-7.5" font-family="Helvetica,sans-Serif" font-size="10.00">Cpl/TShell/Maker.h</text>
</a>
</g>
</g>
<!-- Node4&#45;&gt;Node5 -->
<g id="edge4" class="edge"><title>Node4&#45;&gt;Node5</title>
<path fill="none" stroke="midnightblue" d="M81.5,-45.8045C81.5,-36.9102 81.5,-26.7798 81.5,-19.7511"/>
<polygon fill="midnightblue" stroke="midnightblue" points="78.0001,-46.083 81.5,-56.083 85.0001,-46.083 78.0001,-46.083"/>
</g>
</g>
</svg>
