<?xml version="1.0" encoding="UTF-8" standalone="no"?>
<!DOCTYPE svg PUBLIC "-//W3C//DTD SVG 1.1//EN"
 "http://www.w3.org/Graphics/SVG/1.1/DTD/svg11.dtd">
<!-- Generated by graphviz version 10.0.1 (20240210.2158)
 -->
<!-- Title: Cpl/Text/FString_.h Pages: 1 -->
<svg width="384pt" height="308pt"
 viewBox="0.00 0.00 384.12 308.00" xmlns="http://www.w3.org/2000/svg" xmlns:xlink="http://www.w3.org/1999/xlink">
<g id="graph0" class="graph" transform="scale(1 1) rotate(0) translate(4 304)">
<title>Cpl/Text/FString_.h</title>
<!-- Node1 -->
<g id="Node000001" class="node">
<title>Node1</title>
<g id="a_Node000001"><a xlink:title=" ">
<polygon fill="#999999" stroke="#666666" points="123,-300 23,-300 23,-280 123,-280 123,-300"/>
<text text-anchor="middle" x="73" y="-286.5" font-family="Helvetica,sans-Serif" font-size="10.00">Cpl/Text/FString_.h</text>
</a>
</g>
</g>
<!-- Node2 -->
<g id="Node000002" class="node">
<title>Node2</title>
<g id="a_Node000002"><a xlink:title=" ">
<polygon fill="#e0e0e0" stroke="#999999" points="90.75,-20 7.25,-20 7.25,0 90.75,0 90.75,-20"/>
<text text-anchor="middle" x="49" y="-6.5" font-family="Helvetica,sans-Serif" font-size="10.00">colony_config.h</text>
</a>
</g>
</g>
<!-- Node1&#45;&gt;Node2 -->
<g id="edge1_Node000001_Node000002" class="edge">
<title>Node1&#45;&gt;Node2</title>
<g id="a_edge1_Node000001_Node000002"><a xlink:title=" ">
<path fill="none" stroke="#63b8ff" d="M60.95,-279.52C40.21,-262.05 0,-222.55 0,-179 0,-179 0,-179 0,-121 0,-86.48 20.38,-50.73 34.85,-29.7"/>
<polygon fill="#63b8ff" stroke="#63b8ff" points="37.68,-31.77 40.67,-21.6 32,-27.68 37.68,-31.77"/>
</a>
</g>
</g>
<!-- Node3 -->
<g id="Node000003" class="node">
<title>Node3</title>
<g id="a_Node000003"><a xlink:href="_string___8h.html" target="_top" xlink:title=" ">
<polygon fill="white" stroke="#666666" points="176,-244 82,-244 82,-224 176,-224 176,-244"/>
<text text-anchor="middle" x="129" y="-230.5" font-family="Helvetica,sans-Serif" font-size="10.00">Cpl/Text/String_.h</text>
</a>
</g>
</g>
<!-- Node1&#45;&gt;Node3 -->
<g id="edge2_Node000001_Node000003" class="edge">
<title>Node1&#45;&gt;Node3</title>
<g id="a_edge2_Node000001_Node000003"><a xlink:title=" ">
<path fill="none" stroke="#63b8ff" d="M82.75,-279.59C90.62,-272.01 101.9,-261.13 111.35,-252.02"/>
<polygon fill="#63b8ff" stroke="#63b8ff" points="113.5,-254.81 118.27,-245.35 108.64,-249.77 113.5,-254.81"/>
</a>
</g>
</g>
<!-- Node4 -->
<g id="Node000004" class="node">
<title>Node4</title>
<g id="a_Node000004"><a xlink:href="_text_2_string_8h.html" target="_top" xlink:title=" ">
<polygon fill="white" stroke="#666666" points="217.38,-188 128.62,-188 128.62,-168 217.38,-168 217.38,-188"/>
<text text-anchor="middle" x="173" y="-174.5" font-family="Helvetica,sans-Serif" font-size="10.00">Cpl/Text/String.h</text>
</a>
</g>
</g>
<!-- Node3&#45;&gt;Node4 -->
<g id="edge3_Node000003_Node000004" class="edge">
<title>Node3&#45;&gt;Node4</title>
<g id="a_edge3_Node000003_Node000004"><a xlink:title=" ">
<path fill="none" stroke="#63b8ff" d="M136.66,-223.59C142.59,-216.32 150.99,-206.02 158.21,-197.15"/>
<polygon fill="#63b8ff" stroke="#63b8ff" points="160.86,-199.43 164.47,-189.47 155.44,-195.01 160.86,-199.43"/>
</a>
</g>
</g>
<!-- Node5 -->
<g id="Node000005" class="node">
<title>Node5</title>
<g id="a_Node000005"><a xlink:title=" ">
<polygon fill="#e0e0e0" stroke="#999999" points="104.38,-76 27.62,-76 27.62,-56 104.38,-56 104.38,-76"/>
<text text-anchor="middle" x="66" y="-62.5" font-family="Helvetica,sans-Serif" font-size="10.00">colony_map.h</text>
</a>
</g>
</g>
<!-- Node4&#45;&gt;Node5 -->
<g id="edge4_Node000004_Node000005" class="edge">
<title>Node4&#45;&gt;Node5</title>
<g id="a_edge4_Node000004_Node000005"><a xlink:title=" ">
<path fill="none" stroke="#63b8ff" d="M157.65,-167.66C144.64,-159.3 125.91,-146.19 112,-132 98.25,-117.98 85.6,-99.51 77.06,-85.84"/>
<polygon fill="#63b8ff" stroke="#63b8ff" points="80.11,-84.12 71.93,-77.38 74.12,-87.75 80.11,-84.12"/>
</a>
</g>
</g>
<!-- Node6 -->
<g id="Node000006" class="node">
<title>Node6</title>
<g id="a_Node000006"><a xlink:href="_key_8h.html" target="_top" xlink:title=" ">
<polygon fill="white" stroke="#666666" points="224.5,-132 121.5,-132 121.5,-112 224.5,-112 224.5,-132"/>
<text text-anchor="middle" x="173" y="-118.5" font-family="Helvetica,sans-Serif" font-size="10.00">Cpl/Container/Key.h</text>
</a>
</g>
</g>
<!-- Node4&#45;&gt;Node6 -->
<g id="edge5_Node000004_Node000006" class="edge">
<title>Node4&#45;&gt;Node6</title>
<g id="a_edge5_Node000004_Node000006"><a xlink:title=" ">
<path fill="none" stroke="#63b8ff" d="M173,-167.59C173,-161.01 173,-151.96 173,-143.73"/>
<polygon fill="#63b8ff" stroke="#63b8ff" points="176.5,-143.81 173,-133.81 169.5,-143.81 176.5,-143.81"/>
</a>
</g>
</g>
<!-- Node11 -->
<g id="Node000011" class="node">
<title>Node11</title>
<g id="a_Node000011"><a xlink:title=" ">
<polygon fill="#e0e0e0" stroke="#999999" points="293.62,-132 242.38,-132 242.38,-112 293.62,-112 293.62,-132"/>
<text text-anchor="middle" x="268" y="-118.5" font-family="Helvetica,sans-Serif" font-size="10.00">stdarg.h</text>
</a>
</g>
</g>
<!-- Node4&#45;&gt;Node11 -->
<g id="edge12_Node000004_Node000011" class="edge">
<title>Node4&#45;&gt;Node11</title>
<g id="a_edge12_Node000004_Node000011"><a xlink:title=" ">
<path fill="none" stroke="#63b8ff" d="M189.55,-167.59C203.9,-159.44 224.93,-147.48 241.6,-138"/>
<polygon fill="#63b8ff" stroke="#63b8ff" points="243.04,-141.21 250.01,-133.23 239.58,-135.13 243.04,-141.21"/>
</a>
</g>
</g>
<!-- Node12 -->
<g id="Node000012" class="node">
<title>Node12</title>
<g id="a_Node000012"><a xlink:title=" ">
<polygon fill="#e0e0e0" stroke="#999999" points="364.75,-132 311.25,-132 311.25,-112 364.75,-112 364.75,-132"/>
<text text-anchor="middle" x="338" y="-118.5" font-family="Helvetica,sans-Serif" font-size="10.00">iostream</text>
</a>
</g>
</g>
<!-- Node4&#45;&gt;Node12 -->
<g id="edge13_Node000004_Node000012" class="edge">
<title>Node4&#45;&gt;Node12</title>
<g id="a_edge13_Node000004_Node000012"><a xlink:title=" ">
<path fill="none" stroke="#63b8ff" d="M201.74,-167.59C229,-158.67 270.14,-145.21 300.08,-135.41"/>
<polygon fill="#63b8ff" stroke="#63b8ff" points="301.1,-138.76 309.52,-132.32 298.92,-132.11 301.1,-138.76"/>
</a>
</g>
</g>
<!-- Node6&#45;&gt;Node5 -->
<g id="edge11_Node000006_Node000005" class="edge">
<title>Node6&#45;&gt;Node5</title>
<g id="a_edge11_Node000006_Node000005"><a xlink:title=" ">
<path fill="none" stroke="#63b8ff" d="M154.36,-111.59C137.97,-103.32 113.84,-91.14 94.94,-81.6"/>
<polygon fill="#63b8ff" stroke="#63b8ff" points="96.64,-78.54 86.13,-77.16 93.49,-84.79 96.64,-78.54"/>
</a>
</g>
</g>
<!-- Node7 -->
<g id="Node000007" class="node">
<title>Node7</title>
<g id="a_Node000007"><a xlink:href="_fatal_error_8h.html" target="_top" xlink:title=" ">
<polygon fill="white" stroke="#666666" points="243.5,-76 122.5,-76 122.5,-56 243.5,-56 243.5,-76"/>
<text text-anchor="middle" x="183" y="-62.5" font-family="Helvetica,sans-Serif" font-size="10.00">Cpl/System/FatalError.h</text>
</a>
</g>
</g>
<!-- Node6&#45;&gt;Node7 -->
<g id="edge6_Node000006_Node000007" class="edge">
<title>Node6&#45;&gt;Node7</title>
<g id="a_edge6_Node000006_Node000007"><a xlink:title=" ">
<path fill="none" stroke="#63b8ff" d="M174.74,-111.59C175.98,-104.93 177.68,-95.75 179.21,-87.44"/>
<polygon fill="#63b8ff" stroke="#63b8ff" points="182.62,-88.26 181,-77.79 175.74,-86.98 182.62,-88.26"/>
</a>
</g>
</g>
<!-- Node9 -->
<g id="Node000009" class="node">
<title>Node9</title>
<g id="a_Node000009"><a xlink:title=" ">
<polygon fill="#e0e0e0" stroke="#999999" points="310.12,-76 261.88,-76 261.88,-56 310.12,-56 310.12,-76"/>
<text text-anchor="middle" x="286" y="-62.5" font-family="Helvetica,sans-Serif" font-size="10.00">stdint.h</text>
</a>
</g>
</g>
<!-- Node6&#45;&gt;Node9 -->
<g id="edge9_Node000006_Node000009" class="edge">
<title>Node6&#45;&gt;Node9</title>
<g id="a_edge9_Node000006_Node000009"><a xlink:title=" ">
<path fill="none" stroke="#63b8ff" d="M192.68,-111.59C210.16,-103.24 235.95,-90.92 256,-81.34"/>
<polygon fill="#63b8ff" stroke="#63b8ff" points="257.28,-84.6 264.8,-77.13 254.27,-78.29 257.28,-84.6"/>
</a>
</g>
</g>
<!-- Node10 -->
<g id="Node000010" class="node">
<title>Node10</title>
<g id="a_Node000010"><a xlink:title=" ">
<polygon fill="#e0e0e0" stroke="#999999" points="376.12,-76 327.88,-76 327.88,-56 376.12,-56 376.12,-76"/>
<text text-anchor="middle" x="352" y="-62.5" font-family="Helvetica,sans-Serif" font-size="10.00">string.h</text>
</a>
</g>
</g>
<!-- Node6&#45;&gt;Node10 -->
<g id="edge10_Node000006_Node000010" class="edge">
<title>Node6&#45;&gt;Node10</title>
<g id="a_edge10_Node000006_Node000010"><a xlink:title=" ">
<path fill="none" stroke="#63b8ff" d="M204.18,-111.59C235.54,-102.13 283.82,-87.57 316.6,-77.68"/>
<polygon fill="#63b8ff" stroke="#63b8ff" points="317.49,-81.07 326.05,-74.83 315.46,-74.37 317.49,-81.07"/>
</a>
</g>
</g>
<!-- Node7&#45;&gt;Node2 -->
<g id="edge8_Node000007_Node000002" class="edge">
<title>Node7&#45;&gt;Node2</title>
<g id="a_edge8_Node000007_Node000002"><a xlink:title=" ">
<path fill="none" stroke="#63b8ff" d="M159.66,-55.59C138.46,-47.05 106.93,-34.35 82.95,-24.68"/>
<polygon fill="#63b8ff" stroke="#63b8ff" points="84.51,-21.54 73.93,-21.05 81.89,-28.03 84.51,-21.54"/>
</a>
</g>
</g>
<!-- Node8 -->
<g id="Node000008" class="node">
<title>Node8</title>
<g id="a_Node000008"><a xlink:title=" ">
<polygon fill="#e0e0e0" stroke="#999999" points="208.25,-20 157.75,-20 157.75,0 208.25,0 208.25,-20"/>
<text text-anchor="middle" x="183" y="-6.5" font-family="Helvetica,sans-Serif" font-size="10.00">stddef.h</text>
</a>
</g>
</g>
<!-- Node7&#45;&gt;Node8 -->
<g id="edge7_Node000007_Node000008" class="edge">
<title>Node7&#45;&gt;Node8</title>
<g id="a_edge7_Node000007_Node000008"><a xlink:title=" ">
<path fill="none" stroke="#63b8ff" d="M183,-55.59C183,-49.01 183,-39.96 183,-31.73"/>
<polygon fill="#63b8ff" stroke="#63b8ff" points="186.5,-31.81 183,-21.81 179.5,-31.81 186.5,-31.81"/>
</a>
</g>
</g>
</g>
</svg>
