<?xml version="1.0" encoding="UTF-8" standalone="no"?>
<!DOCTYPE svg PUBLIC "-//W3C//DTD SVG 1.1//EN"
 "http://www.w3.org/Graphics/SVG/1.1/DTD/svg11.dtd">
<!-- Generated by graphviz version 10.0.1 (20240210.2158)
 -->
<!-- Title: Cpl/System/FreeRTOS/Thread.h Pages: 1 -->
<svg width="1030pt" height="432pt"
 viewBox="0.00 0.00 1029.50 432.00" xmlns="http://www.w3.org/2000/svg" xmlns:xlink="http://www.w3.org/1999/xlink">
<g id="graph0" class="graph" transform="scale(1 1) rotate(0) translate(4 428)">
<title>Cpl/System/FreeRTOS/Thread.h</title>
<!-- Node1 -->
<g id="Node000001" class="node">
<title>Node1</title>
<g id="a_Node000001"><a xlink:title=" ">
<polygon fill="#999999" stroke="#666666" points="440.88,-424 325.12,-424 325.12,-392 440.88,-392 440.88,-424"/>
<text text-anchor="start" x="333.12" y="-410.5" font-family="Helvetica,sans-Serif" font-size="10.00">Cpl/System/FreeRTOS</text>
<text text-anchor="middle" x="383" y="-398.5" font-family="Helvetica,sans-Serif" font-size="10.00">/Thread.h</text>
</a>
</g>
</g>
<!-- Node2 -->
<g id="Node000002" class="node">
<title>Node2</title>
<g id="a_Node000002"><a xlink:title=" ">
<polygon fill="#e0e0e0" stroke="#999999" points="709.75,-20 626.25,-20 626.25,0 709.75,0 709.75,-20"/>
<text text-anchor="middle" x="668" y="-6.5" font-family="Helvetica,sans-Serif" font-size="10.00">colony_config.h</text>
</a>
</g>
</g>
<!-- Node1&#45;&gt;Node2 -->
<g id="edge1_Node000001_Node000002" class="edge">
<title>Node1&#45;&gt;Node2</title>
<g id="a_edge1_Node000001_Node000002"><a xlink:title=" ">
<path fill="none" stroke="#63b8ff" d="M324.83,-406.52C260.98,-403.96 156.8,-393.66 76,-356 35.71,-337.23 0,-335.45 0,-291 0,-291 0,-291 0,-121 0,-58.83 456.3,-24.29 614.64,-14.17"/>
<polygon fill="#63b8ff" stroke="#63b8ff" points="614.69,-17.67 624.45,-13.55 614.25,-10.69 614.69,-17.67"/>
</a>
</g>
</g>
<!-- Node3 -->
<g id="Node000003" class="node">
<title>Node3</title>
<g id="a_Node000003"><a xlink:href="_thread_8h.html" target="_top" xlink:title=" ">
<polygon fill="white" stroke="#666666" points="436.75,-356 329.25,-356 329.25,-336 436.75,-336 436.75,-356"/>
<text text-anchor="middle" x="383" y="-342.5" font-family="Helvetica,sans-Serif" font-size="10.00">Cpl/System/Thread.h</text>
</a>
</g>
</g>
<!-- Node1&#45;&gt;Node3 -->
<g id="edge2_Node000001_Node000003" class="edge">
<title>Node1&#45;&gt;Node3</title>
<g id="a_edge2_Node000001_Node000003"><a xlink:title=" ">
<path fill="none" stroke="#63b8ff" d="M383,-391.55C383,-384.34 383,-375.66 383,-367.88"/>
<polygon fill="#63b8ff" stroke="#63b8ff" points="386.5,-367.92 383,-357.92 379.5,-367.92 386.5,-367.92"/>
</a>
</g>
</g>
<!-- Node10 -->
<g id="Node000010" class="node">
<title>Node10</title>
<g id="a_Node000010"><a xlink:href="_tls_8h.html" target="_top" xlink:title=" ">
<polygon fill="white" stroke="#666666" points="505.5,-132 414.5,-132 414.5,-112 505.5,-112 505.5,-132"/>
<text text-anchor="middle" x="460" y="-118.5" font-family="Helvetica,sans-Serif" font-size="10.00">Cpl/System/Tls.h</text>
</a>
</g>
</g>
<!-- Node1&#45;&gt;Node10 -->
<g id="edge9_Node000001_Node000010" class="edge">
<title>Node1&#45;&gt;Node10</title>
<g id="a_edge9_Node000001_Node000010"><a xlink:title=" ">
<path fill="none" stroke="#63b8ff" d="M324.87,-399.65C226.54,-385.58 38,-350.79 38,-291 38,-291 38,-291 38,-233 38,-158.52 287.25,-133.55 402.64,-125.98"/>
<polygon fill="#63b8ff" stroke="#63b8ff" points="402.77,-129.48 412.52,-125.36 402.32,-122.49 402.77,-129.48"/>
</a>
</g>
</g>
<!-- Node11 -->
<g id="Node000011" class="node">
<title>Node11</title>
<g id="a_Node000011"><a xlink:href="_f_string_8h.html" target="_top" xlink:title=" ">
<polygon fill="white" stroke="#666666" points="584.38,-356 489.62,-356 489.62,-336 584.38,-336 584.38,-356"/>
<text text-anchor="middle" x="537" y="-342.5" font-family="Helvetica,sans-Serif" font-size="10.00">Cpl/Text/FString.h</text>
</a>
</g>
</g>
<!-- Node1&#45;&gt;Node11 -->
<g id="edge12_Node000001_Node000011" class="edge">
<title>Node1&#45;&gt;Node11</title>
<g id="a_edge12_Node000001_Node000011"><a xlink:title=" ">
<path fill="none" stroke="#63b8ff" d="M422.66,-391.55C447.28,-381.96 478.62,-369.75 502.26,-360.54"/>
<polygon fill="#63b8ff" stroke="#63b8ff" points="503.4,-363.85 511.44,-356.96 500.85,-357.33 503.4,-363.85"/>
</a>
</g>
</g>
<!-- Node22 -->
<g id="Node000022" class="node">
<title>Node22</title>
<g id="a_Node000022"><a xlink:title=" ">
<polygon fill="#e0e0e0" stroke="#999999" points="645.5,-356 602.5,-356 602.5,-336 645.5,-336 645.5,-356"/>
<text text-anchor="middle" x="624" y="-342.5" font-family="Helvetica,sans-Serif" font-size="10.00">task.h</text>
</a>
</g>
</g>
<!-- Node1&#45;&gt;Node22 -->
<g id="edge28_Node000001_Node000022" class="edge">
<title>Node1&#45;&gt;Node22</title>
<g id="a_edge28_Node000001_Node000022"><a xlink:title=" ">
<path fill="none" stroke="#63b8ff" d="M441.11,-393.62C480.81,-384.31 534.86,-371.31 591.12,-356.42"/>
<polygon fill="#63b8ff" stroke="#63b8ff" points="591.79,-359.86 600.56,-353.9 589.99,-353.09 591.79,-359.86"/>
</a>
</g>
</g>
<!-- Node4 -->
<g id="Node000004" class="node">
<title>Node4</title>
<g id="a_Node000004"><a xlink:title=" ">
<polygon fill="#e0e0e0" stroke="#999999" points="581.38,-76 504.62,-76 504.62,-56 581.38,-56 581.38,-76"/>
<text text-anchor="middle" x="543" y="-62.5" font-family="Helvetica,sans-Serif" font-size="10.00">colony_map.h</text>
</a>
</g>
</g>
<!-- Node3&#45;&gt;Node4 -->
<g id="edge3_Node000003_Node000004" class="edge">
<title>Node3&#45;&gt;Node4</title>
<g id="a_edge3_Node000003_Node000004"><a xlink:title=" ">
<path fill="none" stroke="#63b8ff" d="M437.12,-340.26C464.94,-334.89 496.92,-323.6 516,-300 566.8,-237.17 555.07,-131.77 547.23,-87.53"/>
<polygon fill="#63b8ff" stroke="#63b8ff" points="550.68,-86.96 545.37,-77.8 543.81,-88.28 550.68,-86.96"/>
</a>
</g>
</g>
<!-- Node5 -->
<g id="Node000005" class="node">
<title>Node5</title>
<g id="a_Node000005"><a xlink:href="_runnable_8h.html" target="_top" xlink:title=" ">
<polygon fill="white" stroke="#666666" points="184.38,-300 65.62,-300 65.62,-280 184.38,-280 184.38,-300"/>
<text text-anchor="middle" x="125" y="-286.5" font-family="Helvetica,sans-Serif" font-size="10.00">Cpl/System/Runnable.h</text>
</a>
</g>
</g>
<!-- Node3&#45;&gt;Node5 -->
<g id="edge4_Node000003_Node000005" class="edge">
<title>Node3&#45;&gt;Node5</title>
<g id="a_edge4_Node000003_Node000005"><a xlink:title=" ">
<path fill="none" stroke="#63b8ff" d="M337.76,-335.53C294.24,-326.42 228.3,-312.62 181.38,-302.8"/>
<polygon fill="#63b8ff" stroke="#63b8ff" points="182.17,-299.39 171.66,-300.77 180.74,-306.24 182.17,-299.39"/>
</a>
</g>
</g>
<!-- Node6 -->
<g id="Node000006" class="node">
<title>Node6</title>
<g id="a_Node000006"><a xlink:href="_signable_8h.html" target="_top" xlink:title=" ">
<polygon fill="white" stroke="#666666" points="440.88,-300 325.12,-300 325.12,-280 440.88,-280 440.88,-300"/>
<text text-anchor="middle" x="383" y="-286.5" font-family="Helvetica,sans-Serif" font-size="10.00">Cpl/System/Signable.h</text>
</a>
</g>
</g>
<!-- Node3&#45;&gt;Node6 -->
<g id="edge5_Node000003_Node000006" class="edge">
<title>Node3&#45;&gt;Node6</title>
<g id="a_edge5_Node000003_Node000006"><a xlink:title=" ">
<path fill="none" stroke="#63b8ff" d="M383,-335.59C383,-329.01 383,-319.96 383,-311.73"/>
<polygon fill="#63b8ff" stroke="#63b8ff" points="386.5,-311.81 383,-301.81 379.5,-311.81 386.5,-311.81"/>
</a>
</g>
</g>
<!-- Node8 -->
<g id="Node000008" class="node">
<title>Node8</title>
<g id="a_Node000008"><a xlink:href="_traverser_8h.html" target="_top" xlink:title=" ">
<polygon fill="white" stroke="#666666" points="307.25,-300 202.75,-300 202.75,-280 307.25,-280 307.25,-300"/>
<text text-anchor="middle" x="255" y="-286.5" font-family="Helvetica,sans-Serif" font-size="10.00">Cpl/Type/Traverser.h</text>
</a>
</g>
</g>
<!-- Node3&#45;&gt;Node8 -->
<g id="edge7_Node000003_Node000008" class="edge">
<title>Node3&#45;&gt;Node8</title>
<g id="a_edge7_Node000003_Node000008"><a xlink:title=" ">
<path fill="none" stroke="#63b8ff" d="M360.7,-335.59C340.64,-327.13 310.88,-314.58 288.05,-304.94"/>
<polygon fill="#63b8ff" stroke="#63b8ff" points="289.44,-301.73 278.86,-301.07 286.72,-308.18 289.44,-301.73"/>
</a>
</g>
</g>
<!-- Node9 -->
<g id="Node000009" class="node">
<title>Node9</title>
<g id="a_Node000009"><a xlink:title=" ">
<polygon fill="#e0e0e0" stroke="#999999" points="506.75,-300 459.25,-300 459.25,-280 506.75,-280 506.75,-300"/>
<text text-anchor="middle" x="483" y="-286.5" font-family="Helvetica,sans-Serif" font-size="10.00">stdlib.h</text>
</a>
</g>
</g>
<!-- Node3&#45;&gt;Node9 -->
<g id="edge8_Node000003_Node000009" class="edge">
<title>Node3&#45;&gt;Node9</title>
<g id="a_edge8_Node000003_Node000009"><a xlink:title=" ">
<path fill="none" stroke="#63b8ff" d="M400.42,-335.59C415.67,-327.36 438.08,-315.26 455.71,-305.74"/>
<polygon fill="#63b8ff" stroke="#63b8ff" points="456.98,-309.03 464.11,-301.2 453.65,-302.87 456.98,-309.03"/>
</a>
</g>
</g>
<!-- Node7 -->
<g id="Node000007" class="node">
<title>Node7</title>
<g id="a_Node000007"><a xlink:href="_item_8h.html" target="_top" xlink:title=" ">
<polygon fill="white" stroke="#666666" points="435.25,-244 330.75,-244 330.75,-224 435.25,-224 435.25,-244"/>
<text text-anchor="middle" x="383" y="-230.5" font-family="Helvetica,sans-Serif" font-size="10.00">Cpl/Container/Item.h</text>
</a>
</g>
</g>
<!-- Node6&#45;&gt;Node7 -->
<g id="edge6_Node000006_Node000007" class="edge">
<title>Node6&#45;&gt;Node7</title>
<g id="a_edge6_Node000006_Node000007"><a xlink:title=" ">
<path fill="none" stroke="#63b8ff" d="M383,-279.59C383,-273.01 383,-263.96 383,-255.73"/>
<polygon fill="#63b8ff" stroke="#63b8ff" points="386.5,-255.81 383,-245.81 379.5,-255.81 386.5,-255.81"/>
</a>
</g>
</g>
<!-- Node10&#45;&gt;Node2 -->
<g id="edge10_Node000010_Node000002" class="edge">
<title>Node10&#45;&gt;Node2</title>
<g id="a_edge10_Node000010_Node000002"><a xlink:title=" ">
<path fill="none" stroke="#63b8ff" d="M462.49,-111.92C466.86,-97.77 477.26,-70.56 496,-56 530.13,-29.49 578.38,-18.51 615.09,-14.01"/>
<polygon fill="#63b8ff" stroke="#63b8ff" points="615.02,-17.54 624.58,-12.98 614.26,-10.58 615.02,-17.54"/>
</a>
</g>
</g>
<!-- Node10&#45;&gt;Node4 -->
<g id="edge11_Node000010_Node000004" class="edge">
<title>Node10&#45;&gt;Node4</title>
<g id="a_edge11_Node000010_Node000004"><a xlink:title=" ">
<path fill="none" stroke="#63b8ff" d="M474.46,-111.59C486.76,-103.59 504.68,-91.93 519.11,-82.54"/>
<polygon fill="#63b8ff" stroke="#63b8ff" points="520.69,-85.69 527.16,-77.3 516.87,-79.82 520.69,-85.69"/>
</a>
</g>
</g>
<!-- Node12 -->
<g id="Node000012" class="node">
<title>Node12</title>
<g id="a_Node000012"><a xlink:href="_f_string___8h.html" target="_top" xlink:title=" ">
<polygon fill="white" stroke="#666666" points="702,-300 602,-300 602,-280 702,-280 702,-300"/>
<text text-anchor="middle" x="652" y="-286.5" font-family="Helvetica,sans-Serif" font-size="10.00">Cpl/Text/FString_.h</text>
</a>
</g>
</g>
<!-- Node11&#45;&gt;Node12 -->
<g id="edge13_Node000011_Node000012" class="edge">
<title>Node11&#45;&gt;Node12</title>
<g id="a_edge13_Node000011_Node000012"><a xlink:title=" ">
<path fill="none" stroke="#63b8ff" d="M557.03,-335.59C574.81,-327.24 601.07,-314.92 621.46,-305.34"/>
<polygon fill="#63b8ff" stroke="#63b8ff" points="622.88,-308.54 630.44,-301.12 619.9,-302.21 622.88,-308.54"/>
</a>
</g>
</g>
<!-- Node14 -->
<g id="Node000014" class="node">
<title>Node14</title>
<g id="a_Node000014"><a xlink:href="_text_2_string_8h.html" target="_top" xlink:title=" ">
<polygon fill="white" stroke="#666666" points="696.38,-188 607.62,-188 607.62,-168 696.38,-168 696.38,-188"/>
<text text-anchor="middle" x="652" y="-174.5" font-family="Helvetica,sans-Serif" font-size="10.00">Cpl/Text/String.h</text>
</a>
</g>
</g>
<!-- Node11&#45;&gt;Node14 -->
<g id="edge27_Node000011_Node000014" class="edge">
<title>Node11&#45;&gt;Node14</title>
<g id="a_edge27_Node000011_Node000014"><a xlink:title=" ">
<path fill="none" stroke="#63b8ff" d="M539.94,-335.73C547.03,-314.37 566.69,-260.71 596,-224 604.94,-212.81 617.13,-202.6 627.85,-194.75"/>
<polygon fill="#63b8ff" stroke="#63b8ff" points="629.73,-197.71 635.91,-189.1 625.71,-191.97 629.73,-197.71"/>
</a>
</g>
</g>
<!-- Node12&#45;&gt;Node2 -->
<g id="edge14_Node000012_Node000002" class="edge">
<title>Node12&#45;&gt;Node2</title>
<g id="a_edge14_Node000012_Node000002"><a xlink:title=" ">
<path fill="none" stroke="#63b8ff" d="M702.47,-285.57C767.42,-278.1 872,-254.37 872,-179 872,-179 872,-179 872,-121 872,-52.39 781.5,-26.38 721.05,-16.65"/>
<polygon fill="#63b8ff" stroke="#63b8ff" points="721.68,-13.21 711.27,-15.19 720.65,-20.13 721.68,-13.21"/>
</a>
</g>
</g>
<!-- Node13 -->
<g id="Node000013" class="node">
<title>Node13</title>
<g id="a_Node000013"><a xlink:href="_string___8h.html" target="_top" xlink:title=" ">
<polygon fill="white" stroke="#666666" points="699,-244 605,-244 605,-224 699,-224 699,-244"/>
<text text-anchor="middle" x="652" y="-230.5" font-family="Helvetica,sans-Serif" font-size="10.00">Cpl/Text/String_.h</text>
</a>
</g>
</g>
<!-- Node12&#45;&gt;Node13 -->
<g id="edge15_Node000012_Node000013" class="edge">
<title>Node12&#45;&gt;Node13</title>
<g id="a_edge15_Node000012_Node000013"><a xlink:title=" ">
<path fill="none" stroke="#63b8ff" d="M652,-279.59C652,-273.01 652,-263.96 652,-255.73"/>
<polygon fill="#63b8ff" stroke="#63b8ff" points="655.5,-255.81 652,-245.81 648.5,-255.81 655.5,-255.81"/>
</a>
</g>
</g>
<!-- Node13&#45;&gt;Node14 -->
<g id="edge16_Node000013_Node000014" class="edge">
<title>Node13&#45;&gt;Node14</title>
<g id="a_edge16_Node000013_Node000014"><a xlink:title=" ">
<path fill="none" stroke="#63b8ff" d="M652,-223.59C652,-217.01 652,-207.96 652,-199.73"/>
<polygon fill="#63b8ff" stroke="#63b8ff" points="655.5,-199.81 652,-189.81 648.5,-199.81 655.5,-199.81"/>
</a>
</g>
</g>
<!-- Node14&#45;&gt;Node4 -->
<g id="edge17_Node000014_Node000004" class="edge">
<title>Node14&#45;&gt;Node4</title>
<g id="a_edge17_Node000014_Node000004"><a xlink:title=" ">
<path fill="none" stroke="#63b8ff" d="M637.02,-167.51C624.29,-159.05 605.92,-145.89 592,-132 577.81,-117.84 564.3,-99.42 555.07,-85.8"/>
<polygon fill="#63b8ff" stroke="#63b8ff" points="558.18,-84.16 549.75,-77.74 552.34,-88.01 558.18,-84.16"/>
</a>
</g>
</g>
<!-- Node15 -->
<g id="Node000015" class="node">
<title>Node15</title>
<g id="a_Node000015"><a xlink:href="_key_8h.html" target="_top" xlink:title=" ">
<polygon fill="white" stroke="#666666" points="703.5,-132 600.5,-132 600.5,-112 703.5,-112 703.5,-132"/>
<text text-anchor="middle" x="652" y="-118.5" font-family="Helvetica,sans-Serif" font-size="10.00">Cpl/Container/Key.h</text>
</a>
</g>
</g>
<!-- Node14&#45;&gt;Node15 -->
<g id="edge18_Node000014_Node000015" class="edge">
<title>Node14&#45;&gt;Node15</title>
<g id="a_edge18_Node000014_Node000015"><a xlink:title=" ">
<path fill="none" stroke="#63b8ff" d="M652,-167.59C652,-161.01 652,-151.96 652,-143.73"/>
<polygon fill="#63b8ff" stroke="#63b8ff" points="655.5,-143.81 652,-133.81 648.5,-143.81 655.5,-143.81"/>
</a>
</g>
</g>
<!-- Node20 -->
<g id="Node000020" class="node">
<title>Node20</title>
<g id="a_Node000020"><a xlink:title=" ">
<polygon fill="#e0e0e0" stroke="#999999" points="843.62,-132 792.38,-132 792.38,-112 843.62,-112 843.62,-132"/>
<text text-anchor="middle" x="818" y="-118.5" font-family="Helvetica,sans-Serif" font-size="10.00">stdarg.h</text>
</a>
</g>
</g>
<!-- Node14&#45;&gt;Node20 -->
<g id="edge25_Node000014_Node000020" class="edge">
<title>Node14&#45;&gt;Node20</title>
<g id="a_edge25_Node000014_Node000020"><a xlink:title=" ">
<path fill="none" stroke="#63b8ff" d="M680.91,-167.59C708.76,-158.54 750.98,-144.8 781.2,-134.97"/>
<polygon fill="#63b8ff" stroke="#63b8ff" points="782.28,-138.3 790.7,-131.88 780.11,-131.64 782.28,-138.3"/>
</a>
</g>
</g>
<!-- Node21 -->
<g id="Node000021" class="node">
<title>Node21</title>
<g id="a_Node000021"><a xlink:title=" ">
<polygon fill="#e0e0e0" stroke="#999999" points="774.75,-132 721.25,-132 721.25,-112 774.75,-112 774.75,-132"/>
<text text-anchor="middle" x="748" y="-118.5" font-family="Helvetica,sans-Serif" font-size="10.00">iostream</text>
</a>
</g>
</g>
<!-- Node14&#45;&gt;Node21 -->
<g id="edge26_Node000014_Node000021" class="edge">
<title>Node14&#45;&gt;Node21</title>
<g id="a_edge26_Node000014_Node000021"><a xlink:title=" ">
<path fill="none" stroke="#63b8ff" d="M668.72,-167.59C683.22,-159.44 704.47,-147.48 721.32,-138"/>
<polygon fill="#63b8ff" stroke="#63b8ff" points="722.83,-141.17 729.83,-133.22 719.4,-135.07 722.83,-141.17"/>
</a>
</g>
</g>
<!-- Node15&#45;&gt;Node4 -->
<g id="edge24_Node000015_Node000004" class="edge">
<title>Node15&#45;&gt;Node4</title>
<g id="a_edge24_Node000015_Node000004"><a xlink:title=" ">
<path fill="none" stroke="#63b8ff" d="M633.01,-111.59C616.24,-103.28 591.51,-91.03 572.21,-81.47"/>
<polygon fill="#63b8ff" stroke="#63b8ff" points="574.01,-78.45 563.49,-77.15 570.9,-84.73 574.01,-78.45"/>
</a>
</g>
</g>
<!-- Node16 -->
<g id="Node000016" class="node">
<title>Node16</title>
<g id="a_Node000016"><a xlink:href="_fatal_error_8h.html" target="_top" xlink:title=" ">
<polygon fill="white" stroke="#666666" points="1021.5,-76 900.5,-76 900.5,-56 1021.5,-56 1021.5,-76"/>
<text text-anchor="middle" x="961" y="-62.5" font-family="Helvetica,sans-Serif" font-size="10.00">Cpl/System/FatalError.h</text>
</a>
</g>
</g>
<!-- Node15&#45;&gt;Node16 -->
<g id="edge19_Node000015_Node000016" class="edge">
<title>Node15&#45;&gt;Node16</title>
<g id="a_edge19_Node000015_Node000016"><a xlink:title=" ">
<path fill="none" stroke="#63b8ff" d="M703.72,-111.96C756.47,-102.74 838.47,-88.41 895.68,-78.42"/>
<polygon fill="#63b8ff" stroke="#63b8ff" points="896.03,-81.91 905.28,-76.74 894.83,-75.01 896.03,-81.91"/>
</a>
</g>
</g>
<!-- Node18 -->
<g id="Node000018" class="node">
<title>Node18</title>
<g id="a_Node000018"><a xlink:title=" ">
<polygon fill="#e0e0e0" stroke="#999999" points="724.12,-76 675.88,-76 675.88,-56 724.12,-56 724.12,-76"/>
<text text-anchor="middle" x="700" y="-62.5" font-family="Helvetica,sans-Serif" font-size="10.00">stdint.h</text>
</a>
</g>
</g>
<!-- Node15&#45;&gt;Node18 -->
<g id="edge22_Node000015_Node000018" class="edge">
<title>Node15&#45;&gt;Node18</title>
<g id="a_edge22_Node000015_Node000018"><a xlink:title=" ">
<path fill="none" stroke="#63b8ff" d="M660.36,-111.59C666.9,-104.24 676.18,-93.8 684.12,-84.87"/>
<polygon fill="#63b8ff" stroke="#63b8ff" points="686.7,-87.23 690.73,-77.43 681.47,-82.58 686.7,-87.23"/>
</a>
</g>
</g>
<!-- Node19 -->
<g id="Node000019" class="node">
<title>Node19</title>
<g id="a_Node000019"><a xlink:title=" ">
<polygon fill="#e0e0e0" stroke="#999999" points="658.12,-76 609.88,-76 609.88,-56 658.12,-56 658.12,-76"/>
<text text-anchor="middle" x="634" y="-62.5" font-family="Helvetica,sans-Serif" font-size="10.00">string.h</text>
</a>
</g>
</g>
<!-- Node15&#45;&gt;Node19 -->
<g id="edge23_Node000015_Node000019" class="edge">
<title>Node15&#45;&gt;Node19</title>
<g id="a_edge23_Node000015_Node000019"><a xlink:title=" ">
<path fill="none" stroke="#63b8ff" d="M648.86,-111.59C646.62,-104.86 643.51,-95.53 640.72,-87.15"/>
<polygon fill="#63b8ff" stroke="#63b8ff" points="644.06,-86.11 637.58,-77.73 637.42,-88.33 644.06,-86.11"/>
</a>
</g>
</g>
<!-- Node16&#45;&gt;Node2 -->
<g id="edge21_Node000016_Node000002" class="edge">
<title>Node16&#45;&gt;Node2</title>
<g id="a_edge21_Node000016_Node000002"><a xlink:title=" ">
<path fill="none" stroke="#63b8ff" d="M909.63,-55.53C856.72,-45.78 774.66,-30.66 721.12,-20.79"/>
<polygon fill="#63b8ff" stroke="#63b8ff" points="721.78,-17.35 711.31,-18.98 720.51,-24.24 721.78,-17.35"/>
</a>
</g>
</g>
<!-- Node17 -->
<g id="Node000017" class="node">
<title>Node17</title>
<g id="a_Node000017"><a xlink:title=" ">
<polygon fill="#e0e0e0" stroke="#999999" points="986.25,-20 935.75,-20 935.75,0 986.25,0 986.25,-20"/>
<text text-anchor="middle" x="961" y="-6.5" font-family="Helvetica,sans-Serif" font-size="10.00">stddef.h</text>
</a>
</g>
</g>
<!-- Node16&#45;&gt;Node17 -->
<g id="edge20_Node000016_Node000017" class="edge">
<title>Node16&#45;&gt;Node17</title>
<g id="a_edge20_Node000016_Node000017"><a xlink:title=" ">
<path fill="none" stroke="#63b8ff" d="M961,-55.59C961,-49.01 961,-39.96 961,-31.73"/>
<polygon fill="#63b8ff" stroke="#63b8ff" points="964.5,-31.81 961,-21.81 957.5,-31.81 964.5,-31.81"/>
</a>
</g>
</g>
</g>
</svg>
