<?xml version="1.0" encoding="UTF-8" standalone="no"?>
<!DOCTYPE svg PUBLIC "-//W3C//DTD SVG 1.1//EN"
 "http://www.w3.org/Graphics/SVG/1.1/DTD/svg11.dtd">
<!-- Generated by graphviz version 10.0.1 (20240210.2158)
 -->
<!-- Title: Cpl/TShell/Cmd/FreeRTOS/Threads.h Pages: 1 -->
<svg width="1082pt" height="600pt"
 viewBox="0.00 0.00 1082.38 600.00" xmlns="http://www.w3.org/2000/svg" xmlns:xlink="http://www.w3.org/1999/xlink">
<g id="graph0" class="graph" transform="scale(1 1) rotate(0) translate(4 596)">
<title>Cpl/TShell/Cmd/FreeRTOS/Threads.h</title>
<!-- Node1 -->
<g id="Node000001" class="node">
<title>Node1</title>
<g id="a_Node000001"><a xlink:title=" ">
<polygon fill="#999999" stroke="#666666" points="538.12,-592 405.88,-592 405.88,-560 538.12,-560 538.12,-592"/>
<text text-anchor="start" x="413.88" y="-578.5" font-family="Helvetica,sans-Serif" font-size="10.00">Cpl/TShell/Cmd/FreeRTOS</text>
<text text-anchor="middle" x="472" y="-566.5" font-family="Helvetica,sans-Serif" font-size="10.00">/Threads.h</text>
</a>
</g>
</g>
<!-- Node2 -->
<g id="Node000002" class="node">
<title>Node2</title>
<g id="a_Node000002"><a xlink:href="_threads_8h.html" target="_top" xlink:title=" ">
<polygon fill="white" stroke="#666666" points="536.62,-524 407.38,-524 407.38,-504 536.62,-504 536.62,-524"/>
<text text-anchor="middle" x="472" y="-510.5" font-family="Helvetica,sans-Serif" font-size="10.00">Cpl/TShell/Cmd/Threads.h</text>
</a>
</g>
</g>
<!-- Node1&#45;&gt;Node2 -->
<g id="edge1_Node000001_Node000002" class="edge">
<title>Node1&#45;&gt;Node2</title>
<g id="a_edge1_Node000001_Node000002"><a xlink:title=" ">
<path fill="none" stroke="#63b8ff" d="M472,-559.55C472,-552.34 472,-543.66 472,-535.88"/>
<polygon fill="#63b8ff" stroke="#63b8ff" points="475.5,-535.92 472,-525.92 468.5,-535.92 475.5,-535.92"/>
</a>
</g>
</g>
<!-- Node3 -->
<g id="Node000003" class="node">
<title>Node3</title>
<g id="a_Node000003"><a xlink:title=" ">
<polygon fill="#e0e0e0" stroke="#999999" points="103.75,-20 20.25,-20 20.25,0 103.75,0 103.75,-20"/>
<text text-anchor="middle" x="62" y="-6.5" font-family="Helvetica,sans-Serif" font-size="10.00">colony_config.h</text>
</a>
</g>
</g>
<!-- Node2&#45;&gt;Node3 -->
<g id="edge2_Node000002_Node000003" class="edge">
<title>Node2&#45;&gt;Node3</title>
<g id="a_edge2_Node000002_Node000003"><a xlink:title=" ">
<path fill="none" stroke="#63b8ff" d="M407.36,-511.33C278.09,-506.24 0,-485.67 0,-403 0,-403 0,-403 0,-121 0,-84.5 26.23,-48.95 44.56,-28.55"/>
<polygon fill="#63b8ff" stroke="#63b8ff" points="46.98,-31.09 51.28,-21.4 41.88,-26.3 46.98,-31.09"/>
</a>
</g>
</g>
<!-- Node4 -->
<g id="Node000004" class="node">
<title>Node4</title>
<g id="a_Node000004"><a xlink:href="_cmd_2_command_8h.html" target="_top" xlink:title=" ">
<polygon fill="white" stroke="#666666" points="364.5,-468 225.5,-468 225.5,-448 364.5,-448 364.5,-468"/>
<text text-anchor="middle" x="295" y="-454.5" font-family="Helvetica,sans-Serif" font-size="10.00">Cpl/TShell/Cmd/Command.h</text>
</a>
</g>
</g>
<!-- Node2&#45;&gt;Node4 -->
<g id="edge3_Node000002_Node000004" class="edge">
<title>Node2&#45;&gt;Node4</title>
<g id="a_edge3_Node000002_Node000004"><a xlink:title=" ">
<path fill="none" stroke="#63b8ff" d="M441.17,-503.59C412.29,-494.78 368.89,-481.54 336.88,-471.78"/>
<polygon fill="#63b8ff" stroke="#63b8ff" points="338.11,-468.49 327.52,-468.92 336.06,-475.19 338.11,-468.49"/>
</a>
</g>
</g>
<!-- Node16 -->
<g id="Node000016" class="node">
<title>Node16</title>
<g id="a_Node000016"><a xlink:href="_text_2_string_8h.html" target="_top" xlink:title=" ">
<polygon fill="white" stroke="#666666" points="615.38,-244 526.62,-244 526.62,-224 615.38,-224 615.38,-244"/>
<text text-anchor="middle" x="571" y="-230.5" font-family="Helvetica,sans-Serif" font-size="10.00">Cpl/Text/String.h</text>
</a>
</g>
</g>
<!-- Node2&#45;&gt;Node16 -->
<g id="edge42_Node000002_Node000016" class="edge">
<title>Node2&#45;&gt;Node16</title>
<g id="a_edge42_Node000002_Node000016"><a xlink:title=" ">
<path fill="none" stroke="#63b8ff" d="M502.75,-503.59C543.14,-489.09 609,-457.14 609,-403 609,-403 609,-403 609,-345 609,-311.77 593.32,-275.85 582.1,-254.4"/>
<polygon fill="#63b8ff" stroke="#63b8ff" points="585.2,-252.76 577.33,-245.66 579.06,-256.12 585.2,-252.76"/>
</a>
</g>
</g>
<!-- Node27 -->
<g id="Node000027" class="node">
<title>Node27</title>
<g id="a_Node000027"><a xlink:href="_thread_8h.html" target="_top" xlink:title=" ">
<polygon fill="white" stroke="#666666" points="875.75,-244 768.25,-244 768.25,-224 875.75,-224 875.75,-244"/>
<text text-anchor="middle" x="822" y="-230.5" font-family="Helvetica,sans-Serif" font-size="10.00">Cpl/System/Thread.h</text>
</a>
</g>
</g>
<!-- Node2&#45;&gt;Node27 -->
<g id="edge43_Node000002_Node000027" class="edge">
<title>Node2&#45;&gt;Node27</title>
<g id="a_edge43_Node000002_Node000027"><a xlink:title=" ">
<path fill="none" stroke="#63b8ff" d="M537.01,-512.81C614.89,-508.76 735,-488.62 735,-403 735,-403 735,-403 735,-345 735,-304.41 771.89,-270.04 797.63,-251"/>
<polygon fill="#63b8ff" stroke="#63b8ff" points="799.47,-253.98 805.61,-245.35 795.43,-248.27 799.47,-253.98"/>
</a>
</g>
</g>
<!-- Node4&#45;&gt;Node3 -->
<g id="edge4_Node000004_Node000003" class="edge">
<title>Node4&#45;&gt;Node3</title>
<g id="a_edge4_Node000004_Node000003"><a xlink:title=" ">
<path fill="none" stroke="#63b8ff" d="M225.11,-455.87C149.01,-450.49 38,-428.66 38,-347 38,-347 38,-347 38,-121 38,-88.99 47.82,-52.92 54.9,-31.08"/>
<polygon fill="#63b8ff" stroke="#63b8ff" points="58.18,-32.3 58.08,-21.7 51.55,-30.05 58.18,-32.3"/>
</a>
</g>
</g>
<!-- Node5 -->
<g id="Node000005" class="node">
<title>Node5</title>
<g id="a_Node000005"><a xlink:href="_command_8h.html" target="_top" xlink:title=" ">
<polygon fill="white" stroke="#666666" points="394.88,-356 279.12,-356 279.12,-336 394.88,-336 394.88,-356"/>
<text text-anchor="middle" x="337" y="-342.5" font-family="Helvetica,sans-Serif" font-size="10.00">Cpl/TShell/Command.h</text>
</a>
</g>
</g>
<!-- Node4&#45;&gt;Node5 -->
<g id="edge5_Node000004_Node000005" class="edge">
<title>Node4&#45;&gt;Node5</title>
<g id="a_edge5_Node000004_Node000005"><a xlink:title=" ">
<path fill="none" stroke="#63b8ff" d="M300.47,-447.59C305.51,-438.65 312.94,-424.72 318,-412 323.79,-397.43 328.71,-380.4 332.09,-367.42"/>
<polygon fill="#63b8ff" stroke="#63b8ff" points="335.43,-368.46 334.47,-357.91 328.64,-366.76 335.43,-368.46"/>
</a>
</g>
</g>
<!-- Node4&#45;&gt;Node16 -->
<g id="edge41_Node000004_Node000016" class="edge">
<title>Node4&#45;&gt;Node16</title>
<g id="a_edge41_Node000004_Node000016"><a xlink:title=" ">
<path fill="none" stroke="#63b8ff" d="M364.92,-448.73C424.08,-437.87 506.33,-412.93 552,-356 575.1,-327.21 575.61,-281.82 573.54,-255.59"/>
<polygon fill="#63b8ff" stroke="#63b8ff" points="577.05,-255.51 572.56,-245.91 570.09,-256.22 577.05,-255.51"/>
</a>
</g>
</g>
<!-- Node22 -->
<g id="Node000022" class="node">
<title>Node22</title>
<g id="a_Node000022"><a xlink:href="_context___8h.html" target="_top" xlink:title=" ">
<polygon fill="white" stroke="#666666" points="309.25,-412 198.75,-412 198.75,-392 309.25,-392 309.25,-412"/>
<text text-anchor="middle" x="254" y="-398.5" font-family="Helvetica,sans-Serif" font-size="10.00">Cpl/TShell/Context_.h</text>
</a>
</g>
</g>
<!-- Node4&#45;&gt;Node22 -->
<g id="edge27_Node000004_Node000022" class="edge">
<title>Node4&#45;&gt;Node22</title>
<g id="a_edge27_Node000004_Node000022"><a xlink:title=" ">
<path fill="none" stroke="#63b8ff" d="M287.86,-447.59C282.39,-440.39 274.68,-430.23 267.99,-421.43"/>
<polygon fill="#63b8ff" stroke="#63b8ff" points="270.81,-419.35 261.98,-413.5 265.23,-423.58 270.81,-419.35"/>
</a>
</g>
</g>
<!-- Node25 -->
<g id="Node000025" class="node">
<title>Node25</title>
<g id="a_Node000025"><a xlink:href="_map_8h.html" target="_top" xlink:title=" ">
<polygon fill="white" stroke="#666666" points="223.25,-356 118.75,-356 118.75,-336 223.25,-336 223.25,-356"/>
<text text-anchor="middle" x="171" y="-342.5" font-family="Helvetica,sans-Serif" font-size="10.00">Cpl/Container/Map.h</text>
</a>
</g>
</g>
<!-- Node4&#45;&gt;Node25 -->
<g id="edge40_Node000004_Node000025" class="edge">
<title>Node4&#45;&gt;Node25</title>
<g id="a_edge40_Node000004_Node000025"><a xlink:title=" ">
<path fill="none" stroke="#63b8ff" d="M251.21,-447.56C230.04,-440.9 205.85,-429.89 190,-412 179.13,-399.74 174.47,-381.57 172.47,-367.55"/>
<polygon fill="#63b8ff" stroke="#63b8ff" points="175.96,-367.23 171.44,-357.64 168.99,-367.95 175.96,-367.23"/>
</a>
</g>
</g>
<!-- Node6 -->
<g id="Node000006" class="node">
<title>Node6</title>
<g id="a_Node000006"><a xlink:href="_map_item_8h.html" target="_top" xlink:title=" ">
<polygon fill="white" stroke="#666666" points="281.62,-244 158.38,-244 158.38,-224 281.62,-224 281.62,-244"/>
<text text-anchor="middle" x="220" y="-230.5" font-family="Helvetica,sans-Serif" font-size="10.00">Cpl/Container/MapItem.h</text>
</a>
</g>
</g>
<!-- Node5&#45;&gt;Node6 -->
<g id="edge6_Node000005_Node000006" class="edge">
<title>Node5&#45;&gt;Node6</title>
<g id="a_edge6_Node000005_Node000006"><a xlink:title=" ">
<path fill="none" stroke="#63b8ff" d="M337.5,-335.92C337.77,-322.26 336.3,-296.26 323,-280 310.83,-265.11 292.76,-255.02 275.15,-248.24"/>
<polygon fill="#63b8ff" stroke="#63b8ff" points="276.31,-244.94 265.72,-244.93 274,-251.54 276.31,-244.94"/>
</a>
</g>
</g>
<!-- Node15 -->
<g id="Node000015" class="node">
<title>Node15</title>
<g id="a_Node000015"><a xlink:href="_output_8h.html" target="_top" xlink:title=" ">
<polygon fill="white" stroke="#666666" points="451.62,-300 370.38,-300 370.38,-280 451.62,-280 451.62,-300"/>
<text text-anchor="middle" x="411" y="-286.5" font-family="Helvetica,sans-Serif" font-size="10.00">Cpl/Io/Output.h</text>
</a>
</g>
</g>
<!-- Node5&#45;&gt;Node15 -->
<g id="edge16_Node000005_Node000015" class="edge">
<title>Node5&#45;&gt;Node15</title>
<g id="a_edge16_Node000005_Node000015"><a xlink:title=" ">
<path fill="none" stroke="#63b8ff" d="M349.89,-335.59C360.71,-327.7 376.41,-316.24 389.19,-306.92"/>
<polygon fill="#63b8ff" stroke="#63b8ff" points="391.02,-309.91 397.04,-301.19 386.89,-304.26 391.02,-309.91"/>
</a>
</g>
</g>
<!-- Node21 -->
<g id="Node000021" class="node">
<title>Node21</title>
<g id="a_Node000021"><a xlink:href="_security_8h.html" target="_top" xlink:title=" ">
<polygon fill="white" stroke="#666666" points="313.75,-300 206.25,-300 206.25,-280 313.75,-280 313.75,-300"/>
<text text-anchor="middle" x="260" y="-286.5" font-family="Helvetica,sans-Serif" font-size="10.00">Cpl/TShell/Security.h</text>
</a>
</g>
</g>
<!-- Node5&#45;&gt;Node21 -->
<g id="edge26_Node000005_Node000021" class="edge">
<title>Node5&#45;&gt;Node21</title>
<g id="a_edge26_Node000005_Node000021"><a xlink:title=" ">
<path fill="none" stroke="#63b8ff" d="M323.59,-335.59C312.39,-327.74 296.19,-316.38 282.94,-307.09"/>
<polygon fill="#63b8ff" stroke="#63b8ff" points="284.95,-304.22 274.76,-301.35 280.93,-309.96 284.95,-304.22"/>
</a>
</g>
</g>
<!-- Node7 -->
<g id="Node000007" class="node">
<title>Node7</title>
<g id="a_Node000007"><a xlink:href="_dict_item_8h.html" target="_top" xlink:title=" ">
<polygon fill="white" stroke="#666666" points="309.88,-188 188.12,-188 188.12,-168 309.88,-168 309.88,-188"/>
<text text-anchor="middle" x="249" y="-174.5" font-family="Helvetica,sans-Serif" font-size="10.00">Cpl/Container/DictItem.h</text>
</a>
</g>
</g>
<!-- Node6&#45;&gt;Node7 -->
<g id="edge7_Node000006_Node000007" class="edge">
<title>Node6&#45;&gt;Node7</title>
<g id="a_edge7_Node000006_Node000007"><a xlink:title=" ">
<path fill="none" stroke="#63b8ff" d="M225.05,-223.59C228.79,-216.63 234.02,-206.89 238.64,-198.29"/>
<polygon fill="#63b8ff" stroke="#63b8ff" points="241.64,-200.1 243.29,-189.63 235.48,-196.79 241.64,-200.1"/>
</a>
</g>
</g>
<!-- Node8 -->
<g id="Node000008" class="node">
<title>Node8</title>
<g id="a_Node000008"><a xlink:href="_item_8h.html" target="_top" xlink:title=" ">
<polygon fill="white" stroke="#666666" points="423.25,-132 318.75,-132 318.75,-112 423.25,-112 423.25,-132"/>
<text text-anchor="middle" x="371" y="-118.5" font-family="Helvetica,sans-Serif" font-size="10.00">Cpl/Container/Item.h</text>
</a>
</g>
</g>
<!-- Node7&#45;&gt;Node8 -->
<g id="edge8_Node000007_Node000008" class="edge">
<title>Node7&#45;&gt;Node8</title>
<g id="a_edge8_Node000007_Node000008"><a xlink:title=" ">
<path fill="none" stroke="#63b8ff" d="M270.25,-167.59C289.29,-159.17 317.48,-146.69 339.2,-137.07"/>
<polygon fill="#63b8ff" stroke="#63b8ff" points="340.47,-140.34 348.2,-133.09 337.64,-133.94 340.47,-140.34"/>
</a>
</g>
</g>
<!-- Node9 -->
<g id="Node000009" class="node">
<title>Node9</title>
<g id="a_Node000009"><a xlink:href="_key_8h.html" target="_top" xlink:title=" ">
<polygon fill="white" stroke="#666666" points="300.5,-132 197.5,-132 197.5,-112 300.5,-112 300.5,-132"/>
<text text-anchor="middle" x="249" y="-118.5" font-family="Helvetica,sans-Serif" font-size="10.00">Cpl/Container/Key.h</text>
</a>
</g>
</g>
<!-- Node7&#45;&gt;Node9 -->
<g id="edge9_Node000007_Node000009" class="edge">
<title>Node7&#45;&gt;Node9</title>
<g id="a_edge9_Node000007_Node000009"><a xlink:title=" ">
<path fill="none" stroke="#63b8ff" d="M249,-167.59C249,-161.01 249,-151.96 249,-143.73"/>
<polygon fill="#63b8ff" stroke="#63b8ff" points="252.5,-143.81 249,-133.81 245.5,-143.81 252.5,-143.81"/>
</a>
</g>
</g>
<!-- Node10 -->
<g id="Node000010" class="node">
<title>Node10</title>
<g id="a_Node000010"><a xlink:href="_fatal_error_8h.html" target="_top" xlink:title=" ">
<polygon fill="white" stroke="#666666" points="304.5,-76 183.5,-76 183.5,-56 304.5,-56 304.5,-76"/>
<text text-anchor="middle" x="244" y="-62.5" font-family="Helvetica,sans-Serif" font-size="10.00">Cpl/System/FatalError.h</text>
</a>
</g>
</g>
<!-- Node9&#45;&gt;Node10 -->
<g id="edge10_Node000009_Node000010" class="edge">
<title>Node9&#45;&gt;Node10</title>
<g id="a_edge10_Node000009_Node000010"><a xlink:title=" ">
<path fill="none" stroke="#63b8ff" d="M248.13,-111.59C247.52,-105.01 246.68,-95.96 245.92,-87.73"/>
<polygon fill="#63b8ff" stroke="#63b8ff" points="249.41,-87.44 245,-77.81 242.44,-88.09 249.41,-87.44"/>
</a>
</g>
</g>
<!-- Node12 -->
<g id="Node000012" class="node">
<title>Node12</title>
<g id="a_Node000012"><a xlink:title=" ">
<polygon fill="#e0e0e0" stroke="#999999" points="371.12,-76 322.88,-76 322.88,-56 371.12,-56 371.12,-76"/>
<text text-anchor="middle" x="347" y="-62.5" font-family="Helvetica,sans-Serif" font-size="10.00">stdint.h</text>
</a>
</g>
</g>
<!-- Node9&#45;&gt;Node12 -->
<g id="edge13_Node000009_Node000012" class="edge">
<title>Node9&#45;&gt;Node12</title>
<g id="a_edge13_Node000009_Node000012"><a xlink:title=" ">
<path fill="none" stroke="#63b8ff" d="M266.07,-111.59C280.88,-103.44 302.57,-91.48 319.77,-82"/>
<polygon fill="#63b8ff" stroke="#63b8ff" points="321.4,-85.1 328.47,-77.21 318.02,-78.97 321.4,-85.1"/>
</a>
</g>
</g>
<!-- Node13 -->
<g id="Node000013" class="node">
<title>Node13</title>
<g id="a_Node000013"><a xlink:title=" ">
<polygon fill="#e0e0e0" stroke="#999999" points="165.12,-76 116.88,-76 116.88,-56 165.12,-56 165.12,-76"/>
<text text-anchor="middle" x="141" y="-62.5" font-family="Helvetica,sans-Serif" font-size="10.00">string.h</text>
</a>
</g>
</g>
<!-- Node9&#45;&gt;Node13 -->
<g id="edge14_Node000009_Node000013" class="edge">
<title>Node9&#45;&gt;Node13</title>
<g id="a_edge14_Node000009_Node000013"><a xlink:title=" ">
<path fill="none" stroke="#63b8ff" d="M230.19,-111.59C213.64,-103.32 189.29,-91.14 170.21,-81.6"/>
<polygon fill="#63b8ff" stroke="#63b8ff" points="171.82,-78.5 161.31,-77.16 168.69,-84.76 171.82,-78.5"/>
</a>
</g>
</g>
<!-- Node14 -->
<g id="Node000014" class="node">
<title>Node14</title>
<g id="a_Node000014"><a xlink:title=" ">
<polygon fill="#e0e0e0" stroke="#999999" points="606.38,-76 529.62,-76 529.62,-56 606.38,-56 606.38,-76"/>
<text text-anchor="middle" x="568" y="-62.5" font-family="Helvetica,sans-Serif" font-size="10.00">colony_map.h</text>
</a>
</g>
</g>
<!-- Node9&#45;&gt;Node14 -->
<g id="edge15_Node000009_Node000014" class="edge">
<title>Node9&#45;&gt;Node14</title>
<g id="a_edge15_Node000009_Node000014"><a xlink:title=" ">
<path fill="none" stroke="#63b8ff" d="M300.96,-112.2C360.88,-102.06 458.69,-85.5 517.84,-75.49"/>
<polygon fill="#63b8ff" stroke="#63b8ff" points="518.36,-78.95 527.63,-73.83 517.19,-72.05 518.36,-78.95"/>
</a>
</g>
</g>
<!-- Node10&#45;&gt;Node3 -->
<g id="edge12_Node000010_Node000003" class="edge">
<title>Node10&#45;&gt;Node3</title>
<g id="a_edge12_Node000010_Node000003"><a xlink:title=" ">
<path fill="none" stroke="#63b8ff" d="M212.3,-55.59C182.47,-46.74 137.58,-33.43 104.63,-23.65"/>
<polygon fill="#63b8ff" stroke="#63b8ff" points="105.98,-20.4 95.4,-20.91 103.99,-27.11 105.98,-20.4"/>
</a>
</g>
</g>
<!-- Node11 -->
<g id="Node000011" class="node">
<title>Node11</title>
<g id="a_Node000011"><a xlink:title=" ">
<polygon fill="#e0e0e0" stroke="#999999" points="269.25,-20 218.75,-20 218.75,0 269.25,0 269.25,-20"/>
<text text-anchor="middle" x="244" y="-6.5" font-family="Helvetica,sans-Serif" font-size="10.00">stddef.h</text>
</a>
</g>
</g>
<!-- Node10&#45;&gt;Node11 -->
<g id="edge11_Node000010_Node000011" class="edge">
<title>Node10&#45;&gt;Node11</title>
<g id="a_edge11_Node000010_Node000011"><a xlink:title=" ">
<path fill="none" stroke="#63b8ff" d="M244,-55.59C244,-49.01 244,-39.96 244,-31.73"/>
<polygon fill="#63b8ff" stroke="#63b8ff" points="247.5,-31.81 244,-21.81 240.5,-31.81 247.5,-31.81"/>
</a>
</g>
</g>
<!-- Node15&#45;&gt;Node16 -->
<g id="edge17_Node000015_Node000016" class="edge">
<title>Node15&#45;&gt;Node16</title>
<g id="a_edge17_Node000015_Node000016"><a xlink:title=" ">
<path fill="none" stroke="#63b8ff" d="M438.87,-279.59C464.75,-270.86 503.53,-257.77 532.39,-248.03"/>
<polygon fill="#63b8ff" stroke="#63b8ff" points="533.12,-251.48 541.48,-244.96 530.88,-244.85 533.12,-251.48"/>
</a>
</g>
</g>
<!-- Node17 -->
<g id="Node000017" class="node">
<title>Node17</title>
<g id="a_Node000017"><a xlink:title=" ">
<polygon fill="#e0e0e0" stroke="#999999" points="429.62,-188 378.38,-188 378.38,-168 429.62,-168 429.62,-188"/>
<text text-anchor="middle" x="404" y="-174.5" font-family="Helvetica,sans-Serif" font-size="10.00">stdarg.h</text>
</a>
</g>
</g>
<!-- Node15&#45;&gt;Node17 -->
<g id="edge25_Node000015_Node000017" class="edge">
<title>Node15&#45;&gt;Node17</title>
<g id="a_edge25_Node000015_Node000017"><a xlink:title=" ">
<path fill="none" stroke="#63b8ff" d="M410.4,-279.62C409.28,-262.01 406.84,-223.59 405.31,-199.65"/>
<polygon fill="#63b8ff" stroke="#63b8ff" points="408.82,-199.62 404.69,-189.87 401.83,-200.07 408.82,-199.62"/>
</a>
</g>
</g>
<!-- Node19 -->
<g id="Node000019" class="node">
<title>Node19</title>
<g id="a_Node000019"><a xlink:href="_close_8h.html" target="_top" xlink:title=" ">
<polygon fill="white" stroke="#666666" points="376.38,-244 299.62,-244 299.62,-224 376.38,-224 376.38,-244"/>
<text text-anchor="middle" x="338" y="-230.5" font-family="Helvetica,sans-Serif" font-size="10.00">Cpl/Io/Close.h</text>
</a>
</g>
</g>
<!-- Node15&#45;&gt;Node19 -->
<g id="edge22_Node000015_Node000019" class="edge">
<title>Node15&#45;&gt;Node19</title>
<g id="a_edge22_Node000015_Node000019"><a xlink:title=" ">
<path fill="none" stroke="#63b8ff" d="M398.28,-279.59C387.61,-271.7 372.12,-260.24 359.52,-250.92"/>
<polygon fill="#63b8ff" stroke="#63b8ff" points="361.91,-248.33 351.79,-245.2 357.74,-253.96 361.91,-248.33"/>
</a>
</g>
</g>
<!-- Node20 -->
<g id="Node000020" class="node">
<title>Node20</title>
<g id="a_Node000020"><a xlink:href="_is_eos_8h.html" target="_top" xlink:title=" ">
<polygon fill="white" stroke="#666666" points="508.38,-244 431.62,-244 431.62,-224 508.38,-224 508.38,-244"/>
<text text-anchor="middle" x="470" y="-230.5" font-family="Helvetica,sans-Serif" font-size="10.00">Cpl/Io/IsEos.h</text>
</a>
</g>
</g>
<!-- Node15&#45;&gt;Node20 -->
<g id="edge24_Node000015_Node000020" class="edge">
<title>Node15&#45;&gt;Node20</title>
<g id="a_edge24_Node000015_Node000020"><a xlink:title=" ">
<path fill="none" stroke="#63b8ff" d="M421.28,-279.59C429.57,-272.01 441.45,-261.13 451.4,-252.02"/>
<polygon fill="#63b8ff" stroke="#63b8ff" points="453.71,-254.65 458.72,-245.32 448.98,-249.49 453.71,-254.65"/>
</a>
</g>
</g>
<!-- Node16&#45;&gt;Node9 -->
<g id="edge19_Node000016_Node000009" class="edge">
<title>Node16&#45;&gt;Node9</title>
<g id="a_edge19_Node000016_Node000009"><a xlink:title=" ">
<path fill="none" stroke="#63b8ff" d="M550.72,-223.56C531.61,-214.61 502.22,-200.67 477,-188 459.95,-179.43 456.87,-174.7 439,-168 397.86,-152.59 349.68,-141.25 312.14,-133.8"/>
<polygon fill="#63b8ff" stroke="#63b8ff" points="312.81,-130.37 302.33,-131.91 311.48,-137.24 312.81,-130.37"/>
</a>
</g>
</g>
<!-- Node16&#45;&gt;Node14 -->
<g id="edge18_Node000016_Node000014" class="edge">
<title>Node16&#45;&gt;Node14</title>
<g id="a_edge18_Node000016_Node000014"><a xlink:title=" ">
<path fill="none" stroke="#63b8ff" d="M570.83,-223.6C570.36,-197.46 569.02,-123.48 568.37,-87.36"/>
<polygon fill="#63b8ff" stroke="#63b8ff" points="571.88,-87.75 568.2,-77.81 564.88,-87.87 571.88,-87.75"/>
</a>
</g>
</g>
<!-- Node16&#45;&gt;Node17 -->
<g id="edge20_Node000016_Node000017" class="edge">
<title>Node16&#45;&gt;Node17</title>
<g id="a_edge20_Node000016_Node000017"><a xlink:title=" ">
<path fill="none" stroke="#63b8ff" d="M541.91,-223.59C513.78,-214.5 471.05,-200.68 440.62,-190.84"/>
<polygon fill="#63b8ff" stroke="#63b8ff" points="442.05,-187.62 431.45,-187.88 439.89,-194.28 442.05,-187.62"/>
</a>
</g>
</g>
<!-- Node18 -->
<g id="Node000018" class="node">
<title>Node18</title>
<g id="a_Node000018"><a xlink:title=" ">
<polygon fill="#e0e0e0" stroke="#999999" points="539.75,-188 486.25,-188 486.25,-168 539.75,-168 539.75,-188"/>
<text text-anchor="middle" x="513" y="-174.5" font-family="Helvetica,sans-Serif" font-size="10.00">iostream</text>
</a>
</g>
</g>
<!-- Node16&#45;&gt;Node18 -->
<g id="edge21_Node000016_Node000018" class="edge">
<title>Node16&#45;&gt;Node18</title>
<g id="a_edge21_Node000016_Node000018"><a xlink:title=" ">
<path fill="none" stroke="#63b8ff" d="M560.9,-223.59C552.75,-216.01 541.07,-205.13 531.28,-196.02"/>
<polygon fill="#63b8ff" stroke="#63b8ff" points="533.8,-193.58 524.09,-189.33 529.03,-198.71 533.8,-193.58"/>
</a>
</g>
</g>
<!-- Node19&#45;&gt;Node8 -->
<g id="edge23_Node000019_Node000008" class="edge">
<title>Node19&#45;&gt;Node8</title>
<g id="a_edge23_Node000019_Node000008"><a xlink:title=" ">
<path fill="none" stroke="#63b8ff" d="M340.81,-223.62C346.12,-205.92 357.73,-167.24 364.9,-143.32"/>
<polygon fill="#63b8ff" stroke="#63b8ff" points="368.24,-144.39 367.76,-133.8 361.53,-142.38 368.24,-144.39"/>
</a>
</g>
</g>
<!-- Node22&#45;&gt;Node5 -->
<g id="edge35_Node000022_Node000005" class="edge">
<title>Node22&#45;&gt;Node5</title>
<g id="a_edge35_Node000022_Node000005"><a xlink:title=" ">
<path fill="none" stroke="#63b8ff" d="M268.46,-391.59C280.76,-383.59 298.68,-371.93 313.11,-362.54"/>
<polygon fill="#63b8ff" stroke="#63b8ff" points="314.69,-365.69 321.16,-357.3 310.87,-359.82 314.69,-365.69"/>
</a>
</g>
</g>
<!-- Node22&#45;&gt;Node21 -->
<g id="edge34_Node000022_Node000021" class="edge">
<title>Node22&#45;&gt;Node21</title>
<g id="a_edge34_Node000022_Node000021"><a xlink:title=" ">
<path fill="none" stroke="#63b8ff" d="M254.51,-391.62C255.47,-374.01 257.57,-335.59 258.87,-311.65"/>
<polygon fill="#63b8ff" stroke="#63b8ff" points="262.36,-312.04 259.41,-301.87 255.37,-311.66 262.36,-312.04"/>
</a>
</g>
</g>
<!-- Node23 -->
<g id="Node000023" class="node">
<title>Node23</title>
<g id="a_Node000023"><a xlink:href="_processor_api_8h.html" target="_top" xlink:title=" ">
<polygon fill="white" stroke="#666666" points="543,-356 413,-356 413,-336 543,-336 543,-356"/>
<text text-anchor="middle" x="478" y="-342.5" font-family="Helvetica,sans-Serif" font-size="10.00">Cpl/TShell/ProcessorApi.h</text>
</a>
</g>
</g>
<!-- Node22&#45;&gt;Node23 -->
<g id="edge28_Node000022_Node000023" class="edge">
<title>Node22&#45;&gt;Node23</title>
<g id="a_edge28_Node000022_Node000023"><a xlink:title=" ">
<path fill="none" stroke="#63b8ff" d="M293.27,-391.53C330.66,-382.52 387.1,-368.91 427.75,-359.11"/>
<polygon fill="#63b8ff" stroke="#63b8ff" points="428.4,-362.56 437.3,-356.81 426.76,-355.75 428.4,-362.56"/>
</a>
</g>
</g>
<!-- Node22&#45;&gt;Node25 -->
<g id="edge36_Node000022_Node000025" class="edge">
<title>Node22&#45;&gt;Node25</title>
<g id="a_edge36_Node000022_Node000025"><a xlink:title=" ">
<path fill="none" stroke="#63b8ff" d="M239.54,-391.59C227.24,-383.59 209.32,-371.93 194.89,-362.54"/>
<polygon fill="#63b8ff" stroke="#63b8ff" points="197.13,-359.82 186.84,-357.3 193.31,-365.69 197.13,-359.82"/>
</a>
</g>
</g>
<!-- Node23&#45;&gt;Node15 -->
<g id="edge33_Node000023_Node000015" class="edge">
<title>Node23&#45;&gt;Node15</title>
<g id="a_edge33_Node000023_Node000015"><a xlink:title=" ">
<path fill="none" stroke="#63b8ff" d="M466.33,-335.59C456.72,-327.85 442.87,-316.69 431.43,-307.47"/>
<polygon fill="#63b8ff" stroke="#63b8ff" points="433.7,-304.8 423.72,-301.25 429.3,-310.25 433.7,-304.8"/>
</a>
</g>
</g>
<!-- Node24 -->
<g id="Node000024" class="node">
<title>Node24</title>
<g id="a_Node000024"><a xlink:href="_input_8h.html" target="_top" xlink:title=" ">
<polygon fill="white" stroke="#666666" points="542.5,-300 469.5,-300 469.5,-280 542.5,-280 542.5,-300"/>
<text text-anchor="middle" x="506" y="-286.5" font-family="Helvetica,sans-Serif" font-size="10.00">Cpl/Io/Input.h</text>
</a>
</g>
</g>
<!-- Node23&#45;&gt;Node24 -->
<g id="edge29_Node000023_Node000024" class="edge">
<title>Node23&#45;&gt;Node24</title>
<g id="a_edge29_Node000023_Node000024"><a xlink:title=" ">
<path fill="none" stroke="#63b8ff" d="M482.88,-335.59C486.49,-328.63 491.54,-318.89 496,-310.29"/>
<polygon fill="#63b8ff" stroke="#63b8ff" points="498.99,-312.13 500.48,-301.64 492.77,-308.91 498.99,-312.13"/>
</a>
</g>
</g>
<!-- Node24&#45;&gt;Node16 -->
<g id="edge30_Node000024_Node000016" class="edge">
<title>Node24&#45;&gt;Node16</title>
<g id="a_edge30_Node000024_Node000016"><a xlink:title=" ">
<path fill="none" stroke="#63b8ff" d="M517.32,-279.59C526.64,-271.85 540.08,-260.69 551.18,-251.47"/>
<polygon fill="#63b8ff" stroke="#63b8ff" points="553.19,-254.35 558.64,-245.27 548.71,-248.96 553.19,-254.35"/>
</a>
</g>
</g>
<!-- Node24&#45;&gt;Node19 -->
<g id="edge31_Node000024_Node000019" class="edge">
<title>Node24&#45;&gt;Node19</title>
<g id="a_edge31_Node000024_Node000019"><a xlink:title=" ">
<path fill="none" stroke="#63b8ff" d="M476.74,-279.59C449.44,-270.82 408.49,-257.66 378.15,-247.9"/>
<polygon fill="#63b8ff" stroke="#63b8ff" points="379.52,-244.67 368.93,-244.94 377.38,-251.33 379.52,-244.67"/>
</a>
</g>
</g>
<!-- Node24&#45;&gt;Node20 -->
<g id="edge32_Node000024_Node000020" class="edge">
<title>Node24&#45;&gt;Node20</title>
<g id="a_edge32_Node000024_Node000020"><a xlink:title=" ">
<path fill="none" stroke="#63b8ff" d="M499.73,-279.59C494.98,-272.47 488.3,-262.45 482.48,-253.72"/>
<polygon fill="#63b8ff" stroke="#63b8ff" points="485.5,-251.94 477.04,-245.56 479.67,-255.82 485.5,-251.94"/>
</a>
</g>
</g>
<!-- Node26 -->
<g id="Node000026" class="node">
<title>Node26</title>
<g id="a_Node000026"><a xlink:href="_avl_tree___8h.html" target="_top" xlink:title=" ">
<polygon fill="white" stroke="#666666" points="188.25,-300 65.75,-300 65.75,-280 188.25,-280 188.25,-300"/>
<text text-anchor="middle" x="127" y="-286.5" font-family="Helvetica,sans-Serif" font-size="10.00">Cpl/Container/AvlTree_.h</text>
</a>
</g>
</g>
<!-- Node25&#45;&gt;Node26 -->
<g id="edge37_Node000025_Node000026" class="edge">
<title>Node25&#45;&gt;Node26</title>
<g id="a_edge37_Node000025_Node000026"><a xlink:title=" ">
<path fill="none" stroke="#63b8ff" d="M163.34,-335.59C157.41,-328.32 149.01,-318.02 141.79,-309.15"/>
<polygon fill="#63b8ff" stroke="#63b8ff" points="144.56,-307.01 135.53,-301.47 139.14,-311.43 144.56,-307.01"/>
</a>
</g>
</g>
<!-- Node26&#45;&gt;Node3 -->
<g id="edge38_Node000026_Node000003" class="edge">
<title>Node26&#45;&gt;Node3</title>
<g id="a_edge38_Node000026_Node000003"><a xlink:title=" ">
<path fill="none" stroke="#63b8ff" d="M120.8,-279.75C109.12,-261.38 85,-218.66 85,-179 85,-179 85,-179 85,-121 85,-89.05 75.59,-52.96 68.8,-31.1"/>
<polygon fill="#63b8ff" stroke="#63b8ff" points="72.18,-30.15 65.76,-21.72 65.52,-32.31 72.18,-30.15"/>
</a>
</g>
</g>
<!-- Node26&#45;&gt;Node6 -->
<g id="edge39_Node000026_Node000006" class="edge">
<title>Node26&#45;&gt;Node6</title>
<g id="a_edge39_Node000026_Node000006"><a xlink:title=" ">
<path fill="none" stroke="#63b8ff" d="M143.2,-279.59C157.25,-271.44 177.83,-259.48 194.16,-250"/>
<polygon fill="#63b8ff" stroke="#63b8ff" points="195.47,-253.29 202.37,-245.24 191.96,-247.23 195.47,-253.29"/>
</a>
</g>
</g>
<!-- Node27&#45;&gt;Node14 -->
<g id="edge44_Node000027_Node000014" class="edge">
<title>Node27&#45;&gt;Node14</title>
<g id="a_edge44_Node000027_Node000014"><a xlink:title=" ">
<path fill="none" stroke="#63b8ff" d="M829.68,-223.84C839.87,-210.53 855.22,-185.5 843,-168 792.06,-95.02 682.26,-74.62 617.88,-69.02"/>
<polygon fill="#63b8ff" stroke="#63b8ff" points="618.54,-65.56 608.3,-68.28 618,-72.54 618.54,-65.56"/>
</a>
</g>
</g>
<!-- Node28 -->
<g id="Node000028" class="node">
<title>Node28</title>
<g id="a_Node000028"><a xlink:href="_runnable_8h.html" target="_top" xlink:title=" ">
<polygon fill="white" stroke="#666666" points="1074.38,-188 955.62,-188 955.62,-168 1074.38,-168 1074.38,-188"/>
<text text-anchor="middle" x="1015" y="-174.5" font-family="Helvetica,sans-Serif" font-size="10.00">Cpl/System/Runnable.h</text>
</a>
</g>
</g>
<!-- Node27&#45;&gt;Node28 -->
<g id="edge45_Node000027_Node000028" class="edge">
<title>Node27&#45;&gt;Node28</title>
<g id="a_edge45_Node000027_Node000028"><a xlink:title=" ">
<path fill="none" stroke="#63b8ff" d="M855.62,-223.59C887.39,-214.71 935.26,-201.31 970.25,-191.52"/>
<polygon fill="#63b8ff" stroke="#63b8ff" points="970.97,-194.95 979.66,-188.89 969.09,-188.21 970.97,-194.95"/>
</a>
</g>
</g>
<!-- Node29 -->
<g id="Node000029" class="node">
<title>Node29</title>
<g id="a_Node000029"><a xlink:href="_signable_8h.html" target="_top" xlink:title=" ">
<polygon fill="white" stroke="#666666" points="711.88,-188 596.12,-188 596.12,-168 711.88,-168 711.88,-188"/>
<text text-anchor="middle" x="654" y="-174.5" font-family="Helvetica,sans-Serif" font-size="10.00">Cpl/System/Signable.h</text>
</a>
</g>
</g>
<!-- Node27&#45;&gt;Node29 -->
<g id="edge46_Node000027_Node000029" class="edge">
<title>Node27&#45;&gt;Node29</title>
<g id="a_edge46_Node000027_Node000029"><a xlink:title=" ">
<path fill="none" stroke="#63b8ff" d="M792.74,-223.59C765.44,-214.82 724.49,-201.66 694.15,-191.9"/>
<polygon fill="#63b8ff" stroke="#63b8ff" points="695.52,-188.67 684.93,-188.94 693.38,-195.33 695.52,-188.67"/>
</a>
</g>
</g>
<!-- Node30 -->
<g id="Node000030" class="node">
<title>Node30</title>
<g id="a_Node000030"><a xlink:href="_traverser_8h.html" target="_top" xlink:title=" ">
<polygon fill="white" stroke="#666666" points="834.25,-188 729.75,-188 729.75,-168 834.25,-168 834.25,-188"/>
<text text-anchor="middle" x="782" y="-174.5" font-family="Helvetica,sans-Serif" font-size="10.00">Cpl/Type/Traverser.h</text>
</a>
</g>
</g>
<!-- Node27&#45;&gt;Node30 -->
<g id="edge48_Node000027_Node000030" class="edge">
<title>Node27&#45;&gt;Node30</title>
<g id="a_edge48_Node000027_Node000030"><a xlink:title=" ">
<path fill="none" stroke="#63b8ff" d="M815.03,-223.59C809.7,-216.39 802.17,-206.23 795.65,-197.43"/>
<polygon fill="#63b8ff" stroke="#63b8ff" points="798.55,-195.47 789.79,-189.51 792.93,-199.63 798.55,-195.47"/>
</a>
</g>
</g>
<!-- Node31 -->
<g id="Node000031" class="node">
<title>Node31</title>
<g id="a_Node000031"><a xlink:title=" ">
<polygon fill="#e0e0e0" stroke="#999999" points="937.75,-188 890.25,-188 890.25,-168 937.75,-168 937.75,-188"/>
<text text-anchor="middle" x="914" y="-174.5" font-family="Helvetica,sans-Serif" font-size="10.00">stdlib.h</text>
</a>
</g>
</g>
<!-- Node27&#45;&gt;Node31 -->
<g id="edge49_Node000027_Node000031" class="edge">
<title>Node27&#45;&gt;Node31</title>
<g id="a_edge49_Node000027_Node000031"><a xlink:title=" ">
<path fill="none" stroke="#63b8ff" d="M838.03,-223.59C851.79,-215.51 871.9,-203.71 887.98,-194.27"/>
<polygon fill="#63b8ff" stroke="#63b8ff" points="889.69,-197.33 896.54,-189.25 886.15,-191.29 889.69,-197.33"/>
</a>
</g>
</g>
<!-- Node29&#45;&gt;Node8 -->
<g id="edge47_Node000029_Node000008" class="edge">
<title>Node29&#45;&gt;Node8</title>
<g id="a_edge47_Node000029_Node000008"><a xlink:title=" ">
<path fill="none" stroke="#63b8ff" d="M604.38,-167.53C556.34,-158.36 483.39,-144.45 431.87,-134.61"/>
<polygon fill="#63b8ff" stroke="#63b8ff" points="432.53,-131.18 422.05,-132.74 431.22,-138.05 432.53,-131.18"/>
</a>
</g>
</g>
</g>
</svg>
