<?xml version="1.0" encoding="UTF-8" standalone="no"?>
<!DOCTYPE svg PUBLIC "-//W3C//DTD SVG 1.1//EN"
 "http://www.w3.org/Graphics/SVG/1.1/DTD/svg11.dtd">
<!-- Generated by graphviz version 10.0.1 (20240210.2158)
 -->
<!-- Title: Storm/Component/Equipment/Stage/FsmEventQueue_.h Pages: 1 -->
<svg width="441pt" height="176pt"
 viewBox="0.00 0.00 441.12 176.00" xmlns="http://www.w3.org/2000/svg" xmlns:xlink="http://www.w3.org/1999/xlink">
<g id="graph0" class="graph" transform="scale(1 1) rotate(0) translate(4 172)">
<title>Storm/Component/Equipment/Stage/FsmEventQueue_.h</title>
<!-- Node1 -->
<g id="Node000001" class="node">
<title>Node1</title>
<g id="a_Node000001"><a xlink:title=" ">
<polygon fill="#999999" stroke="#666666" points="362.25,-168 218,-168 218,-136 362.25,-136 362.25,-168"/>
<text text-anchor="start" x="226" y="-154.5" font-family="Helvetica,sans-Serif" font-size="10.00">Storm/Component/Equipment</text>
<text text-anchor="middle" x="290.12" y="-142.5" font-family="Helvetica,sans-Serif" font-size="10.00">/Stage/FsmEventQueue_.h</text>
</a>
</g>
</g>
<!-- Node2 -->
<g id="Node000002" class="node">
<title>Node2</title>
<g id="a_Node000002"><a xlink:href="_fsm___8h.html" target="_top" xlink:title=" ">
<polygon fill="white" stroke="#666666" points="285.25,-100 141,-100 141,-68 285.25,-68 285.25,-100"/>
<text text-anchor="start" x="149" y="-86.5" font-family="Helvetica,sans-Serif" font-size="10.00">Storm/Component/Equipment</text>
<text text-anchor="middle" x="213.12" y="-74.5" font-family="Helvetica,sans-Serif" font-size="10.00">/Stage/Fsm_.h</text>
</a>
</g>
</g>
<!-- Node1&#45;&gt;Node2 -->
<g id="edge1_Node000001_Node000002" class="edge">
<title>Node1&#45;&gt;Node2</title>
<g id="a_edge1_Node000001_Node000002"><a xlink:title=" ">
<path fill="none" stroke="#63b8ff" d="M272.27,-135.69C262.62,-127.42 250.51,-117.05 239.77,-107.84"/>
<polygon fill="#63b8ff" stroke="#63b8ff" points="242.17,-105.29 232.3,-101.44 237.62,-110.6 242.17,-105.29"/>
</a>
</g>
</g>
<!-- Node5 -->
<g id="Node000005" class="node">
<title>Node5</title>
<g id="a_Node000005"><a xlink:href="_ring_buffer_8h.html" target="_top" xlink:title=" ">
<polygon fill="white" stroke="#666666" points="433.12,-94 303.12,-94 303.12,-74 433.12,-74 433.12,-94"/>
<text text-anchor="middle" x="368.12" y="-80.5" font-family="Helvetica,sans-Serif" font-size="10.00">Cpl/Container/RingBuffer.h</text>
</a>
</g>
</g>
<!-- Node1&#45;&gt;Node5 -->
<g id="edge4_Node000001_Node000005" class="edge">
<title>Node1&#45;&gt;Node5</title>
<g id="a_edge4_Node000001_Node000005"><a xlink:title=" ">
<path fill="none" stroke="#63b8ff" d="M308.22,-135.69C320.27,-125.5 336.1,-112.1 348.46,-101.64"/>
<polygon fill="#63b8ff" stroke="#63b8ff" points="350.59,-104.43 355.96,-95.29 346.06,-99.08 350.59,-104.43"/>
</a>
</g>
</g>
<!-- Node3 -->
<g id="Node000003" class="node">
<title>Node3</title>
<g id="a_Node000003"><a xlink:href="_fsm__ext___8h.html" target="_top" xlink:title=" ">
<polygon fill="white" stroke="#666666" points="144.25,-32 0,-32 0,0 144.25,0 144.25,-32"/>
<text text-anchor="start" x="8" y="-18.5" font-family="Helvetica,sans-Serif" font-size="10.00">Storm/Component/Equipment</text>
<text text-anchor="middle" x="72.12" y="-6.5" font-family="Helvetica,sans-Serif" font-size="10.00">/Stage/Fsm_ext_.h</text>
</a>
</g>
</g>
<!-- Node2&#45;&gt;Node3 -->
<g id="edge2_Node000002_Node000003" class="edge">
<title>Node2&#45;&gt;Node3</title>
<g id="a_edge2_Node000002_Node000003"><a xlink:title=" ">
<path fill="none" stroke="#63b8ff" d="M180.07,-67.53C160.71,-58.46 136.05,-46.92 115.18,-37.15"/>
<polygon fill="#63b8ff" stroke="#63b8ff" points="116.89,-34.09 106.35,-33.02 113.92,-40.43 116.89,-34.09"/>
</a>
</g>
</g>
<!-- Node4 -->
<g id="Node000004" class="node">
<title>Node4</title>
<g id="a_Node000004"><a xlink:href="_fsm_context___8h.html" target="_top" xlink:title=" ">
<polygon fill="white" stroke="#666666" points="306.25,-32 162,-32 162,0 306.25,0 306.25,-32"/>
<text text-anchor="start" x="170" y="-18.5" font-family="Helvetica,sans-Serif" font-size="10.00">Storm/Component/Equipment</text>
<text text-anchor="middle" x="234.12" y="-6.5" font-family="Helvetica,sans-Serif" font-size="10.00">/Stage/FsmContext_.h</text>
</a>
</g>
</g>
<!-- Node2&#45;&gt;Node4 -->
<g id="edge3_Node000002_Node000004" class="edge">
<title>Node2&#45;&gt;Node4</title>
<g id="a_edge3_Node000002_Node000004"><a xlink:title=" ">
<path fill="none" stroke="#63b8ff" d="M218,-67.69C220.33,-60.36 223.19,-51.38 225.85,-43.02"/>
<polygon fill="#63b8ff" stroke="#63b8ff" points="229.13,-44.26 228.82,-33.67 222.45,-42.13 229.13,-44.26"/>
</a>
</g>
</g>
<!-- Node6 -->
<g id="Node000006" class="node">
<title>Node6</title>
<g id="a_Node000006"><a xlink:title=" ">
<polygon fill="#e0e0e0" stroke="#999999" points="392.25,-26 344,-26 344,-6 392.25,-6 392.25,-26"/>
<text text-anchor="middle" x="368.12" y="-12.5" font-family="Helvetica,sans-Serif" font-size="10.00">stdint.h</text>
</a>
</g>
</g>
<!-- Node5&#45;&gt;Node6 -->
<g id="edge5_Node000005_Node000006" class="edge">
<title>Node5&#45;&gt;Node6</title>
<g id="a_edge5_Node000005_Node000006"><a xlink:title=" ">
<path fill="none" stroke="#63b8ff" d="M368.12,-73.54C368.12,-64.23 368.12,-49.7 368.12,-37.7"/>
<polygon fill="#63b8ff" stroke="#63b8ff" points="371.63,-37.95 368.13,-27.95 364.63,-37.95 371.63,-37.95"/>
</a>
</g>
</g>
</g>
</svg>
