<?xml version="1.0" encoding="UTF-8" standalone="no"?>
<!DOCTYPE svg PUBLIC "-//W3C//DTD SVG 1.1//EN"
 "http://www.w3.org/Graphics/SVG/1.1/DTD/svg11.dtd">
<!-- Generated by graphviz version 2.38.0 (20140413.2041)
 -->
<!-- Title: Storm/Component/Equipment/Stage/FsmEventQueue_.h Pages: 1 -->
<svg width="446pt" height="173pt"
 viewBox="0.00 0.00 445.50 173.00" xmlns="http://www.w3.org/2000/svg" xmlns:xlink="http://www.w3.org/1999/xlink">
<g id="graph0" class="graph" transform="scale(1 1) rotate(0) translate(4 169)">
<title>Storm/Component/Equipment/Stage/FsmEventQueue_.h</title>
<polygon fill="white" stroke="none" points="-4,4 -4,-169 441.5,-169 441.5,4 -4,4"/>
<!-- Node1 -->
<g id="node1" class="node"><title>Node1</title>
<g id="a_node1"><a xlink:title=" ">
<polygon fill="#bfbfbf" stroke="black" points="220,-134.5 220,-164.5 365,-164.5 365,-134.5 220,-134.5"/>
<text text-anchor="start" x="228" y="-152.5" font-family="Helvetica,sans-Serif" font-size="10.00">Storm/Component/Equipment</text>
<text text-anchor="middle" x="292.5" y="-141.5" font-family="Helvetica,sans-Serif" font-size="10.00">/Stage/FsmEventQueue_.h</text>
</a>
</g>
</g>
<!-- Node2 -->
<g id="node2" class="node"><title>Node2</title>
<g id="a_node2"><a xlink:href="_fsm___8h.html" target="_top" xlink:title=" ">
<polygon fill="white" stroke="black" points="142,-67.5 142,-97.5 287,-97.5 287,-67.5 142,-67.5"/>
<text text-anchor="start" x="150" y="-85.5" font-family="Helvetica,sans-Serif" font-size="10.00">Storm/Component/Equipment</text>
<text text-anchor="middle" x="214.5" y="-74.5" font-family="Helvetica,sans-Serif" font-size="10.00">/Stage/Fsm_.h</text>
</a>
</g>
</g>
<!-- Node1&#45;&gt;Node2 -->
<g id="edge1" class="edge"><title>Node1&#45;&gt;Node2</title>
<path fill="none" stroke="midnightblue" d="M275.575,-134.396C264.945,-125.538 251.052,-113.96 239.203,-104.086"/>
<polygon fill="midnightblue" stroke="midnightblue" points="241.315,-101.29 231.392,-97.5765 236.833,-106.667 241.315,-101.29"/>
</g>
<!-- Node5 -->
<g id="node5" class="node"><title>Node5</title>
<g id="a_node5"><a xlink:href="_ring_buffer_8h.html" target="_top" xlink:title=" ">
<polygon fill="white" stroke="black" points="305.5,-73 305.5,-92 437.5,-92 437.5,-73 305.5,-73"/>
<text text-anchor="middle" x="371.5" y="-80" font-family="Helvetica,sans-Serif" font-size="10.00">Cpl/Container/RingBuffer.h</text>
</a>
</g>
</g>
<!-- Node1&#45;&gt;Node5 -->
<g id="edge4" class="edge"><title>Node1&#45;&gt;Node5</title>
<path fill="none" stroke="midnightblue" d="M309.642,-134.396C322.447,-123.86 339.928,-109.477 353.04,-98.6886"/>
<polygon fill="midnightblue" stroke="midnightblue" points="355.434,-101.251 360.933,-92.1945 350.987,-95.8455 355.434,-101.251"/>
</g>
<!-- Node3 -->
<g id="node3" class="node"><title>Node3</title>
<g id="a_node3"><a xlink:href="_fsm__ext___8h.html" target="_top" xlink:title=" ">
<polygon fill="white" stroke="black" points="0,-0.5 0,-30.5 145,-30.5 145,-0.5 0,-0.5"/>
<text text-anchor="start" x="8" y="-18.5" font-family="Helvetica,sans-Serif" font-size="10.00">Storm/Component/Equipment</text>
<text text-anchor="middle" x="72.5" y="-7.5" font-family="Helvetica,sans-Serif" font-size="10.00">/Stage/Fsm_ext_.h</text>
</a>
</g>
</g>
<!-- Node2&#45;&gt;Node3 -->
<g id="edge2" class="edge"><title>Node2&#45;&gt;Node3</title>
<path fill="none" stroke="midnightblue" d="M183.688,-67.396C162.847,-57.8561 135.118,-45.1632 112.565,-34.8397"/>
<polygon fill="midnightblue" stroke="midnightblue" points="113.801,-31.5563 103.252,-30.5765 110.888,-37.9211 113.801,-31.5563"/>
</g>
<!-- Node4 -->
<g id="node4" class="node"><title>Node4</title>
<g id="a_node4"><a xlink:href="_fsm_context___8h.html" target="_top" xlink:title=" ">
<polygon fill="white" stroke="black" points="163,-0.5 163,-30.5 308,-30.5 308,-0.5 163,-0.5"/>
<text text-anchor="start" x="171" y="-18.5" font-family="Helvetica,sans-Serif" font-size="10.00">Storm/Component/Equipment</text>
<text text-anchor="middle" x="235.5" y="-7.5" font-family="Helvetica,sans-Serif" font-size="10.00">/Stage/FsmContext_.h</text>
</a>
</g>
</g>
<!-- Node2&#45;&gt;Node4 -->
<g id="edge3" class="edge"><title>Node2&#45;&gt;Node4</title>
<path fill="none" stroke="midnightblue" d="M219.057,-67.396C221.616,-59.4745 224.878,-49.379 227.82,-40.2712"/>
<polygon fill="midnightblue" stroke="midnightblue" points="231.208,-41.1682 230.952,-30.5765 224.547,-39.0162 231.208,-41.1682"/>
</g>
<!-- Node6 -->
<g id="node6" class="node"><title>Node6</title>
<g id="a_node6"><a xlink:title=" ">
<polygon fill="white" stroke="#bfbfbf" points="347,-6 347,-25 396,-25 396,-6 347,-6"/>
<text text-anchor="middle" x="371.5" y="-13" font-family="Helvetica,sans-Serif" font-size="10.00">stdint.h</text>
</a>
</g>
</g>
<!-- Node5&#45;&gt;Node6 -->
<g id="edge5" class="edge"><title>Node5&#45;&gt;Node6</title>
<path fill="none" stroke="midnightblue" d="M371.5,-72.7338C371.5,-63.1826 371.5,-47.6183 371.5,-35.2829"/>
<polygon fill="midnightblue" stroke="midnightblue" points="375,-35.1273 371.5,-25.1273 368,-35.1273 375,-35.1273"/>
</g>
</g>
</svg>
