<?xml version="1.0" encoding="UTF-8" standalone="no"?>
<!DOCTYPE svg PUBLIC "-//W3C//DTD SVG 1.1//EN"
 "http://www.w3.org/Graphics/SVG/1.1/DTD/svg11.dtd">
<!-- Generated by graphviz version 2.38.0 (20140413.2041)
 -->
<!-- Title: Cpl/Type/Guid.h Pages: 1 -->
<svg width="380pt" height="252pt"
 viewBox="0.00 0.00 380.00 252.00" xmlns="http://www.w3.org/2000/svg" xmlns:xlink="http://www.w3.org/1999/xlink">
<g id="graph0" class="graph" transform="scale(1 1) rotate(0) translate(4 248)">
<title>Cpl/Type/Guid.h</title>
<polygon fill="white" stroke="none" points="-4,4 -4,-248 376,-248 376,4 -4,4"/>
<!-- Node1 -->
<g id="node1" class="node"><title>Node1</title>
<g id="a_node1"><a xlink:title=" ">
<polygon fill="#bfbfbf" stroke="black" points="262,-224.5 262,-243.5 349,-243.5 349,-224.5 262,-224.5"/>
<text text-anchor="middle" x="305.5" y="-231.5" font-family="Helvetica,sans-Serif" font-size="10.00">Cpl/Type/Guid.h</text>
</a>
</g>
</g>
<!-- Node2 -->
<g id="node2" class="node"><title>Node2</title>
<g id="a_node2"><a xlink:href="_text_2_string_8h.html" target="_top" xlink:title=" ">
<polygon fill="white" stroke="black" points="197.5,-168.5 197.5,-187.5 287.5,-187.5 287.5,-168.5 197.5,-168.5"/>
<text text-anchor="middle" x="242.5" y="-175.5" font-family="Helvetica,sans-Serif" font-size="10.00">Cpl/Text/String.h</text>
</a>
</g>
</g>
<!-- Node1&#45;&gt;Node2 -->
<g id="edge1" class="edge"><title>Node1&#45;&gt;Node2</title>
<path fill="none" stroke="midnightblue" d="M295.378,-224.324C285.974,-216.263 271.756,-204.077 260.431,-194.369"/>
<polygon fill="midnightblue" stroke="midnightblue" points="262.677,-191.684 252.806,-187.834 258.121,-196.999 262.677,-191.684"/>
</g>
<!-- Node8 -->
<g id="node8" class="node"><title>Node8</title>
<g id="a_node8"><a xlink:title=" ">
<polygon fill="white" stroke="#bfbfbf" points="323,-56.5 323,-75.5 372,-75.5 372,-56.5 323,-56.5"/>
<text text-anchor="middle" x="347.5" y="-63.5" font-family="Helvetica,sans-Serif" font-size="10.00">stdint.h</text>
</a>
</g>
</g>
<!-- Node1&#45;&gt;Node8 -->
<g id="edge12" class="edge"><title>Node1&#45;&gt;Node8</title>
<path fill="none" stroke="midnightblue" d="M310.661,-224.489C320.566,-207.597 341.931,-168.325 349.5,-132 352.706,-116.613 351.834,-98.7379 350.37,-85.6319"/>
<polygon fill="midnightblue" stroke="midnightblue" points="353.814,-84.973 349.02,-75.5246 346.875,-85.9 353.814,-84.973"/>
</g>
<!-- Node3 -->
<g id="node3" class="node"><title>Node3</title>
<g id="a_node3"><a xlink:title=" ">
<polygon fill="white" stroke="#bfbfbf" points="0,-56.5 0,-75.5 77,-75.5 77,-56.5 0,-56.5"/>
<text text-anchor="middle" x="38.5" y="-63.5" font-family="Helvetica,sans-Serif" font-size="10.00">colony_map.h</text>
</a>
</g>
</g>
<!-- Node2&#45;&gt;Node3 -->
<g id="edge2" class="edge"><title>Node2&#45;&gt;Node3</title>
<path fill="none" stroke="midnightblue" d="M197.485,-172.109C164.103,-166.683 118.805,-155.374 85.5,-132 68.2738,-119.91 55.0068,-99.4425 47.0278,-84.7015"/>
<polygon fill="midnightblue" stroke="midnightblue" points="50.0345,-82.8939 42.3649,-75.5844 43.8023,-86.0813 50.0345,-82.8939"/>
</g>
<!-- Node4 -->
<g id="node4" class="node"><title>Node4</title>
<g id="a_node4"><a xlink:href="_key_8h.html" target="_top" xlink:title=" ">
<polygon fill="white" stroke="black" points="94.5,-112.5 94.5,-131.5 198.5,-131.5 198.5,-112.5 94.5,-112.5"/>
<text text-anchor="middle" x="146.5" y="-119.5" font-family="Helvetica,sans-Serif" font-size="10.00">Cpl/Container/Key.h</text>
</a>
</g>
</g>
<!-- Node2&#45;&gt;Node4 -->
<g id="edge3" class="edge"><title>Node2&#45;&gt;Node4</title>
<path fill="none" stroke="midnightblue" d="M227.076,-168.324C211.96,-159.822 188.685,-146.729 171.029,-136.797"/>
<polygon fill="midnightblue" stroke="midnightblue" points="172.317,-133.507 161.886,-131.655 168.886,-139.608 172.317,-133.507"/>
</g>
<!-- Node10 -->
<g id="node10" class="node"><title>Node10</title>
<g id="a_node10"><a xlink:title=" ">
<polygon fill="white" stroke="#bfbfbf" points="216.5,-112.5 216.5,-131.5 268.5,-131.5 268.5,-112.5 216.5,-112.5"/>
<text text-anchor="middle" x="242.5" y="-119.5" font-family="Helvetica,sans-Serif" font-size="10.00">stdarg.h</text>
</a>
</g>
</g>
<!-- Node2&#45;&gt;Node10 -->
<g id="edge10" class="edge"><title>Node2&#45;&gt;Node10</title>
<path fill="none" stroke="midnightblue" d="M242.5,-168.083C242.5,-161.006 242.5,-150.861 242.5,-141.986"/>
<polygon fill="midnightblue" stroke="midnightblue" points="246,-141.751 242.5,-131.751 239,-141.751 246,-141.751"/>
</g>
<!-- Node11 -->
<g id="node11" class="node"><title>Node11</title>
<g id="a_node11"><a xlink:title=" ">
<polygon fill="white" stroke="#bfbfbf" points="286.5,-112.5 286.5,-131.5 340.5,-131.5 340.5,-112.5 286.5,-112.5"/>
<text text-anchor="middle" x="313.5" y="-119.5" font-family="Helvetica,sans-Serif" font-size="10.00">iostream</text>
</a>
</g>
</g>
<!-- Node2&#45;&gt;Node11 -->
<g id="edge11" class="edge"><title>Node2&#45;&gt;Node11</title>
<path fill="none" stroke="midnightblue" d="M253.907,-168.324C264.609,-160.185 280.841,-147.839 293.663,-138.087"/>
<polygon fill="midnightblue" stroke="midnightblue" points="296.044,-140.673 301.885,-131.834 291.807,-135.102 296.044,-140.673"/>
</g>
<!-- Node4&#45;&gt;Node3 -->
<g id="edge9" class="edge"><title>Node4&#45;&gt;Node3</title>
<path fill="none" stroke="midnightblue" d="M129.148,-112.324C111.828,-103.664 84.9847,-90.2424 64.9981,-80.249"/>
<polygon fill="midnightblue" stroke="midnightblue" points="66.3186,-76.9962 55.809,-75.6545 63.188,-83.2572 66.3186,-76.9962"/>
</g>
<!-- Node5 -->
<g id="node5" class="node"><title>Node5</title>
<g id="a_node5"><a xlink:href="_fatal_error_8h.html" target="_top" xlink:title=" ">
<polygon fill="white" stroke="black" points="95.5,-56.5 95.5,-75.5 217.5,-75.5 217.5,-56.5 95.5,-56.5"/>
<text text-anchor="middle" x="156.5" y="-63.5" font-family="Helvetica,sans-Serif" font-size="10.00">Cpl/System/FatalError.h</text>
</a>
</g>
</g>
<!-- Node4&#45;&gt;Node5 -->
<g id="edge4" class="edge"><title>Node4&#45;&gt;Node5</title>
<path fill="none" stroke="midnightblue" d="M148.151,-112.083C149.476,-104.927 151.382,-94.6353 153.039,-85.6911"/>
<polygon fill="midnightblue" stroke="midnightblue" points="156.5,-86.2212 154.879,-75.7511 149.617,-84.9466 156.5,-86.2212"/>
</g>
<!-- Node4&#45;&gt;Node8 -->
<g id="edge7" class="edge"><title>Node4&#45;&gt;Node8</title>
<path fill="none" stroke="midnightblue" d="M178.349,-112.444C214.977,-102.603 274.911,-86.5016 312.728,-76.3418"/>
<polygon fill="midnightblue" stroke="midnightblue" points="314.021,-79.6186 322.77,-73.6439 312.204,-72.8584 314.021,-79.6186"/>
</g>
<!-- Node9 -->
<g id="node9" class="node"><title>Node9</title>
<g id="a_node9"><a xlink:title=" ">
<polygon fill="white" stroke="#bfbfbf" points="236,-56.5 236,-75.5 285,-75.5 285,-56.5 236,-56.5"/>
<text text-anchor="middle" x="260.5" y="-63.5" font-family="Helvetica,sans-Serif" font-size="10.00">string.h</text>
</a>
</g>
</g>
<!-- Node4&#45;&gt;Node9 -->
<g id="edge8" class="edge"><title>Node4&#45;&gt;Node9</title>
<path fill="none" stroke="midnightblue" d="M164.564,-112.444C183.075,-103.675 212.081,-89.9355 233.355,-79.8579"/>
<polygon fill="midnightblue" stroke="midnightblue" points="234.982,-82.9604 242.521,-75.5164 231.985,-76.6343 234.982,-82.9604"/>
</g>
<!-- Node6 -->
<g id="node6" class="node"><title>Node6</title>
<g id="a_node6"><a xlink:title=" ">
<polygon fill="white" stroke="#bfbfbf" points="86.5,-0.5 86.5,-19.5 138.5,-19.5 138.5,-0.5 86.5,-0.5"/>
<text text-anchor="middle" x="112.5" y="-7.5" font-family="Helvetica,sans-Serif" font-size="10.00">stddef.h</text>
</a>
</g>
</g>
<!-- Node5&#45;&gt;Node6 -->
<g id="edge5" class="edge"><title>Node5&#45;&gt;Node6</title>
<path fill="none" stroke="midnightblue" d="M149.234,-56.083C142.955,-48.3768 133.712,-37.0333 126.069,-27.6531"/>
<polygon fill="midnightblue" stroke="midnightblue" points="128.661,-25.2926 119.631,-19.7511 123.234,-29.7143 128.661,-25.2926"/>
</g>
<!-- Node7 -->
<g id="node7" class="node"><title>Node7</title>
<g id="a_node7"><a xlink:title=" ">
<polygon fill="white" stroke="#bfbfbf" points="157,-0.5 157,-19.5 242,-19.5 242,-0.5 157,-0.5"/>
<text text-anchor="middle" x="199.5" y="-7.5" font-family="Helvetica,sans-Serif" font-size="10.00">colony_config.h</text>
</a>
</g>
</g>
<!-- Node5&#45;&gt;Node7 -->
<g id="edge6" class="edge"><title>Node5&#45;&gt;Node7</title>
<path fill="none" stroke="midnightblue" d="M163.601,-56.083C169.737,-48.3768 178.77,-37.0333 186.239,-27.6531"/>
<polygon fill="midnightblue" stroke="midnightblue" points="189.04,-29.7542 192.532,-19.7511 183.564,-25.3936 189.04,-29.7542"/>
</g>
</g>
</svg>
