<?xml version="1.0" encoding="UTF-8" standalone="no"?>
<!DOCTYPE svg PUBLIC "-//W3C//DTD SVG 1.1//EN"
 "http://www.w3.org/Graphics/SVG/1.1/DTD/svg11.dtd">
<!-- Generated by graphviz version 2.38.0 (20140413.2041)
 -->
<!-- Title: Cpl/Io/Input.h Pages: 1 -->
<svg width="2571pt" height="363pt"
 viewBox="0.00 0.00 2570.50 363.00" xmlns="http://www.w3.org/2000/svg" xmlns:xlink="http://www.w3.org/1999/xlink">
<g id="graph0" class="graph" transform="scale(1 1) rotate(0) translate(4 359)">
<title>Cpl/Io/Input.h</title>
<polygon fill="white" stroke="none" points="-4,4 -4,-359 2566.5,-359 2566.5,4 -4,4"/>
<!-- Node1 -->
<g id="node1" class="node"><title>Node1</title>
<g id="a_node1"><a xlink:title=" ">
<polygon fill="#bfbfbf" stroke="black" points="1264,-335.5 1264,-354.5 1339,-354.5 1339,-335.5 1264,-335.5"/>
<text text-anchor="middle" x="1301.5" y="-342.5" font-family="Helvetica,sans-Serif" font-size="10.00">Cpl/Io/Input.h</text>
</a>
</g>
</g>
<!-- Node2 -->
<g id="node2" class="node"><title>Node2</title>
<g id="a_node2"><a xlink:href="_input_api_8h.html" target="_top" xlink:title=" ">
<polygon fill="white" stroke="black" points="148.5,-274 148.5,-293 256.5,-293 256.5,-274 148.5,-274"/>
<text text-anchor="middle" x="202.5" y="-281" font-family="Helvetica,sans-Serif" font-size="10.00">Cpl/Io/File/InputApi.h</text>
</a>
</g>
</g>
<!-- Node1&#45;&gt;Node2 -->
<g id="edge1" class="edge"><title>Node1&#45;&gt;Node2</title>
<path fill="none" stroke="midnightblue" d="M1253.86,-342.932C1112.62,-339.521 683.934,-327.405 329.5,-299 305.609,-297.085 279.273,-294.205 256.807,-291.516"/>
<polygon fill="midnightblue" stroke="midnightblue" points="1253.83,-346.432 1263.91,-343.172 1254,-339.434 1253.83,-346.432"/>
</g>
<!-- Node7 -->
<g id="node7" class="node"><title>Node7</title>
<g id="a_node7"><a xlink:href="_input_output_8h.html" target="_top" xlink:title=" ">
<polygon fill="white" stroke="black" points="859.5,-274 859.5,-293 963.5,-293 963.5,-274 859.5,-274"/>
<text text-anchor="middle" x="911.5" y="-281" font-family="Helvetica,sans-Serif" font-size="10.00">Cpl/Io/InputOutput.h</text>
</a>
</g>
</g>
<!-- Node1&#45;&gt;Node7 -->
<g id="edge6" class="edge"><title>Node1&#45;&gt;Node7</title>
<path fill="none" stroke="midnightblue" d="M1253.84,-336.728C1180.33,-325.514 1039.86,-304.083 963.699,-292.464"/>
<polygon fill="midnightblue" stroke="midnightblue" points="1253.34,-340.193 1263.75,-338.241 1254.39,-333.273 1253.34,-340.193"/>
</g>
<!-- Node19 -->
<g id="node19" class="node"><title>Node19</title>
<g id="a_node19"><a xlink:href="_line_reader_8h.html" target="_top" xlink:title=" ">
<polygon fill="white" stroke="black" points="1423.5,-274 1423.5,-293 1525.5,-293 1525.5,-274 1423.5,-274"/>
<text text-anchor="middle" x="1474.5" y="-281" font-family="Helvetica,sans-Serif" font-size="10.00">Cpl/Io/LineReader.h</text>
</a>
</g>
</g>
<!-- Node1&#45;&gt;Node19 -->
<g id="edge20" class="edge"><title>Node1&#45;&gt;Node19</title>
<path fill="none" stroke="midnightblue" d="M1336.15,-332.083C1369.78,-320.517 1419.98,-303.252 1449.76,-293.009"/>
<polygon fill="midnightblue" stroke="midnightblue" points="1334.6,-328.913 1326.29,-335.475 1336.88,-335.532 1334.6,-328.913"/>
</g>
<!-- Node20 -->
<g id="node20" class="node"><title>Node20</title>
<g id="a_node20"><a xlink:href="_input___8h.html" target="_top" xlink:title=" ">
<polygon fill="white" stroke="black" points="338.5,-274 338.5,-293 444.5,-293 444.5,-274 338.5,-274"/>
<text text-anchor="middle" x="391.5" y="-281" font-family="Helvetica,sans-Serif" font-size="10.00">Cpl/Io/Stdio/Input_.h</text>
</a>
</g>
</g>
<!-- Node1&#45;&gt;Node20 -->
<g id="edge21" class="edge"><title>Node1&#45;&gt;Node20</title>
<path fill="none" stroke="midnightblue" d="M1253.66,-340.872C1098.16,-330.705 607.599,-298.63 444.68,-287.977"/>
<polygon fill="midnightblue" stroke="midnightblue" points="1253.64,-344.378 1263.84,-341.538 1254.09,-337.393 1253.64,-344.378"/>
</g>
<!-- Node22 -->
<g id="node22" class="node"><title>Node22</title>
<g id="a_node22"><a xlink:href="_stream_decoder_8h.html" target="_top" xlink:title=" ">
<polygon fill="white" stroke="black" points="1975,-207 1975,-226 2138,-226 2138,-207 1975,-207"/>
<text text-anchor="middle" x="2056.5" y="-214" font-family="Helvetica,sans-Serif" font-size="10.00">Cpl/Text/Frame/StreamDecoder.h</text>
</a>
</g>
</g>
<!-- Node1&#45;&gt;Node22 -->
<g id="edge25" class="edge"><title>Node1&#45;&gt;Node22</title>
<path fill="none" stroke="midnightblue" d="M1325.84,-330.238C1340.51,-321.687 1359.41,-310.219 1375.5,-299 1393.66,-286.334 1393.9,-276.111 1414.5,-268 1465.38,-247.97 1813.39,-229.063 1974.71,-221.259"/>
<polygon fill="midnightblue" stroke="midnightblue" points="1323.79,-327.377 1316.88,-335.404 1327.29,-333.442 1323.79,-327.377"/>
</g>
<!-- Node27 -->
<g id="node27" class="node"><title>Node27</title>
<g id="a_node27"><a xlink:href="_processor_api_8h.html" target="_top" xlink:title=" ">
<polygon fill="white" stroke="black" points="1236,-274 1236,-293 1367,-293 1367,-274 1236,-274"/>
<text text-anchor="middle" x="1301.5" y="-281" font-family="Helvetica,sans-Serif" font-size="10.00">Cpl/TShell/ProcessorApi.h</text>
</a>
</g>
</g>
<!-- Node1&#45;&gt;Node27 -->
<g id="edge31" class="edge"><title>Node1&#45;&gt;Node27</title>
<path fill="none" stroke="midnightblue" d="M1301.5,-325.317C1301.5,-314.496 1301.5,-301.398 1301.5,-293.009"/>
<polygon fill="midnightblue" stroke="midnightblue" points="1298,-325.475 1301.5,-335.475 1305,-325.475 1298,-325.475"/>
</g>
<!-- Node46 -->
<g id="node46" class="node"><title>Node46</title>
<g id="a_node46"><a xlink:href="_main_8h.html" target="_top" xlink:title=" ">
<polygon fill="white" stroke="black" points="1544,-268.5 1544,-298.5 1663,-298.5 1663,-268.5 1544,-268.5"/>
<text text-anchor="start" x="1552" y="-286.5" font-family="Helvetica,sans-Serif" font-size="10.00">Storm/Thermostat/Main</text>
<text text-anchor="middle" x="1603.5" y="-275.5" font-family="Helvetica,sans-Serif" font-size="10.00">/Main.h</text>
</a>
</g>
</g>
<!-- Node1&#45;&gt;Node46 -->
<g id="edge52" class="edge"><title>Node1&#45;&gt;Node46</title>
<path fill="none" stroke="midnightblue" d="M1348.99,-335.064C1396.1,-326.143 1470.35,-311.935 1534.5,-299 1537.5,-298.395 1540.57,-297.77 1543.67,-297.135"/>
<polygon fill="midnightblue" stroke="midnightblue" points="1348.24,-331.643 1339.07,-336.94 1349.54,-338.521 1348.24,-331.643"/>
</g>
<!-- Node3 -->
<g id="node3" class="node"><title>Node3</title>
<g id="a_node3"><a xlink:href="_file_2_input_8h.html" target="_top" xlink:title=" ">
<polygon fill="white" stroke="black" points="155.5,-207 155.5,-226 249.5,-226 249.5,-207 155.5,-207"/>
<text text-anchor="middle" x="202.5" y="-214" font-family="Helvetica,sans-Serif" font-size="10.00">Cpl/Io/File/Input.h</text>
</a>
</g>
</g>
<!-- Node2&#45;&gt;Node3 -->
<g id="edge2" class="edge"><title>Node2&#45;&gt;Node3</title>
<path fill="none" stroke="midnightblue" d="M202.5,-263.537C202.5,-251.17 202.5,-235.62 202.5,-226.127"/>
<polygon fill="midnightblue" stroke="midnightblue" points="199,-263.734 202.5,-273.734 206,-263.734 199,-263.734"/>
</g>
<!-- Node4 -->
<g id="node4" class="node"><title>Node4</title>
<g id="a_node4"><a xlink:href="_input_output_api_8h.html" target="_top" xlink:title=" ">
<polygon fill="white" stroke="black" points="0,-207 0,-226 137,-226 137,-207 0,-207"/>
<text text-anchor="middle" x="68.5" y="-214" font-family="Helvetica,sans-Serif" font-size="10.00">Cpl/Io/File/InputOutputApi.h</text>
</a>
</g>
</g>
<!-- Node2&#45;&gt;Node4 -->
<g id="edge3" class="edge"><title>Node2&#45;&gt;Node4</title>
<path fill="none" stroke="midnightblue" d="M175.584,-269.444C149.042,-256.569 109.23,-237.257 86.3678,-226.167"/>
<polygon fill="midnightblue" stroke="midnightblue" points="174.181,-272.653 184.706,-273.869 177.236,-266.355 174.181,-272.653"/>
</g>
<!-- Node5 -->
<g id="node5" class="node"><title>Node5</title>
<g id="a_node5"><a xlink:href="_file_2_input_output_8h.html" target="_top" xlink:title=" ">
<polygon fill="white" stroke="black" points="262,-140 262,-159 385,-159 385,-140 262,-140"/>
<text text-anchor="middle" x="323.5" y="-147" font-family="Helvetica,sans-Serif" font-size="10.00">Cpl/Io/File/InputOutput.h</text>
</a>
</g>
</g>
<!-- Node4&#45;&gt;Node5 -->
<g id="edge4" class="edge"><title>Node4&#45;&gt;Node5</title>
<path fill="none" stroke="midnightblue" d="M112.031,-204.404C162.357,-191.576 244.112,-170.736 289.827,-159.083"/>
<polygon fill="midnightblue" stroke="midnightblue" points="110.925,-201.074 102.099,-206.936 112.654,-207.857 110.925,-201.074"/>
</g>
<!-- Node6 -->
<g id="node6" class="node"><title>Node6</title>
<g id="a_node6"><a xlink:href="_file_2_null_8h.html" target="_top" xlink:title=" ">
<polygon fill="white" stroke="black" points="24,-140 24,-159 113,-159 113,-140 24,-140"/>
<text text-anchor="middle" x="68.5" y="-147" font-family="Helvetica,sans-Serif" font-size="10.00">Cpl/Io/File/Null.h</text>
</a>
</g>
</g>
<!-- Node4&#45;&gt;Node6 -->
<g id="edge5" class="edge"><title>Node4&#45;&gt;Node6</title>
<path fill="none" stroke="midnightblue" d="M68.5,-196.537C68.5,-184.17 68.5,-168.62 68.5,-159.127"/>
<polygon fill="midnightblue" stroke="midnightblue" points="65.0001,-196.734 68.5,-206.734 72.0001,-196.734 65.0001,-196.734"/>
</g>
<!-- Node8 -->
<g id="node8" class="node"><title>Node8</title>
<g id="a_node8"><a xlink:href="_null_8h.html" target="_top" xlink:title=" ">
<polygon fill="white" stroke="black" points="937.5,-207 937.5,-226 1007.5,-226 1007.5,-207 937.5,-207"/>
<text text-anchor="middle" x="972.5" y="-214" font-family="Helvetica,sans-Serif" font-size="10.00">Cpl/Io/Null.h</text>
</a>
</g>
</g>
<!-- Node7&#45;&gt;Node8 -->
<g id="edge7" class="edge"><title>Node7&#45;&gt;Node8</title>
<path fill="none" stroke="midnightblue" d="M926.858,-266.135C938.788,-253.423 954.859,-236.298 964.404,-226.127"/>
<polygon fill="midnightblue" stroke="midnightblue" points="924.018,-264.047 919.727,-273.734 929.122,-268.837 924.018,-264.047"/>
</g>
<!-- Node9 -->
<g id="node9" class="node"><title>Node9</title>
<g id="a_node9"><a xlink:href="_serial_2_adafruit_2_nrf5_2_b_l_e_2_input_output_8h.html" target="_top" xlink:title=" ">
<polygon fill="white" stroke="black" points="1025.5,-201.5 1025.5,-231.5 1147.5,-231.5 1147.5,-201.5 1025.5,-201.5"/>
<text text-anchor="start" x="1033.5" y="-219.5" font-family="Helvetica,sans-Serif" font-size="10.00">Cpl/Io/Serial/Adafruit</text>
<text text-anchor="middle" x="1086.5" y="-208.5" font-family="Helvetica,sans-Serif" font-size="10.00">/Nrf5/BLE/InputOutput.h</text>
</a>
</g>
</g>
<!-- Node7&#45;&gt;Node9 -->
<g id="edge8" class="edge"><title>Node7&#45;&gt;Node9</title>
<path fill="none" stroke="midnightblue" d="M944.221,-270.346C973.884,-259.329 1017.6,-243.093 1048.73,-231.528"/>
<polygon fill="midnightblue" stroke="midnightblue" points="942.894,-267.106 934.739,-273.869 945.332,-273.668 942.894,-267.106"/>
</g>
<!-- Node10 -->
<g id="node10" class="node"><title>Node10</title>
<g id="a_node10"><a xlink:href="_serial_2_adafruit_2_nrf5_2_input_output_8h.html" target="_top" xlink:title=" ">
<polygon fill="white" stroke="black" points="1166,-201.5 1166,-231.5 1273,-231.5 1273,-201.5 1166,-201.5"/>
<text text-anchor="start" x="1174" y="-219.5" font-family="Helvetica,sans-Serif" font-size="10.00">Cpl/Io/Serial/Adafruit</text>
<text text-anchor="middle" x="1219.5" y="-208.5" font-family="Helvetica,sans-Serif" font-size="10.00">/Nrf5/InputOutput.h</text>
</a>
</g>
</g>
<!-- Node7&#45;&gt;Node10 -->
<g id="edge9" class="edge"><title>Node7&#45;&gt;Node10</title>
<path fill="none" stroke="midnightblue" d="M964.366,-271.967C1014.04,-261.985 1090.41,-246.416 1156.5,-232 1159.57,-231.33 1162.72,-230.634 1165.9,-229.924"/>
<polygon fill="midnightblue" stroke="midnightblue" points="963.609,-268.55 954.493,-273.949 964.986,-275.413 963.609,-268.55"/>
</g>
<!-- Node11 -->
<g id="node11" class="node"><title>Node11</title>
<g id="a_node11"><a xlink:href="_serial_2_arduino_2_input_output_8h.html" target="_top" xlink:title=" ">
<polygon fill="white" stroke="black" points="657.5,-201.5 657.5,-231.5 763.5,-231.5 763.5,-201.5 657.5,-201.5"/>
<text text-anchor="start" x="665.5" y="-219.5" font-family="Helvetica,sans-Serif" font-size="10.00">Cpl/Io/Serial/Arduino</text>
<text text-anchor="middle" x="710.5" y="-208.5" font-family="Helvetica,sans-Serif" font-size="10.00">/InputOutput.h</text>
</a>
</g>
</g>
<!-- Node7&#45;&gt;Node11 -->
<g id="edge10" class="edge"><title>Node7&#45;&gt;Node11</title>
<path fill="none" stroke="midnightblue" d="M875.242,-270.775C841.16,-259.753 790.107,-243.244 753.879,-231.528"/>
<polygon fill="midnightblue" stroke="midnightblue" points="874.217,-274.122 884.809,-273.869 876.371,-267.461 874.217,-274.122"/>
</g>
<!-- Node12 -->
<g id="node12" class="node"><title>Node12</title>
<g id="a_node12"><a xlink:href="_socket_2_input_output_8h.html" target="_top" xlink:title=" ">
<polygon fill="white" stroke="black" points="781.5,-207 781.5,-226 919.5,-226 919.5,-207 781.5,-207"/>
<text text-anchor="middle" x="850.5" y="-214" font-family="Helvetica,sans-Serif" font-size="10.00">Cpl/Io/Socket/InputOutput.h</text>
</a>
</g>
</g>
<!-- Node7&#45;&gt;Node12 -->
<g id="edge11" class="edge"><title>Node7&#45;&gt;Node12</title>
<path fill="none" stroke="midnightblue" d="M896.142,-266.135C884.212,-253.423 868.141,-236.298 858.596,-226.127"/>
<polygon fill="midnightblue" stroke="midnightblue" points="893.878,-268.837 903.273,-273.734 898.982,-264.047 893.878,-268.837"/>
</g>
<!-- Node16 -->
<g id="node16" class="node"><title>Node16</title>
<g id="a_node16"><a xlink:href="_cpl_2_io_2_stdio_2_input_output___8h.html" target="_top" xlink:title=" ">
<polygon fill="white" stroke="black" points="388,-207 388,-226 523,-226 523,-207 388,-207"/>
<text text-anchor="middle" x="455.5" y="-214" font-family="Helvetica,sans-Serif" font-size="10.00">Cpl/Io/Stdio/InputOutput_.h</text>
</a>
</g>
</g>
<!-- Node7&#45;&gt;Node16 -->
<g id="edge16" class="edge"><title>Node7&#45;&gt;Node16</title>
<path fill="none" stroke="midnightblue" d="M849.014,-275.217C773.762,-266.205 643.607,-249.85 532.5,-232 521.487,-230.231 509.629,-228.107 498.597,-226.038"/>
<polygon fill="midnightblue" stroke="midnightblue" points="848.917,-278.73 859.261,-276.439 849.746,-271.779 848.917,-278.73"/>
</g>
<!-- Node17 -->
<g id="node17" class="node"><title>Node17</title>
<g id="a_node17"><a xlink:href="_driver_2_uart_2_stream_2_input_output___8h.html" target="_top" xlink:title=" ">
<polygon fill="white" stroke="black" points="541.5,-201.5 541.5,-231.5 639.5,-231.5 639.5,-201.5 541.5,-201.5"/>
<text text-anchor="start" x="549.5" y="-219.5" font-family="Helvetica,sans-Serif" font-size="10.00">Driver/Uart/Stream</text>
<text text-anchor="middle" x="590.5" y="-208.5" font-family="Helvetica,sans-Serif" font-size="10.00">/InputOutput_.h</text>
</a>
</g>
</g>
<!-- Node7&#45;&gt;Node17 -->
<g id="edge18" class="edge"><title>Node7&#45;&gt;Node17</title>
<path fill="none" stroke="midnightblue" d="M852.887,-272.204C799.462,-262.592 718.448,-247.447 648.5,-232 645.561,-231.351 642.543,-230.663 639.503,-229.953"/>
<polygon fill="midnightblue" stroke="midnightblue" points="852.401,-275.673 862.862,-273.992 853.636,-268.782 852.401,-275.673"/>
</g>
<!-- Node13 -->
<g id="node13" class="node"><title>Node13</title>
<g id="a_node13"><a xlink:href="_factory_8h.html" target="_top" xlink:title=" ">
<polygon fill="white" stroke="black" points="746.5,-140 746.5,-159 866.5,-159 866.5,-140 746.5,-140"/>
<text text-anchor="middle" x="806.5" y="-147" font-family="Helvetica,sans-Serif" font-size="10.00">Cpl/Io/Socket/Factory.h</text>
</a>
</g>
</g>
<!-- Node12&#45;&gt;Node13 -->
<g id="edge12" class="edge"><title>Node12&#45;&gt;Node13</title>
<path fill="none" stroke="midnightblue" d="M838.927,-198.404C830.377,-185.773 819.094,-169.104 812.34,-159.127"/>
<polygon fill="midnightblue" stroke="midnightblue" points="836.062,-200.415 844.566,-206.734 841.859,-196.491 836.062,-200.415"/>
</g>
<!-- Node14 -->
<g id="node14" class="node"><title>Node14</title>
<g id="a_node14"><a xlink:href="_stream_pool_8h.html" target="_top" xlink:title=" ">
<polygon fill="white" stroke="black" points="535.5,-73 535.5,-92 673.5,-92 673.5,-73 535.5,-73"/>
<text text-anchor="middle" x="604.5" y="-80" font-family="Helvetica,sans-Serif" font-size="10.00">Cpl/Io/Socket/StreamPool.h</text>
</a>
</g>
</g>
<!-- Node12&#45;&gt;Node14 -->
<g id="edge14" class="edge"><title>Node12&#45;&gt;Node14</title>
<path fill="none" stroke="midnightblue" d="M820.017,-203.143C796.982,-193.503 764.779,-179.376 737.5,-165 691.981,-141.011 640.767,-107.737 617.386,-92.1746"/>
<polygon fill="midnightblue" stroke="midnightblue" points="818.709,-206.389 829.287,-206.987 821.39,-199.923 818.709,-206.389"/>
</g>
<!-- Node15 -->
<g id="node15" class="node"><title>Node15</title>
<g id="a_node15"><a xlink:href="_socket_8h.html" target="_top" xlink:title=" ">
<polygon fill="white" stroke="black" points="1067.5,-140 1067.5,-159 1171.5,-159 1171.5,-140 1067.5,-140"/>
<text text-anchor="middle" x="1119.5" y="-147" font-family="Helvetica,sans-Serif" font-size="10.00">Cpl/TShell/Socket.h</text>
</a>
</g>
</g>
<!-- Node12&#45;&gt;Node15 -->
<g id="edge15" class="edge"><title>Node12&#45;&gt;Node15</title>
<path fill="none" stroke="midnightblue" d="M895.758,-204.564C948.789,-191.75 1035.55,-170.785 1083.98,-159.083"/>
<polygon fill="midnightblue" stroke="midnightblue" points="894.842,-201.185 885.944,-206.936 896.486,-207.989 894.842,-201.185"/>
</g>
<!-- Node13&#45;&gt;Node14 -->
<g id="edge13" class="edge"><title>Node13&#45;&gt;Node14</title>
<path fill="none" stroke="midnightblue" d="M770.032,-136.765C730.008,-123.886 666.72,-103.521 631.113,-92.0637"/>
<polygon fill="midnightblue" stroke="midnightblue" points="769.085,-140.137 779.676,-139.869 771.229,-133.474 769.085,-140.137"/>
</g>
<!-- Node16&#45;&gt;Node5 -->
<g id="edge17" class="edge"><title>Node16&#45;&gt;Node5</title>
<path fill="none" stroke="midnightblue" d="M428.986,-202.444C402.84,-189.569 363.622,-170.257 341.101,-159.167"/>
<polygon fill="midnightblue" stroke="midnightblue" points="427.454,-205.591 437.971,-206.869 430.546,-199.311 427.454,-205.591"/>
</g>
<!-- Node18 -->
<g id="node18" class="node"><title>Node18</title>
<g id="a_node18"><a xlink:href="_serial_2_renesas_2_rx62n_2_input_output_8h.html" target="_top" xlink:title=" ">
<polygon fill="white" stroke="black" points="535,-134.5 535,-164.5 646,-164.5 646,-134.5 535,-134.5"/>
<text text-anchor="start" x="543" y="-152.5" font-family="Helvetica,sans-Serif" font-size="10.00">Cpl/Io/Serial/Renesas</text>
<text text-anchor="middle" x="590.5" y="-141.5" font-family="Helvetica,sans-Serif" font-size="10.00">/Rx62n/InputOutput.h</text>
</a>
</g>
</g>
<!-- Node17&#45;&gt;Node18 -->
<g id="edge19" class="edge"><title>Node17&#45;&gt;Node18</title>
<path fill="none" stroke="midnightblue" d="M590.5,-191.108C590.5,-182.154 590.5,-172.323 590.5,-164.577"/>
<polygon fill="midnightblue" stroke="midnightblue" points="587,-191.396 590.5,-201.396 594,-191.396 587,-191.396"/>
</g>
<!-- Node20&#45;&gt;Node3 -->
<g id="edge22" class="edge"><title>Node20&#45;&gt;Node3</title>
<path fill="none" stroke="midnightblue" d="M356.902,-270.601C319.429,-257.714 260.575,-237.473 227.401,-226.064"/>
<polygon fill="midnightblue" stroke="midnightblue" points="355.808,-273.926 366.402,-273.869 358.084,-267.307 355.808,-273.926"/>
</g>
<!-- Node20&#45;&gt;Node16 -->
<g id="edge23" class="edge"><title>Node20&#45;&gt;Node16</title>
<path fill="none" stroke="midnightblue" d="M407.257,-266.497C419.808,-253.75 436.896,-236.395 447.005,-226.127"/>
<polygon fill="midnightblue" stroke="midnightblue" points="404.653,-264.152 400.131,-273.734 409.641,-269.064 404.653,-264.152"/>
</g>
<!-- Node21 -->
<g id="node21" class="node"><title>Node21</title>
<g id="a_node21"><a xlink:href="_std_in_8h.html" target="_top" xlink:title=" ">
<polygon fill="white" stroke="black" points="267.5,-207 267.5,-226 369.5,-226 369.5,-207 267.5,-207"/>
<text text-anchor="middle" x="318.5" y="-214" font-family="Helvetica,sans-Serif" font-size="10.00">Cpl/Io/Stdio/StdIn.h</text>
</a>
</g>
</g>
<!-- Node20&#45;&gt;Node21 -->
<g id="edge24" class="edge"><title>Node20&#45;&gt;Node21</title>
<path fill="none" stroke="midnightblue" d="M373.931,-266.856C359.58,-254.078 339.829,-236.492 328.189,-226.127"/>
<polygon fill="midnightblue" stroke="midnightblue" points="371.859,-269.698 381.655,-273.734 376.514,-264.47 371.859,-269.698"/>
</g>
<!-- Node23 -->
<g id="node23" class="node"><title>Node23</title>
<g id="a_node23"><a xlink:href="_ascii_decoder_8h.html" target="_top" xlink:title=" ">
<polygon fill="white" stroke="black" points="2296,-140 2296,-159 2449,-159 2449,-140 2296,-140"/>
<text text-anchor="middle" x="2372.5" y="-147" font-family="Helvetica,sans-Serif" font-size="10.00">Cpl/Text/Frame/AsciiDecoder.h</text>
</a>
</g>
</g>
<!-- Node22&#45;&gt;Node23 -->
<g id="edge26" class="edge"><title>Node22&#45;&gt;Node23</title>
<path fill="none" stroke="midnightblue" d="M2108.13,-204.879C2170.37,-192.077 2273.72,-170.819 2331.02,-159.032"/>
<polygon fill="midnightblue" stroke="midnightblue" points="2107.23,-201.492 2098.14,-206.936 2108.64,-208.349 2107.23,-201.492"/>
</g>
<!-- Node24 -->
<g id="node24" class="node"><title>Node24</title>
<g id="a_node24"><a xlink:href="_line_decoder_8h.html" target="_top" xlink:title=" ">
<polygon fill="white" stroke="black" points="2129,-140 2129,-159 2278,-159 2278,-140 2129,-140"/>
<text text-anchor="middle" x="2203.5" y="-147" font-family="Helvetica,sans-Serif" font-size="10.00">Cpl/Text/Frame/LineDecoder.h</text>
</a>
</g>
</g>
<!-- Node22&#45;&gt;Node24 -->
<g id="edge27" class="edge"><title>Node22&#45;&gt;Node24</title>
<path fill="none" stroke="midnightblue" d="M2085.26,-202.781C2114.38,-189.909 2158.6,-170.355 2183.9,-159.167"/>
<polygon fill="midnightblue" stroke="midnightblue" points="2083.75,-199.623 2076.02,-206.869 2086.58,-206.025 2083.75,-199.623"/>
</g>
<!-- Node26 -->
<g id="node26" class="node"><title>Node26</title>
<g id="a_node26"><a xlink:href="_processor_8h.html" target="_top" xlink:title=" ">
<polygon fill="white" stroke="black" points="1994,-140 1994,-159 2111,-159 2111,-140 1994,-140"/>
<text text-anchor="middle" x="2052.5" y="-147" font-family="Helvetica,sans-Serif" font-size="10.00">Cpl/TShell/Processor.h</text>
</a>
</g>
</g>
<!-- Node22&#45;&gt;Node26 -->
<g id="edge29" class="edge"><title>Node22&#45;&gt;Node26</title>
<path fill="none" stroke="midnightblue" d="M2055.33,-196.537C2054.57,-184.17 2053.62,-168.62 2053.03,-159.127"/>
<polygon fill="midnightblue" stroke="midnightblue" points="2051.85,-196.968 2055.96,-206.734 2058.84,-196.538 2051.85,-196.968"/>
</g>
<!-- Node25 -->
<g id="node25" class="node"><title>Node25</title>
<g id="a_node25"><a xlink:href="_maker_8h.html" target="_top" xlink:title=" ">
<polygon fill="white" stroke="black" points="2462.5,-73 2462.5,-92 2562.5,-92 2562.5,-73 2462.5,-73"/>
<text text-anchor="middle" x="2512.5" y="-80" font-family="Helvetica,sans-Serif" font-size="10.00">Cpl/TShell/Maker.h</text>
</a>
</g>
</g>
<!-- Node24&#45;&gt;Node25 -->
<g id="edge28" class="edge"><title>Node24&#45;&gt;Node25</title>
<path fill="none" stroke="midnightblue" d="M2258.88,-137.999C2309.64,-128.214 2386.8,-112.927 2453.5,-98 2461.73,-96.1573 2470.58,-94.0502 2478.86,-92.024"/>
<polygon fill="midnightblue" stroke="midnightblue" points="2257.94,-134.616 2248.78,-139.941 2259.26,-141.49 2257.94,-134.616"/>
</g>
<!-- Node26&#45;&gt;Node25 -->
<g id="edge30" class="edge"><title>Node26&#45;&gt;Node25</title>
<path fill="none" stroke="midnightblue" d="M2099.28,-137.867C2106.37,-136.448 2113.61,-135.104 2120.5,-134 2267.49,-110.447 2306.89,-123.821 2453.5,-98 2462.54,-96.4083 2472.25,-94.2237 2481.13,-92.0332"/>
<polygon fill="midnightblue" stroke="midnightblue" points="2098.16,-134.527 2089.07,-139.983 2099.58,-141.381 2098.16,-134.527"/>
</g>
<!-- Node27&#45;&gt;Node15 -->
<g id="edge50" class="edge"><title>Node27&#45;&gt;Node15</title>
<path fill="none" stroke="midnightblue" d="M1301.9,-263.533C1301.24,-245.228 1297.37,-217.876 1281.5,-201 1253.25,-170.953 1207.45,-158.667 1171.74,-153.702"/>
<polygon fill="midnightblue" stroke="midnightblue" points="1298.4,-263.612 1301.97,-273.587 1305.4,-263.562 1298.4,-263.612"/>
</g>
<!-- Node28 -->
<g id="node28" class="node"><title>Node28</title>
<g id="a_node28"><a xlink:href="_context___8h.html" target="_top" xlink:title=" ">
<polygon fill="white" stroke="black" points="1535.5,-207 1535.5,-226 1647.5,-226 1647.5,-207 1535.5,-207"/>
<text text-anchor="middle" x="1591.5" y="-214" font-family="Helvetica,sans-Serif" font-size="10.00">Cpl/TShell/Context_.h</text>
</a>
</g>
</g>
<!-- Node27&#45;&gt;Node28 -->
<g id="edge32" class="edge"><title>Node27&#45;&gt;Node28</title>
<path fill="none" stroke="midnightblue" d="M1349.58,-271.724C1406.68,-258.924 1500.78,-237.833 1553.2,-226.083"/>
<polygon fill="midnightblue" stroke="midnightblue" points="1348.7,-268.333 1339.71,-273.936 1350.23,-275.164 1348.7,-268.333"/>
</g>
<!-- Node45 -->
<g id="node45" class="node"><title>Node45</title>
<g id="a_node45"><a xlink:href="_stdio_8h.html" target="_top" xlink:title=" ">
<polygon fill="white" stroke="black" points="1330,-207 1330,-226 1425,-226 1425,-207 1330,-207"/>
<text text-anchor="middle" x="1377.5" y="-214" font-family="Helvetica,sans-Serif" font-size="10.00">Cpl/TShell/Stdio.h</text>
</a>
</g>
</g>
<!-- Node27&#45;&gt;Node45 -->
<g id="edge51" class="edge"><title>Node27&#45;&gt;Node45</title>
<path fill="none" stroke="midnightblue" d="M1319.37,-267.213C1334.35,-254.407 1355.18,-236.588 1367.41,-226.127"/>
<polygon fill="midnightblue" stroke="midnightblue" points="1317.07,-264.574 1311.75,-273.734 1321.62,-269.894 1317.07,-264.574"/>
</g>
<!-- Node28&#45;&gt;Node26 -->
<g id="edge49" class="edge"><title>Node28&#45;&gt;Node26</title>
<path fill="none" stroke="midnightblue" d="M1657.67,-206.17C1747.84,-193.457 1907.89,-170.89 1993.92,-158.759"/>
<polygon fill="midnightblue" stroke="midnightblue" points="1656.98,-202.733 1647.57,-207.595 1657.96,-209.664 1656.98,-202.733"/>
</g>
<!-- Node29 -->
<g id="node29" class="node"><title>Node29</title>
<g id="a_node29"><a xlink:href="_cmd_2_command_8h.html" target="_top" xlink:title=" ">
<polygon fill="white" stroke="black" points="1521.5,-140 1521.5,-159 1661.5,-159 1661.5,-140 1521.5,-140"/>
<text text-anchor="middle" x="1591.5" y="-147" font-family="Helvetica,sans-Serif" font-size="10.00">Cpl/TShell/Cmd/Command.h</text>
</a>
</g>
</g>
<!-- Node28&#45;&gt;Node29 -->
<g id="edge33" class="edge"><title>Node28&#45;&gt;Node29</title>
<path fill="none" stroke="midnightblue" d="M1591.5,-196.537C1591.5,-184.17 1591.5,-168.62 1591.5,-159.127"/>
<polygon fill="midnightblue" stroke="midnightblue" points="1588,-196.734 1591.5,-206.734 1595,-196.734 1588,-196.734"/>
</g>
<!-- Node30 -->
<g id="node30" class="node"><title>Node30</title>
<g id="a_node30"><a xlink:href="_dm_8h.html" target="_top" xlink:title=" ">
<polygon fill="white" stroke="black" points="2198.5,-73 2198.5,-92 2304.5,-92 2304.5,-73 2198.5,-73"/>
<text text-anchor="middle" x="2251.5" y="-80" font-family="Helvetica,sans-Serif" font-size="10.00">Cpl/Dm/TShell/Dm.h</text>
</a>
</g>
</g>
<!-- Node29&#45;&gt;Node30 -->
<g id="edge34" class="edge"><title>Node29&#45;&gt;Node30</title>
<path fill="none" stroke="midnightblue" d="M1672.02,-145.422C1787.28,-140.174 2005.7,-127.096 2189.5,-98 2199.11,-96.479 2209.44,-94.2904 2218.86,-92.0728"/>
<polygon fill="midnightblue" stroke="midnightblue" points="1671.7,-141.933 1661.87,-145.876 1672.01,-148.926 1671.7,-141.933"/>
</g>
<!-- Node31 -->
<g id="node31" class="node"><title>Node31</title>
<g id="a_node31"><a xlink:href="_dbg_8h.html" target="_top" xlink:title=" ">
<polygon fill="white" stroke="black" points="2323,-67.5 2323,-97.5 2444,-97.5 2444,-67.5 2323,-67.5"/>
<text text-anchor="start" x="2331" y="-85.5" font-family="Helvetica,sans-Serif" font-size="10.00">Cpl/TShell/Cmd/Arduino</text>
<text text-anchor="middle" x="2383.5" y="-74.5" font-family="Helvetica,sans-Serif" font-size="10.00">/Dbg.h</text>
</a>
</g>
</g>
<!-- Node29&#45;&gt;Node31 -->
<g id="edge35" class="edge"><title>Node29&#45;&gt;Node31</title>
<path fill="none" stroke="midnightblue" d="M1671.67,-146.41C1805.3,-142.139 2081.79,-129.955 2313.5,-98 2316.57,-97.5761 2319.71,-97.0968 2322.88,-96.5768"/>
<polygon fill="midnightblue" stroke="midnightblue" points="1671.41,-142.916 1661.52,-146.727 1671.62,-149.913 1671.41,-142.916"/>
</g>
<!-- Node32 -->
<g id="node32" class="node"><title>Node32</title>
<g id="a_node32"><a xlink:href="_bye_8h.html" target="_top" xlink:title=" ">
<polygon fill="white" stroke="black" points="692,-73 692,-92 805,-92 805,-73 692,-73"/>
<text text-anchor="middle" x="748.5" y="-80" font-family="Helvetica,sans-Serif" font-size="10.00">Cpl/TShell/Cmd/Bye.h</text>
</a>
</g>
</g>
<!-- Node29&#45;&gt;Node32 -->
<g id="edge36" class="edge"><title>Node29&#45;&gt;Node32</title>
<path fill="none" stroke="midnightblue" d="M1511.17,-147.279C1369.71,-144.239 1067.17,-133.757 814.5,-98 804.046,-96.5206 792.785,-94.2892 782.576,-92.0175"/>
<polygon fill="midnightblue" stroke="midnightblue" points="1511.42,-150.785 1521.49,-147.493 1511.56,-143.786 1511.42,-150.785"/>
</g>
<!-- Node33 -->
<g id="node33" class="node"><title>Node33</title>
<g id="a_node33"><a xlink:href="_help_8h.html" target="_top" xlink:title=" ">
<polygon fill="white" stroke="black" points="823.5,-73 823.5,-92 939.5,-92 939.5,-73 823.5,-73"/>
<text text-anchor="middle" x="881.5" y="-80" font-family="Helvetica,sans-Serif" font-size="10.00">Cpl/TShell/Cmd/Help.h</text>
</a>
</g>
</g>
<!-- Node29&#45;&gt;Node33 -->
<g id="edge37" class="edge"><title>Node29&#45;&gt;Node33</title>
<path fill="none" stroke="midnightblue" d="M1511.21,-145.67C1389.12,-140.585 1149.74,-127.541 948.5,-98 938.138,-96.4789 926.983,-94.2902 916.804,-92.0726"/>
<polygon fill="midnightblue" stroke="midnightblue" points="1511.09,-149.168 1521.22,-146.081 1511.37,-142.174 1511.09,-149.168"/>
</g>
<!-- Node34 -->
<g id="node34" class="node"><title>Node34</title>
<g id="a_node34"><a xlink:href="_threads_8h.html" target="_top" xlink:title=" ">
<polygon fill="white" stroke="black" points="958,-73 958,-92 1089,-92 1089,-73 958,-73"/>
<text text-anchor="middle" x="1023.5" y="-80" font-family="Helvetica,sans-Serif" font-size="10.00">Cpl/TShell/Cmd/Threads.h</text>
</a>
</g>
</g>
<!-- Node29&#45;&gt;Node34 -->
<g id="edge38" class="edge"><title>Node29&#45;&gt;Node34</title>
<path fill="none" stroke="midnightblue" d="M1511.18,-142.564C1413.19,-134.799 1242.66,-119.594 1097.5,-98 1086.49,-96.3626 1074.64,-94.214 1063.71,-92.0741"/>
<polygon fill="midnightblue" stroke="midnightblue" points="1511.06,-146.065 1521.3,-143.36 1511.61,-139.087 1511.06,-146.065"/>
</g>
<!-- Node37 -->
<g id="node37" class="node"><title>Node37</title>
<g id="a_node37"><a xlink:href="_tick_8h.html" target="_top" xlink:title=" ">
<polygon fill="white" stroke="black" points="1107,-73 1107,-92 1222,-92 1222,-73 1107,-73"/>
<text text-anchor="middle" x="1164.5" y="-80" font-family="Helvetica,sans-Serif" font-size="10.00">Cpl/TShell/Cmd/Tick.h</text>
</a>
</g>
</g>
<!-- Node29&#45;&gt;Node37 -->
<g id="edge41" class="edge"><title>Node29&#45;&gt;Node37</title>
<path fill="none" stroke="midnightblue" d="M1511.17,-138.955C1438.04,-129.856 1327.19,-115.042 1231.5,-98 1221.78,-96.268 1211.31,-94.1349 1201.61,-92.0428"/>
<polygon fill="midnightblue" stroke="midnightblue" points="1510.88,-142.446 1521.23,-140.2 1511.74,-135.499 1510.88,-142.446"/>
</g>
<!-- Node38 -->
<g id="node38" class="node"><title>Node38</title>
<g id="a_node38"><a xlink:href="_t_print_8h.html" target="_top" xlink:title=" ">
<polygon fill="white" stroke="black" points="1240.5,-73 1240.5,-92 1362.5,-92 1362.5,-73 1240.5,-73"/>
<text text-anchor="middle" x="1301.5" y="-80" font-family="Helvetica,sans-Serif" font-size="10.00">Cpl/TShell/Cmd/TPrint.h</text>
</a>
</g>
</g>
<!-- Node29&#45;&gt;Node38 -->
<g id="edge42" class="edge"><title>Node29&#45;&gt;Node38</title>
<path fill="none" stroke="midnightblue" d="M1543.42,-137.724C1486.32,-124.924 1392.22,-103.833 1339.8,-92.0834"/>
<polygon fill="midnightblue" stroke="midnightblue" points="1542.77,-141.164 1553.29,-139.936 1544.3,-134.333 1542.77,-141.164"/>
</g>
<!-- Node39 -->
<g id="node39" class="node"><title>Node39</title>
<g id="a_node39"><a xlink:href="_t_shell_2_cmd_2_trace_8h.html" target="_top" xlink:title=" ">
<polygon fill="white" stroke="black" points="1381,-73 1381,-92 1502,-92 1502,-73 1381,-73"/>
<text text-anchor="middle" x="1441.5" y="-80" font-family="Helvetica,sans-Serif" font-size="10.00">Cpl/TShell/Cmd/Trace.h</text>
</a>
</g>
</g>
<!-- Node29&#45;&gt;Node39 -->
<g id="edge43" class="edge"><title>Node29&#45;&gt;Node39</title>
<path fill="none" stroke="midnightblue" d="M1562.15,-135.781C1532.44,-122.909 1487.32,-103.355 1461.5,-92.1672"/>
<polygon fill="midnightblue" stroke="midnightblue" points="1561.01,-139.104 1571.58,-139.869 1563.8,-132.681 1561.01,-139.104"/>
</g>
<!-- Node40 -->
<g id="node40" class="node"><title>Node40</title>
<g id="a_node40"><a xlink:href="_cmd_8h.html" target="_top" xlink:title=" ">
<polygon fill="white" stroke="black" points="1520,-67.5 1520,-97.5 1663,-97.5 1663,-67.5 1520,-67.5"/>
<text text-anchor="start" x="1528" y="-85.5" font-family="Helvetica,sans-Serif" font-size="10.00">Storm/Thermostat/SimHouse</text>
<text text-anchor="middle" x="1591.5" y="-74.5" font-family="Helvetica,sans-Serif" font-size="10.00">/Cmd.h</text>
</a>
</g>
</g>
<!-- Node29&#45;&gt;Node40 -->
<g id="edge44" class="edge"><title>Node29&#45;&gt;Node40</title>
<path fill="none" stroke="midnightblue" d="M1591.5,-129.411C1591.5,-119.222 1591.5,-106.901 1591.5,-97.589"/>
<polygon fill="midnightblue" stroke="midnightblue" points="1588,-129.734 1591.5,-139.734 1595,-129.734 1588,-129.734"/>
</g>
<!-- Node41 -->
<g id="node41" class="node"><title>Node41</title>
<g id="a_node41"><a xlink:href="filter_8h.html" target="_top" xlink:title=" ">
<polygon fill="white" stroke="black" points="1681.5,-73 1681.5,-92 1785.5,-92 1785.5,-73 1681.5,-73"/>
<text text-anchor="middle" x="1733.5" y="-80" font-family="Helvetica,sans-Serif" font-size="10.00">Storm/TShell/filter.h</text>
</a>
</g>
</g>
<!-- Node29&#45;&gt;Node41 -->
<g id="edge45" class="edge"><title>Node29&#45;&gt;Node41</title>
<path fill="none" stroke="midnightblue" d="M1619.65,-135.613C1647.78,-122.739 1690.23,-103.306 1714.57,-92.1672"/>
<polygon fill="midnightblue" stroke="midnightblue" points="1617.99,-132.524 1610.36,-139.869 1620.91,-138.889 1617.99,-132.524"/>
</g>
<!-- Node42 -->
<g id="node42" class="node"><title>Node42</title>
<g id="a_node42"><a xlink:href="_state_8h.html" target="_top" xlink:title=" ">
<polygon fill="white" stroke="black" points="1803.5,-73 1803.5,-92 1911.5,-92 1911.5,-73 1803.5,-73"/>
<text text-anchor="middle" x="1857.5" y="-80" font-family="Helvetica,sans-Serif" font-size="10.00">Storm/TShell/State.h</text>
</a>
</g>
</g>
<!-- Node29&#45;&gt;Node42 -->
<g id="edge46" class="edge"><title>Node29&#45;&gt;Node42</title>
<path fill="none" stroke="midnightblue" d="M1636.58,-137.484C1689.05,-124.663 1774.59,-103.76 1822.37,-92.0834"/>
<polygon fill="midnightblue" stroke="midnightblue" points="1635.43,-134.162 1626.55,-139.936 1637.09,-140.962 1635.43,-134.162"/>
</g>
<!-- Node43 -->
<g id="node43" class="node"><title>Node43</title>
<g id="a_node43"><a xlink:href="_user_8h.html" target="_top" xlink:title=" ">
<polygon fill="white" stroke="black" points="1930,-73 1930,-92 2035,-92 2035,-73 1930,-73"/>
<text text-anchor="middle" x="1982.5" y="-80" font-family="Helvetica,sans-Serif" font-size="10.00">Storm/TShell/User.h</text>
</a>
</g>
</g>
<!-- Node29&#45;&gt;Node43 -->
<g id="edge47" class="edge"><title>Node29&#45;&gt;Node43</title>
<path fill="none" stroke="midnightblue" d="M1667.02,-138.602C1733.89,-129.435 1834.02,-114.724 1920.5,-98 1929.51,-96.258 1939.19,-94.1213 1948.17,-92.0291"/>
<polygon fill="midnightblue" stroke="midnightblue" points="1666.42,-135.151 1656.99,-139.97 1667.37,-142.087 1666.42,-135.151"/>
</g>
<!-- Node44 -->
<g id="node44" class="node"><title>Node44</title>
<g id="a_node44"><a xlink:href="_t_shell_2_white_box_8h.html" target="_top" xlink:title=" ">
<polygon fill="white" stroke="black" points="2053,-73 2053,-92 2180,-92 2180,-73 2053,-73"/>
<text text-anchor="middle" x="2116.5" y="-80" font-family="Helvetica,sans-Serif" font-size="10.00">Storm/TShell/WhiteBox.h</text>
</a>
</g>
</g>
<!-- Node29&#45;&gt;Node44 -->
<g id="edge48" class="edge"><title>Node29&#45;&gt;Node44</title>
<path fill="none" stroke="midnightblue" d="M1671.81,-141.692C1762.59,-133.5 1914.63,-118.275 2044.5,-98 2055.21,-96.3281 2066.74,-94.1679 2077.38,-92.028"/>
<polygon fill="midnightblue" stroke="midnightblue" points="1671.24,-138.229 1661.6,-142.608 1671.87,-145.201 1671.24,-138.229"/>
</g>
<!-- Node35 -->
<g id="node35" class="node"><title>Node35</title>
<g id="a_node35"><a xlink:href="_free_r_t_o_s_2_threads_8h.html" target="_top" xlink:title=" ">
<polygon fill="white" stroke="black" points="884.5,-0.5 884.5,-30.5 1018.5,-30.5 1018.5,-0.5 884.5,-0.5"/>
<text text-anchor="start" x="892.5" y="-18.5" font-family="Helvetica,sans-Serif" font-size="10.00">Cpl/TShell/Cmd/FreeRTOS</text>
<text text-anchor="middle" x="951.5" y="-7.5" font-family="Helvetica,sans-Serif" font-size="10.00">/Threads.h</text>
</a>
</g>
</g>
<!-- Node34&#45;&gt;Node35 -->
<g id="edge39" class="edge"><title>Node34&#45;&gt;Node35</title>
<path fill="none" stroke="midnightblue" d="M1006.25,-65.928C994.344,-55.1788 978.641,-41.0024 967.106,-30.589"/>
<polygon fill="midnightblue" stroke="midnightblue" points="1004.02,-68.6307 1013.79,-72.7338 1008.71,-63.4348 1004.02,-68.6307"/>
</g>
<!-- Node36 -->
<g id="node36" class="node"><title>Node36</title>
<g id="a_node36"><a xlink:href="_win32_2_threads_8h.html" target="_top" xlink:title=" ">
<polygon fill="white" stroke="black" points="1037,-0.5 1037,-30.5 1152,-30.5 1152,-0.5 1037,-0.5"/>
<text text-anchor="start" x="1045" y="-18.5" font-family="Helvetica,sans-Serif" font-size="10.00">Cpl/TShell/Cmd/Win32</text>
<text text-anchor="middle" x="1094.5" y="-7.5" font-family="Helvetica,sans-Serif" font-size="10.00">/Threads.h</text>
</a>
</g>
</g>
<!-- Node34&#45;&gt;Node36 -->
<g id="edge40" class="edge"><title>Node34&#45;&gt;Node36</title>
<path fill="none" stroke="midnightblue" d="M1040.51,-65.928C1052.25,-55.1788 1067.74,-41.0024 1079.11,-30.589"/>
<polygon fill="midnightblue" stroke="midnightblue" points="1038.09,-63.3997 1033.08,-72.7338 1042.81,-68.5628 1038.09,-63.3997"/>
</g>
</g>
</svg>
