<?xml version="1.0" encoding="UTF-8" standalone="no"?>
<!DOCTYPE svg PUBLIC "-//W3C//DTD SVG 1.1//EN"
 "http://www.w3.org/Graphics/SVG/1.1/DTD/svg11.dtd">
<!-- Generated by graphviz version 2.38.0 (20140413.2041)
 -->
<!-- Title: Cpl/Io/File/InputOutputApi.h Pages: 1 -->
<svg width="490pt" height="364pt"
 viewBox="0.00 0.00 489.50 364.00" xmlns="http://www.w3.org/2000/svg" xmlns:xlink="http://www.w3.org/1999/xlink">
<g id="graph0" class="graph" transform="scale(1 1) rotate(0) translate(4 360)">
<title>Cpl/Io/File/InputOutputApi.h</title>
<polygon fill="white" stroke="none" points="-4,4 -4,-360 485.5,-360 485.5,4 -4,4"/>
<!-- Node1 -->
<g id="node1" class="node"><title>Node1</title>
<g id="a_node1"><a xlink:title=" ">
<polygon fill="#bfbfbf" stroke="black" points="104.5,-336.5 104.5,-355.5 241.5,-355.5 241.5,-336.5 104.5,-336.5"/>
<text text-anchor="middle" x="173" y="-343.5" font-family="Helvetica,sans-Serif" font-size="10.00">Cpl/Io/File/InputOutputApi.h</text>
</a>
</g>
</g>
<!-- Node2 -->
<g id="node2" class="node"><title>Node2</title>
<g id="a_node2"><a xlink:href="_input_api_8h.html" target="_top" xlink:title=" ">
<polygon fill="white" stroke="black" points="54,-280.5 54,-299.5 162,-299.5 162,-280.5 54,-280.5"/>
<text text-anchor="middle" x="108" y="-287.5" font-family="Helvetica,sans-Serif" font-size="10.00">Cpl/Io/File/InputApi.h</text>
</a>
</g>
</g>
<!-- Node1&#45;&gt;Node2 -->
<g id="edge1" class="edge"><title>Node1&#45;&gt;Node2</title>
<path fill="none" stroke="midnightblue" d="M162.557,-336.324C152.854,-328.263 138.185,-316.077 126.5,-306.369"/>
<polygon fill="midnightblue" stroke="midnightblue" points="128.562,-303.532 118.633,-299.834 124.089,-308.916 128.562,-303.532"/>
</g>
<!-- Node18 -->
<g id="node18" class="node"><title>Node18</title>
<g id="a_node18"><a xlink:href="_output_api_8h.html" target="_top" xlink:title=" ">
<polygon fill="white" stroke="black" points="180,-280.5 180,-299.5 296,-299.5 296,-280.5 180,-280.5"/>
<text text-anchor="middle" x="238" y="-287.5" font-family="Helvetica,sans-Serif" font-size="10.00">Cpl/Io/File/OutputApi.h</text>
</a>
</g>
</g>
<!-- Node1&#45;&gt;Node18 -->
<g id="edge18" class="edge"><title>Node1&#45;&gt;Node18</title>
<path fill="none" stroke="midnightblue" d="M183.443,-336.324C193.146,-328.263 207.815,-316.077 219.5,-306.369"/>
<polygon fill="midnightblue" stroke="midnightblue" points="221.911,-308.916 227.367,-299.834 217.438,-303.532 221.911,-308.916"/>
</g>
<!-- Node3 -->
<g id="node3" class="node"><title>Node3</title>
<g id="a_node3"><a xlink:href="_input_8h.html" target="_top" xlink:title=" ">
<polygon fill="white" stroke="black" points="20.5,-224.5 20.5,-243.5 95.5,-243.5 95.5,-224.5 20.5,-224.5"/>
<text text-anchor="middle" x="58" y="-231.5" font-family="Helvetica,sans-Serif" font-size="10.00">Cpl/Io/Input.h</text>
</a>
</g>
</g>
<!-- Node2&#45;&gt;Node3 -->
<g id="edge2" class="edge"><title>Node2&#45;&gt;Node3</title>
<path fill="none" stroke="midnightblue" d="M99.7435,-280.083C92.5353,-272.298 81.8902,-260.801 73.1542,-251.367"/>
<polygon fill="midnightblue" stroke="midnightblue" points="75.4651,-248.711 66.1028,-243.751 70.3288,-253.467 75.4651,-248.711"/>
</g>
<!-- Node17 -->
<g id="node17" class="node"><title>Node17</title>
<g id="a_node17"><a xlink:href="_object_api_8h.html" target="_top" xlink:title=" ">
<polygon fill="white" stroke="black" points="113.5,-224.5 113.5,-243.5 228.5,-243.5 228.5,-224.5 113.5,-224.5"/>
<text text-anchor="middle" x="171" y="-231.5" font-family="Helvetica,sans-Serif" font-size="10.00">Cpl/Io/File/ObjectApi.h</text>
</a>
</g>
</g>
<!-- Node2&#45;&gt;Node17 -->
<g id="edge17" class="edge"><title>Node2&#45;&gt;Node17</title>
<path fill="none" stroke="midnightblue" d="M118.122,-280.324C127.526,-272.263 141.744,-260.077 153.069,-250.369"/>
<polygon fill="midnightblue" stroke="midnightblue" points="155.379,-252.999 160.694,-243.834 150.823,-247.684 155.379,-252.999"/>
</g>
<!-- Node4 -->
<g id="node4" class="node"><title>Node4</title>
<g id="a_node4"><a xlink:href="_text_2_string_8h.html" target="_top" xlink:title=" ">
<polygon fill="white" stroke="black" points="235,-168.5 235,-187.5 325,-187.5 325,-168.5 235,-168.5"/>
<text text-anchor="middle" x="280" y="-175.5" font-family="Helvetica,sans-Serif" font-size="10.00">Cpl/Text/String.h</text>
</a>
</g>
</g>
<!-- Node3&#45;&gt;Node4 -->
<g id="edge3" class="edge"><title>Node3&#45;&gt;Node4</title>
<path fill="none" stroke="midnightblue" d="M93.1766,-224.444C131.579,-215.102 193.176,-200.119 235.055,-189.933"/>
<polygon fill="midnightblue" stroke="midnightblue" points="236.099,-193.281 244.988,-187.516 234.444,-186.479 236.099,-193.281"/>
</g>
<!-- Node14 -->
<g id="node14" class="node"><title>Node14</title>
<g id="a_node14"><a xlink:href="_close_8h.html" target="_top" xlink:title=" ">
<polygon fill="white" stroke="black" points="19,-168.5 19,-187.5 97,-187.5 97,-168.5 19,-168.5"/>
<text text-anchor="middle" x="58" y="-175.5" font-family="Helvetica,sans-Serif" font-size="10.00">Cpl/Io/Close.h</text>
</a>
</g>
</g>
<!-- Node3&#45;&gt;Node14 -->
<g id="edge14" class="edge"><title>Node3&#45;&gt;Node14</title>
<path fill="none" stroke="midnightblue" d="M58,-224.083C58,-217.006 58,-206.861 58,-197.986"/>
<polygon fill="midnightblue" stroke="midnightblue" points="61.5001,-197.751 58,-187.751 54.5001,-197.751 61.5001,-197.751"/>
</g>
<!-- Node16 -->
<g id="node16" class="node"><title>Node16</title>
<g id="a_node16"><a xlink:href="_is_eos_8h.html" target="_top" xlink:title=" ">
<polygon fill="white" stroke="black" points="130.5,-168.5 130.5,-187.5 209.5,-187.5 209.5,-168.5 130.5,-168.5"/>
<text text-anchor="middle" x="170" y="-175.5" font-family="Helvetica,sans-Serif" font-size="10.00">Cpl/Io/IsEos.h</text>
</a>
</g>
</g>
<!-- Node3&#45;&gt;Node16 -->
<g id="edge16" class="edge"><title>Node3&#45;&gt;Node16</title>
<path fill="none" stroke="midnightblue" d="M75.9947,-224.324C94.0377,-215.625 122.047,-202.12 142.803,-192.113"/>
<polygon fill="midnightblue" stroke="midnightblue" points="144.562,-195.15 152.05,-187.655 141.522,-188.845 144.562,-195.15"/>
</g>
<!-- Node5 -->
<g id="node5" class="node"><title>Node5</title>
<g id="a_node5"><a xlink:title=" ">
<polygon fill="white" stroke="#bfbfbf" points="129.5,-56.5 129.5,-75.5 206.5,-75.5 206.5,-56.5 129.5,-56.5"/>
<text text-anchor="middle" x="168" y="-63.5" font-family="Helvetica,sans-Serif" font-size="10.00">colony_map.h</text>
</a>
</g>
</g>
<!-- Node4&#45;&gt;Node5 -->
<g id="edge4" class="edge"><title>Node4&#45;&gt;Node5</title>
<path fill="none" stroke="midnightblue" d="M268.153,-168.221C256.683,-159.513 239.017,-145.546 225,-132 209.064,-116.599 192.548,-97.3403 181.423,-83.7972"/>
<polygon fill="midnightblue" stroke="midnightblue" points="183.97,-81.381 174.952,-75.8209 178.534,-85.7915 183.97,-81.381"/>
</g>
<!-- Node6 -->
<g id="node6" class="node"><title>Node6</title>
<g id="a_node6"><a xlink:href="_key_8h.html" target="_top" xlink:title=" ">
<polygon fill="white" stroke="black" points="234,-112.5 234,-131.5 338,-131.5 338,-112.5 234,-112.5"/>
<text text-anchor="middle" x="286" y="-119.5" font-family="Helvetica,sans-Serif" font-size="10.00">Cpl/Container/Key.h</text>
</a>
</g>
</g>
<!-- Node4&#45;&gt;Node6 -->
<g id="edge5" class="edge"><title>Node4&#45;&gt;Node6</title>
<path fill="none" stroke="midnightblue" d="M280.991,-168.083C281.786,-160.927 282.929,-150.635 283.923,-141.691"/>
<polygon fill="midnightblue" stroke="midnightblue" points="287.402,-142.076 285.028,-131.751 280.445,-141.303 287.402,-142.076"/>
</g>
<!-- Node12 -->
<g id="node12" class="node"><title>Node12</title>
<g id="a_node12"><a xlink:title=" ">
<polygon fill="white" stroke="#bfbfbf" points="356,-112.5 356,-131.5 408,-131.5 408,-112.5 356,-112.5"/>
<text text-anchor="middle" x="382" y="-119.5" font-family="Helvetica,sans-Serif" font-size="10.00">stdarg.h</text>
</a>
</g>
</g>
<!-- Node4&#45;&gt;Node12 -->
<g id="edge12" class="edge"><title>Node4&#45;&gt;Node12</title>
<path fill="none" stroke="midnightblue" d="M296.388,-168.324C312.671,-159.703 337.867,-146.364 356.716,-136.386"/>
<polygon fill="midnightblue" stroke="midnightblue" points="358.452,-139.427 365.653,-131.655 355.177,-133.24 358.452,-139.427"/>
</g>
<!-- Node13 -->
<g id="node13" class="node"><title>Node13</title>
<g id="a_node13"><a xlink:title=" ">
<polygon fill="white" stroke="#bfbfbf" points="124,-112.5 124,-131.5 178,-131.5 178,-112.5 124,-112.5"/>
<text text-anchor="middle" x="151" y="-119.5" font-family="Helvetica,sans-Serif" font-size="10.00">iostream</text>
</a>
</g>
</g>
<!-- Node4&#45;&gt;Node13 -->
<g id="edge13" class="edge"><title>Node4&#45;&gt;Node13</title>
<path fill="none" stroke="midnightblue" d="M259.56,-168.444C238.33,-159.557 204.901,-145.563 180.745,-135.451"/>
<polygon fill="midnightblue" stroke="midnightblue" points="181.921,-132.149 171.345,-131.516 179.218,-138.606 181.921,-132.149"/>
</g>
<!-- Node6&#45;&gt;Node5 -->
<g id="edge11" class="edge"><title>Node6&#45;&gt;Node5</title>
<path fill="none" stroke="midnightblue" d="M267.303,-112.444C248.056,-103.636 217.848,-89.8116 195.8,-79.722"/>
<polygon fill="midnightblue" stroke="midnightblue" points="197.16,-76.4951 186.61,-75.5164 194.247,-82.8603 197.16,-76.4951"/>
</g>
<!-- Node7 -->
<g id="node7" class="node"><title>Node7</title>
<g id="a_node7"><a xlink:href="_fatal_error_8h.html" target="_top" xlink:title=" ">
<polygon fill="white" stroke="black" points="225,-56.5 225,-75.5 347,-75.5 347,-56.5 225,-56.5"/>
<text text-anchor="middle" x="286" y="-63.5" font-family="Helvetica,sans-Serif" font-size="10.00">Cpl/System/FatalError.h</text>
</a>
</g>
</g>
<!-- Node6&#45;&gt;Node7 -->
<g id="edge6" class="edge"><title>Node6&#45;&gt;Node7</title>
<path fill="none" stroke="midnightblue" d="M286,-112.083C286,-105.006 286,-94.8611 286,-85.9865"/>
<polygon fill="midnightblue" stroke="midnightblue" points="289.5,-85.751 286,-75.7511 282.5,-85.7511 289.5,-85.751"/>
</g>
<!-- Node10 -->
<g id="node10" class="node"><title>Node10</title>
<g id="a_node10"><a xlink:title=" ">
<polygon fill="white" stroke="#bfbfbf" points="365.5,-56.5 365.5,-75.5 414.5,-75.5 414.5,-56.5 365.5,-56.5"/>
<text text-anchor="middle" x="390" y="-63.5" font-family="Helvetica,sans-Serif" font-size="10.00">stdint.h</text>
</a>
</g>
</g>
<!-- Node6&#45;&gt;Node10 -->
<g id="edge9" class="edge"><title>Node6&#45;&gt;Node10</title>
<path fill="none" stroke="midnightblue" d="M302.709,-112.324C319.312,-103.703 345.002,-90.3643 364.22,-80.3855"/>
<polygon fill="midnightblue" stroke="midnightblue" points="366.07,-83.3689 373.332,-75.6545 362.844,-77.1565 366.07,-83.3689"/>
</g>
<!-- Node11 -->
<g id="node11" class="node"><title>Node11</title>
<g id="a_node11"><a xlink:title=" ">
<polygon fill="white" stroke="#bfbfbf" points="432.5,-56.5 432.5,-75.5 481.5,-75.5 481.5,-56.5 432.5,-56.5"/>
<text text-anchor="middle" x="457" y="-63.5" font-family="Helvetica,sans-Serif" font-size="10.00">string.h</text>
</a>
</g>
</g>
<!-- Node6&#45;&gt;Node11 -->
<g id="edge10" class="edge"><title>Node6&#45;&gt;Node11</title>
<path fill="none" stroke="midnightblue" d="M313.095,-112.444C342.668,-103.105 390.096,-88.1276 422.354,-77.9409"/>
<polygon fill="midnightblue" stroke="midnightblue" points="423.77,-81.164 432.252,-74.8151 421.662,-74.4889 423.77,-81.164"/>
</g>
<!-- Node8 -->
<g id="node8" class="node"><title>Node8</title>
<g id="a_node8"><a xlink:title=" ">
<polygon fill="white" stroke="#bfbfbf" points="217,-0.5 217,-19.5 269,-19.5 269,-0.5 217,-0.5"/>
<text text-anchor="middle" x="243" y="-7.5" font-family="Helvetica,sans-Serif" font-size="10.00">stddef.h</text>
</a>
</g>
</g>
<!-- Node7&#45;&gt;Node8 -->
<g id="edge7" class="edge"><title>Node7&#45;&gt;Node8</title>
<path fill="none" stroke="midnightblue" d="M278.899,-56.083C272.763,-48.3768 263.73,-37.0333 256.261,-27.6531"/>
<polygon fill="midnightblue" stroke="midnightblue" points="258.936,-25.3936 249.968,-19.7511 253.46,-29.7542 258.936,-25.3936"/>
</g>
<!-- Node9 -->
<g id="node9" class="node"><title>Node9</title>
<g id="a_node9"><a xlink:title=" ">
<polygon fill="white" stroke="#bfbfbf" points="287.5,-0.5 287.5,-19.5 372.5,-19.5 372.5,-0.5 287.5,-0.5"/>
<text text-anchor="middle" x="330" y="-7.5" font-family="Helvetica,sans-Serif" font-size="10.00">colony_config.h</text>
</a>
</g>
</g>
<!-- Node7&#45;&gt;Node9 -->
<g id="edge8" class="edge"><title>Node7&#45;&gt;Node9</title>
<path fill="none" stroke="midnightblue" d="M293.266,-56.083C299.545,-48.3768 308.788,-37.0333 316.431,-27.6531"/>
<polygon fill="midnightblue" stroke="midnightblue" points="319.266,-29.7143 322.869,-19.7511 313.839,-25.2926 319.266,-29.7143"/>
</g>
<!-- Node15 -->
<g id="node15" class="node"><title>Node15</title>
<g id="a_node15"><a xlink:href="_item_8h.html" target="_top" xlink:title=" ">
<polygon fill="white" stroke="black" points="0,-112.5 0,-131.5 106,-131.5 106,-112.5 0,-112.5"/>
<text text-anchor="middle" x="53" y="-119.5" font-family="Helvetica,sans-Serif" font-size="10.00">Cpl/Container/Item.h</text>
</a>
</g>
</g>
<!-- Node14&#45;&gt;Node15 -->
<g id="edge15" class="edge"><title>Node14&#45;&gt;Node15</title>
<path fill="none" stroke="midnightblue" d="M57.1744,-168.083C56.5191,-161.006 55.5797,-150.861 54.758,-141.986"/>
<polygon fill="midnightblue" stroke="midnightblue" points="58.2174,-141.386 53.8103,-131.751 51.2473,-142.031 58.2174,-141.386"/>
</g>
<!-- Node18&#45;&gt;Node17 -->
<g id="edge24" class="edge"><title>Node18&#45;&gt;Node17</title>
<path fill="none" stroke="midnightblue" d="M227.235,-280.324C217.234,-272.263 202.113,-260.077 190.07,-250.369"/>
<polygon fill="midnightblue" stroke="midnightblue" points="191.943,-247.384 181.961,-243.834 187.55,-252.834 191.943,-247.384"/>
</g>
<!-- Node19 -->
<g id="node19" class="node"><title>Node19</title>
<g id="a_node19"><a xlink:href="_output_8h.html" target="_top" xlink:title=" ">
<polygon fill="white" stroke="black" points="246.5,-224.5 246.5,-243.5 329.5,-243.5 329.5,-224.5 246.5,-224.5"/>
<text text-anchor="middle" x="288" y="-231.5" font-family="Helvetica,sans-Serif" font-size="10.00">Cpl/Io/Output.h</text>
</a>
</g>
</g>
<!-- Node18&#45;&gt;Node19 -->
<g id="edge19" class="edge"><title>Node18&#45;&gt;Node19</title>
<path fill="none" stroke="midnightblue" d="M246.256,-280.083C253.465,-272.298 264.11,-260.801 272.846,-251.367"/>
<polygon fill="midnightblue" stroke="midnightblue" points="275.671,-253.467 279.897,-243.751 270.535,-248.711 275.671,-253.467"/>
</g>
<!-- Node19&#45;&gt;Node4 -->
<g id="edge20" class="edge"><title>Node19&#45;&gt;Node4</title>
<path fill="none" stroke="midnightblue" d="M286.679,-224.083C285.619,-216.927 284.094,-206.635 282.769,-197.691"/>
<polygon fill="midnightblue" stroke="midnightblue" points="286.224,-197.13 281.296,-187.751 279.3,-198.156 286.224,-197.13"/>
</g>
<!-- Node19&#45;&gt;Node12 -->
<g id="edge23" class="edge"><title>Node19&#45;&gt;Node12</title>
<path fill="none" stroke="midnightblue" d="M297.604,-224.45C307.229,-215.69 322.264,-201.483 334,-188 347.47,-172.525 361.215,-153.517 370.525,-140.064"/>
<polygon fill="midnightblue" stroke="midnightblue" points="373.454,-141.981 376.204,-131.749 367.674,-138.033 373.454,-141.981"/>
</g>
<!-- Node19&#45;&gt;Node14 -->
<g id="edge21" class="edge"><title>Node19&#45;&gt;Node14</title>
<path fill="none" stroke="midnightblue" d="M251.556,-224.444C211.601,-215.063 147.413,-199.993 104.015,-189.804"/>
<polygon fill="midnightblue" stroke="midnightblue" points="104.809,-186.395 94.2737,-187.516 103.209,-193.21 104.809,-186.395"/>
</g>
<!-- Node19&#45;&gt;Node16 -->
<g id="edge22" class="edge"><title>Node19&#45;&gt;Node16</title>
<path fill="none" stroke="midnightblue" d="M269.303,-224.444C250.056,-215.636 219.848,-201.812 197.8,-191.722"/>
<polygon fill="midnightblue" stroke="midnightblue" points="199.16,-188.495 188.61,-187.516 196.247,-194.86 199.16,-188.495"/>
</g>
</g>
</svg>
