<?xml version="1.0" encoding="UTF-8" standalone="no"?>
<!DOCTYPE svg PUBLIC "-//W3C//DTD SVG 1.1//EN"
 "http://www.w3.org/Graphics/SVG/1.1/DTD/svg11.dtd">
<!-- Generated by graphviz version 2.38.0 (20140413.2041)
 -->
<!-- Title: Cpl/Io/File/InputOutputApi.h Pages: 1 -->
<svg width="486pt" height="364pt"
 viewBox="0.00 0.00 485.50 364.00" xmlns="http://www.w3.org/2000/svg" xmlns:xlink="http://www.w3.org/1999/xlink">
<g id="graph0" class="graph" transform="scale(1 1) rotate(0) translate(4 360)">
<title>Cpl/Io/File/InputOutputApi.h</title>
<polygon fill="white" stroke="none" points="-4,4 -4,-360 481.5,-360 481.5,4 -4,4"/>
<!-- Node1 -->
<g id="node1" class="node"><title>Node1</title>
<g id="a_node1"><a xlink:title=" ">
<polygon fill="#bfbfbf" stroke="black" points="117.5,-336.5 117.5,-355.5 254.5,-355.5 254.5,-336.5 117.5,-336.5"/>
<text text-anchor="middle" x="186" y="-343.5" font-family="Helvetica,sans-Serif" font-size="10.00">Cpl/Io/File/InputOutputApi.h</text>
</a>
</g>
</g>
<!-- Node2 -->
<g id="node2" class="node"><title>Node2</title>
<g id="a_node2"><a xlink:href="_input_api_8h.html" target="_top" xlink:title=" ">
<polygon fill="white" stroke="black" points="67,-280.5 67,-299.5 175,-299.5 175,-280.5 67,-280.5"/>
<text text-anchor="middle" x="121" y="-287.5" font-family="Helvetica,sans-Serif" font-size="10.00">Cpl/Io/File/InputApi.h</text>
</a>
</g>
</g>
<!-- Node1&#45;&gt;Node2 -->
<g id="edge1" class="edge"><title>Node1&#45;&gt;Node2</title>
<path fill="none" stroke="midnightblue" d="M175.557,-336.324C165.854,-328.263 151.185,-316.077 139.5,-306.369"/>
<polygon fill="midnightblue" stroke="midnightblue" points="141.562,-303.532 131.633,-299.834 137.089,-308.916 141.562,-303.532"/>
</g>
<!-- Node17 -->
<g id="node17" class="node"><title>Node17</title>
<g id="a_node17"><a xlink:href="_output_api_8h.html" target="_top" xlink:title=" ">
<polygon fill="white" stroke="black" points="193,-280.5 193,-299.5 309,-299.5 309,-280.5 193,-280.5"/>
<text text-anchor="middle" x="251" y="-287.5" font-family="Helvetica,sans-Serif" font-size="10.00">Cpl/Io/File/OutputApi.h</text>
</a>
</g>
</g>
<!-- Node1&#45;&gt;Node17 -->
<g id="edge18" class="edge"><title>Node1&#45;&gt;Node17</title>
<path fill="none" stroke="midnightblue" d="M196.443,-336.324C206.146,-328.263 220.815,-316.077 232.5,-306.369"/>
<polygon fill="midnightblue" stroke="midnightblue" points="234.911,-308.916 240.367,-299.834 230.438,-303.532 234.911,-308.916"/>
</g>
<!-- Node3 -->
<g id="node3" class="node"><title>Node3</title>
<g id="a_node3"><a xlink:href="_input_8h.html" target="_top" xlink:title=" ">
<polygon fill="white" stroke="black" points="33.5,-224.5 33.5,-243.5 108.5,-243.5 108.5,-224.5 33.5,-224.5"/>
<text text-anchor="middle" x="71" y="-231.5" font-family="Helvetica,sans-Serif" font-size="10.00">Cpl/Io/Input.h</text>
</a>
</g>
</g>
<!-- Node2&#45;&gt;Node3 -->
<g id="edge2" class="edge"><title>Node2&#45;&gt;Node3</title>
<path fill="none" stroke="midnightblue" d="M112.744,-280.083C105.535,-272.298 94.8902,-260.801 86.1542,-251.367"/>
<polygon fill="midnightblue" stroke="midnightblue" points="88.4651,-248.711 79.1028,-243.751 83.3288,-253.467 88.4651,-248.711"/>
</g>
<!-- Node16 -->
<g id="node16" class="node"><title>Node16</title>
<g id="a_node16"><a xlink:href="_object_api_8h.html" target="_top" xlink:title=" ">
<polygon fill="white" stroke="black" points="126.5,-224.5 126.5,-243.5 241.5,-243.5 241.5,-224.5 126.5,-224.5"/>
<text text-anchor="middle" x="184" y="-231.5" font-family="Helvetica,sans-Serif" font-size="10.00">Cpl/Io/File/ObjectApi.h</text>
</a>
</g>
</g>
<!-- Node2&#45;&gt;Node16 -->
<g id="edge17" class="edge"><title>Node2&#45;&gt;Node16</title>
<path fill="none" stroke="midnightblue" d="M131.122,-280.324C140.526,-272.263 154.744,-260.077 166.069,-250.369"/>
<polygon fill="midnightblue" stroke="midnightblue" points="168.379,-252.999 173.694,-243.834 163.823,-247.684 168.379,-252.999"/>
</g>
<!-- Node4 -->
<g id="node4" class="node"><title>Node4</title>
<g id="a_node4"><a xlink:href="_string_8h.html" target="_top" xlink:title=" ">
<polygon fill="white" stroke="black" points="241,-168.5 241,-187.5 331,-187.5 331,-168.5 241,-168.5"/>
<text text-anchor="middle" x="286" y="-175.5" font-family="Helvetica,sans-Serif" font-size="10.00">Cpl/Text/String.h</text>
</a>
</g>
</g>
<!-- Node3&#45;&gt;Node4 -->
<g id="edge3" class="edge"><title>Node3&#45;&gt;Node4</title>
<path fill="none" stroke="midnightblue" d="M105.067,-224.444C142.18,-215.122 201.661,-200.183 242.215,-189.997"/>
<polygon fill="midnightblue" stroke="midnightblue" points="243.246,-193.347 252.092,-187.516 241.541,-186.558 243.246,-193.347"/>
</g>
<!-- Node13 -->
<g id="node13" class="node"><title>Node13</title>
<g id="a_node13"><a xlink:href="_close_8h.html" target="_top" xlink:title=" ">
<polygon fill="white" stroke="black" points="32,-168.5 32,-187.5 110,-187.5 110,-168.5 32,-168.5"/>
<text text-anchor="middle" x="71" y="-175.5" font-family="Helvetica,sans-Serif" font-size="10.00">Cpl/Io/Close.h</text>
</a>
</g>
</g>
<!-- Node3&#45;&gt;Node13 -->
<g id="edge14" class="edge"><title>Node3&#45;&gt;Node13</title>
<path fill="none" stroke="midnightblue" d="M71,-224.083C71,-217.006 71,-206.861 71,-197.986"/>
<polygon fill="midnightblue" stroke="midnightblue" points="74.5001,-197.751 71,-187.751 67.5001,-197.751 74.5001,-197.751"/>
</g>
<!-- Node15 -->
<g id="node15" class="node"><title>Node15</title>
<g id="a_node15"><a xlink:href="_is_eos_8h.html" target="_top" xlink:title=" ">
<polygon fill="white" stroke="black" points="136.5,-168.5 136.5,-187.5 215.5,-187.5 215.5,-168.5 136.5,-168.5"/>
<text text-anchor="middle" x="176" y="-175.5" font-family="Helvetica,sans-Serif" font-size="10.00">Cpl/Io/IsEos.h</text>
</a>
</g>
</g>
<!-- Node3&#45;&gt;Node15 -->
<g id="edge16" class="edge"><title>Node3&#45;&gt;Node15</title>
<path fill="none" stroke="midnightblue" d="M87.8701,-224.324C104.709,-215.664 130.807,-202.242 150.238,-192.249"/>
<polygon fill="midnightblue" stroke="midnightblue" points="151.88,-195.341 159.172,-187.655 148.678,-189.116 151.88,-195.341"/>
</g>
<!-- Node5 -->
<g id="node5" class="node"><title>Node5</title>
<g id="a_node5"><a xlink:title=" ">
<polygon fill="white" stroke="#bfbfbf" points="167.5,-56.5 167.5,-75.5 244.5,-75.5 244.5,-56.5 167.5,-56.5"/>
<text text-anchor="middle" x="206" y="-63.5" font-family="Helvetica,sans-Serif" font-size="10.00">colony_map.h</text>
</a>
</g>
</g>
<!-- Node4&#45;&gt;Node5 -->
<g id="edge4" class="edge"><title>Node4&#45;&gt;Node5</title>
<path fill="none" stroke="midnightblue" d="M268.824,-168.412C255.052,-160.681 236.23,-148.074 225,-132 215.426,-118.296 210.626,-99.7631 208.25,-85.9929"/>
<polygon fill="midnightblue" stroke="midnightblue" points="211.666,-85.1543 206.773,-75.7567 204.737,-86.1541 211.666,-85.1543"/>
</g>
<!-- Node6 -->
<g id="node6" class="node"><title>Node6</title>
<g id="a_node6"><a xlink:href="_key_8h.html" target="_top" xlink:title=" ">
<polygon fill="white" stroke="black" points="234,-112.5 234,-131.5 338,-131.5 338,-112.5 234,-112.5"/>
<text text-anchor="middle" x="286" y="-119.5" font-family="Helvetica,sans-Serif" font-size="10.00">Cpl/Container/Key.h</text>
</a>
</g>
</g>
<!-- Node4&#45;&gt;Node6 -->
<g id="edge5" class="edge"><title>Node4&#45;&gt;Node6</title>
<path fill="none" stroke="midnightblue" d="M280.834,-168.083C279.324,-160.927 278.894,-150.635 279.542,-141.691"/>
<polygon fill="midnightblue" stroke="midnightblue" points="283.015,-142.126 280.869,-131.751 276.077,-141.2 283.015,-142.126"/>
</g>
<!-- Node11 -->
<g id="node11" class="node"><title>Node11</title>
<g id="a_node11"><a xlink:title=" ">
<polygon fill="white" stroke="#bfbfbf" points="356,-112.5 356,-131.5 408,-131.5 408,-112.5 356,-112.5"/>
<text text-anchor="middle" x="382" y="-119.5" font-family="Helvetica,sans-Serif" font-size="10.00">stdarg.h</text>
</a>
</g>
</g>
<!-- Node4&#45;&gt;Node11 -->
<g id="edge12" class="edge"><title>Node4&#45;&gt;Node11</title>
<path fill="none" stroke="midnightblue" d="M301.424,-168.324C316.54,-159.822 339.815,-146.729 357.471,-136.797"/>
<polygon fill="midnightblue" stroke="midnightblue" points="359.614,-139.608 366.614,-131.655 356.183,-133.507 359.614,-139.608"/>
</g>
<!-- Node12 -->
<g id="node12" class="node"><title>Node12</title>
<g id="a_node12"><a xlink:title=" ">
<polygon fill="white" stroke="#bfbfbf" points="124,-112.5 124,-131.5 178,-131.5 178,-112.5 124,-112.5"/>
<text text-anchor="middle" x="151" y="-119.5" font-family="Helvetica,sans-Serif" font-size="10.00">iostream</text>
</a>
</g>
</g>
<!-- Node4&#45;&gt;Node12 -->
<g id="edge13" class="edge"><title>Node4&#45;&gt;Node12</title>
<path fill="none" stroke="midnightblue" d="M264.609,-168.444C242.293,-159.517 207.097,-145.439 181.792,-135.317"/>
<polygon fill="midnightblue" stroke="midnightblue" points="182.876,-131.981 172.291,-131.516 180.276,-138.48 182.876,-131.981"/>
</g>
<!-- Node6&#45;&gt;Node4 -->
<g id="edge10" class="edge"><title>Node6&#45;&gt;Node4</title>
<path fill="none" stroke="midnightblue" d="M291.131,-131.751C292.657,-138.858 293.104,-149.136 292.472,-158.101"/>
<polygon fill="midnightblue" stroke="midnightblue" points="288.993,-157.713 291.166,-168.083 295.934,-158.622 288.993,-157.713"/>
</g>
<!-- Node6&#45;&gt;Node5 -->
<g id="edge11" class="edge"><title>Node6&#45;&gt;Node5</title>
<path fill="none" stroke="midnightblue" d="M273.147,-112.324C260.784,-103.979 241.87,-91.2122 227.263,-81.3524"/>
<polygon fill="midnightblue" stroke="midnightblue" points="229.068,-78.3483 218.821,-75.6545 225.152,-84.1503 229.068,-78.3483"/>
</g>
<!-- Node7 -->
<g id="node7" class="node"><title>Node7</title>
<g id="a_node7"><a xlink:href="_fatal_error_8h.html" target="_top" xlink:title=" ">
<polygon fill="white" stroke="black" points="330,-56.5 330,-75.5 452,-75.5 452,-56.5 330,-56.5"/>
<text text-anchor="middle" x="391" y="-63.5" font-family="Helvetica,sans-Serif" font-size="10.00">Cpl/System/FatalError.h</text>
</a>
</g>
</g>
<!-- Node6&#45;&gt;Node7 -->
<g id="edge6" class="edge"><title>Node6&#45;&gt;Node7</title>
<path fill="none" stroke="midnightblue" d="M302.87,-112.324C319.709,-103.664 345.807,-90.2424 365.238,-80.249"/>
<polygon fill="midnightblue" stroke="midnightblue" points="366.88,-83.3405 374.172,-75.6545 363.678,-77.1155 366.88,-83.3405"/>
</g>
<!-- Node10 -->
<g id="node10" class="node"><title>Node10</title>
<g id="a_node10"><a xlink:title=" ">
<polygon fill="white" stroke="#bfbfbf" points="262.5,-56.5 262.5,-75.5 311.5,-75.5 311.5,-56.5 262.5,-56.5"/>
<text text-anchor="middle" x="287" y="-63.5" font-family="Helvetica,sans-Serif" font-size="10.00">stdint.h</text>
</a>
</g>
</g>
<!-- Node6&#45;&gt;Node10 -->
<g id="edge9" class="edge"><title>Node6&#45;&gt;Node10</title>
<path fill="none" stroke="midnightblue" d="M286.165,-112.083C286.296,-105.006 286.484,-94.8611 286.648,-85.9865"/>
<polygon fill="midnightblue" stroke="midnightblue" points="290.152,-85.8142 286.838,-75.7511 283.153,-85.6845 290.152,-85.8142"/>
</g>
<!-- Node8 -->
<g id="node8" class="node"><title>Node8</title>
<g id="a_node8"><a xlink:title=" ">
<polygon fill="white" stroke="#bfbfbf" points="322,-0.5 322,-19.5 374,-19.5 374,-0.5 322,-0.5"/>
<text text-anchor="middle" x="348" y="-7.5" font-family="Helvetica,sans-Serif" font-size="10.00">stddef.h</text>
</a>
</g>
</g>
<!-- Node7&#45;&gt;Node8 -->
<g id="edge7" class="edge"><title>Node7&#45;&gt;Node8</title>
<path fill="none" stroke="midnightblue" d="M383.899,-56.083C377.763,-48.3768 368.73,-37.0333 361.261,-27.6531"/>
<polygon fill="midnightblue" stroke="midnightblue" points="363.936,-25.3936 354.968,-19.7511 358.46,-29.7542 363.936,-25.3936"/>
</g>
<!-- Node9 -->
<g id="node9" class="node"><title>Node9</title>
<g id="a_node9"><a xlink:title=" ">
<polygon fill="white" stroke="#bfbfbf" points="392.5,-0.5 392.5,-19.5 477.5,-19.5 477.5,-0.5 392.5,-0.5"/>
<text text-anchor="middle" x="435" y="-7.5" font-family="Helvetica,sans-Serif" font-size="10.00">colony_config.h</text>
</a>
</g>
</g>
<!-- Node7&#45;&gt;Node9 -->
<g id="edge8" class="edge"><title>Node7&#45;&gt;Node9</title>
<path fill="none" stroke="midnightblue" d="M398.266,-56.083C404.545,-48.3768 413.788,-37.0333 421.431,-27.6531"/>
<polygon fill="midnightblue" stroke="midnightblue" points="424.266,-29.7143 427.869,-19.7511 418.839,-25.2926 424.266,-29.7143"/>
</g>
<!-- Node14 -->
<g id="node14" class="node"><title>Node14</title>
<g id="a_node14"><a xlink:href="_item_8h.html" target="_top" xlink:title=" ">
<polygon fill="white" stroke="black" points="0,-112.5 0,-131.5 106,-131.5 106,-112.5 0,-112.5"/>
<text text-anchor="middle" x="53" y="-119.5" font-family="Helvetica,sans-Serif" font-size="10.00">Cpl/Container/Item.h</text>
</a>
</g>
</g>
<!-- Node13&#45;&gt;Node14 -->
<g id="edge15" class="edge"><title>Node13&#45;&gt;Node14</title>
<path fill="none" stroke="midnightblue" d="M68.0277,-168.083C65.6162,-160.849 62.1362,-150.409 59.1323,-141.397"/>
<polygon fill="midnightblue" stroke="midnightblue" points="62.3998,-140.131 55.917,-131.751 55.759,-142.345 62.3998,-140.131"/>
</g>
<!-- Node17&#45;&gt;Node16 -->
<g id="edge24" class="edge"><title>Node17&#45;&gt;Node16</title>
<path fill="none" stroke="midnightblue" d="M240.235,-280.324C230.234,-272.263 215.113,-260.077 203.07,-250.369"/>
<polygon fill="midnightblue" stroke="midnightblue" points="204.943,-247.384 194.961,-243.834 200.55,-252.834 204.943,-247.384"/>
</g>
<!-- Node18 -->
<g id="node18" class="node"><title>Node18</title>
<g id="a_node18"><a xlink:href="_output_8h.html" target="_top" xlink:title=" ">
<polygon fill="white" stroke="black" points="259.5,-224.5 259.5,-243.5 342.5,-243.5 342.5,-224.5 259.5,-224.5"/>
<text text-anchor="middle" x="301" y="-231.5" font-family="Helvetica,sans-Serif" font-size="10.00">Cpl/Io/Output.h</text>
</a>
</g>
</g>
<!-- Node17&#45;&gt;Node18 -->
<g id="edge19" class="edge"><title>Node17&#45;&gt;Node18</title>
<path fill="none" stroke="midnightblue" d="M259.256,-280.083C266.465,-272.298 277.11,-260.801 285.846,-251.367"/>
<polygon fill="midnightblue" stroke="midnightblue" points="288.671,-253.467 292.897,-243.751 283.535,-248.711 288.671,-253.467"/>
</g>
<!-- Node18&#45;&gt;Node4 -->
<g id="edge20" class="edge"><title>Node18&#45;&gt;Node4</title>
<path fill="none" stroke="midnightblue" d="M298.523,-224.083C296.514,-216.849 293.614,-206.409 291.11,-197.397"/>
<polygon fill="midnightblue" stroke="midnightblue" points="294.48,-196.449 288.431,-187.751 287.735,-198.323 294.48,-196.449"/>
</g>
<!-- Node18&#45;&gt;Node11 -->
<g id="edge23" class="edge"><title>Node18&#45;&gt;Node11</title>
<path fill="none" stroke="midnightblue" d="M309.151,-224.343C317.318,-215.5 330.07,-201.229 340,-188 351.682,-172.436 363.59,-153.676 371.729,-140.319"/>
<polygon fill="midnightblue" stroke="midnightblue" points="374.775,-142.044 376.931,-131.671 368.777,-138.435 374.775,-142.044"/>
</g>
<!-- Node18&#45;&gt;Node13 -->
<g id="edge21" class="edge"><title>Node18&#45;&gt;Node13</title>
<path fill="none" stroke="midnightblue" d="M264.556,-224.444C224.601,-215.063 160.413,-199.993 117.015,-189.804"/>
<polygon fill="midnightblue" stroke="midnightblue" points="117.809,-186.395 107.274,-187.516 116.209,-193.21 117.809,-186.395"/>
</g>
<!-- Node18&#45;&gt;Node15 -->
<g id="edge22" class="edge"><title>Node18&#45;&gt;Node15</title>
<path fill="none" stroke="midnightblue" d="M281.193,-224.444C260.713,-215.596 228.517,-201.687 205.135,-191.586"/>
<polygon fill="midnightblue" stroke="midnightblue" points="206.282,-188.269 195.714,-187.516 203.506,-194.695 206.282,-188.269"/>
</g>
</g>
</svg>
