<?xml version="1.0" encoding="UTF-8" standalone="no"?>
<!DOCTYPE svg PUBLIC "-//W3C//DTD SVG 1.1//EN"
 "http://www.w3.org/Graphics/SVG/1.1/DTD/svg11.dtd">
<!-- Generated by graphviz version 10.0.1 (20240210.2158)
 -->
<!-- Title: Cpl/Math/IntegerExpressionParser.h Pages: 1 -->
<svg width="908pt" height="376pt"
 viewBox="0.00 0.00 908.14 376.00" xmlns="http://www.w3.org/2000/svg" xmlns:xlink="http://www.w3.org/1999/xlink">
<g id="graph0" class="graph" transform="scale(1 1) rotate(0) translate(4 372)">
<title>Cpl/Math/IntegerExpressionParser.h</title>
<!-- Node1 -->
<g id="Node000001" class="node">
<title>Node1</title>
<g id="a_Node000001"><a xlink:title="This file contains a collection of methods that parses a null terminated string that contains an arit...">
<polygon fill="#999999" stroke="#666666" points="279.75,-368 143.75,-368 143.75,-336 279.75,-336 279.75,-368"/>
<text text-anchor="start" x="151.75" y="-354.5" font-family="Helvetica,sans-Serif" font-size="10.00">Cpl/Math/IntegerExpression</text>
<text text-anchor="middle" x="211.75" y="-342.5" font-family="Helvetica,sans-Serif" font-size="10.00">Parser.h</text>
</a>
</g>
</g>
<!-- Node2 -->
<g id="Node000002" class="node">
<title>Node2</title>
<g id="a_Node000002"><a xlink:title=" ">
<polygon fill="#e0e0e0" stroke="#999999" points="83.5,-20 0,-20 0,0 83.5,0 83.5,-20"/>
<text text-anchor="middle" x="41.75" y="-6.5" font-family="Helvetica,sans-Serif" font-size="10.00">colony_config.h</text>
</a>
</g>
</g>
<!-- Node1&#45;&gt;Node2 -->
<g id="edge1_Node000001_Node000002" class="edge">
<title>Node1&#45;&gt;Node2</title>
<g id="a_edge1_Node000001_Node000002"><a xlink:title=" ">
<path fill="none" stroke="#63b8ff" d="M143.35,-341.68C82.73,-329.11 3.75,-300.23 3.75,-235 3.75,-235 3.75,-235 3.75,-121 3.75,-87.77 19.43,-51.85 30.65,-30.4"/>
<polygon fill="#63b8ff" stroke="#63b8ff" points="33.69,-32.12 35.42,-21.66 27.55,-28.76 33.69,-32.12"/>
</a>
</g>
</g>
<!-- Node3 -->
<g id="Node000003" class="node">
<title>Node3</title>
<g id="a_Node000003"><a xlink:href="_stack_8h.html" target="_top" xlink:title=" ">
<polygon fill="white" stroke="#666666" points="695.38,-300 584.12,-300 584.12,-280 695.38,-280 695.38,-300"/>
<text text-anchor="middle" x="639.75" y="-286.5" font-family="Helvetica,sans-Serif" font-size="10.00">Cpl/Container/Stack.h</text>
</a>
</g>
</g>
<!-- Node1&#45;&gt;Node3 -->
<g id="edge2_Node000001_Node000003" class="edge">
<title>Node1&#45;&gt;Node3</title>
<g id="a_edge2_Node000001_Node000003"><a xlink:title=" ">
<path fill="none" stroke="#63b8ff" d="M280.04,-341.43C360.23,-330.18 492.41,-311.65 572.26,-300.46"/>
<polygon fill="#63b8ff" stroke="#63b8ff" points="572.73,-303.93 582.15,-299.07 571.76,-297 572.73,-303.93"/>
</a>
</g>
</g>
<!-- Node5 -->
<g id="Node000005" class="node">
<title>Node5</title>
<g id="a_Node000005"><a xlink:href="_system_2_trace_8h.html" target="_top" xlink:title=" ">
<polygon fill="white" stroke="#666666" points="262.88,-300 160.62,-300 160.62,-280 262.88,-280 262.88,-300"/>
<text text-anchor="middle" x="211.75" y="-286.5" font-family="Helvetica,sans-Serif" font-size="10.00">Cpl/System/Trace.h</text>
</a>
</g>
</g>
<!-- Node1&#45;&gt;Node5 -->
<g id="edge4_Node000001_Node000005" class="edge">
<title>Node1&#45;&gt;Node5</title>
<g id="a_edge4_Node000001_Node000005"><a xlink:title=" ">
<path fill="none" stroke="#63b8ff" d="M211.75,-335.55C211.75,-328.34 211.75,-319.66 211.75,-311.88"/>
<polygon fill="#63b8ff" stroke="#63b8ff" points="215.25,-311.92 211.75,-301.92 208.25,-311.92 215.25,-311.92"/>
</a>
</g>
</g>
<!-- Node4 -->
<g id="Node000004" class="node">
<title>Node4</title>
<g id="a_Node000004"><a xlink:title=" ">
<polygon fill="#e0e0e0" stroke="#999999" points="680.88,-76 632.62,-76 632.62,-56 680.88,-56 680.88,-76"/>
<text text-anchor="middle" x="656.75" y="-62.5" font-family="Helvetica,sans-Serif" font-size="10.00">stdint.h</text>
</a>
</g>
</g>
<!-- Node3&#45;&gt;Node4 -->
<g id="edge3_Node000003_Node000004" class="edge">
<title>Node3&#45;&gt;Node4</title>
<g id="a_edge3_Node000003_Node000004"><a xlink:title=" ">
<path fill="none" stroke="#63b8ff" d="M695.63,-284.17C755.36,-275.69 847.3,-252.32 890.75,-188 942.13,-111.94 769.13,-80.77 691.99,-70.85"/>
<polygon fill="#63b8ff" stroke="#63b8ff" points="692.76,-67.42 682.41,-69.67 691.91,-74.37 692.76,-67.42"/>
</a>
</g>
</g>
<!-- Node5&#45;&gt;Node2 -->
<g id="edge5_Node000005_Node000002" class="edge">
<title>Node5&#45;&gt;Node2</title>
<g id="a_edge5_Node000005_Node000002"><a xlink:title=" ">
<path fill="none" stroke="#63b8ff" d="M163.94,-279.53C113.66,-266.46 41.75,-237.53 41.75,-179 41.75,-179 41.75,-179 41.75,-121 41.75,-89.87 41.75,-53.78 41.75,-31.68"/>
<polygon fill="#63b8ff" stroke="#63b8ff" points="45.25,-31.93 41.75,-21.93 38.25,-31.93 45.25,-31.93"/>
</a>
</g>
</g>
<!-- Node6 -->
<g id="Node000006" class="node">
<title>Node6</title>
<g id="a_Node000006"><a xlink:href="_text_2_string_8h.html" target="_top" xlink:title=" ">
<polygon fill="white" stroke="#666666" points="291.12,-188 202.38,-188 202.38,-168 291.12,-168 291.12,-188"/>
<text text-anchor="middle" x="246.75" y="-174.5" font-family="Helvetica,sans-Serif" font-size="10.00">Cpl/Text/String.h</text>
</a>
</g>
</g>
<!-- Node5&#45;&gt;Node6 -->
<g id="edge6_Node000005_Node000006" class="edge">
<title>Node5&#45;&gt;Node6</title>
<g id="a_edge6_Node000005_Node000006"><a xlink:title=" ">
<path fill="none" stroke="#63b8ff" d="M215.22,-279.75C218.57,-270.68 223.72,-256.46 227.75,-244 232.58,-229.08 237.53,-212.06 241.17,-199.18"/>
<polygon fill="#63b8ff" stroke="#63b8ff" points="244.48,-200.34 243.8,-189.77 237.74,-198.46 244.48,-200.34"/>
</a>
</g>
</g>
<!-- Node14 -->
<g id="Node000014" class="node">
<title>Node14</title>
<g id="a_Node000014"><a xlink:href="_thread_8h.html" target="_top" xlink:title=" ">
<polygon fill="white" stroke="#666666" points="648.5,-244 541,-244 541,-224 648.5,-224 648.5,-244"/>
<text text-anchor="middle" x="594.75" y="-230.5" font-family="Helvetica,sans-Serif" font-size="10.00">Cpl/System/Thread.h</text>
</a>
</g>
</g>
<!-- Node5&#45;&gt;Node14 -->
<g id="edge17_Node000005_Node000014" class="edge">
<title>Node5&#45;&gt;Node14</title>
<g id="a_edge17_Node000005_Node000014"><a xlink:title=" ">
<path fill="none" stroke="#63b8ff" d="M263.01,-281.77C331.83,-272.07 454.17,-254.82 529.5,-244.2"/>
<polygon fill="#63b8ff" stroke="#63b8ff" points="529.8,-247.69 539.21,-242.83 528.82,-240.76 529.8,-247.69"/>
</a>
</g>
</g>
<!-- Node20 -->
<g id="Node000020" class="node">
<title>Node20</title>
<g id="a_Node000020"><a xlink:href="_output_8h.html" target="_top" xlink:title=" ">
<polygon fill="white" stroke="#666666" points="218.38,-244 137.12,-244 137.12,-224 218.38,-224 218.38,-244"/>
<text text-anchor="middle" x="177.75" y="-230.5" font-family="Helvetica,sans-Serif" font-size="10.00">Cpl/Io/Output.h</text>
</a>
</g>
</g>
<!-- Node5&#45;&gt;Node20 -->
<g id="edge24_Node000005_Node000020" class="edge">
<title>Node5&#45;&gt;Node20</title>
<g id="a_edge24_Node000005_Node000020"><a xlink:title=" ">
<path fill="none" stroke="#63b8ff" d="M205.83,-279.59C201.39,-272.55 195.17,-262.67 189.71,-254"/>
<polygon fill="#63b8ff" stroke="#63b8ff" points="192.7,-252.18 184.41,-245.58 186.78,-255.91 192.7,-252.18"/>
</a>
</g>
</g>
<!-- Node7 -->
<g id="Node000007" class="node">
<title>Node7</title>
<g id="a_Node000007"><a xlink:title=" ">
<polygon fill="#e0e0e0" stroke="#999999" points="362.12,-76 285.38,-76 285.38,-56 362.12,-56 362.12,-76"/>
<text text-anchor="middle" x="323.75" y="-62.5" font-family="Helvetica,sans-Serif" font-size="10.00">colony_map.h</text>
</a>
</g>
</g>
<!-- Node6&#45;&gt;Node7 -->
<g id="edge7_Node000006_Node000007" class="edge">
<title>Node6&#45;&gt;Node7</title>
<g id="a_edge7_Node000006_Node000007"><a xlink:title=" ">
<path fill="none" stroke="#63b8ff" d="M263.52,-167.63C276.27,-159.69 293.35,-147.19 303.75,-132 312.94,-118.58 318.04,-100.77 320.78,-87.19"/>
<polygon fill="#63b8ff" stroke="#63b8ff" points="324.17,-88.09 322.43,-77.64 317.27,-86.9 324.17,-88.09"/>
</a>
</g>
</g>
<!-- Node8 -->
<g id="Node000008" class="node">
<title>Node8</title>
<g id="a_Node000008"><a xlink:href="_key_8h.html" target="_top" xlink:title=" ">
<polygon fill="white" stroke="#666666" points="294.25,-132 191.25,-132 191.25,-112 294.25,-112 294.25,-132"/>
<text text-anchor="middle" x="242.75" y="-118.5" font-family="Helvetica,sans-Serif" font-size="10.00">Cpl/Container/Key.h</text>
</a>
</g>
</g>
<!-- Node6&#45;&gt;Node8 -->
<g id="edge8_Node000006_Node000008" class="edge">
<title>Node6&#45;&gt;Node8</title>
<g id="a_edge8_Node000006_Node000008"><a xlink:title=" ">
<path fill="none" stroke="#63b8ff" d="M246.05,-167.59C245.57,-161.01 244.9,-151.96 244.29,-143.73"/>
<polygon fill="#63b8ff" stroke="#63b8ff" points="247.78,-143.52 243.55,-133.81 240.8,-144.04 247.78,-143.52"/>
</a>
</g>
</g>
<!-- Node12 -->
<g id="Node000012" class="node">
<title>Node12</title>
<g id="a_Node000012"><a xlink:title=" ">
<polygon fill="#e0e0e0" stroke="#999999" points="152.38,-132 101.12,-132 101.12,-112 152.38,-112 152.38,-132"/>
<text text-anchor="middle" x="126.75" y="-118.5" font-family="Helvetica,sans-Serif" font-size="10.00">stdarg.h</text>
</a>
</g>
</g>
<!-- Node6&#45;&gt;Node12 -->
<g id="edge15_Node000006_Node000012" class="edge">
<title>Node6&#45;&gt;Node12</title>
<g id="a_edge15_Node000006_Node000012"><a xlink:title=" ">
<path fill="none" stroke="#63b8ff" d="M225.85,-167.59C207.12,-159.17 179.39,-146.69 158.03,-137.07"/>
<polygon fill="#63b8ff" stroke="#63b8ff" points="159.75,-134.01 149.2,-133.1 156.88,-140.4 159.75,-134.01"/>
</a>
</g>
</g>
<!-- Node13 -->
<g id="Node000013" class="node">
<title>Node13</title>
<g id="a_Node000013"><a xlink:title=" ">
<polygon fill="#e0e0e0" stroke="#999999" points="404.5,-132 351,-132 351,-112 404.5,-112 404.5,-132"/>
<text text-anchor="middle" x="377.75" y="-118.5" font-family="Helvetica,sans-Serif" font-size="10.00">iostream</text>
</a>
</g>
</g>
<!-- Node6&#45;&gt;Node13 -->
<g id="edge16_Node000006_Node000013" class="edge">
<title>Node6&#45;&gt;Node13</title>
<g id="a_edge16_Node000006_Node000013"><a xlink:title=" ">
<path fill="none" stroke="#63b8ff" d="M269.57,-167.59C290.2,-159.09 320.83,-146.46 344.24,-136.81"/>
<polygon fill="#63b8ff" stroke="#63b8ff" points="345.44,-140.1 353.35,-133.06 342.77,-133.63 345.44,-140.1"/>
</a>
</g>
</g>
<!-- Node8&#45;&gt;Node4 -->
<g id="edge12_Node000008_Node000004" class="edge">
<title>Node8&#45;&gt;Node4</title>
<g id="a_edge12_Node000008_Node000004"><a xlink:title=" ">
<path fill="none" stroke="#63b8ff" d="M294.35,-114.27C379.56,-103.16 547.56,-81.24 620.99,-71.66"/>
<polygon fill="#63b8ff" stroke="#63b8ff" points="621.38,-75.14 630.84,-70.38 620.47,-68.2 621.38,-75.14"/>
</a>
</g>
</g>
<!-- Node8&#45;&gt;Node7 -->
<g id="edge14_Node000008_Node000007" class="edge">
<title>Node8&#45;&gt;Node7</title>
<g id="a_edge14_Node000008_Node000007"><a xlink:title=" ">
<path fill="none" stroke="#63b8ff" d="M256.86,-111.59C268.75,-103.67 286.02,-92.16 300.03,-82.82"/>
<polygon fill="#63b8ff" stroke="#63b8ff" points="301.89,-85.78 308.27,-77.32 298.01,-79.95 301.89,-85.78"/>
</a>
</g>
</g>
<!-- Node9 -->
<g id="Node000009" class="node">
<title>Node9</title>
<g id="a_Node000009"><a xlink:href="_fatal_error_8h.html" target="_top" xlink:title=" ">
<polygon fill="white" stroke="#666666" points="197.25,-76 76.25,-76 76.25,-56 197.25,-56 197.25,-76"/>
<text text-anchor="middle" x="136.75" y="-62.5" font-family="Helvetica,sans-Serif" font-size="10.00">Cpl/System/FatalError.h</text>
</a>
</g>
</g>
<!-- Node8&#45;&gt;Node9 -->
<g id="edge9_Node000008_Node000009" class="edge">
<title>Node8&#45;&gt;Node9</title>
<g id="a_edge9_Node000008_Node000009"><a xlink:title=" ">
<path fill="none" stroke="#63b8ff" d="M224.29,-111.59C208.05,-103.32 184.14,-91.14 165.42,-81.6"/>
<polygon fill="#63b8ff" stroke="#63b8ff" points="167.21,-78.59 156.71,-77.17 164.03,-84.82 167.21,-78.59"/>
</a>
</g>
</g>
<!-- Node11 -->
<g id="Node000011" class="node">
<title>Node11</title>
<g id="a_Node000011"><a xlink:title=" ">
<polygon fill="#e0e0e0" stroke="#999999" points="266.88,-76 218.62,-76 218.62,-56 266.88,-56 266.88,-76"/>
<text text-anchor="middle" x="242.75" y="-62.5" font-family="Helvetica,sans-Serif" font-size="10.00">string.h</text>
</a>
</g>
</g>
<!-- Node8&#45;&gt;Node11 -->
<g id="edge13_Node000008_Node000011" class="edge">
<title>Node8&#45;&gt;Node11</title>
<g id="a_edge13_Node000008_Node000011"><a xlink:title=" ">
<path fill="none" stroke="#63b8ff" d="M242.75,-111.59C242.75,-105.01 242.75,-95.96 242.75,-87.73"/>
<polygon fill="#63b8ff" stroke="#63b8ff" points="246.25,-87.81 242.75,-77.81 239.25,-87.81 246.25,-87.81"/>
</a>
</g>
</g>
<!-- Node9&#45;&gt;Node2 -->
<g id="edge11_Node000009_Node000002" class="edge">
<title>Node9&#45;&gt;Node2</title>
<g id="a_edge11_Node000009_Node000002"><a xlink:title=" ">
<path fill="none" stroke="#63b8ff" d="M120.2,-55.59C105.85,-47.44 84.82,-35.48 68.15,-26"/>
<polygon fill="#63b8ff" stroke="#63b8ff" points="70.17,-23.13 59.74,-21.23 66.71,-29.21 70.17,-23.13"/>
</a>
</g>
</g>
<!-- Node10 -->
<g id="Node000010" class="node">
<title>Node10</title>
<g id="a_Node000010"><a xlink:title=" ">
<polygon fill="#e0e0e0" stroke="#999999" points="162,-20 111.5,-20 111.5,0 162,0 162,-20"/>
<text text-anchor="middle" x="136.75" y="-6.5" font-family="Helvetica,sans-Serif" font-size="10.00">stddef.h</text>
</a>
</g>
</g>
<!-- Node9&#45;&gt;Node10 -->
<g id="edge10_Node000009_Node000010" class="edge">
<title>Node9&#45;&gt;Node10</title>
<g id="a_edge10_Node000009_Node000010"><a xlink:title=" ">
<path fill="none" stroke="#63b8ff" d="M136.75,-55.59C136.75,-49.01 136.75,-39.96 136.75,-31.73"/>
<polygon fill="#63b8ff" stroke="#63b8ff" points="140.25,-31.81 136.75,-21.81 133.25,-31.81 140.25,-31.81"/>
</a>
</g>
</g>
<!-- Node14&#45;&gt;Node7 -->
<g id="edge18_Node000014_Node000007" class="edge">
<title>Node14&#45;&gt;Node7</title>
<g id="a_edge18_Node000014_Node000007"><a xlink:title=" ">
<path fill="none" stroke="#63b8ff" d="M648.62,-226.64C696.47,-218.68 755.3,-201.75 730.75,-168 688.84,-110.38 473.05,-81.82 373.81,-71.57"/>
<polygon fill="#63b8ff" stroke="#63b8ff" points="374.39,-68.12 364.09,-70.59 373.69,-75.08 374.39,-68.12"/>
</a>
</g>
</g>
<!-- Node15 -->
<g id="Node000015" class="node">
<title>Node15</title>
<g id="a_Node000015"><a xlink:href="_runnable_8h.html" target="_top" xlink:title=" ">
<polygon fill="white" stroke="#666666" points="722.12,-188 603.38,-188 603.38,-168 722.12,-168 722.12,-188"/>
<text text-anchor="middle" x="662.75" y="-174.5" font-family="Helvetica,sans-Serif" font-size="10.00">Cpl/System/Runnable.h</text>
</a>
</g>
</g>
<!-- Node14&#45;&gt;Node15 -->
<g id="edge19_Node000014_Node000015" class="edge">
<title>Node14&#45;&gt;Node15</title>
<g id="a_edge19_Node000014_Node000015"><a xlink:title=" ">
<path fill="none" stroke="#63b8ff" d="M606.59,-223.59C616.44,-215.77 630.68,-204.46 642.36,-195.19"/>
<polygon fill="#63b8ff" stroke="#63b8ff" points="644.2,-198.2 649.86,-189.24 639.85,-192.72 644.2,-198.2"/>
</a>
</g>
</g>
<!-- Node16 -->
<g id="Node000016" class="node">
<title>Node16</title>
<g id="a_Node000016"><a xlink:href="_signable_8h.html" target="_top" xlink:title=" ">
<polygon fill="white" stroke="#666666" points="585.62,-188 469.88,-188 469.88,-168 585.62,-168 585.62,-188"/>
<text text-anchor="middle" x="527.75" y="-174.5" font-family="Helvetica,sans-Serif" font-size="10.00">Cpl/System/Signable.h</text>
</a>
</g>
</g>
<!-- Node14&#45;&gt;Node16 -->
<g id="edge20_Node000014_Node000016" class="edge">
<title>Node14&#45;&gt;Node16</title>
<g id="a_edge20_Node000014_Node000016"><a xlink:title=" ">
<path fill="none" stroke="#63b8ff" d="M583.08,-223.59C573.47,-215.85 559.62,-204.69 548.18,-195.47"/>
<polygon fill="#63b8ff" stroke="#63b8ff" points="550.45,-192.8 540.47,-189.25 546.05,-198.25 550.45,-192.8"/>
</a>
</g>
</g>
<!-- Node18 -->
<g id="Node000018" class="node">
<title>Node18</title>
<g id="a_Node000018"><a xlink:href="_traverser_8h.html" target="_top" xlink:title=" ">
<polygon fill="white" stroke="#666666" points="882,-188 777.5,-188 777.5,-168 882,-168 882,-188"/>
<text text-anchor="middle" x="829.75" y="-174.5" font-family="Helvetica,sans-Serif" font-size="10.00">Cpl/Type/Traverser.h</text>
</a>
</g>
</g>
<!-- Node14&#45;&gt;Node18 -->
<g id="edge22_Node000014_Node000018" class="edge">
<title>Node14&#45;&gt;Node18</title>
<g id="a_edge22_Node000014_Node000018"><a xlink:title=" ">
<path fill="none" stroke="#63b8ff" d="M635.95,-223.53C675.35,-214.48 734.9,-200.8 777.58,-190.99"/>
<polygon fill="#63b8ff" stroke="#63b8ff" points="778.16,-194.45 787.12,-188.8 776.59,-187.62 778.16,-194.45"/>
</a>
</g>
</g>
<!-- Node19 -->
<g id="Node000019" class="node">
<title>Node19</title>
<g id="a_Node000019"><a xlink:title=" ">
<polygon fill="#e0e0e0" stroke="#999999" points="451.5,-188 404,-188 404,-168 451.5,-168 451.5,-188"/>
<text text-anchor="middle" x="427.75" y="-174.5" font-family="Helvetica,sans-Serif" font-size="10.00">stdlib.h</text>
</a>
</g>
</g>
<!-- Node14&#45;&gt;Node19 -->
<g id="edge23_Node000014_Node000019" class="edge">
<title>Node14&#45;&gt;Node19</title>
<g id="a_edge23_Node000014_Node000019"><a xlink:title=" ">
<path fill="none" stroke="#63b8ff" d="M565.66,-223.59C536.95,-214.31 493.03,-200.11 462.5,-190.23"/>
<polygon fill="#63b8ff" stroke="#63b8ff" points="463.94,-187.02 453.35,-187.28 461.78,-193.68 463.94,-187.02"/>
</a>
</g>
</g>
<!-- Node17 -->
<g id="Node000017" class="node">
<title>Node17</title>
<g id="a_Node000017"><a xlink:href="_item_8h.html" target="_top" xlink:title=" ">
<polygon fill="white" stroke="#666666" points="549,-132 444.5,-132 444.5,-112 549,-112 549,-132"/>
<text text-anchor="middle" x="496.75" y="-118.5" font-family="Helvetica,sans-Serif" font-size="10.00">Cpl/Container/Item.h</text>
</a>
</g>
</g>
<!-- Node16&#45;&gt;Node17 -->
<g id="edge21_Node000016_Node000017" class="edge">
<title>Node16&#45;&gt;Node17</title>
<g id="a_edge21_Node000016_Node000017"><a xlink:title=" ">
<path fill="none" stroke="#63b8ff" d="M522.35,-167.59C518.31,-160.55 512.63,-150.67 507.66,-142"/>
<polygon fill="#63b8ff" stroke="#63b8ff" points="510.86,-140.54 502.84,-133.61 504.78,-144.03 510.86,-140.54"/>
</a>
</g>
</g>
<!-- Node20&#45;&gt;Node6 -->
<g id="edge25_Node000020_Node000006" class="edge">
<title>Node20&#45;&gt;Node6</title>
<g id="a_edge25_Node000020_Node000006"><a xlink:title=" ">
<path fill="none" stroke="#63b8ff" d="M189.77,-223.59C199.76,-215.77 214.21,-204.46 226.06,-195.19"/>
<polygon fill="#63b8ff" stroke="#63b8ff" points="227.96,-198.15 233.68,-189.23 223.64,-192.64 227.96,-198.15"/>
</a>
</g>
</g>
<!-- Node20&#45;&gt;Node12 -->
<g id="edge29_Node000020_Node000012" class="edge">
<title>Node20&#45;&gt;Node12</title>
<g id="a_edge29_Node000020_Node000012"><a xlink:title=" ">
<path fill="none" stroke="#63b8ff" d="M145.86,-223.6C128.65,-216.72 108.9,-205.47 98.75,-188 89.91,-172.78 99.72,-154.25 110.09,-140.87"/>
<polygon fill="#63b8ff" stroke="#63b8ff" points="112.7,-143.2 116.5,-133.31 107.36,-138.68 112.7,-143.2"/>
</a>
</g>
</g>
<!-- Node21 -->
<g id="Node000021" class="node">
<title>Node21</title>
<g id="a_Node000021"><a xlink:href="_close_8h.html" target="_top" xlink:title=" ">
<polygon fill="white" stroke="#666666" points="386.12,-188 309.38,-188 309.38,-168 386.12,-168 386.12,-188"/>
<text text-anchor="middle" x="347.75" y="-174.5" font-family="Helvetica,sans-Serif" font-size="10.00">Cpl/Io/Close.h</text>
</a>
</g>
</g>
<!-- Node20&#45;&gt;Node21 -->
<g id="edge26_Node000020_Node000021" class="edge">
<title>Node20&#45;&gt;Node21</title>
<g id="a_edge26_Node000020_Node000021"><a xlink:title=" ">
<path fill="none" stroke="#63b8ff" d="M207.36,-223.59C234.98,-214.82 276.42,-201.66 307.13,-191.9"/>
<polygon fill="#63b8ff" stroke="#63b8ff" points="307.99,-195.3 316.46,-188.94 305.87,-188.63 307.99,-195.3"/>
</a>
</g>
</g>
<!-- Node22 -->
<g id="Node000022" class="node">
<title>Node22</title>
<g id="a_Node000022"><a xlink:href="_is_eos_8h.html" target="_top" xlink:title=" ">
<polygon fill="white" stroke="#666666" points="184.12,-188 107.38,-188 107.38,-168 184.12,-168 184.12,-188"/>
<text text-anchor="middle" x="145.75" y="-174.5" font-family="Helvetica,sans-Serif" font-size="10.00">Cpl/Io/IsEos.h</text>
</a>
</g>
</g>
<!-- Node20&#45;&gt;Node22 -->
<g id="edge28_Node000020_Node000022" class="edge">
<title>Node20&#45;&gt;Node22</title>
<g id="a_edge28_Node000020_Node000022"><a xlink:title=" ">
<path fill="none" stroke="#63b8ff" d="M172.18,-223.59C168,-216.55 162.15,-206.67 157.01,-198"/>
<polygon fill="#63b8ff" stroke="#63b8ff" points="160.14,-196.42 152.03,-189.6 154.12,-199.99 160.14,-196.42"/>
</a>
</g>
</g>
<!-- Node21&#45;&gt;Node17 -->
<g id="edge27_Node000021_Node000017" class="edge">
<title>Node21&#45;&gt;Node17</title>
<g id="a_edge27_Node000021_Node000017"><a xlink:title=" ">
<path fill="none" stroke="#63b8ff" d="M373.7,-167.59C397.59,-158.94 433.28,-146 460.08,-136.29"/>
<polygon fill="#63b8ff" stroke="#63b8ff" points="460.96,-139.69 469.17,-133 458.58,-133.11 460.96,-139.69"/>
</a>
</g>
</g>
</g>
</svg>
