<?xml version="1.0" encoding="UTF-8" standalone="no"?>
<!DOCTYPE svg PUBLIC "-//W3C//DTD SVG 1.1//EN"
 "http://www.w3.org/Graphics/SVG/1.1/DTD/svg11.dtd">
<!-- Generated by graphviz version 10.0.1 (20240210.2158)
 -->
<!-- Title: Cpl/Itc/PeriodicScheduler.h Pages: 1 -->
<svg width="1090pt" height="308pt"
 viewBox="0.00 0.00 1090.38 308.00" xmlns="http://www.w3.org/2000/svg" xmlns:xlink="http://www.w3.org/1999/xlink">
<g id="graph0" class="graph" transform="scale(1 1) rotate(0) translate(4 304)">
<title>Cpl/Itc/PeriodicScheduler.h</title>
<!-- Node1 -->
<g id="Node000001" class="node">
<title>Node1</title>
<g id="a_Node000001"><a xlink:title=" ">
<polygon fill="#999999" stroke="#666666" points="756,-300 622.25,-300 622.25,-280 756,-280 756,-300"/>
<text text-anchor="middle" x="689.12" y="-286.5" font-family="Helvetica,sans-Serif" font-size="10.00">Cpl/Itc/PeriodicScheduler.h</text>
</a>
</g>
</g>
<!-- Node2 -->
<g id="Node000002" class="node">
<title>Node2</title>
<g id="a_Node000002"><a xlink:href="_itc_2_mailbox_server_8h.html" target="_top" xlink:title=" ">
<polygon fill="white" stroke="#666666" points="670,-244 554.25,-244 554.25,-224 670,-224 670,-244"/>
<text text-anchor="middle" x="612.12" y="-230.5" font-family="Helvetica,sans-Serif" font-size="10.00">Cpl/Itc/MailboxServer.h</text>
</a>
</g>
</g>
<!-- Node1&#45;&gt;Node2 -->
<g id="edge1_Node000001_Node000002" class="edge">
<title>Node1&#45;&gt;Node2</title>
<g id="a_edge1_Node000001_Node000002"><a xlink:title=" ">
<path fill="none" stroke="#63b8ff" d="M675.71,-279.59C664.52,-271.74 648.31,-260.38 635.07,-251.09"/>
<polygon fill="#63b8ff" stroke="#63b8ff" points="637.08,-248.22 626.88,-245.35 633.06,-253.96 637.08,-248.22"/>
</a>
</g>
</g>
<!-- Node20 -->
<g id="Node000020" class="node">
<title>Node20</title>
<g id="a_Node000020"><a xlink:href="_system_2_periodic_scheduler_8h.html" target="_top" xlink:title=" ">
<polygon fill="white" stroke="#666666" points="1005.62,-244 848.62,-244 848.62,-224 1005.62,-224 1005.62,-244"/>
<text text-anchor="middle" x="927.12" y="-230.5" font-family="Helvetica,sans-Serif" font-size="10.00">Cpl/System/PeriodicScheduler.h</text>
</a>
</g>
</g>
<!-- Node1&#45;&gt;Node20 -->
<g id="edge25_Node000001_Node000020" class="edge">
<title>Node1&#45;&gt;Node20</title>
<g id="a_edge25_Node000001_Node000020"><a xlink:title=" ">
<path fill="none" stroke="#63b8ff" d="M730.85,-279.53C770.75,-270.48 831.06,-256.8 874.29,-246.99"/>
<polygon fill="#63b8ff" stroke="#63b8ff" points="874.99,-250.42 883.97,-244.79 873.44,-243.59 874.99,-250.42"/>
</a>
</g>
</g>
<!-- Node3 -->
<g id="Node000003" class="node">
<title>Node3</title>
<g id="a_Node000003"><a xlink:href="_system_2_event_loop_8h.html" target="_top" xlink:title=" ">
<polygon fill="white" stroke="#666666" points="673.75,-188 550.5,-188 550.5,-168 673.75,-168 673.75,-188"/>
<text text-anchor="middle" x="612.12" y="-174.5" font-family="Helvetica,sans-Serif" font-size="10.00">Cpl/System/EventLoop.h</text>
</a>
</g>
</g>
<!-- Node2&#45;&gt;Node3 -->
<g id="edge2_Node000002_Node000003" class="edge">
<title>Node2&#45;&gt;Node3</title>
<g id="a_edge2_Node000002_Node000003"><a xlink:title=" ">
<path fill="none" stroke="#63b8ff" d="M612.12,-223.59C612.12,-217.01 612.12,-207.96 612.12,-199.73"/>
<polygon fill="#63b8ff" stroke="#63b8ff" points="615.63,-199.81 612.13,-189.81 608.63,-199.81 615.63,-199.81"/>
</a>
</g>
</g>
<!-- Node16 -->
<g id="Node000016" class="node">
<title>Node16</title>
<g id="a_Node000016"><a xlink:href="_mailbox_8h.html" target="_top" xlink:title=" ">
<polygon fill="white" stroke="#666666" points="262.5,-188 173.75,-188 173.75,-168 262.5,-168 262.5,-188"/>
<text text-anchor="middle" x="218.12" y="-174.5" font-family="Helvetica,sans-Serif" font-size="10.00">Cpl/Itc/Mailbox.h</text>
</a>
</g>
</g>
<!-- Node2&#45;&gt;Node16 -->
<g id="edge18_Node000002_Node000016" class="edge">
<title>Node2&#45;&gt;Node16</title>
<g id="a_edge18_Node000002_Node000016"><a xlink:title=" ">
<path fill="none" stroke="#63b8ff" d="M553.99,-225.03C478.55,-214.69 347.84,-196.78 273.69,-186.62"/>
<polygon fill="#63b8ff" stroke="#63b8ff" points="274.61,-183.21 264.23,-185.32 273.66,-190.14 274.61,-183.21"/>
</a>
</g>
</g>
<!-- Node4 -->
<g id="Node000004" class="node">
<title>Node4</title>
<g id="a_Node000004"><a xlink:href="_runnable_8h.html" target="_top" xlink:title=" ">
<polygon fill="white" stroke="#666666" points="745.5,-132 626.75,-132 626.75,-112 745.5,-112 745.5,-132"/>
<text text-anchor="middle" x="686.12" y="-118.5" font-family="Helvetica,sans-Serif" font-size="10.00">Cpl/System/Runnable.h</text>
</a>
</g>
</g>
<!-- Node3&#45;&gt;Node4 -->
<g id="edge3_Node000003_Node000004" class="edge">
<title>Node3&#45;&gt;Node4</title>
<g id="a_edge3_Node000003_Node000004"><a xlink:title=" ">
<path fill="none" stroke="#63b8ff" d="M625.01,-167.59C635.84,-159.7 651.54,-148.24 664.31,-138.92"/>
<polygon fill="#63b8ff" stroke="#63b8ff" points="666.15,-141.91 672.16,-133.19 662.02,-136.26 666.15,-141.91"/>
</a>
</g>
</g>
<!-- Node5 -->
<g id="Node000005" class="node">
<title>Node5</title>
<g id="a_Node000005"><a xlink:href="_semaphore_8h.html" target="_top" xlink:title=" ">
<polygon fill="white" stroke="#666666" points="451,-132 323.25,-132 323.25,-112 451,-112 451,-132"/>
<text text-anchor="middle" x="387.12" y="-118.5" font-family="Helvetica,sans-Serif" font-size="10.00">Cpl/System/Semaphore.h</text>
</a>
</g>
</g>
<!-- Node3&#45;&gt;Node5 -->
<g id="edge4_Node000003_Node000005" class="edge">
<title>Node3&#45;&gt;Node5</title>
<g id="a_edge4_Node000003_Node000005"><a xlink:title=" ">
<path fill="none" stroke="#63b8ff" d="M572.68,-167.53C535.12,-158.52 478.43,-144.91 437.6,-135.11"/>
<polygon fill="#63b8ff" stroke="#63b8ff" points="438.54,-131.74 428,-132.81 436.91,-138.55 438.54,-131.74"/>
</a>
</g>
</g>
<!-- Node7 -->
<g id="Node000007" class="node">
<title>Node7</title>
<g id="a_Node000007"><a xlink:href="_signable_8h.html" target="_top" xlink:title=" ">
<polygon fill="white" stroke="#666666" points="355,-76 239.25,-76 239.25,-56 355,-56 355,-76"/>
<text text-anchor="middle" x="297.12" y="-62.5" font-family="Helvetica,sans-Serif" font-size="10.00">Cpl/System/Signable.h</text>
</a>
</g>
</g>
<!-- Node3&#45;&gt;Node7 -->
<g id="edge8_Node000003_Node000007" class="edge">
<title>Node3&#45;&gt;Node7</title>
<g id="a_edge8_Node000003_Node000007"><a xlink:title=" ">
<path fill="none" stroke="#63b8ff" d="M550.07,-175.46C473.12,-172.26 347.92,-162.4 314.12,-132 301.78,-120.9 297.91,-102.05 296.9,-87.5"/>
<polygon fill="#63b8ff" stroke="#63b8ff" points="300.4,-87.55 296.65,-77.64 293.41,-87.73 300.4,-87.55"/>
</a>
</g>
</g>
<!-- Node9 -->
<g id="Node000009" class="node">
<title>Node9</title>
<g id="a_Node000009"><a xlink:href="_event_flag_8h.html" target="_top" xlink:title=" ">
<polygon fill="white" stroke="#666666" points="944.62,-76 823.62,-76 823.62,-56 944.62,-56 944.62,-76"/>
<text text-anchor="middle" x="884.12" y="-62.5" font-family="Helvetica,sans-Serif" font-size="10.00">Cpl/System/EventFlag.h</text>
</a>
</g>
</g>
<!-- Node3&#45;&gt;Node9 -->
<g id="edge9_Node000003_Node000009" class="edge">
<title>Node3&#45;&gt;Node9</title>
<g id="a_edge9_Node000003_Node000009"><a xlink:title=" ">
<path fill="none" stroke="#63b8ff" d="M648.06,-167.52C677.15,-159.4 718.93,-146.7 754.12,-132 771.74,-124.64 775.11,-120.64 792.12,-112 812.7,-101.55 836.07,-90.13 854.1,-81.41"/>
<polygon fill="#63b8ff" stroke="#63b8ff" points="855.45,-84.64 862.94,-77.15 852.41,-78.34 855.45,-84.64"/>
</a>
</g>
</g>
<!-- Node12 -->
<g id="Node000012" class="node">
<title>Node12</title>
<g id="a_Node000012"><a xlink:href="_shared_event_handler_8h.html" target="_top" xlink:title=" ">
<polygon fill="white" stroke="#666666" points="967.12,-132 801.12,-132 801.12,-112 967.12,-112 967.12,-132"/>
<text text-anchor="middle" x="884.12" y="-118.5" font-family="Helvetica,sans-Serif" font-size="10.00">Cpl/System/SharedEventHandler.h</text>
</a>
</g>
</g>
<!-- Node3&#45;&gt;Node12 -->
<g id="edge12_Node000003_Node000012" class="edge">
<title>Node3&#45;&gt;Node12</title>
<g id="a_edge12_Node000003_Node000012"><a xlink:title=" ">
<path fill="none" stroke="#63b8ff" d="M659.82,-167.53C705.9,-158.38 775.8,-144.5 825.31,-134.68"/>
<polygon fill="#63b8ff" stroke="#63b8ff" points="825.88,-138.13 835.01,-132.75 824.52,-131.27 825.88,-138.13"/>
</a>
</g>
</g>
<!-- Node13 -->
<g id="Node000013" class="node">
<title>Node13</title>
<g id="a_Node000013"><a xlink:href="_timer_manager_8h.html" target="_top" xlink:title=" ">
<polygon fill="white" stroke="#666666" points="609,-132 469.25,-132 469.25,-112 609,-112 609,-132"/>
<text text-anchor="middle" x="539.12" y="-118.5" font-family="Helvetica,sans-Serif" font-size="10.00">Cpl/System/TimerManager.h</text>
</a>
</g>
</g>
<!-- Node3&#45;&gt;Node13 -->
<g id="edge14_Node000003_Node000013" class="edge">
<title>Node3&#45;&gt;Node13</title>
<g id="a_edge14_Node000003_Node000013"><a xlink:title=" ">
<path fill="none" stroke="#63b8ff" d="M599.41,-167.59C588.73,-159.7 573.25,-148.24 560.64,-138.92"/>
<polygon fill="#63b8ff" stroke="#63b8ff" points="563.03,-136.33 552.91,-133.2 558.87,-141.96 563.03,-136.33"/>
</a>
</g>
</g>
<!-- Node6 -->
<g id="Node000006" class="node">
<title>Node6</title>
<g id="a_Node000006"><a xlink:title=" ">
<polygon fill="#e0e0e0" stroke="#999999" points="449.5,-76 372.75,-76 372.75,-56 449.5,-56 449.5,-76"/>
<text text-anchor="middle" x="411.12" y="-62.5" font-family="Helvetica,sans-Serif" font-size="10.00">colony_map.h</text>
</a>
</g>
</g>
<!-- Node5&#45;&gt;Node6 -->
<g id="edge5_Node000005_Node000006" class="edge">
<title>Node5&#45;&gt;Node6</title>
<g id="a_edge5_Node000005_Node000006"><a xlink:title=" ">
<path fill="none" stroke="#63b8ff" d="M391.31,-111.59C394.37,-104.7 398.64,-95.1 402.43,-86.57"/>
<polygon fill="#63b8ff" stroke="#63b8ff" points="405.51,-88.24 406.38,-77.68 399.12,-85.4 405.51,-88.24"/>
</a>
</g>
</g>
<!-- Node5&#45;&gt;Node7 -->
<g id="edge6_Node000005_Node000007" class="edge">
<title>Node5&#45;&gt;Node7</title>
<g id="a_edge6_Node000005_Node000007"><a xlink:title=" ">
<path fill="none" stroke="#63b8ff" d="M371.45,-111.59C357.98,-103.51 338.31,-91.71 322.58,-82.27"/>
<polygon fill="#63b8ff" stroke="#63b8ff" points="324.6,-79.4 314.22,-77.26 321,-85.4 324.6,-79.4"/>
</a>
</g>
</g>
<!-- Node8 -->
<g id="Node000008" class="node">
<title>Node8</title>
<g id="a_Node000008"><a xlink:href="_item_8h.html" target="_top" xlink:title=" ">
<polygon fill="white" stroke="#666666" points="288.38,-20 183.88,-20 183.88,0 288.38,0 288.38,-20"/>
<text text-anchor="middle" x="236.12" y="-6.5" font-family="Helvetica,sans-Serif" font-size="10.00">Cpl/Container/Item.h</text>
</a>
</g>
</g>
<!-- Node7&#45;&gt;Node8 -->
<g id="edge7_Node000007_Node000008" class="edge">
<title>Node7&#45;&gt;Node8</title>
<g id="a_edge7_Node000007_Node000008"><a xlink:title=" ">
<path fill="none" stroke="#63b8ff" d="M286.5,-55.59C277.84,-47.93 265.39,-36.91 255.04,-27.75"/>
<polygon fill="#63b8ff" stroke="#63b8ff" points="257.57,-25.31 247.76,-21.3 252.93,-30.55 257.57,-25.31"/>
</a>
</g>
</g>
<!-- Node10 -->
<g id="Node000010" class="node">
<title>Node10</title>
<g id="a_Node000010"><a xlink:title=" ">
<polygon fill="#e0e0e0" stroke="#999999" points="925.88,-20 842.38,-20 842.38,0 925.88,0 925.88,-20"/>
<text text-anchor="middle" x="884.12" y="-6.5" font-family="Helvetica,sans-Serif" font-size="10.00">colony_config.h</text>
</a>
</g>
</g>
<!-- Node9&#45;&gt;Node10 -->
<g id="edge10_Node000009_Node000010" class="edge">
<title>Node9&#45;&gt;Node10</title>
<g id="a_edge10_Node000009_Node000010"><a xlink:title=" ">
<path fill="none" stroke="#63b8ff" d="M884.12,-55.59C884.12,-49.01 884.12,-39.96 884.12,-31.73"/>
<polygon fill="#63b8ff" stroke="#63b8ff" points="887.63,-31.81 884.13,-21.81 880.63,-31.81 887.63,-31.81"/>
</a>
</g>
</g>
<!-- Node11 -->
<g id="Node000011" class="node">
<title>Node11</title>
<g id="a_Node000011"><a xlink:title=" ">
<polygon fill="#e0e0e0" stroke="#999999" points="1044.25,-20 996,-20 996,0 1044.25,0 1044.25,-20"/>
<text text-anchor="middle" x="1020.12" y="-6.5" font-family="Helvetica,sans-Serif" font-size="10.00">stdint.h</text>
</a>
</g>
</g>
<!-- Node9&#45;&gt;Node11 -->
<g id="edge11_Node000009_Node000011" class="edge">
<title>Node9&#45;&gt;Node11</title>
<g id="a_edge11_Node000009_Node000011"><a xlink:title=" ">
<path fill="none" stroke="#63b8ff" d="M907.81,-55.59C929.33,-47.05 961.33,-34.35 985.67,-24.68"/>
<polygon fill="#63b8ff" stroke="#63b8ff" points="986.84,-27.98 994.84,-21.04 984.26,-21.48 986.84,-27.98"/>
</a>
</g>
</g>
<!-- Node12&#45;&gt;Node9 -->
<g id="edge13_Node000012_Node000009" class="edge">
<title>Node12&#45;&gt;Node9</title>
<g id="a_edge13_Node000012_Node000009"><a xlink:title=" ">
<path fill="none" stroke="#63b8ff" d="M884.12,-111.59C884.12,-105.01 884.12,-95.96 884.12,-87.73"/>
<polygon fill="#63b8ff" stroke="#63b8ff" points="887.63,-87.81 884.13,-77.81 880.63,-87.81 887.63,-87.81"/>
</a>
</g>
</g>
<!-- Node14 -->
<g id="Node000014" class="node">
<title>Node14</title>
<g id="a_Node000014"><a xlink:href="_counter___8h.html" target="_top" xlink:title=" ">
<polygon fill="white" stroke="#666666" points="584.75,-76 467.5,-76 467.5,-56 584.75,-56 584.75,-76"/>
<text text-anchor="middle" x="526.12" y="-62.5" font-family="Helvetica,sans-Serif" font-size="10.00">Cpl/System/Counter_.h</text>
</a>
</g>
</g>
<!-- Node13&#45;&gt;Node14 -->
<g id="edge15_Node000013_Node000014" class="edge">
<title>Node13&#45;&gt;Node14</title>
<g id="a_edge15_Node000013_Node000014"><a xlink:title=" ">
<path fill="none" stroke="#63b8ff" d="M536.86,-111.59C535.26,-104.93 533.05,-95.75 531.05,-87.44"/>
<polygon fill="#63b8ff" stroke="#63b8ff" points="534.46,-86.67 528.72,-77.77 527.66,-88.31 534.46,-86.67"/>
</a>
</g>
</g>
<!-- Node15 -->
<g id="Node000015" class="node">
<title>Node15</title>
<g id="a_Node000015"><a xlink:href="_d_list_8h.html" target="_top" xlink:title=" ">
<polygon fill="white" stroke="#666666" points="711.25,-76 603,-76 603,-56 711.25,-56 711.25,-76"/>
<text text-anchor="middle" x="657.12" y="-62.5" font-family="Helvetica,sans-Serif" font-size="10.00">Cpl/Container/DList.h</text>
</a>
</g>
</g>
<!-- Node13&#45;&gt;Node15 -->
<g id="edge17_Node000013_Node000015" class="edge">
<title>Node13&#45;&gt;Node15</title>
<g id="a_edge17_Node000013_Node000015"><a xlink:title=" ">
<path fill="none" stroke="#63b8ff" d="M559.68,-111.59C578.01,-103.21 605.11,-90.8 626.08,-81.21"/>
<polygon fill="#63b8ff" stroke="#63b8ff" points="627.4,-84.45 635.03,-77.11 624.48,-78.09 627.4,-84.45"/>
</a>
</g>
</g>
<!-- Node14&#45;&gt;Node8 -->
<g id="edge16_Node000014_Node000008" class="edge">
<title>Node14&#45;&gt;Node8</title>
<g id="a_edge16_Node000014_Node000008"><a xlink:title=" ">
<path fill="none" stroke="#63b8ff" d="M475.28,-55.53C425.94,-46.35 350.99,-32.39 298.16,-22.55"/>
<polygon fill="#63b8ff" stroke="#63b8ff" points="298.87,-19.12 288.4,-20.73 297.59,-26.01 298.87,-19.12"/>
</a>
</g>
</g>
<!-- Node16&#45;&gt;Node7 -->
<g id="edge24_Node000016_Node000007" class="edge">
<title>Node16&#45;&gt;Node7</title>
<g id="a_edge24_Node000016_Node000007"><a xlink:title=" ">
<path fill="none" stroke="#63b8ff" d="M224.86,-167.62C237.86,-149.52 266.64,-109.45 283.69,-85.7"/>
<polygon fill="#63b8ff" stroke="#63b8ff" points="286.53,-87.75 289.52,-77.58 280.85,-83.66 286.53,-87.75"/>
</a>
</g>
</g>
<!-- Node17 -->
<g id="Node000017" class="node">
<title>Node17</title>
<g id="a_Node000017"><a xlink:href="_post_api_8h.html" target="_top" xlink:title=" ">
<polygon fill="white" stroke="#666666" points="219.88,-132 130.38,-132 130.38,-112 219.88,-112 219.88,-132"/>
<text text-anchor="middle" x="175.12" y="-118.5" font-family="Helvetica,sans-Serif" font-size="10.00">Cpl/Itc/PostApi.h</text>
</a>
</g>
</g>
<!-- Node16&#45;&gt;Node17 -->
<g id="edge19_Node000016_Node000017" class="edge">
<title>Node16&#45;&gt;Node17</title>
<g id="a_edge19_Node000016_Node000017"><a xlink:title=" ">
<path fill="none" stroke="#63b8ff" d="M210.63,-167.59C204.84,-160.32 196.64,-150.02 189.58,-141.15"/>
<polygon fill="#63b8ff" stroke="#63b8ff" points="192.44,-139.12 183.47,-133.48 186.96,-143.49 192.44,-139.12"/>
</a>
</g>
</g>
<!-- Node19 -->
<g id="Node000019" class="node">
<title>Node19</title>
<g id="a_Node000019"><a xlink:href="_s_list_8h.html" target="_top" xlink:title=" ">
<polygon fill="white" stroke="#666666" points="108.25,-76 0,-76 0,-56 108.25,-56 108.25,-76"/>
<text text-anchor="middle" x="54.12" y="-62.5" font-family="Helvetica,sans-Serif" font-size="10.00">Cpl/Container/SList.h</text>
</a>
</g>
</g>
<!-- Node16&#45;&gt;Node19 -->
<g id="edge22_Node000016_Node000019" class="edge">
<title>Node16&#45;&gt;Node19</title>
<g id="a_edge22_Node000016_Node000019"><a xlink:title=" ">
<path fill="none" stroke="#63b8ff" d="M191.74,-167.56C171.48,-159.66 143.31,-147.25 121.12,-132 101.41,-118.44 82.14,-98.9 69.37,-84.79"/>
<polygon fill="#63b8ff" stroke="#63b8ff" points="72.22,-82.73 62.98,-77.55 66.98,-87.36 72.22,-82.73"/>
</a>
</g>
</g>
<!-- Node18 -->
<g id="Node000018" class="node">
<title>Node18</title>
<g id="a_Node000018"><a xlink:href="_message_8h.html" target="_top" xlink:title=" ">
<polygon fill="white" stroke="#666666" points="221.5,-76 126.75,-76 126.75,-56 221.5,-56 221.5,-76"/>
<text text-anchor="middle" x="174.12" y="-62.5" font-family="Helvetica,sans-Serif" font-size="10.00">Cpl/Itc/Message.h</text>
</a>
</g>
</g>
<!-- Node17&#45;&gt;Node18 -->
<g id="edge20_Node000017_Node000018" class="edge">
<title>Node17&#45;&gt;Node18</title>
<g id="a_edge20_Node000017_Node000018"><a xlink:title=" ">
<path fill="none" stroke="#63b8ff" d="M174.95,-111.59C174.83,-105.01 174.66,-95.96 174.51,-87.73"/>
<polygon fill="#63b8ff" stroke="#63b8ff" points="178.01,-87.75 174.33,-77.81 171.01,-87.87 178.01,-87.75"/>
</a>
</g>
</g>
<!-- Node18&#45;&gt;Node8 -->
<g id="edge21_Node000018_Node000008" class="edge">
<title>Node18&#45;&gt;Node8</title>
<g id="a_edge21_Node000018_Node000008"><a xlink:title=" ">
<path fill="none" stroke="#63b8ff" d="M184.92,-55.59C193.73,-47.93 206.38,-36.91 216.9,-27.75"/>
<polygon fill="#63b8ff" stroke="#63b8ff" points="219.07,-30.5 224.31,-21.29 214.47,-25.22 219.07,-30.5"/>
</a>
</g>
</g>
<!-- Node19&#45;&gt;Node8 -->
<g id="edge23_Node000019_Node000008" class="edge">
<title>Node19&#45;&gt;Node8</title>
<g id="a_edge23_Node000019_Node000008"><a xlink:title=" ">
<path fill="none" stroke="#63b8ff" d="M85.83,-55.59C115.66,-46.74 160.54,-33.43 193.5,-23.65"/>
<polygon fill="#63b8ff" stroke="#63b8ff" points="194.13,-27.11 202.72,-20.91 192.14,-20.4 194.13,-27.11"/>
</a>
</g>
</g>
<!-- Node21 -->
<g id="Node000021" class="node">
<title>Node21</title>
<g id="a_Node000021"><a xlink:href="_elapsed_time_8h.html" target="_top" xlink:title=" ">
<polygon fill="white" stroke="#666666" points="1082.38,-188 947.88,-188 947.88,-168 1082.38,-168 1082.38,-188"/>
<text text-anchor="middle" x="1015.12" y="-174.5" font-family="Helvetica,sans-Serif" font-size="10.00">Cpl/System/ElapsedTime.h</text>
</a>
</g>
</g>
<!-- Node20&#45;&gt;Node21 -->
<g id="edge26_Node000020_Node000021" class="edge">
<title>Node20&#45;&gt;Node21</title>
<g id="a_edge26_Node000020_Node000021"><a xlink:title=" ">
<path fill="none" stroke="#63b8ff" d="M942.45,-223.59C955.62,-215.51 974.86,-203.71 990.23,-194.27"/>
<polygon fill="#63b8ff" stroke="#63b8ff" points="991.69,-197.48 998.39,-189.27 988.03,-191.52 991.69,-197.48"/>
</a>
</g>
</g>
<!-- Node21&#45;&gt;Node11 -->
<g id="edge27_Node000021_Node000011" class="edge">
<title>Node21&#45;&gt;Node11</title>
<g id="a_edge27_Node000021_Node000011"><a xlink:title=" ">
<path fill="none" stroke="#63b8ff" d="M1026.86,-167.72C1036.25,-159.48 1048.71,-146.53 1054.12,-132 1067.29,-96.72 1047.25,-54.02 1032.8,-29.94"/>
<polygon fill="#63b8ff" stroke="#63b8ff" points="1035.8,-28.13 1027.5,-21.55 1029.88,-31.88 1035.8,-28.13"/>
</a>
</g>
</g>
<!-- Node22 -->
<g id="Node000022" class="node">
<title>Node22</title>
<g id="a_Node000022"><a xlink:title=" ">
<polygon fill="#e0e0e0" stroke="#999999" points="1044.88,-132 985.38,-132 985.38,-112 1044.88,-112 1044.88,-132"/>
<text text-anchor="middle" x="1015.12" y="-118.5" font-family="Helvetica,sans-Serif" font-size="10.00">memory.h</text>
</a>
</g>
</g>
<!-- Node21&#45;&gt;Node22 -->
<g id="edge28_Node000021_Node000022" class="edge">
<title>Node21&#45;&gt;Node22</title>
<g id="a_edge28_Node000021_Node000022"><a xlink:title=" ">
<path fill="none" stroke="#63b8ff" d="M1015.12,-167.59C1015.12,-161.01 1015.12,-151.96 1015.12,-143.73"/>
<polygon fill="#63b8ff" stroke="#63b8ff" points="1018.63,-143.81 1015.13,-133.81 1011.63,-143.81 1018.63,-143.81"/>
</a>
</g>
</g>
</g>
</svg>
