<?xml version="1.0" encoding="UTF-8" standalone="no"?>
<!DOCTYPE svg PUBLIC "-//W3C//DTD SVG 1.1//EN"
 "http://www.w3.org/Graphics/SVG/1.1/DTD/svg11.dtd">
<!-- Generated by graphviz version 10.0.1 (20240210.2158)
 -->
<!-- Title: Cpl/Memory/LeanHeap.h Pages: 1 -->
<svg width="241pt" height="196pt"
 viewBox="0.00 0.00 240.62 196.00" xmlns="http://www.w3.org/2000/svg" xmlns:xlink="http://www.w3.org/1999/xlink">
<g id="graph0" class="graph" transform="scale(1 1) rotate(0) translate(4 192)">
<title>Cpl/Memory/LeanHeap.h</title>
<!-- Node1 -->
<g id="Node000001" class="node">
<title>Node1</title>
<g id="a_Node000001"><a xlink:title=" ">
<polygon fill="#999999" stroke="#666666" points="210.88,-188 87.62,-188 87.62,-168 210.88,-168 210.88,-188"/>
<text text-anchor="middle" x="149.25" y="-174.5" font-family="Helvetica,sans-Serif" font-size="10.00">Cpl/Memory/LeanHeap.h</text>
</a>
</g>
</g>
<!-- Node2 -->
<g id="Node000002" class="node">
<title>Node2</title>
<g id="a_Node000002"><a xlink:href="_contiguous_allocator_8h.html" target="_top" xlink:title=" ">
<polygon fill="white" stroke="#666666" points="232.62,-132 65.88,-132 65.88,-112 232.62,-112 232.62,-132"/>
<text text-anchor="middle" x="149.25" y="-118.5" font-family="Helvetica,sans-Serif" font-size="10.00">Cpl/Memory/ContiguousAllocator.h</text>
</a>
</g>
</g>
<!-- Node1&#45;&gt;Node2 -->
<g id="edge1_Node000001_Node000002" class="edge">
<title>Node1&#45;&gt;Node2</title>
<g id="a_edge1_Node000001_Node000002"><a xlink:title=" ">
<path fill="none" stroke="#63b8ff" d="M149.25,-167.59C149.25,-161.01 149.25,-151.96 149.25,-143.73"/>
<polygon fill="#63b8ff" stroke="#63b8ff" points="152.75,-143.81 149.25,-133.81 145.75,-143.81 152.75,-143.81"/>
</a>
</g>
</g>
<!-- Node3 -->
<g id="Node000003" class="node">
<title>Node3</title>
<g id="a_Node000003"><a xlink:href="_allocator_8h.html" target="_top" xlink:title=" ">
<polygon fill="white" stroke="#666666" points="158.25,-76 40.25,-76 40.25,-56 158.25,-56 158.25,-76"/>
<text text-anchor="middle" x="99.25" y="-62.5" font-family="Helvetica,sans-Serif" font-size="10.00">Cpl/Memory/Allocator.h</text>
</a>
</g>
</g>
<!-- Node2&#45;&gt;Node3 -->
<g id="edge2_Node000002_Node000003" class="edge">
<title>Node2&#45;&gt;Node3</title>
<g id="a_edge2_Node000002_Node000003"><a xlink:title=" ">
<path fill="none" stroke="#63b8ff" d="M140.54,-111.59C133.66,-104.16 123.86,-93.58 115.53,-84.58"/>
<polygon fill="#63b8ff" stroke="#63b8ff" points="118.25,-82.37 108.89,-77.41 113.11,-87.12 118.25,-82.37"/>
</a>
</g>
</g>
<!-- Node6 -->
<g id="Node000006" class="node">
<title>Node6</title>
<g id="a_Node000006"><a xlink:title=" ">
<polygon fill="#e0e0e0" stroke="#999999" points="224.38,-76 176.12,-76 176.12,-56 224.38,-56 224.38,-76"/>
<text text-anchor="middle" x="200.25" y="-62.5" font-family="Helvetica,sans-Serif" font-size="10.00">stdint.h</text>
</a>
</g>
</g>
<!-- Node2&#45;&gt;Node6 -->
<g id="edge5_Node000002_Node000006" class="edge">
<title>Node2&#45;&gt;Node6</title>
<g id="a_edge5_Node000002_Node000006"><a xlink:title=" ">
<path fill="none" stroke="#63b8ff" d="M158.13,-111.59C165.15,-104.16 175.15,-93.58 183.64,-84.58"/>
<polygon fill="#63b8ff" stroke="#63b8ff" points="186.11,-87.07 190.43,-77.4 181.02,-82.27 186.11,-87.07"/>
</a>
</g>
</g>
<!-- Node4 -->
<g id="Node000004" class="node">
<title>Node4</title>
<g id="a_Node000004"><a xlink:href="_item_8h.html" target="_top" xlink:title=" ">
<polygon fill="white" stroke="#666666" points="104.5,-20 0,-20 0,0 104.5,0 104.5,-20"/>
<text text-anchor="middle" x="52.25" y="-6.5" font-family="Helvetica,sans-Serif" font-size="10.00">Cpl/Container/Item.h</text>
</a>
</g>
</g>
<!-- Node3&#45;&gt;Node4 -->
<g id="edge3_Node000003_Node000004" class="edge">
<title>Node3&#45;&gt;Node4</title>
<g id="a_edge3_Node000003_Node000004"><a xlink:title=" ">
<path fill="none" stroke="#63b8ff" d="M91.06,-55.59C84.66,-48.24 75.57,-37.8 67.8,-28.87"/>
<polygon fill="#63b8ff" stroke="#63b8ff" points="70.54,-26.69 61.34,-21.44 65.26,-31.28 70.54,-26.69"/>
</a>
</g>
</g>
<!-- Node5 -->
<g id="Node000005" class="node">
<title>Node5</title>
<g id="a_Node000005"><a xlink:title=" ">
<polygon fill="#e0e0e0" stroke="#999999" points="170,-20 122.5,-20 122.5,0 170,0 170,-20"/>
<text text-anchor="middle" x="146.25" y="-6.5" font-family="Helvetica,sans-Serif" font-size="10.00">stdlib.h</text>
</a>
</g>
</g>
<!-- Node3&#45;&gt;Node5 -->
<g id="edge4_Node000003_Node000005" class="edge">
<title>Node3&#45;&gt;Node5</title>
<g id="a_edge4_Node000003_Node000005"><a xlink:title=" ">
<path fill="none" stroke="#63b8ff" d="M107.44,-55.59C113.84,-48.24 122.93,-37.8 130.7,-28.87"/>
<polygon fill="#63b8ff" stroke="#63b8ff" points="133.24,-31.28 137.16,-21.44 127.96,-26.69 133.24,-31.28"/>
</a>
</g>
</g>
</g>
</svg>
