<?xml version="1.0" encoding="UTF-8" standalone="no"?>
<!DOCTYPE svg PUBLIC "-//W3C//DTD SVG 1.1//EN"
 "http://www.w3.org/Graphics/SVG/1.1/DTD/svg11.dtd">
<!-- Generated by graphviz version 2.38.0 (20140413.2041)
 -->
<!-- Title: Cpl/Io/LineWriterApi.h Pages: 1 -->
<svg width="467pt" height="252pt"
 viewBox="0.00 0.00 466.50 252.00" xmlns="http://www.w3.org/2000/svg" xmlns:xlink="http://www.w3.org/1999/xlink">
<g id="graph0" class="graph" transform="scale(1 1) rotate(0) translate(4 248)">
<title>Cpl/Io/LineWriterApi.h</title>
<polygon fill="white" stroke="none" points="-4,4 -4,-248 462.5,-248 462.5,4 -4,4"/>
<!-- Node1 -->
<g id="node1" class="node"><title>Node1</title>
<g id="a_node1"><a xlink:title=" ">
<polygon fill="#bfbfbf" stroke="black" points="269,-224.5 269,-243.5 380,-243.5 380,-224.5 269,-224.5"/>
<text text-anchor="middle" x="324.5" y="-231.5" font-family="Helvetica,sans-Serif" font-size="10.00">Cpl/Io/LineWriterApi.h</text>
</a>
</g>
</g>
<!-- Node2 -->
<g id="node2" class="node"><title>Node2</title>
<g id="a_node2"><a xlink:href="_text_2_string_8h.html" target="_top" xlink:title=" ">
<polygon fill="white" stroke="black" points="206.5,-168.5 206.5,-187.5 296.5,-187.5 296.5,-168.5 206.5,-168.5"/>
<text text-anchor="middle" x="251.5" y="-175.5" font-family="Helvetica,sans-Serif" font-size="10.00">Cpl/Text/String.h</text>
</a>
</g>
</g>
<!-- Node1&#45;&gt;Node2 -->
<g id="edge1" class="edge"><title>Node1&#45;&gt;Node2</title>
<path fill="none" stroke="midnightblue" d="M312.771,-224.324C301.663,-216.107 284.758,-203.602 271.517,-193.807"/>
<polygon fill="midnightblue" stroke="midnightblue" points="273.563,-190.967 263.442,-187.834 269.4,-196.595 273.563,-190.967"/>
</g>
<!-- Node10 -->
<g id="node10" class="node"><title>Node10</title>
<g id="a_node10"><a xlink:title=" ">
<polygon fill="white" stroke="#bfbfbf" points="298.5,-112.5 298.5,-131.5 350.5,-131.5 350.5,-112.5 298.5,-112.5"/>
<text text-anchor="middle" x="324.5" y="-119.5" font-family="Helvetica,sans-Serif" font-size="10.00">stdarg.h</text>
</a>
</g>
</g>
<!-- Node1&#45;&gt;Node10 -->
<g id="edge13" class="edge"><title>Node1&#45;&gt;Node10</title>
<path fill="none" stroke="midnightblue" d="M324.5,-224.368C324.5,-206.617 324.5,-165.666 324.5,-141.597"/>
<polygon fill="midnightblue" stroke="midnightblue" points="328,-141.591 324.5,-131.591 321,-141.591 328,-141.591"/>
</g>
<!-- Node12 -->
<g id="node12" class="node"><title>Node12</title>
<g id="a_node12"><a xlink:href="_item_8h.html" target="_top" xlink:title=" ">
<polygon fill="white" stroke="black" points="352.5,-168.5 352.5,-187.5 458.5,-187.5 458.5,-168.5 352.5,-168.5"/>
<text text-anchor="middle" x="405.5" y="-175.5" font-family="Helvetica,sans-Serif" font-size="10.00">Cpl/Container/Item.h</text>
</a>
</g>
</g>
<!-- Node1&#45;&gt;Node12 -->
<g id="edge12" class="edge"><title>Node1&#45;&gt;Node12</title>
<path fill="none" stroke="midnightblue" d="M337.514,-224.324C350.032,-215.979 369.182,-203.212 383.971,-193.352"/>
<polygon fill="midnightblue" stroke="midnightblue" points="386.139,-196.114 392.518,-187.655 382.256,-190.289 386.139,-196.114"/>
</g>
<!-- Node3 -->
<g id="node3" class="node"><title>Node3</title>
<g id="a_node3"><a xlink:title=" ">
<polygon fill="white" stroke="#bfbfbf" points="0,-56.5 0,-75.5 77,-75.5 77,-56.5 0,-56.5"/>
<text text-anchor="middle" x="38.5" y="-63.5" font-family="Helvetica,sans-Serif" font-size="10.00">colony_map.h</text>
</a>
</g>
</g>
<!-- Node2&#45;&gt;Node3 -->
<g id="edge2" class="edge"><title>Node2&#45;&gt;Node3</title>
<path fill="none" stroke="midnightblue" d="M206.346,-170.943C173.59,-164.958 129.287,-153.46 95.5,-132 76.169,-119.722 59.633,-98.99 49.4272,-84.2426"/>
<polygon fill="midnightblue" stroke="midnightblue" points="52.1143,-81.962 43.6688,-75.5648 46.2816,-85.8324 52.1143,-81.962"/>
</g>
<!-- Node4 -->
<g id="node4" class="node"><title>Node4</title>
<g id="a_node4"><a xlink:href="_key_8h.html" target="_top" xlink:title=" ">
<polygon fill="white" stroke="black" points="104.5,-112.5 104.5,-131.5 208.5,-131.5 208.5,-112.5 104.5,-112.5"/>
<text text-anchor="middle" x="156.5" y="-119.5" font-family="Helvetica,sans-Serif" font-size="10.00">Cpl/Container/Key.h</text>
</a>
</g>
</g>
<!-- Node2&#45;&gt;Node4 -->
<g id="edge3" class="edge"><title>Node2&#45;&gt;Node4</title>
<path fill="none" stroke="midnightblue" d="M236.237,-168.324C221.279,-159.822 198.245,-146.729 180.773,-136.797"/>
<polygon fill="midnightblue" stroke="midnightblue" points="182.149,-133.553 171.726,-131.655 178.69,-139.639 182.149,-133.553"/>
</g>
<!-- Node2&#45;&gt;Node10 -->
<g id="edge10" class="edge"><title>Node2&#45;&gt;Node10</title>
<path fill="none" stroke="midnightblue" d="M263.229,-168.324C274.337,-160.107 291.242,-147.602 304.483,-137.807"/>
<polygon fill="midnightblue" stroke="midnightblue" points="306.6,-140.595 312.558,-131.834 302.437,-134.967 306.6,-140.595"/>
</g>
<!-- Node11 -->
<g id="node11" class="node"><title>Node11</title>
<g id="a_node11"><a xlink:title=" ">
<polygon fill="white" stroke="#bfbfbf" points="226.5,-112.5 226.5,-131.5 280.5,-131.5 280.5,-112.5 226.5,-112.5"/>
<text text-anchor="middle" x="253.5" y="-119.5" font-family="Helvetica,sans-Serif" font-size="10.00">iostream</text>
</a>
</g>
</g>
<!-- Node2&#45;&gt;Node11 -->
<g id="edge11" class="edge"><title>Node2&#45;&gt;Node11</title>
<path fill="none" stroke="midnightblue" d="M251.83,-168.083C252.092,-161.006 252.468,-150.861 252.797,-141.986"/>
<polygon fill="midnightblue" stroke="midnightblue" points="256.303,-141.874 253.176,-131.751 249.308,-141.615 256.303,-141.874"/>
</g>
<!-- Node4&#45;&gt;Node3 -->
<g id="edge9" class="edge"><title>Node4&#45;&gt;Node3</title>
<path fill="none" stroke="midnightblue" d="M137.803,-112.444C118.556,-103.636 88.3475,-89.8116 66.2999,-79.722"/>
<polygon fill="midnightblue" stroke="midnightblue" points="67.6595,-76.4951 57.11,-75.5164 64.7466,-82.8603 67.6595,-76.4951"/>
</g>
<!-- Node5 -->
<g id="node5" class="node"><title>Node5</title>
<g id="a_node5"><a xlink:href="_fatal_error_8h.html" target="_top" xlink:title=" ">
<polygon fill="white" stroke="black" points="95.5,-56.5 95.5,-75.5 217.5,-75.5 217.5,-56.5 95.5,-56.5"/>
<text text-anchor="middle" x="156.5" y="-63.5" font-family="Helvetica,sans-Serif" font-size="10.00">Cpl/System/FatalError.h</text>
</a>
</g>
</g>
<!-- Node4&#45;&gt;Node5 -->
<g id="edge4" class="edge"><title>Node4&#45;&gt;Node5</title>
<path fill="none" stroke="midnightblue" d="M156.5,-112.083C156.5,-105.006 156.5,-94.8611 156.5,-85.9865"/>
<polygon fill="midnightblue" stroke="midnightblue" points="160,-85.751 156.5,-75.7511 153,-85.7511 160,-85.751"/>
</g>
<!-- Node8 -->
<g id="node8" class="node"><title>Node8</title>
<g id="a_node8"><a xlink:title=" ">
<polygon fill="white" stroke="#bfbfbf" points="236,-56.5 236,-75.5 285,-75.5 285,-56.5 236,-56.5"/>
<text text-anchor="middle" x="260.5" y="-63.5" font-family="Helvetica,sans-Serif" font-size="10.00">stdint.h</text>
</a>
</g>
</g>
<!-- Node4&#45;&gt;Node8 -->
<g id="edge7" class="edge"><title>Node4&#45;&gt;Node8</title>
<path fill="none" stroke="midnightblue" d="M173.209,-112.324C189.812,-103.703 215.502,-90.3643 234.72,-80.3855"/>
<polygon fill="midnightblue" stroke="midnightblue" points="236.57,-83.3689 243.832,-75.6545 233.344,-77.1565 236.57,-83.3689"/>
</g>
<!-- Node9 -->
<g id="node9" class="node"><title>Node9</title>
<g id="a_node9"><a xlink:title=" ">
<polygon fill="white" stroke="#bfbfbf" points="303,-56.5 303,-75.5 352,-75.5 352,-56.5 303,-56.5"/>
<text text-anchor="middle" x="327.5" y="-63.5" font-family="Helvetica,sans-Serif" font-size="10.00">string.h</text>
</a>
</g>
</g>
<!-- Node4&#45;&gt;Node9 -->
<g id="edge8" class="edge"><title>Node4&#45;&gt;Node9</title>
<path fill="none" stroke="midnightblue" d="M183.595,-112.444C213.168,-103.105 260.596,-88.1276 292.854,-77.9409"/>
<polygon fill="midnightblue" stroke="midnightblue" points="294.27,-81.164 302.752,-74.8151 292.162,-74.4889 294.27,-81.164"/>
</g>
<!-- Node6 -->
<g id="node6" class="node"><title>Node6</title>
<g id="a_node6"><a xlink:title=" ">
<polygon fill="white" stroke="#bfbfbf" points="86.5,-0.5 86.5,-19.5 138.5,-19.5 138.5,-0.5 86.5,-0.5"/>
<text text-anchor="middle" x="112.5" y="-7.5" font-family="Helvetica,sans-Serif" font-size="10.00">stddef.h</text>
</a>
</g>
</g>
<!-- Node5&#45;&gt;Node6 -->
<g id="edge5" class="edge"><title>Node5&#45;&gt;Node6</title>
<path fill="none" stroke="midnightblue" d="M149.234,-56.083C142.955,-48.3768 133.712,-37.0333 126.069,-27.6531"/>
<polygon fill="midnightblue" stroke="midnightblue" points="128.661,-25.2926 119.631,-19.7511 123.234,-29.7143 128.661,-25.2926"/>
</g>
<!-- Node7 -->
<g id="node7" class="node"><title>Node7</title>
<g id="a_node7"><a xlink:title=" ">
<polygon fill="white" stroke="#bfbfbf" points="157,-0.5 157,-19.5 242,-19.5 242,-0.5 157,-0.5"/>
<text text-anchor="middle" x="199.5" y="-7.5" font-family="Helvetica,sans-Serif" font-size="10.00">colony_config.h</text>
</a>
</g>
</g>
<!-- Node5&#45;&gt;Node7 -->
<g id="edge6" class="edge"><title>Node5&#45;&gt;Node7</title>
<path fill="none" stroke="midnightblue" d="M163.601,-56.083C169.737,-48.3768 178.77,-37.0333 186.239,-27.6531"/>
<polygon fill="midnightblue" stroke="midnightblue" points="189.04,-29.7542 192.532,-19.7511 183.564,-25.3936 189.04,-29.7542"/>
</g>
</g>
</svg>
