<?xml version="1.0" encoding="UTF-8" standalone="no"?>
<!DOCTYPE svg PUBLIC "-//W3C//DTD SVG 1.1//EN"
 "http://www.w3.org/Graphics/SVG/1.1/DTD/svg11.dtd">
<!-- Generated by graphviz version 2.38.0 (20140413.2041)
 -->
<!-- Title: Cpl/Io/LineWriter.h Pages: 1 -->
<svg width="524pt" height="308pt"
 viewBox="0.00 0.00 524.00 308.00" xmlns="http://www.w3.org/2000/svg" xmlns:xlink="http://www.w3.org/1999/xlink">
<g id="graph0" class="graph" transform="scale(1 1) rotate(0) translate(4 304)">
<title>Cpl/Io/LineWriter.h</title>
<polygon fill="white" stroke="none" points="-4,4 -4,-304 520,-304 520,4 -4,4"/>
<!-- Node1 -->
<g id="node1" class="node"><title>Node1</title>
<g id="a_node1"><a xlink:title=" ">
<polygon fill="#bfbfbf" stroke="black" points="122.5,-280.5 122.5,-299.5 219.5,-299.5 219.5,-280.5 122.5,-280.5"/>
<text text-anchor="middle" x="171" y="-287.5" font-family="Helvetica,sans-Serif" font-size="10.00">Cpl/Io/LineWriter.h</text>
</a>
</g>
</g>
<!-- Node2 -->
<g id="node2" class="node"><title>Node2</title>
<g id="a_node2"><a xlink:href="_line_writer_api_8h.html" target="_top" xlink:title=" ">
<polygon fill="white" stroke="black" points="244.5,-224.5 244.5,-243.5 355.5,-243.5 355.5,-224.5 244.5,-224.5"/>
<text text-anchor="middle" x="300" y="-231.5" font-family="Helvetica,sans-Serif" font-size="10.00">Cpl/Io/LineWriterApi.h</text>
</a>
</g>
</g>
<!-- Node1&#45;&gt;Node2 -->
<g id="edge1" class="edge"><title>Node1&#45;&gt;Node2</title>
<path fill="none" stroke="midnightblue" d="M191.44,-280.444C212.67,-271.557 246.099,-257.563 270.255,-247.451"/>
<polygon fill="midnightblue" stroke="midnightblue" points="271.782,-250.606 279.655,-243.516 269.079,-244.149 271.782,-250.606"/>
</g>
<!-- Node13 -->
<g id="node13" class="node"><title>Node13</title>
<g id="a_node13"><a xlink:href="_output_8h.html" target="_top" xlink:title=" ">
<polygon fill="white" stroke="black" points="129.5,-224.5 129.5,-243.5 212.5,-243.5 212.5,-224.5 129.5,-224.5"/>
<text text-anchor="middle" x="171" y="-231.5" font-family="Helvetica,sans-Serif" font-size="10.00">Cpl/Io/Output.h</text>
</a>
</g>
</g>
<!-- Node1&#45;&gt;Node13 -->
<g id="edge15" class="edge"><title>Node1&#45;&gt;Node13</title>
<path fill="none" stroke="midnightblue" d="M171,-280.083C171,-273.006 171,-262.861 171,-253.986"/>
<polygon fill="midnightblue" stroke="midnightblue" points="174.5,-253.751 171,-243.751 167.5,-253.751 174.5,-253.751"/>
</g>
<!-- Node16 -->
<g id="node16" class="node"><title>Node16</title>
<g id="a_node16"><a xlink:href="_new_line_8h.html" target="_top" xlink:title=" ">
<polygon fill="white" stroke="black" points="0,-112.5 0,-131.5 90,-131.5 90,-112.5 0,-112.5"/>
<text text-anchor="middle" x="45" y="-119.5" font-family="Helvetica,sans-Serif" font-size="10.00">Cpl/Io/NewLine.h</text>
</a>
</g>
</g>
<!-- Node1&#45;&gt;Node16 -->
<g id="edge21" class="edge"><title>Node1&#45;&gt;Node16</title>
<path fill="none" stroke="midnightblue" d="M144.688,-280.427C108.725,-267.117 45.6489,-237.703 19,-188 10.5199,-172.184 20.4718,-152.989 30.4143,-139.574"/>
<polygon fill="midnightblue" stroke="midnightblue" points="33.2165,-141.674 36.7528,-131.687 27.7602,-137.289 33.2165,-141.674"/>
</g>
<!-- Node3 -->
<g id="node3" class="node"><title>Node3</title>
<g id="a_node3"><a xlink:href="_string_8h.html" target="_top" xlink:title=" ">
<polygon fill="white" stroke="black" points="336,-168.5 336,-187.5 426,-187.5 426,-168.5 336,-168.5"/>
<text text-anchor="middle" x="381" y="-175.5" font-family="Helvetica,sans-Serif" font-size="10.00">Cpl/Text/String.h</text>
</a>
</g>
</g>
<!-- Node2&#45;&gt;Node3 -->
<g id="edge2" class="edge"><title>Node2&#45;&gt;Node3</title>
<path fill="none" stroke="midnightblue" d="M313.014,-224.324C325.532,-215.979 344.682,-203.212 359.471,-193.352"/>
<polygon fill="midnightblue" stroke="midnightblue" points="361.639,-196.114 368.018,-187.655 357.756,-190.289 361.639,-196.114"/>
</g>
<!-- Node10 -->
<g id="node10" class="node"><title>Node10</title>
<g id="a_node10"><a xlink:title=" ">
<polygon fill="white" stroke="#bfbfbf" points="232,-112.5 232,-131.5 284,-131.5 284,-112.5 232,-112.5"/>
<text text-anchor="middle" x="258" y="-119.5" font-family="Helvetica,sans-Serif" font-size="10.00">stdarg.h</text>
</a>
</g>
</g>
<!-- Node2&#45;&gt;Node10 -->
<g id="edge14" class="edge"><title>Node2&#45;&gt;Node10</title>
<path fill="none" stroke="midnightblue" d="M298.672,-224.346C296.548,-211.657 291.81,-187.406 284,-168 280.126,-158.374 274.486,-148.316 269.448,-140.156"/>
<polygon fill="midnightblue" stroke="midnightblue" points="272.298,-138.116 263.953,-131.588 266.406,-141.895 272.298,-138.116"/>
</g>
<!-- Node12 -->
<g id="node12" class="node"><title>Node12</title>
<g id="a_node12"><a xlink:href="_item_8h.html" target="_top" xlink:title=" ">
<polygon fill="white" stroke="black" points="108,-112.5 108,-131.5 214,-131.5 214,-112.5 108,-112.5"/>
<text text-anchor="middle" x="161" y="-119.5" font-family="Helvetica,sans-Serif" font-size="10.00">Cpl/Container/Item.h</text>
</a>
</g>
</g>
<!-- Node2&#45;&gt;Node12 -->
<g id="edge13" class="edge"><title>Node2&#45;&gt;Node12</title>
<path fill="none" stroke="midnightblue" d="M289.093,-224.368C265.443,-205.653 209.209,-161.151 179.743,-137.832"/>
<polygon fill="midnightblue" stroke="midnightblue" points="181.87,-135.052 171.856,-131.591 177.526,-140.542 181.87,-135.052"/>
</g>
<!-- Node4 -->
<g id="node4" class="node"><title>Node4</title>
<g id="a_node4"><a xlink:title=" ">
<polygon fill="white" stroke="#bfbfbf" points="183.5,-56.5 183.5,-75.5 260.5,-75.5 260.5,-56.5 183.5,-56.5"/>
<text text-anchor="middle" x="222" y="-63.5" font-family="Helvetica,sans-Serif" font-size="10.00">colony_map.h</text>
</a>
</g>
</g>
<!-- Node3&#45;&gt;Node4 -->
<g id="edge3" class="edge"><title>Node3&#45;&gt;Node4</title>
<path fill="none" stroke="midnightblue" d="M369.795,-168.323C353.253,-155.606 321.206,-131.32 293,-112 277.099,-101.108 258.707,-89.4779 244.628,-80.7697"/>
<polygon fill="midnightblue" stroke="midnightblue" points="246.419,-77.7626 236.067,-75.5063 242.753,-83.7256 246.419,-77.7626"/>
</g>
<!-- Node5 -->
<g id="node5" class="node"><title>Node5</title>
<g id="a_node5"><a xlink:href="_key_8h.html" target="_top" xlink:title=" ">
<polygon fill="white" stroke="black" points="340,-112.5 340,-131.5 444,-131.5 444,-112.5 340,-112.5"/>
<text text-anchor="middle" x="392" y="-119.5" font-family="Helvetica,sans-Serif" font-size="10.00">Cpl/Container/Key.h</text>
</a>
</g>
</g>
<!-- Node3&#45;&gt;Node5 -->
<g id="edge4" class="edge"><title>Node3&#45;&gt;Node5</title>
<path fill="none" stroke="midnightblue" d="M377.65,-168.083C377.598,-160.849 379.301,-150.409 381.817,-141.397"/>
<polygon fill="midnightblue" stroke="midnightblue" points="385.191,-142.345 385.086,-131.751 378.561,-140.098 385.191,-142.345"/>
</g>
<!-- Node3&#45;&gt;Node10 -->
<g id="edge11" class="edge"><title>Node3&#45;&gt;Node10</title>
<path fill="none" stroke="midnightblue" d="M361.51,-168.444C341.358,-159.596 309.677,-145.687 286.669,-135.586"/>
<polygon fill="midnightblue" stroke="midnightblue" points="287.962,-132.332 277.399,-131.516 285.148,-138.741 287.962,-132.332"/>
</g>
<!-- Node11 -->
<g id="node11" class="node"><title>Node11</title>
<g id="a_node11"><a xlink:title=" ">
<polygon fill="white" stroke="#bfbfbf" points="462,-112.5 462,-131.5 516,-131.5 516,-112.5 462,-112.5"/>
<text text-anchor="middle" x="489" y="-119.5" font-family="Helvetica,sans-Serif" font-size="10.00">iostream</text>
</a>
</g>
</g>
<!-- Node3&#45;&gt;Node11 -->
<g id="edge12" class="edge"><title>Node3&#45;&gt;Node11</title>
<path fill="none" stroke="midnightblue" d="M398.352,-168.324C415.672,-159.664 442.515,-146.242 462.502,-136.249"/>
<polygon fill="midnightblue" stroke="midnightblue" points="464.312,-139.257 471.691,-131.655 461.181,-132.996 464.312,-139.257"/>
</g>
<!-- Node5&#45;&gt;Node3 -->
<g id="edge9" class="edge"><title>Node5&#45;&gt;Node3</title>
<path fill="none" stroke="midnightblue" d="M395.348,-131.751C395.428,-138.936 393.744,-149.362 391.241,-158.396"/>
<polygon fill="midnightblue" stroke="midnightblue" points="387.853,-157.489 387.983,-168.083 394.488,-159.721 387.853,-157.489"/>
</g>
<!-- Node5&#45;&gt;Node4 -->
<g id="edge10" class="edge"><title>Node5&#45;&gt;Node4</title>
<path fill="none" stroke="midnightblue" d="M365.063,-112.444C336.34,-103.32 290.671,-88.8133 258.679,-78.6509"/>
<polygon fill="midnightblue" stroke="midnightblue" points="259.401,-75.2081 248.811,-75.5164 257.282,-81.8797 259.401,-75.2081"/>
</g>
<!-- Node6 -->
<g id="node6" class="node"><title>Node6</title>
<g id="a_node6"><a xlink:href="_fatal_error_8h.html" target="_top" xlink:title=" ">
<polygon fill="white" stroke="black" points="279,-56.5 279,-75.5 401,-75.5 401,-56.5 279,-56.5"/>
<text text-anchor="middle" x="340" y="-63.5" font-family="Helvetica,sans-Serif" font-size="10.00">Cpl/System/FatalError.h</text>
</a>
</g>
</g>
<!-- Node5&#45;&gt;Node6 -->
<g id="edge5" class="edge"><title>Node5&#45;&gt;Node6</title>
<path fill="none" stroke="midnightblue" d="M383.413,-112.083C375.841,-104.22 364.622,-92.5688 355.486,-83.0813"/>
<polygon fill="midnightblue" stroke="midnightblue" points="357.885,-80.5266 348.427,-75.7511 352.842,-85.3821 357.885,-80.5266"/>
</g>
<!-- Node9 -->
<g id="node9" class="node"><title>Node9</title>
<g id="a_node9"><a xlink:title=" ">
<polygon fill="white" stroke="#bfbfbf" points="419.5,-56.5 419.5,-75.5 468.5,-75.5 468.5,-56.5 419.5,-56.5"/>
<text text-anchor="middle" x="444" y="-63.5" font-family="Helvetica,sans-Serif" font-size="10.00">stdint.h</text>
</a>
</g>
</g>
<!-- Node5&#45;&gt;Node9 -->
<g id="edge8" class="edge"><title>Node5&#45;&gt;Node9</title>
<path fill="none" stroke="midnightblue" d="M400.587,-112.083C408.159,-104.22 419.378,-92.5688 428.514,-83.0813"/>
<polygon fill="midnightblue" stroke="midnightblue" points="431.158,-85.3821 435.573,-75.7511 426.115,-80.5266 431.158,-85.3821"/>
</g>
<!-- Node7 -->
<g id="node7" class="node"><title>Node7</title>
<g id="a_node7"><a xlink:title=" ">
<polygon fill="white" stroke="#bfbfbf" points="314,-0.5 314,-19.5 366,-19.5 366,-0.5 314,-0.5"/>
<text text-anchor="middle" x="340" y="-7.5" font-family="Helvetica,sans-Serif" font-size="10.00">stddef.h</text>
</a>
</g>
</g>
<!-- Node6&#45;&gt;Node7 -->
<g id="edge6" class="edge"><title>Node6&#45;&gt;Node7</title>
<path fill="none" stroke="midnightblue" d="M340,-56.083C340,-49.0059 340,-38.8611 340,-29.9865"/>
<polygon fill="midnightblue" stroke="midnightblue" points="343.5,-29.751 340,-19.7511 336.5,-29.7511 343.5,-29.751"/>
</g>
<!-- Node8 -->
<g id="node8" class="node"><title>Node8</title>
<g id="a_node8"><a xlink:title=" ">
<polygon fill="white" stroke="#bfbfbf" points="147.5,-0.5 147.5,-19.5 232.5,-19.5 232.5,-0.5 147.5,-0.5"/>
<text text-anchor="middle" x="190" y="-7.5" font-family="Helvetica,sans-Serif" font-size="10.00">colony_config.h</text>
</a>
</g>
</g>
<!-- Node6&#45;&gt;Node8 -->
<g id="edge7" class="edge"><title>Node6&#45;&gt;Node8</title>
<path fill="none" stroke="midnightblue" d="M316.232,-56.4435C291.107,-47.3986 251.289,-33.064 223.1,-22.9158"/>
<polygon fill="midnightblue" stroke="midnightblue" points="224.251,-19.6106 213.657,-19.5164 221.88,-26.1968 224.251,-19.6106"/>
</g>
<!-- Node13&#45;&gt;Node3 -->
<g id="edge16" class="edge"><title>Node13&#45;&gt;Node3</title>
<path fill="none" stroke="midnightblue" d="M204.275,-224.444C240.448,-215.142 298.377,-200.246 337.981,-190.062"/>
<polygon fill="midnightblue" stroke="midnightblue" points="339.067,-193.397 347.881,-187.516 337.324,-186.617 339.067,-193.397"/>
</g>
<!-- Node13&#45;&gt;Node10 -->
<g id="edge20" class="edge"><title>Node13&#45;&gt;Node10</title>
<path fill="none" stroke="midnightblue" d="M179.501,-224.321C188.035,-215.461 201.401,-201.177 212,-188 224.551,-172.397 237.625,-153.642 246.612,-140.297"/>
<polygon fill="midnightblue" stroke="midnightblue" points="249.736,-141.921 252.368,-131.658 243.911,-138.039 249.736,-141.921"/>
</g>
<!-- Node14 -->
<g id="node14" class="node"><title>Node14</title>
<g id="a_node14"><a xlink:href="_close_8h.html" target="_top" xlink:title=" ">
<polygon fill="white" stroke="black" points="28,-168.5 28,-187.5 106,-187.5 106,-168.5 28,-168.5"/>
<text text-anchor="middle" x="67" y="-175.5" font-family="Helvetica,sans-Serif" font-size="10.00">Cpl/Io/Close.h</text>
</a>
</g>
</g>
<!-- Node13&#45;&gt;Node14 -->
<g id="edge17" class="edge"><title>Node13&#45;&gt;Node14</title>
<path fill="none" stroke="midnightblue" d="M154.291,-224.324C137.688,-215.703 111.998,-202.364 92.7795,-192.386"/>
<polygon fill="midnightblue" stroke="midnightblue" points="94.1558,-189.156 83.6679,-187.655 90.93,-195.369 94.1558,-189.156"/>
</g>
<!-- Node15 -->
<g id="node15" class="node"><title>Node15</title>
<g id="a_node15"><a xlink:href="_is_eos_8h.html" target="_top" xlink:title=" ">
<polygon fill="white" stroke="black" points="124.5,-168.5 124.5,-187.5 203.5,-187.5 203.5,-168.5 124.5,-168.5"/>
<text text-anchor="middle" x="164" y="-175.5" font-family="Helvetica,sans-Serif" font-size="10.00">Cpl/Io/IsEos.h</text>
</a>
</g>
</g>
<!-- Node13&#45;&gt;Node15 -->
<g id="edge19" class="edge"><title>Node13&#45;&gt;Node15</title>
<path fill="none" stroke="midnightblue" d="M169.844,-224.083C168.916,-216.927 167.582,-206.635 166.423,-197.691"/>
<polygon fill="midnightblue" stroke="midnightblue" points="169.891,-197.218 165.134,-187.751 162.949,-198.118 169.891,-197.218"/>
</g>
<!-- Node14&#45;&gt;Node12 -->
<g id="edge18" class="edge"><title>Node14&#45;&gt;Node12</title>
<path fill="none" stroke="midnightblue" d="M82.1027,-168.324C96.9033,-159.822 119.694,-146.729 136.982,-136.797"/>
<polygon fill="midnightblue" stroke="midnightblue" points="139.007,-139.671 145.935,-131.655 135.52,-133.601 139.007,-139.671"/>
</g>
<!-- Node16&#45;&gt;Node4 -->
<g id="edge22" class="edge"><title>Node16&#45;&gt;Node4</title>
<path fill="none" stroke="midnightblue" d="M73.0462,-112.444C103.082,-103.28 150.913,-88.6876 184.243,-78.5192"/>
<polygon fill="midnightblue" stroke="midnightblue" points="185.542,-81.7822 194.085,-75.5164 183.499,-75.0869 185.542,-81.7822"/>
</g>
<!-- Node16&#45;&gt;Node8 -->
<g id="edge23" class="edge"><title>Node16&#45;&gt;Node8</title>
<path fill="none" stroke="midnightblue" d="M56.3779,-112.368C81.0482,-93.6531 139.71,-49.1509 170.448,-25.8324"/>
<polygon fill="midnightblue" stroke="midnightblue" points="172.823,-28.4237 178.675,-19.5914 168.593,-22.8469 172.823,-28.4237"/>
</g>
</g>
</svg>
