<?xml version="1.0" encoding="UTF-8" standalone="no"?>
<!DOCTYPE svg PUBLIC "-//W3C//DTD SVG 1.1//EN"
 "http://www.w3.org/Graphics/SVG/1.1/DTD/svg11.dtd">
<!-- Generated by graphviz version 10.0.1 (20240210.2158)
 -->
<!-- Title: Cpl/Io/LineWriter.h Pages: 1 -->
<svg width="601pt" height="308pt"
 viewBox="0.00 0.00 600.75 308.00" xmlns="http://www.w3.org/2000/svg" xmlns:xlink="http://www.w3.org/1999/xlink">
<g id="graph0" class="graph" transform="scale(1 1) rotate(0) translate(4 304)">
<title>Cpl/Io/LineWriter.h</title>
<!-- Node1 -->
<g id="Node000001" class="node">
<title>Node1</title>
<g id="a_Node000001"><a xlink:title=" ">
<polygon fill="#999999" stroke="#666666" points="346.5,-300 250.25,-300 250.25,-280 346.5,-280 346.5,-300"/>
<text text-anchor="middle" x="298.38" y="-286.5" font-family="Helvetica,sans-Serif" font-size="10.00">Cpl/Io/LineWriter.h</text>
</a>
</g>
</g>
<!-- Node2 -->
<g id="Node000002" class="node">
<title>Node2</title>
<g id="a_Node000002"><a xlink:href="_line_writer_api_8h.html" target="_top" xlink:title=" ">
<polygon fill="white" stroke="#666666" points="353.62,-244 243.12,-244 243.12,-224 353.62,-224 353.62,-244"/>
<text text-anchor="middle" x="298.38" y="-230.5" font-family="Helvetica,sans-Serif" font-size="10.00">Cpl/Io/LineWriterApi.h</text>
</a>
</g>
</g>
<!-- Node1&#45;&gt;Node2 -->
<g id="edge1_Node000001_Node000002" class="edge">
<title>Node1&#45;&gt;Node2</title>
<g id="a_edge1_Node000001_Node000002"><a xlink:title=" ">
<path fill="none" stroke="#63b8ff" d="M298.38,-279.59C298.38,-273.01 298.38,-263.96 298.38,-255.73"/>
<polygon fill="#63b8ff" stroke="#63b8ff" points="301.88,-255.81 298.38,-245.81 294.88,-255.81 301.88,-255.81"/>
</a>
</g>
</g>
<!-- Node14 -->
<g id="Node000014" class="node">
<title>Node14</title>
<g id="a_Node000014"><a xlink:href="_output_8h.html" target="_top" xlink:title=" ">
<polygon fill="white" stroke="#666666" points="453,-244 371.75,-244 371.75,-224 453,-224 453,-244"/>
<text text-anchor="middle" x="412.38" y="-230.5" font-family="Helvetica,sans-Serif" font-size="10.00">Cpl/Io/Output.h</text>
</a>
</g>
</g>
<!-- Node1&#45;&gt;Node14 -->
<g id="edge15_Node000001_Node000014" class="edge">
<title>Node1&#45;&gt;Node14</title>
<g id="a_edge15_Node000001_Node000014"><a xlink:title=" ">
<path fill="none" stroke="#63b8ff" d="M318.23,-279.59C335.86,-271.24 361.88,-258.92 382.1,-249.34"/>
<polygon fill="#63b8ff" stroke="#63b8ff" points="383.46,-252.57 390.99,-245.13 380.46,-246.25 383.46,-252.57"/>
</a>
</g>
</g>
<!-- Node17 -->
<g id="Node000017" class="node">
<title>Node17</title>
<g id="a_Node000017"><a xlink:href="_new_line_8h.html" target="_top" xlink:title=" ">
<polygon fill="white" stroke="#666666" points="88.75,-132 0,-132 0,-112 88.75,-112 88.75,-132"/>
<text text-anchor="middle" x="44.38" y="-118.5" font-family="Helvetica,sans-Serif" font-size="10.00">Cpl/Io/NewLine.h</text>
</a>
</g>
</g>
<!-- Node1&#45;&gt;Node17 -->
<g id="edge21_Node000001_Node000017" class="edge">
<title>Node1&#45;&gt;Node17</title>
<g id="a_edge21_Node000001_Node000017"><a xlink:title=" ">
<path fill="none" stroke="#63b8ff" d="M283.99,-279.6C242.08,-252.21 119.76,-172.27 67.97,-138.42"/>
<polygon fill="#63b8ff" stroke="#63b8ff" points="70.15,-135.67 59.87,-133.13 66.32,-141.53 70.15,-135.67"/>
</a>
</g>
</g>
<!-- Node3 -->
<g id="Node000003" class="node">
<title>Node3</title>
<g id="a_Node000003"><a xlink:href="_text_2_string_8h.html" target="_top" xlink:title=" ">
<polygon fill="white" stroke="#666666" points="289.75,-188 201,-188 201,-168 289.75,-168 289.75,-188"/>
<text text-anchor="middle" x="245.38" y="-174.5" font-family="Helvetica,sans-Serif" font-size="10.00">Cpl/Text/String.h</text>
</a>
</g>
</g>
<!-- Node2&#45;&gt;Node3 -->
<g id="edge2_Node000002_Node000003" class="edge">
<title>Node2&#45;&gt;Node3</title>
<g id="a_edge2_Node000002_Node000003"><a xlink:title=" ">
<path fill="none" stroke="#63b8ff" d="M289.14,-223.59C281.77,-216.08 271.24,-205.35 262.36,-196.3"/>
<polygon fill="#63b8ff" stroke="#63b8ff" points="265.06,-194.06 255.56,-189.38 260.07,-198.97 265.06,-194.06"/>
</a>
</g>
</g>
<!-- Node11 -->
<g id="Node000011" class="node">
<title>Node11</title>
<g id="a_Node000011"><a xlink:title=" ">
<polygon fill="#e0e0e0" stroke="#999999" points="389,-132 337.75,-132 337.75,-112 389,-112 389,-132"/>
<text text-anchor="middle" x="363.38" y="-118.5" font-family="Helvetica,sans-Serif" font-size="10.00">stdarg.h</text>
</a>
</g>
</g>
<!-- Node2&#45;&gt;Node11 -->
<g id="edge14_Node000002_Node000011" class="edge">
<title>Node2&#45;&gt;Node11</title>
<g id="a_edge14_Node000002_Node000011"><a xlink:title=" ">
<path fill="none" stroke="#63b8ff" d="M303.92,-223.62C314.57,-205.6 338.08,-165.81 352.13,-142.02"/>
<polygon fill="#63b8ff" stroke="#63b8ff" points="355,-144.05 357.08,-133.66 348.98,-140.49 355,-144.05"/>
</a>
</g>
</g>
<!-- Node13 -->
<g id="Node000013" class="node">
<title>Node13</title>
<g id="a_Node000013"><a xlink:href="_item_8h.html" target="_top" xlink:title=" ">
<polygon fill="white" stroke="#666666" points="511.62,-132 407.12,-132 407.12,-112 511.62,-112 511.62,-132"/>
<text text-anchor="middle" x="459.38" y="-118.5" font-family="Helvetica,sans-Serif" font-size="10.00">Cpl/Container/Item.h</text>
</a>
</g>
</g>
<!-- Node2&#45;&gt;Node13 -->
<g id="edge13_Node000002_Node000013" class="edge">
<title>Node2&#45;&gt;Node13</title>
<g id="a_edge13_Node000002_Node000013"><a xlink:title=" ">
<path fill="none" stroke="#63b8ff" d="M312.1,-223.62C339.79,-204.71 402.56,-161.82 436.53,-138.61"/>
<polygon fill="#63b8ff" stroke="#63b8ff" points="438.15,-141.74 444.43,-133.21 434.2,-135.96 438.15,-141.74"/>
</a>
</g>
</g>
<!-- Node4 -->
<g id="Node000004" class="node">
<title>Node4</title>
<g id="a_Node000004"><a xlink:title=" ">
<polygon fill="#e0e0e0" stroke="#999999" points="159.75,-76 83,-76 83,-56 159.75,-56 159.75,-76"/>
<text text-anchor="middle" x="121.38" y="-62.5" font-family="Helvetica,sans-Serif" font-size="10.00">colony_map.h</text>
</a>
</g>
</g>
<!-- Node3&#45;&gt;Node4 -->
<g id="edge3_Node000003_Node000004" class="edge">
<title>Node3&#45;&gt;Node4</title>
<g id="a_edge3_Node000003_Node000004"><a xlink:title=" ">
<path fill="none" stroke="#63b8ff" d="M234.8,-167.62C213.85,-149.03 166.78,-107.28 140.34,-83.82"/>
<polygon fill="#63b8ff" stroke="#63b8ff" points="142.86,-81.38 133.05,-77.36 138.21,-86.61 142.86,-81.38"/>
</a>
</g>
</g>
<!-- Node5 -->
<g id="Node000005" class="node">
<title>Node5</title>
<g id="a_Node000005"><a xlink:href="_key_8h.html" target="_top" xlink:title=" ">
<polygon fill="white" stroke="#666666" points="319.88,-132 216.88,-132 216.88,-112 319.88,-112 319.88,-132"/>
<text text-anchor="middle" x="268.38" y="-118.5" font-family="Helvetica,sans-Serif" font-size="10.00">Cpl/Container/Key.h</text>
</a>
</g>
</g>
<!-- Node3&#45;&gt;Node5 -->
<g id="edge4_Node000003_Node000005" class="edge">
<title>Node3&#45;&gt;Node5</title>
<g id="a_edge4_Node000003_Node000005"><a xlink:title=" ">
<path fill="none" stroke="#63b8ff" d="M249.38,-167.59C252.28,-160.78 256.31,-151.32 259.92,-142.86"/>
<polygon fill="#63b8ff" stroke="#63b8ff" points="263.12,-144.26 263.82,-133.69 256.68,-141.52 263.12,-144.26"/>
</a>
</g>
</g>
<!-- Node3&#45;&gt;Node11 -->
<g id="edge11_Node000003_Node000011" class="edge">
<title>Node3&#45;&gt;Node11</title>
<g id="a_edge11_Node000003_Node000011"><a xlink:title=" ">
<path fill="none" stroke="#63b8ff" d="M265.93,-167.59C284.26,-159.21 311.36,-146.8 332.33,-137.21"/>
<polygon fill="#63b8ff" stroke="#63b8ff" points="333.65,-140.45 341.28,-133.11 330.73,-134.09 333.65,-140.45"/>
</a>
</g>
</g>
<!-- Node12 -->
<g id="Node000012" class="node">
<title>Node12</title>
<g id="a_Node000012"><a xlink:title=" ">
<polygon fill="#e0e0e0" stroke="#999999" points="160.12,-132 106.62,-132 106.62,-112 160.12,-112 160.12,-132"/>
<text text-anchor="middle" x="133.38" y="-118.5" font-family="Helvetica,sans-Serif" font-size="10.00">iostream</text>
</a>
</g>
</g>
<!-- Node3&#45;&gt;Node12 -->
<g id="edge12_Node000003_Node000012" class="edge">
<title>Node3&#45;&gt;Node12</title>
<g id="a_edge12_Node000003_Node000012"><a xlink:title=" ">
<path fill="none" stroke="#63b8ff" d="M225.87,-167.59C208.63,-159.28 183.22,-147.03 163.39,-137.47"/>
<polygon fill="#63b8ff" stroke="#63b8ff" points="164.93,-134.33 154.4,-133.14 161.89,-140.63 164.93,-134.33"/>
</a>
</g>
</g>
<!-- Node5&#45;&gt;Node4 -->
<g id="edge10_Node000005_Node000004" class="edge">
<title>Node5&#45;&gt;Node4</title>
<g id="a_edge10_Node000005_Node000004"><a xlink:title=" ">
<path fill="none" stroke="#63b8ff" d="M242.77,-111.59C219.31,-102.97 184.31,-90.12 157.91,-80.42"/>
<polygon fill="#63b8ff" stroke="#63b8ff" points="159.19,-77.16 148.6,-77 156.78,-83.73 159.19,-77.16"/>
</a>
</g>
</g>
<!-- Node6 -->
<g id="Node000006" class="node">
<title>Node6</title>
<g id="a_Node000006"><a xlink:href="_fatal_error_8h.html" target="_top" xlink:title=" ">
<polygon fill="white" stroke="#666666" points="431.88,-76 310.88,-76 310.88,-56 431.88,-56 431.88,-76"/>
<text text-anchor="middle" x="371.38" y="-62.5" font-family="Helvetica,sans-Serif" font-size="10.00">Cpl/System/FatalError.h</text>
</a>
</g>
</g>
<!-- Node5&#45;&gt;Node6 -->
<g id="edge5_Node000005_Node000006" class="edge">
<title>Node5&#45;&gt;Node6</title>
<g id="a_edge5_Node000005_Node000006"><a xlink:title=" ">
<path fill="none" stroke="#63b8ff" d="M286.32,-111.59C302.02,-103.36 325.11,-91.26 343.26,-81.74"/>
<polygon fill="#63b8ff" stroke="#63b8ff" points="344.72,-84.93 351.95,-77.18 341.47,-78.73 344.72,-84.93"/>
</a>
</g>
</g>
<!-- Node9 -->
<g id="Node000009" class="node">
<title>Node9</title>
<g id="a_Node000009"><a xlink:title=" ">
<polygon fill="#e0e0e0" stroke="#999999" points="226.5,-76 178.25,-76 178.25,-56 226.5,-56 226.5,-76"/>
<text text-anchor="middle" x="202.38" y="-62.5" font-family="Helvetica,sans-Serif" font-size="10.00">stdint.h</text>
</a>
</g>
</g>
<!-- Node5&#45;&gt;Node9 -->
<g id="edge8_Node000005_Node000009" class="edge">
<title>Node5&#45;&gt;Node9</title>
<g id="a_edge8_Node000005_Node000009"><a xlink:title=" ">
<path fill="none" stroke="#63b8ff" d="M256.88,-111.59C247.41,-103.85 233.77,-92.69 222.5,-83.47"/>
<polygon fill="#63b8ff" stroke="#63b8ff" points="224.87,-80.88 214.91,-77.26 220.43,-86.3 224.87,-80.88"/>
</a>
</g>
</g>
<!-- Node10 -->
<g id="Node000010" class="node">
<title>Node10</title>
<g id="a_Node000010"><a xlink:title=" ">
<polygon fill="#e0e0e0" stroke="#999999" points="292.5,-76 244.25,-76 244.25,-56 292.5,-56 292.5,-76"/>
<text text-anchor="middle" x="268.38" y="-62.5" font-family="Helvetica,sans-Serif" font-size="10.00">string.h</text>
</a>
</g>
</g>
<!-- Node5&#45;&gt;Node10 -->
<g id="edge9_Node000005_Node000010" class="edge">
<title>Node5&#45;&gt;Node10</title>
<g id="a_edge9_Node000005_Node000010"><a xlink:title=" ">
<path fill="none" stroke="#63b8ff" d="M268.38,-111.59C268.38,-105.01 268.38,-95.96 268.38,-87.73"/>
<polygon fill="#63b8ff" stroke="#63b8ff" points="271.88,-87.81 268.38,-77.81 264.88,-87.81 271.88,-87.81"/>
</a>
</g>
</g>
<!-- Node7 -->
<g id="Node000007" class="node">
<title>Node7</title>
<g id="a_Node000007"><a xlink:title=" ">
<polygon fill="#e0e0e0" stroke="#999999" points="396.62,-20 346.12,-20 346.12,0 396.62,0 396.62,-20"/>
<text text-anchor="middle" x="371.38" y="-6.5" font-family="Helvetica,sans-Serif" font-size="10.00">stddef.h</text>
</a>
</g>
</g>
<!-- Node6&#45;&gt;Node7 -->
<g id="edge6_Node000006_Node000007" class="edge">
<title>Node6&#45;&gt;Node7</title>
<g id="a_edge6_Node000006_Node000007"><a xlink:title=" ">
<path fill="none" stroke="#63b8ff" d="M371.38,-55.59C371.38,-49.01 371.38,-39.96 371.38,-31.73"/>
<polygon fill="#63b8ff" stroke="#63b8ff" points="374.88,-31.81 371.38,-21.81 367.88,-31.81 374.88,-31.81"/>
</a>
</g>
</g>
<!-- Node8 -->
<g id="Node000008" class="node">
<title>Node8</title>
<g id="a_Node000008"><a xlink:title=" ">
<polygon fill="#e0e0e0" stroke="#999999" points="213.12,-20 129.62,-20 129.62,0 213.12,0 213.12,-20"/>
<text text-anchor="middle" x="171.38" y="-6.5" font-family="Helvetica,sans-Serif" font-size="10.00">colony_config.h</text>
</a>
</g>
</g>
<!-- Node6&#45;&gt;Node8 -->
<g id="edge7_Node000006_Node000008" class="edge">
<title>Node6&#45;&gt;Node8</title>
<g id="a_edge7_Node000006_Node000008"><a xlink:title=" ">
<path fill="none" stroke="#63b8ff" d="M336.54,-55.59C303.47,-46.67 253.57,-33.19 217.28,-23.39"/>
<polygon fill="#63b8ff" stroke="#63b8ff" points="218.51,-20.1 207.95,-20.87 216.69,-26.86 218.51,-20.1"/>
</a>
</g>
</g>
<!-- Node14&#45;&gt;Node3 -->
<g id="edge16_Node000014_Node000003" class="edge">
<title>Node14&#45;&gt;Node3</title>
<g id="a_edge16_Node000014_Node000003"><a xlink:title=" ">
<path fill="none" stroke="#63b8ff" d="M383.29,-223.59C356.15,-214.82 315.44,-201.66 285.28,-191.9"/>
<polygon fill="#63b8ff" stroke="#63b8ff" points="286.72,-188.69 276.13,-188.95 284.57,-195.35 286.72,-188.69"/>
</a>
</g>
</g>
<!-- Node14&#45;&gt;Node11 -->
<g id="edge20_Node000014_Node000011" class="edge">
<title>Node14&#45;&gt;Node11</title>
<g id="a_edge20_Node000014_Node000011"><a xlink:title=" ">
<path fill="none" stroke="#63b8ff" d="M408.2,-223.62C400.24,-205.76 382.76,-166.53 372.14,-142.67"/>
<polygon fill="#63b8ff" stroke="#63b8ff" points="375.42,-141.45 368.16,-133.74 369.03,-144.3 375.42,-141.45"/>
</a>
</g>
</g>
<!-- Node15 -->
<g id="Node000015" class="node">
<title>Node15</title>
<g id="a_Node000015"><a xlink:href="_close_8h.html" target="_top" xlink:title=" ">
<polygon fill="white" stroke="#666666" points="497.75,-188 421,-188 421,-168 497.75,-168 497.75,-188"/>
<text text-anchor="middle" x="459.38" y="-174.5" font-family="Helvetica,sans-Serif" font-size="10.00">Cpl/Io/Close.h</text>
</a>
</g>
</g>
<!-- Node14&#45;&gt;Node15 -->
<g id="edge17_Node000014_Node000015" class="edge">
<title>Node14&#45;&gt;Node15</title>
<g id="a_edge17_Node000014_Node000015"><a xlink:title=" ">
<path fill="none" stroke="#63b8ff" d="M420.56,-223.59C426.96,-216.24 436.05,-205.8 443.83,-196.87"/>
<polygon fill="#63b8ff" stroke="#63b8ff" points="446.36,-199.28 450.29,-189.44 441.08,-194.69 446.36,-199.28"/>
</a>
</g>
</g>
<!-- Node16 -->
<g id="Node000016" class="node">
<title>Node16</title>
<g id="a_Node000016"><a xlink:href="_is_eos_8h.html" target="_top" xlink:title=" ">
<polygon fill="white" stroke="#666666" points="592.75,-188 516,-188 516,-168 592.75,-168 592.75,-188"/>
<text text-anchor="middle" x="554.38" y="-174.5" font-family="Helvetica,sans-Serif" font-size="10.00">Cpl/Io/IsEos.h</text>
</a>
</g>
</g>
<!-- Node14&#45;&gt;Node16 -->
<g id="edge19_Node000014_Node000016" class="edge">
<title>Node14&#45;&gt;Node16</title>
<g id="a_edge19_Node000014_Node000016"><a xlink:title=" ">
<path fill="none" stroke="#63b8ff" d="M437.11,-223.59C459.67,-215.01 493.28,-202.23 518.74,-192.55"/>
<polygon fill="#63b8ff" stroke="#63b8ff" points="519.93,-195.84 528.03,-189.02 517.44,-189.3 519.93,-195.84"/>
</a>
</g>
</g>
<!-- Node15&#45;&gt;Node13 -->
<g id="edge18_Node000015_Node000013" class="edge">
<title>Node15&#45;&gt;Node13</title>
<g id="a_edge18_Node000015_Node000013"><a xlink:title=" ">
<path fill="none" stroke="#63b8ff" d="M459.38,-167.59C459.38,-161.01 459.38,-151.96 459.38,-143.73"/>
<polygon fill="#63b8ff" stroke="#63b8ff" points="462.88,-143.81 459.38,-133.81 455.88,-143.81 462.88,-143.81"/>
</a>
</g>
</g>
<!-- Node17&#45;&gt;Node4 -->
<g id="edge22_Node000017_Node000004" class="edge">
<title>Node17&#45;&gt;Node4</title>
<g id="a_edge22_Node000017_Node000004"><a xlink:title=" ">
<path fill="none" stroke="#63b8ff" d="M57.79,-111.59C68.98,-103.74 85.19,-92.38 98.43,-83.09"/>
<polygon fill="#63b8ff" stroke="#63b8ff" points="100.44,-85.96 106.62,-77.35 96.42,-80.22 100.44,-85.96"/>
</a>
</g>
</g>
<!-- Node17&#45;&gt;Node8 -->
<g id="edge23_Node000017_Node000008" class="edge">
<title>Node17&#45;&gt;Node8</title>
<g id="a_edge23_Node000017_Node000008"><a xlink:title=" ">
<path fill="none" stroke="#63b8ff" d="M46.44,-111.86C49.97,-98.11 58.4,-72.01 74.38,-56 88.67,-41.68 108.37,-31.39 126.29,-24.31"/>
<polygon fill="#63b8ff" stroke="#63b8ff" points="127.28,-27.67 135.45,-20.92 124.85,-21.11 127.28,-27.67"/>
</a>
</g>
</g>
</g>
</svg>
