<?xml version="1.0" encoding="UTF-8" standalone="no"?>
<!DOCTYPE svg PUBLIC "-//W3C//DTD SVG 1.1//EN"
 "http://www.w3.org/Graphics/SVG/1.1/DTD/svg11.dtd">
<!-- Generated by graphviz version 2.38.0 (20140413.2041)
 -->
<!-- Title: Cpl/Io/Socket/ListenerClientSync.h Pages: 1 -->
<svg width="495pt" height="386pt"
 viewBox="0.00 0.00 494.50 386.00" xmlns="http://www.w3.org/2000/svg" xmlns:xlink="http://www.w3.org/1999/xlink">
<g id="graph0" class="graph" transform="scale(1 1) rotate(0) translate(4 382)">
<title>Cpl/Io/Socket/ListenerClientSync.h</title>
<polygon fill="white" stroke="none" points="-4,4 -4,-382 490.5,-382 490.5,4 -4,4"/>
<!-- Node1 -->
<g id="node1" class="node"><title>Node1</title>
<g id="a_node1"><a xlink:title=" ">
<polygon fill="#bfbfbf" stroke="black" points="185,-347.5 185,-377.5 323,-377.5 323,-347.5 185,-347.5"/>
<text text-anchor="start" x="193" y="-365.5" font-family="Helvetica,sans-Serif" font-size="10.00">Cpl/Io/Socket/ListenerClient</text>
<text text-anchor="middle" x="254" y="-354.5" font-family="Helvetica,sans-Serif" font-size="10.00">Sync.h</text>
</a>
</g>
</g>
<!-- Node2 -->
<g id="node2" class="node"><title>Node2</title>
<g id="a_node2"><a xlink:href="_listener_8h.html" target="_top" xlink:title=" ">
<polygon fill="white" stroke="black" points="115,-224.5 115,-243.5 237,-243.5 237,-224.5 115,-224.5"/>
<text text-anchor="middle" x="176" y="-231.5" font-family="Helvetica,sans-Serif" font-size="10.00">Cpl/Io/Socket/Listener.h</text>
</a>
</g>
</g>
<!-- Node1&#45;&gt;Node2 -->
<g id="edge1" class="edge"><title>Node1&#45;&gt;Node2</title>
<path fill="none" stroke="midnightblue" d="M245.355,-347.479C231.005,-324.206 202.306,-277.663 186.701,-252.355"/>
<polygon fill="midnightblue" stroke="midnightblue" points="189.647,-250.464 181.419,-243.789 183.688,-254.137 189.647,-250.464"/>
</g>
<!-- Node5 -->
<g id="node5" class="node"><title>Node5</title>
<g id="a_node5"><a xlink:href="_listener_client_request_8h.html" target="_top" xlink:title=" ">
<polygon fill="white" stroke="black" points="240,-280.5 240,-310.5 378,-310.5 378,-280.5 240,-280.5"/>
<text text-anchor="start" x="248" y="-298.5" font-family="Helvetica,sans-Serif" font-size="10.00">Cpl/Io/Socket/ListenerClient</text>
<text text-anchor="middle" x="309" y="-287.5" font-family="Helvetica,sans-Serif" font-size="10.00">Request.h</text>
</a>
</g>
</g>
<!-- Node1&#45;&gt;Node5 -->
<g id="edge4" class="edge"><title>Node1&#45;&gt;Node5</title>
<path fill="none" stroke="midnightblue" d="M265.934,-347.396C273.141,-338.878 282.476,-327.847 290.611,-318.233"/>
<polygon fill="midnightblue" stroke="midnightblue" points="293.302,-320.471 297.089,-310.577 287.958,-315.95 293.302,-320.471"/>
</g>
<!-- Node3 -->
<g id="node3" class="node"><title>Node3</title>
<g id="a_node3"><a xlink:href="_descriptor_8h.html" target="_top" xlink:title=" ">
<polygon fill="white" stroke="black" points="0,-168.5 0,-187.5 98,-187.5 98,-168.5 0,-168.5"/>
<text text-anchor="middle" x="49" y="-175.5" font-family="Helvetica,sans-Serif" font-size="10.00">Cpl/Io/Descriptor.h</text>
</a>
</g>
</g>
<!-- Node2&#45;&gt;Node3 -->
<g id="edge2" class="edge"><title>Node2&#45;&gt;Node3</title>
<path fill="none" stroke="midnightblue" d="M155.876,-224.444C134.976,-215.557 102.065,-201.563 78.2839,-191.451"/>
<polygon fill="midnightblue" stroke="midnightblue" points="79.6016,-188.208 69.0294,-187.516 76.8625,-194.65 79.6016,-188.208"/>
</g>
<!-- Node4 -->
<g id="node4" class="node"><title>Node4</title>
<g id="a_node4"><a xlink:href="_runnable_8h.html" target="_top" xlink:title=" ">
<polygon fill="white" stroke="black" points="116.5,-168.5 116.5,-187.5 235.5,-187.5 235.5,-168.5 116.5,-168.5"/>
<text text-anchor="middle" x="176" y="-175.5" font-family="Helvetica,sans-Serif" font-size="10.00">Cpl/System/Runnable.h</text>
</a>
</g>
</g>
<!-- Node2&#45;&gt;Node4 -->
<g id="edge3" class="edge"><title>Node2&#45;&gt;Node4</title>
<path fill="none" stroke="midnightblue" d="M176,-224.083C176,-217.006 176,-206.861 176,-197.986"/>
<polygon fill="midnightblue" stroke="midnightblue" points="179.5,-197.751 176,-187.751 172.5,-197.751 179.5,-197.751"/>
</g>
<!-- Node5&#45;&gt;Node2 -->
<g id="edge5" class="edge"><title>Node5&#45;&gt;Node2</title>
<path fill="none" stroke="midnightblue" d="M277.481,-280.399C255.365,-270.505 226.033,-257.383 204.594,-247.792"/>
<polygon fill="midnightblue" stroke="midnightblue" points="205.91,-244.547 195.353,-243.658 203.052,-250.936 205.91,-244.547"/>
</g>
<!-- Node6 -->
<g id="node6" class="node"><title>Node6</title>
<g id="a_node6"><a xlink:href="_request_message_8h.html" target="_top" xlink:title=" ">
<polygon fill="white" stroke="black" points="255,-224.5 255,-243.5 387,-243.5 387,-224.5 255,-224.5"/>
<text text-anchor="middle" x="321" y="-231.5" font-family="Helvetica,sans-Serif" font-size="10.00">Cpl/Itc/RequestMessage.h</text>
</a>
</g>
</g>
<!-- Node5&#45;&gt;Node6 -->
<g id="edge6" class="edge"><title>Node5&#45;&gt;Node6</title>
<path fill="none" stroke="midnightblue" d="M311.844,-280.399C313.462,-272.377 315.508,-262.233 317.255,-253.569"/>
<polygon fill="midnightblue" stroke="midnightblue" points="320.708,-254.152 319.254,-243.658 313.846,-252.768 320.708,-254.152"/>
</g>
<!-- Node11 -->
<g id="node11" class="node"><title>Node11</title>
<g id="a_node11"><a xlink:href="_s_a_p_8h.html" target="_top" xlink:title=" ">
<polygon fill="white" stroke="black" points="400.5,-168.5 400.5,-187.5 477.5,-187.5 477.5,-168.5 400.5,-168.5"/>
<text text-anchor="middle" x="439" y="-175.5" font-family="Helvetica,sans-Serif" font-size="10.00">Cpl/Itc/SAP.h</text>
</a>
</g>
</g>
<!-- Node5&#45;&gt;Node11 -->
<g id="edge14" class="edge"><title>Node5&#45;&gt;Node11</title>
<path fill="none" stroke="midnightblue" d="M341.135,-280.338C358.666,-271.568 379.992,-259.098 396,-244 410.416,-230.404 422.411,-211.091 430.036,-197.052"/>
<polygon fill="midnightblue" stroke="midnightblue" points="433.278,-198.405 434.789,-187.918 427.068,-195.174 433.278,-198.405"/>
</g>
<!-- Node7 -->
<g id="node7" class="node"><title>Node7</title>
<g id="a_node7"><a xlink:href="_service_message_8h.html" target="_top" xlink:title=" ">
<polygon fill="white" stroke="black" points="253.5,-168.5 253.5,-187.5 382.5,-187.5 382.5,-168.5 253.5,-168.5"/>
<text text-anchor="middle" x="318" y="-175.5" font-family="Helvetica,sans-Serif" font-size="10.00">Cpl/Itc/ServiceMessage.h</text>
</a>
</g>
</g>
<!-- Node6&#45;&gt;Node7 -->
<g id="edge7" class="edge"><title>Node6&#45;&gt;Node7</title>
<path fill="none" stroke="midnightblue" d="M320.505,-224.083C320.111,-217.006 319.548,-206.861 319.055,-197.986"/>
<polygon fill="midnightblue" stroke="midnightblue" points="322.536,-197.542 318.486,-187.751 315.546,-197.93 322.536,-197.542"/>
</g>
<!-- Node6&#45;&gt;Node11 -->
<g id="edge11" class="edge"><title>Node6&#45;&gt;Node11</title>
<path fill="none" stroke="midnightblue" d="M339.697,-224.444C358.944,-215.636 389.152,-201.812 411.2,-191.722"/>
<polygon fill="midnightblue" stroke="midnightblue" points="412.753,-194.86 420.39,-187.516 409.84,-188.495 412.753,-194.86"/>
</g>
<!-- Node8 -->
<g id="node8" class="node"><title>Node8</title>
<g id="a_node8"><a xlink:href="_message_8h.html" target="_top" xlink:title=" ">
<polygon fill="white" stroke="black" points="288,-56.5 288,-75.5 384,-75.5 384,-56.5 288,-56.5"/>
<text text-anchor="middle" x="336" y="-63.5" font-family="Helvetica,sans-Serif" font-size="10.00">Cpl/Itc/Message.h</text>
</a>
</g>
</g>
<!-- Node7&#45;&gt;Node8 -->
<g id="edge8" class="edge"><title>Node7&#45;&gt;Node8</title>
<path fill="none" stroke="midnightblue" d="M296.142,-168.359C271.15,-157.112 235.453,-136.03 250,-112 259.41,-96.4551 276.153,-86.0215 292.38,-79.1515"/>
<polygon fill="midnightblue" stroke="midnightblue" points="293.749,-82.3749 301.816,-75.5065 291.226,-75.8452 293.749,-82.3749"/>
</g>
<!-- Node10 -->
<g id="node10" class="node"><title>Node10</title>
<g id="a_node10"><a xlink:href="_return_handler_8h.html" target="_top" xlink:title=" ">
<polygon fill="white" stroke="black" points="259,-112.5 259,-131.5 377,-131.5 377,-112.5 259,-112.5"/>
<text text-anchor="middle" x="318" y="-119.5" font-family="Helvetica,sans-Serif" font-size="10.00">Cpl/Itc/ReturnHandler.h</text>
</a>
</g>
</g>
<!-- Node7&#45;&gt;Node10 -->
<g id="edge10" class="edge"><title>Node7&#45;&gt;Node10</title>
<path fill="none" stroke="midnightblue" d="M318,-168.083C318,-161.006 318,-150.861 318,-141.986"/>
<polygon fill="midnightblue" stroke="midnightblue" points="321.5,-141.751 318,-131.751 314.5,-141.751 321.5,-141.751"/>
</g>
<!-- Node9 -->
<g id="node9" class="node"><title>Node9</title>
<g id="a_node9"><a xlink:href="_item_8h.html" target="_top" xlink:title=" ">
<polygon fill="white" stroke="black" points="283,-0.5 283,-19.5 389,-19.5 389,-0.5 283,-0.5"/>
<text text-anchor="middle" x="336" y="-7.5" font-family="Helvetica,sans-Serif" font-size="10.00">Cpl/Container/Item.h</text>
</a>
</g>
</g>
<!-- Node8&#45;&gt;Node9 -->
<g id="edge9" class="edge"><title>Node8&#45;&gt;Node9</title>
<path fill="none" stroke="midnightblue" d="M336,-56.083C336,-49.0059 336,-38.8611 336,-29.9865"/>
<polygon fill="midnightblue" stroke="midnightblue" points="339.5,-29.751 336,-19.7511 332.5,-29.7511 339.5,-29.751"/>
</g>
<!-- Node12 -->
<g id="node12" class="node"><title>Node12</title>
<g id="a_node12"><a xlink:href="_post_api_8h.html" target="_top" xlink:title=" ">
<polygon fill="white" stroke="black" points="395.5,-112.5 395.5,-131.5 486.5,-131.5 486.5,-112.5 395.5,-112.5"/>
<text text-anchor="middle" x="441" y="-119.5" font-family="Helvetica,sans-Serif" font-size="10.00">Cpl/Itc/PostApi.h</text>
</a>
</g>
</g>
<!-- Node11&#45;&gt;Node12 -->
<g id="edge12" class="edge"><title>Node11&#45;&gt;Node12</title>
<path fill="none" stroke="midnightblue" d="M439.33,-168.083C439.592,-161.006 439.968,-150.861 440.297,-141.986"/>
<polygon fill="midnightblue" stroke="midnightblue" points="443.803,-141.874 440.676,-131.751 436.808,-141.615 443.803,-141.874"/>
</g>
<!-- Node12&#45;&gt;Node8 -->
<g id="edge13" class="edge"><title>Node12&#45;&gt;Node8</title>
<path fill="none" stroke="midnightblue" d="M424.13,-112.324C407.291,-103.664 381.193,-90.2424 361.762,-80.249"/>
<polygon fill="midnightblue" stroke="midnightblue" points="363.322,-77.1155 352.828,-75.6545 360.12,-83.3405 363.322,-77.1155"/>
</g>
</g>
</svg>
