<?xml version="1.0" encoding="UTF-8" standalone="no"?>
<!DOCTYPE svg PUBLIC "-//W3C//DTD SVG 1.1//EN"
 "http://www.w3.org/Graphics/SVG/1.1/DTD/svg11.dtd">
<!-- Generated by graphviz version 2.38.0 (20140413.2041)
 -->
<!-- Title: Cpl/Itc/Mailbox.h Pages: 1 -->
<svg width="697pt" height="263pt"
 viewBox="0.00 0.00 696.50 263.00" xmlns="http://www.w3.org/2000/svg" xmlns:xlink="http://www.w3.org/1999/xlink">
<g id="graph0" class="graph" transform="scale(1 1) rotate(0) translate(4 259)">
<title>Cpl/Itc/Mailbox.h</title>
<polygon fill="white" stroke="none" points="-4,4 -4,-259 692.5,-259 692.5,4 -4,4"/>
<!-- Node1 -->
<g id="node1" class="node"><title>Node1</title>
<g id="a_node1"><a xlink:title=" ">
<polygon fill="#bfbfbf" stroke="black" points="323.5,-235.5 323.5,-254.5 413.5,-254.5 413.5,-235.5 323.5,-235.5"/>
<text text-anchor="middle" x="368.5" y="-242.5" font-family="Helvetica,sans-Serif" font-size="10.00">Cpl/Itc/Mailbox.h</text>
</a>
</g>
</g>
<!-- Node2 -->
<g id="node2" class="node"><title>Node2</title>
<g id="a_node2"><a xlink:href="_dm_2_mailbox_server_8h.html" target="_top" xlink:title=" ">
<polygon fill="white" stroke="black" points="238.5,-179.5 238.5,-198.5 360.5,-198.5 360.5,-179.5 238.5,-179.5"/>
<text text-anchor="middle" x="299.5" y="-186.5" font-family="Helvetica,sans-Serif" font-size="10.00">Cpl/Dm/MailboxServer.h</text>
</a>
</g>
</g>
<!-- Node1&#45;&gt;Node2 -->
<g id="edge1" class="edge"><title>Node1&#45;&gt;Node2</title>
<path fill="none" stroke="midnightblue" d="M349.462,-229.101C337.044,-219.382 321.257,-207.027 310.788,-198.834"/>
<polygon fill="midnightblue" stroke="midnightblue" points="347.382,-231.917 357.414,-235.324 351.696,-226.405 347.382,-231.917"/>
</g>
<!-- Node14 -->
<g id="node14" class="node"><title>Node14</title>
<g id="a_node14"><a xlink:href="_itc_2_mailbox_server_8h.html" target="_top" xlink:title=" ">
<polygon fill="white" stroke="black" points="379,-179.5 379,-198.5 498,-198.5 498,-179.5 379,-179.5"/>
<text text-anchor="middle" x="438.5" y="-186.5" font-family="Helvetica,sans-Serif" font-size="10.00">Cpl/Itc/MailboxServer.h</text>
</a>
</g>
</g>
<!-- Node1&#45;&gt;Node14 -->
<g id="edge16" class="edge"><title>Node1&#45;&gt;Node14</title>
<path fill="none" stroke="midnightblue" d="M387.814,-229.101C400.412,-219.382 416.428,-207.027 427.049,-198.834"/>
<polygon fill="midnightblue" stroke="midnightblue" points="385.527,-226.445 379.747,-235.324 389.802,-231.987 385.527,-226.445"/>
</g>
<!-- Node3 -->
<g id="node3" class="node"><title>Node3</title>
<g id="a_node3"><a xlink:href="_chunk_8h.html" target="_top" xlink:title=" ">
<polygon fill="white" stroke="black" points="241,-123.5 241,-142.5 358,-142.5 358,-123.5 241,-123.5"/>
<text text-anchor="middle" x="299.5" y="-130.5" font-family="Helvetica,sans-Serif" font-size="10.00">Cpl/Persistent/Chunk.h</text>
</a>
</g>
</g>
<!-- Node2&#45;&gt;Node3 -->
<g id="edge2" class="edge"><title>Node2&#45;&gt;Node3</title>
<path fill="none" stroke="midnightblue" d="M299.5,-168.805C299.5,-159.91 299.5,-149.78 299.5,-142.751"/>
<polygon fill="midnightblue" stroke="midnightblue" points="296,-169.083 299.5,-179.083 303,-169.083 296,-169.083"/>
</g>
<!-- Node9 -->
<g id="node9" class="node"><title>Node9</title>
<g id="a_node9"><a xlink:href="_persistent_2_record_8h.html" target="_top" xlink:title=" ">
<polygon fill="white" stroke="black" points="102.5,-123.5 102.5,-142.5 222.5,-142.5 222.5,-123.5 102.5,-123.5"/>
<text text-anchor="middle" x="162.5" y="-130.5" font-family="Helvetica,sans-Serif" font-size="10.00">Cpl/Persistent/Record.h</text>
</a>
</g>
</g>
<!-- Node2&#45;&gt;Node9 -->
<g id="edge8" class="edge"><title>Node2&#45;&gt;Node9</title>
<path fill="none" stroke="midnightblue" d="M268.477,-175.772C242.743,-165.629 206.814,-151.467 184.106,-142.516"/>
<polygon fill="midnightblue" stroke="midnightblue" points="267.205,-179.033 277.792,-179.444 269.772,-172.52 267.205,-179.033"/>
</g>
<!-- Node10 -->
<g id="node10" class="node"><title>Node10</title>
<g id="a_node10"><a xlink:href="_record_server_8h.html" target="_top" xlink:title=" ">
<polygon fill="white" stroke="black" points="0,-67.5 0,-86.5 149,-86.5 149,-67.5 0,-67.5"/>
<text text-anchor="middle" x="74.5" y="-74.5" font-family="Helvetica,sans-Serif" font-size="10.00">Cpl/Persistent/RecordServer.h</text>
</a>
</g>
</g>
<!-- Node2&#45;&gt;Node10 -->
<g id="edge11" class="edge"><title>Node2&#45;&gt;Node10</title>
<path fill="none" stroke="midnightblue" d="M228.176,-180.213C176.691,-173.189 112.948,-161.144 93.5,-143 77.5105,-128.082 74.7258,-100.529 74.3984,-86.5759"/>
<polygon fill="midnightblue" stroke="midnightblue" points="227.921,-183.71 238.293,-181.551 228.839,-176.77 227.921,-183.71"/>
</g>
<!-- Node11 -->
<g id="node11" class="node"><title>Node11</title>
<g id="a_node11"><a xlink:href="_region_media_8h.html" target="_top" xlink:title=" ">
<polygon fill="white" stroke="black" points="376.5,-123.5 376.5,-142.5 522.5,-142.5 522.5,-123.5 376.5,-123.5"/>
<text text-anchor="middle" x="449.5" y="-130.5" font-family="Helvetica,sans-Serif" font-size="10.00">Cpl/Persistent/RegionMedia.h</text>
</a>
</g>
</g>
<!-- Node2&#45;&gt;Node11 -->
<g id="edge12" class="edge"><title>Node2&#45;&gt;Node11</title>
<path fill="none" stroke="midnightblue" d="M332.725,-176.039C360.948,-165.879 400.762,-151.546 425.843,-142.516"/>
<polygon fill="midnightblue" stroke="midnightblue" points="331.491,-172.763 323.268,-179.444 333.862,-179.349 331.491,-172.763"/>
</g>
<!-- Node13 -->
<g id="node13" class="node"><title>Node13</title>
<g id="a_node13"><a xlink:href="_algorithm_8h.html" target="_top" xlink:title=" ">
<polygon fill="white" stroke="black" points="540.5,-123.5 540.5,-142.5 688.5,-142.5 688.5,-123.5 540.5,-123.5"/>
<text text-anchor="middle" x="614.5" y="-130.5" font-family="Helvetica,sans-Serif" font-size="10.00">Storm/Thermostat/Algorithm.h</text>
</a>
</g>
</g>
<!-- Node2&#45;&gt;Node13 -->
<g id="edge15" class="edge"><title>Node2&#45;&gt;Node13</title>
<path fill="none" stroke="midnightblue" d="M359.423,-177.727C418.949,-167.523 509.16,-152.058 564.821,-142.516"/>
<polygon fill="midnightblue" stroke="midnightblue" points="358.678,-174.304 349.413,-179.444 359.86,-181.203 358.678,-174.304"/>
</g>
<!-- Node4 -->
<g id="node4" class="node"><title>Node4</title>
<g id="a_node4"><a xlink:href="_dm_2_persistent_2_record_8h.html" target="_top" xlink:title=" ">
<polygon fill="white" stroke="black" points="167.5,-67.5 167.5,-86.5 305.5,-86.5 305.5,-67.5 167.5,-67.5"/>
<text text-anchor="middle" x="236.5" y="-74.5" font-family="Helvetica,sans-Serif" font-size="10.00">Cpl/Dm/Persistent/Record.h</text>
</a>
</g>
</g>
<!-- Node3&#45;&gt;Node4 -->
<g id="edge3" class="edge"><title>Node3&#45;&gt;Node4</title>
<path fill="none" stroke="midnightblue" d="M281.46,-116.537C270.227,-106.909 256.181,-94.8694 246.806,-86.8339"/>
<polygon fill="midnightblue" stroke="midnightblue" points="279.508,-119.473 289.378,-123.324 284.063,-114.159 279.508,-119.473"/>
</g>
<!-- Node8 -->
<g id="node8" class="node"><title>Node8</title>
<g id="a_node8"><a xlink:href="_mirrored_chunk_8h.html" target="_top" xlink:title=" ">
<polygon fill="white" stroke="black" points="323.5,-67.5 323.5,-86.5 475.5,-86.5 475.5,-67.5 323.5,-67.5"/>
<text text-anchor="middle" x="399.5" y="-74.5" font-family="Helvetica,sans-Serif" font-size="10.00">Cpl/Persistent/MirroredChunk.h</text>
</a>
</g>
</g>
<!-- Node3&#45;&gt;Node8 -->
<g id="edge7" class="edge"><title>Node3&#45;&gt;Node8</title>
<path fill="none" stroke="midnightblue" d="M324.588,-118.453C343.049,-108.483 367.597,-95.2279 383.473,-86.6545"/>
<polygon fill="midnightblue" stroke="midnightblue" points="322.703,-115.493 315.567,-123.324 326.029,-121.652 322.703,-115.493"/>
</g>
<!-- Node5 -->
<g id="node5" class="node"><title>Node5</title>
<g id="a_node5"><a xlink:href="_installer_record_8h_source.html" target="_top" xlink:title=" ">
<polygon fill="white" stroke="black" points="40,-0.5 40,-30.5 159,-30.5 159,-0.5 40,-0.5"/>
<text text-anchor="start" x="48" y="-18.5" font-family="Helvetica,sans-Serif" font-size="10.00">Storm/Thermostat/Main</text>
<text text-anchor="middle" x="99.5" y="-7.5" font-family="Helvetica,sans-Serif" font-size="10.00">/InstallerRecord.h</text>
</a>
</g>
</g>
<!-- Node4&#45;&gt;Node5 -->
<g id="edge4" class="edge"><title>Node4&#45;&gt;Node5</title>
<path fill="none" stroke="midnightblue" d="M207.628,-63.4605C185.437,-53.823 154.79,-40.5127 131.788,-30.523"/>
<polygon fill="midnightblue" stroke="midnightblue" points="206.305,-66.7018 216.871,-67.4751 209.093,-60.2811 206.305,-66.7018"/>
</g>
<!-- Node6 -->
<g id="node6" class="node"><title>Node6</title>
<g id="a_node6"><a xlink:href="_run_time_record_8h_source.html" target="_top" xlink:title=" ">
<polygon fill="white" stroke="black" points="177,-0.5 177,-30.5 296,-30.5 296,-0.5 177,-0.5"/>
<text text-anchor="start" x="185" y="-18.5" font-family="Helvetica,sans-Serif" font-size="10.00">Storm/Thermostat/Main</text>
<text text-anchor="middle" x="236.5" y="-7.5" font-family="Helvetica,sans-Serif" font-size="10.00">/RunTimeRecord.h</text>
</a>
</g>
</g>
<!-- Node4&#45;&gt;Node6 -->
<g id="edge5" class="edge"><title>Node4&#45;&gt;Node6</title>
<path fill="none" stroke="midnightblue" d="M236.5,-57.2349C236.5,-48.5864 236.5,-38.4969 236.5,-30.523"/>
<polygon fill="midnightblue" stroke="midnightblue" points="233,-57.4751 236.5,-67.4751 240,-57.4751 233,-57.4751"/>
</g>
<!-- Node7 -->
<g id="node7" class="node"><title>Node7</title>
<g id="a_node7"><a xlink:href="_user_record_8h_source.html" target="_top" xlink:title=" ">
<polygon fill="white" stroke="black" points="314,-0.5 314,-30.5 433,-30.5 433,-0.5 314,-0.5"/>
<text text-anchor="start" x="322" y="-18.5" font-family="Helvetica,sans-Serif" font-size="10.00">Storm/Thermostat/Main</text>
<text text-anchor="middle" x="373.5" y="-7.5" font-family="Helvetica,sans-Serif" font-size="10.00">/UserRecord.h</text>
</a>
</g>
</g>
<!-- Node4&#45;&gt;Node7 -->
<g id="edge6" class="edge"><title>Node4&#45;&gt;Node7</title>
<path fill="none" stroke="midnightblue" d="M265.372,-63.4605C287.563,-53.823 318.21,-40.5127 341.212,-30.523"/>
<polygon fill="midnightblue" stroke="midnightblue" points="263.907,-60.2811 256.129,-67.4751 266.695,-66.7018 263.907,-60.2811"/>
</g>
<!-- Node9&#45;&gt;Node4 -->
<g id="edge9" class="edge"><title>Node9&#45;&gt;Node4</title>
<path fill="none" stroke="midnightblue" d="M182.534,-117.38C195.909,-107.62 213.059,-95.1057 224.394,-86.8339"/>
<polygon fill="midnightblue" stroke="midnightblue" points="180.404,-114.602 174.389,-123.324 184.53,-120.257 180.404,-114.602"/>
</g>
<!-- Node9&#45;&gt;Node10 -->
<g id="edge10" class="edge"><title>Node9&#45;&gt;Node10</title>
<path fill="none" stroke="midnightblue" d="M139.523,-117.901C123.387,-107.999 102.319,-95.0705 88.6036,-86.6545"/>
<polygon fill="midnightblue" stroke="midnightblue" points="138.007,-121.077 148.361,-123.324 141.669,-115.111 138.007,-121.077"/>
</g>
<!-- Node11&#45;&gt;Node8 -->
<g id="edge14" class="edge"><title>Node11&#45;&gt;Node8</title>
<path fill="none" stroke="midnightblue" d="M434.424,-115.718C425.611,-106.2 414.834,-94.5608 407.603,-86.7511"/>
<polygon fill="midnightblue" stroke="midnightblue" points="431.881,-118.123 441.244,-123.083 437.018,-113.367 431.881,-118.123"/>
</g>
<!-- Node12 -->
<g id="node12" class="node"><title>Node12</title>
<g id="a_node12"><a xlink:href="_file_adapter_8h.html" target="_top" xlink:title=" ">
<polygon fill="white" stroke="black" points="494,-67.5 494,-86.5 633,-86.5 633,-67.5 494,-67.5"/>
<text text-anchor="middle" x="563.5" y="-74.5" font-family="Helvetica,sans-Serif" font-size="10.00">Cpl/Persistent/FileAdapter.h</text>
</a>
</g>
</g>
<!-- Node11&#45;&gt;Node12 -->
<g id="edge13" class="edge"><title>Node11&#45;&gt;Node12</title>
<path fill="none" stroke="midnightblue" d="M476.742,-119.096C498.04,-109.007 527.042,-95.2697 545.521,-86.5164"/>
<polygon fill="midnightblue" stroke="midnightblue" points="475.103,-116 467.564,-123.444 478.099,-122.326 475.103,-116"/>
</g>
</g>
</svg>
