<?xml version="1.0" encoding="UTF-8" standalone="no"?>
<!DOCTYPE svg PUBLIC "-//W3C//DTD SVG 1.1//EN"
 "http://www.w3.org/Graphics/SVG/1.1/DTD/svg11.dtd">
<!-- Generated by graphviz version 2.38.0 (20140413.2041)
 -->
<!-- Title: Cpl/TShell/Maker.h Pages: 1 -->
<svg width="1471pt" height="532pt"
 viewBox="0.00 0.00 1471.37 532.00" xmlns="http://www.w3.org/2000/svg" xmlns:xlink="http://www.w3.org/1999/xlink">
<g id="graph0" class="graph" transform="scale(1 1) rotate(0) translate(4 528)">
<title>Cpl/TShell/Maker.h</title>
<polygon fill="white" stroke="none" points="-4,4 -4,-528 1467.37,-528 1467.37,4 -4,4"/>
<!-- Node1 -->
<g id="node1" class="node"><title>Node1</title>
<g id="a_node1"><a xlink:title=" ">
<polygon fill="#bfbfbf" stroke="black" points="724,-504.5 724,-523.5 824,-523.5 824,-504.5 724,-504.5"/>
<text text-anchor="middle" x="774" y="-511.5" font-family="Helvetica,sans-Serif" font-size="10.00">Cpl/TShell/Maker.h</text>
</a>
</g>
</g>
<!-- Node2 -->
<g id="node2" class="node"><title>Node2</title>
<g id="a_node2"><a xlink:href="_processor_8h.html" target="_top" xlink:title=" ">
<polygon fill="white" stroke="black" points="546.5,-448.5 546.5,-467.5 663.5,-467.5 663.5,-448.5 546.5,-448.5"/>
<text text-anchor="middle" x="605" y="-455.5" font-family="Helvetica,sans-Serif" font-size="10.00">Cpl/TShell/Processor.h</text>
</a>
</g>
</g>
<!-- Node1&#45;&gt;Node2 -->
<g id="edge1" class="edge"><title>Node1&#45;&gt;Node2</title>
<path fill="none" stroke="midnightblue" d="M747.221,-504.444C718.667,-495.32 673.267,-480.813 641.463,-470.651"/>
<polygon fill="midnightblue" stroke="midnightblue" points="642.244,-467.226 631.653,-467.516 640.114,-473.894 642.244,-467.226"/>
</g>
<!-- Node38 -->
<g id="node38" class="node"><title>Node38</title>
<g id="a_node38"><a xlink:href="_line_decoder_8h.html" target="_top" xlink:title=" ">
<polygon fill="white" stroke="black" points="699.5,-448.5 699.5,-467.5 848.5,-467.5 848.5,-448.5 699.5,-448.5"/>
<text text-anchor="middle" x="774" y="-455.5" font-family="Helvetica,sans-Serif" font-size="10.00">Cpl/Text/Frame/LineDecoder.h</text>
</a>
</g>
</g>
<!-- Node1&#45;&gt;Node38 -->
<g id="edge56" class="edge"><title>Node1&#45;&gt;Node38</title>
<path fill="none" stroke="midnightblue" d="M774,-504.083C774,-497.006 774,-486.861 774,-477.986"/>
<polygon fill="midnightblue" stroke="midnightblue" points="777.5,-477.751 774,-467.751 770.5,-477.751 777.5,-477.751"/>
</g>
<!-- Node39 -->
<g id="node39" class="node"><title>Node39</title>
<g id="a_node39"><a xlink:href="_cpl_2_system_2_private___8h.html" target="_top" xlink:title="This file contains a collection of classes, interfaces, etc.">
<polygon fill="white" stroke="black" points="870.5,-336.5 870.5,-355.5 985.5,-355.5 985.5,-336.5 870.5,-336.5"/>
<text text-anchor="middle" x="928" y="-343.5" font-family="Helvetica,sans-Serif" font-size="10.00">Cpl/System/Private_.h</text>
</a>
</g>
</g>
<!-- Node1&#45;&gt;Node39 -->
<g id="edge58" class="edge"><title>Node1&#45;&gt;Node39</title>
<path fill="none" stroke="midnightblue" d="M797.274,-504.428C815.217,-496.931 839.794,-484.633 857,-468 888.258,-437.782 910.444,-390.876 921.013,-365.246"/>
<polygon fill="midnightblue" stroke="midnightblue" points="924.376,-366.26 924.824,-355.674 917.873,-363.671 924.376,-366.26"/>
</g>
<!-- Node3 -->
<g id="node3" class="node"><title>Node3</title>
<g id="a_node3"><a xlink:title=" ">
<polygon fill="white" stroke="#bfbfbf" points="313.5,-0.5 313.5,-19.5 398.5,-19.5 398.5,-0.5 313.5,-0.5"/>
<text text-anchor="middle" x="356" y="-7.5" font-family="Helvetica,sans-Serif" font-size="10.00">colony_config.h</text>
</a>
</g>
</g>
<!-- Node2&#45;&gt;Node3 -->
<g id="edge2" class="edge"><title>Node2&#45;&gt;Node3</title>
<path fill="none" stroke="midnightblue" d="M546.44,-452.48C394.609,-439.978 0,-402.18 0,-347 0,-347 0,-347 0,-121 0,-74.8419 38.8389,-74.7886 81,-56 153.383,-23.7431 245.727,-14.3421 302.853,-11.7545"/>
<polygon fill="midnightblue" stroke="midnightblue" points="303.244,-15.2418 313.096,-11.3466 302.965,-8.2473 303.244,-15.2418"/>
</g>
<!-- Node4 -->
<g id="node4" class="node"><title>Node4</title>
<g id="a_node4"><a xlink:href="_context___8h.html" target="_top" xlink:title=" ">
<polygon fill="white" stroke="black" points="384,-392.5 384,-411.5 496,-411.5 496,-392.5 384,-392.5"/>
<text text-anchor="middle" x="440" y="-399.5" font-family="Helvetica,sans-Serif" font-size="10.00">Cpl/TShell/Context_.h</text>
</a>
</g>
</g>
<!-- Node2&#45;&gt;Node4 -->
<g id="edge3" class="edge"><title>Node2&#45;&gt;Node4</title>
<path fill="none" stroke="midnightblue" d="M578.855,-448.444C550.977,-439.32 506.652,-424.813 475.6,-414.651"/>
<polygon fill="midnightblue" stroke="midnightblue" points="476.615,-411.3 466.022,-411.516 474.438,-417.953 476.615,-411.3"/>
</g>
<!-- Node26 -->
<g id="node26" class="node"><title>Node26</title>
<g id="a_node26"><a xlink:href="_mutex_8h.html" target="_top" xlink:title=" ">
<polygon fill="white" stroke="black" points="1270,-280.5 1270,-299.5 1376,-299.5 1376,-280.5 1270,-280.5"/>
<text text-anchor="middle" x="1323" y="-287.5" font-family="Helvetica,sans-Serif" font-size="10.00">Cpl/System/Mutex.h</text>
</a>
</g>
</g>
<!-- Node2&#45;&gt;Node26 -->
<g id="edge37" class="edge"><title>Node2&#45;&gt;Node26</title>
<path fill="none" stroke="midnightblue" d="M641.841,-448.482C762.034,-420.694 1142.66,-332.695 1276.17,-301.827"/>
<polygon fill="midnightblue" stroke="midnightblue" points="1277.14,-305.196 1286.09,-299.533 1275.56,-298.376 1277.14,-305.196"/>
</g>
<!-- Node27 -->
<g id="node27" class="node"><title>Node27</title>
<g id="a_node27"><a xlink:href="_cpl_2_system_2_api_8h.html" target="_top" xlink:title=" ">
<polygon fill="white" stroke="black" points="652.5,-392.5 652.5,-411.5 745.5,-411.5 745.5,-392.5 652.5,-392.5"/>
<text text-anchor="middle" x="699" y="-399.5" font-family="Helvetica,sans-Serif" font-size="10.00">Cpl/System/Api.h</text>
</a>
</g>
</g>
<!-- Node2&#45;&gt;Node27 -->
<g id="edge39" class="edge"><title>Node2&#45;&gt;Node27</title>
<path fill="none" stroke="midnightblue" d="M620.103,-448.324C634.903,-439.822 657.694,-426.729 674.982,-416.797"/>
<polygon fill="midnightblue" stroke="midnightblue" points="677.007,-419.671 683.935,-411.655 673.52,-413.601 677.007,-419.671"/>
</g>
<!-- Node28 -->
<g id="node28" class="node"><title>Node28</title>
<g id="a_node28"><a xlink:href="_f_string_8h.html" target="_top" xlink:title=" ">
<polygon fill="white" stroke="black" points="104,-336.5 104,-355.5 200,-355.5 200,-336.5 104,-336.5"/>
<text text-anchor="middle" x="152" y="-343.5" font-family="Helvetica,sans-Serif" font-size="10.00">Cpl/Text/FString.h</text>
</a>
</g>
</g>
<!-- Node2&#45;&gt;Node28 -->
<g id="edge40" class="edge"><title>Node2&#45;&gt;Node28</title>
<path fill="none" stroke="midnightblue" d="M554.464,-448.468C507.672,-440.249 436.282,-426.894 375,-412 308.472,-395.831 232.106,-372.52 188.211,-358.652"/>
<polygon fill="midnightblue" stroke="midnightblue" points="189.155,-355.279 178.565,-355.59 187.038,-361.951 189.155,-355.279"/>
</g>
<!-- Node31 -->
<g id="node31" class="node"><title>Node31</title>
<g id="a_node31"><a xlink:href="_stream_encoder_8h.html" target="_top" xlink:title=" ">
<polygon fill="white" stroke="black" points="506.5,-336.5 506.5,-355.5 669.5,-355.5 669.5,-336.5 506.5,-336.5"/>
<text text-anchor="middle" x="588" y="-343.5" font-family="Helvetica,sans-Serif" font-size="10.00">Cpl/Text/Frame/StreamEncoder.h</text>
</a>
</g>
</g>
<!-- Node2&#45;&gt;Node31 -->
<g id="edge46" class="edge"><title>Node2&#45;&gt;Node31</title>
<path fill="none" stroke="midnightblue" d="M603.666,-448.368C600.923,-430.617 594.594,-389.666 590.874,-365.597"/>
<polygon fill="midnightblue" stroke="midnightblue" points="594.314,-364.94 589.328,-355.591 587.396,-366.009 594.314,-364.94"/>
</g>
<!-- Node35 -->
<g id="node35" class="node"><title>Node35</title>
<g id="a_node35"><a xlink:href="_stream_decoder_8h.html" target="_top" xlink:title=" ">
<polygon fill="white" stroke="black" points="689.5,-336.5 689.5,-355.5 852.5,-355.5 852.5,-336.5 689.5,-336.5"/>
<text text-anchor="middle" x="771" y="-343.5" font-family="Helvetica,sans-Serif" font-size="10.00">Cpl/Text/Frame/StreamDecoder.h</text>
</a>
</g>
</g>
<!-- Node2&#45;&gt;Node35 -->
<g id="edge51" class="edge"><title>Node2&#45;&gt;Node35</title>
<path fill="none" stroke="midnightblue" d="M607.924,-448.1C612.934,-434.19 624.449,-407.308 643,-392 662.872,-375.602 689.128,-365.002 712.686,-358.238"/>
<polygon fill="midnightblue" stroke="midnightblue" points="713.846,-361.551 722.591,-355.569 712.025,-354.792 713.846,-361.551"/>
</g>
<!-- Node5 -->
<g id="node5" class="node"><title>Node5</title>
<g id="a_node5"><a xlink:href="_processor_api_8h.html" target="_top" xlink:title=" ">
<polygon fill="white" stroke="black" points="611.5,-280.5 611.5,-299.5 742.5,-299.5 742.5,-280.5 611.5,-280.5"/>
<text text-anchor="middle" x="677" y="-287.5" font-family="Helvetica,sans-Serif" font-size="10.00">Cpl/TShell/ProcessorApi.h</text>
</a>
</g>
</g>
<!-- Node4&#45;&gt;Node5 -->
<g id="edge4" class="edge"><title>Node4&#45;&gt;Node5</title>
<path fill="none" stroke="midnightblue" d="M445.11,-392.34C453.878,-378.266 473.17,-350.542 497,-336 528.273,-316.916 567.286,-305.907 600.99,-299.564"/>
<polygon fill="midnightblue" stroke="midnightblue" points="602.03,-302.935 611.265,-297.742 600.808,-296.042 602.03,-302.935"/>
</g>
<!-- Node20 -->
<g id="node20" class="node"><title>Node20</title>
<g id="a_node20"><a xlink:href="_security_8h.html" target="_top" xlink:title=" ">
<polygon fill="white" stroke="black" points="218.5,-224.5 218.5,-243.5 327.5,-243.5 327.5,-224.5 218.5,-224.5"/>
<text text-anchor="middle" x="273" y="-231.5" font-family="Helvetica,sans-Serif" font-size="10.00">Cpl/TShell/Security.h</text>
</a>
</g>
</g>
<!-- Node4&#45;&gt;Node20 -->
<g id="edge25" class="edge"><title>Node4&#45;&gt;Node20</title>
<path fill="none" stroke="midnightblue" d="M383.627,-396.581C349.664,-391.399 307.274,-380.191 277,-356 248.631,-333.331 237.596,-315.075 247,-280 249.654,-270.103 255.069,-260.131 260.274,-252.099"/>
<polygon fill="midnightblue" stroke="midnightblue" points="263.289,-253.894 266.11,-243.681 257.536,-249.906 263.289,-253.894"/>
</g>
<!-- Node21 -->
<g id="node21" class="node"><title>Node21</title>
<g id="a_node21"><a xlink:href="_command_8h.html" target="_top" xlink:title=" ">
<polygon fill="white" stroke="black" points="399.5,-280.5 399.5,-299.5 516.5,-299.5 516.5,-280.5 399.5,-280.5"/>
<text text-anchor="middle" x="458" y="-287.5" font-family="Helvetica,sans-Serif" font-size="10.00">Cpl/TShell/Command.h</text>
</a>
</g>
</g>
<!-- Node4&#45;&gt;Node21 -->
<g id="edge26" class="edge"><title>Node4&#45;&gt;Node21</title>
<path fill="none" stroke="midnightblue" d="M441.412,-392.368C444.317,-374.617 451.018,-333.666 454.957,-309.597"/>
<polygon fill="midnightblue" stroke="midnightblue" points="458.433,-310.025 456.594,-299.591 451.525,-308.895 458.433,-310.025"/>
</g>
<!-- Node24 -->
<g id="node24" class="node"><title>Node24</title>
<g id="a_node24"><a xlink:href="_map_8h.html" target="_top" xlink:title=" ">
<polygon fill="white" stroke="black" points="286.5,-336.5 286.5,-355.5 391.5,-355.5 391.5,-336.5 286.5,-336.5"/>
<text text-anchor="middle" x="339" y="-343.5" font-family="Helvetica,sans-Serif" font-size="10.00">Cpl/Container/Map.h</text>
</a>
</g>
</g>
<!-- Node4&#45;&gt;Node24 -->
<g id="edge33" class="edge"><title>Node4&#45;&gt;Node24</title>
<path fill="none" stroke="midnightblue" d="M423.773,-392.324C407.649,-383.703 382.7,-370.364 364.036,-360.386"/>
<polygon fill="midnightblue" stroke="midnightblue" points="365.656,-357.283 355.187,-355.655 362.356,-363.456 365.656,-357.283"/>
</g>
<!-- Node6 -->
<g id="node6" class="node"><title>Node6</title>
<g id="a_node6"><a xlink:href="_input_8h.html" target="_top" xlink:title=" ">
<polygon fill="white" stroke="black" points="740.5,-224.5 740.5,-243.5 815.5,-243.5 815.5,-224.5 740.5,-224.5"/>
<text text-anchor="middle" x="778" y="-231.5" font-family="Helvetica,sans-Serif" font-size="10.00">Cpl/Io/Input.h</text>
</a>
</g>
</g>
<!-- Node5&#45;&gt;Node6 -->
<g id="edge5" class="edge"><title>Node5&#45;&gt;Node6</title>
<path fill="none" stroke="midnightblue" d="M693.227,-280.324C709.351,-271.703 734.3,-258.364 752.964,-248.386"/>
<polygon fill="midnightblue" stroke="midnightblue" points="754.644,-251.456 761.813,-243.655 751.344,-245.283 754.644,-251.456"/>
</g>
<!-- Node19 -->
<g id="node19" class="node"><title>Node19</title>
<g id="a_node19"><a xlink:href="_output_8h.html" target="_top" xlink:title=" ">
<polygon fill="white" stroke="black" points="600.5,-224.5 600.5,-243.5 683.5,-243.5 683.5,-224.5 600.5,-224.5"/>
<text text-anchor="middle" x="642" y="-231.5" font-family="Helvetica,sans-Serif" font-size="10.00">Cpl/Io/Output.h</text>
</a>
</g>
</g>
<!-- Node5&#45;&gt;Node19 -->
<g id="edge20" class="edge"><title>Node5&#45;&gt;Node19</title>
<path fill="none" stroke="midnightblue" d="M671.22,-280.083C666.328,-272.534 659.173,-261.495 653.167,-252.23"/>
<polygon fill="midnightblue" stroke="midnightblue" points="656.048,-250.239 647.672,-243.751 650.174,-254.046 656.048,-250.239"/>
</g>
<!-- Node7 -->
<g id="node7" class="node"><title>Node7</title>
<g id="a_node7"><a xlink:href="_text_2_string_8h.html" target="_top" xlink:title=" ">
<polygon fill="white" stroke="black" points="422,-168.5 422,-187.5 512,-187.5 512,-168.5 422,-168.5"/>
<text text-anchor="middle" x="467" y="-175.5" font-family="Helvetica,sans-Serif" font-size="10.00">Cpl/Text/String.h</text>
</a>
</g>
</g>
<!-- Node6&#45;&gt;Node7 -->
<g id="edge6" class="edge"><title>Node6&#45;&gt;Node7</title>
<path fill="none" stroke="midnightblue" d="M740.486,-226.486C686.158,-217.053 585.218,-199.527 522.332,-188.607"/>
<polygon fill="midnightblue" stroke="midnightblue" points="522.649,-185.11 512.197,-186.848 521.451,-192.007 522.649,-185.11"/>
</g>
<!-- Node16 -->
<g id="node16" class="node"><title>Node16</title>
<g id="a_node16"><a xlink:href="_close_8h.html" target="_top" xlink:title=" ">
<polygon fill="white" stroke="black" points="769,-168.5 769,-187.5 847,-187.5 847,-168.5 769,-168.5"/>
<text text-anchor="middle" x="808" y="-175.5" font-family="Helvetica,sans-Serif" font-size="10.00">Cpl/Io/Close.h</text>
</a>
</g>
</g>
<!-- Node6&#45;&gt;Node16 -->
<g id="edge17" class="edge"><title>Node6&#45;&gt;Node16</title>
<path fill="none" stroke="midnightblue" d="M782.954,-224.083C787.104,-216.613 793.153,-205.724 798.267,-196.52"/>
<polygon fill="midnightblue" stroke="midnightblue" points="801.341,-198.192 803.138,-187.751 795.222,-194.793 801.341,-198.192"/>
</g>
<!-- Node18 -->
<g id="node18" class="node"><title>Node18</title>
<g id="a_node18"><a xlink:href="_is_eos_8h.html" target="_top" xlink:title=" ">
<polygon fill="white" stroke="black" points="671.5,-168.5 671.5,-187.5 750.5,-187.5 750.5,-168.5 671.5,-168.5"/>
<text text-anchor="middle" x="711" y="-175.5" font-family="Helvetica,sans-Serif" font-size="10.00">Cpl/Io/IsEos.h</text>
</a>
</g>
</g>
<!-- Node6&#45;&gt;Node18 -->
<g id="edge19" class="edge"><title>Node6&#45;&gt;Node18</title>
<path fill="none" stroke="midnightblue" d="M767.235,-224.324C757.234,-216.263 742.113,-204.077 730.07,-194.369"/>
<polygon fill="midnightblue" stroke="midnightblue" points="731.943,-191.384 721.961,-187.834 727.55,-196.834 731.943,-191.384"/>
</g>
<!-- Node8 -->
<g id="node8" class="node"><title>Node8</title>
<g id="a_node8"><a xlink:title=" ">
<polygon fill="white" stroke="#bfbfbf" points="1120.5,-56.5 1120.5,-75.5 1197.5,-75.5 1197.5,-56.5 1120.5,-56.5"/>
<text text-anchor="middle" x="1159" y="-63.5" font-family="Helvetica,sans-Serif" font-size="10.00">colony_map.h</text>
</a>
</g>
</g>
<!-- Node7&#45;&gt;Node8 -->
<g id="edge7" class="edge"><title>Node7&#45;&gt;Node8</title>
<path fill="none" stroke="midnightblue" d="M512.077,-169.459C515.096,-168.963 518.092,-168.473 521,-168 740.605,-132.318 1003.01,-91.282 1109.98,-74.6207"/>
<polygon fill="midnightblue" stroke="midnightblue" points="1110.8,-78.0353 1120.14,-73.0384 1109.72,-71.1186 1110.8,-78.0353"/>
</g>
<!-- Node9 -->
<g id="node9" class="node"><title>Node9</title>
<g id="a_node9"><a xlink:href="_key_8h.html" target="_top" xlink:title=" ">
<polygon fill="white" stroke="black" points="533,-112.5 533,-131.5 637,-131.5 637,-112.5 533,-112.5"/>
<text text-anchor="middle" x="585" y="-119.5" font-family="Helvetica,sans-Serif" font-size="10.00">Cpl/Container/Key.h</text>
</a>
</g>
</g>
<!-- Node7&#45;&gt;Node9 -->
<g id="edge8" class="edge"><title>Node7&#45;&gt;Node9</title>
<path fill="none" stroke="midnightblue" d="M485.697,-168.444C504.944,-159.636 535.152,-145.812 557.2,-135.722"/>
<polygon fill="midnightblue" stroke="midnightblue" points="558.753,-138.86 566.39,-131.516 555.84,-132.495 558.753,-138.86"/>
</g>
<!-- Node14 -->
<g id="node14" class="node"><title>Node14</title>
<g id="a_node14"><a xlink:title=" ">
<polygon fill="white" stroke="#bfbfbf" points="384,-112.5 384,-131.5 436,-131.5 436,-112.5 384,-112.5"/>
<text text-anchor="middle" x="410" y="-119.5" font-family="Helvetica,sans-Serif" font-size="10.00">stdarg.h</text>
</a>
</g>
</g>
<!-- Node7&#45;&gt;Node14 -->
<g id="edge15" class="edge"><title>Node7&#45;&gt;Node14</title>
<path fill="none" stroke="midnightblue" d="M457.842,-168.324C449.499,-160.42 436.968,-148.548 426.823,-138.938"/>
<polygon fill="midnightblue" stroke="midnightblue" points="428.991,-136.171 419.325,-131.834 424.177,-141.252 428.991,-136.171"/>
</g>
<!-- Node15 -->
<g id="node15" class="node"><title>Node15</title>
<g id="a_node15"><a xlink:title=" ">
<polygon fill="white" stroke="#bfbfbf" points="454,-112.5 454,-131.5 508,-131.5 508,-112.5 454,-112.5"/>
<text text-anchor="middle" x="481" y="-119.5" font-family="Helvetica,sans-Serif" font-size="10.00">iostream</text>
</a>
</g>
</g>
<!-- Node7&#45;&gt;Node15 -->
<g id="edge16" class="edge"><title>Node7&#45;&gt;Node15</title>
<path fill="none" stroke="midnightblue" d="M469.312,-168.083C471.167,-160.927 473.835,-150.635 476.154,-141.691"/>
<polygon fill="midnightblue" stroke="midnightblue" points="479.609,-142.309 478.731,-131.751 472.834,-140.553 479.609,-142.309"/>
</g>
<!-- Node9&#45;&gt;Node8 -->
<g id="edge14" class="edge"><title>Node9&#45;&gt;Node8</title>
<path fill="none" stroke="midnightblue" d="M637.205,-116.089C747.531,-105.71 1003.03,-81.6731 1110.25,-71.5863"/>
<polygon fill="midnightblue" stroke="midnightblue" points="1110.83,-75.0474 1120.46,-70.6261 1110.17,-68.0782 1110.83,-75.0474"/>
</g>
<!-- Node10 -->
<g id="node10" class="node"><title>Node10</title>
<g id="a_node10"><a xlink:href="_fatal_error_8h.html" target="_top" xlink:title=" ">
<polygon fill="white" stroke="black" points="525,-56.5 525,-75.5 647,-75.5 647,-56.5 525,-56.5"/>
<text text-anchor="middle" x="586" y="-63.5" font-family="Helvetica,sans-Serif" font-size="10.00">Cpl/System/FatalError.h</text>
</a>
</g>
</g>
<!-- Node9&#45;&gt;Node10 -->
<g id="edge9" class="edge"><title>Node9&#45;&gt;Node10</title>
<path fill="none" stroke="midnightblue" d="M585.165,-112.083C585.296,-105.006 585.484,-94.8611 585.648,-85.9865"/>
<polygon fill="midnightblue" stroke="midnightblue" points="589.152,-85.8142 585.838,-75.7511 582.153,-85.6845 589.152,-85.8142"/>
</g>
<!-- Node12 -->
<g id="node12" class="node"><title>Node12</title>
<g id="a_node12"><a xlink:title=" ">
<polygon fill="white" stroke="#bfbfbf" points="390.5,-56.5 390.5,-75.5 439.5,-75.5 439.5,-56.5 390.5,-56.5"/>
<text text-anchor="middle" x="415" y="-63.5" font-family="Helvetica,sans-Serif" font-size="10.00">stdint.h</text>
</a>
</g>
</g>
<!-- Node9&#45;&gt;Node12 -->
<g id="edge12" class="edge"><title>Node9&#45;&gt;Node12</title>
<path fill="none" stroke="midnightblue" d="M558.063,-112.444C528.664,-103.105 481.513,-88.1276 449.444,-77.9409"/>
<polygon fill="midnightblue" stroke="midnightblue" points="450.193,-74.5068 439.603,-74.8151 448.074,-81.1783 450.193,-74.5068"/>
</g>
<!-- Node13 -->
<g id="node13" class="node"><title>Node13</title>
<g id="a_node13"><a xlink:title=" ">
<polygon fill="white" stroke="#bfbfbf" points="457.5,-56.5 457.5,-75.5 506.5,-75.5 506.5,-56.5 457.5,-56.5"/>
<text text-anchor="middle" x="482" y="-63.5" font-family="Helvetica,sans-Serif" font-size="10.00">string.h</text>
</a>
</g>
</g>
<!-- Node9&#45;&gt;Node13 -->
<g id="edge13" class="edge"><title>Node9&#45;&gt;Node13</title>
<path fill="none" stroke="midnightblue" d="M568.451,-112.324C552.008,-103.703 526.565,-90.3643 507.532,-80.3855"/>
<polygon fill="midnightblue" stroke="midnightblue" points="508.989,-77.198 498.508,-75.6545 505.739,-83.3977 508.989,-77.198"/>
</g>
<!-- Node10&#45;&gt;Node3 -->
<g id="edge11" class="edge"><title>Node10&#45;&gt;Node3</title>
<path fill="none" stroke="midnightblue" d="M549.556,-56.4435C509.601,-47.0629 445.413,-31.9926 402.015,-21.8036"/>
<polygon fill="midnightblue" stroke="midnightblue" points="402.809,-18.3948 392.274,-19.5164 401.209,-25.2095 402.809,-18.3948"/>
</g>
<!-- Node11 -->
<g id="node11" class="node"><title>Node11</title>
<g id="a_node11"><a xlink:title=" ">
<polygon fill="white" stroke="#bfbfbf" points="560,-0.5 560,-19.5 612,-19.5 612,-0.5 560,-0.5"/>
<text text-anchor="middle" x="586" y="-7.5" font-family="Helvetica,sans-Serif" font-size="10.00">stddef.h</text>
</a>
</g>
</g>
<!-- Node10&#45;&gt;Node11 -->
<g id="edge10" class="edge"><title>Node10&#45;&gt;Node11</title>
<path fill="none" stroke="midnightblue" d="M586,-56.083C586,-49.0059 586,-38.8611 586,-29.9865"/>
<polygon fill="midnightblue" stroke="midnightblue" points="589.5,-29.751 586,-19.7511 582.5,-29.7511 589.5,-29.751"/>
</g>
<!-- Node17 -->
<g id="node17" class="node"><title>Node17</title>
<g id="a_node17"><a xlink:href="_item_8h.html" target="_top" xlink:title=" ">
<polygon fill="white" stroke="black" points="938,-112.5 938,-131.5 1044,-131.5 1044,-112.5 938,-112.5"/>
<text text-anchor="middle" x="991" y="-119.5" font-family="Helvetica,sans-Serif" font-size="10.00">Cpl/Container/Item.h</text>
</a>
</g>
</g>
<!-- Node16&#45;&gt;Node17 -->
<g id="edge18" class="edge"><title>Node16&#45;&gt;Node17</title>
<path fill="none" stroke="midnightblue" d="M836.997,-168.444C868.185,-159.241 917.93,-144.562 952.408,-134.388"/>
<polygon fill="midnightblue" stroke="midnightblue" points="953.538,-137.704 962.139,-131.516 951.557,-130.99 953.538,-137.704"/>
</g>
<!-- Node19&#45;&gt;Node7 -->
<g id="edge21" class="edge"><title>Node19&#45;&gt;Node7</title>
<path fill="none" stroke="midnightblue" d="M614.271,-224.444C584.574,-215.28 537.284,-200.688 504.331,-190.519"/>
<polygon fill="midnightblue" stroke="midnightblue" points="505.187,-187.121 494.6,-187.516 503.123,-193.809 505.187,-187.121"/>
</g>
<!-- Node19&#45;&gt;Node14 -->
<g id="edge24" class="edge"><title>Node19&#45;&gt;Node14</title>
<path fill="none" stroke="midnightblue" d="M600.224,-230.794C540.927,-226.708 436.875,-215.697 413,-188 402.185,-175.454 402.775,-155.957 405.252,-141.586"/>
<polygon fill="midnightblue" stroke="midnightblue" points="408.677,-142.309 407.358,-131.797 401.833,-140.837 408.677,-142.309"/>
</g>
<!-- Node19&#45;&gt;Node16 -->
<g id="edge22" class="edge"><title>Node19&#45;&gt;Node16</title>
<path fill="none" stroke="midnightblue" d="M668.303,-224.444C696.351,-215.32 740.944,-200.813 772.184,-190.651"/>
<polygon fill="midnightblue" stroke="midnightblue" points="773.393,-193.938 781.82,-187.516 771.228,-187.282 773.393,-193.938"/>
</g>
<!-- Node19&#45;&gt;Node18 -->
<g id="edge23" class="edge"><title>Node19&#45;&gt;Node18</title>
<path fill="none" stroke="midnightblue" d="M653.086,-224.324C663.486,-216.185 679.261,-203.839 691.722,-194.087"/>
<polygon fill="midnightblue" stroke="midnightblue" points="693.994,-196.753 699.712,-187.834 689.68,-191.241 693.994,-196.753"/>
</g>
<!-- Node21&#45;&gt;Node19 -->
<g id="edge31" class="edge"><title>Node21&#45;&gt;Node19</title>
<path fill="none" stroke="midnightblue" d="M487.155,-280.444C518.513,-271.241 568.531,-256.562 603.197,-246.388"/>
<polygon fill="midnightblue" stroke="midnightblue" points="604.371,-249.691 612.981,-243.516 602.4,-242.974 604.371,-249.691"/>
</g>
<!-- Node21&#45;&gt;Node20 -->
<g id="edge32" class="edge"><title>Node21&#45;&gt;Node20</title>
<path fill="none" stroke="midnightblue" d="M428.686,-280.444C397.158,-271.241 346.869,-256.562 312.014,-246.388"/>
<polygon fill="midnightblue" stroke="midnightblue" points="312.757,-242.959 302.177,-243.516 310.795,-249.678 312.757,-242.959"/>
</g>
<!-- Node22 -->
<g id="node22" class="node"><title>Node22</title>
<g id="a_node22"><a xlink:href="_map_item_8h.html" target="_top" xlink:title=" ">
<polygon fill="white" stroke="black" points="395.5,-224.5 395.5,-243.5 520.5,-243.5 520.5,-224.5 395.5,-224.5"/>
<text text-anchor="middle" x="458" y="-231.5" font-family="Helvetica,sans-Serif" font-size="10.00">Cpl/Container/MapItem.h</text>
</a>
</g>
</g>
<!-- Node21&#45;&gt;Node22 -->
<g id="edge27" class="edge"><title>Node21&#45;&gt;Node22</title>
<path fill="none" stroke="midnightblue" d="M458,-280.083C458,-273.006 458,-262.861 458,-253.986"/>
<polygon fill="midnightblue" stroke="midnightblue" points="461.5,-253.751 458,-243.751 454.5,-253.751 461.5,-253.751"/>
</g>
<!-- Node23 -->
<g id="node23" class="node"><title>Node23</title>
<g id="a_node23"><a xlink:href="_dict_item_8h.html" target="_top" xlink:title=" ">
<polygon fill="white" stroke="black" points="530.5,-168.5 530.5,-187.5 653.5,-187.5 653.5,-168.5 530.5,-168.5"/>
<text text-anchor="middle" x="592" y="-175.5" font-family="Helvetica,sans-Serif" font-size="10.00">Cpl/Container/DictItem.h</text>
</a>
</g>
</g>
<!-- Node22&#45;&gt;Node23 -->
<g id="edge28" class="edge"><title>Node22&#45;&gt;Node23</title>
<path fill="none" stroke="midnightblue" d="M479.233,-224.444C501.384,-215.517 536.319,-201.439 561.436,-191.317"/>
<polygon fill="midnightblue" stroke="midnightblue" points="562.9,-194.501 570.867,-187.516 560.283,-188.008 562.9,-194.501"/>
</g>
<!-- Node23&#45;&gt;Node9 -->
<g id="edge30" class="edge"><title>Node23&#45;&gt;Node9</title>
<path fill="none" stroke="midnightblue" d="M590.844,-168.083C589.916,-160.927 588.582,-150.635 587.423,-141.691"/>
<polygon fill="midnightblue" stroke="midnightblue" points="590.891,-141.218 586.134,-131.751 583.949,-142.118 590.891,-141.218"/>
</g>
<!-- Node23&#45;&gt;Node17 -->
<g id="edge29" class="edge"><title>Node23&#45;&gt;Node17</title>
<path fill="none" stroke="midnightblue" d="M653.906,-168.622C728.33,-158.549 852.566,-141.735 927.634,-131.576"/>
<polygon fill="midnightblue" stroke="midnightblue" points="928.45,-134.997 937.89,-130.188 927.511,-128.061 928.45,-134.997"/>
</g>
<!-- Node25 -->
<g id="node25" class="node"><title>Node25</title>
<g id="a_node25"><a xlink:href="_avl_tree___8h.html" target="_top" xlink:title=" ">
<polygon fill="white" stroke="black" points="256.5,-280.5 256.5,-299.5 381.5,-299.5 381.5,-280.5 256.5,-280.5"/>
<text text-anchor="middle" x="319" y="-287.5" font-family="Helvetica,sans-Serif" font-size="10.00">Cpl/Container/AvlTree_.h</text>
</a>
</g>
</g>
<!-- Node24&#45;&gt;Node25 -->
<g id="edge34" class="edge"><title>Node24&#45;&gt;Node25</title>
<path fill="none" stroke="midnightblue" d="M335.697,-336.083C333.018,-328.849 329.151,-318.409 325.814,-309.397"/>
<polygon fill="midnightblue" stroke="midnightblue" points="328.996,-307.913 322.241,-299.751 322.432,-310.344 328.996,-307.913"/>
</g>
<!-- Node25&#45;&gt;Node3 -->
<g id="edge35" class="edge"><title>Node25&#45;&gt;Node3</title>
<path fill="none" stroke="midnightblue" d="M323.99,-280.49C334.089,-262.436 356,-218.693 356,-179 356,-179 356,-179 356,-121 356,-88.948 356,-51.6426 356,-29.7489"/>
<polygon fill="midnightblue" stroke="midnightblue" points="359.5,-29.5577 356,-19.5578 352.5,-29.5578 359.5,-29.5577"/>
</g>
<!-- Node25&#45;&gt;Node22 -->
<g id="edge36" class="edge"><title>Node25&#45;&gt;Node22</title>
<path fill="none" stroke="midnightblue" d="M341.025,-280.444C364.104,-271.478 400.562,-257.314 426.641,-247.183"/>
<polygon fill="midnightblue" stroke="midnightblue" points="428.024,-250.4 436.078,-243.516 425.489,-243.875 428.024,-250.4"/>
</g>
<!-- Node26&#45;&gt;Node8 -->
<g id="edge38" class="edge"><title>Node26&#45;&gt;Node8</title>
<path fill="none" stroke="midnightblue" d="M1376.04,-284.219C1421.66,-277.508 1477.56,-261.562 1460,-224 1414.35,-126.347 1280.29,-88.0916 1207.45,-74.2064"/>
<polygon fill="midnightblue" stroke="midnightblue" points="1208.06,-70.76 1197.59,-72.4052 1206.8,-77.646 1208.06,-70.76"/>
</g>
<!-- Node28&#45;&gt;Node7 -->
<g id="edge45" class="edge"><title>Node28&#45;&gt;Node7</title>
<path fill="none" stroke="midnightblue" d="M155.605,-336.167C166.546,-309.546 199.215,-231.464 209,-224 240.056,-200.312 345.633,-188.151 411.717,-182.714"/>
<polygon fill="midnightblue" stroke="midnightblue" points="412.276,-186.18 421.967,-181.898 411.721,-179.203 412.276,-186.18"/>
</g>
<!-- Node29 -->
<g id="node29" class="node"><title>Node29</title>
<g id="a_node29"><a xlink:href="_f_string___8h.html" target="_top" xlink:title=" ">
<polygon fill="white" stroke="black" points="60.5,-280.5 60.5,-299.5 161.5,-299.5 161.5,-280.5 60.5,-280.5"/>
<text text-anchor="middle" x="111" y="-287.5" font-family="Helvetica,sans-Serif" font-size="10.00">Cpl/Text/FString_.h</text>
</a>
</g>
</g>
<!-- Node28&#45;&gt;Node29 -->
<g id="edge41" class="edge"><title>Node28&#45;&gt;Node29</title>
<path fill="none" stroke="midnightblue" d="M145.23,-336.083C139.438,-328.455 130.942,-317.264 123.862,-307.941"/>
<polygon fill="midnightblue" stroke="midnightblue" points="126.479,-305.599 117.644,-299.751 120.904,-309.832 126.479,-305.599"/>
</g>
<!-- Node29&#45;&gt;Node3 -->
<g id="edge42" class="edge"><title>Node29&#45;&gt;Node3</title>
<path fill="none" stroke="midnightblue" d="M96.5396,-280.435C84.2994,-272.469 67.1689,-259.514 57,-244 40.5001,-218.828 38,-209.098 38,-179 38,-179 38,-179 38,-121 38,-65.5233 213.039,-31.8164 303.389,-18.1131"/>
<polygon fill="midnightblue" stroke="midnightblue" points="304.067,-21.5509 313.443,-16.6178 303.037,-14.6271 304.067,-21.5509"/>
</g>
<!-- Node30 -->
<g id="node30" class="node"><title>Node30</title>
<g id="a_node30"><a xlink:href="_string___8h.html" target="_top" xlink:title=" ">
<polygon fill="white" stroke="black" points="66.5,-224.5 66.5,-243.5 161.5,-243.5 161.5,-224.5 66.5,-224.5"/>
<text text-anchor="middle" x="114" y="-231.5" font-family="Helvetica,sans-Serif" font-size="10.00">Cpl/Text/String_.h</text>
</a>
</g>
</g>
<!-- Node29&#45;&gt;Node30 -->
<g id="edge43" class="edge"><title>Node29&#45;&gt;Node30</title>
<path fill="none" stroke="midnightblue" d="M111.495,-280.083C111.889,-273.006 112.452,-262.861 112.945,-253.986"/>
<polygon fill="midnightblue" stroke="midnightblue" points="116.454,-253.93 113.514,-243.751 109.464,-253.542 116.454,-253.93"/>
</g>
<!-- Node30&#45;&gt;Node7 -->
<g id="edge44" class="edge"><title>Node30&#45;&gt;Node7</title>
<path fill="none" stroke="midnightblue" d="M161.607,-225.717C226.585,-215.777 342.808,-197.998 411.611,-187.473"/>
<polygon fill="midnightblue" stroke="midnightblue" points="412.463,-190.884 421.819,-185.912 411.404,-183.964 412.463,-190.884"/>
</g>
<!-- Node31&#45;&gt;Node19 -->
<g id="edge50" class="edge"><title>Node31&#45;&gt;Node19</title>
<path fill="none" stroke="midnightblue" d="M588.484,-336.115C589.498,-323.138 592.601,-298.531 602,-280 607.532,-269.093 616.363,-258.756 624.321,-250.747"/>
<polygon fill="midnightblue" stroke="midnightblue" points="627.015,-253.013 631.834,-243.578 622.183,-247.949 627.015,-253.013"/>
</g>
<!-- Node32 -->
<g id="node32" class="node"><title>Node32</title>
<g id="a_node32"><a xlink:href="_encoder___8h.html" target="_top" xlink:title=" ">
<polygon fill="white" stroke="black" points="921.5,-280.5 921.5,-299.5 1058.5,-299.5 1058.5,-280.5 921.5,-280.5"/>
<text text-anchor="middle" x="990" y="-287.5" font-family="Helvetica,sans-Serif" font-size="10.00">Cpl/Text/Frame/Encoder_.h</text>
</a>
</g>
</g>
<!-- Node31&#45;&gt;Node32 -->
<g id="edge47" class="edge"><title>Node31&#45;&gt;Node32</title>
<path fill="none" stroke="midnightblue" d="M651.698,-336.444C723.737,-326.767 840.849,-311.035 916.648,-300.853"/>
<polygon fill="midnightblue" stroke="midnightblue" points="917.155,-304.317 926.6,-299.516 916.223,-297.379 917.155,-304.317"/>
</g>
<!-- Node33 -->
<g id="node33" class="node"><title>Node33</title>
<g id="a_node33"><a xlink:href="_encoder_8h.html" target="_top" xlink:title=" ">
<polygon fill="white" stroke="black" points="879.5,-224.5 879.5,-243.5 1010.5,-243.5 1010.5,-224.5 879.5,-224.5"/>
<text text-anchor="middle" x="945" y="-231.5" font-family="Helvetica,sans-Serif" font-size="10.00">Cpl/Text/Frame/Encoder.h</text>
</a>
</g>
</g>
<!-- Node32&#45;&gt;Node33 -->
<g id="edge48" class="edge"><title>Node32&#45;&gt;Node33</title>
<path fill="none" stroke="midnightblue" d="M982.569,-280.083C976.147,-272.377 966.694,-261.033 958.878,-251.653"/>
<polygon fill="midnightblue" stroke="midnightblue" points="961.383,-249.193 952.293,-243.751 956.006,-253.674 961.383,-249.193"/>
</g>
<!-- Node34 -->
<g id="node34" class="node"><title>Node34</title>
<g id="a_node34"><a xlink:title=" ">
<polygon fill="white" stroke="#bfbfbf" points="903,-168.5 903,-187.5 951,-187.5 951,-168.5 903,-168.5"/>
<text text-anchor="middle" x="927" y="-175.5" font-family="Helvetica,sans-Serif" font-size="10.00">stdlib.h</text>
</a>
</g>
</g>
<!-- Node33&#45;&gt;Node34 -->
<g id="edge49" class="edge"><title>Node33&#45;&gt;Node34</title>
<path fill="none" stroke="midnightblue" d="M942.028,-224.083C939.616,-216.849 936.136,-206.409 933.132,-197.397"/>
<polygon fill="midnightblue" stroke="midnightblue" points="936.4,-196.131 929.917,-187.751 929.759,-198.345 936.4,-196.131"/>
</g>
<!-- Node35&#45;&gt;Node6 -->
<g id="edge55" class="edge"><title>Node35&#45;&gt;Node6</title>
<path fill="none" stroke="midnightblue" d="M771.549,-336.368C772.679,-318.617 775.285,-277.666 776.817,-253.597"/>
<polygon fill="midnightblue" stroke="midnightblue" points="780.311,-253.794 777.453,-243.591 773.325,-253.349 780.311,-253.794"/>
</g>
<!-- Node36 -->
<g id="node36" class="node"><title>Node36</title>
<g id="a_node36"><a xlink:href="_decoder___8h.html" target="_top" xlink:title=" ">
<polygon fill="white" stroke="black" points="1076.5,-280.5 1076.5,-299.5 1213.5,-299.5 1213.5,-280.5 1076.5,-280.5"/>
<text text-anchor="middle" x="1145" y="-287.5" font-family="Helvetica,sans-Serif" font-size="10.00">Cpl/Text/Frame/Decoder_.h</text>
</a>
</g>
</g>
<!-- Node35&#45;&gt;Node36 -->
<g id="edge52" class="edge"><title>Node35&#45;&gt;Node36</title>
<path fill="none" stroke="midnightblue" d="M830.261,-336.444C897.009,-326.806 1005.35,-311.163 1075.89,-300.978"/>
<polygon fill="midnightblue" stroke="midnightblue" points="1076.62,-304.41 1086.02,-299.516 1075.62,-297.481 1076.62,-304.41"/>
</g>
<!-- Node37 -->
<g id="node37" class="node"><title>Node37</title>
<g id="a_node37"><a xlink:href="_decoder_8h.html" target="_top" xlink:title=" ">
<polygon fill="white" stroke="black" points="1028.5,-224.5 1028.5,-243.5 1159.5,-243.5 1159.5,-224.5 1028.5,-224.5"/>
<text text-anchor="middle" x="1094" y="-231.5" font-family="Helvetica,sans-Serif" font-size="10.00">Cpl/Text/Frame/Decoder.h</text>
</a>
</g>
</g>
<!-- Node36&#45;&gt;Node37 -->
<g id="edge53" class="edge"><title>Node36&#45;&gt;Node37</title>
<path fill="none" stroke="midnightblue" d="M1136.58,-280.083C1129.15,-272.22 1118.15,-260.569 1109.19,-251.081"/>
<polygon fill="midnightblue" stroke="midnightblue" points="1111.68,-248.618 1102.26,-243.751 1106.59,-253.424 1111.68,-248.618"/>
</g>
<!-- Node37&#45;&gt;Node34 -->
<g id="edge54" class="edge"><title>Node37&#45;&gt;Node34</title>
<path fill="none" stroke="midnightblue" d="M1067.54,-224.444C1038.66,-215.105 992.339,-200.128 960.836,-189.941"/>
<polygon fill="midnightblue" stroke="midnightblue" points="961.761,-186.562 951.169,-186.815 959.607,-193.222 961.761,-186.562"/>
</g>
<!-- Node38&#45;&gt;Node35 -->
<g id="edge57" class="edge"><title>Node38&#45;&gt;Node35</title>
<path fill="none" stroke="midnightblue" d="M773.765,-448.368C773.28,-430.617 772.164,-389.666 771.507,-365.597"/>
<polygon fill="midnightblue" stroke="midnightblue" points="775.006,-365.492 771.234,-355.591 768.008,-365.683 775.006,-365.492"/>
</g>
<!-- Node39&#45;&gt;Node7 -->
<g id="edge59" class="edge"><title>Node39&#45;&gt;Node7</title>
<path fill="none" stroke="midnightblue" d="M870.416,-337.171C777.214,-324.483 603.489,-300.759 602,-300 560.271,-278.732 564.314,-254.766 529,-224 516.25,-212.892 500.872,-201.718 488.621,-193.283"/>
<polygon fill="midnightblue" stroke="midnightblue" points="490.576,-190.381 480.335,-187.666 486.648,-196.175 490.576,-190.381"/>
</g>
<!-- Node39&#45;&gt;Node26 -->
<g id="edge60" class="edge"><title>Node39&#45;&gt;Node26</title>
<path fill="none" stroke="midnightblue" d="M985.859,-337.09C1058.82,-327.116 1183.84,-310.025 1259.41,-299.693"/>
<polygon fill="midnightblue" stroke="midnightblue" points="1260.3,-303.104 1269.74,-298.282 1259.35,-296.169 1260.3,-303.104"/>
</g>
<!-- Node40 -->
<g id="node40" class="node"><title>Node40</title>
<g id="a_node40"><a xlink:href="_system_2_trace_8h.html" target="_top" xlink:title=" ">
<polygon fill="white" stroke="black" points="799,-280.5 799,-299.5 903,-299.5 903,-280.5 799,-280.5"/>
<text text-anchor="middle" x="851" y="-287.5" font-family="Helvetica,sans-Serif" font-size="10.00">Cpl/System/Trace.h</text>
</a>
</g>
</g>
<!-- Node39&#45;&gt;Node40 -->
<g id="edge61" class="edge"><title>Node39&#45;&gt;Node40</title>
<path fill="none" stroke="midnightblue" d="M915.629,-336.324C903.842,-328.058 885.868,-315.453 871.864,-305.632"/>
<polygon fill="midnightblue" stroke="midnightblue" points="873.538,-302.531 863.341,-299.655 869.518,-308.262 873.538,-302.531"/>
</g>
<!-- Node45 -->
<g id="node45" class="node"><title>Node45</title>
<g id="a_node45"><a xlink:href="_private_startup___8h.html" target="_top" xlink:title="This file contains a collection of classes, interfaces, etc.">
<polygon fill="white" stroke="black" points="1305,-224.5 1305,-243.5 1451,-243.5 1451,-224.5 1305,-224.5"/>
<text text-anchor="middle" x="1378" y="-231.5" font-family="Helvetica,sans-Serif" font-size="10.00">Cpl/System/PrivateStartup_.h</text>
</a>
</g>
</g>
<!-- Node39&#45;&gt;Node45 -->
<g id="edge72" class="edge"><title>Node39&#45;&gt;Node45</title>
<path fill="none" stroke="midnightblue" d="M985.615,-341.668C1045.82,-336.928 1142.41,-325.747 1222,-300 1240.53,-294.004 1243.22,-287.952 1261,-280 1288.47,-267.717 1320.39,-255.577 1343.94,-247.007"/>
<polygon fill="midnightblue" stroke="midnightblue" points="1345.27,-250.25 1353.49,-243.563 1342.9,-243.665 1345.27,-250.25"/>
</g>
<!-- Node40&#45;&gt;Node3 -->
<g id="edge62" class="edge"><title>Node40&#45;&gt;Node3</title>
<path fill="none" stroke="midnightblue" d="M854.329,-280.323C861.792,-259.331 877.582,-204.822 856,-168 804.484,-80.1071 752.391,-88.9828 656,-56 572.507,-27.4306 469.791,-16.9819 408.784,-13.1721"/>
<polygon fill="midnightblue" stroke="midnightblue" points="408.814,-9.66799 398.626,-12.5754 408.404,-16.6559 408.814,-9.66799"/>
</g>
<!-- Node40&#45;&gt;Node7 -->
<g id="edge63" class="edge"><title>Node40&#45;&gt;Node7</title>
<path fill="none" stroke="midnightblue" d="M825.376,-280.353C800.844,-271.851 762.949,-258.126 731,-244 713.184,-236.123 710.393,-230.416 692,-224 661.371,-213.316 578.649,-198.013 522.512,-188.292"/>
<polygon fill="midnightblue" stroke="midnightblue" points="522.807,-184.792 512.358,-186.545 521.619,-191.69 522.807,-184.792"/>
</g>
<!-- Node40&#45;&gt;Node19 -->
<g id="edge71" class="edge"><title>Node40&#45;&gt;Node19</title>
<path fill="none" stroke="midnightblue" d="M817.883,-280.444C781.882,-271.142 724.23,-256.246 684.814,-246.062"/>
<polygon fill="midnightblue" stroke="midnightblue" points="685.519,-242.629 674.962,-243.516 683.768,-249.407 685.519,-242.629"/>
</g>
<!-- Node41 -->
<g id="node41" class="node"><title>Node41</title>
<g id="a_node41"><a xlink:href="_thread_8h.html" target="_top" xlink:title=" ">
<polygon fill="white" stroke="black" points="1177.5,-224.5 1177.5,-243.5 1286.5,-243.5 1286.5,-224.5 1177.5,-224.5"/>
<text text-anchor="middle" x="1232" y="-231.5" font-family="Helvetica,sans-Serif" font-size="10.00">Cpl/System/Thread.h</text>
</a>
</g>
</g>
<!-- Node40&#45;&gt;Node41 -->
<g id="edge64" class="edge"><title>Node40&#45;&gt;Node41</title>
<path fill="none" stroke="midnightblue" d="M903.24,-281.269C906.203,-280.838 909.139,-280.412 912,-280 915.149,-279.546 1074.59,-257.129 1167.19,-244.111"/>
<polygon fill="midnightblue" stroke="midnightblue" points="1167.9,-247.546 1177.31,-242.688 1166.92,-240.614 1167.9,-247.546"/>
</g>
<!-- Node41&#45;&gt;Node8 -->
<g id="edge65" class="edge"><title>Node41&#45;&gt;Node8</title>
<path fill="none" stroke="midnightblue" d="M1286.74,-225.231C1328.71,-216.675 1376.42,-199.705 1357,-168 1324.64,-115.158 1254.97,-88.8687 1207.53,-76.6118"/>
<polygon fill="midnightblue" stroke="midnightblue" points="1208.31,-73.2001 1197.77,-74.2048 1206.64,-79.9967 1208.31,-73.2001"/>
</g>
<!-- Node41&#45;&gt;Node34 -->
<g id="edge70" class="edge"><title>Node41&#45;&gt;Node34</title>
<path fill="none" stroke="midnightblue" d="M1177.23,-224.618C1114.32,-214.88 1013.94,-198.973 961.009,-187.999"/>
<polygon fill="midnightblue" stroke="midnightblue" points="961.591,-184.544 951.08,-185.873 960.126,-191.389 961.591,-184.544"/>
</g>
<!-- Node42 -->
<g id="node42" class="node"><title>Node42</title>
<g id="a_node42"><a xlink:href="_runnable_8h.html" target="_top" xlink:title=" ">
<polygon fill="white" stroke="black" points="1229.5,-168.5 1229.5,-187.5 1348.5,-187.5 1348.5,-168.5 1229.5,-168.5"/>
<text text-anchor="middle" x="1289" y="-175.5" font-family="Helvetica,sans-Serif" font-size="10.00">Cpl/System/Runnable.h</text>
</a>
</g>
</g>
<!-- Node41&#45;&gt;Node42 -->
<g id="edge66" class="edge"><title>Node41&#45;&gt;Node42</title>
<path fill="none" stroke="midnightblue" d="M1241.16,-224.324C1249.5,-216.42 1262.03,-204.548 1272.18,-194.938"/>
<polygon fill="midnightblue" stroke="midnightblue" points="1274.82,-197.252 1279.68,-187.834 1270.01,-192.171 1274.82,-197.252"/>
</g>
<!-- Node43 -->
<g id="node43" class="node"><title>Node43</title>
<g id="a_node43"><a xlink:href="_signable_8h.html" target="_top" xlink:title=" ">
<polygon fill="white" stroke="black" points="969,-168.5 969,-187.5 1085,-187.5 1085,-168.5 969,-168.5"/>
<text text-anchor="middle" x="1027" y="-175.5" font-family="Helvetica,sans-Serif" font-size="10.00">Cpl/System/Signable.h</text>
</a>
</g>
</g>
<!-- Node41&#45;&gt;Node43 -->
<g id="edge67" class="edge"><title>Node41&#45;&gt;Node43</title>
<path fill="none" stroke="midnightblue" d="M1199.52,-224.444C1164.28,-215.162 1107.9,-200.309 1069.24,-190.127"/>
<polygon fill="midnightblue" stroke="midnightblue" points="1069.89,-186.679 1059.33,-187.516 1068.11,-193.448 1069.89,-186.679"/>
</g>
<!-- Node44 -->
<g id="node44" class="node"><title>Node44</title>
<g id="a_node44"><a xlink:href="_traverser_8h.html" target="_top" xlink:title=" ">
<polygon fill="white" stroke="black" points="1103,-168.5 1103,-187.5 1211,-187.5 1211,-168.5 1103,-168.5"/>
<text text-anchor="middle" x="1157" y="-175.5" font-family="Helvetica,sans-Serif" font-size="10.00">Cpl/Type/Traverser.h</text>
</a>
</g>
</g>
<!-- Node41&#45;&gt;Node44 -->
<g id="edge69" class="edge"><title>Node41&#45;&gt;Node44</title>
<path fill="none" stroke="midnightblue" d="M1219.95,-224.324C1208.54,-216.107 1191.17,-203.602 1177.57,-193.807"/>
<polygon fill="midnightblue" stroke="midnightblue" points="1179.43,-190.837 1169.27,-187.834 1175.34,-196.517 1179.43,-190.837"/>
</g>
<!-- Node43&#45;&gt;Node17 -->
<g id="edge68" class="edge"><title>Node43&#45;&gt;Node17</title>
<path fill="none" stroke="midnightblue" d="M1021.06,-168.083C1016.02,-160.534 1008.66,-149.495 1002.49,-140.23"/>
<polygon fill="midnightblue" stroke="midnightblue" points="1005.29,-138.13 996.834,-131.751 999.469,-142.013 1005.29,-138.13"/>
</g>
<!-- Node45&#45;&gt;Node17 -->
<g id="edge73" class="edge"><title>Node45&#45;&gt;Node17</title>
<path fill="none" stroke="midnightblue" d="M1377.96,-224.229C1377.39,-209.995 1374.01,-182.046 1357,-168 1312.16,-130.965 1146.61,-123.833 1054.28,-122.812"/>
<polygon fill="midnightblue" stroke="midnightblue" points="1054.25,-119.312 1044.21,-122.722 1054.18,-126.312 1054.25,-119.312"/>
</g>
</g>
</svg>
