<?xml version="1.0" encoding="UTF-8" standalone="no"?>
<!DOCTYPE svg PUBLIC "-//W3C//DTD SVG 1.1//EN"
 "http://www.w3.org/Graphics/SVG/1.1/DTD/svg11.dtd">
<!-- Generated by graphviz version 2.38.0 (20140413.2041)
 -->
<!-- Title: Cpl/TShell/Maker.h Pages: 1 -->
<svg width="1499pt" height="532pt"
 viewBox="0.00 0.00 1498.72 532.00" xmlns="http://www.w3.org/2000/svg" xmlns:xlink="http://www.w3.org/1999/xlink">
<g id="graph0" class="graph" transform="scale(1 1) rotate(0) translate(4 528)">
<title>Cpl/TShell/Maker.h</title>
<polygon fill="white" stroke="none" points="-4,4 -4,-528 1494.72,-528 1494.72,4 -4,4"/>
<!-- Node1 -->
<g id="node1" class="node"><title>Node1</title>
<g id="a_node1"><a xlink:title=" ">
<polygon fill="#bfbfbf" stroke="black" points="786.216,-504.5 786.216,-523.5 886.216,-523.5 886.216,-504.5 786.216,-504.5"/>
<text text-anchor="middle" x="836.216" y="-511.5" font-family="Helvetica,sans-Serif" font-size="10.00">Cpl/TShell/Maker.h</text>
</a>
</g>
</g>
<!-- Node2 -->
<g id="node2" class="node"><title>Node2</title>
<g id="a_node2"><a xlink:href="_processor_8h.html" target="_top" xlink:title=" ">
<polygon fill="white" stroke="black" points="954.716,-448.5 954.716,-467.5 1071.72,-467.5 1071.72,-448.5 954.716,-448.5"/>
<text text-anchor="middle" x="1013.22" y="-455.5" font-family="Helvetica,sans-Serif" font-size="10.00">Cpl/TShell/Processor.h</text>
</a>
</g>
</g>
<!-- Node1&#45;&gt;Node2 -->
<g id="edge1" class="edge"><title>Node1&#45;&gt;Node2</title>
<path fill="none" stroke="midnightblue" d="M864.262,-504.444C894.298,-495.28 942.129,-480.688 975.458,-470.519"/>
<polygon fill="midnightblue" stroke="midnightblue" points="976.757,-473.782 985.301,-467.516 974.715,-467.087 976.757,-473.782"/>
</g>
<!-- Node36 -->
<g id="node36" class="node"><title>Node36</title>
<g id="a_node36"><a xlink:href="_line_decoder_8h.html" target="_top" xlink:title=" ">
<polygon fill="white" stroke="black" points="444.716,-448.5 444.716,-467.5 593.716,-467.5 593.716,-448.5 444.716,-448.5"/>
<text text-anchor="middle" x="519.216" y="-455.5" font-family="Helvetica,sans-Serif" font-size="10.00">Cpl/Text/Frame/LineDecoder.h</text>
</a>
</g>
</g>
<!-- Node1&#45;&gt;Node36 -->
<g id="edge54" class="edge"><title>Node1&#45;&gt;Node36</title>
<path fill="none" stroke="midnightblue" d="M785.986,-504.444C729.875,-494.885 639.086,-479.419 579.268,-469.23"/>
<polygon fill="midnightblue" stroke="midnightblue" points="579.656,-465.745 569.21,-467.516 578.481,-472.646 579.656,-465.745"/>
</g>
<!-- Node37 -->
<g id="node37" class="node"><title>Node37</title>
<g id="a_node37"><a xlink:href="_system_2_private___8h.html" target="_top" xlink:title="This file contains a collection of classes, interfaces, etc.">
<polygon fill="white" stroke="black" points="778.716,-336.5 778.716,-355.5 893.716,-355.5 893.716,-336.5 778.716,-336.5"/>
<text text-anchor="middle" x="836.216" y="-343.5" font-family="Helvetica,sans-Serif" font-size="10.00">Cpl/System/Private_.h</text>
</a>
</g>
</g>
<!-- Node1&#45;&gt;Node37 -->
<g id="edge56" class="edge"><title>Node1&#45;&gt;Node37</title>
<path fill="none" stroke="midnightblue" d="M836.216,-504.075C836.216,-477.945 836.216,-401.211 836.216,-365.577"/>
<polygon fill="midnightblue" stroke="midnightblue" points="839.716,-365.568 836.216,-355.568 832.716,-365.568 839.716,-365.568"/>
</g>
<!-- Node3 -->
<g id="node3" class="node"><title>Node3</title>
<g id="a_node3"><a xlink:title=" ">
<polygon fill="white" stroke="#bfbfbf" points="1052.72,-0.5 1052.72,-19.5 1137.72,-19.5 1137.72,-0.5 1052.72,-0.5"/>
<text text-anchor="middle" x="1095.22" y="-7.5" font-family="Helvetica,sans-Serif" font-size="10.00">colony_config.h</text>
</a>
</g>
</g>
<!-- Node2&#45;&gt;Node3 -->
<g id="edge2" class="edge"><title>Node2&#45;&gt;Node3</title>
<path fill="none" stroke="midnightblue" d="M1072,-451.09C1173.12,-439.28 1369.22,-408.454 1369.22,-347 1369.22,-347 1369.22,-347 1369.22,-121 1369.22,-73.7476 1227.11,-37.5035 1147.57,-20.9194"/>
<polygon fill="midnightblue" stroke="midnightblue" points="1148.23,-17.4808 1137.73,-18.9001 1146.82,-24.338 1148.23,-17.4808"/>
</g>
<!-- Node4 -->
<g id="node4" class="node"><title>Node4</title>
<g id="a_node4"><a xlink:href="_context___8h.html" target="_top" xlink:title=" ">
<polygon fill="white" stroke="black" points="695.216,-392.5 695.216,-411.5 807.216,-411.5 807.216,-392.5 695.216,-392.5"/>
<text text-anchor="middle" x="751.216" y="-399.5" font-family="Helvetica,sans-Serif" font-size="10.00">Cpl/TShell/Context_.h</text>
</a>
</g>
</g>
<!-- Node2&#45;&gt;Node4 -->
<g id="edge3" class="edge"><title>Node2&#45;&gt;Node4</title>
<path fill="none" stroke="midnightblue" d="M971.701,-448.444C925.804,-438.984 851.835,-423.738 802.389,-413.547"/>
<polygon fill="midnightblue" stroke="midnightblue" points="803.037,-410.107 792.536,-411.516 801.624,-416.963 803.037,-410.107"/>
</g>
<!-- Node24 -->
<g id="node24" class="node"><title>Node24</title>
<g id="a_node24"><a xlink:href="_mutex_8h.html" target="_top" xlink:title=" ">
<polygon fill="white" stroke="black" points="1077.22,-280.5 1077.22,-299.5 1183.22,-299.5 1183.22,-280.5 1077.22,-280.5"/>
<text text-anchor="middle" x="1130.22" y="-287.5" font-family="Helvetica,sans-Serif" font-size="10.00">Cpl/System/Mutex.h</text>
</a>
</g>
</g>
<!-- Node2&#45;&gt;Node24 -->
<g id="edge35" class="edge"><title>Node2&#45;&gt;Node24</title>
<path fill="none" stroke="midnightblue" d="M1019.51,-448.075C1038.24,-421.493 1093.89,-342.538 1118.4,-307.763"/>
<polygon fill="midnightblue" stroke="midnightblue" points="1121.28,-309.758 1124.18,-299.568 1115.55,-305.726 1121.28,-309.758"/>
</g>
<!-- Node25 -->
<g id="node25" class="node"><title>Node25</title>
<g id="a_node25"><a xlink:href="_system_2_api_8h.html" target="_top" xlink:title=" ">
<polygon fill="white" stroke="black" points="1397.72,-392.5 1397.72,-411.5 1490.72,-411.5 1490.72,-392.5 1397.72,-392.5"/>
<text text-anchor="middle" x="1444.22" y="-399.5" font-family="Helvetica,sans-Serif" font-size="10.00">Cpl/System/Api.h</text>
</a>
</g>
</g>
<!-- Node2&#45;&gt;Node25 -->
<g id="edge37" class="edge"><title>Node2&#45;&gt;Node25</title>
<path fill="none" stroke="midnightblue" d="M1071.91,-450.329C1144.93,-441.922 1273.39,-426.778 1383.22,-412 1384.67,-411.804 1386.15,-411.603 1387.64,-411.398"/>
<polygon fill="midnightblue" stroke="midnightblue" points="1388.19,-414.855 1397.61,-410.001 1387.22,-407.923 1388.19,-414.855"/>
</g>
<!-- Node26 -->
<g id="node26" class="node"><title>Node26</title>
<g id="a_node26"><a xlink:href="_f_string_8h.html" target="_top" xlink:title=" ">
<polygon fill="white" stroke="black" points="1163.22,-336.5 1163.22,-355.5 1259.22,-355.5 1259.22,-336.5 1163.22,-336.5"/>
<text text-anchor="middle" x="1211.22" y="-343.5" font-family="Helvetica,sans-Serif" font-size="10.00">Cpl/Text/FString.h</text>
</a>
</g>
</g>
<!-- Node2&#45;&gt;Node26 -->
<g id="edge38" class="edge"><title>Node2&#45;&gt;Node26</title>
<path fill="none" stroke="midnightblue" d="M1036.8,-448.489C1058.52,-440.284 1091.35,-426.938 1118.22,-412 1145.29,-396.946 1174.2,-375.858 1192.47,-361.83"/>
<polygon fill="midnightblue" stroke="midnightblue" points="1194.78,-364.468 1200.53,-355.569 1190.48,-358.94 1194.78,-364.468"/>
</g>
<!-- Node29 -->
<g id="node29" class="node"><title>Node29</title>
<g id="a_node29"><a xlink:href="_stream_encoder_8h.html" target="_top" xlink:title=" ">
<polygon fill="white" stroke="black" points="378.716,-336.5 378.716,-355.5 541.716,-355.5 541.716,-336.5 378.716,-336.5"/>
<text text-anchor="middle" x="460.216" y="-343.5" font-family="Helvetica,sans-Serif" font-size="10.00">Cpl/Text/Frame/StreamEncoder.h</text>
</a>
</g>
</g>
<!-- Node2&#45;&gt;Node29 -->
<g id="edge44" class="edge"><title>Node2&#45;&gt;Node29</title>
<path fill="none" stroke="midnightblue" d="M954.597,-451.492C888.818,-444.721 779.145,-431.652 686.216,-412 617.475,-397.463 539.023,-373.097 494.982,-358.686"/>
<polygon fill="midnightblue" stroke="midnightblue" points="495.93,-355.313 485.337,-355.509 493.74,-361.962 495.93,-355.313"/>
</g>
<!-- Node33 -->
<g id="node33" class="node"><title>Node33</title>
<g id="a_node33"><a xlink:href="_stream_decoder_8h.html" target="_top" xlink:title=" ">
<polygon fill="white" stroke="black" points="191.716,-336.5 191.716,-355.5 354.716,-355.5 354.716,-336.5 191.716,-336.5"/>
<text text-anchor="middle" x="273.216" y="-343.5" font-family="Helvetica,sans-Serif" font-size="10.00">Cpl/Text/Frame/StreamDecoder.h</text>
</a>
</g>
</g>
<!-- Node2&#45;&gt;Node33 -->
<g id="edge49" class="edge"><title>Node2&#45;&gt;Node33</title>
<path fill="none" stroke="midnightblue" d="M954.525,-452.014C875.405,-444.946 730.255,-430.759 607.216,-412 504.941,-396.407 386.288,-371.728 321.53,-357.693"/>
<polygon fill="midnightblue" stroke="midnightblue" points="322.125,-354.241 311.61,-355.535 320.637,-361.081 322.125,-354.241"/>
</g>
<!-- Node5 -->
<g id="node5" class="node"><title>Node5</title>
<g id="a_node5"><a xlink:href="_processor_api_8h.html" target="_top" xlink:title=" ">
<polygon fill="white" stroke="black" points="488.716,-280.5 488.716,-299.5 619.716,-299.5 619.716,-280.5 488.716,-280.5"/>
<text text-anchor="middle" x="554.216" y="-287.5" font-family="Helvetica,sans-Serif" font-size="10.00">Cpl/TShell/ProcessorApi.h</text>
</a>
</g>
</g>
<!-- Node4&#45;&gt;Node5 -->
<g id="edge4" class="edge"><title>Node4&#45;&gt;Node5</title>
<path fill="none" stroke="midnightblue" d="M735.757,-392.368C701.593,-373.292 619.445,-327.422 578.403,-304.505"/>
<polygon fill="midnightblue" stroke="midnightblue" points="580.04,-301.411 569.602,-299.591 576.627,-307.523 580.04,-301.411"/>
</g>
<!-- Node19 -->
<g id="node19" class="node"><title>Node19</title>
<g id="a_node19"><a xlink:href="_command_8h.html" target="_top" xlink:title=" ">
<polygon fill="white" stroke="black" points="637.716,-280.5 637.716,-299.5 754.716,-299.5 754.716,-280.5 637.716,-280.5"/>
<text text-anchor="middle" x="696.216" y="-287.5" font-family="Helvetica,sans-Serif" font-size="10.00">Cpl/TShell/Command.h</text>
</a>
</g>
</g>
<!-- Node4&#45;&gt;Node19 -->
<g id="edge25" class="edge"><title>Node4&#45;&gt;Node19</title>
<path fill="none" stroke="midnightblue" d="M746.9,-392.368C737.904,-374.376 716.991,-332.55 705.029,-308.627"/>
<polygon fill="midnightblue" stroke="midnightblue" points="708.114,-306.97 700.511,-299.591 701.853,-310.101 708.114,-306.97"/>
</g>
<!-- Node22 -->
<g id="node22" class="node"><title>Node22</title>
<g id="a_node22"><a xlink:href="_map_8h.html" target="_top" xlink:title=" ">
<polygon fill="white" stroke="black" points="932.716,-336.5 932.716,-355.5 1037.72,-355.5 1037.72,-336.5 932.716,-336.5"/>
<text text-anchor="middle" x="985.216" y="-343.5" font-family="Helvetica,sans-Serif" font-size="10.00">Cpl/Container/Map.h</text>
</a>
</g>
</g>
<!-- Node4&#45;&gt;Node22 -->
<g id="edge31" class="edge"><title>Node4&#45;&gt;Node22</title>
<path fill="none" stroke="midnightblue" d="M788.294,-392.444C828.943,-383.063 894.248,-367.993 938.4,-357.804"/>
<polygon fill="midnightblue" stroke="midnightblue" points="939.354,-361.175 948.311,-355.516 937.78,-354.355 939.354,-361.175"/>
</g>
<!-- Node6 -->
<g id="node6" class="node"><title>Node6</title>
<g id="a_node6"><a xlink:href="_input_8h.html" target="_top" xlink:title=" ">
<polygon fill="white" stroke="black" points="481.716,-224.5 481.716,-243.5 556.716,-243.5 556.716,-224.5 481.716,-224.5"/>
<text text-anchor="middle" x="519.216" y="-231.5" font-family="Helvetica,sans-Serif" font-size="10.00">Cpl/Io/Input.h</text>
</a>
</g>
</g>
<!-- Node5&#45;&gt;Node6 -->
<g id="edge5" class="edge"><title>Node5&#45;&gt;Node6</title>
<path fill="none" stroke="midnightblue" d="M548.436,-280.083C543.543,-272.534 536.388,-261.495 530.383,-252.23"/>
<polygon fill="midnightblue" stroke="midnightblue" points="533.264,-250.239 524.888,-243.751 527.39,-254.046 533.264,-250.239"/>
</g>
<!-- Node18 -->
<g id="node18" class="node"><title>Node18</title>
<g id="a_node18"><a xlink:href="_output_8h.html" target="_top" xlink:title=" ">
<polygon fill="white" stroke="black" points="574.716,-224.5 574.716,-243.5 657.716,-243.5 657.716,-224.5 574.716,-224.5"/>
<text text-anchor="middle" x="616.216" y="-231.5" font-family="Helvetica,sans-Serif" font-size="10.00">Cpl/Io/Output.h</text>
</a>
</g>
</g>
<!-- Node5&#45;&gt;Node18 -->
<g id="edge20" class="edge"><title>Node5&#45;&gt;Node18</title>
<path fill="none" stroke="midnightblue" d="M564.177,-280.324C573.342,-272.341 587.153,-260.313 598.244,-250.653"/>
<polygon fill="midnightblue" stroke="midnightblue" points="600.831,-253.041 606.073,-243.834 596.233,-247.762 600.831,-253.041"/>
</g>
<!-- Node7 -->
<g id="node7" class="node"><title>Node7</title>
<g id="a_node7"><a xlink:href="_string_8h.html" target="_top" xlink:title=" ">
<polygon fill="white" stroke="black" points="816.216,-168.5 816.216,-187.5 906.216,-187.5 906.216,-168.5 816.216,-168.5"/>
<text text-anchor="middle" x="861.216" y="-175.5" font-family="Helvetica,sans-Serif" font-size="10.00">Cpl/Text/String.h</text>
</a>
</g>
</g>
<!-- Node6&#45;&gt;Node7 -->
<g id="edge6" class="edge"><title>Node6&#45;&gt;Node7</title>
<path fill="none" stroke="midnightblue" d="M556.846,-225.495C559.675,-224.974 562.489,-224.47 565.216,-224 671.94,-205.598 699.219,-204.745 806.216,-188 806.317,-187.984 806.419,-187.968 806.521,-187.952"/>
<polygon fill="midnightblue" stroke="midnightblue" points="806.872,-191.44 816.201,-186.418 805.776,-184.527 806.872,-191.44"/>
</g>
<!-- Node15 -->
<g id="node15" class="node"><title>Node15</title>
<g id="a_node15"><a xlink:href="_close_8h.html" target="_top" xlink:title=" ">
<polygon fill="white" stroke="black" points="577.216,-168.5 577.216,-187.5 655.216,-187.5 655.216,-168.5 577.216,-168.5"/>
<text text-anchor="middle" x="616.216" y="-175.5" font-family="Helvetica,sans-Serif" font-size="10.00">Cpl/Io/Close.h</text>
</a>
</g>
</g>
<!-- Node6&#45;&gt;Node15 -->
<g id="edge17" class="edge"><title>Node6&#45;&gt;Node15</title>
<path fill="none" stroke="midnightblue" d="M534.8,-224.324C550.215,-215.743 574.028,-202.486 591.925,-192.522"/>
<polygon fill="midnightblue" stroke="midnightblue" points="593.635,-195.577 600.67,-187.655 590.23,-189.461 593.635,-195.577"/>
</g>
<!-- Node17 -->
<g id="node17" class="node"><title>Node17</title>
<g id="a_node17"><a xlink:href="_is_eos_8h.html" target="_top" xlink:title=" ">
<polygon fill="white" stroke="black" points="479.716,-168.5 479.716,-187.5 558.716,-187.5 558.716,-168.5 479.716,-168.5"/>
<text text-anchor="middle" x="519.216" y="-175.5" font-family="Helvetica,sans-Serif" font-size="10.00">Cpl/Io/IsEos.h</text>
</a>
</g>
</g>
<!-- Node6&#45;&gt;Node17 -->
<g id="edge19" class="edge"><title>Node6&#45;&gt;Node17</title>
<path fill="none" stroke="midnightblue" d="M519.216,-224.083C519.216,-217.006 519.216,-206.861 519.216,-197.986"/>
<polygon fill="midnightblue" stroke="midnightblue" points="522.716,-197.751 519.216,-187.751 515.716,-197.751 522.716,-197.751"/>
</g>
<!-- Node8 -->
<g id="node8" class="node"><title>Node8</title>
<g id="a_node8"><a xlink:title=" ">
<polygon fill="white" stroke="#bfbfbf" points="784.716,-56.5 784.716,-75.5 861.716,-75.5 861.716,-56.5 784.716,-56.5"/>
<text text-anchor="middle" x="823.216" y="-63.5" font-family="Helvetica,sans-Serif" font-size="10.00">colony_map.h</text>
</a>
</g>
</g>
<!-- Node7&#45;&gt;Node8 -->
<g id="edge7" class="edge"><title>Node7&#45;&gt;Node8</title>
<path fill="none" stroke="midnightblue" d="M856.835,-168.194C852.49,-159.236 845.831,-144.877 841.216,-132 835.659,-116.499 830.776,-98.4146 827.503,-85.262"/>
<polygon fill="midnightblue" stroke="midnightblue" points="830.904,-84.4366 825.153,-75.5388 824.1,-86.0813 830.904,-84.4366"/>
</g>
<!-- Node9 -->
<g id="node9" class="node"><title>Node9</title>
<g id="a_node9"><a xlink:href="_key_8h.html" target="_top" xlink:title=" ">
<polygon fill="white" stroke="black" points="690.216,-112.5 690.216,-131.5 794.216,-131.5 794.216,-112.5 690.216,-112.5"/>
<text text-anchor="middle" x="742.216" y="-119.5" font-family="Helvetica,sans-Serif" font-size="10.00">Cpl/Container/Key.h</text>
</a>
</g>
</g>
<!-- Node7&#45;&gt;Node9 -->
<g id="edge8" class="edge"><title>Node7&#45;&gt;Node9</title>
<path fill="none" stroke="midnightblue" d="M837.271,-168.444C816.12,-159.715 785.768,-146.059 764.984,-135.994"/>
<polygon fill="midnightblue" stroke="midnightblue" points="766.42,-132.8 755.903,-131.516 763.324,-139.078 766.42,-132.8"/>
</g>
<!-- Node13 -->
<g id="node13" class="node"><title>Node13</title>
<g id="a_node13"><a xlink:title=" ">
<polygon fill="white" stroke="#bfbfbf" points="922.216,-112.5 922.216,-131.5 974.216,-131.5 974.216,-112.5 922.216,-112.5"/>
<text text-anchor="middle" x="948.216" y="-119.5" font-family="Helvetica,sans-Serif" font-size="10.00">stdarg.h</text>
</a>
</g>
</g>
<!-- Node7&#45;&gt;Node13 -->
<g id="edge15" class="edge"><title>Node7&#45;&gt;Node13</title>
<path fill="none" stroke="midnightblue" d="M875.194,-168.324C888.765,-159.9 909.596,-146.971 925.541,-137.074"/>
<polygon fill="midnightblue" stroke="midnightblue" points="927.622,-139.902 934.272,-131.655 923.93,-133.954 927.622,-139.902"/>
</g>
<!-- Node14 -->
<g id="node14" class="node"><title>Node14</title>
<g id="a_node14"><a xlink:title=" ">
<polygon fill="white" stroke="#bfbfbf" points="850.216,-112.5 850.216,-131.5 904.216,-131.5 904.216,-112.5 850.216,-112.5"/>
<text text-anchor="middle" x="877.216" y="-119.5" font-family="Helvetica,sans-Serif" font-size="10.00">iostream</text>
</a>
</g>
</g>
<!-- Node7&#45;&gt;Node14 -->
<g id="edge16" class="edge"><title>Node7&#45;&gt;Node14</title>
<path fill="none" stroke="midnightblue" d="M863.858,-168.083C866.001,-160.849 869.095,-150.409 871.765,-141.397"/>
<polygon fill="midnightblue" stroke="midnightblue" points="875.138,-142.333 874.623,-131.751 868.426,-140.345 875.138,-142.333"/>
</g>
<!-- Node9&#45;&gt;Node7 -->
<g id="edge13" class="edge"><title>Node9&#45;&gt;Node7</title>
<path fill="none" stroke="midnightblue" d="M766.398,-131.655C787.437,-140.346 817.454,-153.849 838.151,-163.862"/>
<polygon fill="midnightblue" stroke="midnightblue" points="836.694,-167.046 847.211,-168.324 839.786,-160.766 836.694,-167.046"/>
</g>
<!-- Node9&#45;&gt;Node8 -->
<g id="edge14" class="edge"><title>Node9&#45;&gt;Node8</title>
<path fill="none" stroke="midnightblue" d="M755.23,-112.324C767.747,-103.979 786.897,-91.2122 801.687,-81.3524"/>
<polygon fill="midnightblue" stroke="midnightblue" points="803.855,-84.1137 810.234,-75.6545 799.972,-78.2894 803.855,-84.1137"/>
</g>
<!-- Node10 -->
<g id="node10" class="node"><title>Node10</title>
<g id="a_node10"><a xlink:href="_fatal_error_8h.html" target="_top" xlink:title=" ">
<polygon fill="white" stroke="black" points="577.216,-56.5 577.216,-75.5 699.216,-75.5 699.216,-56.5 577.216,-56.5"/>
<text text-anchor="middle" x="638.216" y="-63.5" font-family="Helvetica,sans-Serif" font-size="10.00">Cpl/System/FatalError.h</text>
</a>
</g>
</g>
<!-- Node9&#45;&gt;Node10 -->
<g id="edge9" class="edge"><title>Node9&#45;&gt;Node10</title>
<path fill="none" stroke="midnightblue" d="M725.506,-112.324C708.904,-103.703 683.214,-90.3643 663.995,-80.3855"/>
<polygon fill="midnightblue" stroke="midnightblue" points="665.371,-77.1565 654.884,-75.6545 662.146,-83.3689 665.371,-77.1565"/>
</g>
<!-- Node12 -->
<g id="node12" class="node"><title>Node12</title>
<g id="a_node12"><a xlink:title=" ">
<polygon fill="white" stroke="#bfbfbf" points="717.716,-56.5 717.716,-75.5 766.716,-75.5 766.716,-56.5 717.716,-56.5"/>
<text text-anchor="middle" x="742.216" y="-63.5" font-family="Helvetica,sans-Serif" font-size="10.00">stdint.h</text>
</a>
</g>
</g>
<!-- Node9&#45;&gt;Node12 -->
<g id="edge12" class="edge"><title>Node9&#45;&gt;Node12</title>
<path fill="none" stroke="midnightblue" d="M742.216,-112.083C742.216,-105.006 742.216,-94.8611 742.216,-85.9865"/>
<polygon fill="midnightblue" stroke="midnightblue" points="745.716,-85.751 742.216,-75.7511 738.716,-85.7511 745.716,-85.751"/>
</g>
<!-- Node10&#45;&gt;Node3 -->
<g id="edge11" class="edge"><title>Node10&#45;&gt;Node3</title>
<path fill="none" stroke="midnightblue" d="M699.294,-57.1029C702.31,-56.7268 705.297,-56.3573 708.216,-56 827.645,-41.3794 967.955,-25.3501 1042.46,-16.929"/>
<polygon fill="midnightblue" stroke="midnightblue" points="1042.99,-20.3922 1052.53,-15.7921 1042.2,-13.4364 1042.99,-20.3922"/>
</g>
<!-- Node11 -->
<g id="node11" class="node"><title>Node11</title>
<g id="a_node11"><a xlink:title=" ">
<polygon fill="white" stroke="#bfbfbf" points="612.216,-0.5 612.216,-19.5 664.216,-19.5 664.216,-0.5 612.216,-0.5"/>
<text text-anchor="middle" x="638.216" y="-7.5" font-family="Helvetica,sans-Serif" font-size="10.00">stddef.h</text>
</a>
</g>
</g>
<!-- Node10&#45;&gt;Node11 -->
<g id="edge10" class="edge"><title>Node10&#45;&gt;Node11</title>
<path fill="none" stroke="midnightblue" d="M638.216,-56.083C638.216,-49.0059 638.216,-38.8611 638.216,-29.9865"/>
<polygon fill="midnightblue" stroke="midnightblue" points="641.716,-29.751 638.216,-19.7511 634.716,-29.7511 641.716,-29.751"/>
</g>
<!-- Node16 -->
<g id="node16" class="node"><title>Node16</title>
<g id="a_node16"><a xlink:href="_item_8h.html" target="_top" xlink:title=" ">
<polygon fill="white" stroke="black" points="423.216,-112.5 423.216,-131.5 529.216,-131.5 529.216,-112.5 423.216,-112.5"/>
<text text-anchor="middle" x="476.216" y="-119.5" font-family="Helvetica,sans-Serif" font-size="10.00">Cpl/Container/Item.h</text>
</a>
</g>
</g>
<!-- Node15&#45;&gt;Node16 -->
<g id="edge18" class="edge"><title>Node15&#45;&gt;Node16</title>
<path fill="none" stroke="midnightblue" d="M594.032,-168.444C570.787,-159.478 534.067,-145.314 507.8,-135.183"/>
<polygon fill="midnightblue" stroke="midnightblue" points="508.885,-131.85 498.295,-131.516 506.366,-138.381 508.885,-131.85"/>
</g>
<!-- Node18&#45;&gt;Node7 -->
<g id="edge21" class="edge"><title>Node18&#45;&gt;Node7</title>
<path fill="none" stroke="midnightblue" d="M655.037,-224.444C697.776,-215.023 766.548,-199.866 812.782,-189.675"/>
<polygon fill="midnightblue" stroke="midnightblue" points="813.564,-193.087 822.576,-187.516 812.057,-186.251 813.564,-193.087"/>
</g>
<!-- Node18&#45;&gt;Node13 -->
<g id="edge24" class="edge"><title>Node18&#45;&gt;Node13</title>
<path fill="none" stroke="midnightblue" d="M657.939,-225.379C660.738,-224.902 663.517,-224.438 666.216,-224 776.59,-206.093 824.36,-253.179 915.216,-188 930.607,-176.959 939.281,-156.61 943.832,-141.611"/>
<polygon fill="midnightblue" stroke="midnightblue" points="947.241,-142.41 946.453,-131.844 940.48,-140.595 947.241,-142.41"/>
</g>
<!-- Node18&#45;&gt;Node15 -->
<g id="edge22" class="edge"><title>Node18&#45;&gt;Node15</title>
<path fill="none" stroke="midnightblue" d="M616.216,-224.083C616.216,-217.006 616.216,-206.861 616.216,-197.986"/>
<polygon fill="midnightblue" stroke="midnightblue" points="619.716,-197.751 616.216,-187.751 612.716,-197.751 619.716,-197.751"/>
</g>
<!-- Node18&#45;&gt;Node17 -->
<g id="edge23" class="edge"><title>Node18&#45;&gt;Node17</title>
<path fill="none" stroke="midnightblue" d="M600.631,-224.324C585.217,-215.743 561.404,-202.486 543.506,-192.522"/>
<polygon fill="midnightblue" stroke="midnightblue" points="545.202,-189.461 534.762,-187.655 541.797,-195.577 545.202,-189.461"/>
</g>
<!-- Node19&#45;&gt;Node18 -->
<g id="edge30" class="edge"><title>Node19&#45;&gt;Node18</title>
<path fill="none" stroke="midnightblue" d="M683.362,-280.324C670.999,-271.979 652.086,-259.212 637.479,-249.352"/>
<polygon fill="midnightblue" stroke="midnightblue" points="639.284,-246.348 629.037,-243.655 635.368,-252.15 639.284,-246.348"/>
</g>
<!-- Node20 -->
<g id="node20" class="node"><title>Node20</title>
<g id="a_node20"><a xlink:href="_map_item_8h.html" target="_top" xlink:title=" ">
<polygon fill="white" stroke="black" points="675.716,-224.5 675.716,-243.5 800.716,-243.5 800.716,-224.5 675.716,-224.5"/>
<text text-anchor="middle" x="738.216" y="-231.5" font-family="Helvetica,sans-Serif" font-size="10.00">Cpl/Container/MapItem.h</text>
</a>
</g>
</g>
<!-- Node19&#45;&gt;Node20 -->
<g id="edge26" class="edge"><title>Node19&#45;&gt;Node20</title>
<path fill="none" stroke="midnightblue" d="M703.151,-280.083C709.145,-272.377 717.968,-261.033 725.263,-251.653"/>
<polygon fill="midnightblue" stroke="midnightblue" points="728.033,-253.793 731.409,-243.751 722.507,-249.496 728.033,-253.793"/>
</g>
<!-- Node21 -->
<g id="node21" class="node"><title>Node21</title>
<g id="a_node21"><a xlink:href="_dict_item_8h.html" target="_top" xlink:title=" ">
<polygon fill="white" stroke="black" points="674.716,-168.5 674.716,-187.5 797.716,-187.5 797.716,-168.5 674.716,-168.5"/>
<text text-anchor="middle" x="736.216" y="-175.5" font-family="Helvetica,sans-Serif" font-size="10.00">Cpl/Container/DictItem.h</text>
</a>
</g>
</g>
<!-- Node20&#45;&gt;Node21 -->
<g id="edge27" class="edge"><title>Node20&#45;&gt;Node21</title>
<path fill="none" stroke="midnightblue" d="M737.885,-224.083C737.623,-217.006 737.248,-206.861 736.919,-197.986"/>
<polygon fill="midnightblue" stroke="midnightblue" points="740.408,-197.615 736.54,-187.751 733.412,-197.874 740.408,-197.615"/>
</g>
<!-- Node21&#45;&gt;Node9 -->
<g id="edge29" class="edge"><title>Node21&#45;&gt;Node9</title>
<path fill="none" stroke="midnightblue" d="M737.206,-168.083C738.002,-160.927 739.145,-150.635 740.139,-141.691"/>
<polygon fill="midnightblue" stroke="midnightblue" points="743.618,-142.076 741.243,-131.751 736.66,-141.303 743.618,-142.076"/>
</g>
<!-- Node21&#45;&gt;Node16 -->
<g id="edge28" class="edge"><title>Node21&#45;&gt;Node16</title>
<path fill="none" stroke="midnightblue" d="M695.018,-168.444C649.566,-159.004 576.374,-143.802 527.306,-133.611"/>
<polygon fill="midnightblue" stroke="midnightblue" points="527.724,-130.123 517.221,-131.516 526.3,-136.977 527.724,-130.123"/>
</g>
<!-- Node23 -->
<g id="node23" class="node"><title>Node23</title>
<g id="a_node23"><a xlink:href="_avl_tree___8h.html" target="_top" xlink:title=" ">
<polygon fill="white" stroke="black" points="933.716,-280.5 933.716,-299.5 1058.72,-299.5 1058.72,-280.5 933.716,-280.5"/>
<text text-anchor="middle" x="996.216" y="-287.5" font-family="Helvetica,sans-Serif" font-size="10.00">Cpl/Container/AvlTree_.h</text>
</a>
</g>
</g>
<!-- Node22&#45;&gt;Node23 -->
<g id="edge32" class="edge"><title>Node22&#45;&gt;Node23</title>
<path fill="none" stroke="midnightblue" d="M987.032,-336.083C988.49,-328.927 990.586,-318.635 992.408,-309.691"/>
<polygon fill="midnightblue" stroke="midnightblue" points="995.867,-310.248 994.433,-299.751 989.007,-308.851 995.867,-310.248"/>
</g>
<!-- Node23&#45;&gt;Node3 -->
<g id="edge33" class="edge"><title>Node23&#45;&gt;Node3</title>
<path fill="none" stroke="midnightblue" d="M1021.29,-280.428C1038.74,-273.252 1061.29,-261.365 1075.22,-244 1094.12,-220.417 1095.22,-209.225 1095.22,-179 1095.22,-179 1095.22,-179 1095.22,-121 1095.22,-88.948 1095.22,-51.6426 1095.22,-29.7489"/>
<polygon fill="midnightblue" stroke="midnightblue" points="1098.72,-29.5577 1095.22,-19.5578 1091.72,-29.5578 1098.72,-29.5577"/>
</g>
<!-- Node23&#45;&gt;Node20 -->
<g id="edge34" class="edge"><title>Node23&#45;&gt;Node20</title>
<path fill="none" stroke="midnightblue" d="M955.335,-280.444C910.233,-271.004 837.603,-255.802 788.913,-245.611"/>
<polygon fill="midnightblue" stroke="midnightblue" points="789.41,-242.139 778.905,-243.516 787.976,-248.991 789.41,-242.139"/>
</g>
<!-- Node24&#45;&gt;Node8 -->
<g id="edge36" class="edge"><title>Node24&#45;&gt;Node8</title>
<path fill="none" stroke="midnightblue" d="M1125.65,-280.433C1109.97,-251.827 1055.24,-158.774 983.216,-112 949.551,-90.1382 905.228,-78.748 871.771,-72.9044"/>
<polygon fill="midnightblue" stroke="midnightblue" points="872.194,-69.4272 861.76,-71.2635 871.062,-76.3351 872.194,-69.4272"/>
</g>
<!-- Node26&#45;&gt;Node7 -->
<g id="edge43" class="edge"><title>Node26&#45;&gt;Node7</title>
<path fill="none" stroke="midnightblue" d="M1211.42,-336.315C1211.23,-322.206 1208.64,-294.433 1192.22,-280 1114.49,-211.71 1058.92,-280.792 962.216,-244 930.611,-231.976 898.519,-209.103 879.239,-193.951"/>
<polygon fill="midnightblue" stroke="midnightblue" points="881.318,-191.132 871.33,-187.599 876.935,-196.589 881.318,-191.132"/>
</g>
<!-- Node27 -->
<g id="node27" class="node"><title>Node27</title>
<g id="a_node27"><a xlink:href="_f_string___8h.html" target="_top" xlink:title=" ">
<polygon fill="white" stroke="black" points="1239.72,-280.5 1239.72,-299.5 1340.72,-299.5 1340.72,-280.5 1239.72,-280.5"/>
<text text-anchor="middle" x="1290.22" y="-287.5" font-family="Helvetica,sans-Serif" font-size="10.00">Cpl/Text/FString_.h</text>
</a>
</g>
</g>
<!-- Node26&#45;&gt;Node27 -->
<g id="edge39" class="edge"><title>Node26&#45;&gt;Node27</title>
<path fill="none" stroke="midnightblue" d="M1223.91,-336.324C1236.12,-327.979 1254.79,-315.212 1269.22,-305.352"/>
<polygon fill="midnightblue" stroke="midnightblue" points="1271.27,-308.187 1277.55,-299.655 1267.32,-302.408 1271.27,-308.187"/>
</g>
<!-- Node27&#45;&gt;Node3 -->
<g id="edge40" class="edge"><title>Node27&#45;&gt;Node3</title>
<path fill="none" stroke="midnightblue" d="M1281.76,-280.438C1265.45,-262.962 1231.22,-221.258 1231.22,-179 1231.22,-179 1231.22,-179 1231.22,-121 1231.22,-70.0813 1172.87,-38.6742 1132.61,-23.0633"/>
<polygon fill="midnightblue" stroke="midnightblue" points="1133.66,-19.7184 1123.07,-19.522 1131.22,-26.2814 1133.66,-19.7184"/>
</g>
<!-- Node28 -->
<g id="node28" class="node"><title>Node28</title>
<g id="a_node28"><a xlink:href="_text_2_string___8h.html" target="_top" xlink:title=" ">
<polygon fill="white" stroke="black" points="971.716,-224.5 971.716,-243.5 1066.72,-243.5 1066.72,-224.5 971.716,-224.5"/>
<text text-anchor="middle" x="1019.22" y="-231.5" font-family="Helvetica,sans-Serif" font-size="10.00">Cpl/Text/String_.h</text>
</a>
</g>
</g>
<!-- Node27&#45;&gt;Node28 -->
<g id="edge41" class="edge"><title>Node27&#45;&gt;Node28</title>
<path fill="none" stroke="midnightblue" d="M1247.27,-280.444C1199.7,-270.964 1122.97,-255.675 1071.83,-245.483"/>
<polygon fill="midnightblue" stroke="midnightblue" points="1072.45,-242.038 1061.96,-243.516 1071.08,-248.903 1072.45,-242.038"/>
</g>
<!-- Node28&#45;&gt;Node7 -->
<g id="edge42" class="edge"><title>Node28&#45;&gt;Node7</title>
<path fill="none" stroke="midnightblue" d="M994.18,-224.444C967.6,-215.359 925.407,-200.939 895.692,-190.783"/>
<polygon fill="midnightblue" stroke="midnightblue" points="896.729,-187.439 886.134,-187.516 894.465,-194.062 896.729,-187.439"/>
</g>
<!-- Node29&#45;&gt;Node18 -->
<g id="edge48" class="edge"><title>Node29&#45;&gt;Node18</title>
<path fill="none" stroke="midnightblue" d="M460.309,-336.157C460.939,-322.324 464.173,-295.547 479.216,-280 491.693,-267.104 533.154,-254.541 567.226,-245.981"/>
<polygon fill="midnightblue" stroke="midnightblue" points="568.188,-249.349 577.066,-243.567 566.52,-242.551 568.188,-249.349"/>
</g>
<!-- Node30 -->
<g id="node30" class="node"><title>Node30</title>
<g id="a_node30"><a xlink:href="_encoder___8h.html" target="_top" xlink:title=" ">
<polygon fill="white" stroke="black" points="294.716,-280.5 294.716,-299.5 431.716,-299.5 431.716,-280.5 294.716,-280.5"/>
<text text-anchor="middle" x="363.216" y="-287.5" font-family="Helvetica,sans-Serif" font-size="10.00">Cpl/Text/Frame/Encoder_.h</text>
</a>
</g>
</g>
<!-- Node29&#45;&gt;Node30 -->
<g id="edge45" class="edge"><title>Node29&#45;&gt;Node30</title>
<path fill="none" stroke="midnightblue" d="M444.631,-336.324C429.217,-327.743 405.404,-314.486 387.506,-304.522"/>
<polygon fill="midnightblue" stroke="midnightblue" points="389.202,-301.461 378.762,-299.655 385.797,-307.577 389.202,-301.461"/>
</g>
<!-- Node31 -->
<g id="node31" class="node"><title>Node31</title>
<g id="a_node31"><a xlink:href="_encoder_8h.html" target="_top" xlink:title=" ">
<polygon fill="white" stroke="black" points="332.716,-224.5 332.716,-243.5 463.716,-243.5 463.716,-224.5 332.716,-224.5"/>
<text text-anchor="middle" x="398.216" y="-231.5" font-family="Helvetica,sans-Serif" font-size="10.00">Cpl/Text/Frame/Encoder.h</text>
</a>
</g>
</g>
<!-- Node30&#45;&gt;Node31 -->
<g id="edge46" class="edge"><title>Node30&#45;&gt;Node31</title>
<path fill="none" stroke="midnightblue" d="M368.995,-280.083C373.888,-272.534 381.043,-261.495 387.048,-252.23"/>
<polygon fill="midnightblue" stroke="midnightblue" points="390.042,-254.046 392.544,-243.751 384.168,-250.239 390.042,-254.046"/>
</g>
<!-- Node32 -->
<g id="node32" class="node"><title>Node32</title>
<g id="a_node32"><a xlink:title=" ">
<polygon fill="white" stroke="#bfbfbf" points="413.216,-168.5 413.216,-187.5 461.216,-187.5 461.216,-168.5 413.216,-168.5"/>
<text text-anchor="middle" x="437.216" y="-175.5" font-family="Helvetica,sans-Serif" font-size="10.00">stdlib.h</text>
</a>
</g>
</g>
<!-- Node31&#45;&gt;Node32 -->
<g id="edge47" class="edge"><title>Node31&#45;&gt;Node32</title>
<path fill="none" stroke="midnightblue" d="M404.656,-224.083C410.165,-216.455 418.247,-205.264 424.981,-195.941"/>
<polygon fill="midnightblue" stroke="midnightblue" points="427.878,-197.907 430.895,-187.751 422.203,-193.809 427.878,-197.907"/>
</g>
<!-- Node33&#45;&gt;Node6 -->
<g id="edge53" class="edge"><title>Node33&#45;&gt;Node6</title>
<path fill="none" stroke="midnightblue" d="M272.044,-336.476C270.658,-322.597 270.179,-295.149 285.216,-280 285.423,-279.792 403.183,-257.216 471.547,-244.125"/>
<polygon fill="midnightblue" stroke="midnightblue" points="472.498,-247.506 481.662,-242.188 471.182,-240.631 472.498,-247.506"/>
</g>
<!-- Node34 -->
<g id="node34" class="node"><title>Node34</title>
<g id="a_node34"><a xlink:href="_decoder___8h.html" target="_top" xlink:title=" ">
<polygon fill="white" stroke="black" points="100.716,-280.5 100.716,-299.5 237.716,-299.5 237.716,-280.5 100.716,-280.5"/>
<text text-anchor="middle" x="169.216" y="-287.5" font-family="Helvetica,sans-Serif" font-size="10.00">Cpl/Text/Frame/Decoder_.h</text>
</a>
</g>
</g>
<!-- Node33&#45;&gt;Node34 -->
<g id="edge50" class="edge"><title>Node33&#45;&gt;Node34</title>
<path fill="none" stroke="midnightblue" d="M256.506,-336.324C239.904,-327.703 214.214,-314.364 194.995,-304.386"/>
<polygon fill="midnightblue" stroke="midnightblue" points="196.371,-301.156 185.884,-299.655 193.146,-307.369 196.371,-301.156"/>
</g>
<!-- Node35 -->
<g id="node35" class="node"><title>Node35</title>
<g id="a_node35"><a xlink:href="_decoder_8h.html" target="_top" xlink:title=" ">
<polygon fill="white" stroke="black" points="183.716,-224.5 183.716,-243.5 314.716,-243.5 314.716,-224.5 183.716,-224.5"/>
<text text-anchor="middle" x="249.216" y="-231.5" font-family="Helvetica,sans-Serif" font-size="10.00">Cpl/Text/Frame/Decoder.h</text>
</a>
</g>
</g>
<!-- Node34&#45;&gt;Node35 -->
<g id="edge51" class="edge"><title>Node34&#45;&gt;Node35</title>
<path fill="none" stroke="midnightblue" d="M182.069,-280.324C194.432,-271.979 213.346,-259.212 227.953,-249.352"/>
<polygon fill="midnightblue" stroke="midnightblue" points="230.064,-252.15 236.394,-243.655 226.148,-246.348 230.064,-252.15"/>
</g>
<!-- Node35&#45;&gt;Node32 -->
<g id="edge52" class="edge"><title>Node35&#45;&gt;Node32</title>
<path fill="none" stroke="midnightblue" d="M279.005,-224.444C312.741,-214.753 367.614,-198.992 403.057,-188.811"/>
<polygon fill="midnightblue" stroke="midnightblue" points="404.301,-192.096 412.946,-185.971 402.369,-185.368 404.301,-192.096"/>
</g>
<!-- Node36&#45;&gt;Node33 -->
<g id="edge55" class="edge"><title>Node36&#45;&gt;Node33</title>
<path fill="none" stroke="midnightblue" d="M487.41,-448.433C459.596,-440.465 418.415,-427.509 384.216,-412 351.471,-397.151 316.01,-375.27 294.201,-361.075"/>
<polygon fill="midnightblue" stroke="midnightblue" points="296.015,-358.079 285.737,-355.505 292.166,-363.927 296.015,-358.079"/>
</g>
<!-- Node37&#45;&gt;Node7 -->
<g id="edge58" class="edge"><title>Node37&#45;&gt;Node7</title>
<path fill="none" stroke="midnightblue" d="M851.168,-336.474C863.148,-328.702 879.089,-316.002 886.216,-300 901.641,-265.366 883.849,-220.877 871.355,-196.651"/>
<polygon fill="midnightblue" stroke="midnightblue" points="874.285,-194.713 866.437,-187.597 868.134,-198.055 874.285,-194.713"/>
</g>
<!-- Node37&#45;&gt;Node16 -->
<g id="edge57" class="edge"><title>Node37&#45;&gt;Node16</title>
<path fill="none" stroke="midnightblue" d="M778.659,-342.811C609.118,-336.194 121.524,-315.879 91.2157,-300 35.8621,-271.001 25.6347,-247.396 6.2157,-188 3.45344,-179.551 0.237336,-174.578 6.2157,-168 33.0338,-138.492 290.609,-127.843 412.663,-124.432"/>
<polygon fill="midnightblue" stroke="midnightblue" points="413.08,-127.922 422.981,-124.152 412.89,-120.925 413.08,-127.922"/>
</g>
<!-- Node37&#45;&gt;Node24 -->
<g id="edge59" class="edge"><title>Node37&#45;&gt;Node24</title>
<path fill="none" stroke="midnightblue" d="M882.801,-336.444C934.626,-326.925 1018.35,-311.547 1073.83,-301.356"/>
<polygon fill="midnightblue" stroke="midnightblue" points="1074.65,-304.765 1083.85,-299.516 1073.38,-297.881 1074.65,-304.765"/>
</g>
<!-- Node38 -->
<g id="node38" class="node"><title>Node38</title>
<g id="a_node38"><a xlink:href="_system_2_trace_8h.html" target="_top" xlink:title=" ">
<polygon fill="white" stroke="black" points="773.216,-280.5 773.216,-299.5 877.216,-299.5 877.216,-280.5 773.216,-280.5"/>
<text text-anchor="middle" x="825.216" y="-287.5" font-family="Helvetica,sans-Serif" font-size="10.00">Cpl/System/Trace.h</text>
</a>
</g>
</g>
<!-- Node37&#45;&gt;Node38 -->
<g id="edge60" class="edge"><title>Node37&#45;&gt;Node38</title>
<path fill="none" stroke="midnightblue" d="M834.399,-336.083C832.942,-328.927 830.845,-318.635 829.023,-309.691"/>
<polygon fill="midnightblue" stroke="midnightblue" points="832.424,-308.851 826.998,-299.751 825.565,-310.248 832.424,-308.851"/>
</g>
<!-- Node38&#45;&gt;Node3 -->
<g id="edge61" class="edge"><title>Node38&#45;&gt;Node3</title>
<path fill="none" stroke="midnightblue" d="M835.55,-280.461C855.872,-263.519 902.189,-224.163 938.216,-188 994.128,-131.876 1054.9,-59.8541 1081.48,-27.7447"/>
<polygon fill="midnightblue" stroke="midnightblue" points="1084.38,-29.7351 1088.04,-19.793 1078.98,-25.2818 1084.38,-29.7351"/>
</g>
<!-- Node38&#45;&gt;Node7 -->
<g id="edge62" class="edge"><title>Node38&#45;&gt;Node7</title>
<path fill="none" stroke="midnightblue" d="M828.041,-280.368C833.876,-262.537 847.374,-221.295 855.236,-197.272"/>
<polygon fill="midnightblue" stroke="midnightblue" points="858.62,-198.184 858.404,-187.591 851.967,-196.007 858.62,-198.184"/>
</g>
<!-- Node38&#45;&gt;Node18 -->
<g id="edge70" class="edge"><title>Node38&#45;&gt;Node18</title>
<path fill="none" stroke="midnightblue" d="M792.099,-280.444C756.098,-271.142 698.446,-256.246 659.03,-246.062"/>
<polygon fill="midnightblue" stroke="midnightblue" points="659.735,-242.629 649.177,-243.516 657.984,-249.407 659.735,-242.629"/>
</g>
<!-- Node39 -->
<g id="node39" class="node"><title>Node39</title>
<g id="a_node39"><a xlink:href="_thread_8h.html" target="_top" xlink:title=" ">
<polygon fill="white" stroke="black" points="56.7157,-224.5 56.7157,-243.5 165.716,-243.5 165.716,-224.5 56.7157,-224.5"/>
<text text-anchor="middle" x="111.216" y="-231.5" font-family="Helvetica,sans-Serif" font-size="10.00">Cpl/System/Thread.h</text>
</a>
</g>
</g>
<!-- Node38&#45;&gt;Node39 -->
<g id="edge63" class="edge"><title>Node38&#45;&gt;Node39</title>
<path fill="none" stroke="midnightblue" d="M773.16,-281.123C769.798,-280.714 766.462,-280.334 763.216,-280 505.641,-253.48 436.87,-270.131 175.979,-244.101"/>
<polygon fill="midnightblue" stroke="midnightblue" points="176.119,-240.598 165.818,-243.076 175.416,-247.562 176.119,-240.598"/>
</g>
<!-- Node39&#45;&gt;Node8 -->
<g id="edge64" class="edge"><title>Node39&#45;&gt;Node8</title>
<path fill="none" stroke="midnightblue" d="M72.7343,-224.493C33.9177,-214.19 -17.1763,-194.822 6.2157,-168 117.294,-40.6344 587.428,-98.2382 774.459,-75.8739"/>
<polygon fill="midnightblue" stroke="midnightblue" points="775.031,-79.3288 784.491,-74.5566 774.12,-72.3884 775.031,-79.3288"/>
</g>
<!-- Node39&#45;&gt;Node32 -->
<g id="edge69" class="edge"><title>Node39&#45;&gt;Node32</title>
<path fill="none" stroke="midnightblue" d="M165.736,-224.97C237.599,-214.337 359.263,-196.156 403.29,-187.876"/>
<polygon fill="midnightblue" stroke="midnightblue" points="404.023,-191.299 413.142,-185.906 402.65,-184.434 404.023,-191.299"/>
</g>
<!-- Node40 -->
<g id="node40" class="node"><title>Node40</title>
<g id="a_node40"><a xlink:href="_runnable_8h.html" target="_top" xlink:title=" ">
<polygon fill="white" stroke="black" points="15.7157,-168.5 15.7157,-187.5 134.716,-187.5 134.716,-168.5 15.7157,-168.5"/>
<text text-anchor="middle" x="75.2157" y="-175.5" font-family="Helvetica,sans-Serif" font-size="10.00">Cpl/System/Runnable.h</text>
</a>
</g>
</g>
<!-- Node39&#45;&gt;Node40 -->
<g id="edge65" class="edge"><title>Node39&#45;&gt;Node40</title>
<path fill="none" stroke="midnightblue" d="M105.271,-224.083C100.238,-216.534 92.8789,-205.495 86.7022,-196.23"/>
<polygon fill="midnightblue" stroke="midnightblue" points="89.509,-194.13 81.0498,-187.751 83.6846,-198.013 89.509,-194.13"/>
</g>
<!-- Node41 -->
<g id="node41" class="node"><title>Node41</title>
<g id="a_node41"><a xlink:href="_signable_8h.html" target="_top" xlink:title=" ">
<polygon fill="white" stroke="black" points="279.216,-168.5 279.216,-187.5 395.216,-187.5 395.216,-168.5 279.216,-168.5"/>
<text text-anchor="middle" x="337.216" y="-175.5" font-family="Helvetica,sans-Serif" font-size="10.00">Cpl/System/Signable.h</text>
</a>
</g>
</g>
<!-- Node39&#45;&gt;Node41 -->
<g id="edge66" class="edge"><title>Node39&#45;&gt;Node41</title>
<path fill="none" stroke="midnightblue" d="M147.026,-224.444C186.203,-215.083 249.092,-200.056 291.731,-189.868"/>
<polygon fill="midnightblue" stroke="midnightblue" points="292.66,-193.245 301.573,-187.516 291.033,-186.436 292.66,-193.245"/>
</g>
<!-- Node42 -->
<g id="node42" class="node"><title>Node42</title>
<g id="a_node42"><a xlink:href="_traverser_8h.html" target="_top" xlink:title=" ">
<polygon fill="white" stroke="black" points="153.216,-168.5 153.216,-187.5 261.216,-187.5 261.216,-168.5 153.216,-168.5"/>
<text text-anchor="middle" x="207.216" y="-175.5" font-family="Helvetica,sans-Serif" font-size="10.00">Cpl/Type/Traverser.h</text>
</a>
</g>
</g>
<!-- Node39&#45;&gt;Node42 -->
<g id="edge68" class="edge"><title>Node39&#45;&gt;Node42</title>
<path fill="none" stroke="midnightblue" d="M126.64,-224.324C141.755,-215.822 165.031,-202.729 182.687,-192.797"/>
<polygon fill="midnightblue" stroke="midnightblue" points="184.83,-195.608 191.83,-187.655 181.398,-189.507 184.83,-195.608"/>
</g>
<!-- Node41&#45;&gt;Node16 -->
<g id="edge67" class="edge"><title>Node41&#45;&gt;Node16</title>
<path fill="none" stroke="midnightblue" d="M359.241,-168.444C382.32,-159.478 418.778,-145.314 444.857,-135.183"/>
<polygon fill="midnightblue" stroke="midnightblue" points="446.24,-138.4 454.294,-131.516 443.705,-131.875 446.24,-138.4"/>
</g>
</g>
</svg>
