<?xml version="1.0" encoding="UTF-8" standalone="no"?>
<!DOCTYPE svg PUBLIC "-//W3C//DTD SVG 1.1//EN"
 "http://www.w3.org/Graphics/SVG/1.1/DTD/svg11.dtd">
<!-- Generated by graphviz version 2.38.0 (20140413.2041)
 -->
<!-- Title: Cpl/Container/Map.h Pages: 1 -->
<svg width="1199pt" height="274pt"
 viewBox="0.00 0.00 1199.00 274.00" xmlns="http://www.w3.org/2000/svg" xmlns:xlink="http://www.w3.org/1999/xlink">
<g id="graph0" class="graph" transform="scale(1 1) rotate(0) translate(4 270)">
<title>Cpl/Container/Map.h</title>
<polygon fill="white" stroke="none" points="-4,4 -4,-270 1195,-270 1195,4 -4,4"/>
<!-- Node1 -->
<g id="node1" class="node"><title>Node1</title>
<g id="a_node1"><a xlink:title=" ">
<polygon fill="#bfbfbf" stroke="black" points="579.5,-246.5 579.5,-265.5 684.5,-265.5 684.5,-246.5 579.5,-246.5"/>
<text text-anchor="middle" x="632" y="-253.5" font-family="Helvetica,sans-Serif" font-size="10.00">Cpl/Container/Map.h</text>
</a>
</g>
</g>
<!-- Node2 -->
<g id="node2" class="node"><title>Node2</title>
<g id="a_node2"><a xlink:href="_cmd_2_command_8h.html" target="_top" xlink:title=" ">
<polygon fill="white" stroke="black" points="520,-134.5 520,-153.5 660,-153.5 660,-134.5 520,-134.5"/>
<text text-anchor="middle" x="590" y="-141.5" font-family="Helvetica,sans-Serif" font-size="10.00">Cpl/TShell/Cmd/Command.h</text>
</a>
</g>
</g>
<!-- Node1&#45;&gt;Node2 -->
<g id="edge1" class="edge"><title>Node1&#45;&gt;Node2</title>
<path fill="none" stroke="midnightblue" d="M622.003,-237.349C617.639,-229.191 612.687,-219.274 609,-210 601.181,-190.335 594.964,-166.189 591.962,-153.585"/>
<polygon fill="midnightblue" stroke="midnightblue" points="619.023,-239.192 626.911,-246.265 625.155,-235.817 619.023,-239.192"/>
</g>
<!-- Node13 -->
<g id="node13" class="node"><title>Node13</title>
<g id="a_node13"><a xlink:href="_context___8h.html" target="_top" xlink:title=" ">
<polygon fill="white" stroke="black" points="618,-190.5 618,-209.5 730,-209.5 730,-190.5 618,-190.5"/>
<text text-anchor="middle" x="674" y="-197.5" font-family="Helvetica,sans-Serif" font-size="10.00">Cpl/TShell/Context_.h</text>
</a>
</g>
</g>
<!-- Node1&#45;&gt;Node13 -->
<g id="edge12" class="edge"><title>Node1&#45;&gt;Node13</title>
<path fill="none" stroke="midnightblue" d="M645.11,-238.144C652.428,-228.736 661.241,-217.405 667.194,-209.751"/>
<polygon fill="midnightblue" stroke="midnightblue" points="642.312,-236.041 638.935,-246.083 647.838,-240.338 642.312,-236.041"/>
</g>
<!-- Node3 -->
<g id="node3" class="node"><title>Node3</title>
<g id="a_node3"><a xlink:href="_dm_8h.html" target="_top" xlink:title=" ">
<polygon fill="white" stroke="black" points="0,-73 0,-92 106,-92 106,-73 0,-73"/>
<text text-anchor="middle" x="53" y="-80" font-family="Helvetica,sans-Serif" font-size="10.00">Cpl/Dm/TShell/Dm.h</text>
</a>
</g>
</g>
<!-- Node2&#45;&gt;Node3 -->
<g id="edge2" class="edge"><title>Node2&#45;&gt;Node3</title>
<path fill="none" stroke="midnightblue" d="M509.914,-138.728C415.152,-132.91 252.833,-120.54 115,-98 105.4,-96.43 95.0734,-94.226 85.6547,-92.0094"/>
<polygon fill="midnightblue" stroke="midnightblue" points="509.806,-142.228 520,-139.338 510.229,-135.241 509.806,-142.228"/>
</g>
<!-- Node4 -->
<g id="node4" class="node"><title>Node4</title>
<g id="a_node4"><a xlink:href="_dbg_8h.html" target="_top" xlink:title=" ">
<polygon fill="white" stroke="black" points="124.5,-67.5 124.5,-97.5 245.5,-97.5 245.5,-67.5 124.5,-67.5"/>
<text text-anchor="start" x="132.5" y="-85.5" font-family="Helvetica,sans-Serif" font-size="10.00">Cpl/TShell/Cmd/Arduino</text>
<text text-anchor="middle" x="185" y="-74.5" font-family="Helvetica,sans-Serif" font-size="10.00">/Dbg.h</text>
</a>
</g>
</g>
<!-- Node2&#45;&gt;Node4 -->
<g id="edge3" class="edge"><title>Node2&#45;&gt;Node4</title>
<path fill="none" stroke="midnightblue" d="M509.702,-133.939C441.472,-125.836 341.034,-112.952 254,-98 251.225,-97.5233 248.392,-97.0152 245.534,-96.4853"/>
<polygon fill="midnightblue" stroke="midnightblue" points="509.607,-137.452 519.949,-135.149 510.428,-130.501 509.607,-137.452"/>
</g>
<!-- Node5 -->
<g id="node5" class="node"><title>Node5</title>
<g id="a_node5"><a xlink:href="_bye_8h.html" target="_top" xlink:title=" ">
<polygon fill="white" stroke="black" points="263.5,-73 263.5,-92 376.5,-92 376.5,-73 263.5,-73"/>
<text text-anchor="middle" x="320" y="-80" font-family="Helvetica,sans-Serif" font-size="10.00">Cpl/TShell/Cmd/Bye.h</text>
</a>
</g>
</g>
<!-- Node2&#45;&gt;Node5 -->
<g id="edge4" class="edge"><title>Node2&#45;&gt;Node5</title>
<path fill="none" stroke="midnightblue" d="M541.257,-132.258C488.88,-120.716 406.698,-102.606 358.613,-92.0091"/>
<polygon fill="midnightblue" stroke="midnightblue" points="540.797,-135.741 551.316,-134.475 542.303,-128.905 540.797,-135.741"/>
</g>
<!-- Node6 -->
<g id="node6" class="node"><title>Node6</title>
<g id="a_node6"><a xlink:href="_help_8h.html" target="_top" xlink:title=" ">
<polygon fill="white" stroke="black" points="395,-73 395,-92 511,-92 511,-73 395,-73"/>
<text text-anchor="middle" x="453" y="-80" font-family="Helvetica,sans-Serif" font-size="10.00">Cpl/TShell/Cmd/Help.h</text>
</a>
</g>
</g>
<!-- Node2&#45;&gt;Node6 -->
<g id="edge5" class="edge"><title>Node2&#45;&gt;Node6</title>
<path fill="none" stroke="midnightblue" d="M561.171,-130.48C534.564,-118.924 495.771,-102.076 472.592,-92.0091"/>
<polygon fill="midnightblue" stroke="midnightblue" points="559.805,-133.702 570.371,-134.475 562.593,-127.281 559.805,-133.702"/>
</g>
<!-- Node7 -->
<g id="node7" class="node"><title>Node7</title>
<g id="a_node7"><a xlink:href="_t_print_8h.html" target="_top" xlink:title=" ">
<polygon fill="white" stroke="black" points="529,-73 529,-92 651,-92 651,-73 529,-73"/>
<text text-anchor="middle" x="590" y="-80" font-family="Helvetica,sans-Serif" font-size="10.00">Cpl/TShell/Cmd/TPrint.h</text>
</a>
</g>
</g>
<!-- Node2&#45;&gt;Node7 -->
<g id="edge6" class="edge"><title>Node2&#45;&gt;Node7</title>
<path fill="none" stroke="midnightblue" d="M590,-124.317C590,-113.496 590,-100.398 590,-92.0091"/>
<polygon fill="midnightblue" stroke="midnightblue" points="586.5,-124.475 590,-134.475 593.5,-124.475 586.5,-124.475"/>
</g>
<!-- Node8 -->
<g id="node8" class="node"><title>Node8</title>
<g id="a_node8"><a xlink:href="_threads_8h.html" target="_top" xlink:title=" ">
<polygon fill="white" stroke="black" points="669.5,-73 669.5,-92 800.5,-92 800.5,-73 669.5,-73"/>
<text text-anchor="middle" x="735" y="-80" font-family="Helvetica,sans-Serif" font-size="10.00">Cpl/TShell/Cmd/Threads.h</text>
</a>
</g>
</g>
<!-- Node2&#45;&gt;Node8 -->
<g id="edge7" class="edge"><title>Node2&#45;&gt;Node8</title>
<path fill="none" stroke="midnightblue" d="M620.142,-130.631C648.313,-119.072 689.624,-102.12 714.264,-92.0091"/>
<polygon fill="midnightblue" stroke="midnightblue" points="618.698,-127.441 610.775,-134.475 621.355,-133.917 618.698,-127.441"/>
</g>
<!-- Node11 -->
<g id="node11" class="node"><title>Node11</title>
<g id="a_node11"><a xlink:href="_tick_8h.html" target="_top" xlink:title=" ">
<polygon fill="white" stroke="black" points="818.5,-73 818.5,-92 933.5,-92 933.5,-73 818.5,-73"/>
<text text-anchor="middle" x="876" y="-80" font-family="Helvetica,sans-Serif" font-size="10.00">Cpl/TShell/Cmd/Tick.h</text>
</a>
</g>
</g>
<!-- Node2&#45;&gt;Node11 -->
<g id="edge10" class="edge"><title>Node2&#45;&gt;Node11</title>
<path fill="none" stroke="midnightblue" d="M642.398,-132.394C686.784,-123.371 752.096,-110.004 809,-98 818.083,-96.084 827.851,-93.9895 837.043,-92.003"/>
<polygon fill="midnightblue" stroke="midnightblue" points="641.523,-129 632.42,-134.421 642.917,-135.86 641.523,-129"/>
</g>
<!-- Node12 -->
<g id="node12" class="node"><title>Node12</title>
<g id="a_node12"><a xlink:href="_t_shell_2_cmd_2_trace_8h.html" target="_top" xlink:title=" ">
<polygon fill="white" stroke="black" points="951.5,-73 951.5,-92 1072.5,-92 1072.5,-73 951.5,-73"/>
<text text-anchor="middle" x="1012" y="-80" font-family="Helvetica,sans-Serif" font-size="10.00">Cpl/TShell/Cmd/Trace.h</text>
</a>
</g>
</g>
<!-- Node2&#45;&gt;Node12 -->
<g id="edge11" class="edge"><title>Node2&#45;&gt;Node12</title>
<path fill="none" stroke="midnightblue" d="M670.31,-134.518C741.824,-126.54 849.189,-113.521 942,-98 952.282,-96.2804 963.353,-94.1282 973.589,-92.0123"/>
<polygon fill="midnightblue" stroke="midnightblue" points="669.579,-131.077 660.025,-135.658 670.35,-138.035 669.579,-131.077"/>
</g>
<!-- Node9 -->
<g id="node9" class="node"><title>Node9</title>
<g id="a_node9"><a xlink:href="_free_r_t_o_s_2_threads_8h.html" target="_top" xlink:title=" ">
<polygon fill="white" stroke="black" points="597,-0.5 597,-30.5 731,-30.5 731,-0.5 597,-0.5"/>
<text text-anchor="start" x="605" y="-18.5" font-family="Helvetica,sans-Serif" font-size="10.00">Cpl/TShell/Cmd/FreeRTOS</text>
<text text-anchor="middle" x="664" y="-7.5" font-family="Helvetica,sans-Serif" font-size="10.00">/Threads.h</text>
</a>
</g>
</g>
<!-- Node8&#45;&gt;Node9 -->
<g id="edge8" class="edge"><title>Node8&#45;&gt;Node9</title>
<path fill="none" stroke="midnightblue" d="M717.991,-65.928C706.249,-55.1788 690.764,-41.0024 679.39,-30.589"/>
<polygon fill="midnightblue" stroke="midnightblue" points="715.685,-68.5628 725.425,-72.7338 720.412,-63.3997 715.685,-68.5628"/>
</g>
<!-- Node10 -->
<g id="node10" class="node"><title>Node10</title>
<g id="a_node10"><a xlink:href="_win32_2_threads_8h.html" target="_top" xlink:title=" ">
<polygon fill="white" stroke="black" points="749.5,-0.5 749.5,-30.5 864.5,-30.5 864.5,-0.5 749.5,-0.5"/>
<text text-anchor="start" x="757.5" y="-18.5" font-family="Helvetica,sans-Serif" font-size="10.00">Cpl/TShell/Cmd/Win32</text>
<text text-anchor="middle" x="807" y="-7.5" font-family="Helvetica,sans-Serif" font-size="10.00">/Threads.h</text>
</a>
</g>
</g>
<!-- Node8&#45;&gt;Node10 -->
<g id="edge9" class="edge"><title>Node8&#45;&gt;Node10</title>
<path fill="none" stroke="midnightblue" d="M752.249,-65.928C764.156,-55.1788 779.859,-41.0024 791.394,-30.589"/>
<polygon fill="midnightblue" stroke="midnightblue" points="749.788,-63.4348 744.71,-72.7338 754.478,-68.6307 749.788,-63.4348"/>
</g>
<!-- Node13&#45;&gt;Node2 -->
<g id="edge13" class="edge"><title>Node13&#45;&gt;Node2</title>
<path fill="none" stroke="midnightblue" d="M652.068,-184.901C636.665,-174.999 616.554,-162.071 603.463,-153.655"/>
<polygon fill="midnightblue" stroke="midnightblue" points="650.199,-187.86 660.504,-190.324 653.985,-181.972 650.199,-187.86"/>
</g>
<!-- Node14 -->
<g id="node14" class="node"><title>Node14</title>
<g id="a_node14"><a xlink:href="_processor_8h.html" target="_top" xlink:title=" ">
<polygon fill="white" stroke="black" points="880.5,-134.5 880.5,-153.5 997.5,-153.5 997.5,-134.5 880.5,-134.5"/>
<text text-anchor="middle" x="939" y="-141.5" font-family="Helvetica,sans-Serif" font-size="10.00">Cpl/TShell/Processor.h</text>
</a>
</g>
</g>
<!-- Node13&#45;&gt;Node14 -->
<g id="edge14" class="edge"><title>Node13&#45;&gt;Node14</title>
<path fill="none" stroke="midnightblue" d="M725.972,-188.41C776.054,-178.204 850.864,-162.96 897.206,-153.516"/>
<polygon fill="midnightblue" stroke="midnightblue" points="725.09,-185.017 715.99,-190.444 726.488,-191.876 725.09,-185.017"/>
</g>
<!-- Node15 -->
<g id="node15" class="node"><title>Node15</title>
<g id="a_node15"><a xlink:href="_maker_8h.html" target="_top" xlink:title=" ">
<polygon fill="white" stroke="black" points="1091,-73 1091,-92 1191,-92 1191,-73 1091,-73"/>
<text text-anchor="middle" x="1141" y="-80" font-family="Helvetica,sans-Serif" font-size="10.00">Cpl/TShell/Maker.h</text>
</a>
</g>
</g>
<!-- Node14&#45;&gt;Node15 -->
<g id="edge15" class="edge"><title>Node14&#45;&gt;Node15</title>
<path fill="none" stroke="midnightblue" d="M977.695,-131.602C1016.95,-120.04 1076.81,-102.407 1112.11,-92.0091"/>
<polygon fill="midnightblue" stroke="midnightblue" points="976.545,-128.292 967.942,-134.475 978.523,-135.007 976.545,-128.292"/>
</g>
</g>
</svg>
