<?xml version="1.0" encoding="UTF-8" standalone="no"?>
<!DOCTYPE svg PUBLIC "-//W3C//DTD SVG 1.1//EN"
 "http://www.w3.org/Graphics/SVG/1.1/DTD/svg11.dtd">
<!-- Generated by graphviz version 10.0.1 (20240210.2158)
 -->
<!-- Title: Cpl/Container/Map.h Pages: 1 -->
<svg width="425pt" height="364pt"
 viewBox="0.00 0.00 425.12 364.00" xmlns="http://www.w3.org/2000/svg" xmlns:xlink="http://www.w3.org/1999/xlink">
<g id="graph0" class="graph" transform="scale(1 1) rotate(0) translate(4 360)">
<title>Cpl/Container/Map.h</title>
<!-- Node1 -->
<g id="Node000001" class="node">
<title>Node1</title>
<g id="a_Node000001"><a xlink:title=" ">
<polygon fill="#999999" stroke="#666666" points="137,-356 32.5,-356 32.5,-336 137,-336 137,-356"/>
<text text-anchor="middle" x="84.75" y="-342.5" font-family="Helvetica,sans-Serif" font-size="10.00">Cpl/Container/Map.h</text>
</a>
</g>
</g>
<!-- Node2 -->
<g id="Node000002" class="node">
<title>Node2</title>
<g id="a_Node000002"><a xlink:href="_avl_tree___8h.html" target="_top" xlink:title=" ">
<polygon fill="white" stroke="#666666" points="146,-300 23.5,-300 23.5,-280 146,-280 146,-300"/>
<text text-anchor="middle" x="84.75" y="-286.5" font-family="Helvetica,sans-Serif" font-size="10.00">Cpl/Container/AvlTree_.h</text>
</a>
</g>
</g>
<!-- Node1&#45;&gt;Node2 -->
<g id="edge1_Node000001_Node000002" class="edge">
<title>Node1&#45;&gt;Node2</title>
<g id="a_edge1_Node000001_Node000002"><a xlink:title=" ">
<path fill="none" stroke="#63b8ff" d="M84.75,-335.59C84.75,-329.01 84.75,-319.96 84.75,-311.73"/>
<polygon fill="#63b8ff" stroke="#63b8ff" points="88.25,-311.81 84.75,-301.81 81.25,-311.81 88.25,-311.81"/>
</a>
</g>
</g>
<!-- Node3 -->
<g id="Node000003" class="node">
<title>Node3</title>
<g id="a_Node000003"><a xlink:title=" ">
<polygon fill="#e0e0e0" stroke="#999999" points="83.5,-20 0,-20 0,0 83.5,0 83.5,-20"/>
<text text-anchor="middle" x="41.75" y="-6.5" font-family="Helvetica,sans-Serif" font-size="10.00">colony_config.h</text>
</a>
</g>
</g>
<!-- Node2&#45;&gt;Node3 -->
<g id="edge2_Node000002_Node000003" class="edge">
<title>Node2&#45;&gt;Node3</title>
<g id="a_edge2_Node000002_Node000003"><a xlink:title=" ">
<path fill="none" stroke="#63b8ff" d="M77.92,-279.53C65.33,-261.12 39.75,-218.82 39.75,-179 39.75,-179 39.75,-179 39.75,-121 39.75,-89.86 40.56,-53.78 41.15,-31.67"/>
<polygon fill="#63b8ff" stroke="#63b8ff" points="44.64,-32.02 41.42,-21.93 37.64,-31.83 44.64,-32.02"/>
</a>
</g>
</g>
<!-- Node4 -->
<g id="Node000004" class="node">
<title>Node4</title>
<g id="a_Node000004"><a xlink:href="_map_item_8h.html" target="_top" xlink:title=" ">
<polygon fill="white" stroke="#666666" points="191.38,-244 68.12,-244 68.12,-224 191.38,-224 191.38,-244"/>
<text text-anchor="middle" x="129.75" y="-230.5" font-family="Helvetica,sans-Serif" font-size="10.00">Cpl/Container/MapItem.h</text>
</a>
</g>
</g>
<!-- Node2&#45;&gt;Node4 -->
<g id="edge3_Node000002_Node000004" class="edge">
<title>Node2&#45;&gt;Node4</title>
<g id="a_edge3_Node000002_Node000004"><a xlink:title=" ">
<path fill="none" stroke="#63b8ff" d="M92.59,-279.59C98.72,-272.24 107.42,-261.8 114.86,-252.87"/>
<polygon fill="#63b8ff" stroke="#63b8ff" points="117.32,-255.38 121.03,-245.46 111.94,-250.9 117.32,-255.38"/>
</a>
</g>
</g>
<!-- Node5 -->
<g id="Node000005" class="node">
<title>Node5</title>
<g id="a_Node000005"><a xlink:href="_dict_item_8h.html" target="_top" xlink:title=" ">
<polygon fill="white" stroke="#666666" points="190.62,-188 68.88,-188 68.88,-168 190.62,-168 190.62,-188"/>
<text text-anchor="middle" x="129.75" y="-174.5" font-family="Helvetica,sans-Serif" font-size="10.00">Cpl/Container/DictItem.h</text>
</a>
</g>
</g>
<!-- Node4&#45;&gt;Node5 -->
<g id="edge4_Node000004_Node000005" class="edge">
<title>Node4&#45;&gt;Node5</title>
<g id="a_edge4_Node000004_Node000005"><a xlink:title=" ">
<path fill="none" stroke="#63b8ff" d="M129.75,-223.59C129.75,-217.01 129.75,-207.96 129.75,-199.73"/>
<polygon fill="#63b8ff" stroke="#63b8ff" points="133.25,-199.81 129.75,-189.81 126.25,-199.81 133.25,-199.81"/>
</a>
</g>
</g>
<!-- Node6 -->
<g id="Node000006" class="node">
<title>Node6</title>
<g id="a_Node000006"><a xlink:href="_item_8h.html" target="_top" xlink:title=" ">
<polygon fill="white" stroke="#666666" points="177,-132 72.5,-132 72.5,-112 177,-112 177,-132"/>
<text text-anchor="middle" x="124.75" y="-118.5" font-family="Helvetica,sans-Serif" font-size="10.00">Cpl/Container/Item.h</text>
</a>
</g>
</g>
<!-- Node5&#45;&gt;Node6 -->
<g id="edge5_Node000005_Node000006" class="edge">
<title>Node5&#45;&gt;Node6</title>
<g id="a_edge5_Node000005_Node000006"><a xlink:title=" ">
<path fill="none" stroke="#63b8ff" d="M128.88,-167.59C128.27,-161.01 127.43,-151.96 126.67,-143.73"/>
<polygon fill="#63b8ff" stroke="#63b8ff" points="130.16,-143.44 125.75,-133.81 123.19,-144.09 130.16,-143.44"/>
</a>
</g>
</g>
<!-- Node7 -->
<g id="Node000007" class="node">
<title>Node7</title>
<g id="a_Node000007"><a xlink:href="_key_8h.html" target="_top" xlink:title=" ">
<polygon fill="white" stroke="#666666" points="298.25,-132 195.25,-132 195.25,-112 298.25,-112 298.25,-132"/>
<text text-anchor="middle" x="246.75" y="-118.5" font-family="Helvetica,sans-Serif" font-size="10.00">Cpl/Container/Key.h</text>
</a>
</g>
</g>
<!-- Node5&#45;&gt;Node7 -->
<g id="edge6_Node000005_Node000007" class="edge">
<title>Node5&#45;&gt;Node7</title>
<g id="a_edge6_Node000005_Node000007"><a xlink:title=" ">
<path fill="none" stroke="#63b8ff" d="M150.13,-167.59C168.31,-159.21 195.18,-146.8 215.97,-137.21"/>
<polygon fill="#63b8ff" stroke="#63b8ff" points="217.22,-140.48 224.84,-133.11 214.29,-134.13 217.22,-140.48"/>
</a>
</g>
</g>
<!-- Node8 -->
<g id="Node000008" class="node">
<title>Node8</title>
<g id="a_Node000008"><a xlink:href="_fatal_error_8h.html" target="_top" xlink:title=" ">
<polygon fill="white" stroke="#666666" points="189.25,-76 68.25,-76 68.25,-56 189.25,-56 189.25,-76"/>
<text text-anchor="middle" x="128.75" y="-62.5" font-family="Helvetica,sans-Serif" font-size="10.00">Cpl/System/FatalError.h</text>
</a>
</g>
</g>
<!-- Node7&#45;&gt;Node8 -->
<g id="edge7_Node000007_Node000008" class="edge">
<title>Node7&#45;&gt;Node8</title>
<g id="a_edge7_Node000007_Node000008"><a xlink:title=" ">
<path fill="none" stroke="#63b8ff" d="M226.2,-111.59C207.87,-103.21 180.76,-90.8 159.79,-81.21"/>
<polygon fill="#63b8ff" stroke="#63b8ff" points="161.39,-78.09 150.84,-77.11 158.48,-84.45 161.39,-78.09"/>
</a>
</g>
</g>
<!-- Node10 -->
<g id="Node000010" class="node">
<title>Node10</title>
<g id="a_Node000010"><a xlink:title=" ">
<polygon fill="#e0e0e0" stroke="#999999" points="255.88,-76 207.62,-76 207.62,-56 255.88,-56 255.88,-76"/>
<text text-anchor="middle" x="231.75" y="-62.5" font-family="Helvetica,sans-Serif" font-size="10.00">stdint.h</text>
</a>
</g>
</g>
<!-- Node7&#45;&gt;Node10 -->
<g id="edge10_Node000007_Node000010" class="edge">
<title>Node7&#45;&gt;Node10</title>
<g id="a_edge10_Node000007_Node000010"><a xlink:title=" ">
<path fill="none" stroke="#63b8ff" d="M244.14,-111.59C242.27,-104.86 239.68,-95.53 237.35,-87.15"/>
<polygon fill="#63b8ff" stroke="#63b8ff" points="240.79,-86.46 234.74,-77.76 234.04,-88.33 240.79,-86.46"/>
</a>
</g>
</g>
<!-- Node11 -->
<g id="Node000011" class="node">
<title>Node11</title>
<g id="a_Node000011"><a xlink:title=" ">
<polygon fill="#e0e0e0" stroke="#999999" points="321.88,-76 273.62,-76 273.62,-56 321.88,-56 321.88,-76"/>
<text text-anchor="middle" x="297.75" y="-62.5" font-family="Helvetica,sans-Serif" font-size="10.00">string.h</text>
</a>
</g>
</g>
<!-- Node7&#45;&gt;Node11 -->
<g id="edge11_Node000007_Node000011" class="edge">
<title>Node7&#45;&gt;Node11</title>
<g id="a_edge11_Node000007_Node000011"><a xlink:title=" ">
<path fill="none" stroke="#63b8ff" d="M255.63,-111.59C262.65,-104.16 272.65,-93.58 281.14,-84.58"/>
<polygon fill="#63b8ff" stroke="#63b8ff" points="283.61,-87.07 287.93,-77.4 278.52,-82.27 283.61,-87.07"/>
</a>
</g>
</g>
<!-- Node12 -->
<g id="Node000012" class="node">
<title>Node12</title>
<g id="a_Node000012"><a xlink:title=" ">
<polygon fill="#e0e0e0" stroke="#999999" points="417.12,-76 340.38,-76 340.38,-56 417.12,-56 417.12,-76"/>
<text text-anchor="middle" x="378.75" y="-62.5" font-family="Helvetica,sans-Serif" font-size="10.00">colony_map.h</text>
</a>
</g>
</g>
<!-- Node7&#45;&gt;Node12 -->
<g id="edge12_Node000007_Node000012" class="edge">
<title>Node7&#45;&gt;Node12</title>
<g id="a_edge12_Node000007_Node000012"><a xlink:title=" ">
<path fill="none" stroke="#63b8ff" d="M269.74,-111.59C290.53,-103.09 321.4,-90.46 344.99,-80.81"/>
<polygon fill="#63b8ff" stroke="#63b8ff" points="346.25,-84.08 354.18,-77.05 343.6,-77.6 346.25,-84.08"/>
</a>
</g>
</g>
<!-- Node8&#45;&gt;Node3 -->
<g id="edge9_Node000008_Node000003" class="edge">
<title>Node8&#45;&gt;Node3</title>
<g id="a_edge9_Node000008_Node000003"><a xlink:title=" ">
<path fill="none" stroke="#63b8ff" d="M113.6,-55.59C100.7,-47.59 81.92,-35.93 66.79,-26.54"/>
<polygon fill="#63b8ff" stroke="#63b8ff" points="68.65,-23.58 58.31,-21.28 64.96,-29.53 68.65,-23.58"/>
</a>
</g>
</g>
<!-- Node9 -->
<g id="Node000009" class="node">
<title>Node9</title>
<g id="a_Node000009"><a xlink:title=" ">
<polygon fill="#e0e0e0" stroke="#999999" points="154,-20 103.5,-20 103.5,0 154,0 154,-20"/>
<text text-anchor="middle" x="128.75" y="-6.5" font-family="Helvetica,sans-Serif" font-size="10.00">stddef.h</text>
</a>
</g>
</g>
<!-- Node8&#45;&gt;Node9 -->
<g id="edge8_Node000008_Node000009" class="edge">
<title>Node8&#45;&gt;Node9</title>
<g id="a_edge8_Node000008_Node000009"><a xlink:title=" ">
<path fill="none" stroke="#63b8ff" d="M128.75,-55.59C128.75,-49.01 128.75,-39.96 128.75,-31.73"/>
<polygon fill="#63b8ff" stroke="#63b8ff" points="132.25,-31.81 128.75,-21.81 125.25,-31.81 132.25,-31.81"/>
</a>
</g>
</g>
</g>
</svg>
