<?xml version="1.0" encoding="UTF-8" standalone="no"?>
<!DOCTYPE svg PUBLIC "-//W3C//DTD SVG 1.1//EN"
 "http://www.w3.org/Graphics/SVG/1.1/DTD/svg11.dtd">
<!-- Generated by graphviz version 10.0.1 (20240210.2158)
 -->
<!-- Title: Cpl/Container/Map.h Pages: 1 -->
<svg width="2652pt" height="288pt"
 viewBox="0.00 0.00 2651.64 288.00" xmlns="http://www.w3.org/2000/svg" xmlns:xlink="http://www.w3.org/1999/xlink">
<g id="graph0" class="graph" transform="scale(1 1) rotate(0) translate(4 284)">
<title>Cpl/Container/Map.h</title>
<!-- Node1 -->
<g id="Node000001" class="node">
<title>Node1</title>
<g id="a_Node000001"><a xlink:title=" ">
<polygon fill="#999999" stroke="#666666" points="1098.64,-280 994.14,-280 994.14,-260 1098.64,-260 1098.64,-280"/>
<text text-anchor="middle" x="1046.39" y="-266.5" font-family="Helvetica,sans-Serif" font-size="10.00">Cpl/Container/Map.h</text>
</a>
</g>
</g>
<!-- Node2 -->
<g id="Node000002" class="node">
<title>Node2</title>
<g id="a_Node000002"><a xlink:href="_m_app___8h.html" target="_top" xlink:title=" ">
<polygon fill="white" stroke="#666666" points="892.77,-224 792.02,-224 792.02,-204 892.77,-204 892.77,-224"/>
<text text-anchor="middle" x="842.39" y="-210.5" font-family="Helvetica,sans-Serif" font-size="10.00">Cpl/MApp/MApp_.h</text>
</a>
</g>
</g>
<!-- Node1&#45;&gt;Node2 -->
<g id="edge1_Node000001_Node000002" class="edge">
<title>Node1&#45;&gt;Node2</title>
<g id="a_edge1_Node000001_Node000002"><a xlink:title=" ">
<path fill="none" stroke="#63b8ff" d="M999.88,-256.69C962.93,-246.91 912.03,-233.43 878.21,-224.48"/>
<polygon fill="#63b8ff" stroke="#63b8ff" points="998.83,-260.03 1009.4,-259.21 1000.63,-253.26 998.83,-260.03"/>
</a>
</g>
</g>
<!-- Node4 -->
<g id="Node000004" class="node">
<title>Node4</title>
<g id="a_Node000004"><a xlink:href="_manager_8h.html" target="_top" xlink:title=" ">
<polygon fill="white" stroke="#666666" points="1018.14,-224 910.64,-224 910.64,-204 1018.14,-204 1018.14,-224"/>
<text text-anchor="middle" x="964.39" y="-210.5" font-family="Helvetica,sans-Serif" font-size="10.00">Cpl/MApp/Manager.h</text>
</a>
</g>
</g>
<!-- Node1&#45;&gt;Node4 -->
<g id="edge3_Node000001_Node000004" class="edge">
<title>Node1&#45;&gt;Node4</title>
<g id="a_edge3_Node000001_Node000004"><a xlink:title=" ">
<path fill="none" stroke="#63b8ff" d="M1022.51,-253.27C1008.35,-243.94 990.86,-232.43 978.79,-224.48"/>
<polygon fill="#63b8ff" stroke="#63b8ff" points="1020.57,-256.18 1030.85,-258.76 1024.42,-250.34 1020.57,-256.18"/>
</a>
</g>
</g>
<!-- Node5 -->
<g id="Node000005" class="node">
<title>Node5</title>
<g id="a_Node000005"><a xlink:href="_cmd_2_command_8h.html" target="_top" xlink:title=" ">
<polygon fill="white" stroke="#666666" points="1225.89,-162 1086.89,-162 1086.89,-142 1225.89,-142 1225.89,-162"/>
<text text-anchor="middle" x="1156.39" y="-148.5" font-family="Helvetica,sans-Serif" font-size="10.00">Cpl/TShell/Cmd/Command.h</text>
</a>
</g>
</g>
<!-- Node1&#45;&gt;Node5 -->
<g id="edge4_Node000001_Node000005" class="edge">
<title>Node1&#45;&gt;Node5</title>
<g id="a_edge4_Node000001_Node000005"><a xlink:title=" ">
<path fill="none" stroke="#63b8ff" d="M1061.57,-250.88C1072.83,-237.63 1088.72,-219.37 1103.39,-204 1117.86,-188.85 1135.54,-172.18 1146.38,-162.16"/>
<polygon fill="#63b8ff" stroke="#63b8ff" points="1059.02,-248.47 1055.25,-258.37 1064.37,-252.98 1059.02,-248.47"/>
</a>
</g>
</g>
<!-- Node27 -->
<g id="Node000027" class="node">
<title>Node27</title>
<g id="a_Node000027"><a xlink:href="_context___8h.html" target="_top" xlink:title=" ">
<polygon fill="white" stroke="#666666" points="1222.64,-224 1112.14,-224 1112.14,-204 1222.64,-204 1222.64,-224"/>
<text text-anchor="middle" x="1167.39" y="-210.5" font-family="Helvetica,sans-Serif" font-size="10.00">Cpl/TShell/Context_.h</text>
</a>
</g>
</g>
<!-- Node1&#45;&gt;Node27 -->
<g id="edge27_Node000001_Node000027" class="edge">
<title>Node1&#45;&gt;Node27</title>
<g id="a_edge27_Node000001_Node000027"><a xlink:title=" ">
<path fill="none" stroke="#63b8ff" d="M1077.74,-255.01C1099.25,-245.41 1127.22,-232.93 1146.15,-224.48"/>
<polygon fill="#63b8ff" stroke="#63b8ff" points="1076.56,-251.71 1068.85,-258.98 1079.41,-258.1 1076.56,-251.71"/>
</a>
</g>
</g>
<!-- Node32 -->
<g id="Node000032" class="node">
<title>Node32</title>
<g id="a_Node000032"><a xlink:href="_main_8h.html" target="_top" xlink:title="This file defines the hardware/platform independent start&#45;up interface(s) for the Storm::Thermostat a...">
<polygon fill="white" stroke="#666666" points="1057.39,-168 939.39,-168 939.39,-136 1057.39,-136 1057.39,-168"/>
<text text-anchor="start" x="947.39" y="-154.5" font-family="Helvetica,sans-Serif" font-size="10.00">Storm/Thermostat/Main</text>
<text text-anchor="middle" x="998.39" y="-142.5" font-family="Helvetica,sans-Serif" font-size="10.00">/Main.h</text>
</a>
</g>
</g>
<!-- Node1&#45;&gt;Node32 -->
<g id="edge33_Node000001_Node000032" class="edge">
<title>Node1&#45;&gt;Node32</title>
<g id="a_edge33_Node000001_Node000032"><a xlink:title=" ">
<path fill="none" stroke="#63b8ff" d="M1041.7,-248.48C1038.41,-235.48 1033.51,-218.44 1027.39,-204 1022.07,-191.43 1014.37,-178.05 1008.25,-168.15"/>
<polygon fill="#63b8ff" stroke="#63b8ff" points="1038.26,-249.13 1044,-258.03 1045.06,-247.49 1038.26,-249.13"/>
</a>
</g>
</g>
<!-- Node3 -->
<g id="Node000003" class="node">
<title>Node3</title>
<g id="a_Node000003"><a xlink:href="_cpl_2_m_app_2_temperature_2_api_8h.html" target="_top" xlink:title=" ">
<polygon fill="white" stroke="#666666" points="900.27,-168 784.52,-168 784.52,-136 900.27,-136 900.27,-168"/>
<text text-anchor="start" x="792.52" y="-154.5" font-family="Helvetica,sans-Serif" font-size="10.00">Cpl/MApp/Temperature</text>
<text text-anchor="middle" x="842.39" y="-142.5" font-family="Helvetica,sans-Serif" font-size="10.00">/Api.h</text>
</a>
</g>
</g>
<!-- Node2&#45;&gt;Node3 -->
<g id="edge2_Node000002_Node000003" class="edge">
<title>Node2&#45;&gt;Node3</title>
<g id="a_edge2_Node000002_Node000003"><a xlink:title=" ">
<path fill="none" stroke="#63b8ff" d="M842.39,-192.31C842.39,-184.37 842.39,-175.46 842.39,-168.14"/>
<polygon fill="#63b8ff" stroke="#63b8ff" points="838.89,-192.11 842.39,-202.11 845.89,-192.11 838.89,-192.11"/>
</a>
</g>
</g>
<!-- Node6 -->
<g id="Node000006" class="node">
<title>Node6</title>
<g id="a_Node000006"><a xlink:href="_dm_8h.html" target="_top" xlink:title=" ">
<polygon fill="white" stroke="#666666" points="1033.64,-94 929.14,-94 929.14,-74 1033.64,-74 1033.64,-94"/>
<text text-anchor="middle" x="981.39" y="-80.5" font-family="Helvetica,sans-Serif" font-size="10.00">Cpl/Dm/TShell/Dm.h</text>
</a>
</g>
</g>
<!-- Node5&#45;&gt;Node6 -->
<g id="edge5_Node000005_Node000006" class="edge">
<title>Node5&#45;&gt;Node6</title>
<g id="a_edge5_Node000005_Node000006"><a xlink:title=" ">
<path fill="none" stroke="#63b8ff" d="M1120.9,-137.61C1086.89,-124.79 1036.42,-105.75 1006.42,-94.44"/>
<polygon fill="#63b8ff" stroke="#63b8ff" points="1119.31,-140.76 1129.91,-141.01 1121.78,-134.21 1119.31,-140.76"/>
</a>
</g>
</g>
<!-- Node7 -->
<g id="Node000007" class="node">
<title>Node7</title>
<g id="a_Node000007"><a xlink:href="_cpl_2_logging_2_t_shell_2_log_8h.html" target="_top" xlink:title=" ">
<polygon fill="white" stroke="#666666" points="1148.89,-100 1051.89,-100 1051.89,-68 1148.89,-68 1148.89,-100"/>
<text text-anchor="start" x="1059.89" y="-86.5" font-family="Helvetica,sans-Serif" font-size="10.00">Cpl/Logging/TShell</text>
<text text-anchor="middle" x="1100.39" y="-74.5" font-family="Helvetica,sans-Serif" font-size="10.00">/Log.h</text>
</a>
</g>
</g>
<!-- Node5&#45;&gt;Node7 -->
<g id="edge6_Node000005_Node000007" class="edge">
<title>Node5&#45;&gt;Node7</title>
<g id="a_edge6_Node000005_Node000007"><a xlink:title=" ">
<path fill="none" stroke="#63b8ff" d="M1141.1,-132.98C1132.42,-122.74 1121.65,-110.06 1113.38,-100.3"/>
<polygon fill="#63b8ff" stroke="#63b8ff" points="1138.25,-135.03 1147.39,-140.39 1143.59,-130.5 1138.25,-135.03"/>
</a>
</g>
</g>
<!-- Node8 -->
<g id="Node000008" class="node">
<title>Node8</title>
<g id="a_Node000008"><a xlink:href="_cpl_2_m_app_2_cmd_8h.html" target="_top" xlink:title=" ">
<polygon fill="white" stroke="#666666" points="1257.52,-94 1167.27,-94 1167.27,-74 1257.52,-74 1257.52,-94"/>
<text text-anchor="middle" x="1212.39" y="-80.5" font-family="Helvetica,sans-Serif" font-size="10.00">Cpl/MApp/Cmd.h</text>
</a>
</g>
</g>
<!-- Node5&#45;&gt;Node8 -->
<g id="edge7_Node000005_Node000008" class="edge">
<title>Node5&#45;&gt;Node8</title>
<g id="a_edge7_Node000005_Node000008"><a xlink:title=" ">
<path fill="none" stroke="#63b8ff" d="M1171.77,-132.88C1182.32,-120.44 1195.91,-104.43 1204.39,-94.44"/>
<polygon fill="#63b8ff" stroke="#63b8ff" points="1169.2,-130.5 1165.4,-140.39 1174.54,-135.03 1169.2,-130.5"/>
</a>
</g>
</g>
<!-- Node9 -->
<g id="Node000009" class="node">
<title>Node9</title>
<g id="a_Node000009"><a xlink:href="_dbg_8h.html" target="_top" xlink:title=" ">
<polygon fill="white" stroke="#666666" points="1555.14,-100 1435.64,-100 1435.64,-68 1555.14,-68 1555.14,-100"/>
<text text-anchor="start" x="1443.64" y="-86.5" font-family="Helvetica,sans-Serif" font-size="10.00">Cpl/TShell/Cmd/Arduino</text>
<text text-anchor="middle" x="1495.39" y="-74.5" font-family="Helvetica,sans-Serif" font-size="10.00">/Dbg.h</text>
</a>
</g>
</g>
<!-- Node5&#45;&gt;Node9 -->
<g id="edge8_Node000005_Node000009" class="edge">
<title>Node5&#45;&gt;Node9</title>
<g id="a_edge8_Node000005_Node000009"><a xlink:title=" ">
<path fill="none" stroke="#63b8ff" d="M1220.27,-139.44C1275.04,-129.41 1356.02,-114.29 1426.39,-100 1429.28,-99.41 1432.23,-98.81 1435.2,-98.19"/>
<polygon fill="#63b8ff" stroke="#63b8ff" points="1219.69,-135.99 1210.48,-141.23 1220.95,-142.88 1219.69,-135.99"/>
</a>
</g>
</g>
<!-- Node10 -->
<g id="Node000010" class="node">
<title>Node10</title>
<g id="a_Node000010"><a xlink:href="_bye_8h.html" target="_top" xlink:title=" ">
<polygon fill="white" stroke="#666666" points="1685.39,-94 1573.39,-94 1573.39,-74 1685.39,-74 1685.39,-94"/>
<text text-anchor="middle" x="1629.39" y="-80.5" font-family="Helvetica,sans-Serif" font-size="10.00">Cpl/TShell/Cmd/Bye.h</text>
</a>
</g>
</g>
<!-- Node5&#45;&gt;Node10 -->
<g id="edge9_Node000005_Node000010" class="edge">
<title>Node5&#45;&gt;Node10</title>
<g id="a_edge9_Node000005_Node000010"><a xlink:title=" ">
<path fill="none" stroke="#63b8ff" d="M1237.71,-143.31C1320.32,-134.92 1451.78,-119.98 1564.39,-100 1573.18,-98.44 1582.55,-96.46 1591.38,-94.46"/>
<polygon fill="#63b8ff" stroke="#63b8ff" points="1237.49,-139.82 1227.89,-144.3 1238.19,-146.78 1237.49,-139.82"/>
</a>
</g>
</g>
<!-- Node11 -->
<g id="Node000011" class="node">
<title>Node11</title>
<g id="a_Node000011"><a xlink:href="_help_8h.html" target="_top" xlink:title=" ">
<polygon fill="white" stroke="#666666" points="1817.52,-94 1703.27,-94 1703.27,-74 1817.52,-74 1817.52,-94"/>
<text text-anchor="middle" x="1760.39" y="-80.5" font-family="Helvetica,sans-Serif" font-size="10.00">Cpl/TShell/Cmd/Help.h</text>
</a>
</g>
</g>
<!-- Node5&#45;&gt;Node11 -->
<g id="edge10_Node000005_Node000011" class="edge">
<title>Node5&#45;&gt;Node11</title>
<g id="a_edge10_Node000005_Node000011"><a xlink:title=" ">
<path fill="none" stroke="#63b8ff" d="M1237.17,-146.6C1342.78,-140.1 1533.28,-125.83 1694.39,-100 1703.56,-98.53 1713.35,-96.54 1722.52,-94.49"/>
<polygon fill="#63b8ff" stroke="#63b8ff" points="1237.25,-143.09 1227.48,-147.19 1237.68,-150.08 1237.25,-143.09"/>
</a>
</g>
</g>
<!-- Node12 -->
<g id="Node000012" class="node">
<title>Node12</title>
<g id="a_Node000012"><a xlink:href="_t_print_8h.html" target="_top" xlink:title=" ">
<polygon fill="white" stroke="#666666" points="1955.52,-94 1835.27,-94 1835.27,-74 1955.52,-74 1955.52,-94"/>
<text text-anchor="middle" x="1895.39" y="-80.5" font-family="Helvetica,sans-Serif" font-size="10.00">Cpl/TShell/Cmd/TPrint.h</text>
</a>
</g>
</g>
<!-- Node5&#45;&gt;Node12 -->
<g id="edge11_Node000005_Node000012" class="edge">
<title>Node5&#45;&gt;Node12</title>
<g id="a_edge11_Node000005_Node000012"><a xlink:title=" ">
<path fill="none" stroke="#63b8ff" d="M1237.66,-148.43C1364.12,-143.63 1615.39,-130.82 1826.39,-100 1836.22,-98.57 1846.74,-96.54 1856.52,-94.43"/>
<polygon fill="#63b8ff" stroke="#63b8ff" points="1237.56,-144.93 1227.7,-148.8 1237.83,-151.93 1237.56,-144.93"/>
</a>
</g>
</g>
<!-- Node13 -->
<g id="Node000013" class="node">
<title>Node13</title>
<g id="a_Node000013"><a xlink:href="_threads_8h.html" target="_top" xlink:title=" ">
<polygon fill="white" stroke="#666666" points="2366.02,-94 2236.77,-94 2236.77,-74 2366.02,-74 2366.02,-94"/>
<text text-anchor="middle" x="2301.39" y="-80.5" font-family="Helvetica,sans-Serif" font-size="10.00">Cpl/TShell/Cmd/Threads.h</text>
</a>
</g>
</g>
<!-- Node5&#45;&gt;Node13 -->
<g id="edge12_Node000005_Node000013" class="edge">
<title>Node5&#45;&gt;Node13</title>
<g id="a_edge12_Node000005_Node000013"><a xlink:title=" ">
<path fill="none" stroke="#63b8ff" d="M1237.68,-151.34C1417.05,-151.18 1860.01,-145.71 2227.39,-100 2238.19,-98.66 2249.77,-96.61 2260.48,-94.45"/>
<polygon fill="#63b8ff" stroke="#63b8ff" points="1237.76,-147.84 1227.76,-151.35 1237.77,-154.84 1237.76,-147.84"/>
</a>
</g>
</g>
<!-- Node16 -->
<g id="Node000016" class="node">
<title>Node16</title>
<g id="a_Node000016"><a xlink:href="_tick_8h.html" target="_top" xlink:title=" ">
<polygon fill="white" stroke="#666666" points="2218.77,-94 2106.02,-94 2106.02,-74 2218.77,-74 2218.77,-94"/>
<text text-anchor="middle" x="2162.39" y="-80.5" font-family="Helvetica,sans-Serif" font-size="10.00">Cpl/TShell/Cmd/Tick.h</text>
</a>
</g>
</g>
<!-- Node5&#45;&gt;Node16 -->
<g id="edge15_Node000005_Node000016" class="edge">
<title>Node5&#45;&gt;Node16</title>
<g id="a_edge15_Node000005_Node000016"><a xlink:title=" ">
<path fill="none" stroke="#63b8ff" d="M1237.75,-151.2C1401.26,-150.6 1781.05,-144.07 2096.39,-100 2106.05,-98.65 2116.39,-96.6 2125.94,-94.44"/>
<polygon fill="#63b8ff" stroke="#63b8ff" points="1237.86,-147.7 1227.87,-151.23 1237.88,-154.7 1237.86,-147.7"/>
</a>
</g>
</g>
<!-- Node17 -->
<g id="Node000017" class="node">
<title>Node17</title>
<g id="a_Node000017"><a xlink:href="_t_shell_2_cmd_2_trace_8h.html" target="_top" xlink:title=" ">
<polygon fill="white" stroke="#666666" points="134.77,-94 16.02,-94 16.02,-74 134.77,-74 134.77,-94"/>
<text text-anchor="middle" x="75.39" y="-80.5" font-family="Helvetica,sans-Serif" font-size="10.00">Cpl/TShell/Cmd/Trace.h</text>
</a>
</g>
</g>
<!-- Node5&#45;&gt;Node17 -->
<g id="edge16_Node000005_Node000017" class="edge">
<title>Node5&#45;&gt;Node17</title>
<g id="a_edge16_Node000005_Node000017"><a xlink:title=" ">
<path fill="none" stroke="#63b8ff" d="M1095.37,-139.76C1085.7,-138.29 1075.8,-136.96 1066.39,-136 658,-94.17 550.57,-152.42 143.39,-100 133.32,-98.7 122.54,-96.64 112.6,-94.46"/>
<polygon fill="#63b8ff" stroke="#63b8ff" points="1094.64,-143.19 1105.07,-141.31 1095.74,-136.28 1094.64,-143.19"/>
</a>
</g>
</g>
<!-- Node18 -->
<g id="Node000018" class="node">
<title>Node18</title>
<g id="a_Node000018"><a xlink:href="_cpl_2_t_shell_2_cmd_2_user_8h.html" target="_top" xlink:title=" ">
<polygon fill="white" stroke="#666666" points="267.89,-94 152.89,-94 152.89,-74 267.89,-74 267.89,-94"/>
<text text-anchor="middle" x="210.39" y="-80.5" font-family="Helvetica,sans-Serif" font-size="10.00">Cpl/TShell/Cmd/User.h</text>
</a>
</g>
</g>
<!-- Node5&#45;&gt;Node18 -->
<g id="edge17_Node000005_Node000018" class="edge">
<title>Node5&#45;&gt;Node18</title>
<g id="a_edge17_Node000005_Node000018"><a xlink:title=" ">
<path fill="none" stroke="#63b8ff" d="M1095.01,-139.76C1085.46,-138.31 1075.68,-136.98 1066.39,-136 716.87,-99.04 624.7,-147.13 276.39,-100 266.61,-98.68 256.15,-96.61 246.49,-94.42"/>
<polygon fill="#63b8ff" stroke="#63b8ff" points="1094.16,-143.17 1104.59,-141.29 1095.26,-136.26 1094.16,-143.17"/>
</a>
</g>
</g>
<!-- Node19 -->
<g id="Node000019" class="node">
<title>Node19</title>
<g id="a_Node000019"><a xlink:href="_wait_8h.html" target="_top" xlink:title=" ">
<polygon fill="white" stroke="#666666" points="400.89,-94 285.89,-94 285.89,-74 400.89,-74 400.89,-94"/>
<text text-anchor="middle" x="343.39" y="-80.5" font-family="Helvetica,sans-Serif" font-size="10.00">Cpl/TShell/Cmd/Wait.h</text>
</a>
</g>
</g>
<!-- Node5&#45;&gt;Node19 -->
<g id="edge18_Node000005_Node000019" class="edge">
<title>Node5&#45;&gt;Node19</title>
<g id="a_edge18_Node000005_Node000019"><a xlink:title=" ">
<path fill="none" stroke="#63b8ff" d="M1094.35,-139.74C1085,-138.31 1075.46,-137 1066.39,-136 776.16,-103.95 699.63,-140.03 410.39,-100 400.59,-98.64 390.11,-96.59 380.41,-94.43"/>
<polygon fill="#63b8ff" stroke="#63b8ff" points="1093.68,-143.18 1104.11,-141.29 1094.78,-136.26 1093.68,-143.18"/>
</a>
</g>
</g>
<!-- Node20 -->
<g id="Node000020" class="node">
<title>Node20</title>
<g id="a_Node000020"><a xlink:href="_state_8h.html" target="_top" xlink:title=" ">
<polygon fill="white" stroke="#666666" points="525.77,-94 419.02,-94 419.02,-74 525.77,-74 525.77,-94"/>
<text text-anchor="middle" x="472.39" y="-80.5" font-family="Helvetica,sans-Serif" font-size="10.00">Storm/TShell/State.h</text>
</a>
</g>
</g>
<!-- Node5&#45;&gt;Node20 -->
<g id="edge19_Node000005_Node000020" class="edge">
<title>Node5&#45;&gt;Node20</title>
<g id="a_edge19_Node000005_Node000020"><a xlink:title=" ">
<path fill="none" stroke="#63b8ff" d="M1093.99,-139.79C1084.76,-138.37 1075.34,-137.05 1066.39,-136 831.01,-108.49 768.63,-135.99 534.39,-100 525.42,-98.62 515.83,-96.59 506.95,-94.46"/>
<polygon fill="#63b8ff" stroke="#63b8ff" points="1093.2,-143.21 1103.62,-141.33 1094.3,-136.3 1093.2,-143.21"/>
</a>
</g>
</g>
<!-- Node21 -->
<g id="Node000021" class="node">
<title>Node21</title>
<g id="a_Node000021"><a xlink:href="_storm_2_t_shell_2_user_8h.html" target="_top" xlink:title=" ">
<polygon fill="white" stroke="#666666" points="647.27,-94 543.52,-94 543.52,-74 647.27,-74 647.27,-94"/>
<text text-anchor="middle" x="595.39" y="-80.5" font-family="Helvetica,sans-Serif" font-size="10.00">Storm/TShell/User.h</text>
</a>
</g>
</g>
<!-- Node5&#45;&gt;Node21 -->
<g id="edge20_Node000005_Node000021" class="edge">
<title>Node5&#45;&gt;Node21</title>
<g id="a_edge20_Node000005_Node000021"><a xlink:title=" ">
<path fill="none" stroke="#63b8ff" d="M1092.34,-139.7C1083.64,-138.35 1074.81,-137.07 1066.39,-136 884.93,-112.95 836.85,-129.93 656.39,-100 647.79,-98.57 638.6,-96.57 630.04,-94.5"/>
<polygon fill="#63b8ff" stroke="#63b8ff" points="1091.75,-143.15 1102.18,-141.27 1092.85,-136.24 1091.75,-143.15"/>
</a>
</g>
</g>
<!-- Node22 -->
<g id="Node000022" class="node">
<title>Node22</title>
<g id="a_Node000022"><a xlink:href="_t_shell_2_white_box_8h.html" target="_top" xlink:title=" ">
<polygon fill="white" stroke="#666666" points="791.52,-94 665.27,-94 665.27,-74 791.52,-74 791.52,-94"/>
<text text-anchor="middle" x="728.39" y="-80.5" font-family="Helvetica,sans-Serif" font-size="10.00">Storm/TShell/WhiteBox.h</text>
</a>
</g>
</g>
<!-- Node5&#45;&gt;Node22 -->
<g id="edge21_Node000005_Node000022" class="edge">
<title>Node5&#45;&gt;Node22</title>
<g id="a_edge21_Node000005_Node000022"><a xlink:title=" ">
<path fill="none" stroke="#63b8ff" d="M1090.05,-139.71C1082.08,-138.42 1074.06,-137.16 1066.39,-136 948.43,-118.19 917.98,-120.18 800.39,-100 790.96,-98.38 780.87,-96.42 771.32,-94.46"/>
<polygon fill="#63b8ff" stroke="#63b8ff" points="1089.3,-143.13 1099.73,-141.29 1090.43,-136.22 1089.3,-143.13"/>
</a>
</g>
</g>
<!-- Node23 -->
<g id="Node000023" class="node">
<title>Node23</title>
<g id="a_Node000023"><a xlink:href="filter_8h.html" target="_top" xlink:title=" ">
<polygon fill="white" stroke="#666666" points="911.14,-94 809.64,-94 809.64,-74 911.14,-74 911.14,-94"/>
<text text-anchor="middle" x="860.39" y="-80.5" font-family="Helvetica,sans-Serif" font-size="10.00">Storm/TShell/filter.h</text>
</a>
</g>
</g>
<!-- Node5&#45;&gt;Node23 -->
<g id="edge22_Node000005_Node000023" class="edge">
<title>Node5&#45;&gt;Node23</title>
<g id="a_edge22_Node000005_Node000023"><a xlink:title=" ">
<path fill="none" stroke="#63b8ff" d="M1099.55,-139.25C1051.67,-129.23 981.43,-114.22 920.39,-100 912.97,-98.27 905.05,-96.35 897.48,-94.47"/>
<polygon fill="#63b8ff" stroke="#63b8ff" points="1098.63,-142.63 1109.13,-141.25 1100.06,-135.78 1098.63,-142.63"/>
</a>
</g>
</g>
<!-- Node24 -->
<g id="Node000024" class="node">
<title>Node24</title>
<g id="a_Node000024"><a xlink:href="_storm_2_thermostat_2_sim_house_2_cmd_8h.html" target="_top" xlink:title=" ">
<polygon fill="white" stroke="#666666" points="1417.39,-100 1275.39,-100 1275.39,-68 1417.39,-68 1417.39,-100"/>
<text text-anchor="start" x="1283.39" y="-86.5" font-family="Helvetica,sans-Serif" font-size="10.00">Storm/Thermostat/SimHouse</text>
<text text-anchor="middle" x="1346.39" y="-74.5" font-family="Helvetica,sans-Serif" font-size="10.00">/Cmd.h</text>
</a>
</g>
</g>
<!-- Node5&#45;&gt;Node24 -->
<g id="edge23_Node000005_Node000024" class="edge">
<title>Node5&#45;&gt;Node24</title>
<g id="a_edge23_Node000005_Node000024"><a xlink:title=" ">
<path fill="none" stroke="#63b8ff" d="M1194.42,-137.79C1225.45,-127.01 1269.34,-111.77 1301.98,-100.43"/>
<polygon fill="#63b8ff" stroke="#63b8ff" points="1193.34,-134.46 1185.05,-141.05 1195.64,-141.07 1193.34,-134.46"/>
</a>
</g>
</g>
<!-- Node26 -->
<g id="Node000026" class="node">
<title>Node26</title>
<g id="a_Node000026"><a xlink:href="_storm_2_thermostat_2__file__logger_2_log_8h.html" target="_top" xlink:title=" ">
<polygon fill="white" stroke="#666666" points="2087.52,-100 1973.27,-100 1973.27,-68 2087.52,-68 2087.52,-100"/>
<text text-anchor="start" x="1981.27" y="-86.5" font-family="Helvetica,sans-Serif" font-size="10.00">Storm/Thermostat/_file</text>
<text text-anchor="middle" x="2030.39" y="-74.5" font-family="Helvetica,sans-Serif" font-size="10.00">_logger/Log.h</text>
</a>
</g>
</g>
<!-- Node5&#45;&gt;Node26 -->
<g id="edge25_Node000005_Node000026" class="edge">
<title>Node5&#45;&gt;Node26</title>
<g id="a_edge25_Node000005_Node000026"><a xlink:title=" ">
<path fill="none" stroke="#63b8ff" d="M1237.72,-150.17C1383.9,-147.73 1700.44,-138.07 1964.39,-100 1967.19,-99.6 1970.03,-99.14 1972.9,-98.64"/>
<polygon fill="#63b8ff" stroke="#63b8ff" points="1237.68,-146.67 1227.74,-150.33 1237.79,-153.67 1237.68,-146.67"/>
</a>
</g>
</g>
<!-- Node14 -->
<g id="Node000014" class="node">
<title>Node14</title>
<g id="a_Node000014"><a xlink:href="_free_r_t_o_s_2_threads_8h.html" target="_top" xlink:title=" ">
<polygon fill="white" stroke="#666666" points="2234.52,-32 2102.27,-32 2102.27,0 2234.52,0 2234.52,-32"/>
<text text-anchor="start" x="2110.27" y="-18.5" font-family="Helvetica,sans-Serif" font-size="10.00">Cpl/TShell/Cmd/FreeRTOS</text>
<text text-anchor="middle" x="2168.39" y="-6.5" font-family="Helvetica,sans-Serif" font-size="10.00">/Threads.h</text>
</a>
</g>
</g>
<!-- Node13&#45;&gt;Node14 -->
<g id="edge13_Node000013_Node000014" class="edge">
<title>Node13&#45;&gt;Node14</title>
<g id="a_edge13_Node000013_Node000014"><a xlink:title=" ">
<path fill="none" stroke="#63b8ff" d="M2272.16,-68.49C2250.64,-57.81 2221.43,-43.32 2199.48,-32.43"/>
<polygon fill="#63b8ff" stroke="#63b8ff" points="2270.47,-71.56 2280.98,-72.87 2273.58,-65.29 2270.47,-71.56"/>
</a>
</g>
</g>
<!-- Node15 -->
<g id="Node000015" class="node">
<title>Node15</title>
<g id="a_Node000015"><a xlink:href="_win32_2_threads_8h.html" target="_top" xlink:title=" ">
<polygon fill="white" stroke="#666666" points="2366.52,-32 2252.27,-32 2252.27,0 2366.52,0 2366.52,-32"/>
<text text-anchor="start" x="2260.27" y="-18.5" font-family="Helvetica,sans-Serif" font-size="10.00">Cpl/TShell/Cmd/Win32</text>
<text text-anchor="middle" x="2309.39" y="-6.5" font-family="Helvetica,sans-Serif" font-size="10.00">/Threads.h</text>
</a>
</g>
</g>
<!-- Node13&#45;&gt;Node15 -->
<g id="edge14_Node000013_Node000015" class="edge">
<title>Node13&#45;&gt;Node15</title>
<g id="a_edge14_Node000013_Node000015"><a xlink:title=" ">
<path fill="none" stroke="#63b8ff" d="M2303.89,-62.43C2305.07,-52.69 2306.45,-41.26 2307.54,-32.3"/>
<polygon fill="#63b8ff" stroke="#63b8ff" points="2300.45,-61.69 2302.72,-72.04 2307.4,-62.54 2300.45,-61.69"/>
</a>
</g>
</g>
<!-- Node25 -->
<g id="Node000025" class="node">
<title>Node25</title>
<g id="a_Node000025"><a xlink:href="statics___8h.html" target="_top" xlink:title="This file defines/creates persistent records and record server for the Thermostat simulation.">
<polygon fill="white" stroke="#666666" points="1405.39,-32 1287.39,-32 1287.39,0 1405.39,0 1405.39,-32"/>
<text text-anchor="start" x="1295.39" y="-18.5" font-family="Helvetica,sans-Serif" font-size="10.00">Storm/Thermostat/Main</text>
<text text-anchor="middle" x="1346.39" y="-6.5" font-family="Helvetica,sans-Serif" font-size="10.00">/_simulation/statics_.h</text>
</a>
</g>
</g>
<!-- Node24&#45;&gt;Node25 -->
<g id="edge24_Node000024_Node000025" class="edge">
<title>Node24&#45;&gt;Node25</title>
<g id="a_edge24_Node000024_Node000025"><a xlink:title=" ">
<path fill="none" stroke="#63b8ff" d="M1346.39,-56.31C1346.39,-48.12 1346.39,-39.38 1346.39,-32.22"/>
<polygon fill="#63b8ff" stroke="#63b8ff" points="1342.89,-56.18 1346.39,-66.18 1349.89,-56.18 1342.89,-56.18"/>
</a>
</g>
</g>
<!-- Node26&#45;&gt;Node25 -->
<g id="edge26_Node000026_Node000025" class="edge">
<title>Node26&#45;&gt;Node25</title>
<g id="a_edge26_Node000026_Node000025"><a xlink:title=" ">
<path fill="none" stroke="#63b8ff" d="M1961.67,-67.72C1752.08,-36.15 1513.96,-23.56 1405.51,-19.1"/>
<polygon fill="#63b8ff" stroke="#63b8ff" points="1960.98,-71.15 1971.4,-69.2 1962.04,-64.23 1960.98,-71.15"/>
</a>
</g>
</g>
<!-- Node27&#45;&gt;Node5 -->
<g id="edge28_Node000027_Node000005" class="edge">
<title>Node27&#45;&gt;Node5</title>
<g id="a_edge28_Node000027_Node000005"><a xlink:title=" ">
<path fill="none" stroke="#63b8ff" d="M1163.65,-192.59C1161.75,-182.24 1159.54,-170.18 1158.07,-162.11"/>
<polygon fill="#63b8ff" stroke="#63b8ff" points="1160.16,-192.93 1165.4,-202.14 1167.04,-191.67 1160.16,-192.93"/>
</a>
</g>
</g>
<!-- Node28 -->
<g id="Node000028" class="node">
<title>Node28</title>
<g id="a_Node000028"><a xlink:href="_processor_8h.html" target="_top" xlink:title=" ">
<polygon fill="white" stroke="#666666" points="2513.27,-162 2397.52,-162 2397.52,-142 2513.27,-142 2513.27,-162"/>
<text text-anchor="middle" x="2455.39" y="-148.5" font-family="Helvetica,sans-Serif" font-size="10.00">Cpl/TShell/Processor.h</text>
</a>
</g>
</g>
<!-- Node27&#45;&gt;Node28 -->
<g id="edge29_Node000027_Node000028" class="edge">
<title>Node27&#45;&gt;Node28</title>
<g id="a_edge29_Node000027_Node000028"><a xlink:title=" ">
<path fill="none" stroke="#63b8ff" d="M1233.99,-209.9C1458.61,-199.43 2186.03,-165.55 2397.34,-155.7"/>
<polygon fill="#63b8ff" stroke="#63b8ff" points="1234.08,-206.39 1224.25,-210.35 1234.4,-213.38 1234.08,-206.39"/>
</a>
</g>
</g>
<!-- Node29 -->
<g id="Node000029" class="node">
<title>Node29</title>
<g id="a_Node000029"><a xlink:href="_maker_8h.html" target="_top" xlink:title=" ">
<polygon fill="white" stroke="#666666" points="2643.64,-94 2545.14,-94 2545.14,-74 2643.64,-74 2643.64,-94"/>
<text text-anchor="middle" x="2594.39" y="-80.5" font-family="Helvetica,sans-Serif" font-size="10.00">Cpl/TShell/Maker.h</text>
</a>
</g>
</g>
<!-- Node28&#45;&gt;Node29 -->
<g id="edge30_Node000028_Node000029" class="edge">
<title>Node28&#45;&gt;Node29</title>
<g id="a_edge30_Node000028_Node000029"><a xlink:title=" ">
<path fill="none" stroke="#63b8ff" d="M2485.36,-136.77C2512.33,-123.97 2551.21,-105.51 2574.52,-94.44"/>
<polygon fill="#63b8ff" stroke="#63b8ff" points="2484.21,-133.44 2476.68,-140.89 2487.21,-139.77 2484.21,-133.44"/>
</a>
</g>
</g>
<!-- Node30 -->
<g id="Node000030" class="node">
<title>Node30</title>
<g id="a_Node000030"><a xlink:href="_polled_processor_8h.html" target="_top" xlink:title=" ">
<polygon fill="white" stroke="#666666" points="2526.77,-94 2384.02,-94 2384.02,-74 2526.77,-74 2526.77,-94"/>
<text text-anchor="middle" x="2455.39" y="-80.5" font-family="Helvetica,sans-Serif" font-size="10.00">Cpl/TShell/PolledProcessor.h</text>
</a>
</g>
</g>
<!-- Node28&#45;&gt;Node30 -->
<g id="edge31_Node000028_Node000030" class="edge">
<title>Node28&#45;&gt;Node30</title>
<g id="a_edge31_Node000028_Node000030"><a xlink:title=" ">
<path fill="none" stroke="#63b8ff" d="M2455.39,-130.28C2455.39,-118.27 2455.39,-103.74 2455.39,-94.44"/>
<polygon fill="#63b8ff" stroke="#63b8ff" points="2451.89,-130.03 2455.39,-140.03 2458.89,-130.03 2451.89,-130.03"/>
</a>
</g>
</g>
<!-- Node31 -->
<g id="Node000031" class="node">
<title>Node31</title>
<g id="a_Node000031"><a xlink:href="_polled_maker_8h.html" target="_top" xlink:title=" ">
<polygon fill="white" stroke="#666666" points="2518.14,-26 2392.64,-26 2392.64,-6 2518.14,-6 2518.14,-26"/>
<text text-anchor="middle" x="2455.39" y="-12.5" font-family="Helvetica,sans-Serif" font-size="10.00">Cpl/TShell/PolledMaker.h</text>
</a>
</g>
</g>
<!-- Node30&#45;&gt;Node31 -->
<g id="edge32_Node000030_Node000031" class="edge">
<title>Node30&#45;&gt;Node31</title>
<g id="a_edge32_Node000030_Node000031"><a xlink:title=" ">
<path fill="none" stroke="#63b8ff" d="M2455.39,-62.28C2455.39,-50.27 2455.39,-35.74 2455.39,-26.44"/>
<polygon fill="#63b8ff" stroke="#63b8ff" points="2451.89,-62.03 2455.39,-72.03 2458.89,-62.03 2451.89,-62.03"/>
</a>
</g>
</g>
<!-- Node32&#45;&gt;Node25 -->
<g id="edge34_Node000032_Node000025" class="edge">
<title>Node32&#45;&gt;Node25</title>
<g id="a_edge34_Node000032_Node000025"><a xlink:title=" ">
<path fill="none" stroke="#63b8ff" d="M927.94,-138.28C921.68,-137.41 915.43,-136.63 909.39,-136 859.51,-130.82 42.14,-136.16 7.39,-100 -2.46,-89.74 -2.47,-78.25 7.39,-68 52.34,-21.31 1033.93,-17.26 1287.2,-17"/>
<polygon fill="#63b8ff" stroke="#63b8ff" points="927.27,-141.72 937.68,-139.72 928.3,-134.8 927.27,-141.72"/>
</a>
</g>
</g>
</g>
</svg>
