<?xml version="1.0" encoding="UTF-8" standalone="no"?>
<!DOCTYPE svg PUBLIC "-//W3C//DTD SVG 1.1//EN"
 "http://www.w3.org/Graphics/SVG/1.1/DTD/svg11.dtd">
<!-- Generated by graphviz version 2.38.0 (20140413.2041)
 -->
<!-- Title: Cpl/Container/MapItem.h Pages: 1 -->
<svg width="2325pt" height="397pt"
 viewBox="0.00 0.00 2324.88 397.00" xmlns="http://www.w3.org/2000/svg" xmlns:xlink="http://www.w3.org/1999/xlink">
<g id="graph0" class="graph" transform="scale(1 1) rotate(0) translate(4 393)">
<title>Cpl/Container/MapItem.h</title>
<polygon fill="white" stroke="none" points="-4,4 -4,-393 2320.88,-393 2320.88,4 -4,4"/>
<!-- Node1 -->
<g id="node1" class="node"><title>Node1</title>
<g id="a_node1"><a xlink:title=" ">
<polygon fill="#bfbfbf" stroke="black" points="1359.5,-369.5 1359.5,-388.5 1484.5,-388.5 1484.5,-369.5 1359.5,-369.5"/>
<text text-anchor="middle" x="1422" y="-376.5" font-family="Helvetica,sans-Serif" font-size="10.00">Cpl/Container/MapItem.h</text>
</a>
</g>
</g>
<!-- Node2 -->
<g id="node2" class="node"><title>Node2</title>
<g id="a_node2"><a xlink:href="_avl_tree___8h.html" target="_top" xlink:title=" ">
<polygon fill="white" stroke="black" points="1359.5,-313.5 1359.5,-332.5 1484.5,-332.5 1484.5,-313.5 1359.5,-313.5"/>
<text text-anchor="middle" x="1422" y="-320.5" font-family="Helvetica,sans-Serif" font-size="10.00">Cpl/Container/AvlTree_.h</text>
</a>
</g>
</g>
<!-- Node1&#45;&gt;Node2 -->
<g id="edge1" class="edge"><title>Node1&#45;&gt;Node2</title>
<path fill="none" stroke="midnightblue" d="M1422,-358.805C1422,-349.91 1422,-339.78 1422,-332.751"/>
<polygon fill="midnightblue" stroke="midnightblue" points="1418.5,-359.083 1422,-369.083 1425.5,-359.083 1418.5,-359.083"/>
</g>
<!-- Node29 -->
<g id="node29" class="node"><title>Node29</title>
<g id="a_node29"><a xlink:href="_command_8h.html" target="_top" xlink:title=" ">
<polygon fill="white" stroke="black" points="1232.5,-257.5 1232.5,-276.5 1349.5,-276.5 1349.5,-257.5 1232.5,-257.5"/>
<text text-anchor="middle" x="1291" y="-264.5" font-family="Helvetica,sans-Serif" font-size="10.00">Cpl/TShell/Command.h</text>
</a>
</g>
</g>
<!-- Node1&#45;&gt;Node29 -->
<g id="edge31" class="edge"><title>Node1&#45;&gt;Node29</title>
<path fill="none" stroke="midnightblue" d="M1396.57,-364.41C1382.24,-356.2 1364.38,-345.019 1350,-333 1328.72,-315.212 1307.88,-289.864 1297.6,-276.695"/>
<polygon fill="midnightblue" stroke="midnightblue" points="1394.97,-367.527 1405.41,-369.356 1398.39,-361.418 1394.97,-367.527"/>
</g>
<!-- Node30 -->
<g id="node30" class="node"><title>Node30</title>
<g id="a_node30"><a xlink:href="_string_item_8h.html" target="_top" xlink:title=" ">
<polygon fill="white" stroke="black" points="1568,-313.5 1568,-332.5 1678,-332.5 1678,-313.5 1568,-313.5"/>
<text text-anchor="middle" x="1623" y="-320.5" font-family="Helvetica,sans-Serif" font-size="10.00">Cpl/Text/StringItem.h</text>
</a>
</g>
</g>
<!-- Node1&#45;&gt;Node30 -->
<g id="edge35" class="edge"><title>Node1&#45;&gt;Node30</title>
<path fill="none" stroke="midnightblue" d="M1463.58,-366.829C1501.53,-356.633 1556.81,-341.782 1591.3,-332.516"/>
<polygon fill="midnightblue" stroke="midnightblue" points="1462.6,-363.469 1453.85,-369.444 1464.41,-370.229 1462.6,-363.469"/>
</g>
<!-- Node3 -->
<g id="node3" class="node"><title>Node3</title>
<g id="a_node3"><a xlink:href="_map_8h.html" target="_top" xlink:title=" ">
<polygon fill="white" stroke="black" points="1369.5,-257.5 1369.5,-276.5 1474.5,-276.5 1474.5,-257.5 1369.5,-257.5"/>
<text text-anchor="middle" x="1422" y="-264.5" font-family="Helvetica,sans-Serif" font-size="10.00">Cpl/Container/Map.h</text>
</a>
</g>
</g>
<!-- Node2&#45;&gt;Node3 -->
<g id="edge2" class="edge"><title>Node2&#45;&gt;Node3</title>
<path fill="none" stroke="midnightblue" d="M1422,-302.805C1422,-293.91 1422,-283.78 1422,-276.751"/>
<polygon fill="midnightblue" stroke="midnightblue" points="1418.5,-303.083 1422,-313.083 1425.5,-303.083 1418.5,-303.083"/>
</g>
<!-- Node4 -->
<g id="node4" class="node"><title>Node4</title>
<g id="a_node4"><a xlink:href="_cmd_2_command_8h.html" target="_top" xlink:title=" ">
<polygon fill="white" stroke="black" points="1220,-134.5 1220,-153.5 1360,-153.5 1360,-134.5 1220,-134.5"/>
<text text-anchor="middle" x="1290" y="-141.5" font-family="Helvetica,sans-Serif" font-size="10.00">Cpl/TShell/Cmd/Command.h</text>
</a>
</g>
</g>
<!-- Node3&#45;&gt;Node4 -->
<g id="edge3" class="edge"><title>Node3&#45;&gt;Node4</title>
<path fill="none" stroke="midnightblue" d="M1455.82,-252.964C1469.64,-245.764 1484.18,-235.321 1492,-221 1498.6,-208.907 1500.62,-200.75 1492,-190 1475.54,-169.466 1411.76,-157.697 1360.22,-151.386"/>
<polygon fill="midnightblue" stroke="midnightblue" points="1453.98,-249.966 1446.47,-257.438 1457,-256.281 1453.98,-249.966"/>
</g>
<!-- Node23 -->
<g id="node23" class="node"><title>Node23</title>
<g id="a_node23"><a xlink:href="_context___8h.html" target="_top" xlink:title=" ">
<polygon fill="white" stroke="black" points="1234,-196 1234,-215 1346,-215 1346,-196 1234,-196"/>
<text text-anchor="middle" x="1290" y="-203" font-family="Helvetica,sans-Serif" font-size="10.00">Cpl/TShell/Context_.h</text>
</a>
</g>
</g>
<!-- Node3&#45;&gt;Node23 -->
<g id="edge23" class="edge"><title>Node3&#45;&gt;Node23</title>
<path fill="none" stroke="midnightblue" d="M1393.89,-253.327C1368.26,-241.776 1331.11,-225.032 1308.88,-215.009"/>
<polygon fill="midnightblue" stroke="midnightblue" points="1392.53,-256.556 1403.09,-257.475 1395.41,-250.175 1392.53,-256.556"/>
</g>
<!-- Node28 -->
<g id="node28" class="node"><title>Node28</title>
<g id="a_node28"><a xlink:href="_main_8h.html" target="_top" xlink:title="This file defines the hardware/platform independent start&#45;up interface(s) for the Storm::Thermostat a...">
<polygon fill="white" stroke="black" points="1364.5,-190.5 1364.5,-220.5 1483.5,-220.5 1483.5,-190.5 1364.5,-190.5"/>
<text text-anchor="start" x="1372.5" y="-208.5" font-family="Helvetica,sans-Serif" font-size="10.00">Storm/Thermostat/Main</text>
<text text-anchor="middle" x="1424" y="-197.5" font-family="Helvetica,sans-Serif" font-size="10.00">/Main.h</text>
</a>
</g>
</g>
<!-- Node3&#45;&gt;Node28 -->
<g id="edge29" class="edge"><title>Node3&#45;&gt;Node28</title>
<path fill="none" stroke="midnightblue" d="M1422.63,-247.235C1422.92,-238.586 1423.26,-228.497 1423.53,-220.523"/>
<polygon fill="midnightblue" stroke="midnightblue" points="1419.12,-247.363 1422.29,-257.475 1426.12,-247.598 1419.12,-247.363"/>
</g>
<!-- Node5 -->
<g id="node5" class="node"><title>Node5</title>
<g id="a_node5"><a xlink:href="_dm_8h.html" target="_top" xlink:title=" ">
<polygon fill="white" stroke="black" points="1924,-73 1924,-92 2030,-92 2030,-73 1924,-73"/>
<text text-anchor="middle" x="1977" y="-80" font-family="Helvetica,sans-Serif" font-size="10.00">Cpl/Dm/TShell/Dm.h</text>
</a>
</g>
</g>
<!-- Node4&#45;&gt;Node5 -->
<g id="edge4" class="edge"><title>Node4&#45;&gt;Node5</title>
<path fill="none" stroke="midnightblue" d="M1370.38,-141.264C1489.81,-137.771 1720.88,-127.499 1915,-98 1924.73,-96.5219 1935.18,-94.319 1944.69,-92.0739"/>
<polygon fill="midnightblue" stroke="midnightblue" points="1370.13,-137.77 1360.23,-141.552 1370.33,-144.767 1370.13,-137.77"/>
</g>
<!-- Node6 -->
<g id="node6" class="node"><title>Node6</title>
<g id="a_node6"><a xlink:href="_dbg_8h.html" target="_top" xlink:title=" ">
<polygon fill="white" stroke="black" points="2048.5,-67.5 2048.5,-97.5 2169.5,-97.5 2169.5,-67.5 2048.5,-67.5"/>
<text text-anchor="start" x="2056.5" y="-85.5" font-family="Helvetica,sans-Serif" font-size="10.00">Cpl/TShell/Cmd/Arduino</text>
<text text-anchor="middle" x="2109" y="-74.5" font-family="Helvetica,sans-Serif" font-size="10.00">/Dbg.h</text>
</a>
</g>
</g>
<!-- Node4&#45;&gt;Node6 -->
<g id="edge5" class="edge"><title>Node4&#45;&gt;Node6</title>
<path fill="none" stroke="midnightblue" d="M1370.05,-141.973C1507.46,-139.367 1796.8,-130.189 2039,-98 2042.08,-97.5912 2045.22,-97.124 2048.39,-96.6137"/>
<polygon fill="midnightblue" stroke="midnightblue" points="1369.96,-138.474 1360.02,-142.156 1370.09,-145.473 1369.96,-138.474"/>
</g>
<!-- Node7 -->
<g id="node7" class="node"><title>Node7</title>
<g id="a_node7"><a xlink:href="_bye_8h.html" target="_top" xlink:title=" ">
<polygon fill="white" stroke="black" points="2187.5,-73 2187.5,-92 2300.5,-92 2300.5,-73 2187.5,-73"/>
<text text-anchor="middle" x="2244" y="-80" font-family="Helvetica,sans-Serif" font-size="10.00">Cpl/TShell/Cmd/Bye.h</text>
</a>
</g>
</g>
<!-- Node4&#45;&gt;Node7 -->
<g id="edge6" class="edge"><title>Node4&#45;&gt;Node7</title>
<path fill="none" stroke="midnightblue" d="M1370.1,-143.461C1526.41,-143.366 1882.69,-138.256 2179,-98 2189.43,-96.5836 2200.65,-94.342 2210.79,-92.0408"/>
<polygon fill="midnightblue" stroke="midnightblue" points="1370.1,-139.961 1360.1,-143.461 1370.1,-146.961 1370.1,-139.961"/>
</g>
<!-- Node8 -->
<g id="node8" class="node"><title>Node8</title>
<g id="a_node8"><a xlink:href="_help_8h.html" target="_top" xlink:title=" ">
<polygon fill="white" stroke="black" points="430,-73 430,-92 546,-92 546,-73 430,-73"/>
<text text-anchor="middle" x="488" y="-80" font-family="Helvetica,sans-Serif" font-size="10.00">Cpl/TShell/Cmd/Help.h</text>
</a>
</g>
</g>
<!-- Node4&#45;&gt;Node8 -->
<g id="edge7" class="edge"><title>Node4&#45;&gt;Node8</title>
<path fill="none" stroke="midnightblue" d="M1209.69,-142.068C1074.12,-139.606 791.517,-130.641 555,-98 544.389,-96.5357 532.959,-94.3088 522.595,-92.0366"/>
<polygon fill="midnightblue" stroke="midnightblue" points="1209.92,-145.573 1219.98,-142.248 1210.04,-138.574 1209.92,-145.573"/>
</g>
<!-- Node9 -->
<g id="node9" class="node"><title>Node9</title>
<g id="a_node9"><a xlink:href="_t_print_8h.html" target="_top" xlink:title=" ">
<polygon fill="white" stroke="black" points="564,-73 564,-92 686,-92 686,-73 564,-73"/>
<text text-anchor="middle" x="625" y="-80" font-family="Helvetica,sans-Serif" font-size="10.00">Cpl/TShell/Cmd/TPrint.h</text>
</a>
</g>
</g>
<!-- Node4&#45;&gt;Node9 -->
<g id="edge8" class="edge"><title>Node4&#45;&gt;Node9</title>
<path fill="none" stroke="midnightblue" d="M1209.51,-140.202C1094.82,-135.469 877.972,-123.761 695,-98 684.185,-96.4774 672.534,-94.2882 661.9,-92.0706"/>
<polygon fill="midnightblue" stroke="midnightblue" points="1209.48,-143.703 1219.61,-140.612 1209.76,-136.709 1209.48,-143.703"/>
</g>
<!-- Node10 -->
<g id="node10" class="node"><title>Node10</title>
<g id="a_node10"><a xlink:href="_threads_8h.html" target="_top" xlink:title=" ">
<polygon fill="white" stroke="black" points="280.5,-73 280.5,-92 411.5,-92 411.5,-73 280.5,-73"/>
<text text-anchor="middle" x="346" y="-80" font-family="Helvetica,sans-Serif" font-size="10.00">Cpl/TShell/Cmd/Threads.h</text>
</a>
</g>
</g>
<!-- Node4&#45;&gt;Node10 -->
<g id="edge9" class="edge"><title>Node4&#45;&gt;Node10</title>
<path fill="none" stroke="midnightblue" d="M1209.59,-142.568C1055.84,-140.916 709.784,-133.219 421,-98 409.152,-96.5551 396.365,-94.334 384.763,-92.061"/>
<polygon fill="midnightblue" stroke="midnightblue" points="1209.84,-146.07 1219.88,-142.672 1209.91,-139.071 1209.84,-146.07"/>
</g>
<!-- Node13 -->
<g id="node13" class="node"><title>Node13</title>
<g id="a_node13"><a xlink:href="_tick_8h.html" target="_top" xlink:title=" ">
<polygon fill="white" stroke="black" points="704.5,-73 704.5,-92 819.5,-92 819.5,-73 704.5,-73"/>
<text text-anchor="middle" x="762" y="-80" font-family="Helvetica,sans-Serif" font-size="10.00">Cpl/TShell/Cmd/Tick.h</text>
</a>
</g>
</g>
<!-- Node4&#45;&gt;Node13 -->
<g id="edge12" class="edge"><title>Node4&#45;&gt;Node13</title>
<path fill="none" stroke="midnightblue" d="M1209.49,-138.078C1117.02,-131.75 960.925,-118.999 828,-98 817.919,-96.4074 807.067,-94.2226 797.133,-92.0321"/>
<polygon fill="midnightblue" stroke="midnightblue" points="1209.41,-141.58 1219.62,-138.763 1209.88,-134.596 1209.41,-141.58"/>
</g>
<!-- Node14 -->
<g id="node14" class="node"><title>Node14</title>
<g id="a_node14"><a xlink:href="_t_shell_2_cmd_2_trace_8h.html" target="_top" xlink:title=" ">
<polygon fill="white" stroke="black" points="837.5,-73 837.5,-92 958.5,-92 958.5,-73 837.5,-73"/>
<text text-anchor="middle" x="898" y="-80" font-family="Helvetica,sans-Serif" font-size="10.00">Cpl/TShell/Cmd/Trace.h</text>
</a>
</g>
</g>
<!-- Node4&#45;&gt;Node14 -->
<g id="edge13" class="edge"><title>Node4&#45;&gt;Node14</title>
<path fill="none" stroke="midnightblue" d="M1209.54,-133.239C1144.26,-124.964 1049.96,-112.2 968,-98 957.85,-96.2415 946.924,-94.0991 936.791,-92.0065"/>
<polygon fill="midnightblue" stroke="midnightblue" points="1209.4,-136.749 1219.76,-134.528 1210.27,-129.804 1209.4,-136.749"/>
</g>
<!-- Node15 -->
<g id="node15" class="node"><title>Node15</title>
<g id="a_node15"><a xlink:href="_cpl_2_t_shell_2_cmd_2_user_8h.html" target="_top" xlink:title=" ">
<polygon fill="white" stroke="black" points="977,-73 977,-92 1093,-92 1093,-73 977,-73"/>
<text text-anchor="middle" x="1035" y="-80" font-family="Helvetica,sans-Serif" font-size="10.00">Cpl/TShell/Cmd/User.h</text>
</a>
</g>
</g>
<!-- Node4&#45;&gt;Node15 -->
<g id="edge14" class="edge"><title>Node4&#45;&gt;Node15</title>
<path fill="none" stroke="midnightblue" d="M1243.65,-132.186C1194.17,-120.641 1116.79,-102.584 1071.47,-92.0091"/>
<polygon fill="midnightblue" stroke="midnightblue" points="1242.93,-135.611 1253.46,-134.475 1244.52,-128.794 1242.93,-135.611"/>
</g>
<!-- Node16 -->
<g id="node16" class="node"><title>Node16</title>
<g id="a_node16"><a xlink:href="_state_8h.html" target="_top" xlink:title=" ">
<polygon fill="white" stroke="black" points="1111,-73 1111,-92 1219,-92 1219,-73 1111,-73"/>
<text text-anchor="middle" x="1165" y="-80" font-family="Helvetica,sans-Serif" font-size="10.00">Storm/TShell/State.h</text>
</a>
</g>
</g>
<!-- Node4&#45;&gt;Node16 -->
<g id="edge15" class="edge"><title>Node4&#45;&gt;Node16</title>
<path fill="none" stroke="midnightblue" d="M1263.06,-130.174C1238.8,-118.629 1203.84,-101.987 1182.88,-92.0091"/>
<polygon fill="midnightblue" stroke="midnightblue" points="1261.56,-133.337 1272.09,-134.475 1264.57,-127.017 1261.56,-133.337"/>
</g>
<!-- Node17 -->
<g id="node17" class="node"><title>Node17</title>
<g id="a_node17"><a xlink:href="_storm_2_t_shell_2_user_8h.html" target="_top" xlink:title=" ">
<polygon fill="white" stroke="black" points="1237.5,-73 1237.5,-92 1342.5,-92 1342.5,-73 1237.5,-73"/>
<text text-anchor="middle" x="1290" y="-80" font-family="Helvetica,sans-Serif" font-size="10.00">Storm/TShell/User.h</text>
</a>
</g>
</g>
<!-- Node4&#45;&gt;Node17 -->
<g id="edge16" class="edge"><title>Node4&#45;&gt;Node17</title>
<path fill="none" stroke="midnightblue" d="M1290,-124.317C1290,-113.496 1290,-100.398 1290,-92.0091"/>
<polygon fill="midnightblue" stroke="midnightblue" points="1286.5,-124.475 1290,-134.475 1293.5,-124.475 1286.5,-124.475"/>
</g>
<!-- Node18 -->
<g id="node18" class="node"><title>Node18</title>
<g id="a_node18"><a xlink:href="_t_shell_2_white_box_8h.html" target="_top" xlink:title=" ">
<polygon fill="white" stroke="black" points="1360.5,-73 1360.5,-92 1487.5,-92 1487.5,-73 1360.5,-73"/>
<text text-anchor="middle" x="1424" y="-80" font-family="Helvetica,sans-Serif" font-size="10.00">Storm/TShell/WhiteBox.h</text>
</a>
</g>
</g>
<!-- Node4&#45;&gt;Node18 -->
<g id="edge17" class="edge"><title>Node4&#45;&gt;Node18</title>
<path fill="none" stroke="midnightblue" d="M1318.54,-130.327C1344.55,-118.776 1382.26,-102.032 1404.84,-92.0091"/>
<polygon fill="midnightblue" stroke="midnightblue" points="1316.92,-127.218 1309.2,-134.475 1319.76,-133.616 1316.92,-127.218"/>
</g>
<!-- Node19 -->
<g id="node19" class="node"><title>Node19</title>
<g id="a_node19"><a xlink:href="filter_8h.html" target="_top" xlink:title=" ">
<polygon fill="white" stroke="black" points="1506,-73 1506,-92 1610,-92 1610,-73 1506,-73"/>
<text text-anchor="middle" x="1558" y="-80" font-family="Helvetica,sans-Serif" font-size="10.00">Storm/TShell/filter.h</text>
</a>
</g>
</g>
<!-- Node4&#45;&gt;Node19 -->
<g id="edge18" class="edge"><title>Node4&#45;&gt;Node19</title>
<path fill="none" stroke="midnightblue" d="M1339.83,-132.329C1381.58,-123.337 1442.73,-110.047 1496,-98 1504.41,-96.0981 1513.45,-94.0091 1521.96,-92.0235"/>
<polygon fill="midnightblue" stroke="midnightblue" points="1338.95,-128.937 1329.91,-134.462 1340.43,-135.78 1338.95,-128.937"/>
</g>
<!-- Node20 -->
<g id="node20" class="node"><title>Node20</title>
<g id="a_node20"><a xlink:href="_cmd_8h.html" target="_top" xlink:title=" ">
<polygon fill="white" stroke="black" points="1628.5,-67.5 1628.5,-97.5 1771.5,-97.5 1771.5,-67.5 1628.5,-67.5"/>
<text text-anchor="start" x="1636.5" y="-85.5" font-family="Helvetica,sans-Serif" font-size="10.00">Storm/Thermostat/SimHouse</text>
<text text-anchor="middle" x="1700" y="-74.5" font-family="Helvetica,sans-Serif" font-size="10.00">/Cmd.h</text>
</a>
</g>
</g>
<!-- Node4&#45;&gt;Node20 -->
<g id="edge19" class="edge"><title>Node4&#45;&gt;Node20</title>
<path fill="none" stroke="midnightblue" d="M1368.51,-133.186C1435.25,-124.622 1533.56,-111.485 1619,-98 1622.1,-97.51 1625.27,-96.9972 1628.47,-96.469"/>
<polygon fill="midnightblue" stroke="midnightblue" points="1367.96,-129.727 1358.49,-134.468 1368.85,-136.671 1367.96,-129.727"/>
</g>
<!-- Node22 -->
<g id="node22" class="node"><title>Node22</title>
<g id="a_node22"><a xlink:href="_log_8h.html" target="_top" xlink:title=" ">
<polygon fill="white" stroke="black" points="1790,-67.5 1790,-97.5 1906,-97.5 1906,-67.5 1790,-67.5"/>
<text text-anchor="start" x="1798" y="-85.5" font-family="Helvetica,sans-Serif" font-size="10.00">Storm/Thermostat/_file</text>
<text text-anchor="middle" x="1848" y="-74.5" font-family="Helvetica,sans-Serif" font-size="10.00">_logger/Log.h</text>
</a>
</g>
</g>
<!-- Node4&#45;&gt;Node22 -->
<g id="edge21" class="edge"><title>Node4&#45;&gt;Node22</title>
<path fill="none" stroke="midnightblue" d="M1370.16,-138.563C1467.49,-132.504 1636.44,-119.82 1780,-98 1783.22,-97.5103 1786.52,-96.9625 1789.84,-96.3745"/>
<polygon fill="midnightblue" stroke="midnightblue" points="1369.87,-135.075 1360.1,-139.182 1370.3,-142.061 1369.87,-135.075"/>
</g>
<!-- Node11 -->
<g id="node11" class="node"><title>Node11</title>
<g id="a_node11"><a xlink:href="_free_r_t_o_s_2_threads_8h.html" target="_top" xlink:title=" ">
<polygon fill="white" stroke="black" points="217,-0.5 217,-30.5 351,-30.5 351,-0.5 217,-0.5"/>
<text text-anchor="start" x="225" y="-18.5" font-family="Helvetica,sans-Serif" font-size="10.00">Cpl/TShell/Cmd/FreeRTOS</text>
<text text-anchor="middle" x="284" y="-7.5" font-family="Helvetica,sans-Serif" font-size="10.00">/Threads.h</text>
</a>
</g>
</g>
<!-- Node10&#45;&gt;Node11 -->
<g id="edge10" class="edge"><title>Node10&#45;&gt;Node11</title>
<path fill="none" stroke="midnightblue" d="M330.552,-65.3041C320.375,-54.6349 307.18,-40.8021 297.439,-30.589"/>
<polygon fill="midnightblue" stroke="midnightblue" points="328.204,-67.9135 337.638,-72.7338 333.269,-63.082 328.204,-67.9135"/>
</g>
<!-- Node12 -->
<g id="node12" class="node"><title>Node12</title>
<g id="a_node12"><a xlink:href="_win32_2_threads_8h.html" target="_top" xlink:title=" ">
<polygon fill="white" stroke="black" points="369.5,-0.5 369.5,-30.5 484.5,-30.5 484.5,-0.5 369.5,-0.5"/>
<text text-anchor="start" x="377.5" y="-18.5" font-family="Helvetica,sans-Serif" font-size="10.00">Cpl/TShell/Cmd/Win32</text>
<text text-anchor="middle" x="427" y="-7.5" font-family="Helvetica,sans-Serif" font-size="10.00">/Threads.h</text>
</a>
</g>
</g>
<!-- Node10&#45;&gt;Node12 -->
<g id="edge11" class="edge"><title>Node10&#45;&gt;Node12</title>
<path fill="none" stroke="midnightblue" d="M365.02,-66.2371C378.46,-55.4518 396.342,-41.1025 409.443,-30.589"/>
<polygon fill="midnightblue" stroke="midnightblue" points="362.533,-63.7453 356.924,-72.7338 366.914,-69.2048 362.533,-63.7453"/>
</g>
<!-- Node21 -->
<g id="node21" class="node"><title>Node21</title>
<g id="a_node21"><a xlink:href="statics___8h.html" target="_top" xlink:title="This file defines/creates persistent records and record server for the Thermostat simulation.">
<polygon fill="white" stroke="black" points="1788.5,-0.5 1788.5,-30.5 1907.5,-30.5 1907.5,-0.5 1788.5,-0.5"/>
<text text-anchor="start" x="1796.5" y="-18.5" font-family="Helvetica,sans-Serif" font-size="10.00">Storm/Thermostat/Main</text>
<text text-anchor="middle" x="1848" y="-7.5" font-family="Helvetica,sans-Serif" font-size="10.00">/_simulation/statics_.h</text>
</a>
</g>
</g>
<!-- Node20&#45;&gt;Node21 -->
<g id="edge20" class="edge"><title>Node20&#45;&gt;Node21</title>
<path fill="none" stroke="midnightblue" d="M1741.51,-63.2687C1765.08,-52.9159 1794.14,-40.1528 1815.95,-30.5765"/>
<polygon fill="midnightblue" stroke="midnightblue" points="1739.86,-60.1702 1732.11,-67.396 1742.68,-66.5793 1739.86,-60.1702"/>
</g>
<!-- Node22&#45;&gt;Node21 -->
<g id="edge22" class="edge"><title>Node22&#45;&gt;Node21</title>
<path fill="none" stroke="midnightblue" d="M1848,-57.1081C1848,-48.1539 1848,-38.3227 1848,-30.5765"/>
<polygon fill="midnightblue" stroke="midnightblue" points="1844.5,-57.3959 1848,-67.396 1851.5,-57.396 1844.5,-57.3959"/>
</g>
<!-- Node23&#45;&gt;Node4 -->
<g id="edge24" class="edge"><title>Node23&#45;&gt;Node4</title>
<path fill="none" stroke="midnightblue" d="M1290,-185.817C1290,-174.996 1290,-161.898 1290,-153.509"/>
<polygon fill="midnightblue" stroke="midnightblue" points="1286.5,-185.975 1290,-195.975 1293.5,-185.975 1286.5,-185.975"/>
</g>
<!-- Node24 -->
<g id="node24" class="node"><title>Node24</title>
<g id="a_node24"><a xlink:href="_processor_8h.html" target="_top" xlink:title=" ">
<polygon fill="white" stroke="black" points="153.5,-134.5 153.5,-153.5 270.5,-153.5 270.5,-134.5 153.5,-134.5"/>
<text text-anchor="middle" x="212" y="-141.5" font-family="Helvetica,sans-Serif" font-size="10.00">Cpl/TShell/Processor.h</text>
</a>
</g>
</g>
<!-- Node23&#45;&gt;Node24 -->
<g id="edge25" class="edge"><title>Node23&#45;&gt;Node24</title>
<path fill="none" stroke="midnightblue" d="M1223.81,-200.847C1028.35,-190.058 455.807,-158.457 270.559,-148.232"/>
<polygon fill="midnightblue" stroke="midnightblue" points="1223.76,-204.349 1233.94,-201.406 1224.14,-197.36 1223.76,-204.349"/>
</g>
<!-- Node25 -->
<g id="node25" class="node"><title>Node25</title>
<g id="a_node25"><a xlink:href="_maker_8h.html" target="_top" xlink:title=" ">
<polygon fill="white" stroke="black" points="162,-73 162,-92 262,-92 262,-73 162,-73"/>
<text text-anchor="middle" x="212" y="-80" font-family="Helvetica,sans-Serif" font-size="10.00">Cpl/TShell/Maker.h</text>
</a>
</g>
</g>
<!-- Node24&#45;&gt;Node25 -->
<g id="edge26" class="edge"><title>Node24&#45;&gt;Node25</title>
<path fill="none" stroke="midnightblue" d="M212,-124.317C212,-113.496 212,-100.398 212,-92.0091"/>
<polygon fill="midnightblue" stroke="midnightblue" points="208.5,-124.475 212,-134.475 215.5,-124.475 208.5,-124.475"/>
</g>
<!-- Node26 -->
<g id="node26" class="node"><title>Node26</title>
<g id="a_node26"><a xlink:href="_polled_processor_8h.html" target="_top" xlink:title=" ">
<polygon fill="white" stroke="black" points="0,-73 0,-92 144,-92 144,-73 0,-73"/>
<text text-anchor="middle" x="72" y="-80" font-family="Helvetica,sans-Serif" font-size="10.00">Cpl/TShell/PolledProcessor.h</text>
</a>
</g>
</g>
<!-- Node24&#45;&gt;Node26 -->
<g id="edge27" class="edge"><title>Node24&#45;&gt;Node26</title>
<path fill="none" stroke="midnightblue" d="M182.54,-130.48C155.35,-118.924 115.708,-102.076 92.0214,-92.0091"/>
<polygon fill="midnightblue" stroke="midnightblue" points="181.369,-133.785 191.941,-134.475 184.107,-127.342 181.369,-133.785"/>
</g>
<!-- Node27 -->
<g id="node27" class="node"><title>Node27</title>
<g id="a_node27"><a xlink:href="_polled_maker_8h.html" target="_top" xlink:title=" ">
<polygon fill="white" stroke="black" points="8.5,-6 8.5,-25 135.5,-25 135.5,-6 8.5,-6"/>
<text text-anchor="middle" x="72" y="-13" font-family="Helvetica,sans-Serif" font-size="10.00">Cpl/TShell/PolledMaker.h</text>
</a>
</g>
</g>
<!-- Node26&#45;&gt;Node27 -->
<g id="edge28" class="edge"><title>Node26&#45;&gt;Node27</title>
<path fill="none" stroke="midnightblue" d="M72,-62.537C72,-50.1703 72,-34.6198 72,-25.1273"/>
<polygon fill="midnightblue" stroke="midnightblue" points="68.5001,-62.7338 72,-72.7338 75.5001,-62.7338 68.5001,-62.7338"/>
</g>
<!-- Node28&#45;&gt;Node21 -->
<g id="edge30" class="edge"><title>Node28&#45;&gt;Node21</title>
<path fill="none" stroke="midnightblue" d="M1493.68,-201.345C1693.23,-191.601 2255.97,-158.913 2310,-98 2319.14,-87.6927 2319.2,-77.258 2310,-67 2283.61,-37.564 2026.81,-23.5997 1907.89,-18.6709"/>
<polygon fill="midnightblue" stroke="midnightblue" points="1493.43,-197.853 1483.61,-201.832 1493.77,-204.844 1493.43,-197.853"/>
</g>
<!-- Node29&#45;&gt;Node4 -->
<g id="edge32" class="edge"><title>Node29&#45;&gt;Node4</title>
<path fill="none" stroke="midnightblue" d="M1259.62,-252.833C1246.42,-245.533 1232.42,-235.047 1225,-221 1218.56,-208.819 1218.61,-202.204 1225,-190 1234.05,-172.736 1253.06,-160.779 1268.19,-153.553"/>
<polygon fill="midnightblue" stroke="midnightblue" points="1258.04,-255.957 1268.54,-257.382 1261.22,-249.721 1258.04,-255.957"/>
</g>
<!-- Node29&#45;&gt;Node23 -->
<g id="edge33" class="edge"><title>Node29&#45;&gt;Node23</title>
<path fill="none" stroke="midnightblue" d="M1290.69,-247.317C1290.5,-236.496 1290.28,-223.398 1290.14,-215.009"/>
<polygon fill="midnightblue" stroke="midnightblue" points="1287.19,-247.535 1290.86,-257.475 1294.19,-247.418 1287.19,-247.535"/>
</g>
<!-- Node29&#45;&gt;Node28 -->
<g id="edge34" class="edge"><title>Node29&#45;&gt;Node28</title>
<path fill="none" stroke="midnightblue" d="M1319.32,-253.331C1340.84,-243.704 1370.42,-230.468 1392.65,-220.523"/>
<polygon fill="midnightblue" stroke="midnightblue" points="1317.75,-250.197 1310.06,-257.475 1320.61,-256.586 1317.75,-250.197"/>
</g>
<!-- Node31 -->
<g id="node31" class="node"><title>Node31</title>
<g id="a_node31"><a xlink:href="_d_f_string_item_8h.html" target="_top" xlink:title=" ">
<polygon fill="white" stroke="black" points="1627,-257.5 1627,-276.5 1749,-276.5 1749,-257.5 1627,-257.5"/>
<text text-anchor="middle" x="1688" y="-264.5" font-family="Helvetica,sans-Serif" font-size="10.00">Cpl/Text/DFStringItem.h</text>
</a>
</g>
</g>
<!-- Node30&#45;&gt;Node31 -->
<g id="edge36" class="edge"><title>Node30&#45;&gt;Node31</title>
<path fill="none" stroke="midnightblue" d="M1641.27,-306.82C1652.92,-297.145 1667.6,-284.948 1677.37,-276.834"/>
<polygon fill="midnightblue" stroke="midnightblue" points="1638.9,-304.242 1633.44,-313.324 1643.37,-309.626 1638.9,-304.242"/>
</g>
<!-- Node32 -->
<g id="node32" class="node"><title>Node32</title>
<g id="a_node32"><a xlink:href="_d_string_item_8h.html" target="_top" xlink:title=" ">
<polygon fill="white" stroke="black" points="1767,-257.5 1767,-276.5 1883,-276.5 1883,-257.5 1767,-257.5"/>
<text text-anchor="middle" x="1825" y="-264.5" font-family="Helvetica,sans-Serif" font-size="10.00">Cpl/Text/DStringItem.h</text>
</a>
</g>
</g>
<!-- Node30&#45;&gt;Node32 -->
<g id="edge37" class="edge"><title>Node30&#45;&gt;Node32</title>
<path fill="none" stroke="midnightblue" d="M1664.79,-310.829C1702.93,-300.633 1758.48,-285.782 1793.14,-276.516"/>
<polygon fill="midnightblue" stroke="midnightblue" points="1663.76,-307.48 1655.01,-313.444 1665.57,-314.242 1663.76,-307.48"/>
</g>
<!-- Node33 -->
<g id="node33" class="node"><title>Node33</title>
<g id="a_node33"><a xlink:href="_f_string_item_8h.html" target="_top" xlink:title=" ">
<polygon fill="white" stroke="black" points="1493,-257.5 1493,-276.5 1609,-276.5 1609,-257.5 1493,-257.5"/>
<text text-anchor="middle" x="1551" y="-264.5" font-family="Helvetica,sans-Serif" font-size="10.00">Cpl/Text/FStringItem.h</text>
</a>
</g>
</g>
<!-- Node30&#45;&gt;Node33 -->
<g id="edge38" class="edge"><title>Node30&#45;&gt;Node33</title>
<path fill="none" stroke="midnightblue" d="M1603.13,-307.101C1590.18,-297.382 1573.7,-285.027 1562.78,-276.834"/>
<polygon fill="midnightblue" stroke="midnightblue" points="1601.33,-310.124 1611.43,-313.324 1605.53,-304.524 1601.33,-310.124"/>
</g>
</g>
</svg>
