<?xml version="1.0" encoding="UTF-8" standalone="no"?>
<!DOCTYPE svg PUBLIC "-//W3C//DTD SVG 1.1//EN"
 "http://www.w3.org/Graphics/SVG/1.1/DTD/svg11.dtd">
<!-- Generated by graphviz version 2.38.0 (20140413.2041)
 -->
<!-- Title: Cpl/Itc/Message.h Pages: 1 -->
<svg width="1834pt" height="699pt"
 viewBox="0.00 0.00 1834.00 699.00" xmlns="http://www.w3.org/2000/svg" xmlns:xlink="http://www.w3.org/1999/xlink">
<g id="graph0" class="graph" transform="scale(1 1) rotate(0) translate(4 695)">
<title>Cpl/Itc/Message.h</title>
<polygon fill="white" stroke="none" points="-4,4 -4,-695 1830,-695 1830,4 -4,4"/>
<!-- Node1 -->
<g id="node1" class="node"><title>Node1</title>
<g id="a_node1"><a xlink:title=" ">
<polygon fill="#bfbfbf" stroke="black" points="1225.5,-671.5 1225.5,-690.5 1321.5,-690.5 1321.5,-671.5 1225.5,-671.5"/>
<text text-anchor="middle" x="1273.5" y="-678.5" font-family="Helvetica,sans-Serif" font-size="10.00">Cpl/Itc/Message.h</text>
</a>
</g>
</g>
<!-- Node2 -->
<g id="node2" class="node"><title>Node2</title>
<g id="a_node2"><a xlink:href="_post_api_8h.html" target="_top" xlink:title=" ">
<polygon fill="white" stroke="black" points="1170,-615.5 1170,-634.5 1261,-634.5 1261,-615.5 1170,-615.5"/>
<text text-anchor="middle" x="1215.5" y="-622.5" font-family="Helvetica,sans-Serif" font-size="10.00">Cpl/Itc/PostApi.h</text>
</a>
</g>
</g>
<!-- Node1&#45;&gt;Node2 -->
<g id="edge1" class="edge"><title>Node1&#45;&gt;Node2</title>
<path fill="none" stroke="midnightblue" d="M1256.59,-664.253C1246.3,-654.673 1233.53,-642.791 1224.99,-634.834"/>
<polygon fill="midnightblue" stroke="midnightblue" points="1254.48,-667.071 1264.18,-671.324 1259.25,-661.948 1254.48,-667.071"/>
</g>
<!-- Node41 -->
<g id="node41" class="node"><title>Node41</title>
<g id="a_node41"><a xlink:href="_service_message_8h.html" target="_top" xlink:title=" ">
<polygon fill="white" stroke="black" points="1290,-559.5 1290,-578.5 1419,-578.5 1419,-559.5 1290,-559.5"/>
<text text-anchor="middle" x="1354.5" y="-566.5" font-family="Helvetica,sans-Serif" font-size="10.00">Cpl/Itc/ServiceMessage.h</text>
</a>
</g>
</g>
<!-- Node1&#45;&gt;Node41 -->
<g id="edge74" class="edge"><title>Node1&#45;&gt;Node41</title>
<path fill="none" stroke="midnightblue" d="M1285.82,-663.272C1303.33,-639.494 1334.77,-596.789 1348.17,-578.591"/>
<polygon fill="midnightblue" stroke="midnightblue" points="1282.97,-661.241 1279.86,-671.368 1288.6,-665.391 1282.97,-661.241"/>
</g>
<!-- Node3 -->
<g id="node3" class="node"><title>Node3</title>
<g id="a_node3"><a xlink:href="_async_return_handler_8h.html" target="_top" xlink:title=" ">
<polygon fill="white" stroke="black" points="1444.5,-503.5 1444.5,-522.5 1590.5,-522.5 1590.5,-503.5 1444.5,-503.5"/>
<text text-anchor="middle" x="1517.5" y="-510.5" font-family="Helvetica,sans-Serif" font-size="10.00">Cpl/Itc/AsyncReturnHandler.h</text>
</a>
</g>
</g>
<!-- Node2&#45;&gt;Node3 -->
<g id="edge2" class="edge"><title>Node2&#45;&gt;Node3</title>
<path fill="none" stroke="midnightblue" d="M1227.55,-607.173C1239.3,-592.088 1258.57,-570.602 1280.5,-559 1309.05,-543.898 1389.24,-530.657 1448.47,-522.518"/>
<polygon fill="midnightblue" stroke="midnightblue" points="1224.74,-605.091 1221.54,-615.191 1230.34,-609.29 1224.74,-605.091"/>
</g>
<!-- Node22 -->
<g id="node22" class="node"><title>Node22</title>
<g id="a_node22"><a xlink:href="_mailbox_8h.html" target="_top" xlink:title=" ">
<polygon fill="white" stroke="black" points="639.5,-375 639.5,-394 729.5,-394 729.5,-375 639.5,-375"/>
<text text-anchor="middle" x="684.5" y="-382" font-family="Helvetica,sans-Serif" font-size="10.00">Cpl/Itc/Mailbox.h</text>
</a>
</g>
</g>
<!-- Node2&#45;&gt;Node22 -->
<g id="edge28" class="edge"><title>Node2&#45;&gt;Node22</title>
<path fill="none" stroke="midnightblue" d="M1186.95,-611.176C1091.31,-568.218 783.729,-430.069 703.686,-394.118"/>
<polygon fill="midnightblue" stroke="midnightblue" points="1185.73,-614.466 1196.29,-615.371 1188.6,-608.081 1185.73,-614.466"/>
</g>
<!-- Node37 -->
<g id="node37" class="node"><title>Node37</title>
<g id="a_node37"><a xlink:href="_s_a_p_8h.html" target="_top" xlink:title=" ">
<polygon fill="white" stroke="black" points="1156,-559.5 1156,-578.5 1233,-578.5 1233,-559.5 1156,-559.5"/>
<text text-anchor="middle" x="1194.5" y="-566.5" font-family="Helvetica,sans-Serif" font-size="10.00">Cpl/Itc/SAP.h</text>
</a>
</g>
</g>
<!-- Node2&#45;&gt;Node37 -->
<g id="edge56" class="edge"><title>Node2&#45;&gt;Node37</title>
<path fill="none" stroke="midnightblue" d="M1208.38,-605.69C1204.84,-596.589 1200.73,-586.014 1197.9,-578.751"/>
<polygon fill="midnightblue" stroke="midnightblue" points="1205.15,-607.032 1212.03,-615.083 1211.67,-604.494 1205.15,-607.032"/>
</g>
<!-- Node4 -->
<g id="node4" class="node"><title>Node4</title>
<g id="a_node4"><a xlink:href="_response_message_8h.html" target="_top" xlink:title=" ">
<polygon fill="white" stroke="black" points="1298.5,-442 1298.5,-461 1438.5,-461 1438.5,-442 1298.5,-442"/>
<text text-anchor="middle" x="1368.5" y="-449" font-family="Helvetica,sans-Serif" font-size="10.00">Cpl/Itc/ResponseMessage.h</text>
</a>
</g>
</g>
<!-- Node3&#45;&gt;Node4 -->
<g id="edge3" class="edge"><title>Node3&#45;&gt;Node4</title>
<path fill="none" stroke="midnightblue" d="M1486.53,-499.631C1457.58,-488.072 1415.13,-471.12 1389.81,-461.009"/>
<polygon fill="midnightblue" stroke="midnightblue" points="1485.57,-503.017 1496.15,-503.475 1488.16,-496.516 1485.57,-503.017"/>
</g>
<!-- Node5 -->
<g id="node5" class="node"><title>Node5</title>
<g id="a_node5"><a xlink:href="_erase_request_8h.html" target="_top" xlink:title=" ">
<polygon fill="white" stroke="black" points="1089,-375 1089,-394 1258,-394 1258,-375 1089,-375"/>
<text text-anchor="middle" x="1173.5" y="-382" font-family="Helvetica,sans-Serif" font-size="10.00">Cpl/Dm/Persistent/EraseRequest.h</text>
</a>
</g>
</g>
<!-- Node4&#45;&gt;Node5 -->
<g id="edge4" class="edge"><title>Node4&#45;&gt;Node5</title>
<path fill="none" stroke="midnightblue" d="M1332.8,-438.601C1294.14,-425.714 1233.42,-405.473 1199.19,-394.064"/>
<polygon fill="midnightblue" stroke="midnightblue" points="1332.01,-442.027 1342.61,-441.869 1334.23,-435.386 1332.01,-442.027"/>
</g>
<!-- Node11 -->
<g id="node11" class="node"><title>Node11</title>
<g id="a_node11"><a xlink:href="_flush_request_8h.html" target="_top" xlink:title=" ">
<polygon fill="white" stroke="black" points="904,-375 904,-394 1071,-394 1071,-375 904,-375"/>
<text text-anchor="middle" x="987.5" y="-382" font-family="Helvetica,sans-Serif" font-size="10.00">Cpl/Dm/Persistent/FlushRequest.h</text>
</a>
</g>
</g>
<!-- Node4&#45;&gt;Node11 -->
<g id="edge12" class="edge"><title>Node4&#45;&gt;Node11</title>
<path fill="none" stroke="midnightblue" d="M1308.09,-440.194C1233.27,-427.429 1107.17,-405.916 1037.51,-394.032"/>
<polygon fill="midnightblue" stroke="midnightblue" points="1307.85,-443.704 1318.3,-441.936 1309.03,-436.804 1307.85,-443.704"/>
</g>
<!-- Node12 -->
<g id="node12" class="node"><title>Node12</title>
<g id="a_node12"><a xlink:href="_atomic_request_8h.html" target="_top" xlink:title=" ">
<polygon fill="white" stroke="black" points="1703,-375 1703,-394 1826,-394 1826,-375 1703,-375"/>
<text text-anchor="middle" x="1764.5" y="-382" font-family="Helvetica,sans-Serif" font-size="10.00">Cpl/Itc/AtomicRequest.h</text>
</a>
</g>
</g>
<!-- Node4&#45;&gt;Node12 -->
<g id="edge14" class="edge"><title>Node4&#45;&gt;Node12</title>
<path fill="none" stroke="midnightblue" d="M1439.12,-440.511C1505.06,-430.95 1606.15,-415.698 1693.5,-400 1703.53,-398.198 1714.32,-396.084 1724.39,-394.037"/>
<polygon fill="midnightblue" stroke="midnightblue" points="1438.24,-437.101 1428.84,-441.996 1439.24,-444.029 1438.24,-437.101"/>
</g>
<!-- Node14 -->
<g id="node14" class="node"><title>Node14</title>
<g id="a_node14"><a xlink:href="_close_request_8h.html" target="_top" xlink:title=" ">
<polygon fill="white" stroke="black" points="1276,-375 1276,-394 1393,-394 1393,-375 1276,-375"/>
<text text-anchor="middle" x="1334.5" y="-382" font-family="Helvetica,sans-Serif" font-size="10.00">Cpl/Itc/CloseRequest.h</text>
</a>
</g>
</g>
<!-- Node4&#45;&gt;Node14 -->
<g id="edge16" class="edge"><title>Node4&#45;&gt;Node14</title>
<path fill="none" stroke="midnightblue" d="M1359.17,-432.663C1352.61,-420.128 1344.13,-403.91 1339.01,-394.127"/>
<polygon fill="midnightblue" stroke="midnightblue" points="1356.18,-434.495 1363.91,-441.734 1362.38,-431.251 1356.18,-434.495"/>
</g>
<!-- Node19 -->
<g id="node19" class="node"><title>Node19</title>
<g id="a_node19"><a xlink:href="_open_request_8h.html" target="_top" xlink:title=" ">
<polygon fill="white" stroke="black" points="1411.5,-375 1411.5,-394 1527.5,-394 1527.5,-375 1411.5,-375"/>
<text text-anchor="middle" x="1469.5" y="-382" font-family="Helvetica,sans-Serif" font-size="10.00">Cpl/Itc/OpenRequest.h</text>
</a>
</g>
</g>
<!-- Node4&#45;&gt;Node19 -->
<g id="edge23" class="edge"><title>Node4&#45;&gt;Node19</title>
<path fill="none" stroke="midnightblue" d="M1390.61,-436.269C1410.61,-423.403 1439.39,-404.879 1456.09,-394.127"/>
<polygon fill="midnightblue" stroke="midnightblue" points="1388.64,-433.379 1382.12,-441.734 1392.42,-439.265 1388.64,-433.379"/>
</g>
<!-- Node21 -->
<g id="node21" class="node"><title>Node21</title>
<g id="a_node21"><a xlink:href="_indexed_entry_requests_8h.html" target="_top" xlink:title=" ">
<polygon fill="white" stroke="black" points="1546,-369.5 1546,-399.5 1685,-399.5 1685,-369.5 1546,-369.5"/>
<text text-anchor="start" x="1554" y="-387.5" font-family="Helvetica,sans-Serif" font-size="10.00">Cpl/Persistent/IndexedEntry</text>
<text text-anchor="middle" x="1615.5" y="-376.5" font-family="Helvetica,sans-Serif" font-size="10.00">Requests.h</text>
</a>
</g>
</g>
<!-- Node4&#45;&gt;Node21 -->
<g id="edge26" class="edge"><title>Node4&#45;&gt;Node21</title>
<path fill="none" stroke="midnightblue" d="M1410.91,-439.338C1452.74,-428.332 1516.8,-411.474 1562.08,-399.559"/>
<polygon fill="midnightblue" stroke="midnightblue" points="1409.82,-436.006 1401.04,-441.936 1411.61,-442.775 1409.82,-436.006"/>
</g>
<!-- Node6 -->
<g id="node6" class="node"><title>Node6</title>
<g id="a_node6"><a xlink:href="_dm_2_persistent_2_record_8h.html" target="_top" xlink:title=" ">
<polygon fill="white" stroke="black" points="810.5,-134.5 810.5,-153.5 948.5,-153.5 948.5,-134.5 810.5,-134.5"/>
<text text-anchor="middle" x="879.5" y="-141.5" font-family="Helvetica,sans-Serif" font-size="10.00">Cpl/Dm/Persistent/Record.h</text>
</a>
</g>
</g>
<!-- Node5&#45;&gt;Node6 -->
<g id="edge5" class="edge"><title>Node5&#45;&gt;Node6</title>
<path fill="none" stroke="midnightblue" d="M1183.02,-365.665C1201.59,-328.147 1237.18,-240.383 1193.5,-190 1162.48,-154.214 1031.4,-146.202 948.715,-144.797"/>
<polygon fill="midnightblue" stroke="midnightblue" points="1179.76,-364.346 1178.31,-374.841 1185.99,-367.54 1179.76,-364.346"/>
</g>
<!-- Node7 -->
<g id="node7" class="node"><title>Node7</title>
<g id="a_node7"><a xlink:href="_installer_record_8h_source.html" target="_top" xlink:title=" ">
<polygon fill="white" stroke="black" points="944,-67.5 944,-97.5 1063,-97.5 1063,-67.5 944,-67.5"/>
<text text-anchor="start" x="952" y="-85.5" font-family="Helvetica,sans-Serif" font-size="10.00">Storm/Thermostat/Main</text>
<text text-anchor="middle" x="1003.5" y="-74.5" font-family="Helvetica,sans-Serif" font-size="10.00">/InstallerRecord.h</text>
</a>
</g>
</g>
<!-- Node6&#45;&gt;Node7 -->
<g id="edge6" class="edge"><title>Node6&#45;&gt;Node7</title>
<path fill="none" stroke="midnightblue" d="M906.447,-130.07C926.463,-120.465 953.737,-107.378 974.276,-97.523"/>
<polygon fill="midnightblue" stroke="midnightblue" points="904.768,-126.993 897.266,-134.475 907.796,-133.304 904.768,-126.993"/>
</g>
<!-- Node9 -->
<g id="node9" class="node"><title>Node9</title>
<g id="a_node9"><a xlink:href="_run_time_record_8h_source.html" target="_top" xlink:title=" ">
<polygon fill="white" stroke="black" points="670,-67.5 670,-97.5 789,-97.5 789,-67.5 670,-67.5"/>
<text text-anchor="start" x="678" y="-85.5" font-family="Helvetica,sans-Serif" font-size="10.00">Storm/Thermostat/Main</text>
<text text-anchor="middle" x="729.5" y="-74.5" font-family="Helvetica,sans-Serif" font-size="10.00">/RunTimeRecord.h</text>
</a>
</g>
</g>
<!-- Node6&#45;&gt;Node9 -->
<g id="edge8" class="edge"><title>Node6&#45;&gt;Node9</title>
<path fill="none" stroke="midnightblue" d="M848.539,-130.719C824.194,-121.062 790.262,-107.602 764.852,-97.523"/>
<polygon fill="midnightblue" stroke="midnightblue" points="847.423,-134.041 858.009,-134.475 850.004,-127.534 847.423,-134.041"/>
</g>
<!-- Node10 -->
<g id="node10" class="node"><title>Node10</title>
<g id="a_node10"><a xlink:href="_user_record_8h_source.html" target="_top" xlink:title=" ">
<polygon fill="white" stroke="black" points="807,-67.5 807,-97.5 926,-97.5 926,-67.5 807,-67.5"/>
<text text-anchor="start" x="815" y="-85.5" font-family="Helvetica,sans-Serif" font-size="10.00">Storm/Thermostat/Main</text>
<text text-anchor="middle" x="866.5" y="-74.5" font-family="Helvetica,sans-Serif" font-size="10.00">/UserRecord.h</text>
</a>
</g>
</g>
<!-- Node6&#45;&gt;Node10 -->
<g id="edge10" class="edge"><title>Node6&#45;&gt;Node10</title>
<path fill="none" stroke="midnightblue" d="M875.464,-124.526C873.56,-115.813 871.326,-105.586 869.564,-97.523"/>
<polygon fill="midnightblue" stroke="midnightblue" points="872.083,-125.453 877.637,-134.475 878.922,-123.958 872.083,-125.453"/>
</g>
<!-- Node8 -->
<g id="node8" class="node"><title>Node8</title>
<g id="a_node8"><a xlink:href="statics___8h.html" target="_top" xlink:title="This file defines/creates persistent records and record server for the Thermostat simulation.">
<polygon fill="white" stroke="black" points="547,-0.5 547,-30.5 666,-30.5 666,-0.5 547,-0.5"/>
<text text-anchor="start" x="555" y="-18.5" font-family="Helvetica,sans-Serif" font-size="10.00">Storm/Thermostat/Main</text>
<text text-anchor="middle" x="606.5" y="-7.5" font-family="Helvetica,sans-Serif" font-size="10.00">/_simulation/statics_.h</text>
</a>
</g>
</g>
<!-- Node7&#45;&gt;Node8 -->
<g id="edge7" class="edge"><title>Node7&#45;&gt;Node8</title>
<path fill="none" stroke="midnightblue" d="M933.763,-66.9249C834.129,-48.9845 729.956,-33.6747 666.216,-24.6991"/>
<polygon fill="midnightblue" stroke="midnightblue" points="933.236,-70.3863 943.7,-68.7257 934.484,-63.4985 933.236,-70.3863"/>
</g>
<!-- Node9&#45;&gt;Node8 -->
<g id="edge9" class="edge"><title>Node9&#45;&gt;Node8</title>
<path fill="none" stroke="midnightblue" d="M693.952,-62.7143C674.553,-52.4631 650.936,-39.9826 633.137,-30.5765"/>
<polygon fill="midnightblue" stroke="midnightblue" points="692.334,-65.8181 702.811,-67.396 695.605,-59.6292 692.334,-65.8181"/>
</g>
<!-- Node10&#45;&gt;Node8 -->
<g id="edge11" class="edge"><title>Node10&#45;&gt;Node8</title>
<path fill="none" stroke="midnightblue" d="M800.437,-64.9844C757.97,-54.3674 703.38,-40.7201 662.944,-30.6109"/>
<polygon fill="midnightblue" stroke="midnightblue" points="799.854,-68.4461 810.404,-67.476 801.551,-61.6551 799.854,-68.4461"/>
</g>
<!-- Node11&#45;&gt;Node6 -->
<g id="edge13" class="edge"><title>Node11&#45;&gt;Node6</title>
<path fill="none" stroke="midnightblue" d="M993.875,-364.962C1005.31,-328.085 1024.9,-244.404 988.5,-190 975.693,-170.857 953.092,-159.849 931.779,-153.522"/>
<polygon fill="midnightblue" stroke="midnightblue" points="990.434,-364.227 990.659,-374.819 997.088,-366.398 990.434,-364.227"/>
</g>
<!-- Node13 -->
<g id="node13" class="node"><title>Node13</title>
<g id="a_node13"><a xlink:href="_atomic_sync_8h.html" target="_top" xlink:title=" ">
<polygon fill="white" stroke="black" points="1709.5,-313.5 1709.5,-332.5 1819.5,-332.5 1819.5,-313.5 1709.5,-313.5"/>
<text text-anchor="middle" x="1764.5" y="-320.5" font-family="Helvetica,sans-Serif" font-size="10.00">Cpl/Itc/AtomicSync.h</text>
</a>
</g>
</g>
<!-- Node12&#45;&gt;Node13 -->
<g id="edge15" class="edge"><title>Node12&#45;&gt;Node13</title>
<path fill="none" stroke="midnightblue" d="M1764.5,-364.817C1764.5,-353.996 1764.5,-340.898 1764.5,-332.509"/>
<polygon fill="midnightblue" stroke="midnightblue" points="1761,-364.975 1764.5,-374.975 1768,-364.975 1761,-364.975"/>
</g>
<!-- Node15 -->
<g id="node15" class="node"><title>Node15</title>
<g id="a_node15"><a xlink:href="_close_sync_8h.html" target="_top" xlink:title=" ">
<polygon fill="white" stroke="black" points="1246.5,-257.5 1246.5,-276.5 1350.5,-276.5 1350.5,-257.5 1246.5,-257.5"/>
<text text-anchor="middle" x="1298.5" y="-264.5" font-family="Helvetica,sans-Serif" font-size="10.00">Cpl/Itc/CloseSync.h</text>
</a>
</g>
</g>
<!-- Node14&#45;&gt;Node15 -->
<g id="edge17" class="edge"><title>Node14&#45;&gt;Node15</title>
<path fill="none" stroke="midnightblue" d="M1328.74,-365.005C1320.87,-339.761 1307.08,-295.519 1301.24,-276.782"/>
<polygon fill="midnightblue" stroke="midnightblue" points="1325.48,-366.313 1331.79,-374.819 1332.16,-364.23 1325.48,-366.313"/>
</g>
<!-- Node16 -->
<g id="node16" class="node"><title>Node16</title>
<g id="a_node16"><a xlink:href="_indexed_entry_server_8h.html" target="_top" xlink:title=" ">
<polygon fill="white" stroke="black" points="1229,-0.5 1229,-30.5 1368,-30.5 1368,-0.5 1229,-0.5"/>
<text text-anchor="start" x="1237" y="-18.5" font-family="Helvetica,sans-Serif" font-size="10.00">Cpl/Persistent/IndexedEntry</text>
<text text-anchor="middle" x="1298.5" y="-7.5" font-family="Helvetica,sans-Serif" font-size="10.00">Server.h</text>
</a>
</g>
</g>
<!-- Node15&#45;&gt;Node16 -->
<g id="edge18" class="edge"><title>Node15&#45;&gt;Node16</title>
<path fill="none" stroke="midnightblue" d="M1298.5,-247.231C1298.5,-199.241 1298.5,-72.8688 1298.5,-30.5423"/>
<polygon fill="midnightblue" stroke="midnightblue" points="1295,-247.412 1298.5,-257.412 1302,-247.412 1295,-247.412"/>
</g>
<!-- Node17 -->
<g id="node17" class="node"><title>Node17</title>
<g id="a_node17"><a xlink:href="_record_server_8h.html" target="_top" xlink:title=" ">
<polygon fill="white" stroke="black" points="831,-196 831,-215 980,-215 980,-196 831,-196"/>
<text text-anchor="middle" x="905.5" y="-203" font-family="Helvetica,sans-Serif" font-size="10.00">Cpl/Persistent/RecordServer.h</text>
</a>
</g>
</g>
<!-- Node15&#45;&gt;Node17 -->
<g id="edge19" class="edge"><title>Node15&#45;&gt;Node17</title>
<path fill="none" stroke="midnightblue" d="M1235.99,-256.537C1160.42,-245.095 1034.35,-226.009 961.719,-215.012"/>
<polygon fill="midnightblue" stroke="midnightblue" points="1235.9,-260.062 1246.31,-258.099 1236.95,-253.141 1235.9,-260.062"/>
</g>
<!-- Node18 -->
<g id="node18" class="node"><title>Node18</title>
<g id="a_node18"><a xlink:href="_algorithm_8h.html" target="_top" xlink:title=" ">
<polygon fill="white" stroke="black" points="1036.5,-196 1036.5,-215 1184.5,-215 1184.5,-196 1036.5,-196"/>
<text text-anchor="middle" x="1110.5" y="-203" font-family="Helvetica,sans-Serif" font-size="10.00">Storm/Thermostat/Algorithm.h</text>
</a>
</g>
</g>
<!-- Node15&#45;&gt;Node18 -->
<g id="edge22" class="edge"><title>Node15&#45;&gt;Node18</title>
<path fill="none" stroke="midnightblue" d="M1261.79,-254.381C1225.24,-242.815 1170.03,-225.341 1137.39,-215.009"/>
<polygon fill="midnightblue" stroke="midnightblue" points="1260.97,-257.795 1271.56,-257.475 1263.09,-251.121 1260.97,-257.795"/>
</g>
<!-- Node17&#45;&gt;Node6 -->
<g id="edge20" class="edge"><title>Node17&#45;&gt;Node6</title>
<path fill="none" stroke="midnightblue" d="M897.633,-186.497C892.849,-175.55 886.961,-162.075 883.218,-153.509"/>
<polygon fill="midnightblue" stroke="midnightblue" points="894.563,-188.213 901.775,-195.975 900.978,-185.41 894.563,-188.213"/>
</g>
<!-- Node17&#45;&gt;Node8 -->
<g id="edge21" class="edge"><title>Node17&#45;&gt;Node8</title>
<path fill="none" stroke="midnightblue" d="M820.887,-195.206C741.467,-185.736 628.876,-170.179 587.5,-154 545.712,-137.66 524.672,-137.56 503.5,-98 496.999,-85.8525 496.211,-78.6917 503.5,-67 514.3,-49.6772 532.963,-38.1304 551.462,-30.5114"/>
<polygon fill="midnightblue" stroke="midnightblue" points="820.545,-198.689 830.887,-196.387 821.366,-191.738 820.545,-198.689"/>
</g>
<!-- Node20 -->
<g id="node20" class="node"><title>Node20</title>
<g id="a_node20"><a xlink:href="_open_sync_8h.html" target="_top" xlink:title=" ">
<polygon fill="white" stroke="black" points="1378.5,-313.5 1378.5,-332.5 1480.5,-332.5 1480.5,-313.5 1378.5,-313.5"/>
<text text-anchor="middle" x="1429.5" y="-320.5" font-family="Helvetica,sans-Serif" font-size="10.00">Cpl/Itc/OpenSync.h</text>
</a>
</g>
</g>
<!-- Node19&#45;&gt;Node20 -->
<g id="edge24" class="edge"><title>Node19&#45;&gt;Node20</title>
<path fill="none" stroke="midnightblue" d="M1458.07,-366.505C1450.6,-355.388 1441.16,-341.34 1435.22,-332.509"/>
<polygon fill="midnightblue" stroke="midnightblue" points="1455.29,-368.629 1463.77,-374.975 1461.09,-364.723 1455.29,-368.629"/>
</g>
<!-- Node20&#45;&gt;Node15 -->
<g id="edge25" class="edge"><title>Node20&#45;&gt;Node15</title>
<path fill="none" stroke="midnightblue" d="M1399.18,-309.503C1374.62,-299.38 1340.68,-285.388 1319.16,-276.516"/>
<polygon fill="midnightblue" stroke="midnightblue" points="1398.16,-312.868 1408.74,-313.444 1400.83,-306.397 1398.16,-312.868"/>
</g>
<!-- Node21&#45;&gt;Node16 -->
<g id="edge27" class="edge"><title>Node21&#45;&gt;Node16</title>
<path fill="none" stroke="midnightblue" d="M1598.15,-361.016C1582.69,-338.696 1562.5,-302.864 1562.5,-268 1562.5,-268 1562.5,-268 1562.5,-143 1562.5,-56.7273 1446.42,-29.2471 1368.21,-20.5231"/>
<polygon fill="midnightblue" stroke="midnightblue" points="1595.32,-363.076 1604,-369.157 1601.01,-358.993 1595.32,-363.076"/>
</g>
<!-- Node23 -->
<g id="node23" class="node"><title>Node23</title>
<g id="a_node23"><a xlink:href="_dm_2_mailbox_server_8h.html" target="_top" xlink:title=" ">
<polygon fill="white" stroke="black" points="623.5,-313.5 623.5,-332.5 745.5,-332.5 745.5,-313.5 623.5,-313.5"/>
<text text-anchor="middle" x="684.5" y="-320.5" font-family="Helvetica,sans-Serif" font-size="10.00">Cpl/Dm/MailboxServer.h</text>
</a>
</g>
</g>
<!-- Node22&#45;&gt;Node23 -->
<g id="edge29" class="edge"><title>Node22&#45;&gt;Node23</title>
<path fill="none" stroke="midnightblue" d="M684.5,-364.817C684.5,-353.996 684.5,-340.898 684.5,-332.509"/>
<polygon fill="midnightblue" stroke="midnightblue" points="681,-364.975 684.5,-374.975 688,-364.975 681,-364.975"/>
</g>
<!-- Node35 -->
<g id="node35" class="node"><title>Node35</title>
<g id="a_node35"><a xlink:href="_itc_2_mailbox_server_8h.html" target="_top" xlink:title=" ">
<polygon fill="white" stroke="black" points="809,-313.5 809,-332.5 928,-332.5 928,-313.5 809,-313.5"/>
<text text-anchor="middle" x="868.5" y="-320.5" font-family="Helvetica,sans-Serif" font-size="10.00">Cpl/Itc/MailboxServer.h</text>
</a>
</g>
</g>
<!-- Node22&#45;&gt;Node35 -->
<g id="edge54" class="edge"><title>Node22&#45;&gt;Node35</title>
<path fill="none" stroke="midnightblue" d="M720.432,-371.881C756.197,-360.315 810.236,-342.841 842.186,-332.509"/>
<polygon fill="midnightblue" stroke="midnightblue" points="719.301,-368.568 710.863,-374.975 721.455,-375.228 719.301,-368.568"/>
</g>
<!-- Node23&#45;&gt;Node17 -->
<g id="edge45" class="edge"><title>Node23&#45;&gt;Node17</title>
<path fill="none" stroke="midnightblue" d="M708.633,-308.266C732.356,-294.87 769.674,-274.076 802.5,-257 832.006,-241.651 866.848,-224.837 887.507,-215.002"/>
<polygon fill="midnightblue" stroke="midnightblue" points="706.627,-305.379 699.65,-313.352 710.076,-311.471 706.627,-305.379"/>
</g>
<!-- Node23&#45;&gt;Node18 -->
<g id="edge53" class="edge"><title>Node23&#45;&gt;Node18</title>
<path fill="none" stroke="midnightblue" d="M718.84,-309.936C741.968,-301.478 772.972,-289.49 799.5,-277 816.06,-269.203 818.271,-263.179 835.5,-257 874.395,-243.05 983.183,-225.32 1051.7,-215.007"/>
<polygon fill="midnightblue" stroke="midnightblue" points="717.343,-306.755 709.13,-313.449 719.725,-313.338 717.343,-306.755"/>
</g>
<!-- Node24 -->
<g id="node24" class="node"><title>Node24</title>
<g id="a_node24"><a xlink:href="_dm_2_periodic_scheduler_8h.html" target="_top" xlink:title=" ">
<polygon fill="white" stroke="black" points="84,-257.5 84,-276.5 223,-276.5 223,-257.5 84,-257.5"/>
<text text-anchor="middle" x="153.5" y="-264.5" font-family="Helvetica,sans-Serif" font-size="10.00">Cpl/Dm/PeriodicScheduler.h</text>
</a>
</g>
</g>
<!-- Node23&#45;&gt;Node24 -->
<g id="edge30" class="edge"><title>Node23&#45;&gt;Node24</title>
<path fill="none" stroke="midnightblue" d="M613.438,-315.24C524.382,-306.696 367.087,-291.365 232.5,-277 229.48,-276.678 226.396,-276.344 223.281,-276.004"/>
<polygon fill="midnightblue" stroke="midnightblue" points="613.137,-318.727 623.426,-316.197 613.805,-311.759 613.137,-318.727"/>
</g>
<!-- Node25 -->
<g id="node25" class="node"><title>Node25</title>
<g id="a_node25"><a xlink:href="_chunk_8h.html" target="_top" xlink:title=" ">
<polygon fill="white" stroke="black" points="495,-257.5 495,-276.5 612,-276.5 612,-257.5 495,-257.5"/>
<text text-anchor="middle" x="553.5" y="-264.5" font-family="Helvetica,sans-Serif" font-size="10.00">Cpl/Persistent/Chunk.h</text>
</a>
</g>
</g>
<!-- Node23&#45;&gt;Node25 -->
<g id="edge31" class="edge"><title>Node23&#45;&gt;Node25</title>
<path fill="none" stroke="midnightblue" d="M654.183,-309.503C629.624,-299.38 595.682,-285.388 574.16,-276.516"/>
<polygon fill="midnightblue" stroke="midnightblue" points="653.163,-312.868 663.743,-313.444 655.831,-306.397 653.163,-312.868"/>
</g>
<!-- Node31 -->
<g id="node31" class="node"><title>Node31</title>
<g id="a_node31"><a xlink:href="_persistent_2_record_8h.html" target="_top" xlink:title=" ">
<polygon fill="white" stroke="black" points="630.5,-257.5 630.5,-276.5 750.5,-276.5 750.5,-257.5 630.5,-257.5"/>
<text text-anchor="middle" x="690.5" y="-264.5" font-family="Helvetica,sans-Serif" font-size="10.00">Cpl/Persistent/Record.h</text>
</a>
</g>
</g>
<!-- Node23&#45;&gt;Node31 -->
<g id="edge41" class="edge"><title>Node23&#45;&gt;Node31</title>
<path fill="none" stroke="midnightblue" d="M686.6,-303.101C687.596,-294.136 688.738,-283.858 689.528,-276.751"/>
<polygon fill="midnightblue" stroke="midnightblue" points="683.117,-302.758 685.491,-313.083 690.074,-303.531 683.117,-302.758"/>
</g>
<!-- Node32 -->
<g id="node32" class="node"><title>Node32</title>
<g id="a_node32"><a xlink:href="_region_media_8h.html" target="_top" xlink:title=" ">
<polygon fill="white" stroke="black" points="241.5,-257.5 241.5,-276.5 387.5,-276.5 387.5,-257.5 241.5,-257.5"/>
<text text-anchor="middle" x="314.5" y="-264.5" font-family="Helvetica,sans-Serif" font-size="10.00">Cpl/Persistent/RegionMedia.h</text>
</a>
</g>
</g>
<!-- Node23&#45;&gt;Node32 -->
<g id="edge46" class="edge"><title>Node23&#45;&gt;Node32</title>
<path fill="none" stroke="midnightblue" d="M615.84,-311.979C545.949,-301.779 438.773,-286.137 372.853,-276.516"/>
<polygon fill="midnightblue" stroke="midnightblue" points="615.472,-315.463 625.872,-313.444 616.483,-308.536 615.472,-315.463"/>
</g>
<!-- Node25&#45;&gt;Node6 -->
<g id="edge32" class="edge"><title>Node25&#45;&gt;Node6</title>
<path fill="none" stroke="midnightblue" d="M612.619,-255.624C660.2,-246.636 722.753,-233.197 745.5,-221 763.234,-211.491 761.742,-201.14 778.5,-190 802.48,-174.06 833.034,-161.35 854.225,-153.558"/>
<polygon fill="midnightblue" stroke="midnightblue" points="611.901,-252.197 602.713,-257.472 613.185,-259.078 611.901,-252.197"/>
</g>
<!-- Node26 -->
<g id="node26" class="node"><title>Node26</title>
<g id="a_node26"><a xlink:href="_crc_chunk_8h.html" target="_top" xlink:title=" ">
<polygon fill="white" stroke="black" points="408.5,-196 408.5,-215 540.5,-215 540.5,-196 408.5,-196"/>
<text text-anchor="middle" x="474.5" y="-203" font-family="Helvetica,sans-Serif" font-size="10.00">Cpl/Persistent/CrcChunk.h</text>
</a>
</g>
</g>
<!-- Node25&#45;&gt;Node26 -->
<g id="edge33" class="edge"><title>Node25&#45;&gt;Node26</title>
<path fill="none" stroke="midnightblue" d="M533.974,-251.294C518.82,-239.88 498.343,-224.458 485.798,-215.009"/>
<polygon fill="midnightblue" stroke="midnightblue" points="532.088,-254.255 542.181,-257.475 536.299,-248.663 532.088,-254.255"/>
</g>
<!-- Node27 -->
<g id="node27" class="node"><title>Node27</title>
<g id="a_node27"><a xlink:href="_data_record_8h.html" target="_top" xlink:title=" ">
<polygon fill="white" stroke="black" points="596.5,-196 596.5,-215 736.5,-215 736.5,-196 596.5,-196"/>
<text text-anchor="middle" x="666.5" y="-203" font-family="Helvetica,sans-Serif" font-size="10.00">Cpl/Persistent/DataRecord.h</text>
</a>
</g>
</g>
<!-- Node25&#45;&gt;Node27 -->
<g id="edge34" class="edge"><title>Node25&#45;&gt;Node27</title>
<path fill="none" stroke="midnightblue" d="M578.736,-252.712C600.622,-241.188 631.641,-224.855 650.34,-215.009"/>
<polygon fill="midnightblue" stroke="midnightblue" points="576.908,-249.719 569.69,-257.475 580.169,-255.913 576.908,-249.719"/>
</g>
<!-- Node29 -->
<g id="node29" class="node"><title>Node29</title>
<g id="a_node29"><a xlink:href="_indexed_entry_record_8h.html" target="_top" xlink:title=" ">
<polygon fill="white" stroke="black" points="513,-67.5 513,-97.5 652,-97.5 652,-67.5 513,-67.5"/>
<text text-anchor="start" x="521" y="-85.5" font-family="Helvetica,sans-Serif" font-size="10.00">Cpl/Persistent/IndexedEntry</text>
<text text-anchor="middle" x="582.5" y="-74.5" font-family="Helvetica,sans-Serif" font-size="10.00">Record.h</text>
</a>
</g>
</g>
<!-- Node25&#45;&gt;Node29 -->
<g id="edge38" class="edge"><title>Node25&#45;&gt;Node29</title>
<path fill="none" stroke="midnightblue" d="M556.538,-246.881C562.385,-210.088 575.078,-130.206 580.244,-97.6947"/>
<polygon fill="midnightblue" stroke="midnightblue" points="553.012,-246.772 554.899,-257.198 559.925,-247.871 553.012,-246.772"/>
</g>
<!-- Node30 -->
<g id="node30" class="node"><title>Node30</title>
<g id="a_node30"><a xlink:href="_mirrored_chunk_8h.html" target="_top" xlink:title=" ">
<polygon fill="white" stroke="black" points="238.5,-196 238.5,-215 390.5,-215 390.5,-196 238.5,-196"/>
<text text-anchor="middle" x="314.5" y="-203" font-family="Helvetica,sans-Serif" font-size="10.00">Cpl/Persistent/MirroredChunk.h</text>
</a>
</g>
</g>
<!-- Node25&#45;&gt;Node30 -->
<g id="edge39" class="edge"><title>Node25&#45;&gt;Node30</title>
<path fill="none" stroke="midnightblue" d="M509.481,-255.041C463.081,-243.49 390.978,-225.539 348.679,-215.009"/>
<polygon fill="midnightblue" stroke="midnightblue" points="508.708,-258.456 519.257,-257.475 510.399,-251.663 508.708,-258.456"/>
</g>
<!-- Node28 -->
<g id="node28" class="node"><title>Node28</title>
<g id="a_node28"><a xlink:href="_index_record_8h.html" target="_top" xlink:title=" ">
<polygon fill="white" stroke="black" points="596.5,-134.5 596.5,-153.5 740.5,-153.5 740.5,-134.5 596.5,-134.5"/>
<text text-anchor="middle" x="668.5" y="-141.5" font-family="Helvetica,sans-Serif" font-size="10.00">Cpl/Persistent/IndexRecord.h</text>
</a>
</g>
</g>
<!-- Node27&#45;&gt;Node28 -->
<g id="edge35" class="edge"><title>Node27&#45;&gt;Node28</title>
<path fill="none" stroke="midnightblue" d="M667.128,-185.817C667.492,-174.996 667.932,-161.898 668.214,-153.509"/>
<polygon fill="midnightblue" stroke="midnightblue" points="663.625,-185.863 666.787,-195.975 670.621,-186.098 663.625,-185.863"/>
</g>
<!-- Node28&#45;&gt;Node29 -->
<g id="edge36" class="edge"><title>Node28&#45;&gt;Node29</title>
<path fill="none" stroke="midnightblue" d="M647.887,-128.739C634.219,-119.282 616.366,-106.93 602.768,-97.523"/>
<polygon fill="midnightblue" stroke="midnightblue" points="645.963,-131.664 656.178,-134.475 649.946,-125.907 645.963,-131.664"/>
</g>
<!-- Node29&#45;&gt;Node16 -->
<g id="edge37" class="edge"><title>Node29&#45;&gt;Node16</title>
<path fill="none" stroke="midnightblue" d="M662.238,-66.8528C873.838,-39.3665 1113.15,-25.3275 1228.86,-19.6188"/>
<polygon fill="midnightblue" stroke="midnightblue" points="661.643,-63.4008 652.183,-68.1718 662.554,-70.3413 661.643,-63.4008"/>
</g>
<!-- Node30&#45;&gt;Node8 -->
<g id="edge40" class="edge"><title>Node30&#45;&gt;Node8</title>
<path fill="none" stroke="midnightblue" d="M329.136,-188.148C355.121,-159.97 412.096,-101.93 470.5,-67 496.871,-51.2284 528.994,-39.02 555.398,-30.5605"/>
<polygon fill="midnightblue" stroke="midnightblue" points="326.244,-186.125 322.099,-195.876 331.42,-190.838 326.244,-186.125"/>
</g>
<!-- Node31&#45;&gt;Node6 -->
<g id="edge42" class="edge"><title>Node31&#45;&gt;Node6</title>
<path fill="none" stroke="midnightblue" d="M718.734,-253.097C736.338,-244.681 759.228,-233.053 778.5,-221 796.733,-209.597 846.251,-171.105 868.461,-153.688"/>
<polygon fill="midnightblue" stroke="midnightblue" points="717.108,-249.995 709.555,-257.425 720.093,-256.326 717.108,-249.995"/>
</g>
<!-- Node31&#45;&gt;Node17 -->
<g id="edge44" class="edge"><title>Node31&#45;&gt;Node17</title>
<path fill="none" stroke="midnightblue" d="M731.154,-254.749C772.925,-243.189 837.021,-225.451 874.753,-215.009"/>
<polygon fill="midnightblue" stroke="midnightblue" points="730.008,-251.435 721.304,-257.475 731.876,-258.181 730.008,-251.435"/>
</g>
<!-- Node31&#45;&gt;Node27 -->
<g id="edge43" class="edge"><title>Node31&#45;&gt;Node27</title>
<path fill="none" stroke="midnightblue" d="M683.238,-247.997C678.823,-237.05 673.387,-223.575 669.932,-215.009"/>
<polygon fill="midnightblue" stroke="midnightblue" points="680.075,-249.51 687.061,-257.475 686.566,-246.892 680.075,-249.51"/>
</g>
<!-- Node32&#45;&gt;Node26 -->
<g id="edge47" class="edge"><title>Node32&#45;&gt;Node26</title>
<path fill="none" stroke="midnightblue" d="M346.949,-253.933C378.047,-242.368 424.192,-225.208 451.618,-215.009"/>
<polygon fill="midnightblue" stroke="midnightblue" points="345.577,-250.709 337.424,-257.475 348.017,-257.27 345.577,-250.709"/>
</g>
<!-- Node32&#45;&gt;Node29 -->
<g id="edge50" class="edge"><title>Node32&#45;&gt;Node29</title>
<path fill="none" stroke="midnightblue" d="M271.374,-253.729C255.333,-246.84 238.787,-236.426 229.5,-221 222.393,-209.197 221.284,-201.06 229.5,-190 263.377,-144.394 419.98,-110.831 512.836,-94.5359"/>
<polygon fill="midnightblue" stroke="midnightblue" points="270.114,-256.994 280.701,-257.388 272.67,-250.478 270.114,-256.994"/>
</g>
<!-- Node32&#45;&gt;Node30 -->
<g id="edge51" class="edge"><title>Node32&#45;&gt;Node30</title>
<path fill="none" stroke="midnightblue" d="M314.5,-247.317C314.5,-236.496 314.5,-223.398 314.5,-215.009"/>
<polygon fill="midnightblue" stroke="midnightblue" points="311,-247.475 314.5,-257.475 318,-247.475 311,-247.475"/>
</g>
<!-- Node33 -->
<g id="node33" class="node"><title>Node33</title>
<g id="a_node33"><a xlink:href="_file_adapter_8h.html" target="_top" xlink:title=" ">
<polygon fill="white" stroke="black" points="0,-134.5 0,-153.5 139,-153.5 139,-134.5 0,-134.5"/>
<text text-anchor="middle" x="69.5" y="-141.5" font-family="Helvetica,sans-Serif" font-size="10.00">Cpl/Persistent/FileAdapter.h</text>
</a>
</g>
</g>
<!-- Node32&#45;&gt;Node33 -->
<g id="edge48" class="edge"><title>Node32&#45;&gt;Node33</title>
<path fill="none" stroke="midnightblue" d="M240.886,-256.061C163.452,-245.251 51.8594,-228.512 45.5,-221 28.513,-200.935 49.9613,-168.79 62.1497,-153.549"/>
<polygon fill="midnightblue" stroke="midnightblue" points="240.71,-259.57 251.097,-257.48 241.674,-252.637 240.71,-259.57"/>
</g>
<!-- Node34 -->
<g id="node34" class="node"><title>Node34</title>
<g id="a_node34"><a xlink:href="_null_region_media_8h.html" target="_top" xlink:title=" ">
<polygon fill="white" stroke="black" points="54.5,-190.5 54.5,-220.5 182.5,-220.5 182.5,-190.5 54.5,-190.5"/>
<text text-anchor="start" x="62.5" y="-208.5" font-family="Helvetica,sans-Serif" font-size="10.00">Cpl/Persistent/NullRegion</text>
<text text-anchor="middle" x="118.5" y="-197.5" font-family="Helvetica,sans-Serif" font-size="10.00">Media.h</text>
</a>
</g>
</g>
<!-- Node32&#45;&gt;Node34 -->
<g id="edge52" class="edge"><title>Node32&#45;&gt;Node34</title>
<path fill="none" stroke="midnightblue" d="M276.562,-254.483C244.606,-244.782 198.781,-230.871 164.693,-220.523"/>
<polygon fill="midnightblue" stroke="midnightblue" points="275.832,-257.919 286.418,-257.475 277.866,-251.221 275.832,-257.919"/>
</g>
<!-- Node33&#45;&gt;Node8 -->
<g id="edge49" class="edge"><title>Node33&#45;&gt;Node8</title>
<path fill="none" stroke="midnightblue" d="M107.867,-131.539C161.283,-115.805 261.222,-87.1752 347.5,-67 415.417,-51.1183 494.158,-36.2653 546.826,-26.8348"/>
<polygon fill="midnightblue" stroke="midnightblue" points="106.734,-128.224 98.1353,-134.414 108.717,-134.937 106.734,-128.224"/>
</g>
<!-- Node36 -->
<g id="node36" class="node"><title>Node36</title>
<g id="a_node36"><a xlink:href="_itc_2_periodic_scheduler_8h.html" target="_top" xlink:title=" ">
<polygon fill="white" stroke="black" points="845,-257.5 845,-276.5 980,-276.5 980,-257.5 845,-257.5"/>
<text text-anchor="middle" x="912.5" y="-264.5" font-family="Helvetica,sans-Serif" font-size="10.00">Cpl/Itc/PeriodicScheduler.h</text>
</a>
</g>
</g>
<!-- Node35&#45;&gt;Node36 -->
<g id="edge55" class="edge"><title>Node35&#45;&gt;Node36</title>
<path fill="none" stroke="midnightblue" d="M882.235,-305.144C889.901,-295.736 899.133,-284.405 905.369,-276.751"/>
<polygon fill="midnightblue" stroke="midnightblue" points="879.369,-303.12 875.766,-313.083 884.796,-307.541 879.369,-303.12"/>
</g>
<!-- Node37&#45;&gt;Node5 -->
<g id="edge57" class="edge"><title>Node37&#45;&gt;Node5</title>
<path fill="none" stroke="midnightblue" d="M1187.66,-549.704C1184.95,-541.632 1182.1,-531.961 1180.5,-523 1171.95,-474.994 1172.58,-416.184 1173.19,-394.273"/>
<polygon fill="midnightblue" stroke="midnightblue" points="1184.39,-550.948 1191.04,-559.199 1190.99,-548.604 1184.39,-550.948"/>
</g>
<!-- Node37&#45;&gt;Node11 -->
<g id="edge58" class="edge"><title>Node37&#45;&gt;Node11</title>
<path fill="none" stroke="midnightblue" d="M1180.19,-552.006C1156.69,-526.179 1107.9,-474.316 1061.5,-436 1041.83,-419.759 1016.99,-403.601 1001.68,-394.086"/>
<polygon fill="midnightblue" stroke="midnightblue" points="1177.59,-554.354 1186.89,-559.427 1182.78,-549.661 1177.59,-554.354"/>
</g>
<!-- Node37&#45;&gt;Node12 -->
<g id="edge61" class="edge"><title>Node37&#45;&gt;Node12</title>
<path fill="none" stroke="midnightblue" d="M1243.32,-562.894C1354.96,-551.211 1619.44,-523.493 1620.5,-523 1686.37,-492.49 1741.07,-419.51 1758.6,-394.268"/>
<polygon fill="midnightblue" stroke="midnightblue" points="1242.9,-559.419 1233.32,-563.94 1243.63,-566.381 1242.9,-559.419"/>
</g>
<!-- Node37&#45;&gt;Node14 -->
<g id="edge62" class="edge"><title>Node37&#45;&gt;Node14</title>
<path fill="none" stroke="midnightblue" d="M1203.35,-550.311C1210.24,-536.991 1220.31,-518.448 1230.5,-503 1251.25,-471.53 1257.36,-464.088 1282.5,-436 1296.43,-420.433 1314.16,-403.821 1324.9,-394.064"/>
<polygon fill="midnightblue" stroke="midnightblue" points="1200.17,-548.841 1198.76,-559.341 1206.41,-552.017 1200.17,-548.841"/>
</g>
<!-- Node37&#45;&gt;Node19 -->
<g id="edge63" class="edge"><title>Node37&#45;&gt;Node19</title>
<path fill="none" stroke="midnightblue" d="M1243.21,-558.056C1289.65,-548.243 1356.02,-533.262 1380.5,-523 1423.95,-504.785 1447.62,-508.183 1470.5,-467 1483.63,-443.374 1476.61,-409.635 1472.2,-394.025"/>
<polygon fill="midnightblue" stroke="midnightblue" points="1242.4,-554.649 1233.33,-560.128 1243.84,-561.5 1242.4,-554.649"/>
</g>
<!-- Node37&#45;&gt;Node21 -->
<g id="edge73" class="edge"><title>Node37&#45;&gt;Node21</title>
<path fill="none" stroke="midnightblue" d="M1243.41,-562.763C1350.81,-551.236 1597.93,-524.562 1599.5,-523 1632.72,-489.948 1624.62,-427.469 1618.87,-399.571"/>
<polygon fill="midnightblue" stroke="midnightblue" points="1242.72,-559.316 1233.15,-563.863 1243.47,-566.276 1242.72,-559.316"/>
</g>
<!-- Node38 -->
<g id="node38" class="node"><title>Node38</title>
<g id="a_node38"><a xlink:href="_listener_client_request_8h.html" target="_top" xlink:title=" ">
<polygon fill="white" stroke="black" points="914.5,-436.5 914.5,-466.5 1052.5,-466.5 1052.5,-436.5 914.5,-436.5"/>
<text text-anchor="start" x="922.5" y="-454.5" font-family="Helvetica,sans-Serif" font-size="10.00">Cpl/Io/Socket/ListenerClient</text>
<text text-anchor="middle" x="983.5" y="-443.5" font-family="Helvetica,sans-Serif" font-size="10.00">Request.h</text>
</a>
</g>
</g>
<!-- Node37&#45;&gt;Node38 -->
<g id="edge59" class="edge"><title>Node37&#45;&gt;Node38</title>
<path fill="none" stroke="midnightblue" d="M1149.85,-556.681C1124.43,-549.184 1092.56,-537.96 1066.5,-523 1039.28,-507.376 1012.46,-482.371 996.97,-466.721"/>
<polygon fill="midnightblue" stroke="midnightblue" points="1149.03,-560.086 1159.61,-559.47 1150.95,-553.356 1149.03,-560.086"/>
</g>
<!-- Node40 -->
<g id="node40" class="node"><title>Node40</title>
<g id="a_node40"><a xlink:href="_request_message_8h.html" target="_top" xlink:title=" ">
<polygon fill="white" stroke="black" points="1239.5,-503.5 1239.5,-522.5 1371.5,-522.5 1371.5,-503.5 1239.5,-503.5"/>
<text text-anchor="middle" x="1305.5" y="-510.5" font-family="Helvetica,sans-Serif" font-size="10.00">Cpl/Itc/RequestMessage.h</text>
</a>
</g>
</g>
<!-- Node37&#45;&gt;Node40 -->
<g id="edge64" class="edge"><title>Node37&#45;&gt;Node40</title>
<path fill="none" stroke="midnightblue" d="M1221.51,-554.862C1242.09,-544.849 1269.84,-531.346 1287.71,-522.655"/>
<polygon fill="midnightblue" stroke="midnightblue" points="1219.8,-551.802 1212.33,-559.324 1222.86,-558.097 1219.8,-551.802"/>
</g>
<!-- Node39 -->
<g id="node39" class="node"><title>Node39</title>
<g id="a_node39"><a xlink:href="_listener_client_sync_8h.html" target="_top" xlink:title=" ">
<polygon fill="white" stroke="black" points="747.5,-369.5 747.5,-399.5 885.5,-399.5 885.5,-369.5 747.5,-369.5"/>
<text text-anchor="start" x="755.5" y="-387.5" font-family="Helvetica,sans-Serif" font-size="10.00">Cpl/Io/Socket/ListenerClient</text>
<text text-anchor="middle" x="816.5" y="-376.5" font-family="Helvetica,sans-Serif" font-size="10.00">Sync.h</text>
</a>
</g>
</g>
<!-- Node38&#45;&gt;Node39 -->
<g id="edge60" class="edge"><title>Node38&#45;&gt;Node39</title>
<path fill="none" stroke="midnightblue" d="M937.72,-432.682C910.937,-422.257 877.598,-409.281 852.666,-399.577"/>
<polygon fill="midnightblue" stroke="midnightblue" points="936.675,-436.03 947.263,-436.396 939.214,-429.507 936.675,-436.03"/>
</g>
<!-- Node40&#45;&gt;Node4 -->
<g id="edge71" class="edge"><title>Node40&#45;&gt;Node4</title>
<path fill="none" stroke="midnightblue" d="M1322.1,-496.325C1334.07,-485.02 1349.77,-470.193 1359.49,-461.009"/>
<polygon fill="midnightblue" stroke="midnightblue" points="1319.39,-494.064 1314.53,-503.475 1324.2,-499.153 1319.39,-494.064"/>
</g>
<!-- Node40&#45;&gt;Node5 -->
<g id="edge65" class="edge"><title>Node40&#45;&gt;Node5</title>
<path fill="none" stroke="midnightblue" d="M1288.99,-496.174C1260.88,-469.238 1204.65,-415.352 1182.64,-394.256"/>
<polygon fill="midnightblue" stroke="midnightblue" points="1286.79,-498.913 1296.43,-503.305 1291.63,-493.859 1286.79,-498.913"/>
</g>
<!-- Node40&#45;&gt;Node11 -->
<g id="edge66" class="edge"><title>Node40&#45;&gt;Node11</title>
<path fill="none" stroke="midnightblue" d="M1274.02,-499.478C1209.58,-473.844 1064.07,-415.961 1009.09,-394.088"/>
<polygon fill="midnightblue" stroke="midnightblue" points="1273.06,-502.861 1283.64,-503.305 1275.64,-496.357 1273.06,-502.861"/>
</g>
<!-- Node40&#45;&gt;Node12 -->
<g id="edge68" class="edge"><title>Node40&#45;&gt;Node12</title>
<path fill="none" stroke="midnightblue" d="M1362.01,-501.566C1404.5,-493.316 1464.01,-480.901 1515.5,-467 1599.59,-444.295 1697.21,-409.954 1741.06,-394.09"/>
<polygon fill="midnightblue" stroke="midnightblue" points="1361.29,-498.141 1352.13,-503.469 1362.61,-505.015 1361.29,-498.141"/>
</g>
<!-- Node40&#45;&gt;Node14 -->
<g id="edge69" class="edge"><title>Node40&#45;&gt;Node14</title>
<path fill="none" stroke="midnightblue" d="M1296.19,-494.224C1289.27,-478.531 1282.18,-455.226 1289.5,-436 1296.19,-418.442 1312.09,-403.105 1323.08,-394.071"/>
<polygon fill="midnightblue" stroke="midnightblue" points="1293.08,-495.822 1300.56,-503.317 1299.38,-492.788 1293.08,-495.822"/>
</g>
<!-- Node40&#45;&gt;Node19 -->
<g id="edge70" class="edge"><title>Node40&#45;&gt;Node19</title>
<path fill="none" stroke="midnightblue" d="M1381.62,-502.476C1405.5,-495.992 1430.13,-485.139 1447.5,-467 1466.96,-446.677 1469.61,-410.995 1469.71,-394.424"/>
<polygon fill="midnightblue" stroke="midnightblue" points="1380.68,-499.105 1371.82,-504.915 1382.36,-505.898 1380.68,-499.105"/>
</g>
<!-- Node40&#45;&gt;Node21 -->
<g id="edge72" class="edge"><title>Node40&#45;&gt;Node21</title>
<path fill="none" stroke="midnightblue" d="M1357.7,-501.232C1390.71,-493.582 1433.9,-482.008 1470.5,-467 1516.72,-448.045 1566.69,-417.49 1594.23,-399.669"/>
<polygon fill="midnightblue" stroke="midnightblue" points="1356.78,-497.852 1347.8,-503.48 1358.33,-504.678 1356.78,-497.852"/>
</g>
<!-- Node40&#45;&gt;Node38 -->
<g id="edge67" class="edge"><title>Node40&#45;&gt;Node38</title>
<path fill="none" stroke="midnightblue" d="M1249.5,-501.652C1194.81,-491.547 1111.46,-476.145 1052.66,-465.28"/>
<polygon fill="midnightblue" stroke="midnightblue" points="1248.9,-505.1 1259.37,-503.475 1250.17,-498.216 1248.9,-505.1"/>
</g>
<!-- Node41&#45;&gt;Node40 -->
<g id="edge75" class="edge"><title>Node41&#45;&gt;Node40</title>
<path fill="none" stroke="midnightblue" d="M1339.47,-551.431C1330.88,-541.967 1320.46,-530.483 1313.44,-522.751"/>
<polygon fill="midnightblue" stroke="midnightblue" points="1337.1,-554.029 1346.41,-559.083 1342.28,-549.325 1337.1,-554.029"/>
</g>
</g>
</svg>
