<?xml version="1.0" encoding="UTF-8" standalone="no"?>
<!DOCTYPE svg PUBLIC "-//W3C//DTD SVG 1.1//EN"
 "http://www.w3.org/Graphics/SVG/1.1/DTD/svg11.dtd">
<!-- Generated by graphviz version 2.38.0 (20140413.2041)
 -->
<!-- Title: Cpl/Dm/ModelDatabase.h Pages: 1 -->
<svg width="590pt" height="308pt"
 viewBox="0.00 0.00 590.00 308.00" xmlns="http://www.w3.org/2000/svg" xmlns:xlink="http://www.w3.org/1999/xlink">
<g id="graph0" class="graph" transform="scale(1 1) rotate(0) translate(4 304)">
<title>Cpl/Dm/ModelDatabase.h</title>
<polygon fill="white" stroke="none" points="-4,4 -4,-304 586,-304 586,4 -4,4"/>
<!-- Node1 -->
<g id="node1" class="node"><title>Node1</title>
<g id="a_node1"><a xlink:title=" ">
<polygon fill="#bfbfbf" stroke="black" points="263.5,-280.5 263.5,-299.5 391.5,-299.5 391.5,-280.5 263.5,-280.5"/>
<text text-anchor="middle" x="327.5" y="-287.5" font-family="Helvetica,sans-Serif" font-size="10.00">Cpl/Dm/ModelDatabase.h</text>
</a>
</g>
</g>
<!-- Node2 -->
<g id="node2" class="node"><title>Node2</title>
<g id="a_node2"><a xlink:title=" ">
<polygon fill="white" stroke="#bfbfbf" points="0,-0.5 0,-19.5 85,-19.5 85,-0.5 0,-0.5"/>
<text text-anchor="middle" x="42.5" y="-7.5" font-family="Helvetica,sans-Serif" font-size="10.00">colony_config.h</text>
</a>
</g>
</g>
<!-- Node1&#45;&gt;Node2 -->
<g id="edge1" class="edge"><title>Node1&#45;&gt;Node2</title>
<path fill="none" stroke="midnightblue" d="M278.009,-280.486C196.152,-264.985 41.5,-229.073 41.5,-179 41.5,-179 41.5,-179 41.5,-121 41.5,-88.9467 41.9298,-51.6417 42.2259,-29.7484"/>
<polygon fill="midnightblue" stroke="midnightblue" points="45.7281,-29.6058 42.3693,-19.5575 38.7288,-29.5073 45.7281,-29.6058"/>
</g>
<!-- Node3 -->
<g id="node3" class="node"><title>Node3</title>
<g id="a_node3"><a xlink:href="_model_database_api_8h.html" target="_top" xlink:title=" ">
<polygon fill="white" stroke="black" points="149.5,-224.5 149.5,-243.5 291.5,-243.5 291.5,-224.5 149.5,-224.5"/>
<text text-anchor="middle" x="220.5" y="-231.5" font-family="Helvetica,sans-Serif" font-size="10.00">Cpl/Dm/ModelDatabaseApi.h</text>
</a>
</g>
</g>
<!-- Node1&#45;&gt;Node3 -->
<g id="edge2" class="edge"><title>Node1&#45;&gt;Node3</title>
<path fill="none" stroke="midnightblue" d="M310.309,-280.324C293.149,-271.664 266.554,-258.242 246.753,-248.249"/>
<polygon fill="midnightblue" stroke="midnightblue" points="248.153,-245.035 237.649,-243.655 244.999,-251.285 248.153,-245.035"/>
</g>
<!-- Node13 -->
<g id="node13" class="node"><title>Node13</title>
<g id="a_node13"><a xlink:href="_mutex_8h.html" target="_top" xlink:title=" ">
<polygon fill="white" stroke="black" points="278.5,-168.5 278.5,-187.5 384.5,-187.5 384.5,-168.5 278.5,-168.5"/>
<text text-anchor="middle" x="331.5" y="-175.5" font-family="Helvetica,sans-Serif" font-size="10.00">Cpl/System/Mutex.h</text>
</a>
</g>
</g>
<!-- Node1&#45;&gt;Node13 -->
<g id="edge14" class="edge"><title>Node1&#45;&gt;Node13</title>
<path fill="none" stroke="midnightblue" d="M327.814,-280.368C328.459,-262.617 329.948,-221.666 330.824,-197.597"/>
<polygon fill="midnightblue" stroke="midnightblue" points="334.322,-197.712 331.188,-187.591 327.326,-197.458 334.322,-197.712"/>
</g>
<!-- Node14 -->
<g id="node14" class="node"><title>Node14</title>
<g id="a_node14"><a xlink:href="_s_list_8h.html" target="_top" xlink:title=" ">
<polygon fill="white" stroke="black" points="356,-224.5 356,-243.5 465,-243.5 465,-224.5 356,-224.5"/>
<text text-anchor="middle" x="410.5" y="-231.5" font-family="Helvetica,sans-Serif" font-size="10.00">Cpl/Container/SList.h</text>
</a>
</g>
</g>
<!-- Node1&#45;&gt;Node14 -->
<g id="edge16" class="edge"><title>Node1&#45;&gt;Node14</title>
<path fill="none" stroke="midnightblue" d="M340.835,-280.324C353.662,-271.979 373.285,-259.212 388.44,-249.352"/>
<polygon fill="midnightblue" stroke="midnightblue" points="390.724,-252.042 397.198,-243.655 386.907,-246.174 390.724,-252.042"/>
</g>
<!-- Node16 -->
<g id="node16" class="node"><title>Node16</title>
<g id="a_node16"><a xlink:href="_arduino_8h_source.html" target="_top" xlink:title=" ">
<polygon fill="white" stroke="black" points="483,-224.5 483,-243.5 582,-243.5 582,-224.5 483,-224.5"/>
<text text-anchor="middle" x="532.5" y="-231.5" font-family="Helvetica,sans-Serif" font-size="10.00">Cpl/Json/Arduino.h</text>
</a>
</g>
</g>
<!-- Node1&#45;&gt;Node16 -->
<g id="edge18" class="edge"><title>Node1&#45;&gt;Node16</title>
<path fill="none" stroke="midnightblue" d="M359.983,-280.444C395.22,-271.162 451.604,-256.309 490.259,-246.127"/>
<polygon fill="midnightblue" stroke="midnightblue" points="491.391,-249.448 500.169,-243.516 489.607,-242.679 491.391,-249.448"/>
</g>
<!-- Node4 -->
<g id="node4" class="node"><title>Node4</title>
<g id="a_node4"><a xlink:href="_text_2_string_8h.html" target="_top" xlink:title=" ">
<polygon fill="white" stroke="black" points="170.5,-168.5 170.5,-187.5 260.5,-187.5 260.5,-168.5 170.5,-168.5"/>
<text text-anchor="middle" x="215.5" y="-175.5" font-family="Helvetica,sans-Serif" font-size="10.00">Cpl/Text/String.h</text>
</a>
</g>
</g>
<!-- Node3&#45;&gt;Node4 -->
<g id="edge3" class="edge"><title>Node3&#45;&gt;Node4</title>
<path fill="none" stroke="midnightblue" d="M219.674,-224.083C219.019,-217.006 218.08,-206.861 217.258,-197.986"/>
<polygon fill="midnightblue" stroke="midnightblue" points="220.717,-197.386 216.31,-187.751 213.747,-198.031 220.717,-197.386"/>
</g>
<!-- Node5 -->
<g id="node5" class="node"><title>Node5</title>
<g id="a_node5"><a xlink:title=" ">
<polygon fill="white" stroke="#bfbfbf" points="344,-56.5 344,-75.5 421,-75.5 421,-56.5 344,-56.5"/>
<text text-anchor="middle" x="382.5" y="-63.5" font-family="Helvetica,sans-Serif" font-size="10.00">colony_map.h</text>
</a>
</g>
</g>
<!-- Node4&#45;&gt;Node5 -->
<g id="edge4" class="edge"><title>Node4&#45;&gt;Node5</title>
<path fill="none" stroke="midnightblue" d="M246.836,-168.452C269.971,-161.168 301.479,-149.134 325.5,-132 343.943,-118.844 360.453,-98.6061 370.898,-84.2102"/>
<polygon fill="midnightblue" stroke="midnightblue" points="373.971,-85.9244 376.845,-75.7269 368.239,-81.906 373.971,-85.9244"/>
</g>
<!-- Node6 -->
<g id="node6" class="node"><title>Node6</title>
<g id="a_node6"><a xlink:href="_key_8h.html" target="_top" xlink:title=" ">
<polygon fill="white" stroke="black" points="212.5,-112.5 212.5,-131.5 316.5,-131.5 316.5,-112.5 212.5,-112.5"/>
<text text-anchor="middle" x="264.5" y="-119.5" font-family="Helvetica,sans-Serif" font-size="10.00">Cpl/Container/Key.h</text>
</a>
</g>
</g>
<!-- Node4&#45;&gt;Node6 -->
<g id="edge5" class="edge"><title>Node4&#45;&gt;Node6</title>
<path fill="none" stroke="midnightblue" d="M223.591,-168.083C230.655,-160.298 241.088,-148.801 249.649,-139.367"/>
<polygon fill="midnightblue" stroke="midnightblue" points="252.431,-141.509 256.559,-131.751 247.247,-136.805 252.431,-141.509"/>
</g>
<!-- Node11 -->
<g id="node11" class="node"><title>Node11</title>
<g id="a_node11"><a xlink:title=" ">
<polygon fill="white" stroke="#bfbfbf" points="70.5,-112.5 70.5,-131.5 122.5,-131.5 122.5,-112.5 70.5,-112.5"/>
<text text-anchor="middle" x="96.5" y="-119.5" font-family="Helvetica,sans-Serif" font-size="10.00">stdarg.h</text>
</a>
</g>
</g>
<!-- Node4&#45;&gt;Node11 -->
<g id="edge12" class="edge"><title>Node4&#45;&gt;Node11</title>
<path fill="none" stroke="midnightblue" d="M196.644,-168.444C177.234,-159.636 146.77,-145.812 124.535,-135.722"/>
<polygon fill="midnightblue" stroke="midnightblue" points="125.82,-132.462 115.268,-131.516 122.928,-138.836 125.82,-132.462"/>
</g>
<!-- Node12 -->
<g id="node12" class="node"><title>Node12</title>
<g id="a_node12"><a xlink:title=" ">
<polygon fill="white" stroke="#bfbfbf" points="140.5,-112.5 140.5,-131.5 194.5,-131.5 194.5,-112.5 140.5,-112.5"/>
<text text-anchor="middle" x="167.5" y="-119.5" font-family="Helvetica,sans-Serif" font-size="10.00">iostream</text>
</a>
</g>
</g>
<!-- Node4&#45;&gt;Node12 -->
<g id="edge13" class="edge"><title>Node4&#45;&gt;Node12</title>
<path fill="none" stroke="midnightblue" d="M207.574,-168.083C200.654,-160.298 190.435,-148.801 182.048,-139.367"/>
<polygon fill="midnightblue" stroke="midnightblue" points="184.538,-136.9 175.279,-131.751 179.306,-141.55 184.538,-136.9"/>
</g>
<!-- Node6&#45;&gt;Node5 -->
<g id="edge11" class="edge"><title>Node6&#45;&gt;Node5</title>
<path fill="none" stroke="midnightblue" d="M283.197,-112.444C302.444,-103.636 332.652,-89.8116 354.7,-79.722"/>
<polygon fill="midnightblue" stroke="midnightblue" points="356.253,-82.8603 363.89,-75.5164 353.34,-76.4951 356.253,-82.8603"/>
</g>
<!-- Node7 -->
<g id="node7" class="node"><title>Node7</title>
<g id="a_node7"><a xlink:href="_fatal_error_8h.html" target="_top" xlink:title=" ">
<polygon fill="white" stroke="black" points="69.5,-56.5 69.5,-75.5 191.5,-75.5 191.5,-56.5 69.5,-56.5"/>
<text text-anchor="middle" x="130.5" y="-63.5" font-family="Helvetica,sans-Serif" font-size="10.00">Cpl/System/FatalError.h</text>
</a>
</g>
</g>
<!-- Node6&#45;&gt;Node7 -->
<g id="edge6" class="edge"><title>Node6&#45;&gt;Node7</title>
<path fill="none" stroke="midnightblue" d="M243.267,-112.444C221.116,-103.517 186.181,-89.4387 161.064,-79.3168"/>
<polygon fill="midnightblue" stroke="midnightblue" points="162.217,-76.0079 151.633,-75.5164 159.6,-82.5006 162.217,-76.0079"/>
</g>
<!-- Node9 -->
<g id="node9" class="node"><title>Node9</title>
<g id="a_node9"><a xlink:title=" ">
<polygon fill="white" stroke="#bfbfbf" points="210,-56.5 210,-75.5 259,-75.5 259,-56.5 210,-56.5"/>
<text text-anchor="middle" x="234.5" y="-63.5" font-family="Helvetica,sans-Serif" font-size="10.00">stdint.h</text>
</a>
</g>
</g>
<!-- Node6&#45;&gt;Node9 -->
<g id="edge9" class="edge"><title>Node6&#45;&gt;Node9</title>
<path fill="none" stroke="midnightblue" d="M259.546,-112.083C255.396,-104.613 249.347,-93.7244 244.233,-84.5199"/>
<polygon fill="midnightblue" stroke="midnightblue" points="247.278,-82.7929 239.362,-75.7511 241.159,-86.1924 247.278,-82.7929"/>
</g>
<!-- Node10 -->
<g id="node10" class="node"><title>Node10</title>
<g id="a_node10"><a xlink:title=" ">
<polygon fill="white" stroke="#bfbfbf" points="277,-56.5 277,-75.5 326,-75.5 326,-56.5 277,-56.5"/>
<text text-anchor="middle" x="301.5" y="-63.5" font-family="Helvetica,sans-Serif" font-size="10.00">string.h</text>
</a>
</g>
</g>
<!-- Node6&#45;&gt;Node10 -->
<g id="edge10" class="edge"><title>Node6&#45;&gt;Node10</title>
<path fill="none" stroke="midnightblue" d="M270.61,-112.083C275.782,-104.534 283.346,-93.4948 289.694,-84.2298"/>
<polygon fill="midnightblue" stroke="midnightblue" points="292.739,-85.9787 295.504,-75.7511 286.964,-82.0221 292.739,-85.9787"/>
</g>
<!-- Node7&#45;&gt;Node2 -->
<g id="edge8" class="edge"><title>Node7&#45;&gt;Node2</title>
<path fill="none" stroke="midnightblue" d="M116.361,-56.324C102.634,-47.9002 81.5637,-34.9709 65.4357,-25.0741"/>
<polygon fill="midnightblue" stroke="midnightblue" points="66.9574,-21.9016 56.6036,-19.6545 63.2963,-27.8678 66.9574,-21.9016"/>
</g>
<!-- Node8 -->
<g id="node8" class="node"><title>Node8</title>
<g id="a_node8"><a xlink:title=" ">
<polygon fill="white" stroke="#bfbfbf" points="104.5,-0.5 104.5,-19.5 156.5,-19.5 156.5,-0.5 104.5,-0.5"/>
<text text-anchor="middle" x="130.5" y="-7.5" font-family="Helvetica,sans-Serif" font-size="10.00">stddef.h</text>
</a>
</g>
</g>
<!-- Node7&#45;&gt;Node8 -->
<g id="edge7" class="edge"><title>Node7&#45;&gt;Node8</title>
<path fill="none" stroke="midnightblue" d="M130.5,-56.083C130.5,-49.0059 130.5,-38.8611 130.5,-29.9865"/>
<polygon fill="midnightblue" stroke="midnightblue" points="134,-29.751 130.5,-19.7511 127,-29.7511 134,-29.751"/>
</g>
<!-- Node13&#45;&gt;Node5 -->
<g id="edge15" class="edge"><title>Node13&#45;&gt;Node5</title>
<path fill="none" stroke="midnightblue" d="M337.384,-168.307C343.227,-159.437 352.198,-145.145 358.5,-132 365.813,-116.746 372.334,-98.6371 376.726,-85.4124"/>
<polygon fill="midnightblue" stroke="midnightblue" points="380.145,-86.214 379.885,-75.6224 373.483,-84.0642 380.145,-86.214"/>
</g>
<!-- Node15 -->
<g id="node15" class="node"><title>Node15</title>
<g id="a_node15"><a xlink:href="_item_8h.html" target="_top" xlink:title=" ">
<polygon fill="white" stroke="black" points="402.5,-168.5 402.5,-187.5 508.5,-187.5 508.5,-168.5 402.5,-168.5"/>
<text text-anchor="middle" x="455.5" y="-175.5" font-family="Helvetica,sans-Serif" font-size="10.00">Cpl/Container/Item.h</text>
</a>
</g>
</g>
<!-- Node14&#45;&gt;Node15 -->
<g id="edge17" class="edge"><title>Node14&#45;&gt;Node15</title>
<path fill="none" stroke="midnightblue" d="M417.931,-224.083C424.353,-216.377 433.806,-205.033 441.622,-195.653"/>
<polygon fill="midnightblue" stroke="midnightblue" points="444.494,-197.674 448.207,-187.751 439.117,-193.193 444.494,-197.674"/>
</g>
</g>
</svg>
