<?xml version="1.0" encoding="UTF-8" standalone="no"?>
<!DOCTYPE svg PUBLIC "-//W3C//DTD SVG 1.1//EN"
 "http://www.w3.org/Graphics/SVG/1.1/DTD/svg11.dtd">
<!-- Generated by graphviz version 10.0.1 (20240210.2158)
 -->
<!-- Title: Storm/Dm/MpEquipmentConfig.h Pages: 1 -->
<svg width="718pt" height="232pt"
 viewBox="0.00 0.00 718.38 232.00" xmlns="http://www.w3.org/2000/svg" xmlns:xlink="http://www.w3.org/1999/xlink">
<g id="graph0" class="graph" transform="scale(1 1) rotate(0) translate(4 228)">
<title>Storm/Dm/MpEquipmentConfig.h</title>
<!-- Node1 -->
<g id="Node000001" class="node">
<title>Node1</title>
<g id="a_Node000001"><a xlink:title=" ">
<polygon fill="#999999" stroke="#666666" points="295.5,-224 137,-224 137,-204 295.5,-204 295.5,-224"/>
<text text-anchor="middle" x="216.25" y="-210.5" font-family="Helvetica,sans-Serif" font-size="10.00">Storm/Dm/MpEquipmentConfig.h</text>
</a>
</g>
</g>
<!-- Node2 -->
<g id="Node000002" class="node">
<title>Node2</title>
<g id="a_Node000002"><a xlink:href="_component_2_operating_mode_8h.html" target="_top" xlink:title=" ">
<polygon fill="white" stroke="#666666" points="202.12,-168 62.38,-168 62.38,-136 202.12,-136 202.12,-168"/>
<text text-anchor="start" x="70.38" y="-154.5" font-family="Helvetica,sans-Serif" font-size="10.00">Storm/Component/Operating</text>
<text text-anchor="middle" x="132.25" y="-142.5" font-family="Helvetica,sans-Serif" font-size="10.00">Mode.h</text>
</a>
</g>
</g>
<!-- Node1&#45;&gt;Node2 -->
<g id="edge1_Node000001_Node000002" class="edge">
<title>Node1&#45;&gt;Node2</title>
<g id="a_edge1_Node000001_Node000002"><a xlink:title=" ">
<path fill="none" stroke="#63b8ff" d="M193.91,-197.04C181.47,-188.16 166.07,-177.16 153.77,-168.37"/>
<polygon fill="#63b8ff" stroke="#63b8ff" points="191.72,-199.78 201.89,-202.75 195.79,-194.08 191.72,-199.78"/>
</a>
</g>
</g>
<!-- Node4 -->
<g id="Node000004" class="node">
<title>Node4</title>
<g id="a_Node000004"><a xlink:href="_model_points_8h.html" target="_top" xlink:title="This file defines all of the Model Points for the Thermostat Application.">
<polygon fill="white" stroke="#666666" points="438.88,-162 279.62,-162 279.62,-142 438.88,-142 438.88,-162"/>
<text text-anchor="middle" x="359.25" y="-148.5" font-family="Helvetica,sans-Serif" font-size="10.00">Storm/Thermostat/ModelPoints.h</text>
</a>
</g>
</g>
<!-- Node1&#45;&gt;Node4 -->
<g id="edge3_Node000001_Node000004" class="edge">
<title>Node1&#45;&gt;Node4</title>
<g id="a_edge3_Node000001_Node000004"><a xlink:title=" ">
<path fill="none" stroke="#63b8ff" d="M249.08,-199.23C276.05,-187.91 313.51,-172.19 337.06,-162.31"/>
<polygon fill="#63b8ff" stroke="#63b8ff" points="247.86,-195.94 239.99,-203.04 250.56,-202.4 247.86,-195.94"/>
</a>
</g>
</g>
<!-- Node3 -->
<g id="Node000003" class="node">
<title>Node3</title>
<g id="a_Node000003"><a xlink:href="_algorithm_8h.html" target="_top" xlink:title=" ">
<polygon fill="white" stroke="#666666" points="146.5,-94 0,-94 0,-74 146.5,-74 146.5,-94"/>
<text text-anchor="middle" x="73.25" y="-80.5" font-family="Helvetica,sans-Serif" font-size="10.00">Storm/Thermostat/Algorithm.h</text>
</a>
</g>
</g>
<!-- Node2&#45;&gt;Node3 -->
<g id="edge2_Node000002_Node000003" class="edge">
<title>Node2&#45;&gt;Node3</title>
<g id="a_edge2_Node000002_Node000003"><a xlink:title=" ">
<path fill="none" stroke="#63b8ff" d="M111.13,-127.37C100.91,-115.95 89.23,-102.88 81.58,-94.32"/>
<polygon fill="#63b8ff" stroke="#63b8ff" points="108.28,-129.44 117.56,-134.56 113.5,-124.78 108.28,-129.44"/>
</a>
</g>
</g>
<!-- Node5 -->
<g id="Node000005" class="node">
<title>Node5</title>
<g id="a_Node000005"><a xlink:href="_installer_record_8h_source.html" target="_top" xlink:title=" ">
<polygon fill="white" stroke="#666666" points="282.25,-100 164.25,-100 164.25,-68 282.25,-68 282.25,-100"/>
<text text-anchor="start" x="172.25" y="-86.5" font-family="Helvetica,sans-Serif" font-size="10.00">Storm/Thermostat/Main</text>
<text text-anchor="middle" x="223.25" y="-74.5" font-family="Helvetica,sans-Serif" font-size="10.00">/InstallerRecord.h</text>
</a>
</g>
</g>
<!-- Node4&#45;&gt;Node5 -->
<g id="edge4_Node000004_Node000005" class="edge">
<title>Node4&#45;&gt;Node5</title>
<g id="a_edge4_Node000004_Node000005"><a xlink:title=" ">
<path fill="none" stroke="#63b8ff" d="M329.66,-136.64C307.62,-125.95 277.58,-111.37 255.04,-100.43"/>
<polygon fill="#63b8ff" stroke="#63b8ff" points="327.88,-139.67 338.4,-140.88 330.93,-133.37 327.88,-139.67"/>
</a>
</g>
</g>
<!-- Node7 -->
<g id="Node000007" class="node">
<title>Node7</title>
<g id="a_Node000007"><a xlink:href="_run_time_record_8h_source.html" target="_top" xlink:title=" ">
<polygon fill="white" stroke="#666666" points="418.25,-100 300.25,-100 300.25,-68 418.25,-68 418.25,-100"/>
<text text-anchor="start" x="308.25" y="-86.5" font-family="Helvetica,sans-Serif" font-size="10.00">Storm/Thermostat/Main</text>
<text text-anchor="middle" x="359.25" y="-74.5" font-family="Helvetica,sans-Serif" font-size="10.00">/RunTimeRecord.h</text>
</a>
</g>
</g>
<!-- Node4&#45;&gt;Node7 -->
<g id="edge6_Node000004_Node000007" class="edge">
<title>Node4&#45;&gt;Node7</title>
<g id="a_edge6_Node000004_Node000007"><a xlink:title=" ">
<path fill="none" stroke="#63b8ff" d="M359.25,-130.1C359.25,-120.43 359.25,-109.16 359.25,-100.3"/>
<polygon fill="#63b8ff" stroke="#63b8ff" points="355.75,-130.03 359.25,-140.03 362.75,-130.03 355.75,-130.03"/>
</a>
</g>
</g>
<!-- Node8 -->
<g id="Node000008" class="node">
<title>Node8</title>
<g id="a_Node000008"><a xlink:href="_user_record_8h_source.html" target="_top" xlink:title=" ">
<polygon fill="white" stroke="#666666" points="554.25,-100 436.25,-100 436.25,-68 554.25,-68 554.25,-100"/>
<text text-anchor="start" x="444.25" y="-86.5" font-family="Helvetica,sans-Serif" font-size="10.00">Storm/Thermostat/Main</text>
<text text-anchor="middle" x="495.25" y="-74.5" font-family="Helvetica,sans-Serif" font-size="10.00">/UserRecord.h</text>
</a>
</g>
</g>
<!-- Node4&#45;&gt;Node8 -->
<g id="edge8_Node000004_Node000008" class="edge">
<title>Node4&#45;&gt;Node8</title>
<g id="a_edge8_Node000004_Node000008"><a xlink:title=" ">
<path fill="none" stroke="#63b8ff" d="M388.84,-136.64C410.88,-125.95 440.92,-111.37 463.46,-100.43"/>
<polygon fill="#63b8ff" stroke="#63b8ff" points="387.57,-133.37 380.1,-140.88 390.62,-139.67 387.57,-133.37"/>
</a>
</g>
</g>
<!-- Node9 -->
<g id="Node000009" class="node">
<title>Node9</title>
<g id="a_Node000009"><a xlink:href="_event_monitor_8h_source.html" target="_top" xlink:title=" ">
<polygon fill="white" stroke="#666666" points="710.38,-100 572.12,-100 572.12,-68 710.38,-68 710.38,-100"/>
<text text-anchor="start" x="580.12" y="-86.5" font-family="Helvetica,sans-Serif" font-size="10.00">Storm/Thermostat/Ui</text>
<text text-anchor="middle" x="641.25" y="-74.5" font-family="Helvetica,sans-Serif" font-size="10.00">/PicoDisplay/EventMonitor.h</text>
</a>
</g>
</g>
<!-- Node4&#45;&gt;Node9 -->
<g id="edge10_Node000004_Node000009" class="edge">
<title>Node4&#45;&gt;Node9</title>
<g id="a_edge10_Node000004_Node000009"><a xlink:title=" ">
<path fill="none" stroke="#63b8ff" d="M410.6,-138.98C456.76,-128.18 524.83,-112.25 575.06,-100.49"/>
<polygon fill="#63b8ff" stroke="#63b8ff" points="410.07,-135.51 401.13,-141.2 411.66,-142.33 410.07,-135.51"/>
</a>
</g>
</g>
<!-- Node6 -->
<g id="Node000006" class="node">
<title>Node6</title>
<g id="a_Node000006"><a xlink:href="statics___8h.html" target="_top" xlink:title="This file defines/creates persistent records and record server for the Thermostat simulation.">
<polygon fill="white" stroke="#666666" points="418.25,-32 300.25,-32 300.25,0 418.25,0 418.25,-32"/>
<text text-anchor="start" x="308.25" y="-18.5" font-family="Helvetica,sans-Serif" font-size="10.00">Storm/Thermostat/Main</text>
<text text-anchor="middle" x="359.25" y="-6.5" font-family="Helvetica,sans-Serif" font-size="10.00">/_simulation/statics_.h</text>
</a>
</g>
</g>
<!-- Node5&#45;&gt;Node6 -->
<g id="edge5_Node000005_Node000006" class="edge">
<title>Node5&#45;&gt;Node6</title>
<g id="a_edge5_Node000005_Node000006"><a xlink:title=" ">
<path fill="none" stroke="#63b8ff" d="M265.27,-62.61C285.36,-52.86 309.01,-41.38 327.56,-32.38"/>
<polygon fill="#63b8ff" stroke="#63b8ff" points="263.97,-59.35 256.5,-66.87 267.02,-65.65 263.97,-59.35"/>
</a>
</g>
</g>
<!-- Node7&#45;&gt;Node6 -->
<g id="edge7_Node000007_Node000006" class="edge">
<title>Node7&#45;&gt;Node6</title>
<g id="a_edge7_Node000007_Node000006"><a xlink:title=" ">
<path fill="none" stroke="#63b8ff" d="M359.25,-56.31C359.25,-48.12 359.25,-39.38 359.25,-32.22"/>
<polygon fill="#63b8ff" stroke="#63b8ff" points="355.75,-56.18 359.25,-66.18 362.75,-56.18 355.75,-56.18"/>
</a>
</g>
</g>
<!-- Node8&#45;&gt;Node6 -->
<g id="edge9_Node000008_Node000006" class="edge">
<title>Node8&#45;&gt;Node6</title>
<g id="a_edge9_Node000008_Node000006"><a xlink:title=" ">
<path fill="none" stroke="#63b8ff" d="M453.23,-62.61C433.14,-52.86 409.49,-41.38 390.94,-32.38"/>
<polygon fill="#63b8ff" stroke="#63b8ff" points="451.48,-65.65 462,-66.87 454.53,-59.35 451.48,-65.65"/>
</a>
</g>
</g>
</g>
</svg>
