<?xml version="1.0" encoding="UTF-8" standalone="no"?>
<!DOCTYPE svg PUBLIC "-//W3C//DTD SVG 1.1//EN"
 "http://www.w3.org/Graphics/SVG/1.1/DTD/svg11.dtd">
<!-- Generated by graphviz version 2.38.0 (20140413.2041)
 -->
<!-- Title: Storm/Dm/MpSetpoints.h Pages: 1 -->
<svg width="1924pt" height="420pt"
 viewBox="0.00 0.00 1924.00 420.00" xmlns="http://www.w3.org/2000/svg" xmlns:xlink="http://www.w3.org/1999/xlink">
<g id="graph0" class="graph" transform="scale(1 1) rotate(0) translate(4 416)">
<title>Storm/Dm/MpSetpoints.h</title>
<polygon fill="white" stroke="none" points="-4,4 -4,-416 1920,-416 1920,4 -4,4"/>
<!-- Node1 -->
<g id="node1" class="node"><title>Node1</title>
<g id="a_node1"><a xlink:title=" ">
<polygon fill="#bfbfbf" stroke="black" points="1525.5,-392.5 1525.5,-411.5 1652.5,-411.5 1652.5,-392.5 1525.5,-392.5"/>
<text text-anchor="middle" x="1589" y="-399.5" font-family="Helvetica,sans-Serif" font-size="10.00">Storm/Dm/MpSetpoints.h</text>
</a>
</g>
</g>
<!-- Node2 -->
<g id="node2" class="node"><title>Node2</title>
<g id="a_node2"><a xlink:title=" ">
<polygon fill="white" stroke="#bfbfbf" points="1797.5,-0.5 1797.5,-19.5 1882.5,-19.5 1882.5,-0.5 1797.5,-0.5"/>
<text text-anchor="middle" x="1840" y="-7.5" font-family="Helvetica,sans-Serif" font-size="10.00">colony_config.h</text>
</a>
</g>
</g>
<!-- Node1&#45;&gt;Node2 -->
<g id="edge1" class="edge"><title>Node1&#45;&gt;Node2</title>
<path fill="none" stroke="midnightblue" d="M1652.83,-392.753C1747.99,-378.645 1916,-345.955 1916,-291 1916,-291 1916,-291 1916,-121 1916,-81.2757 1882.04,-45.5045 1859.52,-26.1536"/>
<polygon fill="midnightblue" stroke="midnightblue" points="1861.48,-23.2364 1851.54,-19.5672 1857.02,-28.6337 1861.48,-23.2364"/>
</g>
<!-- Node3 -->
<g id="node3" class="node"><title>Node3</title>
<g id="a_node3"><a xlink:href="_model_point_common___8h.html" target="_top" xlink:title=" ">
<polygon fill="white" stroke="black" points="1185.5,-336.5 1185.5,-355.5 1338.5,-355.5 1338.5,-336.5 1185.5,-336.5"/>
<text text-anchor="middle" x="1262" y="-343.5" font-family="Helvetica,sans-Serif" font-size="10.00">Cpl/Dm/ModelPointCommon_.h</text>
</a>
</g>
</g>
<!-- Node1&#45;&gt;Node3 -->
<g id="edge2" class="edge"><title>Node1&#45;&gt;Node3</title>
<path fill="none" stroke="midnightblue" d="M1537.19,-392.444C1479.18,-382.865 1385.26,-367.356 1323.56,-357.167"/>
<polygon fill="midnightblue" stroke="midnightblue" points="1324.01,-353.693 1313.57,-355.516 1322.87,-360.599 1324.01,-353.693"/>
</g>
<!-- Node4 -->
<g id="node4" class="node"><title>Node4</title>
<g id="a_node4"><a xlink:href="_model_point_8h.html" target="_top" xlink:title=" ">
<polygon fill="white" stroke="black" points="1290.5,-224.5 1290.5,-243.5 1399.5,-243.5 1399.5,-224.5 1290.5,-224.5"/>
<text text-anchor="middle" x="1345" y="-231.5" font-family="Helvetica,sans-Serif" font-size="10.00">Cpl/Dm/ModelPoint.h</text>
</a>
</g>
</g>
<!-- Node3&#45;&gt;Node4 -->
<g id="edge3" class="edge"><title>Node3&#45;&gt;Node4</title>
<path fill="none" stroke="midnightblue" d="M1268.51,-336.368C1282.27,-318.135 1314.5,-275.426 1332.42,-251.675"/>
<polygon fill="midnightblue" stroke="midnightblue" points="1335.29,-253.682 1338.52,-243.591 1329.7,-249.466 1335.29,-253.682"/>
</g>
<!-- Node11 -->
<g id="node11" class="node"><title>Node11</title>
<g id="a_node11"><a xlink:title=" ">
<polygon fill="white" stroke="#bfbfbf" points="251.5,-0.5 251.5,-19.5 300.5,-19.5 300.5,-0.5 251.5,-0.5"/>
<text text-anchor="middle" x="276" y="-7.5" font-family="Helvetica,sans-Serif" font-size="10.00">stdint.h</text>
</a>
</g>
</g>
<!-- Node3&#45;&gt;Node11 -->
<g id="edge64" class="edge"><title>Node3&#45;&gt;Node11</title>
<path fill="none" stroke="midnightblue" d="M1185.37,-344.561C973.747,-342.904 384.362,-335.172 194,-300 104.58,-283.479 0,-325.933 0,-235 0,-235 0,-235 0,-121 0,-84.2802 19.7233,-75.2384 51,-56 110.653,-19.3075 194.486,-11.7889 241.156,-10.679"/>
<polygon fill="midnightblue" stroke="midnightblue" points="241.41,-14.1757 251.356,-10.5256 241.305,-7.17648 241.41,-14.1757"/>
</g>
<!-- Node17 -->
<g id="node17" class="node"><title>Node17</title>
<g id="a_node17"><a xlink:href="_model_database_8h.html" target="_top" xlink:title=" ">
<polygon fill="white" stroke="black" points="1519,-280.5 1519,-299.5 1647,-299.5 1647,-280.5 1519,-280.5"/>
<text text-anchor="middle" x="1583" y="-287.5" font-family="Helvetica,sans-Serif" font-size="10.00">Cpl/Dm/ModelDatabase.h</text>
</a>
</g>
</g>
<!-- Node3&#45;&gt;Node17 -->
<g id="edge23" class="edge"><title>Node3&#45;&gt;Node17</title>
<path fill="none" stroke="midnightblue" d="M1312.86,-336.444C1369.68,-326.885 1461.62,-311.419 1522.19,-301.23"/>
<polygon fill="midnightblue" stroke="midnightblue" points="1523.09,-304.627 1532.37,-299.516 1521.93,-297.724 1523.09,-304.627"/>
</g>
<!-- Node21 -->
<g id="node21" class="node"><title>Node21</title>
<g id="a_node21"><a xlink:href="_subscriber_8h.html" target="_top" xlink:title=" ">
<polygon fill="white" stroke="black" points="203.5,-280.5 203.5,-299.5 310.5,-299.5 310.5,-280.5 203.5,-280.5"/>
<text text-anchor="middle" x="257" y="-287.5" font-family="Helvetica,sans-Serif" font-size="10.00">Cpl/Dm/Subscriber.h</text>
</a>
</g>
</g>
<!-- Node3&#45;&gt;Node21 -->
<g id="edge32" class="edge"><title>Node3&#45;&gt;Node21</title>
<path fill="none" stroke="midnightblue" d="M1185.33,-343.488C1025.22,-339.852 643.733,-328.696 325,-300 323.699,-299.883 322.385,-299.759 321.061,-299.63"/>
<polygon fill="midnightblue" stroke="midnightblue" points="321.089,-296.113 310.776,-298.539 320.351,-303.074 321.089,-296.113"/>
</g>
<!-- Node31 -->
<g id="node31" class="node"><title>Node31</title>
<g id="a_node31"><a xlink:href="_d_list_8h.html" target="_top" xlink:title=" ">
<polygon fill="white" stroke="black" points="240.5,-56.5 240.5,-75.5 349.5,-75.5 349.5,-56.5 240.5,-56.5"/>
<text text-anchor="middle" x="295" y="-63.5" font-family="Helvetica,sans-Serif" font-size="10.00">Cpl/Container/DList.h</text>
</a>
</g>
</g>
<!-- Node3&#45;&gt;Node31 -->
<g id="edge63" class="edge"><title>Node3&#45;&gt;Node31</title>
<path fill="none" stroke="midnightblue" d="M1185.3,-341.545C1037.13,-332.458 703.789,-300.174 450,-188 391.708,-162.235 336.005,-109.7 310.115,-83.1409"/>
<polygon fill="midnightblue" stroke="midnightblue" points="312.515,-80.5865 303.068,-75.7907 307.462,-85.4312 312.515,-80.5865"/>
</g>
<!-- Node34 -->
<g id="node34" class="node"><title>Node34</title>
<g id="a_node34"><a xlink:title=" ">
<polygon fill="white" stroke="#bfbfbf" points="1310,-112.5 1310,-131.5 1358,-131.5 1358,-112.5 1310,-112.5"/>
<text text-anchor="middle" x="1334" y="-119.5" font-family="Helvetica,sans-Serif" font-size="10.00">stdlib.h</text>
</a>
</g>
</g>
<!-- Node3&#45;&gt;Node34 -->
<g id="edge65" class="edge"><title>Node3&#45;&gt;Node34</title>
<path fill="none" stroke="midnightblue" d="M1262.4,-336.264C1263.52,-316.029 1267.58,-264.578 1281,-224 1291.27,-192.96 1310.34,-159.947 1322.58,-140.417"/>
<polygon fill="midnightblue" stroke="midnightblue" points="1325.69,-142.057 1328.13,-131.747 1319.79,-138.284 1325.69,-142.057"/>
</g>
<!-- Node4&#45;&gt;Node2 -->
<g id="edge4" class="edge"><title>Node4&#45;&gt;Node2</title>
<path fill="none" stroke="midnightblue" d="M1399.54,-227.969C1492.53,-219.116 1674.31,-200.51 1701,-188 1771.17,-155.107 1816.05,-66.9268 1832.7,-28.8805"/>
<polygon fill="midnightblue" stroke="midnightblue" points="1835.97,-30.1397 1836.65,-19.5666 1829.53,-27.4088 1835.97,-30.1397"/>
</g>
<!-- Node5 -->
<g id="node5" class="node"><title>Node5</title>
<g id="a_node5"><a xlink:href="_item_8h.html" target="_top" xlink:title=" ">
<polygon fill="white" stroke="black" points="835,-0.5 835,-19.5 941,-19.5 941,-0.5 835,-0.5"/>
<text text-anchor="middle" x="888" y="-7.5" font-family="Helvetica,sans-Serif" font-size="10.00">Cpl/Container/Item.h</text>
</a>
</g>
</g>
<!-- Node4&#45;&gt;Node5 -->
<g id="edge5" class="edge"><title>Node4&#45;&gt;Node5</title>
<path fill="none" stroke="midnightblue" d="M1348.24,-224.37C1357.27,-199.68 1381.12,-129.411 1367,-112 1315.35,-48.3294 1069.51,-23.2634 951.496,-14.7769"/>
<polygon fill="midnightblue" stroke="midnightblue" points="951.39,-11.2609 941.17,-14.0532 950.901,-18.2438 951.39,-11.2609"/>
</g>
<!-- Node6 -->
<g id="node6" class="node"><title>Node6</title>
<g id="a_node6"><a xlink:href="_text_2_string_8h.html" target="_top" xlink:title=" ">
<polygon fill="white" stroke="black" points="1602,-168.5 1602,-187.5 1692,-187.5 1692,-168.5 1602,-168.5"/>
<text text-anchor="middle" x="1647" y="-175.5" font-family="Helvetica,sans-Serif" font-size="10.00">Cpl/Text/String.h</text>
</a>
</g>
</g>
<!-- Node4&#45;&gt;Node6 -->
<g id="edge6" class="edge"><title>Node4&#45;&gt;Node6</title>
<path fill="none" stroke="midnightblue" d="M1392.85,-224.444C1446.98,-214.765 1534.99,-199.029 1591.93,-188.847"/>
<polygon fill="midnightblue" stroke="midnightblue" points="1592.61,-192.281 1601.84,-187.075 1591.38,-185.39 1592.61,-192.281"/>
</g>
<!-- Node10 -->
<g id="node10" class="node"><title>Node10</title>
<g id="a_node10"><a xlink:title=" ">
<polygon fill="white" stroke="#bfbfbf" points="1528,-0.5 1528,-19.5 1580,-19.5 1580,-0.5 1528,-0.5"/>
<text text-anchor="middle" x="1554" y="-7.5" font-family="Helvetica,sans-Serif" font-size="10.00">stddef.h</text>
</a>
</g>
</g>
<!-- Node4&#45;&gt;Node10 -->
<g id="edge21" class="edge"><title>Node4&#45;&gt;Node10</title>
<path fill="none" stroke="midnightblue" d="M1350.1,-224.396C1366.54,-197.186 1420.62,-111.525 1482,-56 1495.72,-43.5889 1513.29,-32.5311 1527.64,-24.4827"/>
<polygon fill="midnightblue" stroke="midnightblue" points="1529.42,-27.4983 1536.54,-19.6444 1526.08,-21.3496 1529.42,-27.4983"/>
</g>
<!-- Node4&#45;&gt;Node11 -->
<g id="edge22" class="edge"><title>Node4&#45;&gt;Node11</title>
<path fill="none" stroke="midnightblue" d="M1290.37,-233.16C1168.07,-232.754 863.274,-227.476 612,-188 512.752,-172.408 470.177,-196.32 393,-132 364.433,-108.192 383.355,-83.2038 358,-56 344.765,-41.7996 326.011,-31.0491 309.777,-23.6229"/>
<polygon fill="midnightblue" stroke="midnightblue" points="311.139,-20.3984 300.571,-19.6336 308.355,-26.8212 311.139,-20.3984"/>
</g>
<!-- Node15 -->
<g id="node15" class="node"><title>Node15</title>
<g id="a_node15"><a xlink:href="_subscriber_api_8h.html" target="_top" xlink:title=" ">
<polygon fill="white" stroke="black" points="148.5,-112.5 148.5,-131.5 269.5,-131.5 269.5,-112.5 148.5,-112.5"/>
<text text-anchor="middle" x="209" y="-119.5" font-family="Helvetica,sans-Serif" font-size="10.00">Cpl/Dm/SubscriberApi.h</text>
</a>
</g>
</g>
<!-- Node4&#45;&gt;Node15 -->
<g id="edge17" class="edge"><title>Node4&#45;&gt;Node15</title>
<path fill="none" stroke="midnightblue" d="M1290.25,-232.433C1115.24,-230.302 570.767,-221.112 398,-188 339.282,-176.746 273.988,-151.196 237.569,-135.692"/>
<polygon fill="midnightblue" stroke="midnightblue" points="238.661,-132.352 228.092,-131.606 235.889,-138.78 238.661,-132.352"/>
</g>
<!-- Node16 -->
<g id="node16" class="node"><title>Node16</title>
<g id="a_node16"><a xlink:href="_arduino_8h_source.html" target="_top" xlink:title=" ">
<polygon fill="white" stroke="black" points="1411.5,-168.5 1411.5,-187.5 1510.5,-187.5 1510.5,-168.5 1411.5,-168.5"/>
<text text-anchor="middle" x="1461" y="-175.5" font-family="Helvetica,sans-Serif" font-size="10.00">Cpl/Json/Arduino.h</text>
</a>
</g>
</g>
<!-- Node4&#45;&gt;Node16 -->
<g id="edge20" class="edge"><title>Node4&#45;&gt;Node16</title>
<path fill="none" stroke="midnightblue" d="M1363.38,-224.444C1382.22,-215.675 1411.73,-201.935 1433.38,-191.858"/>
<polygon fill="midnightblue" stroke="midnightblue" points="1435.12,-194.91 1442.71,-187.516 1432.16,-188.564 1435.12,-194.91"/>
</g>
<!-- Node7 -->
<g id="node7" class="node"><title>Node7</title>
<g id="a_node7"><a xlink:title=" ">
<polygon fill="white" stroke="#bfbfbf" points="1490.5,-56.5 1490.5,-75.5 1567.5,-75.5 1567.5,-56.5 1490.5,-56.5"/>
<text text-anchor="middle" x="1529" y="-63.5" font-family="Helvetica,sans-Serif" font-size="10.00">colony_map.h</text>
</a>
</g>
</g>
<!-- Node6&#45;&gt;Node7 -->
<g id="edge7" class="edge"><title>Node6&#45;&gt;Node7</title>
<path fill="none" stroke="midnightblue" d="M1682.1,-168.486C1718.25,-158.054 1766.51,-138.453 1745,-112 1742.34,-108.727 1641.02,-88.6436 1578.11,-76.4394"/>
<polygon fill="midnightblue" stroke="midnightblue" points="1578.47,-72.9436 1567.99,-74.4787 1577.14,-79.816 1578.47,-72.9436"/>
</g>
<!-- Node8 -->
<g id="node8" class="node"><title>Node8</title>
<g id="a_node8"><a xlink:href="_key_8h.html" target="_top" xlink:title=" ">
<polygon fill="white" stroke="black" points="1490,-112.5 1490,-131.5 1594,-131.5 1594,-112.5 1490,-112.5"/>
<text text-anchor="middle" x="1542" y="-119.5" font-family="Helvetica,sans-Serif" font-size="10.00">Cpl/Container/Key.h</text>
</a>
</g>
</g>
<!-- Node6&#45;&gt;Node8 -->
<g id="edge8" class="edge"><title>Node6&#45;&gt;Node8</title>
<path fill="none" stroke="midnightblue" d="M1630.13,-168.324C1613.29,-159.664 1587.19,-146.242 1567.76,-136.249"/>
<polygon fill="midnightblue" stroke="midnightblue" points="1569.32,-133.116 1558.83,-131.655 1566.12,-139.341 1569.32,-133.116"/>
</g>
<!-- Node13 -->
<g id="node13" class="node"><title>Node13</title>
<g id="a_node13"><a xlink:title=" ">
<polygon fill="white" stroke="#bfbfbf" points="1684,-112.5 1684,-131.5 1736,-131.5 1736,-112.5 1684,-112.5"/>
<text text-anchor="middle" x="1710" y="-119.5" font-family="Helvetica,sans-Serif" font-size="10.00">stdarg.h</text>
</a>
</g>
</g>
<!-- Node6&#45;&gt;Node13 -->
<g id="edge15" class="edge"><title>Node6&#45;&gt;Node13</title>
<path fill="none" stroke="midnightblue" d="M1657.12,-168.324C1666.53,-160.263 1680.74,-148.077 1692.07,-138.369"/>
<polygon fill="midnightblue" stroke="midnightblue" points="1694.38,-140.999 1699.69,-131.834 1689.82,-135.684 1694.38,-140.999"/>
</g>
<!-- Node14 -->
<g id="node14" class="node"><title>Node14</title>
<g id="a_node14"><a xlink:title=" ">
<polygon fill="white" stroke="#bfbfbf" points="1612,-112.5 1612,-131.5 1666,-131.5 1666,-112.5 1612,-112.5"/>
<text text-anchor="middle" x="1639" y="-119.5" font-family="Helvetica,sans-Serif" font-size="10.00">iostream</text>
</a>
</g>
</g>
<!-- Node6&#45;&gt;Node14 -->
<g id="edge16" class="edge"><title>Node6&#45;&gt;Node14</title>
<path fill="none" stroke="midnightblue" d="M1645.68,-168.083C1644.62,-160.927 1643.09,-150.635 1641.77,-141.691"/>
<polygon fill="midnightblue" stroke="midnightblue" points="1645.22,-141.13 1640.3,-131.751 1638.3,-142.156 1645.22,-141.13"/>
</g>
<!-- Node8&#45;&gt;Node7 -->
<g id="edge14" class="edge"><title>Node8&#45;&gt;Node7</title>
<path fill="none" stroke="midnightblue" d="M1539.85,-112.083C1538.13,-104.927 1535.65,-94.6353 1533.5,-85.6911"/>
<polygon fill="midnightblue" stroke="midnightblue" points="1536.85,-84.6541 1531.11,-75.7511 1530.04,-86.2925 1536.85,-84.6541"/>
</g>
<!-- Node9 -->
<g id="node9" class="node"><title>Node9</title>
<g id="a_node9"><a xlink:href="_fatal_error_8h.html" target="_top" xlink:title=" ">
<polygon fill="white" stroke="black" points="1586,-56.5 1586,-75.5 1708,-75.5 1708,-56.5 1586,-56.5"/>
<text text-anchor="middle" x="1647" y="-63.5" font-family="Helvetica,sans-Serif" font-size="10.00">Cpl/System/FatalError.h</text>
</a>
</g>
</g>
<!-- Node8&#45;&gt;Node9 -->
<g id="edge9" class="edge"><title>Node8&#45;&gt;Node9</title>
<path fill="none" stroke="midnightblue" d="M1558.87,-112.324C1575.71,-103.664 1601.81,-90.2424 1621.24,-80.249"/>
<polygon fill="midnightblue" stroke="midnightblue" points="1622.88,-83.3405 1630.17,-75.6545 1619.68,-77.1155 1622.88,-83.3405"/>
</g>
<!-- Node8&#45;&gt;Node11 -->
<g id="edge12" class="edge"><title>Node8&#45;&gt;Node11</title>
<path fill="none" stroke="midnightblue" d="M1489.86,-114.444C1387.47,-101.745 1152.88,-73.5048 955,-56 708.61,-34.2044 411.068,-17.9601 310.851,-12.7657"/>
<polygon fill="midnightblue" stroke="midnightblue" points="310.861,-9.26162 300.694,-12.2421 310.501,-16.2523 310.861,-9.26162"/>
</g>
<!-- Node12 -->
<g id="node12" class="node"><title>Node12</title>
<g id="a_node12"><a xlink:title=" ">
<polygon fill="white" stroke="#bfbfbf" points="1726.5,-56.5 1726.5,-75.5 1775.5,-75.5 1775.5,-56.5 1726.5,-56.5"/>
<text text-anchor="middle" x="1751" y="-63.5" font-family="Helvetica,sans-Serif" font-size="10.00">string.h</text>
</a>
</g>
</g>
<!-- Node8&#45;&gt;Node12 -->
<g id="edge13" class="edge"><title>Node8&#45;&gt;Node12</title>
<path fill="none" stroke="midnightblue" d="M1575.57,-112.444C1608.81,-103.952 1661.44,-90.4677 1716.54,-76.1053"/>
<polygon fill="midnightblue" stroke="midnightblue" points="1717.7,-79.4209 1726.49,-73.5097 1715.93,-72.6476 1717.7,-79.4209"/>
</g>
<!-- Node9&#45;&gt;Node2 -->
<g id="edge11" class="edge"><title>Node9&#45;&gt;Node2</title>
<path fill="none" stroke="midnightblue" d="M1677.58,-56.4435C1710.61,-47.2011 1763.39,-32.4356 1799.77,-22.2572"/>
<polygon fill="midnightblue" stroke="midnightblue" points="1800.87,-25.5815 1809.56,-19.5164 1798.99,-18.8404 1800.87,-25.5815"/>
</g>
<!-- Node9&#45;&gt;Node10 -->
<g id="edge10" class="edge"><title>Node9&#45;&gt;Node10</title>
<path fill="none" stroke="midnightblue" d="M1632.06,-56.324C1617.41,-47.8215 1594.87,-34.7288 1577.76,-24.7975"/>
<polygon fill="midnightblue" stroke="midnightblue" points="1579.31,-21.6491 1568.9,-19.6545 1575.8,-27.7027 1579.31,-21.6491"/>
</g>
<!-- Node15&#45;&gt;Node5 -->
<g id="edge18" class="edge"><title>Node15&#45;&gt;Node5</title>
<path fill="none" stroke="midnightblue" d="M209.098,-112.111C209.786,-97.7086 213.446,-69.5233 231,-56 277.288,-20.3412 668.603,-12.9374 824.388,-11.4015"/>
<polygon fill="midnightblue" stroke="midnightblue" points="824.78,-14.8981 834.747,-11.3046 824.714,-7.89837 824.78,-14.8981"/>
</g>
<!-- Node15&#45;&gt;Node11 -->
<g id="edge19" class="edge"><title>Node15&#45;&gt;Node11</title>
<path fill="none" stroke="midnightblue" d="M204.162,-112.368C197.537,-99.2812 187.582,-74.0378 198,-56 207.543,-39.4774 225.715,-28.4811 242.12,-21.4971"/>
<polygon fill="midnightblue" stroke="midnightblue" points="243.453,-24.734 251.495,-17.8373 240.907,-18.2132 243.453,-24.734"/>
</g>
<!-- Node17&#45;&gt;Node2 -->
<g id="edge24" class="edge"><title>Node17&#45;&gt;Node2</title>
<path fill="none" stroke="midnightblue" d="M1647.27,-286.299C1718.81,-281.984 1828.4,-271.054 1859,-244 1881.55,-224.063 1878,-209.098 1878,-179 1878,-179 1878,-179 1878,-121 1878,-86.8131 1861.4,-49.7639 1850.14,-28.5707"/>
<polygon fill="midnightblue" stroke="midnightblue" points="1853.18,-26.832 1845.28,-19.769 1847.05,-30.2151 1853.18,-26.832"/>
</g>
<!-- Node17&#45;&gt;Node16 -->
<g id="edge31" class="edge"><title>Node17&#45;&gt;Node16</title>
<path fill="none" stroke="midnightblue" d="M1518.97,-283.763C1492.54,-278.069 1464.32,-266.647 1448,-244 1438.15,-230.327 1443.82,-211.025 1450.48,-197.01"/>
<polygon fill="midnightblue" stroke="midnightblue" points="1453.72,-198.371 1455.3,-187.894 1447.53,-195.1 1453.72,-198.371"/>
</g>
<!-- Node18 -->
<g id="node18" class="node"><title>Node18</title>
<g id="a_node18"><a xlink:href="_model_database_api_8h.html" target="_top" xlink:title=" ">
<polygon fill="white" stroke="black" points="1584,-224.5 1584,-243.5 1726,-243.5 1726,-224.5 1584,-224.5"/>
<text text-anchor="middle" x="1655" y="-231.5" font-family="Helvetica,sans-Serif" font-size="10.00">Cpl/Dm/ModelDatabaseApi.h</text>
</a>
</g>
</g>
<!-- Node17&#45;&gt;Node18 -->
<g id="edge25" class="edge"><title>Node17&#45;&gt;Node18</title>
<path fill="none" stroke="midnightblue" d="M1594.57,-280.324C1605.42,-272.185 1621.88,-259.839 1634.88,-250.087"/>
<polygon fill="midnightblue" stroke="midnightblue" points="1637.32,-252.634 1643.22,-243.834 1633.12,-247.034 1637.32,-252.634"/>
</g>
<!-- Node19 -->
<g id="node19" class="node"><title>Node19</title>
<g id="a_node19"><a xlink:href="_mutex_8h.html" target="_top" xlink:title=" ">
<polygon fill="white" stroke="black" points="1744,-224.5 1744,-243.5 1850,-243.5 1850,-224.5 1744,-224.5"/>
<text text-anchor="middle" x="1797" y="-231.5" font-family="Helvetica,sans-Serif" font-size="10.00">Cpl/System/Mutex.h</text>
</a>
</g>
</g>
<!-- Node17&#45;&gt;Node19 -->
<g id="edge27" class="edge"><title>Node17&#45;&gt;Node19</title>
<path fill="none" stroke="midnightblue" d="M1616.91,-280.444C1653.85,-271.122 1713.05,-256.183 1753.42,-245.997"/>
<polygon fill="midnightblue" stroke="midnightblue" points="1754.41,-249.357 1763.25,-243.516 1752.7,-242.57 1754.41,-249.357"/>
</g>
<!-- Node20 -->
<g id="node20" class="node"><title>Node20</title>
<g id="a_node20"><a xlink:href="_s_list_8h.html" target="_top" xlink:title=" ">
<polygon fill="white" stroke="black" points="1456.5,-224.5 1456.5,-243.5 1565.5,-243.5 1565.5,-224.5 1456.5,-224.5"/>
<text text-anchor="middle" x="1511" y="-231.5" font-family="Helvetica,sans-Serif" font-size="10.00">Cpl/Container/SList.h</text>
</a>
</g>
</g>
<!-- Node17&#45;&gt;Node20 -->
<g id="edge29" class="edge"><title>Node17&#45;&gt;Node20</title>
<path fill="none" stroke="midnightblue" d="M1571.43,-280.324C1560.58,-272.185 1544.12,-259.839 1531.12,-250.087"/>
<polygon fill="midnightblue" stroke="midnightblue" points="1532.88,-247.034 1522.78,-243.834 1528.68,-252.634 1532.88,-247.034"/>
</g>
<!-- Node18&#45;&gt;Node6 -->
<g id="edge26" class="edge"><title>Node18&#45;&gt;Node6</title>
<path fill="none" stroke="midnightblue" d="M1653.68,-224.083C1652.62,-216.927 1651.09,-206.635 1649.77,-197.691"/>
<polygon fill="midnightblue" stroke="midnightblue" points="1653.22,-197.13 1648.3,-187.751 1646.3,-198.156 1653.22,-197.13"/>
</g>
<!-- Node19&#45;&gt;Node7 -->
<g id="edge28" class="edge"><title>Node19&#45;&gt;Node7</title>
<path fill="none" stroke="midnightblue" d="M1797.24,-224.427C1797.38,-202.198 1794.44,-142.33 1761,-112 1760.14,-111.224 1645.48,-89.2322 1577.7,-76.2851"/>
<polygon fill="midnightblue" stroke="midnightblue" points="1578.13,-72.8045 1567.65,-74.3668 1576.82,-79.6802 1578.13,-72.8045"/>
</g>
<!-- Node20&#45;&gt;Node5 -->
<g id="edge30" class="edge"><title>Node20&#45;&gt;Node5</title>
<path fill="none" stroke="midnightblue" d="M1515.57,-224.258C1521.79,-211.028 1530.96,-185.599 1520,-168 1490.15,-120.086 1346.19,-71.8045 1292,-56 1175.13,-21.9156 1032.32,-13.3334 951.597,-11.3609"/>
<polygon fill="midnightblue" stroke="midnightblue" points="951.181,-7.85119 941.107,-11.1335 951.029,-14.8495 951.181,-7.85119"/>
</g>
<!-- Node21&#45;&gt;Node4 -->
<g id="edge34" class="edge"><title>Node21&#45;&gt;Node4</title>
<path fill="none" stroke="midnightblue" d="M310.583,-286.341C492.001,-277.336 1082.76,-248.015 1280.13,-238.22"/>
<polygon fill="midnightblue" stroke="midnightblue" points="1280.52,-241.704 1290.34,-237.713 1280.18,-234.713 1280.52,-241.704"/>
</g>
<!-- Node21&#45;&gt;Node11 -->
<g id="edge62" class="edge"><title>Node21&#45;&gt;Node11</title>
<path fill="none" stroke="midnightblue" d="M203.427,-285.091C138.592,-277.105 38,-252.82 38,-179 38,-179 38,-179 38,-121 38,-32.6065 174.946,-15.021 241.076,-11.6821"/>
<polygon fill="midnightblue" stroke="midnightblue" points="241.582,-15.164 251.426,-11.2472 241.288,-8.17022 241.582,-15.164"/>
</g>
<!-- Node21&#45;&gt;Node15 -->
<g id="edge33" class="edge"><title>Node21&#45;&gt;Node15</title>
<path fill="none" stroke="midnightblue" d="M227.391,-280.407C188.887,-267.453 123.226,-238.859 95,-188 79.6904,-160.414 114.302,-143.653 149.306,-134.077"/>
<polygon fill="midnightblue" stroke="midnightblue" points="150.325,-137.429 159.148,-131.564 148.593,-130.647 150.325,-137.429"/>
</g>
<!-- Node22 -->
<g id="node22" class="node"><title>Node22</title>
<g id="a_node22"><a xlink:href="_dm_2_event_loop_8h.html" target="_top" xlink:title=" ">
<polygon fill="white" stroke="black" points="203.5,-224.5 203.5,-243.5 310.5,-243.5 310.5,-224.5 203.5,-224.5"/>
<text text-anchor="middle" x="257" y="-231.5" font-family="Helvetica,sans-Serif" font-size="10.00">Cpl/Dm/EventLoop.h</text>
</a>
</g>
</g>
<!-- Node21&#45;&gt;Node22 -->
<g id="edge35" class="edge"><title>Node21&#45;&gt;Node22</title>
<path fill="none" stroke="midnightblue" d="M257,-280.083C257,-273.006 257,-262.861 257,-253.986"/>
<polygon fill="midnightblue" stroke="midnightblue" points="260.5,-253.751 257,-243.751 253.5,-253.751 260.5,-253.751"/>
</g>
<!-- Node22&#45;&gt;Node15 -->
<g id="edge59" class="edge"><title>Node22&#45;&gt;Node15</title>
<path fill="none" stroke="midnightblue" d="M255.911,-224.243C254.085,-211.426 249.716,-187.017 241,-168 236.366,-157.888 229.358,-147.698 223.081,-139.578"/>
<polygon fill="midnightblue" stroke="midnightblue" points="225.71,-137.262 216.704,-131.681 220.264,-141.66 225.71,-137.262"/>
</g>
<!-- Node23 -->
<g id="node23" class="node"><title>Node23</title>
<g id="a_node23"><a xlink:href="_system_2_event_loop_8h.html" target="_top" xlink:title=" ">
<polygon fill="white" stroke="black" points="621.5,-168.5 621.5,-187.5 746.5,-187.5 746.5,-168.5 621.5,-168.5"/>
<text text-anchor="middle" x="684" y="-175.5" font-family="Helvetica,sans-Serif" font-size="10.00">Cpl/System/EventLoop.h</text>
</a>
</g>
</g>
<!-- Node22&#45;&gt;Node23 -->
<g id="edge36" class="edge"><title>Node22&#45;&gt;Node23</title>
<path fill="none" stroke="midnightblue" d="M310.647,-226.216C386.628,-216.607 525.808,-199.006 611.096,-188.22"/>
<polygon fill="midnightblue" stroke="midnightblue" points="611.74,-191.666 621.221,-186.939 610.861,-184.722 611.74,-191.666"/>
</g>
<!-- Node22&#45;&gt;Node31 -->
<g id="edge58" class="edge"><title>Node22&#45;&gt;Node31</title>
<path fill="none" stroke="midnightblue" d="M259.043,-224.075C265.025,-197.945 282.59,-121.211 290.747,-85.577"/>
<polygon fill="midnightblue" stroke="midnightblue" points="294.219,-86.097 293.039,-75.5681 287.395,-84.5349 294.219,-86.097"/>
</g>
<!-- Node32 -->
<g id="node32" class="node"><title>Node32</title>
<g id="a_node32"><a xlink:href="_thread_8h.html" target="_top" xlink:title=" ">
<polygon fill="white" stroke="black" points="1093.5,-168.5 1093.5,-187.5 1202.5,-187.5 1202.5,-168.5 1093.5,-168.5"/>
<text text-anchor="middle" x="1148" y="-175.5" font-family="Helvetica,sans-Serif" font-size="10.00">Cpl/System/Thread.h</text>
</a>
</g>
</g>
<!-- Node22&#45;&gt;Node32 -->
<g id="edge52" class="edge"><title>Node22&#45;&gt;Node32</title>
<path fill="none" stroke="midnightblue" d="M310.73,-229.744C465.971,-220.335 914.76,-193.136 1083.15,-182.93"/>
<polygon fill="midnightblue" stroke="midnightblue" points="1083.58,-186.411 1093.35,-182.312 1083.16,-179.424 1083.58,-186.411"/>
</g>
<!-- Node35 -->
<g id="node35" class="node"><title>Node35</title>
<g id="a_node35"><a xlink:href="_notification_api___8h.html" target="_top" xlink:title=" ">
<polygon fill="white" stroke="black" points="104,-168.5 104,-187.5 232,-187.5 232,-168.5 104,-168.5"/>
<text text-anchor="middle" x="168" y="-175.5" font-family="Helvetica,sans-Serif" font-size="10.00">Cpl/Dm/NotificationApi_.h</text>
</a>
</g>
</g>
<!-- Node22&#45;&gt;Node35 -->
<g id="edge60" class="edge"><title>Node22&#45;&gt;Node35</title>
<path fill="none" stroke="midnightblue" d="M242.701,-224.324C228.817,-215.9 207.508,-202.971 191.196,-193.074"/>
<polygon fill="midnightblue" stroke="midnightblue" points="192.629,-189.85 182.264,-187.655 188.998,-195.834 192.629,-189.85"/>
</g>
<!-- Node24 -->
<g id="node24" class="node"><title>Node24</title>
<g id="a_node24"><a xlink:href="_runnable_8h.html" target="_top" xlink:title=" ">
<polygon fill="white" stroke="black" points="970.5,-112.5 970.5,-131.5 1089.5,-131.5 1089.5,-112.5 970.5,-112.5"/>
<text text-anchor="middle" x="1030" y="-119.5" font-family="Helvetica,sans-Serif" font-size="10.00">Cpl/System/Runnable.h</text>
</a>
</g>
</g>
<!-- Node23&#45;&gt;Node24 -->
<g id="edge37" class="edge"><title>Node23&#45;&gt;Node24</title>
<path fill="none" stroke="midnightblue" d="M738.825,-168.444C800.322,-158.846 899.984,-143.292 965.261,-133.104"/>
<polygon fill="midnightblue" stroke="midnightblue" points="966.091,-136.517 975.432,-131.516 965.012,-129.6 966.091,-136.517"/>
</g>
<!-- Node25 -->
<g id="node25" class="node"><title>Node25</title>
<g id="a_node25"><a xlink:href="_semaphore_8h.html" target="_top" xlink:title=" ">
<polygon fill="white" stroke="black" points="824,-112.5 824,-131.5 952,-131.5 952,-112.5 824,-112.5"/>
<text text-anchor="middle" x="888" y="-119.5" font-family="Helvetica,sans-Serif" font-size="10.00">Cpl/System/Semaphore.h</text>
</a>
</g>
</g>
<!-- Node23&#45;&gt;Node25 -->
<g id="edge38" class="edge"><title>Node23&#45;&gt;Node25</title>
<path fill="none" stroke="midnightblue" d="M716.324,-168.444C751.389,-159.162 807.498,-144.309 845.965,-134.127"/>
<polygon fill="midnightblue" stroke="midnightblue" points="847.055,-137.459 855.827,-131.516 845.264,-130.692 847.055,-137.459"/>
</g>
<!-- Node26 -->
<g id="node26" class="node"><title>Node26</title>
<g id="a_node26"><a xlink:href="_signable_8h.html" target="_top" xlink:title=" ">
<polygon fill="white" stroke="black" points="830,-56.5 830,-75.5 946,-75.5 946,-56.5 830,-56.5"/>
<text text-anchor="middle" x="888" y="-63.5" font-family="Helvetica,sans-Serif" font-size="10.00">Cpl/System/Signable.h</text>
</a>
</g>
</g>
<!-- Node23&#45;&gt;Node26 -->
<g id="edge42" class="edge"><title>Node23&#45;&gt;Node26</title>
<path fill="none" stroke="midnightblue" d="M702.744,-168.462C721.683,-159.712 751.681,-145.512 777,-132 808.203,-115.348 843.281,-94.4224 865.498,-80.8838"/>
<polygon fill="midnightblue" stroke="midnightblue" points="867.481,-83.7736 874.183,-75.5679 863.827,-77.8032 867.481,-83.7736"/>
</g>
<!-- Node27 -->
<g id="node27" class="node"><title>Node27</title>
<g id="a_node27"><a xlink:href="_event_flag_8h.html" target="_top" xlink:title=" ">
<polygon fill="white" stroke="black" points="586.5,-56.5 586.5,-75.5 709.5,-75.5 709.5,-56.5 586.5,-56.5"/>
<text text-anchor="middle" x="648" y="-63.5" font-family="Helvetica,sans-Serif" font-size="10.00">Cpl/System/EventFlag.h</text>
</a>
</g>
</g>
<!-- Node23&#45;&gt;Node27 -->
<g id="edge43" class="edge"><title>Node23&#45;&gt;Node27</title>
<path fill="none" stroke="midnightblue" d="M644.745,-168.475C625.004,-161.99 602.816,-150.843 591,-132 578.776,-112.505 601.636,-93.0476 621.943,-80.5749"/>
<polygon fill="midnightblue" stroke="midnightblue" points="623.771,-83.561 630.668,-75.519 620.261,-77.5043 623.771,-83.561"/>
</g>
<!-- Node28 -->
<g id="node28" class="node"><title>Node28</title>
<g id="a_node28"><a xlink:href="_shared_event_handler_8h.html" target="_top" xlink:title=" ">
<polygon fill="white" stroke="black" points="600,-112.5 600,-131.5 768,-131.5 768,-112.5 600,-112.5"/>
<text text-anchor="middle" x="684" y="-119.5" font-family="Helvetica,sans-Serif" font-size="10.00">Cpl/System/SharedEventHandler.h</text>
</a>
</g>
</g>
<!-- Node23&#45;&gt;Node28 -->
<g id="edge46" class="edge"><title>Node23&#45;&gt;Node28</title>
<path fill="none" stroke="midnightblue" d="M684,-168.083C684,-161.006 684,-150.861 684,-141.986"/>
<polygon fill="midnightblue" stroke="midnightblue" points="687.5,-141.751 684,-131.751 680.5,-141.751 687.5,-141.751"/>
</g>
<!-- Node29 -->
<g id="node29" class="node"><title>Node29</title>
<g id="a_node29"><a xlink:href="_timer_manager_8h.html" target="_top" xlink:title=" ">
<polygon fill="white" stroke="black" points="402.5,-112.5 402.5,-131.5 543.5,-131.5 543.5,-112.5 402.5,-112.5"/>
<text text-anchor="middle" x="473" y="-119.5" font-family="Helvetica,sans-Serif" font-size="10.00">Cpl/System/TimerManager.h</text>
</a>
</g>
</g>
<!-- Node23&#45;&gt;Node29 -->
<g id="edge48" class="edge"><title>Node23&#45;&gt;Node29</title>
<path fill="none" stroke="midnightblue" d="M650.566,-168.444C614.144,-159.122 555.77,-144.183 515.971,-133.997"/>
<polygon fill="midnightblue" stroke="midnightblue" points="516.833,-130.605 506.277,-131.516 515.097,-137.387 516.833,-130.605"/>
</g>
<!-- Node25&#45;&gt;Node7 -->
<g id="edge39" class="edge"><title>Node25&#45;&gt;Node7</title>
<path fill="none" stroke="midnightblue" d="M952.076,-112.94C955.092,-112.611 958.078,-112.296 961,-112 1152.81,-92.5869 1381.78,-76.6505 1480.16,-70.1491"/>
<polygon fill="midnightblue" stroke="midnightblue" points="1480.63,-73.6254 1490.38,-69.4763 1480.17,-66.6406 1480.63,-73.6254"/>
</g>
<!-- Node25&#45;&gt;Node26 -->
<g id="edge40" class="edge"><title>Node25&#45;&gt;Node26</title>
<path fill="none" stroke="midnightblue" d="M888,-112.083C888,-105.006 888,-94.8611 888,-85.9865"/>
<polygon fill="midnightblue" stroke="midnightblue" points="891.5,-85.751 888,-75.7511 884.5,-85.7511 891.5,-85.751"/>
</g>
<!-- Node26&#45;&gt;Node5 -->
<g id="edge41" class="edge"><title>Node26&#45;&gt;Node5</title>
<path fill="none" stroke="midnightblue" d="M888,-56.083C888,-49.0059 888,-38.8611 888,-29.9865"/>
<polygon fill="midnightblue" stroke="midnightblue" points="891.5,-29.751 888,-19.7511 884.5,-29.7511 891.5,-29.751"/>
</g>
<!-- Node27&#45;&gt;Node2 -->
<g id="edge44" class="edge"><title>Node27&#45;&gt;Node2</title>
<path fill="none" stroke="midnightblue" d="M709.646,-61.6753C742.67,-59.924 784.05,-57.777 821,-56 1190.65,-38.2232 1635.86,-19.4815 1786.92,-13.1971"/>
<polygon fill="midnightblue" stroke="midnightblue" points="1787.44,-16.6788 1797.28,-12.7664 1787.14,-9.6848 1787.44,-16.6788"/>
</g>
<!-- Node27&#45;&gt;Node11 -->
<g id="edge45" class="edge"><title>Node27&#45;&gt;Node11</title>
<path fill="none" stroke="midnightblue" d="M589.055,-56.4435C510.652,-45.0624 374.555,-25.3064 310.814,-16.0536"/>
<polygon fill="midnightblue" stroke="midnightblue" points="311.262,-12.5821 300.863,-14.6092 310.257,-19.5095 311.262,-12.5821"/>
</g>
<!-- Node28&#45;&gt;Node27 -->
<g id="edge47" class="edge"><title>Node28&#45;&gt;Node27</title>
<path fill="none" stroke="midnightblue" d="M678.055,-112.083C673.023,-104.534 665.663,-93.4948 659.487,-84.2298"/>
<polygon fill="midnightblue" stroke="midnightblue" points="662.293,-82.1301 653.834,-75.7511 656.469,-86.0131 662.293,-82.1301"/>
</g>
<!-- Node30 -->
<g id="node30" class="node"><title>Node30</title>
<g id="a_node30"><a xlink:href="_counter___8h.html" target="_top" xlink:title=" ">
<polygon fill="white" stroke="black" points="432,-56.5 432,-75.5 550,-75.5 550,-56.5 432,-56.5"/>
<text text-anchor="middle" x="491" y="-63.5" font-family="Helvetica,sans-Serif" font-size="10.00">Cpl/System/Counter_.h</text>
</a>
</g>
</g>
<!-- Node29&#45;&gt;Node30 -->
<g id="edge49" class="edge"><title>Node29&#45;&gt;Node30</title>
<path fill="none" stroke="midnightblue" d="M475.972,-112.083C478.384,-104.849 481.864,-94.4087 484.868,-85.3968"/>
<polygon fill="midnightblue" stroke="midnightblue" points="488.241,-86.3447 488.083,-75.7511 481.6,-84.1311 488.241,-86.3447"/>
</g>
<!-- Node29&#45;&gt;Node31 -->
<g id="edge51" class="edge"><title>Node29&#45;&gt;Node31</title>
<path fill="none" stroke="midnightblue" d="M444.795,-112.444C414.59,-103.28 366.489,-88.6876 332.971,-78.5192"/>
<polygon fill="midnightblue" stroke="midnightblue" points="333.658,-75.0703 323.073,-75.5164 331.626,-81.7688 333.658,-75.0703"/>
</g>
<!-- Node30&#45;&gt;Node5 -->
<g id="edge50" class="edge"><title>Node30&#45;&gt;Node5</title>
<path fill="none" stroke="midnightblue" d="M550.006,-56.974C623.551,-46.9704 748.754,-29.9403 824.384,-19.6531"/>
<polygon fill="midnightblue" stroke="midnightblue" points="825.279,-23.0636 834.716,-18.2477 824.336,-16.1275 825.279,-23.0636"/>
</g>
<!-- Node32&#45;&gt;Node7 -->
<g id="edge53" class="edge"><title>Node32&#45;&gt;Node7</title>
<path fill="none" stroke="midnightblue" d="M1172.11,-168.456C1195.61,-159.923 1232.19,-146.082 1263,-132 1280.36,-124.066 1283.01,-118.359 1301,-112 1360.77,-90.8793 1433.06,-78.7334 1479.98,-72.5016"/>
<polygon fill="midnightblue" stroke="midnightblue" points="1480.7,-75.9372 1490.18,-71.1878 1479.81,-68.9946 1480.7,-75.9372"/>
</g>
<!-- Node32&#45;&gt;Node24 -->
<g id="edge54" class="edge"><title>Node32&#45;&gt;Node24</title>
<path fill="none" stroke="midnightblue" d="M1129.3,-168.444C1110.06,-159.636 1079.85,-145.812 1057.8,-135.722"/>
<polygon fill="midnightblue" stroke="midnightblue" points="1059.16,-132.495 1048.61,-131.516 1056.25,-138.86 1059.16,-132.495"/>
</g>
<!-- Node32&#45;&gt;Node26 -->
<g id="edge55" class="edge"><title>Node32&#45;&gt;Node26</title>
<path fill="none" stroke="midnightblue" d="M1143.85,-168.249C1136.64,-154.044 1120.39,-126.136 1098,-112 1055.68,-85.2818 999.996,-74.2107 956.606,-69.7234"/>
<polygon fill="midnightblue" stroke="midnightblue" points="956.703,-66.2173 946.42,-68.7665 956.049,-73.1866 956.703,-66.2173"/>
</g>
<!-- Node33 -->
<g id="node33" class="node"><title>Node33</title>
<g id="a_node33"><a xlink:href="_traverser_8h.html" target="_top" xlink:title=" ">
<polygon fill="white" stroke="black" points="1146,-112.5 1146,-131.5 1254,-131.5 1254,-112.5 1146,-112.5"/>
<text text-anchor="middle" x="1200" y="-119.5" font-family="Helvetica,sans-Serif" font-size="10.00">Cpl/Type/Traverser.h</text>
</a>
</g>
</g>
<!-- Node32&#45;&gt;Node33 -->
<g id="edge56" class="edge"><title>Node32&#45;&gt;Node33</title>
<path fill="none" stroke="midnightblue" d="M1156.59,-168.083C1164.16,-160.22 1175.38,-148.569 1184.51,-139.081"/>
<polygon fill="midnightblue" stroke="midnightblue" points="1187.16,-141.382 1191.57,-131.751 1182.12,-136.527 1187.16,-141.382"/>
</g>
<!-- Node32&#45;&gt;Node34 -->
<g id="edge57" class="edge"><title>Node32&#45;&gt;Node34</title>
<path fill="none" stroke="midnightblue" d="M1177.47,-168.444C1210.85,-158.753 1265.14,-142.992 1300.2,-132.811"/>
<polygon fill="midnightblue" stroke="midnightblue" points="1301.36,-136.12 1309.99,-129.971 1299.41,-129.398 1301.36,-136.12"/>
</g>
<!-- Node35&#45;&gt;Node15 -->
<g id="edge61" class="edge"><title>Node35&#45;&gt;Node15</title>
<path fill="none" stroke="midnightblue" d="M174.77,-168.083C180.562,-160.455 189.058,-149.264 196.138,-139.941"/>
<polygon fill="midnightblue" stroke="midnightblue" points="199.096,-141.832 202.356,-131.751 193.521,-137.599 199.096,-141.832"/>
</g>
</g>
</svg>
