<?xml version="1.0" encoding="UTF-8" standalone="no"?>
<!DOCTYPE svg PUBLIC "-//W3C//DTD SVG 1.1//EN"
 "http://www.w3.org/Graphics/SVG/1.1/DTD/svg11.dtd">
<!-- Generated by graphviz version 2.38.0 (20140413.2041)
 -->
<!-- Title: Storm/Dm/MpComfortConfig.h Pages: 1 -->
<svg width="1216pt" height="352pt"
 viewBox="0.00 0.00 1216.27 352.00" xmlns="http://www.w3.org/2000/svg" xmlns:xlink="http://www.w3.org/1999/xlink">
<g id="graph0" class="graph" transform="scale(1 1) rotate(0) translate(4 348)">
<title>Storm/Dm/MpComfortConfig.h</title>
<polygon fill="white" stroke="none" points="-4,4 -4,-348 1212.27,-348 1212.27,4 -4,4"/>
<!-- Node1 -->
<g id="node1" class="node"><title>Node1</title>
<g id="a_node1"><a xlink:title=" ">
<polygon fill="#bfbfbf" stroke="black" points="658.774,-324.5 658.774,-343.5 806.774,-343.5 806.774,-324.5 658.774,-324.5"/>
<text text-anchor="middle" x="732.774" y="-331.5" font-family="Helvetica,sans-Serif" font-size="10.00">Storm/Dm/MpComfortConfig.h</text>
</a>
</g>
</g>
<!-- Node2 -->
<g id="node2" class="node"><title>Node2</title>
<g id="a_node2"><a xlink:href="_control_8h.html" target="_top" xlink:title=" ">
<polygon fill="white" stroke="black" points="247.274,-263 247.274,-282 384.274,-282 384.274,-263 247.274,-263"/>
<text text-anchor="middle" x="315.774" y="-270" font-family="Helvetica,sans-Serif" font-size="10.00">Storm/Component/Control.h</text>
</a>
</g>
</g>
<!-- Node1&#45;&gt;Node2 -->
<g id="edge1" class="edge"><title>Node1&#45;&gt;Node2</title>
<path fill="none" stroke="midnightblue" d="M662.98,-323.041C582.444,-311.55 451.375,-292.848 375.409,-282.009"/>
<polygon fill="midnightblue" stroke="midnightblue" points="662.633,-326.527 673.028,-324.475 663.622,-319.598 662.633,-326.527"/>
</g>
<!-- Node11 -->
<g id="node11" class="node"><title>Node11</title>
<g id="a_node11"><a xlink:href="_fan_control_8h.html" target="_top" xlink:title=" ">
<polygon fill="white" stroke="black" points="604.774,-62 604.774,-81 758.774,-81 758.774,-62 604.774,-62"/>
<text text-anchor="middle" x="681.774" y="-69" font-family="Helvetica,sans-Serif" font-size="10.00">Storm/Component/FanControl.h</text>
</a>
</g>
</g>
<!-- Node1&#45;&gt;Node11 -->
<g id="edge17" class="edge"><title>Node1&#45;&gt;Node11</title>
<path fill="none" stroke="midnightblue" d="M720.074,-315.813C714.77,-307.764 709.084,-297.803 705.774,-288 679.879,-211.318 680.551,-111.438 681.431,-81.4115"/>
<polygon fill="midnightblue" stroke="midnightblue" points="717.37,-318.056 725.958,-324.261 723.114,-314.055 717.37,-318.056"/>
</g>
<!-- Node12 -->
<g id="node12" class="node"><title>Node12</title>
<g id="a_node12"><a xlink:href="_component_2_operating_mode_8h.html" target="_top" xlink:title=" ">
<polygon fill="white" stroke="black" points="714.774,-257.5 714.774,-287.5 854.774,-287.5 854.774,-257.5 714.774,-257.5"/>
<text text-anchor="start" x="722.774" y="-275.5" font-family="Helvetica,sans-Serif" font-size="10.00">Storm/Component/Operating</text>
<text text-anchor="middle" x="784.774" y="-264.5" font-family="Helvetica,sans-Serif" font-size="10.00">Mode.h</text>
</a>
</g>
</g>
<!-- Node1&#45;&gt;Node12 -->
<g id="edge19" class="edge"><title>Node1&#45;&gt;Node12</title>
<path fill="none" stroke="midnightblue" d="M746.922,-316.811C754.929,-307.649 764.845,-296.303 772.518,-287.523"/>
<polygon fill="midnightblue" stroke="midnightblue" points="744.169,-314.642 740.224,-324.475 749.44,-319.249 744.169,-314.642"/>
</g>
<!-- Node13 -->
<g id="node13" class="node"><title>Node13</title>
<g id="a_node13"><a xlink:href="_model_points_8h.html" target="_top" xlink:title="This file defines all of the Model Points for the Thermostat Application.">
<polygon fill="white" stroke="black" points="904.274,-263 904.274,-282 1065.27,-282 1065.27,-263 904.274,-263"/>
<text text-anchor="middle" x="984.774" y="-270" font-family="Helvetica,sans-Serif" font-size="10.00">Storm/Thermostat/ModelPoints.h</text>
</a>
</g>
</g>
<!-- Node1&#45;&gt;Node13 -->
<g id="edge21" class="edge"><title>Node1&#45;&gt;Node13</title>
<path fill="none" stroke="midnightblue" d="M778.88,-322.114C827.791,-310.565 904.043,-292.561 948.735,-282.009"/>
<polygon fill="midnightblue" stroke="midnightblue" points="777.807,-318.771 768.879,-324.475 779.416,-325.583 777.807,-318.771"/>
</g>
<!-- Node3 -->
<g id="node3" class="node"><title>Node3</title>
<g id="a_node3"><a xlink:href="_cooling_8h.html" target="_top" xlink:title=" ">
<polygon fill="white" stroke="black" points="14.2736,-123.5 14.2736,-153.5 159.274,-153.5 159.274,-123.5 14.2736,-123.5"/>
<text text-anchor="start" x="22.2736" y="-141.5" font-family="Helvetica,sans-Serif" font-size="10.00">Storm/Component/Equipment</text>
<text text-anchor="middle" x="86.7736" y="-130.5" font-family="Helvetica,sans-Serif" font-size="10.00">/Cooling.h</text>
</a>
</g>
</g>
<!-- Node2&#45;&gt;Node3 -->
<g id="edge2" class="edge"><title>Node2&#45;&gt;Node3</title>
<path fill="none" stroke="midnightblue" d="M274.991,-260.007C247.8,-251.402 211.849,-238.168 182.774,-221 150.205,-201.769 117.814,-171.31 100.233,-153.582"/>
<polygon fill="midnightblue" stroke="midnightblue" points="273.996,-263.363 284.584,-262.967 276.06,-256.674 273.996,-263.363"/>
</g>
<!-- Node4 -->
<g id="node4" class="node"><title>Node4</title>
<g id="a_node4"><a xlink:href="_algorithm_8h.html" target="_top" xlink:title=" ">
<polygon fill="white" stroke="black" points="287.774,-0.5 287.774,-19.5 435.774,-19.5 435.774,-0.5 287.774,-0.5"/>
<text text-anchor="middle" x="361.774" y="-7.5" font-family="Helvetica,sans-Serif" font-size="10.00">Storm/Thermostat/Algorithm.h</text>
</a>
</g>
</g>
<!-- Node2&#45;&gt;Node4 -->
<g id="edge16" class="edge"><title>Node2&#45;&gt;Node4</title>
<path fill="none" stroke="midnightblue" d="M236.975,-266.618C134.072,-256.227 -29.2322,-223.819 4.77357,-123 16.7342,-87.5397 23.5432,-75.0184 55.7736,-56 93.9261,-33.4871 210.016,-21.3008 287.728,-15.4818"/>
<polygon fill="midnightblue" stroke="midnightblue" points="236.756,-270.113 247.044,-267.585 237.425,-263.145 236.756,-270.113"/>
</g>
<!-- Node5 -->
<g id="node5" class="node"><title>Node5</title>
<g id="a_node5"><a xlink:href="_indoor_heating_8h.html" target="_top" xlink:title=" ">
<polygon fill="white" stroke="black" points="340.274,-123.5 340.274,-153.5 485.274,-153.5 485.274,-123.5 340.274,-123.5"/>
<text text-anchor="start" x="348.274" y="-141.5" font-family="Helvetica,sans-Serif" font-size="10.00">Storm/Component/Equipment</text>
<text text-anchor="middle" x="412.774" y="-130.5" font-family="Helvetica,sans-Serif" font-size="10.00">/IndoorHeating.h</text>
</a>
</g>
</g>
<!-- Node2&#45;&gt;Node5 -->
<g id="edge4" class="edge"><title>Node2&#45;&gt;Node5</title>
<path fill="none" stroke="midnightblue" d="M328.163,-254.641C347.431,-228.419 384.237,-178.334 402.278,-153.783"/>
<polygon fill="midnightblue" stroke="midnightblue" points="325.239,-252.708 322.138,-262.839 330.88,-256.853 325.239,-252.708"/>
</g>
<!-- Node6 -->
<g id="node6" class="node"><title>Node6</title>
<g id="a_node6"><a xlink:href="_off_8h.html" target="_top" xlink:title=" ">
<polygon fill="white" stroke="black" points="441.274,-56.5 441.274,-86.5 586.274,-86.5 586.274,-56.5 441.274,-56.5"/>
<text text-anchor="start" x="449.274" y="-74.5" font-family="Helvetica,sans-Serif" font-size="10.00">Storm/Component/Equipment</text>
<text text-anchor="middle" x="513.774" y="-63.5" font-family="Helvetica,sans-Serif" font-size="10.00">/Off.h</text>
</a>
</g>
</g>
<!-- Node2&#45;&gt;Node6 -->
<g id="edge6" class="edge"><title>Node2&#45;&gt;Node6</title>
<path fill="none" stroke="midnightblue" d="M347.982,-259.032C388.381,-241.7 456.82,-206.425 493.774,-154 508.127,-133.637 512.229,-104.114 513.37,-86.7536"/>
<polygon fill="midnightblue" stroke="midnightblue" points="346.473,-255.869 338.595,-262.953 349.171,-262.329 346.473,-255.869"/>
</g>
<!-- Node7 -->
<g id="node7" class="node"><title>Node7</title>
<g id="a_node7"><a xlink:href="_stage_api_8h.html" target="_top" xlink:title=" ">
<polygon fill="white" stroke="black" points="192.274,-190.5 192.274,-220.5 337.274,-220.5 337.274,-190.5 192.274,-190.5"/>
<text text-anchor="start" x="200.274" y="-208.5" font-family="Helvetica,sans-Serif" font-size="10.00">Storm/Component/Equipment</text>
<text text-anchor="middle" x="264.774" y="-197.5" font-family="Helvetica,sans-Serif" font-size="10.00">/StageApi.h</text>
</a>
</g>
</g>
<!-- Node2&#45;&gt;Node7 -->
<g id="edge8" class="edge"><title>Node2&#45;&gt;Node7</title>
<path fill="none" stroke="midnightblue" d="M302.571,-254.673C294.27,-244.094 283.684,-230.602 275.828,-220.589"/>
<polygon fill="midnightblue" stroke="midnightblue" points="299.969,-257.027 308.895,-262.734 305.476,-252.706 299.969,-257.027"/>
</g>
<!-- Node3&#45;&gt;Node4 -->
<g id="edge3" class="edge"><title>Node3&#45;&gt;Node4</title>
<path fill="none" stroke="midnightblue" d="M71.4587,-114.709C61.5221,-96.8135 52.7878,-72.281 66.7736,-56 94.7088,-23.4803 209.818,-14.2001 287.712,-11.7029"/>
<polygon fill="midnightblue" stroke="midnightblue" points="68.5116,-116.6 76.6505,-123.383 74.5179,-113.005 68.5116,-116.6"/>
</g>
<!-- Node5&#45;&gt;Node4 -->
<g id="edge5" class="edge"><title>Node5&#45;&gt;Node4</title>
<path fill="none" stroke="midnightblue" d="M409.232,-113.435C406.223,-96.7962 401.045,-74.4262 392.774,-56 386.635,-42.3254 376.265,-28.3889 369.225,-19.7228"/>
<polygon fill="midnightblue" stroke="midnightblue" points="405.805,-114.157 410.908,-123.442 412.709,-113.002 405.805,-114.157"/>
</g>
<!-- Node6&#45;&gt;Node4 -->
<g id="edge7" class="edge"><title>Node6&#45;&gt;Node4</title>
<path fill="none" stroke="midnightblue" d="M468.195,-52.6583C440.317,-41.7455 405.898,-28.2724 383.891,-19.6578"/>
<polygon fill="midnightblue" stroke="midnightblue" points="467.164,-56.0133 477.752,-56.3993 469.716,-49.4949 467.164,-56.0133"/>
</g>
<!-- Node7&#45;&gt;Node3 -->
<g id="edge9" class="edge"><title>Node7&#45;&gt;Node3</title>
<path fill="none" stroke="midnightblue" d="M216.728,-186.955C188.055,-176.485 152.129,-163.366 125.322,-153.577"/>
<polygon fill="midnightblue" stroke="midnightblue" points="215.556,-190.253 226.15,-190.396 217.957,-183.678 215.556,-190.253"/>
</g>
<!-- Node7&#45;&gt;Node5 -->
<g id="edge10" class="edge"><title>Node7&#45;&gt;Node5</title>
<path fill="none" stroke="midnightblue" d="M306.285,-186.269C329.857,-175.916 358.918,-163.153 380.722,-153.577"/>
<polygon fill="midnightblue" stroke="midnightblue" points="304.636,-183.17 296.887,-190.396 307.451,-189.579 304.636,-183.17"/>
</g>
<!-- Node8 -->
<g id="node8" class="node"><title>Node8</title>
<g id="a_node8"><a xlink:href="_storm_2_component_2_equipment_2_stage_2_basic_8h.html" target="_top" xlink:title=" ">
<polygon fill="white" stroke="black" points="177.274,-123.5 177.274,-153.5 322.274,-153.5 322.274,-123.5 177.274,-123.5"/>
<text text-anchor="start" x="185.274" y="-141.5" font-family="Helvetica,sans-Serif" font-size="10.00">Storm/Component/Equipment</text>
<text text-anchor="middle" x="249.774" y="-130.5" font-family="Helvetica,sans-Serif" font-size="10.00">/Stage/Basic.h</text>
</a>
</g>
</g>
<!-- Node7&#45;&gt;Node8 -->
<g id="edge11" class="edge"><title>Node7&#45;&gt;Node8</title>
<path fill="none" stroke="midnightblue" d="M259.213,-180.403C257.128,-171.37 254.829,-161.408 253.022,-153.577"/>
<polygon fill="midnightblue" stroke="midnightblue" points="255.86,-181.439 261.519,-190.396 262.68,-179.865 255.86,-181.439"/>
</g>
<!-- Node9 -->
<g id="node9" class="node"><title>Node9</title>
<g id="a_node9"><a xlink:href="_basic_cooling_8h.html" target="_top" xlink:title=" ">
<polygon fill="white" stroke="black" points="76.2736,-56.5 76.2736,-86.5 221.274,-86.5 221.274,-56.5 76.2736,-56.5"/>
<text text-anchor="start" x="84.2736" y="-74.5" font-family="Helvetica,sans-Serif" font-size="10.00">Storm/Component/Equipment</text>
<text text-anchor="middle" x="148.774" y="-63.5" font-family="Helvetica,sans-Serif" font-size="10.00">/Stage/BasicCooling.h</text>
</a>
</g>
</g>
<!-- Node8&#45;&gt;Node9 -->
<g id="edge12" class="edge"><title>Node8&#45;&gt;Node9</title>
<path fill="none" stroke="midnightblue" d="M219.06,-117.734C203.431,-107.676 184.799,-95.6847 170.646,-86.5765"/>
<polygon fill="midnightblue" stroke="midnightblue" points="217.555,-120.927 227.858,-123.396 221.343,-115.041 217.555,-120.927"/>
</g>
<!-- Node10 -->
<g id="node10" class="node"><title>Node10</title>
<g id="a_node10"><a xlink:href="_basic_indoor_heat_8h.html" target="_top" xlink:title=" ">
<polygon fill="white" stroke="black" points="239.274,-56.5 239.274,-86.5 384.274,-86.5 384.274,-56.5 239.274,-56.5"/>
<text text-anchor="start" x="247.274" y="-74.5" font-family="Helvetica,sans-Serif" font-size="10.00">Storm/Component/Equipment</text>
<text text-anchor="middle" x="311.774" y="-63.5" font-family="Helvetica,sans-Serif" font-size="10.00">/Stage/BasicIndoorHeat.h</text>
</a>
</g>
</g>
<!-- Node8&#45;&gt;Node10 -->
<g id="edge14" class="edge"><title>Node8&#45;&gt;Node10</title>
<path fill="none" stroke="midnightblue" d="M270.258,-116.024C279.496,-106.34 290.146,-95.1739 298.347,-86.5765"/>
<polygon fill="midnightblue" stroke="midnightblue" points="267.596,-113.744 263.227,-123.396 272.661,-118.576 267.596,-113.744"/>
</g>
<!-- Node9&#45;&gt;Node4 -->
<g id="edge13" class="edge"><title>Node9&#45;&gt;Node4</title>
<path fill="none" stroke="midnightblue" d="M208.625,-53.7808C248.579,-42.62 299.449,-28.4098 331.322,-19.5064"/>
<polygon fill="midnightblue" stroke="midnightblue" points="207.671,-50.4132 198.982,-56.4747 209.555,-57.1551 207.671,-50.4132"/>
</g>
<!-- Node10&#45;&gt;Node4 -->
<g id="edge15" class="edge"><title>Node10&#45;&gt;Node4</title>
<path fill="none" stroke="midnightblue" d="M330.09,-48.7037C338.55,-38.636 348.112,-27.2567 354.498,-19.6578"/>
<polygon fill="midnightblue" stroke="midnightblue" points="327.377,-46.4918 323.623,-56.3993 332.736,-50.9952 327.377,-46.4918"/>
</g>
<!-- Node11&#45;&gt;Node4 -->
<g id="edge18" class="edge"><title>Node11&#45;&gt;Node4</title>
<path fill="none" stroke="midnightblue" d="M625.932,-60.1169C563.961,-48.5942 465.12,-30.216 407.537,-19.5091"/>
<polygon fill="midnightblue" stroke="midnightblue" points="625.454,-63.588 635.925,-61.9751 626.734,-56.706 625.454,-63.588"/>
</g>
<!-- Node12&#45;&gt;Node4 -->
<g id="edge20" class="edge"><title>Node12&#45;&gt;Node4</title>
<path fill="none" stroke="midnightblue" d="M791.57,-247.319C802.455,-202.791 817.832,-107.669 767.774,-56 745.167,-32.6659 546.891,-19.6799 436.025,-14.1836"/>
<polygon fill="midnightblue" stroke="midnightblue" points="788.118,-246.691 789.009,-257.249 794.896,-248.44 788.118,-246.691"/>
</g>
<!-- Node14 -->
<g id="node14" class="node"><title>Node14</title>
<g id="a_node14"><a xlink:href="_installer_record_8h_source.html" target="_top" xlink:title=" ">
<polygon fill="white" stroke="black" points="1089.27,-190.5 1089.27,-220.5 1208.27,-220.5 1208.27,-190.5 1089.27,-190.5"/>
<text text-anchor="start" x="1097.27" y="-208.5" font-family="Helvetica,sans-Serif" font-size="10.00">Storm/Thermostat/Main</text>
<text text-anchor="middle" x="1148.77" y="-197.5" font-family="Helvetica,sans-Serif" font-size="10.00">/InstallerRecord.h</text>
</a>
</g>
</g>
<!-- Node13&#45;&gt;Node14 -->
<g id="edge22" class="edge"><title>Node13&#45;&gt;Node14</title>
<path fill="none" stroke="midnightblue" d="M1016.17,-259.058C1043.95,-248.047 1084.45,-231.992 1113.38,-220.528"/>
<polygon fill="midnightblue" stroke="midnightblue" points="1014.56,-255.93 1006.55,-262.869 1017.14,-262.438 1014.56,-255.93"/>
</g>
<!-- Node16 -->
<g id="node16" class="node"><title>Node16</title>
<g id="a_node16"><a xlink:href="_run_time_record_8h_source.html" target="_top" xlink:title=" ">
<polygon fill="white" stroke="black" points="815.274,-190.5 815.274,-220.5 934.274,-220.5 934.274,-190.5 815.274,-190.5"/>
<text text-anchor="start" x="823.274" y="-208.5" font-family="Helvetica,sans-Serif" font-size="10.00">Storm/Thermostat/Main</text>
<text text-anchor="middle" x="874.774" y="-197.5" font-family="Helvetica,sans-Serif" font-size="10.00">/RunTimeRecord.h</text>
</a>
</g>
</g>
<!-- Node13&#45;&gt;Node16 -->
<g id="edge24" class="edge"><title>Node13&#45;&gt;Node16</title>
<path fill="none" stroke="midnightblue" d="M961.257,-257.604C942.785,-246.689 917.171,-231.553 898.617,-220.589"/>
<polygon fill="midnightblue" stroke="midnightblue" points="959.549,-260.66 969.938,-262.734 963.11,-254.633 959.549,-260.66"/>
</g>
<!-- Node17 -->
<g id="node17" class="node"><title>Node17</title>
<g id="a_node17"><a xlink:href="_user_record_8h_source.html" target="_top" xlink:title=" ">
<polygon fill="white" stroke="black" points="952.274,-190.5 952.274,-220.5 1071.27,-220.5 1071.27,-190.5 952.274,-190.5"/>
<text text-anchor="start" x="960.274" y="-208.5" font-family="Helvetica,sans-Serif" font-size="10.00">Storm/Thermostat/Main</text>
<text text-anchor="middle" x="1011.77" y="-197.5" font-family="Helvetica,sans-Serif" font-size="10.00">/UserRecord.h</text>
</a>
</g>
</g>
<!-- Node13&#45;&gt;Node17 -->
<g id="edge26" class="edge"><title>Node13&#45;&gt;Node17</title>
<path fill="none" stroke="midnightblue" d="M992.296,-253.39C996.604,-243.02 1001.93,-230.201 1005.92,-220.589"/>
<polygon fill="midnightblue" stroke="midnightblue" points="989.019,-252.156 988.415,-262.734 995.483,-254.841 989.019,-252.156"/>
</g>
<!-- Node15 -->
<g id="node15" class="node"><title>Node15</title>
<g id="a_node15"><a xlink:href="statics___8h.html" target="_top" xlink:title="This file defines/creates persistent records and record server for the Thermostat simulation.">
<polygon fill="white" stroke="black" points="952.274,-123.5 952.274,-153.5 1071.27,-153.5 1071.27,-123.5 952.274,-123.5"/>
<text text-anchor="start" x="960.274" y="-141.5" font-family="Helvetica,sans-Serif" font-size="10.00">Storm/Thermostat/Main</text>
<text text-anchor="middle" x="1011.77" y="-130.5" font-family="Helvetica,sans-Serif" font-size="10.00">/_simulation/statics_.h</text>
</a>
</g>
</g>
<!-- Node14&#45;&gt;Node15 -->
<g id="edge23" class="edge"><title>Node14&#45;&gt;Node15</title>
<path fill="none" stroke="midnightblue" d="M1109.76,-185.992C1088.05,-175.689 1061.45,-163.068 1041.44,-153.577"/>
<polygon fill="midnightblue" stroke="midnightblue" points="1108.51,-189.272 1119.05,-190.396 1111.51,-182.947 1108.51,-189.272"/>
</g>
<!-- Node16&#45;&gt;Node15 -->
<g id="edge25" class="edge"><title>Node16&#45;&gt;Node15</title>
<path fill="none" stroke="midnightblue" d="M913.783,-185.992C935.498,-175.689 962.1,-163.068 982.105,-153.577"/>
<polygon fill="midnightblue" stroke="midnightblue" points="912.035,-182.947 904.501,-190.396 915.036,-189.272 912.035,-182.947"/>
</g>
<!-- Node17&#45;&gt;Node15 -->
<g id="edge27" class="edge"><title>Node17&#45;&gt;Node15</title>
<path fill="none" stroke="midnightblue" d="M1011.77,-180.108C1011.77,-171.154 1011.77,-161.323 1011.77,-153.577"/>
<polygon fill="midnightblue" stroke="midnightblue" points="1008.27,-180.396 1011.77,-190.396 1015.27,-180.396 1008.27,-180.396"/>
</g>
</g>
</svg>
