<?xml version="1.0" encoding="UTF-8" standalone="no"?>
<!DOCTYPE svg PUBLIC "-//W3C//DTD SVG 1.1//EN"
 "http://www.w3.org/Graphics/SVG/1.1/DTD/svg11.dtd">
<!-- Generated by graphviz version 10.0.1 (20240210.2158)
 -->
<!-- Title: Storm/Dm/MpWhiteBox.h Pages: 1 -->
<svg width="1100pt" height="344pt"
 viewBox="0.00 0.00 1100.12 344.00" xmlns="http://www.w3.org/2000/svg" xmlns:xlink="http://www.w3.org/1999/xlink">
<g id="graph0" class="graph" transform="scale(1 1) rotate(0) translate(4 340)">
<title>Storm/Dm/MpWhiteBox.h</title>
<!-- Node1 -->
<g id="Node000001" class="node">
<title>Node1</title>
<g id="a_Node000001"><a xlink:title=" ">
<polygon fill="#999999" stroke="#666666" points="572,-336 444.25,-336 444.25,-316 572,-316 572,-336"/>
<text text-anchor="middle" x="508.12" y="-322.5" font-family="Helvetica,sans-Serif" font-size="10.00">Storm/Dm/MpWhiteBox.h</text>
</a>
</g>
</g>
<!-- Node2 -->
<g id="Node000002" class="node">
<title>Node2</title>
<g id="a_Node000002"><a xlink:href="_control_8h.html" target="_top" xlink:title=" ">
<polygon fill="white" stroke="#666666" points="396.5,-280 259.75,-280 259.75,-260 396.5,-260 396.5,-280"/>
<text text-anchor="middle" x="328.12" y="-266.5" font-family="Helvetica,sans-Serif" font-size="10.00">Storm/Component/Control.h</text>
</a>
</g>
</g>
<!-- Node1&#45;&gt;Node2 -->
<g id="edge1_Node000001_Node000002" class="edge">
<title>Node1&#45;&gt;Node2</title>
<g id="a_edge1_Node000001_Node000002"><a xlink:title=" ">
<path fill="none" stroke="#63b8ff" d="M465.81,-312.31C433.32,-302.56 389.18,-289.32 359.72,-280.48"/>
<polygon fill="#63b8ff" stroke="#63b8ff" points="464.74,-315.64 475.32,-315.16 466.75,-308.93 464.74,-315.64"/>
</a>
</g>
</g>
<!-- Node11 -->
<g id="Node000011" class="node">
<title>Node11</title>
<g id="a_Node000011"><a xlink:href="_model_points_8h.html" target="_top" xlink:title="This file defines all of the Model Points for the Thermostat Application.">
<polygon fill="white" stroke="#666666" points="820.75,-280 661.5,-280 661.5,-260 820.75,-260 820.75,-280"/>
<text text-anchor="middle" x="741.12" y="-266.5" font-family="Helvetica,sans-Serif" font-size="10.00">Storm/Thermostat/ModelPoints.h</text>
</a>
</g>
</g>
<!-- Node1&#45;&gt;Node11 -->
<g id="edge17_Node000001_Node000011" class="edge">
<title>Node1&#45;&gt;Node11</title>
<g id="a_edge17_Node000001_Node000011"><a xlink:title=" ">
<path fill="none" stroke="#63b8ff" d="M560.17,-312.94C602.49,-303.13 661.36,-289.49 700.32,-280.46"/>
<polygon fill="#63b8ff" stroke="#63b8ff" points="559.4,-309.52 550.45,-315.19 560.98,-316.34 559.4,-309.52"/>
</a>
</g>
</g>
<!-- Node3 -->
<g id="Node000003" class="node">
<title>Node3</title>
<g id="a_Node000003"><a xlink:href="_cooling_8h.html" target="_top" xlink:title=" ">
<polygon fill="white" stroke="#666666" points="344.25,-156 200,-156 200,-124 344.25,-124 344.25,-156"/>
<text text-anchor="start" x="208" y="-142.5" font-family="Helvetica,sans-Serif" font-size="10.00">Storm/Component/Equipment</text>
<text text-anchor="middle" x="272.12" y="-130.5" font-family="Helvetica,sans-Serif" font-size="10.00">/Cooling.h</text>
</a>
</g>
</g>
<!-- Node2&#45;&gt;Node3 -->
<g id="edge2_Node000002_Node000003" class="edge">
<title>Node2&#45;&gt;Node3</title>
<g id="a_edge2_Node000002_Node000003"><a xlink:title=" ">
<path fill="none" stroke="#63b8ff" d="M315.19,-250.38C310.06,-242.48 304.38,-233.03 300.12,-224 289.41,-201.31 280.88,-173.39 276.16,-156.41"/>
<polygon fill="#63b8ff" stroke="#63b8ff" points="312.13,-252.1 320.61,-258.45 317.94,-248.2 312.13,-252.1"/>
</a>
</g>
</g>
<!-- Node4 -->
<g id="Node000004" class="node">
<title>Node4</title>
<g id="a_Node000004"><a xlink:href="_algorithm_8h.html" target="_top" xlink:title=" ">
<polygon fill="white" stroke="#666666" points="339.38,-20 192.88,-20 192.88,0 339.38,0 339.38,-20"/>
<text text-anchor="middle" x="266.12" y="-6.5" font-family="Helvetica,sans-Serif" font-size="10.00">Storm/Thermostat/Algorithm.h</text>
</a>
</g>
</g>
<!-- Node2&#45;&gt;Node4 -->
<g id="edge16_Node000002_Node000004" class="edge">
<title>Node2&#45;&gt;Node4</title>
<g id="a_edge16_Node000002_Node000004"><a xlink:title=" ">
<path fill="none" stroke="#63b8ff" d="M297.61,-254.24C264.37,-236.26 213.01,-202.43 191.12,-156 166.59,-103.96 228.13,-43.28 254.66,-20.38"/>
<polygon fill="#63b8ff" stroke="#63b8ff" points="295.89,-257.29 306.37,-258.82 299.13,-251.08 295.89,-257.29"/>
</a>
</g>
</g>
<!-- Node5 -->
<g id="Node000005" class="node">
<title>Node5</title>
<g id="a_Node000005"><a xlink:href="_indoor_heating_8h.html" target="_top" xlink:title=" ">
<polygon fill="white" stroke="#666666" points="668.25,-156 524,-156 524,-124 668.25,-124 668.25,-156"/>
<text text-anchor="start" x="532" y="-142.5" font-family="Helvetica,sans-Serif" font-size="10.00">Storm/Component/Equipment</text>
<text text-anchor="middle" x="596.12" y="-130.5" font-family="Helvetica,sans-Serif" font-size="10.00">/IndoorHeating.h</text>
</a>
</g>
</g>
<!-- Node2&#45;&gt;Node5 -->
<g id="edge4_Node000002_Node000005" class="edge">
<title>Node2&#45;&gt;Node5</title>
<g id="a_edge4_Node000002_Node000005"><a xlink:title=" ">
<path fill="none" stroke="#63b8ff" d="M374.23,-256.39C400.55,-248.49 433.85,-237.29 462.12,-224 503.98,-204.33 548.97,-174.46 574.72,-156.43"/>
<polygon fill="#63b8ff" stroke="#63b8ff" points="373.47,-252.97 364.86,-259.15 375.44,-259.68 373.47,-252.97"/>
</a>
</g>
</g>
<!-- Node6 -->
<g id="Node000006" class="node">
<title>Node6</title>
<g id="a_Node000006"><a xlink:href="_off_8h.html" target="_top" xlink:title=" ">
<polygon fill="white" stroke="#666666" points="144.25,-88 0,-88 0,-56 144.25,-56 144.25,-88"/>
<text text-anchor="start" x="8" y="-74.5" font-family="Helvetica,sans-Serif" font-size="10.00">Storm/Component/Equipment</text>
<text text-anchor="middle" x="72.12" y="-62.5" font-family="Helvetica,sans-Serif" font-size="10.00">/Off.h</text>
</a>
</g>
</g>
<!-- Node2&#45;&gt;Node6 -->
<g id="edge6_Node000002_Node000006" class="edge">
<title>Node2&#45;&gt;Node6</title>
<g id="a_edge6_Node000002_Node000006"><a xlink:title=" ">
<path fill="none" stroke="#63b8ff" d="M248.21,-261.16C217.6,-254.93 183.88,-243.82 158.12,-224 111.26,-187.94 85.75,-118.58 76.36,-88.05"/>
<polygon fill="#63b8ff" stroke="#63b8ff" points="247.37,-264.56 257.84,-262.96 248.66,-257.68 247.37,-264.56"/>
</a>
</g>
</g>
<!-- Node7 -->
<g id="Node000007" class="node">
<title>Node7</title>
<g id="a_Node000007"><a xlink:href="_stage_api_8h.html" target="_top" xlink:title=" ">
<polygon fill="white" stroke="#666666" points="453.25,-224 309,-224 309,-192 453.25,-192 453.25,-224"/>
<text text-anchor="start" x="317" y="-210.5" font-family="Helvetica,sans-Serif" font-size="10.00">Storm/Component/Equipment</text>
<text text-anchor="middle" x="381.12" y="-198.5" font-family="Helvetica,sans-Serif" font-size="10.00">/StageApi.h</text>
</a>
</g>
</g>
<!-- Node2&#45;&gt;Node7 -->
<g id="edge8_Node000002_Node000007" class="edge">
<title>Node2&#45;&gt;Node7</title>
<g id="a_edge8_Node000002_Node000007"><a xlink:title=" ">
<path fill="none" stroke="#63b8ff" d="M343.94,-251.1C351.52,-242.51 360.51,-232.34 367.75,-224.14"/>
<polygon fill="#63b8ff" stroke="#63b8ff" points="341.41,-248.68 337.41,-258.49 346.65,-253.31 341.41,-248.68"/>
</a>
</g>
</g>
<!-- Node3&#45;&gt;Node4 -->
<g id="edge3_Node000003_Node000004" class="edge">
<title>Node3&#45;&gt;Node4</title>
<g id="a_edge3_Node000003_Node000004"><a xlink:title=" ">
<path fill="none" stroke="#63b8ff" d="M250.13,-115.18C244.06,-107.14 238.28,-97.72 235.12,-88 230.73,-74.47 230.9,-69.58 235.12,-56 239.41,-42.23 249.53,-28.95 257.05,-20.43"/>
<polygon fill="#63b8ff" stroke="#63b8ff" points="247.27,-117.21 256.29,-122.75 252.69,-112.79 247.27,-117.21"/>
</a>
</g>
</g>
<!-- Node5&#45;&gt;Node4 -->
<g id="edge5_Node000005_Node000004" class="edge">
<title>Node5&#45;&gt;Node4</title>
<g id="a_edge5_Node000005_Node000004"><a xlink:title=" ">
<path fill="none" stroke="#63b8ff" d="M591.3,-112.6C586.45,-93.84 577.01,-69.65 559.12,-56 525.63,-30.44 415.1,-19.16 339.8,-14.36"/>
<polygon fill="#63b8ff" stroke="#63b8ff" points="587.86,-113.25 593.49,-122.23 594.69,-111.7 587.86,-113.25"/>
</a>
</g>
</g>
<!-- Node6&#45;&gt;Node4 -->
<g id="edge7_Node000006_Node000004" class="edge">
<title>Node6&#45;&gt;Node4</title>
<g id="a_edge7_Node000006_Node000004"><a xlink:title=" ">
<path fill="none" stroke="#63b8ff" d="M132.87,-52.21C166.94,-41.68 207.97,-28.99 235.42,-20.5"/>
<polygon fill="#63b8ff" stroke="#63b8ff" points="132.05,-48.8 123.53,-55.1 134.12,-55.49 132.05,-48.8"/>
</a>
</g>
</g>
<!-- Node7&#45;&gt;Node3 -->
<g id="edge9_Node000007_Node000003" class="edge">
<title>Node7&#45;&gt;Node3</title>
<g id="a_edge9_Node000007_Node000003"><a xlink:title=" ">
<path fill="none" stroke="#63b8ff" d="M346.11,-185.8C330.3,-176.23 311.98,-165.13 297.52,-156.38"/>
<polygon fill="#63b8ff" stroke="#63b8ff" points="343.91,-188.56 354.27,-190.74 347.53,-182.57 343.91,-188.56"/>
</a>
</g>
</g>
<!-- Node7&#45;&gt;Node5 -->
<g id="edge10_Node000007_Node000005" class="edge">
<title>Node7&#45;&gt;Node5</title>
<g id="a_edge10_Node000007_Node000005"><a xlink:title=" ">
<path fill="none" stroke="#63b8ff" d="M442.32,-188.21C475.01,-178.18 514.76,-165.98 545.66,-156.49"/>
<polygon fill="#63b8ff" stroke="#63b8ff" points="441.51,-184.8 432.98,-191.08 443.57,-191.49 441.51,-184.8"/>
</a>
</g>
</g>
<!-- Node8 -->
<g id="Node000008" class="node">
<title>Node8</title>
<g id="a_Node000008"><a xlink:href="_storm_2_component_2_equipment_2_stage_2_basic_8h.html" target="_top" xlink:title=" ">
<polygon fill="white" stroke="#666666" points="506.25,-156 362,-156 362,-124 506.25,-124 506.25,-156"/>
<text text-anchor="start" x="370" y="-142.5" font-family="Helvetica,sans-Serif" font-size="10.00">Storm/Component/Equipment</text>
<text text-anchor="middle" x="434.12" y="-130.5" font-family="Helvetica,sans-Serif" font-size="10.00">/Stage/Basic.h</text>
</a>
</g>
</g>
<!-- Node7&#45;&gt;Node8 -->
<g id="edge11_Node000007_Node000008" class="edge">
<title>Node7&#45;&gt;Node8</title>
<g id="a_edge11_Node000007_Node000008"><a xlink:title=" ">
<path fill="none" stroke="#63b8ff" d="M400.5,-182.87C407.66,-173.96 415.56,-164.12 421.9,-156.22"/>
<polygon fill="#63b8ff" stroke="#63b8ff" points="397.9,-180.52 394.37,-190.51 403.36,-184.91 397.9,-180.52"/>
</a>
</g>
</g>
<!-- Node9 -->
<g id="Node000009" class="node">
<title>Node9</title>
<g id="a_Node000009"><a xlink:href="_basic_cooling_8h.html" target="_top" xlink:title=" ">
<polygon fill="white" stroke="#666666" points="388.25,-88 244,-88 244,-56 388.25,-56 388.25,-88"/>
<text text-anchor="start" x="252" y="-74.5" font-family="Helvetica,sans-Serif" font-size="10.00">Storm/Component/Equipment</text>
<text text-anchor="middle" x="316.12" y="-62.5" font-family="Helvetica,sans-Serif" font-size="10.00">/Stage/BasicCooling.h</text>
</a>
</g>
</g>
<!-- Node8&#45;&gt;Node9 -->
<g id="edge12_Node000008_Node000009" class="edge">
<title>Node8&#45;&gt;Node9</title>
<g id="a_edge12_Node000008_Node000009"><a xlink:title=" ">
<path fill="none" stroke="#63b8ff" d="M396.7,-118.07C379.48,-108.44 359.42,-97.21 343.62,-88.38"/>
<polygon fill="#63b8ff" stroke="#63b8ff" points="394.7,-120.96 405.14,-122.79 398.12,-114.85 394.7,-120.96"/>
</a>
</g>
</g>
<!-- Node10 -->
<g id="Node000010" class="node">
<title>Node10</title>
<g id="a_Node000010"><a xlink:href="_basic_indoor_heat_8h.html" target="_top" xlink:title=" ">
<polygon fill="white" stroke="#666666" points="550.25,-88 406,-88 406,-56 550.25,-56 550.25,-88"/>
<text text-anchor="start" x="414" y="-74.5" font-family="Helvetica,sans-Serif" font-size="10.00">Storm/Component/Equipment</text>
<text text-anchor="middle" x="478.12" y="-62.5" font-family="Helvetica,sans-Serif" font-size="10.00">/Stage/BasicIndoorHeat.h</text>
</a>
</g>
</g>
<!-- Node8&#45;&gt;Node10 -->
<g id="edge14_Node000008_Node000010" class="edge">
<title>Node8&#45;&gt;Node10</title>
<g id="a_edge14_Node000008_Node000010"><a xlink:title=" ">
<path fill="none" stroke="#63b8ff" d="M450.59,-114.3C456.43,-105.55 462.82,-95.96 467.98,-88.22"/>
<polygon fill="#63b8ff" stroke="#63b8ff" points="447.8,-112.17 445.17,-122.43 453.63,-116.05 447.8,-112.17"/>
</a>
</g>
</g>
<!-- Node9&#45;&gt;Node4 -->
<g id="edge13_Node000009_Node000004" class="edge">
<title>Node9&#45;&gt;Node4</title>
<g id="a_edge13_Node000009_Node000004"><a xlink:title=" ">
<path fill="none" stroke="#63b8ff" d="M296.11,-46.98C288.34,-37.66 279.9,-27.54 273.96,-20.41"/>
<polygon fill="#63b8ff" stroke="#63b8ff" points="293.19,-48.94 302.28,-54.39 298.57,-44.46 293.19,-48.94"/>
</a>
</g>
</g>
<!-- Node10&#45;&gt;Node4 -->
<g id="edge15_Node000010_Node000004" class="edge">
<title>Node10&#45;&gt;Node4</title>
<g id="a_edge15_Node000010_Node000004"><a xlink:title=" ">
<path fill="none" stroke="#63b8ff" d="M412.7,-52.48C375.29,-41.9 329.94,-29.06 299.68,-20.5"/>
<polygon fill="#63b8ff" stroke="#63b8ff" points="411.5,-55.78 422.07,-55.14 413.4,-49.05 411.5,-55.78"/>
</a>
</g>
</g>
<!-- Node12 -->
<g id="Node000012" class="node">
<title>Node12</title>
<g id="a_Node000012"><a xlink:href="_installer_record_8h_source.html" target="_top" xlink:title=" ">
<polygon fill="white" stroke="#666666" points="1092.12,-224 974.12,-224 974.12,-192 1092.12,-192 1092.12,-224"/>
<text text-anchor="start" x="982.12" y="-210.5" font-family="Helvetica,sans-Serif" font-size="10.00">Storm/Thermostat/Main</text>
<text text-anchor="middle" x="1033.12" y="-198.5" font-family="Helvetica,sans-Serif" font-size="10.00">/InstallerRecord.h</text>
</a>
</g>
</g>
<!-- Node11&#45;&gt;Node12 -->
<g id="edge18_Node000011_Node000012" class="edge">
<title>Node11&#45;&gt;Node12</title>
<g id="a_edge18_Node000011_Node000012"><a xlink:title=" ">
<path fill="none" stroke="#63b8ff" d="M800.75,-257.34C845.92,-248.43 909.49,-235.72 965.12,-224 967.96,-223.4 970.87,-222.78 973.8,-222.16"/>
<polygon fill="#63b8ff" stroke="#63b8ff" points="800.3,-253.86 791.17,-259.23 801.65,-260.73 800.3,-253.86"/>
</a>
</g>
</g>
<!-- Node14 -->
<g id="Node000014" class="node">
<title>Node14</title>
<g id="a_Node000014"><a xlink:href="_run_time_record_8h_source.html" target="_top" xlink:title=" ">
<polygon fill="white" stroke="#666666" points="664.12,-224 546.12,-224 546.12,-192 664.12,-192 664.12,-224"/>
<text text-anchor="start" x="554.12" y="-210.5" font-family="Helvetica,sans-Serif" font-size="10.00">Storm/Thermostat/Main</text>
<text text-anchor="middle" x="605.12" y="-198.5" font-family="Helvetica,sans-Serif" font-size="10.00">/RunTimeRecord.h</text>
</a>
</g>
</g>
<!-- Node11&#45;&gt;Node14 -->
<g id="edge20_Node000011_Node000014" class="edge">
<title>Node11&#45;&gt;Node14</title>
<g id="a_edge20_Node000011_Node000014"><a xlink:title=" ">
<path fill="none" stroke="#63b8ff" d="M709.39,-255C688.67,-245.86 661.6,-233.92 640.24,-224.49"/>
<polygon fill="#63b8ff" stroke="#63b8ff" points="707.93,-258.18 718.49,-259.01 710.75,-251.78 707.93,-258.18"/>
</a>
</g>
</g>
<!-- Node15 -->
<g id="Node000015" class="node">
<title>Node15</title>
<g id="a_Node000015"><a xlink:href="_user_record_8h_source.html" target="_top" xlink:title=" ">
<polygon fill="white" stroke="#666666" points="800.12,-224 682.12,-224 682.12,-192 800.12,-192 800.12,-224"/>
<text text-anchor="start" x="690.12" y="-210.5" font-family="Helvetica,sans-Serif" font-size="10.00">Storm/Thermostat/Main</text>
<text text-anchor="middle" x="741.12" y="-198.5" font-family="Helvetica,sans-Serif" font-size="10.00">/UserRecord.h</text>
</a>
</g>
</g>
<!-- Node11&#45;&gt;Node15 -->
<g id="edge22_Node000011_Node000015" class="edge">
<title>Node11&#45;&gt;Node15</title>
<g id="a_edge22_Node000011_Node000015"><a xlink:title=" ">
<path fill="none" stroke="#63b8ff" d="M741.12,-248.31C741.12,-240.37 741.12,-231.46 741.12,-224.14"/>
<polygon fill="#63b8ff" stroke="#63b8ff" points="737.63,-248.11 741.13,-258.11 744.63,-248.11 737.63,-248.11"/>
</a>
</g>
</g>
<!-- Node16 -->
<g id="Node000016" class="node">
<title>Node16</title>
<g id="a_Node000016"><a xlink:href="_event_monitor_8h_source.html" target="_top" xlink:title=" ">
<polygon fill="white" stroke="#666666" points="956.25,-224 818,-224 818,-192 956.25,-192 956.25,-224"/>
<text text-anchor="start" x="826" y="-210.5" font-family="Helvetica,sans-Serif" font-size="10.00">Storm/Thermostat/Ui</text>
<text text-anchor="middle" x="887.12" y="-198.5" font-family="Helvetica,sans-Serif" font-size="10.00">/PicoDisplay/EventMonitor.h</text>
</a>
</g>
</g>
<!-- Node11&#45;&gt;Node16 -->
<g id="edge24_Node000011_Node000016" class="edge">
<title>Node11&#45;&gt;Node16</title>
<g id="a_edge24_Node000011_Node000016"><a xlink:title=" ">
<path fill="none" stroke="#63b8ff" d="M774.58,-255.25C796.9,-246.08 826.29,-234 849.43,-224.49"/>
<polygon fill="#63b8ff" stroke="#63b8ff" points="773.26,-252.01 765.34,-259.05 775.92,-258.49 773.26,-252.01"/>
</a>
</g>
</g>
<!-- Node13 -->
<g id="Node000013" class="node">
<title>Node13</title>
<g id="a_Node000013"><a xlink:href="statics___8h.html" target="_top" xlink:title="This file defines/creates persistent records and record server for the Thermostat simulation.">
<polygon fill="white" stroke="#666666" points="804.12,-156 686.12,-156 686.12,-124 804.12,-124 804.12,-156"/>
<text text-anchor="start" x="694.12" y="-142.5" font-family="Helvetica,sans-Serif" font-size="10.00">Storm/Thermostat/Main</text>
<text text-anchor="middle" x="745.12" y="-130.5" font-family="Helvetica,sans-Serif" font-size="10.00">/_simulation/statics_.h</text>
</a>
</g>
</g>
<!-- Node12&#45;&gt;Node13 -->
<g id="edge19_Node000012_Node000013" class="edge">
<title>Node12&#45;&gt;Node13</title>
<g id="a_edge19_Node000012_Node000013"><a xlink:title=" ">
<path fill="none" stroke="#63b8ff" d="M962.75,-190.87C914.18,-179.74 850.33,-165.11 804.37,-154.58"/>
<polygon fill="#63b8ff" stroke="#63b8ff" points="961.8,-194.24 972.33,-193.07 963.36,-187.42 961.8,-194.24"/>
</a>
</g>
</g>
<!-- Node14&#45;&gt;Node13 -->
<g id="edge21_Node000014_Node000013" class="edge">
<title>Node14&#45;&gt;Node13</title>
<g id="a_edge21_Node000014_Node000013"><a xlink:title=" ">
<path fill="none" stroke="#63b8ff" d="M648.1,-186.74C668.84,-176.96 693.32,-165.42 712.51,-156.38"/>
<polygon fill="#63b8ff" stroke="#63b8ff" points="646.87,-183.45 639.32,-190.88 649.86,-189.78 646.87,-183.45"/>
</a>
</g>
</g>
<!-- Node15&#45;&gt;Node13 -->
<g id="edge23_Node000015_Node000013" class="edge">
<title>Node15&#45;&gt;Node13</title>
<g id="a_edge23_Node000015_Node000013"><a xlink:title=" ">
<path fill="none" stroke="#63b8ff" d="M742.74,-180.31C743.24,-172.12 743.77,-163.38 744.2,-156.22"/>
<polygon fill="#63b8ff" stroke="#63b8ff" points="739.26,-179.99 742.14,-190.18 746.24,-180.41 739.26,-179.99"/>
</a>
</g>
</g>
</g>
</svg>
