<?xml version="1.0" encoding="UTF-8" standalone="no"?>
<!DOCTYPE svg PUBLIC "-//W3C//DTD SVG 1.1//EN"
 "http://www.w3.org/Graphics/SVG/1.1/DTD/svg11.dtd">
<!-- Generated by graphviz version 2.38.0 (20140413.2041)
 -->
<!-- Title: Storm/Dm/MpEquipmentBeginTimes.h Pages: 1 -->
<svg width="2150pt" height="431pt"
 viewBox="0.00 0.00 2150.20 431.00" xmlns="http://www.w3.org/2000/svg" xmlns:xlink="http://www.w3.org/1999/xlink">
<g id="graph0" class="graph" transform="scale(1 1) rotate(0) translate(4 427)">
<title>Storm/Dm/MpEquipmentBeginTimes.h</title>
<polygon fill="white" stroke="none" points="-4,4 -4,-427 2146.2,-427 2146.2,4 -4,4"/>
<!-- Node1 -->
<g id="node1" class="node"><title>Node1</title>
<g id="a_node1"><a xlink:title=" ">
<polygon fill="#bfbfbf" stroke="black" points="1716,-392.5 1716,-422.5 1865,-422.5 1865,-392.5 1716,-392.5"/>
<text text-anchor="start" x="1724" y="-410.5" font-family="Helvetica,sans-Serif" font-size="10.00">Storm/Dm/MpEquipmentBegin</text>
<text text-anchor="middle" x="1790.5" y="-399.5" font-family="Helvetica,sans-Serif" font-size="10.00">Times.h</text>
</a>
</g>
</g>
<!-- Node2 -->
<g id="node2" class="node"><title>Node2</title>
<g id="a_node2"><a xlink:href="_model_point_common___8h.html" target="_top" xlink:title=" ">
<polygon fill="white" stroke="black" points="1243,-336.5 1243,-355.5 1396,-355.5 1396,-336.5 1243,-336.5"/>
<text text-anchor="middle" x="1319.5" y="-343.5" font-family="Helvetica,sans-Serif" font-size="10.00">Cpl/Dm/ModelPointCommon_.h</text>
</a>
</g>
</g>
<!-- Node1&#45;&gt;Node2 -->
<g id="edge1" class="edge"><title>Node1&#45;&gt;Node2</title>
<path fill="none" stroke="midnightblue" d="M1715.87,-397.072C1628.7,-386.06 1485.21,-367.933 1396.87,-356.775"/>
<polygon fill="midnightblue" stroke="midnightblue" points="1397.27,-353.297 1386.91,-355.516 1396.4,-360.242 1397.27,-353.297"/>
</g>
<!-- Node35 -->
<g id="node35" class="node"><title>Node35</title>
<g id="a_node35"><a xlink:href="_f_string_8h.html" target="_top" xlink:title=" ">
<polygon fill="white" stroke="black" points="1951.5,-336.5 1951.5,-355.5 2047.5,-355.5 2047.5,-336.5 1951.5,-336.5"/>
<text text-anchor="middle" x="1999.5" y="-343.5" font-family="Helvetica,sans-Serif" font-size="10.00">Cpl/Text/FString.h</text>
</a>
</g>
</g>
<!-- Node1&#45;&gt;Node35 -->
<g id="edge65" class="edge"><title>Node1&#45;&gt;Node35</title>
<path fill="none" stroke="midnightblue" d="M1839.77,-392.475C1876.45,-382.03 1925.88,-367.958 1959.99,-358.247"/>
<polygon fill="midnightblue" stroke="midnightblue" points="1960.96,-361.611 1969.62,-355.506 1959.04,-354.878 1960.96,-361.611"/>
</g>
<!-- Node38 -->
<g id="node38" class="node"><title>Node38</title>
<g id="a_node38"><a xlink:href="_equipment_times_8h.html" target="_top" xlink:title=" ">
<polygon fill="white" stroke="black" points="1714.5,-336.5 1714.5,-355.5 1866.5,-355.5 1866.5,-336.5 1714.5,-336.5"/>
<text text-anchor="middle" x="1790.5" y="-343.5" font-family="Helvetica,sans-Serif" font-size="10.00">Storm/Type/EquipmentTimes.h</text>
</a>
</g>
</g>
<!-- Node1&#45;&gt;Node38 -->
<g id="edge71" class="edge"><title>Node1&#45;&gt;Node38</title>
<path fill="none" stroke="midnightblue" d="M1790.5,-392.399C1790.5,-384.466 1790.5,-374.458 1790.5,-365.858"/>
<polygon fill="midnightblue" stroke="midnightblue" points="1794,-365.658 1790.5,-355.658 1787,-365.658 1794,-365.658"/>
</g>
<!-- Node3 -->
<g id="node3" class="node"><title>Node3</title>
<g id="a_node3"><a xlink:href="_model_point_8h.html" target="_top" xlink:title=" ">
<polygon fill="white" stroke="black" points="1348,-224.5 1348,-243.5 1457,-243.5 1457,-224.5 1348,-224.5"/>
<text text-anchor="middle" x="1402.5" y="-231.5" font-family="Helvetica,sans-Serif" font-size="10.00">Cpl/Dm/ModelPoint.h</text>
</a>
</g>
</g>
<!-- Node2&#45;&gt;Node3 -->
<g id="edge2" class="edge"><title>Node2&#45;&gt;Node3</title>
<path fill="none" stroke="midnightblue" d="M1326.01,-336.368C1339.77,-318.135 1372,-275.426 1389.92,-251.675"/>
<polygon fill="midnightblue" stroke="midnightblue" points="1392.79,-253.682 1396.02,-243.591 1387.2,-249.466 1392.79,-253.682"/>
</g>
<!-- Node11 -->
<g id="node11" class="node"><title>Node11</title>
<g id="a_node11"><a xlink:title=" ">
<polygon fill="white" stroke="#bfbfbf" points="1295,-0.5 1295,-19.5 1344,-19.5 1344,-0.5 1295,-0.5"/>
<text text-anchor="middle" x="1319.5" y="-7.5" font-family="Helvetica,sans-Serif" font-size="10.00">stdint.h</text>
</a>
</g>
</g>
<!-- Node2&#45;&gt;Node11 -->
<g id="edge63" class="edge"><title>Node2&#45;&gt;Node11</title>
<path fill="none" stroke="midnightblue" d="M1319.5,-336.442C1319.5,-317.936 1319.5,-272.813 1319.5,-235 1319.5,-235 1319.5,-235 1319.5,-121 1319.5,-88.948 1319.5,-51.6426 1319.5,-29.7489"/>
<polygon fill="midnightblue" stroke="midnightblue" points="1323,-29.5577 1319.5,-19.5578 1316,-29.5578 1323,-29.5577"/>
</g>
<!-- Node16 -->
<g id="node16" class="node"><title>Node16</title>
<g id="a_node16"><a xlink:href="_model_database_8h.html" target="_top" xlink:title=" ">
<polygon fill="white" stroke="black" points="1507.5,-280.5 1507.5,-299.5 1635.5,-299.5 1635.5,-280.5 1507.5,-280.5"/>
<text text-anchor="middle" x="1571.5" y="-287.5" font-family="Helvetica,sans-Serif" font-size="10.00">Cpl/Dm/ModelDatabase.h</text>
</a>
</g>
</g>
<!-- Node2&#45;&gt;Node16 -->
<g id="edge22" class="edge"><title>Node2&#45;&gt;Node16</title>
<path fill="none" stroke="midnightblue" d="M1359.43,-336.444C1403.39,-327.023 1474.13,-311.866 1521.68,-301.675"/>
<polygon fill="midnightblue" stroke="midnightblue" points="1522.71,-305.034 1531.76,-299.516 1521.25,-298.189 1522.71,-305.034"/>
</g>
<!-- Node20 -->
<g id="node20" class="node"><title>Node20</title>
<g id="a_node20"><a xlink:href="_subscriber_8h.html" target="_top" xlink:title=" ">
<polygon fill="white" stroke="black" points="338,-280.5 338,-299.5 445,-299.5 445,-280.5 338,-280.5"/>
<text text-anchor="middle" x="391.5" y="-287.5" font-family="Helvetica,sans-Serif" font-size="10.00">Cpl/Dm/Subscriber.h</text>
</a>
</g>
</g>
<!-- Node2&#45;&gt;Node20 -->
<g id="edge31" class="edge"><title>Node2&#45;&gt;Node20</title>
<path fill="none" stroke="midnightblue" d="M1242.77,-340.535C1063.59,-330.109 620.354,-304.317 455.024,-294.696"/>
<polygon fill="midnightblue" stroke="midnightblue" points="455.196,-291.201 445.01,-294.114 454.789,-298.189 455.196,-291.201"/>
</g>
<!-- Node30 -->
<g id="node30" class="node"><title>Node30</title>
<g id="a_node30"><a xlink:href="_d_list_8h.html" target="_top" xlink:title=" ">
<polygon fill="white" stroke="black" points="0,-56.5 0,-75.5 109,-75.5 109,-56.5 0,-56.5"/>
<text text-anchor="middle" x="54.5" y="-63.5" font-family="Helvetica,sans-Serif" font-size="10.00">Cpl/Container/DList.h</text>
</a>
</g>
</g>
<!-- Node2&#45;&gt;Node30 -->
<g id="edge62" class="edge"><title>Node2&#45;&gt;Node30</title>
<path fill="none" stroke="midnightblue" d="M1242.99,-345.681C1076.17,-346.257 667.471,-342.727 328.5,-300 187.968,-282.286 16.5,-376.644 16.5,-235 16.5,-235 16.5,-235 16.5,-177 16.5,-142.813 33.1005,-105.764 44.3573,-84.5707"/>
<polygon fill="midnightblue" stroke="midnightblue" points="47.4473,-86.2151 49.2163,-75.769 41.3191,-82.832 47.4473,-86.2151"/>
</g>
<!-- Node33 -->
<g id="node33" class="node"><title>Node33</title>
<g id="a_node33"><a xlink:title=" ">
<polygon fill="white" stroke="#bfbfbf" points="1243.5,-112.5 1243.5,-131.5 1291.5,-131.5 1291.5,-112.5 1243.5,-112.5"/>
<text text-anchor="middle" x="1267.5" y="-119.5" font-family="Helvetica,sans-Serif" font-size="10.00">stdlib.h</text>
</a>
</g>
</g>
<!-- Node2&#45;&gt;Node33 -->
<g id="edge64" class="edge"><title>Node2&#45;&gt;Node33</title>
<path fill="none" stroke="midnightblue" d="M1294.61,-336.397C1259.9,-322.886 1198.31,-293.049 1172.5,-244 1149.89,-201.041 1207.28,-158.088 1242.46,-136.788"/>
<polygon fill="midnightblue" stroke="midnightblue" points="1244.43,-139.69 1251.29,-131.612 1240.89,-133.651 1244.43,-139.69"/>
</g>
<!-- Node4 -->
<g id="node4" class="node"><title>Node4</title>
<g id="a_node4"><a xlink:title=" ">
<polygon fill="white" stroke="#bfbfbf" points="1671,-0.5 1671,-19.5 1756,-19.5 1756,-0.5 1671,-0.5"/>
<text text-anchor="middle" x="1713.5" y="-7.5" font-family="Helvetica,sans-Serif" font-size="10.00">colony_config.h</text>
</a>
</g>
</g>
<!-- Node3&#45;&gt;Node4 -->
<g id="edge3" class="edge"><title>Node3&#45;&gt;Node4</title>
<path fill="none" stroke="midnightblue" d="M1403.03,-224.304C1404.21,-211.135 1407.91,-185.784 1419.5,-168 1463.2,-100.955 1489.46,-92.8615 1560.5,-56 1592.07,-39.6158 1630.49,-28.3429 1660.93,-21.1775"/>
<polygon fill="midnightblue" stroke="midnightblue" points="1661.95,-24.5347 1670.93,-18.9036 1660.4,-17.7091 1661.95,-24.5347"/>
</g>
<!-- Node5 -->
<g id="node5" class="node"><title>Node5</title>
<g id="a_node5"><a xlink:href="_item_8h.html" target="_top" xlink:title=" ">
<polygon fill="white" stroke="black" points="338.5,-0.5 338.5,-19.5 444.5,-19.5 444.5,-0.5 338.5,-0.5"/>
<text text-anchor="middle" x="391.5" y="-7.5" font-family="Helvetica,sans-Serif" font-size="10.00">Cpl/Container/Item.h</text>
</a>
</g>
</g>
<!-- Node3&#45;&gt;Node5 -->
<g id="edge4" class="edge"><title>Node3&#45;&gt;Node5</title>
<path fill="none" stroke="midnightblue" d="M1347.74,-227.811C1332.16,-226.445 1315.17,-225.058 1299.5,-224 1215.82,-218.348 620.978,-224.576 545.5,-188 508.185,-169.918 432.815,-68.6396 403.524,-27.9377"/>
<polygon fill="midnightblue" stroke="midnightblue" points="406.371,-25.9011 397.706,-19.8045 400.678,-29.974 406.371,-25.9011"/>
</g>
<!-- Node6 -->
<g id="node6" class="node"><title>Node6</title>
<g id="a_node6"><a xlink:href="_string_8h.html" target="_top" xlink:title=" ">
<polygon fill="white" stroke="black" points="1786.5,-168.5 1786.5,-187.5 1876.5,-187.5 1876.5,-168.5 1786.5,-168.5"/>
<text text-anchor="middle" x="1831.5" y="-175.5" font-family="Helvetica,sans-Serif" font-size="10.00">Cpl/Text/String.h</text>
</a>
</g>
</g>
<!-- Node3&#45;&gt;Node6 -->
<g id="edge5" class="edge"><title>Node3&#45;&gt;Node6</title>
<path fill="none" stroke="midnightblue" d="M1457.27,-226.106C1539.45,-215.761 1693.8,-196.332 1776.26,-185.953"/>
<polygon fill="midnightblue" stroke="midnightblue" points="1776.71,-189.425 1786.19,-184.703 1775.83,-182.479 1776.71,-189.425"/>
</g>
<!-- Node10 -->
<g id="node10" class="node"><title>Node10</title>
<g id="a_node10"><a xlink:title=" ">
<polygon fill="white" stroke="#bfbfbf" points="1877.5,-0.5 1877.5,-19.5 1929.5,-19.5 1929.5,-0.5 1877.5,-0.5"/>
<text text-anchor="middle" x="1903.5" y="-7.5" font-family="Helvetica,sans-Serif" font-size="10.00">stddef.h</text>
</a>
</g>
</g>
<!-- Node3&#45;&gt;Node10 -->
<g id="edge20" class="edge"><title>Node3&#45;&gt;Node10</title>
<path fill="none" stroke="midnightblue" d="M1406.23,-224.386C1413.04,-209.852 1428.99,-180.794 1452.5,-168 1538.67,-121.107 1815.65,-192.977 1892.5,-132 1922.56,-108.147 1915.45,-57.0851 1908.82,-29.5349"/>
<polygon fill="midnightblue" stroke="midnightblue" points="1912.14,-28.3959 1906.2,-19.6192 1905.37,-30.1811 1912.14,-28.3959"/>
</g>
<!-- Node3&#45;&gt;Node11 -->
<g id="edge21" class="edge"><title>Node3&#45;&gt;Node11</title>
<path fill="none" stroke="midnightblue" d="M1398.22,-224.486C1393.78,-215.519 1386.77,-200.935 1381.5,-188 1358.32,-131.084 1335.62,-61.8789 1325.29,-29.445"/>
<polygon fill="midnightblue" stroke="midnightblue" points="1328.52,-28.0659 1322.17,-19.5867 1321.85,-30.1766 1328.52,-28.0659"/>
</g>
<!-- Node14 -->
<g id="node14" class="node"><title>Node14</title>
<g id="a_node14"><a xlink:href="_subscriber_api_8h.html" target="_top" xlink:title=" ">
<polygon fill="white" stroke="black" points="83,-112.5 83,-131.5 204,-131.5 204,-112.5 83,-112.5"/>
<text text-anchor="middle" x="143.5" y="-119.5" font-family="Helvetica,sans-Serif" font-size="10.00">Cpl/Dm/SubscriberApi.h</text>
</a>
</g>
</g>
<!-- Node3&#45;&gt;Node14 -->
<g id="edge16" class="edge"><title>Node3&#45;&gt;Node14</title>
<path fill="none" stroke="midnightblue" d="M1347.74,-227.779C1332.16,-226.412 1315.17,-225.033 1299.5,-224 940.812,-200.349 848.61,-229.101 491.5,-188 434.791,-181.473 277.16,-150.196 194.92,-133.523"/>
<polygon fill="midnightblue" stroke="midnightblue" points="195.532,-130.076 185.036,-131.515 194.139,-136.936 195.532,-130.076"/>
</g>
<!-- Node15 -->
<g id="node15" class="node"><title>Node15</title>
<g id="a_node15"><a xlink:href="_arduino_8h_source.html" target="_top" xlink:title=" ">
<polygon fill="white" stroke="black" points="1462,-168.5 1462,-187.5 1561,-187.5 1561,-168.5 1462,-168.5"/>
<text text-anchor="middle" x="1511.5" y="-175.5" font-family="Helvetica,sans-Serif" font-size="10.00">Cpl/Json/Arduino.h</text>
</a>
</g>
</g>
<!-- Node3&#45;&gt;Node15 -->
<g id="edge19" class="edge"><title>Node3&#45;&gt;Node15</title>
<path fill="none" stroke="midnightblue" d="M1420.01,-224.324C1437.57,-215.625 1464.83,-202.12 1485.03,-192.113"/>
<polygon fill="midnightblue" stroke="midnightblue" points="1486.62,-195.23 1494.03,-187.655 1483.52,-188.958 1486.62,-195.23"/>
</g>
<!-- Node7 -->
<g id="node7" class="node"><title>Node7</title>
<g id="a_node7"><a xlink:title=" ">
<polygon fill="white" stroke="#bfbfbf" points="1570,-56.5 1570,-75.5 1647,-75.5 1647,-56.5 1570,-56.5"/>
<text text-anchor="middle" x="1608.5" y="-63.5" font-family="Helvetica,sans-Serif" font-size="10.00">colony_map.h</text>
</a>
</g>
</g>
<!-- Node6&#45;&gt;Node7 -->
<g id="edge6" class="edge"><title>Node6&#45;&gt;Node7</title>
<path fill="none" stroke="midnightblue" d="M1814,-168.368C1775.08,-149.171 1681.16,-102.842 1635,-80.074"/>
<polygon fill="midnightblue" stroke="midnightblue" points="1636.43,-76.8764 1625.92,-75.5914 1633.34,-83.1542 1636.43,-76.8764"/>
</g>
<!-- Node8 -->
<g id="node8" class="node"><title>Node8</title>
<g id="a_node8"><a xlink:href="_key_8h.html" target="_top" xlink:title=" ">
<polygon fill="white" stroke="black" points="1779.5,-112.5 1779.5,-131.5 1883.5,-131.5 1883.5,-112.5 1779.5,-112.5"/>
<text text-anchor="middle" x="1831.5" y="-119.5" font-family="Helvetica,sans-Serif" font-size="10.00">Cpl/Container/Key.h</text>
</a>
</g>
</g>
<!-- Node6&#45;&gt;Node8 -->
<g id="edge7" class="edge"><title>Node6&#45;&gt;Node8</title>
<path fill="none" stroke="midnightblue" d="M1826.33,-168.083C1824.82,-160.927 1824.39,-150.635 1825.04,-141.691"/>
<polygon fill="midnightblue" stroke="midnightblue" points="1828.52,-142.126 1826.37,-131.751 1821.58,-141.2 1828.52,-142.126"/>
</g>
<!-- Node12 -->
<g id="node12" class="node"><title>Node12</title>
<g id="a_node12"><a xlink:title=" ">
<polygon fill="white" stroke="#bfbfbf" points="1939.5,-112.5 1939.5,-131.5 1991.5,-131.5 1991.5,-112.5 1939.5,-112.5"/>
<text text-anchor="middle" x="1965.5" y="-119.5" font-family="Helvetica,sans-Serif" font-size="10.00">stdarg.h</text>
</a>
</g>
</g>
<!-- Node6&#45;&gt;Node12 -->
<g id="edge14" class="edge"><title>Node6&#45;&gt;Node12</title>
<path fill="none" stroke="midnightblue" d="M1852.73,-168.444C1874.88,-159.517 1909.82,-145.439 1934.94,-135.317"/>
<polygon fill="midnightblue" stroke="midnightblue" points="1936.4,-138.501 1944.37,-131.516 1933.78,-132.008 1936.4,-138.501"/>
</g>
<!-- Node13 -->
<g id="node13" class="node"><title>Node13</title>
<g id="a_node13"><a xlink:title=" ">
<polygon fill="white" stroke="#bfbfbf" points="2009.5,-112.5 2009.5,-131.5 2063.5,-131.5 2063.5,-112.5 2009.5,-112.5"/>
<text text-anchor="middle" x="2036.5" y="-119.5" font-family="Helvetica,sans-Serif" font-size="10.00">iostream</text>
</a>
</g>
</g>
<!-- Node6&#45;&gt;Node13 -->
<g id="edge15" class="edge"><title>Node6&#45;&gt;Node13</title>
<path fill="none" stroke="midnightblue" d="M1863.98,-168.444C1900.88,-158.725 1960.96,-142.899 1999.59,-132.722"/>
<polygon fill="midnightblue" stroke="midnightblue" points="2000.63,-136.069 2009.41,-130.137 1998.84,-129.3 2000.63,-136.069"/>
</g>
<!-- Node8&#45;&gt;Node6 -->
<g id="edge12" class="edge"><title>Node8&#45;&gt;Node6</title>
<path fill="none" stroke="midnightblue" d="M1836.63,-131.751C1838.16,-138.858 1838.6,-149.136 1837.97,-158.101"/>
<polygon fill="midnightblue" stroke="midnightblue" points="1834.49,-157.713 1836.67,-168.083 1841.43,-158.622 1834.49,-157.713"/>
</g>
<!-- Node8&#45;&gt;Node7 -->
<g id="edge13" class="edge"><title>Node8&#45;&gt;Node7</title>
<path fill="none" stroke="midnightblue" d="M1796.16,-112.444C1757.59,-103.102 1695.72,-88.1194 1653.65,-77.9326"/>
<polygon fill="midnightblue" stroke="midnightblue" points="1654.21,-74.4683 1643.67,-75.5164 1652.57,-81.2717 1654.21,-74.4683"/>
</g>
<!-- Node9 -->
<g id="node9" class="node"><title>Node9</title>
<g id="a_node9"><a xlink:href="_fatal_error_8h.html" target="_top" xlink:title=" ">
<polygon fill="white" stroke="black" points="1779.5,-56.5 1779.5,-75.5 1901.5,-75.5 1901.5,-56.5 1779.5,-56.5"/>
<text text-anchor="middle" x="1840.5" y="-63.5" font-family="Helvetica,sans-Serif" font-size="10.00">Cpl/System/FatalError.h</text>
</a>
</g>
</g>
<!-- Node8&#45;&gt;Node9 -->
<g id="edge8" class="edge"><title>Node8&#45;&gt;Node9</title>
<path fill="none" stroke="midnightblue" d="M1832.99,-112.083C1834.18,-104.927 1835.89,-94.6353 1837.38,-85.6911"/>
<polygon fill="midnightblue" stroke="midnightblue" points="1840.85,-86.1904 1839.04,-75.7511 1833.95,-85.0396 1840.85,-86.1904"/>
</g>
<!-- Node8&#45;&gt;Node11 -->
<g id="edge11" class="edge"><title>Node8&#45;&gt;Node11</title>
<path fill="none" stroke="midnightblue" d="M1816.75,-112.381C1791.57,-98.1086 1738.29,-69.7751 1689.5,-56 1569.75,-22.1924 1421.13,-13.7838 1354.59,-11.6924"/>
<polygon fill="midnightblue" stroke="midnightblue" points="1354.35,-8.18432 1344.25,-11.3985 1354.15,-15.1815 1354.35,-8.18432"/>
</g>
<!-- Node9&#45;&gt;Node4 -->
<g id="edge10" class="edge"><title>Node9&#45;&gt;Node4</title>
<path fill="none" stroke="midnightblue" d="M1820.38,-56.4435C1799.48,-47.5566 1766.57,-33.5632 1742.78,-23.4514"/>
<polygon fill="midnightblue" stroke="midnightblue" points="1744.1,-20.2085 1733.53,-19.5164 1741.36,-26.6504 1744.1,-20.2085"/>
</g>
<!-- Node9&#45;&gt;Node10 -->
<g id="edge9" class="edge"><title>Node9&#45;&gt;Node10</title>
<path fill="none" stroke="midnightblue" d="M1850.62,-56.324C1860.03,-48.2631 1874.24,-36.0765 1885.57,-26.3695"/>
<polygon fill="midnightblue" stroke="midnightblue" points="1887.88,-28.9993 1893.19,-19.8339 1883.32,-23.6844 1887.88,-28.9993"/>
</g>
<!-- Node14&#45;&gt;Node5 -->
<g id="edge17" class="edge"><title>Node14&#45;&gt;Node5</title>
<path fill="none" stroke="midnightblue" d="M152.887,-112.101C168.045,-98.1917 199.37,-71.3112 230.5,-56 263.047,-39.9918 302.186,-28.8889 333.724,-21.7171"/>
<polygon fill="midnightblue" stroke="midnightblue" points="334.666,-25.0939 343.679,-19.5255 333.16,-18.2576 334.666,-25.0939"/>
</g>
<!-- Node14&#45;&gt;Node11 -->
<g id="edge18" class="edge"><title>Node14&#45;&gt;Node11</title>
<path fill="none" stroke="midnightblue" d="M185.348,-112.474C264.287,-96.5102 432.536,-63.0784 491.5,-56 797.171,-19.3055 1169.95,-12.5151 1284.41,-11.2737"/>
<polygon fill="midnightblue" stroke="midnightblue" points="1284.71,-14.771 1294.67,-11.1701 1284.64,-7.77139 1284.71,-14.771"/>
</g>
<!-- Node16&#45;&gt;Node4 -->
<g id="edge23" class="edge"><title>Node16&#45;&gt;Node4</title>
<path fill="none" stroke="midnightblue" d="M1589.03,-280.382C1616.79,-265.695 1670.21,-232.979 1694.5,-188 1722.35,-136.428 1719.36,-64.133 1715.95,-30.118"/>
<polygon fill="midnightblue" stroke="midnightblue" points="1719.38,-29.3193 1714.77,-19.7796 1712.42,-30.1114 1719.38,-29.3193"/>
</g>
<!-- Node16&#45;&gt;Node15 -->
<g id="edge30" class="edge"><title>Node16&#45;&gt;Node15</title>
<path fill="none" stroke="midnightblue" d="M1566.79,-280.368C1556.98,-262.376 1534.16,-220.55 1521.11,-196.627"/>
<polygon fill="midnightblue" stroke="midnightblue" points="1524.05,-194.694 1516.19,-187.591 1517.9,-198.046 1524.05,-194.694"/>
</g>
<!-- Node17 -->
<g id="node17" class="node"><title>Node17</title>
<g id="a_node17"><a xlink:href="_model_database_api_8h.html" target="_top" xlink:title=" ">
<polygon fill="white" stroke="black" points="1751.5,-224.5 1751.5,-243.5 1893.5,-243.5 1893.5,-224.5 1751.5,-224.5"/>
<text text-anchor="middle" x="1822.5" y="-231.5" font-family="Helvetica,sans-Serif" font-size="10.00">Cpl/Dm/ModelDatabaseApi.h</text>
</a>
</g>
</g>
<!-- Node16&#45;&gt;Node17 -->
<g id="edge24" class="edge"><title>Node16&#45;&gt;Node17</title>
<path fill="none" stroke="midnightblue" d="M1611.27,-280.444C1655.06,-271.023 1725.51,-255.866 1772.88,-245.675"/>
<polygon fill="midnightblue" stroke="midnightblue" points="1773.87,-249.041 1782.91,-243.516 1772.4,-242.198 1773.87,-249.041"/>
</g>
<!-- Node18 -->
<g id="node18" class="node"><title>Node18</title>
<g id="a_node18"><a xlink:href="_mutex_8h.html" target="_top" xlink:title=" ">
<polygon fill="white" stroke="black" points="1579.5,-168.5 1579.5,-187.5 1685.5,-187.5 1685.5,-168.5 1579.5,-168.5"/>
<text text-anchor="middle" x="1632.5" y="-175.5" font-family="Helvetica,sans-Serif" font-size="10.00">Cpl/System/Mutex.h</text>
</a>
</g>
</g>
<!-- Node16&#45;&gt;Node18 -->
<g id="edge26" class="edge"><title>Node16&#45;&gt;Node18</title>
<path fill="none" stroke="midnightblue" d="M1576.29,-280.368C1586.26,-262.376 1609.46,-220.55 1622.73,-196.627"/>
<polygon fill="midnightblue" stroke="midnightblue" points="1625.95,-198.034 1627.74,-187.591 1619.83,-194.639 1625.95,-198.034"/>
</g>
<!-- Node19 -->
<g id="node19" class="node"><title>Node19</title>
<g id="a_node19"><a xlink:href="_s_list_8h.html" target="_top" xlink:title=" ">
<polygon fill="white" stroke="black" points="1182,-224.5 1182,-243.5 1291,-243.5 1291,-224.5 1182,-224.5"/>
<text text-anchor="middle" x="1236.5" y="-231.5" font-family="Helvetica,sans-Serif" font-size="10.00">Cpl/Container/SList.h</text>
</a>
</g>
</g>
<!-- Node16&#45;&gt;Node19 -->
<g id="edge28" class="edge"><title>Node16&#45;&gt;Node19</title>
<path fill="none" stroke="midnightblue" d="M1518.42,-280.444C1459,-270.865 1362.78,-255.356 1299.57,-245.167"/>
<polygon fill="midnightblue" stroke="midnightblue" points="1299.76,-241.653 1289.33,-243.516 1298.65,-248.563 1299.76,-241.653"/>
</g>
<!-- Node17&#45;&gt;Node6 -->
<g id="edge25" class="edge"><title>Node17&#45;&gt;Node6</title>
<path fill="none" stroke="midnightblue" d="M1823.99,-224.083C1825.18,-216.927 1826.89,-206.635 1828.38,-197.691"/>
<polygon fill="midnightblue" stroke="midnightblue" points="1831.85,-198.19 1830.04,-187.751 1824.95,-197.04 1831.85,-198.19"/>
</g>
<!-- Node18&#45;&gt;Node7 -->
<g id="edge27" class="edge"><title>Node18&#45;&gt;Node7</title>
<path fill="none" stroke="midnightblue" d="M1630.62,-168.368C1626.74,-150.617 1617.81,-109.666 1612.56,-85.5974"/>
<polygon fill="midnightblue" stroke="midnightblue" points="1615.93,-84.6155 1610.37,-75.5914 1609.09,-86.1077 1615.93,-84.6155"/>
</g>
<!-- Node19&#45;&gt;Node5 -->
<g id="edge29" class="edge"><title>Node19&#45;&gt;Node5</title>
<path fill="none" stroke="midnightblue" d="M1181.9,-232.462C1020.15,-230.488 551.008,-221.872 491.5,-188 431.198,-153.676 404.539,-67.6862 395.414,-29.6256"/>
<polygon fill="midnightblue" stroke="midnightblue" points="398.824,-28.8358 393.209,-19.8513 391.995,-30.3765 398.824,-28.8358"/>
</g>
<!-- Node20&#45;&gt;Node3 -->
<g id="edge33" class="edge"><title>Node20&#45;&gt;Node3</title>
<path fill="none" stroke="midnightblue" d="M445.016,-287.052C585.314,-281.792 975.321,-266.188 1299.5,-244 1311.86,-243.154 1325.05,-242.109 1337.72,-241.035"/>
<polygon fill="midnightblue" stroke="midnightblue" points="1338.08,-244.517 1347.74,-240.171 1337.48,-237.543 1338.08,-244.517"/>
</g>
<!-- Node20&#45;&gt;Node11 -->
<g id="edge61" class="edge"><title>Node20&#45;&gt;Node11</title>
<path fill="none" stroke="midnightblue" d="M394.519,-280.416C407.666,-244.541 463.782,-106.153 563.5,-56 628.396,-23.3607 1144.62,-13.5391 1284.6,-11.4633"/>
<polygon fill="midnightblue" stroke="midnightblue" points="1284.81,-14.9607 1294.75,-11.3166 1284.71,-7.96143 1284.81,-14.9607"/>
</g>
<!-- Node20&#45;&gt;Node14 -->
<g id="edge32" class="edge"><title>Node20&#45;&gt;Node14</title>
<path fill="none" stroke="midnightblue" d="M337.698,-282.099C305.838,-276.011 265.893,-264.722 235.5,-244 195.847,-216.965 166.104,-167.278 152.202,-140.766"/>
<polygon fill="midnightblue" stroke="midnightblue" points="155.166,-138.871 147.517,-131.54 148.925,-142.041 155.166,-138.871"/>
</g>
<!-- Node21 -->
<g id="node21" class="node"><title>Node21</title>
<g id="a_node21"><a xlink:href="_dm_2_event_loop_8h.html" target="_top" xlink:title=" ">
<polygon fill="white" stroke="black" points="245,-224.5 245,-243.5 352,-243.5 352,-224.5 245,-224.5"/>
<text text-anchor="middle" x="298.5" y="-231.5" font-family="Helvetica,sans-Serif" font-size="10.00">Cpl/Dm/EventLoop.h</text>
</a>
</g>
</g>
<!-- Node20&#45;&gt;Node21 -->
<g id="edge34" class="edge"><title>Node20&#45;&gt;Node21</title>
<path fill="none" stroke="midnightblue" d="M376.558,-280.324C361.915,-271.822 339.366,-258.729 322.262,-248.797"/>
<polygon fill="midnightblue" stroke="midnightblue" points="323.81,-245.649 313.405,-243.655 320.295,-251.703 323.81,-245.649"/>
</g>
<!-- Node21&#45;&gt;Node14 -->
<g id="edge58" class="edge"><title>Node21&#45;&gt;Node14</title>
<path fill="none" stroke="midnightblue" d="M281.539,-224.344C265.373,-215.834 240.587,-202.105 220.5,-188 198.514,-172.562 175.198,-152.257 160.059,-138.478"/>
<polygon fill="midnightblue" stroke="midnightblue" points="162.279,-135.764 152.55,-131.567 157.538,-140.915 162.279,-135.764"/>
</g>
<!-- Node22 -->
<g id="node22" class="node"><title>Node22</title>
<g id="a_node22"><a xlink:href="_system_2_event_loop_8h.html" target="_top" xlink:title=" ">
<polygon fill="white" stroke="black" points="555,-168.5 555,-187.5 680,-187.5 680,-168.5 555,-168.5"/>
<text text-anchor="middle" x="617.5" y="-175.5" font-family="Helvetica,sans-Serif" font-size="10.00">Cpl/System/EventLoop.h</text>
</a>
</g>
</g>
<!-- Node21&#45;&gt;Node22 -->
<g id="edge35" class="edge"><title>Node21&#45;&gt;Node22</title>
<path fill="none" stroke="midnightblue" d="M349.046,-224.444C405.512,-214.885 496.874,-199.419 557.069,-189.23"/>
<polygon fill="midnightblue" stroke="midnightblue" points="557.914,-192.636 567.19,-187.516 556.746,-185.735 557.914,-192.636"/>
</g>
<!-- Node21&#45;&gt;Node30 -->
<g id="edge57" class="edge"><title>Node21&#45;&gt;Node30</title>
<path fill="none" stroke="midnightblue" d="M252.22,-224.461C201.081,-212.602 119.844,-186.173 73.5,-132 62.4036,-119.029 57.7824,-99.8638 55.8607,-85.7023"/>
<polygon fill="midnightblue" stroke="midnightblue" points="59.3299,-85.2217 54.8262,-75.6318 52.3665,-85.9371 59.3299,-85.2217"/>
</g>
<!-- Node31 -->
<g id="node31" class="node"><title>Node31</title>
<g id="a_node31"><a xlink:href="_thread_8h.html" target="_top" xlink:title=" ">
<polygon fill="white" stroke="black" points="1006,-168.5 1006,-187.5 1115,-187.5 1115,-168.5 1006,-168.5"/>
<text text-anchor="middle" x="1060.5" y="-175.5" font-family="Helvetica,sans-Serif" font-size="10.00">Cpl/System/Thread.h</text>
</a>
</g>
</g>
<!-- Node21&#45;&gt;Node31 -->
<g id="edge51" class="edge"><title>Node21&#45;&gt;Node31</title>
<path fill="none" stroke="midnightblue" d="M352.082,-229.203C488.382,-219.544 847.931,-194.064 995.69,-183.593"/>
<polygon fill="midnightblue" stroke="midnightblue" points="996.229,-187.063 1005.96,-182.865 995.734,-180.081 996.229,-187.063"/>
</g>
<!-- Node34 -->
<g id="node34" class="node"><title>Node34</title>
<g id="a_node34"><a xlink:href="_notification_api___8h.html" target="_top" xlink:title=" ">
<polygon fill="white" stroke="black" points="229.5,-168.5 229.5,-187.5 357.5,-187.5 357.5,-168.5 229.5,-168.5"/>
<text text-anchor="middle" x="293.5" y="-175.5" font-family="Helvetica,sans-Serif" font-size="10.00">Cpl/Dm/NotificationApi_.h</text>
</a>
</g>
</g>
<!-- Node21&#45;&gt;Node34 -->
<g id="edge59" class="edge"><title>Node21&#45;&gt;Node34</title>
<path fill="none" stroke="midnightblue" d="M297.674,-224.083C297.019,-217.006 296.08,-206.861 295.258,-197.986"/>
<polygon fill="midnightblue" stroke="midnightblue" points="298.717,-197.386 294.31,-187.751 291.747,-198.031 298.717,-197.386"/>
</g>
<!-- Node23 -->
<g id="node23" class="node"><title>Node23</title>
<g id="a_node23"><a xlink:href="_runnable_8h.html" target="_top" xlink:title=" ">
<polygon fill="white" stroke="black" points="904,-112.5 904,-131.5 1023,-131.5 1023,-112.5 904,-112.5"/>
<text text-anchor="middle" x="963.5" y="-119.5" font-family="Helvetica,sans-Serif" font-size="10.00">Cpl/System/Runnable.h</text>
</a>
</g>
</g>
<!-- Node22&#45;&gt;Node23 -->
<g id="edge36" class="edge"><title>Node22&#45;&gt;Node23</title>
<path fill="none" stroke="midnightblue" d="M672.325,-168.444C733.822,-158.846 833.484,-143.292 898.761,-133.104"/>
<polygon fill="midnightblue" stroke="midnightblue" points="899.591,-136.517 908.932,-131.516 898.512,-129.6 899.591,-136.517"/>
</g>
<!-- Node24 -->
<g id="node24" class="node"><title>Node24</title>
<g id="a_node24"><a xlink:href="_semaphore_8h.html" target="_top" xlink:title=" ">
<polygon fill="white" stroke="black" points="757.5,-112.5 757.5,-131.5 885.5,-131.5 885.5,-112.5 757.5,-112.5"/>
<text text-anchor="middle" x="821.5" y="-119.5" font-family="Helvetica,sans-Serif" font-size="10.00">Cpl/System/Semaphore.h</text>
</a>
</g>
</g>
<!-- Node22&#45;&gt;Node24 -->
<g id="edge37" class="edge"><title>Node22&#45;&gt;Node24</title>
<path fill="none" stroke="midnightblue" d="M649.824,-168.444C684.889,-159.162 740.998,-144.309 779.465,-134.127"/>
<polygon fill="midnightblue" stroke="midnightblue" points="780.555,-137.459 789.327,-131.516 778.764,-130.692 780.555,-137.459"/>
</g>
<!-- Node25 -->
<g id="node25" class="node"><title>Node25</title>
<g id="a_node25"><a xlink:href="_signable_8h.html" target="_top" xlink:title=" ">
<polygon fill="white" stroke="black" points="730.5,-56.5 730.5,-75.5 846.5,-75.5 846.5,-56.5 730.5,-56.5"/>
<text text-anchor="middle" x="788.5" y="-63.5" font-family="Helvetica,sans-Serif" font-size="10.00">Cpl/System/Signable.h</text>
</a>
</g>
</g>
<!-- Node22&#45;&gt;Node25 -->
<g id="edge41" class="edge"><title>Node22&#45;&gt;Node25</title>
<path fill="none" stroke="midnightblue" d="M638.971,-168.39C658.346,-160.213 687.285,-146.969 710.5,-132 733.25,-117.331 756.773,-96.8721 771.955,-82.8476"/>
<polygon fill="midnightblue" stroke="midnightblue" points="774.575,-85.1896 779.474,-75.7958 769.786,-80.0838 774.575,-85.1896"/>
</g>
<!-- Node26 -->
<g id="node26" class="node"><title>Node26</title>
<g id="a_node26"><a xlink:href="_event_flag_8h.html" target="_top" xlink:title=" ">
<polygon fill="white" stroke="black" points="573,-56.5 573,-75.5 696,-75.5 696,-56.5 573,-56.5"/>
<text text-anchor="middle" x="634.5" y="-63.5" font-family="Helvetica,sans-Serif" font-size="10.00">Cpl/System/EventFlag.h</text>
</a>
</g>
</g>
<!-- Node22&#45;&gt;Node26 -->
<g id="edge42" class="edge"><title>Node22&#45;&gt;Node26</title>
<path fill="none" stroke="midnightblue" d="M583.733,-168.429C550.254,-158.187 506.383,-138.985 524.5,-112 535.42,-95.7343 553.372,-85.344 571.637,-78.7083"/>
<polygon fill="midnightblue" stroke="midnightblue" points="572.775,-82.0184 581.181,-75.5693 570.588,-75.3688 572.775,-82.0184"/>
</g>
<!-- Node27 -->
<g id="node27" class="node"><title>Node27</title>
<g id="a_node27"><a xlink:href="_shared_event_handler_8h.html" target="_top" xlink:title=" ">
<polygon fill="white" stroke="black" points="533.5,-112.5 533.5,-131.5 701.5,-131.5 701.5,-112.5 533.5,-112.5"/>
<text text-anchor="middle" x="617.5" y="-119.5" font-family="Helvetica,sans-Serif" font-size="10.00">Cpl/System/SharedEventHandler.h</text>
</a>
</g>
</g>
<!-- Node22&#45;&gt;Node27 -->
<g id="edge45" class="edge"><title>Node22&#45;&gt;Node27</title>
<path fill="none" stroke="midnightblue" d="M617.5,-168.083C617.5,-161.006 617.5,-150.861 617.5,-141.986"/>
<polygon fill="midnightblue" stroke="midnightblue" points="621,-141.751 617.5,-131.751 614,-141.751 621,-141.751"/>
</g>
<!-- Node28 -->
<g id="node28" class="node"><title>Node28</title>
<g id="a_node28"><a xlink:href="_timer_manager_8h.html" target="_top" xlink:title=" ">
<polygon fill="white" stroke="black" points="222,-112.5 222,-131.5 363,-131.5 363,-112.5 222,-112.5"/>
<text text-anchor="middle" x="292.5" y="-119.5" font-family="Helvetica,sans-Serif" font-size="10.00">Cpl/System/TimerManager.h</text>
</a>
</g>
</g>
<!-- Node22&#45;&gt;Node28 -->
<g id="edge47" class="edge"><title>Node22&#45;&gt;Node28</title>
<path fill="none" stroke="midnightblue" d="M566.003,-168.444C508.356,-158.865 415.01,-143.356 353.688,-133.167"/>
<polygon fill="midnightblue" stroke="midnightblue" points="354.195,-129.703 343.756,-131.516 353.047,-136.608 354.195,-129.703"/>
</g>
<!-- Node24&#45;&gt;Node7 -->
<g id="edge38" class="edge"><title>Node24&#45;&gt;Node7</title>
<path fill="none" stroke="midnightblue" d="M885.571,-112.881C888.587,-112.568 891.576,-112.272 894.5,-112 1143.95,-88.7834 1443.56,-74.2161 1559.43,-69.0811"/>
<polygon fill="midnightblue" stroke="midnightblue" points="1559.9,-72.5638 1569.74,-68.6278 1559.59,-65.5706 1559.9,-72.5638"/>
</g>
<!-- Node24&#45;&gt;Node25 -->
<g id="edge39" class="edge"><title>Node24&#45;&gt;Node25</title>
<path fill="none" stroke="midnightblue" d="M816.051,-112.083C811.486,-104.613 804.832,-93.7244 799.207,-84.5199"/>
<polygon fill="midnightblue" stroke="midnightblue" points="802.049,-82.4588 793.848,-75.7511 796.076,-86.109 802.049,-82.4588"/>
</g>
<!-- Node25&#45;&gt;Node5 -->
<g id="edge40" class="edge"><title>Node25&#45;&gt;Node5</title>
<path fill="none" stroke="midnightblue" d="M730.348,-57.0901C656.914,-47.1016 531.013,-29.9766 455.092,-19.6498"/>
<polygon fill="midnightblue" stroke="midnightblue" points="455.102,-16.119 444.722,-18.2392 454.159,-23.0552 455.102,-16.119"/>
</g>
<!-- Node26&#45;&gt;Node4 -->
<g id="edge43" class="edge"><title>Node26&#45;&gt;Node4</title>
<path fill="none" stroke="midnightblue" d="M696.246,-58.1679C704.724,-57.3598 713.323,-56.6079 721.5,-56 1079.96,-29.3512 1512.53,-16.2611 1660.73,-12.3206"/>
<polygon fill="midnightblue" stroke="midnightblue" points="1661,-15.8148 1670.91,-12.0527 1660.82,-8.81726 1661,-15.8148"/>
</g>
<!-- Node26&#45;&gt;Node11 -->
<g id="edge44" class="edge"><title>Node26&#45;&gt;Node11</title>
<path fill="none" stroke="midnightblue" d="M696.265,-58.3952C704.74,-57.5518 713.333,-56.7296 721.5,-56 935.465,-36.8861 1192.99,-19.3509 1284.87,-13.266"/>
<polygon fill="midnightblue" stroke="midnightblue" points="1285.24,-16.7491 1294.99,-12.5977 1284.78,-9.76431 1285.24,-16.7491"/>
</g>
<!-- Node27&#45;&gt;Node26 -->
<g id="edge46" class="edge"><title>Node27&#45;&gt;Node26</title>
<path fill="none" stroke="midnightblue" d="M620.307,-112.083C622.585,-104.849 625.871,-94.4087 628.708,-85.3968"/>
<polygon fill="midnightblue" stroke="midnightblue" points="632.081,-86.3406 631.745,-75.7511 625.404,-84.2385 632.081,-86.3406"/>
</g>
<!-- Node29 -->
<g id="node29" class="node"><title>Node29</title>
<g id="a_node29"><a xlink:href="_counter___8h.html" target="_top" xlink:title=" ">
<polygon fill="white" stroke="black" points="239.5,-56.5 239.5,-75.5 357.5,-75.5 357.5,-56.5 239.5,-56.5"/>
<text text-anchor="middle" x="298.5" y="-63.5" font-family="Helvetica,sans-Serif" font-size="10.00">Cpl/System/Counter_.h</text>
</a>
</g>
</g>
<!-- Node28&#45;&gt;Node29 -->
<g id="edge48" class="edge"><title>Node28&#45;&gt;Node29</title>
<path fill="none" stroke="midnightblue" d="M293.491,-112.083C294.286,-104.927 295.429,-94.6353 296.423,-85.6911"/>
<polygon fill="midnightblue" stroke="midnightblue" points="299.902,-86.0765 297.528,-75.7511 292.945,-85.3034 299.902,-86.0765"/>
</g>
<!-- Node28&#45;&gt;Node30 -->
<g id="edge50" class="edge"><title>Node28&#45;&gt;Node30</title>
<path fill="none" stroke="midnightblue" d="M254.788,-112.444C213.357,-103.043 146.743,-87.9291 101.833,-77.7393"/>
<polygon fill="midnightblue" stroke="midnightblue" points="102.562,-74.3159 92.0354,-75.5164 101.013,-81.1424 102.562,-74.3159"/>
</g>
<!-- Node29&#45;&gt;Node5 -->
<g id="edge49" class="edge"><title>Node29&#45;&gt;Node5</title>
<path fill="none" stroke="midnightblue" d="M313.442,-56.324C328.085,-47.8215 350.634,-34.7288 367.738,-24.7975"/>
<polygon fill="midnightblue" stroke="midnightblue" points="369.705,-27.7027 376.595,-19.6545 366.19,-21.6491 369.705,-27.7027"/>
</g>
<!-- Node31&#45;&gt;Node7 -->
<g id="edge52" class="edge"><title>Node31&#45;&gt;Node7</title>
<path fill="none" stroke="midnightblue" d="M1091.01,-168.478C1118.92,-160.312 1161.14,-147.034 1196.5,-132 1214.06,-124.533 1216.28,-117.679 1234.5,-112 1347.27,-76.8545 1487.08,-68.9017 1559.65,-67.2655"/>
<polygon fill="midnightblue" stroke="midnightblue" points="1559.92,-70.7609 1569.85,-67.0674 1559.79,-63.7622 1559.92,-70.7609"/>
</g>
<!-- Node31&#45;&gt;Node23 -->
<g id="edge53" class="edge"><title>Node31&#45;&gt;Node23</title>
<path fill="none" stroke="midnightblue" d="M1044.92,-168.324C1029.5,-159.743 1005.69,-146.486 987.79,-136.522"/>
<polygon fill="midnightblue" stroke="midnightblue" points="989.486,-133.461 979.046,-131.655 986.081,-139.577 989.486,-133.461"/>
</g>
<!-- Node31&#45;&gt;Node25 -->
<g id="edge54" class="edge"><title>Node31&#45;&gt;Node25</title>
<path fill="none" stroke="midnightblue" d="M1059.23,-168.268C1056.68,-154.09 1049.56,-126.221 1031.5,-112 1004.92,-91.0654 918.855,-78.8455 856.692,-72.5482"/>
<polygon fill="midnightblue" stroke="midnightblue" points="856.841,-69.0461 846.547,-71.5511 856.156,-76.0125 856.841,-69.0461"/>
</g>
<!-- Node32 -->
<g id="node32" class="node"><title>Node32</title>
<g id="a_node32"><a xlink:href="_traverser_8h.html" target="_top" xlink:title=" ">
<polygon fill="white" stroke="black" points="1079.5,-112.5 1079.5,-131.5 1187.5,-131.5 1187.5,-112.5 1079.5,-112.5"/>
<text text-anchor="middle" x="1133.5" y="-119.5" font-family="Helvetica,sans-Serif" font-size="10.00">Cpl/Type/Traverser.h</text>
</a>
</g>
</g>
<!-- Node31&#45;&gt;Node32 -->
<g id="edge55" class="edge"><title>Node31&#45;&gt;Node32</title>
<path fill="none" stroke="midnightblue" d="M1072.23,-168.324C1083.34,-160.107 1100.24,-147.602 1113.48,-137.807"/>
<polygon fill="midnightblue" stroke="midnightblue" points="1115.6,-140.595 1121.56,-131.834 1111.44,-134.967 1115.6,-140.595"/>
</g>
<!-- Node31&#45;&gt;Node33 -->
<g id="edge56" class="edge"><title>Node31&#45;&gt;Node33</title>
<path fill="none" stroke="midnightblue" d="M1093.3,-168.444C1131.6,-158.452 1194.65,-142.005 1233.47,-131.878"/>
<polygon fill="midnightblue" stroke="midnightblue" points="1234.47,-135.234 1243.26,-129.323 1232.7,-128.461 1234.47,-135.234"/>
</g>
<!-- Node34&#45;&gt;Node14 -->
<g id="edge60" class="edge"><title>Node34&#45;&gt;Node14</title>
<path fill="none" stroke="midnightblue" d="M269.732,-168.444C244.607,-159.399 204.789,-145.064 176.6,-134.916"/>
<polygon fill="midnightblue" stroke="midnightblue" points="177.751,-131.611 167.157,-131.516 175.38,-138.197 177.751,-131.611"/>
</g>
<!-- Node35&#45;&gt;Node6 -->
<g id="edge70" class="edge"><title>Node35&#45;&gt;Node6</title>
<path fill="none" stroke="midnightblue" d="M2000.95,-336.42C2004.09,-314.688 2009.13,-256.87 1980.5,-224 1957.28,-197.341 1918.87,-186.178 1886.87,-181.634"/>
<polygon fill="midnightblue" stroke="midnightblue" points="1887.08,-178.134 1876.73,-180.381 1886.22,-185.082 1887.08,-178.134"/>
</g>
<!-- Node36 -->
<g id="node36" class="node"><title>Node36</title>
<g id="a_node36"><a xlink:href="_f_string___8h.html" target="_top" xlink:title=" ">
<polygon fill="white" stroke="black" points="2028,-280.5 2028,-299.5 2129,-299.5 2129,-280.5 2028,-280.5"/>
<text text-anchor="middle" x="2078.5" y="-287.5" font-family="Helvetica,sans-Serif" font-size="10.00">Cpl/Text/FString_.h</text>
</a>
</g>
</g>
<!-- Node35&#45;&gt;Node36 -->
<g id="edge66" class="edge"><title>Node35&#45;&gt;Node36</title>
<path fill="none" stroke="midnightblue" d="M2012.19,-336.324C2024.4,-327.979 2043.08,-315.212 2057.5,-305.352"/>
<polygon fill="midnightblue" stroke="midnightblue" points="2059.56,-308.187 2065.84,-299.655 2055.61,-302.408 2059.56,-308.187"/>
</g>
<!-- Node36&#45;&gt;Node4 -->
<g id="edge67" class="edge"><title>Node36&#45;&gt;Node4</title>
<path fill="none" stroke="midnightblue" d="M2095.13,-280.464C2107.99,-272.841 2124.84,-260.356 2132.5,-244 2155.83,-194.191 2136.51,-166.566 2072.5,-112 1983.91,-36.4829 1842.68,-17.2215 1766.45,-12.4459"/>
<polygon fill="midnightblue" stroke="midnightblue" points="1766.31,-8.933 1756.13,-11.8639 1765.92,-15.9219 1766.31,-8.933"/>
</g>
<!-- Node37 -->
<g id="node37" class="node"><title>Node37</title>
<g id="a_node37"><a xlink:href="_text_2_string___8h.html" target="_top" xlink:title=" ">
<polygon fill="white" stroke="black" points="2028,-224.5 2028,-243.5 2123,-243.5 2123,-224.5 2028,-224.5"/>
<text text-anchor="middle" x="2075.5" y="-231.5" font-family="Helvetica,sans-Serif" font-size="10.00">Cpl/Text/String_.h</text>
</a>
</g>
</g>
<!-- Node36&#45;&gt;Node37 -->
<g id="edge68" class="edge"><title>Node36&#45;&gt;Node37</title>
<path fill="none" stroke="midnightblue" d="M2078,-280.083C2077.61,-273.006 2077.05,-262.861 2076.55,-253.986"/>
<polygon fill="midnightblue" stroke="midnightblue" points="2080.04,-253.542 2075.99,-243.751 2073.05,-253.93 2080.04,-253.542"/>
</g>
<!-- Node37&#45;&gt;Node6 -->
<g id="edge69" class="edge"><title>Node37&#45;&gt;Node6</title>
<path fill="none" stroke="midnightblue" d="M2036.84,-224.444C1994.36,-215.043 1926.07,-199.929 1880.03,-189.739"/>
<polygon fill="midnightblue" stroke="midnightblue" points="1880.5,-186.26 1869.98,-187.516 1878.99,-193.095 1880.5,-186.26"/>
</g>
<!-- Node39 -->
<g id="node39" class="node"><title>Node39</title>
<g id="a_node39"><a xlink:href="_elapsed_time_8h.html" target="_top" xlink:title=" ">
<polygon fill="white" stroke="black" points="1722.5,-280.5 1722.5,-299.5 1858.5,-299.5 1858.5,-280.5 1722.5,-280.5"/>
<text text-anchor="middle" x="1790.5" y="-287.5" font-family="Helvetica,sans-Serif" font-size="10.00">Cpl/System/ElapsedTime.h</text>
</a>
</g>
</g>
<!-- Node38&#45;&gt;Node39 -->
<g id="edge72" class="edge"><title>Node38&#45;&gt;Node39</title>
<path fill="none" stroke="midnightblue" d="M1790.5,-336.083C1790.5,-329.006 1790.5,-318.861 1790.5,-309.986"/>
<polygon fill="midnightblue" stroke="midnightblue" points="1794,-309.751 1790.5,-299.751 1787,-309.751 1794,-309.751"/>
</g>
<!-- Node39&#45;&gt;Node11 -->
<g id="edge73" class="edge"><title>Node39&#45;&gt;Node11</title>
<path fill="none" stroke="midnightblue" d="M1779.03,-280.378C1768.48,-271.996 1752.93,-258.445 1742.5,-244 1688.59,-169.364 1729.61,-110.632 1655.5,-56 1608.22,-21.1447 1430.39,-13.2858 1354.34,-11.5148"/>
<polygon fill="midnightblue" stroke="midnightblue" points="1354.38,-8.01496 1344.31,-11.3031 1354.24,-15.0134 1354.38,-8.01496"/>
</g>
<!-- Node40 -->
<g id="node40" class="node"><title>Node40</title>
<g id="a_node40"><a xlink:title=" ">
<polygon fill="white" stroke="#bfbfbf" points="1911.5,-224.5 1911.5,-243.5 1971.5,-243.5 1971.5,-224.5 1911.5,-224.5"/>
<text text-anchor="middle" x="1941.5" y="-231.5" font-family="Helvetica,sans-Serif" font-size="10.00">memory.h</text>
</a>
</g>
</g>
<!-- Node39&#45;&gt;Node40 -->
<g id="edge74" class="edge"><title>Node39&#45;&gt;Node40</title>
<path fill="none" stroke="midnightblue" d="M1814.43,-280.444C1839.72,-271.399 1879.8,-257.064 1908.18,-246.916"/>
<polygon fill="midnightblue" stroke="midnightblue" points="1909.45,-250.179 1917.69,-243.516 1907.09,-243.588 1909.45,-250.179"/>
</g>
</g>
</svg>
