<?xml version="1.0" encoding="UTF-8" standalone="no"?>
<!DOCTYPE svg PUBLIC "-//W3C//DTD SVG 1.1//EN"
 "http://www.w3.org/Graphics/SVG/1.1/DTD/svg11.dtd">
<!-- Generated by graphviz version 2.38.0 (20140413.2041)
 -->
<!-- Title: Storm/Dm/MpHvacRelayOutputs.h Pages: 1 -->
<svg width="2093pt" height="420pt"
 viewBox="0.00 0.00 2093.12 420.00" xmlns="http://www.w3.org/2000/svg" xmlns:xlink="http://www.w3.org/1999/xlink">
<g id="graph0" class="graph" transform="scale(1 1) rotate(0) translate(4 416)">
<title>Storm/Dm/MpHvacRelayOutputs.h</title>
<polygon fill="white" stroke="none" points="-4,4 -4,-416 2089.12,-416 2089.12,4 -4,4"/>
<!-- Node1 -->
<g id="node1" class="node"><title>Node1</title>
<g id="a_node1"><a xlink:title=" ">
<polygon fill="#bfbfbf" stroke="black" points="1658.62,-392.5 1658.62,-411.5 1825.62,-411.5 1825.62,-392.5 1658.62,-392.5"/>
<text text-anchor="middle" x="1742.12" y="-399.5" font-family="Helvetica,sans-Serif" font-size="10.00">Storm/Dm/MpHvacRelayOutputs.h</text>
</a>
</g>
</g>
<!-- Node2 -->
<g id="node2" class="node"><title>Node2</title>
<g id="a_node2"><a xlink:href="_model_point_common___8h.html" target="_top" xlink:title=" ">
<polygon fill="white" stroke="black" points="1224.62,-336.5 1224.62,-355.5 1377.62,-355.5 1377.62,-336.5 1224.62,-336.5"/>
<text text-anchor="middle" x="1301.12" y="-343.5" font-family="Helvetica,sans-Serif" font-size="10.00">Cpl/Dm/ModelPointCommon_.h</text>
</a>
</g>
</g>
<!-- Node1&#45;&gt;Node2 -->
<g id="edge1" class="edge"><title>Node1&#45;&gt;Node2</title>
<path fill="none" stroke="midnightblue" d="M1672.24,-392.444C1592.97,-382.737 1463.95,-366.939 1380.83,-356.76"/>
<polygon fill="midnightblue" stroke="midnightblue" points="1381.02,-353.258 1370.67,-355.516 1380.17,-360.206 1381.02,-353.258"/>
</g>
<!-- Node35 -->
<g id="node35" class="node"><title>Node35</title>
<g id="a_node35"><a xlink:href="_f_string_8h.html" target="_top" xlink:title=" ">
<polygon fill="white" stroke="black" points="1694.12,-336.5 1694.12,-355.5 1790.12,-355.5 1790.12,-336.5 1694.12,-336.5"/>
<text text-anchor="middle" x="1742.12" y="-343.5" font-family="Helvetica,sans-Serif" font-size="10.00">Cpl/Text/FString.h</text>
</a>
</g>
</g>
<!-- Node1&#45;&gt;Node35 -->
<g id="edge65" class="edge"><title>Node1&#45;&gt;Node35</title>
<path fill="none" stroke="midnightblue" d="M1742.12,-392.083C1742.12,-385.006 1742.12,-374.861 1742.12,-365.986"/>
<polygon fill="midnightblue" stroke="midnightblue" points="1745.62,-365.751 1742.12,-355.751 1738.62,-365.751 1745.62,-365.751"/>
</g>
<!-- Node38 -->
<g id="node38" class="node"><title>Node38</title>
<g id="a_node38"><a xlink:href="_type_2_hvac_relay_outputs_8h.html" target="_top" xlink:title=" ">
<polygon fill="white" stroke="black" points="1857.62,-112.5 1857.62,-131.5 2018.62,-131.5 2018.62,-112.5 1857.62,-112.5"/>
<text text-anchor="middle" x="1938.12" y="-119.5" font-family="Helvetica,sans-Serif" font-size="10.00">Storm/Type/HvacRelayOutputs.h</text>
</a>
</g>
</g>
<!-- Node1&#45;&gt;Node38 -->
<g id="edge71" class="edge"><title>Node1&#45;&gt;Node38</title>
<path fill="none" stroke="midnightblue" d="M1815.28,-392.496C1916.02,-378.712 2085.12,-347.204 2085.12,-291 2085.12,-291 2085.12,-291 2085.12,-233 2085.12,-180.252 2023.69,-149.734 1980.26,-134.748"/>
<polygon fill="midnightblue" stroke="midnightblue" points="1981.34,-131.419 1970.74,-131.611 1979.15,-138.067 1981.34,-131.419"/>
</g>
<!-- Node3 -->
<g id="node3" class="node"><title>Node3</title>
<g id="a_node3"><a xlink:href="_model_point_8h.html" target="_top" xlink:title=" ">
<polygon fill="white" stroke="black" points="1329.62,-224.5 1329.62,-243.5 1438.62,-243.5 1438.62,-224.5 1329.62,-224.5"/>
<text text-anchor="middle" x="1384.12" y="-231.5" font-family="Helvetica,sans-Serif" font-size="10.00">Cpl/Dm/ModelPoint.h</text>
</a>
</g>
</g>
<!-- Node2&#45;&gt;Node3 -->
<g id="edge2" class="edge"><title>Node2&#45;&gt;Node3</title>
<path fill="none" stroke="midnightblue" d="M1307.63,-336.368C1321.39,-318.135 1353.62,-275.426 1371.54,-251.675"/>
<polygon fill="midnightblue" stroke="midnightblue" points="1374.41,-253.682 1377.64,-243.591 1368.82,-249.466 1374.41,-253.682"/>
</g>
<!-- Node11 -->
<g id="node11" class="node"><title>Node11</title>
<g id="a_node11"><a xlink:title=" ">
<polygon fill="white" stroke="#bfbfbf" points="1283.62,-0.5 1283.62,-19.5 1332.62,-19.5 1332.62,-0.5 1283.62,-0.5"/>
<text text-anchor="middle" x="1308.12" y="-7.5" font-family="Helvetica,sans-Serif" font-size="10.00">stdint.h</text>
</a>
</g>
</g>
<!-- Node2&#45;&gt;Node11 -->
<g id="edge63" class="edge"><title>Node2&#45;&gt;Node11</title>
<path fill="none" stroke="midnightblue" d="M1301.3,-336.408C1302.22,-292.475 1306.41,-92.5716 1307.73,-29.8701"/>
<polygon fill="midnightblue" stroke="midnightblue" points="1311.23,-29.6062 1307.94,-19.5351 1304.23,-29.4595 1311.23,-29.6062"/>
</g>
<!-- Node16 -->
<g id="node16" class="node"><title>Node16</title>
<g id="a_node16"><a xlink:href="_model_database_8h.html" target="_top" xlink:title=" ">
<polygon fill="white" stroke="black" points="1416.12,-280.5 1416.12,-299.5 1544.12,-299.5 1544.12,-280.5 1416.12,-280.5"/>
<text text-anchor="middle" x="1480.12" y="-287.5" font-family="Helvetica,sans-Serif" font-size="10.00">Cpl/Dm/ModelDatabase.h</text>
</a>
</g>
</g>
<!-- Node2&#45;&gt;Node16 -->
<g id="edge22" class="edge"><title>Node2&#45;&gt;Node16</title>
<path fill="none" stroke="midnightblue" d="M1329.48,-336.444C1359.86,-327.28 1408.23,-312.688 1441.94,-302.519"/>
<polygon fill="midnightblue" stroke="midnightblue" points="1443.33,-305.756 1451.89,-299.516 1441.31,-299.054 1443.33,-305.756"/>
</g>
<!-- Node20 -->
<g id="node20" class="node"><title>Node20</title>
<g id="a_node20"><a xlink:href="_subscriber_8h.html" target="_top" xlink:title=" ">
<polygon fill="white" stroke="black" points="288.621,-280.5 288.621,-299.5 395.621,-299.5 395.621,-280.5 288.621,-280.5"/>
<text text-anchor="middle" x="342.121" y="-287.5" font-family="Helvetica,sans-Serif" font-size="10.00">Cpl/Dm/Subscriber.h</text>
</a>
</g>
</g>
<!-- Node2&#45;&gt;Node20 -->
<g id="edge31" class="edge"><title>Node2&#45;&gt;Node20</title>
<path fill="none" stroke="midnightblue" d="M1224.26,-340.672C1040.02,-330.298 575.866,-304.162 405.824,-294.587"/>
<polygon fill="midnightblue" stroke="midnightblue" points="405.957,-291.089 395.776,-294.021 405.564,-298.078 405.957,-291.089"/>
</g>
<!-- Node30 -->
<g id="node30" class="node"><title>Node30</title>
<g id="a_node30"><a xlink:href="_d_list_8h.html" target="_top" xlink:title=" ">
<polygon fill="white" stroke="black" points="106.621,-56.5 106.621,-75.5 215.621,-75.5 215.621,-56.5 106.621,-56.5"/>
<text text-anchor="middle" x="161.121" y="-63.5" font-family="Helvetica,sans-Serif" font-size="10.00">Cpl/Container/DList.h</text>
</a>
</g>
</g>
<!-- Node2&#45;&gt;Node30 -->
<g id="edge62" class="edge"><title>Node2&#45;&gt;Node30</title>
<path fill="none" stroke="midnightblue" d="M1224.26,-343.457C1019.06,-339.044 461.561,-325.049 279.121,-300 152.983,-282.681 0.120799,-362.321 0.120799,-235 0.120799,-235 0.120799,-235 0.120799,-177 0.120799,-146.641 -0.362396,-133.451 21.1208,-112 41.1452,-92.0054 70.0744,-80.8891 96.4435,-74.7113"/>
<polygon fill="midnightblue" stroke="midnightblue" points="97.3561,-78.0953 106.401,-72.5771 95.889,-71.2507 97.3561,-78.0953"/>
</g>
<!-- Node33 -->
<g id="node33" class="node"><title>Node33</title>
<g id="a_node33"><a xlink:title=" ">
<polygon fill="white" stroke="#bfbfbf" points="1232.12,-112.5 1232.12,-131.5 1280.12,-131.5 1280.12,-112.5 1232.12,-112.5"/>
<text text-anchor="middle" x="1256.12" y="-119.5" font-family="Helvetica,sans-Serif" font-size="10.00">stdlib.h</text>
</a>
</g>
</g>
<!-- Node2&#45;&gt;Node33 -->
<g id="edge64" class="edge"><title>Node2&#45;&gt;Node33</title>
<path fill="none" stroke="midnightblue" d="M1298.11,-336.465C1295.02,-327.481 1290.24,-312.883 1287.12,-300 1273.33,-243.02 1263.08,-174.317 1258.61,-141.806"/>
<polygon fill="midnightblue" stroke="midnightblue" points="1262.03,-140.996 1257.22,-131.554 1255.09,-141.932 1262.03,-140.996"/>
</g>
<!-- Node4 -->
<g id="node4" class="node"><title>Node4</title>
<g id="a_node4"><a xlink:title=" ">
<polygon fill="white" stroke="#bfbfbf" points="1738.62,-0.5 1738.62,-19.5 1823.62,-19.5 1823.62,-0.5 1738.62,-0.5"/>
<text text-anchor="middle" x="1781.12" y="-7.5" font-family="Helvetica,sans-Serif" font-size="10.00">colony_config.h</text>
</a>
</g>
</g>
<!-- Node3&#45;&gt;Node4 -->
<g id="edge3" class="edge"><title>Node3&#45;&gt;Node4</title>
<path fill="none" stroke="midnightblue" d="M1389.14,-224.187C1397.78,-209.893 1416.89,-181.86 1441.12,-168 1515.35,-125.545 1550.88,-164.145 1630.12,-132 1651.08,-123.497 1697.53,-90.226 1715.12,-76 1733.97,-60.7557 1753.5,-40.9311 1766.38,-27.2034"/>
<polygon fill="midnightblue" stroke="midnightblue" points="1769.25,-29.2559 1773.47,-19.5393 1764.11,-24.5013 1769.25,-29.2559"/>
</g>
<!-- Node5 -->
<g id="node5" class="node"><title>Node5</title>
<g id="a_node5"><a xlink:href="_item_8h.html" target="_top" xlink:title=" ">
<polygon fill="white" stroke="black" points="278.121,-0.5 278.121,-19.5 384.121,-19.5 384.121,-0.5 278.121,-0.5"/>
<text text-anchor="middle" x="331.121" y="-7.5" font-family="Helvetica,sans-Serif" font-size="10.00">Cpl/Container/Item.h</text>
</a>
</g>
</g>
<!-- Node3&#45;&gt;Node5 -->
<g id="edge4" class="edge"><title>Node3&#45;&gt;Node5</title>
<path fill="none" stroke="midnightblue" d="M1329.21,-232.65C1193.69,-231.231 832.674,-224.074 534.121,-188 500.999,-183.998 260.399,-157.697 239.121,-132 222.28,-111.662 247.32,-74.9298 263.121,-56 274.103,-42.8429 289.905,-32.0662 303.513,-24.361"/>
<polygon fill="midnightblue" stroke="midnightblue" points="305.35,-27.3471 312.497,-19.5257 302.032,-21.1831 305.35,-27.3471"/>
</g>
<!-- Node6 -->
<g id="node6" class="node"><title>Node6</title>
<g id="a_node6"><a xlink:href="_string_8h.html" target="_top" xlink:title=" ">
<polygon fill="white" stroke="black" points="1692.12,-168.5 1692.12,-187.5 1782.12,-187.5 1782.12,-168.5 1692.12,-168.5"/>
<text text-anchor="middle" x="1737.12" y="-175.5" font-family="Helvetica,sans-Serif" font-size="10.00">Cpl/Text/String.h</text>
</a>
</g>
</g>
<!-- Node3&#45;&gt;Node6 -->
<g id="edge5" class="edge"><title>Node3&#45;&gt;Node6</title>
<path fill="none" stroke="midnightblue" d="M1438.72,-225.046C1496.59,-216.558 1590.91,-202.552 1682.1,-188.143"/>
<polygon fill="midnightblue" stroke="midnightblue" points="1682.72,-191.588 1692.05,-186.567 1681.62,-184.674 1682.72,-191.588"/>
</g>
<!-- Node10 -->
<g id="node10" class="node"><title>Node10</title>
<g id="a_node10"><a xlink:title=" ">
<polygon fill="white" stroke="#bfbfbf" points="1488.12,-0.5 1488.12,-19.5 1540.12,-19.5 1540.12,-0.5 1488.12,-0.5"/>
<text text-anchor="middle" x="1514.12" y="-7.5" font-family="Helvetica,sans-Serif" font-size="10.00">stddef.h</text>
</a>
</g>
</g>
<!-- Node3&#45;&gt;Node10 -->
<g id="edge20" class="edge"><title>Node3&#45;&gt;Node10</title>
<path fill="none" stroke="midnightblue" d="M1382.19,-224.144C1376.65,-196.187 1363.48,-108.553 1403.12,-56 1420.84,-32.5096 1452.89,-21.2388 1478,-15.856"/>
<polygon fill="midnightblue" stroke="midnightblue" points="1478.78,-19.2719 1487.94,-13.9499 1477.46,-12.3974 1478.78,-19.2719"/>
</g>
<!-- Node3&#45;&gt;Node11 -->
<g id="edge21" class="edge"><title>Node3&#45;&gt;Node11</title>
<path fill="none" stroke="midnightblue" d="M1381.14,-224.297C1369.91,-191.494 1329.99,-74.8835 1314.41,-29.3774"/>
<polygon fill="midnightblue" stroke="midnightblue" points="1317.71,-28.2111 1311.16,-19.8837 1311.09,-30.4783 1317.71,-28.2111"/>
</g>
<!-- Node14 -->
<g id="node14" class="node"><title>Node14</title>
<g id="a_node14"><a xlink:href="_subscriber_api_8h.html" target="_top" xlink:title=" ">
<polygon fill="white" stroke="black" points="30.6208,-112.5 30.6208,-131.5 151.621,-131.5 151.621,-112.5 30.6208,-112.5"/>
<text text-anchor="middle" x="91.1208" y="-119.5" font-family="Helvetica,sans-Serif" font-size="10.00">Cpl/Dm/SubscriberApi.h</text>
</a>
</g>
</g>
<!-- Node3&#45;&gt;Node14 -->
<g id="edge16" class="edge"><title>Node3&#45;&gt;Node14</title>
<path fill="none" stroke="midnightblue" d="M1329.5,-231.636C1150.9,-226.995 585.354,-210.832 404.121,-188 306.261,-175.671 193.427,-149.135 133.572,-134.058"/>
<polygon fill="midnightblue" stroke="midnightblue" points="134.283,-130.628 123.729,-131.562 132.562,-137.413 134.283,-130.628"/>
</g>
<!-- Node15 -->
<g id="node15" class="node"><title>Node15</title>
<g id="a_node15"><a xlink:href="_arduino_8h_source.html" target="_top" xlink:title=" ">
<polygon fill="white" stroke="black" points="1450.62,-168.5 1450.62,-187.5 1549.62,-187.5 1549.62,-168.5 1450.62,-168.5"/>
<text text-anchor="middle" x="1500.12" y="-175.5" font-family="Helvetica,sans-Serif" font-size="10.00">Cpl/Json/Arduino.h</text>
</a>
</g>
</g>
<!-- Node3&#45;&gt;Node15 -->
<g id="edge19" class="edge"><title>Node3&#45;&gt;Node15</title>
<path fill="none" stroke="midnightblue" d="M1402.5,-224.444C1421.34,-215.675 1450.85,-201.935 1472.5,-191.858"/>
<polygon fill="midnightblue" stroke="midnightblue" points="1474.24,-194.91 1481.83,-187.516 1471.28,-188.564 1474.24,-194.91"/>
</g>
<!-- Node7 -->
<g id="node7" class="node"><title>Node7</title>
<g id="a_node7"><a xlink:title=" ">
<polygon fill="white" stroke="#bfbfbf" points="1412.62,-56.5 1412.62,-75.5 1489.62,-75.5 1489.62,-56.5 1412.62,-56.5"/>
<text text-anchor="middle" x="1451.12" y="-63.5" font-family="Helvetica,sans-Serif" font-size="10.00">colony_map.h</text>
</a>
</g>
</g>
<!-- Node6&#45;&gt;Node7 -->
<g id="edge6" class="edge"><title>Node6&#45;&gt;Node7</title>
<path fill="none" stroke="midnightblue" d="M1691.98,-168.902C1627.56,-157.232 1516.08,-136.581 1508.12,-132 1488.28,-120.572 1471.84,-99.677 1461.8,-84.659"/>
<polygon fill="midnightblue" stroke="midnightblue" points="1464.47,-82.3496 1456.15,-75.7973 1458.57,-86.1115 1464.47,-82.3496"/>
</g>
<!-- Node8 -->
<g id="node8" class="node"><title>Node8</title>
<g id="a_node8"><a xlink:href="_key_8h.html" target="_top" xlink:title=" ">
<polygon fill="white" stroke="black" points="1517.12,-112.5 1517.12,-131.5 1621.12,-131.5 1621.12,-112.5 1517.12,-112.5"/>
<text text-anchor="middle" x="1569.12" y="-119.5" font-family="Helvetica,sans-Serif" font-size="10.00">Cpl/Container/Key.h</text>
</a>
</g>
</g>
<!-- Node6&#45;&gt;Node8 -->
<g id="edge7" class="edge"><title>Node6&#45;&gt;Node8</title>
<path fill="none" stroke="midnightblue" d="M1705.41,-168.444C1675.16,-159.359 1630.09,-144.939 1600.09,-134.783"/>
<polygon fill="midnightblue" stroke="midnightblue" points="1601.13,-131.44 1590.54,-131.516 1598.87,-138.064 1601.13,-131.44"/>
</g>
<!-- Node12 -->
<g id="node12" class="node"><title>Node12</title>
<g id="a_node12"><a xlink:title=" ">
<polygon fill="white" stroke="#bfbfbf" points="1677.12,-112.5 1677.12,-131.5 1729.12,-131.5 1729.12,-112.5 1677.12,-112.5"/>
<text text-anchor="middle" x="1703.12" y="-119.5" font-family="Helvetica,sans-Serif" font-size="10.00">stdarg.h</text>
</a>
</g>
</g>
<!-- Node6&#45;&gt;Node12 -->
<g id="edge14" class="edge"><title>Node6&#45;&gt;Node12</title>
<path fill="none" stroke="midnightblue" d="M1731.51,-168.083C1726.75,-160.534 1719.8,-149.495 1713.97,-140.23"/>
<polygon fill="midnightblue" stroke="midnightblue" points="1716.92,-138.349 1708.63,-131.751 1711,-142.078 1716.92,-138.349"/>
</g>
<!-- Node13 -->
<g id="node13" class="node"><title>Node13</title>
<g id="a_node13"><a xlink:title=" ">
<polygon fill="white" stroke="#bfbfbf" points="1747.12,-112.5 1747.12,-131.5 1801.12,-131.5 1801.12,-112.5 1747.12,-112.5"/>
<text text-anchor="middle" x="1774.12" y="-119.5" font-family="Helvetica,sans-Serif" font-size="10.00">iostream</text>
</a>
</g>
</g>
<!-- Node6&#45;&gt;Node13 -->
<g id="edge15" class="edge"><title>Node6&#45;&gt;Node13</title>
<path fill="none" stroke="midnightblue" d="M1743.23,-168.083C1748.4,-160.534 1755.97,-149.495 1762.32,-140.23"/>
<polygon fill="midnightblue" stroke="midnightblue" points="1765.36,-141.979 1768.12,-131.751 1759.59,-138.022 1765.36,-141.979"/>
</g>
<!-- Node8&#45;&gt;Node6 -->
<g id="edge12" class="edge"><title>Node8&#45;&gt;Node6</title>
<path fill="none" stroke="midnightblue" d="M1600.7,-131.516C1630.91,-140.585 1675.97,-155.004 1706.02,-165.172"/>
<polygon fill="midnightblue" stroke="midnightblue" points="1704.99,-168.521 1715.59,-168.444 1707.26,-161.897 1704.99,-168.521"/>
</g>
<!-- Node8&#45;&gt;Node7 -->
<g id="edge13" class="edge"><title>Node8&#45;&gt;Node7</title>
<path fill="none" stroke="midnightblue" d="M1550.42,-112.444C1531.18,-103.636 1500.97,-89.8116 1478.92,-79.722"/>
<polygon fill="midnightblue" stroke="midnightblue" points="1480.28,-76.4951 1469.73,-75.5164 1477.37,-82.8603 1480.28,-76.4951"/>
</g>
<!-- Node9 -->
<g id="node9" class="node"><title>Node9</title>
<g id="a_node9"><a xlink:href="_fatal_error_8h.html" target="_top" xlink:title=" ">
<polygon fill="white" stroke="black" points="1584.12,-56.5 1584.12,-75.5 1706.12,-75.5 1706.12,-56.5 1584.12,-56.5"/>
<text text-anchor="middle" x="1645.12" y="-63.5" font-family="Helvetica,sans-Serif" font-size="10.00">Cpl/System/FatalError.h</text>
</a>
</g>
</g>
<!-- Node8&#45;&gt;Node9 -->
<g id="edge8" class="edge"><title>Node8&#45;&gt;Node9</title>
<path fill="none" stroke="midnightblue" d="M1581.33,-112.324C1592.9,-104.107 1610.5,-91.6017 1624.28,-81.8069"/>
<polygon fill="midnightblue" stroke="midnightblue" points="1626.56,-84.4791 1632.69,-75.8339 1622.51,-78.7729 1626.56,-84.4791"/>
</g>
<!-- Node8&#45;&gt;Node11 -->
<g id="edge11" class="edge"><title>Node8&#45;&gt;Node11</title>
<path fill="none" stroke="midnightblue" d="M1562.26,-112.34C1550.62,-98.2672 1525.59,-70.5447 1498.12,-56 1448.07,-29.4997 1382.42,-18.4226 1342.86,-13.9245"/>
<polygon fill="midnightblue" stroke="midnightblue" points="1343.22,-10.4431 1332.9,-12.8699 1342.48,-17.4042 1343.22,-10.4431"/>
</g>
<!-- Node9&#45;&gt;Node4 -->
<g id="edge10" class="edge"><title>Node9&#45;&gt;Node4</title>
<path fill="none" stroke="midnightblue" d="M1666.67,-56.4435C1689.15,-47.5171 1724.61,-33.4387 1750.1,-23.3168"/>
<polygon fill="midnightblue" stroke="midnightblue" points="1751.67,-26.4598 1759.67,-19.5164 1749.09,-19.9539 1751.67,-26.4598"/>
</g>
<!-- Node9&#45;&gt;Node10 -->
<g id="edge9" class="edge"><title>Node9&#45;&gt;Node10</title>
<path fill="none" stroke="midnightblue" d="M1624.36,-56.4435C1602.8,-47.5566 1568.86,-33.5632 1544.33,-23.4514"/>
<polygon fill="midnightblue" stroke="midnightblue" points="1545.36,-20.0917 1534.78,-19.5164 1542.69,-26.5634 1545.36,-20.0917"/>
</g>
<!-- Node14&#45;&gt;Node5 -->
<g id="edge17" class="edge"><title>Node14&#45;&gt;Node5</title>
<path fill="none" stroke="midnightblue" d="M82.0574,-112.103C69.4658,-98.671 49.7611,-72.9823 64.1208,-56 89.6871,-25.7642 197.229,-15.8354 267.785,-12.5806"/>
<polygon fill="midnightblue" stroke="midnightblue" points="268.071,-16.0716 277.912,-12.1472 267.772,-9.07804 268.071,-16.0716"/>
</g>
<!-- Node14&#45;&gt;Node11 -->
<g id="edge18" class="edge"><title>Node14&#45;&gt;Node11</title>
<path fill="none" stroke="midnightblue" d="M88.7875,-112.328C85.5816,-98.2374 81.8123,-70.4902 97.1208,-56 140.96,-14.5036 1079.75,-11.2435 1273.38,-11.0129"/>
<polygon fill="midnightblue" stroke="midnightblue" points="1273.55,-14.5128 1283.55,-11.0028 1273.55,-7.51283 1273.55,-14.5128"/>
</g>
<!-- Node16&#45;&gt;Node4 -->
<g id="edge23" class="edge"><title>Node16&#45;&gt;Node4</title>
<path fill="none" stroke="midnightblue" d="M1544.48,-285.387C1641.57,-279.27 1816.25,-265.411 1835.12,-244 1891.13,-180.439 1823.56,-70.1929 1793.82,-28.0505"/>
<polygon fill="midnightblue" stroke="midnightblue" points="1796.64,-25.9767 1787.95,-19.9192 1790.96,-30.0752 1796.64,-25.9767"/>
</g>
<!-- Node16&#45;&gt;Node15 -->
<g id="edge30" class="edge"><title>Node16&#45;&gt;Node15</title>
<path fill="none" stroke="midnightblue" d="M1481.53,-280.154C1483.55,-267.633 1487.42,-244.034 1491.12,-224 1492.73,-215.274 1494.64,-205.623 1496.29,-197.504"/>
<polygon fill="midnightblue" stroke="midnightblue" points="1499.74,-198.111 1498.32,-187.612 1492.88,-196.705 1499.74,-198.111"/>
</g>
<!-- Node17 -->
<g id="node17" class="node"><title>Node17</title>
<g id="a_node17"><a xlink:href="_model_database_api_8h.html" target="_top" xlink:title=" ">
<polygon fill="white" stroke="black" points="1533.12,-224.5 1533.12,-243.5 1675.12,-243.5 1675.12,-224.5 1533.12,-224.5"/>
<text text-anchor="middle" x="1604.12" y="-231.5" font-family="Helvetica,sans-Serif" font-size="10.00">Cpl/Dm/ModelDatabaseApi.h</text>
</a>
</g>
</g>
<!-- Node16&#45;&gt;Node17 -->
<g id="edge24" class="edge"><title>Node16&#45;&gt;Node17</title>
<path fill="none" stroke="midnightblue" d="M1499.77,-280.444C1520.09,-271.596 1552.02,-257.687 1575.22,-247.586"/>
<polygon fill="midnightblue" stroke="midnightblue" points="1576.79,-250.718 1584.56,-243.516 1574,-244.3 1576.79,-250.718"/>
</g>
<!-- Node18 -->
<g id="node18" class="node"><title>Node18</title>
<g id="a_node18"><a xlink:href="_mutex_8h.html" target="_top" xlink:title=" ">
<polygon fill="white" stroke="black" points="1568.12,-168.5 1568.12,-187.5 1674.12,-187.5 1674.12,-168.5 1568.12,-168.5"/>
<text text-anchor="middle" x="1621.12" y="-175.5" font-family="Helvetica,sans-Serif" font-size="10.00">Cpl/System/Mutex.h</text>
</a>
</g>
</g>
<!-- Node16&#45;&gt;Node18 -->
<g id="edge26" class="edge"><title>Node16&#45;&gt;Node18</title>
<path fill="none" stroke="midnightblue" d="M1484.07,-280.323C1490.65,-266.72 1505.03,-240.25 1524.12,-224 1541.34,-209.35 1564.12,-198.455 1583.28,-191.058"/>
<polygon fill="midnightblue" stroke="midnightblue" points="1584.75,-194.247 1592.92,-187.507 1582.33,-187.679 1584.75,-194.247"/>
</g>
<!-- Node19 -->
<g id="node19" class="node"><title>Node19</title>
<g id="a_node19"><a xlink:href="_s_list_8h.html" target="_top" xlink:title=" ">
<polygon fill="white" stroke="black" points="761.621,-224.5 761.621,-243.5 870.621,-243.5 870.621,-224.5 761.621,-224.5"/>
<text text-anchor="middle" x="816.121" y="-231.5" font-family="Helvetica,sans-Serif" font-size="10.00">Cpl/Container/SList.h</text>
</a>
</g>
</g>
<!-- Node16&#45;&gt;Node19 -->
<g id="edge28" class="edge"><title>Node16&#45;&gt;Node19</title>
<path fill="none" stroke="midnightblue" d="M1415.85,-283.773C1289.1,-273.465 1008.18,-250.619 880.962,-240.273"/>
<polygon fill="midnightblue" stroke="midnightblue" points="881.221,-236.783 870.971,-239.461 880.654,-243.76 881.221,-236.783"/>
</g>
<!-- Node17&#45;&gt;Node6 -->
<g id="edge25" class="edge"><title>Node17&#45;&gt;Node6</title>
<path fill="none" stroke="midnightblue" d="M1625.2,-224.444C1647.18,-215.517 1681.86,-201.439 1706.78,-191.317"/>
<polygon fill="midnightblue" stroke="midnightblue" points="1708.2,-194.521 1716.15,-187.516 1705.56,-188.035 1708.2,-194.521"/>
</g>
<!-- Node18&#45;&gt;Node7 -->
<g id="edge27" class="edge"><title>Node18&#45;&gt;Node7</title>
<path fill="none" stroke="midnightblue" d="M1579.29,-168.438C1541.73,-159.997 1490.24,-146.315 1475.12,-132 1462.31,-119.874 1456.3,-100.315 1453.51,-85.8161"/>
<polygon fill="midnightblue" stroke="midnightblue" points="1456.96,-85.2485 1451.93,-75.9216 1450.05,-86.3469 1456.96,-85.2485"/>
</g>
<!-- Node19&#45;&gt;Node5 -->
<g id="edge29" class="edge"><title>Node19&#45;&gt;Node5</title>
<path fill="none" stroke="midnightblue" d="M761.532,-228.25C691.094,-221.447 572.983,-207.555 534.121,-188 459.161,-150.28 464.404,-108.725 399.121,-56 384.983,-44.5814 367.924,-33.2989 354.43,-24.8873"/>
<polygon fill="midnightblue" stroke="midnightblue" points="356.091,-21.8003 345.736,-19.5562 352.432,-27.7676 356.091,-21.8003"/>
</g>
<!-- Node20&#45;&gt;Node3 -->
<g id="edge33" class="edge"><title>Node20&#45;&gt;Node3</title>
<path fill="none" stroke="midnightblue" d="M395.949,-286.21C571.706,-277.102 1128.39,-248.253 1319.2,-238.364"/>
<polygon fill="midnightblue" stroke="midnightblue" points="1319.56,-241.851 1329.36,-237.838 1319.19,-234.86 1319.56,-241.851"/>
</g>
<!-- Node20&#45;&gt;Node11 -->
<g id="edge61" class="edge"><title>Node20&#45;&gt;Node11</title>
<path fill="none" stroke="midnightblue" d="M346.707,-280.051C365.787,-243.913 442.958,-108.183 551.121,-56 616.632,-24.3939 1133.16,-13.8217 1273.2,-11.5212"/>
<polygon fill="midnightblue" stroke="midnightblue" points="1273.42,-15.0182 1283.36,-11.3581 1273.31,-8.01914 1273.42,-15.0182"/>
</g>
<!-- Node20&#45;&gt;Node14 -->
<g id="edge32" class="edge"><title>Node20&#45;&gt;Node14</title>
<path fill="none" stroke="midnightblue" d="M288.602,-287.811C221.263,-283.058 108.255,-263.527 57.1208,-188 46.3777,-172.132 60.0095,-152.462 73.0741,-138.941"/>
<polygon fill="midnightblue" stroke="midnightblue" points="75.745,-141.228 80.5123,-131.766 70.8851,-136.189 75.745,-141.228"/>
</g>
<!-- Node21 -->
<g id="node21" class="node"><title>Node21</title>
<g id="a_node21"><a xlink:href="_dm_2_event_loop_8h.html" target="_top" xlink:title=" ">
<polygon fill="white" stroke="black" points="206.621,-224.5 206.621,-243.5 313.621,-243.5 313.621,-224.5 206.621,-224.5"/>
<text text-anchor="middle" x="260.121" y="-231.5" font-family="Helvetica,sans-Serif" font-size="10.00">Cpl/Dm/EventLoop.h</text>
</a>
</g>
</g>
<!-- Node20&#45;&gt;Node21 -->
<g id="edge34" class="edge"><title>Node20&#45;&gt;Node21</title>
<path fill="none" stroke="midnightblue" d="M328.946,-280.324C316.274,-271.979 296.887,-259.212 281.915,-249.352"/>
<polygon fill="midnightblue" stroke="midnightblue" points="283.54,-246.231 273.263,-243.655 279.69,-252.078 283.54,-246.231"/>
</g>
<!-- Node21&#45;&gt;Node14 -->
<g id="edge58" class="edge"><title>Node21&#45;&gt;Node14</title>
<path fill="none" stroke="midnightblue" d="M254.478,-224.256C245.242,-210.56 225.654,-183.967 203.121,-168 182.066,-153.081 155.353,-142.103 133.296,-134.726"/>
<polygon fill="midnightblue" stroke="midnightblue" points="134.117,-131.314 123.526,-131.589 131.977,-137.979 134.117,-131.314"/>
</g>
<!-- Node22 -->
<g id="node22" class="node"><title>Node22</title>
<g id="a_node22"><a xlink:href="_system_2_event_loop_8h.html" target="_top" xlink:title=" ">
<polygon fill="white" stroke="black" points="543.621,-168.5 543.621,-187.5 668.621,-187.5 668.621,-168.5 543.621,-168.5"/>
<text text-anchor="middle" x="606.121" y="-175.5" font-family="Helvetica,sans-Serif" font-size="10.00">Cpl/System/EventLoop.h</text>
</a>
</g>
</g>
<!-- Node21&#45;&gt;Node22 -->
<g id="edge35" class="edge"><title>Node21&#45;&gt;Node22</title>
<path fill="none" stroke="midnightblue" d="M313.804,-224.622C375.153,-215.047 475.535,-199.38 541.221,-189.129"/>
<polygon fill="midnightblue" stroke="midnightblue" points="542.114,-192.532 551.455,-187.532 541.034,-185.616 542.114,-192.532"/>
</g>
<!-- Node21&#45;&gt;Node30 -->
<g id="edge57" class="edge"><title>Node21&#45;&gt;Node30</title>
<path fill="none" stroke="midnightblue" d="M256.317,-224.405C250.639,-211.79 239.402,-187.63 228.121,-168 210.562,-137.446 187.302,-103.642 173.316,-83.9181"/>
<polygon fill="midnightblue" stroke="midnightblue" points="176.088,-81.7779 167.428,-75.6749 170.392,-85.8466 176.088,-81.7779"/>
</g>
<!-- Node31 -->
<g id="node31" class="node"><title>Node31</title>
<g id="a_node31"><a xlink:href="_thread_8h.html" target="_top" xlink:title=" ">
<polygon fill="white" stroke="black" points="1026.62,-168.5 1026.62,-187.5 1135.62,-187.5 1135.62,-168.5 1026.62,-168.5"/>
<text text-anchor="middle" x="1081.12" y="-175.5" font-family="Helvetica,sans-Serif" font-size="10.00">Cpl/System/Thread.h</text>
</a>
</g>
</g>
<!-- Node21&#45;&gt;Node31 -->
<g id="edge51" class="edge"><title>Node21&#45;&gt;Node31</title>
<path fill="none" stroke="midnightblue" d="M313.672,-229.478C458.775,-219.934 859.142,-193.6 1016.45,-183.253"/>
<polygon fill="midnightblue" stroke="midnightblue" points="1016.71,-186.744 1026.46,-182.595 1016.25,-179.759 1016.71,-186.744"/>
</g>
<!-- Node34 -->
<g id="node34" class="node"><title>Node34</title>
<g id="a_node34"><a xlink:href="_notification_api___8h.html" target="_top" xlink:title=" ">
<polygon fill="white" stroke="black" points="66.1208,-168.5 66.1208,-187.5 194.121,-187.5 194.121,-168.5 66.1208,-168.5"/>
<text text-anchor="middle" x="130.121" y="-175.5" font-family="Helvetica,sans-Serif" font-size="10.00">Cpl/Dm/NotificationApi_.h</text>
</a>
</g>
</g>
<!-- Node21&#45;&gt;Node34 -->
<g id="edge59" class="edge"><title>Node21&#45;&gt;Node34</title>
<path fill="none" stroke="midnightblue" d="M239.522,-224.444C218.127,-215.557 184.44,-201.563 160.096,-191.451"/>
<polygon fill="midnightblue" stroke="midnightblue" points="161.201,-188.12 150.623,-187.516 158.516,-194.585 161.201,-188.12"/>
</g>
<!-- Node23 -->
<g id="node23" class="node"><title>Node23</title>
<g id="a_node23"><a xlink:href="_runnable_8h.html" target="_top" xlink:title=" ">
<polygon fill="white" stroke="black" points="892.621,-112.5 892.621,-131.5 1011.62,-131.5 1011.62,-112.5 892.621,-112.5"/>
<text text-anchor="middle" x="952.121" y="-119.5" font-family="Helvetica,sans-Serif" font-size="10.00">Cpl/System/Runnable.h</text>
</a>
</g>
</g>
<!-- Node22&#45;&gt;Node23 -->
<g id="edge36" class="edge"><title>Node22&#45;&gt;Node23</title>
<path fill="none" stroke="midnightblue" d="M660.946,-168.444C722.443,-158.846 822.104,-143.292 887.382,-133.104"/>
<polygon fill="midnightblue" stroke="midnightblue" points="888.212,-136.517 897.553,-131.516 887.132,-129.6 888.212,-136.517"/>
</g>
<!-- Node24 -->
<g id="node24" class="node"><title>Node24</title>
<g id="a_node24"><a xlink:href="_semaphore_8h.html" target="_top" xlink:title=" ">
<polygon fill="white" stroke="black" points="746.121,-112.5 746.121,-131.5 874.121,-131.5 874.121,-112.5 746.121,-112.5"/>
<text text-anchor="middle" x="810.121" y="-119.5" font-family="Helvetica,sans-Serif" font-size="10.00">Cpl/System/Semaphore.h</text>
</a>
</g>
</g>
<!-- Node22&#45;&gt;Node24 -->
<g id="edge37" class="edge"><title>Node22&#45;&gt;Node24</title>
<path fill="none" stroke="midnightblue" d="M638.445,-168.444C673.51,-159.162 729.619,-144.309 768.086,-134.127"/>
<polygon fill="midnightblue" stroke="midnightblue" points="769.176,-137.459 777.948,-131.516 767.385,-130.692 769.176,-137.459"/>
</g>
<!-- Node25 -->
<g id="node25" class="node"><title>Node25</title>
<g id="a_node25"><a xlink:href="_signable_8h.html" target="_top" xlink:title=" ">
<polygon fill="white" stroke="black" points="719.121,-56.5 719.121,-75.5 835.121,-75.5 835.121,-56.5 719.121,-56.5"/>
<text text-anchor="middle" x="777.121" y="-63.5" font-family="Helvetica,sans-Serif" font-size="10.00">Cpl/System/Signable.h</text>
</a>
</g>
</g>
<!-- Node22&#45;&gt;Node25 -->
<g id="edge41" class="edge"><title>Node22&#45;&gt;Node25</title>
<path fill="none" stroke="midnightblue" d="M627.591,-168.39C646.967,-160.213 675.906,-146.969 699.121,-132 721.871,-117.331 745.394,-96.8721 760.576,-82.8476"/>
<polygon fill="midnightblue" stroke="midnightblue" points="763.195,-85.1896 768.095,-75.7958 758.407,-80.0838 763.195,-85.1896"/>
</g>
<!-- Node26 -->
<g id="node26" class="node"><title>Node26</title>
<g id="a_node26"><a xlink:href="_event_flag_8h.html" target="_top" xlink:title=" ">
<polygon fill="white" stroke="black" points="560.621,-56.5 560.621,-75.5 683.621,-75.5 683.621,-56.5 560.621,-56.5"/>
<text text-anchor="middle" x="622.121" y="-63.5" font-family="Helvetica,sans-Serif" font-size="10.00">Cpl/System/EventFlag.h</text>
</a>
</g>
</g>
<!-- Node22&#45;&gt;Node26 -->
<g id="edge42" class="edge"><title>Node22&#45;&gt;Node26</title>
<path fill="none" stroke="midnightblue" d="M572.37,-168.44C538.906,-158.208 495.048,-139.014 513.121,-112 524.027,-95.6986 542.035,-85.296 560.302,-78.6602"/>
<polygon fill="midnightblue" stroke="midnightblue" points="561.437,-81.9716 569.842,-75.5221 559.249,-75.3221 561.437,-81.9716"/>
</g>
<!-- Node27 -->
<g id="node27" class="node"><title>Node27</title>
<g id="a_node27"><a xlink:href="_shared_event_handler_8h.html" target="_top" xlink:title=" ">
<polygon fill="white" stroke="black" points="522.121,-112.5 522.121,-131.5 690.121,-131.5 690.121,-112.5 522.121,-112.5"/>
<text text-anchor="middle" x="606.121" y="-119.5" font-family="Helvetica,sans-Serif" font-size="10.00">Cpl/System/SharedEventHandler.h</text>
</a>
</g>
</g>
<!-- Node22&#45;&gt;Node27 -->
<g id="edge45" class="edge"><title>Node22&#45;&gt;Node27</title>
<path fill="none" stroke="midnightblue" d="M606.121,-168.083C606.121,-161.006 606.121,-150.861 606.121,-141.986"/>
<polygon fill="midnightblue" stroke="midnightblue" points="609.621,-141.751 606.121,-131.751 602.621,-141.751 609.621,-141.751"/>
</g>
<!-- Node28 -->
<g id="node28" class="node"><title>Node28</title>
<g id="a_node28"><a xlink:href="_timer_manager_8h.html" target="_top" xlink:title=" ">
<polygon fill="white" stroke="black" points="248.621,-112.5 248.621,-131.5 389.621,-131.5 389.621,-112.5 248.621,-112.5"/>
<text text-anchor="middle" x="319.121" y="-119.5" font-family="Helvetica,sans-Serif" font-size="10.00">Cpl/System/TimerManager.h</text>
</a>
</g>
</g>
<!-- Node22&#45;&gt;Node28 -->
<g id="edge47" class="edge"><title>Node22&#45;&gt;Node28</title>
<path fill="none" stroke="midnightblue" d="M560.645,-168.444C510.159,-158.944 428.664,-143.611 374.5,-133.42"/>
<polygon fill="midnightblue" stroke="midnightblue" points="374.859,-129.926 364.384,-131.516 373.564,-136.805 374.859,-129.926"/>
</g>
<!-- Node24&#45;&gt;Node7 -->
<g id="edge38" class="edge"><title>Node24&#45;&gt;Node7</title>
<path fill="none" stroke="midnightblue" d="M874.197,-112.94C877.212,-112.611 880.199,-112.296 883.121,-112 1074.93,-92.5869 1303.9,-76.6505 1402.28,-70.1491"/>
<polygon fill="midnightblue" stroke="midnightblue" points="1402.75,-73.6254 1412.5,-69.4763 1402.29,-66.6406 1402.75,-73.6254"/>
</g>
<!-- Node24&#45;&gt;Node25 -->
<g id="edge39" class="edge"><title>Node24&#45;&gt;Node25</title>
<path fill="none" stroke="midnightblue" d="M804.672,-112.083C800.106,-104.613 793.452,-93.7244 787.827,-84.5199"/>
<polygon fill="midnightblue" stroke="midnightblue" points="790.67,-82.4588 782.469,-75.7511 784.697,-86.109 790.67,-82.4588"/>
</g>
<!-- Node25&#45;&gt;Node5 -->
<g id="edge40" class="edge"><title>Node25&#45;&gt;Node5</title>
<path fill="none" stroke="midnightblue" d="M718.814,-57.9404C634.89,-47.7793 480.654,-29.1049 394.169,-18.6337"/>
<polygon fill="midnightblue" stroke="midnightblue" points="394.572,-15.157 384.224,-17.4295 393.731,-22.1062 394.572,-15.157"/>
</g>
<!-- Node26&#45;&gt;Node4 -->
<g id="edge43" class="edge"><title>Node26&#45;&gt;Node4</title>
<path fill="none" stroke="midnightblue" d="M683.624,-58.2357C692.507,-57.3967 701.543,-56.6183 710.121,-56 812.006,-48.6561 1526.91,-20.809 1728.38,-13.0296"/>
<polygon fill="midnightblue" stroke="midnightblue" points="1728.56,-16.5254 1738.42,-12.6422 1728.29,-9.53058 1728.56,-16.5254"/>
</g>
<!-- Node26&#45;&gt;Node11 -->
<g id="edge44" class="edge"><title>Node26&#45;&gt;Node11</title>
<path fill="none" stroke="midnightblue" d="M683.645,-58.4956C692.525,-57.6185 701.554,-56.7602 710.121,-56 924.097,-37.0106 1181.61,-19.3992 1273.49,-13.2801"/>
<polygon fill="midnightblue" stroke="midnightblue" points="1273.86,-16.763 1283.61,-12.6079 1273.4,-9.77841 1273.86,-16.763"/>
</g>
<!-- Node27&#45;&gt;Node26 -->
<g id="edge46" class="edge"><title>Node27&#45;&gt;Node26</title>
<path fill="none" stroke="midnightblue" d="M608.763,-112.083C610.906,-104.849 614,-94.4087 616.67,-85.3968"/>
<polygon fill="midnightblue" stroke="midnightblue" points="620.043,-86.3334 619.528,-75.7511 613.331,-84.3447 620.043,-86.3334"/>
</g>
<!-- Node29 -->
<g id="node29" class="node"><title>Node29</title>
<g id="a_node29"><a xlink:href="_counter___8h.html" target="_top" xlink:title=" ">
<polygon fill="white" stroke="black" points="272.121,-56.5 272.121,-75.5 390.121,-75.5 390.121,-56.5 272.121,-56.5"/>
<text text-anchor="middle" x="331.121" y="-63.5" font-family="Helvetica,sans-Serif" font-size="10.00">Cpl/System/Counter_.h</text>
</a>
</g>
</g>
<!-- Node28&#45;&gt;Node29 -->
<g id="edge48" class="edge"><title>Node28&#45;&gt;Node29</title>
<path fill="none" stroke="midnightblue" d="M321.102,-112.083C322.693,-104.927 324.98,-94.6353 326.967,-85.6911"/>
<polygon fill="midnightblue" stroke="midnightblue" points="330.423,-86.2722 329.176,-75.7511 323.59,-84.7537 330.423,-86.2722"/>
</g>
<!-- Node28&#45;&gt;Node30 -->
<g id="edge50" class="edge"><title>Node28&#45;&gt;Node30</title>
<path fill="none" stroke="midnightblue" d="M294.085,-112.444C267.505,-103.359 225.312,-88.9388 195.597,-78.7831"/>
<polygon fill="midnightblue" stroke="midnightblue" points="196.634,-75.4386 186.039,-75.5164 194.37,-82.0625 196.634,-75.4386"/>
</g>
<!-- Node29&#45;&gt;Node5 -->
<g id="edge49" class="edge"><title>Node29&#45;&gt;Node5</title>
<path fill="none" stroke="midnightblue" d="M331.121,-56.083C331.121,-49.0059 331.121,-38.8611 331.121,-29.9865"/>
<polygon fill="midnightblue" stroke="midnightblue" points="334.621,-29.751 331.121,-19.7511 327.621,-29.7511 334.621,-29.751"/>
</g>
<!-- Node31&#45;&gt;Node7 -->
<g id="edge52" class="edge"><title>Node31&#45;&gt;Node7</title>
<path fill="none" stroke="midnightblue" d="M1102.05,-168.495C1123.2,-159.771 1156.73,-145.59 1185.12,-132 1202.34,-123.76 1205.13,-118.359 1223.12,-112 1282.89,-90.8793 1355.18,-78.7334 1402.1,-72.5016"/>
<polygon fill="midnightblue" stroke="midnightblue" points="1402.83,-75.9372 1412.3,-71.1878 1401.93,-68.9946 1402.83,-75.9372"/>
</g>
<!-- Node31&#45;&gt;Node23 -->
<g id="edge53" class="edge"><title>Node31&#45;&gt;Node23</title>
<path fill="none" stroke="midnightblue" d="M1060.68,-168.444C1039.45,-159.557 1006.02,-145.563 981.866,-135.451"/>
<polygon fill="midnightblue" stroke="midnightblue" points="983.042,-132.149 972.466,-131.516 980.339,-138.606 983.042,-132.149"/>
</g>
<!-- Node31&#45;&gt;Node25 -->
<g id="edge54" class="edge"><title>Node31&#45;&gt;Node25</title>
<path fill="none" stroke="midnightblue" d="M1075.6,-168.174C1066.14,-153.862 1045.38,-125.803 1020.12,-112 966.141,-82.5022 896.406,-71.9303 845.494,-68.3377"/>
<polygon fill="midnightblue" stroke="midnightblue" points="845.451,-64.8281 835.251,-67.6906 845.01,-71.8142 845.451,-64.8281"/>
</g>
<!-- Node32 -->
<g id="node32" class="node"><title>Node32</title>
<g id="a_node32"><a xlink:href="_traverser_8h.html" target="_top" xlink:title=" ">
<polygon fill="white" stroke="black" points="1068.12,-112.5 1068.12,-131.5 1176.12,-131.5 1176.12,-112.5 1068.12,-112.5"/>
<text text-anchor="middle" x="1122.12" y="-119.5" font-family="Helvetica,sans-Serif" font-size="10.00">Cpl/Type/Traverser.h</text>
</a>
</g>
</g>
<!-- Node31&#45;&gt;Node32 -->
<g id="edge55" class="edge"><title>Node31&#45;&gt;Node32</title>
<path fill="none" stroke="midnightblue" d="M1087.89,-168.083C1093.68,-160.455 1102.18,-149.264 1109.26,-139.941"/>
<polygon fill="midnightblue" stroke="midnightblue" points="1112.22,-141.832 1115.48,-131.751 1106.64,-137.599 1112.22,-141.832"/>
</g>
<!-- Node31&#45;&gt;Node33 -->
<g id="edge56" class="edge"><title>Node31&#45;&gt;Node33</title>
<path fill="none" stroke="midnightblue" d="M1108.85,-168.444C1139.59,-158.957 1189.2,-143.651 1222.22,-133.46"/>
<polygon fill="midnightblue" stroke="midnightblue" points="1223.38,-136.766 1231.9,-130.473 1221.32,-130.077 1223.38,-136.766"/>
</g>
<!-- Node34&#45;&gt;Node14 -->
<g id="edge60" class="edge"><title>Node34&#45;&gt;Node14</title>
<path fill="none" stroke="midnightblue" d="M123.681,-168.083C118.172,-160.455 110.09,-149.264 103.356,-139.941"/>
<polygon fill="midnightblue" stroke="midnightblue" points="106.133,-137.809 97.441,-131.751 100.459,-141.907 106.133,-137.809"/>
</g>
<!-- Node35&#45;&gt;Node6 -->
<g id="edge70" class="edge"><title>Node35&#45;&gt;Node6</title>
<path fill="none" stroke="midnightblue" d="M1736.99,-336.407C1732.06,-327.614 1724.96,-313.381 1722.12,-300 1715.11,-266.958 1716.71,-257.342 1722.12,-224 1723.59,-214.957 1726.61,-205.275 1729.56,-197.218"/>
<polygon fill="midnightblue" stroke="midnightblue" points="1732.88,-198.339 1733.27,-187.751 1726.36,-195.791 1732.88,-198.339"/>
</g>
<!-- Node36 -->
<g id="node36" class="node"><title>Node36</title>
<g id="a_node36"><a xlink:href="_f_string___8h.html" target="_top" xlink:title=" ">
<polygon fill="white" stroke="black" points="1731.62,-280.5 1731.62,-299.5 1832.62,-299.5 1832.62,-280.5 1731.62,-280.5"/>
<text text-anchor="middle" x="1782.12" y="-287.5" font-family="Helvetica,sans-Serif" font-size="10.00">Cpl/Text/FString_.h</text>
</a>
</g>
</g>
<!-- Node35&#45;&gt;Node36 -->
<g id="edge66" class="edge"><title>Node35&#45;&gt;Node36</title>
<path fill="none" stroke="midnightblue" d="M1748.73,-336.083C1754.38,-328.455 1762.67,-317.264 1769.57,-307.941"/>
<polygon fill="midnightblue" stroke="midnightblue" points="1772.5,-309.87 1775.64,-299.751 1766.87,-305.703 1772.5,-309.87"/>
</g>
<!-- Node36&#45;&gt;Node4 -->
<g id="edge67" class="edge"><title>Node36&#45;&gt;Node4</title>
<path fill="none" stroke="midnightblue" d="M1832.9,-289.55C1909.85,-287.428 2047.12,-270.781 2047.12,-179 2047.12,-179 2047.12,-179 2047.12,-121 2047.12,-29.652 1911.5,-12.6723 1833.94,-10.4311"/>
<polygon fill="midnightblue" stroke="midnightblue" points="1833.93,-6.9303 1823.86,-10.213 1833.78,-13.9287 1833.93,-6.9303"/>
</g>
<!-- Node37 -->
<g id="node37" class="node"><title>Node37</title>
<g id="a_node37"><a xlink:href="_text_2_string___8h.html" target="_top" xlink:title=" ">
<polygon fill="white" stroke="black" points="1731.62,-224.5 1731.62,-243.5 1826.62,-243.5 1826.62,-224.5 1731.62,-224.5"/>
<text text-anchor="middle" x="1779.12" y="-231.5" font-family="Helvetica,sans-Serif" font-size="10.00">Cpl/Text/String_.h</text>
</a>
</g>
</g>
<!-- Node36&#45;&gt;Node37 -->
<g id="edge68" class="edge"><title>Node36&#45;&gt;Node37</title>
<path fill="none" stroke="midnightblue" d="M1781.63,-280.083C1781.23,-273.006 1780.67,-262.861 1780.18,-253.986"/>
<polygon fill="midnightblue" stroke="midnightblue" points="1783.66,-253.542 1779.61,-243.751 1776.67,-253.93 1783.66,-253.542"/>
</g>
<!-- Node37&#45;&gt;Node6 -->
<g id="edge69" class="edge"><title>Node37&#45;&gt;Node6</title>
<path fill="none" stroke="midnightblue" d="M1772.19,-224.083C1766.19,-216.377 1757.37,-205.033 1750.07,-195.653"/>
<polygon fill="midnightblue" stroke="midnightblue" points="1752.83,-193.496 1743.93,-187.751 1747.3,-197.793 1752.83,-193.496"/>
</g>
<!-- Node38&#45;&gt;Node11 -->
<g id="edge74" class="edge"><title>Node38&#45;&gt;Node11</title>
<path fill="none" stroke="midnightblue" d="M1857.61,-113.587C1767.32,-104.82 1626.76,-89.6855 1575.12,-76 1552.78,-70.0795 1549.21,-62.8016 1527.12,-56 1463.38,-36.371 1386.54,-22.8186 1342.9,-16.029"/>
<polygon fill="midnightblue" stroke="midnightblue" points="1343.23,-12.5378 1332.81,-14.4878 1342.17,-19.4576 1343.23,-12.5378"/>
</g>
<!-- Node39 -->
<g id="node39" class="node"><title>Node39</title>
<g id="a_node39"><a xlink:href="_constants_8h.html" target="_top" xlink:title="This file provides magic constants that NOT component specific, i.e.">
<polygon fill="white" stroke="black" points="1873.12,-56.5 1873.12,-75.5 1971.12,-75.5 1971.12,-56.5 1873.12,-56.5"/>
<text text-anchor="middle" x="1922.12" y="-63.5" font-family="Helvetica,sans-Serif" font-size="10.00">Storm/Constants.h</text>
</a>
</g>
</g>
<!-- Node38&#45;&gt;Node39 -->
<g id="edge72" class="edge"><title>Node38&#45;&gt;Node39</title>
<path fill="none" stroke="midnightblue" d="M1935.48,-112.083C1933.34,-104.849 1930.24,-94.4087 1927.57,-85.3968"/>
<polygon fill="midnightblue" stroke="midnightblue" points="1930.91,-84.3447 1924.71,-75.7511 1924.2,-86.3334 1930.91,-84.3447"/>
</g>
<!-- Node39&#45;&gt;Node4 -->
<g id="edge73" class="edge"><title>Node39&#45;&gt;Node4</title>
<path fill="none" stroke="midnightblue" d="M1899.78,-56.4435C1876.37,-47.4776 1839.39,-33.314 1812.93,-23.1827"/>
<polygon fill="midnightblue" stroke="midnightblue" points="1813.95,-19.8245 1803.36,-19.5164 1811.44,-26.3615 1813.95,-19.8245"/>
</g>
</g>
</svg>
