<?xml version="1.0" encoding="UTF-8" standalone="no"?>
<!DOCTYPE svg PUBLIC "-//W3C//DTD SVG 1.1//EN"
 "http://www.w3.org/Graphics/SVG/1.1/DTD/svg11.dtd">
<!-- Generated by graphviz version 10.0.1 (20240210.2158)
 -->
<!-- Title: Storm/Dm/MpSimpleAlarm.h Pages: 1 -->
<svg width="1998pt" height="420pt"
 viewBox="0.00 0.00 1998.00 420.00" xmlns="http://www.w3.org/2000/svg" xmlns:xlink="http://www.w3.org/1999/xlink">
<g id="graph0" class="graph" transform="scale(1 1) rotate(0) translate(4 416)">
<title>Storm/Dm/MpSimpleAlarm.h</title>
<!-- Node1 -->
<g id="Node000001" class="node">
<title>Node1</title>
<g id="a_Node000001"><a xlink:title=" ">
<polygon fill="#999999" stroke="#666666" points="1610.25,-412 1469.75,-412 1469.75,-392 1610.25,-392 1610.25,-412"/>
<text text-anchor="middle" x="1540" y="-398.5" font-family="Helvetica,sans-Serif" font-size="10.00">Storm/Dm/MpSimpleAlarm.h</text>
</a>
</g>
</g>
<!-- Node2 -->
<g id="Node000002" class="node">
<title>Node2</title>
<g id="a_Node000002"><a xlink:href="_model_point_common___8h.html" target="_top" xlink:title=" ">
<polygon fill="white" stroke="#666666" points="1355.25,-356 1202.75,-356 1202.75,-336 1355.25,-336 1355.25,-356"/>
<text text-anchor="middle" x="1279" y="-342.5" font-family="Helvetica,sans-Serif" font-size="10.00">Cpl/Dm/ModelPointCommon_.h</text>
</a>
</g>
</g>
<!-- Node1&#45;&gt;Node2 -->
<g id="edge1_Node000001_Node000002" class="edge">
<title>Node1&#45;&gt;Node2</title>
<g id="a_edge1_Node000001_Node000002"><a xlink:title=" ">
<path fill="none" stroke="#63b8ff" d="M1494.24,-391.53C1450.12,-382.4 1383.22,-368.56 1335.73,-358.74"/>
<polygon fill="#63b8ff" stroke="#63b8ff" points="1336.69,-355.36 1326.19,-356.76 1335.27,-362.22 1336.69,-355.36"/>
</a>
</g>
</g>
<!-- Node36 -->
<g id="Node000036" class="node">
<title>Node36</title>
<g id="a_Node000036"><a xlink:href="_f_string_8h.html" target="_top" xlink:title=" ">
<polygon fill="white" stroke="#666666" points="1849.38,-356 1754.62,-356 1754.62,-336 1849.38,-336 1849.38,-356"/>
<text text-anchor="middle" x="1802" y="-342.5" font-family="Helvetica,sans-Serif" font-size="10.00">Cpl/Text/FString.h</text>
</a>
</g>
</g>
<!-- Node1&#45;&gt;Node36 -->
<g id="edge65_Node000001_Node000036" class="edge">
<title>Node1&#45;&gt;Node36</title>
<g id="a_edge65_Node000001_Node000036"><a xlink:title=" ">
<path fill="none" stroke="#63b8ff" d="M1585.94,-391.53C1630.23,-382.4 1697.38,-368.56 1745.05,-358.74"/>
<polygon fill="#63b8ff" stroke="#63b8ff" points="1745.55,-362.21 1754.63,-356.76 1744.13,-355.35 1745.55,-362.21"/>
</a>
</g>
</g>
<!-- Node3 -->
<g id="Node000003" class="node">
<title>Node3</title>
<g id="a_Node000003"><a xlink:href="_model_point_8h.html" target="_top" xlink:title=" ">
<polygon fill="white" stroke="#666666" points="1415.12,-244 1306.88,-244 1306.88,-224 1415.12,-224 1415.12,-244"/>
<text text-anchor="middle" x="1361" y="-230.5" font-family="Helvetica,sans-Serif" font-size="10.00">Cpl/Dm/ModelPoint.h</text>
</a>
</g>
</g>
<!-- Node2&#45;&gt;Node3 -->
<g id="edge2_Node000002_Node000003" class="edge">
<title>Node2&#45;&gt;Node3</title>
<g id="a_edge2_Node000002_Node000003"><a xlink:title=" ">
<path fill="none" stroke="#63b8ff" d="M1285.99,-335.62C1299.55,-317.44 1329.62,-277.09 1347.3,-253.38"/>
<polygon fill="#63b8ff" stroke="#63b8ff" points="1349.95,-255.68 1353.12,-245.57 1344.34,-251.49 1349.95,-255.68"/>
</a>
</g>
</g>
<!-- Node11 -->
<g id="Node000011" class="node">
<title>Node11</title>
<g id="a_Node000011"><a xlink:title=" ">
<polygon fill="#e0e0e0" stroke="#999999" points="296.12,-20 247.88,-20 247.88,0 296.12,0 296.12,-20"/>
<text text-anchor="middle" x="272" y="-6.5" font-family="Helvetica,sans-Serif" font-size="10.00">stdint.h</text>
</a>
</g>
</g>
<!-- Node2&#45;&gt;Node11 -->
<g id="edge63_Node000002_Node000011" class="edge">
<title>Node2&#45;&gt;Node11</title>
<g id="a_edge63_Node000002_Node000011"><a xlink:title=" ">
<path fill="none" stroke="#63b8ff" d="M1202.39,-344.01C993.67,-340.94 418.13,-329.93 231,-300 125.68,-283.16 0,-341.65 0,-235 0,-235 0,-235 0,-121 0,-84.28 19.76,-75.29 51,-56 108.8,-20.31 189.76,-12.33 235.94,-10.89"/>
<polygon fill="#63b8ff" stroke="#63b8ff" points="236.01,-14.39 245.94,-10.68 235.86,-7.39 236.01,-14.39"/>
</a>
</g>
</g>
<!-- Node17 -->
<g id="Node000017" class="node">
<title>Node17</title>
<g id="a_Node000017"><a xlink:href="_model_database_8h.html" target="_top" xlink:title=" ">
<polygon fill="white" stroke="#666666" points="1585.5,-300 1458.5,-300 1458.5,-280 1585.5,-280 1585.5,-300"/>
<text text-anchor="middle" x="1522" y="-286.5" font-family="Helvetica,sans-Serif" font-size="10.00">Cpl/Dm/ModelDatabase.h</text>
</a>
</g>
</g>
<!-- Node2&#45;&gt;Node17 -->
<g id="edge22_Node000002_Node000017" class="edge">
<title>Node2&#45;&gt;Node17</title>
<g id="a_edge22_Node000002_Node000017"><a xlink:title=" ">
<path fill="none" stroke="#63b8ff" d="M1321.61,-335.53C1362.43,-326.46 1424.18,-312.74 1468.34,-302.93"/>
<polygon fill="#63b8ff" stroke="#63b8ff" points="1468.96,-306.37 1477.97,-300.79 1467.44,-299.54 1468.96,-306.37"/>
</a>
</g>
</g>
<!-- Node21 -->
<g id="Node000021" class="node">
<title>Node21</title>
<g id="a_Node000021"><a xlink:href="_subscriber_8h.html" target="_top" xlink:title=" ">
<polygon fill="white" stroke="#666666" points="346,-300 240,-300 240,-280 346,-280 346,-300"/>
<text text-anchor="middle" x="293" y="-286.5" font-family="Helvetica,sans-Serif" font-size="10.00">Cpl/Dm/Subscriber.h</text>
</a>
</g>
</g>
<!-- Node2&#45;&gt;Node21 -->
<g id="edge31_Node000002_Node000021" class="edge">
<title>Node2&#45;&gt;Node21</title>
<g id="a_edge31_Node000002_Node000021"><a xlink:title=" ">
<path fill="none" stroke="#63b8ff" d="M1202.3,-343.44C1044.38,-339.73 671.59,-328.5 360,-300 359.17,-299.92 358.33,-299.84 357.49,-299.76"/>
<polygon fill="#63b8ff" stroke="#63b8ff" points="358.17,-296.32 347.85,-298.74 357.43,-303.28 358.17,-296.32"/>
</a>
</g>
</g>
<!-- Node31 -->
<g id="Node000031" class="node">
<title>Node31</title>
<g id="a_Node000031"><a xlink:href="_d_list_8h.html" target="_top" xlink:title=" ">
<polygon fill="white" stroke="#666666" points="469.12,-76 360.88,-76 360.88,-56 469.12,-56 469.12,-76"/>
<text text-anchor="middle" x="415" y="-62.5" font-family="Helvetica,sans-Serif" font-size="10.00">Cpl/Container/DList.h</text>
</a>
</g>
</g>
<!-- Node2&#45;&gt;Node31 -->
<g id="edge62_Node000002_Node000031" class="edge">
<title>Node2&#45;&gt;Node31</title>
<g id="a_edge62_Node000002_Node000031"><a xlink:title=" ">
<path fill="none" stroke="#63b8ff" d="M1202.62,-343.69C984.44,-338.93 374,-318.19 374,-235 374,-235 374,-235 374,-177 374,-143.33 391.07,-107.31 403.19,-85.99"/>
<polygon fill="#63b8ff" stroke="#63b8ff" points="406.09,-87.96 408.18,-77.58 400.07,-84.39 406.09,-87.96"/>
</a>
</g>
</g>
<!-- Node34 -->
<g id="Node000034" class="node">
<title>Node34</title>
<g id="a_Node000034"><a xlink:title=" ">
<polygon fill="#e0e0e0" stroke="#999999" points="1347.75,-132 1300.25,-132 1300.25,-112 1347.75,-112 1347.75,-132"/>
<text text-anchor="middle" x="1324" y="-118.5" font-family="Helvetica,sans-Serif" font-size="10.00">stdlib.h</text>
</a>
</g>
</g>
<!-- Node2&#45;&gt;Node34 -->
<g id="edge64_Node000002_Node000034" class="edge">
<title>Node2&#45;&gt;Node34</title>
<g id="a_edge64_Node000002_Node000034"><a xlink:title=" ">
<path fill="none" stroke="#63b8ff" d="M1280.17,-335.53C1282.77,-315.07 1289.48,-265.23 1298,-224 1303.83,-195.81 1312.45,-163.67 1318.14,-143.37"/>
<polygon fill="#63b8ff" stroke="#63b8ff" points="1321.48,-144.43 1320.84,-133.85 1314.74,-142.52 1321.48,-144.43"/>
</a>
</g>
</g>
<!-- Node4 -->
<g id="Node000004" class="node">
<title>Node4</title>
<g id="a_Node000004"><a xlink:title=" ">
<polygon fill="#e0e0e0" stroke="#999999" points="1869.75,-20 1786.25,-20 1786.25,0 1869.75,0 1869.75,-20"/>
<text text-anchor="middle" x="1828" y="-6.5" font-family="Helvetica,sans-Serif" font-size="10.00">colony_config.h</text>
</a>
</g>
</g>
<!-- Node3&#45;&gt;Node4 -->
<g id="edge3_Node000003_Node000004" class="edge">
<title>Node3&#45;&gt;Node4</title>
<g id="a_edge3_Node000003_Node000004"><a xlink:title=" ">
<path fill="none" stroke="#63b8ff" d="M1371.67,-223.58C1388.9,-208.96 1424.52,-181.12 1460,-168 1578.09,-124.33 1625.43,-181.98 1741,-132 1776.94,-116.46 1787.44,-108.68 1809,-76 1817.92,-62.48 1822.74,-44.67 1825.29,-31.12"/>
<polygon fill="#63b8ff" stroke="#63b8ff" points="1828.69,-32.04 1826.81,-21.61 1821.78,-30.93 1828.69,-32.04"/>
</a>
</g>
</g>
<!-- Node5 -->
<g id="Node000005" class="node">
<title>Node5</title>
<g id="a_Node000005"><a xlink:href="_item_8h.html" target="_top" xlink:title=" ">
<polygon fill="white" stroke="#666666" points="936.25,-20 831.75,-20 831.75,0 936.25,0 936.25,-20"/>
<text text-anchor="middle" x="884" y="-6.5" font-family="Helvetica,sans-Serif" font-size="10.00">Cpl/Container/Item.h</text>
</a>
</g>
</g>
<!-- Node3&#45;&gt;Node5 -->
<g id="edge4_Node000003_Node000005" class="edge">
<title>Node3&#45;&gt;Node5</title>
<g id="a_edge4_Node000003_Node000005"><a xlink:title=" ">
<path fill="none" stroke="#63b8ff" d="M1364.08,-223.8C1370.85,-201.63 1384.38,-144.72 1357,-112 1305.18,-50.07 1064.21,-24.18 947.58,-15.14"/>
<polygon fill="#63b8ff" stroke="#63b8ff" points="948.1,-11.67 937.86,-14.41 947.57,-18.65 948.1,-11.67"/>
</a>
</g>
</g>
<!-- Node6 -->
<g id="Node000006" class="node">
<title>Node6</title>
<g id="a_Node000006"><a xlink:href="_text_2_string_8h.html" target="_top" xlink:title=" ">
<polygon fill="white" stroke="#666666" points="1843.38,-188 1754.62,-188 1754.62,-168 1843.38,-168 1843.38,-188"/>
<text text-anchor="middle" x="1799" y="-174.5" font-family="Helvetica,sans-Serif" font-size="10.00">Cpl/Text/String.h</text>
</a>
</g>
</g>
<!-- Node3&#45;&gt;Node6 -->
<g id="edge5_Node000003_Node000006" class="edge">
<title>Node3&#45;&gt;Node6</title>
<g id="a_edge5_Node000003_Node000006"><a xlink:title=" ">
<path fill="none" stroke="#63b8ff" d="M1415.59,-226.27C1499.25,-215.96 1658.37,-196.34 1742.92,-185.91"/>
<polygon fill="#63b8ff" stroke="#63b8ff" points="1743.34,-189.39 1752.84,-184.69 1742.49,-182.44 1743.34,-189.39"/>
</a>
</g>
</g>
<!-- Node10 -->
<g id="Node000010" class="node">
<title>Node10</title>
<g id="a_Node000010"><a xlink:title=" ">
<polygon fill="#e0e0e0" stroke="#999999" points="1587.25,-20 1536.75,-20 1536.75,0 1587.25,0 1587.25,-20"/>
<text text-anchor="middle" x="1562" y="-6.5" font-family="Helvetica,sans-Serif" font-size="10.00">stddef.h</text>
</a>
</g>
</g>
<!-- Node3&#45;&gt;Node10 -->
<g id="edge20_Node000003_Node000010" class="edge">
<title>Node3&#45;&gt;Node10</title>
<g id="a_edge20_Node000003_Node000010"><a xlink:title=" ">
<path fill="none" stroke="#63b8ff" d="M1364.6,-223.68C1376.04,-195.1 1414.2,-107.55 1471,-56 1486.78,-41.68 1507.95,-30.85 1525.9,-23.4"/>
<polygon fill="#63b8ff" stroke="#63b8ff" points="1527.15,-26.67 1535.18,-19.76 1524.59,-20.16 1527.15,-26.67"/>
</a>
</g>
</g>
<!-- Node3&#45;&gt;Node11 -->
<g id="edge21_Node000003_Node000011" class="edge">
<title>Node3&#45;&gt;Node11</title>
<g id="a_edge21_Node000003_Node000011"><a xlink:title=" ">
<path fill="none" stroke="#63b8ff" d="M1306.42,-233.32C1182.05,-233.26 868.37,-228.69 610,-188 511.61,-172.5 479.49,-181.4 393,-132 346.34,-105.35 305.2,-55.95 285.08,-29.25"/>
<polygon fill="#63b8ff" stroke="#63b8ff" points="288.08,-27.42 279.33,-21.45 282.45,-31.57 288.08,-27.42"/>
</a>
</g>
</g>
<!-- Node15 -->
<g id="Node000015" class="node">
<title>Node15</title>
<g id="a_Node000015"><a xlink:href="_subscriber_api_8h.html" target="_top" xlink:title=" ">
<polygon fill="white" stroke="#666666" points="270.12,-132 149.88,-132 149.88,-112 270.12,-112 270.12,-132"/>
<text text-anchor="middle" x="210" y="-118.5" font-family="Helvetica,sans-Serif" font-size="10.00">Cpl/Dm/SubscriberApi.h</text>
</a>
</g>
</g>
<!-- Node3&#45;&gt;Node15 -->
<g id="edge16_Node000003_Node000015" class="edge">
<title>Node3&#45;&gt;Node15</title>
<g id="a_edge16_Node000003_Node000015"><a xlink:title=" ">
<path fill="none" stroke="#63b8ff" d="M1306.56,-232.5C1129.94,-230.55 574.08,-221.82 398,-188 341.14,-177.08 278.12,-152.58 241.4,-136.98"/>
<polygon fill="#63b8ff" stroke="#63b8ff" points="242.84,-133.79 232.27,-133.04 240.07,-140.22 242.84,-133.79"/>
</a>
</g>
</g>
<!-- Node16 -->
<g id="Node000016" class="node">
<title>Node16</title>
<g id="a_Node000016"><a xlink:href="_arduino_8h_source.html" target="_top" xlink:title=" ">
<polygon fill="white" stroke="#666666" points="1566.88,-188 1469.12,-188 1469.12,-168 1566.88,-168 1566.88,-188"/>
<text text-anchor="middle" x="1518" y="-174.5" font-family="Helvetica,sans-Serif" font-size="10.00">Cpl/Json/Arduino.h</text>
</a>
</g>
</g>
<!-- Node3&#45;&gt;Node16 -->
<g id="edge19_Node000003_Node000016" class="edge">
<title>Node3&#45;&gt;Node16</title>
<g id="a_edge19_Node000003_Node000016"><a xlink:title=" ">
<path fill="none" stroke="#63b8ff" d="M1388.35,-223.59C1413.63,-214.9 1451.46,-201.89 1479.73,-192.16"/>
<polygon fill="#63b8ff" stroke="#63b8ff" points="1480.69,-195.53 1489.01,-188.97 1478.41,-188.91 1480.69,-195.53"/>
</a>
</g>
</g>
<!-- Node7 -->
<g id="Node000007" class="node">
<title>Node7</title>
<g id="a_Node000007"><a xlink:title=" ">
<polygon fill="#e0e0e0" stroke="#999999" points="1556.38,-76 1479.62,-76 1479.62,-56 1556.38,-56 1556.38,-76"/>
<text text-anchor="middle" x="1518" y="-62.5" font-family="Helvetica,sans-Serif" font-size="10.00">colony_map.h</text>
</a>
</g>
</g>
<!-- Node6&#45;&gt;Node7 -->
<g id="edge6_Node000006_Node000007" class="edge">
<title>Node6&#45;&gt;Node7</title>
<g id="a_edge6_Node000006_Node000007"><a xlink:title=" ">
<path fill="none" stroke="#63b8ff" d="M1754.31,-169.89C1717.29,-163.04 1663.85,-150.89 1620,-132 1589.97,-119.06 1558.74,-97.82 1538.88,-83.16"/>
<polygon fill="#63b8ff" stroke="#63b8ff" points="1541.15,-80.49 1531.05,-77.27 1536.94,-86.08 1541.15,-80.49"/>
</a>
</g>
</g>
<!-- Node8 -->
<g id="Node000008" class="node">
<title>Node8</title>
<g id="a_Node000008"><a xlink:href="_key_8h.html" target="_top" xlink:title=" ">
<polygon fill="white" stroke="#666666" points="1731.5,-132 1628.5,-132 1628.5,-112 1731.5,-112 1731.5,-132"/>
<text text-anchor="middle" x="1680" y="-118.5" font-family="Helvetica,sans-Serif" font-size="10.00">Cpl/Container/Key.h</text>
</a>
</g>
</g>
<!-- Node6&#45;&gt;Node8 -->
<g id="edge7_Node000006_Node000008" class="edge">
<title>Node6&#45;&gt;Node8</title>
<g id="a_edge7_Node000006_Node000008"><a xlink:title=" ">
<path fill="none" stroke="#63b8ff" d="M1778.27,-167.59C1759.79,-159.21 1732.46,-146.8 1711.31,-137.21"/>
<polygon fill="#63b8ff" stroke="#63b8ff" points="1712.82,-134.05 1702.27,-133.1 1709.93,-140.42 1712.82,-134.05"/>
</a>
</g>
</g>
<!-- Node13 -->
<g id="Node000013" class="node">
<title>Node13</title>
<g id="a_Node000013"><a xlink:title=" ">
<polygon fill="#e0e0e0" stroke="#999999" points="1910.62,-132 1859.38,-132 1859.38,-112 1910.62,-112 1910.62,-132"/>
<text text-anchor="middle" x="1885" y="-118.5" font-family="Helvetica,sans-Serif" font-size="10.00">stdarg.h</text>
</a>
</g>
</g>
<!-- Node6&#45;&gt;Node13 -->
<g id="edge14_Node000006_Node000013" class="edge">
<title>Node6&#45;&gt;Node13</title>
<g id="a_edge14_Node000006_Node000013"><a xlink:title=" ">
<path fill="none" stroke="#63b8ff" d="M1813.98,-167.59C1826.73,-159.59 1845.29,-147.93 1860.24,-138.54"/>
<polygon fill="#63b8ff" stroke="#63b8ff" points="1862.01,-141.57 1868.62,-133.28 1858.29,-135.64 1862.01,-141.57"/>
</a>
</g>
</g>
<!-- Node14 -->
<g id="Node000014" class="node">
<title>Node14</title>
<g id="a_Node000014"><a xlink:title=" ">
<polygon fill="#e0e0e0" stroke="#999999" points="1841.75,-132 1788.25,-132 1788.25,-112 1841.75,-112 1841.75,-132"/>
<text text-anchor="middle" x="1815" y="-118.5" font-family="Helvetica,sans-Serif" font-size="10.00">iostream</text>
</a>
</g>
</g>
<!-- Node6&#45;&gt;Node14 -->
<g id="edge15_Node000006_Node000014" class="edge">
<title>Node6&#45;&gt;Node14</title>
<g id="a_edge15_Node000006_Node000014"><a xlink:title=" ">
<path fill="none" stroke="#63b8ff" d="M1801.79,-167.59C1803.78,-160.86 1806.55,-151.53 1809.03,-143.15"/>
<polygon fill="#63b8ff" stroke="#63b8ff" points="1812.33,-144.33 1811.81,-133.75 1805.62,-142.34 1812.33,-144.33"/>
</a>
</g>
</g>
<!-- Node8&#45;&gt;Node7 -->
<g id="edge13_Node000008_Node000007" class="edge">
<title>Node8&#45;&gt;Node7</title>
<g id="a_edge13_Node000008_Node000007"><a xlink:title=" ">
<path fill="none" stroke="#63b8ff" d="M1651.78,-111.59C1625.58,-102.86 1586.32,-89.77 1557.1,-80.03"/>
<polygon fill="#63b8ff" stroke="#63b8ff" points="1558.47,-76.8 1547.87,-76.96 1556.25,-83.44 1558.47,-76.8"/>
</a>
</g>
</g>
<!-- Node9 -->
<g id="Node000009" class="node">
<title>Node9</title>
<g id="a_Node000009"><a xlink:href="_fatal_error_8h.html" target="_top" xlink:title=" ">
<polygon fill="white" stroke="#666666" points="1733.5,-76 1612.5,-76 1612.5,-56 1733.5,-56 1733.5,-76"/>
<text text-anchor="middle" x="1673" y="-62.5" font-family="Helvetica,sans-Serif" font-size="10.00">Cpl/System/FatalError.h</text>
</a>
</g>
</g>
<!-- Node8&#45;&gt;Node9 -->
<g id="edge8_Node000008_Node000009" class="edge">
<title>Node8&#45;&gt;Node9</title>
<g id="a_edge8_Node000008_Node000009"><a xlink:title=" ">
<path fill="none" stroke="#63b8ff" d="M1678.78,-111.59C1677.92,-104.93 1676.73,-95.75 1675.65,-87.44"/>
<polygon fill="#63b8ff" stroke="#63b8ff" points="1679.16,-87.27 1674.4,-77.8 1672.21,-88.17 1679.16,-87.27"/>
</a>
</g>
</g>
<!-- Node8&#45;&gt;Node11 -->
<g id="edge11_Node000008_Node000011" class="edge">
<title>Node8&#45;&gt;Node11</title>
<g id="a_edge11_Node000008_Node000011"><a xlink:title=" ">
<path fill="none" stroke="#63b8ff" d="M1664.47,-111.67C1635.61,-94.42 1575.65,-59 1565,-56 1502.9,-38.5 510.36,-16.16 307.89,-11.77"/>
<polygon fill="#63b8ff" stroke="#63b8ff" points="308.07,-8.27 298,-11.55 307.92,-15.27 308.07,-8.27"/>
</a>
</g>
</g>
<!-- Node12 -->
<g id="Node000012" class="node">
<title>Node12</title>
<g id="a_Node000012"><a xlink:title=" ">
<polygon fill="#e0e0e0" stroke="#999999" points="1800.12,-76 1751.88,-76 1751.88,-56 1800.12,-56 1800.12,-76"/>
<text text-anchor="middle" x="1776" y="-62.5" font-family="Helvetica,sans-Serif" font-size="10.00">string.h</text>
</a>
</g>
</g>
<!-- Node8&#45;&gt;Node12 -->
<g id="edge12_Node000008_Node000012" class="edge">
<title>Node8&#45;&gt;Node12</title>
<g id="a_edge12_Node000008_Node000012"><a xlink:title=" ">
<path fill="none" stroke="#63b8ff" d="M1696.72,-111.59C1711.22,-103.44 1732.47,-91.48 1749.32,-82"/>
<polygon fill="#63b8ff" stroke="#63b8ff" points="1750.83,-85.17 1757.83,-77.22 1747.4,-79.07 1750.83,-85.17"/>
</a>
</g>
</g>
<!-- Node9&#45;&gt;Node4 -->
<g id="edge10_Node000009_Node000004" class="edge">
<title>Node9&#45;&gt;Node4</title>
<g id="a_edge10_Node000009_Node000004"><a xlink:title=" ">
<path fill="none" stroke="#63b8ff" d="M1700,-55.59C1724.96,-46.9 1762.3,-33.89 1790.22,-24.16"/>
<polygon fill="#63b8ff" stroke="#63b8ff" points="1791.07,-27.57 1799.36,-20.98 1788.77,-20.96 1791.07,-27.57"/>
</a>
</g>
</g>
<!-- Node9&#45;&gt;Node10 -->
<g id="edge9_Node000009_Node000010" class="edge">
<title>Node9&#45;&gt;Node10</title>
<g id="a_edge9_Node000009_Node000010"><a xlink:title=" ">
<path fill="none" stroke="#63b8ff" d="M1653.67,-55.59C1636.58,-47.28 1611.4,-35.03 1591.75,-25.47"/>
<polygon fill="#63b8ff" stroke="#63b8ff" points="1593.37,-22.37 1582.85,-21.14 1590.31,-28.66 1593.37,-22.37"/>
</a>
</g>
</g>
<!-- Node15&#45;&gt;Node5 -->
<g id="edge17_Node000015_Node000005" class="edge">
<title>Node15&#45;&gt;Node5</title>
<g id="a_edge17_Node000015_Node000005"><a xlink:title=" ">
<path fill="none" stroke="#63b8ff" d="M225.51,-111.71C250.93,-97.01 303.49,-68.74 352,-56 438.85,-33.19 698.97,-19.13 820.33,-13.64"/>
<polygon fill="#63b8ff" stroke="#63b8ff" points="820.29,-17.15 830.12,-13.21 819.98,-10.15 820.29,-17.15"/>
</a>
</g>
</g>
<!-- Node15&#45;&gt;Node11 -->
<g id="edge18_Node000015_Node000011" class="edge">
<title>Node15&#45;&gt;Node11</title>
<g id="a_edge18_Node000015_Node000011"><a xlink:title=" ">
<path fill="none" stroke="#63b8ff" d="M215.29,-111.62C225.4,-93.68 247.67,-54.17 261.1,-30.35"/>
<polygon fill="#63b8ff" stroke="#63b8ff" points="264.12,-32.1 265.98,-21.67 258.02,-28.67 264.12,-32.1"/>
</a>
</g>
</g>
<!-- Node17&#45;&gt;Node4 -->
<g id="edge23_Node000017_Node000004" class="edge">
<title>Node17&#45;&gt;Node4</title>
<g id="a_edge23_Node000017_Node000004"><a xlink:title=" ">
<path fill="none" stroke="#63b8ff" d="M1585.95,-285.87C1694.82,-279.97 1906.98,-265.82 1933,-244 1956.06,-224.66 1952,-209.1 1952,-179 1952,-179 1952,-179 1952,-121 1952,-73.59 1900.65,-41.65 1864.04,-24.9"/>
<polygon fill="#63b8ff" stroke="#63b8ff" points="1865.65,-21.78 1855.08,-20.99 1862.84,-28.19 1865.65,-21.78"/>
</a>
</g>
</g>
<!-- Node17&#45;&gt;Node16 -->
<g id="edge30_Node000017_Node000016" class="edge">
<title>Node17&#45;&gt;Node16</title>
<g id="a_edge30_Node000017_Node000016"><a xlink:title=" ">
<path fill="none" stroke="#63b8ff" d="M1503.46,-279.59C1490.6,-271.95 1474.5,-259.83 1467,-244 1458.14,-225.3 1475.46,-207.03 1492.28,-194.65"/>
<polygon fill="#63b8ff" stroke="#63b8ff" points="1493.87,-197.8 1500.14,-189.26 1489.91,-192.02 1493.87,-197.8"/>
</a>
</g>
</g>
<!-- Node18 -->
<g id="Node000018" class="node">
<title>Node18</title>
<g id="a_Node000018"><a xlink:href="_model_database_api_8h.html" target="_top" xlink:title=" ">
<polygon fill="white" stroke="#666666" points="1773.62,-244 1632.38,-244 1632.38,-224 1773.62,-224 1773.62,-244"/>
<text text-anchor="middle" x="1703" y="-230.5" font-family="Helvetica,sans-Serif" font-size="10.00">Cpl/Dm/ModelDatabaseApi.h</text>
</a>
</g>
</g>
<!-- Node17&#45;&gt;Node18 -->
<g id="edge24_Node000017_Node000018" class="edge">
<title>Node17&#45;&gt;Node18</title>
<g id="a_edge24_Node000017_Node000018"><a xlink:title=" ">
<path fill="none" stroke="#63b8ff" d="M1553.53,-279.59C1583.19,-270.74 1627.83,-257.43 1660.61,-247.65"/>
<polygon fill="#63b8ff" stroke="#63b8ff" points="1661.19,-251.13 1669.78,-244.91 1659.19,-244.42 1661.19,-251.13"/>
</a>
</g>
</g>
<!-- Node19 -->
<g id="Node000019" class="node">
<title>Node19</title>
<g id="a_Node000019"><a xlink:href="_mutex_8h.html" target="_top" xlink:title=" ">
<polygon fill="white" stroke="#666666" points="1614.62,-244 1509.38,-244 1509.38,-224 1614.62,-224 1614.62,-244"/>
<text text-anchor="middle" x="1562" y="-230.5" font-family="Helvetica,sans-Serif" font-size="10.00">Cpl/System/Mutex.h</text>
</a>
</g>
</g>
<!-- Node17&#45;&gt;Node19 -->
<g id="edge26_Node000017_Node000019" class="edge">
<title>Node17&#45;&gt;Node19</title>
<g id="a_edge26_Node000017_Node000019"><a xlink:title=" ">
<path fill="none" stroke="#63b8ff" d="M1528.97,-279.59C1534.3,-272.39 1541.83,-262.23 1548.35,-253.43"/>
<polygon fill="#63b8ff" stroke="#63b8ff" points="1551.07,-255.63 1554.21,-245.51 1545.45,-251.47 1551.07,-255.63"/>
</a>
</g>
</g>
<!-- Node20 -->
<g id="Node000020" class="node">
<title>Node20</title>
<g id="a_Node000020"><a xlink:href="_s_list_8h.html" target="_top" xlink:title=" ">
<polygon fill="white" stroke="#666666" points="1693.12,-188 1584.88,-188 1584.88,-168 1693.12,-168 1693.12,-188"/>
<text text-anchor="middle" x="1639" y="-174.5" font-family="Helvetica,sans-Serif" font-size="10.00">Cpl/Container/SList.h</text>
</a>
</g>
</g>
<!-- Node17&#45;&gt;Node20 -->
<g id="edge28_Node000017_Node000020" class="edge">
<title>Node17&#45;&gt;Node20</title>
<g id="a_edge28_Node000017_Node000020"><a xlink:title=" ">
<path fill="none" stroke="#63b8ff" d="M1514,-279.8C1503.39,-266.43 1487.39,-241.34 1500,-224 1509.79,-210.55 1546.04,-199.07 1579.06,-191.07"/>
<polygon fill="#63b8ff" stroke="#63b8ff" points="1579.68,-194.52 1588.62,-188.84 1578.09,-187.7 1579.68,-194.52"/>
</a>
</g>
</g>
<!-- Node18&#45;&gt;Node6 -->
<g id="edge25_Node000018_Node000006" class="edge">
<title>Node18&#45;&gt;Node6</title>
<g id="a_edge25_Node000018_Node000006"><a xlink:title=" ">
<path fill="none" stroke="#63b8ff" d="M1719.72,-223.59C1734.22,-215.44 1755.47,-203.48 1772.32,-194"/>
<polygon fill="#63b8ff" stroke="#63b8ff" points="1773.83,-197.17 1780.83,-189.22 1770.4,-191.07 1773.83,-197.17"/>
</a>
</g>
</g>
<!-- Node19&#45;&gt;Node7 -->
<g id="edge27_Node000019_Node000007" class="edge">
<title>Node19&#45;&gt;Node7</title>
<g id="a_edge27_Node000019_Node000007"><a xlink:title=" ">
<path fill="none" stroke="#63b8ff" d="M1611.25,-223.56C1647.03,-215.58 1691.02,-203.06 1702,-188 1707.24,-180.82 1707.35,-175.1 1702,-168 1667.23,-121.81 1626.07,-162.57 1577,-132 1557.87,-120.08 1541.15,-100.25 1530.45,-85.61"/>
<polygon fill="#63b8ff" stroke="#63b8ff" points="1533.52,-83.89 1524.91,-77.72 1527.78,-87.91 1533.52,-83.89"/>
</a>
</g>
</g>
<!-- Node20&#45;&gt;Node5 -->
<g id="edge29_Node000020_Node000005" class="edge">
<title>Node20&#45;&gt;Node5</title>
<g id="a_edge29_Node000020_Node000005"><a xlink:title=" ">
<path fill="none" stroke="#63b8ff" d="M1620.15,-167.61C1564.21,-139.77 1402.24,-59.4 1390,-56 1308.37,-33.36 1064.32,-19.36 947.58,-13.78"/>
<polygon fill="#63b8ff" stroke="#63b8ff" points="948.01,-10.3 937.86,-13.32 947.68,-17.29 948.01,-10.3"/>
</a>
</g>
</g>
<!-- Node21&#45;&gt;Node3 -->
<g id="edge33_Node000021_Node000003" class="edge">
<title>Node21&#45;&gt;Node3</title>
<g id="a_edge33_Node000021_Node000003"><a xlink:title=" ">
<path fill="none" stroke="#63b8ff" d="M346.33,-286.3C524.64,-277.29 1099.82,-248.21 1295.28,-238.32"/>
<polygon fill="#63b8ff" stroke="#63b8ff" points="1295.18,-241.83 1304.99,-237.83 1294.83,-234.84 1295.18,-241.83"/>
</a>
</g>
</g>
<!-- Node21&#45;&gt;Node11 -->
<g id="edge61_Node000021_Node000011" class="edge">
<title>Node21&#45;&gt;Node11</title>
<g id="a_edge61_Node000021_Node000011"><a xlink:title=" ">
<path fill="none" stroke="#63b8ff" d="M239.54,-288.65C164.77,-285.02 38,-266.03 38,-179 38,-179 38,-179 38,-121 38,-34.58 170.34,-15.93 235.97,-12"/>
<polygon fill="#63b8ff" stroke="#63b8ff" points="236.08,-15.49 245.89,-11.49 235.72,-8.5 236.08,-15.49"/>
</a>
</g>
</g>
<!-- Node21&#45;&gt;Node15 -->
<g id="edge32_Node000021_Node000015" class="edge">
<title>Node21&#45;&gt;Node15</title>
<g id="a_edge32_Node000021_Node000015"><a xlink:title=" ">
<path fill="none" stroke="#63b8ff" d="M245.28,-279.6C197.83,-267.43 127.55,-241.14 95,-188 78.93,-161.77 111.27,-145.18 145.7,-135.33"/>
<polygon fill="#63b8ff" stroke="#63b8ff" points="146.17,-138.83 154.94,-132.88 144.38,-132.06 146.17,-138.83"/>
</a>
</g>
</g>
<!-- Node22 -->
<g id="Node000022" class="node">
<title>Node22</title>
<g id="a_Node000022"><a xlink:href="_dm_2_event_loop_8h.html" target="_top" xlink:title=" ">
<polygon fill="white" stroke="#666666" points="345.25,-244 240.75,-244 240.75,-224 345.25,-224 345.25,-244"/>
<text text-anchor="middle" x="293" y="-230.5" font-family="Helvetica,sans-Serif" font-size="10.00">Cpl/Dm/EventLoop.h</text>
</a>
</g>
</g>
<!-- Node21&#45;&gt;Node22 -->
<g id="edge34_Node000021_Node000022" class="edge">
<title>Node21&#45;&gt;Node22</title>
<g id="a_edge34_Node000021_Node000022"><a xlink:title=" ">
<path fill="none" stroke="#63b8ff" d="M293,-279.59C293,-273.01 293,-263.96 293,-255.73"/>
<polygon fill="#63b8ff" stroke="#63b8ff" points="296.5,-255.81 293,-245.81 289.5,-255.81 296.5,-255.81"/>
</a>
</g>
</g>
<!-- Node22&#45;&gt;Node15 -->
<g id="edge58_Node000022_Node000015" class="edge">
<title>Node22&#45;&gt;Node15</title>
<g id="a_edge58_Node000022_Node000015"><a xlink:title=" ">
<path fill="none" stroke="#63b8ff" d="M285.92,-223.62C272.2,-205.44 241.76,-165.09 223.87,-141.38"/>
<polygon fill="#63b8ff" stroke="#63b8ff" points="226.79,-139.44 217.97,-133.56 221.2,-143.65 226.79,-139.44"/>
</a>
</g>
</g>
<!-- Node23 -->
<g id="Node000023" class="node">
<title>Node23</title>
<g id="a_Node000023"><a xlink:href="_system_2_event_loop_8h.html" target="_top" xlink:title=" ">
<polygon fill="white" stroke="#666666" points="742.62,-188 619.38,-188 619.38,-168 742.62,-168 742.62,-188"/>
<text text-anchor="middle" x="681" y="-174.5" font-family="Helvetica,sans-Serif" font-size="10.00">Cpl/System/EventLoop.h</text>
</a>
</g>
</g>
<!-- Node22&#45;&gt;Node23 -->
<g id="edge35_Node000022_Node000023" class="edge">
<title>Node22&#45;&gt;Node23</title>
<g id="a_edge35_Node000022_Node000023"><a xlink:title=" ">
<path fill="none" stroke="#63b8ff" d="M345.73,-225.66C413.57,-216.22 531.74,-199.77 608.13,-189.14"/>
<polygon fill="#63b8ff" stroke="#63b8ff" points="608.17,-192.67 617.59,-187.82 607.2,-185.74 608.17,-192.67"/>
</a>
</g>
</g>
<!-- Node22&#45;&gt;Node31 -->
<g id="edge57_Node000022_Node000031" class="edge">
<title>Node22&#45;&gt;Node31</title>
<g id="a_edge57_Node000022_Node000031"><a xlink:title=" ">
<path fill="none" stroke="#63b8ff" d="M296.67,-223.78C305.41,-202.52 329.08,-149.06 360,-112 369.08,-101.12 381.08,-90.95 391.55,-83.03"/>
<polygon fill="#63b8ff" stroke="#63b8ff" points="393.36,-86.05 399.39,-77.34 389.25,-80.38 393.36,-86.05"/>
</a>
</g>
</g>
<!-- Node32 -->
<g id="Node000032" class="node">
<title>Node32</title>
<g id="a_Node000032"><a xlink:href="_thread_8h.html" target="_top" xlink:title=" ">
<polygon fill="white" stroke="#666666" points="1205.75,-188 1098.25,-188 1098.25,-168 1205.75,-168 1205.75,-188"/>
<text text-anchor="middle" x="1152" y="-174.5" font-family="Helvetica,sans-Serif" font-size="10.00">Cpl/System/Thread.h</text>
</a>
</g>
</g>
<!-- Node22&#45;&gt;Node32 -->
<g id="edge51_Node000022_Node000032" class="edge">
<title>Node22&#45;&gt;Node32</title>
<g id="a_edge51_Node000022_Node000032"><a xlink:title=" ">
<path fill="none" stroke="#63b8ff" d="M345.44,-229.7C494.76,-220.32 921.97,-193.46 1086.4,-183.12"/>
<polygon fill="#63b8ff" stroke="#63b8ff" points="1086.5,-186.62 1096.26,-182.5 1086.06,-179.64 1086.5,-186.62"/>
</a>
</g>
</g>
<!-- Node35 -->
<g id="Node000035" class="node">
<title>Node35</title>
<g id="a_Node000035"><a xlink:href="_notification_api___8h.html" target="_top" xlink:title=" ">
<polygon fill="white" stroke="#666666" points="231.5,-188 104.5,-188 104.5,-168 231.5,-168 231.5,-188"/>
<text text-anchor="middle" x="168" y="-174.5" font-family="Helvetica,sans-Serif" font-size="10.00">Cpl/Dm/NotificationApi_.h</text>
</a>
</g>
</g>
<!-- Node22&#45;&gt;Node35 -->
<g id="edge59_Node000022_Node000035" class="edge">
<title>Node22&#45;&gt;Node35</title>
<g id="a_edge59_Node000022_Node000035"><a xlink:title=" ">
<path fill="none" stroke="#63b8ff" d="M271.23,-223.59C251.63,-215.13 222.57,-202.58 200.28,-192.94"/>
<polygon fill="#63b8ff" stroke="#63b8ff" points="201.9,-189.83 191.33,-189.08 199.12,-196.26 201.9,-189.83"/>
</a>
</g>
</g>
<!-- Node24 -->
<g id="Node000024" class="node">
<title>Node24</title>
<g id="a_Node000024"><a xlink:href="_runnable_8h.html" target="_top" xlink:title=" ">
<polygon fill="white" stroke="#666666" points="1084.38,-132 965.62,-132 965.62,-112 1084.38,-112 1084.38,-132"/>
<text text-anchor="middle" x="1025" y="-118.5" font-family="Helvetica,sans-Serif" font-size="10.00">Cpl/System/Runnable.h</text>
</a>
</g>
</g>
<!-- Node23&#45;&gt;Node24 -->
<g id="edge36_Node000023_Node000024" class="edge">
<title>Node23&#45;&gt;Node24</title>
<g id="a_edge36_Node000023_Node000024"><a xlink:title=" ">
<path fill="none" stroke="#63b8ff" d="M741.31,-167.53C800.75,-158.2 891.55,-143.95 954.34,-134.09"/>
<polygon fill="#63b8ff" stroke="#63b8ff" points="954.5,-137.61 963.84,-132.6 953.42,-130.69 954.5,-137.61"/>
</a>
</g>
</g>
<!-- Node25 -->
<g id="Node000025" class="node">
<title>Node25</title>
<g id="a_Node000025"><a xlink:href="_semaphore_8h.html" target="_top" xlink:title=" ">
<polygon fill="white" stroke="#666666" points="947.88,-132 820.12,-132 820.12,-112 947.88,-112 947.88,-132"/>
<text text-anchor="middle" x="884" y="-118.5" font-family="Helvetica,sans-Serif" font-size="10.00">Cpl/System/Semaphore.h</text>
</a>
</g>
</g>
<!-- Node23&#45;&gt;Node25 -->
<g id="edge37_Node000023_Node000025" class="edge">
<title>Node23&#45;&gt;Node25</title>
<g id="a_edge37_Node000023_Node000025"><a xlink:title=" ">
<path fill="none" stroke="#63b8ff" d="M716.36,-167.59C749.92,-158.67 800.57,-145.19 837.41,-135.39"/>
<polygon fill="#63b8ff" stroke="#63b8ff" points="838.14,-138.82 846.9,-132.87 836.34,-132.06 838.14,-138.82"/>
</a>
</g>
</g>
<!-- Node26 -->
<g id="Node000026" class="node">
<title>Node26</title>
<g id="a_Node000026"><a xlink:href="_signable_8h.html" target="_top" xlink:title=" ">
<polygon fill="white" stroke="#666666" points="941.88,-76 826.12,-76 826.12,-56 941.88,-56 941.88,-76"/>
<text text-anchor="middle" x="884" y="-62.5" font-family="Helvetica,sans-Serif" font-size="10.00">Cpl/System/Signable.h</text>
</a>
</g>
</g>
<!-- Node23&#45;&gt;Node26 -->
<g id="edge41_Node000023_Node000026" class="edge">
<title>Node23&#45;&gt;Node26</title>
<g id="a_edge41_Node000023_Node000026"><a xlink:title=" ">
<path fill="none" stroke="#63b8ff" d="M701.32,-167.6C720.11,-158.78 748.71,-145.03 773,-132 803.07,-115.87 836.79,-95.84 859.09,-82.31"/>
<polygon fill="#63b8ff" stroke="#63b8ff" points="860.75,-85.39 867.47,-77.2 857.11,-79.42 860.75,-85.39"/>
</a>
</g>
</g>
<!-- Node27 -->
<g id="Node000027" class="node">
<title>Node27</title>
<g id="a_Node000027"><a xlink:href="_event_flag_8h.html" target="_top" xlink:title=" ">
<polygon fill="white" stroke="#666666" points="743.5,-76 622.5,-76 622.5,-56 743.5,-56 743.5,-76"/>
<text text-anchor="middle" x="683" y="-62.5" font-family="Helvetica,sans-Serif" font-size="10.00">Cpl/System/EventFlag.h</text>
</a>
</g>
</g>
<!-- Node23&#45;&gt;Node27 -->
<g id="edge42_Node000023_Node000027" class="edge">
<title>Node23&#45;&gt;Node27</title>
<g id="a_edge42_Node000023_Node000027"><a xlink:title=" ">
<path fill="none" stroke="#63b8ff" d="M644.55,-167.51C612.18,-157.13 572.37,-138.39 589,-112 598.33,-97.18 614.05,-87.14 629.99,-80.37"/>
<polygon fill="#63b8ff" stroke="#63b8ff" points="630.92,-83.76 639.01,-76.92 628.42,-77.22 630.92,-83.76"/>
</a>
</g>
</g>
<!-- Node28 -->
<g id="Node000028" class="node">
<title>Node28</title>
<g id="a_Node000028"><a xlink:href="_shared_event_handler_8h.html" target="_top" xlink:title=" ">
<polygon fill="white" stroke="#666666" points="764,-132 598,-132 598,-112 764,-112 764,-132"/>
<text text-anchor="middle" x="681" y="-118.5" font-family="Helvetica,sans-Serif" font-size="10.00">Cpl/System/SharedEventHandler.h</text>
</a>
</g>
</g>
<!-- Node23&#45;&gt;Node28 -->
<g id="edge45_Node000023_Node000028" class="edge">
<title>Node23&#45;&gt;Node28</title>
<g id="a_edge45_Node000023_Node000028"><a xlink:title=" ">
<path fill="none" stroke="#63b8ff" d="M681,-167.59C681,-161.01 681,-151.96 681,-143.73"/>
<polygon fill="#63b8ff" stroke="#63b8ff" points="684.5,-143.81 681,-133.81 677.5,-143.81 684.5,-143.81"/>
</a>
</g>
</g>
<!-- Node29 -->
<g id="Node000029" class="node">
<title>Node29</title>
<g id="a_Node000029"><a xlink:href="_timer_manager_8h.html" target="_top" xlink:title=" ">
<polygon fill="white" stroke="#666666" points="541.88,-132 402.12,-132 402.12,-112 541.88,-112 541.88,-132"/>
<text text-anchor="middle" x="472" y="-118.5" font-family="Helvetica,sans-Serif" font-size="10.00">Cpl/System/TimerManager.h</text>
</a>
</g>
</g>
<!-- Node23&#45;&gt;Node29 -->
<g id="edge47_Node000023_Node000029" class="edge">
<title>Node23&#45;&gt;Node29</title>
<g id="a_edge47_Node000023_Node000029"><a xlink:title=" ">
<path fill="none" stroke="#63b8ff" d="M644.59,-167.59C609.89,-158.63 557.45,-145.08 519.48,-135.27"/>
<polygon fill="#63b8ff" stroke="#63b8ff" points="520.71,-131.97 510.15,-132.86 518.96,-138.75 520.71,-131.97"/>
</a>
</g>
</g>
<!-- Node25&#45;&gt;Node7 -->
<g id="edge38_Node000025_Node000007" class="edge">
<title>Node25&#45;&gt;Node7</title>
<g id="a_edge38_Node000025_Node000007"><a xlink:title=" ">
<path fill="none" stroke="#63b8ff" d="M948.08,-112.94C951.09,-112.61 954.08,-112.3 957,-112 1145.22,-92.86 1369.65,-76.93 1467.84,-70.3"/>
<polygon fill="#63b8ff" stroke="#63b8ff" points="1467.93,-73.81 1477.67,-69.64 1467.46,-66.82 1467.93,-73.81"/>
</a>
</g>
</g>
<!-- Node25&#45;&gt;Node26 -->
<g id="edge39_Node000025_Node000026" class="edge">
<title>Node25&#45;&gt;Node26</title>
<g id="a_edge39_Node000025_Node000026"><a xlink:title=" ">
<path fill="none" stroke="#63b8ff" d="M884,-111.59C884,-105.01 884,-95.96 884,-87.73"/>
<polygon fill="#63b8ff" stroke="#63b8ff" points="887.5,-87.81 884,-77.81 880.5,-87.81 887.5,-87.81"/>
</a>
</g>
</g>
<!-- Node26&#45;&gt;Node5 -->
<g id="edge40_Node000026_Node000005" class="edge">
<title>Node26&#45;&gt;Node5</title>
<g id="a_edge40_Node000026_Node000005"><a xlink:title=" ">
<path fill="none" stroke="#63b8ff" d="M884,-55.59C884,-49.01 884,-39.96 884,-31.73"/>
<polygon fill="#63b8ff" stroke="#63b8ff" points="887.5,-31.81 884,-21.81 880.5,-31.81 887.5,-31.81"/>
</a>
</g>
</g>
<!-- Node27&#45;&gt;Node4 -->
<g id="edge43_Node000027_Node000004" class="edge">
<title>Node27&#45;&gt;Node4</title>
<g id="a_edge43_Node000027_Node000004"><a xlink:title=" ">
<path fill="none" stroke="#63b8ff" d="M743.68,-60.63C766.65,-59.06 793.02,-57.34 817,-56 1006.14,-45.44 1593.99,-20.74 1774.64,-13.22"/>
<polygon fill="#63b8ff" stroke="#63b8ff" points="1774.59,-16.72 1784.43,-12.81 1774.29,-9.73 1774.59,-16.72"/>
</a>
</g>
</g>
<!-- Node27&#45;&gt;Node11 -->
<g id="edge44_Node000027_Node000011" class="edge">
<title>Node27&#45;&gt;Node11</title>
<g id="a_edge44_Node000027_Node000011"><a xlink:title=" ">
<path fill="none" stroke="#63b8ff" d="M622.36,-57.03C535.39,-45.61 378,-24.93 307.65,-15.68"/>
<polygon fill="#63b8ff" stroke="#63b8ff" points="308.22,-12.23 297.85,-14.4 307.31,-19.17 308.22,-12.23"/>
</a>
</g>
</g>
<!-- Node28&#45;&gt;Node27 -->
<g id="edge46_Node000028_Node000027" class="edge">
<title>Node28&#45;&gt;Node27</title>
<g id="a_edge46_Node000028_Node000027"><a xlink:title=" ">
<path fill="none" stroke="#63b8ff" d="M681.35,-111.59C681.59,-105.01 681.93,-95.96 682.23,-87.73"/>
<polygon fill="#63b8ff" stroke="#63b8ff" points="685.73,-87.93 682.6,-77.81 678.73,-87.67 685.73,-87.93"/>
</a>
</g>
</g>
<!-- Node30 -->
<g id="Node000030" class="node">
<title>Node30</title>
<g id="a_Node000030"><a xlink:href="_counter___8h.html" target="_top" xlink:title=" ">
<polygon fill="white" stroke="#666666" points="604.62,-76 487.38,-76 487.38,-56 604.62,-56 604.62,-76"/>
<text text-anchor="middle" x="546" y="-62.5" font-family="Helvetica,sans-Serif" font-size="10.00">Cpl/System/Counter_.h</text>
</a>
</g>
</g>
<!-- Node29&#45;&gt;Node30 -->
<g id="edge48_Node000029_Node000030" class="edge">
<title>Node29&#45;&gt;Node30</title>
<g id="a_edge48_Node000029_Node000030"><a xlink:title=" ">
<path fill="none" stroke="#63b8ff" d="M484.89,-111.59C495.71,-103.7 511.41,-92.24 524.19,-82.92"/>
<polygon fill="#63b8ff" stroke="#63b8ff" points="526.02,-85.91 532.04,-77.19 521.89,-80.26 526.02,-85.91"/>
</a>
</g>
</g>
<!-- Node29&#45;&gt;Node31 -->
<g id="edge50_Node000029_Node000031" class="edge">
<title>Node29&#45;&gt;Node31</title>
<g id="a_edge50_Node000029_Node000031"><a xlink:title=" ">
<path fill="none" stroke="#63b8ff" d="M462.07,-111.59C454.06,-104.01 442.58,-93.13 432.97,-84.02"/>
<polygon fill="#63b8ff" stroke="#63b8ff" points="435.58,-81.68 425.91,-77.34 430.77,-86.76 435.58,-81.68"/>
</a>
</g>
</g>
<!-- Node30&#45;&gt;Node5 -->
<g id="edge49_Node000030_Node000005" class="edge">
<title>Node30&#45;&gt;Node5</title>
<g id="a_edge49_Node000030_Node000005"><a xlink:title=" ">
<path fill="none" stroke="#63b8ff" d="M604.88,-55.59C665.06,-45.98 758.24,-31.09 820.17,-21.2"/>
<polygon fill="#63b8ff" stroke="#63b8ff" points="820.53,-24.68 829.86,-19.65 819.43,-17.77 820.53,-24.68"/>
</a>
</g>
</g>
<!-- Node32&#45;&gt;Node7 -->
<g id="edge52_Node000032_Node000007" class="edge">
<title>Node32&#45;&gt;Node7</title>
<g id="a_edge52_Node000032_Node000007"><a xlink:title=" ">
<path fill="none" stroke="#63b8ff" d="M1174.26,-167.58C1194.85,-158.75 1226.23,-144.99 1253,-132 1270.17,-123.67 1273.01,-118.37 1291,-112 1350.01,-91.12 1421.27,-78.99 1468.01,-72.69"/>
<polygon fill="#63b8ff" stroke="#63b8ff" points="1468.38,-76.17 1477.85,-71.41 1467.48,-69.23 1468.38,-76.17"/>
</a>
</g>
</g>
<!-- Node32&#45;&gt;Node24 -->
<g id="edge53_Node000032_Node000024" class="edge">
<title>Node32&#45;&gt;Node24</title>
<g id="a_edge53_Node000032_Node000024"><a xlink:title=" ">
<path fill="none" stroke="#63b8ff" d="M1129.88,-167.59C1109.97,-159.13 1080.45,-146.58 1057.79,-136.94"/>
<polygon fill="#63b8ff" stroke="#63b8ff" points="1059.26,-133.76 1048.69,-133.07 1056.52,-140.21 1059.26,-133.76"/>
</a>
</g>
</g>
<!-- Node32&#45;&gt;Node26 -->
<g id="edge54_Node000032_Node000026" class="edge">
<title>Node32&#45;&gt;Node26</title>
<g id="a_edge54_Node000032_Node000026"><a xlink:title=" ">
<path fill="none" stroke="#63b8ff" d="M1146.39,-167.79C1137.15,-153.46 1117.29,-126 1093,-112 1050.44,-87.46 996.01,-76.27 953.37,-71.18"/>
<polygon fill="#63b8ff" stroke="#63b8ff" points="953.79,-67.71 943.47,-70.1 953.03,-74.66 953.79,-67.71"/>
</a>
</g>
</g>
<!-- Node33 -->
<g id="Node000033" class="node">
<title>Node33</title>
<g id="a_Node000033"><a xlink:href="_traverser_8h.html" target="_top" xlink:title=" ">
<polygon fill="white" stroke="#666666" points="1244.25,-132 1139.75,-132 1139.75,-112 1244.25,-112 1244.25,-132"/>
<text text-anchor="middle" x="1192" y="-118.5" font-family="Helvetica,sans-Serif" font-size="10.00">Cpl/Type/Traverser.h</text>
</a>
</g>
</g>
<!-- Node32&#45;&gt;Node33 -->
<g id="edge55_Node000032_Node000033" class="edge">
<title>Node32&#45;&gt;Node33</title>
<g id="a_edge55_Node000032_Node000033"><a xlink:title=" ">
<path fill="none" stroke="#63b8ff" d="M1158.97,-167.59C1164.3,-160.39 1171.83,-150.23 1178.35,-141.43"/>
<polygon fill="#63b8ff" stroke="#63b8ff" points="1181.07,-143.63 1184.21,-133.51 1175.45,-139.47 1181.07,-143.63"/>
</a>
</g>
</g>
<!-- Node32&#45;&gt;Node34 -->
<g id="edge56_Node000032_Node000034" class="edge">
<title>Node32&#45;&gt;Node34</title>
<g id="a_edge56_Node000032_Node000034"><a xlink:title=" ">
<path fill="none" stroke="#63b8ff" d="M1181.96,-167.59C1211.79,-158.23 1257.56,-143.86 1289.03,-133.98"/>
<polygon fill="#63b8ff" stroke="#63b8ff" points="1289.99,-137.35 1298.48,-131.01 1287.89,-130.67 1289.99,-137.35"/>
</a>
</g>
</g>
<!-- Node35&#45;&gt;Node15 -->
<g id="edge60_Node000035_Node000015" class="edge">
<title>Node35&#45;&gt;Node15</title>
<g id="a_edge60_Node000035_Node000015"><a xlink:title=" ">
<path fill="none" stroke="#63b8ff" d="M175.32,-167.59C180.98,-160.32 188.99,-150.02 195.89,-141.15"/>
<polygon fill="#63b8ff" stroke="#63b8ff" points="198.46,-143.54 201.84,-133.49 192.94,-139.24 198.46,-143.54"/>
</a>
</g>
</g>
<!-- Node36&#45;&gt;Node6 -->
<g id="edge70_Node000036_Node000006" class="edge">
<title>Node36&#45;&gt;Node6</title>
<g id="a_edge70_Node000036_Node000006"><a xlink:title=" ">
<path fill="none" stroke="#63b8ff" d="M1801.83,-335.6C1801.36,-309.46 1800.02,-235.48 1799.37,-199.36"/>
<polygon fill="#63b8ff" stroke="#63b8ff" points="1802.88,-199.75 1799.2,-189.81 1795.88,-199.87 1802.88,-199.75"/>
</a>
</g>
</g>
<!-- Node37 -->
<g id="Node000037" class="node">
<title>Node37</title>
<g id="a_Node000037"><a xlink:href="_f_string___8h.html" target="_top" xlink:title=" ">
<polygon fill="white" stroke="#666666" points="1930,-300 1830,-300 1830,-280 1930,-280 1930,-300"/>
<text text-anchor="middle" x="1880" y="-286.5" font-family="Helvetica,sans-Serif" font-size="10.00">Cpl/Text/FString_.h</text>
</a>
</g>
</g>
<!-- Node36&#45;&gt;Node37 -->
<g id="edge66_Node000036_Node000037" class="edge">
<title>Node36&#45;&gt;Node37</title>
<g id="a_edge66_Node000036_Node000037"><a xlink:title=" ">
<path fill="none" stroke="#63b8ff" d="M1815.59,-335.59C1827.04,-327.67 1843.66,-316.16 1857.16,-306.82"/>
<polygon fill="#63b8ff" stroke="#63b8ff" points="1858.83,-309.91 1865.06,-301.34 1854.85,-304.16 1858.83,-309.91"/>
</a>
</g>
</g>
<!-- Node37&#45;&gt;Node4 -->
<g id="edge67_Node000037_Node000004" class="edge">
<title>Node37&#45;&gt;Node4</title>
<g id="a_edge67_Node000037_Node000004"><a xlink:title=" ">
<path fill="none" stroke="#63b8ff" d="M1909.82,-279.63C1928.23,-272.49 1951.09,-260.96 1966,-244 1986.33,-220.87 1990,-209.8 1990,-179 1990,-179 1990,-179 1990,-121 1990,-90.2 1988.19,-77.35 1966,-56 1943.16,-34.02 1909.44,-22.77 1881.05,-17.02"/>
<polygon fill="#63b8ff" stroke="#63b8ff" points="1882.02,-13.64 1871.56,-15.28 1880.76,-20.53 1882.02,-13.64"/>
</a>
</g>
</g>
<!-- Node38 -->
<g id="Node000038" class="node">
<title>Node38</title>
<g id="a_Node000038"><a xlink:href="_string___8h.html" target="_top" xlink:title=" ">
<polygon fill="white" stroke="#666666" points="1924,-244 1830,-244 1830,-224 1924,-224 1924,-244"/>
<text text-anchor="middle" x="1877" y="-230.5" font-family="Helvetica,sans-Serif" font-size="10.00">Cpl/Text/String_.h</text>
</a>
</g>
</g>
<!-- Node37&#45;&gt;Node38 -->
<g id="edge68_Node000037_Node000038" class="edge">
<title>Node37&#45;&gt;Node38</title>
<g id="a_edge68_Node000037_Node000038"><a xlink:title=" ">
<path fill="none" stroke="#63b8ff" d="M1879.48,-279.59C1879.11,-273.01 1878.61,-263.96 1878.15,-255.73"/>
<polygon fill="#63b8ff" stroke="#63b8ff" points="1881.65,-255.6 1877.6,-245.81 1874.66,-255.99 1881.65,-255.6"/>
</a>
</g>
</g>
<!-- Node38&#45;&gt;Node6 -->
<g id="edge69_Node000038_Node000006" class="edge">
<title>Node38&#45;&gt;Node6</title>
<g id="a_edge69_Node000038_Node000006"><a xlink:title=" ">
<path fill="none" stroke="#63b8ff" d="M1863.41,-223.59C1851.96,-215.67 1835.34,-204.16 1821.84,-194.82"/>
<polygon fill="#63b8ff" stroke="#63b8ff" points="1824.15,-192.16 1813.94,-189.34 1820.17,-197.91 1824.15,-192.16"/>
</a>
</g>
</g>
</g>
</svg>
