<?xml version="1.0" encoding="UTF-8" standalone="no"?>
<!DOCTYPE svg PUBLIC "-//W3C//DTD SVG 1.1//EN"
 "http://www.w3.org/Graphics/SVG/1.1/DTD/svg11.dtd">
<!-- Generated by graphviz version 2.38.0 (20140413.2041)
 -->
<!-- Title: Storm/Dm/MpSimpleAlarm.h Pages: 1 -->
<svg width="594pt" height="229pt"
 viewBox="0.00 0.00 593.50 229.00" xmlns="http://www.w3.org/2000/svg" xmlns:xlink="http://www.w3.org/1999/xlink">
<g id="graph0" class="graph" transform="scale(1 1) rotate(0) translate(4 225)">
<title>Storm/Dm/MpSimpleAlarm.h</title>
<polygon fill="white" stroke="none" points="-4,4 -4,-225 589.5,-225 589.5,4 -4,4"/>
<!-- Node1 -->
<g id="node1" class="node"><title>Node1</title>
<g id="a_node1"><a xlink:title=" ">
<polygon fill="#bfbfbf" stroke="black" points="149.5,-201.5 149.5,-220.5 290.5,-220.5 290.5,-201.5 149.5,-201.5"/>
<text text-anchor="middle" x="220" y="-208.5" font-family="Helvetica,sans-Serif" font-size="10.00">Storm/Dm/MpSimpleAlarm.h</text>
</a>
</g>
</g>
<!-- Node2 -->
<g id="node2" class="node"><title>Node2</title>
<g id="a_node2"><a xlink:href="_air_filter_monitor_8h.html" target="_top" xlink:title=" ">
<polygon fill="white" stroke="black" points="0,-134.5 0,-164.5 132,-164.5 132,-134.5 0,-134.5"/>
<text text-anchor="start" x="8" y="-152.5" font-family="Helvetica,sans-Serif" font-size="10.00">Storm/Component/AirFilter</text>
<text text-anchor="middle" x="66" y="-141.5" font-family="Helvetica,sans-Serif" font-size="10.00">Monitor.h</text>
</a>
</g>
</g>
<!-- Node1&#45;&gt;Node2 -->
<g id="edge1" class="edge"><title>Node1&#45;&gt;Node2</title>
<path fill="none" stroke="midnightblue" d="M188.546,-197.847C163.529,-188.182 128.498,-174.647 102.295,-164.523"/>
<polygon fill="midnightblue" stroke="midnightblue" points="187.346,-201.136 197.936,-201.475 189.869,-194.606 187.346,-201.136"/>
</g>
<!-- Node4 -->
<g id="node4" class="node"><title>Node4</title>
<g id="a_node4"><a xlink:href="_component_2_operating_mode_8h.html" target="_top" xlink:title=" ">
<polygon fill="white" stroke="black" points="150,-134.5 150,-164.5 290,-164.5 290,-134.5 150,-134.5"/>
<text text-anchor="start" x="158" y="-152.5" font-family="Helvetica,sans-Serif" font-size="10.00">Storm/Component/Operating</text>
<text text-anchor="middle" x="220" y="-141.5" font-family="Helvetica,sans-Serif" font-size="10.00">Mode.h</text>
</a>
</g>
</g>
<!-- Node1&#45;&gt;Node4 -->
<g id="edge3" class="edge"><title>Node1&#45;&gt;Node4</title>
<path fill="none" stroke="midnightblue" d="M220,-191.235C220,-182.586 220,-172.497 220,-164.523"/>
<polygon fill="midnightblue" stroke="midnightblue" points="216.5,-191.475 220,-201.475 223.5,-191.475 216.5,-191.475"/>
</g>
<!-- Node5 -->
<g id="node5" class="node"><title>Node5</title>
<g id="a_node5"><a xlink:href="_model_points_8h.html" target="_top" xlink:title="This file defines all of the Model Points for the Thermostat Application.">
<polygon fill="white" stroke="black" points="308.5,-140 308.5,-159 469.5,-159 469.5,-140 308.5,-140"/>
<text text-anchor="middle" x="389" y="-147" font-family="Helvetica,sans-Serif" font-size="10.00">Storm/Thermostat/ModelPoints.h</text>
</a>
</g>
</g>
<!-- Node1&#45;&gt;Node5 -->
<g id="edge5" class="edge"><title>Node1&#45;&gt;Node5</title>
<path fill="none" stroke="midnightblue" d="M253.849,-198.083C286.7,-186.517 335.737,-169.252 364.831,-159.009"/>
<polygon fill="midnightblue" stroke="midnightblue" points="252.484,-194.853 244.214,-201.475 254.808,-201.456 252.484,-194.853"/>
</g>
<!-- Node3 -->
<g id="node3" class="node"><title>Node3</title>
<g id="a_node3"><a xlink:href="_algorithm_8h.html" target="_top" xlink:title=" ">
<polygon fill="white" stroke="black" points="9,-73 9,-92 157,-92 157,-73 9,-73"/>
<text text-anchor="middle" x="83" y="-80" font-family="Helvetica,sans-Serif" font-size="10.00">Storm/Thermostat/Algorithm.h</text>
</a>
</g>
</g>
<!-- Node2&#45;&gt;Node3 -->
<g id="edge2" class="edge"><title>Node2&#45;&gt;Node3</title>
<path fill="none" stroke="midnightblue" d="M72.2517,-124.596C75.2119,-113.278 78.564,-100.461 80.726,-92.1945"/>
<polygon fill="midnightblue" stroke="midnightblue" points="68.833,-123.836 69.6887,-134.396 75.6052,-125.607 68.833,-123.836"/>
</g>
<!-- Node4&#45;&gt;Node3 -->
<g id="edge4" class="edge"><title>Node4&#45;&gt;Node3</title>
<path fill="none" stroke="midnightblue" d="M180.939,-129.967C154.622,-117.481 121.145,-101.598 100.93,-92.007"/>
<polygon fill="midnightblue" stroke="midnightblue" points="179.738,-133.272 190.273,-134.396 182.739,-126.947 179.738,-133.272"/>
</g>
<!-- Node6 -->
<g id="node6" class="node"><title>Node6</title>
<g id="a_node6"><a xlink:href="_installer_record_8h_source.html" target="_top" xlink:title=" ">
<polygon fill="white" stroke="black" points="192.5,-67.5 192.5,-97.5 311.5,-97.5 311.5,-67.5 192.5,-67.5"/>
<text text-anchor="start" x="200.5" y="-85.5" font-family="Helvetica,sans-Serif" font-size="10.00">Storm/Thermostat/Main</text>
<text text-anchor="middle" x="252" y="-74.5" font-family="Helvetica,sans-Serif" font-size="10.00">/InstallerRecord.h</text>
</a>
</g>
</g>
<!-- Node5&#45;&gt;Node6 -->
<g id="edge6" class="edge"><title>Node5&#45;&gt;Node6</title>
<path fill="none" stroke="midnightblue" d="M361.545,-135.474C338.384,-124.485 305.306,-108.791 281.567,-97.5281"/>
<polygon fill="midnightblue" stroke="midnightblue" points="360.272,-138.744 370.807,-139.869 363.273,-132.42 360.272,-138.744"/>
</g>
<!-- Node8 -->
<g id="node8" class="node"><title>Node8</title>
<g id="a_node8"><a xlink:href="_run_time_record_8h_source.html" target="_top" xlink:title=" ">
<polygon fill="white" stroke="black" points="329.5,-67.5 329.5,-97.5 448.5,-97.5 448.5,-67.5 329.5,-67.5"/>
<text text-anchor="start" x="337.5" y="-85.5" font-family="Helvetica,sans-Serif" font-size="10.00">Storm/Thermostat/Main</text>
<text text-anchor="middle" x="389" y="-74.5" font-family="Helvetica,sans-Serif" font-size="10.00">/RunTimeRecord.h</text>
</a>
</g>
</g>
<!-- Node5&#45;&gt;Node8 -->
<g id="edge8" class="edge"><title>Node5&#45;&gt;Node8</title>
<path fill="none" stroke="midnightblue" d="M389,-129.411C389,-119.222 389,-106.901 389,-97.589"/>
<polygon fill="midnightblue" stroke="midnightblue" points="385.5,-129.734 389,-139.734 392.5,-129.734 385.5,-129.734"/>
</g>
<!-- Node9 -->
<g id="node9" class="node"><title>Node9</title>
<g id="a_node9"><a xlink:href="_user_record_8h_source.html" target="_top" xlink:title=" ">
<polygon fill="white" stroke="black" points="466.5,-67.5 466.5,-97.5 585.5,-97.5 585.5,-67.5 466.5,-67.5"/>
<text text-anchor="start" x="474.5" y="-85.5" font-family="Helvetica,sans-Serif" font-size="10.00">Storm/Thermostat/Main</text>
<text text-anchor="middle" x="526" y="-74.5" font-family="Helvetica,sans-Serif" font-size="10.00">/UserRecord.h</text>
</a>
</g>
</g>
<!-- Node5&#45;&gt;Node9 -->
<g id="edge10" class="edge"><title>Node5&#45;&gt;Node9</title>
<path fill="none" stroke="midnightblue" d="M416.455,-135.474C439.616,-124.485 472.694,-108.791 496.433,-97.5281"/>
<polygon fill="midnightblue" stroke="midnightblue" points="414.727,-132.42 407.193,-139.869 417.728,-138.744 414.727,-132.42"/>
</g>
<!-- Node7 -->
<g id="node7" class="node"><title>Node7</title>
<g id="a_node7"><a xlink:href="statics___8h.html" target="_top" xlink:title="This file defines/creates persistent records and record server for the Thermostat simulation.">
<polygon fill="white" stroke="black" points="329.5,-0.5 329.5,-30.5 448.5,-30.5 448.5,-0.5 329.5,-0.5"/>
<text text-anchor="start" x="337.5" y="-18.5" font-family="Helvetica,sans-Serif" font-size="10.00">Storm/Thermostat/Main</text>
<text text-anchor="middle" x="389" y="-7.5" font-family="Helvetica,sans-Serif" font-size="10.00">/_simulation/statics_.h</text>
</a>
</g>
</g>
<!-- Node6&#45;&gt;Node7 -->
<g id="edge7" class="edge"><title>Node6&#45;&gt;Node7</title>
<path fill="none" stroke="midnightblue" d="M291.009,-62.9921C312.724,-52.6892 339.327,-40.0677 359.331,-30.5765"/>
<polygon fill="midnightblue" stroke="midnightblue" points="289.261,-59.9472 281.727,-67.396 292.262,-66.2715 289.261,-59.9472"/>
</g>
<!-- Node8&#45;&gt;Node7 -->
<g id="edge9" class="edge"><title>Node8&#45;&gt;Node7</title>
<path fill="none" stroke="midnightblue" d="M389,-57.1081C389,-48.1539 389,-38.3227 389,-30.5765"/>
<polygon fill="midnightblue" stroke="midnightblue" points="385.5,-57.3959 389,-67.396 392.5,-57.396 385.5,-57.3959"/>
</g>
<!-- Node9&#45;&gt;Node7 -->
<g id="edge11" class="edge"><title>Node9&#45;&gt;Node7</title>
<path fill="none" stroke="midnightblue" d="M486.991,-62.9921C465.276,-52.6892 438.673,-40.0677 418.669,-30.5765"/>
<polygon fill="midnightblue" stroke="midnightblue" points="485.738,-66.2715 496.273,-67.396 488.739,-59.9472 485.738,-66.2715"/>
</g>
</g>
</svg>
