<?xml version="1.0" encoding="UTF-8" standalone="no"?>
<!DOCTYPE svg PUBLIC "-//W3C//DTD SVG 1.1//EN"
 "http://www.w3.org/Graphics/SVG/1.1/DTD/svg11.dtd">
<!-- Generated by graphviz version 2.38.0 (20140413.2041)
 -->
<!-- Title: Storm/Dm/MpFanMode.h Pages: 1 -->
<svg width="1927pt" height="476pt"
 viewBox="0.00 0.00 1927.41 476.00" xmlns="http://www.w3.org/2000/svg" xmlns:xlink="http://www.w3.org/1999/xlink">
<g id="graph0" class="graph" transform="scale(1 1) rotate(0) translate(4 472)">
<title>Storm/Dm/MpFanMode.h</title>
<polygon fill="white" stroke="none" points="-4,4 -4,-472 1923.41,-472 1923.41,4 -4,4"/>
<!-- Node1 -->
<g id="node1" class="node"><title>Node1</title>
<g id="a_node1"><a xlink:title=" ">
<polygon fill="#bfbfbf" stroke="black" points="505.404,-448.5 505.404,-467.5 631.404,-467.5 631.404,-448.5 505.404,-448.5"/>
<text text-anchor="middle" x="568.404" y="-455.5" font-family="Helvetica,sans-Serif" font-size="10.00">Storm/Dm/MpFanMode.h</text>
</a>
</g>
</g>
<!-- Node2 -->
<g id="node2" class="node"><title>Node2</title>
<g id="a_node2"><a xlink:href="_fan_mode_8h.html" target="_top" xlink:title=" ">
<polygon fill="white" stroke="black" points="442.904,-392.5 442.904,-411.5 561.904,-411.5 561.904,-392.5 442.904,-392.5"/>
<text text-anchor="middle" x="502.404" y="-399.5" font-family="Helvetica,sans-Serif" font-size="10.00">Storm/Type/FanMode.h</text>
</a>
</g>
</g>
<!-- Node1&#45;&gt;Node2 -->
<g id="edge1" class="edge"><title>Node1&#45;&gt;Node2</title>
<path fill="none" stroke="midnightblue" d="M557.8,-448.324C547.947,-440.263 533.053,-428.077 521.189,-418.369"/>
<polygon fill="midnightblue" stroke="midnightblue" points="523.157,-415.457 513.201,-411.834 518.724,-420.875 523.157,-415.457"/>
</g>
<!-- Node4 -->
<g id="node4" class="node"><title>Node4</title>
<g id="a_node4"><a xlink:href="_enum___8h.html" target="_top" xlink:title=" ">
<polygon fill="white" stroke="black" points="581.904,-392.5 581.904,-411.5 688.904,-411.5 688.904,-392.5 581.904,-392.5"/>
<text text-anchor="middle" x="635.404" y="-399.5" font-family="Helvetica,sans-Serif" font-size="10.00">Cpl/Dm/Mp/Enum_.h</text>
</a>
</g>
</g>
<!-- Node1&#45;&gt;Node4 -->
<g id="edge3" class="edge"><title>Node1&#45;&gt;Node4</title>
<path fill="none" stroke="midnightblue" d="M579.168,-448.324C589.17,-440.263 604.29,-428.077 616.334,-418.369"/>
<polygon fill="midnightblue" stroke="midnightblue" points="618.853,-420.834 624.443,-411.834 614.461,-415.384 618.853,-420.834"/>
</g>
<!-- Node3 -->
<g id="node3" class="node"><title>Node3</title>
<g id="a_node3"><a xlink:href="enum_8h_source.html" target="_top" xlink:title=" ">
<polygon fill="white" stroke="black" points="452.904,-336.5 452.904,-355.5 543.904,-355.5 543.904,-336.5 452.904,-336.5"/>
<text text-anchor="middle" x="498.404" y="-343.5" font-family="Helvetica,sans-Serif" font-size="10.00">Cpl/Type/enum.h</text>
</a>
</g>
</g>
<!-- Node2&#45;&gt;Node3 -->
<g id="edge2" class="edge"><title>Node2&#45;&gt;Node3</title>
<path fill="none" stroke="midnightblue" d="M501.743,-392.083C501.219,-385.006 500.467,-374.861 499.81,-365.986"/>
<polygon fill="midnightblue" stroke="midnightblue" points="503.281,-365.465 499.052,-355.751 496.3,-365.982 503.281,-365.465"/>
</g>
<!-- Node5 -->
<g id="node5" class="node"><title>Node5</title>
<g id="a_node5"><a xlink:href="_model_point_common___8h.html" target="_top" xlink:title=" ">
<polygon fill="white" stroke="black" points="561.904,-336.5 561.904,-355.5 714.904,-355.5 714.904,-336.5 561.904,-336.5"/>
<text text-anchor="middle" x="638.404" y="-343.5" font-family="Helvetica,sans-Serif" font-size="10.00">Cpl/Dm/ModelPointCommon_.h</text>
</a>
</g>
</g>
<!-- Node4&#45;&gt;Node5 -->
<g id="edge4" class="edge"><title>Node4&#45;&gt;Node5</title>
<path fill="none" stroke="midnightblue" d="M635.899,-392.083C636.292,-385.006 636.856,-374.861 637.349,-365.986"/>
<polygon fill="midnightblue" stroke="midnightblue" points="640.857,-365.93 637.917,-355.751 633.868,-365.542 640.857,-365.93"/>
</g>
<!-- Node6 -->
<g id="node6" class="node"><title>Node6</title>
<g id="a_node6"><a xlink:href="_model_point_8h.html" target="_top" xlink:title=" ">
<polygon fill="white" stroke="black" points="195.904,-224.5 195.904,-243.5 304.904,-243.5 304.904,-224.5 195.904,-224.5"/>
<text text-anchor="middle" x="250.404" y="-231.5" font-family="Helvetica,sans-Serif" font-size="10.00">Cpl/Dm/ModelPoint.h</text>
</a>
</g>
</g>
<!-- Node5&#45;&gt;Node6 -->
<g id="edge5" class="edge"><title>Node5&#45;&gt;Node6</title>
<path fill="none" stroke="midnightblue" d="M602.119,-336.418C566.044,-327.748 509.196,-313.708 460.404,-300 398.796,-282.691 327.802,-260.171 286.147,-246.692"/>
<polygon fill="midnightblue" stroke="midnightblue" points="287.056,-243.307 276.464,-243.55 284.896,-249.966 287.056,-243.307"/>
</g>
<!-- Node14 -->
<g id="node14" class="node"><title>Node14</title>
<g id="a_node14"><a xlink:title=" ">
<polygon fill="white" stroke="#bfbfbf" points="571.904,-0.5 571.904,-19.5 620.904,-19.5 620.904,-0.5 571.904,-0.5"/>
<text text-anchor="middle" x="596.404" y="-7.5" font-family="Helvetica,sans-Serif" font-size="10.00">stdint.h</text>
</a>
</g>
</g>
<!-- Node5&#45;&gt;Node14 -->
<g id="edge66" class="edge"><title>Node5&#45;&gt;Node14</title>
<path fill="none" stroke="midnightblue" d="M562.008,-336.492C418.823,-319.505 124.404,-279.202 124.404,-235 124.404,-235 124.404,-235 124.404,-177 124.404,-89.2551 199.605,-90.2165 280.404,-56 376.438,-15.3315 502.056,-10.138 561.858,-10.2396"/>
<polygon fill="midnightblue" stroke="midnightblue" points="561.873,-13.7397 571.897,-10.3086 561.921,-6.73982 561.873,-13.7397"/>
</g>
<!-- Node19 -->
<g id="node19" class="node"><title>Node19</title>
<g id="a_node19"><a xlink:href="_model_database_8h.html" target="_top" xlink:title=" ">
<polygon fill="white" stroke="black" points="469.404,-280.5 469.404,-299.5 597.404,-299.5 597.404,-280.5 469.404,-280.5"/>
<text text-anchor="middle" x="533.404" y="-287.5" font-family="Helvetica,sans-Serif" font-size="10.00">Cpl/Dm/ModelDatabase.h</text>
</a>
</g>
</g>
<!-- Node5&#45;&gt;Node19 -->
<g id="edge25" class="edge"><title>Node5&#45;&gt;Node19</title>
<path fill="none" stroke="midnightblue" d="M621.534,-336.324C604.695,-327.664 578.597,-314.242 559.166,-304.249"/>
<polygon fill="midnightblue" stroke="midnightblue" points="560.725,-301.116 550.232,-299.655 557.524,-307.341 560.725,-301.116"/>
</g>
<!-- Node23 -->
<g id="node23" class="node"><title>Node23</title>
<g id="a_node23"><a xlink:href="_subscriber_8h.html" target="_top" xlink:title=" ">
<polygon fill="white" stroke="black" points="729.904,-280.5 729.904,-299.5 836.904,-299.5 836.904,-280.5 729.904,-280.5"/>
<text text-anchor="middle" x="783.404" y="-287.5" font-family="Helvetica,sans-Serif" font-size="10.00">Cpl/Dm/Subscriber.h</text>
</a>
</g>
</g>
<!-- Node5&#45;&gt;Node23 -->
<g id="edge34" class="edge"><title>Node5&#45;&gt;Node23</title>
<path fill="none" stroke="midnightblue" d="M661.379,-336.444C685.561,-327.438 723.822,-313.189 751.05,-303.049"/>
<polygon fill="midnightblue" stroke="midnightblue" points="752.386,-306.286 760.535,-299.516 749.943,-299.727 752.386,-306.286"/>
</g>
<!-- Node33 -->
<g id="node33" class="node"><title>Node33</title>
<g id="a_node33"><a xlink:href="_d_list_8h.html" target="_top" xlink:title=" ">
<polygon fill="white" stroke="black" points="1760.9,-56.5 1760.9,-75.5 1869.9,-75.5 1869.9,-56.5 1760.9,-56.5"/>
<text text-anchor="middle" x="1815.4" y="-63.5" font-family="Helvetica,sans-Serif" font-size="10.00">Cpl/Container/DList.h</text>
</a>
</g>
</g>
<!-- Node5&#45;&gt;Node33 -->
<g id="edge65" class="edge"><title>Node5&#45;&gt;Node33</title>
<path fill="none" stroke="midnightblue" d="M715.175,-342.452C991.54,-332.783 1919.4,-295.791 1919.4,-235 1919.4,-235 1919.4,-235 1919.4,-177 1919.4,-146.902 1919.43,-135.325 1900.4,-112 1888.32,-97.1808 1870.03,-86.6148 1853.52,-79.4623"/>
<polygon fill="midnightblue" stroke="midnightblue" points="1854.64,-76.1409 1844.06,-75.6392 1852.02,-82.631 1854.64,-76.1409"/>
</g>
<!-- Node36 -->
<g id="node36" class="node"><title>Node36</title>
<g id="a_node36"><a xlink:title=" ">
<polygon fill="white" stroke="#bfbfbf" points="1843.4,-112.5 1843.4,-131.5 1891.4,-131.5 1891.4,-112.5 1843.4,-112.5"/>
<text text-anchor="middle" x="1867.4" y="-119.5" font-family="Helvetica,sans-Serif" font-size="10.00">stdlib.h</text>
</a>
</g>
</g>
<!-- Node5&#45;&gt;Node36 -->
<g id="edge67" class="edge"><title>Node5&#45;&gt;Node36</title>
<path fill="none" stroke="midnightblue" d="M715.056,-342.662C896.991,-335.281 1367.47,-305.403 1739.4,-188 1778.81,-175.56 1820.87,-151.965 1845.61,-136.885"/>
<polygon fill="midnightblue" stroke="midnightblue" points="1847.55,-139.804 1854.21,-131.563 1843.86,-133.853 1847.55,-139.804"/>
</g>
<!-- Node7 -->
<g id="node7" class="node"><title>Node7</title>
<g id="a_node7"><a xlink:title=" ">
<polygon fill="white" stroke="#bfbfbf" points="138.904,-0.5 138.904,-19.5 223.904,-19.5 223.904,-0.5 138.904,-0.5"/>
<text text-anchor="middle" x="181.404" y="-7.5" font-family="Helvetica,sans-Serif" font-size="10.00">colony_config.h</text>
</a>
</g>
</g>
<!-- Node6&#45;&gt;Node7 -->
<g id="edge6" class="edge"><title>Node6&#45;&gt;Node7</title>
<path fill="none" stroke="midnightblue" d="M247.699,-224.297C237.525,-191.563 201.412,-75.3752 187.205,-29.6664"/>
<polygon fill="midnightblue" stroke="midnightblue" points="190.475,-28.3943 184.165,-19.8837 183.791,-30.472 190.475,-28.3943"/>
</g>
<!-- Node8 -->
<g id="node8" class="node"><title>Node8</title>
<g id="a_node8"><a xlink:href="_item_8h.html" target="_top" xlink:title=" ">
<polygon fill="white" stroke="black" points="905.404,-0.5 905.404,-19.5 1011.4,-19.5 1011.4,-0.5 905.404,-0.5"/>
<text text-anchor="middle" x="958.404" y="-7.5" font-family="Helvetica,sans-Serif" font-size="10.00">Cpl/Container/Item.h</text>
</a>
</g>
</g>
<!-- Node6&#45;&gt;Node8 -->
<g id="edge7" class="edge"><title>Node6&#45;&gt;Node8</title>
<path fill="none" stroke="midnightblue" d="M253.685,-224.311C262.659,-201.804 289.883,-141.321 333.404,-112 424.558,-50.5875 754.738,-23.4872 894.842,-14.569"/>
<polygon fill="midnightblue" stroke="midnightblue" points="895.235,-18.0513 904.997,-13.9333 894.797,-11.065 895.235,-18.0513"/>
</g>
<!-- Node9 -->
<g id="node9" class="node"><title>Node9</title>
<g id="a_node9"><a xlink:href="_string_8h.html" target="_top" xlink:title=" ">
<polygon fill="white" stroke="black" points="349.404,-168.5 349.404,-187.5 439.404,-187.5 439.404,-168.5 349.404,-168.5"/>
<text text-anchor="middle" x="394.404" y="-175.5" font-family="Helvetica,sans-Serif" font-size="10.00">Cpl/Text/String.h</text>
</a>
</g>
</g>
<!-- Node6&#45;&gt;Node9 -->
<g id="edge8" class="edge"><title>Node6&#45;&gt;Node9</title>
<path fill="none" stroke="midnightblue" d="M273.221,-224.444C297.235,-215.438 335.233,-201.189 362.273,-191.049"/>
<polygon fill="midnightblue" stroke="midnightblue" points="363.559,-194.305 371.693,-187.516 361.101,-187.751 363.559,-194.305"/>
</g>
<!-- Node13 -->
<g id="node13" class="node"><title>Node13</title>
<g id="a_node13"><a xlink:title=" ">
<polygon fill="white" stroke="#bfbfbf" points="3.40364,-0.5 3.40364,-19.5 55.4036,-19.5 55.4036,-0.5 3.40364,-0.5"/>
<text text-anchor="middle" x="29.4036" y="-7.5" font-family="Helvetica,sans-Serif" font-size="10.00">stddef.h</text>
</a>
</g>
</g>
<!-- Node6&#45;&gt;Node13 -->
<g id="edge23" class="edge"><title>Node6&#45;&gt;Node13</title>
<path fill="none" stroke="midnightblue" d="M220.187,-224.365C165.224,-206.829 50.2495,-161.285 3.40364,-76 -5.23635,-60.2705 4.74007,-41.062 14.732,-27.6205"/>
<polygon fill="midnightblue" stroke="midnightblue" points="17.5538,-29.6969 21.1049,-19.7149 12.104,-25.3037 17.5538,-29.6969"/>
</g>
<!-- Node6&#45;&gt;Node14 -->
<g id="edge24" class="edge"><title>Node6&#45;&gt;Node14</title>
<path fill="none" stroke="midnightblue" d="M249.88,-224.33C248.65,-195.397 248.934,-101.433 300.404,-56 338.582,-22.2996 491.723,-13.8251 561.477,-11.7037"/>
<polygon fill="midnightblue" stroke="midnightblue" points="561.634,-15.2007 571.533,-11.4246 561.44,-8.20343 561.634,-15.2007"/>
</g>
<!-- Node17 -->
<g id="node17" class="node"><title>Node17</title>
<g id="a_node17"><a xlink:href="_subscriber_api_8h.html" target="_top" xlink:title=" ">
<polygon fill="white" stroke="black" points="758.904,-112.5 758.904,-131.5 879.904,-131.5 879.904,-112.5 758.904,-112.5"/>
<text text-anchor="middle" x="819.404" y="-119.5" font-family="Helvetica,sans-Serif" font-size="10.00">Cpl/Dm/SubscriberApi.h</text>
</a>
</g>
</g>
<!-- Node6&#45;&gt;Node17 -->
<g id="edge19" class="edge"><title>Node6&#45;&gt;Node17</title>
<path fill="none" stroke="midnightblue" d="M305.293,-224.499C345.665,-217.299 401.45,-205.351 448.404,-188 466.306,-181.384 468.225,-173.811 486.404,-168 574.01,-139.995 680.008,-129.417 748.519,-125.422"/>
<polygon fill="midnightblue" stroke="midnightblue" points="748.974,-128.902 758.766,-124.857 748.588,-121.913 748.974,-128.902"/>
</g>
<!-- Node18 -->
<g id="node18" class="node"><title>Node18</title>
<g id="a_node18"><a xlink:href="_arduino_8h_source.html" target="_top" xlink:title=" ">
<polygon fill="white" stroke="black" points="495.904,-168.5 495.904,-187.5 594.904,-187.5 594.904,-168.5 495.904,-168.5"/>
<text text-anchor="middle" x="545.404" y="-175.5" font-family="Helvetica,sans-Serif" font-size="10.00">Cpl/Json/Arduino.h</text>
</a>
</g>
</g>
<!-- Node6&#45;&gt;Node18 -->
<g id="edge22" class="edge"><title>Node6&#45;&gt;Node18</title>
<path fill="none" stroke="midnightblue" d="M297.147,-224.444C349.149,-214.925 433.155,-199.547 488.827,-189.356"/>
<polygon fill="midnightblue" stroke="midnightblue" points="489.672,-192.76 498.879,-187.516 488.412,-185.874 489.672,-192.76"/>
</g>
<!-- Node10 -->
<g id="node10" class="node"><title>Node10</title>
<g id="a_node10"><a xlink:title=" ">
<polygon fill="white" stroke="#bfbfbf" points="596.904,-56.5 596.904,-75.5 673.904,-75.5 673.904,-56.5 596.904,-56.5"/>
<text text-anchor="middle" x="635.404" y="-63.5" font-family="Helvetica,sans-Serif" font-size="10.00">colony_map.h</text>
</a>
</g>
</g>
<!-- Node9&#45;&gt;Node10 -->
<g id="edge9" class="edge"><title>Node9&#45;&gt;Node10</title>
<path fill="none" stroke="midnightblue" d="M439.639,-168.954C495.494,-158.715 584.715,-141.251 597.404,-132 613.213,-120.474 623.525,-100.207 629.365,-85.36"/>
<polygon fill="midnightblue" stroke="midnightblue" points="632.745,-86.3037 632.841,-75.7092 626.159,-83.9316 632.745,-86.3037"/>
</g>
<!-- Node11 -->
<g id="node11" class="node"><title>Node11</title>
<g id="a_node11"><a xlink:href="_key_8h.html" target="_top" xlink:title=" ">
<polygon fill="white" stroke="black" points="342.404,-112.5 342.404,-131.5 446.404,-131.5 446.404,-112.5 342.404,-112.5"/>
<text text-anchor="middle" x="394.404" y="-119.5" font-family="Helvetica,sans-Serif" font-size="10.00">Cpl/Container/Key.h</text>
</a>
</g>
</g>
<!-- Node9&#45;&gt;Node11 -->
<g id="edge10" class="edge"><title>Node9&#45;&gt;Node11</title>
<path fill="none" stroke="midnightblue" d="M389.237,-168.083C387.728,-160.927 387.297,-150.635 387.946,-141.691"/>
<polygon fill="midnightblue" stroke="midnightblue" points="391.419,-142.126 389.273,-131.751 384.481,-141.2 391.419,-142.126"/>
</g>
<!-- Node15 -->
<g id="node15" class="node"><title>Node15</title>
<g id="a_node15"><a xlink:title=" ">
<polygon fill="white" stroke="#bfbfbf" points="464.404,-112.5 464.404,-131.5 516.404,-131.5 516.404,-112.5 464.404,-112.5"/>
<text text-anchor="middle" x="490.404" y="-119.5" font-family="Helvetica,sans-Serif" font-size="10.00">stdarg.h</text>
</a>
</g>
</g>
<!-- Node9&#45;&gt;Node15 -->
<g id="edge17" class="edge"><title>Node9&#45;&gt;Node15</title>
<path fill="none" stroke="midnightblue" d="M409.828,-168.324C424.943,-159.822 448.219,-146.729 465.875,-136.797"/>
<polygon fill="midnightblue" stroke="midnightblue" points="468.018,-139.608 475.018,-131.655 464.586,-133.507 468.018,-139.608"/>
</g>
<!-- Node16 -->
<g id="node16" class="node"><title>Node16</title>
<g id="a_node16"><a xlink:title=" ">
<polygon fill="white" stroke="#bfbfbf" points="534.404,-112.5 534.404,-131.5 588.404,-131.5 588.404,-112.5 534.404,-112.5"/>
<text text-anchor="middle" x="561.404" y="-119.5" font-family="Helvetica,sans-Serif" font-size="10.00">iostream</text>
</a>
</g>
</g>
<!-- Node9&#45;&gt;Node16 -->
<g id="edge18" class="edge"><title>Node9&#45;&gt;Node16</title>
<path fill="none" stroke="midnightblue" d="M420.865,-168.444C449.082,-159.32 493.944,-144.813 525.372,-134.651"/>
<polygon fill="midnightblue" stroke="midnightblue" points="526.628,-137.923 535.066,-131.516 524.474,-131.263 526.628,-137.923"/>
</g>
<!-- Node11&#45;&gt;Node9 -->
<g id="edge15" class="edge"><title>Node11&#45;&gt;Node9</title>
<path fill="none" stroke="midnightblue" d="M399.535,-131.751C401.061,-138.858 401.508,-149.136 400.876,-158.101"/>
<polygon fill="midnightblue" stroke="midnightblue" points="397.397,-157.713 399.57,-168.083 404.338,-158.622 397.397,-157.713"/>
</g>
<!-- Node11&#45;&gt;Node10 -->
<g id="edge16" class="edge"><title>Node11&#45;&gt;Node10</title>
<path fill="none" stroke="midnightblue" d="M432.591,-112.444C474.545,-103.043 541.998,-87.9291 587.474,-77.7393"/>
<polygon fill="midnightblue" stroke="midnightblue" points="588.402,-81.1183 597.395,-75.5164 586.872,-74.2876 588.402,-81.1183"/>
</g>
<!-- Node12 -->
<g id="node12" class="node"><title>Node12</title>
<g id="a_node12"><a xlink:href="_fatal_error_8h.html" target="_top" xlink:title=" ">
<polygon fill="white" stroke="black" points="12.4036,-56.5 12.4036,-75.5 134.404,-75.5 134.404,-56.5 12.4036,-56.5"/>
<text text-anchor="middle" x="73.4036" y="-63.5" font-family="Helvetica,sans-Serif" font-size="10.00">Cpl/System/FatalError.h</text>
</a>
</g>
</g>
<!-- Node11&#45;&gt;Node12 -->
<g id="edge11" class="edge"><title>Node11&#45;&gt;Node12</title>
<path fill="none" stroke="midnightblue" d="M343.54,-112.444C286.721,-102.885 194.786,-87.4195 134.214,-77.2298"/>
<polygon fill="midnightblue" stroke="midnightblue" points="134.471,-73.7239 124.029,-75.5164 133.31,-80.6269 134.471,-73.7239"/>
</g>
<!-- Node11&#45;&gt;Node14 -->
<g id="edge14" class="edge"><title>Node11&#45;&gt;Node14</title>
<path fill="none" stroke="midnightblue" d="M410.254,-112.368C445.286,-93.2916 529.519,-47.4223 571.603,-24.5054"/>
<polygon fill="midnightblue" stroke="midnightblue" points="573.518,-27.4477 580.627,-19.5914 570.171,-21.3001 573.518,-27.4477"/>
</g>
<!-- Node12&#45;&gt;Node7 -->
<g id="edge13" class="edge"><title>Node12&#45;&gt;Node7</title>
<path fill="none" stroke="midnightblue" d="M90.7557,-56.324C108.076,-47.6641 134.919,-34.2424 154.906,-24.249"/>
<polygon fill="midnightblue" stroke="midnightblue" points="156.716,-27.2572 164.095,-19.6545 153.585,-20.9962 156.716,-27.2572"/>
</g>
<!-- Node12&#45;&gt;Node13 -->
<g id="edge12" class="edge"><title>Node12&#45;&gt;Node13</title>
<path fill="none" stroke="midnightblue" d="M66.1379,-56.083C59.8588,-48.3768 50.616,-37.0333 42.9728,-27.6531"/>
<polygon fill="midnightblue" stroke="midnightblue" points="45.5642,-25.2926 36.5341,-19.7511 40.1376,-29.7143 45.5642,-25.2926"/>
</g>
<!-- Node17&#45;&gt;Node8 -->
<g id="edge20" class="edge"><title>Node17&#45;&gt;Node8</title>
<path fill="none" stroke="midnightblue" d="M865.318,-112.426C888.668,-105.949 915.938,-94.8257 934.404,-76 946.634,-63.5318 952.711,-44.299 955.681,-29.9848"/>
<polygon fill="midnightblue" stroke="midnightblue" points="959.19,-30.2347 957.454,-19.7829 952.293,-29.0356 959.19,-30.2347"/>
</g>
<!-- Node17&#45;&gt;Node14 -->
<g id="edge21" class="edge"><title>Node17&#45;&gt;Node14</title>
<path fill="none" stroke="midnightblue" d="M807.509,-112.356C788.803,-99.0293 751.062,-73.2085 716.404,-56 688.379,-42.0851 654.933,-29.8789 630.479,-21.703"/>
<polygon fill="midnightblue" stroke="midnightblue" points="631.513,-18.3589 620.921,-18.5592 629.326,-25.0085 631.513,-18.3589"/>
</g>
<!-- Node19&#45;&gt;Node7 -->
<g id="edge26" class="edge"><title>Node19&#45;&gt;Node7</title>
<path fill="none" stroke="midnightblue" d="M469.279,-288.425C381.202,-286.365 228.857,-277.844 186.404,-244 162.324,-224.804 162.404,-209.795 162.404,-179 162.404,-179 162.404,-179 162.404,-121 162.404,-88.4885 170.563,-51.3503 176.187,-29.6103"/>
<polygon fill="midnightblue" stroke="midnightblue" points="179.622,-30.3175 178.841,-19.7514 172.862,-28.498 179.622,-30.3175"/>
</g>
<!-- Node19&#45;&gt;Node18 -->
<g id="edge33" class="edge"><title>Node19&#45;&gt;Node18</title>
<path fill="none" stroke="midnightblue" d="M526.914,-280.162C518.554,-267.65 505.836,-244.061 512.404,-224 515.893,-213.34 522.977,-203.117 529.689,-195.117"/>
<polygon fill="midnightblue" stroke="midnightblue" points="532.308,-197.439 536.384,-187.66 527.099,-192.763 532.308,-197.439"/>
</g>
<!-- Node20 -->
<g id="node20" class="node"><title>Node20</title>
<g id="a_node20"><a xlink:href="_model_database_api_8h.html" target="_top" xlink:title=" ">
<polygon fill="white" stroke="black" points="323.404,-224.5 323.404,-243.5 465.404,-243.5 465.404,-224.5 323.404,-224.5"/>
<text text-anchor="middle" x="394.404" y="-231.5" font-family="Helvetica,sans-Serif" font-size="10.00">Cpl/Dm/ModelDatabaseApi.h</text>
</a>
</g>
</g>
<!-- Node19&#45;&gt;Node20 -->
<g id="edge27" class="edge"><title>Node19&#45;&gt;Node20</title>
<path fill="none" stroke="midnightblue" d="M511.379,-280.444C488.3,-271.478 451.842,-257.314 425.763,-247.183"/>
<polygon fill="midnightblue" stroke="midnightblue" points="426.914,-243.875 416.326,-243.516 424.379,-250.4 426.914,-243.875"/>
</g>
<!-- Node21 -->
<g id="node21" class="node"><title>Node21</title>
<g id="a_node21"><a xlink:href="_mutex_8h.html" target="_top" xlink:title=" ">
<polygon fill="white" stroke="black" points="521.404,-224.5 521.404,-243.5 627.404,-243.5 627.404,-224.5 521.404,-224.5"/>
<text text-anchor="middle" x="574.404" y="-231.5" font-family="Helvetica,sans-Serif" font-size="10.00">Cpl/System/Mutex.h</text>
</a>
</g>
</g>
<!-- Node19&#45;&gt;Node21 -->
<g id="edge29" class="edge"><title>Node19&#45;&gt;Node21</title>
<path fill="none" stroke="midnightblue" d="M540.174,-280.083C545.965,-272.455 554.462,-261.264 561.541,-251.941"/>
<polygon fill="midnightblue" stroke="midnightblue" points="564.5,-253.832 567.759,-243.751 558.925,-249.599 564.5,-253.832"/>
</g>
<!-- Node22 -->
<g id="node22" class="node"><title>Node22</title>
<g id="a_node22"><a xlink:href="_s_list_8h.html" target="_top" xlink:title=" ">
<polygon fill="white" stroke="black" points="645.904,-224.5 645.904,-243.5 754.904,-243.5 754.904,-224.5 645.904,-224.5"/>
<text text-anchor="middle" x="700.404" y="-231.5" font-family="Helvetica,sans-Serif" font-size="10.00">Cpl/Container/SList.h</text>
</a>
</g>
</g>
<!-- Node19&#45;&gt;Node22 -->
<g id="edge31" class="edge"><title>Node19&#45;&gt;Node22</title>
<path fill="none" stroke="midnightblue" d="M559.865,-280.444C588.082,-271.32 632.944,-256.813 664.372,-246.651"/>
<polygon fill="midnightblue" stroke="midnightblue" points="665.628,-249.923 674.066,-243.516 663.474,-243.263 665.628,-249.923"/>
</g>
<!-- Node20&#45;&gt;Node9 -->
<g id="edge28" class="edge"><title>Node20&#45;&gt;Node9</title>
<path fill="none" stroke="midnightblue" d="M394.404,-224.083C394.404,-217.006 394.404,-206.861 394.404,-197.986"/>
<polygon fill="midnightblue" stroke="midnightblue" points="397.904,-197.751 394.404,-187.751 390.904,-197.751 397.904,-197.751"/>
</g>
<!-- Node21&#45;&gt;Node10 -->
<g id="edge30" class="edge"><title>Node21&#45;&gt;Node10</title>
<path fill="none" stroke="midnightblue" d="M581.538,-224.208C588.294,-215.49 598.289,-201.516 604.404,-188 619.991,-153.546 628.727,-109.886 632.713,-85.5486"/>
<polygon fill="midnightblue" stroke="midnightblue" points="636.189,-85.9701 634.258,-75.5529 629.271,-84.901 636.189,-85.9701"/>
</g>
<!-- Node22&#45;&gt;Node8 -->
<g id="edge32" class="edge"><title>Node22&#45;&gt;Node8</title>
<path fill="none" stroke="midnightblue" d="M701.305,-224.434C704.115,-202.224 714.788,-142.396 750.404,-112 802.882,-67.2125 842.316,-111.617 901.404,-76 921.017,-64.1777 937.498,-43.3581 947.615,-28.4657"/>
<polygon fill="midnightblue" stroke="midnightblue" points="950.803,-29.9827 953.312,-19.6893 944.931,-26.1712 950.803,-29.9827"/>
</g>
<!-- Node23&#45;&gt;Node6 -->
<g id="edge36" class="edge"><title>Node23&#45;&gt;Node6</title>
<path fill="none" stroke="midnightblue" d="M729.866,-284.636C644.561,-277.512 472.289,-262.433 315.5,-244.08"/>
<polygon fill="midnightblue" stroke="midnightblue" points="315.537,-240.561 305.196,-242.867 314.718,-247.513 315.537,-240.561"/>
</g>
<!-- Node23&#45;&gt;Node14 -->
<g id="edge64" class="edge"><title>Node23&#45;&gt;Node14</title>
<path fill="none" stroke="midnightblue" d="M781.952,-280.137C776.012,-246.495 750.607,-125.118 683.404,-56 668.801,-40.9809 648.106,-29.9963 630.564,-22.6411"/>
<polygon fill="midnightblue" stroke="midnightblue" points="631.788,-19.3611 621.202,-18.9257 629.206,-25.8675 631.788,-19.3611"/>
</g>
<!-- Node23&#45;&gt;Node17 -->
<g id="edge35" class="edge"><title>Node23&#45;&gt;Node17</title>
<path fill="none" stroke="midnightblue" d="M786.402,-280.461C789.477,-271.473 794.244,-256.872 797.404,-244 806.197,-208.182 813.14,-165.611 816.726,-141.708"/>
<polygon fill="midnightblue" stroke="midnightblue" points="820.223,-141.986 818.21,-131.584 813.297,-140.971 820.223,-141.986"/>
</g>
<!-- Node24 -->
<g id="node24" class="node"><title>Node24</title>
<g id="a_node24"><a xlink:href="_dm_2_event_loop_8h.html" target="_top" xlink:title=" ">
<polygon fill="white" stroke="black" points="1048.9,-224.5 1048.9,-243.5 1155.9,-243.5 1155.9,-224.5 1048.9,-224.5"/>
<text text-anchor="middle" x="1102.4" y="-231.5" font-family="Helvetica,sans-Serif" font-size="10.00">Cpl/Dm/EventLoop.h</text>
</a>
</g>
</g>
<!-- Node23&#45;&gt;Node24 -->
<g id="edge37" class="edge"><title>Node23&#45;&gt;Node24</title>
<path fill="none" stroke="midnightblue" d="M833.95,-280.444C890.416,-270.885 981.777,-255.419 1041.97,-245.23"/>
<polygon fill="midnightblue" stroke="midnightblue" points="1042.82,-248.636 1052.09,-243.516 1041.65,-241.735 1042.82,-248.636"/>
</g>
<!-- Node24&#45;&gt;Node17 -->
<g id="edge61" class="edge"><title>Node24&#45;&gt;Node17</title>
<path fill="none" stroke="midnightblue" d="M1065.49,-224.484C1033.45,-216.593 986.11,-203.719 946.404,-188 908.829,-173.125 867.563,-150.808 842.574,-136.578"/>
<polygon fill="midnightblue" stroke="midnightblue" points="844.248,-133.503 833.835,-131.552 840.759,-139.571 844.248,-133.503"/>
</g>
<!-- Node25 -->
<g id="node25" class="node"><title>Node25</title>
<g id="a_node25"><a xlink:href="_system_2_event_loop_8h.html" target="_top" xlink:title=" ">
<polygon fill="white" stroke="black" points="1123.9,-168.5 1123.9,-187.5 1248.9,-187.5 1248.9,-168.5 1123.9,-168.5"/>
<text text-anchor="middle" x="1186.4" y="-175.5" font-family="Helvetica,sans-Serif" font-size="10.00">Cpl/System/EventLoop.h</text>
</a>
</g>
</g>
<!-- Node24&#45;&gt;Node25 -->
<g id="edge38" class="edge"><title>Node24&#45;&gt;Node25</title>
<path fill="none" stroke="midnightblue" d="M1115.9,-224.324C1129,-215.9 1149.12,-202.971 1164.51,-193.074"/>
<polygon fill="midnightblue" stroke="midnightblue" points="1166.42,-196.006 1172.94,-187.655 1162.64,-190.118 1166.42,-196.006"/>
</g>
<!-- Node24&#45;&gt;Node33 -->
<g id="edge60" class="edge"><title>Node24&#45;&gt;Node33</title>
<path fill="none" stroke="midnightblue" d="M1156.25,-231.889C1282.83,-228.8 1596.15,-218.249 1696.4,-188 1745.17,-173.285 1764.68,-171.853 1796.4,-132 1807.03,-118.645 1811.72,-99.5316 1813.78,-85.4866"/>
<polygon fill="midnightblue" stroke="midnightblue" points="1817.26,-85.8529 1814.94,-75.5163 1810.31,-85.0467 1817.26,-85.8529"/>
</g>
<!-- Node34 -->
<g id="node34" class="node"><title>Node34</title>
<g id="a_node34"><a xlink:href="_thread_8h.html" target="_top" xlink:title=" ">
<polygon fill="white" stroke="black" points="1577.9,-168.5 1577.9,-187.5 1686.9,-187.5 1686.9,-168.5 1577.9,-168.5"/>
<text text-anchor="middle" x="1632.4" y="-175.5" font-family="Helvetica,sans-Serif" font-size="10.00">Cpl/System/Thread.h</text>
</a>
</g>
</g>
<!-- Node24&#45;&gt;Node34 -->
<g id="edge54" class="edge"><title>Node24&#45;&gt;Node34</title>
<path fill="none" stroke="midnightblue" d="M1156.14,-227.525C1254.19,-217.535 1461.75,-196.387 1567.51,-185.611"/>
<polygon fill="midnightblue" stroke="midnightblue" points="1568.14,-189.066 1577.73,-184.57 1567.43,-182.102 1568.14,-189.066"/>
</g>
<!-- Node37 -->
<g id="node37" class="node"><title>Node37</title>
<g id="a_node37"><a xlink:href="_notification_api___8h.html" target="_top" xlink:title=" ">
<polygon fill="white" stroke="black" points="955.404,-168.5 955.404,-187.5 1083.4,-187.5 1083.4,-168.5 955.404,-168.5"/>
<text text-anchor="middle" x="1019.4" y="-175.5" font-family="Helvetica,sans-Serif" font-size="10.00">Cpl/Dm/NotificationApi_.h</text>
</a>
</g>
</g>
<!-- Node24&#45;&gt;Node37 -->
<g id="edge62" class="edge"><title>Node24&#45;&gt;Node37</title>
<path fill="none" stroke="midnightblue" d="M1089.07,-224.324C1076.24,-215.979 1056.62,-203.212 1041.46,-193.352"/>
<polygon fill="midnightblue" stroke="midnightblue" points="1043,-190.174 1032.71,-187.655 1039.18,-196.042 1043,-190.174"/>
</g>
<!-- Node26 -->
<g id="node26" class="node"><title>Node26</title>
<g id="a_node26"><a xlink:href="_runnable_8h.html" target="_top" xlink:title=" ">
<polygon fill="white" stroke="black" points="1465.9,-112.5 1465.9,-131.5 1584.9,-131.5 1584.9,-112.5 1465.9,-112.5"/>
<text text-anchor="middle" x="1525.4" y="-119.5" font-family="Helvetica,sans-Serif" font-size="10.00">Cpl/System/Runnable.h</text>
</a>
</g>
</g>
<!-- Node25&#45;&gt;Node26 -->
<g id="edge39" class="edge"><title>Node25&#45;&gt;Node26</title>
<path fill="none" stroke="midnightblue" d="M1240.12,-168.444C1300.37,-158.846 1398.02,-143.292 1461.97,-133.104"/>
<polygon fill="midnightblue" stroke="midnightblue" points="1462.61,-136.546 1471.94,-131.516 1461.51,-129.633 1462.61,-136.546"/>
</g>
<!-- Node27 -->
<g id="node27" class="node"><title>Node27</title>
<g id="a_node27"><a xlink:href="_semaphore_8h.html" target="_top" xlink:title=" ">
<polygon fill="white" stroke="black" points="1122.4,-112.5 1122.4,-131.5 1250.4,-131.5 1250.4,-112.5 1122.4,-112.5"/>
<text text-anchor="middle" x="1186.4" y="-119.5" font-family="Helvetica,sans-Serif" font-size="10.00">Cpl/System/Semaphore.h</text>
</a>
</g>
</g>
<!-- Node25&#45;&gt;Node27 -->
<g id="edge40" class="edge"><title>Node25&#45;&gt;Node27</title>
<path fill="none" stroke="midnightblue" d="M1186.4,-168.083C1186.4,-161.006 1186.4,-150.861 1186.4,-141.986"/>
<polygon fill="midnightblue" stroke="midnightblue" points="1189.9,-141.751 1186.4,-131.751 1182.9,-141.751 1189.9,-141.751"/>
</g>
<!-- Node28 -->
<g id="node28" class="node"><title>Node28</title>
<g id="a_node28"><a xlink:href="_signable_8h.html" target="_top" xlink:title=" ">
<polygon fill="white" stroke="black" points="1142.4,-56.5 1142.4,-75.5 1258.4,-75.5 1258.4,-56.5 1142.4,-56.5"/>
<text text-anchor="middle" x="1200.4" y="-63.5" font-family="Helvetica,sans-Serif" font-size="10.00">Cpl/System/Signable.h</text>
</a>
</g>
</g>
<!-- Node25&#45;&gt;Node28 -->
<g id="edge44" class="edge"><title>Node25&#45;&gt;Node28</title>
<path fill="none" stroke="midnightblue" d="M1212.62,-168.414C1229.25,-161.445 1249.46,-149.809 1259.4,-132 1270.66,-111.831 1247.91,-92.7591 1227.47,-80.5557"/>
<polygon fill="midnightblue" stroke="midnightblue" points="1229.1,-77.456 1218.66,-75.6079 1225.67,-83.5583 1229.1,-77.456"/>
</g>
<!-- Node29 -->
<g id="node29" class="node"><title>Node29</title>
<g id="a_node29"><a xlink:href="_event_flag_8h.html" target="_top" xlink:title=" ">
<polygon fill="white" stroke="black" points="768.904,-56.5 768.904,-75.5 891.904,-75.5 891.904,-56.5 768.904,-56.5"/>
<text text-anchor="middle" x="830.404" y="-63.5" font-family="Helvetica,sans-Serif" font-size="10.00">Cpl/System/EventFlag.h</text>
</a>
</g>
</g>
<!-- Node25&#45;&gt;Node29 -->
<g id="edge45" class="edge"><title>Node25&#45;&gt;Node29</title>
<path fill="none" stroke="midnightblue" d="M1172.24,-168.333C1144.67,-151.521 1085.61,-115.791 1075.4,-112 1019.18,-91.112 951.963,-79.6488 902.17,-73.5292"/>
<polygon fill="midnightblue" stroke="midnightblue" points="902.478,-70.0413 892.136,-72.3391 901.654,-76.9926 902.478,-70.0413"/>
</g>
<!-- Node30 -->
<g id="node30" class="node"><title>Node30</title>
<g id="a_node30"><a xlink:href="_shared_event_handler_8h.html" target="_top" xlink:title=" ">
<polygon fill="white" stroke="black" points="898.404,-112.5 898.404,-131.5 1066.4,-131.5 1066.4,-112.5 898.404,-112.5"/>
<text text-anchor="middle" x="982.404" y="-119.5" font-family="Helvetica,sans-Serif" font-size="10.00">Cpl/System/SharedEventHandler.h</text>
</a>
</g>
</g>
<!-- Node25&#45;&gt;Node30 -->
<g id="edge48" class="edge"><title>Node25&#45;&gt;Node30</title>
<path fill="none" stroke="midnightblue" d="M1154.08,-168.444C1119.01,-159.162 1062.91,-144.309 1024.44,-134.127"/>
<polygon fill="midnightblue" stroke="midnightblue" points="1025.14,-130.692 1014.58,-131.516 1023.35,-137.459 1025.14,-130.692"/>
</g>
<!-- Node31 -->
<g id="node31" class="node"><title>Node31</title>
<g id="a_node31"><a xlink:href="_timer_manager_8h.html" target="_top" xlink:title=" ">
<polygon fill="white" stroke="black" points="1306.9,-112.5 1306.9,-131.5 1447.9,-131.5 1447.9,-112.5 1306.9,-112.5"/>
<text text-anchor="middle" x="1377.4" y="-119.5" font-family="Helvetica,sans-Serif" font-size="10.00">Cpl/System/TimerManager.h</text>
</a>
</g>
</g>
<!-- Node25&#45;&gt;Node31 -->
<g id="edge50" class="edge"><title>Node25&#45;&gt;Node31</title>
<path fill="none" stroke="midnightblue" d="M1216.67,-168.444C1249.36,-159.201 1301.59,-144.436 1337.59,-134.257"/>
<polygon fill="midnightblue" stroke="midnightblue" points="1338.61,-137.605 1347.28,-131.516 1336.71,-130.869 1338.61,-137.605"/>
</g>
<!-- Node27&#45;&gt;Node10 -->
<g id="edge41" class="edge"><title>Node27&#45;&gt;Node10</title>
<path fill="none" stroke="midnightblue" d="M1122.39,-114.726C1011.05,-103.815 784.118,-81.5746 684.335,-71.7954"/>
<polygon fill="midnightblue" stroke="midnightblue" points="684.523,-68.2972 674.229,-70.805 683.84,-75.2638 684.523,-68.2972"/>
</g>
<!-- Node27&#45;&gt;Node28 -->
<g id="edge42" class="edge"><title>Node27&#45;&gt;Node28</title>
<path fill="none" stroke="midnightblue" d="M1188.72,-112.083C1190.57,-104.927 1193.24,-94.6353 1195.56,-85.6911"/>
<polygon fill="midnightblue" stroke="midnightblue" points="1199.01,-86.3094 1198.13,-75.7511 1192.24,-84.5527 1199.01,-86.3094"/>
</g>
<!-- Node28&#45;&gt;Node8 -->
<g id="edge43" class="edge"><title>Node28&#45;&gt;Node8</title>
<path fill="none" stroke="midnightblue" d="M1162.06,-56.4435C1119.93,-47.0431 1052.2,-31.9291 1006.53,-21.7393"/>
<polygon fill="midnightblue" stroke="midnightblue" points="1007.09,-18.2784 996.57,-19.5164 1005.57,-25.1103 1007.09,-18.2784"/>
</g>
<!-- Node29&#45;&gt;Node7 -->
<g id="edge46" class="edge"><title>Node29&#45;&gt;Node7</title>
<path fill="none" stroke="midnightblue" d="M768.762,-59.8711C641.914,-49.3167 353.601,-25.3277 234.451,-15.4138"/>
<polygon fill="midnightblue" stroke="midnightblue" points="234.39,-11.8967 224.134,-14.5554 233.81,-18.8726 234.39,-11.8967"/>
</g>
<!-- Node29&#45;&gt;Node14 -->
<g id="edge47" class="edge"><title>Node29&#45;&gt;Node14</title>
<path fill="none" stroke="midnightblue" d="M793.326,-56.4435C748.705,-46.1465 674.378,-28.9941 630.928,-18.9673"/>
<polygon fill="midnightblue" stroke="midnightblue" points="631.636,-15.5386 621.105,-16.7003 630.062,-22.3594 631.636,-15.5386"/>
</g>
<!-- Node30&#45;&gt;Node29 -->
<g id="edge49" class="edge"><title>Node30&#45;&gt;Node29</title>
<path fill="none" stroke="midnightblue" d="M958.319,-112.444C932.859,-103.399 892.51,-89.064 863.945,-78.9158"/>
<polygon fill="midnightblue" stroke="midnightblue" points="864.971,-75.5661 854.376,-75.5164 862.627,-82.1622 864.971,-75.5661"/>
</g>
<!-- Node32 -->
<g id="node32" class="node"><title>Node32</title>
<g id="a_node32"><a xlink:href="_counter___8h.html" target="_top" xlink:title=" ">
<polygon fill="white" stroke="black" points="1290.4,-56.5 1290.4,-75.5 1408.4,-75.5 1408.4,-56.5 1290.4,-56.5"/>
<text text-anchor="middle" x="1349.4" y="-63.5" font-family="Helvetica,sans-Serif" font-size="10.00">Cpl/System/Counter_.h</text>
</a>
</g>
</g>
<!-- Node31&#45;&gt;Node32 -->
<g id="edge51" class="edge"><title>Node31&#45;&gt;Node32</title>
<path fill="none" stroke="midnightblue" d="M1372.78,-112.083C1368.95,-104.691 1363.38,-93.9533 1358.64,-84.8111"/>
<polygon fill="midnightblue" stroke="midnightblue" points="1361.65,-83.0175 1353.94,-75.7511 1355.44,-86.2398 1361.65,-83.0175"/>
</g>
<!-- Node31&#45;&gt;Node33 -->
<g id="edge53" class="edge"><title>Node31&#45;&gt;Node33</title>
<path fill="none" stroke="midnightblue" d="M1446.81,-112.444C1530.31,-102.148 1669.41,-84.9989 1750.75,-74.9715"/>
<polygon fill="midnightblue" stroke="midnightblue" points="1751.36,-78.4225 1760.86,-73.7251 1750.5,-71.4751 1751.36,-78.4225"/>
</g>
<!-- Node32&#45;&gt;Node8 -->
<g id="edge52" class="edge"><title>Node32&#45;&gt;Node8</title>
<path fill="none" stroke="midnightblue" d="M1290.02,-56.7986C1217.59,-46.795 1095.66,-29.9566 1021.56,-19.7224"/>
<polygon fill="midnightblue" stroke="midnightblue" points="1021.82,-16.2246 1011.43,-18.3235 1020.86,-23.1588 1021.82,-16.2246"/>
</g>
<!-- Node34&#45;&gt;Node10 -->
<g id="edge55" class="edge"><title>Node34&#45;&gt;Node10</title>
<path fill="none" stroke="midnightblue" d="M1630.24,-168.363C1626.08,-153.795 1615.45,-124.686 1594.4,-112 1514.97,-64.1174 853.003,-81.331 760.404,-76 735.257,-74.5523 707.29,-72.5734 684.198,-70.8398"/>
<polygon fill="midnightblue" stroke="midnightblue" points="684.194,-67.3296 673.958,-70.0633 683.665,-74.3095 684.194,-67.3296"/>
</g>
<!-- Node34&#45;&gt;Node26 -->
<g id="edge56" class="edge"><title>Node34&#45;&gt;Node26</title>
<path fill="none" stroke="midnightblue" d="M1615.21,-168.324C1598.05,-159.664 1571.46,-146.242 1551.66,-136.249"/>
<polygon fill="midnightblue" stroke="midnightblue" points="1553.06,-133.035 1542.55,-131.655 1549.9,-139.285 1553.06,-133.035"/>
</g>
<!-- Node34&#45;&gt;Node28 -->
<g id="edge57" class="edge"><title>Node34&#45;&gt;Node28</title>
<path fill="none" stroke="midnightblue" d="M1634.78,-168.462C1638.07,-154.562 1642.09,-127.085 1627.4,-112 1573.48,-56.6076 1358.26,-84.2684 1281.4,-76 1277.29,-75.5573 1273.06,-75.0983 1268.79,-74.6325"/>
<polygon fill="midnightblue" stroke="midnightblue" points="1269.12,-71.1481 1258.8,-73.5377 1268.36,-78.1065 1269.12,-71.1481"/>
</g>
<!-- Node35 -->
<g id="node35" class="node"><title>Node35</title>
<g id="a_node35"><a xlink:href="_traverser_8h.html" target="_top" xlink:title=" ">
<polygon fill="white" stroke="black" points="1679.4,-112.5 1679.4,-131.5 1787.4,-131.5 1787.4,-112.5 1679.4,-112.5"/>
<text text-anchor="middle" x="1733.4" y="-119.5" font-family="Helvetica,sans-Serif" font-size="10.00">Cpl/Type/Traverser.h</text>
</a>
</g>
</g>
<!-- Node34&#45;&gt;Node35 -->
<g id="edge58" class="edge"><title>Node34&#45;&gt;Node35</title>
<path fill="none" stroke="midnightblue" d="M1648.63,-168.324C1664.75,-159.703 1689.7,-146.364 1708.37,-136.386"/>
<polygon fill="midnightblue" stroke="midnightblue" points="1710.05,-139.456 1717.22,-131.655 1706.75,-133.283 1710.05,-139.456"/>
</g>
<!-- Node34&#45;&gt;Node36 -->
<g id="edge59" class="edge"><title>Node34&#45;&gt;Node36</title>
<path fill="none" stroke="midnightblue" d="M1669.64,-168.444C1714.69,-158.091 1789.9,-140.81 1833.43,-130.807"/>
<polygon fill="midnightblue" stroke="midnightblue" points="1834.29,-134.199 1843.26,-128.549 1832.73,-127.377 1834.29,-134.199"/>
</g>
<!-- Node37&#45;&gt;Node17 -->
<g id="edge63" class="edge"><title>Node37&#45;&gt;Node17</title>
<path fill="none" stroke="midnightblue" d="M987.713,-168.444C953.336,-159.162 898.327,-144.309 860.615,-134.127"/>
<polygon fill="midnightblue" stroke="midnightblue" points="861.513,-130.744 850.946,-131.516 859.688,-137.502 861.513,-130.744"/>
</g>
</g>
</svg>
