<?xml version="1.0" encoding="UTF-8" standalone="no"?>
<!DOCTYPE svg PUBLIC "-//W3C//DTD SVG 1.1//EN"
 "http://www.w3.org/Graphics/SVG/1.1/DTD/svg11.dtd">
<!-- Generated by graphviz version 2.38.0 (20140413.2041)
 -->
<!-- Title: Storm/Dm/MpEquipmentConfig.h Pages: 1 -->
<svg width="2023pt" height="420pt"
 viewBox="0.00 0.00 2022.51 420.00" xmlns="http://www.w3.org/2000/svg" xmlns:xlink="http://www.w3.org/1999/xlink">
<g id="graph0" class="graph" transform="scale(1 1) rotate(0) translate(4 416)">
<title>Storm/Dm/MpEquipmentConfig.h</title>
<polygon fill="white" stroke="none" points="-4,4 -4,-416 2018.51,-416 2018.51,4 -4,4"/>
<!-- Node1 -->
<g id="node1" class="node"><title>Node1</title>
<g id="a_node1"><a xlink:title=" ">
<polygon fill="#bfbfbf" stroke="black" points="1609.01,-392.5 1609.01,-411.5 1769.01,-411.5 1769.01,-392.5 1609.01,-392.5"/>
<text text-anchor="middle" x="1689.01" y="-399.5" font-family="Helvetica,sans-Serif" font-size="10.00">Storm/Dm/MpEquipmentConfig.h</text>
</a>
</g>
</g>
<!-- Node2 -->
<g id="node2" class="node"><title>Node2</title>
<g id="a_node2"><a xlink:title=" ">
<polygon fill="white" stroke="#bfbfbf" points="345.509,-0.5 345.509,-19.5 430.509,-19.5 430.509,-0.5 345.509,-0.5"/>
<text text-anchor="middle" x="388.009" y="-7.5" font-family="Helvetica,sans-Serif" font-size="10.00">colony_config.h</text>
</a>
</g>
</g>
<!-- Node1&#45;&gt;Node2 -->
<g id="edge1" class="edge"><title>Node1&#45;&gt;Node2</title>
<path fill="none" stroke="midnightblue" d="M1608.96,-400.029C1273.74,-395.446 0.00856558,-372.658 0.00856558,-291 0.00856558,-291 0.00856558,-291 0.00856558,-121 0.00856558,-90.2048 -0.128484,-75.1246 24.0086,-56 47.935,-37.0423 240.26,-21.2361 335.273,-14.4973"/>
<polygon fill="midnightblue" stroke="midnightblue" points="335.528,-17.9881 345.259,-13.797 335.038,-11.0052 335.528,-17.9881"/>
</g>
<!-- Node3 -->
<g id="node3" class="node"><title>Node3</title>
<g id="a_node3"><a xlink:href="_model_point_common___8h.html" target="_top" xlink:title=" ">
<polygon fill="white" stroke="black" points="1532.51,-336.5 1532.51,-355.5 1685.51,-355.5 1685.51,-336.5 1532.51,-336.5"/>
<text text-anchor="middle" x="1609.01" y="-343.5" font-family="Helvetica,sans-Serif" font-size="10.00">Cpl/Dm/ModelPointCommon_.h</text>
</a>
</g>
</g>
<!-- Node1&#45;&gt;Node3 -->
<g id="edge2" class="edge"><title>Node1&#45;&gt;Node3</title>
<path fill="none" stroke="midnightblue" d="M1676.16,-392.324C1663.79,-383.979 1644.88,-371.212 1630.27,-361.352"/>
<polygon fill="midnightblue" stroke="midnightblue" points="1632.08,-358.348 1621.83,-355.655 1628.16,-364.15 1632.08,-358.348"/>
</g>
<!-- Node35 -->
<g id="node35" class="node"><title>Node35</title>
<g id="a_node35"><a xlink:href="_idu_type_8h.html" target="_top" xlink:title=" ">
<polygon fill="white" stroke="black" points="1712.01,-336.5 1712.01,-355.5 1826.01,-355.5 1826.01,-336.5 1712.01,-336.5"/>
<text text-anchor="middle" x="1769.01" y="-343.5" font-family="Helvetica,sans-Serif" font-size="10.00">Storm/Type/IduType.h</text>
</a>
</g>
</g>
<!-- Node1&#45;&gt;Node35 -->
<g id="edge66" class="edge"><title>Node1&#45;&gt;Node35</title>
<path fill="none" stroke="midnightblue" d="M1701.86,-392.324C1714.22,-383.979 1733.14,-371.212 1747.75,-361.352"/>
<polygon fill="midnightblue" stroke="midnightblue" points="1749.86,-364.15 1756.19,-355.655 1745.94,-358.348 1749.86,-364.15"/>
</g>
<!-- Node37 -->
<g id="node37" class="node"><title>Node37</title>
<g id="a_node37"><a xlink:href="_odu_type_8h.html" target="_top" xlink:title=" ">
<polygon fill="white" stroke="black" points="1859.51,-336.5 1859.51,-355.5 1978.51,-355.5 1978.51,-336.5 1859.51,-336.5"/>
<text text-anchor="middle" x="1919.01" y="-343.5" font-family="Helvetica,sans-Serif" font-size="10.00">Storm/Type/OduType.h</text>
</a>
</g>
</g>
<!-- Node1&#45;&gt;Node37 -->
<g id="edge68" class="edge"><title>Node1&#45;&gt;Node37</title>
<path fill="none" stroke="midnightblue" d="M1725.45,-392.444C1765.41,-383.063 1829.6,-367.993 1872.99,-357.804"/>
<polygon fill="midnightblue" stroke="midnightblue" points="1873.8,-361.21 1882.73,-355.516 1872.2,-354.395 1873.8,-361.21"/>
</g>
<!-- Node4 -->
<g id="node4" class="node"><title>Node4</title>
<g id="a_node4"><a xlink:href="_model_point_8h.html" target="_top" xlink:title=" ">
<polygon fill="white" stroke="black" points="537.509,-224.5 537.509,-243.5 646.509,-243.5 646.509,-224.5 537.509,-224.5"/>
<text text-anchor="middle" x="592.009" y="-231.5" font-family="Helvetica,sans-Serif" font-size="10.00">Cpl/Dm/ModelPoint.h</text>
</a>
</g>
</g>
<!-- Node3&#45;&gt;Node4 -->
<g id="edge3" class="edge"><title>Node3&#45;&gt;Node4</title>
<path fill="none" stroke="midnightblue" d="M1532.33,-343.529C1326.28,-339.252 770.826,-325.483 692.009,-300 659.717,-289.56 627.784,-265.845 608.987,-250.132"/>
<polygon fill="midnightblue" stroke="midnightblue" points="611.188,-247.409 601.32,-243.552 606.629,-252.721 611.188,-247.409"/>
</g>
<!-- Node11 -->
<g id="node11" class="node"><title>Node11</title>
<g id="a_node11"><a xlink:title=" ">
<polygon fill="white" stroke="#bfbfbf" points="1482.51,-0.5 1482.51,-19.5 1531.51,-19.5 1531.51,-0.5 1482.51,-0.5"/>
<text text-anchor="middle" x="1507.01" y="-7.5" font-family="Helvetica,sans-Serif" font-size="10.00">stdint.h</text>
</a>
</g>
</g>
<!-- Node3&#45;&gt;Node11 -->
<g id="edge64" class="edge"><title>Node3&#45;&gt;Node11</title>
<path fill="none" stroke="midnightblue" d="M1658.5,-336.486C1740.36,-320.985 1895.01,-285.073 1895.01,-235 1895.01,-235 1895.01,-235 1895.01,-121 1895.01,-87.5366 1884.91,-74.4734 1857.01,-56 1805.78,-22.0835 1619.99,-13.69 1541.93,-11.6453"/>
<polygon fill="midnightblue" stroke="midnightblue" points="1541.74,-8.1397 1531.65,-11.3969 1541.57,-15.1377 1541.74,-8.1397"/>
</g>
<!-- Node16 -->
<g id="node16" class="node"><title>Node16</title>
<g id="a_node16"><a xlink:href="_model_database_8h.html" target="_top" xlink:title=" ">
<polygon fill="white" stroke="black" points="300.009,-280.5 300.009,-299.5 428.009,-299.5 428.009,-280.5 300.009,-280.5"/>
<text text-anchor="middle" x="364.009" y="-287.5" font-family="Helvetica,sans-Serif" font-size="10.00">Cpl/Dm/ModelDatabase.h</text>
</a>
</g>
</g>
<!-- Node3&#45;&gt;Node16 -->
<g id="edge23" class="edge"><title>Node3&#45;&gt;Node16</title>
<path fill="none" stroke="midnightblue" d="M1532.07,-341.663C1308.19,-331.952 658.997,-303.795 438.391,-294.226"/>
<polygon fill="midnightblue" stroke="midnightblue" points="438.356,-290.722 428.214,-293.785 438.053,-297.715 438.356,-290.722"/>
</g>
<!-- Node20 -->
<g id="node20" class="node"><title>Node20</title>
<g id="a_node20"><a xlink:href="_subscriber_8h.html" target="_top" xlink:title=" ">
<polygon fill="white" stroke="black" points="1555.51,-280.5 1555.51,-299.5 1662.51,-299.5 1662.51,-280.5 1555.51,-280.5"/>
<text text-anchor="middle" x="1609.01" y="-287.5" font-family="Helvetica,sans-Serif" font-size="10.00">Cpl/Dm/Subscriber.h</text>
</a>
</g>
</g>
<!-- Node3&#45;&gt;Node20 -->
<g id="edge32" class="edge"><title>Node3&#45;&gt;Node20</title>
<path fill="none" stroke="midnightblue" d="M1609.01,-336.083C1609.01,-329.006 1609.01,-318.861 1609.01,-309.986"/>
<polygon fill="midnightblue" stroke="midnightblue" points="1612.51,-309.751 1609.01,-299.751 1605.51,-309.751 1612.51,-309.751"/>
</g>
<!-- Node30 -->
<g id="node30" class="node"><title>Node30</title>
<g id="a_node30"><a xlink:href="_d_list_8h.html" target="_top" xlink:title=" ">
<polygon fill="white" stroke="black" points="1719.51,-56.5 1719.51,-75.5 1828.51,-75.5 1828.51,-56.5 1719.51,-56.5"/>
<text text-anchor="middle" x="1774.01" y="-63.5" font-family="Helvetica,sans-Serif" font-size="10.00">Cpl/Container/DList.h</text>
</a>
</g>
</g>
<!-- Node3&#45;&gt;Node30 -->
<g id="edge63" class="edge"><title>Node3&#45;&gt;Node30</title>
<path fill="none" stroke="midnightblue" d="M1623.99,-336.351C1637.36,-328.147 1656.94,-314.887 1671.01,-300 1731.98,-235.486 1753.99,-217.167 1779.01,-132 1783.49,-116.729 1781.54,-98.6216 1778.87,-85.4019"/>
<polygon fill="midnightblue" stroke="midnightblue" points="1782.27,-84.5581 1776.59,-75.6165 1775.45,-86.1506 1782.27,-84.5581"/>
</g>
<!-- Node33 -->
<g id="node33" class="node"><title>Node33</title>
<g id="a_node33"><a xlink:title=" ">
<polygon fill="white" stroke="#bfbfbf" points="658.009,-112.5 658.009,-131.5 706.009,-131.5 706.009,-112.5 658.009,-112.5"/>
<text text-anchor="middle" x="682.009" y="-119.5" font-family="Helvetica,sans-Serif" font-size="10.00">stdlib.h</text>
</a>
</g>
</g>
<!-- Node3&#45;&gt;Node33 -->
<g id="edge65" class="edge"><title>Node3&#45;&gt;Node33</title>
<path fill="none" stroke="midnightblue" d="M1532.42,-345.601C1376.18,-343.803 1013.16,-323.981 749.009,-188 726.605,-176.467 706.7,-154.965 694.523,-139.859"/>
<polygon fill="midnightblue" stroke="midnightblue" points="697.184,-137.579 688.286,-131.827 691.655,-141.872 697.184,-137.579"/>
</g>
<!-- Node4&#45;&gt;Node2 -->
<g id="edge4" class="edge"><title>Node4&#45;&gt;Node2</title>
<path fill="none" stroke="midnightblue" d="M586.645,-224.284C573.751,-203.659 539.45,-150.69 504.009,-112 473.165,-78.3296 431.77,-44.5763 407.681,-25.8741"/>
<polygon fill="midnightblue" stroke="midnightblue" points="409.701,-23.0129 399.64,-19.6927 405.435,-28.5625 409.701,-23.0129"/>
</g>
<!-- Node5 -->
<g id="node5" class="node"><title>Node5</title>
<g id="a_node5"><a xlink:href="_item_8h.html" target="_top" xlink:title=" ">
<polygon fill="white" stroke="black" points="1075.01,-0.5 1075.01,-19.5 1181.01,-19.5 1181.01,-0.5 1075.01,-0.5"/>
<text text-anchor="middle" x="1128.01" y="-7.5" font-family="Helvetica,sans-Serif" font-size="10.00">Cpl/Container/Item.h</text>
</a>
</g>
</g>
<!-- Node4&#45;&gt;Node5 -->
<g id="edge5" class="edge"><title>Node4&#45;&gt;Node5</title>
<path fill="none" stroke="midnightblue" d="M589.946,-224.375C583.628,-195.586 567.767,-102.021 616.009,-56 647.833,-25.6408 934.328,-15.3529 1064.34,-12.2275"/>
<polygon fill="midnightblue" stroke="midnightblue" points="1064.64,-15.7217 1074.55,-11.9891 1064.47,-8.7236 1064.64,-15.7217"/>
</g>
<!-- Node6 -->
<g id="node6" class="node"><title>Node6</title>
<g id="a_node6"><a xlink:href="_string_8h.html" target="_top" xlink:title=" ">
<polygon fill="white" stroke="black" points="198.009,-168.5 198.009,-187.5 288.009,-187.5 288.009,-168.5 198.009,-168.5"/>
<text text-anchor="middle" x="243.009" y="-175.5" font-family="Helvetica,sans-Serif" font-size="10.00">Cpl/Text/String.h</text>
</a>
</g>
</g>
<!-- Node4&#45;&gt;Node6 -->
<g id="edge6" class="edge"><title>Node4&#45;&gt;Node6</title>
<path fill="none" stroke="midnightblue" d="M537.477,-224.563C472.239,-214.468 363.64,-197.665 298.138,-187.53"/>
<polygon fill="midnightblue" stroke="midnightblue" points="298.426,-184.033 288.009,-185.963 297.356,-190.951 298.426,-184.033"/>
</g>
<!-- Node10 -->
<g id="node10" class="node"><title>Node10</title>
<g id="a_node10"><a xlink:title=" ">
<polygon fill="white" stroke="#bfbfbf" points="171.009,-0.5 171.009,-19.5 223.009,-19.5 223.009,-0.5 171.009,-0.5"/>
<text text-anchor="middle" x="197.009" y="-7.5" font-family="Helvetica,sans-Serif" font-size="10.00">stddef.h</text>
</a>
</g>
</g>
<!-- Node4&#45;&gt;Node10 -->
<g id="edge21" class="edge"><title>Node4&#45;&gt;Node10</title>
<path fill="none" stroke="midnightblue" d="M580.095,-224.466C562.153,-211.721 526.992,-187.163 496.009,-168 409.693,-114.615 387.598,-101.759 297.009,-56 273.789,-44.2712 246.867,-32.2429 226.811,-23.5761"/>
<polygon fill="midnightblue" stroke="midnightblue" points="228.132,-20.3347 217.562,-19.6076 225.372,-26.7674 228.132,-20.3347"/>
</g>
<!-- Node4&#45;&gt;Node11 -->
<g id="edge22" class="edge"><title>Node4&#45;&gt;Node11</title>
<path fill="none" stroke="midnightblue" d="M593.268,-224.193C597.032,-201.401 610.436,-140.291 649.009,-112 716.552,-62.4602 1319.54,-22.4718 1472.07,-13.0877"/>
<polygon fill="midnightblue" stroke="midnightblue" points="1472.5,-16.5685 1482.26,-12.4652 1472.07,-9.58151 1472.5,-16.5685"/>
</g>
<!-- Node14 -->
<g id="node14" class="node"><title>Node14</title>
<g id="a_node14"><a xlink:href="_subscriber_api_8h.html" target="_top" xlink:title=" ">
<polygon fill="white" stroke="black" points="1631.51,-112.5 1631.51,-131.5 1752.51,-131.5 1752.51,-112.5 1631.51,-112.5"/>
<text text-anchor="middle" x="1692.01" y="-119.5" font-family="Helvetica,sans-Serif" font-size="10.00">Cpl/Dm/SubscriberApi.h</text>
</a>
</g>
</g>
<!-- Node4&#45;&gt;Node14 -->
<g id="edge17" class="edge"><title>Node4&#45;&gt;Node14</title>
<path fill="none" stroke="midnightblue" d="M646.893,-233.083C778.194,-232.601 1120.53,-227.327 1403.01,-188 1493.16,-175.45 1596.79,-149.185 1652.17,-134.168"/>
<polygon fill="midnightblue" stroke="midnightblue" points="1653.21,-137.511 1661.94,-131.5 1651.37,-130.759 1653.21,-137.511"/>
</g>
<!-- Node15 -->
<g id="node15" class="node"><title>Node15</title>
<g id="a_node15"><a xlink:href="_arduino_8h_source.html" target="_top" xlink:title=" ">
<polygon fill="white" stroke="black" points="388.509,-168.5 388.509,-187.5 487.509,-187.5 487.509,-168.5 388.509,-168.5"/>
<text text-anchor="middle" x="438.009" y="-175.5" font-family="Helvetica,sans-Serif" font-size="10.00">Cpl/Json/Arduino.h</text>
</a>
</g>
</g>
<!-- Node4&#45;&gt;Node15 -->
<g id="edge20" class="edge"><title>Node4&#45;&gt;Node15</title>
<path fill="none" stroke="midnightblue" d="M567.607,-224.444C541.812,-215.399 500.932,-201.064 471.991,-190.916"/>
<polygon fill="midnightblue" stroke="midnightblue" points="472.891,-187.523 462.296,-187.516 470.575,-194.128 472.891,-187.523"/>
</g>
<!-- Node7 -->
<g id="node7" class="node"><title>Node7</title>
<g id="a_node7"><a xlink:title=" ">
<polygon fill="white" stroke="#bfbfbf" points="211.509,-56.5 211.509,-75.5 288.509,-75.5 288.509,-56.5 211.509,-56.5"/>
<text text-anchor="middle" x="250.009" y="-63.5" font-family="Helvetica,sans-Serif" font-size="10.00">colony_map.h</text>
</a>
</g>
</g>
<!-- Node6&#45;&gt;Node7 -->
<g id="edge7" class="edge"><title>Node6&#45;&gt;Node7</title>
<path fill="none" stroke="midnightblue" d="M238.109,-168.176C231.793,-155.68 222.167,-132.112 227.009,-112 229.315,-102.418 234.026,-92.5813 238.587,-84.5579"/>
<polygon fill="midnightblue" stroke="midnightblue" points="241.701,-86.1727 243.904,-75.8095 235.719,-82.537 241.701,-86.1727"/>
</g>
<!-- Node8 -->
<g id="node8" class="node"><title>Node8</title>
<g id="a_node8"><a xlink:href="_key_8h.html" target="_top" xlink:title=" ">
<polygon fill="white" stroke="black" points="38.0086,-112.5 38.0086,-131.5 142.009,-131.5 142.009,-112.5 38.0086,-112.5"/>
<text text-anchor="middle" x="90.0086" y="-119.5" font-family="Helvetica,sans-Serif" font-size="10.00">Cpl/Container/Key.h</text>
</a>
</g>
</g>
<!-- Node6&#45;&gt;Node8 -->
<g id="edge8" class="edge"><title>Node6&#45;&gt;Node8</title>
<path fill="none" stroke="midnightblue" d="M213.676,-168.444C186.186,-159.438 145.6,-145.189 118.418,-135.049"/>
<polygon fill="midnightblue" stroke="midnightblue" points="119.65,-131.773 109.058,-131.516 117.178,-138.322 119.65,-131.773"/>
</g>
<!-- Node12 -->
<g id="node12" class="node"><title>Node12</title>
<g id="a_node12"><a xlink:title=" ">
<polygon fill="white" stroke="#bfbfbf" points="308.009,-112.5 308.009,-131.5 360.009,-131.5 360.009,-112.5 308.009,-112.5"/>
<text text-anchor="middle" x="334.009" y="-119.5" font-family="Helvetica,sans-Serif" font-size="10.00">stdarg.h</text>
</a>
</g>
</g>
<!-- Node6&#45;&gt;Node12 -->
<g id="edge15" class="edge"><title>Node6&#45;&gt;Node12</title>
<path fill="none" stroke="midnightblue" d="M257.629,-168.324C271.958,-159.822 294.021,-146.729 310.757,-136.797"/>
<polygon fill="midnightblue" stroke="midnightblue" points="312.61,-139.768 319.424,-131.655 309.038,-133.748 312.61,-139.768"/>
</g>
<!-- Node13 -->
<g id="node13" class="node"><title>Node13</title>
<g id="a_node13"><a xlink:title=" ">
<polygon fill="white" stroke="#bfbfbf" points="236.009,-112.5 236.009,-131.5 290.009,-131.5 290.009,-112.5 236.009,-112.5"/>
<text text-anchor="middle" x="263.009" y="-119.5" font-family="Helvetica,sans-Serif" font-size="10.00">iostream</text>
</a>
</g>
</g>
<!-- Node6&#45;&gt;Node13 -->
<g id="edge16" class="edge"><title>Node6&#45;&gt;Node13</title>
<path fill="none" stroke="midnightblue" d="M246.311,-168.083C248.991,-160.849 252.857,-150.409 256.195,-141.397"/>
<polygon fill="midnightblue" stroke="midnightblue" points="259.576,-142.344 259.767,-131.751 253.012,-139.913 259.576,-142.344"/>
</g>
<!-- Node8&#45;&gt;Node6 -->
<g id="edge13" class="edge"><title>Node8&#45;&gt;Node6</title>
<path fill="none" stroke="midnightblue" d="M119.218,-131.516C146.67,-140.506 187.256,-154.754 214.479,-164.906"/>
<polygon fill="midnightblue" stroke="midnightblue" points="213.262,-168.188 223.854,-168.444 215.734,-161.638 213.262,-168.188"/>
</g>
<!-- Node8&#45;&gt;Node7 -->
<g id="edge14" class="edge"><title>Node8&#45;&gt;Node7</title>
<path fill="none" stroke="midnightblue" d="M115.361,-112.444C142.278,-103.359 185.005,-88.9388 215.096,-78.7831"/>
<polygon fill="midnightblue" stroke="midnightblue" points="216.419,-82.0305 224.775,-75.5164 214.181,-75.3981 216.419,-82.0305"/>
</g>
<!-- Node9 -->
<g id="node9" class="node"><title>Node9</title>
<g id="a_node9"><a xlink:href="_fatal_error_8h.html" target="_top" xlink:title=" ">
<polygon fill="white" stroke="black" points="33.0086,-56.5 33.0086,-75.5 155.009,-75.5 155.009,-56.5 33.0086,-56.5"/>
<text text-anchor="middle" x="94.0086" y="-63.5" font-family="Helvetica,sans-Serif" font-size="10.00">Cpl/System/FatalError.h</text>
</a>
</g>
</g>
<!-- Node8&#45;&gt;Node9 -->
<g id="edge9" class="edge"><title>Node8&#45;&gt;Node9</title>
<path fill="none" stroke="midnightblue" d="M90.6691,-112.083C91.1933,-105.006 91.9448,-94.8611 92.6022,-85.9865"/>
<polygon fill="midnightblue" stroke="midnightblue" points="96.112,-85.9823 93.3603,-75.7511 89.1311,-85.4652 96.112,-85.9823"/>
</g>
<!-- Node8&#45;&gt;Node11 -->
<g id="edge12" class="edge"><title>Node8&#45;&gt;Node11</title>
<path fill="none" stroke="midnightblue" d="M103.837,-112.464C131.394,-95.5296 191.422,-59.0461 202.009,-56 233.427,-46.9599 1268.44,-17.6568 1472.33,-11.9634"/>
<polygon fill="midnightblue" stroke="midnightblue" points="1472.57,-15.4582 1482.47,-11.6807 1472.38,-8.46097 1472.57,-15.4582"/>
</g>
<!-- Node9&#45;&gt;Node2 -->
<g id="edge11" class="edge"><title>Node9&#45;&gt;Node2</title>
<path fill="none" stroke="midnightblue" d="M140.594,-56.4435C193.638,-46.7007 280.098,-30.8203 335.493,-20.6458"/>
<polygon fill="midnightblue" stroke="midnightblue" points="336.257,-24.0641 345.46,-18.8151 334.992,-17.1793 336.257,-24.0641"/>
</g>
<!-- Node9&#45;&gt;Node10 -->
<g id="edge10" class="edge"><title>Node9&#45;&gt;Node10</title>
<path fill="none" stroke="midnightblue" d="M110.557,-56.324C127,-47.7034 152.443,-34.3643 171.477,-24.3855"/>
<polygon fill="midnightblue" stroke="midnightblue" points="173.269,-27.3977 180.501,-19.6545 170.019,-21.198 173.269,-27.3977"/>
</g>
<!-- Node14&#45;&gt;Node5 -->
<g id="edge18" class="edge"><title>Node14&#45;&gt;Node5</title>
<path fill="none" stroke="midnightblue" d="M1679,-112.337C1654.54,-96.221 1602.35,-62.6573 1582.01,-56 1511.09,-32.7925 1298.62,-19.3697 1191.39,-13.9002"/>
<polygon fill="midnightblue" stroke="midnightblue" points="1191.51,-10.4021 1181.35,-13.3957 1191.16,-17.3932 1191.51,-10.4021"/>
</g>
<!-- Node14&#45;&gt;Node11 -->
<g id="edge19" class="edge"><title>Node14&#45;&gt;Node11</title>
<path fill="none" stroke="midnightblue" d="M1684.78,-112.302C1673.06,-98.6675 1648.62,-72.1571 1623.01,-56 1597.59,-39.965 1565.54,-28.0682 1541.57,-20.5475"/>
<polygon fill="midnightblue" stroke="midnightblue" points="1542.42,-17.1483 1531.84,-17.5929 1540.39,-23.8466 1542.42,-17.1483"/>
</g>
<!-- Node16&#45;&gt;Node2 -->
<g id="edge24" class="edge"><title>Node16&#45;&gt;Node2</title>
<path fill="none" stroke="midnightblue" d="M357.904,-280.191C352.254,-271.46 344.253,-257.478 341.009,-244 338.928,-235.358 339.7,-232.792 341.009,-224 347.299,-181.725 359.448,-173.658 369.009,-132 377.225,-96.1999 383.004,-53.6228 385.894,-29.7132"/>
<polygon fill="midnightblue" stroke="midnightblue" points="389.393,-29.9259 387.078,-19.5869 382.44,-29.1124 389.393,-29.9259"/>
</g>
<!-- Node16&#45;&gt;Node15 -->
<g id="edge31" class="edge"><title>Node16&#45;&gt;Node15</title>
<path fill="none" stroke="midnightblue" d="M412.058,-280.458C432.951,-274.101 455.479,-263.074 468.009,-244 478.18,-228.516 466.335,-209.026 454.664,-195.445"/>
<polygon fill="midnightblue" stroke="midnightblue" points="456.983,-192.797 447.618,-187.841 451.848,-197.555 456.983,-192.797"/>
</g>
<!-- Node17 -->
<g id="node17" class="node"><title>Node17</title>
<g id="a_node17"><a xlink:href="_model_database_api_8h.html" target="_top" xlink:title=" ">
<polygon fill="white" stroke="black" points="152.009,-224.5 152.009,-243.5 294.009,-243.5 294.009,-224.5 152.009,-224.5"/>
<text text-anchor="middle" x="223.009" y="-231.5" font-family="Helvetica,sans-Serif" font-size="10.00">Cpl/Dm/ModelDatabaseApi.h</text>
</a>
</g>
</g>
<!-- Node16&#45;&gt;Node17 -->
<g id="edge25" class="edge"><title>Node16&#45;&gt;Node17</title>
<path fill="none" stroke="midnightblue" d="M341.667,-280.444C318.256,-271.478 281.273,-257.314 254.819,-247.183"/>
<polygon fill="midnightblue" stroke="midnightblue" points="255.836,-243.824 245.246,-243.516 253.333,-250.361 255.836,-243.824"/>
</g>
<!-- Node18 -->
<g id="node18" class="node"><title>Node18</title>
<g id="a_node18"><a xlink:href="_mutex_8h.html" target="_top" xlink:title=" ">
<polygon fill="white" stroke="black" points="28.0086,-224.5 28.0086,-243.5 134.009,-243.5 134.009,-224.5 28.0086,-224.5"/>
<text text-anchor="middle" x="81.0086" y="-231.5" font-family="Helvetica,sans-Serif" font-size="10.00">Cpl/System/Mutex.h</text>
</a>
</g>
</g>
<!-- Node16&#45;&gt;Node18 -->
<g id="edge27" class="edge"><title>Node16&#45;&gt;Node18</title>
<path fill="none" stroke="midnightblue" d="M319.166,-280.444C269.384,-270.944 189.025,-255.611 135.616,-245.42"/>
<polygon fill="midnightblue" stroke="midnightblue" points="136.12,-241.953 125.641,-243.516 134.808,-248.829 136.12,-241.953"/>
</g>
<!-- Node19 -->
<g id="node19" class="node"><title>Node19</title>
<g id="a_node19"><a xlink:href="_s_list_8h.html" target="_top" xlink:title=" ">
<polygon fill="white" stroke="black" points="350.509,-224.5 350.509,-243.5 459.509,-243.5 459.509,-224.5 350.509,-224.5"/>
<text text-anchor="middle" x="405.009" y="-231.5" font-family="Helvetica,sans-Serif" font-size="10.00">Cpl/Container/SList.h</text>
</a>
</g>
</g>
<!-- Node16&#45;&gt;Node19 -->
<g id="edge29" class="edge"><title>Node16&#45;&gt;Node19</title>
<path fill="none" stroke="midnightblue" d="M370.779,-280.083C376.57,-272.455 385.067,-261.264 392.146,-251.941"/>
<polygon fill="midnightblue" stroke="midnightblue" points="395.105,-253.832 398.364,-243.751 389.53,-249.599 395.105,-253.832"/>
</g>
<!-- Node17&#45;&gt;Node6 -->
<g id="edge26" class="edge"><title>Node17&#45;&gt;Node6</title>
<path fill="none" stroke="midnightblue" d="M226.311,-224.083C228.991,-216.849 232.857,-206.409 236.195,-197.397"/>
<polygon fill="midnightblue" stroke="midnightblue" points="239.576,-198.344 239.767,-187.751 233.012,-195.913 239.576,-198.344"/>
</g>
<!-- Node18&#45;&gt;Node7 -->
<g id="edge28" class="edge"><title>Node18&#45;&gt;Node7</title>
<path fill="none" stroke="midnightblue" d="M90.0947,-224.075C117.388,-197.267 198.911,-117.19 233.836,-82.8851"/>
<polygon fill="midnightblue" stroke="midnightblue" points="236.604,-85.0725 241.286,-75.5681 231.699,-80.0787 236.604,-85.0725"/>
</g>
<!-- Node19&#45;&gt;Node5 -->
<g id="edge30" class="edge"><title>Node19&#45;&gt;Node5</title>
<path fill="none" stroke="midnightblue" d="M396.476,-224.149C385.084,-211.216 367.592,-186.662 379.009,-168 436.06,-74.7437 492.904,-86.0777 598.009,-56 684.06,-31.3748 943.689,-18.2406 1064.68,-13.3148"/>
<polygon fill="midnightblue" stroke="midnightblue" points="1065.04,-16.803 1074.9,-12.9049 1064.76,-9.80864 1065.04,-16.803"/>
</g>
<!-- Node20&#45;&gt;Node4 -->
<g id="edge34" class="edge"><title>Node20&#45;&gt;Node4</title>
<path fill="none" stroke="midnightblue" d="M1555.41,-286.154C1383.12,-277.006 843.88,-248.374 656.746,-238.437"/>
<polygon fill="midnightblue" stroke="midnightblue" points="656.686,-234.929 646.514,-237.894 656.315,-241.92 656.686,-234.929"/>
</g>
<!-- Node20&#45;&gt;Node11 -->
<g id="edge62" class="edge"><title>Node20&#45;&gt;Node11</title>
<path fill="none" stroke="midnightblue" d="M1629.86,-280.458C1699.81,-250.656 1917.4,-148.097 1837.01,-56 1798.92,-12.3677 1618.37,-9.46669 1541.64,-10.2684"/>
<polygon fill="midnightblue" stroke="midnightblue" points="1541.48,-6.77012 1531.53,-10.4023 1541.57,-13.7695 1541.48,-6.77012"/>
</g>
<!-- Node20&#45;&gt;Node14 -->
<g id="edge33" class="edge"><title>Node20&#45;&gt;Node14</title>
<path fill="none" stroke="midnightblue" d="M1626.25,-280.464C1653.41,-265.891 1705,-233.333 1724.01,-188 1731.11,-171.063 1719.7,-152.301 1708.59,-139.305"/>
<polygon fill="midnightblue" stroke="midnightblue" points="1710.88,-136.635 1701.52,-131.675 1705.75,-141.391 1710.88,-136.635"/>
</g>
<!-- Node21 -->
<g id="node21" class="node"><title>Node21</title>
<g id="a_node21"><a xlink:href="_dm_2_event_loop_8h.html" target="_top" xlink:title=" ">
<polygon fill="white" stroke="black" points="1551.51,-224.5 1551.51,-243.5 1658.51,-243.5 1658.51,-224.5 1551.51,-224.5"/>
<text text-anchor="middle" x="1605.01" y="-231.5" font-family="Helvetica,sans-Serif" font-size="10.00">Cpl/Dm/EventLoop.h</text>
</a>
</g>
</g>
<!-- Node20&#45;&gt;Node21 -->
<g id="edge35" class="edge"><title>Node20&#45;&gt;Node21</title>
<path fill="none" stroke="midnightblue" d="M1608.35,-280.083C1607.82,-273.006 1607.07,-262.861 1606.41,-253.986"/>
<polygon fill="midnightblue" stroke="midnightblue" points="1609.89,-253.465 1605.66,-243.751 1602.91,-253.982 1609.89,-253.465"/>
</g>
<!-- Node21&#45;&gt;Node14 -->
<g id="edge59" class="edge"><title>Node21&#45;&gt;Node14</title>
<path fill="none" stroke="midnightblue" d="M1596.41,-224.455C1584.42,-211.483 1565.5,-186.387 1578.01,-168 1589.12,-151.671 1607.16,-141.267 1625.64,-134.638"/>
<polygon fill="midnightblue" stroke="midnightblue" points="1626.88,-137.917 1635.32,-131.505 1624.72,-131.257 1626.88,-137.917"/>
</g>
<!-- Node22 -->
<g id="node22" class="node"><title>Node22</title>
<g id="a_node22"><a xlink:href="_system_2_event_loop_8h.html" target="_top" xlink:title=" ">
<polygon fill="white" stroke="black" points="1269.51,-168.5 1269.51,-187.5 1394.51,-187.5 1394.51,-168.5 1269.51,-168.5"/>
<text text-anchor="middle" x="1332.01" y="-175.5" font-family="Helvetica,sans-Serif" font-size="10.00">Cpl/System/EventLoop.h</text>
</a>
</g>
</g>
<!-- Node21&#45;&gt;Node22 -->
<g id="edge36" class="edge"><title>Node21&#45;&gt;Node22</title>
<path fill="none" stroke="midnightblue" d="M1561.75,-224.444C1513.83,-214.964 1436.53,-199.675 1385.01,-189.483"/>
<polygon fill="midnightblue" stroke="midnightblue" points="1385.55,-186.023 1375.06,-187.516 1384.19,-192.89 1385.55,-186.023"/>
</g>
<!-- Node21&#45;&gt;Node30 -->
<g id="edge58" class="edge"><title>Node21&#45;&gt;Node30</title>
<path fill="none" stroke="midnightblue" d="M1645.41,-224.442C1670.07,-217.683 1701.15,-206.271 1724.01,-188 1747.31,-169.377 1749.65,-159.584 1761.01,-132 1767.11,-117.185 1770.42,-99.2605 1772.17,-85.9895"/>
<polygon fill="midnightblue" stroke="midnightblue" points="1775.68,-86.0518 1773.34,-75.7204 1768.73,-85.2609 1775.68,-86.0518"/>
</g>
<!-- Node31 -->
<g id="node31" class="node"><title>Node31</title>
<g id="a_node31"><a xlink:href="_thread_8h.html" target="_top" xlink:title=" ">
<polygon fill="white" stroke="black" points="758.509,-168.5 758.509,-187.5 867.509,-187.5 867.509,-168.5 758.509,-168.5"/>
<text text-anchor="middle" x="813.009" y="-175.5" font-family="Helvetica,sans-Serif" font-size="10.00">Cpl/System/Thread.h</text>
</a>
</g>
</g>
<!-- Node21&#45;&gt;Node31 -->
<g id="edge52" class="edge"><title>Node21&#45;&gt;Node31</title>
<path fill="none" stroke="midnightblue" d="M1551.5,-229.352C1410.79,-219.758 1030.7,-193.843 877.91,-183.425"/>
<polygon fill="midnightblue" stroke="midnightblue" points="877.958,-179.92 867.743,-182.732 877.482,-186.904 877.958,-179.92"/>
</g>
<!-- Node34 -->
<g id="node34" class="node"><title>Node34</title>
<g id="a_node34"><a xlink:href="_notification_api___8h.html" target="_top" xlink:title=" ">
<polygon fill="white" stroke="black" points="1587.01,-168.5 1587.01,-187.5 1715.01,-187.5 1715.01,-168.5 1587.01,-168.5"/>
<text text-anchor="middle" x="1651.01" y="-175.5" font-family="Helvetica,sans-Serif" font-size="10.00">Cpl/Dm/NotificationApi_.h</text>
</a>
</g>
</g>
<!-- Node21&#45;&gt;Node34 -->
<g id="edge60" class="edge"><title>Node21&#45;&gt;Node34</title>
<path fill="none" stroke="midnightblue" d="M1612.6,-224.083C1619.24,-216.298 1629.03,-204.801 1637.07,-195.367"/>
<polygon fill="midnightblue" stroke="midnightblue" points="1639.73,-197.633 1643.55,-187.751 1634.4,-193.094 1639.73,-197.633"/>
</g>
<!-- Node23 -->
<g id="node23" class="node"><title>Node23</title>
<g id="a_node23"><a xlink:href="_runnable_8h.html" target="_top" xlink:title=" ">
<polygon fill="white" stroke="black" points="926.509,-112.5 926.509,-131.5 1045.51,-131.5 1045.51,-112.5 926.509,-112.5"/>
<text text-anchor="middle" x="986.009" y="-119.5" font-family="Helvetica,sans-Serif" font-size="10.00">Cpl/System/Runnable.h</text>
</a>
</g>
</g>
<!-- Node22&#45;&gt;Node23 -->
<g id="edge37" class="edge"><title>Node22&#45;&gt;Node23</title>
<path fill="none" stroke="midnightblue" d="M1277.18,-168.444C1215.69,-158.846 1116.02,-143.292 1050.75,-133.104"/>
<polygon fill="midnightblue" stroke="midnightblue" points="1051,-129.6 1040.58,-131.516 1049.92,-136.517 1051,-129.6"/>
</g>
<!-- Node24 -->
<g id="node24" class="node"><title>Node24</title>
<g id="a_node24"><a xlink:href="_semaphore_8h.html" target="_top" xlink:title=" ">
<polygon fill="white" stroke="black" points="1064.01,-112.5 1064.01,-131.5 1192.01,-131.5 1192.01,-112.5 1064.01,-112.5"/>
<text text-anchor="middle" x="1128.01" y="-119.5" font-family="Helvetica,sans-Serif" font-size="10.00">Cpl/System/Semaphore.h</text>
</a>
</g>
</g>
<!-- Node22&#45;&gt;Node24 -->
<g id="edge38" class="edge"><title>Node22&#45;&gt;Node24</title>
<path fill="none" stroke="midnightblue" d="M1299.68,-168.444C1264.62,-159.162 1208.51,-144.309 1170.04,-134.127"/>
<polygon fill="midnightblue" stroke="midnightblue" points="1170.74,-130.692 1160.18,-131.516 1168.95,-137.459 1170.74,-130.692"/>
</g>
<!-- Node25 -->
<g id="node25" class="node"><title>Node25</title>
<g id="a_node25"><a xlink:href="_signable_8h.html" target="_top" xlink:title=" ">
<polygon fill="white" stroke="black" points="1070.01,-56.5 1070.01,-75.5 1186.01,-75.5 1186.01,-56.5 1070.01,-56.5"/>
<text text-anchor="middle" x="1128.01" y="-63.5" font-family="Helvetica,sans-Serif" font-size="10.00">Cpl/System/Signable.h</text>
</a>
</g>
</g>
<!-- Node22&#45;&gt;Node25 -->
<g id="edge42" class="edge"><title>Node22&#45;&gt;Node25</title>
<path fill="none" stroke="midnightblue" d="M1313.26,-168.462C1294.33,-159.712 1264.33,-145.512 1239.01,-132 1207.81,-115.348 1172.73,-94.4224 1150.51,-80.8838"/>
<polygon fill="midnightblue" stroke="midnightblue" points="1152.18,-77.8032 1141.83,-75.5679 1148.53,-83.7736 1152.18,-77.8032"/>
</g>
<!-- Node26 -->
<g id="node26" class="node"><title>Node26</title>
<g id="a_node26"><a xlink:href="_event_flag_8h.html" target="_top" xlink:title=" ">
<polygon fill="white" stroke="black" points="1277.51,-56.5 1277.51,-75.5 1400.51,-75.5 1400.51,-56.5 1277.51,-56.5"/>
<text text-anchor="middle" x="1339.01" y="-63.5" font-family="Helvetica,sans-Serif" font-size="10.00">Cpl/System/EventFlag.h</text>
</a>
</g>
</g>
<!-- Node22&#45;&gt;Node26 -->
<g id="edge43" class="edge"><title>Node22&#45;&gt;Node26</title>
<path fill="none" stroke="midnightblue" d="M1371.26,-168.475C1391,-161.99 1413.19,-150.843 1425.01,-132 1439.93,-108.21 1407.82,-89.9783 1378.68,-78.9618"/>
<polygon fill="midnightblue" stroke="midnightblue" points="1379.58,-75.5668 1368.98,-75.5048 1377.23,-82.1602 1379.58,-75.5668"/>
</g>
<!-- Node27 -->
<g id="node27" class="node"><title>Node27</title>
<g id="a_node27"><a xlink:href="_shared_event_handler_8h.html" target="_top" xlink:title=" ">
<polygon fill="white" stroke="black" points="1248.01,-112.5 1248.01,-131.5 1416.01,-131.5 1416.01,-112.5 1248.01,-112.5"/>
<text text-anchor="middle" x="1332.01" y="-119.5" font-family="Helvetica,sans-Serif" font-size="10.00">Cpl/System/SharedEventHandler.h</text>
</a>
</g>
</g>
<!-- Node22&#45;&gt;Node27 -->
<g id="edge46" class="edge"><title>Node22&#45;&gt;Node27</title>
<path fill="none" stroke="midnightblue" d="M1332.01,-168.083C1332.01,-161.006 1332.01,-150.861 1332.01,-141.986"/>
<polygon fill="midnightblue" stroke="midnightblue" points="1335.51,-141.751 1332.01,-131.751 1328.51,-141.751 1335.51,-141.751"/>
</g>
<!-- Node28 -->
<g id="node28" class="node"><title>Node28</title>
<g id="a_node28"><a xlink:href="_timer_manager_8h.html" target="_top" xlink:title=" ">
<polygon fill="white" stroke="black" points="1472.51,-112.5 1472.51,-131.5 1613.51,-131.5 1613.51,-112.5 1472.51,-112.5"/>
<text text-anchor="middle" x="1543.01" y="-119.5" font-family="Helvetica,sans-Serif" font-size="10.00">Cpl/System/TimerManager.h</text>
</a>
</g>
</g>
<!-- Node22&#45;&gt;Node28 -->
<g id="edge48" class="edge"><title>Node22&#45;&gt;Node28</title>
<path fill="none" stroke="midnightblue" d="M1365.44,-168.444C1401.86,-159.122 1460.24,-144.183 1500.04,-133.997"/>
<polygon fill="midnightblue" stroke="midnightblue" points="1500.91,-137.387 1509.73,-131.516 1499.18,-130.605 1500.91,-137.387"/>
</g>
<!-- Node24&#45;&gt;Node7 -->
<g id="edge39" class="edge"><title>Node24&#45;&gt;Node7</title>
<path fill="none" stroke="midnightblue" d="M1063.86,-112.939C1060.53,-112.602 1057.23,-112.286 1054.01,-112 768.215,-86.6498 423.927,-73.024 298.61,-68.6165"/>
<polygon fill="midnightblue" stroke="midnightblue" points="298.682,-65.117 288.566,-68.2666 298.438,-72.1127 298.682,-65.117"/>
</g>
<!-- Node24&#45;&gt;Node25 -->
<g id="edge40" class="edge"><title>Node24&#45;&gt;Node25</title>
<path fill="none" stroke="midnightblue" d="M1128.01,-112.083C1128.01,-105.006 1128.01,-94.8611 1128.01,-85.9865"/>
<polygon fill="midnightblue" stroke="midnightblue" points="1131.51,-85.751 1128.01,-75.7511 1124.51,-85.7511 1131.51,-85.751"/>
</g>
<!-- Node25&#45;&gt;Node5 -->
<g id="edge41" class="edge"><title>Node25&#45;&gt;Node5</title>
<path fill="none" stroke="midnightblue" d="M1128.01,-56.083C1128.01,-49.0059 1128.01,-38.8611 1128.01,-29.9865"/>
<polygon fill="midnightblue" stroke="midnightblue" points="1131.51,-29.751 1128.01,-19.7511 1124.51,-29.7511 1131.51,-29.751"/>
</g>
<!-- Node26&#45;&gt;Node2 -->
<g id="edge44" class="edge"><title>Node26&#45;&gt;Node2</title>
<path fill="none" stroke="midnightblue" d="M1277.35,-61.055C1251.86,-59.4482 1222.01,-57.5968 1195.01,-56 910.649,-39.1857 569.818,-20.7415 440.886,-13.8254"/>
<polygon fill="midnightblue" stroke="midnightblue" points="441.056,-10.3296 430.883,-13.2892 440.681,-17.3195 441.056,-10.3296"/>
</g>
<!-- Node26&#45;&gt;Node11 -->
<g id="edge45" class="edge"><title>Node26&#45;&gt;Node11</title>
<path fill="none" stroke="midnightblue" d="M1365.63,-56.4435C1394.6,-47.1318 1441.01,-32.2137 1472.7,-22.0289"/>
<polygon fill="midnightblue" stroke="midnightblue" points="1473.98,-25.2938 1482.43,-18.9015 1471.83,-18.6296 1473.98,-25.2938"/>
</g>
<!-- Node27&#45;&gt;Node26 -->
<g id="edge47" class="edge"><title>Node27&#45;&gt;Node26</title>
<path fill="none" stroke="midnightblue" d="M1333.16,-112.083C1334.09,-104.927 1335.43,-94.6353 1336.59,-85.6911"/>
<polygon fill="midnightblue" stroke="midnightblue" points="1340.06,-86.1181 1337.87,-75.7511 1333.12,-85.2181 1340.06,-86.1181"/>
</g>
<!-- Node29 -->
<g id="node29" class="node"><title>Node29</title>
<g id="a_node29"><a xlink:href="_counter___8h.html" target="_top" xlink:title=" ">
<polygon fill="white" stroke="black" points="1455.01,-56.5 1455.01,-75.5 1573.01,-75.5 1573.01,-56.5 1455.01,-56.5"/>
<text text-anchor="middle" x="1514.01" y="-63.5" font-family="Helvetica,sans-Serif" font-size="10.00">Cpl/System/Counter_.h</text>
</a>
</g>
</g>
<!-- Node28&#45;&gt;Node29 -->
<g id="edge49" class="edge"><title>Node28&#45;&gt;Node29</title>
<path fill="none" stroke="midnightblue" d="M1538.22,-112.083C1534.25,-104.691 1528.48,-93.9533 1523.57,-84.8111"/>
<polygon fill="midnightblue" stroke="midnightblue" points="1526.52,-82.9051 1518.71,-75.7511 1520.36,-86.217 1526.52,-82.9051"/>
</g>
<!-- Node28&#45;&gt;Node30 -->
<g id="edge51" class="edge"><title>Node28&#45;&gt;Node30</title>
<path fill="none" stroke="midnightblue" d="M1579.61,-112.444C1619.74,-103.063 1684.21,-87.9926 1727.79,-77.8036"/>
<polygon fill="midnightblue" stroke="midnightblue" points="1728.64,-81.2009 1737.58,-75.5164 1727.04,-74.3847 1728.64,-81.2009"/>
</g>
<!-- Node29&#45;&gt;Node5 -->
<g id="edge50" class="edge"><title>Node29&#45;&gt;Node5</title>
<path fill="none" stroke="midnightblue" d="M1454.96,-56.7398C1383.66,-46.7648 1264.23,-30.0562 1191.14,-19.8319"/>
<polygon fill="midnightblue" stroke="midnightblue" points="1191.53,-16.3529 1181.14,-18.4336 1190.56,-23.2854 1191.53,-16.3529"/>
</g>
<!-- Node31&#45;&gt;Node7 -->
<g id="edge53" class="edge"><title>Node31&#45;&gt;Node7</title>
<path fill="none" stroke="midnightblue" d="M803.595,-168.395C787.077,-153.875 751.18,-124.838 715.009,-112 639.264,-85.1162 402.092,-72.887 298.844,-68.7349"/>
<polygon fill="midnightblue" stroke="midnightblue" points="298.822,-65.2315 288.692,-68.3355 298.547,-72.2261 298.822,-65.2315"/>
</g>
<!-- Node31&#45;&gt;Node23 -->
<g id="edge54" class="edge"><title>Node31&#45;&gt;Node23</title>
<path fill="none" stroke="midnightblue" d="M840.421,-168.444C869.778,-159.28 916.528,-144.688 949.105,-134.519"/>
<polygon fill="midnightblue" stroke="midnightblue" points="950.222,-137.837 958.724,-131.516 948.136,-131.155 950.222,-137.837"/>
</g>
<!-- Node31&#45;&gt;Node25 -->
<g id="edge55" class="edge"><title>Node31&#45;&gt;Node25</title>
<path fill="none" stroke="midnightblue" d="M805.34,-168.382C794.252,-154.857 776.57,-128.494 791.009,-112 808.41,-92.1204 966.304,-78.0369 1059.67,-71.3657"/>
<polygon fill="midnightblue" stroke="midnightblue" points="1060.15,-74.8402 1069.88,-70.6468 1059.66,-67.8574 1060.15,-74.8402"/>
</g>
<!-- Node32 -->
<g id="node32" class="node"><title>Node32</title>
<g id="a_node32"><a xlink:href="_traverser_8h.html" target="_top" xlink:title=" ">
<polygon fill="white" stroke="black" points="800.009,-112.5 800.009,-131.5 908.009,-131.5 908.009,-112.5 800.009,-112.5"/>
<text text-anchor="middle" x="854.009" y="-119.5" font-family="Helvetica,sans-Serif" font-size="10.00">Cpl/Type/Traverser.h</text>
</a>
</g>
</g>
<!-- Node31&#45;&gt;Node32 -->
<g id="edge56" class="edge"><title>Node31&#45;&gt;Node32</title>
<path fill="none" stroke="midnightblue" d="M819.779,-168.083C825.57,-160.455 834.067,-149.264 841.146,-139.941"/>
<polygon fill="midnightblue" stroke="midnightblue" points="844.105,-141.832 847.364,-131.751 838.53,-137.599 844.105,-141.832"/>
</g>
<!-- Node31&#45;&gt;Node33 -->
<g id="edge57" class="edge"><title>Node31&#45;&gt;Node33</title>
<path fill="none" stroke="midnightblue" d="M792.251,-168.444C770.692,-159.557 736.745,-145.563 712.215,-135.451"/>
<polygon fill="midnightblue" stroke="midnightblue" points="713.248,-132.092 702.669,-131.516 710.58,-138.563 713.248,-132.092"/>
</g>
<!-- Node34&#45;&gt;Node14 -->
<g id="edge61" class="edge"><title>Node34&#45;&gt;Node14</title>
<path fill="none" stroke="midnightblue" d="M1657.78,-168.083C1663.57,-160.455 1672.07,-149.264 1679.15,-139.941"/>
<polygon fill="midnightblue" stroke="midnightblue" points="1682.1,-141.832 1685.36,-131.751 1676.53,-137.599 1682.1,-141.832"/>
</g>
<!-- Node36 -->
<g id="node36" class="node"><title>Node36</title>
<g id="a_node36"><a xlink:href="enum_8h_source.html" target="_top" xlink:title=" ">
<polygon fill="white" stroke="black" points="1923.51,-280.5 1923.51,-299.5 2014.51,-299.5 2014.51,-280.5 1923.51,-280.5"/>
<text text-anchor="middle" x="1969.01" y="-287.5" font-family="Helvetica,sans-Serif" font-size="10.00">Cpl/Type/enum.h</text>
</a>
</g>
</g>
<!-- Node35&#45;&gt;Node36 -->
<g id="edge67" class="edge"><title>Node35&#45;&gt;Node36</title>
<path fill="none" stroke="midnightblue" d="M1800.7,-336.444C1835.08,-327.162 1890.09,-312.309 1927.8,-302.127"/>
<polygon fill="midnightblue" stroke="midnightblue" points="1928.72,-305.502 1937.47,-299.516 1926.9,-298.744 1928.72,-305.502"/>
</g>
<!-- Node37&#45;&gt;Node36 -->
<g id="edge69" class="edge"><title>Node37&#45;&gt;Node36</title>
<path fill="none" stroke="midnightblue" d="M1927.27,-336.083C1934.47,-328.298 1945.12,-316.801 1953.85,-307.367"/>
<polygon fill="midnightblue" stroke="midnightblue" points="1956.68,-309.467 1960.91,-299.751 1951.54,-304.711 1956.68,-309.467"/>
</g>
</g>
</svg>
