<?xml version="1.0" encoding="UTF-8" standalone="no"?>
<!DOCTYPE svg PUBLIC "-//W3C//DTD SVG 1.1//EN"
 "http://www.w3.org/Graphics/SVG/1.1/DTD/svg11.dtd">
<!-- Generated by graphviz version 2.38.0 (20140413.2041)
 -->
<!-- Title: Storm/Dm/MpSimpleAlarm.h Pages: 1 -->
<svg width="1969pt" height="420pt"
 viewBox="0.00 0.00 1969.00 420.00" xmlns="http://www.w3.org/2000/svg" xmlns:xlink="http://www.w3.org/1999/xlink">
<g id="graph0" class="graph" transform="scale(1 1) rotate(0) translate(4 416)">
<title>Storm/Dm/MpSimpleAlarm.h</title>
<polygon fill="white" stroke="none" points="-4,4 -4,-416 1965,-416 1965,4 -4,4"/>
<!-- Node1 -->
<g id="node1" class="node"><title>Node1</title>
<g id="a_node1"><a xlink:title=" ">
<polygon fill="#bfbfbf" stroke="black" points="1435.5,-392.5 1435.5,-411.5 1576.5,-411.5 1576.5,-392.5 1435.5,-392.5"/>
<text text-anchor="middle" x="1506" y="-399.5" font-family="Helvetica,sans-Serif" font-size="10.00">Storm/Dm/MpSimpleAlarm.h</text>
</a>
</g>
</g>
<!-- Node2 -->
<g id="node2" class="node"><title>Node2</title>
<g id="a_node2"><a xlink:href="_model_point_common___8h.html" target="_top" xlink:title=" ">
<polygon fill="white" stroke="black" points="1164.5,-336.5 1164.5,-355.5 1317.5,-355.5 1317.5,-336.5 1164.5,-336.5"/>
<text text-anchor="middle" x="1241" y="-343.5" font-family="Helvetica,sans-Serif" font-size="10.00">Cpl/Dm/ModelPointCommon_.h</text>
</a>
</g>
</g>
<!-- Node1&#45;&gt;Node2 -->
<g id="edge1" class="edge"><title>Node1&#45;&gt;Node2</title>
<path fill="none" stroke="midnightblue" d="M1464.01,-392.444C1417.59,-382.984 1342.77,-367.738 1292.76,-357.547"/>
<polygon fill="midnightblue" stroke="midnightblue" points="1293.29,-354.084 1282.79,-355.516 1291.89,-360.943 1293.29,-354.084"/>
</g>
<!-- Node36 -->
<g id="node36" class="node"><title>Node36</title>
<g id="a_node36"><a xlink:href="_f_string_8h.html" target="_top" xlink:title=" ">
<polygon fill="white" stroke="black" points="1723,-336.5 1723,-355.5 1819,-355.5 1819,-336.5 1723,-336.5"/>
<text text-anchor="middle" x="1771" y="-343.5" font-family="Helvetica,sans-Serif" font-size="10.00">Cpl/Text/FString.h</text>
</a>
</g>
</g>
<!-- Node1&#45;&gt;Node36 -->
<g id="edge65" class="edge"><title>Node1&#45;&gt;Node36</title>
<path fill="none" stroke="midnightblue" d="M1547.99,-392.444C1594.41,-382.984 1669.23,-367.738 1719.24,-357.547"/>
<polygon fill="midnightblue" stroke="midnightblue" points="1720.11,-360.943 1729.21,-355.516 1718.71,-354.084 1720.11,-360.943"/>
</g>
<!-- Node3 -->
<g id="node3" class="node"><title>Node3</title>
<g id="a_node3"><a xlink:href="_model_point_8h.html" target="_top" xlink:title=" ">
<polygon fill="white" stroke="black" points="1269.5,-224.5 1269.5,-243.5 1378.5,-243.5 1378.5,-224.5 1269.5,-224.5"/>
<text text-anchor="middle" x="1324" y="-231.5" font-family="Helvetica,sans-Serif" font-size="10.00">Cpl/Dm/ModelPoint.h</text>
</a>
</g>
</g>
<!-- Node2&#45;&gt;Node3 -->
<g id="edge2" class="edge"><title>Node2&#45;&gt;Node3</title>
<path fill="none" stroke="midnightblue" d="M1247.51,-336.368C1261.27,-318.135 1293.5,-275.426 1311.42,-251.675"/>
<polygon fill="midnightblue" stroke="midnightblue" points="1314.29,-253.682 1317.52,-243.591 1308.7,-249.466 1314.29,-253.682"/>
</g>
<!-- Node11 -->
<g id="node11" class="node"><title>Node11</title>
<g id="a_node11"><a xlink:title=" ">
<polygon fill="white" stroke="#bfbfbf" points="239.5,-0.5 239.5,-19.5 288.5,-19.5 288.5,-0.5 239.5,-0.5"/>
<text text-anchor="middle" x="264" y="-7.5" font-family="Helvetica,sans-Serif" font-size="10.00">stdint.h</text>
</a>
</g>
</g>
<!-- Node2&#45;&gt;Node11 -->
<g id="edge63" class="edge"><title>Node2&#45;&gt;Node11</title>
<path fill="none" stroke="midnightblue" d="M1164.45,-343.894C960.786,-340.586 408.901,-329.125 229,-300 124.562,-283.092 0,-340.798 0,-235 0,-235 0,-235 0,-121 0,-23.0012 156.92,-10.7272 228.799,-10.2455"/>
<polygon fill="midnightblue" stroke="midnightblue" points="229.16,-13.7458 239.164,-10.2546 229.167,-6.74576 229.16,-13.7458"/>
</g>
<!-- Node17 -->
<g id="node17" class="node"><title>Node17</title>
<g id="a_node17"><a xlink:href="_model_database_8h.html" target="_top" xlink:title=" ">
<polygon fill="white" stroke="black" points="1467,-280.5 1467,-299.5 1595,-299.5 1595,-280.5 1467,-280.5"/>
<text text-anchor="middle" x="1531" y="-287.5" font-family="Helvetica,sans-Serif" font-size="10.00">Cpl/Dm/ModelDatabase.h</text>
</a>
</g>
</g>
<!-- Node2&#45;&gt;Node17 -->
<g id="edge22" class="edge"><title>Node2&#45;&gt;Node17</title>
<path fill="none" stroke="midnightblue" d="M1286.95,-336.444C1338.07,-326.925 1420.65,-311.547 1475.38,-301.356"/>
<polygon fill="midnightblue" stroke="midnightblue" points="1476.07,-304.788 1485.26,-299.516 1474.79,-297.906 1476.07,-304.788"/>
</g>
<!-- Node21 -->
<g id="node21" class="node"><title>Node21</title>
<g id="a_node21"><a xlink:href="_subscriber_8h.html" target="_top" xlink:title=" ">
<polygon fill="white" stroke="black" points="238.5,-280.5 238.5,-299.5 345.5,-299.5 345.5,-280.5 238.5,-280.5"/>
<text text-anchor="middle" x="292" y="-287.5" font-family="Helvetica,sans-Serif" font-size="10.00">Cpl/Dm/Subscriber.h</text>
</a>
</g>
</g>
<!-- Node2&#45;&gt;Node21 -->
<g id="edge31" class="edge"><title>Node2&#45;&gt;Node21</title>
<path fill="none" stroke="midnightblue" d="M1164.25,-343.159C1011.08,-339.026 656.637,-327.162 360,-300 358.699,-299.881 357.385,-299.755 356.061,-299.624"/>
<polygon fill="midnightblue" stroke="midnightblue" points="356.093,-296.108 345.777,-298.524 355.348,-303.068 356.093,-296.108"/>
</g>
<!-- Node31 -->
<g id="node31" class="node"><title>Node31</title>
<g id="a_node31"><a xlink:href="_d_list_8h.html" target="_top" xlink:title=" ">
<polygon fill="white" stroke="black" points="361.5,-56.5 361.5,-75.5 470.5,-75.5 470.5,-56.5 361.5,-56.5"/>
<text text-anchor="middle" x="416" y="-63.5" font-family="Helvetica,sans-Serif" font-size="10.00">Cpl/Container/DList.h</text>
</a>
</g>
</g>
<!-- Node2&#45;&gt;Node31 -->
<g id="edge62" class="edge"><title>Node2&#45;&gt;Node31</title>
<path fill="none" stroke="midnightblue" d="M1164.44,-343.265C952.564,-337.455 374,-314.325 374,-235 374,-235 374,-235 374,-177 374,-142.412 392.348,-105.492 404.79,-84.4322"/>
<polygon fill="midnightblue" stroke="midnightblue" points="407.907,-86.0448 410.16,-75.6923 401.943,-82.38 407.907,-86.0448"/>
</g>
<!-- Node34 -->
<g id="node34" class="node"><title>Node34</title>
<g id="a_node34"><a xlink:title=" ">
<polygon fill="white" stroke="#bfbfbf" points="1310,-112.5 1310,-131.5 1358,-131.5 1358,-112.5 1310,-112.5"/>
<text text-anchor="middle" x="1334" y="-119.5" font-family="Helvetica,sans-Serif" font-size="10.00">stdlib.h</text>
</a>
</g>
</g>
<!-- Node2&#45;&gt;Node34 -->
<g id="edge64" class="edge"><title>Node2&#45;&gt;Node34</title>
<path fill="none" stroke="midnightblue" d="M1240.98,-336.414C1241.21,-316.07 1243.51,-263.662 1260,-224 1273.96,-190.43 1301.26,-157.614 1318.52,-138.896"/>
<polygon fill="midnightblue" stroke="midnightblue" points="1321.13,-141.232 1325.44,-131.555 1316.03,-136.428 1321.13,-141.232"/>
</g>
<!-- Node4 -->
<g id="node4" class="node"><title>Node4</title>
<g id="a_node4"><a xlink:title=" ">
<polygon fill="white" stroke="#bfbfbf" points="1799.5,-0.5 1799.5,-19.5 1884.5,-19.5 1884.5,-0.5 1799.5,-0.5"/>
<text text-anchor="middle" x="1842" y="-7.5" font-family="Helvetica,sans-Serif" font-size="10.00">colony_config.h</text>
</a>
</g>
</g>
<!-- Node3&#45;&gt;Node4 -->
<g id="edge3" class="edge"><title>Node3&#45;&gt;Node4</title>
<path fill="none" stroke="midnightblue" d="M1334.42,-224.3C1352.3,-209.906 1390.51,-181.399 1428,-168 1546.15,-125.775 1588.37,-169.818 1708,-132 1726.2,-126.247 1728.93,-120.531 1746,-112 1779.43,-95.2925 1797.54,-104.26 1822,-76 1833.22,-63.0389 1838.15,-43.8723 1840.31,-29.7078"/>
<polygon fill="midnightblue" stroke="midnightblue" points="1843.8,-29.9807 1841.52,-19.6347 1836.85,-29.1461 1843.8,-29.9807"/>
</g>
<!-- Node5 -->
<g id="node5" class="node"><title>Node5</title>
<g id="a_node5"><a xlink:href="_item_8h.html" target="_top" xlink:title=" ">
<polygon fill="white" stroke="black" points="835,-0.5 835,-19.5 941,-19.5 941,-0.5 835,-0.5"/>
<text text-anchor="middle" x="888" y="-7.5" font-family="Helvetica,sans-Serif" font-size="10.00">Cpl/Container/Item.h</text>
</a>
</g>
</g>
<!-- Node3&#45;&gt;Node5 -->
<g id="edge4" class="edge"><title>Node3&#45;&gt;Node5</title>
<path fill="none" stroke="midnightblue" d="M1327.91,-224.378C1338.13,-201.735 1365.03,-141.663 1367,-132 1368.78,-123.291 1372.6,-118.903 1367,-112 1315.35,-48.3294 1069.51,-23.2634 951.496,-14.7769"/>
<polygon fill="midnightblue" stroke="midnightblue" points="951.39,-11.2609 941.17,-14.0532 950.901,-18.2438 951.39,-11.2609"/>
</g>
<!-- Node6 -->
<g id="node6" class="node"><title>Node6</title>
<g id="a_node6"><a xlink:href="_text_2_string_8h.html" target="_top" xlink:title=" ">
<polygon fill="white" stroke="black" points="1721,-168.5 1721,-187.5 1811,-187.5 1811,-168.5 1721,-168.5"/>
<text text-anchor="middle" x="1766" y="-175.5" font-family="Helvetica,sans-Serif" font-size="10.00">Cpl/Text/String.h</text>
</a>
</g>
</g>
<!-- Node3&#45;&gt;Node6 -->
<g id="edge5" class="edge"><title>Node3&#45;&gt;Node6</title>
<path fill="none" stroke="midnightblue" d="M1378.77,-227.231C1453.34,-219.229 1590.94,-203.935 1708,-188 1708.91,-187.877 1709.82,-187.751 1710.74,-187.623"/>
<polygon fill="midnightblue" stroke="midnightblue" points="1711.34,-191.072 1720.75,-186.189 1710.35,-184.143 1711.34,-191.072"/>
</g>
<!-- Node10 -->
<g id="node10" class="node"><title>Node10</title>
<g id="a_node10"><a xlink:title=" ">
<polygon fill="white" stroke="#bfbfbf" points="1547,-0.5 1547,-19.5 1599,-19.5 1599,-0.5 1547,-0.5"/>
<text text-anchor="middle" x="1573" y="-7.5" font-family="Helvetica,sans-Serif" font-size="10.00">stddef.h</text>
</a>
</g>
</g>
<!-- Node3&#45;&gt;Node10 -->
<g id="edge20" class="edge"><title>Node3&#45;&gt;Node10</title>
<path fill="none" stroke="midnightblue" d="M1329.91,-224.178C1348.92,-196.322 1411.35,-108.953 1481,-56 1498.88,-42.4083 1521.51,-31.2746 1539.85,-23.4818"/>
<polygon fill="midnightblue" stroke="midnightblue" points="1541.35,-26.6481 1549.27,-19.609 1538.69,-20.1737 1541.35,-26.6481"/>
</g>
<!-- Node3&#45;&gt;Node11 -->
<g id="edge21" class="edge"><title>Node3&#45;&gt;Node11</title>
<path fill="none" stroke="midnightblue" d="M1269.36,-232.494C1093.62,-230.038 545.508,-215.688 393,-132 343.178,-104.661 297.97,-53.6084 276.745,-27.4199"/>
<polygon fill="midnightblue" stroke="midnightblue" points="279.459,-25.2091 270.494,-19.5619 273.981,-29.5668 279.459,-25.2091"/>
</g>
<!-- Node15 -->
<g id="node15" class="node"><title>Node15</title>
<g id="a_node15"><a xlink:href="_subscriber_api_8h.html" target="_top" xlink:title=" ">
<polygon fill="white" stroke="black" points="148.5,-112.5 148.5,-131.5 269.5,-131.5 269.5,-112.5 148.5,-112.5"/>
<text text-anchor="middle" x="209" y="-119.5" font-family="Helvetica,sans-Serif" font-size="10.00">Cpl/Dm/SubscriberApi.h</text>
</a>
</g>
</g>
<!-- Node3&#45;&gt;Node15 -->
<g id="edge16" class="edge"><title>Node3&#45;&gt;Node15</title>
<path fill="none" stroke="midnightblue" d="M1269.26,-232.365C1096.84,-230.045 566.532,-220.395 398,-188 339.289,-176.715 273.992,-151.176 237.571,-135.682"/>
<polygon fill="midnightblue" stroke="midnightblue" points="238.662,-132.341 228.094,-131.599 235.893,-138.77 238.662,-132.341"/>
</g>
<!-- Node16 -->
<g id="node16" class="node"><title>Node16</title>
<g id="a_node16"><a xlink:href="_arduino_8h_source.html" target="_top" xlink:title=" ">
<polygon fill="white" stroke="black" points="1437.5,-168.5 1437.5,-187.5 1536.5,-187.5 1536.5,-168.5 1437.5,-168.5"/>
<text text-anchor="middle" x="1487" y="-175.5" font-family="Helvetica,sans-Serif" font-size="10.00">Cpl/Json/Arduino.h</text>
</a>
</g>
</g>
<!-- Node3&#45;&gt;Node16 -->
<g id="edge19" class="edge"><title>Node3&#45;&gt;Node16</title>
<path fill="none" stroke="midnightblue" d="M1349.83,-224.444C1377.25,-215.359 1420.78,-200.939 1451.43,-190.783"/>
<polygon fill="midnightblue" stroke="midnightblue" points="1452.9,-193.984 1461.29,-187.516 1450.7,-187.339 1452.9,-193.984"/>
</g>
<!-- Node7 -->
<g id="node7" class="node"><title>Node7</title>
<g id="a_node7"><a xlink:title=" ">
<polygon fill="white" stroke="#bfbfbf" points="1490.5,-56.5 1490.5,-75.5 1567.5,-75.5 1567.5,-56.5 1490.5,-56.5"/>
<text text-anchor="middle" x="1529" y="-63.5" font-family="Helvetica,sans-Serif" font-size="10.00">colony_map.h</text>
</a>
</g>
</g>
<!-- Node6&#45;&gt;Node7 -->
<g id="edge6" class="edge"><title>Node6&#45;&gt;Node7</title>
<path fill="none" stroke="midnightblue" d="M1720.87,-168.913C1675.26,-160.18 1608.41,-145.675 1586,-132 1566.45,-120.071 1549.96,-99.2716 1539.82,-84.4133"/>
<polygon fill="midnightblue" stroke="midnightblue" points="1542.51,-82.1224 1534.11,-75.6601 1536.64,-85.9476 1542.51,-82.1224"/>
</g>
<!-- Node8 -->
<g id="node8" class="node"><title>Node8</title>
<g id="a_node8"><a xlink:href="_key_8h.html" target="_top" xlink:title=" ">
<polygon fill="white" stroke="black" points="1595,-112.5 1595,-131.5 1699,-131.5 1699,-112.5 1595,-112.5"/>
<text text-anchor="middle" x="1647" y="-119.5" font-family="Helvetica,sans-Serif" font-size="10.00">Cpl/Container/Key.h</text>
</a>
</g>
</g>
<!-- Node6&#45;&gt;Node8 -->
<g id="edge7" class="edge"><title>Node6&#45;&gt;Node8</title>
<path fill="none" stroke="midnightblue" d="M1747.14,-168.444C1727.73,-159.636 1697.27,-145.812 1675.04,-135.722"/>
<polygon fill="midnightblue" stroke="midnightblue" points="1676.32,-132.462 1665.77,-131.516 1673.43,-138.836 1676.32,-132.462"/>
</g>
<!-- Node13 -->
<g id="node13" class="node"><title>Node13</title>
<g id="a_node13"><a xlink:title=" ">
<polygon fill="white" stroke="#bfbfbf" points="1827,-112.5 1827,-131.5 1879,-131.5 1879,-112.5 1827,-112.5"/>
<text text-anchor="middle" x="1853" y="-119.5" font-family="Helvetica,sans-Serif" font-size="10.00">stdarg.h</text>
</a>
</g>
</g>
<!-- Node6&#45;&gt;Node13 -->
<g id="edge14" class="edge"><title>Node6&#45;&gt;Node13</title>
<path fill="none" stroke="midnightblue" d="M1779.98,-168.324C1793.55,-159.9 1814.38,-146.971 1830.32,-137.074"/>
<polygon fill="midnightblue" stroke="midnightblue" points="1832.41,-139.902 1839.06,-131.655 1828.71,-133.954 1832.41,-139.902"/>
</g>
<!-- Node14 -->
<g id="node14" class="node"><title>Node14</title>
<g id="a_node14"><a xlink:title=" ">
<polygon fill="white" stroke="#bfbfbf" points="1755,-112.5 1755,-131.5 1809,-131.5 1809,-112.5 1755,-112.5"/>
<text text-anchor="middle" x="1782" y="-119.5" font-family="Helvetica,sans-Serif" font-size="10.00">iostream</text>
</a>
</g>
</g>
<!-- Node6&#45;&gt;Node14 -->
<g id="edge15" class="edge"><title>Node6&#45;&gt;Node14</title>
<path fill="none" stroke="midnightblue" d="M1768.64,-168.083C1770.79,-160.849 1773.88,-150.409 1776.55,-141.397"/>
<polygon fill="midnightblue" stroke="midnightblue" points="1779.92,-142.333 1779.41,-131.751 1773.21,-140.345 1779.92,-142.333"/>
</g>
<!-- Node8&#45;&gt;Node7 -->
<g id="edge13" class="edge"><title>Node8&#45;&gt;Node7</title>
<path fill="none" stroke="midnightblue" d="M1628.3,-112.444C1609.06,-103.636 1578.85,-89.8116 1556.8,-79.722"/>
<polygon fill="midnightblue" stroke="midnightblue" points="1558.16,-76.4951 1547.61,-75.5164 1555.25,-82.8603 1558.16,-76.4951"/>
</g>
<!-- Node9 -->
<g id="node9" class="node"><title>Node9</title>
<g id="a_node9"><a xlink:href="_fatal_error_8h.html" target="_top" xlink:title=" ">
<polygon fill="white" stroke="black" points="1624,-56.5 1624,-75.5 1746,-75.5 1746,-56.5 1624,-56.5"/>
<text text-anchor="middle" x="1685" y="-63.5" font-family="Helvetica,sans-Serif" font-size="10.00">Cpl/System/FatalError.h</text>
</a>
</g>
</g>
<!-- Node8&#45;&gt;Node9 -->
<g id="edge8" class="edge"><title>Node8&#45;&gt;Node9</title>
<path fill="none" stroke="midnightblue" d="M1653.27,-112.083C1658.64,-104.455 1666.52,-93.2645 1673.08,-83.9408"/>
<polygon fill="midnightblue" stroke="midnightblue" points="1675.95,-85.9434 1678.84,-75.7511 1670.22,-81.9149 1675.95,-85.9434"/>
</g>
<!-- Node8&#45;&gt;Node11 -->
<g id="edge11" class="edge"><title>Node8&#45;&gt;Node11</title>
<path fill="none" stroke="midnightblue" d="M1640.79,-112.193C1629.74,-97.3666 1605.09,-67.8808 1576,-56 1515.21,-31.1679 500.24,-14.5712 298.648,-11.5113"/>
<polygon fill="midnightblue" stroke="midnightblue" points="298.67,-8.01137 288.619,-11.3601 298.565,-15.0106 298.67,-8.01137"/>
</g>
<!-- Node12 -->
<g id="node12" class="node"><title>Node12</title>
<g id="a_node12"><a xlink:title=" ">
<polygon fill="white" stroke="#bfbfbf" points="1764.5,-56.5 1764.5,-75.5 1813.5,-75.5 1813.5,-56.5 1764.5,-56.5"/>
<text text-anchor="middle" x="1789" y="-63.5" font-family="Helvetica,sans-Serif" font-size="10.00">string.h</text>
</a>
</g>
</g>
<!-- Node8&#45;&gt;Node12 -->
<g id="edge12" class="edge"><title>Node8&#45;&gt;Node12</title>
<path fill="none" stroke="midnightblue" d="M1669.5,-112.444C1693.08,-103.478 1730.32,-89.314 1756.96,-79.1827"/>
<polygon fill="midnightblue" stroke="midnightblue" points="1758.5,-82.3424 1766.6,-75.5164 1756.01,-75.7995 1758.5,-82.3424"/>
</g>
<!-- Node9&#45;&gt;Node4 -->
<g id="edge10" class="edge"><title>Node9&#45;&gt;Node4</title>
<path fill="none" stroke="midnightblue" d="M1709.88,-56.4435C1736.29,-47.3591 1778.22,-32.9388 1807.74,-22.7831"/>
<polygon fill="midnightblue" stroke="midnightblue" points="1808.92,-26.0787 1817.24,-19.5164 1806.64,-19.4593 1808.92,-26.0787"/>
</g>
<!-- Node9&#45;&gt;Node10 -->
<g id="edge9" class="edge"><title>Node9&#45;&gt;Node10</title>
<path fill="none" stroke="midnightblue" d="M1667.01,-56.324C1648.96,-47.6247 1620.95,-34.1202 1600.2,-24.113"/>
<polygon fill="midnightblue" stroke="midnightblue" points="1601.48,-20.8449 1590.95,-19.6545 1598.44,-27.1502 1601.48,-20.8449"/>
</g>
<!-- Node15&#45;&gt;Node5 -->
<g id="edge17" class="edge"><title>Node15&#45;&gt;Node5</title>
<path fill="none" stroke="midnightblue" d="M223.408,-112.417C248.525,-97.9303 302.391,-68.942 352,-56 439.69,-33.1234 702.52,-19.0684 824.51,-13.6085"/>
<polygon fill="midnightblue" stroke="midnightblue" points="824.974,-17.0915 834.809,-13.153 824.665,-10.0983 824.974,-17.0915"/>
</g>
<!-- Node15&#45;&gt;Node11 -->
<g id="edge18" class="edge"><title>Node15&#45;&gt;Node11</title>
<path fill="none" stroke="midnightblue" d="M213.316,-112.368C222.312,-94.376 243.225,-52.5503 255.187,-28.6267"/>
<polygon fill="midnightblue" stroke="midnightblue" points="258.363,-30.101 259.704,-19.5914 252.102,-26.9704 258.363,-30.101"/>
</g>
<!-- Node17&#45;&gt;Node4 -->
<g id="edge23" class="edge"><title>Node17&#45;&gt;Node4</title>
<path fill="none" stroke="midnightblue" d="M1595.28,-289.409C1689.19,-288.678 1857.65,-281.919 1903,-244 1926.19,-224.613 1923,-209.225 1923,-179 1923,-179 1923,-179 1923,-121 1923,-80.4453 1886.86,-44.9891 1862.86,-25.9149"/>
<polygon fill="midnightblue" stroke="midnightblue" points="1864.73,-22.9379 1854.66,-19.6497 1860.48,-28.501 1864.73,-22.9379"/>
</g>
<!-- Node17&#45;&gt;Node16 -->
<g id="edge30" class="edge"><title>Node17&#45;&gt;Node16</title>
<path fill="none" stroke="midnightblue" d="M1482.23,-280.495C1461.21,-274.151 1438.61,-263.124 1426,-244 1412.95,-224.217 1437.34,-204.844 1459.05,-192.469"/>
<polygon fill="midnightblue" stroke="midnightblue" points="1460.92,-195.435 1468.07,-187.614 1457.6,-189.271 1460.92,-195.435"/>
</g>
<!-- Node18 -->
<g id="node18" class="node"><title>Node18</title>
<g id="a_node18"><a xlink:href="_model_database_api_8h.html" target="_top" xlink:title=" ">
<polygon fill="white" stroke="black" points="1601,-224.5 1601,-243.5 1743,-243.5 1743,-224.5 1601,-224.5"/>
<text text-anchor="middle" x="1672" y="-231.5" font-family="Helvetica,sans-Serif" font-size="10.00">Cpl/Dm/ModelDatabaseApi.h</text>
</a>
</g>
</g>
<!-- Node17&#45;&gt;Node18 -->
<g id="edge24" class="edge"><title>Node17&#45;&gt;Node18</title>
<path fill="none" stroke="midnightblue" d="M1553.34,-280.444C1576.75,-271.478 1613.74,-257.314 1640.19,-247.183"/>
<polygon fill="midnightblue" stroke="midnightblue" points="1641.68,-250.361 1649.76,-243.516 1639.17,-243.824 1641.68,-250.361"/>
</g>
<!-- Node19 -->
<g id="node19" class="node"><title>Node19</title>
<g id="a_node19"><a xlink:href="_mutex_8h.html" target="_top" xlink:title=" ">
<polygon fill="white" stroke="black" points="1593,-168.5 1593,-187.5 1699,-187.5 1699,-168.5 1593,-168.5"/>
<text text-anchor="middle" x="1646" y="-175.5" font-family="Helvetica,sans-Serif" font-size="10.00">Cpl/System/Mutex.h</text>
</a>
</g>
</g>
<!-- Node17&#45;&gt;Node19 -->
<g id="edge26" class="edge"><title>Node17&#45;&gt;Node19</title>
<path fill="none" stroke="midnightblue" d="M1538.58,-280.268C1549.81,-267.481 1571.73,-243.109 1592,-224 1603.1,-213.536 1616.23,-202.562 1626.77,-194.071"/>
<polygon fill="midnightblue" stroke="midnightblue" points="1629.27,-196.556 1634.91,-187.588 1624.91,-191.081 1629.27,-196.556"/>
</g>
<!-- Node20 -->
<g id="node20" class="node"><title>Node20</title>
<g id="a_node20"><a xlink:href="_s_list_8h.html" target="_top" xlink:title=" ">
<polygon fill="white" stroke="black" points="1435.5,-224.5 1435.5,-243.5 1544.5,-243.5 1544.5,-224.5 1435.5,-224.5"/>
<text text-anchor="middle" x="1490" y="-231.5" font-family="Helvetica,sans-Serif" font-size="10.00">Cpl/Container/SList.h</text>
</a>
</g>
</g>
<!-- Node17&#45;&gt;Node20 -->
<g id="edge28" class="edge"><title>Node17&#45;&gt;Node20</title>
<path fill="none" stroke="midnightblue" d="M1524.23,-280.083C1518.44,-272.455 1509.94,-261.264 1502.86,-251.941"/>
<polygon fill="midnightblue" stroke="midnightblue" points="1505.48,-249.599 1496.64,-243.751 1499.9,-253.832 1505.48,-249.599"/>
</g>
<!-- Node18&#45;&gt;Node6 -->
<g id="edge25" class="edge"><title>Node18&#45;&gt;Node6</title>
<path fill="none" stroke="midnightblue" d="M1687.1,-224.324C1701.9,-215.822 1724.69,-202.729 1741.98,-192.797"/>
<polygon fill="midnightblue" stroke="midnightblue" points="1744.01,-195.671 1750.93,-187.655 1740.52,-189.601 1744.01,-195.671"/>
</g>
<!-- Node19&#45;&gt;Node7 -->
<g id="edge27" class="edge"><title>Node19&#45;&gt;Node7</title>
<path fill="none" stroke="midnightblue" d="M1614.22,-168.362C1594.24,-161.465 1569.27,-149.932 1553,-132 1541.26,-119.066 1535.12,-99.896 1532,-85.7232"/>
<polygon fill="midnightblue" stroke="midnightblue" points="1535.39,-84.8203 1530.1,-75.6429 1528.51,-86.1186 1535.39,-84.8203"/>
</g>
<!-- Node20&#45;&gt;Node5 -->
<g id="edge29" class="edge"><title>Node20&#45;&gt;Node5</title>
<path fill="none" stroke="midnightblue" d="M1506.91,-224.312C1527.87,-212.351 1559.19,-189.805 1545,-168 1477.92,-64.94 1410.71,-88.0696 1292,-56 1174.63,-24.2949 1032.29,-14.8828 951.723,-12.1177"/>
<polygon fill="midnightblue" stroke="midnightblue" points="951.359,-8.60439 941.253,-11.784 951.136,-15.6008 951.359,-8.60439"/>
</g>
<!-- Node21&#45;&gt;Node3 -->
<g id="edge33" class="edge"><title>Node21&#45;&gt;Node3</title>
<path fill="none" stroke="midnightblue" d="M345.671,-286.192C519.958,-277.072 1069.71,-248.306 1259.12,-238.395"/>
<polygon fill="midnightblue" stroke="midnightblue" points="1259.4,-241.885 1269.2,-237.867 1259.03,-234.895 1259.4,-241.885"/>
</g>
<!-- Node21&#45;&gt;Node11 -->
<g id="edge61" class="edge"><title>Node21&#45;&gt;Node11</title>
<path fill="none" stroke="midnightblue" d="M238.444,-288.558C163.923,-284.794 38,-265.619 38,-179 38,-179 38,-179 38,-121 38,-37.0553 165.617,-17.1566 229.055,-12.4508"/>
<polygon fill="midnightblue" stroke="midnightblue" points="229.633,-15.9207 239.384,-11.7772 229.177,-8.93553 229.633,-15.9207"/>
</g>
<!-- Node21&#45;&gt;Node15 -->
<g id="edge32" class="edge"><title>Node21&#45;&gt;Node15</title>
<path fill="none" stroke="midnightblue" d="M247.983,-280.407C200.785,-268.588 128.167,-242.277 95,-188 78.3319,-160.723 114.179,-143.821 149.984,-134.114"/>
<polygon fill="midnightblue" stroke="midnightblue" points="151.205,-137.416 160.038,-131.565 149.484,-130.63 151.205,-137.416"/>
</g>
<!-- Node22 -->
<g id="node22" class="node"><title>Node22</title>
<g id="a_node22"><a xlink:href="_dm_2_event_loop_8h.html" target="_top" xlink:title=" ">
<polygon fill="white" stroke="black" points="238.5,-224.5 238.5,-243.5 345.5,-243.5 345.5,-224.5 238.5,-224.5"/>
<text text-anchor="middle" x="292" y="-231.5" font-family="Helvetica,sans-Serif" font-size="10.00">Cpl/Dm/EventLoop.h</text>
</a>
</g>
</g>
<!-- Node21&#45;&gt;Node22 -->
<g id="edge34" class="edge"><title>Node21&#45;&gt;Node22</title>
<path fill="none" stroke="midnightblue" d="M292,-280.083C292,-273.006 292,-262.861 292,-253.986"/>
<polygon fill="midnightblue" stroke="midnightblue" points="295.5,-253.751 292,-243.751 288.5,-253.751 295.5,-253.751"/>
</g>
<!-- Node22&#45;&gt;Node15 -->
<g id="edge58" class="edge"><title>Node22&#45;&gt;Node15</title>
<path fill="none" stroke="midnightblue" d="M285.487,-224.368C271.729,-206.135 239.503,-163.426 221.582,-139.675"/>
<polygon fill="midnightblue" stroke="midnightblue" points="224.3,-137.466 215.483,-131.591 218.712,-141.682 224.3,-137.466"/>
</g>
<!-- Node23 -->
<g id="node23" class="node"><title>Node23</title>
<g id="a_node23"><a xlink:href="_system_2_event_loop_8h.html" target="_top" xlink:title=" ">
<polygon fill="white" stroke="black" points="621.5,-168.5 621.5,-187.5 746.5,-187.5 746.5,-168.5 621.5,-168.5"/>
<text text-anchor="middle" x="684" y="-175.5" font-family="Helvetica,sans-Serif" font-size="10.00">Cpl/System/EventLoop.h</text>
</a>
</g>
</g>
<!-- Node22&#45;&gt;Node23 -->
<g id="edge35" class="edge"><title>Node22&#45;&gt;Node23</title>
<path fill="none" stroke="midnightblue" d="M345.684,-225.605C414.817,-216.081 535.2,-199.498 612.164,-188.896"/>
<polygon fill="midnightblue" stroke="midnightblue" points="612.83,-192.337 622.259,-187.505 611.875,-185.403 612.83,-192.337"/>
</g>
<!-- Node22&#45;&gt;Node31 -->
<g id="edge57" class="edge"><title>Node22&#45;&gt;Node31</title>
<path fill="none" stroke="midnightblue" d="M295.471,-224.387C304.148,-203.538 328.377,-149.321 360,-112 369.798,-100.437 382.911,-89.7122 393.986,-81.6351"/>
<polygon fill="midnightblue" stroke="midnightblue" points="396.167,-84.3796 402.327,-75.7597 392.136,-78.6567 396.167,-84.3796"/>
</g>
<!-- Node32 -->
<g id="node32" class="node"><title>Node32</title>
<g id="a_node32"><a xlink:href="_thread_8h.html" target="_top" xlink:title=" ">
<polygon fill="white" stroke="black" points="1075.5,-168.5 1075.5,-187.5 1184.5,-187.5 1184.5,-168.5 1075.5,-168.5"/>
<text text-anchor="middle" x="1130" y="-175.5" font-family="Helvetica,sans-Serif" font-size="10.00">Cpl/System/Thread.h</text>
</a>
</g>
</g>
<!-- Node22&#45;&gt;Node32 -->
<g id="edge51" class="edge"><title>Node22&#45;&gt;Node32</title>
<path fill="none" stroke="midnightblue" d="M345.695,-229.54C493.362,-220.024 905.173,-193.488 1065.22,-183.174"/>
<polygon fill="midnightblue" stroke="midnightblue" points="1065.64,-186.655 1075.39,-182.519 1065.19,-179.669 1065.64,-186.655"/>
</g>
<!-- Node35 -->
<g id="node35" class="node"><title>Node35</title>
<g id="a_node35"><a xlink:href="_notification_api___8h.html" target="_top" xlink:title=" ">
<polygon fill="white" stroke="black" points="104,-168.5 104,-187.5 232,-187.5 232,-168.5 104,-168.5"/>
<text text-anchor="middle" x="168" y="-175.5" font-family="Helvetica,sans-Serif" font-size="10.00">Cpl/Dm/NotificationApi_.h</text>
</a>
</g>
</g>
<!-- Node22&#45;&gt;Node35 -->
<g id="edge59" class="edge"><title>Node22&#45;&gt;Node35</title>
<path fill="none" stroke="midnightblue" d="M272.352,-224.444C252.035,-215.596 220.097,-201.687 196.902,-191.586"/>
<polygon fill="midnightblue" stroke="midnightblue" points="198.122,-188.3 187.556,-187.516 195.327,-194.718 198.122,-188.3"/>
</g>
<!-- Node24 -->
<g id="node24" class="node"><title>Node24</title>
<g id="a_node24"><a xlink:href="_runnable_8h.html" target="_top" xlink:title=" ">
<polygon fill="white" stroke="black" points="970.5,-112.5 970.5,-131.5 1089.5,-131.5 1089.5,-112.5 970.5,-112.5"/>
<text text-anchor="middle" x="1030" y="-119.5" font-family="Helvetica,sans-Serif" font-size="10.00">Cpl/System/Runnable.h</text>
</a>
</g>
</g>
<!-- Node23&#45;&gt;Node24 -->
<g id="edge36" class="edge"><title>Node23&#45;&gt;Node24</title>
<path fill="none" stroke="midnightblue" d="M738.825,-168.444C800.322,-158.846 899.984,-143.292 965.261,-133.104"/>
<polygon fill="midnightblue" stroke="midnightblue" points="966.091,-136.517 975.432,-131.516 965.012,-129.6 966.091,-136.517"/>
</g>
<!-- Node25 -->
<g id="node25" class="node"><title>Node25</title>
<g id="a_node25"><a xlink:href="_semaphore_8h.html" target="_top" xlink:title=" ">
<polygon fill="white" stroke="black" points="824,-112.5 824,-131.5 952,-131.5 952,-112.5 824,-112.5"/>
<text text-anchor="middle" x="888" y="-119.5" font-family="Helvetica,sans-Serif" font-size="10.00">Cpl/System/Semaphore.h</text>
</a>
</g>
</g>
<!-- Node23&#45;&gt;Node25 -->
<g id="edge37" class="edge"><title>Node23&#45;&gt;Node25</title>
<path fill="none" stroke="midnightblue" d="M716.324,-168.444C751.389,-159.162 807.498,-144.309 845.965,-134.127"/>
<polygon fill="midnightblue" stroke="midnightblue" points="847.055,-137.459 855.827,-131.516 845.264,-130.692 847.055,-137.459"/>
</g>
<!-- Node26 -->
<g id="node26" class="node"><title>Node26</title>
<g id="a_node26"><a xlink:href="_signable_8h.html" target="_top" xlink:title=" ">
<polygon fill="white" stroke="black" points="830,-56.5 830,-75.5 946,-75.5 946,-56.5 830,-56.5"/>
<text text-anchor="middle" x="888" y="-63.5" font-family="Helvetica,sans-Serif" font-size="10.00">Cpl/System/Signable.h</text>
</a>
</g>
</g>
<!-- Node23&#45;&gt;Node26 -->
<g id="edge41" class="edge"><title>Node23&#45;&gt;Node26</title>
<path fill="none" stroke="midnightblue" d="M702.744,-168.462C721.683,-159.712 751.681,-145.512 777,-132 808.203,-115.348 843.281,-94.4224 865.498,-80.8838"/>
<polygon fill="midnightblue" stroke="midnightblue" points="867.481,-83.7736 874.183,-75.5679 863.827,-77.8032 867.481,-83.7736"/>
</g>
<!-- Node27 -->
<g id="node27" class="node"><title>Node27</title>
<g id="a_node27"><a xlink:href="_event_flag_8h.html" target="_top" xlink:title=" ">
<polygon fill="white" stroke="black" points="625.5,-56.5 625.5,-75.5 748.5,-75.5 748.5,-56.5 625.5,-56.5"/>
<text text-anchor="middle" x="687" y="-63.5" font-family="Helvetica,sans-Serif" font-size="10.00">Cpl/System/EventFlag.h</text>
</a>
</g>
</g>
<!-- Node23&#45;&gt;Node27 -->
<g id="edge42" class="edge"><title>Node23&#45;&gt;Node27</title>
<path fill="none" stroke="midnightblue" d="M649.885,-168.413C616.711,-158.272 573.67,-139.264 591,-112 601.165,-96.0096 618.676,-85.6029 635.983,-78.8748"/>
<polygon fill="midnightblue" stroke="midnightblue" points="637.266,-82.1339 645.529,-75.5034 634.935,-75.5334 637.266,-82.1339"/>
</g>
<!-- Node28 -->
<g id="node28" class="node"><title>Node28</title>
<g id="a_node28"><a xlink:href="_shared_event_handler_8h.html" target="_top" xlink:title=" ">
<polygon fill="white" stroke="black" points="600,-112.5 600,-131.5 768,-131.5 768,-112.5 600,-112.5"/>
<text text-anchor="middle" x="684" y="-119.5" font-family="Helvetica,sans-Serif" font-size="10.00">Cpl/System/SharedEventHandler.h</text>
</a>
</g>
</g>
<!-- Node23&#45;&gt;Node28 -->
<g id="edge45" class="edge"><title>Node23&#45;&gt;Node28</title>
<path fill="none" stroke="midnightblue" d="M684,-168.083C684,-161.006 684,-150.861 684,-141.986"/>
<polygon fill="midnightblue" stroke="midnightblue" points="687.5,-141.751 684,-131.751 680.5,-141.751 687.5,-141.751"/>
</g>
<!-- Node29 -->
<g id="node29" class="node"><title>Node29</title>
<g id="a_node29"><a xlink:href="_timer_manager_8h.html" target="_top" xlink:title=" ">
<polygon fill="white" stroke="black" points="402.5,-112.5 402.5,-131.5 543.5,-131.5 543.5,-112.5 402.5,-112.5"/>
<text text-anchor="middle" x="473" y="-119.5" font-family="Helvetica,sans-Serif" font-size="10.00">Cpl/System/TimerManager.h</text>
</a>
</g>
</g>
<!-- Node23&#45;&gt;Node29 -->
<g id="edge47" class="edge"><title>Node23&#45;&gt;Node29</title>
<path fill="none" stroke="midnightblue" d="M650.566,-168.444C614.144,-159.122 555.77,-144.183 515.971,-133.997"/>
<polygon fill="midnightblue" stroke="midnightblue" points="516.833,-130.605 506.277,-131.516 515.097,-137.387 516.833,-130.605"/>
</g>
<!-- Node25&#45;&gt;Node7 -->
<g id="edge38" class="edge"><title>Node25&#45;&gt;Node7</title>
<path fill="none" stroke="midnightblue" d="M952.076,-112.94C955.092,-112.611 958.078,-112.296 961,-112 1152.81,-92.5869 1381.78,-76.6505 1480.16,-70.1491"/>
<polygon fill="midnightblue" stroke="midnightblue" points="1480.63,-73.6254 1490.38,-69.4763 1480.17,-66.6406 1480.63,-73.6254"/>
</g>
<!-- Node25&#45;&gt;Node26 -->
<g id="edge39" class="edge"><title>Node25&#45;&gt;Node26</title>
<path fill="none" stroke="midnightblue" d="M888,-112.083C888,-105.006 888,-94.8611 888,-85.9865"/>
<polygon fill="midnightblue" stroke="midnightblue" points="891.5,-85.751 888,-75.7511 884.5,-85.7511 891.5,-85.751"/>
</g>
<!-- Node26&#45;&gt;Node5 -->
<g id="edge40" class="edge"><title>Node26&#45;&gt;Node5</title>
<path fill="none" stroke="midnightblue" d="M888,-56.083C888,-49.0059 888,-38.8611 888,-29.9865"/>
<polygon fill="midnightblue" stroke="midnightblue" points="891.5,-29.751 888,-19.7511 884.5,-29.7511 891.5,-29.751"/>
</g>
<!-- Node27&#45;&gt;Node4 -->
<g id="edge43" class="edge"><title>Node27&#45;&gt;Node4</title>
<path fill="none" stroke="midnightblue" d="M748.69,-60.5584C771.414,-59.0009 797.37,-57.3141 821,-56 1012.38,-45.3572 1607.96,-20.6261 1789.16,-13.1675"/>
<polygon fill="midnightblue" stroke="midnightblue" points="1789.39,-16.6611 1799.24,-12.7529 1789.11,-9.66697 1789.39,-16.6611"/>
</g>
<!-- Node27&#45;&gt;Node11 -->
<g id="edge44" class="edge"><title>Node27&#45;&gt;Node11</title>
<path fill="none" stroke="midnightblue" d="M625.492,-57.1479C535.479,-45.657 370.789,-24.6327 299.003,-15.4685"/>
<polygon fill="midnightblue" stroke="midnightblue" points="299.068,-11.9484 288.705,-14.1538 298.181,-18.8921 299.068,-11.9484"/>
</g>
<!-- Node28&#45;&gt;Node27 -->
<g id="edge46" class="edge"><title>Node28&#45;&gt;Node27</title>
<path fill="none" stroke="midnightblue" d="M684.495,-112.083C684.889,-105.006 685.452,-94.8611 685.945,-85.9865"/>
<polygon fill="midnightblue" stroke="midnightblue" points="689.454,-85.9299 686.514,-75.7511 682.464,-85.5415 689.454,-85.9299"/>
</g>
<!-- Node30 -->
<g id="node30" class="node"><title>Node30</title>
<g id="a_node30"><a xlink:href="_counter___8h.html" target="_top" xlink:title=" ">
<polygon fill="white" stroke="black" points="489,-56.5 489,-75.5 607,-75.5 607,-56.5 489,-56.5"/>
<text text-anchor="middle" x="548" y="-63.5" font-family="Helvetica,sans-Serif" font-size="10.00">Cpl/System/Counter_.h</text>
</a>
</g>
</g>
<!-- Node29&#45;&gt;Node30 -->
<g id="edge48" class="edge"><title>Node29&#45;&gt;Node30</title>
<path fill="none" stroke="midnightblue" d="M485.05,-112.324C496.463,-104.107 513.831,-91.6017 527.435,-81.8069"/>
<polygon fill="midnightblue" stroke="midnightblue" points="529.66,-84.5174 535.731,-75.8339 525.57,-78.8366 529.66,-84.5174"/>
</g>
<!-- Node29&#45;&gt;Node31 -->
<g id="edge50" class="edge"><title>Node29&#45;&gt;Node31</title>
<path fill="none" stroke="midnightblue" d="M463.842,-112.324C455.499,-104.42 442.968,-92.5482 432.823,-82.9377"/>
<polygon fill="midnightblue" stroke="midnightblue" points="434.991,-80.1705 425.325,-75.8339 430.177,-85.2522 434.991,-80.1705"/>
</g>
<!-- Node30&#45;&gt;Node5 -->
<g id="edge49" class="edge"><title>Node30&#45;&gt;Node5</title>
<path fill="none" stroke="midnightblue" d="M601.874,-56.4435C662.483,-46.8174 760.815,-31.2 824.949,-21.014"/>
<polygon fill="midnightblue" stroke="midnightblue" points="825.611,-24.4529 834.938,-19.4275 824.512,-17.5395 825.611,-24.4529"/>
</g>
<!-- Node32&#45;&gt;Node7 -->
<g id="edge52" class="edge"><title>Node32&#45;&gt;Node7</title>
<path fill="none" stroke="midnightblue" d="M1159.56,-168.471C1186.85,-160.254 1228.28,-146.9 1263,-132 1280.54,-124.474 1283.01,-118.359 1301,-112 1360.77,-90.8793 1433.06,-78.7334 1479.98,-72.5016"/>
<polygon fill="midnightblue" stroke="midnightblue" points="1480.7,-75.9372 1490.18,-71.1878 1479.81,-68.9946 1480.7,-75.9372"/>
</g>
<!-- Node32&#45;&gt;Node24 -->
<g id="edge53" class="edge"><title>Node32&#45;&gt;Node24</title>
<path fill="none" stroke="midnightblue" d="M1113.93,-168.324C1098.04,-159.743 1073.49,-146.486 1055.04,-136.522"/>
<polygon fill="midnightblue" stroke="midnightblue" points="1056.49,-133.326 1046.03,-131.655 1053.16,-139.486 1056.49,-133.326"/>
</g>
<!-- Node32&#45;&gt;Node26 -->
<g id="edge54" class="edge"><title>Node32&#45;&gt;Node26</title>
<path fill="none" stroke="midnightblue" d="M1128.27,-168.305C1124.98,-154.18 1116.45,-126.385 1098,-112 1076.11,-94.9315 1008.64,-82.4945 956.013,-75.0757"/>
<polygon fill="midnightblue" stroke="midnightblue" points="956.424,-71.5993 946.04,-73.7039 955.47,-78.534 956.424,-71.5993"/>
</g>
<!-- Node33 -->
<g id="node33" class="node"><title>Node33</title>
<g id="a_node33"><a xlink:href="_traverser_8h.html" target="_top" xlink:title=" ">
<polygon fill="white" stroke="black" points="1146,-112.5 1146,-131.5 1254,-131.5 1254,-112.5 1146,-112.5"/>
<text text-anchor="middle" x="1200" y="-119.5" font-family="Helvetica,sans-Serif" font-size="10.00">Cpl/Type/Traverser.h</text>
</a>
</g>
</g>
<!-- Node32&#45;&gt;Node33 -->
<g id="edge55" class="edge"><title>Node32&#45;&gt;Node33</title>
<path fill="none" stroke="midnightblue" d="M1141.25,-168.324C1151.8,-160.185 1167.8,-147.839 1180.44,-138.087"/>
<polygon fill="midnightblue" stroke="midnightblue" points="1182.77,-140.713 1188.55,-131.834 1178.49,-135.171 1182.77,-140.713"/>
</g>
<!-- Node32&#45;&gt;Node34 -->
<g id="edge56" class="edge"><title>Node32&#45;&gt;Node34</title>
<path fill="none" stroke="midnightblue" d="M1162.32,-168.444C1199.81,-158.522 1261.34,-142.234 1299.66,-132.09"/>
<polygon fill="midnightblue" stroke="midnightblue" points="1301.04,-135.345 1309.81,-129.403 1299.25,-128.578 1301.04,-135.345"/>
</g>
<!-- Node35&#45;&gt;Node15 -->
<g id="edge60" class="edge"><title>Node35&#45;&gt;Node15</title>
<path fill="none" stroke="midnightblue" d="M174.77,-168.083C180.562,-160.455 189.058,-149.264 196.138,-139.941"/>
<polygon fill="midnightblue" stroke="midnightblue" points="199.096,-141.832 202.356,-131.751 193.521,-137.599 199.096,-141.832"/>
</g>
<!-- Node36&#45;&gt;Node6 -->
<g id="edge70" class="edge"><title>Node36&#45;&gt;Node6</title>
<path fill="none" stroke="midnightblue" d="M1770.73,-336.075C1769.94,-309.945 1767.63,-233.211 1766.56,-197.577"/>
<polygon fill="midnightblue" stroke="midnightblue" points="1770.06,-197.458 1766.26,-187.568 1763.06,-197.669 1770.06,-197.458"/>
</g>
<!-- Node37 -->
<g id="node37" class="node"><title>Node37</title>
<g id="a_node37"><a xlink:href="_f_string___8h.html" target="_top" xlink:title=" ">
<polygon fill="white" stroke="black" points="1799.5,-280.5 1799.5,-299.5 1900.5,-299.5 1900.5,-280.5 1799.5,-280.5"/>
<text text-anchor="middle" x="1850" y="-287.5" font-family="Helvetica,sans-Serif" font-size="10.00">Cpl/Text/FString_.h</text>
</a>
</g>
</g>
<!-- Node36&#45;&gt;Node37 -->
<g id="edge66" class="edge"><title>Node36&#45;&gt;Node37</title>
<path fill="none" stroke="midnightblue" d="M1783.69,-336.324C1795.9,-327.979 1814.58,-315.212 1829,-305.352"/>
<polygon fill="midnightblue" stroke="midnightblue" points="1831.06,-308.187 1837.34,-299.655 1827.11,-302.408 1831.06,-308.187"/>
</g>
<!-- Node37&#45;&gt;Node4 -->
<g id="edge67" class="edge"><title>Node37&#45;&gt;Node4</title>
<path fill="none" stroke="midnightblue" d="M1878.1,-280.494C1897.05,-273.459 1921.35,-261.715 1937,-244 1957.39,-220.921 1961,-209.795 1961,-179 1961,-179 1961,-179 1961,-121 1961,-90.2048 1957.79,-78.7192 1937,-56 1923.01,-40.707 1902.73,-30.1259 1884.5,-23.0861"/>
<polygon fill="midnightblue" stroke="midnightblue" points="1885.51,-19.7302 1874.91,-19.6268 1883.13,-26.3144 1885.51,-19.7302"/>
</g>
<!-- Node38 -->
<g id="node38" class="node"><title>Node38</title>
<g id="a_node38"><a xlink:href="_string___8h.html" target="_top" xlink:title=" ">
<polygon fill="white" stroke="black" points="1799.5,-224.5 1799.5,-243.5 1894.5,-243.5 1894.5,-224.5 1799.5,-224.5"/>
<text text-anchor="middle" x="1847" y="-231.5" font-family="Helvetica,sans-Serif" font-size="10.00">Cpl/Text/String_.h</text>
</a>
</g>
</g>
<!-- Node37&#45;&gt;Node38 -->
<g id="edge68" class="edge"><title>Node37&#45;&gt;Node38</title>
<path fill="none" stroke="midnightblue" d="M1849.5,-280.083C1849.11,-273.006 1848.55,-262.861 1848.05,-253.986"/>
<polygon fill="midnightblue" stroke="midnightblue" points="1851.54,-253.542 1847.49,-243.751 1844.55,-253.93 1851.54,-253.542"/>
</g>
<!-- Node38&#45;&gt;Node6 -->
<g id="edge69" class="edge"><title>Node38&#45;&gt;Node6</title>
<path fill="none" stroke="midnightblue" d="M1833.99,-224.324C1821.47,-215.979 1802.32,-203.212 1787.53,-193.352"/>
<polygon fill="midnightblue" stroke="midnightblue" points="1789.24,-190.289 1778.98,-187.655 1785.36,-196.114 1789.24,-190.289"/>
</g>
</g>
</svg>
