<?xml version="1.0" encoding="UTF-8" standalone="no"?>
<!DOCTYPE svg PUBLIC "-//W3C//DTD SVG 1.1//EN"
 "http://www.w3.org/Graphics/SVG/1.1/DTD/svg11.dtd">
<!-- Generated by graphviz version 2.38.0 (20140413.2041)
 -->
<!-- Title: Storm/Dm/MpComfortConfig.h Pages: 1 -->
<svg width="2002pt" height="420pt"
 viewBox="0.00 0.00 2001.73 420.00" xmlns="http://www.w3.org/2000/svg" xmlns:xlink="http://www.w3.org/1999/xlink">
<g id="graph0" class="graph" transform="scale(1 1) rotate(0) translate(4 416)">
<title>Storm/Dm/MpComfortConfig.h</title>
<polygon fill="white" stroke="none" points="-4,4 -4,-416 1997.73,-416 1997.73,4 -4,4"/>
<!-- Node1 -->
<g id="node1" class="node"><title>Node1</title>
<g id="a_node1"><a xlink:title=" ">
<polygon fill="#bfbfbf" stroke="black" points="1718.73,-392.5 1718.73,-411.5 1866.73,-411.5 1866.73,-392.5 1718.73,-392.5"/>
<text text-anchor="middle" x="1792.73" y="-399.5" font-family="Helvetica,sans-Serif" font-size="10.00">Storm/Dm/MpComfortConfig.h</text>
</a>
</g>
</g>
<!-- Node2 -->
<g id="node2" class="node"><title>Node2</title>
<g id="a_node2"><a xlink:href="_model_point_common___8h.html" target="_top" xlink:title=" ">
<polygon fill="white" stroke="black" points="1634.23,-336.5 1634.23,-355.5 1787.23,-355.5 1787.23,-336.5 1634.23,-336.5"/>
<text text-anchor="middle" x="1710.73" y="-343.5" font-family="Helvetica,sans-Serif" font-size="10.00">Cpl/Dm/ModelPointCommon_.h</text>
</a>
</g>
</g>
<!-- Node1&#45;&gt;Node2 -->
<g id="edge1" class="edge"><title>Node1&#45;&gt;Node2</title>
<path fill="none" stroke="midnightblue" d="M1779.55,-392.324C1766.88,-383.979 1747.49,-371.212 1732.52,-361.352"/>
<polygon fill="midnightblue" stroke="midnightblue" points="1734.15,-358.231 1723.87,-355.655 1730.3,-364.078 1734.15,-358.231"/>
</g>
<!-- Node35 -->
<g id="node35" class="node"><title>Node35</title>
<g id="a_node35"><a xlink:href="_comfort_config_8h.html" target="_top" xlink:title=" ">
<polygon fill="white" stroke="black" points="1805.23,-336.5 1805.23,-355.5 1946.23,-355.5 1946.23,-336.5 1805.23,-336.5"/>
<text text-anchor="middle" x="1875.73" y="-343.5" font-family="Helvetica,sans-Serif" font-size="10.00">Storm/Type/ComfortConfig.h</text>
</a>
</g>
</g>
<!-- Node1&#45;&gt;Node35 -->
<g id="edge65" class="edge"><title>Node1&#45;&gt;Node35</title>
<path fill="none" stroke="midnightblue" d="M1806.06,-392.324C1818.89,-383.979 1838.51,-371.212 1853.67,-361.352"/>
<polygon fill="midnightblue" stroke="midnightblue" points="1855.95,-364.042 1862.43,-355.655 1852.13,-358.174 1855.95,-364.042"/>
</g>
<!-- Node3 -->
<g id="node3" class="node"><title>Node3</title>
<g id="a_node3"><a xlink:href="_model_point_8h.html" target="_top" xlink:title=" ">
<polygon fill="white" stroke="black" points="474.227,-224.5 474.227,-243.5 583.227,-243.5 583.227,-224.5 474.227,-224.5"/>
<text text-anchor="middle" x="528.727" y="-231.5" font-family="Helvetica,sans-Serif" font-size="10.00">Cpl/Dm/ModelPoint.h</text>
</a>
</g>
</g>
<!-- Node2&#45;&gt;Node3 -->
<g id="edge2" class="edge"><title>Node2&#45;&gt;Node3</title>
<path fill="none" stroke="midnightblue" d="M1634.08,-337.867C1416.23,-317.594 796.11,-259.883 593.583,-241.036"/>
<polygon fill="midnightblue" stroke="midnightblue" points="593.683,-237.53 583.402,-240.088 593.034,-244.5 593.683,-237.53"/>
</g>
<!-- Node11 -->
<g id="node11" class="node"><title>Node11</title>
<g id="a_node11"><a xlink:title=" ">
<polygon fill="white" stroke="#bfbfbf" points="1565.23,-0.5 1565.23,-19.5 1614.23,-19.5 1614.23,-0.5 1565.23,-0.5"/>
<text text-anchor="middle" x="1589.73" y="-7.5" font-family="Helvetica,sans-Serif" font-size="10.00">stdint.h</text>
</a>
</g>
</g>
<!-- Node2&#45;&gt;Node11 -->
<g id="edge63" class="edge"><title>Node2&#45;&gt;Node11</title>
<path fill="none" stroke="midnightblue" d="M1733.49,-336.43C1768.54,-321.579 1831.73,-287.522 1831.73,-235 1831.73,-235 1831.73,-235 1831.73,-121 1831.73,-30.9767 1691.22,-14.2777 1624.33,-11.4285"/>
<polygon fill="midnightblue" stroke="midnightblue" points="1624.38,-7.92809 1614.26,-11.0811 1624.14,-14.9239 1624.38,-7.92809"/>
</g>
<!-- Node16 -->
<g id="node16" class="node"><title>Node16</title>
<g id="a_node16"><a xlink:href="_model_database_8h.html" target="_top" xlink:title=" ">
<polygon fill="white" stroke="black" points="152.727,-280.5 152.727,-299.5 280.727,-299.5 280.727,-280.5 152.727,-280.5"/>
<text text-anchor="middle" x="216.727" y="-287.5" font-family="Helvetica,sans-Serif" font-size="10.00">Cpl/Dm/ModelDatabase.h</text>
</a>
</g>
</g>
<!-- Node2&#45;&gt;Node16 -->
<g id="edge22" class="edge"><title>Node2&#45;&gt;Node16</title>
<path fill="none" stroke="midnightblue" d="M1634.07,-342.229C1376.7,-332.927 545.478,-302.883 291.277,-293.695"/>
<polygon fill="midnightblue" stroke="midnightblue" points="291.162,-290.188 281.042,-293.325 290.909,-297.184 291.162,-290.188"/>
</g>
<!-- Node20 -->
<g id="node20" class="node"><title>Node20</title>
<g id="a_node20"><a xlink:href="_subscriber_8h.html" target="_top" xlink:title=" ">
<polygon fill="white" stroke="black" points="1582.23,-280.5 1582.23,-299.5 1689.23,-299.5 1689.23,-280.5 1582.23,-280.5"/>
<text text-anchor="middle" x="1635.73" y="-287.5" font-family="Helvetica,sans-Serif" font-size="10.00">Cpl/Dm/Subscriber.h</text>
</a>
</g>
</g>
<!-- Node2&#45;&gt;Node20 -->
<g id="edge31" class="edge"><title>Node2&#45;&gt;Node20</title>
<path fill="none" stroke="midnightblue" d="M1698.68,-336.324C1687.26,-328.107 1669.9,-315.602 1656.29,-305.807"/>
<polygon fill="midnightblue" stroke="midnightblue" points="1658.16,-302.837 1648,-299.834 1654.07,-308.517 1658.16,-302.837"/>
</g>
<!-- Node30 -->
<g id="node30" class="node"><title>Node30</title>
<g id="a_node30"><a xlink:href="_d_list_8h.html" target="_top" xlink:title=" ">
<polygon fill="white" stroke="black" points="1618.23,-56.5 1618.23,-75.5 1727.23,-75.5 1727.23,-56.5 1618.23,-56.5"/>
<text text-anchor="middle" x="1672.73" y="-63.5" font-family="Helvetica,sans-Serif" font-size="10.00">Cpl/Container/DList.h</text>
</a>
</g>
</g>
<!-- Node2&#45;&gt;Node30 -->
<g id="edge62" class="edge"><title>Node2&#45;&gt;Node30</title>
<path fill="none" stroke="midnightblue" d="M1723.7,-336.425C1747.04,-319.842 1793.73,-280.934 1793.73,-235 1793.73,-235 1793.73,-235 1793.73,-177 1793.73,-128.992 1740.93,-96.4113 1705.09,-79.8242"/>
<polygon fill="midnightblue" stroke="midnightblue" points="1706.05,-76.4208 1695.49,-75.5703 1703.21,-82.8209 1706.05,-76.4208"/>
</g>
<!-- Node33 -->
<g id="node33" class="node"><title>Node33</title>
<g id="a_node33"><a xlink:title=" ">
<polygon fill="white" stroke="#bfbfbf" points="1501.73,-112.5 1501.73,-131.5 1549.73,-131.5 1549.73,-112.5 1501.73,-112.5"/>
<text text-anchor="middle" x="1525.73" y="-119.5" font-family="Helvetica,sans-Serif" font-size="10.00">stdlib.h</text>
</a>
</g>
</g>
<!-- Node2&#45;&gt;Node33 -->
<g id="edge64" class="edge"><title>Node2&#45;&gt;Node33</title>
<path fill="none" stroke="midnightblue" d="M1710.07,-336.273C1708.87,-323.493 1705.67,-299.13 1697.73,-280 1674.74,-224.676 1668.25,-206.939 1622.73,-168 1604.38,-152.31 1579.65,-140.949 1559.75,-133.568"/>
<polygon fill="midnightblue" stroke="midnightblue" points="1560.72,-130.2 1550.13,-130.165 1558.39,-136.8 1560.72,-130.2"/>
</g>
<!-- Node4 -->
<g id="node4" class="node"><title>Node4</title>
<g id="a_node4"><a xlink:title=" ">
<polygon fill="white" stroke="#bfbfbf" points="166.227,-0.5 166.227,-19.5 251.227,-19.5 251.227,-0.5 166.227,-0.5"/>
<text text-anchor="middle" x="208.727" y="-7.5" font-family="Helvetica,sans-Serif" font-size="10.00">colony_config.h</text>
</a>
</g>
</g>
<!-- Node3&#45;&gt;Node4 -->
<g id="edge3" class="edge"><title>Node3&#45;&gt;Node4</title>
<path fill="none" stroke="midnightblue" d="M522.148,-224.143C495.809,-188.708 399.18,-58.9178 394.727,-56 354.721,-29.7843 300.886,-18.8227 261.429,-14.2494"/>
<polygon fill="midnightblue" stroke="midnightblue" points="261.784,-10.7674 251.471,-13.1944 261.047,-17.7285 261.784,-10.7674"/>
</g>
<!-- Node5 -->
<g id="node5" class="node"><title>Node5</title>
<g id="a_node5"><a xlink:href="_item_8h.html" target="_top" xlink:title=" ">
<polygon fill="white" stroke="black" points="697.727,-0.5 697.727,-19.5 803.727,-19.5 803.727,-0.5 697.727,-0.5"/>
<text text-anchor="middle" x="750.727" y="-7.5" font-family="Helvetica,sans-Serif" font-size="10.00">Cpl/Container/Item.h</text>
</a>
</g>
</g>
<!-- Node3&#45;&gt;Node5 -->
<g id="edge4" class="edge"><title>Node3&#45;&gt;Node5</title>
<path fill="none" stroke="midnightblue" d="M526.836,-224.224C521.257,-195.751 507.929,-104.96 552.727,-56 570.742,-36.3116 636.707,-24.1713 687.601,-17.5375"/>
<polygon fill="midnightblue" stroke="midnightblue" points="688.076,-21.0055 697.561,-16.2836 687.202,-14.0603 688.076,-21.0055"/>
</g>
<!-- Node6 -->
<g id="node6" class="node"><title>Node6</title>
<g id="a_node6"><a xlink:href="_string_8h.html" target="_top" xlink:title=" ">
<polygon fill="white" stroke="black" points="216.727,-168.5 216.727,-187.5 306.727,-187.5 306.727,-168.5 216.727,-168.5"/>
<text text-anchor="middle" x="261.727" y="-175.5" font-family="Helvetica,sans-Serif" font-size="10.00">Cpl/Text/String.h</text>
</a>
</g>
</g>
<!-- Node3&#45;&gt;Node6 -->
<g id="edge5" class="edge"><title>Node3&#45;&gt;Node6</title>
<path fill="none" stroke="midnightblue" d="M486.42,-224.444C439.648,-214.984 364.267,-199.738 313.878,-189.547"/>
<polygon fill="midnightblue" stroke="midnightblue" points="314.332,-186.068 303.836,-187.516 312.944,-192.929 314.332,-186.068"/>
</g>
<!-- Node10 -->
<g id="node10" class="node"><title>Node10</title>
<g id="a_node10"><a xlink:title=" ">
<polygon fill="white" stroke="#bfbfbf" points="399.727,-0.5 399.727,-19.5 451.727,-19.5 451.727,-0.5 399.727,-0.5"/>
<text text-anchor="middle" x="425.727" y="-7.5" font-family="Helvetica,sans-Serif" font-size="10.00">stddef.h</text>
</a>
</g>
</g>
<!-- Node3&#45;&gt;Node10 -->
<g id="edge20" class="edge"><title>Node3&#45;&gt;Node10</title>
<path fill="none" stroke="midnightblue" d="M524.69,-224.297C509.438,-191.425 455.138,-74.3911 434.121,-29.0904"/>
<polygon fill="midnightblue" stroke="midnightblue" points="437.233,-27.4819 429.849,-19.8837 430.883,-30.428 437.233,-27.4819"/>
</g>
<!-- Node3&#45;&gt;Node11 -->
<g id="edge21" class="edge"><title>Node3&#45;&gt;Node11</title>
<path fill="none" stroke="midnightblue" d="M530.848,-224.357C536.471,-202.97 553.578,-146.791 585.727,-112 619.773,-75.1564 635.577,-70.0748 683.727,-56 851.474,-6.96595 1409.35,-9.13045 1554.8,-10.574"/>
<polygon fill="midnightblue" stroke="midnightblue" points="1554.9,-14.0751 1564.93,-10.6802 1554.97,-7.07548 1554.9,-14.0751"/>
</g>
<!-- Node14 -->
<g id="node14" class="node"><title>Node14</title>
<g id="a_node14"><a xlink:href="_subscriber_api_8h.html" target="_top" xlink:title=" ">
<polygon fill="white" stroke="black" points="1568.23,-112.5 1568.23,-131.5 1689.23,-131.5 1689.23,-112.5 1568.23,-112.5"/>
<text text-anchor="middle" x="1628.73" y="-119.5" font-family="Helvetica,sans-Serif" font-size="10.00">Cpl/Dm/SubscriberApi.h</text>
</a>
</g>
</g>
<!-- Node3&#45;&gt;Node14 -->
<g id="edge16" class="edge"><title>Node3&#45;&gt;Node14</title>
<path fill="none" stroke="midnightblue" d="M583.339,-231.825C748.579,-228.009 1241.55,-214.643 1399.73,-188 1431.21,-182.697 1438.03,-176.767 1468.73,-168 1509.29,-156.418 1555.7,-143.391 1588.05,-134.345"/>
<polygon fill="midnightblue" stroke="midnightblue" points="1589.34,-137.617 1598.03,-131.554 1587.46,-130.875 1589.34,-137.617"/>
</g>
<!-- Node15 -->
<g id="node15" class="node"><title>Node15</title>
<g id="a_node15"><a xlink:href="_arduino_8h_source.html" target="_top" xlink:title=" ">
<polygon fill="white" stroke="black" points="325.227,-168.5 325.227,-187.5 424.227,-187.5 424.227,-168.5 325.227,-168.5"/>
<text text-anchor="middle" x="374.727" y="-175.5" font-family="Helvetica,sans-Serif" font-size="10.00">Cpl/Json/Arduino.h</text>
</a>
</g>
</g>
<!-- Node3&#45;&gt;Node15 -->
<g id="edge19" class="edge"><title>Node3&#45;&gt;Node15</title>
<path fill="none" stroke="midnightblue" d="M504.326,-224.444C478.531,-215.399 437.651,-201.064 408.71,-190.916"/>
<polygon fill="midnightblue" stroke="midnightblue" points="409.61,-187.523 399.015,-187.516 407.293,-194.128 409.61,-187.523"/>
</g>
<!-- Node7 -->
<g id="node7" class="node"><title>Node7</title>
<g id="a_node7"><a xlink:title=" ">
<polygon fill="white" stroke="#bfbfbf" points="309.227,-56.5 309.227,-75.5 386.227,-75.5 386.227,-56.5 309.227,-56.5"/>
<text text-anchor="middle" x="347.727" y="-63.5" font-family="Helvetica,sans-Serif" font-size="10.00">colony_map.h</text>
</a>
</g>
</g>
<!-- Node6&#45;&gt;Node7 -->
<g id="edge6" class="edge"><title>Node6&#45;&gt;Node7</title>
<path fill="none" stroke="midnightblue" d="M229.432,-168.428C195.471,-157.815 149.542,-137.923 169.727,-112 185.509,-91.7324 251.974,-79.1482 299.048,-72.6063"/>
<polygon fill="midnightblue" stroke="midnightblue" points="299.623,-76.0606 309.069,-71.2632 298.693,-69.1226 299.623,-76.0606"/>
</g>
<!-- Node8 -->
<g id="node8" class="node"><title>Node8</title>
<g id="a_node8"><a xlink:href="_key_8h.html" target="_top" xlink:title=" ">
<polygon fill="white" stroke="black" points="320.727,-112.5 320.727,-131.5 424.727,-131.5 424.727,-112.5 320.727,-112.5"/>
<text text-anchor="middle" x="372.727" y="-119.5" font-family="Helvetica,sans-Serif" font-size="10.00">Cpl/Container/Key.h</text>
</a>
</g>
</g>
<!-- Node6&#45;&gt;Node8 -->
<g id="edge7" class="edge"><title>Node6&#45;&gt;Node8</title>
<path fill="none" stroke="midnightblue" d="M274.447,-168.324C290.59,-159.546 318.446,-145.875 340.483,-135.842"/>
<polygon fill="midnightblue" stroke="midnightblue" points="342.133,-138.938 349.827,-131.655 339.27,-132.55 342.133,-138.938"/>
</g>
<!-- Node12 -->
<g id="node12" class="node"><title>Node12</title>
<g id="a_node12"><a xlink:title=" ">
<polygon fill="white" stroke="#bfbfbf" points="178.727,-112.5 178.727,-131.5 230.727,-131.5 230.727,-112.5 178.727,-112.5"/>
<text text-anchor="middle" x="204.727" y="-119.5" font-family="Helvetica,sans-Serif" font-size="10.00">stdarg.h</text>
</a>
</g>
</g>
<!-- Node6&#45;&gt;Node12 -->
<g id="edge14" class="edge"><title>Node6&#45;&gt;Node12</title>
<path fill="none" stroke="midnightblue" d="M252.569,-168.324C244.226,-160.42 231.695,-148.548 221.55,-138.938"/>
<polygon fill="midnightblue" stroke="midnightblue" points="223.719,-136.171 214.052,-131.834 218.904,-141.252 223.719,-136.171"/>
</g>
<!-- Node13 -->
<g id="node13" class="node"><title>Node13</title>
<g id="a_node13"><a xlink:title=" ">
<polygon fill="white" stroke="#bfbfbf" points="248.727,-112.5 248.727,-131.5 302.727,-131.5 302.727,-112.5 248.727,-112.5"/>
<text text-anchor="middle" x="275.727" y="-119.5" font-family="Helvetica,sans-Serif" font-size="10.00">iostream</text>
</a>
</g>
</g>
<!-- Node6&#45;&gt;Node13 -->
<g id="edge15" class="edge"><title>Node6&#45;&gt;Node13</title>
<path fill="none" stroke="midnightblue" d="M264.039,-168.083C265.894,-160.927 268.563,-150.635 270.881,-141.691"/>
<polygon fill="midnightblue" stroke="midnightblue" points="274.337,-142.309 273.459,-131.751 267.561,-140.553 274.337,-142.309"/>
</g>
<!-- Node8&#45;&gt;Node6 -->
<g id="edge12" class="edge"><title>Node8&#45;&gt;Node6</title>
<path fill="none" stroke="midnightblue" d="M360.301,-131.516C344.164,-140.309 316.004,-154.131 293.808,-164.232"/>
<polygon fill="midnightblue" stroke="midnightblue" points="292.1,-161.162 284.404,-168.444 294.961,-167.551 292.1,-161.162"/>
</g>
<!-- Node8&#45;&gt;Node7 -->
<g id="edge13" class="edge"><title>Node8&#45;&gt;Node7</title>
<path fill="none" stroke="midnightblue" d="M368.599,-112.083C365.213,-104.77 360.311,-94.1814 356.109,-85.1034"/>
<polygon fill="midnightblue" stroke="midnightblue" points="359.156,-83.3553 351.779,-75.7511 352.804,-86.2962 359.156,-83.3553"/>
</g>
<!-- Node9 -->
<g id="node9" class="node"><title>Node9</title>
<g id="a_node9"><a xlink:href="_fatal_error_8h.html" target="_top" xlink:title=" ">
<polygon fill="white" stroke="black" points="81.7273,-56.5 81.7273,-75.5 203.727,-75.5 203.727,-56.5 81.7273,-56.5"/>
<text text-anchor="middle" x="142.727" y="-63.5" font-family="Helvetica,sans-Serif" font-size="10.00">Cpl/System/FatalError.h</text>
</a>
</g>
</g>
<!-- Node8&#45;&gt;Node9 -->
<g id="edge8" class="edge"><title>Node8&#45;&gt;Node9</title>
<path fill="none" stroke="midnightblue" d="M336.283,-112.444C296.328,-103.063 232.14,-87.9926 188.743,-77.8036"/>
<polygon fill="midnightblue" stroke="midnightblue" points="189.536,-74.3948 179.001,-75.5164 187.936,-81.2095 189.536,-74.3948"/>
</g>
<!-- Node8&#45;&gt;Node11 -->
<g id="edge11" class="edge"><title>Node8&#45;&gt;Node11</title>
<path fill="none" stroke="midnightblue" d="M390.602,-112.473C422.37,-97.7963 491.121,-68.1648 552.727,-56 751.038,-16.8414 1398.17,-11.7566 1555.18,-11.0978"/>
<polygon fill="midnightblue" stroke="midnightblue" points="1555.23,-14.5977 1565.21,-11.059 1555.2,-7.59778 1555.23,-14.5977"/>
</g>
<!-- Node9&#45;&gt;Node4 -->
<g id="edge10" class="edge"><title>Node9&#45;&gt;Node4</title>
<path fill="none" stroke="midnightblue" d="M153.331,-56.324C163.183,-48.2631 178.078,-36.0765 189.942,-26.3695"/>
<polygon fill="midnightblue" stroke="midnightblue" points="192.407,-28.8752 197.93,-19.8339 187.974,-23.4575 192.407,-28.8752"/>
</g>
<!-- Node9&#45;&gt;Node10 -->
<g id="edge9" class="edge"><title>Node9&#45;&gt;Node10</title>
<path fill="none" stroke="midnightblue" d="M187.569,-56.4435C243.415,-45.7875 337.737,-27.7897 389.33,-17.945"/>
<polygon fill="midnightblue" stroke="midnightblue" points="390.192,-21.3439 399.358,-16.0315 388.88,-14.4679 390.192,-21.3439"/>
</g>
<!-- Node14&#45;&gt;Node5 -->
<g id="edge17" class="edge"><title>Node14&#45;&gt;Node5</title>
<path fill="none" stroke="midnightblue" d="M1568.02,-113.19C1564.88,-112.787 1561.77,-112.389 1558.73,-112 1363.19,-86.9862 1314.34,-80.4084 1118.73,-56 1011.67,-42.6419 887.044,-27.4848 813.75,-18.6111"/>
<polygon fill="midnightblue" stroke="midnightblue" points="814.104,-15.1285 803.756,-17.4016 813.263,-22.0778 814.104,-15.1285"/>
</g>
<!-- Node14&#45;&gt;Node11 -->
<g id="edge18" class="edge"><title>Node14&#45;&gt;Node11</title>
<path fill="none" stroke="midnightblue" d="M1624.39,-112.18C1620.07,-103.211 1613.43,-88.8435 1608.73,-76 1603.04,-60.4766 1597.87,-42.394 1594.36,-29.2481"/>
<polygon fill="midnightblue" stroke="midnightblue" points="1597.74,-28.3275 1591.83,-19.5311 1590.96,-30.0902 1597.74,-28.3275"/>
</g>
<!-- Node16&#45;&gt;Node4 -->
<g id="edge23" class="edge"><title>Node16&#45;&gt;Node4</title>
<path fill="none" stroke="midnightblue" d="M152.723,-281.451C102.795,-274.307 38.8167,-261.98 19.7273,-244 -2.1819,-223.364 0.7273,-209.098 0.7273,-179 0.7273,-179 0.7273,-179 0.7273,-121 0.7273,-50.7673 94.544,-25.256 156.163,-16.0746"/>
<polygon fill="midnightblue" stroke="midnightblue" points="156.711,-19.5323 166.133,-14.6881 155.747,-12.599 156.711,-19.5323"/>
</g>
<!-- Node16&#45;&gt;Node15 -->
<g id="edge30" class="edge"><title>Node16&#45;&gt;Node15</title>
<path fill="none" stroke="midnightblue" d="M270.487,-280.463C295.859,-274.077 325.035,-263.023 345.727,-244 359.066,-231.738 366.638,-212.199 370.674,-197.742"/>
<polygon fill="midnightblue" stroke="midnightblue" points="374.109,-198.428 373.108,-187.881 367.313,-196.751 374.109,-198.428"/>
</g>
<!-- Node17 -->
<g id="node17" class="node"><title>Node17</title>
<g id="a_node17"><a xlink:href="_model_database_api_8h.html" target="_top" xlink:title=" ">
<polygon fill="white" stroke="black" points="194.727,-224.5 194.727,-243.5 336.727,-243.5 336.727,-224.5 194.727,-224.5"/>
<text text-anchor="middle" x="265.727" y="-231.5" font-family="Helvetica,sans-Serif" font-size="10.00">Cpl/Dm/ModelDatabaseApi.h</text>
</a>
</g>
</g>
<!-- Node16&#45;&gt;Node17 -->
<g id="edge24" class="edge"><title>Node16&#45;&gt;Node17</title>
<path fill="none" stroke="midnightblue" d="M224.819,-280.083C231.883,-272.298 242.315,-260.801 250.876,-251.367"/>
<polygon fill="midnightblue" stroke="midnightblue" points="253.659,-253.509 257.787,-243.751 248.475,-248.805 253.659,-253.509"/>
</g>
<!-- Node18 -->
<g id="node18" class="node"><title>Node18</title>
<g id="a_node18"><a xlink:href="_mutex_8h.html" target="_top" xlink:title=" ">
<polygon fill="white" stroke="black" points="92.7273,-168.5 92.7273,-187.5 198.727,-187.5 198.727,-168.5 92.7273,-168.5"/>
<text text-anchor="middle" x="145.727" y="-175.5" font-family="Helvetica,sans-Serif" font-size="10.00">Cpl/System/Mutex.h</text>
</a>
</g>
</g>
<!-- Node16&#45;&gt;Node18 -->
<g id="edge26" class="edge"><title>Node16&#45;&gt;Node18</title>
<path fill="none" stroke="midnightblue" d="M210.651,-280.462C204.302,-271.477 194.117,-256.877 185.727,-244 175.352,-228.076 164.046,-209.59 156.109,-196.413"/>
<polygon fill="midnightblue" stroke="midnightblue" points="158.911,-194.279 150.768,-187.501 152.907,-197.878 158.911,-194.279"/>
</g>
<!-- Node19 -->
<g id="node19" class="node"><title>Node19</title>
<g id="a_node19"><a xlink:href="_s_list_8h.html" target="_top" xlink:title=" ">
<polygon fill="white" stroke="black" points="29.2273,-224.5 29.2273,-243.5 138.227,-243.5 138.227,-224.5 29.2273,-224.5"/>
<text text-anchor="middle" x="83.7273" y="-231.5" font-family="Helvetica,sans-Serif" font-size="10.00">Cpl/Container/SList.h</text>
</a>
</g>
</g>
<!-- Node16&#45;&gt;Node19 -->
<g id="edge28" class="edge"><title>Node16&#45;&gt;Node19</title>
<path fill="none" stroke="midnightblue" d="M195.653,-280.444C173.668,-271.517 138.993,-257.439 114.063,-247.317"/>
<polygon fill="midnightblue" stroke="midnightblue" points="115.285,-244.035 104.703,-243.516 112.652,-250.521 115.285,-244.035"/>
</g>
<!-- Node17&#45;&gt;Node6 -->
<g id="edge25" class="edge"><title>Node17&#45;&gt;Node6</title>
<path fill="none" stroke="midnightblue" d="M265.067,-224.083C264.543,-217.006 263.791,-206.861 263.134,-197.986"/>
<polygon fill="midnightblue" stroke="midnightblue" points="266.605,-197.465 262.376,-187.751 259.624,-197.982 266.605,-197.465"/>
</g>
<!-- Node18&#45;&gt;Node7 -->
<g id="edge27" class="edge"><title>Node18&#45;&gt;Node7</title>
<path fill="none" stroke="midnightblue" d="M145.227,-168.5C144.905,-154.655 146.412,-127.254 161.727,-112 180.846,-92.9569 250.595,-79.9619 299.021,-73.0072"/>
<polygon fill="midnightblue" stroke="midnightblue" points="299.585,-76.4626 309.005,-71.6148 298.618,-69.5297 299.585,-76.4626"/>
</g>
<!-- Node19&#45;&gt;Node5 -->
<g id="edge29" class="edge"><title>Node19&#45;&gt;Node5</title>
<path fill="none" stroke="midnightblue" d="M81.5272,-224.115C78.7866,-211.137 75.4062,-186.53 83.7273,-168 99.0741,-133.825 114.571,-131.221 146.727,-112 208.882,-74.8479 229.143,-72.1667 299.727,-56 435.667,-24.864 599.545,-15.2714 687.521,-12.316"/>
<polygon fill="midnightblue" stroke="midnightblue" points="687.724,-15.8114 697.607,-11.9952 687.501,-8.81491 687.724,-15.8114"/>
</g>
<!-- Node20&#45;&gt;Node3 -->
<g id="edge33" class="edge"><title>Node20&#45;&gt;Node3</title>
<path fill="none" stroke="midnightblue" d="M1581.96,-286.377C1397.89,-277.398 793.404,-247.911 593.531,-238.161"/>
<polygon fill="midnightblue" stroke="midnightblue" points="593.635,-234.662 583.476,-237.671 593.294,-241.654 593.635,-234.662"/>
</g>
<!-- Node20&#45;&gt;Node11 -->
<g id="edge61" class="edge"><title>Node20&#45;&gt;Node11</title>
<path fill="none" stroke="midnightblue" d="M1658.02,-280.496C1692.72,-265.632 1755.73,-231.426 1755.73,-179 1755.73,-179 1755.73,-179 1755.73,-121 1755.73,-90.7745 1757.09,-77.3778 1735.73,-56 1706.12,-26.3765 1657.49,-16.1768 1624.56,-12.7096"/>
<polygon fill="midnightblue" stroke="midnightblue" points="1624.74,-9.2118 1614.47,-11.8044 1624.12,-16.1838 1624.74,-9.2118"/>
</g>
<!-- Node20&#45;&gt;Node14 -->
<g id="edge32" class="edge"><title>Node20&#45;&gt;Node14</title>
<path fill="none" stroke="midnightblue" d="M1635.35,-280.075C1634.25,-253.945 1631.01,-177.211 1629.51,-141.577"/>
<polygon fill="midnightblue" stroke="midnightblue" points="1633.01,-141.412 1629.09,-131.568 1626.01,-141.707 1633.01,-141.412"/>
</g>
<!-- Node21 -->
<g id="node21" class="node"><title>Node21</title>
<g id="a_node21"><a xlink:href="_dm_2_event_loop_8h.html" target="_top" xlink:title=" ">
<polygon fill="white" stroke="black" points="1450.23,-224.5 1450.23,-243.5 1557.23,-243.5 1557.23,-224.5 1450.23,-224.5"/>
<text text-anchor="middle" x="1503.73" y="-231.5" font-family="Helvetica,sans-Serif" font-size="10.00">Cpl/Dm/EventLoop.h</text>
</a>
</g>
</g>
<!-- Node20&#45;&gt;Node21 -->
<g id="edge34" class="edge"><title>Node20&#45;&gt;Node21</title>
<path fill="none" stroke="midnightblue" d="M1614.81,-280.444C1592.99,-271.517 1558.58,-257.439 1533.84,-247.317"/>
<polygon fill="midnightblue" stroke="midnightblue" points="1535.13,-244.063 1524.55,-243.516 1532.48,-250.542 1535.13,-244.063"/>
</g>
<!-- Node21&#45;&gt;Node14 -->
<g id="edge58" class="edge"><title>Node21&#45;&gt;Node14</title>
<path fill="none" stroke="midnightblue" d="M1494.93,-224.313C1482.68,-211.154 1463.42,-185.819 1476.73,-168 1487.87,-153.085 1529.68,-141.367 1566.64,-133.633"/>
<polygon fill="midnightblue" stroke="midnightblue" points="1567.79,-136.969 1576.9,-131.557 1566.41,-130.108 1567.79,-136.969"/>
</g>
<!-- Node22 -->
<g id="node22" class="node"><title>Node22</title>
<g id="a_node22"><a xlink:href="_system_2_event_loop_8h.html" target="_top" xlink:title=" ">
<polygon fill="white" stroke="black" points="912.227,-168.5 912.227,-187.5 1037.23,-187.5 1037.23,-168.5 912.227,-168.5"/>
<text text-anchor="middle" x="974.727" y="-175.5" font-family="Helvetica,sans-Serif" font-size="10.00">Cpl/System/EventLoop.h</text>
</a>
</g>
</g>
<!-- Node21&#45;&gt;Node22 -->
<g id="edge35" class="edge"><title>Node21&#45;&gt;Node22</title>
<path fill="none" stroke="midnightblue" d="M1450.09,-227.525C1354.67,-217.784 1155.34,-197.437 1047.6,-186.438"/>
<polygon fill="midnightblue" stroke="midnightblue" points="1047.77,-182.938 1037.46,-185.404 1047.05,-189.901 1047.77,-182.938"/>
</g>
<!-- Node21&#45;&gt;Node30 -->
<g id="edge57" class="edge"><title>Node21&#45;&gt;Node30</title>
<path fill="none" stroke="midnightblue" d="M1551.39,-224.497C1599.36,-212.988 1670.07,-187.16 1697.73,-132 1705.65,-116.193 1696.36,-97.2324 1686.94,-83.8806"/>
<polygon fill="midnightblue" stroke="midnightblue" points="1689.48,-81.4363 1680.61,-75.6408 1683.93,-85.7023 1689.48,-81.4363"/>
</g>
<!-- Node31 -->
<g id="node31" class="node"><title>Node31</title>
<g id="a_node31"><a xlink:href="_thread_8h.html" target="_top" xlink:title=" ">
<polygon fill="white" stroke="black" points="1282.23,-168.5 1282.23,-187.5 1391.23,-187.5 1391.23,-168.5 1282.23,-168.5"/>
<text text-anchor="middle" x="1336.73" y="-175.5" font-family="Helvetica,sans-Serif" font-size="10.00">Cpl/System/Thread.h</text>
</a>
</g>
</g>
<!-- Node21&#45;&gt;Node31 -->
<g id="edge51" class="edge"><title>Node21&#45;&gt;Node31</title>
<path fill="none" stroke="midnightblue" d="M1477.27,-224.444C1449.05,-215.32 1404.19,-200.813 1372.76,-190.651"/>
<polygon fill="midnightblue" stroke="midnightblue" points="1373.66,-187.263 1363.07,-187.516 1371.5,-193.923 1373.66,-187.263"/>
</g>
<!-- Node34 -->
<g id="node34" class="node"><title>Node34</title>
<g id="a_node34"><a xlink:href="_notification_api___8h.html" target="_top" xlink:title=" ">
<polygon fill="white" stroke="black" points="1485.73,-168.5 1485.73,-187.5 1613.73,-187.5 1613.73,-168.5 1485.73,-168.5"/>
<text text-anchor="middle" x="1549.73" y="-175.5" font-family="Helvetica,sans-Serif" font-size="10.00">Cpl/Dm/NotificationApi_.h</text>
</a>
</g>
</g>
<!-- Node21&#45;&gt;Node34 -->
<g id="edge59" class="edge"><title>Node21&#45;&gt;Node34</title>
<path fill="none" stroke="midnightblue" d="M1511.32,-224.083C1517.95,-216.298 1527.75,-204.801 1535.79,-195.367"/>
<polygon fill="midnightblue" stroke="midnightblue" points="1538.45,-197.633 1542.27,-187.751 1533.12,-193.094 1538.45,-197.633"/>
</g>
<!-- Node23 -->
<g id="node23" class="node"><title>Node23</title>
<g id="a_node23"><a xlink:href="_runnable_8h.html" target="_top" xlink:title=" ">
<polygon fill="white" stroke="black" points="1162.23,-112.5 1162.23,-131.5 1281.23,-131.5 1281.23,-112.5 1162.23,-112.5"/>
<text text-anchor="middle" x="1221.73" y="-119.5" font-family="Helvetica,sans-Serif" font-size="10.00">Cpl/System/Runnable.h</text>
</a>
</g>
</g>
<!-- Node22&#45;&gt;Node23 -->
<g id="edge36" class="edge"><title>Node22&#45;&gt;Node23</title>
<path fill="none" stroke="midnightblue" d="M1013.87,-168.444C1056.95,-159.023 1126.29,-143.866 1172.9,-133.675"/>
<polygon fill="midnightblue" stroke="midnightblue" points="1173.75,-137.072 1182.77,-131.516 1172.26,-130.233 1173.75,-137.072"/>
</g>
<!-- Node24 -->
<g id="node24" class="node"><title>Node24</title>
<g id="a_node24"><a xlink:href="_semaphore_8h.html" target="_top" xlink:title=" ">
<polygon fill="white" stroke="black" points="594.727,-112.5 594.727,-131.5 722.727,-131.5 722.727,-112.5 594.727,-112.5"/>
<text text-anchor="middle" x="658.727" y="-119.5" font-family="Helvetica,sans-Serif" font-size="10.00">Cpl/System/Semaphore.h</text>
</a>
</g>
</g>
<!-- Node22&#45;&gt;Node24 -->
<g id="edge37" class="edge"><title>Node22&#45;&gt;Node24</title>
<path fill="none" stroke="midnightblue" d="M924.656,-168.444C868.722,-158.885 778.219,-143.419 718.59,-133.23"/>
<polygon fill="midnightblue" stroke="midnightblue" points="719.011,-129.751 708.564,-131.516 717.832,-136.651 719.011,-129.751"/>
</g>
<!-- Node25 -->
<g id="node25" class="node"><title>Node25</title>
<g id="a_node25"><a xlink:href="_signable_8h.html" target="_top" xlink:title=" ">
<polygon fill="white" stroke="black" points="692.727,-56.5 692.727,-75.5 808.727,-75.5 808.727,-56.5 692.727,-56.5"/>
<text text-anchor="middle" x="750.727" y="-63.5" font-family="Helvetica,sans-Serif" font-size="10.00">Cpl/System/Signable.h</text>
</a>
</g>
</g>
<!-- Node22&#45;&gt;Node25 -->
<g id="edge41" class="edge"><title>Node22&#45;&gt;Node25</title>
<path fill="none" stroke="midnightblue" d="M912.025,-170.281C859.571,-163.424 790.133,-151.057 769.727,-132 757.117,-120.222 752.721,-100.585 751.265,-85.9711"/>
<polygon fill="midnightblue" stroke="midnightblue" points="754.733,-85.341 750.627,-75.574 747.746,-85.7696 754.733,-85.341"/>
</g>
<!-- Node26 -->
<g id="node26" class="node"><title>Node26</title>
<g id="a_node26"><a xlink:href="_event_flag_8h.html" target="_top" xlink:title=" ">
<polygon fill="white" stroke="black" points="838.227,-56.5 838.227,-75.5 961.227,-75.5 961.227,-56.5 838.227,-56.5"/>
<text text-anchor="middle" x="899.727" y="-63.5" font-family="Helvetica,sans-Serif" font-size="10.00">Cpl/System/EventFlag.h</text>
</a>
</g>
</g>
<!-- Node22&#45;&gt;Node26 -->
<g id="edge42" class="edge"><title>Node22&#45;&gt;Node26</title>
<path fill="none" stroke="midnightblue" d="M973.863,-168.306C972.204,-155.138 967.617,-129.79 955.727,-112 947.47,-99.6447 934.769,-89.0424 923.548,-81.2378"/>
<polygon fill="midnightblue" stroke="midnightblue" points="925.258,-78.1729 914.98,-75.5983 921.409,-84.02 925.258,-78.1729"/>
</g>
<!-- Node27 -->
<g id="node27" class="node"><title>Node27</title>
<g id="a_node27"><a xlink:href="_shared_event_handler_8h.html" target="_top" xlink:title=" ">
<polygon fill="white" stroke="black" points="778.727,-112.5 778.727,-131.5 946.727,-131.5 946.727,-112.5 778.727,-112.5"/>
<text text-anchor="middle" x="862.727" y="-119.5" font-family="Helvetica,sans-Serif" font-size="10.00">Cpl/System/SharedEventHandler.h</text>
</a>
</g>
</g>
<!-- Node22&#45;&gt;Node27 -->
<g id="edge45" class="edge"><title>Node22&#45;&gt;Node27</title>
<path fill="none" stroke="midnightblue" d="M956.733,-168.324C938.69,-159.625 910.68,-146.12 889.925,-136.113"/>
<polygon fill="midnightblue" stroke="midnightblue" points="891.205,-132.845 880.677,-131.655 888.165,-139.15 891.205,-132.845"/>
</g>
<!-- Node28 -->
<g id="node28" class="node"><title>Node28</title>
<g id="a_node28"><a xlink:href="_timer_manager_8h.html" target="_top" xlink:title=" ">
<polygon fill="white" stroke="black" points="1003.23,-112.5 1003.23,-131.5 1144.23,-131.5 1144.23,-112.5 1003.23,-112.5"/>
<text text-anchor="middle" x="1073.73" y="-119.5" font-family="Helvetica,sans-Serif" font-size="10.00">Cpl/System/TimerManager.h</text>
</a>
</g>
</g>
<!-- Node22&#45;&gt;Node28 -->
<g id="edge47" class="edge"><title>Node22&#45;&gt;Node28</title>
<path fill="none" stroke="midnightblue" d="M990.633,-168.324C1006.37,-159.743 1030.67,-146.486 1048.94,-136.522"/>
<polygon fill="midnightblue" stroke="midnightblue" points="1050.76,-139.516 1057.86,-131.655 1047.41,-133.37 1050.76,-139.516"/>
</g>
<!-- Node24&#45;&gt;Node7 -->
<g id="edge38" class="edge"><title>Node24&#45;&gt;Node7</title>
<path fill="none" stroke="midnightblue" d="M609.448,-112.444C551.12,-102.316 454.596,-85.5559 396.492,-75.4673"/>
<polygon fill="midnightblue" stroke="midnightblue" points="396.91,-71.9875 386.459,-73.7251 395.712,-78.8843 396.91,-71.9875"/>
</g>
<!-- Node24&#45;&gt;Node25 -->
<g id="edge39" class="edge"><title>Node24&#45;&gt;Node25</title>
<path fill="none" stroke="midnightblue" d="M673.509,-112.324C687.994,-103.822 710.3,-90.7288 727.22,-80.7975"/>
<polygon fill="midnightblue" stroke="midnightblue" points="729.13,-83.735 735.983,-75.6545 725.587,-77.6981 729.13,-83.735"/>
</g>
<!-- Node25&#45;&gt;Node5 -->
<g id="edge40" class="edge"><title>Node25&#45;&gt;Node5</title>
<path fill="none" stroke="midnightblue" d="M750.727,-56.083C750.727,-49.0059 750.727,-38.8611 750.727,-29.9865"/>
<polygon fill="midnightblue" stroke="midnightblue" points="754.227,-29.751 750.727,-19.7511 747.227,-29.7511 754.227,-29.751"/>
</g>
<!-- Node26&#45;&gt;Node4 -->
<g id="edge43" class="edge"><title>Node26&#45;&gt;Node4</title>
<path fill="none" stroke="midnightblue" d="M837.962,-57.983C831.138,-57.2786 824.288,-56.6022 817.727,-56 612.363,-37.1487 367.47,-20.9639 261.692,-14.2776"/>
<polygon fill="midnightblue" stroke="midnightblue" points="261.795,-10.7772 251.595,-13.6415 261.355,-17.7633 261.795,-10.7772"/>
</g>
<!-- Node26&#45;&gt;Node11 -->
<g id="edge44" class="edge"><title>Node26&#45;&gt;Node11</title>
<path fill="none" stroke="midnightblue" d="M961.346,-58.0828C968.551,-57.3438 975.799,-56.6323 982.727,-56 1200.11,-36.1621 1461.9,-19.0391 1554.89,-13.1663"/>
<polygon fill="midnightblue" stroke="midnightblue" points="1555.37,-16.6433 1565.13,-12.5222 1554.93,-9.6571 1555.37,-16.6433"/>
</g>
<!-- Node27&#45;&gt;Node26 -->
<g id="edge46" class="edge"><title>Node27&#45;&gt;Node26</title>
<path fill="none" stroke="midnightblue" d="M868.837,-112.083C874.01,-104.534 881.573,-93.4948 887.922,-84.2298"/>
<polygon fill="midnightblue" stroke="midnightblue" points="890.966,-85.9787 893.731,-75.7511 885.192,-82.0221 890.966,-85.9787"/>
</g>
<!-- Node29 -->
<g id="node29" class="node"><title>Node29</title>
<g id="a_node29"><a xlink:href="_counter___8h.html" target="_top" xlink:title=" ">
<polygon fill="white" stroke="black" points="991.727,-56.5 991.727,-75.5 1109.73,-75.5 1109.73,-56.5 991.727,-56.5"/>
<text text-anchor="middle" x="1050.73" y="-63.5" font-family="Helvetica,sans-Serif" font-size="10.00">Cpl/System/Counter_.h</text>
</a>
</g>
</g>
<!-- Node28&#45;&gt;Node29 -->
<g id="edge48" class="edge"><title>Node28&#45;&gt;Node29</title>
<path fill="none" stroke="midnightblue" d="M1069.93,-112.083C1066.81,-104.77 1062.3,-94.1814 1058.44,-85.1034"/>
<polygon fill="midnightblue" stroke="midnightblue" points="1061.59,-83.5798 1054.45,-75.7511 1055.15,-86.3229 1061.59,-83.5798"/>
</g>
<!-- Node28&#45;&gt;Node30 -->
<g id="edge50" class="edge"><title>Node28&#45;&gt;Node30</title>
<path fill="none" stroke="midnightblue" d="M1144.35,-112.858C1147.18,-112.562 1149.98,-112.275 1152.73,-112 1316.44,-95.5938 1509.52,-79.8224 1607.94,-72.0388"/>
<polygon fill="midnightblue" stroke="midnightblue" points="1608.34,-75.5187 1618.03,-71.2428 1607.79,-68.5403 1608.34,-75.5187"/>
</g>
<!-- Node29&#45;&gt;Node5 -->
<g id="edge49" class="edge"><title>Node29&#45;&gt;Node5</title>
<path fill="none" stroke="midnightblue" d="M1003.19,-56.4435C950.199,-46.9049 864.524,-31.4834 807.911,-21.293"/>
<polygon fill="midnightblue" stroke="midnightblue" points="808.503,-17.8434 798.041,-19.5164 807.263,-24.7327 808.503,-17.8434"/>
</g>
<!-- Node31&#45;&gt;Node7 -->
<g id="edge52" class="edge"><title>Node31&#45;&gt;Node7</title>
<path fill="none" stroke="midnightblue" d="M1333.41,-168.316C1327.31,-153.677 1312.75,-124.465 1289.73,-112 1250.16,-90.5776 583.848,-72.7624 396.423,-68.1574"/>
<polygon fill="midnightblue" stroke="midnightblue" points="396.397,-64.6558 386.314,-67.9104 396.226,-71.6537 396.397,-64.6558"/>
</g>
<!-- Node31&#45;&gt;Node23 -->
<g id="edge53" class="edge"><title>Node31&#45;&gt;Node23</title>
<path fill="none" stroke="midnightblue" d="M1318.51,-168.444C1299.83,-159.675 1270.57,-145.935 1249.11,-135.858"/>
<polygon fill="midnightblue" stroke="midnightblue" points="1250.4,-132.599 1239.86,-131.516 1247.43,-138.935 1250.4,-132.599"/>
</g>
<!-- Node31&#45;&gt;Node25 -->
<g id="edge54" class="edge"><title>Node31&#45;&gt;Node25</title>
<path fill="none" stroke="midnightblue" d="M1337.94,-168.255C1339.37,-154.058 1339.78,-126.163 1323.73,-112 1282.38,-75.5138 883.63,-81.1616 828.727,-76 825.638,-75.7095 822.481,-75.3995 819.293,-75.0758"/>
<polygon fill="midnightblue" stroke="midnightblue" points="819.361,-71.5639 809.051,-74.0022 818.631,-78.5258 819.361,-71.5639"/>
</g>
<!-- Node32 -->
<g id="node32" class="node"><title>Node32</title>
<g id="a_node32"><a xlink:href="_traverser_8h.html" target="_top" xlink:title=" ">
<polygon fill="white" stroke="black" points="1375.73,-112.5 1375.73,-131.5 1483.73,-131.5 1483.73,-112.5 1375.73,-112.5"/>
<text text-anchor="middle" x="1429.73" y="-119.5" font-family="Helvetica,sans-Serif" font-size="10.00">Cpl/Type/Traverser.h</text>
</a>
</g>
</g>
<!-- Node31&#45;&gt;Node32 -->
<g id="edge55" class="edge"><title>Node31&#45;&gt;Node32</title>
<path fill="none" stroke="midnightblue" d="M1351.67,-168.324C1366.31,-159.822 1388.86,-146.729 1405.96,-136.797"/>
<polygon fill="midnightblue" stroke="midnightblue" points="1407.93,-139.703 1414.82,-131.655 1404.42,-133.649 1407.93,-139.703"/>
</g>
<!-- Node31&#45;&gt;Node33 -->
<g id="edge56" class="edge"><title>Node31&#45;&gt;Node33</title>
<path fill="none" stroke="midnightblue" d="M1366.67,-168.444C1400.69,-158.726 1456.06,-142.904 1491.69,-132.726"/>
<polygon fill="midnightblue" stroke="midnightblue" points="1492.96,-136.001 1501.62,-129.889 1491.04,-129.271 1492.96,-136.001"/>
</g>
<!-- Node34&#45;&gt;Node14 -->
<g id="edge60" class="edge"><title>Node34&#45;&gt;Node14</title>
<path fill="none" stroke="midnightblue" d="M1562.42,-168.324C1574.63,-159.979 1593.31,-147.212 1607.73,-137.352"/>
<polygon fill="midnightblue" stroke="midnightblue" points="1609.79,-140.187 1616.07,-131.655 1605.84,-134.408 1609.79,-140.187"/>
</g>
<!-- Node35&#45;&gt;Node11 -->
<g id="edge68" class="edge"><title>Node35&#45;&gt;Node11</title>
<path fill="none" stroke="midnightblue" d="M1874.94,-336.451C1873.32,-317.962 1869.73,-272.869 1869.73,-235 1869.73,-235 1869.73,-235 1869.73,-121 1869.73,-85.3501 1852.78,-75.1707 1822.73,-56 1790.34,-35.3428 1681.5,-20.9024 1624.78,-14.583"/>
<polygon fill="midnightblue" stroke="midnightblue" points="1624.81,-11.0664 1614.49,-13.4629 1624.06,-18.0253 1624.81,-11.0664"/>
</g>
<!-- Node36 -->
<g id="node36" class="node"><title>Node36</title>
<g id="a_node36"><a xlink:href="_cph_8h.html" target="_top" xlink:title=" ">
<polygon fill="white" stroke="black" points="1897.73,-280.5 1897.73,-299.5 1993.73,-299.5 1993.73,-280.5 1897.73,-280.5"/>
<text text-anchor="middle" x="1945.73" y="-287.5" font-family="Helvetica,sans-Serif" font-size="10.00">Storm/Type/Cph.h</text>
</a>
</g>
</g>
<!-- Node35&#45;&gt;Node36 -->
<g id="edge66" class="edge"><title>Node35&#45;&gt;Node36</title>
<path fill="none" stroke="midnightblue" d="M1886.97,-336.324C1897.52,-328.185 1913.53,-315.839 1926.17,-306.087"/>
<polygon fill="midnightblue" stroke="midnightblue" points="1928.5,-308.713 1934.28,-299.834 1924.22,-303.171 1928.5,-308.713"/>
</g>
<!-- Node37 -->
<g id="node37" class="node"><title>Node37</title>
<g id="a_node37"><a xlink:href="enum_8h_source.html" target="_top" xlink:title=" ">
<polygon fill="white" stroke="black" points="1900.23,-224.5 1900.23,-243.5 1991.23,-243.5 1991.23,-224.5 1900.23,-224.5"/>
<text text-anchor="middle" x="1945.73" y="-231.5" font-family="Helvetica,sans-Serif" font-size="10.00">Cpl/Type/enum.h</text>
</a>
</g>
</g>
<!-- Node36&#45;&gt;Node37 -->
<g id="edge67" class="edge"><title>Node36&#45;&gt;Node37</title>
<path fill="none" stroke="midnightblue" d="M1945.73,-280.083C1945.73,-273.006 1945.73,-262.861 1945.73,-253.986"/>
<polygon fill="midnightblue" stroke="midnightblue" points="1949.23,-253.751 1945.73,-243.751 1942.23,-253.751 1949.23,-253.751"/>
</g>
</g>
</svg>
