<?xml version="1.0" encoding="UTF-8" standalone="no"?>
<!DOCTYPE svg PUBLIC "-//W3C//DTD SVG 1.1//EN"
 "http://www.w3.org/Graphics/SVG/1.1/DTD/svg11.dtd">
<!-- Generated by graphviz version 2.38.0 (20140413.2041)
 -->
<!-- Title: Storm/Dm/MpFanMode.h Pages: 1 -->
<svg width="1810pt" height="476pt"
 viewBox="0.00 0.00 1810.39 476.00" xmlns="http://www.w3.org/2000/svg" xmlns:xlink="http://www.w3.org/1999/xlink">
<g id="graph0" class="graph" transform="scale(1 1) rotate(0) translate(4 472)">
<title>Storm/Dm/MpFanMode.h</title>
<polygon fill="white" stroke="none" points="-4,4 -4,-472 1806.39,-472 1806.39,4 -4,4"/>
<!-- Node1 -->
<g id="node1" class="node"><title>Node1</title>
<g id="a_node1"><a xlink:title=" ">
<polygon fill="#bfbfbf" stroke="black" points="1514.39,-448.5 1514.39,-467.5 1640.39,-467.5 1640.39,-448.5 1514.39,-448.5"/>
<text text-anchor="middle" x="1577.39" y="-455.5" font-family="Helvetica,sans-Serif" font-size="10.00">Storm/Dm/MpFanMode.h</text>
</a>
</g>
</g>
<!-- Node2 -->
<g id="node2" class="node"><title>Node2</title>
<g id="a_node2"><a xlink:href="_fan_mode_8h.html" target="_top" xlink:title=" ">
<polygon fill="white" stroke="black" points="1451.89,-392.5 1451.89,-411.5 1570.89,-411.5 1570.89,-392.5 1451.89,-392.5"/>
<text text-anchor="middle" x="1511.39" y="-399.5" font-family="Helvetica,sans-Serif" font-size="10.00">Storm/Type/FanMode.h</text>
</a>
</g>
</g>
<!-- Node1&#45;&gt;Node2 -->
<g id="edge1" class="edge"><title>Node1&#45;&gt;Node2</title>
<path fill="none" stroke="midnightblue" d="M1566.79,-448.324C1556.94,-440.263 1542.04,-428.077 1530.18,-418.369"/>
<polygon fill="midnightblue" stroke="midnightblue" points="1532.14,-415.457 1522.19,-411.834 1527.71,-420.875 1532.14,-415.457"/>
</g>
<!-- Node4 -->
<g id="node4" class="node"><title>Node4</title>
<g id="a_node4"><a xlink:href="_enum___8h.html" target="_top" xlink:title=" ">
<polygon fill="white" stroke="black" points="1590.89,-392.5 1590.89,-411.5 1697.89,-411.5 1697.89,-392.5 1590.89,-392.5"/>
<text text-anchor="middle" x="1644.39" y="-399.5" font-family="Helvetica,sans-Serif" font-size="10.00">Cpl/Dm/Mp/Enum_.h</text>
</a>
</g>
</g>
<!-- Node1&#45;&gt;Node4 -->
<g id="edge3" class="edge"><title>Node1&#45;&gt;Node4</title>
<path fill="none" stroke="midnightblue" d="M1588.16,-448.324C1598.16,-440.263 1613.28,-428.077 1625.32,-418.369"/>
<polygon fill="midnightblue" stroke="midnightblue" points="1627.84,-420.834 1633.43,-411.834 1623.45,-415.384 1627.84,-420.834"/>
</g>
<!-- Node3 -->
<g id="node3" class="node"><title>Node3</title>
<g id="a_node3"><a xlink:href="enum_8h_source.html" target="_top" xlink:title=" ">
<polygon fill="white" stroke="black" points="1461.89,-336.5 1461.89,-355.5 1552.89,-355.5 1552.89,-336.5 1461.89,-336.5"/>
<text text-anchor="middle" x="1507.39" y="-343.5" font-family="Helvetica,sans-Serif" font-size="10.00">Cpl/Type/enum.h</text>
</a>
</g>
</g>
<!-- Node2&#45;&gt;Node3 -->
<g id="edge2" class="edge"><title>Node2&#45;&gt;Node3</title>
<path fill="none" stroke="midnightblue" d="M1510.73,-392.083C1510.21,-385.006 1509.45,-374.861 1508.8,-365.986"/>
<polygon fill="midnightblue" stroke="midnightblue" points="1512.27,-365.465 1508.04,-355.751 1505.29,-365.982 1512.27,-365.465"/>
</g>
<!-- Node5 -->
<g id="node5" class="node"><title>Node5</title>
<g id="a_node5"><a xlink:href="_model_point_common___8h.html" target="_top" xlink:title=" ">
<polygon fill="white" stroke="black" points="1570.89,-336.5 1570.89,-355.5 1723.89,-355.5 1723.89,-336.5 1570.89,-336.5"/>
<text text-anchor="middle" x="1647.39" y="-343.5" font-family="Helvetica,sans-Serif" font-size="10.00">Cpl/Dm/ModelPointCommon_.h</text>
</a>
</g>
</g>
<!-- Node4&#45;&gt;Node5 -->
<g id="edge4" class="edge"><title>Node4&#45;&gt;Node5</title>
<path fill="none" stroke="midnightblue" d="M1644.89,-392.083C1645.28,-385.006 1645.84,-374.861 1646.34,-365.986"/>
<polygon fill="midnightblue" stroke="midnightblue" points="1649.84,-365.93 1646.91,-355.751 1642.86,-365.542 1649.84,-365.93"/>
</g>
<!-- Node6 -->
<g id="node6" class="node"><title>Node6</title>
<g id="a_node6"><a xlink:href="_model_point_8h.html" target="_top" xlink:title=" ">
<polygon fill="white" stroke="black" points="517.891,-224.5 517.891,-243.5 626.891,-243.5 626.891,-224.5 517.891,-224.5"/>
<text text-anchor="middle" x="572.391" y="-231.5" font-family="Helvetica,sans-Serif" font-size="10.00">Cpl/Dm/ModelPoint.h</text>
</a>
</g>
</g>
<!-- Node5&#45;&gt;Node6 -->
<g id="edge5" class="edge"><title>Node5&#45;&gt;Node6</title>
<path fill="none" stroke="midnightblue" d="M1570.48,-336.843C1567.75,-336.558 1565.05,-336.276 1562.39,-336 1213.48,-299.731 795.266,-257.459 637.167,-241.522"/>
<polygon fill="midnightblue" stroke="midnightblue" points="637.434,-238.031 627.133,-240.511 636.732,-244.996 637.434,-238.031"/>
</g>
<!-- Node14 -->
<g id="node14" class="node"><title>Node14</title>
<g id="a_node14"><a xlink:title=" ">
<polygon fill="white" stroke="#bfbfbf" points="1498.89,-0.5 1498.89,-19.5 1547.89,-19.5 1547.89,-0.5 1498.89,-0.5"/>
<text text-anchor="middle" x="1523.39" y="-7.5" font-family="Helvetica,sans-Serif" font-size="10.00">stdint.h</text>
</a>
</g>
</g>
<!-- Node5&#45;&gt;Node14 -->
<g id="edge66" class="edge"><title>Node5&#45;&gt;Node14</title>
<path fill="none" stroke="midnightblue" d="M1683.73,-336.389C1729.55,-323.118 1802.39,-292.911 1802.39,-235 1802.39,-235 1802.39,-235 1802.39,-121 1802.39,-77.225 1767.45,-75.7631 1728.39,-56 1672.94,-27.9441 1600.39,-17.2979 1558.13,-13.3165"/>
<polygon fill="midnightblue" stroke="midnightblue" points="1558.34,-9.82113 1548.07,-12.4414 1557.73,-16.7948 1558.34,-9.82113"/>
</g>
<!-- Node20 -->
<g id="node20" class="node"><title>Node20</title>
<g id="a_node20"><a xlink:href="_model_database_8h.html" target="_top" xlink:title=" ">
<polygon fill="white" stroke="black" points="265.391,-280.5 265.391,-299.5 393.391,-299.5 393.391,-280.5 265.391,-280.5"/>
<text text-anchor="middle" x="329.391" y="-287.5" font-family="Helvetica,sans-Serif" font-size="10.00">Cpl/Dm/ModelDatabase.h</text>
</a>
</g>
</g>
<!-- Node5&#45;&gt;Node20 -->
<g id="edge25" class="edge"><title>Node5&#45;&gt;Node20</title>
<path fill="none" stroke="midnightblue" d="M1570.5,-336.618C1567.77,-336.397 1565.06,-336.189 1562.39,-336 1123.9,-304.821 596.055,-294.712 403.917,-291.929"/>
<polygon fill="midnightblue" stroke="midnightblue" points="403.704,-288.426 393.655,-291.783 403.605,-295.425 403.704,-288.426"/>
</g>
<!-- Node24 -->
<g id="node24" class="node"><title>Node24</title>
<g id="a_node24"><a xlink:href="_subscriber_8h.html" target="_top" xlink:title=" ">
<polygon fill="white" stroke="black" points="1552.89,-280.5 1552.89,-299.5 1659.89,-299.5 1659.89,-280.5 1552.89,-280.5"/>
<text text-anchor="middle" x="1606.39" y="-287.5" font-family="Helvetica,sans-Serif" font-size="10.00">Cpl/Dm/Subscriber.h</text>
</a>
</g>
</g>
<!-- Node5&#45;&gt;Node24 -->
<g id="edge34" class="edge"><title>Node5&#45;&gt;Node24</title>
<path fill="none" stroke="midnightblue" d="M1640.62,-336.083C1634.83,-328.455 1626.33,-317.264 1619.25,-307.941"/>
<polygon fill="midnightblue" stroke="midnightblue" points="1621.87,-305.599 1613.04,-299.751 1616.3,-309.832 1621.87,-305.599"/>
</g>
<!-- Node34 -->
<g id="node34" class="node"><title>Node34</title>
<g id="a_node34"><a xlink:href="_d_list_8h.html" target="_top" xlink:title=" ">
<polygon fill="white" stroke="black" points="1588.89,-56.5 1588.89,-75.5 1697.89,-75.5 1697.89,-56.5 1588.89,-56.5"/>
<text text-anchor="middle" x="1643.39" y="-63.5" font-family="Helvetica,sans-Serif" font-size="10.00">Cpl/Container/DList.h</text>
</a>
</g>
</g>
<!-- Node5&#45;&gt;Node34 -->
<g id="edge65" class="edge"><title>Node5&#45;&gt;Node34</title>
<path fill="none" stroke="midnightblue" d="M1668.85,-336.456C1702.63,-321.428 1764.39,-286.857 1764.39,-235 1764.39,-235 1764.39,-235 1764.39,-177 1764.39,-128.992 1711.6,-96.4113 1675.75,-79.8242"/>
<polygon fill="midnightblue" stroke="midnightblue" points="1676.71,-76.4208 1666.15,-75.5703 1673.88,-82.8209 1676.71,-76.4208"/>
</g>
<!-- Node37 -->
<g id="node37" class="node"><title>Node37</title>
<g id="a_node37"><a xlink:title=" ">
<polygon fill="white" stroke="#bfbfbf" points="1529.39,-112.5 1529.39,-131.5 1577.39,-131.5 1577.39,-112.5 1529.39,-112.5"/>
<text text-anchor="middle" x="1553.39" y="-119.5" font-family="Helvetica,sans-Serif" font-size="10.00">stdlib.h</text>
</a>
</g>
</g>
<!-- Node5&#45;&gt;Node37 -->
<g id="edge67" class="edge"><title>Node5&#45;&gt;Node37</title>
<path fill="none" stroke="midnightblue" d="M1654.12,-336.184C1662.8,-323.699 1676.02,-300.142 1669.39,-280 1649.79,-220.491 1598,-165.053 1570.74,-138.842"/>
<polygon fill="midnightblue" stroke="midnightblue" points="1572.81,-135.982 1563.13,-131.674 1568.01,-141.078 1572.81,-135.982"/>
</g>
<!-- Node7 -->
<g id="node7" class="node"><title>Node7</title>
<g id="a_node7"><a xlink:title=" ">
<polygon fill="white" stroke="#bfbfbf" points="99.8912,-0.5 99.8912,-19.5 184.891,-19.5 184.891,-0.5 99.8912,-0.5"/>
<text text-anchor="middle" x="142.391" y="-7.5" font-family="Helvetica,sans-Serif" font-size="10.00">colony_config.h</text>
</a>
</g>
</g>
<!-- Node6&#45;&gt;Node7 -->
<g id="edge6" class="edge"><title>Node6&#45;&gt;Node7</title>
<path fill="none" stroke="midnightblue" d="M565.784,-224.46C555.538,-211.494 534.858,-186.407 514.391,-168 450.929,-110.925 436.531,-90.3375 358.391,-56 305.523,-32.7678 240.014,-21.2924 195.088,-15.7836"/>
<polygon fill="midnightblue" stroke="midnightblue" points="195.318,-12.2868 184.979,-14.6022 194.505,-19.2395 195.318,-12.2868"/>
</g>
<!-- Node8 -->
<g id="node8" class="node"><title>Node8</title>
<g id="a_node8"><a xlink:href="_item_8h.html" target="_top" xlink:title=" ">
<polygon fill="white" stroke="black" points="847.391,-0.5 847.391,-19.5 953.391,-19.5 953.391,-0.5 847.391,-0.5"/>
<text text-anchor="middle" x="900.391" y="-7.5" font-family="Helvetica,sans-Serif" font-size="10.00">Cpl/Container/Item.h</text>
</a>
</g>
</g>
<!-- Node6&#45;&gt;Node8 -->
<g id="edge7" class="edge"><title>Node6&#45;&gt;Node8</title>
<path fill="none" stroke="midnightblue" d="M570.525,-224.448C567.42,-211.465 560.323,-186.356 548.391,-168 532.133,-142.989 497.773,-138.541 511.391,-112 530.873,-74.0303 549.81,-71.9555 589.391,-56 670.801,-23.1829 772.725,-13.8412 837.22,-11.4296"/>
<polygon fill="midnightblue" stroke="midnightblue" points="837.362,-14.9269 847.241,-11.0995 837.131,-7.93072 837.362,-14.9269"/>
</g>
<!-- Node9 -->
<g id="node9" class="node"><title>Node9</title>
<g id="a_node9"><a xlink:href="_text_2_string_8h.html" target="_top" xlink:title=" ">
<polygon fill="white" stroke="black" points="166.391,-168.5 166.391,-187.5 256.391,-187.5 256.391,-168.5 166.391,-168.5"/>
<text text-anchor="middle" x="211.391" y="-175.5" font-family="Helvetica,sans-Serif" font-size="10.00">Cpl/Text/String.h</text>
</a>
</g>
</g>
<!-- Node6&#45;&gt;Node9 -->
<g id="edge8" class="edge"><title>Node6&#45;&gt;Node9</title>
<path fill="none" stroke="midnightblue" d="M517.563,-224.799C449.647,-214.639 334.608,-197.431 266.543,-187.25"/>
<polygon fill="midnightblue" stroke="midnightblue" points="266.853,-183.757 256.445,-185.739 265.817,-190.68 266.853,-183.757"/>
</g>
<!-- Node13 -->
<g id="node13" class="node"><title>Node13</title>
<g id="a_node13"><a xlink:title=" ">
<polygon fill="white" stroke="#bfbfbf" points="9.3912,-0.5 9.3912,-19.5 61.3912,-19.5 61.3912,-0.5 9.3912,-0.5"/>
<text text-anchor="middle" x="35.3912" y="-7.5" font-family="Helvetica,sans-Serif" font-size="10.00">stddef.h</text>
</a>
</g>
</g>
<!-- Node6&#45;&gt;Node13 -->
<g id="edge23" class="edge"><title>Node6&#45;&gt;Node13</title>
<path fill="none" stroke="midnightblue" d="M517.556,-228.952C420.932,-221.503 224.241,-204.839 157.391,-188 93.2052,-171.832 56.3629,-186.903 19.3912,-132 -1.83006,-100.487 14.523,-53.7616 26.2275,-28.5911"/>
<polygon fill="midnightblue" stroke="midnightblue" points="29.4205,-30.0294 30.6903,-19.511 23.1382,-26.9418 29.4205,-30.0294"/>
</g>
<!-- Node6&#45;&gt;Node14 -->
<g id="edge24" class="edge"><title>Node6&#45;&gt;Node14</title>
<path fill="none" stroke="midnightblue" d="M627.192,-233.001C819.683,-232.654 1457.67,-228.438 1539.39,-188 1574.99,-170.385 1597.32,-150.181 1586.39,-112 1576.92,-78.9198 1553.12,-46.1459 1537.63,-27.2731"/>
<polygon fill="midnightblue" stroke="midnightblue" points="1540.31,-25.0161 1531.19,-19.6288 1534.96,-29.5294 1540.31,-25.0161"/>
</g>
<!-- Node18 -->
<g id="node18" class="node"><title>Node18</title>
<g id="a_node18"><a xlink:href="_subscriber_api_8h.html" target="_top" xlink:title=" ">
<polygon fill="white" stroke="black" points="1389.89,-112.5 1389.89,-131.5 1510.89,-131.5 1510.89,-112.5 1389.89,-112.5"/>
<text text-anchor="middle" x="1450.39" y="-119.5" font-family="Helvetica,sans-Serif" font-size="10.00">Cpl/Dm/SubscriberApi.h</text>
</a>
</g>
</g>
<!-- Node6&#45;&gt;Node18 -->
<g id="edge19" class="edge"><title>Node6&#45;&gt;Node18</title>
<path fill="none" stroke="midnightblue" d="M627.08,-231.465C769.216,-227.156 1147.72,-213.564 1270.39,-188 1326.19,-176.371 1388.05,-151.135 1422.78,-135.753"/>
<polygon fill="midnightblue" stroke="midnightblue" points="1424.54,-138.796 1432.24,-131.509 1421.68,-132.409 1424.54,-138.796"/>
</g>
<!-- Node19 -->
<g id="node19" class="node"><title>Node19</title>
<g id="a_node19"><a xlink:href="_arduino_8h_source.html" target="_top" xlink:title=" ">
<polygon fill="white" stroke="black" points="406.891,-168.5 406.891,-187.5 505.891,-187.5 505.891,-168.5 406.891,-168.5"/>
<text text-anchor="middle" x="456.391" y="-175.5" font-family="Helvetica,sans-Serif" font-size="10.00">Cpl/Json/Arduino.h</text>
</a>
</g>
</g>
<!-- Node6&#45;&gt;Node19 -->
<g id="edge22" class="edge"><title>Node6&#45;&gt;Node19</title>
<path fill="none" stroke="midnightblue" d="M554.011,-224.444C535.175,-215.675 505.66,-201.935 484.012,-191.858"/>
<polygon fill="midnightblue" stroke="midnightblue" points="485.229,-188.564 474.686,-187.516 482.274,-194.91 485.229,-188.564"/>
</g>
<!-- Node10 -->
<g id="node10" class="node"><title>Node10</title>
<g id="a_node10"><a xlink:title=" ">
<polygon fill="white" stroke="#bfbfbf" points="272.891,-56.5 272.891,-75.5 349.891,-75.5 349.891,-56.5 272.891,-56.5"/>
<text text-anchor="middle" x="311.391" y="-63.5" font-family="Helvetica,sans-Serif" font-size="10.00">colony_map.h</text>
</a>
</g>
</g>
<!-- Node9&#45;&gt;Node10 -->
<g id="edge9" class="edge"><title>Node9&#45;&gt;Node10</title>
<path fill="none" stroke="midnightblue" d="M231.757,-168.414C247.63,-160.838 269.276,-148.44 283.391,-132 294.886,-118.612 302.296,-99.7898 306.586,-85.8432"/>
<polygon fill="midnightblue" stroke="midnightblue" points="310.044,-86.4744 309.377,-75.9006 303.305,-84.5828 310.044,-86.4744"/>
</g>
<!-- Node11 -->
<g id="node11" class="node"><title>Node11</title>
<g id="a_node11"><a xlink:href="_key_8h.html" target="_top" xlink:title=" ">
<polygon fill="white" stroke="black" points="28.3912,-112.5 28.3912,-131.5 132.391,-131.5 132.391,-112.5 28.3912,-112.5"/>
<text text-anchor="middle" x="80.3912" y="-119.5" font-family="Helvetica,sans-Serif" font-size="10.00">Cpl/Container/Key.h</text>
</a>
</g>
</g>
<!-- Node9&#45;&gt;Node11 -->
<g id="edge10" class="edge"><title>Node9&#45;&gt;Node11</title>
<path fill="none" stroke="midnightblue" d="M190.634,-168.444C169.075,-159.557 135.128,-145.563 110.597,-135.451"/>
<polygon fill="midnightblue" stroke="midnightblue" points="111.631,-132.092 101.051,-131.516 108.963,-138.563 111.631,-132.092"/>
</g>
<!-- Node16 -->
<g id="node16" class="node"><title>Node16</title>
<g id="a_node16"><a xlink:title=" ">
<polygon fill="white" stroke="#bfbfbf" points="150.391,-112.5 150.391,-131.5 202.391,-131.5 202.391,-112.5 150.391,-112.5"/>
<text text-anchor="middle" x="176.391" y="-119.5" font-family="Helvetica,sans-Serif" font-size="10.00">stdarg.h</text>
</a>
</g>
</g>
<!-- Node9&#45;&gt;Node16 -->
<g id="edge17" class="edge"><title>Node9&#45;&gt;Node16</title>
<path fill="none" stroke="midnightblue" d="M205.612,-168.083C200.719,-160.534 193.564,-149.495 187.559,-140.23"/>
<polygon fill="midnightblue" stroke="midnightblue" points="190.439,-138.239 182.063,-131.751 184.565,-142.046 190.439,-138.239"/>
</g>
<!-- Node17 -->
<g id="node17" class="node"><title>Node17</title>
<g id="a_node17"><a xlink:title=" ">
<polygon fill="white" stroke="#bfbfbf" points="220.391,-112.5 220.391,-131.5 274.391,-131.5 274.391,-112.5 220.391,-112.5"/>
<text text-anchor="middle" x="247.391" y="-119.5" font-family="Helvetica,sans-Serif" font-size="10.00">iostream</text>
</a>
</g>
</g>
<!-- Node9&#45;&gt;Node17 -->
<g id="edge18" class="edge"><title>Node9&#45;&gt;Node17</title>
<path fill="none" stroke="midnightblue" d="M217.336,-168.083C222.368,-160.534 229.728,-149.495 235.905,-140.23"/>
<polygon fill="midnightblue" stroke="midnightblue" points="238.922,-142.013 241.557,-131.751 233.098,-138.13 238.922,-142.013"/>
</g>
<!-- Node11&#45;&gt;Node10 -->
<g id="edge16" class="edge"><title>Node11&#45;&gt;Node10</title>
<path fill="none" stroke="midnightblue" d="M116.994,-112.444C157.122,-103.063 221.589,-87.9926 265.176,-77.8036"/>
<polygon fill="midnightblue" stroke="midnightblue" points="266.019,-81.2009 274.96,-75.5164 264.426,-74.3847 266.019,-81.2009"/>
</g>
<!-- Node12 -->
<g id="node12" class="node"><title>Node12</title>
<g id="a_node12"><a xlink:href="_fatal_error_8h.html" target="_top" xlink:title=" ">
<polygon fill="white" stroke="black" points="28.3912,-56.5 28.3912,-75.5 150.391,-75.5 150.391,-56.5 28.3912,-56.5"/>
<text text-anchor="middle" x="89.3912" y="-63.5" font-family="Helvetica,sans-Serif" font-size="10.00">Cpl/System/FatalError.h</text>
</a>
</g>
</g>
<!-- Node11&#45;&gt;Node12 -->
<g id="edge11" class="edge"><title>Node11&#45;&gt;Node12</title>
<path fill="none" stroke="midnightblue" d="M81.8774,-112.083C83.07,-104.927 84.7853,-94.6353 86.276,-85.6911"/>
<polygon fill="midnightblue" stroke="midnightblue" points="89.741,-86.1904 87.9327,-75.7511 82.8362,-85.0396 89.741,-86.1904"/>
</g>
<!-- Node11&#45;&gt;Node14 -->
<g id="edge14" class="edge"><title>Node11&#45;&gt;Node14</title>
<path fill="none" stroke="midnightblue" d="M132.631,-112.899C224.674,-98.9453 421.867,-70.4847 589.391,-56 939.499,-25.7285 1365.33,-14.4758 1488.5,-11.7223"/>
<polygon fill="midnightblue" stroke="midnightblue" points="1488.89,-15.2146 1498.81,-11.4959 1488.74,-8.21625 1488.89,-15.2146"/>
</g>
<!-- Node15 -->
<g id="node15" class="node"><title>Node15</title>
<g id="a_node15"><a xlink:title=" ">
<polygon fill="white" stroke="#bfbfbf" points="168.891,-56.5 168.891,-75.5 217.891,-75.5 217.891,-56.5 168.891,-56.5"/>
<text text-anchor="middle" x="193.391" y="-63.5" font-family="Helvetica,sans-Serif" font-size="10.00">string.h</text>
</a>
</g>
</g>
<!-- Node11&#45;&gt;Node15 -->
<g id="edge15" class="edge"><title>Node11&#45;&gt;Node15</title>
<path fill="none" stroke="midnightblue" d="M98.2964,-112.444C116.645,-103.675 145.397,-89.9355 166.485,-79.8579"/>
<polygon fill="midnightblue" stroke="midnightblue" points="168.056,-82.9862 175.57,-75.5164 165.038,-76.6703 168.056,-82.9862"/>
</g>
<!-- Node12&#45;&gt;Node7 -->
<g id="edge13" class="edge"><title>Node12&#45;&gt;Node7</title>
<path fill="none" stroke="midnightblue" d="M98.1431,-56.083C105.861,-48.2195 117.296,-36.5688 126.608,-27.0813"/>
<polygon fill="midnightblue" stroke="midnightblue" points="129.295,-29.3396 133.802,-19.7511 124.3,-24.4363 129.295,-29.3396"/>
</g>
<!-- Node12&#45;&gt;Node13 -->
<g id="edge12" class="edge"><title>Node12&#45;&gt;Node13</title>
<path fill="none" stroke="midnightblue" d="M80.4742,-56.083C72.6107,-48.2195 60.96,-36.5688 51.4725,-27.0813"/>
<polygon fill="midnightblue" stroke="midnightblue" points="53.6883,-24.3473 44.1423,-19.7511 48.7385,-29.2971 53.6883,-24.3473"/>
</g>
<!-- Node18&#45;&gt;Node8 -->
<g id="edge20" class="edge"><title>Node18&#45;&gt;Node8</title>
<path fill="none" stroke="midnightblue" d="M1407.69,-112.46C1308.3,-92.5817 1061.7,-43.2611 953.13,-21.5477"/>
<polygon fill="midnightblue" stroke="midnightblue" points="953.556,-18.0638 943.064,-19.5345 952.183,-24.9278 953.556,-18.0638"/>
</g>
<!-- Node18&#45;&gt;Node14 -->
<g id="edge21" class="edge"><title>Node18&#45;&gt;Node14</title>
<path fill="none" stroke="midnightblue" d="M1456.12,-112.368C1468.17,-94.2153 1496.31,-51.8015 1512.12,-27.9902"/>
<polygon fill="midnightblue" stroke="midnightblue" points="1515.08,-29.8589 1517.69,-19.5914 1509.24,-25.9882 1515.08,-29.8589"/>
</g>
<!-- Node20&#45;&gt;Node7 -->
<g id="edge26" class="edge"><title>Node20&#45;&gt;Node7</title>
<path fill="none" stroke="midnightblue" d="M265.072,-284.782C192.543,-279.007 80.0616,-266.671 44.3912,-244 14.9492,-225.288 0.3912,-213.885 0.3912,-179 0.3912,-179 0.3912,-179 0.3912,-121 0.3912,-90.9022 -1.1736,-77.9765 19.3912,-56 37.7572,-36.3732 65.3889,-25.2772 89.8128,-19.0184"/>
<polygon fill="midnightblue" stroke="midnightblue" points="90.7583,-22.3916 99.6928,-16.6972 89.1573,-15.5772 90.7583,-22.3916"/>
</g>
<!-- Node20&#45;&gt;Node19 -->
<g id="edge33" class="edge"><title>Node20&#45;&gt;Node19</title>
<path fill="none" stroke="midnightblue" d="M393.706,-281.373C416.987,-275.172 441.053,-264.017 455.391,-244 464.933,-230.679 463.973,-211.561 461.355,-197.505"/>
<polygon fill="midnightblue" stroke="midnightblue" points="464.713,-196.492 459.068,-187.526 457.89,-198.056 464.713,-196.492"/>
</g>
<!-- Node21 -->
<g id="node21" class="node"><title>Node21</title>
<g id="a_node21"><a xlink:href="_model_database_api_8h.html" target="_top" xlink:title=" ">
<polygon fill="white" stroke="black" points="53.3912,-224.5 53.3912,-243.5 195.391,-243.5 195.391,-224.5 53.3912,-224.5"/>
<text text-anchor="middle" x="124.391" y="-231.5" font-family="Helvetica,sans-Serif" font-size="10.00">Cpl/Dm/ModelDatabaseApi.h</text>
</a>
</g>
</g>
<!-- Node20&#45;&gt;Node21 -->
<g id="edge27" class="edge"><title>Node20&#45;&gt;Node21</title>
<path fill="none" stroke="midnightblue" d="M296.908,-280.444C261.671,-271.162 205.287,-256.309 166.632,-246.127"/>
<polygon fill="midnightblue" stroke="midnightblue" points="167.284,-242.679 156.722,-243.516 165.501,-249.448 167.284,-242.679"/>
</g>
<!-- Node22 -->
<g id="node22" class="node"><title>Node22</title>
<g id="a_node22"><a xlink:href="_mutex_8h.html" target="_top" xlink:title=" ">
<polygon fill="white" stroke="black" points="213.391,-224.5 213.391,-243.5 319.391,-243.5 319.391,-224.5 213.391,-224.5"/>
<text text-anchor="middle" x="266.391" y="-231.5" font-family="Helvetica,sans-Serif" font-size="10.00">Cpl/System/Mutex.h</text>
</a>
</g>
</g>
<!-- Node20&#45;&gt;Node22 -->
<g id="edge29" class="edge"><title>Node20&#45;&gt;Node22</title>
<path fill="none" stroke="midnightblue" d="M319.269,-280.324C309.865,-272.263 295.647,-260.077 284.322,-250.369"/>
<polygon fill="midnightblue" stroke="midnightblue" points="286.568,-247.684 276.697,-243.834 282.012,-252.999 286.568,-247.684"/>
</g>
<!-- Node23 -->
<g id="node23" class="node"><title>Node23</title>
<g id="a_node23"><a xlink:href="_s_list_8h.html" target="_top" xlink:title=" ">
<polygon fill="white" stroke="black" points="337.891,-224.5 337.891,-243.5 446.891,-243.5 446.891,-224.5 337.891,-224.5"/>
<text text-anchor="middle" x="392.391" y="-231.5" font-family="Helvetica,sans-Serif" font-size="10.00">Cpl/Container/SList.h</text>
</a>
</g>
</g>
<!-- Node20&#45;&gt;Node23 -->
<g id="edge31" class="edge"><title>Node20&#45;&gt;Node23</title>
<path fill="none" stroke="midnightblue" d="M339.513,-280.324C348.918,-272.263 363.135,-260.077 374.46,-250.369"/>
<polygon fill="midnightblue" stroke="midnightblue" points="376.77,-252.999 382.085,-243.834 372.215,-247.684 376.77,-252.999"/>
</g>
<!-- Node21&#45;&gt;Node9 -->
<g id="edge28" class="edge"><title>Node21&#45;&gt;Node9</title>
<path fill="none" stroke="midnightblue" d="M138.369,-224.324C151.941,-215.9 172.771,-202.971 188.716,-193.074"/>
<polygon fill="midnightblue" stroke="midnightblue" points="190.797,-195.902 197.448,-187.655 187.106,-189.954 190.797,-195.902"/>
</g>
<!-- Node22&#45;&gt;Node10 -->
<g id="edge30" class="edge"><title>Node22&#45;&gt;Node10</title>
<path fill="none" stroke="midnightblue" d="M270.518,-224.319C278.494,-207.129 295.979,-167.358 304.391,-132 308.048,-116.628 309.798,-98.7517 310.633,-85.6414"/>
<polygon fill="midnightblue" stroke="midnightblue" points="314.135,-85.6974 311.157,-75.5297 307.144,-85.3353 314.135,-85.6974"/>
</g>
<!-- Node23&#45;&gt;Node8 -->
<g id="edge32" class="edge"><title>Node23&#45;&gt;Node8</title>
<path fill="none" stroke="midnightblue" d="M390.974,-224.403C389.261,-211.361 387.699,-186.176 397.391,-168 435.21,-97.0737 465.23,-86.9991 539.391,-56 591.731,-34.1221 748.371,-20.7903 837.162,-14.7834"/>
<polygon fill="midnightblue" stroke="midnightblue" points="837.634,-18.2598 847.379,-14.1042 837.169,-11.2753 837.634,-18.2598"/>
</g>
<!-- Node24&#45;&gt;Node6 -->
<g id="edge36" class="edge"><title>Node24&#45;&gt;Node6</title>
<path fill="none" stroke="midnightblue" d="M1552.62,-286.192C1377.89,-277.067 826.534,-248.272 637.07,-238.378"/>
<polygon fill="midnightblue" stroke="midnightblue" points="637.154,-234.878 626.985,-237.851 636.789,-241.868 637.154,-234.878"/>
</g>
<!-- Node24&#45;&gt;Node14 -->
<g id="edge64" class="edge"><title>Node24&#45;&gt;Node14</title>
<path fill="none" stroke="midnightblue" d="M1628.68,-280.496C1663.38,-265.632 1726.39,-231.426 1726.39,-179 1726.39,-179 1726.39,-179 1726.39,-121 1726.39,-90.9022 1729.14,-76.8033 1707.39,-56 1686.24,-35.7659 1605.51,-21.9112 1558.31,-15.3489"/>
<polygon fill="midnightblue" stroke="midnightblue" points="1558.59,-11.8555 1548.21,-13.9856 1557.65,-18.7925 1558.59,-11.8555"/>
</g>
<!-- Node24&#45;&gt;Node18 -->
<g id="edge35" class="edge"><title>Node24&#45;&gt;Node18</title>
<path fill="none" stroke="midnightblue" d="M1603.59,-280.257C1596.27,-258.641 1574.67,-201.981 1539.39,-168 1524.34,-153.508 1503.71,-142.681 1486.1,-135.282"/>
<polygon fill="midnightblue" stroke="midnightblue" points="1487.27,-131.979 1476.68,-131.524 1484.67,-138.481 1487.27,-131.979"/>
</g>
<!-- Node25 -->
<g id="node25" class="node"><title>Node25</title>
<g id="a_node25"><a xlink:href="_dm_2_event_loop_8h.html" target="_top" xlink:title=" ">
<polygon fill="white" stroke="black" points="1366.89,-224.5 1366.89,-243.5 1473.89,-243.5 1473.89,-224.5 1366.89,-224.5"/>
<text text-anchor="middle" x="1420.39" y="-231.5" font-family="Helvetica,sans-Serif" font-size="10.00">Cpl/Dm/EventLoop.h</text>
</a>
</g>
</g>
<!-- Node24&#45;&gt;Node25 -->
<g id="edge37" class="edge"><title>Node24&#45;&gt;Node25</title>
<path fill="none" stroke="midnightblue" d="M1576.92,-280.444C1545.22,-271.241 1494.66,-256.562 1459.62,-246.388"/>
<polygon fill="midnightblue" stroke="midnightblue" points="1460.3,-242.943 1449.73,-243.516 1458.35,-249.666 1460.3,-242.943"/>
</g>
<!-- Node25&#45;&gt;Node18 -->
<g id="edge61" class="edge"><title>Node25&#45;&gt;Node18</title>
<path fill="none" stroke="midnightblue" d="M1412.13,-224.449C1401.04,-211.887 1383.8,-187.794 1393.39,-168 1399.79,-154.8 1412.14,-144.303 1423.72,-136.779"/>
<polygon fill="midnightblue" stroke="midnightblue" points="1425.55,-139.765 1432.31,-131.61 1421.94,-133.768 1425.55,-139.765"/>
</g>
<!-- Node26 -->
<g id="node26" class="node"><title>Node26</title>
<g id="a_node26"><a xlink:href="_system_2_event_loop_8h.html" target="_top" xlink:title=" ">
<polygon fill="white" stroke="black" points="837.891,-168.5 837.891,-187.5 962.891,-187.5 962.891,-168.5 837.891,-168.5"/>
<text text-anchor="middle" x="900.391" y="-175.5" font-family="Helvetica,sans-Serif" font-size="10.00">Cpl/System/EventLoop.h</text>
</a>
</g>
</g>
<!-- Node25&#45;&gt;Node26 -->
<g id="edge38" class="edge"><title>Node25&#45;&gt;Node26</title>
<path fill="none" stroke="midnightblue" d="M1366.7,-227.424C1272.81,-217.674 1078.74,-197.521 972.974,-186.537"/>
<polygon fill="midnightblue" stroke="midnightblue" points="973.328,-183.056 963.02,-185.504 972.605,-190.018 973.328,-183.056"/>
</g>
<!-- Node25&#45;&gt;Node34 -->
<g id="edge60" class="edge"><title>Node25&#45;&gt;Node34</title>
<path fill="none" stroke="midnightblue" d="M1474.03,-229.436C1509.64,-224.653 1555.68,-213.569 1588.39,-188 1621.16,-162.385 1635.05,-112.854 1640.4,-85.7849"/>
<polygon fill="midnightblue" stroke="midnightblue" points="1643.89,-86.1535 1642.2,-75.6941 1637,-84.9238 1643.89,-86.1535"/>
</g>
<!-- Node35 -->
<g id="node35" class="node"><title>Node35</title>
<g id="a_node35"><a xlink:href="_thread_8h.html" target="_top" xlink:title=" ">
<polygon fill="white" stroke="black" points="1151.89,-168.5 1151.89,-187.5 1260.89,-187.5 1260.89,-168.5 1151.89,-168.5"/>
<text text-anchor="middle" x="1206.39" y="-175.5" font-family="Helvetica,sans-Serif" font-size="10.00">Cpl/System/Thread.h</text>
</a>
</g>
</g>
<!-- Node25&#45;&gt;Node35 -->
<g id="edge54" class="edge"><title>Node25&#45;&gt;Node35</title>
<path fill="none" stroke="midnightblue" d="M1386.48,-224.444C1349.54,-215.122 1290.34,-200.183 1249.97,-189.997"/>
<polygon fill="midnightblue" stroke="midnightblue" points="1250.69,-186.57 1240.14,-187.516 1248.98,-193.357 1250.69,-186.57"/>
</g>
<!-- Node38 -->
<g id="node38" class="node"><title>Node38</title>
<g id="a_node38"><a xlink:href="_notification_api___8h.html" target="_top" xlink:title=" ">
<polygon fill="white" stroke="black" points="1402.39,-168.5 1402.39,-187.5 1530.39,-187.5 1530.39,-168.5 1402.39,-168.5"/>
<text text-anchor="middle" x="1466.39" y="-175.5" font-family="Helvetica,sans-Serif" font-size="10.00">Cpl/Dm/NotificationApi_.h</text>
</a>
</g>
</g>
<!-- Node25&#45;&gt;Node38 -->
<g id="edge62" class="edge"><title>Node25&#45;&gt;Node38</title>
<path fill="none" stroke="midnightblue" d="M1427.99,-224.083C1434.62,-216.298 1444.41,-204.801 1452.45,-195.367"/>
<polygon fill="midnightblue" stroke="midnightblue" points="1455.12,-197.633 1458.94,-187.751 1449.79,-193.094 1455.12,-197.633"/>
</g>
<!-- Node27 -->
<g id="node27" class="node"><title>Node27</title>
<g id="a_node27"><a xlink:href="_runnable_8h.html" target="_top" xlink:title=" ">
<polygon fill="white" stroke="black" points="1125.89,-112.5 1125.89,-131.5 1244.89,-131.5 1244.89,-112.5 1125.89,-112.5"/>
<text text-anchor="middle" x="1185.39" y="-119.5" font-family="Helvetica,sans-Serif" font-size="10.00">Cpl/System/Runnable.h</text>
</a>
</g>
</g>
<!-- Node26&#45;&gt;Node27 -->
<g id="edge39" class="edge"><title>Node26&#45;&gt;Node27</title>
<path fill="none" stroke="midnightblue" d="M945.55,-168.444C995.685,-158.944 1076.61,-143.611 1130.4,-133.42"/>
<polygon fill="midnightblue" stroke="midnightblue" points="1131.27,-136.817 1140.44,-131.516 1129.97,-129.939 1131.27,-136.817"/>
</g>
<!-- Node28 -->
<g id="node28" class="node"><title>Node28</title>
<g id="a_node28"><a xlink:href="_semaphore_8h.html" target="_top" xlink:title=" ">
<polygon fill="white" stroke="black" points="744.391,-112.5 744.391,-131.5 872.391,-131.5 872.391,-112.5 744.391,-112.5"/>
<text text-anchor="middle" x="808.391" y="-119.5" font-family="Helvetica,sans-Serif" font-size="10.00">Cpl/System/Semaphore.h</text>
</a>
</g>
</g>
<!-- Node26&#45;&gt;Node28 -->
<g id="edge40" class="edge"><title>Node26&#45;&gt;Node28</title>
<path fill="none" stroke="midnightblue" d="M885.61,-168.324C871.124,-159.822 848.818,-146.729 831.898,-136.797"/>
<polygon fill="midnightblue" stroke="midnightblue" points="833.532,-133.698 823.136,-131.655 829.988,-139.735 833.532,-133.698"/>
</g>
<!-- Node29 -->
<g id="node29" class="node"><title>Node29</title>
<g id="a_node29"><a xlink:href="_signable_8h.html" target="_top" xlink:title=" ">
<polygon fill="white" stroke="black" points="842.391,-56.5 842.391,-75.5 958.391,-75.5 958.391,-56.5 842.391,-56.5"/>
<text text-anchor="middle" x="900.391" y="-63.5" font-family="Helvetica,sans-Serif" font-size="10.00">Cpl/System/Signable.h</text>
</a>
</g>
</g>
<!-- Node26&#45;&gt;Node29 -->
<g id="edge44" class="edge"><title>Node26&#45;&gt;Node29</title>
<path fill="none" stroke="midnightblue" d="M900.391,-168.368C900.391,-150.617 900.391,-109.666 900.391,-85.5974"/>
<polygon fill="midnightblue" stroke="midnightblue" points="903.891,-85.5914 900.391,-75.5914 896.891,-85.5915 903.891,-85.5914"/>
</g>
<!-- Node30 -->
<g id="node30" class="node"><title>Node30</title>
<g id="a_node30"><a xlink:href="_event_flag_8h.html" target="_top" xlink:title=" ">
<polygon fill="white" stroke="black" points="598.891,-56.5 598.891,-75.5 721.891,-75.5 721.891,-56.5 598.891,-56.5"/>
<text text-anchor="middle" x="660.391" y="-63.5" font-family="Helvetica,sans-Serif" font-size="10.00">Cpl/System/EventFlag.h</text>
</a>
</g>
</g>
<!-- Node26&#45;&gt;Node30 -->
<g id="edge45" class="edge"><title>Node26&#45;&gt;Node30</title>
<path fill="none" stroke="midnightblue" d="M845.716,-168.465C812.434,-161.753 769.839,-150.382 735.391,-132 711.534,-119.27 688.742,-97.7198 674.674,-82.9479"/>
<polygon fill="midnightblue" stroke="midnightblue" points="677.17,-80.4922 667.805,-75.5378 672.037,-85.251 677.17,-80.4922"/>
</g>
<!-- Node31 -->
<g id="node31" class="node"><title>Node31</title>
<g id="a_node31"><a xlink:href="_shared_event_handler_8h.html" target="_top" xlink:title=" ">
<polygon fill="white" stroke="black" points="520.391,-112.5 520.391,-131.5 688.391,-131.5 688.391,-112.5 520.391,-112.5"/>
<text text-anchor="middle" x="604.391" y="-119.5" font-family="Helvetica,sans-Serif" font-size="10.00">Cpl/System/SharedEventHandler.h</text>
</a>
</g>
</g>
<!-- Node26&#45;&gt;Node31 -->
<g id="edge48" class="edge"><title>Node26&#45;&gt;Node31</title>
<path fill="none" stroke="midnightblue" d="M853.489,-168.444C801.311,-158.925 717.02,-143.547 661.159,-133.356"/>
<polygon fill="midnightblue" stroke="midnightblue" points="661.54,-129.868 651.074,-131.516 660.283,-136.754 661.54,-129.868"/>
</g>
<!-- Node32 -->
<g id="node32" class="node"><title>Node32</title>
<g id="a_node32"><a xlink:href="_timer_manager_8h.html" target="_top" xlink:title=" ">
<polygon fill="white" stroke="black" points="966.891,-112.5 966.891,-131.5 1107.89,-131.5 1107.89,-112.5 966.891,-112.5"/>
<text text-anchor="middle" x="1037.39" y="-119.5" font-family="Helvetica,sans-Serif" font-size="10.00">Cpl/System/TimerManager.h</text>
</a>
</g>
</g>
<!-- Node26&#45;&gt;Node32 -->
<g id="edge50" class="edge"><title>Node26&#45;&gt;Node32</title>
<path fill="none" stroke="midnightblue" d="M922.099,-168.444C944.746,-159.517 980.463,-145.439 1006.14,-135.317"/>
<polygon fill="midnightblue" stroke="midnightblue" points="1007.76,-138.44 1015.78,-131.516 1005.2,-131.927 1007.76,-138.44"/>
</g>
<!-- Node28&#45;&gt;Node10 -->
<g id="edge41" class="edge"><title>Node28&#45;&gt;Node10</title>
<path fill="none" stroke="midnightblue" d="M744.181,-114.023C643.364,-103.07 450.159,-82.0774 359.985,-72.2798"/>
<polygon fill="midnightblue" stroke="midnightblue" points="360.349,-68.7988 350.029,-71.1981 359.593,-75.7579 360.349,-68.7988"/>
</g>
<!-- Node28&#45;&gt;Node29 -->
<g id="edge42" class="edge"><title>Node28&#45;&gt;Node29</title>
<path fill="none" stroke="midnightblue" d="M823.173,-112.324C837.658,-103.822 859.964,-90.7288 876.884,-80.7975"/>
<polygon fill="midnightblue" stroke="midnightblue" points="878.794,-83.735 885.646,-75.6545 875.251,-77.6981 878.794,-83.735"/>
</g>
<!-- Node29&#45;&gt;Node8 -->
<g id="edge43" class="edge"><title>Node29&#45;&gt;Node8</title>
<path fill="none" stroke="midnightblue" d="M900.391,-56.083C900.391,-49.0059 900.391,-38.8611 900.391,-29.9865"/>
<polygon fill="midnightblue" stroke="midnightblue" points="903.891,-29.751 900.391,-19.7511 896.891,-29.7511 903.891,-29.751"/>
</g>
<!-- Node30&#45;&gt;Node7 -->
<g id="edge46" class="edge"><title>Node30&#45;&gt;Node7</title>
<path fill="none" stroke="midnightblue" d="M598.679,-58.5667C495.921,-47.8545 291.532,-26.5475 195.092,-16.4939"/>
<polygon fill="midnightblue" stroke="midnightblue" points="195.299,-12.9966 184.99,-15.4408 194.573,-19.9589 195.299,-12.9966"/>
</g>
<!-- Node30&#45;&gt;Node14 -->
<g id="edge47" class="edge"><title>Node30&#45;&gt;Node14</title>
<path fill="none" stroke="midnightblue" d="M722.11,-61.1381C890.964,-50.5725 1356.7,-21.43 1488.33,-13.1939"/>
<polygon fill="midnightblue" stroke="midnightblue" points="1488.86,-16.6675 1498.62,-12.5497 1488.43,-9.68114 1488.86,-16.6675"/>
</g>
<!-- Node31&#45;&gt;Node30 -->
<g id="edge49" class="edge"><title>Node31&#45;&gt;Node30</title>
<path fill="none" stroke="midnightblue" d="M613.389,-112.324C621.586,-104.42 633.897,-92.5482 643.863,-82.9377"/>
<polygon fill="midnightblue" stroke="midnightblue" points="646.461,-85.2947 651.23,-75.8339 641.602,-80.2558 646.461,-85.2947"/>
</g>
<!-- Node33 -->
<g id="node33" class="node"><title>Node33</title>
<g id="a_node33"><a xlink:href="_counter___8h.html" target="_top" xlink:title=" ">
<polygon fill="white" stroke="black" points="977.391,-56.5 977.391,-75.5 1095.39,-75.5 1095.39,-56.5 977.391,-56.5"/>
<text text-anchor="middle" x="1036.39" y="-63.5" font-family="Helvetica,sans-Serif" font-size="10.00">Cpl/System/Counter_.h</text>
</a>
</g>
</g>
<!-- Node32&#45;&gt;Node33 -->
<g id="edge51" class="edge"><title>Node32&#45;&gt;Node33</title>
<path fill="none" stroke="midnightblue" d="M1037.23,-112.083C1037.1,-105.006 1036.91,-94.8611 1036.74,-85.9865"/>
<polygon fill="midnightblue" stroke="midnightblue" points="1040.24,-85.6845 1036.55,-75.7511 1033.24,-85.8142 1040.24,-85.6845"/>
</g>
<!-- Node32&#45;&gt;Node34 -->
<g id="edge53" class="edge"><title>Node32&#45;&gt;Node34</title>
<path fill="none" stroke="midnightblue" d="M1108.05,-112.947C1111.21,-112.62 1114.33,-112.303 1117.39,-112 1283.44,-95.5598 1479.34,-79.7441 1578.65,-71.9793"/>
<polygon fill="midnightblue" stroke="midnightblue" points="1579.13,-75.4528 1588.83,-71.1855 1578.58,-68.474 1579.13,-75.4528"/>
</g>
<!-- Node33&#45;&gt;Node8 -->
<g id="edge52" class="edge"><title>Node33&#45;&gt;Node8</title>
<path fill="none" stroke="midnightblue" d="M1014.84,-56.4435C992.36,-47.5171 956.904,-33.4387 931.411,-23.3168"/>
<polygon fill="midnightblue" stroke="midnightblue" points="932.426,-19.9539 921.84,-19.5164 929.843,-26.4598 932.426,-19.9539"/>
</g>
<!-- Node35&#45;&gt;Node10 -->
<g id="edge55" class="edge"><title>Node35&#45;&gt;Node10</title>
<path fill="none" stroke="midnightblue" d="M1151.81,-174.252C998.927,-166.442 573.549,-143.918 511.391,-132 449.51,-120.135 380.17,-94.7274 341.55,-79.4285"/>
<polygon fill="midnightblue" stroke="midnightblue" points="342.544,-76.0564 331.96,-75.5862 339.941,-82.5543 342.544,-76.0564"/>
</g>
<!-- Node35&#45;&gt;Node27 -->
<g id="edge56" class="edge"><title>Node35&#45;&gt;Node27</title>
<path fill="none" stroke="midnightblue" d="M1202.92,-168.083C1200.08,-160.77 1195.96,-150.181 1192.43,-141.103"/>
<polygon fill="midnightblue" stroke="midnightblue" points="1195.68,-139.803 1188.79,-131.751 1189.16,-142.34 1195.68,-139.803"/>
</g>
<!-- Node35&#45;&gt;Node29 -->
<g id="edge57" class="edge"><title>Node35&#45;&gt;Node29</title>
<path fill="none" stroke="midnightblue" d="M1151.7,-177.127C1099.03,-175.023 1018.7,-165.805 958.391,-132 938.07,-120.61 921.205,-99.3946 910.994,-84.3011"/>
<polygon fill="midnightblue" stroke="midnightblue" points="913.892,-82.3365 905.525,-75.8369 908.013,-86.1356 913.892,-82.3365"/>
</g>
<!-- Node36 -->
<g id="node36" class="node"><title>Node36</title>
<g id="a_node36"><a xlink:href="_traverser_8h.html" target="_top" xlink:title=" ">
<polygon fill="white" stroke="black" points="1263.39,-112.5 1263.39,-131.5 1371.39,-131.5 1371.39,-112.5 1263.39,-112.5"/>
<text text-anchor="middle" x="1317.39" y="-119.5" font-family="Helvetica,sans-Serif" font-size="10.00">Cpl/Type/Traverser.h</text>
</a>
</g>
</g>
<!-- Node35&#45;&gt;Node36 -->
<g id="edge58" class="edge"><title>Node35&#45;&gt;Node36</title>
<path fill="none" stroke="midnightblue" d="M1224.23,-168.324C1242.11,-159.625 1269.87,-146.12 1290.44,-136.113"/>
<polygon fill="midnightblue" stroke="midnightblue" points="1292.14,-139.177 1299.6,-131.655 1289.08,-132.882 1292.14,-139.177"/>
</g>
<!-- Node35&#45;&gt;Node37 -->
<g id="edge59" class="edge"><title>Node35&#45;&gt;Node37</title>
<path fill="none" stroke="midnightblue" d="M1260.92,-171.262C1321.74,-164.399 1423.19,-151.574 1519.43,-131.977"/>
<polygon fill="midnightblue" stroke="midnightblue" points="1520.24,-135.384 1529.32,-129.934 1518.82,-128.528 1520.24,-135.384"/>
</g>
<!-- Node38&#45;&gt;Node18 -->
<g id="edge63" class="edge"><title>Node38&#45;&gt;Node18</title>
<path fill="none" stroke="midnightblue" d="M1463.75,-168.083C1461.61,-160.849 1458.51,-150.409 1455.84,-141.397"/>
<polygon fill="midnightblue" stroke="midnightblue" points="1459.18,-140.345 1452.98,-131.751 1452.47,-142.333 1459.18,-140.345"/>
</g>
</g>
</svg>
