<?xml version="1.0" encoding="UTF-8" standalone="no"?>
<!DOCTYPE svg PUBLIC "-//W3C//DTD SVG 1.1//EN"
 "http://www.w3.org/Graphics/SVG/1.1/DTD/svg11.dtd">
<!-- Generated by graphviz version 10.0.1 (20240210.2158)
 -->
<!-- Title: Storm/Dm/MpVirtualOutputs.h Pages: 1 -->
<svg width="1497pt" height="344pt"
 viewBox="0.00 0.00 1496.88 344.00" xmlns="http://www.w3.org/2000/svg" xmlns:xlink="http://www.w3.org/1999/xlink">
<g id="graph0" class="graph" transform="scale(1 1) rotate(0) translate(4 340)">
<title>Storm/Dm/MpVirtualOutputs.h</title>
<!-- Node1 -->
<g id="Node000001" class="node">
<title>Node1</title>
<g id="a_Node000001"><a xlink:title=" ">
<polygon fill="#999999" stroke="#666666" points="883.38,-336 736.12,-336 736.12,-316 883.38,-316 883.38,-336"/>
<text text-anchor="middle" x="809.75" y="-322.5" font-family="Helvetica,sans-Serif" font-size="10.00">Storm/Dm/MpVirtualOutputs.h</text>
</a>
</g>
</g>
<!-- Node2 -->
<g id="Node000002" class="node">
<title>Node2</title>
<g id="a_Node000002"><a xlink:href="_air_filter_monitor_8h.html" target="_top" xlink:title=" ">
<polygon fill="white" stroke="#666666" points="131.5,-88 0,-88 0,-56 131.5,-56 131.5,-88"/>
<text text-anchor="start" x="8" y="-74.5" font-family="Helvetica,sans-Serif" font-size="10.00">Storm/Component/AirFilter</text>
<text text-anchor="middle" x="65.75" y="-62.5" font-family="Helvetica,sans-Serif" font-size="10.00">Monitor.h</text>
</a>
</g>
</g>
<!-- Node1&#45;&gt;Node2 -->
<g id="edge1_Node000001_Node000002" class="edge">
<title>Node1&#45;&gt;Node2</title>
<g id="a_edge1_Node000001_Node000002"><a xlink:title=" ">
<path fill="none" stroke="#63b8ff" d="M724.75,-316.69C584.97,-301.96 313.57,-268.57 228.75,-224 161.82,-188.83 101.83,-119 77.38,-88.2"/>
<polygon fill="#63b8ff" stroke="#63b8ff" points="724,-320.13 734.31,-317.69 724.73,-313.17 724,-320.13"/>
</a>
</g>
</g>
<!-- Node4 -->
<g id="Node000004" class="node">
<title>Node4</title>
<g id="a_Node000004"><a xlink:href="_control_8h.html" target="_top" xlink:title=" ">
<polygon fill="white" stroke="#666666" points="624.12,-280 487.38,-280 487.38,-260 624.12,-260 624.12,-280"/>
<text text-anchor="middle" x="555.75" y="-266.5" font-family="Helvetica,sans-Serif" font-size="10.00">Storm/Component/Control.h</text>
</a>
</g>
</g>
<!-- Node1&#45;&gt;Node4 -->
<g id="edge3_Node000001_Node000004" class="edge">
<title>Node1&#45;&gt;Node4</title>
<g id="a_edge3_Node000001_Node000004"><a xlink:title=" ">
<path fill="none" stroke="#63b8ff" d="M754.19,-313.19C707.98,-303.36 643.06,-289.56 600.23,-280.46"/>
<polygon fill="#63b8ff" stroke="#63b8ff" points="753.23,-316.56 763.74,-315.22 754.68,-309.71 753.23,-316.56"/>
</a>
</g>
</g>
<!-- Node12 -->
<g id="Node000012" class="node">
<title>Node12</title>
<g id="a_Node000012"><a xlink:href="_fan_control_8h.html" target="_top" xlink:title=" ">
<polygon fill="white" stroke="#666666" points="886.38,-280 733.12,-280 733.12,-260 886.38,-260 886.38,-280"/>
<text text-anchor="middle" x="809.75" y="-266.5" font-family="Helvetica,sans-Serif" font-size="10.00">Storm/Component/FanControl.h</text>
</a>
</g>
</g>
<!-- Node1&#45;&gt;Node12 -->
<g id="edge19_Node000001_Node000012" class="edge">
<title>Node1&#45;&gt;Node12</title>
<g id="a_edge19_Node000001_Node000012"><a xlink:title=" ">
<path fill="none" stroke="#63b8ff" d="M809.75,-304.13C809.75,-295.9 809.75,-286.85 809.75,-280.3"/>
<polygon fill="#63b8ff" stroke="#63b8ff" points="806.25,-304.08 809.75,-314.08 813.25,-304.08 806.25,-304.08"/>
</a>
</g>
</g>
<!-- Node13 -->
<g id="Node000013" class="node">
<title>Node13</title>
<g id="a_Node000013"><a xlink:href="_component_2_hvac_relay_outputs_8h.html" target="_top" xlink:title=" ">
<polygon fill="white" stroke="#666666" points="1017.5,-88 874,-88 874,-56 1017.5,-56 1017.5,-88"/>
<text text-anchor="start" x="882" y="-74.5" font-family="Helvetica,sans-Serif" font-size="10.00">Storm/Component/HvacRelay</text>
<text text-anchor="middle" x="945.75" y="-62.5" font-family="Helvetica,sans-Serif" font-size="10.00">Outputs.h</text>
</a>
</g>
</g>
<!-- Node1&#45;&gt;Node13 -->
<g id="edge21_Node000001_Node000013" class="edge">
<title>Node1&#45;&gt;Node13</title>
<g id="a_edge21_Node000001_Node000013"><a xlink:title=" ">
<path fill="none" stroke="#63b8ff" d="M852.57,-311.18C868.24,-304.14 884.8,-294.03 895.75,-280 919.52,-249.55 937.81,-130.85 943.72,-88.29"/>
<polygon fill="#63b8ff" stroke="#63b8ff" points="851.25,-307.94 843.34,-315 853.92,-314.41 851.25,-307.94"/>
</a>
</g>
</g>
<!-- Node14 -->
<g id="Node000014" class="node">
<title>Node14</title>
<g id="a_Node000014"><a xlink:href="_model_points_8h.html" target="_top" xlink:title="This file defines all of the Model Points for the Thermostat Application.">
<polygon fill="white" stroke="#666666" points="1217.38,-280 1058.12,-280 1058.12,-260 1217.38,-260 1217.38,-280"/>
<text text-anchor="middle" x="1137.75" y="-266.5" font-family="Helvetica,sans-Serif" font-size="10.00">Storm/Thermostat/ModelPoints.h</text>
</a>
</g>
</g>
<!-- Node1&#45;&gt;Node14 -->
<g id="edge23_Node000001_Node000014" class="edge">
<title>Node1&#45;&gt;Node14</title>
<g id="a_edge23_Node000001_Node000014"><a xlink:title=" ">
<path fill="none" stroke="#63b8ff" d="M878.49,-313.68C938.33,-303.83 1024.06,-289.72 1080.31,-280.46"/>
<polygon fill="#63b8ff" stroke="#63b8ff" points="878.05,-310.21 868.75,-315.29 879.19,-317.12 878.05,-310.21"/>
</a>
</g>
</g>
<!-- Node3 -->
<g id="Node000003" class="node">
<title>Node3</title>
<g id="a_Node000003"><a xlink:href="_algorithm_8h.html" target="_top" xlink:title=" ">
<polygon fill="white" stroke="#666666" points="595,-20 448.5,-20 448.5,0 595,0 595,-20"/>
<text text-anchor="middle" x="521.75" y="-6.5" font-family="Helvetica,sans-Serif" font-size="10.00">Storm/Thermostat/Algorithm.h</text>
</a>
</g>
</g>
<!-- Node2&#45;&gt;Node3 -->
<g id="edge2_Node000002_Node000003" class="edge">
<title>Node2&#45;&gt;Node3</title>
<g id="a_edge2_Node000002_Node000003"><a xlink:title=" ">
<path fill="none" stroke="#63b8ff" d="M142.71,-56.47C143.73,-56.31 144.74,-56.15 145.75,-56 250.37,-39.95 372.12,-26.29 448.07,-18.36"/>
<polygon fill="#63b8ff" stroke="#63b8ff" points="142.41,-52.98 133.11,-58.05 143.54,-59.88 142.41,-52.98"/>
</a>
</g>
</g>
<!-- Node4&#45;&gt;Node3 -->
<g id="edge18_Node000004_Node000003" class="edge">
<title>Node4&#45;&gt;Node3</title>
<g id="a_edge18_Node000004_Node000003"><a xlink:title=" ">
<path fill="none" stroke="#63b8ff" d="M479.74,-257.66C379.7,-240.94 212.54,-206.12 178.75,-156 153.91,-119.15 149.44,-89.41 178.75,-56 196.23,-36.08 352.65,-22.24 448.12,-15.56"/>
<polygon fill="#63b8ff" stroke="#63b8ff" points="479.07,-261.1 489.5,-259.27 480.21,-254.19 479.07,-261.1"/>
</a>
</g>
</g>
<!-- Node5 -->
<g id="Node000005" class="node">
<title>Node5</title>
<g id="a_Node000005"><a xlink:href="_cooling_8h.html" target="_top" xlink:title=" ">
<polygon fill="white" stroke="#666666" points="655.88,-156 511.62,-156 511.62,-124 655.88,-124 655.88,-156"/>
<text text-anchor="start" x="519.62" y="-142.5" font-family="Helvetica,sans-Serif" font-size="10.00">Storm/Component/Equipment</text>
<text text-anchor="middle" x="583.75" y="-130.5" font-family="Helvetica,sans-Serif" font-size="10.00">/Cooling.h</text>
</a>
</g>
</g>
<!-- Node4&#45;&gt;Node5 -->
<g id="edge4_Node000004_Node000005" class="edge">
<title>Node4&#45;&gt;Node5</title>
<g id="a_edge4_Node000004_Node000005"><a xlink:title=" ">
<path fill="none" stroke="#63b8ff" d="M560.17,-248.81C565.78,-223.13 575.36,-179.35 580.41,-156.27"/>
<polygon fill="#63b8ff" stroke="#63b8ff" points="556.81,-247.8 558.09,-258.32 563.64,-249.29 556.81,-247.8"/>
</a>
</g>
</g>
<!-- Node6 -->
<g id="Node000006" class="node">
<title>Node6</title>
<g id="a_Node000006"><a xlink:href="_indoor_heating_8h.html" target="_top" xlink:title=" ">
<polygon fill="white" stroke="#666666" points="493.88,-156 349.62,-156 349.62,-124 493.88,-124 493.88,-156"/>
<text text-anchor="start" x="357.62" y="-142.5" font-family="Helvetica,sans-Serif" font-size="10.00">Storm/Component/Equipment</text>
<text text-anchor="middle" x="421.75" y="-130.5" font-family="Helvetica,sans-Serif" font-size="10.00">/IndoorHeating.h</text>
</a>
</g>
</g>
<!-- Node4&#45;&gt;Node6 -->
<g id="edge6_Node000004_Node000006" class="edge">
<title>Node4&#45;&gt;Node6</title>
<g id="a_edge6_Node000004_Node000006"><a xlink:title=" ">
<path fill="none" stroke="#63b8ff" d="M547.31,-249.71C539.25,-232.94 525.82,-208.76 508.75,-192 493.76,-177.28 473.71,-165.15 456.63,-156.42"/>
<polygon fill="#63b8ff" stroke="#63b8ff" points="544.03,-250.95 551.38,-258.58 550.39,-248.03 544.03,-250.95"/>
</a>
</g>
</g>
<!-- Node7 -->
<g id="Node000007" class="node">
<title>Node7</title>
<g id="a_Node000007"><a xlink:href="_off_8h.html" target="_top" xlink:title=" ">
<polygon fill="white" stroke="#666666" points="817.88,-156 673.62,-156 673.62,-124 817.88,-124 817.88,-156"/>
<text text-anchor="start" x="681.62" y="-142.5" font-family="Helvetica,sans-Serif" font-size="10.00">Storm/Component/Equipment</text>
<text text-anchor="middle" x="745.75" y="-130.5" font-family="Helvetica,sans-Serif" font-size="10.00">/Off.h</text>
</a>
</g>
</g>
<!-- Node4&#45;&gt;Node7 -->
<g id="edge8_Node000004_Node000007" class="edge">
<title>Node4&#45;&gt;Node7</title>
<g id="a_edge8_Node000004_Node000007"><a xlink:title=" ">
<path fill="none" stroke="#63b8ff" d="M579.11,-253.26C615.79,-228.55 686.47,-180.94 722.86,-156.42"/>
<polygon fill="#63b8ff" stroke="#63b8ff" points="577.31,-250.25 570.98,-258.74 581.23,-256.06 577.31,-250.25"/>
</a>
</g>
</g>
<!-- Node8 -->
<g id="Node000008" class="node">
<title>Node8</title>
<g id="a_Node000008"><a xlink:href="_stage_api_8h.html" target="_top" xlink:title=" ">
<polygon fill="white" stroke="#666666" points="499.88,-224 355.62,-224 355.62,-192 499.88,-192 499.88,-224"/>
<text text-anchor="start" x="363.62" y="-210.5" font-family="Helvetica,sans-Serif" font-size="10.00">Storm/Component/Equipment</text>
<text text-anchor="middle" x="427.75" y="-198.5" font-family="Helvetica,sans-Serif" font-size="10.00">/StageApi.h</text>
</a>
</g>
</g>
<!-- Node4&#45;&gt;Node8 -->
<g id="edge10_Node000004_Node000008" class="edge">
<title>Node4&#45;&gt;Node8</title>
<g id="a_edge10_Node000004_Node000008"><a xlink:title=" ">
<path fill="none" stroke="#63b8ff" d="M525.57,-254.85C506.03,-245.69 480.59,-233.77 460.55,-224.37"/>
<polygon fill="#63b8ff" stroke="#63b8ff" points="523.84,-257.91 534.38,-258.98 526.81,-251.57 523.84,-257.91"/>
</a>
</g>
</g>
<!-- Node5&#45;&gt;Node3 -->
<g id="edge5_Node000005_Node000003" class="edge">
<title>Node5&#45;&gt;Node3</title>
<g id="a_edge5_Node000005_Node000003"><a xlink:title=" ">
<path fill="none" stroke="#63b8ff" d="M571.38,-113.45C557.48,-84.76 535.64,-39.67 526.27,-20.33"/>
<polygon fill="#63b8ff" stroke="#63b8ff" points="568.1,-114.72 575.61,-122.2 574.4,-111.67 568.1,-114.72"/>
</a>
</g>
</g>
<!-- Node6&#45;&gt;Node3 -->
<g id="edge7_Node000006_Node000003" class="edge">
<title>Node6&#45;&gt;Node3</title>
<g id="a_edge7_Node000006_Node000003"><a xlink:title=" ">
<path fill="none" stroke="#63b8ff" d="M468.35,-117.99C481.15,-110.21 493.91,-100.24 502.75,-88 517.74,-67.24 520.98,-36 521.63,-20.47"/>
<polygon fill="#63b8ff" stroke="#63b8ff" points="466.92,-114.78 459.95,-122.76 470.37,-120.87 466.92,-114.78"/>
</a>
</g>
</g>
<!-- Node7&#45;&gt;Node3 -->
<g id="edge9_Node000007_Node000003" class="edge">
<title>Node7&#45;&gt;Node3</title>
<g id="a_edge9_Node000007_Node000003"><a xlink:title=" ">
<path fill="none" stroke="#63b8ff" d="M708.78,-117.87C659.46,-89.69 574.18,-40.96 538.36,-20.49"/>
<polygon fill="#63b8ff" stroke="#63b8ff" points="707,-120.89 717.42,-122.81 710.47,-114.81 707,-120.89"/>
</a>
</g>
</g>
<!-- Node8&#45;&gt;Node5 -->
<g id="edge11_Node000008_Node000005" class="edge">
<title>Node8&#45;&gt;Node5</title>
<g id="a_edge11_Node000008_Node000005"><a xlink:title=" ">
<path fill="none" stroke="#63b8ff" d="M474.65,-187.16C497.87,-177.33 525.49,-165.65 547.13,-156.49"/>
<polygon fill="#63b8ff" stroke="#63b8ff" points="473.56,-183.82 465.72,-190.94 476.29,-190.26 473.56,-183.82"/>
</a>
</g>
</g>
<!-- Node8&#45;&gt;Node6 -->
<g id="edge12_Node000008_Node000006" class="edge">
<title>Node8&#45;&gt;Node6</title>
<g id="a_edge12_Node000008_Node000006"><a xlink:title=" ">
<path fill="none" stroke="#63b8ff" d="M425.32,-180.31C424.58,-172.12 423.78,-163.38 423.13,-156.22"/>
<polygon fill="#63b8ff" stroke="#63b8ff" points="421.83,-180.54 426.22,-190.19 428.8,-179.91 421.83,-180.54"/>
</a>
</g>
</g>
<!-- Node9 -->
<g id="Node000009" class="node">
<title>Node9</title>
<g id="a_Node000009"><a xlink:href="_storm_2_component_2_equipment_2_stage_2_basic_8h.html" target="_top" xlink:title=" ">
<polygon fill="white" stroke="#666666" points="331.88,-156 187.62,-156 187.62,-124 331.88,-124 331.88,-156"/>
<text text-anchor="start" x="195.62" y="-142.5" font-family="Helvetica,sans-Serif" font-size="10.00">Storm/Component/Equipment</text>
<text text-anchor="middle" x="259.75" y="-130.5" font-family="Helvetica,sans-Serif" font-size="10.00">/Stage/Basic.h</text>
</a>
</g>
</g>
<!-- Node8&#45;&gt;Node9 -->
<g id="edge13_Node000008_Node000009" class="edge">
<title>Node8&#45;&gt;Node9</title>
<g id="a_edge13_Node000008_Node000009"><a xlink:title=" ">
<path fill="none" stroke="#63b8ff" d="M377.92,-187.42C352.77,-177.54 322.7,-165.73 299.18,-156.49"/>
<polygon fill="#63b8ff" stroke="#63b8ff" points="376.37,-190.57 386.95,-190.97 378.93,-184.06 376.37,-190.57"/>
</a>
</g>
</g>
<!-- Node10 -->
<g id="Node000010" class="node">
<title>Node10</title>
<g id="a_Node000010"><a xlink:href="_basic_cooling_8h.html" target="_top" xlink:title=" ">
<polygon fill="white" stroke="#666666" points="493.88,-88 349.62,-88 349.62,-56 493.88,-56 493.88,-88"/>
<text text-anchor="start" x="357.62" y="-74.5" font-family="Helvetica,sans-Serif" font-size="10.00">Storm/Component/Equipment</text>
<text text-anchor="middle" x="421.75" y="-62.5" font-family="Helvetica,sans-Serif" font-size="10.00">/Stage/BasicCooling.h</text>
</a>
</g>
</g>
<!-- Node9&#45;&gt;Node10 -->
<g id="edge14_Node000009_Node000010" class="edge">
<title>Node9&#45;&gt;Node10</title>
<g id="a_edge14_Node000009_Node000010"><a xlink:title=" ">
<path fill="none" stroke="#63b8ff" d="M308.13,-119.29C332.31,-109.44 361.15,-97.69 383.73,-88.49"/>
<polygon fill="#63b8ff" stroke="#63b8ff" points="307.07,-115.94 299.13,-122.95 309.71,-122.42 307.07,-115.94"/>
</a>
</g>
</g>
<!-- Node11 -->
<g id="Node000011" class="node">
<title>Node11</title>
<g id="a_Node000011"><a xlink:href="_basic_indoor_heat_8h.html" target="_top" xlink:title=" ">
<polygon fill="white" stroke="#666666" points="331.88,-88 187.62,-88 187.62,-56 331.88,-56 331.88,-88"/>
<text text-anchor="start" x="195.62" y="-74.5" font-family="Helvetica,sans-Serif" font-size="10.00">Storm/Component/Equipment</text>
<text text-anchor="middle" x="259.75" y="-62.5" font-family="Helvetica,sans-Serif" font-size="10.00">/Stage/BasicIndoorHeat.h</text>
</a>
</g>
</g>
<!-- Node9&#45;&gt;Node11 -->
<g id="edge16_Node000009_Node000011" class="edge">
<title>Node9&#45;&gt;Node11</title>
<g id="a_edge16_Node000009_Node000011"><a xlink:title=" ">
<path fill="none" stroke="#63b8ff" d="M259.75,-112.31C259.75,-104.12 259.75,-95.38 259.75,-88.22"/>
<polygon fill="#63b8ff" stroke="#63b8ff" points="256.25,-112.18 259.75,-122.18 263.25,-112.18 256.25,-112.18"/>
</a>
</g>
</g>
<!-- Node10&#45;&gt;Node3 -->
<g id="edge15_Node000010_Node000003" class="edge">
<title>Node10&#45;&gt;Node3</title>
<g id="a_edge15_Node000010_Node000003"><a xlink:title=" ">
<path fill="none" stroke="#63b8ff" d="M457.03,-49.83C473.78,-39.78 492.97,-28.27 506.07,-20.41"/>
<polygon fill="#63b8ff" stroke="#63b8ff" points="455.57,-46.62 448.8,-54.77 459.18,-52.63 455.57,-46.62"/>
</a>
</g>
</g>
<!-- Node11&#45;&gt;Node3 -->
<g id="edge17_Node000011_Node000003" class="edge">
<title>Node11&#45;&gt;Node3</title>
<g id="a_edge17_Node000011_Node000003"><a xlink:title=" ">
<path fill="none" stroke="#63b8ff" d="M338.23,-53.03C384.91,-42.34 442.25,-29.21 480.28,-20.5"/>
<polygon fill="#63b8ff" stroke="#63b8ff" points="337.66,-49.57 328.7,-55.21 339.23,-56.39 337.66,-49.57"/>
</a>
</g>
</g>
<!-- Node12&#45;&gt;Node3 -->
<g id="edge20_Node000012_Node000003" class="edge">
<title>Node12&#45;&gt;Node3</title>
<g id="a_edge20_Node000012_Node000003"><a xlink:title=" ">
<path fill="none" stroke="#63b8ff" d="M819.63,-249.51C833.23,-219.65 853.21,-162.02 826.75,-124 774.9,-49.49 667.9,-24 595.46,-15.35"/>
<polygon fill="#63b8ff" stroke="#63b8ff" points="816.5,-247.94 815.33,-258.47 822.81,-250.97 816.5,-247.94"/>
</a>
</g>
</g>
<!-- Node13&#45;&gt;Node3 -->
<g id="edge22_Node000013_Node000003" class="edge">
<title>Node13&#45;&gt;Node3</title>
<g id="a_edge22_Node000013_Node000003"><a xlink:title=" ">
<path fill="none" stroke="#63b8ff" d="M862.29,-56.39C861.44,-56.26 860.59,-56.13 859.75,-56 768.91,-42.04 663.94,-28.46 595.39,-19.94"/>
<polygon fill="#63b8ff" stroke="#63b8ff" points="861.6,-59.83 872.03,-57.95 862.71,-52.91 861.6,-59.83"/>
</a>
</g>
</g>
<!-- Node15 -->
<g id="Node000015" class="node">
<title>Node15</title>
<g id="a_Node000015"><a xlink:href="_installer_record_8h_source.html" target="_top" xlink:title=" ">
<polygon fill="white" stroke="#666666" points="1060.75,-224 942.75,-224 942.75,-192 1060.75,-192 1060.75,-224"/>
<text text-anchor="start" x="950.75" y="-210.5" font-family="Helvetica,sans-Serif" font-size="10.00">Storm/Thermostat/Main</text>
<text text-anchor="middle" x="1001.75" y="-198.5" font-family="Helvetica,sans-Serif" font-size="10.00">/InstallerRecord.h</text>
</a>
</g>
</g>
<!-- Node14&#45;&gt;Node15 -->
<g id="edge24_Node000014_Node000015" class="edge">
<title>Node14&#45;&gt;Node15</title>
<g id="a_edge24_Node000014_Node000015"><a xlink:title=" ">
<path fill="none" stroke="#63b8ff" d="M1106.01,-255C1085.29,-245.86 1058.23,-233.92 1036.86,-224.49"/>
<polygon fill="#63b8ff" stroke="#63b8ff" points="1104.55,-258.18 1115.12,-259.01 1107.38,-251.78 1104.55,-258.18"/>
</a>
</g>
</g>
<!-- Node17 -->
<g id="Node000017" class="node">
<title>Node17</title>
<g id="a_Node000017"><a xlink:href="_run_time_record_8h_source.html" target="_top" xlink:title=" ">
<polygon fill="white" stroke="#666666" points="1196.75,-224 1078.75,-224 1078.75,-192 1196.75,-192 1196.75,-224"/>
<text text-anchor="start" x="1086.75" y="-210.5" font-family="Helvetica,sans-Serif" font-size="10.00">Storm/Thermostat/Main</text>
<text text-anchor="middle" x="1137.75" y="-198.5" font-family="Helvetica,sans-Serif" font-size="10.00">/RunTimeRecord.h</text>
</a>
</g>
</g>
<!-- Node14&#45;&gt;Node17 -->
<g id="edge26_Node000014_Node000017" class="edge">
<title>Node14&#45;&gt;Node17</title>
<g id="a_edge26_Node000014_Node000017"><a xlink:title=" ">
<path fill="none" stroke="#63b8ff" d="M1137.75,-248.31C1137.75,-240.37 1137.75,-231.46 1137.75,-224.14"/>
<polygon fill="#63b8ff" stroke="#63b8ff" points="1134.25,-248.11 1137.75,-258.11 1141.25,-248.11 1134.25,-248.11"/>
</a>
</g>
</g>
<!-- Node18 -->
<g id="Node000018" class="node">
<title>Node18</title>
<g id="a_Node000018"><a xlink:href="_user_record_8h_source.html" target="_top" xlink:title=" ">
<polygon fill="white" stroke="#666666" points="1332.75,-224 1214.75,-224 1214.75,-192 1332.75,-192 1332.75,-224"/>
<text text-anchor="start" x="1222.75" y="-210.5" font-family="Helvetica,sans-Serif" font-size="10.00">Storm/Thermostat/Main</text>
<text text-anchor="middle" x="1273.75" y="-198.5" font-family="Helvetica,sans-Serif" font-size="10.00">/UserRecord.h</text>
</a>
</g>
</g>
<!-- Node14&#45;&gt;Node18 -->
<g id="edge28_Node000014_Node000018" class="edge">
<title>Node14&#45;&gt;Node18</title>
<g id="a_edge28_Node000014_Node000018"><a xlink:title=" ">
<path fill="none" stroke="#63b8ff" d="M1169.49,-255C1190.21,-245.86 1217.27,-233.92 1238.64,-224.49"/>
<polygon fill="#63b8ff" stroke="#63b8ff" points="1168.12,-251.78 1160.38,-259.01 1170.95,-258.18 1168.12,-251.78"/>
</a>
</g>
</g>
<!-- Node19 -->
<g id="Node000019" class="node">
<title>Node19</title>
<g id="a_Node000019"><a xlink:href="_event_monitor_8h_source.html" target="_top" xlink:title=" ">
<polygon fill="white" stroke="#666666" points="1488.88,-224 1350.62,-224 1350.62,-192 1488.88,-192 1488.88,-224"/>
<text text-anchor="start" x="1358.62" y="-210.5" font-family="Helvetica,sans-Serif" font-size="10.00">Storm/Thermostat/Ui</text>
<text text-anchor="middle" x="1419.75" y="-198.5" font-family="Helvetica,sans-Serif" font-size="10.00">/PicoDisplay/EventMonitor.h</text>
</a>
</g>
</g>
<!-- Node14&#45;&gt;Node19 -->
<g id="edge30_Node000014_Node000019" class="edge">
<title>Node14&#45;&gt;Node19</title>
<g id="a_edge30_Node000014_Node000019"><a xlink:title=" ">
<path fill="none" stroke="#63b8ff" d="M1193.15,-257.21C1238.18,-247.63 1301.95,-234.06 1350.38,-223.76"/>
<polygon fill="#63b8ff" stroke="#63b8ff" points="1192.66,-253.74 1183.6,-259.24 1194.11,-260.59 1192.66,-253.74"/>
</a>
</g>
</g>
<!-- Node16 -->
<g id="Node000016" class="node">
<title>Node16</title>
<g id="a_Node000016"><a xlink:href="statics___8h.html" target="_top" xlink:title="This file defines/creates persistent records and record server for the Thermostat simulation.">
<polygon fill="white" stroke="#666666" points="1196.75,-156 1078.75,-156 1078.75,-124 1196.75,-124 1196.75,-156"/>
<text text-anchor="start" x="1086.75" y="-142.5" font-family="Helvetica,sans-Serif" font-size="10.00">Storm/Thermostat/Main</text>
<text text-anchor="middle" x="1137.75" y="-130.5" font-family="Helvetica,sans-Serif" font-size="10.00">/_simulation/statics_.h</text>
</a>
</g>
</g>
<!-- Node15&#45;&gt;Node16 -->
<g id="edge25_Node000015_Node000016" class="edge">
<title>Node15&#45;&gt;Node16</title>
<g id="a_edge25_Node000015_Node000016"><a xlink:title=" ">
<path fill="none" stroke="#63b8ff" d="M1043.77,-186.61C1063.86,-176.86 1087.51,-165.38 1106.06,-156.38"/>
<polygon fill="#63b8ff" stroke="#63b8ff" points="1042.47,-183.35 1035,-190.87 1045.52,-189.65 1042.47,-183.35"/>
</a>
</g>
</g>
<!-- Node17&#45;&gt;Node16 -->
<g id="edge27_Node000017_Node000016" class="edge">
<title>Node17&#45;&gt;Node16</title>
<g id="a_edge27_Node000017_Node000016"><a xlink:title=" ">
<path fill="none" stroke="#63b8ff" d="M1137.75,-180.31C1137.75,-172.12 1137.75,-163.38 1137.75,-156.22"/>
<polygon fill="#63b8ff" stroke="#63b8ff" points="1134.25,-180.18 1137.75,-190.18 1141.25,-180.18 1134.25,-180.18"/>
</a>
</g>
</g>
<!-- Node18&#45;&gt;Node16 -->
<g id="edge29_Node000018_Node000016" class="edge">
<title>Node18&#45;&gt;Node16</title>
<g id="a_edge29_Node000018_Node000016"><a xlink:title=" ">
<path fill="none" stroke="#63b8ff" d="M1231.73,-186.61C1211.64,-176.86 1187.99,-165.38 1169.44,-156.38"/>
<polygon fill="#63b8ff" stroke="#63b8ff" points="1229.98,-189.65 1240.5,-190.87 1233.03,-183.35 1229.98,-189.65"/>
</a>
</g>
</g>
</g>
</svg>
