<?xml version="1.0" encoding="UTF-8" standalone="no"?>
<!DOCTYPE svg PUBLIC "-//W3C//DTD SVG 1.1//EN"
 "http://www.w3.org/Graphics/SVG/1.1/DTD/svg11.dtd">
<!-- Generated by graphviz version 2.38.0 (20140413.2041)
 -->
<!-- Title: Cpl/Io/NewLine.h Pages: 1 -->
<svg width="226pt" height="84pt"
 viewBox="0.00 0.00 225.50 84.00" xmlns="http://www.w3.org/2000/svg" xmlns:xlink="http://www.w3.org/1999/xlink">
<g id="graph0" class="graph" transform="scale(1 1) rotate(0) translate(4 80)">
<title>Cpl/Io/NewLine.h</title>
<polygon fill="white" stroke="none" points="-4,4 -4,-80 221.5,-80 221.5,4 -4,4"/>
<!-- Node1 -->
<g id="node1" class="node"><title>Node1</title>
<g id="a_node1"><a xlink:title=" ">
<polygon fill="#bfbfbf" stroke="black" points="65,-56.5 65,-75.5 155,-75.5 155,-56.5 65,-56.5"/>
<text text-anchor="middle" x="110" y="-63.5" font-family="Helvetica,sans-Serif" font-size="10.00">Cpl/Io/NewLine.h</text>
</a>
</g>
</g>
<!-- Node2 -->
<g id="node2" class="node"><title>Node2</title>
<g id="a_node2"><a xlink:href="_line_reader_8h.html" target="_top" xlink:title=" ">
<polygon fill="white" stroke="black" points="0,-0.5 0,-19.5 102,-19.5 102,-0.5 0,-0.5"/>
<text text-anchor="middle" x="51" y="-7.5" font-family="Helvetica,sans-Serif" font-size="10.00">Cpl/Io/LineReader.h</text>
</a>
</g>
</g>
<!-- Node1&#45;&gt;Node2 -->
<g id="edge1" class="edge"><title>Node1&#45;&gt;Node2</title>
<path fill="none" stroke="midnightblue" d="M93.1055,-49.5372C82.5855,-39.9087 69.4313,-27.8694 60.6519,-19.8339"/>
<polygon fill="midnightblue" stroke="midnightblue" points="90.7808,-52.1542 100.521,-56.324 95.5069,-46.9905 90.7808,-52.1542"/>
</g>
<!-- Node3 -->
<g id="node3" class="node"><title>Node3</title>
<g id="a_node3"><a xlink:href="_line_writer_8h.html" target="_top" xlink:title=" ">
<polygon fill="white" stroke="black" points="120.5,-0.5 120.5,-19.5 217.5,-19.5 217.5,-0.5 120.5,-0.5"/>
<text text-anchor="middle" x="169" y="-7.5" font-family="Helvetica,sans-Serif" font-size="10.00">Cpl/Io/LineWriter.h</text>
</a>
</g>
</g>
<!-- Node1&#45;&gt;Node3 -->
<g id="edge2" class="edge"><title>Node1&#45;&gt;Node3</title>
<path fill="none" stroke="midnightblue" d="M126.895,-49.5372C137.415,-39.9087 150.569,-27.8694 159.348,-19.8339"/>
<polygon fill="midnightblue" stroke="midnightblue" points="124.493,-46.9905 119.479,-56.324 129.219,-52.1542 124.493,-46.9905"/>
</g>
</g>
</svg>
