<?xml version="1.0" encoding="UTF-8" standalone="no"?>
<!DOCTYPE svg PUBLIC "-//W3C//DTD SVG 1.1//EN"
 "http://www.w3.org/Graphics/SVG/1.1/DTD/svg11.dtd">
<!-- Generated by graphviz version 10.0.1 (20240210.2158)
 -->
<!-- Title: Cpl/Dm/Mp/Numeric.h Pages: 1 -->
<svg width="2050pt" height="412pt"
 viewBox="0.00 0.00 2049.88 412.00" xmlns="http://www.w3.org/2000/svg" xmlns:xlink="http://www.w3.org/1999/xlink">
<g id="graph0" class="graph" transform="scale(1 1) rotate(0) translate(4 408)">
<title>Cpl/Dm/Mp/Numeric.h</title>
<!-- Node1 -->
<g id="Node000001" class="node">
<title>Node1</title>
<g id="a_Node000001"><a xlink:title=" ">
<polygon fill="#999999" stroke="#666666" points="1634.12,-404 1522.12,-404 1522.12,-384 1634.12,-384 1634.12,-404"/>
<text text-anchor="middle" x="1578.12" y="-390.5" font-family="Helvetica,sans-Serif" font-size="10.00">Cpl/Dm/Mp/Numeric.h</text>
</a>
</g>
</g>
<!-- Node2 -->
<g id="Node000002" class="node">
<title>Node2</title>
<g id="a_Node000002"><a xlink:href="_bit_array16_8h.html" target="_top" xlink:title=" ">
<polygon fill="white" stroke="#666666" points="615,-348 493.25,-348 493.25,-328 615,-328 615,-348"/>
<text text-anchor="middle" x="554.12" y="-334.5" font-family="Helvetica,sans-Serif" font-size="10.00">Cpl/Dm/Mp/BitArray16.h</text>
</a>
</g>
</g>
<!-- Node1&#45;&gt;Node2 -->
<g id="edge1_Node000001_Node000002" class="edge">
<title>Node1&#45;&gt;Node2</title>
<g id="a_edge1_Node000001_Node000002"><a xlink:title=" ">
<path fill="none" stroke="#63b8ff" d="M1510.56,-391.69C1354.29,-388.24 955.88,-377.1 624.12,-348 621.2,-347.74 618.2,-347.46 615.18,-347.14"/>
<polygon fill="#63b8ff" stroke="#63b8ff" points="1510.25,-395.18 1520.32,-391.9 1510.4,-388.18 1510.25,-395.18"/>
</a>
</g>
</g>
<!-- Node3 -->
<g id="Node000003" class="node">
<title>Node3</title>
<g id="a_Node000003"><a xlink:href="_double_8h.html" target="_top" xlink:title=" ">
<polygon fill="white" stroke="#666666" points="739.12,-348 633.12,-348 633.12,-328 739.12,-328 739.12,-348"/>
<text text-anchor="middle" x="686.12" y="-334.5" font-family="Helvetica,sans-Serif" font-size="10.00">Cpl/Dm/Mp/Double.h</text>
</a>
</g>
</g>
<!-- Node1&#45;&gt;Node3 -->
<g id="edge2_Node000001_Node000003" class="edge">
<title>Node1&#45;&gt;Node3</title>
<g id="a_edge2_Node000001_Node000003"><a xlink:title=" ">
<path fill="none" stroke="#63b8ff" d="M1510.14,-391.39C1368.23,-387.56 1030.27,-376.07 748.12,-348 745.31,-347.72 742.43,-347.4 739.52,-347.06"/>
<polygon fill="#63b8ff" stroke="#63b8ff" points="1510.03,-394.88 1520.12,-391.65 1510.22,-387.89 1510.03,-394.88"/>
</a>
</g>
</g>
<!-- Node5 -->
<g id="Node000005" class="node">
<title>Node5</title>
<g id="a_Node000005"><a xlink:href="_float_8h.html" target="_top" xlink:title=" ">
<polygon fill="white" stroke="#666666" points="855,-348 757.25,-348 757.25,-328 855,-328 855,-348"/>
<text text-anchor="middle" x="806.12" y="-334.5" font-family="Helvetica,sans-Serif" font-size="10.00">Cpl/Dm/Mp/Float.h</text>
</a>
</g>
</g>
<!-- Node1&#45;&gt;Node5 -->
<g id="edge4_Node000001_Node000005" class="edge">
<title>Node1&#45;&gt;Node5</title>
<g id="a_edge4_Node000001_Node000005"><a xlink:title=" ">
<path fill="none" stroke="#63b8ff" d="M1510.62,-388.28C1357.94,-377.6 988.97,-351.79 855.42,-342.45"/>
<polygon fill="#63b8ff" stroke="#63b8ff" points="1509.94,-391.74 1520.16,-388.95 1510.43,-384.76 1509.94,-391.74"/>
</a>
</g>
</g>
<!-- Node28 -->
<g id="Node000028" class="node">
<title>Node28</title>
<g id="a_Node000028"><a xlink:href="_int32_8h.html" target="_top" xlink:title=" ">
<polygon fill="white" stroke="#666666" points="1805.62,-348 1708.62,-348 1708.62,-328 1805.62,-328 1805.62,-348"/>
<text text-anchor="middle" x="1757.12" y="-334.5" font-family="Helvetica,sans-Serif" font-size="10.00">Cpl/Dm/Mp/Int32.h</text>
</a>
</g>
</g>
<!-- Node1&#45;&gt;Node28 -->
<g id="edge44_Node000001_Node000028" class="edge">
<title>Node1&#45;&gt;Node28</title>
<g id="a_edge44_Node000001_Node000028"><a xlink:title=" ">
<path fill="none" stroke="#63b8ff" d="M1620.21,-380.31C1652.51,-370.56 1696.41,-357.32 1725.7,-348.48"/>
<polygon fill="#63b8ff" stroke="#63b8ff" points="1619.32,-376.92 1610.75,-383.16 1621.34,-383.62 1619.32,-376.92"/>
</a>
</g>
</g>
<!-- Node29 -->
<g id="Node000029" class="node">
<title>Node29</title>
<g id="a_Node000029"><a xlink:href="_int64_8h.html" target="_top" xlink:title=" ">
<polygon fill="white" stroke="#666666" points="1920.62,-348 1823.62,-348 1823.62,-328 1920.62,-328 1920.62,-348"/>
<text text-anchor="middle" x="1872.12" y="-334.5" font-family="Helvetica,sans-Serif" font-size="10.00">Cpl/Dm/Mp/Int64.h</text>
</a>
</g>
</g>
<!-- Node1&#45;&gt;Node29 -->
<g id="edge45_Node000001_Node000029" class="edge">
<title>Node1&#45;&gt;Node29</title>
<g id="a_edge45_Node000001_Node000029"><a xlink:title=" ">
<path fill="none" stroke="#63b8ff" d="M1640.96,-381.46C1695.59,-371.42 1773.61,-357.09 1823.57,-347.92"/>
<polygon fill="#63b8ff" stroke="#63b8ff" points="1640.36,-378.01 1631.16,-383.26 1641.63,-384.89 1640.36,-378.01"/>
</a>
</g>
</g>
<!-- Node30 -->
<g id="Node000030" class="node">
<title>Node30</title>
<g id="a_Node000030"><a xlink:href="_uint32_8h.html" target="_top" xlink:title=" ">
<polygon fill="white" stroke="#666666" points="1569,-348 1465.25,-348 1465.25,-328 1569,-328 1569,-348"/>
<text text-anchor="middle" x="1517.12" y="-334.5" font-family="Helvetica,sans-Serif" font-size="10.00">Cpl/Dm/Mp/Uint32.h</text>
</a>
</g>
</g>
<!-- Node1&#45;&gt;Node30 -->
<g id="edge46_Node000001_Node000030" class="edge">
<title>Node1&#45;&gt;Node30</title>
<g id="a_edge46_Node000001_Node000030"><a xlink:title=" ">
<path fill="none" stroke="#63b8ff" d="M1559.06,-376.13C1548.69,-366.94 1536.25,-355.93 1527.63,-348.3"/>
<polygon fill="#63b8ff" stroke="#63b8ff" points="1556.56,-378.58 1566.37,-382.59 1561.2,-373.34 1556.56,-378.58"/>
</a>
</g>
</g>
<!-- Node37 -->
<g id="Node000037" class="node">
<title>Node37</title>
<g id="a_Node000037"><a xlink:href="_uint64_8h.html" target="_top" xlink:title=" ">
<polygon fill="white" stroke="#666666" points="1691,-348 1587.25,-348 1587.25,-328 1691,-328 1691,-348"/>
<text text-anchor="middle" x="1639.12" y="-334.5" font-family="Helvetica,sans-Serif" font-size="10.00">Cpl/Dm/Mp/Uint64.h</text>
</a>
</g>
</g>
<!-- Node1&#45;&gt;Node37 -->
<g id="edge56_Node000001_Node000037" class="edge">
<title>Node1&#45;&gt;Node37</title>
<g id="a_edge56_Node000001_Node000037"><a xlink:title=" ">
<path fill="none" stroke="#63b8ff" d="M1597.19,-376.13C1607.56,-366.94 1620,-355.93 1628.62,-348.3"/>
<polygon fill="#63b8ff" stroke="#63b8ff" points="1595.05,-373.34 1589.88,-382.59 1599.69,-378.58 1595.05,-373.34"/>
</a>
</g>
</g>
<!-- Node39 -->
<g id="Node000039" class="node">
<title>Node39</title>
<g id="a_Node000039"><a xlink:href="_void_8h.html" target="_top" xlink:title=" ">
<polygon fill="white" stroke="#666666" points="2033.88,-348 1938.38,-348 1938.38,-328 2033.88,-328 2033.88,-348"/>
<text text-anchor="middle" x="1986.12" y="-334.5" font-family="Helvetica,sans-Serif" font-size="10.00">Cpl/Dm/Mp/Void.h</text>
</a>
</g>
</g>
<!-- Node1&#45;&gt;Node39 -->
<g id="edge59_Node000001_Node000039" class="edge">
<title>Node1&#45;&gt;Node39</title>
<g id="a_edge59_Node000001_Node000039"><a xlink:title=" ">
<path fill="none" stroke="#63b8ff" d="M1645.83,-384.91C1716.57,-376.32 1830.76,-362.07 1929.12,-348 1932,-347.59 1934.96,-347.16 1937.94,-346.71"/>
<polygon fill="#63b8ff" stroke="#63b8ff" points="1645.43,-381.43 1635.93,-386.11 1646.28,-388.38 1645.43,-381.43"/>
</a>
</g>
</g>
<!-- Node4 -->
<g id="Node000004" class="node">
<title>Node4</title>
<g id="a_Node000004"><a xlink:href="__file__logger_2_model_points_8h.html" target="_top" xlink:title="This file defines test/simulation specific Model Points for the Thermostat Application.">
<polygon fill="white" stroke="#666666" points="114.25,-292 0,-292 0,-260 114.25,-260 114.25,-292"/>
<text text-anchor="start" x="8" y="-278.5" font-family="Helvetica,sans-Serif" font-size="10.00">Storm/Thermostat/_file</text>
<text text-anchor="middle" x="57.12" y="-266.5" font-family="Helvetica,sans-Serif" font-size="10.00">_logger/ModelPoints.h</text>
</a>
</g>
</g>
<!-- Node3&#45;&gt;Node4 -->
<g id="edge3_Node000003_Node000004" class="edge">
<title>Node3&#45;&gt;Node4</title>
<g id="a_edge3_Node000003_Node000004"><a xlink:title=" ">
<path fill="none" stroke="#63b8ff" d="M621.49,-327.8C402.44,-304.72 343.34,-322.4 128.12,-292 123.76,-291.38 119.26,-290.65 114.74,-289.86"/>
<polygon fill="#63b8ff" stroke="#63b8ff" points="620.9,-331.25 631.22,-328.84 621.65,-324.29 620.9,-331.25"/>
</a>
</g>
</g>
<!-- Node6 -->
<g id="Node000006" class="node">
<title>Node6</title>
<g id="a_Node000006"><a xlink:href="_cpl_2_m_app_2_temperature_2_api_8h.html" target="_top" xlink:title=" ">
<polygon fill="white" stroke="#666666" points="720,-292 604.25,-292 604.25,-260 720,-260 720,-292"/>
<text text-anchor="start" x="612.25" y="-278.5" font-family="Helvetica,sans-Serif" font-size="10.00">Cpl/MApp/Temperature</text>
<text text-anchor="middle" x="662.12" y="-266.5" font-family="Helvetica,sans-Serif" font-size="10.00">/Api.h</text>
</a>
</g>
</g>
<!-- Node5&#45;&gt;Node6 -->
<g id="edge5_Node000005_Node000006" class="edge">
<title>Node5&#45;&gt;Node6</title>
<g id="a_edge5_Node000005_Node000006"><a xlink:title=" ">
<path fill="none" stroke="#63b8ff" d="M773.13,-323.25C751.11,-314.08 722.13,-302 699.3,-292.49"/>
<polygon fill="#63b8ff" stroke="#63b8ff" points="771.65,-326.43 782.23,-327.04 774.34,-319.97 771.65,-326.43"/>
</a>
</g>
</g>
<!-- Node7 -->
<g id="Node000007" class="node">
<title>Node7</title>
<g id="a_Node000007"><a xlink:href="_control_8h.html" target="_top" xlink:title=" ">
<polygon fill="white" stroke="#666666" points="874.5,-286 737.75,-286 737.75,-266 874.5,-266 874.5,-286"/>
<text text-anchor="middle" x="806.12" y="-272.5" font-family="Helvetica,sans-Serif" font-size="10.00">Storm/Component/Control.h</text>
</a>
</g>
</g>
<!-- Node5&#45;&gt;Node7 -->
<g id="edge6_Node000005_Node000007" class="edge">
<title>Node5&#45;&gt;Node7</title>
<g id="a_edge6_Node000005_Node000007"><a xlink:title=" ">
<path fill="none" stroke="#63b8ff" d="M806.12,-316.25C806.12,-305.97 806.12,-294.09 806.12,-286.11"/>
<polygon fill="#63b8ff" stroke="#63b8ff" points="802.63,-316.11 806.13,-326.11 809.63,-316.11 802.63,-316.11"/>
</a>
</g>
</g>
<!-- Node16 -->
<g id="Node000016" class="node">
<title>Node16</title>
<g id="a_Node000016"><a xlink:href="_fan_control_8h.html" target="_top" xlink:title=" ">
<polygon fill="white" stroke="#666666" points="1372.75,-82 1219.5,-82 1219.5,-62 1372.75,-62 1372.75,-82"/>
<text text-anchor="middle" x="1296.12" y="-68.5" font-family="Helvetica,sans-Serif" font-size="10.00">Storm/Component/FanControl.h</text>
</a>
</g>
</g>
<!-- Node5&#45;&gt;Node16 -->
<g id="edge22_Node000005_Node000016" class="edge">
<title>Node5&#45;&gt;Node16</title>
<g id="a_edge22_Node000005_Node000016"><a xlink:title=" ">
<path fill="none" stroke="#63b8ff" d="M846.61,-323.88C868.7,-315.98 896.15,-304.96 919.12,-292 927.14,-287.48 1042.66,-195.59 1051.12,-192 1147.19,-151.26 1209.29,-229.73 1283.12,-156 1302.94,-136.21 1300.35,-99.42 1297.81,-82.26"/>
<polygon fill="#63b8ff" stroke="#63b8ff" points="845.63,-320.51 837.34,-327.11 847.94,-327.12 845.63,-320.51"/>
</a>
</g>
</g>
<!-- Node17 -->
<g id="Node000017" class="node">
<title>Node17</title>
<g id="a_Node000017"><a xlink:href="_component_2_hvac_relay_outputs_8h.html" target="_top" xlink:title=" ">
<polygon fill="white" stroke="#666666" points="215.88,-88 72.38,-88 72.38,-56 215.88,-56 215.88,-88"/>
<text text-anchor="start" x="80.38" y="-74.5" font-family="Helvetica,sans-Serif" font-size="10.00">Storm/Component/HvacRelay</text>
<text text-anchor="middle" x="144.12" y="-62.5" font-family="Helvetica,sans-Serif" font-size="10.00">Outputs.h</text>
</a>
</g>
</g>
<!-- Node5&#45;&gt;Node17 -->
<g id="edge24_Node000005_Node000017" class="edge">
<title>Node5&#45;&gt;Node17</title>
<g id="a_edge24_Node000005_Node000017"><a xlink:title=" ">
<path fill="none" stroke="#63b8ff" d="M745.64,-327.92C632.78,-317.4 390.62,-331.31 303.12,-292 223.41,-256.19 203.37,-232.5 161.12,-156 149.25,-134.5 145.63,-105.73 144.56,-88.32"/>
<polygon fill="#63b8ff" stroke="#63b8ff" points="744.98,-331.37 755.29,-328.94 745.71,-324.41 744.98,-331.37"/>
</a>
</g>
</g>
<!-- Node18 -->
<g id="Node000018" class="node">
<title>Node18</title>
<g id="a_Node000018"><a xlink:href="_idt_selection_8h.html" target="_top" xlink:title=" ">
<polygon fill="white" stroke="#666666" points="327.62,-150 170.62,-150 170.62,-130 327.62,-130 327.62,-150"/>
<text text-anchor="middle" x="249.12" y="-136.5" font-family="Helvetica,sans-Serif" font-size="10.00">Storm/Component/IdtSelection.h</text>
</a>
</g>
</g>
<!-- Node5&#45;&gt;Node18 -->
<g id="edge26_Node000005_Node000018" class="edge">
<title>Node5&#45;&gt;Node18</title>
<g id="a_edge26_Node000005_Node000018"><a xlink:title=" ">
<path fill="none" stroke="#63b8ff" d="M745.57,-327.94C641.15,-318.59 416.39,-337.9 342.12,-292 286.86,-257.84 259.52,-177.41 251.61,-150.19"/>
<polygon fill="#63b8ff" stroke="#63b8ff" points="744.98,-331.4 755.29,-328.96 745.71,-324.44 744.98,-331.4"/>
</a>
</g>
</g>
<!-- Node19 -->
<g id="Node000019" class="node">
<title>Node19</title>
<g id="a_Node000019"><a xlink:href="_component_2_operating_mode_8h.html" target="_top" xlink:title=" ">
<polygon fill="white" stroke="#666666" points="493,-88 353.25,-88 353.25,-56 493,-56 493,-88"/>
<text text-anchor="start" x="361.25" y="-74.5" font-family="Helvetica,sans-Serif" font-size="10.00">Storm/Component/Operating</text>
<text text-anchor="middle" x="423.12" y="-62.5" font-family="Helvetica,sans-Serif" font-size="10.00">Mode.h</text>
</a>
</g>
</g>
<!-- Node5&#45;&gt;Node19 -->
<g id="edge28_Node000005_Node000019" class="edge">
<title>Node5&#45;&gt;Node19</title>
<g id="a_edge28_Node000005_Node000019"><a xlink:title=" ">
<path fill="none" stroke="#63b8ff" d="M745.52,-327.58C661.24,-314.47 518.78,-292.28 518.12,-292 445.77,-260.62 418.94,-233.47 404.12,-156 401.45,-142.03 401.6,-138 404.12,-124 406.37,-111.54 411.47,-98.15 415.82,-88.22"/>
<polygon fill="#63b8ff" stroke="#63b8ff" points="744.84,-331.02 755.26,-329.09 745.92,-324.1 744.84,-331.02"/>
</a>
</g>
</g>
<!-- Node20 -->
<g id="Node000020" class="node">
<title>Node20</title>
<g id="a_Node000020"><a xlink:href="_pi_8h.html" target="_top" xlink:title=" ">
<polygon fill="white" stroke="#666666" points="639.62,-82 524.62,-82 524.62,-62 639.62,-62 639.62,-82"/>
<text text-anchor="middle" x="582.12" y="-68.5" font-family="Helvetica,sans-Serif" font-size="10.00">Storm/Component/Pi.h</text>
</a>
</g>
</g>
<!-- Node5&#45;&gt;Node20 -->
<g id="edge30_Node000005_Node000020" class="edge">
<title>Node5&#45;&gt;Node20</title>
<g id="a_edge30_Node000005_Node000020"><a xlink:title=" ">
<path fill="none" stroke="#63b8ff" d="M745.97,-327.14C693.44,-317.98 621.58,-304 595.12,-292 503.17,-250.28 458.36,-246.28 413.12,-156 406.75,-143.28 404.64,-135.42 413.12,-124 420.98,-113.42 494.57,-94.04 542.02,-82.45"/>
<polygon fill="#63b8ff" stroke="#63b8ff" points="745.26,-330.56 755.71,-328.81 746.45,-323.66 745.26,-330.56"/>
</a>
</g>
</g>
<!-- Node21 -->
<g id="Node000021" class="node">
<title>Node21</title>
<g id="a_Node000021"><a xlink:href="_pi_pre_process_8h.html" target="_top" xlink:title=" ">
<polygon fill="white" stroke="#666666" points="1274.12,-150 1108.12,-150 1108.12,-130 1274.12,-130 1274.12,-150"/>
<text text-anchor="middle" x="1191.12" y="-136.5" font-family="Helvetica,sans-Serif" font-size="10.00">Storm/Component/PiPreProcess.h</text>
</a>
</g>
</g>
<!-- Node5&#45;&gt;Node21 -->
<g id="edge32_Node000005_Node000021" class="edge">
<title>Node5&#45;&gt;Node21</title>
<g id="a_edge32_Node000005_Node000021"><a xlink:title=" ">
<path fill="none" stroke="#63b8ff" d="M833.24,-322.11C848.2,-313.66 866.95,-302.67 883.12,-292 945.45,-250.88 951.29,-225.29 1018.12,-192 1058.07,-172.11 1107.14,-158.56 1142.81,-150.45"/>
<polygon fill="#63b8ff" stroke="#63b8ff" points="831.92,-318.84 824.9,-326.78 835.33,-324.95 831.92,-318.84"/>
</a>
</g>
</g>
<!-- Node22 -->
<g id="Node000022" class="node">
<title>Node22</title>
<g id="a_Node000022"><a xlink:href="_model_points_8h.html" target="_top" xlink:title="This file defines all of the Model Points for the Thermostat Application.">
<polygon fill="white" stroke="#666666" points="1407.75,-286 1248.5,-286 1248.5,-266 1407.75,-266 1407.75,-286"/>
<text text-anchor="middle" x="1328.12" y="-272.5" font-family="Helvetica,sans-Serif" font-size="10.00">Storm/Thermostat/ModelPoints.h</text>
</a>
</g>
</g>
<!-- Node5&#45;&gt;Node22 -->
<g id="edge36_Node000005_Node000022" class="edge">
<title>Node5&#45;&gt;Node22</title>
<g id="a_edge36_Node000005_Node000022"><a xlink:title=" ">
<path fill="none" stroke="#63b8ff" d="M866.57,-330.05C960.93,-319.21 1143.3,-298.24 1248.34,-286.17"/>
<polygon fill="#63b8ff" stroke="#63b8ff" points="866.27,-326.56 856.74,-331.18 867.07,-333.52 866.27,-326.56"/>
</a>
</g>
</g>
<!-- Node8 -->
<g id="Node000008" class="node">
<title>Node8</title>
<g id="a_Node000008"><a xlink:href="_cooling_8h.html" target="_top" xlink:title=" ">
<polygon fill="white" stroke="#666666" points="728.25,-156 584,-156 584,-124 728.25,-124 728.25,-156"/>
<text text-anchor="start" x="592" y="-142.5" font-family="Helvetica,sans-Serif" font-size="10.00">Storm/Component/Equipment</text>
<text text-anchor="middle" x="656.12" y="-130.5" font-family="Helvetica,sans-Serif" font-size="10.00">/Cooling.h</text>
</a>
</g>
</g>
<!-- Node7&#45;&gt;Node8 -->
<g id="edge7_Node000007_Node000008" class="edge">
<title>Node7&#45;&gt;Node8</title>
<g id="a_edge7_Node000007_Node000008"><a xlink:title=" ">
<path fill="none" stroke="#63b8ff" d="M784.7,-258.75C772.07,-248.96 755.91,-236.1 742.12,-224 716.39,-201.42 688.1,-173.47 671.24,-156.45"/>
<polygon fill="#63b8ff" stroke="#63b8ff" points="782.31,-261.32 792.37,-264.64 786.57,-255.77 782.31,-261.32"/>
</a>
</g>
</g>
<!-- Node9 -->
<g id="Node000009" class="node">
<title>Node9</title>
<g id="a_Node000009"><a xlink:href="_algorithm_8h.html" target="_top" xlink:title=" ">
<polygon fill="white" stroke="#666666" points="829.38,-20 682.88,-20 682.88,0 829.38,0 829.38,-20"/>
<text text-anchor="middle" x="756.12" y="-6.5" font-family="Helvetica,sans-Serif" font-size="10.00">Storm/Thermostat/Algorithm.h</text>
</a>
</g>
</g>
<!-- Node7&#45;&gt;Node9 -->
<g id="edge21_Node000007_Node000009" class="edge">
<title>Node7&#45;&gt;Node9</title>
<g id="a_edge21_Node000007_Node000009"><a xlink:title=" ">
<path fill="none" stroke="#63b8ff" d="M791.86,-256.23C785.62,-247.01 778.89,-235.44 775.12,-224 750.32,-148.52 753.71,-50.39 755.49,-20.22"/>
<polygon fill="#63b8ff" stroke="#63b8ff" points="788.95,-258.18 797.62,-264.28 794.65,-254.11 788.95,-258.18"/>
</a>
</g>
</g>
<!-- Node10 -->
<g id="Node000010" class="node">
<title>Node10</title>
<g id="a_Node000010"><a xlink:href="_indoor_heating_8h.html" target="_top" xlink:title=" ">
<polygon fill="white" stroke="#666666" points="928.25,-156 784,-156 784,-124 928.25,-124 928.25,-156"/>
<text text-anchor="start" x="792" y="-142.5" font-family="Helvetica,sans-Serif" font-size="10.00">Storm/Component/Equipment</text>
<text text-anchor="middle" x="856.12" y="-130.5" font-family="Helvetica,sans-Serif" font-size="10.00">/IndoorHeating.h</text>
</a>
</g>
</g>
<!-- Node7&#45;&gt;Node10 -->
<g id="edge9_Node000007_Node000010" class="edge">
<title>Node7&#45;&gt;Node10</title>
<g id="a_edge9_Node000007_Node000010"><a xlink:title=" ">
<path fill="none" stroke="#63b8ff" d="M882.07,-262.15C903.41,-254.65 924.28,-242.79 937.12,-224 945.15,-212.26 944,-204.45 937.12,-192 928.37,-176.14 912.39,-164.54 896.92,-156.45"/>
<polygon fill="#63b8ff" stroke="#63b8ff" points="881.16,-258.76 872.69,-265.13 883.28,-265.44 881.16,-258.76"/>
</a>
</g>
</g>
<!-- Node11 -->
<g id="Node000011" class="node">
<title>Node11</title>
<g id="a_Node000011"><a xlink:href="_off_8h.html" target="_top" xlink:title=" ">
<polygon fill="white" stroke="#666666" points="566.25,-156 422,-156 422,-124 566.25,-124 566.25,-156"/>
<text text-anchor="start" x="430" y="-142.5" font-family="Helvetica,sans-Serif" font-size="10.00">Storm/Component/Equipment</text>
<text text-anchor="middle" x="494.12" y="-130.5" font-family="Helvetica,sans-Serif" font-size="10.00">/Off.h</text>
</a>
</g>
</g>
<!-- Node7&#45;&gt;Node11 -->
<g id="edge11_Node000007_Node000011" class="edge">
<title>Node7&#45;&gt;Node11</title>
<g id="a_edge11_Node000007_Node000011"><a xlink:title=" ">
<path fill="none" stroke="#63b8ff" d="M773.66,-261.06C714.86,-235.8 591.16,-182.68 529.97,-156.39"/>
<polygon fill="#63b8ff" stroke="#63b8ff" points="772.23,-264.25 782.8,-264.98 774.99,-257.82 772.23,-264.25"/>
</a>
</g>
</g>
<!-- Node12 -->
<g id="Node000012" class="node">
<title>Node12</title>
<g id="a_Node000012"><a xlink:href="_stage_api_8h.html" target="_top" xlink:title=" ">
<polygon fill="white" stroke="#666666" points="928.25,-224 784,-224 784,-192 928.25,-192 928.25,-224"/>
<text text-anchor="start" x="792" y="-210.5" font-family="Helvetica,sans-Serif" font-size="10.00">Storm/Component/Equipment</text>
<text text-anchor="middle" x="856.12" y="-198.5" font-family="Helvetica,sans-Serif" font-size="10.00">/StageApi.h</text>
</a>
</g>
</g>
<!-- Node7&#45;&gt;Node12 -->
<g id="edge13_Node000007_Node000012" class="edge">
<title>Node7&#45;&gt;Node12</title>
<g id="a_edge13_Node000007_Node000012"><a xlink:title=" ">
<path fill="none" stroke="#63b8ff" d="M820.01,-256.67C827.73,-246.48 837.22,-233.96 844.53,-224.3"/>
<polygon fill="#63b8ff" stroke="#63b8ff" points="817.45,-254.25 814.2,-264.34 823.03,-258.48 817.45,-254.25"/>
</a>
</g>
</g>
<!-- Node8&#45;&gt;Node9 -->
<g id="edge8_Node000008_Node000009" class="edge">
<title>Node8&#45;&gt;Node9</title>
<g id="a_edge8_Node000008_Node000009"><a xlink:title=" ">
<path fill="none" stroke="#63b8ff" d="M675.2,-114.58C697.57,-85.95 733.52,-39.93 748.84,-20.33"/>
<polygon fill="#63b8ff" stroke="#63b8ff" points="672.52,-112.33 669.12,-122.37 678.03,-116.64 672.52,-112.33"/>
</a>
</g>
</g>
<!-- Node10&#45;&gt;Node9 -->
<g id="edge10_Node000010_Node000009" class="edge">
<title>Node10&#45;&gt;Node9</title>
<g id="a_edge10_Node000010_Node000009"><a xlink:title=" ">
<path fill="none" stroke="#63b8ff" d="M837.05,-114.58C814.68,-85.95 778.73,-39.93 763.41,-20.33"/>
<polygon fill="#63b8ff" stroke="#63b8ff" points="834.22,-116.64 843.13,-122.37 839.73,-112.33 834.22,-116.64"/>
</a>
</g>
</g>
<!-- Node11&#45;&gt;Node9 -->
<g id="edge12_Node000011_Node000009" class="edge">
<title>Node11&#45;&gt;Node9</title>
<g id="a_edge12_Node000011_Node000009"><a xlink:title=" ">
<path fill="none" stroke="#63b8ff" d="M565.47,-120.26C592.12,-112 622.19,-101.16 648.12,-88 653.23,-85.41 715.66,-40.32 743.21,-20.37"/>
<polygon fill="#63b8ff" stroke="#63b8ff" points="564.67,-116.84 556.11,-123.08 566.7,-123.54 564.67,-116.84"/>
</a>
</g>
</g>
<!-- Node12&#45;&gt;Node8 -->
<g id="edge14_Node000012_Node000008" class="edge">
<title>Node12&#45;&gt;Node8</title>
<g id="a_edge14_Node000012_Node000008"><a xlink:title=" ">
<path fill="none" stroke="#63b8ff" d="M798.4,-187.95C768.14,-177.97 731.56,-165.89 703.07,-156.49"/>
<polygon fill="#63b8ff" stroke="#63b8ff" points="797.2,-191.24 807.8,-191.05 799.4,-184.59 797.2,-191.24"/>
</a>
</g>
</g>
<!-- Node12&#45;&gt;Node10 -->
<g id="edge15_Node000012_Node000010" class="edge">
<title>Node12&#45;&gt;Node10</title>
<g id="a_edge15_Node000012_Node000010"><a xlink:title=" ">
<path fill="none" stroke="#63b8ff" d="M856.12,-180.31C856.12,-172.12 856.12,-163.38 856.12,-156.22"/>
<polygon fill="#63b8ff" stroke="#63b8ff" points="852.63,-180.18 856.13,-190.18 859.63,-180.18 852.63,-180.18"/>
</a>
</g>
</g>
<!-- Node13 -->
<g id="Node000013" class="node">
<title>Node13</title>
<g id="a_Node000013"><a xlink:href="_storm_2_component_2_equipment_2_stage_2_basic_8h.html" target="_top" xlink:title=" ">
<polygon fill="white" stroke="#666666" points="1090.25,-156 946,-156 946,-124 1090.25,-124 1090.25,-156"/>
<text text-anchor="start" x="954" y="-142.5" font-family="Helvetica,sans-Serif" font-size="10.00">Storm/Component/Equipment</text>
<text text-anchor="middle" x="1018.12" y="-130.5" font-family="Helvetica,sans-Serif" font-size="10.00">/Stage/Basic.h</text>
</a>
</g>
</g>
<!-- Node12&#45;&gt;Node13 -->
<g id="edge16_Node000012_Node000013" class="edge">
<title>Node12&#45;&gt;Node13</title>
<g id="a_edge16_Node000012_Node000013"><a xlink:title=" ">
<path fill="none" stroke="#63b8ff" d="M904.5,-187.29C928.69,-177.44 957.53,-165.69 980.1,-156.49"/>
<polygon fill="#63b8ff" stroke="#63b8ff" points="903.45,-183.94 895.51,-190.95 906.09,-190.42 903.45,-183.94"/>
</a>
</g>
</g>
<!-- Node14 -->
<g id="Node000014" class="node">
<title>Node14</title>
<g id="a_Node000014"><a xlink:href="_basic_cooling_8h.html" target="_top" xlink:title=" ">
<polygon fill="white" stroke="#666666" points="1154.25,-88 1010,-88 1010,-56 1154.25,-56 1154.25,-88"/>
<text text-anchor="start" x="1018" y="-74.5" font-family="Helvetica,sans-Serif" font-size="10.00">Storm/Component/Equipment</text>
<text text-anchor="middle" x="1082.12" y="-62.5" font-family="Helvetica,sans-Serif" font-size="10.00">/Stage/BasicCooling.h</text>
</a>
</g>
</g>
<!-- Node13&#45;&gt;Node14 -->
<g id="edge17_Node000013_Node000014" class="edge">
<title>Node13&#45;&gt;Node14</title>
<g id="a_edge17_Node000013_Node000014"><a xlink:title=" ">
<path fill="none" stroke="#63b8ff" d="M1040.98,-115.43C1049.76,-106.38 1059.54,-96.29 1067.36,-88.22"/>
<polygon fill="#63b8ff" stroke="#63b8ff" points="1038.47,-112.99 1034.02,-122.61 1043.5,-117.86 1038.47,-112.99"/>
</a>
</g>
</g>
<!-- Node15 -->
<g id="Node000015" class="node">
<title>Node15</title>
<g id="a_Node000015"><a xlink:href="_basic_indoor_heat_8h.html" target="_top" xlink:title=" ">
<polygon fill="white" stroke="#666666" points="992.25,-88 848,-88 848,-56 992.25,-56 992.25,-88"/>
<text text-anchor="start" x="856" y="-74.5" font-family="Helvetica,sans-Serif" font-size="10.00">Storm/Component/Equipment</text>
<text text-anchor="middle" x="920.12" y="-62.5" font-family="Helvetica,sans-Serif" font-size="10.00">/Stage/BasicIndoorHeat.h</text>
</a>
</g>
</g>
<!-- Node13&#45;&gt;Node15 -->
<g id="edge19_Node000013_Node000015" class="edge">
<title>Node13&#45;&gt;Node15</title>
<g id="a_edge19_Node000013_Node000015"><a xlink:title=" ">
<path fill="none" stroke="#63b8ff" d="M986.08,-117.42C972.04,-107.96 955.88,-97.08 943.07,-88.45"/>
<polygon fill="#63b8ff" stroke="#63b8ff" points="983.89,-120.16 994.14,-122.85 987.8,-114.36 983.89,-120.16"/>
</a>
</g>
</g>
<!-- Node14&#45;&gt;Node9 -->
<g id="edge18_Node000014_Node000009" class="edge">
<title>Node14&#45;&gt;Node9</title>
<g id="a_edge18_Node000014_Node000009"><a xlink:title=" ">
<path fill="none" stroke="#63b8ff" d="M998.66,-55.55C926.9,-42.32 854.91,-29.11 807.75,-20.46"/>
<polygon fill="#63b8ff" stroke="#63b8ff" points="997.75,-58.94 1008.21,-57.31 999.01,-52.05 997.75,-58.94"/>
</a>
</g>
</g>
<!-- Node15&#45;&gt;Node9 -->
<g id="edge20_Node000015_Node000009" class="edge">
<title>Node15&#45;&gt;Node9</title>
<g id="a_edge20_Node000015_Node000009"><a xlink:title=" ">
<path fill="none" stroke="#63b8ff" d="M867.23,-51.65C838.65,-41.19 804.64,-28.75 781.84,-20.41"/>
<polygon fill="#63b8ff" stroke="#63b8ff" points="865.88,-54.88 876.47,-55.03 868.28,-48.31 865.88,-54.88"/>
</a>
</g>
</g>
<!-- Node16&#45;&gt;Node9 -->
<g id="edge23_Node000016_Node000009" class="edge">
<title>Node16&#45;&gt;Node9</title>
<g id="a_edge23_Node000016_Node000009"><a xlink:title=" ">
<path fill="none" stroke="#63b8ff" d="M1227.66,-59.84C1218.42,-58.47 1209.05,-57.15 1200.12,-56 1070.07,-39.26 917.91,-24.99 829.72,-17.23"/>
<polygon fill="#63b8ff" stroke="#63b8ff" points="1226.93,-63.27 1237.34,-61.3 1227.97,-56.35 1226.93,-63.27"/>
</a>
</g>
</g>
<!-- Node17&#45;&gt;Node9 -->
<g id="edge25_Node000017_Node000009" class="edge">
<title>Node17&#45;&gt;Node9</title>
<g id="a_edge25_Node000017_Node000009"><a xlink:title=" ">
<path fill="none" stroke="#63b8ff" d="M227.5,-61.91C246.13,-59.92 265.8,-57.86 284.12,-56 424.99,-41.74 589.64,-26.33 682.52,-17.75"/>
<polygon fill="#63b8ff" stroke="#63b8ff" points="227.13,-58.43 217.55,-62.97 227.87,-65.39 227.13,-58.43"/>
</a>
</g>
</g>
<!-- Node18&#45;&gt;Node9 -->
<g id="edge27_Node000018_Node000009" class="edge">
<title>Node18&#45;&gt;Node9</title>
<g id="a_edge27_Node000018_Node000009"><a xlink:title=" ">
<path fill="none" stroke="#63b8ff" d="M263.53,-121.11C280.51,-101.43 310.69,-70.67 344.12,-56 403.1,-30.13 581.03,-18.44 682.73,-13.74"/>
<polygon fill="#63b8ff" stroke="#63b8ff" points="261,-118.68 257.27,-128.6 266.37,-123.17 261,-118.68"/>
</a>
</g>
</g>
<!-- Node19&#45;&gt;Node9 -->
<g id="edge29_Node000019_Node000009" class="edge">
<title>Node19&#45;&gt;Node9</title>
<g id="a_edge29_Node000019_Node000009"><a xlink:title=" ">
<path fill="none" stroke="#63b8ff" d="M504.65,-56.31C566.62,-45.15 650.05,-30.11 703.47,-20.49"/>
<polygon fill="#63b8ff" stroke="#63b8ff" points="504.05,-52.86 494.83,-58.08 505.29,-59.75 504.05,-52.86"/>
</a>
</g>
</g>
<!-- Node20&#45;&gt;Node9 -->
<g id="edge31_Node000020_Node000009" class="edge">
<title>Node20&#45;&gt;Node9</title>
<g id="a_edge31_Node000020_Node000009"><a xlink:title=" ">
<path fill="none" stroke="#63b8ff" d="M619.87,-57.98C652.71,-46.66 699.52,-30.52 728.84,-20.41"/>
<polygon fill="#63b8ff" stroke="#63b8ff" points="619.06,-54.56 610.74,-61.13 621.34,-61.18 619.06,-54.56"/>
</a>
</g>
</g>
<!-- Node21&#45;&gt;Node9 -->
<g id="edge35_Node000021_Node000009" class="edge">
<title>Node21&#45;&gt;Node9</title>
<g id="a_edge35_Node000021_Node000009"><a xlink:title=" ">
<path fill="none" stroke="#63b8ff" d="M1190.17,-118.29C1188.09,-99 1181.79,-71.03 1163.12,-56 1137.72,-35.55 939.62,-21.3 829.45,-14.86"/>
<polygon fill="#63b8ff" stroke="#63b8ff" points="1186.68,-118.52 1190.91,-128.23 1193.66,-118 1186.68,-118.52"/>
</a>
</g>
</g>
<!-- Node21&#45;&gt;Node14 -->
<g id="edge33_Node000021_Node000014" class="edge">
<title>Node21&#45;&gt;Node14</title>
<g id="a_edge33_Node000021_Node000014"><a xlink:title=" ">
<path fill="none" stroke="#63b8ff" d="M1165.92,-123.74C1148.34,-113.09 1124.98,-98.95 1107.4,-88.3"/>
<polygon fill="#63b8ff" stroke="#63b8ff" points="1163.85,-126.57 1174.21,-128.76 1167.47,-120.59 1163.85,-126.57"/>
</a>
</g>
</g>
<!-- Node21&#45;&gt;Node15 -->
<g id="edge34_Node000021_Node000015" class="edge">
<title>Node21&#45;&gt;Node15</title>
<g id="a_edge34_Node000021_Node000015"><a xlink:title=" ">
<path fill="none" stroke="#63b8ff" d="M1141.21,-126.84C1096.86,-116.04 1031.8,-100.2 983.73,-88.49"/>
<polygon fill="#63b8ff" stroke="#63b8ff" points="1140.28,-130.22 1150.83,-129.19 1141.94,-123.42 1140.28,-130.22"/>
</a>
</g>
</g>
<!-- Node23 -->
<g id="Node000023" class="node">
<title>Node23</title>
<g id="a_Node000023"><a xlink:href="_installer_record_8h_source.html" target="_top" xlink:title=" ">
<polygon fill="white" stroke="#666666" points="1178.12,-224 1060.12,-224 1060.12,-192 1178.12,-192 1178.12,-224"/>
<text text-anchor="start" x="1068.12" y="-210.5" font-family="Helvetica,sans-Serif" font-size="10.00">Storm/Thermostat/Main</text>
<text text-anchor="middle" x="1119.12" y="-198.5" font-family="Helvetica,sans-Serif" font-size="10.00">/InstallerRecord.h</text>
</a>
</g>
</g>
<!-- Node22&#45;&gt;Node23 -->
<g id="edge37_Node000022_Node000023" class="edge">
<title>Node22&#45;&gt;Node23</title>
<g id="a_edge37_Node000022_Node000023"><a xlink:title=" ">
<path fill="none" stroke="#63b8ff" d="M1287.63,-262.21C1253.43,-251.41 1204.36,-235.92 1167.98,-224.43"/>
<polygon fill="#63b8ff" stroke="#63b8ff" points="1286.15,-265.41 1296.74,-265.09 1288.26,-258.74 1286.15,-265.41"/>
</a>
</g>
</g>
<!-- Node25 -->
<g id="Node000025" class="node">
<title>Node25</title>
<g id="a_Node000025"><a xlink:href="_run_time_record_8h_source.html" target="_top" xlink:title=" ">
<polygon fill="white" stroke="#666666" points="1314.12,-224 1196.12,-224 1196.12,-192 1314.12,-192 1314.12,-224"/>
<text text-anchor="start" x="1204.12" y="-210.5" font-family="Helvetica,sans-Serif" font-size="10.00">Storm/Thermostat/Main</text>
<text text-anchor="middle" x="1255.12" y="-198.5" font-family="Helvetica,sans-Serif" font-size="10.00">/RunTimeRecord.h</text>
</a>
</g>
</g>
<!-- Node22&#45;&gt;Node25 -->
<g id="edge39_Node000022_Node000025" class="edge">
<title>Node22&#45;&gt;Node25</title>
<g id="a_edge39_Node000022_Node000025"><a xlink:title=" ">
<path fill="none" stroke="#63b8ff" d="M1309.23,-257.91C1297.73,-247.52 1283.17,-234.35 1272.05,-224.3"/>
<polygon fill="#63b8ff" stroke="#63b8ff" points="1306.78,-260.42 1316.54,-264.53 1311.47,-255.23 1306.78,-260.42"/>
</a>
</g>
</g>
<!-- Node26 -->
<g id="Node000026" class="node">
<title>Node26</title>
<g id="a_Node000026"><a xlink:href="_user_record_8h_source.html" target="_top" xlink:title=" ">
<polygon fill="white" stroke="#666666" points="1606.12,-224 1488.12,-224 1488.12,-192 1606.12,-192 1606.12,-224"/>
<text text-anchor="start" x="1496.12" y="-210.5" font-family="Helvetica,sans-Serif" font-size="10.00">Storm/Thermostat/Main</text>
<text text-anchor="middle" x="1547.12" y="-198.5" font-family="Helvetica,sans-Serif" font-size="10.00">/UserRecord.h</text>
</a>
</g>
</g>
<!-- Node22&#45;&gt;Node26 -->
<g id="edge41_Node000022_Node000026" class="edge">
<title>Node22&#45;&gt;Node26</title>
<g id="a_edge41_Node000022_Node000026"><a xlink:title=" ">
<path fill="none" stroke="#63b8ff" d="M1370.09,-262.35C1405.94,-251.55 1457.65,-235.97 1495.93,-224.43"/>
<polygon fill="#63b8ff" stroke="#63b8ff" points="1369.52,-258.87 1360.95,-265.11 1371.54,-265.57 1369.52,-258.87"/>
</a>
</g>
</g>
<!-- Node27 -->
<g id="Node000027" class="node">
<title>Node27</title>
<g id="a_Node000027"><a xlink:href="_event_monitor_8h_source.html" target="_top" xlink:title=" ">
<polygon fill="white" stroke="#666666" points="1470.25,-224 1332,-224 1332,-192 1470.25,-192 1470.25,-224"/>
<text text-anchor="start" x="1340" y="-210.5" font-family="Helvetica,sans-Serif" font-size="10.00">Storm/Thermostat/Ui</text>
<text text-anchor="middle" x="1401.12" y="-198.5" font-family="Helvetica,sans-Serif" font-size="10.00">/PicoDisplay/EventMonitor.h</text>
</a>
</g>
</g>
<!-- Node22&#45;&gt;Node27 -->
<g id="edge43_Node000022_Node000027" class="edge">
<title>Node22&#45;&gt;Node27</title>
<g id="a_edge43_Node000022_Node000027"><a xlink:title=" ">
<path fill="none" stroke="#63b8ff" d="M1347.02,-257.91C1358.52,-247.52 1373.08,-234.35 1384.2,-224.3"/>
<polygon fill="#63b8ff" stroke="#63b8ff" points="1344.78,-255.23 1339.71,-264.53 1349.47,-260.42 1344.78,-255.23"/>
</a>
</g>
</g>
<!-- Node24 -->
<g id="Node000024" class="node">
<title>Node24</title>
<g id="a_Node000024"><a xlink:href="statics___8h.html" target="_top" xlink:title="This file defines/creates persistent records and record server for the Thermostat simulation.">
<polygon fill="white" stroke="#666666" points="1448.12,-156 1330.12,-156 1330.12,-124 1448.12,-124 1448.12,-156"/>
<text text-anchor="start" x="1338.12" y="-142.5" font-family="Helvetica,sans-Serif" font-size="10.00">Storm/Thermostat/Main</text>
<text text-anchor="middle" x="1389.12" y="-130.5" font-family="Helvetica,sans-Serif" font-size="10.00">/_simulation/statics_.h</text>
</a>
</g>
</g>
<!-- Node23&#45;&gt;Node24 -->
<g id="edge38_Node000023_Node000024" class="edge">
<title>Node23&#45;&gt;Node24</title>
<g id="a_edge38_Node000023_Node000024"><a xlink:title=" ">
<path fill="none" stroke="#63b8ff" d="M1189.49,-189.8C1233.16,-179.13 1288.63,-165.57 1330.01,-155.45"/>
<polygon fill="#63b8ff" stroke="#63b8ff" points="1188.73,-186.38 1179.85,-192.16 1190.39,-193.18 1188.73,-186.38"/>
</a>
</g>
</g>
<!-- Node25&#45;&gt;Node24 -->
<g id="edge40_Node000025_Node000024" class="edge">
<title>Node25&#45;&gt;Node24</title>
<g id="a_edge40_Node000025_Node000024"><a xlink:title=" ">
<path fill="none" stroke="#63b8ff" d="M1296.8,-186.47C1316.54,-176.75 1339.71,-165.34 1357.9,-156.38"/>
<polygon fill="#63b8ff" stroke="#63b8ff" points="1295.32,-183.3 1287.9,-190.86 1298.42,-189.58 1295.32,-183.3"/>
</a>
</g>
</g>
<!-- Node26&#45;&gt;Node24 -->
<g id="edge42_Node000026_Node000024" class="edge">
<title>Node26&#45;&gt;Node24</title>
<g id="a_edge42_Node000026_Node000024"><a xlink:title=" ">
<path fill="none" stroke="#63b8ff" d="M1499.63,-187.16C1476.1,-177.33 1448.13,-165.65 1426.21,-156.49"/>
<polygon fill="#63b8ff" stroke="#63b8ff" points="1498.11,-190.32 1508.68,-190.94 1500.81,-183.86 1498.11,-190.32"/>
</a>
</g>
</g>
<!-- Node30&#45;&gt;Node22 -->
<g id="edge55_Node000030_Node000022" class="edge">
<title>Node30&#45;&gt;Node22</title>
<g id="a_edge55_Node000030_Node000022"><a xlink:title=" ">
<path fill="none" stroke="#63b8ff" d="M1477.05,-324.28C1441.34,-312.94 1389.89,-296.61 1357.76,-286.41"/>
<polygon fill="#63b8ff" stroke="#63b8ff" points="1475.56,-327.48 1486.15,-327.17 1477.68,-320.81 1475.56,-327.48"/>
</a>
</g>
</g>
<!-- Node31 -->
<g id="Node000031" class="node">
<title>Node31</title>
<g id="a_Node000031"><a xlink:href="_ring_buffer_m_p_8h.html" target="_top" xlink:title=" ">
<polygon fill="white" stroke="#666666" points="1874.62,-286 1729.62,-286 1729.62,-266 1874.62,-266 1874.62,-286"/>
<text text-anchor="middle" x="1802.12" y="-272.5" font-family="Helvetica,sans-Serif" font-size="10.00">Cpl/Container/RingBufferMP.h</text>
</a>
</g>
</g>
<!-- Node30&#45;&gt;Node31 -->
<g id="edge47_Node000030_Node000031" class="edge">
<title>Node30&#45;&gt;Node31</title>
<g id="a_edge47_Node000030_Node000031"><a xlink:title=" ">
<path fill="none" stroke="#63b8ff" d="M1573.03,-325.23C1626.86,-313.9 1707.23,-296.98 1757.07,-286.48"/>
<polygon fill="#63b8ff" stroke="#63b8ff" points="1572.52,-321.76 1563.45,-327.25 1573.96,-328.61 1572.52,-321.76"/>
</a>
</g>
</g>
<!-- Node32 -->
<g id="Node000032" class="node">
<title>Node32</title>
<g id="a_Node000032"><a xlink:href="_cpl_2_logging_2_api_8h.html" target="_top" xlink:title=" ">
<polygon fill="white" stroke="#666666" points="1754.38,-218 1661.88,-218 1661.88,-198 1754.38,-198 1754.38,-218"/>
<text text-anchor="middle" x="1708.12" y="-204.5" font-family="Helvetica,sans-Serif" font-size="10.00">Cpl/Logging/Api.h</text>
</a>
</g>
</g>
<!-- Node30&#45;&gt;Node32 -->
<g id="edge52_Node000030_Node000032" class="edge">
<title>Node30&#45;&gt;Node32</title>
<g id="a_edge52_Node000030_Node000032"><a xlink:title=" ">
<path fill="none" stroke="#63b8ff" d="M1577.85,-324.51C1601.37,-317.62 1627.53,-307.27 1648.12,-292 1675.41,-271.78 1695.38,-235.53 1703.76,-218.42"/>
<polygon fill="#63b8ff" stroke="#63b8ff" points="1577.07,-321.09 1568.36,-327.12 1578.93,-327.84 1577.07,-321.09"/>
</a>
</g>
</g>
<!-- Node36 -->
<g id="Node000036" class="node">
<title>Node36</title>
<g id="a_Node000036"><a xlink:href="_air_filter_monitor_8h.html" target="_top" xlink:title=" ">
<polygon fill="white" stroke="#666666" points="1610.88,-88 1479.38,-88 1479.38,-56 1610.88,-56 1610.88,-88"/>
<text text-anchor="start" x="1487.38" y="-74.5" font-family="Helvetica,sans-Serif" font-size="10.00">Storm/Component/AirFilter</text>
<text text-anchor="middle" x="1545.12" y="-62.5" font-family="Helvetica,sans-Serif" font-size="10.00">Monitor.h</text>
</a>
</g>
</g>
<!-- Node30&#45;&gt;Node36 -->
<g id="edge53_Node000030_Node000036" class="edge">
<title>Node30&#45;&gt;Node36</title>
<g id="a_edge53_Node000030_Node000036"><a xlink:title=" ">
<path fill="none" stroke="#63b8ff" d="M1538.61,-320.52C1562.55,-300.65 1599.89,-264.81 1615.12,-224 1634.22,-172.84 1586.97,-114.91 1560.92,-88.1"/>
<polygon fill="#63b8ff" stroke="#63b8ff" points="1536.64,-317.61 1531.05,-326.61 1541.03,-323.06 1536.64,-317.61"/>
</a>
</g>
</g>
<!-- Node31&#45;&gt;Node32 -->
<g id="edge48_Node000031_Node000032" class="edge">
<title>Node31&#45;&gt;Node32</title>
<g id="a_edge48_Node000031_Node000032"><a xlink:title=" ">
<path fill="none" stroke="#63b8ff" d="M1779.4,-259.04C1761.32,-246.35 1736.63,-229.02 1721.57,-218.44"/>
<polygon fill="#63b8ff" stroke="#63b8ff" points="1777.22,-261.79 1787.42,-264.67 1781.25,-256.06 1777.22,-261.79"/>
</a>
</g>
</g>
<!-- Node33 -->
<g id="Node000033" class="node">
<title>Node33</title>
<g id="a_Node000033"><a xlink:href="_log_sink_8h.html" target="_top" xlink:title=" ">
<polygon fill="white" stroke="#666666" points="1885.88,-218 1772.38,-218 1772.38,-198 1885.88,-198 1885.88,-218"/>
<text text-anchor="middle" x="1829.12" y="-204.5" font-family="Helvetica,sans-Serif" font-size="10.00">Cpl/Logging/LogSink.h</text>
</a>
</g>
</g>
<!-- Node31&#45;&gt;Node33 -->
<g id="edge49_Node000031_Node000033" class="edge">
<title>Node31&#45;&gt;Node33</title>
<g id="a_edge49_Node000031_Node000033"><a xlink:title=" ">
<path fill="none" stroke="#63b8ff" d="M1810.29,-255.03C1815.26,-242.89 1821.38,-227.94 1825.26,-218.44"/>
<polygon fill="#63b8ff" stroke="#63b8ff" points="1807.11,-253.56 1806.57,-264.14 1813.59,-256.21 1807.11,-253.56"/>
</a>
</g>
</g>
<!-- Node34 -->
<g id="Node000034" class="node">
<title>Node34</title>
<g id="a_Node000034"><a xlink:href="_indexed_entry_server_8h.html" target="_top" xlink:title=" ">
<polygon fill="white" stroke="#666666" points="2041.88,-224 1904.38,-224 1904.38,-192 2041.88,-192 2041.88,-224"/>
<text text-anchor="start" x="1912.38" y="-210.5" font-family="Helvetica,sans-Serif" font-size="10.00">Cpl/Persistent/IndexedEntry</text>
<text text-anchor="middle" x="1973.12" y="-198.5" font-family="Helvetica,sans-Serif" font-size="10.00">Server.h</text>
</a>
</g>
</g>
<!-- Node31&#45;&gt;Node34 -->
<g id="edge50_Node000031_Node000034" class="edge">
<title>Node31&#45;&gt;Node34</title>
<g id="a_edge50_Node000031_Node000034"><a xlink:title=" ">
<path fill="none" stroke="#63b8ff" d="M1837.09,-261.51C1864.97,-250.74 1904.03,-235.67 1933.15,-224.43"/>
<polygon fill="#63b8ff" stroke="#63b8ff" points="1836.11,-258.13 1828.04,-265 1838.63,-264.66 1836.11,-258.13"/>
</a>
</g>
</g>
<!-- Node35 -->
<g id="Node000035" class="node">
<title>Node35</title>
<g id="a_Node000035"><a xlink:href="_cpl_2_logging_2_t_shell_2_log_8h.html" target="_top" xlink:title=" ">
<polygon fill="white" stroke="#666666" points="2021.62,-156 1924.62,-156 1924.62,-124 2021.62,-124 2021.62,-156"/>
<text text-anchor="start" x="1932.62" y="-142.5" font-family="Helvetica,sans-Serif" font-size="10.00">Cpl/Logging/TShell</text>
<text text-anchor="middle" x="1973.12" y="-130.5" font-family="Helvetica,sans-Serif" font-size="10.00">/Log.h</text>
</a>
</g>
</g>
<!-- Node34&#45;&gt;Node35 -->
<g id="edge51_Node000034_Node000035" class="edge">
<title>Node34&#45;&gt;Node35</title>
<g id="a_edge51_Node000034_Node000035"><a xlink:title=" ">
<path fill="none" stroke="#63b8ff" d="M1973.12,-180.31C1973.12,-172.12 1973.12,-163.38 1973.12,-156.22"/>
<polygon fill="#63b8ff" stroke="#63b8ff" points="1969.63,-180.18 1973.13,-190.18 1976.63,-180.18 1969.63,-180.18"/>
</a>
</g>
</g>
<!-- Node36&#45;&gt;Node9 -->
<g id="edge54_Node000036_Node000009" class="edge">
<title>Node36&#45;&gt;Node9</title>
<g id="a_edge54_Node000036_Node000009"><a xlink:title=" ">
<path fill="none" stroke="#63b8ff" d="M1467.58,-63.54C1440.55,-61.03 1410.01,-58.28 1382.12,-56 1182.31,-39.63 946.33,-23.54 829.41,-15.79"/>
<polygon fill="#63b8ff" stroke="#63b8ff" points="1467.14,-67.02 1477.42,-64.46 1467.79,-60.05 1467.14,-67.02"/>
</a>
</g>
</g>
<!-- Node38 -->
<g id="Node000038" class="node">
<title>Node38</title>
<g id="a_Node000038"><a xlink:href="_indexed_entry_record_8h.html" target="_top" xlink:title=" ">
<polygon fill="white" stroke="#666666" points="2035.88,-292 1898.38,-292 1898.38,-260 2035.88,-260 2035.88,-292"/>
<text text-anchor="start" x="1906.38" y="-278.5" font-family="Helvetica,sans-Serif" font-size="10.00">Cpl/Persistent/IndexedEntry</text>
<text text-anchor="middle" x="1967.12" y="-266.5" font-family="Helvetica,sans-Serif" font-size="10.00">Record.h</text>
</a>
</g>
</g>
<!-- Node37&#45;&gt;Node38 -->
<g id="edge57_Node000037_Node000038" class="edge">
<title>Node37&#45;&gt;Node38</title>
<g id="a_edge57_Node000037_Node000038"><a xlink:title=" ">
<path fill="none" stroke="#63b8ff" d="M1701.95,-325.51C1758.09,-315.24 1840.18,-300.22 1898.12,-289.62"/>
<polygon fill="#63b8ff" stroke="#63b8ff" points="1701.43,-322.04 1692.22,-327.29 1702.69,-328.93 1701.43,-322.04"/>
</a>
</g>
</g>
<!-- Node38&#45;&gt;Node34 -->
<g id="edge58_Node000038_Node000034" class="edge">
<title>Node38&#45;&gt;Node34</title>
<g id="a_edge58_Node000038_Node000034"><a xlink:title=" ">
<path fill="none" stroke="#63b8ff" d="M1969.55,-248.31C1970.3,-240.12 1971.09,-231.38 1971.74,-224.22"/>
<polygon fill="#63b8ff" stroke="#63b8ff" points="1966.07,-247.91 1968.65,-258.19 1973.04,-248.54 1966.07,-247.91"/>
</a>
</g>
</g>
</g>
</svg>
