<?xml version="1.0" encoding="UTF-8" standalone="no"?>
<!DOCTYPE svg PUBLIC "-//W3C//DTD SVG 1.1//EN"
 "http://www.w3.org/Graphics/SVG/1.1/DTD/svg11.dtd">
<!-- Generated by graphviz version 10.0.1 (20240210.2158)
 -->
<!-- Title: Cpl/Io/File/ObjectApi.h Pages: 1 -->
<svg width="372pt" height="196pt"
 viewBox="0.00 0.00 371.88 196.00" xmlns="http://www.w3.org/2000/svg" xmlns:xlink="http://www.w3.org/1999/xlink">
<g id="graph0" class="graph" transform="scale(1 1) rotate(0) translate(4 192)">
<title>Cpl/Io/File/ObjectApi.h</title>
<!-- Node1 -->
<g id="Node000001" class="node">
<title>Node1</title>
<g id="a_Node000001"><a xlink:title=" ">
<polygon fill="#999999" stroke="#666666" points="234.62,-188 121.12,-188 121.12,-168 234.62,-168 234.62,-188"/>
<text text-anchor="middle" x="177.88" y="-174.5" font-family="Helvetica,sans-Serif" font-size="10.00">Cpl/Io/File/ObjectApi.h</text>
</a>
</g>
</g>
<!-- Node2 -->
<g id="Node000002" class="node">
<title>Node2</title>
<g id="a_Node000002"><a xlink:href="_input_api_8h.html" target="_top" xlink:title=" ">
<polygon fill="white" stroke="#666666" points="166.88,-132 60.88,-132 60.88,-112 166.88,-112 166.88,-132"/>
<text text-anchor="middle" x="113.88" y="-118.5" font-family="Helvetica,sans-Serif" font-size="10.00">Cpl/Io/File/InputApi.h</text>
</a>
</g>
</g>
<!-- Node1&#45;&gt;Node2 -->
<g id="edge1_Node000001_Node000002" class="edge">
<title>Node1&#45;&gt;Node2</title>
<g id="a_edge1_Node000001_Node000002"><a xlink:title=" ">
<path fill="none" stroke="#63b8ff" d="M158.2,-160.4C147.26,-151.17 134.03,-140.01 124.9,-132.3"/>
<polygon fill="#63b8ff" stroke="#63b8ff" points="155.67,-162.84 165.57,-166.62 160.18,-157.49 155.67,-162.84"/>
</a>
</g>
</g>
<!-- Node7 -->
<g id="Node000007" class="node">
<title>Node7</title>
<g id="a_Node000007"><a xlink:href="_output_api_8h.html" target="_top" xlink:title=" ">
<polygon fill="white" stroke="#666666" points="299,-132 184.75,-132 184.75,-112 299,-112 299,-132"/>
<text text-anchor="middle" x="241.88" y="-118.5" font-family="Helvetica,sans-Serif" font-size="10.00">Cpl/Io/File/OutputApi.h</text>
</a>
</g>
</g>
<!-- Node1&#45;&gt;Node7 -->
<g id="edge6_Node000001_Node000007" class="edge">
<title>Node1&#45;&gt;Node7</title>
<g id="a_edge6_Node000001_Node000007"><a xlink:title=" ">
<path fill="none" stroke="#63b8ff" d="M197.55,-160.4C208.49,-151.17 221.72,-140.01 230.85,-132.3"/>
<polygon fill="#63b8ff" stroke="#63b8ff" points="195.57,-157.49 190.18,-166.62 200.08,-162.84 195.57,-157.49"/>
</a>
</g>
</g>
<!-- Node3 -->
<g id="Node000003" class="node">
<title>Node3</title>
<g id="a_Node000003"><a xlink:href="_file_2_input_8h.html" target="_top" xlink:title=" ">
<polygon fill="white" stroke="#666666" points="91.75,-76 0,-76 0,-56 91.75,-56 91.75,-76"/>
<text text-anchor="middle" x="45.88" y="-62.5" font-family="Helvetica,sans-Serif" font-size="10.00">Cpl/Io/File/Input.h</text>
</a>
</g>
</g>
<!-- Node2&#45;&gt;Node3 -->
<g id="edge2_Node000002_Node000003" class="edge">
<title>Node2&#45;&gt;Node3</title>
<g id="a_edge2_Node000002_Node000003"><a xlink:title=" ">
<path fill="none" stroke="#63b8ff" d="M93.32,-104.68C81.62,-95.39 67.39,-84.09 57.58,-76.3"/>
<polygon fill="#63b8ff" stroke="#63b8ff" points="90.84,-107.17 100.85,-110.65 95.19,-101.69 90.84,-107.17"/>
</a>
</g>
</g>
<!-- Node4 -->
<g id="Node000004" class="node">
<title>Node4</title>
<g id="a_Node000004"><a xlink:href="_input_output_api_8h.html" target="_top" xlink:title=" ">
<polygon fill="white" stroke="#666666" points="245.5,-76 110.25,-76 110.25,-56 245.5,-56 245.5,-76"/>
<text text-anchor="middle" x="177.88" y="-62.5" font-family="Helvetica,sans-Serif" font-size="10.00">Cpl/Io/File/InputOutputApi.h</text>
</a>
</g>
</g>
<!-- Node2&#45;&gt;Node4 -->
<g id="edge3_Node000002_Node000004" class="edge">
<title>Node2&#45;&gt;Node4</title>
<g id="a_edge3_Node000002_Node000004"><a xlink:title=" ">
<path fill="none" stroke="#63b8ff" d="M133.55,-104.4C144.49,-95.17 157.72,-84.01 166.85,-76.3"/>
<polygon fill="#63b8ff" stroke="#63b8ff" points="131.57,-101.49 126.18,-110.62 136.08,-106.84 131.57,-101.49"/>
</a>
</g>
</g>
<!-- Node5 -->
<g id="Node000005" class="node">
<title>Node5</title>
<g id="a_Node000005"><a xlink:href="_file_2_input_output_8h.html" target="_top" xlink:title=" ">
<polygon fill="white" stroke="#666666" points="177.38,-20 56.38,-20 56.38,0 177.38,0 177.38,-20"/>
<text text-anchor="middle" x="116.88" y="-6.5" font-family="Helvetica,sans-Serif" font-size="10.00">Cpl/Io/File/InputOutput.h</text>
</a>
</g>
</g>
<!-- Node4&#45;&gt;Node5 -->
<g id="edge4_Node000004_Node000005" class="edge">
<title>Node4&#45;&gt;Node5</title>
<g id="a_edge4_Node000004_Node000005"><a xlink:title=" ">
<path fill="none" stroke="#63b8ff" d="M158.81,-48.13C148.44,-38.94 136,-27.93 127.38,-20.3"/>
<polygon fill="#63b8ff" stroke="#63b8ff" points="156.31,-50.58 166.12,-54.59 160.95,-45.34 156.31,-50.58"/>
</a>
</g>
</g>
<!-- Node6 -->
<g id="Node000006" class="node">
<title>Node6</title>
<g id="a_Node000006"><a xlink:href="_file_2_null_8h.html" target="_top" xlink:title=" ">
<polygon fill="white" stroke="#666666" points="282.5,-20 195.25,-20 195.25,0 282.5,0 282.5,-20"/>
<text text-anchor="middle" x="238.88" y="-6.5" font-family="Helvetica,sans-Serif" font-size="10.00">Cpl/Io/File/Null.h</text>
</a>
</g>
</g>
<!-- Node4&#45;&gt;Node6 -->
<g id="edge5_Node000004_Node000006" class="edge">
<title>Node4&#45;&gt;Node6</title>
<g id="a_edge5_Node000004_Node000006"><a xlink:title=" ">
<path fill="none" stroke="#63b8ff" d="M196.94,-48.13C207.31,-38.94 219.75,-27.93 228.37,-20.3"/>
<polygon fill="#63b8ff" stroke="#63b8ff" points="194.8,-45.34 189.63,-54.59 199.44,-50.58 194.8,-45.34"/>
</a>
</g>
</g>
<!-- Node7&#45;&gt;Node4 -->
<g id="edge7_Node000007_Node000004" class="edge">
<title>Node7&#45;&gt;Node4</title>
<g id="a_edge7_Node000007_Node000004"><a xlink:title=" ">
<path fill="none" stroke="#63b8ff" d="M222.2,-104.4C211.26,-95.17 198.03,-84.01 188.9,-76.3"/>
<polygon fill="#63b8ff" stroke="#63b8ff" points="219.67,-106.84 229.57,-110.62 224.18,-101.49 219.67,-106.84"/>
</a>
</g>
</g>
<!-- Node8 -->
<g id="Node000008" class="node">
<title>Node8</title>
<g id="a_Node000008"><a xlink:href="_file_2_output_8h.html" target="_top" xlink:title=" ">
<polygon fill="white" stroke="#666666" points="363.88,-76 263.88,-76 263.88,-56 363.88,-56 363.88,-76"/>
<text text-anchor="middle" x="313.88" y="-62.5" font-family="Helvetica,sans-Serif" font-size="10.00">Cpl/Io/File/Output.h</text>
</a>
</g>
</g>
<!-- Node7&#45;&gt;Node8 -->
<g id="edge8_Node000007_Node000008" class="edge">
<title>Node7&#45;&gt;Node8</title>
<g id="a_edge8_Node000007_Node000008"><a xlink:title=" ">
<path fill="none" stroke="#63b8ff" d="M263.27,-104.95C275.72,-95.61 290.99,-84.16 301.48,-76.3"/>
<polygon fill="#63b8ff" stroke="#63b8ff" points="261.53,-101.89 255.63,-110.69 265.73,-107.49 261.53,-101.89"/>
</a>
</g>
</g>
</g>
</svg>
