<?xml version="1.0" encoding="UTF-8" standalone="no"?>
<!DOCTYPE svg PUBLIC "-//W3C//DTD SVG 1.1//EN"
 "http://www.w3.org/Graphics/SVG/1.1/DTD/svg11.dtd">
<!-- Generated by graphviz version 2.38.0 (20140413.2041)
 -->
<!-- Title: Cpl/System/Posix/Thread.h Pages: 1 -->
<svg width="932pt" height="420pt"
 viewBox="0.00 0.00 932.00 420.00" xmlns="http://www.w3.org/2000/svg" xmlns:xlink="http://www.w3.org/1999/xlink">
<g id="graph0" class="graph" transform="scale(1 1) rotate(0) translate(4 416)">
<title>Cpl/System/Posix/Thread.h</title>
<polygon fill="white" stroke="none" points="-4,4 -4,-416 928,-416 928,4 -4,4"/>
<!-- Node1 -->
<g id="node1" class="node"><title>Node1</title>
<g id="a_node1"><a xlink:title=" ">
<polygon fill="#bfbfbf" stroke="black" points="465,-392.5 465,-411.5 602,-411.5 602,-392.5 465,-392.5"/>
<text text-anchor="middle" x="533.5" y="-399.5" font-family="Helvetica,sans-Serif" font-size="10.00">Cpl/System/Posix/Thread.h</text>
</a>
</g>
</g>
<!-- Node2 -->
<g id="node2" class="node"><title>Node2</title>
<g id="a_node2"><a xlink:href="_thread_8h.html" target="_top" xlink:title=" ">
<polygon fill="white" stroke="black" points="255,-336.5 255,-355.5 364,-355.5 364,-336.5 255,-336.5"/>
<text text-anchor="middle" x="309.5" y="-343.5" font-family="Helvetica,sans-Serif" font-size="10.00">Cpl/System/Thread.h</text>
</a>
</g>
</g>
<!-- Node1&#45;&gt;Node2 -->
<g id="edge1" class="edge"><title>Node1&#45;&gt;Node2</title>
<path fill="none" stroke="midnightblue" d="M498.007,-392.444C459.176,-383.083 396.844,-368.056 354.582,-357.868"/>
<polygon fill="midnightblue" stroke="midnightblue" points="355.369,-354.458 344.827,-355.516 353.729,-361.263 355.369,-354.458"/>
</g>
<!-- Node9 -->
<g id="node9" class="node"><title>Node9</title>
<g id="a_node9"><a xlink:href="_semaphore_8h.html" target="_top" xlink:title=" ">
<polygon fill="white" stroke="black" points="404.5,-336.5 404.5,-355.5 532.5,-355.5 532.5,-336.5 404.5,-336.5"/>
<text text-anchor="middle" x="468.5" y="-343.5" font-family="Helvetica,sans-Serif" font-size="10.00">Cpl/System/Semaphore.h</text>
</a>
</g>
</g>
<!-- Node1&#45;&gt;Node9 -->
<g id="edge8" class="edge"><title>Node1&#45;&gt;Node9</title>
<path fill="none" stroke="midnightblue" d="M523.057,-392.324C513.354,-384.263 498.685,-372.077 487,-362.369"/>
<polygon fill="midnightblue" stroke="midnightblue" points="489.062,-359.532 479.133,-355.834 484.589,-364.916 489.062,-359.532"/>
</g>
<!-- Node10 -->
<g id="node10" class="node"><title>Node10</title>
<g id="a_node10"><a xlink:href="_f_string_8h.html" target="_top" xlink:title=" ">
<polygon fill="white" stroke="black" points="550.5,-336.5 550.5,-355.5 646.5,-355.5 646.5,-336.5 550.5,-336.5"/>
<text text-anchor="middle" x="598.5" y="-343.5" font-family="Helvetica,sans-Serif" font-size="10.00">Cpl/Text/FString.h</text>
</a>
</g>
</g>
<!-- Node1&#45;&gt;Node10 -->
<g id="edge11" class="edge"><title>Node1&#45;&gt;Node10</title>
<path fill="none" stroke="midnightblue" d="M543.943,-392.324C553.646,-384.263 568.315,-372.077 580,-362.369"/>
<polygon fill="midnightblue" stroke="midnightblue" points="582.411,-364.916 587.867,-355.834 577.938,-359.532 582.411,-364.916"/>
</g>
<!-- Node22 -->
<g id="node22" class="node"><title>Node22</title>
<g id="a_node22"><a xlink:title=" ">
<polygon fill="white" stroke="#bfbfbf" points="665,-336.5 665,-355.5 722,-355.5 722,-336.5 665,-336.5"/>
<text text-anchor="middle" x="693.5" y="-343.5" font-family="Helvetica,sans-Serif" font-size="10.00">pthread.h</text>
</a>
</g>
</g>
<!-- Node1&#45;&gt;Node22 -->
<g id="edge27" class="edge"><title>Node1&#45;&gt;Node22</title>
<path fill="none" stroke="midnightblue" d="M558.852,-392.444C585.769,-383.359 628.496,-368.939 658.587,-358.783"/>
<polygon fill="midnightblue" stroke="midnightblue" points="659.91,-362.031 668.266,-355.516 657.672,-355.398 659.91,-362.031"/>
</g>
<!-- Node3 -->
<g id="node3" class="node"><title>Node3</title>
<g id="a_node3"><a xlink:title=" ">
<polygon fill="white" stroke="#bfbfbf" points="566,-56.5 566,-75.5 643,-75.5 643,-56.5 566,-56.5"/>
<text text-anchor="middle" x="604.5" y="-63.5" font-family="Helvetica,sans-Serif" font-size="10.00">colony_map.h</text>
</a>
</g>
</g>
<!-- Node2&#45;&gt;Node3 -->
<g id="edge2" class="edge"><title>Node2&#45;&gt;Node3</title>
<path fill="none" stroke="midnightblue" d="M313.546,-336.379C321.735,-318.114 339.5,-273.996 339.5,-235 339.5,-235 339.5,-235 339.5,-177 339.5,-84.4659 479.035,-68.3037 555.602,-66.4006"/>
<polygon fill="midnightblue" stroke="midnightblue" points="556.029,-69.8938 565.967,-66.2203 555.907,-62.8949 556.029,-69.8938"/>
</g>
<!-- Node4 -->
<g id="node4" class="node"><title>Node4</title>
<g id="a_node4"><a xlink:href="_runnable_8h.html" target="_top" xlink:title=" ">
<polygon fill="white" stroke="black" points="0,-280.5 0,-299.5 119,-299.5 119,-280.5 0,-280.5"/>
<text text-anchor="middle" x="59.5" y="-287.5" font-family="Helvetica,sans-Serif" font-size="10.00">Cpl/System/Runnable.h</text>
</a>
</g>
</g>
<!-- Node2&#45;&gt;Node4 -->
<g id="edge3" class="edge"><title>Node2&#45;&gt;Node4</title>
<path fill="none" stroke="midnightblue" d="M269.887,-336.444C226.275,-327.023 156.1,-311.866 108.922,-301.675"/>
<polygon fill="midnightblue" stroke="midnightblue" points="109.441,-298.207 98.9279,-299.516 107.964,-305.049 109.441,-298.207"/>
</g>
<!-- Node5 -->
<g id="node5" class="node"><title>Node5</title>
<g id="a_node5"><a xlink:href="_signable_8h.html" target="_top" xlink:title=" ">
<polygon fill="white" stroke="black" points="367.5,-280.5 367.5,-299.5 483.5,-299.5 483.5,-280.5 367.5,-280.5"/>
<text text-anchor="middle" x="425.5" y="-287.5" font-family="Helvetica,sans-Serif" font-size="10.00">Cpl/System/Signable.h</text>
</a>
</g>
</g>
<!-- Node2&#45;&gt;Node5 -->
<g id="edge4" class="edge"><title>Node2&#45;&gt;Node5</title>
<path fill="none" stroke="midnightblue" d="M327.881,-336.444C346.716,-327.675 376.231,-313.935 397.879,-303.858"/>
<polygon fill="midnightblue" stroke="midnightblue" points="399.617,-306.91 407.205,-299.516 396.662,-300.564 399.617,-306.91"/>
</g>
<!-- Node7 -->
<g id="node7" class="node"><title>Node7</title>
<g id="a_node7"><a xlink:href="_traverser_8h.html" target="_top" xlink:title=" ">
<polygon fill="white" stroke="black" points="137.5,-280.5 137.5,-299.5 245.5,-299.5 245.5,-280.5 137.5,-280.5"/>
<text text-anchor="middle" x="191.5" y="-287.5" font-family="Helvetica,sans-Serif" font-size="10.00">Cpl/Type/Traverser.h</text>
</a>
</g>
</g>
<!-- Node2&#45;&gt;Node7 -->
<g id="edge6" class="edge"><title>Node2&#45;&gt;Node7</title>
<path fill="none" stroke="midnightblue" d="M290.803,-336.444C271.556,-327.636 241.348,-313.812 219.3,-303.722"/>
<polygon fill="midnightblue" stroke="midnightblue" points="220.66,-300.495 210.11,-299.516 217.747,-306.86 220.66,-300.495"/>
</g>
<!-- Node8 -->
<g id="node8" class="node"><title>Node8</title>
<g id="a_node8"><a xlink:title=" ">
<polygon fill="white" stroke="#bfbfbf" points="263.5,-280.5 263.5,-299.5 311.5,-299.5 311.5,-280.5 263.5,-280.5"/>
<text text-anchor="middle" x="287.5" y="-287.5" font-family="Helvetica,sans-Serif" font-size="10.00">stdlib.h</text>
</a>
</g>
</g>
<!-- Node2&#45;&gt;Node8 -->
<g id="edge7" class="edge"><title>Node2&#45;&gt;Node8</title>
<path fill="none" stroke="midnightblue" d="M305.867,-336.083C302.888,-328.77 298.574,-318.181 294.875,-309.103"/>
<polygon fill="midnightblue" stroke="midnightblue" points="298.08,-307.691 291.065,-299.751 291.597,-310.333 298.08,-307.691"/>
</g>
<!-- Node6 -->
<g id="node6" class="node"><title>Node6</title>
<g id="a_node6"><a xlink:href="_item_8h.html" target="_top" xlink:title=" ">
<polygon fill="white" stroke="black" points="372.5,-224.5 372.5,-243.5 478.5,-243.5 478.5,-224.5 372.5,-224.5"/>
<text text-anchor="middle" x="425.5" y="-231.5" font-family="Helvetica,sans-Serif" font-size="10.00">Cpl/Container/Item.h</text>
</a>
</g>
</g>
<!-- Node5&#45;&gt;Node6 -->
<g id="edge5" class="edge"><title>Node5&#45;&gt;Node6</title>
<path fill="none" stroke="midnightblue" d="M425.5,-280.083C425.5,-273.006 425.5,-262.861 425.5,-253.986"/>
<polygon fill="midnightblue" stroke="midnightblue" points="429,-253.751 425.5,-243.751 422,-253.751 429,-253.751"/>
</g>
<!-- Node9&#45;&gt;Node3 -->
<g id="edge9" class="edge"><title>Node9&#45;&gt;Node3</title>
<path fill="none" stroke="midnightblue" d="M474.479,-336.328C486.294,-318.318 511.5,-275.189 511.5,-235 511.5,-235 511.5,-235 511.5,-177 511.5,-134.311 552.851,-99.6429 580.407,-81.2801"/>
<polygon fill="midnightblue" stroke="midnightblue" points="582.606,-84.0278 589.143,-75.6897 578.833,-78.1316 582.606,-84.0278"/>
</g>
<!-- Node9&#45;&gt;Node5 -->
<g id="edge10" class="edge"><title>Node9&#45;&gt;Node5</title>
<path fill="none" stroke="midnightblue" d="M461.399,-336.083C455.263,-328.377 446.23,-317.033 438.761,-307.653"/>
<polygon fill="midnightblue" stroke="midnightblue" points="441.436,-305.394 432.468,-299.751 435.96,-309.754 441.436,-305.394"/>
</g>
<!-- Node11 -->
<g id="node11" class="node"><title>Node11</title>
<g id="a_node11"><a xlink:href="_f_string___8h.html" target="_top" xlink:title=" ">
<polygon fill="white" stroke="black" points="548,-280.5 548,-299.5 649,-299.5 649,-280.5 548,-280.5"/>
<text text-anchor="middle" x="598.5" y="-287.5" font-family="Helvetica,sans-Serif" font-size="10.00">Cpl/Text/FString_.h</text>
</a>
</g>
</g>
<!-- Node10&#45;&gt;Node11 -->
<g id="edge12" class="edge"><title>Node10&#45;&gt;Node11</title>
<path fill="none" stroke="midnightblue" d="M598.5,-336.083C598.5,-329.006 598.5,-318.861 598.5,-309.986"/>
<polygon fill="midnightblue" stroke="midnightblue" points="602,-309.751 598.5,-299.751 595,-309.751 602,-309.751"/>
</g>
<!-- Node19 -->
<g id="node19" class="node"><title>Node19</title>
<g id="a_node19"><a xlink:title=" ">
<polygon fill="white" stroke="#bfbfbf" points="875,-56.5 875,-75.5 924,-75.5 924,-56.5 875,-56.5"/>
<text text-anchor="middle" x="899.5" y="-63.5" font-family="Helvetica,sans-Serif" font-size="10.00">string.h</text>
</a>
</g>
</g>
<!-- Node10&#45;&gt;Node19 -->
<g id="edge26" class="edge"><title>Node10&#45;&gt;Node19</title>
<path fill="none" stroke="midnightblue" d="M632.306,-336.481C711.716,-315.997 903.5,-263.567 903.5,-235 903.5,-235 903.5,-235 903.5,-177 903.5,-144.927 901.781,-107.628 900.596,-85.7413"/>
<polygon fill="midnightblue" stroke="midnightblue" points="904.08,-85.3413 900.023,-75.5539 897.091,-85.7349 904.08,-85.3413"/>
</g>
<!-- Node12 -->
<g id="node12" class="node"><title>Node12</title>
<g id="a_node12"><a xlink:title=" ">
<polygon fill="white" stroke="#bfbfbf" points="578,-0.5 578,-19.5 663,-19.5 663,-0.5 578,-0.5"/>
<text text-anchor="middle" x="620.5" y="-7.5" font-family="Helvetica,sans-Serif" font-size="10.00">colony_config.h</text>
</a>
</g>
</g>
<!-- Node11&#45;&gt;Node12 -->
<g id="edge13" class="edge"><title>Node11&#45;&gt;Node12</title>
<path fill="none" stroke="midnightblue" d="M593.269,-280.379C574.697,-248.57 515.203,-135.521 556.5,-56 563.653,-42.2262 577.171,-31.783 589.947,-24.4413"/>
<polygon fill="midnightblue" stroke="midnightblue" points="591.817,-27.412 599.017,-19.6403 588.542,-21.2252 591.817,-27.412"/>
</g>
<!-- Node13 -->
<g id="node13" class="node"><title>Node13</title>
<g id="a_node13"><a xlink:href="_string___8h.html" target="_top" xlink:title=" ">
<polygon fill="white" stroke="black" points="606,-224.5 606,-243.5 701,-243.5 701,-224.5 606,-224.5"/>
<text text-anchor="middle" x="653.5" y="-231.5" font-family="Helvetica,sans-Serif" font-size="10.00">Cpl/Text/String_.h</text>
</a>
</g>
</g>
<!-- Node11&#45;&gt;Node13 -->
<g id="edge14" class="edge"><title>Node11&#45;&gt;Node13</title>
<path fill="none" stroke="midnightblue" d="M607.582,-280.083C615.671,-272.141 627.695,-260.335 637.41,-250.797"/>
<polygon fill="midnightblue" stroke="midnightblue" points="639.903,-253.254 644.587,-243.751 634.999,-248.26 639.903,-253.254"/>
</g>
<!-- Node14 -->
<g id="node14" class="node"><title>Node14</title>
<g id="a_node14"><a xlink:href="_text_2_string_8h.html" target="_top" xlink:title=" ">
<polygon fill="white" stroke="black" points="636.5,-168.5 636.5,-187.5 726.5,-187.5 726.5,-168.5 636.5,-168.5"/>
<text text-anchor="middle" x="681.5" y="-175.5" font-family="Helvetica,sans-Serif" font-size="10.00">Cpl/Text/String.h</text>
</a>
</g>
</g>
<!-- Node13&#45;&gt;Node14 -->
<g id="edge15" class="edge"><title>Node13&#45;&gt;Node14</title>
<path fill="none" stroke="midnightblue" d="M658.124,-224.083C661.956,-216.691 667.524,-205.953 672.265,-196.811"/>
<polygon fill="midnightblue" stroke="midnightblue" points="675.466,-198.24 676.962,-187.751 669.252,-195.018 675.466,-198.24"/>
</g>
<!-- Node14&#45;&gt;Node3 -->
<g id="edge16" class="edge"><title>Node14&#45;&gt;Node3</title>
<path fill="none" stroke="midnightblue" d="M663.861,-168.382C650.008,-160.711 631.308,-148.203 620.5,-132 611.33,-118.253 607.411,-99.7252 605.738,-85.9676"/>
<polygon fill="midnightblue" stroke="midnightblue" points="609.199,-85.3795 604.796,-75.743 602.228,-86.0221 609.199,-85.3795"/>
</g>
<!-- Node15 -->
<g id="node15" class="node"><title>Node15</title>
<g id="a_node15"><a xlink:href="_key_8h.html" target="_top" xlink:title=" ">
<polygon fill="white" stroke="black" points="629.5,-112.5 629.5,-131.5 733.5,-131.5 733.5,-112.5 629.5,-112.5"/>
<text text-anchor="middle" x="681.5" y="-119.5" font-family="Helvetica,sans-Serif" font-size="10.00">Cpl/Container/Key.h</text>
</a>
</g>
</g>
<!-- Node14&#45;&gt;Node15 -->
<g id="edge17" class="edge"><title>Node14&#45;&gt;Node15</title>
<path fill="none" stroke="midnightblue" d="M681.5,-168.083C681.5,-161.006 681.5,-150.861 681.5,-141.986"/>
<polygon fill="midnightblue" stroke="midnightblue" points="685,-141.751 681.5,-131.751 678,-141.751 685,-141.751"/>
</g>
<!-- Node20 -->
<g id="node20" class="node"><title>Node20</title>
<g id="a_node20"><a xlink:title=" ">
<polygon fill="white" stroke="#bfbfbf" points="751.5,-112.5 751.5,-131.5 803.5,-131.5 803.5,-112.5 751.5,-112.5"/>
<text text-anchor="middle" x="777.5" y="-119.5" font-family="Helvetica,sans-Serif" font-size="10.00">stdarg.h</text>
</a>
</g>
</g>
<!-- Node14&#45;&gt;Node20 -->
<g id="edge24" class="edge"><title>Node14&#45;&gt;Node20</title>
<path fill="none" stroke="midnightblue" d="M696.924,-168.324C712.04,-159.822 735.315,-146.729 752.971,-136.797"/>
<polygon fill="midnightblue" stroke="midnightblue" points="755.114,-139.608 762.114,-131.655 751.683,-133.507 755.114,-139.608"/>
</g>
<!-- Node21 -->
<g id="node21" class="node"><title>Node21</title>
<g id="a_node21"><a xlink:title=" ">
<polygon fill="white" stroke="#bfbfbf" points="821.5,-112.5 821.5,-131.5 875.5,-131.5 875.5,-112.5 821.5,-112.5"/>
<text text-anchor="middle" x="848.5" y="-119.5" font-family="Helvetica,sans-Serif" font-size="10.00">iostream</text>
</a>
</g>
</g>
<!-- Node14&#45;&gt;Node21 -->
<g id="edge25" class="edge"><title>Node14&#45;&gt;Node21</title>
<path fill="none" stroke="midnightblue" d="M707.962,-168.444C736.178,-159.32 781.04,-144.813 812.468,-134.651"/>
<polygon fill="midnightblue" stroke="midnightblue" points="813.724,-137.923 822.162,-131.516 811.57,-131.263 813.724,-137.923"/>
</g>
<!-- Node15&#45;&gt;Node3 -->
<g id="edge23" class="edge"><title>Node15&#45;&gt;Node3</title>
<path fill="none" stroke="midnightblue" d="M669.129,-112.324C657.342,-104.058 639.368,-91.4527 625.364,-81.6322"/>
<polygon fill="midnightblue" stroke="midnightblue" points="627.038,-78.5307 616.841,-75.6545 623.018,-84.2619 627.038,-78.5307"/>
</g>
<!-- Node16 -->
<g id="node16" class="node"><title>Node16</title>
<g id="a_node16"><a xlink:href="_fatal_error_8h.html" target="_top" xlink:title=" ">
<polygon fill="white" stroke="black" points="728.5,-56.5 728.5,-75.5 850.5,-75.5 850.5,-56.5 728.5,-56.5"/>
<text text-anchor="middle" x="789.5" y="-63.5" font-family="Helvetica,sans-Serif" font-size="10.00">Cpl/System/FatalError.h</text>
</a>
</g>
</g>
<!-- Node15&#45;&gt;Node16 -->
<g id="edge18" class="edge"><title>Node15&#45;&gt;Node16</title>
<path fill="none" stroke="midnightblue" d="M698.852,-112.324C716.172,-103.664 743.015,-90.2424 763.002,-80.249"/>
<polygon fill="midnightblue" stroke="midnightblue" points="764.812,-83.2572 772.191,-75.6545 761.681,-76.9962 764.812,-83.2572"/>
</g>
<!-- Node18 -->
<g id="node18" class="node"><title>Node18</title>
<g id="a_node18"><a xlink:title=" ">
<polygon fill="white" stroke="#bfbfbf" points="661,-56.5 661,-75.5 710,-75.5 710,-56.5 661,-56.5"/>
<text text-anchor="middle" x="685.5" y="-63.5" font-family="Helvetica,sans-Serif" font-size="10.00">stdint.h</text>
</a>
</g>
</g>
<!-- Node15&#45;&gt;Node18 -->
<g id="edge21" class="edge"><title>Node15&#45;&gt;Node18</title>
<path fill="none" stroke="midnightblue" d="M682.161,-112.083C682.685,-105.006 683.436,-94.8611 684.094,-85.9865"/>
<polygon fill="midnightblue" stroke="midnightblue" points="687.603,-85.9823 684.852,-75.7511 680.623,-85.4652 687.603,-85.9823"/>
</g>
<!-- Node15&#45;&gt;Node19 -->
<g id="edge22" class="edge"><title>Node15&#45;&gt;Node19</title>
<path fill="none" stroke="midnightblue" d="M716.043,-112.444C756.883,-102.327 824.438,-85.5934 865.181,-75.5011"/>
<polygon fill="midnightblue" stroke="midnightblue" points="866.064,-78.8883 874.929,-73.0865 864.381,-72.0936 866.064,-78.8883"/>
</g>
<!-- Node16&#45;&gt;Node12 -->
<g id="edge20" class="edge"><title>Node16&#45;&gt;Node12</title>
<path fill="none" stroke="midnightblue" d="M762.721,-56.4435C734.167,-47.3196 688.767,-32.8133 656.963,-22.6509"/>
<polygon fill="midnightblue" stroke="midnightblue" points="657.744,-19.2262 647.153,-19.5164 655.614,-25.8941 657.744,-19.2262"/>
</g>
<!-- Node17 -->
<g id="node17" class="node"><title>Node17</title>
<g id="a_node17"><a xlink:title=" ">
<polygon fill="white" stroke="#bfbfbf" points="763.5,-0.5 763.5,-19.5 815.5,-19.5 815.5,-0.5 763.5,-0.5"/>
<text text-anchor="middle" x="789.5" y="-7.5" font-family="Helvetica,sans-Serif" font-size="10.00">stddef.h</text>
</a>
</g>
</g>
<!-- Node16&#45;&gt;Node17 -->
<g id="edge19" class="edge"><title>Node16&#45;&gt;Node17</title>
<path fill="none" stroke="midnightblue" d="M789.5,-56.083C789.5,-49.0059 789.5,-38.8611 789.5,-29.9865"/>
<polygon fill="midnightblue" stroke="midnightblue" points="793,-29.751 789.5,-19.7511 786,-29.7511 793,-29.751"/>
</g>
</g>
</svg>
