<?xml version="1.0" encoding="UTF-8" standalone="no"?>
<!DOCTYPE svg PUBLIC "-//W3C//DTD SVG 1.1//EN"
 "http://www.w3.org/Graphics/SVG/1.1/DTD/svg11.dtd">
<!-- Generated by graphviz version 2.38.0 (20140413.2041)
 -->
<!-- Title: Cpl/Itc/PostApi.h Pages: 1 -->
<svg width="1965pt" height="643pt"
 viewBox="0.00 0.00 1964.50 643.00" xmlns="http://www.w3.org/2000/svg" xmlns:xlink="http://www.w3.org/1999/xlink">
<g id="graph0" class="graph" transform="scale(1 1) rotate(0) translate(4 639)">
<title>Cpl/Itc/PostApi.h</title>
<polygon fill="white" stroke="none" points="-4,4 -4,-639 1960.5,-639 1960.5,4 -4,4"/>
<!-- Node1 -->
<g id="node1" class="node"><title>Node1</title>
<g id="a_node1"><a xlink:title=" ">
<polygon fill="#bfbfbf" stroke="black" points="916,-615.5 916,-634.5 1007,-634.5 1007,-615.5 916,-615.5"/>
<text text-anchor="middle" x="961.5" y="-622.5" font-family="Helvetica,sans-Serif" font-size="10.00">Cpl/Itc/PostApi.h</text>
</a>
</g>
</g>
<!-- Node2 -->
<g id="node2" class="node"><title>Node2</title>
<g id="a_node2"><a xlink:href="_async_return_handler_8h.html" target="_top" xlink:title=" ">
<polygon fill="white" stroke="black" points="888.5,-503.5 888.5,-522.5 1034.5,-522.5 1034.5,-503.5 888.5,-503.5"/>
<text text-anchor="middle" x="961.5" y="-510.5" font-family="Helvetica,sans-Serif" font-size="10.00">Cpl/Itc/AsyncReturnHandler.h</text>
</a>
</g>
</g>
<!-- Node1&#45;&gt;Node2 -->
<g id="edge1" class="edge"><title>Node1&#45;&gt;Node2</title>
<path fill="none" stroke="midnightblue" d="M961.5,-605.348C961.5,-581.254 961.5,-540.308 961.5,-522.591"/>
<polygon fill="midnightblue" stroke="midnightblue" points="958,-605.368 961.5,-615.368 965,-605.369 958,-605.368"/>
</g>
<!-- Node21 -->
<g id="node21" class="node"><title>Node21</title>
<g id="a_node21"><a xlink:href="_mailbox_8h.html" target="_top" xlink:title=" ">
<polygon fill="white" stroke="black" points="769.5,-375 769.5,-394 859.5,-394 859.5,-375 769.5,-375"/>
<text text-anchor="middle" x="814.5" y="-382" font-family="Helvetica,sans-Serif" font-size="10.00">Cpl/Itc/Mailbox.h</text>
</a>
</g>
</g>
<!-- Node1&#45;&gt;Node21 -->
<g id="edge27" class="edge"><title>Node1&#45;&gt;Node21</title>
<path fill="none" stroke="midnightblue" d="M946.296,-607.827C928.752,-588.623 899.727,-555.136 879.5,-523 850.666,-477.19 826.33,-416.576 817.778,-394.243"/>
<polygon fill="midnightblue" stroke="midnightblue" points="943.906,-610.397 953.265,-615.363 949.045,-605.645 943.906,-610.397"/>
</g>
<!-- Node36 -->
<g id="node36" class="node"><title>Node36</title>
<g id="a_node36"><a xlink:href="_s_a_p_8h.html" target="_top" xlink:title=" ">
<polygon fill="white" stroke="black" points="1382,-559.5 1382,-578.5 1459,-578.5 1459,-559.5 1382,-559.5"/>
<text text-anchor="middle" x="1420.5" y="-566.5" font-family="Helvetica,sans-Serif" font-size="10.00">Cpl/Itc/SAP.h</text>
</a>
</g>
</g>
<!-- Node1&#45;&gt;Node36 -->
<g id="edge55" class="edge"><title>Node1&#45;&gt;Node36</title>
<path fill="none" stroke="midnightblue" d="M1017.4,-617.423C1111.86,-606.311 1300.67,-584.097 1381.89,-574.542"/>
<polygon fill="midnightblue" stroke="midnightblue" points="1016.71,-613.98 1007.19,-618.625 1017.53,-620.932 1016.71,-613.98"/>
</g>
<!-- Node3 -->
<g id="node3" class="node"><title>Node3</title>
<g id="a_node3"><a xlink:href="_response_message_8h.html" target="_top" xlink:title=" ">
<polygon fill="white" stroke="black" points="1242.5,-442 1242.5,-461 1382.5,-461 1382.5,-442 1242.5,-442"/>
<text text-anchor="middle" x="1312.5" y="-449" font-family="Helvetica,sans-Serif" font-size="10.00">Cpl/Itc/ResponseMessage.h</text>
</a>
</g>
</g>
<!-- Node2&#45;&gt;Node3 -->
<g id="edge2" class="edge"><title>Node2&#45;&gt;Node3</title>
<path fill="none" stroke="midnightblue" d="M1021.91,-501.759C1089.83,-490.246 1198.88,-471.76 1262.3,-461.009"/>
<polygon fill="midnightblue" stroke="midnightblue" points="1021.06,-498.353 1011.79,-503.475 1022.23,-505.254 1021.06,-498.353"/>
</g>
<!-- Node4 -->
<g id="node4" class="node"><title>Node4</title>
<g id="a_node4"><a xlink:href="_erase_request_8h.html" target="_top" xlink:title=" ">
<polygon fill="white" stroke="black" points="1063,-375 1063,-394 1232,-394 1232,-375 1063,-375"/>
<text text-anchor="middle" x="1147.5" y="-382" font-family="Helvetica,sans-Serif" font-size="10.00">Cpl/Dm/Persistent/EraseRequest.h</text>
</a>
</g>
</g>
<!-- Node3&#45;&gt;Node4 -->
<g id="edge3" class="edge"><title>Node3&#45;&gt;Node4</title>
<path fill="none" stroke="midnightblue" d="M1281.03,-438.104C1248.27,-425.198 1197.83,-405.327 1169.24,-394.064"/>
<polygon fill="midnightblue" stroke="midnightblue" points="1280,-441.46 1290.59,-441.869 1282.57,-434.947 1280,-441.46"/>
</g>
<!-- Node10 -->
<g id="node10" class="node"><title>Node10</title>
<g id="a_node10"><a xlink:href="_flush_request_8h.html" target="_top" xlink:title=" ">
<polygon fill="white" stroke="black" points="878,-375 878,-394 1045,-394 1045,-375 878,-375"/>
<text text-anchor="middle" x="961.5" y="-382" font-family="Helvetica,sans-Serif" font-size="10.00">Cpl/Dm/Persistent/FlushRequest.h</text>
</a>
</g>
</g>
<!-- Node3&#45;&gt;Node10 -->
<g id="edge11" class="edge"><title>Node3&#45;&gt;Node10</title>
<path fill="none" stroke="midnightblue" d="M1256,-440.037C1186.96,-427.253 1071.49,-405.868 1007.57,-394.032"/>
<polygon fill="midnightblue" stroke="midnightblue" points="1255.78,-443.556 1266.25,-441.936 1257.06,-436.673 1255.78,-443.556"/>
</g>
<!-- Node11 -->
<g id="node11" class="node"><title>Node11</title>
<g id="a_node11"><a xlink:href="_atomic_request_8h.html" target="_top" xlink:title=" ">
<polygon fill="white" stroke="black" points="1250,-375 1250,-394 1373,-394 1373,-375 1250,-375"/>
<text text-anchor="middle" x="1311.5" y="-382" font-family="Helvetica,sans-Serif" font-size="10.00">Cpl/Itc/AtomicRequest.h</text>
</a>
</g>
</g>
<!-- Node3&#45;&gt;Node11 -->
<g id="edge13" class="edge"><title>Node3&#45;&gt;Node11</title>
<path fill="none" stroke="midnightblue" d="M1312.21,-431.537C1312.02,-419.17 1311.78,-403.62 1311.63,-394.127"/>
<polygon fill="midnightblue" stroke="midnightblue" points="1308.71,-431.789 1312.37,-441.734 1315.71,-431.681 1308.71,-431.789"/>
</g>
<!-- Node13 -->
<g id="node13" class="node"><title>Node13</title>
<g id="a_node13"><a xlink:href="_close_request_8h.html" target="_top" xlink:title=" ">
<polygon fill="white" stroke="black" points="1526,-375 1526,-394 1643,-394 1643,-375 1526,-375"/>
<text text-anchor="middle" x="1584.5" y="-382" font-family="Helvetica,sans-Serif" font-size="10.00">Cpl/Itc/CloseRequest.h</text>
</a>
</g>
</g>
<!-- Node3&#45;&gt;Node13 -->
<g id="edge15" class="edge"><title>Node3&#45;&gt;Node13</title>
<path fill="none" stroke="midnightblue" d="M1358.26,-439.564C1411.89,-426.75 1499.62,-405.785 1548.58,-394.083"/>
<polygon fill="midnightblue" stroke="midnightblue" points="1357.25,-436.207 1348.34,-441.936 1358.88,-443.015 1357.25,-436.207"/>
</g>
<!-- Node18 -->
<g id="node18" class="node"><title>Node18</title>
<g id="a_node18"><a xlink:href="_open_request_8h.html" target="_top" xlink:title=" ">
<polygon fill="white" stroke="black" points="1391.5,-375 1391.5,-394 1507.5,-394 1507.5,-375 1391.5,-375"/>
<text text-anchor="middle" x="1449.5" y="-382" font-family="Helvetica,sans-Serif" font-size="10.00">Cpl/Itc/OpenRequest.h</text>
</a>
</g>
</g>
<!-- Node3&#45;&gt;Node18 -->
<g id="edge22" class="edge"><title>Node3&#45;&gt;Node18</title>
<path fill="none" stroke="midnightblue" d="M1340.02,-437.444C1367.15,-424.569 1407.86,-405.257 1431.23,-394.167"/>
<polygon fill="midnightblue" stroke="midnightblue" points="1338.23,-434.42 1330.69,-441.869 1341.23,-440.744 1338.23,-434.42"/>
</g>
<!-- Node20 -->
<g id="node20" class="node"><title>Node20</title>
<g id="a_node20"><a xlink:href="_indexed_entry_requests_8h.html" target="_top" xlink:title=" ">
<polygon fill="white" stroke="black" points="1661,-369.5 1661,-399.5 1800,-399.5 1800,-369.5 1661,-369.5"/>
<text text-anchor="start" x="1669" y="-387.5" font-family="Helvetica,sans-Serif" font-size="10.00">Cpl/Persistent/IndexedEntry</text>
<text text-anchor="middle" x="1730.5" y="-376.5" font-family="Helvetica,sans-Serif" font-size="10.00">Requests.h</text>
</a>
</g>
</g>
<!-- Node3&#45;&gt;Node20 -->
<g id="edge25" class="edge"><title>Node3&#45;&gt;Node20</title>
<path fill="none" stroke="midnightblue" d="M1384.11,-440.546C1452.8,-430.829 1559.38,-415.312 1651.5,-400 1654.53,-399.497 1657.62,-398.973 1660.74,-398.436"/>
<polygon fill="midnightblue" stroke="midnightblue" points="1383.25,-437.132 1373.84,-441.995 1384.23,-444.064 1383.25,-437.132"/>
</g>
<!-- Node5 -->
<g id="node5" class="node"><title>Node5</title>
<g id="a_node5"><a xlink:href="_dm_2_persistent_2_record_8h.html" target="_top" xlink:title=" ">
<polygon fill="white" stroke="black" points="829.5,-134.5 829.5,-153.5 967.5,-153.5 967.5,-134.5 829.5,-134.5"/>
<text text-anchor="middle" x="898.5" y="-141.5" font-family="Helvetica,sans-Serif" font-size="10.00">Cpl/Dm/Persistent/Record.h</text>
</a>
</g>
</g>
<!-- Node4&#45;&gt;Node5 -->
<g id="edge4" class="edge"><title>Node4&#45;&gt;Node5</title>
<path fill="none" stroke="midnightblue" d="M1162.58,-366.942C1193.77,-330.692 1258.7,-243.298 1212.5,-190 1181.48,-154.214 1050.4,-146.202 967.715,-144.797"/>
<polygon fill="midnightblue" stroke="midnightblue" points="1159.79,-364.813 1155.81,-374.63 1165.05,-369.441 1159.79,-364.813"/>
</g>
<!-- Node6 -->
<g id="node6" class="node"><title>Node6</title>
<g id="a_node6"><a xlink:href="_installer_record_8h_source.html" target="_top" xlink:title=" ">
<polygon fill="white" stroke="black" points="689,-67.5 689,-97.5 808,-97.5 808,-67.5 689,-67.5"/>
<text text-anchor="start" x="697" y="-85.5" font-family="Helvetica,sans-Serif" font-size="10.00">Storm/Thermostat/Main</text>
<text text-anchor="middle" x="748.5" y="-74.5" font-family="Helvetica,sans-Serif" font-size="10.00">/InstallerRecord.h</text>
</a>
</g>
</g>
<!-- Node5&#45;&gt;Node6 -->
<g id="edge5" class="edge"><title>Node5&#45;&gt;Node6</title>
<path fill="none" stroke="midnightblue" d="M867.539,-130.719C843.194,-121.062 809.262,-107.602 783.852,-97.523"/>
<polygon fill="midnightblue" stroke="midnightblue" points="866.423,-134.041 877.009,-134.475 869.004,-127.534 866.423,-134.041"/>
</g>
<!-- Node8 -->
<g id="node8" class="node"><title>Node8</title>
<g id="a_node8"><a xlink:href="_run_time_record_8h_source.html" target="_top" xlink:title=" ">
<polygon fill="white" stroke="black" points="826,-67.5 826,-97.5 945,-97.5 945,-67.5 826,-67.5"/>
<text text-anchor="start" x="834" y="-85.5" font-family="Helvetica,sans-Serif" font-size="10.00">Storm/Thermostat/Main</text>
<text text-anchor="middle" x="885.5" y="-74.5" font-family="Helvetica,sans-Serif" font-size="10.00">/RunTimeRecord.h</text>
</a>
</g>
</g>
<!-- Node5&#45;&gt;Node8 -->
<g id="edge7" class="edge"><title>Node5&#45;&gt;Node8</title>
<path fill="none" stroke="midnightblue" d="M894.464,-124.526C892.56,-115.813 890.326,-105.586 888.564,-97.523"/>
<polygon fill="midnightblue" stroke="midnightblue" points="891.083,-125.453 896.637,-134.475 897.922,-123.958 891.083,-125.453"/>
</g>
<!-- Node9 -->
<g id="node9" class="node"><title>Node9</title>
<g id="a_node9"><a xlink:href="_user_record_8h_source.html" target="_top" xlink:title=" ">
<polygon fill="white" stroke="black" points="963,-67.5 963,-97.5 1082,-97.5 1082,-67.5 963,-67.5"/>
<text text-anchor="start" x="971" y="-85.5" font-family="Helvetica,sans-Serif" font-size="10.00">Storm/Thermostat/Main</text>
<text text-anchor="middle" x="1022.5" y="-74.5" font-family="Helvetica,sans-Serif" font-size="10.00">/UserRecord.h</text>
</a>
</g>
</g>
<!-- Node5&#45;&gt;Node9 -->
<g id="edge9" class="edge"><title>Node5&#45;&gt;Node9</title>
<path fill="none" stroke="midnightblue" d="M925.447,-130.07C945.463,-120.465 972.737,-107.378 993.276,-97.523"/>
<polygon fill="midnightblue" stroke="midnightblue" points="923.768,-126.993 916.266,-134.475 926.796,-133.304 923.768,-126.993"/>
</g>
<!-- Node7 -->
<g id="node7" class="node"><title>Node7</title>
<g id="a_node7"><a xlink:href="statics___8h.html" target="_top" xlink:title="This file defines/creates persistent records and record server for the Thermostat simulation.">
<polygon fill="white" stroke="black" points="567,-0.5 567,-30.5 686,-30.5 686,-0.5 567,-0.5"/>
<text text-anchor="start" x="575" y="-18.5" font-family="Helvetica,sans-Serif" font-size="10.00">Storm/Thermostat/Main</text>
<text text-anchor="middle" x="626.5" y="-7.5" font-family="Helvetica,sans-Serif" font-size="10.00">/_simulation/statics_.h</text>
</a>
</g>
</g>
<!-- Node6&#45;&gt;Node7 -->
<g id="edge6" class="edge"><title>Node6&#45;&gt;Node7</title>
<path fill="none" stroke="midnightblue" d="M712.979,-62.575C693.788,-52.3502 670.495,-39.94 652.921,-30.5765"/>
<polygon fill="midnightblue" stroke="midnightblue" points="711.557,-65.7827 722.028,-67.396 714.848,-59.6048 711.557,-65.7827"/>
</g>
<!-- Node8&#45;&gt;Node7 -->
<g id="edge8" class="edge"><title>Node8&#45;&gt;Node7</title>
<path fill="none" stroke="midnightblue" d="M819.692,-64.9844C777.387,-54.3674 723.008,-40.7201 682.727,-30.6109"/>
<polygon fill="midnightblue" stroke="midnightblue" points="819.069,-68.4365 829.62,-67.476 820.772,-61.647 819.069,-68.4365"/>
</g>
<!-- Node9&#45;&gt;Node7 -->
<g id="edge10" class="edge"><title>Node9&#45;&gt;Node7</title>
<path fill="none" stroke="midnightblue" d="M952.79,-66.9291C853.432,-49.0132 749.578,-33.6952 686.033,-24.7102"/>
<polygon fill="midnightblue" stroke="midnightblue" points="952.235,-70.3855 962.7,-68.7274 953.485,-63.498 952.235,-70.3855"/>
</g>
<!-- Node10&#45;&gt;Node5 -->
<g id="edge12" class="edge"><title>Node10&#45;&gt;Node5</title>
<path fill="none" stroke="midnightblue" d="M973.599,-366.61C997.519,-330.957 1045.39,-246.642 1007.5,-190 994.693,-170.857 972.092,-159.849 950.779,-153.522"/>
<polygon fill="midnightblue" stroke="midnightblue" points="970.643,-364.731 967.838,-374.948 976.402,-368.71 970.643,-364.731"/>
</g>
<!-- Node12 -->
<g id="node12" class="node"><title>Node12</title>
<g id="a_node12"><a xlink:href="_atomic_sync_8h.html" target="_top" xlink:title=" ">
<polygon fill="white" stroke="black" points="1259.5,-313.5 1259.5,-332.5 1369.5,-332.5 1369.5,-313.5 1259.5,-313.5"/>
<text text-anchor="middle" x="1314.5" y="-320.5" font-family="Helvetica,sans-Serif" font-size="10.00">Cpl/Itc/AtomicSync.h</text>
</a>
</g>
</g>
<!-- Node11&#45;&gt;Node12 -->
<g id="edge14" class="edge"><title>Node11&#45;&gt;Node12</title>
<path fill="none" stroke="midnightblue" d="M1312.44,-364.817C1312.99,-353.996 1313.65,-340.898 1314.07,-332.509"/>
<polygon fill="midnightblue" stroke="midnightblue" points="1308.94,-364.812 1311.93,-374.975 1315.93,-365.164 1308.94,-364.812"/>
</g>
<!-- Node14 -->
<g id="node14" class="node"><title>Node14</title>
<g id="a_node14"><a xlink:href="_close_sync_8h.html" target="_top" xlink:title=" ">
<polygon fill="white" stroke="black" points="1326.5,-257.5 1326.5,-276.5 1430.5,-276.5 1430.5,-257.5 1326.5,-257.5"/>
<text text-anchor="middle" x="1378.5" y="-264.5" font-family="Helvetica,sans-Serif" font-size="10.00">Cpl/Itc/CloseSync.h</text>
</a>
</g>
</g>
<!-- Node13&#45;&gt;Node14 -->
<g id="edge16" class="edge"><title>Node13&#45;&gt;Node14</title>
<path fill="none" stroke="midnightblue" d="M1570.21,-367.543C1555.37,-351.805 1530.82,-327.993 1505.5,-313 1476.62,-295.899 1440.21,-283.83 1413.79,-276.525"/>
<polygon fill="midnightblue" stroke="midnightblue" points="1567.68,-369.967 1577.03,-374.947 1572.83,-365.222 1567.68,-369.967"/>
</g>
<!-- Node15 -->
<g id="node15" class="node"><title>Node15</title>
<g id="a_node15"><a xlink:href="_indexed_entry_server_8h.html" target="_top" xlink:title=" ">
<polygon fill="white" stroke="black" points="1309,-0.5 1309,-30.5 1448,-30.5 1448,-0.5 1309,-0.5"/>
<text text-anchor="start" x="1317" y="-18.5" font-family="Helvetica,sans-Serif" font-size="10.00">Cpl/Persistent/IndexedEntry</text>
<text text-anchor="middle" x="1378.5" y="-7.5" font-family="Helvetica,sans-Serif" font-size="10.00">Server.h</text>
</a>
</g>
</g>
<!-- Node14&#45;&gt;Node15 -->
<g id="edge17" class="edge"><title>Node14&#45;&gt;Node15</title>
<path fill="none" stroke="midnightblue" d="M1378.5,-247.231C1378.5,-199.241 1378.5,-72.8688 1378.5,-30.5423"/>
<polygon fill="midnightblue" stroke="midnightblue" points="1375,-247.412 1378.5,-257.412 1382,-247.412 1375,-247.412"/>
</g>
<!-- Node16 -->
<g id="node16" class="node"><title>Node16</title>
<g id="a_node16"><a xlink:href="_record_server_8h.html" target="_top" xlink:title=" ">
<polygon fill="white" stroke="black" points="850,-196 850,-215 999,-215 999,-196 850,-196"/>
<text text-anchor="middle" x="924.5" y="-203" font-family="Helvetica,sans-Serif" font-size="10.00">Cpl/Persistent/RecordServer.h</text>
</a>
</g>
</g>
<!-- Node14&#45;&gt;Node16 -->
<g id="edge18" class="edge"><title>Node14&#45;&gt;Node16</title>
<path fill="none" stroke="midnightblue" d="M1316.31,-257.849C1230.53,-246.608 1076.67,-226.443 989.46,-215.014"/>
<polygon fill="midnightblue" stroke="midnightblue" points="1316.05,-261.345 1326.42,-259.175 1316.96,-254.405 1316.05,-261.345"/>
</g>
<!-- Node17 -->
<g id="node17" class="node"><title>Node17</title>
<g id="a_node17"><a xlink:href="_algorithm_8h.html" target="_top" xlink:title=" ">
<polygon fill="white" stroke="black" points="1055.5,-196 1055.5,-215 1203.5,-215 1203.5,-196 1055.5,-196"/>
<text text-anchor="middle" x="1129.5" y="-203" font-family="Helvetica,sans-Serif" font-size="10.00">Storm/Thermostat/Algorithm.h</text>
</a>
</g>
</g>
<!-- Node14&#45;&gt;Node17 -->
<g id="edge21" class="edge"><title>Node14&#45;&gt;Node17</title>
<path fill="none" stroke="midnightblue" d="M1332.94,-255.114C1284.61,-243.565 1209.27,-225.561 1165.11,-215.009"/>
<polygon fill="midnightblue" stroke="midnightblue" points="1332.28,-258.555 1342.82,-257.475 1333.91,-251.747 1332.28,-258.555"/>
</g>
<!-- Node16&#45;&gt;Node5 -->
<g id="edge19" class="edge"><title>Node16&#45;&gt;Node5</title>
<path fill="none" stroke="midnightblue" d="M916.633,-186.497C911.849,-175.55 905.961,-162.075 902.218,-153.509"/>
<polygon fill="midnightblue" stroke="midnightblue" points="913.563,-188.213 920.775,-195.975 919.978,-185.41 913.563,-188.213"/>
</g>
<!-- Node16&#45;&gt;Node7 -->
<g id="edge20" class="edge"><title>Node16&#45;&gt;Node7</title>
<path fill="none" stroke="midnightblue" d="M839.887,-195.206C760.467,-185.736 647.876,-170.179 606.5,-154 564.712,-137.66 543.672,-137.56 522.5,-98 515.999,-85.8525 515.189,-78.6779 522.5,-67 533.311,-49.7324 551.898,-38.2189 570.395,-30.6111"/>
<polygon fill="midnightblue" stroke="midnightblue" points="839.545,-198.689 849.887,-196.387 840.366,-191.738 839.545,-198.689"/>
</g>
<!-- Node19 -->
<g id="node19" class="node"><title>Node19</title>
<g id="a_node19"><a xlink:href="_open_sync_8h.html" target="_top" xlink:title=" ">
<polygon fill="white" stroke="black" points="1394.5,-313.5 1394.5,-332.5 1496.5,-332.5 1496.5,-313.5 1394.5,-313.5"/>
<text text-anchor="middle" x="1445.5" y="-320.5" font-family="Helvetica,sans-Serif" font-size="10.00">Cpl/Itc/OpenSync.h</text>
</a>
</g>
</g>
<!-- Node18&#45;&gt;Node19 -->
<g id="edge23" class="edge"><title>Node18&#45;&gt;Node19</title>
<path fill="none" stroke="midnightblue" d="M1448.24,-364.817C1447.52,-353.996 1446.64,-340.898 1446.07,-332.509"/>
<polygon fill="midnightblue" stroke="midnightblue" points="1444.76,-365.232 1448.93,-374.975 1451.75,-364.763 1444.76,-365.232"/>
</g>
<!-- Node19&#45;&gt;Node14 -->
<g id="edge24" class="edge"><title>Node19&#45;&gt;Node14</title>
<path fill="none" stroke="midnightblue" d="M1426.67,-306.82C1414.66,-297.145 1399.53,-284.948 1389.46,-276.834"/>
<polygon fill="midnightblue" stroke="midnightblue" points="1424.75,-309.774 1434.74,-313.324 1429.15,-304.324 1424.75,-309.774"/>
</g>
<!-- Node20&#45;&gt;Node15 -->
<g id="edge26" class="edge"><title>Node20&#45;&gt;Node15</title>
<path fill="none" stroke="midnightblue" d="M1708.76,-362.002C1689.19,-340.277 1663.5,-304.75 1663.5,-268 1663.5,-268 1663.5,-268 1663.5,-143 1663.5,-49.0772 1532.59,-24.3594 1448.22,-18.1823"/>
<polygon fill="midnightblue" stroke="midnightblue" points="1706.25,-364.44 1715.63,-369.359 1711.36,-359.662 1706.25,-364.44"/>
</g>
<!-- Node22 -->
<g id="node22" class="node"><title>Node22</title>
<g id="a_node22"><a xlink:href="_dm_2_mailbox_server_8h.html" target="_top" xlink:title=" ">
<polygon fill="white" stroke="black" points="648.5,-313.5 648.5,-332.5 770.5,-332.5 770.5,-313.5 648.5,-313.5"/>
<text text-anchor="middle" x="709.5" y="-320.5" font-family="Helvetica,sans-Serif" font-size="10.00">Cpl/Dm/MailboxServer.h</text>
</a>
</g>
</g>
<!-- Node21&#45;&gt;Node22 -->
<g id="edge28" class="edge"><title>Node21&#45;&gt;Node22</title>
<path fill="none" stroke="midnightblue" d="M790.501,-369.901C770.198,-358.396 741.735,-342.267 724.516,-332.509"/>
<polygon fill="midnightblue" stroke="midnightblue" points="789.03,-373.09 799.456,-374.975 792.481,-367 789.03,-373.09"/>
</g>
<!-- Node34 -->
<g id="node34" class="node"><title>Node34</title>
<g id="a_node34"><a xlink:href="_itc_2_mailbox_server_8h.html" target="_top" xlink:title=" ">
<polygon fill="white" stroke="black" points="831,-313.5 831,-332.5 950,-332.5 950,-313.5 831,-313.5"/>
<text text-anchor="middle" x="890.5" y="-320.5" font-family="Helvetica,sans-Serif" font-size="10.00">Cpl/Itc/MailboxServer.h</text>
</a>
</g>
</g>
<!-- Node21&#45;&gt;Node34 -->
<g id="edge53" class="edge"><title>Node21&#45;&gt;Node34</title>
<path fill="none" stroke="midnightblue" d="M833.284,-368.794C847.863,-357.38 867.562,-341.958 879.631,-332.509"/>
<polygon fill="midnightblue" stroke="midnightblue" points="831.105,-366.055 825.389,-374.975 835.421,-371.566 831.105,-366.055"/>
</g>
<!-- Node22&#45;&gt;Node16 -->
<g id="edge44" class="edge"><title>Node22&#45;&gt;Node16</title>
<path fill="none" stroke="midnightblue" d="M732.241,-308.174C754.684,-294.678 790.098,-273.784 821.5,-257 850.657,-241.416 885.309,-224.809 906.071,-215.058"/>
<polygon fill="midnightblue" stroke="midnightblue" points="730.218,-305.307 723.466,-313.471 733.836,-311.299 730.218,-305.307"/>
</g>
<!-- Node22&#45;&gt;Node17 -->
<g id="edge52" class="edge"><title>Node22&#45;&gt;Node17</title>
<path fill="none" stroke="midnightblue" d="M741.877,-309.769C763.789,-301.216 793.233,-289.184 818.5,-277 834.987,-269.05 837.271,-263.179 854.5,-257 893.395,-243.05 1002.18,-225.32 1070.7,-215.007"/>
<polygon fill="midnightblue" stroke="midnightblue" points="740.445,-306.57 732.381,-313.442 742.97,-313.099 740.445,-306.57"/>
</g>
<!-- Node23 -->
<g id="node23" class="node"><title>Node23</title>
<g id="a_node23"><a xlink:href="_dm_2_periodic_scheduler_8h.html" target="_top" xlink:title=" ">
<polygon fill="white" stroke="black" points="103,-257.5 103,-276.5 242,-276.5 242,-257.5 103,-257.5"/>
<text text-anchor="middle" x="172.5" y="-264.5" font-family="Helvetica,sans-Serif" font-size="10.00">Cpl/Dm/PeriodicScheduler.h</text>
</a>
</g>
</g>
<!-- Node22&#45;&gt;Node23 -->
<g id="edge29" class="edge"><title>Node22&#45;&gt;Node23</title>
<path fill="none" stroke="midnightblue" d="M638.25,-315.344C548.146,-306.848 388.248,-291.507 251.5,-277 248.48,-276.68 245.396,-276.348 242.28,-276.009"/>
<polygon fill="midnightblue" stroke="midnightblue" points="638.067,-318.843 648.352,-316.296 638.724,-311.873 638.067,-318.843"/>
</g>
<!-- Node24 -->
<g id="node24" class="node"><title>Node24</title>
<g id="a_node24"><a xlink:href="_chunk_8h.html" target="_top" xlink:title=" ">
<polygon fill="white" stroke="black" points="514,-257.5 514,-276.5 631,-276.5 631,-257.5 514,-257.5"/>
<text text-anchor="middle" x="572.5" y="-264.5" font-family="Helvetica,sans-Serif" font-size="10.00">Cpl/Persistent/Chunk.h</text>
</a>
</g>
</g>
<!-- Node22&#45;&gt;Node24 -->
<g id="edge30" class="edge"><title>Node22&#45;&gt;Node24</title>
<path fill="none" stroke="midnightblue" d="M678.477,-309.772C652.743,-299.629 616.814,-285.467 594.106,-276.516"/>
<polygon fill="midnightblue" stroke="midnightblue" points="677.205,-313.033 687.792,-313.444 679.772,-306.52 677.205,-313.033"/>
</g>
<!-- Node30 -->
<g id="node30" class="node"><title>Node30</title>
<g id="a_node30"><a xlink:href="_persistent_2_record_8h.html" target="_top" xlink:title=" ">
<polygon fill="white" stroke="black" points="649.5,-257.5 649.5,-276.5 769.5,-276.5 769.5,-257.5 649.5,-257.5"/>
<text text-anchor="middle" x="709.5" y="-264.5" font-family="Helvetica,sans-Serif" font-size="10.00">Cpl/Persistent/Record.h</text>
</a>
</g>
</g>
<!-- Node22&#45;&gt;Node30 -->
<g id="edge40" class="edge"><title>Node22&#45;&gt;Node30</title>
<path fill="none" stroke="midnightblue" d="M709.5,-302.805C709.5,-293.91 709.5,-283.78 709.5,-276.751"/>
<polygon fill="midnightblue" stroke="midnightblue" points="706,-303.083 709.5,-313.083 713,-303.083 706,-303.083"/>
</g>
<!-- Node31 -->
<g id="node31" class="node"><title>Node31</title>
<g id="a_node31"><a xlink:href="_region_media_8h.html" target="_top" xlink:title=" ">
<polygon fill="white" stroke="black" points="260.5,-257.5 260.5,-276.5 406.5,-276.5 406.5,-257.5 260.5,-257.5"/>
<text text-anchor="middle" x="333.5" y="-264.5" font-family="Helvetica,sans-Serif" font-size="10.00">Cpl/Persistent/RegionMedia.h</text>
</a>
</g>
</g>
<!-- Node22&#45;&gt;Node31 -->
<g id="edge45" class="edge"><title>Node22&#45;&gt;Node31</title>
<path fill="none" stroke="midnightblue" d="M639.727,-311.979C568.702,-301.779 459.788,-286.137 392.8,-276.516"/>
<polygon fill="midnightblue" stroke="midnightblue" points="639.526,-315.486 649.922,-313.444 640.521,-308.557 639.526,-315.486"/>
</g>
<!-- Node24&#45;&gt;Node5 -->
<g id="edge31" class="edge"><title>Node24&#45;&gt;Node5</title>
<path fill="none" stroke="midnightblue" d="M631.619,-255.624C679.2,-246.636 741.753,-233.197 764.5,-221 782.234,-211.491 780.742,-201.14 797.5,-190 821.48,-174.06 852.034,-161.35 873.225,-153.558"/>
<polygon fill="midnightblue" stroke="midnightblue" points="630.901,-252.197 621.713,-257.472 632.185,-259.078 630.901,-252.197"/>
</g>
<!-- Node25 -->
<g id="node25" class="node"><title>Node25</title>
<g id="a_node25"><a xlink:href="_crc_chunk_8h.html" target="_top" xlink:title=" ">
<polygon fill="white" stroke="black" points="427.5,-196 427.5,-215 559.5,-215 559.5,-196 427.5,-196"/>
<text text-anchor="middle" x="493.5" y="-203" font-family="Helvetica,sans-Serif" font-size="10.00">Cpl/Persistent/CrcChunk.h</text>
</a>
</g>
</g>
<!-- Node24&#45;&gt;Node25 -->
<g id="edge32" class="edge"><title>Node24&#45;&gt;Node25</title>
<path fill="none" stroke="midnightblue" d="M552.974,-251.294C537.82,-239.88 517.343,-224.458 504.798,-215.009"/>
<polygon fill="midnightblue" stroke="midnightblue" points="551.088,-254.255 561.181,-257.475 555.299,-248.663 551.088,-254.255"/>
</g>
<!-- Node26 -->
<g id="node26" class="node"><title>Node26</title>
<g id="a_node26"><a xlink:href="_data_record_8h.html" target="_top" xlink:title=" ">
<polygon fill="white" stroke="black" points="615.5,-196 615.5,-215 755.5,-215 755.5,-196 615.5,-196"/>
<text text-anchor="middle" x="685.5" y="-203" font-family="Helvetica,sans-Serif" font-size="10.00">Cpl/Persistent/DataRecord.h</text>
</a>
</g>
</g>
<!-- Node24&#45;&gt;Node26 -->
<g id="edge33" class="edge"><title>Node24&#45;&gt;Node26</title>
<path fill="none" stroke="midnightblue" d="M597.736,-252.712C619.622,-241.188 650.641,-224.855 669.34,-215.009"/>
<polygon fill="midnightblue" stroke="midnightblue" points="595.908,-249.719 588.69,-257.475 599.169,-255.913 595.908,-249.719"/>
</g>
<!-- Node28 -->
<g id="node28" class="node"><title>Node28</title>
<g id="a_node28"><a xlink:href="_indexed_entry_record_8h.html" target="_top" xlink:title=" ">
<polygon fill="white" stroke="black" points="532,-67.5 532,-97.5 671,-97.5 671,-67.5 532,-67.5"/>
<text text-anchor="start" x="540" y="-85.5" font-family="Helvetica,sans-Serif" font-size="10.00">Cpl/Persistent/IndexedEntry</text>
<text text-anchor="middle" x="601.5" y="-74.5" font-family="Helvetica,sans-Serif" font-size="10.00">Record.h</text>
</a>
</g>
</g>
<!-- Node24&#45;&gt;Node28 -->
<g id="edge37" class="edge"><title>Node24&#45;&gt;Node28</title>
<path fill="none" stroke="midnightblue" d="M575.538,-246.881C581.385,-210.088 594.078,-130.206 599.244,-97.6947"/>
<polygon fill="midnightblue" stroke="midnightblue" points="572.012,-246.772 573.899,-257.198 578.925,-247.871 572.012,-246.772"/>
</g>
<!-- Node29 -->
<g id="node29" class="node"><title>Node29</title>
<g id="a_node29"><a xlink:href="_mirrored_chunk_8h.html" target="_top" xlink:title=" ">
<polygon fill="white" stroke="black" points="257.5,-196 257.5,-215 409.5,-215 409.5,-196 257.5,-196"/>
<text text-anchor="middle" x="333.5" y="-203" font-family="Helvetica,sans-Serif" font-size="10.00">Cpl/Persistent/MirroredChunk.h</text>
</a>
</g>
</g>
<!-- Node24&#45;&gt;Node29 -->
<g id="edge38" class="edge"><title>Node24&#45;&gt;Node29</title>
<path fill="none" stroke="midnightblue" d="M528.481,-255.041C482.081,-243.49 409.978,-225.539 367.679,-215.009"/>
<polygon fill="midnightblue" stroke="midnightblue" points="527.708,-258.456 538.257,-257.475 529.399,-251.663 527.708,-258.456"/>
</g>
<!-- Node27 -->
<g id="node27" class="node"><title>Node27</title>
<g id="a_node27"><a xlink:href="_index_record_8h.html" target="_top" xlink:title=" ">
<polygon fill="white" stroke="black" points="615.5,-134.5 615.5,-153.5 759.5,-153.5 759.5,-134.5 615.5,-134.5"/>
<text text-anchor="middle" x="687.5" y="-141.5" font-family="Helvetica,sans-Serif" font-size="10.00">Cpl/Persistent/IndexRecord.h</text>
</a>
</g>
</g>
<!-- Node26&#45;&gt;Node27 -->
<g id="edge34" class="edge"><title>Node26&#45;&gt;Node27</title>
<path fill="none" stroke="midnightblue" d="M686.128,-185.817C686.492,-174.996 686.932,-161.898 687.214,-153.509"/>
<polygon fill="midnightblue" stroke="midnightblue" points="682.625,-185.863 685.787,-195.975 689.621,-186.098 682.625,-185.863"/>
</g>
<!-- Node27&#45;&gt;Node28 -->
<g id="edge35" class="edge"><title>Node27&#45;&gt;Node28</title>
<path fill="none" stroke="midnightblue" d="M666.887,-128.739C653.219,-119.282 635.366,-106.93 621.768,-97.523"/>
<polygon fill="midnightblue" stroke="midnightblue" points="664.963,-131.664 675.178,-134.475 668.946,-125.907 664.963,-131.664"/>
</g>
<!-- Node28&#45;&gt;Node15 -->
<g id="edge36" class="edge"><title>Node28&#45;&gt;Node15</title>
<path fill="none" stroke="midnightblue" d="M681.295,-66.8563C916.513,-37.1182 1184.55,-23.9003 1308.79,-18.9566"/>
<polygon fill="midnightblue" stroke="midnightblue" points="680.656,-63.4093 671.18,-68.1479 681.543,-70.3529 680.656,-63.4093"/>
</g>
<!-- Node29&#45;&gt;Node7 -->
<g id="edge39" class="edge"><title>Node29&#45;&gt;Node7</title>
<path fill="none" stroke="midnightblue" d="M348.127,-188.134C374.099,-159.933 431.054,-101.86 489.5,-67 516.06,-51.1581 548.42,-38.9464 575.019,-30.5027"/>
<polygon fill="midnightblue" stroke="midnightblue" points="345.233,-186.114 341.095,-195.868 350.412,-190.824 345.233,-186.114"/>
</g>
<!-- Node30&#45;&gt;Node5 -->
<g id="edge41" class="edge"><title>Node30&#45;&gt;Node5</title>
<path fill="none" stroke="midnightblue" d="M737.734,-253.097C755.338,-244.681 778.228,-233.053 797.5,-221 815.733,-209.597 865.251,-171.105 887.461,-153.688"/>
<polygon fill="midnightblue" stroke="midnightblue" points="736.108,-249.995 728.555,-257.425 739.093,-256.326 736.108,-249.995"/>
</g>
<!-- Node30&#45;&gt;Node16 -->
<g id="edge43" class="edge"><title>Node30&#45;&gt;Node16</title>
<path fill="none" stroke="midnightblue" d="M750.154,-254.749C791.925,-243.189 856.021,-225.451 893.753,-215.009"/>
<polygon fill="midnightblue" stroke="midnightblue" points="749.008,-251.435 740.304,-257.475 750.876,-258.181 749.008,-251.435"/>
</g>
<!-- Node30&#45;&gt;Node26 -->
<g id="edge42" class="edge"><title>Node30&#45;&gt;Node26</title>
<path fill="none" stroke="midnightblue" d="M702.238,-247.997C697.823,-237.05 692.387,-223.575 688.932,-215.009"/>
<polygon fill="midnightblue" stroke="midnightblue" points="699.075,-249.51 706.061,-257.475 705.566,-246.892 699.075,-249.51"/>
</g>
<!-- Node31&#45;&gt;Node25 -->
<g id="edge46" class="edge"><title>Node31&#45;&gt;Node25</title>
<path fill="none" stroke="midnightblue" d="M365.949,-253.933C397.047,-242.368 443.192,-225.208 470.618,-215.009"/>
<polygon fill="midnightblue" stroke="midnightblue" points="364.577,-250.709 356.424,-257.475 367.017,-257.27 364.577,-250.709"/>
</g>
<!-- Node31&#45;&gt;Node28 -->
<g id="edge49" class="edge"><title>Node31&#45;&gt;Node28</title>
<path fill="none" stroke="midnightblue" d="M290.374,-253.729C274.333,-246.84 257.787,-236.426 248.5,-221 241.393,-209.197 240.284,-201.06 248.5,-190 282.377,-144.394 438.98,-110.831 531.836,-94.5359"/>
<polygon fill="midnightblue" stroke="midnightblue" points="289.114,-256.994 299.701,-257.388 291.67,-250.478 289.114,-256.994"/>
</g>
<!-- Node31&#45;&gt;Node29 -->
<g id="edge50" class="edge"><title>Node31&#45;&gt;Node29</title>
<path fill="none" stroke="midnightblue" d="M333.5,-247.317C333.5,-236.496 333.5,-223.398 333.5,-215.009"/>
<polygon fill="midnightblue" stroke="midnightblue" points="330,-247.475 333.5,-257.475 337,-247.475 330,-247.475"/>
</g>
<!-- Node32 -->
<g id="node32" class="node"><title>Node32</title>
<g id="a_node32"><a xlink:href="_file_adapter_8h.html" target="_top" xlink:title=" ">
<polygon fill="white" stroke="black" points="0,-134.5 0,-153.5 139,-153.5 139,-134.5 0,-134.5"/>
<text text-anchor="middle" x="69.5" y="-141.5" font-family="Helvetica,sans-Serif" font-size="10.00">Cpl/Persistent/FileAdapter.h</text>
</a>
</g>
</g>
<!-- Node31&#45;&gt;Node32 -->
<g id="edge47" class="edge"><title>Node31&#45;&gt;Node32</title>
<path fill="none" stroke="midnightblue" d="M259.886,-256.061C182.452,-245.251 70.8594,-228.512 64.5,-221 48.2665,-201.825 58.8838,-169.249 65.4374,-153.726"/>
<polygon fill="midnightblue" stroke="midnightblue" points="259.71,-259.57 270.097,-257.48 260.674,-252.637 259.71,-259.57"/>
</g>
<!-- Node33 -->
<g id="node33" class="node"><title>Node33</title>
<g id="a_node33"><a xlink:href="_null_region_media_8h.html" target="_top" xlink:title=" ">
<polygon fill="white" stroke="black" points="73.5,-190.5 73.5,-220.5 201.5,-220.5 201.5,-190.5 73.5,-190.5"/>
<text text-anchor="start" x="81.5" y="-208.5" font-family="Helvetica,sans-Serif" font-size="10.00">Cpl/Persistent/NullRegion</text>
<text text-anchor="middle" x="137.5" y="-197.5" font-family="Helvetica,sans-Serif" font-size="10.00">Media.h</text>
</a>
</g>
</g>
<!-- Node31&#45;&gt;Node33 -->
<g id="edge51" class="edge"><title>Node31&#45;&gt;Node33</title>
<path fill="none" stroke="midnightblue" d="M295.562,-254.483C263.606,-244.782 217.781,-230.871 183.693,-220.523"/>
<polygon fill="midnightblue" stroke="midnightblue" points="294.832,-257.919 305.418,-257.475 296.866,-251.221 294.832,-257.919"/>
</g>
<!-- Node32&#45;&gt;Node7 -->
<g id="edge48" class="edge"><title>Node32&#45;&gt;Node7</title>
<path fill="none" stroke="midnightblue" d="M85.9341,-127.356C105.862,-109.42 141.299,-80.7338 177.5,-67 247.267,-40.5319 461.317,-25.5133 566.666,-19.5446"/>
<polygon fill="midnightblue" stroke="midnightblue" points="83.3696,-124.959 78.3861,-134.309 88.1124,-130.108 83.3696,-124.959"/>
</g>
<!-- Node35 -->
<g id="node35" class="node"><title>Node35</title>
<g id="a_node35"><a xlink:href="_itc_2_periodic_scheduler_8h.html" target="_top" xlink:title=" ">
<polygon fill="white" stroke="black" points="864,-257.5 864,-276.5 999,-276.5 999,-257.5 864,-257.5"/>
<text text-anchor="middle" x="931.5" y="-264.5" font-family="Helvetica,sans-Serif" font-size="10.00">Cpl/Itc/PeriodicScheduler.h</text>
</a>
</g>
</g>
<!-- Node34&#45;&gt;Node35 -->
<g id="edge54" class="edge"><title>Node34&#45;&gt;Node35</title>
<path fill="none" stroke="midnightblue" d="M903.517,-304.855C910.617,-295.505 919.104,-284.327 924.856,-276.751"/>
<polygon fill="midnightblue" stroke="midnightblue" points="900.53,-303.002 897.27,-313.083 906.105,-307.235 900.53,-303.002"/>
</g>
<!-- Node36&#45;&gt;Node4 -->
<g id="edge56" class="edge"><title>Node36&#45;&gt;Node4</title>
<path fill="none" stroke="midnightblue" d="M1371.92,-561.985C1338.7,-556.1 1294.83,-544.706 1261.5,-523 1207.19,-487.636 1165.57,-418.368 1152.12,-394.126"/>
<polygon fill="midnightblue" stroke="midnightblue" points="1371.42,-565.45 1381.86,-563.64 1372.57,-558.545 1371.42,-565.45"/>
</g>
<!-- Node36&#45;&gt;Node10 -->
<g id="edge57" class="edge"><title>Node36&#45;&gt;Node10</title>
<path fill="none" stroke="midnightblue" d="M1371.91,-559.521C1333.62,-552.078 1279.25,-539.808 1233.5,-523 1129.94,-484.953 1014.64,-417.672 975.422,-394.015"/>
<polygon fill="midnightblue" stroke="midnightblue" points="1371.29,-562.966 1381.77,-561.4 1372.6,-556.09 1371.29,-562.966"/>
</g>
<!-- Node36&#45;&gt;Node11 -->
<g id="edge60" class="edge"><title>Node36&#45;&gt;Node11</title>
<path fill="none" stroke="midnightblue" d="M1372.04,-556.837C1327.26,-543.666 1263.28,-516.937 1233.5,-467 1226.44,-455.167 1226.92,-448.104 1233.5,-436 1244.68,-415.451 1268.22,-401.979 1286.53,-394.159"/>
<polygon fill="midnightblue" stroke="midnightblue" points="1371.28,-560.257 1381.85,-559.597 1373.17,-553.519 1371.28,-560.257"/>
</g>
<!-- Node36&#45;&gt;Node13 -->
<g id="edge61" class="edge"><title>Node36&#45;&gt;Node13</title>
<path fill="none" stroke="midnightblue" d="M1458.91,-555.869C1477.16,-548.607 1498.25,-537.854 1513.5,-523 1553.52,-484.003 1575.38,-417.604 1582.17,-394.076"/>
<polygon fill="midnightblue" stroke="midnightblue" points="1457.53,-552.65 1449.4,-559.449 1459.99,-559.201 1457.53,-552.65"/>
</g>
<!-- Node36&#45;&gt;Node18 -->
<g id="edge62" class="edge"><title>Node36&#45;&gt;Node18</title>
<path fill="none" stroke="midnightblue" d="M1457.21,-555.268C1471.84,-548.181 1487.15,-537.742 1495.5,-523 1521.05,-477.876 1475.69,-416.339 1457,-394.023"/>
<polygon fill="midnightblue" stroke="midnightblue" points="1455.5,-552.197 1447.78,-559.453 1458.34,-558.596 1455.5,-552.197"/>
</g>
<!-- Node36&#45;&gt;Node20 -->
<g id="edge72" class="edge"><title>Node36&#45;&gt;Node20</title>
<path fill="none" stroke="midnightblue" d="M1457.58,-556.112C1480.63,-548.088 1510.54,-536.516 1535.5,-523 1594.06,-491.292 1603,-474.278 1657.5,-436 1675.15,-423.599 1695.33,-409.659 1709.99,-399.571"/>
<polygon fill="midnightblue" stroke="midnightblue" points="1456.16,-552.896 1447.83,-559.436 1458.42,-559.521 1456.16,-552.896"/>
</g>
<!-- Node37 -->
<g id="node37" class="node"><title>Node37</title>
<g id="a_node37"><a xlink:href="_listener_client_request_8h.html" target="_top" xlink:title=" ">
<polygon fill="white" stroke="black" points="1666.5,-436.5 1666.5,-466.5 1804.5,-466.5 1804.5,-436.5 1666.5,-436.5"/>
<text text-anchor="start" x="1674.5" y="-454.5" font-family="Helvetica,sans-Serif" font-size="10.00">Cpl/Io/Socket/ListenerClient</text>
<text text-anchor="middle" x="1735.5" y="-443.5" font-family="Helvetica,sans-Serif" font-size="10.00">Request.h</text>
</a>
</g>
</g>
<!-- Node36&#45;&gt;Node37 -->
<g id="edge58" class="edge"><title>Node36&#45;&gt;Node37</title>
<path fill="none" stroke="midnightblue" d="M1469.57,-565.704C1518.15,-561.808 1593.58,-551.305 1652.5,-523 1681.3,-509.164 1708.25,-482.871 1723.24,-466.599"/>
<polygon fill="midnightblue" stroke="midnightblue" points="1469.05,-562.234 1459.33,-566.46 1469.56,-569.215 1469.05,-562.234"/>
</g>
<!-- Node39 -->
<g id="node39" class="node"><title>Node39</title>
<g id="a_node39"><a xlink:href="_request_message_8h.html" target="_top" xlink:title=" ">
<polygon fill="white" stroke="black" points="1354.5,-503.5 1354.5,-522.5 1486.5,-522.5 1486.5,-503.5 1354.5,-503.5"/>
<text text-anchor="middle" x="1420.5" y="-510.5" font-family="Helvetica,sans-Serif" font-size="10.00">Cpl/Itc/RequestMessage.h</text>
</a>
</g>
</g>
<!-- Node36&#45;&gt;Node39 -->
<g id="edge63" class="edge"><title>Node36&#45;&gt;Node39</title>
<path fill="none" stroke="midnightblue" d="M1420.5,-548.805C1420.5,-539.91 1420.5,-529.78 1420.5,-522.751"/>
<polygon fill="midnightblue" stroke="midnightblue" points="1417,-549.083 1420.5,-559.083 1424,-549.083 1417,-549.083"/>
</g>
<!-- Node38 -->
<g id="node38" class="node"><title>Node38</title>
<g id="a_node38"><a xlink:href="_listener_client_sync_8h.html" target="_top" xlink:title=" ">
<polygon fill="white" stroke="black" points="1818.5,-369.5 1818.5,-399.5 1956.5,-399.5 1956.5,-369.5 1818.5,-369.5"/>
<text text-anchor="start" x="1826.5" y="-387.5" font-family="Helvetica,sans-Serif" font-size="10.00">Cpl/Io/Socket/ListenerClient</text>
<text text-anchor="middle" x="1887.5" y="-376.5" font-family="Helvetica,sans-Serif" font-size="10.00">Sync.h</text>
</a>
</g>
</g>
<!-- Node37&#45;&gt;Node38 -->
<g id="edge59" class="edge"><title>Node37&#45;&gt;Node38</title>
<path fill="none" stroke="midnightblue" d="M1777.81,-432.407C1802.08,-422.029 1832.09,-409.195 1854.58,-399.577"/>
<polygon fill="midnightblue" stroke="midnightblue" points="1776.3,-429.246 1768.48,-436.396 1779.05,-435.682 1776.3,-429.246"/>
</g>
<!-- Node39&#45;&gt;Node3 -->
<g id="edge70" class="edge"><title>Node39&#45;&gt;Node3</title>
<path fill="none" stroke="midnightblue" d="M1396.1,-498.556C1375.2,-487.042 1345.74,-470.811 1327.95,-461.009"/>
<polygon fill="midnightblue" stroke="midnightblue" points="1394.58,-501.715 1405.03,-503.475 1397.96,-495.584 1394.58,-501.715"/>
</g>
<!-- Node39&#45;&gt;Node4 -->
<g id="edge64" class="edge"><title>Node39&#45;&gt;Node4</title>
<path fill="none" stroke="midnightblue" d="M1344.06,-502.857C1308.83,-496.374 1267.42,-485.415 1233.5,-467 1198.43,-447.961 1167.12,-410.974 1154.02,-394.175"/>
<polygon fill="midnightblue" stroke="midnightblue" points="1343.84,-506.372 1354.3,-504.649 1345.05,-499.477 1343.84,-506.372"/>
</g>
<!-- Node39&#45;&gt;Node10 -->
<g id="edge65" class="edge"><title>Node39&#45;&gt;Node10</title>
<path fill="none" stroke="midnightblue" d="M1353.69,-501.83C1306.99,-494.046 1243.42,-482.089 1188.5,-467 1110.78,-445.644 1021.59,-410.323 982.125,-394.114"/>
<polygon fill="midnightblue" stroke="midnightblue" points="1353.25,-505.305 1363.68,-503.476 1354.39,-498.398 1353.25,-505.305"/>
</g>
<!-- Node39&#45;&gt;Node11 -->
<g id="edge67" class="edge"><title>Node39&#45;&gt;Node11</title>
<path fill="none" stroke="midnightblue" d="M1416.82,-493.029C1412.85,-476.521 1405.17,-452.69 1391.5,-436 1375.58,-416.557 1350.11,-402.316 1332.2,-394.004"/>
<polygon fill="midnightblue" stroke="midnightblue" points="1413.47,-494.079 1419.01,-503.11 1420.31,-492.595 1413.47,-494.079"/>
</g>
<!-- Node39&#45;&gt;Node13 -->
<g id="edge68" class="edge"><title>Node39&#45;&gt;Node13</title>
<path fill="none" stroke="midnightblue" d="M1440.13,-496.861C1474.74,-470.165 1545.56,-415.533 1573.15,-394.256"/>
<polygon fill="midnightblue" stroke="midnightblue" points="1437.55,-494.426 1431.77,-503.305 1441.83,-499.969 1437.55,-494.426"/>
</g>
<!-- Node39&#45;&gt;Node18 -->
<g id="edge69" class="edge"><title>Node39&#45;&gt;Node18</title>
<path fill="none" stroke="midnightblue" d="M1424.79,-493.306C1431.14,-465.576 1442.82,-414.628 1447.49,-394.256"/>
<polygon fill="midnightblue" stroke="midnightblue" points="1421.32,-492.776 1422.49,-503.305 1428.14,-494.34 1421.32,-492.776"/>
</g>
<!-- Node39&#45;&gt;Node20 -->
<g id="edge71" class="edge"><title>Node39&#45;&gt;Node20</title>
<path fill="none" stroke="midnightblue" d="M1451.19,-499.477C1509.31,-475.761 1635.05,-424.449 1696,-399.58"/>
<polygon fill="midnightblue" stroke="midnightblue" points="1449.74,-496.286 1441.81,-503.305 1452.39,-502.767 1449.74,-496.286"/>
</g>
<!-- Node39&#45;&gt;Node37 -->
<g id="edge66" class="edge"><title>Node39&#45;&gt;Node37</title>
<path fill="none" stroke="midnightblue" d="M1475.53,-501.605C1528.58,-491.585 1609.02,-476.39 1666.36,-465.559"/>
<polygon fill="midnightblue" stroke="midnightblue" points="1474.81,-498.18 1465.63,-503.475 1476.11,-505.058 1474.81,-498.18"/>
</g>
</g>
</svg>
