<?xml version="1.0" encoding="UTF-8" standalone="no"?>
<!DOCTYPE svg PUBLIC "-//W3C//DTD SVG 1.1//EN"
 "http://www.w3.org/Graphics/SVG/1.1/DTD/svg11.dtd">
<!-- Generated by graphviz version 10.0.1 (20240210.2158)
 -->
<!-- Title: Cpl/TShell/ProcessorApi.h Pages: 1 -->
<svg width="2674pt" height="276pt"
 viewBox="0.00 0.00 2673.75 276.00" xmlns="http://www.w3.org/2000/svg" xmlns:xlink="http://www.w3.org/1999/xlink">
<g id="graph0" class="graph" transform="scale(1 1) rotate(0) translate(4 272)">
<title>Cpl/TShell/ProcessorApi.h</title>
<!-- Node1 -->
<g id="Node000001" class="node">
<title>Node1</title>
<g id="a_Node000001"><a xlink:title=" ">
<polygon fill="#999999" stroke="#666666" points="2554.25,-268 2424.25,-268 2424.25,-248 2554.25,-248 2554.25,-268"/>
<text text-anchor="middle" x="2489.25" y="-254.5" font-family="Helvetica,sans-Serif" font-size="10.00">Cpl/TShell/ProcessorApi.h</text>
</a>
</g>
</g>
<!-- Node2 -->
<g id="Node000002" class="node">
<title>Node2</title>
<g id="a_Node000002"><a xlink:href="_context___8h.html" target="_top" xlink:title=" ">
<polygon fill="white" stroke="#666666" points="2420.5,-212 2310,-212 2310,-192 2420.5,-192 2420.5,-212"/>
<text text-anchor="middle" x="2365.25" y="-198.5" font-family="Helvetica,sans-Serif" font-size="10.00">Cpl/TShell/Context_.h</text>
</a>
</g>
</g>
<!-- Node1&#45;&gt;Node2 -->
<g id="edge1_Node000001_Node000002" class="edge">
<title>Node1&#45;&gt;Node2</title>
<g id="a_edge1_Node000001_Node000002"><a xlink:title=" ">
<path fill="none" stroke="#63b8ff" d="M2457.12,-243.01C2435.08,-233.41 2406.42,-220.93 2387.02,-212.48"/>
<polygon fill="#63b8ff" stroke="#63b8ff" points="2455.7,-246.21 2466.26,-246.99 2458.49,-239.79 2455.7,-246.21"/>
</a>
</g>
</g>
<!-- Node29 -->
<g id="Node000029" class="node">
<title>Node29</title>
<g id="a_Node000029"><a xlink:href="_socket_8h.html" target="_top" xlink:title=" ">
<polygon fill="white" stroke="#666666" points="2540.38,-212 2438.12,-212 2438.12,-192 2540.38,-192 2540.38,-212"/>
<text text-anchor="middle" x="2489.25" y="-198.5" font-family="Helvetica,sans-Serif" font-size="10.00">Cpl/TShell/Socket.h</text>
</a>
</g>
</g>
<!-- Node1&#45;&gt;Node29 -->
<g id="edge29_Node000001_Node000029" class="edge">
<title>Node1&#45;&gt;Node29</title>
<g id="a_edge29_Node000001_Node000029"><a xlink:title=" ">
<path fill="none" stroke="#63b8ff" d="M2489.25,-236.13C2489.25,-227.9 2489.25,-218.85 2489.25,-212.3"/>
<polygon fill="#63b8ff" stroke="#63b8ff" points="2485.75,-236.08 2489.25,-246.08 2492.75,-236.08 2485.75,-236.08"/>
</a>
</g>
</g>
<!-- Node30 -->
<g id="Node000030" class="node">
<title>Node30</title>
<g id="a_Node000030"><a xlink:href="_t_shell_2_stdio_8h.html" target="_top" xlink:title=" ">
<polygon fill="white" stroke="#666666" points="2652.25,-212 2558.25,-212 2558.25,-192 2652.25,-192 2652.25,-212"/>
<text text-anchor="middle" x="2605.25" y="-198.5" font-family="Helvetica,sans-Serif" font-size="10.00">Cpl/TShell/Stdio.h</text>
</a>
</g>
</g>
<!-- Node1&#45;&gt;Node30 -->
<g id="edge30_Node000001_Node000030" class="edge">
<title>Node1&#45;&gt;Node30</title>
<g id="a_edge30_Node000001_Node000030"><a xlink:title=" ">
<path fill="none" stroke="#63b8ff" d="M2519.87,-242.75C2540.41,-233.18 2566.9,-220.85 2584.89,-212.48"/>
<polygon fill="#63b8ff" stroke="#63b8ff" points="2518.42,-239.56 2510.83,-246.96 2521.37,-245.91 2518.42,-239.56"/>
</a>
</g>
</g>
<!-- Node3 -->
<g id="Node000003" class="node">
<title>Node3</title>
<g id="a_Node000003"><a xlink:href="_cmd_2_command_8h.html" target="_top" xlink:title=" ">
<polygon fill="white" stroke="#666666" points="1291.75,-156 1152.75,-156 1152.75,-136 1291.75,-136 1291.75,-156"/>
<text text-anchor="middle" x="1222.25" y="-142.5" font-family="Helvetica,sans-Serif" font-size="10.00">Cpl/TShell/Cmd/Command.h</text>
</a>
</g>
</g>
<!-- Node2&#45;&gt;Node3 -->
<g id="edge2_Node000002_Node000003" class="edge">
<title>Node2&#45;&gt;Node3</title>
<g id="a_edge2_Node000002_Node000003"><a xlink:title=" ">
<path fill="none" stroke="#63b8ff" d="M2298.46,-197.84C2097.07,-188.33 1497,-159.98 1291.89,-150.29"/>
<polygon fill="#63b8ff" stroke="#63b8ff" points="2298.07,-201.33 2308.22,-198.31 2298.4,-194.34 2298.07,-201.33"/>
</a>
</g>
</g>
<!-- Node25 -->
<g id="Node000025" class="node">
<title>Node25</title>
<g id="a_Node000025"><a xlink:href="_processor_8h.html" target="_top" xlink:title=" ">
<polygon fill="white" stroke="#666666" points="2475.12,-156 2359.38,-156 2359.38,-136 2475.12,-136 2475.12,-156"/>
<text text-anchor="middle" x="2417.25" y="-142.5" font-family="Helvetica,sans-Serif" font-size="10.00">Cpl/TShell/Processor.h</text>
</a>
</g>
</g>
<!-- Node2&#45;&gt;Node25 -->
<g id="edge25_Node000002_Node000025" class="edge">
<title>Node2&#45;&gt;Node25</title>
<g id="a_edge25_Node000002_Node000025"><a xlink:title=" ">
<path fill="none" stroke="#63b8ff" d="M2382.04,-183.57C2390.77,-174.5 2401.09,-163.78 2408.3,-156.3"/>
<polygon fill="#63b8ff" stroke="#63b8ff" points="2379.77,-180.87 2375.36,-190.5 2384.82,-185.73 2379.77,-180.87"/>
</a>
</g>
</g>
<!-- Node4 -->
<g id="Node000004" class="node">
<title>Node4</title>
<g id="a_Node000004"><a xlink:href="_dm_8h.html" target="_top" xlink:title=" ">
<polygon fill="white" stroke="#666666" points="104.5,-94 0,-94 0,-74 104.5,-74 104.5,-94"/>
<text text-anchor="middle" x="52.25" y="-80.5" font-family="Helvetica,sans-Serif" font-size="10.00">Cpl/Dm/TShell/Dm.h</text>
</a>
</g>
</g>
<!-- Node3&#45;&gt;Node4 -->
<g id="edge3_Node000003_Node000004" class="edge">
<title>Node3&#45;&gt;Node4</title>
<g id="a_edge3_Node000003_Node000004"><a xlink:title=" ">
<path fill="none" stroke="#63b8ff" d="M1140.92,-143.82C919.93,-140.26 311.69,-128.13 113.25,-100 104.18,-98.71 94.49,-96.66 85.57,-94.47"/>
<polygon fill="#63b8ff" stroke="#63b8ff" points="1140.84,-147.31 1150.89,-143.97 1140.95,-140.32 1140.84,-147.31"/>
</a>
</g>
</g>
<!-- Node5 -->
<g id="Node000005" class="node">
<title>Node5</title>
<g id="a_Node000005"><a xlink:href="_cpl_2_logging_2_t_shell_2_log_8h.html" target="_top" xlink:title=" ">
<polygon fill="white" stroke="#666666" points="219.75,-100 122.75,-100 122.75,-68 219.75,-68 219.75,-100"/>
<text text-anchor="start" x="130.75" y="-86.5" font-family="Helvetica,sans-Serif" font-size="10.00">Cpl/Logging/TShell</text>
<text text-anchor="middle" x="171.25" y="-74.5" font-family="Helvetica,sans-Serif" font-size="10.00">/Log.h</text>
</a>
</g>
</g>
<!-- Node3&#45;&gt;Node5 -->
<g id="edge4_Node000003_Node000005" class="edge">
<title>Node3&#45;&gt;Node5</title>
<g id="a_edge4_Node000003_Node000005"><a xlink:title=" ">
<path fill="none" stroke="#63b8ff" d="M1141.28,-143.5C936.98,-139.36 404.38,-126.32 229.25,-100 226.27,-99.55 223.22,-99.01 220.15,-98.41"/>
<polygon fill="#63b8ff" stroke="#63b8ff" points="1140.93,-146.99 1151,-143.69 1141.07,-139.99 1140.93,-146.99"/>
</a>
</g>
</g>
<!-- Node6 -->
<g id="Node000006" class="node">
<title>Node6</title>
<g id="a_Node000006"><a xlink:href="_cpl_2_m_app_2_cmd_8h.html" target="_top" xlink:title=" ">
<polygon fill="white" stroke="#666666" points="328.38,-94 238.12,-94 238.12,-74 328.38,-74 328.38,-94"/>
<text text-anchor="middle" x="283.25" y="-80.5" font-family="Helvetica,sans-Serif" font-size="10.00">Cpl/MApp/Cmd.h</text>
</a>
</g>
</g>
<!-- Node3&#45;&gt;Node6 -->
<g id="edge5_Node000003_Node000006" class="edge">
<title>Node3&#45;&gt;Node6</title>
<g id="a_edge5_Node000003_Node000006"><a xlink:title=" ">
<path fill="none" stroke="#63b8ff" d="M1140.92,-143.15C952.51,-138.5 490.55,-124.88 337.25,-100 329.18,-98.69 320.6,-96.63 312.7,-94.44"/>
<polygon fill="#63b8ff" stroke="#63b8ff" points="1140.79,-146.65 1150.87,-143.4 1140.96,-139.65 1140.79,-146.65"/>
</a>
</g>
</g>
<!-- Node7 -->
<g id="Node000007" class="node">
<title>Node7</title>
<g id="a_Node000007"><a xlink:href="_dbg_8h.html" target="_top" xlink:title=" ">
<polygon fill="white" stroke="#666666" points="466,-100 346.5,-100 346.5,-68 466,-68 466,-100"/>
<text text-anchor="start" x="354.5" y="-86.5" font-family="Helvetica,sans-Serif" font-size="10.00">Cpl/TShell/Cmd/Arduino</text>
<text text-anchor="middle" x="406.25" y="-74.5" font-family="Helvetica,sans-Serif" font-size="10.00">/Dbg.h</text>
</a>
</g>
</g>
<!-- Node3&#45;&gt;Node7 -->
<g id="edge6_Node000003_Node000007" class="edge">
<title>Node3&#45;&gt;Node7</title>
<g id="a_edge6_Node000003_Node000007"><a xlink:title=" ">
<path fill="none" stroke="#63b8ff" d="M1141.14,-144.19C1003.56,-141.91 715.92,-133.21 475.25,-100 472.34,-99.6 469.36,-99.14 466.36,-98.64"/>
<polygon fill="#63b8ff" stroke="#63b8ff" points="1140.82,-147.69 1150.87,-144.35 1140.93,-140.69 1140.82,-147.69"/>
</a>
</g>
</g>
<!-- Node8 -->
<g id="Node000008" class="node">
<title>Node8</title>
<g id="a_Node000008"><a xlink:href="_bye_8h.html" target="_top" xlink:title=" ">
<polygon fill="white" stroke="#666666" points="596.25,-94 484.25,-94 484.25,-74 596.25,-74 596.25,-94"/>
<text text-anchor="middle" x="540.25" y="-80.5" font-family="Helvetica,sans-Serif" font-size="10.00">Cpl/TShell/Cmd/Bye.h</text>
</a>
</g>
</g>
<!-- Node3&#45;&gt;Node8 -->
<g id="edge7_Node000003_Node000008" class="edge">
<title>Node3&#45;&gt;Node8</title>
<g id="a_edge7_Node000003_Node000008"><a xlink:title=" ">
<path fill="none" stroke="#63b8ff" d="M1141,-143.06C1022.58,-139.32 795.9,-128.78 605.25,-100 595.97,-98.6 586.06,-96.58 576.84,-94.48"/>
<polygon fill="#63b8ff" stroke="#63b8ff" points="1140.85,-146.55 1150.95,-143.36 1141.06,-139.56 1140.85,-146.55"/>
</a>
</g>
</g>
<!-- Node9 -->
<g id="Node000009" class="node">
<title>Node9</title>
<g id="a_Node000009"><a xlink:href="_help_8h.html" target="_top" xlink:title=" ">
<polygon fill="white" stroke="#666666" points="728.38,-94 614.12,-94 614.12,-74 728.38,-74 728.38,-94"/>
<text text-anchor="middle" x="671.25" y="-80.5" font-family="Helvetica,sans-Serif" font-size="10.00">Cpl/TShell/Cmd/Help.h</text>
</a>
</g>
</g>
<!-- Node3&#45;&gt;Node9 -->
<g id="edge8_Node000003_Node000009" class="edge">
<title>Node3&#45;&gt;Node9</title>
<g id="a_edge8_Node000003_Node000009"><a xlink:title=" ">
<path fill="none" stroke="#63b8ff" d="M1140.98,-140.72C1044.31,-134.88 878.29,-122.47 737.25,-100 727.97,-98.52 718.04,-96.5 708.78,-94.42"/>
<polygon fill="#63b8ff" stroke="#63b8ff" points="1140.72,-144.21 1150.91,-141.31 1141.13,-137.22 1140.72,-144.21"/>
</a>
</g>
</g>
<!-- Node10 -->
<g id="Node000010" class="node">
<title>Node10</title>
<g id="a_Node000010"><a xlink:href="_t_print_8h.html" target="_top" xlink:title=" ">
<polygon fill="white" stroke="#666666" points="866.38,-94 746.12,-94 746.12,-74 866.38,-74 866.38,-94"/>
<text text-anchor="middle" x="806.25" y="-80.5" font-family="Helvetica,sans-Serif" font-size="10.00">Cpl/TShell/Cmd/TPrint.h</text>
</a>
</g>
</g>
<!-- Node3&#45;&gt;Node10 -->
<g id="edge9_Node000003_Node000010" class="edge">
<title>Node3&#45;&gt;Node10</title>
<g id="a_edge9_Node000003_Node000010"><a xlink:title=" ">
<path fill="none" stroke="#63b8ff" d="M1141.52,-136.5C1071,-128.61 966.01,-115.72 875.25,-100 866.07,-98.41 856.26,-96.44 847,-94.46"/>
<polygon fill="#63b8ff" stroke="#63b8ff" points="1140.7,-139.93 1151.03,-137.56 1141.47,-132.97 1140.7,-139.93"/>
</a>
</g>
</g>
<!-- Node11 -->
<g id="Node000011" class="node">
<title>Node11</title>
<g id="a_Node000011"><a xlink:href="_threads_8h.html" target="_top" xlink:title=" ">
<polygon fill="white" stroke="#666666" points="1013.88,-94 884.62,-94 884.62,-74 1013.88,-74 1013.88,-94"/>
<text text-anchor="middle" x="949.25" y="-80.5" font-family="Helvetica,sans-Serif" font-size="10.00">Cpl/TShell/Cmd/Threads.h</text>
</a>
</g>
</g>
<!-- Node3&#45;&gt;Node11 -->
<g id="edge10_Node000003_Node000011" class="edge">
<title>Node3&#45;&gt;Node11</title>
<g id="a_edge10_Node000003_Node000011"><a xlink:title=" ">
<path fill="none" stroke="#63b8ff" d="M1168.05,-133.09C1116.5,-121.76 1039.95,-104.93 992.41,-94.48"/>
<polygon fill="#63b8ff" stroke="#63b8ff" points="1167.3,-136.51 1177.82,-135.23 1168.8,-129.67 1167.3,-136.51"/>
</a>
</g>
</g>
<!-- Node14 -->
<g id="Node000014" class="node">
<title>Node14</title>
<g id="a_Node000014"><a xlink:href="_tick_8h.html" target="_top" xlink:title=" ">
<polygon fill="white" stroke="#666666" points="1144.62,-94 1031.88,-94 1031.88,-74 1144.62,-74 1144.62,-94"/>
<text text-anchor="middle" x="1088.25" y="-80.5" font-family="Helvetica,sans-Serif" font-size="10.00">Cpl/TShell/Cmd/Tick.h</text>
</a>
</g>
</g>
<!-- Node3&#45;&gt;Node14 -->
<g id="edge13_Node000003_Node000014" class="edge">
<title>Node3&#45;&gt;Node14</title>
<g id="a_edge13_Node000003_Node000014"><a xlink:title=" ">
<path fill="none" stroke="#63b8ff" d="M1190.81,-130.92C1165.59,-119.63 1130.91,-104.1 1109.04,-94.31"/>
<polygon fill="#63b8ff" stroke="#63b8ff" points="1189.37,-134.11 1199.93,-135.01 1192.23,-127.73 1189.37,-134.11"/>
</a>
</g>
</g>
<!-- Node15 -->
<g id="Node000015" class="node">
<title>Node15</title>
<g id="a_Node000015"><a xlink:href="_t_shell_2_cmd_2_trace_8h.html" target="_top" xlink:title=" ">
<polygon fill="white" stroke="#666666" points="1281.62,-94 1162.88,-94 1162.88,-74 1281.62,-74 1281.62,-94"/>
<text text-anchor="middle" x="1222.25" y="-80.5" font-family="Helvetica,sans-Serif" font-size="10.00">Cpl/TShell/Cmd/Trace.h</text>
</a>
</g>
</g>
<!-- Node3&#45;&gt;Node15 -->
<g id="edge14_Node000003_Node000015" class="edge">
<title>Node3&#45;&gt;Node15</title>
<g id="a_edge14_Node000003_Node000015"><a xlink:title=" ">
<path fill="none" stroke="#63b8ff" d="M1222.25,-124.25C1222.25,-113.97 1222.25,-102.09 1222.25,-94.11"/>
<polygon fill="#63b8ff" stroke="#63b8ff" points="1218.75,-124.11 1222.25,-134.11 1225.75,-124.11 1218.75,-124.11"/>
</a>
</g>
</g>
<!-- Node16 -->
<g id="Node000016" class="node">
<title>Node16</title>
<g id="a_Node000016"><a xlink:href="_cpl_2_t_shell_2_cmd_2_user_8h.html" target="_top" xlink:title=" ">
<polygon fill="white" stroke="#666666" points="1414.75,-94 1299.75,-94 1299.75,-74 1414.75,-74 1414.75,-94"/>
<text text-anchor="middle" x="1357.25" y="-80.5" font-family="Helvetica,sans-Serif" font-size="10.00">Cpl/TShell/Cmd/User.h</text>
</a>
</g>
</g>
<!-- Node3&#45;&gt;Node16 -->
<g id="edge15_Node000003_Node000016" class="edge">
<title>Node3&#45;&gt;Node16</title>
<g id="a_edge15_Node000003_Node000016"><a xlink:title=" ">
<path fill="none" stroke="#63b8ff" d="M1253.58,-131.07C1279.02,-119.77 1314.17,-104.15 1336.3,-94.31"/>
<polygon fill="#63b8ff" stroke="#63b8ff" points="1252.44,-127.75 1244.73,-135.01 1255.29,-134.15 1252.44,-127.75"/>
</a>
</g>
</g>
<!-- Node17 -->
<g id="Node000017" class="node">
<title>Node17</title>
<g id="a_Node000017"><a xlink:href="_wait_8h.html" target="_top" xlink:title=" ">
<polygon fill="white" stroke="#666666" points="1547.75,-94 1432.75,-94 1432.75,-74 1547.75,-74 1547.75,-94"/>
<text text-anchor="middle" x="1490.25" y="-80.5" font-family="Helvetica,sans-Serif" font-size="10.00">Cpl/TShell/Cmd/Wait.h</text>
</a>
</g>
</g>
<!-- Node3&#45;&gt;Node17 -->
<g id="edge16_Node000003_Node000017" class="edge">
<title>Node3&#45;&gt;Node17</title>
<g id="a_edge16_Node000003_Node000017"><a xlink:title=" ">
<path fill="none" stroke="#63b8ff" d="M1275.46,-133.09C1326.07,-121.76 1401.21,-104.93 1447.88,-94.48"/>
<polygon fill="#63b8ff" stroke="#63b8ff" points="1274.89,-129.63 1265.9,-135.23 1276.42,-136.46 1274.89,-129.63"/>
</a>
</g>
</g>
<!-- Node18 -->
<g id="Node000018" class="node">
<title>Node18</title>
<g id="a_Node000018"><a xlink:href="_state_8h.html" target="_top" xlink:title=" ">
<polygon fill="white" stroke="#666666" points="1672.62,-94 1565.88,-94 1565.88,-74 1672.62,-74 1672.62,-94"/>
<text text-anchor="middle" x="1619.25" y="-80.5" font-family="Helvetica,sans-Serif" font-size="10.00">Storm/TShell/State.h</text>
</a>
</g>
</g>
<!-- Node3&#45;&gt;Node18 -->
<g id="edge17_Node000003_Node000018" class="edge">
<title>Node3&#45;&gt;Node18</title>
<g id="a_edge17_Node000003_Node000018"><a xlink:title=" ">
<path fill="none" stroke="#63b8ff" d="M1303.01,-136.41C1370.88,-128.64 1470.29,-115.98 1556.25,-100 1564.76,-98.42 1573.85,-96.43 1582.4,-94.42"/>
<polygon fill="#63b8ff" stroke="#63b8ff" points="1303.02,-132.88 1293.48,-137.49 1303.81,-139.84 1303.02,-132.88"/>
</a>
</g>
</g>
<!-- Node19 -->
<g id="Node000019" class="node">
<title>Node19</title>
<g id="a_Node000019"><a xlink:href="_storm_2_t_shell_2_user_8h.html" target="_top" xlink:title=" ">
<polygon fill="white" stroke="#666666" points="1794.12,-94 1690.38,-94 1690.38,-74 1794.12,-74 1794.12,-94"/>
<text text-anchor="middle" x="1742.25" y="-80.5" font-family="Helvetica,sans-Serif" font-size="10.00">Storm/TShell/User.h</text>
</a>
</g>
</g>
<!-- Node3&#45;&gt;Node19 -->
<g id="edge18_Node000003_Node000019" class="edge">
<title>Node3&#45;&gt;Node19</title>
<g id="a_edge18_Node000003_Node000019"><a xlink:title=" ">
<path fill="none" stroke="#63b8ff" d="M1303.34,-140.58C1395.42,-134.74 1549.93,-122.46 1681.25,-100 1689.85,-98.53 1699.03,-96.51 1707.59,-94.44"/>
<polygon fill="#63b8ff" stroke="#63b8ff" points="1303.14,-137.08 1293.38,-141.2 1303.58,-144.07 1303.14,-137.08"/>
</a>
</g>
</g>
<!-- Node20 -->
<g id="Node000020" class="node">
<title>Node20</title>
<g id="a_Node000020"><a xlink:href="_t_shell_2_white_box_8h.html" target="_top" xlink:title=" ">
<polygon fill="white" stroke="#666666" points="1938.38,-94 1812.12,-94 1812.12,-74 1938.38,-74 1938.38,-94"/>
<text text-anchor="middle" x="1875.25" y="-80.5" font-family="Helvetica,sans-Serif" font-size="10.00">Storm/TShell/WhiteBox.h</text>
</a>
</g>
</g>
<!-- Node3&#45;&gt;Node20 -->
<g id="edge19_Node000003_Node000020" class="edge">
<title>Node3&#45;&gt;Node20</title>
<g id="a_edge19_Node000003_Node000020"><a xlink:title=" ">
<path fill="none" stroke="#63b8ff" d="M1303.12,-142.01C1415.7,-137.1 1625.8,-125.25 1803.25,-100 1813.36,-98.56 1824.19,-96.56 1834.29,-94.48"/>
<polygon fill="#63b8ff" stroke="#63b8ff" points="1303.23,-138.5 1293.39,-142.43 1303.53,-145.5 1303.23,-138.5"/>
</a>
</g>
</g>
<!-- Node21 -->
<g id="Node000021" class="node">
<title>Node21</title>
<g id="a_Node000021"><a xlink:href="filter_8h.html" target="_top" xlink:title=" ">
<polygon fill="white" stroke="#666666" points="2058,-94 1956.5,-94 1956.5,-74 2058,-74 2058,-94"/>
<text text-anchor="middle" x="2007.25" y="-80.5" font-family="Helvetica,sans-Serif" font-size="10.00">Storm/TShell/filter.h</text>
</a>
</g>
</g>
<!-- Node3&#45;&gt;Node21 -->
<g id="edge20_Node000003_Node000021" class="edge">
<title>Node3&#45;&gt;Node21</title>
<g id="a_edge20_Node000003_Node000021"><a xlink:title=" ">
<path fill="none" stroke="#63b8ff" d="M1303.59,-144.79C1438.25,-143.35 1715.65,-135.83 1947.25,-100 1956.06,-98.64 1965.46,-96.58 1974.15,-94.43"/>
<polygon fill="#63b8ff" stroke="#63b8ff" points="1303.66,-141.29 1293.7,-144.88 1303.73,-148.28 1303.66,-141.29"/>
</a>
</g>
</g>
<!-- Node22 -->
<g id="Node000022" class="node">
<title>Node22</title>
<g id="a_Node000022"><a xlink:href="_storm_2_thermostat_2_sim_house_2_cmd_8h.html" target="_top" xlink:title=" ">
<polygon fill="white" stroke="#666666" points="2218.25,-100 2076.25,-100 2076.25,-68 2218.25,-68 2218.25,-100"/>
<text text-anchor="start" x="2084.25" y="-86.5" font-family="Helvetica,sans-Serif" font-size="10.00">Storm/Thermostat/SimHouse</text>
<text text-anchor="middle" x="2147.25" y="-74.5" font-family="Helvetica,sans-Serif" font-size="10.00">/Cmd.h</text>
</a>
</g>
</g>
<!-- Node3&#45;&gt;Node22 -->
<g id="edge21_Node000003_Node000022" class="edge">
<title>Node3&#45;&gt;Node22</title>
<g id="a_edge21_Node000003_Node000022"><a xlink:title=" ">
<path fill="none" stroke="#63b8ff" d="M1303.5,-144.24C1454.47,-142.03 1788.26,-133.44 2067.25,-100 2070.06,-99.66 2072.91,-99.29 2075.79,-98.88"/>
<polygon fill="#63b8ff" stroke="#63b8ff" points="1303.54,-140.74 1293.59,-144.38 1303.64,-147.74 1303.54,-140.74"/>
</a>
</g>
</g>
<!-- Node24 -->
<g id="Node000024" class="node">
<title>Node24</title>
<g id="a_Node000024"><a xlink:href="_storm_2_thermostat_2__file__logger_2_log_8h.html" target="_top" xlink:title=" ">
<polygon fill="white" stroke="#666666" points="2350.38,-100 2236.12,-100 2236.12,-68 2350.38,-68 2350.38,-100"/>
<text text-anchor="start" x="2244.12" y="-86.5" font-family="Helvetica,sans-Serif" font-size="10.00">Storm/Thermostat/_file</text>
<text text-anchor="middle" x="2293.25" y="-74.5" font-family="Helvetica,sans-Serif" font-size="10.00">_logger/Log.h</text>
</a>
</g>
</g>
<!-- Node3&#45;&gt;Node24 -->
<g id="edge23_Node000003_Node000024" class="edge">
<title>Node3&#45;&gt;Node24</title>
<g id="a_edge23_Node000003_Node000024"><a xlink:title=" ">
<path fill="none" stroke="#63b8ff" d="M1303.41,-143.24C1509.53,-138.46 2049.41,-123.99 2227.25,-100 2230.04,-99.62 2232.9,-99.18 2235.77,-98.7"/>
<polygon fill="#63b8ff" stroke="#63b8ff" points="1303.52,-139.73 1293.6,-143.46 1303.68,-146.73 1303.52,-139.73"/>
</a>
</g>
</g>
<!-- Node12 -->
<g id="Node000012" class="node">
<title>Node12</title>
<g id="a_Node000012"><a xlink:href="_free_r_t_o_s_2_threads_8h.html" target="_top" xlink:title=" ">
<polygon fill="white" stroke="#666666" points="944.38,-32 812.12,-32 812.12,0 944.38,0 944.38,-32"/>
<text text-anchor="start" x="820.12" y="-18.5" font-family="Helvetica,sans-Serif" font-size="10.00">Cpl/TShell/Cmd/FreeRTOS</text>
<text text-anchor="middle" x="878.25" y="-6.5" font-family="Helvetica,sans-Serif" font-size="10.00">/Threads.h</text>
</a>
</g>
</g>
<!-- Node11&#45;&gt;Node12 -->
<g id="edge11_Node000011_Node000012" class="edge">
<title>Node11&#45;&gt;Node12</title>
<g id="a_edge11_Node000011_Node000012"><a xlink:title=" ">
<path fill="none" stroke="#63b8ff" d="M930.87,-65.91C919.69,-55.52 905.52,-42.35 894.71,-32.3"/>
<polygon fill="#63b8ff" stroke="#63b8ff" points="928.26,-68.27 937.97,-72.51 933.03,-63.14 928.26,-68.27"/>
</a>
</g>
</g>
<!-- Node13 -->
<g id="Node000013" class="node">
<title>Node13</title>
<g id="a_Node000013"><a xlink:href="_win32_2_threads_8h.html" target="_top" xlink:title=" ">
<polygon fill="white" stroke="#666666" points="1076.38,-32 962.12,-32 962.12,0 1076.38,0 1076.38,-32"/>
<text text-anchor="start" x="970.12" y="-18.5" font-family="Helvetica,sans-Serif" font-size="10.00">Cpl/TShell/Cmd/Win32</text>
<text text-anchor="middle" x="1019.25" y="-6.5" font-family="Helvetica,sans-Serif" font-size="10.00">/Threads.h</text>
</a>
</g>
</g>
<!-- Node11&#45;&gt;Node13 -->
<g id="edge12_Node000011_Node000013" class="edge">
<title>Node11&#45;&gt;Node13</title>
<g id="a_edge12_Node000011_Node000013"><a xlink:title=" ">
<path fill="none" stroke="#63b8ff" d="M967.37,-65.91C978.4,-55.52 992.36,-42.35 1003.02,-32.3"/>
<polygon fill="#63b8ff" stroke="#63b8ff" points="965.26,-63.1 960.38,-72.51 970.06,-68.19 965.26,-63.1"/>
</a>
</g>
</g>
<!-- Node23 -->
<g id="Node000023" class="node">
<title>Node23</title>
<g id="a_Node000023"><a xlink:href="statics___8h.html" target="_top" xlink:title="This file defines/creates persistent records and record server for the Thermostat simulation.">
<polygon fill="white" stroke="#666666" points="2279.25,-32 2161.25,-32 2161.25,0 2279.25,0 2279.25,-32"/>
<text text-anchor="start" x="2169.25" y="-18.5" font-family="Helvetica,sans-Serif" font-size="10.00">Storm/Thermostat/Main</text>
<text text-anchor="middle" x="2220.25" y="-6.5" font-family="Helvetica,sans-Serif" font-size="10.00">/_simulation/statics_.h</text>
</a>
</g>
</g>
<!-- Node22&#45;&gt;Node23 -->
<g id="edge22_Node000022_Node000023" class="edge">
<title>Node22&#45;&gt;Node23</title>
<g id="a_edge22_Node000022_Node000023"><a xlink:title=" ">
<path fill="none" stroke="#63b8ff" d="M2172.64,-60.05C2182.73,-50.92 2194.07,-40.67 2203.16,-32.45"/>
<polygon fill="#63b8ff" stroke="#63b8ff" points="2170.37,-57.37 2165.3,-66.68 2175.07,-62.57 2170.37,-57.37"/>
</a>
</g>
</g>
<!-- Node24&#45;&gt;Node23 -->
<g id="edge24_Node000024_Node000023" class="edge">
<title>Node24&#45;&gt;Node23</title>
<g id="a_edge24_Node000024_Node000023"><a xlink:title=" ">
<path fill="none" stroke="#63b8ff" d="M2267.86,-60.05C2257.77,-50.92 2246.43,-40.67 2237.34,-32.45"/>
<polygon fill="#63b8ff" stroke="#63b8ff" points="2265.43,-62.57 2275.2,-66.68 2270.13,-57.37 2265.43,-62.57"/>
</a>
</g>
</g>
<!-- Node26 -->
<g id="Node000026" class="node">
<title>Node26</title>
<g id="a_Node000026"><a xlink:href="_maker_8h.html" target="_top" xlink:title=" ">
<polygon fill="white" stroke="#666666" points="2466.5,-94 2368,-94 2368,-74 2466.5,-74 2466.5,-94"/>
<text text-anchor="middle" x="2417.25" y="-80.5" font-family="Helvetica,sans-Serif" font-size="10.00">Cpl/TShell/Maker.h</text>
</a>
</g>
</g>
<!-- Node25&#45;&gt;Node26 -->
<g id="edge26_Node000025_Node000026" class="edge">
<title>Node25&#45;&gt;Node26</title>
<g id="a_edge26_Node000025_Node000026"><a xlink:title=" ">
<path fill="none" stroke="#63b8ff" d="M2417.25,-124.25C2417.25,-113.97 2417.25,-102.09 2417.25,-94.11"/>
<polygon fill="#63b8ff" stroke="#63b8ff" points="2413.75,-124.11 2417.25,-134.11 2420.75,-124.11 2413.75,-124.11"/>
</a>
</g>
</g>
<!-- Node27 -->
<g id="Node000027" class="node">
<title>Node27</title>
<g id="a_Node000027"><a xlink:href="_polled_processor_8h.html" target="_top" xlink:title=" ">
<polygon fill="white" stroke="#666666" points="2627.62,-94 2484.88,-94 2484.88,-74 2627.62,-74 2627.62,-94"/>
<text text-anchor="middle" x="2556.25" y="-80.5" font-family="Helvetica,sans-Serif" font-size="10.00">Cpl/TShell/PolledProcessor.h</text>
</a>
</g>
</g>
<!-- Node25&#45;&gt;Node27 -->
<g id="edge27_Node000025_Node000027" class="edge">
<title>Node25&#45;&gt;Node27</title>
<g id="a_edge27_Node000025_Node000027"><a xlink:title=" ">
<path fill="none" stroke="#63b8ff" d="M2449.51,-131.07C2475.7,-119.77 2511.89,-104.15 2534.68,-94.31"/>
<polygon fill="#63b8ff" stroke="#63b8ff" points="2448.15,-127.85 2440.36,-135.03 2450.93,-134.28 2448.15,-127.85"/>
</a>
</g>
</g>
<!-- Node28 -->
<g id="Node000028" class="node">
<title>Node28</title>
<g id="a_Node000028"><a xlink:href="_polled_maker_8h.html" target="_top" xlink:title=" ">
<polygon fill="white" stroke="#666666" points="2619,-26 2493.5,-26 2493.5,-6 2619,-6 2619,-26"/>
<text text-anchor="middle" x="2556.25" y="-12.5" font-family="Helvetica,sans-Serif" font-size="10.00">Cpl/TShell/PolledMaker.h</text>
</a>
</g>
</g>
<!-- Node27&#45;&gt;Node28 -->
<g id="edge28_Node000027_Node000028" class="edge">
<title>Node27&#45;&gt;Node28</title>
<g id="a_edge28_Node000027_Node000028"><a xlink:title=" ">
<path fill="none" stroke="#63b8ff" d="M2556.25,-62.28C2556.25,-50.27 2556.25,-35.74 2556.25,-26.44"/>
<polygon fill="#63b8ff" stroke="#63b8ff" points="2552.75,-62.03 2556.25,-72.03 2559.75,-62.03 2552.75,-62.03"/>
</a>
</g>
</g>
<!-- Node31 -->
<g id="Node000031" class="node">
<title>Node31</title>
<g id="a_Node000031"><a xlink:href="_restartable_8h.html" target="_top" xlink:title=" ">
<polygon fill="white" stroke="#666666" points="2665.75,-156 2544.75,-156 2544.75,-136 2665.75,-136 2665.75,-156"/>
<text text-anchor="middle" x="2605.25" y="-142.5" font-family="Helvetica,sans-Serif" font-size="10.00">Cpl/TShell/Restartable.h</text>
</a>
</g>
</g>
<!-- Node30&#45;&gt;Node31 -->
<g id="edge31_Node000030_Node000031" class="edge">
<title>Node30&#45;&gt;Node31</title>
<g id="a_edge31_Node000030_Node000031"><a xlink:title=" ">
<path fill="none" stroke="#63b8ff" d="M2605.25,-180.13C2605.25,-171.9 2605.25,-162.85 2605.25,-156.3"/>
<polygon fill="#63b8ff" stroke="#63b8ff" points="2601.75,-180.08 2605.25,-190.08 2608.75,-180.08 2601.75,-180.08"/>
</a>
</g>
</g>
</g>
</svg>
