<?xml version="1.0" encoding="UTF-8" standalone="no"?>
<!DOCTYPE svg PUBLIC "-//W3C//DTD SVG 1.1//EN"
 "http://www.w3.org/Graphics/SVG/1.1/DTD/svg11.dtd">
<!-- Generated by graphviz version 10.0.1 (20240210.2158)
 -->
<!-- Title: Cpl/System/RP2040/Thread.h Pages: 1 -->
<svg width="1000pt" height="420pt"
 viewBox="0.00 0.00 1000.38 420.00" xmlns="http://www.w3.org/2000/svg" xmlns:xlink="http://www.w3.org/1999/xlink">
<g id="graph0" class="graph" transform="scale(1 1) rotate(0) translate(4 416)">
<title>Cpl/System/RP2040/Thread.h</title>
<!-- Node1 -->
<g id="Node000001" class="node">
<title>Node1</title>
<g id="a_Node000001"><a xlink:title=" ">
<polygon fill="#999999" stroke="#666666" points="475.5,-412 330.5,-412 330.5,-392 475.5,-392 475.5,-412"/>
<text text-anchor="middle" x="403" y="-398.5" font-family="Helvetica,sans-Serif" font-size="10.00">Cpl/System/RP2040/Thread.h</text>
</a>
</g>
</g>
<!-- Node2 -->
<g id="Node000002" class="node">
<title>Node2</title>
<g id="a_Node000002"><a xlink:title=" ">
<polygon fill="#e0e0e0" stroke="#999999" points="114.75,-20 31.25,-20 31.25,0 114.75,0 114.75,-20"/>
<text text-anchor="middle" x="73" y="-6.5" font-family="Helvetica,sans-Serif" font-size="10.00">colony_config.h</text>
</a>
</g>
</g>
<!-- Node1&#45;&gt;Node2 -->
<g id="edge1_Node000001_Node000002" class="edge">
<title>Node1&#45;&gt;Node2</title>
<g id="a_edge1_Node000001_Node000002"><a xlink:title=" ">
<path fill="none" stroke="#63b8ff" d="M330.02,-396.03C213.89,-386.1 0,-358.63 0,-291 0,-291 0,-291 0,-121 0,-82.9 30.79,-47.89 52.37,-28.03"/>
<polygon fill="#63b8ff" stroke="#63b8ff" points="54.62,-30.72 59.81,-21.48 49.99,-25.46 54.62,-30.72"/>
</a>
</g>
</g>
<!-- Node3 -->
<g id="Node000003" class="node">
<title>Node3</title>
<g id="a_Node000003"><a xlink:href="_thread_8h.html" target="_top" xlink:title=" ">
<polygon fill="white" stroke="#666666" points="800.75,-356 693.25,-356 693.25,-336 800.75,-336 800.75,-356"/>
<text text-anchor="middle" x="747" y="-342.5" font-family="Helvetica,sans-Serif" font-size="10.00">Cpl/System/Thread.h</text>
</a>
</g>
</g>
<!-- Node1&#45;&gt;Node3 -->
<g id="edge2_Node000001_Node000003" class="edge">
<title>Node1&#45;&gt;Node3</title>
<g id="a_edge2_Node000001_Node000003"><a xlink:title=" ">
<path fill="none" stroke="#63b8ff" d="M463.31,-391.53C524.45,-381.94 618.74,-367.13 681.63,-357.26"/>
<polygon fill="#63b8ff" stroke="#63b8ff" points="682.16,-360.72 691.49,-355.71 681.07,-353.81 682.16,-360.72"/>
</a>
</g>
</g>
<!-- Node10 -->
<g id="Node000010" class="node">
<title>Node10</title>
<g id="a_Node000010"><a xlink:href="_semaphore_8h.html" target="_top" xlink:title=" ">
<polygon fill="white" stroke="#666666" points="558.88,-356 431.12,-356 431.12,-336 558.88,-336 558.88,-356"/>
<text text-anchor="middle" x="495" y="-342.5" font-family="Helvetica,sans-Serif" font-size="10.00">Cpl/System/Semaphore.h</text>
</a>
</g>
</g>
<!-- Node1&#45;&gt;Node10 -->
<g id="edge9_Node000001_Node000010" class="edge">
<title>Node1&#45;&gt;Node10</title>
<g id="a_edge9_Node000001_Node000010"><a xlink:title=" ">
<path fill="none" stroke="#63b8ff" d="M419.03,-391.59C432.79,-383.51 452.9,-371.71 468.98,-362.27"/>
<polygon fill="#63b8ff" stroke="#63b8ff" points="470.69,-365.33 477.54,-357.25 467.15,-359.29 470.69,-365.33"/>
</a>
</g>
</g>
<!-- Node11 -->
<g id="Node000011" class="node">
<title>Node11</title>
<g id="a_Node000011"><a xlink:href="_tls_8h.html" target="_top" xlink:title=" ">
<polygon fill="white" stroke="#666666" points="457.5,-132 366.5,-132 366.5,-112 457.5,-112 457.5,-132"/>
<text text-anchor="middle" x="412" y="-118.5" font-family="Helvetica,sans-Serif" font-size="10.00">Cpl/System/Tls.h</text>
</a>
</g>
</g>
<!-- Node1&#45;&gt;Node11 -->
<g id="edge12_Node000001_Node000011" class="edge">
<title>Node1&#45;&gt;Node11</title>
<g id="a_edge12_Node000001_Node000011"><a xlink:title=" ">
<path fill="none" stroke="#63b8ff" d="M403,-391.58C403,-372.57 403,-328.24 403,-291 403,-291 403,-291 403,-233 403,-201.77 406.65,-165.71 409.3,-143.63"/>
<polygon fill="#63b8ff" stroke="#63b8ff" points="412.75,-144.26 410.52,-133.9 405.8,-143.38 412.75,-144.26"/>
</a>
</g>
</g>
<!-- Node12 -->
<g id="Node000012" class="node">
<title>Node12</title>
<g id="a_Node000012"><a xlink:href="_f_string_8h.html" target="_top" xlink:title=" ">
<polygon fill="white" stroke="#666666" points="341.38,-356 246.62,-356 246.62,-336 341.38,-336 341.38,-356"/>
<text text-anchor="middle" x="294" y="-342.5" font-family="Helvetica,sans-Serif" font-size="10.00">Cpl/Text/FString.h</text>
</a>
</g>
</g>
<!-- Node1&#45;&gt;Node12 -->
<g id="edge15_Node000001_Node000012" class="edge">
<title>Node1&#45;&gt;Node12</title>
<g id="a_edge15_Node000001_Node000012"><a xlink:title=" ">
<path fill="none" stroke="#63b8ff" d="M384.01,-391.59C367.24,-383.28 342.51,-371.03 323.21,-361.47"/>
<polygon fill="#63b8ff" stroke="#63b8ff" points="325.01,-358.45 314.49,-357.15 321.9,-364.73 325.01,-358.45"/>
</a>
</g>
</g>
<!-- Node4 -->
<g id="Node000004" class="node">
<title>Node4</title>
<g id="a_Node000004"><a xlink:title=" ">
<polygon fill="#e0e0e0" stroke="#999999" points="415.38,-76 338.62,-76 338.62,-56 415.38,-56 415.38,-76"/>
<text text-anchor="middle" x="377" y="-62.5" font-family="Helvetica,sans-Serif" font-size="10.00">colony_map.h</text>
</a>
</g>
</g>
<!-- Node3&#45;&gt;Node4 -->
<g id="edge3_Node000003_Node000004" class="edge">
<title>Node3&#45;&gt;Node4</title>
<g id="a_edge3_Node000003_Node000004"><a xlink:title=" ">
<path fill="none" stroke="#63b8ff" d="M774.75,-335.63C792.1,-328.44 813.62,-316.84 827,-300 845.72,-276.43 846,-265.1 846,-235 846,-235 846,-235 846,-177 846,-91.71 548.3,-72.5 427.27,-68.22"/>
<polygon fill="#63b8ff" stroke="#63b8ff" points="427.4,-64.72 417.29,-67.89 427.17,-71.71 427.4,-64.72"/>
</a>
</g>
</g>
<!-- Node5 -->
<g id="Node000005" class="node">
<title>Node5</title>
<g id="a_Node000005"><a xlink:href="_runnable_8h.html" target="_top" xlink:title=" ">
<polygon fill="white" stroke="#666666" points="992.38,-300 873.62,-300 873.62,-280 992.38,-280 992.38,-300"/>
<text text-anchor="middle" x="933" y="-286.5" font-family="Helvetica,sans-Serif" font-size="10.00">Cpl/System/Runnable.h</text>
</a>
</g>
</g>
<!-- Node3&#45;&gt;Node5 -->
<g id="edge4_Node000003_Node000005" class="edge">
<title>Node3&#45;&gt;Node5</title>
<g id="a_edge4_Node000003_Node000005"><a xlink:title=" ">
<path fill="none" stroke="#63b8ff" d="M779.4,-335.59C809.88,-326.74 855.76,-313.43 889.43,-303.65"/>
<polygon fill="#63b8ff" stroke="#63b8ff" points="890.27,-307.05 898.89,-300.9 888.32,-300.33 890.27,-307.05"/>
</a>
</g>
</g>
<!-- Node6 -->
<g id="Node000006" class="node">
<title>Node6</title>
<g id="a_Node000006"><a xlink:href="_signable_8h.html" target="_top" xlink:title=" ">
<polygon fill="white" stroke="#666666" points="629.88,-300 514.12,-300 514.12,-280 629.88,-280 629.88,-300"/>
<text text-anchor="middle" x="572" y="-286.5" font-family="Helvetica,sans-Serif" font-size="10.00">Cpl/System/Signable.h</text>
</a>
</g>
</g>
<!-- Node3&#45;&gt;Node6 -->
<g id="edge5_Node000003_Node000006" class="edge">
<title>Node3&#45;&gt;Node6</title>
<g id="a_edge5_Node000003_Node000006"><a xlink:title=" ">
<path fill="none" stroke="#63b8ff" d="M716.52,-335.59C687.96,-326.78 645.05,-313.54 613.4,-303.78"/>
<polygon fill="#63b8ff" stroke="#63b8ff" points="614.75,-300.53 604.17,-300.93 612.69,-307.22 614.75,-300.53"/>
</a>
</g>
</g>
<!-- Node8 -->
<g id="Node000008" class="node">
<title>Node8</title>
<g id="a_Node000008"><a xlink:href="_traverser_8h.html" target="_top" xlink:title=" ">
<polygon fill="white" stroke="#666666" points="752.25,-300 647.75,-300 647.75,-280 752.25,-280 752.25,-300"/>
<text text-anchor="middle" x="700" y="-286.5" font-family="Helvetica,sans-Serif" font-size="10.00">Cpl/Type/Traverser.h</text>
</a>
</g>
</g>
<!-- Node3&#45;&gt;Node8 -->
<g id="edge7_Node000003_Node000008" class="edge">
<title>Node3&#45;&gt;Node8</title>
<g id="a_edge7_Node000003_Node000008"><a xlink:title=" ">
<path fill="none" stroke="#63b8ff" d="M738.81,-335.59C732.41,-328.24 723.32,-317.8 715.55,-308.87"/>
<polygon fill="#63b8ff" stroke="#63b8ff" points="718.29,-306.69 709.09,-301.44 713.01,-311.28 718.29,-306.69"/>
</a>
</g>
</g>
<!-- Node9 -->
<g id="Node000009" class="node">
<title>Node9</title>
<g id="a_Node000009"><a xlink:title=" ">
<polygon fill="#e0e0e0" stroke="#999999" points="817.75,-300 770.25,-300 770.25,-280 817.75,-280 817.75,-300"/>
<text text-anchor="middle" x="794" y="-286.5" font-family="Helvetica,sans-Serif" font-size="10.00">stdlib.h</text>
</a>
</g>
</g>
<!-- Node3&#45;&gt;Node9 -->
<g id="edge8_Node000003_Node000009" class="edge">
<title>Node3&#45;&gt;Node9</title>
<g id="a_edge8_Node000003_Node000009"><a xlink:title=" ">
<path fill="none" stroke="#63b8ff" d="M755.19,-335.59C761.59,-328.24 770.68,-317.8 778.45,-308.87"/>
<polygon fill="#63b8ff" stroke="#63b8ff" points="780.99,-311.28 784.91,-301.44 775.71,-306.69 780.99,-311.28"/>
</a>
</g>
</g>
<!-- Node7 -->
<g id="Node000007" class="node">
<title>Node7</title>
<g id="a_Node000007"><a xlink:href="_item_8h.html" target="_top" xlink:title=" ">
<polygon fill="white" stroke="#666666" points="624.25,-244 519.75,-244 519.75,-224 624.25,-224 624.25,-244"/>
<text text-anchor="middle" x="572" y="-230.5" font-family="Helvetica,sans-Serif" font-size="10.00">Cpl/Container/Item.h</text>
</a>
</g>
</g>
<!-- Node6&#45;&gt;Node7 -->
<g id="edge6_Node000006_Node000007" class="edge">
<title>Node6&#45;&gt;Node7</title>
<g id="a_edge6_Node000006_Node000007"><a xlink:title=" ">
<path fill="none" stroke="#63b8ff" d="M572,-279.59C572,-273.01 572,-263.96 572,-255.73"/>
<polygon fill="#63b8ff" stroke="#63b8ff" points="575.5,-255.81 572,-245.81 568.5,-255.81 575.5,-255.81"/>
</a>
</g>
</g>
<!-- Node10&#45;&gt;Node4 -->
<g id="edge10_Node000010_Node000004" class="edge">
<title>Node10&#45;&gt;Node4</title>
<g id="a_edge10_Node000010_Node000004"><a xlink:title=" ">
<path fill="none" stroke="#63b8ff" d="M493.71,-335.6C491.22,-316.63 486,-272.36 486,-235 486,-235 486,-235 486,-177 486,-146.9 486.29,-135.1 467,-112 455.15,-97.81 437.72,-87.66 421.35,-80.64"/>
<polygon fill="#63b8ff" stroke="#63b8ff" points="422.8,-77.45 412.21,-77.02 420.22,-83.96 422.8,-77.45"/>
</a>
</g>
</g>
<!-- Node10&#45;&gt;Node6 -->
<g id="edge11_Node000010_Node000006" class="edge">
<title>Node10&#45;&gt;Node6</title>
<g id="a_edge11_Node000010_Node000006"><a xlink:title=" ">
<path fill="none" stroke="#63b8ff" d="M508.41,-335.59C519.61,-327.74 535.81,-316.38 549.06,-307.09"/>
<polygon fill="#63b8ff" stroke="#63b8ff" points="551.07,-309.96 557.24,-301.35 547.05,-304.22 551.07,-309.96"/>
</a>
</g>
</g>
<!-- Node11&#45;&gt;Node2 -->
<g id="edge13_Node000011_Node000002" class="edge">
<title>Node11&#45;&gt;Node2</title>
<g id="a_edge13_Node000011_Node000002"><a xlink:title=" ">
<path fill="none" stroke="#63b8ff" d="M417.89,-111.78C425.91,-97.92 437.8,-71.68 424,-56 419.12,-50.45 223.26,-27.82 126.28,-16.92"/>
<polygon fill="#63b8ff" stroke="#63b8ff" points="126.8,-13.46 116.47,-15.82 126.02,-20.41 126.8,-13.46"/>
</a>
</g>
</g>
<!-- Node11&#45;&gt;Node4 -->
<g id="edge14_Node000011_Node000004" class="edge">
<title>Node11&#45;&gt;Node4</title>
<g id="a_edge14_Node000011_Node000004"><a xlink:title=" ">
<path fill="none" stroke="#63b8ff" d="M405.9,-111.59C401.29,-104.47 394.79,-94.45 389.13,-85.72"/>
<polygon fill="#63b8ff" stroke="#63b8ff" points="392.23,-84.06 383.85,-77.57 386.35,-87.86 392.23,-84.06"/>
</a>
</g>
</g>
<!-- Node13 -->
<g id="Node000013" class="node">
<title>Node13</title>
<g id="a_Node000013"><a xlink:href="_f_string___8h.html" target="_top" xlink:title=" ">
<polygon fill="white" stroke="#666666" points="266,-300 166,-300 166,-280 266,-280 266,-300"/>
<text text-anchor="middle" x="216" y="-286.5" font-family="Helvetica,sans-Serif" font-size="10.00">Cpl/Text/FString_.h</text>
</a>
</g>
</g>
<!-- Node12&#45;&gt;Node13 -->
<g id="edge16_Node000012_Node000013" class="edge">
<title>Node12&#45;&gt;Node13</title>
<g id="a_edge16_Node000012_Node000013"><a xlink:title=" ">
<path fill="none" stroke="#63b8ff" d="M280.41,-335.59C268.96,-327.67 252.34,-316.16 238.84,-306.82"/>
<polygon fill="#63b8ff" stroke="#63b8ff" points="241.15,-304.16 230.94,-301.34 237.17,-309.91 241.15,-304.16"/>
</a>
</g>
</g>
<!-- Node15 -->
<g id="Node000015" class="node">
<title>Node15</title>
<g id="a_Node000015"><a xlink:href="_text_2_string_8h.html" target="_top" xlink:title=" ">
<polygon fill="white" stroke="#666666" points="304.38,-188 215.62,-188 215.62,-168 304.38,-168 304.38,-188"/>
<text text-anchor="middle" x="260" y="-174.5" font-family="Helvetica,sans-Serif" font-size="10.00">Cpl/Text/String.h</text>
</a>
</g>
</g>
<!-- Node12&#45;&gt;Node15 -->
<g id="edge30_Node000012_Node000015" class="edge">
<title>Node12&#45;&gt;Node15</title>
<g id="a_edge30_Node000012_Node000015"><a xlink:title=" ">
<path fill="none" stroke="#63b8ff" d="M292.92,-335.81C290.44,-315.48 283.77,-265.23 274,-224 272.04,-215.75 269.38,-206.79 266.89,-199.07"/>
<polygon fill="#63b8ff" stroke="#63b8ff" points="270.23,-198.02 263.75,-189.64 263.59,-200.23 270.23,-198.02"/>
</a>
</g>
</g>
<!-- Node13&#45;&gt;Node2 -->
<g id="edge17_Node000013_Node000002" class="edge">
<title>Node13&#45;&gt;Node2</title>
<g id="a_edge17_Node000013_Node000002"><a xlink:title=" ">
<path fill="none" stroke="#63b8ff" d="M165.94,-280.24C113.3,-267.82 38,-239.49 38,-179 38,-179 38,-179 38,-121 38,-88.04 52.44,-52.04 62.77,-30.5"/>
<polygon fill="#63b8ff" stroke="#63b8ff" points="65.81,-32.25 67.16,-21.74 59.55,-29.12 65.81,-32.25"/>
</a>
</g>
</g>
<!-- Node14 -->
<g id="Node000014" class="node">
<title>Node14</title>
<g id="a_Node000014"><a xlink:href="_string___8h.html" target="_top" xlink:title=" ">
<polygon fill="white" stroke="#666666" points="265,-244 171,-244 171,-224 265,-224 265,-244"/>
<text text-anchor="middle" x="218" y="-230.5" font-family="Helvetica,sans-Serif" font-size="10.00">Cpl/Text/String_.h</text>
</a>
</g>
</g>
<!-- Node13&#45;&gt;Node14 -->
<g id="edge18_Node000013_Node000014" class="edge">
<title>Node13&#45;&gt;Node14</title>
<g id="a_edge18_Node000013_Node000014"><a xlink:title=" ">
<path fill="none" stroke="#63b8ff" d="M216.35,-279.59C216.59,-273.01 216.93,-263.96 217.23,-255.73"/>
<polygon fill="#63b8ff" stroke="#63b8ff" points="220.73,-255.93 217.6,-245.81 213.73,-255.67 220.73,-255.93"/>
</a>
</g>
</g>
<!-- Node14&#45;&gt;Node15 -->
<g id="edge19_Node000014_Node000015" class="edge">
<title>Node14&#45;&gt;Node15</title>
<g id="a_edge19_Node000014_Node000015"><a xlink:title=" ">
<path fill="none" stroke="#63b8ff" d="M225.32,-223.59C230.98,-216.32 238.99,-206.02 245.89,-197.15"/>
<polygon fill="#63b8ff" stroke="#63b8ff" points="248.46,-199.54 251.84,-189.49 242.94,-195.24 248.46,-199.54"/>
</a>
</g>
</g>
<!-- Node15&#45;&gt;Node4 -->
<g id="edge20_Node000015_Node000004" class="edge">
<title>Node15&#45;&gt;Node4</title>
<g id="a_edge20_Node000015_Node000004"><a xlink:title=" ">
<path fill="none" stroke="#63b8ff" d="M261.5,-167.92C264.18,-154.24 270.99,-128.24 286,-112 299.08,-97.85 317.58,-87.58 334.49,-80.46"/>
<polygon fill="#63b8ff" stroke="#63b8ff" points="335.31,-83.89 343.34,-76.97 332.75,-77.38 335.31,-83.89"/>
</a>
</g>
</g>
<!-- Node16 -->
<g id="Node000016" class="node">
<title>Node16</title>
<g id="a_Node000016"><a xlink:href="_key_8h.html" target="_top" xlink:title=" ">
<polygon fill="white" stroke="#666666" points="169.5,-132 66.5,-132 66.5,-112 169.5,-112 169.5,-132"/>
<text text-anchor="middle" x="118" y="-118.5" font-family="Helvetica,sans-Serif" font-size="10.00">Cpl/Container/Key.h</text>
</a>
</g>
</g>
<!-- Node15&#45;&gt;Node16 -->
<g id="edge21_Node000015_Node000016" class="edge">
<title>Node15&#45;&gt;Node16</title>
<g id="a_edge21_Node000015_Node000016"><a xlink:title=" ">
<path fill="none" stroke="#63b8ff" d="M235.27,-167.59C212.7,-159.01 179.09,-146.23 153.63,-136.55"/>
<polygon fill="#63b8ff" stroke="#63b8ff" points="154.93,-133.3 144.34,-133.02 152.45,-139.84 154.93,-133.3"/>
</a>
</g>
</g>
<!-- Node21 -->
<g id="Node000021" class="node">
<title>Node21</title>
<g id="a_Node000021"><a xlink:title=" ">
<polygon fill="#e0e0e0" stroke="#999999" points="238.62,-132 187.38,-132 187.38,-112 238.62,-112 238.62,-132"/>
<text text-anchor="middle" x="213" y="-118.5" font-family="Helvetica,sans-Serif" font-size="10.00">stdarg.h</text>
</a>
</g>
</g>
<!-- Node15&#45;&gt;Node21 -->
<g id="edge28_Node000015_Node000021" class="edge">
<title>Node15&#45;&gt;Node21</title>
<g id="a_edge28_Node000015_Node000021"><a xlink:title=" ">
<path fill="none" stroke="#63b8ff" d="M251.81,-167.59C245.41,-160.24 236.32,-149.8 228.55,-140.87"/>
<polygon fill="#63b8ff" stroke="#63b8ff" points="231.29,-138.69 222.09,-133.44 226.01,-143.28 231.29,-138.69"/>
</a>
</g>
</g>
<!-- Node22 -->
<g id="Node000022" class="node">
<title>Node22</title>
<g id="a_Node000022"><a xlink:title=" ">
<polygon fill="#e0e0e0" stroke="#999999" points="348.75,-132 295.25,-132 295.25,-112 348.75,-112 348.75,-132"/>
<text text-anchor="middle" x="322" y="-118.5" font-family="Helvetica,sans-Serif" font-size="10.00">iostream</text>
</a>
</g>
</g>
<!-- Node15&#45;&gt;Node22 -->
<g id="edge29_Node000015_Node000022" class="edge">
<title>Node15&#45;&gt;Node22</title>
<g id="a_edge29_Node000015_Node000022"><a xlink:title=" ">
<path fill="none" stroke="#63b8ff" d="M270.8,-167.59C279.6,-159.93 292.25,-148.91 302.77,-139.75"/>
<polygon fill="#63b8ff" stroke="#63b8ff" points="304.94,-142.5 310.18,-133.29 300.34,-137.22 304.94,-142.5"/>
</a>
</g>
</g>
<!-- Node16&#45;&gt;Node4 -->
<g id="edge27_Node000016_Node000004" class="edge">
<title>Node16&#45;&gt;Node4</title>
<g id="a_edge27_Node000016_Node000004"><a xlink:title=" ">
<path fill="none" stroke="#63b8ff" d="M163.41,-111.53C209.25,-101.98 279.85,-87.26 327.2,-77.38"/>
<polygon fill="#63b8ff" stroke="#63b8ff" points="327.85,-80.82 336.92,-75.36 326.42,-73.97 327.85,-80.82"/>
</a>
</g>
</g>
<!-- Node17 -->
<g id="Node000017" class="node">
<title>Node17</title>
<g id="a_Node000017"><a xlink:href="_fatal_error_8h.html" target="_top" xlink:title=" ">
<polygon fill="white" stroke="#666666" points="253.5,-76 132.5,-76 132.5,-56 253.5,-56 253.5,-76"/>
<text text-anchor="middle" x="193" y="-62.5" font-family="Helvetica,sans-Serif" font-size="10.00">Cpl/System/FatalError.h</text>
</a>
</g>
</g>
<!-- Node16&#45;&gt;Node17 -->
<g id="edge22_Node000016_Node000017" class="edge">
<title>Node16&#45;&gt;Node17</title>
<g id="a_edge22_Node000016_Node000017"><a xlink:title=" ">
<path fill="none" stroke="#63b8ff" d="M131.06,-111.59C141.97,-103.74 157.75,-92.38 170.66,-83.09"/>
<polygon fill="#63b8ff" stroke="#63b8ff" points="172.54,-86.05 178.61,-77.36 168.45,-80.37 172.54,-86.05"/>
</a>
</g>
</g>
<!-- Node19 -->
<g id="Node000019" class="node">
<title>Node19</title>
<g id="a_Node000019"><a xlink:title=" ">
<polygon fill="#e0e0e0" stroke="#999999" points="320.12,-76 271.88,-76 271.88,-56 320.12,-56 320.12,-76"/>
<text text-anchor="middle" x="296" y="-62.5" font-family="Helvetica,sans-Serif" font-size="10.00">stdint.h</text>
</a>
</g>
</g>
<!-- Node16&#45;&gt;Node19 -->
<g id="edge25_Node000016_Node000019" class="edge">
<title>Node16&#45;&gt;Node19</title>
<g id="a_edge25_Node000016_Node000019"><a xlink:title=" ">
<path fill="none" stroke="#63b8ff" d="M149.01,-111.59C180.19,-102.13 228.2,-87.57 260.8,-77.68"/>
<polygon fill="#63b8ff" stroke="#63b8ff" points="261.63,-81.08 270.19,-74.83 259.6,-74.38 261.63,-81.08"/>
</a>
</g>
</g>
<!-- Node20 -->
<g id="Node000020" class="node">
<title>Node20</title>
<g id="a_Node000020"><a xlink:title=" ">
<polygon fill="#e0e0e0" stroke="#999999" points="114.12,-76 65.88,-76 65.88,-56 114.12,-56 114.12,-76"/>
<text text-anchor="middle" x="90" y="-62.5" font-family="Helvetica,sans-Serif" font-size="10.00">string.h</text>
</a>
</g>
</g>
<!-- Node16&#45;&gt;Node20 -->
<g id="edge26_Node000016_Node000020" class="edge">
<title>Node16&#45;&gt;Node20</title>
<g id="a_edge26_Node000016_Node000020"><a xlink:title=" ">
<path fill="none" stroke="#63b8ff" d="M113.12,-111.59C109.51,-104.63 104.46,-94.89 100,-86.29"/>
<polygon fill="#63b8ff" stroke="#63b8ff" points="103.23,-84.91 95.52,-77.64 97.01,-88.13 103.23,-84.91"/>
</a>
</g>
</g>
<!-- Node17&#45;&gt;Node2 -->
<g id="edge24_Node000017_Node000002" class="edge">
<title>Node17&#45;&gt;Node2</title>
<g id="a_edge24_Node000017_Node000002"><a xlink:title=" ">
<path fill="none" stroke="#63b8ff" d="M172.1,-55.59C153.37,-47.17 125.64,-34.69 104.28,-25.07"/>
<polygon fill="#63b8ff" stroke="#63b8ff" points="106,-22.01 95.45,-21.1 103.13,-28.4 106,-22.01"/>
</a>
</g>
</g>
<!-- Node18 -->
<g id="Node000018" class="node">
<title>Node18</title>
<g id="a_Node000018"><a xlink:title=" ">
<polygon fill="#e0e0e0" stroke="#999999" points="218.25,-20 167.75,-20 167.75,0 218.25,0 218.25,-20"/>
<text text-anchor="middle" x="193" y="-6.5" font-family="Helvetica,sans-Serif" font-size="10.00">stddef.h</text>
</a>
</g>
</g>
<!-- Node17&#45;&gt;Node18 -->
<g id="edge23_Node000017_Node000018" class="edge">
<title>Node17&#45;&gt;Node18</title>
<g id="a_edge23_Node000017_Node000018"><a xlink:title=" ">
<path fill="none" stroke="#63b8ff" d="M193,-55.59C193,-49.01 193,-39.96 193,-31.73"/>
<polygon fill="#63b8ff" stroke="#63b8ff" points="196.5,-31.81 193,-21.81 189.5,-31.81 196.5,-31.81"/>
</a>
</g>
</g>
</g>
</svg>
