<?xml version="1.0" encoding="UTF-8" standalone="no"?>
<!DOCTYPE svg PUBLIC "-//W3C//DTD SVG 1.1//EN"
 "http://www.w3.org/Graphics/SVG/1.1/DTD/svg11.dtd">
<!-- Generated by graphviz version 2.38.0 (20140413.2041)
 -->
<!-- Title: Cpl/Io/Ram/InputOutput.h Pages: 1 -->
<svg width="569pt" height="364pt"
 viewBox="0.00 0.00 568.84 364.00" xmlns="http://www.w3.org/2000/svg" xmlns:xlink="http://www.w3.org/1999/xlink">
<g id="graph0" class="graph" transform="scale(1 1) rotate(0) translate(4 360)">
<title>Cpl/Io/Ram/InputOutput.h</title>
<polygon fill="white" stroke="none" points="-4,4 -4,-360 564.841,-360 564.841,4 -4,4"/>
<!-- Node1 -->
<g id="node1" class="node"><title>Node1</title>
<g id="a_node1"><a xlink:title=" ">
<polygon fill="#bfbfbf" stroke="black" points="170.841,-336.5 170.841,-355.5 298.841,-355.5 298.841,-336.5 170.841,-336.5"/>
<text text-anchor="middle" x="234.841" y="-343.5" font-family="Helvetica,sans-Serif" font-size="10.00">Cpl/Io/Ram/InputOutput.h</text>
</a>
</g>
</g>
<!-- Node2 -->
<g id="node2" class="node"><title>Node2</title>
<g id="a_node2"><a xlink:href="_input_output_8h.html" target="_top" xlink:title=" ">
<polygon fill="white" stroke="black" points="249.841,-280.5 249.841,-299.5 353.841,-299.5 353.841,-280.5 249.841,-280.5"/>
<text text-anchor="middle" x="301.841" y="-287.5" font-family="Helvetica,sans-Serif" font-size="10.00">Cpl/Io/InputOutput.h</text>
</a>
</g>
</g>
<!-- Node1&#45;&gt;Node2 -->
<g id="edge1" class="edge"><title>Node1&#45;&gt;Node2</title>
<path fill="none" stroke="midnightblue" d="M245.605,-336.324C255.607,-328.263 270.727,-316.077 282.771,-306.369"/>
<polygon fill="midnightblue" stroke="midnightblue" points="285.29,-308.834 290.88,-299.834 280.898,-303.384 285.29,-308.834"/>
</g>
<!-- Node18 -->
<g id="node18" class="node"><title>Node18</title>
<g id="a_node18"><a xlink:href="_ring_buffer_8h.html" target="_top" xlink:title=" ">
<polygon fill="white" stroke="black" points="428.841,-280.5 428.841,-299.5 560.841,-299.5 560.841,-280.5 428.841,-280.5"/>
<text text-anchor="middle" x="494.841" y="-287.5" font-family="Helvetica,sans-Serif" font-size="10.00">Cpl/Container/RingBuffer.h</text>
</a>
</g>
</g>
<!-- Node1&#45;&gt;Node18 -->
<g id="edge22" class="edge"><title>Node1&#45;&gt;Node18</title>
<path fill="none" stroke="midnightblue" d="M276.038,-336.444C321.49,-327.004 394.683,-311.802 443.75,-301.611"/>
<polygon fill="midnightblue" stroke="midnightblue" points="444.756,-304.977 453.836,-299.516 443.333,-298.123 444.756,-304.977"/>
</g>
<!-- Node19 -->
<g id="node19" class="node"><title>Node19</title>
<g id="a_node19"><a xlink:href="_semaphore_8h.html" target="_top" xlink:title=" ">
<polygon fill="white" stroke="black" points="1.8406,-224.5 1.8406,-243.5 129.841,-243.5 129.841,-224.5 1.8406,-224.5"/>
<text text-anchor="middle" x="65.8406" y="-231.5" font-family="Helvetica,sans-Serif" font-size="10.00">Cpl/System/Semaphore.h</text>
</a>
</g>
</g>
<!-- Node1&#45;&gt;Node19 -->
<g id="edge24" class="edge"><title>Node1&#45;&gt;Node19</title>
<path fill="none" stroke="midnightblue" d="M187.909,-336.442C161.917,-329.869 130.232,-318.649 106.841,-300 91.3941,-287.685 80.1002,-267.872 73.3225,-253.354"/>
<polygon fill="midnightblue" stroke="midnightblue" points="76.4028,-251.662 69.1906,-243.901 69.9888,-254.466 76.4028,-251.662"/>
</g>
<!-- Node21 -->
<g id="node21" class="node"><title>Node21</title>
<g id="a_node21"><a xlink:href="_mutex_8h.html" target="_top" xlink:title=" ">
<polygon fill="white" stroke="black" points="115.841,-280.5 115.841,-299.5 221.841,-299.5 221.841,-280.5 115.841,-280.5"/>
<text text-anchor="middle" x="168.841" y="-287.5" font-family="Helvetica,sans-Serif" font-size="10.00">Cpl/System/Mutex.h</text>
</a>
</g>
</g>
<!-- Node1&#45;&gt;Node21 -->
<g id="edge28" class="edge"><title>Node1&#45;&gt;Node21</title>
<path fill="none" stroke="midnightblue" d="M224.237,-336.324C214.384,-328.263 199.49,-316.077 187.625,-306.369"/>
<polygon fill="midnightblue" stroke="midnightblue" points="189.594,-303.457 179.638,-299.834 185.161,-308.875 189.594,-303.457"/>
</g>
<!-- Node3 -->
<g id="node3" class="node"><title>Node3</title>
<g id="a_node3"><a xlink:href="_input_8h.html" target="_top" xlink:title=" ">
<polygon fill="white" stroke="black" points="264.341,-224.5 264.341,-243.5 339.341,-243.5 339.341,-224.5 264.341,-224.5"/>
<text text-anchor="middle" x="301.841" y="-231.5" font-family="Helvetica,sans-Serif" font-size="10.00">Cpl/Io/Input.h</text>
</a>
</g>
</g>
<!-- Node2&#45;&gt;Node3 -->
<g id="edge2" class="edge"><title>Node2&#45;&gt;Node3</title>
<path fill="none" stroke="midnightblue" d="M301.841,-280.083C301.841,-273.006 301.841,-262.861 301.841,-253.986"/>
<polygon fill="midnightblue" stroke="midnightblue" points="305.341,-253.751 301.841,-243.751 298.341,-253.751 305.341,-253.751"/>
</g>
<!-- Node17 -->
<g id="node17" class="node"><title>Node17</title>
<g id="a_node17"><a xlink:href="_output_8h.html" target="_top" xlink:title=" ">
<polygon fill="white" stroke="black" points="357.341,-224.5 357.341,-243.5 440.341,-243.5 440.341,-224.5 357.341,-224.5"/>
<text text-anchor="middle" x="398.841" y="-231.5" font-family="Helvetica,sans-Serif" font-size="10.00">Cpl/Io/Output.h</text>
</a>
</g>
</g>
<!-- Node2&#45;&gt;Node17 -->
<g id="edge17" class="edge"><title>Node2&#45;&gt;Node17</title>
<path fill="none" stroke="midnightblue" d="M317.425,-280.324C332.84,-271.743 356.653,-258.486 374.55,-248.522"/>
<polygon fill="midnightblue" stroke="midnightblue" points="376.26,-251.577 383.295,-243.655 372.855,-245.461 376.26,-251.577"/>
</g>
<!-- Node4 -->
<g id="node4" class="node"><title>Node4</title>
<g id="a_node4"><a xlink:href="_text_2_string_8h.html" target="_top" xlink:title=" ">
<polygon fill="white" stroke="black" points="379.841,-168.5 379.841,-187.5 469.841,-187.5 469.841,-168.5 379.841,-168.5"/>
<text text-anchor="middle" x="424.841" y="-175.5" font-family="Helvetica,sans-Serif" font-size="10.00">Cpl/Text/String.h</text>
</a>
</g>
</g>
<!-- Node3&#45;&gt;Node4 -->
<g id="edge3" class="edge"><title>Node3&#45;&gt;Node4</title>
<path fill="none" stroke="midnightblue" d="M321.33,-224.444C341.483,-215.596 373.164,-201.687 396.171,-191.586"/>
<polygon fill="midnightblue" stroke="midnightblue" points="397.693,-194.741 405.442,-187.516 394.879,-188.332 397.693,-194.741"/>
</g>
<!-- Node14 -->
<g id="node14" class="node"><title>Node14</title>
<g id="a_node14"><a xlink:href="_close_8h.html" target="_top" xlink:title=" ">
<polygon fill="white" stroke="black" points="283.841,-168.5 283.841,-187.5 361.841,-187.5 361.841,-168.5 283.841,-168.5"/>
<text text-anchor="middle" x="322.841" y="-175.5" font-family="Helvetica,sans-Serif" font-size="10.00">Cpl/Io/Close.h</text>
</a>
</g>
</g>
<!-- Node3&#45;&gt;Node14 -->
<g id="edge14" class="edge"><title>Node3&#45;&gt;Node14</title>
<path fill="none" stroke="midnightblue" d="M305.308,-224.083C308.152,-216.77 312.27,-206.181 315.8,-197.103"/>
<polygon fill="midnightblue" stroke="midnightblue" points="319.075,-198.34 319.437,-187.751 312.551,-195.803 319.075,-198.34"/>
</g>
<!-- Node16 -->
<g id="node16" class="node"><title>Node16</title>
<g id="a_node16"><a xlink:href="_is_eos_8h.html" target="_top" xlink:title=" ">
<polygon fill="white" stroke="black" points="186.341,-168.5 186.341,-187.5 265.341,-187.5 265.341,-168.5 186.341,-168.5"/>
<text text-anchor="middle" x="225.841" y="-175.5" font-family="Helvetica,sans-Serif" font-size="10.00">Cpl/Io/IsEos.h</text>
</a>
</g>
</g>
<!-- Node3&#45;&gt;Node16 -->
<g id="edge16" class="edge"><title>Node3&#45;&gt;Node16</title>
<path fill="none" stroke="midnightblue" d="M289.63,-224.324C278.065,-216.107 260.465,-203.602 246.68,-193.807"/>
<polygon fill="midnightblue" stroke="midnightblue" points="248.453,-190.773 238.273,-187.834 244.398,-196.479 248.453,-190.773"/>
</g>
<!-- Node5 -->
<g id="node5" class="node"><title>Node5</title>
<g id="a_node5"><a xlink:title=" ">
<polygon fill="white" stroke="#bfbfbf" points="136.341,-56.5 136.341,-75.5 213.341,-75.5 213.341,-56.5 136.341,-56.5"/>
<text text-anchor="middle" x="174.841" y="-63.5" font-family="Helvetica,sans-Serif" font-size="10.00">colony_map.h</text>
</a>
</g>
</g>
<!-- Node4&#45;&gt;Node5 -->
<g id="edge4" class="edge"><title>Node4&#45;&gt;Node5</title>
<path fill="none" stroke="midnightblue" d="M379.684,-169.409C345.779,-162.588 298.851,-150.714 260.841,-132 234.532,-119.047 208.211,-97.5998 191.749,-82.9088"/>
<polygon fill="midnightblue" stroke="midnightblue" points="193.837,-80.0768 184.091,-75.923 189.12,-85.2483 193.837,-80.0768"/>
</g>
<!-- Node6 -->
<g id="node6" class="node"><title>Node6</title>
<g id="a_node6"><a xlink:href="_key_8h.html" target="_top" xlink:title=" ">
<polygon fill="white" stroke="black" points="341.841,-112.5 341.841,-131.5 445.841,-131.5 445.841,-112.5 341.841,-112.5"/>
<text text-anchor="middle" x="393.841" y="-119.5" font-family="Helvetica,sans-Serif" font-size="10.00">Cpl/Container/Key.h</text>
</a>
</g>
</g>
<!-- Node4&#45;&gt;Node6 -->
<g id="edge5" class="edge"><title>Node4&#45;&gt;Node6</title>
<path fill="none" stroke="midnightblue" d="M419.722,-168.083C415.433,-160.613 409.182,-149.724 403.898,-140.52"/>
<polygon fill="midnightblue" stroke="midnightblue" points="406.878,-138.681 398.864,-131.751 400.808,-142.166 406.878,-138.681"/>
</g>
<!-- Node12 -->
<g id="node12" class="node"><title>Node12</title>
<g id="a_node12"><a xlink:title=" ">
<polygon fill="white" stroke="#bfbfbf" points="463.841,-112.5 463.841,-131.5 515.841,-131.5 515.841,-112.5 463.841,-112.5"/>
<text text-anchor="middle" x="489.841" y="-119.5" font-family="Helvetica,sans-Serif" font-size="10.00">stdarg.h</text>
</a>
</g>
</g>
<!-- Node4&#45;&gt;Node12 -->
<g id="edge12" class="edge"><title>Node4&#45;&gt;Node12</title>
<path fill="none" stroke="midnightblue" d="M435.284,-168.324C444.987,-160.263 459.656,-148.077 471.34,-138.369"/>
<polygon fill="midnightblue" stroke="midnightblue" points="473.752,-140.916 479.207,-131.834 469.279,-135.532 473.752,-140.916"/>
</g>
<!-- Node13 -->
<g id="node13" class="node"><title>Node13</title>
<g id="a_node13"><a xlink:title=" ">
<polygon fill="white" stroke="#bfbfbf" points="269.841,-112.5 269.841,-131.5 323.841,-131.5 323.841,-112.5 269.841,-112.5"/>
<text text-anchor="middle" x="296.841" y="-119.5" font-family="Helvetica,sans-Serif" font-size="10.00">iostream</text>
</a>
</g>
</g>
<!-- Node4&#45;&gt;Node13 -->
<g id="edge13" class="edge"><title>Node4&#45;&gt;Node13</title>
<path fill="none" stroke="midnightblue" d="M404.559,-168.444C383.493,-159.557 350.324,-145.563 326.355,-135.451"/>
<polygon fill="midnightblue" stroke="midnightblue" points="327.602,-132.179 317.028,-131.516 324.881,-138.628 327.602,-132.179"/>
</g>
<!-- Node6&#45;&gt;Node5 -->
<g id="edge11" class="edge"><title>Node6&#45;&gt;Node5</title>
<path fill="none" stroke="midnightblue" d="M359.139,-112.444C321.256,-103.102 260.492,-88.1194 219.178,-77.9326"/>
<polygon fill="midnightblue" stroke="midnightblue" points="219.927,-74.5123 209.379,-75.5164 218.251,-81.3088 219.927,-74.5123"/>
</g>
<!-- Node7 -->
<g id="node7" class="node"><title>Node7</title>
<g id="a_node7"><a xlink:href="_fatal_error_8h.html" target="_top" xlink:title=" ">
<polygon fill="white" stroke="black" points="249.841,-56.5 249.841,-75.5 371.841,-75.5 371.841,-56.5 249.841,-56.5"/>
<text text-anchor="middle" x="310.841" y="-63.5" font-family="Helvetica,sans-Serif" font-size="10.00">Cpl/System/FatalError.h</text>
</a>
</g>
</g>
<!-- Node6&#45;&gt;Node7 -->
<g id="edge6" class="edge"><title>Node6&#45;&gt;Node7</title>
<path fill="none" stroke="midnightblue" d="M380.505,-112.324C367.679,-103.979 348.056,-91.2122 332.901,-81.3524"/>
<polygon fill="midnightblue" stroke="midnightblue" points="334.434,-78.1742 324.143,-75.6545 330.616,-84.0417 334.434,-78.1742"/>
</g>
<!-- Node10 -->
<g id="node10" class="node"><title>Node10</title>
<g id="a_node10"><a xlink:title=" ">
<polygon fill="white" stroke="#bfbfbf" points="498.341,-56.5 498.341,-75.5 547.341,-75.5 547.341,-56.5 498.341,-56.5"/>
<text text-anchor="middle" x="522.841" y="-63.5" font-family="Helvetica,sans-Serif" font-size="10.00">stdint.h</text>
</a>
</g>
</g>
<!-- Node6&#45;&gt;Node10 -->
<g id="edge9" class="edge"><title>Node6&#45;&gt;Node10</title>
<path fill="none" stroke="midnightblue" d="M414.281,-112.444C435.511,-103.557 468.94,-89.5632 493.096,-79.4514"/>
<polygon fill="midnightblue" stroke="midnightblue" points="494.623,-82.6064 502.496,-75.5164 491.92,-76.1493 494.623,-82.6064"/>
</g>
<!-- Node11 -->
<g id="node11" class="node"><title>Node11</title>
<g id="a_node11"><a xlink:title=" ">
<polygon fill="white" stroke="#bfbfbf" points="390.341,-56.5 390.341,-75.5 439.341,-75.5 439.341,-56.5 390.341,-56.5"/>
<text text-anchor="middle" x="414.841" y="-63.5" font-family="Helvetica,sans-Serif" font-size="10.00">string.h</text>
</a>
</g>
</g>
<!-- Node6&#45;&gt;Node11 -->
<g id="edge10" class="edge"><title>Node6&#45;&gt;Node11</title>
<path fill="none" stroke="midnightblue" d="M397.308,-112.083C400.152,-104.77 404.27,-94.1814 407.8,-85.1034"/>
<polygon fill="midnightblue" stroke="midnightblue" points="411.075,-86.3397 411.437,-75.7511 404.551,-83.8025 411.075,-86.3397"/>
</g>
<!-- Node8 -->
<g id="node8" class="node"><title>Node8</title>
<g id="a_node8"><a xlink:title=" ">
<polygon fill="white" stroke="#bfbfbf" points="241.841,-0.5 241.841,-19.5 293.841,-19.5 293.841,-0.5 241.841,-0.5"/>
<text text-anchor="middle" x="267.841" y="-7.5" font-family="Helvetica,sans-Serif" font-size="10.00">stddef.h</text>
</a>
</g>
</g>
<!-- Node7&#45;&gt;Node8 -->
<g id="edge7" class="edge"><title>Node7&#45;&gt;Node8</title>
<path fill="none" stroke="midnightblue" d="M303.74,-56.083C297.604,-48.3768 288.571,-37.0333 281.101,-27.6531"/>
<polygon fill="midnightblue" stroke="midnightblue" points="283.776,-25.3936 274.809,-19.7511 278.3,-29.7542 283.776,-25.3936"/>
</g>
<!-- Node9 -->
<g id="node9" class="node"><title>Node9</title>
<g id="a_node9"><a xlink:title=" ">
<polygon fill="white" stroke="#bfbfbf" points="312.341,-0.5 312.341,-19.5 397.341,-19.5 397.341,-0.5 312.341,-0.5"/>
<text text-anchor="middle" x="354.841" y="-7.5" font-family="Helvetica,sans-Serif" font-size="10.00">colony_config.h</text>
</a>
</g>
</g>
<!-- Node7&#45;&gt;Node9 -->
<g id="edge8" class="edge"><title>Node7&#45;&gt;Node9</title>
<path fill="none" stroke="midnightblue" d="M318.106,-56.083C324.385,-48.3768 333.628,-37.0333 341.271,-27.6531"/>
<polygon fill="midnightblue" stroke="midnightblue" points="344.107,-29.7143 347.71,-19.7511 338.68,-25.2926 344.107,-29.7143"/>
</g>
<!-- Node15 -->
<g id="node15" class="node"><title>Node15</title>
<g id="a_node15"><a xlink:href="_item_8h.html" target="_top" xlink:title=" ">
<polygon fill="white" stroke="black" points="21.8406,-112.5 21.8406,-131.5 127.841,-131.5 127.841,-112.5 21.8406,-112.5"/>
<text text-anchor="middle" x="74.8406" y="-119.5" font-family="Helvetica,sans-Serif" font-size="10.00">Cpl/Container/Item.h</text>
</a>
</g>
</g>
<!-- Node14&#45;&gt;Node15 -->
<g id="edge15" class="edge"><title>Node14&#45;&gt;Node15</title>
<path fill="none" stroke="midnightblue" d="M283.818,-168.503C240.61,-159.095 170.879,-143.912 123.98,-133.7"/>
<polygon fill="midnightblue" stroke="midnightblue" points="124.561,-130.244 114.045,-131.536 123.071,-137.084 124.561,-130.244"/>
</g>
<!-- Node17&#45;&gt;Node4 -->
<g id="edge18" class="edge"><title>Node17&#45;&gt;Node4</title>
<path fill="none" stroke="midnightblue" d="M403.134,-224.083C406.693,-216.691 411.863,-205.953 416.265,-196.811"/>
<polygon fill="midnightblue" stroke="midnightblue" points="419.442,-198.279 420.627,-187.751 413.135,-195.243 419.442,-198.279"/>
</g>
<!-- Node17&#45;&gt;Node12 -->
<g id="edge21" class="edge"><title>Node17&#45;&gt;Node12</title>
<path fill="none" stroke="midnightblue" d="M426.487,-224.444C444.252,-217.488 466.28,-205.856 478.841,-188 488.204,-174.69 490.559,-156.113 490.803,-142.226"/>
<polygon fill="midnightblue" stroke="midnightblue" points="494.296,-141.819 490.619,-131.883 487.298,-141.944 494.296,-141.819"/>
</g>
<!-- Node17&#45;&gt;Node14 -->
<g id="edge19" class="edge"><title>Node17&#45;&gt;Node14</title>
<path fill="none" stroke="midnightblue" d="M386.63,-224.324C375.065,-216.107 357.465,-203.602 343.68,-193.807"/>
<polygon fill="midnightblue" stroke="midnightblue" points="345.453,-190.773 335.273,-187.834 341.398,-196.479 345.453,-190.773"/>
</g>
<!-- Node17&#45;&gt;Node16 -->
<g id="edge20" class="edge"><title>Node17&#45;&gt;Node16</title>
<path fill="none" stroke="midnightblue" d="M371.428,-224.444C342.071,-215.28 295.321,-200.688 262.745,-190.519"/>
<polygon fill="midnightblue" stroke="midnightblue" points="263.713,-187.155 253.125,-187.516 261.628,-193.837 263.713,-187.155"/>
</g>
<!-- Node18&#45;&gt;Node10 -->
<g id="edge23" class="edge"><title>Node18&#45;&gt;Node10</title>
<path fill="none" stroke="midnightblue" d="M497.122,-280.232C503.153,-256.542 519.426,-189.187 524.841,-132 525.678,-123.151 525.038,-120.887 524.841,-112 524.649,-103.391 524.253,-93.8632 523.863,-85.799"/>
<polygon fill="midnightblue" stroke="midnightblue" points="527.348,-85.4294 523.338,-75.623 520.358,-85.79 527.348,-85.4294"/>
</g>
<!-- Node19&#45;&gt;Node5 -->
<g id="edge25" class="edge"><title>Node19&#45;&gt;Node5</title>
<path fill="none" stroke="midnightblue" d="M45.9345,-224.41C31.6156,-217.04 13.3826,-204.916 4.8406,-188 -3.84831,-170.793 0.188385,-126.4 12.8406,-112 40.9299,-80.03 89.5674,-69.8791 126.238,-67.064"/>
<polygon fill="midnightblue" stroke="midnightblue" points="126.469,-70.5565 136.237,-66.4525 126.042,-63.5696 126.469,-70.5565"/>
</g>
<!-- Node20 -->
<g id="node20" class="node"><title>Node20</title>
<g id="a_node20"><a xlink:href="_signable_8h.html" target="_top" xlink:title=" ">
<polygon fill="white" stroke="black" points="13.8406,-168.5 13.8406,-187.5 129.841,-187.5 129.841,-168.5 13.8406,-168.5"/>
<text text-anchor="middle" x="71.8406" y="-175.5" font-family="Helvetica,sans-Serif" font-size="10.00">Cpl/System/Signable.h</text>
</a>
</g>
</g>
<!-- Node19&#45;&gt;Node20 -->
<g id="edge26" class="edge"><title>Node19&#45;&gt;Node20</title>
<path fill="none" stroke="midnightblue" d="M66.8314,-224.083C67.6265,-216.927 68.77,-206.635 69.7638,-197.691"/>
<polygon fill="midnightblue" stroke="midnightblue" points="73.2424,-198.076 70.8683,-187.751 66.2853,-197.303 73.2424,-198.076"/>
</g>
<!-- Node20&#45;&gt;Node15 -->
<g id="edge27" class="edge"><title>Node20&#45;&gt;Node15</title>
<path fill="none" stroke="midnightblue" d="M72.336,-168.083C72.7292,-161.006 73.2928,-150.861 73.7858,-141.986"/>
<polygon fill="midnightblue" stroke="midnightblue" points="77.2942,-141.93 74.3544,-131.751 70.305,-141.542 77.2942,-141.93"/>
</g>
<!-- Node21&#45;&gt;Node5 -->
<g id="edge29" class="edge"><title>Node21&#45;&gt;Node5</title>
<path fill="none" stroke="midnightblue" d="M169.076,-280.297C169.959,-247.633 173.087,-131.866 174.328,-85.9573"/>
<polygon fill="midnightblue" stroke="midnightblue" points="177.829,-85.9747 174.6,-75.8837 170.832,-85.7855 177.829,-85.9747"/>
</g>
</g>
</svg>
