<?xml version="1.0" encoding="UTF-8" standalone="no"?>
<!DOCTYPE svg PUBLIC "-//W3C//DTD SVG 1.1//EN"
 "http://www.w3.org/Graphics/SVG/1.1/DTD/svg11.dtd">
<!-- Generated by graphviz version 2.38.0 (20140413.2041)
 -->
<!-- Title: Cpl/Persistent/RecordServer.h Pages: 1 -->
<svg width="1563pt" height="532pt"
 viewBox="0.00 0.00 1562.50 532.00" xmlns="http://www.w3.org/2000/svg" xmlns:xlink="http://www.w3.org/1999/xlink">
<g id="graph0" class="graph" transform="scale(1 1) rotate(0) translate(4 528)">
<title>Cpl/Persistent/RecordServer.h</title>
<polygon fill="white" stroke="none" points="-4,4 -4,-528 1558.5,-528 1558.5,4 -4,4"/>
<!-- Node1 -->
<g id="node1" class="node"><title>Node1</title>
<g id="a_node1"><a xlink:title=" ">
<polygon fill="#bfbfbf" stroke="black" points="338,-504.5 338,-523.5 487,-523.5 487,-504.5 338,-504.5"/>
<text text-anchor="middle" x="412.5" y="-511.5" font-family="Helvetica,sans-Serif" font-size="10.00">Cpl/Persistent/RecordServer.h</text>
</a>
</g>
</g>
<!-- Node2 -->
<g id="node2" class="node"><title>Node2</title>
<g id="a_node2"><a xlink:href="_persistent_2_record_8h.html" target="_top" xlink:title=" ">
<polygon fill="white" stroke="black" points="440.5,-448.5 440.5,-467.5 560.5,-467.5 560.5,-448.5 440.5,-448.5"/>
<text text-anchor="middle" x="500.5" y="-455.5" font-family="Helvetica,sans-Serif" font-size="10.00">Cpl/Persistent/Record.h</text>
</a>
</g>
</g>
<!-- Node1&#45;&gt;Node2 -->
<g id="edge1" class="edge"><title>Node1&#45;&gt;Node2</title>
<path fill="none" stroke="midnightblue" d="M426.639,-504.324C440.366,-495.9 461.436,-482.971 477.564,-473.074"/>
<polygon fill="midnightblue" stroke="midnightblue" points="479.704,-475.868 486.396,-467.655 476.043,-469.902 479.704,-475.868"/>
</g>
<!-- Node3 -->
<g id="node3" class="node"><title>Node3</title>
<g id="a_node3"><a xlink:href="_dm_2_mailbox_server_8h.html" target="_top" xlink:title=" ">
<polygon fill="white" stroke="black" points="439.5,-392.5 439.5,-411.5 561.5,-411.5 561.5,-392.5 439.5,-392.5"/>
<text text-anchor="middle" x="500.5" y="-399.5" font-family="Helvetica,sans-Serif" font-size="10.00">Cpl/Dm/MailboxServer.h</text>
</a>
</g>
</g>
<!-- Node1&#45;&gt;Node3 -->
<g id="edge39" class="edge"><title>Node1&#45;&gt;Node3</title>
<path fill="none" stroke="midnightblue" d="M413.148,-504.153C414.523,-490.785 418.745,-465.18 431.5,-448 441.544,-434.472 456.957,-423.865 470.67,-416.355"/>
<polygon fill="midnightblue" stroke="midnightblue" points="472.515,-419.342 479.805,-411.653 469.312,-413.118 472.515,-419.342"/>
</g>
<!-- Node27 -->
<g id="node27" class="node"><title>Node27</title>
<g id="a_node27"><a xlink:href="_close_sync_8h.html" target="_top" xlink:title=" ">
<polygon fill="white" stroke="black" points="248.5,-448.5 248.5,-467.5 352.5,-467.5 352.5,-448.5 248.5,-448.5"/>
<text text-anchor="middle" x="300.5" y="-455.5" font-family="Helvetica,sans-Serif" font-size="10.00">Cpl/Itc/CloseSync.h</text>
</a>
</g>
</g>
<!-- Node1&#45;&gt;Node27 -->
<g id="edge40" class="edge"><title>Node1&#45;&gt;Node27</title>
<path fill="none" stroke="midnightblue" d="M394.505,-504.324C376.462,-495.625 348.453,-482.12 327.697,-472.113"/>
<polygon fill="midnightblue" stroke="midnightblue" points="328.978,-468.845 318.45,-467.655 325.938,-475.15 328.978,-468.845"/>
</g>
<!-- Node2&#45;&gt;Node3 -->
<g id="edge2" class="edge"><title>Node2&#45;&gt;Node3</title>
<path fill="none" stroke="midnightblue" d="M500.5,-448.083C500.5,-441.006 500.5,-430.861 500.5,-421.986"/>
<polygon fill="midnightblue" stroke="midnightblue" points="504,-421.751 500.5,-411.751 497,-421.751 504,-421.751"/>
</g>
<!-- Node4 -->
<g id="node4" class="node"><title>Node4</title>
<g id="a_node4"><a xlink:href="_dm_2_event_loop_8h.html" target="_top" xlink:title=" ">
<polygon fill="white" stroke="black" points="919,-224.5 919,-243.5 1026,-243.5 1026,-224.5 919,-224.5"/>
<text text-anchor="middle" x="972.5" y="-231.5" font-family="Helvetica,sans-Serif" font-size="10.00">Cpl/Dm/EventLoop.h</text>
</a>
</g>
</g>
<!-- Node3&#45;&gt;Node4 -->
<g id="edge3" class="edge"><title>Node3&#45;&gt;Node4</title>
<path fill="none" stroke="midnightblue" d="M524.883,-392.425C603.214,-364.876 848.58,-278.582 938.789,-246.856"/>
<polygon fill="midnightblue" stroke="midnightblue" points="939.991,-250.144 948.263,-243.524 937.668,-243.54 939.991,-250.144"/>
</g>
<!-- Node23 -->
<g id="node23" class="node"><title>Node23</title>
<g id="a_node23"><a xlink:href="_mailbox_8h.html" target="_top" xlink:title=" ">
<polygon fill="white" stroke="black" points="455.5,-224.5 455.5,-243.5 545.5,-243.5 545.5,-224.5 455.5,-224.5"/>
<text text-anchor="middle" x="500.5" y="-231.5" font-family="Helvetica,sans-Serif" font-size="10.00">Cpl/Itc/Mailbox.h</text>
</a>
</g>
</g>
<!-- Node3&#45;&gt;Node23 -->
<g id="edge32" class="edge"><title>Node3&#45;&gt;Node23</title>
<path fill="none" stroke="midnightblue" d="M500.5,-392.075C500.5,-365.945 500.5,-289.211 500.5,-253.577"/>
<polygon fill="midnightblue" stroke="midnightblue" points="504,-253.568 500.5,-243.568 497,-253.568 504,-253.568"/>
</g>
<!-- Node5 -->
<g id="node5" class="node"><title>Node5</title>
<g id="a_node5"><a xlink:href="_system_2_event_loop_8h.html" target="_top" xlink:title=" ">
<polygon fill="white" stroke="black" points="613,-168.5 613,-187.5 738,-187.5 738,-168.5 613,-168.5"/>
<text text-anchor="middle" x="675.5" y="-175.5" font-family="Helvetica,sans-Serif" font-size="10.00">Cpl/System/EventLoop.h</text>
</a>
</g>
</g>
<!-- Node4&#45;&gt;Node5 -->
<g id="edge4" class="edge"><title>Node4&#45;&gt;Node5</title>
<path fill="none" stroke="midnightblue" d="M925.439,-224.444C873.085,-214.925 788.51,-199.547 732.46,-189.356"/>
<polygon fill="midnightblue" stroke="midnightblue" points="732.805,-185.862 722.34,-187.516 731.553,-192.749 732.805,-185.862"/>
</g>
<!-- Node17 -->
<g id="node17" class="node"><title>Node17</title>
<g id="a_node17"><a xlink:href="_d_list_8h.html" target="_top" xlink:title=" ">
<polygon fill="white" stroke="black" points="715,-56.5 715,-75.5 824,-75.5 824,-56.5 715,-56.5"/>
<text text-anchor="middle" x="769.5" y="-63.5" font-family="Helvetica,sans-Serif" font-size="10.00">Cpl/Container/DList.h</text>
</a>
</g>
</g>
<!-- Node4&#45;&gt;Node17 -->
<g id="edge26" class="edge"><title>Node4&#45;&gt;Node17</title>
<path fill="none" stroke="midnightblue" d="M957.683,-224.291C930.481,-207.962 871.346,-170.872 827.5,-132 810.604,-117.021 793.689,-97.406 782.523,-83.6568"/>
<polygon fill="midnightblue" stroke="midnightblue" points="785.048,-81.209 776.074,-75.5764 779.576,-85.5756 785.048,-81.209"/>
</g>
<!-- Node18 -->
<g id="node18" class="node"><title>Node18</title>
<g id="a_node18"><a xlink:href="_thread_8h.html" target="_top" xlink:title=" ">
<polygon fill="white" stroke="black" points="1168,-168.5 1168,-187.5 1277,-187.5 1277,-168.5 1168,-168.5"/>
<text text-anchor="middle" x="1222.5" y="-175.5" font-family="Helvetica,sans-Serif" font-size="10.00">Cpl/System/Thread.h</text>
</a>
</g>
</g>
<!-- Node4&#45;&gt;Node18 -->
<g id="edge20" class="edge"><title>Node4&#45;&gt;Node18</title>
<path fill="none" stroke="midnightblue" d="M1012.11,-224.444C1055.73,-215.023 1125.9,-199.866 1173.08,-189.675"/>
<polygon fill="midnightblue" stroke="midnightblue" points="1174.04,-193.049 1183.07,-187.516 1172.56,-186.207 1174.04,-193.049"/>
</g>
<!-- Node21 -->
<g id="node21" class="node"><title>Node21</title>
<g id="a_node21"><a xlink:href="_subscriber_api_8h.html" target="_top" xlink:title=" ">
<polygon fill="white" stroke="black" points="1271,-56.5 1271,-75.5 1392,-75.5 1392,-56.5 1271,-56.5"/>
<text text-anchor="middle" x="1331.5" y="-63.5" font-family="Helvetica,sans-Serif" font-size="10.00">Cpl/Dm/SubscriberApi.h</text>
</a>
</g>
</g>
<!-- Node4&#45;&gt;Node21 -->
<g id="edge27" class="edge"><title>Node4&#45;&gt;Node21</title>
<path fill="none" stroke="midnightblue" d="M1026.18,-228.917C1103.29,-222.443 1241.12,-208.43 1286.5,-188 1321.58,-172.209 1336.34,-166.91 1352.5,-132 1359.72,-116.412 1352.04,-97.6555 1344.02,-84.3056"/>
<polygon fill="midnightblue" stroke="midnightblue" points="1346.75,-82.0865 1338.32,-75.6631 1340.91,-85.9388 1346.75,-82.0865"/>
</g>
<!-- Node22 -->
<g id="node22" class="node"><title>Node22</title>
<g id="a_node22"><a xlink:href="_notification_api___8h.html" target="_top" xlink:title=" ">
<polygon fill="white" stroke="black" points="1426.5,-168.5 1426.5,-187.5 1554.5,-187.5 1554.5,-168.5 1426.5,-168.5"/>
<text text-anchor="middle" x="1490.5" y="-175.5" font-family="Helvetica,sans-Serif" font-size="10.00">Cpl/Dm/NotificationApi_.h</text>
</a>
</g>
</g>
<!-- Node4&#45;&gt;Node22 -->
<g id="edge30" class="edge"><title>Node4&#45;&gt;Node22</title>
<path fill="none" stroke="midnightblue" d="M1026.03,-227.751C1108.89,-219.575 1273.19,-203.161 1412.5,-188 1413.62,-187.878 1414.74,-187.755 1415.88,-187.631"/>
<polygon fill="midnightblue" stroke="midnightblue" points="1416.68,-191.063 1426.23,-186.482 1415.91,-184.106 1416.68,-191.063"/>
</g>
<!-- Node6 -->
<g id="node6" class="node"><title>Node6</title>
<g id="a_node6"><a xlink:href="_runnable_8h.html" target="_top" xlink:title=" ">
<polygon fill="white" stroke="black" points="983,-112.5 983,-131.5 1102,-131.5 1102,-112.5 983,-112.5"/>
<text text-anchor="middle" x="1042.5" y="-119.5" font-family="Helvetica,sans-Serif" font-size="10.00">Cpl/System/Runnable.h</text>
</a>
</g>
</g>
<!-- Node5&#45;&gt;Node6 -->
<g id="edge5" class="edge"><title>Node5&#45;&gt;Node6</title>
<path fill="none" stroke="midnightblue" d="M733.652,-168.444C799.151,-158.806 905.463,-143.163 974.685,-132.978"/>
<polygon fill="midnightblue" stroke="midnightblue" points="975.236,-136.435 984.62,-131.516 974.217,-129.51 975.236,-136.435"/>
</g>
<!-- Node7 -->
<g id="node7" class="node"><title>Node7</title>
<g id="a_node7"><a xlink:href="_semaphore_8h.html" target="_top" xlink:title=" ">
<polygon fill="white" stroke="black" points="836.5,-112.5 836.5,-131.5 964.5,-131.5 964.5,-112.5 836.5,-112.5"/>
<text text-anchor="middle" x="900.5" y="-119.5" font-family="Helvetica,sans-Serif" font-size="10.00">Cpl/System/Semaphore.h</text>
</a>
</g>
</g>
<!-- Node5&#45;&gt;Node7 -->
<g id="edge6" class="edge"><title>Node5&#45;&gt;Node7</title>
<path fill="none" stroke="midnightblue" d="M711.152,-168.444C750.156,-159.083 812.766,-144.056 855.217,-133.868"/>
<polygon fill="midnightblue" stroke="midnightblue" points="856.108,-137.254 865.015,-131.516 854.474,-130.447 856.108,-137.254"/>
</g>
<!-- Node9 -->
<g id="node9" class="node"><title>Node9</title>
<g id="a_node9"><a xlink:href="_signable_8h.html" target="_top" xlink:title=" ">
<polygon fill="white" stroke="black" points="842.5,-56.5 842.5,-75.5 958.5,-75.5 958.5,-56.5 842.5,-56.5"/>
<text text-anchor="middle" x="900.5" y="-63.5" font-family="Helvetica,sans-Serif" font-size="10.00">Cpl/System/Signable.h</text>
</a>
</g>
</g>
<!-- Node5&#45;&gt;Node9 -->
<g id="edge10" class="edge"><title>Node5&#45;&gt;Node9</title>
<path fill="none" stroke="midnightblue" d="M693.155,-168.368C732.423,-149.171 827.187,-102.842 873.758,-80.074"/>
<polygon fill="midnightblue" stroke="midnightblue" points="875.48,-83.1279 882.927,-75.5914 872.406,-76.8392 875.48,-83.1279"/>
</g>
<!-- Node11 -->
<g id="node11" class="node"><title>Node11</title>
<g id="a_node11"><a xlink:href="_event_flag_8h.html" target="_top" xlink:title=" ">
<polygon fill="white" stroke="black" points="437,-56.5 437,-75.5 560,-75.5 560,-56.5 437,-56.5"/>
<text text-anchor="middle" x="498.5" y="-63.5" font-family="Helvetica,sans-Serif" font-size="10.00">Cpl/System/EventFlag.h</text>
</a>
</g>
</g>
<!-- Node5&#45;&gt;Node11 -->
<g id="edge11" class="edge"><title>Node5&#45;&gt;Node11</title>
<path fill="none" stroke="midnightblue" d="M658.346,-168.39C641.346,-159.697 614.706,-145.642 592.5,-132 566.204,-115.845 537.16,-95.3248 518.415,-81.7082"/>
<polygon fill="midnightblue" stroke="midnightblue" points="520.236,-78.7039 510.098,-75.6276 516.105,-84.3548 520.236,-78.7039"/>
</g>
<!-- Node14 -->
<g id="node14" class="node"><title>Node14</title>
<g id="a_node14"><a xlink:href="_shared_event_handler_8h.html" target="_top" xlink:title=" ">
<polygon fill="white" stroke="black" points="376.5,-112.5 376.5,-131.5 544.5,-131.5 544.5,-112.5 376.5,-112.5"/>
<text text-anchor="middle" x="460.5" y="-119.5" font-family="Helvetica,sans-Serif" font-size="10.00">Cpl/System/SharedEventHandler.h</text>
</a>
</g>
</g>
<!-- Node5&#45;&gt;Node14 -->
<g id="edge14" class="edge"><title>Node5&#45;&gt;Node14</title>
<path fill="none" stroke="midnightblue" d="M641.433,-168.444C604.32,-159.122 544.839,-144.183 504.285,-133.997"/>
<polygon fill="midnightblue" stroke="midnightblue" points="504.959,-130.558 494.408,-131.516 503.254,-137.347 504.959,-130.558"/>
</g>
<!-- Node15 -->
<g id="node15" class="node"><title>Node15</title>
<g id="a_node15"><a xlink:href="_timer_manager_8h.html" target="_top" xlink:title=" ">
<polygon fill="white" stroke="black" points="601,-112.5 601,-131.5 742,-131.5 742,-112.5 601,-112.5"/>
<text text-anchor="middle" x="671.5" y="-119.5" font-family="Helvetica,sans-Serif" font-size="10.00">Cpl/System/TimerManager.h</text>
</a>
</g>
</g>
<!-- Node5&#45;&gt;Node15 -->
<g id="edge16" class="edge"><title>Node5&#45;&gt;Node15</title>
<path fill="none" stroke="midnightblue" d="M674.839,-168.083C674.315,-161.006 673.564,-150.861 672.906,-141.986"/>
<polygon fill="midnightblue" stroke="midnightblue" points="676.377,-141.465 672.148,-131.751 669.397,-141.982 676.377,-141.465"/>
</g>
<!-- Node8 -->
<g id="node8" class="node"><title>Node8</title>
<g id="a_node8"><a xlink:title=" ">
<polygon fill="white" stroke="#bfbfbf" points="1110,-56.5 1110,-75.5 1187,-75.5 1187,-56.5 1110,-56.5"/>
<text text-anchor="middle" x="1148.5" y="-63.5" font-family="Helvetica,sans-Serif" font-size="10.00">colony_map.h</text>
</a>
</g>
</g>
<!-- Node7&#45;&gt;Node8 -->
<g id="edge7" class="edge"><title>Node7&#45;&gt;Node8</title>
<path fill="none" stroke="midnightblue" d="M939.796,-112.444C983.187,-102.996 1053.08,-87.7764 1099.89,-77.5854"/>
<polygon fill="midnightblue" stroke="midnightblue" points="1100.77,-80.9751 1109.8,-75.4275 1099.28,-74.1353 1100.77,-80.9751"/>
</g>
<!-- Node7&#45;&gt;Node9 -->
<g id="edge8" class="edge"><title>Node7&#45;&gt;Node9</title>
<path fill="none" stroke="midnightblue" d="M900.5,-112.083C900.5,-105.006 900.5,-94.8611 900.5,-85.9865"/>
<polygon fill="midnightblue" stroke="midnightblue" points="904,-85.751 900.5,-75.7511 897,-85.7511 904,-85.751"/>
</g>
<!-- Node10 -->
<g id="node10" class="node"><title>Node10</title>
<g id="a_node10"><a xlink:href="_item_8h.html" target="_top" xlink:title=" ">
<polygon fill="white" stroke="black" points="584.5,-0.5 584.5,-19.5 690.5,-19.5 690.5,-0.5 584.5,-0.5"/>
<text text-anchor="middle" x="637.5" y="-7.5" font-family="Helvetica,sans-Serif" font-size="10.00">Cpl/Container/Item.h</text>
</a>
</g>
</g>
<!-- Node9&#45;&gt;Node10 -->
<g id="edge9" class="edge"><title>Node9&#45;&gt;Node10</title>
<path fill="none" stroke="midnightblue" d="M858.827,-56.4435C812.755,-46.9839 738.504,-31.7384 688.869,-21.5472"/>
<polygon fill="midnightblue" stroke="midnightblue" points="689.478,-18.0993 678.978,-19.5164 688.07,-24.9563 689.478,-18.0993"/>
</g>
<!-- Node12 -->
<g id="node12" class="node"><title>Node12</title>
<g id="a_node12"><a xlink:title=" ">
<polygon fill="white" stroke="#bfbfbf" points="456,-0.5 456,-19.5 541,-19.5 541,-0.5 456,-0.5"/>
<text text-anchor="middle" x="498.5" y="-7.5" font-family="Helvetica,sans-Serif" font-size="10.00">colony_config.h</text>
</a>
</g>
</g>
<!-- Node11&#45;&gt;Node12 -->
<g id="edge12" class="edge"><title>Node11&#45;&gt;Node12</title>
<path fill="none" stroke="midnightblue" d="M498.5,-56.083C498.5,-49.0059 498.5,-38.8611 498.5,-29.9865"/>
<polygon fill="midnightblue" stroke="midnightblue" points="502,-29.751 498.5,-19.7511 495,-29.7511 502,-29.751"/>
</g>
<!-- Node13 -->
<g id="node13" class="node"><title>Node13</title>
<g id="a_node13"><a xlink:title=" ">
<polygon fill="white" stroke="#bfbfbf" points="1008,-0.5 1008,-19.5 1057,-19.5 1057,-0.5 1008,-0.5"/>
<text text-anchor="middle" x="1032.5" y="-7.5" font-family="Helvetica,sans-Serif" font-size="10.00">stdint.h</text>
</a>
</g>
</g>
<!-- Node11&#45;&gt;Node13 -->
<g id="edge13" class="edge"><title>Node11&#45;&gt;Node13</title>
<path fill="none" stroke="midnightblue" d="M560.06,-57.0849C563.252,-56.7095 566.413,-56.3456 569.5,-56 729.323,-38.1074 920.655,-20.8225 997.77,-14.0262"/>
<polygon fill="midnightblue" stroke="midnightblue" points="998.224,-17.5 1007.88,-13.1379 997.611,-10.5269 998.224,-17.5"/>
</g>
<!-- Node14&#45;&gt;Node11 -->
<g id="edge15" class="edge"><title>Node14&#45;&gt;Node11</title>
<path fill="none" stroke="midnightblue" d="M466.775,-112.083C472.142,-104.455 480.018,-93.2645 486.579,-83.9408"/>
<polygon fill="midnightblue" stroke="midnightblue" points="489.449,-85.9434 492.342,-75.7511 483.725,-81.9149 489.449,-85.9434"/>
</g>
<!-- Node16 -->
<g id="node16" class="node"><title>Node16</title>
<g id="a_node16"><a xlink:href="_counter___8h.html" target="_top" xlink:title=" ">
<polygon fill="white" stroke="black" points="578.5,-56.5 578.5,-75.5 696.5,-75.5 696.5,-56.5 578.5,-56.5"/>
<text text-anchor="middle" x="637.5" y="-63.5" font-family="Helvetica,sans-Serif" font-size="10.00">Cpl/System/Counter_.h</text>
</a>
</g>
</g>
<!-- Node15&#45;&gt;Node16 -->
<g id="edge17" class="edge"><title>Node15&#45;&gt;Node16</title>
<path fill="none" stroke="midnightblue" d="M665.886,-112.083C661.133,-104.534 654.182,-93.4948 648.348,-84.2298"/>
<polygon fill="midnightblue" stroke="midnightblue" points="651.3,-82.3486 643.01,-75.7511 645.376,-86.0783 651.3,-82.3486"/>
</g>
<!-- Node15&#45;&gt;Node17 -->
<g id="edge19" class="edge"><title>Node15&#45;&gt;Node17</title>
<path fill="none" stroke="midnightblue" d="M687.245,-112.324C702.819,-103.743 726.877,-90.486 744.959,-80.5224"/>
<polygon fill="midnightblue" stroke="midnightblue" points="746.724,-83.546 753.794,-75.6545 743.346,-77.4152 746.724,-83.546"/>
</g>
<!-- Node16&#45;&gt;Node10 -->
<g id="edge18" class="edge"><title>Node16&#45;&gt;Node10</title>
<path fill="none" stroke="midnightblue" d="M637.5,-56.083C637.5,-49.0059 637.5,-38.8611 637.5,-29.9865"/>
<polygon fill="midnightblue" stroke="midnightblue" points="641,-29.751 637.5,-19.7511 634,-29.7511 641,-29.751"/>
</g>
<!-- Node18&#45;&gt;Node6 -->
<g id="edge22" class="edge"><title>Node18&#45;&gt;Node6</title>
<path fill="none" stroke="midnightblue" d="M1193.98,-168.444C1163.43,-159.28 1114.79,-144.688 1080.9,-134.519"/>
<polygon fill="midnightblue" stroke="midnightblue" points="1081.47,-131.038 1070.89,-131.516 1079.46,-137.742 1081.47,-131.038"/>
</g>
<!-- Node18&#45;&gt;Node8 -->
<g id="edge21" class="edge"><title>Node18&#45;&gt;Node8</title>
<path fill="none" stroke="midnightblue" d="M1268.48,-168.417C1309.21,-158.741 1359.01,-140.53 1336.5,-112 1319.44,-90.3691 1246.93,-77.9741 1197.11,-71.8657"/>
<polygon fill="midnightblue" stroke="midnightblue" points="1197.51,-68.3881 1187.17,-70.6918 1196.69,-75.3398 1197.51,-68.3881"/>
</g>
<!-- Node18&#45;&gt;Node9 -->
<g id="edge23" class="edge"><title>Node18&#45;&gt;Node9</title>
<path fill="none" stroke="midnightblue" d="M1248.55,-168.462C1279.48,-157.008 1324.42,-135.383 1303.5,-112 1281.65,-87.5697 1078.29,-74.8688 969.094,-69.761"/>
<polygon fill="midnightblue" stroke="midnightblue" points="968.98,-66.2522 958.83,-69.2903 968.659,-73.2448 968.98,-66.2522"/>
</g>
<!-- Node19 -->
<g id="node19" class="node"><title>Node19</title>
<g id="a_node19"><a xlink:href="_traverser_8h.html" target="_top" xlink:title=" ">
<polygon fill="white" stroke="black" points="1120.5,-112.5 1120.5,-131.5 1228.5,-131.5 1228.5,-112.5 1120.5,-112.5"/>
<text text-anchor="middle" x="1174.5" y="-119.5" font-family="Helvetica,sans-Serif" font-size="10.00">Cpl/Type/Traverser.h</text>
</a>
</g>
</g>
<!-- Node18&#45;&gt;Node19 -->
<g id="edge24" class="edge"><title>Node18&#45;&gt;Node19</title>
<path fill="none" stroke="midnightblue" d="M1214.57,-168.083C1207.65,-160.298 1197.43,-148.801 1189.05,-139.367"/>
<polygon fill="midnightblue" stroke="midnightblue" points="1191.54,-136.9 1182.28,-131.751 1186.31,-141.55 1191.54,-136.9"/>
</g>
<!-- Node20 -->
<g id="node20" class="node"><title>Node20</title>
<g id="a_node20"><a xlink:title=" ">
<polygon fill="white" stroke="#bfbfbf" points="1246.5,-112.5 1246.5,-131.5 1294.5,-131.5 1294.5,-112.5 1246.5,-112.5"/>
<text text-anchor="middle" x="1270.5" y="-119.5" font-family="Helvetica,sans-Serif" font-size="10.00">stdlib.h</text>
</a>
</g>
</g>
<!-- Node18&#45;&gt;Node20 -->
<g id="edge25" class="edge"><title>Node18&#45;&gt;Node20</title>
<path fill="none" stroke="midnightblue" d="M1230.43,-168.083C1237.35,-160.298 1247.57,-148.801 1255.95,-139.367"/>
<polygon fill="midnightblue" stroke="midnightblue" points="1258.69,-141.55 1262.72,-131.751 1253.46,-136.9 1258.69,-141.55"/>
</g>
<!-- Node21&#45;&gt;Node10 -->
<g id="edge28" class="edge"><title>Node21&#45;&gt;Node10</title>
<path fill="none" stroke="midnightblue" d="M1270.82,-60.2788C1140.3,-50.1228 833.938,-26.2848 700.957,-15.9376"/>
<polygon fill="midnightblue" stroke="midnightblue" points="701.165,-12.4432 690.923,-15.1568 700.622,-19.4221 701.165,-12.4432"/>
</g>
<!-- Node21&#45;&gt;Node13 -->
<g id="edge29" class="edge"><title>Node21&#45;&gt;Node13</title>
<path fill="none" stroke="midnightblue" d="M1284.12,-56.4435C1223.76,-45.5422 1120.86,-26.9572 1067.26,-17.2783"/>
<polygon fill="midnightblue" stroke="midnightblue" points="1067.69,-13.7993 1057.23,-15.4662 1066.45,-20.6879 1067.69,-13.7993"/>
</g>
<!-- Node22&#45;&gt;Node21 -->
<g id="edge31" class="edge"><title>Node22&#45;&gt;Node21</title>
<path fill="none" stroke="midnightblue" d="M1481.35,-168.393C1467.22,-155.34 1438.96,-130.139 1412.5,-112 1395.09,-100.063 1374.24,-88.538 1358.05,-80.1402"/>
<polygon fill="midnightblue" stroke="midnightblue" points="1359.62,-77.0114 1349.13,-75.5776 1356.44,-83.2447 1359.62,-77.0114"/>
</g>
<!-- Node23&#45;&gt;Node5 -->
<g id="edge38" class="edge"><title>Node23&#45;&gt;Node5</title>
<path fill="none" stroke="midnightblue" d="M528.229,-224.444C557.926,-215.28 605.216,-200.688 638.169,-190.519"/>
<polygon fill="midnightblue" stroke="midnightblue" points="639.377,-193.809 647.9,-187.516 637.313,-187.121 639.377,-193.809"/>
</g>
<!-- Node24 -->
<g id="node24" class="node"><title>Node24</title>
<g id="a_node24"><a xlink:href="_post_api_8h.html" target="_top" xlink:title=" ">
<polygon fill="white" stroke="black" points="229,-112.5 229,-131.5 320,-131.5 320,-112.5 229,-112.5"/>
<text text-anchor="middle" x="274.5" y="-119.5" font-family="Helvetica,sans-Serif" font-size="10.00">Cpl/Itc/PostApi.h</text>
</a>
</g>
</g>
<!-- Node23&#45;&gt;Node24 -->
<g id="edge33" class="edge"><title>Node23&#45;&gt;Node24</title>
<path fill="none" stroke="midnightblue" d="M488.622,-224.322C469.938,-210.95 432.227,-185.069 397.5,-168 370.059,-154.512 337.508,-142.778 312.787,-134.676"/>
<polygon fill="midnightblue" stroke="midnightblue" points="313.64,-131.274 303.049,-131.539 311.494,-137.937 313.64,-131.274"/>
</g>
<!-- Node26 -->
<g id="node26" class="node"><title>Node26</title>
<g id="a_node26"><a xlink:href="_s_list_8h.html" target="_top" xlink:title=" ">
<polygon fill="white" stroke="black" points="446,-168.5 446,-187.5 555,-187.5 555,-168.5 446,-168.5"/>
<text text-anchor="middle" x="500.5" y="-175.5" font-family="Helvetica,sans-Serif" font-size="10.00">Cpl/Container/SList.h</text>
</a>
</g>
</g>
<!-- Node23&#45;&gt;Node26 -->
<g id="edge36" class="edge"><title>Node23&#45;&gt;Node26</title>
<path fill="none" stroke="midnightblue" d="M500.5,-224.083C500.5,-217.006 500.5,-206.861 500.5,-197.986"/>
<polygon fill="midnightblue" stroke="midnightblue" points="504,-197.751 500.5,-187.751 497,-197.751 504,-197.751"/>
</g>
<!-- Node25 -->
<g id="node25" class="node"><title>Node25</title>
<g id="a_node25"><a xlink:href="_message_8h.html" target="_top" xlink:title=" ">
<polygon fill="white" stroke="black" points="224.5,-56.5 224.5,-75.5 320.5,-75.5 320.5,-56.5 224.5,-56.5"/>
<text text-anchor="middle" x="272.5" y="-63.5" font-family="Helvetica,sans-Serif" font-size="10.00">Cpl/Itc/Message.h</text>
</a>
</g>
</g>
<!-- Node24&#45;&gt;Node25 -->
<g id="edge34" class="edge"><title>Node24&#45;&gt;Node25</title>
<path fill="none" stroke="midnightblue" d="M274.17,-112.083C273.908,-105.006 273.532,-94.8611 273.203,-85.9865"/>
<polygon fill="midnightblue" stroke="midnightblue" points="276.692,-85.6147 272.824,-75.7511 269.697,-85.8738 276.692,-85.6147"/>
</g>
<!-- Node25&#45;&gt;Node10 -->
<g id="edge35" class="edge"><title>Node25&#45;&gt;Node10</title>
<path fill="none" stroke="midnightblue" d="M320.593,-57.8849C385.631,-48.2628 501.774,-31.08 573.946,-20.4025"/>
<polygon fill="midnightblue" stroke="midnightblue" points="574.884,-23.802 584.264,-18.876 573.859,-16.8773 574.884,-23.802"/>
</g>
<!-- Node26&#45;&gt;Node10 -->
<g id="edge37" class="edge"><title>Node26&#45;&gt;Node10</title>
<path fill="none" stroke="midnightblue" d="M458.854,-168.446C424.05,-160.352 378.405,-147.202 367.5,-132 362.319,-124.777 363.957,-120.152 367.5,-112 382.038,-78.5453 395.162,-72.877 427.5,-56 452.601,-42.8998 521.831,-29.5051 573.995,-20.7761"/>
<polygon fill="midnightblue" stroke="midnightblue" points="574.886,-24.1765 584.182,-19.094 573.745,-17.27 574.886,-24.1765"/>
</g>
<!-- Node28 -->
<g id="node28" class="node"><title>Node28</title>
<g id="a_node28"><a xlink:href="_open_sync_8h.html" target="_top" xlink:title=" ">
<polygon fill="white" stroke="black" points="249.5,-392.5 249.5,-411.5 351.5,-411.5 351.5,-392.5 249.5,-392.5"/>
<text text-anchor="middle" x="300.5" y="-399.5" font-family="Helvetica,sans-Serif" font-size="10.00">Cpl/Itc/OpenSync.h</text>
</a>
</g>
</g>
<!-- Node27&#45;&gt;Node28 -->
<g id="edge41" class="edge"><title>Node27&#45;&gt;Node28</title>
<path fill="none" stroke="midnightblue" d="M300.5,-448.083C300.5,-441.006 300.5,-430.861 300.5,-421.986"/>
<polygon fill="midnightblue" stroke="midnightblue" points="304,-421.751 300.5,-411.751 297,-421.751 304,-421.751"/>
</g>
<!-- Node37 -->
<g id="node37" class="node"><title>Node37</title>
<g id="a_node37"><a xlink:href="_close_request_8h.html" target="_top" xlink:title=" ">
<polygon fill="white" stroke="black" points="349,-336.5 349,-355.5 466,-355.5 466,-336.5 349,-336.5"/>
<text text-anchor="middle" x="407.5" y="-343.5" font-family="Helvetica,sans-Serif" font-size="10.00">Cpl/Itc/CloseRequest.h</text>
</a>
</g>
</g>
<!-- Node27&#45;&gt;Node37 -->
<g id="edge56" class="edge"><title>Node27&#45;&gt;Node37</title>
<path fill="none" stroke="midnightblue" d="M314.296,-448.397C327.097,-440.029 346.263,-426.488 360.5,-412 374.934,-397.312 388.375,-377.905 397.154,-364.131"/>
<polygon fill="midnightblue" stroke="midnightblue" points="400.136,-365.963 402.442,-355.622 394.191,-362.268 400.136,-365.963"/>
</g>
<!-- Node38 -->
<g id="node38" class="node"><title>Node38</title>
<g id="a_node38"><a xlink:href="_close_api_8h.html" target="_top" xlink:title=" ">
<polygon fill="white" stroke="black" points="136,-392.5 136,-411.5 231,-411.5 231,-392.5 136,-392.5"/>
<text text-anchor="middle" x="183.5" y="-399.5" font-family="Helvetica,sans-Serif" font-size="10.00">Cpl/Itc/CloseApi.h</text>
</a>
</g>
</g>
<!-- Node27&#45;&gt;Node38 -->
<g id="edge60" class="edge"><title>Node27&#45;&gt;Node38</title>
<path fill="none" stroke="midnightblue" d="M281.961,-448.444C262.877,-439.636 232.925,-425.812 211.064,-415.722"/>
<polygon fill="midnightblue" stroke="midnightblue" points="212.499,-412.529 201.952,-411.516 209.565,-418.885 212.499,-412.529"/>
</g>
<!-- Node29 -->
<g id="node29" class="node"><title>Node29</title>
<g id="a_node29"><a xlink:href="_open_api_8h.html" target="_top" xlink:title=" ">
<polygon fill="white" stroke="black" points="236.5,-336.5 236.5,-355.5 330.5,-355.5 330.5,-336.5 236.5,-336.5"/>
<text text-anchor="middle" x="283.5" y="-343.5" font-family="Helvetica,sans-Serif" font-size="10.00">Cpl/Itc/OpenApi.h</text>
</a>
</g>
</g>
<!-- Node28&#45;&gt;Node29 -->
<g id="edge42" class="edge"><title>Node28&#45;&gt;Node29</title>
<path fill="none" stroke="midnightblue" d="M297.693,-392.083C295.415,-384.849 292.129,-374.409 289.292,-365.397"/>
<polygon fill="midnightblue" stroke="midnightblue" points="292.596,-364.239 286.255,-355.751 285.919,-366.341 292.596,-364.239"/>
</g>
<!-- Node30 -->
<g id="node30" class="node"><title>Node30</title>
<g id="a_node30"><a xlink:href="_open_request_8h.html" target="_top" xlink:title=" ">
<polygon fill="white" stroke="black" points="102.5,-336.5 102.5,-355.5 218.5,-355.5 218.5,-336.5 102.5,-336.5"/>
<text text-anchor="middle" x="160.5" y="-343.5" font-family="Helvetica,sans-Serif" font-size="10.00">Cpl/Itc/OpenRequest.h</text>
</a>
</g>
</g>
<!-- Node28&#45;&gt;Node30 -->
<g id="edge43" class="edge"><title>Node28&#45;&gt;Node30</title>
<path fill="none" stroke="midnightblue" d="M278.317,-392.444C255.072,-383.478 218.351,-369.314 192.085,-359.183"/>
<polygon fill="midnightblue" stroke="midnightblue" points="193.169,-355.85 182.58,-355.516 190.65,-362.381 193.169,-355.85"/>
</g>
<!-- Node31 -->
<g id="node31" class="node"><title>Node31</title>
<g id="a_node31"><a xlink:href="_request_message_8h.html" target="_top" xlink:title=" ">
<polygon fill="white" stroke="black" points="163.5,-224.5 163.5,-243.5 295.5,-243.5 295.5,-224.5 163.5,-224.5"/>
<text text-anchor="middle" x="229.5" y="-231.5" font-family="Helvetica,sans-Serif" font-size="10.00">Cpl/Itc/RequestMessage.h</text>
</a>
</g>
</g>
<!-- Node30&#45;&gt;Node31 -->
<g id="edge44" class="edge"><title>Node30&#45;&gt;Node31</title>
<path fill="none" stroke="midnightblue" d="M164.042,-336.246C169.394,-323.432 180.229,-299.027 192.5,-280 199.078,-269.8 207.619,-259.275 214.838,-250.971"/>
<polygon fill="midnightblue" stroke="midnightblue" points="217.454,-253.296 221.493,-243.501 212.228,-248.639 217.454,-253.296"/>
</g>
<!-- Node34 -->
<g id="node34" class="node"><title>Node34</title>
<g id="a_node34"><a xlink:href="_s_a_p_8h.html" target="_top" xlink:title=" ">
<polygon fill="white" stroke="black" points="312,-168.5 312,-187.5 389,-187.5 389,-168.5 312,-168.5"/>
<text text-anchor="middle" x="350.5" y="-175.5" font-family="Helvetica,sans-Serif" font-size="10.00">Cpl/Itc/SAP.h</text>
</a>
</g>
</g>
<!-- Node30&#45;&gt;Node34 -->
<g id="edge55" class="edge"><title>Node30&#45;&gt;Node34</title>
<path fill="none" stroke="midnightblue" d="M156.549,-336.205C147.451,-314.471 127.77,-257.563 154.5,-224 159.155,-218.155 245.26,-199.999 301.781,-188.614"/>
<polygon fill="midnightblue" stroke="midnightblue" points="302.501,-192.039 311.617,-186.641 301.124,-185.176 302.501,-192.039"/>
</g>
<!-- Node35 -->
<g id="node35" class="node"><title>Node35</title>
<g id="a_node35"><a xlink:href="_response_message_8h.html" target="_top" xlink:title=" ">
<polygon fill="white" stroke="black" points="201.5,-280.5 201.5,-299.5 341.5,-299.5 341.5,-280.5 201.5,-280.5"/>
<text text-anchor="middle" x="271.5" y="-287.5" font-family="Helvetica,sans-Serif" font-size="10.00">Cpl/Itc/ResponseMessage.h</text>
</a>
</g>
</g>
<!-- Node30&#45;&gt;Node35 -->
<g id="edge50" class="edge"><title>Node30&#45;&gt;Node35</title>
<path fill="none" stroke="midnightblue" d="M178.334,-336.324C196.216,-327.625 223.975,-314.12 244.546,-304.113"/>
<polygon fill="midnightblue" stroke="midnightblue" points="246.249,-307.177 253.71,-299.655 243.187,-300.882 246.249,-307.177"/>
</g>
<!-- Node32 -->
<g id="node32" class="node"><title>Node32</title>
<g id="a_node32"><a xlink:href="_service_message_8h.html" target="_top" xlink:title=" ">
<polygon fill="white" stroke="black" points="0,-168.5 0,-187.5 129,-187.5 129,-168.5 0,-168.5"/>
<text text-anchor="middle" x="64.5" y="-175.5" font-family="Helvetica,sans-Serif" font-size="10.00">Cpl/Itc/ServiceMessage.h</text>
</a>
</g>
</g>
<!-- Node31&#45;&gt;Node32 -->
<g id="edge45" class="edge"><title>Node31&#45;&gt;Node32</title>
<path fill="none" stroke="midnightblue" d="M203.355,-224.444C175.477,-215.32 131.152,-200.813 100.1,-190.651"/>
<polygon fill="midnightblue" stroke="midnightblue" points="101.115,-187.3 90.5224,-187.516 98.9377,-193.953 101.115,-187.3"/>
</g>
<!-- Node31&#45;&gt;Node34 -->
<g id="edge48" class="edge"><title>Node31&#45;&gt;Node34</title>
<path fill="none" stroke="midnightblue" d="M248.673,-224.444C268.409,-215.636 299.385,-201.812 321.993,-191.722"/>
<polygon fill="midnightblue" stroke="midnightblue" points="323.711,-194.788 331.417,-187.516 320.859,-188.396 323.711,-194.788"/>
</g>
<!-- Node32&#45;&gt;Node25 -->
<g id="edge46" class="edge"><title>Node32&#45;&gt;Node25</title>
<path fill="none" stroke="midnightblue" d="M64.4298,-168.457C64.8023,-154.553 67.6505,-127.067 83.5,-112 102.158,-94.2637 165.76,-81.6796 214.077,-74.4093"/>
<polygon fill="midnightblue" stroke="midnightblue" points="214.745,-77.8489 224.133,-72.9387 213.732,-70.9226 214.745,-77.8489"/>
</g>
<!-- Node33 -->
<g id="node33" class="node"><title>Node33</title>
<g id="a_node33"><a xlink:href="_return_handler_8h.html" target="_top" xlink:title=" ">
<polygon fill="white" stroke="black" points="92.5,-112.5 92.5,-131.5 210.5,-131.5 210.5,-112.5 92.5,-112.5"/>
<text text-anchor="middle" x="151.5" y="-119.5" font-family="Helvetica,sans-Serif" font-size="10.00">Cpl/Itc/ReturnHandler.h</text>
</a>
</g>
</g>
<!-- Node32&#45;&gt;Node33 -->
<g id="edge47" class="edge"><title>Node32&#45;&gt;Node33</title>
<path fill="none" stroke="midnightblue" d="M78.4781,-168.324C92.0496,-159.9 112.88,-146.971 128.825,-137.074"/>
<polygon fill="midnightblue" stroke="midnightblue" points="130.906,-139.902 137.557,-131.655 127.214,-133.954 130.906,-139.902"/>
</g>
<!-- Node34&#45;&gt;Node24 -->
<g id="edge49" class="edge"><title>Node34&#45;&gt;Node24</title>
<path fill="none" stroke="midnightblue" d="M338.289,-168.324C326.724,-160.107 309.125,-147.602 295.339,-137.807"/>
<polygon fill="midnightblue" stroke="midnightblue" points="297.112,-134.773 286.933,-131.834 293.057,-140.479 297.112,-134.773"/>
</g>
<!-- Node35&#45;&gt;Node31 -->
<g id="edge54" class="edge"><title>Node35&#45;&gt;Node31</title>
<path fill="none" stroke="midnightblue" d="M264.565,-280.083C258.571,-272.377 249.748,-261.033 242.452,-251.653"/>
<polygon fill="midnightblue" stroke="midnightblue" points="245.209,-249.496 236.306,-243.751 239.683,-253.793 245.209,-249.496"/>
</g>
<!-- Node36 -->
<g id="node36" class="node"><title>Node36</title>
<g id="a_node36"><a xlink:href="_async_return_handler_8h.html" target="_top" xlink:title=" ">
<polygon fill="white" stroke="black" points="147.5,-168.5 147.5,-187.5 293.5,-187.5 293.5,-168.5 147.5,-168.5"/>
<text text-anchor="middle" x="220.5" y="-175.5" font-family="Helvetica,sans-Serif" font-size="10.00">Cpl/Itc/AsyncReturnHandler.h</text>
</a>
</g>
</g>
<!-- Node35&#45;&gt;Node36 -->
<g id="edge51" class="edge"><title>Node35&#45;&gt;Node36</title>
<path fill="none" stroke="midnightblue" d="M281.593,-280.383C295.134,-267.74 316.202,-243.545 304.5,-224 295.351,-208.719 279.041,-198.332 263.212,-191.425"/>
<polygon fill="midnightblue" stroke="midnightblue" points="264.072,-188.001 253.486,-187.562 261.488,-194.507 264.072,-188.001"/>
</g>
<!-- Node36&#45;&gt;Node24 -->
<g id="edge53" class="edge"><title>Node36&#45;&gt;Node24</title>
<path fill="none" stroke="midnightblue" d="M229.417,-168.083C237.28,-160.22 248.931,-148.569 258.419,-139.081"/>
<polygon fill="midnightblue" stroke="midnightblue" points="261.153,-141.297 265.749,-131.751 256.203,-136.347 261.153,-141.297"/>
</g>
<!-- Node36&#45;&gt;Node33 -->
<g id="edge52" class="edge"><title>Node36&#45;&gt;Node33</title>
<path fill="none" stroke="midnightblue" d="M209.414,-168.324C199.014,-160.185 183.239,-147.839 170.778,-138.087"/>
<polygon fill="midnightblue" stroke="midnightblue" points="172.82,-135.241 162.788,-131.834 168.506,-140.753 172.82,-135.241"/>
</g>
<!-- Node37&#45;&gt;Node31 -->
<g id="edge57" class="edge"><title>Node37&#45;&gt;Node31</title>
<path fill="none" stroke="midnightblue" d="M401.906,-336.186C392.737,-322.395 373.239,-295.672 350.5,-280 328.055,-264.53 299.626,-253.603 275.964,-246.393"/>
<polygon fill="midnightblue" stroke="midnightblue" points="276.727,-242.969 266.147,-243.528 274.766,-249.689 276.727,-242.969"/>
</g>
<!-- Node37&#45;&gt;Node34 -->
<g id="edge59" class="edge"><title>Node37&#45;&gt;Node34</title>
<path fill="none" stroke="midnightblue" d="M404.435,-336.075C395.424,-309.832 368.886,-232.545 356.721,-197.117"/>
<polygon fill="midnightblue" stroke="midnightblue" points="360,-195.889 353.442,-187.568 353.379,-198.163 360,-195.889"/>
</g>
<!-- Node37&#45;&gt;Node35 -->
<g id="edge58" class="edge"><title>Node37&#45;&gt;Node35</title>
<path fill="none" stroke="midnightblue" d="M385.95,-336.444C363.469,-327.517 328.012,-313.439 302.52,-303.317"/>
<polygon fill="midnightblue" stroke="midnightblue" points="303.535,-299.954 292.949,-299.516 300.951,-306.46 303.535,-299.954"/>
</g>
</g>
</svg>
