<?xml version="1.0" encoding="UTF-8" standalone="no"?>
<!DOCTYPE svg PUBLIC "-//W3C//DTD SVG 1.1//EN"
 "http://www.w3.org/Graphics/SVG/1.1/DTD/svg11.dtd">
<!-- Generated by graphviz version 10.0.1 (20240210.2158)
 -->
<!-- Title: Cpl/Persistent/RecordServer.h Pages: 1 -->
<svg width="415pt" height="220pt"
 viewBox="0.00 0.00 415.14 220.00" xmlns="http://www.w3.org/2000/svg" xmlns:xlink="http://www.w3.org/1999/xlink">
<g id="graph0" class="graph" transform="scale(1 1) rotate(0) translate(4 216)">
<title>Cpl/Persistent/RecordServer.h</title>
<!-- Node1 -->
<g id="Node000001" class="node">
<title>Node1</title>
<g id="a_Node000001"><a xlink:title=" ">
<polygon fill="#999999" stroke="#666666" points="379.25,-212 232.75,-212 232.75,-192 379.25,-192 379.25,-212"/>
<text text-anchor="middle" x="306" y="-198.5" font-family="Helvetica,sans-Serif" font-size="10.00">Cpl/Persistent/RecordServer.h</text>
</a>
</g>
</g>
<!-- Node2 -->
<g id="Node000002" class="node">
<title>Node2</title>
<g id="a_Node000002"><a xlink:href="_dm_2_persistent_2_record_8h.html" target="_top" xlink:title=" ">
<polygon fill="white" stroke="#666666" points="326.75,-156 189.25,-156 189.25,-136 326.75,-136 326.75,-156"/>
<text text-anchor="middle" x="258" y="-142.5" font-family="Helvetica,sans-Serif" font-size="10.00">Cpl/Dm/Persistent/Record.h</text>
</a>
</g>
</g>
<!-- Node1&#45;&gt;Node2 -->
<g id="edge1_Node000001_Node000002" class="edge">
<title>Node1&#45;&gt;Node2</title>
<g id="a_edge1_Node000001_Node000002"><a xlink:title=" ">
<path fill="none" stroke="#63b8ff" d="M290,-183C282.05,-174.06 272.78,-163.62 266.27,-156.3"/>
<polygon fill="#63b8ff" stroke="#63b8ff" points="287.37,-185.31 296.63,-190.46 292.61,-180.66 287.37,-185.31"/>
</a>
</g>
</g>
<!-- Node4 -->
<g id="Node000004" class="node">
<title>Node4</title>
<g id="a_Node000004"><a xlink:href="statics___8h.html" target="_top" xlink:title="This file defines/creates persistent records and record server for the Thermostat simulation.">
<polygon fill="white" stroke="#666666" points="322,-32 204,-32 204,0 322,0 322,-32"/>
<text text-anchor="start" x="212" y="-18.5" font-family="Helvetica,sans-Serif" font-size="10.00">Storm/Thermostat/Main</text>
<text text-anchor="middle" x="263" y="-6.5" font-family="Helvetica,sans-Serif" font-size="10.00">/_simulation/statics_.h</text>
</a>
</g>
</g>
<!-- Node1&#45;&gt;Node4 -->
<g id="edge8_Node000001_Node000004" class="edge">
<title>Node1&#45;&gt;Node4</title>
<g id="a_edge8_Node000001_Node000004"><a xlink:title=" ">
<path fill="none" stroke="#63b8ff" d="M330.91,-185.49C367.53,-160.71 428.54,-110.62 399,-68 381.69,-43.02 350.55,-30.26 322.42,-23.75"/>
<polygon fill="#63b8ff" stroke="#63b8ff" points="329.45,-182.26 323.02,-190.67 333.3,-188.11 329.45,-182.26"/>
</a>
</g>
</g>
<!-- Node3 -->
<g id="Node000003" class="node">
<title>Node3</title>
<g id="a_Node000003"><a xlink:href="_installer_record_8h_source.html" target="_top" xlink:title=" ">
<polygon fill="white" stroke="#666666" points="118,-100 0,-100 0,-68 118,-68 118,-100"/>
<text text-anchor="start" x="8" y="-86.5" font-family="Helvetica,sans-Serif" font-size="10.00">Storm/Thermostat/Main</text>
<text text-anchor="middle" x="59" y="-74.5" font-family="Helvetica,sans-Serif" font-size="10.00">/InstallerRecord.h</text>
</a>
</g>
</g>
<!-- Node2&#45;&gt;Node3 -->
<g id="edge2_Node000002_Node000003" class="edge">
<title>Node2&#45;&gt;Node3</title>
<g id="a_edge2_Node000002_Node000003"><a xlink:title=" ">
<path fill="none" stroke="#63b8ff" d="M216.1,-132.37C185.28,-123.08 143.22,-110.39 110.38,-100.49"/>
<polygon fill="#63b8ff" stroke="#63b8ff" points="214.87,-135.65 225.46,-135.19 216.89,-128.95 214.87,-135.65"/>
</a>
</g>
</g>
<!-- Node5 -->
<g id="Node000005" class="node">
<title>Node5</title>
<g id="a_Node000005"><a xlink:href="_run_time_record_8h_source.html" target="_top" xlink:title=" ">
<polygon fill="white" stroke="#666666" points="254,-100 136,-100 136,-68 254,-68 254,-100"/>
<text text-anchor="start" x="144" y="-86.5" font-family="Helvetica,sans-Serif" font-size="10.00">Storm/Thermostat/Main</text>
<text text-anchor="middle" x="195" y="-74.5" font-family="Helvetica,sans-Serif" font-size="10.00">/RunTimeRecord.h</text>
</a>
</g>
</g>
<!-- Node2&#45;&gt;Node5 -->
<g id="edge4_Node000002_Node000005" class="edge">
<title>Node2&#45;&gt;Node5</title>
<g id="a_edge4_Node000002_Node000005"><a xlink:title=" ">
<path fill="none" stroke="#63b8ff" d="M240.06,-127.92C230.87,-119.16 219.78,-108.6 210.9,-100.14"/>
<polygon fill="#63b8ff" stroke="#63b8ff" points="237.41,-130.22 247.06,-134.58 242.23,-125.15 237.41,-130.22"/>
</a>
</g>
</g>
<!-- Node6 -->
<g id="Node000006" class="node">
<title>Node6</title>
<g id="a_Node000006"><a xlink:href="_user_record_8h_source.html" target="_top" xlink:title=" ">
<polygon fill="white" stroke="#666666" points="390,-100 272,-100 272,-68 390,-68 390,-100"/>
<text text-anchor="start" x="280" y="-86.5" font-family="Helvetica,sans-Serif" font-size="10.00">Storm/Thermostat/Main</text>
<text text-anchor="middle" x="331" y="-74.5" font-family="Helvetica,sans-Serif" font-size="10.00">/UserRecord.h</text>
</a>
</g>
</g>
<!-- Node2&#45;&gt;Node6 -->
<g id="edge6_Node000002_Node000006" class="edge">
<title>Node2&#45;&gt;Node6</title>
<g id="a_edge6_Node000002_Node000006"><a xlink:title=" ">
<path fill="none" stroke="#63b8ff" d="M278.06,-128.51C288.75,-119.72 301.82,-108.98 312.3,-100.37"/>
<polygon fill="#63b8ff" stroke="#63b8ff" points="276.08,-125.61 270.58,-134.66 280.52,-131.02 276.08,-125.61"/>
</a>
</g>
</g>
<!-- Node3&#45;&gt;Node4 -->
<g id="edge3_Node000003_Node000004" class="edge">
<title>Node3&#45;&gt;Node4</title>
<g id="a_edge3_Node000003_Node000004"><a xlink:title=" ">
<path fill="none" stroke="#63b8ff" d="M117.47,-64.08C148.41,-54.07 185.93,-41.94 215.12,-32.49"/>
<polygon fill="#63b8ff" stroke="#63b8ff" points="116.71,-60.65 108.27,-67.06 118.86,-67.31 116.71,-60.65"/>
</a>
</g>
</g>
<!-- Node5&#45;&gt;Node4 -->
<g id="edge5_Node000005_Node000004" class="edge">
<title>Node5&#45;&gt;Node4</title>
<g id="a_edge5_Node000005_Node000004"><a xlink:title=" ">
<path fill="none" stroke="#63b8ff" d="M219,-59.71C228.4,-50.59 238.92,-40.37 247.31,-32.22"/>
<polygon fill="#63b8ff" stroke="#63b8ff" points="216.6,-57.16 211.86,-66.64 221.47,-62.18 216.6,-57.16"/>
</a>
</g>
</g>
<!-- Node6&#45;&gt;Node4 -->
<g id="edge7_Node000006_Node000004" class="edge">
<title>Node6&#45;&gt;Node4</title>
<g id="a_edge7_Node000006_Node000004"><a xlink:title=" ">
<path fill="none" stroke="#63b8ff" d="M307,-59.71C297.6,-50.59 287.08,-40.37 278.69,-32.22"/>
<polygon fill="#63b8ff" stroke="#63b8ff" points="304.53,-62.18 314.14,-66.64 309.4,-57.16 304.53,-62.18"/>
</a>
</g>
</g>
</g>
</svg>
