<?xml version="1.0" encoding="UTF-8" standalone="no"?>
<!DOCTYPE svg PUBLIC "-//W3C//DTD SVG 1.1//EN"
 "http://www.w3.org/Graphics/SVG/1.1/DTD/svg11.dtd">
<!-- Generated by graphviz version 10.0.1 (20240210.2158)
 -->
<!-- Title: Cpl/TShell/Restartable.h Pages: 1 -->
<svg width="777pt" height="420pt"
 viewBox="0.00 0.00 776.86 420.00" xmlns="http://www.w3.org/2000/svg" xmlns:xlink="http://www.w3.org/1999/xlink">
<g id="graph0" class="graph" transform="scale(1 1) rotate(0) translate(4 416)">
<title>Cpl/TShell/Restartable.h</title>
<!-- Node1 -->
<g id="Node000001" class="node">
<title>Node1</title>
<g id="a_Node000001"><a xlink:title=" ">
<polygon fill="#999999" stroke="#666666" points="618.62,-412 497.62,-412 497.62,-392 618.62,-392 618.62,-412"/>
<text text-anchor="middle" x="558.12" y="-398.5" font-family="Helvetica,sans-Serif" font-size="10.00">Cpl/TShell/Restartable.h</text>
</a>
</g>
</g>
<!-- Node2 -->
<g id="Node000002" class="node">
<title>Node2</title>
<g id="a_Node000002"><a xlink:href="_t_shell_2_stdio_8h.html" target="_top" xlink:title=" ">
<polygon fill="white" stroke="#666666" points="568.12,-356 474.12,-356 474.12,-336 568.12,-336 568.12,-356"/>
<text text-anchor="middle" x="521.12" y="-342.5" font-family="Helvetica,sans-Serif" font-size="10.00">Cpl/TShell/Stdio.h</text>
</a>
</g>
</g>
<!-- Node1&#45;&gt;Node2 -->
<g id="edge1_Node000001_Node000002" class="edge">
<title>Node1&#45;&gt;Node2</title>
<g id="a_edge1_Node000001_Node000002"><a xlink:title=" ">
<path fill="none" stroke="#63b8ff" d="M551.68,-391.59C546.8,-384.47 539.93,-374.45 533.95,-365.72"/>
<polygon fill="#63b8ff" stroke="#63b8ff" points="536.89,-363.82 528.35,-357.55 531.12,-367.77 536.89,-363.82"/>
</a>
</g>
</g>
<!-- Node19 -->
<g id="Node000019" class="node">
<title>Node19</title>
<g id="a_Node000019"><a xlink:href="_thread_8h.html" target="_top" xlink:title=" ">
<polygon fill="white" stroke="#666666" points="649.88,-300 542.38,-300 542.38,-280 649.88,-280 649.88,-300"/>
<text text-anchor="middle" x="596.12" y="-286.5" font-family="Helvetica,sans-Serif" font-size="10.00">Cpl/System/Thread.h</text>
</a>
</g>
</g>
<!-- Node1&#45;&gt;Node19 -->
<g id="edge30_Node000001_Node000019" class="edge">
<title>Node1&#45;&gt;Node19</title>
<g id="a_edge30_Node000001_Node000019"><a xlink:title=" ">
<path fill="none" stroke="#63b8ff" d="M562.37,-391.81C566.45,-382.81 572.63,-368.62 577.12,-356 582.38,-341.23 587.32,-324.2 590.84,-311.29"/>
<polygon fill="#63b8ff" stroke="#63b8ff" points="594.17,-312.39 593.36,-301.83 587.41,-310.59 594.17,-312.39"/>
</a>
</g>
</g>
<!-- Node3 -->
<g id="Node000003" class="node">
<title>Node3</title>
<g id="a_Node000003"><a xlink:href="_processor_api_8h.html" target="_top" xlink:title=" ">
<polygon fill="white" stroke="#666666" points="420.12,-300 290.12,-300 290.12,-280 420.12,-280 420.12,-300"/>
<text text-anchor="middle" x="355.12" y="-286.5" font-family="Helvetica,sans-Serif" font-size="10.00">Cpl/TShell/ProcessorApi.h</text>
</a>
</g>
</g>
<!-- Node2&#45;&gt;Node3 -->
<g id="edge2_Node000002_Node000003" class="edge">
<title>Node2&#45;&gt;Node3</title>
<g id="a_edge2_Node000002_Node000003"><a xlink:title=" ">
<path fill="none" stroke="#63b8ff" d="M492.21,-335.59C465.36,-326.86 425.13,-313.77 395.19,-304.03"/>
<polygon fill="#63b8ff" stroke="#63b8ff" points="396.3,-300.71 385.7,-300.95 394.13,-307.37 396.3,-300.71"/>
</a>
</g>
</g>
<!-- Node2&#45;&gt;Node19 -->
<g id="edge23_Node000002_Node000019" class="edge">
<title>Node2&#45;&gt;Node19</title>
<g id="a_edge23_Node000002_Node000019"><a xlink:title=" ">
<path fill="none" stroke="#63b8ff" d="M534.19,-335.59C545.09,-327.74 560.88,-316.38 573.78,-307.09"/>
<polygon fill="#63b8ff" stroke="#63b8ff" points="575.66,-310.05 581.73,-301.36 571.57,-304.37 575.66,-310.05"/>
</a>
</g>
</g>
<!-- Node4 -->
<g id="Node000004" class="node">
<title>Node4</title>
<g id="a_Node000004"><a xlink:href="_input_8h.html" target="_top" xlink:title=" ">
<polygon fill="white" stroke="#666666" points="391.62,-244 318.62,-244 318.62,-224 391.62,-224 391.62,-244"/>
<text text-anchor="middle" x="355.12" y="-230.5" font-family="Helvetica,sans-Serif" font-size="10.00">Cpl/Io/Input.h</text>
</a>
</g>
</g>
<!-- Node3&#45;&gt;Node4 -->
<g id="edge3_Node000003_Node000004" class="edge">
<title>Node3&#45;&gt;Node4</title>
<g id="a_edge3_Node000003_Node000004"><a xlink:title=" ">
<path fill="none" stroke="#63b8ff" d="M355.12,-279.59C355.12,-273.01 355.12,-263.96 355.12,-255.73"/>
<polygon fill="#63b8ff" stroke="#63b8ff" points="358.63,-255.81 355.13,-245.81 351.63,-255.81 358.63,-255.81"/>
</a>
</g>
</g>
<!-- Node18 -->
<g id="Node000018" class="node">
<title>Node18</title>
<g id="a_Node000018"><a xlink:href="_output_8h.html" target="_top" xlink:title=" ">
<polygon fill="white" stroke="#666666" points="300.75,-244 219.5,-244 219.5,-224 300.75,-224 300.75,-244"/>
<text text-anchor="middle" x="260.12" y="-230.5" font-family="Helvetica,sans-Serif" font-size="10.00">Cpl/Io/Output.h</text>
</a>
</g>
</g>
<!-- Node3&#45;&gt;Node18 -->
<g id="edge18_Node000003_Node000018" class="edge">
<title>Node3&#45;&gt;Node18</title>
<g id="a_edge18_Node000003_Node000018"><a xlink:title=" ">
<path fill="none" stroke="#63b8ff" d="M338.58,-279.59C324.23,-271.44 303.2,-259.48 286.52,-250"/>
<polygon fill="#63b8ff" stroke="#63b8ff" points="288.54,-247.13 278.12,-245.23 285.08,-253.21 288.54,-247.13"/>
</a>
</g>
</g>
<!-- Node5 -->
<g id="Node000005" class="node">
<title>Node5</title>
<g id="a_Node000005"><a xlink:href="_text_2_string_8h.html" target="_top" xlink:title=" ">
<polygon fill="white" stroke="#666666" points="253.5,-188 164.75,-188 164.75,-168 253.5,-168 253.5,-188"/>
<text text-anchor="middle" x="209.12" y="-174.5" font-family="Helvetica,sans-Serif" font-size="10.00">Cpl/Text/String.h</text>
</a>
</g>
</g>
<!-- Node4&#45;&gt;Node5 -->
<g id="edge4_Node000004_Node000005" class="edge">
<title>Node4&#45;&gt;Node5</title>
<g id="a_edge4_Node000004_Node000005"><a xlink:title=" ">
<path fill="none" stroke="#63b8ff" d="M329.69,-223.59C306.39,-214.97 271.63,-202.12 245.41,-192.42"/>
<polygon fill="#63b8ff" stroke="#63b8ff" points="246.77,-189.19 236.17,-189 244.34,-195.76 246.77,-189.19"/>
</a>
</g>
</g>
<!-- Node15 -->
<g id="Node000015" class="node">
<title>Node15</title>
<g id="a_Node000015"><a xlink:href="_close_8h.html" target="_top" xlink:title=" ">
<polygon fill="white" stroke="#666666" points="385.5,-188 308.75,-188 308.75,-168 385.5,-168 385.5,-188"/>
<text text-anchor="middle" x="347.12" y="-174.5" font-family="Helvetica,sans-Serif" font-size="10.00">Cpl/Io/Close.h</text>
</a>
</g>
</g>
<!-- Node4&#45;&gt;Node15 -->
<g id="edge15_Node000004_Node000015" class="edge">
<title>Node4&#45;&gt;Node15</title>
<g id="a_edge15_Node000004_Node000015"><a xlink:title=" ">
<path fill="none" stroke="#63b8ff" d="M353.73,-223.59C352.74,-216.93 351.38,-207.75 350.15,-199.44"/>
<polygon fill="#63b8ff" stroke="#63b8ff" points="353.65,-199.17 348.72,-189.8 346.73,-200.2 353.65,-199.17"/>
</a>
</g>
</g>
<!-- Node17 -->
<g id="Node000017" class="node">
<title>Node17</title>
<g id="a_Node000017"><a xlink:href="_is_eos_8h.html" target="_top" xlink:title=" ">
<polygon fill="white" stroke="#666666" points="480.5,-188 403.75,-188 403.75,-168 480.5,-168 480.5,-188"/>
<text text-anchor="middle" x="442.12" y="-174.5" font-family="Helvetica,sans-Serif" font-size="10.00">Cpl/Io/IsEos.h</text>
</a>
</g>
</g>
<!-- Node4&#45;&gt;Node17 -->
<g id="edge17_Node000004_Node000017" class="edge">
<title>Node4&#45;&gt;Node17</title>
<g id="a_edge17_Node000004_Node000017"><a xlink:title=" ">
<path fill="none" stroke="#63b8ff" d="M370.28,-223.59C383.17,-215.59 401.96,-203.93 417.08,-194.54"/>
<polygon fill="#63b8ff" stroke="#63b8ff" points="418.92,-197.53 425.57,-189.28 415.22,-191.58 418.92,-197.53"/>
</a>
</g>
</g>
<!-- Node6 -->
<g id="Node000006" class="node">
<title>Node6</title>
<g id="a_Node000006"><a xlink:title=" ">
<polygon fill="#e0e0e0" stroke="#999999" points="349.5,-76 272.75,-76 272.75,-56 349.5,-56 349.5,-76"/>
<text text-anchor="middle" x="311.12" y="-62.5" font-family="Helvetica,sans-Serif" font-size="10.00">colony_map.h</text>
</a>
</g>
</g>
<!-- Node5&#45;&gt;Node6 -->
<g id="edge5_Node000005_Node000006" class="edge">
<title>Node5&#45;&gt;Node6</title>
<g id="a_edge5_Node000005_Node000006"><a xlink:title=" ">
<path fill="none" stroke="#63b8ff" d="M217.82,-167.62C234.83,-149.27 272.76,-108.37 294.66,-84.75"/>
<polygon fill="#63b8ff" stroke="#63b8ff" points="297.19,-87.18 301.42,-77.46 292.06,-82.42 297.19,-87.18"/>
</a>
</g>
</g>
<!-- Node7 -->
<g id="Node000007" class="node">
<title>Node7</title>
<g id="a_Node000007"><a xlink:href="_key_8h.html" target="_top" xlink:title=" ">
<polygon fill="white" stroke="#666666" points="229.62,-132 126.62,-132 126.62,-112 229.62,-112 229.62,-132"/>
<text text-anchor="middle" x="178.12" y="-118.5" font-family="Helvetica,sans-Serif" font-size="10.00">Cpl/Container/Key.h</text>
</a>
</g>
</g>
<!-- Node5&#45;&gt;Node7 -->
<g id="edge6_Node000005_Node000007" class="edge">
<title>Node5&#45;&gt;Node7</title>
<g id="a_edge6_Node000005_Node000007"><a xlink:title=" ">
<path fill="none" stroke="#63b8ff" d="M203.73,-167.59C199.68,-160.55 194.01,-150.67 189.03,-142"/>
<polygon fill="#63b8ff" stroke="#63b8ff" points="192.23,-140.54 184.22,-133.61 186.16,-144.03 192.23,-140.54"/>
</a>
</g>
</g>
<!-- Node13 -->
<g id="Node000013" class="node">
<title>Node13</title>
<g id="a_Node000013"><a xlink:title=" ">
<polygon fill="#e0e0e0" stroke="#999999" points="337.75,-132 286.5,-132 286.5,-112 337.75,-112 337.75,-132"/>
<text text-anchor="middle" x="312.12" y="-118.5" font-family="Helvetica,sans-Serif" font-size="10.00">stdarg.h</text>
</a>
</g>
</g>
<!-- Node5&#45;&gt;Node13 -->
<g id="edge13_Node000005_Node000013" class="edge">
<title>Node5&#45;&gt;Node13</title>
<g id="a_edge13_Node000005_Node000013"><a xlink:title=" ">
<path fill="none" stroke="#63b8ff" d="M227.07,-167.59C242.77,-159.36 265.86,-147.26 284.01,-137.74"/>
<polygon fill="#63b8ff" stroke="#63b8ff" points="285.47,-140.93 292.7,-133.18 282.22,-134.73 285.47,-140.93"/>
</a>
</g>
</g>
<!-- Node14 -->
<g id="Node000014" class="node">
<title>Node14</title>
<g id="a_Node000014"><a xlink:title=" ">
<polygon fill="#e0e0e0" stroke="#999999" points="108.88,-132 55.38,-132 55.38,-112 108.88,-112 108.88,-132"/>
<text text-anchor="middle" x="82.12" y="-118.5" font-family="Helvetica,sans-Serif" font-size="10.00">iostream</text>
</a>
</g>
</g>
<!-- Node5&#45;&gt;Node14 -->
<g id="edge14_Node000005_Node000014" class="edge">
<title>Node5&#45;&gt;Node14</title>
<g id="a_edge14_Node000005_Node000014"><a xlink:title=" ">
<path fill="none" stroke="#63b8ff" d="M187,-167.59C167.09,-159.13 137.57,-146.58 114.92,-136.94"/>
<polygon fill="#63b8ff" stroke="#63b8ff" points="116.38,-133.76 105.81,-133.07 113.65,-140.21 116.38,-133.76"/>
</a>
</g>
</g>
<!-- Node7&#45;&gt;Node6 -->
<g id="edge12_Node000007_Node000006" class="edge">
<title>Node7&#45;&gt;Node6</title>
<g id="a_edge12_Node000007_Node000006"><a xlink:title=" ">
<path fill="none" stroke="#63b8ff" d="M201.29,-111.59C222.33,-103.05 253.62,-90.35 277.43,-80.68"/>
<polygon fill="#63b8ff" stroke="#63b8ff" points="278.43,-84.05 286.38,-77.05 275.79,-77.57 278.43,-84.05"/>
</a>
</g>
</g>
<!-- Node8 -->
<g id="Node000008" class="node">
<title>Node8</title>
<g id="a_Node000008"><a xlink:href="_fatal_error_8h.html" target="_top" xlink:title=" ">
<polygon fill="white" stroke="#666666" points="187.62,-76 66.62,-76 66.62,-56 187.62,-56 187.62,-76"/>
<text text-anchor="middle" x="127.12" y="-62.5" font-family="Helvetica,sans-Serif" font-size="10.00">Cpl/System/FatalError.h</text>
</a>
</g>
</g>
<!-- Node7&#45;&gt;Node8 -->
<g id="edge7_Node000007_Node000008" class="edge">
<title>Node7&#45;&gt;Node8</title>
<g id="a_edge7_Node000007_Node000008"><a xlink:title=" ">
<path fill="none" stroke="#63b8ff" d="M169.24,-111.59C162.22,-104.16 152.22,-93.58 143.73,-84.58"/>
<polygon fill="#63b8ff" stroke="#63b8ff" points="146.36,-82.27 136.95,-77.4 141.27,-87.07 146.36,-82.27"/>
</a>
</g>
</g>
<!-- Node11 -->
<g id="Node000011" class="node">
<title>Node11</title>
<g id="a_Node000011"><a xlink:title=" ">
<polygon fill="#e0e0e0" stroke="#999999" points="254.25,-76 206,-76 206,-56 254.25,-56 254.25,-76"/>
<text text-anchor="middle" x="230.12" y="-62.5" font-family="Helvetica,sans-Serif" font-size="10.00">stdint.h</text>
</a>
</g>
</g>
<!-- Node7&#45;&gt;Node11 -->
<g id="edge10_Node000007_Node000011" class="edge">
<title>Node7&#45;&gt;Node11</title>
<g id="a_edge10_Node000007_Node000011"><a xlink:title=" ">
<path fill="none" stroke="#63b8ff" d="M187.18,-111.59C194.34,-104.16 204.53,-93.58 213.19,-84.58"/>
<polygon fill="#63b8ff" stroke="#63b8ff" points="215.71,-87.02 220.12,-77.39 210.66,-82.16 215.71,-87.02"/>
</a>
</g>
</g>
<!-- Node12 -->
<g id="Node000012" class="node">
<title>Node12</title>
<g id="a_Node000012"><a xlink:title=" ">
<polygon fill="#e0e0e0" stroke="#999999" points="48.25,-76 0,-76 0,-56 48.25,-56 48.25,-76"/>
<text text-anchor="middle" x="24.12" y="-62.5" font-family="Helvetica,sans-Serif" font-size="10.00">string.h</text>
</a>
</g>
</g>
<!-- Node7&#45;&gt;Node12 -->
<g id="edge11_Node000007_Node000012" class="edge">
<title>Node7&#45;&gt;Node12</title>
<g id="a_edge11_Node000007_Node000012"><a xlink:title=" ">
<path fill="none" stroke="#63b8ff" d="M151.3,-111.59C125.74,-102.63 87.11,-89.09 59.13,-79.28"/>
<polygon fill="#63b8ff" stroke="#63b8ff" points="60.63,-76.09 50.04,-76.09 58.32,-82.7 60.63,-76.09"/>
</a>
</g>
</g>
<!-- Node9 -->
<g id="Node000009" class="node">
<title>Node9</title>
<g id="a_Node000009"><a xlink:title=" ">
<polygon fill="#e0e0e0" stroke="#999999" points="109.38,-20 58.88,-20 58.88,0 109.38,0 109.38,-20"/>
<text text-anchor="middle" x="84.12" y="-6.5" font-family="Helvetica,sans-Serif" font-size="10.00">stddef.h</text>
</a>
</g>
</g>
<!-- Node8&#45;&gt;Node9 -->
<g id="edge8_Node000008_Node000009" class="edge">
<title>Node8&#45;&gt;Node9</title>
<g id="a_edge8_Node000008_Node000009"><a xlink:title=" ">
<path fill="none" stroke="#63b8ff" d="M119.63,-55.59C113.84,-48.32 105.64,-38.02 98.58,-29.15"/>
<polygon fill="#63b8ff" stroke="#63b8ff" points="101.44,-27.12 92.47,-21.48 95.96,-31.49 101.44,-27.12"/>
</a>
</g>
</g>
<!-- Node10 -->
<g id="Node000010" class="node">
<title>Node10</title>
<g id="a_Node000010"><a xlink:title=" ">
<polygon fill="#e0e0e0" stroke="#999999" points="210.88,-20 127.38,-20 127.38,0 210.88,0 210.88,-20"/>
<text text-anchor="middle" x="169.12" y="-6.5" font-family="Helvetica,sans-Serif" font-size="10.00">colony_config.h</text>
</a>
</g>
</g>
<!-- Node8&#45;&gt;Node10 -->
<g id="edge9_Node000008_Node000010" class="edge">
<title>Node8&#45;&gt;Node10</title>
<g id="a_edge9_Node000008_Node000010"><a xlink:title=" ">
<path fill="none" stroke="#63b8ff" d="M134.44,-55.59C140.1,-48.32 148.11,-38.02 155.01,-29.15"/>
<polygon fill="#63b8ff" stroke="#63b8ff" points="157.59,-31.54 160.96,-21.49 152.06,-27.24 157.59,-31.54"/>
</a>
</g>
</g>
<!-- Node16 -->
<g id="Node000016" class="node">
<title>Node16</title>
<g id="a_Node000016"><a xlink:href="_item_8h.html" target="_top" xlink:title=" ">
<polygon fill="white" stroke="#666666" points="534.38,-132 429.88,-132 429.88,-112 534.38,-112 534.38,-132"/>
<text text-anchor="middle" x="482.12" y="-118.5" font-family="Helvetica,sans-Serif" font-size="10.00">Cpl/Container/Item.h</text>
</a>
</g>
</g>
<!-- Node15&#45;&gt;Node16 -->
<g id="edge16_Node000015_Node000016" class="edge">
<title>Node15&#45;&gt;Node16</title>
<g id="a_edge16_Node000015_Node000016"><a xlink:title=" ">
<path fill="none" stroke="#63b8ff" d="M370.64,-167.59C392,-159.05 423.76,-146.35 447.92,-136.68"/>
<polygon fill="#63b8ff" stroke="#63b8ff" points="449.04,-140.01 457.02,-133.04 446.44,-133.51 449.04,-140.01"/>
</a>
</g>
</g>
<!-- Node18&#45;&gt;Node5 -->
<g id="edge19_Node000018_Node000005" class="edge">
<title>Node18&#45;&gt;Node5</title>
<g id="a_edge19_Node000018_Node000005"><a xlink:title=" ">
<path fill="none" stroke="#63b8ff" d="M251.24,-223.59C244.22,-216.16 234.22,-205.58 225.73,-196.58"/>
<polygon fill="#63b8ff" stroke="#63b8ff" points="228.36,-194.27 218.95,-189.4 223.27,-199.07 228.36,-194.27"/>
</a>
</g>
</g>
<!-- Node18&#45;&gt;Node13 -->
<g id="edge22_Node000018_Node000013" class="edge">
<title>Node18&#45;&gt;Node13</title>
<g id="a_edge22_Node000018_Node000013"><a xlink:title=" ">
<path fill="none" stroke="#63b8ff" d="M264.56,-223.62C273,-205.76 291.55,-166.53 302.83,-142.67"/>
<polygon fill="#63b8ff" stroke="#63b8ff" points="305.95,-144.26 307.06,-133.72 299.62,-141.27 305.95,-144.26"/>
</a>
</g>
</g>
<!-- Node18&#45;&gt;Node15 -->
<g id="edge20_Node000018_Node000015" class="edge">
<title>Node18&#45;&gt;Node15</title>
<g id="a_edge20_Node000018_Node000015"><a xlink:title=" ">
<path fill="none" stroke="#63b8ff" d="M275.28,-223.59C288.17,-215.59 306.96,-203.93 322.08,-194.54"/>
<polygon fill="#63b8ff" stroke="#63b8ff" points="323.92,-197.53 330.57,-189.28 320.22,-191.58 323.92,-197.53"/>
</a>
</g>
</g>
<!-- Node18&#45;&gt;Node17 -->
<g id="edge21_Node000018_Node000017" class="edge">
<title>Node18&#45;&gt;Node17</title>
<g id="a_edge21_Node000018_Node000017"><a xlink:title=" ">
<path fill="none" stroke="#63b8ff" d="M291.83,-223.59C321.66,-214.74 366.54,-201.43 399.5,-191.65"/>
<polygon fill="#63b8ff" stroke="#63b8ff" points="400.13,-195.11 408.72,-188.91 398.14,-188.4 400.13,-195.11"/>
</a>
</g>
</g>
<!-- Node19&#45;&gt;Node6 -->
<g id="edge24_Node000019_Node000006" class="edge">
<title>Node19&#45;&gt;Node6</title>
<g id="a_edge24_Node000019_Node000006"><a xlink:title=" ">
<path fill="none" stroke="#63b8ff" d="M650.14,-287.13C708.78,-282.84 790.65,-268.89 763.12,-224 705.78,-130.46 646.88,-147.68 543.12,-112 482.19,-91.04 408.71,-78.86 361,-72.58"/>
<polygon fill="#63b8ff" stroke="#63b8ff" points="361.61,-69.13 351.25,-71.34 360.73,-76.07 361.61,-69.13"/>
</a>
</g>
</g>
<!-- Node20 -->
<g id="Node000020" class="node">
<title>Node20</title>
<g id="a_Node000020"><a xlink:href="_runnable_8h.html" target="_top" xlink:title=" ">
<polygon fill="white" stroke="#666666" points="528.5,-244 409.75,-244 409.75,-224 528.5,-224 528.5,-244"/>
<text text-anchor="middle" x="469.12" y="-230.5" font-family="Helvetica,sans-Serif" font-size="10.00">Cpl/System/Runnable.h</text>
</a>
</g>
</g>
<!-- Node19&#45;&gt;Node20 -->
<g id="edge25_Node000019_Node000020" class="edge">
<title>Node19&#45;&gt;Node20</title>
<g id="a_edge25_Node000019_Node000020"><a xlink:title=" ">
<path fill="none" stroke="#63b8ff" d="M574,-279.59C554.09,-271.13 524.57,-258.58 501.92,-248.94"/>
<polygon fill="#63b8ff" stroke="#63b8ff" points="503.38,-245.76 492.81,-245.07 500.65,-252.21 503.38,-245.76"/>
</a>
</g>
</g>
<!-- Node21 -->
<g id="Node000021" class="node">
<title>Node21</title>
<g id="a_Node000021"><a xlink:href="_signable_8h.html" target="_top" xlink:title=" ">
<polygon fill="white" stroke="#666666" points="614,-188 498.25,-188 498.25,-168 614,-168 614,-188"/>
<text text-anchor="middle" x="556.12" y="-174.5" font-family="Helvetica,sans-Serif" font-size="10.00">Cpl/System/Signable.h</text>
</a>
</g>
</g>
<!-- Node19&#45;&gt;Node21 -->
<g id="edge26_Node000019_Node000021" class="edge">
<title>Node19&#45;&gt;Node21</title>
<g id="a_edge26_Node000019_Node000021"><a xlink:title=" ">
<path fill="none" stroke="#63b8ff" d="M591.19,-279.53C586.63,-270.54 579.87,-256.58 575.12,-244 569.59,-229.33 564.67,-212.3 561.22,-199.35"/>
<polygon fill="#63b8ff" stroke="#63b8ff" points="564.66,-198.68 558.77,-189.87 557.88,-200.43 564.66,-198.68"/>
</a>
</g>
</g>
<!-- Node22 -->
<g id="Node000022" class="node">
<title>Node22</title>
<g id="a_Node000022"><a xlink:href="_traverser_8h.html" target="_top" xlink:title=" ">
<polygon fill="white" stroke="#666666" points="688.38,-244 583.88,-244 583.88,-224 688.38,-224 688.38,-244"/>
<text text-anchor="middle" x="636.12" y="-230.5" font-family="Helvetica,sans-Serif" font-size="10.00">Cpl/Type/Traverser.h</text>
</a>
</g>
</g>
<!-- Node19&#45;&gt;Node22 -->
<g id="edge28_Node000019_Node000022" class="edge">
<title>Node19&#45;&gt;Node22</title>
<g id="a_edge28_Node000019_Node000022"><a xlink:title=" ">
<path fill="none" stroke="#63b8ff" d="M603.09,-279.59C608.43,-272.39 615.95,-262.23 622.47,-253.43"/>
<polygon fill="#63b8ff" stroke="#63b8ff" points="625.2,-255.63 628.34,-245.51 619.57,-251.47 625.2,-255.63"/>
</a>
</g>
</g>
<!-- Node23 -->
<g id="Node000023" class="node">
<title>Node23</title>
<g id="a_Node000023"><a xlink:title=" ">
<polygon fill="#e0e0e0" stroke="#999999" points="753.88,-244 706.38,-244 706.38,-224 753.88,-224 753.88,-244"/>
<text text-anchor="middle" x="730.12" y="-230.5" font-family="Helvetica,sans-Serif" font-size="10.00">stdlib.h</text>
</a>
</g>
</g>
<!-- Node19&#45;&gt;Node23 -->
<g id="edge29_Node000019_Node000023" class="edge">
<title>Node19&#45;&gt;Node23</title>
<g id="a_edge29_Node000019_Node000023"><a xlink:title=" ">
<path fill="none" stroke="#63b8ff" d="M619.47,-279.59C640.66,-271.05 672.19,-258.35 696.18,-248.68"/>
<polygon fill="#63b8ff" stroke="#63b8ff" points="697.23,-252.03 705.2,-245.05 694.61,-245.54 697.23,-252.03"/>
</a>
</g>
</g>
<!-- Node21&#45;&gt;Node16 -->
<g id="edge27_Node000021_Node000016" class="edge">
<title>Node21&#45;&gt;Node16</title>
<g id="a_edge27_Node000021_Node000016"><a xlink:title=" ">
<path fill="none" stroke="#63b8ff" d="M543.24,-167.59C532.41,-159.7 516.71,-148.24 503.94,-138.92"/>
<polygon fill="#63b8ff" stroke="#63b8ff" points="506.23,-136.26 496.09,-133.19 502.1,-141.91 506.23,-136.26"/>
</a>
</g>
</g>
</g>
</svg>
