<?xml version="1.0" encoding="UTF-8" standalone="no"?>
<!DOCTYPE svg PUBLIC "-//W3C//DTD SVG 1.1//EN"
 "http://www.w3.org/Graphics/SVG/1.1/DTD/svg11.dtd">
<!-- Generated by graphviz version 2.38.0 (20140413.2041)
 -->
<!-- Title: Cpl/Itc/ResponseMessage.h Pages: 1 -->
<svg width="417pt" height="252pt"
 viewBox="0.00 0.00 417.00 252.00" xmlns="http://www.w3.org/2000/svg" xmlns:xlink="http://www.w3.org/1999/xlink">
<g id="graph0" class="graph" transform="scale(1 1) rotate(0) translate(4 248)">
<title>Cpl/Itc/ResponseMessage.h</title>
<polygon fill="white" stroke="none" points="-4,4 -4,-248 413,-248 413,4 -4,4"/>
<!-- Node1 -->
<g id="node1" class="node"><title>Node1</title>
<g id="a_node1"><a xlink:title=" ">
<polygon fill="#bfbfbf" stroke="black" points="117,-224.5 117,-243.5 257,-243.5 257,-224.5 117,-224.5"/>
<text text-anchor="middle" x="187" y="-231.5" font-family="Helvetica,sans-Serif" font-size="10.00">Cpl/Itc/ResponseMessage.h</text>
</a>
</g>
</g>
<!-- Node2 -->
<g id="node2" class="node"><title>Node2</title>
<g id="a_node2"><a xlink:href="_atomic_request_8h.html" target="_top" xlink:title=" ">
<polygon fill="white" stroke="black" points="14.5,-168.5 14.5,-187.5 137.5,-187.5 137.5,-168.5 14.5,-168.5"/>
<text text-anchor="middle" x="76" y="-175.5" font-family="Helvetica,sans-Serif" font-size="10.00">Cpl/Itc/AtomicRequest.h</text>
</a>
</g>
</g>
<!-- Node1&#45;&gt;Node2 -->
<g id="edge1" class="edge"><title>Node1&#45;&gt;Node2</title>
<path fill="none" stroke="midnightblue" d="M159.995,-219.862C139.412,-209.849 111.655,-196.346 93.7898,-187.655"/>
<polygon fill="midnightblue" stroke="midnightblue" points="158.642,-223.097 169.166,-224.324 161.705,-216.802 158.642,-223.097"/>
</g>
<!-- Node4 -->
<g id="node4" class="node"><title>Node4</title>
<g id="a_node4"><a xlink:href="_close_request_8h.html" target="_top" xlink:title=" ">
<polygon fill="white" stroke="black" points="128.5,-112.5 128.5,-131.5 245.5,-131.5 245.5,-112.5 128.5,-112.5"/>
<text text-anchor="middle" x="187" y="-119.5" font-family="Helvetica,sans-Serif" font-size="10.00">Cpl/Itc/CloseRequest.h</text>
</a>
</g>
</g>
<!-- Node1&#45;&gt;Node4 -->
<g id="edge3" class="edge"><title>Node1&#45;&gt;Node4</title>
<path fill="none" stroke="midnightblue" d="M187,-214.348C187,-190.254 187,-149.308 187,-131.591"/>
<polygon fill="midnightblue" stroke="midnightblue" points="183.5,-214.368 187,-224.368 190.5,-214.369 183.5,-214.368"/>
</g>
<!-- Node8 -->
<g id="node8" class="node"><title>Node8</title>
<g id="a_node8"><a xlink:href="_open_request_8h.html" target="_top" xlink:title=" ">
<polygon fill="white" stroke="black" points="236,-168.5 236,-187.5 352,-187.5 352,-168.5 236,-168.5"/>
<text text-anchor="middle" x="294" y="-175.5" font-family="Helvetica,sans-Serif" font-size="10.00">Cpl/Itc/OpenRequest.h</text>
</a>
</g>
</g>
<!-- Node1&#45;&gt;Node8 -->
<g id="edge7" class="edge"><title>Node1&#45;&gt;Node8</title>
<path fill="none" stroke="midnightblue" d="M213.302,-219.726C233.115,-209.727 259.707,-196.307 276.851,-187.655"/>
<polygon fill="midnightblue" stroke="midnightblue" points="211.542,-216.694 204.191,-224.324 214.696,-222.943 211.542,-216.694"/>
</g>
<!-- Node3 -->
<g id="node3" class="node"><title>Node3</title>
<g id="a_node3"><a xlink:href="_atomic_sync_8h.html" target="_top" xlink:title=" ">
<polygon fill="white" stroke="black" points="0,-112.5 0,-131.5 110,-131.5 110,-112.5 0,-112.5"/>
<text text-anchor="middle" x="55" y="-119.5" font-family="Helvetica,sans-Serif" font-size="10.00">Cpl/Itc/AtomicSync.h</text>
</a>
</g>
</g>
<!-- Node2&#45;&gt;Node3 -->
<g id="edge2" class="edge"><title>Node2&#45;&gt;Node3</title>
<path fill="none" stroke="midnightblue" d="M68.8793,-158.69C65.3402,-149.589 61.2277,-139.014 58.4032,-131.751"/>
<polygon fill="midnightblue" stroke="midnightblue" points="65.6457,-160.032 72.5323,-168.083 72.1698,-157.494 65.6457,-160.032"/>
</g>
<!-- Node5 -->
<g id="node5" class="node"><title>Node5</title>
<g id="a_node5"><a xlink:href="_close_sync_8h.html" target="_top" xlink:title=" ">
<polygon fill="white" stroke="black" points="199,-56.5 199,-75.5 303,-75.5 303,-56.5 199,-56.5"/>
<text text-anchor="middle" x="251" y="-63.5" font-family="Helvetica,sans-Serif" font-size="10.00">Cpl/Itc/CloseSync.h</text>
</a>
</g>
</g>
<!-- Node4&#45;&gt;Node5 -->
<g id="edge4" class="edge"><title>Node4&#45;&gt;Node5</title>
<path fill="none" stroke="midnightblue" d="M204.991,-105.82C216.458,-96.1452 230.913,-83.9481 240.53,-75.8339"/>
<polygon fill="midnightblue" stroke="midnightblue" points="202.669,-103.2 197.283,-112.324 207.183,-108.55 202.669,-103.2"/>
</g>
<!-- Node6 -->
<g id="node6" class="node"><title>Node6</title>
<g id="a_node6"><a xlink:href="_record_server_8h.html" target="_top" xlink:title=" ">
<polygon fill="white" stroke="black" points="93.5,-0.5 93.5,-19.5 242.5,-19.5 242.5,-0.5 93.5,-0.5"/>
<text text-anchor="middle" x="168" y="-7.5" font-family="Helvetica,sans-Serif" font-size="10.00">Cpl/Persistent/RecordServer.h</text>
</a>
</g>
</g>
<!-- Node5&#45;&gt;Node6 -->
<g id="edge5" class="edge"><title>Node5&#45;&gt;Node6</title>
<path fill="none" stroke="midnightblue" d="M228.901,-50.6221C213.738,-40.7574 194.117,-27.9919 181.302,-19.6545"/>
<polygon fill="midnightblue" stroke="midnightblue" points="227.374,-53.8042 237.665,-56.324 231.191,-47.9367 227.374,-53.8042"/>
</g>
<!-- Node7 -->
<g id="node7" class="node"><title>Node7</title>
<g id="a_node7"><a xlink:href="_algorithm_8h.html" target="_top" xlink:title=" ">
<polygon fill="white" stroke="black" points="261,-0.5 261,-19.5 409,-19.5 409,-0.5 261,-0.5"/>
<text text-anchor="middle" x="335" y="-7.5" font-family="Helvetica,sans-Serif" font-size="10.00">Storm/Thermostat/Algorithm.h</text>
</a>
</g>
</g>
<!-- Node5&#45;&gt;Node7 -->
<g id="edge6" class="edge"><title>Node5&#45;&gt;Node7</title>
<path fill="none" stroke="midnightblue" d="M272.932,-50.9005C288.335,-40.9986 308.446,-28.0705 321.537,-19.6545"/>
<polygon fill="midnightblue" stroke="midnightblue" points="271.015,-47.9722 264.496,-56.324 274.801,-53.8605 271.015,-47.9722"/>
</g>
<!-- Node9 -->
<g id="node9" class="node"><title>Node9</title>
<g id="a_node9"><a xlink:href="_open_sync_8h.html" target="_top" xlink:title=" ">
<polygon fill="white" stroke="black" points="264,-112.5 264,-131.5 366,-131.5 366,-112.5 264,-112.5"/>
<text text-anchor="middle" x="315" y="-119.5" font-family="Helvetica,sans-Serif" font-size="10.00">Cpl/Itc/OpenSync.h</text>
</a>
</g>
</g>
<!-- Node8&#45;&gt;Node9 -->
<g id="edge8" class="edge"><title>Node8&#45;&gt;Node9</title>
<path fill="none" stroke="midnightblue" d="M301.121,-158.69C304.66,-149.589 308.772,-139.014 311.597,-131.751"/>
<polygon fill="midnightblue" stroke="midnightblue" points="297.83,-157.494 297.468,-168.083 304.354,-160.032 297.83,-157.494"/>
</g>
<!-- Node9&#45;&gt;Node5 -->
<g id="edge9" class="edge"><title>Node9&#45;&gt;Node5</title>
<path fill="none" stroke="midnightblue" d="M297.009,-105.82C285.542,-96.1452 271.087,-83.9481 261.47,-75.8339"/>
<polygon fill="midnightblue" stroke="midnightblue" points="294.817,-108.55 304.717,-112.324 299.331,-103.2 294.817,-108.55"/>
</g>
</g>
</svg>
