<?xml version="1.0" encoding="UTF-8" standalone="no"?>
<!DOCTYPE svg PUBLIC "-//W3C//DTD SVG 1.1//EN"
 "http://www.w3.org/Graphics/SVG/1.1/DTD/svg11.dtd">
<!-- Generated by graphviz version 2.38.0 (20140413.2041)
 -->
<!-- Title: Cpl/Itc/ReturnHandler.h Pages: 1 -->
<svg width="625pt" height="442pt"
 viewBox="0.00 0.00 625.00 442.00" xmlns="http://www.w3.org/2000/svg" xmlns:xlink="http://www.w3.org/1999/xlink">
<g id="graph0" class="graph" transform="scale(1 1) rotate(0) translate(4 438)">
<title>Cpl/Itc/ReturnHandler.h</title>
<polygon fill="white" stroke="none" points="-4,4 -4,-438 621,-438 621,4 -4,4"/>
<!-- Node1 -->
<g id="node1" class="node"><title>Node1</title>
<g id="a_node1"><a xlink:title=" ">
<polygon fill="#bfbfbf" stroke="black" points="391,-414.5 391,-433.5 509,-433.5 509,-414.5 391,-414.5"/>
<text text-anchor="middle" x="450" y="-421.5" font-family="Helvetica,sans-Serif" font-size="10.00">Cpl/Itc/ReturnHandler.h</text>
</a>
</g>
</g>
<!-- Node2 -->
<g id="node2" class="node"><title>Node2</title>
<g id="a_node2"><a xlink:href="_async_return_handler_8h.html" target="_top" xlink:title=" ">
<polygon fill="white" stroke="black" points="352,-302.5 352,-321.5 498,-321.5 498,-302.5 352,-302.5"/>
<text text-anchor="middle" x="425" y="-309.5" font-family="Helvetica,sans-Serif" font-size="10.00">Cpl/Itc/AsyncReturnHandler.h</text>
</a>
</g>
</g>
<!-- Node1&#45;&gt;Node2 -->
<g id="edge1" class="edge"><title>Node1&#45;&gt;Node2</title>
<path fill="none" stroke="midnightblue" d="M465.697,-406.364C476.141,-393.186 486.653,-374.34 479,-358 471.339,-341.644 454.488,-329.159 441.633,-321.536"/>
<polygon fill="midnightblue" stroke="midnightblue" points="462.894,-404.255 459.034,-414.122 468.205,-408.816 462.894,-404.255"/>
</g>
<!-- Node12 -->
<g id="node12" class="node"><title>Node12</title>
<g id="a_node12"><a xlink:href="_null_return_handler_8h.html" target="_top" xlink:title=" ">
<polygon fill="white" stroke="black" points="336,-358.5 336,-377.5 470,-377.5 470,-358.5 336,-358.5"/>
<text text-anchor="middle" x="403" y="-365.5" font-family="Helvetica,sans-Serif" font-size="10.00">Cpl/Itc/NullReturnHandler.h</text>
</a>
</g>
</g>
<!-- Node1&#45;&gt;Node12 -->
<g id="edge12" class="edge"><title>Node1&#45;&gt;Node12</title>
<path fill="none" stroke="midnightblue" d="M435.579,-406.431C427.342,-396.967 417.346,-385.483 410.617,-377.751"/>
<polygon fill="midnightblue" stroke="midnightblue" points="433.034,-408.838 442.239,-414.083 438.314,-404.242 433.034,-408.838"/>
</g>
<!-- Node13 -->
<g id="node13" class="node"><title>Node13</title>
<g id="a_node13"><a xlink:href="_service_message_8h.html" target="_top" xlink:title=" ">
<polygon fill="white" stroke="black" points="188.5,-358.5 188.5,-377.5 317.5,-377.5 317.5,-358.5 188.5,-358.5"/>
<text text-anchor="middle" x="253" y="-365.5" font-family="Helvetica,sans-Serif" font-size="10.00">Cpl/Itc/ServiceMessage.h</text>
</a>
</g>
</g>
<!-- Node1&#45;&gt;Node13 -->
<g id="edge13" class="edge"><title>Node1&#45;&gt;Node13</title>
<path fill="none" stroke="midnightblue" d="M408.771,-411.699C371.591,-401.507 317.729,-386.743 284.069,-377.516"/>
<polygon fill="midnightblue" stroke="midnightblue" points="408.215,-415.175 418.785,-414.444 410.066,-408.424 408.215,-415.175"/>
</g>
<!-- Node17 -->
<g id="node17" class="node"><title>Node17</title>
<g id="a_node17"><a xlink:href="_sync_return_handler_8h.html" target="_top" xlink:title=" ">
<polygon fill="white" stroke="black" points="477,-241 477,-260 617,-260 617,-241 477,-241"/>
<text text-anchor="middle" x="547" y="-248" font-family="Helvetica,sans-Serif" font-size="10.00">Cpl/Itc/SyncReturnHandler.h</text>
</a>
</g>
</g>
<!-- Node1&#45;&gt;Node17 -->
<g id="edge21" class="edge"><title>Node1&#45;&gt;Node17</title>
<path fill="none" stroke="midnightblue" d="M468.508,-407.621C477.399,-399.512 487.683,-388.982 495,-378 521.857,-337.688 538.931,-281.294 544.759,-260.048"/>
<polygon fill="midnightblue" stroke="midnightblue" points="466.069,-405.105 460.86,-414.331 470.686,-410.367 466.069,-405.105"/>
</g>
<!-- Node3 -->
<g id="node3" class="node"><title>Node3</title>
<g id="a_node3"><a xlink:href="_response_message_8h.html" target="_top" xlink:title=" ">
<polygon fill="white" stroke="black" points="281,-241 281,-260 421,-260 421,-241 281,-241"/>
<text text-anchor="middle" x="351" y="-248" font-family="Helvetica,sans-Serif" font-size="10.00">Cpl/Itc/ResponseMessage.h</text>
</a>
</g>
</g>
<!-- Node2&#45;&gt;Node3 -->
<g id="edge2" class="edge"><title>Node2&#45;&gt;Node3</title>
<path fill="none" stroke="midnightblue" d="M406.311,-295.973C392.157,-284.593 373.224,-269.369 361.583,-260.009"/>
<polygon fill="midnightblue" stroke="midnightblue" points="404.411,-298.937 414.398,-302.475 408.798,-293.481 404.411,-298.937"/>
</g>
<!-- Node4 -->
<g id="node4" class="node"><title>Node4</title>
<g id="a_node4"><a xlink:href="_atomic_request_8h.html" target="_top" xlink:title=" ">
<polygon fill="white" stroke="black" points="426.5,-174 426.5,-193 549.5,-193 549.5,-174 426.5,-174"/>
<text text-anchor="middle" x="488" y="-181" font-family="Helvetica,sans-Serif" font-size="10.00">Cpl/Itc/AtomicRequest.h</text>
</a>
</g>
</g>
<!-- Node3&#45;&gt;Node4 -->
<g id="edge3" class="edge"><title>Node3&#45;&gt;Node4</title>
<path fill="none" stroke="midnightblue" d="M378.519,-236.444C405.654,-223.569 446.358,-204.257 469.732,-193.167"/>
<polygon fill="midnightblue" stroke="midnightblue" points="376.727,-233.42 369.193,-240.869 379.728,-239.744 376.727,-233.42"/>
</g>
<!-- Node6 -->
<g id="node6" class="node"><title>Node6</title>
<g id="a_node6"><a xlink:href="_close_request_8h.html" target="_top" xlink:title=" ">
<polygon fill="white" stroke="black" points="156.5,-174 156.5,-193 273.5,-193 273.5,-174 156.5,-174"/>
<text text-anchor="middle" x="215" y="-181" font-family="Helvetica,sans-Serif" font-size="10.00">Cpl/Itc/CloseRequest.h</text>
</a>
</g>
</g>
<!-- Node3&#45;&gt;Node6 -->
<g id="edge5" class="edge"><title>Node3&#45;&gt;Node6</title>
<path fill="none" stroke="midnightblue" d="M323.682,-236.444C296.745,-223.569 256.338,-204.257 233.134,-193.167"/>
<polygon fill="midnightblue" stroke="midnightblue" points="322.408,-239.714 332.94,-240.869 325.427,-233.398 322.408,-239.714"/>
</g>
<!-- Node10 -->
<g id="node10" class="node"><title>Node10</title>
<g id="a_node10"><a xlink:href="_open_request_8h.html" target="_top" xlink:title=" ">
<polygon fill="white" stroke="black" points="292,-174 292,-193 408,-193 408,-174 292,-174"/>
<text text-anchor="middle" x="350" y="-181" font-family="Helvetica,sans-Serif" font-size="10.00">Cpl/Itc/OpenRequest.h</text>
</a>
</g>
</g>
<!-- Node3&#45;&gt;Node10 -->
<g id="edge9" class="edge"><title>Node3&#45;&gt;Node10</title>
<path fill="none" stroke="midnightblue" d="M350.708,-230.537C350.518,-218.17 350.279,-202.62 350.133,-193.127"/>
<polygon fill="midnightblue" stroke="midnightblue" points="347.212,-230.789 350.865,-240.734 354.211,-230.681 347.212,-230.789"/>
</g>
<!-- Node5 -->
<g id="node5" class="node"><title>Node5</title>
<g id="a_node5"><a xlink:href="_atomic_sync_8h.html" target="_top" xlink:title=" ">
<polygon fill="white" stroke="black" points="478,-112.5 478,-131.5 588,-131.5 588,-112.5 478,-112.5"/>
<text text-anchor="middle" x="533" y="-119.5" font-family="Helvetica,sans-Serif" font-size="10.00">Cpl/Itc/AtomicSync.h</text>
</a>
</g>
</g>
<!-- Node4&#45;&gt;Node5 -->
<g id="edge4" class="edge"><title>Node4&#45;&gt;Node5</title>
<path fill="none" stroke="midnightblue" d="M500.602,-165.838C509.048,-154.669 519.819,-140.428 526.565,-131.509"/>
<polygon fill="midnightblue" stroke="midnightblue" points="497.688,-163.888 494.447,-173.975 503.271,-168.111 497.688,-163.888"/>
</g>
<!-- Node7 -->
<g id="node7" class="node"><title>Node7</title>
<g id="a_node7"><a xlink:href="_close_sync_8h.html" target="_top" xlink:title=" ">
<polygon fill="white" stroke="black" points="223,-56.5 223,-75.5 327,-75.5 327,-56.5 223,-56.5"/>
<text text-anchor="middle" x="275" y="-63.5" font-family="Helvetica,sans-Serif" font-size="10.00">Cpl/Itc/CloseSync.h</text>
</a>
</g>
</g>
<!-- Node6&#45;&gt;Node7 -->
<g id="edge6" class="edge"><title>Node6&#45;&gt;Node7</title>
<path fill="none" stroke="midnightblue" d="M224.258,-164.679C237.308,-139.557 260.617,-94.6874 270.438,-75.782"/>
<polygon fill="midnightblue" stroke="midnightblue" points="221.014,-163.331 219.51,-173.819 227.226,-166.558 221.014,-163.331"/>
</g>
<!-- Node8 -->
<g id="node8" class="node"><title>Node8</title>
<g id="a_node8"><a xlink:href="_record_server_8h.html" target="_top" xlink:title=" ">
<polygon fill="white" stroke="black" points="117.5,-0.5 117.5,-19.5 266.5,-19.5 266.5,-0.5 117.5,-0.5"/>
<text text-anchor="middle" x="192" y="-7.5" font-family="Helvetica,sans-Serif" font-size="10.00">Cpl/Persistent/RecordServer.h</text>
</a>
</g>
</g>
<!-- Node7&#45;&gt;Node8 -->
<g id="edge7" class="edge"><title>Node7&#45;&gt;Node8</title>
<path fill="none" stroke="midnightblue" d="M252.901,-50.6221C237.738,-40.7574 218.117,-27.9919 205.302,-19.6545"/>
<polygon fill="midnightblue" stroke="midnightblue" points="251.374,-53.8042 261.665,-56.324 255.191,-47.9367 251.374,-53.8042"/>
</g>
<!-- Node9 -->
<g id="node9" class="node"><title>Node9</title>
<g id="a_node9"><a xlink:href="_algorithm_8h.html" target="_top" xlink:title=" ">
<polygon fill="white" stroke="black" points="285,-0.5 285,-19.5 433,-19.5 433,-0.5 285,-0.5"/>
<text text-anchor="middle" x="359" y="-7.5" font-family="Helvetica,sans-Serif" font-size="10.00">Storm/Thermostat/Algorithm.h</text>
</a>
</g>
</g>
<!-- Node7&#45;&gt;Node9 -->
<g id="edge8" class="edge"><title>Node7&#45;&gt;Node9</title>
<path fill="none" stroke="midnightblue" d="M296.932,-50.9005C312.335,-40.9986 332.446,-28.0705 345.537,-19.6545"/>
<polygon fill="midnightblue" stroke="midnightblue" points="295.015,-47.9722 288.496,-56.324 298.801,-53.8605 295.015,-47.9722"/>
</g>
<!-- Node11 -->
<g id="node11" class="node"><title>Node11</title>
<g id="a_node11"><a xlink:href="_open_sync_8h.html" target="_top" xlink:title=" ">
<polygon fill="white" stroke="black" points="271,-112.5 271,-131.5 373,-131.5 373,-112.5 271,-112.5"/>
<text text-anchor="middle" x="322" y="-119.5" font-family="Helvetica,sans-Serif" font-size="10.00">Cpl/Itc/OpenSync.h</text>
</a>
</g>
</g>
<!-- Node10&#45;&gt;Node11 -->
<g id="edge10" class="edge"><title>Node10&#45;&gt;Node11</title>
<path fill="none" stroke="midnightblue" d="M341.687,-164.835C336.507,-153.828 330.077,-140.163 326.004,-131.509"/>
<polygon fill="midnightblue" stroke="midnightblue" points="338.563,-166.417 345.988,-173.975 344.897,-163.437 338.563,-166.417"/>
</g>
<!-- Node11&#45;&gt;Node7 -->
<g id="edge11" class="edge"><title>Node11&#45;&gt;Node7</title>
<path fill="none" stroke="midnightblue" d="M307.579,-104.431C299.342,-94.9673 289.346,-83.4827 282.617,-75.7511"/>
<polygon fill="midnightblue" stroke="midnightblue" points="305.034,-106.838 314.239,-112.083 310.314,-102.242 305.034,-106.838"/>
</g>
<!-- Node14 -->
<g id="node14" class="node"><title>Node14</title>
<g id="a_node14"><a xlink:href="_request_message_8h.html" target="_top" xlink:title=" ">
<polygon fill="white" stroke="black" points="187,-302.5 187,-321.5 319,-321.5 319,-302.5 187,-302.5"/>
<text text-anchor="middle" x="253" y="-309.5" font-family="Helvetica,sans-Serif" font-size="10.00">Cpl/Itc/RequestMessage.h</text>
</a>
</g>
</g>
<!-- Node13&#45;&gt;Node14 -->
<g id="edge14" class="edge"><title>Node13&#45;&gt;Node14</title>
<path fill="none" stroke="midnightblue" d="M253,-347.805C253,-338.91 253,-328.78 253,-321.751"/>
<polygon fill="midnightblue" stroke="midnightblue" points="249.5,-348.083 253,-358.083 256.5,-348.083 249.5,-348.083"/>
</g>
<!-- Node14&#45;&gt;Node3 -->
<g id="edge20" class="edge"><title>Node14&#45;&gt;Node3</title>
<path fill="none" stroke="midnightblue" d="M275.657,-297.244C294.589,-285.75 320.986,-269.723 336.985,-260.009"/>
<polygon fill="midnightblue" stroke="midnightblue" points="273.772,-294.294 267.041,-302.475 277.405,-300.277 273.772,-294.294"/>
</g>
<!-- Node14&#45;&gt;Node4 -->
<g id="edge17" class="edge"><title>Node14&#45;&gt;Node4</title>
<path fill="none" stroke="midnightblue" d="M329.468,-303.49C362.607,-297.356 400.487,-286.218 430,-266 457.795,-246.959 476.771,-209.973 484.333,-193.175"/>
<polygon fill="midnightblue" stroke="midnightblue" points="328.609,-300.086 319.35,-305.237 329.8,-306.984 328.609,-300.086"/>
</g>
<!-- Node14&#45;&gt;Node6 -->
<g id="edge18" class="edge"><title>Node14&#45;&gt;Node6</title>
<path fill="none" stroke="midnightblue" d="M247.259,-292.768C244.702,-284.591 241.671,-274.821 239,-266 230.964,-239.46 221.788,-207.947 217.48,-193.078"/>
<polygon fill="midnightblue" stroke="midnightblue" points="243.943,-293.892 250.277,-302.385 250.622,-291.796 243.943,-293.892"/>
</g>
<!-- Node14&#45;&gt;Node10 -->
<g id="edge19" class="edge"><title>Node14&#45;&gt;Node10</title>
<path fill="none" stroke="midnightblue" d="M253.883,-292.132C255.49,-275.691 259.919,-251.901 272,-235 286.166,-215.183 310.758,-201.174 328.548,-193.016"/>
<polygon fill="midnightblue" stroke="midnightblue" points="250.388,-291.94 253.162,-302.165 257.37,-292.441 250.388,-291.94"/>
</g>
<!-- Node15 -->
<g id="node15" class="node"><title>Node15</title>
<g id="a_node15"><a xlink:href="_listener_client_request_8h.html" target="_top" xlink:title=" ">
<polygon fill="white" stroke="black" points="24,-235.5 24,-265.5 162,-265.5 162,-235.5 24,-235.5"/>
<text text-anchor="start" x="32" y="-253.5" font-family="Helvetica,sans-Serif" font-size="10.00">Cpl/Io/Socket/ListenerClient</text>
<text text-anchor="middle" x="93" y="-242.5" font-family="Helvetica,sans-Serif" font-size="10.00">Request.h</text>
</a>
</g>
</g>
<!-- Node14&#45;&gt;Node15 -->
<g id="edge15" class="edge"><title>Node14&#45;&gt;Node15</title>
<path fill="none" stroke="midnightblue" d="M220.665,-298.976C194.651,-289.302 158.054,-275.692 130.709,-265.523"/>
<polygon fill="midnightblue" stroke="midnightblue" points="219.483,-302.27 230.076,-302.475 221.923,-295.709 219.483,-302.27"/>
</g>
<!-- Node16 -->
<g id="node16" class="node"><title>Node16</title>
<g id="a_node16"><a xlink:href="_listener_client_sync_8h.html" target="_top" xlink:title=" ">
<polygon fill="white" stroke="black" points="0,-168.5 0,-198.5 138,-198.5 138,-168.5 0,-168.5"/>
<text text-anchor="start" x="8" y="-186.5" font-family="Helvetica,sans-Serif" font-size="10.00">Cpl/Io/Socket/ListenerClient</text>
<text text-anchor="middle" x="69" y="-175.5" font-family="Helvetica,sans-Serif" font-size="10.00">Sync.h</text>
</a>
</g>
</g>
<!-- Node15&#45;&gt;Node16 -->
<g id="edge16" class="edge"><title>Node15&#45;&gt;Node16</title>
<path fill="none" stroke="midnightblue" d="M84.3196,-225.991C80.9278,-216.804 77.1519,-206.578 74.1975,-198.577"/>
<polygon fill="midnightblue" stroke="midnightblue" points="81.0452,-227.227 87.7924,-235.396 87.6119,-224.803 81.0452,-227.227"/>
</g>
<!-- Node17&#45;&gt;Node4 -->
<g id="edge22" class="edge"><title>Node17&#45;&gt;Node4</title>
<path fill="none" stroke="midnightblue" d="M532.145,-233.135C520.607,-220.423 505.063,-203.298 495.831,-193.127"/>
<polygon fill="midnightblue" stroke="midnightblue" points="529.73,-235.682 539.043,-240.734 534.914,-230.977 529.73,-235.682"/>
</g>
<!-- Node17&#45;&gt;Node5 -->
<g id="edge23" class="edge"><title>Node17&#45;&gt;Node5</title>
<path fill="none" stroke="midnightblue" d="M553.453,-231.203C558.4,-214.526 563.523,-189.315 558,-168 554.458,-154.331 545.765,-140.393 539.629,-131.725"/>
<polygon fill="midnightblue" stroke="midnightblue" points="550.095,-230.212 550.341,-240.804 556.754,-232.37 550.095,-230.212"/>
</g>
</g>
</svg>
