<?xml version="1.0" encoding="UTF-8" standalone="no"?>
<!DOCTYPE svg PUBLIC "-//W3C//DTD SVG 1.1//EN"
 "http://www.w3.org/Graphics/SVG/1.1/DTD/svg11.dtd">
<!-- Generated by graphviz version 2.38.0 (20140413.2041)
 -->
<!-- Title: Cpl/Container/RingBuffer.h Pages: 1 -->
<svg width="155pt" height="207pt"
 viewBox="0.00 0.00 155.00 207.00" xmlns="http://www.w3.org/2000/svg" xmlns:xlink="http://www.w3.org/1999/xlink">
<g id="graph0" class="graph" transform="scale(1 1) rotate(0) translate(4 203)">
<title>Cpl/Container/RingBuffer.h</title>
<polygon fill="white" stroke="none" points="-4,4 -4,-203 151,-203 151,4 -4,4"/>
<!-- Node1 -->
<g id="node1" class="node"><title>Node1</title>
<g id="a_node1"><a xlink:title=" ">
<polygon fill="#bfbfbf" stroke="black" points="7.5,-179.5 7.5,-198.5 139.5,-198.5 139.5,-179.5 7.5,-179.5"/>
<text text-anchor="middle" x="73.5" y="-186.5" font-family="Helvetica,sans-Serif" font-size="10.00">Cpl/Container/RingBuffer.h</text>
</a>
</g>
</g>
<!-- Node2 -->
<g id="node2" class="node"><title>Node2</title>
<g id="a_node2"><a xlink:href="_ring_buffer_m_t_8h.html" target="_top" xlink:title=" ">
<polygon fill="white" stroke="black" points="0.5,-123.5 0.5,-142.5 146.5,-142.5 146.5,-123.5 0.5,-123.5"/>
<text text-anchor="middle" x="73.5" y="-130.5" font-family="Helvetica,sans-Serif" font-size="10.00">Cpl/Container/RingBufferMT.h</text>
</a>
</g>
</g>
<!-- Node1&#45;&gt;Node2 -->
<g id="edge1" class="edge"><title>Node1&#45;&gt;Node2</title>
<path fill="none" stroke="midnightblue" d="M73.5,-168.805C73.5,-159.91 73.5,-149.78 73.5,-142.751"/>
<polygon fill="midnightblue" stroke="midnightblue" points="70.0001,-169.083 73.5,-179.083 77.0001,-169.083 70.0001,-169.083"/>
</g>
<!-- Node3 -->
<g id="node3" class="node"><title>Node3</title>
<g id="a_node3"><a xlink:href="_ring_buffer_m_p_8h.html" target="_top" xlink:title=" ">
<polygon fill="white" stroke="black" points="0,-67.5 0,-86.5 147,-86.5 147,-67.5 0,-67.5"/>
<text text-anchor="middle" x="73.5" y="-74.5" font-family="Helvetica,sans-Serif" font-size="10.00">Cpl/Container/RingBufferMP.h</text>
</a>
</g>
</g>
<!-- Node2&#45;&gt;Node3 -->
<g id="edge2" class="edge"><title>Node2&#45;&gt;Node3</title>
<path fill="none" stroke="midnightblue" d="M73.5,-112.805C73.5,-103.91 73.5,-93.7798 73.5,-86.7511"/>
<polygon fill="midnightblue" stroke="midnightblue" points="70.0001,-113.083 73.5,-123.083 77.0001,-113.083 70.0001,-113.083"/>
</g>
<!-- Node4 -->
<g id="node4" class="node"><title>Node4</title>
<g id="a_node4"><a xlink:href="_indexed_entry_server_8h.html" target="_top" xlink:title=" ">
<polygon fill="white" stroke="black" points="4,-0.5 4,-30.5 143,-30.5 143,-0.5 4,-0.5"/>
<text text-anchor="start" x="12" y="-18.5" font-family="Helvetica,sans-Serif" font-size="10.00">Cpl/Persistent/IndexedEntry</text>
<text text-anchor="middle" x="73.5" y="-7.5" font-family="Helvetica,sans-Serif" font-size="10.00">Server.h</text>
</a>
</g>
</g>
<!-- Node3&#45;&gt;Node4 -->
<g id="edge3" class="edge"><title>Node3&#45;&gt;Node4</title>
<path fill="none" stroke="midnightblue" d="M73.5,-57.2349C73.5,-48.5864 73.5,-38.4969 73.5,-30.523"/>
<polygon fill="midnightblue" stroke="midnightblue" points="70.0001,-57.4751 73.5,-67.4751 77.0001,-57.4751 70.0001,-57.4751"/>
</g>
</g>
</svg>
