<?xml version="1.0" encoding="UTF-8" standalone="no"?>
<!DOCTYPE svg PUBLIC "-//W3C//DTD SVG 1.1//EN"
 "http://www.w3.org/Graphics/SVG/1.1/DTD/svg11.dtd">
<!-- Generated by graphviz version 10.0.1 (20240210.2158)
 -->
<!-- Title: Cpl/Container/RingBufferMP.h Pages: 1 -->
<svg width="388pt" height="164pt"
 viewBox="0.00 0.00 388.00 164.00" xmlns="http://www.w3.org/2000/svg" xmlns:xlink="http://www.w3.org/1999/xlink">
<g id="graph0" class="graph" transform="scale(1 1) rotate(0) translate(4 160)">
<title>Cpl/Container/RingBufferMP.h</title>
<!-- Node1 -->
<g id="Node000001" class="node">
<title>Node1</title>
<g id="a_Node000001"><a xlink:title=" ">
<polygon fill="#999999" stroke="#666666" points="239.75,-156 94.75,-156 94.75,-136 239.75,-136 239.75,-156"/>
<text text-anchor="middle" x="167.25" y="-142.5" font-family="Helvetica,sans-Serif" font-size="10.00">Cpl/Container/RingBufferMP.h</text>
</a>
</g>
</g>
<!-- Node2 -->
<g id="Node000002" class="node">
<title>Node2</title>
<g id="a_Node000002"><a xlink:href="_cpl_2_logging_2_api_8h.html" target="_top" xlink:title=" ">
<polygon fill="white" stroke="#666666" points="92.5,-94 0,-94 0,-74 92.5,-74 92.5,-94"/>
<text text-anchor="middle" x="46.25" y="-80.5" font-family="Helvetica,sans-Serif" font-size="10.00">Cpl/Logging/Api.h</text>
</a>
</g>
</g>
<!-- Node1&#45;&gt;Node2 -->
<g id="edge1_Node000001_Node000002" class="edge">
<title>Node1&#45;&gt;Node2</title>
<g id="a_edge1_Node000001_Node000002"><a xlink:title=" ">
<path fill="none" stroke="#63b8ff" d="M138.25,-130.62C115.53,-119.35 84.6,-104.01 65.02,-94.31"/>
<polygon fill="#63b8ff" stroke="#63b8ff" points="136.47,-133.65 146.99,-134.95 139.58,-127.37 136.47,-133.65"/>
</a>
</g>
</g>
<!-- Node3 -->
<g id="Node000003" class="node">
<title>Node3</title>
<g id="a_Node000003"><a xlink:href="_log_sink_8h.html" target="_top" xlink:title=" ">
<polygon fill="white" stroke="#666666" points="224,-94 110.5,-94 110.5,-74 224,-74 224,-94"/>
<text text-anchor="middle" x="167.25" y="-80.5" font-family="Helvetica,sans-Serif" font-size="10.00">Cpl/Logging/LogSink.h</text>
</a>
</g>
</g>
<!-- Node1&#45;&gt;Node3 -->
<g id="edge2_Node000001_Node000003" class="edge">
<title>Node1&#45;&gt;Node3</title>
<g id="a_edge2_Node000001_Node000003"><a xlink:title=" ">
<path fill="none" stroke="#63b8ff" d="M167.25,-124.25C167.25,-113.97 167.25,-102.09 167.25,-94.11"/>
<polygon fill="#63b8ff" stroke="#63b8ff" points="163.75,-124.11 167.25,-134.11 170.75,-124.11 163.75,-124.11"/>
</a>
</g>
</g>
<!-- Node4 -->
<g id="Node000004" class="node">
<title>Node4</title>
<g id="a_Node000004"><a xlink:href="_indexed_entry_server_8h.html" target="_top" xlink:title=" ">
<polygon fill="white" stroke="#666666" points="380,-100 242.5,-100 242.5,-68 380,-68 380,-100"/>
<text text-anchor="start" x="250.5" y="-86.5" font-family="Helvetica,sans-Serif" font-size="10.00">Cpl/Persistent/IndexedEntry</text>
<text text-anchor="middle" x="311.25" y="-74.5" font-family="Helvetica,sans-Serif" font-size="10.00">Server.h</text>
</a>
</g>
</g>
<!-- Node1&#45;&gt;Node4 -->
<g id="edge3_Node000001_Node000004" class="edge">
<title>Node1&#45;&gt;Node4</title>
<g id="a_edge3_Node000001_Node000004"><a xlink:title=" ">
<path fill="none" stroke="#63b8ff" d="M200.25,-131.25C222.26,-122.08 251.24,-110 274.07,-100.49"/>
<polygon fill="#63b8ff" stroke="#63b8ff" points="199.03,-127.97 191.15,-135.04 201.72,-134.43 199.03,-127.97"/>
</a>
</g>
</g>
<!-- Node5 -->
<g id="Node000005" class="node">
<title>Node5</title>
<g id="a_Node000005"><a xlink:href="_cpl_2_logging_2_t_shell_2_log_8h.html" target="_top" xlink:title=" ">
<polygon fill="white" stroke="#666666" points="359.75,-32 262.75,-32 262.75,0 359.75,0 359.75,-32"/>
<text text-anchor="start" x="270.75" y="-18.5" font-family="Helvetica,sans-Serif" font-size="10.00">Cpl/Logging/TShell</text>
<text text-anchor="middle" x="311.25" y="-6.5" font-family="Helvetica,sans-Serif" font-size="10.00">/Log.h</text>
</a>
</g>
</g>
<!-- Node4&#45;&gt;Node5 -->
<g id="edge4_Node000004_Node000005" class="edge">
<title>Node4&#45;&gt;Node5</title>
<g id="a_edge4_Node000004_Node000005"><a xlink:title=" ">
<path fill="none" stroke="#63b8ff" d="M311.25,-56.31C311.25,-48.12 311.25,-39.38 311.25,-32.22"/>
<polygon fill="#63b8ff" stroke="#63b8ff" points="307.75,-56.18 311.25,-66.18 314.75,-56.18 307.75,-56.18"/>
</a>
</g>
</g>
</g>
</svg>
