<?xml version="1.0" encoding="UTF-8" standalone="no"?>
<!DOCTYPE svg PUBLIC "-//W3C//DTD SVG 1.1//EN"
 "http://www.w3.org/Graphics/SVG/1.1/DTD/svg11.dtd">
<!-- Generated by graphviz version 2.38.0 (20140413.2041)
 -->
<!-- Title: Cpl/Dm/RmwComposer.h Pages: 1 -->
<svg width="676pt" height="364pt"
 viewBox="0.00 0.00 675.50 364.00" xmlns="http://www.w3.org/2000/svg" xmlns:xlink="http://www.w3.org/1999/xlink">
<g id="graph0" class="graph" transform="scale(1 1) rotate(0) translate(4 360)">
<title>Cpl/Dm/RmwComposer.h</title>
<polygon fill="white" stroke="none" points="-4,4 -4,-360 671.5,-360 671.5,4 -4,4"/>
<!-- Node1 -->
<g id="node1" class="node"><title>Node1</title>
<g id="a_node1"><a xlink:title=" ">
<polygon fill="#bfbfbf" stroke="black" points="225,-336.5 225,-355.5 351,-355.5 351,-336.5 225,-336.5"/>
<text text-anchor="middle" x="288" y="-343.5" font-family="Helvetica,sans-Serif" font-size="10.00">Cpl/Dm/RmwComposer.h</text>
</a>
</g>
</g>
<!-- Node2 -->
<g id="node2" class="node"><title>Node2</title>
<g id="a_node2"><a xlink:href="_model_point_8h.html" target="_top" xlink:title=" ">
<polygon fill="white" stroke="black" points="233.5,-280.5 233.5,-299.5 342.5,-299.5 342.5,-280.5 233.5,-280.5"/>
<text text-anchor="middle" x="288" y="-287.5" font-family="Helvetica,sans-Serif" font-size="10.00">Cpl/Dm/ModelPoint.h</text>
</a>
</g>
</g>
<!-- Node1&#45;&gt;Node2 -->
<g id="edge1" class="edge"><title>Node1&#45;&gt;Node2</title>
<path fill="none" stroke="midnightblue" d="M288,-336.083C288,-329.006 288,-318.861 288,-309.986"/>
<polygon fill="midnightblue" stroke="midnightblue" points="291.5,-309.751 288,-299.751 284.5,-309.751 291.5,-309.751"/>
</g>
<!-- Node3 -->
<g id="node3" class="node"><title>Node3</title>
<g id="a_node3"><a xlink:title=" ">
<polygon fill="white" stroke="#bfbfbf" points="67.5,-0.5 67.5,-19.5 152.5,-19.5 152.5,-0.5 67.5,-0.5"/>
<text text-anchor="middle" x="110" y="-7.5" font-family="Helvetica,sans-Serif" font-size="10.00">colony_config.h</text>
</a>
</g>
</g>
<!-- Node2&#45;&gt;Node3 -->
<g id="edge2" class="edge"><title>Node2&#45;&gt;Node3</title>
<path fill="none" stroke="midnightblue" d="M233.197,-283.714C190.626,-278.04 130.962,-266.593 83,-244 40.6127,-224.033 0,-225.855 0,-179 0,-179 0,-179 0,-121 0,-74.9105 48.8818,-41.3874 81.4744,-24.158"/>
<polygon fill="midnightblue" stroke="midnightblue" points="83.2524,-27.1807 90.5874,-19.5356 80.0858,-20.9379 83.2524,-27.1807"/>
</g>
<!-- Node4 -->
<g id="node4" class="node"><title>Node4</title>
<g id="a_node4"><a xlink:href="_map_item_8h.html" target="_top" xlink:title=" ">
<polygon fill="white" stroke="black" points="159.5,-224.5 159.5,-243.5 284.5,-243.5 284.5,-224.5 159.5,-224.5"/>
<text text-anchor="middle" x="222" y="-231.5" font-family="Helvetica,sans-Serif" font-size="10.00">Cpl/Container/MapItem.h</text>
</a>
</g>
</g>
<!-- Node2&#45;&gt;Node4 -->
<g id="edge3" class="edge"><title>Node2&#45;&gt;Node4</title>
<path fill="none" stroke="midnightblue" d="M277.396,-280.324C267.544,-272.263 252.649,-260.077 240.785,-250.369"/>
<polygon fill="midnightblue" stroke="midnightblue" points="242.753,-247.457 232.797,-243.834 238.32,-252.875 242.753,-247.457"/>
</g>
<!-- Node9 -->
<g id="node9" class="node"><title>Node9</title>
<g id="a_node9"><a xlink:title=" ">
<polygon fill="white" stroke="#bfbfbf" points="215,-0.5 215,-19.5 267,-19.5 267,-0.5 215,-0.5"/>
<text text-anchor="middle" x="241" y="-7.5" font-family="Helvetica,sans-Serif" font-size="10.00">stddef.h</text>
</a>
</g>
</g>
<!-- Node2&#45;&gt;Node9 -->
<g id="edge24" class="edge"><title>Node2&#45;&gt;Node9</title>
<path fill="none" stroke="midnightblue" d="M342.68,-288.323C416.795,-284.182 540,-264.448 540,-179 540,-179 540,-179 540,-121 540,-65.5511 356.595,-29.4834 277.069,-16.4504"/>
<polygon fill="midnightblue" stroke="midnightblue" points="277.44,-12.9653 267.011,-14.8346 276.329,-19.8766 277.44,-12.9653"/>
</g>
<!-- Node10 -->
<g id="node10" class="node"><title>Node10</title>
<g id="a_node10"><a xlink:title=" ">
<polygon fill="white" stroke="#bfbfbf" points="47.5,-56.5 47.5,-75.5 96.5,-75.5 96.5,-56.5 47.5,-56.5"/>
<text text-anchor="middle" x="72" y="-63.5" font-family="Helvetica,sans-Serif" font-size="10.00">stdint.h</text>
</a>
</g>
</g>
<!-- Node2&#45;&gt;Node10 -->
<g id="edge25" class="edge"><title>Node2&#45;&gt;Node10</title>
<path fill="none" stroke="midnightblue" d="M233.347,-284.144C175.999,-275.64 89.7224,-252.259 57,-188 40.0224,-154.66 53.6389,-109.678 63.6964,-85.0228"/>
<polygon fill="midnightblue" stroke="midnightblue" points="66.9306,-86.3617 67.6893,-75.7941 60.5061,-83.5821 66.9306,-86.3617"/>
</g>
<!-- Node13 -->
<g id="node13" class="node"><title>Node13</title>
<g id="a_node13"><a xlink:href="_text_2_string_8h.html" target="_top" xlink:title=" ">
<polygon fill="white" stroke="black" points="385,-168.5 385,-187.5 475,-187.5 475,-168.5 385,-168.5"/>
<text text-anchor="middle" x="430" y="-175.5" font-family="Helvetica,sans-Serif" font-size="10.00">Cpl/Text/String.h</text>
</a>
</g>
</g>
<!-- Node2&#45;&gt;Node13 -->
<g id="edge13" class="edge"><title>Node2&#45;&gt;Node13</title>
<path fill="none" stroke="midnightblue" d="M342.671,-281.523C367.662,-275.396 395.706,-264.255 414,-244 425.309,-231.478 428.937,-212.253 429.959,-197.955"/>
<polygon fill="midnightblue" stroke="midnightblue" points="433.463,-197.883 430.316,-187.767 426.468,-197.638 433.463,-197.883"/>
</g>
<!-- Node16 -->
<g id="node16" class="node"><title>Node16</title>
<g id="a_node16"><a xlink:href="_static_info_8h.html" target="_top" xlink:title=" ">
<polygon fill="white" stroke="black" points="303,-224.5 303,-243.5 405,-243.5 405,-224.5 303,-224.5"/>
<text text-anchor="middle" x="354" y="-231.5" font-family="Helvetica,sans-Serif" font-size="10.00">Cpl/Dm/StaticInfo.h</text>
</a>
</g>
</g>
<!-- Node2&#45;&gt;Node16 -->
<g id="edge18" class="edge"><title>Node2&#45;&gt;Node16</title>
<path fill="none" stroke="midnightblue" d="M298.604,-280.324C308.456,-272.263 323.351,-260.077 335.215,-250.369"/>
<polygon fill="midnightblue" stroke="midnightblue" points="337.68,-252.875 343.203,-243.834 333.247,-247.457 337.68,-252.875"/>
</g>
<!-- Node17 -->
<g id="node17" class="node"><title>Node17</title>
<g id="a_node17"><a xlink:href="_subscriber_api_8h.html" target="_top" xlink:title=" ">
<polygon fill="white" stroke="black" points="66.5,-168.5 66.5,-187.5 187.5,-187.5 187.5,-168.5 66.5,-168.5"/>
<text text-anchor="middle" x="127" y="-175.5" font-family="Helvetica,sans-Serif" font-size="10.00">Cpl/Dm/SubscriberApi.h</text>
</a>
</g>
</g>
<!-- Node2&#45;&gt;Node17 -->
<g id="edge20" class="edge"><title>Node2&#45;&gt;Node17</title>
<path fill="none" stroke="midnightblue" d="M233.267,-282.778C205.179,-276.968 172.279,-265.731 150,-244 137.559,-231.865 131.832,-212.587 129.204,-198.172"/>
<polygon fill="midnightblue" stroke="midnightblue" points="132.609,-197.268 127.693,-187.883 125.684,-198.286 132.609,-197.268"/>
</g>
<!-- Node18 -->
<g id="node18" class="node"><title>Node18</title>
<g id="a_node18"><a xlink:href="_arduino_8h_source.html" target="_top" xlink:title=" ">
<polygon fill="white" stroke="black" points="568.5,-224.5 568.5,-243.5 667.5,-243.5 667.5,-224.5 568.5,-224.5"/>
<text text-anchor="middle" x="618" y="-231.5" font-family="Helvetica,sans-Serif" font-size="10.00">Cpl/Json/Arduino.h</text>
</a>
</g>
</g>
<!-- Node2&#45;&gt;Node18 -->
<g id="edge23" class="edge"><title>Node2&#45;&gt;Node18</title>
<path fill="none" stroke="midnightblue" d="M340.289,-280.444C399.597,-270.739 496.12,-254.944 558.325,-244.765"/>
<polygon fill="midnightblue" stroke="midnightblue" points="559.079,-248.188 568.383,-243.119 557.949,-241.28 559.079,-248.188"/>
</g>
<!-- Node5 -->
<g id="node5" class="node"><title>Node5</title>
<g id="a_node5"><a xlink:href="_dict_item_8h.html" target="_top" xlink:title=" ">
<polygon fill="white" stroke="black" points="205.5,-168.5 205.5,-187.5 328.5,-187.5 328.5,-168.5 205.5,-168.5"/>
<text text-anchor="middle" x="267" y="-175.5" font-family="Helvetica,sans-Serif" font-size="10.00">Cpl/Container/DictItem.h</text>
</a>
</g>
</g>
<!-- Node4&#45;&gt;Node5 -->
<g id="edge4" class="edge"><title>Node4&#45;&gt;Node5</title>
<path fill="none" stroke="midnightblue" d="M229.431,-224.083C235.853,-216.377 245.306,-205.033 253.122,-195.653"/>
<polygon fill="midnightblue" stroke="midnightblue" points="255.994,-197.674 259.707,-187.751 250.617,-193.193 255.994,-197.674"/>
</g>
<!-- Node6 -->
<g id="node6" class="node"><title>Node6</title>
<g id="a_node6"><a xlink:href="_item_8h.html" target="_top" xlink:title=" ">
<polygon fill="white" stroke="black" points="104,-112.5 104,-131.5 210,-131.5 210,-112.5 104,-112.5"/>
<text text-anchor="middle" x="157" y="-119.5" font-family="Helvetica,sans-Serif" font-size="10.00">Cpl/Container/Item.h</text>
</a>
</g>
</g>
<!-- Node5&#45;&gt;Node6 -->
<g id="edge5" class="edge"><title>Node5&#45;&gt;Node6</title>
<path fill="none" stroke="midnightblue" d="M249.327,-168.324C231.606,-159.625 204.097,-146.12 183.712,-136.113"/>
<polygon fill="midnightblue" stroke="midnightblue" points="185.149,-132.919 174.63,-131.655 182.064,-139.203 185.149,-132.919"/>
</g>
<!-- Node7 -->
<g id="node7" class="node"><title>Node7</title>
<g id="a_node7"><a xlink:href="_key_8h.html" target="_top" xlink:title=" ">
<polygon fill="white" stroke="black" points="228,-112.5 228,-131.5 332,-131.5 332,-112.5 228,-112.5"/>
<text text-anchor="middle" x="280" y="-119.5" font-family="Helvetica,sans-Serif" font-size="10.00">Cpl/Container/Key.h</text>
</a>
</g>
</g>
<!-- Node5&#45;&gt;Node7 -->
<g id="edge6" class="edge"><title>Node5&#45;&gt;Node7</title>
<path fill="none" stroke="midnightblue" d="M269.147,-168.083C270.869,-160.927 273.347,-150.635 275.5,-141.691"/>
<polygon fill="midnightblue" stroke="midnightblue" points="278.955,-142.293 277.893,-131.751 272.15,-140.654 278.955,-142.293"/>
</g>
<!-- Node8 -->
<g id="node8" class="node"><title>Node8</title>
<g id="a_node8"><a xlink:href="_fatal_error_8h.html" target="_top" xlink:title=" ">
<polygon fill="white" stroke="black" points="115,-56.5 115,-75.5 237,-75.5 237,-56.5 115,-56.5"/>
<text text-anchor="middle" x="176" y="-63.5" font-family="Helvetica,sans-Serif" font-size="10.00">Cpl/System/FatalError.h</text>
</a>
</g>
</g>
<!-- Node7&#45;&gt;Node8 -->
<g id="edge7" class="edge"><title>Node7&#45;&gt;Node8</title>
<path fill="none" stroke="midnightblue" d="M263.291,-112.324C246.688,-103.703 220.998,-90.3643 201.78,-80.3855"/>
<polygon fill="midnightblue" stroke="midnightblue" points="203.156,-77.1565 192.668,-75.6545 199.93,-83.3689 203.156,-77.1565"/>
</g>
<!-- Node7&#45;&gt;Node10 -->
<g id="edge10" class="edge"><title>Node7&#45;&gt;Node10</title>
<path fill="none" stroke="midnightblue" d="M246.628,-112.43C213.575,-103.928 161.254,-90.4339 106.412,-76.0964"/>
<polygon fill="midnightblue" stroke="midnightblue" points="107.07,-72.6509 96.5096,-73.5057 105.298,-79.423 107.07,-72.6509"/>
</g>
<!-- Node11 -->
<g id="node11" class="node"><title>Node11</title>
<g id="a_node11"><a xlink:title=" ">
<polygon fill="white" stroke="#bfbfbf" points="255.5,-56.5 255.5,-75.5 304.5,-75.5 304.5,-56.5 255.5,-56.5"/>
<text text-anchor="middle" x="280" y="-63.5" font-family="Helvetica,sans-Serif" font-size="10.00">string.h</text>
</a>
</g>
</g>
<!-- Node7&#45;&gt;Node11 -->
<g id="edge11" class="edge"><title>Node7&#45;&gt;Node11</title>
<path fill="none" stroke="midnightblue" d="M280,-112.083C280,-105.006 280,-94.8611 280,-85.9865"/>
<polygon fill="midnightblue" stroke="midnightblue" points="283.5,-85.751 280,-75.7511 276.5,-85.7511 283.5,-85.751"/>
</g>
<!-- Node12 -->
<g id="node12" class="node"><title>Node12</title>
<g id="a_node12"><a xlink:title=" ">
<polygon fill="white" stroke="#bfbfbf" points="322.5,-56.5 322.5,-75.5 399.5,-75.5 399.5,-56.5 322.5,-56.5"/>
<text text-anchor="middle" x="361" y="-63.5" font-family="Helvetica,sans-Serif" font-size="10.00">colony_map.h</text>
</a>
</g>
</g>
<!-- Node7&#45;&gt;Node12 -->
<g id="edge12" class="edge"><title>Node7&#45;&gt;Node12</title>
<path fill="none" stroke="midnightblue" d="M293.014,-112.324C305.532,-103.979 324.682,-91.2122 339.471,-81.3524"/>
<polygon fill="midnightblue" stroke="midnightblue" points="341.639,-84.1137 348.018,-75.6545 337.756,-78.2894 341.639,-84.1137"/>
</g>
<!-- Node8&#45;&gt;Node3 -->
<g id="edge9" class="edge"><title>Node8&#45;&gt;Node3</title>
<path fill="none" stroke="midnightblue" d="M165.396,-56.324C155.544,-48.2631 140.649,-36.0765 128.785,-26.3695"/>
<polygon fill="midnightblue" stroke="midnightblue" points="130.753,-23.4575 120.797,-19.8339 126.32,-28.8752 130.753,-23.4575"/>
</g>
<!-- Node8&#45;&gt;Node9 -->
<g id="edge8" class="edge"><title>Node8&#45;&gt;Node9</title>
<path fill="none" stroke="midnightblue" d="M186.443,-56.324C196.146,-48.2631 210.815,-36.0765 222.5,-26.3695"/>
<polygon fill="midnightblue" stroke="midnightblue" points="224.911,-28.9163 230.367,-19.8339 220.438,-23.532 224.911,-28.9163"/>
</g>
<!-- Node13&#45;&gt;Node7 -->
<g id="edge15" class="edge"><title>Node13&#45;&gt;Node7</title>
<path fill="none" stroke="midnightblue" d="M406.232,-168.444C381.107,-159.399 341.289,-145.064 313.1,-134.916"/>
<polygon fill="midnightblue" stroke="midnightblue" points="314.251,-131.611 303.657,-131.516 311.88,-138.197 314.251,-131.611"/>
</g>
<!-- Node13&#45;&gt;Node12 -->
<g id="edge14" class="edge"><title>Node13&#45;&gt;Node12</title>
<path fill="none" stroke="midnightblue" d="M416.301,-168.288C404.713,-160.228 388.518,-147.216 379,-132 370.17,-117.885 365.596,-99.3974 363.274,-85.749"/>
<polygon fill="midnightblue" stroke="midnightblue" points="366.705,-85.0205 361.81,-75.6247 359.778,-86.0229 366.705,-85.0205"/>
</g>
<!-- Node14 -->
<g id="node14" class="node"><title>Node14</title>
<g id="a_node14"><a xlink:title=" ">
<polygon fill="white" stroke="#bfbfbf" points="388,-112.5 388,-131.5 440,-131.5 440,-112.5 388,-112.5"/>
<text text-anchor="middle" x="414" y="-119.5" font-family="Helvetica,sans-Serif" font-size="10.00">stdarg.h</text>
</a>
</g>
</g>
<!-- Node13&#45;&gt;Node14 -->
<g id="edge16" class="edge"><title>Node13&#45;&gt;Node14</title>
<path fill="none" stroke="midnightblue" d="M427.358,-168.083C425.214,-160.849 422.121,-150.409 419.451,-141.397"/>
<polygon fill="midnightblue" stroke="midnightblue" points="422.79,-140.345 416.593,-131.751 416.078,-142.333 422.79,-140.345"/>
</g>
<!-- Node15 -->
<g id="node15" class="node"><title>Node15</title>
<g id="a_node15"><a xlink:title=" ">
<polygon fill="white" stroke="#bfbfbf" points="458,-112.5 458,-131.5 512,-131.5 512,-112.5 458,-112.5"/>
<text text-anchor="middle" x="485" y="-119.5" font-family="Helvetica,sans-Serif" font-size="10.00">iostream</text>
</a>
</g>
</g>
<!-- Node13&#45;&gt;Node15 -->
<g id="edge17" class="edge"><title>Node13&#45;&gt;Node15</title>
<path fill="none" stroke="midnightblue" d="M439.082,-168.083C447.171,-160.141 459.195,-148.335 468.91,-138.797"/>
<polygon fill="midnightblue" stroke="midnightblue" points="471.403,-141.254 476.087,-131.751 466.499,-136.26 471.403,-141.254"/>
</g>
<!-- Node16&#45;&gt;Node7 -->
<g id="edge19" class="edge"><title>Node16&#45;&gt;Node7</title>
<path fill="none" stroke="midnightblue" d="M353.472,-224.3C352.31,-211.125 348.619,-185.767 337,-168 328.832,-155.511 316.033,-144.951 304.631,-137.206"/>
<polygon fill="midnightblue" stroke="midnightblue" points="306.209,-134.061 295.901,-131.615 302.434,-139.956 306.209,-134.061"/>
</g>
<!-- Node17&#45;&gt;Node6 -->
<g id="edge21" class="edge"><title>Node17&#45;&gt;Node6</title>
<path fill="none" stroke="midnightblue" d="M131.954,-168.083C136.104,-160.613 142.153,-149.724 147.267,-140.52"/>
<polygon fill="midnightblue" stroke="midnightblue" points="150.341,-142.192 152.138,-131.751 144.222,-138.793 150.341,-142.192"/>
</g>
<!-- Node17&#45;&gt;Node10 -->
<g id="edge22" class="edge"><title>Node17&#45;&gt;Node10</title>
<path fill="none" stroke="midnightblue" d="M119.592,-168.174C112.535,-159.432 101.983,-145.441 95,-132 87.2399,-117.062 81.065,-98.9218 77.0755,-85.6049"/>
<polygon fill="midnightblue" stroke="midnightblue" points="80.366,-84.3816 74.2514,-75.7293 73.6358,-86.3062 80.366,-84.3816"/>
</g>
</g>
</svg>
