<?xml version="1.0" encoding="UTF-8" standalone="no"?>
<!DOCTYPE svg PUBLIC "-//W3C//DTD SVG 1.1//EN"
 "http://www.w3.org/Graphics/SVG/1.1/DTD/svg11.dtd">
<!-- Generated by graphviz version 2.38.0 (20140413.2041)
 -->
<!-- Title: Cpl/System/Runnable.h Pages: 1 -->
<svg width="2059pt" height="408pt"
 viewBox="0.00 0.00 2058.50 408.00" xmlns="http://www.w3.org/2000/svg" xmlns:xlink="http://www.w3.org/1999/xlink">
<g id="graph0" class="graph" transform="scale(1 1) rotate(0) translate(4 404)">
<title>Cpl/System/Runnable.h</title>
<polygon fill="white" stroke="none" points="-4,4 -4,-404 2054.5,-404 2054.5,4 -4,4"/>
<!-- Node1 -->
<g id="node1" class="node"><title>Node1</title>
<g id="a_node1"><a xlink:title=" ">
<polygon fill="#bfbfbf" stroke="black" points="628,-380.5 628,-399.5 747,-399.5 747,-380.5 628,-380.5"/>
<text text-anchor="middle" x="687.5" y="-387.5" font-family="Helvetica,sans-Serif" font-size="10.00">Cpl/System/Runnable.h</text>
</a>
</g>
</g>
<!-- Node2 -->
<g id="node2" class="node"><title>Node2</title>
<g id="a_node2"><a xlink:href="_listener_8h.html" target="_top" xlink:title=" ">
<polygon fill="white" stroke="black" points="345.5,-324.5 345.5,-343.5 467.5,-343.5 467.5,-324.5 345.5,-324.5"/>
<text text-anchor="middle" x="406.5" y="-331.5" font-family="Helvetica,sans-Serif" font-size="10.00">Cpl/Io/Socket/Listener.h</text>
</a>
</g>
</g>
<!-- Node1&#45;&gt;Node2 -->
<g id="edge1" class="edge"><title>Node1&#45;&gt;Node2</title>
<path fill="none" stroke="midnightblue" d="M633.054,-378.537C579.948,-368.332 500.162,-352.999 450.817,-343.516"/>
<polygon fill="midnightblue" stroke="midnightblue" points="632.494,-381.993 642.975,-380.444 633.815,-375.119 632.494,-381.993"/>
</g>
<!-- Node9 -->
<g id="node9" class="node"><title>Node9</title>
<g id="a_node9"><a xlink:href="_system_2_event_loop_8h.html" target="_top" xlink:title=" ">
<polygon fill="white" stroke="black" points="625,-324.5 625,-343.5 750,-343.5 750,-324.5 625,-324.5"/>
<text text-anchor="middle" x="687.5" y="-331.5" font-family="Helvetica,sans-Serif" font-size="10.00">Cpl/System/EventLoop.h</text>
</a>
</g>
</g>
<!-- Node1&#45;&gt;Node9 -->
<g id="edge9" class="edge"><title>Node1&#45;&gt;Node9</title>
<path fill="none" stroke="midnightblue" d="M687.5,-369.805C687.5,-360.91 687.5,-350.78 687.5,-343.751"/>
<polygon fill="midnightblue" stroke="midnightblue" points="684,-370.083 687.5,-380.083 691,-370.083 684,-370.083"/>
</g>
<!-- Node85 -->
<g id="node36" class="node"><title>Node85</title>
<g id="a_node36"><a xlink:href="_thread_8h.html" target="_top" xlink:title=" ">
<polygon fill="white" stroke="black" points="1135,-324.5 1135,-343.5 1244,-343.5 1244,-324.5 1135,-324.5"/>
<text text-anchor="middle" x="1189.5" y="-331.5" font-family="Helvetica,sans-Serif" font-size="10.00">Cpl/System/Thread.h</text>
</a>
</g>
</g>
<!-- Node1&#45;&gt;Node85 -->
<g id="edge49" class="edge"><title>Node1&#45;&gt;Node85</title>
<path fill="none" stroke="midnightblue" d="M757.161,-381.507C858.183,-370.64 1043.27,-350.73 1135,-340.863"/>
<polygon fill="midnightblue" stroke="midnightblue" points="756.626,-378.044 747.057,-382.593 757.374,-385.004 756.626,-378.044"/>
</g>
<!-- Node3 -->
<g id="node3" class="node"><title>Node3</title>
<g id="a_node3"><a xlink:href="_listener_client_request_8h.html" target="_top" xlink:title=" ">
<polygon fill="white" stroke="black" points="113.5,-257.5 113.5,-287.5 251.5,-287.5 251.5,-257.5 113.5,-257.5"/>
<text text-anchor="start" x="121.5" y="-275.5" font-family="Helvetica,sans-Serif" font-size="10.00">Cpl/Io/Socket/ListenerClient</text>
<text text-anchor="middle" x="182.5" y="-264.5" font-family="Helvetica,sans-Serif" font-size="10.00">Request.h</text>
</a>
</g>
</g>
<!-- Node2&#45;&gt;Node3 -->
<g id="edge2" class="edge"><title>Node2&#45;&gt;Node3</title>
<path fill="none" stroke="midnightblue" d="M364.558,-321.859C327.984,-312.144 274.756,-298.006 235.292,-287.523"/>
<polygon fill="midnightblue" stroke="midnightblue" points="363.843,-325.291 374.406,-324.475 365.64,-318.525 363.843,-325.291"/>
</g>
<!-- Node4 -->
<g id="node4" class="node"><title>Node4</title>
<g id="a_node4"><a xlink:href="_listener_client_sync_8h.html" target="_top" xlink:title=" ">
<polygon fill="white" stroke="black" points="64.5,-190.5 64.5,-220.5 202.5,-220.5 202.5,-190.5 64.5,-190.5"/>
<text text-anchor="start" x="72.5" y="-208.5" font-family="Helvetica,sans-Serif" font-size="10.00">Cpl/Io/Socket/ListenerClient</text>
<text text-anchor="middle" x="133.5" y="-197.5" font-family="Helvetica,sans-Serif" font-size="10.00">Sync.h</text>
</a>
</g>
</g>
<!-- Node2&#45;&gt;Node4 -->
<g id="edge4" class="edge"><title>Node2&#45;&gt;Node4</title>
<path fill="none" stroke="midnightblue" d="M334.906,-332.676C255.179,-330.613 133.649,-321.814 104.5,-288 87.6339,-268.435 106.523,-238.37 120.734,-220.746"/>
<polygon fill="midnightblue" stroke="midnightblue" points="335.302,-336.185 345.379,-332.914 335.462,-329.187 335.302,-336.185"/>
</g>
<!-- Node5 -->
<g id="node5" class="node"><title>Node5</title>
<g id="a_node5"><a xlink:href="_listener___8h.html" target="_top" xlink:title=" ">
<polygon fill="white" stroke="black" points="477,-263 477,-282 604,-282 604,-263 477,-263"/>
<text text-anchor="middle" x="540.5" y="-270" font-family="Helvetica,sans-Serif" font-size="10.00">Cpl/Io/Socket/Listener_.h</text>
</a>
</g>
</g>
<!-- Node2&#45;&gt;Node5 -->
<g id="edge5" class="edge"><title>Node2&#45;&gt;Node5</title>
<path fill="none" stroke="midnightblue" d="M435.04,-320.327C461.055,-308.776 498.765,-292.032 521.337,-282.009"/>
<polygon fill="midnightblue" stroke="midnightblue" points="433.418,-317.218 425.699,-324.475 436.259,-323.616 433.418,-317.218"/>
</g>
<!-- Node8 -->
<g id="node8" class="node"><title>Node8</title>
<g id="a_node8"><a xlink:href="_socket_8h.html" target="_top" xlink:title=" ">
<polygon fill="white" stroke="black" points="354.5,-263 354.5,-282 458.5,-282 458.5,-263 354.5,-263"/>
<text text-anchor="middle" x="406.5" y="-270" font-family="Helvetica,sans-Serif" font-size="10.00">Cpl/TShell/Socket.h</text>
</a>
</g>
</g>
<!-- Node2&#45;&gt;Node8 -->
<g id="edge8" class="edge"><title>Node2&#45;&gt;Node8</title>
<path fill="none" stroke="midnightblue" d="M406.5,-314.317C406.5,-303.496 406.5,-290.398 406.5,-282.009"/>
<polygon fill="midnightblue" stroke="midnightblue" points="403,-314.475 406.5,-324.475 410,-314.475 403,-314.475"/>
</g>
<!-- Node3&#45;&gt;Node4 -->
<g id="edge3" class="edge"><title>Node3&#45;&gt;Node4</title>
<path fill="none" stroke="midnightblue" d="M165.657,-249.157C158.512,-239.679 150.4,-228.919 144.112,-220.577"/>
<polygon fill="midnightblue" stroke="midnightblue" points="163.053,-251.518 171.868,-257.396 168.643,-247.304 163.053,-251.518"/>
</g>
<!-- Node6 -->
<g id="node6" class="node"><title>Node6</title>
<g id="a_node6"><a xlink:href="_posix_2_listener_8h.html" target="_top" xlink:title=" ">
<polygon fill="white" stroke="black" points="365.5,-190.5 365.5,-220.5 469.5,-220.5 469.5,-190.5 365.5,-190.5"/>
<text text-anchor="start" x="373.5" y="-208.5" font-family="Helvetica,sans-Serif" font-size="10.00">Cpl/Io/Socket/Posix</text>
<text text-anchor="middle" x="417.5" y="-197.5" font-family="Helvetica,sans-Serif" font-size="10.00">/Listener.h</text>
</a>
</g>
</g>
<!-- Node5&#45;&gt;Node6 -->
<g id="edge6" class="edge"><title>Node5&#45;&gt;Node6</title>
<path fill="none" stroke="midnightblue" d="M515.322,-258.194C494.632,-247.261 465.395,-231.81 444.279,-220.652"/>
<polygon fill="midnightblue" stroke="midnightblue" points="513.69,-261.291 524.167,-262.869 516.96,-255.102 513.69,-261.291"/>
</g>
<!-- Node7 -->
<g id="node7" class="node"><title>Node7</title>
<g id="a_node7"><a xlink:href="_win32_2_listener_8h.html" target="_top" xlink:title=" ">
<polygon fill="white" stroke="black" points="487.5,-190.5 487.5,-220.5 593.5,-220.5 593.5,-190.5 487.5,-190.5"/>
<text text-anchor="start" x="495.5" y="-208.5" font-family="Helvetica,sans-Serif" font-size="10.00">Cpl/Io/Socket/Win32</text>
<text text-anchor="middle" x="540.5" y="-197.5" font-family="Helvetica,sans-Serif" font-size="10.00">/Listener.h</text>
</a>
</g>
</g>
<!-- Node5&#45;&gt;Node7 -->
<g id="edge7" class="edge"><title>Node5&#45;&gt;Node7</title>
<path fill="none" stroke="midnightblue" d="M540.5,-252.411C540.5,-242.222 540.5,-229.901 540.5,-220.589"/>
<polygon fill="midnightblue" stroke="midnightblue" points="537,-252.734 540.5,-262.734 544,-252.734 537,-252.734"/>
</g>
<!-- Node10 -->
<g id="node10" class="node"><title>Node10</title>
<g id="a_node10"><a xlink:href="_dm_2_event_loop_8h.html" target="_top" xlink:title=" ">
<polygon fill="white" stroke="black" points="788,-263 788,-282 895,-282 895,-263 788,-263"/>
<text text-anchor="middle" x="841.5" y="-270" font-family="Helvetica,sans-Serif" font-size="10.00">Cpl/Dm/EventLoop.h</text>
</a>
</g>
</g>
<!-- Node9&#45;&gt;Node10 -->
<g id="edge10" class="edge"><title>Node9&#45;&gt;Node10</title>
<path fill="none" stroke="midnightblue" d="M719.122,-320.782C749.049,-309.22 793.193,-292.164 819.476,-282.009"/>
<polygon fill="midnightblue" stroke="midnightblue" points="717.631,-317.606 709.564,-324.475 720.154,-324.136 717.631,-317.606"/>
</g>
<!-- Node81 -->
<g id="node32" class="node"><title>Node81</title>
<g id="a_node32"><a xlink:href="_mailbox_8h.html" target="_top" xlink:title=" ">
<polygon fill="white" stroke="black" points="679.5,-263 679.5,-282 769.5,-282 769.5,-263 679.5,-263"/>
<text text-anchor="middle" x="724.5" y="-270" font-family="Helvetica,sans-Serif" font-size="10.00">Cpl/Itc/Mailbox.h</text>
</a>
</g>
</g>
<!-- Node9&#45;&gt;Node81 -->
<g id="edge42" class="edge"><title>Node9&#45;&gt;Node81</title>
<path fill="none" stroke="midnightblue" d="M698.276,-315.671C705.156,-304.608 713.772,-290.751 719.209,-282.009"/>
<polygon fill="midnightblue" stroke="midnightblue" points="695.11,-314.135 692.801,-324.475 701.054,-317.831 695.11,-314.135"/>
</g>
<!-- Node82 -->
<g id="node33" class="node"><title>Node82</title>
<g id="a_node33"><a xlink:href="_itc_2_mailbox_server_8h.html" target="_top" xlink:title=" ">
<polygon fill="white" stroke="black" points="612,-196 612,-215 731,-215 731,-196 612,-196"/>
<text text-anchor="middle" x="671.5" y="-203" font-family="Helvetica,sans-Serif" font-size="10.00">Cpl/Itc/MailboxServer.h</text>
</a>
</g>
</g>
<!-- Node9&#45;&gt;Node82 -->
<g id="edge46" class="edge"><title>Node9&#45;&gt;Node82</title>
<path fill="none" stroke="midnightblue" d="M679.054,-315.145C675.675,-307.052 672.188,-297.243 670.5,-288 665.722,-261.83 668.501,-230.144 670.314,-215.157"/>
<polygon fill="midnightblue" stroke="midnightblue" points="675.869,-316.595 683.134,-324.307 682.263,-313.748 675.869,-316.595"/>
</g>
<!-- Node84 -->
<g id="node35" class="node"><title>Node84</title>
<g id="a_node35"><a xlink:href="_house_8h_source.html" target="_top" xlink:title=" ">
<polygon fill="white" stroke="black" points="0,-67.5 0,-97.5 143,-97.5 143,-67.5 0,-67.5"/>
<text text-anchor="start" x="8" y="-85.5" font-family="Helvetica,sans-Serif" font-size="10.00">Storm/Thermostat/SimHouse</text>
<text text-anchor="middle" x="71.5" y="-74.5" font-family="Helvetica,sans-Serif" font-size="10.00">/House.h</text>
</a>
</g>
</g>
<!-- Node9&#45;&gt;Node84 -->
<g id="edge47" class="edge"><title>Node9&#45;&gt;Node84</title>
<path fill="none" stroke="midnightblue" d="M614.825,-327.763C529.286,-320.849 392.882,-307.255 345.5,-288 338.128,-285.004 150.745,-143.457 90.1859,-97.6439"/>
<polygon fill="midnightblue" stroke="midnightblue" points="614.749,-331.268 624.995,-328.574 615.304,-324.291 614.749,-331.268"/>
</g>
<!-- Node11 -->
<g id="node11" class="node"><title>Node11</title>
<g id="a_node11"><a xlink:href="_dm_2_mailbox_server_8h.html" target="_top" xlink:title=" ">
<polygon fill="white" stroke="black" points="780.5,-196 780.5,-215 902.5,-215 902.5,-196 780.5,-196"/>
<text text-anchor="middle" x="841.5" y="-203" font-family="Helvetica,sans-Serif" font-size="10.00">Cpl/Dm/MailboxServer.h</text>
</a>
</g>
</g>
<!-- Node10&#45;&gt;Node11 -->
<g id="edge11" class="edge"><title>Node10&#45;&gt;Node11</title>
<path fill="none" stroke="midnightblue" d="M841.5,-252.537C841.5,-240.17 841.5,-224.62 841.5,-215.127"/>
<polygon fill="midnightblue" stroke="midnightblue" points="838,-252.734 841.5,-262.734 845,-252.734 838,-252.734"/>
</g>
<!-- Node31 -->
<g id="node26" class="node"><title>Node31</title>
<g id="a_node26"><a xlink:href="_subscriber_8h.html" target="_top" xlink:title=" ">
<polygon fill="white" stroke="black" points="1284,-196 1284,-215 1391,-215 1391,-196 1284,-196"/>
<text text-anchor="middle" x="1337.5" y="-203" font-family="Helvetica,sans-Serif" font-size="10.00">Cpl/Dm/Subscriber.h</text>
</a>
</g>
</g>
<!-- Node10&#45;&gt;Node31 -->
<g id="edge35" class="edge"><title>Node10&#45;&gt;Node31</title>
<path fill="none" stroke="midnightblue" d="M884.584,-260.759C890.905,-259.377 897.354,-258.073 903.5,-257 1039.5,-233.264 1201.48,-217.753 1283.77,-210.769"/>
<polygon fill="midnightblue" stroke="midnightblue" points="883.8,-257.348 874.821,-262.972 885.347,-264.175 883.8,-257.348"/>
</g>
<!-- Node12 -->
<g id="node12" class="node"><title>Node12</title>
<g id="a_node12"><a xlink:href="_dm_2_periodic_scheduler_8h.html" target="_top" xlink:title=" ">
<polygon fill="white" stroke="black" points="461,-134.5 461,-153.5 600,-153.5 600,-134.5 461,-134.5"/>
<text text-anchor="middle" x="530.5" y="-141.5" font-family="Helvetica,sans-Serif" font-size="10.00">Cpl/Dm/PeriodicScheduler.h</text>
</a>
</g>
</g>
<!-- Node11&#45;&gt;Node12 -->
<g id="edge12" class="edge"><title>Node11&#45;&gt;Node12</title>
<path fill="none" stroke="midnightblue" d="M786.856,-194.046C726.605,-182.518 630.825,-164.194 574.976,-153.509"/>
<polygon fill="midnightblue" stroke="midnightblue" points="786.462,-197.534 796.941,-195.975 787.777,-190.658 786.462,-197.534"/>
</g>
<!-- Node13 -->
<g id="node13" class="node"><title>Node13</title>
<g id="a_node13"><a xlink:href="_chunk_8h.html" target="_top" xlink:title=" ">
<polygon fill="white" stroke="black" points="783,-134.5 783,-153.5 900,-153.5 900,-134.5 783,-134.5"/>
<text text-anchor="middle" x="841.5" y="-141.5" font-family="Helvetica,sans-Serif" font-size="10.00">Cpl/Persistent/Chunk.h</text>
</a>
</g>
</g>
<!-- Node11&#45;&gt;Node13 -->
<g id="edge13" class="edge"><title>Node11&#45;&gt;Node13</title>
<path fill="none" stroke="midnightblue" d="M841.5,-185.817C841.5,-174.996 841.5,-161.898 841.5,-153.509"/>
<polygon fill="midnightblue" stroke="midnightblue" points="838,-185.975 841.5,-195.975 845,-185.975 838,-185.975"/>
</g>
<!-- Node25 -->
<g id="node20" class="node"><title>Node25</title>
<g id="a_node20"><a xlink:href="_persistent_2_record_8h.html" target="_top" xlink:title=" ">
<polygon fill="white" stroke="black" points="1084.5,-134.5 1084.5,-153.5 1204.5,-153.5 1204.5,-134.5 1084.5,-134.5"/>
<text text-anchor="middle" x="1144.5" y="-141.5" font-family="Helvetica,sans-Serif" font-size="10.00">Cpl/Persistent/Record.h</text>
</a>
</g>
</g>
<!-- Node11&#45;&gt;Node25 -->
<g id="edge20" class="edge"><title>Node11&#45;&gt;Node25</title>
<path fill="none" stroke="midnightblue" d="M894.739,-194.046C953.44,-182.518 1046.76,-164.194 1101.17,-153.509"/>
<polygon fill="midnightblue" stroke="midnightblue" points="894.051,-190.614 884.913,-195.975 895.4,-197.483 894.051,-190.614"/>
</g>
<!-- Node26 -->
<g id="node21" class="node"><title>Node26</title>
<g id="a_node21"><a xlink:href="_record_server_8h.html" target="_top" xlink:title=" ">
<polygon fill="white" stroke="black" points="1139,-73 1139,-92 1288,-92 1288,-73 1139,-73"/>
<text text-anchor="middle" x="1213.5" y="-80" font-family="Helvetica,sans-Serif" font-size="10.00">Cpl/Persistent/RecordServer.h</text>
</a>
</g>
</g>
<!-- Node11&#45;&gt;Node26 -->
<g id="edge26" class="edge"><title>Node11&#45;&gt;Node26</title>
<path fill="none" stroke="midnightblue" d="M912.721,-205.463C1009.59,-205.073 1175.25,-197.795 1213.5,-154 1228.64,-136.669 1221.54,-106.772 1216.7,-92.1118"/>
<polygon fill="midnightblue" stroke="midnightblue" points="912.698,-201.963 902.704,-205.48 912.71,-208.963 912.698,-201.963"/>
</g>
<!-- Node27 -->
<g id="node22" class="node"><title>Node27</title>
<g id="a_node22"><a xlink:href="_region_media_8h.html" target="_top" xlink:title=" ">
<polygon fill="white" stroke="black" points="618.5,-134.5 618.5,-153.5 764.5,-153.5 764.5,-134.5 618.5,-134.5"/>
<text text-anchor="middle" x="691.5" y="-141.5" font-family="Helvetica,sans-Serif" font-size="10.00">Cpl/Persistent/RegionMedia.h</text>
</a>
</g>
</g>
<!-- Node11&#45;&gt;Node27 -->
<g id="edge27" class="edge"><title>Node11&#45;&gt;Node27</title>
<path fill="none" stroke="midnightblue" d="M810.699,-192.282C781.55,-180.72 738.552,-163.664 712.951,-153.509"/>
<polygon fill="midnightblue" stroke="midnightblue" points="809.423,-195.541 820.009,-195.975 812.004,-189.034 809.423,-195.541"/>
</g>
<!-- Node30 -->
<g id="node25" class="node"><title>Node30</title>
<g id="a_node25"><a xlink:href="_algorithm_8h.html" target="_top" xlink:title=" ">
<polygon fill="white" stroke="black" points="918.5,-134.5 918.5,-153.5 1066.5,-153.5 1066.5,-134.5 918.5,-134.5"/>
<text text-anchor="middle" x="992.5" y="-141.5" font-family="Helvetica,sans-Serif" font-size="10.00">Storm/Thermostat/Algorithm.h</text>
</a>
</g>
</g>
<!-- Node11&#45;&gt;Node30 -->
<g id="edge34" class="edge"><title>Node11&#45;&gt;Node30</title>
<path fill="none" stroke="midnightblue" d="M872.506,-192.282C901.85,-180.72 945.134,-163.664 970.906,-153.509"/>
<polygon fill="midnightblue" stroke="midnightblue" points="871.155,-189.053 863.135,-195.975 873.722,-195.565 871.155,-189.053"/>
</g>
<!-- Node14 -->
<g id="node14" class="node"><title>Node14</title>
<g id="a_node14"><a xlink:href="_dm_2_persistent_2_record_8h.html" target="_top" xlink:title=" ">
<polygon fill="white" stroke="red" points="1195.5,-6 1195.5,-25 1333.5,-25 1333.5,-6 1195.5,-6"/>
<text text-anchor="middle" x="1264.5" y="-13" font-family="Helvetica,sans-Serif" font-size="10.00">Cpl/Dm/Persistent/Record.h</text>
</a>
</g>
</g>
<!-- Node13&#45;&gt;Node14 -->
<g id="edge14" class="edge"><title>Node13&#45;&gt;Node14</title>
<path fill="none" stroke="midnightblue" d="M871.691,-130.348C890.114,-122.119 913.827,-110.599 933.5,-98 951.855,-86.2455 951.665,-76.0363 971.5,-67 1043.37,-34.2579 1133.99,-22.6146 1195.28,-18.5457"/>
<polygon fill="midnightblue" stroke="midnightblue" points="870.077,-127.234 862.324,-134.454 872.888,-133.645 870.077,-127.234"/>
</g>
<!-- Node19 -->
<g id="node15" class="node"><title>Node19</title>
<g id="a_node15"><a xlink:href="_crc_chunk_8h.html" target="_top" xlink:title=" ">
<polygon fill="white" stroke="black" points="464.5,-73 464.5,-92 596.5,-92 596.5,-73 464.5,-73"/>
<text text-anchor="middle" x="530.5" y="-80" font-family="Helvetica,sans-Serif" font-size="10.00">Cpl/Persistent/CrcChunk.h</text>
</a>
</g>
</g>
<!-- Node13&#45;&gt;Node19 -->
<g id="edge15" class="edge"><title>Node13&#45;&gt;Node19</title>
<path fill="none" stroke="midnightblue" d="M786.851,-132.621C739.014,-123.525 667.643,-109.932 605.5,-98 595.471,-96.0745 584.691,-93.9955 574.517,-92.0295"/>
<polygon fill="midnightblue" stroke="midnightblue" points="786.212,-136.062 796.69,-134.491 787.519,-129.185 786.212,-136.062"/>
</g>
<!-- Node20 -->
<g id="node16" class="node"><title>Node20</title>
<g id="a_node16"><a xlink:href="_data_record_8h.html" target="_top" xlink:title=" ">
<polygon fill="white" stroke="red" points="980.5,-73 980.5,-92 1120.5,-92 1120.5,-73 980.5,-73"/>
<text text-anchor="middle" x="1050.5" y="-80" font-family="Helvetica,sans-Serif" font-size="10.00">Cpl/Persistent/DataRecord.h</text>
</a>
</g>
</g>
<!-- Node13&#45;&gt;Node20 -->
<g id="edge16" class="edge"><title>Node13&#45;&gt;Node20</title>
<path fill="none" stroke="midnightblue" d="M881.277,-131.676C921.888,-120.114 984.01,-102.429 1020.61,-92.0091"/>
<polygon fill="midnightblue" stroke="midnightblue" points="880.104,-128.371 871.445,-134.475 882.021,-135.103 880.104,-128.371"/>
</g>
<!-- Node22 -->
<g id="node17" class="node"><title>Node22</title>
<g id="a_node17"><a xlink:href="_indexed_entry_record_8h.html" target="_top" xlink:title=" ">
<polygon fill="white" stroke="red" points="615,-67.5 615,-97.5 754,-97.5 754,-67.5 615,-67.5"/>
<text text-anchor="start" x="623" y="-85.5" font-family="Helvetica,sans-Serif" font-size="10.00">Cpl/Persistent/IndexedEntry</text>
<text text-anchor="middle" x="684.5" y="-74.5" font-family="Helvetica,sans-Serif" font-size="10.00">Record.h</text>
</a>
</g>
</g>
<!-- Node13&#45;&gt;Node22 -->
<g id="edge17" class="edge"><title>Node13&#45;&gt;Node22</title>
<path fill="none" stroke="midnightblue" d="M809.434,-130.847C783.929,-121.182 748.216,-107.647 721.502,-97.523"/>
<polygon fill="midnightblue" stroke="midnightblue" points="808.414,-134.204 819.006,-134.475 810.895,-127.658 808.414,-134.204"/>
</g>
<!-- Node24 -->
<g id="node18" class="node"><title>Node24</title>
<g id="a_node18"><a xlink:href="_mirrored_chunk_8h.html" target="_top" xlink:title=" ">
<polygon fill="white" stroke="black" points="772.5,-73 772.5,-92 924.5,-92 924.5,-73 772.5,-73"/>
<text text-anchor="middle" x="848.5" y="-80" font-family="Helvetica,sans-Serif" font-size="10.00">Cpl/Persistent/MirroredChunk.h</text>
</a>
</g>
</g>
<!-- Node13&#45;&gt;Node24 -->
<g id="edge18" class="edge"><title>Node13&#45;&gt;Node24</title>
<path fill="none" stroke="midnightblue" d="M843.698,-124.317C844.971,-113.496 846.512,-100.398 847.499,-92.0091"/>
<polygon fill="midnightblue" stroke="midnightblue" points="840.195,-124.135 842.503,-134.475 847.147,-124.953 840.195,-124.135"/>
</g>
<!-- Node16 -->
<g id="node19" class="node"><title>Node16</title>
<g id="a_node19"><a xlink:href="statics___8h.html" target="_top" xlink:title="This file defines/creates persistent records and record server for the Thermostat simulation.">
<polygon fill="white" stroke="black" points="480,-0.5 480,-30.5 599,-30.5 599,-0.5 480,-0.5"/>
<text text-anchor="start" x="488" y="-18.5" font-family="Helvetica,sans-Serif" font-size="10.00">Storm/Thermostat/Main</text>
<text text-anchor="middle" x="539.5" y="-7.5" font-family="Helvetica,sans-Serif" font-size="10.00">/_simulation/statics_.h</text>
</a>
</g>
</g>
<!-- Node24&#45;&gt;Node16 -->
<g id="edge19" class="edge"><title>Node24&#45;&gt;Node16</title>
<path fill="none" stroke="midnightblue" d="M797.666,-70.8068C743.185,-59.3464 656.776,-41.1698 599.125,-29.0425"/>
<polygon fill="midnightblue" stroke="midnightblue" points="797.28,-74.302 807.786,-72.9355 798.721,-67.4519 797.28,-74.302"/>
</g>
<!-- Node25&#45;&gt;Node14 -->
<g id="edge21" class="edge"><title>Node25&#45;&gt;Node14</title>
<path fill="none" stroke="midnightblue" d="M1214.8,-140.162C1244.96,-135.014 1277.56,-123.358 1296.5,-98 1313.87,-74.7379 1287.51,-40.8198 1273,-25.0954"/>
<polygon fill="midnightblue" stroke="midnightblue" points="1214.07,-136.733 1204.69,-141.668 1215.1,-143.656 1214.07,-136.733"/>
</g>
<!-- Node25&#45;&gt;Node20 -->
<g id="edge22" class="edge"><title>Node25&#45;&gt;Node20</title>
<path fill="none" stroke="midnightblue" d="M1122.27,-128.93C1104.15,-117.459 1079.15,-101.634 1063.94,-92.0091"/>
<polygon fill="midnightblue" stroke="midnightblue" points="1120.71,-132.084 1131.03,-134.475 1124.45,-126.169 1120.71,-132.084"/>
</g>
<!-- Node25&#45;&gt;Node26 -->
<g id="edge23" class="edge"><title>Node25&#45;&gt;Node26</title>
<path fill="none" stroke="midnightblue" d="M1162.3,-127.65C1175.46,-116.306 1192.88,-101.281 1203.63,-92.0091"/>
<polygon fill="midnightblue" stroke="midnightblue" points="1159.67,-125.294 1154.39,-134.475 1164.24,-130.595 1159.67,-125.294"/>
</g>
<!-- Node26&#45;&gt;Node14 -->
<g id="edge24" class="edge"><title>Node26&#45;&gt;Node14</title>
<path fill="none" stroke="midnightblue" d="M1226.63,-64.7705C1236.57,-52.0972 1249.83,-35.201 1257.73,-25.1273"/>
<polygon fill="midnightblue" stroke="midnightblue" points="1223.8,-62.7059 1220.38,-72.7338 1229.3,-67.0269 1223.8,-62.7059"/>
</g>
<!-- Node26&#45;&gt;Node16 -->
<g id="edge25" class="edge"><title>Node26&#45;&gt;Node16</title>
<path fill="none" stroke="midnightblue" d="M1158.4,-71.2956C1148.79,-69.7139 1138.87,-68.2073 1129.5,-67 936.282,-42.1008 705.829,-26.3927 599.139,-19.9121"/>
<polygon fill="midnightblue" stroke="midnightblue" points="1157.83,-74.7483 1168.27,-72.9617 1158.99,-67.8459 1157.83,-74.7483"/>
</g>
<!-- Node27&#45;&gt;Node19 -->
<g id="edge28" class="edge"><title>Node27&#45;&gt;Node19</title>
<path fill="none" stroke="midnightblue" d="M658.848,-130.933C627.555,-119.368 581.122,-102.208 553.525,-92.0091"/>
<polygon fill="midnightblue" stroke="midnightblue" points="657.839,-134.292 668.433,-134.475 660.266,-127.726 657.839,-134.292"/>
</g>
<!-- Node27&#45;&gt;Node22 -->
<g id="edge31" class="edge"><title>Node27&#45;&gt;Node22</title>
<path fill="none" stroke="midnightblue" d="M689.327,-124.526C688.302,-115.813 687.098,-105.586 686.15,-97.523"/>
<polygon fill="midnightblue" stroke="midnightblue" points="685.853,-124.953 690.497,-134.475 692.805,-124.135 685.853,-124.953"/>
</g>
<!-- Node27&#45;&gt;Node24 -->
<g id="edge32" class="edge"><title>Node27&#45;&gt;Node24</title>
<path fill="none" stroke="midnightblue" d="M723.738,-130.782C754.248,-119.22 799.252,-102.164 826.047,-92.0091"/>
<polygon fill="midnightblue" stroke="midnightblue" points="722.105,-127.658 713.994,-134.475 724.586,-134.204 722.105,-127.658"/>
</g>
<!-- Node28 -->
<g id="node23" class="node"><title>Node28</title>
<g id="a_node23"><a xlink:href="_file_adapter_8h.html" target="_top" xlink:title=" ">
<polygon fill="white" stroke="black" points="161,-73 161,-92 300,-92 300,-73 161,-73"/>
<text text-anchor="middle" x="230.5" y="-80" font-family="Helvetica,sans-Serif" font-size="10.00">Cpl/Persistent/FileAdapter.h</text>
</a>
</g>
</g>
<!-- Node27&#45;&gt;Node28 -->
<g id="edge29" class="edge"><title>Node27&#45;&gt;Node28</title>
<path fill="none" stroke="midnightblue" d="M608.208,-133.822C513.636,-123.289 365.249,-106.391 309.5,-98 298.055,-96.2774 285.727,-94.1476 274.292,-92.0557"/>
<polygon fill="midnightblue" stroke="midnightblue" points="607.999,-137.32 618.325,-134.948 608.773,-130.363 607.999,-137.32"/>
</g>
<!-- Node29 -->
<g id="node24" class="node"><title>Node29</title>
<g id="a_node24"><a xlink:href="_null_region_media_8h.html" target="_top" xlink:title=" ">
<polygon fill="white" stroke="black" points="318.5,-67.5 318.5,-97.5 446.5,-97.5 446.5,-67.5 318.5,-67.5"/>
<text text-anchor="start" x="326.5" y="-85.5" font-family="Helvetica,sans-Serif" font-size="10.00">Cpl/Persistent/NullRegion</text>
<text text-anchor="middle" x="382.5" y="-74.5" font-family="Helvetica,sans-Serif" font-size="10.00">Media.h</text>
</a>
</g>
</g>
<!-- Node27&#45;&gt;Node29 -->
<g id="edge33" class="edge"><title>Node27&#45;&gt;Node29</title>
<path fill="none" stroke="midnightblue" d="M636.393,-132.616C588.55,-123.571 517.422,-110.053 455.5,-98 452.583,-97.4322 449.601,-96.8493 446.589,-96.2588"/>
<polygon fill="midnightblue" stroke="midnightblue" points="635.761,-136.058 646.237,-134.476 637.061,-129.18 635.761,-136.058"/>
</g>
<!-- Node28&#45;&gt;Node16 -->
<g id="edge30" class="edge"><title>Node28&#45;&gt;Node16</title>
<path fill="none" stroke="midnightblue" d="M281.334,-70.8068C335.815,-59.3464 422.224,-41.1698 479.875,-29.0425"/>
<polygon fill="midnightblue" stroke="midnightblue" points="280.279,-67.4519 271.214,-72.9355 281.72,-74.302 280.279,-67.4519"/>
</g>
<!-- Node32 -->
<g id="node27" class="node"><title>Node32</title>
<g id="a_node27"><a xlink:href="_model_point_common___8h.html" target="_top" xlink:title=" ">
<polygon fill="white" stroke="red" points="1313,-134.5 1313,-153.5 1466,-153.5 1466,-134.5 1313,-134.5"/>
<text text-anchor="middle" x="1389.5" y="-141.5" font-family="Helvetica,sans-Serif" font-size="10.00">Cpl/Dm/ModelPointCommon_.h</text>
</a>
</g>
</g>
<!-- Node31&#45;&gt;Node32 -->
<g id="edge36" class="edge"><title>Node31&#45;&gt;Node32</title>
<path fill="none" stroke="midnightblue" d="M1351.77,-188.169C1361.58,-176.952 1374.19,-162.516 1382.06,-153.509"/>
<polygon fill="midnightblue" stroke="midnightblue" points="1348.9,-186.142 1344.95,-195.975 1354.17,-190.749 1348.9,-186.142"/>
</g>
<!-- Node80 -->
<g id="node30" class="node"><title>Node80</title>
<g id="a_node30"><a xlink:href="_subscriber_composer_8h.html" target="_top" xlink:title=" ">
<polygon fill="white" stroke="red" points="1345,-73 1345,-92 1496,-92 1496,-73 1345,-73"/>
<text text-anchor="middle" x="1420.5" y="-80" font-family="Helvetica,sans-Serif" font-size="10.00">Cpl/Dm/SubscriberComposer.h</text>
</a>
</g>
</g>
<!-- Node31&#45;&gt;Node80 -->
<g id="edge39" class="edge"><title>Node31&#45;&gt;Node80</title>
<path fill="none" stroke="midnightblue" d="M1320.46,-188.527C1306.88,-173.803 1291.91,-151.627 1303.5,-134 1318.27,-111.54 1345.37,-99.0242 1369.78,-92.0725"/>
<polygon fill="midnightblue" stroke="midnightblue" points="1318.17,-191.194 1327.68,-195.864 1323.16,-186.283 1318.17,-191.194"/>
</g>
<!-- Node56 -->
<g id="node31" class="node"><title>Node56</title>
<g id="a_node31"><a xlink:href="_mp_thermostat_mode_8h.html" target="_top" xlink:title=" ">
<polygon fill="white" stroke="red" points="1484,-134.5 1484,-153.5 1643,-153.5 1643,-134.5 1484,-134.5"/>
<text text-anchor="middle" x="1563.5" y="-141.5" font-family="Helvetica,sans-Serif" font-size="10.00">Storm/Dm/MpThermostatMode.h</text>
</a>
</g>
</g>
<!-- Node31&#45;&gt;Node56 -->
<g id="edge41" class="edge"><title>Node31&#45;&gt;Node56</title>
<path fill="none" stroke="midnightblue" d="M1379.68,-193.396C1423.57,-181.84 1491.35,-163.995 1531.18,-153.509"/>
<polygon fill="midnightblue" stroke="midnightblue" points="1378.66,-190.044 1369.88,-195.975 1380.44,-196.814 1378.66,-190.044"/>
</g>
<!-- Node33 -->
<g id="node28" class="node"><title>Node33</title>
<g id="a_node28"><a xlink:href="_array_8h.html" target="_top" xlink:title=" ">
<polygon fill="white" stroke="black" points="1628.5,-73 1628.5,-92 1728.5,-92 1728.5,-73 1628.5,-73"/>
<text text-anchor="middle" x="1678.5" y="-80" font-family="Helvetica,sans-Serif" font-size="10.00">Cpl/Dm/Mp/Array.h</text>
</a>
</g>
</g>
<!-- Node32&#45;&gt;Node33 -->
<g id="edge37" class="edge"><title>Node32&#45;&gt;Node33</title>
<path fill="none" stroke="midnightblue" d="M1446.69,-132.597C1493.32,-123.925 1560.83,-110.941 1619.5,-98 1627.74,-96.1824 1636.59,-94.0848 1644.87,-92.0597"/>
<polygon fill="midnightblue" stroke="midnightblue" points="1445.96,-129.171 1436.77,-134.435 1447.24,-136.054 1445.96,-129.171"/>
</g>
<!-- Node34 -->
<g id="node29" class="node"><title>Node34</title>
<g id="a_node29"><a xlink:href="_bool_8h.html" target="_top" xlink:title=" ">
<polygon fill="white" stroke="red" points="1514.5,-73 1514.5,-92 1610.5,-92 1610.5,-73 1514.5,-73"/>
<text text-anchor="middle" x="1562.5" y="-80" font-family="Helvetica,sans-Serif" font-size="10.00">Cpl/Dm/Mp/Bool.h</text>
</a>
</g>
</g>
<!-- Node32&#45;&gt;Node34 -->
<g id="edge38" class="edge"><title>Node32&#45;&gt;Node34</title>
<path fill="none" stroke="midnightblue" d="M1424.15,-131.083C1457.78,-119.517 1507.98,-102.252 1537.76,-92.0091"/>
<polygon fill="midnightblue" stroke="midnightblue" points="1422.6,-127.913 1414.29,-134.475 1424.88,-134.532 1422.6,-127.913"/>
</g>
<!-- Node80&#45;&gt;Node14 -->
<g id="edge40" class="edge"><title>Node80&#45;&gt;Node14</title>
<path fill="none" stroke="midnightblue" d="M1390.38,-68.9485C1359.49,-56.0787 1312.27,-36.4032 1285.3,-25.1672"/>
<polygon fill="midnightblue" stroke="midnightblue" points="1389.21,-72.2531 1399.78,-72.8685 1391.9,-65.7915 1389.21,-72.2531"/>
</g>
<!-- Node81&#45;&gt;Node11 -->
<g id="edge43" class="edge"><title>Node81&#45;&gt;Node11</title>
<path fill="none" stroke="midnightblue" d="M749.183,-257.787C772.372,-244.905 806.356,-226.024 825.971,-215.127"/>
<polygon fill="midnightblue" stroke="midnightblue" points="747.321,-254.818 740.279,-262.734 750.72,-260.937 747.321,-254.818"/>
</g>
<!-- Node81&#45;&gt;Node82 -->
<g id="edge44" class="edge"><title>Node81&#45;&gt;Node82</title>
<path fill="none" stroke="midnightblue" d="M710.859,-254.77C700.525,-242.097 686.748,-225.201 678.535,-215.127"/>
<polygon fill="midnightblue" stroke="midnightblue" points="708.32,-257.195 717.352,-262.734 713.745,-252.772 708.32,-257.195"/>
</g>
<!-- Node83 -->
<g id="node34" class="node"><title>Node83</title>
<g id="a_node34"><a xlink:href="_itc_2_periodic_scheduler_8h.html" target="_top" xlink:title=" ">
<polygon fill="white" stroke="black" points="308,-134.5 308,-153.5 443,-153.5 443,-134.5 308,-134.5"/>
<text text-anchor="middle" x="375.5" y="-141.5" font-family="Helvetica,sans-Serif" font-size="10.00">Cpl/Itc/PeriodicScheduler.h</text>
</a>
</g>
</g>
<!-- Node82&#45;&gt;Node83 -->
<g id="edge45" class="edge"><title>Node82&#45;&gt;Node83</title>
<path fill="none" stroke="midnightblue" d="M621.461,-193.914C615.082,-192.585 608.639,-191.254 602.5,-190 538.926,-177.019 465.223,-162.507 419.471,-153.562"/>
<polygon fill="midnightblue" stroke="midnightblue" points="620.877,-197.368 631.381,-195.988 622.309,-190.516 620.877,-197.368"/>
</g>
<!-- Node84&#45;&gt;Node16 -->
<g id="edge48" class="edge"><title>Node84&#45;&gt;Node16</title>
<path fill="none" stroke="midnightblue" d="M153.629,-66.7083C274.853,-48.0506 405.68,-32.0249 479.878,-23.3239"/>
<polygon fill="midnightblue" stroke="midnightblue" points="152.776,-63.2986 143.43,-68.288 153.848,-70.2161 152.776,-63.2986"/>
</g>
<!-- Node85&#45;&gt;Node5 -->
<g id="edge51" class="edge"><title>Node85&#45;&gt;Node5</title>
<path fill="none" stroke="midnightblue" d="M1124.84,-327.908C1026.61,-320.055 833.919,-304.196 670.5,-288 648.918,-285.861 625.347,-283.3 604.274,-280.93"/>
<polygon fill="midnightblue" stroke="midnightblue" points="1124.67,-331.405 1134.91,-328.711 1125.22,-324.427 1124.67,-331.405"/>
</g>
<!-- Node85&#45;&gt;Node8 -->
<g id="edge65" class="edge"><title>Node85&#45;&gt;Node8</title>
<path fill="none" stroke="midnightblue" d="M1124.51,-332.664C997.538,-331.19 707.94,-323.801 467.5,-288 457.81,-286.557 447.394,-284.337 437.96,-282.064"/>
<polygon fill="midnightblue" stroke="midnightblue" points="1124.79,-336.167 1134.82,-332.775 1124.86,-329.168 1124.79,-336.167"/>
</g>
<!-- Node85&#45;&gt;Node10 -->
<g id="edge50" class="edge"><title>Node85&#45;&gt;Node10</title>
<path fill="none" stroke="midnightblue" d="M1124.85,-324.215C1066.73,-315.988 979.123,-302.772 903.5,-288 894.495,-286.241 884.812,-284.098 875.837,-282.006"/>
<polygon fill="midnightblue" stroke="midnightblue" points="1124.6,-327.715 1134.99,-325.643 1125.58,-320.783 1124.6,-327.715"/>
</g>
<!-- Node86 -->
<g id="node37" class="node"><title>Node86</title>
<g id="a_node37"><a xlink:href="_bare_metal_2_thread_8h.html" target="_top" xlink:title=" ">
<polygon fill="white" stroke="black" points="913,-257.5 913,-287.5 1028,-287.5 1028,-257.5 913,-257.5"/>
<text text-anchor="start" x="921" y="-275.5" font-family="Helvetica,sans-Serif" font-size="10.00">Cpl/System/BareMetal</text>
<text text-anchor="middle" x="970.5" y="-264.5" font-family="Helvetica,sans-Serif" font-size="10.00">/Thread.h</text>
</a>
</g>
</g>
<!-- Node85&#45;&gt;Node86 -->
<g id="edge52" class="edge"><title>Node85&#45;&gt;Node86</title>
<path fill="none" stroke="midnightblue" d="M1148.03,-321.734C1112.29,-312.023 1060.53,-297.961 1022.11,-287.523"/>
<polygon fill="midnightblue" stroke="midnightblue" points="1147.55,-325.231 1158.12,-324.475 1149.39,-318.476 1147.55,-325.231"/>
</g>
<!-- Node87 -->
<g id="node38" class="node"><title>Node87</title>
<g id="a_node38"><a xlink:href="_cpp11_2_thread_8h.html" target="_top" xlink:title=" ">
<polygon fill="white" stroke="black" points="1046.5,-263 1046.5,-282 1186.5,-282 1186.5,-263 1046.5,-263"/>
<text text-anchor="middle" x="1116.5" y="-270" font-family="Helvetica,sans-Serif" font-size="10.00">Cpl/System/Cpp11/Thread.h</text>
</a>
</g>
</g>
<!-- Node85&#45;&gt;Node87 -->
<g id="edge53" class="edge"><title>Node85&#45;&gt;Node87</title>
<path fill="none" stroke="midnightblue" d="M1171.06,-317.973C1157.1,-306.593 1138.42,-291.369 1126.94,-282.009"/>
<polygon fill="midnightblue" stroke="midnightblue" points="1169.08,-320.87 1179.04,-324.475 1173.5,-315.444 1169.08,-320.87"/>
</g>
<!-- Node88 -->
<g id="node39" class="node"><title>Node88</title>
<g id="a_node39"><a xlink:href="_free_r_t_o_s_2_thread_8h.html" target="_top" xlink:title=" ">
<polygon fill="white" stroke="black" points="1205,-257.5 1205,-287.5 1322,-287.5 1322,-257.5 1205,-257.5"/>
<text text-anchor="start" x="1213" y="-275.5" font-family="Helvetica,sans-Serif" font-size="10.00">Cpl/System/FreeRTOS</text>
<text text-anchor="middle" x="1263.5" y="-264.5" font-family="Helvetica,sans-Serif" font-size="10.00">/Thread.h</text>
</a>
</g>
</g>
<!-- Node85&#45;&gt;Node88 -->
<g id="edge54" class="edge"><title>Node85&#45;&gt;Node88</title>
<path fill="none" stroke="midnightblue" d="M1207.91,-318.195C1219.58,-308.813 1234.58,-296.751 1246.06,-287.523"/>
<polygon fill="midnightblue" stroke="midnightblue" points="1205.7,-315.481 1200.1,-324.475 1210.09,-320.937 1205.7,-315.481"/>
</g>
<!-- Node89 -->
<g id="node40" class="node"><title>Node89</title>
<g id="a_node40"><a xlink:href="_posix_2_thread_8h.html" target="_top" xlink:title=" ">
<polygon fill="white" stroke="black" points="1340,-263 1340,-282 1477,-282 1477,-263 1340,-263"/>
<text text-anchor="middle" x="1408.5" y="-270" font-family="Helvetica,sans-Serif" font-size="10.00">Cpl/System/Posix/Thread.h</text>
</a>
</g>
</g>
<!-- Node85&#45;&gt;Node89 -->
<g id="edge55" class="edge"><title>Node85&#45;&gt;Node89</title>
<path fill="none" stroke="midnightblue" d="M1230.64,-321.822C1273.18,-310.264 1338.67,-292.473 1377.18,-282.009"/>
<polygon fill="midnightblue" stroke="midnightblue" points="1229.61,-318.476 1220.88,-324.475 1231.45,-325.231 1229.61,-318.476"/>
</g>
<!-- Node90 -->
<g id="node41" class="node"><title>Node90</title>
<g id="a_node41"><a xlink:href="_system_2_trace_8h.html" target="_top" xlink:title=" ">
<polygon fill="white" stroke="black" points="1495.5,-263 1495.5,-282 1599.5,-282 1599.5,-263 1495.5,-263"/>
<text text-anchor="middle" x="1547.5" y="-270" font-family="Helvetica,sans-Serif" font-size="10.00">Cpl/System/Trace.h</text>
</a>
</g>
</g>
<!-- Node85&#45;&gt;Node90 -->
<g id="edge56" class="edge"><title>Node85&#45;&gt;Node90</title>
<path fill="none" stroke="midnightblue" d="M1254.11,-324.672C1314.25,-316.568 1406.25,-303.267 1485.5,-288 1494.51,-286.264 1504.19,-284.13 1513.17,-282.038"/>
<polygon fill="midnightblue" stroke="midnightblue" points="1253.45,-321.229 1244,-326.026 1254.38,-328.167 1253.45,-321.229"/>
</g>
<!-- Node95 -->
<g id="node46" class="node"><title>Node95</title>
<g id="a_node46"><a xlink:href="_win32_2_thread_8h.html" target="_top" xlink:title=" ">
<polygon fill="white" stroke="black" points="1618,-263 1618,-282 1757,-282 1757,-263 1618,-263"/>
<text text-anchor="middle" x="1687.5" y="-270" font-family="Helvetica,sans-Serif" font-size="10.00">Cpl/System/Win32/Thread.h</text>
</a>
</g>
</g>
<!-- Node85&#45;&gt;Node95 -->
<g id="edge61" class="edge"><title>Node85&#45;&gt;Node95</title>
<path fill="none" stroke="midnightblue" d="M1254.21,-327.558C1336.69,-320.276 1483.57,-306.148 1608.5,-288 1620.09,-286.316 1632.58,-284.176 1644.13,-282.061"/>
<polygon fill="midnightblue" stroke="midnightblue" points="1253.89,-324.073 1244.24,-328.433 1254.5,-331.046 1253.89,-324.073"/>
</g>
<!-- Node96 -->
<g id="node47" class="node"><title>Node96</title>
<g id="a_node47"><a xlink:href="_threads_8h.html" target="_top" xlink:title=" ">
<polygon fill="white" stroke="black" points="1775,-263 1775,-282 1906,-282 1906,-263 1775,-263"/>
<text text-anchor="middle" x="1840.5" y="-270" font-family="Helvetica,sans-Serif" font-size="10.00">Cpl/TShell/Cmd/Threads.h</text>
</a>
</g>
</g>
<!-- Node85&#45;&gt;Node96 -->
<g id="edge62" class="edge"><title>Node85&#45;&gt;Node96</title>
<path fill="none" stroke="midnightblue" d="M1254.42,-330.322C1361.34,-325.376 1581.04,-312.955 1765.5,-288 1777.07,-286.435 1789.54,-284.233 1800.94,-282.016"/>
<polygon fill="midnightblue" stroke="midnightblue" points="1253.95,-326.84 1244.12,-330.792 1254.27,-333.833 1253.95,-326.84"/>
</g>
<!-- Node99 -->
<g id="node50" class="node"><title>Node99</title>
<g id="a_node50"><a xlink:href="_stdio_8h.html" target="_top" xlink:title=" ">
<polygon fill="white" stroke="black" points="1924,-263 1924,-282 2019,-282 2019,-263 1924,-263"/>
<text text-anchor="middle" x="1971.5" y="-270" font-family="Helvetica,sans-Serif" font-size="10.00">Cpl/TShell/Stdio.h</text>
</a>
</g>
</g>
<!-- Node85&#45;&gt;Node99 -->
<g id="edge66" class="edge"><title>Node85&#45;&gt;Node99</title>
<path fill="none" stroke="midnightblue" d="M1254.82,-333.024C1382.4,-332.172 1673.35,-325.815 1914.5,-288 1923.68,-286.56 1933.54,-284.312 1942.43,-282.012"/>
<polygon fill="midnightblue" stroke="midnightblue" points="1254.43,-329.526 1244.45,-333.083 1254.47,-336.526 1254.43,-329.526"/>
</g>
<!-- Node91 -->
<g id="node42" class="node"><title>Node91</title>
<g id="a_node42"><a xlink:href="_cpl_2_system_2_private___8h.html" target="_top" xlink:title="This file contains a collection of classes, interfaces, etc.">
<polygon fill="white" stroke="black" points="1650,-196 1650,-215 1765,-215 1765,-196 1650,-196"/>
<text text-anchor="middle" x="1707.5" y="-203" font-family="Helvetica,sans-Serif" font-size="10.00">Cpl/System/Private_.h</text>
</a>
</g>
</g>
<!-- Node90&#45;&gt;Node91 -->
<g id="edge57" class="edge"><title>Node90&#45;&gt;Node91</title>
<path fill="none" stroke="midnightblue" d="M1578.01,-259.104C1609.78,-246.198 1658.69,-226.327 1686.42,-215.064"/>
<polygon fill="midnightblue" stroke="midnightblue" points="1576.69,-255.862 1568.75,-262.869 1579.33,-262.347 1576.69,-255.862"/>
</g>
<!-- Node94 -->
<g id="node45" class="node"><title>Node94</title>
<g id="a_node45"><a xlink:href="_fsm__trace___8h.html" target="_top" xlink:title=" ">
<polygon fill="white" stroke="black" points="1475,-190.5 1475,-220.5 1620,-220.5 1620,-190.5 1475,-190.5"/>
<text text-anchor="start" x="1483" y="-208.5" font-family="Helvetica,sans-Serif" font-size="10.00">Storm/Component/Equipment</text>
<text text-anchor="middle" x="1547.5" y="-197.5" font-family="Helvetica,sans-Serif" font-size="10.00">/Stage/Fsm_trace_.h</text>
</a>
</g>
</g>
<!-- Node90&#45;&gt;Node94 -->
<g id="edge60" class="edge"><title>Node90&#45;&gt;Node94</title>
<path fill="none" stroke="midnightblue" d="M1547.5,-252.411C1547.5,-242.222 1547.5,-229.901 1547.5,-220.589"/>
<polygon fill="midnightblue" stroke="midnightblue" points="1544,-252.734 1547.5,-262.734 1551,-252.734 1544,-252.734"/>
</g>
<!-- Node92 -->
<g id="node43" class="node"><title>Node92</title>
<g id="a_node43"><a xlink:href="_maker_8h.html" target="_top" xlink:title=" ">
<polygon fill="white" stroke="black" points="1806.5,-134.5 1806.5,-153.5 1906.5,-153.5 1906.5,-134.5 1806.5,-134.5"/>
<text text-anchor="middle" x="1856.5" y="-141.5" font-family="Helvetica,sans-Serif" font-size="10.00">Cpl/TShell/Maker.h</text>
</a>
</g>
</g>
<!-- Node91&#45;&gt;Node92 -->
<g id="edge58" class="edge"><title>Node91&#45;&gt;Node92</title>
<path fill="none" stroke="midnightblue" d="M1738.47,-192.131C1767.42,-180.572 1809.87,-163.62 1835.19,-153.509"/>
<polygon fill="midnightblue" stroke="midnightblue" points="1736.84,-189.016 1728.85,-195.975 1739.43,-195.517 1736.84,-189.016"/>
</g>
<!-- Node93 -->
<g id="node44" class="node"><title>Node93</title>
<g id="a_node44"><a xlink:href="_polled_maker_8h.html" target="_top" xlink:title=" ">
<polygon fill="white" stroke="black" points="1661,-134.5 1661,-153.5 1788,-153.5 1788,-134.5 1661,-134.5"/>
<text text-anchor="middle" x="1724.5" y="-141.5" font-family="Helvetica,sans-Serif" font-size="10.00">Cpl/TShell/PolledMaker.h</text>
</a>
</g>
</g>
<!-- Node91&#45;&gt;Node93 -->
<g id="edge59" class="edge"><title>Node91&#45;&gt;Node93</title>
<path fill="none" stroke="midnightblue" d="M1712.74,-186.157C1715.85,-175.272 1719.65,-161.986 1722.07,-153.509"/>
<polygon fill="midnightblue" stroke="midnightblue" points="1709.32,-185.398 1709.94,-195.975 1716.05,-187.321 1709.32,-185.398"/>
</g>
<!-- Node97 -->
<g id="node48" class="node"><title>Node97</title>
<g id="a_node48"><a xlink:href="_free_r_t_o_s_2_threads_8h.html" target="_top" xlink:title=" ">
<polygon fill="white" stroke="black" points="1916.5,-190.5 1916.5,-220.5 2050.5,-220.5 2050.5,-190.5 1916.5,-190.5"/>
<text text-anchor="start" x="1924.5" y="-208.5" font-family="Helvetica,sans-Serif" font-size="10.00">Cpl/TShell/Cmd/FreeRTOS</text>
<text text-anchor="middle" x="1983.5" y="-197.5" font-family="Helvetica,sans-Serif" font-size="10.00">/Threads.h</text>
</a>
</g>
</g>
<!-- Node96&#45;&gt;Node97 -->
<g id="edge63" class="edge"><title>Node96&#45;&gt;Node97</title>
<path fill="none" stroke="midnightblue" d="M1868.83,-258.621C1893.02,-247.625 1927.75,-231.841 1952.64,-220.528"/>
<polygon fill="midnightblue" stroke="midnightblue" points="1867.14,-255.544 1859.49,-262.869 1870.04,-261.917 1867.14,-255.544"/>
</g>
<!-- Node98 -->
<g id="node49" class="node"><title>Node98</title>
<g id="a_node49"><a xlink:href="_win32_2_threads_8h.html" target="_top" xlink:title=" ">
<polygon fill="white" stroke="black" points="1783,-190.5 1783,-220.5 1898,-220.5 1898,-190.5 1783,-190.5"/>
<text text-anchor="start" x="1791" y="-208.5" font-family="Helvetica,sans-Serif" font-size="10.00">Cpl/TShell/Cmd/Win32</text>
<text text-anchor="middle" x="1840.5" y="-197.5" font-family="Helvetica,sans-Serif" font-size="10.00">/Threads.h</text>
</a>
</g>
</g>
<!-- Node96&#45;&gt;Node98 -->
<g id="edge64" class="edge"><title>Node96&#45;&gt;Node98</title>
<path fill="none" stroke="midnightblue" d="M1840.5,-252.411C1840.5,-242.222 1840.5,-229.901 1840.5,-220.589"/>
<polygon fill="midnightblue" stroke="midnightblue" points="1837,-252.734 1840.5,-262.734 1844,-252.734 1837,-252.734"/>
</g>
</g>
</svg>
