<?xml version="1.0" encoding="UTF-8" standalone="no"?>
<!DOCTYPE svg PUBLIC "-//W3C//DTD SVG 1.1//EN"
 "http://www.w3.org/Graphics/SVG/1.1/DTD/svg11.dtd">
<!-- Generated by graphviz version 2.38.0 (20140413.2041)
 -->
<!-- Title: Cpl/Itc/SAP.h Pages: 1 -->
<svg width="589pt" height="386pt"
 viewBox="0.00 0.00 589.00 386.00" xmlns="http://www.w3.org/2000/svg" xmlns:xlink="http://www.w3.org/1999/xlink">
<g id="graph0" class="graph" transform="scale(1 1) rotate(0) translate(4 382)">
<title>Cpl/Itc/SAP.h</title>
<polygon fill="white" stroke="none" points="-4,4 -4,-382 585,-382 585,4 -4,4"/>
<!-- Node1 -->
<g id="node1" class="node"><title>Node1</title>
<g id="a_node1"><a xlink:title=" ">
<polygon fill="#bfbfbf" stroke="black" points="236.5,-358.5 236.5,-377.5 313.5,-377.5 313.5,-358.5 236.5,-358.5"/>
<text text-anchor="middle" x="275" y="-365.5" font-family="Helvetica,sans-Serif" font-size="10.00">Cpl/Itc/SAP.h</text>
</a>
</g>
</g>
<!-- Node2 -->
<g id="node2" class="node"><title>Node2</title>
<g id="a_node2"><a xlink:href="_listener_client_request_8h.html" target="_top" xlink:title=" ">
<polygon fill="white" stroke="black" points="15,-235.5 15,-265.5 153,-265.5 153,-235.5 15,-235.5"/>
<text text-anchor="start" x="23" y="-253.5" font-family="Helvetica,sans-Serif" font-size="10.00">Cpl/Io/Socket/ListenerClient</text>
<text text-anchor="middle" x="84" y="-242.5" font-family="Helvetica,sans-Serif" font-size="10.00">Request.h</text>
</a>
</g>
</g>
<!-- Node1&#45;&gt;Node2 -->
<g id="edge1" class="edge"><title>Node1&#45;&gt;Node2</title>
<path fill="none" stroke="midnightblue" d="M238.67,-355.063C217.051,-347.193 189.533,-335.799 167,-322 140.397,-305.709 113.607,-281.131 97.9223,-265.716"/>
<polygon fill="midnightblue" stroke="midnightblue" points="237.555,-358.381 248.149,-358.428 239.896,-351.785 237.555,-358.381"/>
</g>
<!-- Node4 -->
<g id="node4" class="node"><title>Node4</title>
<g id="a_node4"><a xlink:href="_atomic_request_8h.html" target="_top" xlink:title=" ">
<polygon fill="white" stroke="black" points="156.5,-174 156.5,-193 279.5,-193 279.5,-174 156.5,-174"/>
<text text-anchor="middle" x="218" y="-181" font-family="Helvetica,sans-Serif" font-size="10.00">Cpl/Itc/AtomicRequest.h</text>
</a>
</g>
</g>
<!-- Node1&#45;&gt;Node4 -->
<g id="edge3" class="edge"><title>Node1&#45;&gt;Node4</title>
<path fill="none" stroke="midnightblue" d="M238.287,-354.268C223.662,-347.181 208.347,-336.742 200,-322 175.565,-278.843 202.11,-216.107 213.412,-193.248"/>
<polygon fill="midnightblue" stroke="midnightblue" points="237.158,-357.596 247.718,-358.453 239.997,-351.197 237.158,-357.596"/>
</g>
<!-- Node6 -->
<g id="node6" class="node"><title>Node6</title>
<g id="a_node6"><a xlink:href="_close_request_8h.html" target="_top" xlink:title=" ">
<polygon fill="white" stroke="black" points="297.5,-174 297.5,-193 414.5,-193 414.5,-174 297.5,-174"/>
<text text-anchor="middle" x="356" y="-181" font-family="Helvetica,sans-Serif" font-size="10.00">Cpl/Itc/CloseRequest.h</text>
</a>
</g>
</g>
<!-- Node1&#45;&gt;Node6 -->
<g id="edge5" class="edge"><title>Node1&#45;&gt;Node6</title>
<path fill="none" stroke="midnightblue" d="M313.77,-354.925C352.278,-340.596 409.069,-312.583 434,-266 440.501,-253.852 440.583,-247.104 434,-235 422.824,-214.451 399.285,-200.979 380.973,-193.159"/>
<polygon fill="midnightblue" stroke="midnightblue" points="312.162,-351.783 303.921,-358.442 314.515,-358.375 312.162,-351.783"/>
</g>
<!-- Node10 -->
<g id="node10" class="node"><title>Node10</title>
<g id="a_node10"><a xlink:href="_open_request_8h.html" target="_top" xlink:title=" ">
<polygon fill="white" stroke="black" points="433,-174 433,-193 549,-193 549,-174 433,-174"/>
<text text-anchor="middle" x="491" y="-181" font-family="Helvetica,sans-Serif" font-size="10.00">Cpl/Itc/OpenRequest.h</text>
</a>
</g>
</g>
<!-- Node1&#45;&gt;Node10 -->
<g id="edge9" class="edge"><title>Node1&#45;&gt;Node10</title>
<path fill="none" stroke="midnightblue" d="M323.508,-357.857C350.228,-351.117 382.952,-339.924 408,-322 455.392,-288.087 480.723,-217.901 488.427,-193.273"/>
<polygon fill="midnightblue" stroke="midnightblue" points="322.503,-354.499 313.59,-360.227 324.13,-361.307 322.503,-354.499"/>
</g>
<!-- Node12 -->
<g id="node12" class="node"><title>Node12</title>
<g id="a_node12"><a xlink:href="_request_message_8h.html" target="_top" xlink:title=" ">
<polygon fill="white" stroke="black" points="209,-302.5 209,-321.5 341,-321.5 341,-302.5 209,-302.5"/>
<text text-anchor="middle" x="275" y="-309.5" font-family="Helvetica,sans-Serif" font-size="10.00">Cpl/Itc/RequestMessage.h</text>
</a>
</g>
</g>
<!-- Node1&#45;&gt;Node12 -->
<g id="edge12" class="edge"><title>Node1&#45;&gt;Node12</title>
<path fill="none" stroke="midnightblue" d="M275,-347.805C275,-338.91 275,-328.78 275,-321.751"/>
<polygon fill="midnightblue" stroke="midnightblue" points="271.5,-348.083 275,-358.083 278.5,-348.083 271.5,-348.083"/>
</g>
<!-- Node3 -->
<g id="node3" class="node"><title>Node3</title>
<g id="a_node3"><a xlink:href="_listener_client_sync_8h.html" target="_top" xlink:title=" ">
<polygon fill="white" stroke="black" points="0,-168.5 0,-198.5 138,-198.5 138,-168.5 0,-168.5"/>
<text text-anchor="start" x="8" y="-186.5" font-family="Helvetica,sans-Serif" font-size="10.00">Cpl/Io/Socket/ListenerClient</text>
<text text-anchor="middle" x="69" y="-175.5" font-family="Helvetica,sans-Serif" font-size="10.00">Sync.h</text>
</a>
</g>
</g>
<!-- Node2&#45;&gt;Node3 -->
<g id="edge2" class="edge"><title>Node2&#45;&gt;Node3</title>
<path fill="none" stroke="midnightblue" d="M78.4391,-225.403C76.3547,-216.37 74.0557,-206.408 72.2484,-198.577"/>
<polygon fill="midnightblue" stroke="midnightblue" points="75.0862,-226.439 80.7452,-235.396 81.9069,-224.865 75.0862,-226.439"/>
</g>
<!-- Node5 -->
<g id="node5" class="node"><title>Node5</title>
<g id="a_node5"><a xlink:href="_atomic_sync_8h.html" target="_top" xlink:title=" ">
<polygon fill="white" stroke="black" points="163,-112.5 163,-131.5 273,-131.5 273,-112.5 163,-112.5"/>
<text text-anchor="middle" x="218" y="-119.5" font-family="Helvetica,sans-Serif" font-size="10.00">Cpl/Itc/AtomicSync.h</text>
</a>
</g>
</g>
<!-- Node4&#45;&gt;Node5 -->
<g id="edge4" class="edge"><title>Node4&#45;&gt;Node5</title>
<path fill="none" stroke="midnightblue" d="M218,-163.817C218,-152.996 218,-139.898 218,-131.509"/>
<polygon fill="midnightblue" stroke="midnightblue" points="214.5,-163.975 218,-173.975 221.5,-163.975 214.5,-163.975"/>
</g>
<!-- Node7 -->
<g id="node7" class="node"><title>Node7</title>
<g id="a_node7"><a xlink:href="_close_sync_8h.html" target="_top" xlink:title=" ">
<polygon fill="white" stroke="black" points="371,-56.5 371,-75.5 475,-75.5 475,-56.5 371,-56.5"/>
<text text-anchor="middle" x="423" y="-63.5" font-family="Helvetica,sans-Serif" font-size="10.00">Cpl/Itc/CloseSync.h</text>
</a>
</g>
</g>
<!-- Node6&#45;&gt;Node7 -->
<g id="edge6" class="edge"><title>Node6&#45;&gt;Node7</title>
<path fill="none" stroke="midnightblue" d="M366.144,-165.013C380.679,-139.956 406.89,-94.7714 417.906,-75.782"/>
<polygon fill="midnightblue" stroke="midnightblue" points="363.026,-163.413 361.036,-173.819 369.081,-166.925 363.026,-163.413"/>
</g>
<!-- Node8 -->
<g id="node8" class="node"><title>Node8</title>
<g id="a_node8"><a xlink:href="_record_server_8h.html" target="_top" xlink:title=" ">
<polygon fill="white" stroke="black" points="265.5,-0.5 265.5,-19.5 414.5,-19.5 414.5,-0.5 265.5,-0.5"/>
<text text-anchor="middle" x="340" y="-7.5" font-family="Helvetica,sans-Serif" font-size="10.00">Cpl/Persistent/RecordServer.h</text>
</a>
</g>
</g>
<!-- Node7&#45;&gt;Node8 -->
<g id="edge7" class="edge"><title>Node7&#45;&gt;Node8</title>
<path fill="none" stroke="midnightblue" d="M400.901,-50.6221C385.738,-40.7574 366.117,-27.9919 353.302,-19.6545"/>
<polygon fill="midnightblue" stroke="midnightblue" points="399.374,-53.8042 409.665,-56.324 403.191,-47.9367 399.374,-53.8042"/>
</g>
<!-- Node9 -->
<g id="node9" class="node"><title>Node9</title>
<g id="a_node9"><a xlink:href="_algorithm_8h.html" target="_top" xlink:title=" ">
<polygon fill="white" stroke="black" points="433,-0.5 433,-19.5 581,-19.5 581,-0.5 433,-0.5"/>
<text text-anchor="middle" x="507" y="-7.5" font-family="Helvetica,sans-Serif" font-size="10.00">Storm/Thermostat/Algorithm.h</text>
</a>
</g>
</g>
<!-- Node7&#45;&gt;Node9 -->
<g id="edge8" class="edge"><title>Node7&#45;&gt;Node9</title>
<path fill="none" stroke="midnightblue" d="M444.932,-50.9005C460.335,-40.9986 480.446,-28.0705 493.537,-19.6545"/>
<polygon fill="midnightblue" stroke="midnightblue" points="443.015,-47.9722 436.496,-56.324 446.801,-53.8605 443.015,-47.9722"/>
</g>
<!-- Node11 -->
<g id="node11" class="node"><title>Node11</title>
<g id="a_node11"><a xlink:href="_open_sync_8h.html" target="_top" xlink:title=" ">
<polygon fill="white" stroke="black" points="426,-112.5 426,-131.5 528,-131.5 528,-112.5 426,-112.5"/>
<text text-anchor="middle" x="477" y="-119.5" font-family="Helvetica,sans-Serif" font-size="10.00">Cpl/Itc/OpenSync.h</text>
</a>
</g>
</g>
<!-- Node10&#45;&gt;Node11 -->
<g id="edge10" class="edge"><title>Node10&#45;&gt;Node11</title>
<path fill="none" stroke="midnightblue" d="M486.684,-164.157C484.123,-153.272 480.997,-139.986 479.002,-131.509"/>
<polygon fill="midnightblue" stroke="midnightblue" points="483.297,-165.043 488.994,-173.975 490.111,-163.439 483.297,-165.043"/>
</g>
<!-- Node11&#45;&gt;Node7 -->
<g id="edge11" class="edge"><title>Node11&#45;&gt;Node7</title>
<path fill="none" stroke="midnightblue" d="M461.002,-105.002C451.433,-95.4329 439.639,-83.6389 431.751,-75.7511"/>
<polygon fill="midnightblue" stroke="midnightblue" points="458.537,-107.487 468.083,-112.083 463.487,-102.537 458.537,-107.487"/>
</g>
<!-- Node12&#45;&gt;Node2 -->
<g id="edge13" class="edge"><title>Node12&#45;&gt;Node2</title>
<path fill="none" stroke="midnightblue" d="M238.03,-299.483C206.889,-289.782 162.233,-275.871 129.015,-265.523"/>
<polygon fill="midnightblue" stroke="midnightblue" points="237.046,-302.842 247.634,-302.475 239.128,-296.159 237.046,-302.842"/>
</g>
<!-- Node12&#45;&gt;Node4 -->
<g id="edge14" class="edge"><title>Node12&#45;&gt;Node4</title>
<path fill="none" stroke="midnightblue" d="M261.172,-294.301C254.951,-286.155 247.917,-275.977 243,-266 230.7,-241.042 222.983,-208.788 219.751,-193.413"/>
<polygon fill="midnightblue" stroke="midnightblue" points="258.51,-296.577 267.466,-302.238 263.995,-292.228 258.51,-296.577"/>
</g>
<!-- Node12&#45;&gt;Node6 -->
<g id="edge15" class="edge"><title>Node12&#45;&gt;Node6</title>
<path fill="none" stroke="midnightblue" d="M270.551,-292.467C267.701,-276.244 266.153,-252.587 276,-235 287.635,-214.22 311.755,-200.779 330.484,-193.029"/>
<polygon fill="midnightblue" stroke="midnightblue" points="267.143,-293.268 272.609,-302.344 273.996,-291.84 267.143,-293.268"/>
</g>
<!-- Node12&#45;&gt;Node10 -->
<g id="edge16" class="edge"><title>Node12&#45;&gt;Node10</title>
<path fill="none" stroke="midnightblue" d="M351.437,-300.402C379.292,-293.818 409.846,-283.176 434,-266 461.298,-246.588 479.957,-209.793 487.393,-193.11"/>
<polygon fill="midnightblue" stroke="midnightblue" points="350.318,-297.065 341.314,-302.649 351.835,-303.899 350.318,-297.065"/>
</g>
<!-- Node13 -->
<g id="node13" class="node"><title>Node13</title>
<g id="a_node13"><a xlink:href="_response_message_8h.html" target="_top" xlink:title=" ">
<polygon fill="white" stroke="black" points="285,-241 285,-260 425,-260 425,-241 285,-241"/>
<text text-anchor="middle" x="355" y="-248" font-family="Helvetica,sans-Serif" font-size="10.00">Cpl/Itc/ResponseMessage.h</text>
</a>
</g>
</g>
<!-- Node12&#45;&gt;Node13 -->
<g id="edge17" class="edge"><title>Node12&#45;&gt;Node13</title>
<path fill="none" stroke="midnightblue" d="M294.773,-296.294C310.119,-284.88 330.855,-269.458 343.559,-260.009"/>
<polygon fill="midnightblue" stroke="midnightblue" points="292.397,-293.699 286.462,-302.475 296.575,-299.316 292.397,-293.699"/>
</g>
<!-- Node13&#45;&gt;Node4 -->
<g id="edge18" class="edge"><title>Node13&#45;&gt;Node4</title>
<path fill="none" stroke="midnightblue" d="M327.481,-236.444C300.346,-223.569 259.642,-204.257 236.268,-193.167"/>
<polygon fill="midnightblue" stroke="midnightblue" points="326.272,-239.744 336.807,-240.869 329.273,-233.42 326.272,-239.744"/>
</g>
<!-- Node13&#45;&gt;Node6 -->
<g id="edge19" class="edge"><title>Node13&#45;&gt;Node6</title>
<path fill="none" stroke="midnightblue" d="M355.292,-230.537C355.482,-218.17 355.721,-202.62 355.867,-193.127"/>
<polygon fill="midnightblue" stroke="midnightblue" points="351.789,-230.681 355.135,-240.734 358.788,-230.789 351.789,-230.681"/>
</g>
<!-- Node13&#45;&gt;Node10 -->
<g id="edge20" class="edge"><title>Node13&#45;&gt;Node10</title>
<path fill="none" stroke="midnightblue" d="M382.318,-236.444C409.255,-223.569 449.662,-204.257 472.866,-193.167"/>
<polygon fill="midnightblue" stroke="midnightblue" points="380.573,-233.398 373.06,-240.869 383.592,-239.714 380.573,-233.398"/>
</g>
</g>
</svg>
