<?xml version="1.0" encoding="UTF-8" standalone="no"?>
<!DOCTYPE svg PUBLIC "-//W3C//DTD SVG 1.1//EN"
 "http://www.w3.org/Graphics/SVG/1.1/DTD/svg11.dtd">
<!-- Generated by graphviz version 2.38.0 (20140413.2041)
 -->
<!-- Title: Cpl/TShell/Security.h Pages: 1 -->
<svg width="2337pt" height="341pt"
 viewBox="0.00 0.00 2337.33 341.00" xmlns="http://www.w3.org/2000/svg" xmlns:xlink="http://www.w3.org/1999/xlink">
<g id="graph0" class="graph" transform="scale(1 1) rotate(0) translate(4 337)">
<title>Cpl/TShell/Security.h</title>
<polygon fill="white" stroke="none" points="-4,4 -4,-337 2333.33,-337 2333.33,4 -4,4"/>
<!-- Node1 -->
<g id="node1" class="node"><title>Node1</title>
<g id="a_node1"><a xlink:title=" ">
<polygon fill="#bfbfbf" stroke="black" points="1277.5,-313.5 1277.5,-332.5 1386.5,-332.5 1386.5,-313.5 1277.5,-313.5"/>
<text text-anchor="middle" x="1332" y="-320.5" font-family="Helvetica,sans-Serif" font-size="10.00">Cpl/TShell/Security.h</text>
</a>
</g>
</g>
<!-- Node2 -->
<g id="node2" class="node"><title>Node2</title>
<g id="a_node2"><a xlink:href="_command_8h.html" target="_top" xlink:title=" ">
<polygon fill="white" stroke="black" points="1273.5,-257.5 1273.5,-276.5 1390.5,-276.5 1390.5,-257.5 1273.5,-257.5"/>
<text text-anchor="middle" x="1332" y="-264.5" font-family="Helvetica,sans-Serif" font-size="10.00">Cpl/TShell/Command.h</text>
</a>
</g>
</g>
<!-- Node1&#45;&gt;Node2 -->
<g id="edge1" class="edge"><title>Node1&#45;&gt;Node2</title>
<path fill="none" stroke="midnightblue" d="M1332,-302.805C1332,-293.91 1332,-283.78 1332,-276.751"/>
<polygon fill="midnightblue" stroke="midnightblue" points="1328.5,-303.083 1332,-313.083 1335.5,-303.083 1328.5,-303.083"/>
</g>
<!-- Node22 -->
<g id="node22" class="node"><title>Node22</title>
<g id="a_node22"><a xlink:href="_context___8h.html" target="_top" xlink:title=" ">
<polygon fill="white" stroke="black" points="1190,-196 1190,-215 1302,-215 1302,-196 1190,-196"/>
<text text-anchor="middle" x="1246" y="-203" font-family="Helvetica,sans-Serif" font-size="10.00">Cpl/TShell/Context_.h</text>
</a>
</g>
</g>
<!-- Node1&#45;&gt;Node22 -->
<g id="edge30" class="edge"><title>Node1&#45;&gt;Node22</title>
<path fill="none" stroke="midnightblue" d="M1302.4,-308.701C1288.84,-301.205 1273.66,-290.592 1264,-277 1250.38,-257.851 1247.05,-229.311 1246.25,-215.136"/>
<polygon fill="midnightblue" stroke="midnightblue" points="1300.95,-311.895 1311.44,-313.392 1304.18,-305.681 1300.95,-311.895"/>
</g>
<!-- Node28 -->
<g id="node28" class="node"><title>Node28</title>
<g id="a_node28"><a xlink:href="_security_null_8h.html" target="_top" xlink:title=" ">
<polygon fill="white" stroke="black" points="1408.5,-257.5 1408.5,-276.5 1533.5,-276.5 1533.5,-257.5 1408.5,-257.5"/>
<text text-anchor="middle" x="1471" y="-264.5" font-family="Helvetica,sans-Serif" font-size="10.00">Cpl/TShell/SecurityNull.h</text>
</a>
</g>
</g>
<!-- Node1&#45;&gt;Node28 -->
<g id="edge31" class="edge"><title>Node1&#45;&gt;Node28</title>
<path fill="none" stroke="midnightblue" d="M1363.48,-309.772C1389.59,-299.629 1426.04,-285.467 1449.08,-276.516"/>
<polygon fill="midnightblue" stroke="midnightblue" points="1362.08,-306.56 1354.02,-313.444 1364.61,-313.085 1362.08,-306.56"/>
</g>
<!-- Node3 -->
<g id="node3" class="node"><title>Node3</title>
<g id="a_node3"><a xlink:href="_cmd_2_command_8h.html" target="_top" xlink:title=" ">
<polygon fill="white" stroke="black" points="1219,-134.5 1219,-153.5 1359,-153.5 1359,-134.5 1219,-134.5"/>
<text text-anchor="middle" x="1289" y="-141.5" font-family="Helvetica,sans-Serif" font-size="10.00">Cpl/TShell/Cmd/Command.h</text>
</a>
</g>
</g>
<!-- Node2&#45;&gt;Node3 -->
<g id="edge2" class="edge"><title>Node2&#45;&gt;Node3</title>
<path fill="none" stroke="midnightblue" d="M1327.9,-247.474C1324.21,-231.894 1318.26,-209.159 1311,-190 1306.07,-176.989 1298.71,-162.663 1293.88,-153.749"/>
<polygon fill="midnightblue" stroke="midnightblue" points="1324.53,-248.435 1330.17,-257.401 1331.35,-246.872 1324.53,-248.435"/>
</g>
<!-- Node2&#45;&gt;Node22 -->
<g id="edge22" class="edge"><title>Node2&#45;&gt;Node22</title>
<path fill="none" stroke="midnightblue" d="M1311.2,-251.613C1294.66,-240.169 1272.08,-224.546 1258.3,-215.009"/>
<polygon fill="midnightblue" stroke="midnightblue" points="1309.46,-254.664 1319.68,-257.475 1313.45,-248.907 1309.46,-254.664"/>
</g>
<!-- Node27 -->
<g id="node27" class="node"><title>Node27</title>
<g id="a_node27"><a xlink:href="_main_8h.html" target="_top" xlink:title="This file defines the hardware/platform independent start&#45;up interface(s) for the Storm::Thermostat a...">
<polygon fill="white" stroke="black" points="1834.5,-190.5 1834.5,-220.5 1953.5,-220.5 1953.5,-190.5 1834.5,-190.5"/>
<text text-anchor="start" x="1842.5" y="-208.5" font-family="Helvetica,sans-Serif" font-size="10.00">Storm/Thermostat/Main</text>
<text text-anchor="middle" x="1894" y="-197.5" font-family="Helvetica,sans-Serif" font-size="10.00">/Main.h</text>
</a>
</g>
</g>
<!-- Node2&#45;&gt;Node27 -->
<g id="edge28" class="edge"><title>Node2&#45;&gt;Node27</title>
<path fill="none" stroke="midnightblue" d="M1400.99,-256.794C1563.33,-237.751 1742.88,-220.487 1834.12,-211.988"/>
<polygon fill="midnightblue" stroke="midnightblue" points="1400.33,-253.346 1390.81,-257.992 1401.15,-260.298 1400.33,-253.346"/>
</g>
<!-- Node4 -->
<g id="node4" class="node"><title>Node4</title>
<g id="a_node4"><a xlink:href="_dm_8h.html" target="_top" xlink:title=" ">
<polygon fill="white" stroke="black" points="1923,-73 1923,-92 2029,-92 2029,-73 1923,-73"/>
<text text-anchor="middle" x="1976" y="-80" font-family="Helvetica,sans-Serif" font-size="10.00">Cpl/Dm/TShell/Dm.h</text>
</a>
</g>
</g>
<!-- Node3&#45;&gt;Node4 -->
<g id="edge3" class="edge"><title>Node3&#45;&gt;Node4</title>
<path fill="none" stroke="midnightblue" d="M1369.38,-141.264C1488.81,-137.771 1719.88,-127.499 1914,-98 1923.73,-96.5219 1934.18,-94.319 1943.69,-92.0739"/>
<polygon fill="midnightblue" stroke="midnightblue" points="1369.13,-137.77 1359.23,-141.552 1369.33,-144.767 1369.13,-137.77"/>
</g>
<!-- Node5 -->
<g id="node5" class="node"><title>Node5</title>
<g id="a_node5"><a xlink:href="_dbg_8h.html" target="_top" xlink:title=" ">
<polygon fill="white" stroke="black" points="2047.5,-67.5 2047.5,-97.5 2168.5,-97.5 2168.5,-67.5 2047.5,-67.5"/>
<text text-anchor="start" x="2055.5" y="-85.5" font-family="Helvetica,sans-Serif" font-size="10.00">Cpl/TShell/Cmd/Arduino</text>
<text text-anchor="middle" x="2108" y="-74.5" font-family="Helvetica,sans-Serif" font-size="10.00">/Dbg.h</text>
</a>
</g>
</g>
<!-- Node3&#45;&gt;Node5 -->
<g id="edge4" class="edge"><title>Node3&#45;&gt;Node5</title>
<path fill="none" stroke="midnightblue" d="M1369.05,-141.973C1506.46,-139.367 1795.8,-130.189 2038,-98 2041.08,-97.5912 2044.22,-97.124 2047.39,-96.6137"/>
<polygon fill="midnightblue" stroke="midnightblue" points="1368.96,-138.474 1359.02,-142.156 1369.09,-145.473 1368.96,-138.474"/>
</g>
<!-- Node6 -->
<g id="node6" class="node"><title>Node6</title>
<g id="a_node6"><a xlink:href="_bye_8h.html" target="_top" xlink:title=" ">
<polygon fill="white" stroke="black" points="2186.5,-73 2186.5,-92 2299.5,-92 2299.5,-73 2186.5,-73"/>
<text text-anchor="middle" x="2243" y="-80" font-family="Helvetica,sans-Serif" font-size="10.00">Cpl/TShell/Cmd/Bye.h</text>
</a>
</g>
</g>
<!-- Node3&#45;&gt;Node6 -->
<g id="edge5" class="edge"><title>Node3&#45;&gt;Node6</title>
<path fill="none" stroke="midnightblue" d="M1369.1,-143.461C1525.41,-143.366 1881.69,-138.256 2178,-98 2188.43,-96.5836 2199.65,-94.342 2209.79,-92.0408"/>
<polygon fill="midnightblue" stroke="midnightblue" points="1369.1,-139.961 1359.1,-143.461 1369.1,-146.961 1369.1,-139.961"/>
</g>
<!-- Node7 -->
<g id="node7" class="node"><title>Node7</title>
<g id="a_node7"><a xlink:href="_help_8h.html" target="_top" xlink:title=" ">
<polygon fill="white" stroke="black" points="280,-73 280,-92 396,-92 396,-73 280,-73"/>
<text text-anchor="middle" x="338" y="-80" font-family="Helvetica,sans-Serif" font-size="10.00">Cpl/TShell/Cmd/Help.h</text>
</a>
</g>
</g>
<!-- Node3&#45;&gt;Node7 -->
<g id="edge6" class="edge"><title>Node3&#45;&gt;Node7</title>
<path fill="none" stroke="midnightblue" d="M1208.31,-143.258C1052.38,-142.793 699.102,-137.047 405,-98 394.264,-96.5746 382.695,-94.3304 372.241,-92.0296"/>
<polygon fill="midnightblue" stroke="midnightblue" points="1208.74,-146.759 1218.74,-143.282 1208.75,-139.759 1208.74,-146.759"/>
</g>
<!-- Node8 -->
<g id="node8" class="node"><title>Node8</title>
<g id="a_node8"><a xlink:href="_t_print_8h.html" target="_top" xlink:title=" ">
<polygon fill="white" stroke="black" points="414,-73 414,-92 536,-92 536,-73 414,-73"/>
<text text-anchor="middle" x="475" y="-80" font-family="Helvetica,sans-Serif" font-size="10.00">Cpl/TShell/Cmd/TPrint.h</text>
</a>
</g>
</g>
<!-- Node3&#45;&gt;Node8 -->
<g id="edge7" class="edge"><title>Node3&#45;&gt;Node8</title>
<path fill="none" stroke="midnightblue" d="M1208.54,-141.919C1071.67,-139.235 785.028,-129.95 545,-98 533.928,-96.5262 521.989,-94.2965 511.162,-92.0246"/>
<polygon fill="midnightblue" stroke="midnightblue" points="1208.86,-145.426 1218.93,-142.115 1209,-138.427 1208.86,-145.426"/>
</g>
<!-- Node9 -->
<g id="node9" class="node"><title>Node9</title>
<g id="a_node9"><a xlink:href="_threads_8h.html" target="_top" xlink:title=" ">
<polygon fill="white" stroke="black" points="554.5,-73 554.5,-92 685.5,-92 685.5,-73 554.5,-73"/>
<text text-anchor="middle" x="620" y="-80" font-family="Helvetica,sans-Serif" font-size="10.00">Cpl/TShell/Cmd/Threads.h</text>
</a>
</g>
</g>
<!-- Node3&#45;&gt;Node9 -->
<g id="edge8" class="edge"><title>Node3&#45;&gt;Node9</title>
<path fill="none" stroke="midnightblue" d="M1208.55,-139.93C1093.9,-134.872 877.108,-122.776 694,-98 682.583,-96.4553 670.272,-94.2592 659.029,-92.042"/>
<polygon fill="midnightblue" stroke="midnightblue" points="1208.51,-143.432 1218.65,-140.369 1208.81,-136.438 1208.51,-143.432"/>
</g>
<!-- Node12 -->
<g id="node12" class="node"><title>Node12</title>
<g id="a_node12"><a xlink:href="_tick_8h.html" target="_top" xlink:title=" ">
<polygon fill="white" stroke="black" points="703.5,-73 703.5,-92 818.5,-92 818.5,-73 703.5,-73"/>
<text text-anchor="middle" x="761" y="-80" font-family="Helvetica,sans-Serif" font-size="10.00">Cpl/TShell/Cmd/Tick.h</text>
</a>
</g>
</g>
<!-- Node3&#45;&gt;Node12 -->
<g id="edge11" class="edge"><title>Node3&#45;&gt;Node12</title>
<path fill="none" stroke="midnightblue" d="M1208.49,-138.078C1116.02,-131.75 959.925,-118.999 827,-98 816.919,-96.4074 806.067,-94.2226 796.133,-92.0321"/>
<polygon fill="midnightblue" stroke="midnightblue" points="1208.41,-141.58 1218.62,-138.763 1208.88,-134.596 1208.41,-141.58"/>
</g>
<!-- Node13 -->
<g id="node13" class="node"><title>Node13</title>
<g id="a_node13"><a xlink:href="_t_shell_2_cmd_2_trace_8h.html" target="_top" xlink:title=" ">
<polygon fill="white" stroke="black" points="836.5,-73 836.5,-92 957.5,-92 957.5,-73 836.5,-73"/>
<text text-anchor="middle" x="897" y="-80" font-family="Helvetica,sans-Serif" font-size="10.00">Cpl/TShell/Cmd/Trace.h</text>
</a>
</g>
</g>
<!-- Node3&#45;&gt;Node13 -->
<g id="edge12" class="edge"><title>Node3&#45;&gt;Node13</title>
<path fill="none" stroke="midnightblue" d="M1208.54,-133.239C1143.26,-124.964 1048.96,-112.2 967,-98 956.85,-96.2415 945.924,-94.0991 935.791,-92.0065"/>
<polygon fill="midnightblue" stroke="midnightblue" points="1208.4,-136.749 1218.76,-134.528 1209.27,-129.804 1208.4,-136.749"/>
</g>
<!-- Node14 -->
<g id="node14" class="node"><title>Node14</title>
<g id="a_node14"><a xlink:href="_cpl_2_t_shell_2_cmd_2_user_8h.html" target="_top" xlink:title=" ">
<polygon fill="white" stroke="black" points="976,-73 976,-92 1092,-92 1092,-73 976,-73"/>
<text text-anchor="middle" x="1034" y="-80" font-family="Helvetica,sans-Serif" font-size="10.00">Cpl/TShell/Cmd/User.h</text>
</a>
</g>
</g>
<!-- Node3&#45;&gt;Node14 -->
<g id="edge13" class="edge"><title>Node3&#45;&gt;Node14</title>
<path fill="none" stroke="midnightblue" d="M1242.65,-132.186C1193.17,-120.641 1115.79,-102.584 1070.47,-92.0091"/>
<polygon fill="midnightblue" stroke="midnightblue" points="1241.93,-135.611 1252.46,-134.475 1243.52,-128.794 1241.93,-135.611"/>
</g>
<!-- Node15 -->
<g id="node15" class="node"><title>Node15</title>
<g id="a_node15"><a xlink:href="_state_8h.html" target="_top" xlink:title=" ">
<polygon fill="white" stroke="black" points="1110,-73 1110,-92 1218,-92 1218,-73 1110,-73"/>
<text text-anchor="middle" x="1164" y="-80" font-family="Helvetica,sans-Serif" font-size="10.00">Storm/TShell/State.h</text>
</a>
</g>
</g>
<!-- Node3&#45;&gt;Node15 -->
<g id="edge14" class="edge"><title>Node3&#45;&gt;Node15</title>
<path fill="none" stroke="midnightblue" d="M1262.06,-130.174C1237.8,-118.629 1202.84,-101.987 1181.88,-92.0091"/>
<polygon fill="midnightblue" stroke="midnightblue" points="1260.56,-133.337 1271.09,-134.475 1263.57,-127.017 1260.56,-133.337"/>
</g>
<!-- Node16 -->
<g id="node16" class="node"><title>Node16</title>
<g id="a_node16"><a xlink:href="_storm_2_t_shell_2_user_8h.html" target="_top" xlink:title=" ">
<polygon fill="white" stroke="black" points="1236.5,-73 1236.5,-92 1341.5,-92 1341.5,-73 1236.5,-73"/>
<text text-anchor="middle" x="1289" y="-80" font-family="Helvetica,sans-Serif" font-size="10.00">Storm/TShell/User.h</text>
</a>
</g>
</g>
<!-- Node3&#45;&gt;Node16 -->
<g id="edge15" class="edge"><title>Node3&#45;&gt;Node16</title>
<path fill="none" stroke="midnightblue" d="M1289,-124.317C1289,-113.496 1289,-100.398 1289,-92.0091"/>
<polygon fill="midnightblue" stroke="midnightblue" points="1285.5,-124.475 1289,-134.475 1292.5,-124.475 1285.5,-124.475"/>
</g>
<!-- Node17 -->
<g id="node17" class="node"><title>Node17</title>
<g id="a_node17"><a xlink:href="_t_shell_2_white_box_8h.html" target="_top" xlink:title=" ">
<polygon fill="white" stroke="black" points="1359.5,-73 1359.5,-92 1486.5,-92 1486.5,-73 1359.5,-73"/>
<text text-anchor="middle" x="1423" y="-80" font-family="Helvetica,sans-Serif" font-size="10.00">Storm/TShell/WhiteBox.h</text>
</a>
</g>
</g>
<!-- Node3&#45;&gt;Node17 -->
<g id="edge16" class="edge"><title>Node3&#45;&gt;Node17</title>
<path fill="none" stroke="midnightblue" d="M1317.54,-130.327C1343.55,-118.776 1381.26,-102.032 1403.84,-92.0091"/>
<polygon fill="midnightblue" stroke="midnightblue" points="1315.92,-127.218 1308.2,-134.475 1318.76,-133.616 1315.92,-127.218"/>
</g>
<!-- Node18 -->
<g id="node18" class="node"><title>Node18</title>
<g id="a_node18"><a xlink:href="filter_8h.html" target="_top" xlink:title=" ">
<polygon fill="white" stroke="black" points="1505,-73 1505,-92 1609,-92 1609,-73 1505,-73"/>
<text text-anchor="middle" x="1557" y="-80" font-family="Helvetica,sans-Serif" font-size="10.00">Storm/TShell/filter.h</text>
</a>
</g>
</g>
<!-- Node3&#45;&gt;Node18 -->
<g id="edge17" class="edge"><title>Node3&#45;&gt;Node18</title>
<path fill="none" stroke="midnightblue" d="M1338.83,-132.329C1380.58,-123.337 1441.73,-110.047 1495,-98 1503.41,-96.0981 1512.45,-94.0091 1520.96,-92.0235"/>
<polygon fill="midnightblue" stroke="midnightblue" points="1337.95,-128.937 1328.91,-134.462 1339.43,-135.78 1337.95,-128.937"/>
</g>
<!-- Node19 -->
<g id="node19" class="node"><title>Node19</title>
<g id="a_node19"><a xlink:href="_cmd_8h.html" target="_top" xlink:title=" ">
<polygon fill="white" stroke="black" points="1627.5,-67.5 1627.5,-97.5 1770.5,-97.5 1770.5,-67.5 1627.5,-67.5"/>
<text text-anchor="start" x="1635.5" y="-85.5" font-family="Helvetica,sans-Serif" font-size="10.00">Storm/Thermostat/SimHouse</text>
<text text-anchor="middle" x="1699" y="-74.5" font-family="Helvetica,sans-Serif" font-size="10.00">/Cmd.h</text>
</a>
</g>
</g>
<!-- Node3&#45;&gt;Node19 -->
<g id="edge18" class="edge"><title>Node3&#45;&gt;Node19</title>
<path fill="none" stroke="midnightblue" d="M1367.51,-133.186C1434.25,-124.622 1532.56,-111.485 1618,-98 1621.1,-97.51 1624.27,-96.9972 1627.47,-96.469"/>
<polygon fill="midnightblue" stroke="midnightblue" points="1366.96,-129.727 1357.49,-134.468 1367.85,-136.671 1366.96,-129.727"/>
</g>
<!-- Node21 -->
<g id="node21" class="node"><title>Node21</title>
<g id="a_node21"><a xlink:href="_log_8h.html" target="_top" xlink:title=" ">
<polygon fill="white" stroke="black" points="1789,-67.5 1789,-97.5 1905,-97.5 1905,-67.5 1789,-67.5"/>
<text text-anchor="start" x="1797" y="-85.5" font-family="Helvetica,sans-Serif" font-size="10.00">Storm/Thermostat/_file</text>
<text text-anchor="middle" x="1847" y="-74.5" font-family="Helvetica,sans-Serif" font-size="10.00">_logger/Log.h</text>
</a>
</g>
</g>
<!-- Node3&#45;&gt;Node21 -->
<g id="edge20" class="edge"><title>Node3&#45;&gt;Node21</title>
<path fill="none" stroke="midnightblue" d="M1369.16,-138.563C1466.49,-132.504 1635.44,-119.82 1779,-98 1782.22,-97.5103 1785.52,-96.9625 1788.84,-96.3745"/>
<polygon fill="midnightblue" stroke="midnightblue" points="1368.87,-135.075 1359.1,-139.182 1369.3,-142.061 1368.87,-135.075"/>
</g>
<!-- Node10 -->
<g id="node10" class="node"><title>Node10</title>
<g id="a_node10"><a xlink:href="_free_r_t_o_s_2_threads_8h.html" target="_top" xlink:title=" ">
<polygon fill="white" stroke="black" points="481,-0.5 481,-30.5 615,-30.5 615,-0.5 481,-0.5"/>
<text text-anchor="start" x="489" y="-18.5" font-family="Helvetica,sans-Serif" font-size="10.00">Cpl/TShell/Cmd/FreeRTOS</text>
<text text-anchor="middle" x="548" y="-7.5" font-family="Helvetica,sans-Serif" font-size="10.00">/Threads.h</text>
</a>
</g>
</g>
<!-- Node9&#45;&gt;Node10 -->
<g id="edge9" class="edge"><title>Node9&#45;&gt;Node10</title>
<path fill="none" stroke="midnightblue" d="M602.751,-65.928C590.844,-55.1788 575.141,-41.0024 563.606,-30.589"/>
<polygon fill="midnightblue" stroke="midnightblue" points="600.522,-68.6307 610.29,-72.7338 605.212,-63.4348 600.522,-68.6307"/>
</g>
<!-- Node11 -->
<g id="node11" class="node"><title>Node11</title>
<g id="a_node11"><a xlink:href="_win32_2_threads_8h.html" target="_top" xlink:title=" ">
<polygon fill="white" stroke="black" points="633.5,-0.5 633.5,-30.5 748.5,-30.5 748.5,-0.5 633.5,-0.5"/>
<text text-anchor="start" x="641.5" y="-18.5" font-family="Helvetica,sans-Serif" font-size="10.00">Cpl/TShell/Cmd/Win32</text>
<text text-anchor="middle" x="691" y="-7.5" font-family="Helvetica,sans-Serif" font-size="10.00">/Threads.h</text>
</a>
</g>
</g>
<!-- Node9&#45;&gt;Node11 -->
<g id="edge10" class="edge"><title>Node9&#45;&gt;Node11</title>
<path fill="none" stroke="midnightblue" d="M637.009,-65.928C648.751,-55.1788 664.236,-41.0024 675.61,-30.589"/>
<polygon fill="midnightblue" stroke="midnightblue" points="634.588,-63.3997 629.575,-72.7338 639.315,-68.5628 634.588,-63.3997"/>
</g>
<!-- Node20 -->
<g id="node20" class="node"><title>Node20</title>
<g id="a_node20"><a xlink:href="statics___8h.html" target="_top" xlink:title="This file defines/creates persistent records and record server for the Thermostat simulation.">
<polygon fill="white" stroke="black" points="1787.5,-0.5 1787.5,-30.5 1906.5,-30.5 1906.5,-0.5 1787.5,-0.5"/>
<text text-anchor="start" x="1795.5" y="-18.5" font-family="Helvetica,sans-Serif" font-size="10.00">Storm/Thermostat/Main</text>
<text text-anchor="middle" x="1847" y="-7.5" font-family="Helvetica,sans-Serif" font-size="10.00">/_simulation/statics_.h</text>
</a>
</g>
</g>
<!-- Node19&#45;&gt;Node20 -->
<g id="edge19" class="edge"><title>Node19&#45;&gt;Node20</title>
<path fill="none" stroke="midnightblue" d="M1740.51,-63.2687C1764.08,-52.9159 1793.14,-40.1528 1814.95,-30.5765"/>
<polygon fill="midnightblue" stroke="midnightblue" points="1738.86,-60.1702 1731.11,-67.396 1741.68,-66.5793 1738.86,-60.1702"/>
</g>
<!-- Node21&#45;&gt;Node20 -->
<g id="edge21" class="edge"><title>Node21&#45;&gt;Node20</title>
<path fill="none" stroke="midnightblue" d="M1847,-57.1081C1847,-48.1539 1847,-38.3227 1847,-30.5765"/>
<polygon fill="midnightblue" stroke="midnightblue" points="1843.5,-57.3959 1847,-67.396 1850.5,-57.396 1843.5,-57.3959"/>
</g>
<!-- Node22&#45;&gt;Node3 -->
<g id="edge23" class="edge"><title>Node22&#45;&gt;Node3</title>
<path fill="none" stroke="midnightblue" d="M1258.04,-187.838C1266.11,-176.669 1276.41,-162.428 1282.85,-153.509"/>
<polygon fill="midnightblue" stroke="midnightblue" points="1255.18,-185.82 1252.16,-195.975 1260.86,-189.92 1255.18,-185.82"/>
</g>
<!-- Node23 -->
<g id="node23" class="node"><title>Node23</title>
<g id="a_node23"><a xlink:href="_processor_8h.html" target="_top" xlink:title=" ">
<polygon fill="white" stroke="black" points="131.5,-134.5 131.5,-153.5 248.5,-153.5 248.5,-134.5 131.5,-134.5"/>
<text text-anchor="middle" x="190" y="-141.5" font-family="Helvetica,sans-Serif" font-size="10.00">Cpl/TShell/Processor.h</text>
</a>
</g>
</g>
<!-- Node22&#45;&gt;Node23 -->
<g id="edge24" class="edge"><title>Node22&#45;&gt;Node23</title>
<path fill="none" stroke="midnightblue" d="M1179.73,-200.766C987.417,-189.93 431.322,-158.597 248.802,-148.313"/>
<polygon fill="midnightblue" stroke="midnightblue" points="1179.79,-204.275 1189.97,-201.343 1180.18,-197.286 1179.79,-204.275"/>
</g>
<!-- Node24 -->
<g id="node24" class="node"><title>Node24</title>
<g id="a_node24"><a xlink:href="_maker_8h.html" target="_top" xlink:title=" ">
<polygon fill="white" stroke="black" points="0,-73 0,-92 100,-92 100,-73 0,-73"/>
<text text-anchor="middle" x="50" y="-80" font-family="Helvetica,sans-Serif" font-size="10.00">Cpl/TShell/Maker.h</text>
</a>
</g>
</g>
<!-- Node23&#45;&gt;Node24 -->
<g id="edge25" class="edge"><title>Node23&#45;&gt;Node24</title>
<path fill="none" stroke="midnightblue" d="M160.54,-130.48C133.35,-118.924 93.7078,-102.076 70.0214,-92.0091"/>
<polygon fill="midnightblue" stroke="midnightblue" points="159.369,-133.785 169.941,-134.475 162.107,-127.342 159.369,-133.785"/>
</g>
<!-- Node25 -->
<g id="node25" class="node"><title>Node25</title>
<g id="a_node25"><a xlink:href="_polled_processor_8h.html" target="_top" xlink:title=" ">
<polygon fill="white" stroke="black" points="118,-73 118,-92 262,-92 262,-73 118,-73"/>
<text text-anchor="middle" x="190" y="-80" font-family="Helvetica,sans-Serif" font-size="10.00">Cpl/TShell/PolledProcessor.h</text>
</a>
</g>
</g>
<!-- Node23&#45;&gt;Node25 -->
<g id="edge26" class="edge"><title>Node23&#45;&gt;Node25</title>
<path fill="none" stroke="midnightblue" d="M190,-124.317C190,-113.496 190,-100.398 190,-92.0091"/>
<polygon fill="midnightblue" stroke="midnightblue" points="186.5,-124.475 190,-134.475 193.5,-124.475 186.5,-124.475"/>
</g>
<!-- Node26 -->
<g id="node26" class="node"><title>Node26</title>
<g id="a_node26"><a xlink:href="_polled_maker_8h.html" target="_top" xlink:title=" ">
<polygon fill="white" stroke="black" points="126.5,-6 126.5,-25 253.5,-25 253.5,-6 126.5,-6"/>
<text text-anchor="middle" x="190" y="-13" font-family="Helvetica,sans-Serif" font-size="10.00">Cpl/TShell/PolledMaker.h</text>
</a>
</g>
</g>
<!-- Node25&#45;&gt;Node26 -->
<g id="edge27" class="edge"><title>Node25&#45;&gt;Node26</title>
<path fill="none" stroke="midnightblue" d="M190,-62.537C190,-50.1703 190,-34.6198 190,-25.1273"/>
<polygon fill="midnightblue" stroke="midnightblue" points="186.5,-62.7338 190,-72.7338 193.5,-62.7338 186.5,-62.7338"/>
</g>
<!-- Node27&#45;&gt;Node20 -->
<g id="edge29" class="edge"><title>Node27&#45;&gt;Node20</title>
<path fill="none" stroke="midnightblue" d="M1964.14,-203.743C2106.82,-199.911 2409.23,-178.777 2309,-67 2282.61,-37.564 2025.81,-23.5997 1906.89,-18.6709"/>
<polygon fill="midnightblue" stroke="midnightblue" points="1963.64,-200.254 1953.73,-203.999 1963.82,-207.252 1963.64,-200.254"/>
</g>
</g>
</svg>
