<?xml version="1.0" encoding="UTF-8" standalone="no"?>
<!DOCTYPE svg PUBLIC "-//W3C//DTD SVG 1.1//EN"
 "http://www.w3.org/Graphics/SVG/1.1/DTD/svg11.dtd">
<!-- Generated by graphviz version 10.0.1 (20240210.2158)
 -->
<!-- Title: Cpl/TShell/Security.h Pages: 1 -->
<svg width="2651pt" height="344pt"
 viewBox="0.00 0.00 2651.25 344.00" xmlns="http://www.w3.org/2000/svg" xmlns:xlink="http://www.w3.org/1999/xlink">
<g id="graph0" class="graph" transform="scale(1 1) rotate(0) translate(4 340)">
<title>Cpl/TShell/Security.h</title>
<!-- Node1 -->
<g id="Node000001" class="node">
<title>Node1</title>
<g id="a_Node000001"><a xlink:title=" ">
<polygon fill="#999999" stroke="#666666" points="1582.12,-336 1474.62,-336 1474.62,-316 1582.12,-316 1582.12,-336"/>
<text text-anchor="middle" x="1528.38" y="-322.5" font-family="Helvetica,sans-Serif" font-size="10.00">Cpl/TShell/Security.h</text>
</a>
</g>
</g>
<!-- Node2 -->
<g id="Node000002" class="node">
<title>Node2</title>
<g id="a_Node000002"><a xlink:href="_command_8h.html" target="_top" xlink:title=" ">
<polygon fill="white" stroke="#666666" points="1586.25,-280 1470.5,-280 1470.5,-260 1586.25,-260 1586.25,-280"/>
<text text-anchor="middle" x="1528.38" y="-266.5" font-family="Helvetica,sans-Serif" font-size="10.00">Cpl/TShell/Command.h</text>
</a>
</g>
</g>
<!-- Node1&#45;&gt;Node2 -->
<g id="edge1_Node000001_Node000002" class="edge">
<title>Node1&#45;&gt;Node2</title>
<g id="a_edge1_Node000001_Node000002"><a xlink:title=" ">
<path fill="none" stroke="#63b8ff" d="M1528.38,-304.13C1528.38,-295.9 1528.38,-286.85 1528.38,-280.3"/>
<polygon fill="#63b8ff" stroke="#63b8ff" points="1524.88,-304.08 1528.38,-314.08 1531.88,-304.08 1524.88,-304.08"/>
</a>
</g>
</g>
<!-- Node25 -->
<g id="Node000025" class="node">
<title>Node25</title>
<g id="a_Node000025"><a xlink:href="_context___8h.html" target="_top" xlink:title=" ">
<polygon fill="white" stroke="#666666" points="1498.62,-218 1388.12,-218 1388.12,-198 1498.62,-198 1498.62,-218"/>
<text text-anchor="middle" x="1443.38" y="-204.5" font-family="Helvetica,sans-Serif" font-size="10.00">Cpl/TShell/Context_.h</text>
</a>
</g>
</g>
<!-- Node1&#45;&gt;Node25 -->
<g id="edge33_Node000001_Node000025" class="edge">
<title>Node1&#45;&gt;Node25</title>
<g id="a_edge33_Node000001_Node000025"><a xlink:title=" ">
<path fill="none" stroke="#63b8ff" d="M1496.68,-310.17C1483.99,-302.77 1470.29,-292.65 1461.38,-280 1447.9,-260.87 1444.5,-232.56 1443.65,-218.15"/>
<polygon fill="#63b8ff" stroke="#63b8ff" points="1494.75,-313.11 1505.2,-314.81 1498.09,-306.96 1494.75,-313.11"/>
</a>
</g>
</g>
<!-- Node31 -->
<g id="Node000031" class="node">
<title>Node31</title>
<g id="a_Node000031"><a xlink:href="_security_null_8h.html" target="_top" xlink:title=" ">
<polygon fill="white" stroke="#666666" points="1728.38,-280 1604.38,-280 1604.38,-260 1728.38,-260 1728.38,-280"/>
<text text-anchor="middle" x="1666.38" y="-266.5" font-family="Helvetica,sans-Serif" font-size="10.00">Cpl/TShell/SecurityNull.h</text>
</a>
</g>
</g>
<!-- Node1&#45;&gt;Node31 -->
<g id="edge34_Node000001_Node000031" class="edge">
<title>Node1&#45;&gt;Node31</title>
<g id="a_edge34_Node000001_Node000031"><a xlink:title=" ">
<path fill="none" stroke="#63b8ff" d="M1563.13,-311.4C1587.78,-301.75 1620.26,-289.05 1642.15,-280.48"/>
<polygon fill="#63b8ff" stroke="#63b8ff" points="1561.86,-308.14 1553.82,-315.04 1564.41,-314.66 1561.86,-308.14"/>
</a>
</g>
</g>
<!-- Node3 -->
<g id="Node000003" class="node">
<title>Node3</title>
<g id="a_Node000003"><a xlink:href="_cmd_2_command_8h.html" target="_top" xlink:title=" ">
<polygon fill="white" stroke="#666666" points="1554.88,-156 1415.88,-156 1415.88,-136 1554.88,-136 1554.88,-156"/>
<text text-anchor="middle" x="1485.38" y="-142.5" font-family="Helvetica,sans-Serif" font-size="10.00">Cpl/TShell/Cmd/Command.h</text>
</a>
</g>
</g>
<!-- Node2&#45;&gt;Node3 -->
<g id="edge2_Node000002_Node000003" class="edge">
<title>Node2&#45;&gt;Node3</title>
<g id="a_edge2_Node000002_Node000003"><a xlink:title=" ">
<path fill="none" stroke="#63b8ff" d="M1523.97,-248.79C1520.27,-233.06 1514.47,-210.82 1507.38,-192 1502.59,-179.31 1495.47,-165.37 1490.63,-156.42"/>
<polygon fill="#63b8ff" stroke="#63b8ff" points="1520.51,-249.36 1526.13,-258.34 1527.33,-247.81 1520.51,-249.36"/>
</a>
</g>
</g>
<!-- Node2&#45;&gt;Node25 -->
<g id="edge25_Node000002_Node000025" class="edge">
<title>Node2&#45;&gt;Node25</title>
<g id="a_edge25_Node000002_Node000025"><a xlink:title=" ">
<path fill="none" stroke="#63b8ff" d="M1506.02,-253.22C1490.29,-242.11 1469.75,-227.62 1456.56,-218.31"/>
<polygon fill="#63b8ff" stroke="#63b8ff" points="1503.67,-255.84 1513.86,-258.75 1507.71,-250.13 1503.67,-255.84"/>
</a>
</g>
</g>
<!-- Node30 -->
<g id="Node000030" class="node">
<title>Node30</title>
<g id="a_Node000030"><a xlink:href="_main_8h.html" target="_top" xlink:title="This file defines the hardware/platform independent start&#45;up interface(s) for the Storm::Thermostat a...">
<polygon fill="white" stroke="#666666" points="2246.38,-224 2128.38,-224 2128.38,-192 2246.38,-192 2246.38,-224"/>
<text text-anchor="start" x="2136.38" y="-210.5" font-family="Helvetica,sans-Serif" font-size="10.00">Storm/Thermostat/Main</text>
<text text-anchor="middle" x="2187.38" y="-198.5" font-family="Helvetica,sans-Serif" font-size="10.00">/Main.h</text>
</a>
</g>
</g>
<!-- Node2&#45;&gt;Node30 -->
<g id="edge31_Node000002_Node000030" class="edge">
<title>Node2&#45;&gt;Node30</title>
<g id="a_edge31_Node000002_Node000030"><a xlink:title=" ">
<path fill="none" stroke="#63b8ff" d="M1597.81,-259.78C1798.48,-237.91 2023.3,-220.74 2128.04,-213.17"/>
<polygon fill="#63b8ff" stroke="#63b8ff" points="1597.52,-256.29 1587.96,-260.86 1598.29,-263.25 1597.52,-256.29"/>
</a>
</g>
</g>
<!-- Node4 -->
<g id="Node000004" class="node">
<title>Node4</title>
<g id="a_Node000004"><a xlink:href="_dm_8h.html" target="_top" xlink:title=" ">
<polygon fill="white" stroke="#666666" points="2403.62,-94 2299.12,-94 2299.12,-74 2403.62,-74 2403.62,-94"/>
<text text-anchor="middle" x="2351.38" y="-80.5" font-family="Helvetica,sans-Serif" font-size="10.00">Cpl/Dm/TShell/Dm.h</text>
</a>
</g>
</g>
<!-- Node3&#45;&gt;Node4 -->
<g id="edge3_Node000003_Node000004" class="edge">
<title>Node3&#45;&gt;Node4</title>
<g id="a_edge3_Node000003_Node000004"><a xlink:title=" ">
<path fill="none" stroke="#63b8ff" d="M1566.74,-145.41C1712.6,-145.05 2027.88,-139.26 2290.38,-100 2299.33,-98.66 2308.89,-96.61 2317.72,-94.46"/>
<polygon fill="#63b8ff" stroke="#63b8ff" points="1566.78,-141.91 1556.78,-145.43 1566.79,-148.91 1566.78,-141.91"/>
</a>
</g>
</g>
<!-- Node5 -->
<g id="Node000005" class="node">
<title>Node5</title>
<g id="a_Node000005"><a xlink:href="_cpl_2_logging_2_t_shell_2_log_8h.html" target="_top" xlink:title=" ">
<polygon fill="white" stroke="#666666" points="2518.88,-100 2421.88,-100 2421.88,-68 2518.88,-68 2518.88,-100"/>
<text text-anchor="start" x="2429.88" y="-86.5" font-family="Helvetica,sans-Serif" font-size="10.00">Cpl/Logging/TShell</text>
<text text-anchor="middle" x="2470.38" y="-74.5" font-family="Helvetica,sans-Serif" font-size="10.00">/Log.h</text>
</a>
</g>
</g>
<!-- Node3&#45;&gt;Node5 -->
<g id="edge4_Node000003_Node000005" class="edge">
<title>Node3&#45;&gt;Node5</title>
<g id="a_edge4_Node000003_Node000005"><a xlink:title=" ">
<path fill="none" stroke="#63b8ff" d="M1566.4,-143.19C1760.97,-138.51 2250.43,-124.61 2412.38,-100 2415.36,-99.55 2418.41,-99 2421.47,-98.4"/>
<polygon fill="#63b8ff" stroke="#63b8ff" points="1566.55,-139.69 1556.64,-143.43 1566.72,-146.69 1566.55,-139.69"/>
</a>
</g>
</g>
<!-- Node6 -->
<g id="Node000006" class="node">
<title>Node6</title>
<g id="a_Node000006"><a xlink:href="_cpl_2_m_app_2_cmd_8h.html" target="_top" xlink:title=" ">
<polygon fill="white" stroke="#666666" points="2627.5,-94 2537.25,-94 2537.25,-74 2627.5,-74 2627.5,-94"/>
<text text-anchor="middle" x="2582.38" y="-80.5" font-family="Helvetica,sans-Serif" font-size="10.00">Cpl/MApp/Cmd.h</text>
</a>
</g>
</g>
<!-- Node3&#45;&gt;Node6 -->
<g id="edge5_Node000003_Node000006" class="edge">
<title>Node3&#45;&gt;Node6</title>
<g id="a_edge5_Node000003_Node000006"><a xlink:title=" ">
<path fill="none" stroke="#63b8ff" d="M1566.7,-143.88C1778.51,-140.59 2343.59,-129.26 2528.38,-100 2536.45,-98.72 2545.04,-96.67 2552.93,-94.48"/>
<polygon fill="#63b8ff" stroke="#63b8ff" points="1566.83,-140.38 1556.88,-144.03 1566.94,-147.38 1566.83,-140.38"/>
</a>
</g>
</g>
<!-- Node7 -->
<g id="Node000007" class="node">
<title>Node7</title>
<g id="a_Node000007"><a xlink:href="_dbg_8h.html" target="_top" xlink:title=" ">
<polygon fill="white" stroke="#666666" points="397.12,-100 277.62,-100 277.62,-68 397.12,-68 397.12,-100"/>
<text text-anchor="start" x="285.62" y="-86.5" font-family="Helvetica,sans-Serif" font-size="10.00">Cpl/TShell/Cmd/Arduino</text>
<text text-anchor="middle" x="337.38" y="-74.5" font-family="Helvetica,sans-Serif" font-size="10.00">/Dbg.h</text>
</a>
</g>
</g>
<!-- Node3&#45;&gt;Node7 -->
<g id="edge6_Node000003_Node000007" class="edge">
<title>Node3&#45;&gt;Node7</title>
<g id="a_edge6_Node000003_Node000007"><a xlink:title=" ">
<path fill="none" stroke="#63b8ff" d="M1404.37,-143.43C1187.88,-138.95 599.23,-124.8 406.38,-100 403.46,-99.62 400.48,-99.19 397.48,-98.7"/>
<polygon fill="#63b8ff" stroke="#63b8ff" points="1404.05,-146.93 1414.12,-143.63 1404.19,-139.93 1404.05,-146.93"/>
</a>
</g>
</g>
<!-- Node8 -->
<g id="Node000008" class="node">
<title>Node8</title>
<g id="a_Node000008"><a xlink:href="_bye_8h.html" target="_top" xlink:title=" ">
<polygon fill="white" stroke="#666666" points="527.38,-94 415.38,-94 415.38,-74 527.38,-74 527.38,-94"/>
<text text-anchor="middle" x="471.38" y="-80.5" font-family="Helvetica,sans-Serif" font-size="10.00">Cpl/TShell/Cmd/Bye.h</text>
</a>
</g>
</g>
<!-- Node3&#45;&gt;Node8 -->
<g id="edge7_Node000003_Node000008" class="edge">
<title>Node3&#45;&gt;Node8</title>
<g id="a_edge7_Node000003_Node000008"><a xlink:title=" ">
<path fill="none" stroke="#63b8ff" d="M1403.91,-143.02C1205.79,-137.89 702.89,-122.97 536.38,-100 526.85,-98.69 516.67,-96.65 507.26,-94.49"/>
<polygon fill="#63b8ff" stroke="#63b8ff" points="1403.78,-146.51 1413.86,-143.27 1403.96,-139.52 1403.78,-146.51"/>
</a>
</g>
</g>
<!-- Node9 -->
<g id="Node000009" class="node">
<title>Node9</title>
<g id="a_Node000009"><a xlink:href="_help_8h.html" target="_top" xlink:title=" ">
<polygon fill="white" stroke="#666666" points="659.5,-94 545.25,-94 545.25,-74 659.5,-74 659.5,-94"/>
<text text-anchor="middle" x="602.38" y="-80.5" font-family="Helvetica,sans-Serif" font-size="10.00">Cpl/TShell/Cmd/Help.h</text>
</a>
</g>
</g>
<!-- Node3&#45;&gt;Node9 -->
<g id="edge8_Node000003_Node000009" class="edge">
<title>Node3&#45;&gt;Node9</title>
<g id="a_edge8_Node000003_Node000009"><a xlink:title=" ">
<path fill="none" stroke="#63b8ff" d="M1404.44,-145.04C1257.22,-144.13 936.08,-137.52 668.38,-100 658.72,-98.65 648.38,-96.59 638.83,-94.44"/>
<polygon fill="#63b8ff" stroke="#63b8ff" points="1404.06,-148.54 1414.08,-145.1 1404.1,-141.54 1404.06,-148.54"/>
</a>
</g>
</g>
<!-- Node10 -->
<g id="Node000010" class="node">
<title>Node10</title>
<g id="a_Node000010"><a xlink:href="_t_print_8h.html" target="_top" xlink:title=" ">
<polygon fill="white" stroke="#666666" points="797.5,-94 677.25,-94 677.25,-74 797.5,-74 797.5,-94"/>
<text text-anchor="middle" x="737.38" y="-80.5" font-family="Helvetica,sans-Serif" font-size="10.00">Cpl/TShell/Cmd/TPrint.h</text>
</a>
</g>
</g>
<!-- Node3&#45;&gt;Node10 -->
<g id="edge9_Node000003_Node000010" class="edge">
<title>Node3&#45;&gt;Node10</title>
<g id="a_edge9_Node000003_Node000010"><a xlink:title=" ">
<path fill="none" stroke="#63b8ff" d="M1404.42,-143.5C1276.73,-140.27 1020.99,-130.27 806.38,-100 796.42,-98.6 785.76,-96.55 775.88,-94.42"/>
<polygon fill="#63b8ff" stroke="#63b8ff" points="1404.03,-146.99 1414.11,-143.74 1404.2,-139.99 1404.03,-146.99"/>
</a>
</g>
</g>
<!-- Node11 -->
<g id="Node000011" class="node">
<title>Node11</title>
<g id="a_Node000011"><a xlink:href="_threads_8h.html" target="_top" xlink:title=" ">
<polygon fill="white" stroke="#666666" points="945,-94 815.75,-94 815.75,-74 945,-74 945,-94"/>
<text text-anchor="middle" x="880.38" y="-80.5" font-family="Helvetica,sans-Serif" font-size="10.00">Cpl/TShell/Cmd/Threads.h</text>
</a>
</g>
</g>
<!-- Node3&#45;&gt;Node11 -->
<g id="edge10_Node000003_Node000011" class="edge">
<title>Node3&#45;&gt;Node11</title>
<g id="a_edge10_Node000003_Node000011"><a xlink:title=" ">
<path fill="none" stroke="#63b8ff" d="M1404.11,-141.03C1299.64,-135.27 1112.83,-122.7 954.38,-100 944.12,-98.53 933.15,-96.54 922.88,-94.49"/>
<polygon fill="#63b8ff" stroke="#63b8ff" points="1403.82,-144.52 1413.99,-141.57 1404.2,-137.53 1403.82,-144.52"/>
</a>
</g>
</g>
<!-- Node14 -->
<g id="Node000014" class="node">
<title>Node14</title>
<g id="a_Node000014"><a xlink:href="_tick_8h.html" target="_top" xlink:title=" ">
<polygon fill="white" stroke="#666666" points="1075.75,-94 963,-94 963,-74 1075.75,-74 1075.75,-94"/>
<text text-anchor="middle" x="1019.38" y="-80.5" font-family="Helvetica,sans-Serif" font-size="10.00">Cpl/TShell/Cmd/Tick.h</text>
</a>
</g>
</g>
<!-- Node3&#45;&gt;Node14 -->
<g id="edge13_Node000003_Node000014" class="edge">
<title>Node3&#45;&gt;Node14</title>
<g id="a_edge13_Node000003_Node000014"><a xlink:title=" ">
<path fill="none" stroke="#63b8ff" d="M1404.56,-138.57C1323.5,-131.5 1195.27,-118.61 1085.38,-100 1076.34,-98.47 1066.68,-96.48 1057.62,-94.45"/>
<polygon fill="#63b8ff" stroke="#63b8ff" points="1403.9,-142.03 1414.17,-139.4 1404.5,-135.05 1403.9,-142.03"/>
</a>
</g>
</g>
<!-- Node15 -->
<g id="Node000015" class="node">
<title>Node15</title>
<g id="a_Node000015"><a xlink:href="_t_shell_2_cmd_2_trace_8h.html" target="_top" xlink:title=" ">
<polygon fill="white" stroke="#666666" points="1212.75,-94 1094,-94 1094,-74 1212.75,-74 1212.75,-94"/>
<text text-anchor="middle" x="1153.38" y="-80.5" font-family="Helvetica,sans-Serif" font-size="10.00">Cpl/TShell/Cmd/Trace.h</text>
</a>
</g>
</g>
<!-- Node3&#45;&gt;Node15 -->
<g id="edge14_Node000003_Node000015" class="edge">
<title>Node3&#45;&gt;Node15</title>
<g id="a_edge14_Node000003_Node000015"><a xlink:title=" ">
<path fill="none" stroke="#63b8ff" d="M1413.32,-133.68C1360.15,-125.09 1286.1,-112.65 1221.38,-100 1212.71,-98.31 1203.46,-96.36 1194.66,-94.44"/>
<polygon fill="#63b8ff" stroke="#63b8ff" points="1412.75,-137.13 1423.18,-135.27 1413.86,-130.22 1412.75,-137.13"/>
</a>
</g>
</g>
<!-- Node16 -->
<g id="Node000016" class="node">
<title>Node16</title>
<g id="a_Node000016"><a xlink:href="_cpl_2_t_shell_2_cmd_2_user_8h.html" target="_top" xlink:title=" ">
<polygon fill="white" stroke="#666666" points="1345.88,-94 1230.88,-94 1230.88,-74 1345.88,-74 1345.88,-94"/>
<text text-anchor="middle" x="1288.38" y="-80.5" font-family="Helvetica,sans-Serif" font-size="10.00">Cpl/TShell/Cmd/User.h</text>
</a>
</g>
</g>
<!-- Node3&#45;&gt;Node16 -->
<g id="edge15_Node000003_Node000016" class="edge">
<title>Node3&#45;&gt;Node16</title>
<g id="a_edge15_Node000003_Node000016"><a xlink:title=" ">
<path fill="none" stroke="#63b8ff" d="M1443.61,-132.28C1406.38,-120.94 1352.75,-104.61 1319.26,-94.41"/>
<polygon fill="#63b8ff" stroke="#63b8ff" points="1442.56,-135.62 1453.15,-135.18 1444.6,-128.92 1442.56,-135.62"/>
</a>
</g>
</g>
<!-- Node17 -->
<g id="Node000017" class="node">
<title>Node17</title>
<g id="a_Node000017"><a xlink:href="_wait_8h.html" target="_top" xlink:title=" ">
<polygon fill="white" stroke="#666666" points="1478.88,-94 1363.88,-94 1363.88,-74 1478.88,-74 1478.88,-94"/>
<text text-anchor="middle" x="1421.38" y="-80.5" font-family="Helvetica,sans-Serif" font-size="10.00">Cpl/TShell/Cmd/Wait.h</text>
</a>
</g>
</g>
<!-- Node3&#45;&gt;Node17 -->
<g id="edge16_Node000003_Node000017" class="edge">
<title>Node3&#45;&gt;Node17</title>
<g id="a_edge16_Node000003_Node000017"><a xlink:title=" ">
<path fill="none" stroke="#63b8ff" d="M1467.14,-127.9C1455.41,-116.91 1440.63,-103.05 1431.1,-94.11"/>
<polygon fill="#63b8ff" stroke="#63b8ff" points="1464.58,-130.3 1474.27,-134.59 1469.37,-125.2 1464.58,-130.3"/>
</a>
</g>
</g>
<!-- Node18 -->
<g id="Node000018" class="node">
<title>Node18</title>
<g id="a_Node000018"><a xlink:href="_state_8h.html" target="_top" xlink:title=" ">
<polygon fill="white" stroke="#666666" points="1603.75,-94 1497,-94 1497,-74 1603.75,-74 1603.75,-94"/>
<text text-anchor="middle" x="1550.38" y="-80.5" font-family="Helvetica,sans-Serif" font-size="10.00">Storm/TShell/State.h</text>
</a>
</g>
</g>
<!-- Node3&#45;&gt;Node18 -->
<g id="edge17_Node000003_Node000018" class="edge">
<title>Node3&#45;&gt;Node18</title>
<g id="a_edge17_Node000003_Node000018"><a xlink:title=" ">
<path fill="none" stroke="#63b8ff" d="M1503.9,-127.9C1515.81,-116.91 1530.82,-103.05 1540.5,-94.11"/>
<polygon fill="#63b8ff" stroke="#63b8ff" points="1501.62,-125.24 1496.64,-134.6 1506.37,-130.39 1501.62,-125.24"/>
</a>
</g>
</g>
<!-- Node19 -->
<g id="Node000019" class="node">
<title>Node19</title>
<g id="a_Node000019"><a xlink:href="_storm_2_t_shell_2_user_8h.html" target="_top" xlink:title=" ">
<polygon fill="white" stroke="#666666" points="1725.25,-94 1621.5,-94 1621.5,-74 1725.25,-74 1725.25,-94"/>
<text text-anchor="middle" x="1673.38" y="-80.5" font-family="Helvetica,sans-Serif" font-size="10.00">Storm/TShell/User.h</text>
</a>
</g>
</g>
<!-- Node3&#45;&gt;Node19 -->
<g id="edge18_Node000003_Node000019" class="edge">
<title>Node3&#45;&gt;Node19</title>
<g id="a_edge18_Node000003_Node000019"><a xlink:title=" ">
<path fill="none" stroke="#63b8ff" d="M1525.69,-132.13C1561.2,-120.8 1612.08,-104.56 1643.9,-94.41"/>
<polygon fill="#63b8ff" stroke="#63b8ff" points="1524.65,-128.79 1516.19,-135.16 1526.78,-135.46 1524.65,-128.79"/>
</a>
</g>
</g>
<!-- Node20 -->
<g id="Node000020" class="node">
<title>Node20</title>
<g id="a_Node000020"><a xlink:href="_t_shell_2_white_box_8h.html" target="_top" xlink:title=" ">
<polygon fill="white" stroke="#666666" points="1869.5,-94 1743.25,-94 1743.25,-74 1869.5,-74 1869.5,-94"/>
<text text-anchor="middle" x="1806.38" y="-80.5" font-family="Helvetica,sans-Serif" font-size="10.00">Storm/TShell/WhiteBox.h</text>
</a>
</g>
</g>
<!-- Node3&#45;&gt;Node20 -->
<g id="edge19_Node000003_Node000020" class="edge">
<title>Node3&#45;&gt;Node20</title>
<g id="a_edge19_Node000003_Node000020"><a xlink:title=" ">
<path fill="none" stroke="#63b8ff" d="M1550.89,-133.65C1601.16,-124.82 1672.24,-112.09 1734.38,-100 1743.27,-98.27 1752.77,-96.34 1761.86,-94.47"/>
<polygon fill="#63b8ff" stroke="#63b8ff" points="1550.59,-130.15 1541.35,-135.32 1551.8,-137.04 1550.59,-130.15"/>
</a>
</g>
</g>
<!-- Node21 -->
<g id="Node000021" class="node">
<title>Node21</title>
<g id="a_Node000021"><a xlink:href="filter_8h.html" target="_top" xlink:title=" ">
<polygon fill="white" stroke="#666666" points="1989.12,-94 1887.62,-94 1887.62,-74 1989.12,-74 1989.12,-94"/>
<text text-anchor="middle" x="1938.38" y="-80.5" font-family="Helvetica,sans-Serif" font-size="10.00">Storm/TShell/filter.h</text>
</a>
</g>
</g>
<!-- Node3&#45;&gt;Node21 -->
<g id="edge20_Node000003_Node000021" class="edge">
<title>Node3&#45;&gt;Node21</title>
<g id="a_edge20_Node000003_Node000021"><a xlink:title=" ">
<path fill="none" stroke="#63b8ff" d="M1566.79,-138.81C1646.59,-132.01 1771.46,-119.4 1878.38,-100 1886.72,-98.49 1895.63,-96.48 1903.96,-94.42"/>
<polygon fill="#63b8ff" stroke="#63b8ff" points="1566.53,-135.32 1556.86,-139.64 1567.12,-142.29 1566.53,-135.32"/>
</a>
</g>
</g>
<!-- Node22 -->
<g id="Node000022" class="node">
<title>Node22</title>
<g id="a_Node000022"><a xlink:href="_storm_2_thermostat_2_sim_house_2_cmd_8h.html" target="_top" xlink:title=" ">
<polygon fill="white" stroke="#666666" points="2149.38,-100 2007.38,-100 2007.38,-68 2149.38,-68 2149.38,-100"/>
<text text-anchor="start" x="2015.38" y="-86.5" font-family="Helvetica,sans-Serif" font-size="10.00">Storm/Thermostat/SimHouse</text>
<text text-anchor="middle" x="2078.38" y="-74.5" font-family="Helvetica,sans-Serif" font-size="10.00">/Cmd.h</text>
</a>
</g>
</g>
<!-- Node3&#45;&gt;Node22 -->
<g id="edge21_Node000003_Node000022" class="edge">
<title>Node3&#45;&gt;Node22</title>
<g id="a_edge21_Node000003_Node000022"><a xlink:title=" ">
<path fill="none" stroke="#63b8ff" d="M1566.69,-140.33C1668.08,-133.95 1846.56,-120.84 1998.38,-100 2001.17,-99.62 2004.03,-99.2 2006.9,-98.76"/>
<polygon fill="#63b8ff" stroke="#63b8ff" points="1566.59,-136.83 1556.83,-140.95 1567.03,-143.82 1566.59,-136.83"/>
</a>
</g>
</g>
<!-- Node24 -->
<g id="Node000024" class="node">
<title>Node24</title>
<g id="a_Node000024"><a xlink:href="_storm_2_thermostat_2__file__logger_2_log_8h.html" target="_top" xlink:title=" ">
<polygon fill="white" stroke="#666666" points="2281.5,-100 2167.25,-100 2167.25,-68 2281.5,-68 2281.5,-100"/>
<text text-anchor="start" x="2175.25" y="-86.5" font-family="Helvetica,sans-Serif" font-size="10.00">Storm/Thermostat/_file</text>
<text text-anchor="middle" x="2224.38" y="-74.5" font-family="Helvetica,sans-Serif" font-size="10.00">_logger/Log.h</text>
</a>
</g>
</g>
<!-- Node3&#45;&gt;Node24 -->
<g id="edge23_Node000003_Node000024" class="edge">
<title>Node3&#45;&gt;Node24</title>
<g id="a_edge23_Node000003_Node000024"><a xlink:title=" ">
<path fill="none" stroke="#63b8ff" d="M1566.15,-143.68C1692.93,-140.69 1946.08,-131.03 2158.38,-100 2161.17,-99.59 2164.01,-99.13 2166.88,-98.62"/>
<polygon fill="#63b8ff" stroke="#63b8ff" points="1566.46,-140.17 1556.54,-143.9 1566.62,-147.17 1566.46,-140.17"/>
</a>
</g>
</g>
<!-- Node12 -->
<g id="Node000012" class="node">
<title>Node12</title>
<g id="a_Node000012"><a xlink:href="_free_r_t_o_s_2_threads_8h.html" target="_top" xlink:title=" ">
<polygon fill="white" stroke="#666666" points="875.5,-32 743.25,-32 743.25,0 875.5,0 875.5,-32"/>
<text text-anchor="start" x="751.25" y="-18.5" font-family="Helvetica,sans-Serif" font-size="10.00">Cpl/TShell/Cmd/FreeRTOS</text>
<text text-anchor="middle" x="809.38" y="-6.5" font-family="Helvetica,sans-Serif" font-size="10.00">/Threads.h</text>
</a>
</g>
</g>
<!-- Node11&#45;&gt;Node12 -->
<g id="edge11_Node000011_Node000012" class="edge">
<title>Node11&#45;&gt;Node12</title>
<g id="a_edge11_Node000011_Node000012"><a xlink:title=" ">
<path fill="none" stroke="#63b8ff" d="M861.99,-65.91C850.81,-55.52 836.65,-42.35 825.84,-32.3"/>
<polygon fill="#63b8ff" stroke="#63b8ff" points="859.39,-68.27 869.09,-72.51 864.15,-63.14 859.39,-68.27"/>
</a>
</g>
</g>
<!-- Node13 -->
<g id="Node000013" class="node">
<title>Node13</title>
<g id="a_Node000013"><a xlink:href="_win32_2_threads_8h.html" target="_top" xlink:title=" ">
<polygon fill="white" stroke="#666666" points="1007.5,-32 893.25,-32 893.25,0 1007.5,0 1007.5,-32"/>
<text text-anchor="start" x="901.25" y="-18.5" font-family="Helvetica,sans-Serif" font-size="10.00">Cpl/TShell/Cmd/Win32</text>
<text text-anchor="middle" x="950.38" y="-6.5" font-family="Helvetica,sans-Serif" font-size="10.00">/Threads.h</text>
</a>
</g>
</g>
<!-- Node11&#45;&gt;Node13 -->
<g id="edge12_Node000011_Node000013" class="edge">
<title>Node11&#45;&gt;Node13</title>
<g id="a_edge12_Node000011_Node000013"><a xlink:title=" ">
<path fill="none" stroke="#63b8ff" d="M898.5,-65.91C909.52,-55.52 923.48,-42.35 934.15,-32.3"/>
<polygon fill="#63b8ff" stroke="#63b8ff" points="896.38,-63.1 891.51,-72.51 901.18,-68.19 896.38,-63.1"/>
</a>
</g>
</g>
<!-- Node23 -->
<g id="Node000023" class="node">
<title>Node23</title>
<g id="a_Node000023"><a xlink:href="statics___8h.html" target="_top" xlink:title="This file defines/creates persistent records and record server for the Thermostat simulation.">
<polygon fill="white" stroke="#666666" points="2283.38,-32 2165.38,-32 2165.38,0 2283.38,0 2283.38,-32"/>
<text text-anchor="start" x="2173.38" y="-18.5" font-family="Helvetica,sans-Serif" font-size="10.00">Storm/Thermostat/Main</text>
<text text-anchor="middle" x="2224.38" y="-6.5" font-family="Helvetica,sans-Serif" font-size="10.00">/_simulation/statics_.h</text>
</a>
</g>
</g>
<!-- Node22&#45;&gt;Node23 -->
<g id="edge22_Node000022_Node000023" class="edge">
<title>Node22&#45;&gt;Node23</title>
<g id="a_edge22_Node000022_Node000023"><a xlink:title=" ">
<path fill="none" stroke="#63b8ff" d="M2122.86,-62.89C2144.47,-53.12 2170.04,-41.56 2190.11,-32.49"/>
<polygon fill="#63b8ff" stroke="#63b8ff" points="2121.66,-59.59 2113.98,-66.9 2124.54,-65.97 2121.66,-59.59"/>
</a>
</g>
</g>
<!-- Node24&#45;&gt;Node23 -->
<g id="edge24_Node000024_Node000023" class="edge">
<title>Node24&#45;&gt;Node23</title>
<g id="a_edge24_Node000024_Node000023"><a xlink:title=" ">
<path fill="none" stroke="#63b8ff" d="M2224.38,-56.31C2224.38,-48.12 2224.38,-39.38 2224.38,-32.22"/>
<polygon fill="#63b8ff" stroke="#63b8ff" points="2220.88,-56.18 2224.38,-66.18 2227.88,-56.18 2220.88,-56.18"/>
</a>
</g>
</g>
<!-- Node25&#45;&gt;Node3 -->
<g id="edge26_Node000025_Node000003" class="edge">
<title>Node25&#45;&gt;Node3</title>
<g id="a_edge26_Node000025_Node000003"><a xlink:title=" ">
<path fill="none" stroke="#63b8ff" d="M1456.49,-188.26C1463.98,-177.56 1473.04,-164.61 1479,-156.11"/>
<polygon fill="#63b8ff" stroke="#63b8ff" points="1453.67,-186.19 1450.81,-196.39 1459.41,-190.2 1453.67,-186.19"/>
</a>
</g>
</g>
<!-- Node26 -->
<g id="Node000026" class="node">
<title>Node26</title>
<g id="a_Node000026"><a xlink:href="_processor_8h.html" target="_top" xlink:title=" ">
<polygon fill="white" stroke="#666666" points="268.25,-156 152.5,-156 152.5,-136 268.25,-136 268.25,-156"/>
<text text-anchor="middle" x="210.38" y="-142.5" font-family="Helvetica,sans-Serif" font-size="10.00">Cpl/TShell/Processor.h</text>
</a>
</g>
</g>
<!-- Node25&#45;&gt;Node26 -->
<g id="edge27_Node000025_Node000026" class="edge">
<title>Node25&#45;&gt;Node26</title>
<g id="a_edge27_Node000025_Node000026"><a xlink:title=" ">
<path fill="none" stroke="#63b8ff" d="M1376.79,-203.76C1159.44,-193.18 472.98,-159.78 268.44,-149.83"/>
<polygon fill="#63b8ff" stroke="#63b8ff" points="1376.33,-207.24 1386.49,-204.23 1376.67,-200.25 1376.33,-207.24"/>
</a>
</g>
</g>
<!-- Node27 -->
<g id="Node000027" class="node">
<title>Node27</title>
<g id="a_Node000027"><a xlink:href="_maker_8h.html" target="_top" xlink:title=" ">
<polygon fill="white" stroke="#666666" points="259.62,-94 161.12,-94 161.12,-74 259.62,-74 259.62,-94"/>
<text text-anchor="middle" x="210.38" y="-80.5" font-family="Helvetica,sans-Serif" font-size="10.00">Cpl/TShell/Maker.h</text>
</a>
</g>
</g>
<!-- Node26&#45;&gt;Node27 -->
<g id="edge28_Node000026_Node000027" class="edge">
<title>Node26&#45;&gt;Node27</title>
<g id="a_edge28_Node000026_Node000027"><a xlink:title=" ">
<path fill="none" stroke="#63b8ff" d="M210.38,-124.25C210.38,-113.97 210.38,-102.09 210.38,-94.11"/>
<polygon fill="#63b8ff" stroke="#63b8ff" points="206.88,-124.11 210.38,-134.11 213.88,-124.11 206.88,-124.11"/>
</a>
</g>
</g>
<!-- Node28 -->
<g id="Node000028" class="node">
<title>Node28</title>
<g id="a_Node000028"><a xlink:href="_polled_processor_8h.html" target="_top" xlink:title=" ">
<polygon fill="white" stroke="#666666" points="142.75,-94 0,-94 0,-74 142.75,-74 142.75,-94"/>
<text text-anchor="middle" x="71.38" y="-80.5" font-family="Helvetica,sans-Serif" font-size="10.00">Cpl/TShell/PolledProcessor.h</text>
</a>
</g>
</g>
<!-- Node26&#45;&gt;Node28 -->
<g id="edge29_Node000026_Node000028" class="edge">
<title>Node26&#45;&gt;Node28</title>
<g id="a_edge29_Node000026_Node000028"><a xlink:title=" ">
<path fill="none" stroke="#63b8ff" d="M178.11,-131.07C151.93,-119.77 115.73,-104.15 92.94,-94.31"/>
<polygon fill="#63b8ff" stroke="#63b8ff" points="176.7,-134.28 187.27,-135.03 179.47,-127.85 176.7,-134.28"/>
</a>
</g>
</g>
<!-- Node29 -->
<g id="Node000029" class="node">
<title>Node29</title>
<g id="a_Node000029"><a xlink:href="_polled_maker_8h.html" target="_top" xlink:title=" ">
<polygon fill="white" stroke="#666666" points="134.12,-26 8.62,-26 8.62,-6 134.12,-6 134.12,-26"/>
<text text-anchor="middle" x="71.38" y="-12.5" font-family="Helvetica,sans-Serif" font-size="10.00">Cpl/TShell/PolledMaker.h</text>
</a>
</g>
</g>
<!-- Node28&#45;&gt;Node29 -->
<g id="edge30_Node000028_Node000029" class="edge">
<title>Node28&#45;&gt;Node29</title>
<g id="a_edge30_Node000028_Node000029"><a xlink:title=" ">
<path fill="none" stroke="#63b8ff" d="M71.38,-62.28C71.38,-50.27 71.38,-35.74 71.38,-26.44"/>
<polygon fill="#63b8ff" stroke="#63b8ff" points="67.88,-62.03 71.38,-72.03 74.88,-62.03 67.88,-62.03"/>
</a>
</g>
</g>
<!-- Node30&#45;&gt;Node23 -->
<g id="edge32_Node000030_Node000023" class="edge">
<title>Node30&#45;&gt;Node23</title>
<g id="a_edge32_Node000030_Node000023"><a xlink:title=" ">
<path fill="none" stroke="#63b8ff" d="M2258.28,-200.61C2372.72,-188.66 2590.04,-158.67 2636.38,-100 2645.19,-88.84 2645.79,-78.66 2636.38,-68 2613.4,-42.01 2392.02,-26.27 2283.61,-20.06"/>
<polygon fill="#63b8ff" stroke="#63b8ff" points="2257.96,-197.12 2248.37,-201.62 2258.67,-204.09 2257.96,-197.12"/>
</a>
</g>
</g>
</g>
</svg>
