<?xml version="1.0" encoding="UTF-8" standalone="no"?>
<!DOCTYPE svg PUBLIC "-//W3C//DTD SVG 1.1//EN"
 "http://www.w3.org/Graphics/SVG/1.1/DTD/svg11.dtd">
<!-- Generated by graphviz version 2.38.0 (20140413.2041)
 -->
<!-- Title: Cpl/Io/Serial/Arduino/InputOutput.h Pages: 1 -->
<svg width="486pt" height="375pt"
 viewBox="0.00 0.00 485.50 375.00" xmlns="http://www.w3.org/2000/svg" xmlns:xlink="http://www.w3.org/1999/xlink">
<g id="graph0" class="graph" transform="scale(1 1) rotate(0) translate(4 371)">
<title>Cpl/Io/Serial/Arduino/InputOutput.h</title>
<polygon fill="white" stroke="none" points="-4,4 -4,-371 481.5,-371 481.5,4 -4,4"/>
<!-- Node1 -->
<g id="node1" class="node"><title>Node1</title>
<g id="a_node1"><a xlink:title=" ">
<polygon fill="#bfbfbf" stroke="black" points="228,-336.5 228,-366.5 334,-366.5 334,-336.5 228,-336.5"/>
<text text-anchor="start" x="236" y="-354.5" font-family="Helvetica,sans-Serif" font-size="10.00">Cpl/Io/Serial/Arduino</text>
<text text-anchor="middle" x="281" y="-343.5" font-family="Helvetica,sans-Serif" font-size="10.00">/InputOutput.h</text>
</a>
</g>
</g>
<!-- Node2 -->
<g id="node2" class="node"><title>Node2</title>
<g id="a_node2"><a xlink:href="_input_output_8h.html" target="_top" xlink:title=" ">
<polygon fill="white" stroke="black" points="179,-280.5 179,-299.5 283,-299.5 283,-280.5 179,-280.5"/>
<text text-anchor="middle" x="231" y="-287.5" font-family="Helvetica,sans-Serif" font-size="10.00">Cpl/Io/InputOutput.h</text>
</a>
</g>
</g>
<!-- Node1&#45;&gt;Node2 -->
<g id="edge1" class="edge"><title>Node1&#45;&gt;Node2</title>
<path fill="none" stroke="midnightblue" d="M269.151,-336.399C261.885,-327.753 252.548,-316.642 244.929,-307.576"/>
<polygon fill="midnightblue" stroke="midnightblue" points="247.388,-305.062 238.275,-299.658 242.029,-309.565 247.388,-305.062"/>
</g>
<!-- Node17 -->
<g id="node17" class="node"><title>Node17</title>
<g id="a_node17"><a xlink:title=" ">
<polygon fill="white" stroke="#bfbfbf" points="301.5,-280.5 301.5,-299.5 360.5,-299.5 360.5,-280.5 301.5,-280.5"/>
<text text-anchor="middle" x="331" y="-287.5" font-family="Helvetica,sans-Serif" font-size="10.00">Bsp/Api.h</text>
</a>
</g>
</g>
<!-- Node1&#45;&gt;Node17 -->
<g id="edge22" class="edge"><title>Node1&#45;&gt;Node17</title>
<path fill="none" stroke="midnightblue" d="M292.849,-336.399C300.115,-327.753 309.452,-316.642 317.071,-307.576"/>
<polygon fill="midnightblue" stroke="midnightblue" points="319.971,-309.565 323.725,-299.658 314.612,-305.062 319.971,-309.565"/>
</g>
<!-- Node3 -->
<g id="node3" class="node"><title>Node3</title>
<g id="a_node3"><a xlink:href="_input_8h.html" target="_top" xlink:title=" ">
<polygon fill="white" stroke="black" points="145.5,-224.5 145.5,-243.5 220.5,-243.5 220.5,-224.5 145.5,-224.5"/>
<text text-anchor="middle" x="183" y="-231.5" font-family="Helvetica,sans-Serif" font-size="10.00">Cpl/Io/Input.h</text>
</a>
</g>
</g>
<!-- Node2&#45;&gt;Node3 -->
<g id="edge2" class="edge"><title>Node2&#45;&gt;Node3</title>
<path fill="none" stroke="midnightblue" d="M223.074,-280.083C216.154,-272.298 205.935,-260.801 197.548,-251.367"/>
<polygon fill="midnightblue" stroke="midnightblue" points="200.038,-248.9 190.779,-243.751 194.806,-253.55 200.038,-248.9"/>
</g>
<!-- Node16 -->
<g id="node16" class="node"><title>Node16</title>
<g id="a_node16"><a xlink:href="_output_8h.html" target="_top" xlink:title=" ">
<polygon fill="white" stroke="black" points="238.5,-224.5 238.5,-243.5 321.5,-243.5 321.5,-224.5 238.5,-224.5"/>
<text text-anchor="middle" x="280" y="-231.5" font-family="Helvetica,sans-Serif" font-size="10.00">Cpl/Io/Output.h</text>
</a>
</g>
</g>
<!-- Node2&#45;&gt;Node16 -->
<g id="edge17" class="edge"><title>Node2&#45;&gt;Node16</title>
<path fill="none" stroke="midnightblue" d="M239.091,-280.083C246.155,-272.298 256.588,-260.801 265.149,-251.367"/>
<polygon fill="midnightblue" stroke="midnightblue" points="267.931,-253.509 272.059,-243.751 262.747,-248.805 267.931,-253.509"/>
</g>
<!-- Node4 -->
<g id="node4" class="node"><title>Node4</title>
<g id="a_node4"><a xlink:href="_string_8h.html" target="_top" xlink:title=" ">
<polygon fill="white" stroke="black" points="241,-168.5 241,-187.5 331,-187.5 331,-168.5 241,-168.5"/>
<text text-anchor="middle" x="286" y="-175.5" font-family="Helvetica,sans-Serif" font-size="10.00">Cpl/Text/String.h</text>
</a>
</g>
</g>
<!-- Node3&#45;&gt;Node4 -->
<g id="edge3" class="edge"><title>Node3&#45;&gt;Node4</title>
<path fill="none" stroke="midnightblue" d="M199.549,-224.324C215.992,-215.703 241.435,-202.364 260.468,-192.386"/>
<polygon fill="midnightblue" stroke="midnightblue" points="262.261,-195.398 269.492,-187.655 259.011,-189.198 262.261,-195.398"/>
</g>
<!-- Node13 -->
<g id="node13" class="node"><title>Node13</title>
<g id="a_node13"><a xlink:href="_close_8h.html" target="_top" xlink:title=" ">
<polygon fill="white" stroke="black" points="47,-168.5 47,-187.5 125,-187.5 125,-168.5 47,-168.5"/>
<text text-anchor="middle" x="86" y="-175.5" font-family="Helvetica,sans-Serif" font-size="10.00">Cpl/Io/Close.h</text>
</a>
</g>
</g>
<!-- Node3&#45;&gt;Node13 -->
<g id="edge14" class="edge"><title>Node3&#45;&gt;Node13</title>
<path fill="none" stroke="midnightblue" d="M167.415,-224.324C152.001,-215.743 128.188,-202.486 110.29,-192.522"/>
<polygon fill="midnightblue" stroke="midnightblue" points="111.986,-189.461 101.546,-187.655 108.581,-195.577 111.986,-189.461"/>
</g>
<!-- Node15 -->
<g id="node15" class="node"><title>Node15</title>
<g id="a_node15"><a xlink:href="_is_eos_8h.html" target="_top" xlink:title=" ">
<polygon fill="white" stroke="black" points="143.5,-168.5 143.5,-187.5 222.5,-187.5 222.5,-168.5 143.5,-168.5"/>
<text text-anchor="middle" x="183" y="-175.5" font-family="Helvetica,sans-Serif" font-size="10.00">Cpl/Io/IsEos.h</text>
</a>
</g>
</g>
<!-- Node3&#45;&gt;Node15 -->
<g id="edge16" class="edge"><title>Node3&#45;&gt;Node15</title>
<path fill="none" stroke="midnightblue" d="M183,-224.083C183,-217.006 183,-206.861 183,-197.986"/>
<polygon fill="midnightblue" stroke="midnightblue" points="186.5,-197.751 183,-187.751 179.5,-197.751 186.5,-197.751"/>
</g>
<!-- Node5 -->
<g id="node5" class="node"><title>Node5</title>
<g id="a_node5"><a xlink:title=" ">
<polygon fill="white" stroke="#bfbfbf" points="167.5,-56.5 167.5,-75.5 244.5,-75.5 244.5,-56.5 167.5,-56.5"/>
<text text-anchor="middle" x="206" y="-63.5" font-family="Helvetica,sans-Serif" font-size="10.00">colony_map.h</text>
</a>
</g>
</g>
<!-- Node4&#45;&gt;Node5 -->
<g id="edge4" class="edge"><title>Node4&#45;&gt;Node5</title>
<path fill="none" stroke="midnightblue" d="M268.824,-168.412C255.052,-160.681 236.23,-148.074 225,-132 215.426,-118.296 210.626,-99.7631 208.25,-85.9929"/>
<polygon fill="midnightblue" stroke="midnightblue" points="211.666,-85.1543 206.773,-75.7567 204.737,-86.1541 211.666,-85.1543"/>
</g>
<!-- Node6 -->
<g id="node6" class="node"><title>Node6</title>
<g id="a_node6"><a xlink:href="_key_8h.html" target="_top" xlink:title=" ">
<polygon fill="white" stroke="black" points="234,-112.5 234,-131.5 338,-131.5 338,-112.5 234,-112.5"/>
<text text-anchor="middle" x="286" y="-119.5" font-family="Helvetica,sans-Serif" font-size="10.00">Cpl/Container/Key.h</text>
</a>
</g>
</g>
<!-- Node4&#45;&gt;Node6 -->
<g id="edge5" class="edge"><title>Node4&#45;&gt;Node6</title>
<path fill="none" stroke="midnightblue" d="M280.834,-168.083C279.324,-160.927 278.894,-150.635 279.542,-141.691"/>
<polygon fill="midnightblue" stroke="midnightblue" points="283.015,-142.126 280.869,-131.751 276.077,-141.2 283.015,-142.126"/>
</g>
<!-- Node11 -->
<g id="node11" class="node"><title>Node11</title>
<g id="a_node11"><a xlink:title=" ">
<polygon fill="white" stroke="#bfbfbf" points="356,-112.5 356,-131.5 408,-131.5 408,-112.5 356,-112.5"/>
<text text-anchor="middle" x="382" y="-119.5" font-family="Helvetica,sans-Serif" font-size="10.00">stdarg.h</text>
</a>
</g>
</g>
<!-- Node4&#45;&gt;Node11 -->
<g id="edge12" class="edge"><title>Node4&#45;&gt;Node11</title>
<path fill="none" stroke="midnightblue" d="M301.424,-168.324C316.54,-159.822 339.815,-146.729 357.471,-136.797"/>
<polygon fill="midnightblue" stroke="midnightblue" points="359.614,-139.608 366.614,-131.655 356.183,-133.507 359.614,-139.608"/>
</g>
<!-- Node12 -->
<g id="node12" class="node"><title>Node12</title>
<g id="a_node12"><a xlink:title=" ">
<polygon fill="white" stroke="#bfbfbf" points="124,-112.5 124,-131.5 178,-131.5 178,-112.5 124,-112.5"/>
<text text-anchor="middle" x="151" y="-119.5" font-family="Helvetica,sans-Serif" font-size="10.00">iostream</text>
</a>
</g>
</g>
<!-- Node4&#45;&gt;Node12 -->
<g id="edge13" class="edge"><title>Node4&#45;&gt;Node12</title>
<path fill="none" stroke="midnightblue" d="M264.609,-168.444C242.293,-159.517 207.097,-145.439 181.792,-135.317"/>
<polygon fill="midnightblue" stroke="midnightblue" points="182.876,-131.981 172.291,-131.516 180.276,-138.48 182.876,-131.981"/>
</g>
<!-- Node6&#45;&gt;Node4 -->
<g id="edge10" class="edge"><title>Node6&#45;&gt;Node4</title>
<path fill="none" stroke="midnightblue" d="M291.131,-131.751C292.657,-138.858 293.104,-149.136 292.472,-158.101"/>
<polygon fill="midnightblue" stroke="midnightblue" points="288.993,-157.713 291.166,-168.083 295.934,-158.622 288.993,-157.713"/>
</g>
<!-- Node6&#45;&gt;Node5 -->
<g id="edge11" class="edge"><title>Node6&#45;&gt;Node5</title>
<path fill="none" stroke="midnightblue" d="M273.147,-112.324C260.784,-103.979 241.87,-91.2122 227.263,-81.3524"/>
<polygon fill="midnightblue" stroke="midnightblue" points="229.068,-78.3483 218.821,-75.6545 225.152,-84.1503 229.068,-78.3483"/>
</g>
<!-- Node7 -->
<g id="node7" class="node"><title>Node7</title>
<g id="a_node7"><a xlink:href="_fatal_error_8h.html" target="_top" xlink:title=" ">
<polygon fill="white" stroke="black" points="330,-56.5 330,-75.5 452,-75.5 452,-56.5 330,-56.5"/>
<text text-anchor="middle" x="391" y="-63.5" font-family="Helvetica,sans-Serif" font-size="10.00">Cpl/System/FatalError.h</text>
</a>
</g>
</g>
<!-- Node6&#45;&gt;Node7 -->
<g id="edge6" class="edge"><title>Node6&#45;&gt;Node7</title>
<path fill="none" stroke="midnightblue" d="M302.87,-112.324C319.709,-103.664 345.807,-90.2424 365.238,-80.249"/>
<polygon fill="midnightblue" stroke="midnightblue" points="366.88,-83.3405 374.172,-75.6545 363.678,-77.1155 366.88,-83.3405"/>
</g>
<!-- Node10 -->
<g id="node10" class="node"><title>Node10</title>
<g id="a_node10"><a xlink:title=" ">
<polygon fill="white" stroke="#bfbfbf" points="262.5,-56.5 262.5,-75.5 311.5,-75.5 311.5,-56.5 262.5,-56.5"/>
<text text-anchor="middle" x="287" y="-63.5" font-family="Helvetica,sans-Serif" font-size="10.00">stdint.h</text>
</a>
</g>
</g>
<!-- Node6&#45;&gt;Node10 -->
<g id="edge9" class="edge"><title>Node6&#45;&gt;Node10</title>
<path fill="none" stroke="midnightblue" d="M286.165,-112.083C286.296,-105.006 286.484,-94.8611 286.648,-85.9865"/>
<polygon fill="midnightblue" stroke="midnightblue" points="290.152,-85.8142 286.838,-75.7511 283.153,-85.6845 290.152,-85.8142"/>
</g>
<!-- Node8 -->
<g id="node8" class="node"><title>Node8</title>
<g id="a_node8"><a xlink:title=" ">
<polygon fill="white" stroke="#bfbfbf" points="322,-0.5 322,-19.5 374,-19.5 374,-0.5 322,-0.5"/>
<text text-anchor="middle" x="348" y="-7.5" font-family="Helvetica,sans-Serif" font-size="10.00">stddef.h</text>
</a>
</g>
</g>
<!-- Node7&#45;&gt;Node8 -->
<g id="edge7" class="edge"><title>Node7&#45;&gt;Node8</title>
<path fill="none" stroke="midnightblue" d="M383.899,-56.083C377.763,-48.3768 368.73,-37.0333 361.261,-27.6531"/>
<polygon fill="midnightblue" stroke="midnightblue" points="363.936,-25.3936 354.968,-19.7511 358.46,-29.7542 363.936,-25.3936"/>
</g>
<!-- Node9 -->
<g id="node9" class="node"><title>Node9</title>
<g id="a_node9"><a xlink:title=" ">
<polygon fill="white" stroke="#bfbfbf" points="392.5,-0.5 392.5,-19.5 477.5,-19.5 477.5,-0.5 392.5,-0.5"/>
<text text-anchor="middle" x="435" y="-7.5" font-family="Helvetica,sans-Serif" font-size="10.00">colony_config.h</text>
</a>
</g>
</g>
<!-- Node7&#45;&gt;Node9 -->
<g id="edge8" class="edge"><title>Node7&#45;&gt;Node9</title>
<path fill="none" stroke="midnightblue" d="M398.266,-56.083C404.545,-48.3768 413.788,-37.0333 421.431,-27.6531"/>
<polygon fill="midnightblue" stroke="midnightblue" points="424.266,-29.7143 427.869,-19.7511 418.839,-25.2926 424.266,-29.7143"/>
</g>
<!-- Node14 -->
<g id="node14" class="node"><title>Node14</title>
<g id="a_node14"><a xlink:href="_item_8h.html" target="_top" xlink:title=" ">
<polygon fill="white" stroke="black" points="0,-112.5 0,-131.5 106,-131.5 106,-112.5 0,-112.5"/>
<text text-anchor="middle" x="53" y="-119.5" font-family="Helvetica,sans-Serif" font-size="10.00">Cpl/Container/Item.h</text>
</a>
</g>
</g>
<!-- Node13&#45;&gt;Node14 -->
<g id="edge15" class="edge"><title>Node13&#45;&gt;Node14</title>
<path fill="none" stroke="midnightblue" d="M80.5507,-168.083C75.9855,-160.613 69.3316,-149.724 63.7066,-140.52"/>
<polygon fill="midnightblue" stroke="midnightblue" points="66.5489,-138.459 58.3479,-131.751 60.5759,-142.109 66.5489,-138.459"/>
</g>
<!-- Node16&#45;&gt;Node4 -->
<g id="edge18" class="edge"><title>Node16&#45;&gt;Node4</title>
<path fill="none" stroke="midnightblue" d="M280.991,-224.083C281.786,-216.927 282.929,-206.635 283.923,-197.691"/>
<polygon fill="midnightblue" stroke="midnightblue" points="287.402,-198.076 285.028,-187.751 280.445,-197.303 287.402,-198.076"/>
</g>
<!-- Node16&#45;&gt;Node11 -->
<g id="edge21" class="edge"><title>Node16&#45;&gt;Node11</title>
<path fill="none" stroke="midnightblue" d="M294.221,-224.406C307.144,-216.144 326.236,-202.761 340,-188 353.419,-173.609 365.23,-154.411 372.882,-140.615"/>
<polygon fill="midnightblue" stroke="midnightblue" points="376.037,-142.137 377.681,-131.671 369.869,-138.828 376.037,-142.137"/>
</g>
<!-- Node16&#45;&gt;Node13 -->
<g id="edge19" class="edge"><title>Node16&#45;&gt;Node13</title>
<path fill="none" stroke="midnightblue" d="M249.26,-224.444C216.056,-215.201 163.009,-200.436 126.443,-190.257"/>
<polygon fill="midnightblue" stroke="midnightblue" points="127.168,-186.826 116.596,-187.516 125.291,-193.57 127.168,-186.826"/>
</g>
<!-- Node16&#45;&gt;Node15 -->
<g id="edge20" class="edge"><title>Node16&#45;&gt;Node15</title>
<path fill="none" stroke="midnightblue" d="M264.415,-224.324C249.001,-215.743 225.188,-202.486 207.29,-192.522"/>
<polygon fill="midnightblue" stroke="midnightblue" points="208.986,-189.461 198.546,-187.655 205.581,-195.577 208.986,-189.461"/>
</g>
</g>
</svg>
