<?xml version="1.0" encoding="UTF-8" standalone="no"?>
<!DOCTYPE svg PUBLIC "-//W3C//DTD SVG 1.1//EN"
 "http://www.w3.org/Graphics/SVG/1.1/DTD/svg11.dtd">
<!-- Generated by graphviz version 2.38.0 (20140413.2041)
 -->
<!-- Title: Cpl/Io/Serial/Renesas/Rx62n/InputOutput.h Pages: 1 -->
<svg width="236pt" height="162pt"
 viewBox="0.00 0.00 235.50 162.00" xmlns="http://www.w3.org/2000/svg" xmlns:xlink="http://www.w3.org/1999/xlink">
<g id="graph0" class="graph" transform="scale(1 1) rotate(0) translate(4 158)">
<title>Cpl/Io/Serial/Renesas/Rx62n/InputOutput.h</title>
<polygon fill="white" stroke="none" points="-4,4 -4,-158 231.5,-158 231.5,4 -4,4"/>
<!-- Node1 -->
<g id="node1" class="node"><title>Node1</title>
<g id="a_node1"><a xlink:title=" ">
<polygon fill="#bfbfbf" stroke="black" points="54.5,-123.5 54.5,-153.5 165.5,-153.5 165.5,-123.5 54.5,-123.5"/>
<text text-anchor="start" x="62.5" y="-141.5" font-family="Helvetica,sans-Serif" font-size="10.00">Cpl/Io/Serial/Renesas</text>
<text text-anchor="middle" x="110" y="-130.5" font-family="Helvetica,sans-Serif" font-size="10.00">/Rx62n/InputOutput.h</text>
</a>
</g>
</g>
<!-- Node2 -->
<g id="node2" class="node"><title>Node2</title>
<g id="a_node2"><a xlink:title=" ">
<polygon fill="white" stroke="#bfbfbf" points="0,-56.5 0,-86.5 98,-86.5 98,-56.5 0,-56.5"/>
<text text-anchor="start" x="8" y="-74.5" font-family="Helvetica,sans-Serif" font-size="10.00">Driver/Uart/Stream</text>
<text text-anchor="middle" x="49" y="-63.5" font-family="Helvetica,sans-Serif" font-size="10.00">/InputOutput_.h</text>
</a>
</g>
</g>
<!-- Node1&#45;&gt;Node2 -->
<g id="edge1" class="edge"><title>Node1&#45;&gt;Node2</title>
<path fill="none" stroke="midnightblue" d="M96.7639,-123.396C88.6904,-114.793 78.2106,-103.626 69.1251,-93.9448"/>
<polygon fill="midnightblue" stroke="midnightblue" points="71.6056,-91.4733 62.2103,-86.5765 66.5013,-96.2635 71.6056,-91.4733"/>
</g>
<!-- Node3 -->
<g id="node3" class="node"><title>Node3</title>
<g id="a_node3"><a xlink:href="_hal_8h.html" target="_top" xlink:title="This file defines a hardware abstraction layer (HAL) for initializing the UARTs (SCIn) peripherals on...">
<polygon fill="white" stroke="black" points="116.5,-56.5 116.5,-86.5 227.5,-86.5 227.5,-56.5 116.5,-56.5"/>
<text text-anchor="start" x="124.5" y="-74.5" font-family="Helvetica,sans-Serif" font-size="10.00">Cpl/Io/Serial/Renesas</text>
<text text-anchor="middle" x="172" y="-63.5" font-family="Helvetica,sans-Serif" font-size="10.00">/Rx62n/Hal.h</text>
</a>
</g>
</g>
<!-- Node1&#45;&gt;Node3 -->
<g id="edge2" class="edge"><title>Node1&#45;&gt;Node3</title>
<path fill="none" stroke="midnightblue" d="M123.453,-123.396C131.659,-114.793 142.311,-103.626 151.545,-93.9448"/>
<polygon fill="midnightblue" stroke="midnightblue" points="154.204,-96.2284 158.573,-86.5765 149.138,-91.3969 154.204,-96.2284"/>
</g>
<!-- Node4 -->
<g id="node4" class="node"><title>Node4</title>
<g id="a_node4"><a xlink:title=" ">
<polygon fill="white" stroke="#bfbfbf" points="127.5,-0.5 127.5,-19.5 216.5,-19.5 216.5,-0.5 127.5,-0.5"/>
<text text-anchor="middle" x="172" y="-7.5" font-family="Helvetica,sans-Serif" font-size="10.00">Driver/Uart/Hal.h</text>
</a>
</g>
</g>
<!-- Node3&#45;&gt;Node4 -->
<g id="edge3" class="edge"><title>Node3&#45;&gt;Node4</title>
<path fill="none" stroke="midnightblue" d="M172,-56.3993C172,-48.4664 172,-38.458 172,-29.8583"/>
<polygon fill="midnightblue" stroke="midnightblue" points="175.5,-29.6577 172,-19.6578 168.5,-29.6578 175.5,-29.6577"/>
</g>
</g>
</svg>
