<?xml version="1.0" encoding="UTF-8" standalone="no"?>
<!DOCTYPE svg PUBLIC "-//W3C//DTD SVG 1.1//EN"
 "http://www.w3.org/Graphics/SVG/1.1/DTD/svg11.dtd">
<!-- Generated by graphviz version 10.0.1 (20240210.2158)
 -->
<!-- Title: Cpl/Io/Serial/RP2040/Uart/InputOutput.h Pages: 1 -->
<svg width="639pt" height="376pt"
 viewBox="0.00 0.00 638.62 376.00" xmlns="http://www.w3.org/2000/svg" xmlns:xlink="http://www.w3.org/1999/xlink">
<g id="graph0" class="graph" transform="scale(1 1) rotate(0) translate(4 372)">
<title>Cpl/Io/Serial/RP2040/Uart/InputOutput.h</title>
<!-- Node1 -->
<g id="Node000001" class="node">
<title>Node1</title>
<g id="a_Node000001"><a xlink:title=" ">
<polygon fill="#999999" stroke="#666666" points="524.25,-368 418.25,-368 418.25,-336 524.25,-336 524.25,-368"/>
<text text-anchor="start" x="426.25" y="-354.5" font-family="Helvetica,sans-Serif" font-size="10.00">Cpl/Io/Serial/RP2040</text>
<text text-anchor="middle" x="471.25" y="-342.5" font-family="Helvetica,sans-Serif" font-size="10.00">/Uart/InputOutput.h</text>
</a>
</g>
</g>
<!-- Node2 -->
<g id="Node000002" class="node">
<title>Node2</title>
<g id="a_Node000002"><a xlink:href="_input_output_8h.html" target="_top" xlink:title=" ">
<polygon fill="white" stroke="#666666" points="332.38,-300 230.12,-300 230.12,-280 332.38,-280 332.38,-300"/>
<text text-anchor="middle" x="281.25" y="-286.5" font-family="Helvetica,sans-Serif" font-size="10.00">Cpl/Io/InputOutput.h</text>
</a>
</g>
</g>
<!-- Node1&#45;&gt;Node2 -->
<g id="edge1_Node000001_Node000002" class="edge">
<title>Node1&#45;&gt;Node2</title>
<g id="a_edge1_Node000001_Node000002"><a xlink:title=" ">
<path fill="none" stroke="#63b8ff" d="M422.32,-335.55C391.22,-325.73 351.42,-313.16 322.04,-303.88"/>
<polygon fill="#63b8ff" stroke="#63b8ff" points="323.35,-300.63 312.76,-300.95 321.25,-307.3 323.35,-300.63"/>
</a>
</g>
</g>
<!-- Node10 -->
<g id="Node000010" class="node">
<title>Node10</title>
<g id="a_Node000010"><a xlink:title=" ">
<polygon fill="#e0e0e0" stroke="#999999" points="472.38,-76 424.12,-76 424.12,-56 472.38,-56 472.38,-76"/>
<text text-anchor="middle" x="448.25" y="-62.5" font-family="Helvetica,sans-Serif" font-size="10.00">stdint.h</text>
</a>
</g>
</g>
<!-- Node1&#45;&gt;Node10 -->
<g id="edge24_Node000001_Node000010" class="edge">
<title>Node1&#45;&gt;Node10</title>
<g id="a_edge24_Node000001_Node000010"><a xlink:title=" ">
<path fill="none" stroke="#63b8ff" d="M465.04,-335.53C456.79,-313.55 443.25,-271.88 443.25,-235 443.25,-235 443.25,-235 443.25,-177 443.25,-145.84 445.28,-109.76 446.75,-87.66"/>
<polygon fill="#63b8ff" stroke="#63b8ff" points="450.23,-88.14 447.43,-77.92 443.24,-87.65 450.23,-88.14"/>
</a>
</g>
</g>
<!-- Node18 -->
<g id="Node000018" class="node">
<title>Node18</title>
<g id="a_Node000018"><a xlink:title=" ">
<polygon fill="#e0e0e0" stroke="#999999" points="529.62,-300 470.88,-300 470.88,-280 529.62,-280 529.62,-300"/>
<text text-anchor="middle" x="500.25" y="-286.5" font-family="Helvetica,sans-Serif" font-size="10.00">Bsp/Api.h</text>
</a>
</g>
</g>
<!-- Node1&#45;&gt;Node18 -->
<g id="edge22_Node000001_Node000018" class="edge">
<title>Node1&#45;&gt;Node18</title>
<g id="a_edge22_Node000001_Node000018"><a xlink:title=" ">
<path fill="none" stroke="#63b8ff" d="M478.72,-335.55C482.37,-328 486.8,-318.82 490.7,-310.77"/>
<polygon fill="#63b8ff" stroke="#63b8ff" points="493.84,-312.3 495.04,-301.77 487.54,-309.25 493.84,-312.3"/>
</a>
</g>
</g>
<!-- Node19 -->
<g id="Node000019" class="node">
<title>Node19</title>
<g id="a_Node000019"><a xlink:title=" ">
<polygon fill="#e0e0e0" stroke="#999999" points="630.62,-300 547.88,-300 547.88,-280 630.62,-280 630.62,-300"/>
<text text-anchor="middle" x="589.25" y="-286.5" font-family="Helvetica,sans-Serif" font-size="10.00">hardware/uart.h</text>
</a>
</g>
</g>
<!-- Node1&#45;&gt;Node19 -->
<g id="edge23_Node000001_Node000019" class="edge">
<title>Node1&#45;&gt;Node19</title>
<g id="a_edge23_Node000001_Node000019"><a xlink:title=" ">
<path fill="none" stroke="#63b8ff" d="M501.64,-335.55C519.82,-326.3 542.78,-314.63 560.64,-305.55"/>
<polygon fill="#63b8ff" stroke="#63b8ff" points="562.07,-308.75 569.4,-301.09 558.9,-302.51 562.07,-308.75"/>
</a>
</g>
</g>
<!-- Node3 -->
<g id="Node000003" class="node">
<title>Node3</title>
<g id="a_Node000003"><a xlink:href="_input_8h.html" target="_top" xlink:title=" ">
<polygon fill="white" stroke="#666666" points="221.75,-244 148.75,-244 148.75,-224 221.75,-224 221.75,-244"/>
<text text-anchor="middle" x="185.25" y="-230.5" font-family="Helvetica,sans-Serif" font-size="10.00">Cpl/Io/Input.h</text>
</a>
</g>
</g>
<!-- Node2&#45;&gt;Node3 -->
<g id="edge2_Node000002_Node000003" class="edge">
<title>Node2&#45;&gt;Node3</title>
<g id="a_edge2_Node000002_Node000003"><a xlink:title=" ">
<path fill="none" stroke="#63b8ff" d="M264.53,-279.59C250.03,-271.44 228.78,-259.48 211.93,-250"/>
<polygon fill="#63b8ff" stroke="#63b8ff" points="213.85,-247.07 203.42,-245.22 210.42,-253.17 213.85,-247.07"/>
</a>
</g>
</g>
<!-- Node17 -->
<g id="Node000017" class="node">
<title>Node17</title>
<g id="a_Node000017"><a xlink:href="_output_8h.html" target="_top" xlink:title=" ">
<polygon fill="white" stroke="#666666" points="321.88,-244 240.62,-244 240.62,-224 321.88,-224 321.88,-244"/>
<text text-anchor="middle" x="281.25" y="-230.5" font-family="Helvetica,sans-Serif" font-size="10.00">Cpl/Io/Output.h</text>
</a>
</g>
</g>
<!-- Node2&#45;&gt;Node17 -->
<g id="edge17_Node000002_Node000017" class="edge">
<title>Node2&#45;&gt;Node17</title>
<g id="a_edge17_Node000002_Node000017"><a xlink:title=" ">
<path fill="none" stroke="#63b8ff" d="M281.25,-279.59C281.25,-273.01 281.25,-263.96 281.25,-255.73"/>
<polygon fill="#63b8ff" stroke="#63b8ff" points="284.75,-255.81 281.25,-245.81 277.75,-255.81 284.75,-255.81"/>
</a>
</g>
</g>
<!-- Node4 -->
<g id="Node000004" class="node">
<title>Node4</title>
<g id="a_Node000004"><a xlink:href="_text_2_string_8h.html" target="_top" xlink:title=" ">
<polygon fill="white" stroke="#666666" points="328.62,-188 239.88,-188 239.88,-168 328.62,-168 328.62,-188"/>
<text text-anchor="middle" x="284.25" y="-174.5" font-family="Helvetica,sans-Serif" font-size="10.00">Cpl/Text/String.h</text>
</a>
</g>
</g>
<!-- Node3&#45;&gt;Node4 -->
<g id="edge3_Node000003_Node000004" class="edge">
<title>Node3&#45;&gt;Node4</title>
<g id="a_edge3_Node000003_Node000004"><a xlink:title=" ">
<path fill="none" stroke="#63b8ff" d="M202.49,-223.59C217.59,-215.36 239.78,-203.26 257.23,-193.74"/>
<polygon fill="#63b8ff" stroke="#63b8ff" points="258.44,-197.07 265.54,-189.2 255.09,-190.92 258.44,-197.07"/>
</a>
</g>
</g>
<!-- Node14 -->
<g id="Node000014" class="node">
<title>Node14</title>
<g id="a_Node000014"><a xlink:href="_close_8h.html" target="_top" xlink:title=" ">
<polygon fill="white" stroke="#666666" points="126.62,-188 49.88,-188 49.88,-168 126.62,-168 126.62,-188"/>
<text text-anchor="middle" x="88.25" y="-174.5" font-family="Helvetica,sans-Serif" font-size="10.00">Cpl/Io/Close.h</text>
</a>
</g>
</g>
<!-- Node3&#45;&gt;Node14 -->
<g id="edge14_Node000003_Node000014" class="edge">
<title>Node3&#45;&gt;Node14</title>
<g id="a_edge14_Node000003_Node000014"><a xlink:title=" ">
<path fill="none" stroke="#63b8ff" d="M168.35,-223.59C153.7,-215.44 132.23,-203.48 115.2,-194"/>
<polygon fill="#63b8ff" stroke="#63b8ff" points="117.04,-191.02 106.6,-189.22 113.64,-197.14 117.04,-191.02"/>
</a>
</g>
</g>
<!-- Node16 -->
<g id="Node000016" class="node">
<title>Node16</title>
<g id="a_Node000016"><a xlink:href="_is_eos_8h.html" target="_top" xlink:title=" ">
<polygon fill="white" stroke="#666666" points="221.62,-188 144.88,-188 144.88,-168 221.62,-168 221.62,-188"/>
<text text-anchor="middle" x="183.25" y="-174.5" font-family="Helvetica,sans-Serif" font-size="10.00">Cpl/Io/IsEos.h</text>
</a>
</g>
</g>
<!-- Node3&#45;&gt;Node16 -->
<g id="edge16_Node000003_Node000016" class="edge">
<title>Node3&#45;&gt;Node16</title>
<g id="a_edge16_Node000003_Node000016"><a xlink:title=" ">
<path fill="none" stroke="#63b8ff" d="M184.9,-223.59C184.66,-217.01 184.32,-207.96 184.02,-199.73"/>
<polygon fill="#63b8ff" stroke="#63b8ff" points="187.52,-199.67 183.65,-189.81 180.52,-199.93 187.52,-199.67"/>
</a>
</g>
</g>
<!-- Node5 -->
<g id="Node000005" class="node">
<title>Node5</title>
<g id="a_Node000005"><a xlink:title=" ">
<polygon fill="#e0e0e0" stroke="#999999" points="200.62,-76 123.88,-76 123.88,-56 200.62,-56 200.62,-76"/>
<text text-anchor="middle" x="162.25" y="-62.5" font-family="Helvetica,sans-Serif" font-size="10.00">colony_map.h</text>
</a>
</g>
</g>
<!-- Node4&#45;&gt;Node5 -->
<g id="edge4_Node000004_Node000005" class="edge">
<title>Node4&#45;&gt;Node5</title>
<g id="a_edge4_Node000004_Node000005"><a xlink:title=" ">
<path fill="none" stroke="#63b8ff" d="M270.41,-167.6C257.91,-158.9 239.24,-145.32 224.25,-132 207.39,-117.02 189.79,-98.22 177.67,-84.7"/>
<polygon fill="#63b8ff" stroke="#63b8ff" points="180.48,-82.59 171.23,-77.43 175.24,-87.23 180.48,-82.59"/>
</a>
</g>
</g>
<!-- Node6 -->
<g id="Node000006" class="node">
<title>Node6</title>
<g id="a_Node000006"><a xlink:href="_key_8h.html" target="_top" xlink:title=" ">
<polygon fill="white" stroke="#666666" points="335.75,-132 232.75,-132 232.75,-112 335.75,-112 335.75,-132"/>
<text text-anchor="middle" x="284.25" y="-118.5" font-family="Helvetica,sans-Serif" font-size="10.00">Cpl/Container/Key.h</text>
</a>
</g>
</g>
<!-- Node4&#45;&gt;Node6 -->
<g id="edge5_Node000004_Node000006" class="edge">
<title>Node4&#45;&gt;Node6</title>
<g id="a_edge5_Node000004_Node000006"><a xlink:title=" ">
<path fill="none" stroke="#63b8ff" d="M284.25,-167.59C284.25,-161.01 284.25,-151.96 284.25,-143.73"/>
<polygon fill="#63b8ff" stroke="#63b8ff" points="287.75,-143.81 284.25,-133.81 280.75,-143.81 287.75,-143.81"/>
</a>
</g>
</g>
<!-- Node12 -->
<g id="Node000012" class="node">
<title>Node12</title>
<g id="a_Node000012"><a xlink:title=" ">
<polygon fill="#e0e0e0" stroke="#999999" points="404.88,-132 353.62,-132 353.62,-112 404.88,-112 404.88,-132"/>
<text text-anchor="middle" x="379.25" y="-118.5" font-family="Helvetica,sans-Serif" font-size="10.00">stdarg.h</text>
</a>
</g>
</g>
<!-- Node4&#45;&gt;Node12 -->
<g id="edge12_Node000004_Node000012" class="edge">
<title>Node4&#45;&gt;Node12</title>
<g id="a_edge12_Node000004_Node000012"><a xlink:title=" ">
<path fill="none" stroke="#63b8ff" d="M300.8,-167.59C315.15,-159.44 336.18,-147.48 352.85,-138"/>
<polygon fill="#63b8ff" stroke="#63b8ff" points="354.29,-141.21 361.26,-133.23 350.83,-135.13 354.29,-141.21"/>
</a>
</g>
</g>
<!-- Node13 -->
<g id="Node000013" class="node">
<title>Node13</title>
<g id="a_Node000013"><a xlink:title=" ">
<polygon fill="#e0e0e0" stroke="#999999" points="176,-132 122.5,-132 122.5,-112 176,-112 176,-132"/>
<text text-anchor="middle" x="149.25" y="-118.5" font-family="Helvetica,sans-Serif" font-size="10.00">iostream</text>
</a>
</g>
</g>
<!-- Node4&#45;&gt;Node13 -->
<g id="edge13_Node000004_Node000013" class="edge">
<title>Node4&#45;&gt;Node13</title>
<g id="a_edge13_Node000004_Node000013"><a xlink:title=" ">
<path fill="none" stroke="#63b8ff" d="M260.73,-167.59C239.38,-159.05 207.62,-146.35 183.45,-136.68"/>
<polygon fill="#63b8ff" stroke="#63b8ff" points="184.94,-133.51 174.35,-133.04 182.34,-140.01 184.94,-133.51"/>
</a>
</g>
</g>
<!-- Node6&#45;&gt;Node5 -->
<g id="edge11_Node000006_Node000005" class="edge">
<title>Node6&#45;&gt;Node5</title>
<g id="a_edge11_Node000006_Node000005"><a xlink:title=" ">
<path fill="none" stroke="#63b8ff" d="M263,-111.59C243.96,-103.17 215.77,-90.69 194.05,-81.07"/>
<polygon fill="#63b8ff" stroke="#63b8ff" points="195.61,-77.94 185.05,-77.09 192.78,-84.34 195.61,-77.94"/>
</a>
</g>
</g>
<!-- Node7 -->
<g id="Node000007" class="node">
<title>Node7</title>
<g id="a_Node000007"><a xlink:href="_fatal_error_8h.html" target="_top" xlink:title=" ">
<polygon fill="white" stroke="#666666" points="339.75,-76 218.75,-76 218.75,-56 339.75,-56 339.75,-76"/>
<text text-anchor="middle" x="279.25" y="-62.5" font-family="Helvetica,sans-Serif" font-size="10.00">Cpl/System/FatalError.h</text>
</a>
</g>
</g>
<!-- Node6&#45;&gt;Node7 -->
<g id="edge6_Node000006_Node000007" class="edge">
<title>Node6&#45;&gt;Node7</title>
<g id="a_edge6_Node000006_Node000007"><a xlink:title=" ">
<path fill="none" stroke="#63b8ff" d="M283.38,-111.59C282.77,-105.01 281.93,-95.96 281.17,-87.73"/>
<polygon fill="#63b8ff" stroke="#63b8ff" points="284.66,-87.44 280.25,-77.81 277.69,-88.09 284.66,-87.44"/>
</a>
</g>
</g>
<!-- Node6&#45;&gt;Node10 -->
<g id="edge9_Node000006_Node000010" class="edge">
<title>Node6&#45;&gt;Node10</title>
<g id="a_edge9_Node000006_Node000010"><a xlink:title=" ">
<path fill="none" stroke="#63b8ff" d="M312.82,-111.59C340.65,-102.43 383.02,-88.48 412.95,-78.62"/>
<polygon fill="#63b8ff" stroke="#63b8ff" points="413.91,-81.99 422.32,-75.54 411.72,-75.34 413.91,-81.99"/>
</a>
</g>
</g>
<!-- Node11 -->
<g id="Node000011" class="node">
<title>Node11</title>
<g id="a_Node000011"><a xlink:title=" ">
<polygon fill="#e0e0e0" stroke="#999999" points="406.38,-76 358.12,-76 358.12,-56 406.38,-56 406.38,-76"/>
<text text-anchor="middle" x="382.25" y="-62.5" font-family="Helvetica,sans-Serif" font-size="10.00">string.h</text>
</a>
</g>
</g>
<!-- Node6&#45;&gt;Node11 -->
<g id="edge10_Node000006_Node000011" class="edge">
<title>Node6&#45;&gt;Node11</title>
<g id="a_edge10_Node000006_Node000011"><a xlink:title=" ">
<path fill="none" stroke="#63b8ff" d="M301.32,-111.59C316.13,-103.44 337.82,-91.48 355.02,-82"/>
<polygon fill="#63b8ff" stroke="#63b8ff" points="356.65,-85.1 363.72,-77.21 353.27,-78.97 356.65,-85.1"/>
</a>
</g>
</g>
<!-- Node8 -->
<g id="Node000008" class="node">
<title>Node8</title>
<g id="a_Node000008"><a xlink:title=" ">
<polygon fill="#e0e0e0" stroke="#999999" points="261.5,-20 211,-20 211,0 261.5,0 261.5,-20"/>
<text text-anchor="middle" x="236.25" y="-6.5" font-family="Helvetica,sans-Serif" font-size="10.00">stddef.h</text>
</a>
</g>
</g>
<!-- Node7&#45;&gt;Node8 -->
<g id="edge7_Node000007_Node000008" class="edge">
<title>Node7&#45;&gt;Node8</title>
<g id="a_edge7_Node000007_Node000008"><a xlink:title=" ">
<path fill="none" stroke="#63b8ff" d="M271.76,-55.59C265.96,-48.32 257.76,-38.02 250.7,-29.15"/>
<polygon fill="#63b8ff" stroke="#63b8ff" points="253.56,-27.12 244.6,-21.48 248.09,-31.49 253.56,-27.12"/>
</a>
</g>
</g>
<!-- Node9 -->
<g id="Node000009" class="node">
<title>Node9</title>
<g id="a_Node000009"><a xlink:title=" ">
<polygon fill="#e0e0e0" stroke="#999999" points="363,-20 279.5,-20 279.5,0 363,0 363,-20"/>
<text text-anchor="middle" x="321.25" y="-6.5" font-family="Helvetica,sans-Serif" font-size="10.00">colony_config.h</text>
</a>
</g>
</g>
<!-- Node7&#45;&gt;Node9 -->
<g id="edge8_Node000007_Node000009" class="edge">
<title>Node7&#45;&gt;Node9</title>
<g id="a_edge8_Node000007_Node000009"><a xlink:title=" ">
<path fill="none" stroke="#63b8ff" d="M286.57,-55.59C292.23,-48.32 300.24,-38.02 307.14,-29.15"/>
<polygon fill="#63b8ff" stroke="#63b8ff" points="309.71,-31.54 313.09,-21.49 304.19,-27.24 309.71,-31.54"/>
</a>
</g>
</g>
<!-- Node15 -->
<g id="Node000015" class="node">
<title>Node15</title>
<g id="a_Node000015"><a xlink:href="_item_8h.html" target="_top" xlink:title=" ">
<polygon fill="white" stroke="#666666" points="104.5,-132 0,-132 0,-112 104.5,-112 104.5,-132"/>
<text text-anchor="middle" x="52.25" y="-118.5" font-family="Helvetica,sans-Serif" font-size="10.00">Cpl/Container/Item.h</text>
</a>
</g>
</g>
<!-- Node14&#45;&gt;Node15 -->
<g id="edge15_Node000014_Node000015" class="edge">
<title>Node14&#45;&gt;Node15</title>
<g id="a_edge15_Node000014_Node000015"><a xlink:title=" ">
<path fill="none" stroke="#63b8ff" d="M81.98,-167.59C77.23,-160.47 70.55,-150.45 64.73,-141.72"/>
<polygon fill="#63b8ff" stroke="#63b8ff" points="67.75,-139.94 59.29,-133.56 61.92,-143.82 67.75,-139.94"/>
</a>
</g>
</g>
<!-- Node17&#45;&gt;Node4 -->
<g id="edge18_Node000017_Node000004" class="edge">
<title>Node17&#45;&gt;Node4</title>
<g id="a_edge18_Node000017_Node000004"><a xlink:title=" ">
<path fill="none" stroke="#63b8ff" d="M281.77,-223.59C282.14,-217.01 282.64,-207.96 283.1,-199.73"/>
<polygon fill="#63b8ff" stroke="#63b8ff" points="286.59,-199.99 283.65,-189.81 279.6,-199.6 286.59,-199.99"/>
</a>
</g>
</g>
<!-- Node17&#45;&gt;Node12 -->
<g id="edge21_Node000017_Node000012" class="edge">
<title>Node17&#45;&gt;Node12</title>
<g id="a_edge21_Node000017_Node000012"><a xlink:title=" ">
<path fill="none" stroke="#63b8ff" d="M295.18,-223.72C307.19,-215.3 324.55,-202.08 337.25,-188 349.89,-173.99 361.3,-155.78 369.03,-142.21"/>
<polygon fill="#63b8ff" stroke="#63b8ff" points="371.9,-144.25 373.66,-133.8 365.77,-140.87 371.9,-144.25"/>
</a>
</g>
</g>
<!-- Node17&#45;&gt;Node14 -->
<g id="edge19_Node000017_Node000014" class="edge">
<title>Node17&#45;&gt;Node14</title>
<g id="a_edge19_Node000017_Node000014"><a xlink:title=" ">
<path fill="none" stroke="#63b8ff" d="M247.63,-223.59C215.86,-214.71 167.99,-201.31 133,-191.52"/>
<polygon fill="#63b8ff" stroke="#63b8ff" points="134.16,-188.21 123.59,-188.89 132.28,-194.95 134.16,-188.21"/>
</a>
</g>
</g>
<!-- Node17&#45;&gt;Node16 -->
<g id="edge20_Node000017_Node000016" class="edge">
<title>Node17&#45;&gt;Node16</title>
<g id="a_edge20_Node000017_Node000016"><a xlink:title=" ">
<path fill="none" stroke="#63b8ff" d="M264.18,-223.59C249.37,-215.44 227.68,-203.48 210.48,-194"/>
<polygon fill="#63b8ff" stroke="#63b8ff" points="212.23,-190.97 201.78,-189.21 208.85,-197.1 212.23,-190.97"/>
</a>
</g>
</g>
</g>
</svg>
