<?xml version="1.0" encoding="UTF-8" standalone="no"?>
<!DOCTYPE svg PUBLIC "-//W3C//DTD SVG 1.1//EN"
 "http://www.w3.org/Graphics/SVG/1.1/DTD/svg11.dtd">
<!-- Generated by graphviz version 2.38.0 (20140413.2041)
 -->
<!-- Title: Cpl/System/Signable.h Pages: 1 -->
<svg width="1950pt" height="587pt"
 viewBox="0.00 0.00 1949.50 587.00" xmlns="http://www.w3.org/2000/svg" xmlns:xlink="http://www.w3.org/1999/xlink">
<g id="graph0" class="graph" transform="scale(1 1) rotate(0) translate(4 583)">
<title>Cpl/System/Signable.h</title>
<polygon fill="white" stroke="none" points="-4,4 -4,-583 1945.5,-583 1945.5,4 -4,4"/>
<!-- Node1 -->
<g id="node1" class="node"><title>Node1</title>
<g id="a_node1"><a xlink:title=" ">
<polygon fill="#bfbfbf" stroke="black" points="438.5,-559.5 438.5,-578.5 554.5,-578.5 554.5,-559.5 438.5,-559.5"/>
<text text-anchor="middle" x="496.5" y="-566.5" font-family="Helvetica,sans-Serif" font-size="10.00">Cpl/System/Signable.h</text>
</a>
</g>
</g>
<!-- Node2 -->
<g id="node2" class="node"><title>Node2</title>
<g id="a_node2"><a xlink:href="_sync_return_handler_8h.html" target="_top" xlink:title=" ">
<polygon fill="white" stroke="black" points="96.5,-503.5 96.5,-522.5 236.5,-522.5 236.5,-503.5 96.5,-503.5"/>
<text text-anchor="middle" x="166.5" y="-510.5" font-family="Helvetica,sans-Serif" font-size="10.00">Cpl/Itc/SyncReturnHandler.h</text>
</a>
</g>
</g>
<!-- Node1&#45;&gt;Node2 -->
<g id="edge1" class="edge"><title>Node1&#45;&gt;Node2</title>
<path fill="none" stroke="midnightblue" d="M434.11,-557.791C371.754,-547.587 276.977,-532.078 218.545,-522.516"/>
<polygon fill="midnightblue" stroke="midnightblue" points="433.777,-561.283 444.211,-559.444 434.907,-554.375 433.777,-561.283"/>
</g>
<!-- Node5 -->
<g id="node5" class="node"><title>Node5</title>
<g id="a_node5"><a xlink:href="_system_2_event_loop_8h.html" target="_top" xlink:title=" ">
<polygon fill="white" stroke="black" points="246,-442 246,-461 371,-461 371,-442 246,-442"/>
<text text-anchor="middle" x="308.5" y="-449" font-family="Helvetica,sans-Serif" font-size="10.00">Cpl/System/EventLoop.h</text>
</a>
</g>
</g>
<!-- Node1&#45;&gt;Node5 -->
<g id="edge5" class="edge"><title>Node1&#45;&gt;Node5</title>
<path fill="none" stroke="midnightblue" d="M473.727,-554.009C434.377,-529.834 354.782,-480.934 322.538,-461.124"/>
<polygon fill="midnightblue" stroke="midnightblue" points="472.017,-557.066 482.369,-559.319 475.681,-551.102 472.017,-557.066"/>
</g>
<!-- Node41 -->
<g id="node32" class="node"><title>Node41</title>
<g id="a_node32"><a xlink:href="_semaphore_8h.html" target="_top" xlink:title=" ">
<polygon fill="white" stroke="black" points="526.5,-503.5 526.5,-522.5 654.5,-522.5 654.5,-503.5 526.5,-503.5"/>
<text text-anchor="middle" x="590.5" y="-510.5" font-family="Helvetica,sans-Serif" font-size="10.00">Cpl/System/Semaphore.h</text>
</a>
</g>
</g>
<!-- Node1&#45;&gt;Node41 -->
<g id="edge44" class="edge"><title>Node1&#45;&gt;Node41</title>
<path fill="none" stroke="midnightblue" d="M520.562,-554.177C537.859,-544.241 560.648,-531.149 575.435,-522.655"/>
<polygon fill="midnightblue" stroke="midnightblue" points="518.53,-551.308 511.603,-559.324 522.017,-557.378 518.53,-551.308"/>
</g>
<!-- Node47 -->
<g id="node38" class="node"><title>Node47</title>
<g id="a_node38"><a xlink:href="_thread_8h.html" target="_top" xlink:title=" ">
<polygon fill="white" stroke="black" points="1127,-503.5 1127,-522.5 1236,-522.5 1236,-503.5 1127,-503.5"/>
<text text-anchor="middle" x="1181.5" y="-510.5" font-family="Helvetica,sans-Serif" font-size="10.00">Cpl/System/Thread.h</text>
</a>
</g>
</g>
<!-- Node1&#45;&gt;Node47 -->
<g id="edge51" class="edge"><title>Node1&#45;&gt;Node47</title>
<path fill="none" stroke="midnightblue" d="M564.886,-562.609C700.793,-551.895 1002.44,-528.116 1126.54,-518.333"/>
<polygon fill="midnightblue" stroke="midnightblue" points="564.301,-559.144 554.607,-563.419 564.851,-566.122 564.301,-559.144"/>
</g>
<!-- Node3 -->
<g id="node3" class="node"><title>Node3</title>
<g id="a_node3"><a xlink:href="_atomic_request_8h.html" target="_top" xlink:title=" ">
<polygon fill="white" stroke="black" points="105,-442 105,-461 228,-461 228,-442 105,-442"/>
<text text-anchor="middle" x="166.5" y="-449" font-family="Helvetica,sans-Serif" font-size="10.00">Cpl/Itc/AtomicRequest.h</text>
</a>
</g>
</g>
<!-- Node2&#45;&gt;Node3 -->
<g id="edge2" class="edge"><title>Node2&#45;&gt;Node3</title>
<path fill="none" stroke="midnightblue" d="M166.5,-493.317C166.5,-482.496 166.5,-469.398 166.5,-461.009"/>
<polygon fill="midnightblue" stroke="midnightblue" points="163,-493.475 166.5,-503.475 170,-493.475 163,-493.475"/>
</g>
<!-- Node4 -->
<g id="node4" class="node"><title>Node4</title>
<g id="a_node4"><a xlink:href="_atomic_sync_8h.html" target="_top" xlink:title=" ">
<polygon fill="white" stroke="black" points="66.5,-375 66.5,-394 176.5,-394 176.5,-375 66.5,-375"/>
<text text-anchor="middle" x="121.5" y="-382" font-family="Helvetica,sans-Serif" font-size="10.00">Cpl/Itc/AtomicSync.h</text>
</a>
</g>
</g>
<!-- Node2&#45;&gt;Node4 -->
<g id="edge4" class="edge"><title>Node2&#45;&gt;Node4</title>
<path fill="none" stroke="midnightblue" d="M131.903,-498.921C117.986,-491.747 103.387,-481.337 95.5,-467 81.8984,-442.276 102.809,-409.358 114.494,-394.028"/>
<polygon fill="midnightblue" stroke="midnightblue" points="130.802,-502.272 141.339,-503.378 133.792,-495.942 130.802,-502.272"/>
</g>
<!-- Node3&#45;&gt;Node4 -->
<g id="edge3" class="edge"><title>Node3&#45;&gt;Node4</title>
<path fill="none" stroke="midnightblue" d="M154.664,-433.404C145.92,-420.773 134.38,-404.104 127.473,-394.127"/>
<polygon fill="midnightblue" stroke="midnightblue" points="151.861,-435.504 160.431,-441.734 157.617,-431.52 151.861,-435.504"/>
</g>
<!-- Node6 -->
<g id="node6" class="node"><title>Node6</title>
<g id="a_node6"><a xlink:href="_dm_2_event_loop_8h.html" target="_top" xlink:title=" ">
<polygon fill="white" stroke="black" points="650,-375 650,-394 757,-394 757,-375 650,-375"/>
<text text-anchor="middle" x="703.5" y="-382" font-family="Helvetica,sans-Serif" font-size="10.00">Cpl/Dm/EventLoop.h</text>
</a>
</g>
</g>
<!-- Node5&#45;&gt;Node6 -->
<g id="edge6" class="edge"><title>Node5&#45;&gt;Node6</title>
<path fill="none" stroke="midnightblue" d="M358.704,-439.943C365.679,-438.565 372.762,-437.213 379.5,-436 474.33,-418.936 585.389,-402.362 649.768,-393.088"/>
<polygon fill="midnightblue" stroke="midnightblue" points="357.73,-436.568 348.614,-441.966 359.107,-443.432 357.73,-436.568"/>
</g>
<!-- Node39 -->
<g id="node30" class="node"><title>Node39</title>
<g id="a_node30"><a xlink:href="_mailbox_8h.html" target="_top" xlink:title=" ">
<polygon fill="white" stroke="black" points="300.5,-375 300.5,-394 390.5,-394 390.5,-375 300.5,-375"/>
<text text-anchor="middle" x="345.5" y="-382" font-family="Helvetica,sans-Serif" font-size="10.00">Cpl/Itc/Mailbox.h</text>
</a>
</g>
</g>
<!-- Node5&#45;&gt;Node39 -->
<g id="edge40" class="edge"><title>Node5&#45;&gt;Node39</title>
<path fill="none" stroke="midnightblue" d="M318.442,-433.035C325.605,-420.45 334.965,-404.007 340.589,-394.127"/>
<polygon fill="midnightblue" stroke="midnightblue" points="315.395,-431.312 313.49,-441.734 321.479,-434.775 315.395,-431.312"/>
</g>
<!-- Node40 -->
<g id="node31" class="node"><title>Node40</title>
<g id="a_node31"><a xlink:href="_itc_2_mailbox_server_8h.html" target="_top" xlink:title=" ">
<polygon fill="white" stroke="black" points="213,-313.5 213,-332.5 332,-332.5 332,-313.5 213,-313.5"/>
<text text-anchor="middle" x="272.5" y="-320.5" font-family="Helvetica,sans-Serif" font-size="10.00">Cpl/Itc/MailboxServer.h</text>
</a>
</g>
</g>
<!-- Node5&#45;&gt;Node40 -->
<g id="edge43" class="edge"><title>Node5&#45;&gt;Node40</title>
<path fill="none" stroke="midnightblue" d="M302.015,-432.393C298.685,-422.82 294.673,-410.837 291.5,-400 284.468,-375.983 277.729,-347.229 274.495,-332.954"/>
<polygon fill="midnightblue" stroke="midnightblue" points="298.773,-433.724 305.403,-441.988 305.373,-431.393 298.773,-433.724"/>
</g>
<!-- Node7 -->
<g id="node7" class="node"><title>Node7</title>
<g id="a_node7"><a xlink:href="_dm_2_mailbox_server_8h.html" target="_top" xlink:title=" ">
<polygon fill="white" stroke="black" points="350.5,-313.5 350.5,-332.5 472.5,-332.5 472.5,-313.5 350.5,-313.5"/>
<text text-anchor="middle" x="411.5" y="-320.5" font-family="Helvetica,sans-Serif" font-size="10.00">Cpl/Dm/MailboxServer.h</text>
</a>
</g>
</g>
<!-- Node6&#45;&gt;Node7 -->
<g id="edge7" class="edge"><title>Node6&#45;&gt;Node7</title>
<path fill="none" stroke="midnightblue" d="M651.843,-372.974C595.252,-361.443 505.587,-343.172 453.259,-332.509"/>
<polygon fill="midnightblue" stroke="midnightblue" points="651.166,-376.408 661.664,-374.975 652.564,-369.549 651.166,-376.408"/>
</g>
<!-- Node20 -->
<g id="node20" class="node"><title>Node20</title>
<g id="a_node20"><a xlink:href="_subscriber_8h.html" target="_top" xlink:title=" ">
<polygon fill="white" stroke="black" points="978,-257.5 978,-276.5 1085,-276.5 1085,-257.5 978,-257.5"/>
<text text-anchor="middle" x="1031.5" y="-264.5" font-family="Helvetica,sans-Serif" font-size="10.00">Cpl/Dm/Subscriber.h</text>
</a>
</g>
</g>
<!-- Node6&#45;&gt;Node20 -->
<g id="edge28" class="edge"><title>Node6&#45;&gt;Node20</title>
<path fill="none" stroke="midnightblue" d="M737.45,-371.545C803.754,-348.197 949.035,-297.039 1006.95,-276.643"/>
<polygon fill="midnightblue" stroke="midnightblue" points="736.155,-368.29 727.885,-374.913 738.48,-374.893 736.155,-368.29"/>
</g>
<!-- Node8 -->
<g id="node8" class="node"><title>Node8</title>
<g id="a_node8"><a xlink:href="_chunk_8h.html" target="_top" xlink:title=" ">
<polygon fill="white" stroke="black" points="353,-257.5 353,-276.5 470,-276.5 470,-257.5 353,-257.5"/>
<text text-anchor="middle" x="411.5" y="-264.5" font-family="Helvetica,sans-Serif" font-size="10.00">Cpl/Persistent/Chunk.h</text>
</a>
</g>
</g>
<!-- Node7&#45;&gt;Node8 -->
<g id="edge8" class="edge"><title>Node7&#45;&gt;Node8</title>
<path fill="none" stroke="midnightblue" d="M411.5,-302.805C411.5,-293.91 411.5,-283.78 411.5,-276.751"/>
<polygon fill="midnightblue" stroke="midnightblue" points="408,-303.083 411.5,-313.083 415,-303.083 408,-303.083"/>
</g>
<!-- Node16 -->
<g id="node16" class="node"><title>Node16</title>
<g id="a_node16"><a xlink:href="_persistent_2_record_8h.html" target="_top" xlink:title=" ">
<polygon fill="white" stroke="black" points="186.5,-257.5 186.5,-276.5 306.5,-276.5 306.5,-257.5 186.5,-257.5"/>
<text text-anchor="middle" x="246.5" y="-264.5" font-family="Helvetica,sans-Serif" font-size="10.00">Cpl/Persistent/Record.h</text>
</a>
</g>
</g>
<!-- Node7&#45;&gt;Node16 -->
<g id="edge17" class="edge"><title>Node7&#45;&gt;Node16</title>
<path fill="none" stroke="midnightblue" d="M375.764,-310.304C344.673,-300.129 300.353,-285.625 272.522,-276.516"/>
<polygon fill="midnightblue" stroke="midnightblue" points="374.763,-313.659 385.355,-313.444 376.94,-307.007 374.763,-313.659"/>
</g>
<!-- Node17 -->
<g id="node17" class="node"><title>Node17</title>
<g id="a_node17"><a xlink:href="_record_server_8h.html" target="_top" xlink:title=" ">
<polygon fill="white" stroke="black" points="0,-201.5 0,-220.5 149,-220.5 149,-201.5 0,-201.5"/>
<text text-anchor="middle" x="74.5" y="-208.5" font-family="Helvetica,sans-Serif" font-size="10.00">Cpl/Persistent/RecordServer.h</text>
</a>
</g>
</g>
<!-- Node7&#45;&gt;Node17 -->
<g id="edge22" class="edge"><title>Node7&#45;&gt;Node17</title>
<path fill="none" stroke="midnightblue" d="M344.037,-311.882C286.03,-302.66 207.17,-288.729 177.5,-277 140.925,-262.541 103.125,-234.78 85.1878,-220.679"/>
<polygon fill="midnightblue" stroke="midnightblue" points="343.821,-315.391 354.244,-313.49 344.911,-308.476 343.821,-315.391"/>
</g>
<!-- Node18 -->
<g id="node18" class="node"><title>Node18</title>
<g id="a_node18"><a xlink:href="_region_media_8h.html" target="_top" xlink:title=" ">
<polygon fill="white" stroke="black" points="602.5,-257.5 602.5,-276.5 748.5,-276.5 748.5,-257.5 602.5,-257.5"/>
<text text-anchor="middle" x="675.5" y="-264.5" font-family="Helvetica,sans-Serif" font-size="10.00">Cpl/Persistent/RegionMedia.h</text>
</a>
</g>
</g>
<!-- Node7&#45;&gt;Node18 -->
<g id="edge23" class="edge"><title>Node7&#45;&gt;Node18</title>
<path fill="none" stroke="midnightblue" d="M463.275,-311.41C513.169,-301.204 587.697,-285.96 633.864,-276.516"/>
<polygon fill="midnightblue" stroke="midnightblue" points="462.427,-308.01 453.332,-313.444 463.83,-314.869 462.427,-308.01"/>
</g>
<!-- Node9 -->
<g id="node9" class="node"><title>Node9</title>
<g id="a_node9"><a xlink:href="_dm_2_persistent_2_record_8h.html" target="_top" xlink:title=" ">
<polygon fill="white" stroke="black" points="245.5,-140 245.5,-159 383.5,-159 383.5,-140 245.5,-140"/>
<text text-anchor="middle" x="314.5" y="-147" font-family="Helvetica,sans-Serif" font-size="10.00">Cpl/Dm/Persistent/Record.h</text>
</a>
</g>
</g>
<!-- Node8&#45;&gt;Node9 -->
<g id="edge9" class="edge"><title>Node8&#45;&gt;Node9</title>
<path fill="none" stroke="midnightblue" d="M397.643,-249.5C376.782,-224.661 338.035,-178.523 321.875,-159.282"/>
<polygon fill="midnightblue" stroke="midnightblue" points="395.098,-251.912 404.209,-257.319 400.458,-247.41 395.098,-251.912"/>
</g>
<!-- Node10 -->
<g id="node10" class="node"><title>Node10</title>
<g id="a_node10"><a xlink:href="_crc_chunk_8h.html" target="_top" xlink:title=" ">
<polygon fill="white" stroke="black" points="609.5,-201.5 609.5,-220.5 741.5,-220.5 741.5,-201.5 609.5,-201.5"/>
<text text-anchor="middle" x="675.5" y="-208.5" font-family="Helvetica,sans-Serif" font-size="10.00">Cpl/Persistent/CrcChunk.h</text>
</a>
</g>
</g>
<!-- Node8&#45;&gt;Node10 -->
<g id="edge10" class="edge"><title>Node8&#45;&gt;Node10</title>
<path fill="none" stroke="midnightblue" d="M463.275,-255.41C513.169,-245.204 587.697,-229.96 633.864,-220.516"/>
<polygon fill="midnightblue" stroke="midnightblue" points="462.427,-252.01 453.332,-257.444 463.83,-258.869 462.427,-252.01"/>
</g>
<!-- Node11 -->
<g id="node11" class="node"><title>Node11</title>
<g id="a_node11"><a xlink:href="_data_record_8h.html" target="_top" xlink:title=" ">
<polygon fill="white" stroke="black" points="205.5,-201.5 205.5,-220.5 345.5,-220.5 345.5,-201.5 205.5,-201.5"/>
<text text-anchor="middle" x="275.5" y="-208.5" font-family="Helvetica,sans-Serif" font-size="10.00">Cpl/Persistent/DataRecord.h</text>
</a>
</g>
</g>
<!-- Node8&#45;&gt;Node11 -->
<g id="edge11" class="edge"><title>Node8&#45;&gt;Node11</title>
<path fill="none" stroke="midnightblue" d="M380.365,-253.638C354.843,-243.504 319.391,-229.427 296.949,-220.516"/>
<polygon fill="midnightblue" stroke="midnightblue" points="379.365,-257.006 389.95,-257.444 381.948,-250.5 379.365,-257.006"/>
</g>
<!-- Node13 -->
<g id="node13" class="node"><title>Node13</title>
<g id="a_node13"><a xlink:href="_indexed_entry_record_8h.html" target="_top" xlink:title=" ">
<polygon fill="white" stroke="black" points="480,-67.5 480,-97.5 619,-97.5 619,-67.5 480,-67.5"/>
<text text-anchor="start" x="488" y="-85.5" font-family="Helvetica,sans-Serif" font-size="10.00">Cpl/Persistent/IndexedEntry</text>
<text text-anchor="middle" x="549.5" y="-74.5" font-family="Helvetica,sans-Serif" font-size="10.00">Record.h</text>
</a>
</g>
</g>
<!-- Node8&#45;&gt;Node13 -->
<g id="edge15" class="edge"><title>Node8&#45;&gt;Node13</title>
<path fill="none" stroke="midnightblue" d="M414.347,-247.393C417.021,-233.816 421.933,-215.355 430.5,-201 456.836,-156.872 503.641,-117.594 530.021,-97.5555"/>
<polygon fill="midnightblue" stroke="midnightblue" points="410.863,-247 412.596,-257.452 417.759,-248.201 410.863,-247"/>
</g>
<!-- Node15 -->
<g id="node15" class="node"><title>Node15</title>
<g id="a_node15"><a xlink:href="_mirrored_chunk_8h.html" target="_top" xlink:title=" ">
<polygon fill="white" stroke="black" points="439.5,-201.5 439.5,-220.5 591.5,-220.5 591.5,-201.5 439.5,-201.5"/>
<text text-anchor="middle" x="515.5" y="-208.5" font-family="Helvetica,sans-Serif" font-size="10.00">Cpl/Persistent/MirroredChunk.h</text>
</a>
</g>
</g>
<!-- Node8&#45;&gt;Node15 -->
<g id="edge16" class="edge"><title>Node8&#45;&gt;Node15</title>
<path fill="none" stroke="midnightblue" d="M437.328,-252.59C456.557,-242.605 482.245,-229.267 498.832,-220.655"/>
<polygon fill="midnightblue" stroke="midnightblue" points="435.471,-249.61 428.209,-257.324 438.697,-255.822 435.471,-249.61"/>
</g>
<!-- Node12 -->
<g id="node12" class="node"><title>Node12</title>
<g id="a_node12"><a xlink:href="_index_record_8h.html" target="_top" xlink:title=" ">
<polygon fill="white" stroke="black" points="83.5,-140 83.5,-159 227.5,-159 227.5,-140 83.5,-140"/>
<text text-anchor="middle" x="155.5" y="-147" font-family="Helvetica,sans-Serif" font-size="10.00">Cpl/Persistent/IndexRecord.h</text>
</a>
</g>
</g>
<!-- Node11&#45;&gt;Node12 -->
<g id="edge12" class="edge"><title>Node11&#45;&gt;Node12</title>
<path fill="none" stroke="midnightblue" d="M249.323,-197.021C226.051,-185.482 192.697,-168.943 172.661,-159.009"/>
<polygon fill="midnightblue" stroke="midnightblue" points="247.793,-200.169 258.307,-201.475 250.903,-193.897 247.793,-200.169"/>
</g>
<!-- Node12&#45;&gt;Node13 -->
<g id="edge13" class="edge"><title>Node12&#45;&gt;Node13</title>
<path fill="none" stroke="midnightblue" d="M212.633,-138.146C220.644,-136.731 228.776,-135.314 236.5,-134 320.065,-119.78 416.359,-104.394 479.826,-94.3902"/>
<polygon fill="midnightblue" stroke="midnightblue" points="211.825,-134.735 202.591,-139.929 213.049,-141.627 211.825,-134.735"/>
</g>
<!-- Node14 -->
<g id="node14" class="node"><title>Node14</title>
<g id="a_node14"><a xlink:href="_indexed_entry_server_8h.html" target="_top" xlink:title=" ">
<polygon fill="white" stroke="black" points="757,-0.5 757,-30.5 896,-30.5 896,-0.5 757,-0.5"/>
<text text-anchor="start" x="765" y="-18.5" font-family="Helvetica,sans-Serif" font-size="10.00">Cpl/Persistent/IndexedEntry</text>
<text text-anchor="middle" x="826.5" y="-7.5" font-family="Helvetica,sans-Serif" font-size="10.00">Server.h</text>
</a>
</g>
</g>
<!-- Node13&#45;&gt;Node14 -->
<g id="edge14" class="edge"><title>Node13&#45;&gt;Node14</title>
<path fill="none" stroke="midnightblue" d="M619.025,-65.1856C664.39,-54.5403 723.012,-40.7841 766.366,-30.6109"/>
<polygon fill="midnightblue" stroke="midnightblue" points="618.2,-61.784 609.264,-67.476 619.799,-68.5988 618.2,-61.784"/>
</g>
<!-- Node16&#45;&gt;Node9 -->
<g id="edge18" class="edge"><title>Node16&#45;&gt;Node9</title>
<path fill="none" stroke="midnightblue" d="M222.894,-251.723C204.698,-238.84 184.507,-219.178 196.5,-201 211.349,-178.494 238.522,-165.981 263.053,-159.043"/>
<polygon fill="midnightblue" stroke="midnightblue" points="221.253,-254.835 231.517,-257.466 225.134,-249.009 221.253,-254.835"/>
</g>
<!-- Node16&#45;&gt;Node11 -->
<g id="edge19" class="edge"><title>Node16&#45;&gt;Node11</title>
<path fill="none" stroke="midnightblue" d="M256.176,-247.983C261.098,-238.817 266.858,-228.092 270.8,-220.751"/>
<polygon fill="midnightblue" stroke="midnightblue" points="252.937,-246.617 251.289,-257.083 259.104,-249.929 252.937,-246.617"/>
</g>
<!-- Node16&#45;&gt;Node17 -->
<g id="edge20" class="edge"><title>Node16&#45;&gt;Node17</title>
<path fill="none" stroke="midnightblue" d="M209.668,-254.436C177.238,-244.255 130.763,-229.664 101.626,-220.516"/>
<polygon fill="midnightblue" stroke="midnightblue" points="208.657,-257.787 219.246,-257.444 210.754,-251.109 208.657,-257.787"/>
</g>
<!-- Node17&#45;&gt;Node9 -->
<g id="edge21" class="edge"><title>Node17&#45;&gt;Node9</title>
<path fill="none" stroke="midnightblue" d="M118.704,-199.041C165.297,-187.49 237.702,-169.539 280.178,-159.009"/>
<polygon fill="midnightblue" stroke="midnightblue" points="117.75,-195.672 108.886,-201.475 119.435,-202.466 117.75,-195.672"/>
</g>
<!-- Node18&#45;&gt;Node10 -->
<g id="edge24" class="edge"><title>Node18&#45;&gt;Node10</title>
<path fill="none" stroke="midnightblue" d="M675.5,-246.805C675.5,-237.91 675.5,-227.78 675.5,-220.751"/>
<polygon fill="midnightblue" stroke="midnightblue" points="672,-247.083 675.5,-257.083 679,-247.083 672,-247.083"/>
</g>
<!-- Node18&#45;&gt;Node13 -->
<g id="edge26" class="edge"><title>Node18&#45;&gt;Node13</title>
<path fill="none" stroke="midnightblue" d="M758.587,-260.83C817.257,-255.243 888.654,-243.853 907.5,-221 913.155,-214.142 912.714,-208.199 907.5,-201 841.694,-110.141 703.389,-88.2856 619.256,-83.7566"/>
<polygon fill="midnightblue" stroke="midnightblue" points="758.188,-257.351 748.546,-261.742 758.821,-264.323 758.188,-257.351"/>
</g>
<!-- Node18&#45;&gt;Node15 -->
<g id="edge27" class="edge"><title>Node18&#45;&gt;Node15</title>
<path fill="none" stroke="midnightblue" d="M640.454,-254.172C610.326,-244.004 567.604,-229.585 540.734,-220.516"/>
<polygon fill="midnightblue" stroke="midnightblue" points="639.553,-257.562 650.148,-257.444 641.792,-250.929 639.553,-257.562"/>
</g>
<!-- Node19 -->
<g id="node19" class="node"><title>Node19</title>
<g id="a_node19"><a xlink:href="_file_adapter_8h.html" target="_top" xlink:title=" ">
<polygon fill="white" stroke="black" points="760,-201.5 760,-220.5 899,-220.5 899,-201.5 760,-201.5"/>
<text text-anchor="middle" x="829.5" y="-208.5" font-family="Helvetica,sans-Serif" font-size="10.00">Cpl/Persistent/FileAdapter.h</text>
</a>
</g>
</g>
<!-- Node18&#45;&gt;Node19 -->
<g id="edge25" class="edge"><title>Node18&#45;&gt;Node19</title>
<path fill="none" stroke="midnightblue" d="M709.611,-254.039C738.587,-243.879 779.462,-229.546 805.212,-220.516"/>
<polygon fill="midnightblue" stroke="midnightblue" points="708.18,-250.832 699.902,-257.444 710.497,-257.437 708.18,-250.832"/>
</g>
<!-- Node21 -->
<g id="node21" class="node"><title>Node21</title>
<g id="a_node21"><a xlink:href="_model_point_common___8h.html" target="_top" xlink:title=" ">
<polygon fill="white" stroke="black" points="1298,-201.5 1298,-220.5 1451,-220.5 1451,-201.5 1298,-201.5"/>
<text text-anchor="middle" x="1374.5" y="-208.5" font-family="Helvetica,sans-Serif" font-size="10.00">Cpl/Dm/ModelPointCommon_.h</text>
</a>
</g>
</g>
<!-- Node20&#45;&gt;Node21 -->
<g id="edge29" class="edge"><title>Node20&#45;&gt;Node21</title>
<path fill="none" stroke="midnightblue" d="M1095.19,-255.974C1159.99,-245.771 1259.34,-230.13 1320.43,-220.512"/>
<polygon fill="midnightblue" stroke="midnightblue" points="1094.43,-252.55 1085.09,-257.563 1095.52,-259.465 1094.43,-252.55"/>
</g>
<!-- Node38 -->
<g id="node29" class="node"><title>Node38</title>
<g id="a_node29"><a xlink:href="_subscriber_composer_8h.html" target="_top" xlink:title=" ">
<polygon fill="white" stroke="black" points="956,-201.5 956,-220.5 1107,-220.5 1107,-201.5 956,-201.5"/>
<text text-anchor="middle" x="1031.5" y="-208.5" font-family="Helvetica,sans-Serif" font-size="10.00">Cpl/Dm/SubscriberComposer.h</text>
</a>
</g>
</g>
<!-- Node20&#45;&gt;Node38 -->
<g id="edge37" class="edge"><title>Node20&#45;&gt;Node38</title>
<path fill="none" stroke="midnightblue" d="M1031.5,-246.805C1031.5,-237.91 1031.5,-227.78 1031.5,-220.751"/>
<polygon fill="midnightblue" stroke="midnightblue" points="1028,-247.083 1031.5,-257.083 1035,-247.083 1028,-247.083"/>
</g>
<!-- Node22 -->
<g id="node22" class="node"><title>Node22</title>
<g id="a_node22"><a xlink:href="_array___8h.html" target="_top" xlink:title=" ">
<polygon fill="white" stroke="black" points="1262,-140 1262,-159 1367,-159 1367,-140 1262,-140"/>
<text text-anchor="middle" x="1314.5" y="-147" font-family="Helvetica,sans-Serif" font-size="10.00">Cpl/Dm/Mp/Array_.h</text>
</a>
</g>
</g>
<!-- Node21&#45;&gt;Node22 -->
<g id="edge30" class="edge"><title>Node21&#45;&gt;Node22</title>
<path fill="none" stroke="midnightblue" d="M1358.69,-194.325C1347.29,-183.02 1332.34,-168.193 1323.08,-159.009"/>
<polygon fill="midnightblue" stroke="midnightblue" points="1356.34,-196.919 1365.9,-201.475 1361.27,-191.948 1356.34,-196.919"/>
</g>
<!-- Node23 -->
<g id="node23" class="node"><title>Node23</title>
<g id="a_node23"><a xlink:href="_bool_8h.html" target="_top" xlink:title=" ">
<polygon fill="white" stroke="black" points="1385.5,-140 1385.5,-159 1481.5,-159 1481.5,-140 1385.5,-140"/>
<text text-anchor="middle" x="1433.5" y="-147" font-family="Helvetica,sans-Serif" font-size="10.00">Cpl/Dm/Mp/Bool.h</text>
</a>
</g>
</g>
<!-- Node21&#45;&gt;Node23 -->
<g id="edge31" class="edge"><title>Node21&#45;&gt;Node23</title>
<path fill="none" stroke="midnightblue" d="M1390.04,-194.325C1401.25,-183.02 1415.96,-168.193 1425.06,-159.009"/>
<polygon fill="midnightblue" stroke="midnightblue" points="1387.51,-191.91 1382.95,-201.475 1392.48,-196.839 1387.51,-191.91"/>
</g>
<!-- Node24 -->
<g id="node24" class="node"><title>Node24</title>
<g id="a_node24"><a xlink:href="_elapsed_precision_time_8h.html" target="_top" xlink:title=" ">
<polygon fill="white" stroke="black" points="1499.5,-134.5 1499.5,-164.5 1643.5,-164.5 1643.5,-134.5 1499.5,-134.5"/>
<text text-anchor="start" x="1507.5" y="-152.5" font-family="Helvetica,sans-Serif" font-size="10.00">Cpl/Dm/Mp/ElapsedPrecision</text>
<text text-anchor="middle" x="1571.5" y="-141.5" font-family="Helvetica,sans-Serif" font-size="10.00">Time.h</text>
</a>
</g>
</g>
<!-- Node21&#45;&gt;Node24 -->
<g id="edge32" class="edge"><title>Node21&#45;&gt;Node24</title>
<path fill="none" stroke="midnightblue" d="M1412.63,-198.483C1444.75,-188.782 1490.81,-174.871 1525.07,-164.523"/>
<polygon fill="midnightblue" stroke="midnightblue" points="1411.29,-195.233 1402.73,-201.475 1413.31,-201.934 1411.29,-195.233"/>
</g>
<!-- Node25 -->
<g id="node25" class="node"><title>Node25</title>
<g id="a_node25"><a xlink:href="_enum___8h.html" target="_top" xlink:title=" ">
<polygon fill="white" stroke="black" points="1662,-140 1662,-159 1769,-159 1769,-140 1662,-140"/>
<text text-anchor="middle" x="1715.5" y="-147" font-family="Helvetica,sans-Serif" font-size="10.00">Cpl/Dm/Mp/Enum_.h</text>
</a>
</g>
</g>
<!-- Node21&#45;&gt;Node25 -->
<g id="edge33" class="edge"><title>Node21&#45;&gt;Node25</title>
<path fill="none" stroke="midnightblue" d="M1444.58,-199.96C1500.93,-191.573 1582.04,-178.797 1652.5,-165 1661.53,-163.232 1671.24,-161.108 1680.27,-159.039"/>
<polygon fill="midnightblue" stroke="midnightblue" points="1443.73,-196.547 1434.35,-201.474 1444.76,-203.471 1443.73,-196.547"/>
</g>
<!-- Node26 -->
<g id="node26" class="node"><title>Node26</title>
<g id="a_node26"><a xlink:href="_numeric_8h.html" target="_top" xlink:title=" ">
<polygon fill="white" stroke="red" points="1787,-140 1787,-159 1900,-159 1900,-140 1787,-140"/>
<text text-anchor="middle" x="1843.5" y="-147" font-family="Helvetica,sans-Serif" font-size="10.00">Cpl/Dm/Mp/Numeric.h</text>
</a>
</g>
</g>
<!-- Node21&#45;&gt;Node26 -->
<g id="edge34" class="edge"><title>Node21&#45;&gt;Node26</title>
<path fill="none" stroke="midnightblue" d="M1461.35,-202.959C1543.21,-195.695 1669.15,-182.901 1777.5,-165 1787.45,-163.355 1798.17,-161.179 1808.01,-159.015"/>
<polygon fill="midnightblue" stroke="midnightblue" points="1460.99,-199.476 1451.34,-203.839 1461.61,-206.449 1460.99,-199.476"/>
</g>
<!-- Node36 -->
<g id="node27" class="node"><title>Node36</title>
<g id="a_node27"><a xlink:href="_ref_counter_8h.html" target="_top" xlink:title=" ">
<polygon fill="white" stroke="black" points="994,-140 994,-159 1119,-159 1119,-140 994,-140"/>
<text text-anchor="middle" x="1056.5" y="-147" font-family="Helvetica,sans-Serif" font-size="10.00">Cpl/Dm/Mp/RefCounter.h</text>
</a>
</g>
</g>
<!-- Node21&#45;&gt;Node36 -->
<g id="edge35" class="edge"><title>Node21&#45;&gt;Node36</title>
<path fill="none" stroke="midnightblue" d="M1315.7,-199.65C1265.61,-190.747 1191.76,-177.414 1127.5,-165 1117.74,-163.115 1107.24,-161.012 1097.39,-159.006"/>
<polygon fill="midnightblue" stroke="midnightblue" points="1315.24,-203.124 1325.7,-201.425 1316.47,-196.231 1315.24,-203.124"/>
</g>
<!-- Node37 -->
<g id="node28" class="node"><title>Node37</title>
<g id="a_node28"><a xlink:href="_dm_2_mp_2_string___8h.html" target="_top" xlink:title=" ">
<polygon fill="white" stroke="black" points="1137,-140 1137,-159 1244,-159 1244,-140 1137,-140"/>
<text text-anchor="middle" x="1190.5" y="-147" font-family="Helvetica,sans-Serif" font-size="10.00">Cpl/Dm/Mp/String_.h</text>
</a>
</g>
</g>
<!-- Node21&#45;&gt;Node37 -->
<g id="edge36" class="edge"><title>Node21&#45;&gt;Node37</title>
<path fill="none" stroke="midnightblue" d="M1338.57,-198.381C1302.8,-186.815 1248.76,-169.341 1216.81,-159.009"/>
<polygon fill="midnightblue" stroke="midnightblue" points="1337.55,-201.728 1348.14,-201.475 1339.7,-195.068 1337.55,-201.728"/>
</g>
<!-- Node38&#45;&gt;Node9 -->
<g id="edge38" class="edge"><title>Node38&#45;&gt;Node9</title>
<path fill="none" stroke="midnightblue" d="M945.685,-202.879C801.902,-190.947 515.167,-167.152 383.504,-156.226"/>
<polygon fill="midnightblue" stroke="midnightblue" points="945.531,-206.378 955.786,-203.717 946.109,-199.402 945.531,-206.378"/>
</g>
<!-- Node38&#45;&gt;Node14 -->
<g id="edge39" class="edge"><title>Node38&#45;&gt;Node14</title>
<path fill="none" stroke="midnightblue" d="M1015.05,-194.473C976.129,-157.735 878.861,-65.924 841.47,-30.6299"/>
<polygon fill="midnightblue" stroke="midnightblue" points="1012.75,-197.117 1022.43,-201.436 1017.56,-192.026 1012.75,-197.117"/>
</g>
<!-- Node39&#45;&gt;Node7 -->
<g id="edge41" class="edge"><title>Node39&#45;&gt;Node7</title>
<path fill="none" stroke="midnightblue" d="M362.527,-368.15C375.11,-356.806 391.776,-341.781 402.061,-332.509"/>
<polygon fill="midnightblue" stroke="midnightblue" points="360.04,-365.68 354.956,-374.975 364.727,-370.879 360.04,-365.68"/>
</g>
<!-- Node39&#45;&gt;Node40 -->
<g id="edge42" class="edge"><title>Node39&#45;&gt;Node40</title>
<path fill="none" stroke="midnightblue" d="M327.063,-368.473C313.101,-357.093 294.424,-341.869 282.94,-332.509"/>
<polygon fill="midnightblue" stroke="midnightblue" points="325.078,-371.37 335.041,-374.975 329.501,-365.944 325.078,-371.37"/>
</g>
<!-- Node41&#45;&gt;Node5 -->
<g id="edge47" class="edge"><title>Node41&#45;&gt;Node5</title>
<path fill="none" stroke="midnightblue" d="M540.272,-501.402C485.601,-489.867 399.26,-471.65 348.829,-461.009"/>
<polygon fill="midnightblue" stroke="midnightblue" points="539.589,-504.835 550.096,-503.475 541.034,-497.986 539.589,-504.835"/>
</g>
<!-- Node42 -->
<g id="node33" class="node"><title>Node42</title>
<g id="a_node33"><a xlink:href="_bare_metal_2_thread_8h.html" target="_top" xlink:title=" ">
<polygon fill="white" stroke="black" points="834,-436.5 834,-466.5 949,-466.5 949,-436.5 834,-436.5"/>
<text text-anchor="start" x="842" y="-454.5" font-family="Helvetica,sans-Serif" font-size="10.00">Cpl/System/BareMetal</text>
<text text-anchor="middle" x="891.5" y="-443.5" font-family="Helvetica,sans-Serif" font-size="10.00">/Thread.h</text>
</a>
</g>
</g>
<!-- Node41&#45;&gt;Node42 -->
<g id="edge45" class="edge"><title>Node41&#45;&gt;Node42</title>
<path fill="none" stroke="midnightblue" d="M646.81,-501.549C694.254,-492.654 763.893,-479.384 824.5,-467 827.532,-466.381 830.639,-465.737 833.774,-465.082"/>
<polygon fill="midnightblue" stroke="midnightblue" points="645.923,-498.155 636.738,-503.435 647.211,-505.035 645.923,-498.155"/>
</g>
<!-- Node43 -->
<g id="node34" class="node"><title>Node43</title>
<g id="a_node34"><a xlink:href="_cpp11_2_thread_8h.html" target="_top" xlink:title=" ">
<polygon fill="white" stroke="black" points="967.5,-442 967.5,-461 1107.5,-461 1107.5,-442 967.5,-442"/>
<text text-anchor="middle" x="1037.5" y="-449" font-family="Helvetica,sans-Serif" font-size="10.00">Cpl/System/Cpp11/Thread.h</text>
</a>
</g>
</g>
<!-- Node41&#45;&gt;Node43 -->
<g id="edge46" class="edge"><title>Node41&#45;&gt;Node43</title>
<path fill="none" stroke="midnightblue" d="M664.815,-504.152C739.074,-496.012 856.426,-482.344 957.5,-467 969.083,-465.242 981.564,-463.099 993.144,-461.007"/>
<polygon fill="midnightblue" stroke="midnightblue" points="664.191,-500.699 654.629,-505.263 664.95,-507.658 664.191,-500.699"/>
</g>
<!-- Node44 -->
<g id="node35" class="node"><title>Node44</title>
<g id="a_node35"><a xlink:href="_posix_2_thread_8h.html" target="_top" xlink:title=" ">
<polygon fill="white" stroke="black" points="522,-442 522,-461 659,-461 659,-442 522,-442"/>
<text text-anchor="middle" x="590.5" y="-449" font-family="Helvetica,sans-Serif" font-size="10.00">Cpl/System/Posix/Thread.h</text>
</a>
</g>
</g>
<!-- Node41&#45;&gt;Node44 -->
<g id="edge48" class="edge"><title>Node41&#45;&gt;Node44</title>
<path fill="none" stroke="midnightblue" d="M590.5,-493.317C590.5,-482.496 590.5,-469.398 590.5,-461.009"/>
<polygon fill="midnightblue" stroke="midnightblue" points="587,-493.475 590.5,-503.475 594,-493.475 587,-493.475"/>
</g>
<!-- Node45 -->
<g id="node36" class="node"><title>Node45</title>
<g id="a_node36"><a xlink:href="_sim_tick_8h.html" target="_top" xlink:title=" ">
<polygon fill="white" stroke="black" points="389,-442 389,-461 504,-461 504,-442 389,-442"/>
<text text-anchor="middle" x="446.5" y="-449" font-family="Helvetica,sans-Serif" font-size="10.00">Cpl/System/SimTick.h</text>
</a>
</g>
</g>
<!-- Node41&#45;&gt;Node45 -->
<g id="edge49" class="edge"><title>Node41&#45;&gt;Node45</title>
<path fill="none" stroke="midnightblue" d="M560.566,-499.631C532.59,-488.072 491.563,-471.12 467.093,-461.009"/>
<polygon fill="midnightblue" stroke="midnightblue" points="559.29,-502.891 569.868,-503.475 561.963,-496.422 559.29,-502.891"/>
</g>
<!-- Node46 -->
<g id="node37" class="node"><title>Node46</title>
<g id="a_node37"><a xlink:href="_win32_2_thread_8h.html" target="_top" xlink:title=" ">
<polygon fill="white" stroke="black" points="677,-442 677,-461 816,-461 816,-442 677,-442"/>
<text text-anchor="middle" x="746.5" y="-449" font-family="Helvetica,sans-Serif" font-size="10.00">Cpl/System/Win32/Thread.h</text>
</a>
</g>
</g>
<!-- Node41&#45;&gt;Node46 -->
<g id="edge50" class="edge"><title>Node41&#45;&gt;Node46</title>
<path fill="none" stroke="midnightblue" d="M622.533,-499.782C652.848,-488.22 697.566,-471.164 724.19,-461.009"/>
<polygon fill="midnightblue" stroke="midnightblue" points="620.947,-496.641 612.851,-503.475 623.442,-503.182 620.947,-496.641"/>
</g>
<!-- Node47&#45;&gt;Node6 -->
<g id="edge52" class="edge"><title>Node47&#45;&gt;Node6</title>
<path fill="none" stroke="midnightblue" d="M1171.67,-494.163C1160.73,-476.2 1141.28,-449.298 1116.5,-436 1055.55,-403.299 854.685,-391.263 757.334,-387.274"/>
<polygon fill="midnightblue" stroke="midnightblue" points="1168.8,-496.193 1176.85,-503.08 1174.85,-492.675 1168.8,-496.193"/>
</g>
<!-- Node47&#45;&gt;Node42 -->
<g id="edge56" class="edge"><title>Node47&#45;&gt;Node42</title>
<path fill="none" stroke="midnightblue" d="M1128.42,-501.506C1083.21,-492.517 1016.55,-479.137 958.5,-467 955.471,-466.367 952.366,-465.712 949.233,-465.048"/>
<polygon fill="midnightblue" stroke="midnightblue" points="1127.81,-504.953 1138.3,-503.468 1129.17,-498.087 1127.81,-504.953"/>
</g>
<!-- Node47&#45;&gt;Node43 -->
<g id="edge57" class="edge"><title>Node47&#45;&gt;Node43</title>
<path fill="none" stroke="midnightblue" d="M1151.57,-499.631C1123.59,-488.072 1082.56,-471.12 1058.09,-461.009"/>
<polygon fill="midnightblue" stroke="midnightblue" points="1150.29,-502.891 1160.87,-503.475 1152.96,-496.422 1150.29,-502.891"/>
</g>
<!-- Node47&#45;&gt;Node44 -->
<g id="edge59" class="edge"><title>Node47&#45;&gt;Node44</title>
<path fill="none" stroke="midnightblue" d="M1116.9,-508.399C1019.26,-502.493 828.417,-489.14 667.5,-467 655.776,-465.387 643.127,-463.196 631.537,-461.005"/>
<polygon fill="midnightblue" stroke="midnightblue" points="1116.72,-511.894 1126.91,-508.998 1117.13,-504.907 1116.72,-511.894"/>
</g>
<!-- Node47&#45;&gt;Node46 -->
<g id="edge63" class="edge"><title>Node47&#45;&gt;Node46</title>
<path fill="none" stroke="midnightblue" d="M1116.71,-504.985C1045.05,-496.959 926.278,-482.861 824.5,-467 813.204,-465.24 801.034,-463.097 789.743,-461.004"/>
<polygon fill="midnightblue" stroke="midnightblue" points="1116.6,-508.495 1126.93,-506.124 1117.38,-501.538 1116.6,-508.495"/>
</g>
<!-- Node48 -->
<g id="node39" class="node"><title>Node48</title>
<g id="a_node39"><a xlink:href="_listener___8h.html" target="_top" xlink:title=" ">
<polygon fill="white" stroke="black" points="1164,-442 1164,-461 1291,-461 1291,-442 1164,-442"/>
<text text-anchor="middle" x="1227.5" y="-449" font-family="Helvetica,sans-Serif" font-size="10.00">Cpl/Io/Socket/Listener_.h</text>
</a>
</g>
</g>
<!-- Node47&#45;&gt;Node48 -->
<g id="edge53" class="edge"><title>Node47&#45;&gt;Node48</title>
<path fill="none" stroke="midnightblue" d="M1194.38,-495.338C1203.02,-484.169 1214.03,-469.928 1220.92,-461.009"/>
<polygon fill="midnightblue" stroke="midnightblue" points="1191.44,-493.423 1188.09,-503.475 1196.98,-497.704 1191.44,-493.423"/>
</g>
<!-- Node51 -->
<g id="node42" class="node"><title>Node51</title>
<g id="a_node42"><a xlink:href="_free_r_t_o_s_2_thread_8h.html" target="_top" xlink:title=" ">
<polygon fill="white" stroke="black" points="1817,-436.5 1817,-466.5 1934,-466.5 1934,-436.5 1817,-436.5"/>
<text text-anchor="start" x="1825" y="-454.5" font-family="Helvetica,sans-Serif" font-size="10.00">Cpl/System/FreeRTOS</text>
<text text-anchor="middle" x="1875.5" y="-443.5" font-family="Helvetica,sans-Serif" font-size="10.00">/Thread.h</text>
</a>
</g>
</g>
<!-- Node47&#45;&gt;Node51 -->
<g id="edge58" class="edge"><title>Node47&#45;&gt;Node51</title>
<path fill="none" stroke="midnightblue" d="M1246.5,-510.288C1360.57,-506.624 1604.02,-495.866 1807.5,-467 1810.61,-466.559 1813.78,-466.058 1816.99,-465.514"/>
<polygon fill="midnightblue" stroke="midnightblue" points="1246.08,-506.799 1236.2,-510.61 1246.3,-513.796 1246.08,-506.799"/>
</g>
<!-- Node52 -->
<g id="node43" class="node"><title>Node52</title>
<g id="a_node43"><a xlink:href="_system_2_trace_8h.html" target="_top" xlink:title=" ">
<polygon fill="white" stroke="black" points="1545.5,-442 1545.5,-461 1649.5,-461 1649.5,-442 1545.5,-442"/>
<text text-anchor="middle" x="1597.5" y="-449" font-family="Helvetica,sans-Serif" font-size="10.00">Cpl/System/Trace.h</text>
</a>
</g>
</g>
<!-- Node47&#45;&gt;Node52 -->
<g id="edge60" class="edge"><title>Node47&#45;&gt;Node52</title>
<path fill="none" stroke="midnightblue" d="M1246.2,-505.803C1317.41,-498.511 1435.11,-485.071 1535.5,-467 1544.75,-465.335 1554.69,-463.178 1563.84,-461.038"/>
<polygon fill="midnightblue" stroke="midnightblue" points="1245.64,-502.342 1236.04,-506.834 1246.35,-509.306 1245.64,-502.342"/>
</g>
<!-- Node55 -->
<g id="node46" class="node"><title>Node55</title>
<g id="a_node46"><a xlink:href="_threads_8h.html" target="_top" xlink:title=" ">
<polygon fill="white" stroke="black" points="1668,-442 1668,-461 1799,-461 1799,-442 1668,-442"/>
<text text-anchor="middle" x="1733.5" y="-449" font-family="Helvetica,sans-Serif" font-size="10.00">Cpl/TShell/Cmd/Threads.h</text>
</a>
</g>
</g>
<!-- Node47&#45;&gt;Node55 -->
<g id="edge64" class="edge"><title>Node47&#45;&gt;Node55</title>
<path fill="none" stroke="midnightblue" d="M1246.06,-507.903C1337.97,-501.619 1511.68,-488.067 1658.5,-467 1669.79,-465.38 1681.96,-463.212 1693.14,-461.047"/>
<polygon fill="midnightblue" stroke="midnightblue" points="1245.81,-504.412 1236.07,-508.58 1246.28,-511.396 1245.81,-504.412"/>
</g>
<!-- Node58 -->
<g id="node49" class="node"><title>Node58</title>
<g id="a_node49"><a xlink:href="_socket_8h.html" target="_top" xlink:title=" ">
<polygon fill="white" stroke="black" points="1309.5,-442 1309.5,-461 1413.5,-461 1413.5,-442 1309.5,-442"/>
<text text-anchor="middle" x="1361.5" y="-449" font-family="Helvetica,sans-Serif" font-size="10.00">Cpl/TShell/Socket.h</text>
</a>
</g>
</g>
<!-- Node47&#45;&gt;Node58 -->
<g id="edge67" class="edge"><title>Node47&#45;&gt;Node58</title>
<path fill="none" stroke="midnightblue" d="M1217.1,-500.232C1252.09,-488.666 1304.64,-471.297 1335.76,-461.009"/>
<polygon fill="midnightblue" stroke="midnightblue" points="1215.69,-497.013 1207.29,-503.475 1217.88,-503.66 1215.69,-497.013"/>
</g>
<!-- Node59 -->
<g id="node50" class="node"><title>Node59</title>
<g id="a_node50"><a xlink:href="_stdio_8h.html" target="_top" xlink:title=" ">
<polygon fill="white" stroke="black" points="1432,-442 1432,-461 1527,-461 1527,-442 1432,-442"/>
<text text-anchor="middle" x="1479.5" y="-449" font-family="Helvetica,sans-Serif" font-size="10.00">Cpl/TShell/Stdio.h</text>
</a>
</g>
</g>
<!-- Node47&#45;&gt;Node59 -->
<g id="edge68" class="edge"><title>Node47&#45;&gt;Node59</title>
<path fill="none" stroke="midnightblue" d="M1242.56,-501.721C1291.41,-493.227 1361.57,-480.423 1422.5,-467 1430.58,-465.22 1439.25,-463.115 1447.33,-461.069"/>
<polygon fill="midnightblue" stroke="midnightblue" points="1241.73,-498.313 1232.47,-503.466 1242.92,-505.21 1241.73,-498.313"/>
</g>
<!-- Node49 -->
<g id="node40" class="node"><title>Node49</title>
<g id="a_node40"><a xlink:href="_posix_2_listener_8h.html" target="_top" xlink:title=" ">
<polygon fill="white" stroke="black" points="1113.5,-369.5 1113.5,-399.5 1217.5,-399.5 1217.5,-369.5 1113.5,-369.5"/>
<text text-anchor="start" x="1121.5" y="-387.5" font-family="Helvetica,sans-Serif" font-size="10.00">Cpl/Io/Socket/Posix</text>
<text text-anchor="middle" x="1165.5" y="-376.5" font-family="Helvetica,sans-Serif" font-size="10.00">/Listener.h</text>
</a>
</g>
</g>
<!-- Node48&#45;&gt;Node49 -->
<g id="edge54" class="edge"><title>Node48&#45;&gt;Node49</title>
<path fill="none" stroke="midnightblue" d="M1212.05,-434.304C1201.87,-423.635 1188.68,-409.802 1178.94,-399.589"/>
<polygon fill="midnightblue" stroke="midnightblue" points="1209.7,-436.913 1219.14,-441.734 1214.77,-432.082 1209.7,-436.913"/>
</g>
<!-- Node50 -->
<g id="node41" class="node"><title>Node50</title>
<g id="a_node41"><a xlink:href="_win32_2_listener_8h.html" target="_top" xlink:title=" ">
<polygon fill="white" stroke="black" points="1235.5,-369.5 1235.5,-399.5 1341.5,-399.5 1341.5,-369.5 1235.5,-369.5"/>
<text text-anchor="start" x="1243.5" y="-387.5" font-family="Helvetica,sans-Serif" font-size="10.00">Cpl/Io/Socket/Win32</text>
<text text-anchor="middle" x="1288.5" y="-376.5" font-family="Helvetica,sans-Serif" font-size="10.00">/Listener.h</text>
</a>
</g>
</g>
<!-- Node48&#45;&gt;Node50 -->
<g id="edge55" class="edge"><title>Node48&#45;&gt;Node50</title>
<path fill="none" stroke="midnightblue" d="M1242.7,-434.304C1252.71,-423.635 1265.69,-409.802 1275.28,-399.589"/>
<polygon fill="midnightblue" stroke="midnightblue" points="1240.02,-432.047 1235.73,-441.734 1245.12,-436.837 1240.02,-432.047"/>
</g>
<!-- Node53 -->
<g id="node44" class="node"><title>Node53</title>
<g id="a_node44"><a xlink:href="_system_2_private___8h.html" target="_top" xlink:title="This file contains a collection of classes, interfaces, etc.">
<polygon fill="white" stroke="black" points="1540,-375 1540,-394 1655,-394 1655,-375 1540,-375"/>
<text text-anchor="middle" x="1597.5" y="-382" font-family="Helvetica,sans-Serif" font-size="10.00">Cpl/System/Private_.h</text>
</a>
</g>
</g>
<!-- Node52&#45;&gt;Node53 -->
<g id="edge61" class="edge"><title>Node52&#45;&gt;Node53</title>
<path fill="none" stroke="midnightblue" d="M1597.5,-431.537C1597.5,-419.17 1597.5,-403.62 1597.5,-394.127"/>
<polygon fill="midnightblue" stroke="midnightblue" points="1594,-431.734 1597.5,-441.734 1601,-431.734 1594,-431.734"/>
</g>
<!-- Node54 -->
<g id="node45" class="node"><title>Node54</title>
<g id="a_node45"><a xlink:href="_maker_8h.html" target="_top" xlink:title=" ">
<polygon fill="white" stroke="black" points="1547.5,-313.5 1547.5,-332.5 1647.5,-332.5 1647.5,-313.5 1547.5,-313.5"/>
<text text-anchor="middle" x="1597.5" y="-320.5" font-family="Helvetica,sans-Serif" font-size="10.00">Cpl/TShell/Maker.h</text>
</a>
</g>
</g>
<!-- Node53&#45;&gt;Node54 -->
<g id="edge62" class="edge"><title>Node53&#45;&gt;Node54</title>
<path fill="none" stroke="midnightblue" d="M1597.5,-364.817C1597.5,-353.996 1597.5,-340.898 1597.5,-332.509"/>
<polygon fill="midnightblue" stroke="midnightblue" points="1594,-364.975 1597.5,-374.975 1601,-364.975 1594,-364.975"/>
</g>
<!-- Node56 -->
<g id="node47" class="node"><title>Node56</title>
<g id="a_node47"><a xlink:href="_free_r_t_o_s_2_threads_8h.html" target="_top" xlink:title=" ">
<polygon fill="white" stroke="black" points="1807.5,-369.5 1807.5,-399.5 1941.5,-399.5 1941.5,-369.5 1807.5,-369.5"/>
<text text-anchor="start" x="1815.5" y="-387.5" font-family="Helvetica,sans-Serif" font-size="10.00">Cpl/TShell/Cmd/FreeRTOS</text>
<text text-anchor="middle" x="1874.5" y="-376.5" font-family="Helvetica,sans-Serif" font-size="10.00">/Threads.h</text>
</a>
</g>
</g>
<!-- Node55&#45;&gt;Node56 -->
<g id="edge65" class="edge"><title>Node55&#45;&gt;Node56</title>
<path fill="none" stroke="midnightblue" d="M1761.44,-437.621C1785.29,-426.625 1819.53,-410.841 1844.07,-399.528"/>
<polygon fill="midnightblue" stroke="midnightblue" points="1759.84,-434.503 1752.22,-441.869 1762.77,-440.86 1759.84,-434.503"/>
</g>
<!-- Node57 -->
<g id="node48" class="node"><title>Node57</title>
<g id="a_node48"><a xlink:href="_win32_2_threads_8h.html" target="_top" xlink:title=" ">
<polygon fill="white" stroke="black" points="1674,-369.5 1674,-399.5 1789,-399.5 1789,-369.5 1674,-369.5"/>
<text text-anchor="start" x="1682" y="-387.5" font-family="Helvetica,sans-Serif" font-size="10.00">Cpl/TShell/Cmd/Win32</text>
<text text-anchor="middle" x="1731.5" y="-376.5" font-family="Helvetica,sans-Serif" font-size="10.00">/Threads.h</text>
</a>
</g>
</g>
<!-- Node55&#45;&gt;Node57 -->
<g id="edge66" class="edge"><title>Node55&#45;&gt;Node57</title>
<path fill="none" stroke="midnightblue" d="M1732.91,-431.411C1732.6,-421.222 1732.22,-408.901 1731.93,-399.589"/>
<polygon fill="midnightblue" stroke="midnightblue" points="1729.42,-431.846 1733.23,-441.734 1736.42,-431.631 1729.42,-431.846"/>
</g>
</g>
</svg>
