<?xml version="1.0" encoding="UTF-8" standalone="no"?>
<!DOCTYPE svg PUBLIC "-//W3C//DTD SVG 1.1//EN"
 "http://www.w3.org/Graphics/SVG/1.1/DTD/svg11.dtd">
<!-- Generated by graphviz version 10.0.1 (20240210.2158)
 -->
<!-- Title: Cpl/System/SimTick.h Pages: 1 -->
<svg width="344pt" height="196pt"
 viewBox="0.00 0.00 343.50 196.00" xmlns="http://www.w3.org/2000/svg" xmlns:xlink="http://www.w3.org/1999/xlink">
<g id="graph0" class="graph" transform="scale(1 1) rotate(0) translate(4 192)">
<title>Cpl/System/SimTick.h</title>
<!-- Node1 -->
<g id="Node000001" class="node">
<title>Node1</title>
<g id="a_Node000001"><a xlink:title=" ">
<polygon fill="#999999" stroke="#666666" points="229,-188 115.5,-188 115.5,-168 229,-168 229,-188"/>
<text text-anchor="middle" x="172.25" y="-174.5" font-family="Helvetica,sans-Serif" font-size="10.00">Cpl/System/SimTick.h</text>
</a>
</g>
</g>
<!-- Node2 -->
<g id="Node000002" class="node">
<title>Node2</title>
<g id="a_Node000002"><a xlink:title=" ">
<polygon fill="#e0e0e0" stroke="#999999" points="50.5,-132 0,-132 0,-112 50.5,-112 50.5,-132"/>
<text text-anchor="middle" x="25.25" y="-118.5" font-family="Helvetica,sans-Serif" font-size="10.00">stddef.h</text>
</a>
</g>
</g>
<!-- Node1&#45;&gt;Node2 -->
<g id="edge1_Node000001_Node000002" class="edge">
<title>Node1&#45;&gt;Node2</title>
<g id="a_edge1_Node000001_Node000002"><a xlink:title=" ">
<path fill="none" stroke="#63b8ff" d="M146.64,-167.59C123.04,-158.92 87.75,-145.96 61.3,-136.24"/>
<polygon fill="#63b8ff" stroke="#63b8ff" points="62.58,-132.98 51.98,-132.82 60.16,-139.55 62.58,-132.98"/>
</a>
</g>
</g>
<!-- Node3 -->
<g id="Node000003" class="node">
<title>Node3</title>
<g id="a_Node000003"><a xlink:title=" ">
<polygon fill="#e0e0e0" stroke="#999999" points="152,-132 68.5,-132 68.5,-112 152,-112 152,-132"/>
<text text-anchor="middle" x="110.25" y="-118.5" font-family="Helvetica,sans-Serif" font-size="10.00">colony_config.h</text>
</a>
</g>
</g>
<!-- Node1&#45;&gt;Node3 -->
<g id="edge2_Node000001_Node000003" class="edge">
<title>Node1&#45;&gt;Node3</title>
<g id="a_edge2_Node000001_Node000003"><a xlink:title=" ">
<path fill="none" stroke="#63b8ff" d="M161.45,-167.59C152.65,-159.93 140,-148.91 129.48,-139.75"/>
<polygon fill="#63b8ff" stroke="#63b8ff" points="131.91,-137.22 122.07,-133.29 127.31,-142.5 131.91,-137.22"/>
</a>
</g>
</g>
<!-- Node4 -->
<g id="Node000004" class="node">
<title>Node4</title>
<g id="a_Node000004"><a xlink:href="_semaphore_8h.html" target="_top" xlink:title=" ">
<polygon fill="white" stroke="#666666" points="298.12,-132 170.38,-132 170.38,-112 298.12,-112 298.12,-132"/>
<text text-anchor="middle" x="234.25" y="-118.5" font-family="Helvetica,sans-Serif" font-size="10.00">Cpl/System/Semaphore.h</text>
</a>
</g>
</g>
<!-- Node1&#45;&gt;Node4 -->
<g id="edge3_Node000001_Node000004" class="edge">
<title>Node1&#45;&gt;Node4</title>
<g id="a_edge3_Node000001_Node000004"><a xlink:title=" ">
<path fill="none" stroke="#63b8ff" d="M183.05,-167.59C191.85,-159.93 204.5,-148.91 215.02,-139.75"/>
<polygon fill="#63b8ff" stroke="#63b8ff" points="217.19,-142.5 222.43,-133.29 212.59,-137.22 217.19,-142.5"/>
</a>
</g>
</g>
<!-- Node7 -->
<g id="Node000007" class="node">
<title>Node7</title>
<g id="a_Node000007"><a xlink:href="_item_8h.html" target="_top" xlink:title=" ">
<polygon fill="white" stroke="#666666" points="335.5,-20 231,-20 231,0 335.5,0 335.5,-20"/>
<text text-anchor="middle" x="283.25" y="-6.5" font-family="Helvetica,sans-Serif" font-size="10.00">Cpl/Container/Item.h</text>
</a>
</g>
</g>
<!-- Node1&#45;&gt;Node7 -->
<g id="edge7_Node000001_Node000007" class="edge">
<title>Node1&#45;&gt;Node7</title>
<g id="a_edge7_Node000001_Node000007"><a xlink:title=" ">
<path fill="none" stroke="#63b8ff" d="M229.32,-173.14C257.62,-168 289.48,-156.65 307.25,-132 329.38,-101.29 309.51,-55.31 295.09,-29.78"/>
<polygon fill="#63b8ff" stroke="#63b8ff" points="298.28,-28.3 290.15,-21.5 292.27,-31.88 298.28,-28.3"/>
</a>
</g>
</g>
<!-- Node5 -->
<g id="Node000005" class="node">
<title>Node5</title>
<g id="a_Node000005"><a xlink:title=" ">
<polygon fill="#e0e0e0" stroke="#999999" points="164.62,-76 87.88,-76 87.88,-56 164.62,-56 164.62,-76"/>
<text text-anchor="middle" x="126.25" y="-62.5" font-family="Helvetica,sans-Serif" font-size="10.00">colony_map.h</text>
</a>
</g>
</g>
<!-- Node4&#45;&gt;Node5 -->
<g id="edge4_Node000004_Node000005" class="edge">
<title>Node4&#45;&gt;Node5</title>
<g id="a_edge4_Node000004_Node000005"><a xlink:title=" ">
<path fill="none" stroke="#63b8ff" d="M215.44,-111.59C198.89,-103.32 174.54,-91.14 155.46,-81.6"/>
<polygon fill="#63b8ff" stroke="#63b8ff" points="157.07,-78.5 146.56,-77.16 153.94,-84.76 157.07,-78.5"/>
</a>
</g>
</g>
<!-- Node6 -->
<g id="Node000006" class="node">
<title>Node6</title>
<g id="a_Node000006"><a xlink:href="_signable_8h.html" target="_top" xlink:title=" ">
<polygon fill="white" stroke="#666666" points="298.12,-76 182.38,-76 182.38,-56 298.12,-56 298.12,-76"/>
<text text-anchor="middle" x="240.25" y="-62.5" font-family="Helvetica,sans-Serif" font-size="10.00">Cpl/System/Signable.h</text>
</a>
</g>
</g>
<!-- Node4&#45;&gt;Node6 -->
<g id="edge5_Node000004_Node000006" class="edge">
<title>Node4&#45;&gt;Node6</title>
<g id="a_edge5_Node000004_Node000006"><a xlink:title=" ">
<path fill="none" stroke="#63b8ff" d="M235.3,-111.59C236.03,-105.01 237.03,-95.96 237.95,-87.73"/>
<polygon fill="#63b8ff" stroke="#63b8ff" points="241.42,-88.13 239.05,-77.8 234.47,-87.35 241.42,-88.13"/>
</a>
</g>
</g>
<!-- Node6&#45;&gt;Node7 -->
<g id="edge6_Node000006_Node000007" class="edge">
<title>Node6&#45;&gt;Node7</title>
<g id="a_edge6_Node000006_Node000007"><a xlink:title=" ">
<path fill="none" stroke="#63b8ff" d="M247.74,-55.59C253.54,-48.32 261.74,-38.02 268.8,-29.15"/>
<polygon fill="#63b8ff" stroke="#63b8ff" points="271.41,-31.49 274.9,-21.48 265.94,-27.12 271.41,-31.49"/>
</a>
</g>
</g>
</g>
</svg>
