<?xml version="1.0" encoding="UTF-8" standalone="no"?>
<!DOCTYPE svg PUBLIC "-//W3C//DTD SVG 1.1//EN"
 "http://www.w3.org/Graphics/SVG/1.1/DTD/svg11.dtd">
<!-- Generated by graphviz version 2.38.0 (20140413.2041)
 -->
<!-- Title: Cpl/TShell/Socket.h Pages: 1 -->
<svg width="798pt" height="420pt"
 viewBox="0.00 0.00 798.39 420.00" xmlns="http://www.w3.org/2000/svg" xmlns:xlink="http://www.w3.org/1999/xlink">
<g id="graph0" class="graph" transform="scale(1 1) rotate(0) translate(4 416)">
<title>Cpl/TShell/Socket.h</title>
<polygon fill="white" stroke="none" points="-4,4 -4,-416 794.392,-416 794.392,4 -4,4"/>
<!-- Node1 -->
<g id="node1" class="node"><title>Node1</title>
<g id="a_node1"><a xlink:title=" ">
<polygon fill="#bfbfbf" stroke="black" points="348.392,-392.5 348.392,-411.5 452.392,-411.5 452.392,-392.5 348.392,-392.5"/>
<text text-anchor="middle" x="400.392" y="-399.5" font-family="Helvetica,sans-Serif" font-size="10.00">Cpl/TShell/Socket.h</text>
</a>
</g>
</g>
<!-- Node2 -->
<g id="node2" class="node"><title>Node2</title>
<g id="a_node2"><a xlink:href="_processor_api_8h.html" target="_top" xlink:title=" ">
<polygon fill="white" stroke="black" points="90.8916,-280.5 90.8916,-299.5 221.892,-299.5 221.892,-280.5 90.8916,-280.5"/>
<text text-anchor="middle" x="156.392" y="-287.5" font-family="Helvetica,sans-Serif" font-size="10.00">Cpl/TShell/ProcessorApi.h</text>
</a>
</g>
</g>
<!-- Node1&#45;&gt;Node2 -->
<g id="edge1" class="edge"><title>Node1&#45;&gt;Node2</title>
<path fill="none" stroke="midnightblue" d="M363.557,-392.463C333.83,-384.877 291.352,-372.443 256.392,-356 226.494,-341.938 195.017,-320.154 175.544,-305.736"/>
<polygon fill="midnightblue" stroke="midnightblue" points="177.588,-302.894 167.491,-299.685 173.383,-308.49 177.588,-302.894"/>
</g>
<!-- Node17 -->
<g id="node17" class="node"><title>Node17</title>
<g id="a_node17"><a xlink:href="_thread_8h.html" target="_top" xlink:title=" ">
<polygon fill="white" stroke="black" points="265.892,-336.5 265.892,-355.5 374.892,-355.5 374.892,-336.5 265.892,-336.5"/>
<text text-anchor="middle" x="320.392" y="-343.5" font-family="Helvetica,sans-Serif" font-size="10.00">Cpl/System/Thread.h</text>
</a>
</g>
</g>
<!-- Node1&#45;&gt;Node17 -->
<g id="edge22" class="edge"><title>Node1&#45;&gt;Node17</title>
<path fill="none" stroke="midnightblue" d="M387.538,-392.324C375.175,-383.979 356.262,-371.212 341.654,-361.352"/>
<polygon fill="midnightblue" stroke="midnightblue" points="343.46,-358.348 333.213,-355.655 339.543,-364.15 343.46,-358.348"/>
</g>
<!-- Node22 -->
<g id="node22" class="node"><title>Node22</title>
<g id="a_node22"><a xlink:href="_listener_8h.html" target="_top" xlink:title=" ">
<polygon fill="white" stroke="black" points="420.392,-336.5 420.392,-355.5 542.392,-355.5 542.392,-336.5 420.392,-336.5"/>
<text text-anchor="middle" x="481.392" y="-343.5" font-family="Helvetica,sans-Serif" font-size="10.00">Cpl/Io/Socket/Listener.h</text>
</a>
</g>
</g>
<!-- Node1&#45;&gt;Node22 -->
<g id="edge29" class="edge"><title>Node1&#45;&gt;Node22</title>
<path fill="none" stroke="midnightblue" d="M413.406,-392.324C425.923,-383.979 445.073,-371.212 459.863,-361.352"/>
<polygon fill="midnightblue" stroke="midnightblue" points="462.031,-364.114 468.41,-355.655 458.148,-358.289 462.031,-364.114"/>
</g>
<!-- Node24 -->
<g id="node24" class="node"><title>Node24</title>
<g id="a_node24"><a xlink:href="_socket_2_input_output_8h.html" target="_top" xlink:title=" ">
<polygon fill="white" stroke="black" points="560.392,-336.5 560.392,-355.5 698.392,-355.5 698.392,-336.5 560.392,-336.5"/>
<text text-anchor="middle" x="629.392" y="-343.5" font-family="Helvetica,sans-Serif" font-size="10.00">Cpl/Io/Socket/InputOutput.h</text>
</a>
</g>
</g>
<!-- Node1&#45;&gt;Node24 -->
<g id="edge32" class="edge"><title>Node1&#45;&gt;Node24</title>
<path fill="none" stroke="midnightblue" d="M436.677,-392.444C476.375,-383.083 540.098,-368.056 583.303,-357.868"/>
<polygon fill="midnightblue" stroke="midnightblue" points="584.346,-361.218 593.276,-355.516 582.739,-354.405 584.346,-361.218"/>
</g>
<!-- Node3 -->
<g id="node3" class="node"><title>Node3</title>
<g id="a_node3"><a xlink:href="_input_8h.html" target="_top" xlink:title=" ">
<polygon fill="white" stroke="black" points="214.892,-224.5 214.892,-243.5 289.892,-243.5 289.892,-224.5 214.892,-224.5"/>
<text text-anchor="middle" x="252.392" y="-231.5" font-family="Helvetica,sans-Serif" font-size="10.00">Cpl/Io/Input.h</text>
</a>
</g>
</g>
<!-- Node2&#45;&gt;Node3 -->
<g id="edge2" class="edge"><title>Node2&#45;&gt;Node3</title>
<path fill="none" stroke="midnightblue" d="M171.816,-280.324C186.931,-271.822 210.207,-258.729 227.863,-248.797"/>
<polygon fill="midnightblue" stroke="midnightblue" points="230.006,-251.608 237.006,-243.655 226.574,-245.507 230.006,-251.608"/>
</g>
<!-- Node16 -->
<g id="node16" class="node"><title>Node16</title>
<g id="a_node16"><a xlink:href="_output_8h.html" target="_top" xlink:title=" ">
<polygon fill="white" stroke="black" points="310.892,-224.5 310.892,-243.5 393.892,-243.5 393.892,-224.5 310.892,-224.5"/>
<text text-anchor="middle" x="352.392" y="-231.5" font-family="Helvetica,sans-Serif" font-size="10.00">Cpl/Io/Output.h</text>
</a>
</g>
</g>
<!-- Node2&#45;&gt;Node16 -->
<g id="edge17" class="edge"><title>Node2&#45;&gt;Node16</title>
<path fill="none" stroke="midnightblue" d="M187.448,-280.444C220.995,-271.201 274.588,-256.436 311.532,-246.257"/>
<polygon fill="midnightblue" stroke="midnightblue" points="312.769,-249.547 321.48,-243.516 310.91,-242.798 312.769,-249.547"/>
</g>
<!-- Node4 -->
<g id="node4" class="node"><title>Node4</title>
<g id="a_node4"><a xlink:href="_string_8h.html" target="_top" xlink:title=" ">
<polygon fill="white" stroke="black" points="207.392,-168.5 207.392,-187.5 297.392,-187.5 297.392,-168.5 207.392,-168.5"/>
<text text-anchor="middle" x="252.392" y="-175.5" font-family="Helvetica,sans-Serif" font-size="10.00">Cpl/Text/String.h</text>
</a>
</g>
</g>
<!-- Node3&#45;&gt;Node4 -->
<g id="edge3" class="edge"><title>Node3&#45;&gt;Node4</title>
<path fill="none" stroke="midnightblue" d="M252.392,-224.083C252.392,-217.006 252.392,-206.861 252.392,-197.986"/>
<polygon fill="midnightblue" stroke="midnightblue" points="255.892,-197.751 252.392,-187.751 248.892,-197.751 255.892,-197.751"/>
</g>
<!-- Node13 -->
<g id="node13" class="node"><title>Node13</title>
<g id="a_node13"><a xlink:href="_close_8h.html" target="_top" xlink:title=" ">
<polygon fill="white" stroke="black" points="111.392,-168.5 111.392,-187.5 189.392,-187.5 189.392,-168.5 111.392,-168.5"/>
<text text-anchor="middle" x="150.392" y="-175.5" font-family="Helvetica,sans-Serif" font-size="10.00">Cpl/Io/Close.h</text>
</a>
</g>
</g>
<!-- Node3&#45;&gt;Node13 -->
<g id="edge14" class="edge"><title>Node3&#45;&gt;Node13</title>
<path fill="none" stroke="midnightblue" d="M236.004,-224.324C219.72,-215.703 194.524,-202.364 175.675,-192.386"/>
<polygon fill="midnightblue" stroke="midnightblue" points="177.215,-189.24 166.739,-187.655 173.939,-195.427 177.215,-189.24"/>
</g>
<!-- Node15 -->
<g id="node15" class="node"><title>Node15</title>
<g id="a_node15"><a xlink:href="_is_eos_8h.html" target="_top" xlink:title=" ">
<polygon fill="white" stroke="black" points="315.892,-168.5 315.892,-187.5 394.892,-187.5 394.892,-168.5 315.892,-168.5"/>
<text text-anchor="middle" x="355.392" y="-175.5" font-family="Helvetica,sans-Serif" font-size="10.00">Cpl/Io/IsEos.h</text>
</a>
</g>
</g>
<!-- Node3&#45;&gt;Node15 -->
<g id="edge16" class="edge"><title>Node3&#45;&gt;Node15</title>
<path fill="none" stroke="midnightblue" d="M268.94,-224.324C285.383,-215.703 310.826,-202.364 329.86,-192.386"/>
<polygon fill="midnightblue" stroke="midnightblue" points="331.652,-195.398 338.884,-187.655 328.402,-189.198 331.652,-195.398"/>
</g>
<!-- Node5 -->
<g id="node5" class="node"><title>Node5</title>
<g id="a_node5"><a xlink:title=" ">
<polygon fill="white" stroke="#bfbfbf" points="196.892,-56.5 196.892,-75.5 273.892,-75.5 273.892,-56.5 196.892,-56.5"/>
<text text-anchor="middle" x="235.392" y="-63.5" font-family="Helvetica,sans-Serif" font-size="10.00">colony_map.h</text>
</a>
</g>
</g>
<!-- Node4&#45;&gt;Node5 -->
<g id="edge4" class="edge"><title>Node4&#45;&gt;Node5</title>
<path fill="none" stroke="midnightblue" d="M251.058,-168.368C248.314,-150.617 241.986,-109.666 238.266,-85.5974"/>
<polygon fill="midnightblue" stroke="midnightblue" points="241.706,-84.9395 236.719,-75.5914 234.788,-86.0087 241.706,-84.9395"/>
</g>
<!-- Node6 -->
<g id="node6" class="node"><title>Node6</title>
<g id="a_node6"><a xlink:href="_key_8h.html" target="_top" xlink:title=" ">
<polygon fill="white" stroke="black" points="264.392,-112.5 264.392,-131.5 368.392,-131.5 368.392,-112.5 264.392,-112.5"/>
<text text-anchor="middle" x="316.392" y="-119.5" font-family="Helvetica,sans-Serif" font-size="10.00">Cpl/Container/Key.h</text>
</a>
</g>
</g>
<!-- Node4&#45;&gt;Node6 -->
<g id="edge5" class="edge"><title>Node4&#45;&gt;Node6</title>
<path fill="none" stroke="midnightblue" d="M257.794,-168.083C265.761,-159.905 279.992,-147.631 292.556,-137.954"/>
<polygon fill="midnightblue" stroke="midnightblue" points="294.957,-140.529 300.889,-131.751 290.777,-134.914 294.957,-140.529"/>
</g>
<!-- Node11 -->
<g id="node11" class="node"><title>Node11</title>
<g id="a_node11"><a xlink:title=" ">
<polygon fill="white" stroke="#bfbfbf" points="391.392,-112.5 391.392,-131.5 443.392,-131.5 443.392,-112.5 391.392,-112.5"/>
<text text-anchor="middle" x="417.392" y="-119.5" font-family="Helvetica,sans-Serif" font-size="10.00">stdarg.h</text>
</a>
</g>
</g>
<!-- Node4&#45;&gt;Node11 -->
<g id="edge12" class="edge"><title>Node4&#45;&gt;Node11</title>
<path fill="none" stroke="midnightblue" d="M278.536,-168.444C306.415,-159.32 350.74,-144.813 381.792,-134.651"/>
<polygon fill="midnightblue" stroke="midnightblue" points="382.954,-137.953 391.369,-131.516 380.777,-131.3 382.954,-137.953"/>
</g>
<!-- Node12 -->
<g id="node12" class="node"><title>Node12</title>
<g id="a_node12"><a xlink:title=" ">
<polygon fill="white" stroke="#bfbfbf" points="154.392,-112.5 154.392,-131.5 208.392,-131.5 208.392,-112.5 154.392,-112.5"/>
<text text-anchor="middle" x="181.392" y="-119.5" font-family="Helvetica,sans-Serif" font-size="10.00">iostream</text>
</a>
</g>
</g>
<!-- Node4&#45;&gt;Node12 -->
<g id="edge13" class="edge"><title>Node4&#45;&gt;Node12</title>
<path fill="none" stroke="midnightblue" d="M240.984,-168.324C230.283,-160.185 214.051,-147.839 201.229,-138.087"/>
<polygon fill="midnightblue" stroke="midnightblue" points="203.085,-135.102 193.007,-131.834 198.847,-140.673 203.085,-135.102"/>
</g>
<!-- Node6&#45;&gt;Node4 -->
<g id="edge10" class="edge"><title>Node6&#45;&gt;Node4</title>
<path fill="none" stroke="midnightblue" d="M311.071,-131.834C303.104,-140.027 288.78,-152.382 276.157,-162.101"/>
<polygon fill="midnightblue" stroke="midnightblue" points="273.725,-159.548 267.789,-168.324 277.902,-165.165 273.725,-159.548"/>
</g>
<!-- Node6&#45;&gt;Node5 -->
<g id="edge11" class="edge"><title>Node6&#45;&gt;Node5</title>
<path fill="none" stroke="midnightblue" d="M303.378,-112.324C290.86,-103.979 271.71,-91.2122 256.92,-81.3524"/>
<polygon fill="midnightblue" stroke="midnightblue" points="258.635,-78.2894 248.373,-75.6545 254.752,-84.1137 258.635,-78.2894"/>
</g>
<!-- Node7 -->
<g id="node7" class="node"><title>Node7</title>
<g id="a_node7"><a xlink:href="_fatal_error_8h.html" target="_top" xlink:title=" ">
<polygon fill="white" stroke="black" points="359.392,-56.5 359.392,-75.5 481.392,-75.5 481.392,-56.5 359.392,-56.5"/>
<text text-anchor="middle" x="420.392" y="-63.5" font-family="Helvetica,sans-Serif" font-size="10.00">Cpl/System/FatalError.h</text>
</a>
</g>
</g>
<!-- Node6&#45;&gt;Node7 -->
<g id="edge6" class="edge"><title>Node6&#45;&gt;Node7</title>
<path fill="none" stroke="midnightblue" d="M333.101,-112.324C349.704,-103.703 375.394,-90.3643 394.612,-80.3855"/>
<polygon fill="midnightblue" stroke="midnightblue" points="396.462,-83.3689 403.724,-75.6545 393.236,-77.1565 396.462,-83.3689"/>
</g>
<!-- Node10 -->
<g id="node10" class="node"><title>Node10</title>
<g id="a_node10"><a xlink:title=" ">
<polygon fill="white" stroke="#bfbfbf" points="291.892,-56.5 291.892,-75.5 340.892,-75.5 340.892,-56.5 291.892,-56.5"/>
<text text-anchor="middle" x="316.392" y="-63.5" font-family="Helvetica,sans-Serif" font-size="10.00">stdint.h</text>
</a>
</g>
</g>
<!-- Node6&#45;&gt;Node10 -->
<g id="edge9" class="edge"><title>Node6&#45;&gt;Node10</title>
<path fill="none" stroke="midnightblue" d="M316.392,-112.083C316.392,-105.006 316.392,-94.8611 316.392,-85.9865"/>
<polygon fill="midnightblue" stroke="midnightblue" points="319.892,-85.751 316.392,-75.7511 312.892,-85.7511 319.892,-85.751"/>
</g>
<!-- Node8 -->
<g id="node8" class="node"><title>Node8</title>
<g id="a_node8"><a xlink:title=" ">
<polygon fill="white" stroke="#bfbfbf" points="351.392,-0.5 351.392,-19.5 403.392,-19.5 403.392,-0.5 351.392,-0.5"/>
<text text-anchor="middle" x="377.392" y="-7.5" font-family="Helvetica,sans-Serif" font-size="10.00">stddef.h</text>
</a>
</g>
</g>
<!-- Node7&#45;&gt;Node8 -->
<g id="edge7" class="edge"><title>Node7&#45;&gt;Node8</title>
<path fill="none" stroke="midnightblue" d="M413.291,-56.083C407.155,-48.3768 398.122,-37.0333 390.652,-27.6531"/>
<polygon fill="midnightblue" stroke="midnightblue" points="393.327,-25.3936 384.36,-19.7511 387.851,-29.7542 393.327,-25.3936"/>
</g>
<!-- Node9 -->
<g id="node9" class="node"><title>Node9</title>
<g id="a_node9"><a xlink:title=" ">
<polygon fill="white" stroke="#bfbfbf" points="421.892,-0.5 421.892,-19.5 506.892,-19.5 506.892,-0.5 421.892,-0.5"/>
<text text-anchor="middle" x="464.392" y="-7.5" font-family="Helvetica,sans-Serif" font-size="10.00">colony_config.h</text>
</a>
</g>
</g>
<!-- Node7&#45;&gt;Node9 -->
<g id="edge8" class="edge"><title>Node7&#45;&gt;Node9</title>
<path fill="none" stroke="midnightblue" d="M427.657,-56.083C433.936,-48.3768 443.179,-37.0333 450.822,-27.6531"/>
<polygon fill="midnightblue" stroke="midnightblue" points="453.658,-29.7143 457.261,-19.7511 448.231,-25.2926 453.658,-29.7143"/>
</g>
<!-- Node14 -->
<g id="node14" class="node"><title>Node14</title>
<g id="a_node14"><a xlink:href="_item_8h.html" target="_top" xlink:title=" ">
<polygon fill="white" stroke="black" points="30.3916,-112.5 30.3916,-131.5 136.392,-131.5 136.392,-112.5 30.3916,-112.5"/>
<text text-anchor="middle" x="83.3916" y="-119.5" font-family="Helvetica,sans-Serif" font-size="10.00">Cpl/Container/Item.h</text>
</a>
</g>
</g>
<!-- Node13&#45;&gt;Node14 -->
<g id="edge15" class="edge"><title>Node13&#45;&gt;Node14</title>
<path fill="none" stroke="midnightblue" d="M139.627,-168.324C129.625,-160.263 114.505,-148.077 102.461,-138.369"/>
<polygon fill="midnightblue" stroke="midnightblue" points="104.335,-135.384 94.3522,-131.834 99.9418,-140.834 104.335,-135.384"/>
</g>
<!-- Node16&#45;&gt;Node4 -->
<g id="edge18" class="edge"><title>Node16&#45;&gt;Node4</title>
<path fill="none" stroke="midnightblue" d="M336.325,-224.324C320.434,-215.743 295.884,-202.486 277.433,-192.522"/>
<polygon fill="midnightblue" stroke="midnightblue" points="278.881,-189.326 268.418,-187.655 275.554,-195.486 278.881,-189.326"/>
</g>
<!-- Node16&#45;&gt;Node11 -->
<g id="edge21" class="edge"><title>Node16&#45;&gt;Node11</title>
<path fill="none" stroke="midnightblue" d="M366.311,-224.421C378.04,-216.447 394.318,-203.486 403.392,-188 411.689,-173.838 415.088,-155.356 416.471,-141.721"/>
<polygon fill="midnightblue" stroke="midnightblue" points="419.971,-141.841 417.221,-131.61 412.99,-141.323 419.971,-141.841"/>
</g>
<!-- Node16&#45;&gt;Node13 -->
<g id="edge19" class="edge"><title>Node16&#45;&gt;Node13</title>
<path fill="none" stroke="midnightblue" d="M320.384,-224.444C285.663,-215.162 230.104,-200.309 192.015,-190.127"/>
<polygon fill="midnightblue" stroke="midnightblue" points="192.814,-186.718 182.249,-187.516 191.006,-193.48 192.814,-186.718"/>
</g>
<!-- Node16&#45;&gt;Node15 -->
<g id="edge20" class="edge"><title>Node16&#45;&gt;Node15</title>
<path fill="none" stroke="midnightblue" d="M352.887,-224.083C353.28,-217.006 353.844,-206.861 354.337,-197.986"/>
<polygon fill="midnightblue" stroke="midnightblue" points="357.845,-197.93 354.905,-187.751 350.856,-197.542 357.845,-197.93"/>
</g>
<!-- Node17&#45;&gt;Node5 -->
<g id="edge23" class="edge"><title>Node17&#45;&gt;Node5</title>
<path fill="none" stroke="midnightblue" d="M265.704,-343.784C213.349,-340.673 133.387,-330.719 71.3916,-300 33.0574,-281.005 0.391612,-277.782 0.391612,-235 0.391612,-235 0.391612,-235 0.391612,-177 0.391612,-146.641 -1.17484,-132.308 21.3916,-112 45.3016,-90.4824 131.322,-77.7343 186.751,-71.5741"/>
<polygon fill="midnightblue" stroke="midnightblue" points="187.156,-75.0509 196.723,-70.4999 186.406,-68.0911 187.156,-75.0509"/>
</g>
<!-- Node18 -->
<g id="node18" class="node"><title>Node18</title>
<g id="a_node18"><a xlink:href="_runnable_8h.html" target="_top" xlink:title=" ">
<polygon fill="white" stroke="black" points="432.892,-280.5 432.892,-299.5 551.892,-299.5 551.892,-280.5 432.892,-280.5"/>
<text text-anchor="middle" x="492.392" y="-287.5" font-family="Helvetica,sans-Serif" font-size="10.00">Cpl/System/Runnable.h</text>
</a>
</g>
</g>
<!-- Node17&#45;&gt;Node18 -->
<g id="edge24" class="edge"><title>Node17&#45;&gt;Node18</title>
<path fill="none" stroke="midnightblue" d="M347.646,-336.444C376.833,-327.28 423.313,-312.688 455.701,-302.519"/>
<polygon fill="midnightblue" stroke="midnightblue" points="456.773,-305.851 465.265,-299.516 454.676,-299.173 456.773,-305.851"/>
</g>
<!-- Node19 -->
<g id="node19" class="node"><title>Node19</title>
<g id="a_node19"><a xlink:href="_signable_8h.html" target="_top" xlink:title=" ">
<polygon fill="white" stroke="black" points="28.3916,-224.5 28.3916,-243.5 144.392,-243.5 144.392,-224.5 28.3916,-224.5"/>
<text text-anchor="middle" x="86.3916" y="-231.5" font-family="Helvetica,sans-Serif" font-size="10.00">Cpl/System/Signable.h</text>
</a>
</g>
</g>
<!-- Node17&#45;&gt;Node19 -->
<g id="edge25" class="edge"><title>Node17&#45;&gt;Node19</title>
<path fill="none" stroke="midnightblue" d="M265.632,-342.548C202.466,-338.437 104.335,-327.666 81.3916,-300 70.7982,-287.226 73.9799,-267.762 78.6323,-253.461"/>
<polygon fill="midnightblue" stroke="midnightblue" points="82.0475,-254.321 82.2729,-243.729 75.4911,-251.869 82.0475,-254.321"/>
</g>
<!-- Node20 -->
<g id="node20" class="node"><title>Node20</title>
<g id="a_node20"><a xlink:href="_traverser_8h.html" target="_top" xlink:title=" ">
<polygon fill="white" stroke="black" points="240.392,-280.5 240.392,-299.5 348.392,-299.5 348.392,-280.5 240.392,-280.5"/>
<text text-anchor="middle" x="294.392" y="-287.5" font-family="Helvetica,sans-Serif" font-size="10.00">Cpl/Type/Traverser.h</text>
</a>
</g>
</g>
<!-- Node17&#45;&gt;Node20 -->
<g id="edge27" class="edge"><title>Node17&#45;&gt;Node20</title>
<path fill="none" stroke="midnightblue" d="M316.098,-336.083C312.539,-328.691 307.369,-317.953 302.967,-308.811"/>
<polygon fill="midnightblue" stroke="midnightblue" points="306.097,-307.243 298.605,-299.751 299.79,-310.279 306.097,-307.243"/>
</g>
<!-- Node21 -->
<g id="node21" class="node"><title>Node21</title>
<g id="a_node21"><a xlink:title=" ">
<polygon fill="white" stroke="#bfbfbf" points="366.392,-280.5 366.392,-299.5 414.392,-299.5 414.392,-280.5 366.392,-280.5"/>
<text text-anchor="middle" x="390.392" y="-287.5" font-family="Helvetica,sans-Serif" font-size="10.00">stdlib.h</text>
</a>
</g>
</g>
<!-- Node17&#45;&gt;Node21 -->
<g id="edge28" class="edge"><title>Node17&#45;&gt;Node21</title>
<path fill="none" stroke="midnightblue" d="M331.638,-336.324C342.189,-328.185 358.192,-315.839 370.834,-306.087"/>
<polygon fill="midnightblue" stroke="midnightblue" points="373.16,-308.713 378.94,-299.834 368.885,-303.171 373.16,-308.713"/>
</g>
<!-- Node19&#45;&gt;Node14 -->
<g id="edge26" class="edge"><title>Node19&#45;&gt;Node14</title>
<path fill="none" stroke="midnightblue" d="M86.1562,-224.368C85.6721,-206.617 84.5552,-165.666 83.8988,-141.597"/>
<polygon fill="midnightblue" stroke="midnightblue" points="87.3973,-141.492 83.6259,-131.591 80.3999,-141.683 87.3973,-141.492"/>
</g>
<!-- Node22&#45;&gt;Node18 -->
<g id="edge31" class="edge"><title>Node22&#45;&gt;Node18</title>
<path fill="none" stroke="midnightblue" d="M483.208,-336.083C484.666,-328.927 486.762,-318.635 488.584,-309.691"/>
<polygon fill="midnightblue" stroke="midnightblue" points="492.042,-310.248 490.609,-299.751 485.183,-308.851 492.042,-310.248"/>
</g>
<!-- Node23 -->
<g id="node23" class="node"><title>Node23</title>
<g id="a_node23"><a xlink:href="_descriptor_8h.html" target="_top" xlink:title=" ">
<polygon fill="white" stroke="black" points="570.392,-280.5 570.392,-299.5 668.392,-299.5 668.392,-280.5 570.392,-280.5"/>
<text text-anchor="middle" x="619.392" y="-287.5" font-family="Helvetica,sans-Serif" font-size="10.00">Cpl/Io/Descriptor.h</text>
</a>
</g>
</g>
<!-- Node22&#45;&gt;Node23 -->
<g id="edge30" class="edge"><title>Node22&#45;&gt;Node23</title>
<path fill="none" stroke="midnightblue" d="M503.258,-336.444C526.171,-327.478 562.367,-313.314 588.258,-303.183"/>
<polygon fill="midnightblue" stroke="midnightblue" points="589.59,-306.42 597.627,-299.516 587.04,-299.901 589.59,-306.42"/>
</g>
<!-- Node24&#45;&gt;Node23 -->
<g id="edge36" class="edge"><title>Node24&#45;&gt;Node23</title>
<path fill="none" stroke="midnightblue" d="M627.74,-336.083C626.415,-328.927 624.509,-318.635 622.853,-309.691"/>
<polygon fill="midnightblue" stroke="midnightblue" points="626.275,-308.947 621.012,-299.751 619.392,-310.221 626.275,-308.947"/>
</g>
<!-- Node25 -->
<g id="node25" class="node"><title>Node25</title>
<g id="a_node25"><a xlink:href="_input_output_8h.html" target="_top" xlink:title=" ">
<polygon fill="white" stroke="black" points="686.392,-280.5 686.392,-299.5 790.392,-299.5 790.392,-280.5 686.392,-280.5"/>
<text text-anchor="middle" x="738.392" y="-287.5" font-family="Helvetica,sans-Serif" font-size="10.00">Cpl/Io/InputOutput.h</text>
</a>
</g>
</g>
<!-- Node24&#45;&gt;Node25 -->
<g id="edge33" class="edge"><title>Node24&#45;&gt;Node25</title>
<path fill="none" stroke="midnightblue" d="M646.904,-336.324C664.464,-327.625 691.723,-314.12 711.923,-304.113"/>
<polygon fill="midnightblue" stroke="midnightblue" points="713.515,-307.23 720.922,-299.655 710.408,-300.958 713.515,-307.23"/>
</g>
<!-- Node25&#45;&gt;Node3 -->
<g id="edge34" class="edge"><title>Node25&#45;&gt;Node3</title>
<path fill="none" stroke="midnightblue" d="M686.172,-281.117C683.203,-280.724 680.261,-280.349 677.392,-280 510.743,-259.742 467.658,-267.185 301.392,-244 300.931,-243.936 300.468,-243.87 300.004,-243.804"/>
<polygon fill="midnightblue" stroke="midnightblue" points="300.478,-240.335 290.059,-242.257 299.402,-247.252 300.478,-240.335"/>
</g>
<!-- Node25&#45;&gt;Node16 -->
<g id="edge35" class="edge"><title>Node25&#45;&gt;Node16</title>
<path fill="none" stroke="midnightblue" d="M686.153,-281.261C683.189,-280.832 680.253,-280.409 677.392,-280 580.978,-266.213 468.375,-250.769 404.217,-242.031"/>
<polygon fill="midnightblue" stroke="midnightblue" points="404.345,-238.516 393.964,-240.636 403.401,-245.452 404.345,-238.516"/>
</g>
</g>
</svg>
