<?xml version="1.0" encoding="UTF-8" standalone="no"?>
<!DOCTYPE svg PUBLIC "-//W3C//DTD SVG 1.1//EN"
 "http://www.w3.org/Graphics/SVG/1.1/DTD/svg11.dtd">
<!-- Generated by graphviz version 2.38.0 (20140413.2041)
 -->
<!-- Title: Cpl/Dm/StaticInfo.h Pages: 1 -->
<svg width="368pt" height="196pt"
 viewBox="0.00 0.00 367.50 196.00" xmlns="http://www.w3.org/2000/svg" xmlns:xlink="http://www.w3.org/1999/xlink">
<g id="graph0" class="graph" transform="scale(1 1) rotate(0) translate(4 192)">
<title>Cpl/Dm/StaticInfo.h</title>
<polygon fill="white" stroke="none" points="-4,4 -4,-192 363.5,-192 363.5,4 -4,4"/>
<!-- Node1 -->
<g id="node1" class="node"><title>Node1</title>
<g id="a_node1"><a xlink:title=" ">
<polygon fill="#bfbfbf" stroke="black" points="155,-168.5 155,-187.5 257,-187.5 257,-168.5 155,-168.5"/>
<text text-anchor="middle" x="206" y="-175.5" font-family="Helvetica,sans-Serif" font-size="10.00">Cpl/Dm/StaticInfo.h</text>
</a>
</g>
</g>
<!-- Node2 -->
<g id="node2" class="node"><title>Node2</title>
<g id="a_node2"><a xlink:href="_key_8h.html" target="_top" xlink:title=" ">
<polygon fill="white" stroke="black" points="154,-112.5 154,-131.5 258,-131.5 258,-112.5 154,-112.5"/>
<text text-anchor="middle" x="206" y="-119.5" font-family="Helvetica,sans-Serif" font-size="10.00">Cpl/Container/Key.h</text>
</a>
</g>
</g>
<!-- Node1&#45;&gt;Node2 -->
<g id="edge1" class="edge"><title>Node1&#45;&gt;Node2</title>
<path fill="none" stroke="midnightblue" d="M206,-168.083C206,-161.006 206,-150.861 206,-141.986"/>
<polygon fill="midnightblue" stroke="midnightblue" points="209.5,-141.751 206,-131.751 202.5,-141.751 209.5,-141.751"/>
</g>
<!-- Node3 -->
<g id="node3" class="node"><title>Node3</title>
<g id="a_node3"><a xlink:href="_fatal_error_8h.html" target="_top" xlink:title=" ">
<polygon fill="white" stroke="black" points="8,-56.5 8,-75.5 130,-75.5 130,-56.5 8,-56.5"/>
<text text-anchor="middle" x="69" y="-63.5" font-family="Helvetica,sans-Serif" font-size="10.00">Cpl/System/FatalError.h</text>
</a>
</g>
</g>
<!-- Node2&#45;&gt;Node3 -->
<g id="edge2" class="edge"><title>Node2&#45;&gt;Node3</title>
<path fill="none" stroke="midnightblue" d="M184.292,-112.444C161.645,-103.517 125.928,-89.4387 100.248,-79.3168"/>
<polygon fill="midnightblue" stroke="midnightblue" points="101.193,-75.9273 90.6065,-75.5164 98.6264,-82.4397 101.193,-75.9273"/>
</g>
<!-- Node6 -->
<g id="node6" class="node"><title>Node6</title>
<g id="a_node6"><a xlink:title=" ">
<polygon fill="white" stroke="#bfbfbf" points="148.5,-56.5 148.5,-75.5 197.5,-75.5 197.5,-56.5 148.5,-56.5"/>
<text text-anchor="middle" x="173" y="-63.5" font-family="Helvetica,sans-Serif" font-size="10.00">stdint.h</text>
</a>
</g>
</g>
<!-- Node2&#45;&gt;Node6 -->
<g id="edge5" class="edge"><title>Node2&#45;&gt;Node6</title>
<path fill="none" stroke="midnightblue" d="M200.551,-112.083C195.986,-104.613 189.332,-93.7244 183.707,-84.5199"/>
<polygon fill="midnightblue" stroke="midnightblue" points="186.549,-82.4588 178.348,-75.7511 180.576,-86.109 186.549,-82.4588"/>
</g>
<!-- Node7 -->
<g id="node7" class="node"><title>Node7</title>
<g id="a_node7"><a xlink:title=" ">
<polygon fill="white" stroke="#bfbfbf" points="215.5,-56.5 215.5,-75.5 264.5,-75.5 264.5,-56.5 215.5,-56.5"/>
<text text-anchor="middle" x="240" y="-63.5" font-family="Helvetica,sans-Serif" font-size="10.00">string.h</text>
</a>
</g>
</g>
<!-- Node2&#45;&gt;Node7 -->
<g id="edge6" class="edge"><title>Node2&#45;&gt;Node7</title>
<path fill="none" stroke="midnightblue" d="M211.614,-112.083C216.367,-104.534 223.318,-93.4948 229.152,-84.2298"/>
<polygon fill="midnightblue" stroke="midnightblue" points="232.124,-86.0783 234.49,-75.7511 226.2,-82.3486 232.124,-86.0783"/>
</g>
<!-- Node8 -->
<g id="node8" class="node"><title>Node8</title>
<g id="a_node8"><a xlink:title=" ">
<polygon fill="white" stroke="#bfbfbf" points="282.5,-56.5 282.5,-75.5 359.5,-75.5 359.5,-56.5 282.5,-56.5"/>
<text text-anchor="middle" x="321" y="-63.5" font-family="Helvetica,sans-Serif" font-size="10.00">colony_map.h</text>
</a>
</g>
</g>
<!-- Node2&#45;&gt;Node8 -->
<g id="edge7" class="edge"><title>Node2&#45;&gt;Node8</title>
<path fill="none" stroke="midnightblue" d="M224.222,-112.444C242.896,-103.675 272.156,-89.9355 293.617,-79.8579"/>
<polygon fill="midnightblue" stroke="midnightblue" points="295.299,-82.935 302.863,-75.5164 292.324,-76.5988 295.299,-82.935"/>
</g>
<!-- Node4 -->
<g id="node4" class="node"><title>Node4</title>
<g id="a_node4"><a xlink:title=" ">
<polygon fill="white" stroke="#bfbfbf" points="0,-0.5 0,-19.5 52,-19.5 52,-0.5 0,-0.5"/>
<text text-anchor="middle" x="26" y="-7.5" font-family="Helvetica,sans-Serif" font-size="10.00">stddef.h</text>
</a>
</g>
</g>
<!-- Node3&#45;&gt;Node4 -->
<g id="edge3" class="edge"><title>Node3&#45;&gt;Node4</title>
<path fill="none" stroke="midnightblue" d="M61.8994,-56.083C55.763,-48.3768 46.7303,-37.0333 39.2608,-27.6531"/>
<polygon fill="midnightblue" stroke="midnightblue" points="41.9357,-25.3936 32.9685,-19.7511 36.4598,-29.7542 41.9357,-25.3936"/>
</g>
<!-- Node5 -->
<g id="node5" class="node"><title>Node5</title>
<g id="a_node5"><a xlink:title=" ">
<polygon fill="white" stroke="#bfbfbf" points="70.5,-0.5 70.5,-19.5 155.5,-19.5 155.5,-0.5 70.5,-0.5"/>
<text text-anchor="middle" x="113" y="-7.5" font-family="Helvetica,sans-Serif" font-size="10.00">colony_config.h</text>
</a>
</g>
</g>
<!-- Node3&#45;&gt;Node5 -->
<g id="edge4" class="edge"><title>Node3&#45;&gt;Node5</title>
<path fill="none" stroke="midnightblue" d="M76.2657,-56.083C82.5448,-48.3768 91.7876,-37.0333 99.4308,-27.6531"/>
<polygon fill="midnightblue" stroke="midnightblue" points="102.266,-29.7143 105.869,-19.7511 96.8394,-25.2926 102.266,-29.7143"/>
</g>
</g>
</svg>
