<?xml version="1.0" encoding="UTF-8" standalone="no"?>
<!DOCTYPE svg PUBLIC "-//W3C//DTD SVG 1.1//EN"
 "http://www.w3.org/Graphics/SVG/1.1/DTD/svg11.dtd">
<!-- Generated by graphviz version 2.38.0 (20140413.2041)
 -->
<!-- Title: Storm/Component/Equipment/StageApi.h Pages: 1 -->
<svg width="518pt" height="229pt"
 viewBox="0.00 0.00 518.00 229.00" xmlns="http://www.w3.org/2000/svg" xmlns:xlink="http://www.w3.org/1999/xlink">
<g id="graph0" class="graph" transform="scale(1 1) rotate(0) translate(4 225)">
<title>Storm/Component/Equipment/StageApi.h</title>
<polygon fill="white" stroke="none" points="-4,4 -4,-225 514,-225 514,4 -4,4"/>
<!-- Node1 -->
<g id="node1" class="node"><title>Node1</title>
<g id="a_node1"><a xlink:title=" ">
<polygon fill="#bfbfbf" stroke="black" points="101,-190.5 101,-220.5 246,-220.5 246,-190.5 101,-190.5"/>
<text text-anchor="start" x="109" y="-208.5" font-family="Helvetica,sans-Serif" font-size="10.00">Storm/Component/Equipment</text>
<text text-anchor="middle" x="173.5" y="-197.5" font-family="Helvetica,sans-Serif" font-size="10.00">/StageApi.h</text>
</a>
</g>
</g>
<!-- Node2 -->
<g id="node2" class="node"><title>Node2</title>
<g id="a_node2"><a xlink:href="_cooling_8h.html" target="_top" xlink:title=" ">
<polygon fill="white" stroke="black" points="0,-56.5 0,-86.5 145,-86.5 145,-56.5 0,-56.5"/>
<text text-anchor="start" x="8" y="-74.5" font-family="Helvetica,sans-Serif" font-size="10.00">Storm/Component/Equipment</text>
<text text-anchor="middle" x="72.5" y="-63.5" font-family="Helvetica,sans-Serif" font-size="10.00">/Cooling.h</text>
</a>
</g>
</g>
<!-- Node1&#45;&gt;Node2 -->
<g id="edge1" class="edge"><title>Node1&#45;&gt;Node2</title>
<path fill="none" stroke="midnightblue" d="M129.125,-185.639C115.221,-177.733 101.035,-167.246 91.5,-154 76.9007,-133.719 73.3423,-103.9 72.5789,-86.5151"/>
<polygon fill="midnightblue" stroke="midnightblue" points="127.699,-188.845 138.17,-190.465 130.995,-182.669 127.699,-188.845"/>
</g>
<!-- Node4 -->
<g id="node4" class="node"><title>Node4</title>
<g id="a_node4"><a xlink:href="_indoor_heating_8h.html" target="_top" xlink:title=" ">
<polygon fill="white" stroke="black" points="101,-123.5 101,-153.5 246,-153.5 246,-123.5 101,-123.5"/>
<text text-anchor="start" x="109" y="-141.5" font-family="Helvetica,sans-Serif" font-size="10.00">Storm/Component/Equipment</text>
<text text-anchor="middle" x="173.5" y="-130.5" font-family="Helvetica,sans-Serif" font-size="10.00">/IndoorHeating.h</text>
</a>
</g>
</g>
<!-- Node1&#45;&gt;Node4 -->
<g id="edge3" class="edge"><title>Node1&#45;&gt;Node4</title>
<path fill="none" stroke="midnightblue" d="M173.5,-180.108C173.5,-171.154 173.5,-161.323 173.5,-153.577"/>
<polygon fill="midnightblue" stroke="midnightblue" points="170,-180.396 173.5,-190.396 177,-180.396 170,-180.396"/>
</g>
<!-- Node5 -->
<g id="node5" class="node"><title>Node5</title>
<g id="a_node5"><a xlink:href="_storm_2_component_2_equipment_2_stage_2_basic_8h.html" target="_top" xlink:title=" ">
<polygon fill="white" stroke="black" points="264,-123.5 264,-153.5 409,-153.5 409,-123.5 264,-123.5"/>
<text text-anchor="start" x="272" y="-141.5" font-family="Helvetica,sans-Serif" font-size="10.00">Storm/Component/Equipment</text>
<text text-anchor="middle" x="336.5" y="-130.5" font-family="Helvetica,sans-Serif" font-size="10.00">/Stage/Basic.h</text>
</a>
</g>
</g>
<!-- Node1&#45;&gt;Node5 -->
<g id="edge5" class="edge"><title>Node1&#45;&gt;Node5</title>
<path fill="none" stroke="midnightblue" d="M218.183,-186.682C244.325,-176.257 276.866,-163.281 301.2,-153.577"/>
<polygon fill="midnightblue" stroke="midnightblue" points="216.861,-183.441 208.869,-190.396 219.454,-189.943 216.861,-183.441"/>
</g>
<!-- Node3 -->
<g id="node3" class="node"><title>Node3</title>
<g id="a_node3"><a xlink:href="_algorithm_8h.html" target="_top" xlink:title=" ">
<polygon fill="white" stroke="black" points="149.5,-0.5 149.5,-19.5 297.5,-19.5 297.5,-0.5 149.5,-0.5"/>
<text text-anchor="middle" x="223.5" y="-7.5" font-family="Helvetica,sans-Serif" font-size="10.00">Storm/Thermostat/Algorithm.h</text>
</a>
</g>
</g>
<!-- Node2&#45;&gt;Node3 -->
<g id="edge2" class="edge"><title>Node2&#45;&gt;Node3</title>
<path fill="none" stroke="midnightblue" d="M117.779,-52.6583C145.474,-41.7455 179.666,-28.2724 201.528,-19.6578"/>
<polygon fill="midnightblue" stroke="midnightblue" points="116.306,-49.4769 108.285,-56.3993 118.872,-55.9895 116.306,-49.4769"/>
</g>
<!-- Node4&#45;&gt;Node3 -->
<g id="edge4" class="edge"><title>Node4&#45;&gt;Node3</title>
<path fill="none" stroke="midnightblue" d="M176.685,-113.433C179.463,-96.793 184.358,-74.4227 192.5,-56 198.559,-42.29 208.947,-28.3618 216.013,-19.7073"/>
<polygon fill="midnightblue" stroke="midnightblue" points="173.207,-113.026 175.153,-123.441 180.126,-114.086 173.207,-113.026"/>
</g>
<!-- Node6 -->
<g id="node6" class="node"><title>Node6</title>
<g id="a_node6"><a xlink:href="_basic_cooling_8h.html" target="_top" xlink:title=" ">
<polygon fill="white" stroke="black" points="202,-56.5 202,-86.5 347,-86.5 347,-56.5 202,-56.5"/>
<text text-anchor="start" x="210" y="-74.5" font-family="Helvetica,sans-Serif" font-size="10.00">Storm/Component/Equipment</text>
<text text-anchor="middle" x="274.5" y="-63.5" font-family="Helvetica,sans-Serif" font-size="10.00">/Stage/BasicCooling.h</text>
</a>
</g>
</g>
<!-- Node5&#45;&gt;Node6 -->
<g id="edge6" class="edge"><title>Node5&#45;&gt;Node6</title>
<path fill="none" stroke="midnightblue" d="M316.015,-116.024C306.778,-106.34 296.127,-95.1739 287.927,-86.5765"/>
<polygon fill="midnightblue" stroke="midnightblue" points="313.612,-118.576 323.047,-123.396 318.677,-113.744 313.612,-118.576"/>
</g>
<!-- Node7 -->
<g id="node7" class="node"><title>Node7</title>
<g id="a_node7"><a xlink:href="_basic_indoor_heat_8h.html" target="_top" xlink:title=" ">
<polygon fill="white" stroke="black" points="365,-56.5 365,-86.5 510,-86.5 510,-56.5 365,-56.5"/>
<text text-anchor="start" x="373" y="-74.5" font-family="Helvetica,sans-Serif" font-size="10.00">Storm/Component/Equipment</text>
<text text-anchor="middle" x="437.5" y="-63.5" font-family="Helvetica,sans-Serif" font-size="10.00">/Stage/BasicIndoorHeat.h</text>
</a>
</g>
</g>
<!-- Node5&#45;&gt;Node7 -->
<g id="edge8" class="edge"><title>Node5&#45;&gt;Node7</title>
<path fill="none" stroke="midnightblue" d="M367.214,-117.734C382.843,-107.676 401.475,-95.6847 415.627,-86.5765"/>
<polygon fill="midnightblue" stroke="midnightblue" points="364.93,-115.041 358.415,-123.396 368.719,-120.927 364.93,-115.041"/>
</g>
<!-- Node6&#45;&gt;Node3 -->
<g id="edge7" class="edge"><title>Node6&#45;&gt;Node3</title>
<path fill="none" stroke="midnightblue" d="M255.817,-48.7037C247.188,-38.636 237.434,-27.2567 230.921,-19.6578"/>
<polygon fill="midnightblue" stroke="midnightblue" points="253.248,-51.0845 262.414,-56.3993 258.563,-46.529 253.248,-51.0845"/>
</g>
<!-- Node7&#45;&gt;Node3 -->
<g id="edge9" class="edge"><title>Node7&#45;&gt;Node3</title>
<path fill="none" stroke="midnightblue" d="M377.367,-53.7808C337.226,-42.62 286.117,-28.4098 254.094,-19.5064"/>
<polygon fill="midnightblue" stroke="midnightblue" points="376.484,-57.1679 387.056,-56.4747 378.359,-50.4238 376.484,-57.1679"/>
</g>
</g>
</svg>
