<?xml version="1.0" encoding="UTF-8" standalone="no"?>
<!DOCTYPE svg PUBLIC "-//W3C//DTD SVG 1.1//EN"
 "http://www.w3.org/Graphics/SVG/1.1/DTD/svg11.dtd">
<!-- Generated by graphviz version 2.38.0 (20140413.2041)
 -->
<!-- Title: Cpl/Text/Frame/StreamEncoder.h Pages: 1 -->
<svg width="536pt" height="308pt"
 viewBox="0.00 0.00 536.00 308.00" xmlns="http://www.w3.org/2000/svg" xmlns:xlink="http://www.w3.org/1999/xlink">
<g id="graph0" class="graph" transform="scale(1 1) rotate(0) translate(4 304)">
<title>Cpl/Text/Frame/StreamEncoder.h</title>
<polygon fill="white" stroke="none" points="-4,4 -4,-304 532,-304 532,4 -4,4"/>
<!-- Node1 -->
<g id="node1" class="node"><title>Node1</title>
<g id="a_node1"><a xlink:title=" ">
<polygon fill="#bfbfbf" stroke="black" points="136,-280.5 136,-299.5 299,-299.5 299,-280.5 136,-280.5"/>
<text text-anchor="middle" x="217.5" y="-287.5" font-family="Helvetica,sans-Serif" font-size="10.00">Cpl/Text/Frame/StreamEncoder.h</text>
</a>
</g>
</g>
<!-- Node2 -->
<g id="node2" class="node"><title>Node2</title>
<g id="a_node2"><a xlink:href="_encoder___8h.html" target="_top" xlink:title=" ">
<polygon fill="white" stroke="black" points="42,-224.5 42,-243.5 179,-243.5 179,-224.5 42,-224.5"/>
<text text-anchor="middle" x="110.5" y="-231.5" font-family="Helvetica,sans-Serif" font-size="10.00">Cpl/Text/Frame/Encoder_.h</text>
</a>
</g>
</g>
<!-- Node1&#45;&gt;Node2 -->
<g id="edge1" class="edge"><title>Node1&#45;&gt;Node2</title>
<path fill="none" stroke="midnightblue" d="M200.309,-280.324C183.149,-271.664 156.554,-258.242 136.753,-248.249"/>
<polygon fill="midnightblue" stroke="midnightblue" points="138.153,-245.035 127.649,-243.655 134.999,-251.285 138.153,-245.035"/>
</g>
<!-- Node5 -->
<g id="node5" class="node"><title>Node5</title>
<g id="a_node5"><a xlink:href="_output_8h.html" target="_top" xlink:title=" ">
<polygon fill="white" stroke="black" points="283,-224.5 283,-243.5 366,-243.5 366,-224.5 283,-224.5"/>
<text text-anchor="middle" x="324.5" y="-231.5" font-family="Helvetica,sans-Serif" font-size="10.00">Cpl/Io/Output.h</text>
</a>
</g>
</g>
<!-- Node1&#45;&gt;Node5 -->
<g id="edge4" class="edge"><title>Node1&#45;&gt;Node5</title>
<path fill="none" stroke="midnightblue" d="M234.691,-280.324C251.851,-271.664 278.446,-258.242 298.247,-248.249"/>
<polygon fill="midnightblue" stroke="midnightblue" points="300.001,-251.285 307.351,-243.655 296.847,-245.035 300.001,-251.285"/>
</g>
<!-- Node3 -->
<g id="node3" class="node"><title>Node3</title>
<g id="a_node3"><a xlink:href="_encoder_8h.html" target="_top" xlink:title=" ">
<polygon fill="white" stroke="black" points="2,-168.5 2,-187.5 133,-187.5 133,-168.5 2,-168.5"/>
<text text-anchor="middle" x="67.5" y="-175.5" font-family="Helvetica,sans-Serif" font-size="10.00">Cpl/Text/Frame/Encoder.h</text>
</a>
</g>
</g>
<!-- Node2&#45;&gt;Node3 -->
<g id="edge2" class="edge"><title>Node2&#45;&gt;Node3</title>
<path fill="none" stroke="midnightblue" d="M103.399,-224.083C97.263,-216.377 88.2303,-205.033 80.7608,-195.653"/>
<polygon fill="midnightblue" stroke="midnightblue" points="83.4357,-193.394 74.4685,-187.751 77.9598,-197.754 83.4357,-193.394"/>
</g>
<!-- Node4 -->
<g id="node4" class="node"><title>Node4</title>
<g id="a_node4"><a xlink:title=" ">
<polygon fill="white" stroke="#bfbfbf" points="0.5,-112.5 0.5,-131.5 48.5,-131.5 48.5,-112.5 0.5,-112.5"/>
<text text-anchor="middle" x="24.5" y="-119.5" font-family="Helvetica,sans-Serif" font-size="10.00">stdlib.h</text>
</a>
</g>
</g>
<!-- Node3&#45;&gt;Node4 -->
<g id="edge3" class="edge"><title>Node3&#45;&gt;Node4</title>
<path fill="none" stroke="midnightblue" d="M60.3994,-168.083C54.263,-160.377 45.2303,-149.033 37.7608,-139.653"/>
<polygon fill="midnightblue" stroke="midnightblue" points="40.4357,-137.394 31.4685,-131.751 34.9598,-141.754 40.4357,-137.394"/>
</g>
<!-- Node6 -->
<g id="node6" class="node"><title>Node6</title>
<g id="a_node6"><a xlink:href="_text_2_string_8h.html" target="_top" xlink:title=" ">
<polygon fill="white" stroke="black" points="206.5,-168.5 206.5,-187.5 296.5,-187.5 296.5,-168.5 206.5,-168.5"/>
<text text-anchor="middle" x="251.5" y="-175.5" font-family="Helvetica,sans-Serif" font-size="10.00">Cpl/Text/String.h</text>
</a>
</g>
</g>
<!-- Node5&#45;&gt;Node6 -->
<g id="edge5" class="edge"><title>Node5&#45;&gt;Node6</title>
<path fill="none" stroke="midnightblue" d="M312.771,-224.324C301.663,-216.107 284.758,-203.602 271.517,-193.807"/>
<polygon fill="midnightblue" stroke="midnightblue" points="273.563,-190.967 263.442,-187.834 269.4,-196.595 273.563,-190.967"/>
</g>
<!-- Node14 -->
<g id="node14" class="node"><title>Node14</title>
<g id="a_node14"><a xlink:title=" ">
<polygon fill="white" stroke="#bfbfbf" points="298.5,-112.5 298.5,-131.5 350.5,-131.5 350.5,-112.5 298.5,-112.5"/>
<text text-anchor="middle" x="324.5" y="-119.5" font-family="Helvetica,sans-Serif" font-size="10.00">stdarg.h</text>
</a>
</g>
</g>
<!-- Node5&#45;&gt;Node14 -->
<g id="edge19" class="edge"><title>Node5&#45;&gt;Node14</title>
<path fill="none" stroke="midnightblue" d="M324.5,-224.368C324.5,-206.617 324.5,-165.666 324.5,-141.597"/>
<polygon fill="midnightblue" stroke="midnightblue" points="328,-141.591 324.5,-131.591 321,-141.591 328,-141.591"/>
</g>
<!-- Node16 -->
<g id="node16" class="node"><title>Node16</title>
<g id="a_node16"><a xlink:href="_close_8h.html" target="_top" xlink:title=" ">
<polygon fill="white" stroke="black" points="352.5,-168.5 352.5,-187.5 430.5,-187.5 430.5,-168.5 352.5,-168.5"/>
<text text-anchor="middle" x="391.5" y="-175.5" font-family="Helvetica,sans-Serif" font-size="10.00">Cpl/Io/Close.h</text>
</a>
</g>
</g>
<!-- Node5&#45;&gt;Node16 -->
<g id="edge16" class="edge"><title>Node5&#45;&gt;Node16</title>
<path fill="none" stroke="midnightblue" d="M335.265,-224.324C345.266,-216.263 360.387,-204.077 372.43,-194.369"/>
<polygon fill="midnightblue" stroke="midnightblue" points="374.95,-196.834 380.539,-187.834 370.557,-191.384 374.95,-196.834"/>
</g>
<!-- Node18 -->
<g id="node18" class="node"><title>Node18</title>
<g id="a_node18"><a xlink:href="_is_eos_8h.html" target="_top" xlink:title=" ">
<polygon fill="white" stroke="black" points="449,-168.5 449,-187.5 528,-187.5 528,-168.5 449,-168.5"/>
<text text-anchor="middle" x="488.5" y="-175.5" font-family="Helvetica,sans-Serif" font-size="10.00">Cpl/Io/IsEos.h</text>
</a>
</g>
</g>
<!-- Node5&#45;&gt;Node18 -->
<g id="edge18" class="edge"><title>Node5&#45;&gt;Node18</title>
<path fill="none" stroke="midnightblue" d="M350.486,-224.444C378.196,-215.32 422.252,-200.813 453.116,-190.651"/>
<polygon fill="midnightblue" stroke="midnightblue" points="454.232,-193.968 462.635,-187.516 452.042,-187.32 454.232,-193.968"/>
</g>
<!-- Node7 -->
<g id="node7" class="node"><title>Node7</title>
<g id="a_node7"><a xlink:title=" ">
<polygon fill="white" stroke="#bfbfbf" points="0,-56.5 0,-75.5 77,-75.5 77,-56.5 0,-56.5"/>
<text text-anchor="middle" x="38.5" y="-63.5" font-family="Helvetica,sans-Serif" font-size="10.00">colony_map.h</text>
</a>
</g>
</g>
<!-- Node6&#45;&gt;Node7 -->
<g id="edge6" class="edge"><title>Node6&#45;&gt;Node7</title>
<path fill="none" stroke="midnightblue" d="M206.346,-170.943C173.59,-164.958 129.287,-153.46 95.5,-132 76.169,-119.722 59.633,-98.99 49.4272,-84.2426"/>
<polygon fill="midnightblue" stroke="midnightblue" points="52.1143,-81.962 43.6688,-75.5648 46.2816,-85.8324 52.1143,-81.962"/>
</g>
<!-- Node8 -->
<g id="node8" class="node"><title>Node8</title>
<g id="a_node8"><a xlink:href="_key_8h.html" target="_top" xlink:title=" ">
<polygon fill="white" stroke="black" points="104.5,-112.5 104.5,-131.5 208.5,-131.5 208.5,-112.5 104.5,-112.5"/>
<text text-anchor="middle" x="156.5" y="-119.5" font-family="Helvetica,sans-Serif" font-size="10.00">Cpl/Container/Key.h</text>
</a>
</g>
</g>
<!-- Node6&#45;&gt;Node8 -->
<g id="edge7" class="edge"><title>Node6&#45;&gt;Node8</title>
<path fill="none" stroke="midnightblue" d="M236.237,-168.324C221.279,-159.822 198.245,-146.729 180.773,-136.797"/>
<polygon fill="midnightblue" stroke="midnightblue" points="182.149,-133.553 171.726,-131.655 178.69,-139.639 182.149,-133.553"/>
</g>
<!-- Node6&#45;&gt;Node14 -->
<g id="edge14" class="edge"><title>Node6&#45;&gt;Node14</title>
<path fill="none" stroke="midnightblue" d="M263.229,-168.324C274.337,-160.107 291.242,-147.602 304.483,-137.807"/>
<polygon fill="midnightblue" stroke="midnightblue" points="306.6,-140.595 312.558,-131.834 302.437,-134.967 306.6,-140.595"/>
</g>
<!-- Node15 -->
<g id="node15" class="node"><title>Node15</title>
<g id="a_node15"><a xlink:title=" ">
<polygon fill="white" stroke="#bfbfbf" points="226.5,-112.5 226.5,-131.5 280.5,-131.5 280.5,-112.5 226.5,-112.5"/>
<text text-anchor="middle" x="253.5" y="-119.5" font-family="Helvetica,sans-Serif" font-size="10.00">iostream</text>
</a>
</g>
</g>
<!-- Node6&#45;&gt;Node15 -->
<g id="edge15" class="edge"><title>Node6&#45;&gt;Node15</title>
<path fill="none" stroke="midnightblue" d="M251.83,-168.083C252.092,-161.006 252.468,-150.861 252.797,-141.986"/>
<polygon fill="midnightblue" stroke="midnightblue" points="256.303,-141.874 253.176,-131.751 249.308,-141.615 256.303,-141.874"/>
</g>
<!-- Node8&#45;&gt;Node7 -->
<g id="edge13" class="edge"><title>Node8&#45;&gt;Node7</title>
<path fill="none" stroke="midnightblue" d="M137.803,-112.444C118.556,-103.636 88.3475,-89.8116 66.2999,-79.722"/>
<polygon fill="midnightblue" stroke="midnightblue" points="67.6595,-76.4951 57.11,-75.5164 64.7466,-82.8603 67.6595,-76.4951"/>
</g>
<!-- Node9 -->
<g id="node9" class="node"><title>Node9</title>
<g id="a_node9"><a xlink:href="_fatal_error_8h.html" target="_top" xlink:title=" ">
<polygon fill="white" stroke="black" points="95.5,-56.5 95.5,-75.5 217.5,-75.5 217.5,-56.5 95.5,-56.5"/>
<text text-anchor="middle" x="156.5" y="-63.5" font-family="Helvetica,sans-Serif" font-size="10.00">Cpl/System/FatalError.h</text>
</a>
</g>
</g>
<!-- Node8&#45;&gt;Node9 -->
<g id="edge8" class="edge"><title>Node8&#45;&gt;Node9</title>
<path fill="none" stroke="midnightblue" d="M156.5,-112.083C156.5,-105.006 156.5,-94.8611 156.5,-85.9865"/>
<polygon fill="midnightblue" stroke="midnightblue" points="160,-85.751 156.5,-75.7511 153,-85.7511 160,-85.751"/>
</g>
<!-- Node12 -->
<g id="node12" class="node"><title>Node12</title>
<g id="a_node12"><a xlink:title=" ">
<polygon fill="white" stroke="#bfbfbf" points="236,-56.5 236,-75.5 285,-75.5 285,-56.5 236,-56.5"/>
<text text-anchor="middle" x="260.5" y="-63.5" font-family="Helvetica,sans-Serif" font-size="10.00">stdint.h</text>
</a>
</g>
</g>
<!-- Node8&#45;&gt;Node12 -->
<g id="edge11" class="edge"><title>Node8&#45;&gt;Node12</title>
<path fill="none" stroke="midnightblue" d="M173.209,-112.324C189.812,-103.703 215.502,-90.3643 234.72,-80.3855"/>
<polygon fill="midnightblue" stroke="midnightblue" points="236.57,-83.3689 243.832,-75.6545 233.344,-77.1565 236.57,-83.3689"/>
</g>
<!-- Node13 -->
<g id="node13" class="node"><title>Node13</title>
<g id="a_node13"><a xlink:title=" ">
<polygon fill="white" stroke="#bfbfbf" points="303,-56.5 303,-75.5 352,-75.5 352,-56.5 303,-56.5"/>
<text text-anchor="middle" x="327.5" y="-63.5" font-family="Helvetica,sans-Serif" font-size="10.00">string.h</text>
</a>
</g>
</g>
<!-- Node8&#45;&gt;Node13 -->
<g id="edge12" class="edge"><title>Node8&#45;&gt;Node13</title>
<path fill="none" stroke="midnightblue" d="M183.595,-112.444C213.168,-103.105 260.596,-88.1276 292.854,-77.9409"/>
<polygon fill="midnightblue" stroke="midnightblue" points="294.27,-81.164 302.752,-74.8151 292.162,-74.4889 294.27,-81.164"/>
</g>
<!-- Node10 -->
<g id="node10" class="node"><title>Node10</title>
<g id="a_node10"><a xlink:title=" ">
<polygon fill="white" stroke="#bfbfbf" points="86.5,-0.5 86.5,-19.5 138.5,-19.5 138.5,-0.5 86.5,-0.5"/>
<text text-anchor="middle" x="112.5" y="-7.5" font-family="Helvetica,sans-Serif" font-size="10.00">stddef.h</text>
</a>
</g>
</g>
<!-- Node9&#45;&gt;Node10 -->
<g id="edge9" class="edge"><title>Node9&#45;&gt;Node10</title>
<path fill="none" stroke="midnightblue" d="M149.234,-56.083C142.955,-48.3768 133.712,-37.0333 126.069,-27.6531"/>
<polygon fill="midnightblue" stroke="midnightblue" points="128.661,-25.2926 119.631,-19.7511 123.234,-29.7143 128.661,-25.2926"/>
</g>
<!-- Node11 -->
<g id="node11" class="node"><title>Node11</title>
<g id="a_node11"><a xlink:title=" ">
<polygon fill="white" stroke="#bfbfbf" points="157,-0.5 157,-19.5 242,-19.5 242,-0.5 157,-0.5"/>
<text text-anchor="middle" x="199.5" y="-7.5" font-family="Helvetica,sans-Serif" font-size="10.00">colony_config.h</text>
</a>
</g>
</g>
<!-- Node9&#45;&gt;Node11 -->
<g id="edge10" class="edge"><title>Node9&#45;&gt;Node11</title>
<path fill="none" stroke="midnightblue" d="M163.601,-56.083C169.737,-48.3768 178.77,-37.0333 186.239,-27.6531"/>
<polygon fill="midnightblue" stroke="midnightblue" points="189.04,-29.7542 192.532,-19.7511 183.564,-25.3936 189.04,-29.7542"/>
</g>
<!-- Node17 -->
<g id="node17" class="node"><title>Node17</title>
<g id="a_node17"><a xlink:href="_item_8h.html" target="_top" xlink:title=" ">
<polygon fill="white" stroke="black" points="368.5,-112.5 368.5,-131.5 474.5,-131.5 474.5,-112.5 368.5,-112.5"/>
<text text-anchor="middle" x="421.5" y="-119.5" font-family="Helvetica,sans-Serif" font-size="10.00">Cpl/Container/Item.h</text>
</a>
</g>
</g>
<!-- Node16&#45;&gt;Node17 -->
<g id="edge17" class="edge"><title>Node16&#45;&gt;Node17</title>
<path fill="none" stroke="midnightblue" d="M396.454,-168.083C400.604,-160.613 406.653,-149.724 411.767,-140.52"/>
<polygon fill="midnightblue" stroke="midnightblue" points="414.841,-142.192 416.638,-131.751 408.722,-138.793 414.841,-142.192"/>
</g>
</g>
</svg>
