<?xml version="1.0" encoding="UTF-8" standalone="no"?>
<!DOCTYPE svg PUBLIC "-//W3C//DTD SVG 1.1//EN"
 "http://www.w3.org/Graphics/SVG/1.1/DTD/svg11.dtd">
<!-- Generated by graphviz version 2.38.0 (20140413.2041)
 -->
<!-- Title: Cpl/Text/Frame/StringEncoder.h Pages: 1 -->
<svg width="442pt" height="252pt"
 viewBox="0.00 0.00 441.50 252.00" xmlns="http://www.w3.org/2000/svg" xmlns:xlink="http://www.w3.org/1999/xlink">
<g id="graph0" class="graph" transform="scale(1 1) rotate(0) translate(4 248)">
<title>Cpl/Text/Frame/StringEncoder.h</title>
<polygon fill="white" stroke="none" points="-4,4 -4,-248 437.5,-248 437.5,4 -4,4"/>
<!-- Node1 -->
<g id="node1" class="node"><title>Node1</title>
<g id="a_node1"><a xlink:title=" ">
<polygon fill="#bfbfbf" stroke="black" points="84,-224.5 84,-243.5 241,-243.5 241,-224.5 84,-224.5"/>
<text text-anchor="middle" x="162.5" y="-231.5" font-family="Helvetica,sans-Serif" font-size="10.00">Cpl/Text/Frame/StringEncoder.h</text>
</a>
</g>
</g>
<!-- Node2 -->
<g id="node2" class="node"><title>Node2</title>
<g id="a_node2"><a xlink:href="_encoder___8h.html" target="_top" xlink:title=" ">
<polygon fill="white" stroke="black" points="18,-168.5 18,-187.5 155,-187.5 155,-168.5 18,-168.5"/>
<text text-anchor="middle" x="86.5" y="-175.5" font-family="Helvetica,sans-Serif" font-size="10.00">Cpl/Text/Frame/Encoder_.h</text>
</a>
</g>
</g>
<!-- Node1&#45;&gt;Node2 -->
<g id="edge1" class="edge"><title>Node1&#45;&gt;Node2</title>
<path fill="none" stroke="midnightblue" d="M150.289,-224.324C138.724,-216.107 121.125,-203.602 107.339,-193.807"/>
<polygon fill="midnightblue" stroke="midnightblue" points="109.112,-190.773 98.9329,-187.834 105.057,-196.479 109.112,-190.773"/>
</g>
<!-- Node5 -->
<g id="node5" class="node"><title>Node5</title>
<g id="a_node5"><a xlink:href="_string_8h.html" target="_top" xlink:title=" ">
<polygon fill="white" stroke="black" points="194.5,-168.5 194.5,-187.5 284.5,-187.5 284.5,-168.5 194.5,-168.5"/>
<text text-anchor="middle" x="239.5" y="-175.5" font-family="Helvetica,sans-Serif" font-size="10.00">Cpl/Text/String.h</text>
</a>
</g>
</g>
<!-- Node1&#45;&gt;Node5 -->
<g id="edge4" class="edge"><title>Node1&#45;&gt;Node5</title>
<path fill="none" stroke="midnightblue" d="M174.871,-224.324C186.658,-216.058 204.632,-203.453 218.636,-193.632"/>
<polygon fill="midnightblue" stroke="midnightblue" points="220.982,-196.262 227.159,-187.655 216.962,-190.531 220.982,-196.262"/>
</g>
<!-- Node3 -->
<g id="node3" class="node"><title>Node3</title>
<g id="a_node3"><a xlink:href="_encoder_8h.html" target="_top" xlink:title=" ">
<polygon fill="white" stroke="black" points="0,-112.5 0,-131.5 131,-131.5 131,-112.5 0,-112.5"/>
<text text-anchor="middle" x="65.5" y="-119.5" font-family="Helvetica,sans-Serif" font-size="10.00">Cpl/Text/Frame/Encoder.h</text>
</a>
</g>
</g>
<!-- Node2&#45;&gt;Node3 -->
<g id="edge2" class="edge"><title>Node2&#45;&gt;Node3</title>
<path fill="none" stroke="midnightblue" d="M83.0323,-168.083C80.1883,-160.77 76.0705,-150.181 72.5402,-141.103"/>
<polygon fill="midnightblue" stroke="midnightblue" points="75.7897,-139.803 68.9032,-131.751 69.2657,-142.34 75.7897,-139.803"/>
</g>
<!-- Node4 -->
<g id="node4" class="node"><title>Node4</title>
<g id="a_node4"><a xlink:title=" ">
<polygon fill="white" stroke="#bfbfbf" points="41.5,-56.5 41.5,-75.5 89.5,-75.5 89.5,-56.5 41.5,-56.5"/>
<text text-anchor="middle" x="65.5" y="-63.5" font-family="Helvetica,sans-Serif" font-size="10.00">stdlib.h</text>
</a>
</g>
</g>
<!-- Node3&#45;&gt;Node4 -->
<g id="edge3" class="edge"><title>Node3&#45;&gt;Node4</title>
<path fill="none" stroke="midnightblue" d="M65.5,-112.083C65.5,-105.006 65.5,-94.8611 65.5,-85.9865"/>
<polygon fill="midnightblue" stroke="midnightblue" points="69.0001,-85.751 65.5,-75.7511 62.0001,-85.7511 69.0001,-85.751"/>
</g>
<!-- Node6 -->
<g id="node6" class="node"><title>Node6</title>
<g id="a_node6"><a xlink:title=" ">
<polygon fill="white" stroke="#bfbfbf" points="114,-56.5 114,-75.5 191,-75.5 191,-56.5 114,-56.5"/>
<text text-anchor="middle" x="152.5" y="-63.5" font-family="Helvetica,sans-Serif" font-size="10.00">colony_map.h</text>
</a>
</g>
</g>
<!-- Node5&#45;&gt;Node6 -->
<g id="edge5" class="edge"><title>Node5&#45;&gt;Node6</title>
<path fill="none" stroke="midnightblue" d="M223.264,-168.435C209.69,-160.555 190.65,-147.725 178.5,-132 167.828,-118.188 160.947,-99.4177 156.963,-85.5982"/>
<polygon fill="midnightblue" stroke="midnightblue" points="160.305,-84.5436 154.371,-75.766 153.536,-86.3278 160.305,-84.5436"/>
</g>
<!-- Node7 -->
<g id="node7" class="node"><title>Node7</title>
<g id="a_node7"><a xlink:href="_key_8h.html" target="_top" xlink:title=" ">
<polygon fill="white" stroke="black" points="187.5,-112.5 187.5,-131.5 291.5,-131.5 291.5,-112.5 187.5,-112.5"/>
<text text-anchor="middle" x="239.5" y="-119.5" font-family="Helvetica,sans-Serif" font-size="10.00">Cpl/Container/Key.h</text>
</a>
</g>
</g>
<!-- Node5&#45;&gt;Node7 -->
<g id="edge6" class="edge"><title>Node5&#45;&gt;Node7</title>
<path fill="none" stroke="midnightblue" d="M234.334,-168.083C232.824,-160.927 232.394,-150.635 233.042,-141.691"/>
<polygon fill="midnightblue" stroke="midnightblue" points="236.515,-142.126 234.369,-131.751 229.577,-141.2 236.515,-142.126"/>
</g>
<!-- Node12 -->
<g id="node12" class="node"><title>Node12</title>
<g id="a_node12"><a xlink:title=" ">
<polygon fill="white" stroke="#bfbfbf" points="309.5,-112.5 309.5,-131.5 361.5,-131.5 361.5,-112.5 309.5,-112.5"/>
<text text-anchor="middle" x="335.5" y="-119.5" font-family="Helvetica,sans-Serif" font-size="10.00">stdarg.h</text>
</a>
</g>
</g>
<!-- Node5&#45;&gt;Node12 -->
<g id="edge13" class="edge"><title>Node5&#45;&gt;Node12</title>
<path fill="none" stroke="midnightblue" d="M254.924,-168.324C270.04,-159.822 293.315,-146.729 310.971,-136.797"/>
<polygon fill="midnightblue" stroke="midnightblue" points="313.114,-139.608 320.114,-131.655 309.683,-133.507 313.114,-139.608"/>
</g>
<!-- Node13 -->
<g id="node13" class="node"><title>Node13</title>
<g id="a_node13"><a xlink:title=" ">
<polygon fill="white" stroke="#bfbfbf" points="379.5,-112.5 379.5,-131.5 433.5,-131.5 433.5,-112.5 379.5,-112.5"/>
<text text-anchor="middle" x="406.5" y="-119.5" font-family="Helvetica,sans-Serif" font-size="10.00">iostream</text>
</a>
</g>
</g>
<!-- Node5&#45;&gt;Node13 -->
<g id="edge14" class="edge"><title>Node5&#45;&gt;Node13</title>
<path fill="none" stroke="midnightblue" d="M265.962,-168.444C294.178,-159.32 339.04,-144.813 370.468,-134.651"/>
<polygon fill="midnightblue" stroke="midnightblue" points="371.724,-137.923 380.162,-131.516 369.57,-131.263 371.724,-137.923"/>
</g>
<!-- Node7&#45;&gt;Node5 -->
<g id="edge11" class="edge"><title>Node7&#45;&gt;Node5</title>
<path fill="none" stroke="midnightblue" d="M244.631,-131.751C246.157,-138.858 246.604,-149.136 245.972,-158.101"/>
<polygon fill="midnightblue" stroke="midnightblue" points="242.493,-157.713 244.666,-168.083 249.434,-158.622 242.493,-157.713"/>
</g>
<!-- Node7&#45;&gt;Node6 -->
<g id="edge12" class="edge"><title>Node7&#45;&gt;Node6</title>
<path fill="none" stroke="midnightblue" d="M225.522,-112.324C211.95,-103.9 191.12,-90.9709 175.175,-81.0741"/>
<polygon fill="midnightblue" stroke="midnightblue" points="176.786,-77.9544 166.443,-75.6545 173.094,-83.9019 176.786,-77.9544"/>
</g>
<!-- Node8 -->
<g id="node8" class="node"><title>Node8</title>
<g id="a_node8"><a xlink:href="_fatal_error_8h.html" target="_top" xlink:title=" ">
<polygon fill="white" stroke="black" points="209.5,-56.5 209.5,-75.5 331.5,-75.5 331.5,-56.5 209.5,-56.5"/>
<text text-anchor="middle" x="270.5" y="-63.5" font-family="Helvetica,sans-Serif" font-size="10.00">Cpl/System/FatalError.h</text>
</a>
</g>
</g>
<!-- Node7&#45;&gt;Node8 -->
<g id="edge7" class="edge"><title>Node7&#45;&gt;Node8</title>
<path fill="none" stroke="midnightblue" d="M244.619,-112.083C248.908,-104.613 255.158,-93.7244 260.442,-84.5199"/>
<polygon fill="midnightblue" stroke="midnightblue" points="263.533,-86.1662 265.476,-75.7511 257.462,-82.6811 263.533,-86.1662"/>
</g>
<!-- Node11 -->
<g id="node11" class="node"><title>Node11</title>
<g id="a_node11"><a xlink:title=" ">
<polygon fill="white" stroke="#bfbfbf" points="350,-56.5 350,-75.5 399,-75.5 399,-56.5 350,-56.5"/>
<text text-anchor="middle" x="374.5" y="-63.5" font-family="Helvetica,sans-Serif" font-size="10.00">stdint.h</text>
</a>
</g>
</g>
<!-- Node7&#45;&gt;Node11 -->
<g id="edge10" class="edge"><title>Node7&#45;&gt;Node11</title>
<path fill="none" stroke="midnightblue" d="M260.891,-112.444C283.207,-103.517 318.403,-89.4387 343.708,-79.3168"/>
<polygon fill="midnightblue" stroke="midnightblue" points="345.224,-82.4801 353.209,-75.5164 342.624,-75.9807 345.224,-82.4801"/>
</g>
<!-- Node9 -->
<g id="node9" class="node"><title>Node9</title>
<g id="a_node9"><a xlink:title=" ">
<polygon fill="white" stroke="#bfbfbf" points="200.5,-0.5 200.5,-19.5 252.5,-19.5 252.5,-0.5 200.5,-0.5"/>
<text text-anchor="middle" x="226.5" y="-7.5" font-family="Helvetica,sans-Serif" font-size="10.00">stddef.h</text>
</a>
</g>
</g>
<!-- Node8&#45;&gt;Node9 -->
<g id="edge8" class="edge"><title>Node8&#45;&gt;Node9</title>
<path fill="none" stroke="midnightblue" d="M263.234,-56.083C256.955,-48.3768 247.712,-37.0333 240.069,-27.6531"/>
<polygon fill="midnightblue" stroke="midnightblue" points="242.661,-25.2926 233.631,-19.7511 237.234,-29.7143 242.661,-25.2926"/>
</g>
<!-- Node10 -->
<g id="node10" class="node"><title>Node10</title>
<g id="a_node10"><a xlink:title=" ">
<polygon fill="white" stroke="#bfbfbf" points="271,-0.5 271,-19.5 356,-19.5 356,-0.5 271,-0.5"/>
<text text-anchor="middle" x="313.5" y="-7.5" font-family="Helvetica,sans-Serif" font-size="10.00">colony_config.h</text>
</a>
</g>
</g>
<!-- Node8&#45;&gt;Node10 -->
<g id="edge9" class="edge"><title>Node8&#45;&gt;Node10</title>
<path fill="none" stroke="midnightblue" d="M277.601,-56.083C283.737,-48.3768 292.77,-37.0333 300.239,-27.6531"/>
<polygon fill="midnightblue" stroke="midnightblue" points="303.04,-29.7542 306.532,-19.7511 297.564,-25.3936 303.04,-29.7542"/>
</g>
</g>
</svg>
