<?xml version="1.0" encoding="UTF-8" standalone="no"?>
<!DOCTYPE svg PUBLIC "-//W3C//DTD SVG 1.1//EN"
 "http://www.w3.org/Graphics/SVG/1.1/DTD/svg11.dtd">
<!-- Generated by graphviz version 2.38.0 (20140413.2041)
 -->
<!-- Title: Cpl/Text/Frame/StringDecoder.h Pages: 1 -->
<svg width="456pt" height="252pt"
 viewBox="0.00 0.00 456.00 252.00" xmlns="http://www.w3.org/2000/svg" xmlns:xlink="http://www.w3.org/1999/xlink">
<g id="graph0" class="graph" transform="scale(1 1) rotate(0) translate(4 248)">
<title>Cpl/Text/Frame/StringDecoder.h</title>
<polygon fill="white" stroke="none" points="-4,4 -4,-248 452,-248 452,4 -4,4"/>
<!-- Node1 -->
<g id="node1" class="node"><title>Node1</title>
<g id="a_node1"><a xlink:title=" ">
<polygon fill="#bfbfbf" stroke="black" points="91,-224.5 91,-243.5 248,-243.5 248,-224.5 91,-224.5"/>
<text text-anchor="middle" x="169.5" y="-231.5" font-family="Helvetica,sans-Serif" font-size="10.00">Cpl/Text/Frame/StringDecoder.h</text>
</a>
</g>
</g>
<!-- Node2 -->
<g id="node2" class="node"><title>Node2</title>
<g id="a_node2"><a xlink:href="_decoder___8h.html" target="_top" xlink:title=" ">
<polygon fill="white" stroke="black" points="23,-168.5 23,-187.5 160,-187.5 160,-168.5 23,-168.5"/>
<text text-anchor="middle" x="91.5" y="-175.5" font-family="Helvetica,sans-Serif" font-size="10.00">Cpl/Text/Frame/Decoder_.h</text>
</a>
</g>
</g>
<!-- Node1&#45;&gt;Node2 -->
<g id="edge1" class="edge"><title>Node1&#45;&gt;Node2</title>
<path fill="none" stroke="midnightblue" d="M156.968,-224.324C144.914,-215.979 126.473,-203.212 112.231,-193.352"/>
<polygon fill="midnightblue" stroke="midnightblue" points="114.215,-190.469 104.001,-187.655 110.231,-196.224 114.215,-190.469"/>
</g>
<!-- Node5 -->
<g id="node5" class="node"><title>Node5</title>
<g id="a_node5"><a xlink:href="_text_2_string_8h.html" target="_top" xlink:title=" ">
<polygon fill="white" stroke="black" points="203.5,-168.5 203.5,-187.5 293.5,-187.5 293.5,-168.5 203.5,-168.5"/>
<text text-anchor="middle" x="248.5" y="-175.5" font-family="Helvetica,sans-Serif" font-size="10.00">Cpl/Text/String.h</text>
</a>
</g>
</g>
<!-- Node1&#45;&gt;Node5 -->
<g id="edge4" class="edge"><title>Node1&#45;&gt;Node5</title>
<path fill="none" stroke="midnightblue" d="M182.193,-224.324C194.401,-215.979 213.078,-203.212 227.503,-193.352"/>
<polygon fill="midnightblue" stroke="midnightblue" points="229.558,-196.187 235.839,-187.655 225.608,-190.408 229.558,-196.187"/>
</g>
<!-- Node3 -->
<g id="node3" class="node"><title>Node3</title>
<g id="a_node3"><a xlink:href="_decoder_8h.html" target="_top" xlink:title=" ">
<polygon fill="white" stroke="black" points="0,-112.5 0,-131.5 131,-131.5 131,-112.5 0,-112.5"/>
<text text-anchor="middle" x="65.5" y="-119.5" font-family="Helvetica,sans-Serif" font-size="10.00">Cpl/Text/Frame/Decoder.h</text>
</a>
</g>
</g>
<!-- Node2&#45;&gt;Node3 -->
<g id="edge2" class="edge"><title>Node2&#45;&gt;Node3</title>
<path fill="none" stroke="midnightblue" d="M87.2066,-168.083C83.6477,-160.691 78.4775,-149.953 74.0757,-140.811"/>
<polygon fill="midnightblue" stroke="midnightblue" points="77.2052,-139.243 69.7135,-131.751 70.8982,-142.279 77.2052,-139.243"/>
</g>
<!-- Node4 -->
<g id="node4" class="node"><title>Node4</title>
<g id="a_node4"><a xlink:title=" ">
<polygon fill="white" stroke="#bfbfbf" points="29.5,-56.5 29.5,-75.5 77.5,-75.5 77.5,-56.5 29.5,-56.5"/>
<text text-anchor="middle" x="53.5" y="-63.5" font-family="Helvetica,sans-Serif" font-size="10.00">stdlib.h</text>
</a>
</g>
</g>
<!-- Node3&#45;&gt;Node4 -->
<g id="edge3" class="edge"><title>Node3&#45;&gt;Node4</title>
<path fill="none" stroke="midnightblue" d="M63.5184,-112.083C61.9283,-104.927 59.6412,-94.6353 57.6536,-85.6911"/>
<polygon fill="midnightblue" stroke="midnightblue" points="61.0307,-84.7537 55.4447,-75.7511 54.1974,-86.2722 61.0307,-84.7537"/>
</g>
<!-- Node6 -->
<g id="node6" class="node"><title>Node6</title>
<g id="a_node6"><a xlink:title=" ">
<polygon fill="white" stroke="#bfbfbf" points="96,-56.5 96,-75.5 173,-75.5 173,-56.5 96,-56.5"/>
<text text-anchor="middle" x="134.5" y="-63.5" font-family="Helvetica,sans-Serif" font-size="10.00">colony_map.h</text>
</a>
</g>
</g>
<!-- Node5&#45;&gt;Node6 -->
<g id="edge5" class="edge"><title>Node5&#45;&gt;Node6</title>
<path fill="none" stroke="midnightblue" d="M234.652,-168.247C221.764,-159.773 202.364,-146.161 187.5,-132 171.911,-117.148 156.647,-97.7662 146.534,-84.0431"/>
<polygon fill="midnightblue" stroke="midnightblue" points="149.108,-81.6289 140.416,-75.5717 143.434,-85.7276 149.108,-81.6289"/>
</g>
<!-- Node7 -->
<g id="node7" class="node"><title>Node7</title>
<g id="a_node7"><a xlink:href="_key_8h.html" target="_top" xlink:title=" ">
<polygon fill="white" stroke="black" points="196.5,-112.5 196.5,-131.5 300.5,-131.5 300.5,-112.5 196.5,-112.5"/>
<text text-anchor="middle" x="248.5" y="-119.5" font-family="Helvetica,sans-Serif" font-size="10.00">Cpl/Container/Key.h</text>
</a>
</g>
</g>
<!-- Node5&#45;&gt;Node7 -->
<g id="edge6" class="edge"><title>Node5&#45;&gt;Node7</title>
<path fill="none" stroke="midnightblue" d="M248.5,-168.083C248.5,-161.006 248.5,-150.861 248.5,-141.986"/>
<polygon fill="midnightblue" stroke="midnightblue" points="252,-141.751 248.5,-131.751 245,-141.751 252,-141.751"/>
</g>
<!-- Node13 -->
<g id="node13" class="node"><title>Node13</title>
<g id="a_node13"><a xlink:title=" ">
<polygon fill="white" stroke="#bfbfbf" points="318.5,-112.5 318.5,-131.5 370.5,-131.5 370.5,-112.5 318.5,-112.5"/>
<text text-anchor="middle" x="344.5" y="-119.5" font-family="Helvetica,sans-Serif" font-size="10.00">stdarg.h</text>
</a>
</g>
</g>
<!-- Node5&#45;&gt;Node13 -->
<g id="edge13" class="edge"><title>Node5&#45;&gt;Node13</title>
<path fill="none" stroke="midnightblue" d="M263.924,-168.324C279.04,-159.822 302.315,-146.729 319.971,-136.797"/>
<polygon fill="midnightblue" stroke="midnightblue" points="322.114,-139.608 329.114,-131.655 318.683,-133.507 322.114,-139.608"/>
</g>
<!-- Node14 -->
<g id="node14" class="node"><title>Node14</title>
<g id="a_node14"><a xlink:title=" ">
<polygon fill="white" stroke="#bfbfbf" points="388.5,-112.5 388.5,-131.5 442.5,-131.5 442.5,-112.5 388.5,-112.5"/>
<text text-anchor="middle" x="415.5" y="-119.5" font-family="Helvetica,sans-Serif" font-size="10.00">iostream</text>
</a>
</g>
</g>
<!-- Node5&#45;&gt;Node14 -->
<g id="edge14" class="edge"><title>Node5&#45;&gt;Node14</title>
<path fill="none" stroke="midnightblue" d="M274.962,-168.444C303.178,-159.32 348.04,-144.813 379.468,-134.651"/>
<polygon fill="midnightblue" stroke="midnightblue" points="380.724,-137.923 389.162,-131.516 378.57,-131.263 380.724,-137.923"/>
</g>
<!-- Node7&#45;&gt;Node6 -->
<g id="edge12" class="edge"><title>Node7&#45;&gt;Node6</title>
<path fill="none" stroke="midnightblue" d="M230.436,-112.444C211.925,-103.675 182.919,-89.9355 161.645,-79.8579"/>
<polygon fill="midnightblue" stroke="midnightblue" points="163.015,-76.6343 152.479,-75.5164 160.018,-82.9604 163.015,-76.6343"/>
</g>
<!-- Node8 -->
<g id="node8" class="node"><title>Node8</title>
<g id="a_node8"><a xlink:href="_fatal_error_8h.html" target="_top" xlink:title=" ">
<polygon fill="white" stroke="black" points="191.5,-56.5 191.5,-75.5 313.5,-75.5 313.5,-56.5 191.5,-56.5"/>
<text text-anchor="middle" x="252.5" y="-63.5" font-family="Helvetica,sans-Serif" font-size="10.00">Cpl/System/FatalError.h</text>
</a>
</g>
</g>
<!-- Node7&#45;&gt;Node8 -->
<g id="edge7" class="edge"><title>Node7&#45;&gt;Node8</title>
<path fill="none" stroke="midnightblue" d="M249.161,-112.083C249.685,-105.006 250.436,-94.8611 251.094,-85.9865"/>
<polygon fill="midnightblue" stroke="midnightblue" points="254.603,-85.9823 251.852,-75.7511 247.623,-85.4652 254.603,-85.9823"/>
</g>
<!-- Node11 -->
<g id="node11" class="node"><title>Node11</title>
<g id="a_node11"><a xlink:title=" ">
<polygon fill="white" stroke="#bfbfbf" points="332,-56.5 332,-75.5 381,-75.5 381,-56.5 332,-56.5"/>
<text text-anchor="middle" x="356.5" y="-63.5" font-family="Helvetica,sans-Serif" font-size="10.00">stdint.h</text>
</a>
</g>
</g>
<!-- Node7&#45;&gt;Node11 -->
<g id="edge10" class="edge"><title>Node7&#45;&gt;Node11</title>
<path fill="none" stroke="midnightblue" d="M265.852,-112.324C283.172,-103.664 310.015,-90.2424 330.002,-80.249"/>
<polygon fill="midnightblue" stroke="midnightblue" points="331.812,-83.2572 339.191,-75.6545 328.681,-76.9962 331.812,-83.2572"/>
</g>
<!-- Node12 -->
<g id="node12" class="node"><title>Node12</title>
<g id="a_node12"><a xlink:title=" ">
<polygon fill="white" stroke="#bfbfbf" points="399,-56.5 399,-75.5 448,-75.5 448,-56.5 399,-56.5"/>
<text text-anchor="middle" x="423.5" y="-63.5" font-family="Helvetica,sans-Serif" font-size="10.00">string.h</text>
</a>
</g>
</g>
<!-- Node7&#45;&gt;Node12 -->
<g id="edge11" class="edge"><title>Node7&#45;&gt;Node12</title>
<path fill="none" stroke="midnightblue" d="M276.229,-112.444C306.799,-103.011 356.013,-87.8245 389.039,-77.6337"/>
<polygon fill="midnightblue" stroke="midnightblue" points="390.207,-80.9363 398.73,-74.6433 388.143,-74.2475 390.207,-80.9363"/>
</g>
<!-- Node9 -->
<g id="node9" class="node"><title>Node9</title>
<g id="a_node9"><a xlink:title=" ">
<polygon fill="white" stroke="#bfbfbf" points="182.5,-0.5 182.5,-19.5 234.5,-19.5 234.5,-0.5 182.5,-0.5"/>
<text text-anchor="middle" x="208.5" y="-7.5" font-family="Helvetica,sans-Serif" font-size="10.00">stddef.h</text>
</a>
</g>
</g>
<!-- Node8&#45;&gt;Node9 -->
<g id="edge8" class="edge"><title>Node8&#45;&gt;Node9</title>
<path fill="none" stroke="midnightblue" d="M245.234,-56.083C238.955,-48.3768 229.712,-37.0333 222.069,-27.6531"/>
<polygon fill="midnightblue" stroke="midnightblue" points="224.661,-25.2926 215.631,-19.7511 219.234,-29.7143 224.661,-25.2926"/>
</g>
<!-- Node10 -->
<g id="node10" class="node"><title>Node10</title>
<g id="a_node10"><a xlink:title=" ">
<polygon fill="white" stroke="#bfbfbf" points="253,-0.5 253,-19.5 338,-19.5 338,-0.5 253,-0.5"/>
<text text-anchor="middle" x="295.5" y="-7.5" font-family="Helvetica,sans-Serif" font-size="10.00">colony_config.h</text>
</a>
</g>
</g>
<!-- Node8&#45;&gt;Node10 -->
<g id="edge9" class="edge"><title>Node8&#45;&gt;Node10</title>
<path fill="none" stroke="midnightblue" d="M259.601,-56.083C265.737,-48.3768 274.77,-37.0333 282.239,-27.6531"/>
<polygon fill="midnightblue" stroke="midnightblue" points="285.04,-29.7542 288.532,-19.7511 279.564,-25.3936 285.04,-29.7542"/>
</g>
</g>
</svg>
