<?xml version="1.0" encoding="UTF-8" standalone="no"?>
<!DOCTYPE svg PUBLIC "-//W3C//DTD SVG 1.1//EN"
 "http://www.w3.org/Graphics/SVG/1.1/DTD/svg11.dtd">
<!-- Generated by graphviz version 10.0.1 (20240210.2158)
 -->
<!-- Title: Cpl/Itc/SyncReturnHandler.h Pages: 1 -->
<svg width="182pt" height="140pt"
 viewBox="0.00 0.00 182.38 140.00" xmlns="http://www.w3.org/2000/svg" xmlns:xlink="http://www.w3.org/1999/xlink">
<g id="graph0" class="graph" transform="scale(1 1) rotate(0) translate(4 136)">
<title>Cpl/Itc/SyncReturnHandler.h</title>
<!-- Node1 -->
<g id="Node000001" class="node">
<title>Node1</title>
<g id="a_Node000001"><a xlink:title=" ">
<polygon fill="#999999" stroke="#666666" points="174.38,-132 35.38,-132 35.38,-112 174.38,-112 174.38,-132"/>
<text text-anchor="middle" x="104.88" y="-118.5" font-family="Helvetica,sans-Serif" font-size="10.00">Cpl/Itc/SyncReturnHandler.h</text>
</a>
</g>
</g>
<!-- Node2 -->
<g id="Node000002" class="node">
<title>Node2</title>
<g id="a_Node000002"><a xlink:href="_atomic_request_8h.html" target="_top" xlink:title=" ">
<polygon fill="white" stroke="#666666" points="121.75,-76 0,-76 0,-56 121.75,-56 121.75,-76"/>
<text text-anchor="middle" x="60.88" y="-62.5" font-family="Helvetica,sans-Serif" font-size="10.00">Cpl/Itc/AtomicRequest.h</text>
</a>
</g>
</g>
<!-- Node1&#45;&gt;Node2 -->
<g id="edge1_Node000001_Node000002" class="edge">
<title>Node1&#45;&gt;Node2</title>
<g id="a_edge1_Node000001_Node000002"><a xlink:title=" ">
<path fill="none" stroke="#63b8ff" d="M89.98,-102.72C82.74,-93.84 74.36,-83.55 68.45,-76.3"/>
<polygon fill="#63b8ff" stroke="#63b8ff" points="87.22,-104.88 96.25,-110.42 92.65,-100.46 87.22,-104.88"/>
</a>
</g>
</g>
<!-- Node3 -->
<g id="Node000003" class="node">
<title>Node3</title>
<g id="a_Node000003"><a xlink:href="_atomic_sync_8h.html" target="_top" xlink:title=" ">
<polygon fill="white" stroke="#666666" points="159,-20 50.75,-20 50.75,0 159,0 159,-20"/>
<text text-anchor="middle" x="104.88" y="-6.5" font-family="Helvetica,sans-Serif" font-size="10.00">Cpl/Itc/AtomicSync.h</text>
</a>
</g>
</g>
<!-- Node1&#45;&gt;Node3 -->
<g id="edge3_Node000001_Node000003" class="edge">
<title>Node1&#45;&gt;Node3</title>
<g id="a_edge3_Node000001_Node000003"><a xlink:title=" ">
<path fill="none" stroke="#63b8ff" d="M118.66,-102.24C123.53,-94.52 128.4,-85.23 130.88,-76 136.35,-55.57 122.37,-32.89 112.85,-20.45"/>
<polygon fill="#63b8ff" stroke="#63b8ff" points="115.84,-100.17 113.11,-110.4 121.63,-104.1 115.84,-100.17"/>
</a>
</g>
</g>
<!-- Node2&#45;&gt;Node3 -->
<g id="edge2_Node000002_Node000003" class="edge">
<title>Node2&#45;&gt;Node3</title>
<g id="a_edge2_Node000002_Node000003"><a xlink:title=" ">
<path fill="none" stroke="#63b8ff" d="M75.77,-46.72C83.01,-37.84 91.39,-27.55 97.3,-20.3"/>
<polygon fill="#63b8ff" stroke="#63b8ff" points="73.1,-44.46 69.5,-54.42 78.53,-48.88 73.1,-44.46"/>
</a>
</g>
</g>
</g>
</svg>
