<?xml version="1.0" encoding="UTF-8" standalone="no"?>
<!DOCTYPE svg PUBLIC "-//W3C//DTD SVG 1.1//EN"
 "http://www.w3.org/Graphics/SVG/1.1/DTD/svg11.dtd">
<!-- Generated by graphviz version 2.38.0 (20140413.2041)
 -->
<!-- Title: Cpl/Io/Tcp/InputOutput.h Pages: 1 -->
<svg width="366pt" height="140pt"
 viewBox="0.00 0.00 366.00 140.00" xmlns="http://www.w3.org/2000/svg" xmlns:xlink="http://www.w3.org/1999/xlink">
<g id="graph0" class="graph" transform="scale(1 1) rotate(0) translate(4 136)">
<title>Cpl/Io/Tcp/InputOutput.h</title>
<polygon fill="white" stroke="none" points="-4,4 -4,-136 362,-136 362,4 -4,4"/>
<!-- Node1 -->
<g id="node1" class="node"><title>Node1</title>
<g id="a_node1"><a xlink:title=" ">
<polygon fill="#bfbfbf" stroke="black" points="118.5,-112.5 118.5,-131.5 242.5,-131.5 242.5,-112.5 118.5,-112.5"/>
<text text-anchor="middle" x="180.5" y="-119.5" font-family="Helvetica,sans-Serif" font-size="10.00">Cpl/Io/Tcp/InputOutput.h</text>
</a>
</g>
</g>
<!-- Node2 -->
<g id="node2" class="node"><title>Node2</title>
<g id="a_node2"><a xlink:href="_async_connector_8h.html" target="_top" xlink:title=" ">
<polygon fill="white" stroke="black" points="22,-56.5 22,-75.5 167,-75.5 167,-56.5 22,-56.5"/>
<text text-anchor="middle" x="94.5" y="-63.5" font-family="Helvetica,sans-Serif" font-size="10.00">Cpl/Io/Tcp/AsyncConnector.h</text>
</a>
</g>
</g>
<!-- Node1&#45;&gt;Node2 -->
<g id="edge1" class="edge"><title>Node1&#45;&gt;Node2</title>
<path fill="none" stroke="midnightblue" d="M158.045,-106.901C142.276,-96.9986 121.686,-84.0705 108.283,-75.6545"/>
<polygon fill="midnightblue" stroke="midnightblue" points="156.352,-109.97 166.683,-112.324 160.075,-104.042 156.352,-109.97"/>
</g>
<!-- Node4 -->
<g id="node4" class="node"><title>Node4</title>
<g id="a_node4"><a xlink:href="_async_listener_8h.html" target="_top" xlink:title=" ">
<polygon fill="white" stroke="black" points="200,-56.5 200,-75.5 335,-75.5 335,-56.5 200,-56.5"/>
<text text-anchor="middle" x="267.5" y="-63.5" font-family="Helvetica,sans-Serif" font-size="10.00">Cpl/Io/Tcp/AsyncListener.h</text>
</a>
</g>
</g>
<!-- Node1&#45;&gt;Node4 -->
<g id="edge3" class="edge"><title>Node1&#45;&gt;Node4</title>
<path fill="none" stroke="midnightblue" d="M203.216,-106.901C219.169,-96.9986 239.997,-84.0705 253.557,-75.6545"/>
<polygon fill="midnightblue" stroke="midnightblue" points="201.129,-104.077 194.478,-112.324 204.82,-110.024 201.129,-104.077"/>
</g>
<!-- Node3 -->
<g id="node3" class="node"><title>Node3</title>
<g id="a_node3"><a xlink:href="_win32_2_async_connector_8h.html" target="_top" xlink:title=" ">
<polygon fill="white" stroke="black" points="0,-0.5 0,-19.5 175,-19.5 175,-0.5 0,-0.5"/>
<text text-anchor="middle" x="87.5" y="-7.5" font-family="Helvetica,sans-Serif" font-size="10.00">Cpl/Io/Tcp/Win32/AsyncConnector.h</text>
</a>
</g>
</g>
<!-- Node2&#45;&gt;Node3 -->
<g id="edge2" class="edge"><title>Node2&#45;&gt;Node3</title>
<path fill="none" stroke="midnightblue" d="M92.0501,-46.1005C90.888,-37.1357 89.5557,-26.8579 88.6344,-19.7511"/>
<polygon fill="midnightblue" stroke="midnightblue" points="88.5875,-46.6159 93.3441,-56.083 95.5294,-45.716 88.5875,-46.6159"/>
</g>
<!-- Node5 -->
<g id="node5" class="node"><title>Node5</title>
<g id="a_node5"><a xlink:href="_win32_2_async_listener_8h.html" target="_top" xlink:title=" ">
<polygon fill="white" stroke="black" points="193,-0.5 193,-19.5 358,-19.5 358,-0.5 193,-0.5"/>
<text text-anchor="middle" x="275.5" y="-7.5" font-family="Helvetica,sans-Serif" font-size="10.00">Cpl/Io/Tcp/Win32/AsyncListener.h</text>
</a>
</g>
</g>
<!-- Node4&#45;&gt;Node5 -->
<g id="edge4" class="edge"><title>Node4&#45;&gt;Node5</title>
<path fill="none" stroke="midnightblue" d="M270.3,-46.1005C271.628,-37.1357 273.151,-26.8579 274.204,-19.7511"/>
<polygon fill="midnightblue" stroke="midnightblue" points="266.824,-45.678 268.821,-56.083 273.749,-46.7039 266.824,-45.678"/>
</g>
</g>
</svg>
