<?xml version="1.0" encoding="UTF-8" standalone="no"?>
<!DOCTYPE svg PUBLIC "-//W3C//DTD SVG 1.1//EN"
 "http://www.w3.org/Graphics/SVG/1.1/DTD/svg11.dtd">
<!-- Generated by graphviz version 10.0.1 (20240210.2158)
 -->
<!-- Title: Storm/Type/ThermostatMode.h Pages: 1 -->
<svg width="718pt" height="300pt"
 viewBox="0.00 0.00 718.38 300.00" xmlns="http://www.w3.org/2000/svg" xmlns:xlink="http://www.w3.org/1999/xlink">
<g id="graph0" class="graph" transform="scale(1 1) rotate(0) translate(4 296)">
<title>Storm/Type/ThermostatMode.h</title>
<!-- Node1 -->
<g id="Node000001" class="node">
<title>Node1</title>
<g id="a_Node000001"><a xlink:title=" ">
<polygon fill="#999999" stroke="#666666" points="527.38,-292 377.12,-292 377.12,-272 527.38,-272 527.38,-292"/>
<text text-anchor="middle" x="452.25" y="-278.5" font-family="Helvetica,sans-Serif" font-size="10.00">Storm/Type/ThermostatMode.h</text>
</a>
</g>
</g>
<!-- Node2 -->
<g id="Node000002" class="node">
<title>Node2</title>
<g id="a_Node000002"><a xlink:href="_mp_thermostat_mode_8h.html" target="_top" xlink:title=" ">
<polygon fill="white" stroke="#666666" points="454.12,-230 296.38,-230 296.38,-210 454.12,-210 454.12,-230"/>
<text text-anchor="middle" x="375.25" y="-216.5" font-family="Helvetica,sans-Serif" font-size="10.00">Storm/Dm/MpThermostatMode.h</text>
</a>
</g>
</g>
<!-- Node1&#45;&gt;Node2 -->
<g id="edge1_Node000001_Node000002" class="edge">
<title>Node1&#45;&gt;Node2</title>
<g id="a_edge1_Node000001_Node000002"><a xlink:title=" ">
<path fill="none" stroke="#63b8ff" d="M431.19,-264.59C417.05,-253.57 398.92,-239.44 387.2,-230.31"/>
<polygon fill="#63b8ff" stroke="#63b8ff" points="428.99,-267.31 439.02,-270.69 433.29,-261.79 428.99,-267.31"/>
</a>
</g>
</g>
<!-- Node11 -->
<g id="Node000011" class="node">
<title>Node11</title>
<g id="a_Node000011"><a xlink:href="_storm_2_thermostat_2_ui_2_pico_display_2_private___8h.html" target="_top" xlink:title="This file defines the INTERNAL interface used by the UI sub&#45;system.">
<polygon fill="white" stroke="#666666" points="620.5,-236 504,-236 504,-204 620.5,-204 620.5,-236"/>
<text text-anchor="start" x="512" y="-222.5" font-family="Helvetica,sans-Serif" font-size="10.00">Storm/Thermostat/Ui</text>
<text text-anchor="middle" x="562.25" y="-210.5" font-family="Helvetica,sans-Serif" font-size="10.00">/PicoDisplay/Private_.h</text>
</a>
</g>
</g>
<!-- Node1&#45;&gt;Node11 -->
<g id="edge12_Node000001_Node000011" class="edge">
<title>Node1&#45;&gt;Node11</title>
<g id="a_edge12_Node000001_Node000011"><a xlink:title=" ">
<path fill="none" stroke="#63b8ff" d="M479.12,-266.34C495.79,-257.25 517.16,-245.59 534.07,-236.37"/>
<polygon fill="#63b8ff" stroke="#63b8ff" points="477.87,-263.04 470.77,-270.9 481.22,-269.18 477.87,-263.04"/>
</a>
</g>
</g>
<!-- Node3 -->
<g id="Node000003" class="node">
<title>Node3</title>
<g id="a_Node000003"><a xlink:href="_component_2_operating_mode_8h.html" target="_top" xlink:title=" ">
<polygon fill="white" stroke="#666666" points="218.12,-168 78.38,-168 78.38,-136 218.12,-136 218.12,-168"/>
<text text-anchor="start" x="86.38" y="-154.5" font-family="Helvetica,sans-Serif" font-size="10.00">Storm/Component/Operating</text>
<text text-anchor="middle" x="148.25" y="-142.5" font-family="Helvetica,sans-Serif" font-size="10.00">Mode.h</text>
</a>
</g>
</g>
<!-- Node2&#45;&gt;Node3 -->
<g id="edge2_Node000002_Node000003" class="edge">
<title>Node2&#45;&gt;Node3</title>
<g id="a_edge2_Node000002_Node000003"><a xlink:title=" ">
<path fill="none" stroke="#63b8ff" d="M331.75,-206.35C294.59,-195.55 240.99,-179.97 201.31,-168.43"/>
<polygon fill="#63b8ff" stroke="#63b8ff" points="330.69,-209.69 341.27,-209.12 332.65,-202.97 330.69,-209.69"/>
</a>
</g>
</g>
<!-- Node5 -->
<g id="Node000005" class="node">
<title>Node5</title>
<g id="a_Node000005"><a xlink:href="_model_points_8h.html" target="_top" xlink:title="This file defines all of the Model Points for the Thermostat Application.">
<polygon fill="white" stroke="#666666" points="454.88,-162 295.62,-162 295.62,-142 454.88,-142 454.88,-162"/>
<text text-anchor="middle" x="375.25" y="-148.5" font-family="Helvetica,sans-Serif" font-size="10.00">Storm/Thermostat/ModelPoints.h</text>
</a>
</g>
</g>
<!-- Node2&#45;&gt;Node5 -->
<g id="edge4_Node000002_Node000005" class="edge">
<title>Node2&#45;&gt;Node5</title>
<g id="a_edge4_Node000002_Node000005"><a xlink:title=" ">
<path fill="none" stroke="#63b8ff" d="M375.25,-198.28C375.25,-186.27 375.25,-171.74 375.25,-162.44"/>
<polygon fill="#63b8ff" stroke="#63b8ff" points="371.75,-198.03 375.25,-208.03 378.75,-198.03 371.75,-198.03"/>
</a>
</g>
</g>
<!-- Node4 -->
<g id="Node000004" class="node">
<title>Node4</title>
<g id="a_Node000004"><a xlink:href="_algorithm_8h.html" target="_top" xlink:title=" ">
<polygon fill="white" stroke="#666666" points="146.5,-94 0,-94 0,-74 146.5,-74 146.5,-94"/>
<text text-anchor="middle" x="73.25" y="-80.5" font-family="Helvetica,sans-Serif" font-size="10.00">Storm/Thermostat/Algorithm.h</text>
</a>
</g>
</g>
<!-- Node3&#45;&gt;Node4 -->
<g id="edge3_Node000003_Node000004" class="edge">
<title>Node3&#45;&gt;Node4</title>
<g id="a_edge3_Node000003_Node000004"><a xlink:title=" ">
<path fill="none" stroke="#63b8ff" d="M122.54,-128.38C109.29,-116.72 93.86,-103.13 83.84,-94.32"/>
<polygon fill="#63b8ff" stroke="#63b8ff" points="119.9,-130.71 129.72,-134.69 124.52,-125.46 119.9,-130.71"/>
</a>
</g>
</g>
<!-- Node6 -->
<g id="Node000006" class="node">
<title>Node6</title>
<g id="a_Node000006"><a xlink:href="_installer_record_8h_source.html" target="_top" xlink:title=" ">
<polygon fill="white" stroke="#666666" points="282.25,-100 164.25,-100 164.25,-68 282.25,-68 282.25,-100"/>
<text text-anchor="start" x="172.25" y="-86.5" font-family="Helvetica,sans-Serif" font-size="10.00">Storm/Thermostat/Main</text>
<text text-anchor="middle" x="223.25" y="-74.5" font-family="Helvetica,sans-Serif" font-size="10.00">/InstallerRecord.h</text>
</a>
</g>
</g>
<!-- Node5&#45;&gt;Node6 -->
<g id="edge5_Node000005_Node000006" class="edge">
<title>Node5&#45;&gt;Node6</title>
<g id="a_edge5_Node000005_Node000006"><a xlink:title=" ">
<path fill="none" stroke="#63b8ff" d="M343.18,-137.07C318.47,-126.34 284.32,-111.52 258.78,-100.43"/>
<polygon fill="#63b8ff" stroke="#63b8ff" points="341.52,-140.17 352.08,-140.94 344.31,-133.75 341.52,-140.17"/>
</a>
</g>
</g>
<!-- Node8 -->
<g id="Node000008" class="node">
<title>Node8</title>
<g id="a_Node000008"><a xlink:href="_run_time_record_8h_source.html" target="_top" xlink:title=" ">
<polygon fill="white" stroke="#666666" points="418.25,-100 300.25,-100 300.25,-68 418.25,-68 418.25,-100"/>
<text text-anchor="start" x="308.25" y="-86.5" font-family="Helvetica,sans-Serif" font-size="10.00">Storm/Thermostat/Main</text>
<text text-anchor="middle" x="359.25" y="-74.5" font-family="Helvetica,sans-Serif" font-size="10.00">/RunTimeRecord.h</text>
</a>
</g>
</g>
<!-- Node5&#45;&gt;Node8 -->
<g id="edge7_Node000005_Node000008" class="edge">
<title>Node5&#45;&gt;Node8</title>
<g id="a_edge7_Node000005_Node000008"><a xlink:title=" ">
<path fill="none" stroke="#63b8ff" d="M370.26,-130.43C367.9,-120.69 365.13,-109.26 362.96,-100.3"/>
<polygon fill="#63b8ff" stroke="#63b8ff" points="366.84,-131.18 372.6,-140.07 373.65,-129.53 366.84,-131.18"/>
</a>
</g>
</g>
<!-- Node9 -->
<g id="Node000009" class="node">
<title>Node9</title>
<g id="a_Node000009"><a xlink:href="_user_record_8h_source.html" target="_top" xlink:title=" ">
<polygon fill="white" stroke="#666666" points="554.25,-100 436.25,-100 436.25,-68 554.25,-68 554.25,-100"/>
<text text-anchor="start" x="444.25" y="-86.5" font-family="Helvetica,sans-Serif" font-size="10.00">Storm/Thermostat/Main</text>
<text text-anchor="middle" x="495.25" y="-74.5" font-family="Helvetica,sans-Serif" font-size="10.00">/UserRecord.h</text>
</a>
</g>
</g>
<!-- Node5&#45;&gt;Node9 -->
<g id="edge9_Node000005_Node000009" class="edge">
<title>Node5&#45;&gt;Node9</title>
<g id="a_edge9_Node000005_Node000009"><a xlink:title=" ">
<path fill="none" stroke="#63b8ff" d="M402.46,-136.03C421.87,-125.36 447.89,-111.05 467.43,-100.3"/>
<polygon fill="#63b8ff" stroke="#63b8ff" points="400.84,-132.93 393.77,-140.81 404.22,-139.06 400.84,-132.93"/>
</a>
</g>
</g>
<!-- Node10 -->
<g id="Node000010" class="node">
<title>Node10</title>
<g id="a_Node000010"><a xlink:href="_event_monitor_8h_source.html" target="_top" xlink:title=" ">
<polygon fill="white" stroke="#666666" points="710.38,-100 572.12,-100 572.12,-68 710.38,-68 710.38,-100"/>
<text text-anchor="start" x="580.12" y="-86.5" font-family="Helvetica,sans-Serif" font-size="10.00">Storm/Thermostat/Ui</text>
<text text-anchor="middle" x="641.25" y="-74.5" font-family="Helvetica,sans-Serif" font-size="10.00">/PicoDisplay/EventMonitor.h</text>
</a>
</g>
</g>
<!-- Node5&#45;&gt;Node10 -->
<g id="edge11_Node000005_Node000010" class="edge">
<title>Node5&#45;&gt;Node10</title>
<g id="a_edge11_Node000005_Node000010"><a xlink:title=" ">
<path fill="none" stroke="#63b8ff" d="M424.52,-138.78C468.04,-127.98 531.73,-112.17 578.82,-100.49"/>
<polygon fill="#63b8ff" stroke="#63b8ff" points="423.69,-135.37 414.83,-141.18 425.38,-142.17 423.69,-135.37"/>
</a>
</g>
</g>
<!-- Node7 -->
<g id="Node000007" class="node">
<title>Node7</title>
<g id="a_Node000007"><a xlink:href="statics___8h.html" target="_top" xlink:title="This file defines/creates persistent records and record server for the Thermostat simulation.">
<polygon fill="white" stroke="#666666" points="418.25,-32 300.25,-32 300.25,0 418.25,0 418.25,-32"/>
<text text-anchor="start" x="308.25" y="-18.5" font-family="Helvetica,sans-Serif" font-size="10.00">Storm/Thermostat/Main</text>
<text text-anchor="middle" x="359.25" y="-6.5" font-family="Helvetica,sans-Serif" font-size="10.00">/_simulation/statics_.h</text>
</a>
</g>
</g>
<!-- Node6&#45;&gt;Node7 -->
<g id="edge6_Node000006_Node000007" class="edge">
<title>Node6&#45;&gt;Node7</title>
<g id="a_edge6_Node000006_Node000007"><a xlink:title=" ">
<path fill="none" stroke="#63b8ff" d="M265.27,-62.61C285.36,-52.86 309.01,-41.38 327.56,-32.38"/>
<polygon fill="#63b8ff" stroke="#63b8ff" points="263.97,-59.35 256.5,-66.87 267.02,-65.65 263.97,-59.35"/>
</a>
</g>
</g>
<!-- Node8&#45;&gt;Node7 -->
<g id="edge8_Node000008_Node000007" class="edge">
<title>Node8&#45;&gt;Node7</title>
<g id="a_edge8_Node000008_Node000007"><a xlink:title=" ">
<path fill="none" stroke="#63b8ff" d="M359.25,-56.31C359.25,-48.12 359.25,-39.38 359.25,-32.22"/>
<polygon fill="#63b8ff" stroke="#63b8ff" points="355.75,-56.18 359.25,-66.18 362.75,-56.18 355.75,-56.18"/>
</a>
</g>
</g>
<!-- Node9&#45;&gt;Node7 -->
<g id="edge10_Node000009_Node000007" class="edge">
<title>Node9&#45;&gt;Node7</title>
<g id="a_edge10_Node000009_Node000007"><a xlink:title=" ">
<path fill="none" stroke="#63b8ff" d="M453.23,-62.61C433.14,-52.86 409.49,-41.38 390.94,-32.38"/>
<polygon fill="#63b8ff" stroke="#63b8ff" points="451.48,-65.65 462,-66.87 454.53,-59.35 451.48,-65.65"/>
</a>
</g>
</g>
<!-- Node11&#45;&gt;Node10 -->
<g id="edge13_Node000011_Node000010" class="edge">
<title>Node11&#45;&gt;Node10</title>
<g id="a_edge13_Node000011_Node000010"><a xlink:title=" ">
<path fill="none" stroke="#63b8ff" d="M577.04,-193.92C593.28,-166.37 618.84,-123.01 632.29,-100.19"/>
<polygon fill="#63b8ff" stroke="#63b8ff" points="574.14,-191.93 572.08,-202.32 580.17,-195.49 574.14,-191.93"/>
</a>
</g>
</g>
</g>
</svg>
