<?xml version="1.0" encoding="UTF-8" standalone="no"?>
<!DOCTYPE svg PUBLIC "-//W3C//DTD SVG 1.1//EN"
 "http://www.w3.org/Graphics/SVG/1.1/DTD/svg11.dtd">
<!-- Generated by graphviz version 2.38.0 (20140413.2041)
 -->
<!-- Title: Cpl/System/Thread.h Pages: 1 -->
<svg width="3458pt" height="352pt"
 viewBox="0.00 0.00 3457.50 352.00" xmlns="http://www.w3.org/2000/svg" xmlns:xlink="http://www.w3.org/1999/xlink">
<g id="graph0" class="graph" transform="scale(1 1) rotate(0) translate(4 348)">
<title>Cpl/System/Thread.h</title>
<polygon fill="white" stroke="none" points="-4,4 -4,-348 3453.5,-348 3453.5,4 -4,4"/>
<!-- Node1 -->
<g id="node1" class="node"><title>Node1</title>
<g id="a_node1"><a xlink:title=" ">
<polygon fill="#bfbfbf" stroke="black" points="2661.5,-324.5 2661.5,-343.5 2770.5,-343.5 2770.5,-324.5 2661.5,-324.5"/>
<text text-anchor="middle" x="2716" y="-331.5" font-family="Helvetica,sans-Serif" font-size="10.00">Cpl/System/Thread.h</text>
</a>
</g>
</g>
<!-- Node2 -->
<g id="node2" class="node"><title>Node2</title>
<g id="a_node2"><a xlink:href="_dm_2_event_loop_8h.html" target="_top" xlink:title=" ">
<polygon fill="white" stroke="black" points="1950.5,-263 1950.5,-282 2057.5,-282 2057.5,-263 1950.5,-263"/>
<text text-anchor="middle" x="2004" y="-270" font-family="Helvetica,sans-Serif" font-size="10.00">Cpl/Dm/EventLoop.h</text>
</a>
</g>
</g>
<!-- Node1&#45;&gt;Node2 -->
<g id="edge1" class="edge"><title>Node1&#45;&gt;Node2</title>
<path fill="none" stroke="midnightblue" d="M2651.07,-331.95C2533.67,-329.288 2278.54,-319.999 2066,-288 2056.16,-286.519 2045.58,-284.287 2035.99,-282.015"/>
<polygon fill="midnightblue" stroke="midnightblue" points="2651.25,-335.455 2661.32,-332.173 2651.4,-328.456 2651.25,-335.455"/>
</g>
<!-- Node73 -->
<g id="node33" class="node"><title>Node73</title>
<g id="a_node33"><a xlink:href="_listener___8h.html" target="_top" xlink:title=" ">
<polygon fill="white" stroke="black" points="2075.5,-263 2075.5,-282 2202.5,-282 2202.5,-263 2075.5,-263"/>
<text text-anchor="middle" x="2139" y="-270" font-family="Helvetica,sans-Serif" font-size="10.00">Cpl/Io/Socket/Listener_.h</text>
</a>
</g>
</g>
<!-- Node1&#45;&gt;Node73 -->
<g id="edge44" class="edge"><title>Node1&#45;&gt;Node73</title>
<path fill="none" stroke="midnightblue" d="M2651.05,-329.501C2554.65,-323.79 2368.17,-310.759 2211,-288 2200.02,-286.41 2188.19,-284.226 2177.35,-282.036"/>
<polygon fill="midnightblue" stroke="midnightblue" points="2651.03,-333.006 2661.22,-330.096 2651.44,-326.018 2651.03,-333.006"/>
</g>
<!-- Node76 -->
<g id="node36" class="node"><title>Node76</title>
<g id="a_node36"><a xlink:href="_bare_metal_2_thread_8h.html" target="_top" xlink:title=" ">
<polygon fill="white" stroke="black" points="2220.5,-257.5 2220.5,-287.5 2335.5,-287.5 2335.5,-257.5 2220.5,-257.5"/>
<text text-anchor="start" x="2228.5" y="-275.5" font-family="Helvetica,sans-Serif" font-size="10.00">Cpl/System/BareMetal</text>
<text text-anchor="middle" x="2278" y="-264.5" font-family="Helvetica,sans-Serif" font-size="10.00">/Thread.h</text>
</a>
</g>
</g>
<!-- Node1&#45;&gt;Node76 -->
<g id="edge47" class="edge"><title>Node1&#45;&gt;Node76</title>
<path fill="none" stroke="midnightblue" d="M2651.26,-326.979C2577.02,-319.651 2451.78,-305.991 2345,-288 2341.95,-287.486 2338.83,-286.927 2335.68,-286.337"/>
<polygon fill="midnightblue" stroke="midnightblue" points="2651.1,-330.48 2661.39,-327.971 2651.78,-323.513 2651.1,-330.48"/>
</g>
<!-- Node77 -->
<g id="node37" class="node"><title>Node77</title>
<g id="a_node37"><a xlink:href="_cpp11_2_thread_8h.html" target="_top" xlink:title=" ">
<polygon fill="white" stroke="black" points="2354,-263 2354,-282 2494,-282 2494,-263 2354,-263"/>
<text text-anchor="middle" x="2424" y="-270" font-family="Helvetica,sans-Serif" font-size="10.00">Cpl/System/Cpp11/Thread.h</text>
</a>
</g>
</g>
<!-- Node1&#45;&gt;Node77 -->
<g id="edge48" class="edge"><title>Node1&#45;&gt;Node77</title>
<path fill="none" stroke="midnightblue" d="M2664.34,-322.474C2607.75,-310.943 2518.09,-292.672 2465.76,-282.009"/>
<polygon fill="midnightblue" stroke="midnightblue" points="2663.67,-325.908 2674.16,-324.475 2665.06,-319.049 2663.67,-325.908"/>
</g>
<!-- Node78 -->
<g id="node38" class="node"><title>Node78</title>
<g id="a_node38"><a xlink:href="_free_r_t_o_s_2_thread_8h.html" target="_top" xlink:title=" ">
<polygon fill="white" stroke="black" points="2512.5,-257.5 2512.5,-287.5 2629.5,-287.5 2629.5,-257.5 2512.5,-257.5"/>
<text text-anchor="start" x="2520.5" y="-275.5" font-family="Helvetica,sans-Serif" font-size="10.00">Cpl/System/FreeRTOS</text>
<text text-anchor="middle" x="2571" y="-264.5" font-family="Helvetica,sans-Serif" font-size="10.00">/Thread.h</text>
</a>
</g>
</g>
<!-- Node1&#45;&gt;Node78 -->
<g id="edge49" class="edge"><title>Node1&#45;&gt;Node78</title>
<path fill="none" stroke="midnightblue" d="M2685.76,-320.59C2662.25,-310.942 2629.63,-297.558 2605.17,-287.523"/>
<polygon fill="midnightblue" stroke="midnightblue" points="2684.64,-323.917 2695.23,-324.475 2687.3,-317.441 2684.64,-323.917"/>
</g>
<!-- Node79 -->
<g id="node39" class="node"><title>Node79</title>
<g id="a_node39"><a xlink:href="_posix_2_thread_8h.html" target="_top" xlink:title=" ">
<polygon fill="white" stroke="black" points="2647.5,-263 2647.5,-282 2784.5,-282 2784.5,-263 2647.5,-263"/>
<text text-anchor="middle" x="2716" y="-270" font-family="Helvetica,sans-Serif" font-size="10.00">Cpl/System/Posix/Thread.h</text>
</a>
</g>
</g>
<!-- Node1&#45;&gt;Node79 -->
<g id="edge50" class="edge"><title>Node1&#45;&gt;Node79</title>
<path fill="none" stroke="midnightblue" d="M2716,-314.317C2716,-303.496 2716,-290.398 2716,-282.009"/>
<polygon fill="midnightblue" stroke="midnightblue" points="2712.5,-314.475 2716,-324.475 2719.5,-314.475 2712.5,-314.475"/>
</g>
<!-- Node80 -->
<g id="node40" class="node"><title>Node80</title>
<g id="a_node40"><a xlink:href="_system_2_trace_8h.html" target="_top" xlink:title=" ">
<polygon fill="white" stroke="black" points="2803,-263 2803,-282 2907,-282 2907,-263 2803,-263"/>
<text text-anchor="middle" x="2855" y="-270" font-family="Helvetica,sans-Serif" font-size="10.00">Cpl/System/Trace.h</text>
</a>
</g>
</g>
<!-- Node1&#45;&gt;Node80 -->
<g id="edge51" class="edge"><title>Node1&#45;&gt;Node80</title>
<path fill="none" stroke="midnightblue" d="M2745.25,-320.48C2772.25,-308.924 2811.6,-292.076 2835.12,-282.009"/>
<polygon fill="midnightblue" stroke="midnightblue" points="2743.73,-317.322 2735.92,-324.475 2746.49,-323.757 2743.73,-317.322"/>
</g>
<!-- Node85 -->
<g id="node45" class="node"><title>Node85</title>
<g id="a_node45"><a xlink:href="_win32_2_thread_8h.html" target="_top" xlink:title=" ">
<polygon fill="white" stroke="black" points="2925.5,-263 2925.5,-282 3064.5,-282 3064.5,-263 2925.5,-263"/>
<text text-anchor="middle" x="2995" y="-270" font-family="Helvetica,sans-Serif" font-size="10.00">Cpl/System/Win32/Thread.h</text>
</a>
</g>
</g>
<!-- Node1&#45;&gt;Node85 -->
<g id="edge56" class="edge"><title>Node1&#45;&gt;Node85</title>
<path fill="none" stroke="midnightblue" d="M2766.03,-322.33C2820.14,-310.792 2905.31,-292.628 2955.1,-282.009"/>
<polygon fill="midnightblue" stroke="midnightblue" points="2765.02,-318.966 2755.97,-324.475 2766.48,-325.812 2765.02,-318.966"/>
</g>
<!-- Node86 -->
<g id="node46" class="node"><title>Node86</title>
<g id="a_node46"><a xlink:href="_threads_8h.html" target="_top" xlink:title=" ">
<polygon fill="white" stroke="black" points="3082.5,-263 3082.5,-282 3213.5,-282 3213.5,-263 3082.5,-263"/>
<text text-anchor="middle" x="3148" y="-270" font-family="Helvetica,sans-Serif" font-size="10.00">Cpl/TShell/Cmd/Threads.h</text>
</a>
</g>
</g>
<!-- Node1&#45;&gt;Node86 -->
<g id="edge57" class="edge"><title>Node1&#45;&gt;Node86</title>
<path fill="none" stroke="midnightblue" d="M2780.82,-326.123C2852.49,-318.219 2971.28,-304.226 3073,-288 3083.87,-286.266 3095.58,-284.132 3106.43,-282.04"/>
<polygon fill="midnightblue" stroke="midnightblue" points="2780.15,-322.675 2770.59,-327.245 2780.91,-329.634 2780.15,-322.675"/>
</g>
<!-- Node89 -->
<g id="node49" class="node"><title>Node89</title>
<g id="a_node49"><a xlink:href="_socket_8h.html" target="_top" xlink:title=" ">
<polygon fill="white" stroke="black" points="3232,-263 3232,-282 3336,-282 3336,-263 3232,-263"/>
<text text-anchor="middle" x="3284" y="-270" font-family="Helvetica,sans-Serif" font-size="10.00">Cpl/TShell/Socket.h</text>
</a>
</g>
</g>
<!-- Node1&#45;&gt;Node89 -->
<g id="edge60" class="edge"><title>Node1&#45;&gt;Node89</title>
<path fill="none" stroke="midnightblue" d="M2780.79,-330.166C2877.39,-325.281 3064.68,-313.263 3222,-288 3231.6,-286.458 3241.93,-284.262 3251.35,-282.045"/>
<polygon fill="midnightblue" stroke="midnightblue" points="2780.41,-326.68 2770.6,-330.672 2780.76,-333.672 2780.41,-326.68"/>
</g>
<!-- Node90 -->
<g id="node50" class="node"><title>Node90</title>
<g id="a_node50"><a xlink:href="_stdio_8h.html" target="_top" xlink:title=" ">
<polygon fill="white" stroke="black" points="3354.5,-263 3354.5,-282 3449.5,-282 3449.5,-263 3354.5,-263"/>
<text text-anchor="middle" x="3402" y="-270" font-family="Helvetica,sans-Serif" font-size="10.00">Cpl/TShell/Stdio.h</text>
</a>
</g>
</g>
<!-- Node1&#45;&gt;Node90 -->
<g id="edge61" class="edge"><title>Node1&#45;&gt;Node90</title>
<path fill="none" stroke="midnightblue" d="M2780.65,-332.153C2895.12,-329.815 3140.69,-321.027 3345,-288 3354.07,-286.534 3363.81,-284.306 3372.63,-282.034"/>
<polygon fill="midnightblue" stroke="midnightblue" points="2780.57,-328.654 2770.64,-332.348 2780.71,-335.652 2780.57,-328.654"/>
</g>
<!-- Node3 -->
<g id="node3" class="node"><title>Node3</title>
<g id="a_node3"><a xlink:href="_dm_2_mailbox_server_8h.html" target="_top" xlink:title=" ">
<polygon fill="white" stroke="black" points="786,-196 786,-215 908,-215 908,-196 786,-196"/>
<text text-anchor="middle" x="847" y="-203" font-family="Helvetica,sans-Serif" font-size="10.00">Cpl/Dm/MailboxServer.h</text>
</a>
</g>
</g>
<!-- Node2&#45;&gt;Node3 -->
<g id="edge2" class="edge"><title>Node2&#45;&gt;Node3</title>
<path fill="none" stroke="midnightblue" d="M1939.91,-267.9C1736.51,-256.473 1107.22,-221.119 908.079,-209.931"/>
<polygon fill="midnightblue" stroke="midnightblue" points="1939.95,-271.407 1950.13,-268.474 1940.34,-264.418 1939.95,-271.407"/>
</g>
<!-- Node23 -->
<g id="node18" class="node"><title>Node23</title>
<g id="a_node18"><a xlink:href="_subscriber_8h.html" target="_top" xlink:title=" ">
<polygon fill="white" stroke="black" points="1955.5,-196 1955.5,-215 2062.5,-215 2062.5,-196 1955.5,-196"/>
<text text-anchor="middle" x="2009" y="-203" font-family="Helvetica,sans-Serif" font-size="10.00">Cpl/Dm/Subscriber.h</text>
</a>
</g>
</g>
<!-- Node2&#45;&gt;Node23 -->
<g id="edge26" class="edge"><title>Node2&#45;&gt;Node23</title>
<path fill="none" stroke="midnightblue" d="M2005.46,-252.537C2006.41,-240.17 2007.61,-224.62 2008.34,-215.127"/>
<polygon fill="midnightblue" stroke="midnightblue" points="2001.95,-252.495 2004.67,-262.734 2008.93,-253.032 2001.95,-252.495"/>
</g>
<!-- Node4 -->
<g id="node4" class="node"><title>Node4</title>
<g id="a_node4"><a xlink:href="_dm_2_periodic_scheduler_8h.html" target="_top" xlink:title=" ">
<polygon fill="white" stroke="black" points="313.5,-134.5 313.5,-153.5 452.5,-153.5 452.5,-134.5 313.5,-134.5"/>
<text text-anchor="middle" x="383" y="-141.5" font-family="Helvetica,sans-Serif" font-size="10.00">Cpl/Dm/PeriodicScheduler.h</text>
</a>
</g>
</g>
<!-- Node3&#45;&gt;Node4 -->
<g id="edge3" class="edge"><title>Node3&#45;&gt;Node4</title>
<path fill="none" stroke="midnightblue" d="M775.874,-195.379C687.025,-183.986 536.172,-164.642 449.528,-153.531"/>
<polygon fill="midnightblue" stroke="midnightblue" points="775.499,-198.86 785.863,-196.66 776.389,-191.917 775.499,-198.86"/>
</g>
<!-- Node5 -->
<g id="node5" class="node"><title>Node5</title>
<g id="a_node5"><a xlink:href="_chunk_8h.html" target="_top" xlink:title=" ">
<polygon fill="white" stroke="black" points="637.5,-134.5 637.5,-153.5 754.5,-153.5 754.5,-134.5 637.5,-134.5"/>
<text text-anchor="middle" x="696" y="-141.5" font-family="Helvetica,sans-Serif" font-size="10.00">Cpl/Persistent/Chunk.h</text>
</a>
</g>
</g>
<!-- Node3&#45;&gt;Node5 -->
<g id="edge4" class="edge"><title>Node3&#45;&gt;Node5</title>
<path fill="none" stroke="midnightblue" d="M815.994,-192.282C786.65,-180.72 743.366,-163.664 717.594,-153.509"/>
<polygon fill="midnightblue" stroke="midnightblue" points="814.778,-195.565 825.365,-195.975 817.345,-189.053 814.778,-195.565"/>
</g>
<!-- Node17 -->
<g id="node12" class="node"><title>Node17</title>
<g id="a_node12"><a xlink:href="_persistent_2_record_8h.html" target="_top" xlink:title=" ">
<polygon fill="white" stroke="black" points="939,-134.5 939,-153.5 1059,-153.5 1059,-134.5 939,-134.5"/>
<text text-anchor="middle" x="999" y="-141.5" font-family="Helvetica,sans-Serif" font-size="10.00">Cpl/Persistent/Record.h</text>
</a>
</g>
</g>
<!-- Node3&#45;&gt;Node17 -->
<g id="edge11" class="edge"><title>Node3&#45;&gt;Node17</title>
<path fill="none" stroke="midnightblue" d="M878.211,-192.282C907.749,-180.72 951.32,-163.664 977.263,-153.509"/>
<polygon fill="midnightblue" stroke="midnightblue" points="876.814,-189.071 868.778,-195.975 879.366,-195.589 876.814,-189.071"/>
</g>
<!-- Node18 -->
<g id="node13" class="node"><title>Node18</title>
<g id="a_node13"><a xlink:href="_record_server_8h.html" target="_top" xlink:title=" ">
<polygon fill="white" stroke="black" points="978.5,-73 978.5,-92 1127.5,-92 1127.5,-73 978.5,-73"/>
<text text-anchor="middle" x="1053" y="-80" font-family="Helvetica,sans-Serif" font-size="10.00">Cpl/Persistent/RecordServer.h</text>
</a>
</g>
</g>
<!-- Node3&#45;&gt;Node18 -->
<g id="edge17" class="edge"><title>Node3&#45;&gt;Node18</title>
<path fill="none" stroke="midnightblue" d="M918.224,-197.766C975.516,-190.701 1049.43,-177.297 1068,-154 1082.51,-135.801 1068.02,-106.831 1059.01,-92.3486"/>
<polygon fill="midnightblue" stroke="midnightblue" points="917.616,-194.313 908.099,-198.97 918.443,-201.264 917.616,-194.313"/>
</g>
<!-- Node19 -->
<g id="node14" class="node"><title>Node19</title>
<g id="a_node14"><a xlink:href="_region_media_8h.html" target="_top" xlink:title=" ">
<polygon fill="white" stroke="black" points="471,-134.5 471,-153.5 617,-153.5 617,-134.5 471,-134.5"/>
<text text-anchor="middle" x="544" y="-141.5" font-family="Helvetica,sans-Serif" font-size="10.00">Cpl/Persistent/RegionMedia.h</text>
</a>
</g>
</g>
<!-- Node3&#45;&gt;Node19 -->
<g id="edge18" class="edge"><title>Node3&#45;&gt;Node19</title>
<path fill="none" stroke="midnightblue" d="M793.761,-194.046C735.06,-182.518 641.744,-164.194 587.332,-153.509"/>
<polygon fill="midnightblue" stroke="midnightblue" points="793.1,-197.483 803.587,-195.975 794.449,-190.614 793.1,-197.483"/>
</g>
<!-- Node22 -->
<g id="node17" class="node"><title>Node22</title>
<g id="a_node17"><a xlink:href="_algorithm_8h.html" target="_top" xlink:title=" ">
<polygon fill="white" stroke="black" points="773,-134.5 773,-153.5 921,-153.5 921,-134.5 773,-134.5"/>
<text text-anchor="middle" x="847" y="-141.5" font-family="Helvetica,sans-Serif" font-size="10.00">Storm/Thermostat/Algorithm.h</text>
</a>
</g>
</g>
<!-- Node3&#45;&gt;Node22 -->
<g id="edge25" class="edge"><title>Node3&#45;&gt;Node22</title>
<path fill="none" stroke="midnightblue" d="M847,-185.817C847,-174.996 847,-161.898 847,-153.509"/>
<polygon fill="midnightblue" stroke="midnightblue" points="843.5,-185.975 847,-195.975 850.5,-185.975 843.5,-185.975"/>
</g>
<!-- Node6 -->
<g id="node6" class="node"><title>Node6</title>
<g id="a_node6"><a xlink:href="_dm_2_persistent_2_record_8h.html" target="_top" xlink:title=" ">
<polygon fill="white" stroke="red" points="1035,-6 1035,-25 1173,-25 1173,-6 1035,-6"/>
<text text-anchor="middle" x="1104" y="-13" font-family="Helvetica,sans-Serif" font-size="10.00">Cpl/Dm/Persistent/Record.h</text>
</a>
</g>
</g>
<!-- Node5&#45;&gt;Node6 -->
<g id="edge5" class="edge"><title>Node5&#45;&gt;Node6</title>
<path fill="none" stroke="midnightblue" d="M721.282,-129.531C736.61,-121.048 756.355,-109.549 773,-98 790.907,-85.5749 791.165,-76.0363 811,-67 882.869,-34.2579 973.489,-22.6146 1034.78,-18.5457"/>
<polygon fill="midnightblue" stroke="midnightblue" points="719.474,-126.53 712.376,-134.397 722.83,-132.673 719.474,-126.53"/>
</g>
<!-- Node11 -->
<g id="node7" class="node"><title>Node11</title>
<g id="a_node7"><a xlink:href="_crc_chunk_8h.html" target="_top" xlink:title=" ">
<polygon fill="white" stroke="black" points="632,-73 632,-92 764,-92 764,-73 632,-73"/>
<text text-anchor="middle" x="698" y="-80" font-family="Helvetica,sans-Serif" font-size="10.00">Cpl/Persistent/CrcChunk.h</text>
</a>
</g>
</g>
<!-- Node5&#45;&gt;Node11 -->
<g id="edge6" class="edge"><title>Node5&#45;&gt;Node11</title>
<path fill="none" stroke="midnightblue" d="M696.628,-124.317C696.992,-113.496 697.432,-100.398 697.714,-92.0091"/>
<polygon fill="midnightblue" stroke="midnightblue" points="693.125,-124.363 696.287,-134.475 700.121,-124.598 693.125,-124.363"/>
</g>
<!-- Node12 -->
<g id="node8" class="node"><title>Node12</title>
<g id="a_node8"><a xlink:href="_data_record_8h.html" target="_top" xlink:title=" ">
<polygon fill="white" stroke="red" points="820,-73 820,-92 960,-92 960,-73 820,-73"/>
<text text-anchor="middle" x="890" y="-80" font-family="Helvetica,sans-Serif" font-size="10.00">Cpl/Persistent/DataRecord.h</text>
</a>
</g>
</g>
<!-- Node5&#45;&gt;Node12 -->
<g id="edge7" class="edge"><title>Node5&#45;&gt;Node12</title>
<path fill="none" stroke="midnightblue" d="M733.403,-131.529C771.107,-119.965 828.426,-102.385 862.256,-92.0091"/>
<polygon fill="midnightblue" stroke="midnightblue" points="732.33,-128.197 723.795,-134.475 734.382,-134.889 732.33,-128.197"/>
</g>
<!-- Node14 -->
<g id="node9" class="node"><title>Node14</title>
<g id="a_node9"><a xlink:href="_indexed_entry_record_8h.html" target="_top" xlink:title=" ">
<polygon fill="white" stroke="red" points="474.5,-67.5 474.5,-97.5 613.5,-97.5 613.5,-67.5 474.5,-67.5"/>
<text text-anchor="start" x="482.5" y="-85.5" font-family="Helvetica,sans-Serif" font-size="10.00">Cpl/Persistent/IndexedEntry</text>
<text text-anchor="middle" x="544" y="-74.5" font-family="Helvetica,sans-Serif" font-size="10.00">Record.h</text>
</a>
</g>
</g>
<!-- Node5&#45;&gt;Node14 -->
<g id="edge8" class="edge"><title>Node5&#45;&gt;Node14</title>
<path fill="none" stroke="midnightblue" d="M664.627,-130.719C639.957,-121.062 605.572,-107.602 579.823,-97.523"/>
<polygon fill="midnightblue" stroke="midnightblue" points="663.634,-134.089 674.222,-134.475 666.186,-127.571 663.634,-134.089"/>
</g>
<!-- Node16 -->
<g id="node10" class="node"><title>Node16</title>
<g id="a_node10"><a xlink:href="_mirrored_chunk_8h.html" target="_top" xlink:title=" ">
<polygon fill="white" stroke="black" points="304,-73 304,-92 456,-92 456,-73 304,-73"/>
<text text-anchor="middle" x="380" y="-80" font-family="Helvetica,sans-Serif" font-size="10.00">Cpl/Persistent/MirroredChunk.h</text>
</a>
</g>
</g>
<!-- Node5&#45;&gt;Node16 -->
<g id="edge9" class="edge"><title>Node5&#45;&gt;Node16</title>
<path fill="none" stroke="midnightblue" d="M640.856,-132.617C579.66,-121.094 482.055,-102.716 425.191,-92.0091"/>
<polygon fill="midnightblue" stroke="midnightblue" points="640.25,-136.064 650.725,-134.475 641.545,-129.185 640.25,-136.064"/>
</g>
<!-- Node8 -->
<g id="node11" class="node"><title>Node8</title>
<g id="a_node11"><a xlink:href="statics___8h.html" target="_top" xlink:title="This file defines/creates persistent records and record server for the Thermostat simulation.">
<polygon fill="white" stroke="black" points="320.5,-0.5 320.5,-30.5 439.5,-30.5 439.5,-0.5 320.5,-0.5"/>
<text text-anchor="start" x="328.5" y="-18.5" font-family="Helvetica,sans-Serif" font-size="10.00">Storm/Thermostat/Main</text>
<text text-anchor="middle" x="380" y="-7.5" font-family="Helvetica,sans-Serif" font-size="10.00">/_simulation/statics_.h</text>
</a>
</g>
</g>
<!-- Node16&#45;&gt;Node8 -->
<g id="edge10" class="edge"><title>Node16&#45;&gt;Node8</title>
<path fill="none" stroke="midnightblue" d="M380,-62.4107C380,-52.222 380,-39.901 380,-30.589"/>
<polygon fill="midnightblue" stroke="midnightblue" points="376.5,-62.7338 380,-72.7338 383.5,-62.7338 376.5,-62.7338"/>
</g>
<!-- Node17&#45;&gt;Node6 -->
<g id="edge12" class="edge"><title>Node17&#45;&gt;Node6</title>
<path fill="none" stroke="midnightblue" d="M1069.32,-136.809C1094.52,-130.795 1120.51,-119.392 1136,-98 1153.03,-74.4839 1126.83,-40.6908 1112.43,-25.0463"/>
<polygon fill="midnightblue" stroke="midnightblue" points="1068.4,-133.425 1059.35,-138.929 1069.86,-140.272 1068.4,-133.425"/>
</g>
<!-- Node17&#45;&gt;Node12 -->
<g id="edge13" class="edge"><title>Node17&#45;&gt;Node12</title>
<path fill="none" stroke="midnightblue" d="M974.372,-129.556C953.278,-118.042 923.544,-101.811 905.588,-92.0091"/>
<polygon fill="midnightblue" stroke="midnightblue" points="972.929,-132.756 983.383,-134.475 976.283,-126.612 972.929,-132.756"/>
</g>
<!-- Node17&#45;&gt;Node18 -->
<g id="edge14" class="edge"><title>Node17&#45;&gt;Node18</title>
<path fill="none" stroke="midnightblue" d="M1013.52,-126.997C1023.74,-115.736 1037.02,-101.104 1045.28,-92.0091"/>
<polygon fill="midnightblue" stroke="midnightblue" points="1010.87,-124.718 1006.74,-134.475 1016.05,-129.422 1010.87,-124.718"/>
</g>
<!-- Node18&#45;&gt;Node6 -->
<g id="edge15" class="edge"><title>Node18&#45;&gt;Node6</title>
<path fill="none" stroke="midnightblue" d="M1066.13,-64.7705C1076.07,-52.0972 1089.33,-35.201 1097.23,-25.1273"/>
<polygon fill="midnightblue" stroke="midnightblue" points="1063.3,-62.7059 1059.88,-72.7338 1068.8,-67.0269 1063.3,-62.7059"/>
</g>
<!-- Node18&#45;&gt;Node8 -->
<g id="edge16" class="edge"><title>Node18&#45;&gt;Node8</title>
<path fill="none" stroke="midnightblue" d="M997.899,-71.2968C988.287,-69.7149 978.368,-68.208 969,-67 776.109,-42.1287 546.046,-26.4073 439.538,-19.9178"/>
<polygon fill="midnightblue" stroke="midnightblue" points="997.326,-74.7494 1007.77,-72.9629 998.491,-67.8471 997.326,-74.7494"/>
</g>
<!-- Node19&#45;&gt;Node11 -->
<g id="edge19" class="edge"><title>Node19&#45;&gt;Node11</title>
<path fill="none" stroke="midnightblue" d="M575.622,-130.782C605.549,-119.22 649.693,-102.164 675.976,-92.0091"/>
<polygon fill="midnightblue" stroke="midnightblue" points="574.131,-127.606 566.064,-134.475 576.654,-134.136 574.131,-127.606"/>
</g>
<!-- Node19&#45;&gt;Node14 -->
<g id="edge22" class="edge"><title>Node19&#45;&gt;Node14</title>
<path fill="none" stroke="midnightblue" d="M544,-124.235C544,-115.586 544,-105.497 544,-97.523"/>
<polygon fill="midnightblue" stroke="midnightblue" points="540.5,-124.475 544,-134.475 547.5,-124.475 540.5,-124.475"/>
</g>
<!-- Node19&#45;&gt;Node16 -->
<g id="edge23" class="edge"><title>Node19&#45;&gt;Node16</title>
<path fill="none" stroke="midnightblue" d="M510.739,-130.933C478.864,-119.368 431.566,-102.208 403.454,-92.0091"/>
<polygon fill="midnightblue" stroke="midnightblue" points="509.909,-134.355 520.503,-134.475 512.296,-127.774 509.909,-134.355"/>
</g>
<!-- Node20 -->
<g id="node15" class="node"><title>Node20</title>
<g id="a_node15"><a xlink:href="_file_adapter_8h.html" target="_top" xlink:title=" ">
<polygon fill="white" stroke="black" points="146.5,-73 146.5,-92 285.5,-92 285.5,-73 146.5,-73"/>
<text text-anchor="middle" x="216" y="-80" font-family="Helvetica,sans-Serif" font-size="10.00">Cpl/Persistent/FileAdapter.h</text>
</a>
</g>
</g>
<!-- Node19&#45;&gt;Node20 -->
<g id="edge20" class="edge"><title>Node19&#45;&gt;Node20</title>
<path fill="none" stroke="midnightblue" d="M486.657,-132.683C436.183,-123.59 360.703,-109.967 295,-98 284.437,-96.0761 273.081,-93.9977 262.365,-92.0318"/>
<polygon fill="midnightblue" stroke="midnightblue" points="486.259,-136.167 496.721,-134.495 487.5,-129.278 486.259,-136.167"/>
</g>
<!-- Node21 -->
<g id="node16" class="node"><title>Node21</title>
<g id="a_node16"><a xlink:href="_null_region_media_8h.html" target="_top" xlink:title=" ">
<polygon fill="white" stroke="black" points="0,-67.5 0,-97.5 128,-97.5 128,-67.5 0,-67.5"/>
<text text-anchor="start" x="8" y="-85.5" font-family="Helvetica,sans-Serif" font-size="10.00">Cpl/Persistent/NullRegion</text>
<text text-anchor="middle" x="64" y="-74.5" font-family="Helvetica,sans-Serif" font-size="10.00">Media.h</text>
</a>
</g>
</g>
<!-- Node19&#45;&gt;Node21 -->
<g id="edge24" class="edge"><title>Node19&#45;&gt;Node21</title>
<path fill="none" stroke="midnightblue" d="M460.727,-133.883C343.986,-121.09 144.926,-99.223 137,-98 134.063,-97.5468 131.064,-97.058 128.039,-96.5436"/>
<polygon fill="midnightblue" stroke="midnightblue" points="460.397,-137.368 470.718,-134.978 461.159,-130.41 460.397,-137.368"/>
</g>
<!-- Node20&#45;&gt;Node8 -->
<g id="edge21" class="edge"><title>Node20&#45;&gt;Node8</title>
<path fill="none" stroke="midnightblue" d="M247.392,-69.0579C275.174,-58.0469 315.681,-41.9921 344.606,-30.5281"/>
<polygon fill="midnightblue" stroke="midnightblue" points="245.785,-65.9301 237.778,-72.8685 248.364,-72.4376 245.785,-65.9301"/>
</g>
<!-- Node24 -->
<g id="node19" class="node"><title>Node24</title>
<g id="a_node19"><a xlink:href="_model_point_common___8h.html" target="_top" xlink:title=" ">
<polygon fill="white" stroke="red" points="1935.5,-134.5 1935.5,-153.5 2088.5,-153.5 2088.5,-134.5 1935.5,-134.5"/>
<text text-anchor="middle" x="2012" y="-141.5" font-family="Helvetica,sans-Serif" font-size="10.00">Cpl/Dm/ModelPointCommon_.h</text>
</a>
</g>
</g>
<!-- Node23&#45;&gt;Node24 -->
<g id="edge27" class="edge"><title>Node23&#45;&gt;Node24</title>
<path fill="none" stroke="midnightblue" d="M2009.94,-185.817C2010.49,-174.996 2011.15,-161.898 2011.57,-153.509"/>
<polygon fill="midnightblue" stroke="midnightblue" points="2006.44,-185.812 2009.43,-195.975 2013.43,-186.164 2006.44,-185.812"/>
</g>
<!-- Node48 -->
<g id="node24" class="node"><title>Node48</title>
<g id="a_node24"><a xlink:href="_mp_thermostat_mode_8h.html" target="_top" xlink:title=" ">
<polygon fill="white" stroke="red" points="2590.5,-6 2590.5,-25 2749.5,-25 2749.5,-6 2590.5,-6"/>
<text text-anchor="middle" x="2670" y="-13" font-family="Helvetica,sans-Serif" font-size="10.00">Storm/Dm/MpThermostatMode.h</text>
</a>
</g>
</g>
<!-- Node23&#45;&gt;Node48 -->
<g id="edge43" class="edge"><title>Node23&#45;&gt;Node48</title>
<path fill="none" stroke="midnightblue" d="M2055.86,-193.794C2062.28,-192.448 2068.79,-191.144 2075,-190 2211.11,-164.914 2600.65,-202.848 2691,-98 2709.31,-76.7482 2688.34,-41.5303 2676.72,-25.2497"/>
<polygon fill="midnightblue" stroke="midnightblue" points="2054.96,-190.408 2045.91,-195.927 2056.42,-197.253 2054.96,-190.408"/>
</g>
<!-- Node72 -->
<g id="node32" class="node"><title>Node72</title>
<g id="a_node32"><a xlink:href="_subscriber_composer_8h.html" target="_top" xlink:title=" ">
<polygon fill="white" stroke="red" points="1440.5,-134.5 1440.5,-153.5 1591.5,-153.5 1591.5,-134.5 1440.5,-134.5"/>
<text text-anchor="middle" x="1516" y="-141.5" font-family="Helvetica,sans-Serif" font-size="10.00">Cpl/Dm/SubscriberComposer.h</text>
</a>
</g>
</g>
<!-- Node23&#45;&gt;Node72 -->
<g id="edge41" class="edge"><title>Node23&#45;&gt;Node72</title>
<path fill="none" stroke="midnightblue" d="M1945.26,-196.807C1852.96,-185.668 1682.68,-165.116 1586.66,-153.527"/>
<polygon fill="midnightblue" stroke="midnightblue" points="1944.95,-200.296 1955.3,-198.019 1945.79,-193.346 1944.95,-200.296"/>
</g>
<!-- Node25 -->
<g id="node20" class="node"><title>Node25</title>
<g id="a_node20"><a xlink:href="_array_8h.html" target="_top" xlink:title=" ">
<polygon fill="white" stroke="black" points="1713,-73 1713,-92 1813,-92 1813,-73 1713,-73"/>
<text text-anchor="middle" x="1763" y="-80" font-family="Helvetica,sans-Serif" font-size="10.00">Cpl/Dm/Mp/Array.h</text>
</a>
</g>
</g>
<!-- Node24&#45;&gt;Node25 -->
<g id="edge28" class="edge"><title>Node24&#45;&gt;Node25</title>
<path fill="none" stroke="midnightblue" d="M1965.68,-132.144C1927.19,-123.097 1871,-109.825 1822,-98 1814.1,-96.0949 1805.62,-94.024 1797.62,-92.0595"/>
<polygon fill="midnightblue" stroke="midnightblue" points="1965.02,-135.584 1975.55,-134.464 1966.62,-128.77 1965.02,-135.584"/>
</g>
<!-- Node26 -->
<g id="node21" class="node"><title>Node26</title>
<g id="a_node21"><a xlink:href="_bool_8h.html" target="_top" xlink:title=" ">
<polygon fill="white" stroke="red" points="1831,-73 1831,-92 1927,-92 1927,-73 1831,-73"/>
<text text-anchor="middle" x="1879" y="-80" font-family="Helvetica,sans-Serif" font-size="10.00">Cpl/Dm/Mp/Bool.h</text>
</a>
</g>
</g>
<!-- Node24&#45;&gt;Node26 -->
<g id="edge29" class="edge"><title>Node24&#45;&gt;Node26</title>
<path fill="none" stroke="midnightblue" d="M1983.67,-130.327C1957.85,-118.776 1920.42,-102.032 1898.02,-92.0091"/>
<polygon fill="midnightblue" stroke="midnightblue" points="1982.39,-133.586 1992.94,-134.475 1985.25,-127.197 1982.39,-133.586"/>
</g>
<!-- Node44 -->
<g id="node22" class="node"><title>Node44</title>
<g id="a_node22"><a xlink:href="_elapsed_precision_time_8h.html" target="_top" xlink:title=" ">
<polygon fill="white" stroke="red" points="1945,-67.5 1945,-97.5 2089,-97.5 2089,-67.5 1945,-67.5"/>
<text text-anchor="start" x="1953" y="-85.5" font-family="Helvetica,sans-Serif" font-size="10.00">Cpl/Dm/Mp/ElapsedPrecision</text>
<text text-anchor="middle" x="2017" y="-74.5" font-family="Helvetica,sans-Serif" font-size="10.00">Time.h</text>
</a>
</g>
</g>
<!-- Node24&#45;&gt;Node44 -->
<g id="edge30" class="edge"><title>Node24&#45;&gt;Node44</title>
<path fill="none" stroke="midnightblue" d="M2013.58,-124.235C2014.3,-115.586 2015.15,-105.497 2015.82,-97.523"/>
<polygon fill="midnightblue" stroke="midnightblue" points="2010.07,-124.217 2012.72,-134.475 2017.04,-124.803 2010.07,-124.217"/>
</g>
<!-- Node46 -->
<g id="node23" class="node"><title>Node46</title>
<g id="a_node23"><a xlink:href="_enum___8h.html" target="_top" xlink:title=" ">
<polygon fill="white" stroke="red" points="2575.5,-73 2575.5,-92 2682.5,-92 2682.5,-73 2575.5,-73"/>
<text text-anchor="middle" x="2629" y="-80" font-family="Helvetica,sans-Serif" font-size="10.00">Cpl/Dm/Mp/Enum_.h</text>
</a>
</g>
</g>
<!-- Node24&#45;&gt;Node46 -->
<g id="edge31" class="edge"><title>Node24&#45;&gt;Node46</title>
<path fill="none" stroke="midnightblue" d="M2098.58,-139.859C2207.99,-134.999 2401.86,-123.418 2566,-98 2575.87,-96.4714 2586.49,-94.2531 2596.15,-92.0094"/>
<polygon fill="midnightblue" stroke="midnightblue" points="2098.42,-136.363 2088.58,-140.295 2098.72,-143.356 2098.42,-136.363"/>
</g>
<!-- Node49 -->
<g id="node25" class="node"><title>Node49</title>
<g id="a_node25"><a xlink:href="_numeric_8h.html" target="_top" xlink:title=" ">
<polygon fill="white" stroke="red" points="2140.5,-6 2140.5,-25 2253.5,-25 2253.5,-6 2140.5,-6"/>
<text text-anchor="middle" x="2197" y="-13" font-family="Helvetica,sans-Serif" font-size="10.00">Cpl/Dm/Mp/Numeric.h</text>
</a>
</g>
</g>
<!-- Node24&#45;&gt;Node49 -->
<g id="edge33" class="edge"><title>Node24&#45;&gt;Node49</title>
<path fill="none" stroke="midnightblue" d="M2098.82,-134.892C2148.05,-128.301 2202.78,-116.907 2218,-98 2235.59,-76.1483 2214.98,-41.2304 2203.58,-25.1372"/>
<polygon fill="midnightblue" stroke="midnightblue" points="2098.22,-131.441 2088.74,-136.187 2099.11,-138.384 2098.22,-131.441"/>
</g>
<!-- Node59 -->
<g id="node26" class="node"><title>Node59</title>
<g id="a_node26"><a xlink:href="_ref_counter_8h.html" target="_top" xlink:title=" ">
<polygon fill="white" stroke="red" points="2265.5,-73 2265.5,-92 2390.5,-92 2390.5,-73 2265.5,-73"/>
<text text-anchor="middle" x="2328" y="-80" font-family="Helvetica,sans-Serif" font-size="10.00">Cpl/Dm/Mp/RefCounter.h</text>
</a>
</g>
</g>
<!-- Node24&#45;&gt;Node59 -->
<g id="edge34" class="edge"><title>Node24&#45;&gt;Node59</title>
<path fill="none" stroke="midnightblue" d="M2067.14,-132.617C2128.34,-121.094 2225.95,-102.716 2282.81,-92.0091"/>
<polygon fill="midnightblue" stroke="midnightblue" points="2066.45,-129.185 2057.28,-134.475 2067.75,-136.064 2066.45,-129.185"/>
</g>
<!-- Node60 -->
<g id="node27" class="node"><title>Node60</title>
<g id="a_node27"><a xlink:href="_dm_2_mp_2_string_8h.html" target="_top" xlink:title=" ">
<polygon fill="white" stroke="red" points="2107,-73 2107,-92 2209,-92 2209,-73 2107,-73"/>
<text text-anchor="middle" x="2158" y="-80" font-family="Helvetica,sans-Serif" font-size="10.00">Cpl/Dm/Mp/String.h</text>
</a>
</g>
</g>
<!-- Node24&#45;&gt;Node60 -->
<g id="edge35" class="edge"><title>Node24&#45;&gt;Node60</title>
<path fill="none" stroke="midnightblue" d="M2042.35,-130.631C2070.71,-119.072 2112.31,-102.12 2137.12,-92.0091"/>
<polygon fill="midnightblue" stroke="midnightblue" points="2040.86,-127.46 2032.92,-134.475 2043.5,-133.942 2040.86,-127.46"/>
</g>
<!-- Node61 -->
<g id="node28" class="node"><title>Node61</title>
<g id="a_node28"><a xlink:href="_mp_comfort_config_8h.html" target="_top" xlink:title=" ">
<polygon fill="white" stroke="red" points="2409,-73 2409,-92 2557,-92 2557,-73 2409,-73"/>
<text text-anchor="middle" x="2483" y="-80" font-family="Helvetica,sans-Serif" font-size="10.00">Storm/Dm/MpComfortConfig.h</text>
</a>
</g>
</g>
<!-- Node24&#45;&gt;Node61 -->
<g id="edge37" class="edge"><title>Node24&#45;&gt;Node61</title>
<path fill="none" stroke="midnightblue" d="M2098.86,-134.285C2177.41,-126.074 2296.17,-112.842 2399,-98 2411.16,-96.2453 2424.26,-94.1042 2436.42,-92.0117"/>
<polygon fill="midnightblue" stroke="midnightblue" points="2098.11,-130.844 2088.53,-135.36 2098.84,-137.806 2098.11,-130.844"/>
</g>
<!-- Node62 -->
<g id="node29" class="node"><title>Node62</title>
<g id="a_node29"><a xlink:href="_mp_cycle_info_8h.html" target="_top" xlink:title=" ">
<polygon fill="white" stroke="red" points="1222.5,-73 1222.5,-92 1349.5,-92 1349.5,-73 1222.5,-73"/>
<text text-anchor="middle" x="1286" y="-80" font-family="Helvetica,sans-Serif" font-size="10.00">Storm/Dm/MpCycleInfo.h</text>
</a>
</g>
</g>
<!-- Node24&#45;&gt;Node62 -->
<g id="edge38" class="edge"><title>Node24&#45;&gt;Node62</title>
<path fill="none" stroke="midnightblue" d="M1924.82,-140.605C1799.12,-136.335 1559.87,-125.155 1358,-98 1346.75,-96.4871 1334.62,-94.2736 1323.59,-92.0295"/>
<polygon fill="midnightblue" stroke="midnightblue" points="1925.04,-144.114 1935.15,-140.949 1925.27,-137.118 1925.04,-144.114"/>
</g>
<!-- Node63 -->
<g id="node30" class="node"><title>Node63</title>
<g id="a_node30"><a xlink:href="_mp_equipment_begin_times_8h.html" target="_top" xlink:title=" ">
<polygon fill="white" stroke="red" points="1367.5,-67.5 1367.5,-97.5 1516.5,-97.5 1516.5,-67.5 1367.5,-67.5"/>
<text text-anchor="start" x="1375.5" y="-85.5" font-family="Helvetica,sans-Serif" font-size="10.00">Storm/Dm/MpEquipmentBegin</text>
<text text-anchor="middle" x="1442" y="-74.5" font-family="Helvetica,sans-Serif" font-size="10.00">Times.h</text>
</a>
</g>
</g>
<!-- Node24&#45;&gt;Node63 -->
<g id="edge39" class="edge"><title>Node24&#45;&gt;Node63</title>
<path fill="none" stroke="midnightblue" d="M1925.1,-137.024C1827.69,-129.844 1665.14,-116.422 1526,-98 1522.92,-97.5921 1519.78,-97.1535 1516.61,-96.6921"/>
<polygon fill="midnightblue" stroke="midnightblue" points="1924.96,-140.523 1935.19,-137.763 1925.47,-133.542 1924.96,-140.523"/>
</g>
<!-- Node64 -->
<g id="node31" class="node"><title>Node64</title>
<g id="a_node31"><a xlink:href="_mp_equipment_config_8h.html" target="_top" xlink:title=" ">
<polygon fill="white" stroke="red" points="1535,-73 1535,-92 1695,-92 1695,-73 1535,-73"/>
<text text-anchor="middle" x="1615" y="-80" font-family="Helvetica,sans-Serif" font-size="10.00">Storm/Dm/MpEquipmentConfig.h</text>
</a>
</g>
</g>
<!-- Node24&#45;&gt;Node64 -->
<g id="edge40" class="edge"><title>Node24&#45;&gt;Node64</title>
<path fill="none" stroke="midnightblue" d="M1941.62,-133.053C1879.17,-124.145 1785.45,-110.584 1704,-98 1691.78,-96.1116 1678.62,-94.0079 1666.28,-92.0015"/>
<polygon fill="midnightblue" stroke="midnightblue" points="1941.36,-136.551 1951.76,-134.497 1942.35,-129.621 1941.36,-136.551"/>
</g>
<!-- Node46&#45;&gt;Node48 -->
<g id="edge32" class="edge"><title>Node46&#45;&gt;Node48</title>
<path fill="none" stroke="midnightblue" d="M2640.02,-64.0347C2647.95,-51.4499 2658.33,-35.0072 2664.56,-25.1273"/>
<polygon fill="midnightblue" stroke="midnightblue" points="2636.9,-62.4085 2634.53,-72.7338 2642.82,-66.1431 2636.9,-62.4085"/>
</g>
<!-- Node60&#45;&gt;Node49 -->
<g id="edge36" class="edge"><title>Node60&#45;&gt;Node49</title>
<path fill="none" stroke="midnightblue" d="M2168.48,-64.0347C2176.03,-51.4499 2185.9,-35.0072 2191.82,-25.1273"/>
<polygon fill="midnightblue" stroke="midnightblue" points="2165.4,-62.3581 2163.26,-72.7338 2171.41,-65.9596 2165.4,-62.3581"/>
</g>
<!-- Node72&#45;&gt;Node6 -->
<g id="edge42" class="edge"><title>Node72&#45;&gt;Node6</title>
<path fill="none" stroke="midnightblue" d="M1430.22,-141.423C1367.85,-137.652 1282.52,-126.963 1213,-98 1170.47,-80.281 1129.49,-42.2682 1112.37,-25.1588"/>
<polygon fill="midnightblue" stroke="midnightblue" points="1430.24,-144.929 1440.42,-141.99 1430.63,-137.94 1430.24,-144.929"/>
</g>
<!-- Node74 -->
<g id="node34" class="node"><title>Node74</title>
<g id="a_node34"><a xlink:href="_posix_2_listener_8h.html" target="_top" xlink:title=" ">
<polygon fill="white" stroke="black" points="2084,-190.5 2084,-220.5 2188,-220.5 2188,-190.5 2084,-190.5"/>
<text text-anchor="start" x="2092" y="-208.5" font-family="Helvetica,sans-Serif" font-size="10.00">Cpl/Io/Socket/Posix</text>
<text text-anchor="middle" x="2136" y="-197.5" font-family="Helvetica,sans-Serif" font-size="10.00">/Listener.h</text>
</a>
</g>
</g>
<!-- Node73&#45;&gt;Node74 -->
<g id="edge45" class="edge"><title>Node73&#45;&gt;Node74</title>
<path fill="none" stroke="midnightblue" d="M2138.13,-252.739C2137.66,-242.487 2137.08,-230.001 2136.65,-220.589"/>
<polygon fill="midnightblue" stroke="midnightblue" points="2134.64,-252.906 2138.6,-262.734 2141.63,-252.583 2134.64,-252.906"/>
</g>
<!-- Node75 -->
<g id="node35" class="node"><title>Node75</title>
<g id="a_node35"><a xlink:href="_win32_2_listener_8h.html" target="_top" xlink:title=" ">
<polygon fill="white" stroke="black" points="2206,-190.5 2206,-220.5 2312,-220.5 2312,-190.5 2206,-190.5"/>
<text text-anchor="start" x="2214" y="-208.5" font-family="Helvetica,sans-Serif" font-size="10.00">Cpl/Io/Socket/Win32</text>
<text text-anchor="middle" x="2259" y="-197.5" font-family="Helvetica,sans-Serif" font-size="10.00">/Listener.h</text>
</a>
</g>
</g>
<!-- Node73&#45;&gt;Node75 -->
<g id="edge46" class="edge"><title>Node73&#45;&gt;Node75</title>
<path fill="none" stroke="midnightblue" d="M2164.1,-257.902C2184.29,-246.966 2212.56,-231.653 2232.99,-220.589"/>
<polygon fill="midnightblue" stroke="midnightblue" points="2162.31,-254.893 2155.18,-262.734 2165.64,-261.048 2162.31,-254.893"/>
</g>
<!-- Node81 -->
<g id="node41" class="node"><title>Node81</title>
<g id="a_node41"><a xlink:href="_cpl_2_system_2_private___8h.html" target="_top" xlink:title="This file contains a collection of classes, interfaces, etc.">
<polygon fill="white" stroke="black" points="2756.5,-196 2756.5,-215 2871.5,-215 2871.5,-196 2756.5,-196"/>
<text text-anchor="middle" x="2814" y="-203" font-family="Helvetica,sans-Serif" font-size="10.00">Cpl/System/Private_.h</text>
</a>
</g>
</g>
<!-- Node80&#45;&gt;Node81 -->
<g id="edge52" class="edge"><title>Node80&#45;&gt;Node81</title>
<path fill="none" stroke="midnightblue" d="M2843.98,-254.035C2836.05,-241.45 2825.67,-225.007 2819.44,-215.127"/>
<polygon fill="midnightblue" stroke="midnightblue" points="2841.18,-256.143 2849.47,-262.734 2847.1,-252.409 2841.18,-256.143"/>
</g>
<!-- Node84 -->
<g id="node44" class="node"><title>Node84</title>
<g id="a_node44"><a xlink:href="_fsm__trace___8h.html" target="_top" xlink:title=" ">
<polygon fill="white" stroke="black" points="2889.5,-190.5 2889.5,-220.5 3034.5,-220.5 3034.5,-190.5 2889.5,-190.5"/>
<text text-anchor="start" x="2897.5" y="-208.5" font-family="Helvetica,sans-Serif" font-size="10.00">Storm/Component/Equipment</text>
<text text-anchor="middle" x="2962" y="-197.5" font-family="Helvetica,sans-Serif" font-size="10.00">/Stage/Fsm_trace_.h</text>
</a>
</g>
</g>
<!-- Node80&#45;&gt;Node84 -->
<g id="edge55" class="edge"><title>Node80&#45;&gt;Node84</title>
<path fill="none" stroke="midnightblue" d="M2878.12,-257.454C2896.07,-246.551 2920.84,-231.503 2938.81,-220.589"/>
<polygon fill="midnightblue" stroke="midnightblue" points="2876.16,-254.551 2869.43,-262.734 2879.79,-260.533 2876.16,-254.551"/>
</g>
<!-- Node82 -->
<g id="node42" class="node"><title>Node82</title>
<g id="a_node42"><a xlink:href="_maker_8h.html" target="_top" xlink:title=" ">
<polygon fill="white" stroke="black" points="2895,-134.5 2895,-153.5 2995,-153.5 2995,-134.5 2895,-134.5"/>
<text text-anchor="middle" x="2945" y="-141.5" font-family="Helvetica,sans-Serif" font-size="10.00">Cpl/TShell/Maker.h</text>
</a>
</g>
</g>
<!-- Node81&#45;&gt;Node82 -->
<g id="edge53" class="edge"><title>Node81&#45;&gt;Node82</title>
<path fill="none" stroke="midnightblue" d="M2841.9,-191.827C2867.33,-180.276 2904.2,-163.532 2926.27,-153.509"/>
<polygon fill="midnightblue" stroke="midnightblue" points="2840.43,-188.653 2832.77,-195.975 2843.32,-195.026 2840.43,-188.653"/>
</g>
<!-- Node83 -->
<g id="node43" class="node"><title>Node83</title>
<g id="a_node43"><a xlink:href="_polled_maker_8h.html" target="_top" xlink:title=" ">
<polygon fill="white" stroke="black" points="2749.5,-134.5 2749.5,-153.5 2876.5,-153.5 2876.5,-134.5 2749.5,-134.5"/>
<text text-anchor="middle" x="2813" y="-141.5" font-family="Helvetica,sans-Serif" font-size="10.00">Cpl/TShell/PolledMaker.h</text>
</a>
</g>
</g>
<!-- Node81&#45;&gt;Node83 -->
<g id="edge54" class="edge"><title>Node81&#45;&gt;Node83</title>
<path fill="none" stroke="midnightblue" d="M2813.69,-185.817C2813.5,-174.996 2813.28,-161.898 2813.14,-153.509"/>
<polygon fill="midnightblue" stroke="midnightblue" points="2810.19,-186.035 2813.86,-195.975 2817.19,-185.918 2810.19,-186.035"/>
</g>
<!-- Node87 -->
<g id="node47" class="node"><title>Node87</title>
<g id="a_node47"><a xlink:href="_free_r_t_o_s_2_threads_8h.html" target="_top" xlink:title=" ">
<polygon fill="white" stroke="black" points="3079,-190.5 3079,-220.5 3213,-220.5 3213,-190.5 3079,-190.5"/>
<text text-anchor="start" x="3087" y="-208.5" font-family="Helvetica,sans-Serif" font-size="10.00">Cpl/TShell/Cmd/FreeRTOS</text>
<text text-anchor="middle" x="3146" y="-197.5" font-family="Helvetica,sans-Serif" font-size="10.00">/Threads.h</text>
</a>
</g>
</g>
<!-- Node86&#45;&gt;Node87 -->
<g id="edge58" class="edge"><title>Node86&#45;&gt;Node87</title>
<path fill="none" stroke="midnightblue" d="M3147.41,-252.411C3147.1,-242.222 3146.72,-229.901 3146.43,-220.589"/>
<polygon fill="midnightblue" stroke="midnightblue" points="3143.92,-252.846 3147.73,-262.734 3150.92,-252.631 3143.92,-252.846"/>
</g>
<!-- Node88 -->
<g id="node48" class="node"><title>Node88</title>
<g id="a_node48"><a xlink:href="_win32_2_threads_8h.html" target="_top" xlink:title=" ">
<polygon fill="white" stroke="black" points="3231.5,-190.5 3231.5,-220.5 3346.5,-220.5 3346.5,-190.5 3231.5,-190.5"/>
<text text-anchor="start" x="3239.5" y="-208.5" font-family="Helvetica,sans-Serif" font-size="10.00">Cpl/TShell/Cmd/Win32</text>
<text text-anchor="middle" x="3289" y="-197.5" font-family="Helvetica,sans-Serif" font-size="10.00">/Threads.h</text>
</a>
</g>
</g>
<!-- Node86&#45;&gt;Node88 -->
<g id="edge59" class="edge"><title>Node86&#45;&gt;Node88</title>
<path fill="none" stroke="midnightblue" d="M3175.94,-258.621C3199.79,-247.625 3234.03,-231.841 3258.57,-220.528"/>
<polygon fill="midnightblue" stroke="midnightblue" points="3174.34,-255.503 3166.72,-262.869 3177.27,-261.86 3174.34,-255.503"/>
</g>
</g>
</svg>
