<?xml version="1.0" encoding="UTF-8" standalone="no"?>
<!DOCTYPE svg PUBLIC "-//W3C//DTD SVG 1.1//EN"
 "http://www.w3.org/Graphics/SVG/1.1/DTD/svg11.dtd">
<!-- Generated by graphviz version 10.0.1 (20240210.2158)
 -->
<!-- Title: Cpl/System/Timer.h Pages: 1 -->
<svg width="793pt" height="232pt"
 viewBox="0.00 0.00 793.12 232.00" xmlns="http://www.w3.org/2000/svg" xmlns:xlink="http://www.w3.org/1999/xlink">
<g id="graph0" class="graph" transform="scale(1 1) rotate(0) translate(4 228)">
<title>Cpl/System/Timer.h</title>
<!-- Node1 -->
<g id="Node000001" class="node">
<title>Node1</title>
<g id="a_Node000001"><a xlink:title=" ">
<polygon fill="#999999" stroke="#666666" points="458.12,-224 355.88,-224 355.88,-204 458.12,-204 458.12,-224"/>
<text text-anchor="middle" x="407" y="-210.5" font-family="Helvetica,sans-Serif" font-size="10.00">Cpl/System/Timer.h</text>
</a>
</g>
</g>
<!-- Node2 -->
<g id="Node000002" class="node">
<title>Node2</title>
<g id="a_Node000002"><a xlink:href="_dm_2_persistent_2_record_8h.html" target="_top" xlink:title=" ">
<polygon fill="white" stroke="#666666" points="282.75,-162 145.25,-162 145.25,-142 282.75,-142 282.75,-162"/>
<text text-anchor="middle" x="214" y="-148.5" font-family="Helvetica,sans-Serif" font-size="10.00">Cpl/Dm/Persistent/Record.h</text>
</a>
</g>
</g>
<!-- Node1&#45;&gt;Node2 -->
<g id="edge1_Node000001_Node000002" class="edge">
<title>Node1&#45;&gt;Node2</title>
<g id="a_edge1_Node000001_Node000002"><a xlink:title=" ">
<path fill="none" stroke="#63b8ff" d="M366.08,-200.28C329.61,-188.94 277.07,-172.61 244.26,-162.41"/>
<polygon fill="#63b8ff" stroke="#63b8ff" points="364.81,-203.55 375.4,-203.18 366.89,-196.86 364.81,-203.55"/>
</a>
</g>
</g>
<!-- Node5 -->
<g id="Node000005" class="node">
<title>Node5</title>
<g id="a_Node000005"><a xlink:href="_run_time_record_8h_source.html" target="_top" xlink:title=" ">
<polygon fill="white" stroke="#666666" points="390,-100 272,-100 272,-68 390,-68 390,-100"/>
<text text-anchor="start" x="280" y="-86.5" font-family="Helvetica,sans-Serif" font-size="10.00">Storm/Thermostat/Main</text>
<text text-anchor="middle" x="331" y="-74.5" font-family="Helvetica,sans-Serif" font-size="10.00">/RunTimeRecord.h</text>
</a>
</g>
</g>
<!-- Node1&#45;&gt;Node5 -->
<g id="edge10_Node000001_Node000005" class="edge">
<title>Node1&#45;&gt;Node5</title>
<g id="a_edge10_Node000001_Node000005"><a xlink:title=" ">
<path fill="none" stroke="#63b8ff" d="M373.6,-198.28C361,-191 347.84,-180.96 340,-168 327.4,-147.16 327.46,-117.93 328.99,-100.29"/>
<polygon fill="#63b8ff" stroke="#63b8ff" points="371.65,-201.21 382.13,-202.81 374.94,-195.03 371.65,-201.21"/>
</a>
</g>
</g>
<!-- Node7 -->
<g id="Node000007" class="node">
<title>Node7</title>
<g id="a_Node000007"><a xlink:href="_cpl_2_m_app_2_temperature_2_api_8h.html" target="_top" xlink:title=" ">
<polygon fill="white" stroke="#666666" points="464.88,-168 349.12,-168 349.12,-136 464.88,-136 464.88,-168"/>
<text text-anchor="start" x="357.12" y="-154.5" font-family="Helvetica,sans-Serif" font-size="10.00">Cpl/MApp/Temperature</text>
<text text-anchor="middle" x="407" y="-142.5" font-family="Helvetica,sans-Serif" font-size="10.00">/Api.h</text>
</a>
</g>
</g>
<!-- Node1&#45;&gt;Node7 -->
<g id="edge8_Node000001_Node000007" class="edge">
<title>Node1&#45;&gt;Node7</title>
<g id="a_edge8_Node000001_Node000007"><a xlink:title=" ">
<path fill="none" stroke="#63b8ff" d="M407,-192.31C407,-184.37 407,-175.46 407,-168.14"/>
<polygon fill="#63b8ff" stroke="#63b8ff" points="403.5,-192.11 407,-202.11 410.5,-192.11 403.5,-192.11"/>
</a>
</g>
</g>
<!-- Node8 -->
<g id="Node000008" class="node">
<title>Node8</title>
<g id="a_Node000008"><a xlink:href="_algorithm_8h.html" target="_top" xlink:title=" ">
<polygon fill="white" stroke="#666666" points="629.25,-162 482.75,-162 482.75,-142 629.25,-142 629.25,-162"/>
<text text-anchor="middle" x="556" y="-148.5" font-family="Helvetica,sans-Serif" font-size="10.00">Storm/Thermostat/Algorithm.h</text>
</a>
</g>
</g>
<!-- Node1&#45;&gt;Node8 -->
<g id="edge9_Node000001_Node000008" class="edge">
<title>Node1&#45;&gt;Node8</title>
<g id="a_edge9_Node000001_Node000008"><a xlink:title=" ">
<path fill="none" stroke="#63b8ff" d="M440.83,-199.38C468.96,-188.05 508.23,-172.23 532.88,-162.31"/>
<polygon fill="#63b8ff" stroke="#63b8ff" points="439.65,-196.08 431.69,-203.06 442.27,-202.57 439.65,-196.08"/>
</a>
</g>
</g>
<!-- Node9 -->
<g id="Node000009" class="node">
<title>Node9</title>
<g id="a_Node000009"><a xlink:href="_event_monitor_8h_source.html" target="_top" xlink:title=" ">
<polygon fill="white" stroke="#666666" points="785.12,-168 646.88,-168 646.88,-136 785.12,-136 785.12,-168"/>
<text text-anchor="start" x="654.88" y="-154.5" font-family="Helvetica,sans-Serif" font-size="10.00">Storm/Thermostat/Ui</text>
<text text-anchor="middle" x="716" y="-142.5" font-family="Helvetica,sans-Serif" font-size="10.00">/PicoDisplay/EventMonitor.h</text>
</a>
</g>
</g>
<!-- Node1&#45;&gt;Node9 -->
<g id="edge11_Node000001_Node000009" class="edge">
<title>Node1&#45;&gt;Node9</title>
<g id="a_edge11_Node000001_Node000009"><a xlink:title=" ">
<path fill="none" stroke="#63b8ff" d="M466.88,-201.37C518.28,-191.39 592.4,-177 646.43,-166.51"/>
<polygon fill="#63b8ff" stroke="#63b8ff" points="466.26,-197.93 457.11,-203.27 467.59,-204.8 466.26,-197.93"/>
</a>
</g>
</g>
<!-- Node3 -->
<g id="Node000003" class="node">
<title>Node3</title>
<g id="a_Node000003"><a xlink:href="_installer_record_8h_source.html" target="_top" xlink:title=" ">
<polygon fill="white" stroke="#666666" points="118,-100 0,-100 0,-68 118,-68 118,-100"/>
<text text-anchor="start" x="8" y="-86.5" font-family="Helvetica,sans-Serif" font-size="10.00">Storm/Thermostat/Main</text>
<text text-anchor="middle" x="59" y="-74.5" font-family="Helvetica,sans-Serif" font-size="10.00">/InstallerRecord.h</text>
</a>
</g>
</g>
<!-- Node2&#45;&gt;Node3 -->
<g id="edge2_Node000002_Node000003" class="edge">
<title>Node2&#45;&gt;Node3</title>
<g id="a_edge2_Node000002_Node000003"><a xlink:title=" ">
<path fill="none" stroke="#63b8ff" d="M181.3,-137.07C156.1,-126.34 121.28,-111.52 95.23,-100.43"/>
<polygon fill="#63b8ff" stroke="#63b8ff" points="179.83,-140.25 190.4,-140.95 182.57,-133.81 179.83,-140.25"/>
</a>
</g>
</g>
<!-- Node2&#45;&gt;Node5 -->
<g id="edge4_Node000002_Node000005" class="edge">
<title>Node2&#45;&gt;Node5</title>
<g id="a_edge4_Node000002_Node000005"><a xlink:title=" ">
<path fill="none" stroke="#63b8ff" d="M240.53,-136.03C259.46,-125.36 284.82,-111.05 303.88,-100.3"/>
<polygon fill="#63b8ff" stroke="#63b8ff" points="239.07,-132.84 232.08,-140.8 242.51,-138.94 239.07,-132.84"/>
</a>
</g>
</g>
<!-- Node6 -->
<g id="Node000006" class="node">
<title>Node6</title>
<g id="a_Node000006"><a xlink:href="_user_record_8h_source.html" target="_top" xlink:title=" ">
<polygon fill="white" stroke="#666666" points="254,-100 136,-100 136,-68 254,-68 254,-100"/>
<text text-anchor="start" x="144" y="-86.5" font-family="Helvetica,sans-Serif" font-size="10.00">Storm/Thermostat/Main</text>
<text text-anchor="middle" x="195" y="-74.5" font-family="Helvetica,sans-Serif" font-size="10.00">/UserRecord.h</text>
</a>
</g>
</g>
<!-- Node2&#45;&gt;Node6 -->
<g id="edge6_Node000002_Node000006" class="edge">
<title>Node2&#45;&gt;Node6</title>
<g id="a_edge6_Node000002_Node000006"><a xlink:title=" ">
<path fill="none" stroke="#63b8ff" d="M208.17,-130.75C205.35,-120.94 202.01,-109.36 199.4,-100.3"/>
<polygon fill="#63b8ff" stroke="#63b8ff" points="204.73,-131.45 210.86,-140.09 211.46,-129.51 204.73,-131.45"/>
</a>
</g>
</g>
<!-- Node4 -->
<g id="Node000004" class="node">
<title>Node4</title>
<g id="a_Node000004"><a xlink:href="statics___8h.html" target="_top" xlink:title="This file defines/creates persistent records and record server for the Thermostat simulation.">
<polygon fill="white" stroke="#666666" points="254,-32 136,-32 136,0 254,0 254,-32"/>
<text text-anchor="start" x="144" y="-18.5" font-family="Helvetica,sans-Serif" font-size="10.00">Storm/Thermostat/Main</text>
<text text-anchor="middle" x="195" y="-6.5" font-family="Helvetica,sans-Serif" font-size="10.00">/_simulation/statics_.h</text>
</a>
</g>
</g>
<!-- Node3&#45;&gt;Node4 -->
<g id="edge3_Node000003_Node000004" class="edge">
<title>Node3&#45;&gt;Node4</title>
<g id="a_edge3_Node000003_Node000004"><a xlink:title=" ">
<path fill="none" stroke="#63b8ff" d="M101.02,-62.61C121.11,-52.86 144.76,-41.38 163.31,-32.38"/>
<polygon fill="#63b8ff" stroke="#63b8ff" points="99.72,-59.35 92.25,-66.87 102.77,-65.65 99.72,-59.35"/>
</a>
</g>
</g>
<!-- Node5&#45;&gt;Node4 -->
<g id="edge5_Node000005_Node000004" class="edge">
<title>Node5&#45;&gt;Node4</title>
<g id="a_edge5_Node000005_Node000004"><a xlink:title=" ">
<path fill="none" stroke="#63b8ff" d="M288.98,-62.61C268.89,-52.86 245.24,-41.38 226.69,-32.38"/>
<polygon fill="#63b8ff" stroke="#63b8ff" points="287.23,-65.65 297.75,-66.87 290.28,-59.35 287.23,-65.65"/>
</a>
</g>
</g>
<!-- Node6&#45;&gt;Node4 -->
<g id="edge7_Node000006_Node000004" class="edge">
<title>Node6&#45;&gt;Node4</title>
<g id="a_edge7_Node000006_Node000004"><a xlink:title=" ">
<path fill="none" stroke="#63b8ff" d="M195,-56.31C195,-48.12 195,-39.38 195,-32.22"/>
<polygon fill="#63b8ff" stroke="#63b8ff" points="191.5,-56.18 195,-66.18 198.5,-56.18 191.5,-56.18"/>
</a>
</g>
</g>
</g>
</svg>
