<?xml version="1.0" encoding="UTF-8" standalone="no"?>
<!DOCTYPE svg PUBLIC "-//W3C//DTD SVG 1.1//EN"
 "http://www.w3.org/Graphics/SVG/1.1/DTD/svg11.dtd">
<!-- Generated by graphviz version 2.38.0 (20140413.2041)
 -->
<!-- Title: Cpl/System/Timer.h Pages: 1 -->
<svg width="508pt" height="218pt"
 viewBox="0.00 0.00 507.50 218.00" xmlns="http://www.w3.org/2000/svg" xmlns:xlink="http://www.w3.org/1999/xlink">
<g id="graph0" class="graph" transform="scale(1 1) rotate(0) translate(4 214)">
<title>Cpl/System/Timer.h</title>
<polygon fill="white" stroke="none" points="-4,4 -4,-214 503.5,-214 503.5,4 -4,4"/>
<!-- Node1 -->
<g id="node1" class="node"><title>Node1</title>
<g id="a_node1"><a xlink:title=" ">
<polygon fill="#bfbfbf" stroke="black" points="271.5,-190.5 271.5,-209.5 375.5,-209.5 375.5,-190.5 271.5,-190.5"/>
<text text-anchor="middle" x="323.5" y="-197.5" font-family="Helvetica,sans-Serif" font-size="10.00">Cpl/System/Timer.h</text>
</a>
</g>
</g>
<!-- Node2 -->
<g id="node2" class="node"><title>Node2</title>
<g id="a_node2"><a xlink:href="_dm_2_persistent_2_record_8h.html" target="_top" xlink:title=" ">
<polygon fill="white" stroke="black" points="137.5,-134.5 137.5,-153.5 275.5,-153.5 275.5,-134.5 137.5,-134.5"/>
<text text-anchor="middle" x="206.5" y="-141.5" font-family="Helvetica,sans-Serif" font-size="10.00">Cpl/Dm/Persistent/Record.h</text>
</a>
</g>
</g>
<!-- Node1&#45;&gt;Node2 -->
<g id="edge1" class="edge"><title>Node1&#45;&gt;Node2</title>
<path fill="none" stroke="midnightblue" d="M295.836,-186.232C273.951,-176.131 244.003,-162.309 224.952,-153.516"/>
<polygon fill="midnightblue" stroke="midnightblue" points="294.415,-189.431 304.961,-190.444 297.348,-183.075 294.415,-189.431"/>
</g>
<!-- Node5 -->
<g id="node5" class="node"><title>Node5</title>
<g id="a_node5"><a xlink:href="_run_time_record_8h_source.html" target="_top" xlink:title=" ">
<polygon fill="white" stroke="black" points="274,-67.5 274,-97.5 393,-97.5 393,-67.5 274,-67.5"/>
<text text-anchor="start" x="282" y="-85.5" font-family="Helvetica,sans-Serif" font-size="10.00">Storm/Thermostat/Main</text>
<text text-anchor="middle" x="333.5" y="-74.5" font-family="Helvetica,sans-Serif" font-size="10.00">/RunTimeRecord.h</text>
</a>
</g>
</g>
<!-- Node1&#45;&gt;Node5 -->
<g id="edge9" class="edge"><title>Node1&#45;&gt;Node5</title>
<path fill="none" stroke="midnightblue" d="M325.139,-180.068C327.145,-156.904 330.494,-118.223 332.284,-97.5453"/>
<polygon fill="midnightblue" stroke="midnightblue" points="321.627,-180.054 324.252,-190.319 328.601,-180.658 321.627,-180.054"/>
</g>
<!-- Node7 -->
<g id="node7" class="node"><title>Node7</title>
<g id="a_node7"><a xlink:href="_algorithm_8h.html" target="_top" xlink:title=" ">
<polygon fill="white" stroke="black" points="351.5,-134.5 351.5,-153.5 499.5,-153.5 499.5,-134.5 351.5,-134.5"/>
<text text-anchor="middle" x="425.5" y="-141.5" font-family="Helvetica,sans-Serif" font-size="10.00">Storm/Thermostat/Algorithm.h</text>
</a>
</g>
</g>
<!-- Node1&#45;&gt;Node7 -->
<g id="edge8" class="edge"><title>Node1&#45;&gt;Node7</title>
<path fill="none" stroke="midnightblue" d="M348.831,-185.59C367.69,-175.605 392.884,-162.267 409.153,-153.655"/>
<polygon fill="midnightblue" stroke="midnightblue" points="347.088,-182.552 339.888,-190.324 350.364,-188.738 347.088,-182.552"/>
</g>
<!-- Node3 -->
<g id="node3" class="node"><title>Node3</title>
<g id="a_node3"><a xlink:href="_installer_record_8h_source.html" target="_top" xlink:title=" ">
<polygon fill="white" stroke="black" points="0,-67.5 0,-97.5 119,-97.5 119,-67.5 0,-67.5"/>
<text text-anchor="start" x="8" y="-85.5" font-family="Helvetica,sans-Serif" font-size="10.00">Storm/Thermostat/Main</text>
<text text-anchor="middle" x="59.5" y="-74.5" font-family="Helvetica,sans-Serif" font-size="10.00">/InstallerRecord.h</text>
</a>
</g>
</g>
<!-- Node2&#45;&gt;Node3 -->
<g id="edge2" class="edge"><title>Node2&#45;&gt;Node3</title>
<path fill="none" stroke="midnightblue" d="M176.159,-130.719C152.3,-121.062 119.047,-107.602 94.145,-97.523"/>
<polygon fill="midnightblue" stroke="midnightblue" points="174.856,-133.967 185.438,-134.475 177.482,-127.479 174.856,-133.967"/>
</g>
<!-- Node2&#45;&gt;Node5 -->
<g id="edge4" class="edge"><title>Node2&#45;&gt;Node5</title>
<path fill="none" stroke="midnightblue" d="M233.82,-130.2C254.345,-120.585 282.437,-107.423 303.569,-97.523"/>
<polygon fill="midnightblue" stroke="midnightblue" points="232.267,-127.063 224.696,-134.475 235.236,-133.402 232.267,-127.063"/>
</g>
<!-- Node6 -->
<g id="node6" class="node"><title>Node6</title>
<g id="a_node6"><a xlink:href="_user_record_8h_source.html" target="_top" xlink:title=" ">
<polygon fill="white" stroke="black" points="137,-67.5 137,-97.5 256,-97.5 256,-67.5 137,-67.5"/>
<text text-anchor="start" x="145" y="-85.5" font-family="Helvetica,sans-Serif" font-size="10.00">Storm/Thermostat/Main</text>
<text text-anchor="middle" x="196.5" y="-74.5" font-family="Helvetica,sans-Serif" font-size="10.00">/UserRecord.h</text>
</a>
</g>
</g>
<!-- Node2&#45;&gt;Node6 -->
<g id="edge6" class="edge"><title>Node2&#45;&gt;Node6</title>
<path fill="none" stroke="midnightblue" d="M203.395,-124.526C201.931,-115.813 200.212,-105.586 198.857,-97.523"/>
<polygon fill="midnightblue" stroke="midnightblue" points="199.958,-125.194 205.067,-134.475 206.861,-124.033 199.958,-125.194"/>
</g>
<!-- Node4 -->
<g id="node4" class="node"><title>Node4</title>
<g id="a_node4"><a xlink:href="statics___8h.html" target="_top" xlink:title="This file defines/creates persistent records and record server for the Thermostat simulation.">
<polygon fill="white" stroke="black" points="137,-0.5 137,-30.5 256,-30.5 256,-0.5 137,-0.5"/>
<text text-anchor="start" x="145" y="-18.5" font-family="Helvetica,sans-Serif" font-size="10.00">Storm/Thermostat/Main</text>
<text text-anchor="middle" x="196.5" y="-7.5" font-family="Helvetica,sans-Serif" font-size="10.00">/_simulation/statics_.h</text>
</a>
</g>
</g>
<!-- Node3&#45;&gt;Node4 -->
<g id="edge3" class="edge"><title>Node3&#45;&gt;Node4</title>
<path fill="none" stroke="midnightblue" d="M98.5091,-62.9921C120.224,-52.6892 146.827,-40.0677 166.831,-30.5765"/>
<polygon fill="midnightblue" stroke="midnightblue" points="96.7614,-59.9472 89.227,-67.396 99.762,-66.2715 96.7614,-59.9472"/>
</g>
<!-- Node5&#45;&gt;Node4 -->
<g id="edge5" class="edge"><title>Node5&#45;&gt;Node4</title>
<path fill="none" stroke="midnightblue" d="M294.491,-62.9921C272.776,-52.6892 246.173,-40.0677 226.169,-30.5765"/>
<polygon fill="midnightblue" stroke="midnightblue" points="293.238,-66.2715 303.773,-67.396 296.239,-59.9472 293.238,-66.2715"/>
</g>
<!-- Node6&#45;&gt;Node4 -->
<g id="edge7" class="edge"><title>Node6&#45;&gt;Node4</title>
<path fill="none" stroke="midnightblue" d="M196.5,-57.1081C196.5,-48.1539 196.5,-38.3227 196.5,-30.5765"/>
<polygon fill="midnightblue" stroke="midnightblue" points="193,-57.3959 196.5,-67.396 200,-57.396 193,-57.3959"/>
</g>
</g>
</svg>
