<?xml version="1.0" encoding="UTF-8" standalone="no"?>
<!DOCTYPE svg PUBLIC "-//W3C//DTD SVG 1.1//EN"
 "http://www.w3.org/Graphics/SVG/1.1/DTD/svg11.dtd">
<!-- Generated by graphviz version 2.38.0 (20140413.2041)
 -->
<!-- Title: Storm/Type/OperatingMode.h Pages: 1 -->
<svg width="1556pt" height="464pt"
 viewBox="0.00 0.00 1556.00 464.00" xmlns="http://www.w3.org/2000/svg" xmlns:xlink="http://www.w3.org/1999/xlink">
<g id="graph0" class="graph" transform="scale(1 1) rotate(0) translate(4 460)">
<title>Storm/Type/OperatingMode.h</title>
<polygon fill="white" stroke="none" points="-4,4 -4,-460 1552,-460 1552,4 -4,4"/>
<!-- Node1 -->
<g id="node1" class="node"><title>Node1</title>
<g id="a_node1"><a xlink:title=" ">
<polygon fill="#bfbfbf" stroke="black" points="852,-436.5 852,-455.5 997,-455.5 997,-436.5 852,-436.5"/>
<text text-anchor="middle" x="924.5" y="-443.5" font-family="Helvetica,sans-Serif" font-size="10.00">Storm/Type/OperatingMode.h</text>
</a>
</g>
</g>
<!-- Node2 -->
<g id="node2" class="node"><title>Node2</title>
<g id="a_node2"><a xlink:href="_mp_system_config_8h.html" target="_top" xlink:title=" ">
<polygon fill="white" stroke="black" points="851,-324.5 851,-343.5 998,-343.5 998,-324.5 851,-324.5"/>
<text text-anchor="middle" x="924.5" y="-331.5" font-family="Helvetica,sans-Serif" font-size="10.00">Storm/Dm/MpSystemConfig.h</text>
</a>
</g>
</g>
<!-- Node1&#45;&gt;Node2 -->
<g id="edge1" class="edge"><title>Node1&#45;&gt;Node2</title>
<path fill="none" stroke="midnightblue" d="M909.448,-428.565C899.542,-415.715 889.291,-397.204 894.5,-380 898.745,-365.981 908.956,-352.337 916.286,-343.818"/>
<polygon fill="midnightblue" stroke="midnightblue" points="906.958,-431.043 916.057,-436.471 912.329,-426.554 906.958,-431.043"/>
</g>
<!-- Node22 -->
<g id="node22" class="node"><title>Node22</title>
<g id="a_node22"><a xlink:href="_system_config_8h.html" target="_top" xlink:title=" ">
<polygon fill="white" stroke="black" points="903.5,-380.5 903.5,-399.5 1043.5,-399.5 1043.5,-380.5 903.5,-380.5"/>
<text text-anchor="middle" x="973.5" y="-387.5" font-family="Helvetica,sans-Serif" font-size="10.00">Storm/Type/SystemConfig.h</text>
</a>
</g>
</g>
<!-- Node1&#45;&gt;Node22 -->
<g id="edge37" class="edge"><title>Node1&#45;&gt;Node22</title>
<path fill="none" stroke="midnightblue" d="M939.534,-428.431C948.122,-418.967 958.543,-407.483 965.559,-399.751"/>
<polygon fill="midnightblue" stroke="midnightblue" points="936.719,-426.325 932.591,-436.083 941.903,-431.029 936.719,-426.325"/>
</g>
<!-- Node3 -->
<g id="node3" class="node"><title>Node3</title>
<g id="a_node3"><a xlink:href="_control_8h.html" target="_top" xlink:title=" ">
<polygon fill="white" stroke="black" points="238,-263 238,-282 375,-282 375,-263 238,-263"/>
<text text-anchor="middle" x="306.5" y="-270" font-family="Helvetica,sans-Serif" font-size="10.00">Storm/Component/Control.h</text>
</a>
</g>
</g>
<!-- Node2&#45;&gt;Node3 -->
<g id="edge2" class="edge"><title>Node2&#45;&gt;Node3</title>
<path fill="none" stroke="midnightblue" d="M840.732,-324.935C717.467,-313.067 489.519,-291.121 375.382,-280.132"/>
<polygon fill="midnightblue" stroke="midnightblue" points="840.585,-328.437 850.875,-325.911 841.256,-321.469 840.585,-328.437"/>
</g>
<!-- Node12 -->
<g id="node12" class="node"><title>Node12</title>
<g id="a_node12"><a xlink:href="_fan_control_8h.html" target="_top" xlink:title=" ">
<polygon fill="white" stroke="black" points="809.5,-62 809.5,-81 963.5,-81 963.5,-62 809.5,-62"/>
<text text-anchor="middle" x="886.5" y="-69" font-family="Helvetica,sans-Serif" font-size="10.00">Storm/Component/FanControl.h</text>
</a>
</g>
</g>
<!-- Node2&#45;&gt;Node12 -->
<g id="edge18" class="edge"><title>Node2&#45;&gt;Node12</title>
<path fill="none" stroke="midnightblue" d="M921.08,-314.255C917.082,-292.041 910.392,-253.892 905.5,-221 897.623,-168.04 890.12,-104.156 887.49,-81.2209"/>
<polygon fill="midnightblue" stroke="midnightblue" points="917.674,-315.09 922.901,-324.306 924.562,-313.842 917.674,-315.09"/>
</g>
<!-- Node13 -->
<g id="node13" class="node"><title>Node13</title>
<g id="a_node13"><a xlink:href="_component_2_hvac_relay_outputs_8h.html" target="_top" xlink:title=" ">
<polygon fill="white" stroke="black" points="914.5,-190.5 914.5,-220.5 1060.5,-220.5 1060.5,-190.5 914.5,-190.5"/>
<text text-anchor="start" x="922.5" y="-208.5" font-family="Helvetica,sans-Serif" font-size="10.00">Storm/Component/HvacRelay</text>
<text text-anchor="middle" x="987.5" y="-197.5" font-family="Helvetica,sans-Serif" font-size="10.00">Outputs.h</text>
</a>
</g>
</g>
<!-- Node2&#45;&gt;Node13 -->
<g id="edge20" class="edge"><title>Node2&#45;&gt;Node13</title>
<path fill="none" stroke="midnightblue" d="M926.738,-313.899C929.184,-297.971 934.085,-275.048 943.5,-257 950.707,-243.185 962.425,-229.996 971.956,-220.563"/>
<polygon fill="midnightblue" stroke="midnightblue" points="923.231,-313.713 925.36,-324.091 930.168,-314.65 923.231,-313.713"/>
</g>
<!-- Node14 -->
<g id="node14" class="node"><title>Node14</title>
<g id="a_node14"><a xlink:href="_component_2_operating_mode_8h.html" target="_top" xlink:title=" ">
<polygon fill="white" stroke="black" points="952.5,-257.5 952.5,-287.5 1092.5,-287.5 1092.5,-257.5 952.5,-257.5"/>
<text text-anchor="start" x="960.5" y="-275.5" font-family="Helvetica,sans-Serif" font-size="10.00">Storm/Component/Operating</text>
<text text-anchor="middle" x="1022.5" y="-264.5" font-family="Helvetica,sans-Serif" font-size="10.00">Mode.h</text>
</a>
</g>
</g>
<!-- Node2&#45;&gt;Node14 -->
<g id="edge22" class="edge"><title>Node2&#45;&gt;Node14</title>
<path fill="none" stroke="midnightblue" d="M947.104,-319.276C962.787,-309.754 983.614,-297.11 999.403,-287.523"/>
<polygon fill="midnightblue" stroke="midnightblue" points="945.272,-316.294 938.541,-324.475 948.905,-322.277 945.272,-316.294"/>
</g>
<!-- Node15 -->
<g id="node15" class="node"><title>Node15</title>
<g id="a_node15"><a xlink:href="_pi_8h.html" target="_top" xlink:title=" ">
<polygon fill="white" stroke="black" points="1110.5,-263 1110.5,-282 1226.5,-282 1226.5,-263 1110.5,-263"/>
<text text-anchor="middle" x="1168.5" y="-270" font-family="Helvetica,sans-Serif" font-size="10.00">Storm/Component/Pi.h</text>
</a>
</g>
</g>
<!-- Node2&#45;&gt;Node15 -->
<g id="edge24" class="edge"><title>Node2&#45;&gt;Node15</title>
<path fill="none" stroke="midnightblue" d="M969.44,-322.041C1016.81,-310.49 1090.42,-292.539 1133.61,-282.009"/>
<polygon fill="midnightblue" stroke="midnightblue" points="968.345,-318.706 959.459,-324.475 970.004,-325.506 968.345,-318.706"/>
</g>
<!-- Node16 -->
<g id="node16" class="node"><title>Node16</title>
<g id="a_node16"><a xlink:href="_pi_pre_process_8h.html" target="_top" xlink:title=" ">
<polygon fill="white" stroke="black" points="691,-129 691,-148 858,-148 858,-129 691,-129"/>
<text text-anchor="middle" x="774.5" y="-136" font-family="Helvetica,sans-Serif" font-size="10.00">Storm/Component/PiPreProcess.h</text>
</a>
</g>
</g>
<!-- Node2&#45;&gt;Node16 -->
<g id="edge26" class="edge"><title>Node2&#45;&gt;Node16</title>
<path fill="none" stroke="midnightblue" d="M904.931,-318.207C894.658,-309.933 882.222,-299.076 872.5,-288 830.116,-239.713 791.911,-171.859 779.074,-148.112"/>
<polygon fill="midnightblue" stroke="midnightblue" points="902.917,-321.076 912.944,-324.498 907.24,-315.57 902.917,-321.076"/>
</g>
<!-- Node17 -->
<g id="node17" class="node"><title>Node17</title>
<g id="a_node17"><a xlink:href="_model_points_8h.html" target="_top" xlink:title="This file defines all of the Model Points for the Thermostat Application.">
<polygon fill="white" stroke="black" points="1258,-263 1258,-282 1419,-282 1419,-263 1258,-263"/>
<text text-anchor="middle" x="1338.5" y="-270" font-family="Helvetica,sans-Serif" font-size="10.00">Storm/Thermostat/ModelPoints.h</text>
</a>
</g>
</g>
<!-- Node2&#45;&gt;Node17 -->
<g id="edge30" class="edge"><title>Node2&#45;&gt;Node17</title>
<path fill="none" stroke="midnightblue" d="M993.792,-323.041C1073.75,-311.55 1203.87,-292.848 1279.29,-282.009"/>
<polygon fill="midnightblue" stroke="midnightblue" points="993.216,-319.588 983.816,-324.475 994.212,-326.517 993.216,-319.588"/>
</g>
<!-- Node4 -->
<g id="node4" class="node"><title>Node4</title>
<g id="a_node4"><a xlink:href="_cooling_8h.html" target="_top" xlink:title=" ">
<polygon fill="white" stroke="black" points="365,-123.5 365,-153.5 510,-153.5 510,-123.5 365,-123.5"/>
<text text-anchor="start" x="373" y="-141.5" font-family="Helvetica,sans-Serif" font-size="10.00">Storm/Component/Equipment</text>
<text text-anchor="middle" x="437.5" y="-130.5" font-family="Helvetica,sans-Serif" font-size="10.00">/Cooling.h</text>
</a>
</g>
</g>
<!-- Node3&#45;&gt;Node4 -->
<g id="edge3" class="edge"><title>Node3&#45;&gt;Node4</title>
<path fill="none" stroke="midnightblue" d="M378.86,-260.141C401.419,-252.819 423.924,-240.783 437.5,-221 451.27,-200.934 446.537,-171.041 441.948,-153.584"/>
<polygon fill="midnightblue" stroke="midnightblue" points="377.808,-256.802 369.214,-262.999 379.796,-263.514 377.808,-256.802"/>
</g>
<!-- Node5 -->
<g id="node5" class="node"><title>Node5</title>
<g id="a_node5"><a xlink:href="_algorithm_8h.html" target="_top" xlink:title=" ">
<polygon fill="white" stroke="black" points="606.5,-0.5 606.5,-19.5 754.5,-19.5 754.5,-0.5 606.5,-0.5"/>
<text text-anchor="middle" x="680.5" y="-7.5" font-family="Helvetica,sans-Serif" font-size="10.00">Storm/Thermostat/Algorithm.h</text>
</a>
</g>
</g>
<!-- Node3&#45;&gt;Node5 -->
<g id="edge17" class="edge"><title>Node3&#45;&gt;Node5</title>
<path fill="none" stroke="midnightblue" d="M281.849,-257.826C238.906,-232.199 158.087,-174.844 192.5,-123 237.808,-54.7418 480.976,-26.2804 606.06,-16.017"/>
<polygon fill="midnightblue" stroke="midnightblue" points="280.227,-260.932 290.63,-262.94 283.75,-254.883 280.227,-260.932"/>
</g>
<!-- Node6 -->
<g id="node6" class="node"><title>Node6</title>
<g id="a_node6"><a xlink:href="_indoor_heating_8h.html" target="_top" xlink:title=" ">
<polygon fill="white" stroke="black" points="202,-123.5 202,-153.5 347,-153.5 347,-123.5 202,-123.5"/>
<text text-anchor="start" x="210" y="-141.5" font-family="Helvetica,sans-Serif" font-size="10.00">Storm/Component/Equipment</text>
<text text-anchor="middle" x="274.5" y="-130.5" font-family="Helvetica,sans-Serif" font-size="10.00">/IndoorHeating.h</text>
</a>
</g>
</g>
<!-- Node3&#45;&gt;Node6 -->
<g id="edge5" class="edge"><title>Node3&#45;&gt;Node6</title>
<path fill="none" stroke="midnightblue" d="M292.658,-254.989C285.741,-245.651 278.095,-233.389 274.5,-221 267.876,-198.171 269.946,-170.206 272.152,-153.677"/>
<polygon fill="midnightblue" stroke="midnightblue" points="289.983,-257.25 298.91,-262.955 295.489,-252.928 289.983,-257.25"/>
</g>
<!-- Node7 -->
<g id="node7" class="node"><title>Node7</title>
<g id="a_node7"><a xlink:href="_off_8h.html" target="_top" xlink:title=" ">
<polygon fill="white" stroke="black" points="0,-56.5 0,-86.5 145,-86.5 145,-56.5 0,-56.5"/>
<text text-anchor="start" x="8" y="-74.5" font-family="Helvetica,sans-Serif" font-size="10.00">Storm/Component/Equipment</text>
<text text-anchor="middle" x="72.5" y="-63.5" font-family="Helvetica,sans-Serif" font-size="10.00">/Off.h</text>
</a>
</g>
</g>
<!-- Node3&#45;&gt;Node7 -->
<g id="edge7" class="edge"><title>Node3&#45;&gt;Node7</title>
<path fill="none" stroke="midnightblue" d="M244.64,-260.553C216.339,-253.114 183.784,-240.875 159.5,-221 113.948,-183.719 86.9837,-115.877 76.9745,-86.5867"/>
<polygon fill="midnightblue" stroke="midnightblue" points="243.903,-263.976 254.452,-262.989 245.59,-257.182 243.903,-263.976"/>
</g>
<!-- Node8 -->
<g id="node8" class="node"><title>Node8</title>
<g id="a_node8"><a xlink:href="_stage_api_8h.html" target="_top" xlink:title=" ">
<polygon fill="white" stroke="black" points="284,-190.5 284,-220.5 429,-220.5 429,-190.5 284,-190.5"/>
<text text-anchor="start" x="292" y="-208.5" font-family="Helvetica,sans-Serif" font-size="10.00">Storm/Component/Equipment</text>
<text text-anchor="middle" x="356.5" y="-197.5" font-family="Helvetica,sans-Serif" font-size="10.00">/StageApi.h</text>
</a>
</g>
</g>
<!-- Node3&#45;&gt;Node8 -->
<g id="edge9" class="edge"><title>Node3&#45;&gt;Node8</title>
<path fill="none" stroke="midnightblue" d="M319.444,-254.673C327.582,-244.094 337.96,-230.602 345.662,-220.589"/>
<polygon fill="midnightblue" stroke="midnightblue" points="316.566,-252.674 313.243,-262.734 322.115,-256.942 316.566,-252.674"/>
</g>
<!-- Node4&#45;&gt;Node5 -->
<g id="edge4" class="edge"><title>Node4&#45;&gt;Node5</title>
<path fill="none" stroke="midnightblue" d="M429.253,-113.572C424.738,-95.6935 422.399,-71.7265 435.5,-56 456.952,-30.2489 542.242,-19.1841 606.202,-14.4616"/>
<polygon fill="midnightblue" stroke="midnightblue" points="425.923,-114.653 432.063,-123.287 432.647,-112.708 425.923,-114.653"/>
</g>
<!-- Node6&#45;&gt;Node5 -->
<g id="edge6" class="edge"><title>Node6&#45;&gt;Node5</title>
<path fill="none" stroke="midnightblue" d="M303.413,-117.782C332.302,-99.0185 378.613,-71.427 422.5,-56 482.446,-34.9283 553.828,-23.4524 606.297,-17.3751"/>
<polygon fill="midnightblue" stroke="midnightblue" points="301.459,-114.878 295.029,-123.298 305.307,-120.725 301.459,-114.878"/>
</g>
<!-- Node7&#45;&gt;Node5 -->
<g id="edge8" class="edge"><title>Node7&#45;&gt;Node5</title>
<path fill="none" stroke="midnightblue" d="M155.048,-56.577C156.543,-56.3785 158.028,-56.1859 159.5,-56 318.027,-35.975 504.834,-22.2148 606.106,-15.5703"/>
<polygon fill="midnightblue" stroke="midnightblue" points="154.49,-53.1208 145.068,-57.965 155.455,-60.0541 154.49,-53.1208"/>
</g>
<!-- Node8&#45;&gt;Node4 -->
<g id="edge10" class="edge"><title>Node8&#45;&gt;Node4</title>
<path fill="none" stroke="midnightblue" d="M382.192,-183.883C394.501,-174.005 408.927,-162.429 419.959,-153.577"/>
<polygon fill="midnightblue" stroke="midnightblue" points="379.685,-181.407 374.076,-190.396 384.066,-186.867 379.685,-181.407"/>
</g>
<!-- Node8&#45;&gt;Node6 -->
<g id="edge11" class="edge"><title>Node8&#45;&gt;Node6</title>
<path fill="none" stroke="midnightblue" d="M330.85,-184.168C318.311,-174.228 303.534,-162.514 292.258,-153.577"/>
<polygon fill="midnightblue" stroke="midnightblue" points="328.696,-186.927 338.707,-190.396 333.045,-181.441 328.696,-186.927"/>
</g>
<!-- Node9 -->
<g id="node9" class="node"><title>Node9</title>
<g id="a_node9"><a xlink:href="_storm_2_component_2_equipment_2_stage_2_basic_8h.html" target="_top" xlink:title=" ">
<polygon fill="white" stroke="black" points="528,-123.5 528,-153.5 673,-153.5 673,-123.5 528,-123.5"/>
<text text-anchor="start" x="536" y="-141.5" font-family="Helvetica,sans-Serif" font-size="10.00">Storm/Component/Equipment</text>
<text text-anchor="middle" x="600.5" y="-130.5" font-family="Helvetica,sans-Serif" font-size="10.00">/Stage/Basic.h</text>
</a>
</g>
</g>
<!-- Node8&#45;&gt;Node9 -->
<g id="edge12" class="edge"><title>Node8&#45;&gt;Node9</title>
<path fill="none" stroke="midnightblue" d="M419.002,-187.85C458.784,-177.252 509.742,-163.677 547.53,-153.611"/>
<polygon fill="midnightblue" stroke="midnightblue" points="417.906,-184.52 409.144,-190.476 419.708,-191.284 417.906,-184.52"/>
</g>
<!-- Node10 -->
<g id="node10" class="node"><title>Node10</title>
<g id="a_node10"><a xlink:href="_basic_cooling_8h.html" target="_top" xlink:title=" ">
<polygon fill="white" stroke="black" points="445,-56.5 445,-86.5 590,-86.5 590,-56.5 445,-56.5"/>
<text text-anchor="start" x="453" y="-74.5" font-family="Helvetica,sans-Serif" font-size="10.00">Storm/Component/Equipment</text>
<text text-anchor="middle" x="517.5" y="-63.5" font-family="Helvetica,sans-Serif" font-size="10.00">/Stage/BasicCooling.h</text>
</a>
</g>
</g>
<!-- Node9&#45;&gt;Node10 -->
<g id="edge13" class="edge"><title>Node9&#45;&gt;Node10</title>
<path fill="none" stroke="midnightblue" d="M574.537,-117.168C561.845,-107.228 546.888,-95.5144 535.475,-86.5765"/>
<polygon fill="midnightblue" stroke="midnightblue" points="572.459,-119.986 582.49,-123.396 576.775,-114.475 572.459,-119.986"/>
</g>
<!-- Node11 -->
<g id="node11" class="node"><title>Node11</title>
<g id="a_node11"><a xlink:href="_basic_indoor_heat_8h.html" target="_top" xlink:title=" ">
<polygon fill="white" stroke="black" points="608,-56.5 608,-86.5 753,-86.5 753,-56.5 608,-56.5"/>
<text text-anchor="start" x="616" y="-74.5" font-family="Helvetica,sans-Serif" font-size="10.00">Storm/Component/Equipment</text>
<text text-anchor="middle" x="680.5" y="-63.5" font-family="Helvetica,sans-Serif" font-size="10.00">/Stage/BasicIndoorHeat.h</text>
</a>
</g>
</g>
<!-- Node9&#45;&gt;Node11 -->
<g id="edge15" class="edge"><title>Node9&#45;&gt;Node11</title>
<path fill="none" stroke="midnightblue" d="M625.875,-116.883C638.032,-107.005 652.279,-95.4293 663.175,-86.5765"/>
<polygon fill="midnightblue" stroke="midnightblue" points="623.413,-114.374 617.859,-123.396 627.827,-119.806 623.413,-114.374"/>
</g>
<!-- Node10&#45;&gt;Node5 -->
<g id="edge14" class="edge"><title>Node10&#45;&gt;Node5</title>
<path fill="none" stroke="midnightblue" d="M565.596,-52.9436C595.627,-41.9812 632.976,-28.3476 656.782,-19.6578"/>
<polygon fill="midnightblue" stroke="midnightblue" points="564.322,-49.6825 556.129,-56.3993 566.723,-56.2581 564.322,-49.6825"/>
</g>
<!-- Node11&#45;&gt;Node5 -->
<g id="edge16" class="edge"><title>Node11&#45;&gt;Node5</title>
<path fill="none" stroke="midnightblue" d="M680.5,-46.2892C680.5,-36.857 680.5,-26.6548 680.5,-19.6578"/>
<polygon fill="midnightblue" stroke="midnightblue" points="677,-46.3993 680.5,-56.3993 684,-46.3994 677,-46.3993"/>
</g>
<!-- Node12&#45;&gt;Node5 -->
<g id="edge19" class="edge"><title>Node12&#45;&gt;Node5</title>
<path fill="none" stroke="midnightblue" d="M847.294,-59.1759C807.266,-47.6144 746.036,-29.929 709.96,-19.5091"/>
<polygon fill="midnightblue" stroke="midnightblue" points="846.407,-62.5627 856.985,-61.9751 848.349,-55.8376 846.407,-62.5627"/>
</g>
<!-- Node13&#45;&gt;Node5 -->
<g id="edge21" class="edge"><title>Node13&#45;&gt;Node5</title>
<path fill="none" stroke="midnightblue" d="M993.117,-180.303C999.158,-147.516 1004.07,-89.2659 972.5,-56 943.458,-25.3994 831.17,-15.5445 754.613,-12.4091"/>
<polygon fill="midnightblue" stroke="midnightblue" points="989.633,-179.877 991.077,-190.373 996.493,-181.267 989.633,-179.877"/>
</g>
<!-- Node14&#45;&gt;Node5 -->
<g id="edge23" class="edge"><title>Node14&#45;&gt;Node5</title>
<path fill="none" stroke="midnightblue" d="M1048.82,-250.398C1057.06,-242.194 1065.14,-232.093 1069.5,-221 1074.54,-208.178 1072.94,-203.342 1069.5,-190 1052.52,-124.12 1051.49,-94.6426 995.5,-56 957.592,-29.839 835.42,-18.6663 754.841,-14.0556"/>
<polygon fill="midnightblue" stroke="midnightblue" points="1046.26,-248.003 1041.31,-257.372 1051.02,-253.134 1046.26,-248.003"/>
</g>
<!-- Node15&#45;&gt;Node5 -->
<g id="edge25" class="edge"><title>Node15&#45;&gt;Node5</title>
<path fill="none" stroke="midnightblue" d="M1159.23,-253.419C1134.58,-206.098 1066.67,-80.5669 1027.5,-56 983.371,-28.3218 842.636,-17.5322 754.537,-13.4251"/>
<polygon fill="midnightblue" stroke="midnightblue" points="1156.22,-255.227 1163.92,-262.501 1162.44,-252.011 1156.22,-255.227"/>
</g>
<!-- Node16&#45;&gt;Node5 -->
<g id="edge29" class="edge"><title>Node16&#45;&gt;Node5</title>
<path fill="none" stroke="midnightblue" d="M775.957,-118.798C776.382,-101.073 774.445,-74.4848 761.5,-56 748.95,-38.0793 726.874,-26.4992 708.935,-19.5804"/>
<polygon fill="midnightblue" stroke="midnightblue" points="772.451,-118.823 775.428,-128.991 779.441,-119.186 772.451,-118.823"/>
</g>
<!-- Node16&#45;&gt;Node10 -->
<g id="edge27" class="edge"><title>Node16&#45;&gt;Node10</title>
<path fill="none" stroke="midnightblue" d="M730.92,-126.478C687.415,-115.475 620.397,-98.5246 573.088,-86.5592"/>
<polygon fill="midnightblue" stroke="midnightblue" points="730.085,-129.877 740.637,-128.936 731.801,-123.09 730.085,-129.877"/>
</g>
<!-- Node16&#45;&gt;Node11 -->
<g id="edge28" class="edge"><title>Node16&#45;&gt;Node11</title>
<path fill="none" stroke="midnightblue" d="M753.313,-122.849C737.623,-112 716.369,-97.3028 700.875,-86.589"/>
<polygon fill="midnightblue" stroke="midnightblue" points="751.607,-125.925 761.823,-128.734 755.588,-120.167 751.607,-125.925"/>
</g>
<!-- Node18 -->
<g id="node18" class="node"><title>Node18</title>
<g id="a_node18"><a xlink:href="_installer_record_8h_source.html" target="_top" xlink:title=" ">
<polygon fill="white" stroke="black" points="1292,-190.5 1292,-220.5 1411,-220.5 1411,-190.5 1292,-190.5"/>
<text text-anchor="start" x="1300" y="-208.5" font-family="Helvetica,sans-Serif" font-size="10.00">Storm/Thermostat/Main</text>
<text text-anchor="middle" x="1351.5" y="-197.5" font-family="Helvetica,sans-Serif" font-size="10.00">/InstallerRecord.h</text>
</a>
</g>
</g>
<!-- Node17&#45;&gt;Node18 -->
<g id="edge31" class="edge"><title>Node17&#45;&gt;Node18</title>
<path fill="none" stroke="midnightblue" d="M1342.25,-252.739C1344.3,-242.487 1346.8,-230.001 1348.68,-220.589"/>
<polygon fill="midnightblue" stroke="midnightblue" points="1338.78,-252.242 1340.25,-262.734 1345.65,-253.614 1338.78,-252.242"/>
</g>
<!-- Node20 -->
<g id="node20" class="node"><title>Node20</title>
<g id="a_node20"><a xlink:href="_run_time_record_8h_source.html" target="_top" xlink:title=" ">
<polygon fill="white" stroke="black" points="1429,-190.5 1429,-220.5 1548,-220.5 1548,-190.5 1429,-190.5"/>
<text text-anchor="start" x="1437" y="-208.5" font-family="Helvetica,sans-Serif" font-size="10.00">Storm/Thermostat/Main</text>
<text text-anchor="middle" x="1488.5" y="-197.5" font-family="Helvetica,sans-Serif" font-size="10.00">/RunTimeRecord.h</text>
</a>
</g>
</g>
<!-- Node17&#45;&gt;Node20 -->
<g id="edge33" class="edge"><title>Node17&#45;&gt;Node20</title>
<path fill="none" stroke="midnightblue" d="M1367.88,-258.767C1393.27,-247.766 1429.9,-231.892 1456.13,-220.528"/>
<polygon fill="midnightblue" stroke="midnightblue" points="1366.2,-255.681 1358.42,-262.869 1368.99,-262.104 1366.2,-255.681"/>
</g>
<!-- Node21 -->
<g id="node21" class="node"><title>Node21</title>
<g id="a_node21"><a xlink:href="_user_record_8h_source.html" target="_top" xlink:title=" ">
<polygon fill="white" stroke="black" points="1155,-190.5 1155,-220.5 1274,-220.5 1274,-190.5 1155,-190.5"/>
<text text-anchor="start" x="1163" y="-208.5" font-family="Helvetica,sans-Serif" font-size="10.00">Storm/Thermostat/Main</text>
<text text-anchor="middle" x="1214.5" y="-197.5" font-family="Helvetica,sans-Serif" font-size="10.00">/UserRecord.h</text>
</a>
</g>
</g>
<!-- Node17&#45;&gt;Node21 -->
<g id="edge35" class="edge"><title>Node17&#45;&gt;Node21</title>
<path fill="none" stroke="midnightblue" d="M1313.12,-258.194C1292.26,-247.261 1262.78,-231.81 1241.5,-220.652"/>
<polygon fill="midnightblue" stroke="midnightblue" points="1311.55,-261.326 1322.03,-262.869 1314.8,-255.126 1311.55,-261.326"/>
</g>
<!-- Node19 -->
<g id="node19" class="node"><title>Node19</title>
<g id="a_node19"><a xlink:href="statics___8h.html" target="_top" xlink:title="This file defines/creates persistent records and record server for the Thermostat simulation.">
<polygon fill="white" stroke="black" points="1292,-123.5 1292,-153.5 1411,-153.5 1411,-123.5 1292,-123.5"/>
<text text-anchor="start" x="1300" y="-141.5" font-family="Helvetica,sans-Serif" font-size="10.00">Storm/Thermostat/Main</text>
<text text-anchor="middle" x="1351.5" y="-130.5" font-family="Helvetica,sans-Serif" font-size="10.00">/_simulation/statics_.h</text>
</a>
</g>
</g>
<!-- Node18&#45;&gt;Node19 -->
<g id="edge32" class="edge"><title>Node18&#45;&gt;Node19</title>
<path fill="none" stroke="midnightblue" d="M1351.5,-180.108C1351.5,-171.154 1351.5,-161.323 1351.5,-153.577"/>
<polygon fill="midnightblue" stroke="midnightblue" points="1348,-180.396 1351.5,-190.396 1355,-180.396 1348,-180.396"/>
</g>
<!-- Node20&#45;&gt;Node19 -->
<g id="edge34" class="edge"><title>Node20&#45;&gt;Node19</title>
<path fill="none" stroke="midnightblue" d="M1449.49,-185.992C1427.78,-175.689 1401.17,-163.068 1381.17,-153.577"/>
<polygon fill="midnightblue" stroke="midnightblue" points="1448.24,-189.272 1458.77,-190.396 1451.24,-182.947 1448.24,-189.272"/>
</g>
<!-- Node21&#45;&gt;Node19 -->
<g id="edge36" class="edge"><title>Node21&#45;&gt;Node19</title>
<path fill="none" stroke="midnightblue" d="M1253.51,-185.992C1275.22,-175.689 1301.83,-163.068 1321.83,-153.577"/>
<polygon fill="midnightblue" stroke="midnightblue" points="1251.76,-182.947 1244.23,-190.396 1254.76,-189.272 1251.76,-182.947"/>
</g>
<!-- Node22&#45;&gt;Node2 -->
<g id="edge38" class="edge"><title>Node22&#45;&gt;Node2</title>
<path fill="none" stroke="midnightblue" d="M958.466,-372.431C949.878,-362.967 939.457,-351.483 932.441,-343.751"/>
<polygon fill="midnightblue" stroke="midnightblue" points="956.097,-375.029 965.409,-380.083 961.281,-370.325 956.097,-375.029"/>
</g>
</g>
</svg>
