<?xml version="1.0" encoding="UTF-8" standalone="no"?>
<!DOCTYPE svg PUBLIC "-//W3C//DTD SVG 1.1//EN"
 "http://www.w3.org/Graphics/SVG/1.1/DTD/svg11.dtd">
<!-- Generated by graphviz version 2.38.0 (20140413.2041)
 -->
<!-- Title: Cpl/Dm/Mp/Uint64.h Pages: 1 -->
<svg width="2149pt" height="588pt"
 viewBox="0.00 0.00 2148.50 588.00" xmlns="http://www.w3.org/2000/svg" xmlns:xlink="http://www.w3.org/1999/xlink">
<g id="graph0" class="graph" transform="scale(1 1) rotate(0) translate(4 584)">
<title>Cpl/Dm/Mp/Uint64.h</title>
<polygon fill="white" stroke="none" points="-4,4 -4,-584 2144.5,-584 2144.5,4 -4,4"/>
<!-- Node1 -->
<g id="node1" class="node"><title>Node1</title>
<g id="a_node1"><a xlink:title=" ">
<polygon fill="#bfbfbf" stroke="black" points="1886,-560.5 1886,-579.5 1990,-579.5 1990,-560.5 1886,-560.5"/>
<text text-anchor="middle" x="1938" y="-567.5" font-family="Helvetica,sans-Serif" font-size="10.00">Cpl/Dm/Mp/Uint64.h</text>
</a>
</g>
</g>
<!-- Node2 -->
<g id="node2" class="node"><title>Node2</title>
<g id="a_node2"><a xlink:href="_cpl_2_dm_2_mp_2_basic_8h.html" target="_top" xlink:title=" ">
<polygon fill="white" stroke="black" points="1887.5,-504.5 1887.5,-523.5 1988.5,-523.5 1988.5,-504.5 1887.5,-504.5"/>
<text text-anchor="middle" x="1938" y="-511.5" font-family="Helvetica,sans-Serif" font-size="10.00">Cpl/Dm/Mp/Basic.h</text>
</a>
</g>
</g>
<!-- Node1&#45;&gt;Node2 -->
<g id="edge1" class="edge"><title>Node1&#45;&gt;Node2</title>
<path fill="none" stroke="midnightblue" d="M1938,-560.083C1938,-553.006 1938,-542.861 1938,-533.986"/>
<polygon fill="midnightblue" stroke="midnightblue" points="1941.5,-533.751 1938,-523.751 1934.5,-533.751 1941.5,-533.751"/>
</g>
<!-- Node3 -->
<g id="node3" class="node"><title>Node3</title>
<g id="a_node3"><a xlink:href="_model_point_common___8h.html" target="_top" xlink:title=" ">
<polygon fill="white" stroke="black" points="1296.5,-448.5 1296.5,-467.5 1449.5,-467.5 1449.5,-448.5 1296.5,-448.5"/>
<text text-anchor="middle" x="1373" y="-455.5" font-family="Helvetica,sans-Serif" font-size="10.00">Cpl/Dm/ModelPointCommon_.h</text>
</a>
</g>
</g>
<!-- Node2&#45;&gt;Node3 -->
<g id="edge2" class="edge"><title>Node2&#45;&gt;Node3</title>
<path fill="none" stroke="midnightblue" d="M1887.36,-508.16C1790.9,-498.941 1579.79,-478.764 1460.18,-467.332"/>
<polygon fill="midnightblue" stroke="midnightblue" points="1460.24,-463.823 1449.96,-466.355 1459.58,-470.791 1460.24,-463.823"/>
</g>
<!-- Node10 -->
<g id="node10" class="node"><title>Node10</title>
<g id="a_node10"><a xlink:href="_fatal_error_8h.html" target="_top" xlink:title=" ">
<polygon fill="white" stroke="black" points="1783,-56.5 1783,-75.5 1905,-75.5 1905,-56.5 1783,-56.5"/>
<text text-anchor="middle" x="1844" y="-63.5" font-family="Helvetica,sans-Serif" font-size="10.00">Cpl/System/FatalError.h</text>
</a>
</g>
</g>
<!-- Node2&#45;&gt;Node10 -->
<g id="edge71" class="edge"><title>Node2&#45;&gt;Node10</title>
<path fill="none" stroke="midnightblue" d="M1941.91,-504.365C1949.83,-486.073 1967,-441.907 1967,-403 1967,-403 1967,-403 1967,-233 1967,-165.545 1900.62,-107.613 1865.39,-81.6155"/>
<polygon fill="midnightblue" stroke="midnightblue" points="1867.33,-78.6979 1857.16,-75.7077 1863.24,-84.3837 1867.33,-78.6979"/>
</g>
<!-- Node13 -->
<g id="node13" class="node"><title>Node13</title>
<g id="a_node13"><a xlink:title=" ">
<polygon fill="white" stroke="#bfbfbf" points="1961.5,-56.5 1961.5,-75.5 2010.5,-75.5 2010.5,-56.5 1961.5,-56.5"/>
<text text-anchor="middle" x="1986" y="-63.5" font-family="Helvetica,sans-Serif" font-size="10.00">string.h</text>
</a>
</g>
</g>
<!-- Node2&#45;&gt;Node13 -->
<g id="edge83" class="edge"><title>Node2&#45;&gt;Node13</title>
<path fill="none" stroke="midnightblue" d="M1948.47,-504.31C1958.06,-495.881 1972.07,-482.298 1981,-468 1997.31,-441.879 2005,-433.795 2005,-403 2005,-403 2005,-403 2005,-177 2005,-144.489 1996.84,-107.35 1991.22,-85.6103"/>
<polygon fill="midnightblue" stroke="midnightblue" points="1994.54,-84.498 1988.56,-75.7514 1987.78,-86.3175 1994.54,-84.498"/>
</g>
<!-- Node40 -->
<g id="node40" class="node"><title>Node40</title>
<g id="a_node40"><a xlink:href="_assert_8h.html" target="_top" xlink:title=" ">
<polygon fill="white" stroke="black" points="2033.5,-448.5 2033.5,-467.5 2140.5,-467.5 2140.5,-448.5 2033.5,-448.5"/>
<text text-anchor="middle" x="2087" y="-455.5" font-family="Helvetica,sans-Serif" font-size="10.00">Cpl/System/Assert.h</text>
</a>
</g>
</g>
<!-- Node2&#45;&gt;Node40 -->
<g id="edge70" class="edge"><title>Node2&#45;&gt;Node40</title>
<path fill="none" stroke="midnightblue" d="M1961.61,-504.444C1986.46,-495.438 2025.77,-481.189 2053.75,-471.049"/>
<polygon fill="midnightblue" stroke="midnightblue" points="2055.29,-474.214 2063.5,-467.516 2052.91,-467.633 2055.29,-474.214"/>
</g>
<!-- Node41 -->
<g id="node41" class="node"><title>Node41</title>
<g id="a_node41"><a xlink:href="atob_8h.html" target="_top" xlink:title=" ">
<polygon fill="white" stroke="black" points="1132.5,-168.5 1132.5,-187.5 1215.5,-187.5 1215.5,-168.5 1132.5,-168.5"/>
<text text-anchor="middle" x="1174" y="-175.5" font-family="Helvetica,sans-Serif" font-size="10.00">Cpl/Text/atob.h</text>
</a>
</g>
</g>
<!-- Node2&#45;&gt;Node41 -->
<g id="edge72" class="edge"><title>Node2&#45;&gt;Node41</title>
<path fill="none" stroke="midnightblue" d="M1925.33,-504.35C1867.63,-465.363 1622.84,-304.388 1399,-224 1382.89,-218.213 1286.93,-199.902 1225.65,-188.5"/>
<polygon fill="midnightblue" stroke="midnightblue" points="1226.22,-185.047 1215.75,-186.663 1224.95,-191.929 1226.22,-185.047"/>
</g>
<!-- Node43 -->
<g id="node43" class="node"><title>Node43</title>
<g id="a_node43"><a xlink:href="_f_string_8h.html" target="_top" xlink:title=" ">
<polygon fill="white" stroke="black" points="1843,-336.5 1843,-355.5 1939,-355.5 1939,-336.5 1843,-336.5"/>
<text text-anchor="middle" x="1891" y="-343.5" font-family="Helvetica,sans-Serif" font-size="10.00">Cpl/Text/FString.h</text>
</a>
</g>
</g>
<!-- Node2&#45;&gt;Node43 -->
<g id="edge77" class="edge"><title>Node2&#45;&gt;Node43</title>
<path fill="none" stroke="midnightblue" d="M1935.47,-504.075C1928.07,-477.945 1906.35,-401.211 1896.26,-365.577"/>
<polygon fill="midnightblue" stroke="midnightblue" points="1899.52,-364.236 1893.43,-355.568 1892.78,-366.143 1899.52,-364.236"/>
</g>
<!-- Node4 -->
<g id="node4" class="node"><title>Node4</title>
<g id="a_node4"><a xlink:href="_model_point_8h.html" target="_top" xlink:title=" ">
<polygon fill="white" stroke="black" points="1377.5,-280.5 1377.5,-299.5 1486.5,-299.5 1486.5,-280.5 1377.5,-280.5"/>
<text text-anchor="middle" x="1432" y="-287.5" font-family="Helvetica,sans-Serif" font-size="10.00">Cpl/Dm/ModelPoint.h</text>
</a>
</g>
</g>
<!-- Node3&#45;&gt;Node4 -->
<g id="edge3" class="edge"><title>Node3&#45;&gt;Node4</title>
<path fill="none" stroke="midnightblue" d="M1376.17,-448.075C1385.5,-421.832 1412.97,-344.545 1425.56,-309.117"/>
<polygon fill="midnightblue" stroke="midnightblue" points="1428.9,-310.163 1428.95,-299.568 1422.31,-307.818 1428.9,-310.163"/>
</g>
<!-- Node12 -->
<g id="node12" class="node"><title>Node12</title>
<g id="a_node12"><a xlink:title=" ">
<polygon fill="white" stroke="#bfbfbf" points="1379.5,-56.5 1379.5,-75.5 1428.5,-75.5 1428.5,-56.5 1379.5,-56.5"/>
<text text-anchor="middle" x="1404" y="-63.5" font-family="Helvetica,sans-Serif" font-size="10.00">stdint.h</text>
</a>
</g>
</g>
<!-- Node3&#45;&gt;Node12 -->
<g id="edge69" class="edge"><title>Node3&#45;&gt;Node12</title>
<path fill="none" stroke="midnightblue" d="M1386.53,-448.466C1458.35,-402.709 1789.15,-185.771 1725,-112 1706.42,-90.6317 1518.61,-75.0463 1439.18,-69.36"/>
<polygon fill="midnightblue" stroke="midnightblue" points="1438.94,-65.8346 1428.72,-68.6238 1438.45,-72.8173 1438.94,-65.8346"/>
</g>
<!-- Node21 -->
<g id="node21" class="node"><title>Node21</title>
<g id="a_node21"><a xlink:href="_model_database_8h.html" target="_top" xlink:title=" ">
<polygon fill="white" stroke="black" points="958,-392.5 958,-411.5 1086,-411.5 1086,-392.5 958,-392.5"/>
<text text-anchor="middle" x="1022" y="-399.5" font-family="Helvetica,sans-Serif" font-size="10.00">Cpl/Dm/ModelDatabase.h</text>
</a>
</g>
</g>
<!-- Node3&#45;&gt;Node21 -->
<g id="edge28" class="edge"><title>Node3&#45;&gt;Node21</title>
<path fill="none" stroke="midnightblue" d="M1317.38,-448.444C1254.87,-438.826 1153.48,-423.228 1087.27,-413.041"/>
<polygon fill="midnightblue" stroke="midnightblue" points="1087.77,-409.578 1077.36,-411.516 1086.71,-416.496 1087.77,-409.578"/>
</g>
<!-- Node26 -->
<g id="node26" class="node"><title>Node26</title>
<g id="a_node26"><a xlink:href="_subscriber_8h.html" target="_top" xlink:title=" ">
<polygon fill="white" stroke="black" points="1017.5,-336.5 1017.5,-355.5 1124.5,-355.5 1124.5,-336.5 1017.5,-336.5"/>
<text text-anchor="middle" x="1071" y="-343.5" font-family="Helvetica,sans-Serif" font-size="10.00">Cpl/Dm/Subscriber.h</text>
</a>
</g>
</g>
<!-- Node3&#45;&gt;Node26 -->
<g id="edge39" class="edge"><title>Node3&#45;&gt;Node26</title>
<path fill="none" stroke="midnightblue" d="M1349.3,-448.368C1295.83,-428.89 1165.66,-381.479 1104.19,-359.089"/>
<polygon fill="midnightblue" stroke="midnightblue" points="1105.18,-355.725 1094.59,-355.591 1102.79,-362.303 1105.18,-355.725"/>
</g>
<!-- Node35 -->
<g id="node35" class="node"><title>Node35</title>
<g id="a_node35"><a xlink:href="_d_list_8h.html" target="_top" xlink:title=" ">
<polygon fill="white" stroke="black" points="66.5,-112.5 66.5,-131.5 175.5,-131.5 175.5,-112.5 66.5,-112.5"/>
<text text-anchor="middle" x="121" y="-119.5" font-family="Helvetica,sans-Serif" font-size="10.00">Cpl/Container/DList.h</text>
</a>
</g>
</g>
<!-- Node3&#45;&gt;Node35 -->
<g id="edge68" class="edge"><title>Node3&#45;&gt;Node35</title>
<path fill="none" stroke="midnightblue" d="M1296.43,-454.73C1012.76,-445.823 38,-410.59 38,-347 38,-347 38,-347 38,-233 38,-191.911 75.3587,-156.444 99.9483,-137.549"/>
<polygon fill="midnightblue" stroke="midnightblue" points="102.07,-140.333 108.031,-131.575 97.909,-134.704 102.07,-140.333"/>
</g>
<!-- Node5 -->
<g id="node5" class="node"><title>Node5</title>
<g id="a_node5"><a xlink:title=" ">
<polygon fill="white" stroke="#bfbfbf" points="1204.5,-0.5 1204.5,-19.5 1289.5,-19.5 1289.5,-0.5 1204.5,-0.5"/>
<text text-anchor="middle" x="1247" y="-7.5" font-family="Helvetica,sans-Serif" font-size="10.00">colony_config.h</text>
</a>
</g>
</g>
<!-- Node4&#45;&gt;Node5 -->
<g id="edge4" class="edge"><title>Node4&#45;&gt;Node5</title>
<path fill="none" stroke="midnightblue" d="M1486.77,-285.282C1527.58,-280.463 1583.38,-269.399 1626,-244 1689,-206.458 1771.18,-168.963 1725,-112 1671.9,-46.5132 1413.03,-21.8282 1299.99,-14.066"/>
<polygon fill="midnightblue" stroke="midnightblue" points="1300.05,-10.5624 1289.83,-13.3878 1299.58,-17.5468 1300.05,-10.5624"/>
</g>
<!-- Node6 -->
<g id="node6" class="node"><title>Node6</title>
<g id="a_node6"><a xlink:href="_map_item_8h.html" target="_top" xlink:title=" ">
<polygon fill="white" stroke="black" points="1043.5,-224.5 1043.5,-243.5 1168.5,-243.5 1168.5,-224.5 1043.5,-224.5"/>
<text text-anchor="middle" x="1106" y="-231.5" font-family="Helvetica,sans-Serif" font-size="10.00">Cpl/Container/MapItem.h</text>
</a>
</g>
</g>
<!-- Node4&#45;&gt;Node6 -->
<g id="edge5" class="edge"><title>Node4&#45;&gt;Node6</title>
<path fill="none" stroke="midnightblue" d="M1380.34,-280.444C1322.52,-270.865 1228.89,-255.356 1167.38,-245.167"/>
<polygon fill="midnightblue" stroke="midnightblue" points="1167.85,-241.698 1157.41,-243.516 1166.71,-248.604 1167.85,-241.698"/>
</g>
<!-- Node11 -->
<g id="node11" class="node"><title>Node11</title>
<g id="a_node11"><a xlink:title=" ">
<polygon fill="white" stroke="#bfbfbf" points="1862,-0.5 1862,-19.5 1914,-19.5 1914,-0.5 1862,-0.5"/>
<text text-anchor="middle" x="1888" y="-7.5" font-family="Helvetica,sans-Serif" font-size="10.00">stddef.h</text>
</a>
</g>
</g>
<!-- Node4&#45;&gt;Node11 -->
<g id="edge26" class="edge"><title>Node4&#45;&gt;Node11</title>
<path fill="none" stroke="midnightblue" d="M1486.63,-289.248C1583.09,-288.665 1778.56,-282.589 1833,-244 1900.63,-196.063 1895.54,-156.81 1914,-76 1915.98,-67.3344 1916.3,-64.5856 1914,-56 1911.35,-46.1031 1905.93,-36.1315 1900.73,-28.099"/>
<polygon fill="midnightblue" stroke="midnightblue" points="1903.46,-25.9055 1894.89,-19.6811 1897.71,-29.8935 1903.46,-25.9055"/>
</g>
<!-- Node4&#45;&gt;Node12 -->
<g id="edge27" class="edge"><title>Node4&#45;&gt;Node12</title>
<path fill="none" stroke="midnightblue" d="M1431.99,-280.436C1431.84,-254.696 1430.3,-175.867 1418,-112 1416.28,-103.062 1413.41,-93.394 1410.72,-85.3185"/>
<polygon fill="midnightblue" stroke="midnightblue" points="1414,-84.0953 1407.39,-75.8152 1407.39,-86.41 1414,-84.0953"/>
</g>
<!-- Node15 -->
<g id="node15" class="node"><title>Node15</title>
<g id="a_node15"><a xlink:href="_text_2_string_8h.html" target="_top" xlink:title=" ">
<polygon fill="white" stroke="black" points="1573,-168.5 1573,-187.5 1663,-187.5 1663,-168.5 1573,-168.5"/>
<text text-anchor="middle" x="1618" y="-175.5" font-family="Helvetica,sans-Serif" font-size="10.00">Cpl/Text/String.h</text>
</a>
</g>
</g>
<!-- Node4&#45;&gt;Node15 -->
<g id="edge15" class="edge"><title>Node4&#45;&gt;Node15</title>
<path fill="none" stroke="midnightblue" d="M1486.81,-281.344C1531.52,-273.96 1589.83,-261.349 1606,-244 1617.36,-231.811 1619.69,-212.541 1619.59,-198.142"/>
<polygon fill="midnightblue" stroke="midnightblue" points="1623.07,-197.691 1619.1,-187.867 1616.08,-198.02 1623.07,-197.691"/>
</g>
<!-- Node18 -->
<g id="node18" class="node"><title>Node18</title>
<g id="a_node18"><a xlink:href="_static_info_8h.html" target="_top" xlink:title=" ">
<polygon fill="white" stroke="black" points="1495,-224.5 1495,-243.5 1597,-243.5 1597,-224.5 1495,-224.5"/>
<text text-anchor="middle" x="1546" y="-231.5" font-family="Helvetica,sans-Serif" font-size="10.00">Cpl/Dm/StaticInfo.h</text>
</a>
</g>
</g>
<!-- Node4&#45;&gt;Node18 -->
<g id="edge20" class="edge"><title>Node4&#45;&gt;Node18</title>
<path fill="none" stroke="midnightblue" d="M1450.06,-280.444C1468.57,-271.675 1497.58,-257.935 1518.86,-247.858"/>
<polygon fill="midnightblue" stroke="midnightblue" points="1520.48,-250.96 1528.02,-243.516 1517.49,-244.634 1520.48,-250.96"/>
</g>
<!-- Node19 -->
<g id="node19" class="node"><title>Node19</title>
<g id="a_node19"><a xlink:href="_subscriber_api_8h.html" target="_top" xlink:title=" ">
<polygon fill="white" stroke="black" points="782.5,-168.5 782.5,-187.5 903.5,-187.5 903.5,-168.5 782.5,-168.5"/>
<text text-anchor="middle" x="843" y="-175.5" font-family="Helvetica,sans-Serif" font-size="10.00">Cpl/Dm/SubscriberApi.h</text>
</a>
</g>
</g>
<!-- Node4&#45;&gt;Node19 -->
<g id="edge22" class="edge"><title>Node4&#45;&gt;Node19</title>
<path fill="none" stroke="midnightblue" d="M1426.92,-280.347C1417.83,-265.753 1397.22,-236.608 1371,-224 1279.99,-180.237 1018.49,-198.018 918,-188 916.532,-187.854 915.048,-187.703 913.553,-187.548"/>
<polygon fill="midnightblue" stroke="midnightblue" points="913.875,-184.063 903.559,-186.478 913.13,-191.023 913.875,-184.063"/>
</g>
<!-- Node20 -->
<g id="node20" class="node"><title>Node20</title>
<g id="a_node20"><a xlink:href="_arduino_8h_source.html" target="_top" xlink:title=" ">
<polygon fill="white" stroke="black" points="1263.5,-224.5 1263.5,-243.5 1362.5,-243.5 1362.5,-224.5 1263.5,-224.5"/>
<text text-anchor="middle" x="1313" y="-231.5" font-family="Helvetica,sans-Serif" font-size="10.00">Cpl/Json/Arduino.h</text>
</a>
</g>
</g>
<!-- Node4&#45;&gt;Node20 -->
<g id="edge25" class="edge"><title>Node4&#45;&gt;Node20</title>
<path fill="none" stroke="midnightblue" d="M1413.14,-280.444C1393.73,-271.636 1363.27,-257.812 1341.04,-247.722"/>
<polygon fill="midnightblue" stroke="midnightblue" points="1342.32,-244.462 1331.77,-243.516 1339.43,-250.836 1342.32,-244.462"/>
</g>
<!-- Node7 -->
<g id="node7" class="node"><title>Node7</title>
<g id="a_node7"><a xlink:href="_dict_item_8h.html" target="_top" xlink:title=" ">
<polygon fill="white" stroke="black" points="1233.5,-168.5 1233.5,-187.5 1356.5,-187.5 1356.5,-168.5 1233.5,-168.5"/>
<text text-anchor="middle" x="1295" y="-175.5" font-family="Helvetica,sans-Serif" font-size="10.00">Cpl/Container/DictItem.h</text>
</a>
</g>
</g>
<!-- Node6&#45;&gt;Node7 -->
<g id="edge6" class="edge"><title>Node6&#45;&gt;Node7</title>
<path fill="none" stroke="midnightblue" d="M1135.95,-224.444C1168.16,-215.241 1219.53,-200.562 1255.14,-190.388"/>
<polygon fill="midnightblue" stroke="midnightblue" points="1256.54,-193.629 1265.19,-187.516 1254.62,-186.898 1256.54,-193.629"/>
</g>
<!-- Node8 -->
<g id="node8" class="node"><title>Node8</title>
<g id="a_node8"><a xlink:href="_item_8h.html" target="_top" xlink:title=" ">
<polygon fill="white" stroke="black" points="397,-56.5 397,-75.5 503,-75.5 503,-56.5 397,-56.5"/>
<text text-anchor="middle" x="450" y="-63.5" font-family="Helvetica,sans-Serif" font-size="10.00">Cpl/Container/Item.h</text>
</a>
</g>
</g>
<!-- Node7&#45;&gt;Node8 -->
<g id="edge7" class="edge"><title>Node7&#45;&gt;Node8</title>
<path fill="none" stroke="midnightblue" d="M1276.8,-168.391C1245.14,-153.864 1177.51,-124.817 1117,-112 1002.91,-87.8316 656.883,-73.8765 513.394,-68.9938"/>
<polygon fill="midnightblue" stroke="midnightblue" points="513.121,-65.4827 503.009,-68.6442 512.886,-72.4787 513.121,-65.4827"/>
</g>
<!-- Node9 -->
<g id="node9" class="node"><title>Node9</title>
<g id="a_node9"><a xlink:href="_key_8h.html" target="_top" xlink:title=" ">
<polygon fill="white" stroke="black" points="1470,-112.5 1470,-131.5 1574,-131.5 1574,-112.5 1470,-112.5"/>
<text text-anchor="middle" x="1522" y="-119.5" font-family="Helvetica,sans-Serif" font-size="10.00">Cpl/Container/Key.h</text>
</a>
</g>
</g>
<!-- Node7&#45;&gt;Node9 -->
<g id="edge8" class="edge"><title>Node7&#45;&gt;Node9</title>
<path fill="none" stroke="midnightblue" d="M1330.97,-168.444C1370.32,-159.083 1433.49,-144.056 1476.31,-133.868"/>
<polygon fill="midnightblue" stroke="midnightblue" points="1477.28,-137.236 1486.2,-131.516 1475.66,-130.426 1477.28,-137.236"/>
</g>
<!-- Node9&#45;&gt;Node10 -->
<g id="edge9" class="edge"><title>Node9&#45;&gt;Node10</title>
<path fill="none" stroke="midnightblue" d="M1573.02,-112.444C1630.02,-102.885 1722.24,-87.4195 1783,-77.2298"/>
<polygon fill="midnightblue" stroke="midnightblue" points="1783.93,-80.6222 1793.22,-75.5164 1782.78,-73.7186 1783.93,-80.6222"/>
</g>
<!-- Node9&#45;&gt;Node12 -->
<g id="edge12" class="edge"><title>Node9&#45;&gt;Node12</title>
<path fill="none" stroke="midnightblue" d="M1503.3,-112.444C1484.06,-103.636 1453.85,-89.8116 1431.8,-79.722"/>
<polygon fill="midnightblue" stroke="midnightblue" points="1433.16,-76.4951 1422.61,-75.5164 1430.25,-82.8603 1433.16,-76.4951"/>
</g>
<!-- Node9&#45;&gt;Node13 -->
<g id="edge13" class="edge"><title>Node9&#45;&gt;Node13</title>
<path fill="none" stroke="midnightblue" d="M1574.23,-113.161C1577.19,-112.757 1580.13,-112.367 1583,-112 1729.78,-93.197 1767.02,-93.1778 1914,-76 1926.19,-74.5749 1939.54,-72.9306 1951.39,-71.4405"/>
<polygon fill="midnightblue" stroke="midnightblue" points="1951.87,-74.9074 1961.35,-70.18 1950.99,-67.9628 1951.87,-74.9074"/>
</g>
<!-- Node14 -->
<g id="node14" class="node"><title>Node14</title>
<g id="a_node14"><a xlink:title=" ">
<polygon fill="white" stroke="#bfbfbf" points="982.5,-56.5 982.5,-75.5 1059.5,-75.5 1059.5,-56.5 982.5,-56.5"/>
<text text-anchor="middle" x="1021" y="-63.5" font-family="Helvetica,sans-Serif" font-size="10.00">colony_map.h</text>
</a>
</g>
</g>
<!-- Node9&#45;&gt;Node14 -->
<g id="edge14" class="edge"><title>Node9&#45;&gt;Node14</title>
<path fill="none" stroke="midnightblue" d="M1469.8,-115.374C1372.45,-104.881 1164.49,-82.4664 1069.79,-72.2588"/>
<polygon fill="midnightblue" stroke="midnightblue" points="1069.95,-68.7555 1059.63,-71.1636 1069.2,-75.7152 1069.95,-68.7555"/>
</g>
<!-- Node10&#45;&gt;Node5 -->
<g id="edge11" class="edge"><title>Node10&#45;&gt;Node5</title>
<path fill="none" stroke="midnightblue" d="M1782.62,-57.4655C1778.02,-56.9517 1773.44,-56.4572 1769,-56 1597.63,-38.3359 1394.11,-22.1776 1299.81,-14.9657"/>
<polygon fill="midnightblue" stroke="midnightblue" points="1299.91,-11.4633 1289.67,-14.1928 1299.38,-18.443 1299.91,-11.4633"/>
</g>
<!-- Node10&#45;&gt;Node11 -->
<g id="edge10" class="edge"><title>Node10&#45;&gt;Node11</title>
<path fill="none" stroke="midnightblue" d="M1851.27,-56.083C1857.54,-48.3768 1866.79,-37.0333 1874.43,-27.6531"/>
<polygon fill="midnightblue" stroke="midnightblue" points="1877.27,-29.7143 1880.87,-19.7511 1871.84,-25.2926 1877.27,-29.7143"/>
</g>
<!-- Node15&#45;&gt;Node9 -->
<g id="edge17" class="edge"><title>Node15&#45;&gt;Node9</title>
<path fill="none" stroke="midnightblue" d="M1602.58,-168.324C1587.46,-159.822 1564.18,-146.729 1546.53,-136.797"/>
<polygon fill="midnightblue" stroke="midnightblue" points="1547.82,-133.507 1537.39,-131.655 1544.39,-139.608 1547.82,-133.507"/>
</g>
<!-- Node15&#45;&gt;Node14 -->
<g id="edge16" class="edge"><title>Node15&#45;&gt;Node14</title>
<path fill="none" stroke="midnightblue" d="M1586.92,-168.49C1536.76,-154.997 1434.72,-128.533 1347,-112 1249.27,-93.5812 1133.73,-79.4058 1069.78,-72.2184"/>
<polygon fill="midnightblue" stroke="midnightblue" points="1069.92,-68.7121 1059.59,-71.0835 1069.14,-75.6691 1069.92,-68.7121"/>
</g>
<!-- Node16 -->
<g id="node16" class="node"><title>Node16</title>
<g id="a_node16"><a xlink:title=" ">
<polygon fill="white" stroke="#bfbfbf" points="1592,-112.5 1592,-131.5 1644,-131.5 1644,-112.5 1592,-112.5"/>
<text text-anchor="middle" x="1618" y="-119.5" font-family="Helvetica,sans-Serif" font-size="10.00">stdarg.h</text>
</a>
</g>
</g>
<!-- Node15&#45;&gt;Node16 -->
<g id="edge18" class="edge"><title>Node15&#45;&gt;Node16</title>
<path fill="none" stroke="midnightblue" d="M1618,-168.083C1618,-161.006 1618,-150.861 1618,-141.986"/>
<polygon fill="midnightblue" stroke="midnightblue" points="1621.5,-141.751 1618,-131.751 1614.5,-141.751 1621.5,-141.751"/>
</g>
<!-- Node17 -->
<g id="node17" class="node"><title>Node17</title>
<g id="a_node17"><a xlink:title=" ">
<polygon fill="white" stroke="#bfbfbf" points="1662,-112.5 1662,-131.5 1716,-131.5 1716,-112.5 1662,-112.5"/>
<text text-anchor="middle" x="1689" y="-119.5" font-family="Helvetica,sans-Serif" font-size="10.00">iostream</text>
</a>
</g>
</g>
<!-- Node15&#45;&gt;Node17 -->
<g id="edge19" class="edge"><title>Node15&#45;&gt;Node17</title>
<path fill="none" stroke="midnightblue" d="M1629.41,-168.324C1640.11,-160.185 1656.34,-147.839 1669.16,-138.087"/>
<polygon fill="midnightblue" stroke="midnightblue" points="1671.54,-140.673 1677.39,-131.834 1667.31,-135.102 1671.54,-140.673"/>
</g>
<!-- Node18&#45;&gt;Node9 -->
<g id="edge21" class="edge"><title>Node18&#45;&gt;Node9</title>
<path fill="none" stroke="midnightblue" d="M1544.12,-224.368C1540.24,-206.617 1531.31,-165.666 1526.06,-141.597"/>
<polygon fill="midnightblue" stroke="midnightblue" points="1529.43,-140.615 1523.87,-131.591 1522.59,-142.108 1529.43,-140.615"/>
</g>
<!-- Node19&#45;&gt;Node8 -->
<g id="edge23" class="edge"><title>Node19&#45;&gt;Node8</title>
<path fill="none" stroke="midnightblue" d="M782.38,-177.582C717.575,-176.115 613.072,-167.646 531,-132 504.805,-120.623 480.017,-98.4418 464.923,-83.181"/>
<polygon fill="midnightblue" stroke="midnightblue" points="467.407,-80.715 457.957,-75.9253 462.358,-85.5629 467.407,-80.715"/>
</g>
<!-- Node19&#45;&gt;Node12 -->
<g id="edge24" class="edge"><title>Node19&#45;&gt;Node12</title>
<path fill="none" stroke="midnightblue" d="M850.575,-168.372C863.941,-153.818 893.309,-124.73 925,-112 1005.87,-79.5152 1273.18,-70.0893 1369.24,-67.7145"/>
<polygon fill="midnightblue" stroke="midnightblue" points="1369.39,-71.212 1379.3,-67.4763 1369.22,-64.214 1369.39,-71.212"/>
</g>
<!-- Node21&#45;&gt;Node5 -->
<g id="edge29" class="edge"><title>Node21&#45;&gt;Node5</title>
<path fill="none" stroke="midnightblue" d="M957.682,-397.382C733.483,-383.928 0,-332.461 0,-235 0,-235 0,-235 0,-121 0,-52.3984 73.3266,-72.1501 140,-56 242.897,-31.0755 987.627,-15.7379 1194.07,-11.9329"/>
<polygon fill="midnightblue" stroke="midnightblue" points="1194.41,-15.4274 1204.34,-11.7449 1194.28,-8.42859 1194.41,-15.4274"/>
</g>
<!-- Node21&#45;&gt;Node20 -->
<g id="edge38" class="edge"><title>Node21&#45;&gt;Node20</title>
<path fill="none" stroke="midnightblue" d="M1086.29,-398.823C1157.39,-395.005 1265.69,-384.546 1294,-356 1320.86,-328.918 1319.41,-280.382 1316.13,-253.753"/>
<polygon fill="midnightblue" stroke="midnightblue" points="1319.59,-253.204 1314.69,-243.808 1312.66,-254.206 1319.59,-253.204"/>
</g>
<!-- Node22 -->
<g id="node22" class="node"><title>Node22</title>
<g id="a_node22"><a xlink:href="_model_database_api_8h.html" target="_top" xlink:title=" ">
<polygon fill="white" stroke="black" points="1143,-336.5 1143,-355.5 1285,-355.5 1285,-336.5 1143,-336.5"/>
<text text-anchor="middle" x="1214" y="-343.5" font-family="Helvetica,sans-Serif" font-size="10.00">Cpl/Dm/ModelDatabaseApi.h</text>
</a>
</g>
</g>
<!-- Node21&#45;&gt;Node22 -->
<g id="edge30" class="edge"><title>Node21&#45;&gt;Node22</title>
<path fill="none" stroke="midnightblue" d="M1052.42,-392.444C1085.28,-383.201 1137.78,-368.436 1173.97,-358.257"/>
<polygon fill="midnightblue" stroke="midnightblue" points="1175.04,-361.593 1183.72,-355.516 1173.15,-354.855 1175.04,-361.593"/>
</g>
<!-- Node23 -->
<g id="node23" class="node"><title>Node23</title>
<g id="a_node23"><a xlink:href="_mutex_8h.html" target="_top" xlink:title=" ">
<polygon fill="white" stroke="black" points="527,-280.5 527,-299.5 633,-299.5 633,-280.5 527,-280.5"/>
<text text-anchor="middle" x="580" y="-287.5" font-family="Helvetica,sans-Serif" font-size="10.00">Cpl/System/Mutex.h</text>
</a>
</g>
</g>
<!-- Node21&#45;&gt;Node23 -->
<g id="edge32" class="edge"><title>Node21&#45;&gt;Node23</title>
<path fill="none" stroke="midnightblue" d="M957.988,-392.512C906.264,-384.973 831.827,-372.578 768,-356 711.477,-341.319 647.597,-317.672 610.742,-303.309"/>
<polygon fill="midnightblue" stroke="midnightblue" points="611.679,-299.917 601.092,-299.52 609.12,-306.433 611.679,-299.917"/>
</g>
<!-- Node24 -->
<g id="node24" class="node"><title>Node24</title>
<g id="a_node24"><a xlink:href="_map_8h.html" target="_top" xlink:title=" ">
<polygon fill="white" stroke="black" points="777.5,-336.5 777.5,-355.5 882.5,-355.5 882.5,-336.5 777.5,-336.5"/>
<text text-anchor="middle" x="830" y="-343.5" font-family="Helvetica,sans-Serif" font-size="10.00">Cpl/Container/Map.h</text>
</a>
</g>
</g>
<!-- Node21&#45;&gt;Node24 -->
<g id="edge34" class="edge"><title>Node21&#45;&gt;Node24</title>
<path fill="none" stroke="midnightblue" d="M991.577,-392.444C958.715,-383.201 906.215,-368.436 870.026,-358.257"/>
<polygon fill="midnightblue" stroke="midnightblue" points="870.855,-354.855 860.281,-355.516 868.96,-361.593 870.855,-354.855"/>
</g>
<!-- Node22&#45;&gt;Node15 -->
<g id="edge31" class="edge"><title>Node22&#45;&gt;Node15</title>
<path fill="none" stroke="midnightblue" d="M1213.95,-336.265C1214.34,-313.645 1218.77,-252.916 1254,-224 1277.39,-204.804 1466.71,-189.306 1562.67,-182.597"/>
<polygon fill="midnightblue" stroke="midnightblue" points="1563.04,-186.08 1572.77,-181.899 1562.55,-179.096 1563.04,-186.08"/>
</g>
<!-- Node23&#45;&gt;Node14 -->
<g id="edge33" class="edge"><title>Node23&#45;&gt;Node14</title>
<path fill="none" stroke="midnightblue" d="M585.167,-280.323C604.745,-247.743 675.071,-133.483 711,-112 732.989,-98.8519 890.575,-80.6777 972.219,-72.0008"/>
<polygon fill="midnightblue" stroke="midnightblue" points="972.684,-75.4713 982.262,-70.9408 971.95,-68.51 972.684,-75.4713"/>
</g>
<!-- Node25 -->
<g id="node25" class="node"><title>Node25</title>
<g id="a_node25"><a xlink:href="_avl_tree___8h.html" target="_top" xlink:title=" ">
<polygon fill="white" stroke="black" points="651.5,-280.5 651.5,-299.5 776.5,-299.5 776.5,-280.5 651.5,-280.5"/>
<text text-anchor="middle" x="714" y="-287.5" font-family="Helvetica,sans-Serif" font-size="10.00">Cpl/Container/AvlTree_.h</text>
</a>
</g>
</g>
<!-- Node24&#45;&gt;Node25 -->
<g id="edge35" class="edge"><title>Node24&#45;&gt;Node25</title>
<path fill="none" stroke="midnightblue" d="M811.619,-336.444C792.784,-327.675 763.269,-313.935 741.621,-303.858"/>
<polygon fill="midnightblue" stroke="midnightblue" points="742.838,-300.564 732.295,-299.516 739.883,-306.91 742.838,-300.564"/>
</g>
<!-- Node25&#45;&gt;Node5 -->
<g id="edge36" class="edge"><title>Node25&#45;&gt;Node5</title>
<path fill="none" stroke="midnightblue" d="M651.186,-281.024C648.081,-280.669 645.006,-280.325 642,-280 467.621,-261.12 416.733,-295.284 249,-244 149.971,-213.722 -9.83831,-191.096 57,-112 131.348,-24.0173 973.312,-12.6768 1194.2,-11.2159"/>
<polygon fill="midnightblue" stroke="midnightblue" points="1194.27,-14.7156 1204.24,-11.1535 1194.22,-7.71576 1194.27,-14.7156"/>
</g>
<!-- Node25&#45;&gt;Node6 -->
<g id="edge37" class="edge"><title>Node25&#45;&gt;Node6</title>
<path fill="none" stroke="midnightblue" d="M776.114,-280.444C846.217,-270.786 960.094,-255.099 1034.02,-244.916"/>
<polygon fill="midnightblue" stroke="midnightblue" points="1034.75,-248.348 1044.18,-243.516 1033.79,-241.414 1034.75,-248.348"/>
</g>
<!-- Node26&#45;&gt;Node4 -->
<g id="edge41" class="edge"><title>Node26&#45;&gt;Node4</title>
<path fill="none" stroke="midnightblue" d="M1124.66,-336.974C1189.43,-327.285 1298.27,-311.004 1367.54,-300.643"/>
<polygon fill="midnightblue" stroke="midnightblue" points="1368.09,-304.1 1377.46,-299.159 1367.05,-297.177 1368.09,-304.1"/>
</g>
<!-- Node26&#45;&gt;Node12 -->
<g id="edge67" class="edge"><title>Node26&#45;&gt;Node12</title>
<path fill="none" stroke="midnightblue" d="M1080.1,-336.274C1103.6,-314.2 1169.05,-255.646 1234,-224 1288.28,-197.553 1321.38,-229.754 1365,-188 1393.47,-160.745 1401.2,-112.637 1403.27,-86.0302"/>
<polygon fill="midnightblue" stroke="midnightblue" points="1406.78,-85.9543 1403.86,-75.768 1399.79,-85.5482 1406.78,-85.9543"/>
</g>
<!-- Node26&#45;&gt;Node19 -->
<g id="edge40" class="edge"><title>Node26&#45;&gt;Node19</title>
<path fill="none" stroke="midnightblue" d="M1017.42,-342.428C955.312,-338.192 858.563,-327.294 836,-300 811.844,-270.779 825.158,-222.753 835.164,-196.867"/>
<polygon fill="midnightblue" stroke="midnightblue" points="838.435,-198.114 839.005,-187.535 831.962,-195.45 838.435,-198.114"/>
</g>
<!-- Node27 -->
<g id="node27" class="node"><title>Node27</title>
<g id="a_node27"><a xlink:href="_dm_2_event_loop_8h.html" target="_top" xlink:title=" ">
<polygon fill="white" stroke="black" points="845.5,-280.5 845.5,-299.5 952.5,-299.5 952.5,-280.5 845.5,-280.5"/>
<text text-anchor="middle" x="899" y="-287.5" font-family="Helvetica,sans-Serif" font-size="10.00">Cpl/Dm/EventLoop.h</text>
</a>
</g>
</g>
<!-- Node26&#45;&gt;Node27 -->
<g id="edge42" class="edge"><title>Node26&#45;&gt;Node27</title>
<path fill="none" stroke="midnightblue" d="M1043.75,-336.444C1014.56,-327.28 968.079,-312.688 935.691,-302.519"/>
<polygon fill="midnightblue" stroke="midnightblue" points="936.716,-299.173 926.126,-299.516 934.619,-305.851 936.716,-299.173"/>
</g>
<!-- Node27&#45;&gt;Node19 -->
<g id="edge64" class="edge"><title>Node27&#45;&gt;Node19</title>
<path fill="none" stroke="midnightblue" d="M884.771,-280.198C873.29,-272.257 857.809,-259.465 850,-244 842.726,-229.594 841.373,-211.139 841.607,-197.577"/>
<polygon fill="midnightblue" stroke="midnightblue" points="845.106,-197.686 842.083,-187.531 838.114,-197.355 845.106,-197.686"/>
</g>
<!-- Node28 -->
<g id="node28" class="node"><title>Node28</title>
<g id="a_node28"><a xlink:href="_system_2_event_loop_8h.html" target="_top" xlink:title=" ">
<polygon fill="white" stroke="black" points="470.5,-224.5 470.5,-243.5 595.5,-243.5 595.5,-224.5 470.5,-224.5"/>
<text text-anchor="middle" x="533" y="-231.5" font-family="Helvetica,sans-Serif" font-size="10.00">Cpl/System/EventLoop.h</text>
</a>
</g>
</g>
<!-- Node27&#45;&gt;Node28 -->
<g id="edge43" class="edge"><title>Node27&#45;&gt;Node28</title>
<path fill="none" stroke="midnightblue" d="M845.388,-281.09C780.571,-271.527 671.416,-255.422 600.81,-245.005"/>
<polygon fill="midnightblue" stroke="midnightblue" points="601.086,-241.508 590.683,-243.511 600.065,-248.433 601.086,-241.508"/>
</g>
<!-- Node27&#45;&gt;Node35 -->
<g id="edge63" class="edge"><title>Node27&#45;&gt;Node35</title>
<path fill="none" stroke="midnightblue" d="M845.346,-284.095C745.314,-274.85 533.874,-254.806 461,-244 332.013,-224.873 284.57,-255.495 173,-188 154.134,-176.587 139.285,-155.689 130.366,-140.666"/>
<polygon fill="midnightblue" stroke="midnightblue" points="133.332,-138.801 125.379,-131.801 127.232,-142.233 133.332,-138.801"/>
</g>
<!-- Node36 -->
<g id="node36" class="node"><title>Node36</title>
<g id="a_node36"><a xlink:href="_thread_8h.html" target="_top" xlink:title=" ">
<polygon fill="white" stroke="black" points="927.5,-168.5 927.5,-187.5 1036.5,-187.5 1036.5,-168.5 927.5,-168.5"/>
<text text-anchor="middle" x="982" y="-175.5" font-family="Helvetica,sans-Serif" font-size="10.00">Cpl/System/Thread.h</text>
</a>
</g>
</g>
<!-- Node27&#45;&gt;Node36 -->
<g id="edge57" class="edge"><title>Node27&#45;&gt;Node36</title>
<path fill="none" stroke="midnightblue" d="M941.39,-280.451C961.581,-274.022 983.912,-262.933 996,-244 1005.1,-229.751 999.204,-210.532 992.494,-196.693"/>
<polygon fill="midnightblue" stroke="midnightblue" points="995.485,-194.865 987.667,-187.715 989.32,-198.18 995.485,-194.865"/>
</g>
<!-- Node39 -->
<g id="node39" class="node"><title>Node39</title>
<g id="a_node39"><a xlink:href="_notification_api___8h.html" target="_top" xlink:title=" ">
<polygon fill="white" stroke="black" points="859,-224.5 859,-243.5 987,-243.5 987,-224.5 859,-224.5"/>
<text text-anchor="middle" x="923" y="-231.5" font-family="Helvetica,sans-Serif" font-size="10.00">Cpl/Dm/NotificationApi_.h</text>
</a>
</g>
</g>
<!-- Node27&#45;&gt;Node39 -->
<g id="edge65" class="edge"><title>Node27&#45;&gt;Node39</title>
<path fill="none" stroke="midnightblue" d="M902.963,-280.083C906.213,-272.77 910.919,-262.181 914.954,-253.103"/>
<polygon fill="midnightblue" stroke="midnightblue" points="918.248,-254.311 919.111,-243.751 911.851,-251.468 918.248,-254.311"/>
</g>
<!-- Node29 -->
<g id="node29" class="node"><title>Node29</title>
<g id="a_node29"><a xlink:href="_runnable_8h.html" target="_top" xlink:title=" ">
<polygon fill="white" stroke="black" points="720.5,-112.5 720.5,-131.5 839.5,-131.5 839.5,-112.5 720.5,-112.5"/>
<text text-anchor="middle" x="780" y="-119.5" font-family="Helvetica,sans-Serif" font-size="10.00">Cpl/System/Runnable.h</text>
</a>
</g>
</g>
<!-- Node28&#45;&gt;Node29 -->
<g id="edge44" class="edge"><title>Node28&#45;&gt;Node29</title>
<path fill="none" stroke="midnightblue" d="M552.382,-224.368C595.669,-205.091 700.39,-158.454 751.282,-135.789"/>
<polygon fill="midnightblue" stroke="midnightblue" points="752.997,-138.857 760.708,-131.591 750.149,-132.462 752.997,-138.857"/>
</g>
<!-- Node30 -->
<g id="node30" class="node"><title>Node30</title>
<g id="a_node30"><a xlink:href="_semaphore_8h.html" target="_top" xlink:title=" ">
<polygon fill="white" stroke="black" points="416,-168.5 416,-187.5 544,-187.5 544,-168.5 416,-168.5"/>
<text text-anchor="middle" x="480" y="-175.5" font-family="Helvetica,sans-Serif" font-size="10.00">Cpl/System/Semaphore.h</text>
</a>
</g>
</g>
<!-- Node28&#45;&gt;Node30 -->
<g id="edge45" class="edge"><title>Node28&#45;&gt;Node30</title>
<path fill="none" stroke="midnightblue" d="M524.248,-224.083C516.53,-216.22 505.095,-204.569 495.783,-195.081"/>
<polygon fill="midnightblue" stroke="midnightblue" points="498.092,-192.436 488.589,-187.751 493.096,-197.34 498.092,-192.436"/>
</g>
<!-- Node31 -->
<g id="node31" class="node"><title>Node31</title>
<g id="a_node31"><a xlink:href="_signable_8h.html" target="_top" xlink:title=" ">
<polygon fill="white" stroke="black" points="330,-112.5 330,-131.5 446,-131.5 446,-112.5 330,-112.5"/>
<text text-anchor="middle" x="388" y="-119.5" font-family="Helvetica,sans-Serif" font-size="10.00">Cpl/System/Signable.h</text>
</a>
</g>
</g>
<!-- Node28&#45;&gt;Node31 -->
<g id="edge49" class="edge"><title>Node28&#45;&gt;Node31</title>
<path fill="none" stroke="midnightblue" d="M475.833,-224.439C451.668,-218.102 425.008,-207.096 407,-188 395.289,-175.581 390.75,-156.342 389.015,-142.013"/>
<polygon fill="midnightblue" stroke="midnightblue" points="392.481,-141.463 388.141,-131.798 385.507,-142.06 392.481,-141.463"/>
</g>
<!-- Node32 -->
<g id="node32" class="node"><title>Node32</title>
<g id="a_node32"><a xlink:href="_event_flag_8h.html" target="_top" xlink:title=" ">
<polygon fill="white" stroke="black" points="540.5,-112.5 540.5,-131.5 663.5,-131.5 663.5,-112.5 540.5,-112.5"/>
<text text-anchor="middle" x="602" y="-119.5" font-family="Helvetica,sans-Serif" font-size="10.00">Cpl/System/EventFlag.h</text>
</a>
</g>
</g>
<!-- Node28&#45;&gt;Node32 -->
<g id="edge50" class="edge"><title>Node28&#45;&gt;Node32</title>
<path fill="none" stroke="midnightblue" d="M538.414,-224.368C549.751,-206.296 576.171,-164.176 591.144,-140.307"/>
<polygon fill="midnightblue" stroke="midnightblue" points="594.262,-141.923 596.611,-131.591 588.332,-138.203 594.262,-141.923"/>
</g>
<!-- Node33 -->
<g id="node33" class="node"><title>Node33</title>
<g id="a_node33"><a xlink:href="_timer_manager_8h.html" target="_top" xlink:title=" ">
<polygon fill="white" stroke="black" points="182.5,-168.5 182.5,-187.5 323.5,-187.5 323.5,-168.5 182.5,-168.5"/>
<text text-anchor="middle" x="253" y="-175.5" font-family="Helvetica,sans-Serif" font-size="10.00">Cpl/System/TimerManager.h</text>
</a>
</g>
</g>
<!-- Node28&#45;&gt;Node33 -->
<g id="edge53" class="edge"><title>Node28&#45;&gt;Node33</title>
<path fill="none" stroke="midnightblue" d="M488.633,-224.444C439.378,-214.944 359.872,-199.611 307.029,-189.42"/>
<polygon fill="midnightblue" stroke="midnightblue" points="307.641,-185.974 297.159,-187.516 306.316,-192.847 307.641,-185.974"/>
</g>
<!-- Node30&#45;&gt;Node14 -->
<g id="edge46" class="edge"><title>Node30&#45;&gt;Node14</title>
<path fill="none" stroke="midnightblue" d="M483.87,-168.407C490.913,-153.905 507.316,-124.894 531,-112 606.138,-71.0941 863.64,-66.6508 972.158,-66.6541"/>
<polygon fill="midnightblue" stroke="midnightblue" points="972.179,-70.154 982.183,-66.6672 972.188,-63.1541 972.179,-70.154"/>
</g>
<!-- Node30&#45;&gt;Node31 -->
<g id="edge47" class="edge"><title>Node30&#45;&gt;Node31</title>
<path fill="none" stroke="midnightblue" d="M465.219,-168.324C450.733,-159.822 428.427,-146.729 411.507,-136.797"/>
<polygon fill="midnightblue" stroke="midnightblue" points="413.141,-133.698 402.745,-131.655 409.597,-139.735 413.141,-133.698"/>
</g>
<!-- Node31&#45;&gt;Node8 -->
<g id="edge48" class="edge"><title>Node31&#45;&gt;Node8</title>
<path fill="none" stroke="midnightblue" d="M397.961,-112.324C407.127,-104.341 420.937,-92.3128 432.028,-82.6529"/>
<polygon fill="midnightblue" stroke="midnightblue" points="434.615,-85.041 439.857,-75.8339 430.018,-79.7624 434.615,-85.041"/>
</g>
<!-- Node32&#45;&gt;Node5 -->
<g id="edge51" class="edge"><title>Node32&#45;&gt;Node5</title>
<path fill="none" stroke="midnightblue" d="M649.703,-112.475C720.303,-99.8955 856.795,-75.7215 973,-56 1049.96,-42.9394 1139.18,-28.3977 1194.36,-19.4736"/>
<polygon fill="midnightblue" stroke="midnightblue" points="1194.95,-22.9248 1204.26,-17.8743 1193.83,-16.0144 1194.95,-22.9248"/>
</g>
<!-- Node32&#45;&gt;Node12 -->
<g id="edge52" class="edge"><title>Node32&#45;&gt;Node12</title>
<path fill="none" stroke="midnightblue" d="M663.665,-115.719C679.117,-114.448 695.661,-113.131 711,-112 963.327,-93.3919 1267.65,-75.0526 1369.16,-69.0455"/>
<polygon fill="midnightblue" stroke="midnightblue" points="1369.66,-72.5222 1379.44,-68.4386 1369.25,-65.5344 1369.66,-72.5222"/>
</g>
<!-- Node34 -->
<g id="node34" class="node"><title>Node34</title>
<g id="a_node34"><a xlink:href="_counter___8h.html" target="_top" xlink:title=" ">
<polygon fill="white" stroke="black" points="194,-112.5 194,-131.5 312,-131.5 312,-112.5 194,-112.5"/>
<text text-anchor="middle" x="253" y="-119.5" font-family="Helvetica,sans-Serif" font-size="10.00">Cpl/System/Counter_.h</text>
</a>
</g>
</g>
<!-- Node33&#45;&gt;Node34 -->
<g id="edge54" class="edge"><title>Node33&#45;&gt;Node34</title>
<path fill="none" stroke="midnightblue" d="M253,-168.083C253,-161.006 253,-150.861 253,-141.986"/>
<polygon fill="midnightblue" stroke="midnightblue" points="256.5,-141.751 253,-131.751 249.5,-141.751 256.5,-141.751"/>
</g>
<!-- Node33&#45;&gt;Node35 -->
<g id="edge56" class="edge"><title>Node33&#45;&gt;Node35</title>
<path fill="none" stroke="midnightblue" d="M232.084,-168.444C210.264,-159.517 175.85,-145.439 151.108,-135.317"/>
<polygon fill="midnightblue" stroke="midnightblue" points="152.399,-132.063 141.818,-131.516 149.748,-138.542 152.399,-132.063"/>
</g>
<!-- Node34&#45;&gt;Node8 -->
<g id="edge55" class="edge"><title>Node34&#45;&gt;Node8</title>
<path fill="none" stroke="midnightblue" d="M284.215,-112.444C317.933,-103.201 371.8,-88.4356 408.932,-78.2572"/>
<polygon fill="midnightblue" stroke="midnightblue" points="410.212,-81.5356 418.931,-75.5164 408.361,-74.7846 410.212,-81.5356"/>
</g>
<!-- Node36&#45;&gt;Node14 -->
<g id="edge58" class="edge"><title>Node36&#45;&gt;Node14</title>
<path fill="none" stroke="midnightblue" d="M964.628,-168.456C943.085,-156.656 910.829,-134.293 925,-112 935.714,-95.1455 954.59,-84.4945 972.786,-77.8161"/>
<polygon fill="midnightblue" stroke="midnightblue" points="974.098,-81.0682 982.479,-74.5873 971.886,-74.427 974.098,-81.0682"/>
</g>
<!-- Node36&#45;&gt;Node29 -->
<g id="edge59" class="edge"><title>Node36&#45;&gt;Node29</title>
<path fill="none" stroke="midnightblue" d="M949.992,-168.444C915.271,-159.162 859.712,-144.309 821.623,-134.127"/>
<polygon fill="midnightblue" stroke="midnightblue" points="822.422,-130.718 811.858,-131.516 820.615,-137.48 822.422,-130.718"/>
</g>
<!-- Node36&#45;&gt;Node31 -->
<g id="edge60" class="edge"><title>Node36&#45;&gt;Node31</title>
<path fill="none" stroke="midnightblue" d="M927.381,-169.751C922.186,-169.13 916.995,-168.535 912,-168 748.743,-150.503 556.29,-135.383 456.212,-127.934"/>
<polygon fill="midnightblue" stroke="midnightblue" points="456.464,-124.443 446.233,-127.194 455.946,-131.424 456.464,-124.443"/>
</g>
<!-- Node37 -->
<g id="node37" class="node"><title>Node37</title>
<g id="a_node37"><a xlink:href="_traverser_8h.html" target="_top" xlink:title=" ">
<polygon fill="white" stroke="black" points="934,-112.5 934,-131.5 1042,-131.5 1042,-112.5 934,-112.5"/>
<text text-anchor="middle" x="988" y="-119.5" font-family="Helvetica,sans-Serif" font-size="10.00">Cpl/Type/Traverser.h</text>
</a>
</g>
</g>
<!-- Node36&#45;&gt;Node37 -->
<g id="edge61" class="edge"><title>Node36&#45;&gt;Node37</title>
<path fill="none" stroke="midnightblue" d="M982.991,-168.083C983.786,-160.927 984.929,-150.635 985.923,-141.691"/>
<polygon fill="midnightblue" stroke="midnightblue" points="989.402,-142.076 987.028,-131.751 982.445,-141.303 989.402,-142.076"/>
</g>
<!-- Node38 -->
<g id="node38" class="node"><title>Node38</title>
<g id="a_node38"><a xlink:title=" ">
<polygon fill="white" stroke="#bfbfbf" points="1060,-112.5 1060,-131.5 1108,-131.5 1108,-112.5 1060,-112.5"/>
<text text-anchor="middle" x="1084" y="-119.5" font-family="Helvetica,sans-Serif" font-size="10.00">stdlib.h</text>
</a>
</g>
</g>
<!-- Node36&#45;&gt;Node38 -->
<g id="edge62" class="edge"><title>Node36&#45;&gt;Node38</title>
<path fill="none" stroke="midnightblue" d="M998.388,-168.324C1014.67,-159.703 1039.87,-146.364 1058.72,-136.386"/>
<polygon fill="midnightblue" stroke="midnightblue" points="1060.45,-139.427 1067.65,-131.655 1057.18,-133.24 1060.45,-139.427"/>
</g>
<!-- Node39&#45;&gt;Node19 -->
<g id="edge66" class="edge"><title>Node39&#45;&gt;Node19</title>
<path fill="none" stroke="midnightblue" d="M910.147,-224.324C897.784,-215.979 878.87,-203.212 864.263,-193.352"/>
<polygon fill="midnightblue" stroke="midnightblue" points="866.068,-190.348 855.821,-187.655 862.152,-196.15 866.068,-190.348"/>
</g>
<!-- Node41&#45;&gt;Node14 -->
<g id="edge74" class="edge"><title>Node41&#45;&gt;Node14</title>
<path fill="none" stroke="midnightblue" d="M1168.25,-168.405C1158.86,-154.913 1139.08,-128.594 1117,-112 1098.46,-98.0604 1074.9,-86.9394 1055.77,-79.2403"/>
<polygon fill="midnightblue" stroke="midnightblue" points="1056.8,-75.8875 1046.21,-75.5293 1054.27,-82.4126 1056.8,-75.8875"/>
</g>
<!-- Node41&#45;&gt;Node38 -->
<g id="edge73" class="edge"><title>Node41&#45;&gt;Node38</title>
<path fill="none" stroke="midnightblue" d="M1159.54,-168.324C1145.5,-159.9 1123.95,-146.971 1107.46,-137.074"/>
<polygon fill="midnightblue" stroke="midnightblue" points="1108.8,-133.798 1098.42,-131.655 1105.2,-139.801 1108.8,-133.798"/>
</g>
<!-- Node42 -->
<g id="node42" class="node"><title>Node42</title>
<g id="a_node42"><a xlink:href="_elapsed_time_8h.html" target="_top" xlink:title=" ">
<polygon fill="white" stroke="black" points="1202,-112.5 1202,-131.5 1338,-131.5 1338,-112.5 1202,-112.5"/>
<text text-anchor="middle" x="1270" y="-119.5" font-family="Helvetica,sans-Serif" font-size="10.00">Cpl/System/ElapsedTime.h</text>
</a>
</g>
</g>
<!-- Node41&#45;&gt;Node42 -->
<g id="edge75" class="edge"><title>Node41&#45;&gt;Node42</title>
<path fill="none" stroke="midnightblue" d="M1189.42,-168.324C1204.54,-159.822 1227.82,-146.729 1245.47,-136.797"/>
<polygon fill="midnightblue" stroke="midnightblue" points="1247.61,-139.608 1254.61,-131.655 1244.18,-133.507 1247.61,-139.608"/>
</g>
<!-- Node42&#45;&gt;Node12 -->
<g id="edge76" class="edge"><title>Node42&#45;&gt;Node12</title>
<path fill="none" stroke="midnightblue" d="M1291.23,-112.444C1313.38,-103.517 1348.32,-89.4387 1373.44,-79.3168"/>
<polygon fill="midnightblue" stroke="midnightblue" points="1374.9,-82.5006 1382.87,-75.5164 1372.28,-76.0079 1374.9,-82.5006"/>
</g>
<!-- Node43&#45;&gt;Node13 -->
<g id="edge82" class="edge"><title>Node43&#45;&gt;Node13</title>
<path fill="none" stroke="midnightblue" d="M1894.61,-336.434C1898.36,-327.424 1904.33,-312.806 1909,-300 1937.9,-220.784 1968.14,-124.781 1980.37,-85.3009"/>
<polygon fill="midnightblue" stroke="midnightblue" points="1983.78,-86.1158 1983.39,-75.5283 1977.1,-84.0508 1983.78,-86.1158"/>
</g>
<!-- Node44 -->
<g id="node44" class="node"><title>Node44</title>
<g id="a_node44"><a xlink:href="_f_string___8h.html" target="_top" xlink:title=" ">
<polygon fill="white" stroke="black" points="1799.5,-280.5 1799.5,-299.5 1900.5,-299.5 1900.5,-280.5 1799.5,-280.5"/>
<text text-anchor="middle" x="1850" y="-287.5" font-family="Helvetica,sans-Serif" font-size="10.00">Cpl/Text/FString_.h</text>
</a>
</g>
</g>
<!-- Node43&#45;&gt;Node44 -->
<g id="edge78" class="edge"><title>Node43&#45;&gt;Node44</title>
<path fill="none" stroke="midnightblue" d="M1884.23,-336.083C1878.44,-328.455 1869.94,-317.264 1862.86,-307.941"/>
<polygon fill="midnightblue" stroke="midnightblue" points="1865.48,-305.599 1856.64,-299.751 1859.9,-309.832 1865.48,-305.599"/>
</g>
<!-- Node44&#45;&gt;Node5 -->
<g id="edge79" class="edge"><title>Node44&#45;&gt;Node5</title>
<path fill="none" stroke="midnightblue" d="M1854.01,-280.215C1859.26,-267.363 1866.93,-242.91 1859,-224 1813.17,-114.734 1764.23,-93.983 1652,-56 1588.06,-34.3594 1394.37,-19.9755 1299.92,-14.0556"/>
<polygon fill="midnightblue" stroke="midnightblue" points="1299.93,-10.5493 1289.73,-13.4256 1299.5,-17.536 1299.93,-10.5493"/>
</g>
<!-- Node45 -->
<g id="node45" class="node"><title>Node45</title>
<g id="a_node45"><a xlink:href="_string___8h.html" target="_top" xlink:title=" ">
<polygon fill="white" stroke="black" points="1729.5,-224.5 1729.5,-243.5 1824.5,-243.5 1824.5,-224.5 1729.5,-224.5"/>
<text text-anchor="middle" x="1777" y="-231.5" font-family="Helvetica,sans-Serif" font-size="10.00">Cpl/Text/String_.h</text>
</a>
</g>
</g>
<!-- Node44&#45;&gt;Node45 -->
<g id="edge80" class="edge"><title>Node44&#45;&gt;Node45</title>
<path fill="none" stroke="midnightblue" d="M1838.27,-280.324C1827.16,-272.107 1810.26,-259.602 1797.02,-249.807"/>
<polygon fill="midnightblue" stroke="midnightblue" points="1799.06,-246.967 1788.94,-243.834 1794.9,-252.595 1799.06,-246.967"/>
</g>
<!-- Node45&#45;&gt;Node15 -->
<g id="edge81" class="edge"><title>Node45&#45;&gt;Node15</title>
<path fill="none" stroke="midnightblue" d="M1751.81,-224.444C1725.06,-215.359 1682.6,-200.939 1652.69,-190.783"/>
<polygon fill="midnightblue" stroke="midnightblue" points="1653.67,-187.418 1643.08,-187.516 1651.42,-194.046 1653.67,-187.418"/>
</g>
</g>
</svg>
