<?xml version="1.0" encoding="UTF-8" standalone="no"?>
<!DOCTYPE svg PUBLIC "-//W3C//DTD SVG 1.1//EN"
 "http://www.w3.org/Graphics/SVG/1.1/DTD/svg11.dtd">
<!-- Generated by graphviz version 2.38.0 (20140413.2041)
 -->
<!-- Title: Cpl/Dm/Mp/Uint64.h Pages: 1 -->
<svg width="2270pt" height="476pt"
 viewBox="0.00 0.00 2270.00 476.00" xmlns="http://www.w3.org/2000/svg" xmlns:xlink="http://www.w3.org/1999/xlink">
<g id="graph0" class="graph" transform="scale(1 1) rotate(0) translate(4 472)">
<title>Cpl/Dm/Mp/Uint64.h</title>
<polygon fill="white" stroke="none" points="-4,4 -4,-472 2266,-472 2266,4 -4,4"/>
<!-- Node1 -->
<g id="node1" class="node"><title>Node1</title>
<g id="a_node1"><a xlink:title=" ">
<polygon fill="#bfbfbf" stroke="black" points="1884.5,-448.5 1884.5,-467.5 1988.5,-467.5 1988.5,-448.5 1884.5,-448.5"/>
<text text-anchor="middle" x="1936.5" y="-455.5" font-family="Helvetica,sans-Serif" font-size="10.00">Cpl/Dm/Mp/Uint64.h</text>
</a>
</g>
</g>
<!-- Node2 -->
<g id="node2" class="node"><title>Node2</title>
<g id="a_node2"><a xlink:href="_numeric_8h.html" target="_top" xlink:title=" ">
<polygon fill="white" stroke="black" points="1880,-392.5 1880,-411.5 1993,-411.5 1993,-392.5 1880,-392.5"/>
<text text-anchor="middle" x="1936.5" y="-399.5" font-family="Helvetica,sans-Serif" font-size="10.00">Cpl/Dm/Mp/Numeric.h</text>
</a>
</g>
</g>
<!-- Node1&#45;&gt;Node2 -->
<g id="edge1" class="edge"><title>Node1&#45;&gt;Node2</title>
<path fill="none" stroke="midnightblue" d="M1936.5,-448.083C1936.5,-441.006 1936.5,-430.861 1936.5,-421.986"/>
<polygon fill="midnightblue" stroke="midnightblue" points="1940,-421.751 1936.5,-411.751 1933,-421.751 1940,-421.751"/>
</g>
<!-- Node3 -->
<g id="node3" class="node"><title>Node3</title>
<g id="a_node3"><a xlink:href="_model_point_common___8h.html" target="_top" xlink:title=" ">
<polygon fill="white" stroke="black" points="1151,-336.5 1151,-355.5 1304,-355.5 1304,-336.5 1151,-336.5"/>
<text text-anchor="middle" x="1227.5" y="-343.5" font-family="Helvetica,sans-Serif" font-size="10.00">Cpl/Dm/ModelPointCommon_.h</text>
</a>
</g>
</g>
<!-- Node2&#45;&gt;Node3 -->
<g id="edge2" class="edge"><title>Node2&#45;&gt;Node3</title>
<path fill="none" stroke="midnightblue" d="M1879.98,-396.695C1756.47,-387.288 1461.83,-364.848 1314.5,-353.626"/>
<polygon fill="midnightblue" stroke="midnightblue" points="1314.38,-350.107 1304.15,-352.838 1313.85,-357.087 1314.38,-350.107"/>
</g>
<!-- Node7 -->
<g id="node7" class="node"><title>Node7</title>
<g id="a_node7"><a xlink:href="_string_8h.html" target="_top" xlink:title=" ">
<polygon fill="white" stroke="black" points="1821.5,-168.5 1821.5,-187.5 1911.5,-187.5 1911.5,-168.5 1821.5,-168.5"/>
<text text-anchor="middle" x="1866.5" y="-175.5" font-family="Helvetica,sans-Serif" font-size="10.00">Cpl/Text/String.h</text>
</a>
</g>
</g>
<!-- Node2&#45;&gt;Node7 -->
<g id="edge86" class="edge"><title>Node2&#45;&gt;Node7</title>
<path fill="none" stroke="midnightblue" d="M1937.68,-392.269C1940.88,-365.39 1947.6,-282.195 1917.5,-224 1911.14,-211.709 1899.92,-201.242 1889.62,-193.503"/>
<polygon fill="midnightblue" stroke="midnightblue" points="1891.5,-190.549 1881.3,-187.665 1887.48,-196.277 1891.5,-190.549"/>
</g>
<!-- Node10 -->
<g id="node10" class="node"><title>Node10</title>
<g id="a_node10"><a xlink:href="_fatal_error_8h.html" target="_top" xlink:title=" ">
<polygon fill="white" stroke="black" points="1819.5,-56.5 1819.5,-75.5 1941.5,-75.5 1941.5,-56.5 1819.5,-56.5"/>
<text text-anchor="middle" x="1880.5" y="-63.5" font-family="Helvetica,sans-Serif" font-size="10.00">Cpl/System/FatalError.h</text>
</a>
</g>
</g>
<!-- Node2&#45;&gt;Node10 -->
<g id="edge69" class="edge"><title>Node2&#45;&gt;Node10</title>
<path fill="none" stroke="midnightblue" d="M1993.15,-397.755C2060.68,-390.469 2164.5,-366.922 2164.5,-291 2164.5,-291 2164.5,-291 2164.5,-233 2164.5,-164.628 2127.08,-148.865 2069.5,-112 2034.45,-89.5581 1989.27,-78.2957 1951.88,-72.6494"/>
<polygon fill="midnightblue" stroke="midnightblue" points="1951.94,-69.1242 1941.55,-71.2012 1950.97,-76.0563 1951.94,-69.1242"/>
</g>
<!-- Node36 -->
<g id="node36" class="node"><title>Node36</title>
<g id="a_node36"><a xlink:href="_assert_8h.html" target="_top" xlink:title=" ">
<polygon fill="white" stroke="black" points="2155,-112.5 2155,-131.5 2262,-131.5 2262,-112.5 2155,-112.5"/>
<text text-anchor="middle" x="2208.5" y="-119.5" font-family="Helvetica,sans-Serif" font-size="10.00">Cpl/System/Assert.h</text>
</a>
</g>
</g>
<!-- Node2&#45;&gt;Node36 -->
<g id="edge66" class="edge"><title>Node2&#45;&gt;Node36</title>
<path fill="none" stroke="midnightblue" d="M1993.02,-396.684C2055.38,-390.87 2150.64,-378.551 2178.5,-356 2202.81,-336.319 2205.5,-322.282 2205.5,-291 2205.5,-291 2205.5,-291 2205.5,-233 2205.5,-200.936 2206.79,-163.634 2207.68,-141.745"/>
<polygon fill="midnightblue" stroke="midnightblue" points="2211.18,-141.694 2208.11,-131.556 2204.19,-141.399 2211.18,-141.694"/>
</g>
<!-- Node37 -->
<g id="node37" class="node"><title>Node37</title>
<g id="a_node37"><a xlink:href="atob_8h.html" target="_top" xlink:title="This file contains a collection of methods that wrap the standard C library functions for converting ...">
<polygon fill="white" stroke="black" points="1719,-168.5 1719,-187.5 1802,-187.5 1802,-168.5 1719,-168.5"/>
<text text-anchor="middle" x="1760.5" y="-175.5" font-family="Helvetica,sans-Serif" font-size="10.00">Cpl/Text/atob.h</text>
</a>
</g>
</g>
<!-- Node2&#45;&gt;Node37 -->
<g id="edge70" class="edge"><title>Node2&#45;&gt;Node37</title>
<path fill="none" stroke="midnightblue" d="M1919.16,-392.41C1881.23,-372.503 1791.53,-319.116 1757.5,-244 1750.94,-229.53 1752.5,-211.343 1755.23,-197.89"/>
<polygon fill="midnightblue" stroke="midnightblue" points="1758.7,-198.43 1757.65,-187.888 1751.89,-196.785 1758.7,-198.43"/>
</g>
<!-- Node40 -->
<g id="node40" class="node"><title>Node40</title>
<g id="a_node40"><a xlink:href="format_8h.html" target="_top" xlink:title="This file contains some general purpose string formatting functions.">
<polygon fill="white" stroke="black" points="1618.5,-224.5 1618.5,-243.5 1710.5,-243.5 1710.5,-224.5 1618.5,-224.5"/>
<text text-anchor="middle" x="1664.5" y="-231.5" font-family="Helvetica,sans-Serif" font-size="10.00">Cpl/Text/format.h</text>
</a>
</g>
</g>
<!-- Node2&#45;&gt;Node40 -->
<g id="edge76" class="edge"><title>Node2&#45;&gt;Node40</title>
<path fill="none" stroke="midnightblue" d="M1879.96,-394.612C1825.63,-387.497 1748.36,-374.508 1724.5,-356 1691.11,-330.093 1674.99,-280.682 1668.38,-253.708"/>
<polygon fill="midnightblue" stroke="midnightblue" points="1671.73,-252.637 1666.1,-243.656 1664.9,-254.182 1671.73,-252.637"/>
</g>
<!-- Node41 -->
<g id="node41" class="node"><title>Node41</title>
<g id="a_node41"><a xlink:href="_f_string_8h.html" target="_top" xlink:title=" ">
<polygon fill="white" stroke="black" points="1964.5,-336.5 1964.5,-355.5 2060.5,-355.5 2060.5,-336.5 1964.5,-336.5"/>
<text text-anchor="middle" x="2012.5" y="-343.5" font-family="Helvetica,sans-Serif" font-size="10.00">Cpl/Text/FString.h</text>
</a>
</g>
</g>
<!-- Node2&#45;&gt;Node41 -->
<g id="edge80" class="edge"><title>Node2&#45;&gt;Node41</title>
<path fill="none" stroke="midnightblue" d="M1948.71,-392.324C1960.28,-384.107 1977.88,-371.602 1991.66,-361.807"/>
<polygon fill="midnightblue" stroke="midnightblue" points="1993.94,-364.479 2000.07,-355.834 1989.89,-358.773 1993.94,-364.479"/>
</g>
<!-- Node4 -->
<g id="node4" class="node"><title>Node4</title>
<g id="a_node4"><a xlink:href="_model_point_8h.html" target="_top" xlink:title=" ">
<polygon fill="white" stroke="black" points="1173,-224.5 1173,-243.5 1282,-243.5 1282,-224.5 1173,-224.5"/>
<text text-anchor="middle" x="1227.5" y="-231.5" font-family="Helvetica,sans-Serif" font-size="10.00">Cpl/Dm/ModelPoint.h</text>
</a>
</g>
</g>
<!-- Node3&#45;&gt;Node4 -->
<g id="edge3" class="edge"><title>Node3&#45;&gt;Node4</title>
<path fill="none" stroke="midnightblue" d="M1227.5,-336.368C1227.5,-318.617 1227.5,-277.666 1227.5,-253.597"/>
<polygon fill="midnightblue" stroke="midnightblue" points="1231,-253.591 1227.5,-243.591 1224,-253.591 1231,-253.591"/>
</g>
<!-- Node12 -->
<g id="node12" class="node"><title>Node12</title>
<g id="a_node12"><a xlink:title=" ">
<polygon fill="white" stroke="#bfbfbf" points="1191,-0.5 1191,-19.5 1240,-19.5 1240,-0.5 1191,-0.5"/>
<text text-anchor="middle" x="1215.5" y="-7.5" font-family="Helvetica,sans-Serif" font-size="10.00">stdint.h</text>
</a>
</g>
</g>
<!-- Node3&#45;&gt;Node12 -->
<g id="edge64" class="edge"><title>Node3&#45;&gt;Node12</title>
<path fill="none" stroke="midnightblue" d="M1219.58,-336.396C1205.05,-319.951 1174.61,-282.278 1163.5,-244 1161.02,-235.463 1162.44,-232.825 1163.5,-224 1163.8,-221.53 1198.32,-80.919 1210.94,-29.5396"/>
<polygon fill="midnightblue" stroke="midnightblue" points="1214.36,-30.3071 1213.35,-19.7607 1207.56,-28.6365 1214.36,-30.3071"/>
</g>
<!-- Node17 -->
<g id="node17" class="node"><title>Node17</title>
<g id="a_node17"><a xlink:href="_model_database_8h.html" target="_top" xlink:title=" ">
<polygon fill="white" stroke="black" points="1371.5,-280.5 1371.5,-299.5 1499.5,-299.5 1499.5,-280.5 1371.5,-280.5"/>
<text text-anchor="middle" x="1435.5" y="-287.5" font-family="Helvetica,sans-Serif" font-size="10.00">Cpl/Dm/ModelDatabase.h</text>
</a>
</g>
</g>
<!-- Node3&#45;&gt;Node17 -->
<g id="edge23" class="edge"><title>Node3&#45;&gt;Node17</title>
<path fill="none" stroke="midnightblue" d="M1260.46,-336.444C1296.29,-327.142 1353.66,-312.246 1392.89,-302.062"/>
<polygon fill="midnightblue" stroke="midnightblue" points="1393.9,-305.417 1402.7,-299.516 1392.14,-298.642 1393.9,-305.417"/>
</g>
<!-- Node21 -->
<g id="node21" class="node"><title>Node21</title>
<g id="a_node21"><a xlink:href="_subscriber_8h.html" target="_top" xlink:title=" ">
<polygon fill="white" stroke="black" points="1009,-280.5 1009,-299.5 1116,-299.5 1116,-280.5 1009,-280.5"/>
<text text-anchor="middle" x="1062.5" y="-287.5" font-family="Helvetica,sans-Serif" font-size="10.00">Cpl/Dm/Subscriber.h</text>
</a>
</g>
</g>
<!-- Node3&#45;&gt;Node21 -->
<g id="edge32" class="edge"><title>Node3&#45;&gt;Node21</title>
<path fill="none" stroke="midnightblue" d="M1201.36,-336.444C1173.48,-327.32 1129.15,-312.813 1098.1,-302.651"/>
<polygon fill="midnightblue" stroke="midnightblue" points="1099.12,-299.3 1088.52,-299.516 1096.94,-305.953 1099.12,-299.3"/>
</g>
<!-- Node31 -->
<g id="node31" class="node"><title>Node31</title>
<g id="a_node31"><a xlink:href="_d_list_8h.html" target="_top" xlink:title=" ">
<polygon fill="white" stroke="black" points="0,-56.5 0,-75.5 109,-75.5 109,-56.5 0,-56.5"/>
<text text-anchor="middle" x="54.5" y="-63.5" font-family="Helvetica,sans-Serif" font-size="10.00">Cpl/Container/DList.h</text>
</a>
</g>
</g>
<!-- Node3&#45;&gt;Node31 -->
<g id="edge63" class="edge"><title>Node3&#45;&gt;Node31</title>
<path fill="none" stroke="midnightblue" d="M1150.83,-342.069C884.625,-331.394 16.5,-292.197 16.5,-235 16.5,-235 16.5,-235 16.5,-177 16.5,-142.813 33.1005,-105.764 44.3573,-84.5707"/>
<polygon fill="midnightblue" stroke="midnightblue" points="47.4473,-86.2151 49.2163,-75.769 41.3191,-82.832 47.4473,-86.2151"/>
</g>
<!-- Node34 -->
<g id="node34" class="node"><title>Node34</title>
<g id="a_node34"><a xlink:title=" ">
<polygon fill="white" stroke="#bfbfbf" points="1518.5,-112.5 1518.5,-131.5 1566.5,-131.5 1566.5,-112.5 1518.5,-112.5"/>
<text text-anchor="middle" x="1542.5" y="-119.5" font-family="Helvetica,sans-Serif" font-size="10.00">stdlib.h</text>
</a>
</g>
</g>
<!-- Node3&#45;&gt;Node34 -->
<g id="edge65" class="edge"><title>Node3&#45;&gt;Node34</title>
<path fill="none" stroke="midnightblue" d="M1304.07,-339.071C1375.12,-332.445 1474.81,-319.949 1508.5,-300 1562.74,-267.887 1575.06,-247.626 1595.5,-188 1598.38,-179.591 1599.23,-176.067 1595.5,-168 1589.58,-155.207 1578.03,-144.722 1567.22,-137.1"/>
<polygon fill="midnightblue" stroke="midnightblue" points="1569.12,-134.158 1558.83,-131.613 1565.29,-140.016 1569.12,-134.158"/>
</g>
<!-- Node5 -->
<g id="node5" class="node"><title>Node5</title>
<g id="a_node5"><a xlink:title=" ">
<polygon fill="white" stroke="#bfbfbf" points="1731,-0.5 1731,-19.5 1816,-19.5 1816,-0.5 1731,-0.5"/>
<text text-anchor="middle" x="1773.5" y="-7.5" font-family="Helvetica,sans-Serif" font-size="10.00">colony_config.h</text>
</a>
</g>
</g>
<!-- Node4&#45;&gt;Node5 -->
<g id="edge4" class="edge"><title>Node4&#45;&gt;Node5</title>
<path fill="none" stroke="midnightblue" d="M1232.92,-224.328C1241.39,-211.189 1258.74,-185.878 1277.5,-168 1340.59,-107.857 1357.25,-87.5749 1438.5,-56 1533.12,-19.2268 1652.84,-11.6041 1720.53,-10.5268"/>
<polygon fill="midnightblue" stroke="midnightblue" points="1720.97,-14.022 1730.93,-10.4067 1720.89,-7.02247 1720.97,-14.022"/>
</g>
<!-- Node6 -->
<g id="node6" class="node"><title>Node6</title>
<g id="a_node6"><a xlink:href="_item_8h.html" target="_top" xlink:title=" ">
<polygon fill="white" stroke="black" points="662.5,-0.5 662.5,-19.5 768.5,-19.5 768.5,-0.5 662.5,-0.5"/>
<text text-anchor="middle" x="715.5" y="-7.5" font-family="Helvetica,sans-Serif" font-size="10.00">Cpl/Container/Item.h</text>
</a>
</g>
</g>
<!-- Node4&#45;&gt;Node6 -->
<g id="edge5" class="edge"><title>Node4&#45;&gt;Node6</title>
<path fill="none" stroke="midnightblue" d="M1219.62,-224.216C1199.21,-202.005 1142.06,-143.156 1082.5,-112 983.233,-60.0697 854.499,-32.6261 778.856,-20.0112"/>
<polygon fill="midnightblue" stroke="midnightblue" points="778.976,-16.4846 768.543,-18.3286 777.849,-23.3933 778.976,-16.4846"/>
</g>
<!-- Node4&#45;&gt;Node7 -->
<g id="edge6" class="edge"><title>Node4&#45;&gt;Node7</title>
<path fill="none" stroke="midnightblue" d="M1282.01,-228.055C1297.37,-226.699 1314.09,-225.257 1329.5,-224 1543.17,-206.578 1597.59,-213.031 1810.5,-188 1810.72,-187.974 1810.94,-187.948 1811.16,-187.922"/>
<polygon fill="midnightblue" stroke="midnightblue" points="1811.85,-191.362 1821.31,-186.599 1810.94,-184.421 1811.85,-191.362"/>
</g>
<!-- Node11 -->
<g id="node11" class="node"><title>Node11</title>
<g id="a_node11"><a xlink:title=" ">
<polygon fill="white" stroke="#bfbfbf" points="1447.5,-0.5 1447.5,-19.5 1499.5,-19.5 1499.5,-0.5 1447.5,-0.5"/>
<text text-anchor="middle" x="1473.5" y="-7.5" font-family="Helvetica,sans-Serif" font-size="10.00">stddef.h</text>
</a>
</g>
</g>
<!-- Node4&#45;&gt;Node11 -->
<g id="edge21" class="edge"><title>Node4&#45;&gt;Node11</title>
<path fill="none" stroke="midnightblue" d="M1227.99,-224.275C1229.1,-211.066 1232.73,-185.666 1244.5,-168 1293.86,-93.9146 1391.19,-45.0112 1441.58,-23.5146"/>
<polygon fill="midnightblue" stroke="midnightblue" points="1443.13,-26.6629 1451.01,-19.5814 1440.43,-20.2029 1443.13,-26.6629"/>
</g>
<!-- Node4&#45;&gt;Node12 -->
<g id="edge22" class="edge"><title>Node4&#45;&gt;Node12</title>
<path fill="none" stroke="midnightblue" d="M1222.12,-224.443C1216.94,-215.678 1209.49,-201.467 1206.5,-188 1204.57,-179.322 1204.01,-176.532 1206.5,-168 1211.82,-149.775 1224.18,-150.225 1229.5,-132 1238.97,-99.5778 1234.57,-89.3944 1229.5,-56 1228.13,-47.001 1225.31,-37.3251 1222.55,-29.2601"/>
<polygon fill="midnightblue" stroke="midnightblue" points="1225.81,-27.9759 1219.1,-19.7782 1219.23,-30.3722 1225.81,-27.9759"/>
</g>
<!-- Node15 -->
<g id="node15" class="node"><title>Node15</title>
<g id="a_node15"><a xlink:href="_subscriber_api_8h.html" target="_top" xlink:title=" ">
<polygon fill="white" stroke="black" points="83,-112.5 83,-131.5 204,-131.5 204,-112.5 83,-112.5"/>
<text text-anchor="middle" x="143.5" y="-119.5" font-family="Helvetica,sans-Serif" font-size="10.00">Cpl/Dm/SubscriberApi.h</text>
</a>
</g>
</g>
<!-- Node4&#45;&gt;Node15 -->
<g id="edge17" class="edge"><title>Node4&#45;&gt;Node15</title>
<path fill="none" stroke="midnightblue" d="M1172.85,-232.593C1051.94,-231.038 752.879,-223.583 505.5,-188 465.8,-182.29 456.863,-175.698 417.5,-168 347.686,-154.347 267.316,-141.482 211.756,-133.033"/>
<polygon fill="midnightblue" stroke="midnightblue" points="212.09,-129.543 201.679,-131.507 211.042,-136.464 212.09,-129.543"/>
</g>
<!-- Node16 -->
<g id="node16" class="node"><title>Node16</title>
<g id="a_node16"><a xlink:href="_arduino_8h_source.html" target="_top" xlink:title=" ">
<polygon fill="white" stroke="black" points="1287,-168.5 1287,-187.5 1386,-187.5 1386,-168.5 1287,-168.5"/>
<text text-anchor="middle" x="1336.5" y="-175.5" font-family="Helvetica,sans-Serif" font-size="10.00">Cpl/Json/Arduino.h</text>
</a>
</g>
</g>
<!-- Node4&#45;&gt;Node16 -->
<g id="edge20" class="edge"><title>Node4&#45;&gt;Node16</title>
<path fill="none" stroke="midnightblue" d="M1245.01,-224.324C1262.57,-215.625 1289.83,-202.12 1310.03,-192.113"/>
<polygon fill="midnightblue" stroke="midnightblue" points="1311.62,-195.23 1319.03,-187.655 1308.52,-188.958 1311.62,-195.23"/>
</g>
<!-- Node8 -->
<g id="node8" class="node"><title>Node8</title>
<g id="a_node8"><a xlink:title=" ">
<polygon fill="white" stroke="#bfbfbf" points="1686,-56.5 1686,-75.5 1763,-75.5 1763,-56.5 1686,-56.5"/>
<text text-anchor="middle" x="1724.5" y="-63.5" font-family="Helvetica,sans-Serif" font-size="10.00">colony_map.h</text>
</a>
</g>
</g>
<!-- Node7&#45;&gt;Node8 -->
<g id="edge7" class="edge"><title>Node7&#45;&gt;Node8</title>
<path fill="none" stroke="midnightblue" d="M1854.24,-168.179C1841.84,-159.21 1822.19,-144.842 1805.5,-132 1783.8,-115.299 1759.34,-95.5368 1743.03,-82.2236"/>
<polygon fill="midnightblue" stroke="midnightblue" points="1744.83,-79.1766 1734.88,-75.5513 1740.4,-84.5936 1744.83,-79.1766"/>
</g>
<!-- Node9 -->
<g id="node9" class="node"><title>Node9</title>
<g id="a_node9"><a xlink:href="_key_8h.html" target="_top" xlink:title=" ">
<polygon fill="white" stroke="black" points="1814.5,-112.5 1814.5,-131.5 1918.5,-131.5 1918.5,-112.5 1814.5,-112.5"/>
<text text-anchor="middle" x="1866.5" y="-119.5" font-family="Helvetica,sans-Serif" font-size="10.00">Cpl/Container/Key.h</text>
</a>
</g>
</g>
<!-- Node7&#45;&gt;Node9 -->
<g id="edge8" class="edge"><title>Node7&#45;&gt;Node9</title>
<path fill="none" stroke="midnightblue" d="M1861.33,-168.083C1859.82,-160.927 1859.39,-150.635 1860.04,-141.691"/>
<polygon fill="midnightblue" stroke="midnightblue" points="1863.52,-142.126 1861.37,-131.751 1856.58,-141.2 1863.52,-142.126"/>
</g>
<!-- Node13 -->
<g id="node13" class="node"><title>Node13</title>
<g id="a_node13"><a xlink:title=" ">
<polygon fill="white" stroke="#bfbfbf" points="2008.5,-112.5 2008.5,-131.5 2060.5,-131.5 2060.5,-112.5 2008.5,-112.5"/>
<text text-anchor="middle" x="2034.5" y="-119.5" font-family="Helvetica,sans-Serif" font-size="10.00">stdarg.h</text>
</a>
</g>
</g>
<!-- Node7&#45;&gt;Node13 -->
<g id="edge15" class="edge"><title>Node7&#45;&gt;Node13</title>
<path fill="none" stroke="midnightblue" d="M1893.12,-168.444C1921.59,-159.293 1966.9,-144.728 1998.53,-134.561"/>
<polygon fill="midnightblue" stroke="midnightblue" points="1999.83,-137.82 2008.28,-131.428 1997.69,-131.156 1999.83,-137.82"/>
</g>
<!-- Node14 -->
<g id="node14" class="node"><title>Node14</title>
<g id="a_node14"><a xlink:title=" ">
<polygon fill="white" stroke="#bfbfbf" points="1936.5,-112.5 1936.5,-131.5 1990.5,-131.5 1990.5,-112.5 1936.5,-112.5"/>
<text text-anchor="middle" x="1963.5" y="-119.5" font-family="Helvetica,sans-Serif" font-size="10.00">iostream</text>
</a>
</g>
</g>
<!-- Node7&#45;&gt;Node14 -->
<g id="edge16" class="edge"><title>Node7&#45;&gt;Node14</title>
<path fill="none" stroke="midnightblue" d="M1882.08,-168.324C1897.5,-159.743 1921.31,-146.486 1939.21,-136.522"/>
<polygon fill="midnightblue" stroke="midnightblue" points="1940.92,-139.577 1947.95,-131.655 1937.51,-133.461 1940.92,-139.577"/>
</g>
<!-- Node9&#45;&gt;Node7 -->
<g id="edge13" class="edge"><title>Node9&#45;&gt;Node7</title>
<path fill="none" stroke="midnightblue" d="M1871.63,-131.751C1873.16,-138.858 1873.6,-149.136 1872.97,-158.101"/>
<polygon fill="midnightblue" stroke="midnightblue" points="1869.49,-157.713 1871.67,-168.083 1876.43,-158.622 1869.49,-157.713"/>
</g>
<!-- Node9&#45;&gt;Node8 -->
<g id="edge14" class="edge"><title>Node9&#45;&gt;Node8</title>
<path fill="none" stroke="midnightblue" d="M1844,-112.444C1820.42,-103.478 1783.18,-89.314 1756.54,-79.1827"/>
<polygon fill="midnightblue" stroke="midnightblue" points="1757.49,-75.7995 1746.9,-75.5164 1755,-82.3424 1757.49,-75.7995"/>
</g>
<!-- Node9&#45;&gt;Node10 -->
<g id="edge9" class="edge"><title>Node9&#45;&gt;Node10</title>
<path fill="none" stroke="midnightblue" d="M1868.81,-112.083C1870.67,-104.927 1873.34,-94.6353 1875.65,-85.6911"/>
<polygon fill="midnightblue" stroke="midnightblue" points="1879.11,-86.3094 1878.23,-75.7511 1872.33,-84.5527 1879.11,-86.3094"/>
</g>
<!-- Node9&#45;&gt;Node12 -->
<g id="edge12" class="edge"><title>Node9&#45;&gt;Node12</title>
<path fill="none" stroke="midnightblue" d="M1855.37,-112.298C1834.44,-96.1133 1789.68,-62.4386 1771.5,-56 1722.53,-38.6551 1365.02,-18.7713 1250.61,-12.7908"/>
<polygon fill="midnightblue" stroke="midnightblue" points="1250.49,-9.27964 1240.32,-12.256 1250.12,-16.2702 1250.49,-9.27964"/>
</g>
<!-- Node10&#45;&gt;Node5 -->
<g id="edge11" class="edge"><title>Node10&#45;&gt;Node5</title>
<path fill="none" stroke="midnightblue" d="M1863.31,-56.324C1846.15,-47.6641 1819.55,-34.2424 1799.75,-24.249"/>
<polygon fill="midnightblue" stroke="midnightblue" points="1801.15,-21.0354 1790.65,-19.6545 1798,-27.2847 1801.15,-21.0354"/>
</g>
<!-- Node10&#45;&gt;Node11 -->
<g id="edge10" class="edge"><title>Node10&#45;&gt;Node11</title>
<path fill="none" stroke="midnightblue" d="M1819.13,-56.8572C1733.16,-45.451 1579.6,-25.0769 1509.81,-15.8173"/>
<polygon fill="midnightblue" stroke="midnightblue" points="1510.12,-12.3276 1499.74,-14.4818 1509.2,-19.2667 1510.12,-12.3276"/>
</g>
<!-- Node15&#45;&gt;Node6 -->
<g id="edge18" class="edge"><title>Node15&#45;&gt;Node6</title>
<path fill="none" stroke="midnightblue" d="M156.612,-112.481C179.489,-98.0903 228.643,-69.243 274.5,-56 405.055,-18.2972 565.312,-11.1963 652.189,-10.4193"/>
<polygon fill="midnightblue" stroke="midnightblue" points="652.435,-13.9179 662.413,-10.3543 652.391,-6.91807 652.435,-13.9179"/>
</g>
<!-- Node15&#45;&gt;Node12 -->
<g id="edge19" class="edge"><title>Node15&#45;&gt;Node12</title>
<path fill="none" stroke="midnightblue" d="M164.404,-112.448C201.127,-97.8709 279.935,-68.5711 349.5,-56 513.201,-26.4175 1039.62,-14.3751 1180.53,-11.6348"/>
<polygon fill="midnightblue" stroke="midnightblue" points="1180.81,-15.1301 1190.75,-11.4394 1180.68,-8.13136 1180.81,-15.1301"/>
</g>
<!-- Node17&#45;&gt;Node5 -->
<g id="edge24" class="edge"><title>Node17&#45;&gt;Node5</title>
<path fill="none" stroke="midnightblue" d="M1440.34,-280.293C1445.08,-271.412 1452.22,-257.112 1456.5,-244 1475.75,-185.082 1458.37,-156.519 1501.5,-112 1560.47,-51.1214 1659.43,-26.6375 1720.34,-17.006"/>
<polygon fill="midnightblue" stroke="midnightblue" points="1721.14,-20.4248 1730.51,-15.4794 1720.1,-13.5024 1721.14,-20.4248"/>
</g>
<!-- Node17&#45;&gt;Node16 -->
<g id="edge31" class="edge"><title>Node17&#45;&gt;Node16</title>
<path fill="none" stroke="midnightblue" d="M1385.73,-280.45C1364.67,-274.104 1342.13,-263.089 1329.5,-244 1320.41,-230.273 1323.87,-211.238 1328.57,-197.314"/>
<polygon fill="midnightblue" stroke="midnightblue" points="1331.9,-198.425 1332.23,-187.836 1325.36,-195.908 1331.9,-198.425"/>
</g>
<!-- Node18 -->
<g id="node18" class="node"><title>Node18</title>
<g id="a_node18"><a xlink:href="_model_database_api_8h.html" target="_top" xlink:title=" ">
<polygon fill="white" stroke="black" points="1766.5,-224.5 1766.5,-243.5 1908.5,-243.5 1908.5,-224.5 1766.5,-224.5"/>
<text text-anchor="middle" x="1837.5" y="-231.5" font-family="Helvetica,sans-Serif" font-size="10.00">Cpl/Dm/ModelDatabaseApi.h</text>
</a>
</g>
</g>
<!-- Node17&#45;&gt;Node18 -->
<g id="edge25" class="edge"><title>Node17&#45;&gt;Node18</title>
<path fill="none" stroke="midnightblue" d="M1499.2,-280.444C1571.24,-270.767 1688.35,-255.035 1764.15,-244.853"/>
<polygon fill="midnightblue" stroke="midnightblue" points="1764.65,-248.317 1774.1,-243.516 1763.72,-241.379 1764.65,-248.317"/>
</g>
<!-- Node19 -->
<g id="node19" class="node"><title>Node19</title>
<g id="a_node19"><a xlink:href="_mutex_8h.html" target="_top" xlink:title=" ">
<polygon fill="white" stroke="black" points="1480.5,-168.5 1480.5,-187.5 1586.5,-187.5 1586.5,-168.5 1480.5,-168.5"/>
<text text-anchor="middle" x="1533.5" y="-175.5" font-family="Helvetica,sans-Serif" font-size="10.00">Cpl/System/Mutex.h</text>
</a>
</g>
</g>
<!-- Node17&#45;&gt;Node19 -->
<g id="edge27" class="edge"><title>Node17&#45;&gt;Node19</title>
<path fill="none" stroke="midnightblue" d="M1448.21,-280.302C1460,-271.867 1477.6,-258.281 1490.5,-244 1503.78,-229.297 1515.94,-210.143 1523.91,-196.444"/>
<polygon fill="midnightblue" stroke="midnightblue" points="1527.06,-198 1528.94,-187.573 1520.96,-194.551 1527.06,-198"/>
</g>
<!-- Node20 -->
<g id="node20" class="node"><title>Node20</title>
<g id="a_node20"><a xlink:href="_s_list_8h.html" target="_top" xlink:title=" ">
<polygon fill="white" stroke="black" points="1339,-224.5 1339,-243.5 1448,-243.5 1448,-224.5 1339,-224.5"/>
<text text-anchor="middle" x="1393.5" y="-231.5" font-family="Helvetica,sans-Serif" font-size="10.00">Cpl/Container/SList.h</text>
</a>
</g>
</g>
<!-- Node17&#45;&gt;Node20 -->
<g id="edge29" class="edge"><title>Node17&#45;&gt;Node20</title>
<path fill="none" stroke="midnightblue" d="M1428.56,-280.083C1422.57,-272.377 1413.75,-261.033 1406.45,-251.653"/>
<polygon fill="midnightblue" stroke="midnightblue" points="1409.21,-249.496 1400.31,-243.751 1403.68,-253.793 1409.21,-249.496"/>
</g>
<!-- Node18&#45;&gt;Node7 -->
<g id="edge26" class="edge"><title>Node18&#45;&gt;Node7</title>
<path fill="none" stroke="midnightblue" d="M1842.29,-224.083C1846.26,-216.691 1852.03,-205.953 1856.93,-196.811"/>
<polygon fill="midnightblue" stroke="midnightblue" points="1860.15,-198.217 1861.8,-187.751 1853.99,-194.905 1860.15,-198.217"/>
</g>
<!-- Node19&#45;&gt;Node8 -->
<g id="edge28" class="edge"><title>Node19&#45;&gt;Node8</title>
<path fill="none" stroke="midnightblue" d="M1525.18,-168.106C1513.65,-154.677 1495.7,-128.993 1509.5,-112 1512.15,-108.741 1612.99,-88.6519 1675.61,-76.4433"/>
<polygon fill="midnightblue" stroke="midnightblue" points="1676.55,-79.8277 1685.69,-74.4819 1675.21,-72.9566 1676.55,-79.8277"/>
</g>
<!-- Node20&#45;&gt;Node6 -->
<g id="edge30" class="edge"><title>Node20&#45;&gt;Node6</title>
<path fill="none" stroke="midnightblue" d="M1396.68,-224.384C1401.07,-210.864 1407.1,-184.506 1394.5,-168 1279.87,-17.8572 1169,-96.524 984.5,-56 914.513,-40.6279 833.269,-27.7049 778.534,-19.7071"/>
<polygon fill="midnightblue" stroke="midnightblue" points="779.03,-16.2425 768.631,-18.2716 778.026,-23.1701 779.03,-16.2425"/>
</g>
<!-- Node21&#45;&gt;Node4 -->
<g id="edge34" class="edge"><title>Node21&#45;&gt;Node4</title>
<path fill="none" stroke="midnightblue" d="M1088.64,-280.444C1116.52,-271.32 1160.85,-256.813 1191.9,-246.651"/>
<polygon fill="midnightblue" stroke="midnightblue" points="1193.06,-249.953 1201.48,-243.516 1190.88,-243.3 1193.06,-249.953"/>
</g>
<!-- Node21&#45;&gt;Node12 -->
<g id="edge62" class="edge"><title>Node21&#45;&gt;Node12</title>
<path fill="none" stroke="midnightblue" d="M1067.25,-280.375C1088.66,-241.459 1176.53,-81.8069 1205.89,-28.4544"/>
<polygon fill="midnightblue" stroke="midnightblue" points="1209.05,-29.9727 1210.81,-19.5243 1202.92,-26.5975 1209.05,-29.9727"/>
</g>
<!-- Node21&#45;&gt;Node15 -->
<g id="edge33" class="edge"><title>Node21&#45;&gt;Node15</title>
<path fill="none" stroke="midnightblue" d="M1008.74,-282.019C897.766,-267.293 635.481,-230.855 417.5,-188 373.9,-179.428 254.07,-150.257 188.249,-134.062"/>
<polygon fill="midnightblue" stroke="midnightblue" points="188.716,-130.573 178.169,-131.58 187.041,-137.37 188.716,-130.573"/>
</g>
<!-- Node22 -->
<g id="node22" class="node"><title>Node22</title>
<g id="a_node22"><a xlink:href="_dm_2_event_loop_8h.html" target="_top" xlink:title=" ">
<polygon fill="white" stroke="black" points="263,-224.5 263,-243.5 370,-243.5 370,-224.5 263,-224.5"/>
<text text-anchor="middle" x="316.5" y="-231.5" font-family="Helvetica,sans-Serif" font-size="10.00">Cpl/Dm/EventLoop.h</text>
</a>
</g>
</g>
<!-- Node21&#45;&gt;Node22 -->
<g id="edge35" class="edge"><title>Node21&#45;&gt;Node22</title>
<path fill="none" stroke="midnightblue" d="M1008.77,-286.429C894.59,-280.742 619.447,-265.845 389.5,-244 386.483,-243.713 383.398,-243.403 380.283,-243.074"/>
<polygon fill="midnightblue" stroke="midnightblue" points="380.605,-239.589 370.282,-241.976 379.841,-246.547 380.605,-239.589"/>
</g>
<!-- Node22&#45;&gt;Node15 -->
<g id="edge59" class="edge"><title>Node22&#45;&gt;Node15</title>
<path fill="none" stroke="midnightblue" d="M262.72,-225.275C235.072,-219.039 202.286,-207.874 178.5,-188 163.937,-175.833 154.512,-155.996 149.153,-141.432"/>
<polygon fill="midnightblue" stroke="midnightblue" points="152.465,-140.302 145.954,-131.944 145.832,-142.539 152.465,-140.302"/>
</g>
<!-- Node23 -->
<g id="node23" class="node"><title>Node23</title>
<g id="a_node23"><a xlink:href="_system_2_event_loop_8h.html" target="_top" xlink:title=" ">
<polygon fill="white" stroke="black" points="515,-168.5 515,-187.5 640,-187.5 640,-168.5 515,-168.5"/>
<text text-anchor="middle" x="577.5" y="-175.5" font-family="Helvetica,sans-Serif" font-size="10.00">Cpl/System/EventLoop.h</text>
</a>
</g>
</g>
<!-- Node22&#45;&gt;Node23 -->
<g id="edge36" class="edge"><title>Node22&#45;&gt;Node23</title>
<path fill="none" stroke="midnightblue" d="M357.856,-224.444C403.578,-214.984 477.264,-199.738 526.522,-189.547"/>
<polygon fill="midnightblue" stroke="midnightblue" points="527.254,-192.97 536.337,-187.516 525.836,-186.115 527.254,-192.97"/>
</g>
<!-- Node22&#45;&gt;Node31 -->
<g id="edge58" class="edge"><title>Node22&#45;&gt;Node31</title>
<path fill="none" stroke="midnightblue" d="M262.936,-226.726C206.027,-216.987 118.227,-192.538 73.5,-132 63.5662,-118.555 58.806,-99.9931 56.5367,-86.1463"/>
<polygon fill="midnightblue" stroke="midnightblue" points="59.953,-85.2871 55.1576,-75.8397 53.0149,-86.2156 59.953,-85.2871"/>
</g>
<!-- Node32 -->
<g id="node32" class="node"><title>Node32</title>
<g id="a_node32"><a xlink:href="_thread_8h.html" target="_top" xlink:title=" ">
<polygon fill="white" stroke="black" points="905,-168.5 905,-187.5 1014,-187.5 1014,-168.5 905,-168.5"/>
<text text-anchor="middle" x="959.5" y="-175.5" font-family="Helvetica,sans-Serif" font-size="10.00">Cpl/System/Thread.h</text>
</a>
</g>
</g>
<!-- Node22&#45;&gt;Node32 -->
<g id="edge52" class="edge"><title>Node22&#45;&gt;Node32</title>
<path fill="none" stroke="midnightblue" d="M370.216,-228.489C487.766,-218.617 767.44,-195.129 894.586,-184.452"/>
<polygon fill="midnightblue" stroke="midnightblue" points="894.902,-187.937 904.574,-183.613 894.316,-180.962 894.902,-187.937"/>
</g>
<!-- Node35 -->
<g id="node35" class="node"><title>Node35</title>
<g id="a_node35"><a xlink:href="_notification_api___8h.html" target="_top" xlink:title=" ">
<polygon fill="white" stroke="black" points="187.5,-168.5 187.5,-187.5 315.5,-187.5 315.5,-168.5 187.5,-168.5"/>
<text text-anchor="middle" x="251.5" y="-175.5" font-family="Helvetica,sans-Serif" font-size="10.00">Cpl/Dm/NotificationApi_.h</text>
</a>
</g>
</g>
<!-- Node22&#45;&gt;Node35 -->
<g id="edge60" class="edge"><title>Node22&#45;&gt;Node35</title>
<path fill="none" stroke="midnightblue" d="M306.057,-224.324C296.354,-216.263 281.685,-204.077 270,-194.369"/>
<polygon fill="midnightblue" stroke="midnightblue" points="272.062,-191.532 262.133,-187.834 267.589,-196.916 272.062,-191.532"/>
</g>
<!-- Node24 -->
<g id="node24" class="node"><title>Node24</title>
<g id="a_node24"><a xlink:href="_runnable_8h.html" target="_top" xlink:title=" ">
<polygon fill="white" stroke="black" points="790,-112.5 790,-131.5 909,-131.5 909,-112.5 790,-112.5"/>
<text text-anchor="middle" x="849.5" y="-119.5" font-family="Helvetica,sans-Serif" font-size="10.00">Cpl/System/Runnable.h</text>
</a>
</g>
</g>
<!-- Node23&#45;&gt;Node24 -->
<g id="edge37" class="edge"><title>Node23&#45;&gt;Node24</title>
<path fill="none" stroke="midnightblue" d="M620.599,-168.444C668.347,-158.964 745.361,-143.675 796.694,-133.483"/>
<polygon fill="midnightblue" stroke="midnightblue" points="797.475,-136.897 806.602,-131.516 796.112,-130.031 797.475,-136.897"/>
</g>
<!-- Node25 -->
<g id="node25" class="node"><title>Node25</title>
<g id="a_node25"><a xlink:href="_semaphore_8h.html" target="_top" xlink:title=" ">
<polygon fill="white" stroke="black" points="643.5,-112.5 643.5,-131.5 771.5,-131.5 771.5,-112.5 643.5,-112.5"/>
<text text-anchor="middle" x="707.5" y="-119.5" font-family="Helvetica,sans-Serif" font-size="10.00">Cpl/System/Semaphore.h</text>
</a>
</g>
</g>
<!-- Node23&#45;&gt;Node25 -->
<g id="edge38" class="edge"><title>Node23&#45;&gt;Node25</title>
<path fill="none" stroke="midnightblue" d="M598.099,-168.444C619.493,-159.557 653.181,-145.563 677.524,-135.451"/>
<polygon fill="midnightblue" stroke="midnightblue" points="679.105,-138.585 686.997,-131.516 676.42,-132.12 679.105,-138.585"/>
</g>
<!-- Node26 -->
<g id="node26" class="node"><title>Node26</title>
<g id="a_node26"><a xlink:href="_signable_8h.html" target="_top" xlink:title=" ">
<polygon fill="white" stroke="black" points="657.5,-56.5 657.5,-75.5 773.5,-75.5 773.5,-56.5 657.5,-56.5"/>
<text text-anchor="middle" x="715.5" y="-63.5" font-family="Helvetica,sans-Serif" font-size="10.00">Cpl/System/Signable.h</text>
</a>
</g>
</g>
<!-- Node23&#45;&gt;Node26 -->
<g id="edge42" class="edge"><title>Node23&#45;&gt;Node26</title>
<path fill="none" stroke="midnightblue" d="M583.706,-168.147C593.401,-154.771 613.242,-129.155 634.5,-112 650.407,-99.1633 670.478,-87.9834 686.661,-79.9781"/>
<polygon fill="midnightblue" stroke="midnightblue" points="688.182,-83.1301 695.679,-75.643 685.15,-76.8212 688.182,-83.1301"/>
</g>
<!-- Node27 -->
<g id="node27" class="node"><title>Node27</title>
<g id="a_node27"><a xlink:href="_event_flag_8h.html" target="_top" xlink:title=" ">
<polygon fill="white" stroke="black" points="516,-56.5 516,-75.5 639,-75.5 639,-56.5 516,-56.5"/>
<text text-anchor="middle" x="577.5" y="-63.5" font-family="Helvetica,sans-Serif" font-size="10.00">Cpl/System/EventFlag.h</text>
</a>
</g>
</g>
<!-- Node23&#45;&gt;Node27 -->
<g id="edge43" class="edge"><title>Node23&#45;&gt;Node27</title>
<path fill="none" stroke="midnightblue" d="M577.5,-168.368C577.5,-150.617 577.5,-109.666 577.5,-85.5974"/>
<polygon fill="midnightblue" stroke="midnightblue" points="581,-85.5914 577.5,-75.5914 574,-85.5915 581,-85.5914"/>
</g>
<!-- Node28 -->
<g id="node28" class="node"><title>Node28</title>
<g id="a_node28"><a xlink:href="_shared_event_handler_8h.html" target="_top" xlink:title=" ">
<polygon fill="white" stroke="black" points="381.5,-112.5 381.5,-131.5 549.5,-131.5 549.5,-112.5 381.5,-112.5"/>
<text text-anchor="middle" x="465.5" y="-119.5" font-family="Helvetica,sans-Serif" font-size="10.00">Cpl/System/SharedEventHandler.h</text>
</a>
</g>
</g>
<!-- Node23&#45;&gt;Node28 -->
<g id="edge46" class="edge"><title>Node23&#45;&gt;Node28</title>
<path fill="none" stroke="midnightblue" d="M559.505,-168.324C541.462,-159.625 513.453,-146.12 492.697,-136.113"/>
<polygon fill="midnightblue" stroke="midnightblue" points="493.978,-132.845 483.45,-131.655 490.938,-139.15 493.978,-132.845"/>
</g>
<!-- Node29 -->
<g id="node29" class="node"><title>Node29</title>
<g id="a_node29"><a xlink:href="_timer_manager_8h.html" target="_top" xlink:title=" ">
<polygon fill="white" stroke="black" points="222,-112.5 222,-131.5 363,-131.5 363,-112.5 222,-112.5"/>
<text text-anchor="middle" x="292.5" y="-119.5" font-family="Helvetica,sans-Serif" font-size="10.00">Cpl/System/TimerManager.h</text>
</a>
</g>
</g>
<!-- Node23&#45;&gt;Node29 -->
<g id="edge48" class="edge"><title>Node23&#45;&gt;Node29</title>
<path fill="none" stroke="midnightblue" d="M532.341,-168.444C482.206,-158.944 401.28,-143.611 347.494,-133.42"/>
<polygon fill="midnightblue" stroke="midnightblue" points="347.925,-129.939 337.448,-131.516 346.621,-136.817 347.925,-129.939"/>
</g>
<!-- Node25&#45;&gt;Node8 -->
<g id="edge39" class="edge"><title>Node25&#45;&gt;Node8</title>
<path fill="none" stroke="midnightblue" d="M771.563,-112.798C774.582,-112.507 777.573,-112.239 780.5,-112 1174.43,-79.8583 1278.76,-120.162 1675.77,-75.8849"/>
<polygon fill="midnightblue" stroke="midnightblue" points="1676.25,-79.3525 1685.8,-74.7552 1675.47,-72.3964 1676.25,-79.3525"/>
</g>
<!-- Node25&#45;&gt;Node26 -->
<g id="edge40" class="edge"><title>Node25&#45;&gt;Node26</title>
<path fill="none" stroke="midnightblue" d="M708.821,-112.083C709.881,-104.927 711.406,-94.6353 712.731,-85.6911"/>
<polygon fill="midnightblue" stroke="midnightblue" points="716.2,-86.1561 714.204,-75.7511 709.276,-85.1302 716.2,-86.1561"/>
</g>
<!-- Node26&#45;&gt;Node6 -->
<g id="edge41" class="edge"><title>Node26&#45;&gt;Node6</title>
<path fill="none" stroke="midnightblue" d="M715.5,-56.083C715.5,-49.0059 715.5,-38.8611 715.5,-29.9865"/>
<polygon fill="midnightblue" stroke="midnightblue" points="719,-29.751 715.5,-19.7511 712,-29.7511 719,-29.751"/>
</g>
<!-- Node27&#45;&gt;Node5 -->
<g id="edge44" class="edge"><title>Node27&#45;&gt;Node5</title>
<path fill="none" stroke="midnightblue" d="M639.039,-56.87C642.236,-56.5508 645.404,-56.2576 648.5,-56 755.894,-47.0622 1513.09,-20.13 1720.87,-12.8378"/>
<polygon fill="midnightblue" stroke="midnightblue" points="1721.05,-16.3338 1730.92,-12.4854 1720.8,-9.33815 1721.05,-16.3338"/>
</g>
<!-- Node27&#45;&gt;Node12 -->
<g id="edge45" class="edge"><title>Node27&#45;&gt;Node12</title>
<path fill="none" stroke="midnightblue" d="M639.053,-57.0182C642.247,-56.6602 645.41,-56.3183 648.5,-56 849.787,-35.2663 1092.13,-18.8922 1180.83,-13.1834"/>
<polygon fill="midnightblue" stroke="midnightblue" points="1181.11,-16.6723 1190.87,-12.5405 1180.67,-9.68663 1181.11,-16.6723"/>
</g>
<!-- Node28&#45;&gt;Node27 -->
<g id="edge47" class="edge"><title>Node28&#45;&gt;Node27</title>
<path fill="none" stroke="midnightblue" d="M483.495,-112.324C501.538,-103.625 529.547,-90.1202 550.303,-80.113"/>
<polygon fill="midnightblue" stroke="midnightblue" points="552.062,-83.1502 559.55,-75.6545 549.022,-76.8449 552.062,-83.1502"/>
</g>
<!-- Node30 -->
<g id="node30" class="node"><title>Node30</title>
<g id="a_node30"><a xlink:href="_counter___8h.html" target="_top" xlink:title=" ">
<polygon fill="white" stroke="black" points="358.5,-56.5 358.5,-75.5 476.5,-75.5 476.5,-56.5 358.5,-56.5"/>
<text text-anchor="middle" x="417.5" y="-63.5" font-family="Helvetica,sans-Serif" font-size="10.00">Cpl/System/Counter_.h</text>
</a>
</g>
</g>
<!-- Node29&#45;&gt;Node30 -->
<g id="edge49" class="edge"><title>Node29&#45;&gt;Node30</title>
<path fill="none" stroke="midnightblue" d="M312.307,-112.444C332.787,-103.596 364.983,-89.6875 388.365,-79.5865"/>
<polygon fill="midnightblue" stroke="midnightblue" points="389.994,-82.6953 397.786,-75.5164 387.218,-76.2692 389.994,-82.6953"/>
</g>
<!-- Node29&#45;&gt;Node31 -->
<g id="edge51" class="edge"><title>Node29&#45;&gt;Node31</title>
<path fill="none" stroke="midnightblue" d="M254.788,-112.444C213.357,-103.043 146.743,-87.9291 101.833,-77.7393"/>
<polygon fill="midnightblue" stroke="midnightblue" points="102.562,-74.3159 92.0354,-75.5164 101.013,-81.1424 102.562,-74.3159"/>
</g>
<!-- Node30&#45;&gt;Node6 -->
<g id="edge50" class="edge"><title>Node30&#45;&gt;Node6</title>
<path fill="none" stroke="midnightblue" d="M464.719,-56.4435C517.249,-46.9246 602.11,-31.5472 658.348,-21.3563"/>
<polygon fill="midnightblue" stroke="midnightblue" points="659.286,-24.7435 668.502,-19.5164 658.038,-17.8556 659.286,-24.7435"/>
</g>
<!-- Node32&#45;&gt;Node8 -->
<g id="edge53" class="edge"><title>Node32&#45;&gt;Node8</title>
<path fill="none" stroke="midnightblue" d="M1014.05,-170.176C1132.48,-155.173 1422.18,-117.469 1675.62,-76.0817"/>
<polygon fill="midnightblue" stroke="midnightblue" points="1676.45,-79.4917 1685.75,-74.4211 1675.32,-72.5838 1676.45,-79.4917"/>
</g>
<!-- Node32&#45;&gt;Node24 -->
<g id="edge54" class="edge"><title>Node32&#45;&gt;Node24</title>
<path fill="none" stroke="midnightblue" d="M941.827,-168.324C924.106,-159.625 896.597,-146.12 876.212,-136.113"/>
<polygon fill="midnightblue" stroke="midnightblue" points="877.649,-132.919 867.13,-131.655 874.564,-139.203 877.649,-132.919"/>
</g>
<!-- Node32&#45;&gt;Node26 -->
<g id="edge55" class="edge"><title>Node32&#45;&gt;Node26</title>
<path fill="none" stroke="midnightblue" d="M956.397,-168.281C950.888,-154.122 938.009,-126.278 917.5,-112 878.409,-84.7856 825.635,-73.6895 783.832,-69.3161"/>
<polygon fill="midnightblue" stroke="midnightblue" points="784.013,-65.8178 773.729,-68.3662 783.358,-72.7871 784.013,-65.8178"/>
</g>
<!-- Node33 -->
<g id="node33" class="node"><title>Node33</title>
<g id="a_node33"><a xlink:href="_traverser_8h.html" target="_top" xlink:title=" ">
<polygon fill="white" stroke="black" points="965.5,-112.5 965.5,-131.5 1073.5,-131.5 1073.5,-112.5 965.5,-112.5"/>
<text text-anchor="middle" x="1019.5" y="-119.5" font-family="Helvetica,sans-Serif" font-size="10.00">Cpl/Type/Traverser.h</text>
</a>
</g>
</g>
<!-- Node32&#45;&gt;Node33 -->
<g id="edge56" class="edge"><title>Node32&#45;&gt;Node33</title>
<path fill="none" stroke="midnightblue" d="M969.14,-168.324C978.01,-160.341 991.375,-148.313 1002.11,-138.653"/>
<polygon fill="midnightblue" stroke="midnightblue" points="1004.59,-141.125 1009.68,-131.834 999.91,-135.922 1004.59,-141.125"/>
</g>
<!-- Node32&#45;&gt;Node34 -->
<g id="edge57" class="edge"><title>Node32&#45;&gt;Node34</title>
<path fill="none" stroke="midnightblue" d="M1014.09,-171.944C1132.63,-160.964 1410.79,-135.199 1508.13,-126.183"/>
<polygon fill="midnightblue" stroke="midnightblue" points="1508.66,-129.649 1518.3,-125.242 1508.02,-122.679 1508.66,-129.649"/>
</g>
<!-- Node35&#45;&gt;Node15 -->
<g id="edge61" class="edge"><title>Node35&#45;&gt;Node15</title>
<path fill="none" stroke="midnightblue" d="M234.148,-168.324C216.828,-159.664 189.985,-146.242 169.998,-136.249"/>
<polygon fill="midnightblue" stroke="midnightblue" points="171.319,-132.996 160.809,-131.655 168.188,-139.257 171.319,-132.996"/>
</g>
<!-- Node36&#45;&gt;Node5 -->
<g id="edge67" class="edge"><title>Node36&#45;&gt;Node5</title>
<path fill="none" stroke="midnightblue" d="M2202.53,-112.46C2191.91,-98.0382 2168.25,-69.145 2140.5,-56 2086.02,-30.1916 1913.95,-18.031 1826.14,-13.3839"/>
<polygon fill="midnightblue" stroke="midnightblue" points="1826.29,-9.88695 1816.12,-12.8669 1825.93,-16.8776 1826.29,-9.88695"/>
</g>
<!-- Node36&#45;&gt;Node8 -->
<g id="edge68" class="edge"><title>Node36&#45;&gt;Node8</title>
<path fill="none" stroke="midnightblue" d="M2154.85,-115.015C2060.06,-104.438 1864.35,-82.6031 1773.2,-72.4333"/>
<polygon fill="midnightblue" stroke="midnightblue" points="1773.46,-68.9412 1763.14,-71.3107 1772.69,-75.8981 1773.46,-68.9412"/>
</g>
<!-- Node37&#45;&gt;Node8 -->
<g id="edge72" class="edge"><title>Node37&#45;&gt;Node8</title>
<path fill="none" stroke="midnightblue" d="M1757.68,-168.368C1751.84,-150.537 1738.34,-109.295 1730.48,-85.2717"/>
<polygon fill="midnightblue" stroke="midnightblue" points="1733.75,-84.0067 1727.31,-75.5914 1727.1,-86.1841 1733.75,-84.0067"/>
</g>
<!-- Node37&#45;&gt;Node34 -->
<g id="edge71" class="edge"><title>Node37&#45;&gt;Node34</title>
<path fill="none" stroke="midnightblue" d="M1724.27,-168.5C1688.96,-160.147 1633.51,-146.847 1576.53,-132.216"/>
<polygon fill="midnightblue" stroke="midnightblue" points="1577.19,-128.77 1566.63,-129.664 1575.44,-135.549 1577.19,-128.77"/>
</g>
<!-- Node38 -->
<g id="node38" class="node"><title>Node38</title>
<g id="a_node38"><a xlink:href="_elapsed_time_8h.html" target="_top" xlink:title=" ">
<polygon fill="white" stroke="black" points="1584.5,-112.5 1584.5,-131.5 1720.5,-131.5 1720.5,-112.5 1584.5,-112.5"/>
<text text-anchor="middle" x="1652.5" y="-119.5" font-family="Helvetica,sans-Serif" font-size="10.00">Cpl/System/ElapsedTime.h</text>
</a>
</g>
</g>
<!-- Node37&#45;&gt;Node38 -->
<g id="edge73" class="edge"><title>Node37&#45;&gt;Node38</title>
<path fill="none" stroke="midnightblue" d="M1743.15,-168.324C1725.83,-159.664 1698.98,-146.242 1679,-136.249"/>
<polygon fill="midnightblue" stroke="midnightblue" points="1680.32,-132.996 1669.81,-131.655 1677.19,-139.257 1680.32,-132.996"/>
</g>
<!-- Node38&#45;&gt;Node12 -->
<g id="edge74" class="edge"><title>Node38&#45;&gt;Node12</title>
<path fill="none" stroke="midnightblue" d="M1618.57,-112.46C1537.22,-91.9834 1331.76,-40.2653 1249.92,-19.6636"/>
<polygon fill="midnightblue" stroke="midnightblue" points="1250.67,-16.2428 1240.11,-17.1958 1248.96,-23.031 1250.67,-16.2428"/>
</g>
<!-- Node39 -->
<g id="node39" class="node"><title>Node39</title>
<g id="a_node39"><a xlink:title=" ">
<polygon fill="white" stroke="#bfbfbf" points="1607.5,-56.5 1607.5,-75.5 1667.5,-75.5 1667.5,-56.5 1607.5,-56.5"/>
<text text-anchor="middle" x="1637.5" y="-63.5" font-family="Helvetica,sans-Serif" font-size="10.00">memory.h</text>
</a>
</g>
</g>
<!-- Node38&#45;&gt;Node39 -->
<g id="edge75" class="edge"><title>Node38&#45;&gt;Node39</title>
<path fill="none" stroke="midnightblue" d="M1650.02,-112.083C1648.01,-104.849 1645.11,-94.4087 1642.61,-85.3968"/>
<polygon fill="midnightblue" stroke="midnightblue" points="1645.98,-84.4495 1639.93,-75.7511 1639.24,-86.323 1645.98,-84.4495"/>
</g>
<!-- Node40&#45;&gt;Node7 -->
<g id="edge77" class="edge"><title>Node40&#45;&gt;Node7</title>
<path fill="none" stroke="midnightblue" d="M1696.51,-224.444C1731.23,-215.162 1786.79,-200.309 1824.88,-190.127"/>
<polygon fill="midnightblue" stroke="midnightblue" points="1825.89,-193.48 1834.64,-187.516 1824.08,-186.718 1825.89,-193.48"/>
</g>
<!-- Node40&#45;&gt;Node34 -->
<g id="edge79" class="edge"><title>Node40&#45;&gt;Node34</title>
<path fill="none" stroke="midnightblue" d="M1661.59,-224.403C1656.65,-210.907 1645.48,-184.584 1628.5,-168 1613.79,-153.631 1593.56,-142.735 1576.41,-135.266"/>
<polygon fill="midnightblue" stroke="midnightblue" points="1577.32,-131.853 1566.74,-131.264 1574.64,-138.322 1577.32,-131.853"/>
</g>
<!-- Node40&#45;&gt;Node38 -->
<g id="edge78" class="edge"><title>Node40&#45;&gt;Node38</title>
<path fill="none" stroke="midnightblue" d="M1665.78,-224.108C1667.37,-211.532 1669.52,-187.868 1666.5,-168 1665.13,-159.001 1662.31,-149.325 1659.55,-141.26"/>
<polygon fill="midnightblue" stroke="midnightblue" points="1662.81,-139.976 1656.1,-131.778 1656.23,-142.372 1662.81,-139.976"/>
</g>
<!-- Node41&#45;&gt;Node7 -->
<g id="edge85" class="edge"><title>Node41&#45;&gt;Node7</title>
<path fill="none" stroke="midnightblue" d="M2008.9,-336.397C1998.46,-311.778 1967.86,-241.685 1950.5,-224 1936.55,-209.79 1917.14,-198.994 1900.5,-191.543"/>
<polygon fill="midnightblue" stroke="midnightblue" points="1901.65,-188.23 1891.08,-187.542 1898.92,-194.673 1901.65,-188.23"/>
</g>
<!-- Node42 -->
<g id="node42" class="node"><title>Node42</title>
<g id="a_node42"><a xlink:href="_f_string___8h.html" target="_top" xlink:title=" ">
<polygon fill="white" stroke="black" points="2003,-280.5 2003,-299.5 2104,-299.5 2104,-280.5 2003,-280.5"/>
<text text-anchor="middle" x="2053.5" y="-287.5" font-family="Helvetica,sans-Serif" font-size="10.00">Cpl/Text/FString_.h</text>
</a>
</g>
</g>
<!-- Node41&#45;&gt;Node42 -->
<g id="edge81" class="edge"><title>Node41&#45;&gt;Node42</title>
<path fill="none" stroke="midnightblue" d="M2019.27,-336.083C2025.06,-328.455 2033.56,-317.264 2040.64,-307.941"/>
<polygon fill="midnightblue" stroke="midnightblue" points="2043.6,-309.832 2046.86,-299.751 2038.02,-305.599 2043.6,-309.832"/>
</g>
<!-- Node42&#45;&gt;Node5 -->
<g id="edge82" class="edge"><title>Node42&#45;&gt;Node5</title>
<path fill="none" stroke="midnightblue" d="M2067.64,-280.339C2079.61,-272.312 2096.4,-259.32 2106.5,-244 2123.13,-218.762 2126.5,-209.225 2126.5,-179 2126.5,-179 2126.5,-179 2126.5,-121 2126.5,-58.8478 1924.52,-27.7825 1826.12,-16.3368"/>
<polygon fill="midnightblue" stroke="midnightblue" points="1826.41,-12.847 1816.08,-15.1948 1825.62,-19.8022 1826.41,-12.847"/>
</g>
<!-- Node43 -->
<g id="node43" class="node"><title>Node43</title>
<g id="a_node43"><a xlink:href="_text_2_string___8h.html" target="_top" xlink:title=" ">
<polygon fill="white" stroke="black" points="2003,-224.5 2003,-243.5 2098,-243.5 2098,-224.5 2003,-224.5"/>
<text text-anchor="middle" x="2050.5" y="-231.5" font-family="Helvetica,sans-Serif" font-size="10.00">Cpl/Text/String_.h</text>
</a>
</g>
</g>
<!-- Node42&#45;&gt;Node43 -->
<g id="edge83" class="edge"><title>Node42&#45;&gt;Node43</title>
<path fill="none" stroke="midnightblue" d="M2053,-280.083C2052.61,-273.006 2052.05,-262.861 2051.55,-253.986"/>
<polygon fill="midnightblue" stroke="midnightblue" points="2055.04,-253.542 2050.99,-243.751 2048.05,-253.93 2055.04,-253.542"/>
</g>
<!-- Node43&#45;&gt;Node7 -->
<g id="edge84" class="edge"><title>Node43&#45;&gt;Node7</title>
<path fill="none" stroke="midnightblue" d="M2021.34,-224.444C1989.99,-215.241 1939.97,-200.562 1905.3,-190.388"/>
<polygon fill="midnightblue" stroke="midnightblue" points="1906.1,-186.974 1895.52,-187.516 1904.13,-193.691 1906.1,-186.974"/>
</g>
</g>
</svg>
