<?xml version="1.0" encoding="UTF-8" standalone="no"?>
<!DOCTYPE svg PUBLIC "-//W3C//DTD SVG 1.1//EN"
 "http://www.w3.org/Graphics/SVG/1.1/DTD/svg11.dtd">
<!-- Generated by graphviz version 2.38.0 (20140413.2041)
 -->
<!-- Title: Cpl/Dm/Mp/Uint32.h Pages: 1 -->
<svg width="727pt" height="229pt"
 viewBox="0.00 0.00 727.00 229.00" xmlns="http://www.w3.org/2000/svg" xmlns:xlink="http://www.w3.org/1999/xlink">
<g id="graph0" class="graph" transform="scale(1 1) rotate(0) translate(4 225)">
<title>Cpl/Dm/Mp/Uint32.h</title>
<polygon fill="white" stroke="none" points="-4,4 -4,-225 723,-225 723,4 -4,4"/>
<!-- Node1 -->
<g id="node1" class="node"><title>Node1</title>
<g id="a_node1"><a xlink:title=" ">
<polygon fill="#bfbfbf" stroke="black" points="181.5,-201.5 181.5,-220.5 285.5,-220.5 285.5,-201.5 181.5,-201.5"/>
<text text-anchor="middle" x="233.5" y="-208.5" font-family="Helvetica,sans-Serif" font-size="10.00">Cpl/Dm/Mp/Uint32.h</text>
</a>
</g>
</g>
<!-- Node2 -->
<g id="node2" class="node"><title>Node2</title>
<g id="a_node2"><a xlink:href="_ring_buffer_m_p_8h.html" target="_top" xlink:title=" ">
<polygon fill="white" stroke="black" points="0,-140 0,-159 147,-159 147,-140 0,-140"/>
<text text-anchor="middle" x="73.5" y="-147" font-family="Helvetica,sans-Serif" font-size="10.00">Cpl/Container/RingBufferMP.h</text>
</a>
</g>
</g>
<!-- Node1&#45;&gt;Node2 -->
<g id="edge1" class="edge"><title>Node1&#45;&gt;Node2</title>
<path fill="none" stroke="midnightblue" d="M201.051,-197.933C169.953,-186.368 123.808,-169.208 96.3816,-159.009"/>
<polygon fill="midnightblue" stroke="midnightblue" points="199.983,-201.27 210.576,-201.475 202.423,-194.709 199.983,-201.27"/>
</g>
<!-- Node4 -->
<g id="node4" class="node"><title>Node4</title>
<g id="a_node4"><a xlink:href="_air_filter_monitor_8h.html" target="_top" xlink:title=" ">
<polygon fill="white" stroke="black" points="167.5,-134.5 167.5,-164.5 299.5,-164.5 299.5,-134.5 167.5,-134.5"/>
<text text-anchor="start" x="175.5" y="-152.5" font-family="Helvetica,sans-Serif" font-size="10.00">Storm/Component/AirFilter</text>
<text text-anchor="middle" x="233.5" y="-141.5" font-family="Helvetica,sans-Serif" font-size="10.00">Monitor.h</text>
</a>
</g>
</g>
<!-- Node1&#45;&gt;Node4 -->
<g id="edge3" class="edge"><title>Node1&#45;&gt;Node4</title>
<path fill="none" stroke="midnightblue" d="M233.5,-191.235C233.5,-182.586 233.5,-172.497 233.5,-164.523"/>
<polygon fill="midnightblue" stroke="midnightblue" points="230,-191.475 233.5,-201.475 237,-191.475 230,-191.475"/>
</g>
<!-- Node6 -->
<g id="node6" class="node"><title>Node6</title>
<g id="a_node6"><a xlink:href="_model_points_8h.html" target="_top" xlink:title="This file defines all of the Model Points for the Thermostat Application.">
<polygon fill="white" stroke="black" points="380,-140 380,-159 541,-159 541,-140 380,-140"/>
<text text-anchor="middle" x="460.5" y="-147" font-family="Helvetica,sans-Serif" font-size="10.00">Storm/Thermostat/ModelPoints.h</text>
</a>
</g>
</g>
<!-- Node1&#45;&gt;Node6 -->
<g id="edge5" class="edge"><title>Node1&#45;&gt;Node6</title>
<path fill="none" stroke="midnightblue" d="M275.865,-198.896C319.952,-187.34 388.031,-169.495 428.037,-159.009"/>
<polygon fill="midnightblue" stroke="midnightblue" points="274.809,-195.554 266.024,-201.475 276.584,-202.325 274.809,-195.554"/>
</g>
<!-- Node3 -->
<g id="node3" class="node"><title>Node3</title>
<g id="a_node3"><a xlink:href="_indexed_entry_server_8h.html" target="_top" xlink:title=" ">
<polygon fill="white" stroke="black" points="2,-67.5 2,-97.5 141,-97.5 141,-67.5 2,-67.5"/>
<text text-anchor="start" x="10" y="-85.5" font-family="Helvetica,sans-Serif" font-size="10.00">Cpl/Persistent/IndexedEntry</text>
<text text-anchor="middle" x="71.5" y="-74.5" font-family="Helvetica,sans-Serif" font-size="10.00">Server.h</text>
</a>
</g>
</g>
<!-- Node2&#45;&gt;Node3 -->
<g id="edge2" class="edge"><title>Node2&#45;&gt;Node3</title>
<path fill="none" stroke="midnightblue" d="M72.9126,-129.411C72.5991,-119.222 72.22,-106.901 71.9335,-97.589"/>
<polygon fill="midnightblue" stroke="midnightblue" points="69.4243,-129.846 73.2303,-139.734 76.421,-129.631 69.4243,-129.846"/>
</g>
<!-- Node5 -->
<g id="node5" class="node"><title>Node5</title>
<g id="a_node5"><a xlink:href="_algorithm_8h.html" target="_top" xlink:title=" ">
<polygon fill="white" stroke="black" points="159.5,-73 159.5,-92 307.5,-92 307.5,-73 159.5,-73"/>
<text text-anchor="middle" x="233.5" y="-80" font-family="Helvetica,sans-Serif" font-size="10.00">Storm/Thermostat/Algorithm.h</text>
</a>
</g>
</g>
<!-- Node4&#45;&gt;Node5 -->
<g id="edge4" class="edge"><title>Node4&#45;&gt;Node5</title>
<path fill="none" stroke="midnightblue" d="M233.5,-124.25C233.5,-113.017 233.5,-100.377 233.5,-92.1945"/>
<polygon fill="midnightblue" stroke="midnightblue" points="230,-124.396 233.5,-134.396 237,-124.396 230,-124.396"/>
</g>
<!-- Node7 -->
<g id="node7" class="node"><title>Node7</title>
<g id="a_node7"><a xlink:href="_installer_record_8h_source.html" target="_top" xlink:title=" ">
<polygon fill="white" stroke="black" points="326,-67.5 326,-97.5 445,-97.5 445,-67.5 326,-67.5"/>
<text text-anchor="start" x="334" y="-85.5" font-family="Helvetica,sans-Serif" font-size="10.00">Storm/Thermostat/Main</text>
<text text-anchor="middle" x="385.5" y="-74.5" font-family="Helvetica,sans-Serif" font-size="10.00">/InstallerRecord.h</text>
</a>
</g>
</g>
<!-- Node6&#45;&gt;Node7 -->
<g id="edge6" class="edge"><title>Node6&#45;&gt;Node7</title>
<path fill="none" stroke="midnightblue" d="M442.532,-132.928C430.129,-122.179 413.772,-108.002 401.757,-97.589"/>
<polygon fill="midnightblue" stroke="midnightblue" points="440.536,-135.829 450.385,-139.734 445.121,-130.54 440.536,-135.829"/>
</g>
<!-- Node9 -->
<g id="node9" class="node"><title>Node9</title>
<g id="a_node9"><a xlink:href="_run_time_record_8h_source.html" target="_top" xlink:title=" ">
<polygon fill="white" stroke="black" points="463,-67.5 463,-97.5 582,-97.5 582,-67.5 463,-67.5"/>
<text text-anchor="start" x="471" y="-85.5" font-family="Helvetica,sans-Serif" font-size="10.00">Storm/Thermostat/Main</text>
<text text-anchor="middle" x="522.5" y="-74.5" font-family="Helvetica,sans-Serif" font-size="10.00">/RunTimeRecord.h</text>
</a>
</g>
</g>
<!-- Node6&#45;&gt;Node9 -->
<g id="edge8" class="edge"><title>Node6&#45;&gt;Node9</title>
<path fill="none" stroke="midnightblue" d="M475.948,-132.304C486.125,-121.635 499.32,-107.802 509.061,-97.589"/>
<polygon fill="midnightblue" stroke="midnightblue" points="473.231,-130.082 468.862,-139.734 478.296,-134.913 473.231,-130.082"/>
</g>
<!-- Node10 -->
<g id="node10" class="node"><title>Node10</title>
<g id="a_node10"><a xlink:href="_user_record_8h_source.html" target="_top" xlink:title=" ">
<polygon fill="white" stroke="black" points="600,-67.5 600,-97.5 719,-97.5 719,-67.5 600,-67.5"/>
<text text-anchor="start" x="608" y="-85.5" font-family="Helvetica,sans-Serif" font-size="10.00">Storm/Thermostat/Main</text>
<text text-anchor="middle" x="659.5" y="-74.5" font-family="Helvetica,sans-Serif" font-size="10.00">/UserRecord.h</text>
</a>
</g>
</g>
<!-- Node6&#45;&gt;Node10 -->
<g id="edge10" class="edge"><title>Node6&#45;&gt;Node10</title>
<path fill="none" stroke="midnightblue" d="M496.832,-136.633C530.574,-125.612 580.839,-109.193 616.553,-97.5281"/>
<polygon fill="midnightblue" stroke="midnightblue" points="495.345,-133.437 486.926,-139.869 497.518,-140.091 495.345,-133.437"/>
</g>
<!-- Node8 -->
<g id="node8" class="node"><title>Node8</title>
<g id="a_node8"><a xlink:href="statics___8h.html" target="_top" xlink:title="This file defines/creates persistent records and record server for the Thermostat simulation.">
<polygon fill="white" stroke="black" points="463,-0.5 463,-30.5 582,-30.5 582,-0.5 463,-0.5"/>
<text text-anchor="start" x="471" y="-18.5" font-family="Helvetica,sans-Serif" font-size="10.00">Storm/Thermostat/Main</text>
<text text-anchor="middle" x="522.5" y="-7.5" font-family="Helvetica,sans-Serif" font-size="10.00">/_simulation/statics_.h</text>
</a>
</g>
</g>
<!-- Node7&#45;&gt;Node8 -->
<g id="edge7" class="edge"><title>Node7&#45;&gt;Node8</title>
<path fill="none" stroke="midnightblue" d="M424.509,-62.9921C446.224,-52.6892 472.827,-40.0677 492.831,-30.5765"/>
<polygon fill="midnightblue" stroke="midnightblue" points="422.761,-59.9472 415.227,-67.396 425.762,-66.2715 422.761,-59.9472"/>
</g>
<!-- Node9&#45;&gt;Node8 -->
<g id="edge9" class="edge"><title>Node9&#45;&gt;Node8</title>
<path fill="none" stroke="midnightblue" d="M522.5,-57.1081C522.5,-48.1539 522.5,-38.3227 522.5,-30.5765"/>
<polygon fill="midnightblue" stroke="midnightblue" points="519,-57.3959 522.5,-67.396 526,-57.396 519,-57.3959"/>
</g>
<!-- Node10&#45;&gt;Node8 -->
<g id="edge11" class="edge"><title>Node10&#45;&gt;Node8</title>
<path fill="none" stroke="midnightblue" d="M620.491,-62.9921C598.776,-52.6892 572.173,-40.0677 552.169,-30.5765"/>
<polygon fill="midnightblue" stroke="midnightblue" points="619.238,-66.2715 629.773,-67.396 622.239,-59.9472 619.238,-66.2715"/>
</g>
</g>
</svg>
