<?xml version="1.0" encoding="UTF-8" standalone="no"?>
<!DOCTYPE svg PUBLIC "-//W3C//DTD SVG 1.1//EN"
 "http://www.w3.org/Graphics/SVG/1.1/DTD/svg11.dtd">
<!-- Generated by graphviz version 10.0.1 (20240210.2158)
 -->
<!-- Title: Cpl::Itc::CloseApi Pages: 1 -->
<svg width="718pt" height="231pt"
 viewBox="0.00 0.00 718.25 230.93" xmlns="http://www.w3.org/2000/svg" xmlns:xlink="http://www.w3.org/1999/xlink">
<g id="graph0" class="graph" transform="scale(1 1) rotate(0) translate(4 226.93)">
<title>Cpl::Itc::CloseApi</title>
<!-- Node1 -->
<g id="Node000001" class="node">
<title>Node1</title>
<g id="a_Node000001"><a xlink:title="This abstract class defines an close interface.">
<polygon fill="#999999" stroke="#666666" points="91.75,-145 0,-145 0,-125 91.75,-125 91.75,-145"/>
<text text-anchor="middle" x="45.88" y="-131.5" font-family="Helvetica,sans-Serif" font-size="10.00">Cpl::Itc::CloseApi</text>
</a>
</g>
</g>
<!-- Node2 -->
<g id="Node000002" class="node">
<title>Node2</title>
<g id="a_Node000002"><a xlink:href="class_cpl_1_1_itc_1_1_close_sync.html" target="_top" xlink:title="This partially concrete class implements the synchronous ITC close call for the CloseApi.">
<polygon fill="white" stroke="#666666" points="228.75,-145 128.75,-145 128.75,-125 228.75,-125 228.75,-145"/>
<text text-anchor="middle" x="178.75" y="-131.5" font-family="Helvetica,sans-Serif" font-size="10.00">Cpl::Itc::CloseSync</text>
</a>
</g>
</g>
<!-- Node1&#45;&gt;Node2 -->
<g id="edge1_Node000001_Node000002" class="edge">
<title>Node1&#45;&gt;Node2</title>
<g id="a_edge1_Node000001_Node000002"><a xlink:title=" ">
<path fill="none" stroke="#63b8ff" d="M103.24,-135C111.68,-135 120.32,-135 128.6,-135"/>
<polygon fill="#63b8ff" stroke="#63b8ff" points="103.43,-131.5 93.43,-135 103.43,-138.5 103.43,-131.5"/>
</a>
</g>
</g>
<!-- Node3 -->
<g id="Node000003" class="node">
<title>Node3</title>
<g id="a_Node000003"><a xlink:href="class_cpl_1_1_persistent_1_1_indexed_entry_server.html" target="_top" xlink:title=" ">
<polygon fill="white" stroke="#666666" points="710.25,-186 581,-186 581,-142 710.25,-142 710.25,-186"/>
<text text-anchor="start" x="589" y="-172.5" font-family="Helvetica,sans-Serif" font-size="10.00">Cpl::Persistent::Indexed</text>
<text text-anchor="start" x="589" y="-160.5" font-family="Helvetica,sans-Serif" font-size="10.00">EntryServer&lt; Cpl::Logging</text>
<text text-anchor="middle" x="645.62" y="-148.5" font-family="Helvetica,sans-Serif" font-size="10.00">::EntryData_T &gt;</text>
</a>
</g>
</g>
<!-- Node2&#45;&gt;Node3 -->
<g id="edge2_Node000002_Node000003" class="edge">
<title>Node2&#45;&gt;Node3</title>
<g id="a_edge2_Node000002_Node000003"><a xlink:title=" ">
<path fill="none" stroke="#63b8ff" d="M195.45,-153.59C211.2,-170.68 237.17,-194.84 265.75,-205 373.28,-243.23 507.92,-211.32 584.32,-186.44"/>
<polygon fill="#63b8ff" stroke="#63b8ff" points="198.45,-151.7 189.19,-146.54 193.21,-156.35 198.45,-151.7"/>
</a>
</g>
</g>
<!-- Node4 -->
<g id="Node000004" class="node">
<title>Node4</title>
<g id="a_Node000004"><a xlink:href="class_cpl_1_1_logging_1_1_log_sink.html" target="_top" xlink:title="This class is responsible for consuming the application&#39;s Log buffer and &#39;dispatching&#39; log entries.">
<polygon fill="white" stroke="#666666" points="393.5,-196 282.25,-196 282.25,-176 393.5,-176 393.5,-196"/>
<text text-anchor="middle" x="337.88" y="-182.5" font-family="Helvetica,sans-Serif" font-size="10.00">Cpl::Logging::LogSink</text>
</a>
</g>
</g>
<!-- Node2&#45;&gt;Node4 -->
<g id="edge3_Node000002_Node000004" class="edge">
<title>Node2&#45;&gt;Node4</title>
<g id="a_edge3_Node000002_Node000004"><a xlink:title=" ">
<path fill="none" stroke="#63b8ff" d="M216.38,-149.51C231.55,-155.28 249.38,-161.78 265.75,-167 275.13,-169.99 285.3,-172.9 294.94,-175.51"/>
<polygon fill="#63b8ff" stroke="#63b8ff" points="217.87,-146.33 207.28,-146 215.36,-152.86 217.87,-146.33"/>
</a>
</g>
</g>
<!-- Node5 -->
<g id="Node000005" class="node">
<title>Node5</title>
<g id="a_Node000005"><a xlink:href="class_cpl_1_1_m_app_1_1_manager.html" target="_top" xlink:title="This concrete class implements the MApp Manager.">
<polygon fill="white" stroke="#666666" points="390.5,-158 285.25,-158 285.25,-138 390.5,-138 390.5,-158"/>
<text text-anchor="middle" x="337.88" y="-144.5" font-family="Helvetica,sans-Serif" font-size="10.00">Cpl::MApp::Manager</text>
</a>
</g>
</g>
<!-- Node2&#45;&gt;Node5 -->
<g id="edge4_Node000002_Node000005" class="edge">
<title>Node2&#45;&gt;Node5</title>
<g id="a_edge4_Node000002_Node000005"><a xlink:title=" ">
<path fill="none" stroke="#63b8ff" d="M240.09,-139.99C254.82,-141.21 270.46,-142.51 284.78,-143.69"/>
<polygon fill="#63b8ff" stroke="#63b8ff" points="240.8,-136.54 230.54,-139.2 240.22,-143.52 240.8,-136.54"/>
</a>
</g>
</g>
<!-- Node6 -->
<g id="Node000006" class="node">
<title>Node6</title>
<g id="a_Node000006"><a xlink:href="class_cpl_1_1_persistent_1_1_indexed_entry_server.html" target="_top" xlink:title="This concrete template class implements the ITC messaging (and Model Point monitoring) needed to prov...">
<polygon fill="white" stroke="#666666" points="398,-120 277.75,-120 277.75,-88 398,-88 398,-120"/>
<text text-anchor="start" x="285.75" y="-106.5" font-family="Helvetica,sans-Serif" font-size="10.00">Cpl::Persistent::Indexed</text>
<text text-anchor="middle" x="337.88" y="-94.5" font-family="Helvetica,sans-Serif" font-size="10.00">EntryServer&lt; ENTRY &gt;</text>
</a>
</g>
</g>
<!-- Node2&#45;&gt;Node6 -->
<g id="edge5_Node000002_Node000006" class="edge">
<title>Node2&#45;&gt;Node6</title>
<g id="a_edge5_Node000002_Node000006"><a xlink:title=" ">
<path fill="none" stroke="#63b8ff" d="M240.04,-123.11C252.26,-120.7 265.09,-118.16 277.29,-115.76"/>
<polygon fill="#63b8ff" stroke="#63b8ff" points="239.65,-119.61 230.52,-124.98 241.01,-126.48 239.65,-119.61"/>
</a>
</g>
</g>
<!-- Node7 -->
<g id="Node000007" class="node">
<title>Node7</title>
<g id="a_Node000007"><a xlink:href="class_cpl_1_1_persistent_1_1_record_server.html" target="_top" xlink:title="This concrete class provides an Event driven Runnable object for executing the read/write operation t...">
<polygon fill="white" stroke="#666666" points="410,-70 265.75,-70 265.75,-50 410,-50 410,-70"/>
<text text-anchor="middle" x="337.88" y="-56.5" font-family="Helvetica,sans-Serif" font-size="10.00">Cpl::Persistent::RecordServer</text>
</a>
</g>
</g>
<!-- Node2&#45;&gt;Node7 -->
<g id="edge7_Node000002_Node000007" class="edge">
<title>Node2&#45;&gt;Node7</title>
<g id="a_edge7_Node000002_Node000007"><a xlink:title=" ">
<path fill="none" stroke="#63b8ff" d="M201.64,-117.95C218.39,-105.61 242.49,-89.36 265.75,-79 273.22,-75.67 281.4,-72.82 289.47,-70.41"/>
<polygon fill="#63b8ff" stroke="#63b8ff" points="199.79,-114.96 193.9,-123.77 204,-120.55 199.79,-114.96"/>
</a>
</g>
</g>
<!-- Node8 -->
<g id="Node000008" class="node">
<title>Node8</title>
<g id="a_Node000008"><a xlink:href="class_storm_1_1_thermostat_1_1_algorithm.html" target="_top" xlink:title="This concrete class is a &quot;maker&quot; pattern assembles the objects needed for the thermostat&#39;s control al...">
<polygon fill="white" stroke="#666666" points="389.38,-32 286.38,-32 286.38,0 389.38,0 389.38,-32"/>
<text text-anchor="start" x="294.38" y="-18.5" font-family="Helvetica,sans-Serif" font-size="10.00">Storm::Thermostat::</text>
<text text-anchor="middle" x="337.88" y="-6.5" font-family="Helvetica,sans-Serif" font-size="10.00">Algorithm</text>
</a>
</g>
</g>
<!-- Node2&#45;&gt;Node8 -->
<g id="edge8_Node000002_Node000008" class="edge">
<title>Node2&#45;&gt;Node8</title>
<g id="a_edge8_Node000002_Node000008"><a xlink:title=" ">
<path fill="none" stroke="#63b8ff" d="M193.08,-115.44C208.38,-94.35 235.3,-61.12 265.75,-41 271.97,-36.89 278.95,-33.37 286.04,-30.38"/>
<polygon fill="#63b8ff" stroke="#63b8ff" points="190.32,-113.28 187.42,-123.47 196.04,-117.31 190.32,-113.28"/>
</a>
</g>
</g>
<!-- Node6&#45;&gt;Node3 -->
<g id="edge6_Node000006_Node000003" class="edge">
<title>Node6&#45;&gt;Node3</title>
<g id="a_edge6_Node000006_Node000003"><a xlink:title=" ">
<path fill="none" stroke="orange" stroke-dasharray="5,2" d="M409.26,-117.81C460.96,-127.96 530.63,-141.63 580.73,-151.46"/>
<polygon fill="orange" stroke="orange" points="410.16,-114.42 399.67,-115.93 408.81,-121.29 410.16,-114.42"/>
</a>
</g>
<text text-anchor="middle" x="495.5" y="-149.5" font-family="Helvetica,sans-Serif" font-size="10.00" fill="grey"> &lt; Cpl::Logging::EntryData_T &gt;</text>
</g>
</g>
</svg>
