<?xml version="1.0" encoding="UTF-8" standalone="no"?>
<!DOCTYPE svg PUBLIC "-//W3C//DTD SVG 1.1//EN"
 "http://www.w3.org/Graphics/SVG/1.1/DTD/svg11.dtd">
<!-- Generated by graphviz version 10.0.1 (20240210.2158)
 -->
<!-- Title: Cpl::Io::LineReader Pages: 1 -->
<svg width="121pt" height="140pt"
 viewBox="0.00 0.00 120.75 140.00" xmlns="http://www.w3.org/2000/svg" xmlns:xlink="http://www.w3.org/1999/xlink">
<g id="graph0" class="graph" transform="scale(1 1) rotate(0) translate(4 136)">
<title>Cpl::Io::LineReader</title>
<!-- Node1 -->
<g id="Node000001" class="node">
<title>Node1</title>
<g id="a_Node000001"><a xlink:title="This concrete class implements a Line Reader stream using a previously opened Input stream.">
<polygon fill="#999999" stroke="#666666" points="105.62,-20 7.12,-20 7.12,0 105.62,0 105.62,-20"/>
<text text-anchor="middle" x="56.38" y="-6.5" font-family="Helvetica,sans-Serif" font-size="10.00">Cpl::Io::LineReader</text>
</a>
</g>
</g>
<!-- Node2 -->
<g id="Node000002" class="node">
<title>Node2</title>
<g id="a_Node000002"><a xlink:href="class_cpl_1_1_io_1_1_line_reader_api.html" target="_top" xlink:title="This abstract class defines a interface for a stream line reader.">
<polygon fill="white" stroke="#666666" points="112.75,-76 0,-76 0,-56 112.75,-56 112.75,-76"/>
<text text-anchor="middle" x="56.38" y="-62.5" font-family="Helvetica,sans-Serif" font-size="10.00">Cpl::Io::LineReaderApi</text>
</a>
</g>
</g>
<!-- Node2&#45;&gt;Node1 -->
<g id="edge1_Node000001_Node000002" class="edge">
<title>Node2&#45;&gt;Node1</title>
<g id="a_edge1_Node000001_Node000002"><a xlink:title=" ">
<path fill="none" stroke="#63b8ff" d="M56.38,-44.13C56.38,-35.9 56.38,-26.85 56.38,-20.3"/>
<polygon fill="#63b8ff" stroke="#63b8ff" points="52.88,-44.08 56.38,-54.08 59.88,-44.08 52.88,-44.08"/>
</a>
</g>
</g>
<!-- Node3 -->
<g id="Node000003" class="node">
<title>Node3</title>
<g id="a_Node000003"><a xlink:href="class_cpl_1_1_container_1_1_item.html" target="_top" xlink:title="This class is used by the Container classes to implement a various types of singly linked containers.">
<polygon fill="white" stroke="#666666" points="107.5,-132 5.25,-132 5.25,-112 107.5,-112 107.5,-132"/>
<text text-anchor="middle" x="56.38" y="-118.5" font-family="Helvetica,sans-Serif" font-size="10.00">Cpl::Container::Item</text>
</a>
</g>
</g>
<!-- Node3&#45;&gt;Node2 -->
<g id="edge2_Node000002_Node000003" class="edge">
<title>Node3&#45;&gt;Node2</title>
<g id="a_edge2_Node000002_Node000003"><a xlink:title=" ">
<path fill="none" stroke="#63b8ff" d="M56.38,-100.13C56.38,-91.9 56.38,-82.85 56.38,-76.3"/>
<polygon fill="#63b8ff" stroke="#63b8ff" points="52.88,-100.08 56.38,-110.08 59.88,-100.08 52.88,-100.08"/>
</a>
</g>
</g>
</g>
</svg>
