<?xml version="1.0" encoding="UTF-8" standalone="no"?>
<!DOCTYPE svg PUBLIC "-//W3C//DTD SVG 1.1//EN"
 "http://www.w3.org/Graphics/SVG/1.1/DTD/svg11.dtd">
<!-- Generated by graphviz version 2.38.0 (20140413.2041)
 -->
<!-- Title: Storm::Dm::MpEquipmentConfig Pages: 1 -->
<svg width="166pt" height="364pt"
 viewBox="0.00 0.00 166.00 364.00" xmlns="http://www.w3.org/2000/svg" xmlns:xlink="http://www.w3.org/1999/xlink">
<g id="graph0" class="graph" transform="scale(1 1) rotate(0) translate(4 360)">
<title>Storm::Dm::MpEquipmentConfig</title>
<polygon fill="white" stroke="none" points="-4,4 -4,-360 162,-360 162,4 -4,4"/>
<!-- Node1 -->
<g id="node1" class="node"><title>Node1</title>
<g id="a_node1"><a xlink:title="This class provides a concrete implementation for a Point who&#39;s data is the the Equipment Configurati...">
<polygon fill="#bfbfbf" stroke="black" points="0,-0.5 0,-19.5 158,-19.5 158,-0.5 0,-0.5"/>
<text text-anchor="middle" x="79" y="-7.5" font-family="Helvetica,sans-Serif" font-size="10.00">Storm::Dm::MpEquipmentConfig</text>
</a>
</g>
</g>
<!-- Node2 -->
<g id="node2" class="node"><title>Node2</title>
<g id="a_node2"><a xlink:href="class_cpl_1_1_dm_1_1_model_point_common__.html" target="_top" xlink:title="This concrete class provide common infrastructure for a Model Point.">
<polygon fill="white" stroke="black" points="3.5,-56.5 3.5,-75.5 154.5,-75.5 154.5,-56.5 3.5,-56.5"/>
<text text-anchor="middle" x="79" y="-63.5" font-family="Helvetica,sans-Serif" font-size="10.00">Cpl::Dm::ModelPointCommon_</text>
</a>
</g>
</g>
<!-- Node2&#45;&gt;Node1 -->
<g id="edge1" class="edge"><title>Node2&#45;&gt;Node1</title>
<path fill="none" stroke="midnightblue" d="M79,-45.8045C79,-36.9102 79,-26.7798 79,-19.7511"/>
<polygon fill="midnightblue" stroke="midnightblue" points="75.5001,-46.083 79,-56.083 82.5001,-46.083 75.5001,-46.083"/>
</g>
<!-- Node3 -->
<g id="node3" class="node"><title>Node3</title>
<g id="a_node3"><a xlink:href="class_cpl_1_1_dm_1_1_model_point.html" target="_top" xlink:title="This mostly abstract class defines the interface for a Model Point.">
<polygon fill="white" stroke="black" points="25.5,-112.5 25.5,-131.5 132.5,-131.5 132.5,-112.5 25.5,-112.5"/>
<text text-anchor="middle" x="79" y="-119.5" font-family="Helvetica,sans-Serif" font-size="10.00">Cpl::Dm::ModelPoint</text>
</a>
</g>
</g>
<!-- Node3&#45;&gt;Node2 -->
<g id="edge2" class="edge"><title>Node3&#45;&gt;Node2</title>
<path fill="none" stroke="midnightblue" d="M79,-101.805C79,-92.9102 79,-82.7798 79,-75.7511"/>
<polygon fill="midnightblue" stroke="midnightblue" points="75.5001,-102.083 79,-112.083 82.5001,-102.083 75.5001,-102.083"/>
</g>
<!-- Node4 -->
<g id="node4" class="node"><title>Node4</title>
<g id="a_node4"><a xlink:href="class_cpl_1_1_container_1_1_map_item.html" target="_top" xlink:title="This abstract class represents a item that can be contained in an Map (aka a sorted list implemented ...">
<polygon fill="white" stroke="black" points="18,-168.5 18,-187.5 140,-187.5 140,-168.5 18,-168.5"/>
<text text-anchor="middle" x="79" y="-175.5" font-family="Helvetica,sans-Serif" font-size="10.00">Cpl::Container::MapItem</text>
</a>
</g>
</g>
<!-- Node4&#45;&gt;Node3 -->
<g id="edge3" class="edge"><title>Node4&#45;&gt;Node3</title>
<path fill="none" stroke="midnightblue" d="M79,-157.805C79,-148.91 79,-138.78 79,-131.751"/>
<polygon fill="midnightblue" stroke="midnightblue" points="75.5001,-158.083 79,-168.083 82.5001,-158.083 75.5001,-158.083"/>
</g>
<!-- Node5 -->
<g id="node5" class="node"><title>Node5</title>
<g id="a_node5"><a xlink:href="class_cpl_1_1_container_1_1_dict_item.html" target="_top" xlink:title="This abstract class represents a item that can be contained in Dictionary.">
<polygon fill="white" stroke="black" points="18.5,-224.5 18.5,-243.5 139.5,-243.5 139.5,-224.5 18.5,-224.5"/>
<text text-anchor="middle" x="79" y="-231.5" font-family="Helvetica,sans-Serif" font-size="10.00">Cpl::Container::DictItem</text>
</a>
</g>
</g>
<!-- Node5&#45;&gt;Node4 -->
<g id="edge4" class="edge"><title>Node5&#45;&gt;Node4</title>
<path fill="none" stroke="midnightblue" d="M79,-213.805C79,-204.91 79,-194.78 79,-187.751"/>
<polygon fill="midnightblue" stroke="midnightblue" points="75.5001,-214.083 79,-224.083 82.5001,-214.083 75.5001,-214.083"/>
</g>
<!-- Node6 -->
<g id="node6" class="node"><title>Node6</title>
<g id="a_node6"><a xlink:href="class_cpl_1_1_container_1_1_extended_item.html" target="_top" xlink:title="This class is used by the Container classes to implement a various types of DOUBLY linked containers.">
<polygon fill="white" stroke="black" points="6.5,-280.5 6.5,-299.5 151.5,-299.5 151.5,-280.5 6.5,-280.5"/>
<text text-anchor="middle" x="79" y="-287.5" font-family="Helvetica,sans-Serif" font-size="10.00">Cpl::Container::ExtendedItem</text>
</a>
</g>
</g>
<!-- Node6&#45;&gt;Node5 -->
<g id="edge5" class="edge"><title>Node6&#45;&gt;Node5</title>
<path fill="none" stroke="midnightblue" d="M79,-269.805C79,-260.91 79,-250.78 79,-243.751"/>
<polygon fill="midnightblue" stroke="midnightblue" points="75.5001,-270.083 79,-280.083 82.5001,-270.083 75.5001,-270.083"/>
</g>
<!-- Node7 -->
<g id="node7" class="node"><title>Node7</title>
<g id="a_node7"><a xlink:href="class_cpl_1_1_container_1_1_item.html" target="_top" xlink:title="This class is used by the Container classes to implement a various types of singly linked containers.">
<polygon fill="white" stroke="black" points="27,-336.5 27,-355.5 131,-355.5 131,-336.5 27,-336.5"/>
<text text-anchor="middle" x="79" y="-343.5" font-family="Helvetica,sans-Serif" font-size="10.00">Cpl::Container::Item</text>
</a>
</g>
</g>
<!-- Node7&#45;&gt;Node6 -->
<g id="edge6" class="edge"><title>Node7&#45;&gt;Node6</title>
<path fill="none" stroke="midnightblue" d="M79,-325.805C79,-316.91 79,-306.78 79,-299.751"/>
<polygon fill="midnightblue" stroke="midnightblue" points="75.5001,-326.083 79,-336.083 82.5001,-326.083 75.5001,-326.083"/>
</g>
</g>
</svg>
