<?xml version="1.0" encoding="UTF-8" standalone="no"?>
<!DOCTYPE svg PUBLIC "-//W3C//DTD SVG 1.1//EN"
 "http://www.w3.org/Graphics/SVG/1.1/DTD/svg11.dtd">
<!-- Generated by graphviz version 10.0.1 (20240210.2158)
 -->
<!-- Title: Cpl::Dm::Mp::Numeric&lt; ELEMTYPE, MPTYPE &gt; Pages: 1 -->
<svg width="1501pt" height="609pt"
 viewBox="0.00 0.00 1500.75 609.49" xmlns="http://www.w3.org/2000/svg" xmlns:xlink="http://www.w3.org/1999/xlink">
<g id="graph0" class="graph" transform="scale(1 1) rotate(0) translate(4 605.49)">
<title>Cpl::Dm::Mp::Numeric&lt; ELEMTYPE, MPTYPE &gt;</title>
<!-- Node1 -->
<g id="Node000001" class="node">
<title>Node1</title>
<g id="a_Node000001"><a xlink:title="This template class provides a mostly concrete implementation for a Model Point who&#39;s data is a C num...">
<polygon fill="#999999" stroke="#666666" points="602.5,-302 469.5,-302 469.5,-270 602.5,-270 602.5,-302"/>
<text text-anchor="start" x="477.5" y="-288.5" font-family="Helvetica,sans-Serif" font-size="10.00">Cpl::Dm::Mp::Numeric</text>
<text text-anchor="middle" x="536" y="-276.5" font-family="Helvetica,sans-Serif" font-size="10.00">&lt; ELEMTYPE, MPTYPE &gt;</text>
</a>
</g>
</g>
<!-- Node5 -->
<g id="Node000005" class="node">
<title>Node5</title>
<g id="a_Node000005"><a xlink:href="class_cpl_1_1_dm_1_1_mp_1_1_bit_array__.html" target="_top" xlink:title=" ">
<polygon fill="white" stroke="#666666" points="1333.25,-550 1207.75,-550 1207.75,-518 1333.25,-518 1333.25,-550"/>
<text text-anchor="start" x="1215.75" y="-536.5" font-family="Helvetica,sans-Serif" font-size="10.00">Cpl::Dm::Mp::BitArray</text>
<text text-anchor="middle" x="1270.5" y="-524.5" font-family="Helvetica,sans-Serif" font-size="10.00">_&lt; uint16_t, BitArray16 &gt;</text>
</a>
</g>
</g>
<!-- Node1&#45;&gt;Node5 -->
<g id="edge4_Node000001_Node000005" class="edge">
<title>Node1&#45;&gt;Node5</title>
<g id="a_edge4_Node000001_Node000005"><a xlink:title=" ">
<path fill="none" stroke="#63b8ff" d="M537.67,-313.45C540.53,-363.76 554.51,-470.17 620.5,-520 802.63,-657.52 1102.71,-586.24 1220.18,-550.44"/>
<polygon fill="#63b8ff" stroke="#63b8ff" points="541.18,-313.55 537.23,-303.72 534.18,-313.87 541.18,-313.55"/>
</a>
</g>
</g>
<!-- Node7 -->
<g id="Node000007" class="node">
<title>Node7</title>
<g id="a_Node000007"><a xlink:href="class_cpl_1_1_dm_1_1_mp_1_1_pointer__.html" target="_top" xlink:title=" ">
<polygon fill="white" stroke="#666666" points="1324.25,-245 1216.75,-245 1216.75,-213 1324.25,-213 1324.25,-245"/>
<text text-anchor="start" x="1224.75" y="-231.5" font-family="Helvetica,sans-Serif" font-size="10.00">Cpl::Dm::Mp::Pointer</text>
<text text-anchor="middle" x="1270.5" y="-219.5" font-family="Helvetica,sans-Serif" font-size="10.00">_&lt; Void &gt;</text>
</a>
</g>
</g>
<!-- Node1&#45;&gt;Node7 -->
<g id="edge6_Node000001_Node000007" class="edge">
<title>Node1&#45;&gt;Node7</title>
<g id="a_edge6_Node000001_Node000007"><a xlink:title=" ">
<path fill="none" stroke="#63b8ff" d="M559.39,-261.54C575.07,-245.8 597.3,-226.1 620.5,-214 676.32,-184.89 695.29,-186.84 757.75,-179 893.05,-162.02 929.17,-168.28 1064.5,-185 1116.7,-191.45 1175.29,-204.64 1216.42,-214.9"/>
<polygon fill="#63b8ff" stroke="#63b8ff" points="556.88,-259.1 552.44,-268.72 561.91,-263.97 556.88,-259.1"/>
</a>
</g>
</g>
<!-- Node9 -->
<g id="Node000009" class="node">
<title>Node9</title>
<g id="a_Node000009"><a xlink:href="class_cpl_1_1_dm_1_1_mp_1_1_numeric.html" target="_top" xlink:title=" ">
<polygon fill="white" stroke="#666666" points="884,-470 763.75,-470 763.75,-438 884,-438 884,-470"/>
<text text-anchor="start" x="771.75" y="-456.5" font-family="Helvetica,sans-Serif" font-size="10.00">Cpl::Dm::Mp::Numeric</text>
<text text-anchor="middle" x="823.88" y="-444.5" font-family="Helvetica,sans-Serif" font-size="10.00">&lt; uint16_t, BitArray16 &gt;</text>
</a>
</g>
</g>
<!-- Node1&#45;&gt;Node9 -->
<g id="edge8_Node000001_Node000009" class="edge">
<title>Node1&#45;&gt;Node9</title>
<g id="a_edge8_Node000001_Node000009"><a xlink:title=" ">
<path fill="none" stroke="orange" stroke-dasharray="5,2" d="M548.07,-312.67C561.15,-340.81 585.65,-384.31 620.5,-408 662.81,-436.76 720.45,-447.77 763.39,-451.87"/>
<polygon fill="orange" stroke="orange" points="551.35,-311.44 544.08,-303.74 544.96,-314.3 551.35,-311.44"/>
</a>
</g>
<text text-anchor="middle" x="680.12" y="-450.5" font-family="Helvetica,sans-Serif" font-size="10.00" fill="grey"> &lt; uint16_t, BitArray16 &gt;</text>
</g>
<!-- Node10 -->
<g id="Node000010" class="node">
<title>Node10</title>
<g id="a_Node000010"><a xlink:href="class_cpl_1_1_dm_1_1_mp_1_1_numeric.html" target="_top" xlink:title=" ">
<polygon fill="white" stroke="#666666" points="890,-520 757.75,-520 757.75,-488 890,-488 890,-520"/>
<text text-anchor="start" x="765.75" y="-506.5" font-family="Helvetica,sans-Serif" font-size="10.00">Cpl::Dm::Mp::Numeric</text>
<text text-anchor="middle" x="823.88" y="-494.5" font-family="Helvetica,sans-Serif" font-size="10.00">&lt; WORDSIZE, MPTYPE &gt;</text>
</a>
</g>
</g>
<!-- Node1&#45;&gt;Node10 -->
<g id="edge9_Node000001_Node000010" class="edge">
<title>Node1&#45;&gt;Node10</title>
<g id="a_edge9_Node000001_Node000010"><a xlink:title=" ">
<path fill="none" stroke="orange" stroke-dasharray="5,2" d="M541.86,-313.51C550.4,-353.25 572.01,-426.08 620.5,-464 659.15,-494.22 714.39,-503.55 757.4,-505.7"/>
<polygon fill="orange" stroke="orange" points="545.31,-312.92 539.91,-303.8 538.45,-314.3 545.31,-312.92"/>
</a>
</g>
<text text-anchor="middle" x="680.12" y="-506.5" font-family="Helvetica,sans-Serif" font-size="10.00" fill="grey"> &lt; WORDSIZE, MPTYPE &gt;</text>
</g>
<!-- Node12 -->
<g id="Node000012" class="node">
<title>Node12</title>
<g id="a_Node000012"><a xlink:href="class_cpl_1_1_dm_1_1_mp_1_1_numeric.html" target="_top" xlink:title=" ">
<polygon fill="white" stroke="#666666" points="880.25,-370 767.5,-370 767.5,-338 880.25,-338 880.25,-370"/>
<text text-anchor="start" x="775.5" y="-356.5" font-family="Helvetica,sans-Serif" font-size="10.00">Cpl::Dm::Mp::Numeric</text>
<text text-anchor="middle" x="823.88" y="-344.5" font-family="Helvetica,sans-Serif" font-size="10.00">&lt; double, Double &gt;</text>
</a>
</g>
</g>
<!-- Node1&#45;&gt;Node12 -->
<g id="edge12_Node000001_Node000012" class="edge">
<title>Node1&#45;&gt;Node12</title>
<g id="a_edge12_Node000001_Node000012"><a xlink:title=" ">
<path fill="none" stroke="orange" stroke-dasharray="5,2" d="M591.15,-306.07C600.85,-309.3 610.92,-312.43 620.5,-315 669.57,-328.18 726.47,-338.73 767.42,-345.53"/>
<polygon fill="orange" stroke="orange" points="592.43,-302.81 581.83,-302.89 590.16,-309.43 592.43,-302.81"/>
</a>
</g>
<text text-anchor="middle" x="680.12" y="-341.5" font-family="Helvetica,sans-Serif" font-size="10.00" fill="grey"> &lt; double, Double &gt;</text>
</g>
<!-- Node14 -->
<g id="Node000014" class="node">
<title>Node14</title>
<g id="a_Node000014"><a xlink:href="class_cpl_1_1_dm_1_1_mp_1_1_numeric.html" target="_top" xlink:title=" ">
<polygon fill="white" stroke="#666666" points="880.25,-320 767.5,-320 767.5,-288 880.25,-288 880.25,-320"/>
<text text-anchor="start" x="775.5" y="-306.5" font-family="Helvetica,sans-Serif" font-size="10.00">Cpl::Dm::Mp::Numeric</text>
<text text-anchor="middle" x="823.88" y="-294.5" font-family="Helvetica,sans-Serif" font-size="10.00">&lt; float, Float &gt;</text>
</a>
</g>
</g>
<!-- Node1&#45;&gt;Node14 -->
<g id="edge14_Node000001_Node000014" class="edge">
<title>Node1&#45;&gt;Node14</title>
<g id="a_edge14_Node000001_Node000014"><a xlink:title=" ">
<path fill="none" stroke="orange" stroke-dasharray="5,2" d="M614.31,-290.87C662.66,-293.91 723.8,-297.76 767.36,-300.5"/>
<polygon fill="orange" stroke="orange" points="614.66,-287.38 604.46,-290.25 614.22,-294.37 614.66,-287.38"/>
</a>
</g>
<text text-anchor="middle" x="680.12" y="-301.5" font-family="Helvetica,sans-Serif" font-size="10.00" fill="grey"> &lt; float, Float &gt;</text>
</g>
<!-- Node16 -->
<g id="Node000016" class="node">
<title>Node16</title>
<g id="a_Node000016"><a xlink:href="class_cpl_1_1_dm_1_1_mp_1_1_numeric.html" target="_top" xlink:title=" ">
<polygon fill="white" stroke="#666666" points="880.25,-270 767.5,-270 767.5,-238 880.25,-238 880.25,-270"/>
<text text-anchor="start" x="775.5" y="-256.5" font-family="Helvetica,sans-Serif" font-size="10.00">Cpl::Dm::Mp::Numeric</text>
<text text-anchor="middle" x="823.88" y="-244.5" font-family="Helvetica,sans-Serif" font-size="10.00">&lt; int32_t, Int32 &gt;</text>
</a>
</g>
</g>
<!-- Node1&#45;&gt;Node16 -->
<g id="edge16_Node000001_Node000016" class="edge">
<title>Node1&#45;&gt;Node16</title>
<g id="a_edge16_Node000001_Node000016"><a xlink:title=" ">
<path fill="none" stroke="orange" stroke-dasharray="5,2" d="M613.89,-276.76C616.12,-276.5 618.32,-276.25 620.5,-276 670.01,-270.34 726.37,-264.24 767.02,-259.91"/>
<polygon fill="orange" stroke="orange" points="613.66,-273.26 604.13,-277.9 614.47,-280.22 613.66,-273.26"/>
</a>
</g>
<text text-anchor="middle" x="680.12" y="-278.5" font-family="Helvetica,sans-Serif" font-size="10.00" fill="grey"> &lt; int32_t, Int32 &gt;</text>
</g>
<!-- Node18 -->
<g id="Node000018" class="node">
<title>Node18</title>
<g id="a_Node000018"><a xlink:href="class_cpl_1_1_dm_1_1_mp_1_1_numeric.html" target="_top" xlink:title=" ">
<polygon fill="white" stroke="#666666" points="880.25,-220 767.5,-220 767.5,-188 880.25,-188 880.25,-220"/>
<text text-anchor="start" x="775.5" y="-206.5" font-family="Helvetica,sans-Serif" font-size="10.00">Cpl::Dm::Mp::Numeric</text>
<text text-anchor="middle" x="823.88" y="-194.5" font-family="Helvetica,sans-Serif" font-size="10.00">&lt; int64_t, Int64 &gt;</text>
</a>
</g>
</g>
<!-- Node1&#45;&gt;Node18 -->
<g id="edge18_Node000001_Node000018" class="edge">
<title>Node1&#45;&gt;Node18</title>
<g id="a_edge18_Node000001_Node000018"><a xlink:title=" ">
<path fill="none" stroke="orange" stroke-dasharray="5,2" d="M578.98,-264.79C592.05,-258.76 606.66,-252.59 620.5,-248 668.96,-231.91 725.92,-220.13 767.05,-212.83"/>
<polygon fill="orange" stroke="orange" points="577.79,-261.48 570.24,-268.91 580.78,-267.81 577.79,-261.48"/>
</a>
</g>
<text text-anchor="middle" x="680.12" y="-250.5" font-family="Helvetica,sans-Serif" font-size="10.00" fill="grey"> &lt; int64_t, Int64 &gt;</text>
</g>
<!-- Node20 -->
<g id="Node000020" class="node">
<title>Node20</title>
<g id="a_Node000020"><a xlink:href="class_cpl_1_1_dm_1_1_mp_1_1_numeric.html" target="_top" xlink:title=" ">
<polygon fill="white" stroke="#666666" points="880.25,-420 767.5,-420 767.5,-388 880.25,-388 880.25,-420"/>
<text text-anchor="start" x="775.5" y="-406.5" font-family="Helvetica,sans-Serif" font-size="10.00">Cpl::Dm::Mp::Numeric</text>
<text text-anchor="middle" x="823.88" y="-394.5" font-family="Helvetica,sans-Serif" font-size="10.00">&lt; size_t, MPTYPE &gt;</text>
</a>
</g>
</g>
<!-- Node1&#45;&gt;Node20 -->
<g id="edge20_Node000001_Node000020" class="edge">
<title>Node1&#45;&gt;Node20</title>
<g id="a_edge20_Node000001_Node000020"><a xlink:title=" ">
<path fill="none" stroke="orange" stroke-dasharray="5,2" d="M560.41,-310.34C576.09,-325.3 597.94,-343.71 620.5,-355 667.05,-378.3 725.26,-390.89 767.29,-397.45"/>
<polygon fill="orange" stroke="orange" points="563.03,-308.01 553.44,-303.51 558.13,-313.01 563.03,-308.01"/>
</a>
</g>
<text text-anchor="middle" x="680.12" y="-394.5" font-family="Helvetica,sans-Serif" font-size="10.00" fill="grey"> &lt; size_t, MPTYPE &gt;</text>
</g>
<!-- Node22 -->
<g id="Node000022" class="node">
<title>Node22</title>
<g id="a_Node000022"><a xlink:href="class_cpl_1_1_dm_1_1_mp_1_1_numeric.html" target="_top" xlink:title=" ">
<polygon fill="white" stroke="#666666" points="880.25,-132 767.5,-132 767.5,-100 880.25,-100 880.25,-132"/>
<text text-anchor="start" x="775.5" y="-118.5" font-family="Helvetica,sans-Serif" font-size="10.00">Cpl::Dm::Mp::Numeric</text>
<text text-anchor="middle" x="823.88" y="-106.5" font-family="Helvetica,sans-Serif" font-size="10.00">&lt; uint32_t, Uint32 &gt;</text>
</a>
</g>
</g>
<!-- Node1&#45;&gt;Node22 -->
<g id="edge23_Node000001_Node000022" class="edge">
<title>Node1&#45;&gt;Node22</title>
<g id="a_edge23_Node000001_Node000022"><a xlink:title=" ">
<path fill="none" stroke="orange" stroke-dasharray="5,2" d="M543.51,-258.75C553.51,-223.4 576.34,-162.85 620.5,-134 663.76,-105.74 723.79,-103.93 767.22,-107.55"/>
<polygon fill="orange" stroke="orange" points="540.17,-257.66 540.98,-268.23 546.94,-259.47 540.17,-257.66"/>
</a>
</g>
<text text-anchor="middle" x="680.12" y="-136.5" font-family="Helvetica,sans-Serif" font-size="10.00" fill="grey"> &lt; uint32_t, Uint32 &gt;</text>
</g>
<!-- Node24 -->
<g id="Node000024" class="node">
<title>Node24</title>
<g id="a_Node000024"><a xlink:href="class_cpl_1_1_dm_1_1_mp_1_1_numeric.html" target="_top" xlink:title=" ">
<polygon fill="white" stroke="#666666" points="880.25,-82 767.5,-82 767.5,-50 880.25,-50 880.25,-82"/>
<text text-anchor="start" x="775.5" y="-68.5" font-family="Helvetica,sans-Serif" font-size="10.00">Cpl::Dm::Mp::Numeric</text>
<text text-anchor="middle" x="823.88" y="-56.5" font-family="Helvetica,sans-Serif" font-size="10.00">&lt; uint64_t, Uint64 &gt;</text>
</a>
</g>
</g>
<!-- Node1&#45;&gt;Node24 -->
<g id="edge25_Node000001_Node000024" class="edge">
<title>Node1&#45;&gt;Node24</title>
<g id="a_edge25_Node000001_Node000024"><a xlink:title=" ">
<path fill="none" stroke="orange" stroke-dasharray="5,2" d="M540.22,-258.24C546.84,-214.86 566.26,-131.77 620.5,-91 662.24,-59.63 723.06,-56.11 767.13,-58.76"/>
<polygon fill="orange" stroke="orange" points="536.76,-257.71 538.85,-268.1 543.69,-258.68 536.76,-257.71"/>
</a>
</g>
<text text-anchor="middle" x="680.12" y="-93.5" font-family="Helvetica,sans-Serif" font-size="10.00" fill="grey"> &lt; uint64_t, Uint64 &gt;</text>
</g>
<!-- Node26 -->
<g id="Node000026" class="node">
<title>Node26</title>
<g id="a_Node000026"><a xlink:href="class_cpl_1_1_dm_1_1_mp_1_1_numeric.html" target="_top" xlink:title=" ">
<polygon fill="white" stroke="#666666" points="880.25,-32 767.5,-32 767.5,0 880.25,0 880.25,-32"/>
<text text-anchor="start" x="775.5" y="-18.5" font-family="Helvetica,sans-Serif" font-size="10.00">Cpl::Dm::Mp::Numeric</text>
<text text-anchor="middle" x="823.88" y="-6.5" font-family="Helvetica,sans-Serif" font-size="10.00">&lt; size_t, Void &gt;</text>
</a>
</g>
</g>
<!-- Node1&#45;&gt;Node26 -->
<g id="edge27_Node000001_Node000026" class="edge">
<title>Node1&#45;&gt;Node26</title>
<g id="a_edge27_Node000001_Node000026"><a xlink:title=" ">
<path fill="none" stroke="orange" stroke-dasharray="5,2" d="M537.62,-258.33C540.38,-207 554.18,-97.31 620.5,-43 661.22,-9.65 722.8,-5.9 767.33,-8.64"/>
<polygon fill="orange" stroke="orange" points="534.12,-258.12 537.2,-268.26 541.12,-258.42 534.12,-258.12"/>
</a>
</g>
<text text-anchor="middle" x="680.12" y="-45.5" font-family="Helvetica,sans-Serif" font-size="10.00" fill="grey"> &lt; size_t, Void &gt;</text>
</g>
<!-- Node2 -->
<g id="Node000002" class="node">
<title>Node2</title>
<g id="a_Node000002"><a xlink:href="class_cpl_1_1_dm_1_1_model_point_common__.html" target="_top" xlink:title="This concrete class provide common infrastructure for a Model Point.">
<polygon fill="white" stroke="#666666" points="432.5,-296 282.25,-296 282.25,-276 432.5,-276 432.5,-296"/>
<text text-anchor="middle" x="357.38" y="-282.5" font-family="Helvetica,sans-Serif" font-size="10.00">Cpl::Dm::ModelPointCommon_</text>
</a>
</g>
</g>
<!-- Node2&#45;&gt;Node1 -->
<g id="edge1_Node000001_Node000002" class="edge">
<title>Node2&#45;&gt;Node1</title>
<g id="a_edge1_Node000001_Node000002"><a xlink:title=" ">
<path fill="none" stroke="#63b8ff" d="M444.16,-286C452.54,-286 460.96,-286 469.11,-286"/>
<polygon fill="#63b8ff" stroke="#63b8ff" points="444.28,-282.5 434.28,-286 444.28,-289.5 444.28,-282.5"/>
</a>
</g>
</g>
<!-- Node3 -->
<g id="Node000003" class="node">
<title>Node3</title>
<g id="a_Node000003"><a xlink:href="class_cpl_1_1_dm_1_1_model_point.html" target="_top" xlink:title="This mostly abstract class defines the interface for a Model Point.">
<polygon fill="white" stroke="#666666" points="245.25,-296 139.25,-296 139.25,-276 245.25,-276 245.25,-296"/>
<text text-anchor="middle" x="192.25" y="-282.5" font-family="Helvetica,sans-Serif" font-size="10.00">Cpl::Dm::ModelPoint</text>
</a>
</g>
</g>
<!-- Node3&#45;&gt;Node2 -->
<g id="edge2_Node000002_Node000003" class="edge">
<title>Node3&#45;&gt;Node2</title>
<g id="a_edge2_Node000002_Node000003"><a xlink:title=" ">
<path fill="none" stroke="#63b8ff" d="M256.76,-286C265.01,-286 273.51,-286 281.92,-286"/>
<polygon fill="#63b8ff" stroke="#63b8ff" points="256.83,-282.5 246.83,-286 256.83,-289.5 256.83,-282.5"/>
</a>
</g>
</g>
<!-- Node4 -->
<g id="Node000004" class="node">
<title>Node4</title>
<g id="a_Node000004"><a xlink:href="class_cpl_1_1_container_1_1_item.html" target="_top" xlink:title="This class is used by the Container classes to implement a various types of singly linked containers.">
<polygon fill="white" stroke="#666666" points="102.25,-296 0,-296 0,-276 102.25,-276 102.25,-296"/>
<text text-anchor="middle" x="51.12" y="-282.5" font-family="Helvetica,sans-Serif" font-size="10.00">Cpl::Container::Item</text>
</a>
</g>
</g>
<!-- Node4&#45;&gt;Node3 -->
<g id="edge3_Node000003_Node000004" class="edge">
<title>Node4&#45;&gt;Node3</title>
<g id="a_edge3_Node000003_Node000004"><a xlink:title=" ">
<path fill="none" stroke="#63b8ff" d="M114,-286C122.36,-286 130.86,-286 139.03,-286"/>
<polygon fill="#63b8ff" stroke="#63b8ff" points="114.26,-282.5 104.26,-286 114.26,-289.5 114.26,-282.5"/>
</a>
</g>
</g>
<!-- Node6 -->
<g id="Node000006" class="node">
<title>Node6</title>
<g id="a_Node000006"><a xlink:href="class_cpl_1_1_dm_1_1_mp_1_1_bit_array16.html" target="_top" xlink:title="This template class provides a concrete implementation for a Point who&#39;s data is a a bit array of N b...">
<polygon fill="white" stroke="#666666" points="1492.75,-544 1370.25,-544 1370.25,-524 1492.75,-524 1492.75,-544"/>
<text text-anchor="middle" x="1431.5" y="-530.5" font-family="Helvetica,sans-Serif" font-size="10.00">Cpl::Dm::Mp::BitArray16</text>
</a>
</g>
</g>
<!-- Node5&#45;&gt;Node6 -->
<g id="edge5_Node000005_Node000006" class="edge">
<title>Node5&#45;&gt;Node6</title>
<g id="a_edge5_Node000005_Node000006"><a xlink:title=" ">
<path fill="none" stroke="#63b8ff" d="M1344.76,-534C1353.13,-534 1361.6,-534 1369.78,-534"/>
<polygon fill="#63b8ff" stroke="#63b8ff" points="1344.94,-530.5 1334.94,-534 1344.94,-537.5 1344.94,-530.5"/>
</a>
</g>
</g>
<!-- Node8 -->
<g id="Node000008" class="node">
<title>Node8</title>
<g id="a_Node000008"><a xlink:href="class_cpl_1_1_dm_1_1_mp_1_1_void.html" target="_top" xlink:title="This class provides a concrete implementation for a Point who&#39;s data is a void pointer.">
<polygon fill="white" stroke="#666666" points="1479.62,-239 1383.38,-239 1383.38,-219 1479.62,-219 1479.62,-239"/>
<text text-anchor="middle" x="1431.5" y="-225.5" font-family="Helvetica,sans-Serif" font-size="10.00">Cpl::Dm::Mp::Void</text>
</a>
</g>
</g>
<!-- Node7&#45;&gt;Node8 -->
<g id="edge7_Node000007_Node000008" class="edge">
<title>Node7&#45;&gt;Node8</title>
<g id="a_edge7_Node000007_Node000008"><a xlink:title=" ">
<path fill="none" stroke="#63b8ff" d="M1335.78,-229C1351.61,-229 1368.27,-229 1383.13,-229"/>
<polygon fill="#63b8ff" stroke="#63b8ff" points="1335.96,-225.5 1325.96,-229 1335.96,-232.5 1335.96,-225.5"/>
</a>
</g>
</g>
<!-- Node11 -->
<g id="Node000011" class="node">
<title>Node11</title>
<g id="a_Node000011"><a xlink:href="class_cpl_1_1_dm_1_1_mp_1_1_bit_array__.html" target="_top" xlink:title="This template class extends the Numeric&lt;&gt; class to provide bit operation on the numeric value.">
<polygon fill="white" stroke="#666666" points="1064.5,-520 927,-520 927,-488 1064.5,-488 1064.5,-520"/>
<text text-anchor="start" x="935" y="-506.5" font-family="Helvetica,sans-Serif" font-size="10.00">Cpl::Dm::Mp::BitArray</text>
<text text-anchor="middle" x="995.75" y="-494.5" font-family="Helvetica,sans-Serif" font-size="10.00">_&lt; WORDSIZE, MPTYPE &gt;</text>
</a>
</g>
</g>
<!-- Node10&#45;&gt;Node11 -->
<g id="edge10_Node000010_Node000011" class="edge">
<title>Node10&#45;&gt;Node11</title>
<g id="a_edge10_Node000010_Node000011"><a xlink:title=" ">
<path fill="none" stroke="#63b8ff" d="M901.43,-504C909.83,-504 918.34,-504 926.63,-504"/>
<polygon fill="#63b8ff" stroke="#63b8ff" points="901.58,-500.5 891.58,-504 901.58,-507.5 901.58,-500.5"/>
</a>
</g>
</g>
<!-- Node11&#45;&gt;Node5 -->
<g id="edge11_Node000011_Node000005" class="edge">
<title>Node11&#45;&gt;Node5</title>
<g id="a_edge11_Node000011_Node000005"><a xlink:title=" ">
<path fill="none" stroke="orange" stroke-dasharray="5,2" d="M1075.84,-510.36C1110.8,-513.44 1152.37,-517.45 1189.75,-522 1195.45,-522.69 1201.37,-523.47 1207.29,-524.29"/>
<polygon fill="orange" stroke="orange" points="1076.51,-506.91 1066.24,-509.53 1075.9,-513.88 1076.51,-506.91"/>
</a>
</g>
<text text-anchor="middle" x="1136.12" y="-524.5" font-family="Helvetica,sans-Serif" font-size="10.00" fill="grey"> &lt; uint16_t, BitArray16 &gt;</text>
</g>
<!-- Node13 -->
<g id="Node000013" class="node">
<title>Node13</title>
<g id="a_Node000013"><a xlink:href="class_cpl_1_1_dm_1_1_mp_1_1_double.html" target="_top" xlink:title="This class provides a concrete implementation for a Point who&#39;s data is a double.">
<polygon fill="white" stroke="#666666" points="1049.12,-364 942.38,-364 942.38,-344 1049.12,-344 1049.12,-364"/>
<text text-anchor="middle" x="995.75" y="-350.5" font-family="Helvetica,sans-Serif" font-size="10.00">Cpl::Dm::Mp::Double</text>
</a>
</g>
</g>
<!-- Node12&#45;&gt;Node13 -->
<g id="edge13_Node000012_Node000013" class="edge">
<title>Node12&#45;&gt;Node13</title>
<g id="a_edge13_Node000012_Node000013"><a xlink:title=" ">
<path fill="none" stroke="#63b8ff" d="M891.82,-354C908.45,-354 926.04,-354 941.89,-354"/>
<polygon fill="#63b8ff" stroke="#63b8ff" points="892.01,-350.5 882.01,-354 892.01,-357.5 892.01,-350.5"/>
</a>
</g>
</g>
<!-- Node15 -->
<g id="Node000015" class="node">
<title>Node15</title>
<g id="a_Node000015"><a xlink:href="class_cpl_1_1_dm_1_1_mp_1_1_float.html" target="_top" xlink:title="This class provides a concrete implementation for a Point who&#39;s data is a float.">
<polygon fill="white" stroke="#666666" points="1045,-314 946.5,-314 946.5,-294 1045,-294 1045,-314"/>
<text text-anchor="middle" x="995.75" y="-300.5" font-family="Helvetica,sans-Serif" font-size="10.00">Cpl::Dm::Mp::Float</text>
</a>
</g>
</g>
<!-- Node14&#45;&gt;Node15 -->
<g id="edge15_Node000014_Node000015" class="edge">
<title>Node14&#45;&gt;Node15</title>
<g id="a_edge15_Node000014_Node000015"><a xlink:title=" ">
<path fill="none" stroke="#63b8ff" d="M891.9,-304C910.01,-304 929.26,-304 946.15,-304"/>
<polygon fill="#63b8ff" stroke="#63b8ff" points="892.01,-300.5 882.01,-304 892.01,-307.5 892.01,-300.5"/>
</a>
</g>
</g>
<!-- Node17 -->
<g id="Node000017" class="node">
<title>Node17</title>
<g id="a_Node000017"><a xlink:href="class_cpl_1_1_dm_1_1_mp_1_1_int32.html" target="_top" xlink:title="This class provides a concrete implementation for a Point who&#39;s data is a int32_t.">
<polygon fill="white" stroke="#666666" points="1044.62,-264 946.88,-264 946.88,-244 1044.62,-244 1044.62,-264"/>
<text text-anchor="middle" x="995.75" y="-250.5" font-family="Helvetica,sans-Serif" font-size="10.00">Cpl::Dm::Mp::Int32</text>
</a>
</g>
</g>
<!-- Node16&#45;&gt;Node17 -->
<g id="edge17_Node000016_Node000017" class="edge">
<title>Node16&#45;&gt;Node17</title>
<g id="a_edge17_Node000016_Node000017"><a xlink:title=" ">
<path fill="none" stroke="#63b8ff" d="M891.95,-254C910.15,-254 929.49,-254 946.43,-254"/>
<polygon fill="#63b8ff" stroke="#63b8ff" points="892.01,-250.5 882.01,-254 892.01,-257.5 892.01,-250.5"/>
</a>
</g>
</g>
<!-- Node19 -->
<g id="Node000019" class="node">
<title>Node19</title>
<g id="a_Node000019"><a xlink:href="class_cpl_1_1_dm_1_1_mp_1_1_int64.html" target="_top" xlink:title="This class provides a concrete implementation for a Point who&#39;s data is a int64_t.">
<polygon fill="white" stroke="#666666" points="1044.62,-214 946.88,-214 946.88,-194 1044.62,-194 1044.62,-214"/>
<text text-anchor="middle" x="995.75" y="-200.5" font-family="Helvetica,sans-Serif" font-size="10.00">Cpl::Dm::Mp::Int64</text>
</a>
</g>
</g>
<!-- Node18&#45;&gt;Node19 -->
<g id="edge19_Node000018_Node000019" class="edge">
<title>Node18&#45;&gt;Node19</title>
<g id="a_edge19_Node000018_Node000019"><a xlink:title=" ">
<path fill="none" stroke="#63b8ff" d="M891.95,-204C910.15,-204 929.49,-204 946.43,-204"/>
<polygon fill="#63b8ff" stroke="#63b8ff" points="892.01,-200.5 882.01,-204 892.01,-207.5 892.01,-200.5"/>
</a>
</g>
</g>
<!-- Node21 -->
<g id="Node000021" class="node">
<title>Node21</title>
<g id="a_Node000021"><a xlink:href="class_cpl_1_1_dm_1_1_mp_1_1_pointer__.html" target="_top" xlink:title="This template class extends the implementation of Numeric&lt;&gt; class to support the pointers instead of ...">
<polygon fill="white" stroke="#666666" points="1049.5,-416 942,-416 942,-384 1049.5,-384 1049.5,-416"/>
<text text-anchor="start" x="950" y="-402.5" font-family="Helvetica,sans-Serif" font-size="10.00">Cpl::Dm::Mp::Pointer</text>
<text text-anchor="middle" x="995.75" y="-390.5" font-family="Helvetica,sans-Serif" font-size="10.00">_&lt; MPTYPE &gt;</text>
</a>
</g>
</g>
<!-- Node20&#45;&gt;Node21 -->
<g id="edge21_Node000020_Node000021" class="edge">
<title>Node20&#45;&gt;Node21</title>
<g id="a_edge21_Node000020_Node000021"><a xlink:title=" ">
<path fill="none" stroke="#63b8ff" d="M891.77,-402.42C908.31,-402.04 925.81,-401.62 941.6,-401.25"/>
<polygon fill="#63b8ff" stroke="#63b8ff" points="891.93,-398.92 882.01,-402.65 892.09,-405.92 891.93,-398.92"/>
</a>
</g>
</g>
<!-- Node21&#45;&gt;Node7 -->
<g id="edge22_Node000021_Node000007" class="edge">
<title>Node21&#45;&gt;Node7</title>
<g id="a_edge22_Node000021_Node000007"><a xlink:title=" ">
<path fill="none" stroke="orange" stroke-dasharray="5,2" d="M1052.53,-379C1056.63,-377.08 1060.66,-375.08 1064.5,-373 1136.8,-333.89 1214.08,-274.04 1249.58,-245.39"/>
<polygon fill="orange" stroke="orange" points="1051.34,-375.69 1043.63,-382.96 1054.19,-382.09 1051.34,-375.69"/>
</a>
</g>
<text text-anchor="middle" x="1136.12" y="-361.5" font-family="Helvetica,sans-Serif" font-size="10.00" fill="grey"> &lt; Void &gt;</text>
</g>
<!-- Node23 -->
<g id="Node000023" class="node">
<title>Node23</title>
<g id="a_Node000023"><a xlink:href="class_cpl_1_1_dm_1_1_mp_1_1_uint32.html" target="_top" xlink:title="This class provides a concrete implementation for a Point who&#39;s data is a uint32_t.">
<polygon fill="white" stroke="#666666" points="1048,-126 943.5,-126 943.5,-106 1048,-106 1048,-126"/>
<text text-anchor="middle" x="995.75" y="-112.5" font-family="Helvetica,sans-Serif" font-size="10.00">Cpl::Dm::Mp::Uint32</text>
</a>
</g>
</g>
<!-- Node22&#45;&gt;Node23 -->
<g id="edge24_Node000022_Node000023" class="edge">
<title>Node22&#45;&gt;Node23</title>
<g id="a_edge24_Node000022_Node000023"><a xlink:title=" ">
<path fill="none" stroke="#63b8ff" d="M891.56,-116C908.67,-116 926.81,-116 943.03,-116"/>
<polygon fill="#63b8ff" stroke="#63b8ff" points="892.01,-112.5 882.01,-116 892.01,-119.5 892.01,-112.5"/>
</a>
</g>
</g>
<!-- Node25 -->
<g id="Node000025" class="node">
<title>Node25</title>
<g id="a_Node000025"><a xlink:href="class_cpl_1_1_dm_1_1_mp_1_1_uint64.html" target="_top" xlink:title="This class provides a concrete implementation for a Point who&#39;s data is a uint64_t.">
<polygon fill="white" stroke="#666666" points="1048,-76 943.5,-76 943.5,-56 1048,-56 1048,-76"/>
<text text-anchor="middle" x="995.75" y="-62.5" font-family="Helvetica,sans-Serif" font-size="10.00">Cpl::Dm::Mp::Uint64</text>
</a>
</g>
</g>
<!-- Node24&#45;&gt;Node25 -->
<g id="edge26_Node000024_Node000025" class="edge">
<title>Node24&#45;&gt;Node25</title>
<g id="a_edge26_Node000024_Node000025"><a xlink:title=" ">
<path fill="none" stroke="#63b8ff" d="M891.56,-66C908.67,-66 926.81,-66 943.03,-66"/>
<polygon fill="#63b8ff" stroke="#63b8ff" points="892.01,-62.5 882.01,-66 892.01,-69.5 892.01,-62.5"/>
</a>
</g>
</g>
</g>
</svg>
