<?xml version="1.0" encoding="UTF-8" standalone="no"?>
<!DOCTYPE svg PUBLIC "-//W3C//DTD SVG 1.1//EN"
 "http://www.w3.org/Graphics/SVG/1.1/DTD/svg11.dtd">
<!-- Generated by graphviz version 2.38.0 (20140413.2041)
 -->
<!-- Title: Cpl::Persistent::Chunk Pages: 1 -->
<svg width="278pt" height="95pt"
 viewBox="0.00 0.00 278.00 95.00" xmlns="http://www.w3.org/2000/svg" xmlns:xlink="http://www.w3.org/1999/xlink">
<g id="graph0" class="graph" transform="scale(1 1) rotate(0) translate(4 91)">
<title>Cpl::Persistent::Chunk</title>
<polygon fill="white" stroke="none" points="-4,4 -4,-91 274,-91 274,4 -4,4"/>
<!-- Node1 -->
<g id="node1" class="node"><title>Node1</title>
<g id="a_node1"><a xlink:title="This abstract class defines the interface for a Chunk.">
<polygon fill="#bfbfbf" stroke="black" points="79.5,-67.5 79.5,-86.5 194.5,-86.5 194.5,-67.5 79.5,-67.5"/>
<text text-anchor="middle" x="137" y="-74.5" font-family="Helvetica,sans-Serif" font-size="10.00">Cpl::Persistent::Chunk</text>
</a>
</g>
</g>
<!-- Node2 -->
<g id="node2" class="node"><title>Node2</title>
<g id="a_node2"><a xlink:href="class_cpl_1_1_persistent_1_1_crc_chunk.html" target="_top" xlink:title="This concrete class implements the Chunk interface by using a 32Bit CRC for ensuring data integrity.">
<polygon fill="white" stroke="black" points="0,-6 0,-25 130,-25 130,-6 0,-6"/>
<text text-anchor="middle" x="65" y="-13" font-family="Helvetica,sans-Serif" font-size="10.00">Cpl::Persistent::CrcChunk</text>
</a>
</g>
</g>
<!-- Node1&#45;&gt;Node2 -->
<g id="edge1" class="edge"><title>Node1&#45;&gt;Node2</title>
<path fill="none" stroke="midnightblue" d="M118.816,-60.9727C105.045,-49.5925 86.6234,-34.3694 75.2967,-25.0091"/>
<polygon fill="midnightblue" stroke="midnightblue" points="116.746,-63.8028 126.684,-67.4751 121.205,-58.4069 116.746,-63.8028"/>
</g>
<!-- Node3 -->
<g id="node3" class="node"><title>Node3</title>
<g id="a_node3"><a xlink:href="class_cpl_1_1_persistent_1_1_mirrored_chunk.html" target="_top" xlink:title="This concrete class implements the Chunk interface by storing two copies of the Record&#39;s data.">
<polygon fill="white" stroke="black" points="148,-0.5 148,-30.5 270,-30.5 270,-0.5 148,-0.5"/>
<text text-anchor="start" x="156" y="-18.5" font-family="Helvetica,sans-Serif" font-size="10.00">Cpl::Persistent::Mirrored</text>
<text text-anchor="middle" x="209" y="-7.5" font-family="Helvetica,sans-Serif" font-size="10.00">Chunk</text>
</a>
</g>
</g>
<!-- Node1&#45;&gt;Node3 -->
<g id="edge2" class="edge"><title>Node1&#45;&gt;Node3</title>
<path fill="none" stroke="midnightblue" d="M155.246,-60.9215C166.551,-51.579 180.973,-39.6616 192.031,-30.523"/>
<polygon fill="midnightblue" stroke="midnightblue" points="152.795,-58.4069 147.316,-67.4751 157.254,-63.8028 152.795,-58.4069"/>
</g>
</g>
</svg>
