<?xml version="1.0" encoding="UTF-8" standalone="no"?>
<!DOCTYPE svg PUBLIC "-//W3C//DTD SVG 1.1//EN"
 "http://www.w3.org/Graphics/SVG/1.1/DTD/svg11.dtd">
<!-- Generated by graphviz version 2.38.0 (20140413.2041)
 -->
<!-- Title: Cpl::TShell::Cmd::Command Pages: 1 -->
<svg width="1304pt" height="496pt"
 viewBox="0.00 0.00 1304.00 496.00" xmlns="http://www.w3.org/2000/svg" xmlns:xlink="http://www.w3.org/1999/xlink">
<g id="graph0" class="graph" transform="scale(1 1) rotate(0) translate(4 492)">
<title>Cpl::TShell::Cmd::Command</title>
<polygon fill="white" stroke="none" points="-4,4 -4,-492 1300,-492 1300,4 -4,4"/>
<!-- Node1 -->
<g id="node1" class="node"><title>Node1</title>
<g id="a_node1"><a xlink:title="This partially concrete class implements infrastructure and/or common functionality for a Shell comma...">
<polygon fill="#bfbfbf" stroke="black" points="787,-240.5 787,-259.5 928,-259.5 928,-240.5 787,-240.5"/>
<text text-anchor="middle" x="857.5" y="-247.5" font-family="Helvetica,sans-Serif" font-size="10.00">Cpl::TShell::Cmd::Command</text>
</a>
</g>
</g>
<!-- Node7 -->
<g id="node7" class="node"><title>Node7</title>
<g id="a_node7"><a xlink:href="class_cpl_1_1_dm_1_1_t_shell_1_1_dm.html" target="_top" xlink:title="This class implements a TShell command.">
<polygon fill="white" stroke="black" points="987,-468.5 987,-487.5 1094,-487.5 1094,-468.5 987,-468.5"/>
<text text-anchor="middle" x="1040.5" y="-475.5" font-family="Helvetica,sans-Serif" font-size="10.00">Cpl::Dm::TShell::Dm</text>
</a>
</g>
</g>
<!-- Node1&#45;&gt;Node7 -->
<g id="edge6" class="edge"><title>Node1&#45;&gt;Node7</title>
<path fill="none" stroke="midnightblue" d="M862.637,-269.668C872.459,-311.328 901.211,-408.749 964,-459 970.648,-464.321 978.597,-468.173 986.803,-470.958"/>
<polygon fill="midnightblue" stroke="midnightblue" points="866.004,-268.687 860.402,-259.695 859.174,-270.219 866.004,-268.687"/>
</g>
<!-- Node8 -->
<g id="node8" class="node"><title>Node8</title>
<g id="a_node8"><a xlink:href="class_cpl_1_1_t_shell_1_1_cmd_1_1_arduino_1_1_dbg.html" target="_top" xlink:title="This class implements a DAC Shell command.">
<polygon fill="white" stroke="black" points="964,-430.5 964,-449.5 1117,-449.5 1117,-430.5 964,-430.5"/>
<text text-anchor="middle" x="1040.5" y="-437.5" font-family="Helvetica,sans-Serif" font-size="10.00">Cpl::TShell::Cmd::Arduino::Dbg</text>
</a>
</g>
</g>
<!-- Node1&#45;&gt;Node8 -->
<g id="edge7" class="edge"><title>Node1&#45;&gt;Node8</title>
<path fill="none" stroke="midnightblue" d="M864.829,-269.228C877.6,-304.923 909.937,-381.393 964,-421 969.343,-424.914 975.406,-428.026 981.719,-430.499"/>
<polygon fill="midnightblue" stroke="midnightblue" points="868.059,-267.858 861.491,-259.545 861.441,-270.14 868.059,-267.858"/>
</g>
<!-- Node9 -->
<g id="node9" class="node"><title>Node9</title>
<g id="a_node9"><a xlink:href="class_cpl_1_1_t_shell_1_1_cmd_1_1_bye.html" target="_top" xlink:title="This class implements a Shell command.">
<polygon fill="white" stroke="black" points="983.5,-392.5 983.5,-411.5 1097.5,-411.5 1097.5,-392.5 983.5,-392.5"/>
<text text-anchor="middle" x="1040.5" y="-399.5" font-family="Helvetica,sans-Serif" font-size="10.00">Cpl::TShell::Cmd::Bye</text>
</a>
</g>
</g>
<!-- Node1&#45;&gt;Node9 -->
<g id="edge8" class="edge"><title>Node1&#45;&gt;Node9</title>
<path fill="none" stroke="midnightblue" d="M868.192,-268.958C884.106,-298.121 918.597,-353.682 964,-383 970.018,-386.886 976.78,-389.977 983.721,-392.436"/>
<polygon fill="midnightblue" stroke="midnightblue" points="871.128,-267.024 863.35,-259.83 864.944,-270.304 871.128,-267.024"/>
</g>
<!-- Node10 -->
<g id="node10" class="node"><title>Node10</title>
<g id="a_node10"><a xlink:href="class_cpl_1_1_t_shell_1_1_cmd_1_1_help.html" target="_top" xlink:title="This class implements a Shell command.">
<polygon fill="white" stroke="black" points="982.5,-354.5 982.5,-373.5 1098.5,-373.5 1098.5,-354.5 982.5,-354.5"/>
<text text-anchor="middle" x="1040.5" y="-361.5" font-family="Helvetica,sans-Serif" font-size="10.00">Cpl::TShell::Cmd::Help</text>
</a>
</g>
</g>
<!-- Node1&#45;&gt;Node10 -->
<g id="edge9" class="edge"><title>Node1&#45;&gt;Node10</title>
<path fill="none" stroke="midnightblue" d="M872.99,-267.475C891.766,-288.965 926.559,-325.039 964,-345 971.276,-348.879 979.371,-351.988 987.481,-354.474"/>
<polygon fill="midnightblue" stroke="midnightblue" points="875.551,-265.084 866.391,-259.76 870.232,-269.634 875.551,-265.084"/>
</g>
<!-- Node11 -->
<g id="node11" class="node"><title>Node11</title>
<g id="a_node11"><a xlink:href="class_cpl_1_1_t_shell_1_1_cmd_1_1_threads.html" target="_top" xlink:title="This class implements a Shell command.">
<polygon fill="white" stroke="black" points="974.5,-316.5 974.5,-335.5 1106.5,-335.5 1106.5,-316.5 974.5,-316.5"/>
<text text-anchor="middle" x="1040.5" y="-323.5" font-family="Helvetica,sans-Serif" font-size="10.00">Cpl::TShell::Cmd::Threads</text>
</a>
</g>
</g>
<!-- Node1&#45;&gt;Node11 -->
<g id="edge10" class="edge"><title>Node1&#45;&gt;Node11</title>
<path fill="none" stroke="midnightblue" d="M882.086,-264.96C902.946,-277.642 934.555,-295.548 964,-307 973.448,-310.675 983.84,-313.827 993.812,-316.448"/>
<polygon fill="midnightblue" stroke="midnightblue" points="883.653,-261.814 873.304,-259.542 879.977,-267.771 883.653,-261.814"/>
</g>
<!-- Node14 -->
<g id="node14" class="node"><title>Node14</title>
<g id="a_node14"><a xlink:href="class_cpl_1_1_t_shell_1_1_cmd_1_1_tick.html" target="_top" xlink:title="This class implements a Shell command.">
<polygon fill="white" stroke="black" points="982.5,-278.5 982.5,-297.5 1098.5,-297.5 1098.5,-278.5 982.5,-278.5"/>
<text text-anchor="middle" x="1040.5" y="-285.5" font-family="Helvetica,sans-Serif" font-size="10.00">Cpl::TShell::Cmd::Tick</text>
</a>
</g>
</g>
<!-- Node1&#45;&gt;Node14 -->
<g id="edge13" class="edge"><title>Node1&#45;&gt;Node14</title>
<path fill="none" stroke="midnightblue" d="M914.138,-261.681C939.807,-267.07 969.891,-273.386 994.154,-278.48"/>
<polygon fill="midnightblue" stroke="midnightblue" points="914.68,-258.218 904.174,-259.589 913.241,-265.069 914.68,-258.218"/>
</g>
<!-- Node15 -->
<g id="node15" class="node"><title>Node15</title>
<g id="a_node15"><a xlink:href="class_cpl_1_1_t_shell_1_1_cmd_1_1_t_print.html" target="_top" xlink:title="This class implements a Shell command.">
<polygon fill="white" stroke="black" points="979,-240.5 979,-259.5 1102,-259.5 1102,-240.5 979,-240.5"/>
<text text-anchor="middle" x="1040.5" y="-247.5" font-family="Helvetica,sans-Serif" font-size="10.00">Cpl::TShell::Cmd::TPrint</text>
</a>
</g>
</g>
<!-- Node1&#45;&gt;Node15 -->
<g id="edge14" class="edge"><title>Node1&#45;&gt;Node15</title>
<path fill="none" stroke="midnightblue" d="M938.519,-250C952.095,-250 965.989,-250 978.958,-250"/>
<polygon fill="midnightblue" stroke="midnightblue" points="938.22,-246.5 928.22,-250 938.22,-253.5 938.22,-246.5"/>
</g>
<!-- Node16 -->
<g id="node16" class="node"><title>Node16</title>
<g id="a_node16"><a xlink:href="class_cpl_1_1_t_shell_1_1_cmd_1_1_trace.html" target="_top" xlink:title="This class implements a Shell command.">
<polygon fill="white" stroke="black" points="979.5,-202.5 979.5,-221.5 1101.5,-221.5 1101.5,-202.5 979.5,-202.5"/>
<text text-anchor="middle" x="1040.5" y="-209.5" font-family="Helvetica,sans-Serif" font-size="10.00">Cpl::TShell::Cmd::Trace</text>
</a>
</g>
</g>
<!-- Node1&#45;&gt;Node16 -->
<g id="edge15" class="edge"><title>Node1&#45;&gt;Node16</title>
<path fill="none" stroke="midnightblue" d="M914.138,-238.319C939.807,-232.93 969.891,-226.614 994.154,-221.52"/>
<polygon fill="midnightblue" stroke="midnightblue" points="913.241,-234.931 904.174,-240.411 914.68,-241.782 913.241,-234.931"/>
</g>
<!-- Node17 -->
<g id="node17" class="node"><title>Node17</title>
<g id="a_node17"><a xlink:href="class_storm_1_1_thermostat_1_1_sim_house_1_1_cmd.html" target="_top" xlink:title="This class implements a Shell command.">
<polygon fill="white" stroke="black" points="988.5,-153 988.5,-183 1092.5,-183 1092.5,-153 988.5,-153"/>
<text text-anchor="start" x="996.5" y="-171" font-family="Helvetica,sans-Serif" font-size="10.00">Storm::Thermostat::</text>
<text text-anchor="middle" x="1040.5" y="-160" font-family="Helvetica,sans-Serif" font-size="10.00">SimHouse::Cmd</text>
</a>
</g>
</g>
<!-- Node1&#45;&gt;Node17 -->
<g id="edge16" class="edge"><title>Node1&#45;&gt;Node17</title>
<path fill="none" stroke="midnightblue" d="M883.028,-235.147C904.028,-222.825 935.326,-205.38 964,-193 972.24,-189.443 981.163,-186.08 989.891,-183.043"/>
<polygon fill="midnightblue" stroke="midnightblue" points="880.967,-232.301 874.151,-240.412 884.538,-238.321 880.967,-232.301"/>
</g>
<!-- Node18 -->
<g id="node18" class="node"><title>Node18</title>
<g id="a_node18"><a xlink:href="class_storm_1_1_t_shell_1_1_filter.html" target="_top" xlink:title="This class implements a Shell command.">
<polygon fill="white" stroke="black" points="988.5,-114.5 988.5,-133.5 1092.5,-133.5 1092.5,-114.5 988.5,-114.5"/>
<text text-anchor="middle" x="1040.5" y="-121.5" font-family="Helvetica,sans-Serif" font-size="10.00">Storm::TShell::Filter</text>
</a>
</g>
</g>
<!-- Node1&#45;&gt;Node18 -->
<g id="edge17" class="edge"><title>Node1&#45;&gt;Node18</title>
<path fill="none" stroke="midnightblue" d="M871.153,-232.048C889.043,-208.039 924.04,-165.853 964,-143 971.509,-138.706 979.983,-135.371 988.469,-132.784"/>
<polygon fill="midnightblue" stroke="midnightblue" points="868.215,-230.137 865.159,-240.281 873.874,-234.257 868.215,-230.137"/>
</g>
<!-- Node19 -->
<g id="node19" class="node"><title>Node19</title>
<g id="a_node19"><a xlink:href="class_storm_1_1_t_shell_1_1_state.html" target="_top" xlink:title="This class implements a Shell command.">
<polygon fill="white" stroke="black" points="987.5,-76.5 987.5,-95.5 1093.5,-95.5 1093.5,-76.5 987.5,-76.5"/>
<text text-anchor="middle" x="1040.5" y="-83.5" font-family="Helvetica,sans-Serif" font-size="10.00">Storm::TShell::State</text>
</a>
</g>
</g>
<!-- Node1&#45;&gt;Node19 -->
<g id="edge18" class="edge"><title>Node1&#45;&gt;Node19</title>
<path fill="none" stroke="midnightblue" d="M866.878,-231.117C881.749,-199.855 915.793,-137.569 964,-105 971.056,-100.233 979.211,-96.6616 987.498,-93.986"/>
<polygon fill="midnightblue" stroke="midnightblue" points="863.587,-229.895 862.577,-240.442 869.944,-232.827 863.587,-229.895"/>
</g>
<!-- Node20 -->
<g id="node20" class="node"><title>Node20</title>
<g id="a_node20"><a xlink:href="class_storm_1_1_t_shell_1_1_user.html" target="_top" xlink:title="This class implements a Shell command.">
<polygon fill="white" stroke="black" points="989,-38.5 989,-57.5 1092,-57.5 1092,-38.5 989,-38.5"/>
<text text-anchor="middle" x="1040.5" y="-45.5" font-family="Helvetica,sans-Serif" font-size="10.00">Storm::TShell::User</text>
</a>
</g>
</g>
<!-- Node1&#45;&gt;Node20 -->
<g id="edge19" class="edge"><title>Node1&#45;&gt;Node20</title>
<path fill="none" stroke="midnightblue" d="M864.105,-230.466C875.966,-192.754 907.282,-109.866 964,-67 971.225,-61.5398 979.839,-57.6362 988.621,-54.8485"/>
<polygon fill="midnightblue" stroke="midnightblue" points="860.696,-229.647 861.155,-240.232 867.397,-231.671 860.696,-229.647"/>
</g>
<!-- Node21 -->
<g id="node21" class="node"><title>Node21</title>
<g id="a_node21"><a xlink:href="class_storm_1_1_t_shell_1_1_white_box.html" target="_top" xlink:title="This class implements a Shell command.">
<polygon fill="white" stroke="black" points="978,-0.5 978,-19.5 1103,-19.5 1103,-0.5 978,-0.5"/>
<text text-anchor="middle" x="1040.5" y="-7.5" font-family="Helvetica,sans-Serif" font-size="10.00">Storm::TShell::WhiteBox</text>
</a>
</g>
</g>
<!-- Node1&#45;&gt;Node21 -->
<g id="edge20" class="edge"><title>Node1&#45;&gt;Node21</title>
<path fill="none" stroke="midnightblue" d="M862.041,-230.388C870.925,-187.058 898.327,-82.7596 964,-29 968.707,-25.1473 974.091,-22.0619 979.77,-19.5933"/>
<polygon fill="midnightblue" stroke="midnightblue" points="858.598,-229.761 860.129,-240.244 865.469,-231.094 858.598,-229.761"/>
</g>
<!-- Node2 -->
<g id="node2" class="node"><title>Node2</title>
<g id="a_node2"><a xlink:href="class_cpl_1_1_t_shell_1_1_command.html" target="_top" xlink:title="This class defines the interface for a TShell command.">
<polygon fill="white" stroke="black" points="636,-240.5 636,-259.5 751,-259.5 751,-240.5 636,-240.5"/>
<text text-anchor="middle" x="693.5" y="-247.5" font-family="Helvetica,sans-Serif" font-size="10.00">Cpl::TShell::Command</text>
</a>
</g>
</g>
<!-- Node2&#45;&gt;Node1 -->
<g id="edge1" class="edge"><title>Node2&#45;&gt;Node1</title>
<path fill="none" stroke="midnightblue" d="M761.285,-250C769.692,-250 778.31,-250 786.762,-250"/>
<polygon fill="midnightblue" stroke="midnightblue" points="761.16,-246.5 751.16,-250 761.16,-253.5 761.16,-246.5"/>
</g>
<!-- Node3 -->
<g id="node3" class="node"><title>Node3</title>
<g id="a_node3"><a xlink:href="class_cpl_1_1_container_1_1_map_item.html" target="_top" xlink:title="This abstract class represents a item that can be contained in an Map (aka a sorted list implemented ...">
<polygon fill="white" stroke="black" points="478,-240.5 478,-259.5 600,-259.5 600,-240.5 478,-240.5"/>
<text text-anchor="middle" x="539" y="-247.5" font-family="Helvetica,sans-Serif" font-size="10.00">Cpl::Container::MapItem</text>
</a>
</g>
</g>
<!-- Node3&#45;&gt;Node2 -->
<g id="edge2" class="edge"><title>Node3&#45;&gt;Node2</title>
<path fill="none" stroke="midnightblue" d="M610.482,-250C618.915,-250 627.441,-250 635.647,-250"/>
<polygon fill="midnightblue" stroke="midnightblue" points="610.272,-246.5 600.272,-250 610.272,-253.5 610.272,-246.5"/>
</g>
<!-- Node4 -->
<g id="node4" class="node"><title>Node4</title>
<g id="a_node4"><a xlink:href="class_cpl_1_1_container_1_1_dict_item.html" target="_top" xlink:title="This abstract class represents a item that can be contained in Dictionary.">
<polygon fill="white" stroke="black" points="321,-240.5 321,-259.5 442,-259.5 442,-240.5 321,-240.5"/>
<text text-anchor="middle" x="381.5" y="-247.5" font-family="Helvetica,sans-Serif" font-size="10.00">Cpl::Container::DictItem</text>
</a>
</g>
</g>
<!-- Node4&#45;&gt;Node3 -->
<g id="edge3" class="edge"><title>Node4&#45;&gt;Node3</title>
<path fill="none" stroke="midnightblue" d="M452.188,-250C460.792,-250 469.528,-250 477.97,-250"/>
<polygon fill="midnightblue" stroke="midnightblue" points="452.176,-246.5 442.176,-250 452.176,-253.5 452.176,-246.5"/>
</g>
<!-- Node5 -->
<g id="node5" class="node"><title>Node5</title>
<g id="a_node5"><a xlink:href="class_cpl_1_1_container_1_1_extended_item.html" target="_top" xlink:title="This class is used by the Container classes to implement a various types of DOUBLY linked containers.">
<polygon fill="white" stroke="black" points="140,-240.5 140,-259.5 285,-259.5 285,-240.5 140,-240.5"/>
<text text-anchor="middle" x="212.5" y="-247.5" font-family="Helvetica,sans-Serif" font-size="10.00">Cpl::Container::ExtendedItem</text>
</a>
</g>
</g>
<!-- Node5&#45;&gt;Node4 -->
<g id="edge4" class="edge"><title>Node5&#45;&gt;Node4</title>
<path fill="none" stroke="midnightblue" d="M295.342,-250C303.93,-250 312.542,-250 320.813,-250"/>
<polygon fill="midnightblue" stroke="midnightblue" points="295.292,-246.5 285.292,-250 295.292,-253.5 295.292,-246.5"/>
</g>
<!-- Node6 -->
<g id="node6" class="node"><title>Node6</title>
<g id="a_node6"><a xlink:href="class_cpl_1_1_container_1_1_item.html" target="_top" xlink:title="This class is used by the Container classes to implement a various types of singly linked containers.">
<polygon fill="white" stroke="black" points="0,-240.5 0,-259.5 104,-259.5 104,-240.5 0,-240.5"/>
<text text-anchor="middle" x="52" y="-247.5" font-family="Helvetica,sans-Serif" font-size="10.00">Cpl::Container::Item</text>
</a>
</g>
</g>
<!-- Node6&#45;&gt;Node5 -->
<g id="edge5" class="edge"><title>Node6&#45;&gt;Node5</title>
<path fill="none" stroke="midnightblue" d="M114.109,-250C122.516,-250 131.212,-250 139.789,-250"/>
<polygon fill="midnightblue" stroke="midnightblue" points="114.023,-246.5 104.023,-250 114.023,-253.5 114.023,-246.5"/>
</g>
<!-- Node12 -->
<g id="node12" class="node"><title>Node12</title>
<g id="a_node12"><a xlink:href="class_cpl_1_1_t_shell_1_1_cmd_1_1_free_r_t_o_s_1_1_threads.html" target="_top" xlink:title="This class implements a TShell command.">
<polygon fill="white" stroke="black" points="1153,-336 1153,-366 1296,-366 1296,-336 1153,-336"/>
<text text-anchor="start" x="1161" y="-354" font-family="Helvetica,sans-Serif" font-size="10.00">Cpl::TShell::Cmd::FreeRTOS</text>
<text text-anchor="middle" x="1224.5" y="-343" font-family="Helvetica,sans-Serif" font-size="10.00">::Threads</text>
</a>
</g>
</g>
<!-- Node11&#45;&gt;Node12 -->
<g id="edge11" class="edge"><title>Node11&#45;&gt;Node12</title>
<path fill="none" stroke="midnightblue" d="M1116.66,-336.324C1128.65,-337.972 1141.03,-339.671 1152.91,-341.303"/>
<polygon fill="midnightblue" stroke="midnightblue" points="1117.08,-332.848 1106.69,-334.955 1116.12,-339.783 1117.08,-332.848"/>
</g>
<!-- Node13 -->
<g id="node13" class="node"><title>Node13</title>
<g id="a_node13"><a xlink:href="class_cpl_1_1_t_shell_1_1_cmd_1_1_win32_1_1_threads.html" target="_top" xlink:title="This class implements a TShell command.">
<polygon fill="white" stroke="black" points="1162.5,-287 1162.5,-317 1286.5,-317 1286.5,-287 1162.5,-287"/>
<text text-anchor="start" x="1170.5" y="-305" font-family="Helvetica,sans-Serif" font-size="10.00">Cpl::TShell::Cmd::Win32</text>
<text text-anchor="middle" x="1224.5" y="-294" font-family="Helvetica,sans-Serif" font-size="10.00">::Threads</text>
</a>
</g>
</g>
<!-- Node11&#45;&gt;Node13 -->
<g id="edge12" class="edge"><title>Node11&#45;&gt;Node13</title>
<path fill="none" stroke="midnightblue" d="M1117.04,-316.039C1132.16,-314.045 1147.86,-311.975 1162.41,-310.056"/>
<polygon fill="midnightblue" stroke="midnightblue" points="1116.15,-312.626 1106.69,-317.403 1117.06,-319.566 1116.15,-312.626"/>
</g>
</g>
</svg>
