<?xml version="1.0" encoding="UTF-8" standalone="no"?>
<!DOCTYPE svg PUBLIC "-//W3C//DTD SVG 1.1//EN"
 "http://www.w3.org/Graphics/SVG/1.1/DTD/svg11.dtd">
<!-- Generated by graphviz version 10.0.1 (20240210.2158)
 -->
<!-- Title: Cpl::Text::FStringItem&lt; S &gt; Pages: 1 -->
<svg width="258pt" height="324pt"
 viewBox="0.00 0.00 258.12 324.00" xmlns="http://www.w3.org/2000/svg" xmlns:xlink="http://www.w3.org/1999/xlink">
<g id="graph0" class="graph" transform="scale(1 1) rotate(0) translate(4 320)">
<title>Cpl::Text::FStringItem&lt; S &gt;</title>
<!-- Node1 -->
<g id="Node000001" class="node">
<title>Node1</title>
<g id="a_Node000001"><a xlink:title="This template class implements the StringItem class for a &#39;String&#39; using a &#39;FString&#39; as the internal ...">
<polygon fill="#999999" stroke="#666666" points="203.75,-20 67.75,-20 67.75,0 203.75,0 203.75,-20"/>
<text text-anchor="middle" x="135.75" y="-6.5" font-family="Helvetica,sans-Serif" font-size="10.00">Cpl::Text::FStringItem&lt; S &gt;</text>
</a>
</g>
</g>
<!-- Node2 -->
<g id="Node000002" class="node">
<title>Node2</title>
<g id="a_Node000002"><a xlink:href="class_cpl_1_1_text_1_1_string_item.html" target="_top" xlink:title="This partially concrete provides a wrapper class that allows a String object to be stored directly in...">
<polygon fill="white" stroke="#666666" points="188.38,-77 83.12,-77 83.12,-57 188.38,-57 188.38,-77"/>
<text text-anchor="middle" x="135.75" y="-63.5" font-family="Helvetica,sans-Serif" font-size="10.00">Cpl::Text::StringItem</text>
</a>
</g>
</g>
<!-- Node2&#45;&gt;Node1 -->
<g id="edge1_Node000001_Node000002" class="edge">
<title>Node2&#45;&gt;Node1</title>
<g id="a_edge1_Node000001_Node000002"><a xlink:title=" ">
<path fill="none" stroke="#63b8ff" d="M135.75,-45.69C135.75,-36.97 135.75,-27.22 135.75,-20.28"/>
<polygon fill="#63b8ff" stroke="#63b8ff" points="132.25,-45.4 135.75,-55.4 139.25,-45.4 132.25,-45.4"/>
</a>
</g>
</g>
<!-- Node3 -->
<g id="Node000003" class="node">
<title>Node3</title>
<g id="a_Node000003"><a xlink:href="class_cpl_1_1_container_1_1_map_item.html" target="_top" xlink:title="This abstract class represents a item that can be contained in an Map (aka a sorted list implemented ...">
<polygon fill="white" stroke="#666666" points="136.25,-145 15.25,-145 15.25,-125 136.25,-125 136.25,-145"/>
<text text-anchor="middle" x="75.75" y="-131.5" font-family="Helvetica,sans-Serif" font-size="10.00">Cpl::Container::MapItem</text>
</a>
</g>
</g>
<!-- Node3&#45;&gt;Node2 -->
<g id="edge2_Node000002_Node000003" class="edge">
<title>Node3&#45;&gt;Node2</title>
<g id="a_edge2_Node000002_Node000003"><a xlink:title=" ">
<path fill="none" stroke="#63b8ff" d="M91.89,-116.25C103.24,-103.76 118,-87.53 127.17,-77.44"/>
<polygon fill="#63b8ff" stroke="#63b8ff" points="89.5,-113.67 85.36,-123.42 94.68,-118.38 89.5,-113.67"/>
</a>
</g>
</g>
<!-- Node4 -->
<g id="Node000004" class="node">
<title>Node4</title>
<g id="a_Node000004"><a xlink:href="class_cpl_1_1_container_1_1_dict_item.html" target="_top" xlink:title="This abstract class represents a item that can be contained in Dictionary.">
<polygon fill="white" stroke="#666666" points="131.5,-202 12,-202 12,-182 131.5,-182 131.5,-202"/>
<text text-anchor="middle" x="71.75" y="-188.5" font-family="Helvetica,sans-Serif" font-size="10.00">Cpl::Container::DictItem</text>
</a>
</g>
</g>
<!-- Node4&#45;&gt;Node3 -->
<g id="edge3_Node000003_Node000004" class="edge">
<title>Node4&#45;&gt;Node3</title>
<g id="a_edge3_Node000003_Node000004"><a xlink:title=" ">
<path fill="none" stroke="#63b8ff" d="M73.23,-170.69C73.86,-161.97 74.57,-152.22 75.08,-145.28"/>
<polygon fill="#63b8ff" stroke="#63b8ff" points="69.75,-170.18 72.52,-180.41 76.74,-170.69 69.75,-170.18"/>
</a>
</g>
</g>
<!-- Node5 -->
<g id="Node000005" class="node">
<title>Node5</title>
<g id="a_Node000005"><a xlink:href="class_cpl_1_1_container_1_1_extended_item.html" target="_top" xlink:title="This class is used by the Container classes to implement a various types of DOUBLY linked containers.">
<polygon fill="white" stroke="#666666" points="143.5,-259 0,-259 0,-239 143.5,-239 143.5,-259"/>
<text text-anchor="middle" x="71.75" y="-245.5" font-family="Helvetica,sans-Serif" font-size="10.00">Cpl::Container::ExtendedItem</text>
</a>
</g>
</g>
<!-- Node5&#45;&gt;Node4 -->
<g id="edge4_Node000004_Node000005" class="edge">
<title>Node5&#45;&gt;Node4</title>
<g id="a_edge4_Node000004_Node000005"><a xlink:title=" ">
<path fill="none" stroke="#63b8ff" d="M71.75,-227.69C71.75,-218.97 71.75,-209.22 71.75,-202.28"/>
<polygon fill="#63b8ff" stroke="#63b8ff" points="68.25,-227.4 71.75,-237.4 75.25,-227.4 68.25,-227.4"/>
</a>
</g>
</g>
<!-- Node6 -->
<g id="Node000006" class="node">
<title>Node6</title>
<g id="a_Node000006"><a xlink:href="class_cpl_1_1_container_1_1_item.html" target="_top" xlink:title="This class is used by the Container classes to implement a various types of singly linked containers.">
<polygon fill="white" stroke="#666666" points="122.88,-316 20.62,-316 20.62,-296 122.88,-296 122.88,-316"/>
<text text-anchor="middle" x="71.75" y="-302.5" font-family="Helvetica,sans-Serif" font-size="10.00">Cpl::Container::Item</text>
</a>
</g>
</g>
<!-- Node6&#45;&gt;Node5 -->
<g id="edge5_Node000005_Node000006" class="edge">
<title>Node6&#45;&gt;Node5</title>
<g id="a_edge5_Node000005_Node000006"><a xlink:title=" ">
<path fill="none" stroke="#63b8ff" d="M71.75,-284.69C71.75,-275.97 71.75,-266.22 71.75,-259.28"/>
<polygon fill="#63b8ff" stroke="#63b8ff" points="68.25,-284.4 71.75,-294.4 75.25,-284.4 68.25,-284.4"/>
</a>
</g>
</g>
<!-- Node7 -->
<g id="Node000007" class="node">
<title>Node7</title>
<g id="a_Node000007"><a xlink:href="class_cpl_1_1_text_1_1_string.html" target="_top" xlink:title="This abstract class defines the operations that can be before on a NULL terminated string.">
<polygon fill="white" stroke="#666666" points="242,-145 155.5,-145 155.5,-125 242,-125 242,-145"/>
<text text-anchor="middle" x="198.75" y="-131.5" font-family="Helvetica,sans-Serif" font-size="10.00">Cpl::Text::String</text>
</a>
</g>
</g>
<!-- Node7&#45;&gt;Node2 -->
<g id="edge6_Node000002_Node000007" class="edge">
<title>Node7&#45;&gt;Node2</title>
<g id="a_edge6_Node000002_Node000007"><a xlink:title=" ">
<path fill="none" stroke="#9a32cd" stroke-dasharray="5,2" d="M181.81,-116.25C169.88,-103.76 154.39,-87.53 144.76,-77.44"/>
<polygon fill="#9a32cd" stroke="#9a32cd" points="179.24,-118.63 188.68,-123.45 184.31,-113.8 179.24,-118.63"/>
</a>
</g>
<text text-anchor="middle" x="201.5" y="-97.5" font-family="Helvetica,sans-Serif" font-size="10.00" fill="grey"> m_myString</text>
</g>
<!-- Node8 -->
<g id="Node000008" class="node">
<title>Node8</title>
<g id="a_Node000008"><a xlink:href="class_cpl_1_1_container_1_1_key.html" target="_top" xlink:title="This abstract class defines the interface that a contained object must support if it has comparable k...">
<polygon fill="white" stroke="#666666" points="250.12,-202 149.38,-202 149.38,-182 250.12,-182 250.12,-202"/>
<text text-anchor="middle" x="199.75" y="-188.5" font-family="Helvetica,sans-Serif" font-size="10.00">Cpl::Container::Key</text>
</a>
</g>
</g>
<!-- Node8&#45;&gt;Node7 -->
<g id="edge7_Node000007_Node000008" class="edge">
<title>Node8&#45;&gt;Node7</title>
<g id="a_edge7_Node000007_Node000008"><a xlink:title=" ">
<path fill="none" stroke="#63b8ff" d="M199.38,-170.69C199.22,-161.97 199.04,-152.22 198.92,-145.28"/>
<polygon fill="#63b8ff" stroke="#63b8ff" points="195.88,-170.47 199.56,-180.4 202.87,-170.34 195.88,-170.47"/>
</a>
</g>
</g>
</g>
</svg>
