<?xml version="1.0" encoding="UTF-8" standalone="no"?>
<!DOCTYPE svg PUBLIC "-//W3C//DTD SVG 1.1//EN"
 "http://www.w3.org/Graphics/SVG/1.1/DTD/svg11.dtd">
<!-- Generated by graphviz version 10.0.1 (20240210.2158)
 -->
<!-- Title: Cpl::Itc::CloseSync Pages: 1 -->
<svg width="463pt" height="153pt"
 viewBox="0.00 0.00 462.88 153.00" xmlns="http://www.w3.org/2000/svg" xmlns:xlink="http://www.w3.org/1999/xlink">
<g id="graph0" class="graph" transform="scale(1 1) rotate(0) translate(4 149)">
<title>Cpl::Itc::CloseSync</title>
<!-- Node1 -->
<g id="Node000001" class="node">
<title>Node1</title>
<g id="a_Node000001"><a xlink:title="This partially concrete class implements the synchronous ITC close call for the CloseApi.">
<polygon fill="#999999" stroke="#666666" points="327.12,-20 227.12,-20 227.12,0 327.12,0 327.12,-20"/>
<text text-anchor="middle" x="277.12" y="-6.5" font-family="Helvetica,sans-Serif" font-size="10.00">Cpl::Itc::CloseSync</text>
</a>
</g>
</g>
<!-- Node2 -->
<g id="Node000002" class="node">
<title>Node2</title>
<g id="a_Node000002"><a xlink:href="class_cpl_1_1_itc_1_1_open_sync.html" target="_top" xlink:title="This partially concrete class implements the synchronous ITC open call for the OpenApi.">
<polygon fill="white" stroke="#666666" points="213.38,-77 114.88,-77 114.88,-57 213.38,-57 213.38,-77"/>
<text text-anchor="middle" x="164.12" y="-63.5" font-family="Helvetica,sans-Serif" font-size="10.00">Cpl::Itc::OpenSync</text>
</a>
</g>
</g>
<!-- Node2&#45;&gt;Node1 -->
<g id="edge1_Node000001_Node000002" class="edge">
<title>Node2&#45;&gt;Node1</title>
<g id="a_edge1_Node000001_Node000002"><a xlink:title=" ">
<path fill="none" stroke="#63b8ff" d="M193.82,-51.55C214.1,-41.67 240.38,-28.88 257.95,-20.33"/>
<polygon fill="#63b8ff" stroke="#63b8ff" points="192.37,-48.36 184.91,-55.88 195.43,-54.65 192.37,-48.36"/>
</a>
</g>
</g>
<!-- Node3 -->
<g id="Node000003" class="node">
<title>Node3</title>
<g id="a_Node000003"><a xlink:href="class_cpl_1_1_itc_1_1_open_api.html" target="_top" xlink:title="This abstract class defines an open interface.">
<polygon fill="white" stroke="#666666" points="90.25,-145 0,-145 0,-125 90.25,-125 90.25,-145"/>
<text text-anchor="middle" x="45.12" y="-131.5" font-family="Helvetica,sans-Serif" font-size="10.00">Cpl::Itc::OpenApi</text>
</a>
</g>
</g>
<!-- Node3&#45;&gt;Node2 -->
<g id="edge2_Node000002_Node000003" class="edge">
<title>Node3&#45;&gt;Node2</title>
<g id="a_edge2_Node000002_Node000003"><a xlink:title=" ">
<path fill="none" stroke="#63b8ff" d="M72.01,-119.09C95.04,-106.32 127.5,-88.31 147.11,-77.44"/>
<polygon fill="#63b8ff" stroke="#63b8ff" points="70.55,-115.9 63.5,-123.81 73.94,-122.02 70.55,-115.9"/>
</a>
</g>
</g>
<!-- Node4 -->
<g id="Node000004" class="node">
<title>Node4</title>
<g id="a_Node000004"><a xlink:href="class_cpl_1_1_itc_1_1_open_request.html" target="_top" xlink:title="This abstract class define message types and payloads for a set of ITC services.">
<polygon fill="white" stroke="#666666" points="220.12,-145 108.12,-145 108.12,-125 220.12,-125 220.12,-145"/>
<text text-anchor="middle" x="164.12" y="-131.5" font-family="Helvetica,sans-Serif" font-size="10.00">Cpl::Itc::OpenRequest</text>
</a>
</g>
</g>
<!-- Node4&#45;&gt;Node2 -->
<g id="edge3_Node000002_Node000004" class="edge">
<title>Node4&#45;&gt;Node2</title>
<g id="a_edge3_Node000002_Node000004"><a xlink:title=" ">
<path fill="none" stroke="#63b8ff" d="M164.12,-113.28C164.12,-101.27 164.12,-86.74 164.12,-77.44"/>
<polygon fill="#63b8ff" stroke="#63b8ff" points="160.63,-113.03 164.13,-123.03 167.63,-113.03 160.63,-113.03"/>
</a>
</g>
</g>
<!-- Node5 -->
<g id="Node000005" class="node">
<title>Node5</title>
<g id="a_Node000005"><a xlink:href="class_cpl_1_1_itc_1_1_post_api.html" target="_top" xlink:title="This abstract class represents the interface used to send messages to a mailbox.">
<polygon fill="white" stroke="#666666" points="325.75,-145 238.5,-145 238.5,-125 325.75,-125 325.75,-145"/>
<text text-anchor="middle" x="282.12" y="-131.5" font-family="Helvetica,sans-Serif" font-size="10.00">Cpl::Itc::PostApi</text>
</a>
</g>
</g>
<!-- Node5&#45;&gt;Node2 -->
<g id="edge4_Node000002_Node000005" class="edge">
<title>Node5&#45;&gt;Node2</title>
<g id="a_edge4_Node000002_Node000005"><a xlink:title=" ">
<path fill="none" stroke="#9a32cd" stroke-dasharray="5,2" d="M255.46,-119.09C232.63,-106.32 200.44,-88.31 181,-77.44"/>
<polygon fill="#9a32cd" stroke="#9a32cd" points="253.46,-121.98 263.9,-123.8 256.88,-115.87 253.46,-121.98"/>
</a>
</g>
<text text-anchor="middle" x="254.38" y="-97.5" font-family="Helvetica,sans-Serif" font-size="10.00" fill="grey"> m_mbox</text>
</g>
<!-- Node6 -->
<g id="Node000006" class="node">
<title>Node6</title>
<g id="a_Node000006"><a xlink:href="class_cpl_1_1_itc_1_1_close_api.html" target="_top" xlink:title="This abstract class defines an close interface.">
<polygon fill="white" stroke="#666666" points="323,-77 231.25,-77 231.25,-57 323,-57 323,-77"/>
<text text-anchor="middle" x="277.12" y="-63.5" font-family="Helvetica,sans-Serif" font-size="10.00">Cpl::Itc::CloseApi</text>
</a>
</g>
</g>
<!-- Node6&#45;&gt;Node1 -->
<g id="edge5_Node000001_Node000006" class="edge">
<title>Node6&#45;&gt;Node1</title>
<g id="a_edge5_Node000001_Node000006"><a xlink:title=" ">
<path fill="none" stroke="#63b8ff" d="M277.12,-45.69C277.12,-36.97 277.12,-27.22 277.12,-20.28"/>
<polygon fill="#63b8ff" stroke="#63b8ff" points="273.63,-45.4 277.13,-55.4 280.63,-45.4 273.63,-45.4"/>
</a>
</g>
</g>
<!-- Node7 -->
<g id="Node000007" class="node">
<title>Node7</title>
<g id="a_Node000007"><a xlink:href="class_cpl_1_1_itc_1_1_close_request.html" target="_top" xlink:title="This abstract class define message types and payloads for a set of ITC services.">
<polygon fill="white" stroke="#666666" points="454.88,-77 341.38,-77 341.38,-57 454.88,-57 454.88,-77"/>
<text text-anchor="middle" x="398.12" y="-63.5" font-family="Helvetica,sans-Serif" font-size="10.00">Cpl::Itc::CloseRequest</text>
</a>
</g>
</g>
<!-- Node7&#45;&gt;Node1 -->
<g id="edge6_Node000001_Node000007" class="edge">
<title>Node7&#45;&gt;Node1</title>
<g id="a_edge6_Node000001_Node000007"><a xlink:title=" ">
<path fill="none" stroke="#63b8ff" d="M366.93,-51.82C345.13,-41.91 316.64,-28.96 297.65,-20.33"/>
<polygon fill="#63b8ff" stroke="#63b8ff" points="365.39,-54.97 375.95,-55.92 368.29,-48.59 365.39,-54.97"/>
</a>
</g>
</g>
</g>
</svg>
