<?xml version="1.0" encoding="UTF-8" standalone="no"?>
<!DOCTYPE svg PUBLIC "-//W3C//DTD SVG 1.1//EN"
 "http://www.w3.org/Graphics/SVG/1.1/DTD/svg11.dtd">
<!-- Generated by graphviz version 10.0.1 (20240210.2158)
 -->
<!-- Title: Cpl::Dm::ModelDatabase Pages: 1 -->
<svg width="595pt" height="116pt"
 viewBox="0.00 0.00 595.25 116.00" xmlns="http://www.w3.org/2000/svg" xmlns:xlink="http://www.w3.org/1999/xlink">
<g id="graph0" class="graph" transform="scale(1 1) rotate(0) translate(4 112)">
<title>Cpl::Dm::ModelDatabase</title>
<!-- Node1 -->
<g id="Node000001" class="node">
<title>Node1</title>
<g id="a_Node000001"><a xlink:title="This concrete class implements a simple Model Database.">
<polygon fill="#999999" stroke="#666666" points="587.25,-64 462.5,-64 462.5,-44 587.25,-44 587.25,-64"/>
<text text-anchor="middle" x="524.88" y="-50.5" font-family="Helvetica,sans-Serif" font-size="10.00">Cpl::Dm::ModelDatabase</text>
</a>
</g>
</g>
<!-- Node2 -->
<g id="Node000002" class="node">
<title>Node2</title>
<g id="a_Node000002"><a xlink:href="class_cpl_1_1_dm_1_1_model_database_api.html" target="_top" xlink:title="This class defines the basic operations that can be performed on a Model Base.">
<polygon fill="white" stroke="#666666" points="392,-108 253,-108 253,-88 392,-88 392,-108"/>
<text text-anchor="middle" x="322.5" y="-94.5" font-family="Helvetica,sans-Serif" font-size="10.00">Cpl::Dm::ModelDatabaseApi</text>
</a>
</g>
</g>
<!-- Node2&#45;&gt;Node1 -->
<g id="edge1_Node000001_Node000002" class="edge">
<title>Node2&#45;&gt;Node1</title>
<g id="a_edge1_Node000001_Node000002"><a xlink:title=" ">
<path fill="none" stroke="#63b8ff" d="M382.37,-85.07C412.23,-78.52 448.03,-70.65 476.15,-64.48"/>
<polygon fill="#63b8ff" stroke="#63b8ff" points="381.74,-81.63 372.72,-87.19 383.24,-88.47 381.74,-81.63"/>
</a>
</g>
</g>
<!-- Node3 -->
<g id="Node000003" class="node">
<title>Node3</title>
<g id="a_Node000003"><a xlink:href="class_cpl_1_1_container_1_1_s_list.html" target="_top" xlink:title=" ">
<polygon fill="white" stroke="#666666" points="384.5,-70 260.5,-70 260.5,-38 384.5,-38 384.5,-70"/>
<text text-anchor="start" x="268.5" y="-56.5" font-family="Helvetica,sans-Serif" font-size="10.00">Cpl::Container::SList</text>
<text text-anchor="middle" x="322.5" y="-44.5" font-family="Helvetica,sans-Serif" font-size="10.00">&lt; Cpl::Dm::ModelPoint &gt;</text>
</a>
</g>
</g>
<!-- Node3&#45;&gt;Node1 -->
<g id="edge2_Node000001_Node000003" class="edge">
<title>Node3&#45;&gt;Node1</title>
<g id="a_edge2_Node000001_Node000003"><a xlink:title=" ">
<path fill="none" stroke="#9a32cd" stroke-dasharray="5,2" d="M396.41,-54C417.98,-54 441.38,-54 462.17,-54"/>
<polygon fill="#9a32cd" stroke="#9a32cd" points="396.49,-50.5 386.49,-54 396.49,-57.5 396.49,-50.5"/>
</a>
</g>
<text text-anchor="middle" x="427.25" y="-56.5" font-family="Helvetica,sans-Serif" font-size="10.00" fill="grey"> m_list</text>
</g>
<!-- Node4 -->
<g id="Node000004" class="node">
<title>Node4</title>
<g id="a_Node000004"><a xlink:href="class_cpl_1_1_container_1_1_s_list.html" target="_top" xlink:title="This template class implements a singly linked list which maintains the ordering imposed on it by the...">
<polygon fill="white" stroke="#666666" points="106,-70 0,-70 0,-38 106,-38 106,-70"/>
<text text-anchor="start" x="8" y="-56.5" font-family="Helvetica,sans-Serif" font-size="10.00">Cpl::Container::SList</text>
<text text-anchor="middle" x="53" y="-44.5" font-family="Helvetica,sans-Serif" font-size="10.00">&lt; ITEM &gt;</text>
</a>
</g>
</g>
<!-- Node4&#45;&gt;Node3 -->
<g id="edge3_Node000003_Node000004" class="edge">
<title>Node4&#45;&gt;Node3</title>
<g id="a_edge3_Node000003_Node000004"><a xlink:title=" ">
<path fill="none" stroke="orange" stroke-dasharray="5,2" d="M117.7,-54C160.8,-54 217.42,-54 260.04,-54"/>
<polygon fill="orange" stroke="orange" points="117.73,-50.5 107.73,-54 117.73,-57.5 117.73,-50.5"/>
</a>
</g>
<text text-anchor="middle" x="179.5" y="-56.5" font-family="Helvetica,sans-Serif" font-size="10.00" fill="grey"> &lt; Cpl::Dm::ModelPoint &gt;</text>
</g>
<!-- Node5 -->
<g id="Node000005" class="node">
<title>Node5</title>
<g id="a_Node000005"><a xlink:href="class_cpl_1_1_system_1_1_mutex.html" target="_top" xlink:title="This mutex class defines the interface for a mutex that has &quot;recursive&quot; semantics.">
<polygon fill="white" stroke="#666666" points="374,-20 271,-20 271,0 374,0 374,-20"/>
<text text-anchor="middle" x="322.5" y="-6.5" font-family="Helvetica,sans-Serif" font-size="10.00">Cpl::System::Mutex</text>
</a>
</g>
</g>
<!-- Node5&#45;&gt;Node1 -->
<g id="edge4_Node000001_Node000005" class="edge">
<title>Node5&#45;&gt;Node1</title>
<g id="a_edge4_Node000001_Node000005"><a xlink:title=" ">
<path fill="none" stroke="#9a32cd" stroke-dasharray="5,2" d="M382.37,-22.93C412.23,-29.48 448.03,-37.35 476.15,-43.52"/>
<polygon fill="#9a32cd" stroke="#9a32cd" points="383.24,-19.53 372.72,-20.81 381.74,-26.37 383.24,-19.53"/>
</a>
</g>
<text text-anchor="middle" x="427.25" y="-38.5" font-family="Helvetica,sans-Serif" font-size="10.00" fill="grey"> m_lock</text>
</g>
</g>
</svg>
