<?xml version="1.0" encoding="UTF-8" standalone="no"?>
<!DOCTYPE svg PUBLIC "-//W3C//DTD SVG 1.1//EN"
 "http://www.w3.org/Graphics/SVG/1.1/DTD/svg11.dtd">
<!-- Generated by graphviz version 2.38.0 (20140413.2041)
 -->
<!-- Title: Cpl::Dm::Mp::Float Pages: 1 -->
<svg width="235pt" height="345pt"
 viewBox="0.00 0.00 235.00 345.00" xmlns="http://www.w3.org/2000/svg" xmlns:xlink="http://www.w3.org/1999/xlink">
<g id="graph0" class="graph" transform="scale(1 1) rotate(0) translate(4 341)">
<title>Cpl::Dm::Mp::Float</title>
<polygon fill="white" stroke="none" points="-4,4 -4,-341 231,-341 231,4 -4,4"/>
<!-- Node1 -->
<g id="node1" class="node"><title>Node1</title>
<g id="a_node1"><a xlink:title="This class provides a concrete implementation for a Point who&#39;s data is a float.">
<polygon fill="#bfbfbf" stroke="black" points="46,-0.5 46,-19.5 145,-19.5 145,-0.5 46,-0.5"/>
<text text-anchor="middle" x="95.5" y="-7.5" font-family="Helvetica,sans-Serif" font-size="10.00">Cpl::Dm::Mp::Float</text>
</a>
</g>
</g>
<!-- Node2 -->
<g id="node2" class="node"><title>Node2</title>
<g id="a_node2"><a xlink:href="class_cpl_1_1_dm_1_1_mp_1_1_numeric.html" target="_top" xlink:title=" ">
<polygon fill="white" stroke="black" points="39,-57.5 39,-87.5 152,-87.5 152,-57.5 39,-57.5"/>
<text text-anchor="start" x="47" y="-75.5" font-family="Helvetica,sans-Serif" font-size="10.00">Cpl::Dm::Mp::Numeric</text>
<text text-anchor="middle" x="95.5" y="-64.5" font-family="Helvetica,sans-Serif" font-size="10.00">&lt; float, Float &gt;</text>
</a>
</g>
</g>
<!-- Node2&#45;&gt;Node1 -->
<g id="edge1" class="edge"><title>Node2&#45;&gt;Node1</title>
<path fill="none" stroke="midnightblue" d="M95.5,-47.3524C95.5,-37.5132 95.5,-26.7753 95.5,-19.5399"/>
<polygon fill="midnightblue" stroke="midnightblue" points="92.0001,-47.468 95.5,-57.468 99.0001,-47.4681 92.0001,-47.468"/>
</g>
<!-- Node3 -->
<g id="node3" class="node"><title>Node3</title>
<g id="a_node3"><a xlink:href="class_cpl_1_1_dm_1_1_model_point_common__.html" target="_top" xlink:title="This concrete class provide common infrastructure for a Model Point.">
<polygon fill="white" stroke="black" points="0,-203.5 0,-222.5 151,-222.5 151,-203.5 0,-203.5"/>
<text text-anchor="middle" x="75.5" y="-210.5" font-family="Helvetica,sans-Serif" font-size="10.00">Cpl::Dm::ModelPointCommon_</text>
</a>
</g>
</g>
<!-- Node3&#45;&gt;Node2 -->
<g id="edge2" class="edge"><title>Node3&#45;&gt;Node2</title>
<path fill="none" stroke="midnightblue" d="M76.6019,-193.008C77.6584,-177.378 79.5369,-154.674 82.5,-135 84.9704,-118.597 89.0902,-99.9916 92.0299,-87.5816"/>
<polygon fill="midnightblue" stroke="midnightblue" points="73.0822,-193.215 75.9499,-203.415 80.0685,-193.653 73.0822,-193.215"/>
</g>
<!-- Node6 -->
<g id="node6" class="node"><title>Node6</title>
<g id="a_node6"><a xlink:href="class_cpl_1_1_dm_1_1_mp_1_1_numeric.html" target="_top" xlink:title="This template class provides a mostly concrete implementation for a Model Point who&#39;s data is a C num...">
<polygon fill="white" stroke="black" points="92,-135.5 92,-165.5 227,-165.5 227,-135.5 92,-135.5"/>
<text text-anchor="start" x="100" y="-153.5" font-family="Helvetica,sans-Serif" font-size="10.00">Cpl::Dm::Mp::Numeric</text>
<text text-anchor="middle" x="159.5" y="-142.5" font-family="Helvetica,sans-Serif" font-size="10.00">&lt; ELEMTYPE, MPTYPE &gt;</text>
</a>
</g>
</g>
<!-- Node3&#45;&gt;Node6 -->
<g id="edge6" class="edge"><title>Node3&#45;&gt;Node6</title>
<path fill="none" stroke="midnightblue" d="M95.6917,-197.457C109.143,-187.769 126.725,-175.106 140.026,-165.526"/>
<polygon fill="midnightblue" stroke="midnightblue" points="93.6041,-194.647 87.5352,-203.332 97.6951,-200.328 93.6041,-194.647"/>
</g>
<!-- Node4 -->
<g id="node4" class="node"><title>Node4</title>
<g id="a_node4"><a xlink:href="class_cpl_1_1_dm_1_1_model_point.html" target="_top" xlink:title="This mostly abstract class defines the interface for a Model Point.">
<polygon fill="white" stroke="black" points="22,-260.5 22,-279.5 129,-279.5 129,-260.5 22,-260.5"/>
<text text-anchor="middle" x="75.5" y="-267.5" font-family="Helvetica,sans-Serif" font-size="10.00">Cpl::Dm::ModelPoint</text>
</a>
</g>
</g>
<!-- Node4&#45;&gt;Node3 -->
<g id="edge3" class="edge"><title>Node4&#45;&gt;Node3</title>
<path fill="none" stroke="midnightblue" d="M75.5,-250.117C75.5,-240.817 75.5,-230.056 75.5,-222.715"/>
<polygon fill="midnightblue" stroke="midnightblue" points="72.0001,-250.406 75.5,-260.406 79.0001,-250.406 72.0001,-250.406"/>
</g>
<!-- Node5 -->
<g id="node5" class="node"><title>Node5</title>
<g id="a_node5"><a xlink:href="class_cpl_1_1_container_1_1_item.html" target="_top" xlink:title="This class is used by the Container classes to implement a various types of singly linked containers.">
<polygon fill="white" stroke="black" points="23.5,-317.5 23.5,-336.5 127.5,-336.5 127.5,-317.5 23.5,-317.5"/>
<text text-anchor="middle" x="75.5" y="-324.5" font-family="Helvetica,sans-Serif" font-size="10.00">Cpl::Container::Item</text>
</a>
</g>
</g>
<!-- Node5&#45;&gt;Node4 -->
<g id="edge4" class="edge"><title>Node5&#45;&gt;Node4</title>
<path fill="none" stroke="midnightblue" d="M75.5,-307.117C75.5,-297.817 75.5,-287.056 75.5,-279.715"/>
<polygon fill="midnightblue" stroke="midnightblue" points="72.0001,-307.406 75.5,-317.406 79.0001,-307.406 72.0001,-307.406"/>
</g>
<!-- Node6&#45;&gt;Node2 -->
<g id="edge5" class="edge"><title>Node6&#45;&gt;Node2</title>
<path fill="none" stroke="orange" stroke-dasharray="5,2" d="M140.811,-127.307C130.054,-114.533 116.855,-98.8596 107.484,-87.7309"/>
<polygon fill="orange" stroke="orange" points="138.344,-129.81 147.462,-135.205 143.698,-125.301 138.344,-129.81"/>
<text text-anchor="middle" x="164.5" y="-109" font-family="Helvetica,sans-Serif" font-size="10.00"> &lt; float, Float &gt;</text>
</g>
</g>
</svg>
