<?xml version="1.0" encoding="UTF-8" standalone="no"?>
<!DOCTYPE svg PUBLIC "-//W3C//DTD SVG 1.1//EN"
 "http://www.w3.org/Graphics/SVG/1.1/DTD/svg11.dtd">
<!-- Generated by graphviz version 2.38.0 (20140413.2041)
 -->
<!-- Title: Cpl::Dm::Mp::BitArray16 Pages: 1 -->
<svg width="1700pt" height="130pt"
 viewBox="0.00 0.00 1700.00 129.50" xmlns="http://www.w3.org/2000/svg" xmlns:xlink="http://www.w3.org/1999/xlink">
<g id="graph0" class="graph" transform="scale(1 1) rotate(0) translate(4 125.5)">
<title>Cpl::Dm::Mp::BitArray16</title>
<polygon fill="white" stroke="none" points="-4,4 -4,-125.5 1696,-125.5 1696,4 -4,4"/>
<!-- Node1 -->
<g id="node1" class="node"><title>Node1</title>
<g id="a_node1"><a xlink:title="This template class provides a concrete implementation for a Point who&#39;s data is a a bit array of N b...">
<polygon fill="#bfbfbf" stroke="black" points="1569,-78.5 1569,-97.5 1692,-97.5 1692,-78.5 1569,-78.5"/>
<text text-anchor="middle" x="1630.5" y="-85.5" font-family="Helvetica,sans-Serif" font-size="10.00">Cpl::Dm::Mp::BitArray16</text>
</a>
</g>
</g>
<!-- Node2 -->
<g id="node2" class="node"><title>Node2</title>
<g id="a_node2"><a xlink:href="class_cpl_1_1_dm_1_1_mp_1_1_bit_array__.html" target="_top" xlink:title=" ">
<polygon fill="white" stroke="black" points="1406,-73 1406,-103 1532,-103 1532,-73 1406,-73"/>
<text text-anchor="start" x="1414" y="-91" font-family="Helvetica,sans-Serif" font-size="10.00">Cpl::Dm::Mp::BitArray</text>
<text text-anchor="middle" x="1469" y="-80" font-family="Helvetica,sans-Serif" font-size="10.00">_&lt; uint16_t, BitArray16 &gt;</text>
</a>
</g>
</g>
<!-- Node2&#45;&gt;Node1 -->
<g id="edge1" class="edge"><title>Node2&#45;&gt;Node1</title>
<path fill="none" stroke="midnightblue" d="M1542.13,-88C1551.06,-88 1560.12,-88 1568.86,-88"/>
<polygon fill="midnightblue" stroke="midnightblue" points="1542.12,-84.5001 1532.12,-88 1542.12,-91.5001 1542.12,-84.5001"/>
</g>
<!-- Node3 -->
<g id="node3" class="node"><title>Node3</title>
<g id="a_node3"><a xlink:href="class_cpl_1_1_dm_1_1_mp_1_1_numeric.html" target="_top" xlink:title="This template class provides a mostly concrete implementation for a Model Point who&#39;s data is a C num...">
<polygon fill="white" stroke="black" points="798,-91 798,-121 933,-121 933,-91 798,-91"/>
<text text-anchor="start" x="806" y="-109" font-family="Helvetica,sans-Serif" font-size="10.00">Cpl::Dm::Mp::Numeric</text>
<text text-anchor="middle" x="865.5" y="-98" font-family="Helvetica,sans-Serif" font-size="10.00">&lt; ELEMTYPE, MPTYPE &gt;</text>
</a>
</g>
</g>
<!-- Node3&#45;&gt;Node2 -->
<g id="edge2" class="edge"><title>Node3&#45;&gt;Node2</title>
<path fill="none" stroke="midnightblue" d="M943.381,-104.492C1045.12,-102.368 1230.06,-98.0675 1388,-92 1393.84,-91.7758 1399.91,-91.5175 1405.99,-91.2423"/>
<polygon fill="midnightblue" stroke="midnightblue" points="943.122,-100.996 933.197,-104.703 943.267,-107.995 943.122,-100.996"/>
</g>
<!-- Node4 -->
<g id="node4" class="node"><title>Node4</title>
<g id="a_node4"><a xlink:href="class_cpl_1_1_dm_1_1_model_point_common__.html" target="_top" xlink:title="This concrete class provide common infrastructure for a Model Point.">
<polygon fill="white" stroke="black" points="457,-58.5 457,-77.5 608,-77.5 608,-58.5 457,-58.5"/>
<text text-anchor="middle" x="532.5" y="-65.5" font-family="Helvetica,sans-Serif" font-size="10.00">Cpl::Dm::ModelPointCommon_</text>
</a>
</g>
</g>
<!-- Node4&#45;&gt;Node3 -->
<g id="edge3" class="edge"><title>Node4&#45;&gt;Node3</title>
<path fill="none" stroke="midnightblue" d="M603.553,-78.9796C611.122,-80.0534 618.717,-81.083 626,-82 683.908,-89.2913 749.95,-95.7969 797.833,-100.189"/>
<polygon fill="midnightblue" stroke="midnightblue" points="604.044,-75.5142 593.646,-77.5482 603.043,-82.4423 604.044,-75.5142"/>
</g>
<!-- Node11 -->
<g id="node11" class="node"><title>Node11</title>
<g id="a_node11"><a xlink:href="class_cpl_1_1_dm_1_1_mp_1_1_numeric.html" target="_top" xlink:title=" ">
<polygon fill="white" stroke="black" points="951,-47 951,-77 1085,-77 1085,-47 951,-47"/>
<text text-anchor="start" x="959" y="-65" font-family="Helvetica,sans-Serif" font-size="10.00">Cpl::Dm::Mp::Numeric</text>
<text text-anchor="middle" x="1018" y="-54" font-family="Helvetica,sans-Serif" font-size="10.00">&lt; WORDSIZE, MPTYPE &gt;</text>
</a>
</g>
</g>
<!-- Node4&#45;&gt;Node11 -->
<g id="edge11" class="edge"><title>Node4&#45;&gt;Node11</title>
<path fill="none" stroke="midnightblue" d="M618.371,-66.9468C713.059,-65.7718 864.263,-63.8954 950.677,-62.823"/>
<polygon fill="midnightblue" stroke="midnightblue" points="618.207,-63.4485 608.252,-67.0724 618.294,-70.4479 618.207,-63.4485"/>
</g>
<!-- Node12 -->
<g id="node12" class="node"><title>Node12</title>
<g id="a_node12"><a xlink:href="class_cpl_1_1_dm_1_1_mp_1_1_numeric.html" target="_top" xlink:title="This template class provides a mostly concrete implementation for a Model Point who&#39;s data is a C num...">
<polygon fill="white" stroke="black" points="645,-9 645,-39 780,-39 780,-9 645,-9"/>
<text text-anchor="start" x="653" y="-27" font-family="Helvetica,sans-Serif" font-size="10.00">Cpl::Dm::Mp::Numeric</text>
<text text-anchor="middle" x="712.5" y="-16" font-family="Helvetica,sans-Serif" font-size="10.00">&lt; ELEMTYPE, MPTYPE &gt;</text>
</a>
</g>
</g>
<!-- Node4&#45;&gt;Node12 -->
<g id="edge13" class="edge"><title>Node4&#45;&gt;Node12</title>
<path fill="none" stroke="midnightblue" d="M581.864,-56.045C603.038,-50.8108 628.12,-44.6107 650.554,-39.0654"/>
<polygon fill="midnightblue" stroke="midnightblue" points="580.991,-52.6552 572.123,-58.4527 582.671,-59.4506 580.991,-52.6552"/>
</g>
<!-- Node5 -->
<g id="node5" class="node"><title>Node5</title>
<g id="a_node5"><a xlink:href="class_cpl_1_1_dm_1_1_model_point.html" target="_top" xlink:title="This mostly abstract class defines the interface for a Model Point.">
<polygon fill="white" stroke="black" points="220,-76.5 220,-95.5 327,-95.5 327,-76.5 220,-76.5"/>
<text text-anchor="middle" x="273.5" y="-83.5" font-family="Helvetica,sans-Serif" font-size="10.00">Cpl::Dm::ModelPoint</text>
</a>
</g>
</g>
<!-- Node5&#45;&gt;Node4 -->
<g id="edge4" class="edge"><title>Node5&#45;&gt;Node4</title>
<path fill="none" stroke="midnightblue" d="M337.487,-81.5884C373.446,-79.07 418.748,-75.8971 456.531,-73.2508"/>
<polygon fill="midnightblue" stroke="midnightblue" points="336.859,-78.1238 327.128,-82.314 337.348,-85.1067 336.859,-78.1238"/>
</g>
<!-- Node6 -->
<g id="node6" class="node"><title>Node6</title>
<g id="a_node6"><a xlink:href="class_cpl_1_1_container_1_1_item.html" target="_top" xlink:title="This class is used by the Container classes to implement a various types of singly linked containers.">
<polygon fill="white" stroke="black" points="18,-76.5 18,-95.5 122,-95.5 122,-76.5 18,-76.5"/>
<text text-anchor="middle" x="70" y="-83.5" font-family="Helvetica,sans-Serif" font-size="10.00">Cpl::Container::Item</text>
</a>
</g>
</g>
<!-- Node6&#45;&gt;Node5 -->
<g id="edge5" class="edge"><title>Node6&#45;&gt;Node5</title>
<path fill="none" stroke="midnightblue" d="M132.16,-86C160.091,-86 192.85,-86 219.69,-86"/>
<polygon fill="midnightblue" stroke="midnightblue" points="132.107,-82.5001 122.107,-86 132.107,-89.5001 132.107,-82.5001"/>
</g>
<!-- Node7 -->
<g id="node7" class="node"><title>Node7</title>
<g id="a_node7"><a xlink:href="class_cpl_1_1_dm_1_1_model_database.html" target="_top" xlink:title="This concrete class implements a simple Model Database.">
<polygon fill="white" stroke="black" points="211,-38.5 211,-57.5 336,-57.5 336,-38.5 211,-38.5"/>
<text text-anchor="middle" x="273.5" y="-45.5" font-family="Helvetica,sans-Serif" font-size="10.00">Cpl::Dm::ModelDatabase</text>
</a>
</g>
</g>
<!-- Node7&#45;&gt;Node4 -->
<g id="edge6" class="edge"><title>Node7&#45;&gt;Node4</title>
<path fill="none" stroke="#9a32cd" stroke-dasharray="5,2" d="M346.236,-52.3245C375.078,-54.1865 408.633,-56.508 439,-59 444.789,-59.4751 450.779,-59.9945 456.799,-60.5365"/>
<polygon fill="#9a32cd" stroke="#9a32cd" points="346.447,-48.831 336.244,-51.6856 346,-55.8167 346.447,-48.831"/>
<text text-anchor="middle" x="396.5" y="-62" font-family="Helvetica,sans-Serif" font-size="10.00"> m_modelDatabase</text>
</g>
<!-- Node8 -->
<g id="node8" class="node"><title>Node8</title>
<g id="a_node8"><a xlink:href="class_cpl_1_1_dm_1_1_model_database_api.html" target="_top" xlink:title="This class defines the basic operations that can be performed on a Model Base.">
<polygon fill="white" stroke="black" points="0,-38.5 0,-57.5 140,-57.5 140,-38.5 0,-38.5"/>
<text text-anchor="middle" x="70" y="-45.5" font-family="Helvetica,sans-Serif" font-size="10.00">Cpl::Dm::ModelDatabaseApi</text>
</a>
</g>
</g>
<!-- Node8&#45;&gt;Node7 -->
<g id="edge7" class="edge"><title>Node8&#45;&gt;Node7</title>
<path fill="none" stroke="midnightblue" d="M150.179,-48C170.374,-48 191.783,-48 210.95,-48"/>
<polygon fill="midnightblue" stroke="midnightblue" points="150.063,-44.5001 140.063,-48 150.063,-51.5001 150.063,-44.5001"/>
</g>
<!-- Node9 -->
<g id="node9" class="node"><title>Node9</title>
<g id="a_node9"><a xlink:href="class_cpl_1_1_system_1_1_mutex.html" target="_top" xlink:title="This mutex class defines the interface for a mutex that has &quot;recursive&quot; semantics.">
<polygon fill="white" stroke="black" points="18,-0.5 18,-19.5 122,-19.5 122,-0.5 18,-0.5"/>
<text text-anchor="middle" x="70" y="-7.5" font-family="Helvetica,sans-Serif" font-size="10.00">Cpl::System::Mutex</text>
</a>
</g>
</g>
<!-- Node9&#45;&gt;Node7 -->
<g id="edge8" class="edge"><title>Node9&#45;&gt;Node7</title>
<path fill="none" stroke="#9a32cd" stroke-dasharray="5,2" d="M131.489,-21.4017C151.111,-25.101 172.98,-29.2241 193,-33 202.386,-34.7701 212.394,-36.6582 222.033,-38.4767"/>
<polygon fill="#9a32cd" stroke="#9a32cd" points="131.929,-17.9232 121.454,-19.51 130.632,-24.802 131.929,-17.9232"/>
<text text-anchor="middle" x="175.5" y="-36" font-family="Helvetica,sans-Serif" font-size="10.00"> m_lock</text>
</g>
<!-- Node10 -->
<g id="node10" class="node"><title>Node10</title>
<g id="a_node10"><a xlink:href="class_cpl_1_1_dm_1_1_mp_1_1_bit_array__.html" target="_top" xlink:title="This template class extends the Numeric&lt;&gt; class to provide bit operation on the numeric value.">
<polygon fill="white" stroke="black" points="1122,-47 1122,-77 1262,-77 1262,-47 1122,-47"/>
<text text-anchor="start" x="1130" y="-65" font-family="Helvetica,sans-Serif" font-size="10.00">Cpl::Dm::Mp::BitArray</text>
<text text-anchor="middle" x="1192" y="-54" font-family="Helvetica,sans-Serif" font-size="10.00">_&lt; WORDSIZE, MPTYPE &gt;</text>
</a>
</g>
</g>
<!-- Node10&#45;&gt;Node2 -->
<g id="edge9" class="edge"><title>Node10&#45;&gt;Node2</title>
<path fill="none" stroke="orange" stroke-dasharray="5,2" d="M1272.09,-69.4772C1314.64,-73.5006 1366.36,-78.3908 1405.98,-82.1361"/>
<polygon fill="orange" stroke="orange" points="1272.32,-65.9842 1262.04,-68.5273 1271.67,-72.9531 1272.32,-65.9842"/>
<text text-anchor="middle" x="1334" y="-83" font-family="Helvetica,sans-Serif" font-size="10.00"> &lt; uint16_t, BitArray16 &gt;</text>
</g>
<!-- Node11&#45;&gt;Node10 -->
<g id="edge10" class="edge"><title>Node11&#45;&gt;Node10</title>
<path fill="none" stroke="midnightblue" d="M1095.27,-62C1104.08,-62 1113.03,-62 1121.75,-62"/>
<polygon fill="midnightblue" stroke="midnightblue" points="1095.01,-58.5001 1085.01,-62 1095.01,-65.5001 1095.01,-58.5001"/>
</g>
<!-- Node12&#45;&gt;Node11 -->
<g id="edge12" class="edge"><title>Node12&#45;&gt;Node11</title>
<path fill="none" stroke="orange" stroke-dasharray="5,2" d="M790.282,-28.0774C832.558,-30.9662 885.863,-35.6639 933,-43 940.091,-44.1037 947.477,-45.4614 954.796,-46.9392"/>
<polygon fill="orange" stroke="orange" points="790.269,-24.569 780.06,-27.3993 789.806,-31.5536 790.269,-24.569"/>
<text text-anchor="middle" x="865.5" y="-46" font-family="Helvetica,sans-Serif" font-size="10.00"> &lt; WORDSIZE, MPTYPE &gt;</text>
</g>
</g>
</svg>
