<?xml version="1.0" encoding="UTF-8" standalone="no"?>
<!DOCTYPE svg PUBLIC "-//W3C//DTD SVG 1.1//EN"
 "http://www.w3.org/Graphics/SVG/1.1/DTD/svg11.dtd">
<!-- Generated by graphviz version 10.0.1 (20240210.2158)
 -->
<!-- Title: Cpl::System::CounterCallback_ Pages: 1 -->
<svg width="1124pt" height="333pt"
 viewBox="0.00 0.00 1123.50 333.00" xmlns="http://www.w3.org/2000/svg" xmlns:xlink="http://www.w3.org/1999/xlink">
<g id="graph0" class="graph" transform="scale(1 1) rotate(0) translate(4 329)">
<title>Cpl::System::CounterCallback_</title>
<!-- Node1 -->
<g id="Node000001" class="node">
<title>Node1</title>
<g id="a_Node000001"><a xlink:title="This abstract class defines the call&#45;back interface for a Counter object.">
<polygon fill="#999999" stroke="#666666" points="472.25,-130 319.75,-130 319.75,-110 472.25,-110 472.25,-130"/>
<text text-anchor="middle" x="396" y="-116.5" font-family="Helvetica,sans-Serif" font-size="10.00">Cpl::System::CounterCallback_</text>
</a>
</g>
</g>
<!-- Node4 -->
<g id="Node000004" class="node">
<title>Node4</title>
<g id="a_Node000004"><a xlink:href="class_cpl_1_1_system_1_1_timer.html" target="_top" xlink:title="This mostly concrete interface defines the operations that can be performed on a software timer.">
<polygon fill="white" stroke="#666666" points="609.25,-130 509.25,-130 509.25,-110 609.25,-110 609.25,-130"/>
<text text-anchor="middle" x="559.25" y="-116.5" font-family="Helvetica,sans-Serif" font-size="10.00">Cpl::System::Timer</text>
</a>
</g>
</g>
<!-- Node1&#45;&gt;Node4 -->
<g id="edge3_Node000001_Node000004" class="edge">
<title>Node1&#45;&gt;Node4</title>
<g id="a_edge3_Node000001_Node000004"><a xlink:title=" ">
<path fill="none" stroke="#63b8ff" d="M483.83,-120C492.49,-120 501.05,-120 509.11,-120"/>
<polygon fill="#63b8ff" stroke="#63b8ff" points="483.95,-116.5 473.95,-120 483.95,-123.5 483.95,-116.5"/>
</a>
</g>
</g>
<!-- Node2 -->
<g id="Node000002" class="node">
<title>Node2</title>
<g id="a_Node000002"><a xlink:href="class_cpl_1_1_container_1_1_extended_item.html" target="_top" xlink:title="This class is used by the Container classes to implement a various types of DOUBLY linked containers.">
<polygon fill="white" stroke="#666666" points="282.75,-130 139.25,-130 139.25,-110 282.75,-110 282.75,-130"/>
<text text-anchor="middle" x="211" y="-116.5" font-family="Helvetica,sans-Serif" font-size="10.00">Cpl::Container::ExtendedItem</text>
</a>
</g>
</g>
<!-- Node2&#45;&gt;Node1 -->
<g id="edge1_Node000001_Node000002" class="edge">
<title>Node2&#45;&gt;Node1</title>
<g id="a_edge1_Node000001_Node000002"><a xlink:title=" ">
<path fill="none" stroke="#63b8ff" d="M294.34,-120C302.71,-120 311.19,-120 319.48,-120"/>
<polygon fill="#63b8ff" stroke="#63b8ff" points="294.53,-116.5 284.53,-120 294.53,-123.5 294.53,-116.5"/>
</a>
</g>
</g>
<!-- Node3 -->
<g id="Node000003" class="node">
<title>Node3</title>
<g id="a_Node000003"><a xlink:href="class_cpl_1_1_container_1_1_item.html" target="_top" xlink:title="This class is used by the Container classes to implement a various types of singly linked containers.">
<polygon fill="white" stroke="#666666" points="102.25,-130 0,-130 0,-110 102.25,-110 102.25,-130"/>
<text text-anchor="middle" x="51.12" y="-116.5" font-family="Helvetica,sans-Serif" font-size="10.00">Cpl::Container::Item</text>
</a>
</g>
</g>
<!-- Node3&#45;&gt;Node2 -->
<g id="edge2_Node000002_Node000003" class="edge">
<title>Node3&#45;&gt;Node2</title>
<g id="a_edge2_Node000002_Node000003"><a xlink:title=" ">
<path fill="none" stroke="#63b8ff" d="M113.86,-120C122.04,-120 130.48,-120 138.8,-120"/>
<polygon fill="#63b8ff" stroke="#63b8ff" points="114.03,-116.5 104.03,-120 114.03,-123.5 114.03,-116.5"/>
</a>
</g>
</g>
<!-- Node5 -->
<g id="Node000005" class="node">
<title>Node5</title>
<g id="a_Node000005"><a xlink:href="class_cpl_1_1_system_1_1_timer_composer.html" target="_top" xlink:title=" ">
<polygon fill="white" stroke="#666666" points="1115.12,-172 970.88,-172 970.88,-128 1115.12,-128 1115.12,-172"/>
<text text-anchor="start" x="978.88" y="-158.5" font-family="Helvetica,sans-Serif" font-size="10.00">Cpl::System::TimerComposer</text>
<text text-anchor="start" x="978.88" y="-146.5" font-family="Helvetica,sans-Serif" font-size="10.00">&lt; Storm::Thermostat::Main</text>
<text text-anchor="middle" x="1043" y="-134.5" font-family="Helvetica,sans-Serif" font-size="10.00">::RunTimeRecord &gt;</text>
</a>
</g>
</g>
<!-- Node4&#45;&gt;Node5 -->
<g id="edge4_Node000004_Node000005" class="edge">
<title>Node4&#45;&gt;Node5</title>
<g id="a_edge4_Node000004_Node000005"><a xlink:title=" ">
<path fill="none" stroke="#63b8ff" d="M583.67,-136.76C600.27,-147.61 623.54,-160.83 646.25,-167 777.61,-202.72 817.36,-188.37 952.5,-172 958.38,-171.29 964.43,-170.32 970.47,-169.19"/>
<polygon fill="#63b8ff" stroke="#63b8ff" points="585.76,-133.94 575.52,-131.24 581.84,-139.74 585.76,-133.94"/>
</a>
</g>
</g>
<!-- Node6 -->
<g id="Node000006" class="node">
<title>Node6</title>
<g id="a_Node000006"><a xlink:href="class_cpl_1_1_system_1_1_timer_composer.html" target="_top" xlink:title=" ">
<polygon fill="white" stroke="#666666" points="1115.5,-100 970.5,-100 970.5,-56 1115.5,-56 1115.5,-100"/>
<text text-anchor="start" x="978.5" y="-86.5" font-family="Helvetica,sans-Serif" font-size="10.00">Cpl::System::TimerComposer</text>
<text text-anchor="start" x="978.5" y="-74.5" font-family="Helvetica,sans-Serif" font-size="10.00">&lt; Storm::Thermostat::Ui</text>
<text text-anchor="middle" x="1043" y="-62.5" font-family="Helvetica,sans-Serif" font-size="10.00">::PicoDisplay::EventMonitor &gt;</text>
</a>
</g>
</g>
<!-- Node4&#45;&gt;Node6 -->
<g id="edge5_Node000004_Node000006" class="edge">
<title>Node4&#45;&gt;Node6</title>
<g id="a_edge5_Node000004_Node000006"><a xlink:title=" ">
<path fill="none" stroke="#63b8ff" d="M586.06,-103.98C602.59,-94.67 624.88,-83.86 646.25,-79 757.13,-53.77 890.04,-60.75 970.16,-68.83"/>
<polygon fill="#63b8ff" stroke="#63b8ff" points="584.76,-100.68 577.88,-108.74 588.28,-106.73 584.76,-100.68"/>
</a>
</g>
</g>
<!-- Node7 -->
<g id="Node000007" class="node">
<title>Node7</title>
<g id="a_Node000007"><a xlink:href="class_cpl_1_1_dm_1_1_persistent_1_1_record.html" target="_top" xlink:title="This mostly concrete class implements the Cpl::Persistent::Record interface where a Record instance c...">
<polygon fill="white" stroke="#666666" points="769.12,-261 667.62,-261 667.62,-229 769.12,-229 769.12,-261"/>
<text text-anchor="start" x="675.62" y="-247.5" font-family="Helvetica,sans-Serif" font-size="10.00">Cpl::Dm::Persistent</text>
<text text-anchor="middle" x="718.38" y="-235.5" font-family="Helvetica,sans-Serif" font-size="10.00">::Record</text>
</a>
</g>
</g>
<!-- Node4&#45;&gt;Node7 -->
<g id="edge6_Node000004_Node000007" class="edge">
<title>Node4&#45;&gt;Node7</title>
<g id="a_edge6_Node000004_Node000007"><a xlink:title=" ">
<path fill="none" stroke="#63b8ff" d="M573.1,-139.53C585.39,-157.06 605.26,-182.64 627.25,-200 641.8,-211.49 659.75,-221.18 675.79,-228.59"/>
<polygon fill="#63b8ff" stroke="#63b8ff" points="576.16,-137.8 567.63,-131.51 570.37,-141.74 576.16,-137.8"/>
</a>
</g>
</g>
<!-- Node11 -->
<g id="Node000011" class="node">
<title>Node11</title>
<g id="a_Node000011"><a xlink:href="class_cpl_1_1_m_app_1_1_temperature_1_1_api.html" target="_top" xlink:title="This concrete class implements MApp the polls a model point for a temperature value and periodically ...">
<polygon fill="white" stroke="#666666" points="789.38,-108 647.38,-108 647.38,-88 789.38,-88 789.38,-108"/>
<text text-anchor="middle" x="718.38" y="-94.5" font-family="Helvetica,sans-Serif" font-size="10.00">Cpl::MApp::Temperature::Api</text>
</a>
</g>
</g>
<!-- Node4&#45;&gt;Node11 -->
<g id="edge10_Node000004_Node000011" class="edge">
<title>Node4&#45;&gt;Node11</title>
<g id="a_edge10_Node000004_Node000011"><a xlink:title=" ">
<path fill="none" stroke="#63b8ff" d="M620.94,-111.5C629.46,-110.31 638.29,-109.07 646.97,-107.86"/>
<polygon fill="#63b8ff" stroke="#63b8ff" points="620.45,-108.04 611.03,-112.89 621.42,-114.97 620.45,-108.04"/>
</a>
</g>
</g>
<!-- Node12 -->
<g id="Node000012" class="node">
<title>Node12</title>
<g id="a_Node000012"><a xlink:href="class_cpl_1_1_system_1_1_timer_composer.html" target="_top" xlink:title="This template class implements a Software Timer that is context independent and allows for a single c...">
<polygon fill="white" stroke="#666666" points="790.5,-158 646.25,-158 646.25,-126 790.5,-126 790.5,-158"/>
<text text-anchor="start" x="654.25" y="-144.5" font-family="Helvetica,sans-Serif" font-size="10.00">Cpl::System::TimerComposer</text>
<text text-anchor="middle" x="718.38" y="-132.5" font-family="Helvetica,sans-Serif" font-size="10.00">&lt; CONTEXT &gt;</text>
</a>
</g>
</g>
<!-- Node4&#45;&gt;Node12 -->
<g id="edge11_Node000004_Node000012" class="edge">
<title>Node4&#45;&gt;Node12</title>
<g id="a_edge11_Node000004_Node000012"><a xlink:title=" ">
<path fill="none" stroke="#63b8ff" d="M620.87,-128.49C629.04,-129.63 637.48,-130.81 645.82,-131.98"/>
<polygon fill="#63b8ff" stroke="#63b8ff" points="621.42,-125.03 611.03,-127.11 620.45,-131.96 621.42,-125.03"/>
</a>
</g>
</g>
<!-- Node13 -->
<g id="Node000013" class="node">
<title>Node13</title>
<g id="a_Node000013"><a xlink:href="class_storm_1_1_thermostat_1_1_algorithm.html" target="_top" xlink:title="This concrete class is a &quot;maker&quot; pattern assembles the objects needed for the thermostat&#39;s control al...">
<polygon fill="white" stroke="#666666" points="769.88,-32 666.88,-32 666.88,0 769.88,0 769.88,-32"/>
<text text-anchor="start" x="674.88" y="-18.5" font-family="Helvetica,sans-Serif" font-size="10.00">Storm::Thermostat::</text>
<text text-anchor="middle" x="718.38" y="-6.5" font-family="Helvetica,sans-Serif" font-size="10.00">Algorithm</text>
</a>
</g>
</g>
<!-- Node4&#45;&gt;Node13 -->
<g id="edge14_Node000004_Node000013" class="edge">
<title>Node4&#45;&gt;Node13</title>
<g id="a_edge14_Node000004_Node000013"><a xlink:title=" ">
<path fill="none" stroke="#63b8ff" d="M573.62,-100.26C585.82,-83.65 605.25,-60.35 627.25,-46 639.13,-38.25 653.2,-32.32 666.64,-27.86"/>
<polygon fill="#63b8ff" stroke="#63b8ff" points="570.81,-98.19 567.88,-108.37 576.52,-102.23 570.81,-98.19"/>
</a>
</g>
</g>
<!-- Node8 -->
<g id="Node000008" class="node">
<title>Node8</title>
<g id="a_Node000008"><a xlink:href="class_storm_1_1_thermostat_1_1_main_1_1_installer_record.html" target="_top" xlink:title="This concrete class implements the &quot;Record&quot; class for storing Installer settings.">
<polygon fill="white" stroke="#666666" points="1096.75,-275 989.25,-275 989.25,-243 1096.75,-243 1096.75,-275"/>
<text text-anchor="start" x="997.25" y="-261.5" font-family="Helvetica,sans-Serif" font-size="10.00">Storm::Thermostat::</text>
<text text-anchor="middle" x="1043" y="-249.5" font-family="Helvetica,sans-Serif" font-size="10.00">Main::InstallerRecord</text>
</a>
</g>
</g>
<!-- Node7&#45;&gt;Node8 -->
<g id="edge7_Node000007_Node000008" class="edge">
<title>Node7&#45;&gt;Node8</title>
<g id="a_edge7_Node000007_Node000008"><a xlink:title=" ">
<path fill="none" stroke="#63b8ff" d="M780.67,-247.66C840.84,-250.27 931.68,-254.21 988.87,-256.69"/>
<polygon fill="#63b8ff" stroke="#63b8ff" points="781.09,-244.17 770.94,-247.24 780.78,-251.17 781.09,-244.17"/>
</a>
</g>
</g>
<!-- Node9 -->
<g id="Node000009" class="node">
<title>Node9</title>
<g id="a_Node000009"><a xlink:href="class_storm_1_1_thermostat_1_1_main_1_1_run_time_record.html" target="_top" xlink:title="This concrete class implements the &quot;Record&quot; class for storing persistent run time alerts,...">
<polygon fill="white" stroke="#666666" points="1099,-225 987,-225 987,-193 1099,-193 1099,-225"/>
<text text-anchor="start" x="995" y="-211.5" font-family="Helvetica,sans-Serif" font-size="10.00">Storm::Thermostat::</text>
<text text-anchor="middle" x="1043" y="-199.5" font-family="Helvetica,sans-Serif" font-size="10.00">Main::RunTimeRecord</text>
</a>
</g>
</g>
<!-- Node7&#45;&gt;Node9 -->
<g id="edge8_Node000007_Node000009" class="edge">
<title>Node7&#45;&gt;Node9</title>
<g id="a_edge8_Node000007_Node000009"><a xlink:title=" ">
<path fill="none" stroke="#63b8ff" d="M780.53,-238.18C839.94,-231.55 929.34,-221.57 986.69,-215.17"/>
<polygon fill="#63b8ff" stroke="#63b8ff" points="780.49,-234.66 770.94,-239.25 781.26,-241.62 780.49,-234.66"/>
</a>
</g>
</g>
<!-- Node10 -->
<g id="Node000010" class="node">
<title>Node10</title>
<g id="a_Node000010"><a xlink:href="class_storm_1_1_thermostat_1_1_main_1_1_user_record.html" target="_top" xlink:title="This concrete class implements the &quot;Record&quot; class for storing user settings.">
<polygon fill="white" stroke="#666666" points="1094.5,-325 991.5,-325 991.5,-293 1094.5,-293 1094.5,-325"/>
<text text-anchor="start" x="999.5" y="-311.5" font-family="Helvetica,sans-Serif" font-size="10.00">Storm::Thermostat::</text>
<text text-anchor="middle" x="1043" y="-299.5" font-family="Helvetica,sans-Serif" font-size="10.00">Main::UserRecord</text>
</a>
</g>
</g>
<!-- Node7&#45;&gt;Node10 -->
<g id="edge9_Node000007_Node000010" class="edge">
<title>Node7&#45;&gt;Node10</title>
<g id="a_edge9_Node000007_Node000010"><a xlink:title=" ">
<path fill="none" stroke="#63b8ff" d="M780.2,-259.75C789.66,-261.93 799.33,-264.08 808.5,-266 871.23,-279.16 943.91,-292.2 991.3,-300.41"/>
<polygon fill="#63b8ff" stroke="#63b8ff" points="781.25,-256.4 770.72,-257.55 779.67,-263.22 781.25,-256.4"/>
</a>
</g>
</g>
<!-- Node12&#45;&gt;Node5 -->
<g id="edge12_Node000012_Node000005" class="edge">
<title>Node12&#45;&gt;Node5</title>
<g id="a_edge12_Node000012_Node000005"><a xlink:title=" ">
<path fill="none" stroke="orange" stroke-dasharray="5,2" d="M802.2,-144.05C854.3,-145.35 920.83,-147 970.6,-148.23"/>
<polygon fill="orange" stroke="orange" points="802.57,-140.56 792.49,-143.81 802.4,-147.56 802.57,-140.56"/>
</a>
</g>
<text text-anchor="start" x="825" y="-161.5" font-family="Helvetica,sans-Serif" font-size="10.00" fill="grey"> &lt; Storm::Thermostat</text>
<text text-anchor="middle" x="880.5" y="-149.5" font-family="Helvetica,sans-Serif" font-size="10.00" fill="grey">::Main::RunTimeRecord &gt;</text>
</g>
<!-- Node12&#45;&gt;Node6 -->
<g id="edge13_Node000012_Node000006" class="edge">
<title>Node12&#45;&gt;Node6</title>
<g id="a_edge13_Node000012_Node000006"><a xlink:title=" ">
<path fill="none" stroke="orange" stroke-dasharray="5,2" d="M782.69,-122.5C791.32,-120.14 800.1,-117.9 808.5,-116 862.18,-103.85 923.64,-94.01 970.03,-87.39"/>
<polygon fill="orange" stroke="orange" points="782.02,-119.05 773.34,-125.12 783.91,-125.79 782.02,-119.05"/>
</a>
</g>
<text text-anchor="start" x="808.5" y="-130.5" font-family="Helvetica,sans-Serif" font-size="10.00" fill="grey"> &lt; Storm::Thermostat</text>
<text text-anchor="middle" x="880.5" y="-118.5" font-family="Helvetica,sans-Serif" font-size="10.00" fill="grey">::Ui::PicoDisplay::EventMonitor &gt;</text>
</g>
</g>
</svg>
