<?xml version="1.0" encoding="UTF-8" standalone="no"?>
<!DOCTYPE svg PUBLIC "-//W3C//DTD SVG 1.1//EN"
 "http://www.w3.org/Graphics/SVG/1.1/DTD/svg11.dtd">
<!-- Generated by graphviz version 10.0.1 (20240210.2158)
 -->
<!-- Title: Storm::Component::OperatingMode Pages: 1 -->
<svg width="178pt" height="140pt"
 viewBox="0.00 0.00 177.75 140.00" xmlns="http://www.w3.org/2000/svg" xmlns:xlink="http://www.w3.org/1999/xlink">
<g id="graph0" class="graph" transform="scale(1 1) rotate(0) translate(4 136)">
<title>Storm::Component::OperatingMode</title>
<!-- Node1 -->
<g id="Node000001" class="node">
<title>Node1</title>
<g id="a_Node000001"><a xlink:title="This concrete class determine the actual mode of operation for the thermostat when the user has selec...">
<polygon fill="#999999" stroke="#666666" points="169.75,-20 0,-20 0,0 169.75,0 169.75,-20"/>
<text text-anchor="middle" x="84.88" y="-6.5" font-family="Helvetica,sans-Serif" font-size="10.00">Storm::Component::OperatingMode</text>
</a>
</g>
</g>
<!-- Node2 -->
<g id="Node000002" class="node">
<title>Node2</title>
<g id="a_Node000002"><a xlink:href="class_storm_1_1_component_1_1_base.html" target="_top" xlink:title="This partially concrete class provide core infrastructure for Components.">
<polygon fill="white" stroke="#666666" points="148,-76 21.75,-76 21.75,-56 148,-56 148,-76"/>
<text text-anchor="middle" x="84.88" y="-62.5" font-family="Helvetica,sans-Serif" font-size="10.00">Storm::Component::Base</text>
</a>
</g>
</g>
<!-- Node2&#45;&gt;Node1 -->
<g id="edge1_Node000001_Node000002" class="edge">
<title>Node2&#45;&gt;Node1</title>
<g id="a_edge1_Node000001_Node000002"><a xlink:title=" ">
<path fill="none" stroke="#63b8ff" d="M84.88,-44.13C84.88,-35.9 84.88,-26.85 84.88,-20.3"/>
<polygon fill="#63b8ff" stroke="#63b8ff" points="81.38,-44.08 84.88,-54.08 88.38,-44.08 81.38,-44.08"/>
</a>
</g>
</g>
<!-- Node3 -->
<g id="Node000003" class="node">
<title>Node3</title>
<g id="a_Node000003"><a xlink:href="class_storm_1_1_component_1_1_api.html" target="_top" xlink:title="This class define the interface for a Component.">
<polygon fill="white" stroke="#666666" points="143.88,-132 25.88,-132 25.88,-112 143.88,-112 143.88,-132"/>
<text text-anchor="middle" x="84.88" y="-118.5" font-family="Helvetica,sans-Serif" font-size="10.00">Storm::Component::Api</text>
</a>
</g>
</g>
<!-- Node3&#45;&gt;Node2 -->
<g id="edge2_Node000002_Node000003" class="edge">
<title>Node3&#45;&gt;Node2</title>
<g id="a_edge2_Node000002_Node000003"><a xlink:title=" ">
<path fill="none" stroke="#63b8ff" d="M84.88,-100.13C84.88,-91.9 84.88,-82.85 84.88,-76.3"/>
<polygon fill="#63b8ff" stroke="#63b8ff" points="81.38,-100.08 84.88,-110.08 88.38,-100.08 81.38,-100.08"/>
</a>
</g>
</g>
</g>
</svg>
