<?xml version="1.0" encoding="UTF-8" standalone="no"?>
<!DOCTYPE svg PUBLIC "-//W3C//DTD SVG 1.1//EN"
 "http://www.w3.org/Graphics/SVG/1.1/DTD/svg11.dtd">
<!-- Generated by graphviz version 2.38.0 (20140413.2041)
 -->
<!-- Title: Cpl::Dm::TShell::Dm Pages: 1 -->
<svg width="153pt" height="364pt"
 viewBox="0.00 0.00 153.00 364.00" xmlns="http://www.w3.org/2000/svg" xmlns:xlink="http://www.w3.org/1999/xlink">
<g id="graph0" class="graph" transform="scale(1 1) rotate(0) translate(4 360)">
<title>Cpl::Dm::TShell::Dm</title>
<polygon fill="white" stroke="none" points="-4,4 -4,-360 149,-360 149,4 -4,4"/>
<!-- Node1 -->
<g id="node1" class="node"><title>Node1</title>
<g id="a_node1"><a xlink:title="This class implements a TShell command.">
<polygon fill="#bfbfbf" stroke="black" points="19,-0.5 19,-19.5 126,-19.5 126,-0.5 19,-0.5"/>
<text text-anchor="middle" x="72.5" y="-7.5" font-family="Helvetica,sans-Serif" font-size="10.00">Cpl::Dm::TShell::Dm</text>
</a>
</g>
</g>
<!-- Node2 -->
<g id="node2" class="node"><title>Node2</title>
<g id="a_node2"><a xlink:href="class_cpl_1_1_t_shell_1_1_cmd_1_1_command.html" target="_top" xlink:title="This partially concrete class implements infrastructure and/or common functionality for a Shell comma...">
<polygon fill="white" stroke="black" points="2,-56.5 2,-75.5 143,-75.5 143,-56.5 2,-56.5"/>
<text text-anchor="middle" x="72.5" y="-63.5" font-family="Helvetica,sans-Serif" font-size="10.00">Cpl::TShell::Cmd::Command</text>
</a>
</g>
</g>
<!-- Node2&#45;&gt;Node1 -->
<g id="edge1" class="edge"><title>Node2&#45;&gt;Node1</title>
<path fill="none" stroke="midnightblue" d="M72.5,-45.8045C72.5,-36.9102 72.5,-26.7798 72.5,-19.7511"/>
<polygon fill="midnightblue" stroke="midnightblue" points="69.0001,-46.083 72.5,-56.083 76.0001,-46.083 69.0001,-46.083"/>
</g>
<!-- Node3 -->
<g id="node3" class="node"><title>Node3</title>
<g id="a_node3"><a xlink:href="class_cpl_1_1_t_shell_1_1_command.html" target="_top" xlink:title="This class defines the interface for a TShell command.">
<polygon fill="white" stroke="black" points="15,-112.5 15,-131.5 130,-131.5 130,-112.5 15,-112.5"/>
<text text-anchor="middle" x="72.5" y="-119.5" font-family="Helvetica,sans-Serif" font-size="10.00">Cpl::TShell::Command</text>
</a>
</g>
</g>
<!-- Node3&#45;&gt;Node2 -->
<g id="edge2" class="edge"><title>Node3&#45;&gt;Node2</title>
<path fill="none" stroke="midnightblue" d="M72.5,-101.805C72.5,-92.9102 72.5,-82.7798 72.5,-75.7511"/>
<polygon fill="midnightblue" stroke="midnightblue" points="69.0001,-102.083 72.5,-112.083 76.0001,-102.083 69.0001,-102.083"/>
</g>
<!-- Node4 -->
<g id="node4" class="node"><title>Node4</title>
<g id="a_node4"><a xlink:href="class_cpl_1_1_container_1_1_map_item.html" target="_top" xlink:title="This abstract class represents a item that can be contained in an Map (aka a sorted list implemented ...">
<polygon fill="white" stroke="black" points="11.5,-168.5 11.5,-187.5 133.5,-187.5 133.5,-168.5 11.5,-168.5"/>
<text text-anchor="middle" x="72.5" y="-175.5" font-family="Helvetica,sans-Serif" font-size="10.00">Cpl::Container::MapItem</text>
</a>
</g>
</g>
<!-- Node4&#45;&gt;Node3 -->
<g id="edge3" class="edge"><title>Node4&#45;&gt;Node3</title>
<path fill="none" stroke="midnightblue" d="M72.5,-157.805C72.5,-148.91 72.5,-138.78 72.5,-131.751"/>
<polygon fill="midnightblue" stroke="midnightblue" points="69.0001,-158.083 72.5,-168.083 76.0001,-158.083 69.0001,-158.083"/>
</g>
<!-- Node5 -->
<g id="node5" class="node"><title>Node5</title>
<g id="a_node5"><a xlink:href="class_cpl_1_1_container_1_1_dict_item.html" target="_top" xlink:title="This abstract class represents a item that can be contained in Dictionary.">
<polygon fill="white" stroke="black" points="12,-224.5 12,-243.5 133,-243.5 133,-224.5 12,-224.5"/>
<text text-anchor="middle" x="72.5" y="-231.5" font-family="Helvetica,sans-Serif" font-size="10.00">Cpl::Container::DictItem</text>
</a>
</g>
</g>
<!-- Node5&#45;&gt;Node4 -->
<g id="edge4" class="edge"><title>Node5&#45;&gt;Node4</title>
<path fill="none" stroke="midnightblue" d="M72.5,-213.805C72.5,-204.91 72.5,-194.78 72.5,-187.751"/>
<polygon fill="midnightblue" stroke="midnightblue" points="69.0001,-214.083 72.5,-224.083 76.0001,-214.083 69.0001,-214.083"/>
</g>
<!-- Node6 -->
<g id="node6" class="node"><title>Node6</title>
<g id="a_node6"><a xlink:href="class_cpl_1_1_container_1_1_extended_item.html" target="_top" xlink:title="This class is used by the Container classes to implement a various types of DOUBLY linked containers.">
<polygon fill="white" stroke="black" points="0,-280.5 0,-299.5 145,-299.5 145,-280.5 0,-280.5"/>
<text text-anchor="middle" x="72.5" y="-287.5" font-family="Helvetica,sans-Serif" font-size="10.00">Cpl::Container::ExtendedItem</text>
</a>
</g>
</g>
<!-- Node6&#45;&gt;Node5 -->
<g id="edge5" class="edge"><title>Node6&#45;&gt;Node5</title>
<path fill="none" stroke="midnightblue" d="M72.5,-269.805C72.5,-260.91 72.5,-250.78 72.5,-243.751"/>
<polygon fill="midnightblue" stroke="midnightblue" points="69.0001,-270.083 72.5,-280.083 76.0001,-270.083 69.0001,-270.083"/>
</g>
<!-- Node7 -->
<g id="node7" class="node"><title>Node7</title>
<g id="a_node7"><a xlink:href="class_cpl_1_1_container_1_1_item.html" target="_top" xlink:title="This class is used by the Container classes to implement a various types of singly linked containers.">
<polygon fill="white" stroke="black" points="20.5,-336.5 20.5,-355.5 124.5,-355.5 124.5,-336.5 20.5,-336.5"/>
<text text-anchor="middle" x="72.5" y="-343.5" font-family="Helvetica,sans-Serif" font-size="10.00">Cpl::Container::Item</text>
</a>
</g>
</g>
<!-- Node7&#45;&gt;Node6 -->
<g id="edge6" class="edge"><title>Node7&#45;&gt;Node6</title>
<path fill="none" stroke="midnightblue" d="M72.5,-325.805C72.5,-316.91 72.5,-306.78 72.5,-299.751"/>
<polygon fill="midnightblue" stroke="midnightblue" points="69.0001,-326.083 72.5,-336.083 76.0001,-326.083 69.0001,-326.083"/>
</g>
</g>
</svg>
