<?xml version="1.0" encoding="UTF-8" standalone="no"?>
<!DOCTYPE svg PUBLIC "-//W3C//DTD SVG 1.1//EN"
 "http://www.w3.org/Graphics/SVG/1.1/DTD/svg11.dtd">
<!-- Generated by graphviz version 10.0.1 (20240210.2158)
 -->
<!-- Title: Cpl::Text::Frame::BlockEncoder Pages: 1 -->
<svg width="329pt" height="279pt"
 viewBox="0.00 0.00 329.25 279.00" xmlns="http://www.w3.org/2000/svg" xmlns:xlink="http://www.w3.org/1999/xlink">
<g id="graph0" class="graph" transform="scale(1 1) rotate(0) translate(4 275)">
<title>Cpl::Text::Frame::BlockEncoder</title>
<!-- Node1 -->
<g id="Node000001" class="node">
<title>Node1</title>
<g id="a_Node000001"><a xlink:title="This concrete class implements extends the StreamDecoder implementation to be more efficient with res...">
<polygon fill="#999999" stroke="#666666" points="207.75,-20 52.25,-20 52.25,0 207.75,0 207.75,-20"/>
<text text-anchor="middle" x="130" y="-6.5" font-family="Helvetica,sans-Serif" font-size="10.00">Cpl::Text::Frame::BlockEncoder</text>
</a>
</g>
</g>
<!-- Node2 -->
<g id="Node000002" class="node">
<title>Node2</title>
<g id="a_Node000002"><a xlink:href="class_cpl_1_1_text_1_1_frame_1_1_stream_encoder.html" target="_top" xlink:title="This concrete class implements the Encoder API where the Output destination is a Cpl::Io::Output stre...">
<polygon fill="white" stroke="#666666" points="193.12,-89 66.88,-89 66.88,-57 193.12,-57 193.12,-89"/>
<text text-anchor="start" x="74.88" y="-75.5" font-family="Helvetica,sans-Serif" font-size="10.00">Cpl::Text::Frame::Stream</text>
<text text-anchor="middle" x="130" y="-63.5" font-family="Helvetica,sans-Serif" font-size="10.00">Encoder</text>
</a>
</g>
</g>
<!-- Node2&#45;&gt;Node1 -->
<g id="edge1_Node000001_Node000002" class="edge">
<title>Node2&#45;&gt;Node1</title>
<g id="a_edge1_Node000001_Node000002"><a xlink:title=" ">
<path fill="none" stroke="#63b8ff" d="M130,-45.36C130,-36.41 130,-27.01 130,-20.31"/>
<polygon fill="#63b8ff" stroke="#63b8ff" points="126.5,-45.09 130,-55.09 133.5,-45.09 126.5,-45.09"/>
</a>
</g>
</g>
<!-- Node3 -->
<g id="Node000003" class="node">
<title>Node3</title>
<g id="a_Node000003"><a xlink:href="class_cpl_1_1_text_1_1_frame_1_1_encoder__.html" target="_top" xlink:title="This Private Namespace partially concrete class implements common/helper method for supporting the En...">
<polygon fill="white" stroke="#666666" points="136,-157 0,-157 0,-137 136,-137 136,-157"/>
<text text-anchor="middle" x="68" y="-143.5" font-family="Helvetica,sans-Serif" font-size="10.00">Cpl::Text::Frame::Encoder_</text>
</a>
</g>
</g>
<!-- Node3&#45;&gt;Node2 -->
<g id="edge2_Node000002_Node000003" class="edge">
<title>Node3&#45;&gt;Node2</title>
<g id="a_edge2_Node000002_Node000003"><a xlink:title=" ">
<path fill="none" stroke="#63b8ff" d="M83.52,-127.97C93.73,-116.12 106.95,-100.77 116.68,-89.47"/>
<polygon fill="#63b8ff" stroke="#63b8ff" points="80.97,-125.58 77.09,-135.44 86.27,-130.15 80.97,-125.58"/>
</a>
</g>
</g>
<!-- Node4 -->
<g id="Node000004" class="node">
<title>Node4</title>
<g id="a_Node000004"><a xlink:href="class_cpl_1_1_text_1_1_frame_1_1_encoder.html" target="_top" xlink:title="This class defines an interface for &#39;transmitted&#39; (encoding) a frame.">
<polygon fill="white" stroke="#666666" points="133.38,-214 2.62,-214 2.62,-194 133.38,-194 133.38,-214"/>
<text text-anchor="middle" x="68" y="-200.5" font-family="Helvetica,sans-Serif" font-size="10.00">Cpl::Text::Frame::Encoder</text>
</a>
</g>
</g>
<!-- Node4&#45;&gt;Node3 -->
<g id="edge3_Node000003_Node000004" class="edge">
<title>Node4&#45;&gt;Node3</title>
<g id="a_edge3_Node000003_Node000004"><a xlink:title=" ">
<path fill="none" stroke="#63b8ff" d="M68,-182.69C68,-173.97 68,-164.22 68,-157.28"/>
<polygon fill="#63b8ff" stroke="#63b8ff" points="64.5,-182.4 68,-192.4 71.5,-182.4 64.5,-182.4"/>
</a>
</g>
</g>
<!-- Node5 -->
<g id="Node000005" class="node">
<title>Node5</title>
<g id="a_Node000005"><a xlink:href="class_cpl_1_1_io_1_1_output.html" target="_top" xlink:title="This partially abstract class defines a interface for operating on an output stream (example of a str...">
<polygon fill="white" stroke="#666666" points="233.5,-157 154.5,-157 154.5,-137 233.5,-137 233.5,-157"/>
<text text-anchor="middle" x="194" y="-143.5" font-family="Helvetica,sans-Serif" font-size="10.00">Cpl::Io::Output</text>
</a>
</g>
</g>
<!-- Node5&#45;&gt;Node2 -->
<g id="edge4_Node000002_Node000005" class="edge">
<title>Node5&#45;&gt;Node2</title>
<g id="a_edge4_Node000002_Node000005"><a xlink:title=" ">
<path fill="none" stroke="#9a32cd" stroke-dasharray="5,2" d="M178.29,-128.33C167.71,-116.43 153.89,-100.88 143.75,-89.47"/>
<polygon fill="#9a32cd" stroke="#9a32cd" points="175.37,-130.31 184.63,-135.46 180.6,-125.66 175.37,-130.31"/>
</a>
</g>
<text text-anchor="middle" x="191.38" y="-109.5" font-family="Helvetica,sans-Serif" font-size="10.00" fill="grey"> m_dstPtr</text>
</g>
<!-- Node6 -->
<g id="Node000006" class="node">
<title>Node6</title>
<g id="a_Node000006"><a xlink:href="class_cpl_1_1_io_1_1_close.html" target="_top" xlink:title="This abstract class defines a close operation that is intended to be used Input and Output streams/fi...">
<polygon fill="white" stroke="#666666" points="228.25,-214 153.75,-214 153.75,-194 228.25,-194 228.25,-214"/>
<text text-anchor="middle" x="191" y="-200.5" font-family="Helvetica,sans-Serif" font-size="10.00">Cpl::Io::Close</text>
</a>
</g>
</g>
<!-- Node6&#45;&gt;Node5 -->
<g id="edge5_Node000005_Node000006" class="edge">
<title>Node6&#45;&gt;Node5</title>
<g id="a_edge5_Node000005_Node000006"><a xlink:title=" ">
<path fill="none" stroke="#63b8ff" d="M192.11,-182.69C192.58,-173.97 193.12,-164.22 193.49,-157.28"/>
<polygon fill="#63b8ff" stroke="#63b8ff" points="188.63,-182.23 191.58,-192.41 195.62,-182.61 188.63,-182.23"/>
</a>
</g>
</g>
<!-- Node7 -->
<g id="Node000007" class="node">
<title>Node7</title>
<g id="a_Node000007"><a xlink:href="class_cpl_1_1_container_1_1_item.html" target="_top" xlink:title="This class is used by the Container classes to implement a various types of singly linked containers.">
<polygon fill="white" stroke="#666666" points="242.12,-271 139.88,-271 139.88,-251 242.12,-251 242.12,-271"/>
<text text-anchor="middle" x="191" y="-257.5" font-family="Helvetica,sans-Serif" font-size="10.00">Cpl::Container::Item</text>
</a>
</g>
</g>
<!-- Node7&#45;&gt;Node6 -->
<g id="edge6_Node000006_Node000007" class="edge">
<title>Node7&#45;&gt;Node6</title>
<g id="a_edge6_Node000006_Node000007"><a xlink:title=" ">
<path fill="none" stroke="#63b8ff" d="M191,-239.69C191,-230.97 191,-221.22 191,-214.28"/>
<polygon fill="#63b8ff" stroke="#63b8ff" points="187.5,-239.4 191,-249.4 194.5,-239.4 187.5,-239.4"/>
</a>
</g>
</g>
<!-- Node8 -->
<g id="Node000008" class="node">
<title>Node8</title>
<g id="a_Node000008"><a xlink:href="class_cpl_1_1_io_1_1_is_eos.html" target="_top" xlink:title="This abstract class defines a isEos() operation that is intended to be used Input and Output streams.">
<polygon fill="white" stroke="#666666" points="321.25,-214 246.75,-214 246.75,-194 321.25,-194 321.25,-214"/>
<text text-anchor="middle" x="284" y="-200.5" font-family="Helvetica,sans-Serif" font-size="10.00">Cpl::Io::IsEos</text>
</a>
</g>
</g>
<!-- Node8&#45;&gt;Node5 -->
<g id="edge7_Node000005_Node000008" class="edge">
<title>Node8&#45;&gt;Node5</title>
<g id="a_edge7_Node000005_Node000008"><a xlink:title=" ">
<path fill="none" stroke="#63b8ff" d="M258.98,-187.71C243.06,-177.98 222.94,-165.69 209.34,-157.38"/>
<polygon fill="#63b8ff" stroke="#63b8ff" points="257.08,-190.65 267.44,-192.88 260.73,-184.68 257.08,-190.65"/>
</a>
</g>
</g>
</g>
</svg>
