<?xml version="1.0" encoding="UTF-8" standalone="no"?>
<!DOCTYPE svg PUBLIC "-//W3C//DTD SVG 1.1//EN"
 "http://www.w3.org/Graphics/SVG/1.1/DTD/svg11.dtd">
<!-- Generated by graphviz version 10.0.1 (20240210.2158)
 -->
<!-- Title: Cpl::TShell::PolledMaker Pages: 1 -->
<svg width="1894pt" height="486pt"
 viewBox="0.00 0.00 1893.75 486.04" xmlns="http://www.w3.org/2000/svg" xmlns:xlink="http://www.w3.org/1999/xlink">
<g id="graph0" class="graph" transform="scale(1 1) rotate(0) translate(4 482.04)">
<title>Cpl::TShell::PolledMaker</title>
<!-- Node1 -->
<g id="Node000001" class="node">
<title>Node1</title>
<g id="a_Node000001"><a xlink:title="This concrete class is a &quot;Maker&quot; that assembles the objects needed for a &#39;basic&#39; TShell Processor eng...">
<polygon fill="#999999" stroke="#666666" points="1885.75,-331 1762.5,-331 1762.5,-311 1885.75,-311 1885.75,-331"/>
<text text-anchor="middle" x="1824.12" y="-317.5" font-family="Helvetica,sans-Serif" font-size="10.00">Cpl::TShell::PolledMaker</text>
</a>
</g>
</g>
<!-- Node2 -->
<g id="Node000002" class="node">
<title>Node2</title>
<g id="a_Node000002"><a xlink:href="class_cpl_1_1_text_1_1_frame_1_1_stream_encoder.html" target="_top" xlink:title="This concrete class implements the Encoder API where the Output destination is a Cpl::Io::Output stre...">
<polygon fill="white" stroke="#666666" points="1030.75,-299 904.5,-299 904.5,-267 1030.75,-267 1030.75,-299"/>
<text text-anchor="start" x="912.5" y="-285.5" font-family="Helvetica,sans-Serif" font-size="10.00">Cpl::Text::Frame::Stream</text>
<text text-anchor="middle" x="967.62" y="-273.5" font-family="Helvetica,sans-Serif" font-size="10.00">Encoder</text>
</a>
</g>
</g>
<!-- Node2&#45;&gt;Node1 -->
<g id="edge1_Node000001_Node000002" class="edge">
<title>Node2&#45;&gt;Node1</title>
<g id="a_edge1_Node000001_Node000002"><a xlink:title=" ">
<path fill="none" stroke="#9a32cd" stroke-dasharray="5,2" d="M1042.02,-282.73C1169.42,-282.76 1439.68,-285.07 1667.25,-302 1698.65,-304.34 1733.45,-308.43 1762.18,-312.22"/>
<polygon fill="#9a32cd" stroke="#9a32cd" points="1042.39,-279.23 1032.39,-282.73 1042.39,-286.23 1042.39,-279.23"/>
</a>
</g>
<text text-anchor="middle" x="1387.62" y="-292.5" font-family="Helvetica,sans-Serif" font-size="10.00" fill="grey"> m_framer</text>
</g>
<!-- Node16 -->
<g id="Node000016" class="node">
<title>Node16</title>
<g id="a_Node000016"><a xlink:href="class_cpl_1_1_t_shell_1_1_processor.html" target="_top" xlink:title="This concrete class provides the implementation of Command Processor for a TShell engine.">
<polygon fill="white" stroke="#666666" points="1284.12,-214 1170.62,-214 1170.62,-194 1284.12,-194 1284.12,-214"/>
<text text-anchor="middle" x="1227.38" y="-200.5" font-family="Helvetica,sans-Serif" font-size="10.00">Cpl::TShell::Processor</text>
</a>
</g>
</g>
<!-- Node2&#45;&gt;Node16 -->
<g id="edge24_Node000016_Node000002" class="edge">
<title>Node2&#45;&gt;Node16</title>
<g id="a_edge24_Node000016_Node000002"><a xlink:title=" ">
<path fill="none" stroke="#9a32cd" stroke-dasharray="5,2" d="M1036.95,-263.39C1067.07,-254.61 1102.87,-244 1135,-234 1155.25,-227.7 1177.89,-220.26 1195.58,-214.37"/>
<polygon fill="#9a32cd" stroke="#9a32cd" points="1036.2,-259.97 1027.57,-266.12 1038.15,-266.69 1036.2,-259.97"/>
</a>
</g>
<text text-anchor="middle" x="1100.88" y="-255.5" font-family="Helvetica,sans-Serif" font-size="10.00" fill="grey"> m_framer</text>
</g>
<!-- Node3 -->
<g id="Node000003" class="node">
<title>Node3</title>
<g id="a_Node000003"><a xlink:href="class_cpl_1_1_text_1_1_frame_1_1_encoder__.html" target="_top" xlink:title="This Private Namespace partially concrete class implements common/helper method for supporting the En...">
<polygon fill="white" stroke="#666666" points="704.25,-293 568.25,-293 568.25,-273 704.25,-273 704.25,-293"/>
<text text-anchor="middle" x="636.25" y="-279.5" font-family="Helvetica,sans-Serif" font-size="10.00">Cpl::Text::Frame::Encoder_</text>
</a>
</g>
</g>
<!-- Node3&#45;&gt;Node2 -->
<g id="edge2_Node000002_Node000003" class="edge">
<title>Node3&#45;&gt;Node2</title>
<g id="a_edge2_Node000002_Node000003"><a xlink:title=" ">
<path fill="none" stroke="#63b8ff" d="M715.94,-283C773.52,-283 850.59,-283 904.01,-283"/>
<polygon fill="#63b8ff" stroke="#63b8ff" points="716.21,-279.5 706.21,-283 716.21,-286.5 716.21,-279.5"/>
</a>
</g>
</g>
<!-- Node4 -->
<g id="Node000004" class="node">
<title>Node4</title>
<g id="a_Node000004"><a xlink:href="class_cpl_1_1_text_1_1_frame_1_1_encoder.html" target="_top" xlink:title="This class defines an interface for &#39;transmitted&#39; (encoding) a frame.">
<polygon fill="white" stroke="#666666" points="531.25,-293 400.5,-293 400.5,-273 531.25,-273 531.25,-293"/>
<text text-anchor="middle" x="465.88" y="-279.5" font-family="Helvetica,sans-Serif" font-size="10.00">Cpl::Text::Frame::Encoder</text>
</a>
</g>
</g>
<!-- Node4&#45;&gt;Node3 -->
<g id="edge3_Node000003_Node000004" class="edge">
<title>Node4&#45;&gt;Node3</title>
<g id="a_edge3_Node000003_Node000004"><a xlink:title=" ">
<path fill="none" stroke="#63b8ff" d="M542.84,-283C551.23,-283 559.74,-283 568.02,-283"/>
<polygon fill="#63b8ff" stroke="#63b8ff" points="543.01,-279.5 533.01,-283 543.01,-286.5 543.01,-279.5"/>
</a>
</g>
</g>
<!-- Node5 -->
<g id="Node000005" class="node">
<title>Node5</title>
<g id="a_Node000005"><a xlink:href="class_cpl_1_1_io_1_1_output.html" target="_top" xlink:title="This partially abstract class defines a interface for operating on an output stream (example of a str...">
<polygon fill="white" stroke="#666666" points="675.75,-413 596.75,-413 596.75,-393 675.75,-393 675.75,-413"/>
<text text-anchor="middle" x="636.25" y="-399.5" font-family="Helvetica,sans-Serif" font-size="10.00">Cpl::Io::Output</text>
</a>
</g>
</g>
<!-- Node5&#45;&gt;Node2 -->
<g id="edge4_Node000002_Node000005" class="edge">
<title>Node5&#45;&gt;Node2</title>
<g id="a_edge4_Node000002_Node000005"><a xlink:title=" ">
<path fill="none" stroke="#9a32cd" stroke-dasharray="5,2" d="M687.59,-400.97C746.92,-397.64 840.92,-389.12 868.5,-368 884.3,-355.9 873.06,-341.68 886.5,-327 897,-315.53 911.2,-306.39 924.74,-299.48"/>
<polygon fill="#9a32cd" stroke="#9a32cd" points="687.53,-397.47 677.73,-401.49 687.9,-404.46 687.53,-397.47"/>
</a>
</g>
<text text-anchor="middle" x="795.38" y="-400.5" font-family="Helvetica,sans-Serif" font-size="10.00" fill="grey"> m_dstPtr</text>
</g>
<!-- Node15 -->
<g id="Node000015" class="node">
<title>Node15</title>
<g id="a_Node000015"><a xlink:href="class_cpl_1_1_t_shell_1_1_polled_processor.html" target="_top" xlink:title="This concrete class provides a non&#45;blocking implementation of Command PolledProcessor for a TShell en...">
<polygon fill="white" stroke="#666666" points="1640.62,-331 1500.12,-331 1500.12,-311 1640.62,-311 1640.62,-331"/>
<text text-anchor="middle" x="1570.38" y="-317.5" font-family="Helvetica,sans-Serif" font-size="10.00">Cpl::TShell::PolledProcessor</text>
</a>
</g>
</g>
<!-- Node5&#45;&gt;Node15 -->
<g id="edge36_Node000015_Node000005" class="edge">
<title>Node5&#45;&gt;Node15</title>
<g id="a_edge36_Node000015_Node000005"><a xlink:title=" ">
<path fill="none" stroke="#9a32cd" stroke-dasharray="5,2" d="M687.31,-408.5C698.78,-409.54 710.92,-410.47 722.25,-411 787.18,-414.05 803.5,-411.28 868.5,-411 1129.4,-409.89 1248.84,-565.25 1455.5,-406 1479.58,-387.44 1451.26,-360.73 1473.5,-340 1480.95,-333.06 1490.17,-328.33 1499.93,-325.15"/>
<polygon fill="#9a32cd" stroke="#9a32cd" points="687.92,-405.04 677.63,-407.58 687.25,-412.01 687.92,-405.04"/>
</a>
</g>
<text text-anchor="middle" x="1100.88" y="-457.5" font-family="Helvetica,sans-Serif" font-size="10.00" fill="grey"> m_outFd</text>
</g>
<!-- Node6 -->
<g id="Node000006" class="node">
<title>Node6</title>
<g id="a_Node000006"><a xlink:href="class_cpl_1_1_io_1_1_close.html" target="_top" xlink:title="This abstract class defines a close operation that is intended to be used Input and Output streams/fi...">
<polygon fill="white" stroke="#666666" points="503.12,-403 428.62,-403 428.62,-383 503.12,-383 503.12,-403"/>
<text text-anchor="middle" x="465.88" y="-389.5" font-family="Helvetica,sans-Serif" font-size="10.00">Cpl::Io::Close</text>
</a>
</g>
</g>
<!-- Node6&#45;&gt;Node5 -->
<g id="edge5_Node000005_Node000006" class="edge">
<title>Node6&#45;&gt;Node5</title>
<g id="a_edge5_Node000005_Node000006"><a xlink:title=" ">
<path fill="none" stroke="#63b8ff" d="M514.84,-395.85C540.69,-397.38 572.16,-399.25 596.44,-400.7"/>
<polygon fill="#63b8ff" stroke="#63b8ff" points="515.11,-392.36 504.92,-395.26 514.7,-399.35 515.11,-392.36"/>
</a>
</g>
</g>
<!-- Node13 -->
<g id="Node000013" class="node">
<title>Node13</title>
<g id="a_Node000013"><a xlink:href="class_cpl_1_1_io_1_1_input.html" target="_top" xlink:title="This partially abstract class defines a interface for operating on an input stream (example of a stre...">
<polygon fill="white" stroke="#666666" points="671.62,-362 600.88,-362 600.88,-342 671.62,-342 671.62,-362"/>
<text text-anchor="middle" x="636.25" y="-348.5" font-family="Helvetica,sans-Serif" font-size="10.00">Cpl::Io::Input</text>
</a>
</g>
</g>
<!-- Node6&#45;&gt;Node13 -->
<g id="edge13_Node000013_Node000006" class="edge">
<title>Node6&#45;&gt;Node13</title>
<g id="a_edge13_Node000013_Node000006"><a xlink:title=" ">
<path fill="none" stroke="#63b8ff" d="M514.33,-381.44C541.73,-374.77 575.6,-366.53 600.51,-360.46"/>
<polygon fill="#63b8ff" stroke="#63b8ff" points="513.77,-377.98 504.88,-383.75 515.42,-384.78 513.77,-377.98"/>
</a>
</g>
</g>
<!-- Node7 -->
<g id="Node000007" class="node">
<title>Node7</title>
<g id="a_Node000007"><a xlink:href="class_cpl_1_1_container_1_1_item.html" target="_top" xlink:title="This class is used by the Container classes to implement a various types of singly linked containers.">
<polygon fill="white" stroke="#666666" points="363.5,-403 261.25,-403 261.25,-383 363.5,-383 363.5,-403"/>
<text text-anchor="middle" x="312.38" y="-389.5" font-family="Helvetica,sans-Serif" font-size="10.00">Cpl::Container::Item</text>
</a>
</g>
</g>
<!-- Node7&#45;&gt;Node6 -->
<g id="edge6_Node000006_Node000007" class="edge">
<title>Node7&#45;&gt;Node6</title>
<g id="a_edge6_Node000006_Node000007"><a xlink:title=" ">
<path fill="none" stroke="#63b8ff" d="M375.22,-393C393.34,-393 412.56,-393 428.54,-393"/>
<polygon fill="#63b8ff" stroke="#63b8ff" points="375.34,-389.5 365.34,-393 375.34,-396.5 375.34,-389.5"/>
</a>
</g>
</g>
<!-- Node8 -->
<g id="Node000008" class="node">
<title>Node8</title>
<g id="a_Node000008"><a xlink:href="class_cpl_1_1_io_1_1_is_eos.html" target="_top" xlink:title="This abstract class defines a isEos() operation that is intended to be used Input and Output streams.">
<polygon fill="white" stroke="#666666" points="503.12,-359 428.62,-359 428.62,-339 503.12,-339 503.12,-359"/>
<text text-anchor="middle" x="465.88" y="-345.5" font-family="Helvetica,sans-Serif" font-size="10.00">Cpl::Io::IsEos</text>
</a>
</g>
</g>
<!-- Node8&#45;&gt;Node5 -->
<g id="edge7_Node000005_Node000008" class="edge">
<title>Node8&#45;&gt;Node5</title>
<g id="a_edge7_Node000005_Node000008"><a xlink:title=" ">
<path fill="none" stroke="#63b8ff" d="M509.94,-362.81C538.79,-372.07 576.19,-384.06 602.6,-392.53"/>
<polygon fill="#63b8ff" stroke="#63b8ff" points="511.37,-359.6 500.78,-359.87 509.23,-366.26 511.37,-359.6"/>
</a>
</g>
</g>
<!-- Node8&#45;&gt;Node13 -->
<g id="edge14_Node000013_Node000008" class="edge">
<title>Node8&#45;&gt;Node13</title>
<g id="a_edge14_Node000013_Node000008"><a xlink:title=" ">
<path fill="none" stroke="#63b8ff" d="M514.82,-348.32C526.11,-348.19 538.1,-348.07 549.25,-348 566.14,-347.9 584.87,-348.66 600.54,-349.55"/>
<polygon fill="#63b8ff" stroke="#63b8ff" points="514.84,-344.82 504.88,-348.44 514.93,-351.82 514.84,-344.82"/>
</a>
</g>
</g>
<!-- Node9 -->
<g id="Node000009" class="node">
<title>Node9</title>
<g id="a_Node000009"><a xlink:href="class_cpl_1_1_text_1_1_frame_1_1_line_decoder.html" target="_top" xlink:title=" ">
<polygon fill="white" stroke="#666666" points="1667.25,-393 1473.5,-393 1473.5,-349 1667.25,-349 1667.25,-393"/>
<text text-anchor="start" x="1481.5" y="-379.5" font-family="Helvetica,sans-Serif" font-size="10.00">Cpl::Text::Frame::LineDecoder</text>
<text text-anchor="start" x="1481.5" y="-367.5" font-family="Helvetica,sans-Serif" font-size="10.00">&lt; OPTION_CPL_TSHELL_PROCESSOR</text>
<text text-anchor="middle" x="1570.38" y="-355.5" font-family="Helvetica,sans-Serif" font-size="10.00">_INPUT_SIZE &gt;</text>
</a>
</g>
</g>
<!-- Node9&#45;&gt;Node1 -->
<g id="edge8_Node000001_Node000009" class="edge">
<title>Node9&#45;&gt;Node1</title>
<g id="a_edge8_Node000001_Node000009"><a xlink:title=" ">
<path fill="none" stroke="#9a32cd" stroke-dasharray="5,2" d="M1678.82,-350.02C1700.57,-345.74 1723.27,-341.24 1744.5,-337 1753.38,-335.22 1762.82,-333.32 1771.96,-331.46"/>
<polygon fill="#9a32cd" stroke="#9a32cd" points="1678.17,-346.58 1669.04,-351.94 1679.52,-353.45 1678.17,-346.58"/>
</a>
</g>
<text text-anchor="middle" x="1714.88" y="-350.5" font-family="Helvetica,sans-Serif" font-size="10.00" fill="grey"> m_deframer</text>
</g>
<!-- Node10 -->
<g id="Node000010" class="node">
<title>Node10</title>
<g id="a_Node000010"><a xlink:href="class_cpl_1_1_text_1_1_frame_1_1_stream_decoder.html" target="_top" xlink:title="This partially concrete class defines an interface a Text &quot;Decoder&quot; that has a Cpl::Io::Input stream ...">
<polygon fill="white" stroke="#666666" points="1030.75,-368 904.5,-368 904.5,-336 1030.75,-336 1030.75,-368"/>
<text text-anchor="start" x="912.5" y="-354.5" font-family="Helvetica,sans-Serif" font-size="10.00">Cpl::Text::Frame::Stream</text>
<text text-anchor="middle" x="967.62" y="-342.5" font-family="Helvetica,sans-Serif" font-size="10.00">Decoder</text>
</a>
</g>
</g>
<!-- Node10&#45;&gt;Node9 -->
<g id="edge9_Node000009_Node000010" class="edge">
<title>Node10&#45;&gt;Node9</title>
<g id="a_edge9_Node000009_Node000010"><a xlink:title=" ">
<path fill="none" stroke="#63b8ff" d="M1042.32,-351.96C1109.83,-352.14 1212.54,-352.97 1301.75,-356 1358.61,-357.93 1422.19,-361.44 1473.11,-364.58"/>
<polygon fill="#63b8ff" stroke="#63b8ff" points="1042.48,-348.46 1032.47,-351.93 1042.47,-355.46 1042.48,-348.46"/>
</a>
</g>
</g>
<!-- Node14 -->
<g id="Node000014" class="node">
<title>Node14</title>
<g id="a_Node000014"><a xlink:href="class_cpl_1_1_text_1_1_frame_1_1_line_decoder.html" target="_top" xlink:title="This concrete template class provide a basic implementation of the Frame::Decoder interface that uses...">
<polygon fill="white" stroke="#666666" points="1301.75,-397 1153,-397 1153,-365 1301.75,-365 1301.75,-397"/>
<text text-anchor="start" x="1161" y="-383.5" font-family="Helvetica,sans-Serif" font-size="10.00">Cpl::Text::Frame::LineDecoder</text>
<text text-anchor="middle" x="1227.38" y="-371.5" font-family="Helvetica,sans-Serif" font-size="10.00">&lt; BUFSIZE &gt;</text>
</a>
</g>
</g>
<!-- Node10&#45;&gt;Node14 -->
<g id="edge16_Node000014_Node000010" class="edge">
<title>Node10&#45;&gt;Node14</title>
<g id="a_edge16_Node000014_Node000010"><a xlink:title=" ">
<path fill="none" stroke="#63b8ff" d="M1042.02,-360.26C1076.68,-364.16 1117.96,-368.8 1152.65,-372.71"/>
<polygon fill="#63b8ff" stroke="#63b8ff" points="1042.85,-356.83 1032.52,-359.19 1042.07,-363.79 1042.85,-356.83"/>
</a>
</g>
</g>
<!-- Node10&#45;&gt;Node16 -->
<g id="edge23_Node000016_Node000010" class="edge">
<title>Node10&#45;&gt;Node16</title>
<g id="a_edge23_Node000016_Node000010"><a xlink:title=" ">
<path fill="none" stroke="#9a32cd" stroke-dasharray="5,2" d="M1015.61,-330.95C1049.52,-315.2 1096,-292.41 1135,-269 1164.05,-251.57 1195.82,-227.8 1213.2,-214.37"/>
<polygon fill="#9a32cd" stroke="#9a32cd" points="1014.51,-327.61 1006.89,-334.98 1017.44,-333.97 1014.51,-327.61"/>
</a>
</g>
<text text-anchor="middle" x="1100.88" y="-307.5" font-family="Helvetica,sans-Serif" font-size="10.00" fill="grey"> m_deframer</text>
</g>
<!-- Node11 -->
<g id="Node000011" class="node">
<title>Node11</title>
<g id="a_Node000011"><a xlink:href="class_cpl_1_1_text_1_1_frame_1_1_decoder__.html" target="_top" xlink:title="This private partially concrete class implements the basic/common logic for a frame decoder.">
<polygon fill="white" stroke="#666666" points="704.25,-460 568.25,-460 568.25,-440 704.25,-440 704.25,-460"/>
<text text-anchor="middle" x="636.25" y="-446.5" font-family="Helvetica,sans-Serif" font-size="10.00">Cpl::Text::Frame::Decoder_</text>
</a>
</g>
</g>
<!-- Node11&#45;&gt;Node10 -->
<g id="edge10_Node000010_Node000011" class="edge">
<title>Node11&#45;&gt;Node10</title>
<g id="a_edge10_Node000010_Node000011"><a xlink:title=" ">
<path fill="none" stroke="#63b8ff" d="M716.02,-443.52C761.62,-438.03 819.5,-428.03 868.5,-410 896.36,-399.75 925.26,-381.6 944.42,-368.33"/>
<polygon fill="#63b8ff" stroke="#63b8ff" points="715.74,-440.03 706.2,-444.65 716.54,-446.99 715.74,-440.03"/>
</a>
</g>
</g>
<!-- Node12 -->
<g id="Node000012" class="node">
<title>Node12</title>
<g id="a_Node000012"><a xlink:href="class_cpl_1_1_text_1_1_frame_1_1_decoder.html" target="_top" xlink:title="This class defines an interface for &#39;receiving&#39; (decode) a frame.">
<polygon fill="white" stroke="#666666" points="531.25,-460 400.5,-460 400.5,-440 531.25,-440 531.25,-460"/>
<text text-anchor="middle" x="465.88" y="-446.5" font-family="Helvetica,sans-Serif" font-size="10.00">Cpl::Text::Frame::Decoder</text>
</a>
</g>
</g>
<!-- Node12&#45;&gt;Node11 -->
<g id="edge11_Node000011_Node000012" class="edge">
<title>Node12&#45;&gt;Node11</title>
<g id="a_edge11_Node000011_Node000012"><a xlink:title=" ">
<path fill="none" stroke="#63b8ff" d="M542.84,-450C551.23,-450 559.74,-450 568.02,-450"/>
<polygon fill="#63b8ff" stroke="#63b8ff" points="543.01,-446.5 533.01,-450 543.01,-453.5 543.01,-446.5"/>
</a>
</g>
</g>
<!-- Node13&#45;&gt;Node10 -->
<g id="edge12_Node000010_Node000013" class="edge">
<title>Node13&#45;&gt;Node10</title>
<g id="a_edge12_Node000010_Node000013"><a xlink:title=" ">
<path fill="none" stroke="#9a32cd" stroke-dasharray="5,2" d="M683.17,-352C740.77,-352 839.78,-352 904.21,-352"/>
<polygon fill="#9a32cd" stroke="#9a32cd" points="683.39,-348.5 673.39,-352 683.39,-355.5 683.39,-348.5"/>
</a>
</g>
<text text-anchor="middle" x="795.38" y="-354.5" font-family="Helvetica,sans-Serif" font-size="10.00" fill="grey"> m_srcPtr</text>
</g>
<!-- Node14&#45;&gt;Node9 -->
<g id="edge15_Node000009_Node000014" class="edge">
<title>Node14&#45;&gt;Node9</title>
<g id="a_edge15_Node000009_Node000014"><a xlink:title=" ">
<path fill="none" stroke="orange" stroke-dasharray="5,2" d="M1313.37,-378.51C1361.92,-377.08 1422.96,-375.29 1473.25,-373.82"/>
<polygon fill="orange" stroke="orange" points="1313.35,-375.01 1303.46,-378.8 1313.56,-382 1313.35,-375.01"/>
</a>
</g>
<text text-anchor="start" x="1319.75" y="-392.5" font-family="Helvetica,sans-Serif" font-size="10.00" fill="grey"> &lt; OPTION_CPL_TSHELL</text>
<text text-anchor="middle" x="1387.62" y="-380.5" font-family="Helvetica,sans-Serif" font-size="10.00" fill="grey">_PROCESSOR_INPUT_SIZE &gt;</text>
</g>
<!-- Node15&#45;&gt;Node1 -->
<g id="edge17_Node000001_Node000015" class="edge">
<title>Node15&#45;&gt;Node1</title>
<g id="a_edge17_Node000001_Node000015"><a xlink:title=" ">
<path fill="none" stroke="#9a32cd" stroke-dasharray="5,2" d="M1652.19,-321C1687.83,-321 1729.02,-321 1762.04,-321"/>
<polygon fill="#9a32cd" stroke="#9a32cd" points="1652.35,-317.5 1642.35,-321 1652.35,-324.5 1652.35,-317.5"/>
</a>
</g>
<text text-anchor="middle" x="1714.88" y="-323.5" font-family="Helvetica,sans-Serif" font-size="10.00" fill="grey"> m_processor</text>
</g>
<!-- Node16&#45;&gt;Node15 -->
<g id="edge18_Node000015_Node000016" class="edge">
<title>Node16&#45;&gt;Node15</title>
<g id="a_edge18_Node000015_Node000016"><a xlink:title=" ">
<path fill="none" stroke="#63b8ff" d="M1295.61,-216.46C1341.51,-226.03 1403.23,-241 1455.5,-261 1491.61,-274.81 1530.92,-297.36 1552.61,-310.52"/>
<polygon fill="#63b8ff" stroke="#63b8ff" points="1296.57,-213.09 1286.07,-214.51 1295.17,-219.94 1296.57,-213.09"/>
</a>
</g>
</g>
<!-- Node17 -->
<g id="Node000017" class="node">
<title>Node17</title>
<g id="a_Node000017"><a xlink:href="class_cpl_1_1_t_shell_1_1_context__.html" target="_top" xlink:title="This Private Namespace class defines a &quot;Context&quot; for a TShell command.">
<polygon fill="white" stroke="#666666" points="1021.75,-30 913.5,-30 913.5,-10 1021.75,-10 1021.75,-30"/>
<text text-anchor="middle" x="967.62" y="-16.5" font-family="Helvetica,sans-Serif" font-size="10.00">Cpl::TShell::Context_</text>
</a>
</g>
</g>
<!-- Node17&#45;&gt;Node16 -->
<g id="edge19_Node000016_Node000017" class="edge">
<title>Node17&#45;&gt;Node16</title>
<g id="a_edge19_Node000016_Node000017"><a xlink:title=" ">
<path fill="none" stroke="#63b8ff" d="M1026.03,-33.69C1033.78,-36.14 1041.54,-38.91 1048.75,-42 1089.89,-59.65 1101.06,-64.82 1135,-94 1171.71,-125.56 1205.51,-172.86 1219.54,-193.62"/>
<polygon fill="#63b8ff" stroke="#63b8ff" points="1027.16,-30.38 1016.58,-30.88 1025.16,-37.08 1027.16,-30.38"/>
</a>
</g>
</g>
<!-- Node18 -->
<g id="Node000018" class="node">
<title>Node18</title>
<g id="a_Node000018"><a xlink:href="class_cpl_1_1_t_shell_1_1_processor_api.html" target="_top" xlink:title="This class defines the interface a TShell Command Processor.">
<polygon fill="white" stroke="#666666" points="700.12,-20 572.38,-20 572.38,0 700.12,0 700.12,-20"/>
<text text-anchor="middle" x="636.25" y="-6.5" font-family="Helvetica,sans-Serif" font-size="10.00">Cpl::TShell::ProcessorApi</text>
</a>
</g>
</g>
<!-- Node18&#45;&gt;Node17 -->
<g id="edge20_Node000017_Node000018" class="edge">
<title>Node18&#45;&gt;Node17</title>
<g id="a_edge20_Node000017_Node000018"><a xlink:title=" ">
<path fill="none" stroke="#63b8ff" d="M711.53,-12.26C772.88,-14.12 858.49,-16.72 913.24,-18.38"/>
<polygon fill="#63b8ff" stroke="#63b8ff" points="711.98,-8.77 701.88,-11.96 711.77,-15.76 711.98,-8.77"/>
</a>
</g>
</g>
<!-- Node19 -->
<g id="Node000019" class="node">
<title>Node19</title>
<g id="a_Node000019"><a xlink:href="class_cpl_1_1_container_1_1_map.html" target="_top" xlink:title=" ">
<polygon fill="white" stroke="#666666" points="1033.38,-207 901.88,-207 901.88,-175 1033.38,-175 1033.38,-207"/>
<text text-anchor="start" x="909.88" y="-193.5" font-family="Helvetica,sans-Serif" font-size="10.00">Cpl::Container::Map</text>
<text text-anchor="middle" x="967.62" y="-181.5" font-family="Helvetica,sans-Serif" font-size="10.00">&lt; Cpl::TShell::Command &gt;</text>
</a>
</g>
</g>
<!-- Node19&#45;&gt;Node16 -->
<g id="edge21_Node000016_Node000019" class="edge">
<title>Node19&#45;&gt;Node16</title>
<g id="a_edge21_Node000016_Node000019"><a xlink:title=" ">
<path fill="none" stroke="#9a32cd" stroke-dasharray="5,2" d="M1044.99,-185.46C1073.31,-184.38 1105.67,-184.29 1135,-187 1149.46,-188.33 1165.05,-190.83 1179.18,-193.51"/>
<polygon fill="#9a32cd" stroke="#9a32cd" points="1044.88,-181.96 1035.04,-185.89 1045.19,-188.95 1044.88,-181.96"/>
</a>
</g>
<text text-anchor="middle" x="1100.88" y="-189.5" font-family="Helvetica,sans-Serif" font-size="10.00" fill="grey"> m_commands</text>
</g>
<!-- Node20 -->
<g id="Node000020" class="node">
<title>Node20</title>
<g id="a_Node000020"><a xlink:href="class_cpl_1_1_container_1_1_map.html" target="_top" xlink:title="This template class implements an Map using an AVL Binary tree (i.e.">
<polygon fill="white" stroke="#666666" points="687.38,-227 585.12,-227 585.12,-195 687.38,-195 687.38,-227"/>
<text text-anchor="start" x="593.12" y="-213.5" font-family="Helvetica,sans-Serif" font-size="10.00">Cpl::Container::Map</text>
<text text-anchor="middle" x="636.25" y="-201.5" font-family="Helvetica,sans-Serif" font-size="10.00">&lt; ITEM &gt;</text>
</a>
</g>
</g>
<!-- Node20&#45;&gt;Node19 -->
<g id="edge22_Node000019_Node000020" class="edge">
<title>Node20&#45;&gt;Node19</title>
<g id="a_edge22_Node000019_Node000020"><a xlink:title=" ">
<path fill="none" stroke="orange" stroke-dasharray="5,2" d="M698.79,-207.26C756.54,-203.76 842.61,-198.53 901.5,-194.95"/>
<polygon fill="orange" stroke="orange" points="698.91,-203.75 689.14,-207.85 699.34,-210.74 698.91,-203.75"/>
</a>
</g>
<text text-anchor="middle" x="795.38" y="-208.5" font-family="Helvetica,sans-Serif" font-size="10.00" fill="grey"> &lt; Cpl::TShell::Command &gt;</text>
</g>
<!-- Node21 -->
<g id="Node000021" class="node">
<title>Node21</title>
<g id="a_Node000021"><a xlink:href="class_cpl_1_1_system_1_1_mutex.html" target="_top" xlink:title="This mutex class defines the interface for a mutex that has &quot;recursive&quot; semantics.">
<polygon fill="white" stroke="#666666" points="1019.12,-245 916.12,-245 916.12,-225 1019.12,-225 1019.12,-245"/>
<text text-anchor="middle" x="967.62" y="-231.5" font-family="Helvetica,sans-Serif" font-size="10.00">Cpl::System::Mutex</text>
</a>
</g>
</g>
<!-- Node21&#45;&gt;Node16 -->
<g id="edge25_Node000016_Node000021" class="edge">
<title>Node21&#45;&gt;Node16</title>
<g id="a_edge25_Node000016_Node000021"><a xlink:title=" ">
<path fill="none" stroke="#9a32cd" stroke-dasharray="5,2" d="M1030.79,-226.58C1042.72,-225.02 1055.12,-223.43 1066.75,-222 1101.07,-217.79 1139.6,-213.44 1170.2,-210.06"/>
<polygon fill="#9a32cd" stroke="#9a32cd" points="1030.49,-223.09 1021.03,-227.87 1031.4,-230.03 1030.49,-223.09"/>
</a>
</g>
<text text-anchor="middle" x="1100.88" y="-224.5" font-family="Helvetica,sans-Serif" font-size="10.00" fill="grey"> m_outLock</text>
</g>
<!-- Node22 -->
<g id="Node000022" class="node">
<title>Node22</title>
<g id="a_Node000022"><a xlink:href="class_cpl_1_1_text_1_1_f_string.html" target="_top" xlink:title=" ">
<polygon fill="white" stroke="#666666" points="1048.75,-157 886.5,-157 886.5,-113 1048.75,-113 1048.75,-157"/>
<text text-anchor="start" x="894.5" y="-143.5" font-family="Helvetica,sans-Serif" font-size="10.00">Cpl::Text::FString</text>
<text text-anchor="start" x="894.5" y="-131.5" font-family="Helvetica,sans-Serif" font-size="10.00">&lt; OPTION_CPL_TSHELL</text>
<text text-anchor="middle" x="967.62" y="-119.5" font-family="Helvetica,sans-Serif" font-size="10.00">_PROCESSOR_OUTPUT_SIZE &gt;</text>
</a>
</g>
</g>
<!-- Node22&#45;&gt;Node16 -->
<g id="edge26_Node000016_Node000022" class="edge">
<title>Node22&#45;&gt;Node16</title>
<g id="a_edge26_Node000016_Node000022"><a xlink:title=" ">
<path fill="none" stroke="#9a32cd" stroke-dasharray="5,2" d="M1060.34,-150.94C1084.8,-155.95 1111.07,-162.02 1135,-169 1158.32,-175.8 1184.1,-185.92 1202.31,-193.54"/>
<polygon fill="#9a32cd" stroke="#9a32cd" points="1061.22,-147.54 1050.73,-149.01 1059.85,-154.41 1061.22,-147.54"/>
</a>
</g>
<text text-anchor="middle" x="1100.88" y="-171.5" font-family="Helvetica,sans-Serif" font-size="10.00" fill="grey"> m_outputBuffer</text>
</g>
<!-- Node23 -->
<g id="Node000023" class="node">
<title>Node23</title>
<g id="a_Node000023"><a xlink:href="class_cpl_1_1_text_1_1_f_string__.html" target="_top" xlink:title="This mostly concrete class implements a &quot;fixed storage&quot; String Type.">
<polygon fill="white" stroke="#666666" points="514.75,-117 417,-117 417,-97 514.75,-97 514.75,-117"/>
<text text-anchor="middle" x="465.88" y="-103.5" font-family="Helvetica,sans-Serif" font-size="10.00">Cpl::Text::FString_</text>
</a>
</g>
</g>
<!-- Node23&#45;&gt;Node22 -->
<g id="edge27_Node000022_Node000023" class="edge">
<title>Node23&#45;&gt;Node22</title>
<g id="a_edge27_Node000022_Node000023"><a xlink:title=" ">
<path fill="none" stroke="#63b8ff" d="M526.38,-118.27C540.12,-120.84 554.69,-123.54 568.25,-126 700.08,-149.91 735.07,-165.14 868.5,-153 874.28,-152.47 880.22,-151.78 886.2,-150.96"/>
<polygon fill="#63b8ff" stroke="#63b8ff" points="527.03,-114.83 516.56,-116.43 525.74,-121.71 527.03,-114.83"/>
</a>
</g>
</g>
<!-- Node27 -->
<g id="Node000027" class="node">
<title>Node27</title>
<g id="a_Node000027"><a xlink:href="class_cpl_1_1_text_1_1_f_string.html" target="_top" xlink:title="This template class represents a NULL terminated string of a specific length.">
<polygon fill="white" stroke="#666666" points="694.88,-117 577.62,-117 577.62,-97 694.88,-97 694.88,-117"/>
<text text-anchor="middle" x="636.25" y="-103.5" font-family="Helvetica,sans-Serif" font-size="10.00">Cpl::Text::FString&lt; S &gt;</text>
</a>
</g>
</g>
<!-- Node23&#45;&gt;Node27 -->
<g id="edge32_Node000027_Node000023" class="edge">
<title>Node23&#45;&gt;Node27</title>
<g id="a_edge32_Node000027_Node000023"><a xlink:title=" ">
<path fill="none" stroke="#63b8ff" d="M526.3,-107C542.8,-107 560.71,-107 577.14,-107"/>
<polygon fill="#63b8ff" stroke="#63b8ff" points="526.64,-103.5 516.64,-107 526.64,-110.5 526.64,-103.5"/>
</a>
</g>
</g>
<!-- Node28 -->
<g id="Node000028" class="node">
<title>Node28</title>
<g id="a_Node000028"><a xlink:href="class_cpl_1_1_text_1_1_f_string.html" target="_top" xlink:title=" ">
<polygon fill="white" stroke="#666666" points="1043.5,-95 891.75,-95 891.75,-51 1043.5,-51 1043.5,-95"/>
<text text-anchor="start" x="899.75" y="-81.5" font-family="Helvetica,sans-Serif" font-size="10.00">Cpl::Text::FString</text>
<text text-anchor="start" x="899.75" y="-69.5" font-family="Helvetica,sans-Serif" font-size="10.00">&lt; OPTION_CPL_TSHELL</text>
<text text-anchor="middle" x="967.62" y="-57.5" font-family="Helvetica,sans-Serif" font-size="10.00">_PROCESSOR_INPUT_SIZE &gt;</text>
</a>
</g>
</g>
<!-- Node23&#45;&gt;Node28 -->
<g id="edge34_Node000028_Node000023" class="edge">
<title>Node23&#45;&gt;Node28</title>
<g id="a_edge34_Node000028_Node000023"><a xlink:title=" ">
<path fill="none" stroke="#63b8ff" d="M526.48,-95.05C540.17,-92.53 554.69,-90.02 568.25,-88 636.36,-77.87 653.49,-74.78 722.25,-71 787.15,-67.43 803.5,-70.34 868.5,-71 875.91,-71.08 883.64,-71.18 891.36,-71.31"/>
<polygon fill="#63b8ff" stroke="#63b8ff" points="525.89,-91.6 516.71,-96.89 527.18,-98.48 525.89,-91.6"/>
</a>
</g>
</g>
<!-- Node24 -->
<g id="Node000024" class="node">
<title>Node24</title>
<g id="a_Node000024"><a xlink:href="class_cpl_1_1_text_1_1_string__.html" target="_top" xlink:title="This partially concrete class implements the portions of the String Api that is independent of the in...">
<polygon fill="white" stroke="#666666" points="358.25,-117 266.5,-117 266.5,-97 358.25,-97 358.25,-117"/>
<text text-anchor="middle" x="312.38" y="-103.5" font-family="Helvetica,sans-Serif" font-size="10.00">Cpl::Text::String_</text>
</a>
</g>
</g>
<!-- Node24&#45;&gt;Node23 -->
<g id="edge28_Node000023_Node000024" class="edge">
<title>Node24&#45;&gt;Node23</title>
<g id="a_edge28_Node000023_Node000024"><a xlink:title=" ">
<path fill="none" stroke="#63b8ff" d="M369.89,-107C385.24,-107 401.72,-107 416.57,-107"/>
<polygon fill="#63b8ff" stroke="#63b8ff" points="369.93,-103.5 359.93,-107 369.93,-110.5 369.93,-103.5"/>
</a>
</g>
</g>
<!-- Node25 -->
<g id="Node000025" class="node">
<title>Node25</title>
<g id="a_Node000025"><a xlink:href="class_cpl_1_1_text_1_1_string.html" target="_top" xlink:title="This abstract class defines the operations that can be before on a NULL terminated string.">
<polygon fill="white" stroke="#666666" points="224.25,-117 137.75,-117 137.75,-97 224.25,-97 224.25,-117"/>
<text text-anchor="middle" x="181" y="-103.5" font-family="Helvetica,sans-Serif" font-size="10.00">Cpl::Text::String</text>
</a>
</g>
</g>
<!-- Node25&#45;&gt;Node24 -->
<g id="edge29_Node000024_Node000025" class="edge">
<title>Node25&#45;&gt;Node24</title>
<g id="a_edge29_Node000024_Node000025"><a xlink:title=" ">
<path fill="none" stroke="#63b8ff" d="M236.17,-107C246.11,-107 256.39,-107 266.03,-107"/>
<polygon fill="#63b8ff" stroke="#63b8ff" points="236.23,-103.5 226.23,-107 236.23,-110.5 236.23,-103.5"/>
</a>
</g>
</g>
<!-- Node26 -->
<g id="Node000026" class="node">
<title>Node26</title>
<g id="a_Node000026"><a xlink:href="class_cpl_1_1_container_1_1_key.html" target="_top" xlink:title="This abstract class defines the interface that a contained object must support if it has comparable k...">
<polygon fill="white" stroke="#666666" points="100.75,-117 0,-117 0,-97 100.75,-97 100.75,-117"/>
<text text-anchor="middle" x="50.38" y="-103.5" font-family="Helvetica,sans-Serif" font-size="10.00">Cpl::Container::Key</text>
</a>
</g>
</g>
<!-- Node26&#45;&gt;Node25 -->
<g id="edge30_Node000025_Node000026" class="edge">
<title>Node26&#45;&gt;Node25</title>
<g id="a_edge30_Node000025_Node000026"><a xlink:title=" ">
<path fill="none" stroke="#63b8ff" d="M112.53,-107C120.98,-107 129.5,-107 137.51,-107"/>
<polygon fill="#63b8ff" stroke="#63b8ff" points="112.62,-103.5 102.62,-107 112.62,-110.5 112.62,-103.5"/>
</a>
</g>
</g>
<!-- Node27&#45;&gt;Node22 -->
<g id="edge31_Node000022_Node000027" class="edge">
<title>Node27&#45;&gt;Node22</title>
<g id="a_edge31_Node000022_Node000027"><a xlink:title=" ">
<path fill="none" stroke="orange" stroke-dasharray="5,2" d="M706.21,-112.86C758.65,-117.32 830.93,-123.46 886.04,-128.15"/>
<polygon fill="orange" stroke="orange" points="706.77,-109.4 696.51,-112.04 706.18,-116.37 706.77,-109.4"/>
</a>
</g>
<text text-anchor="start" x="722.25" y="-140.5" font-family="Helvetica,sans-Serif" font-size="10.00" fill="grey"> &lt; OPTION_CPL_TSHELL</text>
<text text-anchor="middle" x="795.38" y="-128.5" font-family="Helvetica,sans-Serif" font-size="10.00" fill="grey">_PROCESSOR_OUTPUT_SIZE &gt;</text>
</g>
<!-- Node27&#45;&gt;Node28 -->
<g id="edge35_Node000028_Node000027" class="edge">
<title>Node27&#45;&gt;Node28</title>
<g id="a_edge35_Node000028_Node000027"><a xlink:title=" ">
<path fill="none" stroke="orange" stroke-dasharray="5,2" d="M686.39,-93.91C698.07,-91.22 710.54,-88.7 722.25,-87 778.6,-78.82 842.92,-75.37 891.42,-73.93"/>
<polygon fill="orange" stroke="orange" points="685.87,-90.43 676.96,-96.16 687.5,-97.24 685.87,-90.43"/>
</a>
</g>
<text text-anchor="start" x="727.5" y="-101.5" font-family="Helvetica,sans-Serif" font-size="10.00" fill="grey"> &lt; OPTION_CPL_TSHELL</text>
<text text-anchor="middle" x="795.38" y="-89.5" font-family="Helvetica,sans-Serif" font-size="10.00" fill="grey">_PROCESSOR_INPUT_SIZE &gt;</text>
</g>
<!-- Node28&#45;&gt;Node16 -->
<g id="edge33_Node000016_Node000028" class="edge">
<title>Node28&#45;&gt;Node16</title>
<g id="a_edge33_Node000016_Node000028"><a xlink:title=" ">
<path fill="none" stroke="#9a32cd" stroke-dasharray="5,2" d="M1054.66,-92.6C1081.36,-100.57 1110.25,-111.22 1135,-125 1169.08,-143.97 1201.87,-177.08 1217.26,-193.77"/>
<polygon fill="#9a32cd" stroke="#9a32cd" points="1055.8,-89.28 1045.22,-89.87 1053.85,-96.01 1055.8,-89.28"/>
</a>
</g>
<text text-anchor="middle" x="1100.88" y="-139.5" font-family="Helvetica,sans-Serif" font-size="10.00" fill="grey"> m_tokenBuffer</text>
<text text-anchor="middle" x="1100.88" y="-127.5" font-family="Helvetica,sans-Serif" font-size="10.00" fill="grey">m_tokenBuffer2</text>
</g>
</g>
</svg>
