<?xml version="1.0" encoding="UTF-8" standalone="no"?>
<!DOCTYPE svg PUBLIC "-//W3C//DTD SVG 1.1//EN"
 "http://www.w3.org/Graphics/SVG/1.1/DTD/svg11.dtd">
<!-- Generated by graphviz version 2.38.0 (20140413.2041)
 -->
<!-- Title: Cpl::Io::Stdio::StdIn Pages: 1 -->
<svg width="281pt" height="266pt"
 viewBox="0.00 0.00 280.50 266.00" xmlns="http://www.w3.org/2000/svg" xmlns:xlink="http://www.w3.org/1999/xlink">
<g id="graph0" class="graph" transform="scale(1 1) rotate(0) translate(4 262)">
<title>Cpl::Io::Stdio::StdIn</title>
<polygon fill="white" stroke="none" points="-4,4 -4,-262 276.5,-262 276.5,4 -4,4"/>
<!-- Node1 -->
<g id="node1" class="node"><title>Node1</title>
<g id="a_node1"><a xlink:title="This concrete class represents the C&#45;library &#39;stdin&#39; stream.">
<polygon fill="#bfbfbf" stroke="black" points="147.5,-0.5 147.5,-19.5 250.5,-19.5 250.5,-0.5 147.5,-0.5"/>
<text text-anchor="middle" x="199" y="-7.5" font-family="Helvetica,sans-Serif" font-size="10.00">Cpl::Io::Stdio::StdIn</text>
</a>
</g>
</g>
<!-- Node2 -->
<g id="node2" class="node"><title>Node2</title>
<g id="a_node2"><a xlink:href="class_cpl_1_1_io_1_1_stdio_1_1_input__.html" target="_top" xlink:title="This concrete class implements a Input stream using the underlying platform&#39;s native OS &#39;file interfa...">
<polygon fill="white" stroke="black" points="145.5,-57.5 145.5,-76.5 252.5,-76.5 252.5,-57.5 145.5,-57.5"/>
<text text-anchor="middle" x="199" y="-64.5" font-family="Helvetica,sans-Serif" font-size="10.00">Cpl::Io::Stdio::Input_</text>
</a>
</g>
</g>
<!-- Node2&#45;&gt;Node1 -->
<g id="edge1" class="edge"><title>Node2&#45;&gt;Node1</title>
<path fill="none" stroke="midnightblue" d="M199,-47.1166C199,-37.8173 199,-27.0557 199,-19.7149"/>
<polygon fill="midnightblue" stroke="midnightblue" points="195.5,-47.4062 199,-57.4063 202.5,-47.4063 195.5,-47.4062"/>
</g>
<!-- Node3 -->
<g id="node3" class="node"><title>Node3</title>
<g id="a_node3"><a xlink:href="class_cpl_1_1_io_1_1_input.html" target="_top" xlink:title="This partially abstract class defines a interface for operating on an input stream (example of a stre...">
<polygon fill="white" stroke="black" points="86.5,-124.5 86.5,-143.5 159.5,-143.5 159.5,-124.5 86.5,-124.5"/>
<text text-anchor="middle" x="123" y="-131.5" font-family="Helvetica,sans-Serif" font-size="10.00">Cpl::Io::Input</text>
</a>
</g>
</g>
<!-- Node3&#45;&gt;Node2 -->
<g id="edge2" class="edge"><title>Node3&#45;&gt;Node2</title>
<path fill="none" stroke="midnightblue" d="M140.874,-117.713C155.847,-104.907 176.681,-87.0884 188.913,-76.6273"/>
<polygon fill="midnightblue" stroke="midnightblue" points="138.574,-115.074 133.25,-124.234 143.124,-120.394 138.574,-115.074"/>
</g>
<!-- Node4 -->
<g id="node4" class="node"><title>Node4</title>
<g id="a_node4"><a xlink:href="class_cpl_1_1_io_1_1_close.html" target="_top" xlink:title="This abstract class defines a close operation that is intended to be used Input and Output streams/fi...">
<polygon fill="white" stroke="black" points="14,-181.5 14,-200.5 90,-200.5 90,-181.5 14,-181.5"/>
<text text-anchor="middle" x="52" y="-188.5" font-family="Helvetica,sans-Serif" font-size="10.00">Cpl::Io::Close</text>
</a>
</g>
</g>
<!-- Node4&#45;&gt;Node3 -->
<g id="edge3" class="edge"><title>Node4&#45;&gt;Node3</title>
<path fill="none" stroke="midnightblue" d="M71.3659,-174.998C84.3219,-164.962 100.92,-152.104 111.75,-143.715"/>
<polygon fill="midnightblue" stroke="midnightblue" points="68.8559,-172.515 63.0938,-181.406 73.1427,-178.049 68.8559,-172.515"/>
</g>
<!-- Node5 -->
<g id="node5" class="node"><title>Node5</title>
<g id="a_node5"><a xlink:href="class_cpl_1_1_container_1_1_item.html" target="_top" xlink:title="This class is used by the Container classes to implement a various types of singly linked containers.">
<polygon fill="white" stroke="black" points="0,-238.5 0,-257.5 104,-257.5 104,-238.5 0,-238.5"/>
<text text-anchor="middle" x="52" y="-245.5" font-family="Helvetica,sans-Serif" font-size="10.00">Cpl::Container::Item</text>
</a>
</g>
</g>
<!-- Node5&#45;&gt;Node4 -->
<g id="edge4" class="edge"><title>Node5&#45;&gt;Node4</title>
<path fill="none" stroke="midnightblue" d="M52,-228.117C52,-218.817 52,-208.056 52,-200.715"/>
<polygon fill="midnightblue" stroke="midnightblue" points="48.5001,-228.406 52,-238.406 55.5001,-228.406 48.5001,-228.406"/>
</g>
<!-- Node6 -->
<g id="node6" class="node"><title>Node6</title>
<g id="a_node6"><a xlink:href="class_cpl_1_1_io_1_1_is_eos.html" target="_top" xlink:title="This abstract class defines a isEos() operation that is intended to be used Input and Output streams.">
<polygon fill="white" stroke="black" points="108.5,-181.5 108.5,-200.5 185.5,-200.5 185.5,-181.5 108.5,-181.5"/>
<text text-anchor="middle" x="147" y="-188.5" font-family="Helvetica,sans-Serif" font-size="10.00">Cpl::Io::IsEos</text>
</a>
</g>
</g>
<!-- Node6&#45;&gt;Node3 -->
<g id="edge5" class="edge"><title>Node6&#45;&gt;Node3</title>
<path fill="none" stroke="midnightblue" d="M139.159,-172.031C135.013,-162.531 130.112,-151.298 126.803,-143.715"/>
<polygon fill="midnightblue" stroke="midnightblue" points="136.043,-173.641 143.25,-181.406 142.458,-170.841 136.043,-173.641"/>
</g>
<!-- Node7 -->
<g id="node7" class="node"><title>Node7</title>
<g id="a_node7"><a xlink:href="union_cpl_1_1_io_1_1_descriptor.html" target="_top" xlink:title="This union defines a &#39;IO descriptor&#39; in terms of a an integer and/or a void*.">
<polygon fill="white" stroke="black" points="177.5,-124.5 177.5,-143.5 272.5,-143.5 272.5,-124.5 177.5,-124.5"/>
<text text-anchor="middle" x="225" y="-131.5" font-family="Helvetica,sans-Serif" font-size="10.00">Cpl::Io::Descriptor</text>
</a>
</g>
</g>
<!-- Node7&#45;&gt;Node2 -->
<g id="edge6" class="edge"><title>Node7&#45;&gt;Node2</title>
<path fill="none" stroke="#9a32cd" stroke-dasharray="5,2" d="M217.716,-114.79C212.723,-102.308 206.325,-86.3135 202.451,-76.6273"/>
<polygon fill="#9a32cd" stroke="#9a32cd" points="214.53,-116.249 221.494,-124.234 221.029,-113.649 214.53,-116.249"/>
<text text-anchor="middle" x="232" y="-98" font-family="Helvetica,sans-Serif" font-size="10.00"> m_inFd</text>
</g>
</g>
</svg>
