<?xml version="1.0" encoding="UTF-8" standalone="no"?>
<!DOCTYPE svg PUBLIC "-//W3C//DTD SVG 1.1//EN"
 "http://www.w3.org/Graphics/SVG/1.1/DTD/svg11.dtd">
<!-- Generated by graphviz version 2.38.0 (20140413.2041)
 -->
<!-- Title: Cpl::System::Runnable Pages: 1 -->
<svg width="822pt" height="211pt"
 viewBox="0.00 0.00 822.00 211.00" xmlns="http://www.w3.org/2000/svg" xmlns:xlink="http://www.w3.org/1999/xlink">
<g id="graph0" class="graph" transform="scale(1 1) rotate(0) translate(4 207)">
<title>Cpl::System::Runnable</title>
<polygon fill="white" stroke="none" points="-4,4 -4,-207 818,-207 818,4 -4,4"/>
<!-- Node1 -->
<g id="node1" class="node"><title>Node1</title>
<g id="a_node1"><a xlink:title="This is an abstract class defines the interface for an object that is &quot;executed&quot; when a Thread object...">
<polygon fill="#bfbfbf" stroke="black" points="0,-60 0,-79 117,-79 117,-60 0,-60"/>
<text text-anchor="middle" x="58.5" y="-67" font-family="Helvetica,sans-Serif" font-size="10.00">Cpl::System::Runnable</text>
</a>
</g>
</g>
<!-- Node2 -->
<g id="node2" class="node"><title>Node2</title>
<g id="a_node2"><a xlink:href="class_cpl_1_1_io_1_1_socket_1_1_listener.html" target="_top" xlink:title="This abstract class defines the interface for a SIMPLE socket listener.">
<polygon fill="white" stroke="black" points="171.5,-118 171.5,-137 293.5,-137 293.5,-118 171.5,-118"/>
<text text-anchor="middle" x="232.5" y="-125" font-family="Helvetica,sans-Serif" font-size="10.00">Cpl::Io::Socket::Listener</text>
</a>
</g>
</g>
<!-- Node1&#45;&gt;Node2 -->
<g id="edge1" class="edge"><title>Node1&#45;&gt;Node2</title>
<path fill="none" stroke="midnightblue" d="M97.7613,-82.4021C129.624,-93.1464 174.283,-108.206 203.056,-117.908"/>
<polygon fill="midnightblue" stroke="midnightblue" points="98.4964,-78.9564 87.9023,-79.0775 96.2597,-85.5894 98.4964,-78.9564"/>
</g>
<!-- Node6 -->
<g id="node6" class="node"><title>Node6</title>
<g id="a_node6"><a xlink:href="class_cpl_1_1_system_1_1_event_loop.html" target="_top" xlink:title="This concrete class is a Runnable object that provides a event driven execution model for a thread.">
<polygon fill="white" stroke="black" points="171,-60 171,-79 294,-79 294,-60 171,-60"/>
<text text-anchor="middle" x="232.5" y="-67" font-family="Helvetica,sans-Serif" font-size="10.00">Cpl::System::EventLoop</text>
</a>
</g>
</g>
<!-- Node1&#45;&gt;Node6 -->
<g id="edge5" class="edge"><title>Node1&#45;&gt;Node6</title>
<path fill="none" stroke="midnightblue" d="M127.545,-69.5C141.883,-69.5 156.918,-69.5 170.958,-69.5"/>
<polygon fill="midnightblue" stroke="midnightblue" points="127.252,-66.0001 117.252,-69.5 127.252,-73.0001 127.252,-66.0001"/>
</g>
<!-- Node13 -->
<g id="node13" class="node"><title>Node13</title>
<g id="a_node13"><a xlink:href="class_cpl_1_1_system_1_1_free_r_t_o_s_1_1_make_current_thread_a_cpl_thread.html" target="_top" xlink:title="This is a helper class that can be used to make the current thread a CPL thread.">
<polygon fill="white" stroke="black" points="153,-10.5 153,-40.5 312,-40.5 312,-10.5 153,-10.5"/>
<text text-anchor="start" x="161" y="-28.5" font-family="Helvetica,sans-Serif" font-size="10.00">Cpl::System::FreeRTOS</text>
<text text-anchor="middle" x="232.5" y="-17.5" font-family="Helvetica,sans-Serif" font-size="10.00">::MakeCurrentThreadACplThread</text>
</a>
</g>
</g>
<!-- Node1&#45;&gt;Node13 -->
<g id="edge12" class="edge"><title>Node1&#45;&gt;Node13</title>
<path fill="none" stroke="midnightblue" d="M106.511,-57.4739C126.913,-52.2547 151.029,-46.0856 172.608,-40.5654"/>
<polygon fill="midnightblue" stroke="midnightblue" points="105.642,-54.0834 96.8214,-59.9527 107.377,-60.8651 105.642,-54.0834"/>
</g>
<!-- Node3 -->
<g id="node3" class="node"><title>Node3</title>
<g id="a_node3"><a xlink:href="class_cpl_1_1_io_1_1_socket_1_1_listener__.html" target="_top" xlink:title="This private, mostly concrete helper class manages the top level threading aspects for a simple liste...">
<polygon fill="white" stroke="black" points="348,-129 348,-148 476,-148 476,-129 348,-129"/>
<text text-anchor="middle" x="412" y="-136" font-family="Helvetica,sans-Serif" font-size="10.00">Cpl::Io::Socket::Listener_</text>
</a>
</g>
</g>
<!-- Node2&#45;&gt;Node3 -->
<g id="edge2" class="edge"><title>Node2&#45;&gt;Node3</title>
<path fill="none" stroke="midnightblue" d="M303.592,-131.844C318.228,-132.751 333.573,-133.702 347.936,-134.592"/>
<polygon fill="midnightblue" stroke="midnightblue" points="303.791,-128.349 293.593,-131.224 303.358,-135.336 303.791,-128.349"/>
</g>
<!-- Node4 -->
<g id="node4" class="node"><title>Node4</title>
<g id="a_node4"><a xlink:href="class_cpl_1_1_io_1_1_socket_1_1_posix_1_1_listener.html" target="_top" xlink:title="This concrete class implements the Cpl::Io::Socket::Listener interface using IPv4 addressing for the ...">
<polygon fill="white" stroke="black" points="515.5,-172.5 515.5,-202.5 628.5,-202.5 628.5,-172.5 515.5,-172.5"/>
<text text-anchor="start" x="523.5" y="-190.5" font-family="Helvetica,sans-Serif" font-size="10.00">Cpl::Io::Socket::Posix</text>
<text text-anchor="middle" x="572" y="-179.5" font-family="Helvetica,sans-Serif" font-size="10.00">::Listener</text>
</a>
</g>
</g>
<!-- Node3&#45;&gt;Node4 -->
<g id="edge3" class="edge"><title>Node3&#45;&gt;Node4</title>
<path fill="none" stroke="midnightblue" d="M453.444,-151.043C474.497,-157.572 500.391,-165.602 522.513,-172.463"/>
<polygon fill="midnightblue" stroke="midnightblue" points="454.427,-147.683 443.839,-148.064 452.354,-154.369 454.427,-147.683"/>
</g>
<!-- Node5 -->
<g id="node5" class="node"><title>Node5</title>
<g id="a_node5"><a xlink:href="class_cpl_1_1_io_1_1_socket_1_1_win32_1_1_listener.html" target="_top" xlink:title="This concrete class implements the Cpl::Io::Socket::Listener interface using IPv4 addressing for the ...">
<polygon fill="white" stroke="black" points="514.5,-123.5 514.5,-153.5 629.5,-153.5 629.5,-123.5 514.5,-123.5"/>
<text text-anchor="start" x="522.5" y="-141.5" font-family="Helvetica,sans-Serif" font-size="10.00">Cpl::Io::Socket::Win32</text>
<text text-anchor="middle" x="572" y="-130.5" font-family="Helvetica,sans-Serif" font-size="10.00">::Listener</text>
</a>
</g>
</g>
<!-- Node3&#45;&gt;Node5 -->
<g id="edge4" class="edge"><title>Node3&#45;&gt;Node5</title>
<path fill="none" stroke="midnightblue" d="M486.434,-138.5C495.783,-138.5 505.237,-138.5 514.269,-138.5"/>
<polygon fill="midnightblue" stroke="midnightblue" points="486.354,-135 476.354,-138.5 486.354,-142 486.354,-135"/>
</g>
<!-- Node7 -->
<g id="node7" class="node"><title>Node7</title>
<g id="a_node7"><a xlink:href="class_cpl_1_1_dm_1_1_event_loop.html" target="_top" xlink:title="This class extends the Cpl::System::EventLoop class to support the asynchronous change notification g...">
<polygon fill="white" stroke="black" points="360,-88 360,-107 464,-107 464,-88 360,-88"/>
<text text-anchor="middle" x="412" y="-95" font-family="Helvetica,sans-Serif" font-size="10.00">Cpl::Dm::EventLoop</text>
</a>
</g>
</g>
<!-- Node6&#45;&gt;Node7 -->
<g id="edge6" class="edge"><title>Node6&#45;&gt;Node7</title>
<path fill="none" stroke="midnightblue" d="M304.015,-80.6235C322.664,-83.5653 342.436,-86.6842 359.841,-89.4299"/>
<polygon fill="midnightblue" stroke="midnightblue" points="304.512,-77.1587 294.089,-79.0577 303.421,-84.0732 304.512,-77.1587"/>
</g>
<!-- Node11 -->
<g id="node11" class="node"><title>Node11</title>
<g id="a_node11"><a xlink:href="class_cpl_1_1_itc_1_1_mailbox_server.html" target="_top" xlink:title="This class collects the common functions of a generic server providing a mailbox and Event loop.">
<polygon fill="white" stroke="black" points="354,-50 354,-69 470,-69 470,-50 354,-50"/>
<text text-anchor="middle" x="412" y="-57" font-family="Helvetica,sans-Serif" font-size="10.00">Cpl::Itc::MailboxServer</text>
</a>
</g>
</g>
<!-- Node6&#45;&gt;Node11 -->
<g id="edge10" class="edge"><title>Node6&#45;&gt;Node11</title>
<path fill="none" stroke="midnightblue" d="M304.239,-65.5147C320.755,-64.5842 338.141,-63.6047 353.975,-62.7127"/>
<polygon fill="midnightblue" stroke="midnightblue" points="303.876,-62.0295 294.089,-66.0865 304.27,-69.0184 303.876,-62.0295"/>
</g>
<!-- Node12 -->
<g id="node12" class="node"><title>Node12</title>
<g id="a_node12"><a xlink:href="class_storm_1_1_thermostat_1_1_sim_house_1_1_house.html" target="_top" xlink:title="This class glues the House Simulation into the Thermostat Test Application.">
<polygon fill="white" stroke="black" points="360,-0.5 360,-30.5 464,-30.5 464,-0.5 360,-0.5"/>
<text text-anchor="start" x="368" y="-18.5" font-family="Helvetica,sans-Serif" font-size="10.00">Storm::Thermostat::</text>
<text text-anchor="middle" x="412" y="-7.5" font-family="Helvetica,sans-Serif" font-size="10.00">SimHouse::House</text>
</a>
</g>
</g>
<!-- Node6&#45;&gt;Node12 -->
<g id="edge11" class="edge"><title>Node6&#45;&gt;Node12</title>
<path fill="none" stroke="midnightblue" d="M283.382,-57.4411C292.921,-54.9519 302.798,-52.2473 312,-49.5 330.98,-43.833 351.746,-36.828 369.335,-30.6517"/>
<polygon fill="midnightblue" stroke="midnightblue" points="282.424,-54.0737 273.608,-59.9499 284.164,-60.8539 282.424,-54.0737"/>
</g>
<!-- Node8 -->
<g id="node8" class="node"><title>Node8</title>
<g id="a_node8"><a xlink:href="class_cpl_1_1_dm_1_1_mailbox_server.html" target="_top" xlink:title="This class extends the Cpl::Dm::EventLoop and Cpl::Itc:Mailbox classes to support the asynchronous ch...">
<polygon fill="white" stroke="black" points="512,-85 512,-104 632,-104 632,-85 512,-85"/>
<text text-anchor="middle" x="572" y="-92" font-family="Helvetica,sans-Serif" font-size="10.00">Cpl::Dm::MailboxServer</text>
</a>
</g>
</g>
<!-- Node7&#45;&gt;Node8 -->
<g id="edge7" class="edge"><title>Node7&#45;&gt;Node8</title>
<path fill="none" stroke="midnightblue" d="M474.428,-96.3337C486.686,-96.1009 499.54,-95.8568 511.724,-95.6255"/>
<polygon fill="midnightblue" stroke="midnightblue" points="474.23,-92.8367 464.298,-96.526 474.363,-99.8354 474.23,-92.8367"/>
</g>
<!-- Node9 -->
<g id="node9" class="node"><title>Node9</title>
<g id="a_node9"><a xlink:href="class_cpl_1_1_persistent_1_1_record_server.html" target="_top" xlink:title="This concrete class provides an Event driven Runnable object for executing the read/write operation t...">
<polygon fill="white" stroke="black" points="668,-107 668,-126 814,-126 814,-107 668,-107"/>
<text text-anchor="middle" x="741" y="-114" font-family="Helvetica,sans-Serif" font-size="10.00">Cpl::Persistent::RecordServer</text>
</a>
</g>
</g>
<!-- Node8&#45;&gt;Node9 -->
<g id="edge8" class="edge"><title>Node8&#45;&gt;Node9</title>
<path fill="none" stroke="midnightblue" d="M642.493,-103.655C650.908,-104.763 659.52,-105.898 667.971,-107.011"/>
<polygon fill="midnightblue" stroke="midnightblue" points="642.72,-100.154 632.348,-102.318 641.805,-107.095 642.72,-100.154"/>
</g>
<!-- Node10 -->
<g id="node10" class="node"><title>Node10</title>
<g id="a_node10"><a xlink:href="class_storm_1_1_thermostat_1_1_algorithm.html" target="_top" xlink:title="This concrete class is a &quot;maker&quot; pattern assembles the objects needed for the thermostat&#39;s control al...">
<polygon fill="white" stroke="black" points="689,-57.5 689,-87.5 793,-87.5 793,-57.5 689,-57.5"/>
<text text-anchor="start" x="697" y="-75.5" font-family="Helvetica,sans-Serif" font-size="10.00">Storm::Thermostat::</text>
<text text-anchor="middle" x="741" y="-64.5" font-family="Helvetica,sans-Serif" font-size="10.00">Algorithm</text>
</a>
</g>
</g>
<!-- Node8&#45;&gt;Node10 -->
<g id="edge9" class="edge"><title>Node8&#45;&gt;Node10</title>
<path fill="none" stroke="midnightblue" d="M642.448,-85.3512C657.999,-83.3025 674.22,-81.1657 688.868,-79.2359"/>
<polygon fill="midnightblue" stroke="midnightblue" points="641.805,-81.9055 632.348,-86.6817 642.72,-88.8455 641.805,-81.9055"/>
</g>
</g>
</svg>
