<?xml version="1.0" encoding="UTF-8" standalone="no"?>
<!DOCTYPE svg PUBLIC "-//W3C//DTD SVG 1.1//EN"
 "http://www.w3.org/Graphics/SVG/1.1/DTD/svg11.dtd">
<!-- Generated by graphviz version 2.38.0 (20140413.2041)
 -->
<!-- Title: Cpl::Itc::Mailbox Pages: 1 -->
<svg width="784pt" height="122pt"
 viewBox="0.00 0.00 784.00 121.50" xmlns="http://www.w3.org/2000/svg" xmlns:xlink="http://www.w3.org/1999/xlink">
<g id="graph0" class="graph" transform="scale(1 1) rotate(0) translate(4 117.5)">
<title>Cpl::Itc::Mailbox</title>
<polygon fill="white" stroke="none" points="-4,4 -4,-117.5 780,-117.5 780,4 -4,4"/>
<!-- Node1 -->
<g id="node1" class="node"><title>Node1</title>
<g id="a_node1"><a xlink:title="This mailbox class implements an Inter Thread Communications message queue.">
<polygon fill="#bfbfbf" stroke="black" points="348,-33 348,-52 436,-52 436,-33 348,-33"/>
<text text-anchor="middle" x="392" y="-40" font-family="Helvetica,sans-Serif" font-size="10.00">Cpl::Itc::Mailbox</text>
</a>
</g>
</g>
<!-- Node5 -->
<g id="node5" class="node"><title>Node5</title>
<g id="a_node5"><a xlink:href="class_cpl_1_1_dm_1_1_mailbox_server.html" target="_top" xlink:title="This class extends the Cpl::Dm::EventLoop and Cpl::Itc:Mailbox classes to support the asynchronous ch...">
<polygon fill="white" stroke="black" points="473,-56 473,-75 593,-75 593,-56 473,-56"/>
<text text-anchor="middle" x="533" y="-63" font-family="Helvetica,sans-Serif" font-size="10.00">Cpl::Dm::MailboxServer</text>
</a>
</g>
</g>
<!-- Node1&#45;&gt;Node5 -->
<g id="edge4" class="edge"><title>Node1&#45;&gt;Node5</title>
<path fill="none" stroke="midnightblue" d="M446.102,-51.2867C455.392,-52.8238 465.096,-54.4295 474.498,-55.9852"/>
<polygon fill="midnightblue" stroke="midnightblue" points="446.656,-47.8308 436.219,-49.6513 445.513,-54.7369 446.656,-47.8308"/>
</g>
<!-- Node8 -->
<g id="node8" class="node"><title>Node8</title>
<g id="a_node8"><a xlink:href="class_cpl_1_1_itc_1_1_mailbox_server.html" target="_top" xlink:title="This class collects the common functions of a generic server providing a mailbox and Event loop.">
<polygon fill="white" stroke="black" points="475,-18 475,-37 591,-37 591,-18 475,-18"/>
<text text-anchor="middle" x="533" y="-25" font-family="Helvetica,sans-Serif" font-size="10.00">Cpl::Itc::MailboxServer</text>
</a>
</g>
</g>
<!-- Node1&#45;&gt;Node8 -->
<g id="edge7" class="edge"><title>Node1&#45;&gt;Node8</title>
<path fill="none" stroke="midnightblue" d="M446.168,-36.7624C455.521,-35.7531 465.292,-34.6987 474.75,-33.678"/>
<polygon fill="midnightblue" stroke="midnightblue" points="445.785,-33.2833 436.219,-37.8361 446.536,-40.2429 445.785,-33.2833"/>
</g>
<!-- Node2 -->
<g id="node2" class="node"><title>Node2</title>
<g id="a_node2"><a xlink:href="class_cpl_1_1_itc_1_1_post_api.html" target="_top" xlink:title="This abstract class represents the interface used to send messages to a mailbox.">
<polygon fill="white" stroke="black" points="213,-50 213,-69 302,-69 302,-50 213,-50"/>
<text text-anchor="middle" x="257.5" y="-57" font-family="Helvetica,sans-Serif" font-size="10.00">Cpl::Itc::PostApi</text>
</a>
</g>
</g>
<!-- Node2&#45;&gt;Node1 -->
<g id="edge1" class="edge"><title>Node2&#45;&gt;Node1</title>
<path fill="none" stroke="midnightblue" d="M312.409,-52.5834C324.167,-51.0747 336.464,-49.4971 347.745,-48.0497"/>
<polygon fill="midnightblue" stroke="midnightblue" points="311.726,-49.1422 302.253,-53.8865 312.617,-56.0853 311.726,-49.1422"/>
</g>
<!-- Node3 -->
<g id="node3" class="node"><title>Node3</title>
<g id="a_node3"><a xlink:href="class_cpl_1_1_container_1_1_s_list.html" target="_top" xlink:title=" ">
<polygon fill="white" stroke="black" points="204,-0.5 204,-30.5 311,-30.5 311,-0.5 204,-0.5"/>
<text text-anchor="start" x="212" y="-18.5" font-family="Helvetica,sans-Serif" font-size="10.00">Cpl::Container::SList</text>
<text text-anchor="middle" x="257.5" y="-7.5" font-family="Helvetica,sans-Serif" font-size="10.00">&lt; Message &gt;</text>
</a>
</g>
</g>
<!-- Node3&#45;&gt;Node1 -->
<g id="edge2" class="edge"><title>Node3&#45;&gt;Node1</title>
<path fill="none" stroke="midnightblue" d="M321.3,-28.297C330.266,-30.124 339.316,-31.9683 347.792,-33.6954"/>
<polygon fill="midnightblue" stroke="midnightblue" points="321.746,-24.816 311.248,-26.2487 320.348,-31.675 321.746,-24.816"/>
</g>
<!-- Node4 -->
<g id="node4" class="node"><title>Node4</title>
<g id="a_node4"><a xlink:href="class_cpl_1_1_container_1_1_s_list.html" target="_top" xlink:title="This template class implements a singly linked list which maintains the ordering imposed on it by the...">
<polygon fill="white" stroke="black" points="0,-0.5 0,-30.5 107,-30.5 107,-0.5 0,-0.5"/>
<text text-anchor="start" x="8" y="-18.5" font-family="Helvetica,sans-Serif" font-size="10.00">Cpl::Container::SList</text>
<text text-anchor="middle" x="53.5" y="-7.5" font-family="Helvetica,sans-Serif" font-size="10.00">&lt; ITEM &gt;</text>
</a>
</g>
</g>
<!-- Node4&#45;&gt;Node3 -->
<g id="edge3" class="edge"><title>Node4&#45;&gt;Node3</title>
<path fill="none" stroke="orange" stroke-dasharray="5,2" d="M117.072,-15.5C144.902,-15.5 177.305,-15.5 203.867,-15.5"/>
<polygon fill="orange" stroke="orange" points="117.046,-12.0001 107.046,-15.5 117.046,-19.0001 117.046,-12.0001"/>
<text text-anchor="middle" x="155.5" y="-18.5" font-family="Helvetica,sans-Serif" font-size="10.00"> &lt; Message &gt;</text>
</g>
<!-- Node6 -->
<g id="node6" class="node"><title>Node6</title>
<g id="a_node6"><a xlink:href="class_cpl_1_1_dm_1_1_periodic_scheduler.html" target="_top" xlink:title="This class extends the Cpl::Dm::MailboxServer class to add periodic scheduling to an event based &#39;thr...">
<polygon fill="white" stroke="black" points="634.5,-94 634.5,-113 771.5,-113 771.5,-94 634.5,-94"/>
<text text-anchor="middle" x="703" y="-101" font-family="Helvetica,sans-Serif" font-size="10.00">Cpl::Dm::PeriodicScheduler</text>
</a>
</g>
</g>
<!-- Node5&#45;&gt;Node6 -->
<g id="edge5" class="edge"><title>Node5&#45;&gt;Node6</title>
<path fill="none" stroke="midnightblue" d="M586.276,-77.3243C609.961,-82.6816 637.59,-88.9311 659.911,-93.9799"/>
<polygon fill="midnightblue" stroke="midnightblue" points="586.919,-73.8815 576.393,-75.089 585.375,-80.709 586.919,-73.8815"/>
</g>
<!-- Node7 -->
<g id="node7" class="node"><title>Node7</title>
<g id="a_node7"><a xlink:href="class_cpl_1_1_persistent_1_1_record_server.html" target="_top" xlink:title="This concrete class provides an Event driven Runnable object for executing the read/write operation t...">
<polygon fill="white" stroke="black" points="630,-56 630,-75 776,-75 776,-56 630,-56"/>
<text text-anchor="middle" x="703" y="-63" font-family="Helvetica,sans-Serif" font-size="10.00">Cpl::Persistent::RecordServer</text>
</a>
</g>
</g>
<!-- Node5&#45;&gt;Node7 -->
<g id="edge6" class="edge"><title>Node5&#45;&gt;Node7</title>
<path fill="none" stroke="midnightblue" d="M603.341,-65.5C612.058,-65.5 620.993,-65.5 629.754,-65.5"/>
<polygon fill="midnightblue" stroke="midnightblue" points="603.231,-62.0001 593.231,-65.5 603.23,-69.0001 603.231,-62.0001"/>
</g>
<!-- Node9 -->
<g id="node9" class="node"><title>Node9</title>
<g id="a_node9"><a xlink:href="class_cpl_1_1_itc_1_1_periodic_scheduler.html" target="_top" xlink:title="This class extends the Cpl::Itc::MailboxServer class to add periodic scheduling to an event based &#39;th...">
<polygon fill="white" stroke="black" points="636.5,-18 636.5,-37 769.5,-37 769.5,-18 636.5,-18"/>
<text text-anchor="middle" x="703" y="-25" font-family="Helvetica,sans-Serif" font-size="10.00">Cpl::Itc::PeriodicScheduler</text>
</a>
</g>
</g>
<!-- Node8&#45;&gt;Node9 -->
<g id="edge8" class="edge"><title>Node8&#45;&gt;Node9</title>
<path fill="none" stroke="midnightblue" d="M601.673,-27.5C613.074,-27.5 624.891,-27.5 636.242,-27.5"/>
<polygon fill="midnightblue" stroke="midnightblue" points="601.346,-24.0001 591.346,-27.5 601.346,-31.0001 601.346,-24.0001"/>
</g>
</g>
</svg>
