<?xml version="1.0" encoding="UTF-8" standalone="no"?>
<!DOCTYPE svg PUBLIC "-//W3C//DTD SVG 1.1//EN"
 "http://www.w3.org/Graphics/SVG/1.1/DTD/svg11.dtd">
<!-- Generated by graphviz version 10.0.1 (20240210.2158)
 -->
<!-- Title: Cpl::Dm::PeriodicScheduler Pages: 1 -->
<svg width="1054pt" height="204pt"
 viewBox="0.00 0.00 1053.75 204.00" xmlns="http://www.w3.org/2000/svg" xmlns:xlink="http://www.w3.org/1999/xlink">
<g id="graph0" class="graph" transform="scale(1 1) rotate(0) translate(4 200)">
<title>Cpl::Dm::PeriodicScheduler</title>
<!-- Node1 -->
<g id="Node000001" class="node">
<title>Node1</title>
<g id="a_Node000001"><a xlink:title="This class extends the Cpl::Dm::MailboxServer class to add periodic scheduling to an event based &#39;thr...">
<polygon fill="#999999" stroke="#666666" points="1045.75,-64 909.75,-64 909.75,-44 1045.75,-44 1045.75,-64"/>
<text text-anchor="middle" x="977.75" y="-50.5" font-family="Helvetica,sans-Serif" font-size="10.00">Cpl::Dm::PeriodicScheduler</text>
</a>
</g>
</g>
<!-- Node2 -->
<g id="Node000002" class="node">
<title>Node2</title>
<g id="a_Node000002"><a xlink:href="class_cpl_1_1_dm_1_1_mailbox_server.html" target="_top" xlink:title="This class extends the Cpl::Dm::EventLoop and Cpl::Itc:Mailbox classes to support the asynchronous ch...">
<polygon fill="white" stroke="#666666" points="854.38,-90 736.38,-90 736.38,-70 854.38,-70 854.38,-90"/>
<text text-anchor="middle" x="795.38" y="-76.5" font-family="Helvetica,sans-Serif" font-size="10.00">Cpl::Dm::MailboxServer</text>
</a>
</g>
</g>
<!-- Node2&#45;&gt;Node1 -->
<g id="edge1_Node000001_Node000002" class="edge">
<title>Node2&#45;&gt;Node1</title>
<g id="a_edge1_Node000001_Node000002"><a xlink:title=" ">
<path fill="none" stroke="#63b8ff" d="M865.74,-70C880.06,-67.94 895.12,-65.77 909.37,-63.71"/>
<polygon fill="#63b8ff" stroke="#63b8ff" points="865.34,-66.52 855.94,-71.41 866.33,-73.45 865.34,-66.52"/>
</a>
</g>
</g>
<!-- Node3 -->
<g id="Node000003" class="node">
<title>Node3</title>
<g id="a_Node000003"><a xlink:href="class_cpl_1_1_dm_1_1_event_loop.html" target="_top" xlink:title="This class extends the Cpl::System::EventLoop class to support the asynchronous change notification g...">
<polygon fill="white" stroke="#666666" points="681,-108 578.75,-108 578.75,-88 681,-88 681,-108"/>
<text text-anchor="middle" x="629.88" y="-94.5" font-family="Helvetica,sans-Serif" font-size="10.00">Cpl::Dm::EventLoop</text>
</a>
</g>
</g>
<!-- Node3&#45;&gt;Node2 -->
<g id="edge2_Node000002_Node000003" class="edge">
<title>Node3&#45;&gt;Node2</title>
<g id="a_edge2_Node000002_Node000003"><a xlink:title=" ">
<path fill="none" stroke="#63b8ff" d="M692.51,-91.21C706.81,-89.64 721.99,-87.97 736.14,-86.41"/>
<polygon fill="#63b8ff" stroke="#63b8ff" points="692.33,-87.71 682.77,-92.29 693.09,-94.67 692.33,-87.71"/>
</a>
</g>
</g>
<!-- Node4 -->
<g id="Node000004" class="node">
<title>Node4</title>
<g id="a_Node000004"><a xlink:href="class_cpl_1_1_system_1_1_event_loop.html" target="_top" xlink:title="This concrete class is a Runnable object that provides a event driven execution model for a thread.">
<polygon fill="white" stroke="#666666" points="539.88,-146 418.88,-146 418.88,-126 539.88,-126 539.88,-146"/>
<text text-anchor="middle" x="479.38" y="-132.5" font-family="Helvetica,sans-Serif" font-size="10.00">Cpl::System::EventLoop</text>
</a>
</g>
</g>
<!-- Node4&#45;&gt;Node3 -->
<g id="edge3_Node000003_Node000004" class="edge">
<title>Node4&#45;&gt;Node3</title>
<g id="a_edge3_Node000003_Node000004"><a xlink:title=" ">
<path fill="none" stroke="#63b8ff" d="M532.4,-122.69C550.64,-118.02 570.85,-112.85 588.04,-108.45"/>
<polygon fill="#63b8ff" stroke="#63b8ff" points="531.63,-119.27 522.81,-125.14 533.37,-126.05 531.63,-119.27"/>
</a>
</g>
</g>
<!-- Node5 -->
<g id="Node000005" class="node">
<title>Node5</title>
<g id="a_Node000005"><a xlink:href="class_cpl_1_1_system_1_1_runnable.html" target="_top" xlink:title="This is an abstract class defines the interface for an object that is &quot;executed&quot; when a Thread object...">
<polygon fill="white" stroke="#666666" points="309.75,-196 193.25,-196 193.25,-176 309.75,-176 309.75,-196"/>
<text text-anchor="middle" x="251.5" y="-182.5" font-family="Helvetica,sans-Serif" font-size="10.00">Cpl::System::Runnable</text>
</a>
</g>
</g>
<!-- Node5&#45;&gt;Node4 -->
<g id="edge4_Node000004_Node000005" class="edge">
<title>Node5&#45;&gt;Node4</title>
<g id="a_edge4_Node000004_Node000005"><a xlink:title=" ">
<path fill="none" stroke="#63b8ff" d="M314.68,-173.22C340.76,-167.76 371.39,-161.23 399,-155 410.89,-152.32 423.75,-149.3 435.58,-146.46"/>
<polygon fill="#63b8ff" stroke="#63b8ff" points="313.98,-169.79 304.9,-175.26 315.41,-176.64 313.98,-169.79"/>
</a>
</g>
</g>
<!-- Node6 -->
<g id="Node000006" class="node">
<title>Node6</title>
<g id="a_Node000006"><a xlink:href="class_cpl_1_1_system_1_1_event_flag.html" target="_top" xlink:title="This abstract class defines the interface to generated a &#39;Event Flag&#39;.">
<polygon fill="white" stroke="#666666" points="310.88,-158 192.12,-158 192.12,-138 310.88,-138 310.88,-158"/>
<text text-anchor="middle" x="251.5" y="-144.5" font-family="Helvetica,sans-Serif" font-size="10.00">Cpl::System::EventFlag</text>
</a>
</g>
</g>
<!-- Node6&#45;&gt;Node4 -->
<g id="edge5_Node000004_Node000006" class="edge">
<title>Node6&#45;&gt;Node4</title>
<g id="a_edge5_Node000004_Node000006"><a xlink:title=" ">
<path fill="none" stroke="#63b8ff" d="M322.38,-144.29C353.24,-142.65 389.15,-140.74 418.73,-139.17"/>
<polygon fill="#63b8ff" stroke="#63b8ff" points="322.57,-140.77 312.77,-144.8 322.94,-147.76 322.57,-140.77"/>
</a>
</g>
</g>
<!-- Node7 -->
<g id="Node000007" class="node">
<title>Node7</title>
<g id="a_Node000007"><a xlink:href="class_cpl_1_1_system_1_1_signable.html" target="_top" xlink:title="This abstract class defines the interface by which a client can cause an object that is waiting&#45;on&#45;a&#45;...">
<polygon fill="white" stroke="#666666" points="308.25,-120 194.75,-120 194.75,-100 308.25,-100 308.25,-120"/>
<text text-anchor="middle" x="251.5" y="-106.5" font-family="Helvetica,sans-Serif" font-size="10.00">Cpl::System::Signable</text>
</a>
</g>
</g>
<!-- Node7&#45;&gt;Node4 -->
<g id="edge6_Node000004_Node000007" class="edge">
<title>Node7&#45;&gt;Node4</title>
<g id="a_edge6_Node000004_Node000007"><a xlink:title=" ">
<path fill="none" stroke="#63b8ff" d="M319.9,-117.76C351.26,-121.37 388.24,-125.62 418.59,-129.12"/>
<polygon fill="#63b8ff" stroke="#63b8ff" points="320.46,-114.3 310.13,-116.63 319.66,-121.25 320.46,-114.3"/>
</a>
</g>
</g>
<!-- Node8 -->
<g id="Node000008" class="node">
<title>Node8</title>
<g id="a_Node000008"><a xlink:href="class_cpl_1_1_container_1_1_item.html" target="_top" xlink:title="This class is used by the Container classes to implement a various types of singly linked containers.">
<polygon fill="white" stroke="#666666" points="124,-120 21.75,-120 21.75,-100 124,-100 124,-120"/>
<text text-anchor="middle" x="72.88" y="-106.5" font-family="Helvetica,sans-Serif" font-size="10.00">Cpl::Container::Item</text>
</a>
</g>
</g>
<!-- Node8&#45;&gt;Node7 -->
<g id="edge7_Node000007_Node000008" class="edge">
<title>Node8&#45;&gt;Node7</title>
<g id="a_edge7_Node000007_Node000008"><a xlink:title=" ">
<path fill="none" stroke="#63b8ff" d="M135.77,-110C154.81,-110 175.66,-110 194.3,-110"/>
<polygon fill="#63b8ff" stroke="#63b8ff" points="136,-106.5 126,-110 136,-113.5 136,-106.5"/>
</a>
</g>
</g>
<!-- Node9 -->
<g id="Node000009" class="node">
<title>Node9</title>
<g id="a_Node000009"><a xlink:href="class_cpl_1_1_system_1_1_timer_manager.html" target="_top" xlink:title="This mostly concrete class implements manages a list of Software Timers.">
<polygon fill="white" stroke="#666666" points="320.25,-82 182.75,-82 182.75,-62 320.25,-62 320.25,-82"/>
<text text-anchor="middle" x="251.5" y="-68.5" font-family="Helvetica,sans-Serif" font-size="10.00">Cpl::System::TimerManager</text>
</a>
</g>
</g>
<!-- Node9&#45;&gt;Node4 -->
<g id="edge8_Node000004_Node000009" class="edge">
<title>Node9&#45;&gt;Node4</title>
<g id="a_edge8_Node000004_Node000009"><a xlink:title=" ">
<path fill="none" stroke="#63b8ff" d="M300.69,-85.49C307.26,-87.34 313.92,-89.21 320.25,-91 361.86,-102.76 409.6,-116.36 441.64,-125.5"/>
<polygon fill="#63b8ff" stroke="#63b8ff" points="301.81,-82.17 291.24,-82.84 299.92,-88.91 301.81,-82.17"/>
</a>
</g>
</g>
<!-- Node10 -->
<g id="Node000010" class="node">
<title>Node10</title>
<g id="a_Node000010"><a xlink:href="class_cpl_1_1_system_1_1_counter_source__.html" target="_top" xlink:title="This abstract class defines the interface for registering for an Counter object with the Timer Manage...">
<polygon fill="white" stroke="#666666" points="145.75,-82 0,-82 0,-62 145.75,-62 145.75,-82"/>
<text text-anchor="middle" x="72.88" y="-68.5" font-family="Helvetica,sans-Serif" font-size="10.00">Cpl::System::CounterSource_</text>
</a>
</g>
</g>
<!-- Node10&#45;&gt;Node9 -->
<g id="edge9_Node000009_Node000010" class="edge">
<title>Node10&#45;&gt;Node9</title>
<g id="a_edge9_Node000009_Node000010"><a xlink:title=" ">
<path fill="none" stroke="#63b8ff" d="M157.57,-72C165.93,-72 174.36,-72 182.53,-72"/>
<polygon fill="#63b8ff" stroke="#63b8ff" points="157.74,-68.5 147.74,-72 157.74,-75.5 157.74,-68.5"/>
</a>
</g>
</g>
<!-- Node11 -->
<g id="Node000011" class="node">
<title>Node11</title>
<g id="a_Node000011"><a xlink:href="class_cpl_1_1_dm_1_1_notification_api__.html" target="_top" xlink:title="This class has PACKAGE Scope, i.e.">
<polygon fill="white" stroke="#666666" points="541.75,-108 417,-108 417,-88 541.75,-88 541.75,-108"/>
<text text-anchor="middle" x="479.38" y="-94.5" font-family="Helvetica,sans-Serif" font-size="10.00">Cpl::Dm::NotificationApi_</text>
</a>
</g>
</g>
<!-- Node11&#45;&gt;Node3 -->
<g id="edge10_Node000003_Node000011" class="edge">
<title>Node11&#45;&gt;Node3</title>
<g id="a_edge10_Node000003_Node000011"><a xlink:title=" ">
<path fill="none" stroke="#63b8ff" d="M553.51,-98C561.95,-98 570.4,-98 578.44,-98"/>
<polygon fill="#63b8ff" stroke="#63b8ff" points="553.58,-94.5 543.58,-98 553.58,-101.5 553.58,-94.5"/>
</a>
</g>
</g>
<!-- Node12 -->
<g id="Node000012" class="node">
<title>Node12</title>
<g id="a_Node000012"><a xlink:href="class_cpl_1_1_itc_1_1_mailbox.html" target="_top" xlink:title="This mailbox class implements an Inter Thread Communications message queue.">
<polygon fill="white" stroke="#666666" points="673.12,-70 586.62,-70 586.62,-50 673.12,-50 673.12,-70"/>
<text text-anchor="middle" x="629.88" y="-56.5" font-family="Helvetica,sans-Serif" font-size="10.00">Cpl::Itc::Mailbox</text>
</a>
</g>
</g>
<!-- Node12&#45;&gt;Node2 -->
<g id="edge11_Node000002_Node000012" class="edge">
<title>Node12&#45;&gt;Node2</title>
<g id="a_edge11_Node000002_Node000012"><a xlink:title=" ">
<path fill="none" stroke="#63b8ff" d="M684.51,-66.56C701.01,-68.58 719.26,-70.81 736.06,-72.87"/>
<polygon fill="#63b8ff" stroke="#63b8ff" points="685.26,-63.13 674.91,-65.39 684.41,-70.07 685.26,-63.13"/>
</a>
</g>
</g>
<!-- Node13 -->
<g id="Node000013" class="node">
<title>Node13</title>
<g id="a_Node000013"><a xlink:href="class_cpl_1_1_itc_1_1_post_api.html" target="_top" xlink:title="This abstract class represents the interface used to send messages to a mailbox.">
<polygon fill="white" stroke="#666666" points="523,-70 435.75,-70 435.75,-50 523,-50 523,-70"/>
<text text-anchor="middle" x="479.38" y="-56.5" font-family="Helvetica,sans-Serif" font-size="10.00">Cpl::Itc::PostApi</text>
</a>
</g>
</g>
<!-- Node13&#45;&gt;Node12 -->
<g id="edge12_Node000012_Node000013" class="edge">
<title>Node13&#45;&gt;Node12</title>
<g id="a_edge12_Node000012_Node000013"><a xlink:title=" ">
<path fill="none" stroke="#63b8ff" d="M534.79,-60C551.77,-60 570.23,-60 586.28,-60"/>
<polygon fill="#63b8ff" stroke="#63b8ff" points="534.84,-56.5 524.84,-60 534.84,-63.5 534.84,-56.5"/>
</a>
</g>
</g>
<!-- Node14 -->
<g id="Node000014" class="node">
<title>Node14</title>
<g id="a_Node000014"><a xlink:href="class_cpl_1_1_container_1_1_s_list.html" target="_top" xlink:title=" ">
<polygon fill="white" stroke="#666666" points="532.38,-32 426.38,-32 426.38,0 532.38,0 532.38,-32"/>
<text text-anchor="start" x="434.38" y="-18.5" font-family="Helvetica,sans-Serif" font-size="10.00">Cpl::Container::SList</text>
<text text-anchor="middle" x="479.38" y="-6.5" font-family="Helvetica,sans-Serif" font-size="10.00">&lt; Message &gt;</text>
</a>
</g>
</g>
<!-- Node14&#45;&gt;Node12 -->
<g id="edge13_Node000012_Node000014" class="edge">
<title>Node14&#45;&gt;Node12</title>
<g id="a_edge13_Node000012_Node000014"><a xlink:title=" ">
<path fill="none" stroke="#63b8ff" d="M543.33,-34.65C560.57,-39.76 578.65,-45.12 593.72,-49.58"/>
<polygon fill="#63b8ff" stroke="#63b8ff" points="544.76,-31.43 534.18,-31.94 542.78,-38.14 544.76,-31.43"/>
</a>
</g>
</g>
<!-- Node15 -->
<g id="Node000015" class="node">
<title>Node15</title>
<g id="a_Node000015"><a xlink:href="class_cpl_1_1_container_1_1_s_list.html" target="_top" xlink:title="This template class implements a singly linked list which maintains the ordering imposed on it by the...">
<polygon fill="white" stroke="#666666" points="304.5,-32 198.5,-32 198.5,0 304.5,0 304.5,-32"/>
<text text-anchor="start" x="206.5" y="-18.5" font-family="Helvetica,sans-Serif" font-size="10.00">Cpl::Container::SList</text>
<text text-anchor="middle" x="251.5" y="-6.5" font-family="Helvetica,sans-Serif" font-size="10.00">&lt; ITEM &gt;</text>
</a>
</g>
</g>
<!-- Node15&#45;&gt;Node14 -->
<g id="edge14_Node000014_Node000015" class="edge">
<title>Node15&#45;&gt;Node14</title>
<g id="a_edge14_Node000014_Node000015"><a xlink:title=" ">
<path fill="none" stroke="orange" stroke-dasharray="5,2" d="M316.31,-16C350.93,-16 393.19,-16 425.88,-16"/>
<polygon fill="orange" stroke="orange" points="316.4,-12.5 306.4,-16 316.4,-19.5 316.4,-12.5"/>
</a>
</g>
<text text-anchor="middle" x="368.62" y="-18.5" font-family="Helvetica,sans-Serif" font-size="10.00" fill="grey"> &lt; Message &gt;</text>
</g>
<!-- Node16 -->
<g id="Node000016" class="node">
<title>Node16</title>
<g id="a_Node000016"><a xlink:href="class_cpl_1_1_system_1_1_periodic_scheduler.html" target="_top" xlink:title="This concrete class is a &#39;policy&#39; object that is used to add polled based, cooperative monotonic sche...">
<polygon fill="white" stroke="#666666" points="872.75,-52 718,-52 718,-32 872.75,-32 872.75,-52"/>
<text text-anchor="middle" x="795.38" y="-38.5" font-family="Helvetica,sans-Serif" font-size="10.00">Cpl::System::PeriodicScheduler</text>
</a>
</g>
</g>
<!-- Node16&#45;&gt;Node1 -->
<g id="edge15_Node000001_Node000016" class="edge">
<title>Node16&#45;&gt;Node1</title>
<g id="a_edge15_Node000001_Node000016"><a xlink:title=" ">
<path fill="none" stroke="#63b8ff" d="M884.53,-47.86C892.91,-48.42 901.33,-48.98 909.47,-49.52"/>
<polygon fill="#63b8ff" stroke="#63b8ff" points="884.85,-44.38 874.64,-47.21 884.39,-51.36 884.85,-44.38"/>
</a>
</g>
</g>
</g>
</svg>
