<?xml version="1.0" encoding="UTF-8" standalone="no"?>
<!DOCTYPE svg PUBLIC "-//W3C//DTD SVG 1.1//EN"
 "http://www.w3.org/Graphics/SVG/1.1/DTD/svg11.dtd">
<!-- Generated by graphviz version 10.0.1 (20240210.2158)
 -->
<!-- Title: Fsm Pages: 1 -->
<svg width="602pt" height="90pt"
 viewBox="0.00 0.00 602.25 90.00" xmlns="http://www.w3.org/2000/svg" xmlns:xlink="http://www.w3.org/1999/xlink">
<g id="graph0" class="graph" transform="scale(1 1) rotate(0) translate(4 86)">
<title>Fsm</title>
<!-- Node1 -->
<g id="Node000001" class="node">
<title>Node1</title>
<g id="a_Node000001"><a xlink:title="Here is the graph that shows the state machine this class implements.">
<polygon fill="#999999" stroke="#666666" points="35.5,-51 0,-51 0,-31 35.5,-31 35.5,-51"/>
<text text-anchor="middle" x="17.75" y="-37.5" font-family="Helvetica,sans-Serif" font-size="10.00">Fsm</text>
</a>
</g>
</g>
<!-- Node2 -->
<g id="Node000002" class="node">
<title>Node2</title>
<g id="a_Node000002"><a xlink:href="class_storm_1_1_component_1_1_equipment_1_1_stage_1_1_fsm_event_queue__.html" target="_top" xlink:title="Event Queue for FSM events.">
<polygon fill="white" stroke="#666666" points="221.75,-57 71.5,-57 71.5,-25 221.75,-25 221.75,-57"/>
<text text-anchor="start" x="79.5" y="-43.5" font-family="Helvetica,sans-Serif" font-size="10.00">Storm::Component::Equipment</text>
<text text-anchor="middle" x="146.62" y="-31.5" font-family="Helvetica,sans-Serif" font-size="10.00">::Stage::FsmEventQueue_</text>
</a>
</g>
</g>
<!-- Node1&#45;&gt;Node2 -->
<g id="edge1_Node000001_Node000002" class="edge">
<title>Node1&#45;&gt;Node2</title>
<g id="a_edge1_Node000001_Node000002"><a xlink:title=" ">
<path fill="none" stroke="#63b8ff" d="M47.22,-41C54.55,-41 62.77,-41 71.27,-41"/>
<polygon fill="#63b8ff" stroke="#63b8ff" points="47.37,-37.5 37.37,-41 47.37,-44.5 47.37,-37.5"/>
</a>
</g>
</g>
<!-- Node3 -->
<g id="Node000003" class="node">
<title>Node3</title>
<g id="a_Node000003"><a xlink:href="class_storm_1_1_component_1_1_equipment_1_1_stage_1_1_basic.html" target="_top" xlink:title="This partially concrete class implements the Storm::Component::Equipment::Stage interface for a singl...">
<polygon fill="white" stroke="#666666" points="408,-57 257.75,-57 257.75,-25 408,-25 408,-57"/>
<text text-anchor="start" x="265.75" y="-43.5" font-family="Helvetica,sans-Serif" font-size="10.00">Storm::Component::Equipment</text>
<text text-anchor="middle" x="332.88" y="-31.5" font-family="Helvetica,sans-Serif" font-size="10.00">::Stage::Basic</text>
</a>
</g>
</g>
<!-- Node2&#45;&gt;Node3 -->
<g id="edge2_Node000002_Node000003" class="edge">
<title>Node2&#45;&gt;Node3</title>
<g id="a_edge2_Node000002_Node000003"><a xlink:title=" ">
<path fill="none" stroke="#63b8ff" d="M233.36,-41C241.42,-41 249.54,-41 257.49,-41"/>
<polygon fill="#63b8ff" stroke="#63b8ff" points="233.55,-37.5 223.55,-41 233.55,-44.5 233.55,-37.5"/>
</a>
</g>
</g>
<!-- Node4 -->
<g id="Node000004" class="node">
<title>Node4</title>
<g id="a_Node000004"><a xlink:href="class_storm_1_1_component_1_1_equipment_1_1_stage_1_1_basic_cooling.html" target="_top" xlink:title="This concrete class implements the Storm::Component::Equipment::Stage interface for a single compress...">
<polygon fill="white" stroke="#666666" points="594.25,-82 444,-82 444,-50 594.25,-50 594.25,-82"/>
<text text-anchor="start" x="452" y="-68.5" font-family="Helvetica,sans-Serif" font-size="10.00">Storm::Component::Equipment</text>
<text text-anchor="middle" x="519.12" y="-56.5" font-family="Helvetica,sans-Serif" font-size="10.00">::Stage::BasicCooling</text>
</a>
</g>
</g>
<!-- Node3&#45;&gt;Node4 -->
<g id="edge3_Node000003_Node000004" class="edge">
<title>Node3&#45;&gt;Node4</title>
<g id="a_edge3_Node000003_Node000004"><a xlink:title=" ">
<path fill="none" stroke="#63b8ff" d="M419.61,-52.63C427.67,-53.73 435.79,-54.83 443.74,-55.91"/>
<polygon fill="#63b8ff" stroke="#63b8ff" points="420.17,-49.18 409.79,-51.3 419.22,-56.11 420.17,-49.18"/>
</a>
</g>
</g>
<!-- Node5 -->
<g id="Node000005" class="node">
<title>Node5</title>
<g id="a_Node000005"><a xlink:href="class_storm_1_1_component_1_1_equipment_1_1_stage_1_1_basic_indoor_heat.html" target="_top" xlink:title="This concrete class implements the Storm::Component::Equipment::Stage interface for a single compress...">
<polygon fill="white" stroke="#666666" points="594.25,-32 444,-32 444,0 594.25,0 594.25,-32"/>
<text text-anchor="start" x="452" y="-18.5" font-family="Helvetica,sans-Serif" font-size="10.00">Storm::Component::Equipment</text>
<text text-anchor="middle" x="519.12" y="-6.5" font-family="Helvetica,sans-Serif" font-size="10.00">::Stage::BasicIndoorHeat</text>
</a>
</g>
</g>
<!-- Node3&#45;&gt;Node5 -->
<g id="edge4_Node000003_Node000005" class="edge">
<title>Node3&#45;&gt;Node5</title>
<g id="a_edge4_Node000003_Node000005"><a xlink:title=" ">
<path fill="none" stroke="#63b8ff" d="M419.61,-29.37C427.67,-28.27 435.79,-27.17 443.74,-26.09"/>
<polygon fill="#63b8ff" stroke="#63b8ff" points="419.22,-25.89 409.79,-30.7 420.17,-32.82 419.22,-25.89"/>
</a>
</g>
</g>
</g>
</svg>
