<?xml version="1.0" encoding="UTF-8" standalone="no"?>
<!DOCTYPE svg PUBLIC "-//W3C//DTD SVG 1.1//EN"
 "http://www.w3.org/Graphics/SVG/1.1/DTD/svg11.dtd">
<!-- Generated by graphviz version 10.0.1 (20240210.2158)
 -->
<!-- Title: Cpl::TShell::Command Pages: 1 -->
<svg width="1293pt" height="686pt"
 viewBox="0.00 0.00 1292.50 686.00" xmlns="http://www.w3.org/2000/svg" xmlns:xlink="http://www.w3.org/1999/xlink">
<g id="graph0" class="graph" transform="scale(1 1) rotate(0) translate(4 682)">
<title>Cpl::TShell::Command</title>
<!-- Node1 -->
<g id="Node000001" class="node">
<title>Node1</title>
<g id="a_Node000001"><a xlink:title="This class defines the interface for a TShell command.">
<polygon fill="#999999" stroke="#666666" points="743.75,-355 630.25,-355 630.25,-335 743.75,-335 743.75,-355"/>
<text text-anchor="middle" x="687" y="-341.5" font-family="Helvetica,sans-Serif" font-size="10.00">Cpl::TShell::Command</text>
</a>
</g>
</g>
<!-- Node6 -->
<g id="Node000006" class="node">
<title>Node6</title>
<g id="a_Node000006"><a xlink:href="class_cpl_1_1_t_shell_1_1_cmd_1_1_command.html" target="_top" xlink:title="This partially concrete class implements infrastructure and/or common functionality for a Shell comma...">
<polygon fill="white" stroke="#666666" points="919.5,-355 779.75,-355 779.75,-335 919.5,-335 919.5,-355"/>
<text text-anchor="middle" x="849.62" y="-341.5" font-family="Helvetica,sans-Serif" font-size="10.00">Cpl::TShell::Cmd::Command</text>
</a>
</g>
</g>
<!-- Node1&#45;&gt;Node6 -->
<g id="edge5_Node000001_Node000006" class="edge">
<title>Node1&#45;&gt;Node6</title>
<g id="a_edge5_Node000001_Node000006"><a xlink:title=" ">
<path fill="none" stroke="#63b8ff" d="M755.59,-345C763.49,-345 771.56,-345 779.48,-345"/>
<polygon fill="#63b8ff" stroke="#63b8ff" points="755.69,-341.5 745.69,-345 755.69,-348.5 755.69,-341.5"/>
</a>
</g>
</g>
<!-- Node2 -->
<g id="Node000002" class="node">
<title>Node2</title>
<g id="a_Node000002"><a xlink:href="class_cpl_1_1_container_1_1_map_item.html" target="_top" xlink:title="This abstract class represents a item that can be contained in an Map (aka a sorted list implemented ...">
<polygon fill="white" stroke="#666666" points="594.25,-355 473.25,-355 473.25,-335 594.25,-335 594.25,-355"/>
<text text-anchor="middle" x="533.75" y="-341.5" font-family="Helvetica,sans-Serif" font-size="10.00">Cpl::Container::MapItem</text>
</a>
</g>
</g>
<!-- Node2&#45;&gt;Node1 -->
<g id="edge1_Node000001_Node000002" class="edge">
<title>Node2&#45;&gt;Node1</title>
<g id="a_edge1_Node000001_Node000002"><a xlink:title=" ">
<path fill="none" stroke="#63b8ff" d="M605.92,-345C614.04,-345 622.22,-345 630.1,-345"/>
<polygon fill="#63b8ff" stroke="#63b8ff" points="606.04,-341.5 596.04,-345 606.04,-348.5 606.04,-341.5"/>
</a>
</g>
</g>
<!-- Node3 -->
<g id="Node000003" class="node">
<title>Node3</title>
<g id="a_Node000003"><a xlink:href="class_cpl_1_1_container_1_1_dict_item.html" target="_top" xlink:title="This abstract class represents a item that can be contained in Dictionary.">
<polygon fill="white" stroke="#666666" points="437.25,-355 317.75,-355 317.75,-335 437.25,-335 437.25,-355"/>
<text text-anchor="middle" x="377.5" y="-341.5" font-family="Helvetica,sans-Serif" font-size="10.00">Cpl::Container::DictItem</text>
</a>
</g>
</g>
<!-- Node3&#45;&gt;Node2 -->
<g id="edge2_Node000002_Node000003" class="edge">
<title>Node3&#45;&gt;Node2</title>
<g id="a_edge2_Node000002_Node000003"><a xlink:title=" ">
<path fill="none" stroke="#63b8ff" d="M448.94,-345C456.96,-345 465.08,-345 472.95,-345"/>
<polygon fill="#63b8ff" stroke="#63b8ff" points="449.21,-341.5 439.21,-345 449.21,-348.5 449.21,-341.5"/>
</a>
</g>
</g>
<!-- Node4 -->
<g id="Node000004" class="node">
<title>Node4</title>
<g id="a_Node000004"><a xlink:href="class_cpl_1_1_container_1_1_extended_item.html" target="_top" xlink:title="This class is used by the Container classes to implement a various types of DOUBLY linked containers.">
<polygon fill="white" stroke="#666666" points="281.75,-355 138.25,-355 138.25,-335 281.75,-335 281.75,-355"/>
<text text-anchor="middle" x="210" y="-341.5" font-family="Helvetica,sans-Serif" font-size="10.00">Cpl::Container::ExtendedItem</text>
</a>
</g>
</g>
<!-- Node4&#45;&gt;Node3 -->
<g id="edge3_Node000003_Node000004" class="edge">
<title>Node4&#45;&gt;Node3</title>
<g id="a_edge3_Node000003_Node000004"><a xlink:title=" ">
<path fill="none" stroke="#63b8ff" d="M293.49,-345C301.54,-345 309.6,-345 317.35,-345"/>
<polygon fill="#63b8ff" stroke="#63b8ff" points="293.66,-341.5 283.66,-345 293.66,-348.5 293.66,-341.5"/>
</a>
</g>
</g>
<!-- Node5 -->
<g id="Node000005" class="node">
<title>Node5</title>
<g id="a_Node000005"><a xlink:href="class_cpl_1_1_container_1_1_item.html" target="_top" xlink:title="This class is used by the Container classes to implement a various types of singly linked containers.">
<polygon fill="white" stroke="#666666" points="102.25,-355 0,-355 0,-335 102.25,-335 102.25,-355"/>
<text text-anchor="middle" x="51.12" y="-341.5" font-family="Helvetica,sans-Serif" font-size="10.00">Cpl::Container::Item</text>
</a>
</g>
</g>
<!-- Node5&#45;&gt;Node4 -->
<g id="edge4_Node000004_Node000005" class="edge">
<title>Node5&#45;&gt;Node4</title>
<g id="a_edge4_Node000004_Node000005"><a xlink:title=" ">
<path fill="none" stroke="#63b8ff" d="M113.98,-345C121.87,-345 130,-345 138.02,-345"/>
<polygon fill="#63b8ff" stroke="#63b8ff" points="114.14,-341.5 104.14,-345 114.14,-348.5 114.14,-341.5"/>
</a>
</g>
</g>
<!-- Node7 -->
<g id="Node000007" class="node">
<title>Node7</title>
<g id="a_Node000007"><a xlink:href="class_cpl_1_1_dm_1_1_t_shell_1_1_dm.html" target="_top" xlink:title="This class implements a TShell command.">
<polygon fill="white" stroke="#666666" points="1084,-678 978.75,-678 978.75,-658 1084,-658 1084,-678"/>
<text text-anchor="middle" x="1031.38" y="-664.5" font-family="Helvetica,sans-Serif" font-size="10.00">Cpl::Dm::TShell::Dm</text>
</a>
</g>
</g>
<!-- Node6&#45;&gt;Node7 -->
<g id="edge6_Node000006_Node000007" class="edge">
<title>Node6&#45;&gt;Node7</title>
<g id="a_edge6_Node000006_Node000007"><a xlink:title=" ">
<path fill="none" stroke="#63b8ff" d="M851.38,-366.39C854.53,-421.8 870.86,-571.16 955.5,-649 962.02,-654.99 970.15,-659.16 978.63,-662.04"/>
<polygon fill="#63b8ff" stroke="#63b8ff" points="854.89,-366.56 850.93,-356.73 847.9,-366.89 854.89,-366.56"/>
</a>
</g>
</g>
<!-- Node8 -->
<g id="Node000008" class="node">
<title>Node8</title>
<g id="a_Node000008"><a xlink:href="class_cpl_1_1_logging_1_1_t_shell_1_1_log.html" target="_top" xlink:title="This class implements a TShell command that operates on the persistently store &quot;log file&quot;.">
<polygon fill="white" stroke="#666666" points="1093.75,-640 969,-640 969,-620 1093.75,-620 1093.75,-640"/>
<text text-anchor="middle" x="1031.38" y="-626.5" font-family="Helvetica,sans-Serif" font-size="10.00">Cpl::Logging::TShell::Log</text>
</a>
</g>
</g>
<!-- Node6&#45;&gt;Node8 -->
<g id="edge7_Node000006_Node000008" class="edge">
<title>Node6&#45;&gt;Node8</title>
<g id="a_edge7_Node000006_Node000008"><a xlink:title=" ">
<path fill="none" stroke="#63b8ff" d="M852.62,-366.73C858.47,-417.53 880.27,-544.77 955.5,-611 959.43,-614.46 963.89,-617.3 968.65,-619.64"/>
<polygon fill="#63b8ff" stroke="#63b8ff" points="856.1,-366.38 851.58,-356.79 849.14,-367.1 856.1,-366.38"/>
</a>
</g>
</g>
<!-- Node9 -->
<g id="Node000009" class="node">
<title>Node9</title>
<g id="a_Node000009"><a xlink:href="class_cpl_1_1_m_app_1_1_cmd.html" target="_top" xlink:title="The class implements a TShell command that interacts with the MApp Manager to start,...">
<polygon fill="white" stroke="#666666" points="1075.38,-602 987.38,-602 987.38,-582 1075.38,-582 1075.38,-602"/>
<text text-anchor="middle" x="1031.38" y="-588.5" font-family="Helvetica,sans-Serif" font-size="10.00">Cpl::MApp::Cmd</text>
</a>
</g>
</g>
<!-- Node6&#45;&gt;Node9 -->
<g id="edge8_Node000006_Node000009" class="edge">
<title>Node6&#45;&gt;Node9</title>
<g id="a_edge8_Node000006_Node000009"><a xlink:title=" ">
<path fill="none" stroke="#63b8ff" d="M854.13,-366.36C862.74,-411.68 889.22,-517.83 955.5,-573 964.37,-580.38 975.72,-584.94 986.9,-587.75"/>
<polygon fill="#63b8ff" stroke="#63b8ff" points="857.59,-365.78 852.39,-356.54 850.69,-367 857.59,-365.78"/>
</a>
</g>
</g>
<!-- Node10 -->
<g id="Node000010" class="node">
<title>Node10</title>
<g id="a_Node000010"><a xlink:href="class_cpl_1_1_t_shell_1_1_cmd_1_1_arduino_1_1_dbg.html" target="_top" xlink:title="This class implements a DAC Shell command.">
<polygon fill="white" stroke="#666666" points="1107.25,-564 955.5,-564 955.5,-544 1107.25,-544 1107.25,-564"/>
<text text-anchor="middle" x="1031.38" y="-550.5" font-family="Helvetica,sans-Serif" font-size="10.00">Cpl::TShell::Cmd::Arduino::Dbg</text>
</a>
</g>
</g>
<!-- Node6&#45;&gt;Node10 -->
<g id="edge9_Node000006_Node000010" class="edge">
<title>Node6&#45;&gt;Node10</title>
<g id="a_edge9_Node000006_Node000010"><a xlink:title=" ">
<path fill="none" stroke="#63b8ff" d="M856.16,-366.02C867.68,-405.48 898.06,-490.65 955.5,-535 959.96,-538.44 964.97,-541.27 970.23,-543.58"/>
<polygon fill="#63b8ff" stroke="#63b8ff" points="859.59,-365.28 853.54,-356.59 852.85,-367.16 859.59,-365.28"/>
</a>
</g>
</g>
<!-- Node11 -->
<g id="Node000011" class="node">
<title>Node11</title>
<g id="a_Node000011"><a xlink:href="class_cpl_1_1_t_shell_1_1_cmd_1_1_bye.html" target="_top" xlink:title="This class implements a Shell command.">
<polygon fill="white" stroke="#666666" points="1087.75,-526 975,-526 975,-506 1087.75,-506 1087.75,-526"/>
<text text-anchor="middle" x="1031.38" y="-512.5" font-family="Helvetica,sans-Serif" font-size="10.00">Cpl::TShell::Cmd::Bye</text>
</a>
</g>
</g>
<!-- Node6&#45;&gt;Node11 -->
<g id="edge10_Node000006_Node000011" class="edge">
<title>Node6&#45;&gt;Node11</title>
<g id="a_edge10_Node000006_Node000011"><a xlink:title=" ">
<path fill="none" stroke="#63b8ff" d="M859.07,-365.69C873.66,-398.72 906.76,-463.1 955.5,-497 961.34,-501.06 967.96,-504.25 974.81,-506.76"/>
<polygon fill="#63b8ff" stroke="#63b8ff" points="862.43,-364.63 855.29,-356.8 855.99,-367.37 862.43,-364.63"/>
</a>
</g>
</g>
<!-- Node12 -->
<g id="Node000012" class="node">
<title>Node12</title>
<g id="a_Node000012"><a xlink:href="class_cpl_1_1_t_shell_1_1_cmd_1_1_help.html" target="_top" xlink:title="This class implements a Shell command.">
<polygon fill="white" stroke="#666666" points="1088.88,-488 973.88,-488 973.88,-468 1088.88,-468 1088.88,-488"/>
<text text-anchor="middle" x="1031.38" y="-474.5" font-family="Helvetica,sans-Serif" font-size="10.00">Cpl::TShell::Cmd::Help</text>
</a>
</g>
</g>
<!-- Node6&#45;&gt;Node12 -->
<g id="edge11_Node000006_Node000012" class="edge">
<title>Node6&#45;&gt;Node12</title>
<g id="a_edge11_Node000006_Node000012"><a xlink:title=" ">
<path fill="none" stroke="#63b8ff" d="M863.37,-364.82C880.95,-390.52 915.1,-434.91 955.5,-459 961.26,-462.43 967.62,-465.25 974.14,-467.56"/>
<polygon fill="#63b8ff" stroke="#63b8ff" points="866.37,-363 857.91,-356.62 860.54,-366.88 866.37,-363"/>
</a>
</g>
</g>
<!-- Node13 -->
<g id="Node000013" class="node">
<title>Node13</title>
<g id="a_Node000013"><a xlink:href="class_cpl_1_1_t_shell_1_1_cmd_1_1_t_print.html" target="_top" xlink:title="This class implements a Shell command.">
<polygon fill="white" stroke="#666666" points="1091.88,-450 970.88,-450 970.88,-430 1091.88,-430 1091.88,-450"/>
<text text-anchor="middle" x="1031.38" y="-436.5" font-family="Helvetica,sans-Serif" font-size="10.00">Cpl::TShell::Cmd::TPrint</text>
</a>
</g>
</g>
<!-- Node6&#45;&gt;Node13 -->
<g id="edge12_Node000006_Node000013" class="edge">
<title>Node6&#45;&gt;Node13</title>
<g id="a_edge12_Node000006_Node000013"><a xlink:title=" ">
<path fill="none" stroke="#63b8ff" d="M870.5,-362.99C890.57,-380.25 923.15,-405.86 955.5,-421 962.67,-424.35 970.51,-427.17 978.33,-429.52"/>
<polygon fill="#63b8ff" stroke="#63b8ff" points="872.92,-360.45 863.09,-356.49 868.3,-365.72 872.92,-360.45"/>
</a>
</g>
</g>
<!-- Node14 -->
<g id="Node000014" class="node">
<title>Node14</title>
<g id="a_Node000014"><a xlink:href="class_cpl_1_1_t_shell_1_1_cmd_1_1_threads.html" target="_top" xlink:title="This class implements a Shell command.">
<polygon fill="white" stroke="#666666" points="1096.38,-412 966.38,-412 966.38,-392 1096.38,-392 1096.38,-412"/>
<text text-anchor="middle" x="1031.38" y="-398.5" font-family="Helvetica,sans-Serif" font-size="10.00">Cpl::TShell::Cmd::Threads</text>
</a>
</g>
</g>
<!-- Node6&#45;&gt;Node14 -->
<g id="edge13_Node000006_Node000014" class="edge">
<title>Node6&#45;&gt;Node14</title>
<g id="a_edge13_Node000006_Node000014"><a xlink:title=" ">
<path fill="none" stroke="#63b8ff" d="M887.6,-359.41C907.55,-366.93 932.7,-375.99 955.5,-383 965.37,-386.03 976.08,-388.96 986.23,-391.57"/>
<polygon fill="#63b8ff" stroke="#63b8ff" points="889.11,-356.24 878.52,-355.96 886.62,-362.78 889.11,-356.24"/>
</a>
</g>
</g>
<!-- Node17 -->
<g id="Node000017" class="node">
<title>Node17</title>
<g id="a_Node000017"><a xlink:href="class_cpl_1_1_t_shell_1_1_cmd_1_1_tick.html" target="_top" xlink:title="This class implements a Shell command.">
<polygon fill="white" stroke="#666666" points="1088.12,-374 974.62,-374 974.62,-354 1088.12,-354 1088.12,-374"/>
<text text-anchor="middle" x="1031.38" y="-360.5" font-family="Helvetica,sans-Serif" font-size="10.00">Cpl::TShell::Cmd::Tick</text>
</a>
</g>
</g>
<!-- Node6&#45;&gt;Node17 -->
<g id="edge16_Node000006_Node000017" class="edge">
<title>Node6&#45;&gt;Node17</title>
<g id="a_edge16_Node000006_Node000017"><a xlink:title=" ">
<path fill="none" stroke="#63b8ff" d="M930.95,-353.49C945.57,-355.04 960.53,-356.62 974.26,-358.07"/>
<polygon fill="#63b8ff" stroke="#63b8ff" points="931.68,-350.05 921.37,-352.48 930.95,-357.01 931.68,-350.05"/>
</a>
</g>
</g>
<!-- Node18 -->
<g id="Node000018" class="node">
<title>Node18</title>
<g id="a_Node000018"><a xlink:href="class_cpl_1_1_t_shell_1_1_cmd_1_1_trace.html" target="_top" xlink:title="This class implements a Shell command.">
<polygon fill="white" stroke="#666666" points="1091.12,-336 971.62,-336 971.62,-316 1091.12,-316 1091.12,-336"/>
<text text-anchor="middle" x="1031.38" y="-322.5" font-family="Helvetica,sans-Serif" font-size="10.00">Cpl::TShell::Cmd::Trace</text>
</a>
</g>
</g>
<!-- Node6&#45;&gt;Node18 -->
<g id="edge17_Node000006_Node000018" class="edge">
<title>Node6&#45;&gt;Node18</title>
<g id="a_edge17_Node000006_Node000018"><a xlink:title=" ">
<path fill="none" stroke="#63b8ff" d="M931.15,-336.49C944.7,-335.06 958.53,-333.59 971.4,-332.23"/>
<polygon fill="#63b8ff" stroke="#63b8ff" points="930.95,-332.99 921.37,-337.52 931.68,-339.95 930.95,-332.99"/>
</a>
</g>
</g>
<!-- Node19 -->
<g id="Node000019" class="node">
<title>Node19</title>
<g id="a_Node000019"><a xlink:href="class_cpl_1_1_t_shell_1_1_cmd_1_1_user.html" target="_top" xlink:title="This class implements a Shell command.">
<polygon fill="white" stroke="#666666" points="1089.25,-298 973.5,-298 973.5,-278 1089.25,-278 1089.25,-298"/>
<text text-anchor="middle" x="1031.38" y="-284.5" font-family="Helvetica,sans-Serif" font-size="10.00">Cpl::TShell::Cmd::User</text>
</a>
</g>
</g>
<!-- Node6&#45;&gt;Node19 -->
<g id="edge18_Node000006_Node000019" class="edge">
<title>Node6&#45;&gt;Node19</title>
<g id="a_edge18_Node000006_Node000019"><a xlink:title=" ">
<path fill="none" stroke="#63b8ff" d="M887.6,-330.59C907.55,-323.07 932.7,-314.01 955.5,-307 965.37,-303.97 976.08,-301.04 986.23,-298.43"/>
<polygon fill="#63b8ff" stroke="#63b8ff" points="886.62,-327.22 878.52,-334.04 889.11,-333.76 886.62,-327.22"/>
</a>
</g>
</g>
<!-- Node20 -->
<g id="Node000020" class="node">
<title>Node20</title>
<g id="a_Node000020"><a xlink:href="class_cpl_1_1_t_shell_1_1_cmd_1_1_wait.html" target="_top" xlink:title="This class implements a Shell command.">
<polygon fill="white" stroke="#666666" points="1089.25,-260 973.5,-260 973.5,-240 1089.25,-240 1089.25,-260"/>
<text text-anchor="middle" x="1031.38" y="-246.5" font-family="Helvetica,sans-Serif" font-size="10.00">Cpl::TShell::Cmd::Wait</text>
</a>
</g>
</g>
<!-- Node6&#45;&gt;Node20 -->
<g id="edge19_Node000006_Node000020" class="edge">
<title>Node6&#45;&gt;Node20</title>
<g id="a_edge19_Node000006_Node000020"><a xlink:title=" ">
<path fill="none" stroke="#63b8ff" d="M870.5,-327.01C890.57,-309.75 923.15,-284.14 955.5,-269 962.67,-265.65 970.51,-262.83 978.33,-260.48"/>
<polygon fill="#63b8ff" stroke="#63b8ff" points="868.3,-324.28 863.09,-333.51 872.92,-329.55 868.3,-324.28"/>
</a>
</g>
</g>
<!-- Node21 -->
<g id="Node000021" class="node">
<title>Node21</title>
<g id="a_Node000021"><a xlink:href="class_storm_1_1_t_shell_1_1_filter.html" target="_top" xlink:title="This class implements a Shell command.">
<polygon fill="white" stroke="#666666" points="1082.88,-222 979.88,-222 979.88,-202 1082.88,-202 1082.88,-222"/>
<text text-anchor="middle" x="1031.38" y="-208.5" font-family="Helvetica,sans-Serif" font-size="10.00">Storm::TShell::Filter</text>
</a>
</g>
</g>
<!-- Node6&#45;&gt;Node21 -->
<g id="edge20_Node000006_Node000021" class="edge">
<title>Node6&#45;&gt;Node21</title>
<g id="a_edge20_Node000006_Node000021"><a xlink:title=" ">
<path fill="none" stroke="#63b8ff" d="M863.37,-325.18C880.95,-299.48 915.1,-255.09 955.5,-231 962.87,-226.6 971.24,-223.22 979.64,-220.61"/>
<polygon fill="#63b8ff" stroke="#63b8ff" points="860.54,-323.12 857.91,-333.38 866.37,-327 860.54,-323.12"/>
</a>
</g>
</g>
<!-- Node22 -->
<g id="Node000022" class="node">
<title>Node22</title>
<g id="a_Node000022"><a xlink:href="class_storm_1_1_t_shell_1_1_state.html" target="_top" xlink:title="This class implements a Shell command.">
<polygon fill="white" stroke="#666666" points="1083.62,-184 979.12,-184 979.12,-164 1083.62,-164 1083.62,-184"/>
<text text-anchor="middle" x="1031.38" y="-170.5" font-family="Helvetica,sans-Serif" font-size="10.00">Storm::TShell::State</text>
</a>
</g>
</g>
<!-- Node6&#45;&gt;Node22 -->
<g id="edge21_Node000006_Node000022" class="edge">
<title>Node6&#45;&gt;Node22</title>
<g id="a_edge21_Node000006_Node000022"><a xlink:title=" ">
<path fill="none" stroke="#63b8ff" d="M859.07,-324.31C873.66,-291.28 906.76,-226.9 955.5,-193 962.44,-188.18 970.49,-184.58 978.7,-181.89"/>
<polygon fill="#63b8ff" stroke="#63b8ff" points="855.99,-322.63 855.29,-333.2 862.43,-325.37 855.99,-322.63"/>
</a>
</g>
</g>
<!-- Node23 -->
<g id="Node000023" class="node">
<title>Node23</title>
<g id="a_Node000023"><a xlink:href="class_storm_1_1_t_shell_1_1_user.html" target="_top" xlink:title="This class implements a Shell command.">
<polygon fill="white" stroke="#666666" points="1082.12,-146 980.62,-146 980.62,-126 1082.12,-126 1082.12,-146"/>
<text text-anchor="middle" x="1031.38" y="-132.5" font-family="Helvetica,sans-Serif" font-size="10.00">Storm::TShell::User</text>
</a>
</g>
</g>
<!-- Node6&#45;&gt;Node23 -->
<g id="edge22_Node000006_Node000023" class="edge">
<title>Node6&#45;&gt;Node23</title>
<g id="a_edge22_Node000006_Node000023"><a xlink:title=" ">
<path fill="none" stroke="#63b8ff" d="M856.16,-323.98C867.68,-284.52 898.06,-199.35 955.5,-155 962.72,-149.43 971.39,-145.47 980.22,-142.67"/>
<polygon fill="#63b8ff" stroke="#63b8ff" points="852.85,-322.84 853.54,-333.41 859.59,-324.72 852.85,-322.84"/>
</a>
</g>
</g>
<!-- Node24 -->
<g id="Node000024" class="node">
<title>Node24</title>
<g id="a_Node000024"><a xlink:href="class_storm_1_1_t_shell_1_1_white_box.html" target="_top" xlink:title="This class implements a Shell command.">
<polygon fill="white" stroke="#666666" points="1093.38,-108 969.38,-108 969.38,-88 1093.38,-88 1093.38,-108"/>
<text text-anchor="middle" x="1031.38" y="-94.5" font-family="Helvetica,sans-Serif" font-size="10.00">Storm::TShell::WhiteBox</text>
</a>
</g>
</g>
<!-- Node6&#45;&gt;Node24 -->
<g id="edge23_Node000006_Node000024" class="edge">
<title>Node6&#45;&gt;Node24</title>
<g id="a_edge23_Node000006_Node000024"><a xlink:title=" ">
<path fill="none" stroke="#63b8ff" d="M854.13,-323.64C862.74,-278.32 889.22,-172.17 955.5,-117 959.62,-113.57 964.29,-110.75 969.22,-108.42"/>
<polygon fill="#63b8ff" stroke="#63b8ff" points="850.69,-323 852.39,-333.46 857.59,-324.22 850.69,-323"/>
</a>
</g>
</g>
<!-- Node25 -->
<g id="Node000025" class="node">
<title>Node25</title>
<g id="a_Node000025"><a xlink:href="class_storm_1_1_thermostat_1_1_log.html" target="_top" xlink:title="This class implements a Shell command.">
<polygon fill="white" stroke="#666666" points="1090.75,-70 972,-70 972,-50 1090.75,-50 1090.75,-70"/>
<text text-anchor="middle" x="1031.38" y="-56.5" font-family="Helvetica,sans-Serif" font-size="10.00">Storm::Thermostat::Log</text>
</a>
</g>
</g>
<!-- Node6&#45;&gt;Node25 -->
<g id="edge24_Node000006_Node000025" class="edge">
<title>Node6&#45;&gt;Node25</title>
<g id="a_edge24_Node000006_Node000025"><a xlink:title=" ">
<path fill="none" stroke="#63b8ff" d="M852.62,-323.27C858.47,-272.47 880.27,-145.23 955.5,-79 960.23,-74.83 965.75,-71.56 971.6,-68.99"/>
<polygon fill="#63b8ff" stroke="#63b8ff" points="849.14,-322.9 851.58,-333.21 856.1,-323.62 849.14,-322.9"/>
</a>
</g>
</g>
<!-- Node26 -->
<g id="Node000026" class="node">
<title>Node26</title>
<g id="a_Node000026"><a xlink:href="class_storm_1_1_thermostat_1_1_sim_house_1_1_cmd.html" target="_top" xlink:title="This class implements a Shell command.">
<polygon fill="white" stroke="#666666" points="1082.88,-32 979.88,-32 979.88,0 1082.88,0 1082.88,-32"/>
<text text-anchor="start" x="987.88" y="-18.5" font-family="Helvetica,sans-Serif" font-size="10.00">Storm::Thermostat::</text>
<text text-anchor="middle" x="1031.38" y="-6.5" font-family="Helvetica,sans-Serif" font-size="10.00">SimHouse::Cmd</text>
</a>
</g>
</g>
<!-- Node6&#45;&gt;Node26 -->
<g id="edge25_Node000006_Node000026" class="edge">
<title>Node6&#45;&gt;Node26</title>
<g id="a_edge25_Node000006_Node000026"><a xlink:title=" ">
<path fill="none" stroke="#63b8ff" d="M851.77,-323.25C855.83,-268.11 874.14,-121.55 955.5,-41 962.22,-34.35 970.76,-29.46 979.64,-25.88"/>
<polygon fill="#63b8ff" stroke="#63b8ff" points="848.28,-322.95 851.13,-333.15 855.26,-323.4 848.28,-322.95"/>
</a>
</g>
</g>
<!-- Node15 -->
<g id="Node000015" class="node">
<title>Node15</title>
<g id="a_Node000015"><a xlink:href="class_cpl_1_1_t_shell_1_1_cmd_1_1_free_r_t_o_s_1_1_threads.html" target="_top" xlink:title="This class implements a TShell command.">
<polygon fill="white" stroke="#666666" points="1284.5,-443 1143.25,-443 1143.25,-411 1284.5,-411 1284.5,-443"/>
<text text-anchor="start" x="1151.25" y="-429.5" font-family="Helvetica,sans-Serif" font-size="10.00">Cpl::TShell::Cmd::FreeRTOS</text>
<text text-anchor="middle" x="1213.88" y="-417.5" font-family="Helvetica,sans-Serif" font-size="10.00">::Threads</text>
</a>
</g>
</g>
<!-- Node14&#45;&gt;Node15 -->
<g id="edge14_Node000014_Node000015" class="edge">
<title>Node14&#45;&gt;Node15</title>
<g id="a_edge14_Node000014_Node000015"><a xlink:title=" ">
<path fill="none" stroke="#63b8ff" d="M1108.18,-412.5C1119.72,-414.1 1131.58,-415.74 1142.99,-417.32"/>
<polygon fill="#63b8ff" stroke="#63b8ff" points="1108.66,-409.03 1098.27,-411.13 1107.7,-415.97 1108.66,-409.03"/>
</a>
</g>
</g>
<!-- Node16 -->
<g id="Node000016" class="node">
<title>Node16</title>
<g id="a_Node000016"><a xlink:href="class_cpl_1_1_t_shell_1_1_cmd_1_1_win32_1_1_threads.html" target="_top" xlink:title="This class implements a TShell command.">
<polygon fill="white" stroke="#666666" points="1275.5,-393 1152.25,-393 1152.25,-361 1275.5,-361 1275.5,-393"/>
<text text-anchor="start" x="1160.25" y="-379.5" font-family="Helvetica,sans-Serif" font-size="10.00">Cpl::TShell::Cmd::Win32</text>
<text text-anchor="middle" x="1213.88" y="-367.5" font-family="Helvetica,sans-Serif" font-size="10.00">::Threads</text>
</a>
</g>
</g>
<!-- Node14&#45;&gt;Node16 -->
<g id="edge15_Node000014_Node000016" class="edge">
<title>Node14&#45;&gt;Node16</title>
<g id="a_edge15_Node000014_Node000016"><a xlink:title=" ">
<path fill="none" stroke="#63b8ff" d="M1107.85,-391.55C1122.51,-389.52 1137.7,-387.41 1151.82,-385.46"/>
<polygon fill="#63b8ff" stroke="#63b8ff" points="1107.7,-388.03 1098.27,-392.87 1108.66,-394.97 1107.7,-388.03"/>
</a>
</g>
</g>
</g>
</svg>
