<?xml version="1.0" encoding="UTF-8" standalone="no"?>
<!DOCTYPE svg PUBLIC "-//W3C//DTD SVG 1.1//EN"
 "http://www.w3.org/Graphics/SVG/1.1/DTD/svg11.dtd">
<!-- Generated by graphviz version 2.38.0 (20140413.2041)
 -->
<!-- Title: Cpl::Dm::Mp::NumericArrayBase_&lt; ELEMTYPE &gt; Pages: 1 -->
<svg width="159pt" height="341pt"
 viewBox="0.00 0.00 159.00 341.00" xmlns="http://www.w3.org/2000/svg" xmlns:xlink="http://www.w3.org/1999/xlink">
<g id="graph0" class="graph" transform="scale(1 1) rotate(0) translate(4 337)">
<title>Cpl::Dm::Mp::NumericArrayBase_&lt; ELEMTYPE &gt;</title>
<polygon fill="white" stroke="none" points="-4,4 -4,-337 155,-337 155,4 -4,4"/>
<!-- Node1 -->
<g id="node1" class="node"><title>Node1</title>
<g id="a_node1"><a xlink:title="This template class extends the implementation of ArrayBase_ to support the toJSON() and fromJSON_() ...">
<polygon fill="#bfbfbf" stroke="black" points="7,-78.5 7,-108.5 144,-108.5 144,-78.5 7,-78.5"/>
<text text-anchor="start" x="15" y="-96.5" font-family="Helvetica,sans-Serif" font-size="10.00">Cpl::Dm::Mp::NumericArray</text>
<text text-anchor="middle" x="75.5" y="-85.5" font-family="Helvetica,sans-Serif" font-size="10.00">Base_&lt; ELEMTYPE &gt;</text>
</a>
</g>
</g>
<!-- Node6 -->
<g id="node6" class="node"><title>Node6</title>
<g id="a_node6"><a xlink:href="class_cpl_1_1_dm_1_1_mp_1_1_numeric_array__.html" target="_top" xlink:title="This mostly concrete template class implements an &#39;numeric Array&#39; Model Point with an element size of...">
<polygon fill="white" stroke="black" points="1,-0.5 1,-41.5 150,-41.5 150,-0.5 1,-0.5"/>
<text text-anchor="start" x="9" y="-29.5" font-family="Helvetica,sans-Serif" font-size="10.00">Cpl::Dm::Mp::NumericArray</text>
<text text-anchor="start" x="9" y="-18.5" font-family="Helvetica,sans-Serif" font-size="10.00">_&lt; ELEMTYPE, NUMELEMS,</text>
<text text-anchor="middle" x="75.5" y="-7.5" font-family="Helvetica,sans-Serif" font-size="10.00"> MPTYPE &gt;</text>
</a>
</g>
</g>
<!-- Node1&#45;&gt;Node6 -->
<g id="edge5" class="edge"><title>Node1&#45;&gt;Node6</title>
<path fill="none" stroke="midnightblue" d="M75.5,-67.9815C75.5,-59.3468 75.5,-49.7625 75.5,-41.5884"/>
<polygon fill="midnightblue" stroke="midnightblue" points="72.0001,-68.2332 75.5,-78.2333 79.0001,-68.2333 72.0001,-68.2332"/>
</g>
<!-- Node2 -->
<g id="node2" class="node"><title>Node2</title>
<g id="a_node2"><a xlink:href="class_cpl_1_1_dm_1_1_mp_1_1_array_base__.html" target="_top" xlink:title="This a mostly concrete class provides &#39;common&#39; implementation for a Model Point who&#39;s data is a array...">
<polygon fill="white" stroke="black" points="11.5,-145.5 11.5,-164.5 139.5,-164.5 139.5,-145.5 11.5,-145.5"/>
<text text-anchor="middle" x="75.5" y="-152.5" font-family="Helvetica,sans-Serif" font-size="10.00">Cpl::Dm::Mp::ArrayBase_</text>
</a>
</g>
</g>
<!-- Node2&#45;&gt;Node1 -->
<g id="edge1" class="edge"><title>Node2&#45;&gt;Node1</title>
<path fill="none" stroke="midnightblue" d="M75.5,-135.235C75.5,-126.586 75.5,-116.497 75.5,-108.523"/>
<polygon fill="midnightblue" stroke="midnightblue" points="72.0001,-135.475 75.5,-145.475 79.0001,-135.475 72.0001,-135.475"/>
</g>
<!-- Node3 -->
<g id="node3" class="node"><title>Node3</title>
<g id="a_node3"><a xlink:href="class_cpl_1_1_dm_1_1_model_point_common__.html" target="_top" xlink:title="This concrete class provide common infrastructure for a Model Point.">
<polygon fill="white" stroke="black" points="0,-201.5 0,-220.5 151,-220.5 151,-201.5 0,-201.5"/>
<text text-anchor="middle" x="75.5" y="-208.5" font-family="Helvetica,sans-Serif" font-size="10.00">Cpl::Dm::ModelPointCommon_</text>
</a>
</g>
</g>
<!-- Node3&#45;&gt;Node2 -->
<g id="edge2" class="edge"><title>Node3&#45;&gt;Node2</title>
<path fill="none" stroke="midnightblue" d="M75.5,-190.805C75.5,-181.91 75.5,-171.78 75.5,-164.751"/>
<polygon fill="midnightblue" stroke="midnightblue" points="72.0001,-191.083 75.5,-201.083 79.0001,-191.083 72.0001,-191.083"/>
</g>
<!-- Node4 -->
<g id="node4" class="node"><title>Node4</title>
<g id="a_node4"><a xlink:href="class_cpl_1_1_dm_1_1_model_point.html" target="_top" xlink:title="This mostly abstract class defines the interface for a Model Point.">
<polygon fill="white" stroke="black" points="22,-257.5 22,-276.5 129,-276.5 129,-257.5 22,-257.5"/>
<text text-anchor="middle" x="75.5" y="-264.5" font-family="Helvetica,sans-Serif" font-size="10.00">Cpl::Dm::ModelPoint</text>
</a>
</g>
</g>
<!-- Node4&#45;&gt;Node3 -->
<g id="edge3" class="edge"><title>Node4&#45;&gt;Node3</title>
<path fill="none" stroke="midnightblue" d="M75.5,-246.805C75.5,-237.91 75.5,-227.78 75.5,-220.751"/>
<polygon fill="midnightblue" stroke="midnightblue" points="72.0001,-247.083 75.5,-257.083 79.0001,-247.083 72.0001,-247.083"/>
</g>
<!-- Node5 -->
<g id="node5" class="node"><title>Node5</title>
<g id="a_node5"><a xlink:href="class_cpl_1_1_container_1_1_item.html" target="_top" xlink:title="This class is used by the Container classes to implement a various types of singly linked containers.">
<polygon fill="white" stroke="black" points="23.5,-313.5 23.5,-332.5 127.5,-332.5 127.5,-313.5 23.5,-313.5"/>
<text text-anchor="middle" x="75.5" y="-320.5" font-family="Helvetica,sans-Serif" font-size="10.00">Cpl::Container::Item</text>
</a>
</g>
</g>
<!-- Node5&#45;&gt;Node4 -->
<g id="edge4" class="edge"><title>Node5&#45;&gt;Node4</title>
<path fill="none" stroke="midnightblue" d="M75.5,-302.805C75.5,-293.91 75.5,-283.78 75.5,-276.751"/>
<polygon fill="midnightblue" stroke="midnightblue" points="72.0001,-303.083 75.5,-313.083 79.0001,-303.083 72.0001,-303.083"/>
</g>
</g>
</svg>
