<?xml version="1.0" encoding="UTF-8" standalone="no"?>
<!DOCTYPE svg PUBLIC "-//W3C//DTD SVG 1.1//EN"
 "http://www.w3.org/Graphics/SVG/1.1/DTD/svg11.dtd">
<!-- Generated by graphviz version 2.38.0 (20140413.2041)
 -->
<!-- Title: Storm::Component::AirFilterMonitor Pages: 1 -->
<svg width="2722pt" height="395pt"
 viewBox="0.00 0.00 2722.00 395.00" xmlns="http://www.w3.org/2000/svg" xmlns:xlink="http://www.w3.org/1999/xlink">
<g id="graph0" class="graph" transform="scale(1 1) rotate(0) translate(4 391)">
<title>Storm::Component::AirFilterMonitor</title>
<polygon fill="white" stroke="none" points="-4,4 -4,-391 2718,-391 2718,4 -4,4"/>
<!-- Node1 -->
<g id="node1" class="node"><title>Node1</title>
<g id="a_node1"><a xlink:title="This class is responsible for monitoring how long the indoor fan has been running and raise an alert ...">
<polygon fill="#bfbfbf" stroke="black" points="2576,-263 2576,-293 2714,-293 2714,-263 2576,-263"/>
<text text-anchor="start" x="2584" y="-281" font-family="Helvetica,sans-Serif" font-size="10.00">Storm::Component::AirFilter</text>
<text text-anchor="middle" x="2645" y="-270" font-family="Helvetica,sans-Serif" font-size="10.00">Monitor</text>
</a>
</g>
</g>
<!-- Node2 -->
<g id="node2" class="node"><title>Node2</title>
<g id="a_node2"><a xlink:href="class_storm_1_1_component_1_1_base.html" target="_top" xlink:title="This partially concrete class provide core infrastructure for Components.">
<polygon fill="white" stroke="black" points="1853,-336.5 1853,-355.5 1980,-355.5 1980,-336.5 1853,-336.5"/>
<text text-anchor="middle" x="1916.5" y="-343.5" font-family="Helvetica,sans-Serif" font-size="10.00">Storm::Component::Base</text>
</a>
</g>
</g>
<!-- Node2&#45;&gt;Node1 -->
<g id="edge1" class="edge"><title>Node2&#45;&gt;Node1</title>
<path fill="none" stroke="midnightblue" d="M1990.33,-352.986C2110.69,-362.366 2357.7,-372.43 2558,-321 2580.47,-315.23 2603.9,-303.048 2620.61,-293.119"/>
<polygon fill="midnightblue" stroke="midnightblue" points="1990.38,-349.479 1980.13,-352.169 1989.82,-356.457 1990.38,-349.479"/>
</g>
<!-- Node3 -->
<g id="node3" class="node"><title>Node3</title>
<g id="a_node3"><a xlink:href="class_storm_1_1_component_1_1_api.html" target="_top" xlink:title="This class define the interface for a Component.">
<polygon fill="white" stroke="black" points="1624.5,-367.5 1624.5,-386.5 1743.5,-386.5 1743.5,-367.5 1624.5,-367.5"/>
<text text-anchor="middle" x="1684" y="-374.5" font-family="Helvetica,sans-Serif" font-size="10.00">Storm::Component::Api</text>
</a>
</g>
</g>
<!-- Node3&#45;&gt;Node2 -->
<g id="edge2" class="edge"><title>Node3&#45;&gt;Node2</title>
<path fill="none" stroke="midnightblue" d="M1753.68,-371.507C1777,-369.302 1803.19,-366.453 1827,-363 1841.09,-360.957 1856.35,-358.218 1870.16,-355.536"/>
<polygon fill="midnightblue" stroke="midnightblue" points="1753.16,-368.039 1743.52,-372.443 1753.8,-375.01 1753.16,-368.039"/>
</g>
<!-- Node4 -->
<g id="node4" class="node"><title>Node4</title>
<g id="a_node4"><a xlink:href="struct_cpl_1_1_system_1_1_elapsed_time_1_1_precision___tag.html" target="_top" xlink:title="Data type for time in seconds with a &#39;fractional&#39; millisecond precision.">
<polygon fill="white" stroke="black" points="1617,-292 1617,-322 1751,-322 1751,-292 1617,-292"/>
<text text-anchor="start" x="1625" y="-310" font-family="Helvetica,sans-Serif" font-size="10.00">Cpl::System::ElapsedTime</text>
<text text-anchor="middle" x="1684" y="-299" font-family="Helvetica,sans-Serif" font-size="10.00">::Precision_Tag</text>
</a>
</g>
</g>
<!-- Node4&#45;&gt;Node1 -->
<g id="edge4" class="edge"><title>Node4&#45;&gt;Node1</title>
<path fill="none" stroke="#9a32cd" stroke-dasharray="5,2" d="M1761.32,-307C1806.21,-307 1864.08,-307 1915.5,-307 1915.5,-307 1915.5,-307 2441,-307 2486.21,-307 2536.53,-299.863 2575.75,-292.67"/>
<polygon fill="#9a32cd" stroke="#9a32cd" points="1761.07,-303.5 1751.07,-307 1761.07,-310.5 1761.07,-303.5"/>
<text text-anchor="middle" x="2147.5" y="-310" font-family="Helvetica,sans-Serif" font-size="10.00"> m_markBlowerOn</text>
</g>
<!-- Node4&#45;&gt;Node2 -->
<g id="edge3" class="edge"><title>Node4&#45;&gt;Node2</title>
<path fill="none" stroke="#9a32cd" stroke-dasharray="5,2" d="M1761.26,-319.903C1793.23,-325.311 1829.73,-331.488 1859.2,-336.474"/>
<polygon fill="#9a32cd" stroke="#9a32cd" points="1761.5,-316.393 1751.05,-318.176 1760.33,-323.295 1761.5,-316.393"/>
<text text-anchor="middle" x="1798" y="-343" font-family="Helvetica,sans-Serif" font-size="10.00"> m_timeMark</text>
<text text-anchor="middle" x="1798" y="-332" font-family="Helvetica,sans-Serif" font-size="10.00">m_interval</text>
</g>
<!-- Node7 -->
<g id="node7" class="node"><title>Node7</title>
<g id="a_node7"><a xlink:href="class_cpl_1_1_dm_1_1_mp_1_1_basic.html" target="_top" xlink:title=" ">
<polygon fill="white" stroke="black" points="1845,-227.5 1845,-268.5 1988,-268.5 1988,-227.5 1845,-227.5"/>
<text text-anchor="start" x="1853" y="-256.5" font-family="Helvetica,sans-Serif" font-size="10.00">Cpl::Dm::Mp::Basic</text>
<text text-anchor="start" x="1853" y="-245.5" font-family="Helvetica,sans-Serif" font-size="10.00">&lt; Cpl::System::ElapsedTime</text>
<text text-anchor="middle" x="1916.5" y="-234.5" font-family="Helvetica,sans-Serif" font-size="10.00">::Precision_T &gt;</text>
</a>
</g>
</g>
<!-- Node4&#45;&gt;Node7 -->
<g id="edge25" class="edge"><title>Node4&#45;&gt;Node7</title>
<path fill="none" stroke="#9a32cd" stroke-dasharray="5,2" d="M1743.59,-289.064C1752.09,-286.607 1760.75,-284.182 1769,-282 1793.61,-275.488 1820.72,-269.005 1844.87,-263.473"/>
<polygon fill="#9a32cd" stroke="#9a32cd" points="1742.33,-285.785 1733.72,-291.951 1744.3,-292.504 1742.33,-285.785"/>
<text text-anchor="middle" x="1798" y="-285" font-family="Helvetica,sans-Serif" font-size="10.00"> m_data</text>
</g>
<!-- Node5 -->
<g id="node5" class="node"><title>Node5</title>
<g id="a_node5"><a xlink:href="class_storm_1_1_component_1_1_air_filter_monitor.html#struct_storm_1_1_component_1_1_air_filter_monitor_1_1_output___t" target="_top" xlink:title="Output Model Points.">
<polygon fill="white" stroke="black" points="2371,-226 2371,-256 2509,-256 2509,-226 2371,-226"/>
<text text-anchor="start" x="2379" y="-244" font-family="Helvetica,sans-Serif" font-size="10.00">Storm::Component::AirFilter</text>
<text text-anchor="middle" x="2440" y="-233" font-family="Helvetica,sans-Serif" font-size="10.00">Monitor::Output_T</text>
</a>
</g>
</g>
<!-- Node5&#45;&gt;Node1 -->
<g id="edge5" class="edge"><title>Node5&#45;&gt;Node1</title>
<path fill="none" stroke="#9a32cd" stroke-dasharray="5,2" d="M2519.09,-255.233C2537.74,-258.632 2557.5,-262.235 2575.67,-265.546"/>
<polygon fill="#9a32cd" stroke="#9a32cd" points="2519.63,-251.773 2509.16,-253.423 2518.37,-258.66 2519.63,-251.773"/>
<text text-anchor="middle" x="2542.5" y="-265" font-family="Helvetica,sans-Serif" font-size="10.00"> m_out</text>
</g>
<!-- Node6 -->
<g id="node6" class="node"><title>Node6</title>
<g id="a_node6"><a xlink:href="class_cpl_1_1_dm_1_1_mp_1_1_elapsed_precision_time.html" target="_top" xlink:title="This class provides a concrete implementation for a Point who&#39;s data a Cpl::System::ElapsedTime::Prec...">
<polygon fill="white" stroke="black" points="2060,-231.5 2060,-250.5 2235,-250.5 2235,-231.5 2060,-231.5"/>
<text text-anchor="middle" x="2147.5" y="-238.5" font-family="Helvetica,sans-Serif" font-size="10.00">Cpl::Dm::Mp::ElapsedPrecisionTime</text>
</a>
</g>
</g>
<!-- Node6&#45;&gt;Node5 -->
<g id="edge6" class="edge"><title>Node6&#45;&gt;Node5</title>
<path fill="none" stroke="#9a32cd" stroke-dasharray="5,2" d="M2245.3,-241C2286.37,-241 2333.28,-241 2370.64,-241"/>
<polygon fill="#9a32cd" stroke="#9a32cd" points="2245.27,-237.5 2235.27,-241 2245.27,-244.5 2245.27,-237.5"/>
<text text-anchor="middle" x="2303" y="-244" font-family="Helvetica,sans-Serif" font-size="10.00"> airFilterOperationTime</text>
</g>
<!-- Node28 -->
<g id="node28" class="node"><title>Node28</title>
<g id="a_node28"><a xlink:href="class_storm_1_1_component_1_1_air_filter_monitor.html#struct_storm_1_1_component_1_1_air_filter_monitor_1_1_input___t" target="_top" xlink:title="Input Model Points.">
<polygon fill="white" stroke="black" points="2371,-158 2371,-188 2509,-188 2509,-158 2371,-158"/>
<text text-anchor="start" x="2379" y="-176" font-family="Helvetica,sans-Serif" font-size="10.00">Storm::Component::AirFilter</text>
<text text-anchor="middle" x="2440" y="-165" font-family="Helvetica,sans-Serif" font-size="10.00">Monitor::Input_T</text>
</a>
</g>
</g>
<!-- Node6&#45;&gt;Node28 -->
<g id="edge35" class="edge"><title>Node6&#45;&gt;Node28</title>
<path fill="none" stroke="#9a32cd" stroke-dasharray="5,2" d="M2199.21,-229.13C2248,-217.71 2321.94,-200.4 2374.81,-188.025"/>
<polygon fill="#9a32cd" stroke="#9a32cd" points="2198.14,-225.786 2189.2,-231.473 2199.73,-232.602 2198.14,-225.786"/>
<text text-anchor="middle" x="2303" y="-219" font-family="Helvetica,sans-Serif" font-size="10.00"> airFilterOperationTime</text>
</g>
<!-- Node7&#45;&gt;Node6 -->
<g id="edge7" class="edge"><title>Node7&#45;&gt;Node6</title>
<path fill="none" stroke="midnightblue" d="M1998.31,-245.53C2018.15,-244.923 2039.48,-244.271 2059.6,-243.656"/>
<polygon fill="midnightblue" stroke="midnightblue" points="1997.96,-242.039 1988.08,-245.843 1998.18,-249.035 1997.96,-242.039"/>
</g>
<!-- Node8 -->
<g id="node8" class="node"><title>Node8</title>
<g id="a_node8"><a xlink:href="class_cpl_1_1_dm_1_1_model_point_common__.html" target="_top" xlink:title="This concrete class provide common infrastructure for a Model Point.">
<polygon fill="white" stroke="black" points="1156,-144.5 1156,-163.5 1307,-163.5 1307,-144.5 1156,-144.5"/>
<text text-anchor="middle" x="1231.5" y="-151.5" font-family="Helvetica,sans-Serif" font-size="10.00">Cpl::Dm::ModelPointCommon_</text>
</a>
</g>
</g>
<!-- Node8&#45;&gt;Node7 -->
<g id="edge8" class="edge"><title>Node8&#45;&gt;Node7</title>
<path fill="none" stroke="midnightblue" d="M1264.7,-167.424C1282.28,-174.346 1304.57,-182.472 1325,-188 1452.24,-222.428 1485.86,-226.641 1617,-240 1694.62,-247.907 1784.14,-249.282 1844.75,-249.072"/>
<polygon fill="midnightblue" stroke="midnightblue" points="1265.53,-163.986 1254.95,-163.517 1262.93,-170.484 1265.53,-163.986"/>
</g>
<!-- Node25 -->
<g id="node25" class="node"><title>Node25</title>
<g id="a_node25"><a xlink:href="class_cpl_1_1_dm_1_1_mp_1_1_basic.html" target="_top" xlink:title="This template class provides a mostly concrete implementation for a Model Point who&#39;s data is a C pri...">
<polygon fill="white" stroke="black" points="1401,-139 1401,-169 1503,-169 1503,-139 1401,-139"/>
<text text-anchor="start" x="1409" y="-157" font-family="Helvetica,sans-Serif" font-size="10.00">Cpl::Dm::Mp::Basic</text>
<text text-anchor="middle" x="1452" y="-146" font-family="Helvetica,sans-Serif" font-size="10.00">&lt; ELEMTYPE &gt;</text>
</a>
</g>
</g>
<!-- Node8&#45;&gt;Node25 -->
<g id="edge27" class="edge"><title>Node8&#45;&gt;Node25</title>
<path fill="none" stroke="midnightblue" d="M1317.36,-154C1345.57,-154 1376.06,-154 1400.79,-154"/>
<polygon fill="midnightblue" stroke="midnightblue" points="1317.08,-150.5 1307.08,-154 1317.08,-157.5 1317.08,-150.5"/>
</g>
<!-- Node26 -->
<g id="node26" class="node"><title>Node26</title>
<g id="a_node26"><a xlink:href="class_storm_1_1_dm_1_1_mp_simple_alarm.html" target="_top" xlink:title="This class provides a concrete implementation for a simple Alarm that has following attributes:">
<polygon fill="white" stroke="black" points="2078,-95.5 2078,-114.5 2217,-114.5 2217,-95.5 2078,-95.5"/>
<text text-anchor="middle" x="2147.5" y="-102.5" font-family="Helvetica,sans-Serif" font-size="10.00">Storm::Dm::MpSimpleAlarm</text>
</a>
</g>
</g>
<!-- Node8&#45;&gt;Node26 -->
<g id="edge29" class="edge"><title>Node8&#45;&gt;Node26</title>
<path fill="none" stroke="midnightblue" d="M1253.56,-138.217C1291.13,-111.682 1373.09,-61 1451,-61 1451,-61 1451,-61 1917.5,-61 1989.97,-61 2073.05,-82.5119 2116.48,-95.4527"/>
<polygon fill="midnightblue" stroke="midnightblue" points="1251.06,-135.708 1245,-144.398 1255.15,-141.385 1251.06,-135.708"/>
</g>
<!-- Node29 -->
<g id="node29" class="node"><title>Node29</title>
<g id="a_node29"><a xlink:href="class_storm_1_1_dm_1_1_mp_virtual_outputs.html" target="_top" xlink:title="This class provides a concrete implementation for the virtual outputs for the system.">
<polygon fill="white" stroke="black" points="1379,-12.5 1379,-31.5 1525,-31.5 1525,-12.5 1379,-12.5"/>
<text text-anchor="middle" x="1452" y="-19.5" font-family="Helvetica,sans-Serif" font-size="10.00">Storm::Dm::MpVirtualOutputs</text>
</a>
</g>
</g>
<!-- Node8&#45;&gt;Node29 -->
<g id="edge33" class="edge"><title>Node8&#45;&gt;Node29</title>
<path fill="none" stroke="midnightblue" d="M1243.5,-135.748C1258.74,-112.111 1288.56,-71.4115 1325,-50 1341.23,-40.4637 1360.37,-34.171 1378.77,-30.0199"/>
<polygon fill="midnightblue" stroke="midnightblue" points="1240.39,-134.118 1238.05,-144.452 1246.32,-137.832 1240.39,-134.118"/>
</g>
<!-- Node33 -->
<g id="node33" class="node"><title>Node33</title>
<g id="a_node33"><a xlink:href="class_cpl_1_1_dm_1_1_mp_1_1_basic.html" target="_top" xlink:title=" ">
<polygon fill="white" stroke="black" points="1633,-139 1633,-169 1735,-169 1735,-139 1633,-139"/>
<text text-anchor="start" x="1641" y="-157" font-family="Helvetica,sans-Serif" font-size="10.00">Cpl::Dm::Mp::Basic</text>
<text text-anchor="middle" x="1684" y="-146" font-family="Helvetica,sans-Serif" font-size="10.00">&lt; uint32_t &gt;</text>
</a>
</g>
</g>
<!-- Node8&#45;&gt;Node33 -->
<g id="edge40" class="edge"><title>Node8&#45;&gt;Node33</title>
<path fill="none" stroke="midnightblue" d="M1288.86,-165.43C1315.99,-170.367 1349.05,-175.563 1379,-178 1476.54,-185.936 1502.22,-183.514 1599,-169 1609.99,-167.352 1621.75,-165.382 1632.88,-163.421"/>
<polygon fill="midnightblue" stroke="midnightblue" points="1289.25,-161.942 1278.78,-163.558 1287.97,-168.825 1289.25,-161.942"/>
</g>
<!-- Node9 -->
<g id="node9" class="node"><title>Node9</title>
<g id="a_node9"><a xlink:href="class_cpl_1_1_dm_1_1_model_point.html" target="_top" xlink:title="This mostly abstract class defines the interface for a Model Point.">
<polygon fill="white" stroke="black" points="913,-263.5 913,-282.5 1020,-282.5 1020,-263.5 913,-263.5"/>
<text text-anchor="middle" x="966.5" y="-270.5" font-family="Helvetica,sans-Serif" font-size="10.00">Cpl::Dm::ModelPoint</text>
</a>
</g>
</g>
<!-- Node9&#45;&gt;Node8 -->
<g id="edge9" class="edge"><title>Node9&#45;&gt;Node8</title>
<path fill="none" stroke="midnightblue" d="M998.19,-259.163C1032.33,-243.764 1089.12,-218.133 1138,-196 1162.58,-184.869 1190.82,-172.041 1209.57,-163.52"/>
<polygon fill="midnightblue" stroke="midnightblue" points="996.448,-256.109 988.771,-263.41 999.326,-262.49 996.448,-256.109"/>
</g>
<!-- Node10 -->
<g id="node10" class="node"><title>Node10</title>
<g id="a_node10"><a xlink:href="class_cpl_1_1_container_1_1_map_item.html" target="_top" xlink:title="This abstract class represents a item that can be contained in an Map (aka a sorted list implemented ...">
<polygon fill="white" stroke="black" points="607,-295.5 607,-314.5 729,-314.5 729,-295.5 607,-295.5"/>
<text text-anchor="middle" x="668" y="-302.5" font-family="Helvetica,sans-Serif" font-size="10.00">Cpl::Container::MapItem</text>
</a>
</g>
</g>
<!-- Node10&#45;&gt;Node9 -->
<g id="edge10" class="edge"><title>Node10&#45;&gt;Node9</title>
<path fill="none" stroke="midnightblue" d="M739.032,-297.442C792.183,-291.705 864.131,-283.94 912.545,-278.715"/>
<polygon fill="midnightblue" stroke="midnightblue" points="738.568,-293.971 729.001,-298.524 739.319,-300.931 738.568,-293.971"/>
</g>
<!-- Node11 -->
<g id="node11" class="node"><title>Node11</title>
<g id="a_node11"><a xlink:href="class_cpl_1_1_container_1_1_dict_item.html" target="_top" xlink:title="This abstract class represents a item that can be contained in Dictionary.">
<polygon fill="white" stroke="black" points="326,-295.5 326,-314.5 447,-314.5 447,-295.5 326,-295.5"/>
<text text-anchor="middle" x="386.5" y="-302.5" font-family="Helvetica,sans-Serif" font-size="10.00">Cpl::Container::DictItem</text>
</a>
</g>
</g>
<!-- Node11&#45;&gt;Node10 -->
<g id="edge11" class="edge"><title>Node11&#45;&gt;Node10</title>
<path fill="none" stroke="midnightblue" d="M457.319,-305C503.374,-305 563.078,-305 606.993,-305"/>
<polygon fill="midnightblue" stroke="midnightblue" points="457.117,-301.5 447.117,-305 457.117,-308.5 457.117,-301.5"/>
</g>
<!-- Node12 -->
<g id="node12" class="node"><title>Node12</title>
<g id="a_node12"><a xlink:href="class_cpl_1_1_container_1_1_extended_item.html" target="_top" xlink:title="This class is used by the Container classes to implement a various types of DOUBLY linked containers.">
<polygon fill="white" stroke="black" points="141,-295.5 141,-314.5 286,-314.5 286,-295.5 141,-295.5"/>
<text text-anchor="middle" x="213.5" y="-302.5" font-family="Helvetica,sans-Serif" font-size="10.00">Cpl::Container::ExtendedItem</text>
</a>
</g>
</g>
<!-- Node12&#45;&gt;Node11 -->
<g id="edge12" class="edge"><title>Node12&#45;&gt;Node11</title>
<path fill="none" stroke="midnightblue" d="M296.047,-305C306.111,-305 316.248,-305 325.899,-305"/>
<polygon fill="midnightblue" stroke="midnightblue" points="296.029,-301.5 286.029,-305 296.029,-308.5 296.029,-301.5"/>
</g>
<!-- Node13 -->
<g id="node13" class="node"><title>Node13</title>
<g id="a_node13"><a xlink:href="class_cpl_1_1_container_1_1_item.html" target="_top" xlink:title="This class is used by the Container classes to implement a various types of singly linked containers.">
<polygon fill="white" stroke="black" points="0,-295.5 0,-314.5 104,-314.5 104,-295.5 0,-295.5"/>
<text text-anchor="middle" x="52" y="-302.5" font-family="Helvetica,sans-Serif" font-size="10.00">Cpl::Container::Item</text>
</a>
</g>
</g>
<!-- Node13&#45;&gt;Node12 -->
<g id="edge13" class="edge"><title>Node13&#45;&gt;Node12</title>
<path fill="none" stroke="midnightblue" d="M114.375,-305C123.061,-305 132.056,-305 140.915,-305"/>
<polygon fill="midnightblue" stroke="midnightblue" points="114.345,-301.5 104.345,-305 114.345,-308.5 114.345,-301.5"/>
</g>
<!-- Node14 -->
<g id="node14" class="node"><title>Node14</title>
<g id="a_node14"><a xlink:href="class_cpl_1_1_dm_1_1_model_database.html" target="_top" xlink:title="This concrete class implements a simple Model Database.">
<polygon fill="white" stroke="black" points="904,-188.5 904,-207.5 1029,-207.5 1029,-188.5 904,-188.5"/>
<text text-anchor="middle" x="966.5" y="-195.5" font-family="Helvetica,sans-Serif" font-size="10.00">Cpl::Dm::ModelDatabase</text>
</a>
</g>
</g>
<!-- Node14&#45;&gt;Node8 -->
<g id="edge14" class="edge"><title>Node14&#45;&gt;Node8</title>
<path fill="none" stroke="#9a32cd" stroke-dasharray="5,2" d="M1034.65,-186.766C1077.61,-179.578 1132.73,-170.357 1173.54,-163.529"/>
<polygon fill="#9a32cd" stroke="#9a32cd" points="1033.85,-183.35 1024.57,-188.453 1035.01,-190.255 1033.85,-183.35"/>
<text text-anchor="middle" x="1095.5" y="-186" font-family="Helvetica,sans-Serif" font-size="10.00"> m_modelDatabase</text>
</g>
<!-- Node15 -->
<g id="node15" class="node"><title>Node15</title>
<g id="a_node15"><a xlink:href="class_cpl_1_1_dm_1_1_model_database_api.html" target="_top" xlink:title="This class defines the basic operations that can be performed on a Model Base.">
<polygon fill="white" stroke="black" points="598,-257.5 598,-276.5 738,-276.5 738,-257.5 598,-257.5"/>
<text text-anchor="middle" x="668" y="-264.5" font-family="Helvetica,sans-Serif" font-size="10.00">Cpl::Dm::ModelDatabaseApi</text>
</a>
</g>
</g>
<!-- Node15&#45;&gt;Node14 -->
<g id="edge15" class="edge"><title>Node15&#45;&gt;Node14</title>
<path fill="none" stroke="midnightblue" d="M748.132,-257.314C788.085,-251.465 837.062,-242.822 880,-231 902.397,-224.834 927.057,-214.967 944.114,-207.627"/>
<polygon fill="midnightblue" stroke="midnightblue" points="747.58,-253.857 738.178,-258.741 748.574,-260.787 747.58,-253.857"/>
</g>
<!-- Node16 -->
<g id="node16" class="node"><title>Node16</title>
<g id="a_node16"><a xlink:href="class_cpl_1_1_container_1_1_map.html" target="_top" xlink:title=" ">
<polygon fill="white" stroke="black" points="605.5,-208 605.5,-238 730.5,-238 730.5,-208 605.5,-208"/>
<text text-anchor="start" x="613.5" y="-226" font-family="Helvetica,sans-Serif" font-size="10.00">Cpl::Container::Map</text>
<text text-anchor="middle" x="668" y="-215" font-family="Helvetica,sans-Serif" font-size="10.00">&lt; Cpl::Dm::ModelPoint &gt;</text>
</a>
</g>
</g>
<!-- Node16&#45;&gt;Node14 -->
<g id="edge16" class="edge"><title>Node16&#45;&gt;Node14</title>
<path fill="none" stroke="#9a32cd" stroke-dasharray="5,2" d="M740.855,-216.941C790.674,-212.741 856.33,-207.205 903.784,-203.204"/>
<polygon fill="#9a32cd" stroke="#9a32cd" points="740.466,-213.462 730.795,-217.79 741.054,-220.437 740.466,-213.462"/>
<text text-anchor="middle" x="818" y="-219" font-family="Helvetica,sans-Serif" font-size="10.00"> m_map</text>
</g>
<!-- Node17 -->
<g id="node17" class="node"><title>Node17</title>
<g id="a_node17"><a xlink:href="class_cpl_1_1_container_1_1_map.html" target="_top" xlink:title="This template class implements an Map using an AVL Binary tree (i.e.">
<polygon fill="white" stroke="black" points="335,-208 335,-238 438,-238 438,-208 335,-208"/>
<text text-anchor="start" x="343" y="-226" font-family="Helvetica,sans-Serif" font-size="10.00">Cpl::Container::Map</text>
<text text-anchor="middle" x="386.5" y="-215" font-family="Helvetica,sans-Serif" font-size="10.00">&lt; ITEM &gt;</text>
</a>
</g>
</g>
<!-- Node17&#45;&gt;Node16 -->
<g id="edge17" class="edge"><title>Node17&#45;&gt;Node16</title>
<path fill="none" stroke="orange" stroke-dasharray="5,2" d="M448.347,-223C494.819,-223 558.606,-223 605.29,-223"/>
<polygon fill="orange" stroke="orange" points="448.115,-219.5 438.115,-223 448.115,-226.5 448.115,-219.5"/>
<text text-anchor="middle" x="524" y="-226" font-family="Helvetica,sans-Serif" font-size="10.00"> &lt; Cpl::Dm::ModelPoint &gt;</text>
</g>
<!-- Node18 -->
<g id="node18" class="node"><title>Node18</title>
<g id="a_node18"><a xlink:href="class_cpl_1_1_system_1_1_mutex.html" target="_top" xlink:title="This mutex class defines the interface for a mutex that has &quot;recursive&quot; semantics.">
<polygon fill="white" stroke="black" points="616,-169.5 616,-188.5 720,-188.5 720,-169.5 616,-169.5"/>
<text text-anchor="middle" x="668" y="-176.5" font-family="Helvetica,sans-Serif" font-size="10.00">Cpl::System::Mutex</text>
</a>
</g>
</g>
<!-- Node18&#45;&gt;Node14 -->
<g id="edge18" class="edge"><title>Node18&#45;&gt;Node14</title>
<path fill="none" stroke="#9a32cd" stroke-dasharray="5,2" d="M730.378,-178.765C772.542,-179.089 829.758,-180.483 880,-185 889.571,-185.86 899.7,-187.103 909.51,-188.483"/>
<polygon fill="#9a32cd" stroke="#9a32cd" points="730.288,-175.265 720.268,-178.706 730.247,-182.265 730.288,-175.265"/>
<text text-anchor="middle" x="818" y="-188" font-family="Helvetica,sans-Serif" font-size="10.00"> m_lock</text>
</g>
<!-- Node19 -->
<g id="node19" class="node"><title>Node19</title>
<g id="a_node19"><a xlink:href="class_cpl_1_1_container_1_1_d_list.html" target="_top" xlink:title=" ">
<polygon fill="white" stroke="black" points="898,-120 898,-150 1035,-150 1035,-120 898,-120"/>
<text text-anchor="start" x="906" y="-138" font-family="Helvetica,sans-Serif" font-size="10.00">Cpl::Container::DList</text>
<text text-anchor="middle" x="966.5" y="-127" font-family="Helvetica,sans-Serif" font-size="10.00">&lt; Cpl::Dm::SubscriberApi &gt;</text>
</a>
</g>
</g>
<!-- Node19&#45;&gt;Node8 -->
<g id="edge19" class="edge"><title>Node19&#45;&gt;Node8</title>
<path fill="none" stroke="#9a32cd" stroke-dasharray="5,2" d="M1045.3,-137.478C1074.42,-138.714 1107.75,-140.495 1138,-143 1143.8,-143.48 1149.8,-144.043 1155.83,-144.656"/>
<polygon fill="#9a32cd" stroke="#9a32cd" points="1045.33,-133.977 1035.19,-137.064 1045.04,-140.971 1045.33,-133.977"/>
<text text-anchor="middle" x="1095.5" y="-146" font-family="Helvetica,sans-Serif" font-size="10.00"> m_subscribers</text>
</g>
<!-- Node20 -->
<g id="node20" class="node"><title>Node20</title>
<g id="a_node20"><a xlink:href="class_cpl_1_1_container_1_1_d_list.html" target="_top" xlink:title="This template class implements a Doubly linked list which maintains the ordering imposed on it by the...">
<polygon fill="white" stroke="black" points="614.5,-120 614.5,-150 721.5,-150 721.5,-120 614.5,-120"/>
<text text-anchor="start" x="622.5" y="-138" font-family="Helvetica,sans-Serif" font-size="10.00">Cpl::Container::DList</text>
<text text-anchor="middle" x="668" y="-127" font-family="Helvetica,sans-Serif" font-size="10.00">&lt; ITEM &gt;</text>
</a>
</g>
</g>
<!-- Node20&#45;&gt;Node19 -->
<g id="edge20" class="edge"><title>Node20&#45;&gt;Node19</title>
<path fill="none" stroke="orange" stroke-dasharray="5,2" d="M731.774,-135C780.532,-135 848.026,-135 897.954,-135"/>
<polygon fill="orange" stroke="orange" points="731.667,-131.5 721.667,-135 731.667,-138.5 731.667,-131.5"/>
<text text-anchor="middle" x="818" y="-138" font-family="Helvetica,sans-Serif" font-size="10.00"> &lt; Cpl::Dm::SubscriberApi &gt;</text>
</g>
<!-- Node21 -->
<g id="node21" class="node"><title>Node21</title>
<g id="a_node21"><a xlink:href="class_cpl_1_1_dm_1_1_static_info.html" target="_top" xlink:title="This class defines an interface for a Model Point to store its constant/static data in program memory...">
<polygon fill="white" stroke="black" points="916.5,-79.5 916.5,-98.5 1016.5,-98.5 1016.5,-79.5 916.5,-79.5"/>
<text text-anchor="middle" x="966.5" y="-86.5" font-family="Helvetica,sans-Serif" font-size="10.00">Cpl::Dm::StaticInfo</text>
</a>
</g>
</g>
<!-- Node21&#45;&gt;Node8 -->
<g id="edge21" class="edge"><title>Node21&#45;&gt;Node8</title>
<path fill="none" stroke="#9a32cd" stroke-dasharray="5,2" d="M1026.7,-98.901C1059.69,-104.894 1101.39,-113.257 1138,-123 1160.91,-129.098 1186.43,-137.798 1204.85,-144.43"/>
<polygon fill="#9a32cd" stroke="#9a32cd" points="1027.21,-95.4378 1016.75,-97.1182 1025.98,-102.328 1027.21,-95.4378"/>
<text text-anchor="middle" x="1095.5" y="-126" font-family="Helvetica,sans-Serif" font-size="10.00"> m_staticInfo</text>
</g>
<!-- Node22 -->
<g id="node22" class="node"><title>Node22</title>
<g id="a_node22"><a xlink:href="class_cpl_1_1_container_1_1_key_literal_string.html" target="_top" xlink:title="This class provides a &#39;Key&#39; wrapper for a C string literal.">
<polygon fill="white" stroke="black" points="604,-71 604,-101 732,-101 732,-71 604,-71"/>
<text text-anchor="start" x="612" y="-89" font-family="Helvetica,sans-Serif" font-size="10.00">Cpl::Container::KeyLiteral</text>
<text text-anchor="middle" x="668" y="-78" font-family="Helvetica,sans-Serif" font-size="10.00">String</text>
</a>
</g>
</g>
<!-- Node22&#45;&gt;Node21 -->
<g id="edge22" class="edge"><title>Node22&#45;&gt;Node21</title>
<path fill="none" stroke="midnightblue" d="M742.469,-86.7434C796.575,-87.2908 868.686,-88.0204 916.069,-88.4999"/>
<polygon fill="midnightblue" stroke="midnightblue" points="742.278,-83.2413 732.243,-86.6399 742.207,-90.241 742.278,-83.2413"/>
</g>
<!-- Node23 -->
<g id="node23" class="node"><title>Node23</title>
<g id="a_node23"><a xlink:href="class_cpl_1_1_container_1_1_key_string_buffer.html" target="_top" xlink:title="This class provides a &#39;Key&#39; wrapper for a array of Character of length N, i.e.">
<polygon fill="white" stroke="black" points="323,-71 323,-101 450,-101 450,-71 323,-71"/>
<text text-anchor="start" x="331" y="-89" font-family="Helvetica,sans-Serif" font-size="10.00">Cpl::Container::KeyString</text>
<text text-anchor="middle" x="386.5" y="-78" font-family="Helvetica,sans-Serif" font-size="10.00">Buffer</text>
</a>
</g>
</g>
<!-- Node23&#45;&gt;Node22 -->
<g id="edge23" class="edge"><title>Node23&#45;&gt;Node22</title>
<path fill="none" stroke="midnightblue" d="M460.373,-86C504.769,-86 560.948,-86 603.517,-86"/>
<polygon fill="midnightblue" stroke="midnightblue" points="460.225,-82.5001 450.225,-86 460.225,-89.5001 460.225,-82.5001"/>
</g>
<!-- Node24 -->
<g id="node24" class="node"><title>Node24</title>
<g id="a_node24"><a xlink:href="class_cpl_1_1_container_1_1_key.html" target="_top" xlink:title="This abstract class defines the interface that a contained object must support if it has comparable k...">
<polygon fill="white" stroke="black" points="163,-76.5 163,-95.5 264,-95.5 264,-76.5 163,-76.5"/>
<text text-anchor="middle" x="213.5" y="-83.5" font-family="Helvetica,sans-Serif" font-size="10.00">Cpl::Container::Key</text>
</a>
</g>
</g>
<!-- Node24&#45;&gt;Node23 -->
<g id="edge24" class="edge"><title>Node24&#45;&gt;Node23</title>
<path fill="none" stroke="midnightblue" d="M274.481,-86C290.103,-86 306.976,-86 322.737,-86"/>
<polygon fill="midnightblue" stroke="midnightblue" points="274.42,-82.5001 264.42,-86 274.42,-89.5001 274.42,-82.5001"/>
</g>
<!-- Node25&#45;&gt;Node7 -->
<g id="edge26" class="edge"><title>Node25&#45;&gt;Node7</title>
<path fill="none" stroke="orange" stroke-dasharray="5,2" d="M1513.43,-166.281C1598.77,-183.627 1754.29,-215.235 1844.86,-233.643"/>
<polygon fill="orange" stroke="orange" points="1513.87,-162.801 1503.38,-164.239 1512.48,-169.66 1513.87,-162.801"/>
<text text-anchor="start" x="1619" y="-228" font-family="Helvetica,sans-Serif" font-size="10.00"> &lt; Cpl::System::ElapsedTime</text>
<text text-anchor="middle" x="1684" y="-217" font-family="Helvetica,sans-Serif" font-size="10.00">::Precision_T &gt;</text>
</g>
<!-- Node25&#45;&gt;Node33 -->
<g id="edge41" class="edge"><title>Node25&#45;&gt;Node33</title>
<path fill="none" stroke="orange" stroke-dasharray="5,2" d="M1513.41,-154C1550.63,-154 1597.78,-154 1632.92,-154"/>
<polygon fill="orange" stroke="orange" points="1513.19,-150.5 1503.19,-154 1513.19,-157.5 1513.19,-150.5"/>
<text text-anchor="middle" x="1571" y="-157" font-family="Helvetica,sans-Serif" font-size="10.00"> &lt; uint32_t &gt;</text>
</g>
<!-- Node34 -->
<g id="node34" class="node"><title>Node34</title>
<g id="a_node34"><a xlink:href="class_cpl_1_1_dm_1_1_mp_1_1_basic_integer.html" target="_top" xlink:title="This template class extends the implementation of Basic&lt;ELEMTYPE&gt; to support the toJSON() and fromJSO...">
<polygon fill="white" stroke="black" points="1618,-90 1618,-120 1750,-120 1750,-90 1618,-90"/>
<text text-anchor="start" x="1626" y="-108" font-family="Helvetica,sans-Serif" font-size="10.00">Cpl::Dm::Mp::BasicInteger</text>
<text text-anchor="middle" x="1684" y="-97" font-family="Helvetica,sans-Serif" font-size="10.00">&lt; ELEMTYPE &gt;</text>
</a>
</g>
</g>
<!-- Node25&#45;&gt;Node34 -->
<g id="edge43" class="edge"><title>Node25&#45;&gt;Node34</title>
<path fill="none" stroke="midnightblue" d="M1513.32,-141.149C1545.38,-134.319 1584.83,-125.915 1617.62,-118.93"/>
<polygon fill="midnightblue" stroke="midnightblue" points="1512.24,-137.8 1503.19,-143.307 1513.7,-144.647 1512.24,-137.8"/>
</g>
<!-- Node26&#45;&gt;Node5 -->
<g id="edge28" class="edge"><title>Node26&#45;&gt;Node5</title>
<path fill="none" stroke="#9a32cd" stroke-dasharray="5,2" d="M2227.1,-115.866C2276.33,-124.08 2333.93,-136.721 2353,-153 2369.07,-166.716 2357.51,-180.737 2371,-197 2380.78,-208.797 2394.56,-218.525 2407.16,-225.807"/>
<polygon fill="#9a32cd" stroke="#9a32cd" points="2227.49,-112.384 2217.06,-114.232 2226.37,-119.293 2227.49,-112.384"/>
<text text-anchor="middle" x="2303" y="-156" font-family="Helvetica,sans-Serif" font-size="10.00"> airFilterAlert</text>
</g>
<!-- Node26&#45;&gt;Node28 -->
<g id="edge36" class="edge"><title>Node26&#45;&gt;Node28</title>
<path fill="none" stroke="#9a32cd" stroke-dasharray="5,2" d="M2217.11,-94.4722C2257.71,-90.8752 2309.55,-90.9521 2353,-106 2382.69,-116.281 2410.04,-141.4 2425.59,-157.792"/>
<polygon fill="#9a32cd" stroke="#9a32cd" points="2216.65,-91.0004 2207.03,-95.459 2217.33,-97.967 2216.65,-91.0004"/>
<text text-anchor="middle" x="2303" y="-109" font-family="Helvetica,sans-Serif" font-size="10.00"> airFilterAlert</text>
</g>
<!-- Node27 -->
<g id="node27" class="node"><title>Node27</title>
<g id="a_node27"><a xlink:href="class_storm_1_1_dm_1_1_mp_simple_alarm.html#struct_storm_1_1_dm_1_1_mp_simple_alarm_1_1_data" target="_top" xlink:title="The MP&#39;s Data container.">
<polygon fill="white" stroke="black" points="1847,-90 1847,-120 1986,-120 1986,-90 1847,-90"/>
<text text-anchor="start" x="1855" y="-108" font-family="Helvetica,sans-Serif" font-size="10.00">Storm::Dm::MpSimpleAlarm</text>
<text text-anchor="middle" x="1916.5" y="-97" font-family="Helvetica,sans-Serif" font-size="10.00">::Data</text>
</a>
</g>
</g>
<!-- Node27&#45;&gt;Node26 -->
<g id="edge30" class="edge"><title>Node27&#45;&gt;Node26</title>
<path fill="none" stroke="#9a32cd" stroke-dasharray="5,2" d="M1996.22,-105C2022.76,-105 2052.15,-105 2077.84,-105"/>
<polygon fill="#9a32cd" stroke="#9a32cd" points="1996.21,-101.5 1986.21,-105 1996.21,-108.5 1996.21,-101.5"/>
<text text-anchor="middle" x="2024" y="-108" font-family="Helvetica,sans-Serif" font-size="10.00"> m_data</text>
</g>
<!-- Node28&#45;&gt;Node1 -->
<g id="edge31" class="edge"><title>Node28&#45;&gt;Node1</title>
<path fill="none" stroke="#9a32cd" stroke-dasharray="5,2" d="M2479.14,-192.725C2518.57,-213.122 2579.27,-244.518 2614.97,-262.984"/>
<polygon fill="#9a32cd" stroke="#9a32cd" points="2480.58,-189.529 2470.08,-188.044 2477.36,-195.747 2480.58,-189.529"/>
<text text-anchor="middle" x="2542.5" y="-235" font-family="Helvetica,sans-Serif" font-size="10.00"> m_in</text>
</g>
<!-- Node29&#45;&gt;Node28 -->
<g id="edge32" class="edge"><title>Node29&#45;&gt;Node28</title>
<path fill="none" stroke="#9a32cd" stroke-dasharray="5,2" d="M1535.29,-22C1579.15,-22 1634.01,-22 1683,-22 1683,-22 1683,-22 2148.5,-22 2244.14,-22 2271.22,-39.4073 2353,-89 2383.7,-107.614 2411.97,-139.134 2427.21,-157.815"/>
<polygon fill="#9a32cd" stroke="#9a32cd" points="1535.25,-18.5001 1525.25,-22 1535.25,-25.5001 1535.25,-18.5001"/>
<text text-anchor="middle" x="1916.5" y="-25" font-family="Helvetica,sans-Serif" font-size="10.00"> vOutputs</text>
</g>
<!-- Node30 -->
<g id="node30" class="node"><title>Node30</title>
<g id="a_node30"><a xlink:href="namespace_storm_1_1_type.html#struct_storm_1_1_type_1_1_virtual_outputs___t" target="_top" xlink:title="The following typedef is used to hold the virtual outputs for System.">
<polygon fill="white" stroke="black" points="1156.5,-0.5 1156.5,-19.5 1306.5,-19.5 1306.5,-0.5 1156.5,-0.5"/>
<text text-anchor="middle" x="1231.5" y="-7.5" font-family="Helvetica,sans-Serif" font-size="10.00">Storm::Type::VirtualOutputs_T</text>
</a>
</g>
</g>
<!-- Node30&#45;&gt;Node29 -->
<g id="edge34" class="edge"><title>Node30&#45;&gt;Node29</title>
<path fill="none" stroke="#9a32cd" stroke-dasharray="5,2" d="M1316.75,-9.28357C1331.51,-9.54969 1346.71,-10.0741 1361,-11 1366.97,-11.3867 1373.15,-11.9011 1379.35,-12.4965"/>
<polygon fill="#9a32cd" stroke="#9a32cd" points="1316.67,-5.78215 1306.62,-9.13885 1316.57,-12.7814 1316.67,-5.78215"/>
<text text-anchor="middle" x="1343" y="-14" font-family="Helvetica,sans-Serif" font-size="10.00"> m_data</text>
</g>
<!-- Node31 -->
<g id="node31" class="node"><title>Node31</title>
<g id="a_node31"><a xlink:href="class_cpl_1_1_dm_1_1_mp_1_1_uint32.html" target="_top" xlink:title="This class provides a concrete implementation for a Point who&#39;s data is a uint32_t.">
<polygon fill="white" stroke="black" points="2095,-154.5 2095,-173.5 2200,-173.5 2200,-154.5 2095,-154.5"/>
<text text-anchor="middle" x="2147.5" y="-161.5" font-family="Helvetica,sans-Serif" font-size="10.00">Cpl::Dm::Mp::Uint32</text>
</a>
</g>
</g>
<!-- Node31&#45;&gt;Node28 -->
<g id="edge37" class="edge"><title>Node31&#45;&gt;Node28</title>
<path fill="none" stroke="#9a32cd" stroke-dasharray="5,2" d="M2210.18,-165.911C2257.33,-167.372 2322.29,-169.384 2370.95,-170.892"/>
<polygon fill="#9a32cd" stroke="#9a32cd" points="2210.2,-162.41 2200.1,-165.599 2209.99,-169.407 2210.2,-162.41"/>
<text text-anchor="middle" x="2303" y="-174" font-family="Helvetica,sans-Serif" font-size="10.00"> maxAirFilterHours</text>
</g>
<!-- Node32 -->
<g id="node32" class="node"><title>Node32</title>
<g id="a_node32"><a xlink:href="class_cpl_1_1_dm_1_1_mp_1_1_basic_integer.html" target="_top" xlink:title=" ">
<polygon fill="white" stroke="black" points="1850.5,-139 1850.5,-169 1982.5,-169 1982.5,-139 1850.5,-139"/>
<text text-anchor="start" x="1858.5" y="-157" font-family="Helvetica,sans-Serif" font-size="10.00">Cpl::Dm::Mp::BasicInteger</text>
<text text-anchor="middle" x="1916.5" y="-146" font-family="Helvetica,sans-Serif" font-size="10.00">&lt; uint32_t &gt;</text>
</a>
</g>
</g>
<!-- Node32&#45;&gt;Node31 -->
<g id="edge38" class="edge"><title>Node32&#45;&gt;Node31</title>
<path fill="none" stroke="midnightblue" d="M1992.71,-157.284C2026.14,-158.744 2064.66,-160.426 2094.78,-161.742"/>
<polygon fill="midnightblue" stroke="midnightblue" points="1992.65,-153.779 1982.51,-156.839 1992.35,-160.772 1992.65,-153.779"/>
</g>
<!-- Node33&#45;&gt;Node32 -->
<g id="edge39" class="edge"><title>Node33&#45;&gt;Node32</title>
<path fill="none" stroke="midnightblue" d="M1745.21,-154C1777.47,-154 1817.25,-154 1850.25,-154"/>
<polygon fill="midnightblue" stroke="midnightblue" points="1745.02,-150.5 1735.02,-154 1745.02,-157.5 1745.02,-150.5"/>
</g>
<!-- Node34&#45;&gt;Node32 -->
<g id="edge42" class="edge"><title>Node34&#45;&gt;Node32</title>
<path fill="none" stroke="orange" stroke-dasharray="5,2" d="M1760.22,-120.99C1789.24,-127.158 1822.12,-134.149 1850.13,-140.104"/>
<polygon fill="orange" stroke="orange" points="1760.64,-117.501 1750.13,-118.845 1759.18,-124.348 1760.64,-117.501"/>
<text text-anchor="middle" x="1798" y="-137" font-family="Helvetica,sans-Serif" font-size="10.00"> &lt; uint32_t &gt;</text>
</g>
</g>
</svg>
