<?xml version="1.0" encoding="UTF-8" standalone="no"?>
<!DOCTYPE svg PUBLIC "-//W3C//DTD SVG 1.1//EN"
 "http://www.w3.org/Graphics/SVG/1.1/DTD/svg11.dtd">
<!-- Generated by graphviz version 2.38.0 (20140413.2041)
 -->
<!-- Title: Fsm Pages: 1 -->
<svg width="605pt" height="88pt"
 viewBox="0.00 0.00 605.00 88.00" xmlns="http://www.w3.org/2000/svg" xmlns:xlink="http://www.w3.org/1999/xlink">
<g id="graph0" class="graph" transform="scale(1 1) rotate(0) translate(4 84)">
<title>Fsm</title>
<polygon fill="white" stroke="none" points="-4,4 -4,-84 601,-84 601,4 -4,4"/>
<!-- Node1 -->
<g id="node1" class="node"><title>Node1</title>
<g id="a_node1"><a xlink:title="Here is the graph that shows the state machine this class implements.">
<polygon fill="#bfbfbf" stroke="black" points="0,-30 0,-49 36,-49 36,-30 0,-30"/>
<text text-anchor="middle" x="18" y="-37" font-family="Helvetica,sans-Serif" font-size="10.00">Fsm</text>
</a>
</g>
</g>
<!-- Node2 -->
<g id="node2" class="node"><title>Node2</title>
<g id="a_node2"><a xlink:href="class_storm_1_1_component_1_1_equipment_1_1_stage_1_1_fsm_event_queue__.html" target="_top" xlink:title="Event Queue for FSM events.">
<polygon fill="white" stroke="black" points="72,-24.5 72,-54.5 223,-54.5 223,-24.5 72,-24.5"/>
<text text-anchor="start" x="80" y="-42.5" font-family="Helvetica,sans-Serif" font-size="10.00">Storm::Component::Equipment</text>
<text text-anchor="middle" x="147.5" y="-31.5" font-family="Helvetica,sans-Serif" font-size="10.00">::Stage::FsmEventQueue_</text>
</a>
</g>
</g>
<!-- Node1&#45;&gt;Node2 -->
<g id="edge1" class="edge"><title>Node1&#45;&gt;Node2</title>
<path fill="none" stroke="midnightblue" d="M46.2753,-39.5C53.9644,-39.5 62.7202,-39.5 71.7809,-39.5"/>
<polygon fill="midnightblue" stroke="midnightblue" points="46.1953,-36.0001 36.1952,-39.5 46.1952,-43.0001 46.1953,-36.0001"/>
</g>
<!-- Node3 -->
<g id="node3" class="node"><title>Node3</title>
<g id="a_node3"><a xlink:href="class_storm_1_1_component_1_1_equipment_1_1_stage_1_1_basic.html" target="_top" xlink:title="This partially concrete class implements the Storm::Component::Equipment::Stage interface for a singl...">
<polygon fill="white" stroke="black" points="259,-24.5 259,-54.5 410,-54.5 410,-24.5 259,-24.5"/>
<text text-anchor="start" x="267" y="-42.5" font-family="Helvetica,sans-Serif" font-size="10.00">Storm::Component::Equipment</text>
<text text-anchor="middle" x="334.5" y="-31.5" font-family="Helvetica,sans-Serif" font-size="10.00">::Stage::Basic</text>
</a>
</g>
</g>
<!-- Node2&#45;&gt;Node3 -->
<g id="edge2" class="edge"><title>Node2&#45;&gt;Node3</title>
<path fill="none" stroke="midnightblue" d="M233.468,-39.5C241.926,-39.5 250.467,-39.5 258.809,-39.5"/>
<polygon fill="midnightblue" stroke="midnightblue" points="233.213,-36.0001 223.213,-39.5 233.213,-43.0001 233.213,-36.0001"/>
</g>
<!-- Node4 -->
<g id="node4" class="node"><title>Node4</title>
<g id="a_node4"><a xlink:href="class_storm_1_1_component_1_1_equipment_1_1_stage_1_1_basic_cooling.html" target="_top" xlink:title="This concrete class implements the Storm::Component::Equipment::Stage interface for a single compress...">
<polygon fill="white" stroke="black" points="446,-49.5 446,-79.5 597,-79.5 597,-49.5 446,-49.5"/>
<text text-anchor="start" x="454" y="-67.5" font-family="Helvetica,sans-Serif" font-size="10.00">Storm::Component::Equipment</text>
<text text-anchor="middle" x="521.5" y="-56.5" font-family="Helvetica,sans-Serif" font-size="10.00">::Stage::BasicCooling</text>
</a>
</g>
</g>
<!-- Node3&#45;&gt;Node4 -->
<g id="edge3" class="edge"><title>Node3&#45;&gt;Node4</title>
<path fill="none" stroke="midnightblue" d="M420.19,-50.9445C428.738,-52.0997 437.376,-53.267 445.809,-54.4066"/>
<polygon fill="midnightblue" stroke="midnightblue" points="420.592,-47.4672 410.213,-49.5964 419.655,-54.4041 420.592,-47.4672"/>
</g>
<!-- Node5 -->
<g id="node5" class="node"><title>Node5</title>
<g id="a_node5"><a xlink:href="class_storm_1_1_component_1_1_equipment_1_1_stage_1_1_basic_indoor_heat.html" target="_top" xlink:title="This concrete class implements the Storm::Component::Equipment::Stage interface for a single compress...">
<polygon fill="white" stroke="black" points="446,-0.5 446,-30.5 597,-30.5 597,-0.5 446,-0.5"/>
<text text-anchor="start" x="454" y="-18.5" font-family="Helvetica,sans-Serif" font-size="10.00">Storm::Component::Equipment</text>
<text text-anchor="middle" x="521.5" y="-7.5" font-family="Helvetica,sans-Serif" font-size="10.00">::Stage::BasicIndoorHeat</text>
</a>
</g>
</g>
<!-- Node3&#45;&gt;Node5 -->
<g id="edge4" class="edge"><title>Node3&#45;&gt;Node5</title>
<path fill="none" stroke="midnightblue" d="M420.19,-28.5133C428.738,-27.4043 437.376,-26.2837 445.809,-25.1897"/>
<polygon fill="midnightblue" stroke="midnightblue" points="419.68,-25.0499 410.213,-29.8075 420.581,-31.9918 419.68,-25.0499"/>
</g>
</g>
</svg>
