<?xml version="1.0" encoding="UTF-8" standalone="no"?>
<!DOCTYPE svg PUBLIC "-//W3C//DTD SVG 1.1//EN"
 "http://www.w3.org/Graphics/SVG/1.1/DTD/svg11.dtd">
<!-- Generated by graphviz version 2.38.0 (20140413.2041)
 -->
<!-- Title: Cpl::Container::SList&lt; ITEM &gt; Pages: 1 -->
<svg width="784pt" height="104pt"
 viewBox="0.00 0.00 784.00 104.00" xmlns="http://www.w3.org/2000/svg" xmlns:xlink="http://www.w3.org/1999/xlink">
<g id="graph0" class="graph" transform="scale(1 1) rotate(0) translate(4 100)">
<title>Cpl::Container::SList&lt; ITEM &gt;</title>
<polygon fill="white" stroke="none" points="-4,4 -4,-100 780,-100 780,4 -4,4"/>
<!-- Node1 -->
<g id="node1" class="node"><title>Node1</title>
<g id="a_node1"><a xlink:title="This template class implements a singly linked list which maintains the ordering imposed on it by the...">
<polygon fill="#bfbfbf" stroke="black" points="0,-15 0,-45 107,-45 107,-15 0,-15"/>
<text text-anchor="start" x="8" y="-33" font-family="Helvetica,sans-Serif" font-size="10.00">Cpl::Container::SList</text>
<text text-anchor="middle" x="53.5" y="-22" font-family="Helvetica,sans-Serif" font-size="10.00">&lt; ITEM &gt;</text>
</a>
</g>
</g>
<!-- Node2 -->
<g id="node2" class="node"><title>Node2</title>
<g id="a_node2"><a xlink:href="class_cpl_1_1_container_1_1_s_list.html" target="_top" xlink:title=" ">
<polygon fill="white" stroke="black" points="204,-15 204,-45 311,-45 311,-15 204,-15"/>
<text text-anchor="start" x="212" y="-33" font-family="Helvetica,sans-Serif" font-size="10.00">Cpl::Container::SList</text>
<text text-anchor="middle" x="257.5" y="-22" font-family="Helvetica,sans-Serif" font-size="10.00">&lt; Message &gt;</text>
</a>
</g>
</g>
<!-- Node1&#45;&gt;Node2 -->
<g id="edge1" class="edge"><title>Node1&#45;&gt;Node2</title>
<path fill="none" stroke="orange" stroke-dasharray="5,2" d="M117.072,-30C144.902,-30 177.305,-30 203.867,-30"/>
<polygon fill="orange" stroke="orange" points="117.046,-26.5001 107.046,-30 117.046,-33.5001 117.046,-26.5001"/>
<text text-anchor="middle" x="155.5" y="-33" font-family="Helvetica,sans-Serif" font-size="10.00"> &lt; Message &gt;</text>
</g>
<!-- Node3 -->
<g id="node3" class="node"><title>Node3</title>
<g id="a_node3"><a xlink:href="class_cpl_1_1_itc_1_1_mailbox.html" target="_top" xlink:title="This mailbox class implements an Inter Thread Communications message queue.">
<polygon fill="white" stroke="black" points="348,-20.5 348,-39.5 436,-39.5 436,-20.5 348,-20.5"/>
<text text-anchor="middle" x="392" y="-27.5" font-family="Helvetica,sans-Serif" font-size="10.00">Cpl::Itc::Mailbox</text>
</a>
</g>
</g>
<!-- Node2&#45;&gt;Node3 -->
<g id="edge2" class="edge"><title>Node2&#45;&gt;Node3</title>
<path fill="none" stroke="midnightblue" d="M321.3,-30C330.266,-30 339.316,-30 347.792,-30"/>
<polygon fill="midnightblue" stroke="midnightblue" points="321.248,-26.5001 311.248,-30 321.248,-33.5001 321.248,-26.5001"/>
</g>
<!-- Node4 -->
<g id="node4" class="node"><title>Node4</title>
<g id="a_node4"><a xlink:href="class_cpl_1_1_dm_1_1_mailbox_server.html" target="_top" xlink:title="This class extends the Cpl::Dm::EventLoop and Cpl::Itc:Mailbox classes to support the asynchronous ch...">
<polygon fill="white" stroke="black" points="473,-38.5 473,-57.5 593,-57.5 593,-38.5 473,-38.5"/>
<text text-anchor="middle" x="533" y="-45.5" font-family="Helvetica,sans-Serif" font-size="10.00">Cpl::Dm::MailboxServer</text>
</a>
</g>
</g>
<!-- Node3&#45;&gt;Node4 -->
<g id="edge3" class="edge"><title>Node3&#45;&gt;Node4</title>
<path fill="none" stroke="midnightblue" d="M446.274,-36.8988C455.012,-38.0303 464.112,-39.2087 472.979,-40.357"/>
<polygon fill="midnightblue" stroke="midnightblue" points="446.585,-33.41 436.219,-35.5966 445.686,-40.352 446.585,-33.41"/>
</g>
<!-- Node7 -->
<g id="node7" class="node"><title>Node7</title>
<g id="a_node7"><a xlink:href="class_cpl_1_1_itc_1_1_mailbox_server.html" target="_top" xlink:title="This class collects the common functions of a generic server providing a mailbox and Event loop.">
<polygon fill="white" stroke="black" points="475,-0.5 475,-19.5 591,-19.5 591,-0.5 475,-0.5"/>
<text text-anchor="middle" x="533" y="-7.5" font-family="Helvetica,sans-Serif" font-size="10.00">Cpl::Itc::MailboxServer</text>
</a>
</g>
</g>
<!-- Node3&#45;&gt;Node7 -->
<g id="edge6" class="edge"><title>Node3&#45;&gt;Node7</title>
<path fill="none" stroke="midnightblue" d="M446.168,-22.3499C455.521,-21.0042 465.292,-19.5983 474.75,-18.2374"/>
<polygon fill="midnightblue" stroke="midnightblue" points="445.618,-18.8929 436.219,-23.7815 446.615,-25.8216 445.618,-18.8929"/>
</g>
<!-- Node5 -->
<g id="node5" class="node"><title>Node5</title>
<g id="a_node5"><a xlink:href="class_cpl_1_1_dm_1_1_periodic_scheduler.html" target="_top" xlink:title="This class extends the Cpl::Dm::MailboxServer class to add periodic scheduling to an event based &#39;thr...">
<polygon fill="white" stroke="black" points="634.5,-76.5 634.5,-95.5 771.5,-95.5 771.5,-76.5 634.5,-76.5"/>
<text text-anchor="middle" x="703" y="-83.5" font-family="Helvetica,sans-Serif" font-size="10.00">Cpl::Dm::PeriodicScheduler</text>
</a>
</g>
</g>
<!-- Node4&#45;&gt;Node5 -->
<g id="edge4" class="edge"><title>Node4&#45;&gt;Node5</title>
<path fill="none" stroke="midnightblue" d="M586.276,-59.8243C609.961,-65.1816 637.59,-71.4311 659.911,-76.4799"/>
<polygon fill="midnightblue" stroke="midnightblue" points="586.919,-56.3815 576.393,-57.589 585.375,-63.209 586.919,-56.3815"/>
</g>
<!-- Node6 -->
<g id="node6" class="node"><title>Node6</title>
<g id="a_node6"><a xlink:href="class_cpl_1_1_persistent_1_1_record_server.html" target="_top" xlink:title="This concrete class provides an Event driven Runnable object for executing the read/write operation t...">
<polygon fill="white" stroke="black" points="630,-38.5 630,-57.5 776,-57.5 776,-38.5 630,-38.5"/>
<text text-anchor="middle" x="703" y="-45.5" font-family="Helvetica,sans-Serif" font-size="10.00">Cpl::Persistent::RecordServer</text>
</a>
</g>
</g>
<!-- Node4&#45;&gt;Node6 -->
<g id="edge5" class="edge"><title>Node4&#45;&gt;Node6</title>
<path fill="none" stroke="midnightblue" d="M603.341,-48C612.058,-48 620.993,-48 629.754,-48"/>
<polygon fill="midnightblue" stroke="midnightblue" points="603.231,-44.5001 593.231,-48 603.23,-51.5001 603.231,-44.5001"/>
</g>
<!-- Node8 -->
<g id="node8" class="node"><title>Node8</title>
<g id="a_node8"><a xlink:href="class_cpl_1_1_itc_1_1_periodic_scheduler.html" target="_top" xlink:title="This class extends the Cpl::Itc::MailboxServer class to add periodic scheduling to an event based &#39;th...">
<polygon fill="white" stroke="black" points="636.5,-0.5 636.5,-19.5 769.5,-19.5 769.5,-0.5 636.5,-0.5"/>
<text text-anchor="middle" x="703" y="-7.5" font-family="Helvetica,sans-Serif" font-size="10.00">Cpl::Itc::PeriodicScheduler</text>
</a>
</g>
</g>
<!-- Node7&#45;&gt;Node8 -->
<g id="edge7" class="edge"><title>Node7&#45;&gt;Node8</title>
<path fill="none" stroke="midnightblue" d="M601.673,-10C613.074,-10 624.891,-10 636.242,-10"/>
<polygon fill="midnightblue" stroke="midnightblue" points="601.346,-6.5001 591.346,-10 601.346,-13.5001 601.346,-6.5001"/>
</g>
</g>
</svg>
