<?xml version="1.0" encoding="UTF-8" standalone="no"?>
<!DOCTYPE svg PUBLIC "-//W3C//DTD SVG 1.1//EN"
 "http://www.w3.org/Graphics/SVG/1.1/DTD/svg11.dtd">
<!-- Generated by graphviz version 2.38.0 (20140413.2041)
 -->
<!-- Title: Cpl::Text::Frame::Decoder_ Pages: 1 -->
<svg width="667pt" height="112pt"
 viewBox="0.00 0.00 667.00 112.00" xmlns="http://www.w3.org/2000/svg" xmlns:xlink="http://www.w3.org/1999/xlink">
<g id="graph0" class="graph" transform="scale(1 1) rotate(0) translate(4 108)">
<title>Cpl::Text::Frame::Decoder_</title>
<polygon fill="white" stroke="none" points="-4,4 -4,-108 663,-108 663,4 -4,4"/>
<!-- Node1 -->
<g id="node1" class="node"><title>Node1</title>
<g id="a_node1"><a xlink:title="This private partially concrete class implements the basic/common logic for a frame decoder.">
<polygon fill="#bfbfbf" stroke="black" points="168,-30 168,-49 305,-49 305,-30 168,-30"/>
<text text-anchor="middle" x="236.5" y="-37" font-family="Helvetica,sans-Serif" font-size="10.00">Cpl::Text::Frame::Decoder_</text>
</a>
</g>
</g>
<!-- Node3 -->
<g id="node3" class="node"><title>Node3</title>
<g id="a_node3"><a xlink:href="class_cpl_1_1_text_1_1_frame_1_1_stream_decoder.html" target="_top" xlink:title="This partially concrete class defines an interface a Text &quot;Decoder&quot; that has a Cpl::Io::Input stream ...">
<polygon fill="white" stroke="black" points="341,-49.5 341,-79.5 469,-79.5 469,-49.5 341,-49.5"/>
<text text-anchor="start" x="349" y="-67.5" font-family="Helvetica,sans-Serif" font-size="10.00">Cpl::Text::Frame::Stream</text>
<text text-anchor="middle" x="405" y="-56.5" font-family="Helvetica,sans-Serif" font-size="10.00">Decoder</text>
</a>
</g>
</g>
<!-- Node1&#45;&gt;Node3 -->
<g id="edge2" class="edge"><title>Node1&#45;&gt;Node3</title>
<path fill="none" stroke="midnightblue" d="M310.817,-50.5085C320.798,-52.0072 330.972,-53.5349 340.755,-55.0037"/>
<polygon fill="midnightblue" stroke="midnightblue" points="311.33,-47.0465 300.921,-49.0227 310.291,-53.9689 311.33,-47.0465"/>
</g>
<!-- Node6 -->
<g id="node6" class="node"><title>Node6</title>
<g id="a_node6"><a xlink:href="class_cpl_1_1_text_1_1_frame_1_1_string_decoder.html" target="_top" xlink:title="This concrete class defines an interface a Text &quot;Decoder&quot; that accepts a null terminated string as it...">
<polygon fill="white" stroke="black" points="344,-0.5 344,-30.5 466,-30.5 466,-0.5 344,-0.5"/>
<text text-anchor="start" x="352" y="-18.5" font-family="Helvetica,sans-Serif" font-size="10.00">Cpl::Text::Frame::String</text>
<text text-anchor="middle" x="405" y="-7.5" font-family="Helvetica,sans-Serif" font-size="10.00">Decoder</text>
</a>
</g>
</g>
<!-- Node1&#45;&gt;Node6 -->
<g id="edge5" class="edge"><title>Node1&#45;&gt;Node6</title>
<path fill="none" stroke="midnightblue" d="M313.804,-28.5013C323.892,-27.0471 334.117,-25.5733 343.88,-24.1659"/>
<polygon fill="midnightblue" stroke="midnightblue" points="313.182,-25.0546 303.784,-29.9456 314.181,-31.983 313.182,-25.0546"/>
</g>
<!-- Node2 -->
<g id="node2" class="node"><title>Node2</title>
<g id="a_node2"><a xlink:href="class_cpl_1_1_text_1_1_frame_1_1_decoder.html" target="_top" xlink:title="This class defines an interface for &#39;receiving&#39; (decode) a frame.">
<polygon fill="white" stroke="black" points="0,-30 0,-49 132,-49 132,-30 0,-30"/>
<text text-anchor="middle" x="66" y="-37" font-family="Helvetica,sans-Serif" font-size="10.00">Cpl::Text::Frame::Decoder</text>
</a>
</g>
</g>
<!-- Node2&#45;&gt;Node1 -->
<g id="edge1" class="edge"><title>Node2&#45;&gt;Node1</title>
<path fill="none" stroke="midnightblue" d="M142.372,-39.5C150.822,-39.5 159.394,-39.5 167.74,-39.5"/>
<polygon fill="midnightblue" stroke="midnightblue" points="142.147,-36.0001 132.146,-39.5 142.146,-43.0001 142.147,-36.0001"/>
</g>
<!-- Node4 -->
<g id="node4" class="node"><title>Node4</title>
<g id="a_node4"><a xlink:href="class_cpl_1_1_text_1_1_frame_1_1_ascii_decoder.html" target="_top" xlink:title="This concrete template class provide a basic implementation of the Frame::Decoder interface that uses...">
<polygon fill="white" stroke="black" points="505,-73.5 505,-103.5 659,-103.5 659,-73.5 505,-73.5"/>
<text text-anchor="start" x="513" y="-91.5" font-family="Helvetica,sans-Serif" font-size="10.00">Cpl::Text::Frame::AsciiDecoder</text>
<text text-anchor="middle" x="582" y="-80.5" font-family="Helvetica,sans-Serif" font-size="10.00">&lt; BUFSIZE &gt;</text>
</a>
</g>
</g>
<!-- Node3&#45;&gt;Node4 -->
<g id="edge3" class="edge"><title>Node3&#45;&gt;Node4</title>
<path fill="none" stroke="midnightblue" d="M479.33,-74.5566C487.742,-75.7103 496.334,-76.8887 504.783,-78.0474"/>
<polygon fill="midnightblue" stroke="midnightblue" points="479.562,-71.0558 469.179,-73.1646 478.611,-77.9909 479.562,-71.0558"/>
</g>
<!-- Node5 -->
<g id="node5" class="node"><title>Node5</title>
<g id="a_node5"><a xlink:href="class_cpl_1_1_text_1_1_frame_1_1_line_decoder.html" target="_top" xlink:title="This concrete template class provide a basic implementation of the Frame::Decoder interface that uses...">
<polygon fill="white" stroke="black" points="507,-24.5 507,-54.5 657,-54.5 657,-24.5 507,-24.5"/>
<text text-anchor="start" x="515" y="-42.5" font-family="Helvetica,sans-Serif" font-size="10.00">Cpl::Text::Frame::LineDecoder</text>
<text text-anchor="middle" x="582" y="-31.5" font-family="Helvetica,sans-Serif" font-size="10.00">&lt; BUFSIZE &gt;</text>
</a>
</g>
</g>
<!-- Node3&#45;&gt;Node5 -->
<g id="edge4" class="edge"><title>Node3&#45;&gt;Node5</title>
<path fill="none" stroke="midnightblue" d="M479.351,-54.0213C488.459,-52.7202 497.776,-51.3891 506.895,-50.0864"/>
<polygon fill="midnightblue" stroke="midnightblue" points="478.584,-50.5953 469.179,-55.4744 479.574,-57.525 478.584,-50.5953"/>
</g>
</g>
</svg>
