<?xml version="1.0" encoding="UTF-8" standalone="no"?>
<!DOCTYPE svg PUBLIC "-//W3C//DTD SVG 1.1//EN"
 "http://www.w3.org/Graphics/SVG/1.1/DTD/svg11.dtd">
<!-- Generated by graphviz version 2.38.0 (20140413.2041)
 -->
<!-- Title: Cpl::TShell::Maker Pages: 1 -->
<svg width="1887pt" height="415pt"
 viewBox="0.00 0.00 1887.00 414.50" xmlns="http://www.w3.org/2000/svg" xmlns:xlink="http://www.w3.org/1999/xlink">
<g id="graph0" class="graph" transform="scale(1 1) rotate(0) translate(4 410.5)">
<title>Cpl::TShell::Maker</title>
<polygon fill="white" stroke="none" points="-4,4 -4,-410.5 1883,-410.5 1883,4 -4,4"/>
<!-- Node1 -->
<g id="node1" class="node"><title>Node1</title>
<g id="a_node1"><a xlink:title="This concrete class is a &quot;Maker&quot; that assembles the objects needed for a &#39;basic&#39; TShell Processor eng...">
<polygon fill="#bfbfbf" stroke="black" points="1781,-118.5 1781,-137.5 1879,-137.5 1879,-118.5 1781,-118.5"/>
<text text-anchor="middle" x="1830" y="-125.5" font-family="Helvetica,sans-Serif" font-size="10.00">Cpl::TShell::Maker</text>
</a>
</g>
</g>
<!-- Node2 -->
<g id="node2" class="node"><title>Node2</title>
<g id="a_node2"><a xlink:href="class_cpl_1_1_t_shell_1_1_processor.html" target="_top" xlink:title="This concrete class provides the implementation of Command Processor for a TShell engine.">
<polygon fill="white" stroke="black" points="1185.5,-236.5 1185.5,-255.5 1300.5,-255.5 1300.5,-236.5 1185.5,-236.5"/>
<text text-anchor="middle" x="1243" y="-243.5" font-family="Helvetica,sans-Serif" font-size="10.00">Cpl::TShell::Processor</text>
</a>
</g>
</g>
<!-- Node2&#45;&gt;Node1 -->
<g id="edge1" class="edge"><title>Node2&#45;&gt;Node1</title>
<path fill="none" stroke="#9a32cd" stroke-dasharray="5,2" d="M1302.52,-234.497C1398.67,-215.545 1596.1,-176.422 1763,-142 1769.88,-140.58 1777.17,-139.057 1784.28,-137.557"/>
<polygon fill="#9a32cd" stroke="#9a32cd" points="1301.83,-231.065 1292.69,-236.432 1303.18,-237.933 1301.83,-231.065"/>
<text text-anchor="middle" x="1591.5" y="-200" font-family="Helvetica,sans-Serif" font-size="10.00"> m_processor</text>
</g>
<!-- Node3 -->
<g id="node3" class="node"><title>Node3</title>
<g id="a_node3"><a xlink:href="class_cpl_1_1_t_shell_1_1_context__.html" target="_top" xlink:title="This Private Namespace class defines a &quot;Context&quot; for a TShell command.">
<polygon fill="white" stroke="black" points="924,-299.5 924,-318.5 1034,-318.5 1034,-299.5 924,-299.5"/>
<text text-anchor="middle" x="979" y="-306.5" font-family="Helvetica,sans-Serif" font-size="10.00">Cpl::TShell::Context_</text>
</a>
</g>
</g>
<!-- Node3&#45;&gt;Node2 -->
<g id="edge2" class="edge"><title>Node3&#45;&gt;Node2</title>
<path fill="none" stroke="midnightblue" d="M1044.33,-301.5C1076.41,-296.981 1115.6,-290.276 1150,-281 1174.75,-274.326 1202.08,-263.457 1220.47,-255.6"/>
<polygon fill="midnightblue" stroke="midnightblue" points="1043.62,-298.066 1034.18,-302.891 1044.57,-305.001 1043.62,-298.066"/>
</g>
<!-- Node4 -->
<g id="node4" class="node"><title>Node4</title>
<g id="a_node4"><a xlink:href="class_cpl_1_1_t_shell_1_1_processor_api.html" target="_top" xlink:title="This class defines the interface a TShell Command Processor.">
<polygon fill="white" stroke="black" points="577,-313.5 577,-332.5 706,-332.5 706,-313.5 577,-313.5"/>
<text text-anchor="middle" x="641.5" y="-320.5" font-family="Helvetica,sans-Serif" font-size="10.00">Cpl::TShell::ProcessorApi</text>
</a>
</g>
</g>
<!-- Node4&#45;&gt;Node3 -->
<g id="edge3" class="edge"><title>Node4&#45;&gt;Node3</title>
<path fill="none" stroke="midnightblue" d="M716.609,-319.908C779.253,-317.293 867.534,-313.61 923.763,-311.263"/>
<polygon fill="midnightblue" stroke="midnightblue" points="716.24,-316.42 706.395,-320.334 716.532,-323.414 716.24,-316.42"/>
</g>
<!-- Node5 -->
<g id="node5" class="node"><title>Node5</title>
<g id="a_node5"><a xlink:href="class_cpl_1_1_text_1_1_f_string.html" target="_top" xlink:title=" ">
<polygon fill="white" stroke="black" points="901.5,-239.5 901.5,-280.5 1056.5,-280.5 1056.5,-239.5 901.5,-239.5"/>
<text text-anchor="start" x="909.5" y="-268.5" font-family="Helvetica,sans-Serif" font-size="10.00">Cpl::Text::FString</text>
<text text-anchor="start" x="909.5" y="-257.5" font-family="Helvetica,sans-Serif" font-size="10.00">&lt; OPTION_CPL_TSHELL</text>
<text text-anchor="middle" x="979" y="-246.5" font-family="Helvetica,sans-Serif" font-size="10.00">_PROCESSOR_INPUT_SIZE &gt;</text>
</a>
</g>
</g>
<!-- Node5&#45;&gt;Node2 -->
<g id="edge4" class="edge"><title>Node5&#45;&gt;Node2</title>
<path fill="none" stroke="#9a32cd" stroke-dasharray="5,2" d="M1067.11,-255.345C1105.98,-253.268 1150.68,-250.88 1185.16,-249.037"/>
<polygon fill="#9a32cd" stroke="#9a32cd" points="1066.64,-251.865 1056.84,-255.894 1067.01,-258.855 1066.64,-251.865"/>
<text text-anchor="middle" x="1115" y="-269" font-family="Helvetica,sans-Serif" font-size="10.00"> m_tokenBuffer</text>
<text text-anchor="middle" x="1115" y="-258" font-family="Helvetica,sans-Serif" font-size="10.00">m_tokenBuffer2</text>
</g>
<!-- Node6 -->
<g id="node6" class="node"><title>Node6</title>
<g id="a_node6"><a xlink:href="class_cpl_1_1_text_1_1_f_string__.html" target="_top" xlink:title="This mostly concrete class implements a &quot;fixed storage&quot; String Type.">
<polygon fill="white" stroke="black" points="420.5,-217.5 420.5,-236.5 519.5,-236.5 519.5,-217.5 420.5,-217.5"/>
<text text-anchor="middle" x="470" y="-224.5" font-family="Helvetica,sans-Serif" font-size="10.00">Cpl::Text::FString_</text>
</a>
</g>
</g>
<!-- Node6&#45;&gt;Node5 -->
<g id="edge5" class="edge"><title>Node6&#45;&gt;Node5</title>
<path fill="none" stroke="midnightblue" d="M529.824,-238.209C543.953,-240.832 559.005,-243.568 573,-246 641.749,-257.946 658.444,-265.427 728,-271 794.454,-276.325 811.433,-274.65 878,-271 885.586,-270.584 893.482,-269.992 901.362,-269.295"/>
<polygon fill="midnightblue" stroke="midnightblue" points="530.199,-234.719 519.726,-236.325 528.915,-241.6 530.199,-234.719"/>
</g>
<!-- Node10 -->
<g id="node10" class="node"><title>Node10</title>
<g id="a_node10"><a xlink:href="class_cpl_1_1_text_1_1_f_string.html" target="_top" xlink:title="This template class represents a NULL terminated string of a specific length.">
<polygon fill="white" stroke="black" points="582,-217.5 582,-236.5 701,-236.5 701,-217.5 582,-217.5"/>
<text text-anchor="middle" x="641.5" y="-224.5" font-family="Helvetica,sans-Serif" font-size="10.00">Cpl::Text::FString&lt; S &gt;</text>
</a>
</g>
</g>
<!-- Node6&#45;&gt;Node10 -->
<g id="edge10" class="edge"><title>Node6&#45;&gt;Node10</title>
<path fill="none" stroke="midnightblue" d="M529.807,-227C546.602,-227 564.9,-227 581.695,-227"/>
<polygon fill="midnightblue" stroke="midnightblue" points="529.572,-223.5 519.572,-227 529.572,-230.5 529.572,-223.5"/>
</g>
<!-- Node24 -->
<g id="node24" class="node"><title>Node24</title>
<g id="a_node24"><a xlink:href="class_cpl_1_1_text_1_1_f_string.html" target="_top" xlink:title=" ">
<polygon fill="white" stroke="black" points="896,-179.5 896,-220.5 1062,-220.5 1062,-179.5 896,-179.5"/>
<text text-anchor="start" x="904" y="-208.5" font-family="Helvetica,sans-Serif" font-size="10.00">Cpl::Text::FString</text>
<text text-anchor="start" x="904" y="-197.5" font-family="Helvetica,sans-Serif" font-size="10.00">&lt; OPTION_CPL_TSHELL</text>
<text text-anchor="middle" x="979" y="-186.5" font-family="Helvetica,sans-Serif" font-size="10.00">_PROCESSOR_OUTPUT_SIZE &gt;</text>
</a>
</g>
</g>
<!-- Node6&#45;&gt;Node24 -->
<g id="edge27" class="edge"><title>Node6&#45;&gt;Node24</title>
<path fill="none" stroke="midnightblue" d="M527.581,-215.614C542.327,-212.879 558.225,-210.135 573,-208 707.346,-188.586 742.366,-186.583 878,-192 883.83,-192.233 889.846,-192.542 895.901,-192.903"/>
<polygon fill="midnightblue" stroke="midnightblue" points="526.763,-212.206 517.584,-217.498 528.059,-219.085 526.763,-212.206"/>
</g>
<!-- Node7 -->
<g id="node7" class="node"><title>Node7</title>
<g id="a_node7"><a xlink:href="class_cpl_1_1_text_1_1_string__.html" target="_top" xlink:title="This partially concrete class implements the portions of the String Api that is independent of the in...">
<polygon fill="white" stroke="black" points="268.5,-217.5 268.5,-236.5 361.5,-236.5 361.5,-217.5 268.5,-217.5"/>
<text text-anchor="middle" x="315" y="-224.5" font-family="Helvetica,sans-Serif" font-size="10.00">Cpl::Text::String_</text>
</a>
</g>
</g>
<!-- Node7&#45;&gt;Node6 -->
<g id="edge6" class="edge"><title>Node7&#45;&gt;Node6</title>
<path fill="none" stroke="midnightblue" d="M372.114,-227C387.974,-227 405.095,-227 420.468,-227"/>
<polygon fill="midnightblue" stroke="midnightblue" points="371.905,-223.5 361.905,-227 371.905,-230.5 371.905,-223.5"/>
</g>
<!-- Node8 -->
<g id="node8" class="node"><title>Node8</title>
<g id="a_node8"><a xlink:href="class_cpl_1_1_text_1_1_string.html" target="_top" xlink:title="This abstract class defines the operations that can be before on a NULL terminated string.">
<polygon fill="white" stroke="black" points="138,-217.5 138,-236.5 226,-236.5 226,-217.5 138,-217.5"/>
<text text-anchor="middle" x="182" y="-224.5" font-family="Helvetica,sans-Serif" font-size="10.00">Cpl::Text::String</text>
</a>
</g>
</g>
<!-- Node8&#45;&gt;Node7 -->
<g id="edge7" class="edge"><title>Node8&#45;&gt;Node7</title>
<path fill="none" stroke="midnightblue" d="M236.542,-227C247.008,-227 257.896,-227 268.088,-227"/>
<polygon fill="midnightblue" stroke="midnightblue" points="236.257,-223.5 226.257,-227 236.257,-230.5 236.257,-223.5"/>
</g>
<!-- Node9 -->
<g id="node9" class="node"><title>Node9</title>
<g id="a_node9"><a xlink:href="class_cpl_1_1_container_1_1_key.html" target="_top" xlink:title="This abstract class defines the interface that a contained object must support if it has comparable k...">
<polygon fill="white" stroke="black" points="0,-217.5 0,-236.5 101,-236.5 101,-217.5 0,-217.5"/>
<text text-anchor="middle" x="50.5" y="-224.5" font-family="Helvetica,sans-Serif" font-size="10.00">Cpl::Container::Key</text>
</a>
</g>
</g>
<!-- Node9&#45;&gt;Node8 -->
<g id="edge8" class="edge"><title>Node9&#45;&gt;Node8</title>
<path fill="none" stroke="midnightblue" d="M111.274,-227C120.281,-227 129.417,-227 137.98,-227"/>
<polygon fill="midnightblue" stroke="midnightblue" points="111.198,-223.5 101.198,-227 111.198,-230.5 111.198,-223.5"/>
</g>
<!-- Node10&#45;&gt;Node5 -->
<g id="edge9" class="edge"><title>Node10&#45;&gt;Node5</title>
<path fill="none" stroke="orange" stroke-dasharray="5,2" d="M711.142,-233.113C758.135,-237.372 821.861,-243.291 878,-249 885.559,-249.769 893.436,-250.594 901.305,-251.434"/>
<polygon fill="orange" stroke="orange" points="711.353,-229.618 701.078,-232.203 710.722,-236.589 711.353,-229.618"/>
<text text-anchor="start" x="733.5" y="-263" font-family="Helvetica,sans-Serif" font-size="10.00"> &lt; OPTION_CPL_TSHELL</text>
<text text-anchor="middle" x="803" y="-252" font-family="Helvetica,sans-Serif" font-size="10.00">_PROCESSOR_INPUT_SIZE &gt;</text>
</g>
<!-- Node10&#45;&gt;Node24 -->
<g id="edge28" class="edge"><title>Node10&#45;&gt;Node24</title>
<path fill="none" stroke="orange" stroke-dasharray="5,2" d="M680.734,-214.554C695.356,-210.368 712.292,-206.204 728,-204 783.669,-196.19 846.99,-195.258 895.976,-196.244"/>
<polygon fill="orange" stroke="orange" points="679.618,-211.234 671.024,-217.431 681.607,-217.946 679.618,-211.234"/>
<text text-anchor="start" x="728" y="-218" font-family="Helvetica,sans-Serif" font-size="10.00"> &lt; OPTION_CPL_TSHELL</text>
<text text-anchor="middle" x="803" y="-207" font-family="Helvetica,sans-Serif" font-size="10.00">_PROCESSOR_OUTPUT_SIZE &gt;</text>
</g>
<!-- Node11 -->
<g id="node11" class="node"><title>Node11</title>
<g id="a_node11"><a xlink:href="class_cpl_1_1_container_1_1_map.html" target="_top" xlink:title=" ">
<polygon fill="white" stroke="black" points="912.5,-376 912.5,-406 1045.5,-406 1045.5,-376 912.5,-376"/>
<text text-anchor="start" x="920.5" y="-394" font-family="Helvetica,sans-Serif" font-size="10.00">Cpl::Container::Map</text>
<text text-anchor="middle" x="979" y="-383" font-family="Helvetica,sans-Serif" font-size="10.00">&lt; Cpl::TShell::Command &gt;</text>
</a>
</g>
</g>
<!-- Node11&#45;&gt;Node2 -->
<g id="edge11" class="edge"><title>Node11&#45;&gt;Node2</title>
<path fill="none" stroke="#9a32cd" stroke-dasharray="5,2" d="M1055.54,-376.424C1086.3,-368.372 1121.29,-356.376 1150,-339 1187.69,-316.187 1221.09,-274.542 1235.06,-255.708"/>
<polygon fill="#9a32cd" stroke="#9a32cd" points="1054.56,-373.063 1045.72,-378.902 1056.27,-379.85 1054.56,-373.063"/>
<text text-anchor="middle" x="1115" y="-372" font-family="Helvetica,sans-Serif" font-size="10.00"> m_commands</text>
</g>
<!-- Node12 -->
<g id="node12" class="node"><title>Node12</title>
<g id="a_node12"><a xlink:href="class_cpl_1_1_container_1_1_map.html" target="_top" xlink:title="This template class implements an Map using an AVL Binary tree (i.e.">
<polygon fill="white" stroke="black" points="590,-376 590,-406 693,-406 693,-376 590,-376"/>
<text text-anchor="start" x="598" y="-394" font-family="Helvetica,sans-Serif" font-size="10.00">Cpl::Container::Map</text>
<text text-anchor="middle" x="641.5" y="-383" font-family="Helvetica,sans-Serif" font-size="10.00">&lt; ITEM &gt;</text>
</a>
</g>
</g>
<!-- Node12&#45;&gt;Node11 -->
<g id="edge12" class="edge"><title>Node12&#45;&gt;Node11</title>
<path fill="none" stroke="orange" stroke-dasharray="5,2" d="M703.382,-391C762.399,-391 851.654,-391 912.264,-391"/>
<polygon fill="orange" stroke="orange" points="703.091,-387.5 693.091,-391 703.091,-394.5 703.091,-387.5"/>
<text text-anchor="middle" x="803" y="-394" font-family="Helvetica,sans-Serif" font-size="10.00"> &lt; Cpl::TShell::Command &gt;</text>
</g>
<!-- Node13 -->
<g id="node13" class="node"><title>Node13</title>
<g id="a_node13"><a xlink:href="class_cpl_1_1_text_1_1_frame_1_1_stream_encoder.html" target="_top" xlink:title="This concrete class implements the Encoder API where the Output destination is a Cpl::Io::Output stre...">
<polygon fill="white" stroke="black" points="915,-114 915,-144 1043,-144 1043,-114 915,-114"/>
<text text-anchor="start" x="923" y="-132" font-family="Helvetica,sans-Serif" font-size="10.00">Cpl::Text::Frame::Stream</text>
<text text-anchor="middle" x="979" y="-121" font-family="Helvetica,sans-Serif" font-size="10.00">Encoder</text>
</a>
</g>
</g>
<!-- Node13&#45;&gt;Node1 -->
<g id="edge30" class="edge"><title>Node13&#45;&gt;Node1</title>
<path fill="none" stroke="#9a32cd" stroke-dasharray="5,2" d="M1053.2,-128.914C1222.79,-128.714 1638.94,-128.224 1780.75,-128.057"/>
<polygon fill="#9a32cd" stroke="#9a32cd" points="1053.12,-125.414 1043.12,-128.926 1053.12,-132.414 1053.12,-125.414"/>
<text text-anchor="middle" x="1405.5" y="-132" font-family="Helvetica,sans-Serif" font-size="10.00"> m_framer</text>
</g>
<!-- Node13&#45;&gt;Node2 -->
<g id="edge13" class="edge"><title>Node13&#45;&gt;Node2</title>
<path fill="none" stroke="#9a32cd" stroke-dasharray="5,2" d="M1023.56,-148.144C1065.65,-166.654 1126.4,-193.408 1150,-204 1174.51,-215 1202.58,-227.854 1221.21,-236.416"/>
<polygon fill="#9a32cd" stroke="#9a32cd" points="1024.92,-144.917 1014.36,-144.096 1022.1,-151.325 1024.92,-144.917"/>
<text text-anchor="middle" x="1115" y="-207" font-family="Helvetica,sans-Serif" font-size="10.00"> m_framer</text>
</g>
<!-- Node14 -->
<g id="node14" class="node"><title>Node14</title>
<g id="a_node14"><a xlink:href="class_cpl_1_1_text_1_1_frame_1_1_encoder__.html" target="_top" xlink:title="This Private Namespace partially concrete class implements common/helper method for supporting the En...">
<polygon fill="white" stroke="black" points="573,-122.5 573,-141.5 710,-141.5 710,-122.5 573,-122.5"/>
<text text-anchor="middle" x="641.5" y="-129.5" font-family="Helvetica,sans-Serif" font-size="10.00">Cpl::Text::Frame::Encoder_</text>
</a>
</g>
</g>
<!-- Node14&#45;&gt;Node13 -->
<g id="edge14" class="edge"><title>Node14&#45;&gt;Node13</title>
<path fill="none" stroke="midnightblue" d="M720.424,-131.303C779.489,-130.775 859.626,-130.058 914.747,-129.566"/>
<polygon fill="midnightblue" stroke="midnightblue" points="720.362,-127.804 710.393,-131.393 720.424,-134.803 720.362,-127.804"/>
</g>
<!-- Node15 -->
<g id="node15" class="node"><title>Node15</title>
<g id="a_node15"><a xlink:href="class_cpl_1_1_text_1_1_frame_1_1_encoder.html" target="_top" xlink:title="This class defines an interface for &#39;transmitted&#39; (encoding) a frame.">
<polygon fill="white" stroke="black" points="404,-125.5 404,-144.5 536,-144.5 536,-125.5 404,-125.5"/>
<text text-anchor="middle" x="470" y="-132.5" font-family="Helvetica,sans-Serif" font-size="10.00">Cpl::Text::Frame::Encoder</text>
</a>
</g>
</g>
<!-- Node15&#45;&gt;Node14 -->
<g id="edge15" class="edge"><title>Node15&#45;&gt;Node14</title>
<path fill="none" stroke="midnightblue" d="M546.32,-133.667C555.144,-133.511 564.106,-133.352 572.816,-133.198"/>
<polygon fill="midnightblue" stroke="midnightblue" points="545.985,-130.172 536.048,-133.849 546.109,-137.171 545.985,-130.172"/>
</g>
<!-- Node16 -->
<g id="node16" class="node"><title>Node16</title>
<g id="a_node16"><a xlink:href="class_cpl_1_1_io_1_1_output.html" target="_top" xlink:title="This partially abstract class defines a interface for operating on an output stream (example of a str...">
<polygon fill="white" stroke="black" points="601.5,-84.5 601.5,-103.5 681.5,-103.5 681.5,-84.5 601.5,-84.5"/>
<text text-anchor="middle" x="641.5" y="-91.5" font-family="Helvetica,sans-Serif" font-size="10.00">Cpl::Io::Output</text>
</a>
</g>
</g>
<!-- Node16&#45;&gt;Node13 -->
<g id="edge16" class="edge"><title>Node16&#45;&gt;Node13</title>
<path fill="none" stroke="#9a32cd" stroke-dasharray="5,2" d="M691.785,-97.6714C739.483,-101.395 813.791,-107.647 878,-115 889.93,-116.366 902.636,-118.004 914.848,-119.669"/>
<polygon fill="#9a32cd" stroke="#9a32cd" points="691.97,-94.1754 681.73,-96.8931 691.43,-101.155 691.97,-94.1754"/>
<text text-anchor="middle" x="803" y="-118" font-family="Helvetica,sans-Serif" font-size="10.00"> m_dstPtr</text>
</g>
<!-- Node17 -->
<g id="node17" class="node"><title>Node17</title>
<g id="a_node17"><a xlink:href="class_cpl_1_1_io_1_1_close.html" target="_top" xlink:title="This abstract class defines a close operation that is intended to be used Input and Output streams/fi...">
<polygon fill="white" stroke="black" points="432,-41.5 432,-60.5 508,-60.5 508,-41.5 432,-41.5"/>
<text text-anchor="middle" x="470" y="-48.5" font-family="Helvetica,sans-Serif" font-size="10.00">Cpl::Io::Close</text>
</a>
</g>
</g>
<!-- Node17&#45;&gt;Node16 -->
<g id="edge17" class="edge"><title>Node17&#45;&gt;Node16</title>
<path fill="none" stroke="midnightblue" d="M518.102,-62.9491C544.822,-69.7278 577.81,-78.0962 602.804,-84.4369"/>
<polygon fill="midnightblue" stroke="midnightblue" points="518.751,-59.5031 508.197,-60.4365 517.03,-66.2881 518.751,-59.5031"/>
</g>
<!-- Node23 -->
<g id="node23" class="node"><title>Node23</title>
<g id="a_node23"><a xlink:href="class_cpl_1_1_io_1_1_input.html" target="_top" xlink:title="This partially abstract class defines a interface for operating on an input stream (example of a stre...">
<polygon fill="white" stroke="black" points="605,-38.5 605,-57.5 678,-57.5 678,-38.5 605,-38.5"/>
<text text-anchor="middle" x="641.5" y="-45.5" font-family="Helvetica,sans-Serif" font-size="10.00">Cpl::Io::Input</text>
</a>
</g>
</g>
<!-- Node17&#45;&gt;Node23 -->
<g id="edge24" class="edge"><title>Node17&#45;&gt;Node23</title>
<path fill="none" stroke="midnightblue" d="M518.21,-49.7599C529.906,-49.4809 542.408,-49.2067 554,-49 570.668,-48.7029 589.144,-48.4754 604.726,-48.313"/>
<polygon fill="midnightblue" stroke="midnightblue" points="518.095,-46.2615 508.183,-50.0046 518.266,-53.2595 518.095,-46.2615"/>
</g>
<!-- Node18 -->
<g id="node18" class="node"><title>Node18</title>
<g id="a_node18"><a xlink:href="class_cpl_1_1_container_1_1_item.html" target="_top" xlink:title="This class is used by the Container classes to implement a various types of singly linked containers.">
<polygon fill="white" stroke="black" points="263,-41.5 263,-60.5 367,-60.5 367,-41.5 263,-41.5"/>
<text text-anchor="middle" x="315" y="-48.5" font-family="Helvetica,sans-Serif" font-size="10.00">Cpl::Container::Item</text>
</a>
</g>
</g>
<!-- Node18&#45;&gt;Node17 -->
<g id="edge18" class="edge"><title>Node18&#45;&gt;Node17</title>
<path fill="none" stroke="midnightblue" d="M377.4,-51C395.724,-51 415.252,-51 431.549,-51"/>
<polygon fill="midnightblue" stroke="midnightblue" points="377.372,-47.5001 367.372,-51 377.372,-54.5001 377.372,-47.5001"/>
</g>
<!-- Node19 -->
<g id="node19" class="node"><title>Node19</title>
<g id="a_node19"><a xlink:href="class_cpl_1_1_io_1_1_is_eos.html" target="_top" xlink:title="This abstract class defines a isEos() operation that is intended to be used Input and Output streams.">
<polygon fill="white" stroke="black" points="431.5,-84.5 431.5,-103.5 508.5,-103.5 508.5,-84.5 431.5,-84.5"/>
<text text-anchor="middle" x="470" y="-91.5" font-family="Helvetica,sans-Serif" font-size="10.00">Cpl::Io::IsEos</text>
</a>
</g>
</g>
<!-- Node19&#45;&gt;Node16 -->
<g id="edge19" class="edge"><title>Node19&#45;&gt;Node16</title>
<path fill="none" stroke="midnightblue" d="M518.898,-95.3509C530.395,-95.6207 542.634,-95.8631 554,-96 569.471,-96.1864 586.495,-95.899 601.319,-95.489"/>
<polygon fill="midnightblue" stroke="midnightblue" points="518.679,-91.8445 508.596,-95.0976 518.507,-98.8424 518.679,-91.8445"/>
</g>
<!-- Node19&#45;&gt;Node23 -->
<g id="edge25" class="edge"><title>Node19&#45;&gt;Node23</title>
<path fill="none" stroke="midnightblue" d="M516.067,-81.7696C544.065,-74.1711 579.527,-64.5473 605.424,-57.519"/>
<polygon fill="midnightblue" stroke="midnightblue" points="514.855,-78.4717 506.121,-84.4688 516.688,-85.2274 514.855,-78.4717"/>
</g>
<!-- Node20 -->
<g id="node20" class="node"><title>Node20</title>
<g id="a_node20"><a xlink:href="class_cpl_1_1_text_1_1_frame_1_1_stream_decoder.html" target="_top" xlink:title="This partially concrete class defines an interface a Text &quot;Decoder&quot; that has a Cpl::Io::Input stream ...">
<polygon fill="white" stroke="black" points="915,-33 915,-63 1043,-63 1043,-33 915,-33"/>
<text text-anchor="start" x="923" y="-51" font-family="Helvetica,sans-Serif" font-size="10.00">Cpl::Text::Frame::Stream</text>
<text text-anchor="middle" x="979" y="-40" font-family="Helvetica,sans-Serif" font-size="10.00">Decoder</text>
</a>
</g>
</g>
<!-- Node20&#45;&gt;Node2 -->
<g id="edge20" class="edge"><title>Node20&#45;&gt;Node2</title>
<path fill="none" stroke="#9a32cd" stroke-dasharray="5,2" d="M1014.62,-68.4194C1049.83,-89.7263 1105.4,-124.87 1150,-160 1182.29,-185.433 1216.77,-219.891 1232.81,-236.403"/>
<polygon fill="#9a32cd" stroke="#9a32cd" points="1016.07,-65.2042 1005.69,-63.0487 1012.46,-71.2026 1016.07,-65.2042"/>
<text text-anchor="middle" x="1115" y="-163" font-family="Helvetica,sans-Serif" font-size="10.00"> m_deframer</text>
</g>
<!-- Node26 -->
<g id="node26" class="node"><title>Node26</title>
<g id="a_node26"><a xlink:href="class_cpl_1_1_text_1_1_frame_1_1_line_decoder.html" target="_top" xlink:title=" ">
<polygon fill="white" stroke="black" points="1493,-58.5 1493,-99.5 1690,-99.5 1690,-58.5 1493,-58.5"/>
<text text-anchor="start" x="1501" y="-87.5" font-family="Helvetica,sans-Serif" font-size="10.00">Cpl::Text::Frame::LineDecoder</text>
<text text-anchor="start" x="1501" y="-76.5" font-family="Helvetica,sans-Serif" font-size="10.00">&lt; OPTION_CPL_TSHELL_PROCESSOR</text>
<text text-anchor="middle" x="1591.5" y="-65.5" font-family="Helvetica,sans-Serif" font-size="10.00">_INPUT_SIZE &gt;</text>
</a>
</g>
</g>
<!-- Node20&#45;&gt;Node26 -->
<g id="edge32" class="edge"><title>Node20&#45;&gt;Node26</title>
<path fill="none" stroke="midnightblue" d="M1053.28,-56.318C1062.28,-57.2631 1071.35,-58.18 1080,-59 1223.27,-72.5748 1389.99,-76.9763 1492.9,-78.3795"/>
<polygon fill="midnightblue" stroke="midnightblue" points="1053.5,-52.8213 1043.18,-55.2425 1052.76,-59.7819 1053.5,-52.8213"/>
</g>
<!-- Node27 -->
<g id="node27" class="node"><title>Node27</title>
<g id="a_node27"><a xlink:href="class_cpl_1_1_text_1_1_frame_1_1_line_decoder.html" target="_top" xlink:title="This concrete template class provide a basic implementation of the Frame::Decoder interface that uses...">
<polygon fill="white" stroke="black" points="1168,-27 1168,-57 1318,-57 1318,-27 1168,-27"/>
<text text-anchor="start" x="1176" y="-45" font-family="Helvetica,sans-Serif" font-size="10.00">Cpl::Text::Frame::LineDecoder</text>
<text text-anchor="middle" x="1243" y="-34" font-family="Helvetica,sans-Serif" font-size="10.00">&lt; BUFSIZE &gt;</text>
</a>
</g>
</g>
<!-- Node20&#45;&gt;Node27 -->
<g id="edge34" class="edge"><title>Node20&#45;&gt;Node27</title>
<path fill="none" stroke="midnightblue" d="M1053.45,-46.318C1089.17,-45.5 1132.02,-44.5187 1167.84,-43.6984"/>
<polygon fill="midnightblue" stroke="midnightblue" points="1053.01,-42.8271 1043.09,-46.5552 1053.17,-49.8253 1053.01,-42.8271"/>
</g>
<!-- Node21 -->
<g id="node21" class="node"><title>Node21</title>
<g id="a_node21"><a xlink:href="class_cpl_1_1_text_1_1_frame_1_1_decoder__.html" target="_top" xlink:title="This private partially concrete class implements the basic/common logic for a frame decoder.">
<polygon fill="white" stroke="black" points="573,-0.5 573,-19.5 710,-19.5 710,-0.5 573,-0.5"/>
<text text-anchor="middle" x="641.5" y="-7.5" font-family="Helvetica,sans-Serif" font-size="10.00">Cpl::Text::Frame::Decoder_</text>
</a>
</g>
</g>
<!-- Node21&#45;&gt;Node20 -->
<g id="edge21" class="edge"><title>Node21&#45;&gt;Node20</title>
<path fill="none" stroke="midnightblue" d="M720.424,-18.826C779.489,-25.5159 859.626,-34.5925 914.747,-40.8357"/>
<polygon fill="midnightblue" stroke="midnightblue" points="720.724,-15.3376 710.393,-17.6899 719.936,-22.2932 720.724,-15.3376"/>
</g>
<!-- Node22 -->
<g id="node22" class="node"><title>Node22</title>
<g id="a_node22"><a xlink:href="class_cpl_1_1_text_1_1_frame_1_1_decoder.html" target="_top" xlink:title="This class defines an interface for &#39;receiving&#39; (decode) a frame.">
<polygon fill="white" stroke="black" points="404,-0.5 404,-19.5 536,-19.5 536,-0.5 404,-0.5"/>
<text text-anchor="middle" x="470" y="-7.5" font-family="Helvetica,sans-Serif" font-size="10.00">Cpl::Text::Frame::Decoder</text>
</a>
</g>
</g>
<!-- Node22&#45;&gt;Node21 -->
<g id="edge22" class="edge"><title>Node22&#45;&gt;Node21</title>
<path fill="none" stroke="midnightblue" d="M546.32,-10C555.144,-10 564.106,-10 572.816,-10"/>
<polygon fill="midnightblue" stroke="midnightblue" points="546.048,-6.5001 536.048,-10 546.048,-13.5001 546.048,-6.5001"/>
</g>
<!-- Node23&#45;&gt;Node20 -->
<g id="edge23" class="edge"><title>Node23&#45;&gt;Node20</title>
<path fill="none" stroke="#9a32cd" stroke-dasharray="5,2" d="M688.162,-48C746.797,-48 848.845,-48 914.881,-48"/>
<polygon fill="#9a32cd" stroke="#9a32cd" points="688.087,-44.5001 678.087,-48 688.087,-51.5001 688.087,-44.5001"/>
<text text-anchor="middle" x="803" y="-51" font-family="Helvetica,sans-Serif" font-size="10.00"> m_srcPtr</text>
</g>
<!-- Node24&#45;&gt;Node2 -->
<g id="edge26" class="edge"><title>Node24&#45;&gt;Node2</title>
<path fill="none" stroke="#9a32cd" stroke-dasharray="5,2" d="M1072.4,-216.223C1111.01,-223.001 1154.53,-230.642 1187.81,-236.486"/>
<polygon fill="#9a32cd" stroke="#9a32cd" points="1072.63,-212.711 1062.18,-214.428 1071.42,-219.605 1072.63,-212.711"/>
<text text-anchor="middle" x="1115" y="-233" font-family="Helvetica,sans-Serif" font-size="10.00"> m_outputBuffer</text>
</g>
<!-- Node25 -->
<g id="node25" class="node"><title>Node25</title>
<g id="a_node25"><a xlink:href="class_cpl_1_1_system_1_1_mutex.html" target="_top" xlink:title="This mutex class defines the interface for a mutex that has &quot;recursive&quot; semantics.">
<polygon fill="white" stroke="black" points="927,-337.5 927,-356.5 1031,-356.5 1031,-337.5 927,-337.5"/>
<text text-anchor="middle" x="979" y="-344.5" font-family="Helvetica,sans-Serif" font-size="10.00">Cpl::System::Mutex</text>
</a>
</g>
</g>
<!-- Node25&#45;&gt;Node2 -->
<g id="edge29" class="edge"><title>Node25&#45;&gt;Node2</title>
<path fill="none" stroke="#9a32cd" stroke-dasharray="5,2" d="M1033,-335.121C1042.67,-332.84 1052.65,-330.409 1062,-328 1101.37,-317.852 1112.8,-319.421 1150,-303 1180.08,-289.72 1212.03,-267.96 1229.23,-255.52"/>
<polygon fill="#9a32cd" stroke="#9a32cd" points="1032.02,-331.755 1023.08,-337.437 1033.61,-338.572 1032.02,-331.755"/>
<text text-anchor="middle" x="1115" y="-327" font-family="Helvetica,sans-Serif" font-size="10.00"> m_outLock</text>
</g>
<!-- Node26&#45;&gt;Node1 -->
<g id="edge31" class="edge"><title>Node26&#45;&gt;Node1</title>
<path fill="none" stroke="#9a32cd" stroke-dasharray="5,2" d="M1700.09,-90.4399C1721.12,-93.7145 1742.88,-97.8411 1763,-103 1778.19,-106.895 1794.69,-113.145 1807.39,-118.421"/>
<polygon fill="#9a32cd" stroke="#9a32cd" points="1700.57,-86.9733 1690.16,-88.9475 1699.53,-93.8955 1700.57,-86.9733"/>
<text text-anchor="middle" x="1735.5" y="-106" font-family="Helvetica,sans-Serif" font-size="10.00"> m_deframer</text>
</g>
<!-- Node27&#45;&gt;Node26 -->
<g id="edge33" class="edge"><title>Node27&#45;&gt;Node26</title>
<path fill="none" stroke="orange" stroke-dasharray="5,2" d="M1328.28,-40.6578C1372.21,-41.0322 1426.71,-43.1798 1475,-50 1489.23,-52.0094 1504.24,-55.0652 1518.57,-58.4511"/>
<polygon fill="orange" stroke="orange" points="1328.23,-37.1576 1318.21,-40.6012 1328.19,-44.1574 1328.23,-37.1576"/>
<text text-anchor="start" x="1336" y="-64" font-family="Helvetica,sans-Serif" font-size="10.00"> &lt; OPTION_CPL_TSHELL</text>
<text text-anchor="middle" x="1405.5" y="-53" font-family="Helvetica,sans-Serif" font-size="10.00">_PROCESSOR_INPUT_SIZE &gt;</text>
</g>
</g>
</svg>
