<?xml version="1.0" encoding="UTF-8" standalone="no"?>
<!DOCTYPE svg PUBLIC "-//W3C//DTD SVG 1.1//EN"
 "http://www.w3.org/Graphics/SVG/1.1/DTD/svg11.dtd">
<!-- Generated by graphviz version 2.38.0 (20140413.2041)
 -->
<!-- Title: Cpl::Itc::Mailbox Pages: 1 -->
<svg width="396pt" height="299pt"
 viewBox="0.00 0.00 396.00 299.00" xmlns="http://www.w3.org/2000/svg" xmlns:xlink="http://www.w3.org/1999/xlink">
<g id="graph0" class="graph" transform="scale(1 1) rotate(0) translate(4 295)">
<title>Cpl::Itc::Mailbox</title>
<polygon fill="white" stroke="none" points="-4,4 -4,-295 392,-295 392,4 -4,4"/>
<!-- Node1 -->
<g id="node1" class="node"><title>Node1</title>
<g id="a_node1"><a xlink:title="This mailbox class implements an Inter Thread Communications message queue.">
<polygon fill="#bfbfbf" stroke="black" points="202,-125.5 202,-144.5 290,-144.5 290,-125.5 202,-125.5"/>
<text text-anchor="middle" x="246" y="-132.5" font-family="Helvetica,sans-Serif" font-size="10.00">Cpl::Itc::Mailbox</text>
</a>
</g>
</g>
<!-- Node5 -->
<g id="node5" class="node"><title>Node5</title>
<g id="a_node5"><a xlink:href="class_cpl_1_1_dm_1_1_mailbox_server.html" target="_top" xlink:title="This class extends the Cpl::Dm::EventLoop and Cpl::Itc:Mailbox classes to support the asynchronous ch...">
<polygon fill="white" stroke="black" points="84,-68.5 84,-87.5 204,-87.5 204,-68.5 84,-68.5"/>
<text text-anchor="middle" x="144" y="-75.5" font-family="Helvetica,sans-Serif" font-size="10.00">Cpl::Dm::MailboxServer</text>
</a>
</g>
</g>
<!-- Node1&#45;&gt;Node5 -->
<g id="edge4" class="edge"><title>Node1&#45;&gt;Node5</title>
<path fill="none" stroke="midnightblue" d="M221.029,-120.535C201.929,-110.236 176.176,-96.3496 159.826,-87.5334"/>
<polygon fill="midnightblue" stroke="midnightblue" points="219.599,-123.741 230.063,-125.406 222.922,-117.579 219.599,-123.741"/>
</g>
<!-- Node8 -->
<g id="node8" class="node"><title>Node8</title>
<g id="a_node8"><a xlink:href="class_cpl_1_1_itc_1_1_mailbox_server.html" target="_top" xlink:title="This class collects the common functions of a generic server providing a mailbox and Event loop.">
<polygon fill="white" stroke="black" points="222,-68.5 222,-87.5 338,-87.5 338,-68.5 222,-68.5"/>
<text text-anchor="middle" x="280" y="-75.5" font-family="Helvetica,sans-Serif" font-size="10.00">Cpl::Itc::MailboxServer</text>
</a>
</g>
</g>
<!-- Node1&#45;&gt;Node8 -->
<g id="edge7" class="edge"><title>Node1&#45;&gt;Node8</title>
<path fill="none" stroke="midnightblue" d="M256.734,-116.635C262.685,-107.01 269.825,-95.459 274.613,-87.7149"/>
<polygon fill="midnightblue" stroke="midnightblue" points="253.594,-115.06 251.313,-125.406 259.548,-118.741 253.594,-115.06"/>
</g>
<!-- Node2 -->
<g id="node2" class="node"><title>Node2</title>
<g id="a_node2"><a xlink:href="class_cpl_1_1_itc_1_1_post_api.html" target="_top" xlink:title="This abstract class represents the interface used to send messages to a mailbox.">
<polygon fill="white" stroke="black" points="166.5,-188 166.5,-207 255.5,-207 255.5,-188 166.5,-188"/>
<text text-anchor="middle" x="211" y="-195" font-family="Helvetica,sans-Serif" font-size="10.00">Cpl::Itc::PostApi</text>
</a>
</g>
</g>
<!-- Node2&#45;&gt;Node1 -->
<g id="edge1" class="edge"><title>Node2&#45;&gt;Node1</title>
<path fill="none" stroke="midnightblue" d="M221.194,-178.879C227.701,-167.63 235.852,-153.541 240.995,-144.652"/>
<polygon fill="midnightblue" stroke="midnightblue" points="217.993,-177.423 216.015,-187.832 224.052,-180.929 217.993,-177.423"/>
</g>
<!-- Node3 -->
<g id="node3" class="node"><title>Node3</title>
<g id="a_node3"><a xlink:href="class_cpl_1_1_container_1_1_s_list.html" target="_top" xlink:title=" ">
<polygon fill="white" stroke="black" points="273.5,-182.5 273.5,-212.5 380.5,-212.5 380.5,-182.5 273.5,-182.5"/>
<text text-anchor="start" x="281.5" y="-200.5" font-family="Helvetica,sans-Serif" font-size="10.00">Cpl::Container::SList</text>
<text text-anchor="middle" x="327" y="-189.5" font-family="Helvetica,sans-Serif" font-size="10.00">&lt; Message &gt;</text>
</a>
</g>
</g>
<!-- Node3&#45;&gt;Node1 -->
<g id="edge2" class="edge"><title>Node3&#45;&gt;Node1</title>
<path fill="none" stroke="midnightblue" d="M300.051,-176.371C285.563,-165.55 268.46,-152.776 257.434,-144.54"/>
<polygon fill="midnightblue" stroke="midnightblue" points="298.107,-179.288 308.213,-182.468 302.296,-173.68 298.107,-179.288"/>
</g>
<!-- Node4 -->
<g id="node4" class="node"><title>Node4</title>
<g id="a_node4"><a xlink:href="class_cpl_1_1_container_1_1_s_list.html" target="_top" xlink:title="This template class implements a singly linked list which maintains the ordering imposed on it by the...">
<polygon fill="white" stroke="black" points="273.5,-260.5 273.5,-290.5 380.5,-290.5 380.5,-260.5 273.5,-260.5"/>
<text text-anchor="start" x="281.5" y="-278.5" font-family="Helvetica,sans-Serif" font-size="10.00">Cpl::Container::SList</text>
<text text-anchor="middle" x="327" y="-267.5" font-family="Helvetica,sans-Serif" font-size="10.00">&lt; ITEM &gt;</text>
</a>
</g>
</g>
<!-- Node4&#45;&gt;Node3 -->
<g id="edge3" class="edge"><title>Node4&#45;&gt;Node3</title>
<path fill="none" stroke="orange" stroke-dasharray="5,2" d="M327,-250.09C327,-237.757 327,-223.224 327,-212.731"/>
<polygon fill="orange" stroke="orange" points="323.5,-250.205 327,-260.205 330.5,-250.205 323.5,-250.205"/>
<text text-anchor="middle" x="357.5" y="-234" font-family="Helvetica,sans-Serif" font-size="10.00"> &lt; Message &gt;</text>
</g>
<!-- Node6 -->
<g id="node6" class="node"><title>Node6</title>
<g id="a_node6"><a xlink:href="class_cpl_1_1_persistent_1_1_record_server.html" target="_top" xlink:title="This concrete class provides an Event driven Runnable object for executing the read/write operation t...">
<polygon fill="white" stroke="black" points="0,-6 0,-25 146,-25 146,-6 0,-6"/>
<text text-anchor="middle" x="73" y="-13" font-family="Helvetica,sans-Serif" font-size="10.00">Cpl::Persistent::RecordServer</text>
</a>
</g>
</g>
<!-- Node5&#45;&gt;Node6 -->
<g id="edge5" class="edge"><title>Node5&#45;&gt;Node6</title>
<path fill="none" stroke="midnightblue" d="M126.068,-61.7202C112.489,-50.1487 94.3231,-34.6697 83.1537,-25.1521"/>
<polygon fill="midnightblue" stroke="midnightblue" points="123.946,-64.51 133.827,-68.3318 128.486,-59.182 123.946,-64.51"/>
</g>
<!-- Node7 -->
<g id="node7" class="node"><title>Node7</title>
<g id="a_node7"><a xlink:href="class_storm_1_1_thermostat_1_1_algorithm.html" target="_top" xlink:title="This concrete class is a &quot;maker&quot; pattern assembles the objects needed for the thermostat&#39;s control al...">
<polygon fill="white" stroke="black" points="164,-0.5 164,-30.5 268,-30.5 268,-0.5 164,-0.5"/>
<text text-anchor="start" x="172" y="-18.5" font-family="Helvetica,sans-Serif" font-size="10.00">Storm::Thermostat::</text>
<text text-anchor="middle" x="216" y="-7.5" font-family="Helvetica,sans-Serif" font-size="10.00">Algorithm</text>
</a>
</g>
</g>
<!-- Node5&#45;&gt;Node7 -->
<g id="edge6" class="edge"><title>Node5&#45;&gt;Node7</title>
<path fill="none" stroke="midnightblue" d="M162.304,-61.6196C173.695,-52.0478 188.233,-39.8322 199.308,-30.526"/>
<polygon fill="midnightblue" stroke="midnightblue" points="159.72,-59.219 154.316,-68.3318 164.223,-64.5782 159.72,-59.219"/>
</g>
</g>
</svg>
