<?xml version="1.0" encoding="UTF-8" standalone="no"?>
<!DOCTYPE svg PUBLIC "-//W3C//DTD SVG 1.1//EN"
 "http://www.w3.org/Graphics/SVG/1.1/DTD/svg11.dtd">
<!-- Generated by graphviz version 2.38.0 (20140413.2041)
 -->
<!-- Title: Storm::Dm::MpComfortConfig Pages: 1 -->
<svg width="1533pt" height="294pt"
 viewBox="0.00 0.00 1533.00 293.50" xmlns="http://www.w3.org/2000/svg" xmlns:xlink="http://www.w3.org/1999/xlink">
<g id="graph0" class="graph" transform="scale(1 1) rotate(0) translate(4 289.5)">
<title>Storm::Dm::MpComfortConfig</title>
<polygon fill="white" stroke="none" points="-4,4 -4,-289.5 1529,-289.5 1529,4 -4,4"/>
<!-- Node1 -->
<g id="node1" class="node"><title>Node1</title>
<g id="a_node1"><a xlink:title="This class provides a concrete implementation for a Point who&#39;s data is the the Comfort configuration...">
<polygon fill="#bfbfbf" stroke="black" points="1379,-68 1379,-87 1525,-87 1525,-68 1379,-68"/>
<text text-anchor="middle" x="1452" y="-75" font-family="Helvetica,sans-Serif" font-size="10.00">Storm::Dm::MpComfortConfig</text>
</a>
</g>
</g>
<!-- Node2 -->
<g id="node2" class="node"><title>Node2</title>
<g id="a_node2"><a xlink:href="class_cpl_1_1_dm_1_1_model_point_common__.html" target="_top" xlink:title="This concrete class provide common infrastructure for a Model Point.">
<polygon fill="white" stroke="black" points="1156,-96 1156,-115 1307,-115 1307,-96 1156,-96"/>
<text text-anchor="middle" x="1231.5" y="-103" font-family="Helvetica,sans-Serif" font-size="10.00">Cpl::Dm::ModelPointCommon_</text>
</a>
</g>
</g>
<!-- Node2&#45;&gt;Node1 -->
<g id="edge1" class="edge"><title>Node2&#45;&gt;Node1</title>
<path fill="none" stroke="midnightblue" d="M1316.72,-94.7078C1337.19,-92.0837 1358.91,-89.3008 1378.78,-86.7553"/>
<polygon fill="midnightblue" stroke="midnightblue" points="1316.25,-91.2386 1306.78,-95.9814 1317.14,-98.1819 1316.25,-91.2386"/>
</g>
<!-- Node3 -->
<g id="node3" class="node"><title>Node3</title>
<g id="a_node3"><a xlink:href="class_cpl_1_1_dm_1_1_model_point.html" target="_top" xlink:title="This mostly abstract class defines the interface for a Model Point.">
<polygon fill="white" stroke="black" points="913,-234 913,-253 1020,-253 1020,-234 913,-234"/>
<text text-anchor="middle" x="966.5" y="-241" font-family="Helvetica,sans-Serif" font-size="10.00">Cpl::Dm::ModelPoint</text>
</a>
</g>
</g>
<!-- Node3&#45;&gt;Node2 -->
<g id="edge2" class="edge"><title>Node3&#45;&gt;Node2</title>
<path fill="none" stroke="midnightblue" d="M998.629,-229.62C1033.16,-213.975 1090.29,-187.339 1138,-161.5 1166.06,-146.303 1197.65,-126.594 1215.7,-115.068"/>
<polygon fill="midnightblue" stroke="midnightblue" points="996.772,-226.619 989.096,-233.921 999.65,-232.999 996.772,-226.619"/>
</g>
<!-- Node4 -->
<g id="node4" class="node"><title>Node4</title>
<g id="a_node4"><a xlink:href="class_cpl_1_1_container_1_1_map_item.html" target="_top" xlink:title="This abstract class represents a item that can be contained in an Map (aka a sorted list implemented ...">
<polygon fill="white" stroke="black" points="607,-266 607,-285 729,-285 729,-266 607,-266"/>
<text text-anchor="middle" x="668" y="-273" font-family="Helvetica,sans-Serif" font-size="10.00">Cpl::Container::MapItem</text>
</a>
</g>
</g>
<!-- Node4&#45;&gt;Node3 -->
<g id="edge3" class="edge"><title>Node4&#45;&gt;Node3</title>
<path fill="none" stroke="midnightblue" d="M739.032,-267.942C792.183,-262.205 864.131,-254.44 912.545,-249.215"/>
<polygon fill="midnightblue" stroke="midnightblue" points="738.568,-264.471 729.001,-269.024 739.319,-271.431 738.568,-264.471"/>
</g>
<!-- Node5 -->
<g id="node5" class="node"><title>Node5</title>
<g id="a_node5"><a xlink:href="class_cpl_1_1_container_1_1_dict_item.html" target="_top" xlink:title="This abstract class represents a item that can be contained in Dictionary.">
<polygon fill="white" stroke="black" points="326,-266 326,-285 447,-285 447,-266 326,-266"/>
<text text-anchor="middle" x="386.5" y="-273" font-family="Helvetica,sans-Serif" font-size="10.00">Cpl::Container::DictItem</text>
</a>
</g>
</g>
<!-- Node5&#45;&gt;Node4 -->
<g id="edge4" class="edge"><title>Node5&#45;&gt;Node4</title>
<path fill="none" stroke="midnightblue" d="M457.319,-275.5C503.374,-275.5 563.078,-275.5 606.993,-275.5"/>
<polygon fill="midnightblue" stroke="midnightblue" points="457.117,-272 447.117,-275.5 457.117,-279 457.117,-272"/>
</g>
<!-- Node6 -->
<g id="node6" class="node"><title>Node6</title>
<g id="a_node6"><a xlink:href="class_cpl_1_1_container_1_1_extended_item.html" target="_top" xlink:title="This class is used by the Container classes to implement a various types of DOUBLY linked containers.">
<polygon fill="white" stroke="black" points="141,-266 141,-285 286,-285 286,-266 141,-266"/>
<text text-anchor="middle" x="213.5" y="-273" font-family="Helvetica,sans-Serif" font-size="10.00">Cpl::Container::ExtendedItem</text>
</a>
</g>
</g>
<!-- Node6&#45;&gt;Node5 -->
<g id="edge5" class="edge"><title>Node6&#45;&gt;Node5</title>
<path fill="none" stroke="midnightblue" d="M296.047,-275.5C306.111,-275.5 316.248,-275.5 325.899,-275.5"/>
<polygon fill="midnightblue" stroke="midnightblue" points="296.029,-272 286.029,-275.5 296.029,-279 296.029,-272"/>
</g>
<!-- Node7 -->
<g id="node7" class="node"><title>Node7</title>
<g id="a_node7"><a xlink:href="class_cpl_1_1_container_1_1_item.html" target="_top" xlink:title="This class is used by the Container classes to implement a various types of singly linked containers.">
<polygon fill="white" stroke="black" points="0,-266 0,-285 104,-285 104,-266 0,-266"/>
<text text-anchor="middle" x="52" y="-273" font-family="Helvetica,sans-Serif" font-size="10.00">Cpl::Container::Item</text>
</a>
</g>
</g>
<!-- Node7&#45;&gt;Node6 -->
<g id="edge6" class="edge"><title>Node7&#45;&gt;Node6</title>
<path fill="none" stroke="midnightblue" d="M114.375,-275.5C123.061,-275.5 132.056,-275.5 140.915,-275.5"/>
<polygon fill="midnightblue" stroke="midnightblue" points="114.345,-272 104.345,-275.5 114.345,-279 114.345,-272"/>
</g>
<!-- Node8 -->
<g id="node8" class="node"><title>Node8</title>
<g id="a_node8"><a xlink:href="class_cpl_1_1_dm_1_1_model_database.html" target="_top" xlink:title="This concrete class implements a simple Model Database.">
<polygon fill="white" stroke="black" points="904,-159 904,-178 1029,-178 1029,-159 904,-159"/>
<text text-anchor="middle" x="966.5" y="-166" font-family="Helvetica,sans-Serif" font-size="10.00">Cpl::Dm::ModelDatabase</text>
</a>
</g>
</g>
<!-- Node8&#45;&gt;Node2 -->
<g id="edge7" class="edge"><title>Node8&#45;&gt;Node2</title>
<path fill="none" stroke="#9a32cd" stroke-dasharray="5,2" d="M1017.44,-156.537C1067.71,-144.495 1144.26,-126.159 1190.61,-115.055"/>
<polygon fill="#9a32cd" stroke="#9a32cd" points="1016.35,-153.198 1007.44,-158.932 1017.98,-160.006 1016.35,-153.198"/>
<text text-anchor="middle" x="1095.5" y="-149.5" font-family="Helvetica,sans-Serif" font-size="10.00"> m_modelDatabase</text>
</g>
<!-- Node9 -->
<g id="node9" class="node"><title>Node9</title>
<g id="a_node9"><a xlink:href="class_cpl_1_1_dm_1_1_model_database_api.html" target="_top" xlink:title="This class defines the basic operations that can be performed on a Model Base.">
<polygon fill="white" stroke="black" points="598,-228 598,-247 738,-247 738,-228 598,-228"/>
<text text-anchor="middle" x="668" y="-235" font-family="Helvetica,sans-Serif" font-size="10.00">Cpl::Dm::ModelDatabaseApi</text>
</a>
</g>
</g>
<!-- Node9&#45;&gt;Node8 -->
<g id="edge8" class="edge"><title>Node9&#45;&gt;Node8</title>
<path fill="none" stroke="midnightblue" d="M748.132,-227.814C788.085,-221.965 837.062,-213.322 880,-201.5 902.397,-195.334 927.057,-185.467 944.114,-178.127"/>
<polygon fill="midnightblue" stroke="midnightblue" points="747.58,-224.357 738.178,-229.241 748.574,-231.287 747.58,-224.357"/>
</g>
<!-- Node10 -->
<g id="node10" class="node"><title>Node10</title>
<g id="a_node10"><a xlink:href="class_cpl_1_1_container_1_1_map.html" target="_top" xlink:title=" ">
<polygon fill="white" stroke="black" points="605.5,-178.5 605.5,-208.5 730.5,-208.5 730.5,-178.5 605.5,-178.5"/>
<text text-anchor="start" x="613.5" y="-196.5" font-family="Helvetica,sans-Serif" font-size="10.00">Cpl::Container::Map</text>
<text text-anchor="middle" x="668" y="-185.5" font-family="Helvetica,sans-Serif" font-size="10.00">&lt; Cpl::Dm::ModelPoint &gt;</text>
</a>
</g>
</g>
<!-- Node10&#45;&gt;Node8 -->
<g id="edge9" class="edge"><title>Node10&#45;&gt;Node8</title>
<path fill="none" stroke="#9a32cd" stroke-dasharray="5,2" d="M740.855,-187.441C790.674,-183.241 856.33,-177.705 903.784,-173.704"/>
<polygon fill="#9a32cd" stroke="#9a32cd" points="740.466,-183.962 730.795,-188.29 741.054,-190.937 740.466,-183.962"/>
<text text-anchor="middle" x="818" y="-189.5" font-family="Helvetica,sans-Serif" font-size="10.00"> m_map</text>
</g>
<!-- Node11 -->
<g id="node11" class="node"><title>Node11</title>
<g id="a_node11"><a xlink:href="class_cpl_1_1_container_1_1_map.html" target="_top" xlink:title="This template class implements an Map using an AVL Binary tree (i.e.">
<polygon fill="white" stroke="black" points="335,-178.5 335,-208.5 438,-208.5 438,-178.5 335,-178.5"/>
<text text-anchor="start" x="343" y="-196.5" font-family="Helvetica,sans-Serif" font-size="10.00">Cpl::Container::Map</text>
<text text-anchor="middle" x="386.5" y="-185.5" font-family="Helvetica,sans-Serif" font-size="10.00">&lt; ITEM &gt;</text>
</a>
</g>
</g>
<!-- Node11&#45;&gt;Node10 -->
<g id="edge10" class="edge"><title>Node11&#45;&gt;Node10</title>
<path fill="none" stroke="orange" stroke-dasharray="5,2" d="M448.347,-193.5C494.819,-193.5 558.606,-193.5 605.29,-193.5"/>
<polygon fill="orange" stroke="orange" points="448.115,-190 438.115,-193.5 448.115,-197 448.115,-190"/>
<text text-anchor="middle" x="524" y="-196.5" font-family="Helvetica,sans-Serif" font-size="10.00"> &lt; Cpl::Dm::ModelPoint &gt;</text>
</g>
<!-- Node12 -->
<g id="node12" class="node"><title>Node12</title>
<g id="a_node12"><a xlink:href="class_cpl_1_1_system_1_1_mutex.html" target="_top" xlink:title="This mutex class defines the interface for a mutex that has &quot;recursive&quot; semantics.">
<polygon fill="white" stroke="black" points="616,-140 616,-159 720,-159 720,-140 616,-140"/>
<text text-anchor="middle" x="668" y="-147" font-family="Helvetica,sans-Serif" font-size="10.00">Cpl::System::Mutex</text>
</a>
</g>
</g>
<!-- Node12&#45;&gt;Node8 -->
<g id="edge11" class="edge"><title>Node12&#45;&gt;Node8</title>
<path fill="none" stroke="#9a32cd" stroke-dasharray="5,2" d="M730.378,-149.265C772.542,-149.589 829.758,-150.983 880,-155.5 889.571,-156.36 899.7,-157.603 909.51,-158.983"/>
<polygon fill="#9a32cd" stroke="#9a32cd" points="730.288,-145.765 720.268,-149.206 730.247,-152.765 730.288,-145.765"/>
<text text-anchor="middle" x="818" y="-158.5" font-family="Helvetica,sans-Serif" font-size="10.00"> m_lock</text>
</g>
<!-- Node13 -->
<g id="node13" class="node"><title>Node13</title>
<g id="a_node13"><a xlink:href="class_cpl_1_1_container_1_1_d_list.html" target="_top" xlink:title=" ">
<polygon fill="white" stroke="black" points="898,-90.5 898,-120.5 1035,-120.5 1035,-90.5 898,-90.5"/>
<text text-anchor="start" x="906" y="-108.5" font-family="Helvetica,sans-Serif" font-size="10.00">Cpl::Container::DList</text>
<text text-anchor="middle" x="966.5" y="-97.5" font-family="Helvetica,sans-Serif" font-size="10.00">&lt; Cpl::Dm::SubscriberApi &gt;</text>
</a>
</g>
</g>
<!-- Node13&#45;&gt;Node2 -->
<g id="edge12" class="edge"><title>Node13&#45;&gt;Node2</title>
<path fill="none" stroke="#9a32cd" stroke-dasharray="5,2" d="M1045.36,-105.5C1080.2,-105.5 1121.1,-105.5 1155.59,-105.5"/>
<polygon fill="#9a32cd" stroke="#9a32cd" points="1045.23,-102 1035.23,-105.5 1045.23,-109 1045.23,-102"/>
<text text-anchor="middle" x="1095.5" y="-108.5" font-family="Helvetica,sans-Serif" font-size="10.00"> m_subscribers</text>
</g>
<!-- Node14 -->
<g id="node14" class="node"><title>Node14</title>
<g id="a_node14"><a xlink:href="class_cpl_1_1_container_1_1_d_list.html" target="_top" xlink:title="This template class implements a Doubly linked list which maintains the ordering imposed on it by the...">
<polygon fill="white" stroke="black" points="614.5,-90.5 614.5,-120.5 721.5,-120.5 721.5,-90.5 614.5,-90.5"/>
<text text-anchor="start" x="622.5" y="-108.5" font-family="Helvetica,sans-Serif" font-size="10.00">Cpl::Container::DList</text>
<text text-anchor="middle" x="668" y="-97.5" font-family="Helvetica,sans-Serif" font-size="10.00">&lt; ITEM &gt;</text>
</a>
</g>
</g>
<!-- Node14&#45;&gt;Node13 -->
<g id="edge13" class="edge"><title>Node14&#45;&gt;Node13</title>
<path fill="none" stroke="orange" stroke-dasharray="5,2" d="M731.774,-105.5C780.532,-105.5 848.026,-105.5 897.954,-105.5"/>
<polygon fill="orange" stroke="orange" points="731.667,-102 721.667,-105.5 731.667,-109 731.667,-102"/>
<text text-anchor="middle" x="818" y="-108.5" font-family="Helvetica,sans-Serif" font-size="10.00"> &lt; Cpl::Dm::SubscriberApi &gt;</text>
</g>
<!-- Node15 -->
<g id="node15" class="node"><title>Node15</title>
<g id="a_node15"><a xlink:href="class_cpl_1_1_dm_1_1_static_info.html" target="_top" xlink:title="This class defines an interface for a Model Point to store its constant/static data in program memory...">
<polygon fill="white" stroke="black" points="916.5,-51 916.5,-70 1016.5,-70 1016.5,-51 916.5,-51"/>
<text text-anchor="middle" x="966.5" y="-58" font-family="Helvetica,sans-Serif" font-size="10.00">Cpl::Dm::StaticInfo</text>
</a>
</g>
</g>
<!-- Node15&#45;&gt;Node2 -->
<g id="edge14" class="edge"><title>Node15&#45;&gt;Node2</title>
<path fill="none" stroke="#9a32cd" stroke-dasharray="5,2" d="M1026.71,-70.6317C1071.04,-78.2168 1131.28,-88.5226 1174.75,-95.9607"/>
<polygon fill="#9a32cd" stroke="#9a32cd" points="1027.11,-67.1481 1016.66,-68.9114 1025.93,-74.0478 1027.11,-67.1481"/>
<text text-anchor="middle" x="1095.5" y="-93.5" font-family="Helvetica,sans-Serif" font-size="10.00"> m_staticInfo</text>
</g>
<!-- Node16 -->
<g id="node16" class="node"><title>Node16</title>
<g id="a_node16"><a xlink:href="class_cpl_1_1_container_1_1_key_literal_string.html" target="_top" xlink:title="This class provides a &#39;Key&#39; wrapper for a C string literal.">
<polygon fill="white" stroke="black" points="604,-41.5 604,-71.5 732,-71.5 732,-41.5 604,-41.5"/>
<text text-anchor="start" x="612" y="-59.5" font-family="Helvetica,sans-Serif" font-size="10.00">Cpl::Container::KeyLiteral</text>
<text text-anchor="middle" x="668" y="-48.5" font-family="Helvetica,sans-Serif" font-size="10.00">String</text>
</a>
</g>
</g>
<!-- Node16&#45;&gt;Node15 -->
<g id="edge15" class="edge"><title>Node16&#45;&gt;Node15</title>
<path fill="none" stroke="midnightblue" d="M742.469,-57.4911C796.575,-58.2211 868.686,-59.1939 916.069,-59.8331"/>
<polygon fill="midnightblue" stroke="midnightblue" points="742.289,-53.9885 732.243,-57.3532 742.195,-60.9879 742.289,-53.9885"/>
</g>
<!-- Node17 -->
<g id="node17" class="node"><title>Node17</title>
<g id="a_node17"><a xlink:href="class_cpl_1_1_container_1_1_key_string_buffer.html" target="_top" xlink:title="This class provides a &#39;Key&#39; wrapper for a array of Character of length N, i.e.">
<polygon fill="white" stroke="black" points="323,-41.5 323,-71.5 450,-71.5 450,-41.5 323,-41.5"/>
<text text-anchor="start" x="331" y="-59.5" font-family="Helvetica,sans-Serif" font-size="10.00">Cpl::Container::KeyString</text>
<text text-anchor="middle" x="386.5" y="-48.5" font-family="Helvetica,sans-Serif" font-size="10.00">Buffer</text>
</a>
</g>
</g>
<!-- Node17&#45;&gt;Node16 -->
<g id="edge16" class="edge"><title>Node17&#45;&gt;Node16</title>
<path fill="none" stroke="midnightblue" d="M460.373,-56.5C504.769,-56.5 560.948,-56.5 603.517,-56.5"/>
<polygon fill="midnightblue" stroke="midnightblue" points="460.225,-53.0001 450.225,-56.5 460.225,-60.0001 460.225,-53.0001"/>
</g>
<!-- Node18 -->
<g id="node18" class="node"><title>Node18</title>
<g id="a_node18"><a xlink:href="class_cpl_1_1_container_1_1_key.html" target="_top" xlink:title="This abstract class defines the interface that a contained object must support if it has comparable k...">
<polygon fill="white" stroke="black" points="163,-47 163,-66 264,-66 264,-47 163,-47"/>
<text text-anchor="middle" x="213.5" y="-54" font-family="Helvetica,sans-Serif" font-size="10.00">Cpl::Container::Key</text>
</a>
</g>
</g>
<!-- Node18&#45;&gt;Node17 -->
<g id="edge17" class="edge"><title>Node18&#45;&gt;Node17</title>
<path fill="none" stroke="midnightblue" d="M274.481,-56.5C290.103,-56.5 306.976,-56.5 322.737,-56.5"/>
<polygon fill="midnightblue" stroke="midnightblue" points="274.42,-53.0001 264.42,-56.5 274.42,-60.0001 274.42,-53.0001"/>
</g>
<!-- Node19 -->
<g id="node19" class="node"><title>Node19</title>
<g id="a_node19"><a xlink:href="namespace_storm_1_1_type.html#struct_storm_1_1_type_1_1_comfort_config___t" target="_top" xlink:title="The &#39;comfort&#39; parameters for the system.">
<polygon fill="white" stroke="black" points="1156.5,-32 1156.5,-51 1306.5,-51 1306.5,-32 1156.5,-32"/>
<text text-anchor="middle" x="1231.5" y="-39" font-family="Helvetica,sans-Serif" font-size="10.00">Storm::Type::ComfortConfig_T</text>
</a>
</g>
</g>
<!-- Node19&#45;&gt;Node1 -->
<g id="edge18" class="edge"><title>Node19&#45;&gt;Node1</title>
<path fill="none" stroke="#9a32cd" stroke-dasharray="5,2" d="M1300.08,-52.6346C1329.83,-57.5358 1364.42,-63.2358 1392.98,-67.941"/>
<polygon fill="#9a32cd" stroke="#9a32cd" points="1300.63,-49.178 1290.19,-51.0057 1299.49,-56.0849 1300.63,-49.178"/>
<text text-anchor="middle" x="1343" y="-65.5" font-family="Helvetica,sans-Serif" font-size="10.00"> m_data</text>
</g>
<!-- Node20 -->
<g id="node20" class="node"><title>Node20</title>
<g id="a_node20"><a xlink:href="namespace_storm_1_1_type.html#struct_storm_1_1_type_1_1_comfort_stage_parameters___t" target="_top" xlink:title="The &#39;comfort&#39; parameters per stage.">
<polygon fill="white" stroke="black" points="898,-0.5 898,-30.5 1035,-30.5 1035,-0.5 898,-0.5"/>
<text text-anchor="start" x="906" y="-18.5" font-family="Helvetica,sans-Serif" font-size="10.00">Storm::Type::ComfortStage</text>
<text text-anchor="middle" x="966.5" y="-7.5" font-family="Helvetica,sans-Serif" font-size="10.00">Parameters_T</text>
</a>
</g>
</g>
<!-- Node20&#45;&gt;Node19 -->
<g id="edge19" class="edge"><title>Node20&#45;&gt;Node19</title>
<path fill="none" stroke="#9a32cd" stroke-dasharray="5,2" d="M1045.52,-11.745C1074.66,-11.447 1107.96,-12.422 1138,-16.5 1160.09,-19.4983 1184.4,-26.2074 1202.55,-31.9211"/>
<polygon fill="#9a32cd" stroke="#9a32cd" points="1045.35,-8.24714 1035.4,-11.9004 1045.46,-15.2463 1045.35,-8.24714"/>
<text text-anchor="middle" x="1095.5" y="-41.5" font-family="Helvetica,sans-Serif" font-size="10.00"> indoorHeating</text>
<text text-anchor="middle" x="1095.5" y="-30.5" font-family="Helvetica,sans-Serif" font-size="10.00">compressorHeating</text>
<text text-anchor="middle" x="1095.5" y="-19.5" font-family="Helvetica,sans-Serif" font-size="10.00">compressorCooling</text>
</g>
</g>
</svg>
