<?xml version="1.0" encoding="UTF-8" standalone="no"?>
<!DOCTYPE svg PUBLIC "-//W3C//DTD SVG 1.1//EN"
 "http://www.w3.org/Graphics/SVG/1.1/DTD/svg11.dtd">
<!-- Generated by graphviz version 2.38.0 (20140413.2041)
 -->
<!-- Title: Cpl::Dm::Mp::Numeric&lt; ELEMTYPE, MPTYPE &gt; Pages: 1 -->
<svg width="1514pt" height="494pt"
 viewBox="0.00 0.00 1514.00 494.33" xmlns="http://www.w3.org/2000/svg" xmlns:xlink="http://www.w3.org/1999/xlink">
<g id="graph0" class="graph" transform="scale(1 1) rotate(0) translate(4 490.327)">
<title>Cpl::Dm::Mp::Numeric&lt; ELEMTYPE, MPTYPE &gt;</title>
<polygon fill="white" stroke="none" points="-4,4 -4,-490.327 1510,-490.327 1510,4 -4,4"/>
<!-- Node1 -->
<g id="node1" class="node"><title>Node1</title>
<g id="a_node1"><a xlink:title="This template class provides a mostly concrete implementation for a Model Point who&#39;s data is a C num...">
<polygon fill="#bfbfbf" stroke="black" points="473,-214.5 473,-244.5 608,-244.5 608,-214.5 473,-214.5"/>
<text text-anchor="start" x="481" y="-232.5" font-family="Helvetica,sans-Serif" font-size="10.00">Cpl::Dm::Mp::Numeric</text>
<text text-anchor="middle" x="540.5" y="-221.5" font-family="Helvetica,sans-Serif" font-size="10.00">&lt; ELEMTYPE, MPTYPE &gt;</text>
</a>
</g>
</g>
<!-- Node5 -->
<g id="node5" class="node"><title>Node5</title>
<g id="a_node5"><a xlink:href="class_cpl_1_1_dm_1_1_mp_1_1_bit_array__.html" target="_top" xlink:title=" ">
<polygon fill="white" stroke="black" points="1220,-404.5 1220,-434.5 1346,-434.5 1346,-404.5 1220,-404.5"/>
<text text-anchor="start" x="1228" y="-422.5" font-family="Helvetica,sans-Serif" font-size="10.00">Cpl::Dm::Mp::BitArray</text>
<text text-anchor="middle" x="1283" y="-411.5" font-family="Helvetica,sans-Serif" font-size="10.00">_&lt; uint16_t, BitArray16 &gt;</text>
</a>
</g>
</g>
<!-- Node1&#45;&gt;Node5 -->
<g id="edge4" class="edge"><title>Node1&#45;&gt;Node5</title>
<path fill="none" stroke="midnightblue" d="M545.377,-254.723C552.989,-294.746 573.935,-371.995 626,-408.5 816.725,-542.227 1121.35,-469.324 1236.19,-434.579"/>
<polygon fill="midnightblue" stroke="midnightblue" points="548.795,-253.951 543.606,-244.714 541.902,-255.171 548.795,-253.951"/>
</g>
<!-- Node7 -->
<g id="node7" class="node"><title>Node7</title>
<g id="a_node7"><a xlink:href="class_cpl_1_1_dm_1_1_mp_1_1_pointer__.html" target="_top" xlink:title=" ">
<polygon fill="white" stroke="black" points="1229,-235.5 1229,-265.5 1337,-265.5 1337,-235.5 1229,-235.5"/>
<text text-anchor="start" x="1237" y="-253.5" font-family="Helvetica,sans-Serif" font-size="10.00">Cpl::Dm::Mp::Pointer</text>
<text text-anchor="middle" x="1283" y="-242.5" font-family="Helvetica,sans-Serif" font-size="10.00">_&lt; Void &gt;</text>
</a>
</g>
</g>
<!-- Node1&#45;&gt;Node7 -->
<g id="edge6" class="edge"><title>Node1&#45;&gt;Node7</title>
<path fill="none" stroke="midnightblue" d="M564.823,-207.456C580.903,-193.342 603.381,-175.648 626,-164.5 805.82,-75.8729 883.07,-79.022 1076,-133.5 1151.21,-154.736 1228.25,-208.898 1262.98,-235.414"/>
<polygon fill="midnightblue" stroke="midnightblue" points="562.13,-205.17 557.03,-214.457 566.808,-210.377 562.13,-205.17"/>
</g>
<!-- Node9 -->
<g id="node9" class="node"><title>Node9</title>
<g id="a_node9"><a xlink:href="class_cpl_1_1_dm_1_1_mp_1_1_numeric.html" target="_top" xlink:title=" ">
<polygon fill="white" stroke="black" points="765,-382.5 765,-412.5 899,-412.5 899,-382.5 765,-382.5"/>
<text text-anchor="start" x="773" y="-400.5" font-family="Helvetica,sans-Serif" font-size="10.00">Cpl::Dm::Mp::Numeric</text>
<text text-anchor="middle" x="832" y="-389.5" font-family="Helvetica,sans-Serif" font-size="10.00">&lt; WORDSIZE, MPTYPE &gt;</text>
</a>
</g>
</g>
<!-- Node1&#45;&gt;Node9 -->
<g id="edge8" class="edge"><title>Node1&#45;&gt;Node9</title>
<path fill="none" stroke="orange" stroke-dasharray="5,2" d="M551.471,-254.184C564.323,-282.725 589.452,-328.922 626,-353.5 666.929,-381.024 721.963,-391.739 764.703,-395.726"/>
<polygon fill="orange" stroke="orange" points="554.63,-252.67 547.439,-244.889 548.208,-255.456 554.63,-252.67"/>
<text text-anchor="middle" x="686.5" y="-396.5" font-family="Helvetica,sans-Serif" font-size="10.00"> &lt; WORDSIZE, MPTYPE &gt;</text>
</g>
<!-- Node11 -->
<g id="node11" class="node"><title>Node11</title>
<g id="a_node11"><a xlink:href="class_cpl_1_1_dm_1_1_mp_1_1_numeric.html" target="_top" xlink:title=" ">
<polygon fill="white" stroke="black" points="775.5,-284.5 775.5,-314.5 888.5,-314.5 888.5,-284.5 775.5,-284.5"/>
<text text-anchor="start" x="783.5" y="-302.5" font-family="Helvetica,sans-Serif" font-size="10.00">Cpl::Dm::Mp::Numeric</text>
<text text-anchor="middle" x="832" y="-291.5" font-family="Helvetica,sans-Serif" font-size="10.00">&lt; double, Double &gt;</text>
</a>
</g>
</g>
<!-- Node1&#45;&gt;Node11 -->
<g id="edge11" class="edge"><title>Node1&#45;&gt;Node11</title>
<path fill="none" stroke="orange" stroke-dasharray="5,2" d="M589.855,-248.055C601.579,-252.167 614.151,-256.26 626,-259.5 675.843,-273.129 733.715,-283.979 775.235,-290.921"/>
<polygon fill="orange" stroke="orange" points="590.835,-244.689 580.241,-244.615 588.477,-251.279 590.835,-244.689"/>
<text text-anchor="middle" x="686.5" y="-288.5" font-family="Helvetica,sans-Serif" font-size="10.00"> &lt; double, Double &gt;</text>
</g>
<!-- Node13 -->
<g id="node13" class="node"><title>Node13</title>
<g id="a_node13"><a xlink:href="class_cpl_1_1_dm_1_1_mp_1_1_numeric.html" target="_top" xlink:title=" ">
<polygon fill="white" stroke="black" points="775.5,-235.5 775.5,-265.5 888.5,-265.5 888.5,-235.5 775.5,-235.5"/>
<text text-anchor="start" x="783.5" y="-253.5" font-family="Helvetica,sans-Serif" font-size="10.00">Cpl::Dm::Mp::Numeric</text>
<text text-anchor="middle" x="832" y="-242.5" font-family="Helvetica,sans-Serif" font-size="10.00">&lt; float, Float &gt;</text>
</a>
</g>
</g>
<!-- Node1&#45;&gt;Node13 -->
<g id="edge13" class="edge"><title>Node1&#45;&gt;Node13</title>
<path fill="none" stroke="orange" stroke-dasharray="5,2" d="M618.279,-235.069C667.647,-238.651 730.662,-243.222 775.256,-246.456"/>
<polygon fill="orange" stroke="orange" points="618.508,-231.577 608.281,-234.344 618.001,-238.559 618.508,-231.577"/>
<text text-anchor="middle" x="686.5" y="-247.5" font-family="Helvetica,sans-Serif" font-size="10.00"> &lt; float, Float &gt;</text>
</g>
<!-- Node15 -->
<g id="node15" class="node"><title>Node15</title>
<g id="a_node15"><a xlink:href="class_cpl_1_1_dm_1_1_mp_1_1_numeric.html" target="_top" xlink:title=" ">
<polygon fill="white" stroke="black" points="775.5,-186.5 775.5,-216.5 888.5,-216.5 888.5,-186.5 775.5,-186.5"/>
<text text-anchor="start" x="783.5" y="-204.5" font-family="Helvetica,sans-Serif" font-size="10.00">Cpl::Dm::Mp::Numeric</text>
<text text-anchor="middle" x="832" y="-193.5" font-family="Helvetica,sans-Serif" font-size="10.00">&lt; int32_t, Int32 &gt;</text>
</a>
</g>
</g>
<!-- Node1&#45;&gt;Node15 -->
<g id="edge15" class="edge"><title>Node1&#45;&gt;Node15</title>
<path fill="none" stroke="orange" stroke-dasharray="5,2" d="M618.279,-222.074C667.647,-217.299 730.662,-211.205 775.256,-206.891"/>
<polygon fill="orange" stroke="orange" points="617.897,-218.595 608.281,-223.041 618.571,-225.562 617.897,-218.595"/>
<text text-anchor="middle" x="686.5" y="-224.5" font-family="Helvetica,sans-Serif" font-size="10.00"> &lt; int32_t, Int32 &gt;</text>
</g>
<!-- Node17 -->
<g id="node17" class="node"><title>Node17</title>
<g id="a_node17"><a xlink:href="class_cpl_1_1_dm_1_1_mp_1_1_numeric.html" target="_top" xlink:title=" ">
<polygon fill="white" stroke="black" points="775.5,-137.5 775.5,-167.5 888.5,-167.5 888.5,-137.5 775.5,-137.5"/>
<text text-anchor="start" x="783.5" y="-155.5" font-family="Helvetica,sans-Serif" font-size="10.00">Cpl::Dm::Mp::Numeric</text>
<text text-anchor="middle" x="832" y="-144.5" font-family="Helvetica,sans-Serif" font-size="10.00">&lt; int64_t, Int64 &gt;</text>
</a>
</g>
</g>
<!-- Node1&#45;&gt;Node17 -->
<g id="edge17" class="edge"><title>Node1&#45;&gt;Node17</title>
<path fill="none" stroke="orange" stroke-dasharray="5,2" d="M584.429,-210.53C597.595,-205.175 612.241,-199.676 626,-195.5 675.587,-180.451 733.488,-168.832 775.084,-161.488"/>
<polygon fill="orange" stroke="orange" points="583.034,-207.319 575.137,-214.383 585.715,-213.785 583.034,-207.319"/>
<text text-anchor="middle" x="686.5" y="-198.5" font-family="Helvetica,sans-Serif" font-size="10.00"> &lt; int64_t, Int64 &gt;</text>
</g>
<!-- Node19 -->
<g id="node19" class="node"><title>Node19</title>
<g id="a_node19"><a xlink:href="class_cpl_1_1_dm_1_1_mp_1_1_numeric.html" target="_top" xlink:title=" ">
<polygon fill="white" stroke="black" points="775.5,-333.5 775.5,-363.5 888.5,-363.5 888.5,-333.5 775.5,-333.5"/>
<text text-anchor="start" x="783.5" y="-351.5" font-family="Helvetica,sans-Serif" font-size="10.00">Cpl::Dm::Mp::Numeric</text>
<text text-anchor="middle" x="832" y="-340.5" font-family="Helvetica,sans-Serif" font-size="10.00">&lt; size_t, MPTYPE &gt;</text>
</a>
</g>
</g>
<!-- Node1&#45;&gt;Node19 -->
<g id="edge19" class="edge"><title>Node1&#45;&gt;Node19</title>
<path fill="none" stroke="orange" stroke-dasharray="5,2" d="M562.442,-252.017C578.401,-267.86 601.708,-288.331 626,-300.5 673.225,-324.157 732.452,-336.401 775.085,-342.578"/>
<polygon fill="orange" stroke="orange" points="564.729,-249.351 555.225,-244.668 559.735,-254.256 564.729,-249.351"/>
<text text-anchor="middle" x="686.5" y="-341.5" font-family="Helvetica,sans-Serif" font-size="10.00"> &lt; size_t, MPTYPE &gt;</text>
</g>
<!-- Node21 -->
<g id="node21" class="node"><title>Node21</title>
<g id="a_node21"><a xlink:href="class_cpl_1_1_dm_1_1_mp_1_1_numeric.html" target="_top" xlink:title=" ">
<polygon fill="white" stroke="black" points="775.5,-49.5 775.5,-79.5 888.5,-79.5 888.5,-49.5 775.5,-49.5"/>
<text text-anchor="start" x="783.5" y="-67.5" font-family="Helvetica,sans-Serif" font-size="10.00">Cpl::Dm::Mp::Numeric</text>
<text text-anchor="middle" x="832" y="-56.5" font-family="Helvetica,sans-Serif" font-size="10.00">&lt; uint32_t, Uint32 &gt;</text>
</a>
</g>
</g>
<!-- Node1&#45;&gt;Node21 -->
<g id="edge22" class="edge"><title>Node1&#45;&gt;Node21</title>
<path fill="none" stroke="orange" stroke-dasharray="5,2" d="M548.226,-204.272C558.696,-170.445 582.373,-111.419 626,-83.5 670.256,-55.1787 731.28,-53.1178 775.224,-56.4972"/>
<polygon fill="orange" stroke="orange" points="544.741,-203.717 545.282,-214.298 551.457,-205.689 544.741,-203.717"/>
<text text-anchor="middle" x="686.5" y="-86.5" font-family="Helvetica,sans-Serif" font-size="10.00"> &lt; uint32_t, Uint32 &gt;</text>
</g>
<!-- Node23 -->
<g id="node23" class="node"><title>Node23</title>
<g id="a_node23"><a xlink:href="class_cpl_1_1_dm_1_1_mp_1_1_numeric.html" target="_top" xlink:title=" ">
<polygon fill="white" stroke="black" points="775.5,-0.5 775.5,-30.5 888.5,-30.5 888.5,-0.5 775.5,-0.5"/>
<text text-anchor="start" x="783.5" y="-18.5" font-family="Helvetica,sans-Serif" font-size="10.00">Cpl::Dm::Mp::Numeric</text>
<text text-anchor="middle" x="832" y="-7.5" font-family="Helvetica,sans-Serif" font-size="10.00">&lt; uint64_t, Uint64 &gt;</text>
</a>
</g>
</g>
<!-- Node1&#45;&gt;Node23 -->
<g id="edge24" class="edge"><title>Node1&#45;&gt;Node23</title>
<path fill="none" stroke="orange" stroke-dasharray="5,2" d="M544.843,-204.281C551.803,-162.694 571.979,-80.3742 626,-40.5 668.693,-8.98705 730.539,-5.55524 775.123,-8.26827"/>
<polygon fill="orange" stroke="orange" points="541.348,-203.977 543.279,-214.394 548.266,-205.047 541.348,-203.977"/>
<text text-anchor="middle" x="686.5" y="-43.5" font-family="Helvetica,sans-Serif" font-size="10.00"> &lt; uint64_t, Uint64 &gt;</text>
</g>
<!-- Node2 -->
<g id="node2" class="node"><title>Node2</title>
<g id="a_node2"><a xlink:href="class_cpl_1_1_dm_1_1_model_point_common__.html" target="_top" xlink:title="This concrete class provide common infrastructure for a Model Point.">
<polygon fill="white" stroke="black" points="285,-220 285,-239 436,-239 436,-220 285,-220"/>
<text text-anchor="middle" x="360.5" y="-227" font-family="Helvetica,sans-Serif" font-size="10.00">Cpl::Dm::ModelPointCommon_</text>
</a>
</g>
</g>
<!-- Node2&#45;&gt;Node1 -->
<g id="edge1" class="edge"><title>Node2&#45;&gt;Node1</title>
<path fill="none" stroke="midnightblue" d="M446.267,-229.5C455.209,-229.5 464.209,-229.5 472.903,-229.5"/>
<polygon fill="midnightblue" stroke="midnightblue" points="446.214,-226 436.214,-229.5 446.214,-233 446.214,-226"/>
</g>
<!-- Node3 -->
<g id="node3" class="node"><title>Node3</title>
<g id="a_node3"><a xlink:href="class_cpl_1_1_dm_1_1_model_point.html" target="_top" xlink:title="This mostly abstract class defines the interface for a Model Point.">
<polygon fill="white" stroke="black" points="141,-220 141,-239 248,-239 248,-220 141,-220"/>
<text text-anchor="middle" x="194.5" y="-227" font-family="Helvetica,sans-Serif" font-size="10.00">Cpl::Dm::ModelPoint</text>
</a>
</g>
</g>
<!-- Node3&#45;&gt;Node2 -->
<g id="edge2" class="edge"><title>Node3&#45;&gt;Node2</title>
<path fill="none" stroke="midnightblue" d="M258.561,-229.5C267.118,-229.5 275.967,-229.5 284.706,-229.5"/>
<polygon fill="midnightblue" stroke="midnightblue" points="258.293,-226 248.293,-229.5 258.293,-233 258.293,-226"/>
</g>
<!-- Node4 -->
<g id="node4" class="node"><title>Node4</title>
<g id="a_node4"><a xlink:href="class_cpl_1_1_container_1_1_item.html" target="_top" xlink:title="This class is used by the Container classes to implement a various types of singly linked containers.">
<polygon fill="white" stroke="black" points="0,-220 0,-239 104,-239 104,-220 0,-220"/>
<text text-anchor="middle" x="52" y="-227" font-family="Helvetica,sans-Serif" font-size="10.00">Cpl::Container::Item</text>
</a>
</g>
</g>
<!-- Node4&#45;&gt;Node3 -->
<g id="edge3" class="edge"><title>Node4&#45;&gt;Node3</title>
<path fill="none" stroke="midnightblue" d="M114.339,-229.5C123.146,-229.5 132.143,-229.5 140.764,-229.5"/>
<polygon fill="midnightblue" stroke="midnightblue" points="114.121,-226 104.121,-229.5 114.121,-233 114.121,-226"/>
</g>
<!-- Node6 -->
<g id="node6" class="node"><title>Node6</title>
<g id="a_node6"><a xlink:href="class_cpl_1_1_dm_1_1_mp_1_1_bit_array16.html" target="_top" xlink:title="This template class provides a concrete implementation for a Point who&#39;s data is a a bit array of N b...">
<polygon fill="white" stroke="black" points="1383,-410 1383,-429 1506,-429 1506,-410 1383,-410"/>
<text text-anchor="middle" x="1444.5" y="-417" font-family="Helvetica,sans-Serif" font-size="10.00">Cpl::Dm::Mp::BitArray16</text>
</a>
</g>
</g>
<!-- Node5&#45;&gt;Node6 -->
<g id="edge5" class="edge"><title>Node5&#45;&gt;Node6</title>
<path fill="none" stroke="midnightblue" d="M1356.13,-419.5C1365.06,-419.5 1374.12,-419.5 1382.86,-419.5"/>
<polygon fill="midnightblue" stroke="midnightblue" points="1356.12,-416 1346.12,-419.5 1356.12,-423 1356.12,-416"/>
</g>
<!-- Node8 -->
<g id="node8" class="node"><title>Node8</title>
<g id="a_node8"><a xlink:href="class_cpl_1_1_dm_1_1_mp_1_1_void.html" target="_top" xlink:title="This class provides a concrete implementation for a Point who&#39;s data is a void pointer.">
<polygon fill="white" stroke="black" points="1396,-241 1396,-260 1493,-260 1493,-241 1396,-241"/>
<text text-anchor="middle" x="1444.5" y="-248" font-family="Helvetica,sans-Serif" font-size="10.00">Cpl::Dm::Mp::Void</text>
</a>
</g>
</g>
<!-- Node7&#45;&gt;Node8 -->
<g id="edge7" class="edge"><title>Node7&#45;&gt;Node8</title>
<path fill="none" stroke="midnightblue" d="M1347.56,-250.5C1363.71,-250.5 1380.79,-250.5 1395.99,-250.5"/>
<polygon fill="midnightblue" stroke="midnightblue" points="1347.11,-247 1337.11,-250.5 1347.11,-254 1347.11,-247"/>
</g>
<!-- Node10 -->
<g id="node10" class="node"><title>Node10</title>
<g id="a_node10"><a xlink:href="class_cpl_1_1_dm_1_1_mp_1_1_bit_array__.html" target="_top" xlink:title="This template class extends the Numeric&lt;&gt; class to provide bit operation on the numeric value.">
<polygon fill="white" stroke="black" points="936,-382.5 936,-412.5 1076,-412.5 1076,-382.5 936,-382.5"/>
<text text-anchor="start" x="944" y="-400.5" font-family="Helvetica,sans-Serif" font-size="10.00">Cpl::Dm::Mp::BitArray</text>
<text text-anchor="middle" x="1006" y="-389.5" font-family="Helvetica,sans-Serif" font-size="10.00">_&lt; WORDSIZE, MPTYPE &gt;</text>
</a>
</g>
</g>
<!-- Node9&#45;&gt;Node10 -->
<g id="edge9" class="edge"><title>Node9&#45;&gt;Node10</title>
<path fill="none" stroke="midnightblue" d="M909.268,-397.5C918.081,-397.5 927.033,-397.5 935.746,-397.5"/>
<polygon fill="midnightblue" stroke="midnightblue" points="909.008,-394 899.008,-397.5 909.008,-401 909.008,-394"/>
</g>
<!-- Node10&#45;&gt;Node5 -->
<g id="edge10" class="edge"><title>Node10&#45;&gt;Node5</title>
<path fill="none" stroke="orange" stroke-dasharray="5,2" d="M1086.09,-403.827C1128.64,-407.231 1180.36,-411.369 1219.98,-414.538"/>
<polygon fill="orange" stroke="orange" points="1086.29,-400.332 1076.04,-403.023 1085.73,-407.31 1086.29,-400.332"/>
<text text-anchor="middle" x="1148" y="-416.5" font-family="Helvetica,sans-Serif" font-size="10.00"> &lt; uint16_t, BitArray16 &gt;</text>
</g>
<!-- Node12 -->
<g id="node12" class="node"><title>Node12</title>
<g id="a_node12"><a xlink:href="class_cpl_1_1_dm_1_1_mp_1_1_double.html" target="_top" xlink:title="This class provides a concrete implementation for a Point who&#39;s data is a double.">
<polygon fill="white" stroke="black" points="952.5,-290 952.5,-309 1059.5,-309 1059.5,-290 952.5,-290"/>
<text text-anchor="middle" x="1006" y="-297" font-family="Helvetica,sans-Serif" font-size="10.00">Cpl::Dm::Mp::Double</text>
</a>
</g>
</g>
<!-- Node11&#45;&gt;Node12 -->
<g id="edge12" class="edge"><title>Node11&#45;&gt;Node12</title>
<path fill="none" stroke="midnightblue" d="M899.071,-299.5C916.715,-299.5 935.543,-299.5 952.357,-299.5"/>
<polygon fill="midnightblue" stroke="midnightblue" points="898.844,-296 888.843,-299.5 898.843,-303 898.844,-296"/>
</g>
<!-- Node14 -->
<g id="node14" class="node"><title>Node14</title>
<g id="a_node14"><a xlink:href="class_cpl_1_1_dm_1_1_mp_1_1_float.html" target="_top" xlink:title="This class provides a concrete implementation for a Point who&#39;s data is a float.">
<polygon fill="white" stroke="black" points="956.5,-241 956.5,-260 1055.5,-260 1055.5,-241 956.5,-241"/>
<text text-anchor="middle" x="1006" y="-248" font-family="Helvetica,sans-Serif" font-size="10.00">Cpl::Dm::Mp::Float</text>
</a>
</g>
</g>
<!-- Node13&#45;&gt;Node14 -->
<g id="edge14" class="edge"><title>Node13&#45;&gt;Node14</title>
<path fill="none" stroke="midnightblue" d="M898.978,-250.5C918.069,-250.5 938.553,-250.5 956.378,-250.5"/>
<polygon fill="midnightblue" stroke="midnightblue" points="898.844,-247 888.843,-250.5 898.843,-254 898.844,-247"/>
</g>
<!-- Node16 -->
<g id="node16" class="node"><title>Node16</title>
<g id="a_node16"><a xlink:href="class_cpl_1_1_dm_1_1_mp_1_1_int32.html" target="_top" xlink:title="This class provides a concrete implementation for a Point who&#39;s data is a int32_t.">
<polygon fill="white" stroke="black" points="956.5,-192 956.5,-211 1055.5,-211 1055.5,-192 956.5,-192"/>
<text text-anchor="middle" x="1006" y="-199" font-family="Helvetica,sans-Serif" font-size="10.00">Cpl::Dm::Mp::Int32</text>
</a>
</g>
</g>
<!-- Node15&#45;&gt;Node16 -->
<g id="edge16" class="edge"><title>Node15&#45;&gt;Node16</title>
<path fill="none" stroke="midnightblue" d="M898.978,-201.5C918.069,-201.5 938.553,-201.5 956.378,-201.5"/>
<polygon fill="midnightblue" stroke="midnightblue" points="898.844,-198 888.843,-201.5 898.843,-205 898.844,-198"/>
</g>
<!-- Node18 -->
<g id="node18" class="node"><title>Node18</title>
<g id="a_node18"><a xlink:href="class_cpl_1_1_dm_1_1_mp_1_1_int64.html" target="_top" xlink:title="This class provides a concrete implementation for a Point who&#39;s data is a int64_t.">
<polygon fill="white" stroke="black" points="956.5,-143 956.5,-162 1055.5,-162 1055.5,-143 956.5,-143"/>
<text text-anchor="middle" x="1006" y="-150" font-family="Helvetica,sans-Serif" font-size="10.00">Cpl::Dm::Mp::Int64</text>
</a>
</g>
</g>
<!-- Node17&#45;&gt;Node18 -->
<g id="edge18" class="edge"><title>Node17&#45;&gt;Node18</title>
<path fill="none" stroke="midnightblue" d="M898.978,-152.5C918.069,-152.5 938.553,-152.5 956.378,-152.5"/>
<polygon fill="midnightblue" stroke="midnightblue" points="898.844,-149 888.843,-152.5 898.843,-156 898.844,-149"/>
</g>
<!-- Node20 -->
<g id="node20" class="node"><title>Node20</title>
<g id="a_node20"><a xlink:href="class_cpl_1_1_dm_1_1_mp_1_1_pointer__.html" target="_top" xlink:title="This template class extends the implementation of Numeric&lt;&gt; class to support the pointers instead of ...">
<polygon fill="white" stroke="black" points="952,-333.5 952,-363.5 1060,-363.5 1060,-333.5 952,-333.5"/>
<text text-anchor="start" x="960" y="-351.5" font-family="Helvetica,sans-Serif" font-size="10.00">Cpl::Dm::Mp::Pointer</text>
<text text-anchor="middle" x="1006" y="-340.5" font-family="Helvetica,sans-Serif" font-size="10.00">_&lt; MPTYPE &gt;</text>
</a>
</g>
</g>
<!-- Node19&#45;&gt;Node20 -->
<g id="edge20" class="edge"><title>Node19&#45;&gt;Node20</title>
<path fill="none" stroke="midnightblue" d="M898.971,-348.5C916.441,-348.5 935.078,-348.5 951.776,-348.5"/>
<polygon fill="midnightblue" stroke="midnightblue" points="898.844,-345 888.843,-348.5 898.843,-352 898.844,-345"/>
</g>
<!-- Node20&#45;&gt;Node7 -->
<g id="edge21" class="edge"><title>Node20&#45;&gt;Node7</title>
<path fill="none" stroke="orange" stroke-dasharray="5,2" d="M1058.8,-330.041C1111.1,-311.403 1190.92,-282.959 1239.59,-265.615"/>
<polygon fill="orange" stroke="orange" points="1057.61,-326.748 1049.37,-333.402 1059.96,-333.342 1057.61,-326.748"/>
<text text-anchor="middle" x="1148" y="-320.5" font-family="Helvetica,sans-Serif" font-size="10.00"> &lt; Void &gt;</text>
</g>
<!-- Node22 -->
<g id="node22" class="node"><title>Node22</title>
<g id="a_node22"><a xlink:href="class_cpl_1_1_dm_1_1_mp_1_1_uint32.html" target="_top" xlink:title="This class provides a concrete implementation for a Point who&#39;s data is a uint32_t.">
<polygon fill="white" stroke="black" points="953.5,-55 953.5,-74 1058.5,-74 1058.5,-55 953.5,-55"/>
<text text-anchor="middle" x="1006" y="-62" font-family="Helvetica,sans-Serif" font-size="10.00">Cpl::Dm::Mp::Uint32</text>
</a>
</g>
</g>
<!-- Node21&#45;&gt;Node22 -->
<g id="edge23" class="edge"><title>Node21&#45;&gt;Node22</title>
<path fill="none" stroke="midnightblue" d="M898.97,-64.5C916.947,-64.5 936.161,-64.5 953.226,-64.5"/>
<polygon fill="midnightblue" stroke="midnightblue" points="898.844,-61.0001 888.843,-64.5 898.843,-68.0001 898.844,-61.0001"/>
</g>
<!-- Node24 -->
<g id="node24" class="node"><title>Node24</title>
<g id="a_node24"><a xlink:href="class_cpl_1_1_dm_1_1_mp_1_1_uint64.html" target="_top" xlink:title="This class provides a concrete implementation for a Point who&#39;s data is a uint64_t.">
<polygon fill="white" stroke="black" points="953.5,-6 953.5,-25 1058.5,-25 1058.5,-6 953.5,-6"/>
<text text-anchor="middle" x="1006" y="-13" font-family="Helvetica,sans-Serif" font-size="10.00">Cpl::Dm::Mp::Uint64</text>
</a>
</g>
</g>
<!-- Node23&#45;&gt;Node24 -->
<g id="edge25" class="edge"><title>Node23&#45;&gt;Node24</title>
<path fill="none" stroke="midnightblue" d="M898.97,-15.5C916.947,-15.5 936.161,-15.5 953.226,-15.5"/>
<polygon fill="midnightblue" stroke="midnightblue" points="898.844,-12.0001 888.843,-15.5 898.843,-19.0001 898.844,-12.0001"/>
</g>
</g>
</svg>
