<?xml version="1.0" encoding="UTF-8" standalone="no"?>
<!DOCTYPE svg PUBLIC "-//W3C//DTD SVG 1.1//EN"
 "http://www.w3.org/Graphics/SVG/1.1/DTD/svg11.dtd">
<!-- Generated by graphviz version 2.38.0 (20140413.2041)
 -->
<!-- Title: Cpl::Memory::HPool&lt; T &gt; Pages: 1 -->
<svg width="828pt" height="148pt"
 viewBox="0.00 0.00 828.00 147.50" xmlns="http://www.w3.org/2000/svg" xmlns:xlink="http://www.w3.org/1999/xlink">
<g id="graph0" class="graph" transform="scale(1 1) rotate(0) translate(4 143.5)">
<title>Cpl::Memory::HPool&lt; T &gt;</title>
<polygon fill="white" stroke="none" points="-4,4 -4,-143.5 824,-143.5 824,4 -4,4"/>
<!-- Node1 -->
<g id="node1" class="node"><title>Node1</title>
<g id="a_node1"><a xlink:title="This template class defines a concrete Allocator that allocates its block memory from the HEAP.">
<polygon fill="#bfbfbf" stroke="black" points="692,-50 692,-69 820,-69 820,-50 692,-50"/>
<text text-anchor="middle" x="756" y="-57" font-family="Helvetica,sans-Serif" font-size="10.00">Cpl::Memory::HPool&lt; T &gt;</text>
</a>
</g>
</g>
<!-- Node2 -->
<g id="node2" class="node"><title>Node2</title>
<g id="a_node2"><a xlink:href="class_cpl_1_1_memory_1_1_allocator.html" target="_top" xlink:title="This abstract class defines the interface for a Memory Allocator.">
<polygon fill="white" stroke="black" points="251.5,-50 251.5,-69 367.5,-69 367.5,-50 251.5,-50"/>
<text text-anchor="middle" x="309.5" y="-57" font-family="Helvetica,sans-Serif" font-size="10.00">Cpl::Memory::Allocator</text>
</a>
</g>
</g>
<!-- Node2&#45;&gt;Node1 -->
<g id="edge1" class="edge"><title>Node2&#45;&gt;Node1</title>
<path fill="none" stroke="midnightblue" d="M377.786,-59.5C463.01,-59.5 608.758,-59.5 691.929,-59.5"/>
<polygon fill="midnightblue" stroke="midnightblue" points="377.701,-56.0001 367.701,-59.5 377.701,-63.0001 377.701,-56.0001"/>
</g>
<!-- Node4 -->
<g id="node4" class="node"><title>Node4</title>
<g id="a_node4"><a xlink:href="class_cpl_1_1_memory_1_1_pool__.html" target="_top" xlink:title="This private concrete class implements a Memory Allocator using a pool of fixed size blocks.">
<polygon fill="white" stroke="black" points="490,-88 490,-107 593,-107 593,-88 490,-88"/>
<text text-anchor="middle" x="541.5" y="-95" font-family="Helvetica,sans-Serif" font-size="10.00">Cpl::Memory::Pool_</text>
</a>
</g>
</g>
<!-- Node2&#45;&gt;Node4 -->
<g id="edge4" class="edge"><title>Node2&#45;&gt;Node4</title>
<path fill="none" stroke="midnightblue" d="M377.553,-70.5783C413.432,-76.5062 456.897,-83.6873 489.909,-89.1415"/>
<polygon fill="midnightblue" stroke="midnightblue" points="378.086,-67.1191 367.649,-68.9421 376.945,-74.0254 378.086,-67.1191"/>
</g>
<!-- Node3 -->
<g id="node3" class="node"><title>Node3</title>
<g id="a_node3"><a xlink:href="class_cpl_1_1_container_1_1_item.html" target="_top" xlink:title="This class is used by the Container classes to implement a various types of singly linked containers.">
<polygon fill="white" stroke="black" points="1.5,-29 1.5,-48 105.5,-48 105.5,-29 1.5,-29"/>
<text text-anchor="middle" x="53.5" y="-36" font-family="Helvetica,sans-Serif" font-size="10.00">Cpl::Container::Item</text>
</a>
</g>
</g>
<!-- Node3&#45;&gt;Node2 -->
<g id="edge2" class="edge"><title>Node3&#45;&gt;Node2</title>
<path fill="none" stroke="midnightblue" d="M115.782,-43.5666C156.995,-46.974 210.951,-51.4349 251.287,-54.7698"/>
<polygon fill="midnightblue" stroke="midnightblue" points="115.85,-40.0604 105.595,-42.7244 115.273,-47.0366 115.85,-40.0604"/>
</g>
<!-- Node8 -->
<g id="node8" class="node"><title>Node8</title>
<g id="a_node8"><a xlink:href="class_cpl_1_1_container_1_1_extended_item.html" target="_top" xlink:title="This class is used by the Container classes to implement a various types of DOUBLY linked containers.">
<polygon fill="white" stroke="black" points="237,-11 237,-30 382,-30 382,-11 237,-11"/>
<text text-anchor="middle" x="309.5" y="-18" font-family="Helvetica,sans-Serif" font-size="10.00">Cpl::Container::ExtendedItem</text>
</a>
</g>
</g>
<!-- Node3&#45;&gt;Node8 -->
<g id="edge9" class="edge"><title>Node3&#45;&gt;Node8</title>
<path fill="none" stroke="midnightblue" d="M115.602,-34.1699C152.079,-31.5849 198.588,-28.289 236.798,-25.5812"/>
<polygon fill="midnightblue" stroke="midnightblue" points="115.323,-30.6809 105.595,-34.8791 115.818,-37.6633 115.323,-30.6809"/>
</g>
<!-- Node4&#45;&gt;Node1 -->
<g id="edge3" class="edge"><title>Node4&#45;&gt;Node1</title>
<path fill="none" stroke="#9a32cd" stroke-dasharray="5,2" d="M602.995,-86.682C634.14,-81.1127 671.767,-74.384 701.793,-69.0146"/>
<polygon fill="#9a32cd" stroke="#9a32cd" points="602.357,-83.2406 593.129,-88.4463 603.589,-90.1313 602.357,-83.2406"/>
<text text-anchor="middle" x="642.5" y="-88.5" font-family="Helvetica,sans-Serif" font-size="10.00"> m_poolPtr</text>
</g>
<!-- Node5 -->
<g id="node5" class="node"><title>Node5</title>
<g id="a_node5"><a xlink:href="class_cpl_1_1_container_1_1_d_list.html" target="_top" xlink:title=" ">
<polygon fill="white" stroke="black" points="253.5,-97 253.5,-138 365.5,-138 365.5,-97 253.5,-97"/>
<text text-anchor="start" x="261.5" y="-126" font-family="Helvetica,sans-Serif" font-size="10.00">Cpl::Container::DList</text>
<text text-anchor="start" x="261.5" y="-115" font-family="Helvetica,sans-Serif" font-size="10.00">&lt; Cpl::Memory::Pool_</text>
<text text-anchor="middle" x="309.5" y="-104" font-family="Helvetica,sans-Serif" font-size="10.00">::BlockInfo_ &gt;</text>
</a>
</g>
</g>
<!-- Node5&#45;&gt;Node4 -->
<g id="edge5" class="edge"><title>Node5&#45;&gt;Node4</title>
<path fill="none" stroke="#9a32cd" stroke-dasharray="5,2" d="M375.57,-111.842C411.778,-108.693 456.181,-104.832 489.79,-101.91"/>
<polygon fill="#9a32cd" stroke="#9a32cd" points="375.25,-108.356 365.591,-112.71 375.856,-115.33 375.25,-108.356"/>
<text text-anchor="middle" x="436" y="-122.5" font-family="Helvetica,sans-Serif" font-size="10.00"> m_allocatedList</text>
<text text-anchor="middle" x="436" y="-111.5" font-family="Helvetica,sans-Serif" font-size="10.00">m_freeList</text>
</g>
<!-- Node6 -->
<g id="node6" class="node"><title>Node6</title>
<g id="a_node6"><a xlink:href="class_cpl_1_1_container_1_1_d_list.html" target="_top" xlink:title="This template class implements a Doubly linked list which maintains the ordering imposed on it by the...">
<polygon fill="white" stroke="black" points="0,-102.5 0,-132.5 107,-132.5 107,-102.5 0,-102.5"/>
<text text-anchor="start" x="8" y="-120.5" font-family="Helvetica,sans-Serif" font-size="10.00">Cpl::Container::DList</text>
<text text-anchor="middle" x="53.5" y="-109.5" font-family="Helvetica,sans-Serif" font-size="10.00">&lt; ITEM &gt;</text>
</a>
</g>
</g>
<!-- Node6&#45;&gt;Node5 -->
<g id="edge6" class="edge"><title>Node6&#45;&gt;Node5</title>
<path fill="none" stroke="orange" stroke-dasharray="5,2" d="M117.178,-117.5C158.902,-117.5 213.212,-117.5 253.303,-117.5"/>
<polygon fill="orange" stroke="orange" points="117.129,-114 107.129,-117.5 117.129,-121 117.129,-114"/>
<text text-anchor="start" x="125" y="-131.5" font-family="Helvetica,sans-Serif" font-size="10.00"> &lt; Cpl::Memory::Pool</text>
<text text-anchor="middle" x="172" y="-120.5" font-family="Helvetica,sans-Serif" font-size="10.00">_::BlockInfo_ &gt;</text>
</g>
<!-- Node7 -->
<g id="node7" class="node"><title>Node7</title>
<g id="a_node7"><a xlink:href="class_cpl_1_1_memory_1_1_pool___1_1_block_info__.html" target="_top" xlink:title="Helper class so I can put my blocks into to my standard containers.">
<polygon fill="white" stroke="black" points="490,-0.5 490,-30.5 593,-30.5 593,-0.5 490,-0.5"/>
<text text-anchor="start" x="498" y="-18.5" font-family="Helvetica,sans-Serif" font-size="10.00">Cpl::Memory::Pool_</text>
<text text-anchor="middle" x="541.5" y="-7.5" font-family="Helvetica,sans-Serif" font-size="10.00">::BlockInfo_</text>
</a>
</g>
</g>
<!-- Node7&#45;&gt;Node1 -->
<g id="edge7" class="edge"><title>Node7&#45;&gt;Node1</title>
<path fill="none" stroke="#9a32cd" stroke-dasharray="5,2" d="M603.158,-22.2542C625.561,-25.2751 651.07,-29.3379 674,-34.5 692.234,-38.6049 712.312,-44.7897 727.916,-49.9805"/>
<polygon fill="#9a32cd" stroke="#9a32cd" points="603.473,-18.7657 593.104,-20.9394 602.565,-25.7066 603.473,-18.7657"/>
<text text-anchor="middle" x="642.5" y="-37.5" font-family="Helvetica,sans-Serif" font-size="10.00"> m_infoBlocks</text>
</g>
<!-- Node8&#45;&gt;Node7 -->
<g id="edge8" class="edge"><title>Node8&#45;&gt;Node7</title>
<path fill="none" stroke="midnightblue" d="M392.416,-18.7192C424.919,-18.0126 461.277,-17.2222 489.832,-16.6015"/>
<polygon fill="midnightblue" stroke="midnightblue" points="391.934,-15.2288 382.013,-18.9454 392.086,-22.2271 391.934,-15.2288"/>
</g>
</g>
</svg>
