<?xml version="1.0" encoding="UTF-8" standalone="no"?>
<!DOCTYPE svg PUBLIC "-//W3C//DTD SVG 1.1//EN"
 "http://www.w3.org/Graphics/SVG/1.1/DTD/svg11.dtd">
<!-- Generated by graphviz version 2.38.0 (20140413.2041)
 -->
<!-- Title: Storm::Dm::MpSystemConfig Pages: 1 -->
<svg width="1532pt" height="280pt"
 viewBox="0.00 0.00 1532.00 280.00" xmlns="http://www.w3.org/2000/svg" xmlns:xlink="http://www.w3.org/1999/xlink">
<g id="graph0" class="graph" transform="scale(1 1) rotate(0) translate(4 276)">
<title>Storm::Dm::MpSystemConfig</title>
<polygon fill="white" stroke="none" points="-4,4 -4,-276 1528,-276 1528,4 -4,4"/>
<!-- Node1 -->
<g id="node1" class="node"><title>Node1</title>
<g id="a_node1"><a xlink:title="This class provides a concrete implementation for a Point who&#39;s data is the the System Configuration ...">
<polygon fill="#bfbfbf" stroke="black" points="1379,-56.5 1379,-75.5 1524,-75.5 1524,-56.5 1379,-56.5"/>
<text text-anchor="middle" x="1451.5" y="-63.5" font-family="Helvetica,sans-Serif" font-size="10.00">Storm::Dm::MpSystemConfig</text>
</a>
</g>
</g>
<!-- Node2 -->
<g id="node2" class="node"><title>Node2</title>
<g id="a_node2"><a xlink:href="class_cpl_1_1_dm_1_1_model_point_common__.html" target="_top" xlink:title="This concrete class provide common infrastructure for a Model Point.">
<polygon fill="white" stroke="black" points="1156,-82.5 1156,-101.5 1307,-101.5 1307,-82.5 1156,-82.5"/>
<text text-anchor="middle" x="1231.5" y="-89.5" font-family="Helvetica,sans-Serif" font-size="10.00">Cpl::Dm::ModelPointCommon_</text>
</a>
</g>
</g>
<!-- Node2&#45;&gt;Node1 -->
<g id="edge1" class="edge"><title>Node2&#45;&gt;Node1</title>
<path fill="none" stroke="midnightblue" d="M1317.4,-81.8749C1337.7,-79.4531 1359.18,-76.8911 1378.82,-74.5485"/>
<polygon fill="midnightblue" stroke="midnightblue" points="1316.73,-78.4289 1307.22,-83.0887 1317.56,-85.3797 1316.73,-78.4289"/>
</g>
<!-- Node3 -->
<g id="node3" class="node"><title>Node3</title>
<g id="a_node3"><a xlink:href="class_cpl_1_1_dm_1_1_model_point.html" target="_top" xlink:title="This mostly abstract class defines the interface for a Model Point.">
<polygon fill="white" stroke="black" points="913,-220.5 913,-239.5 1020,-239.5 1020,-220.5 913,-220.5"/>
<text text-anchor="middle" x="966.5" y="-227.5" font-family="Helvetica,sans-Serif" font-size="10.00">Cpl::Dm::ModelPoint</text>
</a>
</g>
</g>
<!-- Node3&#45;&gt;Node2 -->
<g id="edge2" class="edge"><title>Node3&#45;&gt;Node2</title>
<path fill="none" stroke="midnightblue" d="M998.629,-216.12C1033.16,-200.475 1090.29,-173.839 1138,-148 1166.06,-132.803 1197.65,-113.094 1215.7,-101.568"/>
<polygon fill="midnightblue" stroke="midnightblue" points="996.772,-213.119 989.096,-220.421 999.65,-219.499 996.772,-213.119"/>
</g>
<!-- Node4 -->
<g id="node4" class="node"><title>Node4</title>
<g id="a_node4"><a xlink:href="class_cpl_1_1_container_1_1_map_item.html" target="_top" xlink:title="This abstract class represents a item that can be contained in an Map (aka a sorted list implemented ...">
<polygon fill="white" stroke="black" points="607,-252.5 607,-271.5 729,-271.5 729,-252.5 607,-252.5"/>
<text text-anchor="middle" x="668" y="-259.5" font-family="Helvetica,sans-Serif" font-size="10.00">Cpl::Container::MapItem</text>
</a>
</g>
</g>
<!-- Node4&#45;&gt;Node3 -->
<g id="edge3" class="edge"><title>Node4&#45;&gt;Node3</title>
<path fill="none" stroke="midnightblue" d="M739.032,-254.442C792.183,-248.705 864.131,-240.94 912.545,-235.715"/>
<polygon fill="midnightblue" stroke="midnightblue" points="738.568,-250.971 729.001,-255.524 739.319,-257.931 738.568,-250.971"/>
</g>
<!-- Node5 -->
<g id="node5" class="node"><title>Node5</title>
<g id="a_node5"><a xlink:href="class_cpl_1_1_container_1_1_dict_item.html" target="_top" xlink:title="This abstract class represents a item that can be contained in Dictionary.">
<polygon fill="white" stroke="black" points="326,-252.5 326,-271.5 447,-271.5 447,-252.5 326,-252.5"/>
<text text-anchor="middle" x="386.5" y="-259.5" font-family="Helvetica,sans-Serif" font-size="10.00">Cpl::Container::DictItem</text>
</a>
</g>
</g>
<!-- Node5&#45;&gt;Node4 -->
<g id="edge4" class="edge"><title>Node5&#45;&gt;Node4</title>
<path fill="none" stroke="midnightblue" d="M457.319,-262C503.374,-262 563.078,-262 606.993,-262"/>
<polygon fill="midnightblue" stroke="midnightblue" points="457.117,-258.5 447.117,-262 457.117,-265.5 457.117,-258.5"/>
</g>
<!-- Node6 -->
<g id="node6" class="node"><title>Node6</title>
<g id="a_node6"><a xlink:href="class_cpl_1_1_container_1_1_extended_item.html" target="_top" xlink:title="This class is used by the Container classes to implement a various types of DOUBLY linked containers.">
<polygon fill="white" stroke="black" points="141,-252.5 141,-271.5 286,-271.5 286,-252.5 141,-252.5"/>
<text text-anchor="middle" x="213.5" y="-259.5" font-family="Helvetica,sans-Serif" font-size="10.00">Cpl::Container::ExtendedItem</text>
</a>
</g>
</g>
<!-- Node6&#45;&gt;Node5 -->
<g id="edge5" class="edge"><title>Node6&#45;&gt;Node5</title>
<path fill="none" stroke="midnightblue" d="M296.047,-262C306.111,-262 316.248,-262 325.899,-262"/>
<polygon fill="midnightblue" stroke="midnightblue" points="296.029,-258.5 286.029,-262 296.029,-265.5 296.029,-258.5"/>
</g>
<!-- Node7 -->
<g id="node7" class="node"><title>Node7</title>
<g id="a_node7"><a xlink:href="class_cpl_1_1_container_1_1_item.html" target="_top" xlink:title="This class is used by the Container classes to implement a various types of singly linked containers.">
<polygon fill="white" stroke="black" points="0,-252.5 0,-271.5 104,-271.5 104,-252.5 0,-252.5"/>
<text text-anchor="middle" x="52" y="-259.5" font-family="Helvetica,sans-Serif" font-size="10.00">Cpl::Container::Item</text>
</a>
</g>
</g>
<!-- Node7&#45;&gt;Node6 -->
<g id="edge6" class="edge"><title>Node7&#45;&gt;Node6</title>
<path fill="none" stroke="midnightblue" d="M114.375,-262C123.061,-262 132.056,-262 140.915,-262"/>
<polygon fill="midnightblue" stroke="midnightblue" points="114.345,-258.5 104.345,-262 114.345,-265.5 114.345,-258.5"/>
</g>
<!-- Node8 -->
<g id="node8" class="node"><title>Node8</title>
<g id="a_node8"><a xlink:href="class_cpl_1_1_dm_1_1_model_database.html" target="_top" xlink:title="This concrete class implements a simple Model Database.">
<polygon fill="white" stroke="black" points="904,-145.5 904,-164.5 1029,-164.5 1029,-145.5 904,-145.5"/>
<text text-anchor="middle" x="966.5" y="-152.5" font-family="Helvetica,sans-Serif" font-size="10.00">Cpl::Dm::ModelDatabase</text>
</a>
</g>
</g>
<!-- Node8&#45;&gt;Node2 -->
<g id="edge7" class="edge"><title>Node8&#45;&gt;Node2</title>
<path fill="none" stroke="#9a32cd" stroke-dasharray="5,2" d="M1017.44,-143.037C1067.71,-130.995 1144.26,-112.659 1190.61,-101.555"/>
<polygon fill="#9a32cd" stroke="#9a32cd" points="1016.35,-139.698 1007.44,-145.432 1017.98,-146.506 1016.35,-139.698"/>
<text text-anchor="middle" x="1095.5" y="-136" font-family="Helvetica,sans-Serif" font-size="10.00"> m_modelDatabase</text>
</g>
<!-- Node9 -->
<g id="node9" class="node"><title>Node9</title>
<g id="a_node9"><a xlink:href="class_cpl_1_1_dm_1_1_model_database_api.html" target="_top" xlink:title="This class defines the basic operations that can be performed on a Model Base.">
<polygon fill="white" stroke="black" points="598,-214.5 598,-233.5 738,-233.5 738,-214.5 598,-214.5"/>
<text text-anchor="middle" x="668" y="-221.5" font-family="Helvetica,sans-Serif" font-size="10.00">Cpl::Dm::ModelDatabaseApi</text>
</a>
</g>
</g>
<!-- Node9&#45;&gt;Node8 -->
<g id="edge8" class="edge"><title>Node9&#45;&gt;Node8</title>
<path fill="none" stroke="midnightblue" d="M748.132,-214.314C788.085,-208.465 837.062,-199.822 880,-188 902.397,-181.834 927.057,-171.967 944.114,-164.627"/>
<polygon fill="midnightblue" stroke="midnightblue" points="747.58,-210.857 738.178,-215.741 748.574,-217.787 747.58,-210.857"/>
</g>
<!-- Node10 -->
<g id="node10" class="node"><title>Node10</title>
<g id="a_node10"><a xlink:href="class_cpl_1_1_container_1_1_map.html" target="_top" xlink:title=" ">
<polygon fill="white" stroke="black" points="605.5,-165 605.5,-195 730.5,-195 730.5,-165 605.5,-165"/>
<text text-anchor="start" x="613.5" y="-183" font-family="Helvetica,sans-Serif" font-size="10.00">Cpl::Container::Map</text>
<text text-anchor="middle" x="668" y="-172" font-family="Helvetica,sans-Serif" font-size="10.00">&lt; Cpl::Dm::ModelPoint &gt;</text>
</a>
</g>
</g>
<!-- Node10&#45;&gt;Node8 -->
<g id="edge9" class="edge"><title>Node10&#45;&gt;Node8</title>
<path fill="none" stroke="#9a32cd" stroke-dasharray="5,2" d="M740.855,-173.941C790.674,-169.741 856.33,-164.205 903.784,-160.204"/>
<polygon fill="#9a32cd" stroke="#9a32cd" points="740.466,-170.462 730.795,-174.79 741.054,-177.437 740.466,-170.462"/>
<text text-anchor="middle" x="818" y="-176" font-family="Helvetica,sans-Serif" font-size="10.00"> m_map</text>
</g>
<!-- Node11 -->
<g id="node11" class="node"><title>Node11</title>
<g id="a_node11"><a xlink:href="class_cpl_1_1_container_1_1_map.html" target="_top" xlink:title="This template class implements an Map using an AVL Binary tree (i.e.">
<polygon fill="white" stroke="black" points="335,-165 335,-195 438,-195 438,-165 335,-165"/>
<text text-anchor="start" x="343" y="-183" font-family="Helvetica,sans-Serif" font-size="10.00">Cpl::Container::Map</text>
<text text-anchor="middle" x="386.5" y="-172" font-family="Helvetica,sans-Serif" font-size="10.00">&lt; ITEM &gt;</text>
</a>
</g>
</g>
<!-- Node11&#45;&gt;Node10 -->
<g id="edge10" class="edge"><title>Node11&#45;&gt;Node10</title>
<path fill="none" stroke="orange" stroke-dasharray="5,2" d="M448.347,-180C494.819,-180 558.606,-180 605.29,-180"/>
<polygon fill="orange" stroke="orange" points="448.115,-176.5 438.115,-180 448.115,-183.5 448.115,-176.5"/>
<text text-anchor="middle" x="524" y="-183" font-family="Helvetica,sans-Serif" font-size="10.00"> &lt; Cpl::Dm::ModelPoint &gt;</text>
</g>
<!-- Node12 -->
<g id="node12" class="node"><title>Node12</title>
<g id="a_node12"><a xlink:href="class_cpl_1_1_system_1_1_mutex.html" target="_top" xlink:title="This mutex class defines the interface for a mutex that has &quot;recursive&quot; semantics.">
<polygon fill="white" stroke="black" points="616,-126.5 616,-145.5 720,-145.5 720,-126.5 616,-126.5"/>
<text text-anchor="middle" x="668" y="-133.5" font-family="Helvetica,sans-Serif" font-size="10.00">Cpl::System::Mutex</text>
</a>
</g>
</g>
<!-- Node12&#45;&gt;Node8 -->
<g id="edge11" class="edge"><title>Node12&#45;&gt;Node8</title>
<path fill="none" stroke="#9a32cd" stroke-dasharray="5,2" d="M730.378,-135.765C772.542,-136.089 829.758,-137.483 880,-142 889.571,-142.86 899.7,-144.103 909.51,-145.483"/>
<polygon fill="#9a32cd" stroke="#9a32cd" points="730.288,-132.265 720.268,-135.706 730.247,-139.265 730.288,-132.265"/>
<text text-anchor="middle" x="818" y="-145" font-family="Helvetica,sans-Serif" font-size="10.00"> m_lock</text>
</g>
<!-- Node13 -->
<g id="node13" class="node"><title>Node13</title>
<g id="a_node13"><a xlink:href="class_cpl_1_1_container_1_1_d_list.html" target="_top" xlink:title=" ">
<polygon fill="white" stroke="black" points="898,-77 898,-107 1035,-107 1035,-77 898,-77"/>
<text text-anchor="start" x="906" y="-95" font-family="Helvetica,sans-Serif" font-size="10.00">Cpl::Container::DList</text>
<text text-anchor="middle" x="966.5" y="-84" font-family="Helvetica,sans-Serif" font-size="10.00">&lt; Cpl::Dm::SubscriberApi &gt;</text>
</a>
</g>
</g>
<!-- Node13&#45;&gt;Node2 -->
<g id="edge12" class="edge"><title>Node13&#45;&gt;Node2</title>
<path fill="none" stroke="#9a32cd" stroke-dasharray="5,2" d="M1045.36,-92C1080.2,-92 1121.1,-92 1155.59,-92"/>
<polygon fill="#9a32cd" stroke="#9a32cd" points="1045.23,-88.5001 1035.23,-92 1045.23,-95.5001 1045.23,-88.5001"/>
<text text-anchor="middle" x="1095.5" y="-95" font-family="Helvetica,sans-Serif" font-size="10.00"> m_subscribers</text>
</g>
<!-- Node14 -->
<g id="node14" class="node"><title>Node14</title>
<g id="a_node14"><a xlink:href="class_cpl_1_1_container_1_1_d_list.html" target="_top" xlink:title="This template class implements a Doubly linked list which maintains the ordering imposed on it by the...">
<polygon fill="white" stroke="black" points="614.5,-77 614.5,-107 721.5,-107 721.5,-77 614.5,-77"/>
<text text-anchor="start" x="622.5" y="-95" font-family="Helvetica,sans-Serif" font-size="10.00">Cpl::Container::DList</text>
<text text-anchor="middle" x="668" y="-84" font-family="Helvetica,sans-Serif" font-size="10.00">&lt; ITEM &gt;</text>
</a>
</g>
</g>
<!-- Node14&#45;&gt;Node13 -->
<g id="edge13" class="edge"><title>Node14&#45;&gt;Node13</title>
<path fill="none" stroke="orange" stroke-dasharray="5,2" d="M731.774,-92C780.532,-92 848.026,-92 897.954,-92"/>
<polygon fill="orange" stroke="orange" points="731.667,-88.5001 721.667,-92 731.667,-95.5001 731.667,-88.5001"/>
<text text-anchor="middle" x="818" y="-95" font-family="Helvetica,sans-Serif" font-size="10.00"> &lt; Cpl::Dm::SubscriberApi &gt;</text>
</g>
<!-- Node15 -->
<g id="node15" class="node"><title>Node15</title>
<g id="a_node15"><a xlink:href="class_cpl_1_1_dm_1_1_static_info.html" target="_top" xlink:title="This class defines an interface for a Model Point to store its constant/static data in program memory...">
<polygon fill="white" stroke="black" points="916.5,-38.5 916.5,-57.5 1016.5,-57.5 1016.5,-38.5 916.5,-38.5"/>
<text text-anchor="middle" x="966.5" y="-45.5" font-family="Helvetica,sans-Serif" font-size="10.00">Cpl::Dm::StaticInfo</text>
</a>
</g>
</g>
<!-- Node15&#45;&gt;Node2 -->
<g id="edge14" class="edge"><title>Node15&#45;&gt;Node2</title>
<path fill="none" stroke="#9a32cd" stroke-dasharray="5,2" d="M1026.61,-57.8894C1070.48,-65.2281 1129.95,-75.1787 1173.35,-82.4381"/>
<polygon fill="#9a32cd" stroke="#9a32cd" points="1027.1,-54.4226 1016.66,-56.2244 1025.95,-61.3266 1027.1,-54.4226"/>
<text text-anchor="middle" x="1095.5" y="-80" font-family="Helvetica,sans-Serif" font-size="10.00"> m_staticInfo</text>
</g>
<!-- Node16 -->
<g id="node16" class="node"><title>Node16</title>
<g id="a_node16"><a xlink:href="class_cpl_1_1_container_1_1_key_literal_string.html" target="_top" xlink:title="This class provides a &#39;Key&#39; wrapper for a C string literal.">
<polygon fill="white" stroke="black" points="604,-28 604,-58 732,-58 732,-28 604,-28"/>
<text text-anchor="start" x="612" y="-46" font-family="Helvetica,sans-Serif" font-size="10.00">Cpl::Container::KeyLiteral</text>
<text text-anchor="middle" x="668" y="-35" font-family="Helvetica,sans-Serif" font-size="10.00">String</text>
</a>
</g>
</g>
<!-- Node16&#45;&gt;Node15 -->
<g id="edge15" class="edge"><title>Node16&#45;&gt;Node15</title>
<path fill="none" stroke="midnightblue" d="M742.469,-44.2389C796.575,-45.1514 868.686,-46.3674 916.069,-47.1664"/>
<polygon fill="midnightblue" stroke="midnightblue" points="742.301,-40.7357 732.243,-44.0665 742.183,-47.7347 742.301,-40.7357"/>
</g>
<!-- Node17 -->
<g id="node17" class="node"><title>Node17</title>
<g id="a_node17"><a xlink:href="class_cpl_1_1_container_1_1_key_string_buffer.html" target="_top" xlink:title="This class provides a &#39;Key&#39; wrapper for a array of Character of length N, i.e.">
<polygon fill="white" stroke="black" points="323,-28 323,-58 450,-58 450,-28 323,-28"/>
<text text-anchor="start" x="331" y="-46" font-family="Helvetica,sans-Serif" font-size="10.00">Cpl::Container::KeyString</text>
<text text-anchor="middle" x="386.5" y="-35" font-family="Helvetica,sans-Serif" font-size="10.00">Buffer</text>
</a>
</g>
</g>
<!-- Node17&#45;&gt;Node16 -->
<g id="edge16" class="edge"><title>Node17&#45;&gt;Node16</title>
<path fill="none" stroke="midnightblue" d="M460.373,-43C504.769,-43 560.948,-43 603.517,-43"/>
<polygon fill="midnightblue" stroke="midnightblue" points="460.225,-39.5001 450.225,-43 460.225,-46.5001 460.225,-39.5001"/>
</g>
<!-- Node18 -->
<g id="node18" class="node"><title>Node18</title>
<g id="a_node18"><a xlink:href="class_cpl_1_1_container_1_1_key.html" target="_top" xlink:title="This abstract class defines the interface that a contained object must support if it has comparable k...">
<polygon fill="white" stroke="black" points="163,-33.5 163,-52.5 264,-52.5 264,-33.5 163,-33.5"/>
<text text-anchor="middle" x="213.5" y="-40.5" font-family="Helvetica,sans-Serif" font-size="10.00">Cpl::Container::Key</text>
</a>
</g>
</g>
<!-- Node18&#45;&gt;Node17 -->
<g id="edge17" class="edge"><title>Node18&#45;&gt;Node17</title>
<path fill="none" stroke="midnightblue" d="M274.481,-43C290.103,-43 306.976,-43 322.737,-43"/>
<polygon fill="midnightblue" stroke="midnightblue" points="274.42,-39.5001 264.42,-43 274.42,-46.5001 274.42,-39.5001"/>
</g>
<!-- Node19 -->
<g id="node19" class="node"><title>Node19</title>
<g id="a_node19"><a xlink:href="namespace_storm_1_1_type.html#struct_storm_1_1_type_1_1_system_config___t" target="_top" xlink:title="The following typedef contains system attributes, parameters, bounds, etc.">
<polygon fill="white" stroke="black" points="1157,-22.5 1157,-41.5 1306,-41.5 1306,-22.5 1157,-22.5"/>
<text text-anchor="middle" x="1231.5" y="-29.5" font-family="Helvetica,sans-Serif" font-size="10.00">Storm::Type::SystemConfig_T</text>
</a>
</g>
</g>
<!-- Node19&#45;&gt;Node1 -->
<g id="edge18" class="edge"><title>Node19&#45;&gt;Node1</title>
<path fill="none" stroke="#9a32cd" stroke-dasharray="5,2" d="M1303.55,-43.0817C1331.3,-47.4096 1362.8,-52.3223 1389.5,-56.4862"/>
<polygon fill="#9a32cd" stroke="#9a32cd" points="1303.93,-39.599 1293.52,-41.5161 1302.86,-46.5154 1303.93,-39.599"/>
<text text-anchor="middle" x="1343" y="-55" font-family="Helvetica,sans-Serif" font-size="10.00"> m_data</text>
</g>
<!-- Node20 -->
<g id="node20" class="node"><title>Node20</title>
<g id="a_node20"><a xlink:href="namespace_storm_1_1_type.html#struct_storm_1_1_type_1_1_stage___t" target="_top" xlink:title="The following typedef information per stage.">
<polygon fill="white" stroke="black" points="910,-0.5 910,-19.5 1023,-19.5 1023,-0.5 910,-0.5"/>
<text text-anchor="middle" x="966.5" y="-7.5" font-family="Helvetica,sans-Serif" font-size="10.00">Storm::Type::Stage_T</text>
</a>
</g>
</g>
<!-- Node20&#45;&gt;Node19 -->
<g id="edge19" class="edge"><title>Node20&#45;&gt;Node19</title>
<path fill="none" stroke="#9a32cd" stroke-dasharray="5,2" d="M1033.28,-12.7752C1064.97,-14.3887 1103.5,-16.7548 1138,-20 1145.58,-20.7128 1153.49,-21.5684 1161.36,-22.4903"/>
<polygon fill="#9a32cd" stroke="#9a32cd" points="1033.41,-9.27724 1023.25,-12.2777 1033.06,-16.2686 1033.41,-9.27724"/>
<text text-anchor="middle" x="1095.5" y="-23" font-family="Helvetica,sans-Serif" font-size="10.00"> stages</text>
</g>
</g>
</svg>
