<?xml version="1.0" encoding="UTF-8" standalone="no"?>
<!DOCTYPE svg PUBLIC "-//W3C//DTD SVG 1.1//EN"
 "http://www.w3.org/Graphics/SVG/1.1/DTD/svg11.dtd">
<!-- Generated by graphviz version 2.38.0 (20140413.2041)
 -->
<!-- Title: Cpl::System::TimerManager Pages: 1 -->
<svg width="734pt" height="78pt"
 viewBox="0.00 0.00 734.00 77.50" xmlns="http://www.w3.org/2000/svg" xmlns:xlink="http://www.w3.org/1999/xlink">
<g id="graph0" class="graph" transform="scale(1 1) rotate(0) translate(4 73.5)">
<title>Cpl::System::TimerManager</title>
<polygon fill="white" stroke="none" points="-4,4 -4,-73.5 730,-73.5 730,4 -4,4"/>
<!-- Node1 -->
<g id="node1" class="node"><title>Node1</title>
<g id="a_node1"><a xlink:title="This mostly concrete class implements manages a list of Software Timers.">
<polygon fill="#bfbfbf" stroke="black" points="587,-30 587,-49 726,-49 726,-30 587,-30"/>
<text text-anchor="middle" x="656.5" y="-37" font-family="Helvetica,sans-Serif" font-size="10.00">Cpl::System::TimerManager</text>
</a>
</g>
</g>
<!-- Node2 -->
<g id="node2" class="node"><title>Node2</title>
<g id="a_node2"><a xlink:href="class_cpl_1_1_system_1_1_counter_source__.html" target="_top" xlink:title="This abstract class defines the interface for registering for an Counter object with the Timer Manage...">
<polygon fill="white" stroke="black" points="313.5,-50 313.5,-69 459.5,-69 459.5,-50 313.5,-50"/>
<text text-anchor="middle" x="386.5" y="-57" font-family="Helvetica,sans-Serif" font-size="10.00">Cpl::System::CounterSource_</text>
</a>
</g>
</g>
<!-- Node2&#45;&gt;Node1 -->
<g id="edge1" class="edge"><title>Node2&#45;&gt;Node1</title>
<path fill="none" stroke="midnightblue" d="M470.056,-53.3391C507.509,-50.5441 551.283,-47.2774 586.895,-44.6198"/>
<polygon fill="midnightblue" stroke="midnightblue" points="469.383,-49.8795 459.672,-54.1141 469.904,-56.8601 469.383,-49.8795"/>
</g>
<!-- Node3 -->
<g id="node3" class="node"><title>Node3</title>
<g id="a_node3"><a xlink:href="class_cpl_1_1_container_1_1_d_list.html" target="_top" xlink:title=" ">
<polygon fill="white" stroke="black" points="301,-0.5 301,-30.5 472,-30.5 472,-0.5 301,-0.5"/>
<text text-anchor="start" x="309" y="-18.5" font-family="Helvetica,sans-Serif" font-size="10.00">Cpl::Container::DList</text>
<text text-anchor="middle" x="386.5" y="-7.5" font-family="Helvetica,sans-Serif" font-size="10.00">&lt; Cpl::System::CounterCallback_ &gt;</text>
</a>
</g>
</g>
<!-- Node3&#45;&gt;Node1 -->
<g id="edge2" class="edge"><title>Node3&#45;&gt;Node1</title>
<path fill="none" stroke="#9a32cd" stroke-dasharray="5,2" d="M482.415,-14.7409C510.384,-15.4268 540.994,-17.0697 569,-20.5 585.635,-22.5376 603.786,-26.2845 619.146,-29.9158"/>
<polygon fill="#9a32cd" stroke="#9a32cd" points="482.31,-11.2381 472.24,-14.53 482.165,-18.2366 482.31,-11.2381"/>
<text text-anchor="middle" x="529.5" y="-34.5" font-family="Helvetica,sans-Serif" font-size="10.00"> m_pendingAttach</text>
<text text-anchor="middle" x="529.5" y="-23.5" font-family="Helvetica,sans-Serif" font-size="10.00">m_counters</text>
</g>
<!-- Node4 -->
<g id="node4" class="node"><title>Node4</title>
<g id="a_node4"><a xlink:href="class_cpl_1_1_container_1_1_d_list.html" target="_top" xlink:title="This template class implements a Doubly linked list which maintains the ordering imposed on it by the...">
<polygon fill="white" stroke="black" points="0,-0.5 0,-30.5 107,-30.5 107,-0.5 0,-0.5"/>
<text text-anchor="start" x="8" y="-18.5" font-family="Helvetica,sans-Serif" font-size="10.00">Cpl::Container::DList</text>
<text text-anchor="middle" x="53.5" y="-7.5" font-family="Helvetica,sans-Serif" font-size="10.00">&lt; ITEM &gt;</text>
</a>
</g>
</g>
<!-- Node4&#45;&gt;Node3 -->
<g id="edge3" class="edge"><title>Node4&#45;&gt;Node3</title>
<path fill="none" stroke="orange" stroke-dasharray="5,2" d="M117.405,-15.5C169.409,-15.5 243.731,-15.5 300.937,-15.5"/>
<polygon fill="orange" stroke="orange" points="117.314,-12.0001 107.314,-15.5 117.314,-19.0001 117.314,-12.0001"/>
<text text-anchor="middle" x="204" y="-18.5" font-family="Helvetica,sans-Serif" font-size="10.00"> &lt; Cpl::System::CounterCallback_ &gt;</text>
</g>
</g>
</svg>
