<?xml version="1.0" encoding="UTF-8" standalone="no"?>
<!DOCTYPE svg PUBLIC "-//W3C//DTD SVG 1.1//EN"
 "http://www.w3.org/Graphics/SVG/1.1/DTD/svg11.dtd">
<!-- Generated by graphviz version 10.0.1 (20240210.2158)
 -->
<!-- Title: Cpl::Itc::MailboxServer Pages: 1 -->
<svg width="1107pt" height="383pt"
 viewBox="0.00 0.00 1106.75 383.00" xmlns="http://www.w3.org/2000/svg" xmlns:xlink="http://www.w3.org/1999/xlink">
<g id="graph0" class="graph" transform="scale(1 1) rotate(0) translate(4 379)">
<title>Cpl::Itc::MailboxServer</title>
<!-- Node1 -->
<g id="Node000001" class="node">
<title>Node1</title>
<g id="a_Node000001"><a xlink:title="This class collects the common functions of a generic server providing a mailbox and Event loop.">
<polygon fill="#999999" stroke="#666666" points="1098.75,-280 985.25,-280 985.25,-260 1098.75,-260 1098.75,-280"/>
<text text-anchor="middle" x="1042" y="-266.5" font-family="Helvetica,sans-Serif" font-size="10.00">Cpl::Itc::MailboxServer</text>
</a>
</g>
</g>
<!-- Node2 -->
<g id="Node000002" class="node">
<title>Node2</title>
<g id="a_Node000002"><a xlink:href="class_cpl_1_1_itc_1_1_mailbox.html" target="_top" xlink:title="This mailbox class implements an Inter Thread Communications message queue.">
<polygon fill="white" stroke="#666666" points="693.75,-340 607.25,-340 607.25,-320 693.75,-320 693.75,-340"/>
<text text-anchor="middle" x="650.5" y="-326.5" font-family="Helvetica,sans-Serif" font-size="10.00">Cpl::Itc::Mailbox</text>
</a>
</g>
</g>
<!-- Node2&#45;&gt;Node1 -->
<g id="edge1_Node000001_Node000002" class="edge">
<title>Node2&#45;&gt;Node1</title>
<g id="a_edge1_Node000001_Node000002"><a xlink:title=" ">
<path fill="none" stroke="#63b8ff" d="M705.21,-321.73C778.73,-310.4 910.07,-290.17 984.85,-278.65"/>
<polygon fill="#63b8ff" stroke="#63b8ff" points="704.77,-318.25 695.42,-323.23 705.84,-325.17 704.77,-318.25"/>
</a>
</g>
</g>
<!-- Node3 -->
<g id="Node000003" class="node">
<title>Node3</title>
<g id="a_Node000003"><a xlink:href="class_cpl_1_1_itc_1_1_post_api.html" target="_top" xlink:title="This abstract class represents the interface used to send messages to a mailbox.">
<polygon fill="white" stroke="#666666" points="428.38,-375 341.12,-375 341.12,-355 428.38,-355 428.38,-375"/>
<text text-anchor="middle" x="384.75" y="-361.5" font-family="Helvetica,sans-Serif" font-size="10.00">Cpl::Itc::PostApi</text>
</a>
</g>
</g>
<!-- Node3&#45;&gt;Node2 -->
<g id="edge2_Node000002_Node000003" class="edge">
<title>Node3&#45;&gt;Node2</title>
<g id="a_edge2_Node000002_Node000003"><a xlink:title=" ">
<path fill="none" stroke="#63b8ff" d="M439.84,-357.82C489.32,-351.26 561.53,-341.67 606.99,-335.64"/>
<polygon fill="#63b8ff" stroke="#63b8ff" points="439.67,-354.31 430.21,-359.1 440.59,-361.25 439.67,-354.31"/>
</a>
</g>
</g>
<!-- Node4 -->
<g id="Node000004" class="node">
<title>Node4</title>
<g id="a_Node000004"><a xlink:href="class_cpl_1_1_container_1_1_s_list.html" target="_top" xlink:title=" ">
<polygon fill="white" stroke="#666666" points="437.75,-337 331.75,-337 331.75,-305 437.75,-305 437.75,-337"/>
<text text-anchor="start" x="339.75" y="-323.5" font-family="Helvetica,sans-Serif" font-size="10.00">Cpl::Container::SList</text>
<text text-anchor="middle" x="384.75" y="-311.5" font-family="Helvetica,sans-Serif" font-size="10.00">&lt; Message &gt;</text>
</a>
</g>
</g>
<!-- Node4&#45;&gt;Node2 -->
<g id="edge3_Node000002_Node000004" class="edge">
<title>Node4&#45;&gt;Node2</title>
<g id="a_edge3_Node000002_Node000004"><a xlink:title=" ">
<path fill="none" stroke="#63b8ff" d="M449.14,-323.56C462,-324.06 475.44,-324.56 488,-325 528.37,-326.41 574.42,-327.82 606.99,-328.78"/>
<polygon fill="#63b8ff" stroke="#63b8ff" points="449.67,-320.08 439.54,-323.19 449.4,-327.07 449.67,-320.08"/>
</a>
</g>
</g>
<!-- Node5 -->
<g id="Node000005" class="node">
<title>Node5</title>
<g id="a_Node000005"><a xlink:href="class_cpl_1_1_container_1_1_s_list.html" target="_top" xlink:title="This template class implements a singly linked list which maintains the ordering imposed on it by the...">
<polygon fill="white" stroke="#666666" points="106,-337 0,-337 0,-305 106,-305 106,-337"/>
<text text-anchor="start" x="8" y="-323.5" font-family="Helvetica,sans-Serif" font-size="10.00">Cpl::Container::SList</text>
<text text-anchor="middle" x="53" y="-311.5" font-family="Helvetica,sans-Serif" font-size="10.00">&lt; ITEM &gt;</text>
</a>
</g>
</g>
<!-- Node5&#45;&gt;Node4 -->
<g id="edge4_Node000004_Node000005" class="edge">
<title>Node5&#45;&gt;Node4</title>
<g id="a_edge4_Node000004_Node000005"><a xlink:title=" ">
<path fill="none" stroke="orange" stroke-dasharray="5,2" d="M117.49,-321C179.71,-321 273.42,-321 331.47,-321"/>
<polygon fill="orange" stroke="orange" points="117.76,-317.5 107.76,-321 117.76,-324.5 117.76,-317.5"/>
</a>
</g>
<text text-anchor="middle" x="202.75" y="-323.5" font-family="Helvetica,sans-Serif" font-size="10.00" fill="grey"> &lt; Message &gt;</text>
</g>
<!-- Node6 -->
<g id="Node000006" class="node">
<title>Node6</title>
<g id="a_Node000006"><a xlink:href="class_cpl_1_1_system_1_1_signable.html" target="_top" xlink:title="This abstract class defines the interface by which a client can cause an object that is waiting&#45;on&#45;a&#45;...">
<polygon fill="white" stroke="#666666" points="441.5,-263 328,-263 328,-243 441.5,-243 441.5,-263"/>
<text text-anchor="middle" x="384.75" y="-249.5" font-family="Helvetica,sans-Serif" font-size="10.00">Cpl::System::Signable</text>
</a>
</g>
</g>
<!-- Node6&#45;&gt;Node2 -->
<g id="edge5_Node000002_Node000006" class="edge">
<title>Node6&#45;&gt;Node2</title>
<g id="a_edge5_Node000002_Node000006"><a xlink:title=" ">
<path fill="none" stroke="#9a32cd" stroke-dasharray="5,2" d="M422.73,-267.44C442.02,-274.7 466.11,-283.35 488,-290 509.97,-296.68 566.95,-310.49 606.97,-320"/>
<polygon fill="#9a32cd" stroke="#9a32cd" points="423.98,-264.17 413.39,-263.89 421.49,-270.71 423.98,-264.17"/>
</a>
</g>
<text text-anchor="middle" x="525.88" y="-310.5" font-family="Helvetica,sans-Serif" font-size="10.00" fill="grey"> m_eventLoop</text>
</g>
<!-- Node8 -->
<g id="Node000008" class="node">
<title>Node8</title>
<g id="a_Node000008"><a xlink:href="class_cpl_1_1_system_1_1_event_loop.html" target="_top" xlink:title="This concrete class is a Runnable object that provides a event driven execution model for a thread.">
<polygon fill="white" stroke="#666666" points="948.25,-200 827.25,-200 827.25,-180 948.25,-180 948.25,-200"/>
<text text-anchor="middle" x="887.75" y="-186.5" font-family="Helvetica,sans-Serif" font-size="10.00">Cpl::System::EventLoop</text>
</a>
</g>
</g>
<!-- Node6&#45;&gt;Node8 -->
<g id="edge10_Node000008_Node000006" class="edge">
<title>Node6&#45;&gt;Node8</title>
<g id="a_edge10_Node000008_Node000006"><a xlink:title=" ">
<path fill="none" stroke="#63b8ff" d="M453.2,-260.95C520.86,-267.39 627.85,-273.42 719.25,-260 760.57,-253.94 770.77,-249.22 809.25,-233 831.23,-223.73 855,-209.93 870.34,-200.47"/>
<polygon fill="#63b8ff" stroke="#63b8ff" points="453.67,-257.48 443.37,-259.98 452.98,-264.44 453.67,-257.48"/>
</a>
</g>
</g>
<!-- Node15 -->
<g id="Node000015" class="node">
<title>Node15</title>
<g id="a_Node000015"><a xlink:href="class_cpl_1_1_system_1_1_thread.html" target="_top" xlink:title="This abstract class defines the operations that can be performed on a thread.">
<polygon fill="white" stroke="#666666" points="703.12,-175 597.88,-175 597.88,-155 703.12,-155 703.12,-175"/>
<text text-anchor="middle" x="650.5" y="-161.5" font-family="Helvetica,sans-Serif" font-size="10.00">Cpl::System::Thread</text>
</a>
</g>
</g>
<!-- Node6&#45;&gt;Node15 -->
<g id="edge16_Node000015_Node000006" class="edge">
<title>Node6&#45;&gt;Node15</title>
<g id="a_edge16_Node000015_Node000006"><a xlink:title=" ">
<path fill="none" stroke="#63b8ff" d="M424.15,-238.65C463.49,-224.14 526.53,-201.44 581.75,-184 591.07,-181.06 601.18,-178.1 610.68,-175.42"/>
<polygon fill="#63b8ff" stroke="#63b8ff" points="423.06,-235.32 414.89,-242.07 425.48,-241.89 423.06,-235.32"/>
</a>
</g>
</g>
<!-- Node17 -->
<g id="Node000017" class="node">
<title>Node17</title>
<g id="a_Node000017"><a xlink:href="class_cpl_1_1_system_1_1_semaphore.html" target="_top" xlink:title="This semaphore class defines the interface for a Counting Semaphore.">
<polygon fill="white" stroke="#666666" points="713.25,-137 587.75,-137 587.75,-117 713.25,-117 713.25,-137"/>
<text text-anchor="middle" x="650.5" y="-123.5" font-family="Helvetica,sans-Serif" font-size="10.00">Cpl::System::Semaphore</text>
</a>
</g>
</g>
<!-- Node6&#45;&gt;Node17 -->
<g id="edge19_Node000017_Node000006" class="edge">
<title>Node6&#45;&gt;Node17</title>
<g id="a_edge19_Node000017_Node000006"><a xlink:title=" ">
<path fill="none" stroke="#63b8ff" d="M409.58,-236.05C429.89,-222 460.13,-201.96 488,-187 528.07,-165.49 538.92,-161.29 581.75,-146 590.38,-142.92 599.77,-140.01 608.73,-137.44"/>
<polygon fill="#63b8ff" stroke="#63b8ff" points="407.63,-233.15 401.44,-241.74 411.64,-238.88 407.63,-233.15"/>
</a>
</g>
</g>
<!-- Node7 -->
<g id="Node000007" class="node">
<title>Node7</title>
<g id="a_Node000007"><a xlink:href="class_cpl_1_1_container_1_1_item.html" target="_top" xlink:title="This class is used by the Container classes to implement a various types of singly linked containers.">
<polygon fill="white" stroke="#666666" points="104.12,-263 1.88,-263 1.88,-243 104.12,-243 104.12,-263"/>
<text text-anchor="middle" x="53" y="-249.5" font-family="Helvetica,sans-Serif" font-size="10.00">Cpl::Container::Item</text>
</a>
</g>
</g>
<!-- Node7&#45;&gt;Node6 -->
<g id="edge6_Node000006_Node000007" class="edge">
<title>Node7&#45;&gt;Node6</title>
<g id="a_edge6_Node000006_Node000007"><a xlink:title=" ">
<path fill="none" stroke="#63b8ff" d="M115.79,-253C176.62,-253 268.69,-253 327.51,-253"/>
<polygon fill="#63b8ff" stroke="#63b8ff" points="115.95,-249.5 105.95,-253 115.95,-256.5 115.95,-249.5"/>
</a>
</g>
</g>
<!-- Node8&#45;&gt;Node1 -->
<g id="edge7_Node000001_Node000008" class="edge">
<title>Node8&#45;&gt;Node1</title>
<g id="a_edge7_Node000001_Node000008"><a xlink:title=" ">
<path fill="none" stroke="#63b8ff" d="M918.66,-205.72C948.96,-221.64 994.99,-245.82 1021.09,-259.54"/>
<polygon fill="#63b8ff" stroke="#63b8ff" points="920.47,-202.72 909.99,-201.16 917.22,-208.91 920.47,-202.72"/>
</a>
</g>
</g>
<!-- Node9 -->
<g id="Node000009" class="node">
<title>Node9</title>
<g id="a_Node000009"><a xlink:href="class_cpl_1_1_system_1_1_runnable.html" target="_top" xlink:title="This is an abstract class defines the interface for an object that is &quot;executed&quot; when a Thread object...">
<polygon fill="white" stroke="#666666" points="708.75,-251 592.25,-251 592.25,-231 708.75,-231 708.75,-251"/>
<text text-anchor="middle" x="650.5" y="-237.5" font-family="Helvetica,sans-Serif" font-size="10.00">Cpl::System::Runnable</text>
</a>
</g>
</g>
<!-- Node9&#45;&gt;Node8 -->
<g id="edge8_Node000008_Node000009" class="edge">
<title>Node9&#45;&gt;Node8</title>
<g id="a_edge8_Node000008_Node000009"><a xlink:title=" ">
<path fill="none" stroke="#63b8ff" d="M720.24,-229.11C747.98,-224.01 780.24,-217.68 809.25,-211 822.83,-207.87 837.63,-203.98 850.62,-200.41"/>
<polygon fill="#63b8ff" stroke="#63b8ff" points="719.74,-225.64 710.53,-230.88 721,-232.53 719.74,-225.64"/>
</a>
</g>
</g>
<!-- Node10 -->
<g id="Node000010" class="node">
<title>Node10</title>
<g id="a_Node000010"><a xlink:href="class_cpl_1_1_system_1_1_event_flag.html" target="_top" xlink:title="This abstract class defines the interface to generated a &#39;Event Flag&#39;.">
<polygon fill="white" stroke="#666666" points="709.88,-213 591.12,-213 591.12,-193 709.88,-193 709.88,-213"/>
<text text-anchor="middle" x="650.5" y="-199.5" font-family="Helvetica,sans-Serif" font-size="10.00">Cpl::System::EventFlag</text>
</a>
</g>
</g>
<!-- Node10&#45;&gt;Node8 -->
<g id="edge9_Node000008_Node000010" class="edge">
<title>Node10&#45;&gt;Node8</title>
<g id="a_edge9_Node000008_Node000010"><a xlink:title=" ">
<path fill="none" stroke="#63b8ff" d="M721.4,-199.14C755.03,-197.28 794.93,-195.07 827.11,-193.3"/>
<polygon fill="#63b8ff" stroke="#63b8ff" points="721.56,-195.62 711.77,-199.67 721.95,-202.61 721.56,-195.62"/>
</a>
</g>
</g>
<!-- Node11 -->
<g id="Node000011" class="node">
<title>Node11</title>
<g id="a_Node000011"><a xlink:href="class_cpl_1_1_system_1_1_timer_manager.html" target="_top" xlink:title="This mostly concrete class implements manages a list of Software Timers.">
<polygon fill="white" stroke="#666666" points="719.25,-49 581.75,-49 581.75,-29 719.25,-29 719.25,-49"/>
<text text-anchor="middle" x="650.5" y="-35.5" font-family="Helvetica,sans-Serif" font-size="10.00">Cpl::System::TimerManager</text>
</a>
</g>
</g>
<!-- Node11&#45;&gt;Node8 -->
<g id="edge11_Node000008_Node000011" class="edge">
<title>Node11&#45;&gt;Node8</title>
<g id="a_edge11_Node000008_Node000011"><a xlink:title=" ">
<path fill="none" stroke="#63b8ff" d="M715.24,-52.36C745.77,-60.97 781.6,-74.49 809.25,-95 842.07,-119.35 869.25,-160.61 880.79,-179.72"/>
<polygon fill="#63b8ff" stroke="#63b8ff" points="716.28,-49.02 705.72,-49.8 714.47,-55.78 716.28,-49.02"/>
</a>
</g>
</g>
<!-- Node12 -->
<g id="Node000012" class="node">
<title>Node12</title>
<g id="a_Node000012"><a xlink:href="class_cpl_1_1_system_1_1_counter_source__.html" target="_top" xlink:title="This abstract class defines the interface for registering for an Counter object with the Timer Manage...">
<polygon fill="white" stroke="#666666" points="457.62,-70 311.88,-70 311.88,-50 457.62,-50 457.62,-70"/>
<text text-anchor="middle" x="384.75" y="-56.5" font-family="Helvetica,sans-Serif" font-size="10.00">Cpl::System::CounterSource_</text>
</a>
</g>
</g>
<!-- Node12&#45;&gt;Node11 -->
<g id="edge12_Node000011_Node000012" class="edge">
<title>Node12&#45;&gt;Node11</title>
<g id="a_edge12_Node000011_Node000012"><a xlink:title=" ">
<path fill="none" stroke="#63b8ff" d="M469.28,-53.48C499.1,-51.14 532.93,-48.47 563.75,-46 569.56,-45.53 575.58,-45.05 581.63,-44.56"/>
<polygon fill="#63b8ff" stroke="#63b8ff" points="469.27,-49.97 459.58,-54.24 469.82,-56.95 469.27,-49.97"/>
</a>
</g>
</g>
<!-- Node13 -->
<g id="Node000013" class="node">
<title>Node13</title>
<g id="a_Node000013"><a xlink:href="class_cpl_1_1_container_1_1_d_list.html" target="_top" xlink:title=" ">
<polygon fill="white" stroke="#666666" points="470,-32 299.5,-32 299.5,0 470,0 470,-32"/>
<text text-anchor="start" x="307.5" y="-18.5" font-family="Helvetica,sans-Serif" font-size="10.00">Cpl::Container::DList</text>
<text text-anchor="middle" x="384.75" y="-6.5" font-family="Helvetica,sans-Serif" font-size="10.00">&lt; Cpl::System::CounterCallback_ &gt;</text>
</a>
</g>
</g>
<!-- Node13&#45;&gt;Node11 -->
<g id="edge13_Node000011_Node000013" class="edge">
<title>Node13&#45;&gt;Node11</title>
<g id="a_edge13_Node000011_Node000013"><a xlink:title=" ">
<path fill="none" stroke="#9a32cd" stroke-dasharray="5,2" d="M481.52,-13.06C508.22,-13.33 537.19,-14.64 563.75,-18 580.78,-20.15 599.32,-24.44 614.79,-28.58"/>
<polygon fill="#9a32cd" stroke="#9a32cd" points="481.76,-9.56 471.74,-13.01 481.73,-16.56 481.76,-9.56"/>
</a>
</g>
<text text-anchor="middle" x="525.88" y="-32.5" font-family="Helvetica,sans-Serif" font-size="10.00" fill="grey"> m_counters</text>
<text text-anchor="middle" x="525.88" y="-20.5" font-family="Helvetica,sans-Serif" font-size="10.00" fill="grey">m_pendingAttach</text>
</g>
<!-- Node14 -->
<g id="Node000014" class="node">
<title>Node14</title>
<g id="a_Node000014"><a xlink:href="class_cpl_1_1_container_1_1_d_list.html" target="_top" xlink:title="This template class implements a Doubly linked list which maintains the ordering imposed on it by the...">
<polygon fill="white" stroke="#666666" points="106,-32 0,-32 0,0 106,0 106,-32"/>
<text text-anchor="start" x="8" y="-18.5" font-family="Helvetica,sans-Serif" font-size="10.00">Cpl::Container::DList</text>
<text text-anchor="middle" x="53" y="-6.5" font-family="Helvetica,sans-Serif" font-size="10.00">&lt; ITEM &gt;</text>
</a>
</g>
</g>
<!-- Node14&#45;&gt;Node13 -->
<g id="edge14_Node000013_Node000014" class="edge">
<title>Node14&#45;&gt;Node13</title>
<g id="a_edge14_Node000013_Node000014"><a xlink:title=" ">
<path fill="none" stroke="orange" stroke-dasharray="5,2" d="M117.59,-16C169.3,-16 242.69,-16 299.32,-16"/>
<polygon fill="orange" stroke="orange" points="117.76,-12.5 107.76,-16 117.76,-19.5 117.76,-12.5"/>
</a>
</g>
<text text-anchor="middle" x="202.75" y="-18.5" font-family="Helvetica,sans-Serif" font-size="10.00" fill="grey"> &lt; Cpl::System::CounterCallback_ &gt;</text>
</g>
<!-- Node15&#45;&gt;Node8 -->
<g id="edge15_Node000008_Node000015" class="edge">
<title>Node15&#45;&gt;Node8</title>
<g id="a_edge15_Node000008_Node000015"><a xlink:title=" ">
<path fill="none" stroke="#9a32cd" stroke-dasharray="5,2" d="M714.61,-169.84C743.5,-172.25 778.14,-175.41 809.25,-179 815.06,-179.67 821.1,-180.42 827.13,-181.22"/>
<polygon fill="#9a32cd" stroke="#9a32cd" points="715.2,-166.37 704.94,-169.04 714.62,-173.35 715.2,-166.37"/>
</a>
</g>
<text text-anchor="middle" x="773.25" y="-181.5" font-family="Helvetica,sans-Serif" font-size="10.00" fill="grey"> m_myThreadPtr</text>
</g>
<!-- Node16 -->
<g id="Node000016" class="node">
<title>Node16</title>
<g id="a_Node000016"><a xlink:href="class_cpl_1_1_system_1_1_shared_event_handler_api.html" target="_top" xlink:title="This abstract class defines the interface for a Shared Event Handler.">
<polygon fill="white" stroke="#666666" points="715.88,-99 585.12,-99 585.12,-67 715.88,-67 715.88,-99"/>
<text text-anchor="start" x="593.12" y="-85.5" font-family="Helvetica,sans-Serif" font-size="10.00">Cpl::System::SharedEvent</text>
<text text-anchor="middle" x="650.5" y="-73.5" font-family="Helvetica,sans-Serif" font-size="10.00">HandlerApi</text>
</a>
</g>
</g>
<!-- Node16&#45;&gt;Node8 -->
<g id="edge17_Node000008_Node000016" class="edge">
<title>Node16&#45;&gt;Node8</title>
<g id="a_edge17_Node000008_Node000016"><a xlink:title=" ">
<path fill="none" stroke="#9a32cd" stroke-dasharray="5,2" d="M726.97,-96.02C753.89,-102.47 783.83,-111.8 809.25,-125 836.99,-139.41 863.62,-165.2 877.28,-179.59"/>
<polygon fill="#9a32cd" stroke="#9a32cd" points="728.03,-92.67 717.5,-93.85 726.47,-99.5 728.03,-92.67"/>
</a>
</g>
<text text-anchor="middle" x="773.25" y="-127.5" font-family="Helvetica,sans-Serif" font-size="10.00" fill="grey"> m_eventHandler</text>
</g>
<!-- Node17&#45;&gt;Node8 -->
<g id="edge18_Node000008_Node000017" class="edge">
<title>Node17&#45;&gt;Node8</title>
<g id="a_edge18_Node000008_Node000017"><a xlink:title=" ">
<path fill="none" stroke="#9a32cd" stroke-dasharray="5,2" d="M724.94,-137.6C751.78,-142.35 782.18,-148.77 809.25,-157 828.98,-163 850.48,-172.4 865.83,-179.64"/>
<polygon fill="#9a32cd" stroke="#9a32cd" points="725.61,-134.16 715.17,-135.92 724.43,-141.06 725.61,-134.16"/>
</a>
</g>
<text text-anchor="middle" x="773.25" y="-159.5" font-family="Helvetica,sans-Serif" font-size="10.00" fill="grey"> m_sema</text>
</g>
</g>
</svg>
