<?xml version="1.0" encoding="UTF-8" standalone="no"?>
<!DOCTYPE svg PUBLIC "-//W3C//DTD SVG 1.1//EN"
 "http://www.w3.org/Graphics/SVG/1.1/DTD/svg11.dtd">
<!-- Generated by graphviz version 2.38.0 (20140413.2041)
 -->
<!-- Title: Cpl::Dm::Mp::Int64 Pages: 1 -->
<svg width="392pt" height="365pt"
 viewBox="0.00 0.00 392.00 365.00" xmlns="http://www.w3.org/2000/svg" xmlns:xlink="http://www.w3.org/1999/xlink">
<g id="graph0" class="graph" transform="scale(1 1) rotate(0) translate(4 361)">
<title>Cpl::Dm::Mp::Int64</title>
<polygon fill="white" stroke="none" points="-4,4 -4,-361 388,-361 388,4 -4,4"/>
<!-- Node1 -->
<g id="node1" class="node"><title>Node1</title>
<g id="a_node1"><a xlink:title="This class provides a concrete implementation for a Point who&#39;s data is a int64_t.">
<polygon fill="#bfbfbf" stroke="black" points="106.5,-0.5 106.5,-19.5 205.5,-19.5 205.5,-0.5 106.5,-0.5"/>
<text text-anchor="middle" x="156" y="-7.5" font-family="Helvetica,sans-Serif" font-size="10.00">Cpl::Dm::Mp::Int64</text>
</a>
</g>
</g>
<!-- Node2 -->
<g id="node2" class="node"><title>Node2</title>
<g id="a_node2"><a xlink:href="class_cpl_1_1_dm_1_1_mp_1_1_numeric.html" target="_top" xlink:title=" ">
<polygon fill="white" stroke="black" points="99.5,-57.5 99.5,-87.5 212.5,-87.5 212.5,-57.5 99.5,-57.5"/>
<text text-anchor="start" x="107.5" y="-75.5" font-family="Helvetica,sans-Serif" font-size="10.00">Cpl::Dm::Mp::Numeric</text>
<text text-anchor="middle" x="156" y="-64.5" font-family="Helvetica,sans-Serif" font-size="10.00">&lt; int64_t, Int64 &gt;</text>
</a>
</g>
</g>
<!-- Node2&#45;&gt;Node1 -->
<g id="edge1" class="edge"><title>Node2&#45;&gt;Node1</title>
<path fill="none" stroke="midnightblue" d="M156,-47.3524C156,-37.5132 156,-26.7753 156,-19.5399"/>
<polygon fill="midnightblue" stroke="midnightblue" points="152.5,-47.468 156,-57.468 159.5,-47.4681 152.5,-47.468"/>
</g>
<!-- Node3 -->
<g id="node3" class="node"><title>Node3</title>
<g id="a_node3"><a xlink:href="class_cpl_1_1_dm_1_1_model_point_common__.html" target="_top" xlink:title="This concrete class provide common infrastructure for a Model Point.">
<polygon fill="white" stroke="black" points="60.5,-203.5 60.5,-222.5 211.5,-222.5 211.5,-203.5 60.5,-203.5"/>
<text text-anchor="middle" x="136" y="-210.5" font-family="Helvetica,sans-Serif" font-size="10.00">Cpl::Dm::ModelPointCommon_</text>
</a>
</g>
</g>
<!-- Node3&#45;&gt;Node2 -->
<g id="edge2" class="edge"><title>Node3&#45;&gt;Node2</title>
<path fill="none" stroke="midnightblue" d="M137.102,-193.008C138.158,-177.378 140.037,-154.674 143,-135 145.47,-118.597 149.59,-99.9916 152.53,-87.5816"/>
<polygon fill="midnightblue" stroke="midnightblue" points="133.582,-193.215 136.45,-203.415 140.568,-193.653 133.582,-193.215"/>
</g>
<!-- Node9 -->
<g id="node9" class="node"><title>Node9</title>
<g id="a_node9"><a xlink:href="class_cpl_1_1_dm_1_1_mp_1_1_numeric.html" target="_top" xlink:title="This template class provides a mostly concrete implementation for a Model Point who&#39;s data is a C num...">
<polygon fill="white" stroke="black" points="152.5,-135.5 152.5,-165.5 287.5,-165.5 287.5,-135.5 152.5,-135.5"/>
<text text-anchor="start" x="160.5" y="-153.5" font-family="Helvetica,sans-Serif" font-size="10.00">Cpl::Dm::Mp::Numeric</text>
<text text-anchor="middle" x="220" y="-142.5" font-family="Helvetica,sans-Serif" font-size="10.00">&lt; ELEMTYPE, MPTYPE &gt;</text>
</a>
</g>
</g>
<!-- Node3&#45;&gt;Node9 -->
<g id="edge9" class="edge"><title>Node3&#45;&gt;Node9</title>
<path fill="none" stroke="midnightblue" d="M156.192,-197.457C169.643,-187.769 187.225,-175.106 200.526,-165.526"/>
<polygon fill="midnightblue" stroke="midnightblue" points="154.104,-194.647 148.035,-203.332 158.195,-200.328 154.104,-194.647"/>
</g>
<!-- Node4 -->
<g id="node4" class="node"><title>Node4</title>
<g id="a_node4"><a xlink:href="class_cpl_1_1_dm_1_1_model_point.html" target="_top" xlink:title="This mostly abstract class defines the interface for a Model Point.">
<polygon fill="white" stroke="black" points="1.5,-270.5 1.5,-289.5 108.5,-289.5 108.5,-270.5 1.5,-270.5"/>
<text text-anchor="middle" x="55" y="-277.5" font-family="Helvetica,sans-Serif" font-size="10.00">Cpl::Dm::ModelPoint</text>
</a>
</g>
</g>
<!-- Node4&#45;&gt;Node3 -->
<g id="edge3" class="edge"><title>Node4&#45;&gt;Node3</title>
<path fill="none" stroke="midnightblue" d="M74.0495,-263.713C90.0082,-250.907 112.213,-233.088 125.249,-222.627"/>
<polygon fill="midnightblue" stroke="midnightblue" points="71.5328,-261.245 65.924,-270.234 75.9139,-266.705 71.5328,-261.245"/>
</g>
<!-- Node5 -->
<g id="node5" class="node"><title>Node5</title>
<g id="a_node5"><a xlink:href="class_cpl_1_1_container_1_1_item.html" target="_top" xlink:title="This class is used by the Container classes to implement a various types of singly linked containers.">
<polygon fill="white" stroke="black" points="0,-337.5 0,-356.5 104,-356.5 104,-337.5 0,-337.5"/>
<text text-anchor="middle" x="52" y="-344.5" font-family="Helvetica,sans-Serif" font-size="10.00">Cpl::Container::Item</text>
</a>
</g>
</g>
<!-- Node5&#45;&gt;Node4 -->
<g id="edge4" class="edge"><title>Node5&#45;&gt;Node4</title>
<path fill="none" stroke="midnightblue" d="M52.8752,-327.037C53.446,-314.67 54.1637,-299.12 54.6018,-289.627"/>
<polygon fill="midnightblue" stroke="midnightblue" points="49.3695,-327.083 52.4046,-337.234 56.362,-327.406 49.3695,-327.083"/>
</g>
<!-- Node6 -->
<g id="node6" class="node"><title>Node6</title>
<g id="a_node6"><a xlink:href="class_cpl_1_1_dm_1_1_model_database.html" target="_top" xlink:title="This concrete class implements a simple Model Database.">
<polygon fill="white" stroke="black" points="129.5,-270.5 129.5,-289.5 254.5,-289.5 254.5,-270.5 129.5,-270.5"/>
<text text-anchor="middle" x="192" y="-277.5" font-family="Helvetica,sans-Serif" font-size="10.00">Cpl::Dm::ModelDatabase</text>
</a>
</g>
</g>
<!-- Node6&#45;&gt;Node3 -->
<g id="edge5" class="edge"><title>Node6&#45;&gt;Node3</title>
<path fill="none" stroke="#9a32cd" stroke-dasharray="5,2" d="M177.901,-262.635C166.949,-249.923 152.195,-232.798 143.433,-222.627"/>
<polygon fill="#9a32cd" stroke="#9a32cd" points="175.269,-264.942 184.448,-270.234 180.572,-260.373 175.269,-264.942"/>
<text text-anchor="middle" x="210.5" y="-244" font-family="Helvetica,sans-Serif" font-size="10.00"> m_modelDatabase</text>
</g>
<!-- Node7 -->
<g id="node7" class="node"><title>Node7</title>
<g id="a_node7"><a xlink:href="class_cpl_1_1_dm_1_1_model_database_api.html" target="_top" xlink:title="This class defines the basic operations that can be performed on a Model Base.">
<polygon fill="white" stroke="black" points="122,-337.5 122,-356.5 262,-356.5 262,-337.5 122,-337.5"/>
<text text-anchor="middle" x="192" y="-344.5" font-family="Helvetica,sans-Serif" font-size="10.00">Cpl::Dm::ModelDatabaseApi</text>
</a>
</g>
</g>
<!-- Node7&#45;&gt;Node6 -->
<g id="edge6" class="edge"><title>Node7&#45;&gt;Node6</title>
<path fill="none" stroke="midnightblue" d="M192,-327.037C192,-314.67 192,-299.12 192,-289.627"/>
<polygon fill="midnightblue" stroke="midnightblue" points="188.5,-327.234 192,-337.234 195.5,-327.234 188.5,-327.234"/>
</g>
<!-- Node8 -->
<g id="node8" class="node"><title>Node8</title>
<g id="a_node8"><a xlink:href="class_cpl_1_1_system_1_1_mutex.html" target="_top" xlink:title="This mutex class defines the interface for a mutex that has &quot;recursive&quot; semantics.">
<polygon fill="white" stroke="black" points="280,-337.5 280,-356.5 384,-356.5 384,-337.5 280,-337.5"/>
<text text-anchor="middle" x="332" y="-344.5" font-family="Helvetica,sans-Serif" font-size="10.00">Cpl::System::Mutex</text>
</a>
</g>
</g>
<!-- Node8&#45;&gt;Node6 -->
<g id="edge7" class="edge"><title>Node8&#45;&gt;Node6</title>
<path fill="none" stroke="#9a32cd" stroke-dasharray="5,2" d="M304.243,-333.113C276.514,-320.239 234.659,-300.806 210.668,-289.667"/>
<polygon fill="#9a32cd" stroke="#9a32cd" points="302.865,-336.332 313.409,-337.369 305.813,-329.983 302.865,-336.332"/>
<text text-anchor="middle" x="288.5" y="-311" font-family="Helvetica,sans-Serif" font-size="10.00"> m_lock</text>
</g>
<!-- Node9&#45;&gt;Node2 -->
<g id="edge8" class="edge"><title>Node9&#45;&gt;Node2</title>
<path fill="none" stroke="orange" stroke-dasharray="5,2" d="M201.311,-127.307C190.554,-114.533 177.355,-98.8596 167.984,-87.7309"/>
<polygon fill="orange" stroke="orange" points="198.844,-129.81 207.962,-135.205 204.198,-125.301 198.844,-129.81"/>
<text text-anchor="middle" x="231.5" y="-109" font-family="Helvetica,sans-Serif" font-size="10.00"> &lt; int64_t, Int64 &gt;</text>
</g>
</g>
</svg>
