<?xml version="1.0" encoding="UTF-8" standalone="no"?>
<!DOCTYPE svg PUBLIC "-//W3C//DTD SVG 1.1//EN"
 "http://www.w3.org/Graphics/SVG/1.1/DTD/svg11.dtd">
<!-- Generated by graphviz version 2.38.0 (20140413.2041)
 -->
<!-- Title: Cpl::Io::Socket::Connector Pages: 1 -->
<svg width="254pt" height="95pt"
 viewBox="0.00 0.00 254.00 95.00" xmlns="http://www.w3.org/2000/svg" xmlns:xlink="http://www.w3.org/1999/xlink">
<g id="graph0" class="graph" transform="scale(1 1) rotate(0) translate(4 91)">
<title>Cpl::Io::Socket::Connector</title>
<polygon fill="white" stroke="none" points="-4,4 -4,-91 250,-91 250,4 -4,4"/>
<!-- Node1 -->
<g id="node1" class="node"><title>Node1</title>
<g id="a_node1"><a xlink:title="This abstract class defines the interface for establishing/requesting a SIMPLE socket connection,...">
<polygon fill="#bfbfbf" stroke="black" points="56.5,-67.5 56.5,-86.5 188.5,-86.5 188.5,-67.5 56.5,-67.5"/>
<text text-anchor="middle" x="122.5" y="-74.5" font-family="Helvetica,sans-Serif" font-size="10.00">Cpl::Io::Socket::Connector</text>
</a>
</g>
</g>
<!-- Node2 -->
<g id="node2" class="node"><title>Node2</title>
<g id="a_node2"><a xlink:href="class_cpl_1_1_io_1_1_socket_1_1_posix_1_1_connector.html" target="_top" xlink:title="This concrete class implements the Cpl::Io::Socket::Connector interface using IPv4/IPv6 addressing fo...">
<polygon fill="white" stroke="black" points="0,-0.5 0,-30.5 113,-30.5 113,-0.5 0,-0.5"/>
<text text-anchor="start" x="8" y="-18.5" font-family="Helvetica,sans-Serif" font-size="10.00">Cpl::Io::Socket::Posix</text>
<text text-anchor="middle" x="56.5" y="-7.5" font-family="Helvetica,sans-Serif" font-size="10.00">::Connector</text>
</a>
</g>
</g>
<!-- Node1&#45;&gt;Node2 -->
<g id="edge1" class="edge"><title>Node1&#45;&gt;Node2</title>
<path fill="none" stroke="midnightblue" d="M105.469,-60.6459C95.1523,-51.3456 82.0925,-39.572 72.0549,-30.523"/>
<polygon fill="midnightblue" stroke="midnightblue" points="103.273,-63.3788 113.044,-67.4751 107.96,-58.1796 103.273,-63.3788"/>
</g>
<!-- Node3 -->
<g id="node3" class="node"><title>Node3</title>
<g id="a_node3"><a xlink:href="class_cpl_1_1_io_1_1_socket_1_1_win32_1_1_connector.html" target="_top" xlink:title="This concrete class implements the Cpl::Io::Socket::Connector interface using IPv4/IPv6 addressing fo...">
<polygon fill="white" stroke="black" points="131,-0.5 131,-30.5 246,-30.5 246,-0.5 131,-0.5"/>
<text text-anchor="start" x="139" y="-18.5" font-family="Helvetica,sans-Serif" font-size="10.00">Cpl::Io::Socket::Win32</text>
<text text-anchor="middle" x="188.5" y="-7.5" font-family="Helvetica,sans-Serif" font-size="10.00">::Connector</text>
</a>
</g>
</g>
<!-- Node1&#45;&gt;Node3 -->
<g id="edge2" class="edge"><title>Node1&#45;&gt;Node3</title>
<path fill="none" stroke="midnightblue" d="M139.531,-60.6459C149.848,-51.3456 162.908,-39.572 172.945,-30.523"/>
<polygon fill="midnightblue" stroke="midnightblue" points="137.04,-58.1796 131.956,-67.4751 141.727,-63.3788 137.04,-58.1796"/>
</g>
</g>
</svg>
