<?xml version="1.0" encoding="UTF-8" standalone="no"?>
<!DOCTYPE svg PUBLIC "-//W3C//DTD SVG 1.1//EN"
 "http://www.w3.org/Graphics/SVG/1.1/DTD/svg11.dtd">
<!-- Generated by graphviz version 10.0.1 (20240210.2158)
 -->
<!-- Title: Cpl::Io::File::Input Pages: 1 -->
<svg width="323pt" height="278pt"
 viewBox="0.00 0.00 323.12 278.00" xmlns="http://www.w3.org/2000/svg" xmlns:xlink="http://www.w3.org/1999/xlink">
<g id="graph0" class="graph" transform="scale(1 1) rotate(0) translate(4 274)">
<title>Cpl::Io::File::Input</title>
<!-- Node1 -->
<g id="Node000001" class="node">
<title>Node1</title>
<g id="a_Node000001"><a xlink:title="This concrete class provides a platform independent &#39;standard&#39; implementation of a Cpl::Io::File::Inp...">
<polygon fill="#999999" stroke="#666666" points="221.25,-20 128.75,-20 128.75,0 221.25,0 221.25,-20"/>
<text text-anchor="middle" x="175" y="-6.5" font-family="Helvetica,sans-Serif" font-size="10.00">Cpl::Io::File::Input</text>
</a>
</g>
</g>
<!-- Node2 -->
<g id="Node000002" class="node">
<title>Node2</title>
<g id="a_Node000002"><a xlink:href="class_cpl_1_1_io_1_1_file_1_1_input_api.html" target="_top" xlink:title="This abstract class defines the interface for a Random Access Input File.">
<polygon fill="white" stroke="#666666" points="290.38,-88 183.62,-88 183.62,-68 290.38,-68 290.38,-88"/>
<text text-anchor="middle" x="237" y="-74.5" font-family="Helvetica,sans-Serif" font-size="10.00">Cpl::Io::File::InputApi</text>
</a>
</g>
</g>
<!-- Node2&#45;&gt;Node1 -->
<g id="edge1_Node000001_Node000002" class="edge">
<title>Node2&#45;&gt;Node1</title>
<g id="a_edge1_Node000001_Node000002"><a xlink:title=" ">
<path fill="none" stroke="#63b8ff" d="M220.33,-59.25C208.59,-46.76 193.34,-30.53 183.87,-20.44"/>
<polygon fill="#63b8ff" stroke="#63b8ff" points="217.68,-61.55 227.08,-66.44 222.78,-56.76 217.68,-61.55"/>
</a>
</g>
</g>
<!-- Node3 -->
<g id="Node000003" class="node">
<title>Node3</title>
<g id="a_Node000003"><a xlink:href="class_cpl_1_1_io_1_1_input.html" target="_top" xlink:title="This partially abstract class defines a interface for operating on an input stream (example of a stre...">
<polygon fill="white" stroke="#666666" points="182.38,-156 111.62,-156 111.62,-136 182.38,-136 182.38,-156"/>
<text text-anchor="middle" x="147" y="-142.5" font-family="Helvetica,sans-Serif" font-size="10.00">Cpl::Io::Input</text>
</a>
</g>
</g>
<!-- Node3&#45;&gt;Node2 -->
<g id="edge2_Node000002_Node000003" class="edge">
<title>Node3&#45;&gt;Node2</title>
<g id="a_edge2_Node000002_Node000003"><a xlink:title=" ">
<path fill="none" stroke="#63b8ff" d="M168.76,-129.04C186.07,-116.35 209.7,-99.02 224.13,-88.44"/>
<polygon fill="#63b8ff" stroke="#63b8ff" points="167.11,-125.91 161.12,-134.65 171.25,-131.56 167.11,-125.91"/>
</a>
</g>
</g>
<!-- Node8 -->
<g id="Node000008" class="node">
<title>Node8</title>
<g id="a_Node000008"><a xlink:href="class_cpl_1_1_io_1_1_stdio_1_1_input__.html" target="_top" xlink:title="This concrete class implements a Input stream using the underlying platform&#39;s native OS &#39;file interfa...">
<polygon fill="white" stroke="#666666" points="165.25,-88 60.75,-88 60.75,-68 165.25,-68 165.25,-88"/>
<text text-anchor="middle" x="113" y="-74.5" font-family="Helvetica,sans-Serif" font-size="10.00">Cpl::Io::Stdio::Input_</text>
</a>
</g>
</g>
<!-- Node3&#45;&gt;Node8 -->
<g id="edge8_Node000008_Node000003" class="edge">
<title>Node3&#45;&gt;Node8</title>
<g id="a_edge8_Node000008_Node000003"><a xlink:title=" ">
<path fill="none" stroke="#63b8ff" d="M136.91,-125.4C130.62,-113.2 122.81,-98.04 117.86,-88.44"/>
<polygon fill="#63b8ff" stroke="#63b8ff" points="133.74,-126.91 141.44,-134.2 139.97,-123.71 133.74,-126.91"/>
</a>
</g>
</g>
<!-- Node4 -->
<g id="Node000004" class="node">
<title>Node4</title>
<g id="a_Node000004"><a xlink:href="class_cpl_1_1_io_1_1_close.html" target="_top" xlink:title="This abstract class defines a close operation that is intended to be used Input and Output streams/fi...">
<polygon fill="white" stroke="#666666" points="121.25,-213 46.75,-213 46.75,-193 121.25,-193 121.25,-213"/>
<text text-anchor="middle" x="84" y="-199.5" font-family="Helvetica,sans-Serif" font-size="10.00">Cpl::Io::Close</text>
</a>
</g>
</g>
<!-- Node4&#45;&gt;Node3 -->
<g id="edge3_Node000003_Node000004" class="edge">
<title>Node4&#45;&gt;Node3</title>
<g id="a_edge3_Node000003_Node000004"><a xlink:title=" ">
<path fill="none" stroke="#63b8ff" d="M103.18,-185.26C114.12,-175.71 127.41,-164.1 136.47,-156.19"/>
<polygon fill="#63b8ff" stroke="#63b8ff" points="101.06,-182.46 95.83,-191.67 105.66,-187.73 101.06,-182.46"/>
</a>
</g>
</g>
<!-- Node5 -->
<g id="Node000005" class="node">
<title>Node5</title>
<g id="a_Node000005"><a xlink:href="class_cpl_1_1_container_1_1_item.html" target="_top" xlink:title="This class is used by the Container classes to implement a various types of singly linked containers.">
<polygon fill="white" stroke="#666666" points="135.12,-270 32.88,-270 32.88,-250 135.12,-250 135.12,-270"/>
<text text-anchor="middle" x="84" y="-256.5" font-family="Helvetica,sans-Serif" font-size="10.00">Cpl::Container::Item</text>
</a>
</g>
</g>
<!-- Node5&#45;&gt;Node4 -->
<g id="edge4_Node000004_Node000005" class="edge">
<title>Node5&#45;&gt;Node4</title>
<g id="a_edge4_Node000004_Node000005"><a xlink:title=" ">
<path fill="none" stroke="#63b8ff" d="M84,-238.69C84,-229.97 84,-220.22 84,-213.28"/>
<polygon fill="#63b8ff" stroke="#63b8ff" points="80.5,-238.4 84,-248.4 87.5,-238.4 80.5,-238.4"/>
</a>
</g>
</g>
<!-- Node6 -->
<g id="Node000006" class="node">
<title>Node6</title>
<g id="a_Node000006"><a xlink:href="class_cpl_1_1_io_1_1_is_eos.html" target="_top" xlink:title="This abstract class defines a isEos() operation that is intended to be used Input and Output streams.">
<polygon fill="white" stroke="#666666" points="214.25,-213 139.75,-213 139.75,-193 214.25,-193 214.25,-213"/>
<text text-anchor="middle" x="177" y="-199.5" font-family="Helvetica,sans-Serif" font-size="10.00">Cpl::Io::IsEos</text>
</a>
</g>
</g>
<!-- Node6&#45;&gt;Node3 -->
<g id="edge5_Node000003_Node000006" class="edge">
<title>Node6&#45;&gt;Node3</title>
<g id="a_edge5_Node000003_Node000006"><a xlink:title=" ">
<path fill="none" stroke="#63b8ff" d="M166.57,-182.88C161.66,-173.87 156.02,-163.54 152.06,-156.28"/>
<polygon fill="#63b8ff" stroke="#63b8ff" points="163.46,-184.49 171.32,-191.59 169.61,-181.13 163.46,-184.49"/>
</a>
</g>
</g>
<!-- Node7 -->
<g id="Node000007" class="node">
<title>Node7</title>
<g id="a_Node000007"><a xlink:href="class_cpl_1_1_io_1_1_file_1_1_object_api.html" target="_top" xlink:title="This abstract class defines the basic additional functionality, beyond that of a stream,...">
<polygon fill="white" stroke="#666666" points="315.12,-156 200.88,-156 200.88,-136 315.12,-136 315.12,-156"/>
<text text-anchor="middle" x="258" y="-142.5" font-family="Helvetica,sans-Serif" font-size="10.00">Cpl::Io::File::ObjectApi</text>
</a>
</g>
</g>
<!-- Node7&#45;&gt;Node2 -->
<g id="edge6_Node000002_Node000007" class="edge">
<title>Node7&#45;&gt;Node2</title>
<g id="a_edge6_Node000002_Node000007"><a xlink:title=" ">
<path fill="none" stroke="#63b8ff" d="M251.53,-124.65C247.68,-112.58 243,-97.84 240,-88.44"/>
<polygon fill="#63b8ff" stroke="#63b8ff" points="248.16,-125.63 254.53,-134.1 254.84,-123.51 248.16,-125.63"/>
</a>
</g>
</g>
<!-- Node8&#45;&gt;Node1 -->
<g id="edge7_Node000001_Node000008" class="edge">
<title>Node8&#45;&gt;Node1</title>
<g id="a_edge7_Node000001_Node000008"><a xlink:title=" ">
<path fill="none" stroke="#9a32cd" stroke-dasharray="5,2" d="M129.67,-59.25C141.41,-46.76 156.66,-30.53 166.13,-20.44"/>
<polygon fill="#9a32cd" stroke="#9a32cd" points="127.22,-56.76 122.92,-66.44 132.32,-61.55 127.22,-56.76"/>
</a>
</g>
<text text-anchor="middle" x="173.25" y="-40.5" font-family="Helvetica,sans-Serif" font-size="10.00" fill="grey"> m_stream</text>
</g>
<!-- Node9 -->
<g id="Node000009" class="node">
<title>Node9</title>
<g id="a_Node000009"><a xlink:href="union_cpl_1_1_io_1_1_descriptor.html" target="_top" xlink:title="This union defines a &#39;IO descriptor&#39; in terms of a an integer and/or a void*.">
<polygon fill="white" stroke="#666666" points="94,-156 0,-156 0,-136 94,-136 94,-156"/>
<text text-anchor="middle" x="47" y="-142.5" font-family="Helvetica,sans-Serif" font-size="10.00">Cpl::Io::Descriptor</text>
</a>
</g>
</g>
<!-- Node9&#45;&gt;Node8 -->
<g id="edge9_Node000008_Node000009" class="edge">
<title>Node9&#45;&gt;Node8</title>
<g id="a_edge9_Node000008_Node000009"><a xlink:title=" ">
<path fill="none" stroke="#9a32cd" stroke-dasharray="5,2" d="M64.39,-127.61C76.93,-115.07 93.37,-98.63 103.56,-88.44"/>
<polygon fill="#9a32cd" stroke="#9a32cd" points="62.12,-124.93 57.53,-134.47 67.07,-129.88 62.12,-124.93"/>
</a>
</g>
<text text-anchor="middle" x="103.62" y="-108.5" font-family="Helvetica,sans-Serif" font-size="10.00" fill="grey"> m_inFd</text>
</g>
</g>
</svg>
