<?xml version="1.0" encoding="UTF-8" standalone="no"?>
<!DOCTYPE svg PUBLIC "-//W3C//DTD SVG 1.1//EN"
 "http://www.w3.org/Graphics/SVG/1.1/DTD/svg11.dtd">
<!-- Generated by graphviz version 2.38.0 (20140413.2041)
 -->
<!-- Title: Cpl::Dm::MailboxServer Pages: 1 -->
<svg width="1034pt" height="211pt"
 viewBox="0.00 0.00 1034.00 210.50" xmlns="http://www.w3.org/2000/svg" xmlns:xlink="http://www.w3.org/1999/xlink">
<g id="graph0" class="graph" transform="scale(1 1) rotate(0) translate(4 206.5)">
<title>Cpl::Dm::MailboxServer</title>
<polygon fill="white" stroke="none" points="-4,4 -4,-206.5 1030,-206.5 1030,4 -4,4"/>
<!-- Node1 -->
<g id="node1" class="node"><title>Node1</title>
<g id="a_node1"><a xlink:title="This class extends the Cpl::Dm::EventLoop and Cpl::Itc:Mailbox classes to support the asynchronous ch...">
<polygon fill="#bfbfbf" stroke="black" points="723,-70 723,-89 843,-89 843,-70 723,-70"/>
<text text-anchor="middle" x="783" y="-77" font-family="Helvetica,sans-Serif" font-size="10.00">Cpl::Dm::MailboxServer</text>
</a>
</g>
</g>
<!-- Node15 -->
<g id="node15" class="node"><title>Node15</title>
<g id="a_node15"><a xlink:href="class_cpl_1_1_persistent_1_1_record_server.html" target="_top" xlink:title="This concrete class provides an Event driven Runnable object for executing the read/write operation t...">
<polygon fill="white" stroke="black" points="880,-70 880,-89 1026,-89 1026,-70 880,-70"/>
<text text-anchor="middle" x="953" y="-77" font-family="Helvetica,sans-Serif" font-size="10.00">Cpl::Persistent::RecordServer</text>
</a>
</g>
</g>
<!-- Node1&#45;&gt;Node15 -->
<g id="edge14" class="edge"><title>Node1&#45;&gt;Node15</title>
<path fill="none" stroke="midnightblue" d="M853.341,-79.5C862.058,-79.5 870.993,-79.5 879.754,-79.5"/>
<polygon fill="midnightblue" stroke="midnightblue" points="853.231,-76.0001 843.231,-79.5 853.23,-83.0001 853.231,-76.0001"/>
</g>
<!-- Node2 -->
<g id="node2" class="node"><title>Node2</title>
<g id="a_node2"><a xlink:href="class_cpl_1_1_dm_1_1_event_loop.html" target="_top" xlink:title="This class extends the Cpl::System::EventLoop class to support the asynchronous change notification g...">
<polygon fill="white" stroke="black" points="582,-88 582,-107 686,-107 686,-88 582,-88"/>
<text text-anchor="middle" x="634" y="-95" font-family="Helvetica,sans-Serif" font-size="10.00">Cpl::Dm::EventLoop</text>
</a>
</g>
</g>
<!-- Node2&#45;&gt;Node1 -->
<g id="edge1" class="edge"><title>Node2&#45;&gt;Node1</title>
<path fill="none" stroke="midnightblue" d="M696.18,-90.0086C704.973,-88.9319 714.007,-87.8256 722.761,-86.7537"/>
<polygon fill="midnightblue" stroke="midnightblue" points="695.501,-86.5654 686.001,-91.255 696.352,-93.5135 695.501,-86.5654"/>
</g>
<!-- Node3 -->
<g id="node3" class="node"><title>Node3</title>
<g id="a_node3"><a xlink:href="class_cpl_1_1_system_1_1_event_loop.html" target="_top" xlink:title="This concrete class is a Runnable object that provides a event driven execution model for a thread.">
<polygon fill="white" stroke="black" points="420.5,-126 420.5,-145 543.5,-145 543.5,-126 420.5,-126"/>
<text text-anchor="middle" x="482" y="-133" font-family="Helvetica,sans-Serif" font-size="10.00">Cpl::System::EventLoop</text>
</a>
</g>
</g>
<!-- Node3&#45;&gt;Node2 -->
<g id="edge2" class="edge"><title>Node3&#45;&gt;Node2</title>
<path fill="none" stroke="midnightblue" d="M530.811,-123.388C551.702,-118.096 575.847,-111.979 595.421,-107.02"/>
<polygon fill="midnightblue" stroke="midnightblue" points="529.686,-120.062 520.851,-125.911 531.405,-126.848 529.686,-120.062"/>
</g>
<!-- Node4 -->
<g id="node4" class="node"><title>Node4</title>
<g id="a_node4"><a xlink:href="class_cpl_1_1_system_1_1_runnable.html" target="_top" xlink:title="This is an abstract class defines the interface for an object that is &quot;executed&quot; when a Thread object...">
<polygon fill="white" stroke="black" points="194,-183 194,-202 311,-202 311,-183 194,-183"/>
<text text-anchor="middle" x="252.5" y="-190" font-family="Helvetica,sans-Serif" font-size="10.00">Cpl::System::Runnable</text>
</a>
</g>
</g>
<!-- Node4&#45;&gt;Node3 -->
<g id="edge3" class="edge"><title>Node4&#45;&gt;Node3</title>
<path fill="none" stroke="midnightblue" d="M307.525,-180.773C335.509,-174.515 370.185,-166.475 401,-158.5 416.949,-154.372 434.558,-149.36 449.185,-145.069"/>
<polygon fill="midnightblue" stroke="midnightblue" points="306.539,-177.407 297.538,-182.994 308.059,-184.24 306.539,-177.407"/>
</g>
<!-- Node5 -->
<g id="node5" class="node"><title>Node5</title>
<g id="a_node5"><a xlink:href="class_cpl_1_1_system_1_1_event_flag.html" target="_top" xlink:title="This abstract class defines the interface to generated a &#39;Event Flag&#39;.">
<polygon fill="white" stroke="black" points="192,-145 192,-164 313,-164 313,-145 192,-145"/>
<text text-anchor="middle" x="252.5" y="-152" font-family="Helvetica,sans-Serif" font-size="10.00">Cpl::System::EventFlag</text>
</a>
</g>
</g>
<!-- Node5&#45;&gt;Node3 -->
<g id="edge4" class="edge"><title>Node5&#45;&gt;Node3</title>
<path fill="none" stroke="midnightblue" d="M323.569,-148.648C354.556,-146.06 390.641,-143.046 420.44,-140.558"/>
<polygon fill="midnightblue" stroke="midnightblue" points="322.947,-145.188 313.273,-149.508 323.53,-152.163 322.947,-145.188"/>
</g>
<!-- Node6 -->
<g id="node6" class="node"><title>Node6</title>
<g id="a_node6"><a xlink:href="class_cpl_1_1_system_1_1_signable.html" target="_top" xlink:title="This abstract class defines the interface by which a client can cause an object that is waiting&#45;on&#45;a&#45;...">
<polygon fill="white" stroke="black" points="195.5,-107 195.5,-126 309.5,-126 309.5,-107 195.5,-107"/>
<text text-anchor="middle" x="252.5" y="-114" font-family="Helvetica,sans-Serif" font-size="10.00">Cpl::System::Signable</text>
</a>
</g>
</g>
<!-- Node6&#45;&gt;Node3 -->
<g id="edge5" class="edge"><title>Node6&#45;&gt;Node3</title>
<path fill="none" stroke="midnightblue" d="M319.809,-122.038C351.533,-124.687 389.254,-127.838 420.228,-130.425"/>
<polygon fill="midnightblue" stroke="midnightblue" points="319.993,-118.541 309.736,-121.197 319.41,-125.517 319.993,-118.541"/>
</g>
<!-- Node7 -->
<g id="node7" class="node"><title>Node7</title>
<g id="a_node7"><a xlink:href="class_cpl_1_1_container_1_1_item.html" target="_top" xlink:title="This class is used by the Container classes to implement a various types of singly linked containers.">
<polygon fill="white" stroke="black" points="21,-107 21,-126 125,-126 125,-107 21,-107"/>
<text text-anchor="middle" x="73" y="-114" font-family="Helvetica,sans-Serif" font-size="10.00">Cpl::Container::Item</text>
</a>
</g>
</g>
<!-- Node7&#45;&gt;Node6 -->
<g id="edge6" class="edge"><title>Node7&#45;&gt;Node6</title>
<path fill="none" stroke="midnightblue" d="M135.589,-116.5C154.987,-116.5 176.301,-116.5 195.304,-116.5"/>
<polygon fill="midnightblue" stroke="midnightblue" points="135.34,-113 125.34,-116.5 135.34,-120 135.34,-113"/>
</g>
<!-- Node8 -->
<g id="node8" class="node"><title>Node8</title>
<g id="a_node8"><a xlink:href="class_cpl_1_1_system_1_1_timer_manager.html" target="_top" xlink:title="This mostly concrete class implements manages a list of Software Timers.">
<polygon fill="white" stroke="black" points="183,-69 183,-88 322,-88 322,-69 183,-69"/>
<text text-anchor="middle" x="252.5" y="-76" font-family="Helvetica,sans-Serif" font-size="10.00">Cpl::System::TimerManager</text>
</a>
</g>
</g>
<!-- Node8&#45;&gt;Node3 -->
<g id="edge7" class="edge"><title>Node8&#45;&gt;Node3</title>
<path fill="none" stroke="midnightblue" d="M301.324,-90.4824C343.407,-101.026 403.873,-116.176 442.797,-125.928"/>
<polygon fill="midnightblue" stroke="midnightblue" points="302.129,-87.0759 291.578,-88.0405 300.428,-93.866 302.129,-87.0759"/>
</g>
<!-- Node9 -->
<g id="node9" class="node"><title>Node9</title>
<g id="a_node9"><a xlink:href="class_cpl_1_1_system_1_1_counter_source__.html" target="_top" xlink:title="This abstract class defines the interface for registering for an Counter object with the Timer Manage...">
<polygon fill="white" stroke="black" points="0,-69 0,-88 146,-88 146,-69 0,-69"/>
<text text-anchor="middle" x="73" y="-76" font-family="Helvetica,sans-Serif" font-size="10.00">Cpl::System::CounterSource_</text>
</a>
</g>
</g>
<!-- Node9&#45;&gt;Node8 -->
<g id="edge8" class="edge"><title>Node9&#45;&gt;Node8</title>
<path fill="none" stroke="midnightblue" d="M156.48,-78.5C165.29,-78.5 174.184,-78.5 182.81,-78.5"/>
<polygon fill="midnightblue" stroke="midnightblue" points="156.196,-75.0001 146.196,-78.5 156.196,-82.0001 156.196,-75.0001"/>
</g>
<!-- Node10 -->
<g id="node10" class="node"><title>Node10</title>
<g id="a_node10"><a xlink:href="class_cpl_1_1_dm_1_1_notification_api__.html" target="_top" xlink:title="This class has PACKAGE Scope, i.e.">
<polygon fill="white" stroke="black" points="419,-88 419,-107 545,-107 545,-88 419,-88"/>
<text text-anchor="middle" x="482" y="-95" font-family="Helvetica,sans-Serif" font-size="10.00">Cpl::Dm::NotificationApi_</text>
</a>
</g>
</g>
<!-- Node10&#45;&gt;Node2 -->
<g id="edge9" class="edge"><title>Node10&#45;&gt;Node2</title>
<path fill="none" stroke="midnightblue" d="M555.576,-97.5C564.363,-97.5 573.194,-97.5 581.587,-97.5"/>
<polygon fill="midnightblue" stroke="midnightblue" points="555.31,-94.0001 545.31,-97.5 555.31,-101 555.31,-94.0001"/>
</g>
<!-- Node11 -->
<g id="node11" class="node"><title>Node11</title>
<g id="a_node11"><a xlink:href="class_cpl_1_1_itc_1_1_mailbox.html" target="_top" xlink:title="This mailbox class implements an Inter Thread Communications message queue.">
<polygon fill="white" stroke="black" points="590,-50 590,-69 678,-69 678,-50 590,-50"/>
<text text-anchor="middle" x="634" y="-57" font-family="Helvetica,sans-Serif" font-size="10.00">Cpl::Itc::Mailbox</text>
</a>
</g>
</g>
<!-- Node11&#45;&gt;Node1 -->
<g id="edge10" class="edge"><title>Node11&#45;&gt;Node1</title>
<path fill="none" stroke="midnightblue" d="M688.392,-66.7643C699.615,-68.2911 711.514,-69.9101 722.931,-71.4634"/>
<polygon fill="midnightblue" stroke="midnightblue" points="688.69,-63.2726 678.31,-65.3925 687.747,-70.2087 688.69,-63.2726"/>
</g>
<!-- Node12 -->
<g id="node12" class="node"><title>Node12</title>
<g id="a_node12"><a xlink:href="class_cpl_1_1_itc_1_1_post_api.html" target="_top" xlink:title="This abstract class represents the interface used to send messages to a mailbox.">
<polygon fill="white" stroke="black" points="437.5,-50 437.5,-69 526.5,-69 526.5,-50 437.5,-50"/>
<text text-anchor="middle" x="482" y="-57" font-family="Helvetica,sans-Serif" font-size="10.00">Cpl::Itc::PostApi</text>
</a>
</g>
</g>
<!-- Node12&#45;&gt;Node11 -->
<g id="edge11" class="edge"><title>Node12&#45;&gt;Node11</title>
<path fill="none" stroke="midnightblue" d="M536.834,-59.5C554.276,-59.5 573.38,-59.5 589.933,-59.5"/>
<polygon fill="midnightblue" stroke="midnightblue" points="536.789,-56.0001 526.789,-59.5 536.789,-63.0001 536.789,-56.0001"/>
</g>
<!-- Node13 -->
<g id="node13" class="node"><title>Node13</title>
<g id="a_node13"><a xlink:href="class_cpl_1_1_container_1_1_s_list.html" target="_top" xlink:title=" ">
<polygon fill="white" stroke="black" points="428.5,-0.5 428.5,-30.5 535.5,-30.5 535.5,-0.5 428.5,-0.5"/>
<text text-anchor="start" x="436.5" y="-18.5" font-family="Helvetica,sans-Serif" font-size="10.00">Cpl::Container::SList</text>
<text text-anchor="middle" x="482" y="-7.5" font-family="Helvetica,sans-Serif" font-size="10.00">&lt; Message &gt;</text>
</a>
</g>
</g>
<!-- Node13&#45;&gt;Node11 -->
<g id="edge12" class="edge"><title>Node13&#45;&gt;Node11</title>
<path fill="none" stroke="midnightblue" d="M543.859,-33.3521C563.184,-39.0207 583.809,-45.0705 600.347,-49.9217"/>
<polygon fill="midnightblue" stroke="midnightblue" points="544.783,-29.9756 534.202,-30.5192 542.812,-36.6925 544.783,-29.9756"/>
</g>
<!-- Node14 -->
<g id="node14" class="node"><title>Node14</title>
<g id="a_node14"><a xlink:href="class_cpl_1_1_container_1_1_s_list.html" target="_top" xlink:title="This template class implements a singly linked list which maintains the ordering imposed on it by the...">
<polygon fill="white" stroke="black" points="199,-0.5 199,-30.5 306,-30.5 306,-0.5 199,-0.5"/>
<text text-anchor="start" x="207" y="-18.5" font-family="Helvetica,sans-Serif" font-size="10.00">Cpl::Container::SList</text>
<text text-anchor="middle" x="252.5" y="-7.5" font-family="Helvetica,sans-Serif" font-size="10.00">&lt; ITEM &gt;</text>
</a>
</g>
</g>
<!-- Node14&#45;&gt;Node13 -->
<g id="edge13" class="edge"><title>Node14&#45;&gt;Node13</title>
<path fill="none" stroke="orange" stroke-dasharray="5,2" d="M316.408,-15.5C351.522,-15.5 394.775,-15.5 428.128,-15.5"/>
<polygon fill="orange" stroke="orange" points="316.265,-12.0001 306.265,-15.5 316.265,-19.0001 316.265,-12.0001"/>
<text text-anchor="middle" x="370.5" y="-18.5" font-family="Helvetica,sans-Serif" font-size="10.00"> &lt; Message &gt;</text>
</g>
</g>
</svg>
