<?xml version="1.0" encoding="UTF-8" standalone="no"?>
<!DOCTYPE svg PUBLIC "-//W3C//DTD SVG 1.1//EN"
 "http://www.w3.org/Graphics/SVG/1.1/DTD/svg11.dtd">
<!-- Generated by graphviz version 10.0.1 (20240210.2158)
 -->
<!-- Title: Cpl::Persistent::IndexedEntryServer&lt; ENTRY &gt; Pages: 1 -->
<svg width="904pt" height="335pt"
 viewBox="0.00 0.00 904.00 335.00" xmlns="http://www.w3.org/2000/svg" xmlns:xlink="http://www.w3.org/1999/xlink">
<g id="graph0" class="graph" transform="scale(1 1) rotate(0) translate(4 331)">
<title>Cpl::Persistent::IndexedEntryServer&lt; ENTRY &gt;</title>
<!-- Node1 -->
<g id="Node000001" class="node">
<title>Node1</title>
<g id="a_Node000001"><a xlink:title="This concrete template class implements the ITC messaging (and Model Point monitoring) needed to prov...">
<polygon fill="#999999" stroke="#666666" points="595.75,-157 475.5,-157 475.5,-125 595.75,-125 595.75,-157"/>
<text text-anchor="start" x="483.5" y="-143.5" font-family="Helvetica,sans-Serif" font-size="10.00">Cpl::Persistent::Indexed</text>
<text text-anchor="middle" x="535.62" y="-131.5" font-family="Helvetica,sans-Serif" font-size="10.00">EntryServer&lt; ENTRY &gt;</text>
</a>
</g>
</g>
<!-- Node13 -->
<g id="Node000013" class="node">
<title>Node13</title>
<g id="a_Node000013"><a xlink:href="class_cpl_1_1_persistent_1_1_indexed_entry_server.html" target="_top" xlink:title=" ">
<polygon fill="white" stroke="#666666" points="896,-163 766.75,-163 766.75,-119 896,-119 896,-163"/>
<text text-anchor="start" x="774.75" y="-149.5" font-family="Helvetica,sans-Serif" font-size="10.00">Cpl::Persistent::Indexed</text>
<text text-anchor="start" x="774.75" y="-137.5" font-family="Helvetica,sans-Serif" font-size="10.00">EntryServer&lt; Cpl::Logging</text>
<text text-anchor="middle" x="831.38" y="-125.5" font-family="Helvetica,sans-Serif" font-size="10.00">::EntryData_T &gt;</text>
</a>
</g>
</g>
<!-- Node1&#45;&gt;Node13 -->
<g id="edge12_Node000001_Node000013" class="edge">
<title>Node1&#45;&gt;Node13</title>
<g id="a_edge12_Node000001_Node000013"><a xlink:title=" ">
<path fill="none" stroke="orange" stroke-dasharray="5,2" d="M607.41,-141C655.84,-141 719.53,-141 766.44,-141"/>
<polygon fill="orange" stroke="orange" points="607.58,-137.5 597.58,-141 607.58,-144.5 607.58,-137.5"/>
</a>
</g>
<text text-anchor="middle" x="681.25" y="-143.5" font-family="Helvetica,sans-Serif" font-size="10.00" fill="grey"> &lt; Cpl::Logging::EntryData_T &gt;</text>
</g>
<!-- Node2 -->
<g id="Node000002" class="node">
<title>Node2</title>
<g id="a_Node000002"><a xlink:href="class_cpl_1_1_itc_1_1_close_sync.html" target="_top" xlink:title="This partially concrete class implements the synchronous ITC close call for the CloseApi.">
<polygon fill="white" stroke="#666666" points="419,-270 319,-270 319,-250 419,-250 419,-270"/>
<text text-anchor="middle" x="369" y="-256.5" font-family="Helvetica,sans-Serif" font-size="10.00">Cpl::Itc::CloseSync</text>
</a>
</g>
</g>
<!-- Node2&#45;&gt;Node1 -->
<g id="edge1_Node000001_Node000002" class="edge">
<title>Node2&#45;&gt;Node1</title>
<g id="a_edge1_Node000001_Node000002"><a xlink:title=" ">
<path fill="none" stroke="#63b8ff" d="M429.76,-245.57C432.79,-244.18 435.72,-242.66 438.5,-241 475.11,-219.16 507.04,-179.72 523.27,-157.45"/>
<polygon fill="#63b8ff" stroke="#63b8ff" points="428.6,-242.26 420.64,-249.25 431.22,-248.76 428.6,-242.26"/>
</a>
</g>
</g>
<!-- Node3 -->
<g id="Node000003" class="node">
<title>Node3</title>
<g id="a_Node000003"><a xlink:href="class_cpl_1_1_itc_1_1_open_sync.html" target="_top" xlink:title="This partially concrete class implements the synchronous ITC open call for the OpenApi.">
<polygon fill="white" stroke="#666666" points="255,-308 156.5,-308 156.5,-288 255,-288 255,-308"/>
<text text-anchor="middle" x="205.75" y="-294.5" font-family="Helvetica,sans-Serif" font-size="10.00">Cpl::Itc::OpenSync</text>
</a>
</g>
</g>
<!-- Node3&#45;&gt;Node2 -->
<g id="edge2_Node000002_Node000003" class="edge">
<title>Node3&#45;&gt;Node2</title>
<g id="a_edge2_Node000002_Node000003"><a xlink:title=" ">
<path fill="none" stroke="#63b8ff" d="M262.41,-284.88C282.43,-280.17 304.73,-274.91 323.66,-270.45"/>
<polygon fill="#63b8ff" stroke="#63b8ff" points="261.64,-281.47 252.71,-287.17 263.25,-288.28 261.64,-281.47"/>
</a>
</g>
</g>
<!-- Node4 -->
<g id="Node000004" class="node">
<title>Node4</title>
<g id="a_Node000004"><a xlink:href="class_cpl_1_1_itc_1_1_open_api.html" target="_top" xlink:title="This abstract class defines an open interface.">
<polygon fill="white" stroke="#666666" points="101.12,-327 10.88,-327 10.88,-307 101.12,-307 101.12,-327"/>
<text text-anchor="middle" x="56" y="-313.5" font-family="Helvetica,sans-Serif" font-size="10.00">Cpl::Itc::OpenApi</text>
</a>
</g>
</g>
<!-- Node4&#45;&gt;Node3 -->
<g id="edge3_Node000003_Node000004" class="edge">
<title>Node4&#45;&gt;Node3</title>
<g id="a_edge3_Node000003_Node000004"><a xlink:title=" ">
<path fill="none" stroke="#63b8ff" d="M112.55,-309.86C126.85,-308.02 142.14,-306.05 156.07,-304.26"/>
<polygon fill="#63b8ff" stroke="#63b8ff" points="112.3,-306.36 102.83,-311.11 113.2,-313.3 112.3,-306.36"/>
</a>
</g>
</g>
<!-- Node5 -->
<g id="Node000005" class="node">
<title>Node5</title>
<g id="a_Node000005"><a xlink:href="class_cpl_1_1_itc_1_1_open_request.html" target="_top" xlink:title="This abstract class define message types and payloads for a set of ITC services.">
<polygon fill="white" stroke="#666666" points="112,-289 0,-289 0,-269 112,-269 112,-289"/>
<text text-anchor="middle" x="56" y="-275.5" font-family="Helvetica,sans-Serif" font-size="10.00">Cpl::Itc::OpenRequest</text>
</a>
</g>
</g>
<!-- Node5&#45;&gt;Node3 -->
<g id="edge4_Node000003_Node000005" class="edge">
<title>Node5&#45;&gt;Node3</title>
<g id="a_edge4_Node000003_Node000005"><a xlink:title=" ">
<path fill="none" stroke="#63b8ff" d="M123.74,-287.58C134.7,-288.99 145.88,-290.43 156.28,-291.77"/>
<polygon fill="#63b8ff" stroke="#63b8ff" points="124.3,-284.13 113.94,-286.32 123.41,-291.07 124.3,-284.13"/>
</a>
</g>
</g>
<!-- Node6 -->
<g id="Node000006" class="node">
<title>Node6</title>
<g id="a_Node000006"><a xlink:href="class_cpl_1_1_itc_1_1_close_api.html" target="_top" xlink:title="This abstract class defines an close interface.">
<polygon fill="white" stroke="#666666" points="251.62,-270 159.88,-270 159.88,-250 251.62,-250 251.62,-270"/>
<text text-anchor="middle" x="205.75" y="-256.5" font-family="Helvetica,sans-Serif" font-size="10.00">Cpl::Itc::CloseApi</text>
</a>
</g>
</g>
<!-- Node6&#45;&gt;Node2 -->
<g id="edge5_Node000002_Node000006" class="edge">
<title>Node6&#45;&gt;Node2</title>
<g id="a_edge5_Node000002_Node000006"><a xlink:title=" ">
<path fill="none" stroke="#63b8ff" d="M263.37,-260C281.43,-260 301.27,-260 318.76,-260"/>
<polygon fill="#63b8ff" stroke="#63b8ff" points="263.61,-256.5 253.61,-260 263.61,-263.5 263.61,-256.5"/>
</a>
</g>
</g>
<!-- Node7 -->
<g id="Node000007" class="node">
<title>Node7</title>
<g id="a_Node000007"><a xlink:href="class_cpl_1_1_itc_1_1_close_request.html" target="_top" xlink:title="This abstract class define message types and payloads for a set of ITC services.">
<polygon fill="white" stroke="#666666" points="262.5,-232 149,-232 149,-212 262.5,-212 262.5,-232"/>
<text text-anchor="middle" x="205.75" y="-218.5" font-family="Helvetica,sans-Serif" font-size="10.00">Cpl::Itc::CloseRequest</text>
</a>
</g>
</g>
<!-- Node7&#45;&gt;Node2 -->
<g id="edge6_Node000002_Node000007" class="edge">
<title>Node7&#45;&gt;Node2</title>
<g id="a_edge6_Node000002_Node000007"><a xlink:title=" ">
<path fill="none" stroke="#63b8ff" d="M262.41,-235.12C282.43,-239.83 304.73,-245.09 323.66,-249.55"/>
<polygon fill="#63b8ff" stroke="#63b8ff" points="263.25,-231.72 252.71,-232.83 261.64,-238.53 263.25,-231.72"/>
</a>
</g>
</g>
<!-- Node8 -->
<g id="Node000008" class="node">
<title>Node8</title>
<g id="a_Node000008"><a xlink:href="class_cpl_1_1_persistent_1_1_get_latest_request.html" target="_top" xlink:title="This abstract class define ITC message type and payload for the application to request read Indexed E...">
<polygon fill="white" stroke="#666666" points="433.62,-232 304.38,-232 304.38,-200 433.62,-200 433.62,-232"/>
<text text-anchor="start" x="312.38" y="-218.5" font-family="Helvetica,sans-Serif" font-size="10.00">Cpl::Persistent::GetLatest</text>
<text text-anchor="middle" x="369" y="-206.5" font-family="Helvetica,sans-Serif" font-size="10.00">Request</text>
</a>
</g>
</g>
<!-- Node8&#45;&gt;Node1 -->
<g id="edge7_Node000001_Node000008" class="edge">
<title>Node8&#45;&gt;Node1</title>
<g id="a_edge7_Node000001_Node000008"><a xlink:title=" ">
<path fill="none" stroke="#63b8ff" d="M428.14,-195.38C431.66,-193.94 435.14,-192.48 438.5,-191 461.57,-180.84 486.82,-167.62 505.66,-157.32"/>
<polygon fill="#63b8ff" stroke="#63b8ff" points="426.91,-192.1 418.89,-199.02 429.48,-198.61 426.91,-192.1"/>
</a>
</g>
</g>
<!-- Node9 -->
<g id="Node000009" class="node">
<title>Node9</title>
<g id="a_Node000009"><a xlink:href="class_cpl_1_1_persistent_1_1_get_next_request.html" target="_top" xlink:title="This abstract class define ITC message type and payload for the application to request read Indexed E...">
<polygon fill="white" stroke="#666666" points="430.25,-182 307.75,-182 307.75,-150 430.25,-150 430.25,-182"/>
<text text-anchor="start" x="315.75" y="-168.5" font-family="Helvetica,sans-Serif" font-size="10.00">Cpl::Persistent::GetNext</text>
<text text-anchor="middle" x="369" y="-156.5" font-family="Helvetica,sans-Serif" font-size="10.00">Request</text>
</a>
</g>
</g>
<!-- Node9&#45;&gt;Node1 -->
<g id="edge8_Node000001_Node000009" class="edge">
<title>Node9&#45;&gt;Node1</title>
<g id="a_edge8_Node000001_Node000009"><a xlink:title=" ">
<path fill="none" stroke="#63b8ff" d="M441.46,-155.15C452.68,-153.44 464.18,-151.7 475.09,-150.04"/>
<polygon fill="#63b8ff" stroke="#63b8ff" points="441.22,-151.64 431.86,-156.61 442.27,-158.56 441.22,-151.64"/>
</a>
</g>
</g>
<!-- Node10 -->
<g id="Node000010" class="node">
<title>Node10</title>
<g id="a_Node000010"><a xlink:href="class_cpl_1_1_persistent_1_1_get_previous_request.html" target="_top" xlink:title="This abstract class define ITC message type and payload for the application to request read Indexed E...">
<polygon fill="white" stroke="#666666" points="438.5,-132 299.5,-132 299.5,-100 438.5,-100 438.5,-132"/>
<text text-anchor="start" x="307.5" y="-118.5" font-family="Helvetica,sans-Serif" font-size="10.00">Cpl::Persistent::GetPrevious</text>
<text text-anchor="middle" x="369" y="-106.5" font-family="Helvetica,sans-Serif" font-size="10.00">Request</text>
</a>
</g>
</g>
<!-- Node10&#45;&gt;Node1 -->
<g id="edge9_Node000001_Node000010" class="edge">
<title>Node10&#45;&gt;Node1</title>
<g id="a_edge9_Node000001_Node000010"><a xlink:title=" ">
<path fill="none" stroke="#63b8ff" d="M449.98,-128.15C458.47,-129.43 466.99,-130.73 475.19,-131.97"/>
<polygon fill="#63b8ff" stroke="#63b8ff" points="450.77,-124.73 440.36,-126.68 449.72,-131.65 450.77,-124.73"/>
</a>
</g>
</g>
<!-- Node11 -->
<g id="Node000011" class="node">
<title>Node11</title>
<g id="a_Node000011"><a xlink:href="class_cpl_1_1_persistent_1_1_get_by_buffer_index_request.html" target="_top" xlink:title="This abstract class define ITC message type and payload for the application to request read Indexed E...">
<polygon fill="white" stroke="#666666" points="438.5,-82 299.5,-82 299.5,-50 438.5,-50 438.5,-82"/>
<text text-anchor="start" x="307.5" y="-68.5" font-family="Helvetica,sans-Serif" font-size="10.00">Cpl::Persistent::GetByBuffer</text>
<text text-anchor="middle" x="369" y="-56.5" font-family="Helvetica,sans-Serif" font-size="10.00">IndexRequest</text>
</a>
</g>
</g>
<!-- Node11&#45;&gt;Node1 -->
<g id="edge10_Node000001_Node000011" class="edge">
<title>Node11&#45;&gt;Node1</title>
<g id="a_edge10_Node000001_Node000011"><a xlink:title=" ">
<path fill="none" stroke="#63b8ff" d="M428.14,-86.62C431.66,-88.06 435.14,-89.52 438.5,-91 461.57,-101.16 486.82,-114.38 505.66,-124.68"/>
<polygon fill="#63b8ff" stroke="#63b8ff" points="429.48,-83.39 418.89,-82.98 426.91,-89.9 429.48,-83.39"/>
</a>
</g>
</g>
<!-- Node12 -->
<g id="Node000012" class="node">
<title>Node12</title>
<g id="a_Node000012"><a xlink:href="class_cpl_1_1_persistent_1_1_clear_all_entries_request.html" target="_top" xlink:title="This abstract class define ITC message type and payload for the application to clear/delete all entri...">
<polygon fill="white" stroke="#666666" points="429.12,-32 308.88,-32 308.88,0 429.12,0 429.12,-32"/>
<text text-anchor="start" x="316.88" y="-18.5" font-family="Helvetica,sans-Serif" font-size="10.00">Cpl::Persistent::ClearAll</text>
<text text-anchor="middle" x="369" y="-6.5" font-family="Helvetica,sans-Serif" font-size="10.00">EntriesRequest</text>
</a>
</g>
</g>
<!-- Node12&#45;&gt;Node1 -->
<g id="edge11_Node000001_Node000012" class="edge">
<title>Node12&#45;&gt;Node1</title>
<g id="a_edge11_Node000001_Node000012"><a xlink:title=" ">
<path fill="none" stroke="#63b8ff" d="M432.83,-37.56C434.78,-38.66 436.67,-39.81 438.5,-41 474.01,-64.14 506.13,-102.73 522.73,-124.59"/>
<polygon fill="#63b8ff" stroke="#63b8ff" points="434.66,-34.56 424.16,-33.14 431.48,-40.8 434.66,-34.56"/>
</a>
</g>
</g>
</g>
</svg>
