<?xml version="1.0" encoding="UTF-8" standalone="no"?>
<!DOCTYPE svg PUBLIC "-//W3C//DTD SVG 1.1//EN"
 "http://www.w3.org/Graphics/SVG/1.1/DTD/svg11.dtd">
<!-- Generated by graphviz version 2.38.0 (20140413.2041)
 -->
<!-- Title: Cpl::Memory::Pool_ Pages: 1 -->
<svg width="292pt" height="217pt"
 viewBox="0.00 0.00 292.00 217.00" xmlns="http://www.w3.org/2000/svg" xmlns:xlink="http://www.w3.org/1999/xlink">
<g id="graph0" class="graph" transform="scale(1 1) rotate(0) translate(4 213)">
<title>Cpl::Memory::Pool_</title>
<polygon fill="white" stroke="none" points="-4,4 -4,-213 288,-213 288,4 -4,4"/>
<!-- Node1 -->
<g id="node1" class="node"><title>Node1</title>
<g id="a_node1"><a xlink:title="This private concrete class implements a Memory Allocator using a pool of fixed size blocks.">
<polygon fill="#bfbfbf" stroke="black" points="84.5,-0.5 84.5,-19.5 187.5,-19.5 187.5,-0.5 84.5,-0.5"/>
<text text-anchor="middle" x="136" y="-7.5" font-family="Helvetica,sans-Serif" font-size="10.00">Cpl::Memory::Pool_</text>
</a>
</g>
</g>
<!-- Node2 -->
<g id="node2" class="node"><title>Node2</title>
<g id="a_node2"><a xlink:href="class_cpl_1_1_memory_1_1_allocator.html" target="_top" xlink:title="This abstract class defines the interface for a Memory Allocator.">
<polygon fill="white" stroke="black" points="0,-89.5 0,-108.5 116,-108.5 116,-89.5 0,-89.5"/>
<text text-anchor="middle" x="58" y="-96.5" font-family="Helvetica,sans-Serif" font-size="10.00">Cpl::Memory::Allocator</text>
</a>
</g>
</g>
<!-- Node2&#45;&gt;Node1 -->
<g id="edge1" class="edge"><title>Node2&#45;&gt;Node1</title>
<path fill="none" stroke="midnightblue" d="M72.5736,-81.7448C89.0692,-63.3459 115.323,-34.0623 128.267,-19.6249"/>
<polygon fill="midnightblue" stroke="midnightblue" points="69.8336,-79.5579 65.7641,-89.34 75.0456,-84.2307 69.8336,-79.5579"/>
</g>
<!-- Node3 -->
<g id="node3" class="node"><title>Node3</title>
<g id="a_node3"><a xlink:href="class_cpl_1_1_container_1_1_item.html" target="_top" xlink:title="This class is used by the Container classes to implement a various types of singly linked containers.">
<polygon fill="white" stroke="black" points="6,-184 6,-203 110,-203 110,-184 6,-184"/>
<text text-anchor="middle" x="58" y="-191" font-family="Helvetica,sans-Serif" font-size="10.00">Cpl::Container::Item</text>
</a>
</g>
</g>
<!-- Node3&#45;&gt;Node2 -->
<g id="edge2" class="edge"><title>Node3&#45;&gt;Node2</title>
<path fill="none" stroke="midnightblue" d="M58,-173.944C58,-154.038 58,-123.3 58,-108.516"/>
<polygon fill="midnightblue" stroke="midnightblue" points="54.5001,-173.964 58,-183.964 61.5001,-173.964 54.5001,-173.964"/>
</g>
<!-- Node4 -->
<g id="node4" class="node"><title>Node4</title>
<g id="a_node4"><a xlink:href="class_cpl_1_1_container_1_1_d_list.html" target="_top" xlink:title=" ">
<polygon fill="white" stroke="black" points="134,-78.5 134,-119.5 246,-119.5 246,-78.5 134,-78.5"/>
<text text-anchor="start" x="142" y="-107.5" font-family="Helvetica,sans-Serif" font-size="10.00">Cpl::Container::DList</text>
<text text-anchor="start" x="142" y="-96.5" font-family="Helvetica,sans-Serif" font-size="10.00">&lt; Cpl::Memory::Pool_</text>
<text text-anchor="middle" x="190" y="-85.5" font-family="Helvetica,sans-Serif" font-size="10.00">::BlockInfo_ &gt;</text>
</a>
</g>
</g>
<!-- Node4&#45;&gt;Node1 -->
<g id="edge3" class="edge"><title>Node4&#45;&gt;Node1</title>
<path fill="none" stroke="#9a32cd" stroke-dasharray="5,2" d="M172.353,-69.5688C161.56,-52.1794 148.491,-31.1243 141.332,-19.59"/>
<polygon fill="#9a32cd" stroke="#9a32cd" points="169.499,-71.6077 177.747,-78.2584 175.447,-67.9162 169.499,-71.6077"/>
<text text-anchor="middle" x="203" y="-52" font-family="Helvetica,sans-Serif" font-size="10.00"> m_allocatedList</text>
<text text-anchor="middle" x="203" y="-41" font-family="Helvetica,sans-Serif" font-size="10.00">m_freeList</text>
</g>
<!-- Node5 -->
<g id="node5" class="node"><title>Node5</title>
<g id="a_node5"><a xlink:href="class_cpl_1_1_container_1_1_d_list.html" target="_top" xlink:title="This template class implements a Doubly linked list which maintains the ordering imposed on it by the...">
<polygon fill="white" stroke="black" points="136.5,-178.5 136.5,-208.5 243.5,-208.5 243.5,-178.5 136.5,-178.5"/>
<text text-anchor="start" x="144.5" y="-196.5" font-family="Helvetica,sans-Serif" font-size="10.00">Cpl::Container::DList</text>
<text text-anchor="middle" x="190" y="-185.5" font-family="Helvetica,sans-Serif" font-size="10.00">&lt; ITEM &gt;</text>
</a>
</g>
</g>
<!-- Node5&#45;&gt;Node4 -->
<g id="edge4" class="edge"><title>Node5&#45;&gt;Node4</title>
<path fill="none" stroke="orange" stroke-dasharray="5,2" d="M190,-168.282C190,-153.138 190,-133.882 190,-119.682"/>
<polygon fill="orange" stroke="orange" points="186.5,-168.451 190,-178.451 193.5,-168.451 186.5,-168.451"/>
<text text-anchor="start" x="190" y="-152" font-family="Helvetica,sans-Serif" font-size="10.00"> &lt; Cpl::Memory::Pool</text>
<text text-anchor="middle" x="237" y="-141" font-family="Helvetica,sans-Serif" font-size="10.00">_::BlockInfo_ &gt;</text>
</g>
</g>
</svg>
