<?xml version="1.0" encoding="UTF-8" standalone="no"?>
<!DOCTYPE svg PUBLIC "-//W3C//DTD SVG 1.1//EN"
 "http://www.w3.org/Graphics/SVG/1.1/DTD/svg11.dtd">
<!-- Generated by graphviz version 2.38.0 (20140413.2041)
 -->
<!-- Title: Storm::Component::PiPreProcess Pages: 1 -->
<svg width="2630pt" height="339pt"
 viewBox="0.00 0.00 2630.00 338.50" xmlns="http://www.w3.org/2000/svg" xmlns:xlink="http://www.w3.org/1999/xlink">
<g id="graph0" class="graph" transform="scale(1 1) rotate(0) translate(4 334.5)">
<title>Storm::Component::PiPreProcess</title>
<polygon fill="white" stroke="none" points="-4,4 -4,-334.5 2626,-334.5 2626,4 -4,4"/>
<!-- Node1 -->
<g id="node1" class="node"><title>Node1</title>
<g id="a_node1"><a xlink:title="This concrete class provide the context for a PI controller.">
<polygon fill="#bfbfbf" stroke="black" points="2458,-170 2458,-189 2622,-189 2622,-170 2458,-170"/>
<text text-anchor="middle" x="2540" y="-177" font-family="Helvetica,sans-Serif" font-size="10.00">Storm::Component::PiPreProcess</text>
</a>
</g>
</g>
<!-- Node2 -->
<g id="node2" class="node"><title>Node2</title>
<g id="a_node2"><a xlink:href="class_storm_1_1_component_1_1_base.html" target="_top" xlink:title="This partially concrete class provide core infrastructure for Components.">
<polygon fill="white" stroke="black" points="2245.5,-267 2245.5,-286 2372.5,-286 2372.5,-267 2245.5,-267"/>
<text text-anchor="middle" x="2309" y="-274" font-family="Helvetica,sans-Serif" font-size="10.00">Storm::Component::Base</text>
</a>
</g>
</g>
<!-- Node2&#45;&gt;Node1 -->
<g id="edge1" class="edge"><title>Node2&#45;&gt;Node1</title>
<path fill="none" stroke="midnightblue" d="M2342.2,-262.863C2389.18,-242.96 2475.39,-206.446 2516.3,-189.116"/>
<polygon fill="midnightblue" stroke="midnightblue" points="2340.64,-259.721 2332.79,-266.845 2343.37,-266.167 2340.64,-259.721"/>
</g>
<!-- Node3 -->
<g id="node3" class="node"><title>Node3</title>
<g id="a_node3"><a xlink:href="class_storm_1_1_component_1_1_api.html" target="_top" xlink:title="This class define the interface for a Component.">
<polygon fill="white" stroke="black" points="1964.5,-311 1964.5,-330 2083.5,-330 2083.5,-311 1964.5,-311"/>
<text text-anchor="middle" x="2024" y="-318" font-family="Helvetica,sans-Serif" font-size="10.00">Storm::Component::Api</text>
</a>
</g>
</g>
<!-- Node3&#45;&gt;Node2 -->
<g id="edge2" class="edge"><title>Node3&#45;&gt;Node2</title>
<path fill="none" stroke="midnightblue" d="M2093.79,-316.383C2128.51,-313.645 2171.19,-309.271 2209,-302.5 2231.91,-298.397 2257.3,-291.685 2276.63,-286.108"/>
<polygon fill="midnightblue" stroke="midnightblue" points="2093.45,-312.898 2083.75,-317.147 2093.98,-319.878 2093.45,-312.898"/>
</g>
<!-- Node4 -->
<g id="node4" class="node"><title>Node4</title>
<g id="a_node4"><a xlink:href="struct_cpl_1_1_system_1_1_elapsed_time_1_1_precision___tag.html" target="_top" xlink:title="Data type for time in seconds with a &#39;fractional&#39; millisecond precision.">
<polygon fill="white" stroke="black" points="1957,-261.5 1957,-291.5 2091,-291.5 2091,-261.5 1957,-261.5"/>
<text text-anchor="start" x="1965" y="-279.5" font-family="Helvetica,sans-Serif" font-size="10.00">Cpl::System::ElapsedTime</text>
<text text-anchor="middle" x="2024" y="-268.5" font-family="Helvetica,sans-Serif" font-size="10.00">::Precision_Tag</text>
</a>
</g>
</g>
<!-- Node4&#45;&gt;Node2 -->
<g id="edge3" class="edge"><title>Node4&#45;&gt;Node2</title>
<path fill="none" stroke="#9a32cd" stroke-dasharray="5,2" d="M2101.39,-276.5C2146.53,-276.5 2202.98,-276.5 2245.46,-276.5"/>
<polygon fill="#9a32cd" stroke="#9a32cd" points="2101.35,-273 2091.35,-276.5 2101.35,-280 2101.35,-273"/>
<text text-anchor="middle" x="2159" y="-290.5" font-family="Helvetica,sans-Serif" font-size="10.00"> m_timeMark</text>
<text text-anchor="middle" x="2159" y="-279.5" font-family="Helvetica,sans-Serif" font-size="10.00">m_interval</text>
</g>
<!-- Node5 -->
<g id="node5" class="node"><title>Node5</title>
<g id="a_node5"><a xlink:href="class_storm_1_1_component_1_1_pi_pre_process.html#struct_storm_1_1_component_1_1_pi_pre_process_1_1_output___t" target="_top" xlink:title="Output Model Points.">
<polygon fill="white" stroke="black" points="2227,-110.5 2227,-140.5 2391,-140.5 2391,-110.5 2227,-110.5"/>
<text text-anchor="start" x="2235" y="-128.5" font-family="Helvetica,sans-Serif" font-size="10.00">Storm::Component::PiPreProcess</text>
<text text-anchor="middle" x="2309" y="-117.5" font-family="Helvetica,sans-Serif" font-size="10.00">::Output_T</text>
</a>
</g>
</g>
<!-- Node5&#45;&gt;Node1 -->
<g id="edge4" class="edge"><title>Node5&#45;&gt;Node1</title>
<path fill="none" stroke="#9a32cd" stroke-dasharray="5,2" d="M2383.82,-142.907C2421.9,-151.888 2466.89,-162.495 2498.59,-169.971"/>
<polygon fill="#9a32cd" stroke="#9a32cd" points="2384.33,-139.431 2373.79,-140.542 2382.72,-146.244 2384.33,-139.431"/>
<text text-anchor="middle" x="2424.5" y="-159.5" font-family="Helvetica,sans-Serif" font-size="10.00"> m_out</text>
</g>
<!-- Node6 -->
<g id="node6" class="node"><title>Node6</title>
<g id="a_node6"><a xlink:href="class_cpl_1_1_dm_1_1_mp_1_1_bool.html" target="_top" xlink:title="This class provides a concrete implementation for a Point who&#39;s data is a bool.">
<polygon fill="white" stroke="black" points="1975.5,-123 1975.5,-142 2072.5,-142 2072.5,-123 1975.5,-123"/>
<text text-anchor="middle" x="2024" y="-130" font-family="Helvetica,sans-Serif" font-size="10.00">Cpl::Dm::Mp::Bool</text>
</a>
</g>
</g>
<!-- Node6&#45;&gt;Node5 -->
<g id="edge5" class="edge"><title>Node6&#45;&gt;Node5</title>
<path fill="none" stroke="#9a32cd" stroke-dasharray="5,2" d="M2082.71,-127.871C2091.51,-127.312 2100.49,-126.825 2109,-126.5 2147.67,-125.024 2190.59,-124.648 2226.64,-124.692"/>
<polygon fill="#9a32cd" stroke="#9a32cd" points="2082.25,-124.395 2072.5,-128.555 2082.71,-131.379 2082.25,-124.395"/>
<text text-anchor="middle" x="2159" y="-129.5" font-family="Helvetica,sans-Serif" font-size="10.00"> setpointChanged</text>
</g>
<!-- Node30 -->
<g id="node30" class="node"><title>Node30</title>
<g id="a_node30"><a xlink:href="class_storm_1_1_component_1_1_pi_pre_process.html#struct_storm_1_1_component_1_1_pi_pre_process_1_1_input___t" target="_top" xlink:title="Input Model Points.">
<polygon fill="white" stroke="black" points="2227,-164.5 2227,-194.5 2391,-194.5 2391,-164.5 2227,-164.5"/>
<text text-anchor="start" x="2235" y="-182.5" font-family="Helvetica,sans-Serif" font-size="10.00">Storm::Component::PiPreProcess</text>
<text text-anchor="middle" x="2309" y="-171.5" font-family="Helvetica,sans-Serif" font-size="10.00">::Input_T</text>
</a>
</g>
</g>
<!-- Node6&#45;&gt;Node30 -->
<g id="edge34" class="edge"><title>Node6&#45;&gt;Node30</title>
<path fill="none" stroke="#9a32cd" stroke-dasharray="5,2" d="M2082.66,-140.691C2118.97,-145.993 2166.79,-153.241 2209,-160.5 2216.24,-161.746 2223.78,-163.094 2231.31,-164.478"/>
<polygon fill="#9a32cd" stroke="#9a32cd" points="2083.14,-137.224 2072.74,-139.248 2082.13,-144.151 2083.14,-137.224"/>
<text text-anchor="middle" x="2159" y="-163.5" font-family="Helvetica,sans-Serif" font-size="10.00"> operatingModeChange</text>
</g>
<!-- Node7 -->
<g id="node7" class="node"><title>Node7</title>
<g id="a_node7"><a xlink:href="class_cpl_1_1_dm_1_1_mp_1_1_basic.html" target="_top" xlink:title=" ">
<polygon fill="white" stroke="black" points="1610,-117.5 1610,-147.5 1712,-147.5 1712,-117.5 1610,-117.5"/>
<text text-anchor="start" x="1618" y="-135.5" font-family="Helvetica,sans-Serif" font-size="10.00">Cpl::Dm::Mp::Basic</text>
<text text-anchor="middle" x="1661" y="-124.5" font-family="Helvetica,sans-Serif" font-size="10.00">&lt; bool &gt;</text>
</a>
</g>
</g>
<!-- Node7&#45;&gt;Node6 -->
<g id="edge6" class="edge"><title>Node7&#45;&gt;Node6</title>
<path fill="none" stroke="midnightblue" d="M1722.34,-132.5C1793.44,-132.5 1910.12,-132.5 1975.24,-132.5"/>
<polygon fill="midnightblue" stroke="midnightblue" points="1722.2,-129 1712.2,-132.5 1722.2,-136 1722.2,-129"/>
</g>
<!-- Node8 -->
<g id="node8" class="node"><title>Node8</title>
<g id="a_node8"><a xlink:href="class_cpl_1_1_dm_1_1_model_point_common__.html" target="_top" xlink:title="This concrete class provide common infrastructure for a Model Point.">
<polygon fill="white" stroke="black" points="1156,-128 1156,-147 1307,-147 1307,-128 1156,-128"/>
<text text-anchor="middle" x="1231.5" y="-135" font-family="Helvetica,sans-Serif" font-size="10.00">Cpl::Dm::ModelPointCommon_</text>
</a>
</g>
</g>
<!-- Node8&#45;&gt;Node7 -->
<g id="edge7" class="edge"><title>Node8&#45;&gt;Node7</title>
<path fill="none" stroke="midnightblue" d="M1317.61,-136.505C1405.01,-135.482 1538.1,-133.926 1609.89,-133.086"/>
<polygon fill="midnightblue" stroke="midnightblue" points="1317.41,-133.007 1307.45,-136.623 1317.49,-140.006 1317.41,-133.007"/>
</g>
<!-- Node25 -->
<g id="node25" class="node"><title>Node25</title>
<g id="a_node25"><a xlink:href="class_cpl_1_1_dm_1_1_mp_1_1_basic.html" target="_top" xlink:title="This template class provides a mostly concrete implementation for a Model Point who&#39;s data is a C pri...">
<polygon fill="white" stroke="black" points="1400.5,-71.5 1400.5,-101.5 1502.5,-101.5 1502.5,-71.5 1400.5,-71.5"/>
<text text-anchor="start" x="1408.5" y="-89.5" font-family="Helvetica,sans-Serif" font-size="10.00">Cpl::Dm::Mp::Basic</text>
<text text-anchor="middle" x="1451.5" y="-78.5" font-family="Helvetica,sans-Serif" font-size="10.00">&lt; ELEMTYPE &gt;</text>
</a>
</g>
</g>
<!-- Node8&#45;&gt;Node25 -->
<g id="edge25" class="edge"><title>Node8&#45;&gt;Node25</title>
<path fill="none" stroke="midnightblue" d="M1283.33,-125.609C1318.57,-117.364 1365.29,-106.435 1400.38,-98.2259"/>
<polygon fill="midnightblue" stroke="midnightblue" points="1282.19,-122.281 1273.25,-127.967 1283.78,-129.097 1282.19,-122.281"/>
</g>
<!-- Node28 -->
<g id="node28" class="node"><title>Node28</title>
<g id="a_node28"><a xlink:href="class_cpl_1_1_dm_1_1_mp_1_1_basic.html" target="_top" xlink:title=" ">
<polygon fill="white" stroke="black" points="1610,-14.5 1610,-44.5 1712,-44.5 1712,-14.5 1610,-14.5"/>
<text text-anchor="start" x="1618" y="-32.5" font-family="Helvetica,sans-Serif" font-size="10.00">Cpl::Dm::Mp::Basic</text>
<text text-anchor="middle" x="1661" y="-21.5" font-family="Helvetica,sans-Serif" font-size="10.00">&lt; float &gt;</text>
</a>
</g>
</g>
<!-- Node8&#45;&gt;Node28 -->
<g id="edge29" class="edge"><title>Node8&#45;&gt;Node28</title>
<path fill="none" stroke="midnightblue" d="M1255.31,-122.281C1283.21,-104.494 1332.46,-75.6908 1379,-61.5 1457.31,-37.6198 1552.83,-31.2722 1609.91,-29.7488"/>
<polygon fill="midnightblue" stroke="midnightblue" points="1253.2,-119.48 1246.71,-127.853 1257,-125.356 1253.2,-119.48"/>
</g>
<!-- Node31 -->
<g id="node31" class="node"><title>Node31</title>
<g id="a_node31"><a xlink:href="class_storm_1_1_dm_1_1_mp_system_config.html" target="_top" xlink:title="This class provides a concrete implementation for a Point who&#39;s data is the the System Configuration ...">
<polygon fill="white" stroke="black" points="1379,-223 1379,-242 1524,-242 1524,-223 1379,-223"/>
<text text-anchor="middle" x="1451.5" y="-230" font-family="Helvetica,sans-Serif" font-size="10.00">Storm::Dm::MpSystemConfig</text>
</a>
</g>
</g>
<!-- Node8&#45;&gt;Node31 -->
<g id="edge36" class="edge"><title>Node8&#45;&gt;Node31</title>
<path fill="none" stroke="midnightblue" d="M1262.01,-151.584C1291.45,-165.491 1338.05,-187.136 1379,-204.5 1394.22,-210.954 1411.47,-217.725 1425.21,-222.992"/>
<polygon fill="midnightblue" stroke="midnightblue" points="1263.26,-148.301 1252.72,-147.182 1260.26,-154.627 1263.26,-148.301"/>
</g>
<!-- Node34 -->
<g id="node34" class="node"><title>Node34</title>
<g id="a_node34"><a xlink:href="class_storm_1_1_dm_1_1_mp_setpoints.html" target="_top" xlink:title="This class provides a concrete implementation for a Point who&#39;s data is the the house/room/zone cooli...">
<polygon fill="white" stroke="black" points="1389,-176 1389,-195 1514,-195 1514,-176 1389,-176"/>
<text text-anchor="middle" x="1451.5" y="-183" font-family="Helvetica,sans-Serif" font-size="10.00">Storm::Dm::MpSetpoints</text>
</a>
</g>
</g>
<!-- Node8&#45;&gt;Node34 -->
<g id="edge40" class="edge"><title>Node8&#45;&gt;Node34</title>
<path fill="none" stroke="midnightblue" d="M1286.02,-149.283C1323.31,-157.495 1372.43,-168.31 1407.25,-175.977"/>
<polygon fill="midnightblue" stroke="midnightblue" points="1286.35,-145.773 1275.83,-147.041 1284.84,-152.609 1286.35,-145.773"/>
</g>
<!-- Node9 -->
<g id="node9" class="node"><title>Node9</title>
<g id="a_node9"><a xlink:href="class_cpl_1_1_dm_1_1_model_point.html" target="_top" xlink:title="This mostly abstract class defines the interface for a Model Point.">
<polygon fill="white" stroke="black" points="913,-128 913,-147 1020,-147 1020,-128 913,-128"/>
<text text-anchor="middle" x="966.5" y="-135" font-family="Helvetica,sans-Serif" font-size="10.00">Cpl::Dm::ModelPoint</text>
</a>
</g>
</g>
<!-- Node9&#45;&gt;Node8 -->
<g id="edge8" class="edge"><title>Node9&#45;&gt;Node8</title>
<path fill="none" stroke="midnightblue" d="M1030.43,-137.5C1068.11,-137.5 1116.23,-137.5 1155.83,-137.5"/>
<polygon fill="midnightblue" stroke="midnightblue" points="1030.09,-134 1020.09,-137.5 1030.09,-141 1030.09,-134"/>
</g>
<!-- Node10 -->
<g id="node10" class="node"><title>Node10</title>
<g id="a_node10"><a xlink:href="class_cpl_1_1_container_1_1_map_item.html" target="_top" xlink:title="This abstract class represents a item that can be contained in an Map (aka a sorted list implemented ...">
<polygon fill="white" stroke="black" points="607,-126 607,-145 729,-145 729,-126 607,-126"/>
<text text-anchor="middle" x="668" y="-133" font-family="Helvetica,sans-Serif" font-size="10.00">Cpl::Container::MapItem</text>
</a>
</g>
</g>
<!-- Node10&#45;&gt;Node9 -->
<g id="edge9" class="edge"><title>Node10&#45;&gt;Node9</title>
<path fill="none" stroke="midnightblue" d="M739.032,-135.972C792.183,-136.331 864.131,-136.816 912.545,-137.143"/>
<polygon fill="midnightblue" stroke="midnightblue" points="739.025,-132.472 729.001,-135.905 738.977,-139.472 739.025,-132.472"/>
</g>
<!-- Node11 -->
<g id="node11" class="node"><title>Node11</title>
<g id="a_node11"><a xlink:href="class_cpl_1_1_container_1_1_dict_item.html" target="_top" xlink:title="This abstract class represents a item that can be contained in Dictionary.">
<polygon fill="white" stroke="black" points="326,-126 326,-145 447,-145 447,-126 326,-126"/>
<text text-anchor="middle" x="386.5" y="-133" font-family="Helvetica,sans-Serif" font-size="10.00">Cpl::Container::DictItem</text>
</a>
</g>
</g>
<!-- Node11&#45;&gt;Node10 -->
<g id="edge10" class="edge"><title>Node11&#45;&gt;Node10</title>
<path fill="none" stroke="midnightblue" d="M457.319,-135.5C503.374,-135.5 563.078,-135.5 606.993,-135.5"/>
<polygon fill="midnightblue" stroke="midnightblue" points="457.117,-132 447.117,-135.5 457.117,-139 457.117,-132"/>
</g>
<!-- Node12 -->
<g id="node12" class="node"><title>Node12</title>
<g id="a_node12"><a xlink:href="class_cpl_1_1_container_1_1_extended_item.html" target="_top" xlink:title="This class is used by the Container classes to implement a various types of DOUBLY linked containers.">
<polygon fill="white" stroke="black" points="141,-126 141,-145 286,-145 286,-126 141,-126"/>
<text text-anchor="middle" x="213.5" y="-133" font-family="Helvetica,sans-Serif" font-size="10.00">Cpl::Container::ExtendedItem</text>
</a>
</g>
</g>
<!-- Node12&#45;&gt;Node11 -->
<g id="edge11" class="edge"><title>Node12&#45;&gt;Node11</title>
<path fill="none" stroke="midnightblue" d="M296.047,-135.5C306.111,-135.5 316.248,-135.5 325.899,-135.5"/>
<polygon fill="midnightblue" stroke="midnightblue" points="296.029,-132 286.029,-135.5 296.029,-139 296.029,-132"/>
</g>
<!-- Node13 -->
<g id="node13" class="node"><title>Node13</title>
<g id="a_node13"><a xlink:href="class_cpl_1_1_container_1_1_item.html" target="_top" xlink:title="This class is used by the Container classes to implement a various types of singly linked containers.">
<polygon fill="white" stroke="black" points="0,-126 0,-145 104,-145 104,-126 0,-126"/>
<text text-anchor="middle" x="52" y="-133" font-family="Helvetica,sans-Serif" font-size="10.00">Cpl::Container::Item</text>
</a>
</g>
</g>
<!-- Node13&#45;&gt;Node12 -->
<g id="edge12" class="edge"><title>Node13&#45;&gt;Node12</title>
<path fill="none" stroke="midnightblue" d="M114.375,-135.5C123.061,-135.5 132.056,-135.5 140.915,-135.5"/>
<polygon fill="midnightblue" stroke="midnightblue" points="114.345,-132 104.345,-135.5 114.345,-139 114.345,-132"/>
</g>
<!-- Node14 -->
<g id="node14" class="node"><title>Node14</title>
<g id="a_node14"><a xlink:href="class_cpl_1_1_dm_1_1_model_database.html" target="_top" xlink:title="This concrete class implements a simple Model Database.">
<polygon fill="white" stroke="black" points="904,-69 904,-88 1029,-88 1029,-69 904,-69"/>
<text text-anchor="middle" x="966.5" y="-76" font-family="Helvetica,sans-Serif" font-size="10.00">Cpl::Dm::ModelDatabase</text>
</a>
</g>
</g>
<!-- Node14&#45;&gt;Node8 -->
<g id="edge13" class="edge"><title>Node14&#45;&gt;Node8</title>
<path fill="none" stroke="#9a32cd" stroke-dasharray="5,2" d="M1019.89,-90.2531C1069.23,-101.32 1142.2,-117.692 1188.01,-127.969"/>
<polygon fill="#9a32cd" stroke="#9a32cd" points="1020.57,-86.8188 1010.05,-88.0449 1019.04,-93.6491 1020.57,-86.8188"/>
<text text-anchor="middle" x="1095.5" y="-120.5" font-family="Helvetica,sans-Serif" font-size="10.00"> m_modelDatabase</text>
</g>
<!-- Node15 -->
<g id="node15" class="node"><title>Node15</title>
<g id="a_node15"><a xlink:href="class_cpl_1_1_dm_1_1_model_database_api.html" target="_top" xlink:title="This class defines the basic operations that can be performed on a Model Base.">
<polygon fill="white" stroke="black" points="598,-50 598,-69 738,-69 738,-50 598,-50"/>
<text text-anchor="middle" x="668" y="-57" font-family="Helvetica,sans-Serif" font-size="10.00">Cpl::Dm::ModelDatabaseApi</text>
</a>
</g>
</g>
<!-- Node15&#45;&gt;Node14 -->
<g id="edge14" class="edge"><title>Node15&#45;&gt;Node14</title>
<path fill="none" stroke="midnightblue" d="M748.346,-64.5845C797.123,-67.7103 858.7,-71.6561 903.814,-74.5471"/>
<polygon fill="midnightblue" stroke="midnightblue" points="748.345,-61.0774 738.142,-63.9307 747.898,-68.0631 748.345,-61.0774"/>
</g>
<!-- Node16 -->
<g id="node16" class="node"><title>Node16</title>
<g id="a_node16"><a xlink:href="class_cpl_1_1_container_1_1_map.html" target="_top" xlink:title=" ">
<polygon fill="white" stroke="black" points="605.5,-0.5 605.5,-30.5 730.5,-30.5 730.5,-0.5 605.5,-0.5"/>
<text text-anchor="start" x="613.5" y="-18.5" font-family="Helvetica,sans-Serif" font-size="10.00">Cpl::Container::Map</text>
<text text-anchor="middle" x="668" y="-7.5" font-family="Helvetica,sans-Serif" font-size="10.00">&lt; Cpl::Dm::ModelPoint &gt;</text>
</a>
</g>
</g>
<!-- Node16&#45;&gt;Node14 -->
<g id="edge15" class="edge"><title>Node16&#45;&gt;Node14</title>
<path fill="none" stroke="#9a32cd" stroke-dasharray="5,2" d="M740.821,-24.6473C781.89,-30.5655 834.189,-39.2684 880,-50.5 900.328,-55.4839 922.801,-62.9219 939.604,-68.8793"/>
<polygon fill="#9a32cd" stroke="#9a32cd" points="741.293,-21.1794 730.901,-23.2403 740.31,-28.11 741.293,-21.1794"/>
<text text-anchor="middle" x="818" y="-53.5" font-family="Helvetica,sans-Serif" font-size="10.00"> m_map</text>
</g>
<!-- Node17 -->
<g id="node17" class="node"><title>Node17</title>
<g id="a_node17"><a xlink:href="class_cpl_1_1_container_1_1_map.html" target="_top" xlink:title="This template class implements an Map using an AVL Binary tree (i.e.">
<polygon fill="white" stroke="black" points="335,-0.5 335,-30.5 438,-30.5 438,-0.5 335,-0.5"/>
<text text-anchor="start" x="343" y="-18.5" font-family="Helvetica,sans-Serif" font-size="10.00">Cpl::Container::Map</text>
<text text-anchor="middle" x="386.5" y="-7.5" font-family="Helvetica,sans-Serif" font-size="10.00">&lt; ITEM &gt;</text>
</a>
</g>
</g>
<!-- Node17&#45;&gt;Node16 -->
<g id="edge16" class="edge"><title>Node17&#45;&gt;Node16</title>
<path fill="none" stroke="orange" stroke-dasharray="5,2" d="M448.347,-15.5C494.819,-15.5 558.606,-15.5 605.29,-15.5"/>
<polygon fill="orange" stroke="orange" points="448.115,-12.0001 438.115,-15.5 448.115,-19.0001 448.115,-12.0001"/>
<text text-anchor="middle" x="524" y="-18.5" font-family="Helvetica,sans-Serif" font-size="10.00"> &lt; Cpl::Dm::ModelPoint &gt;</text>
</g>
<!-- Node18 -->
<g id="node18" class="node"><title>Node18</title>
<g id="a_node18"><a xlink:href="class_cpl_1_1_system_1_1_mutex.html" target="_top" xlink:title="This mutex class defines the interface for a mutex that has &quot;recursive&quot; semantics.">
<polygon fill="white" stroke="black" points="616,-88 616,-107 720,-107 720,-88 616,-88"/>
<text text-anchor="middle" x="668" y="-95" font-family="Helvetica,sans-Serif" font-size="10.00">Cpl::System::Mutex</text>
</a>
</g>
</g>
<!-- Node18&#45;&gt;Node14 -->
<g id="edge17" class="edge"><title>Node18&#45;&gt;Node14</title>
<path fill="none" stroke="#9a32cd" stroke-dasharray="5,2" d="M730.488,-93.5598C781.255,-90.3066 852.965,-85.7113 903.792,-82.4543"/>
<polygon fill="#9a32cd" stroke="#9a32cd" points="730.064,-90.0797 720.308,-94.2121 730.511,-97.0654 730.064,-90.0797"/>
<text text-anchor="middle" x="818" y="-95.5" font-family="Helvetica,sans-Serif" font-size="10.00"> m_lock</text>
</g>
<!-- Node19 -->
<g id="node19" class="node"><title>Node19</title>
<g id="a_node19"><a xlink:href="class_cpl_1_1_container_1_1_d_list.html" target="_top" xlink:title=" ">
<polygon fill="white" stroke="black" points="898,-205.5 898,-235.5 1035,-235.5 1035,-205.5 898,-205.5"/>
<text text-anchor="start" x="906" y="-223.5" font-family="Helvetica,sans-Serif" font-size="10.00">Cpl::Container::DList</text>
<text text-anchor="middle" x="966.5" y="-212.5" font-family="Helvetica,sans-Serif" font-size="10.00">&lt; Cpl::Dm::SubscriberApi &gt;</text>
</a>
</g>
</g>
<!-- Node19&#45;&gt;Node8 -->
<g id="edge18" class="edge"><title>Node19&#45;&gt;Node8</title>
<path fill="none" stroke="#9a32cd" stroke-dasharray="5,2" d="M1044.97,-205.143C1074.45,-198.451 1108.12,-189.77 1138,-179.5 1164.52,-170.384 1193.78,-156.39 1212.15,-147.094"/>
<polygon fill="#9a32cd" stroke="#9a32cd" points="1044.15,-201.742 1035.15,-207.336 1045.67,-208.574 1044.15,-201.742"/>
<text text-anchor="middle" x="1095.5" y="-206.5" font-family="Helvetica,sans-Serif" font-size="10.00"> m_subscribers</text>
</g>
<!-- Node20 -->
<g id="node20" class="node"><title>Node20</title>
<g id="a_node20"><a xlink:href="class_cpl_1_1_container_1_1_d_list.html" target="_top" xlink:title="This template class implements a Doubly linked list which maintains the ordering imposed on it by the...">
<polygon fill="white" stroke="black" points="614.5,-213.5 614.5,-243.5 721.5,-243.5 721.5,-213.5 614.5,-213.5"/>
<text text-anchor="start" x="622.5" y="-231.5" font-family="Helvetica,sans-Serif" font-size="10.00">Cpl::Container::DList</text>
<text text-anchor="middle" x="668" y="-220.5" font-family="Helvetica,sans-Serif" font-size="10.00">&lt; ITEM &gt;</text>
</a>
</g>
</g>
<!-- Node20&#45;&gt;Node19 -->
<g id="edge19" class="edge"><title>Node20&#45;&gt;Node19</title>
<path fill="none" stroke="orange" stroke-dasharray="5,2" d="M731.774,-226.806C780.532,-225.491 848.026,-223.67 897.954,-222.322"/>
<polygon fill="orange" stroke="orange" points="731.569,-223.31 721.667,-227.079 731.757,-230.308 731.569,-223.31"/>
<text text-anchor="middle" x="818" y="-229.5" font-family="Helvetica,sans-Serif" font-size="10.00"> &lt; Cpl::Dm::SubscriberApi &gt;</text>
</g>
<!-- Node21 -->
<g id="node21" class="node"><title>Node21</title>
<g id="a_node21"><a xlink:href="class_cpl_1_1_dm_1_1_static_info.html" target="_top" xlink:title="This class defines an interface for a Model Point to store its constant/static data in program memory...">
<polygon fill="white" stroke="black" points="916.5,-167 916.5,-186 1016.5,-186 1016.5,-167 916.5,-167"/>
<text text-anchor="middle" x="966.5" y="-174" font-family="Helvetica,sans-Serif" font-size="10.00">Cpl::Dm::StaticInfo</text>
</a>
</g>
</g>
<!-- Node21&#45;&gt;Node8 -->
<g id="edge20" class="edge"><title>Node21&#45;&gt;Node8</title>
<path fill="none" stroke="#9a32cd" stroke-dasharray="5,2" d="M1027.07,-167.835C1059.81,-163.054 1101.15,-156.99 1138,-151.5 1147.64,-150.064 1157.84,-148.532 1167.81,-147.028"/>
<polygon fill="#9a32cd" stroke="#9a32cd" points="1026.14,-164.432 1016.75,-169.34 1027.15,-171.359 1026.14,-164.432"/>
<text text-anchor="middle" x="1095.5" y="-167.5" font-family="Helvetica,sans-Serif" font-size="10.00"> m_staticInfo</text>
</g>
<!-- Node22 -->
<g id="node22" class="node"><title>Node22</title>
<g id="a_node22"><a xlink:href="class_cpl_1_1_container_1_1_key_literal_string.html" target="_top" xlink:title="This class provides a &#39;Key&#39; wrapper for a C string literal.">
<polygon fill="white" stroke="black" points="604,-164.5 604,-194.5 732,-194.5 732,-164.5 604,-164.5"/>
<text text-anchor="start" x="612" y="-182.5" font-family="Helvetica,sans-Serif" font-size="10.00">Cpl::Container::KeyLiteral</text>
<text text-anchor="middle" x="668" y="-171.5" font-family="Helvetica,sans-Serif" font-size="10.00">String</text>
</a>
</g>
</g>
<!-- Node22&#45;&gt;Node21 -->
<g id="edge21" class="edge"><title>Node22&#45;&gt;Node21</title>
<path fill="none" stroke="midnightblue" d="M742.469,-178.757C796.575,-178.209 868.686,-177.48 916.069,-177"/>
<polygon fill="midnightblue" stroke="midnightblue" points="742.207,-175.259 732.243,-178.86 742.278,-182.259 742.207,-175.259"/>
</g>
<!-- Node23 -->
<g id="node23" class="node"><title>Node23</title>
<g id="a_node23"><a xlink:href="class_cpl_1_1_container_1_1_key_string_buffer.html" target="_top" xlink:title="This class provides a &#39;Key&#39; wrapper for a array of Character of length N, i.e.">
<polygon fill="white" stroke="black" points="323,-164.5 323,-194.5 450,-194.5 450,-164.5 323,-164.5"/>
<text text-anchor="start" x="331" y="-182.5" font-family="Helvetica,sans-Serif" font-size="10.00">Cpl::Container::KeyString</text>
<text text-anchor="middle" x="386.5" y="-171.5" font-family="Helvetica,sans-Serif" font-size="10.00">Buffer</text>
</a>
</g>
</g>
<!-- Node23&#45;&gt;Node22 -->
<g id="edge22" class="edge"><title>Node23&#45;&gt;Node22</title>
<path fill="none" stroke="midnightblue" d="M460.373,-179.5C504.769,-179.5 560.948,-179.5 603.517,-179.5"/>
<polygon fill="midnightblue" stroke="midnightblue" points="460.225,-176 450.225,-179.5 460.225,-183 460.225,-176"/>
</g>
<!-- Node24 -->
<g id="node24" class="node"><title>Node24</title>
<g id="a_node24"><a xlink:href="class_cpl_1_1_container_1_1_key.html" target="_top" xlink:title="This abstract class defines the interface that a contained object must support if it has comparable k...">
<polygon fill="white" stroke="black" points="163,-170 163,-189 264,-189 264,-170 163,-170"/>
<text text-anchor="middle" x="213.5" y="-177" font-family="Helvetica,sans-Serif" font-size="10.00">Cpl::Container::Key</text>
</a>
</g>
</g>
<!-- Node24&#45;&gt;Node23 -->
<g id="edge23" class="edge"><title>Node24&#45;&gt;Node23</title>
<path fill="none" stroke="midnightblue" d="M274.481,-179.5C290.103,-179.5 306.976,-179.5 322.737,-179.5"/>
<polygon fill="midnightblue" stroke="midnightblue" points="274.42,-176 264.42,-179.5 274.42,-183 274.42,-176"/>
</g>
<!-- Node25&#45;&gt;Node7 -->
<g id="edge24" class="edge"><title>Node25&#45;&gt;Node7</title>
<path fill="none" stroke="orange" stroke-dasharray="5,2" d="M1512.58,-97.8766C1534.49,-102.205 1559.41,-107.341 1582,-112.5 1590.99,-114.555 1600.54,-116.879 1609.74,-119.198"/>
<polygon fill="orange" stroke="orange" points="1513.24,-94.4384 1502.75,-95.9477 1511.89,-101.307 1513.24,-94.4384"/>
<text text-anchor="middle" x="1562" y="-115.5" font-family="Helvetica,sans-Serif" font-size="10.00"> &lt; bool &gt;</text>
</g>
<!-- Node25&#45;&gt;Node28 -->
<g id="edge30" class="edge"><title>Node25&#45;&gt;Node28</title>
<path fill="none" stroke="orange" stroke-dasharray="5,2" d="M1512.51,-70.0151C1543.38,-61.5366 1580.56,-51.3215 1609.87,-43.2697"/>
<polygon fill="orange" stroke="orange" points="1511.45,-66.678 1502.73,-72.7019 1513.3,-73.4279 1511.45,-66.678"/>
<text text-anchor="middle" x="1562" y="-64.5" font-family="Helvetica,sans-Serif" font-size="10.00"> &lt; float &gt;</text>
</g>
<!-- Node29 -->
<g id="node29" class="node"><title>Node29</title>
<g id="a_node29"><a xlink:href="class_cpl_1_1_dm_1_1_mp_1_1_basic_real.html" target="_top" xlink:title="This template class extends the implementation of Basic&lt;ELEMTYPE&gt; to support the toJSON() and fromJSO...">
<polygon fill="white" stroke="black" points="1600,-63.5 1600,-93.5 1722,-93.5 1722,-63.5 1600,-63.5"/>
<text text-anchor="start" x="1608" y="-81.5" font-family="Helvetica,sans-Serif" font-size="10.00">Cpl::Dm::Mp::BasicReal</text>
<text text-anchor="middle" x="1661" y="-70.5" font-family="Helvetica,sans-Serif" font-size="10.00">&lt; ELEMTYPE &gt;</text>
</a>
</g>
</g>
<!-- Node25&#45;&gt;Node29 -->
<g id="edge32" class="edge"><title>Node25&#45;&gt;Node29</title>
<path fill="none" stroke="midnightblue" d="M1512.96,-84.1691C1540.32,-83.1142 1572.58,-81.8706 1599.9,-80.8173"/>
<polygon fill="midnightblue" stroke="midnightblue" points="1512.59,-80.6807 1502.73,-84.5634 1512.86,-87.6755 1512.59,-80.6807"/>
</g>
<!-- Node26 -->
<g id="node26" class="node"><title>Node26</title>
<g id="a_node26"><a xlink:href="class_cpl_1_1_dm_1_1_mp_1_1_float.html" target="_top" xlink:title="This class provides a concrete implementation for a Point who&#39;s data is a float.">
<polygon fill="white" stroke="black" points="1974.5,-44 1974.5,-63 2073.5,-63 2073.5,-44 1974.5,-44"/>
<text text-anchor="middle" x="2024" y="-51" font-family="Helvetica,sans-Serif" font-size="10.00">Cpl::Dm::Mp::Float</text>
</a>
</g>
</g>
<!-- Node26&#45;&gt;Node5 -->
<g id="edge26" class="edge"><title>Node26&#45;&gt;Node5</title>
<path fill="none" stroke="#9a32cd" stroke-dasharray="5,2" d="M2060.92,-40.9752C2098.98,-29.7815 2160.19,-17.7865 2209,-36.5 2247.63,-51.3106 2280.64,-88.9222 2297,-110.208"/>
<polygon fill="#9a32cd" stroke="#9a32cd" points="2059.82,-37.6495 2051.3,-43.9344 2061.88,-44.3403 2059.82,-37.6495"/>
<text text-anchor="middle" x="2159" y="-61.5" font-family="Helvetica,sans-Serif" font-size="10.00"> setpointDelta</text>
<text text-anchor="middle" x="2159" y="-50.5" font-family="Helvetica,sans-Serif" font-size="10.00">activeSetpoint</text>
<text text-anchor="middle" x="2159" y="-39.5" font-family="Helvetica,sans-Serif" font-size="10.00">idtDeltaError</text>
</g>
<!-- Node26&#45;&gt;Node30 -->
<g id="edge42" class="edge"><title>Node26&#45;&gt;Node30</title>
<path fill="none" stroke="#9a32cd" stroke-dasharray="5,2" d="M2080.38,-65.4147C2127.21,-76.4141 2189.67,-93.563 2209,-110.5 2223.36,-123.079 2212.99,-136.536 2227,-149.5 2233.6,-155.61 2241.56,-160.504 2249.88,-164.417"/>
<polygon fill="#9a32cd" stroke="#9a32cd" points="2080.88,-61.9381 2070.35,-63.0953 2079.31,-68.7582 2080.88,-61.9381"/>
<text text-anchor="middle" x="2159" y="-113.5" font-family="Helvetica,sans-Serif" font-size="10.00"> activeIdt</text>
</g>
<!-- Node27 -->
<g id="node27" class="node"><title>Node27</title>
<g id="a_node27"><a xlink:href="class_cpl_1_1_dm_1_1_mp_1_1_basic_real.html" target="_top" xlink:title=" ">
<polygon fill="white" stroke="black" points="1798,-38.5 1798,-68.5 1920,-68.5 1920,-38.5 1798,-38.5"/>
<text text-anchor="start" x="1806" y="-56.5" font-family="Helvetica,sans-Serif" font-size="10.00">Cpl::Dm::Mp::BasicReal</text>
<text text-anchor="middle" x="1859" y="-45.5" font-family="Helvetica,sans-Serif" font-size="10.00">&lt; float &gt;</text>
</a>
</g>
</g>
<!-- Node27&#45;&gt;Node26 -->
<g id="edge27" class="edge"><title>Node27&#45;&gt;Node26</title>
<path fill="none" stroke="midnightblue" d="M1930.41,-53.5C1945.27,-53.5 1960.62,-53.5 1974.45,-53.5"/>
<polygon fill="midnightblue" stroke="midnightblue" points="1930.23,-50.0001 1920.23,-53.5 1930.23,-57.0001 1930.23,-50.0001"/>
</g>
<!-- Node28&#45;&gt;Node27 -->
<g id="edge28" class="edge"><title>Node28&#45;&gt;Node27</title>
<path fill="none" stroke="midnightblue" d="M1722.26,-36.8791C1746.25,-39.8165 1773.8,-43.1899 1797.79,-46.1268"/>
<polygon fill="midnightblue" stroke="midnightblue" points="1722.57,-33.3909 1712.22,-35.6494 1721.72,-40.339 1722.57,-33.3909"/>
</g>
<!-- Node29&#45;&gt;Node27 -->
<g id="edge31" class="edge"><title>Node29&#45;&gt;Node27</title>
<path fill="none" stroke="orange" stroke-dasharray="5,2" d="M1732.2,-69.546C1753.72,-66.8007 1777.2,-63.8066 1797.98,-61.1562"/>
<polygon fill="orange" stroke="orange" points="1731.62,-66.0921 1722.14,-70.8293 1732.5,-73.0358 1731.62,-66.0921"/>
<text text-anchor="middle" x="1760" y="-71.5" font-family="Helvetica,sans-Serif" font-size="10.00"> &lt; float &gt;</text>
</g>
<!-- Node30&#45;&gt;Node1 -->
<g id="edge33" class="edge"><title>Node30&#45;&gt;Node1</title>
<path fill="none" stroke="#9a32cd" stroke-dasharray="5,2" d="M2401.31,-179.5C2419.93,-179.5 2439.41,-179.5 2457.66,-179.5"/>
<polygon fill="#9a32cd" stroke="#9a32cd" points="2401.06,-176 2391.06,-179.5 2401.06,-183 2401.06,-176"/>
<text text-anchor="middle" x="2424.5" y="-182.5" font-family="Helvetica,sans-Serif" font-size="10.00"> m_in</text>
</g>
<!-- Node31&#45;&gt;Node30 -->
<g id="edge35" class="edge"><title>Node31&#45;&gt;Node30</title>
<path fill="none" stroke="#9a32cd" stroke-dasharray="5,2" d="M1534.09,-232.5C1572.33,-232.5 1618.5,-232.5 1660,-232.5 1660,-232.5 1660,-232.5 2025,-232.5 2107.98,-232.5 2202.34,-210.215 2258.43,-194.546"/>
<polygon fill="#9a32cd" stroke="#9a32cd" points="1534.04,-229 1524.04,-232.5 1534.04,-236 1534.04,-229"/>
<text text-anchor="middle" x="1859" y="-235.5" font-family="Helvetica,sans-Serif" font-size="10.00"> systemConfig</text>
</g>
<!-- Node32 -->
<g id="node32" class="node"><title>Node32</title>
<g id="a_node32"><a xlink:href="namespace_storm_1_1_type.html#struct_storm_1_1_type_1_1_system_config___t" target="_top" xlink:title="The following typedef contains system attributes, parameters, bounds, etc.">
<polygon fill="white" stroke="black" points="1157,-255 1157,-274 1306,-274 1306,-255 1157,-255"/>
<text text-anchor="middle" x="1231.5" y="-262" font-family="Helvetica,sans-Serif" font-size="10.00">Storm::Type::SystemConfig_T</text>
</a>
</g>
</g>
<!-- Node32&#45;&gt;Node31 -->
<g id="edge37" class="edge"><title>Node32&#45;&gt;Node31</title>
<path fill="none" stroke="#9a32cd" stroke-dasharray="5,2" d="M1307.29,-253.522C1332.73,-249.787 1360.95,-245.646 1385.56,-242.033"/>
<polygon fill="#9a32cd" stroke="#9a32cd" points="1306.7,-250.07 1297.32,-254.986 1307.72,-256.996 1306.7,-250.07"/>
<text text-anchor="middle" x="1343" y="-253.5" font-family="Helvetica,sans-Serif" font-size="10.00"> m_data</text>
</g>
<!-- Node33 -->
<g id="node33" class="node"><title>Node33</title>
<g id="a_node33"><a xlink:href="namespace_storm_1_1_type.html#struct_storm_1_1_type_1_1_stage___t" target="_top" xlink:title="The following typedef information per stage.">
<polygon fill="white" stroke="black" points="910,-255 910,-274 1023,-274 1023,-255 910,-255"/>
<text text-anchor="middle" x="966.5" y="-262" font-family="Helvetica,sans-Serif" font-size="10.00">Storm::Type::Stage_T</text>
</a>
</g>
</g>
<!-- Node33&#45;&gt;Node32 -->
<g id="edge38" class="edge"><title>Node33&#45;&gt;Node32</title>
<path fill="none" stroke="#9a32cd" stroke-dasharray="5,2" d="M1033.59,-264.5C1071.1,-264.5 1118.13,-264.5 1156.82,-264.5"/>
<polygon fill="#9a32cd" stroke="#9a32cd" points="1033.28,-261 1023.28,-264.5 1033.28,-268 1033.28,-261"/>
<text text-anchor="middle" x="1095.5" y="-267.5" font-family="Helvetica,sans-Serif" font-size="10.00"> stages</text>
</g>
<!-- Node34&#45;&gt;Node30 -->
<g id="edge39" class="edge"><title>Node34&#45;&gt;Node30</title>
<path fill="none" stroke="#9a32cd" stroke-dasharray="5,2" d="M1524.42,-185.5C1564.35,-185.5 1614.93,-185.5 1660,-185.5 1660,-185.5 1660,-185.5 2025,-185.5 2093.06,-185.5 2170.31,-183.744 2226.89,-182.132"/>
<polygon fill="#9a32cd" stroke="#9a32cd" points="1524.24,-182 1514.24,-185.5 1524.24,-189 1524.24,-182"/>
<text text-anchor="middle" x="1859" y="-188.5" font-family="Helvetica,sans-Serif" font-size="10.00"> setpoints</text>
</g>
<!-- Node35 -->
<g id="node35" class="node"><title>Node35</title>
<g id="a_node35"><a xlink:href="class_storm_1_1_dm_1_1_mp_setpoints.html#struct_storm_1_1_dm_1_1_mp_setpoints_1_1_data" target="_top" xlink:title="The MP&#39;s Data container.">
<polygon fill="white" stroke="black" points="1169,-205.5 1169,-235.5 1294,-235.5 1294,-205.5 1169,-205.5"/>
<text text-anchor="start" x="1177" y="-223.5" font-family="Helvetica,sans-Serif" font-size="10.00">Storm::Dm::MpSetpoints</text>
<text text-anchor="middle" x="1231.5" y="-212.5" font-family="Helvetica,sans-Serif" font-size="10.00">::Data</text>
</a>
</g>
</g>
<!-- Node35&#45;&gt;Node34 -->
<g id="edge41" class="edge"><title>Node35&#45;&gt;Node34</title>
<path fill="none" stroke="#9a32cd" stroke-dasharray="5,2" d="M1304.3,-208.973C1332.5,-204.446 1364.47,-199.312 1391.31,-195.003"/>
<polygon fill="#9a32cd" stroke="#9a32cd" points="1303.41,-205.57 1294.1,-210.611 1304.52,-212.481 1303.41,-205.57"/>
<text text-anchor="middle" x="1343" y="-208.5" font-family="Helvetica,sans-Serif" font-size="10.00"> m_data</text>
</g>
</g>
</svg>
