<?xml version="1.0" encoding="UTF-8" standalone="no"?>
<!DOCTYPE svg PUBLIC "-//W3C//DTD SVG 1.1//EN"
 "http://www.w3.org/Graphics/SVG/1.1/DTD/svg11.dtd">
<!-- Generated by graphviz version 2.38.0 (20140413.2041)
 -->
<!-- Title: Cpl::Io::Stdio::StdErr Pages: 1 -->
<svg width="285pt" height="266pt"
 viewBox="0.00 0.00 284.50 266.00" xmlns="http://www.w3.org/2000/svg" xmlns:xlink="http://www.w3.org/1999/xlink">
<g id="graph0" class="graph" transform="scale(1 1) rotate(0) translate(4 262)">
<title>Cpl::Io::Stdio::StdErr</title>
<polygon fill="white" stroke="none" points="-4,4 -4,-262 280.5,-262 280.5,4 -4,4"/>
<!-- Node1 -->
<g id="node1" class="node"><title>Node1</title>
<g id="a_node1"><a xlink:title="This concrete class represents the C&#45;library &#39;stderr&#39; stream.">
<polygon fill="#bfbfbf" stroke="black" points="148.5,-0.5 148.5,-19.5 255.5,-19.5 255.5,-0.5 148.5,-0.5"/>
<text text-anchor="middle" x="202" y="-7.5" font-family="Helvetica,sans-Serif" font-size="10.00">Cpl::Io::Stdio::StdErr</text>
</a>
</g>
</g>
<!-- Node2 -->
<g id="node2" class="node"><title>Node2</title>
<g id="a_node2"><a xlink:href="class_cpl_1_1_io_1_1_stdio_1_1_output__.html" target="_top" xlink:title="This concrete class implements a Output stream using the underlying platform&#39;s native OS &#39;file interf...">
<polygon fill="white" stroke="black" points="145,-57.5 145,-76.5 259,-76.5 259,-57.5 145,-57.5"/>
<text text-anchor="middle" x="202" y="-64.5" font-family="Helvetica,sans-Serif" font-size="10.00">Cpl::Io::Stdio::Output_</text>
</a>
</g>
</g>
<!-- Node2&#45;&gt;Node1 -->
<g id="edge1" class="edge"><title>Node2&#45;&gt;Node1</title>
<path fill="none" stroke="midnightblue" d="M202,-47.1166C202,-37.8173 202,-27.0557 202,-19.7149"/>
<polygon fill="midnightblue" stroke="midnightblue" points="198.5,-47.4062 202,-57.4063 205.5,-47.4063 198.5,-47.4062"/>
</g>
<!-- Node3 -->
<g id="node3" class="node"><title>Node3</title>
<g id="a_node3"><a xlink:href="class_cpl_1_1_io_1_1_output.html" target="_top" xlink:title="This partially abstract class defines a interface for operating on an output stream (example of a str...">
<polygon fill="white" stroke="black" points="83,-124.5 83,-143.5 163,-143.5 163,-124.5 83,-124.5"/>
<text text-anchor="middle" x="123" y="-131.5" font-family="Helvetica,sans-Serif" font-size="10.00">Cpl::Io::Output</text>
</a>
</g>
</g>
<!-- Node3&#45;&gt;Node2 -->
<g id="edge2" class="edge"><title>Node3&#45;&gt;Node2</title>
<path fill="none" stroke="midnightblue" d="M141.579,-117.713C157.144,-104.907 178.8,-87.0884 191.515,-76.6273"/>
<polygon fill="midnightblue" stroke="midnightblue" points="139.153,-115.177 133.654,-124.234 143.6,-120.583 139.153,-115.177"/>
</g>
<!-- Node4 -->
<g id="node4" class="node"><title>Node4</title>
<g id="a_node4"><a xlink:href="class_cpl_1_1_io_1_1_close.html" target="_top" xlink:title="This abstract class defines a close operation that is intended to be used Input and Output streams/fi...">
<polygon fill="white" stroke="black" points="14,-181.5 14,-200.5 90,-200.5 90,-181.5 14,-181.5"/>
<text text-anchor="middle" x="52" y="-188.5" font-family="Helvetica,sans-Serif" font-size="10.00">Cpl::Io::Close</text>
</a>
</g>
</g>
<!-- Node4&#45;&gt;Node3 -->
<g id="edge3" class="edge"><title>Node4&#45;&gt;Node3</title>
<path fill="none" stroke="midnightblue" d="M71.3659,-174.998C84.3219,-164.962 100.92,-152.104 111.75,-143.715"/>
<polygon fill="midnightblue" stroke="midnightblue" points="68.8559,-172.515 63.0938,-181.406 73.1427,-178.049 68.8559,-172.515"/>
</g>
<!-- Node5 -->
<g id="node5" class="node"><title>Node5</title>
<g id="a_node5"><a xlink:href="class_cpl_1_1_container_1_1_item.html" target="_top" xlink:title="This class is used by the Container classes to implement a various types of singly linked containers.">
<polygon fill="white" stroke="black" points="0,-238.5 0,-257.5 104,-257.5 104,-238.5 0,-238.5"/>
<text text-anchor="middle" x="52" y="-245.5" font-family="Helvetica,sans-Serif" font-size="10.00">Cpl::Container::Item</text>
</a>
</g>
</g>
<!-- Node5&#45;&gt;Node4 -->
<g id="edge4" class="edge"><title>Node5&#45;&gt;Node4</title>
<path fill="none" stroke="midnightblue" d="M52,-228.117C52,-218.817 52,-208.056 52,-200.715"/>
<polygon fill="midnightblue" stroke="midnightblue" points="48.5001,-228.406 52,-238.406 55.5001,-228.406 48.5001,-228.406"/>
</g>
<!-- Node6 -->
<g id="node6" class="node"><title>Node6</title>
<g id="a_node6"><a xlink:href="class_cpl_1_1_io_1_1_is_eos.html" target="_top" xlink:title="This abstract class defines a isEos() operation that is intended to be used Input and Output streams.">
<polygon fill="white" stroke="black" points="108.5,-181.5 108.5,-200.5 185.5,-200.5 185.5,-181.5 108.5,-181.5"/>
<text text-anchor="middle" x="147" y="-188.5" font-family="Helvetica,sans-Serif" font-size="10.00">Cpl::Io::IsEos</text>
</a>
</g>
</g>
<!-- Node6&#45;&gt;Node3 -->
<g id="edge5" class="edge"><title>Node6&#45;&gt;Node3</title>
<path fill="none" stroke="midnightblue" d="M139.159,-172.031C135.013,-162.531 130.112,-151.298 126.803,-143.715"/>
<polygon fill="midnightblue" stroke="midnightblue" points="136.043,-173.641 143.25,-181.406 142.458,-170.841 136.043,-173.641"/>
</g>
<!-- Node7 -->
<g id="node7" class="node"><title>Node7</title>
<g id="a_node7"><a xlink:href="union_cpl_1_1_io_1_1_descriptor.html" target="_top" xlink:title="This union defines a &#39;IO descriptor&#39; in terms of a an integer and/or a void*.">
<polygon fill="white" stroke="black" points="181.5,-124.5 181.5,-143.5 276.5,-143.5 276.5,-124.5 181.5,-124.5"/>
<text text-anchor="middle" x="229" y="-131.5" font-family="Helvetica,sans-Serif" font-size="10.00">Cpl::Io::Descriptor</text>
</a>
</g>
</g>
<!-- Node7&#45;&gt;Node2 -->
<g id="edge6" class="edge"><title>Node7&#45;&gt;Node2</title>
<path fill="none" stroke="#9a32cd" stroke-dasharray="5,2" d="M221.436,-114.79C216.251,-102.308 209.607,-86.3135 205.584,-76.6273"/>
<polygon fill="#9a32cd" stroke="#9a32cd" points="218.29,-116.341 225.359,-124.234 224.755,-113.656 218.29,-116.341"/>
<text text-anchor="middle" x="239" y="-98" font-family="Helvetica,sans-Serif" font-size="10.00"> m_outFd</text>
</g>
</g>
</svg>
