<?xml version="1.0" encoding="UTF-8" standalone="no"?>
<!DOCTYPE svg PUBLIC "-//W3C//DTD SVG 1.1//EN"
 "http://www.w3.org/Graphics/SVG/1.1/DTD/svg11.dtd">
<!-- Generated by graphviz version 2.38.0 (20140413.2041)
 -->
<!-- Title: Storm::Component::IdtSelection Pages: 1 -->
<svg width="1849pt" height="274pt"
 viewBox="0.00 0.00 1849.00 273.50" xmlns="http://www.w3.org/2000/svg" xmlns:xlink="http://www.w3.org/1999/xlink">
<g id="graph0" class="graph" transform="scale(1 1) rotate(0) translate(4 269.5)">
<title>Storm::Component::IdtSelection</title>
<polygon fill="white" stroke="none" points="-4,4 -4,-269.5 1845,-269.5 1845,4 -4,4"/>
<!-- Node1 -->
<g id="node1" class="node"><title>Node1</title>
<g id="a_node1"><a xlink:title="This concrete class determines which Indoor&#45;Temperature (IDT) value to be used for the rest of the al...">
<polygon fill="#bfbfbf" stroke="black" points="1685,-120.5 1685,-139.5 1841,-139.5 1841,-120.5 1685,-120.5"/>
<text text-anchor="middle" x="1763" y="-127.5" font-family="Helvetica,sans-Serif" font-size="10.00">Storm::Component::IdtSelection</text>
</a>
</g>
</g>
<!-- Node2 -->
<g id="node2" class="node"><title>Node2</title>
<g id="a_node2"><a xlink:href="class_storm_1_1_component_1_1_base.html" target="_top" xlink:title="This partially concrete class provide core infrastructure for Components.">
<polygon fill="white" stroke="black" points="1476.5,-196.5 1476.5,-215.5 1603.5,-215.5 1603.5,-196.5 1476.5,-196.5"/>
<text text-anchor="middle" x="1540" y="-203.5" font-family="Helvetica,sans-Serif" font-size="10.00">Storm::Component::Base</text>
</a>
</g>
</g>
<!-- Node2&#45;&gt;Node1 -->
<g id="edge1" class="edge"><title>Node2&#45;&gt;Node1</title>
<path fill="none" stroke="midnightblue" d="M1578.49,-193.107C1622.61,-177.934 1694.84,-153.095 1734.24,-139.547"/>
<polygon fill="midnightblue" stroke="midnightblue" points="1577.31,-189.813 1568.99,-196.375 1579.58,-196.432 1577.31,-189.813"/>
</g>
<!-- Node3 -->
<g id="node3" class="node"><title>Node3</title>
<g id="a_node3"><a xlink:href="class_storm_1_1_component_1_1_api.html" target="_top" xlink:title="This class define the interface for a Component.">
<polygon fill="white" stroke="black" points="1242.5,-196.5 1242.5,-215.5 1361.5,-215.5 1361.5,-196.5 1242.5,-196.5"/>
<text text-anchor="middle" x="1302" y="-203.5" font-family="Helvetica,sans-Serif" font-size="10.00">Storm::Component::Api</text>
</a>
</g>
</g>
<!-- Node3&#45;&gt;Node2 -->
<g id="edge2" class="edge"><title>Node3&#45;&gt;Node2</title>
<path fill="none" stroke="midnightblue" d="M1371.66,-206C1404.65,-206 1443.91,-206 1476.11,-206"/>
<polygon fill="midnightblue" stroke="midnightblue" points="1371.64,-202.5 1361.64,-206 1371.64,-209.5 1371.64,-202.5"/>
</g>
<!-- Node4 -->
<g id="node4" class="node"><title>Node4</title>
<g id="a_node4"><a xlink:href="struct_cpl_1_1_system_1_1_elapsed_time_1_1_precision___t.html" target="_top" xlink:title="Data type for time in seconds with a &#39;fractional&#39; millisecond precision.">
<polygon fill="white" stroke="black" points="1235,-235 1235,-265 1369,-265 1369,-235 1235,-235"/>
<text text-anchor="start" x="1243" y="-253" font-family="Helvetica,sans-Serif" font-size="10.00">Cpl::System::ElapsedTime</text>
<text text-anchor="middle" x="1302" y="-242" font-family="Helvetica,sans-Serif" font-size="10.00">::Precision_T</text>
</a>
</g>
</g>
<!-- Node4&#45;&gt;Node2 -->
<g id="edge3" class="edge"><title>Node4&#45;&gt;Node2</title>
<path fill="none" stroke="#9a32cd" stroke-dasharray="5,2" d="M1378.94,-235.842C1414.59,-229.196 1456.13,-221.451 1487.95,-215.517"/>
<polygon fill="#9a32cd" stroke="#9a32cd" points="1378.24,-232.411 1369.05,-237.685 1379.53,-239.293 1378.24,-232.411"/>
<text text-anchor="middle" x="1415.5" y="-247" font-family="Helvetica,sans-Serif" font-size="10.00"> m_interval</text>
<text text-anchor="middle" x="1415.5" y="-236" font-family="Helvetica,sans-Serif" font-size="10.00">m_timeMark</text>
</g>
<!-- Node5 -->
<g id="node5" class="node"><title>Node5</title>
<g id="a_node5"><a xlink:href="class_storm_1_1_component_1_1_idt_selection.html#struct_storm_1_1_component_1_1_idt_selection_1_1_input___t" target="_top" xlink:title="Input Model Points.">
<polygon fill="white" stroke="black" points="1462,-44 1462,-74 1618,-74 1618,-44 1462,-44"/>
<text text-anchor="start" x="1470" y="-62" font-family="Helvetica,sans-Serif" font-size="10.00">Storm::Component::IdtSelection</text>
<text text-anchor="middle" x="1540" y="-51" font-family="Helvetica,sans-Serif" font-size="10.00">::Input_T</text>
</a>
</g>
</g>
<!-- Node5&#45;&gt;Node1 -->
<g id="edge4" class="edge"><title>Node5&#45;&gt;Node1</title>
<path fill="none" stroke="#9a32cd" stroke-dasharray="5,2" d="M1597.61,-77.1882C1640.51,-90.9697 1697.76,-109.36 1732.14,-120.406"/>
<polygon fill="#9a32cd" stroke="#9a32cd" points="1598.46,-73.7838 1587.87,-74.0573 1596.32,-80.4483 1598.46,-73.7838"/>
<text text-anchor="middle" x="1651.5" y="-102" font-family="Helvetica,sans-Serif" font-size="10.00"> m_in</text>
</g>
<!-- Node6 -->
<g id="node6" class="node"><title>Node6</title>
<g id="a_node6"><a xlink:href="class_cpl_1_1_dm_1_1_mp_1_1_float.html" target="_top" xlink:title="This class provides a concrete implementation for a Point who&#39;s data is a float.">
<polygon fill="white" stroke="black" points="1252.5,-66.5 1252.5,-85.5 1351.5,-85.5 1351.5,-66.5 1252.5,-66.5"/>
<text text-anchor="middle" x="1302" y="-73.5" font-family="Helvetica,sans-Serif" font-size="10.00">Cpl::Dm::Mp::Float</text>
</a>
</g>
</g>
<!-- Node6&#45;&gt;Node5 -->
<g id="edge5" class="edge"><title>Node6&#45;&gt;Node5</title>
<path fill="none" stroke="#9a32cd" stroke-dasharray="5,2" d="M1355,-64.5733C1365.54,-62.6873 1376.59,-61.0175 1387,-60 1411.29,-57.6262 1437.88,-56.8373 1461.92,-56.7978"/>
<polygon fill="#9a32cd" stroke="#9a32cd" points="1354.27,-61.1494 1345.09,-66.4335 1355.56,-68.0294 1354.27,-61.1494"/>
<text text-anchor="middle" x="1415.5" y="-74" font-family="Helvetica,sans-Serif" font-size="10.00"> primaryIdt</text>
<text text-anchor="middle" x="1415.5" y="-63" font-family="Helvetica,sans-Serif" font-size="10.00">secondaryIdt</text>
</g>
<!-- Node16 -->
<g id="node16" class="node"><title>Node16</title>
<g id="a_node16"><a xlink:href="class_storm_1_1_component_1_1_idt_selection.html#struct_storm_1_1_component_1_1_idt_selection_1_1_output___t" target="_top" xlink:title="Output Parameters.">
<polygon fill="white" stroke="black" points="1462,-115 1462,-145 1618,-145 1618,-115 1462,-115"/>
<text text-anchor="start" x="1470" y="-133" font-family="Helvetica,sans-Serif" font-size="10.00">Storm::Component::IdtSelection</text>
<text text-anchor="middle" x="1540" y="-122" font-family="Helvetica,sans-Serif" font-size="10.00">::Output_T</text>
</a>
</g>
</g>
<!-- Node6&#45;&gt;Node16 -->
<g id="edge18" class="edge"><title>Node6&#45;&gt;Node16</title>
<path fill="none" stroke="#9a32cd" stroke-dasharray="5,2" d="M1361.61,-87.3113C1387.01,-92.4046 1417.04,-98.6853 1444,-105 1456.95,-108.034 1470.83,-111.54 1483.87,-114.948"/>
<polygon fill="#9a32cd" stroke="#9a32cd" points="1362.25,-83.8701 1351.76,-85.3484 1360.88,-90.7352 1362.25,-83.8701"/>
<text text-anchor="middle" x="1415.5" y="-108" font-family="Helvetica,sans-Serif" font-size="10.00"> activeIdt</text>
</g>
<!-- Node7 -->
<g id="node7" class="node"><title>Node7</title>
<g id="a_node7"><a xlink:href="class_cpl_1_1_dm_1_1_mp_1_1_numeric.html" target="_top" xlink:title=" ">
<polygon fill="white" stroke="black" points="977,-61 977,-91 1090,-91 1090,-61 977,-61"/>
<text text-anchor="start" x="985" y="-79" font-family="Helvetica,sans-Serif" font-size="10.00">Cpl::Dm::Mp::Numeric</text>
<text text-anchor="middle" x="1033.5" y="-68" font-family="Helvetica,sans-Serif" font-size="10.00">&lt; float, Float &gt;</text>
</a>
</g>
</g>
<!-- Node7&#45;&gt;Node6 -->
<g id="edge6" class="edge"><title>Node7&#45;&gt;Node6</title>
<path fill="none" stroke="midnightblue" d="M1100.14,-76C1147.2,-76 1209.57,-76 1252.24,-76"/>
<polygon fill="midnightblue" stroke="midnightblue" points="1100.04,-72.5001 1090.04,-76 1100.04,-79.5001 1100.04,-72.5001"/>
</g>
<!-- Node8 -->
<g id="node8" class="node"><title>Node8</title>
<g id="a_node8"><a xlink:href="class_cpl_1_1_dm_1_1_model_point_common__.html" target="_top" xlink:title="This concrete class provide common infrastructure for a Model Point.">
<polygon fill="white" stroke="black" points="457,-76.5 457,-95.5 608,-95.5 608,-76.5 457,-76.5"/>
<text text-anchor="middle" x="532.5" y="-83.5" font-family="Helvetica,sans-Serif" font-size="10.00">Cpl::Dm::ModelPointCommon_</text>
</a>
</g>
</g>
<!-- Node8&#45;&gt;Node7 -->
<g id="edge7" class="edge"><title>Node8&#45;&gt;Node7</title>
<path fill="none" stroke="midnightblue" d="M587.326,-74.5733C614.897,-69.2921 649.088,-63.6186 680,-61 784.675,-52.1328 907.302,-61.8782 976.851,-69.2778"/>
<polygon fill="midnightblue" stroke="midnightblue" points="586.629,-71.1431 577.486,-76.4949 587.971,-78.0133 586.629,-71.1431"/>
</g>
<!-- Node14 -->
<g id="node14" class="node"><title>Node14</title>
<g id="a_node14"><a xlink:href="class_cpl_1_1_dm_1_1_mp_1_1_numeric.html" target="_top" xlink:title="This template class provides a mostly concrete implementation for a Model Point who&#39;s data is a C num...">
<polygon fill="white" stroke="black" points="680,-71 680,-101 815,-101 815,-71 680,-71"/>
<text text-anchor="start" x="688" y="-89" font-family="Helvetica,sans-Serif" font-size="10.00">Cpl::Dm::Mp::Numeric</text>
<text text-anchor="middle" x="747.5" y="-78" font-family="Helvetica,sans-Serif" font-size="10.00">&lt; ELEMTYPE, MPTYPE &gt;</text>
</a>
</g>
</g>
<!-- Node8&#45;&gt;Node14 -->
<g id="edge14" class="edge"><title>Node8&#45;&gt;Node14</title>
<path fill="none" stroke="midnightblue" d="M618.503,-86C638.856,-86 660.302,-86 679.698,-86"/>
<polygon fill="midnightblue" stroke="midnightblue" points="618.296,-82.5001 608.296,-86 618.296,-89.5001 618.296,-82.5001"/>
</g>
<!-- Node15 -->
<g id="node15" class="node"><title>Node15</title>
<g id="a_node15"><a xlink:href="class_cpl_1_1_dm_1_1_mp_1_1_bool.html" target="_top" xlink:title="This class provides a concrete implementation for a Point who&#39;s data is a bool.">
<polygon fill="white" stroke="black" points="1114,-0.5 1114,-19.5 1211,-19.5 1211,-0.5 1114,-0.5"/>
<text text-anchor="middle" x="1162.5" y="-7.5" font-family="Helvetica,sans-Serif" font-size="10.00">Cpl::Dm::Mp::Bool</text>
</a>
</g>
</g>
<!-- Node8&#45;&gt;Node15 -->
<g id="edge16" class="edge"><title>Node8&#45;&gt;Node15</title>
<path fill="none" stroke="midnightblue" d="M572.551,-73.4958C588.918,-68.6556 608.237,-63.4592 626,-60 649.702,-55.3842 655.975,-56.4322 680,-54 838.888,-37.9148 1027.55,-21.4366 1113.97,-14.0333"/>
<polygon fill="midnightblue" stroke="midnightblue" points="571.344,-70.204 562.782,-76.4447 573.367,-76.9053 571.344,-70.204"/>
</g>
<!-- Node17 -->
<g id="node17" class="node"><title>Node17</title>
<g id="a_node17"><a xlink:href="class_cpl_1_1_dm_1_1_mp_1_1_ref_counter.html" target="_top" xlink:title="This class provides a concrete implementation for a Point who&#39;s data is 32 bit unsigned reference cou...">
<polygon fill="white" stroke="black" points="833,-158.5 833,-177.5 959,-177.5 959,-158.5 833,-158.5"/>
<text text-anchor="middle" x="896" y="-165.5" font-family="Helvetica,sans-Serif" font-size="10.00">Cpl::Dm::Mp::RefCounter</text>
</a>
</g>
</g>
<!-- Node8&#45;&gt;Node17 -->
<g id="edge20" class="edge"><title>Node8&#45;&gt;Node17</title>
<path fill="none" stroke="midnightblue" d="M559.859,-100.39C588.515,-115.296 636.104,-137.925 680,-149 730.503,-161.742 789.548,-166.248 832.97,-167.706"/>
<polygon fill="midnightblue" stroke="midnightblue" points="561.376,-97.2335 550.899,-95.6591 558.108,-103.424 561.376,-97.2335"/>
</g>
<!-- Node18 -->
<g id="node18" class="node"><title>Node18</title>
<g id="a_node18"><a xlink:href="class_storm_1_1_dm_1_1_mp_idt_alarm.html" target="_top" xlink:title="This class provides a concrete implementation for a Point who&#39;s data is the Indoor Temperature Alarm ...">
<polygon fill="white" stroke="black" points="687.5,-120.5 687.5,-139.5 807.5,-139.5 807.5,-120.5 687.5,-120.5"/>
<text text-anchor="middle" x="747.5" y="-127.5" font-family="Helvetica,sans-Serif" font-size="10.00">Storm::Dm::MpIdtAlarm</text>
</a>
</g>
</g>
<!-- Node8&#45;&gt;Node18 -->
<g id="edge22" class="edge"><title>Node8&#45;&gt;Node18</title>
<path fill="none" stroke="midnightblue" d="M589.655,-97.6C624.181,-104.732 667.876,-113.758 700.372,-120.471"/>
<polygon fill="midnightblue" stroke="midnightblue" points="590.219,-94.1428 579.718,-95.5473 588.803,-100.998 590.219,-94.1428"/>
</g>
<!-- Node9 -->
<g id="node9" class="node"><title>Node9</title>
<g id="a_node9"><a xlink:href="class_cpl_1_1_dm_1_1_model_point.html" target="_top" xlink:title="This mostly abstract class defines the interface for a Model Point.">
<polygon fill="white" stroke="black" points="220,-94.5 220,-113.5 327,-113.5 327,-94.5 220,-94.5"/>
<text text-anchor="middle" x="273.5" y="-101.5" font-family="Helvetica,sans-Serif" font-size="10.00">Cpl::Dm::ModelPoint</text>
</a>
</g>
</g>
<!-- Node9&#45;&gt;Node8 -->
<g id="edge8" class="edge"><title>Node9&#45;&gt;Node8</title>
<path fill="none" stroke="midnightblue" d="M337.487,-99.5884C373.446,-97.07 418.748,-93.8971 456.531,-91.2508"/>
<polygon fill="midnightblue" stroke="midnightblue" points="336.859,-96.1238 327.128,-100.314 337.348,-103.107 336.859,-96.1238"/>
</g>
<!-- Node10 -->
<g id="node10" class="node"><title>Node10</title>
<g id="a_node10"><a xlink:href="class_cpl_1_1_container_1_1_item.html" target="_top" xlink:title="This class is used by the Container classes to implement a various types of singly linked containers.">
<polygon fill="white" stroke="black" points="18,-94.5 18,-113.5 122,-113.5 122,-94.5 18,-94.5"/>
<text text-anchor="middle" x="70" y="-101.5" font-family="Helvetica,sans-Serif" font-size="10.00">Cpl::Container::Item</text>
</a>
</g>
</g>
<!-- Node10&#45;&gt;Node9 -->
<g id="edge9" class="edge"><title>Node10&#45;&gt;Node9</title>
<path fill="none" stroke="midnightblue" d="M132.16,-104C160.091,-104 192.85,-104 219.69,-104"/>
<polygon fill="midnightblue" stroke="midnightblue" points="132.107,-100.5 122.107,-104 132.107,-107.5 132.107,-100.5"/>
</g>
<!-- Node11 -->
<g id="node11" class="node"><title>Node11</title>
<g id="a_node11"><a xlink:href="class_cpl_1_1_dm_1_1_model_database.html" target="_top" xlink:title="This concrete class implements a simple Model Database.">
<polygon fill="white" stroke="black" points="211,-56.5 211,-75.5 336,-75.5 336,-56.5 211,-56.5"/>
<text text-anchor="middle" x="273.5" y="-63.5" font-family="Helvetica,sans-Serif" font-size="10.00">Cpl::Dm::ModelDatabase</text>
</a>
</g>
</g>
<!-- Node11&#45;&gt;Node8 -->
<g id="edge10" class="edge"><title>Node11&#45;&gt;Node8</title>
<path fill="none" stroke="#9a32cd" stroke-dasharray="5,2" d="M346.217,-71.0212C375.056,-73.0952 408.615,-75.5779 439,-78 444.784,-78.4611 450.771,-78.9507 456.789,-79.4517"/>
<polygon fill="#9a32cd" stroke="#9a32cd" points="346.451,-67.529 336.226,-70.3054 345.95,-74.5111 346.451,-67.529"/>
<text text-anchor="middle" x="396.5" y="-81" font-family="Helvetica,sans-Serif" font-size="10.00"> m_modelDatabase</text>
</g>
<!-- Node12 -->
<g id="node12" class="node"><title>Node12</title>
<g id="a_node12"><a xlink:href="class_cpl_1_1_dm_1_1_model_database_api.html" target="_top" xlink:title="This class defines the basic operations that can be performed on a Model Base.">
<polygon fill="white" stroke="black" points="0,-18.5 0,-37.5 140,-37.5 140,-18.5 0,-18.5"/>
<text text-anchor="middle" x="70" y="-25.5" font-family="Helvetica,sans-Serif" font-size="10.00">Cpl::Dm::ModelDatabaseApi</text>
</a>
</g>
</g>
<!-- Node12&#45;&gt;Node11 -->
<g id="edge11" class="edge"><title>Node12&#45;&gt;Node11</title>
<path fill="none" stroke="midnightblue" d="M131.546,-39.4181C160.377,-44.8552 194.462,-51.2832 221.892,-56.4561"/>
<polygon fill="midnightblue" stroke="midnightblue" points="132.062,-35.9539 121.587,-37.54 130.765,-42.8326 132.062,-35.9539"/>
</g>
<!-- Node13 -->
<g id="node13" class="node"><title>Node13</title>
<g id="a_node13"><a xlink:href="class_cpl_1_1_system_1_1_mutex.html" target="_top" xlink:title="This mutex class defines the interface for a mutex that has &quot;recursive&quot; semantics.">
<polygon fill="white" stroke="black" points="18,-56.5 18,-75.5 122,-75.5 122,-56.5 18,-56.5"/>
<text text-anchor="middle" x="70" y="-63.5" font-family="Helvetica,sans-Serif" font-size="10.00">Cpl::System::Mutex</text>
</a>
</g>
</g>
<!-- Node13&#45;&gt;Node11 -->
<g id="edge12" class="edge"><title>Node13&#45;&gt;Node11</title>
<path fill="none" stroke="#9a32cd" stroke-dasharray="5,2" d="M132.15,-66C157.021,-66 185.721,-66 210.662,-66"/>
<polygon fill="#9a32cd" stroke="#9a32cd" points="132.107,-62.5001 122.107,-66 132.107,-69.5001 132.107,-62.5001"/>
<text text-anchor="middle" x="175.5" y="-69" font-family="Helvetica,sans-Serif" font-size="10.00"> m_lock</text>
</g>
<!-- Node14&#45;&gt;Node7 -->
<g id="edge13" class="edge"><title>Node14&#45;&gt;Node7</title>
<path fill="none" stroke="orange" stroke-dasharray="5,2" d="M825.098,-83.3029C872.974,-81.6171 933.54,-79.4845 976.841,-77.9598"/>
<polygon fill="orange" stroke="orange" points="824.956,-79.8056 815.085,-83.6554 825.202,-86.8013 824.956,-79.8056"/>
<text text-anchor="middle" x="896" y="-86" font-family="Helvetica,sans-Serif" font-size="10.00"> &lt; float, Float &gt;</text>
</g>
<!-- Node15&#45;&gt;Node5 -->
<g id="edge15" class="edge"><title>Node15&#45;&gt;Node5</title>
<path fill="none" stroke="#9a32cd" stroke-dasharray="5,2" d="M1221.05,-17.5095C1285.52,-25.9227 1390.35,-39.6023 1461.88,-48.9362"/>
<polygon fill="#9a32cd" stroke="#9a32cd" points="1221.43,-14.0294 1211.06,-16.2059 1220.52,-20.9705 1221.43,-14.0294"/>
<text text-anchor="middle" x="1302" y="-40" font-family="Helvetica,sans-Serif" font-size="10.00"> enabledSecondaryIdt</text>
</g>
<!-- Node16&#45;&gt;Node1 -->
<g id="edge17" class="edge"><title>Node16&#45;&gt;Node1</title>
<path fill="none" stroke="#9a32cd" stroke-dasharray="5,2" d="M1628.51,-130C1647.09,-130 1666.58,-130 1684.75,-130"/>
<polygon fill="#9a32cd" stroke="#9a32cd" points="1628.3,-126.5 1618.3,-130 1628.3,-133.5 1628.3,-126.5"/>
<text text-anchor="middle" x="1651.5" y="-133" font-family="Helvetica,sans-Serif" font-size="10.00"> m_out</text>
</g>
<!-- Node17&#45;&gt;Node16 -->
<g id="edge19" class="edge"><title>Node17&#45;&gt;Node16</title>
<path fill="none" stroke="#9a32cd" stroke-dasharray="5,2" d="M969.227,-167.185C1074.05,-165.468 1274.35,-160.179 1444,-144 1449.81,-143.446 1455.8,-142.782 1461.83,-142.048"/>
<polygon fill="#9a32cd" stroke="#9a32cd" points="969.021,-163.687 959.078,-167.345 969.132,-170.687 969.021,-163.687"/>
<text text-anchor="middle" x="1162.5" y="-167" font-family="Helvetica,sans-Serif" font-size="10.00"> systemForcedOffRefCnt</text>
</g>
<!-- Node18&#45;&gt;Node16 -->
<g id="edge21" class="edge"><title>Node18&#45;&gt;Node16</title>
<path fill="none" stroke="#9a32cd" stroke-dasharray="5,2" d="M817.853,-130C965.123,-130 1308.15,-130 1461.96,-130"/>
<polygon fill="#9a32cd" stroke="#9a32cd" points="817.593,-126.5 807.593,-130 817.593,-133.5 817.593,-126.5"/>
<text text-anchor="middle" x="1162.5" y="-133" font-family="Helvetica,sans-Serif" font-size="10.00"> idtAlarms</text>
</g>
<!-- Node19 -->
<g id="node19" class="node"><title>Node19</title>
<g id="a_node19"><a xlink:href="class_storm_1_1_dm_1_1_mp_idt_alarm.html#struct_storm_1_1_dm_1_1_mp_idt_alarm_1_1_data" target="_top" xlink:title="The MP&#39;s Data container.">
<polygon fill="white" stroke="black" points="472.5,-186 472.5,-216 592.5,-216 592.5,-186 472.5,-186"/>
<text text-anchor="start" x="480.5" y="-204" font-family="Helvetica,sans-Serif" font-size="10.00">Storm::Dm::MpIdtAlarm</text>
<text text-anchor="middle" x="532.5" y="-193" font-family="Helvetica,sans-Serif" font-size="10.00">::Data</text>
</a>
</g>
</g>
<!-- Node19&#45;&gt;Node18 -->
<g id="edge23" class="edge"><title>Node19&#45;&gt;Node18</title>
<path fill="none" stroke="#9a32cd" stroke-dasharray="5,2" d="M588.326,-182.725C629.641,-168.953 684.651,-150.616 717.719,-139.594"/>
<polygon fill="#9a32cd" stroke="#9a32cd" points="587.052,-179.46 578.672,-185.943 589.265,-186.101 587.052,-179.46"/>
<text text-anchor="middle" x="644" y="-173" font-family="Helvetica,sans-Serif" font-size="10.00"> m_data</text>
</g>
</g>
</svg>
