<?xml version="1.0" encoding="UTF-8" standalone="no"?>
<!DOCTYPE svg PUBLIC "-//W3C//DTD SVG 1.1//EN"
 "http://www.w3.org/Graphics/SVG/1.1/DTD/svg11.dtd">
<!-- Generated by graphviz version 10.0.1 (20240210.2158)
 -->
<!-- Title: Storm::Thermostat::Main::RunTimeRecord Pages: 1 -->
<svg width="2810pt" height="520pt"
 viewBox="0.00 0.00 2810.00 520.00" xmlns="http://www.w3.org/2000/svg" xmlns:xlink="http://www.w3.org/1999/xlink">
<g id="graph0" class="graph" transform="scale(1 1) rotate(0) translate(4 516)">
<title>Storm::Thermostat::Main::RunTimeRecord</title>
<!-- Node1 -->
<g id="Node000001" class="node">
<title>Node1</title>
<g id="a_Node000001"><a xlink:title="This concrete class implements the &quot;Record&quot; class for storing persistent run time alerts,...">
<polygon fill="#999999" stroke="#666666" points="2802,-240 2690,-240 2690,-208 2802,-208 2802,-240"/>
<text text-anchor="start" x="2698" y="-226.5" font-family="Helvetica,sans-Serif" font-size="10.00">Storm::Thermostat::</text>
<text text-anchor="middle" x="2746" y="-214.5" font-family="Helvetica,sans-Serif" font-size="10.00">Main::RunTimeRecord</text>
</a>
</g>
</g>
<!-- Node2 -->
<g id="Node000002" class="node">
<title>Node2</title>
<g id="a_Node000002"><a xlink:href="class_cpl_1_1_dm_1_1_persistent_1_1_record.html" target="_top" xlink:title="This mostly concrete class implements the Cpl::Persistent::Record interface where a Record instance c...">
<polygon fill="white" stroke="#666666" points="2043,-152 1941.5,-152 1941.5,-120 2043,-120 2043,-152"/>
<text text-anchor="start" x="1949.5" y="-138.5" font-family="Helvetica,sans-Serif" font-size="10.00">Cpl::Dm::Persistent</text>
<text text-anchor="middle" x="1992.25" y="-126.5" font-family="Helvetica,sans-Serif" font-size="10.00">::Record</text>
</a>
</g>
</g>
<!-- Node2&#45;&gt;Node1 -->
<g id="edge1_Node000001_Node000002" class="edge">
<title>Node2&#45;&gt;Node1</title>
<g id="a_edge1_Node000001_Node000002"><a xlink:title=" ">
<path fill="none" stroke="#63b8ff" d="M2054.5,-137.32C2101.5,-138.71 2167.96,-141.5 2226,-147 2385.85,-162.14 2424.75,-174.97 2583.5,-199 2618.85,-204.35 2658.52,-210.49 2689.7,-215.35"/>
<polygon fill="#63b8ff" stroke="#63b8ff" points="2054.9,-133.83 2044.8,-137.04 2054.7,-140.82 2054.9,-133.83"/>
</a>
</g>
</g>
<!-- Node17 -->
<g id="Node000017" class="node">
<title>Node17</title>
<g id="a_Node000017"><a xlink:href="class_cpl_1_1_dm_1_1_subscriber_composer.html" target="_top" xlink:title=" ">
<polygon fill="white" stroke="#666666" points="2394.25,-296 2244,-296 2244,-252 2394.25,-252 2394.25,-296"/>
<text text-anchor="start" x="2252" y="-282.5" font-family="Helvetica,sans-Serif" font-size="10.00">Cpl::Dm::SubscriberComposer</text>
<text text-anchor="start" x="2252" y="-270.5" font-family="Helvetica,sans-Serif" font-size="10.00">&lt; Cpl::Dm::Persistent::Record,</text>
<text text-anchor="middle" x="2319.12" y="-258.5" font-family="Helvetica,sans-Serif" font-size="10.00"> Cpl::Dm::ModelPoint &gt;</text>
</a>
</g>
</g>
<!-- Node2&#45;&gt;Node17 -->
<g id="edge38_Node000017_Node000002" class="edge">
<title>Node2&#45;&gt;Node17</title>
<g id="a_edge38_Node000017_Node000002"><a xlink:title=" ">
<path fill="none" stroke="#9a32cd" stroke-dasharray="5,2" d="M2041.57,-156.75C2055.35,-162.66 2070.39,-169.1 2084.25,-175 2146.31,-201.44 2217.73,-231.63 2265.15,-251.66"/>
<polygon fill="#9a32cd" stroke="#9a32cd" points="2043.27,-153.68 2032.7,-152.95 2040.51,-160.11 2043.27,-153.68"/>
</a>
</g>
<text text-anchor="middle" x="2155.12" y="-236.5" font-family="Helvetica,sans-Serif" font-size="10.00" fill="grey"> m_context</text>
</g>
<!-- Node3 -->
<g id="Node000003" class="node">
<title>Node3</title>
<g id="a_Node000003"><a xlink:href="class_cpl_1_1_persistent_1_1_record.html" target="_top" xlink:title="This abstract class defines the public interface for a Record instance.">
<polygon fill="white" stroke="#666666" points="1776.25,-108 1659,-108 1659,-88 1776.25,-88 1776.25,-108"/>
<text text-anchor="middle" x="1717.62" y="-94.5" font-family="Helvetica,sans-Serif" font-size="10.00">Cpl::Persistent::Record</text>
</a>
</g>
</g>
<!-- Node3&#45;&gt;Node2 -->
<g id="edge2_Node000002_Node000003" class="edge">
<title>Node3&#45;&gt;Node2</title>
<g id="a_edge2_Node000002_Node000003"><a xlink:title=" ">
<path fill="none" stroke="#63b8ff" d="M1787.66,-107.62C1835.54,-114.3 1898.2,-123.03 1941.3,-129.04"/>
<polygon fill="#63b8ff" stroke="#63b8ff" points="1788.33,-104.18 1777.94,-106.27 1787.36,-111.11 1788.33,-104.18"/>
</a>
</g>
</g>
<!-- Node4 -->
<g id="Node000004" class="node">
<title>Node4</title>
<g id="a_Node000004"><a xlink:href="class_cpl_1_1_persistent_1_1_payload.html" target="_top" xlink:title="This abstract class defines the interface accessing the &#39;data payload&#39; of an individual Record instan...">
<polygon fill="white" stroke="#666666" points="1778.5,-70 1656.75,-70 1656.75,-50 1778.5,-50 1778.5,-70"/>
<text text-anchor="middle" x="1717.62" y="-56.5" font-family="Helvetica,sans-Serif" font-size="10.00">Cpl::Persistent::Payload</text>
</a>
</g>
</g>
<!-- Node4&#45;&gt;Node2 -->
<g id="edge3_Node000002_Node000004" class="edge">
<title>Node4&#45;&gt;Node2</title>
<g id="a_edge3_Node000002_Node000004"><a xlink:title=" ">
<path fill="none" stroke="#63b8ff" d="M1774.44,-73.06C1810.51,-81.76 1858.36,-93.81 1900.25,-106 1914.47,-110.14 1929.8,-115.02 1943.75,-119.64"/>
<polygon fill="#63b8ff" stroke="#63b8ff" points="1775.66,-69.75 1765.12,-70.82 1774.03,-76.56 1775.66,-69.75"/>
</a>
</g>
</g>
<!-- Node5 -->
<g id="Node000005" class="node">
<title>Node5</title>
<g id="a_Node000005"><a xlink:href="class_cpl_1_1_dm_1_1_persistent_1_1_flush_request.html" target="_top" xlink:title="This abstract class define ITC message type and payload for the application to request flushing the R...">
<polygon fill="white" stroke="#666666" points="1768.38,-32 1666.88,-32 1666.88,0 1768.38,0 1768.38,-32"/>
<text text-anchor="start" x="1674.88" y="-18.5" font-family="Helvetica,sans-Serif" font-size="10.00">Cpl::Dm::Persistent</text>
<text text-anchor="middle" x="1717.62" y="-6.5" font-family="Helvetica,sans-Serif" font-size="10.00">::FlushRequest</text>
</a>
</g>
</g>
<!-- Node5&#45;&gt;Node2 -->
<g id="edge4_Node000002_Node000005" class="edge">
<title>Node5&#45;&gt;Node2</title>
<g id="a_edge4_Node000002_Node000005"><a xlink:title=" ">
<path fill="none" stroke="#63b8ff" d="M1779.48,-31.21C1815.54,-41.34 1861.61,-56.22 1900.25,-75 1925.91,-87.47 1952.74,-106.27 1970.56,-119.7"/>
<polygon fill="#63b8ff" stroke="#63b8ff" points="1780.65,-27.91 1770.08,-28.63 1778.79,-34.66 1780.65,-27.91"/>
</a>
</g>
</g>
<!-- Node6 -->
<g id="Node000006" class="node">
<title>Node6</title>
<g id="a_Node000006"><a xlink:href="class_cpl_1_1_dm_1_1_persistent_1_1_erase_request.html" target="_top" xlink:title="This abstract class define ITC message type and payload for the application to request invalidating/c...">
<polygon fill="white" stroke="#666666" points="1768.38,-196 1666.88,-196 1666.88,-164 1768.38,-164 1768.38,-196"/>
<text text-anchor="start" x="1674.88" y="-182.5" font-family="Helvetica,sans-Serif" font-size="10.00">Cpl::Dm::Persistent</text>
<text text-anchor="middle" x="1717.62" y="-170.5" font-family="Helvetica,sans-Serif" font-size="10.00">::EraseRequest</text>
</a>
</g>
</g>
<!-- Node6&#45;&gt;Node2 -->
<g id="edge5_Node000002_Node000006" class="edge">
<title>Node6&#45;&gt;Node2</title>
<g id="a_edge5_Node000002_Node000006"><a xlink:title=" ">
<path fill="none" stroke="#63b8ff" d="M1779.86,-170.89C1815.1,-165.56 1860.2,-158.61 1900.25,-152 1913.54,-149.81 1927.91,-147.33 1941.22,-144.99"/>
<polygon fill="#63b8ff" stroke="#63b8ff" points="1779.64,-167.38 1770.28,-172.33 1780.69,-174.3 1779.64,-167.38"/>
</a>
</g>
</g>
<!-- Node7 -->
<g id="Node000007" class="node">
<title>Node7</title>
<g id="a_Node000007"><a xlink:href="class_cpl_1_1_system_1_1_timer.html" target="_top" xlink:title="This mostly concrete interface defines the operations that can be performed on a software timer.">
<polygon fill="white" stroke="#666666" points="1767.62,-462 1667.62,-462 1667.62,-442 1767.62,-442 1767.62,-462"/>
<text text-anchor="middle" x="1717.62" y="-448.5" font-family="Helvetica,sans-Serif" font-size="10.00">Cpl::System::Timer</text>
</a>
</g>
</g>
<!-- Node7&#45;&gt;Node2 -->
<g id="edge6_Node000002_Node000007" class="edge">
<title>Node7&#45;&gt;Node2</title>
<g id="a_edge6_Node000002_Node000007"><a xlink:title=" ">
<path fill="none" stroke="#63b8ff" d="M1753.9,-436.79C1793.96,-417.98 1859.09,-382.53 1900.25,-335 1949.86,-277.71 1977.41,-188.86 1987.16,-152.43"/>
<polygon fill="#63b8ff" stroke="#63b8ff" points="1752.55,-433.56 1744.92,-440.91 1755.47,-439.92 1752.55,-433.56"/>
</a>
</g>
</g>
<!-- Node34 -->
<g id="Node000034" class="node">
<title>Node34</title>
<g id="a_Node000034"><a xlink:href="class_cpl_1_1_system_1_1_timer_composer.html" target="_top" xlink:title=" ">
<polygon fill="white" stroke="#666666" points="2391.25,-470 2247,-470 2247,-426 2391.25,-426 2391.25,-470"/>
<text text-anchor="start" x="2255" y="-456.5" font-family="Helvetica,sans-Serif" font-size="10.00">Cpl::System::TimerComposer</text>
<text text-anchor="start" x="2255" y="-444.5" font-family="Helvetica,sans-Serif" font-size="10.00">&lt; Storm::Thermostat::Main</text>
<text text-anchor="middle" x="2319.12" y="-432.5" font-family="Helvetica,sans-Serif" font-size="10.00">::RunTimeRecord &gt;</text>
</a>
</g>
</g>
<!-- Node7&#45;&gt;Node34 -->
<g id="edge47_Node000034_Node000007" class="edge">
<title>Node7&#45;&gt;Node34</title>
<g id="a_edge47_Node000034_Node000007"><a xlink:title=" ">
<path fill="none" stroke="#63b8ff" d="M1779.29,-451.6C1890.72,-450.85 2127.46,-449.27 2246.55,-448.48"/>
<polygon fill="#63b8ff" stroke="#63b8ff" points="1779.43,-448.09 1769.45,-451.66 1779.48,-455.09 1779.43,-448.09"/>
</a>
</g>
</g>
<!-- Node35 -->
<g id="Node000035" class="node">
<title>Node35</title>
<g id="a_Node000035"><a xlink:href="class_cpl_1_1_system_1_1_timer_composer.html" target="_top" xlink:title="This template class implements a Software Timer that is context independent and allows for a single c...">
<polygon fill="white" stroke="#666666" points="2064.38,-508 1920.12,-508 1920.12,-476 2064.38,-476 2064.38,-508"/>
<text text-anchor="start" x="1928.12" y="-494.5" font-family="Helvetica,sans-Serif" font-size="10.00">Cpl::System::TimerComposer</text>
<text text-anchor="middle" x="1992.25" y="-482.5" font-family="Helvetica,sans-Serif" font-size="10.00">&lt; CONTEXT &gt;</text>
</a>
</g>
</g>
<!-- Node7&#45;&gt;Node35 -->
<g id="edge49_Node000035_Node000007" class="edge">
<title>Node7&#45;&gt;Node35</title>
<g id="a_edge49_Node000035_Node000007"><a xlink:title=" ">
<path fill="none" stroke="#63b8ff" d="M1779.32,-460.91C1820.83,-467 1876.02,-475.09 1919.67,-481.5"/>
<polygon fill="#63b8ff" stroke="#63b8ff" points="1779.9,-457.45 1769.49,-459.46 1778.88,-464.38 1779.9,-457.45"/>
</a>
</g>
</g>
<!-- Node8 -->
<g id="Node000008" class="node">
<title>Node8</title>
<g id="a_Node000008"><a xlink:href="class_cpl_1_1_system_1_1_counter_callback__.html" target="_top" xlink:title="This abstract class defines the call&#45;back interface for a Counter object.">
<polygon fill="white" stroke="#666666" points="1401.5,-462 1249,-462 1249,-442 1401.5,-442 1401.5,-462"/>
<text text-anchor="middle" x="1325.25" y="-448.5" font-family="Helvetica,sans-Serif" font-size="10.00">Cpl::System::CounterCallback_</text>
</a>
</g>
</g>
<!-- Node8&#45;&gt;Node7 -->
<g id="edge7_Node000007_Node000008" class="edge">
<title>Node8&#45;&gt;Node7</title>
<g id="a_edge7_Node000007_Node000008"><a xlink:title=" ">
<path fill="none" stroke="#63b8ff" d="M1413.27,-452C1491.51,-452 1603.63,-452 1667.37,-452"/>
<polygon fill="#63b8ff" stroke="#63b8ff" points="1413.49,-448.5 1403.49,-452 1413.49,-455.5 1413.49,-448.5"/>
</a>
</g>
</g>
<!-- Node9 -->
<g id="Node000009" class="node">
<title>Node9</title>
<g id="a_Node000009"><a xlink:href="class_cpl_1_1_container_1_1_extended_item.html" target="_top" xlink:title="This class is used by the Container classes to implement a various types of DOUBLY linked containers.">
<polygon fill="white" stroke="#666666" points="1076,-455 932.5,-455 932.5,-435 1076,-435 1076,-455"/>
<text text-anchor="middle" x="1004.25" y="-441.5" font-family="Helvetica,sans-Serif" font-size="10.00">Cpl::Container::ExtendedItem</text>
</a>
</g>
</g>
<!-- Node9&#45;&gt;Node8 -->
<g id="edge8_Node000008_Node000009" class="edge">
<title>Node9&#45;&gt;Node8</title>
<g id="a_edge8_Node000008_Node000009"><a xlink:title=" ">
<path fill="none" stroke="#63b8ff" d="M1087.79,-446.81C1137.44,-447.9 1200.18,-449.28 1248.55,-450.34"/>
<polygon fill="#63b8ff" stroke="#63b8ff" points="1088.03,-443.32 1077.96,-446.6 1087.88,-450.31 1088.03,-443.32"/>
</a>
</g>
</g>
<!-- Node20 -->
<g id="Node000020" class="node">
<title>Node20</title>
<g id="a_Node000020"><a xlink:href="class_cpl_1_1_dm_1_1_subscriber_api.html" target="_top" xlink:title="This abstract class defines the Subscriber interface &#45; for change notifications &#45; to a Model Points d...">
<polygon fill="white" stroke="#666666" points="1231,-408 1113,-408 1113,-388 1231,-388 1231,-408"/>
<text text-anchor="middle" x="1172" y="-394.5" font-family="Helvetica,sans-Serif" font-size="10.00">Cpl::Dm::SubscriberApi</text>
</a>
</g>
</g>
<!-- Node9&#45;&gt;Node20 -->
<g id="edge21_Node000020_Node000009" class="edge">
<title>Node9&#45;&gt;Node20</title>
<g id="a_edge21_Node000020_Node000009"><a xlink:title=" ">
<path fill="none" stroke="#63b8ff" d="M1053.07,-431.44C1078.84,-424.13 1110.15,-415.25 1134.03,-408.48"/>
<polygon fill="#63b8ff" stroke="#63b8ff" points="1052.16,-428.06 1043.49,-434.16 1054.07,-434.8 1052.16,-428.06"/>
</a>
</g>
</g>
<!-- Node10 -->
<g id="Node000010" class="node">
<title>Node10</title>
<g id="a_Node000010"><a xlink:href="class_cpl_1_1_container_1_1_item.html" target="_top" xlink:title="This class is used by the Container classes to implement a various types of singly linked containers.">
<polygon fill="white" stroke="#666666" points="104.12,-265 1.88,-265 1.88,-245 104.12,-245 104.12,-265"/>
<text text-anchor="middle" x="53" y="-251.5" font-family="Helvetica,sans-Serif" font-size="10.00">Cpl::Container::Item</text>
</a>
</g>
</g>
<!-- Node10&#45;&gt;Node9 -->
<g id="edge9_Node000009_Node000010" class="edge">
<title>Node10&#45;&gt;Node9</title>
<g id="a_edge9_Node000009_Node000010"><a xlink:title=" ">
<path fill="none" stroke="#63b8ff" d="M61.06,-275.74C76.07,-319.29 110.89,-416.99 124,-426 189.8,-471.2 734.83,-455.23 932.23,-447.87"/>
<polygon fill="#63b8ff" stroke="#63b8ff" points="64.42,-274.77 57.87,-266.44 57.8,-277.04 64.42,-274.77"/>
</a>
</g>
</g>
<!-- Node16 -->
<g id="Node000016" class="node">
<title>Node16</title>
<g id="a_Node000016"><a xlink:href="class_cpl_1_1_dm_1_1_model_point.html" target="_top" xlink:title="This mostly abstract class defines the interface for a Model Point.">
<polygon fill="white" stroke="#666666" points="1225,-257 1119,-257 1119,-237 1225,-237 1225,-257"/>
<text text-anchor="middle" x="1172" y="-243.5" font-family="Helvetica,sans-Serif" font-size="10.00">Cpl::Dm::ModelPoint</text>
</a>
</g>
</g>
<!-- Node10&#45;&gt;Node16 -->
<g id="edge16_Node000016_Node000010" class="edge">
<title>Node10&#45;&gt;Node16</title>
<g id="a_edge16_Node000016_Node000010"><a xlink:title=" ">
<path fill="none" stroke="#63b8ff" d="M78.57,-238.43C131.76,-204.23 262.52,-129 383.75,-129 383.75,-129 383.75,-129 1005.25,-129 1079.08,-129 1142.83,-207.65 1163.76,-236.53"/>
<polygon fill="#63b8ff" stroke="#63b8ff" points="76.72,-235.46 70.26,-243.86 80.55,-241.32 76.72,-235.46"/>
</a>
</g>
</g>
<!-- Node25 -->
<g id="Node000025" class="node">
<title>Node25</title>
<g id="a_Node000025"><a xlink:href="class_cpl_1_1_system_1_1_signable.html" target="_top" xlink:title="This abstract class defines the interface by which a client can cause an object that is waiting&#45;on&#45;a&#45;...">
<polygon fill="white" stroke="#666666" points="441.5,-265 328,-265 328,-245 441.5,-245 441.5,-265"/>
<text text-anchor="middle" x="384.75" y="-251.5" font-family="Helvetica,sans-Serif" font-size="10.00">Cpl::System::Signable</text>
</a>
</g>
</g>
<!-- Node10&#45;&gt;Node25 -->
<g id="edge28_Node000025_Node000010" class="edge">
<title>Node10&#45;&gt;Node25</title>
<g id="a_edge28_Node000025_Node000010"><a xlink:title=" ">
<path fill="none" stroke="#63b8ff" d="M115.79,-255C176.62,-255 268.69,-255 327.51,-255"/>
<polygon fill="#63b8ff" stroke="#63b8ff" points="115.95,-251.5 105.95,-255 115.95,-258.5 115.95,-251.5"/>
</a>
</g>
</g>
<!-- Node11 -->
<g id="Node000011" class="node">
<title>Node11</title>
<g id="a_Node000011"><a xlink:href="class_cpl_1_1_system_1_1_timer_manager.html" target="_top" xlink:title="This mostly concrete class implements manages a list of Software Timers.">
<polygon fill="white" stroke="#666666" points="779.5,-496 642,-496 642,-476 779.5,-476 779.5,-496"/>
<text text-anchor="middle" x="710.75" y="-482.5" font-family="Helvetica,sans-Serif" font-size="10.00">Cpl::System::TimerManager</text>
</a>
</g>
</g>
<!-- Node11&#45;&gt;Node7 -->
<g id="edge10_Node000007_Node000011" class="edge">
<title>Node11&#45;&gt;Node7</title>
<g id="a_edge10_Node000007_Node000011"><a xlink:title=" ">
<path fill="none" stroke="#9a32cd" stroke-dasharray="5,2" d="M791.15,-491.03C849.74,-494.32 931.43,-498 1003.25,-498 1003.25,-498 1003.25,-498 1483.62,-498 1556.61,-498 1640.05,-476.01 1684.6,-462.44"/>
<polygon fill="#9a32cd" stroke="#9a32cd" points="791.44,-487.54 781.26,-490.47 791.04,-494.53 791.44,-487.54"/>
</a>
</g>
<text text-anchor="middle" x="1172" y="-500.5" font-family="Helvetica,sans-Serif" font-size="10.00" fill="grey"> m_timingSource</text>
</g>
<!-- Node22 -->
<g id="Node000022" class="node">
<title>Node22</title>
<g id="a_Node000022"><a xlink:href="class_cpl_1_1_system_1_1_event_loop.html" target="_top" xlink:title="This concrete class is a Runnable object that provides a event driven execution model for a thread.">
<polygon fill="white" stroke="#666666" points="1064.75,-341 943.75,-341 943.75,-321 1064.75,-321 1064.75,-341"/>
<text text-anchor="middle" x="1004.25" y="-327.5" font-family="Helvetica,sans-Serif" font-size="10.00">Cpl::System::EventLoop</text>
</a>
</g>
</g>
<!-- Node11&#45;&gt;Node22 -->
<g id="edge29_Node000022_Node000011" class="edge">
<title>Node11&#45;&gt;Node22</title>
<g id="a_edge29_Node000022_Node000011"><a xlink:title=" ">
<path fill="none" stroke="#63b8ff" d="M783.03,-473.06C823.67,-463.5 874.34,-447.75 914.5,-423 950.59,-400.76 982.23,-360.49 995.97,-341.48"/>
<polygon fill="#63b8ff" stroke="#63b8ff" points="782.31,-469.63 773.33,-475.26 783.85,-476.46 782.31,-469.63"/>
</a>
</g>
</g>
<!-- Node12 -->
<g id="Node000012" class="node">
<title>Node12</title>
<g id="a_Node000012"><a xlink:href="class_cpl_1_1_system_1_1_counter_source__.html" target="_top" xlink:title="This abstract class defines the interface for registering for an Counter object with the Timer Manage...">
<polygon fill="white" stroke="#666666" points="457.62,-417 311.88,-417 311.88,-397 457.62,-397 457.62,-417"/>
<text text-anchor="middle" x="384.75" y="-403.5" font-family="Helvetica,sans-Serif" font-size="10.00">Cpl::System::CounterSource_</text>
</a>
</g>
</g>
<!-- Node12&#45;&gt;Node11 -->
<g id="edge11_Node000011_Node000012" class="edge">
<title>Node12&#45;&gt;Node11</title>
<g id="a_edge11_Node000011_Node000012"><a xlink:title=" ">
<path fill="none" stroke="#63b8ff" d="M439.8,-420.18C503.57,-435.73 608.31,-461.27 666.81,-475.53"/>
<polygon fill="#63b8ff" stroke="#63b8ff" points="440.79,-416.82 430.25,-417.85 439.13,-423.62 440.79,-416.82"/>
</a>
</g>
</g>
<!-- Node13 -->
<g id="Node000013" class="node">
<title>Node13</title>
<g id="a_Node000013"><a xlink:href="class_cpl_1_1_container_1_1_d_list.html" target="_top" xlink:title=" ">
<polygon fill="white" stroke="#666666" points="470,-505 299.5,-505 299.5,-473 470,-473 470,-505"/>
<text text-anchor="start" x="307.5" y="-491.5" font-family="Helvetica,sans-Serif" font-size="10.00">Cpl::Container::DList</text>
<text text-anchor="middle" x="384.75" y="-479.5" font-family="Helvetica,sans-Serif" font-size="10.00">&lt; Cpl::System::CounterCallback_ &gt;</text>
</a>
</g>
</g>
<!-- Node13&#45;&gt;Node11 -->
<g id="edge12_Node000011_Node000013" class="edge">
<title>Node13&#45;&gt;Node11</title>
<g id="a_edge12_Node000011_Node000013"><a xlink:title=" ">
<path fill="none" stroke="#9a32cd" stroke-dasharray="5,2" d="M481.91,-488.11C533.26,-487.63 595.25,-487.06 641.59,-486.63"/>
<polygon fill="#9a32cd" stroke="#9a32cd" points="481.93,-484.61 471.97,-488.2 482,-491.61 481.93,-484.61"/>
</a>
</g>
<text text-anchor="middle" x="556" y="-502.5" font-family="Helvetica,sans-Serif" font-size="10.00" fill="grey"> m_counters</text>
<text text-anchor="middle" x="556" y="-490.5" font-family="Helvetica,sans-Serif" font-size="10.00" fill="grey">m_pendingAttach</text>
</g>
<!-- Node14 -->
<g id="Node000014" class="node">
<title>Node14</title>
<g id="a_Node000014"><a xlink:href="class_cpl_1_1_container_1_1_d_list.html" target="_top" xlink:title="This template class implements a Doubly linked list which maintains the ordering imposed on it by the...">
<polygon fill="white" stroke="#666666" points="106,-439 0,-439 0,-407 106,-407 106,-439"/>
<text text-anchor="start" x="8" y="-425.5" font-family="Helvetica,sans-Serif" font-size="10.00">Cpl::Container::DList</text>
<text text-anchor="middle" x="53" y="-413.5" font-family="Helvetica,sans-Serif" font-size="10.00">&lt; ITEM &gt;</text>
</a>
</g>
</g>
<!-- Node14&#45;&gt;Node13 -->
<g id="edge13_Node000013_Node000014" class="edge">
<title>Node14&#45;&gt;Node13</title>
<g id="a_edge13_Node000013_Node000014"><a xlink:title=" ">
<path fill="none" stroke="orange" stroke-dasharray="5,2" d="M90.37,-444.83C100.9,-450.28 112.62,-455.54 124,-459 180.9,-476.29 247.58,-483.74 299.14,-486.89"/>
<polygon fill="orange" stroke="orange" points="92.09,-441.79 81.63,-440.11 88.76,-447.94 92.09,-441.79"/>
</a>
</g>
<text text-anchor="middle" x="202.75" y="-487.5" font-family="Helvetica,sans-Serif" font-size="10.00" fill="grey"> &lt; Cpl::System::CounterCallback_ &gt;</text>
</g>
<!-- Node30 -->
<g id="Node000030" class="node">
<title>Node30</title>
<g id="a_Node000030"><a xlink:href="class_cpl_1_1_container_1_1_d_list.html" target="_top" xlink:title=" ">
<polygon fill="white" stroke="#666666" points="624,-388 488,-388 488,-356 624,-356 624,-388"/>
<text text-anchor="start" x="496" y="-374.5" font-family="Helvetica,sans-Serif" font-size="10.00">Cpl::Container::DList</text>
<text text-anchor="middle" x="556" y="-362.5" font-family="Helvetica,sans-Serif" font-size="10.00">&lt; Cpl::Dm::SubscriberApi &gt;</text>
</a>
</g>
</g>
<!-- Node14&#45;&gt;Node30 -->
<g id="edge37_Node000030_Node000014" class="edge">
<title>Node14&#45;&gt;Node30</title>
<g id="a_edge37_Node000030_Node000014"><a xlink:title=" ">
<path fill="none" stroke="orange" stroke-dasharray="5,2" d="M117.22,-412.58C166.7,-404.77 237.32,-394.37 299.5,-388 363.17,-381.48 436.05,-377.23 487.64,-374.76"/>
<polygon fill="orange" stroke="orange" points="116.88,-409.09 107.55,-414.12 117.98,-416.01 116.88,-409.09"/>
</a>
</g>
<text text-anchor="middle" x="202.75" y="-412.5" font-family="Helvetica,sans-Serif" font-size="10.00" fill="grey"> &lt; Cpl::Dm::SubscriberApi &gt;</text>
</g>
<!-- Node15 -->
<g id="Node000015" class="node">
<title>Node15</title>
<g id="a_Node000015"><a xlink:href="class_cpl_1_1_dm_1_1_persistent_1_1_record.html#struct_cpl_1_1_dm_1_1_persistent_1_1_record_1_1_item___t" target="_top" xlink:title="This data structure associates a Data Model subscriber instance with a Model Point instance.">
<polygon fill="white" stroke="#666666" points="2583.5,-240 2482,-240 2482,-208 2583.5,-208 2583.5,-240"/>
<text text-anchor="start" x="2490" y="-226.5" font-family="Helvetica,sans-Serif" font-size="10.00">Cpl::Dm::Persistent</text>
<text text-anchor="middle" x="2532.75" y="-214.5" font-family="Helvetica,sans-Serif" font-size="10.00">::Record::Item_T</text>
</a>
</g>
</g>
<!-- Node15&#45;&gt;Node1 -->
<g id="edge45_Node000001_Node000015" class="edge">
<title>Node15&#45;&gt;Node1</title>
<g id="a_edge45_Node000001_Node000015"><a xlink:title=" ">
<path fill="none" stroke="#9a32cd" stroke-dasharray="5,2" d="M2594.97,-224C2624.9,-224 2660.64,-224 2689.73,-224"/>
<polygon fill="#9a32cd" stroke="#9a32cd" points="2595.33,-220.5 2585.33,-224 2595.33,-227.5 2595.33,-220.5"/>
</a>
</g>
<text text-anchor="middle" x="2636.75" y="-226.5" font-family="Helvetica,sans-Serif" font-size="10.00" fill="grey"> m_modelPoints</text>
</g>
<!-- Node15&#45;&gt;Node2 -->
<g id="edge14_Node000002_Node000015" class="edge">
<title>Node15&#45;&gt;Node2</title>
<g id="a_edge14_Node000002_Node000015"><a xlink:title=" ">
<path fill="none" stroke="#9a32cd" stroke-dasharray="5,2" d="M2470.6,-211.27C2468.37,-210.83 2466.17,-210.41 2464,-210 2433.09,-204.15 2425.29,-203.07 2394.25,-198 2268.06,-177.39 2119.24,-154.84 2043.31,-143.46"/>
<polygon fill="#9a32cd" stroke="#9a32cd" points="2469.86,-214.69 2480.35,-213.2 2471.22,-207.82 2469.86,-214.69"/>
</a>
</g>
<text text-anchor="middle" x="2319.12" y="-200.5" font-family="Helvetica,sans-Serif" font-size="10.00" fill="grey"> m_items</text>
</g>
<!-- Node16&#45;&gt;Node15 -->
<g id="edge15_Node000015_Node000016" class="edge">
<title>Node16&#45;&gt;Node15</title>
<g id="a_edge15_Node000015_Node000016"><a xlink:title=" ">
<path fill="none" stroke="#9a32cd" stroke-dasharray="5,2" d="M1236.55,-239.49C1298.87,-232.78 1396.65,-224 1481.62,-224 1481.62,-224 1481.62,-224 2320.12,-224 2375.42,-224 2438.84,-224 2481.72,-224"/>
<polygon fill="#9a32cd" stroke="#9a32cd" points="1236.4,-235.98 1226.84,-240.55 1237.16,-242.94 1236.4,-235.98"/>
</a>
</g>
<text text-anchor="middle" x="1848.38" y="-226.5" font-family="Helvetica,sans-Serif" font-size="10.00" fill="grey"> mpPtr</text>
</g>
<!-- Node16&#45;&gt;Node17 -->
<g id="edge39_Node000017_Node000016" class="edge">
<title>Node16&#45;&gt;Node17</title>
<g id="a_edge39_Node000017_Node000016"><a xlink:title=" ">
<path fill="none" stroke="#9a32cd" stroke-dasharray="5,2" d="M1236.55,-254.51C1298.87,-261.22 1396.65,-270 1481.62,-270 1481.62,-270 1481.62,-270 1993.25,-270 2079.13,-270 2177.77,-271.41 2243.61,-272.56"/>
<polygon fill="#9a32cd" stroke="#9a32cd" points="1237.16,-251.06 1226.84,-253.45 1236.4,-258.02 1237.16,-251.06"/>
</a>
</g>
<text text-anchor="middle" x="1717.62" y="-272.5" font-family="Helvetica,sans-Serif" font-size="10.00" fill="grey"> m_notificationCb</text>
</g>
<!-- Node19 -->
<g id="Node000019" class="node">
<title>Node19</title>
<g id="a_Node000019"><a xlink:href="class_cpl_1_1_dm_1_1_subscriber_base.html" target="_top" xlink:title="This mostly concrete class defines the Subscriber interface &#45; for change notifications &#45; to a Model P...">
<polygon fill="white" stroke="#666666" points="1545.75,-348 1419.5,-348 1419.5,-328 1545.75,-328 1545.75,-348"/>
<text text-anchor="middle" x="1482.62" y="-334.5" font-family="Helvetica,sans-Serif" font-size="10.00">Cpl::Dm::SubscriberBase</text>
</a>
</g>
</g>
<!-- Node16&#45;&gt;Node19 -->
<g id="edge22_Node000019_Node000016" class="edge">
<title>Node16&#45;&gt;Node19</title>
<g id="a_edge22_Node000019_Node000016"><a xlink:title=" ">
<path fill="none" stroke="#9a32cd" stroke-dasharray="5,2" d="M1203.82,-262.31C1217.44,-268.68 1233.79,-275.78 1249,-281 1283.02,-292.67 1377.3,-314.6 1434.85,-327.59"/>
<polygon fill="#9a32cd" stroke="#9a32cd" points="1205.46,-259.21 1194.93,-258.07 1202.44,-265.53 1205.46,-259.21"/>
</a>
</g>
<text text-anchor="middle" x="1325.25" y="-320.5" font-family="Helvetica,sans-Serif" font-size="10.00" fill="grey"> m_point</text>
</g>
<!-- Node17&#45;&gt;Node15 -->
<g id="edge17_Node000015_Node000017" class="edge">
<title>Node17&#45;&gt;Node15</title>
<g id="a_edge17_Node000015_Node000017"><a xlink:title=" ">
<path fill="none" stroke="#9a32cd" stroke-dasharray="5,2" d="M2405.68,-253.79C2431.48,-247.69 2458.96,-241.2 2481.65,-235.84"/>
<polygon fill="#9a32cd" stroke="#9a32cd" points="2405.14,-250.32 2396.21,-256.02 2406.75,-257.13 2405.14,-250.32"/>
</a>
</g>
<text text-anchor="middle" x="2438.12" y="-254.5" font-family="Helvetica,sans-Serif" font-size="10.00" fill="grey"> observerPtr</text>
</g>
<!-- Node18 -->
<g id="Node000018" class="node">
<title>Node18</title>
<g id="a_Node000018"><a xlink:href="class_cpl_1_1_dm_1_1_subscriber.html" target="_top" xlink:title="This template class defines a type safe Subscriber.">
<polygon fill="white" stroke="#666666" points="1900.25,-326 1796.5,-326 1796.5,-294 1900.25,-294 1900.25,-326"/>
<text text-anchor="start" x="1804.5" y="-312.5" font-family="Helvetica,sans-Serif" font-size="10.00">Cpl::Dm::Subscriber</text>
<text text-anchor="middle" x="1848.38" y="-300.5" font-family="Helvetica,sans-Serif" font-size="10.00">&lt; MP &gt;</text>
</a>
</g>
</g>
<!-- Node18&#45;&gt;Node17 -->
<g id="edge18_Node000017_Node000018" class="edge">
<title>Node18&#45;&gt;Node17</title>
<g id="a_edge18_Node000017_Node000018"><a xlink:title=" ">
<path fill="none" stroke="#63b8ff" d="M1911.67,-306.45C1986.4,-302.02 2115.47,-293.81 2226,-284 2231.77,-283.49 2237.74,-282.92 2243.73,-282.33"/>
<polygon fill="#63b8ff" stroke="#63b8ff" points="1911.88,-302.93 1902.11,-307.01 1912.3,-309.92 1911.88,-302.93"/>
</a>
</g>
</g>
<!-- Node19&#45;&gt;Node18 -->
<g id="edge19_Node000018_Node000019" class="edge">
<title>Node19&#45;&gt;Node18</title>
<g id="a_edge19_Node000018_Node000019"><a xlink:title=" ">
<path fill="none" stroke="#63b8ff" d="M1557.25,-332.33C1628.27,-326.87 1733.93,-318.73 1796.22,-313.94"/>
<polygon fill="#63b8ff" stroke="#63b8ff" points="1557.37,-328.81 1547.66,-333.07 1557.9,-335.79 1557.37,-328.81"/>
</a>
</g>
</g>
<!-- Node32 -->
<g id="Node000032" class="node">
<title>Node32</title>
<g id="a_Node000032"><a xlink:href="class_cpl_1_1_dm_1_1_subscriber.html" target="_top" xlink:title="This template class defines a type safe Subscriber.">
<polygon fill="white" stroke="#666666" points="1769.5,-370 1665.75,-370 1665.75,-338 1769.5,-338 1769.5,-370"/>
<text text-anchor="start" x="1673.75" y="-356.5" font-family="Helvetica,sans-Serif" font-size="10.00">Cpl::Dm::Subscriber</text>
<text text-anchor="middle" x="1717.62" y="-344.5" font-family="Helvetica,sans-Serif" font-size="10.00">&lt; MP &gt;</text>
</a>
</g>
</g>
<!-- Node19&#45;&gt;Node32 -->
<g id="edge42_Node000032_Node000019" class="edge">
<title>Node19&#45;&gt;Node32</title>
<g id="a_edge42_Node000032_Node000019"><a xlink:title=" ">
<path fill="none" stroke="#63b8ff" d="M1557.26,-343.06C1592.44,-345.47 1633.7,-348.31 1665.41,-350.48"/>
<polygon fill="#63b8ff" stroke="#63b8ff" points="1557.79,-339.58 1547.57,-342.39 1557.31,-346.57 1557.79,-339.58"/>
</a>
</g>
</g>
<!-- Node20&#45;&gt;Node19 -->
<g id="edge20_Node000019_Node000020" class="edge">
<title>Node20&#45;&gt;Node19</title>
<g id="a_edge20_Node000019_Node000020"><a xlink:title=" ">
<path fill="none" stroke="#63b8ff" d="M1238.04,-385.36C1294.37,-374.4 1374.9,-358.75 1427.71,-348.48"/>
<polygon fill="#63b8ff" stroke="#63b8ff" points="1237.39,-381.92 1228.24,-387.26 1238.73,-388.79 1237.39,-381.92"/>
</a>
</g>
</g>
<!-- Node31 -->
<g id="Node000031" class="node">
<title>Node31</title>
<g id="a_Node000031"><a xlink:href="class_cpl_1_1_dm_1_1_subscriber_composer.html" target="_top" xlink:title="This template class is a composer pattern/class that manages the callback function for a Model Point&#39;...">
<polygon fill="white" stroke="#666666" points="2066.25,-370 1918.25,-370 1918.25,-338 2066.25,-338 2066.25,-370"/>
<text text-anchor="start" x="1926.25" y="-356.5" font-family="Helvetica,sans-Serif" font-size="10.00">Cpl::Dm::SubscriberComposer</text>
<text text-anchor="middle" x="1992.25" y="-344.5" font-family="Helvetica,sans-Serif" font-size="10.00">&lt; CONTEXT, MP &gt;</text>
</a>
</g>
</g>
<!-- Node20&#45;&gt;Node31 -->
<g id="edge43_Node000031_Node000020" class="edge">
<title>Node20&#45;&gt;Node31</title>
<g id="a_edge43_Node000031_Node000020"><a xlink:title=" ">
<path fill="none" stroke="#9a32cd" stroke-dasharray="5,2" d="M1242.26,-397.15C1354.81,-395.47 1584.39,-390.8 1778.5,-379 1832.73,-375.7 1846.32,-374.58 1900.25,-368 1905.96,-367.3 1911.87,-366.53 1917.8,-365.7"/>
<polygon fill="#9a32cd" stroke="#9a32cd" points="1242.54,-393.64 1232.59,-397.29 1242.64,-400.64 1242.54,-393.64"/>
</a>
</g>
<text text-anchor="middle" x="1601.25" y="-390.5" font-family="Helvetica,sans-Serif" font-size="10.00" fill="grey"> m_notificationCb</text>
</g>
<!-- Node21 -->
<g id="Node000021" class="node">
<title>Node21</title>
<g id="a_Node000021"><a xlink:href="class_cpl_1_1_dm_1_1_event_loop.html" target="_top" xlink:title="This class extends the Cpl::System::EventLoop class to support the asynchronous change notification g...">
<polygon fill="white" stroke="#666666" points="1223.12,-347 1120.88,-347 1120.88,-327 1223.12,-327 1223.12,-347"/>
<text text-anchor="middle" x="1172" y="-333.5" font-family="Helvetica,sans-Serif" font-size="10.00">Cpl::Dm::EventLoop</text>
</a>
</g>
</g>
<!-- Node21&#45;&gt;Node19 -->
<g id="edge23_Node000019_Node000021" class="edge">
<title>Node21&#45;&gt;Node19</title>
<g id="a_edge23_Node000019_Node000021"><a xlink:title=" ">
<path fill="none" stroke="#9a32cd" stroke-dasharray="5,2" d="M1235.01,-337.2C1288.57,-337.37 1365.59,-337.62 1419.25,-337.8"/>
<polygon fill="#9a32cd" stroke="#9a32cd" points="1235.14,-333.7 1225.13,-337.17 1235.12,-340.7 1235.14,-333.7"/>
</a>
</g>
<text text-anchor="middle" x="1325.25" y="-339.5" font-family="Helvetica,sans-Serif" font-size="10.00" fill="grey"> m_eventLoopHdl</text>
</g>
<!-- Node22&#45;&gt;Node21 -->
<g id="edge24_Node000021_Node000022" class="edge">
<title>Node22&#45;&gt;Node21</title>
<g id="a_edge24_Node000021_Node000022"><a xlink:title=" ">
<path fill="none" stroke="#63b8ff" d="M1076.33,-333.57C1091.21,-334.11 1106.6,-334.67 1120.54,-335.17"/>
<polygon fill="#63b8ff" stroke="#63b8ff" points="1076.72,-330.09 1066.6,-333.22 1076.47,-337.08 1076.72,-330.09"/>
</a>
</g>
</g>
<!-- Node23 -->
<g id="Node000023" class="node">
<title>Node23</title>
<g id="a_Node000023"><a xlink:href="class_cpl_1_1_system_1_1_runnable.html" target="_top" xlink:title="This is an abstract class defines the interface for an object that is &quot;executed&quot; when a Thread object...">
<polygon fill="white" stroke="#666666" points="769,-379 652.5,-379 652.5,-359 769,-359 769,-379"/>
<text text-anchor="middle" x="710.75" y="-365.5" font-family="Helvetica,sans-Serif" font-size="10.00">Cpl::System::Runnable</text>
</a>
</g>
</g>
<!-- Node23&#45;&gt;Node22 -->
<g id="edge25_Node000022_Node000023" class="edge">
<title>Node23&#45;&gt;Node22</title>
<g id="a_edge25_Node000022_Node000023"><a xlink:title=" ">
<path fill="none" stroke="#63b8ff" d="M780.44,-362.76C819.77,-358.88 870.01,-353.42 914.5,-347 925.66,-345.39 937.56,-343.42 948.9,-341.42"/>
<polygon fill="#63b8ff" stroke="#63b8ff" points="780.25,-359.26 770.63,-363.71 780.93,-366.23 780.25,-359.26"/>
</a>
</g>
</g>
<!-- Node24 -->
<g id="Node000024" class="node">
<title>Node24</title>
<g id="a_Node000024"><a xlink:href="class_cpl_1_1_system_1_1_event_flag.html" target="_top" xlink:title="This abstract class defines the interface to generated a &#39;Event Flag&#39;.">
<polygon fill="white" stroke="#666666" points="770.12,-303 651.38,-303 651.38,-283 770.12,-283 770.12,-303"/>
<text text-anchor="middle" x="710.75" y="-289.5" font-family="Helvetica,sans-Serif" font-size="10.00">Cpl::System::EventFlag</text>
</a>
</g>
</g>
<!-- Node24&#45;&gt;Node22 -->
<g id="edge26_Node000022_Node000024" class="edge">
<title>Node24&#45;&gt;Node22</title>
<g id="a_edge26_Node000022_Node000024"><a xlink:title=" ">
<path fill="none" stroke="#63b8ff" d="M781.62,-302.11C831,-308.54 896.49,-317.08 943.45,-323.21"/>
<polygon fill="#63b8ff" stroke="#63b8ff" points="782.26,-298.66 771.89,-300.84 781.35,-305.6 782.26,-298.66"/>
</a>
</g>
</g>
<!-- Node25&#45;&gt;Node22 -->
<g id="edge27_Node000022_Node000025" class="edge">
<title>Node25&#45;&gt;Node22</title>
<g id="a_edge27_Node000022_Node000025"><a xlink:title=" ">
<path fill="none" stroke="#63b8ff" d="M453.16,-248.21C556.65,-240.5 759.01,-236.24 914.5,-300 923.4,-303.65 923.74,-308.03 932.5,-312 939.8,-315.31 947.79,-318.13 955.69,-320.52"/>
<polygon fill="#63b8ff" stroke="#63b8ff" points="453.15,-244.7 443.45,-248.97 453.7,-251.68 453.15,-244.7"/>
</a>
</g>
</g>
<!-- Node26 -->
<g id="Node000026" class="node">
<title>Node26</title>
<g id="a_Node000026"><a xlink:href="class_cpl_1_1_system_1_1_thread.html" target="_top" xlink:title="This abstract class defines the operations that can be performed on a thread.">
<polygon fill="white" stroke="#666666" points="763.38,-177 658.12,-177 658.12,-157 763.38,-157 763.38,-177"/>
<text text-anchor="middle" x="710.75" y="-163.5" font-family="Helvetica,sans-Serif" font-size="10.00">Cpl::System::Thread</text>
</a>
</g>
</g>
<!-- Node25&#45;&gt;Node26 -->
<g id="edge31_Node000026_Node000025" class="edge">
<title>Node25&#45;&gt;Node26</title>
<g id="a_edge31_Node000026_Node000025"><a xlink:title=" ">
<path fill="none" stroke="#63b8ff" d="M434.92,-241.64C499.65,-224.06 612.12,-193.52 671.11,-177.5"/>
<polygon fill="#63b8ff" stroke="#63b8ff" points="434.38,-238.16 425.65,-244.16 436.22,-244.92 434.38,-238.16"/>
</a>
</g>
</g>
<!-- Node28 -->
<g id="Node000028" class="node">
<title>Node28</title>
<g id="a_Node000028"><a xlink:href="class_cpl_1_1_system_1_1_semaphore.html" target="_top" xlink:title="This semaphore class defines the interface for a Counting Semaphore.">
<polygon fill="white" stroke="#666666" points="773.5,-341 648,-341 648,-321 773.5,-321 773.5,-341"/>
<text text-anchor="middle" x="710.75" y="-327.5" font-family="Helvetica,sans-Serif" font-size="10.00">Cpl::System::Semaphore</text>
</a>
</g>
</g>
<!-- Node25&#45;&gt;Node28 -->
<g id="edge34_Node000028_Node000025" class="edge">
<title>Node25&#45;&gt;Node28</title>
<g id="a_edge34_Node000028_Node000025"><a xlink:title=" ">
<path fill="none" stroke="#63b8ff" d="M441.43,-268.06C504.78,-282.92 606.96,-306.89 665.24,-320.56"/>
<polygon fill="#63b8ff" stroke="#63b8ff" points="442.47,-264.71 431.93,-265.83 440.87,-271.52 442.47,-264.71"/>
</a>
</g>
</g>
<!-- Node26&#45;&gt;Node22 -->
<g id="edge30_Node000022_Node000026" class="edge">
<title>Node26&#45;&gt;Node22</title>
<g id="a_edge30_Node000022_Node000026"><a xlink:title=" ">
<path fill="none" stroke="#9a32cd" stroke-dasharray="5,2" d="M762.57,-154.43C808.36,-146.41 874.46,-143.58 914.5,-181 957.44,-221.13 893.64,-267.91 932.5,-312 935.61,-315.53 939.3,-318.44 943.34,-320.83"/>
<polygon fill="#9a32cd" stroke="#9a32cd" points="762.05,-150.97 752.88,-156.28 763.36,-157.84 762.05,-150.97"/>
</a>
</g>
<text text-anchor="middle" x="856" y="-183.5" font-family="Helvetica,sans-Serif" font-size="10.00" fill="grey"> m_myThreadPtr</text>
</g>
<!-- Node27 -->
<g id="Node000027" class="node">
<title>Node27</title>
<g id="a_Node000027"><a xlink:href="class_cpl_1_1_system_1_1_shared_event_handler_api.html" target="_top" xlink:title="This abstract class defines the interface for a Shared Event Handler.">
<polygon fill="white" stroke="#666666" points="776.12,-227 645.38,-227 645.38,-195 776.12,-195 776.12,-227"/>
<text text-anchor="start" x="653.38" y="-213.5" font-family="Helvetica,sans-Serif" font-size="10.00">Cpl::System::SharedEvent</text>
<text text-anchor="middle" x="710.75" y="-201.5" font-family="Helvetica,sans-Serif" font-size="10.00">HandlerApi</text>
</a>
</g>
</g>
<!-- Node27&#45;&gt;Node22 -->
<g id="edge32_Node000022_Node000027" class="edge">
<title>Node27&#45;&gt;Node22</title>
<g id="a_edge32_Node000022_Node000027"><a xlink:title=" ">
<path fill="none" stroke="#9a32cd" stroke-dasharray="5,2" d="M787.9,-197.54C830.06,-194.59 880.64,-199.13 914.5,-229 942.81,-253.97 906.47,-284.67 932.5,-312 935.75,-315.41 939.53,-318.23 943.63,-320.56"/>
<polygon fill="#9a32cd" stroke="#9a32cd" points="787.7,-194.05 778.04,-198.4 788.31,-201.02 787.7,-194.05"/>
</a>
</g>
<text text-anchor="middle" x="856" y="-231.5" font-family="Helvetica,sans-Serif" font-size="10.00" fill="grey"> m_eventHandler</text>
</g>
<!-- Node28&#45;&gt;Node22 -->
<g id="edge33_Node000022_Node000028" class="edge">
<title>Node28&#45;&gt;Node22</title>
<g id="a_edge33_Node000022_Node000028"><a xlink:title=" ">
<path fill="none" stroke="#9a32cd" stroke-dasharray="5,2" d="M785.41,-331C834.38,-331 897.87,-331 943.66,-331"/>
<polygon fill="#9a32cd" stroke="#9a32cd" points="785.44,-327.5 775.44,-331 785.44,-334.5 785.44,-327.5"/>
</a>
</g>
<text text-anchor="middle" x="856" y="-333.5" font-family="Helvetica,sans-Serif" font-size="10.00" fill="grey"> m_sema</text>
</g>
<!-- Node29 -->
<g id="Node000029" class="node">
<title>Node29</title>
<g id="a_Node000029"><a xlink:href="class_cpl_1_1_dm_1_1_notification_api__.html" target="_top" xlink:title="This class has PACKAGE Scope, i.e.">
<polygon fill="white" stroke="#666666" points="1066.62,-303 941.88,-303 941.88,-283 1066.62,-283 1066.62,-303"/>
<text text-anchor="middle" x="1004.25" y="-289.5" font-family="Helvetica,sans-Serif" font-size="10.00">Cpl::Dm::NotificationApi_</text>
</a>
</g>
</g>
<!-- Node29&#45;&gt;Node21 -->
<g id="edge35_Node000021_Node000029" class="edge">
<title>Node29&#45;&gt;Node21</title>
<g id="a_edge35_Node000021_Node000029"><a xlink:title=" ">
<path fill="none" stroke="#63b8ff" d="M1055.42,-306.32C1079.88,-312.81 1108.88,-320.51 1131.71,-326.57"/>
<polygon fill="#63b8ff" stroke="#63b8ff" points="1056.56,-303 1045.99,-303.82 1054.76,-309.76 1056.56,-303"/>
</a>
</g>
</g>
<!-- Node30&#45;&gt;Node21 -->
<g id="edge36_Node000021_Node000030" class="edge">
<title>Node30&#45;&gt;Node21</title>
<g id="a_edge36_Node000021_Node000030"><a xlink:title=" ">
<path fill="none" stroke="#9a32cd" stroke-dasharray="5,2" d="M635.37,-387.31C637.6,-387.56 639.81,-387.8 642,-388 820.22,-404.63 1032.12,-366.77 1124.3,-347.45"/>
<polygon fill="#9a32cd" stroke="#9a32cd" points="635.99,-383.86 625.61,-386.02 635.07,-390.8 635.99,-383.86"/>
</a>
</g>
<text text-anchor="middle" x="856" y="-392.5" font-family="Helvetica,sans-Serif" font-size="10.00" fill="grey"> m_pendingMpNotifications</text>
</g>
<!-- Node31&#45;&gt;Node17 -->
<g id="edge40_Node000017_Node000031" class="edge">
<title>Node31&#45;&gt;Node17</title>
<g id="a_edge40_Node000017_Node000031"><a xlink:title=" ">
<path fill="none" stroke="orange" stroke-dasharray="5,2" d="M2077.99,-349.98C2122.84,-346.06 2178.33,-338.3 2226,-323 2245.84,-316.63 2266.44,-306.1 2283.12,-296.42"/>
<polygon fill="orange" stroke="orange" points="2077.72,-346.49 2068.04,-350.8 2078.3,-353.47 2077.72,-346.49"/>
</a>
</g>
<text text-anchor="start" x="2084.25" y="-362.5" font-family="Helvetica,sans-Serif" font-size="10.00" fill="grey"> &lt; Cpl::Dm::Persistent</text>
<text text-anchor="middle" x="2155.12" y="-350.5" font-family="Helvetica,sans-Serif" font-size="10.00" fill="grey">::Record, Cpl::Dm::ModelPoint &gt;</text>
</g>
<!-- Node32&#45;&gt;Node31 -->
<g id="edge41_Node000031_Node000032" class="edge">
<title>Node32&#45;&gt;Node31</title>
<g id="a_edge41_Node000031_Node000032"><a xlink:title=" ">
<path fill="none" stroke="#63b8ff" d="M1781.29,-354C1821.97,-354 1875.16,-354 1917.82,-354"/>
<polygon fill="#63b8ff" stroke="#63b8ff" points="1781.42,-350.5 1771.42,-354 1781.42,-357.5 1781.42,-350.5"/>
</a>
</g>
</g>
<!-- Node33 -->
<g id="Node000033" class="node">
<title>Node33</title>
<g id="a_Node000033"><a xlink:href="class_cpl_1_1_persistent_1_1_chunk.html" target="_top" xlink:title="This abstract class defines the interface for a Chunk.">
<polygon fill="white" stroke="#666666" points="1774.75,-146 1660.5,-146 1660.5,-126 1774.75,-126 1774.75,-146"/>
<text text-anchor="middle" x="1717.62" y="-132.5" font-family="Helvetica,sans-Serif" font-size="10.00">Cpl::Persistent::Chunk</text>
</a>
</g>
</g>
<!-- Node33&#45;&gt;Node2 -->
<g id="edge44_Node000002_Node000033" class="edge">
<title>Node33&#45;&gt;Node2</title>
<g id="a_edge44_Node000002_Node000033"><a xlink:title=" ">
<path fill="none" stroke="#9a32cd" stroke-dasharray="5,2" d="M1786.35,-136C1834.38,-136 1897.77,-136 1941.25,-136"/>
<polygon fill="#9a32cd" stroke="#9a32cd" points="1786.63,-132.5 1776.63,-136 1786.63,-139.5 1786.63,-132.5"/>
</a>
</g>
<text text-anchor="middle" x="1848.38" y="-138.5" font-family="Helvetica,sans-Serif" font-size="10.00" fill="grey"> m_chunkHandler</text>
</g>
<!-- Node34&#45;&gt;Node1 -->
<g id="edge46_Node000001_Node000034" class="edge">
<title>Node34&#45;&gt;Node1</title>
<g id="a_edge46_Node000001_Node000034"><a xlink:title=" ">
<path fill="none" stroke="#9a32cd" stroke-dasharray="5,2" d="M2372.34,-420.47C2461.76,-373.33 2641.53,-278.55 2713.83,-240.43"/>
<polygon fill="#9a32cd" stroke="#9a32cd" points="2370.97,-417.24 2363.76,-425 2374.23,-423.43 2370.97,-417.24"/>
</a>
</g>
<text text-anchor="middle" x="2532.75" y="-363.5" font-family="Helvetica,sans-Serif" font-size="10.00" fill="grey"> m_timer</text>
</g>
<!-- Node35&#45;&gt;Node34 -->
<g id="edge48_Node000034_Node000035" class="edge">
<title>Node35&#45;&gt;Node34</title>
<g id="a_edge48_Node000034_Node000035"><a xlink:title=" ">
<path fill="none" stroke="orange" stroke-dasharray="5,2" d="M2076.21,-481.77C2120.67,-476.17 2176.36,-468.97 2226,-462 2232.73,-461.06 2239.73,-460.04 2246.73,-459.01"/>
<polygon fill="orange" stroke="orange" points="2075.86,-478.29 2066.37,-483.01 2076.73,-485.23 2075.86,-478.29"/>
</a>
</g>
<text text-anchor="start" x="2099.62" y="-494.5" font-family="Helvetica,sans-Serif" font-size="10.00" fill="grey"> &lt; Storm::Thermostat</text>
<text text-anchor="middle" x="2155.12" y="-482.5" font-family="Helvetica,sans-Serif" font-size="10.00" fill="grey">::Main::RunTimeRecord &gt;</text>
</g>
</g>
</svg>
