<?xml version="1.0" encoding="UTF-8" standalone="no"?>
<!DOCTYPE svg PUBLIC "-//W3C//DTD SVG 1.1//EN"
 "http://www.w3.org/Graphics/SVG/1.1/DTD/svg11.dtd">
<!-- Generated by graphviz version 2.38.0 (20140413.2041)
 -->
<!-- Title: Cpl::Memory::Allocator Pages: 1 -->
<svg width="958pt" height="192pt"
 viewBox="0.00 0.00 958.00 191.50" xmlns="http://www.w3.org/2000/svg" xmlns:xlink="http://www.w3.org/1999/xlink">
<g id="graph0" class="graph" transform="scale(1 1) rotate(0) translate(4 187.5)">
<title>Cpl::Memory::Allocator</title>
<polygon fill="white" stroke="none" points="-4,4 -4,-187.5 954,-187.5 954,4 -4,4"/>
<!-- Node1 -->
<g id="node1" class="node"><title>Node1</title>
<g id="a_node1"><a xlink:title="This abstract class defines the interface for a Memory Allocator.">
<polygon fill="#bfbfbf" stroke="black" points="141,-76.5 141,-95.5 257,-95.5 257,-76.5 141,-76.5"/>
<text text-anchor="middle" x="199" y="-83.5" font-family="Helvetica,sans-Serif" font-size="10.00">Cpl::Memory::Allocator</text>
</a>
</g>
</g>
<!-- Node3 -->
<g id="node3" class="node"><title>Node3</title>
<g id="a_node3"><a xlink:href="class_cpl_1_1_memory_1_1_s_pool.html" target="_top" xlink:title=" ">
<polygon fill="white" stroke="black" points="579,-125 579,-155 749,-155 749,-125 579,-125"/>
<text text-anchor="start" x="587" y="-143" font-family="Helvetica,sans-Serif" font-size="10.00">Cpl::Memory::SPool</text>
<text text-anchor="middle" x="664" y="-132" font-family="Helvetica,sans-Serif" font-size="10.00">&lt; Cpl::Io::Socket::InputOutput, N &gt;</text>
</a>
</g>
</g>
<!-- Node1&#45;&gt;Node3 -->
<g id="edge2" class="edge"><title>Node1&#45;&gt;Node3</title>
<path fill="none" stroke="midnightblue" d="M252.489,-97.6214C265.969,-100.327 280.482,-102.998 294,-105 391.234,-119.398 503.807,-129.075 578.796,-134.539"/>
<polygon fill="midnightblue" stroke="midnightblue" points="252.915,-94.136 242.416,-95.5561 251.509,-100.993 252.915,-94.136"/>
</g>
<!-- Node5 -->
<g id="node5" class="node"><title>Node5</title>
<g id="a_node5"><a xlink:href="class_cpl_1_1_memory_1_1_contiguous_allocator.html" target="_top" xlink:title="This abstract class is used &#39;extend&#39; the Memory Allocator to have contiguous semantics.">
<polygon fill="white" stroke="black" points="294,-0.5 294,-19.5 459,-19.5 459,-0.5 294,-0.5"/>
<text text-anchor="middle" x="376.5" y="-7.5" font-family="Helvetica,sans-Serif" font-size="10.00">Cpl::Memory::ContiguousAllocator</text>
</a>
</g>
</g>
<!-- Node1&#45;&gt;Node5 -->
<g id="edge4" class="edge"><title>Node1&#45;&gt;Node5</title>
<path fill="none" stroke="midnightblue" d="M220.909,-70.6529C239.312,-57.8141 267.269,-39.8965 294,-29 303.283,-25.2159 313.483,-22.0913 323.431,-19.5457"/>
<polygon fill="midnightblue" stroke="midnightblue" points="218.813,-67.8486 212.689,-76.4945 222.868,-73.5544 218.813,-67.8486"/>
</g>
<!-- Node7 -->
<g id="node7" class="node"><title>Node7</title>
<g id="a_node7"><a xlink:href="class_cpl_1_1_memory_1_1_h_pool.html" target="_top" xlink:title="This template class defines a concrete Allocator that allocates its block memory from the HEAP.">
<polygon fill="white" stroke="black" points="312.5,-76.5 312.5,-95.5 440.5,-95.5 440.5,-76.5 312.5,-76.5"/>
<text text-anchor="middle" x="376.5" y="-83.5" font-family="Helvetica,sans-Serif" font-size="10.00">Cpl::Memory::HPool&lt; T &gt;</text>
</a>
</g>
</g>
<!-- Node1&#45;&gt;Node7 -->
<g id="edge6" class="edge"><title>Node1&#45;&gt;Node7</title>
<path fill="none" stroke="midnightblue" d="M267.535,-86C282.299,-86 297.87,-86 312.45,-86"/>
<polygon fill="midnightblue" stroke="midnightblue" points="267.465,-82.5001 257.465,-86 267.465,-89.5001 267.465,-82.5001"/>
</g>
<!-- Node8 -->
<g id="node8" class="node"><title>Node8</title>
<g id="a_node8"><a xlink:href="class_cpl_1_1_memory_1_1_pool__.html" target="_top" xlink:title="This private concrete class implements a Memory Allocator using a pool of fixed size blocks.">
<polygon fill="white" stroke="black" points="325,-38.5 325,-57.5 428,-57.5 428,-38.5 325,-38.5"/>
<text text-anchor="middle" x="376.5" y="-45.5" font-family="Helvetica,sans-Serif" font-size="10.00">Cpl::Memory::Pool_</text>
</a>
</g>
</g>
<!-- Node1&#45;&gt;Node8 -->
<g id="edge7" class="edge"><title>Node1&#45;&gt;Node8</title>
<path fill="none" stroke="midnightblue" d="M254.278,-74.2474C279.094,-68.8742 308.111,-62.5914 331.532,-57.5201"/>
<polygon fill="midnightblue" stroke="midnightblue" points="253.319,-70.874 244.286,-76.411 254.8,-77.7154 253.319,-70.874"/>
</g>
<!-- Node9 -->
<g id="node9" class="node"><title>Node9</title>
<g id="a_node9"><a xlink:href="class_cpl_1_1_memory_1_1_s_pool.html" target="_top" xlink:title="This template class defines a concrete Allocator that STATICALLY allocates all of its Memory and can ...">
<polygon fill="white" stroke="black" points="324.5,-153 324.5,-183 428.5,-183 428.5,-153 324.5,-153"/>
<text text-anchor="start" x="332.5" y="-171" font-family="Helvetica,sans-Serif" font-size="10.00">Cpl::Memory::SPool</text>
<text text-anchor="middle" x="376.5" y="-160" font-family="Helvetica,sans-Serif" font-size="10.00">&lt; T, N &gt;</text>
</a>
</g>
</g>
<!-- Node1&#45;&gt;Node9 -->
<g id="edge8" class="edge"><title>Node1&#45;&gt;Node9</title>
<path fill="none" stroke="midnightblue" d="M219.685,-102.245C234.223,-113.574 254.897,-128.335 275,-138 290.508,-145.456 308.261,-151.495 324.489,-156.148"/>
<polygon fill="midnightblue" stroke="midnightblue" points="221.488,-99.2064 211.487,-95.7109 217.126,-104.681 221.488,-99.2064"/>
</g>
<!-- Node2 -->
<g id="node2" class="node"><title>Node2</title>
<g id="a_node2"><a xlink:href="class_cpl_1_1_container_1_1_item.html" target="_top" xlink:title="This class is used by the Container classes to implement a various types of singly linked containers.">
<polygon fill="white" stroke="black" points="0,-76.5 0,-95.5 104,-95.5 104,-76.5 0,-76.5"/>
<text text-anchor="middle" x="52" y="-83.5" font-family="Helvetica,sans-Serif" font-size="10.00">Cpl::Container::Item</text>
</a>
</g>
</g>
<!-- Node2&#45;&gt;Node1 -->
<g id="edge1" class="edge"><title>Node2&#45;&gt;Node1</title>
<path fill="none" stroke="midnightblue" d="M114.334,-86C123.149,-86 132.19,-86 140.918,-86"/>
<polygon fill="midnightblue" stroke="midnightblue" points="114.122,-82.5001 104.122,-86 114.122,-89.5001 114.122,-82.5001"/>
</g>
<!-- Node4 -->
<g id="node4" class="node"><title>Node4</title>
<g id="a_node4"><a xlink:href="class_cpl_1_1_io_1_1_socket_1_1_stream_pool.html" target="_top" xlink:title="This concrete template class implement a socket factory that is capable of creating N concurrently op...">
<polygon fill="white" stroke="black" points="786,-130.5 786,-149.5 950,-149.5 950,-130.5 786,-130.5"/>
<text text-anchor="middle" x="868" y="-137.5" font-family="Helvetica,sans-Serif" font-size="10.00">Cpl::Io::Socket::StreamPool&lt; N &gt;</text>
</a>
</g>
</g>
<!-- Node3&#45;&gt;Node4 -->
<g id="edge3" class="edge"><title>Node3&#45;&gt;Node4</title>
<path fill="none" stroke="midnightblue" d="M759.209,-140C768.111,-140 777.083,-140 785.848,-140"/>
<polygon fill="midnightblue" stroke="midnightblue" points="759.204,-136.5 749.203,-140 759.203,-143.5 759.204,-136.5"/>
</g>
<!-- Node6 -->
<g id="node6" class="node"><title>Node6</title>
<g id="a_node6"><a xlink:href="class_cpl_1_1_memory_1_1_lean_heap.html" target="_top" xlink:title="This class manages an allocate&#45;only&#45;heap.">
<polygon fill="white" stroke="black" points="603,-0.5 603,-19.5 725,-19.5 725,-0.5 603,-0.5"/>
<text text-anchor="middle" x="664" y="-7.5" font-family="Helvetica,sans-Serif" font-size="10.00">Cpl::Memory::LeanHeap</text>
</a>
</g>
</g>
<!-- Node5&#45;&gt;Node6 -->
<g id="edge5" class="edge"><title>Node5&#45;&gt;Node6</title>
<path fill="none" stroke="midnightblue" d="M469.396,-10C513.155,-10 564.249,-10 602.957,-10"/>
<polygon fill="midnightblue" stroke="midnightblue" points="469.313,-6.5001 459.313,-10 469.313,-13.5001 469.313,-6.5001"/>
</g>
<!-- Node9&#45;&gt;Node3 -->
<g id="edge9" class="edge"><title>Node9&#45;&gt;Node3</title>
<path fill="none" stroke="orange" stroke-dasharray="5,2" d="M438.633,-162.004C479.521,-157.994 533.863,-152.665 578.825,-148.255"/>
<polygon fill="orange" stroke="orange" points="438.152,-158.535 428.542,-162.994 438.836,-165.501 438.152,-158.535"/>
<text text-anchor="start" x="477" y="-173" font-family="Helvetica,sans-Serif" font-size="10.00"> &lt; Cpl::Io::Socket::</text>
<text text-anchor="middle" x="519" y="-162" font-family="Helvetica,sans-Serif" font-size="10.00">InputOutput, N &gt;</text>
</g>
</g>
</svg>
