<?xml version="1.0" encoding="UTF-8" standalone="no"?>
<!DOCTYPE svg PUBLIC "-//W3C//DTD SVG 1.1//EN"
 "http://www.w3.org/Graphics/SVG/1.1/DTD/svg11.dtd">
<!-- Generated by graphviz version 10.0.1 (20240210.2158)
 -->
<!-- Title: Cpl::Dm::Mp::Void Pages: 1 -->
<svg width="318pt" height="517pt"
 viewBox="0.00 0.00 318.00 517.00" xmlns="http://www.w3.org/2000/svg" xmlns:xlink="http://www.w3.org/1999/xlink">
<g id="graph0" class="graph" transform="scale(1 1) rotate(0) translate(4 513)">
<title>Cpl::Dm::Mp::Void</title>
<!-- Node1 -->
<g id="Node000001" class="node">
<title>Node1</title>
<g id="a_Node000001"><a xlink:title="This class provides a concrete implementation for a Point who&#39;s data is a void pointer.">
<polygon fill="#999999" stroke="#666666" points="130.62,-20 34.38,-20 34.38,0 130.62,0 130.62,-20"/>
<text text-anchor="middle" x="82.5" y="-6.5" font-family="Helvetica,sans-Serif" font-size="10.00">Cpl::Dm::Mp::Void</text>
</a>
</g>
</g>
<!-- Node2 -->
<g id="Node000002" class="node">
<title>Node2</title>
<g id="a_Node000002"><a xlink:href="class_cpl_1_1_dm_1_1_mp_1_1_pointer__.html" target="_top" xlink:title=" ">
<polygon fill="white" stroke="#666666" points="136.25,-89 28.75,-89 28.75,-57 136.25,-57 136.25,-89"/>
<text text-anchor="start" x="36.75" y="-75.5" font-family="Helvetica,sans-Serif" font-size="10.00">Cpl::Dm::Mp::Pointer</text>
<text text-anchor="middle" x="82.5" y="-63.5" font-family="Helvetica,sans-Serif" font-size="10.00">_&lt; Void &gt;</text>
</a>
</g>
</g>
<!-- Node2&#45;&gt;Node1 -->
<g id="edge1_Node000001_Node000002" class="edge">
<title>Node2&#45;&gt;Node1</title>
<g id="a_edge1_Node000001_Node000002"><a xlink:title=" ">
<path fill="none" stroke="#63b8ff" d="M82.5,-45.36C82.5,-36.41 82.5,-27.01 82.5,-20.31"/>
<polygon fill="#63b8ff" stroke="#63b8ff" points="79,-45.09 82.5,-55.09 86,-45.09 79,-45.09"/>
</a>
</g>
</g>
<!-- Node3 -->
<g id="Node000003" class="node">
<title>Node3</title>
<g id="a_Node000003"><a xlink:href="class_cpl_1_1_dm_1_1_mp_1_1_numeric.html" target="_top" xlink:title="This template class provides a mostly concrete implementation for a Model Point who&#39;s data is a C num...">
<polygon fill="white" stroke="#666666" points="133,-288 0,-288 0,-256 133,-256 133,-288"/>
<text text-anchor="start" x="8" y="-274.5" font-family="Helvetica,sans-Serif" font-size="10.00">Cpl::Dm::Mp::Numeric</text>
<text text-anchor="middle" x="66.5" y="-262.5" font-family="Helvetica,sans-Serif" font-size="10.00">&lt; ELEMTYPE, MPTYPE &gt;</text>
</a>
</g>
</g>
<!-- Node3&#45;&gt;Node2 -->
<g id="edge2_Node000002_Node000003" class="edge">
<title>Node3&#45;&gt;Node2</title>
<g id="a_edge2_Node000002_Node000003"><a xlink:title=" ">
<path fill="none" stroke="#63b8ff" d="M68.69,-244.08C72.09,-202.19 78.54,-122.77 81.25,-89.39"/>
<polygon fill="#63b8ff" stroke="#63b8ff" points="65.2,-243.78 67.88,-254.03 72.18,-244.35 65.2,-243.78"/>
</a>
</g>
</g>
<!-- Node4 -->
<g id="Node000004" class="node">
<title>Node4</title>
<g id="a_Node000004"><a xlink:href="class_cpl_1_1_dm_1_1_model_point_common__.html" target="_top" xlink:title="This concrete class provide common infrastructure for a Model Point.">
<polygon fill="white" stroke="#666666" points="223.62,-395 73.38,-395 73.38,-375 223.62,-375 223.62,-395"/>
<text text-anchor="middle" x="148.5" y="-381.5" font-family="Helvetica,sans-Serif" font-size="10.00">Cpl::Dm::ModelPointCommon_</text>
</a>
</g>
</g>
<!-- Node4&#45;&gt;Node3 -->
<g id="edge3_Node000003_Node000004" class="edge">
<title>Node4&#45;&gt;Node3</title>
<g id="a_edge3_Node000003_Node000004"><a xlink:title=" ">
<path fill="none" stroke="#63b8ff" d="M134.77,-365.41C118.8,-343.79 92.74,-308.52 77.86,-288.38"/>
<polygon fill="#63b8ff" stroke="#63b8ff" points="131.85,-367.36 140.61,-373.32 137.48,-363.2 131.85,-367.36"/>
</a>
</g>
</g>
<!-- Node8 -->
<g id="Node000008" class="node">
<title>Node8</title>
<g id="a_Node000008"><a xlink:href="class_cpl_1_1_dm_1_1_mp_1_1_numeric.html" target="_top" xlink:title=" ">
<polygon fill="white" stroke="#666666" points="206.88,-238 94.12,-238 94.12,-206 206.88,-206 206.88,-238"/>
<text text-anchor="start" x="102.12" y="-224.5" font-family="Helvetica,sans-Serif" font-size="10.00">Cpl::Dm::Mp::Numeric</text>
<text text-anchor="middle" x="150.5" y="-212.5" font-family="Helvetica,sans-Serif" font-size="10.00">&lt; size_t, MPTYPE &gt;</text>
</a>
</g>
</g>
<!-- Node4&#45;&gt;Node8 -->
<g id="edge8_Node000008_Node000004" class="edge">
<title>Node4&#45;&gt;Node8</title>
<g id="a_edge8_Node000008_Node000004"><a xlink:title=" ">
<path fill="none" stroke="#63b8ff" d="M148.75,-363.64C149.16,-330.94 149.95,-267.45 150.31,-238.3"/>
<polygon fill="#63b8ff" stroke="#63b8ff" points="145.26,-363.33 148.63,-373.37 152.26,-363.41 145.26,-363.33"/>
</a>
</g>
</g>
<!-- Node9 -->
<g id="Node000009" class="node">
<title>Node9</title>
<g id="a_Node000009"><a xlink:href="class_cpl_1_1_dm_1_1_mp_1_1_numeric.html" target="_top" xlink:title="This template class provides a mostly concrete implementation for a Model Point who&#39;s data is a C num...">
<polygon fill="white" stroke="#666666" points="310,-338 177,-338 177,-306 310,-306 310,-338"/>
<text text-anchor="start" x="185" y="-324.5" font-family="Helvetica,sans-Serif" font-size="10.00">Cpl::Dm::Mp::Numeric</text>
<text text-anchor="middle" x="243.5" y="-312.5" font-family="Helvetica,sans-Serif" font-size="10.00">&lt; ELEMTYPE, MPTYPE &gt;</text>
</a>
</g>
</g>
<!-- Node4&#45;&gt;Node9 -->
<g id="edge10_Node000009_Node000004" class="edge">
<title>Node4&#45;&gt;Node9</title>
<g id="a_edge10_Node000009_Node000004"><a xlink:title=" ">
<path fill="none" stroke="#63b8ff" d="M172.23,-368.77C186.71,-359.46 205.18,-347.61 219.68,-338.29"/>
<polygon fill="#63b8ff" stroke="#63b8ff" points="170.73,-365.57 164.2,-373.92 174.51,-371.46 170.73,-365.57"/>
</a>
</g>
</g>
<!-- Node5 -->
<g id="Node000005" class="node">
<title>Node5</title>
<g id="a_Node000005"><a xlink:href="class_cpl_1_1_dm_1_1_model_point.html" target="_top" xlink:title="This mostly abstract class defines the interface for a Model Point.">
<polygon fill="white" stroke="#666666" points="201.5,-452 95.5,-452 95.5,-432 201.5,-432 201.5,-452"/>
<text text-anchor="middle" x="148.5" y="-438.5" font-family="Helvetica,sans-Serif" font-size="10.00">Cpl::Dm::ModelPoint</text>
</a>
</g>
</g>
<!-- Node5&#45;&gt;Node4 -->
<g id="edge4_Node000004_Node000005" class="edge">
<title>Node5&#45;&gt;Node4</title>
<g id="a_edge4_Node000004_Node000005"><a xlink:title=" ">
<path fill="none" stroke="#63b8ff" d="M148.5,-420.69C148.5,-411.97 148.5,-402.22 148.5,-395.28"/>
<polygon fill="#63b8ff" stroke="#63b8ff" points="145,-420.4 148.5,-430.4 152,-420.4 145,-420.4"/>
</a>
</g>
</g>
<!-- Node6 -->
<g id="Node000006" class="node">
<title>Node6</title>
<g id="a_Node000006"><a xlink:href="class_cpl_1_1_container_1_1_item.html" target="_top" xlink:title="This class is used by the Container classes to implement a various types of singly linked containers.">
<polygon fill="white" stroke="#666666" points="199.62,-509 97.38,-509 97.38,-489 199.62,-489 199.62,-509"/>
<text text-anchor="middle" x="148.5" y="-495.5" font-family="Helvetica,sans-Serif" font-size="10.00">Cpl::Container::Item</text>
</a>
</g>
</g>
<!-- Node6&#45;&gt;Node5 -->
<g id="edge5_Node000005_Node000006" class="edge">
<title>Node6&#45;&gt;Node5</title>
<g id="a_edge5_Node000005_Node000006"><a xlink:title=" ">
<path fill="none" stroke="#63b8ff" d="M148.5,-477.69C148.5,-468.97 148.5,-459.22 148.5,-452.28"/>
<polygon fill="#63b8ff" stroke="#63b8ff" points="145,-477.4 148.5,-487.4 152,-477.4 145,-477.4"/>
</a>
</g>
</g>
<!-- Node7 -->
<g id="Node000007" class="node">
<title>Node7</title>
<g id="a_Node000007"><a xlink:href="class_cpl_1_1_dm_1_1_mp_1_1_pointer__.html" target="_top" xlink:title="This template class extends the implementation of Numeric&lt;&gt; class to support the pointers instead of ...">
<polygon fill="white" stroke="#666666" points="203.25,-169 95.75,-169 95.75,-137 203.25,-137 203.25,-169"/>
<text text-anchor="start" x="103.75" y="-155.5" font-family="Helvetica,sans-Serif" font-size="10.00">Cpl::Dm::Mp::Pointer</text>
<text text-anchor="middle" x="149.5" y="-143.5" font-family="Helvetica,sans-Serif" font-size="10.00">_&lt; MPTYPE &gt;</text>
</a>
</g>
</g>
<!-- Node7&#45;&gt;Node2 -->
<g id="edge6_Node000002_Node000007" class="edge">
<title>Node7&#45;&gt;Node2</title>
<g id="a_edge6_Node000002_Node000007"><a xlink:title=" ">
<path fill="none" stroke="orange" stroke-dasharray="5,2" d="M128.85,-127.96C118.05,-115.39 105.15,-100.37 95.71,-89.38"/>
<polygon fill="orange" stroke="orange" points="126.11,-130.14 135.28,-135.44 131.42,-125.58 126.11,-130.14"/>
</a>
</g>
<text text-anchor="middle" x="140.75" y="-109.5" font-family="Helvetica,sans-Serif" font-size="10.00" fill="grey"> &lt; Void &gt;</text>
</g>
<!-- Node8&#45;&gt;Node7 -->
<g id="edge7_Node000007_Node000008" class="edge">
<title>Node8&#45;&gt;Node7</title>
<g id="a_edge7_Node000007_Node000008"><a xlink:title=" ">
<path fill="none" stroke="#63b8ff" d="M150.1,-194.35C149.97,-185.78 149.84,-176.59 149.73,-169.14"/>
<polygon fill="#63b8ff" stroke="#63b8ff" points="146.6,-194.34 150.25,-204.28 153.6,-194.23 146.6,-194.34"/>
</a>
</g>
</g>
<!-- Node9&#45;&gt;Node8 -->
<g id="edge9_Node000008_Node000009" class="edge">
<title>Node9&#45;&gt;Node8</title>
<g id="a_edge9_Node000008_Node000009"><a xlink:title=" ">
<path fill="none" stroke="orange" stroke-dasharray="5,2" d="M221.44,-297.76C203.96,-279.34 180.04,-254.13 164.93,-238.2"/>
<polygon fill="orange" stroke="orange" points="218.5,-299.75 227.93,-304.59 223.58,-294.93 218.5,-299.75"/>
</a>
</g>
<text text-anchor="middle" x="257.38" y="-268.5" font-family="Helvetica,sans-Serif" font-size="10.00" fill="grey"> &lt; size_t, MPTYPE &gt;</text>
</g>
</g>
</svg>
