<?xml version="1.0" encoding="UTF-8" standalone="no"?>
<!DOCTYPE svg PUBLIC "-//W3C//DTD SVG 1.1//EN"
 "http://www.w3.org/Graphics/SVG/1.1/DTD/svg11.dtd">
<!-- Generated by graphviz version 2.38.0 (20140413.2041)
 -->
<!-- Title: Cpl::Io::File::ObjectApi Pages: 1 -->
<svg width="380pt" height="196pt"
 viewBox="0.00 0.00 379.50 196.00" xmlns="http://www.w3.org/2000/svg" xmlns:xlink="http://www.w3.org/1999/xlink">
<g id="graph0" class="graph" transform="scale(1 1) rotate(0) translate(4 192)">
<title>Cpl::Io::File::ObjectApi</title>
<polygon fill="white" stroke="none" points="-4,4 -4,-192 375.5,-192 375.5,4 -4,4"/>
<!-- Node1 -->
<g id="node1" class="node"><title>Node1</title>
<g id="a_node1"><a xlink:title="This abstract class defines the basic additional functionality, beyond that of a stream,...">
<polygon fill="#bfbfbf" stroke="black" points="123.5,-168.5 123.5,-187.5 239.5,-187.5 239.5,-168.5 123.5,-168.5"/>
<text text-anchor="middle" x="181.5" y="-175.5" font-family="Helvetica,sans-Serif" font-size="10.00">Cpl::Io::File::ObjectApi</text>
</a>
</g>
</g>
<!-- Node2 -->
<g id="node2" class="node"><title>Node2</title>
<g id="a_node2"><a xlink:href="class_cpl_1_1_io_1_1_file_1_1_input_api.html" target="_top" xlink:title="This abstract class defines the interface for a Random Access Input File.">
<polygon fill="white" stroke="black" points="62,-112.5 62,-131.5 171,-131.5 171,-112.5 62,-112.5"/>
<text text-anchor="middle" x="116.5" y="-119.5" font-family="Helvetica,sans-Serif" font-size="10.00">Cpl::Io::File::InputApi</text>
</a>
</g>
</g>
<!-- Node1&#45;&gt;Node2 -->
<g id="edge1" class="edge"><title>Node1&#45;&gt;Node2</title>
<path fill="none" stroke="midnightblue" d="M163.227,-161.82C151.582,-152.145 136.901,-139.948 127.133,-131.834"/>
<polygon fill="midnightblue" stroke="midnightblue" points="161.128,-164.626 171.057,-168.324 165.601,-159.242 161.128,-164.626"/>
</g>
<!-- Node7 -->
<g id="node7" class="node"><title>Node7</title>
<g id="a_node7"><a xlink:href="class_cpl_1_1_io_1_1_file_1_1_output_api.html" target="_top" xlink:title="This abstract class defines the interface for a Random Access Input File.">
<polygon fill="white" stroke="black" points="189.5,-112.5 189.5,-131.5 305.5,-131.5 305.5,-112.5 189.5,-112.5"/>
<text text-anchor="middle" x="247.5" y="-119.5" font-family="Helvetica,sans-Serif" font-size="10.00">Cpl::Io::File::OutputApi</text>
</a>
</g>
</g>
<!-- Node1&#45;&gt;Node7 -->
<g id="edge6" class="edge"><title>Node1&#45;&gt;Node7</title>
<path fill="none" stroke="midnightblue" d="M200.054,-161.82C211.878,-152.145 226.786,-139.948 236.703,-131.834"/>
<polygon fill="midnightblue" stroke="midnightblue" points="197.627,-159.283 192.104,-168.324 202.06,-164.7 197.627,-159.283"/>
</g>
<!-- Node3 -->
<g id="node3" class="node"><title>Node3</title>
<g id="a_node3"><a xlink:href="class_cpl_1_1_io_1_1_file_1_1_input.html" target="_top" xlink:title="This concrete class provides a platform independent &#39;standard&#39; implementation of a Cpl::Io::File::Inp...">
<polygon fill="white" stroke="black" points="0,-56.5 0,-75.5 95,-75.5 95,-56.5 0,-56.5"/>
<text text-anchor="middle" x="47.5" y="-63.5" font-family="Helvetica,sans-Serif" font-size="10.00">Cpl::Io::File::Input</text>
</a>
</g>
</g>
<!-- Node2&#45;&gt;Node3 -->
<g id="edge2" class="edge"><title>Node2&#45;&gt;Node3</title>
<path fill="none" stroke="midnightblue" d="M97.4621,-106.101C85.0442,-96.3824 69.2566,-84.0269 58.7878,-75.8339"/>
<polygon fill="midnightblue" stroke="midnightblue" points="95.3818,-108.917 105.414,-112.324 99.696,-103.405 95.3818,-108.917"/>
</g>
<!-- Node4 -->
<g id="node4" class="node"><title>Node4</title>
<g id="a_node4"><a xlink:href="class_cpl_1_1_io_1_1_file_1_1_input_output_api.html" target="_top" xlink:title="This abstract class defines the interface for a Random Access Input Output File.">
<polygon fill="white" stroke="black" points="113.5,-56.5 113.5,-75.5 251.5,-75.5 251.5,-56.5 113.5,-56.5"/>
<text text-anchor="middle" x="182.5" y="-63.5" font-family="Helvetica,sans-Serif" font-size="10.00">Cpl::Io::File::InputOutputApi</text>
</a>
</g>
</g>
<!-- Node2&#45;&gt;Node4 -->
<g id="edge3" class="edge"><title>Node2&#45;&gt;Node4</title>
<path fill="none" stroke="midnightblue" d="M135.054,-105.82C146.878,-96.1452 161.786,-83.9481 171.703,-75.8339"/>
<polygon fill="midnightblue" stroke="midnightblue" points="132.627,-103.283 127.104,-112.324 137.06,-108.7 132.627,-103.283"/>
</g>
<!-- Node5 -->
<g id="node5" class="node"><title>Node5</title>
<g id="a_node5"><a xlink:href="class_cpl_1_1_io_1_1_file_1_1_input_output.html" target="_top" xlink:title="This concrete class provides a platform independent &#39;standard&#39; implementation of an InputOutputFileAp...">
<polygon fill="white" stroke="black" points="57.5,-0.5 57.5,-19.5 181.5,-19.5 181.5,-0.5 57.5,-0.5"/>
<text text-anchor="middle" x="119.5" y="-7.5" font-family="Helvetica,sans-Serif" font-size="10.00">Cpl::Io::File::InputOutput</text>
</a>
</g>
</g>
<!-- Node4&#45;&gt;Node5 -->
<g id="edge4" class="edge"><title>Node4&#45;&gt;Node5</title>
<path fill="none" stroke="midnightblue" d="M164.46,-49.5372C153.227,-39.9087 139.181,-27.8694 129.806,-19.8339"/>
<polygon fill="midnightblue" stroke="midnightblue" points="162.508,-52.4734 172.378,-56.324 167.063,-47.1586 162.508,-52.4734"/>
</g>
<!-- Node6 -->
<g id="node6" class="node"><title>Node6</title>
<g id="a_node6"><a xlink:href="class_cpl_1_1_io_1_1_file_1_1_null.html" target="_top" xlink:title="This concrete class implements a NULL InputOutputApi File that all of its input operations return &#39;En...">
<polygon fill="white" stroke="black" points="200,-0.5 200,-19.5 289,-19.5 289,-0.5 200,-0.5"/>
<text text-anchor="middle" x="244.5" y="-7.5" font-family="Helvetica,sans-Serif" font-size="10.00">Cpl::Io::File::Null</text>
</a>
</g>
</g>
<!-- Node4&#45;&gt;Node6 -->
<g id="edge5" class="edge"><title>Node4&#45;&gt;Node6</title>
<path fill="none" stroke="midnightblue" d="M200.254,-49.5372C211.308,-39.9087 225.131,-27.8694 234.357,-19.8339"/>
<polygon fill="midnightblue" stroke="midnightblue" points="197.703,-47.1168 192.461,-56.324 202.301,-52.3954 197.703,-47.1168"/>
</g>
<!-- Node7&#45;&gt;Node4 -->
<g id="edge7" class="edge"><title>Node7&#45;&gt;Node4</title>
<path fill="none" stroke="midnightblue" d="M229.227,-105.82C217.582,-96.1452 202.901,-83.9481 193.133,-75.8339"/>
<polygon fill="midnightblue" stroke="midnightblue" points="227.128,-108.626 237.057,-112.324 231.601,-103.242 227.128,-108.626"/>
</g>
<!-- Node8 -->
<g id="node8" class="node"><title>Node8</title>
<g id="a_node8"><a xlink:href="class_cpl_1_1_io_1_1_file_1_1_output.html" target="_top" xlink:title="This concrete class provides a platform independent &#39;standard&#39; implementation of a Cpl::Io::File::Out...">
<polygon fill="white" stroke="black" points="269.5,-56.5 269.5,-75.5 371.5,-75.5 371.5,-56.5 269.5,-56.5"/>
<text text-anchor="middle" x="320.5" y="-63.5" font-family="Helvetica,sans-Serif" font-size="10.00">Cpl::Io::File::Output</text>
</a>
</g>
</g>
<!-- Node7&#45;&gt;Node8 -->
<g id="edge8" class="edge"><title>Node7&#45;&gt;Node8</title>
<path fill="none" stroke="midnightblue" d="M267.642,-106.101C280.779,-96.3824 297.482,-84.0269 308.558,-75.8339"/>
<polygon fill="midnightblue" stroke="midnightblue" points="265.187,-103.563 259.229,-112.324 269.35,-109.191 265.187,-103.563"/>
</g>
</g>
</svg>
