<?xml version="1.0" encoding="UTF-8" standalone="no"?>
<!DOCTYPE svg PUBLIC "-//W3C//DTD SVG 1.1//EN"
 "http://www.w3.org/Graphics/SVG/1.1/DTD/svg11.dtd">
<!-- Generated by graphviz version 10.0.1 (20240210.2158)
 -->
<!-- Title: Storm::Thermostat::SimHouse::House Pages: 1 -->
<svg width="1128pt" height="306pt"
 viewBox="0.00 0.00 1127.50 306.00" xmlns="http://www.w3.org/2000/svg" xmlns:xlink="http://www.w3.org/1999/xlink">
<g id="graph0" class="graph" transform="scale(1 1) rotate(0) translate(4 302)">
<title>Storm::Thermostat::SimHouse::House</title>
<!-- Node1 -->
<g id="Node000001" class="node">
<title>Node1</title>
<g id="a_Node000001"><a xlink:title="This class glues the House Simulation into the Thermostat Test Application.">
<polygon fill="#999999" stroke="#666666" points="1119.5,-108 1016.5,-108 1016.5,-76 1119.5,-76 1119.5,-108"/>
<text text-anchor="start" x="1024.5" y="-94.5" font-family="Helvetica,sans-Serif" font-size="10.00">Storm::Thermostat::</text>
<text text-anchor="middle" x="1068" y="-82.5" font-family="Helvetica,sans-Serif" font-size="10.00">SimHouse::House</text>
</a>
</g>
</g>
<!-- Node2 -->
<g id="Node000002" class="node">
<title>Node2</title>
<g id="a_Node000002"><a xlink:href="class_cpl_1_1_system_1_1_event_loop.html" target="_top" xlink:title="This concrete class is a Runnable object that provides a event driven execution model for a thread.">
<polygon fill="white" stroke="#666666" points="948.25,-166 827.25,-166 827.25,-146 948.25,-146 948.25,-166"/>
<text text-anchor="middle" x="887.75" y="-152.5" font-family="Helvetica,sans-Serif" font-size="10.00">Cpl::System::EventLoop</text>
</a>
</g>
</g>
<!-- Node2&#45;&gt;Node1 -->
<g id="edge1_Node000001_Node000002" class="edge">
<title>Node2&#45;&gt;Node1</title>
<g id="a_edge1_Node000001_Node000002"><a xlink:title=" ">
<path fill="none" stroke="#63b8ff" d="M928.57,-141.7C956.03,-131.84 992.6,-118.71 1021.25,-108.43"/>
<polygon fill="#63b8ff" stroke="#63b8ff" points="927.44,-138.39 919.21,-145.06 929.8,-144.98 927.44,-138.39"/>
</a>
</g>
</g>
<!-- Node3 -->
<g id="Node000003" class="node">
<title>Node3</title>
<g id="a_Node000003"><a xlink:href="class_cpl_1_1_system_1_1_runnable.html" target="_top" xlink:title="This is an abstract class defines the interface for an object that is &quot;executed&quot; when a Thread object...">
<polygon fill="white" stroke="#666666" points="708.75,-298 592.25,-298 592.25,-278 708.75,-278 708.75,-298"/>
<text text-anchor="middle" x="650.5" y="-284.5" font-family="Helvetica,sans-Serif" font-size="10.00">Cpl::System::Runnable</text>
</a>
</g>
</g>
<!-- Node3&#45;&gt;Node2 -->
<g id="edge2_Node000002_Node000003" class="edge">
<title>Node3&#45;&gt;Node2</title>
<g id="a_edge2_Node000002_Node000003"><a xlink:title=" ">
<path fill="none" stroke="#63b8ff" d="M719.88,-280.73C749.09,-275.28 782.53,-265.72 809.25,-249 843.63,-227.48 870.22,-185.55 881.23,-166.21"/>
<polygon fill="#63b8ff" stroke="#63b8ff" points="719.66,-277.22 710.4,-282.37 720.85,-284.12 719.66,-277.22"/>
</a>
</g>
</g>
<!-- Node4 -->
<g id="Node000004" class="node">
<title>Node4</title>
<g id="a_Node000004"><a xlink:href="class_cpl_1_1_system_1_1_event_flag.html" target="_top" xlink:title="This abstract class defines the interface to generated a &#39;Event Flag&#39;.">
<polygon fill="white" stroke="#666666" points="709.88,-260 591.12,-260 591.12,-240 709.88,-240 709.88,-260"/>
<text text-anchor="middle" x="650.5" y="-246.5" font-family="Helvetica,sans-Serif" font-size="10.00">Cpl::System::EventFlag</text>
</a>
</g>
</g>
<!-- Node4&#45;&gt;Node2 -->
<g id="edge3_Node000002_Node000004" class="edge">
<title>Node4&#45;&gt;Node2</title>
<g id="a_edge3_Node000002_Node000004"><a xlink:title=" ">
<path fill="none" stroke="#63b8ff" d="M721.52,-248.07C749.85,-245.11 782.19,-238.83 809.25,-226 839.23,-211.78 865.95,-182.12 878.75,-166.36"/>
<polygon fill="#63b8ff" stroke="#63b8ff" points="721.21,-244.59 711.57,-248.98 721.85,-251.56 721.21,-244.59"/>
</a>
</g>
</g>
<!-- Node5 -->
<g id="Node000005" class="node">
<title>Node5</title>
<g id="a_Node000005"><a xlink:href="class_cpl_1_1_system_1_1_signable.html" target="_top" xlink:title="This abstract class defines the interface by which a client can cause an object that is waiting&#45;on&#45;a&#45;...">
<polygon fill="white" stroke="#666666" points="441.5,-184 328,-184 328,-164 441.5,-164 441.5,-184"/>
<text text-anchor="middle" x="384.75" y="-170.5" font-family="Helvetica,sans-Serif" font-size="10.00">Cpl::System::Signable</text>
</a>
</g>
</g>
<!-- Node5&#45;&gt;Node2 -->
<g id="edge4_Node000002_Node000005" class="edge">
<title>Node5&#45;&gt;Node2</title>
<g id="a_edge4_Node000002_Node000005"><a xlink:title=" ">
<path fill="none" stroke="#63b8ff" d="M453.31,-184.05C464.86,-185.54 476.76,-186.93 488,-188 630.16,-201.5 669.99,-214.57 809.25,-183 827.04,-178.97 846.41,-172.22 861.34,-166.48"/>
<polygon fill="#63b8ff" stroke="#63b8ff" points="453.78,-180.59 443.41,-182.74 452.86,-187.53 453.78,-180.59"/>
</a>
</g>
</g>
<!-- Node11 -->
<g id="Node000011" class="node">
<title>Node11</title>
<g id="a_Node000011"><a xlink:href="class_cpl_1_1_system_1_1_thread.html" target="_top" xlink:title="This abstract class defines the operations that can be performed on a thread.">
<polygon fill="white" stroke="#666666" points="703.12,-184 597.88,-184 597.88,-164 703.12,-164 703.12,-184"/>
<text text-anchor="middle" x="650.5" y="-170.5" font-family="Helvetica,sans-Serif" font-size="10.00">Cpl::System::Thread</text>
</a>
</g>
</g>
<!-- Node5&#45;&gt;Node11 -->
<g id="edge11_Node000011_Node000005" class="edge">
<title>Node5&#45;&gt;Node11</title>
<g id="a_edge11_Node000011_Node000005"><a xlink:title=" ">
<path fill="none" stroke="#63b8ff" d="M453.11,-174C498.07,-174 556.32,-174 597.68,-174"/>
<polygon fill="#63b8ff" stroke="#63b8ff" points="453.2,-170.5 443.2,-174 453.2,-177.5 453.2,-170.5"/>
</a>
</g>
</g>
<!-- Node13 -->
<g id="Node000013" class="node">
<title>Node13</title>
<g id="a_Node000013"><a xlink:href="class_cpl_1_1_system_1_1_semaphore.html" target="_top" xlink:title="This semaphore class defines the interface for a Counting Semaphore.">
<polygon fill="white" stroke="#666666" points="713.25,-146 587.75,-146 587.75,-126 713.25,-126 713.25,-146"/>
<text text-anchor="middle" x="650.5" y="-132.5" font-family="Helvetica,sans-Serif" font-size="10.00">Cpl::System::Semaphore</text>
</a>
</g>
</g>
<!-- Node5&#45;&gt;Node13 -->
<g id="edge14_Node000013_Node000005" class="edge">
<title>Node5&#45;&gt;Node13</title>
<g id="a_edge14_Node000013_Node000005"><a xlink:title=" ">
<path fill="none" stroke="#63b8ff" d="M453.06,-164.3C494.51,-158.33 547.25,-150.73 587.65,-144.91"/>
<polygon fill="#63b8ff" stroke="#63b8ff" points="452.58,-160.83 443.18,-165.73 453.58,-167.76 452.58,-160.83"/>
</a>
</g>
</g>
<!-- Node6 -->
<g id="Node000006" class="node">
<title>Node6</title>
<g id="a_Node000006"><a xlink:href="class_cpl_1_1_container_1_1_item.html" target="_top" xlink:title="This class is used by the Container classes to implement a various types of singly linked containers.">
<polygon fill="white" stroke="#666666" points="104.12,-184 1.88,-184 1.88,-164 104.12,-164 104.12,-184"/>
<text text-anchor="middle" x="53" y="-170.5" font-family="Helvetica,sans-Serif" font-size="10.00">Cpl::Container::Item</text>
</a>
</g>
</g>
<!-- Node6&#45;&gt;Node5 -->
<g id="edge5_Node000005_Node000006" class="edge">
<title>Node6&#45;&gt;Node5</title>
<g id="a_edge5_Node000005_Node000006"><a xlink:title=" ">
<path fill="none" stroke="#63b8ff" d="M115.79,-174C176.62,-174 268.69,-174 327.51,-174"/>
<polygon fill="#63b8ff" stroke="#63b8ff" points="115.95,-170.5 105.95,-174 115.95,-177.5 115.95,-170.5"/>
</a>
</g>
</g>
<!-- Node7 -->
<g id="Node000007" class="node">
<title>Node7</title>
<g id="a_Node000007"><a xlink:href="class_cpl_1_1_system_1_1_timer_manager.html" target="_top" xlink:title="This mostly concrete class implements manages a list of Software Timers.">
<polygon fill="white" stroke="#666666" points="719.25,-108 581.75,-108 581.75,-88 719.25,-88 719.25,-108"/>
<text text-anchor="middle" x="650.5" y="-94.5" font-family="Helvetica,sans-Serif" font-size="10.00">Cpl::System::TimerManager</text>
</a>
</g>
</g>
<!-- Node7&#45;&gt;Node2 -->
<g id="edge6_Node000002_Node000007" class="edge">
<title>Node7&#45;&gt;Node2</title>
<g id="a_edge6_Node000002_Node000007"><a xlink:title=" ">
<path fill="none" stroke="#63b8ff" d="M706.94,-111.12C737.2,-118.34 775.32,-127.54 809.25,-136 821.52,-139.06 834.86,-142.47 846.96,-145.6"/>
<polygon fill="#63b8ff" stroke="#63b8ff" points="707.76,-107.72 697.22,-108.81 706.13,-114.53 707.76,-107.72"/>
</a>
</g>
</g>
<!-- Node8 -->
<g id="Node000008" class="node">
<title>Node8</title>
<g id="a_Node000008"><a xlink:href="class_cpl_1_1_system_1_1_counter_source__.html" target="_top" xlink:title="This abstract class defines the interface for registering for an Counter object with the Timer Manage...">
<polygon fill="white" stroke="#666666" points="457.62,-115 311.88,-115 311.88,-95 457.62,-95 457.62,-115"/>
<text text-anchor="middle" x="384.75" y="-101.5" font-family="Helvetica,sans-Serif" font-size="10.00">Cpl::System::CounterSource_</text>
</a>
</g>
</g>
<!-- Node8&#45;&gt;Node7 -->
<g id="edge7_Node000007_Node000008" class="edge">
<title>Node8&#45;&gt;Node7</title>
<g id="a_edge7_Node000007_Node000008"><a xlink:title=" ">
<path fill="none" stroke="#63b8ff" d="M468.89,-102.79C505.19,-101.83 547.22,-100.71 581.6,-99.8"/>
<polygon fill="#63b8ff" stroke="#63b8ff" points="469.24,-99.28 459.33,-103.05 469.42,-106.28 469.24,-99.28"/>
</a>
</g>
</g>
<!-- Node9 -->
<g id="Node000009" class="node">
<title>Node9</title>
<g id="a_Node000009"><a xlink:href="class_cpl_1_1_container_1_1_d_list.html" target="_top" xlink:title=" ">
<polygon fill="white" stroke="#666666" points="470,-77 299.5,-77 299.5,-45 470,-45 470,-77"/>
<text text-anchor="start" x="307.5" y="-63.5" font-family="Helvetica,sans-Serif" font-size="10.00">Cpl::Container::DList</text>
<text text-anchor="middle" x="384.75" y="-51.5" font-family="Helvetica,sans-Serif" font-size="10.00">&lt; Cpl::System::CounterCallback_ &gt;</text>
</a>
</g>
</g>
<!-- Node9&#45;&gt;Node7 -->
<g id="edge8_Node000007_Node000009" class="edge">
<title>Node9&#45;&gt;Node7</title>
<g id="a_edge8_Node000007_Node000009"><a xlink:title=" ">
<path fill="none" stroke="#9a32cd" stroke-dasharray="5,2" d="M481.59,-61.49C508.41,-63.09 537.42,-66.21 563.75,-72 572.13,-73.84 573.61,-76.28 581.75,-79 590.79,-82.02 600.61,-84.96 609.89,-87.59"/>
<polygon fill="#9a32cd" stroke="#9a32cd" points="481.93,-58 471.76,-60.97 481.56,-64.99 481.93,-58"/>
</a>
</g>
<text text-anchor="middle" x="525.88" y="-86.5" font-family="Helvetica,sans-Serif" font-size="10.00" fill="grey"> m_counters</text>
<text text-anchor="middle" x="525.88" y="-74.5" font-family="Helvetica,sans-Serif" font-size="10.00" fill="grey">m_pendingAttach</text>
</g>
<!-- Node10 -->
<g id="Node000010" class="node">
<title>Node10</title>
<g id="a_Node000010"><a xlink:href="class_cpl_1_1_container_1_1_d_list.html" target="_top" xlink:title="This template class implements a Doubly linked list which maintains the ordering imposed on it by the...">
<polygon fill="white" stroke="#666666" points="106,-77 0,-77 0,-45 106,-45 106,-77"/>
<text text-anchor="start" x="8" y="-63.5" font-family="Helvetica,sans-Serif" font-size="10.00">Cpl::Container::DList</text>
<text text-anchor="middle" x="53" y="-51.5" font-family="Helvetica,sans-Serif" font-size="10.00">&lt; ITEM &gt;</text>
</a>
</g>
</g>
<!-- Node10&#45;&gt;Node9 -->
<g id="edge9_Node000009_Node000010" class="edge">
<title>Node10&#45;&gt;Node9</title>
<g id="a_edge9_Node000009_Node000010"><a xlink:title=" ">
<path fill="none" stroke="orange" stroke-dasharray="5,2" d="M117.59,-61C169.3,-61 242.69,-61 299.32,-61"/>
<polygon fill="orange" stroke="orange" points="117.76,-57.5 107.76,-61 117.76,-64.5 117.76,-57.5"/>
</a>
</g>
<text text-anchor="middle" x="202.75" y="-63.5" font-family="Helvetica,sans-Serif" font-size="10.00" fill="grey"> &lt; Cpl::System::CounterCallback_ &gt;</text>
</g>
<!-- Node11&#45;&gt;Node2 -->
<g id="edge10_Node000002_Node000011" class="edge">
<title>Node11&#45;&gt;Node2</title>
<g id="a_edge10_Node000002_Node000011"><a xlink:title=" ">
<path fill="none" stroke="#9a32cd" stroke-dasharray="5,2" d="M714.46,-169.18C749.42,-166.51 792.66,-163.2 827.08,-160.57"/>
<polygon fill="#9a32cd" stroke="#9a32cd" points="714.63,-165.66 704.93,-169.91 715.16,-172.64 714.63,-165.66"/>
</a>
</g>
<text text-anchor="middle" x="773.25" y="-169.5" font-family="Helvetica,sans-Serif" font-size="10.00" fill="grey"> m_myThreadPtr</text>
</g>
<!-- Node12 -->
<g id="Node000012" class="node">
<title>Node12</title>
<g id="a_Node000012"><a xlink:href="class_cpl_1_1_system_1_1_shared_event_handler_api.html" target="_top" xlink:title="This abstract class defines the interface for a Shared Event Handler.">
<polygon fill="white" stroke="#666666" points="715.88,-70 585.12,-70 585.12,-38 715.88,-38 715.88,-70"/>
<text text-anchor="start" x="593.12" y="-56.5" font-family="Helvetica,sans-Serif" font-size="10.00">Cpl::System::SharedEvent</text>
<text text-anchor="middle" x="650.5" y="-44.5" font-family="Helvetica,sans-Serif" font-size="10.00">HandlerApi</text>
</a>
</g>
</g>
<!-- Node12&#45;&gt;Node2 -->
<g id="edge12_Node000002_Node000012" class="edge">
<title>Node12&#45;&gt;Node2</title>
<g id="a_edge12_Node000002_Node000012"><a xlink:title=" ">
<path fill="none" stroke="#9a32cd" stroke-dasharray="5,2" d="M726.93,-72.45C753.6,-80.27 783.38,-90.49 809.25,-103 833.76,-114.85 859.27,-133.8 874.05,-145.53"/>
<polygon fill="#9a32cd" stroke="#9a32cd" points="728.13,-69.16 717.55,-69.78 726.21,-75.89 728.13,-69.16"/>
</a>
</g>
<text text-anchor="middle" x="773.25" y="-105.5" font-family="Helvetica,sans-Serif" font-size="10.00" fill="grey"> m_eventHandler</text>
</g>
<!-- Node13&#45;&gt;Node2 -->
<g id="edge13_Node000002_Node000013" class="edge">
<title>Node13&#45;&gt;Node2</title>
<g id="a_edge13_Node000002_Node000013"><a xlink:title=" ">
<path fill="none" stroke="#9a32cd" stroke-dasharray="5,2" d="M724.57,-139.64C751.25,-141.23 781.64,-143.35 809.25,-146 815.06,-146.56 821.1,-147.21 827.13,-147.91"/>
<polygon fill="#9a32cd" stroke="#9a32cd" points="725.08,-136.16 714.89,-139.08 724.67,-143.15 725.08,-136.16"/>
</a>
</g>
<text text-anchor="middle" x="773.25" y="-148.5" font-family="Helvetica,sans-Serif" font-size="10.00" fill="grey"> m_sema</text>
</g>
<!-- Node14 -->
<g id="Node000014" class="node">
<title>Node14</title>
<g id="a_Node000014"><a xlink:href="class_storm_1_1_utils_1_1_sim_house.html" target="_top" xlink:title="This class provides a &#39;functional&#39; simulation of house with respect to Outdoor temperature,...">
<polygon fill="white" stroke="#666666" points="947.12,-84 828.38,-84 828.38,-64 947.12,-64 947.12,-84"/>
<text text-anchor="middle" x="887.75" y="-70.5" font-family="Helvetica,sans-Serif" font-size="10.00">Storm::Utils::SimHouse</text>
</a>
</g>
</g>
<!-- Node14&#45;&gt;Node1 -->
<g id="edge15_Node000001_Node000014" class="edge">
<title>Node14&#45;&gt;Node1</title>
<g id="a_edge15_Node000001_Node000014"><a xlink:title=" ">
<path fill="none" stroke="#9a32cd" stroke-dasharray="5,2" d="M958.89,-79.24C972.06,-80.37 985.71,-81.64 998.5,-83 1004.22,-83.61 1010.21,-84.31 1016.16,-85.04"/>
<polygon fill="#9a32cd" stroke="#9a32cd" points="959.23,-75.75 948.97,-78.41 958.65,-82.73 959.23,-75.75"/>
</a>
</g>
<text text-anchor="middle" x="982.38" y="-85.5" font-family="Helvetica,sans-Serif" font-size="10.00" fill="grey"> m_sim</text>
</g>
<!-- Node15 -->
<g id="Node000015" class="node">
<title>Node15</title>
<g id="a_Node000015"><a xlink:href="class_storm_1_1_utils_1_1_sim_system.html" target="_top" xlink:title="This class simulates a &quot;system&quot; whose state is affected by its environment and any number of control ...">
<polygon fill="white" stroke="#666666" points="712.88,-20 588.12,-20 588.12,0 712.88,0 712.88,-20"/>
<text text-anchor="middle" x="650.5" y="-6.5" font-family="Helvetica,sans-Serif" font-size="10.00">Storm::Utils::SimSystem</text>
</a>
</g>
</g>
<!-- Node15&#45;&gt;Node14 -->
<g id="edge16_Node000014_Node000015" class="edge">
<title>Node15&#45;&gt;Node14</title>
<g id="a_edge16_Node000014_Node000015"><a xlink:title=" ">
<path fill="none" stroke="#9a32cd" stroke-dasharray="5,2" d="M724.74,-6.47C751.93,-7.26 782.61,-10.7 809.25,-20 836.19,-29.41 862.31,-50.97 876.28,-63.82"/>
<polygon fill="#9a32cd" stroke="#9a32cd" points="724.9,-2.97 714.84,-6.3 724.78,-9.97 724.9,-2.97"/>
</a>
</g>
<text text-anchor="middle" x="773.25" y="-22.5" font-family="Helvetica,sans-Serif" font-size="10.00" fill="grey"> m_sim</text>
</g>
</g>
</svg>
