<?xml version="1.0" encoding="UTF-8" standalone="no"?>
<!DOCTYPE svg PUBLIC "-//W3C//DTD SVG 1.1//EN"
 "http://www.w3.org/Graphics/SVG/1.1/DTD/svg11.dtd">
<!-- Generated by graphviz version 10.0.1 (20240210.2158)
 -->
<!-- Title: Cpl::Dm::Mp::NumericArrayBase_&lt; ELEMTYPE &gt; Pages: 1 -->
<svg width="1529pt" height="959pt"
 viewBox="0.00 0.00 1529.25 959.00" xmlns="http://www.w3.org/2000/svg" xmlns:xlink="http://www.w3.org/1999/xlink">
<g id="graph0" class="graph" transform="scale(1 1) rotate(0) translate(4 955)">
<title>Cpl::Dm::Mp::NumericArrayBase_&lt; ELEMTYPE &gt;</title>
<!-- Node1 -->
<g id="Node000001" class="node">
<title>Node1</title>
<g id="a_Node000001"><a xlink:title="This template class extends the implementation of ArrayBase_ to support the toJSON() and fromJSON_() ...">
<polygon fill="#999999" stroke="#666666" points="770.25,-426 634.25,-426 634.25,-394 770.25,-394 770.25,-426"/>
<text text-anchor="start" x="642.25" y="-412.5" font-family="Helvetica,sans-Serif" font-size="10.00">Cpl::Dm::Mp::NumericArray</text>
<text text-anchor="middle" x="702.25" y="-400.5" font-family="Helvetica,sans-Serif" font-size="10.00">Base_&lt; ELEMTYPE &gt;</text>
</a>
</g>
</g>
<!-- Node6 -->
<g id="Node000006" class="node">
<title>Node6</title>
<g id="a_Node000006"><a xlink:href="class_cpl_1_1_dm_1_1_mp_1_1_numeric_array__.html" target="_top" xlink:title=" ">
<polygon fill="white" stroke="#666666" points="1327.62,-951 1163.12,-951 1163.12,-919 1327.62,-919 1327.62,-951"/>
<text text-anchor="start" x="1171.12" y="-937.5" font-family="Helvetica,sans-Serif" font-size="10.00">Cpl::Dm::Mp::NumericArray</text>
<text text-anchor="middle" x="1245.38" y="-925.5" font-family="Helvetica,sans-Serif" font-size="10.00">_&lt; double, N, ArrayDouble&lt; N &gt; &gt;</text>
</a>
</g>
</g>
<!-- Node1&#45;&gt;Node6 -->
<g id="edge5_Node000001_Node000006" class="edge">
<title>Node1&#45;&gt;Node6</title>
<g id="a_edge5_Node000001_Node000006"><a xlink:title=" ">
<path fill="none" stroke="#63b8ff" d="M703.28,-437.59C705.01,-519.31 722.19,-761.46 861.75,-875 961.43,-956.1 1014.8,-944.81 1143.25,-941 1149.58,-940.81 1156.13,-940.56 1162.71,-940.26"/>
<polygon fill="#63b8ff" stroke="#63b8ff" points="706.78,-437.57 703.14,-427.62 699.78,-437.67 706.78,-437.57"/>
</a>
</g>
</g>
<!-- Node8 -->
<g id="Node000008" class="node">
<title>Node8</title>
<g id="a_Node000008"><a xlink:href="class_cpl_1_1_dm_1_1_mp_1_1_numeric_array__.html" target="_top" xlink:title=" ">
<polygon fill="white" stroke="#666666" points="1318.25,-896 1172.5,-896 1172.5,-864 1318.25,-864 1318.25,-896"/>
<text text-anchor="start" x="1180.5" y="-882.5" font-family="Helvetica,sans-Serif" font-size="10.00">Cpl::Dm::Mp::NumericArray</text>
<text text-anchor="middle" x="1245.38" y="-870.5" font-family="Helvetica,sans-Serif" font-size="10.00">_&lt; float, N, ArrayFloat&lt; N &gt; &gt;</text>
</a>
</g>
</g>
<!-- Node1&#45;&gt;Node8 -->
<g id="edge7_Node000001_Node000008" class="edge">
<title>Node1&#45;&gt;Node8</title>
<g id="a_edge7_Node000001_Node000008"><a xlink:title=" ">
<path fill="none" stroke="#63b8ff" d="M707.49,-437.56C716.62,-492.07 741.24,-616.54 788.25,-711 812.35,-759.42 822.66,-770.61 861.75,-808 926.23,-869.67 941.81,-895.47 1027,-922 1076.33,-937.36 1093.8,-936.97 1143.25,-922 1152.45,-919.21 1152.67,-914.33 1161.25,-910 1171.25,-904.96 1182.31,-900.35 1193,-896.34"/>
<polygon fill="#63b8ff" stroke="#63b8ff" points="710.98,-437.24 705.92,-427.93 704.07,-438.36 710.98,-437.24"/>
</a>
</g>
</g>
<!-- Node10 -->
<g id="Node000010" class="node">
<title>Node10</title>
<g id="a_Node000010"><a xlink:href="class_cpl_1_1_dm_1_1_mp_1_1_numeric_array__.html" target="_top" xlink:title=" ">
<polygon fill="white" stroke="#666666" points="1323.5,-836 1167.25,-836 1167.25,-804 1323.5,-804 1323.5,-836"/>
<text text-anchor="start" x="1175.25" y="-822.5" font-family="Helvetica,sans-Serif" font-size="10.00">Cpl::Dm::Mp::NumericArray</text>
<text text-anchor="middle" x="1245.38" y="-810.5" font-family="Helvetica,sans-Serif" font-size="10.00">_&lt; int32_t, N, ArrayInt32&lt; N &gt; &gt;</text>
</a>
</g>
</g>
<!-- Node1&#45;&gt;Node10 -->
<g id="edge9_Node000001_Node000010" class="edge">
<title>Node1&#45;&gt;Node10</title>
<g id="a_edge9_Node000001_Node000010"><a xlink:title=" ">
<path fill="none" stroke="#63b8ff" d="M708.4,-437.3C718.37,-485.75 743.37,-588.83 788.25,-665 812.76,-706.6 824.72,-714.01 861.75,-745 928.48,-800.85 943.45,-825.7 1027,-850 1085.9,-867.13 1156.69,-850.85 1201.12,-836.4"/>
<polygon fill="#63b8ff" stroke="#63b8ff" points="711.87,-436.81 706.48,-427.69 705.01,-438.18 711.87,-436.81"/>
</a>
</g>
</g>
<!-- Node12 -->
<g id="Node000012" class="node">
<title>Node12</title>
<g id="a_Node000012"><a xlink:href="class_cpl_1_1_dm_1_1_mp_1_1_numeric_array__.html" target="_top" xlink:title=" ">
<polygon fill="white" stroke="#666666" points="1323.5,-766 1167.25,-766 1167.25,-734 1323.5,-734 1323.5,-766"/>
<text text-anchor="start" x="1175.25" y="-752.5" font-family="Helvetica,sans-Serif" font-size="10.00">Cpl::Dm::Mp::NumericArray</text>
<text text-anchor="middle" x="1245.38" y="-740.5" font-family="Helvetica,sans-Serif" font-size="10.00">_&lt; int64_t, N, ArrayInt64&lt; N &gt; &gt;</text>
</a>
</g>
</g>
<!-- Node1&#45;&gt;Node12 -->
<g id="edge11_Node000001_Node000012" class="edge">
<title>Node1&#45;&gt;Node12</title>
<g id="a_edge11_Node000001_Node000012"><a xlink:title=" ">
<path fill="none" stroke="#63b8ff" d="M709.62,-437.3C720.56,-480.17 745.91,-564.62 788.25,-625 813.29,-660.7 825.92,-665.14 861.75,-690 930.11,-737.44 946.27,-757.84 1027,-778 1077.13,-790.52 1092.05,-784.96 1143.25,-778 1160.49,-775.66 1178.94,-771.17 1195.3,-766.46"/>
<polygon fill="#63b8ff" stroke="#63b8ff" points="713.08,-436.7 707.28,-427.83 706.29,-438.38 713.08,-436.7"/>
</a>
</g>
</g>
<!-- Node14 -->
<g id="Node000014" class="node">
<title>Node14</title>
<g id="a_Node000014"><a xlink:href="class_cpl_1_1_dm_1_1_mp_1_1_numeric_array__.html" target="_top" xlink:title=" ">
<polygon fill="white" stroke="#666666" points="1318.25,-603 1172.5,-603 1172.5,-571 1318.25,-571 1318.25,-603"/>
<text text-anchor="start" x="1180.5" y="-589.5" font-family="Helvetica,sans-Serif" font-size="10.00">Cpl::Dm::Mp::NumericArray</text>
<text text-anchor="middle" x="1245.38" y="-577.5" font-family="Helvetica,sans-Serif" font-size="10.00">_&lt; int8_t, N, ArrayInt8&lt; N &gt; &gt;</text>
</a>
</g>
</g>
<!-- Node1&#45;&gt;Node14 -->
<g id="edge13_Node000001_Node000014" class="edge">
<title>Node1&#45;&gt;Node14</title>
<g id="a_edge13_Node000001_Node000014"><a xlink:title=" ">
<path fill="none" stroke="#63b8ff" d="M756.48,-430.28C766.95,-434.02 777.9,-437.77 788.25,-441 866.09,-465.33 1073.6,-491.58 1143.25,-534 1153.46,-540.22 1151.43,-547.17 1161.25,-554 1170.68,-560.56 1181.61,-566.09 1192.37,-570.63"/>
<polygon fill="#63b8ff" stroke="#63b8ff" points="757.81,-427.03 747.21,-426.91 755.42,-433.61 757.81,-427.03"/>
</a>
</g>
</g>
<!-- Node16 -->
<g id="Node000016" class="node">
<title>Node16</title>
<g id="a_Node000016"><a xlink:href="class_cpl_1_1_dm_1_1_mp_1_1_numeric_array__.html" target="_top" xlink:title=" ">
<polygon fill="white" stroke="#666666" points="1329.5,-668 1161.25,-668 1161.25,-636 1329.5,-636 1329.5,-668"/>
<text text-anchor="start" x="1169.25" y="-654.5" font-family="Helvetica,sans-Serif" font-size="10.00">Cpl::Dm::Mp::NumericArray</text>
<text text-anchor="middle" x="1245.38" y="-642.5" font-family="Helvetica,sans-Serif" font-size="10.00">_&lt; uint32_t, N, ArrayUint32&lt; N &gt; &gt;</text>
</a>
</g>
</g>
<!-- Node1&#45;&gt;Node16 -->
<g id="edge15_Node000001_Node000016" class="edge">
<title>Node1&#45;&gt;Node16</title>
<g id="a_edge15_Node000001_Node000016"><a xlink:title=" ">
<path fill="none" stroke="#63b8ff" d="M737.53,-432.5C752.77,-442.1 771.11,-453.12 788.25,-462 890.85,-515.18 918.13,-526.25 1027,-565 1077.6,-583.01 1095.34,-573.73 1143.25,-598 1152.29,-602.58 1152.64,-606.66 1161.25,-612 1175.27,-620.69 1191.47,-628.86 1205.82,-635.53"/>
<polygon fill="#63b8ff" stroke="#63b8ff" points="739.59,-429.67 729.28,-427.24 735.83,-435.57 739.59,-429.67"/>
</a>
</g>
</g>
<!-- Node18 -->
<g id="Node000018" class="node">
<title>Node18</title>
<g id="a_Node000018"><a xlink:href="class_cpl_1_1_dm_1_1_mp_1_1_numeric_array__.html" target="_top" xlink:title=" ">
<polygon fill="white" stroke="#666666" points="1329.5,-545 1161.25,-545 1161.25,-513 1329.5,-513 1329.5,-545"/>
<text text-anchor="start" x="1169.25" y="-531.5" font-family="Helvetica,sans-Serif" font-size="10.00">Cpl::Dm::Mp::NumericArray</text>
<text text-anchor="middle" x="1245.38" y="-519.5" font-family="Helvetica,sans-Serif" font-size="10.00">_&lt; uint64_t, N, ArrayUint64&lt; N &gt; &gt;</text>
</a>
</g>
</g>
<!-- Node1&#45;&gt;Node18 -->
<g id="edge17_Node000001_Node000018" class="edge">
<title>Node1&#45;&gt;Node18</title>
<g id="a_edge17_Node000001_Node000018"><a xlink:title=" ">
<path fill="none" stroke="#63b8ff" d="M781.65,-424.11C783.87,-424.42 786.08,-424.72 788.25,-425 866.75,-435.11 1069.17,-426.13 1143.25,-454 1152.25,-457.39 1196.67,-491.57 1223.56,-512.6"/>
<polygon fill="#63b8ff" stroke="#63b8ff" points="782.34,-420.68 771.94,-422.67 781.32,-427.6 782.34,-420.68"/>
</a>
</g>
</g>
<!-- Node20 -->
<g id="Node000020" class="node">
<title>Node20</title>
<g id="a_Node000020"><a xlink:href="class_cpl_1_1_dm_1_1_mp_1_1_numeric_array__.html" target="_top" xlink:title=" ">
<polygon fill="white" stroke="#666666" points="1324.25,-455 1166.5,-455 1166.5,-423 1324.25,-423 1324.25,-455"/>
<text text-anchor="start" x="1174.5" y="-441.5" font-family="Helvetica,sans-Serif" font-size="10.00">Cpl::Dm::Mp::NumericArray</text>
<text text-anchor="middle" x="1245.38" y="-429.5" font-family="Helvetica,sans-Serif" font-size="10.00">_&lt; uint8_t, N, ArrayUint8&lt; N &gt; &gt;</text>
</a>
</g>
</g>
<!-- Node1&#45;&gt;Node20 -->
<g id="edge19_Node000001_Node000020" class="edge">
<title>Node1&#45;&gt;Node20</title>
<g id="a_edge19_Node000001_Node000020"><a xlink:title=" ">
<path fill="none" stroke="#63b8ff" d="M782,-409.77C870.17,-410.15 1017.22,-412.69 1143.25,-424 1150.67,-424.67 1158.38,-425.52 1166.09,-426.48"/>
<polygon fill="#63b8ff" stroke="#63b8ff" points="782.01,-406.27 772,-409.74 781.99,-413.27 782.01,-406.27"/>
</a>
</g>
</g>
<!-- Node22 -->
<g id="Node000022" class="node">
<title>Node22</title>
<g id="a_Node000022"><a xlink:href="class_cpl_1_1_dm_1_1_mp_1_1_numeric_array__.html" target="_top" xlink:title="This mostly concrete template class implements an &#39;numeric Array&#39; Model Point with an element size of...">
<polygon fill="white" stroke="#666666" points="1009,-681 861.75,-681 861.75,-637 1009,-637 1009,-681"/>
<text text-anchor="start" x="869.75" y="-667.5" font-family="Helvetica,sans-Serif" font-size="10.00">Cpl::Dm::Mp::NumericArray</text>
<text text-anchor="start" x="869.75" y="-655.5" font-family="Helvetica,sans-Serif" font-size="10.00">_&lt; ELEMTYPE, NUMELEMS,</text>
<text text-anchor="middle" x="935.38" y="-643.5" font-family="Helvetica,sans-Serif" font-size="10.00"> MPTYPE &gt;</text>
</a>
</g>
</g>
<!-- Node1&#45;&gt;Node22 -->
<g id="edge21_Node000001_Node000022" class="edge">
<title>Node1&#45;&gt;Node22</title>
<g id="a_edge21_Node000001_Node000022"><a xlink:title=" ">
<path fill="none" stroke="#63b8ff" d="M709.52,-437.45C719.76,-476.65 743.57,-548.79 788.25,-593 808.43,-612.97 835.73,-627.5 861.27,-637.76"/>
<polygon fill="#63b8ff" stroke="#63b8ff" points="712.95,-436.74 707.14,-427.88 706.16,-438.43 712.95,-436.74"/>
</a>
</g>
</g>
<!-- Node23 -->
<g id="Node000023" class="node">
<title>Node23</title>
<g id="a_Node000023"><a xlink:href="class_cpl_1_1_dm_1_1_mp_1_1_numeric_array_base__.html" target="_top" xlink:title=" ">
<polygon fill="white" stroke="#666666" points="1003.38,-382 867.38,-382 867.38,-350 1003.38,-350 1003.38,-382"/>
<text text-anchor="start" x="875.38" y="-368.5" font-family="Helvetica,sans-Serif" font-size="10.00">Cpl::Dm::Mp::NumericArray</text>
<text text-anchor="middle" x="935.38" y="-356.5" font-family="Helvetica,sans-Serif" font-size="10.00">Base_&lt; double &gt;</text>
</a>
</g>
</g>
<!-- Node1&#45;&gt;Node23 -->
<g id="edge30_Node000001_Node000023" class="edge">
<title>Node1&#45;&gt;Node23</title>
<g id="a_edge30_Node000001_Node000023"><a xlink:title=" ">
<path fill="none" stroke="orange" stroke-dasharray="5,2" d="M762.85,-390.34C771.31,-387.97 779.96,-385.76 788.25,-384 813.75,-378.57 842.13,-374.61 867.04,-371.81"/>
<polygon fill="orange" stroke="orange" points="761.94,-386.96 753.31,-393.12 763.89,-393.68 761.94,-386.96"/>
</a>
</g>
<text text-anchor="middle" x="816" y="-386.5" font-family="Helvetica,sans-Serif" font-size="10.00" fill="grey"> &lt; double &gt;</text>
</g>
<!-- Node24 -->
<g id="Node000024" class="node">
<title>Node24</title>
<g id="a_Node000024"><a xlink:href="class_cpl_1_1_dm_1_1_mp_1_1_numeric_array_base__.html" target="_top" xlink:title=" ">
<polygon fill="white" stroke="#666666" points="1003.38,-332 867.38,-332 867.38,-300 1003.38,-300 1003.38,-332"/>
<text text-anchor="start" x="875.38" y="-318.5" font-family="Helvetica,sans-Serif" font-size="10.00">Cpl::Dm::Mp::NumericArray</text>
<text text-anchor="middle" x="935.38" y="-306.5" font-family="Helvetica,sans-Serif" font-size="10.00">Base_&lt; float &gt;</text>
</a>
</g>
</g>
<!-- Node1&#45;&gt;Node24 -->
<g id="edge31_Node000001_Node000024" class="edge">
<title>Node1&#45;&gt;Node24</title>
<g id="a_edge31_Node000001_Node000024"><a xlink:title=" ">
<path fill="none" stroke="orange" stroke-dasharray="5,2" d="M736.84,-387.72C752.09,-378.28 770.62,-367.71 788.25,-360 813.5,-348.96 842.35,-339.63 867.71,-332.44"/>
<polygon fill="orange" stroke="orange" points="735.21,-384.62 728.62,-392.91 738.95,-390.53 735.21,-384.62"/>
</a>
</g>
<text text-anchor="middle" x="816" y="-362.5" font-family="Helvetica,sans-Serif" font-size="10.00" fill="grey"> &lt; float &gt;</text>
</g>
<!-- Node25 -->
<g id="Node000025" class="node">
<title>Node25</title>
<g id="a_Node000025"><a xlink:href="class_cpl_1_1_dm_1_1_mp_1_1_numeric_array_base__.html" target="_top" xlink:title=" ">
<polygon fill="white" stroke="#666666" points="1003.38,-282 867.38,-282 867.38,-250 1003.38,-250 1003.38,-282"/>
<text text-anchor="start" x="875.38" y="-268.5" font-family="Helvetica,sans-Serif" font-size="10.00">Cpl::Dm::Mp::NumericArray</text>
<text text-anchor="middle" x="935.38" y="-256.5" font-family="Helvetica,sans-Serif" font-size="10.00">Base_&lt; int32_t &gt;</text>
</a>
</g>
</g>
<!-- Node1&#45;&gt;Node25 -->
<g id="edge32_Node000001_Node000025" class="edge">
<title>Node1&#45;&gt;Node25</title>
<g id="a_edge32_Node000001_Node000025"><a xlink:title=" ">
<path fill="none" stroke="orange" stroke-dasharray="5,2" d="M723.44,-385.06C739.5,-366.42 763.35,-341.28 788.25,-324 817.67,-303.59 828.45,-304.17 861.75,-291 869.07,-288.11 876.87,-285.22 884.54,-282.49"/>
<polygon fill="orange" stroke="orange" points="720.96,-382.57 717.18,-392.47 726.31,-387.09 720.96,-382.57"/>
</a>
</g>
<text text-anchor="middle" x="816" y="-326.5" font-family="Helvetica,sans-Serif" font-size="10.00" fill="grey"> &lt; int32_t &gt;</text>
</g>
<!-- Node26 -->
<g id="Node000026" class="node">
<title>Node26</title>
<g id="a_Node000026"><a xlink:href="class_cpl_1_1_dm_1_1_mp_1_1_numeric_array_base__.html" target="_top" xlink:title=" ">
<polygon fill="white" stroke="#666666" points="1003.38,-232 867.38,-232 867.38,-200 1003.38,-200 1003.38,-232"/>
<text text-anchor="start" x="875.38" y="-218.5" font-family="Helvetica,sans-Serif" font-size="10.00">Cpl::Dm::Mp::NumericArray</text>
<text text-anchor="middle" x="935.38" y="-206.5" font-family="Helvetica,sans-Serif" font-size="10.00">Base_&lt; int64_t &gt;</text>
</a>
</g>
</g>
<!-- Node1&#45;&gt;Node26 -->
<g id="edge33_Node000001_Node000026" class="edge">
<title>Node1&#45;&gt;Node26</title>
<g id="a_edge33_Node000001_Node000026"><a xlink:title=" ">
<path fill="none" stroke="orange" stroke-dasharray="5,2" d="M716.14,-383.73C730.7,-356.08 756.55,-312.54 788.25,-283 813.47,-259.5 848.36,-243.09 877.73,-232.38"/>
<polygon fill="orange" stroke="orange" points="713.1,-381.99 711.64,-392.49 719.32,-385.19 713.1,-381.99"/>
</a>
</g>
<text text-anchor="middle" x="816" y="-285.5" font-family="Helvetica,sans-Serif" font-size="10.00" fill="grey"> &lt; int64_t &gt;</text>
</g>
<!-- Node27 -->
<g id="Node000027" class="node">
<title>Node27</title>
<g id="a_Node000027"><a xlink:href="class_cpl_1_1_dm_1_1_mp_1_1_numeric_array_base__.html" target="_top" xlink:title=" ">
<polygon fill="white" stroke="#666666" points="1003.38,-182 867.38,-182 867.38,-150 1003.38,-150 1003.38,-182"/>
<text text-anchor="start" x="875.38" y="-168.5" font-family="Helvetica,sans-Serif" font-size="10.00">Cpl::Dm::Mp::NumericArray</text>
<text text-anchor="middle" x="935.38" y="-156.5" font-family="Helvetica,sans-Serif" font-size="10.00">Base_&lt; int8_t &gt;</text>
</a>
</g>
</g>
<!-- Node1&#45;&gt;Node27 -->
<g id="edge34_Node000001_Node000027" class="edge">
<title>Node1&#45;&gt;Node27</title>
<g id="a_edge34_Node000001_Node000027"><a xlink:title=" ">
<path fill="none" stroke="orange" stroke-dasharray="5,2" d="M710.48,-382.92C721.71,-345.2 746.51,-276.47 788.25,-232 810.44,-208.35 842.7,-192.56 871.26,-182.37"/>
<polygon fill="orange" stroke="orange" points="707.24,-381.54 707.84,-392.12 713.97,-383.47 707.24,-381.54"/>
</a>
</g>
<text text-anchor="middle" x="816" y="-234.5" font-family="Helvetica,sans-Serif" font-size="10.00" fill="grey"> &lt; int8_t &gt;</text>
</g>
<!-- Node28 -->
<g id="Node000028" class="node">
<title>Node28</title>
<g id="a_Node000028"><a xlink:href="class_cpl_1_1_dm_1_1_mp_1_1_numeric_array_base__.html" target="_top" xlink:title=" ">
<polygon fill="white" stroke="#666666" points="1003.38,-132 867.38,-132 867.38,-100 1003.38,-100 1003.38,-132"/>
<text text-anchor="start" x="875.38" y="-118.5" font-family="Helvetica,sans-Serif" font-size="10.00">Cpl::Dm::Mp::NumericArray</text>
<text text-anchor="middle" x="935.38" y="-106.5" font-family="Helvetica,sans-Serif" font-size="10.00">Base_&lt; uint32_t &gt;</text>
</a>
</g>
</g>
<!-- Node1&#45;&gt;Node28 -->
<g id="edge35_Node000001_Node000028" class="edge">
<title>Node1&#45;&gt;Node28</title>
<g id="a_edge35_Node000001_Node000028"><a xlink:title=" ">
<path fill="none" stroke="orange" stroke-dasharray="5,2" d="M706.84,-382.31C714.23,-335.3 735.17,-239.15 788.25,-179 808.72,-155.8 839.25,-140.84 867.12,-131.36"/>
<polygon fill="orange" stroke="orange" points="703.38,-381.77 705.39,-392.17 710.3,-382.79 703.38,-381.77"/>
</a>
</g>
<text text-anchor="middle" x="816" y="-181.5" font-family="Helvetica,sans-Serif" font-size="10.00" fill="grey"> &lt; uint32_t &gt;</text>
</g>
<!-- Node29 -->
<g id="Node000029" class="node">
<title>Node29</title>
<g id="a_Node000029"><a xlink:href="class_cpl_1_1_dm_1_1_mp_1_1_numeric_array_base__.html" target="_top" xlink:title=" ">
<polygon fill="white" stroke="#666666" points="1003.38,-82 867.38,-82 867.38,-50 1003.38,-50 1003.38,-82"/>
<text text-anchor="start" x="875.38" y="-68.5" font-family="Helvetica,sans-Serif" font-size="10.00">Cpl::Dm::Mp::NumericArray</text>
<text text-anchor="middle" x="935.38" y="-56.5" font-family="Helvetica,sans-Serif" font-size="10.00">Base_&lt; uint64_t &gt;</text>
</a>
</g>
</g>
<!-- Node1&#45;&gt;Node29 -->
<g id="edge36_Node000001_Node000029" class="edge">
<title>Node1&#45;&gt;Node29</title>
<g id="a_edge36_Node000001_Node000029"><a xlink:title=" ">
<path fill="none" stroke="orange" stroke-dasharray="5,2" d="M704.39,-382.64C708.05,-327.85 723.46,-203.37 788.25,-127 808.26,-103.42 838.9,-88.78 866.97,-79.78"/>
<polygon fill="orange" stroke="orange" points="700.92,-382.13 703.83,-392.32 707.9,-382.54 700.92,-382.13"/>
</a>
</g>
<text text-anchor="middle" x="816" y="-129.5" font-family="Helvetica,sans-Serif" font-size="10.00" fill="grey"> &lt; uint64_t &gt;</text>
</g>
<!-- Node30 -->
<g id="Node000030" class="node">
<title>Node30</title>
<g id="a_Node000030"><a xlink:href="class_cpl_1_1_dm_1_1_mp_1_1_numeric_array_base__.html" target="_top" xlink:title=" ">
<polygon fill="white" stroke="#666666" points="1003.38,-32 867.38,-32 867.38,0 1003.38,0 1003.38,-32"/>
<text text-anchor="start" x="875.38" y="-18.5" font-family="Helvetica,sans-Serif" font-size="10.00">Cpl::Dm::Mp::NumericArray</text>
<text text-anchor="middle" x="935.38" y="-6.5" font-family="Helvetica,sans-Serif" font-size="10.00">Base_&lt; uint8_t &gt;</text>
</a>
</g>
</g>
<!-- Node1&#45;&gt;Node30 -->
<g id="edge37_Node000001_Node000030" class="edge">
<title>Node1&#45;&gt;Node30</title>
<g id="a_edge37_Node000001_Node000030"><a xlink:title=" ">
<path fill="none" stroke="orange" stroke-dasharray="5,2" d="M702.67,-382.32C702.82,-320.1 711.52,-167.4 788.25,-75 808,-51.22 838.79,-36.93 867.02,-28.4"/>
<polygon fill="orange" stroke="orange" points="699.16,-382.02 702.72,-392 706.16,-381.98 699.16,-382.02"/>
</a>
</g>
<text text-anchor="middle" x="816" y="-77.5" font-family="Helvetica,sans-Serif" font-size="10.00" fill="grey"> &lt; uint8_t &gt;</text>
</g>
<!-- Node2 -->
<g id="Node000002" class="node">
<title>Node2</title>
<g id="a_Node000002"><a xlink:href="class_cpl_1_1_dm_1_1_mp_1_1_array_base__.html" target="_top" xlink:title="This a mostly concrete class provides &#39;common&#39; implementation for a Model Point who&#39;s data is a array...">
<polygon fill="white" stroke="#666666" points="597.25,-420 469.5,-420 469.5,-400 597.25,-400 597.25,-420"/>
<text text-anchor="middle" x="533.38" y="-406.5" font-family="Helvetica,sans-Serif" font-size="10.00">Cpl::Dm::Mp::ArrayBase_</text>
</a>
</g>
</g>
<!-- Node2&#45;&gt;Node1 -->
<g id="edge1_Node000001_Node000002" class="edge">
<title>Node2&#45;&gt;Node1</title>
<g id="a_edge1_Node000001_Node000002"><a xlink:title=" ">
<path fill="none" stroke="#63b8ff" d="M608.77,-410C617.13,-410 625.62,-410 633.9,-410"/>
<polygon fill="#63b8ff" stroke="#63b8ff" points="608.98,-406.5 598.98,-410 608.98,-413.5 608.98,-406.5"/>
</a>
</g>
</g>
<!-- Node3 -->
<g id="Node000003" class="node">
<title>Node3</title>
<g id="a_Node000003"><a xlink:href="class_cpl_1_1_dm_1_1_model_point_common__.html" target="_top" xlink:title="This concrete class provide common infrastructure for a Model Point.">
<polygon fill="white" stroke="#666666" points="432.5,-420 282.25,-420 282.25,-400 432.5,-400 432.5,-420"/>
<text text-anchor="middle" x="357.38" y="-406.5" font-family="Helvetica,sans-Serif" font-size="10.00">Cpl::Dm::ModelPointCommon_</text>
</a>
</g>
</g>
<!-- Node3&#45;&gt;Node2 -->
<g id="edge2_Node000002_Node000003" class="edge">
<title>Node3&#45;&gt;Node2</title>
<g id="a_edge2_Node000002_Node000003"><a xlink:title=" ">
<path fill="none" stroke="#63b8ff" d="M444.32,-410C452.7,-410 461.1,-410 469.2,-410"/>
<polygon fill="#63b8ff" stroke="#63b8ff" points="444.44,-406.5 434.44,-410 444.44,-413.5 444.44,-406.5"/>
</a>
</g>
</g>
<!-- Node4 -->
<g id="Node000004" class="node">
<title>Node4</title>
<g id="a_Node000004"><a xlink:href="class_cpl_1_1_dm_1_1_model_point.html" target="_top" xlink:title="This mostly abstract class defines the interface for a Model Point.">
<polygon fill="white" stroke="#666666" points="245.25,-420 139.25,-420 139.25,-400 245.25,-400 245.25,-420"/>
<text text-anchor="middle" x="192.25" y="-406.5" font-family="Helvetica,sans-Serif" font-size="10.00">Cpl::Dm::ModelPoint</text>
</a>
</g>
</g>
<!-- Node4&#45;&gt;Node3 -->
<g id="edge3_Node000003_Node000004" class="edge">
<title>Node4&#45;&gt;Node3</title>
<g id="a_edge3_Node000003_Node000004"><a xlink:title=" ">
<path fill="none" stroke="#63b8ff" d="M256.76,-410C265.01,-410 273.51,-410 281.92,-410"/>
<polygon fill="#63b8ff" stroke="#63b8ff" points="256.83,-406.5 246.83,-410 256.83,-413.5 256.83,-406.5"/>
</a>
</g>
</g>
<!-- Node5 -->
<g id="Node000005" class="node">
<title>Node5</title>
<g id="a_Node000005"><a xlink:href="class_cpl_1_1_container_1_1_item.html" target="_top" xlink:title="This class is used by the Container classes to implement a various types of singly linked containers.">
<polygon fill="white" stroke="#666666" points="102.25,-420 0,-420 0,-400 102.25,-400 102.25,-420"/>
<text text-anchor="middle" x="51.12" y="-406.5" font-family="Helvetica,sans-Serif" font-size="10.00">Cpl::Container::Item</text>
</a>
</g>
</g>
<!-- Node5&#45;&gt;Node4 -->
<g id="edge4_Node000004_Node000005" class="edge">
<title>Node5&#45;&gt;Node4</title>
<g id="a_edge4_Node000004_Node000005"><a xlink:title=" ">
<path fill="none" stroke="#63b8ff" d="M114,-410C122.36,-410 130.86,-410 139.03,-410"/>
<polygon fill="#63b8ff" stroke="#63b8ff" points="114.26,-406.5 104.26,-410 114.26,-413.5 114.26,-406.5"/>
</a>
</g>
</g>
<!-- Node7 -->
<g id="Node000007" class="node">
<title>Node7</title>
<g id="a_Node000007"><a xlink:href="class_cpl_1_1_dm_1_1_mp_1_1_array_double.html" target="_top" xlink:title="double Array">
<polygon fill="white" stroke="#666666" points="1521.25,-945 1366.5,-945 1366.5,-925 1521.25,-925 1521.25,-945"/>
<text text-anchor="middle" x="1443.88" y="-931.5" font-family="Helvetica,sans-Serif" font-size="10.00">Cpl::Dm::Mp::ArrayDouble&lt; N &gt;</text>
</a>
</g>
</g>
<!-- Node6&#45;&gt;Node7 -->
<g id="edge6_Node000006_Node000007" class="edge">
<title>Node6&#45;&gt;Node7</title>
<g id="a_edge6_Node000006_Node000007"><a xlink:title=" ">
<path fill="none" stroke="#63b8ff" d="M1339.35,-935C1348.35,-935 1357.41,-935 1366.23,-935"/>
<polygon fill="#63b8ff" stroke="#63b8ff" points="1339.52,-931.5 1329.52,-935 1339.52,-938.5 1339.52,-931.5"/>
</a>
</g>
</g>
<!-- Node9 -->
<g id="Node000009" class="node">
<title>Node9</title>
<g id="a_Node000009"><a xlink:href="class_cpl_1_1_dm_1_1_mp_1_1_array_float.html" target="_top" xlink:title="float Array">
<polygon fill="white" stroke="#666666" points="1517.12,-890 1370.62,-890 1370.62,-870 1517.12,-870 1517.12,-890"/>
<text text-anchor="middle" x="1443.88" y="-876.5" font-family="Helvetica,sans-Serif" font-size="10.00">Cpl::Dm::Mp::ArrayFloat&lt; N &gt;</text>
</a>
</g>
</g>
<!-- Node8&#45;&gt;Node9 -->
<g id="edge8_Node000008_Node000009" class="edge">
<title>Node8&#45;&gt;Node9</title>
<g id="a_edge8_Node000008_Node000009"><a xlink:title=" ">
<path fill="none" stroke="#63b8ff" d="M1329.9,-880C1343.36,-880 1357.2,-880 1370.37,-880"/>
<polygon fill="#63b8ff" stroke="#63b8ff" points="1330.22,-876.5 1320.22,-880 1330.22,-883.5 1330.22,-876.5"/>
</a>
</g>
</g>
<!-- Node11 -->
<g id="Node000011" class="node">
<title>Node11</title>
<g id="a_Node000011"><a xlink:href="class_cpl_1_1_dm_1_1_mp_1_1_array_int32.html" target="_top" xlink:title="int32_t Array">
<polygon fill="white" stroke="#666666" points="1516.75,-830 1371,-830 1371,-810 1516.75,-810 1516.75,-830"/>
<text text-anchor="middle" x="1443.88" y="-816.5" font-family="Helvetica,sans-Serif" font-size="10.00">Cpl::Dm::Mp::ArrayInt32&lt; N &gt;</text>
</a>
</g>
</g>
<!-- Node10&#45;&gt;Node11 -->
<g id="edge10_Node000010_Node000011" class="edge">
<title>Node10&#45;&gt;Node11</title>
<g id="a_edge10_Node000010_Node000011"><a xlink:title=" ">
<path fill="none" stroke="#63b8ff" d="M1335.1,-820C1347.01,-820 1359.11,-820 1370.69,-820"/>
<polygon fill="#63b8ff" stroke="#63b8ff" points="1335.27,-816.5 1325.27,-820 1335.27,-823.5 1335.27,-816.5"/>
</a>
</g>
</g>
<!-- Node13 -->
<g id="Node000013" class="node">
<title>Node13</title>
<g id="a_Node000013"><a xlink:href="class_cpl_1_1_dm_1_1_mp_1_1_array_int64.html" target="_top" xlink:title="int64_t Array">
<polygon fill="white" stroke="#666666" points="1516.75,-760 1371,-760 1371,-740 1516.75,-740 1516.75,-760"/>
<text text-anchor="middle" x="1443.88" y="-746.5" font-family="Helvetica,sans-Serif" font-size="10.00">Cpl::Dm::Mp::ArrayInt64&lt; N &gt;</text>
</a>
</g>
</g>
<!-- Node12&#45;&gt;Node13 -->
<g id="edge12_Node000012_Node000013" class="edge">
<title>Node12&#45;&gt;Node13</title>
<g id="a_edge12_Node000012_Node000013"><a xlink:title=" ">
<path fill="none" stroke="#63b8ff" d="M1335.1,-750C1347.01,-750 1359.11,-750 1370.69,-750"/>
<polygon fill="#63b8ff" stroke="#63b8ff" points="1335.27,-746.5 1325.27,-750 1335.27,-753.5 1335.27,-746.5"/>
</a>
</g>
</g>
<!-- Node15 -->
<g id="Node000015" class="node">
<title>Node15</title>
<g id="a_Node000015"><a xlink:href="class_cpl_1_1_dm_1_1_mp_1_1_array_int8.html" target="_top" xlink:title="int8_t Array">
<polygon fill="white" stroke="#666666" points="1514.12,-597 1373.62,-597 1373.62,-577 1514.12,-577 1514.12,-597"/>
<text text-anchor="middle" x="1443.88" y="-583.5" font-family="Helvetica,sans-Serif" font-size="10.00">Cpl::Dm::Mp::ArrayInt8&lt; N &gt;</text>
</a>
</g>
</g>
<!-- Node14&#45;&gt;Node15 -->
<g id="edge14_Node000014_Node000015" class="edge">
<title>Node14&#45;&gt;Node15</title>
<g id="a_edge14_Node000014_Node000015"><a xlink:title=" ">
<path fill="none" stroke="#63b8ff" d="M1330.13,-587C1344.53,-587 1359.34,-587 1373.31,-587"/>
<polygon fill="#63b8ff" stroke="#63b8ff" points="1330.22,-583.5 1320.22,-587 1330.22,-590.5 1330.22,-583.5"/>
</a>
</g>
</g>
<!-- Node17 -->
<g id="Node000017" class="node">
<title>Node17</title>
<g id="a_Node000017"><a xlink:href="class_cpl_1_1_dm_1_1_mp_1_1_array_uint32.html" target="_top" xlink:title="uint32_t Array">
<polygon fill="white" stroke="#666666" points="1520.12,-662 1367.62,-662 1367.62,-642 1520.12,-642 1520.12,-662"/>
<text text-anchor="middle" x="1443.88" y="-648.5" font-family="Helvetica,sans-Serif" font-size="10.00">Cpl::Dm::Mp::ArrayUint32&lt; N &gt;</text>
</a>
</g>
</g>
<!-- Node16&#45;&gt;Node17 -->
<g id="edge16_Node000016_Node000017" class="edge">
<title>Node16&#45;&gt;Node17</title>
<g id="a_edge16_Node000016_Node000017"><a xlink:title=" ">
<path fill="none" stroke="#63b8ff" d="M1341.42,-652C1350.15,-652 1358.91,-652 1367.42,-652"/>
<polygon fill="#63b8ff" stroke="#63b8ff" points="1341.51,-648.5 1331.51,-652 1341.51,-655.5 1341.51,-648.5"/>
</a>
</g>
</g>
<!-- Node19 -->
<g id="Node000019" class="node">
<title>Node19</title>
<g id="a_Node000019"><a xlink:href="class_cpl_1_1_dm_1_1_mp_1_1_array_uint64.html" target="_top" xlink:title="uint64_t Array">
<polygon fill="white" stroke="#666666" points="1520.12,-539 1367.62,-539 1367.62,-519 1520.12,-519 1520.12,-539"/>
<text text-anchor="middle" x="1443.88" y="-525.5" font-family="Helvetica,sans-Serif" font-size="10.00">Cpl::Dm::Mp::ArrayUint64&lt; N &gt;</text>
</a>
</g>
</g>
<!-- Node18&#45;&gt;Node19 -->
<g id="edge18_Node000018_Node000019" class="edge">
<title>Node18&#45;&gt;Node19</title>
<g id="a_edge18_Node000018_Node000019"><a xlink:title=" ">
<path fill="none" stroke="#63b8ff" d="M1341.42,-529C1350.15,-529 1358.91,-529 1367.42,-529"/>
<polygon fill="#63b8ff" stroke="#63b8ff" points="1341.51,-525.5 1331.51,-529 1341.51,-532.5 1341.51,-525.5"/>
</a>
</g>
</g>
<!-- Node21 -->
<g id="Node000021" class="node">
<title>Node21</title>
<g id="a_Node000021"><a xlink:href="class_cpl_1_1_dm_1_1_mp_1_1_array_uint8.html" target="_top" xlink:title="uint8_t Array">
<polygon fill="white" stroke="#666666" points="1517.5,-449 1370.25,-449 1370.25,-429 1517.5,-429 1517.5,-449"/>
<text text-anchor="middle" x="1443.88" y="-435.5" font-family="Helvetica,sans-Serif" font-size="10.00">Cpl::Dm::Mp::ArrayUint8&lt; N &gt;</text>
</a>
</g>
</g>
<!-- Node20&#45;&gt;Node21 -->
<g id="edge20_Node000020_Node000021" class="edge">
<title>Node20&#45;&gt;Node21</title>
<g id="a_edge20_Node000020_Node000021"><a xlink:title=" ">
<path fill="none" stroke="#63b8ff" d="M1335.94,-439C1347.35,-439 1358.92,-439 1370.02,-439"/>
<polygon fill="#63b8ff" stroke="#63b8ff" points="1336.12,-435.5 1326.12,-439 1336.12,-442.5 1336.12,-435.5"/>
</a>
</g>
</g>
<!-- Node22&#45;&gt;Node6 -->
<g id="edge22_Node000022_Node000006" class="edge">
<title>Node22&#45;&gt;Node6</title>
<g id="a_edge22_Node000022_Node000006"><a xlink:title=" ">
<path fill="none" stroke="orange" stroke-dasharray="5,2" d="M941.16,-692.58C949.74,-740.18 972.25,-826.84 1027,-875 1064.33,-907.84 1118.12,-922.86 1162.85,-929.66"/>
<polygon fill="orange" stroke="orange" points="944.64,-692.13 939.52,-682.86 937.73,-693.3 944.64,-692.13"/>
</a>
</g>
<text text-anchor="start" x="1028.88" y="-939.5" font-family="Helvetica,sans-Serif" font-size="10.00" fill="grey"> &lt; double, N, ArrayDouble</text>
<text text-anchor="middle" x="1085.12" y="-927.5" font-family="Helvetica,sans-Serif" font-size="10.00" fill="grey">&lt; N &gt; &gt;</text>
</g>
<!-- Node22&#45;&gt;Node8 -->
<g id="edge23_Node000022_Node000008" class="edge">
<title>Node22&#45;&gt;Node8</title>
<g id="a_edge23_Node000022_Node000008"><a xlink:title=" ">
<path fill="none" stroke="orange" stroke-dasharray="5,2" d="M949.26,-691.61C963.65,-724.1 989.91,-773.32 1027,-803 1040.33,-813.66 1132.32,-844.28 1192.29,-863.54"/>
<polygon fill="orange" stroke="orange" points="952.59,-690.49 945.43,-682.67 946.15,-693.24 952.59,-690.49"/>
</a>
</g>
<text text-anchor="start" x="1038.25" y="-861.5" font-family="Helvetica,sans-Serif" font-size="10.00" fill="grey"> &lt; float, N, ArrayFloat</text>
<text text-anchor="middle" x="1085.12" y="-849.5" font-family="Helvetica,sans-Serif" font-size="10.00" fill="grey">&lt; N &gt; &gt;</text>
</g>
<!-- Node22&#45;&gt;Node10 -->
<g id="edge24_Node000022_Node000010" class="edge">
<title>Node22&#45;&gt;Node10</title>
<g id="a_edge24_Node000022_Node000010"><a xlink:title=" ">
<path fill="none" stroke="orange" stroke-dasharray="5,2" d="M968.64,-688.33C985.26,-702.44 1006.33,-718.89 1027,-731 1031.05,-733.37 1141.87,-778.43 1203.67,-803.5"/>
<polygon fill="orange" stroke="orange" points="971.38,-686.07 961.53,-682.18 966.81,-691.37 971.38,-686.07"/>
</a>
</g>
<text text-anchor="start" x="1033" y="-790.5" font-family="Helvetica,sans-Serif" font-size="10.00" fill="grey"> &lt; int32_t, N, ArrayInt32</text>
<text text-anchor="middle" x="1085.12" y="-778.5" font-family="Helvetica,sans-Serif" font-size="10.00" fill="grey">&lt; N &gt; &gt;</text>
</g>
<!-- Node22&#45;&gt;Node12 -->
<g id="edge25_Node000022_Node000012" class="edge">
<title>Node22&#45;&gt;Node12</title>
<g id="a_edge25_Node000022_Node000012"><a xlink:title=" ">
<path fill="none" stroke="orange" stroke-dasharray="5,2" d="M1020.5,-682.43C1022.69,-682.97 1024.86,-683.49 1027,-684 1078.25,-696.12 1092.91,-691.5 1143.25,-707 1166.41,-714.13 1191.47,-724.77 1210.86,-733.68"/>
<polygon fill="orange" stroke="orange" points="1021.48,-679.07 1010.93,-680.03 1019.77,-685.86 1021.48,-679.07"/>
</a>
</g>
<text text-anchor="start" x="1033" y="-721.5" font-family="Helvetica,sans-Serif" font-size="10.00" fill="grey"> &lt; int64_t, N, ArrayInt64</text>
<text text-anchor="middle" x="1085.12" y="-709.5" font-family="Helvetica,sans-Serif" font-size="10.00" fill="grey">&lt; N &gt; &gt;</text>
</g>
<!-- Node22&#45;&gt;Node14 -->
<g id="edge26_Node000022_Node000014" class="edge">
<title>Node22&#45;&gt;Node14</title>
<g id="a_edge26_Node000022_Node000014"><a xlink:title=" ">
<path fill="none" stroke="orange" stroke-dasharray="5,2" d="M1004.15,-632.9C1011.8,-630.38 1019.53,-628.01 1027,-626 1074.75,-613.12 1129.58,-603.32 1172.22,-596.76"/>
<polygon fill="orange" stroke="orange" points="1003.2,-629.52 994.86,-636.06 1005.46,-636.15 1003.2,-629.52"/>
</a>
</g>
<text text-anchor="start" x="1038.25" y="-640.5" font-family="Helvetica,sans-Serif" font-size="10.00" fill="grey"> &lt; int8_t, N, ArrayInt8</text>
<text text-anchor="middle" x="1085.12" y="-628.5" font-family="Helvetica,sans-Serif" font-size="10.00" fill="grey">&lt; N &gt; &gt;</text>
</g>
<!-- Node22&#45;&gt;Node16 -->
<g id="edge27_Node000022_Node000016" class="edge">
<title>Node22&#45;&gt;Node16</title>
<g id="a_edge27_Node000022_Node000016"><a xlink:title=" ">
<path fill="none" stroke="orange" stroke-dasharray="5,2" d="M1020.83,-657.08C1064.47,-656.09 1117.54,-654.88 1161.03,-653.89"/>
<polygon fill="orange" stroke="orange" points="1020.8,-653.58 1010.88,-657.31 1020.96,-660.58 1020.8,-653.58"/>
</a>
</g>
<text text-anchor="start" x="1027" y="-670.5" font-family="Helvetica,sans-Serif" font-size="10.00" fill="grey"> &lt; uint32_t, N, ArrayUint32</text>
<text text-anchor="middle" x="1085.12" y="-658.5" font-family="Helvetica,sans-Serif" font-size="10.00" fill="grey">&lt; N &gt; &gt;</text>
</g>
<!-- Node22&#45;&gt;Node18 -->
<g id="edge28_Node000022_Node000018" class="edge">
<title>Node22&#45;&gt;Node18</title>
<g id="a_edge28_Node000022_Node000018"><a xlink:title=" ">
<path fill="none" stroke="orange" stroke-dasharray="5,2" d="M961.42,-628.12C978.09,-609.62 1001.55,-587.21 1027,-574 1068.22,-552.61 1118.8,-541.38 1160.79,-535.49"/>
<polygon fill="orange" stroke="orange" points="958.98,-625.59 955.03,-635.42 964.25,-630.2 958.98,-625.59"/>
</a>
</g>
<text text-anchor="start" x="1027" y="-588.5" font-family="Helvetica,sans-Serif" font-size="10.00" fill="grey"> &lt; uint64_t, N, ArrayUint64</text>
<text text-anchor="middle" x="1085.12" y="-576.5" font-family="Helvetica,sans-Serif" font-size="10.00" fill="grey">&lt; N &gt; &gt;</text>
</g>
<!-- Node22&#45;&gt;Node20 -->
<g id="edge29_Node000022_Node000020" class="edge">
<title>Node22&#45;&gt;Node20</title>
<g id="a_edge29_Node000022_Node000020"><a xlink:title=" ">
<path fill="none" stroke="orange" stroke-dasharray="5,2" d="M948.28,-626.35C962.2,-592.59 988.35,-540.62 1027,-510 1066.99,-478.32 1121.6,-460.55 1166.08,-450.72"/>
<polygon fill="orange" stroke="orange" points="945.2,-624.63 944.76,-635.21 951.71,-627.22 945.2,-624.63"/>
</a>
</g>
<text text-anchor="start" x="1032.25" y="-524.5" font-family="Helvetica,sans-Serif" font-size="10.00" fill="grey"> &lt; uint8_t, N, ArrayUint8</text>
<text text-anchor="middle" x="1085.12" y="-512.5" font-family="Helvetica,sans-Serif" font-size="10.00" fill="grey">&lt; N &gt; &gt;</text>
</g>
</g>
</svg>
