<?xml version="1.0" encoding="UTF-8" standalone="no"?>
<!DOCTYPE svg PUBLIC "-//W3C//DTD SVG 1.1//EN"
 "http://www.w3.org/Graphics/SVG/1.1/DTD/svg11.dtd">
<!-- Generated by graphviz version 10.0.1 (20240210.2158)
 -->
<!-- Title: Cpl::System::Runnable Pages: 1 -->
<svg width="830pt" height="216pt"
 viewBox="0.00 0.00 829.75 216.00" xmlns="http://www.w3.org/2000/svg" xmlns:xlink="http://www.w3.org/1999/xlink">
<g id="graph0" class="graph" transform="scale(1 1) rotate(0) translate(4 212)">
<title>Cpl::System::Runnable</title>
<!-- Node1 -->
<g id="Node000001" class="node">
<title>Node1</title>
<g id="a_Node000001"><a xlink:title="This is an abstract class defines the interface for an object that is &quot;executed&quot; when a Thread object...">
<polygon fill="#999999" stroke="#666666" points="116.5,-89 0,-89 0,-69 116.5,-69 116.5,-89"/>
<text text-anchor="middle" x="58.25" y="-75.5" font-family="Helvetica,sans-Serif" font-size="10.00">Cpl::System::Runnable</text>
</a>
</g>
</g>
<!-- Node2 -->
<g id="Node000002" class="node">
<title>Node2</title>
<g id="a_Node000002"><a xlink:href="class_cpl_1_1_io_1_1_socket_1_1_listener.html" target="_top" xlink:title="This abstract class defines the interface for a SIMPLE socket listener.">
<polygon fill="white" stroke="#666666" points="291.5,-139 170.5,-139 170.5,-119 291.5,-119 291.5,-139"/>
<text text-anchor="middle" x="231" y="-125.5" font-family="Helvetica,sans-Serif" font-size="10.00">Cpl::Io::Socket::Listener</text>
</a>
</g>
</g>
<!-- Node1&#45;&gt;Node2 -->
<g id="edge1_Node000001_Node000002" class="edge">
<title>Node1&#45;&gt;Node2</title>
<g id="a_edge1_Node000001_Node000002"><a xlink:title=" ">
<path fill="none" stroke="#63b8ff" d="M105.74,-92.61C133.62,-100.78 168.54,-111 194.25,-118.53"/>
<polygon fill="#63b8ff" stroke="#63b8ff" points="107.08,-89.36 96.5,-89.91 105.11,-96.08 107.08,-89.36"/>
</a>
</g>
</g>
<!-- Node6 -->
<g id="Node000006" class="node">
<title>Node6</title>
<g id="a_Node000006"><a xlink:href="class_cpl_1_1_system_1_1_event_loop.html" target="_top" xlink:title="This concrete class is a Runnable object that provides a event driven execution model for a thread.">
<polygon fill="white" stroke="#666666" points="291.5,-89 170.5,-89 170.5,-69 291.5,-69 291.5,-89"/>
<text text-anchor="middle" x="231" y="-75.5" font-family="Helvetica,sans-Serif" font-size="10.00">Cpl::System::EventLoop</text>
</a>
</g>
</g>
<!-- Node1&#45;&gt;Node6 -->
<g id="edge5_Node000001_Node000006" class="edge">
<title>Node1&#45;&gt;Node6</title>
<g id="a_edge5_Node000001_Node000006"><a xlink:title=" ">
<path fill="none" stroke="#63b8ff" d="M127.69,-79C141.76,-79 156.46,-79 170.19,-79"/>
<polygon fill="#63b8ff" stroke="#63b8ff" points="128.1,-75.5 118.1,-79 128.1,-82.5 128.1,-75.5"/>
</a>
</g>
</g>
<!-- Node15 -->
<g id="Node000015" class="node">
<title>Node15</title>
<g id="a_Node000015"><a xlink:href="class_cpl_1_1_system_1_1_free_r_t_o_s_1_1_make_current_thread_a_cpl_thread.html" target="_top" xlink:title="This is a helper class that can be used to make the current thread a CPL thread.">
<polygon fill="white" stroke="#666666" points="309.5,-51 152.5,-51 152.5,-19 309.5,-19 309.5,-51"/>
<text text-anchor="start" x="160.5" y="-37.5" font-family="Helvetica,sans-Serif" font-size="10.00">Cpl::System::FreeRTOS</text>
<text text-anchor="middle" x="231" y="-25.5" font-family="Helvetica,sans-Serif" font-size="10.00">::MakeCurrentThreadACplThread</text>
</a>
</g>
</g>
<!-- Node1&#45;&gt;Node15 -->
<g id="edge14_Node000001_Node000015" class="edge">
<title>Node1&#45;&gt;Node15</title>
<g id="a_edge14_Node000001_Node000015"><a xlink:title=" ">
<path fill="none" stroke="#63b8ff" d="M110.8,-65.72C128.22,-61.23 147.87,-56.16 166.13,-51.46"/>
<polygon fill="#63b8ff" stroke="#63b8ff" points="109.99,-62.31 101.18,-68.19 111.74,-69.09 109.99,-62.31"/>
</a>
</g>
</g>
<!-- Node3 -->
<g id="Node000003" class="node">
<title>Node3</title>
<g id="a_Node000003"><a xlink:href="class_cpl_1_1_io_1_1_socket_1_1_listener__.html" target="_top" xlink:title="This private, mostly concrete helper class manages the top level threading aspects for a simple liste...">
<polygon fill="white" stroke="#666666" points="471.75,-152 345.5,-152 345.5,-132 471.75,-132 471.75,-152"/>
<text text-anchor="middle" x="408.62" y="-138.5" font-family="Helvetica,sans-Serif" font-size="10.00">Cpl::Io::Socket::Listener_</text>
</a>
</g>
</g>
<!-- Node2&#45;&gt;Node3 -->
<g id="edge2_Node000002_Node000003" class="edge">
<title>Node2&#45;&gt;Node3</title>
<g id="a_edge2_Node000002_Node000003"><a xlink:title=" ">
<path fill="none" stroke="#63b8ff" d="M303.43,-134.29C317.29,-135.31 331.71,-136.38 345.25,-137.38"/>
<polygon fill="#63b8ff" stroke="#63b8ff" points="303.69,-130.8 293.46,-133.55 303.17,-137.78 303.69,-130.8"/>
</a>
</g>
</g>
<!-- Node4 -->
<g id="Node000004" class="node">
<title>Node4</title>
<g id="a_Node000004"><a xlink:href="class_cpl_1_1_io_1_1_socket_1_1_posix_1_1_listener.html" target="_top" xlink:title="This concrete class implements the Cpl::Io::Socket::Listener interface using IPv4 addressing for the ...">
<polygon fill="white" stroke="#666666" points="630.25,-208 519,-208 519,-176 630.25,-176 630.25,-208"/>
<text text-anchor="start" x="527" y="-194.5" font-family="Helvetica,sans-Serif" font-size="10.00">Cpl::Io::Socket::Posix</text>
<text text-anchor="middle" x="574.62" y="-182.5" font-family="Helvetica,sans-Serif" font-size="10.00">::Listener</text>
</a>
</g>
</g>
<!-- Node3&#45;&gt;Node4 -->
<g id="edge3_Node000003_Node000004" class="edge">
<title>Node3&#45;&gt;Node4</title>
<g id="a_edge3_Node000003_Node000004"><a xlink:title=" ">
<path fill="none" stroke="#63b8ff" d="M455.01,-155.84C475.02,-161.94 498.69,-169.15 519.6,-175.53"/>
<polygon fill="#63b8ff" stroke="#63b8ff" points="456.04,-152.49 445.45,-152.92 454,-159.19 456.04,-152.49"/>
</a>
</g>
</g>
<!-- Node5 -->
<g id="Node000005" class="node">
<title>Node5</title>
<g id="a_Node000005"><a xlink:href="class_cpl_1_1_io_1_1_socket_1_1_win32_1_1_listener.html" target="_top" xlink:title="This concrete class implements the Cpl::Io::Socket::Listener interface using IPv4 addressing for the ...">
<polygon fill="white" stroke="#666666" points="631.75,-158 517.5,-158 517.5,-126 631.75,-126 631.75,-158"/>
<text text-anchor="start" x="525.5" y="-144.5" font-family="Helvetica,sans-Serif" font-size="10.00">Cpl::Io::Socket::Win32</text>
<text text-anchor="middle" x="574.62" y="-132.5" font-family="Helvetica,sans-Serif" font-size="10.00">::Listener</text>
</a>
</g>
</g>
<!-- Node3&#45;&gt;Node5 -->
<g id="edge4_Node000003_Node000005" class="edge">
<title>Node3&#45;&gt;Node5</title>
<g id="a_edge4_Node000003_Node000005"><a xlink:title=" ">
<path fill="none" stroke="#63b8ff" d="M483.37,-142C494.74,-142 506.33,-142 517.25,-142"/>
<polygon fill="#63b8ff" stroke="#63b8ff" points="483.61,-138.5 473.61,-142 483.61,-145.5 483.61,-138.5"/>
</a>
</g>
</g>
<!-- Node7 -->
<g id="Node000007" class="node">
<title>Node7</title>
<g id="a_Node000007"><a xlink:href="class_cpl_1_1_dm_1_1_event_loop.html" target="_top" xlink:title="This class extends the Cpl::System::EventLoop class to support the asynchronous change notification g...">
<polygon fill="white" stroke="#666666" points="459.75,-108 357.5,-108 357.5,-88 459.75,-88 459.75,-108"/>
<text text-anchor="middle" x="408.62" y="-94.5" font-family="Helvetica,sans-Serif" font-size="10.00">Cpl::Dm::EventLoop</text>
</a>
</g>
</g>
<!-- Node6&#45;&gt;Node7 -->
<g id="edge6_Node000006_Node000007" class="edge">
<title>Node6&#45;&gt;Node7</title>
<g id="a_edge6_Node000006_Node000007"><a xlink:title=" ">
<path fill="none" stroke="#63b8ff" d="M303.3,-86.71C321.3,-88.66 340.26,-90.71 357.01,-92.52"/>
<polygon fill="#63b8ff" stroke="#63b8ff" points="303.77,-83.24 293.45,-85.65 303.02,-90.2 303.77,-83.24"/>
</a>
</g>
</g>
<!-- Node11 -->
<g id="Node000011" class="node">
<title>Node11</title>
<g id="a_Node000011"><a xlink:href="class_cpl_1_1_itc_1_1_mailbox_server.html" target="_top" xlink:title="This class collects the common functions of a generic server providing a mailbox and Event loop.">
<polygon fill="white" stroke="#666666" points="465.38,-70 351.88,-70 351.88,-50 465.38,-50 465.38,-70"/>
<text text-anchor="middle" x="408.62" y="-56.5" font-family="Helvetica,sans-Serif" font-size="10.00">Cpl::Itc::MailboxServer</text>
</a>
</g>
</g>
<!-- Node6&#45;&gt;Node11 -->
<g id="edge10_Node000006_Node000011" class="edge">
<title>Node6&#45;&gt;Node11</title>
<g id="a_edge10_Node000006_Node000011"><a xlink:title=" ">
<path fill="none" stroke="#63b8ff" d="M302.98,-71.32C319.13,-69.57 336.06,-67.74 351.5,-66.07"/>
<polygon fill="#63b8ff" stroke="#63b8ff" points="303.02,-67.8 293.45,-72.35 303.77,-74.76 303.02,-67.8"/>
</a>
</g>
</g>
<!-- Node13 -->
<g id="Node000013" class="node">
<title>Node13</title>
<g id="a_Node000013"><a xlink:href="class_storm_1_1_thermostat_1_1_sim_house_1_1_house.html" target="_top" xlink:title="This class glues the House Simulation into the Thermostat Test Application.">
<polygon fill="white" stroke="#666666" points="460.12,-32 357.12,-32 357.12,0 460.12,0 460.12,-32"/>
<text text-anchor="start" x="365.12" y="-18.5" font-family="Helvetica,sans-Serif" font-size="10.00">Storm::Thermostat::</text>
<text text-anchor="middle" x="408.62" y="-6.5" font-family="Helvetica,sans-Serif" font-size="10.00">SimHouse::House</text>
</a>
</g>
</g>
<!-- Node6&#45;&gt;Node13 -->
<g id="edge12_Node000006_Node000013" class="edge">
<title>Node6&#45;&gt;Node13</title>
<g id="a_edge12_Node000006_Node000013"><a xlink:title=" ">
<path fill="none" stroke="#63b8ff" d="M293.26,-65.48C298.81,-63.8 304.29,-61.98 309.5,-60 326.41,-53.58 329.09,-48.61 345.5,-41 351.83,-38.07 358.6,-35.13 365.27,-32.36"/>
<polygon fill="#63b8ff" stroke="#63b8ff" points="292.7,-62 284.03,-68.09 294.61,-68.73 292.7,-62"/>
</a>
</g>
</g>
<!-- Node8 -->
<g id="Node000008" class="node">
<title>Node8</title>
<g id="a_Node000008"><a xlink:href="class_cpl_1_1_dm_1_1_mailbox_server.html" target="_top" xlink:title="This class extends the Cpl::Dm::EventLoop and Cpl::Itc:Mailbox classes to support the asynchronous ch...">
<polygon fill="white" stroke="#666666" points="633.62,-108 515.62,-108 515.62,-88 633.62,-88 633.62,-108"/>
<text text-anchor="middle" x="574.62" y="-94.5" font-family="Helvetica,sans-Serif" font-size="10.00">Cpl::Dm::MailboxServer</text>
</a>
</g>
</g>
<!-- Node7&#45;&gt;Node8 -->
<g id="edge7_Node000007_Node000008" class="edge">
<title>Node7&#45;&gt;Node8</title>
<g id="a_edge7_Node000007_Node000008"><a xlink:title=" ">
<path fill="none" stroke="#63b8ff" d="M471.45,-98C485.79,-98 501.02,-98 515.21,-98"/>
<polygon fill="#63b8ff" stroke="#63b8ff" points="471.68,-94.5 461.68,-98 471.68,-101.5 471.68,-94.5"/>
</a>
</g>
</g>
<!-- Node9 -->
<g id="Node000009" class="node">
<title>Node9</title>
<g id="a_Node000009"><a xlink:href="class_cpl_1_1_dm_1_1_periodic_scheduler.html" target="_top" xlink:title="This class extends the Cpl::Dm::MailboxServer class to add periodic scheduling to an event based &#39;thr...">
<polygon fill="white" stroke="#666666" points="817.62,-127 681.62,-127 681.62,-107 817.62,-107 817.62,-127"/>
<text text-anchor="middle" x="749.62" y="-113.5" font-family="Helvetica,sans-Serif" font-size="10.00">Cpl::Dm::PeriodicScheduler</text>
</a>
</g>
</g>
<!-- Node8&#45;&gt;Node9 -->
<g id="edge8_Node000008_Node000009" class="edge">
<title>Node8&#45;&gt;Node9</title>
<g id="a_edge8_Node000008_Node000009"><a xlink:title=" ">
<path fill="none" stroke="#63b8ff" d="M645.04,-105.62C657.04,-106.94 669.49,-108.31 681.43,-109.62"/>
<polygon fill="#63b8ff" stroke="#63b8ff" points="645.54,-102.16 635.22,-104.54 644.78,-109.12 645.54,-102.16"/>
</a>
</g>
</g>
<!-- Node10 -->
<g id="Node000010" class="node">
<title>Node10</title>
<g id="a_Node000010"><a xlink:href="class_cpl_1_1_persistent_1_1_record_server.html" target="_top" xlink:title="This concrete class provides an Event driven Runnable object for executing the read/write operation t...">
<polygon fill="white" stroke="#666666" points="821.75,-89 677.5,-89 677.5,-69 821.75,-69 821.75,-89"/>
<text text-anchor="middle" x="749.62" y="-75.5" font-family="Helvetica,sans-Serif" font-size="10.00">Cpl::Persistent::RecordServer</text>
</a>
</g>
</g>
<!-- Node8&#45;&gt;Node10 -->
<g id="edge9_Node000008_Node000010" class="edge">
<title>Node8&#45;&gt;Node10</title>
<g id="a_edge9_Node000008_Node000010"><a xlink:title=" ">
<path fill="none" stroke="#63b8ff" d="M645.02,-90.38C655.6,-89.22 666.54,-88.02 677.16,-86.85"/>
<polygon fill="#63b8ff" stroke="#63b8ff" points="644.78,-86.88 635.22,-91.46 645.54,-93.84 644.78,-86.88"/>
</a>
</g>
</g>
<!-- Node12 -->
<g id="Node000012" class="node">
<title>Node12</title>
<g id="a_Node000012"><a xlink:href="class_cpl_1_1_itc_1_1_periodic_scheduler.html" target="_top" xlink:title="This class extends the Cpl::Itc::MailboxServer class to add periodic scheduling to an event based &#39;th...">
<polygon fill="white" stroke="#666666" points="640.38,-70 508.88,-70 508.88,-50 640.38,-50 640.38,-70"/>
<text text-anchor="middle" x="574.62" y="-56.5" font-family="Helvetica,sans-Serif" font-size="10.00">Cpl::Itc::PeriodicScheduler</text>
</a>
</g>
</g>
<!-- Node11&#45;&gt;Node12 -->
<g id="edge11_Node000011_Node000012" class="edge">
<title>Node11&#45;&gt;Node12</title>
<g id="a_edge11_Node000011_Node000012"><a xlink:title=" ">
<path fill="none" stroke="#63b8ff" d="M476.82,-60C487.31,-60 498.14,-60 508.58,-60"/>
<polygon fill="#63b8ff" stroke="#63b8ff" points="477.12,-56.5 467.12,-60 477.12,-63.5 477.12,-56.5"/>
</a>
</g>
</g>
<!-- Node14 -->
<g id="Node000014" class="node">
<title>Node14</title>
<g id="a_Node000014"><a xlink:href="class_storm_1_1_thermostat_1_1_main_1_1_scheduled_sim_house.html" target="_top" xlink:title="This concrete class is used to make the parent&#39;s executeSimulation() accessible to be called directly...">
<polygon fill="white" stroke="#666666" points="641.5,-32 507.75,-32 507.75,0 641.5,0 641.5,-32"/>
<text text-anchor="start" x="515.75" y="-18.5" font-family="Helvetica,sans-Serif" font-size="10.00">Storm::Thermostat::</text>
<text text-anchor="middle" x="574.62" y="-6.5" font-family="Helvetica,sans-Serif" font-size="10.00">Main::ScheduledSimHouse</text>
</a>
</g>
</g>
<!-- Node13&#45;&gt;Node14 -->
<g id="edge13_Node000013_Node000014" class="edge">
<title>Node13&#45;&gt;Node14</title>
<g id="a_edge13_Node000013_Node000014"><a xlink:title=" ">
<path fill="none" stroke="#63b8ff" d="M471.95,-16C483.5,-16 495.6,-16 507.27,-16"/>
<polygon fill="#63b8ff" stroke="#63b8ff" points="472.13,-12.5 462.13,-16 472.13,-19.5 472.13,-12.5"/>
</a>
</g>
</g>
</g>
</svg>
