<?xml version="1.0" encoding="UTF-8" standalone="no"?>
<!DOCTYPE svg PUBLIC "-//W3C//DTD SVG 1.1//EN"
 "http://www.w3.org/Graphics/SVG/1.1/DTD/svg11.dtd">
<!-- Generated by graphviz version 2.38.0 (20140413.2041)
 -->
<!-- Title: Cpl::Dm::PeriodicScheduler Pages: 1 -->
<svg width="1060pt" height="208pt"
 viewBox="0.00 0.00 1060.00 207.50" xmlns="http://www.w3.org/2000/svg" xmlns:xlink="http://www.w3.org/1999/xlink">
<g id="graph0" class="graph" transform="scale(1 1) rotate(0) translate(4 203.5)">
<title>Cpl::Dm::PeriodicScheduler</title>
<polygon fill="white" stroke="none" points="-4,4 -4,-203.5 1056,-203.5 1056,4 -4,4"/>
<!-- Node1 -->
<g id="node1" class="node"><title>Node1</title>
<g id="a_node1"><a xlink:title="This class extends the Cpl::Dm::MailboxServer class to add periodic scheduling to an event based &#39;thr...">
<polygon fill="#bfbfbf" stroke="black" points="915,-42 915,-61 1052,-61 1052,-42 915,-42"/>
<text text-anchor="middle" x="983.5" y="-49" font-family="Helvetica,sans-Serif" font-size="10.00">Cpl::Dm::PeriodicScheduler</text>
</a>
</g>
</g>
<!-- Node2 -->
<g id="node2" class="node"><title>Node2</title>
<g id="a_node2"><a xlink:href="class_cpl_1_1_dm_1_1_mailbox_server.html" target="_top" xlink:title="This class extends the Cpl::Dm::EventLoop and Cpl::Itc:Mailbox classes to support the asynchronous ch...">
<polygon fill="white" stroke="black" points="740.5,-65 740.5,-84 860.5,-84 860.5,-65 740.5,-65"/>
<text text-anchor="middle" x="800.5" y="-72" font-family="Helvetica,sans-Serif" font-size="10.00">Cpl::Dm::MailboxServer</text>
</a>
</g>
</g>
<!-- Node2&#45;&gt;Node1 -->
<g id="edge1" class="edge"><title>Node2&#45;&gt;Node1</title>
<path fill="none" stroke="midnightblue" d="M871.092,-65.6568C885.484,-63.828 900.623,-61.9043 914.941,-60.0848"/>
<polygon fill="midnightblue" stroke="midnightblue" points="870.245,-62.2362 860.766,-66.9689 871.128,-69.1804 870.245,-62.2362"/>
</g>
<!-- Node3 -->
<g id="node3" class="node"><title>Node3</title>
<g id="a_node3"><a xlink:href="class_cpl_1_1_dm_1_1_event_loop.html" target="_top" xlink:title="This class extends the Cpl::System::EventLoop class to support the asynchronous change notification g...">
<polygon fill="white" stroke="black" points="582,-88 582,-107 686,-107 686,-88 582,-88"/>
<text text-anchor="middle" x="634" y="-95" font-family="Helvetica,sans-Serif" font-size="10.00">Cpl::Dm::EventLoop</text>
</a>
</g>
</g>
<!-- Node3&#45;&gt;Node2 -->
<g id="edge2" class="edge"><title>Node3&#45;&gt;Node2</title>
<path fill="none" stroke="midnightblue" d="M696.42,-88.9124C710.786,-86.9037 726.06,-84.7682 740.326,-82.7736"/>
<polygon fill="midnightblue" stroke="midnightblue" points="695.566,-85.4977 686.147,-90.3487 696.535,-92.4302 695.566,-85.4977"/>
</g>
<!-- Node4 -->
<g id="node4" class="node"><title>Node4</title>
<g id="a_node4"><a xlink:href="class_cpl_1_1_system_1_1_event_loop.html" target="_top" xlink:title="This concrete class is a Runnable object that provides a event driven execution model for a thread.">
<polygon fill="white" stroke="black" points="420.5,-126 420.5,-145 543.5,-145 543.5,-126 420.5,-126"/>
<text text-anchor="middle" x="482" y="-133" font-family="Helvetica,sans-Serif" font-size="10.00">Cpl::System::EventLoop</text>
</a>
</g>
</g>
<!-- Node4&#45;&gt;Node3 -->
<g id="edge3" class="edge"><title>Node4&#45;&gt;Node3</title>
<path fill="none" stroke="midnightblue" d="M530.811,-123.388C551.702,-118.096 575.847,-111.979 595.421,-107.02"/>
<polygon fill="midnightblue" stroke="midnightblue" points="529.686,-120.062 520.851,-125.911 531.405,-126.848 529.686,-120.062"/>
</g>
<!-- Node5 -->
<g id="node5" class="node"><title>Node5</title>
<g id="a_node5"><a xlink:href="class_cpl_1_1_system_1_1_runnable.html" target="_top" xlink:title="This is an abstract class defines the interface for an object that is &quot;executed&quot; when a Thread object...">
<polygon fill="white" stroke="black" points="194,-180 194,-199 311,-199 311,-180 194,-180"/>
<text text-anchor="middle" x="252.5" y="-187" font-family="Helvetica,sans-Serif" font-size="10.00">Cpl::System::Runnable</text>
</a>
</g>
</g>
<!-- Node5&#45;&gt;Node4 -->
<g id="edge4" class="edge"><title>Node5&#45;&gt;Node4</title>
<path fill="none" stroke="midnightblue" d="M310.319,-177.932C337.793,-172.145 371.198,-164.825 401,-157.5 416.527,-153.684 433.629,-149.041 448.022,-145.006"/>
<polygon fill="midnightblue" stroke="midnightblue" points="309.554,-174.516 300.483,-179.991 310.988,-181.367 309.554,-174.516"/>
</g>
<!-- Node6 -->
<g id="node6" class="node"><title>Node6</title>
<g id="a_node6"><a xlink:href="class_cpl_1_1_system_1_1_event_flag.html" target="_top" xlink:title="This abstract class defines the interface to generated a &#39;Event Flag&#39;.">
<polygon fill="white" stroke="black" points="192,-142 192,-161 313,-161 313,-142 192,-142"/>
<text text-anchor="middle" x="252.5" y="-149" font-family="Helvetica,sans-Serif" font-size="10.00">Cpl::System::EventFlag</text>
</a>
</g>
</g>
<!-- Node6&#45;&gt;Node4 -->
<g id="edge5" class="edge"><title>Node6&#45;&gt;Node4</title>
<path fill="none" stroke="midnightblue" d="M323.569,-146.572C354.556,-144.393 390.641,-141.855 420.44,-139.759"/>
<polygon fill="midnightblue" stroke="midnightblue" points="323.003,-143.103 313.273,-147.296 323.494,-150.086 323.003,-143.103"/>
</g>
<!-- Node7 -->
<g id="node7" class="node"><title>Node7</title>
<g id="a_node7"><a xlink:href="class_cpl_1_1_system_1_1_signable.html" target="_top" xlink:title="This abstract class defines the interface by which a client can cause an object that is waiting&#45;on&#45;a&#45;...">
<polygon fill="white" stroke="black" points="195.5,-104 195.5,-123 309.5,-123 309.5,-104 195.5,-104"/>
<text text-anchor="middle" x="252.5" y="-111" font-family="Helvetica,sans-Serif" font-size="10.00">Cpl::System::Signable</text>
</a>
</g>
</g>
<!-- Node7&#45;&gt;Node4 -->
<g id="edge6" class="edge"><title>Node7&#45;&gt;Node4</title>
<path fill="none" stroke="midnightblue" d="M319.809,-119.912C351.533,-122.98 389.254,-126.628 420.228,-129.623"/>
<polygon fill="midnightblue" stroke="midnightblue" points="320.026,-116.417 309.736,-118.938 319.353,-123.385 320.026,-116.417"/>
</g>
<!-- Node8 -->
<g id="node8" class="node"><title>Node8</title>
<g id="a_node8"><a xlink:href="class_cpl_1_1_container_1_1_item.html" target="_top" xlink:title="This class is used by the Container classes to implement a various types of singly linked containers.">
<polygon fill="white" stroke="black" points="21,-104 21,-123 125,-123 125,-104 21,-104"/>
<text text-anchor="middle" x="73" y="-111" font-family="Helvetica,sans-Serif" font-size="10.00">Cpl::Container::Item</text>
</a>
</g>
</g>
<!-- Node8&#45;&gt;Node7 -->
<g id="edge7" class="edge"><title>Node8&#45;&gt;Node7</title>
<path fill="none" stroke="midnightblue" d="M135.589,-113.5C154.987,-113.5 176.301,-113.5 195.304,-113.5"/>
<polygon fill="midnightblue" stroke="midnightblue" points="135.34,-110 125.34,-113.5 135.34,-117 135.34,-110"/>
</g>
<!-- Node9 -->
<g id="node9" class="node"><title>Node9</title>
<g id="a_node9"><a xlink:href="class_cpl_1_1_system_1_1_timer_manager.html" target="_top" xlink:title="This mostly concrete class implements manages a list of Software Timers.">
<polygon fill="white" stroke="black" points="183,-66 183,-85 322,-85 322,-66 183,-66"/>
<text text-anchor="middle" x="252.5" y="-73" font-family="Helvetica,sans-Serif" font-size="10.00">Cpl::System::TimerManager</text>
</a>
</g>
</g>
<!-- Node9&#45;&gt;Node4 -->
<g id="edge8" class="edge"><title>Node9&#45;&gt;Node4</title>
<path fill="none" stroke="midnightblue" d="M299.44,-87.616C342.284,-98.9155 405.34,-115.546 444.745,-125.938"/>
<polygon fill="midnightblue" stroke="midnightblue" points="300.11,-84.1731 289.548,-85.0072 298.325,-90.9417 300.11,-84.1731"/>
</g>
<!-- Node10 -->
<g id="node10" class="node"><title>Node10</title>
<g id="a_node10"><a xlink:href="class_cpl_1_1_system_1_1_counter_source__.html" target="_top" xlink:title="This abstract class defines the interface for registering for an Counter object with the Timer Manage...">
<polygon fill="white" stroke="black" points="0,-66 0,-85 146,-85 146,-66 0,-66"/>
<text text-anchor="middle" x="73" y="-73" font-family="Helvetica,sans-Serif" font-size="10.00">Cpl::System::CounterSource_</text>
</a>
</g>
</g>
<!-- Node10&#45;&gt;Node9 -->
<g id="edge9" class="edge"><title>Node10&#45;&gt;Node9</title>
<path fill="none" stroke="midnightblue" d="M156.48,-75.5C165.29,-75.5 174.184,-75.5 182.81,-75.5"/>
<polygon fill="midnightblue" stroke="midnightblue" points="156.196,-72.0001 146.196,-75.5 156.196,-79.0001 156.196,-72.0001"/>
</g>
<!-- Node11 -->
<g id="node11" class="node"><title>Node11</title>
<g id="a_node11"><a xlink:href="class_cpl_1_1_dm_1_1_notification_api__.html" target="_top" xlink:title="This class has PACKAGE Scope, i.e.">
<polygon fill="white" stroke="black" points="419,-88 419,-107 545,-107 545,-88 419,-88"/>
<text text-anchor="middle" x="482" y="-95" font-family="Helvetica,sans-Serif" font-size="10.00">Cpl::Dm::NotificationApi_</text>
</a>
</g>
</g>
<!-- Node11&#45;&gt;Node3 -->
<g id="edge10" class="edge"><title>Node11&#45;&gt;Node3</title>
<path fill="none" stroke="midnightblue" d="M555.576,-97.5C564.363,-97.5 573.194,-97.5 581.587,-97.5"/>
<polygon fill="midnightblue" stroke="midnightblue" points="555.31,-94.0001 545.31,-97.5 555.31,-101 555.31,-94.0001"/>
</g>
<!-- Node12 -->
<g id="node12" class="node"><title>Node12</title>
<g id="a_node12"><a xlink:href="class_cpl_1_1_itc_1_1_mailbox.html" target="_top" xlink:title="This mailbox class implements an Inter Thread Communications message queue.">
<polygon fill="white" stroke="black" points="590,-50 590,-69 678,-69 678,-50 590,-50"/>
<text text-anchor="middle" x="634" y="-57" font-family="Helvetica,sans-Serif" font-size="10.00">Cpl::Itc::Mailbox</text>
</a>
</g>
</g>
<!-- Node12&#45;&gt;Node2 -->
<g id="edge11" class="edge"><title>Node12&#45;&gt;Node2</title>
<path fill="none" stroke="midnightblue" d="M688.33,-64.3629C704.99,-65.882 723.463,-67.5665 740.489,-69.1191"/>
<polygon fill="midnightblue" stroke="midnightblue" points="688.497,-60.8637 678.22,-63.4411 687.861,-67.8348 688.497,-60.8637"/>
</g>
<!-- Node13 -->
<g id="node13" class="node"><title>Node13</title>
<g id="a_node13"><a xlink:href="class_cpl_1_1_itc_1_1_post_api.html" target="_top" xlink:title="This abstract class represents the interface used to send messages to a mailbox.">
<polygon fill="white" stroke="black" points="437.5,-50 437.5,-69 526.5,-69 526.5,-50 437.5,-50"/>
<text text-anchor="middle" x="482" y="-57" font-family="Helvetica,sans-Serif" font-size="10.00">Cpl::Itc::PostApi</text>
</a>
</g>
</g>
<!-- Node13&#45;&gt;Node12 -->
<g id="edge12" class="edge"><title>Node13&#45;&gt;Node12</title>
<path fill="none" stroke="midnightblue" d="M536.834,-59.5C554.276,-59.5 573.38,-59.5 589.933,-59.5"/>
<polygon fill="midnightblue" stroke="midnightblue" points="536.789,-56.0001 526.789,-59.5 536.789,-63.0001 536.789,-56.0001"/>
</g>
<!-- Node14 -->
<g id="node14" class="node"><title>Node14</title>
<g id="a_node14"><a xlink:href="class_cpl_1_1_container_1_1_s_list.html" target="_top" xlink:title=" ">
<polygon fill="white" stroke="black" points="428.5,-0.5 428.5,-30.5 535.5,-30.5 535.5,-0.5 428.5,-0.5"/>
<text text-anchor="start" x="436.5" y="-18.5" font-family="Helvetica,sans-Serif" font-size="10.00">Cpl::Container::SList</text>
<text text-anchor="middle" x="482" y="-7.5" font-family="Helvetica,sans-Serif" font-size="10.00">&lt; Message &gt;</text>
</a>
</g>
</g>
<!-- Node14&#45;&gt;Node12 -->
<g id="edge13" class="edge"><title>Node14&#45;&gt;Node12</title>
<path fill="none" stroke="midnightblue" d="M543.859,-33.3521C563.184,-39.0207 583.809,-45.0705 600.347,-49.9217"/>
<polygon fill="midnightblue" stroke="midnightblue" points="544.783,-29.9756 534.202,-30.5192 542.812,-36.6925 544.783,-29.9756"/>
</g>
<!-- Node15 -->
<g id="node15" class="node"><title>Node15</title>
<g id="a_node15"><a xlink:href="class_cpl_1_1_container_1_1_s_list.html" target="_top" xlink:title="This template class implements a singly linked list which maintains the ordering imposed on it by the...">
<polygon fill="white" stroke="black" points="199,-0.5 199,-30.5 306,-30.5 306,-0.5 199,-0.5"/>
<text text-anchor="start" x="207" y="-18.5" font-family="Helvetica,sans-Serif" font-size="10.00">Cpl::Container::SList</text>
<text text-anchor="middle" x="252.5" y="-7.5" font-family="Helvetica,sans-Serif" font-size="10.00">&lt; ITEM &gt;</text>
</a>
</g>
</g>
<!-- Node15&#45;&gt;Node14 -->
<g id="edge14" class="edge"><title>Node15&#45;&gt;Node14</title>
<path fill="none" stroke="orange" stroke-dasharray="5,2" d="M316.408,-15.5C351.522,-15.5 394.775,-15.5 428.128,-15.5"/>
<polygon fill="orange" stroke="orange" points="316.265,-12.0001 306.265,-15.5 316.265,-19.0001 316.265,-12.0001"/>
<text text-anchor="middle" x="370.5" y="-18.5" font-family="Helvetica,sans-Serif" font-size="10.00"> &lt; Message &gt;</text>
</g>
<!-- Node16 -->
<g id="node16" class="node"><title>Node16</title>
<g id="a_node16"><a xlink:href="class_cpl_1_1_system_1_1_periodic_scheduler.html" target="_top" xlink:title="This concrete class is a &#39;policy&#39; object that is used to add polled based, cooperative monotonic sche...">
<polygon fill="white" stroke="black" points="723,-27 723,-46 878,-46 878,-27 723,-27"/>
<text text-anchor="middle" x="800.5" y="-34" font-family="Helvetica,sans-Serif" font-size="10.00">Cpl::System::PeriodicScheduler</text>
</a>
</g>
</g>
<!-- Node16&#45;&gt;Node1 -->
<g id="edge15" class="edge"><title>Node16&#45;&gt;Node1</title>
<path fill="none" stroke="midnightblue" d="M888.276,-43.6914C897.182,-44.4295 906.136,-45.1715 914.793,-45.8889"/>
<polygon fill="midnightblue" stroke="midnightblue" points="888.515,-40.1993 878.26,-42.8614 887.937,-47.1754 888.515,-40.1993"/>
</g>
</g>
</svg>
