<?xml version="1.0" encoding="UTF-8" standalone="no"?>
<!DOCTYPE svg PUBLIC "-//W3C//DTD SVG 1.1//EN"
 "http://www.w3.org/Graphics/SVG/1.1/DTD/svg11.dtd">
<!-- Generated by graphviz version 2.38.0 (20140413.2041)
 -->
<!-- Title: Cpl::TShell::Cmd::Command Pages: 1 -->
<svg width="1304pt" height="572pt"
 viewBox="0.00 0.00 1304.00 571.50" xmlns="http://www.w3.org/2000/svg" xmlns:xlink="http://www.w3.org/1999/xlink">
<g id="graph0" class="graph" transform="scale(1 1) rotate(0) translate(4 567.5)">
<title>Cpl::TShell::Cmd::Command</title>
<polygon fill="white" stroke="none" points="-4,4 -4,-567.5 1300,-567.5 1300,4 -4,4"/>
<!-- Node1 -->
<g id="node1" class="node"><title>Node1</title>
<g id="a_node1"><a xlink:title="This partially concrete class implements infrastructure and/or common functionality for a Shell comma...">
<polygon fill="#bfbfbf" stroke="black" points="787,-278 787,-297 928,-297 928,-278 787,-278"/>
<text text-anchor="middle" x="857.5" y="-285" font-family="Helvetica,sans-Serif" font-size="10.00">Cpl::TShell::Cmd::Command</text>
</a>
</g>
</g>
<!-- Node7 -->
<g id="node7" class="node"><title>Node7</title>
<g id="a_node7"><a xlink:href="class_cpl_1_1_dm_1_1_t_shell_1_1_dm.html" target="_top" xlink:title="This class implements a TShell command.">
<polygon fill="white" stroke="black" points="987,-544 987,-563 1094,-563 1094,-544 987,-544"/>
<text text-anchor="middle" x="1040.5" y="-551" font-family="Helvetica,sans-Serif" font-size="10.00">Cpl::Dm::TShell::Dm</text>
</a>
</g>
</g>
<!-- Node1&#45;&gt;Node7 -->
<g id="edge6" class="edge"><title>Node1&#45;&gt;Node7</title>
<path fill="none" stroke="midnightblue" d="M860.96,-307.124C867.91,-353.991 892.097,-473.093 964,-534.5 970.578,-540.118 978.586,-544.114 986.897,-546.949"/>
<polygon fill="midnightblue" stroke="midnightblue" points="864.408,-306.506 859.576,-297.078 857.474,-307.462 864.408,-306.506"/>
</g>
<!-- Node8 -->
<g id="node8" class="node"><title>Node8</title>
<g id="a_node8"><a xlink:href="class_cpl_1_1_t_shell_1_1_cmd_1_1_arduino_1_1_dbg.html" target="_top" xlink:title="This class implements a DAC Shell command.">
<polygon fill="white" stroke="black" points="964,-506 964,-525 1117,-525 1117,-506 964,-506"/>
<text text-anchor="middle" x="1040.5" y="-513" font-family="Helvetica,sans-Serif" font-size="10.00">Cpl::TShell::Cmd::Arduino::Dbg</text>
</a>
</g>
</g>
<!-- Node1&#45;&gt;Node8 -->
<g id="edge7" class="edge"><title>Node1&#45;&gt;Node8</title>
<path fill="none" stroke="midnightblue" d="M862.637,-307.168C872.459,-348.828 901.211,-446.249 964,-496.5 968.854,-500.385 974.402,-503.487 980.237,-505.963"/>
<polygon fill="midnightblue" stroke="midnightblue" points="866.004,-306.187 860.402,-297.195 859.174,-307.719 866.004,-306.187"/>
</g>
<!-- Node9 -->
<g id="node9" class="node"><title>Node9</title>
<g id="a_node9"><a xlink:href="class_cpl_1_1_t_shell_1_1_cmd_1_1_bye.html" target="_top" xlink:title="This class implements a Shell command.">
<polygon fill="white" stroke="black" points="983.5,-468 983.5,-487 1097.5,-487 1097.5,-468 983.5,-468"/>
<text text-anchor="middle" x="1040.5" y="-475" font-family="Helvetica,sans-Serif" font-size="10.00">Cpl::TShell::Cmd::Bye</text>
</a>
</g>
</g>
<!-- Node1&#45;&gt;Node9 -->
<g id="edge8" class="edge"><title>Node1&#45;&gt;Node9</title>
<path fill="none" stroke="midnightblue" d="M864.829,-306.728C877.6,-342.423 909.937,-418.893 964,-458.5 969.779,-462.734 976.401,-466.029 983.269,-468.592"/>
<polygon fill="midnightblue" stroke="midnightblue" points="868.059,-305.358 861.491,-297.045 861.441,-307.64 868.059,-305.358"/>
</g>
<!-- Node10 -->
<g id="node10" class="node"><title>Node10</title>
<g id="a_node10"><a xlink:href="class_cpl_1_1_t_shell_1_1_cmd_1_1_help.html" target="_top" xlink:title="This class implements a Shell command.">
<polygon fill="white" stroke="black" points="982.5,-430 982.5,-449 1098.5,-449 1098.5,-430 982.5,-430"/>
<text text-anchor="middle" x="1040.5" y="-437" font-family="Helvetica,sans-Serif" font-size="10.00">Cpl::TShell::Cmd::Help</text>
</a>
</g>
</g>
<!-- Node1&#45;&gt;Node10 -->
<g id="edge9" class="edge"><title>Node1&#45;&gt;Node10</title>
<path fill="none" stroke="midnightblue" d="M868.192,-306.458C884.106,-335.621 918.597,-391.182 964,-420.5 970.018,-424.386 976.78,-427.477 983.721,-429.936"/>
<polygon fill="midnightblue" stroke="midnightblue" points="871.128,-304.524 863.35,-297.33 864.944,-307.804 871.128,-304.524"/>
</g>
<!-- Node11 -->
<g id="node11" class="node"><title>Node11</title>
<g id="a_node11"><a xlink:href="class_cpl_1_1_t_shell_1_1_cmd_1_1_t_print.html" target="_top" xlink:title="This class implements a Shell command.">
<polygon fill="white" stroke="black" points="979,-392 979,-411 1102,-411 1102,-392 979,-392"/>
<text text-anchor="middle" x="1040.5" y="-399" font-family="Helvetica,sans-Serif" font-size="10.00">Cpl::TShell::Cmd::TPrint</text>
</a>
</g>
</g>
<!-- Node1&#45;&gt;Node11 -->
<g id="edge10" class="edge"><title>Node1&#45;&gt;Node11</title>
<path fill="none" stroke="midnightblue" d="M872.99,-304.975C891.766,-326.465 926.559,-362.539 964,-382.5 971.276,-386.379 979.371,-389.488 987.481,-391.974"/>
<polygon fill="midnightblue" stroke="midnightblue" points="875.551,-302.584 866.391,-297.26 870.232,-307.134 875.551,-302.584"/>
</g>
<!-- Node12 -->
<g id="node12" class="node"><title>Node12</title>
<g id="a_node12"><a xlink:href="class_cpl_1_1_t_shell_1_1_cmd_1_1_threads.html" target="_top" xlink:title="This class implements a Shell command.">
<polygon fill="white" stroke="black" points="974.5,-354 974.5,-373 1106.5,-373 1106.5,-354 974.5,-354"/>
<text text-anchor="middle" x="1040.5" y="-361" font-family="Helvetica,sans-Serif" font-size="10.00">Cpl::TShell::Cmd::Threads</text>
</a>
</g>
</g>
<!-- Node1&#45;&gt;Node12 -->
<g id="edge11" class="edge"><title>Node1&#45;&gt;Node12</title>
<path fill="none" stroke="midnightblue" d="M882.086,-302.46C902.946,-315.142 934.555,-333.048 964,-344.5 973.448,-348.175 983.84,-351.327 993.812,-353.948"/>
<polygon fill="midnightblue" stroke="midnightblue" points="883.653,-299.314 873.304,-297.042 879.977,-305.271 883.653,-299.314"/>
</g>
<!-- Node15 -->
<g id="node15" class="node"><title>Node15</title>
<g id="a_node15"><a xlink:href="class_cpl_1_1_t_shell_1_1_cmd_1_1_tick.html" target="_top" xlink:title="This class implements a Shell command.">
<polygon fill="white" stroke="black" points="982.5,-316 982.5,-335 1098.5,-335 1098.5,-316 982.5,-316"/>
<text text-anchor="middle" x="1040.5" y="-323" font-family="Helvetica,sans-Serif" font-size="10.00">Cpl::TShell::Cmd::Tick</text>
</a>
</g>
</g>
<!-- Node1&#45;&gt;Node15 -->
<g id="edge14" class="edge"><title>Node1&#45;&gt;Node15</title>
<path fill="none" stroke="midnightblue" d="M914.138,-299.181C939.807,-304.57 969.891,-310.886 994.154,-315.98"/>
<polygon fill="midnightblue" stroke="midnightblue" points="914.68,-295.718 904.174,-297.089 913.241,-302.569 914.68,-295.718"/>
</g>
<!-- Node16 -->
<g id="node16" class="node"><title>Node16</title>
<g id="a_node16"><a xlink:href="class_cpl_1_1_t_shell_1_1_cmd_1_1_trace.html" target="_top" xlink:title="This class implements a Shell command.">
<polygon fill="white" stroke="black" points="979.5,-278 979.5,-297 1101.5,-297 1101.5,-278 979.5,-278"/>
<text text-anchor="middle" x="1040.5" y="-285" font-family="Helvetica,sans-Serif" font-size="10.00">Cpl::TShell::Cmd::Trace</text>
</a>
</g>
</g>
<!-- Node1&#45;&gt;Node16 -->
<g id="edge15" class="edge"><title>Node1&#45;&gt;Node16</title>
<path fill="none" stroke="midnightblue" d="M938.581,-287.5C952.238,-287.5 966.216,-287.5 979.249,-287.5"/>
<polygon fill="midnightblue" stroke="midnightblue" points="938.22,-284 928.22,-287.5 938.22,-291 938.22,-284"/>
</g>
<!-- Node17 -->
<g id="node17" class="node"><title>Node17</title>
<g id="a_node17"><a xlink:href="class_cpl_1_1_t_shell_1_1_cmd_1_1_user.html" target="_top" xlink:title="This class implements a Shell command.">
<polygon fill="white" stroke="black" points="982,-240 982,-259 1099,-259 1099,-240 982,-240"/>
<text text-anchor="middle" x="1040.5" y="-247" font-family="Helvetica,sans-Serif" font-size="10.00">Cpl::TShell::Cmd::User</text>
</a>
</g>
</g>
<!-- Node1&#45;&gt;Node17 -->
<g id="edge16" class="edge"><title>Node1&#45;&gt;Node17</title>
<path fill="none" stroke="midnightblue" d="M914.138,-275.819C939.807,-270.43 969.891,-264.114 994.154,-259.02"/>
<polygon fill="midnightblue" stroke="midnightblue" points="913.241,-272.431 904.174,-277.911 914.68,-279.282 913.241,-272.431"/>
</g>
<!-- Node18 -->
<g id="node18" class="node"><title>Node18</title>
<g id="a_node18"><a xlink:href="class_storm_1_1_t_shell_1_1_filter.html" target="_top" xlink:title="This class implements a Shell command.">
<polygon fill="white" stroke="black" points="988.5,-202 988.5,-221 1092.5,-221 1092.5,-202 988.5,-202"/>
<text text-anchor="middle" x="1040.5" y="-209" font-family="Helvetica,sans-Serif" font-size="10.00">Storm::TShell::Filter</text>
</a>
</g>
</g>
<!-- Node1&#45;&gt;Node18 -->
<g id="edge17" class="edge"><title>Node1&#45;&gt;Node18</title>
<path fill="none" stroke="midnightblue" d="M882.086,-272.54C902.946,-259.858 934.555,-241.952 964,-230.5 973.448,-226.825 983.84,-223.673 993.812,-221.052"/>
<polygon fill="midnightblue" stroke="midnightblue" points="879.977,-269.729 873.304,-277.958 883.653,-275.686 879.977,-269.729"/>
</g>
<!-- Node19 -->
<g id="node19" class="node"><title>Node19</title>
<g id="a_node19"><a xlink:href="class_storm_1_1_t_shell_1_1_state.html" target="_top" xlink:title="This class implements a Shell command.">
<polygon fill="white" stroke="black" points="987.5,-164 987.5,-183 1093.5,-183 1093.5,-164 987.5,-164"/>
<text text-anchor="middle" x="1040.5" y="-171" font-family="Helvetica,sans-Serif" font-size="10.00">Storm::TShell::State</text>
</a>
</g>
</g>
<!-- Node1&#45;&gt;Node19 -->
<g id="edge18" class="edge"><title>Node1&#45;&gt;Node19</title>
<path fill="none" stroke="midnightblue" d="M872.99,-270.025C891.766,-248.535 926.559,-212.461 964,-192.5 971.276,-188.621 979.371,-185.512 987.481,-183.026"/>
<polygon fill="midnightblue" stroke="midnightblue" points="870.232,-267.866 866.391,-277.74 875.551,-272.416 870.232,-267.866"/>
</g>
<!-- Node20 -->
<g id="node20" class="node"><title>Node20</title>
<g id="a_node20"><a xlink:href="class_storm_1_1_t_shell_1_1_user.html" target="_top" xlink:title="This class implements a Shell command.">
<polygon fill="white" stroke="black" points="989,-126 989,-145 1092,-145 1092,-126 989,-126"/>
<text text-anchor="middle" x="1040.5" y="-133" font-family="Helvetica,sans-Serif" font-size="10.00">Storm::TShell::User</text>
</a>
</g>
</g>
<!-- Node1&#45;&gt;Node20 -->
<g id="edge19" class="edge"><title>Node1&#45;&gt;Node20</title>
<path fill="none" stroke="midnightblue" d="M868.192,-268.542C884.106,-239.379 918.597,-183.818 964,-154.5 971.494,-149.661 980.142,-146.054 988.852,-143.366"/>
<polygon fill="midnightblue" stroke="midnightblue" points="864.944,-267.196 863.35,-277.67 871.128,-270.476 864.944,-267.196"/>
</g>
<!-- Node21 -->
<g id="node21" class="node"><title>Node21</title>
<g id="a_node21"><a xlink:href="class_storm_1_1_t_shell_1_1_white_box.html" target="_top" xlink:title="This class implements a Shell command.">
<polygon fill="white" stroke="black" points="978,-88 978,-107 1103,-107 1103,-88 978,-88"/>
<text text-anchor="middle" x="1040.5" y="-95" font-family="Helvetica,sans-Serif" font-size="10.00">Storm::TShell::WhiteBox</text>
</a>
</g>
</g>
<!-- Node1&#45;&gt;Node21 -->
<g id="edge20" class="edge"><title>Node1&#45;&gt;Node21</title>
<path fill="none" stroke="midnightblue" d="M864.829,-268.272C877.6,-232.577 909.937,-156.107 964,-116.5 969.343,-112.586 975.406,-109.474 981.719,-107.001"/>
<polygon fill="midnightblue" stroke="midnightblue" points="861.441,-267.36 861.491,-277.955 868.059,-269.642 861.441,-267.36"/>
</g>
<!-- Node22 -->
<g id="node22" class="node"><title>Node22</title>
<g id="a_node22"><a xlink:href="class_storm_1_1_thermostat_1_1_log.html" target="_top" xlink:title="This class implements a Shell command.">
<polygon fill="white" stroke="black" points="980.5,-50 980.5,-69 1100.5,-69 1100.5,-50 980.5,-50"/>
<text text-anchor="middle" x="1040.5" y="-57" font-family="Helvetica,sans-Serif" font-size="10.00">Storm::Thermostat::Log</text>
</a>
</g>
</g>
<!-- Node1&#45;&gt;Node22 -->
<g id="edge21" class="edge"><title>Node1&#45;&gt;Node22</title>
<path fill="none" stroke="midnightblue" d="M862.637,-267.832C872.459,-226.172 901.211,-128.751 964,-78.5 968.854,-74.615 974.402,-71.5127 980.237,-69.0373"/>
<polygon fill="midnightblue" stroke="midnightblue" points="859.174,-267.281 860.402,-277.805 866.004,-268.813 859.174,-267.281"/>
</g>
<!-- Node23 -->
<g id="node23" class="node"><title>Node23</title>
<g id="a_node23"><a xlink:href="class_storm_1_1_thermostat_1_1_sim_house_1_1_cmd.html" target="_top" xlink:title="This class implements a Shell command.">
<polygon fill="white" stroke="black" points="988.5,-0.5 988.5,-30.5 1092.5,-30.5 1092.5,-0.5 988.5,-0.5"/>
<text text-anchor="start" x="996.5" y="-18.5" font-family="Helvetica,sans-Serif" font-size="10.00">Storm::Thermostat::</text>
<text text-anchor="middle" x="1040.5" y="-7.5" font-family="Helvetica,sans-Serif" font-size="10.00">SimHouse::Cmd</text>
</a>
</g>
</g>
<!-- Node1&#45;&gt;Node23 -->
<g id="edge22" class="edge"><title>Node1&#45;&gt;Node23</title>
<path fill="none" stroke="midnightblue" d="M861.31,-267.895C868.981,-221.551 894.552,-104.352 964,-40.5 970.912,-34.1452 979.479,-29.4024 988.334,-25.8637"/>
<polygon fill="midnightblue" stroke="midnightblue" points="857.841,-267.425 859.763,-277.844 864.758,-268.5 857.841,-267.425"/>
</g>
<!-- Node2 -->
<g id="node2" class="node"><title>Node2</title>
<g id="a_node2"><a xlink:href="class_cpl_1_1_t_shell_1_1_command.html" target="_top" xlink:title="This class defines the interface for a TShell command.">
<polygon fill="white" stroke="black" points="636,-278 636,-297 751,-297 751,-278 636,-278"/>
<text text-anchor="middle" x="693.5" y="-285" font-family="Helvetica,sans-Serif" font-size="10.00">Cpl::TShell::Command</text>
</a>
</g>
</g>
<!-- Node2&#45;&gt;Node1 -->
<g id="edge1" class="edge"><title>Node2&#45;&gt;Node1</title>
<path fill="none" stroke="midnightblue" d="M761.285,-287.5C769.692,-287.5 778.31,-287.5 786.762,-287.5"/>
<polygon fill="midnightblue" stroke="midnightblue" points="761.16,-284 751.16,-287.5 761.16,-291 761.16,-284"/>
</g>
<!-- Node3 -->
<g id="node3" class="node"><title>Node3</title>
<g id="a_node3"><a xlink:href="class_cpl_1_1_container_1_1_map_item.html" target="_top" xlink:title="This abstract class represents a item that can be contained in an Map (aka a sorted list implemented ...">
<polygon fill="white" stroke="black" points="478,-278 478,-297 600,-297 600,-278 478,-278"/>
<text text-anchor="middle" x="539" y="-285" font-family="Helvetica,sans-Serif" font-size="10.00">Cpl::Container::MapItem</text>
</a>
</g>
</g>
<!-- Node3&#45;&gt;Node2 -->
<g id="edge2" class="edge"><title>Node3&#45;&gt;Node2</title>
<path fill="none" stroke="midnightblue" d="M610.482,-287.5C618.915,-287.5 627.441,-287.5 635.647,-287.5"/>
<polygon fill="midnightblue" stroke="midnightblue" points="610.272,-284 600.272,-287.5 610.272,-291 610.272,-284"/>
</g>
<!-- Node4 -->
<g id="node4" class="node"><title>Node4</title>
<g id="a_node4"><a xlink:href="class_cpl_1_1_container_1_1_dict_item.html" target="_top" xlink:title="This abstract class represents a item that can be contained in Dictionary.">
<polygon fill="white" stroke="black" points="321,-278 321,-297 442,-297 442,-278 321,-278"/>
<text text-anchor="middle" x="381.5" y="-285" font-family="Helvetica,sans-Serif" font-size="10.00">Cpl::Container::DictItem</text>
</a>
</g>
</g>
<!-- Node4&#45;&gt;Node3 -->
<g id="edge3" class="edge"><title>Node4&#45;&gt;Node3</title>
<path fill="none" stroke="midnightblue" d="M452.188,-287.5C460.792,-287.5 469.528,-287.5 477.97,-287.5"/>
<polygon fill="midnightblue" stroke="midnightblue" points="452.176,-284 442.176,-287.5 452.176,-291 452.176,-284"/>
</g>
<!-- Node5 -->
<g id="node5" class="node"><title>Node5</title>
<g id="a_node5"><a xlink:href="class_cpl_1_1_container_1_1_extended_item.html" target="_top" xlink:title="This class is used by the Container classes to implement a various types of DOUBLY linked containers.">
<polygon fill="white" stroke="black" points="140,-278 140,-297 285,-297 285,-278 140,-278"/>
<text text-anchor="middle" x="212.5" y="-285" font-family="Helvetica,sans-Serif" font-size="10.00">Cpl::Container::ExtendedItem</text>
</a>
</g>
</g>
<!-- Node5&#45;&gt;Node4 -->
<g id="edge4" class="edge"><title>Node5&#45;&gt;Node4</title>
<path fill="none" stroke="midnightblue" d="M295.342,-287.5C303.93,-287.5 312.542,-287.5 320.813,-287.5"/>
<polygon fill="midnightblue" stroke="midnightblue" points="295.292,-284 285.292,-287.5 295.292,-291 295.292,-284"/>
</g>
<!-- Node6 -->
<g id="node6" class="node"><title>Node6</title>
<g id="a_node6"><a xlink:href="class_cpl_1_1_container_1_1_item.html" target="_top" xlink:title="This class is used by the Container classes to implement a various types of singly linked containers.">
<polygon fill="white" stroke="black" points="0,-278 0,-297 104,-297 104,-278 0,-278"/>
<text text-anchor="middle" x="52" y="-285" font-family="Helvetica,sans-Serif" font-size="10.00">Cpl::Container::Item</text>
</a>
</g>
</g>
<!-- Node6&#45;&gt;Node5 -->
<g id="edge5" class="edge"><title>Node6&#45;&gt;Node5</title>
<path fill="none" stroke="midnightblue" d="M114.109,-287.5C122.516,-287.5 131.212,-287.5 139.789,-287.5"/>
<polygon fill="midnightblue" stroke="midnightblue" points="114.023,-284 104.023,-287.5 114.023,-291 114.023,-284"/>
</g>
<!-- Node13 -->
<g id="node13" class="node"><title>Node13</title>
<g id="a_node13"><a xlink:href="class_cpl_1_1_t_shell_1_1_cmd_1_1_free_r_t_o_s_1_1_threads.html" target="_top" xlink:title="This class implements a TShell command.">
<polygon fill="white" stroke="black" points="1153,-373.5 1153,-403.5 1296,-403.5 1296,-373.5 1153,-373.5"/>
<text text-anchor="start" x="1161" y="-391.5" font-family="Helvetica,sans-Serif" font-size="10.00">Cpl::TShell::Cmd::FreeRTOS</text>
<text text-anchor="middle" x="1224.5" y="-380.5" font-family="Helvetica,sans-Serif" font-size="10.00">::Threads</text>
</a>
</g>
</g>
<!-- Node12&#45;&gt;Node13 -->
<g id="edge12" class="edge"><title>Node12&#45;&gt;Node13</title>
<path fill="none" stroke="midnightblue" d="M1116.66,-373.824C1128.65,-375.472 1141.03,-377.171 1152.91,-378.803"/>
<polygon fill="midnightblue" stroke="midnightblue" points="1117.08,-370.348 1106.69,-372.455 1116.12,-377.283 1117.08,-370.348"/>
</g>
<!-- Node14 -->
<g id="node14" class="node"><title>Node14</title>
<g id="a_node14"><a xlink:href="class_cpl_1_1_t_shell_1_1_cmd_1_1_win32_1_1_threads.html" target="_top" xlink:title="This class implements a TShell command.">
<polygon fill="white" stroke="black" points="1162.5,-324.5 1162.5,-354.5 1286.5,-354.5 1286.5,-324.5 1162.5,-324.5"/>
<text text-anchor="start" x="1170.5" y="-342.5" font-family="Helvetica,sans-Serif" font-size="10.00">Cpl::TShell::Cmd::Win32</text>
<text text-anchor="middle" x="1224.5" y="-331.5" font-family="Helvetica,sans-Serif" font-size="10.00">::Threads</text>
</a>
</g>
</g>
<!-- Node12&#45;&gt;Node14 -->
<g id="edge13" class="edge"><title>Node12&#45;&gt;Node14</title>
<path fill="none" stroke="midnightblue" d="M1117.04,-353.539C1132.16,-351.545 1147.86,-349.475 1162.41,-347.556"/>
<polygon fill="midnightblue" stroke="midnightblue" points="1116.15,-350.126 1106.69,-354.903 1117.06,-357.066 1116.15,-350.126"/>
</g>
</g>
</svg>
