<?xml version="1.0" encoding="UTF-8" standalone="no"?>
<!DOCTYPE svg PUBLIC "-//W3C//DTD SVG 1.1//EN"
 "http://www.w3.org/Graphics/SVG/1.1/DTD/svg11.dtd">
<!-- Generated by graphviz version 2.38.0 (20140413.2041)
 -->
<!-- Title: Cpl::System::CounterCallback_ Pages: 1 -->
<svg width="950pt" height="186pt"
 viewBox="0.00 0.00 950.00 186.00" xmlns="http://www.w3.org/2000/svg" xmlns:xlink="http://www.w3.org/1999/xlink">
<g id="graph0" class="graph" transform="scale(1 1) rotate(0) translate(4 182)">
<title>Cpl::System::CounterCallback_</title>
<polygon fill="white" stroke="none" points="-4,4 -4,-182 946,-182 946,4 -4,4"/>
<!-- Node1 -->
<g id="node1" class="node"><title>Node1</title>
<g id="a_node1"><a xlink:title="This abstract class defines the call&#45;back interface for a Counter object.">
<polygon fill="#bfbfbf" stroke="black" points="321,-55 321,-74 474,-74 474,-55 321,-55"/>
<text text-anchor="middle" x="397.5" y="-62" font-family="Helvetica,sans-Serif" font-size="10.00">Cpl::System::CounterCallback_</text>
</a>
</g>
</g>
<!-- Node4 -->
<g id="node4" class="node"><title>Node4</title>
<g id="a_node4"><a xlink:href="class_cpl_1_1_system_1_1_timer.html" target="_top" xlink:title="This mostly concrete interface defines the operations that can be performed on a software timer.">
<polygon fill="white" stroke="black" points="510,-55 510,-74 611,-74 611,-55 510,-55"/>
<text text-anchor="middle" x="560.5" y="-62" font-family="Helvetica,sans-Serif" font-size="10.00">Cpl::System::Timer</text>
</a>
</g>
</g>
<!-- Node1&#45;&gt;Node4 -->
<g id="edge3" class="edge"><title>Node1&#45;&gt;Node4</title>
<path fill="none" stroke="midnightblue" d="M484.48,-64.5C493.151,-64.5 501.737,-64.5 509.833,-64.5"/>
<polygon fill="midnightblue" stroke="midnightblue" points="484.286,-61.0001 474.286,-64.5 484.286,-68.0001 484.286,-61.0001"/>
</g>
<!-- Node2 -->
<g id="node2" class="node"><title>Node2</title>
<g id="a_node2"><a xlink:href="class_cpl_1_1_container_1_1_extended_item.html" target="_top" xlink:title="This class is used by the Container classes to implement a various types of DOUBLY linked containers.">
<polygon fill="white" stroke="black" points="140,-55 140,-74 285,-74 285,-55 140,-55"/>
<text text-anchor="middle" x="212.5" y="-62" font-family="Helvetica,sans-Serif" font-size="10.00">Cpl::Container::ExtendedItem</text>
</a>
</g>
</g>
<!-- Node2&#45;&gt;Node1 -->
<g id="edge1" class="edge"><title>Node2&#45;&gt;Node1</title>
<path fill="none" stroke="midnightblue" d="M295.305,-64.5C303.784,-64.5 312.375,-64.5 320.783,-64.5"/>
<polygon fill="midnightblue" stroke="midnightblue" points="295.039,-61.0001 285.039,-64.5 295.039,-68.0001 295.039,-61.0001"/>
</g>
<!-- Node3 -->
<g id="node3" class="node"><title>Node3</title>
<g id="a_node3"><a xlink:href="class_cpl_1_1_container_1_1_item.html" target="_top" xlink:title="This class is used by the Container classes to implement a various types of singly linked containers.">
<polygon fill="white" stroke="black" points="0,-55 0,-74 104,-74 104,-55 0,-55"/>
<text text-anchor="middle" x="52" y="-62" font-family="Helvetica,sans-Serif" font-size="10.00">Cpl::Container::Item</text>
</a>
</g>
</g>
<!-- Node3&#45;&gt;Node2 -->
<g id="edge2" class="edge"><title>Node3&#45;&gt;Node2</title>
<path fill="none" stroke="midnightblue" d="M114.109,-64.5C122.516,-64.5 131.212,-64.5 139.789,-64.5"/>
<polygon fill="midnightblue" stroke="midnightblue" points="114.023,-61.0001 104.023,-64.5 114.023,-68.0001 114.023,-61.0001"/>
</g>
<!-- Node5 -->
<g id="node5" class="node"><title>Node5</title>
<g id="a_node5"><a xlink:href="class_cpl_1_1_dm_1_1_persistent_1_1_record.html" target="_top" xlink:title="This mostly concrete class implements the Cpl::Persistent::Record interface where a Record instance c...">
<polygon fill="white" stroke="black" points="669,-98.5 669,-128.5 771,-128.5 771,-98.5 669,-98.5"/>
<text text-anchor="start" x="677" y="-116.5" font-family="Helvetica,sans-Serif" font-size="10.00">Cpl::Dm::Persistent</text>
<text text-anchor="middle" x="720" y="-105.5" font-family="Helvetica,sans-Serif" font-size="10.00">::Record</text>
</a>
</g>
</g>
<!-- Node4&#45;&gt;Node5 -->
<g id="edge4" class="edge"><title>Node4&#45;&gt;Node5</title>
<path fill="none" stroke="midnightblue" d="M601.816,-77.0426C622.803,-83.5719 648.615,-91.6024 670.667,-98.463"/>
<polygon fill="midnightblue" stroke="midnightblue" points="602.83,-73.6928 592.241,-74.064 600.75,-80.3768 602.83,-73.6928"/>
</g>
<!-- Node9 -->
<g id="node9" class="node"><title>Node9</title>
<g id="a_node9"><a xlink:href="class_cpl_1_1_system_1_1_timer_composer.html" target="_top" xlink:title="This template class implements a Software Timer that is context independent and allows for a single c...">
<polygon fill="white" stroke="black" points="647,-49.5 647,-79.5 793,-79.5 793,-49.5 647,-49.5"/>
<text text-anchor="start" x="655" y="-67.5" font-family="Helvetica,sans-Serif" font-size="10.00">Cpl::System::TimerComposer</text>
<text text-anchor="middle" x="720" y="-56.5" font-family="Helvetica,sans-Serif" font-size="10.00">&lt; CONTEXT &gt;</text>
</a>
</g>
</g>
<!-- Node4&#45;&gt;Node9 -->
<g id="edge8" class="edge"><title>Node4&#45;&gt;Node9</title>
<path fill="none" stroke="midnightblue" d="M621.58,-64.5C629.815,-64.5 638.338,-64.5 646.761,-64.5"/>
<polygon fill="midnightblue" stroke="midnightblue" points="621.334,-61.0001 611.334,-64.5 621.334,-68.0001 621.334,-61.0001"/>
</g>
<!-- Node10 -->
<g id="node10" class="node"><title>Node10</title>
<g id="a_node10"><a xlink:href="class_storm_1_1_thermostat_1_1_algorithm.html" target="_top" xlink:title="This concrete class is a &quot;maker&quot; pattern assembles the objects needed for the thermostat&#39;s control al...">
<polygon fill="white" stroke="black" points="668,-0.5 668,-30.5 772,-30.5 772,-0.5 668,-0.5"/>
<text text-anchor="start" x="676" y="-18.5" font-family="Helvetica,sans-Serif" font-size="10.00">Storm::Thermostat::</text>
<text text-anchor="middle" x="720" y="-7.5" font-family="Helvetica,sans-Serif" font-size="10.00">Algorithm</text>
</a>
</g>
</g>
<!-- Node4&#45;&gt;Node10 -->
<g id="edge9" class="edge"><title>Node4&#45;&gt;Node10</title>
<path fill="none" stroke="midnightblue" d="M601.816,-51.9574C622.803,-45.4281 648.615,-37.3976 670.667,-30.537"/>
<polygon fill="midnightblue" stroke="midnightblue" points="600.75,-48.6232 592.241,-54.936 602.83,-55.3072 600.75,-48.6232"/>
</g>
<!-- Node6 -->
<g id="node6" class="node"><title>Node6</title>
<g id="a_node6"><a xlink:href="class_storm_1_1_thermostat_1_1_main_1_1_installer_record.html" target="_top" xlink:title="This concrete class implements the &quot;Record&quot; class for storing Installer settings.">
<polygon fill="white" stroke="black" points="831,-147.5 831,-177.5 940,-177.5 940,-147.5 831,-147.5"/>
<text text-anchor="start" x="839" y="-165.5" font-family="Helvetica,sans-Serif" font-size="10.00">Storm::Thermostat::</text>
<text text-anchor="middle" x="885.5" y="-154.5" font-family="Helvetica,sans-Serif" font-size="10.00">Main::InstallerRecord</text>
</a>
</g>
</g>
<!-- Node5&#45;&gt;Node6 -->
<g id="edge5" class="edge"><title>Node5&#45;&gt;Node6</title>
<path fill="none" stroke="midnightblue" d="M781.438,-131.613C798.82,-136.822 817.584,-142.446 834.277,-147.448"/>
<polygon fill="midnightblue" stroke="midnightblue" points="781.973,-128.12 771.389,-128.601 779.964,-134.825 781.973,-128.12"/>
</g>
<!-- Node7 -->
<g id="node7" class="node"><title>Node7</title>
<g id="a_node7"><a xlink:href="class_storm_1_1_thermostat_1_1_main_1_1_run_time_record.html" target="_top" xlink:title="This concrete class implements the &quot;Record&quot; class for storing persistent run time alerts,...">
<polygon fill="white" stroke="black" points="829,-98.5 829,-128.5 942,-128.5 942,-98.5 829,-98.5"/>
<text text-anchor="start" x="837" y="-116.5" font-family="Helvetica,sans-Serif" font-size="10.00">Storm::Thermostat::</text>
<text text-anchor="middle" x="885.5" y="-105.5" font-family="Helvetica,sans-Serif" font-size="10.00">Main::RunTimeRecord</text>
</a>
</g>
</g>
<!-- Node5&#45;&gt;Node7 -->
<g id="edge6" class="edge"><title>Node5&#45;&gt;Node7</title>
<path fill="none" stroke="midnightblue" d="M781.413,-113.5C796.947,-113.5 813.587,-113.5 828.866,-113.5"/>
<polygon fill="midnightblue" stroke="midnightblue" points="781.39,-110 771.389,-113.5 781.389,-117 781.39,-110"/>
</g>
<!-- Node8 -->
<g id="node8" class="node"><title>Node8</title>
<g id="a_node8"><a xlink:href="class_storm_1_1_thermostat_1_1_main_1_1_user_record.html" target="_top" xlink:title="This concrete class implements the &quot;Record&quot; class for storing user settings.">
<polygon fill="white" stroke="black" points="833.5,-49.5 833.5,-79.5 937.5,-79.5 937.5,-49.5 833.5,-49.5"/>
<text text-anchor="start" x="841.5" y="-67.5" font-family="Helvetica,sans-Serif" font-size="10.00">Storm::Thermostat::</text>
<text text-anchor="middle" x="885.5" y="-56.5" font-family="Helvetica,sans-Serif" font-size="10.00">Main::UserRecord</text>
</a>
</g>
</g>
<!-- Node5&#45;&gt;Node8 -->
<g id="edge7" class="edge"><title>Node5&#45;&gt;Node8</title>
<path fill="none" stroke="midnightblue" d="M781.438,-95.3871C798.82,-90.1778 817.584,-84.5543 834.277,-79.5516"/>
<polygon fill="midnightblue" stroke="midnightblue" points="779.964,-92.175 771.389,-98.3986 781.973,-98.8804 779.964,-92.175"/>
</g>
</g>
</svg>
