<?xml version="1.0" encoding="UTF-8" standalone="no"?>
<!DOCTYPE svg PUBLIC "-//W3C//DTD SVG 1.1//EN"
 "http://www.w3.org/Graphics/SVG/1.1/DTD/svg11.dtd">
<!-- Generated by graphviz version 10.0.1 (20240210.2158)
 -->
<!-- Title: Cpl::Io::Socket::InputOutput Pages: 1 -->
<svg width="267pt" height="267pt"
 viewBox="0.00 0.00 267.12 267.00" xmlns="http://www.w3.org/2000/svg" xmlns:xlink="http://www.w3.org/1999/xlink">
<g id="graph0" class="graph" transform="scale(1 1) rotate(0) translate(4 263)">
<title>Cpl::Io::Socket::InputOutput</title>
<!-- Node1 -->
<g id="Node000001" class="node">
<title>Node1</title>
<g id="a_Node000001"><a xlink:title="This concrete class provides a platform independent &#39;standard&#39; implementation of an InputOutput strea...">
<polygon fill="#999999" stroke="#666666" points="222.5,-20 85.75,-20 85.75,0 222.5,0 222.5,-20"/>
<text text-anchor="middle" x="154.12" y="-6.5" font-family="Helvetica,sans-Serif" font-size="10.00">Cpl::Io::Socket::InputOutput</text>
</a>
</g>
</g>
<!-- Node2 -->
<g id="Node000002" class="node">
<title>Node2</title>
<g id="a_Node000002"><a xlink:href="class_cpl_1_1_io_1_1_input_output.html" target="_top" xlink:title="This abstract class defines a interface for operating on an input&#45;output stream (example of a stream ...">
<polygon fill="white" stroke="#666666" points="147.12,-88 47.12,-88 47.12,-68 147.12,-68 147.12,-88"/>
<text text-anchor="middle" x="97.12" y="-74.5" font-family="Helvetica,sans-Serif" font-size="10.00">Cpl::Io::InputOutput</text>
</a>
</g>
</g>
<!-- Node2&#45;&gt;Node1 -->
<g id="edge1_Node000001_Node000002" class="edge">
<title>Node2&#45;&gt;Node1</title>
<g id="a_edge1_Node000001_Node000002"><a xlink:title=" ">
<path fill="none" stroke="#63b8ff" d="M112.77,-58.88C123.52,-46.44 137.34,-30.43 145.97,-20.44"/>
<polygon fill="#63b8ff" stroke="#63b8ff" points="110.17,-56.54 106.28,-66.4 115.47,-61.12 110.17,-56.54"/>
</a>
</g>
</g>
<!-- Node3 -->
<g id="Node000003" class="node">
<title>Node3</title>
<g id="a_Node000003"><a xlink:href="class_cpl_1_1_io_1_1_input.html" target="_top" xlink:title="This partially abstract class defines a interface for operating on an input stream (example of a stre...">
<polygon fill="white" stroke="#666666" points="86.5,-145 15.75,-145 15.75,-125 86.5,-125 86.5,-145"/>
<text text-anchor="middle" x="51.12" y="-131.5" font-family="Helvetica,sans-Serif" font-size="10.00">Cpl::Io::Input</text>
</a>
</g>
</g>
<!-- Node3&#45;&gt;Node2 -->
<g id="edge2_Node000002_Node000003" class="edge">
<title>Node3&#45;&gt;Node2</title>
<g id="a_edge2_Node000002_Node000003"><a xlink:title=" ">
<path fill="none" stroke="#63b8ff" d="M65.88,-116.36C73.69,-107.02 82.96,-95.94 89.36,-88.28"/>
<polygon fill="#63b8ff" stroke="#63b8ff" points="63.42,-113.84 59.69,-123.76 68.79,-118.33 63.42,-113.84"/>
</a>
</g>
</g>
<!-- Node4 -->
<g id="Node000004" class="node">
<title>Node4</title>
<g id="a_Node000004"><a xlink:href="class_cpl_1_1_io_1_1_close.html" target="_top" xlink:title="This abstract class defines a close operation that is intended to be used Input and Output streams/fi...">
<polygon fill="white" stroke="#666666" points="88.38,-202 13.88,-202 13.88,-182 88.38,-182 88.38,-202"/>
<text text-anchor="middle" x="51.12" y="-188.5" font-family="Helvetica,sans-Serif" font-size="10.00">Cpl::Io::Close</text>
</a>
</g>
</g>
<!-- Node4&#45;&gt;Node3 -->
<g id="edge3_Node000003_Node000004" class="edge">
<title>Node4&#45;&gt;Node3</title>
<g id="a_edge3_Node000003_Node000004"><a xlink:title=" ">
<path fill="none" stroke="#63b8ff" d="M51.12,-170.69C51.12,-161.97 51.12,-152.22 51.12,-145.28"/>
<polygon fill="#63b8ff" stroke="#63b8ff" points="47.63,-170.4 51.13,-180.4 54.63,-170.4 47.63,-170.4"/>
</a>
</g>
</g>
<!-- Node7 -->
<g id="Node000007" class="node">
<title>Node7</title>
<g id="a_Node000007"><a xlink:href="class_cpl_1_1_io_1_1_output.html" target="_top" xlink:title="This partially abstract class defines a interface for operating on an output stream (example of a str...">
<polygon fill="white" stroke="#666666" points="183.62,-145 104.62,-145 104.62,-125 183.62,-125 183.62,-145"/>
<text text-anchor="middle" x="144.12" y="-131.5" font-family="Helvetica,sans-Serif" font-size="10.00">Cpl::Io::Output</text>
</a>
</g>
</g>
<!-- Node4&#45;&gt;Node7 -->
<g id="edge7_Node000007_Node000004" class="edge">
<title>Node4&#45;&gt;Node7</title>
<g id="a_edge7_Node000007_Node000004"><a xlink:title=" ">
<path fill="none" stroke="#63b8ff" d="M76.51,-175.99C93.04,-166.21 114.08,-153.77 128.27,-145.38"/>
<polygon fill="#63b8ff" stroke="#63b8ff" points="75.03,-172.8 68.2,-180.9 78.59,-178.82 75.03,-172.8"/>
</a>
</g>
</g>
<!-- Node5 -->
<g id="Node000005" class="node">
<title>Node5</title>
<g id="a_Node000005"><a xlink:href="class_cpl_1_1_container_1_1_item.html" target="_top" xlink:title="This class is used by the Container classes to implement a various types of singly linked containers.">
<polygon fill="white" stroke="#666666" points="102.25,-259 0,-259 0,-239 102.25,-239 102.25,-259"/>
<text text-anchor="middle" x="51.12" y="-245.5" font-family="Helvetica,sans-Serif" font-size="10.00">Cpl::Container::Item</text>
</a>
</g>
</g>
<!-- Node5&#45;&gt;Node4 -->
<g id="edge4_Node000004_Node000005" class="edge">
<title>Node5&#45;&gt;Node4</title>
<g id="a_edge4_Node000004_Node000005"><a xlink:title=" ">
<path fill="none" stroke="#63b8ff" d="M51.12,-227.69C51.12,-218.97 51.12,-209.22 51.12,-202.28"/>
<polygon fill="#63b8ff" stroke="#63b8ff" points="47.63,-227.4 51.13,-237.4 54.63,-227.4 47.63,-227.4"/>
</a>
</g>
</g>
<!-- Node6 -->
<g id="Node000006" class="node">
<title>Node6</title>
<g id="a_Node000006"><a xlink:href="class_cpl_1_1_io_1_1_is_eos.html" target="_top" xlink:title="This abstract class defines a isEos() operation that is intended to be used Input and Output streams.">
<polygon fill="white" stroke="#666666" points="181.38,-202 106.88,-202 106.88,-182 181.38,-182 181.38,-202"/>
<text text-anchor="middle" x="144.12" y="-188.5" font-family="Helvetica,sans-Serif" font-size="10.00">Cpl::Io::IsEos</text>
</a>
</g>
</g>
<!-- Node6&#45;&gt;Node3 -->
<g id="edge5_Node000003_Node000006" class="edge">
<title>Node6&#45;&gt;Node3</title>
<g id="a_edge5_Node000003_Node000006"><a xlink:title=" ">
<path fill="none" stroke="#63b8ff" d="M118.74,-175.99C102.21,-166.21 81.17,-153.77 66.98,-145.38"/>
<polygon fill="#63b8ff" stroke="#63b8ff" points="116.66,-178.82 127.05,-180.9 120.22,-172.8 116.66,-178.82"/>
</a>
</g>
</g>
<!-- Node6&#45;&gt;Node7 -->
<g id="edge8_Node000007_Node000006" class="edge">
<title>Node6&#45;&gt;Node7</title>
<g id="a_edge8_Node000007_Node000006"><a xlink:title=" ">
<path fill="none" stroke="#63b8ff" d="M144.12,-170.69C144.12,-161.97 144.12,-152.22 144.12,-145.28"/>
<polygon fill="#63b8ff" stroke="#63b8ff" points="140.63,-170.4 144.13,-180.4 147.63,-170.4 140.63,-170.4"/>
</a>
</g>
</g>
<!-- Node7&#45;&gt;Node2 -->
<g id="edge6_Node000002_Node000007" class="edge">
<title>Node7&#45;&gt;Node2</title>
<g id="a_edge6_Node000002_Node000007"><a xlink:title=" ">
<path fill="none" stroke="#63b8ff" d="M129.05,-116.36C121.07,-107.02 111.6,-95.94 105.05,-88.28"/>
<polygon fill="#63b8ff" stroke="#63b8ff" points="126.22,-118.44 135.38,-123.77 131.54,-113.89 126.22,-118.44"/>
</a>
</g>
</g>
<!-- Node8 -->
<g id="Node000008" class="node">
<title>Node8</title>
<g id="a_Node000008"><a xlink:href="union_cpl_1_1_io_1_1_descriptor.html" target="_top" xlink:title="This union defines a &#39;IO descriptor&#39; in terms of a an integer and/or a void*.">
<polygon fill="white" stroke="#666666" points="259.12,-88 165.12,-88 165.12,-68 259.12,-68 259.12,-88"/>
<text text-anchor="middle" x="212.12" y="-74.5" font-family="Helvetica,sans-Serif" font-size="10.00">Cpl::Io::Descriptor</text>
</a>
</g>
</g>
<!-- Node8&#45;&gt;Node1 -->
<g id="edge9_Node000001_Node000008" class="edge">
<title>Node8&#45;&gt;Node1</title>
<g id="a_edge9_Node000001_Node000008"><a xlink:title=" ">
<path fill="none" stroke="#9a32cd" stroke-dasharray="5,2" d="M196.53,-59.25C185.55,-46.76 171.29,-30.53 162.42,-20.44"/>
<polygon fill="#9a32cd" stroke="#9a32cd" points="193.59,-61.21 202.82,-66.41 198.84,-56.58 193.59,-61.21"/>
</a>
</g>
<text text-anchor="middle" x="200.12" y="-40.5" font-family="Helvetica,sans-Serif" font-size="10.00" fill="grey"> m_fd</text>
</g>
</g>
</svg>
