<?xml version="1.0" encoding="UTF-8" standalone="no"?>
<!DOCTYPE svg PUBLIC "-//W3C//DTD SVG 1.1//EN"
 "http://www.w3.org/Graphics/SVG/1.1/DTD/svg11.dtd">
<!-- Generated by graphviz version 2.38.0 (20140413.2041)
 -->
<!-- Title: Storm::Component::Equipment::Stage::BasicCooling Pages: 1 -->
<svg width="960pt" height="115pt"
 viewBox="0.00 0.00 960.00 115.00" xmlns="http://www.w3.org/2000/svg" xmlns:xlink="http://www.w3.org/1999/xlink">
<g id="graph0" class="graph" transform="scale(1 1) rotate(0) translate(4 111)">
<title>Storm::Component::Equipment::Stage::BasicCooling</title>
<polygon fill="white" stroke="none" points="-4,4 -4,-111 956,-111 956,4 -4,4"/>
<!-- Node1 -->
<g id="node1" class="node"><title>Node1</title>
<g id="a_node1"><a xlink:title="This concrete class implements the Storm::Component::Equipment::Stage interface for a single compress...">
<polygon fill="#bfbfbf" stroke="black" points="801,-57.5 801,-87.5 952,-87.5 952,-57.5 801,-57.5"/>
<text text-anchor="start" x="809" y="-75.5" font-family="Helvetica,sans-Serif" font-size="10.00">Storm::Component::Equipment</text>
<text text-anchor="middle" x="876.5" y="-64.5" font-family="Helvetica,sans-Serif" font-size="10.00">::Stage::BasicCooling</text>
</a>
</g>
</g>
<!-- Node2 -->
<g id="node2" class="node"><title>Node2</title>
<g id="a_node2"><a xlink:href="class_storm_1_1_component_1_1_equipment_1_1_stage_1_1_basic.html" target="_top" xlink:title="This partially concrete class implements the Storm::Component::Equipment::Stage interface for a singl...">
<polygon fill="white" stroke="black" points="613,-57.5 613,-87.5 764,-87.5 764,-57.5 613,-57.5"/>
<text text-anchor="start" x="621" y="-75.5" font-family="Helvetica,sans-Serif" font-size="10.00">Storm::Component::Equipment</text>
<text text-anchor="middle" x="688.5" y="-64.5" font-family="Helvetica,sans-Serif" font-size="10.00">::Stage::Basic</text>
</a>
</g>
</g>
<!-- Node2&#45;&gt;Node1 -->
<g id="edge1" class="edge"><title>Node2&#45;&gt;Node1</title>
<path fill="none" stroke="midnightblue" d="M774.11,-72.5C783.048,-72.5 792.09,-72.5 800.902,-72.5"/>
<polygon fill="midnightblue" stroke="midnightblue" points="774.082,-69.0001 764.082,-72.5 774.082,-76.0001 774.082,-69.0001"/>
</g>
<!-- Node3 -->
<g id="node3" class="node"><title>Node3</title>
<g id="a_node3"><a xlink:href="class_storm_1_1_component_1_1_equipment_1_1_stage_api.html" target="_top" xlink:title="This abstract class define &#39;equipments&#39; interface to a &quot;stage&quot;.">
<polygon fill="white" stroke="black" points="425,-76.5 425,-106.5 576,-106.5 576,-76.5 425,-76.5"/>
<text text-anchor="start" x="433" y="-94.5" font-family="Helvetica,sans-Serif" font-size="10.00">Storm::Component::Equipment</text>
<text text-anchor="middle" x="500.5" y="-83.5" font-family="Helvetica,sans-Serif" font-size="10.00">::StageApi</text>
</a>
</g>
</g>
<!-- Node3&#45;&gt;Node2 -->
<g id="edge2" class="edge"><title>Node3&#45;&gt;Node2</title>
<path fill="none" stroke="midnightblue" d="M586.11,-82.857C595.048,-81.944 604.09,-81.0204 612.902,-80.1203"/>
<polygon fill="midnightblue" stroke="midnightblue" points="585.674,-79.3833 576.082,-83.8815 586.386,-86.347 585.674,-79.3833"/>
</g>
<!-- Node4 -->
<g id="node4" class="node"><title>Node4</title>
<g id="a_node4"><a xlink:href="class_storm_1_1_component_1_1_equipment_1_1_stage_1_1_fsm_event_queue__.html" target="_top" xlink:title="Event Queue for FSM events.">
<polygon fill="white" stroke="black" points="425,-27.5 425,-57.5 576,-57.5 576,-27.5 425,-27.5"/>
<text text-anchor="start" x="433" y="-45.5" font-family="Helvetica,sans-Serif" font-size="10.00">Storm::Component::Equipment</text>
<text text-anchor="middle" x="500.5" y="-34.5" font-family="Helvetica,sans-Serif" font-size="10.00">::Stage::FsmEventQueue_</text>
</a>
</g>
</g>
<!-- Node4&#45;&gt;Node2 -->
<g id="edge3" class="edge"><title>Node4&#45;&gt;Node2</title>
<path fill="none" stroke="midnightblue" d="M586.11,-56.1468C595.048,-57.5884 604.09,-59.0467 612.902,-60.468"/>
<polygon fill="midnightblue" stroke="midnightblue" points="586.511,-52.6664 576.082,-54.5293 585.397,-59.577 586.511,-52.6664"/>
</g>
<!-- Node5 -->
<g id="node5" class="node"><title>Node5</title>
<g id="a_node5"><a xlink:href="class_storm_1_1_component_1_1_equipment_1_1_stage_1_1_fsm.html" target="_top" xlink:title="Here is the graph that shows the state machine this class implements.">
<polygon fill="white" stroke="black" points="305,-50 305,-69 341,-69 341,-50 305,-50"/>
<text text-anchor="middle" x="323" y="-57" font-family="Helvetica,sans-Serif" font-size="10.00">Fsm</text>
</a>
</g>
</g>
<!-- Node5&#45;&gt;Node4 -->
<g id="edge4" class="edge"><title>Node5&#45;&gt;Node4</title>
<path fill="none" stroke="midnightblue" d="M351.223,-56.863C370.942,-54.9529 398.612,-52.2727 424.716,-49.744"/>
<polygon fill="midnightblue" stroke="midnightblue" points="350.763,-53.3911 341.147,-57.839 351.438,-60.3585 350.763,-53.3911"/>
</g>
<!-- Node6 -->
<g id="node6" class="node"><title>Node6</title>
<g id="a_node6"><a xlink:href="class_cpl_1_1_container_1_1_ring_buffer.html" target="_top" xlink:title=" ">
<polygon fill="white" stroke="black" points="258,-0.5 258,-30.5 388,-30.5 388,-0.5 258,-0.5"/>
<text text-anchor="start" x="266" y="-18.5" font-family="Helvetica,sans-Serif" font-size="10.00">Cpl::Container::RingBuffer</text>
<text text-anchor="middle" x="323" y="-7.5" font-family="Helvetica,sans-Serif" font-size="10.00">&lt; FSM_EVENT_T &gt;</text>
</a>
</g>
</g>
<!-- Node6&#45;&gt;Node4 -->
<g id="edge5" class="edge"><title>Node6&#45;&gt;Node4</title>
<path fill="none" stroke="midnightblue" d="M398.465,-26.9562C407.167,-28.2949 416.047,-29.661 424.752,-31.0003"/>
<polygon fill="midnightblue" stroke="midnightblue" points="398.769,-23.4618 388.353,-25.4005 397.705,-30.3804 398.769,-23.4618"/>
</g>
<!-- Node7 -->
<g id="node7" class="node"><title>Node7</title>
<g id="a_node7"><a xlink:href="class_cpl_1_1_container_1_1_ring_buffer.html" target="_top" xlink:title="This template class implements a Ring Buffer.">
<polygon fill="white" stroke="black" points="0,-0.5 0,-30.5 130,-30.5 130,-0.5 0,-0.5"/>
<text text-anchor="start" x="8" y="-18.5" font-family="Helvetica,sans-Serif" font-size="10.00">Cpl::Container::RingBuffer</text>
<text text-anchor="middle" x="65" y="-7.5" font-family="Helvetica,sans-Serif" font-size="10.00">&lt; ITEM &gt;</text>
</a>
</g>
</g>
<!-- Node7&#45;&gt;Node6 -->
<g id="edge6" class="edge"><title>Node7&#45;&gt;Node6</title>
<path fill="none" stroke="orange" stroke-dasharray="5,2" d="M140.533,-15.5C177.656,-15.5 222.095,-15.5 257.704,-15.5"/>
<polygon fill="orange" stroke="orange" points="140.269,-12.0001 130.269,-15.5 140.269,-19.0001 140.269,-12.0001"/>
<text text-anchor="middle" x="194" y="-18.5" font-family="Helvetica,sans-Serif" font-size="10.00"> &lt; FSM_EVENT_T &gt;</text>
</g>
</g>
</svg>
