<?xml version="1.0" encoding="UTF-8" standalone="no"?>
<!DOCTYPE svg PUBLIC "-//W3C//DTD SVG 1.1//EN"
 "http://www.w3.org/Graphics/SVG/1.1/DTD/svg11.dtd">
<!-- Generated by graphviz version 2.38.0 (20140413.2041)
 -->
<!-- Title: Storm::Component::HvacRelayOutputs Pages: 1 -->
<svg width="2609pt" height="402pt"
 viewBox="0.00 0.00 2609.00 401.50" xmlns="http://www.w3.org/2000/svg" xmlns:xlink="http://www.w3.org/1999/xlink">
<g id="graph0" class="graph" transform="scale(1 1) rotate(0) translate(4 397.5)">
<title>Storm::Component::HvacRelayOutputs</title>
<polygon fill="white" stroke="none" points="-4,4 -4,-397.5 2605,-397.5 2605,4 -4,4"/>
<!-- Node1 -->
<g id="node1" class="node"><title>Node1</title>
<g id="a_node1"><a xlink:title="This class is responsible for implementing the Indoor Fan Policies (e.g.">
<polygon fill="#bfbfbf" stroke="black" points="2449,-213.5 2449,-243.5 2601,-243.5 2601,-213.5 2449,-213.5"/>
<text text-anchor="start" x="2457" y="-231.5" font-family="Helvetica,sans-Serif" font-size="10.00">Storm::Component::HvacRelay</text>
<text text-anchor="middle" x="2525" y="-220.5" font-family="Helvetica,sans-Serif" font-size="10.00">Outputs</text>
</a>
</g>
</g>
<!-- Node2 -->
<g id="node2" class="node"><title>Node2</title>
<g id="a_node2"><a xlink:href="class_storm_1_1_component_1_1_base.html" target="_top" xlink:title="This partially concrete class provide core infrastructure for Components.">
<polygon fill="white" stroke="black" points="1692.5,-330 1692.5,-349 1819.5,-349 1819.5,-330 1692.5,-330"/>
<text text-anchor="middle" x="1756" y="-337" font-family="Helvetica,sans-Serif" font-size="10.00">Storm::Component::Base</text>
</a>
</g>
</g>
<!-- Node2&#45;&gt;Node1 -->
<g id="edge1" class="edge"><title>Node2&#45;&gt;Node1</title>
<path fill="none" stroke="midnightblue" d="M1829.87,-330.057C1946.57,-314.776 2182.57,-283.227 2382,-252.5 2403.75,-249.15 2427.32,-245.267 2448.9,-241.613"/>
<polygon fill="midnightblue" stroke="midnightblue" points="1829.09,-326.629 1819.63,-331.396 1830,-333.57 1829.09,-326.629"/>
</g>
<!-- Node3 -->
<g id="node3" class="node"><title>Node3</title>
<g id="a_node3"><a xlink:href="class_storm_1_1_component_1_1_api.html" target="_top" xlink:title="This class define the interface for a Component.">
<polygon fill="white" stroke="black" points="1392.5,-374 1392.5,-393 1511.5,-393 1511.5,-374 1392.5,-374"/>
<text text-anchor="middle" x="1452" y="-381" font-family="Helvetica,sans-Serif" font-size="10.00">Storm::Component::Api</text>
</a>
</g>
</g>
<!-- Node3&#45;&gt;Node2 -->
<g id="edge2" class="edge"><title>Node3&#45;&gt;Node2</title>
<path fill="none" stroke="midnightblue" d="M1521.65,-380.041C1560.41,-377.41 1609.63,-372.93 1653,-365.5 1676.78,-361.427 1703.15,-354.641 1723.12,-349.024"/>
<polygon fill="midnightblue" stroke="midnightblue" points="1521.27,-376.558 1511.52,-380.703 1521.72,-383.543 1521.27,-376.558"/>
</g>
<!-- Node4 -->
<g id="node4" class="node"><title>Node4</title>
<g id="a_node4"><a xlink:href="struct_cpl_1_1_system_1_1_elapsed_time_1_1_precision___tag.html" target="_top" xlink:title="Data type for time in seconds with a &#39;fractional&#39; millisecond precision.">
<polygon fill="white" stroke="black" points="1385,-324.5 1385,-354.5 1519,-354.5 1519,-324.5 1385,-324.5"/>
<text text-anchor="start" x="1393" y="-342.5" font-family="Helvetica,sans-Serif" font-size="10.00">Cpl::System::ElapsedTime</text>
<text text-anchor="middle" x="1452" y="-331.5" font-family="Helvetica,sans-Serif" font-size="10.00">::Precision_Tag</text>
</a>
</g>
</g>
<!-- Node4&#45;&gt;Node2 -->
<g id="edge3" class="edge"><title>Node4&#45;&gt;Node2</title>
<path fill="none" stroke="#9a32cd" stroke-dasharray="5,2" d="M1529.48,-339.5C1579.92,-339.5 1645.16,-339.5 1692.49,-339.5"/>
<polygon fill="#9a32cd" stroke="#9a32cd" points="1529.28,-336 1519.28,-339.5 1529.28,-343 1529.28,-336"/>
<text text-anchor="middle" x="1598" y="-353.5" font-family="Helvetica,sans-Serif" font-size="10.00"> m_timeMark</text>
<text text-anchor="middle" x="1598" y="-342.5" font-family="Helvetica,sans-Serif" font-size="10.00">m_interval</text>
</g>
<!-- Node31 -->
<g id="node31" class="node"><title>Node31</title>
<g id="a_node31"><a xlink:href="namespace_storm_1_1_type.html#struct_storm_1_1_type_1_1_equipment_times___t" target="_top" xlink:title="The following typedef is used to store the &#39;begin times&#39; for the Indoor and Outdoor HVAC equipment.">
<polygon fill="white" stroke="black" points="1675.5,-203 1675.5,-222 1836.5,-222 1836.5,-203 1675.5,-203"/>
<text text-anchor="middle" x="1756" y="-210" font-family="Helvetica,sans-Serif" font-size="10.00">Storm::Type::EquipmentTimes_T</text>
</a>
</g>
</g>
<!-- Node4&#45;&gt;Node31 -->
<g id="edge36" class="edge"><title>Node4&#45;&gt;Node31</title>
<path fill="none" stroke="#9a32cd" stroke-dasharray="5,2" d="M1476.4,-317.072C1493.6,-301.696 1518.2,-281.909 1543,-269.5 1591.23,-245.366 1650.91,-230.497 1694.65,-222.024"/>
<polygon fill="#9a32cd" stroke="#9a32cd" points="1473.6,-314.885 1468.58,-324.214 1478.32,-320.053 1473.6,-314.885"/>
<text text-anchor="middle" x="1598" y="-327.5" font-family="Helvetica,sans-Serif" font-size="10.00"> indoorUnitBeginOnTime</text>
<text text-anchor="middle" x="1598" y="-316.5" font-family="Helvetica,sans-Serif" font-size="10.00">systemBeginOnTime</text>
<text text-anchor="middle" x="1598" y="-305.5" font-family="Helvetica,sans-Serif" font-size="10.00">outdoorUnitBeginOffTime</text>
<text text-anchor="middle" x="1598" y="-294.5" font-family="Helvetica,sans-Serif" font-size="10.00">outdoorUnitBeginOnTime</text>
<text text-anchor="middle" x="1598" y="-283.5" font-family="Helvetica,sans-Serif" font-size="10.00">systemBeginOffTime</text>
<text text-anchor="middle" x="1598" y="-272.5" font-family="Helvetica,sans-Serif" font-size="10.00">indoorUnitBeginOffTime</text>
</g>
<!-- Node5 -->
<g id="node5" class="node"><title>Node5</title>
<g id="a_node5"><a xlink:href="class_storm_1_1_component_1_1_hvac_relay_outputs.html#struct_storm_1_1_component_1_1_hvac_relay_outputs_1_1_input___t" target="_top" xlink:title="Input Model Points.">
<polygon fill="white" stroke="black" points="2230,-94.5 2230,-124.5 2382,-124.5 2382,-94.5 2230,-94.5"/>
<text text-anchor="start" x="2238" y="-112.5" font-family="Helvetica,sans-Serif" font-size="10.00">Storm::Component::HvacRelay</text>
<text text-anchor="middle" x="2306" y="-101.5" font-family="Helvetica,sans-Serif" font-size="10.00">Outputs::Input_T</text>
</a>
</g>
</g>
<!-- Node5&#45;&gt;Node1 -->
<g id="edge4" class="edge"><title>Node5&#45;&gt;Node1</title>
<path fill="none" stroke="#9a32cd" stroke-dasharray="5,2" d="M2343.51,-129.524C2386.68,-153.197 2457.55,-192.06 2496.4,-213.363"/>
<polygon fill="#9a32cd" stroke="#9a32cd" points="2344.93,-126.311 2334.48,-124.571 2341.57,-132.449 2344.93,-126.311"/>
<text text-anchor="middle" x="2415.5" y="-179.5" font-family="Helvetica,sans-Serif" font-size="10.00"> m_in</text>
</g>
<!-- Node6 -->
<g id="node6" class="node"><title>Node6</title>
<g id="a_node6"><a xlink:href="class_cpl_1_1_dm_1_1_mp_1_1_ref_counter.html" target="_top" xlink:title="This class provides a concrete implementation for a Point who&#39;s data is 32 bit unsigned reference cou...">
<polygon fill="white" stroke="black" points="1939.5,-62 1939.5,-81 2065.5,-81 2065.5,-62 1939.5,-62"/>
<text text-anchor="middle" x="2002.5" y="-69" font-family="Helvetica,sans-Serif" font-size="10.00">Cpl::Dm::Mp::RefCounter</text>
</a>
</g>
</g>
<!-- Node6&#45;&gt;Node5 -->
<g id="edge5" class="edge"><title>Node6&#45;&gt;Node5</title>
<path fill="none" stroke="#9a32cd" stroke-dasharray="5,2" d="M2075.62,-78.5577C2115.82,-82.7173 2166.76,-88.3598 2212,-94.5 2217.83,-95.2918 2223.87,-96.1575 2229.93,-97.0607"/>
<polygon fill="#9a32cd" stroke="#9a32cd" points="2075.94,-75.0729 2065.64,-77.5328 2075.23,-82.0362 2075.94,-75.0729"/>
<text text-anchor="middle" x="2157.5" y="-97.5" font-family="Helvetica,sans-Serif" font-size="10.00"> systemForcedOffRefCnt</text>
</g>
<!-- Node7 -->
<g id="node7" class="node"><title>Node7</title>
<g id="a_node7"><a xlink:href="class_cpl_1_1_dm_1_1_mp_1_1_basic.html" target="_top" xlink:title=" ">
<polygon fill="white" stroke="black" points="1705,-56.5 1705,-86.5 1807,-86.5 1807,-56.5 1705,-56.5"/>
<text text-anchor="start" x="1713" y="-74.5" font-family="Helvetica,sans-Serif" font-size="10.00">Cpl::Dm::Mp::Basic</text>
<text text-anchor="middle" x="1756" y="-63.5" font-family="Helvetica,sans-Serif" font-size="10.00">&lt; uint32_t &gt;</text>
</a>
</g>
</g>
<!-- Node7&#45;&gt;Node6 -->
<g id="edge6" class="edge"><title>Node7&#45;&gt;Node6</title>
<path fill="none" stroke="midnightblue" d="M1817.25,-71.5C1854.37,-71.5 1901.86,-71.5 1939.34,-71.5"/>
<polygon fill="midnightblue" stroke="midnightblue" points="1817.07,-68.0001 1807.07,-71.5 1817.07,-75.0001 1817.07,-68.0001"/>
</g>
<!-- Node8 -->
<g id="node8" class="node"><title>Node8</title>
<g id="a_node8"><a xlink:href="class_cpl_1_1_dm_1_1_model_point_common__.html" target="_top" xlink:title="This concrete class provide common infrastructure for a Model Point.">
<polygon fill="white" stroke="black" points="1156,-109 1156,-128 1307,-128 1307,-109 1156,-109"/>
<text text-anchor="middle" x="1231.5" y="-116" font-family="Helvetica,sans-Serif" font-size="10.00">Cpl::Dm::ModelPointCommon_</text>
</a>
</g>
</g>
<!-- Node8&#45;&gt;Node7 -->
<g id="edge7" class="edge"><title>Node8&#45;&gt;Node7</title>
<path fill="none" stroke="midnightblue" d="M1264.91,-105.098C1282.39,-98.5237 1304.52,-91.2318 1325,-87.5 1460.6,-62.7862 1624.09,-65.3844 1704.84,-68.7636"/>
<polygon fill="midnightblue" stroke="midnightblue" points="1263.27,-101.981 1255.21,-108.854 1265.8,-108.509 1263.27,-101.981"/>
</g>
<!-- Node25 -->
<g id="node25" class="node"><title>Node25</title>
<g id="a_node25"><a xlink:href="class_cpl_1_1_dm_1_1_mp_1_1_basic.html" target="_top" xlink:title="This template class provides a mostly concrete implementation for a Model Point who&#39;s data is a C pri...">
<polygon fill="white" stroke="black" points="1401,-130.5 1401,-160.5 1503,-160.5 1503,-130.5 1401,-130.5"/>
<text text-anchor="start" x="1409" y="-148.5" font-family="Helvetica,sans-Serif" font-size="10.00">Cpl::Dm::Mp::Basic</text>
<text text-anchor="middle" x="1452" y="-137.5" font-family="Helvetica,sans-Serif" font-size="10.00">&lt; ELEMTYPE &gt;</text>
</a>
</g>
</g>
<!-- Node8&#45;&gt;Node25 -->
<g id="edge25" class="edge"><title>Node8&#45;&gt;Node25</title>
<path fill="none" stroke="midnightblue" d="M1317.36,-128.986C1345.57,-132.472 1376.06,-136.24 1400.79,-139.296"/>
<polygon fill="midnightblue" stroke="midnightblue" points="1317.44,-125.469 1307.08,-127.716 1316.58,-132.416 1317.44,-125.469"/>
</g>
<!-- Node27 -->
<g id="node27" class="node"><title>Node27</title>
<g id="a_node27"><a xlink:href="class_cpl_1_1_dm_1_1_mp_1_1_basic.html" target="_top" xlink:title=" ">
<polygon fill="white" stroke="black" points="1705,-151.5 1705,-181.5 1807,-181.5 1807,-151.5 1705,-151.5"/>
<text text-anchor="start" x="1713" y="-169.5" font-family="Helvetica,sans-Serif" font-size="10.00">Cpl::Dm::Mp::Basic</text>
<text text-anchor="middle" x="1756" y="-158.5" font-family="Helvetica,sans-Serif" font-size="10.00">&lt; bool &gt;</text>
</a>
</g>
</g>
<!-- Node8&#45;&gt;Node27 -->
<g id="edge28" class="edge"><title>Node8&#45;&gt;Node27</title>
<path fill="none" stroke="midnightblue" d="M1261.96,-132.051C1291,-144.614 1337.01,-162.4 1379,-169.5 1494.38,-189.008 1632.52,-179.727 1704.99,-172.408"/>
<polygon fill="midnightblue" stroke="midnightblue" points="1263.35,-128.84 1252.79,-128.013 1260.53,-135.246 1263.35,-128.84"/>
</g>
<!-- Node28 -->
<g id="node28" class="node"><title>Node28</title>
<g id="a_node28"><a xlink:href="class_storm_1_1_dm_1_1_mp_virtual_outputs.html" target="_top" xlink:title="This class provides a concrete implementation for the virtual outputs for the system.">
<polygon fill="white" stroke="black" points="1379,-16 1379,-35 1525,-35 1525,-16 1379,-16"/>
<text text-anchor="middle" x="1452" y="-23" font-family="Helvetica,sans-Serif" font-size="10.00">Storm::Dm::MpVirtualOutputs</text>
</a>
</g>
</g>
<!-- Node8&#45;&gt;Node28 -->
<g id="edge31" class="edge"><title>Node8&#45;&gt;Node28</title>
<path fill="none" stroke="midnightblue" d="M1250.79,-101.959C1268.51,-86.825 1296.77,-64.9524 1325,-52.5 1342.71,-44.6903 1362.83,-39.0757 1381.72,-35.0644"/>
<polygon fill="midnightblue" stroke="midnightblue" points="1248.21,-99.5614 1242.98,-108.776 1252.82,-104.833 1248.21,-99.5614"/>
</g>
<!-- Node30 -->
<g id="node30" class="node"><title>Node30</title>
<g id="a_node30"><a xlink:href="class_storm_1_1_dm_1_1_mp_equipment_begin_times.html" target="_top" xlink:title="This class provides a concrete implementation for Model Point with a type of Storm::Type::EquipmentTi...">
<polygon fill="white" stroke="black" points="1925,-153.5 1925,-183.5 2080,-183.5 2080,-153.5 1925,-153.5"/>
<text text-anchor="start" x="1933" y="-171.5" font-family="Helvetica,sans-Serif" font-size="10.00">Storm::Dm::MpEquipmentBegin</text>
<text text-anchor="middle" x="2002.5" y="-160.5" font-family="Helvetica,sans-Serif" font-size="10.00">Times</text>
</a>
</g>
</g>
<!-- Node8&#45;&gt;Node30 -->
<g id="edge34" class="edge"><title>Node8&#45;&gt;Node30</title>
<path fill="none" stroke="midnightblue" d="M1317.3,-117.505C1435.19,-117.077 1655.06,-119.737 1841,-141.5 1868.5,-144.719 1898.47,-149.43 1924.98,-154.019"/>
<polygon fill="midnightblue" stroke="midnightblue" points="1317.25,-114.005 1307.26,-117.55 1317.28,-121.005 1317.25,-114.005"/>
</g>
<!-- Node33 -->
<g id="node33" class="node"><title>Node33</title>
<g id="a_node33"><a xlink:href="class_storm_1_1_dm_1_1_mp_hvac_relay_outputs.html" target="_top" xlink:title="This class provides a concrete implementation for the HVAC Relay outputs for the System.">
<polygon fill="white" stroke="black" points="1920,-244 1920,-263 2085,-263 2085,-244 1920,-244"/>
<text text-anchor="middle" x="2002.5" y="-251" font-family="Helvetica,sans-Serif" font-size="10.00">Storm::Dm::MpHvacRelayOutputs</text>
</a>
</g>
</g>
<!-- Node8&#45;&gt;Node33 -->
<g id="edge39" class="edge"><title>Node8&#45;&gt;Node33</title>
<path fill="none" stroke="midnightblue" d="M1253.13,-134.261C1300.87,-169.578 1424,-254.102 1543,-281.5 1695.71,-316.659 1884.12,-281.347 1963.46,-263.032"/>
<polygon fill="midnightblue" stroke="midnightblue" points="1254.96,-131.262 1244.86,-128.074 1250.77,-136.867 1254.96,-131.262"/>
</g>
<!-- Node9 -->
<g id="node9" class="node"><title>Node9</title>
<g id="a_node9"><a xlink:href="class_cpl_1_1_dm_1_1_model_point.html" target="_top" xlink:title="This mostly abstract class defines the interface for a Model Point.">
<polygon fill="white" stroke="black" points="913,-194 913,-213 1020,-213 1020,-194 913,-194"/>
<text text-anchor="middle" x="966.5" y="-201" font-family="Helvetica,sans-Serif" font-size="10.00">Cpl::Dm::ModelPoint</text>
</a>
</g>
</g>
<!-- Node9&#45;&gt;Node8 -->
<g id="edge8" class="edge"><title>Node9&#45;&gt;Node8</title>
<path fill="none" stroke="midnightblue" d="M1007.78,-190.952C1042.36,-180.126 1093.53,-163.992 1138,-149.5 1159.58,-142.468 1183.91,-134.304 1202.2,-128.12"/>
<polygon fill="midnightblue" stroke="midnightblue" points="1006.54,-187.671 998.041,-193.996 1008.63,-194.352 1006.54,-187.671"/>
</g>
<!-- Node10 -->
<g id="node10" class="node"><title>Node10</title>
<g id="a_node10"><a xlink:href="class_cpl_1_1_container_1_1_map_item.html" target="_top" xlink:title="This abstract class represents a item that can be contained in an Map (aka a sorted list implemented ...">
<polygon fill="white" stroke="black" points="607,-225 607,-244 729,-244 729,-225 607,-225"/>
<text text-anchor="middle" x="668" y="-232" font-family="Helvetica,sans-Serif" font-size="10.00">Cpl::Container::MapItem</text>
</a>
</g>
</g>
<!-- Node10&#45;&gt;Node9 -->
<g id="edge9" class="edge"><title>Node10&#45;&gt;Node9</title>
<path fill="none" stroke="midnightblue" d="M739.032,-227.178C792.183,-221.621 864.131,-214.098 912.545,-209.037"/>
<polygon fill="midnightblue" stroke="midnightblue" points="738.583,-223.706 729.001,-228.227 739.311,-230.668 738.583,-223.706"/>
</g>
<!-- Node11 -->
<g id="node11" class="node"><title>Node11</title>
<g id="a_node11"><a xlink:href="class_cpl_1_1_container_1_1_dict_item.html" target="_top" xlink:title="This abstract class represents a item that can be contained in Dictionary.">
<polygon fill="white" stroke="black" points="326,-225 326,-244 447,-244 447,-225 326,-225"/>
<text text-anchor="middle" x="386.5" y="-232" font-family="Helvetica,sans-Serif" font-size="10.00">Cpl::Container::DictItem</text>
</a>
</g>
</g>
<!-- Node11&#45;&gt;Node10 -->
<g id="edge10" class="edge"><title>Node11&#45;&gt;Node10</title>
<path fill="none" stroke="midnightblue" d="M457.319,-234.5C503.374,-234.5 563.078,-234.5 606.993,-234.5"/>
<polygon fill="midnightblue" stroke="midnightblue" points="457.117,-231 447.117,-234.5 457.117,-238 457.117,-231"/>
</g>
<!-- Node12 -->
<g id="node12" class="node"><title>Node12</title>
<g id="a_node12"><a xlink:href="class_cpl_1_1_container_1_1_extended_item.html" target="_top" xlink:title="This class is used by the Container classes to implement a various types of DOUBLY linked containers.">
<polygon fill="white" stroke="black" points="141,-225 141,-244 286,-244 286,-225 141,-225"/>
<text text-anchor="middle" x="213.5" y="-232" font-family="Helvetica,sans-Serif" font-size="10.00">Cpl::Container::ExtendedItem</text>
</a>
</g>
</g>
<!-- Node12&#45;&gt;Node11 -->
<g id="edge11" class="edge"><title>Node12&#45;&gt;Node11</title>
<path fill="none" stroke="midnightblue" d="M296.047,-234.5C306.111,-234.5 316.248,-234.5 325.899,-234.5"/>
<polygon fill="midnightblue" stroke="midnightblue" points="296.029,-231 286.029,-234.5 296.029,-238 296.029,-231"/>
</g>
<!-- Node13 -->
<g id="node13" class="node"><title>Node13</title>
<g id="a_node13"><a xlink:href="class_cpl_1_1_container_1_1_item.html" target="_top" xlink:title="This class is used by the Container classes to implement a various types of singly linked containers.">
<polygon fill="white" stroke="black" points="0,-225 0,-244 104,-244 104,-225 0,-225"/>
<text text-anchor="middle" x="52" y="-232" font-family="Helvetica,sans-Serif" font-size="10.00">Cpl::Container::Item</text>
</a>
</g>
</g>
<!-- Node13&#45;&gt;Node12 -->
<g id="edge12" class="edge"><title>Node13&#45;&gt;Node12</title>
<path fill="none" stroke="midnightblue" d="M114.375,-234.5C123.061,-234.5 132.056,-234.5 140.915,-234.5"/>
<polygon fill="midnightblue" stroke="midnightblue" points="114.345,-231 104.345,-234.5 114.345,-238 114.345,-231"/>
</g>
<!-- Node14 -->
<g id="node14" class="node"><title>Node14</title>
<g id="a_node14"><a xlink:href="class_cpl_1_1_dm_1_1_model_database.html" target="_top" xlink:title="This concrete class implements a simple Model Database.">
<polygon fill="white" stroke="black" points="904,-133 904,-152 1029,-152 1029,-133 904,-133"/>
<text text-anchor="middle" x="966.5" y="-140" font-family="Helvetica,sans-Serif" font-size="10.00">Cpl::Dm::ModelDatabase</text>
</a>
</g>
</g>
<!-- Node14&#45;&gt;Node8 -->
<g id="edge13" class="edge"><title>Node14&#45;&gt;Node8</title>
<path fill="none" stroke="#9a32cd" stroke-dasharray="5,2" d="M1039.14,-135.963C1075.26,-132.666 1119.06,-128.67 1155.63,-125.332"/>
<polygon fill="#9a32cd" stroke="#9a32cd" points="1038.8,-132.479 1029.16,-136.873 1039.44,-139.45 1038.8,-132.479"/>
<text text-anchor="middle" x="1095.5" y="-137.5" font-family="Helvetica,sans-Serif" font-size="10.00"> m_modelDatabase</text>
</g>
<!-- Node15 -->
<g id="node15" class="node"><title>Node15</title>
<g id="a_node15"><a xlink:href="class_cpl_1_1_dm_1_1_model_database_api.html" target="_top" xlink:title="This class defines the basic operations that can be performed on a Model Base.">
<polygon fill="white" stroke="black" points="598,-187 598,-206 738,-206 738,-187 598,-187"/>
<text text-anchor="middle" x="668" y="-194" font-family="Helvetica,sans-Serif" font-size="10.00">Cpl::Dm::ModelDatabaseApi</text>
</a>
</g>
</g>
<!-- Node15&#45;&gt;Node14 -->
<g id="edge14" class="edge"><title>Node15&#45;&gt;Node14</title>
<path fill="none" stroke="midnightblue" d="M748.411,-187.066C788.124,-181.783 836.81,-174.45 880,-165.5 897.911,-161.788 917.646,-156.558 933.638,-152.022"/>
<polygon fill="midnightblue" stroke="midnightblue" points="747.713,-183.628 738.253,-188.399 748.624,-190.568 747.713,-183.628"/>
</g>
<!-- Node16 -->
<g id="node16" class="node"><title>Node16</title>
<g id="a_node16"><a xlink:href="class_cpl_1_1_container_1_1_map.html" target="_top" xlink:title=" ">
<polygon fill="white" stroke="black" points="605.5,-137.5 605.5,-167.5 730.5,-167.5 730.5,-137.5 605.5,-137.5"/>
<text text-anchor="start" x="613.5" y="-155.5" font-family="Helvetica,sans-Serif" font-size="10.00">Cpl::Container::Map</text>
<text text-anchor="middle" x="668" y="-144.5" font-family="Helvetica,sans-Serif" font-size="10.00">&lt; Cpl::Dm::ModelPoint &gt;</text>
</a>
</g>
</g>
<!-- Node16&#45;&gt;Node14 -->
<g id="edge15" class="edge"><title>Node16&#45;&gt;Node14</title>
<path fill="none" stroke="#9a32cd" stroke-dasharray="5,2" d="M740.855,-150.077C790.674,-148.396 856.33,-146.182 903.784,-144.581"/>
<polygon fill="#9a32cd" stroke="#9a32cd" points="740.672,-146.581 730.795,-150.416 740.908,-153.577 740.672,-146.581"/>
<text text-anchor="middle" x="818" y="-153.5" font-family="Helvetica,sans-Serif" font-size="10.00"> m_map</text>
</g>
<!-- Node17 -->
<g id="node17" class="node"><title>Node17</title>
<g id="a_node17"><a xlink:href="class_cpl_1_1_container_1_1_map.html" target="_top" xlink:title="This template class implements an Map using an AVL Binary tree (i.e.">
<polygon fill="white" stroke="black" points="335,-137.5 335,-167.5 438,-167.5 438,-137.5 335,-137.5"/>
<text text-anchor="start" x="343" y="-155.5" font-family="Helvetica,sans-Serif" font-size="10.00">Cpl::Container::Map</text>
<text text-anchor="middle" x="386.5" y="-144.5" font-family="Helvetica,sans-Serif" font-size="10.00">&lt; ITEM &gt;</text>
</a>
</g>
</g>
<!-- Node17&#45;&gt;Node16 -->
<g id="edge16" class="edge"><title>Node17&#45;&gt;Node16</title>
<path fill="none" stroke="orange" stroke-dasharray="5,2" d="M448.347,-152.5C494.819,-152.5 558.606,-152.5 605.29,-152.5"/>
<polygon fill="orange" stroke="orange" points="448.115,-149 438.115,-152.5 448.115,-156 448.115,-149"/>
<text text-anchor="middle" x="524" y="-155.5" font-family="Helvetica,sans-Serif" font-size="10.00"> &lt; Cpl::Dm::ModelPoint &gt;</text>
</g>
<!-- Node18 -->
<g id="node18" class="node"><title>Node18</title>
<g id="a_node18"><a xlink:href="class_cpl_1_1_system_1_1_mutex.html" target="_top" xlink:title="This mutex class defines the interface for a mutex that has &quot;recursive&quot; semantics.">
<polygon fill="white" stroke="black" points="616,-99 616,-118 720,-118 720,-99 616,-99"/>
<text text-anchor="middle" x="668" y="-106" font-family="Helvetica,sans-Serif" font-size="10.00">Cpl::System::Mutex</text>
</a>
</g>
</g>
<!-- Node18&#45;&gt;Node14 -->
<g id="edge17" class="edge"><title>Node18&#45;&gt;Node14</title>
<path fill="none" stroke="#9a32cd" stroke-dasharray="5,2" d="M730.326,-114.313C772.468,-118.45 829.677,-124.347 880,-130.5 887.737,-131.446 895.858,-132.503 903.889,-133.586"/>
<polygon fill="#9a32cd" stroke="#9a32cd" points="730.515,-110.815 720.222,-113.327 729.834,-117.782 730.515,-110.815"/>
<text text-anchor="middle" x="818" y="-133.5" font-family="Helvetica,sans-Serif" font-size="10.00"> m_lock</text>
</g>
<!-- Node19 -->
<g id="node19" class="node"><title>Node19</title>
<g id="a_node19"><a xlink:href="class_cpl_1_1_container_1_1_d_list.html" target="_top" xlink:title=" ">
<polygon fill="white" stroke="black" points="898,-79.5 898,-109.5 1035,-109.5 1035,-79.5 898,-79.5"/>
<text text-anchor="start" x="906" y="-97.5" font-family="Helvetica,sans-Serif" font-size="10.00">Cpl::Container::DList</text>
<text text-anchor="middle" x="966.5" y="-86.5" font-family="Helvetica,sans-Serif" font-size="10.00">&lt; Cpl::Dm::SubscriberApi &gt;</text>
</a>
</g>
</g>
<!-- Node19&#45;&gt;Node8 -->
<g id="edge18" class="edge"><title>Node19&#45;&gt;Node8</title>
<path fill="none" stroke="#9a32cd" stroke-dasharray="5,2" d="M1045.36,-101.605C1080.2,-104.784 1121.1,-108.517 1155.59,-111.664"/>
<polygon fill="#9a32cd" stroke="#9a32cd" points="1045.51,-98.1039 1035.23,-100.681 1044.87,-105.075 1045.51,-98.1039"/>
<text text-anchor="middle" x="1095.5" y="-113.5" font-family="Helvetica,sans-Serif" font-size="10.00"> m_subscribers</text>
</g>
<!-- Node20 -->
<g id="node20" class="node"><title>Node20</title>
<g id="a_node20"><a xlink:href="class_cpl_1_1_container_1_1_d_list.html" target="_top" xlink:title="This template class implements a Doubly linked list which maintains the ordering imposed on it by the...">
<polygon fill="white" stroke="black" points="614.5,-49.5 614.5,-79.5 721.5,-79.5 721.5,-49.5 614.5,-49.5"/>
<text text-anchor="start" x="622.5" y="-67.5" font-family="Helvetica,sans-Serif" font-size="10.00">Cpl::Container::DList</text>
<text text-anchor="middle" x="668" y="-56.5" font-family="Helvetica,sans-Serif" font-size="10.00">&lt; ITEM &gt;</text>
</a>
</g>
</g>
<!-- Node20&#45;&gt;Node19 -->
<g id="edge19" class="edge"><title>Node20&#45;&gt;Node19</title>
<path fill="none" stroke="orange" stroke-dasharray="5,2" d="M731.793,-65.0408C773.889,-66.0729 830.473,-68.7539 880,-75.5 887.684,-76.5466 895.7,-77.9303 903.61,-79.4753"/>
<polygon fill="orange" stroke="orange" points="731.763,-61.5394 721.688,-64.8177 731.608,-68.5376 731.763,-61.5394"/>
<text text-anchor="middle" x="818" y="-78.5" font-family="Helvetica,sans-Serif" font-size="10.00"> &lt; Cpl::Dm::SubscriberApi &gt;</text>
</g>
<!-- Node21 -->
<g id="node21" class="node"><title>Node21</title>
<g id="a_node21"><a xlink:href="class_cpl_1_1_dm_1_1_static_info.html" target="_top" xlink:title="This class defines an interface for a Model Point to store its constant/static data in program memory...">
<polygon fill="white" stroke="black" points="916.5,-33 916.5,-52 1016.5,-52 1016.5,-33 916.5,-33"/>
<text text-anchor="middle" x="966.5" y="-40" font-family="Helvetica,sans-Serif" font-size="10.00">Cpl::Dm::StaticInfo</text>
</a>
</g>
</g>
<!-- Node21&#45;&gt;Node8 -->
<g id="edge20" class="edge"><title>Node21&#45;&gt;Node8</title>
<path fill="none" stroke="#9a32cd" stroke-dasharray="5,2" d="M1014.66,-54.5463C1048.99,-63.4792 1096.54,-76.1912 1138,-88.5 1159.69,-94.938 1184.01,-102.856 1202.28,-108.94"/>
<polygon fill="#9a32cd" stroke="#9a32cd" points="1015.46,-51.1373 1004.9,-52.0155 1013.7,-57.9132 1015.46,-51.1373"/>
<text text-anchor="middle" x="1095.5" y="-91.5" font-family="Helvetica,sans-Serif" font-size="10.00"> m_staticInfo</text>
</g>
<!-- Node22 -->
<g id="node22" class="node"><title>Node22</title>
<g id="a_node22"><a xlink:href="class_cpl_1_1_container_1_1_key_literal_string.html" target="_top" xlink:title="This class provides a &#39;Key&#39; wrapper for a C string literal.">
<polygon fill="white" stroke="black" points="604,-0.5 604,-30.5 732,-30.5 732,-0.5 604,-0.5"/>
<text text-anchor="start" x="612" y="-18.5" font-family="Helvetica,sans-Serif" font-size="10.00">Cpl::Container::KeyLiteral</text>
<text text-anchor="middle" x="668" y="-7.5" font-family="Helvetica,sans-Serif" font-size="10.00">String</text>
</a>
</g>
</g>
<!-- Node22&#45;&gt;Node21 -->
<g id="edge21" class="edge"><title>Node22&#45;&gt;Node21</title>
<path fill="none" stroke="midnightblue" d="M742.469,-22.1902C796.575,-27.1173 868.686,-33.6839 916.069,-37.9987"/>
<polygon fill="midnightblue" stroke="midnightblue" points="742.519,-18.6804 732.243,-21.2591 741.884,-25.6516 742.519,-18.6804"/>
</g>
<!-- Node23 -->
<g id="node23" class="node"><title>Node23</title>
<g id="a_node23"><a xlink:href="class_cpl_1_1_container_1_1_key_string_buffer.html" target="_top" xlink:title="This class provides a &#39;Key&#39; wrapper for a array of Character of length N, i.e.">
<polygon fill="white" stroke="black" points="323,-0.5 323,-30.5 450,-30.5 450,-0.5 323,-0.5"/>
<text text-anchor="start" x="331" y="-18.5" font-family="Helvetica,sans-Serif" font-size="10.00">Cpl::Container::KeyString</text>
<text text-anchor="middle" x="386.5" y="-7.5" font-family="Helvetica,sans-Serif" font-size="10.00">Buffer</text>
</a>
</g>
</g>
<!-- Node23&#45;&gt;Node22 -->
<g id="edge22" class="edge"><title>Node23&#45;&gt;Node22</title>
<path fill="none" stroke="midnightblue" d="M460.373,-15.5C504.769,-15.5 560.948,-15.5 603.517,-15.5"/>
<polygon fill="midnightblue" stroke="midnightblue" points="460.225,-12.0001 450.225,-15.5 460.225,-19.0001 460.225,-12.0001"/>
</g>
<!-- Node24 -->
<g id="node24" class="node"><title>Node24</title>
<g id="a_node24"><a xlink:href="class_cpl_1_1_container_1_1_key.html" target="_top" xlink:title="This abstract class defines the interface that a contained object must support if it has comparable k...">
<polygon fill="white" stroke="black" points="163,-6 163,-25 264,-25 264,-6 163,-6"/>
<text text-anchor="middle" x="213.5" y="-13" font-family="Helvetica,sans-Serif" font-size="10.00">Cpl::Container::Key</text>
</a>
</g>
</g>
<!-- Node24&#45;&gt;Node23 -->
<g id="edge23" class="edge"><title>Node24&#45;&gt;Node23</title>
<path fill="none" stroke="midnightblue" d="M274.481,-15.5C290.103,-15.5 306.976,-15.5 322.737,-15.5"/>
<polygon fill="midnightblue" stroke="midnightblue" points="274.42,-12.0001 264.42,-15.5 274.42,-19.0001 274.42,-12.0001"/>
</g>
<!-- Node25&#45;&gt;Node7 -->
<g id="edge24" class="edge"><title>Node25&#45;&gt;Node7</title>
<path fill="none" stroke="orange" stroke-dasharray="5,2" d="M1513.03,-130.791C1569.22,-117.023 1652.21,-96.688 1704.92,-83.7704"/>
<polygon fill="orange" stroke="orange" points="1512.09,-127.418 1503.21,-133.197 1513.75,-134.217 1512.09,-127.418"/>
<text text-anchor="middle" x="1598" y="-125.5" font-family="Helvetica,sans-Serif" font-size="10.00"> &lt; uint32_t &gt;</text>
</g>
<!-- Node25&#45;&gt;Node27 -->
<g id="edge29" class="edge"><title>Node25&#45;&gt;Node27</title>
<path fill="none" stroke="orange" stroke-dasharray="5,2" d="M1513.23,-148.14C1552.95,-150.047 1606.11,-152.914 1653,-156.5 1669.94,-157.796 1688.44,-159.517 1704.97,-161.165"/>
<polygon fill="orange" stroke="orange" points="1513.33,-144.641 1503.18,-147.664 1513,-151.633 1513.33,-144.641"/>
<text text-anchor="middle" x="1598" y="-159.5" font-family="Helvetica,sans-Serif" font-size="10.00"> &lt; bool &gt;</text>
</g>
<!-- Node26 -->
<g id="node26" class="node"><title>Node26</title>
<g id="a_node26"><a xlink:href="class_cpl_1_1_dm_1_1_mp_1_1_bool.html" target="_top" xlink:title="This class provides a concrete implementation for a Point who&#39;s data is a bool.">
<polygon fill="white" stroke="black" points="1954,-100 1954,-119 2051,-119 2051,-100 1954,-100"/>
<text text-anchor="middle" x="2002.5" y="-107" font-family="Helvetica,sans-Serif" font-size="10.00">Cpl::Dm::Mp::Bool</text>
</a>
</g>
</g>
<!-- Node26&#45;&gt;Node5 -->
<g id="edge26" class="edge"><title>Node26&#45;&gt;Node5</title>
<path fill="none" stroke="#9a32cd" stroke-dasharray="5,2" d="M2061.47,-109.5C2109.38,-109.5 2177.74,-109.5 2229.84,-109.5"/>
<polygon fill="#9a32cd" stroke="#9a32cd" points="2061.27,-106 2051.27,-109.5 2061.27,-113 2061.27,-106"/>
<text text-anchor="middle" x="2157.5" y="-112.5" font-family="Helvetica,sans-Serif" font-size="10.00"> systemOn</text>
</g>
<!-- Node27&#45;&gt;Node26 -->
<g id="edge27" class="edge"><title>Node27&#45;&gt;Node26</title>
<path fill="none" stroke="midnightblue" d="M1816.91,-152.534C1861.48,-142.144 1921.14,-128.234 1960.42,-119.078"/>
<polygon fill="midnightblue" stroke="midnightblue" points="1816.01,-149.149 1807.07,-154.828 1817.6,-155.966 1816.01,-149.149"/>
</g>
<!-- Node28&#45;&gt;Node5 -->
<g id="edge30" class="edge"><title>Node28&#45;&gt;Node5</title>
<path fill="none" stroke="#9a32cd" stroke-dasharray="5,2" d="M1535.64,-24.8488C1656.67,-24.8404 1889.06,-28.4131 2085,-52.5 2142.18,-59.5296 2156.35,-63.5857 2212,-78.5 2228.93,-83.0378 2247.29,-88.9423 2263.19,-94.3793"/>
<polygon fill="#9a32cd" stroke="#9a32cd" points="1535.34,-21.349 1525.34,-24.8582 1535.34,-28.349 1535.34,-21.349"/>
<text text-anchor="middle" x="1880.5" y="-39.5" font-family="Helvetica,sans-Serif" font-size="10.00"> vOutputs</text>
</g>
<!-- Node29 -->
<g id="node29" class="node"><title>Node29</title>
<g id="a_node29"><a xlink:href="namespace_storm_1_1_type.html#struct_storm_1_1_type_1_1_virtual_outputs___t" target="_top" xlink:title="The following typedef is used to hold the virtual outputs for System.">
<polygon fill="white" stroke="black" points="1156.5,-3 1156.5,-22 1306.5,-22 1306.5,-3 1156.5,-3"/>
<text text-anchor="middle" x="1231.5" y="-10" font-family="Helvetica,sans-Serif" font-size="10.00">Storm::Type::VirtualOutputs_T</text>
</a>
</g>
</g>
<!-- Node29&#45;&gt;Node28 -->
<g id="edge32" class="edge"><title>Node29&#45;&gt;Node28</title>
<path fill="none" stroke="#9a32cd" stroke-dasharray="5,2" d="M1316.76,-11.652C1331.52,-11.9327 1346.72,-12.496 1361,-13.5 1369.49,-14.0968 1378.4,-14.9757 1387.18,-15.9913"/>
<polygon fill="#9a32cd" stroke="#9a32cd" points="1316.68,-8.15057 1306.63,-11.501 1316.57,-15.1498 1316.68,-8.15057"/>
<text text-anchor="middle" x="1343" y="-16.5" font-family="Helvetica,sans-Serif" font-size="10.00"> m_data</text>
</g>
<!-- Node30&#45;&gt;Node5 -->
<g id="edge33" class="edge"><title>Node30&#45;&gt;Node5</title>
<path fill="none" stroke="#9a32cd" stroke-dasharray="5,2" d="M2090.21,-151.532C2134.34,-142.895 2187.47,-132.499 2229.84,-124.207"/>
<polygon fill="#9a32cd" stroke="#9a32cd" points="2089.5,-148.104 2080.36,-153.459 2090.85,-154.973 2089.5,-148.104"/>
<text text-anchor="middle" x="2157.5" y="-151.5" font-family="Helvetica,sans-Serif" font-size="10.00"> equipmentBeginTimes</text>
</g>
<!-- Node32 -->
<g id="node32" class="node"><title>Node32</title>
<g id="a_node32"><a xlink:href="class_storm_1_1_component_1_1_hvac_relay_outputs.html#struct_storm_1_1_component_1_1_hvac_relay_outputs_1_1_output___t" target="_top" xlink:title="Output Model Points.">
<polygon fill="white" stroke="black" points="2230,-213.5 2230,-243.5 2382,-243.5 2382,-213.5 2230,-213.5"/>
<text text-anchor="start" x="2238" y="-231.5" font-family="Helvetica,sans-Serif" font-size="10.00">Storm::Component::HvacRelay</text>
<text text-anchor="middle" x="2306" y="-220.5" font-family="Helvetica,sans-Serif" font-size="10.00">Outputs::Output_T</text>
</a>
</g>
</g>
<!-- Node30&#45;&gt;Node32 -->
<g id="edge41" class="edge"><title>Node30&#45;&gt;Node32</title>
<path fill="none" stroke="#9a32cd" stroke-dasharray="5,2" d="M2089.08,-185.531C2133.42,-194.355 2187.07,-205.031 2229.8,-213.535"/>
<polygon fill="#9a32cd" stroke="#9a32cd" points="2089.68,-182.082 2079.19,-183.563 2088.32,-188.948 2089.68,-182.082"/>
<text text-anchor="middle" x="2157.5" y="-212.5" font-family="Helvetica,sans-Serif" font-size="10.00"> equipmentBeginTimes</text>
</g>
<!-- Node31&#45;&gt;Node30 -->
<g id="edge35" class="edge"><title>Node31&#45;&gt;Node30</title>
<path fill="none" stroke="#9a32cd" stroke-dasharray="5,2" d="M1820.17,-201.132C1852.14,-195.379 1891.21,-188.348 1924.89,-182.287"/>
<polygon fill="#9a32cd" stroke="#9a32cd" points="1819.27,-197.737 1810.05,-202.953 1820.51,-204.626 1819.27,-197.737"/>
<text text-anchor="middle" x="1880.5" y="-196.5" font-family="Helvetica,sans-Serif" font-size="10.00"> m_data</text>
</g>
<!-- Node32&#45;&gt;Node1 -->
<g id="edge37" class="edge"><title>Node32&#45;&gt;Node1</title>
<path fill="none" stroke="#9a32cd" stroke-dasharray="5,2" d="M2392.51,-228.5C2411.12,-228.5 2430.67,-228.5 2448.85,-228.5"/>
<polygon fill="#9a32cd" stroke="#9a32cd" points="2392.29,-225 2382.29,-228.5 2392.29,-232 2392.29,-225"/>
<text text-anchor="middle" x="2415.5" y="-231.5" font-family="Helvetica,sans-Serif" font-size="10.00"> m_out</text>
</g>
<!-- Node33&#45;&gt;Node32 -->
<g id="edge38" class="edge"><title>Node33&#45;&gt;Node32</title>
<path fill="none" stroke="#9a32cd" stroke-dasharray="5,2" d="M2095.29,-245.889C2138.36,-242.317 2189.05,-238.114 2229.81,-234.735"/>
<polygon fill="#9a32cd" stroke="#9a32cd" points="2094.77,-242.42 2085.09,-246.735 2095.35,-249.396 2094.77,-242.42"/>
<text text-anchor="middle" x="2157.5" y="-248.5" font-family="Helvetica,sans-Serif" font-size="10.00"> relayOutputs</text>
</g>
<!-- Node34 -->
<g id="node34" class="node"><title>Node34</title>
<g id="a_node34"><a xlink:href="namespace_storm_1_1_type.html#struct_storm_1_1_type_1_1_hvac_relay_outputs___t" target="_top" xlink:title="The following typedef is used to hold the HVAC Relay outputs, i.e.">
<polygon fill="white" stroke="black" points="1671,-244 1671,-263 1841,-263 1841,-244 1671,-244"/>
<text text-anchor="middle" x="1756" y="-251" font-family="Helvetica,sans-Serif" font-size="10.00">Storm::Type::HvacRelayOutputs_T</text>
</a>
</g>
</g>
<!-- Node34&#45;&gt;Node33 -->
<g id="edge40" class="edge"><title>Node34&#45;&gt;Node33</title>
<path fill="none" stroke="#9a32cd" stroke-dasharray="5,2" d="M1851.39,-253.5C1873.91,-253.5 1897.77,-253.5 1919.68,-253.5"/>
<polygon fill="#9a32cd" stroke="#9a32cd" points="1851.14,-250 1841.14,-253.5 1851.14,-257 1851.14,-250"/>
<text text-anchor="middle" x="1880.5" y="-256.5" font-family="Helvetica,sans-Serif" font-size="10.00"> m_data</text>
</g>
</g>
</svg>
