<?xml version="1.0" encoding="UTF-8" standalone="no"?>
<!DOCTYPE svg PUBLIC "-//W3C//DTD SVG 1.1//EN"
 "http://www.w3.org/Graphics/SVG/1.1/DTD/svg11.dtd">
<!-- Generated by graphviz version 2.38.0 (20140413.2041)
 -->
<!-- Title: Cpl::Dm::ModelDatabase Pages: 1 -->
<svg width="596pt" height="116pt"
 viewBox="0.00 0.00 596.00 116.00" xmlns="http://www.w3.org/2000/svg" xmlns:xlink="http://www.w3.org/1999/xlink">
<g id="graph0" class="graph" transform="scale(1 1) rotate(0) translate(4 112)">
<title>Cpl::Dm::ModelDatabase</title>
<polygon fill="white" stroke="none" points="-4,4 -4,-112 592,-112 592,4 -4,4"/>
<!-- Node1 -->
<g id="node1" class="node"><title>Node1</title>
<g id="a_node1"><a xlink:title="This concrete class implements a simple Model Database.">
<polygon fill="#bfbfbf" stroke="black" points="463,-44.5 463,-63.5 588,-63.5 588,-44.5 463,-44.5"/>
<text text-anchor="middle" x="525.5" y="-51.5" font-family="Helvetica,sans-Serif" font-size="10.00">Cpl::Dm::ModelDatabase</text>
</a>
</g>
</g>
<!-- Node2 -->
<g id="node2" class="node"><title>Node2</title>
<g id="a_node2"><a xlink:href="class_cpl_1_1_dm_1_1_model_database_api.html" target="_top" xlink:title="This class defines the basic operations that can be performed on a Model Base.">
<polygon fill="white" stroke="black" points="251,-88.5 251,-107.5 391,-107.5 391,-88.5 251,-88.5"/>
<text text-anchor="middle" x="321" y="-95.5" font-family="Helvetica,sans-Serif" font-size="10.00">Cpl::Dm::ModelDatabaseApi</text>
</a>
</g>
</g>
<!-- Node2&#45;&gt;Node1 -->
<g id="edge1" class="edge"><title>Node2&#45;&gt;Node1</title>
<path fill="none" stroke="midnightblue" d="M375.81,-86.308C408.567,-79.1904 449.884,-70.2128 480.646,-63.5287"/>
<polygon fill="midnightblue" stroke="midnightblue" points="374.968,-82.9091 365.939,-88.4527 376.455,-89.7495 374.968,-82.9091"/>
</g>
<!-- Node3 -->
<g id="node3" class="node"><title>Node3</title>
<g id="a_node3"><a xlink:href="class_cpl_1_1_container_1_1_map.html" target="_top" xlink:title=" ">
<polygon fill="white" stroke="black" points="258.5,-39 258.5,-69 383.5,-69 383.5,-39 258.5,-39"/>
<text text-anchor="start" x="266.5" y="-57" font-family="Helvetica,sans-Serif" font-size="10.00">Cpl::Container::Map</text>
<text text-anchor="middle" x="321" y="-46" font-family="Helvetica,sans-Serif" font-size="10.00">&lt; Cpl::Dm::ModelPoint &gt;</text>
</a>
</g>
</g>
<!-- Node3&#45;&gt;Node1 -->
<g id="edge2" class="edge"><title>Node3&#45;&gt;Node1</title>
<path fill="none" stroke="#9a32cd" stroke-dasharray="5,2" d="M393.783,-54C416.352,-54 441.062,-54 462.863,-54"/>
<polygon fill="#9a32cd" stroke="#9a32cd" points="393.581,-50.5001 383.581,-54 393.581,-57.5001 393.581,-50.5001"/>
<text text-anchor="middle" x="427" y="-57" font-family="Helvetica,sans-Serif" font-size="10.00"> m_map</text>
</g>
<!-- Node4 -->
<g id="node4" class="node"><title>Node4</title>
<g id="a_node4"><a xlink:href="class_cpl_1_1_container_1_1_map.html" target="_top" xlink:title="This template class implements an Map using an AVL Binary tree (i.e.">
<polygon fill="white" stroke="black" points="0,-39 0,-69 103,-69 103,-39 0,-39"/>
<text text-anchor="start" x="8" y="-57" font-family="Helvetica,sans-Serif" font-size="10.00">Cpl::Container::Map</text>
<text text-anchor="middle" x="51.5" y="-46" font-family="Helvetica,sans-Serif" font-size="10.00">&lt; ITEM &gt;</text>
</a>
</g>
</g>
<!-- Node4&#45;&gt;Node3 -->
<g id="edge3" class="edge"><title>Node4&#45;&gt;Node3</title>
<path fill="none" stroke="orange" stroke-dasharray="5,2" d="M113.258,-54C156.617,-54 214.729,-54 258.3,-54"/>
<polygon fill="orange" stroke="orange" points="113.129,-50.5001 103.129,-54 113.129,-57.5001 113.129,-50.5001"/>
<text text-anchor="middle" x="177" y="-57" font-family="Helvetica,sans-Serif" font-size="10.00"> &lt; Cpl::Dm::ModelPoint &gt;</text>
</g>
<!-- Node5 -->
<g id="node5" class="node"><title>Node5</title>
<g id="a_node5"><a xlink:href="class_cpl_1_1_system_1_1_mutex.html" target="_top" xlink:title="This mutex class defines the interface for a mutex that has &quot;recursive&quot; semantics.">
<polygon fill="white" stroke="black" points="269,-0.5 269,-19.5 373,-19.5 373,-0.5 269,-0.5"/>
<text text-anchor="middle" x="321" y="-7.5" font-family="Helvetica,sans-Serif" font-size="10.00">Cpl::System::Mutex</text>
</a>
</g>
</g>
<!-- Node5&#45;&gt;Node1 -->
<g id="edge4" class="edge"><title>Node5&#45;&gt;Node1</title>
<path fill="none" stroke="#9a32cd" stroke-dasharray="5,2" d="M375.81,-21.692C408.567,-28.8096 449.884,-37.7872 480.646,-44.4713"/>
<polygon fill="#9a32cd" stroke="#9a32cd" points="376.455,-18.2505 365.939,-19.5473 374.968,-25.0909 376.455,-18.2505"/>
<text text-anchor="middle" x="427" y="-39" font-family="Helvetica,sans-Serif" font-size="10.00"> m_lock</text>
</g>
</g>
</svg>
