<?xml version="1.0" encoding="UTF-8" standalone="no"?>
<!DOCTYPE svg PUBLIC "-//W3C//DTD SVG 1.1//EN"
 "http://www.w3.org/Graphics/SVG/1.1/DTD/svg11.dtd">
<!-- Generated by graphviz version 2.38.0 (20140413.2041)
 -->
<!-- Title: Cpl::System::TimerComposer&lt; CONTEXT &gt; Pages: 1 -->
<svg width="161pt" height="263pt"
 viewBox="0.00 0.00 161.00 263.00" xmlns="http://www.w3.org/2000/svg" xmlns:xlink="http://www.w3.org/1999/xlink">
<g id="graph0" class="graph" transform="scale(1 1) rotate(0) translate(4 259)">
<title>Cpl::System::TimerComposer&lt; CONTEXT &gt;</title>
<polygon fill="white" stroke="none" points="-4,4 -4,-259 157,-259 157,4 -4,4"/>
<!-- Node1 -->
<g id="node1" class="node"><title>Node1</title>
<g id="a_node1"><a xlink:title="This template class implements a Software Timer that is context independent and allows for a single c...">
<polygon fill="#bfbfbf" stroke="black" points="3.5,-0.5 3.5,-30.5 149.5,-30.5 149.5,-0.5 3.5,-0.5"/>
<text text-anchor="start" x="11.5" y="-18.5" font-family="Helvetica,sans-Serif" font-size="10.00">Cpl::System::TimerComposer</text>
<text text-anchor="middle" x="76.5" y="-7.5" font-family="Helvetica,sans-Serif" font-size="10.00">&lt; CONTEXT &gt;</text>
</a>
</g>
</g>
<!-- Node2 -->
<g id="node2" class="node"><title>Node2</title>
<g id="a_node2"><a xlink:href="class_cpl_1_1_system_1_1_timer.html" target="_top" xlink:title="This mostly concrete interface defines the operations that can be performed on a software timer.">
<polygon fill="white" stroke="black" points="26,-67.5 26,-86.5 127,-86.5 127,-67.5 26,-67.5"/>
<text text-anchor="middle" x="76.5" y="-74.5" font-family="Helvetica,sans-Serif" font-size="10.00">Cpl::System::Timer</text>
</a>
</g>
</g>
<!-- Node2&#45;&gt;Node1 -->
<g id="edge1" class="edge"><title>Node2&#45;&gt;Node1</title>
<path fill="none" stroke="midnightblue" d="M76.5,-57.2349C76.5,-48.5864 76.5,-38.4969 76.5,-30.523"/>
<polygon fill="midnightblue" stroke="midnightblue" points="73.0001,-57.4751 76.5,-67.4751 80.0001,-57.4751 73.0001,-57.4751"/>
</g>
<!-- Node3 -->
<g id="node3" class="node"><title>Node3</title>
<g id="a_node3"><a xlink:href="class_cpl_1_1_system_1_1_counter_callback__.html" target="_top" xlink:title="This abstract class defines the call&#45;back interface for a Counter object.">
<polygon fill="white" stroke="black" points="0,-123.5 0,-142.5 153,-142.5 153,-123.5 0,-123.5"/>
<text text-anchor="middle" x="76.5" y="-130.5" font-family="Helvetica,sans-Serif" font-size="10.00">Cpl::System::CounterCallback_</text>
</a>
</g>
</g>
<!-- Node3&#45;&gt;Node2 -->
<g id="edge2" class="edge"><title>Node3&#45;&gt;Node2</title>
<path fill="none" stroke="midnightblue" d="M76.5,-112.805C76.5,-103.91 76.5,-93.7798 76.5,-86.7511"/>
<polygon fill="midnightblue" stroke="midnightblue" points="73.0001,-113.083 76.5,-123.083 80.0001,-113.083 73.0001,-113.083"/>
</g>
<!-- Node4 -->
<g id="node4" class="node"><title>Node4</title>
<g id="a_node4"><a xlink:href="class_cpl_1_1_container_1_1_extended_item.html" target="_top" xlink:title="This class is used by the Container classes to implement a various types of DOUBLY linked containers.">
<polygon fill="white" stroke="black" points="4,-179.5 4,-198.5 149,-198.5 149,-179.5 4,-179.5"/>
<text text-anchor="middle" x="76.5" y="-186.5" font-family="Helvetica,sans-Serif" font-size="10.00">Cpl::Container::ExtendedItem</text>
</a>
</g>
</g>
<!-- Node4&#45;&gt;Node3 -->
<g id="edge3" class="edge"><title>Node4&#45;&gt;Node3</title>
<path fill="none" stroke="midnightblue" d="M76.5,-168.805C76.5,-159.91 76.5,-149.78 76.5,-142.751"/>
<polygon fill="midnightblue" stroke="midnightblue" points="73.0001,-169.083 76.5,-179.083 80.0001,-169.083 73.0001,-169.083"/>
</g>
<!-- Node5 -->
<g id="node5" class="node"><title>Node5</title>
<g id="a_node5"><a xlink:href="class_cpl_1_1_container_1_1_item.html" target="_top" xlink:title="This class is used by the Container classes to implement a various types of singly linked containers.">
<polygon fill="white" stroke="black" points="24.5,-235.5 24.5,-254.5 128.5,-254.5 128.5,-235.5 24.5,-235.5"/>
<text text-anchor="middle" x="76.5" y="-242.5" font-family="Helvetica,sans-Serif" font-size="10.00">Cpl::Container::Item</text>
</a>
</g>
</g>
<!-- Node5&#45;&gt;Node4 -->
<g id="edge4" class="edge"><title>Node5&#45;&gt;Node4</title>
<path fill="none" stroke="midnightblue" d="M76.5,-224.805C76.5,-215.91 76.5,-205.78 76.5,-198.751"/>
<polygon fill="midnightblue" stroke="midnightblue" points="73.0001,-225.083 76.5,-235.083 80.0001,-225.083 73.0001,-225.083"/>
</g>
</g>
</svg>
