<?xml version="1.0" encoding="UTF-8" standalone="no"?>
<!DOCTYPE svg PUBLIC "-//W3C//DTD SVG 1.1//EN"
 "http://www.w3.org/Graphics/SVG/1.1/DTD/svg11.dtd">
<!-- Generated by graphviz version 10.0.1 (20240210.2158)
 -->
<!-- Title: Storm::Component::Pi Pages: 1 -->
<svg width="2091pt" height="324pt"
 viewBox="0.00 0.00 2091.00 324.00" xmlns="http://www.w3.org/2000/svg" xmlns:xlink="http://www.w3.org/1999/xlink">
<g id="graph0" class="graph" transform="scale(1 1) rotate(0) translate(4 320)">
<title>Storm::Component::Pi</title>
<!-- Node1 -->
<g id="Node000001" class="node">
<title>Node1</title>
<g id="a_Node000001"><a xlink:title="This concrete class implements a simple (P)roportional (I)ntegral controller that only allows the int...">
<polygon fill="#999999" stroke="#666666" points="2083,-184 1970.25,-184 1970.25,-164 2083,-164 2083,-184"/>
<text text-anchor="middle" x="2026.62" y="-170.5" font-family="Helvetica,sans-Serif" font-size="10.00">Storm::Component::Pi</text>
</a>
</g>
</g>
<!-- Node2 -->
<g id="Node000002" class="node">
<title>Node2</title>
<g id="a_Node000002"><a xlink:href="class_storm_1_1_component_1_1_base.html" target="_top" xlink:title="This partially concrete class provide core infrastructure for Components.">
<polygon fill="white" stroke="#666666" points="1904.25,-272 1778,-272 1778,-252 1904.25,-252 1904.25,-272"/>
<text text-anchor="middle" x="1841.12" y="-258.5" font-family="Helvetica,sans-Serif" font-size="10.00">Storm::Component::Base</text>
</a>
</g>
</g>
<!-- Node2&#45;&gt;Node1 -->
<g id="edge1_Node000001_Node000002" class="edge">
<title>Node2&#45;&gt;Node1</title>
<g id="a_edge1_Node000001_Node000002"><a xlink:title=" ">
<path fill="none" stroke="#63b8ff" d="M1874.19,-246.62C1911.4,-228.78 1971.76,-199.83 2003.88,-184.43"/>
<polygon fill="#63b8ff" stroke="#63b8ff" points="1872.76,-243.43 1865.26,-250.91 1875.79,-249.74 1872.76,-243.43"/>
</a>
</g>
</g>
<!-- Node3 -->
<g id="Node000003" class="node">
<title>Node3</title>
<g id="a_Node000003"><a xlink:href="class_storm_1_1_component_1_1_api.html" target="_top" xlink:title="This class define the interface for a Component.">
<polygon fill="white" stroke="#666666" points="1674.12,-316 1556.12,-316 1556.12,-296 1674.12,-296 1674.12,-316"/>
<text text-anchor="middle" x="1615.12" y="-302.5" font-family="Helvetica,sans-Serif" font-size="10.00">Storm::Component::Api</text>
</a>
</g>
</g>
<!-- Node3&#45;&gt;Node2 -->
<g id="edge2_Node000002_Node000003" class="edge">
<title>Node3&#45;&gt;Node2</title>
<g id="a_edge2_Node000002_Node000003"><a xlink:title=" ">
<path fill="none" stroke="#63b8ff" d="M1685.78,-301.44C1709.52,-299.05 1736.1,-295.43 1760,-290 1778.82,-285.72 1799.36,-278.49 1814.93,-272.45"/>
<polygon fill="#63b8ff" stroke="#63b8ff" points="1685.51,-297.95 1675.88,-302.38 1686.17,-304.92 1685.51,-297.95"/>
</a>
</g>
</g>
<!-- Node4 -->
<g id="Node000004" class="node">
<title>Node4</title>
<g id="a_Node000004"><a xlink:href="struct_cpl_1_1_system_1_1_elapsed_time_1_1_precision___t.html" target="_top" xlink:title="Data type for time in seconds with a &#39;fractional&#39; millisecond precision.">
<polygon fill="white" stroke="#666666" points="1681.25,-278 1549,-278 1549,-246 1681.25,-246 1681.25,-278"/>
<text text-anchor="start" x="1557" y="-264.5" font-family="Helvetica,sans-Serif" font-size="10.00">Cpl::System::ElapsedTime</text>
<text text-anchor="middle" x="1615.12" y="-252.5" font-family="Helvetica,sans-Serif" font-size="10.00">::Precision_T</text>
</a>
</g>
</g>
<!-- Node4&#45;&gt;Node2 -->
<g id="edge3_Node000002_Node000004" class="edge">
<title>Node4&#45;&gt;Node2</title>
<g id="a_edge3_Node000002_Node000004"><a xlink:title=" ">
<path fill="none" stroke="#9a32cd" stroke-dasharray="5,2" d="M1692.77,-262C1720.47,-262 1751.4,-262 1777.73,-262"/>
<polygon fill="#9a32cd" stroke="#9a32cd" points="1693.03,-258.5 1683.03,-262 1693.03,-265.5 1693.03,-258.5"/>
</a>
</g>
<text text-anchor="middle" x="1729.62" y="-276.5" font-family="Helvetica,sans-Serif" font-size="10.00" fill="grey"> m_interval</text>
<text text-anchor="middle" x="1729.62" y="-264.5" font-family="Helvetica,sans-Serif" font-size="10.00" fill="grey">m_timeMark</text>
</g>
<!-- Node5 -->
<g id="Node000005" class="node">
<title>Node5</title>
<g id="a_Node000005"><a xlink:href="class_storm_1_1_component_1_1_pi.html#struct_storm_1_1_component_1_1_pi_1_1_input___t" target="_top" xlink:title="Input Model Points.">
<polygon fill="white" stroke="#666666" points="1897.5,-190 1784.75,-190 1784.75,-158 1897.5,-158 1897.5,-190"/>
<text text-anchor="start" x="1792.75" y="-176.5" font-family="Helvetica,sans-Serif" font-size="10.00">Storm::Component::Pi</text>
<text text-anchor="middle" x="1841.12" y="-164.5" font-family="Helvetica,sans-Serif" font-size="10.00">::Input_T</text>
</a>
</g>
</g>
<!-- Node5&#45;&gt;Node1 -->
<g id="edge4_Node000001_Node000005" class="edge">
<title>Node5&#45;&gt;Node1</title>
<g id="a_edge4_Node000001_Node000005"><a xlink:title=" ">
<path fill="none" stroke="#9a32cd" stroke-dasharray="5,2" d="M1908.92,-174C1928.96,-174 1950.71,-174 1969.94,-174"/>
<polygon fill="#9a32cd" stroke="#9a32cd" points="1909.19,-170.5 1899.19,-174 1909.19,-177.5 1909.19,-170.5"/>
</a>
</g>
<text text-anchor="middle" x="1937.25" y="-176.5" font-family="Helvetica,sans-Serif" font-size="10.00" fill="grey"> m_in</text>
</g>
<!-- Node6 -->
<g id="Node000006" class="node">
<title>Node6</title>
<g id="a_Node000006"><a xlink:href="class_cpl_1_1_dm_1_1_mp_1_1_bool.html" target="_top" xlink:title="This class provides a concrete implementation for a Point who&#39;s data is a bool.">
<polygon fill="white" stroke="#666666" points="1663.25,-152 1567,-152 1567,-132 1663.25,-132 1663.25,-152"/>
<text text-anchor="middle" x="1615.12" y="-138.5" font-family="Helvetica,sans-Serif" font-size="10.00">Cpl::Dm::Mp::Bool</text>
</a>
</g>
</g>
<!-- Node6&#45;&gt;Node5 -->
<g id="edge5_Node000005_Node000006" class="edge">
<title>Node6&#45;&gt;Node5</title>
<g id="a_edge5_Node000005_Node000006"><a xlink:title=" ">
<path fill="none" stroke="#9a32cd" stroke-dasharray="5,2" d="M1674.93,-144.75C1701.1,-146.53 1732.21,-149.4 1760,-154 1767.92,-155.31 1776.21,-157 1784.33,-158.85"/>
<polygon fill="#9a32cd" stroke="#9a32cd" points="1675.38,-141.27 1665.18,-144.13 1674.93,-148.26 1675.38,-141.27"/>
</a>
</g>
<text text-anchor="middle" x="1729.62" y="-156.5" font-family="Helvetica,sans-Serif" font-size="10.00" fill="grey"> pulseResetPi</text>
</g>
<!-- Node24 -->
<g id="Node000024" class="node">
<title>Node24</title>
<g id="a_Node000024"><a xlink:href="class_storm_1_1_component_1_1_pi.html#struct_storm_1_1_component_1_1_pi_1_1_output___t" target="_top" xlink:title="Output Model Points.">
<polygon fill="white" stroke="#666666" points="1897.5,-134 1784.75,-134 1784.75,-102 1897.5,-102 1897.5,-134"/>
<text text-anchor="start" x="1792.75" y="-120.5" font-family="Helvetica,sans-Serif" font-size="10.00">Storm::Component::Pi</text>
<text text-anchor="middle" x="1841.12" y="-108.5" font-family="Helvetica,sans-Serif" font-size="10.00">::Output_T</text>
</a>
</g>
</g>
<!-- Node6&#45;&gt;Node24 -->
<g id="edge29_Node000024_Node000006" class="edge">
<title>Node6&#45;&gt;Node24</title>
<g id="a_edge29_Node000024_Node000006"><a xlink:title=" ">
<path fill="none" stroke="#9a32cd" stroke-dasharray="5,2" d="M1657.22,-128.33C1670.48,-124.54 1685.35,-120.94 1699.25,-119 1727.11,-115.12 1758.36,-114.52 1784.35,-115.04"/>
<polygon fill="#9a32cd" stroke="#9a32cd" points="1656.54,-124.88 1647.96,-131.09 1658.54,-131.59 1656.54,-124.88"/>
</a>
</g>
<text text-anchor="middle" x="1729.62" y="-121.5" font-family="Helvetica,sans-Serif" font-size="10.00" fill="grey"> pvInhibited</text>
</g>
<!-- Node7 -->
<g id="Node000007" class="node">
<title>Node7</title>
<g id="a_Node000007"><a xlink:href="class_cpl_1_1_dm_1_1_model_point_common__.html" target="_top" xlink:title="This concrete class provide common infrastructure for a Model Point.">
<polygon fill="white" stroke="#666666" points="957.25,-152 807,-152 807,-132 957.25,-132 957.25,-152"/>
<text text-anchor="middle" x="882.12" y="-138.5" font-family="Helvetica,sans-Serif" font-size="10.00">Cpl::Dm::ModelPointCommon_</text>
</a>
</g>
</g>
<!-- Node7&#45;&gt;Node6 -->
<g id="edge6_Node000006_Node000007" class="edge">
<title>Node7&#45;&gt;Node6</title>
<g id="a_edge6_Node000006_Node000007"><a xlink:title=" ">
<path fill="none" stroke="#63b8ff" d="M968.9,-142C1123.91,-142 1445.85,-142 1566.81,-142"/>
<polygon fill="#63b8ff" stroke="#63b8ff" points="969.09,-138.5 959.09,-142 969.09,-145.5 969.09,-138.5"/>
</a>
</g>
</g>
<!-- Node18 -->
<g id="Node000018" class="node">
<title>Node18</title>
<g id="a_Node000018"><a xlink:href="class_cpl_1_1_dm_1_1_mp_1_1_numeric.html" target="_top" xlink:title=" ">
<polygon fill="white" stroke="#666666" points="1445.5,-91 1332.75,-91 1332.75,-59 1445.5,-59 1445.5,-91"/>
<text text-anchor="start" x="1340.75" y="-77.5" font-family="Helvetica,sans-Serif" font-size="10.00">Cpl::Dm::Mp::Numeric</text>
<text text-anchor="middle" x="1389.12" y="-65.5" font-family="Helvetica,sans-Serif" font-size="10.00">&lt; float, Float &gt;</text>
</a>
</g>
</g>
<!-- Node7&#45;&gt;Node18 -->
<g id="edge18_Node000018_Node000007" class="edge">
<title>Node7&#45;&gt;Node18</title>
<g id="a_edge18_Node000018_Node000007"><a xlink:title=" ">
<path fill="none" stroke="#63b8ff" d="M961.83,-129.89C966.37,-129.24 970.87,-128.6 975.25,-128 1125.87,-107.24 1164.11,-106.61 1314.75,-86 1320.49,-85.21 1326.48,-84.37 1332.46,-83.5"/>
<polygon fill="#63b8ff" stroke="#63b8ff" points="961.4,-126.42 952.01,-131.32 962.41,-133.34 961.4,-126.42"/>
</a>
</g>
</g>
<!-- Node19 -->
<g id="Node000019" class="node">
<title>Node19</title>
<g id="a_Node000019"><a xlink:href="class_cpl_1_1_dm_1_1_mp_1_1_numeric.html" target="_top" xlink:title="This template class provides a mostly concrete implementation for a Model Point who&#39;s data is a C num...">
<polygon fill="white" stroke="#666666" points="1166.75,-76 1033.75,-76 1033.75,-44 1166.75,-44 1166.75,-76"/>
<text text-anchor="start" x="1041.75" y="-62.5" font-family="Helvetica,sans-Serif" font-size="10.00">Cpl::Dm::Mp::Numeric</text>
<text text-anchor="middle" x="1100.25" y="-50.5" font-family="Helvetica,sans-Serif" font-size="10.00">&lt; ELEMTYPE, MPTYPE &gt;</text>
</a>
</g>
</g>
<!-- Node7&#45;&gt;Node19 -->
<g id="edge20_Node000019_Node000007" class="edge">
<title>Node7&#45;&gt;Node19</title>
<g id="a_edge20_Node000019_Node000007"><a xlink:title=" ">
<path fill="none" stroke="#63b8ff" d="M907.9,-125.52C925.93,-114.15 951.29,-99.45 975.25,-90 993.69,-82.73 1014.39,-76.87 1033.52,-72.33"/>
<polygon fill="#63b8ff" stroke="#63b8ff" points="906.23,-122.43 899.71,-130.78 910.02,-128.31 906.23,-122.43"/>
</a>
</g>
</g>
<!-- Node20 -->
<g id="Node000020" class="node">
<title>Node20</title>
<g id="a_Node000020"><a xlink:href="class_storm_1_1_dm_1_1_mp_system_config.html" target="_top" xlink:title="This class provides a concrete implementation for a Point who&#39;s data is the the System Configuration ...">
<polygon fill="white" stroke="#666666" points="1172,-190 1028.5,-190 1028.5,-170 1172,-170 1172,-190"/>
<text text-anchor="middle" x="1100.25" y="-176.5" font-family="Helvetica,sans-Serif" font-size="10.00">Storm::Dm::MpSystemConfig</text>
</a>
</g>
</g>
<!-- Node7&#45;&gt;Node20 -->
<g id="edge22_Node000020_Node000007" class="edge">
<title>Node7&#45;&gt;Node20</title>
<g id="a_edge22_Node000020_Node000007"><a xlink:title=" ">
<path fill="none" stroke="#63b8ff" d="M954,-154.46C981.76,-159.34 1013.26,-164.88 1039.82,-169.55"/>
<polygon fill="#63b8ff" stroke="#63b8ff" points="954.7,-151.03 944.24,-152.75 953.49,-157.93 954.7,-151.03"/>
</a>
</g>
</g>
<!-- Node23 -->
<g id="Node000023" class="node">
<title>Node23</title>
<g id="a_Node000023"><a xlink:href="class_cpl_1_1_dm_1_1_mp_1_1_ref_counter.html" target="_top" xlink:title="This class provides a concrete implementation for a Point who&#39;s data is 32 bit unsigned reference cou...">
<polygon fill="white" stroke="#666666" points="1314.75,-228 1190,-228 1190,-208 1314.75,-208 1314.75,-228"/>
<text text-anchor="middle" x="1252.38" y="-214.5" font-family="Helvetica,sans-Serif" font-size="10.00">Cpl::Dm::Mp::RefCounter</text>
</a>
</g>
</g>
<!-- Node7&#45;&gt;Node23 -->
<g id="edge26_Node000023_Node000007" class="edge">
<title>Node7&#45;&gt;Node23</title>
<g id="a_edge26_Node000023_Node000007"><a xlink:title=" ">
<path fill="none" stroke="#63b8ff" d="M914.45,-157.34C943.33,-170.74 987.77,-189.49 1028.5,-199 1082.01,-211.49 1144.46,-215.98 1189.62,-217.49"/>
<polygon fill="#63b8ff" stroke="#63b8ff" points="916.08,-154.24 905.55,-153.14 913.1,-160.57 916.08,-154.24"/>
</a>
</g>
</g>
<!-- Node8 -->
<g id="Node000008" class="node">
<title>Node8</title>
<g id="a_Node000008"><a xlink:href="class_cpl_1_1_dm_1_1_model_point.html" target="_top" xlink:title="This mostly abstract class defines the interface for a Model Point.">
<polygon fill="white" stroke="#666666" points="672,-196 566,-196 566,-176 672,-176 672,-196"/>
<text text-anchor="middle" x="619" y="-182.5" font-family="Helvetica,sans-Serif" font-size="10.00">Cpl::Dm::ModelPoint</text>
</a>
</g>
</g>
<!-- Node8&#45;&gt;Node7 -->
<g id="edge7_Node000007_Node000008" class="edge">
<title>Node8&#45;&gt;Node7</title>
<g id="a_edge7_Node000007_Node000008"><a xlink:title=" ">
<path fill="none" stroke="#63b8ff" d="M683.5,-175.6C715.2,-170.38 754.14,-163.92 789,-158 799.4,-156.23 810.46,-154.33 821.17,-152.48"/>
<polygon fill="#63b8ff" stroke="#63b8ff" points="682.96,-172.14 673.66,-177.22 684.1,-179.05 682.96,-172.14"/>
</a>
</g>
</g>
<!-- Node9 -->
<g id="Node000009" class="node">
<title>Node9</title>
<g id="a_Node000009"><a xlink:href="class_cpl_1_1_container_1_1_item.html" target="_top" xlink:title="This class is used by the Container classes to implement a various types of singly linked containers.">
<polygon fill="white" stroke="#666666" points="373.62,-196 271.38,-196 271.38,-176 373.62,-176 373.62,-196"/>
<text text-anchor="middle" x="322.5" y="-182.5" font-family="Helvetica,sans-Serif" font-size="10.00">Cpl::Container::Item</text>
</a>
</g>
</g>
<!-- Node9&#45;&gt;Node8 -->
<g id="edge8_Node000008_Node000009" class="edge">
<title>Node9&#45;&gt;Node8</title>
<g id="a_edge8_Node000008_Node000009"><a xlink:title=" ">
<path fill="none" stroke="#63b8ff" d="M385.19,-186C438.74,-186 515.42,-186 565.93,-186"/>
<polygon fill="#63b8ff" stroke="#63b8ff" points="385.31,-182.5 375.31,-186 385.31,-189.5 385.31,-182.5"/>
</a>
</g>
</g>
<!-- Node10 -->
<g id="Node000010" class="node">
<title>Node10</title>
<g id="a_Node000010"><a xlink:href="class_cpl_1_1_container_1_1_d_list.html" target="_top" xlink:title=" ">
<polygon fill="white" stroke="#666666" points="687,-158 551,-158 551,-126 687,-126 687,-158"/>
<text text-anchor="start" x="559" y="-144.5" font-family="Helvetica,sans-Serif" font-size="10.00">Cpl::Container::DList</text>
<text text-anchor="middle" x="619" y="-132.5" font-family="Helvetica,sans-Serif" font-size="10.00">&lt; Cpl::Dm::SubscriberApi &gt;</text>
</a>
</g>
</g>
<!-- Node10&#45;&gt;Node7 -->
<g id="edge9_Node000007_Node000010" class="edge">
<title>Node10&#45;&gt;Node7</title>
<g id="a_edge9_Node000007_Node000010"><a xlink:title=" ">
<path fill="none" stroke="#9a32cd" stroke-dasharray="5,2" d="M698.64,-142C732.94,-142 772.95,-142 806.75,-142"/>
<polygon fill="#9a32cd" stroke="#9a32cd" points="698.76,-138.5 688.76,-142 698.76,-145.5 698.76,-138.5"/>
</a>
</g>
<text text-anchor="middle" x="747" y="-144.5" font-family="Helvetica,sans-Serif" font-size="10.00" fill="grey"> m_subscribers</text>
</g>
<!-- Node11 -->
<g id="Node000011" class="node">
<title>Node11</title>
<g id="a_Node000011"><a xlink:href="class_cpl_1_1_container_1_1_d_list.html" target="_top" xlink:title="This template class implements a Doubly linked list which maintains the ordering imposed on it by the...">
<polygon fill="white" stroke="#666666" points="375.5,-158 269.5,-158 269.5,-126 375.5,-126 375.5,-158"/>
<text text-anchor="start" x="277.5" y="-144.5" font-family="Helvetica,sans-Serif" font-size="10.00">Cpl::Container::DList</text>
<text text-anchor="middle" x="322.5" y="-132.5" font-family="Helvetica,sans-Serif" font-size="10.00">&lt; ITEM &gt;</text>
</a>
</g>
</g>
<!-- Node11&#45;&gt;Node10 -->
<g id="edge10_Node000010_Node000011" class="edge">
<title>Node11&#45;&gt;Node10</title>
<g id="a_edge10_Node000010_Node000011"><a xlink:title=" ">
<path fill="none" stroke="orange" stroke-dasharray="5,2" d="M387.05,-142C435.29,-142 501.48,-142 550.64,-142"/>
<polygon fill="orange" stroke="orange" points="387.32,-138.5 377.32,-142 387.32,-145.5 387.32,-138.5"/>
</a>
</g>
<text text-anchor="middle" x="471.5" y="-144.5" font-family="Helvetica,sans-Serif" font-size="10.00" fill="grey"> &lt; Cpl::Dm::SubscriberApi &gt;</text>
</g>
<!-- Node12 -->
<g id="Node000012" class="node">
<title>Node12</title>
<g id="a_Node000012"><a xlink:href="class_cpl_1_1_dm_1_1_model_database.html" target="_top" xlink:title="This concrete class implements a simple Model Database.">
<polygon fill="white" stroke="#666666" points="681.38,-89 556.62,-89 556.62,-69 681.38,-69 681.38,-89"/>
<text text-anchor="middle" x="619" y="-75.5" font-family="Helvetica,sans-Serif" font-size="10.00">Cpl::Dm::ModelDatabase</text>
</a>
</g>
</g>
<!-- Node12&#45;&gt;Node7 -->
<g id="edge11_Node000007_Node000012" class="edge">
<title>Node12&#45;&gt;Node7</title>
<g id="a_edge11_Node000007_Node000012"><a xlink:title=" ">
<path fill="none" stroke="#9a32cd" stroke-dasharray="5,2" d="M674.32,-92.11C722.76,-103.79 792.77,-120.68 837.61,-131.5"/>
<polygon fill="#9a32cd" stroke="#9a32cd" points="675.43,-88.77 664.88,-89.83 673.78,-95.58 675.43,-88.77"/>
</a>
</g>
<text text-anchor="middle" x="747" y="-119.5" font-family="Helvetica,sans-Serif" font-size="10.00" fill="grey"> m_modelDatabase</text>
</g>
<!-- Node13 -->
<g id="Node000013" class="node">
<title>Node13</title>
<g id="a_Node000013"><a xlink:href="class_cpl_1_1_dm_1_1_model_database_api.html" target="_top" xlink:title="This class defines the basic operations that can be performed on a Model Base.">
<polygon fill="white" stroke="#666666" points="392,-70 253,-70 253,-50 392,-50 392,-70"/>
<text text-anchor="middle" x="322.5" y="-56.5" font-family="Helvetica,sans-Serif" font-size="10.00">Cpl::Dm::ModelDatabaseApi</text>
</a>
</g>
</g>
<!-- Node13&#45;&gt;Node12 -->
<g id="edge12_Node000012_Node000013" class="edge">
<title>Node13&#45;&gt;Node12</title>
<g id="a_edge12_Node000012_Node000013"><a xlink:title=" ">
<path fill="none" stroke="#63b8ff" d="M403.49,-65.16C451.57,-68.26 511.84,-72.15 556.24,-75.02"/>
<polygon fill="#63b8ff" stroke="#63b8ff" points="403.89,-61.68 393.69,-64.53 403.44,-68.66 403.89,-61.68"/>
</a>
</g>
</g>
<!-- Node14 -->
<g id="Node000014" class="node">
<title>Node14</title>
<g id="a_Node000014"><a xlink:href="class_cpl_1_1_container_1_1_s_list.html" target="_top" xlink:title=" ">
<polygon fill="white" stroke="#666666" points="384.5,-32 260.5,-32 260.5,0 384.5,0 384.5,-32"/>
<text text-anchor="start" x="268.5" y="-18.5" font-family="Helvetica,sans-Serif" font-size="10.00">Cpl::Container::SList</text>
<text text-anchor="middle" x="322.5" y="-6.5" font-family="Helvetica,sans-Serif" font-size="10.00">&lt; Cpl::Dm::ModelPoint &gt;</text>
</a>
</g>
</g>
<!-- Node14&#45;&gt;Node12 -->
<g id="edge13_Node000012_Node000014" class="edge">
<title>Node14&#45;&gt;Node12</title>
<g id="a_edge13_Node000012_Node000014"><a xlink:title=" ">
<path fill="none" stroke="#9a32cd" stroke-dasharray="5,2" d="M395.77,-24.07C436.45,-29.43 487.97,-37.61 533,-49 553.33,-54.14 575.67,-62.12 592.34,-68.56"/>
<polygon fill="#9a32cd" stroke="#9a32cd" points="396.47,-20.63 386.1,-22.82 395.57,-27.57 396.47,-20.63"/>
</a>
</g>
<text text-anchor="middle" x="471.5" y="-51.5" font-family="Helvetica,sans-Serif" font-size="10.00" fill="grey"> m_list</text>
</g>
<!-- Node15 -->
<g id="Node000015" class="node">
<title>Node15</title>
<g id="a_Node000015"><a xlink:href="class_cpl_1_1_container_1_1_s_list.html" target="_top" xlink:title="This template class implements a singly linked list which maintains the ordering imposed on it by the...">
<polygon fill="white" stroke="#666666" points="106,-32 0,-32 0,0 106,0 106,-32"/>
<text text-anchor="start" x="8" y="-18.5" font-family="Helvetica,sans-Serif" font-size="10.00">Cpl::Container::SList</text>
<text text-anchor="middle" x="53" y="-6.5" font-family="Helvetica,sans-Serif" font-size="10.00">&lt; ITEM &gt;</text>
</a>
</g>
</g>
<!-- Node15&#45;&gt;Node14 -->
<g id="edge14_Node000014_Node000015" class="edge">
<title>Node15&#45;&gt;Node14</title>
<g id="a_edge14_Node000014_Node000015"><a xlink:title=" ">
<path fill="none" stroke="orange" stroke-dasharray="5,2" d="M117.7,-16C160.8,-16 217.42,-16 260.04,-16"/>
<polygon fill="orange" stroke="orange" points="117.73,-12.5 107.73,-16 117.73,-19.5 117.73,-12.5"/>
</a>
</g>
<text text-anchor="middle" x="179.5" y="-18.5" font-family="Helvetica,sans-Serif" font-size="10.00" fill="grey"> &lt; Cpl::Dm::ModelPoint &gt;</text>
</g>
<!-- Node16 -->
<g id="Node000016" class="node">
<title>Node16</title>
<g id="a_Node000016"><a xlink:href="class_cpl_1_1_system_1_1_mutex.html" target="_top" xlink:title="This mutex class defines the interface for a mutex that has &quot;recursive&quot; semantics.">
<polygon fill="white" stroke="#666666" points="374,-108 271,-108 271,-88 374,-88 374,-108"/>
<text text-anchor="middle" x="322.5" y="-94.5" font-family="Helvetica,sans-Serif" font-size="10.00">Cpl::System::Mutex</text>
</a>
</g>
</g>
<!-- Node16&#45;&gt;Node12 -->
<g id="edge15_Node000012_Node000016" class="edge">
<title>Node16&#45;&gt;Node12</title>
<g id="a_edge15_Node000012_Node000016"><a xlink:title=" ">
<path fill="none" stroke="#9a32cd" stroke-dasharray="5,2" d="M385.8,-93.98C435.97,-90.74 506.14,-86.22 556.18,-82.99"/>
<polygon fill="#9a32cd" stroke="#9a32cd" points="385.73,-90.48 375.97,-94.61 386.18,-97.46 385.73,-90.48"/>
</a>
</g>
<text text-anchor="middle" x="471.5" y="-94.5" font-family="Helvetica,sans-Serif" font-size="10.00" fill="grey"> m_lock</text>
</g>
<!-- Node17 -->
<g id="Node000017" class="node">
<title>Node17</title>
<g id="a_Node000017"><a xlink:href="class_cpl_1_1_dm_1_1_mp_1_1_float.html" target="_top" xlink:title="This class provides a concrete implementation for a Point who&#39;s data is a float.">
<polygon fill="white" stroke="#666666" points="1664.38,-85 1565.88,-85 1565.88,-65 1664.38,-65 1664.38,-85"/>
<text text-anchor="middle" x="1615.12" y="-71.5" font-family="Helvetica,sans-Serif" font-size="10.00">Cpl::Dm::Mp::Float</text>
</a>
</g>
</g>
<!-- Node17&#45;&gt;Node5 -->
<g id="edge16_Node000005_Node000017" class="edge">
<title>Node17&#45;&gt;Node5</title>
<g id="a_edge16_Node000005_Node000017"><a xlink:title=" ">
<path fill="none" stroke="#9a32cd" stroke-dasharray="5,2" d="M1676,-71.59C1704.18,-73 1736.64,-79.33 1760,-98 1776.82,-111.45 1763.41,-127.15 1778,-143 1783.31,-148.76 1789.92,-153.6 1796.84,-157.61"/>
<polygon fill="#9a32cd" stroke="#9a32cd" points="1676.24,-68.09 1666.14,-71.31 1676.04,-75.09 1676.24,-68.09"/>
</a>
</g>
<text text-anchor="middle" x="1729.62" y="-100.5" font-family="Helvetica,sans-Serif" font-size="10.00" fill="grey"> idtDeltaError</text>
</g>
<!-- Node17&#45;&gt;Node24 -->
<g id="edge28_Node000024_Node000017" class="edge">
<title>Node17&#45;&gt;Node24</title>
<g id="a_edge28_Node000024_Node000017"><a xlink:title=" ">
<path fill="none" stroke="#9a32cd" stroke-dasharray="5,2" d="M1641.07,-58.79C1670.31,-41.96 1719.87,-20.25 1760,-37 1791.4,-50.1 1816.77,-82.16 1830.05,-101.79"/>
<polygon fill="#9a32cd" stroke="#9a32cd" points="1639.33,-55.75 1632.57,-63.91 1642.94,-61.75 1639.33,-55.75"/>
</a>
</g>
<text text-anchor="middle" x="1729.62" y="-51.5" font-family="Helvetica,sans-Serif" font-size="10.00" fill="grey"> pvOut</text>
<text text-anchor="middle" x="1729.62" y="-39.5" font-family="Helvetica,sans-Serif" font-size="10.00" fill="grey">sumError</text>
</g>
<!-- Node18&#45;&gt;Node17 -->
<g id="edge17_Node000017_Node000018" class="edge">
<title>Node18&#45;&gt;Node17</title>
<g id="a_edge17_Node000017_Node000018"><a xlink:title=" ">
<path fill="none" stroke="#63b8ff" d="M1456.86,-75C1491.79,-75 1533.79,-75 1565.6,-75"/>
<polygon fill="#63b8ff" stroke="#63b8ff" points="1457.3,-71.5 1447.3,-75 1457.3,-78.5 1457.3,-71.5"/>
</a>
</g>
</g>
<!-- Node19&#45;&gt;Node18 -->
<g id="edge19_Node000018_Node000019" class="edge">
<title>Node19&#45;&gt;Node18</title>
<g id="a_edge19_Node000018_Node000019"><a xlink:title=" ">
<path fill="none" stroke="orange" stroke-dasharray="5,2" d="M1178.47,-64.04C1226.99,-66.57 1288.47,-69.79 1332.28,-72.08"/>
<polygon fill="orange" stroke="orange" points="1178.75,-60.55 1168.58,-63.52 1178.38,-67.54 1178.75,-60.55"/>
</a>
</g>
<text text-anchor="middle" x="1252.38" y="-72.5" font-family="Helvetica,sans-Serif" font-size="10.00" fill="grey"> &lt; float, Float &gt;</text>
</g>
<!-- Node20&#45;&gt;Node5 -->
<g id="edge21_Node000005_Node000020" class="edge">
<title>Node20&#45;&gt;Node5</title>
<g id="a_edge21_Node000005_Node000020"><a xlink:title=" ">
<path fill="none" stroke="#9a32cd" stroke-dasharray="5,2" d="M1183.5,-179.33C1335.24,-178.1 1655.49,-175.5 1784.51,-174.45"/>
<polygon fill="#9a32cd" stroke="#9a32cd" points="1183.92,-175.83 1173.95,-179.41 1183.97,-182.83 1183.92,-175.83"/>
</a>
</g>
<text text-anchor="middle" x="1497.25" y="-179.5" font-family="Helvetica,sans-Serif" font-size="10.00" fill="grey"> systemConfig</text>
</g>
<!-- Node21 -->
<g id="Node000021" class="node">
<title>Node21</title>
<g id="a_Node000021"><a xlink:href="namespace_storm_1_1_type.html#struct_storm_1_1_type_1_1_system_config___t" target="_top" xlink:title="The following typedef contains system attributes, parameters, bounds, etc.">
<polygon fill="white" stroke="#666666" points="955.38,-261 808.88,-261 808.88,-241 955.38,-241 955.38,-261"/>
<text text-anchor="middle" x="882.12" y="-247.5" font-family="Helvetica,sans-Serif" font-size="10.00">Storm::Type::SystemConfig_T</text>
</a>
</g>
</g>
<!-- Node21&#45;&gt;Node20 -->
<g id="edge23_Node000020_Node000021" class="edge">
<title>Node21&#45;&gt;Node20</title>
<g id="a_edge23_Node000020_Node000021"><a xlink:title=" ">
<path fill="none" stroke="#9a32cd" stroke-dasharray="5,2" d="M925.93,-236.94C967.66,-223.23 1030.14,-202.7 1067.58,-190.4"/>
<polygon fill="#9a32cd" stroke="#9a32cd" points="924.86,-233.61 916.45,-240.05 927.05,-240.26 924.86,-233.61"/>
</a>
</g>
<text text-anchor="middle" x="992.88" y="-221.5" font-family="Helvetica,sans-Serif" font-size="10.00" fill="grey"> m_data</text>
</g>
<!-- Node22 -->
<g id="Node000022" class="node">
<title>Node22</title>
<g id="a_Node000022"><a xlink:href="namespace_storm_1_1_type.html#struct_storm_1_1_type_1_1_stage___t" target="_top" xlink:title="The following typedef information per stage.">
<polygon fill="white" stroke="#666666" points="674.62,-261 563.38,-261 563.38,-241 674.62,-241 674.62,-261"/>
<text text-anchor="middle" x="619" y="-247.5" font-family="Helvetica,sans-Serif" font-size="10.00">Storm::Type::Stage_T</text>
</a>
</g>
</g>
<!-- Node22&#45;&gt;Node21 -->
<g id="edge24_Node000021_Node000022" class="edge">
<title>Node22&#45;&gt;Node21</title>
<g id="a_edge24_Node000021_Node000022"><a xlink:title=" ">
<path fill="none" stroke="#9a32cd" stroke-dasharray="5,2" d="M686.34,-251C723.72,-251 770.46,-251 808.78,-251"/>
<polygon fill="#9a32cd" stroke="#9a32cd" points="686.57,-247.5 676.57,-251 686.57,-254.5 686.57,-247.5"/>
</a>
</g>
<text text-anchor="middle" x="747" y="-253.5" font-family="Helvetica,sans-Serif" font-size="10.00" fill="grey"> stages</text>
</g>
<!-- Node23&#45;&gt;Node5 -->
<g id="edge25_Node000005_Node000023" class="edge">
<title>Node23&#45;&gt;Node5</title>
<g id="a_edge25_Node000005_Node000023"><a xlink:title=" ">
<path fill="none" stroke="#9a32cd" stroke-dasharray="5,2" d="M1326.31,-219.04C1425.15,-219.43 1606.86,-216.52 1760,-194 1767.94,-192.83 1776.25,-191.22 1784.37,-189.41"/>
<polygon fill="#9a32cd" stroke="#9a32cd" points="1326.5,-215.54 1316.48,-218.99 1326.46,-222.54 1326.5,-215.54"/>
</a>
</g>
<text text-anchor="middle" x="1497.25" y="-231.5" font-family="Helvetica,sans-Serif" font-size="10.00" fill="grey"> freezePiRefCnt</text>
<text text-anchor="middle" x="1497.25" y="-219.5" font-family="Helvetica,sans-Serif" font-size="10.00" fill="grey">inhibitfRefCnt</text>
</g>
<!-- Node24&#45;&gt;Node1 -->
<g id="edge27_Node000001_Node000024" class="edge">
<title>Node24&#45;&gt;Node1</title>
<g id="a_edge27_Node000001_Node000024"><a xlink:title=" ">
<path fill="none" stroke="#9a32cd" stroke-dasharray="5,2" d="M1906.88,-137.76C1935.33,-146.45 1967.59,-156.29 1991.29,-163.52"/>
<polygon fill="#9a32cd" stroke="#9a32cd" points="1908.22,-134.51 1897.64,-134.94 1906.18,-141.21 1908.22,-134.51"/>
</a>
</g>
<text text-anchor="middle" x="1937.25" y="-153.5" font-family="Helvetica,sans-Serif" font-size="10.00" fill="grey"> m_out</text>
</g>
</g>
</svg>
