<?xml version="1.0" encoding="UTF-8" standalone="no"?>
<!DOCTYPE svg PUBLIC "-//W3C//DTD SVG 1.1//EN"
 "http://www.w3.org/Graphics/SVG/1.1/DTD/svg11.dtd">
<!-- Generated by graphviz version 2.38.0 (20140413.2041)
 -->
<!-- Title: Storm::Dm::MpThermostatMode Pages: 1 -->
<svg width="289pt" height="367pt"
 viewBox="0.00 0.00 288.50 367.00" xmlns="http://www.w3.org/2000/svg" xmlns:xlink="http://www.w3.org/1999/xlink">
<g id="graph0" class="graph" transform="scale(1 1) rotate(0) translate(4 363)">
<title>Storm::Dm::MpThermostatMode</title>
<polygon fill="white" stroke="none" points="-4,4 -4,-363 284.5,-363 284.5,4 -4,4"/>
<!-- Node1 -->
<g id="node1" class="node"><title>Node1</title>
<g id="a_node1"><a xlink:title="Concrete Model Point the ThermostatMode Enum.">
<polygon fill="#bfbfbf" stroke="black" points="23,-0.5 23,-19.5 180,-19.5 180,-0.5 23,-0.5"/>
<text text-anchor="middle" x="101.5" y="-7.5" font-family="Helvetica,sans-Serif" font-size="10.00">Storm::Dm::MpThermostatMode</text>
</a>
</g>
</g>
<!-- Node2 -->
<g id="node2" class="node"><title>Node2</title>
<g id="a_node2"><a xlink:href="class_cpl_1_1_dm_1_1_mp_1_1_enum__.html" target="_top" xlink:title=" ">
<polygon fill="white" stroke="black" points="20.5,-57.5 20.5,-98.5 182.5,-98.5 182.5,-57.5 20.5,-57.5"/>
<text text-anchor="start" x="28.5" y="-86.5" font-family="Helvetica,sans-Serif" font-size="10.00">Cpl::Dm::Mp::Enum_</text>
<text text-anchor="start" x="28.5" y="-75.5" font-family="Helvetica,sans-Serif" font-size="10.00">&lt; Storm::Type::ThermostatMode,</text>
<text text-anchor="middle" x="101.5" y="-64.5" font-family="Helvetica,sans-Serif" font-size="10.00"> MpThermostatMode &gt;</text>
</a>
</g>
</g>
<!-- Node2&#45;&gt;Node1 -->
<g id="edge1" class="edge"><title>Node2&#45;&gt;Node1</title>
<path fill="none" stroke="midnightblue" d="M101.5,-47.1201C101.5,-37.1695 101.5,-26.8372 101.5,-19.7856"/>
<polygon fill="midnightblue" stroke="midnightblue" points="98.0001,-47.1978 101.5,-57.1978 105,-47.1979 98.0001,-47.1978"/>
</g>
<!-- Node3 -->
<g id="node3" class="node"><title>Node3</title>
<g id="a_node3"><a xlink:href="class_cpl_1_1_dm_1_1_model_point_common__.html" target="_top" xlink:title="This concrete class provide common infrastructure for a Model Point.">
<polygon fill="white" stroke="black" points="0,-225.5 0,-244.5 151,-244.5 151,-225.5 0,-225.5"/>
<text text-anchor="middle" x="75.5" y="-232.5" font-family="Helvetica,sans-Serif" font-size="10.00">Cpl::Dm::ModelPointCommon_</text>
</a>
</g>
</g>
<!-- Node3&#45;&gt;Node2 -->
<g id="edge2" class="edge"><title>Node3&#45;&gt;Node2</title>
<path fill="none" stroke="midnightblue" d="M76.4419,-214.983C77.4051,-199.338 79.2361,-176.626 82.5,-157 85.8383,-136.927 91.5487,-114.38 95.8398,-98.7092"/>
<polygon fill="midnightblue" stroke="midnightblue" points="72.9234,-215.223 75.8652,-225.401 79.9127,-215.61 72.9234,-215.223"/>
</g>
<!-- Node6 -->
<g id="node6" class="node"><title>Node6</title>
<g id="a_node6"><a xlink:href="class_cpl_1_1_dm_1_1_mp_1_1_enum__.html" target="_top" xlink:title="This template class provides a mostly concrete implementation for a Model Point who&#39;s data is a BETTE...">
<polygon fill="white" stroke="black" points="92,-157.5 92,-187.5 273,-187.5 273,-157.5 92,-157.5"/>
<text text-anchor="start" x="100" y="-175.5" font-family="Helvetica,sans-Serif" font-size="10.00">Cpl::Dm::Mp::Enum_</text>
<text text-anchor="middle" x="182.5" y="-164.5" font-family="Helvetica,sans-Serif" font-size="10.00">&lt; BETTERENUM_TYPE, MPTYPE &gt;</text>
</a>
</g>
</g>
<!-- Node3&#45;&gt;Node6 -->
<g id="edge6" class="edge"><title>Node3&#45;&gt;Node6</title>
<path fill="none" stroke="midnightblue" d="M99.7649,-220.28C117.071,-210.495 140.267,-197.38 157.694,-187.526"/>
<polygon fill="midnightblue" stroke="midnightblue" points="97.8127,-217.363 90.8305,-225.332 101.258,-223.457 97.8127,-217.363"/>
</g>
<!-- Node4 -->
<g id="node4" class="node"><title>Node4</title>
<g id="a_node4"><a xlink:href="class_cpl_1_1_dm_1_1_model_point.html" target="_top" xlink:title="This mostly abstract class defines the interface for a Model Point.">
<polygon fill="white" stroke="black" points="22,-282.5 22,-301.5 129,-301.5 129,-282.5 22,-282.5"/>
<text text-anchor="middle" x="75.5" y="-289.5" font-family="Helvetica,sans-Serif" font-size="10.00">Cpl::Dm::ModelPoint</text>
</a>
</g>
</g>
<!-- Node4&#45;&gt;Node3 -->
<g id="edge3" class="edge"><title>Node4&#45;&gt;Node3</title>
<path fill="none" stroke="midnightblue" d="M75.5,-272.117C75.5,-262.817 75.5,-252.056 75.5,-244.715"/>
<polygon fill="midnightblue" stroke="midnightblue" points="72.0001,-272.406 75.5,-282.406 79.0001,-272.406 72.0001,-272.406"/>
</g>
<!-- Node5 -->
<g id="node5" class="node"><title>Node5</title>
<g id="a_node5"><a xlink:href="class_cpl_1_1_container_1_1_item.html" target="_top" xlink:title="This class is used by the Container classes to implement a various types of singly linked containers.">
<polygon fill="white" stroke="black" points="23.5,-339.5 23.5,-358.5 127.5,-358.5 127.5,-339.5 23.5,-339.5"/>
<text text-anchor="middle" x="75.5" y="-346.5" font-family="Helvetica,sans-Serif" font-size="10.00">Cpl::Container::Item</text>
</a>
</g>
</g>
<!-- Node5&#45;&gt;Node4 -->
<g id="edge4" class="edge"><title>Node5&#45;&gt;Node4</title>
<path fill="none" stroke="midnightblue" d="M75.5,-329.117C75.5,-319.817 75.5,-309.056 75.5,-301.715"/>
<polygon fill="midnightblue" stroke="midnightblue" points="72.0001,-329.406 75.5,-339.406 79.0001,-329.406 72.0001,-329.406"/>
</g>
<!-- Node6&#45;&gt;Node2 -->
<g id="edge5" class="edge"><title>Node6&#45;&gt;Node2</title>
<path fill="none" stroke="orange" stroke-dasharray="5,2" d="M163.572,-149.885C150.011,-134.399 131.894,-113.71 118.735,-98.6823"/>
<polygon fill="orange" stroke="orange" points="160.977,-152.234 170.198,-157.451 166.243,-147.622 160.977,-152.234"/>
<text text-anchor="start" x="153.5" y="-131" font-family="Helvetica,sans-Serif" font-size="10.00"> &lt; Storm::Type::Thermostat</text>
<text text-anchor="middle" x="217" y="-120" font-family="Helvetica,sans-Serif" font-size="10.00">Mode, MpThermostatMode &gt;</text>
</g>
</g>
</svg>
