<?xml version="1.0" encoding="UTF-8" standalone="no"?>
<!DOCTYPE svg PUBLIC "-//W3C//DTD SVG 1.1//EN"
 "http://www.w3.org/Graphics/SVG/1.1/DTD/svg11.dtd">
<!-- Generated by graphviz version 10.0.1 (20240210.2158)
 -->
<!-- Title: Cpl::Persistent::RecordServer Pages: 1 -->
<svg width="1639pt" height="503pt"
 viewBox="0.00 0.00 1639.25 503.00" xmlns="http://www.w3.org/2000/svg" xmlns:xlink="http://www.w3.org/1999/xlink">
<g id="graph0" class="graph" transform="scale(1 1) rotate(0) translate(4 499)">
<title>Cpl::Persistent::RecordServer</title>
<!-- Node1 -->
<g id="Node000001" class="node">
<title>Node1</title>
<g id="a_Node000001"><a xlink:title="This concrete class provides an Event driven Runnable object for executing the read/write operation t...">
<polygon fill="#999999" stroke="#666666" points="1631.25,-115 1487,-115 1487,-95 1631.25,-95 1631.25,-115"/>
<text text-anchor="middle" x="1559.12" y="-101.5" font-family="Helvetica,sans-Serif" font-size="10.00">Cpl::Persistent::RecordServer</text>
</a>
</g>
</g>
<!-- Node2 -->
<g id="Node000002" class="node">
<title>Node2</title>
<g id="a_Node000002"><a xlink:href="class_cpl_1_1_dm_1_1_mailbox_server.html" target="_top" xlink:title="This class extends the Cpl::Dm::EventLoop and Cpl::Itc:Mailbox classes to support the asynchronous ch...">
<polygon fill="white" stroke="#666666" points="1402.25,-172 1284.25,-172 1284.25,-152 1402.25,-152 1402.25,-172"/>
<text text-anchor="middle" x="1343.25" y="-158.5" font-family="Helvetica,sans-Serif" font-size="10.00">Cpl::Dm::MailboxServer</text>
</a>
</g>
</g>
<!-- Node2&#45;&gt;Node1 -->
<g id="edge1_Node000001_Node000002" class="edge">
<title>Node2&#45;&gt;Node1</title>
<g id="a_edge1_Node000001_Node000002"><a xlink:title=" ">
<path fill="none" stroke="#63b8ff" d="M1394.3,-148.66C1432.27,-138.54 1483.74,-124.83 1518.78,-115.48"/>
<polygon fill="#63b8ff" stroke="#63b8ff" points="1393.7,-145.2 1384.94,-151.16 1395.5,-151.96 1393.7,-145.2"/>
</a>
</g>
</g>
<!-- Node3 -->
<g id="Node000003" class="node">
<title>Node3</title>
<g id="a_Node000003"><a xlink:href="class_cpl_1_1_dm_1_1_event_loop.html" target="_top" xlink:title="This class extends the Cpl::System::EventLoop class to support the asynchronous change notification g...">
<polygon fill="white" stroke="#666666" points="1241.62,-222 1139.38,-222 1139.38,-202 1241.62,-202 1241.62,-222"/>
<text text-anchor="middle" x="1190.5" y="-208.5" font-family="Helvetica,sans-Serif" font-size="10.00">Cpl::Dm::EventLoop</text>
</a>
</g>
</g>
<!-- Node3&#45;&gt;Node2 -->
<g id="edge2_Node000002_Node000003" class="edge">
<title>Node3&#45;&gt;Node2</title>
<g id="a_edge2_Node000002_Node000003"><a xlink:title=" ">
<path fill="none" stroke="#63b8ff" d="M1233.86,-197.95C1258.25,-189.86 1288.39,-179.86 1310.69,-172.47"/>
<polygon fill="#63b8ff" stroke="#63b8ff" points="1232.93,-194.57 1224.54,-201.04 1235.13,-201.22 1232.93,-194.57"/>
</a>
</g>
</g>
<!-- Node4 -->
<g id="Node000004" class="node">
<title>Node4</title>
<g id="a_Node000004"><a xlink:href="class_cpl_1_1_system_1_1_event_loop.html" target="_top" xlink:title="This concrete class is a Runnable object that provides a event driven execution model for a thread.">
<polygon fill="white" stroke="#666666" points="1055.38,-362 934.38,-362 934.38,-342 1055.38,-342 1055.38,-362"/>
<text text-anchor="middle" x="994.88" y="-348.5" font-family="Helvetica,sans-Serif" font-size="10.00">Cpl::System::EventLoop</text>
</a>
</g>
</g>
<!-- Node4&#45;&gt;Node3 -->
<g id="edge3_Node000003_Node000004" class="edge">
<title>Node4&#45;&gt;Node3</title>
<g id="a_edge3_Node000003_Node000004"><a xlink:title=" ">
<path fill="none" stroke="#63b8ff" d="M1019.22,-335.12C1059.69,-305.86 1141.7,-246.56 1174.98,-222.5"/>
<polygon fill="#63b8ff" stroke="#63b8ff" points="1017.39,-332.12 1011.34,-340.82 1021.49,-337.8 1017.39,-332.12"/>
</a>
</g>
</g>
<!-- Node5 -->
<g id="Node000005" class="node">
<title>Node5</title>
<g id="a_Node000005"><a xlink:href="class_cpl_1_1_system_1_1_runnable.html" target="_top" xlink:title="This is an abstract class defines the interface for an object that is &quot;executed&quot; when a Thread object...">
<polygon fill="white" stroke="#666666" points="769,-495 652.5,-495 652.5,-475 769,-475 769,-495"/>
<text text-anchor="middle" x="710.75" y="-481.5" font-family="Helvetica,sans-Serif" font-size="10.00">Cpl::System::Runnable</text>
</a>
</g>
</g>
<!-- Node5&#45;&gt;Node4 -->
<g id="edge4_Node000004_Node000005" class="edge">
<title>Node5&#45;&gt;Node4</title>
<g id="a_edge4_Node000004_Node000005"><a xlink:title=" ">
<path fill="none" stroke="#63b8ff" d="M780.51,-484.59C821.82,-481.58 874.05,-472.72 914.5,-449 951.1,-427.54 978,-382.49 988.74,-362.24"/>
<polygon fill="#63b8ff" stroke="#63b8ff" points="780.44,-481.09 770.67,-485.2 780.87,-488.07 780.44,-481.09"/>
</a>
</g>
</g>
<!-- Node6 -->
<g id="Node000006" class="node">
<title>Node6</title>
<g id="a_Node000006"><a xlink:href="class_cpl_1_1_system_1_1_event_flag.html" target="_top" xlink:title="This abstract class defines the interface to generated a &#39;Event Flag&#39;.">
<polygon fill="white" stroke="#666666" points="770.12,-457 651.38,-457 651.38,-437 770.12,-437 770.12,-457"/>
<text text-anchor="middle" x="710.75" y="-443.5" font-family="Helvetica,sans-Serif" font-size="10.00">Cpl::System::EventFlag</text>
</a>
</g>
</g>
<!-- Node6&#45;&gt;Node4 -->
<g id="edge5_Node000004_Node000006" class="edge">
<title>Node6&#45;&gt;Node4</title>
<g id="a_edge5_Node000004_Node000006"><a xlink:title=" ">
<path fill="none" stroke="#63b8ff" d="M781.96,-449C822.34,-447.67 873.09,-441.68 914.5,-423 945.51,-409.01 972.95,-378.45 985.93,-362.37"/>
<polygon fill="#63b8ff" stroke="#63b8ff" points="782.03,-445.5 772.11,-449.22 782.19,-452.49 782.03,-445.5"/>
</a>
</g>
</g>
<!-- Node7 -->
<g id="Node000007" class="node">
<title>Node7</title>
<g id="a_Node000007"><a xlink:href="class_cpl_1_1_system_1_1_signable.html" target="_top" xlink:title="This abstract class defines the interface by which a client can cause an object that is waiting&#45;on&#45;a&#45;...">
<polygon fill="white" stroke="#666666" points="441.5,-368 328,-368 328,-348 441.5,-348 441.5,-368"/>
<text text-anchor="middle" x="384.75" y="-354.5" font-family="Helvetica,sans-Serif" font-size="10.00">Cpl::System::Signable</text>
</a>
</g>
</g>
<!-- Node7&#45;&gt;Node4 -->
<g id="edge6_Node000004_Node000007" class="edge">
<title>Node7&#45;&gt;Node4</title>
<g id="a_edge6_Node000004_Node000007"><a xlink:title=" ">
<path fill="none" stroke="#63b8ff" d="M444.33,-370.66C458.57,-373.41 473.79,-376.06 488,-378 675.82,-403.6 728.97,-418.87 914.5,-380 933.52,-376.01 954.2,-368.61 969.69,-362.42"/>
<polygon fill="#63b8ff" stroke="#63b8ff" points="445.13,-367.25 434.64,-368.75 443.78,-374.12 445.13,-367.25"/>
</a>
</g>
</g>
<!-- Node13 -->
<g id="Node000013" class="node">
<title>Node13</title>
<g id="a_Node000013"><a xlink:href="class_cpl_1_1_system_1_1_thread.html" target="_top" xlink:title="This abstract class defines the operations that can be performed on a thread.">
<polygon fill="white" stroke="#666666" points="763.38,-381 658.12,-381 658.12,-361 763.38,-361 763.38,-381"/>
<text text-anchor="middle" x="710.75" y="-367.5" font-family="Helvetica,sans-Serif" font-size="10.00">Cpl::System::Thread</text>
</a>
</g>
</g>
<!-- Node7&#45;&gt;Node13 -->
<g id="edge13_Node000013_Node000007" class="edge">
<title>Node7&#45;&gt;Node13</title>
<g id="a_edge13_Node000013_Node000007"><a xlink:title=" ">
<path fill="none" stroke="#63b8ff" d="M453.23,-360.71C514.09,-363.15 602.34,-366.69 657.85,-368.92"/>
<polygon fill="#63b8ff" stroke="#63b8ff" points="453.46,-357.21 443.33,-360.31 453.18,-364.21 453.46,-357.21"/>
</a>
</g>
</g>
<!-- Node15 -->
<g id="Node000015" class="node">
<title>Node15</title>
<g id="a_Node000015"><a xlink:href="class_cpl_1_1_system_1_1_semaphore.html" target="_top" xlink:title="This semaphore class defines the interface for a Counting Semaphore.">
<polygon fill="white" stroke="#666666" points="773.5,-343 648,-343 648,-323 773.5,-323 773.5,-343"/>
<text text-anchor="middle" x="710.75" y="-329.5" font-family="Helvetica,sans-Serif" font-size="10.00">Cpl::System::Semaphore</text>
</a>
</g>
</g>
<!-- Node7&#45;&gt;Node15 -->
<g id="edge16_Node000015_Node000007" class="edge">
<title>Node7&#45;&gt;Node15</title>
<g id="a_edge16_Node000015_Node000007"><a xlink:title=" ">
<path fill="none" stroke="#63b8ff" d="M453.3,-352.79C510.58,-348.37 592.09,-342.08 647.74,-337.78"/>
<polygon fill="#63b8ff" stroke="#63b8ff" points="453.03,-349.3 443.33,-353.56 453.57,-356.28 453.03,-349.3"/>
</a>
</g>
</g>
<!-- Node18 -->
<g id="Node000018" class="node">
<title>Node18</title>
<g id="a_Node000018"><a xlink:href="class_cpl_1_1_itc_1_1_mailbox.html" target="_top" xlink:title="This mailbox class implements an Inter Thread Communications message queue.">
<polygon fill="white" stroke="#666666" points="1233.75,-172 1147.25,-172 1147.25,-152 1233.75,-152 1233.75,-172"/>
<text text-anchor="middle" x="1190.5" y="-158.5" font-family="Helvetica,sans-Serif" font-size="10.00">Cpl::Itc::Mailbox</text>
</a>
</g>
</g>
<!-- Node7&#45;&gt;Node18 -->
<g id="edge24_Node000018_Node000007" class="edge">
<title>Node7&#45;&gt;Node18</title>
<g id="a_edge24_Node000018_Node000007"><a xlink:title=" ">
<path fill="none" stroke="#9a32cd" stroke-dasharray="5,2" d="M420.63,-343.08C469.38,-322.72 561.03,-286.23 642,-264 827.08,-213.2 1054.31,-179.85 1147.06,-167.44"/>
<polygon fill="#9a32cd" stroke="#9a32cd" points="419.3,-339.84 411.44,-346.94 422.01,-346.3 419.3,-339.84"/>
</a>
</g>
<text text-anchor="middle" x="856" y="-227.5" font-family="Helvetica,sans-Serif" font-size="10.00" fill="grey"> m_eventLoop</text>
</g>
<!-- Node8 -->
<g id="Node000008" class="node">
<title>Node8</title>
<g id="a_Node000008"><a xlink:href="class_cpl_1_1_container_1_1_item.html" target="_top" xlink:title="This class is used by the Container classes to implement a various types of singly linked containers.">
<polygon fill="white" stroke="#666666" points="104.12,-368 1.88,-368 1.88,-348 104.12,-348 104.12,-368"/>
<text text-anchor="middle" x="53" y="-354.5" font-family="Helvetica,sans-Serif" font-size="10.00">Cpl::Container::Item</text>
</a>
</g>
</g>
<!-- Node8&#45;&gt;Node7 -->
<g id="edge7_Node000007_Node000008" class="edge">
<title>Node8&#45;&gt;Node7</title>
<g id="a_edge7_Node000007_Node000008"><a xlink:title=" ">
<path fill="none" stroke="#63b8ff" d="M115.79,-358C176.62,-358 268.69,-358 327.51,-358"/>
<polygon fill="#63b8ff" stroke="#63b8ff" points="115.95,-354.5 105.95,-358 115.95,-361.5 115.95,-354.5"/>
</a>
</g>
</g>
<!-- Node9 -->
<g id="Node000009" class="node">
<title>Node9</title>
<g id="a_Node000009"><a xlink:href="class_cpl_1_1_system_1_1_timer_manager.html" target="_top" xlink:title="This mostly concrete class implements manages a list of Software Timers.">
<polygon fill="white" stroke="#666666" points="779.5,-217 642,-217 642,-197 779.5,-197 779.5,-217"/>
<text text-anchor="middle" x="710.75" y="-203.5" font-family="Helvetica,sans-Serif" font-size="10.00">Cpl::System::TimerManager</text>
</a>
</g>
</g>
<!-- Node9&#45;&gt;Node4 -->
<g id="edge8_Node000004_Node000009" class="edge">
<title>Node9&#45;&gt;Node4</title>
<g id="a_edge8_Node000004_Node000009"><a xlink:title=" ">
<path fill="none" stroke="#63b8ff" d="M753.79,-221.12C795.83,-236.04 861.66,-261.6 914.5,-292 940.25,-306.82 967.23,-328.81 982.16,-341.65"/>
<polygon fill="#63b8ff" stroke="#63b8ff" points="755.14,-217.89 744.54,-217.88 752.82,-224.49 755.14,-217.89"/>
</a>
</g>
</g>
<!-- Node10 -->
<g id="Node000010" class="node">
<title>Node10</title>
<g id="a_Node000010"><a xlink:href="class_cpl_1_1_system_1_1_counter_source__.html" target="_top" xlink:title="This abstract class defines the interface for registering for an Counter object with the Timer Manage...">
<polygon fill="white" stroke="#666666" points="457.62,-232 311.88,-232 311.88,-212 457.62,-212 457.62,-232"/>
<text text-anchor="middle" x="384.75" y="-218.5" font-family="Helvetica,sans-Serif" font-size="10.00">Cpl::System::CounterSource_</text>
</a>
</g>
</g>
<!-- Node10&#45;&gt;Node9 -->
<g id="edge9_Node000009_Node000010" class="edge">
<title>Node10&#45;&gt;Node9</title>
<g id="a_edge9_Node000009_Node000010"><a xlink:title=" ">
<path fill="none" stroke="#63b8ff" d="M469.24,-218.13C522.74,-215.66 591.31,-212.48 641.54,-210.16"/>
<polygon fill="#63b8ff" stroke="#63b8ff" points="469.4,-214.62 459.57,-218.58 469.72,-221.62 469.4,-214.62"/>
</a>
</g>
</g>
<!-- Node11 -->
<g id="Node000011" class="node">
<title>Node11</title>
<g id="a_Node000011"><a xlink:href="class_cpl_1_1_container_1_1_d_list.html" target="_top" xlink:title=" ">
<polygon fill="white" stroke="#666666" points="470,-194 299.5,-194 299.5,-162 470,-162 470,-194"/>
<text text-anchor="start" x="307.5" y="-180.5" font-family="Helvetica,sans-Serif" font-size="10.00">Cpl::Container::DList</text>
<text text-anchor="middle" x="384.75" y="-168.5" font-family="Helvetica,sans-Serif" font-size="10.00">&lt; Cpl::System::CounterCallback_ &gt;</text>
</a>
</g>
</g>
<!-- Node11&#45;&gt;Node9 -->
<g id="edge10_Node000009_Node000011" class="edge">
<title>Node11&#45;&gt;Node9</title>
<g id="a_edge10_Node000009_Node000011"><a xlink:title=" ">
<path fill="none" stroke="#9a32cd" stroke-dasharray="5,2" d="M481.74,-174.53C525.36,-174.36 577.51,-176.12 624,-183 642.81,-185.78 663.34,-191.43 679.6,-196.55"/>
<polygon fill="#9a32cd" stroke="#9a32cd" points="481.74,-171.03 471.77,-174.61 481.8,-178.03 481.74,-171.03"/>
</a>
</g>
<text text-anchor="middle" x="556" y="-197.5" font-family="Helvetica,sans-Serif" font-size="10.00" fill="grey"> m_counters</text>
<text text-anchor="middle" x="556" y="-185.5" font-family="Helvetica,sans-Serif" font-size="10.00" fill="grey">m_pendingAttach</text>
</g>
<!-- Node12 -->
<g id="Node000012" class="node">
<title>Node12</title>
<g id="a_Node000012"><a xlink:href="class_cpl_1_1_container_1_1_d_list.html" target="_top" xlink:title="This template class implements a Doubly linked list which maintains the ordering imposed on it by the...">
<polygon fill="white" stroke="#666666" points="106,-170 0,-170 0,-138 106,-138 106,-170"/>
<text text-anchor="start" x="8" y="-156.5" font-family="Helvetica,sans-Serif" font-size="10.00">Cpl::Container::DList</text>
<text text-anchor="middle" x="53" y="-144.5" font-family="Helvetica,sans-Serif" font-size="10.00">&lt; ITEM &gt;</text>
</a>
</g>
</g>
<!-- Node12&#45;&gt;Node11 -->
<g id="edge11_Node000011_Node000012" class="edge">
<title>Node12&#45;&gt;Node11</title>
<g id="a_edge11_Node000011_Node000012"><a xlink:title=" ">
<path fill="none" stroke="orange" stroke-dasharray="5,2" d="M117.59,-158.63C169.3,-162.39 242.69,-167.73 299.32,-171.85"/>
<polygon fill="orange" stroke="orange" points="117.99,-155.15 107.76,-157.91 117.48,-162.13 117.99,-155.15"/>
</a>
</g>
<text text-anchor="middle" x="202.75" y="-172.5" font-family="Helvetica,sans-Serif" font-size="10.00" fill="grey"> &lt; Cpl::System::CounterCallback_ &gt;</text>
</g>
<!-- Node17 -->
<g id="Node000017" class="node">
<title>Node17</title>
<g id="a_Node000017"><a xlink:href="class_cpl_1_1_container_1_1_d_list.html" target="_top" xlink:title=" ">
<polygon fill="white" stroke="#666666" points="624,-155 488,-155 488,-123 624,-123 624,-155"/>
<text text-anchor="start" x="496" y="-141.5" font-family="Helvetica,sans-Serif" font-size="10.00">Cpl::Container::DList</text>
<text text-anchor="middle" x="556" y="-129.5" font-family="Helvetica,sans-Serif" font-size="10.00">&lt; Cpl::Dm::SubscriberApi &gt;</text>
</a>
</g>
</g>
<!-- Node12&#45;&gt;Node17 -->
<g id="edge19_Node000017_Node000012" class="edge">
<title>Node12&#45;&gt;Node17</title>
<g id="a_edge19_Node000017_Node000012"><a xlink:title=" ">
<path fill="none" stroke="orange" stroke-dasharray="5,2" d="M117.43,-143.61C119.64,-143.39 121.84,-143.18 124,-143 252.27,-132.38 402.74,-134.23 487.67,-136.58"/>
<polygon fill="orange" stroke="orange" points="117.29,-140.11 107.77,-144.75 118.11,-147.06 117.29,-140.11"/>
</a>
</g>
<text text-anchor="middle" x="202.75" y="-145.5" font-family="Helvetica,sans-Serif" font-size="10.00" fill="grey"> &lt; Cpl::Dm::SubscriberApi &gt;</text>
</g>
<!-- Node13&#45;&gt;Node4 -->
<g id="edge12_Node000004_Node000013" class="edge">
<title>Node13&#45;&gt;Node4</title>
<g id="a_edge12_Node000004_Node000013"><a xlink:title=" ">
<path fill="none" stroke="#9a32cd" stroke-dasharray="5,2" d="M775.22,-366.73C822.77,-363.52 887.39,-359.17 934.04,-356.03"/>
<polygon fill="#9a32cd" stroke="#9a32cd" points="775.08,-363.23 765.33,-367.39 775.55,-370.21 775.08,-363.23"/>
</a>
</g>
<text text-anchor="middle" x="856" y="-366.5" font-family="Helvetica,sans-Serif" font-size="10.00" fill="grey"> m_myThreadPtr</text>
</g>
<!-- Node14 -->
<g id="Node000014" class="node">
<title>Node14</title>
<g id="a_Node000014"><a xlink:href="class_cpl_1_1_system_1_1_shared_event_handler_api.html" target="_top" xlink:title="This abstract class defines the interface for a Shared Event Handler.">
<polygon fill="white" stroke="#666666" points="776.12,-305 645.38,-305 645.38,-273 776.12,-273 776.12,-305"/>
<text text-anchor="start" x="653.38" y="-291.5" font-family="Helvetica,sans-Serif" font-size="10.00">Cpl::System::SharedEvent</text>
<text text-anchor="middle" x="710.75" y="-279.5" font-family="Helvetica,sans-Serif" font-size="10.00">HandlerApi</text>
</a>
</g>
</g>
<!-- Node14&#45;&gt;Node4 -->
<g id="edge14_Node000004_Node000014" class="edge">
<title>Node14&#45;&gt;Node4</title>
<g id="a_edge14_Node000004_Node000014"><a xlink:title=" ">
<path fill="none" stroke="#9a32cd" stroke-dasharray="5,2" d="M787.7,-295.09C826.19,-299.37 873.37,-306.47 914.5,-318 935.29,-323.83 957.8,-333.86 973.53,-341.52"/>
<polygon fill="#9a32cd" stroke="#9a32cd" points="788.38,-291.64 778.07,-294.06 787.64,-298.6 788.38,-291.64"/>
</a>
</g>
<text text-anchor="middle" x="856" y="-320.5" font-family="Helvetica,sans-Serif" font-size="10.00" fill="grey"> m_eventHandler</text>
</g>
<!-- Node15&#45;&gt;Node4 -->
<g id="edge15_Node000004_Node000015" class="edge">
<title>Node15&#45;&gt;Node4</title>
<g id="a_edge15_Node000004_Node000015"><a xlink:title=" ">
<path fill="none" stroke="#9a32cd" stroke-dasharray="5,2" d="M785.1,-334.16C823.67,-335.2 871.71,-337.2 914.5,-341 920.87,-341.57 927.52,-342.28 934.14,-343.08"/>
<polygon fill="#9a32cd" stroke="#9a32cd" points="785.57,-330.67 775.48,-333.91 785.39,-337.67 785.57,-330.67"/>
</a>
</g>
<text text-anchor="middle" x="856" y="-343.5" font-family="Helvetica,sans-Serif" font-size="10.00" fill="grey"> m_sema</text>
</g>
<!-- Node16 -->
<g id="Node000016" class="node">
<title>Node16</title>
<g id="a_Node000016"><a xlink:href="class_cpl_1_1_dm_1_1_notification_api__.html" target="_top" xlink:title="This class has PACKAGE Scope, i.e.">
<polygon fill="white" stroke="#666666" points="1057.25,-260 932.5,-260 932.5,-240 1057.25,-240 1057.25,-260"/>
<text text-anchor="middle" x="994.88" y="-246.5" font-family="Helvetica,sans-Serif" font-size="10.00">Cpl::Dm::NotificationApi_</text>
</a>
</g>
</g>
<!-- Node16&#45;&gt;Node3 -->
<g id="edge17_Node000003_Node000016" class="edge">
<title>Node16&#45;&gt;Node3</title>
<g id="a_edge17_Node000003_Node000016"><a xlink:title=" ">
<path fill="none" stroke="#63b8ff" d="M1060.4,-237.34C1085.96,-232.32 1114.92,-226.64 1138.92,-221.93"/>
<polygon fill="#63b8ff" stroke="#63b8ff" points="1059.92,-233.86 1050.78,-239.22 1061.27,-240.73 1059.92,-233.86"/>
</a>
</g>
</g>
<!-- Node17&#45;&gt;Node3 -->
<g id="edge18_Node000003_Node000017" class="edge">
<title>Node17&#45;&gt;Node3</title>
<g id="a_edge18_Node000003_Node000017"><a xlink:title=" ">
<path fill="none" stroke="#9a32cd" stroke-dasharray="5,2" d="M635.44,-149.22C637.65,-149.48 639.84,-149.75 642,-150 762.96,-164.26 793.48,-165.3 914.5,-179 992.98,-187.88 1083.96,-198.95 1139.09,-205.75"/>
<polygon fill="#9a32cd" stroke="#9a32cd" points="636.11,-145.77 625.76,-148.03 635.26,-152.72 636.11,-145.77"/>
</a>
</g>
<text text-anchor="middle" x="856" y="-181.5" font-family="Helvetica,sans-Serif" font-size="10.00" fill="grey"> m_pendingMpNotifications</text>
</g>
<!-- Node18&#45;&gt;Node2 -->
<g id="edge20_Node000002_Node000018" class="edge">
<title>Node18&#45;&gt;Node2</title>
<g id="a_edge20_Node000002_Node000018"><a xlink:title=" ">
<path fill="none" stroke="#63b8ff" d="M1245.13,-162C1257.68,-162 1271.12,-162 1283.87,-162"/>
<polygon fill="#63b8ff" stroke="#63b8ff" points="1245.41,-158.5 1235.41,-162 1245.41,-165.5 1245.41,-158.5"/>
</a>
</g>
</g>
<!-- Node19 -->
<g id="Node000019" class="node">
<title>Node19</title>
<g id="a_Node000019"><a xlink:href="class_cpl_1_1_itc_1_1_post_api.html" target="_top" xlink:title="This abstract class represents the interface used to send messages to a mailbox.">
<polygon fill="white" stroke="#666666" points="1038.5,-96 951.25,-96 951.25,-76 1038.5,-76 1038.5,-96"/>
<text text-anchor="middle" x="994.88" y="-82.5" font-family="Helvetica,sans-Serif" font-size="10.00">Cpl::Itc::PostApi</text>
</a>
</g>
</g>
<!-- Node19&#45;&gt;Node18 -->
<g id="edge21_Node000018_Node000019" class="edge">
<title>Node19&#45;&gt;Node18</title>
<g id="a_edge21_Node000018_Node000019"><a xlink:title=" ">
<path fill="none" stroke="#63b8ff" d="M1043.66,-99.96C1048.29,-101.56 1052.88,-103.25 1057.25,-105 1092.5,-119.1 1098.71,-128.4 1133.75,-143 1141.02,-146.03 1148.96,-148.95 1156.51,-151.56"/>
<polygon fill="#63b8ff" stroke="#63b8ff" points="1044.92,-96.69 1034.32,-96.88 1042.72,-103.34 1044.92,-96.69"/>
</a>
</g>
</g>
<!-- Node23 -->
<g id="Node000023" class="node">
<title>Node23</title>
<g id="a_Node000023"><a xlink:href="class_cpl_1_1_itc_1_1_open_sync.html" target="_top" xlink:title="This partially concrete class implements the synchronous ITC open call for the OpenApi.">
<polygon fill="white" stroke="#666666" points="1239.75,-58 1141.25,-58 1141.25,-38 1239.75,-38 1239.75,-58"/>
<text text-anchor="middle" x="1190.5" y="-44.5" font-family="Helvetica,sans-Serif" font-size="10.00">Cpl::Itc::OpenSync</text>
</a>
</g>
</g>
<!-- Node19&#45;&gt;Node23 -->
<g id="edge29_Node000023_Node000019" class="edge">
<title>Node19&#45;&gt;Node23</title>
<g id="a_edge29_Node000023_Node000019"><a xlink:title=" ">
<path fill="none" stroke="#9a32cd" stroke-dasharray="5,2" d="M1049.85,-75.41C1078.39,-69.81 1113.15,-62.98 1140.86,-57.55"/>
<polygon fill="#9a32cd" stroke="#9a32cd" points="1049.47,-71.91 1040.33,-77.28 1050.82,-78.78 1049.47,-71.91"/>
</a>
</g>
<text text-anchor="middle" x="1095.5" y="-72.5" font-family="Helvetica,sans-Serif" font-size="10.00" fill="grey"> m_mbox</text>
</g>
<!-- Node20 -->
<g id="Node000020" class="node">
<title>Node20</title>
<g id="a_Node000020"><a xlink:href="class_cpl_1_1_container_1_1_s_list.html" target="_top" xlink:title=" ">
<polygon fill="white" stroke="#666666" points="1047.88,-146 941.88,-146 941.88,-114 1047.88,-114 1047.88,-146"/>
<text text-anchor="start" x="949.88" y="-132.5" font-family="Helvetica,sans-Serif" font-size="10.00">Cpl::Container::SList</text>
<text text-anchor="middle" x="994.88" y="-120.5" font-family="Helvetica,sans-Serif" font-size="10.00">&lt; Message &gt;</text>
</a>
</g>
</g>
<!-- Node20&#45;&gt;Node18 -->
<g id="edge22_Node000018_Node000020" class="edge">
<title>Node20&#45;&gt;Node18</title>
<g id="a_edge22_Node000018_Node000020"><a xlink:title=" ">
<path fill="none" stroke="#63b8ff" d="M1059.43,-140.5C1088.1,-145.24 1121.21,-150.71 1146.85,-154.95"/>
<polygon fill="#63b8ff" stroke="#63b8ff" points="1060.2,-137.08 1049.77,-138.91 1059.06,-143.99 1060.2,-137.08"/>
</a>
</g>
</g>
<!-- Node21 -->
<g id="Node000021" class="node">
<title>Node21</title>
<g id="a_Node000021"><a xlink:href="class_cpl_1_1_container_1_1_s_list.html" target="_top" xlink:title="This template class implements a singly linked list which maintains the ordering imposed on it by the...">
<polygon fill="white" stroke="#666666" points="763.75,-141 657.75,-141 657.75,-109 763.75,-109 763.75,-141"/>
<text text-anchor="start" x="665.75" y="-127.5" font-family="Helvetica,sans-Serif" font-size="10.00">Cpl::Container::SList</text>
<text text-anchor="middle" x="710.75" y="-115.5" font-family="Helvetica,sans-Serif" font-size="10.00">&lt; ITEM &gt;</text>
</a>
</g>
</g>
<!-- Node21&#45;&gt;Node20 -->
<g id="edge23_Node000020_Node000021" class="edge">
<title>Node21&#45;&gt;Node20</title>
<g id="a_edge23_Node000020_Node000021"><a xlink:title=" ">
<path fill="none" stroke="orange" stroke-dasharray="5,2" d="M775.52,-126.13C825.73,-127.02 894.83,-128.24 941.75,-129.08"/>
<polygon fill="orange" stroke="orange" points="775.73,-122.63 765.67,-125.96 775.6,-129.63 775.73,-122.63"/>
</a>
</g>
<text text-anchor="middle" x="856" y="-130.5" font-family="Helvetica,sans-Serif" font-size="10.00" fill="grey"> &lt; Message &gt;</text>
</g>
<!-- Node22 -->
<g id="Node000022" class="node">
<title>Node22</title>
<g id="a_Node000022"><a xlink:href="class_cpl_1_1_itc_1_1_close_sync.html" target="_top" xlink:title="This partially concrete class implements the synchronous ITC close call for the CloseApi.">
<polygon fill="white" stroke="#666666" points="1393.25,-115 1293.25,-115 1293.25,-95 1393.25,-95 1393.25,-115"/>
<text text-anchor="middle" x="1343.25" y="-101.5" font-family="Helvetica,sans-Serif" font-size="10.00">Cpl::Itc::CloseSync</text>
</a>
</g>
</g>
<!-- Node22&#45;&gt;Node1 -->
<g id="edge25_Node000001_Node000022" class="edge">
<title>Node22&#45;&gt;Node1</title>
<g id="a_edge25_Node000001_Node000022"><a xlink:title=" ">
<path fill="none" stroke="#63b8ff" d="M1404.96,-105C1430.43,-105 1460.23,-105 1486.74,-105"/>
<polygon fill="#63b8ff" stroke="#63b8ff" points="1405.1,-101.5 1395.1,-105 1405.1,-108.5 1405.1,-101.5"/>
</a>
</g>
</g>
<!-- Node23&#45;&gt;Node22 -->
<g id="edge26_Node000022_Node000023" class="edge">
<title>Node23&#45;&gt;Node22</title>
<g id="a_edge26_Node000022_Node000023"><a xlink:title=" ">
<path fill="none" stroke="#63b8ff" d="M1235.44,-62.3C1239.46,-63.81 1243.45,-65.39 1247.25,-67 1264.27,-74.22 1267.19,-78.88 1284.25,-86 1291.58,-89.06 1299.6,-91.96 1307.27,-94.53"/>
<polygon fill="#63b8ff" stroke="#63b8ff" points="1236.84,-59.08 1226.24,-58.98 1234.46,-65.67 1236.84,-59.08"/>
</a>
</g>
</g>
<!-- Node24 -->
<g id="Node000024" class="node">
<title>Node24</title>
<g id="a_Node000024"><a xlink:href="class_cpl_1_1_itc_1_1_open_api.html" target="_top" xlink:title="This abstract class defines an open interface.">
<polygon fill="white" stroke="#666666" points="1040,-58 949.75,-58 949.75,-38 1040,-38 1040,-58"/>
<text text-anchor="middle" x="994.88" y="-44.5" font-family="Helvetica,sans-Serif" font-size="10.00">Cpl::Itc::OpenApi</text>
</a>
</g>
</g>
<!-- Node24&#45;&gt;Node23 -->
<g id="edge27_Node000023_Node000024" class="edge">
<title>Node24&#45;&gt;Node23</title>
<g id="a_edge27_Node000023_Node000024"><a xlink:title=" ">
<path fill="none" stroke="#63b8ff" d="M1051.6,-48C1079.81,-48 1113.73,-48 1140.87,-48"/>
<polygon fill="#63b8ff" stroke="#63b8ff" points="1051.81,-44.5 1041.81,-48 1051.81,-51.5 1051.81,-44.5"/>
</a>
</g>
</g>
<!-- Node25 -->
<g id="Node000025" class="node">
<title>Node25</title>
<g id="a_Node000025"><a xlink:href="class_cpl_1_1_itc_1_1_open_request.html" target="_top" xlink:title="This abstract class define message types and payloads for a set of ITC services.">
<polygon fill="white" stroke="#666666" points="1050.88,-20 938.88,-20 938.88,0 1050.88,0 1050.88,-20"/>
<text text-anchor="middle" x="994.88" y="-6.5" font-family="Helvetica,sans-Serif" font-size="10.00">Cpl::Itc::OpenRequest</text>
</a>
</g>
</g>
<!-- Node25&#45;&gt;Node23 -->
<g id="edge28_Node000023_Node000025" class="edge">
<title>Node25&#45;&gt;Node23</title>
<g id="a_edge28_Node000023_Node000025"><a xlink:title=" ">
<path fill="none" stroke="#63b8ff" d="M1060.32,-22.65C1086.6,-27.81 1116.49,-33.67 1140.89,-38.46"/>
<polygon fill="#63b8ff" stroke="#63b8ff" points="1061.27,-19.27 1050.78,-20.78 1059.92,-26.14 1061.27,-19.27"/>
</a>
</g>
</g>
<!-- Node26 -->
<g id="Node000026" class="node">
<title>Node26</title>
<g id="a_Node000026"><a xlink:href="class_cpl_1_1_itc_1_1_close_api.html" target="_top" xlink:title="This abstract class defines an close interface.">
<polygon fill="white" stroke="#666666" points="1236.38,-96 1144.62,-96 1144.62,-76 1236.38,-76 1236.38,-96"/>
<text text-anchor="middle" x="1190.5" y="-82.5" font-family="Helvetica,sans-Serif" font-size="10.00">Cpl::Itc::CloseApi</text>
</a>
</g>
</g>
<!-- Node26&#45;&gt;Node22 -->
<g id="edge30_Node000022_Node000026" class="edge">
<title>Node26&#45;&gt;Node22</title>
<g id="a_edge30_Node000022_Node000026"><a xlink:title=" ">
<path fill="none" stroke="#63b8ff" d="M1247.8,-93.1C1262.59,-94.96 1278.44,-96.96 1292.84,-98.77"/>
<polygon fill="#63b8ff" stroke="#63b8ff" points="1248.59,-89.67 1238.23,-91.89 1247.72,-96.61 1248.59,-89.67"/>
</a>
</g>
</g>
<!-- Node27 -->
<g id="Node000027" class="node">
<title>Node27</title>
<g id="a_Node000027"><a xlink:href="class_cpl_1_1_itc_1_1_close_request.html" target="_top" xlink:title="This abstract class define message types and payloads for a set of ITC services.">
<polygon fill="white" stroke="#666666" points="1247.25,-134 1133.75,-134 1133.75,-114 1247.25,-114 1247.25,-134"/>
<text text-anchor="middle" x="1190.5" y="-120.5" font-family="Helvetica,sans-Serif" font-size="10.00">Cpl::Itc::CloseRequest</text>
</a>
</g>
</g>
<!-- Node27&#45;&gt;Node22 -->
<g id="edge31_Node000022_Node000027" class="edge">
<title>Node27&#45;&gt;Node22</title>
<g id="a_edge31_Node000022_Node000027"><a xlink:title=" ">
<path fill="none" stroke="#63b8ff" d="M1258.97,-115.5C1270.43,-114.05 1282.14,-112.58 1293.01,-111.21"/>
<polygon fill="#63b8ff" stroke="#63b8ff" points="1258.62,-112.01 1249.14,-116.74 1259.49,-118.96 1258.62,-112.01"/>
</a>
</g>
</g>
<!-- Node28 -->
<g id="Node000028" class="node">
<title>Node28</title>
<g id="a_Node000028"><a xlink:href="class_cpl_1_1_persistent_1_1_record.html" target="_top" xlink:title="This abstract class defines the public interface for a Record instance.">
<polygon fill="white" stroke="#666666" points="1401.88,-77 1284.62,-77 1284.62,-57 1401.88,-57 1401.88,-77"/>
<text text-anchor="middle" x="1343.25" y="-63.5" font-family="Helvetica,sans-Serif" font-size="10.00">Cpl::Persistent::Record</text>
</a>
</g>
</g>
<!-- Node28&#45;&gt;Node1 -->
<g id="edge32_Node000001_Node000028" class="edge">
<title>Node28&#45;&gt;Node1</title>
<g id="a_edge32_Node000001_Node000028"><a xlink:title=" ">
<path fill="none" stroke="#9a32cd" stroke-dasharray="5,2" d="M1413.65,-79.2C1431.68,-82.38 1451.06,-85.81 1469,-89 1479.06,-90.79 1489.76,-92.7 1500.12,-94.56"/>
<polygon fill="#9a32cd" stroke="#9a32cd" points="1414.28,-75.76 1403.82,-77.47 1413.06,-82.65 1414.28,-75.76"/>
</a>
</g>
<text text-anchor="middle" x="1444.62" y="-91.5" font-family="Helvetica,sans-Serif" font-size="10.00" fill="grey"> m_records</text>
</g>
</g>
</svg>
