<?xml version="1.0" encoding="UTF-8" standalone="no"?>
<!DOCTYPE svg PUBLIC "-//W3C//DTD SVG 1.1//EN"
 "http://www.w3.org/Graphics/SVG/1.1/DTD/svg11.dtd">
<!-- Generated by graphviz version 10.0.1 (20240210.2158)
 -->
<!-- Title: Cpl::Persistent::DataRecord Pages: 1 -->
<svg width="286pt" height="152pt"
 viewBox="0.00 0.00 286.38 152.00" xmlns="http://www.w3.org/2000/svg" xmlns:xlink="http://www.w3.org/1999/xlink">
<g id="graph0" class="graph" transform="scale(1 1) rotate(0) translate(4 148)">
<title>Cpl::Persistent::DataRecord</title>
<!-- Node1 -->
<g id="Node000001" class="node">
<title>Node1</title>
<g id="a_Node000001"><a xlink:title="This mostly concrete class implements the Cpl::Persistent::DataRecord interface where a DataRecord in...">
<polygon fill="#999999" stroke="#666666" points="213,-88 75.5,-88 75.5,-68 213,-68 213,-88"/>
<text text-anchor="middle" x="144.25" y="-74.5" font-family="Helvetica,sans-Serif" font-size="10.00">Cpl::Persistent::DataRecord</text>
</a>
</g>
</g>
<!-- Node4 -->
<g id="Node000004" class="node">
<title>Node4</title>
<g id="a_Node000004"><a xlink:href="class_cpl_1_1_persistent_1_1_index_record.html" target="_top" xlink:title="This concrete class extends the Cpl::Persistent::DataRecord interface to store a latest/oldest &#39;recor...">
<polygon fill="white" stroke="#666666" points="140.5,-26 0,-26 0,-6 140.5,-6 140.5,-26"/>
<text text-anchor="middle" x="70.25" y="-12.5" font-family="Helvetica,sans-Serif" font-size="10.00">Cpl::Persistent::IndexRecord</text>
</a>
</g>
</g>
<!-- Node1&#45;&gt;Node4 -->
<g id="edge3_Node000001_Node000004" class="edge">
<title>Node1&#45;&gt;Node4</title>
<g id="a_edge3_Node000001_Node000004"><a xlink:title=" ">
<path fill="none" stroke="#63b8ff" d="M123.96,-60.55C110.27,-49.45 92.73,-35.23 81.49,-26.11"/>
<polygon fill="#63b8ff" stroke="#63b8ff" points="121.54,-63.09 131.51,-66.67 125.95,-57.66 121.54,-63.09"/>
</a>
</g>
</g>
<!-- Node5 -->
<g id="Node000005" class="node">
<title>Node5</title>
<g id="a_Node000005"><a xlink:href="class_cpl_1_1_persistent_1_1_indexed_entry_record.html" target="_top" xlink:title="This concrete class implements the Cpl::Persistent::Record interface to store a collection &#39;entries&#39;.">
<polygon fill="white" stroke="#666666" points="278.38,-32 158.12,-32 158.12,0 278.38,0 278.38,-32"/>
<text text-anchor="start" x="166.12" y="-18.5" font-family="Helvetica,sans-Serif" font-size="10.00">Cpl::Persistent::Indexed</text>
<text text-anchor="middle" x="218.25" y="-6.5" font-family="Helvetica,sans-Serif" font-size="10.00">EntryRecord</text>
</a>
</g>
</g>
<!-- Node1&#45;&gt;Node5 -->
<g id="edge4_Node000001_Node000005" class="edge">
<title>Node1&#45;&gt;Node5</title>
<g id="a_edge4_Node000001_Node000005"><a xlink:title=" ">
<path fill="none" stroke="#63b8ff" d="M164.59,-60.51C175.42,-51.72 188.67,-40.98 199.29,-32.37"/>
<polygon fill="#63b8ff" stroke="#63b8ff" points="162.55,-57.66 156.99,-66.67 166.96,-63.09 162.55,-57.66"/>
</a>
</g>
</g>
<!-- Node2 -->
<g id="Node000002" class="node">
<title>Node2</title>
<g id="a_Node000002"><a xlink:href="class_cpl_1_1_persistent_1_1_record.html" target="_top" xlink:title="This abstract class defines the public interface for a Record instance.">
<polygon fill="white" stroke="#666666" points="133.88,-144 16.62,-144 16.62,-124 133.88,-124 133.88,-144"/>
<text text-anchor="middle" x="75.25" y="-130.5" font-family="Helvetica,sans-Serif" font-size="10.00">Cpl::Persistent::Record</text>
</a>
</g>
</g>
<!-- Node2&#45;&gt;Node1 -->
<g id="edge1_Node000001_Node000002" class="edge">
<title>Node2&#45;&gt;Node1</title>
<g id="a_edge1_Node000001_Node000002"><a xlink:title=" ">
<path fill="none" stroke="#63b8ff" d="M96.1,-116.68C107.98,-107.39 122.42,-96.09 132.37,-88.3"/>
<polygon fill="#63b8ff" stroke="#63b8ff" points="94.18,-113.74 88.46,-122.66 98.49,-119.25 94.18,-113.74"/>
</a>
</g>
</g>
<!-- Node3 -->
<g id="Node000003" class="node">
<title>Node3</title>
<g id="a_Node000003"><a xlink:href="class_cpl_1_1_persistent_1_1_payload.html" target="_top" xlink:title="This abstract class defines the interface accessing the &#39;data payload&#39; of an individual Record instan...">
<polygon fill="white" stroke="#666666" points="274.12,-144 152.38,-144 152.38,-124 274.12,-124 274.12,-144"/>
<text text-anchor="middle" x="213.25" y="-130.5" font-family="Helvetica,sans-Serif" font-size="10.00">Cpl::Persistent::Payload</text>
</a>
</g>
</g>
<!-- Node3&#45;&gt;Node1 -->
<g id="edge2_Node000001_Node000003" class="edge">
<title>Node3&#45;&gt;Node1</title>
<g id="a_edge2_Node000001_Node000003"><a xlink:title=" ">
<path fill="none" stroke="#63b8ff" d="M192.4,-116.68C180.52,-107.39 166.08,-96.09 156.13,-88.3"/>
<polygon fill="#63b8ff" stroke="#63b8ff" points="190.01,-119.25 200.04,-122.66 194.32,-113.74 190.01,-119.25"/>
</a>
</g>
</g>
</g>
</svg>
