<?xml version="1.0" encoding="UTF-8" standalone="no"?>
<!DOCTYPE svg PUBLIC "-//W3C//DTD SVG 1.1//EN"
 "http://www.w3.org/Graphics/SVG/1.1/DTD/svg11.dtd">
<!-- Generated by graphviz version 10.0.1 (20240210.2158)
 -->
<!-- Title: Storm::Component::Base Pages: 1 -->
<svg width="276pt" height="120pt"
 viewBox="0.00 0.00 276.12 120.00" xmlns="http://www.w3.org/2000/svg" xmlns:xlink="http://www.w3.org/1999/xlink">
<g id="graph0" class="graph" transform="scale(1 1) rotate(0) translate(4 116)">
<title>Storm::Component::Base</title>
<!-- Node1 -->
<g id="Node000001" class="node">
<title>Node1</title>
<g id="a_Node000001"><a xlink:title="This partially concrete class provide core infrastructure for Components.">
<polygon fill="#999999" stroke="#666666" points="193.12,-20 66.88,-20 66.88,0 193.12,0 193.12,-20"/>
<text text-anchor="middle" x="130" y="-6.5" font-family="Helvetica,sans-Serif" font-size="10.00">Storm::Component::Base</text>
</a>
</g>
</g>
<!-- Node2 -->
<g id="Node000002" class="node">
<title>Node2</title>
<g id="a_Node000002"><a xlink:href="class_storm_1_1_component_1_1_api.html" target="_top" xlink:title="This class define the interface for a Component.">
<polygon fill="white" stroke="#666666" points="118,-106 0,-106 0,-86 118,-86 118,-106"/>
<text text-anchor="middle" x="59" y="-92.5" font-family="Helvetica,sans-Serif" font-size="10.00">Storm::Component::Api</text>
</a>
</g>
</g>
<!-- Node2&#45;&gt;Node1 -->
<g id="edge1_Node000001_Node000002" class="edge">
<title>Node2&#45;&gt;Node1</title>
<g id="a_edge1_Node000001_Node000002"><a xlink:title=" ">
<path fill="none" stroke="#63b8ff" d="M74.2,-77.01C88.89,-59.64 110.56,-34 122.1,-20.35"/>
<polygon fill="#63b8ff" stroke="#63b8ff" points="71.63,-74.64 67.85,-84.53 76.98,-79.16 71.63,-74.64"/>
</a>
</g>
</g>
<!-- Node3 -->
<g id="Node000003" class="node">
<title>Node3</title>
<g id="a_Node000003"><a xlink:href="struct_cpl_1_1_system_1_1_elapsed_time_1_1_precision___t.html" target="_top" xlink:title="Data type for time in seconds with a &#39;fractional&#39; millisecond precision.">
<polygon fill="white" stroke="#666666" points="268.12,-112 135.88,-112 135.88,-80 268.12,-80 268.12,-112"/>
<text text-anchor="start" x="143.88" y="-98.5" font-family="Helvetica,sans-Serif" font-size="10.00">Cpl::System::ElapsedTime</text>
<text text-anchor="middle" x="202" y="-86.5" font-family="Helvetica,sans-Serif" font-size="10.00">::Precision_T</text>
</a>
</g>
</g>
<!-- Node3&#45;&gt;Node1 -->
<g id="edge2_Node000001_Node000003" class="edge">
<title>Node3&#45;&gt;Node1</title>
<g id="a_edge2_Node000001_Node000003"><a xlink:title=" ">
<path fill="none" stroke="#9a32cd" stroke-dasharray="5,2" d="M181.62,-71.22C167.03,-54.21 148.2,-32.24 137.79,-20.09"/>
<polygon fill="#9a32cd" stroke="#9a32cd" points="178.64,-73.13 187.81,-78.44 183.96,-68.57 178.64,-73.13"/>
</a>
</g>
<text text-anchor="middle" x="199" y="-52.5" font-family="Helvetica,sans-Serif" font-size="10.00" fill="grey"> m_interval</text>
<text text-anchor="middle" x="199" y="-40.5" font-family="Helvetica,sans-Serif" font-size="10.00" fill="grey">m_timeMark</text>
</g>
</g>
</svg>
