<?xml version="1.0" encoding="UTF-8" standalone="no"?>
<!DOCTYPE svg PUBLIC "-//W3C//DTD SVG 1.1//EN"
 "http://www.w3.org/Graphics/SVG/1.1/DTD/svg11.dtd">
<!-- Generated by graphviz version 10.0.1 (20240210.2158)
 -->
<!-- Title: Cpl::Dm::Persistent::FlushRequest Pages: 1 -->
<svg width="395pt" height="140pt"
 viewBox="0.00 0.00 395.00 140.00" xmlns="http://www.w3.org/2000/svg" xmlns:xlink="http://www.w3.org/1999/xlink">
<g id="graph0" class="graph" transform="scale(1 1) rotate(0) translate(4 136)">
<title>Cpl::Dm::Persistent::FlushRequest</title>
<!-- Node1 -->
<g id="Node000001" class="node">
<title>Node1</title>
<g id="a_Node000001"><a xlink:title="This abstract class define ITC message type and payload for the application to request flushing the R...">
<polygon fill="#999999" stroke="#666666" points="101.5,-82 0,-82 0,-50 101.5,-50 101.5,-82"/>
<text text-anchor="start" x="8" y="-68.5" font-family="Helvetica,sans-Serif" font-size="10.00">Cpl::Dm::Persistent</text>
<text text-anchor="middle" x="50.75" y="-56.5" font-family="Helvetica,sans-Serif" font-size="10.00">::FlushRequest</text>
</a>
</g>
</g>
<!-- Node2 -->
<g id="Node000002" class="node">
<title>Node2</title>
<g id="a_Node000002"><a xlink:href="class_cpl_1_1_dm_1_1_persistent_1_1_record.html" target="_top" xlink:title="This mostly concrete class implements the Cpl::Persistent::Record interface where a Record instance c...">
<polygon fill="white" stroke="#666666" points="239,-82 137.5,-82 137.5,-50 239,-50 239,-82"/>
<text text-anchor="start" x="145.5" y="-68.5" font-family="Helvetica,sans-Serif" font-size="10.00">Cpl::Dm::Persistent</text>
<text text-anchor="middle" x="188.25" y="-56.5" font-family="Helvetica,sans-Serif" font-size="10.00">::Record</text>
</a>
</g>
</g>
<!-- Node1&#45;&gt;Node2 -->
<g id="edge1_Node000001_Node000002" class="edge">
<title>Node1&#45;&gt;Node2</title>
<g id="a_edge1_Node000001_Node000002"><a xlink:title=" ">
<path fill="none" stroke="#63b8ff" d="M113.16,-66C121.27,-66 129.5,-66 137.39,-66"/>
<polygon fill="#63b8ff" stroke="#63b8ff" points="113.33,-62.5 103.33,-66 113.33,-69.5 113.33,-62.5"/>
</a>
</g>
</g>
<!-- Node3 -->
<g id="Node000003" class="node">
<title>Node3</title>
<g id="a_Node000003"><a xlink:href="class_storm_1_1_thermostat_1_1_main_1_1_installer_record.html" target="_top" xlink:title="This concrete class implements the &quot;Record&quot; class for storing Installer settings.">
<polygon fill="white" stroke="#666666" points="384.75,-132 277.25,-132 277.25,-100 384.75,-100 384.75,-132"/>
<text text-anchor="start" x="285.25" y="-118.5" font-family="Helvetica,sans-Serif" font-size="10.00">Storm::Thermostat::</text>
<text text-anchor="middle" x="331" y="-106.5" font-family="Helvetica,sans-Serif" font-size="10.00">Main::InstallerRecord</text>
</a>
</g>
</g>
<!-- Node2&#45;&gt;Node3 -->
<g id="edge2_Node000002_Node000003" class="edge">
<title>Node2&#45;&gt;Node3</title>
<g id="a_edge2_Node000002_Node000003"><a xlink:title=" ">
<path fill="none" stroke="#63b8ff" d="M246.14,-86.21C258.66,-90.66 271.77,-95.32 283.81,-99.59"/>
<polygon fill="#63b8ff" stroke="#63b8ff" points="247.36,-82.93 236.76,-82.88 245.01,-89.52 247.36,-82.93"/>
</a>
</g>
</g>
<!-- Node4 -->
<g id="Node000004" class="node">
<title>Node4</title>
<g id="a_Node000004"><a xlink:href="class_storm_1_1_thermostat_1_1_main_1_1_run_time_record.html" target="_top" xlink:title="This concrete class implements the &quot;Record&quot; class for storing persistent run time alerts,...">
<polygon fill="white" stroke="#666666" points="387,-82 275,-82 275,-50 387,-50 387,-82"/>
<text text-anchor="start" x="283" y="-68.5" font-family="Helvetica,sans-Serif" font-size="10.00">Storm::Thermostat::</text>
<text text-anchor="middle" x="331" y="-56.5" font-family="Helvetica,sans-Serif" font-size="10.00">Main::RunTimeRecord</text>
</a>
</g>
</g>
<!-- Node2&#45;&gt;Node4 -->
<g id="edge3_Node000002_Node000004" class="edge">
<title>Node2&#45;&gt;Node4</title>
<g id="a_edge3_Node000002_Node000004"><a xlink:title=" ">
<path fill="none" stroke="#63b8ff" d="M250.55,-66C258.65,-66 266.9,-66 274.88,-66"/>
<polygon fill="#63b8ff" stroke="#63b8ff" points="250.78,-62.5 240.78,-66 250.78,-69.5 250.78,-62.5"/>
</a>
</g>
</g>
<!-- Node5 -->
<g id="Node000005" class="node">
<title>Node5</title>
<g id="a_Node000005"><a xlink:href="class_storm_1_1_thermostat_1_1_main_1_1_user_record.html" target="_top" xlink:title="This concrete class implements the &quot;Record&quot; class for storing user settings.">
<polygon fill="white" stroke="#666666" points="382.5,-32 279.5,-32 279.5,0 382.5,0 382.5,-32"/>
<text text-anchor="start" x="287.5" y="-18.5" font-family="Helvetica,sans-Serif" font-size="10.00">Storm::Thermostat::</text>
<text text-anchor="middle" x="331" y="-6.5" font-family="Helvetica,sans-Serif" font-size="10.00">Main::UserRecord</text>
</a>
</g>
</g>
<!-- Node2&#45;&gt;Node5 -->
<g id="edge4_Node000002_Node000005" class="edge">
<title>Node2&#45;&gt;Node5</title>
<g id="a_edge4_Node000002_Node000005"><a xlink:title=" ">
<path fill="none" stroke="#63b8ff" d="M246.14,-45.79C258.66,-41.34 271.77,-36.68 283.81,-32.41"/>
<polygon fill="#63b8ff" stroke="#63b8ff" points="245.01,-42.48 236.76,-49.12 247.36,-49.07 245.01,-42.48"/>
</a>
</g>
</g>
</g>
</svg>
