<?xml version="1.0" encoding="UTF-8" standalone="no"?>
<!DOCTYPE svg PUBLIC "-//W3C//DTD SVG 1.1//EN"
 "http://www.w3.org/Graphics/SVG/1.1/DTD/svg11.dtd">
<!-- Generated by graphviz version 10.0.1 (20240210.2158)
 -->
<!-- Title: Cpl::Io::Stdio::StdOut Pages: 1 -->
<svg width="189pt" height="252pt"
 viewBox="0.00 0.00 189.38 252.00" xmlns="http://www.w3.org/2000/svg" xmlns:xlink="http://www.w3.org/1999/xlink">
<g id="graph0" class="graph" transform="scale(1 1) rotate(0) translate(4 248)">
<title>Cpl::Io::Stdio::StdOut</title>
<!-- Node1 -->
<g id="Node000001" class="node">
<title>Node1</title>
<g id="a_Node000001"><a xlink:title="This concrete class represents the C&#45;library &#39;stdout&#39; stream.">
<polygon fill="#999999" stroke="#666666" points="151.62,-20 42.62,-20 42.62,0 151.62,0 151.62,-20"/>
<text text-anchor="middle" x="97.12" y="-6.5" font-family="Helvetica,sans-Serif" font-size="10.00">Cpl::Io::Stdio::StdOut</text>
</a>
</g>
</g>
<!-- Node2 -->
<g id="Node000002" class="node">
<title>Node2</title>
<g id="a_Node000002"><a xlink:href="class_cpl_1_1_io_1_1_stdio_1_1_output__.html" target="_top" xlink:title="This concrete class implements a Output stream using the underlying platform&#39;s native OS &#39;file interf...">
<polygon fill="white" stroke="#666666" points="153.5,-76 40.75,-76 40.75,-56 153.5,-56 153.5,-76"/>
<text text-anchor="middle" x="97.12" y="-62.5" font-family="Helvetica,sans-Serif" font-size="10.00">Cpl::Io::Stdio::Output_</text>
</a>
</g>
</g>
<!-- Node2&#45;&gt;Node1 -->
<g id="edge1_Node000001_Node000002" class="edge">
<title>Node2&#45;&gt;Node1</title>
<g id="a_edge1_Node000001_Node000002"><a xlink:title=" ">
<path fill="none" stroke="#63b8ff" d="M97.12,-44.13C97.12,-35.9 97.12,-26.85 97.12,-20.3"/>
<polygon fill="#63b8ff" stroke="#63b8ff" points="93.63,-44.08 97.13,-54.08 100.63,-44.08 93.63,-44.08"/>
</a>
</g>
</g>
<!-- Node3 -->
<g id="Node000003" class="node">
<title>Node3</title>
<g id="a_Node000003"><a xlink:href="class_cpl_1_1_io_1_1_output.html" target="_top" xlink:title="This partially abstract class defines a interface for operating on an output stream (example of a str...">
<polygon fill="white" stroke="#666666" points="136.62,-132 57.62,-132 57.62,-112 136.62,-112 136.62,-132"/>
<text text-anchor="middle" x="97.12" y="-118.5" font-family="Helvetica,sans-Serif" font-size="10.00">Cpl::Io::Output</text>
</a>
</g>
</g>
<!-- Node3&#45;&gt;Node2 -->
<g id="edge2_Node000002_Node000003" class="edge">
<title>Node3&#45;&gt;Node2</title>
<g id="a_edge2_Node000002_Node000003"><a xlink:title=" ">
<path fill="none" stroke="#63b8ff" d="M97.12,-100.13C97.12,-91.9 97.12,-82.85 97.12,-76.3"/>
<polygon fill="#63b8ff" stroke="#63b8ff" points="93.63,-100.08 97.13,-110.08 100.63,-100.08 93.63,-100.08"/>
</a>
</g>
</g>
<!-- Node4 -->
<g id="Node000004" class="node">
<title>Node4</title>
<g id="a_Node000004"><a xlink:href="class_cpl_1_1_io_1_1_close.html" target="_top" xlink:title="This abstract class defines a close operation that is intended to be used Input and Output streams/fi...">
<polygon fill="white" stroke="#666666" points="88.38,-188 13.88,-188 13.88,-168 88.38,-168 88.38,-188"/>
<text text-anchor="middle" x="51.12" y="-174.5" font-family="Helvetica,sans-Serif" font-size="10.00">Cpl::Io::Close</text>
</a>
</g>
</g>
<!-- Node4&#45;&gt;Node3 -->
<g id="edge3_Node000003_Node000004" class="edge">
<title>Node4&#45;&gt;Node3</title>
<g id="a_edge3_Node000003_Node000004"><a xlink:title=" ">
<path fill="none" stroke="#63b8ff" d="M66.46,-159C74.08,-150.06 82.96,-139.62 89.2,-132.3"/>
<polygon fill="#63b8ff" stroke="#63b8ff" points="63.94,-156.56 60.12,-166.44 69.27,-161.1 63.94,-156.56"/>
</a>
</g>
</g>
<!-- Node5 -->
<g id="Node000005" class="node">
<title>Node5</title>
<g id="a_Node000005"><a xlink:href="class_cpl_1_1_container_1_1_item.html" target="_top" xlink:title="This class is used by the Container classes to implement a various types of singly linked containers.">
<polygon fill="white" stroke="#666666" points="102.25,-244 0,-244 0,-224 102.25,-224 102.25,-244"/>
<text text-anchor="middle" x="51.12" y="-230.5" font-family="Helvetica,sans-Serif" font-size="10.00">Cpl::Container::Item</text>
</a>
</g>
</g>
<!-- Node5&#45;&gt;Node4 -->
<g id="edge4_Node000004_Node000005" class="edge">
<title>Node5&#45;&gt;Node4</title>
<g id="a_edge4_Node000004_Node000005"><a xlink:title=" ">
<path fill="none" stroke="#63b8ff" d="M51.12,-212.13C51.12,-203.9 51.12,-194.85 51.12,-188.3"/>
<polygon fill="#63b8ff" stroke="#63b8ff" points="47.63,-212.08 51.13,-222.08 54.63,-212.08 47.63,-212.08"/>
</a>
</g>
</g>
<!-- Node6 -->
<g id="Node000006" class="node">
<title>Node6</title>
<g id="a_Node000006"><a xlink:href="class_cpl_1_1_io_1_1_is_eos.html" target="_top" xlink:title="This abstract class defines a isEos() operation that is intended to be used Input and Output streams.">
<polygon fill="white" stroke="#666666" points="181.38,-188 106.88,-188 106.88,-168 181.38,-168 181.38,-188"/>
<text text-anchor="middle" x="144.12" y="-174.5" font-family="Helvetica,sans-Serif" font-size="10.00">Cpl::Io::IsEos</text>
</a>
</g>
</g>
<!-- Node6&#45;&gt;Node3 -->
<g id="edge5_Node000003_Node000006" class="edge">
<title>Node6&#45;&gt;Node3</title>
<g id="a_edge5_Node000003_Node000006"><a xlink:title=" ">
<path fill="none" stroke="#63b8ff" d="M128.46,-159C120.68,-150.06 111.59,-139.62 105.22,-132.3"/>
<polygon fill="#63b8ff" stroke="#63b8ff" points="125.74,-161.21 134.94,-166.45 131.02,-156.61 125.74,-161.21"/>
</a>
</g>
</g>
</g>
</svg>
