<?xml version="1.0" encoding="UTF-8" standalone="no"?>
<!DOCTYPE svg PUBLIC "-//W3C//DTD SVG 1.1//EN"
 "http://www.w3.org/Graphics/SVG/1.1/DTD/svg11.dtd">
<!-- Generated by graphviz version 2.38.0 (20140413.2041)
 -->
<!-- Title: Cpl::Dm::Persistent::Record Pages: 1 -->
<svg width="658pt" height="252pt"
 viewBox="0.00 0.00 658.00 252.00" xmlns="http://www.w3.org/2000/svg" xmlns:xlink="http://www.w3.org/1999/xlink">
<g id="graph0" class="graph" transform="scale(1 1) rotate(0) translate(4 248)">
<title>Cpl::Dm::Persistent::Record</title>
<polygon fill="white" stroke="none" points="-4,4 -4,-248 654,-248 654,4 -4,4"/>
<!-- Node1 -->
<g id="node1" class="node"><title>Node1</title>
<g id="a_node1"><a xlink:title="This mostly concrete class implements the Cpl::Persistent::Record interface where a Record instance c...">
<polygon fill="#bfbfbf" stroke="black" points="548,-112 548,-142 650,-142 650,-112 548,-112"/>
<text text-anchor="start" x="556" y="-130" font-family="Helvetica,sans-Serif" font-size="10.00">Cpl::Dm::Persistent</text>
<text text-anchor="middle" x="599" y="-119" font-family="Helvetica,sans-Serif" font-size="10.00">::Record</text>
</a>
</g>
</g>
<!-- Node2 -->
<g id="node2" class="node"><title>Node2</title>
<g id="a_node2"><a xlink:href="class_cpl_1_1_persistent_1_1_record.html" target="_top" xlink:title="This abstract class defines the public interface for a Record instance.">
<polygon fill="white" stroke="black" points="316,-224.5 316,-243.5 434,-243.5 434,-224.5 316,-224.5"/>
<text text-anchor="middle" x="375" y="-231.5" font-family="Helvetica,sans-Serif" font-size="10.00">Cpl::Persistent::Record</text>
</a>
</g>
</g>
<!-- Node2&#45;&gt;Node1 -->
<g id="edge1" class="edge"><title>Node2&#45;&gt;Node1</title>
<path fill="none" stroke="midnightblue" d="M417.077,-221.347C423.433,-219.287 429.908,-217.129 436,-215 478.232,-200.241 490.941,-200.812 530,-179 548.685,-168.566 567.865,-153.417 581.071,-142.159"/>
<polygon fill="midnightblue" stroke="midnightblue" points="415.716,-218.108 407.257,-224.486 417.848,-224.775 415.716,-218.108"/>
</g>
<!-- Node3 -->
<g id="node3" class="node"><title>Node3</title>
<g id="a_node3"><a xlink:href="class_cpl_1_1_persistent_1_1_payload.html" target="_top" xlink:title="This abstract class defines the interface accessing the &#39;data payload&#39; of an individual Record instan...">
<polygon fill="white" stroke="black" points="314,-186.5 314,-205.5 436,-205.5 436,-186.5 314,-186.5"/>
<text text-anchor="middle" x="375" y="-193.5" font-family="Helvetica,sans-Serif" font-size="10.00">Cpl::Persistent::Payload</text>
</a>
</g>
</g>
<!-- Node3&#45;&gt;Node1 -->
<g id="edge2" class="edge"><title>Node3&#45;&gt;Node1</title>
<path fill="none" stroke="midnightblue" d="M425.543,-183.989C455.941,-176.249 495.518,-165.508 530,-154 540.603,-150.461 551.952,-146.165 562.28,-142.05"/>
<polygon fill="midnightblue" stroke="midnightblue" points="424.447,-180.655 415.607,-186.495 426.159,-187.443 424.447,-180.655"/>
</g>
<!-- Node4 -->
<g id="node4" class="node"><title>Node4</title>
<g id="a_node4"><a xlink:href="class_cpl_1_1_dm_1_1_persistent_1_1_flush_request.html" target="_top" xlink:title="This abstract class define ITC message type and payload for the application to request flushing the R...">
<polygon fill="white" stroke="black" points="324,-137 324,-167 426,-167 426,-137 324,-137"/>
<text text-anchor="start" x="332" y="-155" font-family="Helvetica,sans-Serif" font-size="10.00">Cpl::Dm::Persistent</text>
<text text-anchor="middle" x="375" y="-144" font-family="Helvetica,sans-Serif" font-size="10.00">::FlushRequest</text>
</a>
</g>
</g>
<!-- Node4&#45;&gt;Node1 -->
<g id="edge3" class="edge"><title>Node4&#45;&gt;Node1</title>
<path fill="none" stroke="midnightblue" d="M436.174,-145.224C471.106,-141.29 514.602,-136.392 547.701,-132.664"/>
<polygon fill="midnightblue" stroke="midnightblue" points="435.643,-141.761 426.098,-146.358 436.427,-148.717 435.643,-141.761"/>
</g>
<!-- Node5 -->
<g id="node5" class="node"><title>Node5</title>
<g id="a_node5"><a xlink:href="class_cpl_1_1_dm_1_1_persistent_1_1_erase_request.html" target="_top" xlink:title="This abstract class define ITC message type and payload for the application to request invalidating/c...">
<polygon fill="white" stroke="black" points="324,-88 324,-118 426,-118 426,-88 324,-88"/>
<text text-anchor="start" x="332" y="-106" font-family="Helvetica,sans-Serif" font-size="10.00">Cpl::Dm::Persistent</text>
<text text-anchor="middle" x="375" y="-95" font-family="Helvetica,sans-Serif" font-size="10.00">::EraseRequest</text>
</a>
</g>
</g>
<!-- Node5&#45;&gt;Node1 -->
<g id="edge4" class="edge"><title>Node5&#45;&gt;Node1</title>
<path fill="none" stroke="midnightblue" d="M436.174,-109.505C471.106,-113.282 514.602,-117.984 547.701,-121.562"/>
<polygon fill="midnightblue" stroke="midnightblue" points="436.416,-106.011 426.098,-108.416 435.664,-112.971 436.416,-106.011"/>
</g>
<!-- Node6 -->
<g id="node6" class="node"><title>Node6</title>
<g id="a_node6"><a xlink:href="class_cpl_1_1_dm_1_1_persistent_1_1_record.html#struct_cpl_1_1_dm_1_1_persistent_1_1_record_1_1_item___t" target="_top" xlink:title="This data structure associates a Data Model subscriber instance with a Model Point instance.">
<polygon fill="white" stroke="black" points="324,-39 324,-69 426,-69 426,-39 324,-39"/>
<text text-anchor="start" x="332" y="-57" font-family="Helvetica,sans-Serif" font-size="10.00">Cpl::Dm::Persistent</text>
<text text-anchor="middle" x="375" y="-46" font-family="Helvetica,sans-Serif" font-size="10.00">::Record::Item_T</text>
</a>
</g>
</g>
<!-- Node6&#45;&gt;Node1 -->
<g id="edge5" class="edge"><title>Node6&#45;&gt;Node1</title>
<path fill="none" stroke="#9a32cd" stroke-dasharray="5,2" d="M436.053,-68.6311C464.786,-76.1721 499.493,-86.0748 530,-97 542.026,-101.307 554.921,-106.769 566.213,-111.849"/>
<polygon fill="#9a32cd" stroke="#9a32cd" points="436.714,-65.1869 426.156,-66.0645 434.957,-71.9627 436.714,-65.1869"/>
<text text-anchor="middle" x="492" y="-100" font-family="Helvetica,sans-Serif" font-size="10.00"> m_items</text>
</g>
<!-- Node7 -->
<g id="node7" class="node"><title>Node7</title>
<g id="a_node7"><a xlink:href="class_cpl_1_1_dm_1_1_model_point.html" target="_top" xlink:title="This mostly abstract class defines the interface for a Model Point.">
<polygon fill="white" stroke="black" points="141,-44.5 141,-63.5 248,-63.5 248,-44.5 141,-44.5"/>
<text text-anchor="middle" x="194.5" y="-51.5" font-family="Helvetica,sans-Serif" font-size="10.00">Cpl::Dm::ModelPoint</text>
</a>
</g>
</g>
<!-- Node7&#45;&gt;Node6 -->
<g id="edge6" class="edge"><title>Node7&#45;&gt;Node6</title>
<path fill="none" stroke="#9a32cd" stroke-dasharray="5,2" d="M258.135,-54C279.685,-54 303.513,-54 323.929,-54"/>
<polygon fill="#9a32cd" stroke="#9a32cd" points="258.09,-50.5001 248.09,-54 258.09,-57.5001 258.09,-50.5001"/>
<text text-anchor="middle" x="281" y="-57" font-family="Helvetica,sans-Serif" font-size="10.00"> mpPtr</text>
</g>
<!-- Node8 -->
<g id="node8" class="node"><title>Node8</title>
<g id="a_node8"><a xlink:href="class_cpl_1_1_container_1_1_item.html" target="_top" xlink:title="This class is used by the Container classes to implement a various types of singly linked containers.">
<polygon fill="white" stroke="black" points="0,-44.5 0,-63.5 104,-63.5 104,-44.5 0,-44.5"/>
<text text-anchor="middle" x="52" y="-51.5" font-family="Helvetica,sans-Serif" font-size="10.00">Cpl::Container::Item</text>
</a>
</g>
</g>
<!-- Node8&#45;&gt;Node7 -->
<g id="edge7" class="edge"><title>Node8&#45;&gt;Node7</title>
<path fill="none" stroke="midnightblue" d="M114.339,-54C123.146,-54 132.143,-54 140.764,-54"/>
<polygon fill="midnightblue" stroke="midnightblue" points="114.121,-50.5001 104.121,-54 114.121,-57.5001 114.121,-50.5001"/>
</g>
<!-- Node9 -->
<g id="node9" class="node"><title>Node9</title>
<g id="a_node9"><a xlink:href="class_cpl_1_1_persistent_1_1_chunk.html" target="_top" xlink:title="This abstract class defines the interface for a Chunk.">
<polygon fill="white" stroke="black" points="317.5,-0.5 317.5,-19.5 432.5,-19.5 432.5,-0.5 317.5,-0.5"/>
<text text-anchor="middle" x="375" y="-7.5" font-family="Helvetica,sans-Serif" font-size="10.00">Cpl::Persistent::Chunk</text>
</a>
</g>
</g>
<!-- Node9&#45;&gt;Node1 -->
<g id="edge8" class="edge"><title>Node9&#45;&gt;Node1</title>
<path fill="none" stroke="#9a32cd" stroke-dasharray="5,2" d="M435.909,-21.9742C465.647,-29.6337 501.261,-41.4921 530,-59 553.098,-73.0716 574.193,-96.5645 586.571,-111.92"/>
<polygon fill="#9a32cd" stroke="#9a32cd" points="436.615,-18.5436 426.067,-19.5356 434.932,-25.3381 436.615,-18.5436"/>
<text text-anchor="middle" x="492" y="-62" font-family="Helvetica,sans-Serif" font-size="10.00"> m_chunkHandler</text>
</g>
</g>
</svg>
