<?xml version="1.0" encoding="UTF-8" standalone="no"?>
<!DOCTYPE svg PUBLIC "-//W3C//DTD SVG 1.1//EN"
 "http://www.w3.org/Graphics/SVG/1.1/DTD/svg11.dtd">
<!-- Generated by graphviz version 2.38.0 (20140413.2041)
 -->
<!-- Title: Cpl::Persistent::RecordServer Pages: 1 -->
<svg width="1673pt" height="327pt"
 viewBox="0.00 0.00 1673.00 326.50" xmlns="http://www.w3.org/2000/svg" xmlns:xlink="http://www.w3.org/1999/xlink">
<g id="graph0" class="graph" transform="scale(1 1) rotate(0) translate(4 322.5)">
<title>Cpl::Persistent::RecordServer</title>
<polygon fill="white" stroke="none" points="-4,4 -4,-322.5 1669,-322.5 1669,4 -4,4"/>
<!-- Node1 -->
<g id="node1" class="node"><title>Node1</title>
<g id="a_node1"><a xlink:title="This concrete class provides an Event driven Runnable object for executing the read/write operation t...">
<polygon fill="#bfbfbf" stroke="black" points="1519,-95.5 1519,-114.5 1665,-114.5 1665,-95.5 1519,-95.5"/>
<text text-anchor="middle" x="1592" y="-102.5" font-family="Helvetica,sans-Serif" font-size="10.00">Cpl::Persistent::RecordServer</text>
</a>
</g>
</g>
<!-- Node2 -->
<g id="node2" class="node"><title>Node2</title>
<g id="a_node2"><a xlink:href="class_cpl_1_1_dm_1_1_mailbox_server.html" target="_top" xlink:title="This class extends the Cpl::Dm::EventLoop and Cpl::Itc:Mailbox classes to support the asynchronous ch...">
<polygon fill="white" stroke="black" points="1314,-152.5 1314,-171.5 1434,-171.5 1434,-152.5 1314,-152.5"/>
<text text-anchor="middle" x="1374" y="-159.5" font-family="Helvetica,sans-Serif" font-size="10.00">Cpl::Dm::MailboxServer</text>
</a>
</g>
</g>
<!-- Node2&#45;&gt;Node1 -->
<g id="edge1" class="edge"><title>Node2&#45;&gt;Node1</title>
<path fill="none" stroke="midnightblue" d="M1420.91,-149.884C1460.85,-139.346 1517.93,-124.283 1554.73,-114.572"/>
<polygon fill="midnightblue" stroke="midnightblue" points="1419.93,-146.524 1411.15,-152.459 1421.72,-153.292 1419.93,-146.524"/>
</g>
<!-- Node3 -->
<g id="node3" class="node"><title>Node3</title>
<g id="a_node3"><a xlink:href="class_cpl_1_1_dm_1_1_event_loop.html" target="_top" xlink:title="This class extends the Cpl::System::EventLoop class to support the asynchronous change notification g...">
<polygon fill="white" stroke="black" points="1167.5,-198.5 1167.5,-217.5 1271.5,-217.5 1271.5,-198.5 1167.5,-198.5"/>
<text text-anchor="middle" x="1219.5" y="-205.5" font-family="Helvetica,sans-Serif" font-size="10.00">Cpl::Dm::EventLoop</text>
</a>
</g>
</g>
<!-- Node3&#45;&gt;Node2 -->
<g id="edge2" class="edge"><title>Node3&#45;&gt;Node2</title>
<path fill="none" stroke="midnightblue" d="M1261.71,-195.569C1286.8,-188.002 1318.35,-178.486 1341.44,-171.519"/>
<polygon fill="midnightblue" stroke="midnightblue" points="1260.66,-192.23 1252.1,-198.469 1262.68,-198.932 1260.66,-192.23"/>
</g>
<!-- Node4 -->
<g id="node4" class="node"><title>Node4</title>
<g id="a_node4"><a xlink:href="class_cpl_1_1_system_1_1_event_loop.html" target="_top" xlink:title="This concrete class is a Runnable object that provides a event driven execution model for a thread.">
<polygon fill="white" stroke="black" points="939.5,-166.5 939.5,-185.5 1062.5,-185.5 1062.5,-166.5 939.5,-166.5"/>
<text text-anchor="middle" x="1001" y="-173.5" font-family="Helvetica,sans-Serif" font-size="10.00">Cpl::System::EventLoop</text>
</a>
</g>
</g>
<!-- Node4&#45;&gt;Node3 -->
<g id="edge3" class="edge"><title>Node4&#45;&gt;Node3</title>
<path fill="none" stroke="midnightblue" d="M1072.87,-186.475C1103.74,-191.037 1139.23,-196.283 1167.45,-200.454"/>
<polygon fill="midnightblue" stroke="midnightblue" points="1073,-182.956 1062.6,-184.956 1071.98,-189.881 1073,-182.956"/>
</g>
<!-- Node17 -->
<g id="node17" class="node"><title>Node17</title>
<g id="a_node17"><a xlink:href="class_cpl_1_1_itc_1_1_mailbox.html" target="_top" xlink:title="This mailbox class implements an Inter Thread Communications message queue.">
<polygon fill="white" stroke="black" points="1175.5,-152.5 1175.5,-171.5 1263.5,-171.5 1263.5,-152.5 1175.5,-152.5"/>
<text text-anchor="middle" x="1219.5" y="-159.5" font-family="Helvetica,sans-Serif" font-size="10.00">Cpl::Itc::Mailbox</text>
</a>
</g>
</g>
<!-- Node4&#45;&gt;Node17 -->
<g id="edge23" class="edge"><title>Node4&#45;&gt;Node17</title>
<path fill="none" stroke="#9a32cd" stroke-dasharray="5,2" d="M1072.72,-166.793C1075.85,-166.501 1078.96,-166.234 1082,-166 1113.2,-163.598 1148.52,-162.61 1175.41,-162.216"/>
<polygon fill="#9a32cd" stroke="#9a32cd" points="1072.25,-163.322 1062.65,-167.804 1072.95,-170.287 1072.25,-163.322"/>
<text text-anchor="middle" x="1113" y="-169" font-family="Helvetica,sans-Serif" font-size="10.00"> m_eventLoop</text>
</g>
<!-- Node5 -->
<g id="node5" class="node"><title>Node5</title>
<g id="a_node5"><a xlink:href="class_cpl_1_1_system_1_1_runnable.html" target="_top" xlink:title="This is an abstract class defines the interface for an object that is &quot;executed&quot; when a Thread object...">
<polygon fill="white" stroke="black" points="656,-110.5 656,-129.5 773,-129.5 773,-110.5 656,-110.5"/>
<text text-anchor="middle" x="714.5" y="-117.5" font-family="Helvetica,sans-Serif" font-size="10.00">Cpl::System::Runnable</text>
</a>
</g>
</g>
<!-- Node5&#45;&gt;Node4 -->
<g id="edge4" class="edge"><title>Node5&#45;&gt;Node4</title>
<path fill="none" stroke="midnightblue" d="M774.736,-131.518C815.571,-139.474 871.089,-150.326 920,-160 930.56,-162.089 941.901,-164.347 952.628,-166.491"/>
<polygon fill="midnightblue" stroke="midnightblue" points="775.168,-128.036 764.683,-129.56 773.83,-134.907 775.168,-128.036"/>
</g>
<!-- Node6 -->
<g id="node6" class="node"><title>Node6</title>
<g id="a_node6"><a xlink:href="class_cpl_1_1_system_1_1_event_flag.html" target="_top" xlink:title="This abstract class defines the interface to generated a &#39;Event Flag&#39;.">
<polygon fill="white" stroke="black" points="654,-72.5 654,-91.5 775,-91.5 775,-72.5 654,-72.5"/>
<text text-anchor="middle" x="714.5" y="-79.5" font-family="Helvetica,sans-Serif" font-size="10.00">Cpl::System::EventFlag</text>
</a>
</g>
</g>
<!-- Node6&#45;&gt;Node4 -->
<g id="edge5" class="edge"><title>Node6&#45;&gt;Node4</title>
<path fill="none" stroke="midnightblue" d="M785.259,-89.0245C826.858,-95.7204 879.315,-108.742 920,-134 930.444,-140.484 927.815,-148.116 938,-155 944.967,-159.709 953.087,-163.451 961.111,-166.391"/>
<polygon fill="midnightblue" stroke="midnightblue" points="785.617,-85.5386 775.204,-87.4939 784.563,-92.4589 785.617,-85.5386"/>
</g>
<!-- Node7 -->
<g id="node7" class="node"><title>Node7</title>
<g id="a_node7"><a xlink:href="class_cpl_1_1_system_1_1_signable.html" target="_top" xlink:title="This abstract class defines the interface by which a client can cause an object that is waiting&#45;on&#45;a&#45;...">
<polygon fill="white" stroke="black" points="329.5,-224.5 329.5,-243.5 443.5,-243.5 443.5,-224.5 329.5,-224.5"/>
<text text-anchor="middle" x="386.5" y="-231.5" font-family="Helvetica,sans-Serif" font-size="10.00">Cpl::System::Signable</text>
</a>
</g>
</g>
<!-- Node7&#45;&gt;Node4 -->
<g id="edge6" class="edge"><title>Node7&#45;&gt;Node4</title>
<path fill="none" stroke="midnightblue" d="M453.884,-238.39C555.838,-243.356 756.344,-246.059 920,-205 928.491,-202.87 929.846,-200.185 938,-197 948.268,-192.989 959.656,-189.003 969.841,-185.598"/>
<polygon fill="midnightblue" stroke="midnightblue" points="453.9,-234.887 443.734,-237.872 453.543,-241.878 453.9,-234.887"/>
</g>
<!-- Node13 -->
<g id="node13" class="node"><title>Node13</title>
<g id="a_node13"><a xlink:href="class_cpl_1_1_system_1_1_semaphore.html" target="_top" xlink:title="This semaphore class defines the interface for a Counting Semaphore.">
<polygon fill="white" stroke="black" points="651.5,-262.5 651.5,-281.5 777.5,-281.5 777.5,-262.5 651.5,-262.5"/>
<text text-anchor="middle" x="714.5" y="-269.5" font-family="Helvetica,sans-Serif" font-size="10.00">Cpl::System::Semaphore</text>
</a>
</g>
</g>
<!-- Node7&#45;&gt;Node13 -->
<g id="edge13" class="edge"><title>Node7&#45;&gt;Node13</title>
<path fill="none" stroke="midnightblue" d="M453.621,-243.316C465.715,-244.939 478.231,-246.565 490,-248 544.427,-254.638 606.433,-261.219 651.304,-265.806"/>
<polygon fill="midnightblue" stroke="midnightblue" points="453.966,-239.83 443.587,-241.957 453.027,-246.767 453.966,-239.83"/>
</g>
<!-- Node14 -->
<g id="node14" class="node"><title>Node14</title>
<g id="a_node14"><a xlink:href="class_cpl_1_1_system_1_1_thread.html" target="_top" xlink:title="This abstract class defines the operations that can be performed on a thread.">
<polygon fill="white" stroke="black" points="661,-186.5 661,-205.5 768,-205.5 768,-186.5 661,-186.5"/>
<text text-anchor="middle" x="714.5" y="-193.5" font-family="Helvetica,sans-Serif" font-size="10.00">Cpl::System::Thread</text>
</a>
</g>
</g>
<!-- Node7&#45;&gt;Node14 -->
<g id="edge15" class="edge"><title>Node7&#45;&gt;Node14</title>
<path fill="none" stroke="midnightblue" d="M453.477,-226.309C514.628,-219.181 604.421,-208.715 660.883,-202.133"/>
<polygon fill="midnightblue" stroke="midnightblue" points="453.069,-222.833 443.541,-227.468 453.879,-229.786 453.069,-222.833"/>
</g>
<!-- Node8 -->
<g id="node8" class="node"><title>Node8</title>
<g id="a_node8"><a xlink:href="class_cpl_1_1_container_1_1_item.html" target="_top" xlink:title="This class is used by the Container classes to implement a various types of singly linked containers.">
<polygon fill="white" stroke="black" points="1.5,-224.5 1.5,-243.5 105.5,-243.5 105.5,-224.5 1.5,-224.5"/>
<text text-anchor="middle" x="53.5" y="-231.5" font-family="Helvetica,sans-Serif" font-size="10.00">Cpl::Container::Item</text>
</a>
</g>
</g>
<!-- Node8&#45;&gt;Node7 -->
<g id="edge7" class="edge"><title>Node8&#45;&gt;Node7</title>
<path fill="none" stroke="midnightblue" d="M116.135,-234C177.273,-234 270.151,-234 329.313,-234"/>
<polygon fill="midnightblue" stroke="midnightblue" points="115.856,-230.5 105.856,-234 115.856,-237.5 115.856,-230.5"/>
</g>
<!-- Node9 -->
<g id="node9" class="node"><title>Node9</title>
<g id="a_node9"><a xlink:href="class_cpl_1_1_system_1_1_timer_manager.html" target="_top" xlink:title="This mostly concrete class implements manages a list of Software Timers.">
<polygon fill="white" stroke="black" points="645,-148.5 645,-167.5 784,-167.5 784,-148.5 645,-148.5"/>
<text text-anchor="middle" x="714.5" y="-155.5" font-family="Helvetica,sans-Serif" font-size="10.00">Cpl::System::TimerManager</text>
</a>
</g>
</g>
<!-- Node9&#45;&gt;Node4 -->
<g id="edge8" class="edge"><title>Node9&#45;&gt;Node4</title>
<path fill="none" stroke="midnightblue" d="M794.208,-162.98C840.055,-165.88 896.986,-169.482 939.338,-172.162"/>
<polygon fill="midnightblue" stroke="midnightblue" points="794.208,-159.473 784.007,-162.334 793.766,-166.459 794.208,-159.473"/>
</g>
<!-- Node10 -->
<g id="node10" class="node"><title>Node10</title>
<g id="a_node10"><a xlink:href="class_cpl_1_1_system_1_1_counter_source__.html" target="_top" xlink:title="This abstract class defines the interface for registering for an Counter object with the Timer Manage...">
<polygon fill="white" stroke="black" points="313.5,-176.5 313.5,-195.5 459.5,-195.5 459.5,-176.5 313.5,-176.5"/>
<text text-anchor="middle" x="386.5" y="-183.5" font-family="Helvetica,sans-Serif" font-size="10.00">Cpl::System::CounterSource_</text>
</a>
</g>
</g>
<!-- Node10&#45;&gt;Node9 -->
<g id="edge9" class="edge"><title>Node10&#45;&gt;Node9</title>
<path fill="none" stroke="midnightblue" d="M469.934,-181.944C516.175,-179.304 574.875,-175.35 627,-170 633.938,-169.288 641.175,-168.444 648.38,-167.539"/>
<polygon fill="midnightblue" stroke="midnightblue" points="469.453,-178.465 459.665,-182.52 469.845,-185.454 469.453,-178.465"/>
</g>
<!-- Node11 -->
<g id="node11" class="node"><title>Node11</title>
<g id="a_node11"><a xlink:href="class_cpl_1_1_container_1_1_d_list.html" target="_top" xlink:title=" ">
<polygon fill="white" stroke="black" points="301,-127 301,-157 472,-157 472,-127 301,-127"/>
<text text-anchor="start" x="309" y="-145" font-family="Helvetica,sans-Serif" font-size="10.00">Cpl::Container::DList</text>
<text text-anchor="middle" x="386.5" y="-134" font-family="Helvetica,sans-Serif" font-size="10.00">&lt; Cpl::System::CounterCallback_ &gt;</text>
</a>
</g>
</g>
<!-- Node11&#45;&gt;Node9 -->
<g id="edge10" class="edge"><title>Node11&#45;&gt;Node9</title>
<path fill="none" stroke="#9a32cd" stroke-dasharray="5,2" d="M482.228,-142.411C526.287,-143.105 579.366,-144.657 627,-148 632.731,-148.402 638.666,-148.905 644.619,-149.471"/>
<polygon fill="#9a32cd" stroke="#9a32cd" points="482.153,-138.91 472.104,-142.264 482.052,-145.909 482.153,-138.91"/>
<text text-anchor="middle" x="558.5" y="-162" font-family="Helvetica,sans-Serif" font-size="10.00"> m_pendingAttach</text>
<text text-anchor="middle" x="558.5" y="-151" font-family="Helvetica,sans-Serif" font-size="10.00">m_counters</text>
</g>
<!-- Node12 -->
<g id="node12" class="node"><title>Node12</title>
<g id="a_node12"><a xlink:href="class_cpl_1_1_container_1_1_d_list.html" target="_top" xlink:title="This template class implements a Doubly linked list which maintains the ordering imposed on it by the...">
<polygon fill="white" stroke="black" points="0,-269 0,-299 107,-299 107,-269 0,-269"/>
<text text-anchor="start" x="8" y="-287" font-family="Helvetica,sans-Serif" font-size="10.00">Cpl::Container::DList</text>
<text text-anchor="middle" x="53.5" y="-276" font-family="Helvetica,sans-Serif" font-size="10.00">&lt; ITEM &gt;</text>
</a>
</g>
</g>
<!-- Node12&#45;&gt;Node11 -->
<g id="edge11" class="edge"><title>Node12&#45;&gt;Node11</title>
<path fill="none" stroke="orange" stroke-dasharray="5,2" d="M91.7078,-264.097C139.291,-239.171 224.68,-196.199 301,-167 310.288,-163.447 320.306,-160.086 330.086,-157.049"/>
<polygon fill="orange" stroke="orange" points="89.9288,-261.078 82.7091,-268.832 93.1886,-267.273 89.9288,-261.078"/>
<text text-anchor="middle" x="204" y="-248" font-family="Helvetica,sans-Serif" font-size="10.00"> &lt; Cpl::System::CounterCallback_ &gt;</text>
</g>
<!-- Node16 -->
<g id="node16" class="node"><title>Node16</title>
<g id="a_node16"><a xlink:href="class_cpl_1_1_container_1_1_d_list.html" target="_top" xlink:title=" ">
<polygon fill="white" stroke="black" points="490,-288 490,-318 627,-318 627,-288 490,-288"/>
<text text-anchor="start" x="498" y="-306" font-family="Helvetica,sans-Serif" font-size="10.00">Cpl::Container::DList</text>
<text text-anchor="middle" x="558.5" y="-295" font-family="Helvetica,sans-Serif" font-size="10.00">&lt; Cpl::Dm::SubscriberApi &gt;</text>
</a>
</g>
</g>
<!-- Node12&#45;&gt;Node16 -->
<g id="edge18" class="edge"><title>Node12&#45;&gt;Node16</title>
<path fill="none" stroke="orange" stroke-dasharray="5,2" d="M117.428,-286.377C212.51,-289.969 392.046,-296.75 489.844,-300.444"/>
<polygon fill="orange" stroke="orange" points="117.504,-282.877 107.379,-285.997 117.24,-289.872 117.504,-282.877"/>
<text text-anchor="middle" x="204" y="-296" font-family="Helvetica,sans-Serif" font-size="10.00"> &lt; Cpl::Dm::SubscriberApi &gt;</text>
</g>
<!-- Node13&#45;&gt;Node4 -->
<g id="edge12" class="edge"><title>Node13&#45;&gt;Node4</title>
<path fill="none" stroke="#9a32cd" stroke-dasharray="5,2" d="M787.794,-271.44C838.242,-269.603 899.98,-263.997 920,-248 938.778,-232.995 920.896,-213.888 938,-197 942.933,-192.129 949.035,-188.387 955.47,-185.513"/>
<polygon fill="#9a32cd" stroke="#9a32cd" points="787.428,-267.95 777.545,-271.768 787.652,-274.946 787.428,-267.95"/>
<text text-anchor="middle" x="861" y="-274" font-family="Helvetica,sans-Serif" font-size="10.00"> m_sema</text>
</g>
<!-- Node14&#45;&gt;Node4 -->
<g id="edge14" class="edge"><title>Node14&#45;&gt;Node4</title>
<path fill="none" stroke="#9a32cd" stroke-dasharray="5,2" d="M778.272,-191.587C826.246,-188.215 891.98,-183.594 939.405,-180.26"/>
<polygon fill="#9a32cd" stroke="#9a32cd" points="777.743,-188.116 768.013,-192.308 778.234,-195.098 777.743,-188.116"/>
<text text-anchor="middle" x="861" y="-193" font-family="Helvetica,sans-Serif" font-size="10.00"> m_myThreadPtr</text>
</g>
<!-- Node15 -->
<g id="node15" class="node"><title>Node15</title>
<g id="a_node15"><a xlink:href="class_cpl_1_1_dm_1_1_notification_api__.html" target="_top" xlink:title="This class has PACKAGE Scope, i.e.">
<polygon fill="white" stroke="black" points="938,-206.5 938,-225.5 1064,-225.5 1064,-206.5 938,-206.5"/>
<text text-anchor="middle" x="1001" y="-213.5" font-family="Helvetica,sans-Serif" font-size="10.00">Cpl::Dm::NotificationApi_</text>
</a>
</g>
</g>
<!-- Node15&#45;&gt;Node3 -->
<g id="edge16" class="edge"><title>Node15&#45;&gt;Node3</title>
<path fill="none" stroke="midnightblue" d="M1074.21,-213.332C1104.75,-212.203 1139.6,-210.916 1167.4,-209.888"/>
<polygon fill="midnightblue" stroke="midnightblue" points="1073.9,-209.841 1064.04,-213.708 1074.16,-216.836 1073.9,-209.841"/>
</g>
<!-- Node16&#45;&gt;Node3 -->
<g id="edge17" class="edge"><title>Node16&#45;&gt;Node3</title>
<path fill="none" stroke="#9a32cd" stroke-dasharray="5,2" d="M637.098,-303.991C710.419,-303.833 823.277,-300.752 920,-286 1021.14,-270.574 1137.52,-234.748 1190.1,-217.549"/>
<polygon fill="#9a32cd" stroke="#9a32cd" points="637.019,-300.491 627.02,-303.995 637.022,-307.491 637.019,-300.491"/>
<text text-anchor="middle" x="861" y="-302" font-family="Helvetica,sans-Serif" font-size="10.00"> m_pendingMpNotifications</text>
</g>
<!-- Node17&#45;&gt;Node2 -->
<g id="edge19" class="edge"><title>Node17&#45;&gt;Node2</title>
<path fill="none" stroke="midnightblue" d="M1273.93,-162C1286.86,-162 1300.76,-162 1313.94,-162"/>
<polygon fill="midnightblue" stroke="midnightblue" points="1273.79,-158.5 1263.79,-162 1273.79,-165.5 1273.79,-158.5"/>
</g>
<!-- Node18 -->
<g id="node18" class="node"><title>Node18</title>
<g id="a_node18"><a xlink:href="class_cpl_1_1_itc_1_1_post_api.html" target="_top" xlink:title="This abstract class represents the interface used to send messages to a mailbox.">
<polygon fill="white" stroke="black" points="956.5,-77.5 956.5,-96.5 1045.5,-96.5 1045.5,-77.5 956.5,-77.5"/>
<text text-anchor="middle" x="1001" y="-84.5" font-family="Helvetica,sans-Serif" font-size="10.00">Cpl::Itc::PostApi</text>
</a>
</g>
</g>
<!-- Node18&#45;&gt;Node17 -->
<g id="edge20" class="edge"><title>Node18&#45;&gt;Node17</title>
<path fill="none" stroke="midnightblue" d="M1044.21,-99.5394C1050.85,-101.628 1057.63,-103.824 1064,-106 1108.06,-121.05 1118.15,-127.355 1162,-143 1170.87,-146.165 1180.57,-149.48 1189.4,-152.439"/>
<polygon fill="midnightblue" stroke="midnightblue" points="1045.21,-96.1872 1034.62,-96.5723 1043.14,-102.874 1045.21,-96.1872"/>
</g>
<!-- Node22 -->
<g id="node22" class="node"><title>Node22</title>
<g id="a_node22"><a xlink:href="class_cpl_1_1_itc_1_1_open_sync.html" target="_top" xlink:title="This partially concrete class implements the synchronous ITC open call for the OpenApi.">
<polygon fill="white" stroke="black" points="1169.5,-38.5 1169.5,-57.5 1269.5,-57.5 1269.5,-38.5 1169.5,-38.5"/>
<text text-anchor="middle" x="1219.5" y="-45.5" font-family="Helvetica,sans-Serif" font-size="10.00">Cpl::Itc::OpenSync</text>
</a>
</g>
</g>
<!-- Node18&#45;&gt;Node22 -->
<g id="edge28" class="edge"><title>Node18&#45;&gt;Node22</title>
<path fill="none" stroke="#9a32cd" stroke-dasharray="5,2" d="M1055.54,-77.3547C1090.37,-71.0817 1135.44,-62.9629 1169.35,-56.8541"/>
<polygon fill="#9a32cd" stroke="#9a32cd" points="1054.77,-73.9372 1045.55,-79.1547 1056.01,-80.8263 1054.77,-73.9372"/>
<text text-anchor="middle" x="1113" y="-76" font-family="Helvetica,sans-Serif" font-size="10.00"> m_mbox</text>
</g>
<!-- Node19 -->
<g id="node19" class="node"><title>Node19</title>
<g id="a_node19"><a xlink:href="class_cpl_1_1_container_1_1_s_list.html" target="_top" xlink:title=" ">
<polygon fill="white" stroke="black" points="947.5,-116 947.5,-146 1054.5,-146 1054.5,-116 947.5,-116"/>
<text text-anchor="start" x="955.5" y="-134" font-family="Helvetica,sans-Serif" font-size="10.00">Cpl::Container::SList</text>
<text text-anchor="middle" x="1001" y="-123" font-family="Helvetica,sans-Serif" font-size="10.00">&lt; Message &gt;</text>
</a>
</g>
</g>
<!-- Node19&#45;&gt;Node17 -->
<g id="edge21" class="edge"><title>Node19&#45;&gt;Node17</title>
<path fill="none" stroke="midnightblue" d="M1064.94,-140.012C1100.42,-145.092 1143.82,-151.306 1175.42,-155.831"/>
<polygon fill="midnightblue" stroke="midnightblue" points="1065.08,-136.497 1054.69,-138.544 1064.09,-143.426 1065.08,-136.497"/>
</g>
<!-- Node20 -->
<g id="node20" class="node"><title>Node20</title>
<g id="a_node20"><a xlink:href="class_cpl_1_1_container_1_1_s_list.html" target="_top" xlink:title="This template class implements a singly linked list which maintains the ordering imposed on it by the...">
<polygon fill="white" stroke="black" points="661,-23 661,-53 768,-53 768,-23 661,-23"/>
<text text-anchor="start" x="669" y="-41" font-family="Helvetica,sans-Serif" font-size="10.00">Cpl::Container::SList</text>
<text text-anchor="middle" x="714.5" y="-30" font-family="Helvetica,sans-Serif" font-size="10.00">&lt; ITEM &gt;</text>
</a>
</g>
</g>
<!-- Node20&#45;&gt;Node19 -->
<g id="edge22" class="edge"><title>Node20&#45;&gt;Node19</title>
<path fill="none" stroke="orange" stroke-dasharray="5,2" d="M778.087,-27.5015C822.148,-23.6952 880.146,-26.343 920,-57 938.389,-71.1457 921.853,-89.3404 938,-106 941.716,-109.834 946.098,-113.097 950.787,-115.87"/>
<polygon fill="orange" stroke="orange" points="777.665,-24.0262 768.06,-28.4983 778.357,-30.9919 777.665,-24.0262"/>
<text text-anchor="middle" x="861" y="-60" font-family="Helvetica,sans-Serif" font-size="10.00"> &lt; Message &gt;</text>
</g>
<!-- Node21 -->
<g id="node21" class="node"><title>Node21</title>
<g id="a_node21"><a xlink:href="class_cpl_1_1_itc_1_1_close_sync.html" target="_top" xlink:title="This partially concrete class implements the synchronous ITC close call for the CloseApi.">
<polygon fill="white" stroke="black" points="1323.5,-95.5 1323.5,-114.5 1424.5,-114.5 1424.5,-95.5 1323.5,-95.5"/>
<text text-anchor="middle" x="1374" y="-102.5" font-family="Helvetica,sans-Serif" font-size="10.00">Cpl::Itc::CloseSync</text>
</a>
</g>
</g>
<!-- Node21&#45;&gt;Node1 -->
<g id="edge24" class="edge"><title>Node21&#45;&gt;Node1</title>
<path fill="none" stroke="midnightblue" d="M1434.65,-105C1460.68,-105 1491.43,-105 1518.74,-105"/>
<polygon fill="midnightblue" stroke="midnightblue" points="1434.55,-101.5 1424.55,-105 1434.55,-108.5 1434.55,-101.5"/>
</g>
<!-- Node22&#45;&gt;Node21 -->
<g id="edge25" class="edge"><title>Node22&#45;&gt;Node21</title>
<path fill="none" stroke="midnightblue" d="M1261.17,-60.8569C1266.54,-62.7933 1271.93,-64.8621 1277,-67 1294.03,-74.1886 1296.92,-78.9211 1314,-86 1322.35,-89.4615 1331.57,-92.697 1340.2,-95.4822"/>
<polygon fill="midnightblue" stroke="midnightblue" points="1262.2,-57.5094 1251.6,-57.5283 1259.9,-64.1205 1262.2,-57.5094"/>
</g>
<!-- Node23 -->
<g id="node23" class="node"><title>Node23</title>
<g id="a_node23"><a xlink:href="class_cpl_1_1_itc_1_1_open_api.html" target="_top" xlink:title="This abstract class defines an open interface.">
<polygon fill="white" stroke="black" points="955,-0.5 955,-19.5 1047,-19.5 1047,-0.5 955,-0.5"/>
<text text-anchor="middle" x="1001" y="-7.5" font-family="Helvetica,sans-Serif" font-size="10.00">Cpl::Itc::OpenApi</text>
</a>
</g>
</g>
<!-- Node23&#45;&gt;Node22 -->
<g id="edge26" class="edge"><title>Node23&#45;&gt;Node22</title>
<path fill="none" stroke="midnightblue" d="M1057.06,-19.6646C1091.65,-25.7352 1135.87,-33.4976 1169.29,-39.3624"/>
<polygon fill="midnightblue" stroke="midnightblue" points="1057.58,-16.2013 1047.12,-17.9198 1056.37,-23.0959 1057.58,-16.2013"/>
</g>
<!-- Node24 -->
<g id="node24" class="node"><title>Node24</title>
<g id="a_node24"><a xlink:href="class_cpl_1_1_itc_1_1_open_request.html" target="_top" xlink:title="This abstract class define message types and payloads for a set of ITC services.">
<polygon fill="white" stroke="black" points="944.5,-38.5 944.5,-57.5 1057.5,-57.5 1057.5,-38.5 944.5,-38.5"/>
<text text-anchor="middle" x="1001" y="-45.5" font-family="Helvetica,sans-Serif" font-size="10.00">Cpl::Itc::OpenRequest</text>
</a>
</g>
</g>
<!-- Node24&#45;&gt;Node22 -->
<g id="edge27" class="edge"><title>Node24&#45;&gt;Node22</title>
<path fill="none" stroke="midnightblue" d="M1068.1,-48C1100.66,-48 1139.26,-48 1169.21,-48"/>
<polygon fill="midnightblue" stroke="midnightblue" points="1067.75,-44.5001 1057.75,-48 1067.75,-51.5001 1067.75,-44.5001"/>
</g>
<!-- Node25 -->
<g id="node25" class="node"><title>Node25</title>
<g id="a_node25"><a xlink:href="class_cpl_1_1_itc_1_1_close_api.html" target="_top" xlink:title="This abstract class defines an close interface.">
<polygon fill="white" stroke="black" points="1173,-114.5 1173,-133.5 1266,-133.5 1266,-114.5 1173,-114.5"/>
<text text-anchor="middle" x="1219.5" y="-121.5" font-family="Helvetica,sans-Serif" font-size="10.00">Cpl::Itc::CloseApi</text>
</a>
</g>
</g>
<!-- Node25&#45;&gt;Node21 -->
<g id="edge29" class="edge"><title>Node25&#45;&gt;Node21</title>
<path fill="none" stroke="midnightblue" d="M1276.18,-117.062C1291.6,-115.141 1308.23,-113.069 1323.29,-111.194"/>
<polygon fill="midnightblue" stroke="midnightblue" points="1275.75,-113.59 1266.26,-118.299 1276.61,-120.536 1275.75,-113.59"/>
</g>
<!-- Node26 -->
<g id="node26" class="node"><title>Node26</title>
<g id="a_node26"><a xlink:href="class_cpl_1_1_itc_1_1_close_request.html" target="_top" xlink:title="This abstract class define message types and payloads for a set of ITC services.">
<polygon fill="white" stroke="black" points="1162,-76.5 1162,-95.5 1277,-95.5 1277,-76.5 1162,-76.5"/>
<text text-anchor="middle" x="1219.5" y="-83.5" font-family="Helvetica,sans-Serif" font-size="10.00">Cpl::Itc::CloseRequest</text>
</a>
</g>
</g>
<!-- Node26&#45;&gt;Node21 -->
<g id="edge30" class="edge"><title>Node26&#45;&gt;Node21</title>
<path fill="none" stroke="midnightblue" d="M1287.31,-94.3234C1299.36,-95.825 1311.73,-97.3663 1323.19,-98.7943"/>
<polygon fill="midnightblue" stroke="midnightblue" points="1287.64,-90.8382 1277.29,-93.0749 1286.78,-97.7845 1287.64,-90.8382"/>
</g>
<!-- Node27 -->
<g id="node27" class="node"><title>Node27</title>
<g id="a_node27"><a xlink:href="class_cpl_1_1_persistent_1_1_record.html" target="_top" xlink:title="This abstract class defines the public interface for a Record instance.">
<polygon fill="white" stroke="black" points="1315,-57.5 1315,-76.5 1433,-76.5 1433,-57.5 1315,-57.5"/>
<text text-anchor="middle" x="1374" y="-64.5" font-family="Helvetica,sans-Serif" font-size="10.00">Cpl::Persistent::Record</text>
</a>
</g>
</g>
<!-- Node27&#45;&gt;Node1 -->
<g id="edge31" class="edge"><title>Node27&#45;&gt;Node1</title>
<path fill="none" stroke="#9a32cd" stroke-dasharray="5,2" d="M1439.09,-78.2759C1470.17,-83.7429 1507.09,-90.2381 1536.75,-95.4561"/>
<polygon fill="#9a32cd" stroke="#9a32cd" points="1439.68,-74.8256 1429.23,-76.54 1438.47,-81.7198 1439.68,-74.8256"/>
<text text-anchor="middle" x="1476.5" y="-92" font-family="Helvetica,sans-Serif" font-size="10.00"> m_records</text>
</g>
</g>
</svg>
