<?xml version="1.0" encoding="UTF-8" standalone="no"?>
<!DOCTYPE svg PUBLIC "-//W3C//DTD SVG 1.1//EN"
 "http://www.w3.org/Graphics/SVG/1.1/DTD/svg11.dtd">
<!-- Generated by graphviz version 10.0.1 (20240210.2158)
 -->
<!-- Title: Cpl::System::RP2040::Thread Pages: 1 -->
<svg width="1218pt" height="172pt"
 viewBox="0.00 0.00 1217.50 172.00" xmlns="http://www.w3.org/2000/svg" xmlns:xlink="http://www.w3.org/1999/xlink">
<g id="graph0" class="graph" transform="scale(1 1) rotate(0) translate(4 168)">
<title>Cpl::System::RP2040::Thread</title>
<!-- Node1 -->
<g id="Node000001" class="node">
<title>Node1</title>
<g id="a_Node000001"><a xlink:title="This concrete class implements a Thread object that maps 1 to 1 with a processor core on the Raspberr...">
<polygon fill="#999999" stroke="#666666" points="1209.5,-111 1099,-111 1099,-79 1209.5,-79 1209.5,-111"/>
<text text-anchor="start" x="1107" y="-97.5" font-family="Helvetica,sans-Serif" font-size="10.00">Cpl::System::RP2040</text>
<text text-anchor="middle" x="1154.25" y="-85.5" font-family="Helvetica,sans-Serif" font-size="10.00">::Thread</text>
</a>
</g>
</g>
<!-- Node2 -->
<g id="Node000002" class="node">
<title>Node2</title>
<g id="a_Node000002"><a xlink:href="class_cpl_1_1_system_1_1_thread.html" target="_top" xlink:title="This abstract class defines the operations that can be performed on a thread.">
<polygon fill="white" stroke="#666666" points="969.25,-164 864,-164 864,-144 969.25,-144 969.25,-164"/>
<text text-anchor="middle" x="916.62" y="-150.5" font-family="Helvetica,sans-Serif" font-size="10.00">Cpl::System::Thread</text>
</a>
</g>
</g>
<!-- Node2&#45;&gt;Node1 -->
<g id="edge1_Node000001_Node000002" class="edge">
<title>Node2&#45;&gt;Node1</title>
<g id="a_edge1_Node000001_Node000002"><a xlink:title=" ">
<path fill="none" stroke="#63b8ff" d="M980.6,-144.16C1011.18,-138.75 1048.3,-131.24 1081,-122 1091.44,-119.05 1102.5,-115.26 1112.75,-111.46"/>
<polygon fill="#63b8ff" stroke="#63b8ff" points="980.39,-140.64 971.14,-145.8 981.59,-147.54 980.39,-140.64"/>
</a>
</g>
</g>
<!-- Node3 -->
<g id="Node000003" class="node">
<title>Node3</title>
<g id="a_Node000003"><a xlink:href="class_cpl_1_1_system_1_1_signable.html" target="_top" xlink:title="This abstract class defines the interface by which a client can cause an object that is waiting&#45;on&#45;a&#45;...">
<polygon fill="white" stroke="#666666" points="644.62,-144 531.12,-144 531.12,-124 644.62,-124 644.62,-144"/>
<text text-anchor="middle" x="587.88" y="-130.5" font-family="Helvetica,sans-Serif" font-size="10.00">Cpl::System::Signable</text>
</a>
</g>
</g>
<!-- Node3&#45;&gt;Node2 -->
<g id="edge2_Node000002_Node000003" class="edge">
<title>Node3&#45;&gt;Node2</title>
<g id="a_edge2_Node000002_Node000003"><a xlink:title=" ">
<path fill="none" stroke="#63b8ff" d="M656.2,-138.12C717.75,-141.89 807.51,-147.38 863.69,-150.82"/>
<polygon fill="#63b8ff" stroke="#63b8ff" points="656.75,-134.65 646.56,-137.53 656.32,-141.64 656.75,-134.65"/>
</a>
</g>
</g>
<!-- Node5 -->
<g id="Node000005" class="node">
<title>Node5</title>
<g id="a_Node000005"><a xlink:href="class_cpl_1_1_system_1_1_semaphore.html" target="_top" xlink:title="This semaphore class defines the interface for a Counting Semaphore.">
<polygon fill="white" stroke="#666666" points="979.38,-126 853.88,-126 853.88,-106 979.38,-106 979.38,-126"/>
<text text-anchor="middle" x="916.62" y="-112.5" font-family="Helvetica,sans-Serif" font-size="10.00">Cpl::System::Semaphore</text>
</a>
</g>
</g>
<!-- Node3&#45;&gt;Node5 -->
<g id="edge5_Node000005_Node000003" class="edge">
<title>Node3&#45;&gt;Node5</title>
<g id="a_edge5_Node000005_Node000003"><a xlink:title=" ">
<path fill="none" stroke="#63b8ff" d="M656.29,-130.29C714.24,-127.09 797.15,-122.53 853.51,-119.42"/>
<polygon fill="#63b8ff" stroke="#63b8ff" points="656.35,-126.78 646.56,-130.82 656.73,-133.77 656.35,-126.78"/>
</a>
</g>
</g>
<!-- Node4 -->
<g id="Node000004" class="node">
<title>Node4</title>
<g id="a_Node000004"><a xlink:href="class_cpl_1_1_container_1_1_item.html" target="_top" xlink:title="This class is used by the Container classes to implement a various types of singly linked containers.">
<polygon fill="white" stroke="#666666" points="492.25,-144 390,-144 390,-124 492.25,-124 492.25,-144"/>
<text text-anchor="middle" x="441.12" y="-130.5" font-family="Helvetica,sans-Serif" font-size="10.00">Cpl::Container::Item</text>
</a>
</g>
</g>
<!-- Node4&#45;&gt;Node3 -->
<g id="edge3_Node000003_Node000004" class="edge">
<title>Node4&#45;&gt;Node3</title>
<g id="a_edge3_Node000003_Node000004"><a xlink:title=" ">
<path fill="none" stroke="#63b8ff" d="M503.61,-134C512.64,-134 521.89,-134 530.8,-134"/>
<polygon fill="#63b8ff" stroke="#63b8ff" points="503.86,-130.5 493.86,-134 503.86,-137.5 503.86,-130.5"/>
</a>
</g>
</g>
<!-- Node5&#45;&gt;Node1 -->
<g id="edge4_Node000001_Node000005" class="edge">
<title>Node5&#45;&gt;Node1</title>
<g id="a_edge4_Node000001_Node000005"><a xlink:title=" ">
<path fill="none" stroke="#9a32cd" stroke-dasharray="5,2" d="M990.92,-109.47C1025.75,-106.36 1066.67,-102.72 1098.72,-99.86"/>
<polygon fill="#9a32cd" stroke="#9a32cd" points="991,-105.95 981.35,-110.32 991.62,-112.92 991,-105.95"/>
</a>
</g>
<text text-anchor="middle" x="1049.5" y="-108.5" font-family="Helvetica,sans-Serif" font-size="10.00" fill="grey"> m_syncSema</text>
</g>
<!-- Node6 -->
<g id="Node000006" class="node">
<title>Node6</title>
<g id="a_Node000006"><a xlink:href="class_cpl_1_1_system_1_1_runnable.html" target="_top" xlink:title="This is an abstract class defines the interface for an object that is &quot;executed&quot; when a Thread object...">
<polygon fill="white" stroke="#666666" points="974.88,-88 858.38,-88 858.38,-68 974.88,-68 974.88,-88"/>
<text text-anchor="middle" x="916.62" y="-74.5" font-family="Helvetica,sans-Serif" font-size="10.00">Cpl::System::Runnable</text>
</a>
</g>
</g>
<!-- Node6&#45;&gt;Node1 -->
<g id="edge6_Node000001_Node000006" class="edge">
<title>Node6&#45;&gt;Node1</title>
<g id="a_edge6_Node000001_Node000006"><a xlink:title=" ">
<path fill="none" stroke="#9a32cd" stroke-dasharray="5,2" d="M986.59,-75.91C1015.79,-75.79 1050.13,-76.64 1081,-80 1086.73,-80.62 1092.68,-81.49 1098.59,-82.5"/>
<polygon fill="#9a32cd" stroke="#9a32cd" points="986.73,-72.41 976.76,-76 986.79,-79.41 986.73,-72.41"/>
</a>
</g>
<text text-anchor="middle" x="1049.5" y="-82.5" font-family="Helvetica,sans-Serif" font-size="10.00" fill="grey"> m_runnable</text>
</g>
<!-- Node7 -->
<g id="Node000007" class="node">
<title>Node7</title>
<g id="a_Node000007"><a xlink:href="class_cpl_1_1_text_1_1_f_string.html" target="_top" xlink:title=" ">
<polygon fill="white" stroke="#666666" points="1000,-50 833.25,-50 833.25,-6 1000,-6 1000,-50"/>
<text text-anchor="start" x="841.25" y="-36.5" font-family="Helvetica,sans-Serif" font-size="10.00">Cpl::Text::FString</text>
<text text-anchor="start" x="841.25" y="-24.5" font-family="Helvetica,sans-Serif" font-size="10.00">&lt; OPTION_CPL_SYSTEM</text>
<text text-anchor="middle" x="916.62" y="-12.5" font-family="Helvetica,sans-Serif" font-size="10.00">_RP2040_THREAD_NAME_LEN &gt;</text>
</a>
</g>
</g>
<!-- Node7&#45;&gt;Node1 -->
<g id="edge7_Node000001_Node000007" class="edge">
<title>Node7&#45;&gt;Node1</title>
<g id="a_edge7_Node000001_Node000007"><a xlink:title=" ">
<path fill="none" stroke="#9a32cd" stroke-dasharray="5,2" d="M1011.34,-42.06C1034.42,-46.69 1058.85,-52.61 1081,-60 1095.54,-64.86 1110.93,-72 1123.74,-78.57"/>
<polygon fill="#9a32cd" stroke="#9a32cd" points="1012.1,-38.64 1001.62,-40.18 1010.77,-45.51 1012.1,-38.64"/>
</a>
</g>
<text text-anchor="middle" x="1049.5" y="-62.5" font-family="Helvetica,sans-Serif" font-size="10.00" fill="grey"> m_name</text>
</g>
<!-- Node8 -->
<g id="Node000008" class="node">
<title>Node8</title>
<g id="a_Node000008"><a xlink:href="class_cpl_1_1_text_1_1_f_string__.html" target="_top" xlink:title="This mostly concrete class implements a &quot;fixed storage&quot; String Type.">
<polygon fill="white" stroke="#666666" points="490,-43 392.25,-43 392.25,-23 490,-23 490,-43"/>
<text text-anchor="middle" x="441.12" y="-29.5" font-family="Helvetica,sans-Serif" font-size="10.00">Cpl::Text::FString_</text>
</a>
</g>
</g>
<!-- Node8&#45;&gt;Node7 -->
<g id="edge8_Node000007_Node000008" class="edge">
<title>Node8&#45;&gt;Node7</title>
<g id="a_edge8_Node000007_Node000008"><a xlink:title=" ">
<path fill="none" stroke="#63b8ff" d="M501.78,-34.35C575.45,-35.75 704.62,-37.3 815.25,-34 821.01,-33.83 826.95,-33.6 832.93,-33.34"/>
<polygon fill="#63b8ff" stroke="#63b8ff" points="502.02,-30.86 491.95,-34.16 501.88,-37.86 502.02,-30.86"/>
</a>
</g>
</g>
<!-- Node12 -->
<g id="Node000012" class="node">
<title>Node12</title>
<g id="a_Node000012"><a xlink:href="class_cpl_1_1_text_1_1_f_string.html" target="_top" xlink:title="This template class represents a NULL terminated string of a specific length.">
<polygon fill="white" stroke="#666666" points="646.5,-20 529.25,-20 529.25,0 646.5,0 646.5,-20"/>
<text text-anchor="middle" x="587.88" y="-6.5" font-family="Helvetica,sans-Serif" font-size="10.00">Cpl::Text::FString&lt; S &gt;</text>
</a>
</g>
</g>
<!-- Node8&#45;&gt;Node12 -->
<g id="edge13_Node000012_Node000008" class="edge">
<title>Node8&#45;&gt;Node12</title>
<g id="a_edge13_Node000012_Node000008"><a xlink:title=" ">
<path fill="none" stroke="#63b8ff" d="M501.55,-23.56C510.56,-22.13 519.85,-20.65 528.83,-19.22"/>
<polygon fill="#63b8ff" stroke="#63b8ff" points="501.15,-20.08 491.82,-25.1 502.24,-26.99 501.15,-20.08"/>
</a>
</g>
</g>
<!-- Node9 -->
<g id="Node000009" class="node">
<title>Node9</title>
<g id="a_Node000009"><a xlink:href="class_cpl_1_1_text_1_1_string__.html" target="_top" xlink:title="This partially concrete class implements the portions of the String Api that is independent of the in...">
<polygon fill="white" stroke="#666666" points="353,-43 261.25,-43 261.25,-23 353,-23 353,-43"/>
<text text-anchor="middle" x="307.12" y="-29.5" font-family="Helvetica,sans-Serif" font-size="10.00">Cpl::Text::String_</text>
</a>
</g>
</g>
<!-- Node9&#45;&gt;Node8 -->
<g id="edge9_Node000008_Node000009" class="edge">
<title>Node9&#45;&gt;Node8</title>
<g id="a_edge9_Node000008_Node000009"><a xlink:title=" ">
<path fill="none" stroke="#63b8ff" d="M364.6,-33C373.76,-33 383.18,-33 392.11,-33"/>
<polygon fill="#63b8ff" stroke="#63b8ff" points="364.7,-29.5 354.7,-33 364.7,-36.5 364.7,-29.5"/>
</a>
</g>
</g>
<!-- Node10 -->
<g id="Node000010" class="node">
<title>Node10</title>
<g id="a_Node000010"><a xlink:href="class_cpl_1_1_text_1_1_string.html" target="_top" xlink:title="This abstract class defines the operations that can be before on a NULL terminated string.">
<polygon fill="white" stroke="#666666" points="224.25,-43 137.75,-43 137.75,-23 224.25,-23 224.25,-43"/>
<text text-anchor="middle" x="181" y="-29.5" font-family="Helvetica,sans-Serif" font-size="10.00">Cpl::Text::String</text>
</a>
</g>
</g>
<!-- Node10&#45;&gt;Node9 -->
<g id="edge10_Node000009_Node000010" class="edge">
<title>Node10&#45;&gt;Node9</title>
<g id="a_edge10_Node000009_Node000010"><a xlink:title=" ">
<path fill="none" stroke="#63b8ff" d="M236.15,-33C244.37,-33 252.78,-33 260.79,-33"/>
<polygon fill="#63b8ff" stroke="#63b8ff" points="236.23,-29.5 226.23,-33 236.23,-36.5 236.23,-29.5"/>
</a>
</g>
</g>
<!-- Node11 -->
<g id="Node000011" class="node">
<title>Node11</title>
<g id="a_Node000011"><a xlink:href="class_cpl_1_1_container_1_1_key.html" target="_top" xlink:title="This abstract class defines the interface that a contained object must support if it has comparable k...">
<polygon fill="white" stroke="#666666" points="100.75,-43 0,-43 0,-23 100.75,-23 100.75,-43"/>
<text text-anchor="middle" x="50.38" y="-29.5" font-family="Helvetica,sans-Serif" font-size="10.00">Cpl::Container::Key</text>
</a>
</g>
</g>
<!-- Node11&#45;&gt;Node10 -->
<g id="edge11_Node000010_Node000011" class="edge">
<title>Node11&#45;&gt;Node10</title>
<g id="a_edge11_Node000010_Node000011"><a xlink:title=" ">
<path fill="none" stroke="#63b8ff" d="M112.53,-33C120.98,-33 129.5,-33 137.51,-33"/>
<polygon fill="#63b8ff" stroke="#63b8ff" points="112.62,-29.5 102.62,-33 112.62,-36.5 112.62,-29.5"/>
</a>
</g>
</g>
<!-- Node12&#45;&gt;Node7 -->
<g id="edge12_Node000007_Node000012" class="edge">
<title>Node12&#45;&gt;Node7</title>
<g id="a_edge12_Node000007_Node000012"><a xlink:title=" ">
<path fill="none" stroke="orange" stroke-dasharray="5,2" d="M658.06,-6.83C702.95,-5.55 762.67,-5.32 815.25,-10 820.98,-10.51 826.88,-11.18 832.8,-11.96"/>
<polygon fill="orange" stroke="orange" points="658.09,-3.33 648.2,-7.14 658.3,-10.32 658.09,-3.33"/>
</a>
</g>
<text text-anchor="start" x="664.5" y="-24.5" font-family="Helvetica,sans-Serif" font-size="10.00" fill="grey"> &lt; OPTION_CPL_SYSTEM</text>
<text text-anchor="middle" x="739.88" y="-12.5" font-family="Helvetica,sans-Serif" font-size="10.00" fill="grey">_RP2040_THREAD_NAME_LEN &gt;</text>
</g>
</g>
</svg>
