<?xml version="1.0" encoding="UTF-8" standalone="no"?>
<!DOCTYPE svg PUBLIC "-//W3C//DTD SVG 1.1//EN"
 "http://www.w3.org/Graphics/SVG/1.1/DTD/svg11.dtd">
<!-- Generated by graphviz version 10.0.1 (20240210.2158)
 -->
<!-- Title: Cpl::Dm::SubscriberBase Pages: 1 -->
<svg width="1547pt" height="395pt"
 viewBox="0.00 0.00 1547.00 395.00" xmlns="http://www.w3.org/2000/svg" xmlns:xlink="http://www.w3.org/1999/xlink">
<g id="graph0" class="graph" transform="scale(1 1) rotate(0) translate(4 391)">
<title>Cpl::Dm::SubscriberBase</title>
<!-- Node1 -->
<g id="Node000001" class="node">
<title>Node1</title>
<g id="a_Node000001"><a xlink:title="This mostly concrete class defines the Subscriber interface &#45; for change notifications &#45; to a Model P...">
<polygon fill="#999999" stroke="#666666" points="1539,-339 1412.75,-339 1412.75,-319 1539,-319 1539,-339"/>
<text text-anchor="middle" x="1475.88" y="-325.5" font-family="Helvetica,sans-Serif" font-size="10.00">Cpl::Dm::SubscriberBase</text>
</a>
</g>
</g>
<!-- Node2 -->
<g id="Node000002" class="node">
<title>Node2</title>
<g id="a_Node000002"><a xlink:href="class_cpl_1_1_dm_1_1_subscriber_api.html" target="_top" xlink:title="This abstract class defines the Subscriber interface &#45; for change notifications &#45; to a Model Points d...">
<polygon fill="white" stroke="#666666" points="1182.25,-339 1064.25,-339 1064.25,-319 1182.25,-319 1182.25,-339"/>
<text text-anchor="middle" x="1123.25" y="-325.5" font-family="Helvetica,sans-Serif" font-size="10.00">Cpl::Dm::SubscriberApi</text>
</a>
</g>
</g>
<!-- Node2&#45;&gt;Node1 -->
<g id="edge1_Node000001_Node000002" class="edge">
<title>Node2&#45;&gt;Node1</title>
<g id="a_edge1_Node000001_Node000002"><a xlink:title=" ">
<path fill="none" stroke="#63b8ff" d="M1193.68,-329C1257.37,-329 1350.87,-329 1412.3,-329"/>
<polygon fill="#63b8ff" stroke="#63b8ff" points="1194.06,-325.5 1184.06,-329 1194.06,-332.5 1194.06,-325.5"/>
</a>
</g>
</g>
<!-- Node3 -->
<g id="Node000003" class="node">
<title>Node3</title>
<g id="a_Node000003"><a xlink:href="class_cpl_1_1_container_1_1_extended_item.html" target="_top" xlink:title="This class is used by the Container classes to implement a various types of DOUBLY linked containers.">
<polygon fill="white" stroke="#666666" points="456.5,-339 313,-339 313,-319 456.5,-319 456.5,-339"/>
<text text-anchor="middle" x="384.75" y="-325.5" font-family="Helvetica,sans-Serif" font-size="10.00">Cpl::Container::ExtendedItem</text>
</a>
</g>
</g>
<!-- Node3&#45;&gt;Node2 -->
<g id="edge2_Node000002_Node000003" class="edge">
<title>Node3&#45;&gt;Node2</title>
<g id="a_edge2_Node000002_Node000003"><a xlink:title=" ">
<path fill="none" stroke="#63b8ff" d="M468.1,-329C618.36,-329 933.48,-329 1063.86,-329"/>
<polygon fill="#63b8ff" stroke="#63b8ff" points="468.22,-325.5 458.22,-329 468.22,-332.5 468.22,-325.5"/>
</a>
</g>
</g>
<!-- Node4 -->
<g id="Node000004" class="node">
<title>Node4</title>
<g id="a_Node000004"><a xlink:href="class_cpl_1_1_container_1_1_item.html" target="_top" xlink:title="This class is used by the Container classes to implement a various types of singly linked containers.">
<polygon fill="white" stroke="#666666" points="104.12,-339 1.88,-339 1.88,-319 104.12,-319 104.12,-339"/>
<text text-anchor="middle" x="53" y="-325.5" font-family="Helvetica,sans-Serif" font-size="10.00">Cpl::Container::Item</text>
</a>
</g>
</g>
<!-- Node4&#45;&gt;Node3 -->
<g id="edge3_Node000003_Node000004" class="edge">
<title>Node4&#45;&gt;Node3</title>
<g id="a_edge3_Node000003_Node000004"><a xlink:title=" ">
<path fill="none" stroke="#63b8ff" d="M115.95,-329C171.81,-329 253.96,-329 312.53,-329"/>
<polygon fill="#63b8ff" stroke="#63b8ff" points="115.95,-325.5 105.95,-329 115.95,-332.5 115.95,-325.5"/>
</a>
</g>
</g>
<!-- Node5 -->
<g id="Node000005" class="node">
<title>Node5</title>
<g id="a_Node000005"><a xlink:href="class_cpl_1_1_dm_1_1_model_point.html" target="_top" xlink:title="This mostly abstract class defines the interface for a Model Point.">
<polygon fill="white" stroke="#666666" points="594,-383 488,-383 488,-363 594,-363 594,-383"/>
<text text-anchor="middle" x="541" y="-369.5" font-family="Helvetica,sans-Serif" font-size="10.00">Cpl::Dm::ModelPoint</text>
</a>
</g>
</g>
<!-- Node4&#45;&gt;Node5 -->
<g id="edge5_Node000005_Node000004" class="edge">
<title>Node4&#45;&gt;Node5</title>
<g id="a_edge5_Node000005_Node000004"><a xlink:title=" ">
<path fill="none" stroke="#63b8ff" d="M113.11,-341.36C116.79,-341.96 120.44,-342.52 124,-343 254.05,-360.62 408.48,-368.33 487.57,-371.33"/>
<polygon fill="#63b8ff" stroke="#63b8ff" points="114.01,-337.97 103.56,-339.7 112.81,-344.86 114.01,-337.97"/>
</a>
</g>
</g>
<!-- Node10 -->
<g id="Node000010" class="node">
<title>Node10</title>
<g id="a_Node000010"><a xlink:href="class_cpl_1_1_system_1_1_signable.html" target="_top" xlink:title="This abstract class defines the interface by which a client can cause an object that is waiting&#45;on&#45;a&#45;...">
<polygon fill="white" stroke="#666666" points="441.5,-207 328,-207 328,-187 441.5,-187 441.5,-207"/>
<text text-anchor="middle" x="384.75" y="-193.5" font-family="Helvetica,sans-Serif" font-size="10.00">Cpl::System::Signable</text>
</a>
</g>
</g>
<!-- Node4&#45;&gt;Node10 -->
<g id="edge11_Node000010_Node000004" class="edge">
<title>Node4&#45;&gt;Node10</title>
<g id="a_edge11_Node000010_Node000004"><a xlink:title=" ">
<path fill="none" stroke="#63b8ff" d="M90.65,-314.33C157.84,-287.43 299.15,-230.86 357.6,-207.47"/>
<polygon fill="#63b8ff" stroke="#63b8ff" points="89.54,-311 81.56,-317.97 92.14,-317.5 89.54,-311"/>
</a>
</g>
</g>
<!-- Node5&#45;&gt;Node1 -->
<g id="edge4_Node000001_Node000005" class="edge">
<title>Node5&#45;&gt;Node1</title>
<g id="a_edge4_Node000001_Node000005"><a xlink:title=" ">
<path fill="none" stroke="#9a32cd" stroke-dasharray="5,2" d="M605.73,-373.69C664.98,-374.27 755.71,-375 834.5,-375 834.5,-375 834.5,-375 1252.38,-375 1322.19,-375 1401.83,-353.01 1444.33,-339.44"/>
<polygon fill="#9a32cd" stroke="#9a32cd" points="605.86,-370.19 595.82,-373.59 605.79,-377.19 605.86,-370.19"/>
</a>
</g>
<text text-anchor="middle" x="983.88" y="-377.5" font-family="Helvetica,sans-Serif" font-size="10.00" fill="grey"> m_point</text>
</g>
<!-- Node6 -->
<g id="Node000006" class="node">
<title>Node6</title>
<g id="a_Node000006"><a xlink:href="class_cpl_1_1_dm_1_1_event_loop.html" target="_top" xlink:title="This class extends the Cpl::System::EventLoop class to support the asynchronous change notification g...">
<polygon fill="white" stroke="#666666" points="1302.5,-209 1200.25,-209 1200.25,-189 1302.5,-189 1302.5,-209"/>
<text text-anchor="middle" x="1251.38" y="-195.5" font-family="Helvetica,sans-Serif" font-size="10.00">Cpl::Dm::EventLoop</text>
</a>
</g>
</g>
<!-- Node6&#45;&gt;Node1 -->
<g id="edge6_Node000001_Node000006" class="edge">
<title>Node6&#45;&gt;Node1</title>
<g id="a_edge6_Node000001_Node000006"><a xlink:title=" ">
<path fill="none" stroke="#9a32cd" stroke-dasharray="5,2" d="M1279.87,-215.06C1326.1,-242.07 1418.15,-295.86 1456.96,-318.53"/>
<polygon fill="#9a32cd" stroke="#9a32cd" points="1281.91,-212.21 1271.51,-210.18 1278.38,-218.25 1281.91,-212.21"/>
</a>
</g>
<text text-anchor="middle" x="1357.62" y="-281.5" font-family="Helvetica,sans-Serif" font-size="10.00" fill="grey"> m_eventLoopHdl</text>
</g>
<!-- Node7 -->
<g id="Node000007" class="node">
<title>Node7</title>
<g id="a_Node000007"><a xlink:href="class_cpl_1_1_system_1_1_event_loop.html" target="_top" xlink:title="This concrete class is a Runnable object that provides a event driven execution model for a thread.">
<polygon fill="white" stroke="#666666" points="1044.38,-187 923.38,-187 923.38,-167 1044.38,-167 1044.38,-187"/>
<text text-anchor="middle" x="983.88" y="-173.5" font-family="Helvetica,sans-Serif" font-size="10.00">Cpl::System::EventLoop</text>
</a>
</g>
</g>
<!-- Node7&#45;&gt;Node6 -->
<g id="edge7_Node000006_Node000007" class="edge">
<title>Node7&#45;&gt;Node6</title>
<g id="a_edge7_Node000006_Node000007"><a xlink:title=" ">
<path fill="none" stroke="#63b8ff" d="M1056.06,-182.9C1101.51,-186.66 1159.33,-191.46 1200.04,-194.83"/>
<polygon fill="#63b8ff" stroke="#63b8ff" points="1056.55,-179.43 1046.3,-182.09 1055.97,-186.4 1056.55,-179.43"/>
</a>
</g>
</g>
<!-- Node8 -->
<g id="Node000008" class="node">
<title>Node8</title>
<g id="a_Node000008"><a xlink:href="class_cpl_1_1_system_1_1_runnable.html" target="_top" xlink:title="This is an abstract class defines the interface for an object that is &quot;executed&quot; when a Thread object...">
<polygon fill="white" stroke="#666666" points="739,-301 622.5,-301 622.5,-281 739,-281 739,-301"/>
<text text-anchor="middle" x="680.75" y="-287.5" font-family="Helvetica,sans-Serif" font-size="10.00">Cpl::System::Runnable</text>
</a>
</g>
</g>
<!-- Node8&#45;&gt;Node7 -->
<g id="edge8_Node000007_Node000008" class="edge">
<title>Node8&#45;&gt;Node7</title>
<g id="a_edge8_Node000007_Node000008"><a xlink:title=" ">
<path fill="none" stroke="#63b8ff" d="M750.48,-296.8C798.78,-297.07 861.94,-289.25 903.5,-253 923.52,-235.54 902.66,-214.73 921.5,-196 924.98,-192.54 929.08,-189.71 933.48,-187.39"/>
<polygon fill="#63b8ff" stroke="#63b8ff" points="750.75,-293.31 740.68,-296.62 750.62,-300.3 750.75,-293.31"/>
</a>
</g>
</g>
<!-- Node9 -->
<g id="Node000009" class="node">
<title>Node9</title>
<g id="a_Node000009"><a xlink:href="class_cpl_1_1_system_1_1_event_flag.html" target="_top" xlink:title="This abstract class defines the interface to generated a &#39;Event Flag&#39;.">
<polygon fill="white" stroke="#666666" points="740.12,-263 621.38,-263 621.38,-243 740.12,-243 740.12,-263"/>
<text text-anchor="middle" x="680.75" y="-249.5" font-family="Helvetica,sans-Serif" font-size="10.00">Cpl::System::EventFlag</text>
</a>
</g>
</g>
<!-- Node9&#45;&gt;Node7 -->
<g id="edge9_Node000007_Node000009" class="edge">
<title>Node9&#45;&gt;Node7</title>
<g id="a_edge9_Node000007_Node000009"><a xlink:title=" ">
<path fill="none" stroke="#63b8ff" d="M751.66,-257.24C797.93,-256.83 858.19,-249.91 903.5,-222 915.47,-214.63 910.17,-204.31 921.5,-196 926.18,-192.57 931.49,-189.75 936.98,-187.43"/>
<polygon fill="#63b8ff" stroke="#63b8ff" points="751.74,-253.74 741.73,-257.21 751.72,-260.74 751.74,-253.74"/>
</a>
</g>
</g>
<!-- Node10&#45;&gt;Node7 -->
<g id="edge10_Node000007_Node000010" class="edge">
<title>Node10&#45;&gt;Node7</title>
<g id="a_edge10_Node000007_Node000010"><a xlink:title=" ">
<path fill="none" stroke="#63b8ff" d="M452.17,-184.42C464.09,-182.23 476.41,-180.01 488,-178 543,-168.46 556.35,-162.46 612,-158 672.92,-153.12 688.44,-155.52 749.5,-158 808.6,-160.4 875.91,-166.21 923,-170.78"/>
<polygon fill="#63b8ff" stroke="#63b8ff" points="451.58,-180.97 442.38,-186.23 452.85,-187.85 451.58,-180.97"/>
</a>
</g>
</g>
<!-- Node15 -->
<g id="Node000015" class="node">
<title>Node15</title>
<g id="a_Node000015"><a xlink:href="class_cpl_1_1_system_1_1_thread.html" target="_top" xlink:title="This abstract class defines the operations that can be performed on a thread.">
<polygon fill="white" stroke="#666666" points="733.38,-225 628.12,-225 628.12,-205 733.38,-205 733.38,-225"/>
<text text-anchor="middle" x="680.75" y="-211.5" font-family="Helvetica,sans-Serif" font-size="10.00">Cpl::System::Thread</text>
</a>
</g>
</g>
<!-- Node10&#45;&gt;Node15 -->
<g id="edge17_Node000015_Node000010" class="edge">
<title>Node10&#45;&gt;Node15</title>
<g id="a_edge17_Node000015_Node000010"><a xlink:title=" ">
<path fill="none" stroke="#63b8ff" d="M453.1,-201.12C506.24,-204.38 579.26,-208.85 627.91,-211.83"/>
<polygon fill="#63b8ff" stroke="#63b8ff" points="453.45,-197.64 443.25,-200.52 453.02,-204.63 453.45,-197.64"/>
</a>
</g>
</g>
<!-- Node17 -->
<g id="Node000017" class="node">
<title>Node17</title>
<g id="a_Node000017"><a xlink:href="class_cpl_1_1_system_1_1_semaphore.html" target="_top" xlink:title="This semaphore class defines the interface for a Counting Semaphore.">
<polygon fill="white" stroke="#666666" points="743.5,-187 618,-187 618,-167 743.5,-167 743.5,-187"/>
<text text-anchor="middle" x="680.75" y="-173.5" font-family="Helvetica,sans-Serif" font-size="10.00">Cpl::System::Semaphore</text>
</a>
</g>
</g>
<!-- Node10&#45;&gt;Node17 -->
<g id="edge20_Node000017_Node000010" class="edge">
<title>Node10&#45;&gt;Node17</title>
<g id="a_edge20_Node000017_Node000010"><a xlink:title=" ">
<path fill="none" stroke="#63b8ff" d="M452.98,-192.43C502.5,-189.06 569.34,-184.51 617.61,-181.23"/>
<polygon fill="#63b8ff" stroke="#63b8ff" points="452.99,-188.92 443.25,-193.09 453.47,-195.9 452.99,-188.92"/>
</a>
</g>
</g>
<!-- Node11 -->
<g id="Node000011" class="node">
<title>Node11</title>
<g id="a_Node000011"><a xlink:href="class_cpl_1_1_system_1_1_timer_manager.html" target="_top" xlink:title="This mostly concrete class implements manages a list of Software Timers.">
<polygon fill="white" stroke="#666666" points="749.5,-61 612,-61 612,-41 749.5,-41 749.5,-61"/>
<text text-anchor="middle" x="680.75" y="-47.5" font-family="Helvetica,sans-Serif" font-size="10.00">Cpl::System::TimerManager</text>
</a>
</g>
</g>
<!-- Node11&#45;&gt;Node7 -->
<g id="edge12_Node000007_Node000011" class="edge">
<title>Node11&#45;&gt;Node7</title>
<g id="a_edge12_Node000007_Node000011"><a xlink:title=" ">
<path fill="none" stroke="#63b8ff" d="M761.22,-50.48C805.51,-53.29 860.28,-62.1 903.5,-86 921.66,-96.04 959.21,-144.99 975.3,-166.65"/>
<polygon fill="#63b8ff" stroke="#63b8ff" points="761.59,-46.99 751.42,-49.96 761.22,-53.99 761.59,-46.99"/>
</a>
</g>
</g>
<!-- Node12 -->
<g id="Node000012" class="node">
<title>Node12</title>
<g id="a_Node000012"><a xlink:href="class_cpl_1_1_system_1_1_counter_source__.html" target="_top" xlink:title="This abstract class defines the interface for registering for an Counter object with the Timer Manage...">
<polygon fill="white" stroke="#666666" points="457.62,-61 311.88,-61 311.88,-41 457.62,-41 457.62,-61"/>
<text text-anchor="middle" x="384.75" y="-47.5" font-family="Helvetica,sans-Serif" font-size="10.00">Cpl::System::CounterSource_</text>
</a>
</g>
</g>
<!-- Node12&#45;&gt;Node11 -->
<g id="edge13_Node000011_Node000012" class="edge">
<title>Node12&#45;&gt;Node11</title>
<g id="a_edge13_Node000011_Node000012"><a xlink:title=" ">
<path fill="none" stroke="#63b8ff" d="M469.55,-51C514.5,-51 569.2,-51 611.52,-51"/>
<polygon fill="#63b8ff" stroke="#63b8ff" points="469.56,-47.5 459.56,-51 469.56,-54.5 469.56,-47.5"/>
</a>
</g>
</g>
<!-- Node13 -->
<g id="Node000013" class="node">
<title>Node13</title>
<g id="a_Node000013"><a xlink:href="class_cpl_1_1_container_1_1_d_list.html" target="_top" xlink:title=" ">
<polygon fill="white" stroke="#666666" points="470,-111 299.5,-111 299.5,-79 470,-79 470,-111"/>
<text text-anchor="start" x="307.5" y="-97.5" font-family="Helvetica,sans-Serif" font-size="10.00">Cpl::Container::DList</text>
<text text-anchor="middle" x="384.75" y="-85.5" font-family="Helvetica,sans-Serif" font-size="10.00">&lt; Cpl::System::CounterCallback_ &gt;</text>
</a>
</g>
</g>
<!-- Node13&#45;&gt;Node11 -->
<g id="edge14_Node000011_Node000013" class="edge">
<title>Node13&#45;&gt;Node11</title>
<g id="a_edge14_Node000011_Node000013"><a xlink:title=" ">
<path fill="none" stroke="#9a32cd" stroke-dasharray="5,2" d="M481.69,-81.56C517.02,-76.51 557.35,-70.63 594,-65 601.31,-63.88 608.96,-62.67 616.55,-61.46"/>
<polygon fill="#9a32cd" stroke="#9a32cd" points="481.31,-78.08 471.91,-82.96 482.3,-85.01 481.31,-78.08"/>
</a>
</g>
<text text-anchor="middle" x="541" y="-94.5" font-family="Helvetica,sans-Serif" font-size="10.00" fill="grey"> m_counters</text>
<text text-anchor="middle" x="541" y="-82.5" font-family="Helvetica,sans-Serif" font-size="10.00" fill="grey">m_pendingAttach</text>
</g>
<!-- Node14 -->
<g id="Node000014" class="node">
<title>Node14</title>
<g id="a_Node000014"><a xlink:href="class_cpl_1_1_container_1_1_d_list.html" target="_top" xlink:title="This template class implements a Doubly linked list which maintains the ordering imposed on it by the...">
<polygon fill="white" stroke="#666666" points="106,-57 0,-57 0,-25 106,-25 106,-57"/>
<text text-anchor="start" x="8" y="-43.5" font-family="Helvetica,sans-Serif" font-size="10.00">Cpl::Container::DList</text>
<text text-anchor="middle" x="53" y="-31.5" font-family="Helvetica,sans-Serif" font-size="10.00">&lt; ITEM &gt;</text>
</a>
</g>
</g>
<!-- Node14&#45;&gt;Node13 -->
<g id="edge15_Node000013_Node000014" class="edge">
<title>Node14&#45;&gt;Node13</title>
<g id="a_edge15_Node000013_Node000014"><a xlink:title=" ">
<path fill="none" stroke="orange" stroke-dasharray="5,2" d="M117.59,-51.41C169.3,-59.88 242.69,-71.9 299.32,-81.17"/>
<polygon fill="orange" stroke="orange" points="118.18,-47.96 107.74,-49.8 117.05,-54.87 118.18,-47.96"/>
</a>
</g>
<text text-anchor="middle" x="202.75" y="-79.5" font-family="Helvetica,sans-Serif" font-size="10.00" fill="grey"> &lt; Cpl::System::CounterCallback_ &gt;</text>
</g>
<!-- Node19 -->
<g id="Node000019" class="node">
<title>Node19</title>
<g id="a_Node000019"><a xlink:href="class_cpl_1_1_container_1_1_d_list.html" target="_top" xlink:title=" ">
<polygon fill="white" stroke="#666666" points="903.5,-32 767.5,-32 767.5,0 903.5,0 903.5,-32"/>
<text text-anchor="start" x="775.5" y="-18.5" font-family="Helvetica,sans-Serif" font-size="10.00">Cpl::Container::DList</text>
<text text-anchor="middle" x="835.5" y="-6.5" font-family="Helvetica,sans-Serif" font-size="10.00">&lt; Cpl::Dm::SubscriberApi &gt;</text>
</a>
</g>
</g>
<!-- Node14&#45;&gt;Node19 -->
<g id="edge23_Node000019_Node000014" class="edge">
<title>Node14&#45;&gt;Node19</title>
<g id="a_edge23_Node000019_Node000014"><a xlink:title=" ">
<path fill="none" stroke="orange" stroke-dasharray="5,2" d="M117.3,-34.22C166.82,-29.25 237.46,-22.88 299.5,-20 467.67,-12.19 665.89,-13.43 767.31,-14.83"/>
<polygon fill="orange" stroke="orange" points="117.22,-30.71 107.63,-35.2 117.93,-37.68 117.22,-30.71"/>
</a>
</g>
<text text-anchor="middle" x="384.75" y="-22.5" font-family="Helvetica,sans-Serif" font-size="10.00" fill="grey"> &lt; Cpl::Dm::SubscriberApi &gt;</text>
</g>
<!-- Node15&#45;&gt;Node7 -->
<g id="edge16_Node000007_Node000015" class="edge">
<title>Node15&#45;&gt;Node7</title>
<g id="a_edge16_Node000007_Node000015"><a xlink:title=" ">
<path fill="none" stroke="#9a32cd" stroke-dasharray="5,2" d="M745.06,-209.28C789.5,-204.99 850.25,-198.57 903.5,-191 910.84,-189.96 918.55,-188.74 926.15,-187.48"/>
<polygon fill="#9a32cd" stroke="#9a32cd" points="744.97,-205.77 735.35,-210.21 745.64,-212.74 744.97,-205.77"/>
</a>
</g>
<text text-anchor="middle" x="835.5" y="-208.5" font-family="Helvetica,sans-Serif" font-size="10.00" fill="grey"> m_myThreadPtr</text>
</g>
<!-- Node16 -->
<g id="Node000016" class="node">
<title>Node16</title>
<g id="a_Node000016"><a xlink:href="class_cpl_1_1_system_1_1_shared_event_handler_api.html" target="_top" xlink:title="This abstract class defines the interface for a Shared Event Handler.">
<polygon fill="white" stroke="#666666" points="746.12,-111 615.38,-111 615.38,-79 746.12,-79 746.12,-111"/>
<text text-anchor="start" x="623.38" y="-97.5" font-family="Helvetica,sans-Serif" font-size="10.00">Cpl::System::SharedEvent</text>
<text text-anchor="middle" x="680.75" y="-85.5" font-family="Helvetica,sans-Serif" font-size="10.00">HandlerApi</text>
</a>
</g>
</g>
<!-- Node16&#45;&gt;Node7 -->
<g id="edge18_Node000007_Node000016" class="edge">
<title>Node16&#45;&gt;Node7</title>
<g id="a_edge18_Node000007_Node000016"><a xlink:title=" ">
<path fill="none" stroke="#9a32cd" stroke-dasharray="5,2" d="M757.66,-90.26C801.7,-90.14 857.4,-94.6 903.5,-113 933.09,-124.81 960.31,-151.65 973.87,-166.55"/>
<polygon fill="#9a32cd" stroke="#9a32cd" points="757.62,-86.76 747.66,-90.37 757.7,-93.75 757.62,-86.76"/>
</a>
</g>
<text text-anchor="middle" x="835.5" y="-115.5" font-family="Helvetica,sans-Serif" font-size="10.00" fill="grey"> m_eventHandler</text>
</g>
<!-- Node17&#45;&gt;Node7 -->
<g id="edge19_Node000007_Node000017" class="edge">
<title>Node17&#45;&gt;Node7</title>
<g id="a_edge19_Node000007_Node000017"><a xlink:title=" ">
<path fill="none" stroke="#9a32cd" stroke-dasharray="5,2" d="M755.17,-177C806.69,-177 874.73,-177 922.98,-177"/>
<polygon fill="#9a32cd" stroke="#9a32cd" points="755.29,-173.5 745.29,-177 755.29,-180.5 755.29,-173.5"/>
</a>
</g>
<text text-anchor="middle" x="835.5" y="-179.5" font-family="Helvetica,sans-Serif" font-size="10.00" fill="grey"> m_sema</text>
</g>
<!-- Node18 -->
<g id="Node000018" class="node">
<title>Node18</title>
<g id="a_Node000018"><a xlink:href="class_cpl_1_1_dm_1_1_notification_api__.html" target="_top" xlink:title="This class has PACKAGE Scope, i.e.">
<polygon fill="white" stroke="#666666" points="1046.25,-225 921.5,-225 921.5,-205 1046.25,-205 1046.25,-225"/>
<text text-anchor="middle" x="983.88" y="-211.5" font-family="Helvetica,sans-Serif" font-size="10.00">Cpl::Dm::NotificationApi_</text>
</a>
</g>
</g>
<!-- Node18&#45;&gt;Node6 -->
<g id="edge21_Node000006_Node000018" class="edge">
<title>Node18&#45;&gt;Node6</title>
<g id="a_edge21_Node000006_Node000018"><a xlink:title=" ">
<path fill="none" stroke="#63b8ff" d="M1057.94,-210.6C1103.01,-207.88 1159.67,-204.47 1199.81,-202.05"/>
<polygon fill="#63b8ff" stroke="#63b8ff" points="1057.74,-207.1 1047.96,-211.2 1058.16,-214.09 1057.74,-207.1"/>
</a>
</g>
</g>
<!-- Node19&#45;&gt;Node6 -->
<g id="edge22_Node000006_Node000019" class="edge">
<title>Node19&#45;&gt;Node6</title>
<g id="a_edge22_Node000006_Node000019"><a xlink:title=" ">
<path fill="none" stroke="#9a32cd" stroke-dasharray="5,2" d="M883.9,-36.96C972.62,-76.19 1160.72,-159.36 1226.81,-188.58"/>
<polygon fill="#9a32cd" stroke="#9a32cd" points="885.54,-33.86 874.98,-33.01 882.71,-40.26 885.54,-33.86"/>
</a>
</g>
<text text-anchor="middle" x="983.88" y="-109.5" font-family="Helvetica,sans-Serif" font-size="10.00" fill="grey"> m_pendingMpNotifications</text>
</g>
</g>
</svg>
