<?xml version="1.0" encoding="UTF-8" standalone="no"?>
<!DOCTYPE svg PUBLIC "-//W3C//DTD SVG 1.1//EN"
 "http://www.w3.org/Graphics/SVG/1.1/DTD/svg11.dtd">
<!-- Generated by graphviz version 10.0.1 (20240210.2158)
 -->
<!-- Title: Storm::Component::Control Pages: 1 -->
<svg width="2242pt" height="553pt"
 viewBox="0.00 0.00 2242.25 552.86" xmlns="http://www.w3.org/2000/svg" xmlns:xlink="http://www.w3.org/1999/xlink">
<g id="graph0" class="graph" transform="scale(1 1) rotate(0) translate(4 548.86)">
<title>Storm::Component::Control</title>
<!-- Node1 -->
<g id="Node000001" class="node">
<title>Node1</title>
<g id="a_Node000001"><a xlink:title="This concrete class provides the Component wrapper that is responsible for determining how to control...">
<polygon fill="#999999" stroke="#666666" points="2234.25,-390.86 2099.75,-390.86 2099.75,-370.86 2234.25,-370.86 2234.25,-390.86"/>
<text text-anchor="middle" x="2167" y="-377.36" font-family="Helvetica,sans-Serif" font-size="10.00">Storm::Component::Control</text>
</a>
</g>
</g>
<!-- Node2 -->
<g id="Node000002" class="node">
<title>Node2</title>
<g id="a_Node000002"><a xlink:href="class_storm_1_1_component_1_1_base.html" target="_top" xlink:title="This partially concrete class provide core infrastructure for Components.">
<polygon fill="white" stroke="#666666" points="1458.38,-527.86 1332.12,-527.86 1332.12,-507.86 1458.38,-507.86 1458.38,-527.86"/>
<text text-anchor="middle" x="1395.25" y="-514.36" font-family="Helvetica,sans-Serif" font-size="10.00">Storm::Component::Base</text>
</a>
</g>
</g>
<!-- Node2&#45;&gt;Node1 -->
<g id="edge1_Node000001_Node000002" class="edge">
<title>Node2&#45;&gt;Node1</title>
<g id="a_edge1_Node000001_Node000002"><a xlink:title=" ">
<path fill="none" stroke="#63b8ff" d="M1470.3,-517.42C1560.65,-515.72 1717.67,-508.97 1849.75,-483.86 1955.81,-463.69 1979.5,-446.51 2081.75,-411.86 2100.94,-405.35 2122.37,-397.46 2138.81,-391.27"/>
<polygon fill="#63b8ff" stroke="#63b8ff" points="1470.27,-513.92 1460.33,-517.59 1470.39,-520.92 1470.27,-513.92"/>
</a>
</g>
</g>
<!-- Node3 -->
<g id="Node000003" class="node">
<title>Node3</title>
<g id="a_Node000003"><a xlink:href="class_storm_1_1_component_1_1_api.html" target="_top" xlink:title="This class define the interface for a Component.">
<polygon fill="white" stroke="#666666" points="1159.25,-544.86 1041.25,-544.86 1041.25,-524.86 1159.25,-524.86 1159.25,-544.86"/>
<text text-anchor="middle" x="1100.25" y="-531.36" font-family="Helvetica,sans-Serif" font-size="10.00">Storm::Component::Api</text>
</a>
</g>
</g>
<!-- Node3&#45;&gt;Node2 -->
<g id="edge2_Node000002_Node000003" class="edge">
<title>Node3&#45;&gt;Node2</title>
<g id="a_edge2_Node000002_Node000003"><a xlink:title=" ">
<path fill="none" stroke="#63b8ff" d="M1170.92,-530.81C1219.81,-527.98 1284.61,-524.22 1331.82,-521.48"/>
<polygon fill="#63b8ff" stroke="#63b8ff" points="1170.78,-527.32 1161,-531.39 1171.18,-534.31 1170.78,-527.32"/>
</a>
</g>
</g>
<!-- Node4 -->
<g id="Node000004" class="node">
<title>Node4</title>
<g id="a_Node000004"><a xlink:href="struct_cpl_1_1_system_1_1_elapsed_time_1_1_precision___t.html" target="_top" xlink:title="Data type for time in seconds with a &#39;fractional&#39; millisecond precision.">
<polygon fill="white" stroke="#666666" points="1166.38,-434.86 1034.12,-434.86 1034.12,-402.86 1166.38,-402.86 1166.38,-434.86"/>
<text text-anchor="start" x="1042.12" y="-421.36" font-family="Helvetica,sans-Serif" font-size="10.00">Cpl::System::ElapsedTime</text>
<text text-anchor="middle" x="1100.25" y="-409.36" font-family="Helvetica,sans-Serif" font-size="10.00">::Precision_T</text>
</a>
</g>
</g>
<!-- Node4&#45;&gt;Node2 -->
<g id="edge3_Node000002_Node000004" class="edge">
<title>Node4&#45;&gt;Node2</title>
<g id="a_edge3_Node000002_Node000004"><a xlink:title=" ">
<path fill="none" stroke="#9a32cd" stroke-dasharray="5,2" d="M1160.66,-438.93C1222.04,-459.67 1315.45,-491.23 1363.43,-507.44"/>
<polygon fill="#9a32cd" stroke="#9a32cd" points="1161.99,-435.69 1151.4,-435.8 1159.75,-442.32 1161.99,-435.69"/>
</a>
</g>
<text text-anchor="middle" x="1244" y="-497.36" font-family="Helvetica,sans-Serif" font-size="10.00" fill="grey"> m_interval</text>
<text text-anchor="middle" x="1244" y="-485.36" font-family="Helvetica,sans-Serif" font-size="10.00" fill="grey">m_timeMark</text>
</g>
<!-- Node25 -->
<g id="Node000025" class="node">
<title>Node25</title>
<g id="a_Node000025"><a xlink:href="struct_storm_1_1_type_1_1_equipment_times___t.html" target="_top" xlink:title="The following typedef is used to store the &#39;begin times&#39; for the Indoor and Outdoor HVAC equipment.">
<polygon fill="white" stroke="#666666" points="1474.5,-250.86 1316,-250.86 1316,-230.86 1474.5,-230.86 1474.5,-250.86"/>
<text text-anchor="middle" x="1395.25" y="-237.36" font-family="Helvetica,sans-Serif" font-size="10.00">Storm::Type::EquipmentTimes_T</text>
</a>
</g>
</g>
<!-- Node4&#45;&gt;Node25 -->
<g id="edge29_Node000025_Node000004" class="edge">
<title>Node4&#45;&gt;Node25</title>
<g id="a_edge29_Node000025_Node000004"><a xlink:title=" ">
<path fill="none" stroke="#9a32cd" stroke-dasharray="5,2" d="M1125.93,-394.53C1163.54,-358.96 1239.01,-293.35 1316,-259.86 1323.69,-256.51 1332.08,-253.69 1340.41,-251.33"/>
<polygon fill="#9a32cd" stroke="#9a32cd" points="1123.53,-391.99 1118.72,-401.43 1128.37,-397.04 1123.53,-391.99"/>
</a>
</g>
<text text-anchor="middle" x="1244" y="-398.36" font-family="Helvetica,sans-Serif" font-size="10.00" fill="grey"> indoorUnitBeginOffTime</text>
<text text-anchor="middle" x="1244" y="-386.36" font-family="Helvetica,sans-Serif" font-size="10.00" fill="grey">indoorUnitBeginOnTime</text>
<text text-anchor="middle" x="1244" y="-374.36" font-family="Helvetica,sans-Serif" font-size="10.00" fill="grey">outdoorUnitBeginOffTime</text>
<text text-anchor="middle" x="1244" y="-362.36" font-family="Helvetica,sans-Serif" font-size="10.00" fill="grey">outdoorUnitBeginOnTime</text>
<text text-anchor="middle" x="1244" y="-350.36" font-family="Helvetica,sans-Serif" font-size="10.00" fill="grey">systemBeginOffTime</text>
<text text-anchor="middle" x="1244" y="-338.36" font-family="Helvetica,sans-Serif" font-size="10.00" fill="grey">systemBeginOnTime</text>
</g>
<!-- Node28 -->
<g id="Node000028" class="node">
<title>Node28</title>
<g id="a_Node000028"><a xlink:href="struct_storm_1_1_type_1_1_cycle_info___t.html" target="_top" xlink:title="The following typedef is used to store the information about the current on/off cycling of the equipm...">
<polygon fill="white" stroke="#666666" points="1458,-428.86 1332.5,-428.86 1332.5,-408.86 1458,-408.86 1458,-428.86"/>
<text text-anchor="middle" x="1395.25" y="-415.36" font-family="Helvetica,sans-Serif" font-size="10.00">Storm::Type::CycleInfo_T</text>
</a>
</g>
</g>
<!-- Node4&#45;&gt;Node28 -->
<g id="edge35_Node000028_Node000004" class="edge">
<title>Node4&#45;&gt;Node28</title>
<g id="a_edge35_Node000028_Node000004"><a xlink:title=" ">
<path fill="none" stroke="#9a32cd" stroke-dasharray="5,2" d="M1177.93,-418.86C1225.96,-418.86 1287.06,-418.86 1332.07,-418.86"/>
<polygon fill="#9a32cd" stroke="#9a32cd" points="1178.15,-415.36 1168.15,-418.86 1178.15,-422.36 1178.15,-415.36"/>
</a>
</g>
<text text-anchor="middle" x="1244" y="-433.36" font-family="Helvetica,sans-Serif" font-size="10.00" fill="grey"> beginOffTime</text>
<text text-anchor="middle" x="1244" y="-421.36" font-family="Helvetica,sans-Serif" font-size="10.00" fill="grey">beginOnTime</text>
</g>
<!-- Node5 -->
<g id="Node000005" class="node">
<title>Node5</title>
<g id="a_Node000005"><a xlink:href="class_storm_1_1_component_1_1_control.html#struct_storm_1_1_component_1_1_control_1_1_input___t" target="_top" xlink:title="Input Model Points.">
<polygon fill="white" stroke="#666666" points="2002.25,-321.86 1867.75,-321.86 1867.75,-289.86 2002.25,-289.86 2002.25,-321.86"/>
<text text-anchor="start" x="1875.75" y="-308.36" font-family="Helvetica,sans-Serif" font-size="10.00">Storm::Component::Control</text>
<text text-anchor="middle" x="1935" y="-296.36" font-family="Helvetica,sans-Serif" font-size="10.00">::Input_T</text>
</a>
</g>
</g>
<!-- Node5&#45;&gt;Node1 -->
<g id="edge4_Node000001_Node000005" class="edge">
<title>Node5&#45;&gt;Node1</title>
<g id="a_edge4_Node000001_Node000005"><a xlink:title=" ">
<path fill="none" stroke="#9a32cd" stroke-dasharray="5,2" d="M1997.35,-325.86C2041.34,-340.21 2098.83,-358.95 2134.05,-370.44"/>
<polygon fill="#9a32cd" stroke="#9a32cd" points="1998.51,-322.56 1987.91,-322.79 1996.34,-329.21 1998.51,-322.56"/>
</a>
</g>
<text text-anchor="middle" x="2051" y="-354.36" font-family="Helvetica,sans-Serif" font-size="10.00" fill="grey"> m_in</text>
</g>
<!-- Node6 -->
<g id="Node000006" class="node">
<title>Node6</title>
<g id="a_Node000006"><a xlink:href="class_storm_1_1_dm_1_1_mp_system_config.html" target="_top" xlink:title="This class provides a concrete implementation for a Point who&#39;s data is the the System Configuration ...">
<polygon fill="white" stroke="#666666" points="1172,-48.86 1028.5,-48.86 1028.5,-28.86 1172,-28.86 1172,-48.86"/>
<text text-anchor="middle" x="1100.25" y="-35.36" font-family="Helvetica,sans-Serif" font-size="10.00">Storm::Dm::MpSystemConfig</text>
</a>
</g>
</g>
<!-- Node6&#45;&gt;Node5 -->
<g id="edge5_Node000005_Node000006" class="edge">
<title>Node6&#45;&gt;Node5</title>
<g id="a_edge5_Node000005_Node000006"><a xlink:title=" ">
<path fill="none" stroke="#9a32cd" stroke-dasharray="5,2" d="M1158.51,-26.23C1299.39,1.1 1664.8,48.69 1849.75,-144.86 1891.87,-188.94 1829.85,-233.1 1867.75,-280.86 1870.35,-284.13 1873.42,-286.98 1876.81,-289.45"/>
<polygon fill="#9a32cd" stroke="#9a32cd" points="1158.18,-22.73 1149.05,-28.11 1159.54,-29.6 1158.18,-22.73"/>
</a>
</g>
<text text-anchor="middle" x="1523.62" y="-11.36" font-family="Helvetica,sans-Serif" font-size="10.00" fill="grey"> systemConfig</text>
</g>
<!-- Node7 -->
<g id="Node000007" class="node">
<title>Node7</title>
<g id="a_Node000007"><a xlink:href="class_cpl_1_1_dm_1_1_model_point_common__.html" target="_top" xlink:title="This concrete class provide common infrastructure for a Model Point.">
<polygon fill="white" stroke="#666666" points="957.25,-193.86 807,-193.86 807,-173.86 957.25,-173.86 957.25,-193.86"/>
<text text-anchor="middle" x="882.12" y="-180.36" font-family="Helvetica,sans-Serif" font-size="10.00">Cpl::Dm::ModelPointCommon_</text>
</a>
</g>
</g>
<!-- Node7&#45;&gt;Node6 -->
<g id="edge6_Node000006_Node000007" class="edge">
<title>Node7&#45;&gt;Node6</title>
<g id="a_edge6_Node000006_Node000007"><a xlink:title=" ">
<path fill="none" stroke="#63b8ff" d="M898.65,-165.13C923.13,-136.96 973.58,-84.2 1028.5,-57.86 1035.5,-54.5 1043.17,-51.67 1050.81,-49.29"/>
<polygon fill="#63b8ff" stroke="#63b8ff" points="896.18,-162.63 892.36,-172.51 901.51,-167.17 896.18,-162.63"/>
</a>
</g>
</g>
<!-- Node20 -->
<g id="Node000020" class="node">
<title>Node20</title>
<g id="a_Node000020"><a xlink:href="class_cpl_1_1_dm_1_1_mp_1_1_numeric.html" target="_top" xlink:title=" ">
<polygon fill="white" stroke="#666666" points="1451.62,-136.86 1338.88,-136.86 1338.88,-104.86 1451.62,-104.86 1451.62,-136.86"/>
<text text-anchor="start" x="1346.88" y="-123.36" font-family="Helvetica,sans-Serif" font-size="10.00">Cpl::Dm::Mp::Numeric</text>
<text text-anchor="middle" x="1395.25" y="-111.36" font-family="Helvetica,sans-Serif" font-size="10.00">&lt; float, Float &gt;</text>
</a>
</g>
</g>
<!-- Node7&#45;&gt;Node20 -->
<g id="edge20_Node000020_Node000007" class="edge">
<title>Node7&#45;&gt;Node20</title>
<g id="a_edge20_Node000020_Node000007"><a xlink:title=" ">
<path fill="none" stroke="#63b8ff" d="M917.06,-169.19C934.19,-162.44 955.48,-155.02 975.25,-150.86 1103.34,-123.86 1257.8,-119.97 1338.68,-120.06"/>
<polygon fill="#63b8ff" stroke="#63b8ff" points="915.82,-165.92 907.87,-172.92 918.45,-172.41 915.82,-165.92"/>
</a>
</g>
</g>
<!-- Node21 -->
<g id="Node000021" class="node">
<title>Node21</title>
<g id="a_Node000021"><a xlink:href="class_cpl_1_1_dm_1_1_mp_1_1_numeric.html" target="_top" xlink:title="This template class provides a mostly concrete implementation for a Model Point who&#39;s data is a C num...">
<polygon fill="white" stroke="#666666" points="1166.75,-98.86 1033.75,-98.86 1033.75,-66.86 1166.75,-66.86 1166.75,-98.86"/>
<text text-anchor="start" x="1041.75" y="-85.36" font-family="Helvetica,sans-Serif" font-size="10.00">Cpl::Dm::Mp::Numeric</text>
<text text-anchor="middle" x="1100.25" y="-73.36" font-family="Helvetica,sans-Serif" font-size="10.00">&lt; ELEMTYPE, MPTYPE &gt;</text>
</a>
</g>
</g>
<!-- Node7&#45;&gt;Node21 -->
<g id="edge22_Node000021_Node000007" class="edge">
<title>Node7&#45;&gt;Node21</title>
<g id="a_edge22_Node000021_Node000007"><a xlink:title=" ">
<path fill="none" stroke="#63b8ff" d="M901.66,-165.74C919.21,-149.56 947.03,-126.38 975.25,-112.86 993.33,-104.19 1014.12,-97.9 1033.45,-93.4"/>
<polygon fill="#63b8ff" stroke="#63b8ff" points="899.43,-163.02 894.56,-172.43 904.24,-168.11 899.43,-163.02"/>
</a>
</g>
</g>
<!-- Node22 -->
<g id="Node000022" class="node">
<title>Node22</title>
<g id="a_Node000022"><a xlink:href="class_storm_1_1_dm_1_1_mp_virtual_outputs.html" target="_top" xlink:title="This class provides a concrete implementation for the virtual outputs for the system.">
<polygon fill="white" stroke="#666666" points="1722.25,-288.86 1577.25,-288.86 1577.25,-268.86 1722.25,-268.86 1722.25,-288.86"/>
<text text-anchor="middle" x="1649.75" y="-275.36" font-family="Helvetica,sans-Serif" font-size="10.00">Storm::Dm::MpVirtualOutputs</text>
</a>
</g>
</g>
<!-- Node7&#45;&gt;Node22 -->
<g id="edge24_Node000022_Node000007" class="edge">
<title>Node7&#45;&gt;Node22</title>
<g id="a_edge24_Node000022_Node000007"><a xlink:title=" ">
<path fill="none" stroke="#63b8ff" d="M968.83,-188.79C1126.81,-197.98 1450.14,-217.17 1474.5,-221.86 1529.04,-232.36 1590.19,-255.03 1623.6,-268.4"/>
<polygon fill="#63b8ff" stroke="#63b8ff" points="969.44,-185.32 959.26,-188.24 969.04,-192.31 969.44,-185.32"/>
</a>
</g>
</g>
<!-- Node24 -->
<g id="Node000024" class="node">
<title>Node24</title>
<g id="a_Node000024"><a xlink:href="class_storm_1_1_dm_1_1_mp_equipment_begin_times.html" target="_top" xlink:title="This class provides a concrete implementation for Model Point with a type of Storm::Type::EquipmentTi...">
<polygon fill="white" stroke="#666666" points="1726.75,-213.86 1572.75,-213.86 1572.75,-181.86 1726.75,-181.86 1726.75,-213.86"/>
<text text-anchor="start" x="1580.75" y="-200.36" font-family="Helvetica,sans-Serif" font-size="10.00">Storm::Dm::MpEquipmentBegin</text>
<text text-anchor="middle" x="1649.75" y="-188.36" font-family="Helvetica,sans-Serif" font-size="10.00">Times</text>
</a>
</g>
</g>
<!-- Node7&#45;&gt;Node24 -->
<g id="edge27_Node000024_Node000007" class="edge">
<title>Node7&#45;&gt;Node24</title>
<g id="a_edge27_Node000024_Node000007"><a xlink:title=" ">
<path fill="none" stroke="#63b8ff" d="M968.88,-183.42C1083.94,-183.11 1294.67,-183.46 1474.5,-188.86 1506.6,-189.82 1541.99,-191.53 1572.44,-193.2"/>
<polygon fill="#63b8ff" stroke="#63b8ff" points="968.87,-179.92 958.88,-183.45 968.89,-186.92 968.87,-179.92"/>
</a>
</g>
</g>
<!-- Node26 -->
<g id="Node000026" class="node">
<title>Node26</title>
<g id="a_Node000026"><a xlink:href="class_cpl_1_1_dm_1_1_mp_1_1_bool.html" target="_top" xlink:title="This class provides a concrete implementation for a Point who&#39;s data is a bool.">
<polygon fill="white" stroke="#666666" points="1697.88,-472.86 1601.62,-472.86 1601.62,-452.86 1697.88,-452.86 1697.88,-472.86"/>
<text text-anchor="middle" x="1649.75" y="-459.36" font-family="Helvetica,sans-Serif" font-size="10.00">Cpl::Dm::Mp::Bool</text>
</a>
</g>
</g>
<!-- Node7&#45;&gt;Node26 -->
<g id="edge31_Node000026_Node000007" class="edge">
<title>Node7&#45;&gt;Node26</title>
<g id="a_edge31_Node000026_Node000007"><a xlink:title=" ">
<path fill="none" stroke="#63b8ff" d="M887.41,-205.41C899.12,-257.81 937.12,-391.43 1028.5,-443.86 1077.68,-472.07 1465.34,-466.73 1601.59,-463.94"/>
<polygon fill="#63b8ff" stroke="#63b8ff" points="890.84,-204.73 885.34,-195.68 883.99,-206.18 890.84,-204.73"/>
</a>
</g>
</g>
<!-- Node27 -->
<g id="Node000027" class="node">
<title>Node27</title>
<g id="a_Node000027"><a xlink:href="class_storm_1_1_dm_1_1_mp_cycle_info.html" target="_top" xlink:title="This class provides a concrete implementation for Model Point with a type of Storm::Type::CycleInfo_T...">
<polygon fill="white" stroke="#666666" points="1711,-407.86 1588.5,-407.86 1588.5,-387.86 1711,-387.86 1711,-407.86"/>
<text text-anchor="middle" x="1649.75" y="-394.36" font-family="Helvetica,sans-Serif" font-size="10.00">Storm::Dm::MpCycleInfo</text>
</a>
</g>
</g>
<!-- Node7&#45;&gt;Node27 -->
<g id="edge33_Node000027_Node000007" class="edge">
<title>Node7&#45;&gt;Node27</title>
<g id="a_edge33_Node000027_Node000007"><a xlink:title=" ">
<path fill="none" stroke="#63b8ff" d="M903.83,-201.51C950.86,-240.36 1070.95,-332.52 1190,-366.86 1263.06,-387.93 1481.41,-394.81 1588.37,-396.95"/>
<polygon fill="#63b8ff" stroke="#63b8ff" points="906.25,-198.98 896.33,-195.25 901.76,-204.35 906.25,-198.98"/>
</a>
</g>
</g>
<!-- Node29 -->
<g id="Node000029" class="node">
<title>Node29</title>
<g id="a_Node000029"><a xlink:href="class_storm_1_1_dm_1_1_mp_white_box.html" target="_top" xlink:title="This class provides a concrete implementation for a Point who&#39;s data is a collection of variables use...">
<polygon fill="white" stroke="#666666" points="1163,-270.86 1037.5,-270.86 1037.5,-250.86 1163,-250.86 1163,-270.86"/>
<text text-anchor="middle" x="1100.25" y="-257.36" font-family="Helvetica,sans-Serif" font-size="10.00">Storm::Dm::MpWhiteBox</text>
</a>
</g>
</g>
<!-- Node7&#45;&gt;Node29 -->
<g id="edge37_Node000029_Node000007" class="edge">
<title>Node7&#45;&gt;Node29</title>
<g id="a_edge37_Node000029_Node000007"><a xlink:title=" ">
<path fill="none" stroke="#63b8ff" d="M922.91,-198.14C939.14,-203.95 958.09,-210.74 975.25,-216.86 1007.52,-228.36 1044.55,-241.49 1069.68,-250.39"/>
<polygon fill="#63b8ff" stroke="#63b8ff" points="924.18,-194.88 913.59,-194.79 921.82,-201.46 924.18,-194.88"/>
</a>
</g>
</g>
<!-- Node8 -->
<g id="Node000008" class="node">
<title>Node8</title>
<g id="a_Node000008"><a xlink:href="class_cpl_1_1_dm_1_1_model_point.html" target="_top" xlink:title="This mostly abstract class defines the interface for a Model Point.">
<polygon fill="white" stroke="#666666" points="672,-136.86 566,-136.86 566,-116.86 672,-116.86 672,-136.86"/>
<text text-anchor="middle" x="619" y="-123.36" font-family="Helvetica,sans-Serif" font-size="10.00">Cpl::Dm::ModelPoint</text>
</a>
</g>
</g>
<!-- Node8&#45;&gt;Node7 -->
<g id="edge7_Node000007_Node000008" class="edge">
<title>Node8&#45;&gt;Node7</title>
<g id="a_edge7_Node000007_Node000008"><a xlink:title=" ">
<path fill="none" stroke="#63b8ff" d="M679.03,-139.74C725.57,-149.9 789.66,-163.89 833.09,-173.37"/>
<polygon fill="#63b8ff" stroke="#63b8ff" points="679.89,-136.35 669.37,-137.63 678.4,-143.19 679.89,-136.35"/>
</a>
</g>
</g>
<!-- Node9 -->
<g id="Node000009" class="node">
<title>Node9</title>
<g id="a_Node000009"><a xlink:href="class_cpl_1_1_container_1_1_item.html" target="_top" xlink:title="This class is used by the Container classes to implement a various types of singly linked containers.">
<polygon fill="white" stroke="#666666" points="373.62,-117.86 271.38,-117.86 271.38,-97.86 373.62,-97.86 373.62,-117.86"/>
<text text-anchor="middle" x="322.5" y="-104.36" font-family="Helvetica,sans-Serif" font-size="10.00">Cpl::Container::Item</text>
</a>
</g>
</g>
<!-- Node9&#45;&gt;Node8 -->
<g id="edge8_Node000008_Node000009" class="edge">
<title>Node9&#45;&gt;Node8</title>
<g id="a_edge8_Node000008_Node000009"><a xlink:title=" ">
<path fill="none" stroke="#63b8ff" d="M385.19,-111.84C438.74,-115.29 515.42,-120.24 565.93,-123.5"/>
<polygon fill="#63b8ff" stroke="#63b8ff" points="385.51,-108.35 375.3,-111.2 385.06,-115.34 385.51,-108.35"/>
</a>
</g>
</g>
<!-- Node10 -->
<g id="Node000010" class="node">
<title>Node10</title>
<g id="a_Node000010"><a xlink:href="class_cpl_1_1_container_1_1_d_list.html" target="_top" xlink:title=" ">
<polygon fill="white" stroke="#666666" points="687,-278.86 551,-278.86 551,-246.86 687,-246.86 687,-278.86"/>
<text text-anchor="start" x="559" y="-265.36" font-family="Helvetica,sans-Serif" font-size="10.00">Cpl::Container::DList</text>
<text text-anchor="middle" x="619" y="-253.36" font-family="Helvetica,sans-Serif" font-size="10.00">&lt; Cpl::Dm::SubscriberApi &gt;</text>
</a>
</g>
</g>
<!-- Node10&#45;&gt;Node7 -->
<g id="edge9_Node000007_Node000010" class="edge">
<title>Node10&#45;&gt;Node7</title>
<g id="a_edge9_Node000007_Node000010"><a xlink:title=" ">
<path fill="none" stroke="#9a32cd" stroke-dasharray="5,2" d="M685.39,-243.08C736.6,-227.58 805.8,-206.65 846.72,-194.27"/>
<polygon fill="#9a32cd" stroke="#9a32cd" points="684.43,-239.71 675.87,-245.95 686.46,-246.41 684.43,-239.71"/>
</a>
</g>
<text text-anchor="middle" x="747" y="-238.36" font-family="Helvetica,sans-Serif" font-size="10.00" fill="grey"> m_subscribers</text>
</g>
<!-- Node11 -->
<g id="Node000011" class="node">
<title>Node11</title>
<g id="a_Node000011"><a xlink:href="class_cpl_1_1_container_1_1_d_list.html" target="_top" xlink:title="This template class implements a Doubly linked list which maintains the ordering imposed on it by the...">
<polygon fill="white" stroke="#666666" points="375.5,-293.86 269.5,-293.86 269.5,-261.86 375.5,-261.86 375.5,-293.86"/>
<text text-anchor="start" x="277.5" y="-280.36" font-family="Helvetica,sans-Serif" font-size="10.00">Cpl::Container::DList</text>
<text text-anchor="middle" x="322.5" y="-268.36" font-family="Helvetica,sans-Serif" font-size="10.00">&lt; ITEM &gt;</text>
</a>
</g>
</g>
<!-- Node11&#45;&gt;Node10 -->
<g id="edge10_Node000010_Node000011" class="edge">
<title>Node11&#45;&gt;Node10</title>
<g id="a_edge10_Node000010_Node000011"><a xlink:title=" ">
<path fill="none" stroke="orange" stroke-dasharray="5,2" d="M387.05,-274.62C435.29,-272.16 501.48,-268.79 550.64,-266.29"/>
<polygon fill="orange" stroke="orange" points="387.13,-271.11 377.32,-275.12 387.49,-278.1 387.13,-271.11"/>
</a>
</g>
<text text-anchor="middle" x="471.5" y="-275.36" font-family="Helvetica,sans-Serif" font-size="10.00" fill="grey"> &lt; Cpl::Dm::SubscriberApi &gt;</text>
</g>
<!-- Node12 -->
<g id="Node000012" class="node">
<title>Node12</title>
<g id="a_Node000012"><a xlink:href="class_cpl_1_1_dm_1_1_model_database.html" target="_top" xlink:title="This concrete class implements a simple Model Database.">
<polygon fill="white" stroke="#666666" points="681.38,-193.86 556.62,-193.86 556.62,-173.86 681.38,-173.86 681.38,-193.86"/>
<text text-anchor="middle" x="619" y="-180.36" font-family="Helvetica,sans-Serif" font-size="10.00">Cpl::Dm::ModelDatabase</text>
</a>
</g>
</g>
<!-- Node12&#45;&gt;Node7 -->
<g id="edge11_Node000007_Node000012" class="edge">
<title>Node12&#45;&gt;Node7</title>
<g id="a_edge11_Node000007_Node000012"><a xlink:title=" ">
<path fill="none" stroke="#9a32cd" stroke-dasharray="5,2" d="M692.84,-183.86C728.43,-183.86 771.2,-183.86 806.97,-183.86"/>
<polygon fill="#9a32cd" stroke="#9a32cd" points="693.07,-180.36 683.07,-183.86 693.07,-187.36 693.07,-180.36"/>
</a>
</g>
<text text-anchor="middle" x="747" y="-186.36" font-family="Helvetica,sans-Serif" font-size="10.00" fill="grey"> m_modelDatabase</text>
</g>
<!-- Node13 -->
<g id="Node000013" class="node">
<title>Node13</title>
<g id="a_Node000013"><a xlink:href="class_cpl_1_1_dm_1_1_model_database_api.html" target="_top" xlink:title="This class defines the basic operations that can be performed on a Model Base.">
<polygon fill="white" stroke="#666666" points="392,-155.86 253,-155.86 253,-135.86 392,-135.86 392,-155.86"/>
<text text-anchor="middle" x="322.5" y="-142.36" font-family="Helvetica,sans-Serif" font-size="10.00">Cpl::Dm::ModelDatabaseApi</text>
</a>
</g>
</g>
<!-- Node13&#45;&gt;Node12 -->
<g id="edge12_Node000012_Node000013" class="edge">
<title>Node13&#45;&gt;Node12</title>
<g id="a_edge12_Node000012_Node000013"><a xlink:title=" ">
<path fill="none" stroke="#63b8ff" d="M403.49,-156.18C451.57,-162.38 511.84,-170.16 556.24,-175.89"/>
<polygon fill="#63b8ff" stroke="#63b8ff" points="404.04,-152.72 393.68,-154.91 403.15,-159.66 404.04,-152.72"/>
</a>
</g>
</g>
<!-- Node14 -->
<g id="Node000014" class="node">
<title>Node14</title>
<g id="a_Node000014"><a xlink:href="class_cpl_1_1_container_1_1_s_list.html" target="_top" xlink:title=" ">
<polygon fill="white" stroke="#666666" points="384.5,-243.86 260.5,-243.86 260.5,-211.86 384.5,-211.86 384.5,-243.86"/>
<text text-anchor="start" x="268.5" y="-230.36" font-family="Helvetica,sans-Serif" font-size="10.00">Cpl::Container::SList</text>
<text text-anchor="middle" x="322.5" y="-218.36" font-family="Helvetica,sans-Serif" font-size="10.00">&lt; Cpl::Dm::ModelPoint &gt;</text>
</a>
</g>
</g>
<!-- Node14&#45;&gt;Node12 -->
<g id="edge13_Node000012_Node000014" class="edge">
<title>Node14&#45;&gt;Node12</title>
<g id="a_edge13_Node000012_Node000014"><a xlink:title=" ">
<path fill="none" stroke="#9a32cd" stroke-dasharray="5,2" d="M395.95,-219.14C436.36,-214.03 487.56,-207.16 533,-199.86 543.38,-198.19 554.44,-196.24 565.03,-194.28"/>
<polygon fill="#9a32cd" stroke="#9a32cd" points="395.58,-215.66 386.09,-220.37 396.45,-222.6 395.58,-215.66"/>
</a>
</g>
<text text-anchor="middle" x="471.5" y="-219.36" font-family="Helvetica,sans-Serif" font-size="10.00" fill="grey"> m_list</text>
</g>
<!-- Node15 -->
<g id="Node000015" class="node">
<title>Node15</title>
<g id="a_Node000015"><a xlink:href="class_cpl_1_1_container_1_1_s_list.html" target="_top" xlink:title="This template class implements a singly linked list which maintains the ordering imposed on it by the...">
<polygon fill="white" stroke="#666666" points="106,-243.86 0,-243.86 0,-211.86 106,-211.86 106,-243.86"/>
<text text-anchor="start" x="8" y="-230.36" font-family="Helvetica,sans-Serif" font-size="10.00">Cpl::Container::SList</text>
<text text-anchor="middle" x="53" y="-218.36" font-family="Helvetica,sans-Serif" font-size="10.00">&lt; ITEM &gt;</text>
</a>
</g>
</g>
<!-- Node15&#45;&gt;Node14 -->
<g id="edge14_Node000014_Node000015" class="edge">
<title>Node15&#45;&gt;Node14</title>
<g id="a_edge14_Node000014_Node000015"><a xlink:title=" ">
<path fill="none" stroke="orange" stroke-dasharray="5,2" d="M117.7,-227.86C160.8,-227.86 217.42,-227.86 260.04,-227.86"/>
<polygon fill="orange" stroke="orange" points="117.73,-224.36 107.73,-227.86 117.73,-231.36 117.73,-224.36"/>
</a>
</g>
<text text-anchor="middle" x="179.5" y="-230.36" font-family="Helvetica,sans-Serif" font-size="10.00" fill="grey"> &lt; Cpl::Dm::ModelPoint &gt;</text>
</g>
<!-- Node16 -->
<g id="Node000016" class="node">
<title>Node16</title>
<g id="a_Node000016"><a xlink:href="class_cpl_1_1_system_1_1_mutex.html" target="_top" xlink:title="This mutex class defines the interface for a mutex that has &quot;recursive&quot; semantics.">
<polygon fill="white" stroke="#666666" points="374,-193.86 271,-193.86 271,-173.86 374,-173.86 374,-193.86"/>
<text text-anchor="middle" x="322.5" y="-180.36" font-family="Helvetica,sans-Serif" font-size="10.00">Cpl::System::Mutex</text>
</a>
</g>
</g>
<!-- Node16&#45;&gt;Node12 -->
<g id="edge15_Node000012_Node000016" class="edge">
<title>Node16&#45;&gt;Node12</title>
<g id="a_edge15_Node000012_Node000016"><a xlink:title=" ">
<path fill="none" stroke="#9a32cd" stroke-dasharray="5,2" d="M385.8,-183.86C435.97,-183.86 506.14,-183.86 556.18,-183.86"/>
<polygon fill="#9a32cd" stroke="#9a32cd" points="385.98,-180.36 375.98,-183.86 385.98,-187.36 385.98,-180.36"/>
</a>
</g>
<text text-anchor="middle" x="471.5" y="-186.36" font-family="Helvetica,sans-Serif" font-size="10.00" fill="grey"> m_lock</text>
</g>
<!-- Node17 -->
<g id="Node000017" class="node">
<title>Node17</title>
<g id="a_Node000017"><a xlink:href="namespace_storm_1_1_type.html#struct_storm_1_1_type_1_1_system_config___t" target="_top" xlink:title="The following typedef contains system attributes, parameters, bounds, etc.">
<polygon fill="white" stroke="#666666" points="955.38,-48.86 808.88,-48.86 808.88,-28.86 955.38,-28.86 955.38,-48.86"/>
<text text-anchor="middle" x="882.12" y="-35.36" font-family="Helvetica,sans-Serif" font-size="10.00">Storm::Type::SystemConfig_T</text>
</a>
</g>
</g>
<!-- Node17&#45;&gt;Node6 -->
<g id="edge16_Node000006_Node000017" class="edge">
<title>Node17&#45;&gt;Node6</title>
<g id="a_edge16_Node000006_Node000017"><a xlink:title=" ">
<path fill="none" stroke="#9a32cd" stroke-dasharray="5,2" d="M967.12,-38.86C987.35,-38.86 1008.77,-38.86 1028.34,-38.86"/>
<polygon fill="#9a32cd" stroke="#9a32cd" points="967.21,-35.36 957.21,-38.86 967.21,-42.36 967.21,-35.36"/>
</a>
</g>
<text text-anchor="middle" x="992.88" y="-41.36" font-family="Helvetica,sans-Serif" font-size="10.00" fill="grey"> m_data</text>
</g>
<!-- Node18 -->
<g id="Node000018" class="node">
<title>Node18</title>
<g id="a_Node000018"><a xlink:href="namespace_storm_1_1_type.html#struct_storm_1_1_type_1_1_stage___t" target="_top" xlink:title="The following typedef information per stage.">
<polygon fill="white" stroke="#666666" points="674.62,-48.86 563.38,-48.86 563.38,-28.86 674.62,-28.86 674.62,-48.86"/>
<text text-anchor="middle" x="619" y="-35.36" font-family="Helvetica,sans-Serif" font-size="10.00">Storm::Type::Stage_T</text>
</a>
</g>
</g>
<!-- Node18&#45;&gt;Node17 -->
<g id="edge17_Node000017_Node000018" class="edge">
<title>Node18&#45;&gt;Node17</title>
<g id="a_edge17_Node000017_Node000018"><a xlink:title=" ">
<path fill="none" stroke="#9a32cd" stroke-dasharray="5,2" d="M686.34,-38.86C723.72,-38.86 770.46,-38.86 808.78,-38.86"/>
<polygon fill="#9a32cd" stroke="#9a32cd" points="686.57,-35.36 676.57,-38.86 686.57,-42.36 686.57,-35.36"/>
</a>
</g>
<text text-anchor="middle" x="747" y="-41.36" font-family="Helvetica,sans-Serif" font-size="10.00" fill="grey"> stages</text>
</g>
<!-- Node19 -->
<g id="Node000019" class="node">
<title>Node19</title>
<g id="a_Node000019"><a xlink:href="class_cpl_1_1_dm_1_1_mp_1_1_float.html" target="_top" xlink:title="This class provides a concrete implementation for a Point who&#39;s data is a float.">
<polygon fill="white" stroke="#666666" points="1699,-151.86 1600.5,-151.86 1600.5,-131.86 1699,-131.86 1699,-151.86"/>
<text text-anchor="middle" x="1649.75" y="-138.36" font-family="Helvetica,sans-Serif" font-size="10.00">Cpl::Dm::Mp::Float</text>
</a>
</g>
</g>
<!-- Node19&#45;&gt;Node5 -->
<g id="edge18_Node000005_Node000019" class="edge">
<title>Node19&#45;&gt;Node5</title>
<g id="a_edge18_Node000005_Node000019"><a xlink:title=" ">
<path fill="none" stroke="#9a32cd" stroke-dasharray="5,2" d="M1710.53,-142.95C1755.07,-147.05 1814.11,-159.99 1849.75,-197.86 1875.62,-225.35 1843.1,-252.27 1867.75,-280.86 1870.56,-284.12 1873.84,-286.95 1877.41,-289.42"/>
<polygon fill="#9a32cd" stroke="#9a32cd" points="1711.01,-139.47 1700.77,-142.18 1710.46,-146.45 1711.01,-139.47"/>
</a>
</g>
<text text-anchor="middle" x="1797.25" y="-200.36" font-family="Helvetica,sans-Serif" font-size="10.00" fill="grey"> pvOut</text>
</g>
<!-- Node20&#45;&gt;Node19 -->
<g id="edge19_Node000019_Node000020" class="edge">
<title>Node20&#45;&gt;Node19</title>
<g id="a_edge19_Node000019_Node000020"><a xlink:title=" ">
<path fill="none" stroke="#63b8ff" d="M1463.24,-126.43C1506.39,-130.02 1561.5,-134.6 1600.4,-137.84"/>
<polygon fill="#63b8ff" stroke="#63b8ff" points="1463.74,-122.96 1453.48,-125.62 1463.16,-129.93 1463.74,-122.96"/>
</a>
</g>
</g>
<!-- Node21&#45;&gt;Node20 -->
<g id="edge21_Node000020_Node000021" class="edge">
<title>Node21&#45;&gt;Node20</title>
<g id="a_edge21_Node000020_Node000021"><a xlink:title=" ">
<path fill="none" stroke="orange" stroke-dasharray="5,2" d="M1178.11,-87.85C1214.56,-90.74 1258.65,-94.99 1298,-100.86 1311.17,-102.82 1325.25,-105.44 1338.46,-108.14"/>
<polygon fill="orange" stroke="orange" points="1178.81,-84.4 1168.57,-87.12 1178.27,-91.38 1178.81,-84.4"/>
</a>
</g>
<text text-anchor="middle" x="1244" y="-103.36" font-family="Helvetica,sans-Serif" font-size="10.00" fill="grey"> &lt; float, Float &gt;</text>
</g>
<!-- Node22&#45;&gt;Node5 -->
<g id="edge23_Node000005_Node000022" class="edge">
<title>Node22&#45;&gt;Node5</title>
<g id="a_edge23_Node000005_Node000022"><a xlink:title=" ">
<path fill="none" stroke="#9a32cd" stroke-dasharray="5,2" d="M1733.92,-273.85C1769.75,-273.09 1812,-274.07 1849.75,-279.86 1862.91,-281.88 1876.86,-285.53 1889.54,-289.46"/>
<polygon fill="#9a32cd" stroke="#9a32cd" points="1733.95,-270.35 1724.04,-274.11 1734.13,-277.35 1733.95,-270.35"/>
</a>
</g>
<text text-anchor="middle" x="1797.25" y="-282.36" font-family="Helvetica,sans-Serif" font-size="10.00" fill="grey"> vOutputs</text>
</g>
<!-- Node31 -->
<g id="Node000031" class="node">
<title>Node31</title>
<g id="a_Node000031"><a xlink:href="class_storm_1_1_component_1_1_control.html#struct_storm_1_1_component_1_1_control_1_1_output___t" target="_top" xlink:title="Output Model Points.">
<polygon fill="white" stroke="#666666" points="2002.25,-421.86 1867.75,-421.86 1867.75,-389.86 2002.25,-389.86 2002.25,-421.86"/>
<text text-anchor="start" x="1875.75" y="-408.36" font-family="Helvetica,sans-Serif" font-size="10.00">Storm::Component::Control</text>
<text text-anchor="middle" x="1935" y="-396.36" font-family="Helvetica,sans-Serif" font-size="10.00">::Output_T</text>
</a>
</g>
</g>
<!-- Node22&#45;&gt;Node31 -->
<g id="edge40_Node000031_Node000022" class="edge">
<title>Node22&#45;&gt;Node31</title>
<g id="a_edge40_Node000031_Node000022"><a xlink:title=" ">
<path fill="none" stroke="#9a32cd" stroke-dasharray="5,2" d="M1719.97,-291.82C1759.48,-300.96 1809.09,-315.44 1849.75,-336.86 1876.18,-350.78 1902.08,-373.8 1918.03,-389.39"/>
<polygon fill="#9a32cd" stroke="#9a32cd" points="1720.84,-288.43 1710.32,-289.66 1719.31,-295.26 1720.84,-288.43"/>
</a>
</g>
<text text-anchor="middle" x="1797.25" y="-339.36" font-family="Helvetica,sans-Serif" font-size="10.00" fill="grey"> vOutputs</text>
</g>
<!-- Node23 -->
<g id="Node000023" class="node">
<title>Node23</title>
<g id="a_Node000023"><a xlink:href="namespace_storm_1_1_type.html#struct_storm_1_1_type_1_1_virtual_outputs___t" target="_top" xlink:title="The following typedef is used to hold the virtual outputs for System.">
<polygon fill="white" stroke="#666666" points="1469.25,-288.86 1321.25,-288.86 1321.25,-268.86 1469.25,-268.86 1469.25,-288.86"/>
<text text-anchor="middle" x="1395.25" y="-275.36" font-family="Helvetica,sans-Serif" font-size="10.00">Storm::Type::VirtualOutputs_T</text>
</a>
</g>
</g>
<!-- Node23&#45;&gt;Node22 -->
<g id="edge25_Node000022_Node000023" class="edge">
<title>Node23&#45;&gt;Node22</title>
<g id="a_edge25_Node000022_Node000023"><a xlink:title=" ">
<path fill="none" stroke="#9a32cd" stroke-dasharray="5,2" d="M1480.91,-278.86C1512.07,-278.86 1547.02,-278.86 1576.94,-278.86"/>
<polygon fill="#9a32cd" stroke="#9a32cd" points="1481.14,-275.36 1471.14,-278.86 1481.14,-282.36 1481.14,-275.36"/>
</a>
</g>
<text text-anchor="middle" x="1523.62" y="-281.36" font-family="Helvetica,sans-Serif" font-size="10.00" fill="grey"> m_data</text>
</g>
<!-- Node24&#45;&gt;Node5 -->
<g id="edge26_Node000005_Node000024" class="edge">
<title>Node24&#45;&gt;Node5</title>
<g id="a_edge26_Node000005_Node000024"><a xlink:title=" ">
<path fill="none" stroke="#9a32cd" stroke-dasharray="5,2" d="M1737.86,-211.1C1774.77,-219.77 1816.77,-233.91 1849.75,-256.86 1860.7,-264.47 1857.09,-272.85 1867.75,-280.86 1872.08,-284.1 1876.87,-286.97 1881.85,-289.5"/>
<polygon fill="#9a32cd" stroke="#9a32cd" points="1739.09,-207.79 1728.57,-209.02 1737.57,-214.62 1739.09,-207.79"/>
</a>
</g>
<text text-anchor="middle" x="1797.25" y="-259.36" font-family="Helvetica,sans-Serif" font-size="10.00" fill="grey"> equipmentBeginTimes</text>
</g>
<!-- Node25&#45;&gt;Node24 -->
<g id="edge28_Node000024_Node000025" class="edge">
<title>Node25&#45;&gt;Node24</title>
<g id="a_edge28_Node000024_Node000025"><a xlink:title=" ">
<path fill="none" stroke="#9a32cd" stroke-dasharray="5,2" d="M1468.92,-228.48C1501.39,-222.95 1539.67,-216.43 1572.55,-210.83"/>
<polygon fill="#9a32cd" stroke="#9a32cd" points="1468.46,-225.01 1459.19,-230.14 1469.63,-231.91 1468.46,-225.01"/>
</a>
</g>
<text text-anchor="middle" x="1523.62" y="-226.36" font-family="Helvetica,sans-Serif" font-size="10.00" fill="grey"> m_data</text>
</g>
<!-- Node26&#45;&gt;Node5 -->
<g id="edge30_Node000005_Node000026" class="edge">
<title>Node26&#45;&gt;Node5</title>
<g id="a_edge30_Node000005_Node000026"><a xlink:title=" ">
<path fill="none" stroke="#9a32cd" stroke-dasharray="5,2" d="M1677.81,-446.52C1692.33,-437.74 1710.53,-426.72 1726.75,-416.86 1734.76,-411.99 1735.99,-409.19 1744.75,-405.86 1789.07,-388.98 1807.52,-408.44 1849.75,-386.86 1880.29,-371.25 1907.22,-340.95 1922,-322.16"/>
<polygon fill="#9a32cd" stroke="#9a32cd" points="1676.01,-443.51 1669.26,-451.68 1679.63,-449.51 1676.01,-443.51"/>
</a>
</g>
<text text-anchor="middle" x="1797.25" y="-420.36" font-family="Helvetica,sans-Serif" font-size="10.00" fill="grey"> operatingModeChanged</text>
<text text-anchor="middle" x="1797.25" y="-408.36" font-family="Helvetica,sans-Serif" font-size="10.00" fill="grey">systemOn</text>
</g>
<!-- Node26&#45;&gt;Node31 -->
<g id="edge42_Node000031_Node000026" class="edge">
<title>Node26&#45;&gt;Node31</title>
<g id="a_edge42_Node000031_Node000026"><a xlink:title=" ">
<path fill="none" stroke="#9a32cd" stroke-dasharray="5,2" d="M1709.51,-467.84C1749.78,-469.48 1803.98,-468.19 1849.75,-454.86 1872.82,-448.14 1896.22,-433.8 1912.48,-422.36"/>
<polygon fill="#9a32cd" stroke="#9a32cd" points="1709.69,-464.34 1699.53,-467.34 1709.34,-471.33 1709.69,-464.34"/>
</a>
</g>
<text text-anchor="middle" x="1797.25" y="-470.36" font-family="Helvetica,sans-Serif" font-size="10.00" fill="grey"> systemOn</text>
</g>
<!-- Node27&#45;&gt;Node5 -->
<g id="edge32_Node000005_Node000027" class="edge">
<title>Node27&#45;&gt;Node5</title>
<g id="a_edge32_Node000005_Node000027"><a xlink:title=" ">
<path fill="none" stroke="#9a32cd" stroke-dasharray="5,2" d="M1703.38,-384.74C1716.85,-381.45 1731.32,-377.97 1744.75,-374.86 1791.29,-364.07 1805,-368.58 1849.75,-351.86 1870.51,-344.1 1892.44,-331.98 1908.72,-322.14"/>
<polygon fill="#9a32cd" stroke="#9a32cd" points="1702.69,-381.31 1693.81,-387.09 1704.36,-388.1 1702.69,-381.31"/>
</a>
</g>
<text text-anchor="middle" x="1797.25" y="-377.36" font-family="Helvetica,sans-Serif" font-size="10.00" fill="grey"> cycleInfo</text>
</g>
<!-- Node27&#45;&gt;Node31 -->
<g id="edge41_Node000031_Node000027" class="edge">
<title>Node27&#45;&gt;Node31</title>
<g id="a_edge41_Node000031_Node000027"><a xlink:title=" ">
<path fill="none" stroke="#9a32cd" stroke-dasharray="5,2" d="M1681.8,-413.05C1699.73,-420.97 1722.98,-429.83 1744.75,-433.86 1790.64,-442.34 1803.68,-441.31 1849.75,-433.86 1864.36,-431.49 1879.86,-426.96 1893.52,-422.23"/>
<polygon fill="#9a32cd" stroke="#9a32cd" points="1683.31,-409.89 1672.76,-408.92 1680.4,-416.26 1683.31,-409.89"/>
</a>
</g>
<text text-anchor="middle" x="1797.25" y="-441.36" font-family="Helvetica,sans-Serif" font-size="10.00" fill="grey"> cycleInfo</text>
</g>
<!-- Node28&#45;&gt;Node27 -->
<g id="edge34_Node000027_Node000028" class="edge">
<title>Node28&#45;&gt;Node27</title>
<g id="a_edge34_Node000027_Node000028"><a xlink:title=" ">
<path fill="none" stroke="#9a32cd" stroke-dasharray="5,2" d="M1469.75,-412.74C1507.38,-409.61 1552.62,-405.85 1588.21,-402.89"/>
<polygon fill="#9a32cd" stroke="#9a32cd" points="1469.53,-409.25 1459.85,-413.57 1470.11,-416.23 1469.53,-409.25"/>
</a>
</g>
<text text-anchor="middle" x="1523.62" y="-412.36" font-family="Helvetica,sans-Serif" font-size="10.00" fill="grey"> m_data</text>
</g>
<!-- Node29&#45;&gt;Node5 -->
<g id="edge36_Node000005_Node000029" class="edge">
<title>Node29&#45;&gt;Node5</title>
<g id="a_edge36_Node000005_Node000029"><a xlink:title=" ">
<path fill="none" stroke="#9a32cd" stroke-dasharray="5,2" d="M1174.54,-252.27C1213.35,-251.02 1260.58,-254.95 1298,-274.86 1309.46,-280.95 1304.37,-292.1 1316,-297.86 1364.32,-321.79 1717.74,-313.07 1867.37,-308.22"/>
<polygon fill="#9a32cd" stroke="#9a32cd" points="1174.65,-248.76 1164.82,-252.71 1174.97,-255.76 1174.65,-248.76"/>
</a>
</g>
<text text-anchor="middle" x="1523.62" y="-315.36" font-family="Helvetica,sans-Serif" font-size="10.00" fill="grey"> whiteBox</text>
</g>
<!-- Node30 -->
<g id="Node000030" class="node">
<title>Node30</title>
<g id="a_Node000030"><a xlink:href="namespace_storm_1_1_type.html#struct_storm_1_1_type_1_1_white_box___t" target="_top" xlink:title="The following typedef contains variables/settings/flags/etc.">
<polygon fill="white" stroke="#666666" points="946.38,-417.86 817.88,-417.86 817.88,-397.86 946.38,-397.86 946.38,-417.86"/>
<text text-anchor="middle" x="882.12" y="-404.36" font-family="Helvetica,sans-Serif" font-size="10.00">Storm::Type::WhiteBox_T</text>
</a>
</g>
</g>
<!-- Node30&#45;&gt;Node29 -->
<g id="edge38_Node000029_Node000030" class="edge">
<title>Node30&#45;&gt;Node29</title>
<g id="a_edge38_Node000029_Node000030"><a xlink:title=" ">
<path fill="none" stroke="#9a32cd" stroke-dasharray="5,2" d="M907.64,-391.19C952.64,-360.58 1047.19,-296.26 1084.07,-271.18"/>
<polygon fill="#9a32cd" stroke="#9a32cd" points="905.87,-388.15 899.57,-396.67 909.81,-393.94 905.87,-388.15"/>
</a>
</g>
<text text-anchor="middle" x="992.88" y="-345.36" font-family="Helvetica,sans-Serif" font-size="10.00" fill="grey"> m_data</text>
</g>
<!-- Node31&#45;&gt;Node1 -->
<g id="edge39_Node000001_Node000031" class="edge">
<title>Node31&#45;&gt;Node1</title>
<g id="a_edge39_Node000001_Node000031"><a xlink:title=" ">
<path fill="none" stroke="#9a32cd" stroke-dasharray="5,2" d="M2013.84,-397.4C2041.7,-394.37 2072.82,-390.99 2099.62,-388.07"/>
<polygon fill="#9a32cd" stroke="#9a32cd" points="2013.59,-393.9 2004.03,-398.46 2014.35,-400.86 2013.59,-393.9"/>
</a>
</g>
<text text-anchor="middle" x="2051" y="-398.36" font-family="Helvetica,sans-Serif" font-size="10.00" fill="grey"> m_out</text>
</g>
<!-- Node32 -->
<g id="Node000032" class="node">
<title>Node32</title>
<g id="a_Node000032"><a xlink:href="class_storm_1_1_component_1_1_control_1_1_equipment.html" target="_top" xlink:title="This abstract class defines the interface for the Control Component to invoke the control logic/proce...">
<polygon fill="white" stroke="#666666" points="2002.25,-271.86 1867.75,-271.86 1867.75,-239.86 2002.25,-239.86 2002.25,-271.86"/>
<text text-anchor="start" x="1875.75" y="-258.36" font-family="Helvetica,sans-Serif" font-size="10.00">Storm::Component::Control</text>
<text text-anchor="middle" x="1935" y="-246.36" font-family="Helvetica,sans-Serif" font-size="10.00">::Equipment</text>
</a>
</g>
</g>
<!-- Node32&#45;&gt;Node1 -->
<g id="edge43_Node000001_Node000032" class="edge">
<title>Node32&#45;&gt;Node1</title>
<g id="a_edge43_Node000001_Node000032"><a xlink:title=" ">
<path fill="none" stroke="#9a32cd" stroke-dasharray="5,2" d="M1991.79,-276.56C1995.34,-277.99 1998.85,-279.43 2002.25,-280.86 2038.17,-295.97 2048.3,-297.86 2081.75,-317.86 2108.87,-334.07 2137.81,-357.14 2153.73,-370.4"/>
<polygon fill="#9a32cd" stroke="#9a32cd" points="1993.08,-273.31 1982.49,-272.91 1990.51,-279.82 1993.08,-273.31"/>
</a>
</g>
<text text-anchor="middle" x="2051" y="-320.36" font-family="Helvetica,sans-Serif" font-size="10.00" fill="grey"> m_equipment</text>
</g>
</g>
</svg>
