<?xml version="1.0" encoding="UTF-8" standalone="no"?>
<!DOCTYPE svg PUBLIC "-//W3C//DTD SVG 1.1//EN"
 "http://www.w3.org/Graphics/SVG/1.1/DTD/svg11.dtd">
<!-- Generated by graphviz version 10.0.1 (20240210.2158)
 -->
<!-- Title: Cpl::Persistent::GetLatestRequest Pages: 1 -->
<svg width="595pt" height="68pt"
 viewBox="0.00 0.00 594.75 68.00" xmlns="http://www.w3.org/2000/svg" xmlns:xlink="http://www.w3.org/1999/xlink">
<g id="graph0" class="graph" transform="scale(1 1) rotate(0) translate(4 64)">
<title>Cpl::Persistent::GetLatestRequest</title>
<!-- Node1 -->
<g id="Node000001" class="node">
<title>Node1</title>
<g id="a_Node000001"><a xlink:title="This abstract class define ITC message type and payload for the application to request read Indexed E...">
<polygon fill="#999999" stroke="#666666" points="129.25,-54 0,-54 0,-22 129.25,-22 129.25,-54"/>
<text text-anchor="start" x="8" y="-40.5" font-family="Helvetica,sans-Serif" font-size="10.00">Cpl::Persistent::GetLatest</text>
<text text-anchor="middle" x="64.62" y="-28.5" font-family="Helvetica,sans-Serif" font-size="10.00">Request</text>
</a>
</g>
</g>
<!-- Node2 -->
<g id="Node000002" class="node">
<title>Node2</title>
<g id="a_Node000002"><a xlink:href="class_cpl_1_1_persistent_1_1_indexed_entry_server.html" target="_top" xlink:title=" ">
<polygon fill="white" stroke="#666666" points="586.75,-60 457.5,-60 457.5,-16 586.75,-16 586.75,-60"/>
<text text-anchor="start" x="465.5" y="-46.5" font-family="Helvetica,sans-Serif" font-size="10.00">Cpl::Persistent::Indexed</text>
<text text-anchor="start" x="465.5" y="-34.5" font-family="Helvetica,sans-Serif" font-size="10.00">EntryServer&lt; Cpl::Logging</text>
<text text-anchor="middle" x="522.12" y="-22.5" font-family="Helvetica,sans-Serif" font-size="10.00">::EntryData_T &gt;</text>
</a>
</g>
</g>
<!-- Node1&#45;&gt;Node2 -->
<g id="edge1_Node000001_Node000002" class="edge">
<title>Node1&#45;&gt;Node2</title>
<g id="a_edge1_Node000001_Node000002"><a xlink:title=" ">
<path fill="none" stroke="#63b8ff" d="M140.78,-42.7C216.3,-46.7 336.03,-51.06 439.5,-46 445.19,-45.72 451.09,-45.34 457.01,-44.88"/>
<polygon fill="#63b8ff" stroke="#63b8ff" points="141.19,-39.22 131.01,-42.17 140.81,-46.21 141.19,-39.22"/>
</a>
</g>
</g>
<!-- Node3 -->
<g id="Node000003" class="node">
<title>Node3</title>
<g id="a_Node000003"><a xlink:href="class_cpl_1_1_persistent_1_1_indexed_entry_server.html" target="_top" xlink:title="This concrete template class implements the ITC messaging (and Model Point monitoring) needed to prov...">
<polygon fill="white" stroke="#666666" points="286.5,-32 166.25,-32 166.25,0 286.5,0 286.5,-32"/>
<text text-anchor="start" x="174.25" y="-18.5" font-family="Helvetica,sans-Serif" font-size="10.00">Cpl::Persistent::Indexed</text>
<text text-anchor="middle" x="226.38" y="-6.5" font-family="Helvetica,sans-Serif" font-size="10.00">EntryServer&lt; ENTRY &gt;</text>
</a>
</g>
</g>
<!-- Node1&#45;&gt;Node3 -->
<g id="edge2_Node000001_Node000003" class="edge">
<title>Node1&#45;&gt;Node3</title>
<g id="a_edge2_Node000001_Node000003"><a xlink:title=" ">
<path fill="none" stroke="#63b8ff" d="M141.02,-27.62C149.39,-26.46 157.83,-25.3 165.96,-24.18"/>
<polygon fill="#63b8ff" stroke="#63b8ff" points="140.61,-24.14 131.18,-28.97 141.56,-31.07 140.61,-24.14"/>
</a>
</g>
</g>
<!-- Node3&#45;&gt;Node2 -->
<g id="edge3_Node000003_Node000002" class="edge">
<title>Node3&#45;&gt;Node2</title>
<g id="a_edge3_Node000003_Node000002"><a xlink:title=" ">
<path fill="none" stroke="orange" stroke-dasharray="5,2" d="M298.16,-21.3C346.59,-24.93 410.28,-29.7 457.19,-33.21"/>
<polygon fill="orange" stroke="orange" points="298.56,-17.82 288.33,-20.57 298.04,-24.8 298.56,-17.82"/>
</a>
</g>
<text text-anchor="middle" x="372" y="-33.5" font-family="Helvetica,sans-Serif" font-size="10.00" fill="grey"> &lt; Cpl::Logging::EntryData_T &gt;</text>
</g>
</g>
</svg>
