<?xml version="1.0" encoding="UTF-8" standalone="no"?>
<!DOCTYPE svg PUBLIC "-//W3C//DTD SVG 1.1//EN"
 "http://www.w3.org/Graphics/SVG/1.1/DTD/svg11.dtd">
<!-- Generated by graphviz version 2.38.0 (20140413.2041)
 -->
<!-- Title: Cpl::Itc::MailboxServer Pages: 1 -->
<svg width="1305pt" height="310pt"
 viewBox="0.00 0.00 1305.00 310.00" xmlns="http://www.w3.org/2000/svg" xmlns:xlink="http://www.w3.org/1999/xlink">
<g id="graph0" class="graph" transform="scale(1 1) rotate(0) translate(4 306)">
<title>Cpl::Itc::MailboxServer</title>
<polygon fill="white" stroke="none" points="-4,4 -4,-306 1301,-306 1301,4 -4,4"/>
<!-- Node1 -->
<g id="node1" class="node"><title>Node1</title>
<g id="a_node1"><a xlink:title="This class collects the common functions of a generic server providing a mailbox and Event loop.">
<polygon fill="#bfbfbf" stroke="black" points="1181,-175 1181,-194 1297,-194 1297,-175 1181,-175"/>
<text text-anchor="middle" x="1239" y="-182" font-family="Helvetica,sans-Serif" font-size="10.00">Cpl::Itc::MailboxServer</text>
</a>
</g>
</g>
<!-- Node2 -->
<g id="node2" class="node"><title>Node2</title>
<g id="a_node2"><a xlink:href="class_cpl_1_1_itc_1_1_mailbox.html" target="_top" xlink:title="This mailbox class implements an Inter Thread Communications message queue.">
<polygon fill="white" stroke="black" points="1056,-205 1056,-224 1144,-224 1144,-205 1056,-205"/>
<text text-anchor="middle" x="1100" y="-212" font-family="Helvetica,sans-Serif" font-size="10.00">Cpl::Itc::Mailbox</text>
</a>
</g>
</g>
<!-- Node2&#45;&gt;Node1 -->
<g id="edge1" class="edge"><title>Node2&#45;&gt;Node1</title>
<path fill="none" stroke="midnightblue" d="M1154.32,-202.824C1167.61,-199.913 1181.71,-196.827 1194.46,-194.033"/>
<polygon fill="midnightblue" stroke="midnightblue" points="1153.37,-199.45 1144.35,-205.008 1154.86,-206.288 1153.37,-199.45"/>
</g>
<!-- Node3 -->
<g id="node3" class="node"><title>Node3</title>
<g id="a_node3"><a xlink:href="class_cpl_1_1_itc_1_1_post_api.html" target="_top" xlink:title="This abstract class represents the interface used to send messages to a mailbox.">
<polygon fill="white" stroke="black" points="852,-260 852,-279 941,-279 941,-260 852,-260"/>
<text text-anchor="middle" x="896.5" y="-267" font-family="Helvetica,sans-Serif" font-size="10.00">Cpl::Itc::PostApi</text>
</a>
</g>
</g>
<!-- Node3&#45;&gt;Node2 -->
<g id="edge2" class="edge"><title>Node3&#45;&gt;Node2</title>
<path fill="none" stroke="midnightblue" d="M946.991,-257.475C973.982,-250.753 1007.93,-242.03 1038,-233.5 1048.24,-230.594 1059.38,-227.196 1069.31,-224.083"/>
<polygon fill="midnightblue" stroke="midnightblue" points="945.874,-254.146 937.01,-259.949 947.558,-260.941 945.874,-254.146"/>
</g>
<!-- Node4 -->
<g id="node4" class="node"><title>Node4</title>
<g id="a_node4"><a xlink:href="class_cpl_1_1_container_1_1_s_list.html" target="_top" xlink:title=" ">
<polygon fill="white" stroke="black" points="843,-210.5 843,-240.5 950,-240.5 950,-210.5 843,-210.5"/>
<text text-anchor="start" x="851" y="-228.5" font-family="Helvetica,sans-Serif" font-size="10.00">Cpl::Container::SList</text>
<text text-anchor="middle" x="896.5" y="-217.5" font-family="Helvetica,sans-Serif" font-size="10.00">&lt; Message &gt;</text>
</a>
</g>
</g>
<!-- Node4&#45;&gt;Node2 -->
<g id="edge3" class="edge"><title>Node4&#45;&gt;Node2</title>
<path fill="none" stroke="midnightblue" d="M960.453,-222.063C991.441,-220.372 1028.01,-218.375 1055.79,-216.859"/>
<polygon fill="midnightblue" stroke="midnightblue" points="959.973,-218.584 950.179,-222.624 960.355,-225.574 959.973,-218.584"/>
</g>
<!-- Node5 -->
<g id="node5" class="node"><title>Node5</title>
<g id="a_node5"><a xlink:href="class_cpl_1_1_container_1_1_s_list.html" target="_top" xlink:title="This template class implements a singly linked list which maintains the ordering imposed on it by the...">
<polygon fill="white" stroke="black" points="603,-271.5 603,-301.5 710,-301.5 710,-271.5 603,-271.5"/>
<text text-anchor="start" x="611" y="-289.5" font-family="Helvetica,sans-Serif" font-size="10.00">Cpl::Container::SList</text>
<text text-anchor="middle" x="656.5" y="-278.5" font-family="Helvetica,sans-Serif" font-size="10.00">&lt; ITEM &gt;</text>
</a>
</g>
</g>
<!-- Node5&#45;&gt;Node4 -->
<g id="edge4" class="edge"><title>Node5&#45;&gt;Node4</title>
<path fill="none" stroke="orange" stroke-dasharray="5,2" d="M720.378,-277.509C750.002,-272.555 785.64,-265.552 817,-256.5 825.376,-254.082 842.928,-247.214 859.314,-240.555"/>
<polygon fill="orange" stroke="orange" points="719.473,-274.111 710.168,-279.176 720.601,-281.019 719.473,-274.111"/>
<text text-anchor="middle" x="780.5" y="-275.5" font-family="Helvetica,sans-Serif" font-size="10.00"> &lt; Message &gt;</text>
</g>
<!-- Node6 -->
<g id="node6" class="node"><title>Node6</title>
<g id="a_node6"><a xlink:href="class_cpl_1_1_system_1_1_event_loop.html" target="_top" xlink:title="This concrete class is a Runnable object that provides a event driven execution model for a thread.">
<polygon fill="white" stroke="black" points="835,-157 835,-176 958,-176 958,-157 835,-157"/>
<text text-anchor="middle" x="896.5" y="-164" font-family="Helvetica,sans-Serif" font-size="10.00">Cpl::System::EventLoop</text>
</a>
</g>
</g>
<!-- Node6&#45;&gt;Node1 -->
<g id="edge18" class="edge"><title>Node6&#45;&gt;Node1</title>
<path fill="none" stroke="midnightblue" d="M968.625,-170.26C1031.61,-173.59 1122.37,-178.387 1180.77,-181.475"/>
<polygon fill="midnightblue" stroke="midnightblue" points="968.545,-166.751 958.375,-169.718 968.176,-173.741 968.545,-166.751"/>
</g>
<!-- Node6&#45;&gt;Node2 -->
<g id="edge5" class="edge"><title>Node6&#45;&gt;Node2</title>
<path fill="none" stroke="#9a32cd" stroke-dasharray="5,2" d="M947.619,-178.439C981.924,-186.611 1026.81,-197.303 1058.78,-204.918"/>
<polygon fill="#9a32cd" stroke="#9a32cd" points="948.331,-175.011 937.792,-176.098 946.709,-181.82 948.331,-175.011"/>
<text text-anchor="middle" x="1007" y="-201.5" font-family="Helvetica,sans-Serif" font-size="10.00"> m_eventLoop</text>
</g>
<!-- Node7 -->
<g id="node7" class="node"><title>Node7</title>
<g id="a_node7"><a xlink:href="class_cpl_1_1_system_1_1_runnable.html" target="_top" xlink:title="This is an abstract class defines the interface for an object that is &quot;executed&quot; when a Thread object...">
<polygon fill="white" stroke="black" points="598,-233 598,-252 715,-252 715,-233 598,-233"/>
<text text-anchor="middle" x="656.5" y="-240" font-family="Helvetica,sans-Serif" font-size="10.00">Cpl::System::Runnable</text>
</a>
</g>
</g>
<!-- Node7&#45;&gt;Node6 -->
<g id="edge6" class="edge"><title>Node7&#45;&gt;Node6</title>
<path fill="none" stroke="midnightblue" d="M710.845,-230.591C742.123,-223.08 782.204,-212.539 817,-200.5 837.492,-193.41 860.143,-183.348 875.825,-176.011"/>
<polygon fill="midnightblue" stroke="midnightblue" points="709.94,-227.208 701.017,-232.921 711.554,-234.02 709.94,-227.208"/>
</g>
<!-- Node8 -->
<g id="node8" class="node"><title>Node8</title>
<g id="a_node8"><a xlink:href="class_cpl_1_1_system_1_1_event_flag.html" target="_top" xlink:title="This abstract class defines the interface to generated a &#39;Event Flag&#39;.">
<polygon fill="white" stroke="black" points="596,-195 596,-214 717,-214 717,-195 596,-195"/>
<text text-anchor="middle" x="656.5" y="-202" font-family="Helvetica,sans-Serif" font-size="10.00">Cpl::System::EventFlag</text>
</a>
</g>
</g>
<!-- Node8&#45;&gt;Node6 -->
<g id="edge7" class="edge"><title>Node8&#45;&gt;Node6</title>
<path fill="none" stroke="midnightblue" d="M727.102,-194.446C755.068,-190.297 787.591,-185.334 817,-180.5 825.469,-179.108 834.441,-177.569 843.174,-176.036"/>
<polygon fill="midnightblue" stroke="midnightblue" points="726.4,-191.011 717.019,-195.936 727.423,-197.936 726.4,-191.011"/>
</g>
<!-- Node9 -->
<g id="node9" class="node"><title>Node9</title>
<g id="a_node9"><a xlink:href="class_cpl_1_1_system_1_1_signable.html" target="_top" xlink:title="This abstract class defines the interface by which a client can cause an object that is waiting&#45;on&#45;a&#45;...">
<polygon fill="white" stroke="black" points="329.5,-119 329.5,-138 443.5,-138 443.5,-119 329.5,-119"/>
<text text-anchor="middle" x="386.5" y="-126" font-family="Helvetica,sans-Serif" font-size="10.00">Cpl::System::Signable</text>
</a>
</g>
</g>
<!-- Node9&#45;&gt;Node6 -->
<g id="edge8" class="edge"><title>Node9&#45;&gt;Node6</title>
<path fill="none" stroke="midnightblue" d="M453.57,-138.282C465.669,-139.857 478.2,-141.347 490,-142.5 612.127,-154.437 755.569,-161.234 834.931,-164.364"/>
<polygon fill="midnightblue" stroke="midnightblue" points="453.908,-134.796 443.533,-136.943 452.983,-141.734 453.908,-134.796"/>
</g>
<!-- Node15 -->
<g id="node15" class="node"><title>Node15</title>
<g id="a_node15"><a xlink:href="class_cpl_1_1_system_1_1_semaphore.html" target="_top" xlink:title="This semaphore class defines the interface for a Counting Semaphore.">
<polygon fill="white" stroke="black" points="593.5,-119 593.5,-138 719.5,-138 719.5,-119 593.5,-119"/>
<text text-anchor="middle" x="656.5" y="-126" font-family="Helvetica,sans-Serif" font-size="10.00">Cpl::System::Semaphore</text>
</a>
</g>
</g>
<!-- Node9&#45;&gt;Node15 -->
<g id="edge15" class="edge"><title>Node9&#45;&gt;Node15</title>
<path fill="none" stroke="midnightblue" d="M453.688,-128.5C496.347,-128.5 551.457,-128.5 593.306,-128.5"/>
<polygon fill="midnightblue" stroke="midnightblue" points="453.682,-125 443.682,-128.5 453.682,-132 453.682,-125"/>
</g>
<!-- Node16 -->
<g id="node16" class="node"><title>Node16</title>
<g id="a_node16"><a xlink:href="class_cpl_1_1_system_1_1_thread.html" target="_top" xlink:title="This abstract class defines the operations that can be performed on a thread.">
<polygon fill="white" stroke="black" points="603,-81 603,-100 710,-100 710,-81 603,-81"/>
<text text-anchor="middle" x="656.5" y="-88" font-family="Helvetica,sans-Serif" font-size="10.00">Cpl::System::Thread</text>
</a>
</g>
</g>
<!-- Node9&#45;&gt;Node16 -->
<g id="edge17" class="edge"><title>Node9&#45;&gt;Node16</title>
<path fill="none" stroke="midnightblue" d="M453.83,-119.095C499.705,-112.59 559.928,-104.051 602.583,-98.0031"/>
<polygon fill="midnightblue" stroke="midnightblue" points="453.091,-115.665 443.682,-120.534 454.074,-122.595 453.091,-115.665"/>
</g>
<!-- Node10 -->
<g id="node10" class="node"><title>Node10</title>
<g id="a_node10"><a xlink:href="class_cpl_1_1_container_1_1_item.html" target="_top" xlink:title="This class is used by the Container classes to implement a various types of singly linked containers.">
<polygon fill="white" stroke="black" points="1.5,-119 1.5,-138 105.5,-138 105.5,-119 1.5,-119"/>
<text text-anchor="middle" x="53.5" y="-126" font-family="Helvetica,sans-Serif" font-size="10.00">Cpl::Container::Item</text>
</a>
</g>
</g>
<!-- Node10&#45;&gt;Node9 -->
<g id="edge9" class="edge"><title>Node10&#45;&gt;Node9</title>
<path fill="none" stroke="midnightblue" d="M116.135,-128.5C177.273,-128.5 270.151,-128.5 329.313,-128.5"/>
<polygon fill="midnightblue" stroke="midnightblue" points="115.856,-125 105.856,-128.5 115.856,-132 115.856,-125"/>
</g>
<!-- Node11 -->
<g id="node11" class="node"><title>Node11</title>
<g id="a_node11"><a xlink:href="class_cpl_1_1_system_1_1_timer_manager.html" target="_top" xlink:title="This mostly concrete class implements manages a list of Software Timers.">
<polygon fill="white" stroke="black" points="587,-43 587,-62 726,-62 726,-43 587,-43"/>
<text text-anchor="middle" x="656.5" y="-50" font-family="Helvetica,sans-Serif" font-size="10.00">Cpl::System::TimerManager</text>
</a>
</g>
</g>
<!-- Node11&#45;&gt;Node6 -->
<g id="edge10" class="edge"><title>Node11&#45;&gt;Node6</title>
<path fill="none" stroke="midnightblue" d="M729.046,-64.2476C757.567,-70.8202 789.973,-80.7594 817,-95.5 846.684,-111.69 874.25,-141.285 887.409,-156.652"/>
<polygon fill="midnightblue" stroke="midnightblue" points="729.655,-60.7977 719.135,-62.0609 728.146,-67.6333 729.655,-60.7977"/>
</g>
<!-- Node12 -->
<g id="node12" class="node"><title>Node12</title>
<g id="a_node12"><a xlink:href="class_cpl_1_1_system_1_1_counter_source__.html" target="_top" xlink:title="This abstract class defines the interface for registering for an Counter object with the Timer Manage...">
<polygon fill="white" stroke="black" points="313.5,-50 313.5,-69 459.5,-69 459.5,-50 313.5,-50"/>
<text text-anchor="middle" x="386.5" y="-57" font-family="Helvetica,sans-Serif" font-size="10.00">Cpl::System::CounterSource_</text>
</a>
</g>
</g>
<!-- Node12&#45;&gt;Node11 -->
<g id="edge11" class="edge"><title>Node12&#45;&gt;Node11</title>
<path fill="none" stroke="midnightblue" d="M470.056,-57.3437C507.509,-56.3654 551.283,-55.2221 586.895,-54.2919"/>
<polygon fill="midnightblue" stroke="midnightblue" points="469.577,-53.8549 459.672,-57.6149 469.76,-60.8525 469.577,-53.8549"/>
</g>
<!-- Node13 -->
<g id="node13" class="node"><title>Node13</title>
<g id="a_node13"><a xlink:href="class_cpl_1_1_container_1_1_d_list.html" target="_top" xlink:title=" ">
<polygon fill="white" stroke="black" points="301,-0.5 301,-30.5 472,-30.5 472,-0.5 301,-0.5"/>
<text text-anchor="start" x="309" y="-18.5" font-family="Helvetica,sans-Serif" font-size="10.00">Cpl::Container::DList</text>
<text text-anchor="middle" x="386.5" y="-7.5" font-family="Helvetica,sans-Serif" font-size="10.00">&lt; Cpl::System::CounterCallback_ &gt;</text>
</a>
</g>
</g>
<!-- Node13&#45;&gt;Node11 -->
<g id="edge12" class="edge"><title>Node13&#45;&gt;Node11</title>
<path fill="none" stroke="#9a32cd" stroke-dasharray="5,2" d="M482.565,-19.5451C510.538,-21.6203 541.112,-24.7579 569,-29.5 587.843,-32.7041 608.547,-38.1388 624.975,-42.921"/>
<polygon fill="#9a32cd" stroke="#9a32cd" points="482.608,-16.0395 472.386,-18.8275 482.115,-23.0222 482.608,-16.0395"/>
<text text-anchor="middle" x="529.5" y="-43.5" font-family="Helvetica,sans-Serif" font-size="10.00"> m_pendingAttach</text>
<text text-anchor="middle" x="529.5" y="-32.5" font-family="Helvetica,sans-Serif" font-size="10.00">m_counters</text>
</g>
<!-- Node14 -->
<g id="node14" class="node"><title>Node14</title>
<g id="a_node14"><a xlink:href="class_cpl_1_1_container_1_1_d_list.html" target="_top" xlink:title="This template class implements a Doubly linked list which maintains the ordering imposed on it by the...">
<polygon fill="white" stroke="black" points="0,-0.5 0,-30.5 107,-30.5 107,-0.5 0,-0.5"/>
<text text-anchor="start" x="8" y="-18.5" font-family="Helvetica,sans-Serif" font-size="10.00">Cpl::Container::DList</text>
<text text-anchor="middle" x="53.5" y="-7.5" font-family="Helvetica,sans-Serif" font-size="10.00">&lt; ITEM &gt;</text>
</a>
</g>
</g>
<!-- Node14&#45;&gt;Node13 -->
<g id="edge13" class="edge"><title>Node14&#45;&gt;Node13</title>
<path fill="none" stroke="orange" stroke-dasharray="5,2" d="M117.405,-15.5C169.409,-15.5 243.731,-15.5 300.937,-15.5"/>
<polygon fill="orange" stroke="orange" points="117.314,-12.0001 107.314,-15.5 117.314,-19.0001 117.314,-12.0001"/>
<text text-anchor="middle" x="204" y="-18.5" font-family="Helvetica,sans-Serif" font-size="10.00"> &lt; Cpl::System::CounterCallback_ &gt;</text>
</g>
<!-- Node15&#45;&gt;Node6 -->
<g id="edge14" class="edge"><title>Node15&#45;&gt;Node6</title>
<path fill="none" stroke="#9a32cd" stroke-dasharray="5,2" d="M729.991,-130.928C757.438,-132.755 788.843,-135.944 817,-141.5 835.242,-145.1 855.2,-151.49 870.427,-156.909"/>
<polygon fill="#9a32cd" stroke="#9a32cd" points="729.877,-127.414 719.681,-130.292 729.447,-134.401 729.877,-127.414"/>
<text text-anchor="middle" x="780.5" y="-144.5" font-family="Helvetica,sans-Serif" font-size="10.00"> m_sema</text>
</g>
<!-- Node16&#45;&gt;Node6 -->
<g id="edge16" class="edge"><title>Node16&#45;&gt;Node6</title>
<path fill="none" stroke="#9a32cd" stroke-dasharray="5,2" d="M720.146,-95.3966C750.173,-99.1667 786.216,-105.812 817,-117.5 842.533,-127.194 868.772,-145.621 883.52,-156.908"/>
<polygon fill="#9a32cd" stroke="#9a32cd" points="720.551,-91.9202 710.21,-94.2251 719.731,-98.872 720.551,-91.9202"/>
<text text-anchor="middle" x="780.5" y="-120.5" font-family="Helvetica,sans-Serif" font-size="10.00"> m_myThreadPtr</text>
</g>
</g>
</svg>
