<?xml version="1.0" encoding="UTF-8" standalone="no"?>
<!DOCTYPE svg PUBLIC "-//W3C//DTD SVG 1.1//EN"
 "http://www.w3.org/Graphics/SVG/1.1/DTD/svg11.dtd">
<!-- Generated by graphviz version 10.0.1 (20240210.2158)
 -->
<!-- Title: Cpl::Text::StringItem Pages: 1 -->
<svg width="410pt" height="308pt"
 viewBox="0.00 0.00 410.00 308.00" xmlns="http://www.w3.org/2000/svg" xmlns:xlink="http://www.w3.org/1999/xlink">
<g id="graph0" class="graph" transform="scale(1 1) rotate(0) translate(4 304)">
<title>Cpl::Text::StringItem</title>
<!-- Node1 -->
<g id="Node000001" class="node">
<title>Node1</title>
<g id="a_Node000001"><a xlink:title="This partially concrete provides a wrapper class that allows a String object to be stored directly in...">
<polygon fill="#999999" stroke="#666666" points="244.62,-76 139.38,-76 139.38,-56 244.62,-56 244.62,-76"/>
<text text-anchor="middle" x="192" y="-62.5" font-family="Helvetica,sans-Serif" font-size="10.00">Cpl::Text::StringItem</text>
</a>
</g>
</g>
<!-- Node6 -->
<g id="Node000006" class="node">
<title>Node6</title>
<g id="a_Node000006"><a xlink:href="class_cpl_1_1_text_1_1_d_f_string_item.html" target="_top" xlink:title="This concrete class implements the StringItem class for a &#39;String&#39; using a &#39;DFString&#39; as the internal...">
<polygon fill="white" stroke="#666666" points="118,-20 0,-20 0,0 118,0 118,-20"/>
<text text-anchor="middle" x="59" y="-6.5" font-family="Helvetica,sans-Serif" font-size="10.00">Cpl::Text::DFStringItem</text>
</a>
</g>
</g>
<!-- Node1&#45;&gt;Node6 -->
<g id="edge5_Node000001_Node000006" class="edge">
<title>Node1&#45;&gt;Node6</title>
<g id="a_edge5_Node000001_Node000006"><a xlink:title=" ">
<path fill="none" stroke="#63b8ff" d="M158.19,-51.27C134.46,-41.64 103.35,-29.01 82.35,-20.48"/>
<polygon fill="#63b8ff" stroke="#63b8ff" points="156.85,-54.51 167.43,-55.02 159.48,-48.02 156.85,-54.51"/>
</a>
</g>
</g>
<!-- Node7 -->
<g id="Node000007" class="node">
<title>Node7</title>
<g id="a_Node000007"><a xlink:href="class_cpl_1_1_text_1_1_d_string_item.html" target="_top" xlink:title="This concrete class implements the StringItem class for a &#39;String&#39; using a &#39;DString&#39; as the internal ...">
<polygon fill="white" stroke="#666666" points="248,-20 136,-20 136,0 248,0 248,-20"/>
<text text-anchor="middle" x="192" y="-6.5" font-family="Helvetica,sans-Serif" font-size="10.00">Cpl::Text::DStringItem</text>
</a>
</g>
</g>
<!-- Node1&#45;&gt;Node7 -->
<g id="edge6_Node000001_Node000007" class="edge">
<title>Node1&#45;&gt;Node7</title>
<g id="a_edge6_Node000001_Node000007"><a xlink:title=" ">
<path fill="none" stroke="#63b8ff" d="M192,-44.13C192,-35.9 192,-26.85 192,-20.3"/>
<polygon fill="#63b8ff" stroke="#63b8ff" points="188.5,-44.08 192,-54.08 195.5,-44.08 188.5,-44.08"/>
</a>
</g>
</g>
<!-- Node8 -->
<g id="Node000008" class="node">
<title>Node8</title>
<g id="a_Node000008"><a xlink:href="class_cpl_1_1_text_1_1_f_string_item.html" target="_top" xlink:title="This template class implements the StringItem class for a &#39;String&#39; using a &#39;FString&#39; as the internal ...">
<polygon fill="white" stroke="#666666" points="402,-20 266,-20 266,0 402,0 402,-20"/>
<text text-anchor="middle" x="334" y="-6.5" font-family="Helvetica,sans-Serif" font-size="10.00">Cpl::Text::FStringItem&lt; S &gt;</text>
</a>
</g>
</g>
<!-- Node1&#45;&gt;Node8 -->
<g id="edge7_Node000001_Node000008" class="edge">
<title>Node1&#45;&gt;Node8</title>
<g id="a_edge7_Node000001_Node000008"><a xlink:title=" ">
<path fill="none" stroke="#63b8ff" d="M227.42,-51.53C252.83,-41.87 286.44,-29.08 309.07,-20.48"/>
<polygon fill="#63b8ff" stroke="#63b8ff" points="226.25,-48.23 218.15,-55.06 228.74,-54.77 226.25,-48.23"/>
</a>
</g>
</g>
<!-- Node2 -->
<g id="Node000002" class="node">
<title>Node2</title>
<g id="a_Node000002"><a xlink:href="class_cpl_1_1_container_1_1_map_item.html" target="_top" xlink:title="This abstract class represents a item that can be contained in an Map (aka a sorted list implemented ...">
<polygon fill="white" stroke="#666666" points="252.5,-132 131.5,-132 131.5,-112 252.5,-112 252.5,-132"/>
<text text-anchor="middle" x="192" y="-118.5" font-family="Helvetica,sans-Serif" font-size="10.00">Cpl::Container::MapItem</text>
</a>
</g>
</g>
<!-- Node2&#45;&gt;Node1 -->
<g id="edge1_Node000001_Node000002" class="edge">
<title>Node2&#45;&gt;Node1</title>
<g id="a_edge1_Node000001_Node000002"><a xlink:title=" ">
<path fill="none" stroke="#63b8ff" d="M192,-100.13C192,-91.9 192,-82.85 192,-76.3"/>
<polygon fill="#63b8ff" stroke="#63b8ff" points="188.5,-100.08 192,-110.08 195.5,-100.08 188.5,-100.08"/>
</a>
</g>
</g>
<!-- Node3 -->
<g id="Node000003" class="node">
<title>Node3</title>
<g id="a_Node000003"><a xlink:href="class_cpl_1_1_container_1_1_dict_item.html" target="_top" xlink:title="This abstract class represents a item that can be contained in Dictionary.">
<polygon fill="white" stroke="#666666" points="251.75,-188 132.25,-188 132.25,-168 251.75,-168 251.75,-188"/>
<text text-anchor="middle" x="192" y="-174.5" font-family="Helvetica,sans-Serif" font-size="10.00">Cpl::Container::DictItem</text>
</a>
</g>
</g>
<!-- Node3&#45;&gt;Node2 -->
<g id="edge2_Node000002_Node000003" class="edge">
<title>Node3&#45;&gt;Node2</title>
<g id="a_edge2_Node000002_Node000003"><a xlink:title=" ">
<path fill="none" stroke="#63b8ff" d="M192,-156.13C192,-147.9 192,-138.85 192,-132.3"/>
<polygon fill="#63b8ff" stroke="#63b8ff" points="188.5,-156.08 192,-166.08 195.5,-156.08 188.5,-156.08"/>
</a>
</g>
</g>
<!-- Node4 -->
<g id="Node000004" class="node">
<title>Node4</title>
<g id="a_Node000004"><a xlink:href="class_cpl_1_1_container_1_1_extended_item.html" target="_top" xlink:title="This class is used by the Container classes to implement a various types of DOUBLY linked containers.">
<polygon fill="white" stroke="#666666" points="263.75,-244 120.25,-244 120.25,-224 263.75,-224 263.75,-244"/>
<text text-anchor="middle" x="192" y="-230.5" font-family="Helvetica,sans-Serif" font-size="10.00">Cpl::Container::ExtendedItem</text>
</a>
</g>
</g>
<!-- Node4&#45;&gt;Node3 -->
<g id="edge3_Node000003_Node000004" class="edge">
<title>Node4&#45;&gt;Node3</title>
<g id="a_edge3_Node000003_Node000004"><a xlink:title=" ">
<path fill="none" stroke="#63b8ff" d="M192,-212.13C192,-203.9 192,-194.85 192,-188.3"/>
<polygon fill="#63b8ff" stroke="#63b8ff" points="188.5,-212.08 192,-222.08 195.5,-212.08 188.5,-212.08"/>
</a>
</g>
</g>
<!-- Node5 -->
<g id="Node000005" class="node">
<title>Node5</title>
<g id="a_Node000005"><a xlink:href="class_cpl_1_1_container_1_1_item.html" target="_top" xlink:title="This class is used by the Container classes to implement a various types of singly linked containers.">
<polygon fill="white" stroke="#666666" points="243.12,-300 140.88,-300 140.88,-280 243.12,-280 243.12,-300"/>
<text text-anchor="middle" x="192" y="-286.5" font-family="Helvetica,sans-Serif" font-size="10.00">Cpl::Container::Item</text>
</a>
</g>
</g>
<!-- Node5&#45;&gt;Node4 -->
<g id="edge4_Node000004_Node000005" class="edge">
<title>Node5&#45;&gt;Node4</title>
<g id="a_edge4_Node000004_Node000005"><a xlink:title=" ">
<path fill="none" stroke="#63b8ff" d="M192,-268.13C192,-259.9 192,-250.85 192,-244.3"/>
<polygon fill="#63b8ff" stroke="#63b8ff" points="188.5,-268.08 192,-278.08 195.5,-268.08 188.5,-268.08"/>
</a>
</g>
</g>
</g>
</svg>
