<?xml version="1.0" encoding="UTF-8" standalone="no"?>
<!DOCTYPE svg PUBLIC "-//W3C//DTD SVG 1.1//EN"
 "http://www.w3.org/Graphics/SVG/1.1/DTD/svg11.dtd">
<!-- Generated by graphviz version 10.0.1 (20240210.2158)
 -->
<!-- Title: Cpl::Itc::CloseSync Pages: 1 -->
<svg width="889pt" height="231pt"
 viewBox="0.00 0.00 889.00 230.93" xmlns="http://www.w3.org/2000/svg" xmlns:xlink="http://www.w3.org/1999/xlink">
<g id="graph0" class="graph" transform="scale(1 1) rotate(0) translate(4 226.93)">
<title>Cpl::Itc::CloseSync</title>
<!-- Node1 -->
<g id="Node000001" class="node">
<title>Node1</title>
<g id="a_Node000001"><a xlink:title="This partially concrete class implements the synchronous ITC close call for the CloseApi.">
<polygon fill="#999999" stroke="#666666" points="399.5,-145 299.5,-145 299.5,-125 399.5,-125 399.5,-145"/>
<text text-anchor="middle" x="349.5" y="-131.5" font-family="Helvetica,sans-Serif" font-size="10.00">Cpl::Itc::CloseSync</text>
</a>
</g>
</g>
<!-- Node7 -->
<g id="Node000007" class="node">
<title>Node7</title>
<g id="a_Node000007"><a xlink:href="class_cpl_1_1_persistent_1_1_indexed_entry_server.html" target="_top" xlink:title=" ">
<polygon fill="white" stroke="#666666" points="881,-186 751.75,-186 751.75,-142 881,-142 881,-186"/>
<text text-anchor="start" x="759.75" y="-172.5" font-family="Helvetica,sans-Serif" font-size="10.00">Cpl::Persistent::Indexed</text>
<text text-anchor="start" x="759.75" y="-160.5" font-family="Helvetica,sans-Serif" font-size="10.00">EntryServer&lt; Cpl::Logging</text>
<text text-anchor="middle" x="816.38" y="-148.5" font-family="Helvetica,sans-Serif" font-size="10.00">::EntryData_T &gt;</text>
</a>
</g>
</g>
<!-- Node1&#45;&gt;Node7 -->
<g id="edge6_Node000001_Node000007" class="edge">
<title>Node1&#45;&gt;Node7</title>
<g id="a_edge6_Node000001_Node000007"><a xlink:title=" ">
<path fill="none" stroke="#63b8ff" d="M366.2,-153.59C381.95,-170.68 407.92,-194.84 436.5,-205 544.03,-243.23 678.67,-211.32 755.07,-186.44"/>
<polygon fill="#63b8ff" stroke="#63b8ff" points="369.2,-151.7 359.94,-146.54 363.96,-156.35 369.2,-151.7"/>
</a>
</g>
</g>
<!-- Node8 -->
<g id="Node000008" class="node">
<title>Node8</title>
<g id="a_Node000008"><a xlink:href="class_cpl_1_1_logging_1_1_log_sink.html" target="_top" xlink:title="This class is responsible for consuming the application&#39;s Log buffer and &#39;dispatching&#39; log entries.">
<polygon fill="white" stroke="#666666" points="564.25,-196 453,-196 453,-176 564.25,-176 564.25,-196"/>
<text text-anchor="middle" x="508.62" y="-182.5" font-family="Helvetica,sans-Serif" font-size="10.00">Cpl::Logging::LogSink</text>
</a>
</g>
</g>
<!-- Node1&#45;&gt;Node8 -->
<g id="edge7_Node000001_Node000008" class="edge">
<title>Node1&#45;&gt;Node8</title>
<g id="a_edge7_Node000001_Node000008"><a xlink:title=" ">
<path fill="none" stroke="#63b8ff" d="M387.13,-149.51C402.3,-155.28 420.13,-161.78 436.5,-167 445.88,-169.99 456.05,-172.9 465.69,-175.51"/>
<polygon fill="#63b8ff" stroke="#63b8ff" points="388.62,-146.33 378.03,-146 386.11,-152.86 388.62,-146.33"/>
</a>
</g>
</g>
<!-- Node9 -->
<g id="Node000009" class="node">
<title>Node9</title>
<g id="a_Node000009"><a xlink:href="class_cpl_1_1_m_app_1_1_manager.html" target="_top" xlink:title="This concrete class implements the MApp Manager.">
<polygon fill="white" stroke="#666666" points="561.25,-158 456,-158 456,-138 561.25,-138 561.25,-158"/>
<text text-anchor="middle" x="508.62" y="-144.5" font-family="Helvetica,sans-Serif" font-size="10.00">Cpl::MApp::Manager</text>
</a>
</g>
</g>
<!-- Node1&#45;&gt;Node9 -->
<g id="edge8_Node000001_Node000009" class="edge">
<title>Node1&#45;&gt;Node9</title>
<g id="a_edge8_Node000001_Node000009"><a xlink:title=" ">
<path fill="none" stroke="#63b8ff" d="M410.84,-139.99C425.57,-141.21 441.21,-142.51 455.53,-143.69"/>
<polygon fill="#63b8ff" stroke="#63b8ff" points="411.55,-136.54 401.29,-139.2 410.97,-143.52 411.55,-136.54"/>
</a>
</g>
</g>
<!-- Node10 -->
<g id="Node000010" class="node">
<title>Node10</title>
<g id="a_Node000010"><a xlink:href="class_cpl_1_1_persistent_1_1_indexed_entry_server.html" target="_top" xlink:title="This concrete template class implements the ITC messaging (and Model Point monitoring) needed to prov...">
<polygon fill="white" stroke="#666666" points="568.75,-120 448.5,-120 448.5,-88 568.75,-88 568.75,-120"/>
<text text-anchor="start" x="456.5" y="-106.5" font-family="Helvetica,sans-Serif" font-size="10.00">Cpl::Persistent::Indexed</text>
<text text-anchor="middle" x="508.62" y="-94.5" font-family="Helvetica,sans-Serif" font-size="10.00">EntryServer&lt; ENTRY &gt;</text>
</a>
</g>
</g>
<!-- Node1&#45;&gt;Node10 -->
<g id="edge9_Node000001_Node000010" class="edge">
<title>Node1&#45;&gt;Node10</title>
<g id="a_edge9_Node000001_Node000010"><a xlink:title=" ">
<path fill="none" stroke="#63b8ff" d="M410.79,-123.11C423.01,-120.7 435.84,-118.16 448.04,-115.76"/>
<polygon fill="#63b8ff" stroke="#63b8ff" points="410.4,-119.61 401.27,-124.98 411.76,-126.48 410.4,-119.61"/>
</a>
</g>
</g>
<!-- Node11 -->
<g id="Node000011" class="node">
<title>Node11</title>
<g id="a_Node000011"><a xlink:href="class_cpl_1_1_persistent_1_1_record_server.html" target="_top" xlink:title="This concrete class provides an Event driven Runnable object for executing the read/write operation t...">
<polygon fill="white" stroke="#666666" points="580.75,-70 436.5,-70 436.5,-50 580.75,-50 580.75,-70"/>
<text text-anchor="middle" x="508.62" y="-56.5" font-family="Helvetica,sans-Serif" font-size="10.00">Cpl::Persistent::RecordServer</text>
</a>
</g>
</g>
<!-- Node1&#45;&gt;Node11 -->
<g id="edge11_Node000001_Node000011" class="edge">
<title>Node1&#45;&gt;Node11</title>
<g id="a_edge11_Node000001_Node000011"><a xlink:title=" ">
<path fill="none" stroke="#63b8ff" d="M372.39,-117.95C389.14,-105.61 413.24,-89.36 436.5,-79 443.97,-75.67 452.15,-72.82 460.22,-70.41"/>
<polygon fill="#63b8ff" stroke="#63b8ff" points="370.54,-114.96 364.65,-123.77 374.75,-120.55 370.54,-114.96"/>
</a>
</g>
</g>
<!-- Node12 -->
<g id="Node000012" class="node">
<title>Node12</title>
<g id="a_Node000012"><a xlink:href="class_storm_1_1_thermostat_1_1_algorithm.html" target="_top" xlink:title="This concrete class is a &quot;maker&quot; pattern assembles the objects needed for the thermostat&#39;s control al...">
<polygon fill="white" stroke="#666666" points="560.12,-32 457.12,-32 457.12,0 560.12,0 560.12,-32"/>
<text text-anchor="start" x="465.12" y="-18.5" font-family="Helvetica,sans-Serif" font-size="10.00">Storm::Thermostat::</text>
<text text-anchor="middle" x="508.62" y="-6.5" font-family="Helvetica,sans-Serif" font-size="10.00">Algorithm</text>
</a>
</g>
</g>
<!-- Node1&#45;&gt;Node12 -->
<g id="edge12_Node000001_Node000012" class="edge">
<title>Node1&#45;&gt;Node12</title>
<g id="a_edge12_Node000001_Node000012"><a xlink:title=" ">
<path fill="none" stroke="#63b8ff" d="M363.83,-115.44C379.13,-94.35 406.05,-61.12 436.5,-41 442.72,-36.89 449.7,-33.37 456.79,-30.38"/>
<polygon fill="#63b8ff" stroke="#63b8ff" points="361.07,-113.28 358.17,-123.47 366.79,-117.31 361.07,-113.28"/>
</a>
</g>
</g>
<!-- Node2 -->
<g id="Node000002" class="node">
<title>Node2</title>
<g id="a_Node000002"><a xlink:href="class_cpl_1_1_itc_1_1_open_sync.html" target="_top" xlink:title="This partially concrete class implements the synchronous ITC open call for the OpenApi.">
<polygon fill="white" stroke="#666666" points="255,-183 156.5,-183 156.5,-163 255,-163 255,-183"/>
<text text-anchor="middle" x="205.75" y="-169.5" font-family="Helvetica,sans-Serif" font-size="10.00">Cpl::Itc::OpenSync</text>
</a>
</g>
</g>
<!-- Node2&#45;&gt;Node1 -->
<g id="edge1_Node000001_Node000002" class="edge">
<title>Node2&#45;&gt;Node1</title>
<g id="a_edge1_Node000001_Node000002"><a xlink:title=" ">
<path fill="none" stroke="#63b8ff" d="M256.91,-159.55C274.19,-154.92 293.27,-149.81 309.52,-145.45"/>
<polygon fill="#63b8ff" stroke="#63b8ff" points="256.07,-156.15 247.32,-162.12 257.89,-162.92 256.07,-156.15"/>
</a>
</g>
</g>
<!-- Node3 -->
<g id="Node000003" class="node">
<title>Node3</title>
<g id="a_Node000003"><a xlink:href="class_cpl_1_1_itc_1_1_open_api.html" target="_top" xlink:title="This abstract class defines an open interface.">
<polygon fill="white" stroke="#666666" points="101.12,-202 10.88,-202 10.88,-182 101.12,-182 101.12,-202"/>
<text text-anchor="middle" x="56" y="-188.5" font-family="Helvetica,sans-Serif" font-size="10.00">Cpl::Itc::OpenApi</text>
</a>
</g>
</g>
<!-- Node3&#45;&gt;Node2 -->
<g id="edge2_Node000002_Node000003" class="edge">
<title>Node3&#45;&gt;Node2</title>
<g id="a_edge2_Node000002_Node000003"><a xlink:title=" ">
<path fill="none" stroke="#63b8ff" d="M112.55,-184.86C126.85,-183.02 142.14,-181.05 156.07,-179.26"/>
<polygon fill="#63b8ff" stroke="#63b8ff" points="112.3,-181.36 102.83,-186.11 113.2,-188.3 112.3,-181.36"/>
</a>
</g>
</g>
<!-- Node4 -->
<g id="Node000004" class="node">
<title>Node4</title>
<g id="a_Node000004"><a xlink:href="class_cpl_1_1_itc_1_1_open_request.html" target="_top" xlink:title="This abstract class define message types and payloads for a set of ITC services.">
<polygon fill="white" stroke="#666666" points="112,-164 0,-164 0,-144 112,-144 112,-164"/>
<text text-anchor="middle" x="56" y="-150.5" font-family="Helvetica,sans-Serif" font-size="10.00">Cpl::Itc::OpenRequest</text>
</a>
</g>
</g>
<!-- Node4&#45;&gt;Node2 -->
<g id="edge3_Node000002_Node000004" class="edge">
<title>Node4&#45;&gt;Node2</title>
<g id="a_edge3_Node000002_Node000004"><a xlink:title=" ">
<path fill="none" stroke="#63b8ff" d="M123.74,-162.58C134.7,-163.99 145.88,-165.43 156.28,-166.77"/>
<polygon fill="#63b8ff" stroke="#63b8ff" points="124.3,-159.13 113.94,-161.32 123.41,-166.07 124.3,-159.13"/>
</a>
</g>
</g>
<!-- Node5 -->
<g id="Node000005" class="node">
<title>Node5</title>
<g id="a_Node000005"><a xlink:href="class_cpl_1_1_itc_1_1_close_api.html" target="_top" xlink:title="This abstract class defines an close interface.">
<polygon fill="white" stroke="#666666" points="251.62,-145 159.88,-145 159.88,-125 251.62,-125 251.62,-145"/>
<text text-anchor="middle" x="205.75" y="-131.5" font-family="Helvetica,sans-Serif" font-size="10.00">Cpl::Itc::CloseApi</text>
</a>
</g>
</g>
<!-- Node5&#45;&gt;Node1 -->
<g id="edge4_Node000001_Node000005" class="edge">
<title>Node5&#45;&gt;Node1</title>
<g id="a_edge4_Node000001_Node000005"><a xlink:title=" ">
<path fill="none" stroke="#63b8ff" d="M263.21,-135C275.14,-135 287.64,-135 299.28,-135"/>
<polygon fill="#63b8ff" stroke="#63b8ff" points="263.5,-131.5 253.5,-135 263.5,-138.5 263.5,-131.5"/>
</a>
</g>
</g>
<!-- Node6 -->
<g id="Node000006" class="node">
<title>Node6</title>
<g id="a_Node000006"><a xlink:href="class_cpl_1_1_itc_1_1_close_request.html" target="_top" xlink:title="This abstract class define message types and payloads for a set of ITC services.">
<polygon fill="white" stroke="#666666" points="262.5,-107 149,-107 149,-87 262.5,-87 262.5,-107"/>
<text text-anchor="middle" x="205.75" y="-93.5" font-family="Helvetica,sans-Serif" font-size="10.00">Cpl::Itc::CloseRequest</text>
</a>
</g>
</g>
<!-- Node6&#45;&gt;Node1 -->
<g id="edge5_Node000001_Node000006" class="edge">
<title>Node6&#45;&gt;Node1</title>
<g id="a_edge5_Node000001_Node000006"><a xlink:title=" ">
<path fill="none" stroke="#63b8ff" d="M256.91,-110.45C274.19,-115.08 293.27,-120.19 309.52,-124.55"/>
<polygon fill="#63b8ff" stroke="#63b8ff" points="257.89,-107.08 247.32,-107.88 256.07,-113.85 257.89,-107.08"/>
</a>
</g>
</g>
<!-- Node10&#45;&gt;Node7 -->
<g id="edge10_Node000010_Node000007" class="edge">
<title>Node10&#45;&gt;Node7</title>
<g id="a_edge10_Node000010_Node000007"><a xlink:title=" ">
<path fill="none" stroke="orange" stroke-dasharray="5,2" d="M580.01,-117.81C631.71,-127.96 701.38,-141.63 751.48,-151.46"/>
<polygon fill="orange" stroke="orange" points="580.91,-114.42 570.42,-115.93 579.56,-121.29 580.91,-114.42"/>
</a>
</g>
<text text-anchor="middle" x="666.25" y="-150.5" font-family="Helvetica,sans-Serif" font-size="10.00" fill="grey"> &lt; Cpl::Logging::EntryData_T &gt;</text>
</g>
</g>
</svg>
