<?xml version="1.0" encoding="UTF-8" standalone="no"?>
<!DOCTYPE svg PUBLIC "-//W3C//DTD SVG 1.1//EN"
 "http://www.w3.org/Graphics/SVG/1.1/DTD/svg11.dtd">
<!-- Generated by graphviz version 2.38.0 (20140413.2041)
 -->
<!-- Title: Cpl::TShell::Socket Pages: 1 -->
<svg width="1058pt" height="192pt"
 viewBox="0.00 0.00 1058.00 191.50" xmlns="http://www.w3.org/2000/svg" xmlns:xlink="http://www.w3.org/1999/xlink">
<g id="graph0" class="graph" transform="scale(1 1) rotate(0) translate(4 187.5)">
<title>Cpl::TShell::Socket</title>
<polygon fill="white" stroke="none" points="-4,4 -4,-187.5 1054,-187.5 1054,4 -4,4"/>
<!-- Node1 -->
<g id="node1" class="node"><title>Node1</title>
<g id="a_node1"><a xlink:title="This concrete class provides a socket listener/server and &#39;threading wrapper&#39; for running a TShell Co...">
<polygon fill="#bfbfbf" stroke="black" points="949,-76.5 949,-95.5 1050,-95.5 1050,-76.5 949,-76.5"/>
<text text-anchor="middle" x="999.5" y="-83.5" font-family="Helvetica,sans-Serif" font-size="10.00">Cpl::TShell::Socket</text>
</a>
</g>
</g>
<!-- Node2 -->
<g id="node2" class="node"><title>Node2</title>
<g id="a_node2"><a xlink:href="class_cpl_1_1_io_1_1_socket_1_1_listener_1_1_client.html" target="_top" xlink:title="This class defines the callback mechanism used for accepting incoming socket connections.">
<polygon fill="white" stroke="black" points="733.5,-153 733.5,-183 855.5,-183 855.5,-153 733.5,-153"/>
<text text-anchor="start" x="741.5" y="-171" font-family="Helvetica,sans-Serif" font-size="10.00">Cpl::Io::Socket::Listener</text>
<text text-anchor="middle" x="794.5" y="-160" font-family="Helvetica,sans-Serif" font-size="10.00">::Client</text>
</a>
</g>
</g>
<!-- Node2&#45;&gt;Node1 -->
<g id="edge1" class="edge"><title>Node2&#45;&gt;Node1</title>
<path fill="none" stroke="midnightblue" d="M859.765,-150.004C882.623,-142.856 908.307,-133.954 931,-124 949.72,-115.789 970.006,-103.932 983.399,-95.6535"/>
<polygon fill="midnightblue" stroke="midnightblue" points="858.688,-146.674 850.158,-152.959 860.745,-153.365 858.688,-146.674"/>
</g>
<!-- Node3 -->
<g id="node3" class="node"><title>Node3</title>
<g id="a_node3"><a xlink:href="class_cpl_1_1_io_1_1_socket_1_1_listener.html" target="_top" xlink:title="This abstract class defines the interface for a SIMPLE socket listener.">
<polygon fill="white" stroke="black" points="733.5,-114.5 733.5,-133.5 855.5,-133.5 855.5,-114.5 733.5,-114.5"/>
<text text-anchor="middle" x="794.5" y="-121.5" font-family="Helvetica,sans-Serif" font-size="10.00">Cpl::Io::Socket::Listener</text>
</a>
</g>
</g>
<!-- Node3&#45;&gt;Node1 -->
<g id="edge2" class="edge"><title>Node3&#45;&gt;Node1</title>
<path fill="none" stroke="#9a32cd" stroke-dasharray="5,2" d="M861.257,-112.751C883.436,-108.851 908.315,-104.361 931,-100 938.287,-98.5993 946.003,-97.0559 953.514,-95.5211"/>
<polygon fill="#9a32cd" stroke="#9a32cd" points="860.521,-109.327 851.274,-114.499 861.728,-116.222 860.521,-109.327"/>
<text text-anchor="middle" x="906.5" y="-112" font-family="Helvetica,sans-Serif" font-size="10.00"> m_listener</text>
</g>
<!-- Node4 -->
<g id="node4" class="node"><title>Node4</title>
<g id="a_node4"><a xlink:href="class_cpl_1_1_system_1_1_runnable.html" target="_top" xlink:title="This is an abstract class defines the interface for an object that is &quot;executed&quot; when a Thread object...">
<polygon fill="white" stroke="black" points="515,-114.5 515,-133.5 632,-133.5 632,-114.5 515,-114.5"/>
<text text-anchor="middle" x="573.5" y="-121.5" font-family="Helvetica,sans-Serif" font-size="10.00">Cpl::System::Runnable</text>
</a>
</g>
</g>
<!-- Node4&#45;&gt;Node3 -->
<g id="edge3" class="edge"><title>Node4&#45;&gt;Node3</title>
<path fill="none" stroke="midnightblue" d="M642.131,-124C671.258,-124 705.037,-124 733.286,-124"/>
<polygon fill="midnightblue" stroke="midnightblue" points="642.04,-120.5 632.04,-124 642.04,-127.5 642.04,-120.5"/>
</g>
<!-- Node5 -->
<g id="node5" class="node"><title>Node5</title>
<g id="a_node5"><a xlink:href="class_cpl_1_1_io_1_1_socket_1_1_input_output.html" target="_top" xlink:title="This concrete class provides a platform independent &#39;standard&#39; implementation of an InputOutput strea...">
<polygon fill="white" stroke="black" points="725,-76.5 725,-95.5 864,-95.5 864,-76.5 725,-76.5"/>
<text text-anchor="middle" x="794.5" y="-83.5" font-family="Helvetica,sans-Serif" font-size="10.00">Cpl::Io::Socket::InputOutput</text>
</a>
</g>
</g>
<!-- Node5&#45;&gt;Node1 -->
<g id="edge4" class="edge"><title>Node5&#45;&gt;Node1</title>
<path fill="none" stroke="#9a32cd" stroke-dasharray="5,2" d="M874.441,-86C899.459,-86 926.403,-86 948.768,-86"/>
<polygon fill="#9a32cd" stroke="#9a32cd" points="874.227,-82.5001 864.227,-86 874.227,-89.5001 874.227,-82.5001"/>
<text text-anchor="middle" x="906.5" y="-89" font-family="Helvetica,sans-Serif" font-size="10.00"> m_stream</text>
</g>
<!-- Node6 -->
<g id="node6" class="node"><title>Node6</title>
<g id="a_node6"><a xlink:href="class_cpl_1_1_io_1_1_input_output.html" target="_top" xlink:title="This abstract class defines a interface for operating on an input&#45;output stream (example of a stream ...">
<polygon fill="white" stroke="black" points="522.5,-76.5 522.5,-95.5 624.5,-95.5 624.5,-76.5 522.5,-76.5"/>
<text text-anchor="middle" x="573.5" y="-83.5" font-family="Helvetica,sans-Serif" font-size="10.00">Cpl::Io::InputOutput</text>
</a>
</g>
</g>
<!-- Node6&#45;&gt;Node5 -->
<g id="edge5" class="edge"><title>Node6&#45;&gt;Node5</title>
<path fill="none" stroke="midnightblue" d="M634.761,-86C662.662,-86 695.951,-86 724.821,-86"/>
<polygon fill="midnightblue" stroke="midnightblue" points="634.743,-82.5001 624.743,-86 634.743,-89.5001 634.743,-82.5001"/>
</g>
<!-- Node7 -->
<g id="node7" class="node"><title>Node7</title>
<g id="a_node7"><a xlink:href="class_cpl_1_1_io_1_1_input.html" target="_top" xlink:title="This partially abstract class defines a interface for operating on an input stream (example of a stre...">
<polygon fill="white" stroke="black" points="295.5,-79.5 295.5,-98.5 368.5,-98.5 368.5,-79.5 295.5,-79.5"/>
<text text-anchor="middle" x="332" y="-86.5" font-family="Helvetica,sans-Serif" font-size="10.00">Cpl::Io::Input</text>
</a>
</g>
</g>
<!-- Node7&#45;&gt;Node6 -->
<g id="edge6" class="edge"><title>Node7&#45;&gt;Node6</title>
<path fill="none" stroke="midnightblue" d="M378.843,-88.4258C419.821,-87.9125 479.76,-87.1617 522.079,-86.6316"/>
<polygon fill="midnightblue" stroke="midnightblue" points="378.552,-84.929 368.597,-88.5541 378.64,-91.9285 378.552,-84.929"/>
</g>
<!-- Node8 -->
<g id="node8" class="node"><title>Node8</title>
<g id="a_node8"><a xlink:href="class_cpl_1_1_io_1_1_close.html" target="_top" xlink:title="This abstract class defines a close operation that is intended to be used Input and Output streams/fi...">
<polygon fill="white" stroke="black" points="160,-38.5 160,-57.5 236,-57.5 236,-38.5 160,-38.5"/>
<text text-anchor="middle" x="198" y="-45.5" font-family="Helvetica,sans-Serif" font-size="10.00">Cpl::Io::Close</text>
</a>
</g>
</g>
<!-- Node8&#45;&gt;Node7 -->
<g id="edge7" class="edge"><title>Node8&#45;&gt;Node7</title>
<path fill="none" stroke="midnightblue" d="M239.186,-60.4821C258.759,-66.5615 281.927,-73.7577 300.094,-79.4003"/>
<polygon fill="midnightblue" stroke="midnightblue" points="240.203,-57.1331 229.615,-57.5093 238.127,-63.8181 240.203,-57.1331"/>
</g>
<!-- Node11 -->
<g id="node11" class="node"><title>Node11</title>
<g id="a_node11"><a xlink:href="class_cpl_1_1_io_1_1_output.html" target="_top" xlink:title="This partially abstract class defines a interface for operating on an output stream (example of a str...">
<polygon fill="white" stroke="black" points="292,-41.5 292,-60.5 372,-60.5 372,-41.5 292,-41.5"/>
<text text-anchor="middle" x="332" y="-48.5" font-family="Helvetica,sans-Serif" font-size="10.00">Cpl::Io::Output</text>
</a>
</g>
</g>
<!-- Node8&#45;&gt;Node11 -->
<g id="edge11" class="edge"><title>Node8&#45;&gt;Node11</title>
<path fill="none" stroke="midnightblue" d="M246.203,-48.473C255.422,-48.6096 265.014,-48.7825 274,-49 279.741,-49.139 285.807,-49.3177 291.755,-49.5109"/>
<polygon fill="midnightblue" stroke="midnightblue" points="246.053,-44.9707 236.006,-48.3338 245.957,-51.9701 246.053,-44.9707"/>
</g>
<!-- Node9 -->
<g id="node9" class="node"><title>Node9</title>
<g id="a_node9"><a xlink:href="class_cpl_1_1_container_1_1_item.html" target="_top" xlink:title="This class is used by the Container classes to implement a various types of singly linked containers.">
<polygon fill="white" stroke="black" points="0,-20.5 0,-39.5 104,-39.5 104,-20.5 0,-20.5"/>
<text text-anchor="middle" x="52" y="-27.5" font-family="Helvetica,sans-Serif" font-size="10.00">Cpl::Container::Item</text>
</a>
</g>
</g>
<!-- Node9&#45;&gt;Node8 -->
<g id="edge8" class="edge"><title>Node9&#45;&gt;Node8</title>
<path fill="none" stroke="midnightblue" d="M114.182,-37.6477C129.606,-39.5757 145.707,-41.5884 159.568,-43.321"/>
<polygon fill="midnightblue" stroke="midnightblue" points="114.531,-34.1643 104.174,-36.3968 113.663,-41.1102 114.531,-34.1643"/>
</g>
<!-- Node15 -->
<g id="node15" class="node"><title>Node15</title>
<g id="a_node15"><a xlink:href="class_cpl_1_1_system_1_1_signable.html" target="_top" xlink:title="This abstract class defines the interface by which a client can cause an object that is waiting&#45;on&#45;a&#45;...">
<polygon fill="white" stroke="black" points="141,-0.5 141,-19.5 255,-19.5 255,-0.5 141,-0.5"/>
<text text-anchor="middle" x="198" y="-7.5" font-family="Helvetica,sans-Serif" font-size="10.00">Cpl::System::Signable</text>
</a>
</g>
</g>
<!-- Node9&#45;&gt;Node15 -->
<g id="edge17" class="edge"><title>Node9&#45;&gt;Node15</title>
<path fill="none" stroke="midnightblue" d="M114.295,-21.4868C123.027,-20.274 131.974,-19.0313 140.607,-17.8323"/>
<polygon fill="midnightblue" stroke="midnightblue" points="113.598,-18.0499 104.174,-22.8924 114.561,-24.9834 113.598,-18.0499"/>
</g>
<!-- Node10 -->
<g id="node10" class="node"><title>Node10</title>
<g id="a_node10"><a xlink:href="class_cpl_1_1_io_1_1_is_eos.html" target="_top" xlink:title="This abstract class defines a isEos() operation that is intended to be used Input and Output streams.">
<polygon fill="white" stroke="black" points="159.5,-88.5 159.5,-107.5 236.5,-107.5 236.5,-88.5 159.5,-88.5"/>
<text text-anchor="middle" x="198" y="-95.5" font-family="Helvetica,sans-Serif" font-size="10.00">Cpl::Io::IsEos</text>
</a>
</g>
</g>
<!-- Node10&#45;&gt;Node7 -->
<g id="edge9" class="edge"><title>Node10&#45;&gt;Node7</title>
<path fill="none" stroke="midnightblue" d="M246.818,-97.4082C255.854,-97.1028 265.223,-96.6545 274,-96 280.96,-95.481 288.375,-94.7225 295.477,-93.8942"/>
<polygon fill="midnightblue" stroke="midnightblue" points="246.701,-93.91 236.805,-97.6956 246.902,-100.907 246.701,-93.91"/>
</g>
<!-- Node10&#45;&gt;Node11 -->
<g id="edge12" class="edge"><title>Node10&#45;&gt;Node11</title>
<path fill="none" stroke="midnightblue" d="M235.25,-85.093C256.937,-77.3711 284.043,-67.7194 303.874,-60.6583"/>
<polygon fill="midnightblue" stroke="midnightblue" points="233.959,-81.8372 225.712,-88.4888 236.307,-88.4317 233.959,-81.8372"/>
</g>
<!-- Node11&#45;&gt;Node6 -->
<g id="edge10" class="edge"><title>Node11&#45;&gt;Node6</title>
<path fill="none" stroke="midnightblue" d="M382.023,-58.1642C422.935,-64.1429 481.01,-72.6299 522.258,-78.6577"/>
<polygon fill="midnightblue" stroke="midnightblue" points="382.414,-54.6841 372.013,-56.7013 381.402,-61.6106 382.414,-54.6841"/>
</g>
<!-- Node12 -->
<g id="node12" class="node"><title>Node12</title>
<g id="a_node12"><a xlink:href="union_cpl_1_1_io_1_1_descriptor.html" target="_top" xlink:title="This union defines a &#39;IO descriptor&#39; in terms of a an integer and/or a void*.">
<polygon fill="white" stroke="black" points="526,-38.5 526,-57.5 621,-57.5 621,-38.5 526,-38.5"/>
<text text-anchor="middle" x="573.5" y="-45.5" font-family="Helvetica,sans-Serif" font-size="10.00">Cpl::Io::Descriptor</text>
</a>
</g>
</g>
<!-- Node12&#45;&gt;Node5 -->
<g id="edge13" class="edge"><title>Node12&#45;&gt;Node5</title>
<path fill="none" stroke="#9a32cd" stroke-dasharray="5,2" d="M631.204,-57.839C664.336,-63.588 705.947,-70.8081 738.739,-76.4981"/>
<polygon fill="#9a32cd" stroke="#9a32cd" points="631.664,-54.3666 621.212,-56.1053 630.467,-61.2635 631.664,-54.3666"/>
<text text-anchor="middle" x="678.5" y="-74" font-family="Helvetica,sans-Serif" font-size="10.00"> m_fd</text>
</g>
<!-- Node13 -->
<g id="node13" class="node"><title>Node13</title>
<g id="a_node13"><a xlink:href="class_cpl_1_1_t_shell_1_1_processor_api.html" target="_top" xlink:title="This class defines the interface a TShell Command Processor.">
<polygon fill="white" stroke="black" points="730,-38.5 730,-57.5 859,-57.5 859,-38.5 730,-38.5"/>
<text text-anchor="middle" x="794.5" y="-45.5" font-family="Helvetica,sans-Serif" font-size="10.00">Cpl::TShell::ProcessorApi</text>
</a>
</g>
</g>
<!-- Node13&#45;&gt;Node1 -->
<g id="edge14" class="edge"><title>Node13&#45;&gt;Node1</title>
<path fill="none" stroke="#9a32cd" stroke-dasharray="5,2" d="M865.786,-59.2366C886.802,-62.7833 909.871,-66.8618 931,-71 939.482,-72.6613 948.532,-74.5746 957.16,-76.4668"/>
<polygon fill="#9a32cd" stroke="#9a32cd" points="866.093,-55.7392 855.652,-57.5402 864.937,-62.6432 866.093,-55.7392"/>
<text text-anchor="middle" x="906.5" y="-74" font-family="Helvetica,sans-Serif" font-size="10.00"> m_shell</text>
</g>
<!-- Node14 -->
<g id="node14" class="node"><title>Node14</title>
<g id="a_node14"><a xlink:href="class_cpl_1_1_system_1_1_thread.html" target="_top" xlink:title="This abstract class defines the operations that can be performed on a thread.">
<polygon fill="white" stroke="black" points="390,-0.5 390,-19.5 497,-19.5 497,-0.5 390,-0.5"/>
<text text-anchor="middle" x="443.5" y="-7.5" font-family="Helvetica,sans-Serif" font-size="10.00">Cpl::System::Thread</text>
</a>
</g>
</g>
<!-- Node14&#45;&gt;Node1 -->
<g id="edge15" class="edge"><title>Node14&#45;&gt;Node1</title>
<path fill="none" stroke="#9a32cd" stroke-dasharray="5,2" d="M507.296,-5.99247C590.137,-2.25308 739.953,-0.862521 864,-29 908.272,-39.0421 956.39,-62.9086 981.331,-76.3573"/>
<polygon fill="#9a32cd" stroke="#9a32cd" points="507.108,-2.49736 497.286,-6.47066 507.442,-9.48939 507.108,-2.49736"/>
<text text-anchor="middle" x="678.5" y="-11" font-family="Helvetica,sans-Serif" font-size="10.00"> m_threadPtr</text>
</g>
<!-- Node15&#45;&gt;Node14 -->
<g id="edge16" class="edge"><title>Node15&#45;&gt;Node14</title>
<path fill="none" stroke="midnightblue" d="M265.173,-10C304.387,-10 353.394,-10 389.946,-10"/>
<polygon fill="midnightblue" stroke="midnightblue" points="265.17,-6.5001 255.17,-10 265.17,-13.5001 265.17,-6.5001"/>
</g>
</g>
</svg>
