<?xml version="1.0" encoding="UTF-8" standalone="no"?>
<!DOCTYPE svg PUBLIC "-//W3C//DTD SVG 1.1//EN"
 "http://www.w3.org/Graphics/SVG/1.1/DTD/svg11.dtd">
<!-- Generated by graphviz version 2.38.0 (20140413.2041)
 -->
<!-- Title: Cpl::TShell::Cmd::Threads Pages: 1 -->
<svg width="472pt" height="423pt"
 viewBox="0.00 0.00 472.00 423.00" xmlns="http://www.w3.org/2000/svg" xmlns:xlink="http://www.w3.org/1999/xlink">
<g id="graph0" class="graph" transform="scale(1 1) rotate(0) translate(4 419)">
<title>Cpl::TShell::Cmd::Threads</title>
<polygon fill="white" stroke="none" points="-4,4 -4,-419 468,-419 468,4 -4,4"/>
<!-- Node1 -->
<g id="node1" class="node"><title>Node1</title>
<g id="a_node1"><a xlink:title="This class implements a Shell command.">
<polygon fill="#bfbfbf" stroke="black" points="206.5,-0.5 206.5,-19.5 338.5,-19.5 338.5,-0.5 206.5,-0.5"/>
<text text-anchor="middle" x="272.5" y="-7.5" font-family="Helvetica,sans-Serif" font-size="10.00">Cpl::TShell::Cmd::Threads</text>
</a>
</g>
</g>
<!-- Node2 -->
<g id="node2" class="node"><title>Node2</title>
<g id="a_node2"><a xlink:href="class_cpl_1_1_t_shell_1_1_cmd_1_1_command.html" target="_top" xlink:title="This partially concrete class implements infrastructure and/or common functionality for a Shell comma...">
<polygon fill="white" stroke="black" points="60,-73 60,-92 201,-92 201,-73 60,-73"/>
<text text-anchor="middle" x="130.5" y="-80" font-family="Helvetica,sans-Serif" font-size="10.00">Cpl::TShell::Cmd::Command</text>
</a>
</g>
</g>
<!-- Node2&#45;&gt;Node1 -->
<g id="edge1" class="edge"><title>Node2&#45;&gt;Node1</title>
<path fill="none" stroke="midnightblue" d="M156.688,-68.4984C185.434,-54.2266 230.755,-31.7253 255.311,-19.5341"/>
<polygon fill="midnightblue" stroke="midnightblue" points="155.029,-65.4142 147.629,-72.9961 158.142,-71.684 155.029,-65.4142"/>
</g>
<!-- Node3 -->
<g id="node3" class="node"><title>Node3</title>
<g id="a_node3"><a xlink:href="class_cpl_1_1_t_shell_1_1_command.html" target="_top" xlink:title="This class defines the interface for a TShell command.">
<polygon fill="white" stroke="black" points="16,-151 16,-170 131,-170 131,-151 16,-151"/>
<text text-anchor="middle" x="73.5" y="-158" font-family="Helvetica,sans-Serif" font-size="10.00">Cpl::TShell::Command</text>
</a>
</g>
</g>
<!-- Node3&#45;&gt;Node2 -->
<g id="edge2" class="edge"><title>Node3&#45;&gt;Node2</title>
<path fill="none" stroke="midnightblue" d="M86.2458,-142.506C97.973,-126.869 114.889,-104.314 124.038,-92.1165"/>
<polygon fill="midnightblue" stroke="midnightblue" points="83.2387,-140.682 80.0386,-150.782 88.8387,-144.882 83.2387,-140.682"/>
</g>
<!-- Node4 -->
<g id="node4" class="node"><title>Node4</title>
<g id="a_node4"><a xlink:href="class_cpl_1_1_container_1_1_map_item.html" target="_top" xlink:title="This abstract class represents a item that can be contained in an Map (aka a sorted list implemented ...">
<polygon fill="white" stroke="black" points="11.5,-219 11.5,-238 133.5,-238 133.5,-219 11.5,-219"/>
<text text-anchor="middle" x="72.5" y="-226" font-family="Helvetica,sans-Serif" font-size="10.00">Cpl::Container::MapItem</text>
</a>
</g>
</g>
<!-- Node4&#45;&gt;Node3 -->
<g id="edge3" class="edge"><title>Node4&#45;&gt;Node3</title>
<path fill="none" stroke="midnightblue" d="M72.7873,-208.541C72.9777,-195.972 73.2187,-180.063 73.366,-170.341"/>
<polygon fill="midnightblue" stroke="midnightblue" points="69.2827,-208.82 72.6307,-218.872 76.2819,-208.926 69.2827,-208.82"/>
</g>
<!-- Node5 -->
<g id="node5" class="node"><title>Node5</title>
<g id="a_node5"><a xlink:href="class_cpl_1_1_container_1_1_dict_item.html" target="_top" xlink:title="This abstract class represents a item that can be contained in Dictionary.">
<polygon fill="white" stroke="black" points="12,-281.5 12,-300.5 133,-300.5 133,-281.5 12,-281.5"/>
<text text-anchor="middle" x="72.5" y="-288.5" font-family="Helvetica,sans-Serif" font-size="10.00">Cpl::Container::DictItem</text>
</a>
</g>
</g>
<!-- Node5&#45;&gt;Node4 -->
<g id="edge4" class="edge"><title>Node5&#45;&gt;Node4</title>
<path fill="none" stroke="midnightblue" d="M72.5,-271.003C72.5,-260 72.5,-246.682 72.5,-238.152"/>
<polygon fill="midnightblue" stroke="midnightblue" points="69.0001,-271.332 72.5,-281.332 76.0001,-271.332 69.0001,-271.332"/>
</g>
<!-- Node6 -->
<g id="node6" class="node"><title>Node6</title>
<g id="a_node6"><a xlink:href="class_cpl_1_1_container_1_1_extended_item.html" target="_top" xlink:title="This class is used by the Container classes to implement a various types of DOUBLY linked containers.">
<polygon fill="white" stroke="black" points="0,-338.5 0,-357.5 145,-357.5 145,-338.5 0,-338.5"/>
<text text-anchor="middle" x="72.5" y="-345.5" font-family="Helvetica,sans-Serif" font-size="10.00">Cpl::Container::ExtendedItem</text>
</a>
</g>
</g>
<!-- Node6&#45;&gt;Node5 -->
<g id="edge5" class="edge"><title>Node6&#45;&gt;Node5</title>
<path fill="none" stroke="midnightblue" d="M72.5,-328.117C72.5,-318.817 72.5,-308.056 72.5,-300.715"/>
<polygon fill="midnightblue" stroke="midnightblue" points="69.0001,-328.406 72.5,-338.406 76.0001,-328.406 69.0001,-328.406"/>
</g>
<!-- Node7 -->
<g id="node7" class="node"><title>Node7</title>
<g id="a_node7"><a xlink:href="class_cpl_1_1_container_1_1_item.html" target="_top" xlink:title="This class is used by the Container classes to implement a various types of singly linked containers.">
<polygon fill="white" stroke="black" points="20.5,-395.5 20.5,-414.5 124.5,-414.5 124.5,-395.5 20.5,-395.5"/>
<text text-anchor="middle" x="72.5" y="-402.5" font-family="Helvetica,sans-Serif" font-size="10.00">Cpl::Container::Item</text>
</a>
</g>
</g>
<!-- Node7&#45;&gt;Node6 -->
<g id="edge6" class="edge"><title>Node7&#45;&gt;Node6</title>
<path fill="none" stroke="midnightblue" d="M72.5,-385.117C72.5,-375.817 72.5,-365.056 72.5,-357.715"/>
<polygon fill="midnightblue" stroke="midnightblue" points="69.0001,-385.406 72.5,-395.406 76.0001,-385.406 69.0001,-385.406"/>
</g>
<!-- Node8 -->
<g id="node8" class="node"><title>Node8</title>
<g id="a_node8"><a xlink:href="class_cpl_1_1_container_1_1_key_literal_string.html" target="_top" xlink:title="This class provides a &#39;Key&#39; wrapper for a C string literal.">
<polygon fill="white" stroke="black" points="150.5,-145.5 150.5,-175.5 278.5,-175.5 278.5,-145.5 150.5,-145.5"/>
<text text-anchor="start" x="158.5" y="-163.5" font-family="Helvetica,sans-Serif" font-size="10.00">Cpl::Container::KeyLiteral</text>
<text text-anchor="middle" x="214.5" y="-152.5" font-family="Helvetica,sans-Serif" font-size="10.00">String</text>
</a>
</g>
</g>
<!-- Node8&#45;&gt;Node2 -->
<g id="edge7" class="edge"><title>Node8&#45;&gt;Node2</title>
<path fill="none" stroke="#9a32cd" stroke-dasharray="5,2" d="M190.88,-138.129C174.014,-122.87 152.223,-103.154 139.965,-92.0635"/>
<polygon fill="#9a32cd" stroke="#9a32cd" points="188.937,-141.091 198.7,-145.205 193.633,-135.9 188.937,-141.091"/>
<text text-anchor="middle" x="205" y="-119" font-family="Helvetica,sans-Serif" font-size="10.00"> m_mapKey</text>
</g>
<!-- Node9 -->
<g id="node9" class="node"><title>Node9</title>
<g id="a_node9"><a xlink:href="class_cpl_1_1_container_1_1_key_string_buffer.html" target="_top" xlink:title="This class provides a &#39;Key&#39; wrapper for a array of Character of length N, i.e.">
<polygon fill="white" stroke="black" points="152,-213.5 152,-243.5 279,-243.5 279,-213.5 152,-213.5"/>
<text text-anchor="start" x="160" y="-231.5" font-family="Helvetica,sans-Serif" font-size="10.00">Cpl::Container::KeyString</text>
<text text-anchor="middle" x="215.5" y="-220.5" font-family="Helvetica,sans-Serif" font-size="10.00">Buffer</text>
</a>
</g>
</g>
<!-- Node9&#45;&gt;Node8 -->
<g id="edge8" class="edge"><title>Node9&#45;&gt;Node8</title>
<path fill="none" stroke="midnightblue" d="M215.129,-203.032C214.99,-193.861 214.837,-183.745 214.717,-175.793"/>
<polygon fill="midnightblue" stroke="midnightblue" points="211.632,-203.233 215.283,-213.179 218.631,-203.127 211.632,-203.233"/>
</g>
<!-- Node10 -->
<g id="node10" class="node"><title>Node10</title>
<g id="a_node10"><a xlink:href="class_cpl_1_1_container_1_1_key.html" target="_top" xlink:title="This abstract class defines the interface that a contained object must support if it has comparable k...">
<polygon fill="white" stroke="black" points="165,-281.5 165,-300.5 266,-300.5 266,-281.5 165,-281.5"/>
<text text-anchor="middle" x="215.5" y="-288.5" font-family="Helvetica,sans-Serif" font-size="10.00">Cpl::Container::Key</text>
</a>
</g>
</g>
<!-- Node10&#45;&gt;Node9 -->
<g id="edge9" class="edge"><title>Node10&#45;&gt;Node9</title>
<path fill="none" stroke="midnightblue" d="M215.5,-271.215C215.5,-262.356 215.5,-251.958 215.5,-243.759"/>
<polygon fill="midnightblue" stroke="midnightblue" points="212,-271.332 215.5,-281.332 219,-271.332 212,-271.332"/>
</g>
<!-- Node11 -->
<g id="node11" class="node"><title>Node11</title>
<g id="a_node11"><a xlink:href="class_cpl_1_1_system_1_1_thread_1_1_traverser.html" target="_top" xlink:title="This abstract class defines the client interface for walking the list of threads, i....">
<polygon fill="white" stroke="black" points="219,-67.5 219,-97.5 326,-97.5 326,-67.5 219,-67.5"/>
<text text-anchor="start" x="227" y="-85.5" font-family="Helvetica,sans-Serif" font-size="10.00">Cpl::System::Thread</text>
<text text-anchor="middle" x="272.5" y="-74.5" font-family="Helvetica,sans-Serif" font-size="10.00">::Traverser</text>
</a>
</g>
</g>
<!-- Node11&#45;&gt;Node1 -->
<g id="edge10" class="edge"><title>Node11&#45;&gt;Node1</title>
<path fill="none" stroke="midnightblue" d="M272.5,-57.0913C272.5,-44.2136 272.5,-29.1974 272.5,-19.8932"/>
<polygon fill="midnightblue" stroke="midnightblue" points="269,-57.2332 272.5,-67.2333 276,-57.2333 269,-57.2332"/>
</g>
<!-- Node12 -->
<g id="node12" class="node"><title>Node12</title>
<g id="a_node12"><a xlink:href="class_cpl_1_1_t_shell_1_1_context__.html" target="_top" xlink:title="This Private Namespace class defines a &quot;Context&quot; for a TShell command.">
<polygon fill="white" stroke="black" points="344.5,-73 344.5,-92 454.5,-92 454.5,-73 344.5,-73"/>
<text text-anchor="middle" x="399.5" y="-80" font-family="Helvetica,sans-Serif" font-size="10.00">Cpl::TShell::Context_</text>
</a>
</g>
</g>
<!-- Node12&#45;&gt;Node1 -->
<g id="edge11" class="edge"><title>Node12&#45;&gt;Node1</title>
<path fill="none" stroke="#9a32cd" stroke-dasharray="5,2" d="M375.18,-67.9994C349.562,-53.7784 309.978,-31.805 288.2,-19.7154"/>
<polygon fill="#9a32cd" stroke="#9a32cd" points="373.485,-71.0619 383.927,-72.8553 376.883,-64.9416 373.485,-71.0619"/>
<text text-anchor="middle" x="371.5" y="-41" font-family="Helvetica,sans-Serif" font-size="10.00"> m_contextPtr</text>
</g>
<!-- Node13 -->
<g id="node13" class="node"><title>Node13</title>
<g id="a_node13"><a xlink:href="class_cpl_1_1_t_shell_1_1_processor_api.html" target="_top" xlink:title="This class defines the interface a TShell Command Processor.">
<polygon fill="white" stroke="black" points="335,-151 335,-170 464,-170 464,-151 335,-151"/>
<text text-anchor="middle" x="399.5" y="-158" font-family="Helvetica,sans-Serif" font-size="10.00">Cpl::TShell::ProcessorApi</text>
</a>
</g>
</g>
<!-- Node13&#45;&gt;Node12 -->
<g id="edge12" class="edge"><title>Node13&#45;&gt;Node12</title>
<path fill="none" stroke="midnightblue" d="M399.5,-140.724C399.5,-125.197 399.5,-103.858 399.5,-92.1165"/>
<polygon fill="midnightblue" stroke="midnightblue" points="396,-140.782 399.5,-150.782 403,-140.782 396,-140.782"/>
</g>
</g>
</svg>
