<?xml version="1.0" encoding="UTF-8" standalone="no"?>
<!DOCTYPE svg PUBLIC "-//W3C//DTD SVG 1.1//EN"
 "http://www.w3.org/Graphics/SVG/1.1/DTD/svg11.dtd">
<!-- Generated by graphviz version 10.0.1 (20240210.2158)
 -->
<!-- Title: Cpl::Io::Stdio::InputOutput_ Pages: 1 -->
<svg width="361pt" height="278pt"
 viewBox="0.00 0.00 361.38 278.00" xmlns="http://www.w3.org/2000/svg" xmlns:xlink="http://www.w3.org/1999/xlink">
<g id="graph0" class="graph" transform="scale(1 1) rotate(0) translate(4 274)">
<title>Cpl::Io::Stdio::InputOutput_</title>
<!-- Node1 -->
<g id="Node000001" class="node">
<title>Node1</title>
<g id="a_Node000001"><a xlink:title="This concrete class implements a Input&#45;Output stream.">
<polygon fill="#999999" stroke="#666666" points="236.88,-20 103.12,-20 103.12,0 236.88,0 236.88,-20"/>
<text text-anchor="middle" x="170" y="-6.5" font-family="Helvetica,sans-Serif" font-size="10.00">Cpl::Io::Stdio::InputOutput_</text>
</a>
</g>
</g>
<!-- Node2 -->
<g id="Node000002" class="node">
<title>Node2</title>
<g id="a_Node000002"><a xlink:href="class_cpl_1_1_io_1_1_input_output.html" target="_top" xlink:title="This abstract class defines a interface for operating on an input&#45;output stream (example of a stream ...">
<polygon fill="white" stroke="#666666" points="100,-88 0,-88 0,-68 100,-68 100,-88"/>
<text text-anchor="middle" x="50" y="-74.5" font-family="Helvetica,sans-Serif" font-size="10.00">Cpl::Io::InputOutput</text>
</a>
</g>
</g>
<!-- Node2&#45;&gt;Node1 -->
<g id="edge1_Node000001_Node000002" class="edge">
<title>Node2&#45;&gt;Node1</title>
<g id="a_edge1_Node000001_Node000002"><a xlink:title=" ">
<path fill="none" stroke="#63b8ff" d="M77.11,-62.09C100.34,-49.32 133.07,-31.31 152.84,-20.44"/>
<polygon fill="#63b8ff" stroke="#63b8ff" points="75.59,-58.93 68.52,-66.81 78.97,-65.06 75.59,-58.93"/>
</a>
</g>
</g>
<!-- Node3 -->
<g id="Node000003" class="node">
<title>Node3</title>
<g id="a_Node000003"><a xlink:href="class_cpl_1_1_io_1_1_input.html" target="_top" xlink:title="This partially abstract class defines a interface for operating on an input stream (example of a stre...">
<polygon fill="white" stroke="#666666" points="121.38,-156 50.62,-156 50.62,-136 121.38,-136 121.38,-156"/>
<text text-anchor="middle" x="86" y="-142.5" font-family="Helvetica,sans-Serif" font-size="10.00">Cpl::Io::Input</text>
</a>
</g>
</g>
<!-- Node3&#45;&gt;Node2 -->
<g id="edge2_Node000002_Node000003" class="edge">
<title>Node3&#45;&gt;Node2</title>
<g id="a_edge2_Node000002_Node000003"><a xlink:title=" ">
<path fill="none" stroke="#63b8ff" d="M75.52,-125.78C68.82,-113.51 60.44,-98.14 55.15,-88.44"/>
<polygon fill="#63b8ff" stroke="#63b8ff" points="72.26,-127.11 80.12,-134.22 78.4,-123.76 72.26,-127.11"/>
</a>
</g>
</g>
<!-- Node8 -->
<g id="Node000008" class="node">
<title>Node8</title>
<g id="a_Node000008"><a xlink:href="class_cpl_1_1_io_1_1_stdio_1_1_input__.html" target="_top" xlink:title="This concrete class implements a Input stream using the underlying platform&#39;s native OS &#39;file interfa...">
<polygon fill="white" stroke="#666666" points="222.25,-88 117.75,-88 117.75,-68 222.25,-68 222.25,-88"/>
<text text-anchor="middle" x="170" y="-74.5" font-family="Helvetica,sans-Serif" font-size="10.00">Cpl::Io::Stdio::Input_</text>
</a>
</g>
</g>
<!-- Node3&#45;&gt;Node8 -->
<g id="edge10_Node000008_Node000003" class="edge">
<title>Node3&#45;&gt;Node8</title>
<g id="a_edge10_Node000008_Node000003"><a xlink:title=" ">
<path fill="none" stroke="#63b8ff" d="M106.76,-128.69C122.87,-116.03 144.65,-98.92 157.99,-88.44"/>
<polygon fill="#63b8ff" stroke="#63b8ff" points="104.93,-125.68 99.23,-134.61 109.25,-131.18 104.93,-125.68"/>
</a>
</g>
</g>
<!-- Node4 -->
<g id="Node000004" class="node">
<title>Node4</title>
<g id="a_Node000004"><a xlink:href="class_cpl_1_1_io_1_1_close.html" target="_top" xlink:title="This abstract class defines a close operation that is intended to be used Input and Output streams/fi...">
<polygon fill="white" stroke="#666666" points="123.25,-213 48.75,-213 48.75,-193 123.25,-193 123.25,-213"/>
<text text-anchor="middle" x="86" y="-199.5" font-family="Helvetica,sans-Serif" font-size="10.00">Cpl::Io::Close</text>
</a>
</g>
</g>
<!-- Node4&#45;&gt;Node3 -->
<g id="edge3_Node000003_Node000004" class="edge">
<title>Node4&#45;&gt;Node3</title>
<g id="a_edge3_Node000003_Node000004"><a xlink:title=" ">
<path fill="none" stroke="#63b8ff" d="M86,-181.69C86,-172.97 86,-163.22 86,-156.28"/>
<polygon fill="#63b8ff" stroke="#63b8ff" points="82.5,-181.4 86,-191.4 89.5,-181.4 82.5,-181.4"/>
</a>
</g>
</g>
<!-- Node7 -->
<g id="Node000007" class="node">
<title>Node7</title>
<g id="a_Node000007"><a xlink:href="class_cpl_1_1_io_1_1_output.html" target="_top" xlink:title="This partially abstract class defines a interface for operating on an output stream (example of a str...">
<polygon fill="white" stroke="#666666" points="218.5,-156 139.5,-156 139.5,-136 218.5,-136 218.5,-156"/>
<text text-anchor="middle" x="179" y="-142.5" font-family="Helvetica,sans-Serif" font-size="10.00">Cpl::Io::Output</text>
</a>
</g>
</g>
<!-- Node4&#45;&gt;Node7 -->
<g id="edge7_Node000007_Node000004" class="edge">
<title>Node4&#45;&gt;Node7</title>
<g id="a_edge7_Node000007_Node000004"><a xlink:title=" ">
<path fill="none" stroke="#63b8ff" d="M111.38,-186.99C127.91,-177.21 148.96,-164.77 163.15,-156.38"/>
<polygon fill="#63b8ff" stroke="#63b8ff" points="109.9,-183.8 103.08,-191.9 113.47,-189.82 109.9,-183.8"/>
</a>
</g>
</g>
<!-- Node5 -->
<g id="Node000005" class="node">
<title>Node5</title>
<g id="a_Node000005"><a xlink:href="class_cpl_1_1_container_1_1_item.html" target="_top" xlink:title="This class is used by the Container classes to implement a various types of singly linked containers.">
<polygon fill="white" stroke="#666666" points="137.12,-270 34.88,-270 34.88,-250 137.12,-250 137.12,-270"/>
<text text-anchor="middle" x="86" y="-256.5" font-family="Helvetica,sans-Serif" font-size="10.00">Cpl::Container::Item</text>
</a>
</g>
</g>
<!-- Node5&#45;&gt;Node4 -->
<g id="edge4_Node000004_Node000005" class="edge">
<title>Node5&#45;&gt;Node4</title>
<g id="a_edge4_Node000004_Node000005"><a xlink:title=" ">
<path fill="none" stroke="#63b8ff" d="M86,-238.69C86,-229.97 86,-220.22 86,-213.28"/>
<polygon fill="#63b8ff" stroke="#63b8ff" points="82.5,-238.4 86,-248.4 89.5,-238.4 82.5,-238.4"/>
</a>
</g>
</g>
<!-- Node6 -->
<g id="Node000006" class="node">
<title>Node6</title>
<g id="a_Node000006"><a xlink:href="class_cpl_1_1_io_1_1_is_eos.html" target="_top" xlink:title="This abstract class defines a isEos() operation that is intended to be used Input and Output streams.">
<polygon fill="white" stroke="#666666" points="216.25,-213 141.75,-213 141.75,-193 216.25,-193 216.25,-213"/>
<text text-anchor="middle" x="179" y="-199.5" font-family="Helvetica,sans-Serif" font-size="10.00">Cpl::Io::IsEos</text>
</a>
</g>
</g>
<!-- Node6&#45;&gt;Node3 -->
<g id="edge5_Node000003_Node000006" class="edge">
<title>Node6&#45;&gt;Node3</title>
<g id="a_edge5_Node000003_Node000006"><a xlink:title=" ">
<path fill="none" stroke="#63b8ff" d="M153.62,-186.99C137.09,-177.21 116.04,-164.77 101.85,-156.38"/>
<polygon fill="#63b8ff" stroke="#63b8ff" points="151.53,-189.82 161.92,-191.9 155.1,-183.8 151.53,-189.82"/>
</a>
</g>
</g>
<!-- Node6&#45;&gt;Node7 -->
<g id="edge8_Node000007_Node000006" class="edge">
<title>Node6&#45;&gt;Node7</title>
<g id="a_edge8_Node000007_Node000006"><a xlink:title=" ">
<path fill="none" stroke="#63b8ff" d="M179,-181.69C179,-172.97 179,-163.22 179,-156.28"/>
<polygon fill="#63b8ff" stroke="#63b8ff" points="175.5,-181.4 179,-191.4 182.5,-181.4 175.5,-181.4"/>
</a>
</g>
</g>
<!-- Node7&#45;&gt;Node2 -->
<g id="edge6_Node000002_Node000007" class="edge">
<title>Node7&#45;&gt;Node2</title>
<g id="a_edge6_Node000002_Node000007"><a xlink:title=" ">
<path fill="none" stroke="#63b8ff" d="M150.53,-130.43C125.52,-117.64 89.89,-99.41 68.45,-88.44"/>
<polygon fill="#63b8ff" stroke="#63b8ff" points="148.67,-133.42 159.17,-134.85 151.86,-127.18 148.67,-133.42"/>
</a>
</g>
</g>
<!-- Node10 -->
<g id="Node000010" class="node">
<title>Node10</title>
<g id="a_Node000010"><a xlink:href="class_cpl_1_1_io_1_1_stdio_1_1_output__.html" target="_top" xlink:title="This concrete class implements a Output stream using the underlying platform&#39;s native OS &#39;file interf...">
<polygon fill="white" stroke="#666666" points="353.38,-88 240.62,-88 240.62,-68 353.38,-68 353.38,-88"/>
<text text-anchor="middle" x="297" y="-74.5" font-family="Helvetica,sans-Serif" font-size="10.00">Cpl::Io::Stdio::Output_</text>
</a>
</g>
</g>
<!-- Node7&#45;&gt;Node10 -->
<g id="edge13_Node000010_Node000007" class="edge">
<title>Node7&#45;&gt;Node10</title>
<g id="a_edge13_Node000010_Node000007"><a xlink:title=" ">
<path fill="none" stroke="#63b8ff" d="M188.65,-125.83C193.07,-118.71 198.92,-111.13 206,-106 216.94,-98.07 230.21,-92.45 243.2,-88.48"/>
<polygon fill="#63b8ff" stroke="#63b8ff" points="185.75,-123.82 183.94,-134.26 191.87,-127.23 185.75,-123.82"/>
</a>
</g>
</g>
<!-- Node8&#45;&gt;Node1 -->
<g id="edge9_Node000001_Node000008" class="edge">
<title>Node8&#45;&gt;Node1</title>
<g id="a_edge9_Node000001_Node000008"><a xlink:title=" ">
<path fill="none" stroke="#9a32cd" stroke-dasharray="5,2" d="M170,-56.28C170,-44.27 170,-29.74 170,-20.44"/>
<polygon fill="#9a32cd" stroke="#9a32cd" points="166.5,-56.03 170,-66.03 173.5,-56.03 166.5,-56.03"/>
</a>
</g>
<text text-anchor="middle" x="182" y="-40.5" font-family="Helvetica,sans-Serif" font-size="10.00" fill="grey"> m_in</text>
</g>
<!-- Node9 -->
<g id="Node000009" class="node">
<title>Node9</title>
<g id="a_Node000009"><a xlink:href="union_cpl_1_1_io_1_1_descriptor.html" target="_top" xlink:title="This union defines a &#39;IO descriptor&#39; in terms of a an integer and/or a void*.">
<polygon fill="white" stroke="#666666" points="337,-156 243,-156 243,-136 337,-136 337,-156"/>
<text text-anchor="middle" x="290" y="-142.5" font-family="Helvetica,sans-Serif" font-size="10.00">Cpl::Io::Descriptor</text>
</a>
</g>
</g>
<!-- Node9&#45;&gt;Node8 -->
<g id="edge11_Node000008_Node000009" class="edge">
<title>Node9&#45;&gt;Node8</title>
<g id="a_edge11_Node000008_Node000009"><a xlink:title=" ">
<path fill="none" stroke="#9a32cd" stroke-dasharray="5,2" d="M262.89,-130.09C239.66,-117.32 206.93,-99.31 187.16,-88.44"/>
<polygon fill="#9a32cd" stroke="#9a32cd" points="261.03,-133.06 271.48,-134.81 264.41,-126.93 261.03,-133.06"/>
</a>
</g>
<text text-anchor="middle" x="257.62" y="-108.5" font-family="Helvetica,sans-Serif" font-size="10.00" fill="grey"> m_inFd</text>
</g>
<!-- Node9&#45;&gt;Node10 -->
<g id="edge14_Node000010_Node000009" class="edge">
<title>Node9&#45;&gt;Node10</title>
<g id="a_edge14_Node000010_Node000009"><a xlink:title=" ">
<path fill="none" stroke="#9a32cd" stroke-dasharray="5,2" d="M292.2,-124.28C293.47,-112.27 295.01,-97.74 296,-88.44"/>
<polygon fill="#9a32cd" stroke="#9a32cd" points="288.74,-123.73 291.16,-134.04 295.7,-124.46 288.74,-123.73"/>
</a>
</g>
<text text-anchor="middle" x="314.62" y="-108.5" font-family="Helvetica,sans-Serif" font-size="10.00" fill="grey"> m_outFd</text>
</g>
<!-- Node10&#45;&gt;Node1 -->
<g id="edge12_Node000001_Node000010" class="edge">
<title>Node10&#45;&gt;Node1</title>
<g id="a_edge12_Node000001_Node000010"><a xlink:title=" ">
<path fill="none" stroke="#9a32cd" stroke-dasharray="5,2" d="M268.64,-62.26C244.04,-49.48 209.18,-31.36 188.16,-20.44"/>
<polygon fill="#9a32cd" stroke="#9a32cd" points="266.97,-65.34 277.46,-66.85 270.2,-59.13 266.97,-65.34"/>
</a>
</g>
<text text-anchor="middle" x="259" y="-40.5" font-family="Helvetica,sans-Serif" font-size="10.00" fill="grey"> m_out</text>
</g>
</g>
</svg>
