<?xml version="1.0" encoding="UTF-8" standalone="no"?>
<!DOCTYPE svg PUBLIC "-//W3C//DTD SVG 1.1//EN"
 "http://www.w3.org/Graphics/SVG/1.1/DTD/svg11.dtd">
<!-- Generated by graphviz version 10.0.1 (20240210.2158)
 -->
<!-- Title: Storm::Component::Equipment::Stage::FsmEventQueue_ Pages: 1 -->
<svg width="261pt" height="189pt"
 viewBox="0.00 0.00 261.12 189.00" xmlns="http://www.w3.org/2000/svg" xmlns:xlink="http://www.w3.org/1999/xlink">
<g id="graph0" class="graph" transform="scale(1 1) rotate(0) translate(4 185)">
<title>Storm::Component::Equipment::Stage::FsmEventQueue_</title>
<!-- Node1 -->
<g id="Node000001" class="node">
<title>Node1</title>
<g id="a_Node000001"><a xlink:title="Event Queue for FSM events.">
<polygon fill="#999999" stroke="#666666" points="150.25,-32 0,-32 0,0 150.25,0 150.25,-32"/>
<text text-anchor="start" x="8" y="-18.5" font-family="Helvetica,sans-Serif" font-size="10.00">Storm::Component::Equipment</text>
<text text-anchor="middle" x="75.12" y="-6.5" font-family="Helvetica,sans-Serif" font-size="10.00">::Stage::FsmEventQueue_</text>
</a>
</g>
</g>
<!-- Node2 -->
<g id="Node000002" class="node">
<title>Node2</title>
<g id="a_Node000002"><a xlink:href="class_storm_1_1_component_1_1_equipment_1_1_stage_1_1_fsm.html" target="_top" xlink:title="Here is the graph that shows the state machine this class implements.">
<polygon fill="white" stroke="#666666" points="80.88,-95 45.38,-95 45.38,-75 80.88,-75 80.88,-95"/>
<text text-anchor="middle" x="63.12" y="-81.5" font-family="Helvetica,sans-Serif" font-size="10.00">Fsm</text>
</a>
</g>
</g>
<!-- Node2&#45;&gt;Node1 -->
<g id="edge1_Node000001_Node000002" class="edge">
<title>Node2&#45;&gt;Node1</title>
<g id="a_edge1_Node000001_Node000002"><a xlink:title=" ">
<path fill="none" stroke="#63b8ff" d="M66.77,-63.67C68.57,-53.62 70.7,-41.69 72.36,-32.41"/>
<polygon fill="#63b8ff" stroke="#63b8ff" points="63.38,-62.73 65.06,-73.19 70.27,-63.97 63.38,-62.73"/>
</a>
</g>
</g>
<!-- Node3 -->
<g id="Node000003" class="node">
<title>Node3</title>
<g id="a_Node000003"><a xlink:href="class_cpl_1_1_container_1_1_ring_buffer.html" target="_top" xlink:title=" ">
<polygon fill="white" stroke="#666666" points="227,-101 99.25,-101 99.25,-69 227,-69 227,-101"/>
<text text-anchor="start" x="107.25" y="-87.5" font-family="Helvetica,sans-Serif" font-size="10.00">Cpl::Container::RingBuffer</text>
<text text-anchor="middle" x="163.12" y="-75.5" font-family="Helvetica,sans-Serif" font-size="10.00">&lt; FSM_EVENT_T &gt;</text>
</a>
</g>
</g>
<!-- Node3&#45;&gt;Node1 -->
<g id="edge2_Node000001_Node000003" class="edge">
<title>Node3&#45;&gt;Node1</title>
<g id="a_edge2_Node000001_Node000003"><a xlink:title=" ">
<path fill="none" stroke="#63b8ff" d="M134.29,-62.05C121.55,-52.34 106.87,-41.17 95.32,-32.38"/>
<polygon fill="#63b8ff" stroke="#63b8ff" points="131.88,-64.61 141.95,-67.88 136.12,-59.04 131.88,-64.61"/>
</a>
</g>
</g>
<!-- Node4 -->
<g id="Node000004" class="node">
<title>Node4</title>
<g id="a_Node000004"><a xlink:href="class_cpl_1_1_container_1_1_ring_buffer.html" target="_top" xlink:title="This template class implements a Ring Buffer.">
<polygon fill="white" stroke="#666666" points="227,-181 99.25,-181 99.25,-149 227,-149 227,-181"/>
<text text-anchor="start" x="107.25" y="-167.5" font-family="Helvetica,sans-Serif" font-size="10.00">Cpl::Container::RingBuffer</text>
<text text-anchor="middle" x="163.12" y="-155.5" font-family="Helvetica,sans-Serif" font-size="10.00">&lt; ITEM &gt;</text>
</a>
</g>
</g>
<!-- Node4&#45;&gt;Node3 -->
<g id="edge3_Node000003_Node000004" class="edge">
<title>Node4&#45;&gt;Node3</title>
<g id="a_edge3_Node000003_Node000004"><a xlink:title=" ">
<path fill="none" stroke="orange" stroke-dasharray="5,2" d="M163.12,-137.37C163.12,-125.37 163.12,-111.63 163.12,-101.38"/>
<polygon fill="orange" stroke="orange" points="159.63,-137.08 163.13,-147.08 166.63,-137.08 159.63,-137.08"/>
</a>
</g>
<text text-anchor="middle" x="208.12" y="-121.5" font-family="Helvetica,sans-Serif" font-size="10.00" fill="grey"> &lt; FSM_EVENT_T &gt;</text>
</g>
</g>
</svg>
