<?xml version="1.0" encoding="UTF-8" standalone="no"?>
<!DOCTYPE svg PUBLIC "-//W3C//DTD SVG 1.1//EN"
 "http://www.w3.org/Graphics/SVG/1.1/DTD/svg11.dtd">
<!-- Generated by graphviz version 2.38.0 (20140413.2041)
 -->
<!-- Title: Cpl::Itc::AsyncReturnHandler Pages: 1 -->
<svg width="370pt" height="209pt"
 viewBox="0.00 0.00 369.50 209.00" xmlns="http://www.w3.org/2000/svg" xmlns:xlink="http://www.w3.org/1999/xlink">
<g id="graph0" class="graph" transform="scale(1 1) rotate(0) translate(4 205)">
<title>Cpl::Itc::AsyncReturnHandler</title>
<polygon fill="white" stroke="none" points="-4,4 -4,-205 365.5,-205 365.5,4 -4,4"/>
<!-- Node1 -->
<g id="node1" class="node"><title>Node1</title>
<g id="a_node1"><a xlink:title="This class implements an asynchronous ReturnHandler.">
<polygon fill="#bfbfbf" stroke="black" points="107.5,-0.5 107.5,-19.5 250.5,-19.5 250.5,-0.5 107.5,-0.5"/>
<text text-anchor="middle" x="179" y="-7.5" font-family="Helvetica,sans-Serif" font-size="10.00">Cpl::Itc::AsyncReturnHandler</text>
</a>
</g>
</g>
<!-- Node2 -->
<g id="node2" class="node"><title>Node2</title>
<g id="a_node2"><a xlink:href="class_cpl_1_1_itc_1_1_return_handler.html" target="_top" xlink:title="This abstract class represents the action that is executed by a server thread in response to the serv...">
<polygon fill="white" stroke="black" points="0,-67.5 0,-86.5 116,-86.5 116,-67.5 0,-67.5"/>
<text text-anchor="middle" x="58" y="-74.5" font-family="Helvetica,sans-Serif" font-size="10.00">Cpl::Itc::ReturnHandler</text>
</a>
</g>
</g>
<!-- Node2&#45;&gt;Node1 -->
<g id="edge1" class="edge"><title>Node2&#45;&gt;Node1</title>
<path fill="none" stroke="midnightblue" d="M83.2079,-62.4586C107.196,-49.5727 142.565,-30.5727 162.94,-19.6273"/>
<polygon fill="midnightblue" stroke="midnightblue" points="81.4717,-59.4182 74.3186,-67.2338 84.7843,-65.5847 81.4717,-59.4182"/>
</g>
<!-- Node3 -->
<g id="node3" class="node"><title>Node3</title>
<g id="a_node3"><a xlink:href="class_cpl_1_1_itc_1_1_post_api.html" target="_top" xlink:title="This abstract class represents the interface used to send messages to a mailbox.">
<polygon fill="white" stroke="black" points="134.5,-67.5 134.5,-86.5 223.5,-86.5 223.5,-67.5 134.5,-67.5"/>
<text text-anchor="middle" x="179" y="-74.5" font-family="Helvetica,sans-Serif" font-size="10.00">Cpl::Itc::PostApi</text>
</a>
</g>
</g>
<!-- Node3&#45;&gt;Node1 -->
<g id="edge2" class="edge"><title>Node3&#45;&gt;Node1</title>
<path fill="none" stroke="#9a32cd" stroke-dasharray="5,2" d="M179,-57.037C179,-44.6703 179,-29.1198 179,-19.6273"/>
<polygon fill="#9a32cd" stroke="#9a32cd" points="175.5,-57.2338 179,-67.2338 182.5,-57.2338 175.5,-57.2338"/>
<text text-anchor="middle" x="199.5" y="-41" font-family="Helvetica,sans-Serif" font-size="10.00"> m_mbox</text>
</g>
<!-- Node4 -->
<g id="node4" class="node"><title>Node4</title>
<g id="a_node4"><a xlink:href="class_cpl_1_1_itc_1_1_message.html" target="_top" xlink:title="This abstract class defines the operations for an ITC message.">
<polygon fill="white" stroke="black" points="242,-67.5 242,-86.5 336,-86.5 336,-67.5 242,-67.5"/>
<text text-anchor="middle" x="289" y="-74.5" font-family="Helvetica,sans-Serif" font-size="10.00">Cpl::Itc::Message</text>
</a>
</g>
</g>
<!-- Node4&#45;&gt;Node1 -->
<g id="edge3" class="edge"><title>Node4&#45;&gt;Node1</title>
<path fill="none" stroke="#9a32cd" stroke-dasharray="5,2" d="M265.502,-62.1151C243.709,-49.237 211.959,-30.4758 193.6,-19.6273"/>
<polygon fill="#9a32cd" stroke="#9a32cd" points="263.775,-65.1597 274.165,-67.2338 267.336,-59.1332 263.775,-65.1597"/>
<text text-anchor="middle" x="258" y="-41" font-family="Helvetica,sans-Serif" font-size="10.00"> m_msg</text>
</g>
<!-- Node5 -->
<g id="node5" class="node"><title>Node5</title>
<g id="a_node5"><a xlink:href="class_cpl_1_1_container_1_1_extended_item.html" target="_top" xlink:title="This class is used by the Container classes to implement a various types of DOUBLY linked containers.">
<polygon fill="white" stroke="black" points="216.5,-124.5 216.5,-143.5 361.5,-143.5 361.5,-124.5 216.5,-124.5"/>
<text text-anchor="middle" x="289" y="-131.5" font-family="Helvetica,sans-Serif" font-size="10.00">Cpl::Container::ExtendedItem</text>
</a>
</g>
</g>
<!-- Node5&#45;&gt;Node4 -->
<g id="edge4" class="edge"><title>Node5&#45;&gt;Node4</title>
<path fill="none" stroke="midnightblue" d="M289,-114.117C289,-104.817 289,-94.0557 289,-86.7149"/>
<polygon fill="midnightblue" stroke="midnightblue" points="285.5,-114.406 289,-124.406 292.5,-114.406 285.5,-114.406"/>
</g>
<!-- Node6 -->
<g id="node6" class="node"><title>Node6</title>
<g id="a_node6"><a xlink:href="class_cpl_1_1_container_1_1_item.html" target="_top" xlink:title="This class is used by the Container classes to implement a various types of singly linked containers.">
<polygon fill="white" stroke="black" points="237,-181.5 237,-200.5 341,-200.5 341,-181.5 237,-181.5"/>
<text text-anchor="middle" x="289" y="-188.5" font-family="Helvetica,sans-Serif" font-size="10.00">Cpl::Container::Item</text>
</a>
</g>
</g>
<!-- Node6&#45;&gt;Node5 -->
<g id="edge5" class="edge"><title>Node6&#45;&gt;Node5</title>
<path fill="none" stroke="midnightblue" d="M289,-171.117C289,-161.817 289,-151.056 289,-143.715"/>
<polygon fill="midnightblue" stroke="midnightblue" points="285.5,-171.406 289,-181.406 292.5,-171.406 285.5,-171.406"/>
</g>
</g>
</svg>
