<?xml version="1.0" encoding="UTF-8" standalone="no"?>
<!DOCTYPE svg PUBLIC "-//W3C//DTD SVG 1.1//EN"
 "http://www.w3.org/Graphics/SVG/1.1/DTD/svg11.dtd">
<!-- Generated by graphviz version 2.38.0 (20140413.2041)
 -->
<!-- Title: Cpl::Io::Ram::InputOutput Pages: 1 -->
<svg width="332pt" height="287pt"
 viewBox="0.00 0.00 332.00 287.00" xmlns="http://www.w3.org/2000/svg" xmlns:xlink="http://www.w3.org/1999/xlink">
<g id="graph0" class="graph" transform="scale(1 1) rotate(0) translate(4 283)">
<title>Cpl::Io::Ram::InputOutput</title>
<polygon fill="white" stroke="none" points="-4,4 -4,-283 328,-283 328,4 -4,4"/>
<!-- Node1 -->
<g id="node1" class="node"><title>Node1</title>
<g id="a_node1"><a xlink:title="This concrete class implements an InputOutput stream using a Ring Buffer.">
<polygon fill="#bfbfbf" stroke="black" points="108,-0.5 108,-19.5 236,-19.5 236,-0.5 108,-0.5"/>
<text text-anchor="middle" x="172" y="-7.5" font-family="Helvetica,sans-Serif" font-size="10.00">Cpl::Io::Ram::InputOutput</text>
</a>
</g>
</g>
<!-- Node2 -->
<g id="node2" class="node"><title>Node2</title>
<g id="a_node2"><a xlink:href="class_cpl_1_1_io_1_1_input_output.html" target="_top" xlink:title="This abstract class defines a interface for operating on an input&#45;output stream (example of a stream ...">
<polygon fill="white" stroke="black" points="0,-68.5 0,-87.5 102,-87.5 102,-68.5 0,-68.5"/>
<text text-anchor="middle" x="51" y="-75.5" font-family="Helvetica,sans-Serif" font-size="10.00">Cpl::Io::InputOutput</text>
</a>
</g>
</g>
<!-- Node2&#45;&gt;Node1 -->
<g id="edge1" class="edge"><title>Node2&#45;&gt;Node1</title>
<path fill="none" stroke="midnightblue" d="M75.7228,-63.5149C99.8093,-50.3767 135.703,-30.7981 156.177,-19.6305"/>
<polygon fill="midnightblue" stroke="midnightblue" points="73.9216,-60.5104 66.8186,-68.3717 77.2736,-66.6557 73.9216,-60.5104"/>
</g>
<!-- Node3 -->
<g id="node3" class="node"><title>Node3</title>
<g id="a_node3"><a xlink:href="class_cpl_1_1_io_1_1_input.html" target="_top" xlink:title="This partially abstract class defines a interface for operating on an input stream (example of a stre...">
<polygon fill="white" stroke="black" points="14.5,-145.5 14.5,-164.5 87.5,-164.5 87.5,-145.5 14.5,-145.5"/>
<text text-anchor="middle" x="51" y="-152.5" font-family="Helvetica,sans-Serif" font-size="10.00">Cpl::Io::Input</text>
</a>
</g>
</g>
<!-- Node3&#45;&gt;Node2 -->
<g id="edge2" class="edge"><title>Node3&#45;&gt;Node2</title>
<path fill="none" stroke="midnightblue" d="M51,-135.023C51,-119.741 51,-98.9778 51,-87.5031"/>
<polygon fill="midnightblue" stroke="midnightblue" points="47.5001,-135.397 51,-145.397 54.5001,-135.397 47.5001,-135.397"/>
</g>
<!-- Node4 -->
<g id="node4" class="node"><title>Node4</title>
<g id="a_node4"><a xlink:href="class_cpl_1_1_io_1_1_close.html" target="_top" xlink:title="This abstract class defines a close operation that is intended to be used Input and Output streams/fi...">
<polygon fill="white" stroke="black" points="108,-202.5 108,-221.5 184,-221.5 184,-202.5 108,-202.5"/>
<text text-anchor="middle" x="146" y="-209.5" font-family="Helvetica,sans-Serif" font-size="10.00">Cpl::Io::Close</text>
</a>
</g>
</g>
<!-- Node4&#45;&gt;Node3 -->
<g id="edge3" class="edge"><title>Node4&#45;&gt;Node3</title>
<path fill="none" stroke="midnightblue" d="M122.499,-197.394C104.735,-187.11 80.8979,-173.309 65.7395,-164.533"/>
<polygon fill="midnightblue" stroke="midnightblue" points="120.748,-200.425 131.156,-202.406 124.256,-194.367 120.748,-200.425"/>
</g>
<!-- Node7 -->
<g id="node7" class="node"><title>Node7</title>
<g id="a_node7"><a xlink:href="class_cpl_1_1_io_1_1_output.html" target="_top" xlink:title="This partially abstract class defines a interface for operating on an output stream (example of a str...">
<polygon fill="white" stroke="black" points="106,-145.5 106,-164.5 186,-164.5 186,-145.5 106,-145.5"/>
<text text-anchor="middle" x="146" y="-152.5" font-family="Helvetica,sans-Serif" font-size="10.00">Cpl::Io::Output</text>
</a>
</g>
</g>
<!-- Node4&#45;&gt;Node7 -->
<g id="edge7" class="edge"><title>Node4&#45;&gt;Node7</title>
<path fill="none" stroke="midnightblue" d="M146,-192.117C146,-182.817 146,-172.056 146,-164.715"/>
<polygon fill="midnightblue" stroke="midnightblue" points="142.5,-192.406 146,-202.406 149.5,-192.406 142.5,-192.406"/>
</g>
<!-- Node5 -->
<g id="node5" class="node"><title>Node5</title>
<g id="a_node5"><a xlink:href="class_cpl_1_1_container_1_1_item.html" target="_top" xlink:title="This class is used by the Container classes to implement a various types of singly linked containers.">
<polygon fill="white" stroke="black" points="161,-259.5 161,-278.5 265,-278.5 265,-259.5 161,-259.5"/>
<text text-anchor="middle" x="213" y="-266.5" font-family="Helvetica,sans-Serif" font-size="10.00">Cpl::Container::Item</text>
</a>
</g>
</g>
<!-- Node5&#45;&gt;Node4 -->
<g id="edge4" class="edge"><title>Node5&#45;&gt;Node4</title>
<path fill="none" stroke="midnightblue" d="M194.725,-252.998C182.499,-242.962 166.836,-230.104 156.616,-221.715"/>
<polygon fill="midnightblue" stroke="midnightblue" points="192.581,-255.767 202.531,-259.406 197.023,-250.356 192.581,-255.767"/>
</g>
<!-- Node10 -->
<g id="node10" class="node"><title>Node10</title>
<g id="a_node10"><a xlink:href="class_cpl_1_1_system_1_1_signable.html" target="_top" xlink:title="This abstract class defines the interface by which a client can cause an object that is waiting&#45;on&#45;a&#45;...">
<polygon fill="white" stroke="black" points="202,-202.5 202,-221.5 316,-221.5 316,-202.5 202,-202.5"/>
<text text-anchor="middle" x="259" y="-209.5" font-family="Helvetica,sans-Serif" font-size="10.00">Cpl::System::Signable</text>
</a>
</g>
</g>
<!-- Node5&#45;&gt;Node10 -->
<g id="edge12" class="edge"><title>Node5&#45;&gt;Node10</title>
<path fill="none" stroke="midnightblue" d="M226.773,-251.532C234.966,-241.736 245.032,-229.701 251.711,-221.715"/>
<polygon fill="midnightblue" stroke="midnightblue" points="223.918,-249.49 220.188,-259.406 229.288,-253.981 223.918,-249.49"/>
</g>
<!-- Node6 -->
<g id="node6" class="node"><title>Node6</title>
<g id="a_node6"><a xlink:href="class_cpl_1_1_io_1_1_is_eos.html" target="_top" xlink:title="This abstract class defines a isEos() operation that is intended to be used Input and Output streams.">
<polygon fill="white" stroke="black" points="12.5,-202.5 12.5,-221.5 89.5,-221.5 89.5,-202.5 12.5,-202.5"/>
<text text-anchor="middle" x="51" y="-209.5" font-family="Helvetica,sans-Serif" font-size="10.00">Cpl::Io::IsEos</text>
</a>
</g>
</g>
<!-- Node6&#45;&gt;Node3 -->
<g id="edge5" class="edge"><title>Node6&#45;&gt;Node3</title>
<path fill="none" stroke="midnightblue" d="M51,-192.117C51,-182.817 51,-172.056 51,-164.715"/>
<polygon fill="midnightblue" stroke="midnightblue" points="47.5001,-192.406 51,-202.406 54.5001,-192.406 47.5001,-192.406"/>
</g>
<!-- Node6&#45;&gt;Node7 -->
<g id="edge8" class="edge"><title>Node6&#45;&gt;Node7</title>
<path fill="none" stroke="midnightblue" d="M74.5013,-197.394C92.2649,-187.11 116.102,-173.309 131.26,-164.533"/>
<polygon fill="midnightblue" stroke="midnightblue" points="72.7444,-194.367 65.8438,-202.406 76.2517,-200.425 72.7444,-194.367"/>
</g>
<!-- Node7&#45;&gt;Node2 -->
<g id="edge6" class="edge"><title>Node7&#45;&gt;Node2</title>
<path fill="none" stroke="midnightblue" d="M127.175,-139.139C107.606,-123.689 77.6589,-100.047 61.7706,-87.5031"/>
<polygon fill="midnightblue" stroke="midnightblue" points="125.085,-141.947 135.102,-145.397 129.422,-136.453 125.085,-141.947"/>
</g>
<!-- Node8 -->
<g id="node8" class="node"><title>Node8</title>
<g id="a_node8"><a xlink:href="class_cpl_1_1_system_1_1_mutex.html" target="_top" xlink:title="This mutex class defines the interface for a mutex that has &quot;recursive&quot; semantics.">
<polygon fill="white" stroke="black" points="120,-68.5 120,-87.5 224,-87.5 224,-68.5 120,-68.5"/>
<text text-anchor="middle" x="172" y="-75.5" font-family="Helvetica,sans-Serif" font-size="10.00">Cpl::System::Mutex</text>
</a>
</g>
</g>
<!-- Node8&#45;&gt;Node1 -->
<g id="edge9" class="edge"><title>Node8&#45;&gt;Node1</title>
<path fill="none" stroke="#9a32cd" stroke-dasharray="5,2" d="M172,-58.0413C172,-45.4724 172,-29.5631 172,-19.8411"/>
<polygon fill="#9a32cd" stroke="#9a32cd" points="168.5,-58.3716 172,-68.3717 175.5,-58.3717 168.5,-58.3716"/>
<text text-anchor="middle" x="189.5" y="-41" font-family="Helvetica,sans-Serif" font-size="10.00"> m_lock</text>
</g>
<!-- Node9 -->
<g id="node9" class="node"><title>Node9</title>
<g id="a_node9"><a xlink:href="class_cpl_1_1_system_1_1_semaphore.html" target="_top" xlink:title="This semaphore class defines the interface for a Counting Semaphore.">
<polygon fill="white" stroke="black" points="196,-107.5 196,-126.5 322,-126.5 322,-107.5 196,-107.5"/>
<text text-anchor="middle" x="259" y="-114.5" font-family="Helvetica,sans-Serif" font-size="10.00">Cpl::System::Semaphore</text>
</a>
</g>
</g>
<!-- Node9&#45;&gt;Node1 -->
<g id="edge10" class="edge"><title>Node9&#45;&gt;Node1</title>
<path fill="none" stroke="#9a32cd" stroke-dasharray="5,2" d="M251.16,-97.8849C243.061,-80.8011 229.071,-55.3021 211,-38 203.743,-31.0518 194.546,-24.5941 186.905,-19.7374"/>
<polygon fill="#9a32cd" stroke="#9a32cd" points="248.106,-99.6256 255.425,-107.286 254.481,-96.7333 248.106,-99.6256"/>
<text text-anchor="middle" x="285.5" y="-81" font-family="Helvetica,sans-Serif" font-size="10.00"> m_semaReaders</text>
<text text-anchor="middle" x="285.5" y="-70" font-family="Helvetica,sans-Serif" font-size="10.00">m_semaWriters</text>
</g>
<!-- Node10&#45;&gt;Node9 -->
<g id="edge11" class="edge"><title>Node10&#45;&gt;Node9</title>
<path fill="none" stroke="midnightblue" d="M259,-192.343C259,-172.331 259,-141.426 259,-126.562"/>
<polygon fill="midnightblue" stroke="midnightblue" points="255.5,-192.417 259,-202.417 262.5,-192.418 255.5,-192.417"/>
</g>
</g>
</svg>
