<?xml version="1.0" encoding="UTF-8" standalone="no"?>
<!DOCTYPE svg PUBLIC "-//W3C//DTD SVG 1.1//EN"
 "http://www.w3.org/Graphics/SVG/1.1/DTD/svg11.dtd">
<!-- Generated by graphviz version 2.38.0 (20140413.2041)
 -->
<!-- Title: Storm::Dm::MpEquipmentBeginTimes Pages: 1 -->
<svg width="163pt" height="375pt"
 viewBox="0.00 0.00 163.00 375.00" xmlns="http://www.w3.org/2000/svg" xmlns:xlink="http://www.w3.org/1999/xlink">
<g id="graph0" class="graph" transform="scale(1 1) rotate(0) translate(4 371)">
<title>Storm::Dm::MpEquipmentBeginTimes</title>
<polygon fill="white" stroke="none" points="-4,4 -4,-371 159,-371 159,4 -4,4"/>
<!-- Node1 -->
<g id="node1" class="node"><title>Node1</title>
<g id="a_node1"><a xlink:title="This class provides a concrete implementation for Model Point with a type of Storm::Type::EquipmentTi...">
<polygon fill="#bfbfbf" stroke="black" points="0,-0.5 0,-30.5 155,-30.5 155,-0.5 0,-0.5"/>
<text text-anchor="start" x="8" y="-18.5" font-family="Helvetica,sans-Serif" font-size="10.00">Storm::Dm::MpEquipmentBegin</text>
<text text-anchor="middle" x="77.5" y="-7.5" font-family="Helvetica,sans-Serif" font-size="10.00">Times</text>
</a>
</g>
</g>
<!-- Node2 -->
<g id="node2" class="node"><title>Node2</title>
<g id="a_node2"><a xlink:href="class_cpl_1_1_dm_1_1_model_point_common__.html" target="_top" xlink:title="This concrete class provide common infrastructure for a Model Point.">
<polygon fill="white" stroke="black" points="2,-67.5 2,-86.5 153,-86.5 153,-67.5 2,-67.5"/>
<text text-anchor="middle" x="77.5" y="-74.5" font-family="Helvetica,sans-Serif" font-size="10.00">Cpl::Dm::ModelPointCommon_</text>
</a>
</g>
</g>
<!-- Node2&#45;&gt;Node1 -->
<g id="edge1" class="edge"><title>Node2&#45;&gt;Node1</title>
<path fill="none" stroke="midnightblue" d="M77.5,-57.2349C77.5,-48.5864 77.5,-38.4969 77.5,-30.523"/>
<polygon fill="midnightblue" stroke="midnightblue" points="74.0001,-57.4751 77.5,-67.4751 81.0001,-57.4751 74.0001,-57.4751"/>
</g>
<!-- Node3 -->
<g id="node3" class="node"><title>Node3</title>
<g id="a_node3"><a xlink:href="class_cpl_1_1_dm_1_1_model_point.html" target="_top" xlink:title="This mostly abstract class defines the interface for a Model Point.">
<polygon fill="white" stroke="black" points="24,-123.5 24,-142.5 131,-142.5 131,-123.5 24,-123.5"/>
<text text-anchor="middle" x="77.5" y="-130.5" font-family="Helvetica,sans-Serif" font-size="10.00">Cpl::Dm::ModelPoint</text>
</a>
</g>
</g>
<!-- Node3&#45;&gt;Node2 -->
<g id="edge2" class="edge"><title>Node3&#45;&gt;Node2</title>
<path fill="none" stroke="midnightblue" d="M77.5,-112.805C77.5,-103.91 77.5,-93.7798 77.5,-86.7511"/>
<polygon fill="midnightblue" stroke="midnightblue" points="74.0001,-113.083 77.5,-123.083 81.0001,-113.083 74.0001,-113.083"/>
</g>
<!-- Node4 -->
<g id="node4" class="node"><title>Node4</title>
<g id="a_node4"><a xlink:href="class_cpl_1_1_container_1_1_map_item.html" target="_top" xlink:title="This abstract class represents a item that can be contained in an Map (aka a sorted list implemented ...">
<polygon fill="white" stroke="black" points="16.5,-179.5 16.5,-198.5 138.5,-198.5 138.5,-179.5 16.5,-179.5"/>
<text text-anchor="middle" x="77.5" y="-186.5" font-family="Helvetica,sans-Serif" font-size="10.00">Cpl::Container::MapItem</text>
</a>
</g>
</g>
<!-- Node4&#45;&gt;Node3 -->
<g id="edge3" class="edge"><title>Node4&#45;&gt;Node3</title>
<path fill="none" stroke="midnightblue" d="M77.5,-168.805C77.5,-159.91 77.5,-149.78 77.5,-142.751"/>
<polygon fill="midnightblue" stroke="midnightblue" points="74.0001,-169.083 77.5,-179.083 81.0001,-169.083 74.0001,-169.083"/>
</g>
<!-- Node5 -->
<g id="node5" class="node"><title>Node5</title>
<g id="a_node5"><a xlink:href="class_cpl_1_1_container_1_1_dict_item.html" target="_top" xlink:title="This abstract class represents a item that can be contained in Dictionary.">
<polygon fill="white" stroke="black" points="17,-235.5 17,-254.5 138,-254.5 138,-235.5 17,-235.5"/>
<text text-anchor="middle" x="77.5" y="-242.5" font-family="Helvetica,sans-Serif" font-size="10.00">Cpl::Container::DictItem</text>
</a>
</g>
</g>
<!-- Node5&#45;&gt;Node4 -->
<g id="edge4" class="edge"><title>Node5&#45;&gt;Node4</title>
<path fill="none" stroke="midnightblue" d="M77.5,-224.805C77.5,-215.91 77.5,-205.78 77.5,-198.751"/>
<polygon fill="midnightblue" stroke="midnightblue" points="74.0001,-225.083 77.5,-235.083 81.0001,-225.083 74.0001,-225.083"/>
</g>
<!-- Node6 -->
<g id="node6" class="node"><title>Node6</title>
<g id="a_node6"><a xlink:href="class_cpl_1_1_container_1_1_extended_item.html" target="_top" xlink:title="This class is used by the Container classes to implement a various types of DOUBLY linked containers.">
<polygon fill="white" stroke="black" points="5,-291.5 5,-310.5 150,-310.5 150,-291.5 5,-291.5"/>
<text text-anchor="middle" x="77.5" y="-298.5" font-family="Helvetica,sans-Serif" font-size="10.00">Cpl::Container::ExtendedItem</text>
</a>
</g>
</g>
<!-- Node6&#45;&gt;Node5 -->
<g id="edge5" class="edge"><title>Node6&#45;&gt;Node5</title>
<path fill="none" stroke="midnightblue" d="M77.5,-280.805C77.5,-271.91 77.5,-261.78 77.5,-254.751"/>
<polygon fill="midnightblue" stroke="midnightblue" points="74.0001,-281.083 77.5,-291.083 81.0001,-281.083 74.0001,-281.083"/>
</g>
<!-- Node7 -->
<g id="node7" class="node"><title>Node7</title>
<g id="a_node7"><a xlink:href="class_cpl_1_1_container_1_1_item.html" target="_top" xlink:title="This class is used by the Container classes to implement a various types of singly linked containers.">
<polygon fill="white" stroke="black" points="25.5,-347.5 25.5,-366.5 129.5,-366.5 129.5,-347.5 25.5,-347.5"/>
<text text-anchor="middle" x="77.5" y="-354.5" font-family="Helvetica,sans-Serif" font-size="10.00">Cpl::Container::Item</text>
</a>
</g>
</g>
<!-- Node7&#45;&gt;Node6 -->
<g id="edge6" class="edge"><title>Node7&#45;&gt;Node6</title>
<path fill="none" stroke="midnightblue" d="M77.5,-336.805C77.5,-327.91 77.5,-317.78 77.5,-310.751"/>
<polygon fill="midnightblue" stroke="midnightblue" points="74.0001,-337.083 77.5,-347.083 81.0001,-337.083 74.0001,-337.083"/>
</g>
</g>
</svg>
