<?xml version="1.0" encoding="UTF-8" standalone="no"?>
<!DOCTYPE svg PUBLIC "-//W3C//DTD SVG 1.1//EN"
 "http://www.w3.org/Graphics/SVG/1.1/DTD/svg11.dtd">
<!-- Generated by graphviz version 2.38.0 (20140413.2041)
 -->
<!-- Title: Cpl::TShell::Cmd::Tick Pages: 1 -->
<svg width="287pt" height="402pt"
 viewBox="0.00 0.00 287.00 402.00" xmlns="http://www.w3.org/2000/svg" xmlns:xlink="http://www.w3.org/1999/xlink">
<g id="graph0" class="graph" transform="scale(1 1) rotate(0) translate(4 398)">
<title>Cpl::TShell::Cmd::Tick</title>
<polygon fill="white" stroke="none" points="-4,4 -4,-398 283,-398 283,4 -4,4"/>
<!-- Node1 -->
<g id="node1" class="node"><title>Node1</title>
<g id="a_node1"><a xlink:title="This class implements a Shell command.">
<polygon fill="#bfbfbf" stroke="black" points="98.5,-0.5 98.5,-19.5 214.5,-19.5 214.5,-0.5 98.5,-0.5"/>
<text text-anchor="middle" x="156.5" y="-7.5" font-family="Helvetica,sans-Serif" font-size="10.00">Cpl::TShell::Cmd::Tick</text>
</a>
</g>
</g>
<!-- Node2 -->
<g id="node2" class="node"><title>Node2</title>
<g id="a_node2"><a xlink:href="class_cpl_1_1_t_shell_1_1_cmd_1_1_command.html" target="_top" xlink:title="This partially concrete class implements infrastructure and/or common functionality for a Shell comma...">
<polygon fill="white" stroke="black" points="86,-57.5 86,-76.5 227,-76.5 227,-57.5 86,-57.5"/>
<text text-anchor="middle" x="156.5" y="-64.5" font-family="Helvetica,sans-Serif" font-size="10.00">Cpl::TShell::Cmd::Command</text>
</a>
</g>
</g>
<!-- Node2&#45;&gt;Node1 -->
<g id="edge1" class="edge"><title>Node2&#45;&gt;Node1</title>
<path fill="none" stroke="midnightblue" d="M156.5,-47.1166C156.5,-37.8173 156.5,-27.0557 156.5,-19.7149"/>
<polygon fill="midnightblue" stroke="midnightblue" points="153,-47.4062 156.5,-57.4063 160,-47.4063 153,-47.4062"/>
</g>
<!-- Node3 -->
<g id="node3" class="node"><title>Node3</title>
<g id="a_node3"><a xlink:href="class_cpl_1_1_t_shell_1_1_command.html" target="_top" xlink:title="This class defines the interface for a TShell command.">
<polygon fill="white" stroke="black" points="16,-130 16,-149 131,-149 131,-130 16,-130"/>
<text text-anchor="middle" x="73.5" y="-137" font-family="Helvetica,sans-Serif" font-size="10.00">Cpl::TShell::Command</text>
</a>
</g>
</g>
<!-- Node3&#45;&gt;Node2 -->
<g id="edge2" class="edge"><title>Node3&#45;&gt;Node2</title>
<path fill="none" stroke="midnightblue" d="M91.6482,-123.085C108.384,-108.87 132.63,-88.2747 146.239,-76.7154"/>
<polygon fill="midnightblue" stroke="midnightblue" points="89.0333,-120.714 83.6774,-129.855 93.565,-126.049 89.0333,-120.714"/>
</g>
<!-- Node4 -->
<g id="node4" class="node"><title>Node4</title>
<g id="a_node4"><a xlink:href="class_cpl_1_1_container_1_1_map_item.html" target="_top" xlink:title="This abstract class represents a item that can be contained in an Map (aka a sorted list implemented ...">
<polygon fill="white" stroke="black" points="11.5,-198 11.5,-217 133.5,-217 133.5,-198 11.5,-198"/>
<text text-anchor="middle" x="72.5" y="-205" font-family="Helvetica,sans-Serif" font-size="10.00">Cpl::Container::MapItem</text>
</a>
</g>
</g>
<!-- Node4&#45;&gt;Node3 -->
<g id="edge3" class="edge"><title>Node4&#45;&gt;Node3</title>
<path fill="none" stroke="midnightblue" d="M72.7873,-187.541C72.9777,-174.972 73.2187,-159.063 73.366,-149.341"/>
<polygon fill="midnightblue" stroke="midnightblue" points="69.2827,-187.82 72.6307,-197.872 76.2819,-187.926 69.2827,-187.82"/>
</g>
<!-- Node5 -->
<g id="node5" class="node"><title>Node5</title>
<g id="a_node5"><a xlink:href="class_cpl_1_1_container_1_1_dict_item.html" target="_top" xlink:title="This abstract class represents a item that can be contained in Dictionary.">
<polygon fill="white" stroke="black" points="12,-260.5 12,-279.5 133,-279.5 133,-260.5 12,-260.5"/>
<text text-anchor="middle" x="72.5" y="-267.5" font-family="Helvetica,sans-Serif" font-size="10.00">Cpl::Container::DictItem</text>
</a>
</g>
</g>
<!-- Node5&#45;&gt;Node4 -->
<g id="edge4" class="edge"><title>Node5&#45;&gt;Node4</title>
<path fill="none" stroke="midnightblue" d="M72.5,-250.003C72.5,-239 72.5,-225.682 72.5,-217.152"/>
<polygon fill="midnightblue" stroke="midnightblue" points="69.0001,-250.332 72.5,-260.332 76.0001,-250.332 69.0001,-250.332"/>
</g>
<!-- Node6 -->
<g id="node6" class="node"><title>Node6</title>
<g id="a_node6"><a xlink:href="class_cpl_1_1_container_1_1_extended_item.html" target="_top" xlink:title="This class is used by the Container classes to implement a various types of DOUBLY linked containers.">
<polygon fill="white" stroke="black" points="0,-317.5 0,-336.5 145,-336.5 145,-317.5 0,-317.5"/>
<text text-anchor="middle" x="72.5" y="-324.5" font-family="Helvetica,sans-Serif" font-size="10.00">Cpl::Container::ExtendedItem</text>
</a>
</g>
</g>
<!-- Node6&#45;&gt;Node5 -->
<g id="edge5" class="edge"><title>Node6&#45;&gt;Node5</title>
<path fill="none" stroke="midnightblue" d="M72.5,-307.117C72.5,-297.817 72.5,-287.056 72.5,-279.715"/>
<polygon fill="midnightblue" stroke="midnightblue" points="69.0001,-307.406 72.5,-317.406 76.0001,-307.406 69.0001,-307.406"/>
</g>
<!-- Node7 -->
<g id="node7" class="node"><title>Node7</title>
<g id="a_node7"><a xlink:href="class_cpl_1_1_container_1_1_item.html" target="_top" xlink:title="This class is used by the Container classes to implement a various types of singly linked containers.">
<polygon fill="white" stroke="black" points="20.5,-374.5 20.5,-393.5 124.5,-393.5 124.5,-374.5 20.5,-374.5"/>
<text text-anchor="middle" x="72.5" y="-381.5" font-family="Helvetica,sans-Serif" font-size="10.00">Cpl::Container::Item</text>
</a>
</g>
</g>
<!-- Node7&#45;&gt;Node6 -->
<g id="edge6" class="edge"><title>Node7&#45;&gt;Node6</title>
<path fill="none" stroke="midnightblue" d="M72.5,-364.117C72.5,-354.817 72.5,-344.056 72.5,-336.715"/>
<polygon fill="midnightblue" stroke="midnightblue" points="69.0001,-364.406 72.5,-374.406 76.0001,-364.406 69.0001,-364.406"/>
</g>
<!-- Node8 -->
<g id="node8" class="node"><title>Node8</title>
<g id="a_node8"><a xlink:href="class_cpl_1_1_container_1_1_key_literal_string.html" target="_top" xlink:title="This class provides a &#39;Key&#39; wrapper for a C string literal.">
<polygon fill="white" stroke="black" points="149.5,-124.5 149.5,-154.5 277.5,-154.5 277.5,-124.5 149.5,-124.5"/>
<text text-anchor="start" x="157.5" y="-142.5" font-family="Helvetica,sans-Serif" font-size="10.00">Cpl::Container::KeyLiteral</text>
<text text-anchor="middle" x="213.5" y="-131.5" font-family="Helvetica,sans-Serif" font-size="10.00">String</text>
</a>
</g>
</g>
<!-- Node8&#45;&gt;Node2 -->
<g id="edge7" class="edge"><title>Node8&#45;&gt;Node2</title>
<path fill="none" stroke="#9a32cd" stroke-dasharray="5,2" d="M195.619,-116.385C184.827,-103.036 171.664,-86.7556 163.69,-76.8932"/>
<polygon fill="#9a32cd" stroke="#9a32cd" points="192.956,-118.657 201.965,-124.233 198.4,-114.256 192.956,-118.657"/>
<text text-anchor="middle" x="214" y="-98" font-family="Helvetica,sans-Serif" font-size="10.00"> m_mapKey</text>
</g>
<!-- Node9 -->
<g id="node9" class="node"><title>Node9</title>
<g id="a_node9"><a xlink:href="class_cpl_1_1_container_1_1_key_string_buffer.html" target="_top" xlink:title="This class provides a &#39;Key&#39; wrapper for a array of Character of length N, i.e.">
<polygon fill="white" stroke="black" points="152,-192.5 152,-222.5 279,-222.5 279,-192.5 152,-192.5"/>
<text text-anchor="start" x="160" y="-210.5" font-family="Helvetica,sans-Serif" font-size="10.00">Cpl::Container::KeyString</text>
<text text-anchor="middle" x="215.5" y="-199.5" font-family="Helvetica,sans-Serif" font-size="10.00">Buffer</text>
</a>
</g>
</g>
<!-- Node9&#45;&gt;Node8 -->
<g id="edge8" class="edge"><title>Node9&#45;&gt;Node8</title>
<path fill="none" stroke="midnightblue" d="M214.759,-182.032C214.481,-172.861 214.174,-162.745 213.933,-154.793"/>
<polygon fill="midnightblue" stroke="midnightblue" points="211.265,-182.29 215.066,-192.179 218.261,-182.078 211.265,-182.29"/>
</g>
<!-- Node10 -->
<g id="node10" class="node"><title>Node10</title>
<g id="a_node10"><a xlink:href="class_cpl_1_1_container_1_1_key.html" target="_top" xlink:title="This abstract class defines the interface that a contained object must support if it has comparable k...">
<polygon fill="white" stroke="black" points="165,-260.5 165,-279.5 266,-279.5 266,-260.5 165,-260.5"/>
<text text-anchor="middle" x="215.5" y="-267.5" font-family="Helvetica,sans-Serif" font-size="10.00">Cpl::Container::Key</text>
</a>
</g>
</g>
<!-- Node10&#45;&gt;Node9 -->
<g id="edge9" class="edge"><title>Node10&#45;&gt;Node9</title>
<path fill="none" stroke="midnightblue" d="M215.5,-250.215C215.5,-241.356 215.5,-230.958 215.5,-222.759"/>
<polygon fill="midnightblue" stroke="midnightblue" points="212,-250.332 215.5,-260.332 219,-250.332 212,-250.332"/>
</g>
</g>
</svg>
