<?xml version="1.0" encoding="UTF-8" standalone="no"?>
<!DOCTYPE svg PUBLIC "-//W3C//DTD SVG 1.1//EN"
 "http://www.w3.org/Graphics/SVG/1.1/DTD/svg11.dtd">
<!-- Generated by graphviz version 10.0.1 (20240210.2158)
 -->
<!-- Title: Cpl::Io::File::ObjectApi Pages: 1 -->
<svg width="373pt" height="196pt"
 viewBox="0.00 0.00 372.62 196.00" xmlns="http://www.w3.org/2000/svg" xmlns:xlink="http://www.w3.org/1999/xlink">
<g id="graph0" class="graph" transform="scale(1 1) rotate(0) translate(4 192)">
<title>Cpl::Io::File::ObjectApi</title>
<!-- Node1 -->
<g id="Node000001" class="node">
<title>Node1</title>
<g id="a_Node000001"><a xlink:title="This abstract class defines the basic additional functionality, beyond that of a stream,...">
<polygon fill="#999999" stroke="#666666" points="234.38,-188 120.12,-188 120.12,-168 234.38,-168 234.38,-188"/>
<text text-anchor="middle" x="177.25" y="-174.5" font-family="Helvetica,sans-Serif" font-size="10.00">Cpl::Io::File::ObjectApi</text>
</a>
</g>
</g>
<!-- Node2 -->
<g id="Node000002" class="node">
<title>Node2</title>
<g id="a_Node000002"><a xlink:href="class_cpl_1_1_io_1_1_file_1_1_input_api.html" target="_top" xlink:title="This abstract class defines the interface for a Random Access Input File.">
<polygon fill="white" stroke="#666666" points="166.62,-132 59.88,-132 59.88,-112 166.62,-112 166.62,-132"/>
<text text-anchor="middle" x="113.25" y="-118.5" font-family="Helvetica,sans-Serif" font-size="10.00">Cpl::Io::File::InputApi</text>
</a>
</g>
</g>
<!-- Node1&#45;&gt;Node2 -->
<g id="edge1_Node000001_Node000002" class="edge">
<title>Node1&#45;&gt;Node2</title>
<g id="a_edge1_Node000001_Node000002"><a xlink:title=" ">
<path fill="none" stroke="#63b8ff" d="M157.58,-160.4C146.63,-151.17 133.41,-140.01 124.27,-132.3"/>
<polygon fill="#63b8ff" stroke="#63b8ff" points="155.05,-162.84 164.95,-166.62 159.56,-157.49 155.05,-162.84"/>
</a>
</g>
</g>
<!-- Node7 -->
<g id="Node000007" class="node">
<title>Node7</title>
<g id="a_Node000007"><a xlink:href="class_cpl_1_1_io_1_1_file_1_1_output_api.html" target="_top" xlink:title="This abstract class defines the interface for a Random Access Input File.">
<polygon fill="white" stroke="#666666" points="299.75,-132 184.75,-132 184.75,-112 299.75,-112 299.75,-132"/>
<text text-anchor="middle" x="242.25" y="-118.5" font-family="Helvetica,sans-Serif" font-size="10.00">Cpl::Io::File::OutputApi</text>
</a>
</g>
</g>
<!-- Node1&#45;&gt;Node7 -->
<g id="edge6_Node000001_Node000007" class="edge">
<title>Node1&#45;&gt;Node7</title>
<g id="a_edge6_Node000001_Node000007"><a xlink:title=" ">
<path fill="none" stroke="#63b8ff" d="M197.23,-160.4C208.35,-151.17 221.78,-140.01 231.06,-132.3"/>
<polygon fill="#63b8ff" stroke="#63b8ff" points="195.19,-157.54 189.74,-166.63 199.66,-162.93 195.19,-157.54"/>
</a>
</g>
</g>
<!-- Node3 -->
<g id="Node000003" class="node">
<title>Node3</title>
<g id="a_Node000003"><a xlink:href="class_cpl_1_1_io_1_1_file_1_1_input.html" target="_top" xlink:title="This concrete class provides a platform independent &#39;standard&#39; implementation of a Cpl::Io::File::Inp...">
<polygon fill="white" stroke="#666666" points="92.5,-76 0,-76 0,-56 92.5,-56 92.5,-76"/>
<text text-anchor="middle" x="46.25" y="-62.5" font-family="Helvetica,sans-Serif" font-size="10.00">Cpl::Io::File::Input</text>
</a>
</g>
</g>
<!-- Node2&#45;&gt;Node3 -->
<g id="edge2_Node000002_Node000003" class="edge">
<title>Node2&#45;&gt;Node3</title>
<g id="a_edge2_Node000002_Node000003"><a xlink:title=" ">
<path fill="none" stroke="#63b8ff" d="M92.66,-104.4C81.2,-95.17 67.35,-84.01 57.79,-76.3"/>
<polygon fill="#63b8ff" stroke="#63b8ff" points="90.42,-107.09 100.4,-110.64 94.81,-101.64 90.42,-107.09"/>
</a>
</g>
</g>
<!-- Node4 -->
<g id="Node000004" class="node">
<title>Node4</title>
<g id="a_Node000004"><a xlink:href="class_cpl_1_1_io_1_1_file_1_1_input_output_api.html" target="_top" xlink:title="This abstract class defines the interface for a Random Access Input Output File.">
<polygon fill="white" stroke="#666666" points="246.25,-76 110.25,-76 110.25,-56 246.25,-56 246.25,-76"/>
<text text-anchor="middle" x="178.25" y="-62.5" font-family="Helvetica,sans-Serif" font-size="10.00">Cpl::Io::File::InputOutputApi</text>
</a>
</g>
</g>
<!-- Node2&#45;&gt;Node4 -->
<g id="edge3_Node000002_Node000004" class="edge">
<title>Node2&#45;&gt;Node4</title>
<g id="a_edge3_Node000002_Node000004"><a xlink:title=" ">
<path fill="none" stroke="#63b8ff" d="M133.23,-104.4C144.35,-95.17 157.78,-84.01 167.06,-76.3"/>
<polygon fill="#63b8ff" stroke="#63b8ff" points="131.19,-101.54 125.74,-110.63 135.66,-106.93 131.19,-101.54"/>
</a>
</g>
</g>
<!-- Node5 -->
<g id="Node000005" class="node">
<title>Node5</title>
<g id="a_Node000005"><a xlink:href="class_cpl_1_1_io_1_1_file_1_1_input_output.html" target="_top" xlink:title="This concrete class provides a platform independent &#39;standard&#39; implementation of an InputOutputFileAp...">
<polygon fill="white" stroke="#666666" points="178.12,-20 56.37,-20 56.37,0 178.12,0 178.12,-20"/>
<text text-anchor="middle" x="117.25" y="-6.5" font-family="Helvetica,sans-Serif" font-size="10.00">Cpl::Io::File::InputOutput</text>
</a>
</g>
</g>
<!-- Node4&#45;&gt;Node5 -->
<g id="edge4_Node000004_Node000005" class="edge">
<title>Node4&#45;&gt;Node5</title>
<g id="a_edge4_Node000004_Node000005"><a xlink:title=" ">
<path fill="none" stroke="#63b8ff" d="M159.19,-48.13C148.81,-38.94 136.38,-27.93 127.75,-20.3"/>
<polygon fill="#63b8ff" stroke="#63b8ff" points="156.68,-50.58 166.49,-54.59 161.32,-45.34 156.68,-50.58"/>
</a>
</g>
</g>
<!-- Node6 -->
<g id="Node000006" class="node">
<title>Node6</title>
<g id="a_Node000006"><a xlink:href="class_cpl_1_1_io_1_1_file_1_1_null.html" target="_top" xlink:title="This concrete class implements a NULL InputOutputApi File that all of its input operations return &#39;En...">
<polygon fill="white" stroke="#666666" points="284.25,-20 196.25,-20 196.25,0 284.25,0 284.25,-20"/>
<text text-anchor="middle" x="240.25" y="-6.5" font-family="Helvetica,sans-Serif" font-size="10.00">Cpl::Io::File::Null</text>
</a>
</g>
</g>
<!-- Node4&#45;&gt;Node6 -->
<g id="edge5_Node000004_Node000006" class="edge">
<title>Node4&#45;&gt;Node6</title>
<g id="a_edge5_Node000004_Node000006"><a xlink:title=" ">
<path fill="none" stroke="#63b8ff" d="M197.62,-48.13C208.17,-38.94 220.81,-27.93 229.57,-20.3"/>
<polygon fill="#63b8ff" stroke="#63b8ff" points="195.43,-45.39 190.19,-54.6 200.03,-50.67 195.43,-45.39"/>
</a>
</g>
</g>
<!-- Node7&#45;&gt;Node4 -->
<g id="edge7_Node000007_Node000004" class="edge">
<title>Node7&#45;&gt;Node4</title>
<g id="a_edge7_Node000007_Node000004"><a xlink:title=" ">
<path fill="none" stroke="#63b8ff" d="M222.58,-104.4C211.63,-95.17 198.41,-84.01 189.27,-76.3"/>
<polygon fill="#63b8ff" stroke="#63b8ff" points="220.05,-106.84 229.95,-110.62 224.56,-101.49 220.05,-106.84"/>
</a>
</g>
</g>
<!-- Node8 -->
<g id="Node000008" class="node">
<title>Node8</title>
<g id="a_Node000008"><a xlink:href="class_cpl_1_1_io_1_1_file_1_1_output.html" target="_top" xlink:title="This concrete class provides a platform independent &#39;standard&#39; implementation of a Cpl::Io::File::Out...">
<polygon fill="white" stroke="#666666" points="364.62,-76 263.88,-76 263.88,-56 364.62,-56 364.62,-76"/>
<text text-anchor="middle" x="314.25" y="-62.5" font-family="Helvetica,sans-Serif" font-size="10.00">Cpl::Io::File::Output</text>
</a>
</g>
</g>
<!-- Node7&#45;&gt;Node8 -->
<g id="edge8_Node000007_Node000008" class="edge">
<title>Node7&#45;&gt;Node8</title>
<g id="a_edge8_Node000007_Node000008"><a xlink:title=" ">
<path fill="none" stroke="#63b8ff" d="M263.64,-104.95C276.1,-95.61 291.36,-84.16 301.85,-76.3"/>
<polygon fill="#63b8ff" stroke="#63b8ff" points="261.9,-101.89 256,-110.69 266.1,-107.49 261.9,-101.89"/>
</a>
</g>
</g>
</g>
</svg>
