<?xml version="1.0" encoding="UTF-8" standalone="no"?>
<!DOCTYPE svg PUBLIC "-//W3C//DTD SVG 1.1//EN"
 "http://www.w3.org/Graphics/SVG/1.1/DTD/svg11.dtd">
<!-- Generated by graphviz version 10.0.1 (20240210.2158)
 -->
<!-- Title: Storm::Component::IdtSelection Pages: 1 -->
<svg width="163pt" height="140pt"
 viewBox="0.00 0.00 162.75 140.00" xmlns="http://www.w3.org/2000/svg" xmlns:xlink="http://www.w3.org/1999/xlink">
<g id="graph0" class="graph" transform="scale(1 1) rotate(0) translate(4 136)">
<title>Storm::Component::IdtSelection</title>
<!-- Node1 -->
<g id="Node000001" class="node">
<title>Node1</title>
<g id="a_Node000001"><a xlink:title="This concrete class determines which Indoor&#45;Temperature (IDT) value to be used for the rest of the al...">
<polygon fill="#999999" stroke="#666666" points="154.75,-20 0,-20 0,0 154.75,0 154.75,-20"/>
<text text-anchor="middle" x="77.38" y="-6.5" font-family="Helvetica,sans-Serif" font-size="10.00">Storm::Component::IdtSelection</text>
</a>
</g>
</g>
<!-- Node2 -->
<g id="Node000002" class="node">
<title>Node2</title>
<g id="a_Node000002"><a xlink:href="class_storm_1_1_component_1_1_base.html" target="_top" xlink:title="This partially concrete class provide core infrastructure for Components.">
<polygon fill="white" stroke="#666666" points="140.5,-76 14.25,-76 14.25,-56 140.5,-56 140.5,-76"/>
<text text-anchor="middle" x="77.38" y="-62.5" font-family="Helvetica,sans-Serif" font-size="10.00">Storm::Component::Base</text>
</a>
</g>
</g>
<!-- Node2&#45;&gt;Node1 -->
<g id="edge1_Node000001_Node000002" class="edge">
<title>Node2&#45;&gt;Node1</title>
<g id="a_edge1_Node000001_Node000002"><a xlink:title=" ">
<path fill="none" stroke="#63b8ff" d="M77.38,-44.13C77.38,-35.9 77.38,-26.85 77.38,-20.3"/>
<polygon fill="#63b8ff" stroke="#63b8ff" points="73.88,-44.08 77.38,-54.08 80.88,-44.08 73.88,-44.08"/>
</a>
</g>
</g>
<!-- Node3 -->
<g id="Node000003" class="node">
<title>Node3</title>
<g id="a_Node000003"><a xlink:href="class_storm_1_1_component_1_1_api.html" target="_top" xlink:title="This class define the interface for a Component.">
<polygon fill="white" stroke="#666666" points="136.38,-132 18.38,-132 18.38,-112 136.38,-112 136.38,-132"/>
<text text-anchor="middle" x="77.38" y="-118.5" font-family="Helvetica,sans-Serif" font-size="10.00">Storm::Component::Api</text>
</a>
</g>
</g>
<!-- Node3&#45;&gt;Node2 -->
<g id="edge2_Node000002_Node000003" class="edge">
<title>Node3&#45;&gt;Node2</title>
<g id="a_edge2_Node000002_Node000003"><a xlink:title=" ">
<path fill="none" stroke="#63b8ff" d="M77.38,-100.13C77.38,-91.9 77.38,-82.85 77.38,-76.3"/>
<polygon fill="#63b8ff" stroke="#63b8ff" points="73.88,-100.08 77.38,-110.08 80.88,-100.08 73.88,-100.08"/>
</a>
</g>
</g>
</g>
</svg>
