<?xml version="1.0" encoding="UTF-8" standalone="no"?>
<!DOCTYPE svg PUBLIC "-//W3C//DTD SVG 1.1//EN"
 "http://www.w3.org/Graphics/SVG/1.1/DTD/svg11.dtd">
<!-- Generated by graphviz version 10.0.1 (20240210.2158)
 -->
<!-- Title: Cpl::Itc::OpenSync Pages: 1 -->
<svg width="334pt" height="96pt"
 viewBox="0.00 0.00 333.75 96.00" xmlns="http://www.w3.org/2000/svg" xmlns:xlink="http://www.w3.org/1999/xlink">
<g id="graph0" class="graph" transform="scale(1 1) rotate(0) translate(4 92)">
<title>Cpl::Itc::OpenSync</title>
<!-- Node1 -->
<g id="Node000001" class="node">
<title>Node1</title>
<g id="a_Node000001"><a xlink:title="This partially concrete class implements the synchronous ITC open call for the OpenApi.">
<polygon fill="#999999" stroke="#666666" points="213.38,-20 114.88,-20 114.88,0 213.38,0 213.38,-20"/>
<text text-anchor="middle" x="164.12" y="-6.5" font-family="Helvetica,sans-Serif" font-size="10.00">Cpl::Itc::OpenSync</text>
</a>
</g>
</g>
<!-- Node2 -->
<g id="Node000002" class="node">
<title>Node2</title>
<g id="a_Node000002"><a xlink:href="class_cpl_1_1_itc_1_1_open_api.html" target="_top" xlink:title="This abstract class defines an open interface.">
<polygon fill="white" stroke="#666666" points="90.25,-88 0,-88 0,-68 90.25,-68 90.25,-88"/>
<text text-anchor="middle" x="45.12" y="-74.5" font-family="Helvetica,sans-Serif" font-size="10.00">Cpl::Itc::OpenApi</text>
</a>
</g>
</g>
<!-- Node2&#45;&gt;Node1 -->
<g id="edge1_Node000001_Node000002" class="edge">
<title>Node2&#45;&gt;Node1</title>
<g id="a_edge1_Node000001_Node000002"><a xlink:title=" ">
<path fill="none" stroke="#63b8ff" d="M72.01,-62.09C95.04,-49.32 127.5,-31.31 147.11,-20.44"/>
<polygon fill="#63b8ff" stroke="#63b8ff" points="70.55,-58.9 63.5,-66.81 73.94,-65.02 70.55,-58.9"/>
</a>
</g>
</g>
<!-- Node3 -->
<g id="Node000003" class="node">
<title>Node3</title>
<g id="a_Node000003"><a xlink:href="class_cpl_1_1_itc_1_1_open_request.html" target="_top" xlink:title="This abstract class define message types and payloads for a set of ITC services.">
<polygon fill="white" stroke="#666666" points="220.12,-88 108.12,-88 108.12,-68 220.12,-68 220.12,-88"/>
<text text-anchor="middle" x="164.12" y="-74.5" font-family="Helvetica,sans-Serif" font-size="10.00">Cpl::Itc::OpenRequest</text>
</a>
</g>
</g>
<!-- Node3&#45;&gt;Node1 -->
<g id="edge2_Node000001_Node000003" class="edge">
<title>Node3&#45;&gt;Node1</title>
<g id="a_edge2_Node000001_Node000003"><a xlink:title=" ">
<path fill="none" stroke="#63b8ff" d="M164.12,-56.28C164.12,-44.27 164.12,-29.74 164.12,-20.44"/>
<polygon fill="#63b8ff" stroke="#63b8ff" points="160.63,-56.03 164.13,-66.03 167.63,-56.03 160.63,-56.03"/>
</a>
</g>
</g>
<!-- Node4 -->
<g id="Node000004" class="node">
<title>Node4</title>
<g id="a_Node000004"><a xlink:href="class_cpl_1_1_itc_1_1_post_api.html" target="_top" xlink:title="This abstract class represents the interface used to send messages to a mailbox.">
<polygon fill="white" stroke="#666666" points="325.75,-88 238.5,-88 238.5,-68 325.75,-68 325.75,-88"/>
<text text-anchor="middle" x="282.12" y="-74.5" font-family="Helvetica,sans-Serif" font-size="10.00">Cpl::Itc::PostApi</text>
</a>
</g>
</g>
<!-- Node4&#45;&gt;Node1 -->
<g id="edge3_Node000001_Node000004" class="edge">
<title>Node4&#45;&gt;Node1</title>
<g id="a_edge3_Node000001_Node000004"><a xlink:title=" ">
<path fill="none" stroke="#9a32cd" stroke-dasharray="5,2" d="M255.46,-62.09C232.63,-49.32 200.44,-31.31 181,-20.44"/>
<polygon fill="#9a32cd" stroke="#9a32cd" points="253.46,-64.98 263.9,-66.8 256.88,-58.87 253.46,-64.98"/>
</a>
</g>
<text text-anchor="middle" x="253.38" y="-40.5" font-family="Helvetica,sans-Serif" font-size="10.00" fill="grey"> m_mbox</text>
</g>
</g>
</svg>
