<?xml version="1.0" encoding="UTF-8" standalone="no"?>
<!DOCTYPE svg PUBLIC "-//W3C//DTD SVG 1.1//EN"
 "http://www.w3.org/Graphics/SVG/1.1/DTD/svg11.dtd">
<!-- Generated by graphviz version 2.38.0 (20140413.2041)
 -->
<!-- Title: Cpl::Text::Frame::StreamEncoder Pages: 1 -->
<svg width="334pt" height="220pt"
 viewBox="0.00 0.00 334.00 220.00" xmlns="http://www.w3.org/2000/svg" xmlns:xlink="http://www.w3.org/1999/xlink">
<g id="graph0" class="graph" transform="scale(1 1) rotate(0) translate(4 216)">
<title>Cpl::Text::Frame::StreamEncoder</title>
<polygon fill="white" stroke="none" points="-4,4 -4,-216 330,-216 330,4 -4,4"/>
<!-- Node1 -->
<g id="node1" class="node"><title>Node1</title>
<g id="a_node1"><a xlink:title="This concrete class implements the Encoder API where the Output destination is a Cpl::Io::Output stre...">
<polygon fill="#bfbfbf" stroke="black" points="79.5,-0.5 79.5,-30.5 207.5,-30.5 207.5,-0.5 79.5,-0.5"/>
<text text-anchor="start" x="87.5" y="-18.5" font-family="Helvetica,sans-Serif" font-size="10.00">Cpl::Text::Frame::Stream</text>
<text text-anchor="middle" x="143.5" y="-7.5" font-family="Helvetica,sans-Serif" font-size="10.00">Encoder</text>
</a>
</g>
</g>
<!-- Node2 -->
<g id="node2" class="node"><title>Node2</title>
<g id="a_node2"><a xlink:href="class_cpl_1_1_text_1_1_frame_1_1_encoder__.html" target="_top" xlink:title="This Private Namespace partially concrete class implements common/helper method for supporting the En...">
<polygon fill="white" stroke="black" points="0,-78.5 0,-97.5 137,-97.5 137,-78.5 0,-78.5"/>
<text text-anchor="middle" x="68.5" y="-85.5" font-family="Helvetica,sans-Serif" font-size="10.00">Cpl::Text::Frame::Encoder_</text>
</a>
</g>
</g>
<!-- Node2&#45;&gt;Node1 -->
<g id="edge1" class="edge"><title>Node2&#45;&gt;Node1</title>
<path fill="none" stroke="midnightblue" d="M85.053,-71.4402C98.0401,-59.2323 115.962,-42.3856 128.525,-30.5762"/>
<polygon fill="midnightblue" stroke="midnightblue" points="82.5856,-68.956 77.6965,-78.3553 87.38,-74.0564 82.5856,-68.956"/>
</g>
<!-- Node3 -->
<g id="node3" class="node"><title>Node3</title>
<g id="a_node3"><a xlink:href="class_cpl_1_1_text_1_1_frame_1_1_encoder.html" target="_top" xlink:title="This class defines an interface for &#39;transmitted&#39; (encoding) a frame.">
<polygon fill="white" stroke="black" points="2.5,-135.5 2.5,-154.5 134.5,-154.5 134.5,-135.5 2.5,-135.5"/>
<text text-anchor="middle" x="68.5" y="-142.5" font-family="Helvetica,sans-Serif" font-size="10.00">Cpl::Text::Frame::Encoder</text>
</a>
</g>
</g>
<!-- Node3&#45;&gt;Node2 -->
<g id="edge2" class="edge"><title>Node3&#45;&gt;Node2</title>
<path fill="none" stroke="midnightblue" d="M68.5,-125.117C68.5,-115.817 68.5,-105.056 68.5,-97.7149"/>
<polygon fill="midnightblue" stroke="midnightblue" points="65.0001,-125.406 68.5,-135.406 72.0001,-125.406 65.0001,-125.406"/>
</g>
<!-- Node4 -->
<g id="node4" class="node"><title>Node4</title>
<g id="a_node4"><a xlink:href="class_cpl_1_1_io_1_1_output.html" target="_top" xlink:title="This partially abstract class defines a interface for operating on an output stream (example of a str...">
<polygon fill="white" stroke="black" points="155.5,-78.5 155.5,-97.5 235.5,-97.5 235.5,-78.5 155.5,-78.5"/>
<text text-anchor="middle" x="195.5" y="-85.5" font-family="Helvetica,sans-Serif" font-size="10.00">Cpl::Io::Output</text>
</a>
</g>
</g>
<!-- Node4&#45;&gt;Node1 -->
<g id="edge3" class="edge"><title>Node4&#45;&gt;Node1</title>
<path fill="none" stroke="#9a32cd" stroke-dasharray="5,2" d="M182.99,-70.0389C174.086,-57.968 162.264,-41.94 153.882,-30.5762"/>
<polygon fill="#9a32cd" stroke="#9a32cd" points="180.371,-72.3852 189.124,-78.3553 186.005,-68.23 180.371,-72.3852"/>
<text text-anchor="middle" x="196" y="-52" font-family="Helvetica,sans-Serif" font-size="10.00"> m_dstPtr</text>
</g>
<!-- Node5 -->
<g id="node5" class="node"><title>Node5</title>
<g id="a_node5"><a xlink:href="class_cpl_1_1_io_1_1_close.html" target="_top" xlink:title="This abstract class defines a close operation that is intended to be used Input and Output streams/fi...">
<polygon fill="white" stroke="black" points="154.5,-135.5 154.5,-154.5 230.5,-154.5 230.5,-135.5 154.5,-135.5"/>
<text text-anchor="middle" x="192.5" y="-142.5" font-family="Helvetica,sans-Serif" font-size="10.00">Cpl::Io::Close</text>
</a>
</g>
</g>
<!-- Node5&#45;&gt;Node4 -->
<g id="edge4" class="edge"><title>Node5&#45;&gt;Node4</title>
<path fill="none" stroke="midnightblue" d="M193.53,-125.117C194.037,-115.817 194.624,-105.056 195.025,-97.7149"/>
<polygon fill="midnightblue" stroke="midnightblue" points="190.019,-125.23 192.969,-135.406 197.008,-125.612 190.019,-125.23"/>
</g>
<!-- Node6 -->
<g id="node6" class="node"><title>Node6</title>
<g id="a_node6"><a xlink:href="class_cpl_1_1_container_1_1_item.html" target="_top" xlink:title="This class is used by the Container classes to implement a various types of singly linked containers.">
<polygon fill="white" stroke="black" points="140.5,-192.5 140.5,-211.5 244.5,-211.5 244.5,-192.5 140.5,-192.5"/>
<text text-anchor="middle" x="192.5" y="-199.5" font-family="Helvetica,sans-Serif" font-size="10.00">Cpl::Container::Item</text>
</a>
</g>
</g>
<!-- Node6&#45;&gt;Node5 -->
<g id="edge5" class="edge"><title>Node6&#45;&gt;Node5</title>
<path fill="none" stroke="midnightblue" d="M192.5,-182.117C192.5,-172.817 192.5,-162.056 192.5,-154.715"/>
<polygon fill="midnightblue" stroke="midnightblue" points="189,-182.406 192.5,-192.406 196,-182.406 189,-182.406"/>
</g>
<!-- Node7 -->
<g id="node7" class="node"><title>Node7</title>
<g id="a_node7"><a xlink:href="class_cpl_1_1_io_1_1_is_eos.html" target="_top" xlink:title="This abstract class defines a isEos() operation that is intended to be used Input and Output streams.">
<polygon fill="white" stroke="black" points="249,-135.5 249,-154.5 326,-154.5 326,-135.5 249,-135.5"/>
<text text-anchor="middle" x="287.5" y="-142.5" font-family="Helvetica,sans-Serif" font-size="10.00">Cpl::Io::IsEos</text>
</a>
</g>
</g>
<!-- Node7&#45;&gt;Node4 -->
<g id="edge6" class="edge"><title>Node7&#45;&gt;Node4</title>
<path fill="none" stroke="midnightblue" d="M264.266,-130.11C247.115,-119.857 224.319,-106.229 209.774,-97.5334"/>
<polygon fill="midnightblue" stroke="midnightblue" points="262.746,-133.279 273.125,-135.406 266.338,-127.271 262.746,-133.279"/>
</g>
</g>
</svg>
