<?xml version="1.0" encoding="UTF-8" standalone="no"?>
<!DOCTYPE svg PUBLIC "-//W3C//DTD SVG 1.1//EN"
 "http://www.w3.org/Graphics/SVG/1.1/DTD/svg11.dtd">
<!-- Generated by graphviz version 10.0.1 (20240210.2158)
 -->
<!-- Title: Cpl::Memory::HPool&lt; T &gt; Pages: 1 -->
<svg width="135pt" height="140pt"
 viewBox="0.00 0.00 135.00 140.00" xmlns="http://www.w3.org/2000/svg" xmlns:xlink="http://www.w3.org/1999/xlink">
<g id="graph0" class="graph" transform="scale(1 1) rotate(0) translate(4 136)">
<title>Cpl::Memory::HPool&lt; T &gt;</title>
<!-- Node1 -->
<g id="Node000001" class="node">
<title>Node1</title>
<g id="a_Node000001"><a xlink:title="This template class defines a concrete Allocator that allocates its block memory from the HEAP.">
<polygon fill="#999999" stroke="#666666" points="127,-20 0,-20 0,0 127,0 127,-20"/>
<text text-anchor="middle" x="63.5" y="-6.5" font-family="Helvetica,sans-Serif" font-size="10.00">Cpl::Memory::HPool&lt; T &gt;</text>
</a>
</g>
</g>
<!-- Node2 -->
<g id="Node000002" class="node">
<title>Node2</title>
<g id="a_Node000002"><a xlink:href="class_cpl_1_1_memory_1_1_allocator.html" target="_top" xlink:title="This abstract class defines the interface for a Memory Allocator.">
<polygon fill="white" stroke="#666666" points="121.38,-76 5.63,-76 5.63,-56 121.38,-56 121.38,-76"/>
<text text-anchor="middle" x="63.5" y="-62.5" font-family="Helvetica,sans-Serif" font-size="10.00">Cpl::Memory::Allocator</text>
</a>
</g>
</g>
<!-- Node2&#45;&gt;Node1 -->
<g id="edge1_Node000001_Node000002" class="edge">
<title>Node2&#45;&gt;Node1</title>
<g id="a_edge1_Node000001_Node000002"><a xlink:title=" ">
<path fill="none" stroke="#63b8ff" d="M63.5,-44.13C63.5,-35.9 63.5,-26.85 63.5,-20.3"/>
<polygon fill="#63b8ff" stroke="#63b8ff" points="60,-44.08 63.5,-54.08 67,-44.08 60,-44.08"/>
</a>
</g>
</g>
<!-- Node3 -->
<g id="Node000003" class="node">
<title>Node3</title>
<g id="a_Node000003"><a xlink:href="class_cpl_1_1_container_1_1_item.html" target="_top" xlink:title="This class is used by the Container classes to implement a various types of singly linked containers.">
<polygon fill="white" stroke="#666666" points="114.62,-132 12.38,-132 12.38,-112 114.62,-112 114.62,-132"/>
<text text-anchor="middle" x="63.5" y="-118.5" font-family="Helvetica,sans-Serif" font-size="10.00">Cpl::Container::Item</text>
</a>
</g>
</g>
<!-- Node3&#45;&gt;Node2 -->
<g id="edge2_Node000002_Node000003" class="edge">
<title>Node3&#45;&gt;Node2</title>
<g id="a_edge2_Node000002_Node000003"><a xlink:title=" ">
<path fill="none" stroke="#63b8ff" d="M63.5,-100.13C63.5,-91.9 63.5,-82.85 63.5,-76.3"/>
<polygon fill="#63b8ff" stroke="#63b8ff" points="60,-100.08 63.5,-110.08 67,-100.08 60,-100.08"/>
</a>
</g>
</g>
</g>
</svg>
