<?xml version="1.0" encoding="UTF-8" standalone="no"?>
<!DOCTYPE svg PUBLIC "-//W3C//DTD SVG 1.1//EN"
 "http://www.w3.org/Graphics/SVG/1.1/DTD/svg11.dtd">
<!-- Generated by graphviz version 10.0.1 (20240210.2158)
 -->
<!-- Title: Cpl::Dm::Mp::String&lt; S &gt; Pages: 1 -->
<svg width="158pt" height="252pt"
 viewBox="0.00 0.00 158.25 252.00" xmlns="http://www.w3.org/2000/svg" xmlns:xlink="http://www.w3.org/1999/xlink">
<g id="graph0" class="graph" transform="scale(1 1) rotate(0) translate(4 248)">
<title>Cpl::Dm::Mp::String&lt; S &gt;</title>
<!-- Node1 -->
<g id="Node000001" class="node">
<title>Node1</title>
<g id="a_Node000001"><a xlink:title="This concrete template class provides the storage for a Point who&#39;s data is a null terminated string.">
<polygon fill="#999999" stroke="#666666" points="138.62,-20 11.62,-20 11.62,0 138.62,0 138.62,-20"/>
<text text-anchor="middle" x="75.12" y="-6.5" font-family="Helvetica,sans-Serif" font-size="10.00">Cpl::Dm::Mp::String&lt; S &gt;</text>
</a>
</g>
</g>
<!-- Node2 -->
<g id="Node000002" class="node">
<title>Node2</title>
<g id="a_Node000002"><a xlink:href="class_cpl_1_1_dm_1_1_mp_1_1_string_base__.html" target="_top" xlink:title="This mostly concrete class provides the base implementation for a Point who&#39;s data is a null terminat...">
<polygon fill="white" stroke="#666666" points="140.12,-76 10.12,-76 10.12,-56 140.12,-56 140.12,-76"/>
<text text-anchor="middle" x="75.12" y="-62.5" font-family="Helvetica,sans-Serif" font-size="10.00">Cpl::Dm::Mp::StringBase_</text>
</a>
</g>
</g>
<!-- Node2&#45;&gt;Node1 -->
<g id="edge1_Node000001_Node000002" class="edge">
<title>Node2&#45;&gt;Node1</title>
<g id="a_edge1_Node000001_Node000002"><a xlink:title=" ">
<path fill="none" stroke="#63b8ff" d="M75.12,-44.13C75.12,-35.9 75.12,-26.85 75.12,-20.3"/>
<polygon fill="#63b8ff" stroke="#63b8ff" points="71.63,-44.08 75.13,-54.08 78.63,-44.08 71.63,-44.08"/>
</a>
</g>
</g>
<!-- Node3 -->
<g id="Node000003" class="node">
<title>Node3</title>
<g id="a_Node000003"><a xlink:href="class_cpl_1_1_dm_1_1_model_point_common__.html" target="_top" xlink:title="This concrete class provide common infrastructure for a Model Point.">
<polygon fill="white" stroke="#666666" points="150.25,-132 0,-132 0,-112 150.25,-112 150.25,-132"/>
<text text-anchor="middle" x="75.12" y="-118.5" font-family="Helvetica,sans-Serif" font-size="10.00">Cpl::Dm::ModelPointCommon_</text>
</a>
</g>
</g>
<!-- Node3&#45;&gt;Node2 -->
<g id="edge2_Node000002_Node000003" class="edge">
<title>Node3&#45;&gt;Node2</title>
<g id="a_edge2_Node000002_Node000003"><a xlink:title=" ">
<path fill="none" stroke="#63b8ff" d="M75.12,-100.13C75.12,-91.9 75.12,-82.85 75.12,-76.3"/>
<polygon fill="#63b8ff" stroke="#63b8ff" points="71.63,-100.08 75.13,-110.08 78.63,-100.08 71.63,-100.08"/>
</a>
</g>
</g>
<!-- Node4 -->
<g id="Node000004" class="node">
<title>Node4</title>
<g id="a_Node000004"><a xlink:href="class_cpl_1_1_dm_1_1_model_point.html" target="_top" xlink:title="This mostly abstract class defines the interface for a Model Point.">
<polygon fill="white" stroke="#666666" points="128.12,-188 22.12,-188 22.12,-168 128.12,-168 128.12,-188"/>
<text text-anchor="middle" x="75.12" y="-174.5" font-family="Helvetica,sans-Serif" font-size="10.00">Cpl::Dm::ModelPoint</text>
</a>
</g>
</g>
<!-- Node4&#45;&gt;Node3 -->
<g id="edge3_Node000003_Node000004" class="edge">
<title>Node4&#45;&gt;Node3</title>
<g id="a_edge3_Node000003_Node000004"><a xlink:title=" ">
<path fill="none" stroke="#63b8ff" d="M75.12,-156.13C75.12,-147.9 75.12,-138.85 75.12,-132.3"/>
<polygon fill="#63b8ff" stroke="#63b8ff" points="71.63,-156.08 75.13,-166.08 78.63,-156.08 71.63,-156.08"/>
</a>
</g>
</g>
<!-- Node5 -->
<g id="Node000005" class="node">
<title>Node5</title>
<g id="a_Node000005"><a xlink:href="class_cpl_1_1_container_1_1_item.html" target="_top" xlink:title="This class is used by the Container classes to implement a various types of singly linked containers.">
<polygon fill="white" stroke="#666666" points="126.25,-244 24,-244 24,-224 126.25,-224 126.25,-244"/>
<text text-anchor="middle" x="75.12" y="-230.5" font-family="Helvetica,sans-Serif" font-size="10.00">Cpl::Container::Item</text>
</a>
</g>
</g>
<!-- Node5&#45;&gt;Node4 -->
<g id="edge4_Node000004_Node000005" class="edge">
<title>Node5&#45;&gt;Node4</title>
<g id="a_edge4_Node000004_Node000005"><a xlink:title=" ">
<path fill="none" stroke="#63b8ff" d="M75.12,-212.13C75.12,-203.9 75.12,-194.85 75.12,-188.3"/>
<polygon fill="#63b8ff" stroke="#63b8ff" points="71.63,-212.08 75.13,-222.08 78.63,-212.08 71.63,-212.08"/>
</a>
</g>
</g>
</g>
</svg>
