<?xml version="1.0" encoding="UTF-8" standalone="no"?>
<!DOCTYPE svg PUBLIC "-//W3C//DTD SVG 1.1//EN"
 "http://www.w3.org/Graphics/SVG/1.1/DTD/svg11.dtd">
<!-- Generated by graphviz version 2.38.0 (20140413.2041)
 -->
<!-- Title: Storm::Dm::MpFanMode Pages: 1 -->
<svg width="259pt" height="516pt"
 viewBox="0.00 0.00 258.50 516.00" xmlns="http://www.w3.org/2000/svg" xmlns:xlink="http://www.w3.org/1999/xlink">
<g id="graph0" class="graph" transform="scale(1 1) rotate(0) translate(4 512)">
<title>Storm::Dm::MpFanMode</title>
<polygon fill="white" stroke="none" points="-4,4 -4,-512 254.5,-512 254.5,4 -4,4"/>
<!-- Node1 -->
<g id="node1" class="node"><title>Node1</title>
<g id="a_node1"><a xlink:title="Concrete Model Point the FanMode Enum.">
<polygon fill="#bfbfbf" stroke="black" points="32.5,-0.5 32.5,-19.5 156.5,-19.5 156.5,-0.5 32.5,-0.5"/>
<text text-anchor="middle" x="94.5" y="-7.5" font-family="Helvetica,sans-Serif" font-size="10.00">Storm::Dm::MpFanMode</text>
</a>
</g>
</g>
<!-- Node2 -->
<g id="node2" class="node"><title>Node2</title>
<g id="a_node2"><a xlink:href="class_cpl_1_1_dm_1_1_mp_1_1_enum.html" target="_top" xlink:title=" ">
<polygon fill="white" stroke="black" points="30,-57.5 30,-87.5 159,-87.5 159,-57.5 30,-57.5"/>
<text text-anchor="start" x="38" y="-75.5" font-family="Helvetica,sans-Serif" font-size="10.00">Cpl::Dm::Mp::Enum&lt;</text>
<text text-anchor="middle" x="94.5" y="-64.5" font-family="Helvetica,sans-Serif" font-size="10.00"> Storm::Type::FanMode &gt;</text>
</a>
</g>
</g>
<!-- Node2&#45;&gt;Node1 -->
<g id="edge1" class="edge"><title>Node2&#45;&gt;Node1</title>
<path fill="none" stroke="midnightblue" d="M94.5,-47.3524C94.5,-37.5132 94.5,-26.7753 94.5,-19.5399"/>
<polygon fill="midnightblue" stroke="midnightblue" points="91.0001,-47.468 94.5,-57.468 98.0001,-47.4681 91.0001,-47.468"/>
</g>
<!-- Node3 -->
<g id="node3" class="node"><title>Node3</title>
<g id="a_node3"><a xlink:href="class_cpl_1_1_dm_1_1_model_point_common__.html" target="_top" xlink:title="This concrete class provide common infrastructure for a Model Point.">
<polygon fill="white" stroke="black" points="0,-203.5 0,-222.5 151,-222.5 151,-203.5 0,-203.5"/>
<text text-anchor="middle" x="75.5" y="-210.5" font-family="Helvetica,sans-Serif" font-size="10.00">Cpl::Dm::ModelPointCommon_</text>
</a>
</g>
</g>
<!-- Node3&#45;&gt;Node2 -->
<g id="edge2" class="edge"><title>Node3&#45;&gt;Node2</title>
<path fill="none" stroke="midnightblue" d="M76.6836,-193.02C77.7878,-177.397 79.6906,-154.696 82.5,-135 84.8349,-118.63 88.6276,-100.019 91.3238,-87.5981"/>
<polygon fill="midnightblue" stroke="midnightblue" points="73.1633,-193.211 75.9931,-203.421 80.148,-193.675 73.1633,-193.211"/>
</g>
<!-- Node9 -->
<g id="node9" class="node"><title>Node9</title>
<g id="a_node9"><a xlink:href="class_cpl_1_1_dm_1_1_mp_1_1_enum.html" target="_top" xlink:title="This class provides a MOSTLY concrete implementation for a Point who&#39;s data is a an a &quot;Better Enum&quot;,...">
<polygon fill="white" stroke="black" points="91.5,-135.5 91.5,-165.5 219.5,-165.5 219.5,-135.5 91.5,-135.5"/>
<text text-anchor="start" x="99.5" y="-153.5" font-family="Helvetica,sans-Serif" font-size="10.00">Cpl::Dm::Mp::Enum&lt;</text>
<text text-anchor="middle" x="155.5" y="-142.5" font-family="Helvetica,sans-Serif" font-size="10.00"> BETTERENUM_TYPE &gt;</text>
</a>
</g>
</g>
<!-- Node3&#45;&gt;Node9 -->
<g id="edge9" class="edge"><title>Node3&#45;&gt;Node9</title>
<path fill="none" stroke="midnightblue" d="M95.0973,-197.18C107.86,-187.528 124.406,-175.015 136.953,-165.526"/>
<polygon fill="midnightblue" stroke="midnightblue" points="92.8269,-194.508 86.962,-203.332 97.0492,-200.092 92.8269,-194.508"/>
</g>
<!-- Node4 -->
<g id="node4" class="node"><title>Node4</title>
<g id="a_node4"><a xlink:href="class_cpl_1_1_dm_1_1_model_point.html" target="_top" xlink:title="This mostly abstract class defines the interface for a Model Point.">
<polygon fill="white" stroke="black" points="22,-260.5 22,-279.5 129,-279.5 129,-260.5 22,-260.5"/>
<text text-anchor="middle" x="75.5" y="-267.5" font-family="Helvetica,sans-Serif" font-size="10.00">Cpl::Dm::ModelPoint</text>
</a>
</g>
</g>
<!-- Node4&#45;&gt;Node3 -->
<g id="edge3" class="edge"><title>Node4&#45;&gt;Node3</title>
<path fill="none" stroke="midnightblue" d="M75.5,-250.117C75.5,-240.817 75.5,-230.056 75.5,-222.715"/>
<polygon fill="midnightblue" stroke="midnightblue" points="72.0001,-250.406 75.5,-260.406 79.0001,-250.406 72.0001,-250.406"/>
</g>
<!-- Node5 -->
<g id="node5" class="node"><title>Node5</title>
<g id="a_node5"><a xlink:href="class_cpl_1_1_container_1_1_map_item.html" target="_top" xlink:title="This abstract class represents a item that can be contained in an Map (aka a sorted list implemented ...">
<polygon fill="white" stroke="black" points="14.5,-317.5 14.5,-336.5 136.5,-336.5 136.5,-317.5 14.5,-317.5"/>
<text text-anchor="middle" x="75.5" y="-324.5" font-family="Helvetica,sans-Serif" font-size="10.00">Cpl::Container::MapItem</text>
</a>
</g>
</g>
<!-- Node5&#45;&gt;Node4 -->
<g id="edge4" class="edge"><title>Node5&#45;&gt;Node4</title>
<path fill="none" stroke="midnightblue" d="M75.5,-307.117C75.5,-297.817 75.5,-287.056 75.5,-279.715"/>
<polygon fill="midnightblue" stroke="midnightblue" points="72.0001,-307.406 75.5,-317.406 79.0001,-307.406 72.0001,-307.406"/>
</g>
<!-- Node6 -->
<g id="node6" class="node"><title>Node6</title>
<g id="a_node6"><a xlink:href="class_cpl_1_1_container_1_1_dict_item.html" target="_top" xlink:title="This abstract class represents a item that can be contained in Dictionary.">
<polygon fill="white" stroke="black" points="15,-374.5 15,-393.5 136,-393.5 136,-374.5 15,-374.5"/>
<text text-anchor="middle" x="75.5" y="-381.5" font-family="Helvetica,sans-Serif" font-size="10.00">Cpl::Container::DictItem</text>
</a>
</g>
</g>
<!-- Node6&#45;&gt;Node5 -->
<g id="edge5" class="edge"><title>Node6&#45;&gt;Node5</title>
<path fill="none" stroke="midnightblue" d="M75.5,-364.117C75.5,-354.817 75.5,-344.056 75.5,-336.715"/>
<polygon fill="midnightblue" stroke="midnightblue" points="72.0001,-364.406 75.5,-374.406 79.0001,-364.406 72.0001,-364.406"/>
</g>
<!-- Node7 -->
<g id="node7" class="node"><title>Node7</title>
<g id="a_node7"><a xlink:href="class_cpl_1_1_container_1_1_extended_item.html" target="_top" xlink:title="This class is used by the Container classes to implement a various types of DOUBLY linked containers.">
<polygon fill="white" stroke="black" points="3,-431.5 3,-450.5 148,-450.5 148,-431.5 3,-431.5"/>
<text text-anchor="middle" x="75.5" y="-438.5" font-family="Helvetica,sans-Serif" font-size="10.00">Cpl::Container::ExtendedItem</text>
</a>
</g>
</g>
<!-- Node7&#45;&gt;Node6 -->
<g id="edge6" class="edge"><title>Node7&#45;&gt;Node6</title>
<path fill="none" stroke="midnightblue" d="M75.5,-421.117C75.5,-411.817 75.5,-401.056 75.5,-393.715"/>
<polygon fill="midnightblue" stroke="midnightblue" points="72.0001,-421.406 75.5,-431.406 79.0001,-421.406 72.0001,-421.406"/>
</g>
<!-- Node8 -->
<g id="node8" class="node"><title>Node8</title>
<g id="a_node8"><a xlink:href="class_cpl_1_1_container_1_1_item.html" target="_top" xlink:title="This class is used by the Container classes to implement a various types of singly linked containers.">
<polygon fill="white" stroke="black" points="23.5,-488.5 23.5,-507.5 127.5,-507.5 127.5,-488.5 23.5,-488.5"/>
<text text-anchor="middle" x="75.5" y="-495.5" font-family="Helvetica,sans-Serif" font-size="10.00">Cpl::Container::Item</text>
</a>
</g>
</g>
<!-- Node8&#45;&gt;Node7 -->
<g id="edge7" class="edge"><title>Node8&#45;&gt;Node7</title>
<path fill="none" stroke="midnightblue" d="M75.5,-478.117C75.5,-468.817 75.5,-458.056 75.5,-450.715"/>
<polygon fill="midnightblue" stroke="midnightblue" points="72.0001,-478.406 75.5,-488.406 79.0001,-478.406 72.0001,-478.406"/>
</g>
<!-- Node9&#45;&gt;Node2 -->
<g id="edge8" class="edge"><title>Node9&#45;&gt;Node2</title>
<path fill="none" stroke="orange" stroke-dasharray="5,2" d="M137.687,-127.307C127.434,-114.533 114.854,-98.8596 105.922,-87.7309"/>
<polygon fill="orange" stroke="orange" points="135.037,-129.597 144.026,-135.205 140.496,-125.215 135.037,-129.597"/>
<text text-anchor="middle" x="189.5" y="-109" font-family="Helvetica,sans-Serif" font-size="10.00"> &lt; Storm::Type::FanMode &gt;</text>
</g>
</g>
</svg>
