<?xml version="1.0" encoding="UTF-8" standalone="no"?>
<!DOCTYPE svg PUBLIC "-//W3C//DTD SVG 1.1//EN"
 "http://www.w3.org/Graphics/SVG/1.1/DTD/svg11.dtd">
<!-- Generated by graphviz version 2.38.0 (20140413.2041)
 -->
<!-- Title: Cpl::System::Runnable Pages: 1 -->
<svg width="822pt" height="174pt"
 viewBox="0.00 0.00 822.00 174.00" xmlns="http://www.w3.org/2000/svg" xmlns:xlink="http://www.w3.org/1999/xlink">
<g id="graph0" class="graph" transform="scale(1 1) rotate(0) translate(4 170)">
<title>Cpl::System::Runnable</title>
<polygon fill="white" stroke="none" points="-4,4 -4,-170 818,-170 818,4 -4,4"/>
<!-- Node1 -->
<g id="node1" class="node"><title>Node1</title>
<g id="a_node1"><a xlink:title="This is an abstract class defines the interface for an object that is &quot;executed&quot; when a Thread object...">
<polygon fill="#bfbfbf" stroke="black" points="0,-50 0,-69 117,-69 117,-50 0,-50"/>
<text text-anchor="middle" x="58.5" y="-57" font-family="Helvetica,sans-Serif" font-size="10.00">Cpl::System::Runnable</text>
</a>
</g>
</g>
<!-- Node2 -->
<g id="node2" class="node"><title>Node2</title>
<g id="a_node2"><a xlink:href="class_cpl_1_1_io_1_1_socket_1_1_listener.html" target="_top" xlink:title="This abstract class defines the interface for a SIMPLE socket listener.">
<polygon fill="white" stroke="black" points="171.5,-89 171.5,-108 293.5,-108 293.5,-89 171.5,-89"/>
<text text-anchor="middle" x="232.5" y="-96" font-family="Helvetica,sans-Serif" font-size="10.00">Cpl::Io::Socket::Listener</text>
</a>
</g>
</g>
<!-- Node1&#45;&gt;Node2 -->
<g id="edge1" class="edge"><title>Node1&#45;&gt;Node2</title>
<path fill="none" stroke="midnightblue" d="M111.608,-71.3152C136.572,-76.9755 166.071,-83.6642 189.561,-88.9905"/>
<polygon fill="midnightblue" stroke="midnightblue" points="112.102,-67.8385 101.576,-69.0405 110.554,-74.6652 112.102,-67.8385"/>
</g>
<!-- Node6 -->
<g id="node6" class="node"><title>Node6</title>
<g id="a_node6"><a xlink:href="class_cpl_1_1_system_1_1_event_loop.html" target="_top" xlink:title="This concrete class is a Runnable object that provides a event driven execution model for a thread.">
<polygon fill="white" stroke="black" points="171,-50 171,-69 294,-69 294,-50 171,-50"/>
<text text-anchor="middle" x="232.5" y="-57" font-family="Helvetica,sans-Serif" font-size="10.00">Cpl::System::EventLoop</text>
</a>
</g>
</g>
<!-- Node1&#45;&gt;Node6 -->
<g id="edge5" class="edge"><title>Node1&#45;&gt;Node6</title>
<path fill="none" stroke="midnightblue" d="M127.545,-59.5C141.883,-59.5 156.918,-59.5 170.958,-59.5"/>
<polygon fill="midnightblue" stroke="midnightblue" points="127.252,-56.0001 117.252,-59.5 127.252,-63.0001 127.252,-56.0001"/>
</g>
<!-- Node11 -->
<g id="node11" class="node"><title>Node11</title>
<g id="a_node11"><a xlink:href="class_cpl_1_1_system_1_1_free_r_t_o_s_1_1_make_current_thread_a_cpl_thread.html" target="_top" xlink:title="This is a helper class that can be used to make the current thread a CPL thread.">
<polygon fill="white" stroke="black" points="153,-0.5 153,-30.5 312,-30.5 312,-0.5 153,-0.5"/>
<text text-anchor="start" x="161" y="-18.5" font-family="Helvetica,sans-Serif" font-size="10.00">Cpl::System::FreeRTOS</text>
<text text-anchor="middle" x="232.5" y="-7.5" font-family="Helvetica,sans-Serif" font-size="10.00">::MakeCurrentThreadACplThread</text>
</a>
</g>
</g>
<!-- Node1&#45;&gt;Node11 -->
<g id="edge10" class="edge"><title>Node1&#45;&gt;Node11</title>
<path fill="none" stroke="midnightblue" d="M106.511,-47.4739C126.913,-42.2547 151.029,-36.0856 172.608,-30.5654"/>
<polygon fill="midnightblue" stroke="midnightblue" points="105.642,-44.0834 96.8214,-49.9527 107.377,-50.8651 105.642,-44.0834"/>
</g>
<!-- Node3 -->
<g id="node3" class="node"><title>Node3</title>
<g id="a_node3"><a xlink:href="class_cpl_1_1_io_1_1_socket_1_1_listener__.html" target="_top" xlink:title="This private, mostly concrete helper class manages the top level threading aspects for a simple liste...">
<polygon fill="white" stroke="black" points="348,-92 348,-111 476,-111 476,-92 348,-92"/>
<text text-anchor="middle" x="412" y="-99" font-family="Helvetica,sans-Serif" font-size="10.00">Cpl::Io::Socket::Listener_</text>
</a>
</g>
</g>
<!-- Node2&#45;&gt;Node3 -->
<g id="edge2" class="edge"><title>Node2&#45;&gt;Node3</title>
<path fill="none" stroke="midnightblue" d="M304.014,-99.6918C318.523,-99.937 333.711,-100.194 347.936,-100.434"/>
<polygon fill="midnightblue" stroke="midnightblue" points="303.651,-96.1852 293.593,-99.5157 303.533,-103.184 303.651,-96.1852"/>
</g>
<!-- Node4 -->
<g id="node4" class="node"><title>Node4</title>
<g id="a_node4"><a xlink:href="class_cpl_1_1_io_1_1_socket_1_1_posix_1_1_listener.html" target="_top" xlink:title="This concrete class implements the Cpl::Io::Socket::Listener interface using IPv4 addressing for the ...">
<polygon fill="white" stroke="black" points="515.5,-135.5 515.5,-165.5 628.5,-165.5 628.5,-135.5 515.5,-135.5"/>
<text text-anchor="start" x="523.5" y="-153.5" font-family="Helvetica,sans-Serif" font-size="10.00">Cpl::Io::Socket::Posix</text>
<text text-anchor="middle" x="572" y="-142.5" font-family="Helvetica,sans-Serif" font-size="10.00">::Listener</text>
</a>
</g>
</g>
<!-- Node3&#45;&gt;Node4 -->
<g id="edge3" class="edge"><title>Node3&#45;&gt;Node4</title>
<path fill="none" stroke="midnightblue" d="M453.444,-114.043C474.497,-120.572 500.391,-128.602 522.513,-135.463"/>
<polygon fill="midnightblue" stroke="midnightblue" points="454.427,-110.683 443.839,-111.064 452.354,-117.369 454.427,-110.683"/>
</g>
<!-- Node5 -->
<g id="node5" class="node"><title>Node5</title>
<g id="a_node5"><a xlink:href="class_cpl_1_1_io_1_1_socket_1_1_win32_1_1_listener.html" target="_top" xlink:title="This concrete class implements the Cpl::Io::Socket::Listener interface using IPv4 addressing for the ...">
<polygon fill="white" stroke="black" points="514.5,-86.5 514.5,-116.5 629.5,-116.5 629.5,-86.5 514.5,-86.5"/>
<text text-anchor="start" x="522.5" y="-104.5" font-family="Helvetica,sans-Serif" font-size="10.00">Cpl::Io::Socket::Win32</text>
<text text-anchor="middle" x="572" y="-93.5" font-family="Helvetica,sans-Serif" font-size="10.00">::Listener</text>
</a>
</g>
</g>
<!-- Node3&#45;&gt;Node5 -->
<g id="edge4" class="edge"><title>Node3&#45;&gt;Node5</title>
<path fill="none" stroke="midnightblue" d="M486.434,-101.5C495.783,-101.5 505.237,-101.5 514.269,-101.5"/>
<polygon fill="midnightblue" stroke="midnightblue" points="486.354,-98.0001 476.354,-101.5 486.354,-105 486.354,-98.0001"/>
</g>
<!-- Node7 -->
<g id="node7" class="node"><title>Node7</title>
<g id="a_node7"><a xlink:href="class_cpl_1_1_dm_1_1_event_loop.html" target="_top" xlink:title="This class extends the Cpl::System::EventLoop class to support the asynchronous change notification g...">
<polygon fill="white" stroke="black" points="360,-50 360,-69 464,-69 464,-50 360,-50"/>
<text text-anchor="middle" x="412" y="-57" font-family="Helvetica,sans-Serif" font-size="10.00">Cpl::Dm::EventLoop</text>
</a>
</g>
</g>
<!-- Node6&#45;&gt;Node7 -->
<g id="edge6" class="edge"><title>Node6&#45;&gt;Node7</title>
<path fill="none" stroke="midnightblue" d="M304.273,-59.5C322.846,-59.5 342.516,-59.5 359.841,-59.5"/>
<polygon fill="midnightblue" stroke="midnightblue" points="304.089,-56.0001 294.089,-59.5 304.089,-63.0001 304.089,-56.0001"/>
</g>
<!-- Node10 -->
<g id="node10" class="node"><title>Node10</title>
<g id="a_node10"><a xlink:href="class_cpl_1_1_itc_1_1_mailbox_server.html" target="_top" xlink:title="This class collects the common functions of a generic server providing a mailbox and Event loop.">
<polygon fill="white" stroke="black" points="354,-12 354,-31 470,-31 470,-12 354,-12"/>
<text text-anchor="middle" x="412" y="-19" font-family="Helvetica,sans-Serif" font-size="10.00">Cpl::Itc::MailboxServer</text>
</a>
</g>
</g>
<!-- Node6&#45;&gt;Node10 -->
<g id="edge9" class="edge"><title>Node6&#45;&gt;Node10</title>
<path fill="none" stroke="midnightblue" d="M288.397,-47.7474C313.495,-42.3742 342.843,-36.0914 366.531,-31.0201"/>
<polygon fill="midnightblue" stroke="midnightblue" points="287.336,-44.3951 278.291,-49.911 288.802,-51.24 287.336,-44.3951"/>
</g>
<!-- Node8 -->
<g id="node8" class="node"><title>Node8</title>
<g id="a_node8"><a xlink:href="class_cpl_1_1_dm_1_1_mailbox_server.html" target="_top" xlink:title="This class extends the Cpl::Dm::EventLoop and Cpl::Itc:Mailbox classes to support the asynchronous ch...">
<polygon fill="white" stroke="black" points="512,-48 512,-67 632,-67 632,-48 512,-48"/>
<text text-anchor="middle" x="572" y="-55" font-family="Helvetica,sans-Serif" font-size="10.00">Cpl::Dm::MailboxServer</text>
</a>
</g>
</g>
<!-- Node7&#45;&gt;Node8 -->
<g id="edge7" class="edge"><title>Node7&#45;&gt;Node8</title>
<path fill="none" stroke="midnightblue" d="M474.428,-58.7224C486.686,-58.5673 499.54,-58.4046 511.724,-58.2503"/>
<polygon fill="midnightblue" stroke="midnightblue" points="474.253,-55.2243 464.298,-58.8507 474.342,-62.2237 474.253,-55.2243"/>
</g>
<!-- Node9 -->
<g id="node9" class="node"><title>Node9</title>
<g id="a_node9"><a xlink:href="class_cpl_1_1_persistent_1_1_record_server.html" target="_top" xlink:title="This concrete class provides an Event driven Runnable object for executing the read/write operation t...">
<polygon fill="white" stroke="black" points="668,-48 668,-67 814,-67 814,-48 668,-48"/>
<text text-anchor="middle" x="741" y="-55" font-family="Helvetica,sans-Serif" font-size="10.00">Cpl::Persistent::RecordServer</text>
</a>
</g>
</g>
<!-- Node8&#45;&gt;Node9 -->
<g id="edge8" class="edge"><title>Node8&#45;&gt;Node9</title>
<path fill="none" stroke="midnightblue" d="M642.493,-57.5C650.908,-57.5 659.52,-57.5 667.971,-57.5"/>
<polygon fill="midnightblue" stroke="midnightblue" points="642.348,-54.0001 632.348,-57.5 642.348,-61.0001 642.348,-54.0001"/>
</g>
</g>
</svg>
