<?xml version="1.0" encoding="UTF-8" standalone="no"?>
<!DOCTYPE svg PUBLIC "-//W3C//DTD SVG 1.1//EN"
 "http://www.w3.org/Graphics/SVG/1.1/DTD/svg11.dtd">
<!-- Generated by graphviz version 10.0.1 (20240210.2158)
 -->
<!-- Title: Cpl::Itc::AtomicRequest&lt; ACCESS_API &gt; Pages: 1 -->
<svg width="128pt" height="164pt"
 viewBox="0.00 0.00 127.50 164.00" xmlns="http://www.w3.org/2000/svg" xmlns:xlink="http://www.w3.org/1999/xlink">
<g id="graph0" class="graph" transform="scale(1 1) rotate(0) translate(4 160)">
<title>Cpl::Itc::AtomicRequest&lt; ACCESS_API &gt;</title>
<!-- Node1 -->
<g id="Node000001" class="node">
<title>Node1</title>
<g id="a_Node000001"><a xlink:title="This concrete class define the &#39;Atomic&#39; Message request that allows a client to invoke multiple opera...">
<polygon fill="#999999" stroke="#666666" points="119.5,-100 0,-100 0,-68 119.5,-68 119.5,-100"/>
<text text-anchor="start" x="8" y="-86.5" font-family="Helvetica,sans-Serif" font-size="10.00">Cpl::Itc::AtomicRequest</text>
<text text-anchor="middle" x="59.75" y="-74.5" font-family="Helvetica,sans-Serif" font-size="10.00">&lt; ACCESS_API &gt;</text>
</a>
</g>
</g>
<!-- Node3 -->
<g id="Node000003" class="node">
<title>Node3</title>
<g id="a_Node000003"><a xlink:href="class_cpl_1_1_itc_1_1_atomic_sync.html" target="_top" xlink:title="This concrete class provides the ITC wrapper implementation for calling the &quot;Atomic Api&quot; synchronousl...">
<polygon fill="white" stroke="#666666" points="112.75,-32 6.75,-32 6.75,0 112.75,0 112.75,-32"/>
<text text-anchor="start" x="14.75" y="-18.5" font-family="Helvetica,sans-Serif" font-size="10.00">Cpl::Itc::AtomicSync</text>
<text text-anchor="middle" x="59.75" y="-6.5" font-family="Helvetica,sans-Serif" font-size="10.00">&lt; ACCESS_API &gt;</text>
</a>
</g>
</g>
<!-- Node1&#45;&gt;Node3 -->
<g id="edge2_Node000001_Node000003" class="edge">
<title>Node1&#45;&gt;Node3</title>
<g id="a_edge2_Node000001_Node000003"><a xlink:title=" ">
<path fill="none" stroke="#63b8ff" d="M59.75,-56.31C59.75,-48.12 59.75,-39.38 59.75,-32.22"/>
<polygon fill="#63b8ff" stroke="#63b8ff" points="56.25,-56.18 59.75,-66.18 63.25,-56.18 56.25,-56.18"/>
</a>
</g>
</g>
<!-- Node2 -->
<g id="Node000002" class="node">
<title>Node2</title>
<g id="a_Node000002"><a xlink:title=" ">
<polygon fill="white" stroke="#bfbfbf" points="98.5,-156 21,-156 21,-136 98.5,-136 98.5,-156"/>
<text text-anchor="middle" x="59.75" y="-142.5" font-family="Helvetica,sans-Serif" font-size="10.00">ACCESS_API</text>
</a>
</g>
</g>
<!-- Node2&#45;&gt;Node1 -->
<g id="edge1_Node000001_Node000002" class="edge">
<title>Node2&#45;&gt;Node1</title>
<g id="a_edge1_Node000001_Node000002"><a xlink:title=" ">
<path fill="none" stroke="#63b8ff" d="M59.75,-124.31C59.75,-116.37 59.75,-107.46 59.75,-100.14"/>
<polygon fill="#63b8ff" stroke="#63b8ff" points="56.25,-124.11 59.75,-134.11 63.25,-124.11 56.25,-124.11"/>
</a>
</g>
</g>
</g>
</svg>
