<?xml version="1.0" encoding="UTF-8" standalone="no"?>
<!DOCTYPE svg PUBLIC "-//W3C//DTD SVG 1.1//EN"
 "http://www.w3.org/Graphics/SVG/1.1/DTD/svg11.dtd">
<!-- Generated by graphviz version 2.38.0 (20140413.2041)
 -->
<!-- Title: Storm::Dm::MpVirtualOutputs Pages: 1 -->
<svg width="1533pt" height="253pt"
 viewBox="0.00 0.00 1533.00 252.50" xmlns="http://www.w3.org/2000/svg" xmlns:xlink="http://www.w3.org/1999/xlink">
<g id="graph0" class="graph" transform="scale(1 1) rotate(0) translate(4 248.5)">
<title>Storm::Dm::MpVirtualOutputs</title>
<polygon fill="white" stroke="none" points="-4,4 -4,-248.5 1529,-248.5 1529,4 -4,4"/>
<!-- Node1 -->
<g id="node1" class="node"><title>Node1</title>
<g id="a_node1"><a xlink:title="This class provides a concrete implementation for the virtual outputs for the system.">
<polygon fill="#bfbfbf" stroke="black" points="1379,-52 1379,-71 1525,-71 1525,-52 1379,-52"/>
<text text-anchor="middle" x="1452" y="-59" font-family="Helvetica,sans-Serif" font-size="10.00">Storm::Dm::MpVirtualOutputs</text>
</a>
</g>
</g>
<!-- Node2 -->
<g id="node2" class="node"><title>Node2</title>
<g id="a_node2"><a xlink:href="class_cpl_1_1_dm_1_1_model_point_common__.html" target="_top" xlink:title="This concrete class provide common infrastructure for a Model Point.">
<polygon fill="white" stroke="black" points="1156,-74 1156,-93 1307,-93 1307,-74 1156,-74"/>
<text text-anchor="middle" x="1231.5" y="-81" font-family="Helvetica,sans-Serif" font-size="10.00">Cpl::Dm::ModelPointCommon_</text>
</a>
</g>
</g>
<!-- Node2&#45;&gt;Node1 -->
<g id="edge1" class="edge"><title>Node2&#45;&gt;Node1</title>
<path fill="none" stroke="midnightblue" d="M1317.29,-74.9624C1337.67,-72.9111 1359.24,-70.7393 1378.97,-68.7527"/>
<polygon fill="midnightblue" stroke="midnightblue" points="1316.68,-71.5061 1307.08,-75.9904 1317.38,-78.4709 1316.68,-71.5061"/>
</g>
<!-- Node3 -->
<g id="node3" class="node"><title>Node3</title>
<g id="a_node3"><a xlink:href="class_cpl_1_1_dm_1_1_model_point.html" target="_top" xlink:title="This mostly abstract class defines the interface for a Model Point.">
<polygon fill="white" stroke="black" points="913,-193 913,-212 1020,-212 1020,-193 913,-193"/>
<text text-anchor="middle" x="966.5" y="-200" font-family="Helvetica,sans-Serif" font-size="10.00">Cpl::Dm::ModelPoint</text>
</a>
</g>
</g>
<!-- Node3&#45;&gt;Node2 -->
<g id="edge2" class="edge"><title>Node3&#45;&gt;Node2</title>
<path fill="none" stroke="midnightblue" d="M998.19,-188.663C1032.33,-173.264 1089.12,-147.633 1138,-125.5 1162.58,-114.369 1190.82,-101.541 1209.57,-93.02"/>
<polygon fill="midnightblue" stroke="midnightblue" points="996.448,-185.609 988.771,-192.91 999.326,-191.99 996.448,-185.609"/>
</g>
<!-- Node4 -->
<g id="node4" class="node"><title>Node4</title>
<g id="a_node4"><a xlink:href="class_cpl_1_1_container_1_1_map_item.html" target="_top" xlink:title="This abstract class represents a item that can be contained in an Map (aka a sorted list implemented ...">
<polygon fill="white" stroke="black" points="607,-225 607,-244 729,-244 729,-225 607,-225"/>
<text text-anchor="middle" x="668" y="-232" font-family="Helvetica,sans-Serif" font-size="10.00">Cpl::Container::MapItem</text>
</a>
</g>
</g>
<!-- Node4&#45;&gt;Node3 -->
<g id="edge3" class="edge"><title>Node4&#45;&gt;Node3</title>
<path fill="none" stroke="midnightblue" d="M739.032,-226.942C792.183,-221.205 864.131,-213.44 912.545,-208.215"/>
<polygon fill="midnightblue" stroke="midnightblue" points="738.568,-223.471 729.001,-228.024 739.319,-230.431 738.568,-223.471"/>
</g>
<!-- Node5 -->
<g id="node5" class="node"><title>Node5</title>
<g id="a_node5"><a xlink:href="class_cpl_1_1_container_1_1_dict_item.html" target="_top" xlink:title="This abstract class represents a item that can be contained in Dictionary.">
<polygon fill="white" stroke="black" points="326,-225 326,-244 447,-244 447,-225 326,-225"/>
<text text-anchor="middle" x="386.5" y="-232" font-family="Helvetica,sans-Serif" font-size="10.00">Cpl::Container::DictItem</text>
</a>
</g>
</g>
<!-- Node5&#45;&gt;Node4 -->
<g id="edge4" class="edge"><title>Node5&#45;&gt;Node4</title>
<path fill="none" stroke="midnightblue" d="M457.319,-234.5C503.374,-234.5 563.078,-234.5 606.993,-234.5"/>
<polygon fill="midnightblue" stroke="midnightblue" points="457.117,-231 447.117,-234.5 457.117,-238 457.117,-231"/>
</g>
<!-- Node6 -->
<g id="node6" class="node"><title>Node6</title>
<g id="a_node6"><a xlink:href="class_cpl_1_1_container_1_1_extended_item.html" target="_top" xlink:title="This class is used by the Container classes to implement a various types of DOUBLY linked containers.">
<polygon fill="white" stroke="black" points="141,-225 141,-244 286,-244 286,-225 141,-225"/>
<text text-anchor="middle" x="213.5" y="-232" font-family="Helvetica,sans-Serif" font-size="10.00">Cpl::Container::ExtendedItem</text>
</a>
</g>
</g>
<!-- Node6&#45;&gt;Node5 -->
<g id="edge5" class="edge"><title>Node6&#45;&gt;Node5</title>
<path fill="none" stroke="midnightblue" d="M296.047,-234.5C306.111,-234.5 316.248,-234.5 325.899,-234.5"/>
<polygon fill="midnightblue" stroke="midnightblue" points="296.029,-231 286.029,-234.5 296.029,-238 296.029,-231"/>
</g>
<!-- Node7 -->
<g id="node7" class="node"><title>Node7</title>
<g id="a_node7"><a xlink:href="class_cpl_1_1_container_1_1_item.html" target="_top" xlink:title="This class is used by the Container classes to implement a various types of singly linked containers.">
<polygon fill="white" stroke="black" points="0,-225 0,-244 104,-244 104,-225 0,-225"/>
<text text-anchor="middle" x="52" y="-232" font-family="Helvetica,sans-Serif" font-size="10.00">Cpl::Container::Item</text>
</a>
</g>
</g>
<!-- Node7&#45;&gt;Node6 -->
<g id="edge6" class="edge"><title>Node7&#45;&gt;Node6</title>
<path fill="none" stroke="midnightblue" d="M114.375,-234.5C123.061,-234.5 132.056,-234.5 140.915,-234.5"/>
<polygon fill="midnightblue" stroke="midnightblue" points="114.345,-231 104.345,-234.5 114.345,-238 114.345,-231"/>
</g>
<!-- Node8 -->
<g id="node8" class="node"><title>Node8</title>
<g id="a_node8"><a xlink:href="class_cpl_1_1_dm_1_1_model_database.html" target="_top" xlink:title="This concrete class implements a simple Model Database.">
<polygon fill="white" stroke="black" points="904,-118 904,-137 1029,-137 1029,-118 904,-118"/>
<text text-anchor="middle" x="966.5" y="-125" font-family="Helvetica,sans-Serif" font-size="10.00">Cpl::Dm::ModelDatabase</text>
</a>
</g>
</g>
<!-- Node8&#45;&gt;Node2 -->
<g id="edge7" class="edge"><title>Node8&#45;&gt;Node2</title>
<path fill="none" stroke="#9a32cd" stroke-dasharray="5,2" d="M1034.65,-116.266C1077.61,-109.078 1132.73,-99.8569 1173.54,-93.0287"/>
<polygon fill="#9a32cd" stroke="#9a32cd" points="1033.85,-112.85 1024.57,-117.953 1035.01,-119.755 1033.85,-112.85"/>
<text text-anchor="middle" x="1095.5" y="-115.5" font-family="Helvetica,sans-Serif" font-size="10.00"> m_modelDatabase</text>
</g>
<!-- Node9 -->
<g id="node9" class="node"><title>Node9</title>
<g id="a_node9"><a xlink:href="class_cpl_1_1_dm_1_1_model_database_api.html" target="_top" xlink:title="This class defines the basic operations that can be performed on a Model Base.">
<polygon fill="white" stroke="black" points="598,-187 598,-206 738,-206 738,-187 598,-187"/>
<text text-anchor="middle" x="668" y="-194" font-family="Helvetica,sans-Serif" font-size="10.00">Cpl::Dm::ModelDatabaseApi</text>
</a>
</g>
</g>
<!-- Node9&#45;&gt;Node8 -->
<g id="edge8" class="edge"><title>Node9&#45;&gt;Node8</title>
<path fill="none" stroke="midnightblue" d="M748.132,-186.814C788.085,-180.965 837.062,-172.322 880,-160.5 902.397,-154.334 927.057,-144.467 944.114,-137.127"/>
<polygon fill="midnightblue" stroke="midnightblue" points="747.58,-183.357 738.178,-188.241 748.574,-190.287 747.58,-183.357"/>
</g>
<!-- Node10 -->
<g id="node10" class="node"><title>Node10</title>
<g id="a_node10"><a xlink:href="class_cpl_1_1_container_1_1_map.html" target="_top" xlink:title=" ">
<polygon fill="white" stroke="black" points="605.5,-137.5 605.5,-167.5 730.5,-167.5 730.5,-137.5 605.5,-137.5"/>
<text text-anchor="start" x="613.5" y="-155.5" font-family="Helvetica,sans-Serif" font-size="10.00">Cpl::Container::Map</text>
<text text-anchor="middle" x="668" y="-144.5" font-family="Helvetica,sans-Serif" font-size="10.00">&lt; Cpl::Dm::ModelPoint &gt;</text>
</a>
</g>
</g>
<!-- Node10&#45;&gt;Node8 -->
<g id="edge9" class="edge"><title>Node10&#45;&gt;Node8</title>
<path fill="none" stroke="#9a32cd" stroke-dasharray="5,2" d="M740.855,-146.441C790.674,-142.241 856.33,-136.705 903.784,-132.704"/>
<polygon fill="#9a32cd" stroke="#9a32cd" points="740.466,-142.962 730.795,-147.29 741.054,-149.937 740.466,-142.962"/>
<text text-anchor="middle" x="818" y="-148.5" font-family="Helvetica,sans-Serif" font-size="10.00"> m_map</text>
</g>
<!-- Node11 -->
<g id="node11" class="node"><title>Node11</title>
<g id="a_node11"><a xlink:href="class_cpl_1_1_container_1_1_map.html" target="_top" xlink:title="This template class implements an Map using an AVL Binary tree (i.e.">
<polygon fill="white" stroke="black" points="335,-137.5 335,-167.5 438,-167.5 438,-137.5 335,-137.5"/>
<text text-anchor="start" x="343" y="-155.5" font-family="Helvetica,sans-Serif" font-size="10.00">Cpl::Container::Map</text>
<text text-anchor="middle" x="386.5" y="-144.5" font-family="Helvetica,sans-Serif" font-size="10.00">&lt; ITEM &gt;</text>
</a>
</g>
</g>
<!-- Node11&#45;&gt;Node10 -->
<g id="edge10" class="edge"><title>Node11&#45;&gt;Node10</title>
<path fill="none" stroke="orange" stroke-dasharray="5,2" d="M448.347,-152.5C494.819,-152.5 558.606,-152.5 605.29,-152.5"/>
<polygon fill="orange" stroke="orange" points="448.115,-149 438.115,-152.5 448.115,-156 448.115,-149"/>
<text text-anchor="middle" x="524" y="-155.5" font-family="Helvetica,sans-Serif" font-size="10.00"> &lt; Cpl::Dm::ModelPoint &gt;</text>
</g>
<!-- Node12 -->
<g id="node12" class="node"><title>Node12</title>
<g id="a_node12"><a xlink:href="class_cpl_1_1_system_1_1_mutex.html" target="_top" xlink:title="This mutex class defines the interface for a mutex that has &quot;recursive&quot; semantics.">
<polygon fill="white" stroke="black" points="616,-99 616,-118 720,-118 720,-99 616,-99"/>
<text text-anchor="middle" x="668" y="-106" font-family="Helvetica,sans-Serif" font-size="10.00">Cpl::System::Mutex</text>
</a>
</g>
</g>
<!-- Node12&#45;&gt;Node8 -->
<g id="edge11" class="edge"><title>Node12&#45;&gt;Node8</title>
<path fill="none" stroke="#9a32cd" stroke-dasharray="5,2" d="M730.378,-108.265C772.542,-108.589 829.758,-109.983 880,-114.5 889.571,-115.36 899.7,-116.603 909.51,-117.983"/>
<polygon fill="#9a32cd" stroke="#9a32cd" points="730.288,-104.765 720.268,-108.206 730.247,-111.765 730.288,-104.765"/>
<text text-anchor="middle" x="818" y="-117.5" font-family="Helvetica,sans-Serif" font-size="10.00"> m_lock</text>
</g>
<!-- Node13 -->
<g id="node13" class="node"><title>Node13</title>
<g id="a_node13"><a xlink:href="class_cpl_1_1_container_1_1_d_list.html" target="_top" xlink:title=" ">
<polygon fill="white" stroke="black" points="898,-49.5 898,-79.5 1035,-79.5 1035,-49.5 898,-49.5"/>
<text text-anchor="start" x="906" y="-67.5" font-family="Helvetica,sans-Serif" font-size="10.00">Cpl::Container::DList</text>
<text text-anchor="middle" x="966.5" y="-56.5" font-family="Helvetica,sans-Serif" font-size="10.00">&lt; Cpl::Dm::SubscriberApi &gt;</text>
</a>
</g>
</g>
<!-- Node13&#45;&gt;Node2 -->
<g id="edge12" class="edge"><title>Node13&#45;&gt;Node2</title>
<path fill="none" stroke="#9a32cd" stroke-dasharray="5,2" d="M1045.3,-66.9784C1074.42,-68.2139 1107.75,-69.9951 1138,-72.5 1143.8,-72.9805 1149.8,-73.5434 1155.83,-74.156"/>
<polygon fill="#9a32cd" stroke="#9a32cd" points="1045.33,-63.4767 1035.19,-66.5639 1045.04,-70.4708 1045.33,-63.4767"/>
<text text-anchor="middle" x="1095.5" y="-75.5" font-family="Helvetica,sans-Serif" font-size="10.00"> m_subscribers</text>
</g>
<!-- Node14 -->
<g id="node14" class="node"><title>Node14</title>
<g id="a_node14"><a xlink:href="class_cpl_1_1_container_1_1_d_list.html" target="_top" xlink:title="This template class implements a Doubly linked list which maintains the ordering imposed on it by the...">
<polygon fill="white" stroke="black" points="614.5,-49.5 614.5,-79.5 721.5,-79.5 721.5,-49.5 614.5,-49.5"/>
<text text-anchor="start" x="622.5" y="-67.5" font-family="Helvetica,sans-Serif" font-size="10.00">Cpl::Container::DList</text>
<text text-anchor="middle" x="668" y="-56.5" font-family="Helvetica,sans-Serif" font-size="10.00">&lt; ITEM &gt;</text>
</a>
</g>
</g>
<!-- Node14&#45;&gt;Node13 -->
<g id="edge13" class="edge"><title>Node14&#45;&gt;Node13</title>
<path fill="none" stroke="orange" stroke-dasharray="5,2" d="M731.774,-64.5C780.532,-64.5 848.026,-64.5 897.954,-64.5"/>
<polygon fill="orange" stroke="orange" points="731.667,-61.0001 721.667,-64.5 731.667,-68.0001 731.667,-61.0001"/>
<text text-anchor="middle" x="818" y="-67.5" font-family="Helvetica,sans-Serif" font-size="10.00"> &lt; Cpl::Dm::SubscriberApi &gt;</text>
</g>
<!-- Node15 -->
<g id="node15" class="node"><title>Node15</title>
<g id="a_node15"><a xlink:href="class_cpl_1_1_dm_1_1_static_info.html" target="_top" xlink:title="This class defines an interface for a Model Point to store its constant/static data in program memory...">
<polygon fill="white" stroke="black" points="916.5,-9 916.5,-28 1016.5,-28 1016.5,-9 916.5,-9"/>
<text text-anchor="middle" x="966.5" y="-16" font-family="Helvetica,sans-Serif" font-size="10.00">Cpl::Dm::StaticInfo</text>
</a>
</g>
</g>
<!-- Node15&#45;&gt;Node2 -->
<g id="edge14" class="edge"><title>Node15&#45;&gt;Node2</title>
<path fill="none" stroke="#9a32cd" stroke-dasharray="5,2" d="M1026.87,-24.5464C1060.43,-29.375 1102.62,-37.855 1138,-52.5 1146.88,-56.1769 1147.22,-60.5895 1156,-64.5 1164.41,-68.2459 1173.7,-71.3528 1182.79,-73.8931"/>
<polygon fill="#9a32cd" stroke="#9a32cd" points="1027.13,-21.0497 1016.75,-23.1624 1026.18,-27.9851 1027.13,-21.0497"/>
<text text-anchor="middle" x="1095.5" y="-55.5" font-family="Helvetica,sans-Serif" font-size="10.00"> m_staticInfo</text>
</g>
<!-- Node16 -->
<g id="node16" class="node"><title>Node16</title>
<g id="a_node16"><a xlink:href="class_cpl_1_1_container_1_1_key_literal_string.html" target="_top" xlink:title="This class provides a &#39;Key&#39; wrapper for a C string literal.">
<polygon fill="white" stroke="black" points="604,-0.5 604,-30.5 732,-30.5 732,-0.5 604,-0.5"/>
<text text-anchor="start" x="612" y="-18.5" font-family="Helvetica,sans-Serif" font-size="10.00">Cpl::Container::KeyLiteral</text>
<text text-anchor="middle" x="668" y="-7.5" font-family="Helvetica,sans-Serif" font-size="10.00">String</text>
</a>
</g>
</g>
<!-- Node16&#45;&gt;Node15 -->
<g id="edge15" class="edge"><title>Node16&#45;&gt;Node15</title>
<path fill="none" stroke="midnightblue" d="M742.469,-16.2434C796.575,-16.7908 868.686,-17.5204 916.069,-17.9999"/>
<polygon fill="midnightblue" stroke="midnightblue" points="742.278,-12.7413 732.243,-16.1399 742.207,-19.741 742.278,-12.7413"/>
</g>
<!-- Node17 -->
<g id="node17" class="node"><title>Node17</title>
<g id="a_node17"><a xlink:href="class_cpl_1_1_container_1_1_key_string_buffer.html" target="_top" xlink:title="This class provides a &#39;Key&#39; wrapper for a array of Character of length N, i.e.">
<polygon fill="white" stroke="black" points="323,-0.5 323,-30.5 450,-30.5 450,-0.5 323,-0.5"/>
<text text-anchor="start" x="331" y="-18.5" font-family="Helvetica,sans-Serif" font-size="10.00">Cpl::Container::KeyString</text>
<text text-anchor="middle" x="386.5" y="-7.5" font-family="Helvetica,sans-Serif" font-size="10.00">Buffer</text>
</a>
</g>
</g>
<!-- Node17&#45;&gt;Node16 -->
<g id="edge16" class="edge"><title>Node17&#45;&gt;Node16</title>
<path fill="none" stroke="midnightblue" d="M460.373,-15.5C504.769,-15.5 560.948,-15.5 603.517,-15.5"/>
<polygon fill="midnightblue" stroke="midnightblue" points="460.225,-12.0001 450.225,-15.5 460.225,-19.0001 460.225,-12.0001"/>
</g>
<!-- Node18 -->
<g id="node18" class="node"><title>Node18</title>
<g id="a_node18"><a xlink:href="class_cpl_1_1_container_1_1_key.html" target="_top" xlink:title="This abstract class defines the interface that a contained object must support if it has comparable k...">
<polygon fill="white" stroke="black" points="163,-6 163,-25 264,-25 264,-6 163,-6"/>
<text text-anchor="middle" x="213.5" y="-13" font-family="Helvetica,sans-Serif" font-size="10.00">Cpl::Container::Key</text>
</a>
</g>
</g>
<!-- Node18&#45;&gt;Node17 -->
<g id="edge17" class="edge"><title>Node18&#45;&gt;Node17</title>
<path fill="none" stroke="midnightblue" d="M274.481,-15.5C290.103,-15.5 306.976,-15.5 322.737,-15.5"/>
<polygon fill="midnightblue" stroke="midnightblue" points="274.42,-12.0001 264.42,-15.5 274.42,-19.0001 274.42,-12.0001"/>
</g>
<!-- Node19 -->
<g id="node19" class="node"><title>Node19</title>
<g id="a_node19"><a xlink:href="namespace_storm_1_1_type.html#struct_storm_1_1_type_1_1_virtual_outputs___t" target="_top" xlink:title="The following typedef is used to hold the virtual outputs for System.">
<polygon fill="white" stroke="black" points="1156.5,-36 1156.5,-55 1306.5,-55 1306.5,-36 1156.5,-36"/>
<text text-anchor="middle" x="1231.5" y="-43" font-family="Helvetica,sans-Serif" font-size="10.00">Storm::Type::VirtualOutputs_T</text>
</a>
</g>
</g>
<!-- Node19&#45;&gt;Node1 -->
<g id="edge18" class="edge"><title>Node19&#45;&gt;Node1</title>
<path fill="none" stroke="#9a32cd" stroke-dasharray="5,2" d="M1316.73,-49.5415C1331.5,-50.4059 1346.7,-51.3962 1361,-52.5 1366.79,-52.9472 1372.79,-53.4531 1378.81,-53.9915"/>
<polygon fill="#9a32cd" stroke="#9a32cd" points="1316.79,-46.0388 1306.6,-48.9633 1316.39,-53.0275 1316.79,-46.0388"/>
<text text-anchor="middle" x="1343" y="-55.5" font-family="Helvetica,sans-Serif" font-size="10.00"> m_data</text>
</g>
</g>
</svg>
