<?xml version="1.0" encoding="UTF-8" standalone="no"?>
<!DOCTYPE svg PUBLIC "-//W3C//DTD SVG 1.1//EN"
 "http://www.w3.org/Graphics/SVG/1.1/DTD/svg11.dtd">
<!-- Generated by graphviz version 2.38.0 (20140413.2041)
 -->
<!-- Title: Cpl::Itc::SAP&lt; SERVER &gt; Pages: 1 -->
<svg width="141pt" height="95pt"
 viewBox="0.00 0.00 141.00 95.00" xmlns="http://www.w3.org/2000/svg" xmlns:xlink="http://www.w3.org/1999/xlink">
<g id="graph0" class="graph" transform="scale(1 1) rotate(0) translate(4 91)">
<title>Cpl::Itc::SAP&lt; SERVER &gt;</title>
<polygon fill="white" stroke="none" points="-4,4 -4,-91 137,-91 137,4 -4,4"/>
<!-- Node1 -->
<g id="node1" class="node"><title>Node1</title>
<g id="a_node1"><a xlink:title="This concrete template class represents the interface to a ITC Service Access Point (SAP).">
<polygon fill="#bfbfbf" stroke="black" points="0,-0.5 0,-19.5 133,-19.5 133,-0.5 0,-0.5"/>
<text text-anchor="middle" x="66.5" y="-7.5" font-family="Helvetica,sans-Serif" font-size="10.00">Cpl::Itc::SAP&lt; SERVER &gt;</text>
</a>
</g>
</g>
<!-- Node2 -->
<g id="node2" class="node"><title>Node2</title>
<g id="a_node2"><a xlink:href="class_cpl_1_1_itc_1_1_post_api.html" target="_top" xlink:title="This abstract class represents the interface used to send messages to a mailbox.">
<polygon fill="white" stroke="black" points="22,-67.5 22,-86.5 111,-86.5 111,-67.5 22,-67.5"/>
<text text-anchor="middle" x="66.5" y="-74.5" font-family="Helvetica,sans-Serif" font-size="10.00">Cpl::Itc::PostApi</text>
</a>
</g>
</g>
<!-- Node2&#45;&gt;Node1 -->
<g id="edge1" class="edge"><title>Node2&#45;&gt;Node1</title>
<path fill="none" stroke="midnightblue" d="M64.9399,-57.3825C64.7572,-54.5753 64.6003,-51.7126 64.5,-49 64.1288,-38.9652 64.9035,-27.4502 65.5942,-19.7505"/>
<polygon fill="midnightblue" stroke="midnightblue" points="61.4607,-57.7906 65.7083,-67.4967 68.4406,-57.2602 61.4607,-57.7906"/>
</g>
<!-- Node2&#45;&gt;Node1 -->
<g id="edge2" class="edge"><title>Node2&#45;&gt;Node1</title>
<path fill="none" stroke="#9a32cd" stroke-dasharray="5,2" d="M66.5,-57.037C66.5,-44.6703 66.5,-29.1198 66.5,-19.6273"/>
<polygon fill="#9a32cd" stroke="#9a32cd" points="63.0001,-57.2338 66.5,-67.2338 70.0001,-57.2338 63.0001,-57.2338"/>
<text text-anchor="middle" x="87" y="-41" font-family="Helvetica,sans-Serif" font-size="10.00"> m_mbox</text>
</g>
</g>
</svg>
