<?xml version="1.0" encoding="UTF-8" standalone="no"?>
<!DOCTYPE svg PUBLIC "-//W3C//DTD SVG 1.1//EN"
 "http://www.w3.org/Graphics/SVG/1.1/DTD/svg11.dtd">
<!-- Generated by graphviz version 10.0.1 (20240210.2158)
 -->
<!-- Title: Cpl::Memory::Allocator Pages: 1 -->
<svg width="950pt" height="192pt"
 viewBox="0.00 0.00 949.75 192.00" xmlns="http://www.w3.org/2000/svg" xmlns:xlink="http://www.w3.org/1999/xlink">
<g id="graph0" class="graph" transform="scale(1 1) rotate(0) translate(4 188)">
<title>Cpl::Memory::Allocator</title>
<!-- Node1 -->
<g id="Node000001" class="node">
<title>Node1</title>
<g id="a_Node000001"><a xlink:title="This abstract class defines the interface for a Memory Allocator.">
<polygon fill="#999999" stroke="#666666" points="255,-96 139.25,-96 139.25,-76 255,-76 255,-96"/>
<text text-anchor="middle" x="197.12" y="-82.5" font-family="Helvetica,sans-Serif" font-size="10.00">Cpl::Memory::Allocator</text>
</a>
</g>
</g>
<!-- Node3 -->
<g id="Node000003" class="node">
<title>Node3</title>
<g id="a_Node000003"><a xlink:href="class_cpl_1_1_memory_1_1_s_pool.html" target="_top" xlink:title=" ">
<polygon fill="white" stroke="#666666" points="742.5,-156 575,-156 575,-124 742.5,-124 742.5,-156"/>
<text text-anchor="start" x="583" y="-142.5" font-family="Helvetica,sans-Serif" font-size="10.00">Cpl::Memory::SPool</text>
<text text-anchor="middle" x="658.75" y="-130.5" font-family="Helvetica,sans-Serif" font-size="10.00">&lt; Cpl::Io::Socket::InputOutput, N &gt;</text>
</a>
</g>
</g>
<!-- Node1&#45;&gt;Node3 -->
<g id="edge2_Node000001_Node000003" class="edge">
<title>Node1&#45;&gt;Node3</title>
<g id="a_edge2_Node000001_Node000003"><a xlink:title=" ">
<path fill="none" stroke="#63b8ff" d="M255.93,-98.68C267.82,-101.02 280.28,-103.26 292,-105 388.54,-119.35 500.32,-129.05 574.65,-134.53"/>
<polygon fill="#63b8ff" stroke="#63b8ff" points="256.73,-95.27 246.23,-96.73 255.35,-102.14 256.73,-95.27"/>
</a>
</g>
</g>
<!-- Node5 -->
<g id="Node000005" class="node">
<title>Node5</title>
<g id="a_Node000005"><a xlink:href="class_cpl_1_1_memory_1_1_contiguous_allocator.html" target="_top" xlink:title="This abstract class is used &#39;extend&#39; the Memory Allocator to have contiguous semantics.">
<polygon fill="white" stroke="#666666" points="456.5,-20 292,-20 292,0 456.5,0 456.5,-20"/>
<text text-anchor="middle" x="374.25" y="-6.5" font-family="Helvetica,sans-Serif" font-size="10.00">Cpl::Memory::ContiguousAllocator</text>
</a>
</g>
</g>
<!-- Node1&#45;&gt;Node5 -->
<g id="edge4_Node000001_Node000005" class="edge">
<title>Node1&#45;&gt;Node5</title>
<g id="a_edge4_Node000001_Node000005"><a xlink:title=" ">
<path fill="none" stroke="#63b8ff" d="M221.28,-69.07C239.64,-56.38 266.38,-39.46 292,-29 300.18,-25.66 309.08,-22.83 317.88,-20.46"/>
<polygon fill="#63b8ff" stroke="#63b8ff" points="219.39,-66.12 213.24,-74.75 223.43,-71.84 219.39,-66.12"/>
</a>
</g>
</g>
<!-- Node7 -->
<g id="Node000007" class="node">
<title>Node7</title>
<g id="a_Node000007"><a xlink:href="class_cpl_1_1_memory_1_1_h_pool.html" target="_top" xlink:title="This template class defines a concrete Allocator that allocates its block memory from the HEAP.">
<polygon fill="white" stroke="#666666" points="437.75,-96 310.75,-96 310.75,-76 437.75,-76 437.75,-96"/>
<text text-anchor="middle" x="374.25" y="-82.5" font-family="Helvetica,sans-Serif" font-size="10.00">Cpl::Memory::HPool&lt; T &gt;</text>
</a>
</g>
</g>
<!-- Node1&#45;&gt;Node7 -->
<g id="edge6_Node000001_Node000007" class="edge">
<title>Node1&#45;&gt;Node7</title>
<g id="a_edge6_Node000001_Node000007"><a xlink:title=" ">
<path fill="none" stroke="#63b8ff" d="M266.79,-86C281.14,-86 296.21,-86 310.34,-86"/>
<polygon fill="#63b8ff" stroke="#63b8ff" points="266.98,-82.5 256.98,-86 266.98,-89.5 266.98,-82.5"/>
</a>
</g>
</g>
<!-- Node8 -->
<g id="Node000008" class="node">
<title>Node8</title>
<g id="a_Node000008"><a xlink:href="class_cpl_1_1_memory_1_1_pool__.html" target="_top" xlink:title="This private concrete class implements a Memory Allocator using a pool of fixed size blocks.">
<polygon fill="white" stroke="#666666" points="425.38,-58 323.12,-58 323.12,-38 425.38,-38 425.38,-58"/>
<text text-anchor="middle" x="374.25" y="-44.5" font-family="Helvetica,sans-Serif" font-size="10.00">Cpl::Memory::Pool_</text>
</a>
</g>
</g>
<!-- Node1&#45;&gt;Node8 -->
<g id="edge7_Node000001_Node000008" class="edge">
<title>Node1&#45;&gt;Node8</title>
<g id="a_edge7_Node000001_Node000008"><a xlink:title=" ">
<path fill="none" stroke="#63b8ff" d="M257.66,-73.08C279.64,-68.31 304.25,-62.97 325.09,-58.45"/>
<polygon fill="#63b8ff" stroke="#63b8ff" points="256.95,-69.65 247.92,-75.19 258.44,-76.49 256.95,-69.65"/>
</a>
</g>
</g>
<!-- Node9 -->
<g id="Node000009" class="node">
<title>Node9</title>
<g id="a_Node000009"><a xlink:href="class_cpl_1_1_memory_1_1_s_pool.html" target="_top" xlink:title="This template class defines a concrete Allocator that STATICALLY allocates all of its Memory and can ...">
<polygon fill="white" stroke="#666666" points="426.12,-184 322.38,-184 322.38,-152 426.12,-152 426.12,-184"/>
<text text-anchor="start" x="330.38" y="-170.5" font-family="Helvetica,sans-Serif" font-size="10.00">Cpl::Memory::SPool</text>
<text text-anchor="middle" x="374.25" y="-158.5" font-family="Helvetica,sans-Serif" font-size="10.00">&lt; T, N &gt;</text>
</a>
</g>
</g>
<!-- Node1&#45;&gt;Node9 -->
<g id="edge8_Node000001_Node000009" class="edge">
<title>Node1&#45;&gt;Node9</title>
<g id="a_edge8_Node000001_Node000009"><a xlink:title=" ">
<path fill="none" stroke="#63b8ff" d="M218.96,-103.16C233.4,-114.36 253.47,-128.59 273,-138 288.39,-145.41 305.99,-151.42 322.11,-156.07"/>
<polygon fill="#63b8ff" stroke="#63b8ff" points="221.54,-100.74 211.53,-97.27 217.19,-106.23 221.54,-100.74"/>
</a>
</g>
</g>
<!-- Node2 -->
<g id="Node000002" class="node">
<title>Node2</title>
<g id="a_Node000002"><a xlink:href="class_cpl_1_1_container_1_1_item.html" target="_top" xlink:title="This class is used by the Container classes to implement a various types of singly linked containers.">
<polygon fill="white" stroke="#666666" points="102.25,-96 0,-96 0,-76 102.25,-76 102.25,-96"/>
<text text-anchor="middle" x="51.12" y="-82.5" font-family="Helvetica,sans-Serif" font-size="10.00">Cpl::Container::Item</text>
</a>
</g>
</g>
<!-- Node2&#45;&gt;Node1 -->
<g id="edge1_Node000001_Node000002" class="edge">
<title>Node2&#45;&gt;Node1</title>
<g id="a_edge1_Node000001_Node000002"><a xlink:title=" ">
<path fill="none" stroke="#63b8ff" d="M113.8,-86C122.21,-86 130.82,-86 139.14,-86"/>
<polygon fill="#63b8ff" stroke="#63b8ff" points="114,-82.5 104,-86 114,-89.5 114,-82.5"/>
</a>
</g>
</g>
<!-- Node4 -->
<g id="Node000004" class="node">
<title>Node4</title>
<g id="a_Node000004"><a xlink:href="class_cpl_1_1_io_1_1_socket_1_1_stream_pool.html" target="_top" xlink:title="This concrete template class implement a socket factory that is capable of creating N concurrently op...">
<polygon fill="white" stroke="#666666" points="941.75,-150 779.5,-150 779.5,-130 941.75,-130 941.75,-150"/>
<text text-anchor="middle" x="860.62" y="-136.5" font-family="Helvetica,sans-Serif" font-size="10.00">Cpl::Io::Socket::StreamPool&lt; N &gt;</text>
</a>
</g>
</g>
<!-- Node3&#45;&gt;Node4 -->
<g id="edge3_Node000003_Node000004" class="edge">
<title>Node3&#45;&gt;Node4</title>
<g id="a_edge3_Node000003_Node000004"><a xlink:title=" ">
<path fill="none" stroke="#63b8ff" d="M754.12,-140C762.47,-140 770.88,-140 779.1,-140"/>
<polygon fill="#63b8ff" stroke="#63b8ff" points="754.29,-136.5 744.29,-140 754.29,-143.5 754.29,-136.5"/>
</a>
</g>
</g>
<!-- Node6 -->
<g id="Node000006" class="node">
<title>Node6</title>
<g id="a_Node000006"><a xlink:href="class_cpl_1_1_memory_1_1_lean_heap.html" target="_top" xlink:title="This class manages an allocate&#45;only&#45;heap.">
<polygon fill="white" stroke="#666666" points="719.25,-20 598.25,-20 598.25,0 719.25,0 719.25,-20"/>
<text text-anchor="middle" x="658.75" y="-6.5" font-family="Helvetica,sans-Serif" font-size="10.00">Cpl::Memory::LeanHeap</text>
</a>
</g>
</g>
<!-- Node5&#45;&gt;Node6 -->
<g id="edge5_Node000005_Node000006" class="edge">
<title>Node5&#45;&gt;Node6</title>
<g id="a_edge5_Node000005_Node000006"><a xlink:title=" ">
<path fill="none" stroke="#63b8ff" d="M468.21,-10C510.84,-10 560.13,-10 597.76,-10"/>
<polygon fill="#63b8ff" stroke="#63b8ff" points="468.47,-6.5 458.47,-10 468.47,-13.5 468.47,-6.5"/>
</a>
</g>
</g>
<!-- Node9&#45;&gt;Node3 -->
<g id="edge9_Node000009_Node000003" class="edge">
<title>Node9&#45;&gt;Node3</title>
<g id="a_edge9_Node000009_Node000003"><a xlink:title=" ">
<path fill="none" stroke="orange" stroke-dasharray="5,2" d="M437.68,-161.81C477.93,-157.82 530.75,-152.59 574.56,-148.25"/>
<polygon fill="orange" stroke="orange" points="437.52,-158.31 427.91,-162.78 438.21,-165.28 437.52,-158.31"/>
</a>
</g>
<text text-anchor="start" x="474.5" y="-172.5" font-family="Helvetica,sans-Serif" font-size="10.00" fill="grey"> &lt; Cpl::Io::Socket::</text>
<text text-anchor="middle" x="515.75" y="-160.5" font-family="Helvetica,sans-Serif" font-size="10.00" fill="grey">InputOutput, N &gt;</text>
</g>
</g>
</svg>
