<?xml version="1.0" encoding="UTF-8" standalone="no"?>
<!DOCTYPE svg PUBLIC "-//W3C//DTD SVG 1.1//EN"
 "http://www.w3.org/Graphics/SVG/1.1/DTD/svg11.dtd">
<!-- Generated by graphviz version 10.0.1 (20240210.2158)
 -->
<!-- Title: Cpl::Dm::Mp::BitArray_&lt; WORDSIZE, MPTYPE &gt; Pages: 1 -->
<svg width="250pt" height="497pt"
 viewBox="0.00 0.00 250.38 497.00" xmlns="http://www.w3.org/2000/svg" xmlns:xlink="http://www.w3.org/1999/xlink">
<g id="graph0" class="graph" transform="scale(1 1) rotate(0) translate(4 493)">
<title>Cpl::Dm::Mp::BitArray_&lt; WORDSIZE, MPTYPE &gt;</title>
<!-- Node1 -->
<g id="Node000001" class="node">
<title>Node1</title>
<g id="a_Node000001"><a xlink:title="This template class extends the Numeric&lt;&gt; class to provide bit operation on the numeric value.">
<polygon fill="#999999" stroke="#666666" points="147.88,-169 10.38,-169 10.38,-137 147.88,-137 147.88,-169"/>
<text text-anchor="start" x="18.38" y="-155.5" font-family="Helvetica,sans-Serif" font-size="10.00">Cpl::Dm::Mp::BitArray</text>
<text text-anchor="middle" x="79.12" y="-143.5" font-family="Helvetica,sans-Serif" font-size="10.00">_&lt; WORDSIZE, MPTYPE &gt;</text>
</a>
</g>
</g>
<!-- Node7 -->
<g id="Node000007" class="node">
<title>Node7</title>
<g id="a_Node000007"><a xlink:href="class_cpl_1_1_dm_1_1_mp_1_1_bit_array__.html" target="_top" xlink:title=" ">
<polygon fill="white" stroke="#666666" points="141.88,-89 16.38,-89 16.38,-57 141.88,-57 141.88,-89"/>
<text text-anchor="start" x="24.38" y="-75.5" font-family="Helvetica,sans-Serif" font-size="10.00">Cpl::Dm::Mp::BitArray</text>
<text text-anchor="middle" x="79.12" y="-63.5" font-family="Helvetica,sans-Serif" font-size="10.00">_&lt; uint16_t, BitArray16 &gt;</text>
</a>
</g>
</g>
<!-- Node1&#45;&gt;Node7 -->
<g id="edge7_Node000001_Node000007" class="edge">
<title>Node1&#45;&gt;Node7</title>
<g id="a_edge7_Node000001_Node000007"><a xlink:title=" ">
<path fill="none" stroke="orange" stroke-dasharray="5,2" d="M79.12,-125.37C79.12,-113.37 79.12,-99.63 79.12,-89.38"/>
<polygon fill="orange" stroke="orange" points="75.63,-125.08 79.13,-135.08 82.63,-125.08 75.63,-125.08"/>
</a>
</g>
<text text-anchor="middle" x="132.75" y="-109.5" font-family="Helvetica,sans-Serif" font-size="10.00" fill="grey"> &lt; uint16_t, BitArray16 &gt;</text>
</g>
<!-- Node2 -->
<g id="Node000002" class="node">
<title>Node2</title>
<g id="a_Node000002"><a xlink:href="class_cpl_1_1_dm_1_1_mp_1_1_numeric.html" target="_top" xlink:title=" ">
<polygon fill="white" stroke="#666666" points="145.25,-238 13,-238 13,-206 145.25,-206 145.25,-238"/>
<text text-anchor="start" x="21" y="-224.5" font-family="Helvetica,sans-Serif" font-size="10.00">Cpl::Dm::Mp::Numeric</text>
<text text-anchor="middle" x="79.12" y="-212.5" font-family="Helvetica,sans-Serif" font-size="10.00">&lt; WORDSIZE, MPTYPE &gt;</text>
</a>
</g>
</g>
<!-- Node2&#45;&gt;Node1 -->
<g id="edge1_Node000001_Node000002" class="edge">
<title>Node2&#45;&gt;Node1</title>
<g id="a_edge1_Node000001_Node000002"><a xlink:title=" ">
<path fill="none" stroke="#63b8ff" d="M79.12,-194.35C79.12,-185.78 79.12,-176.59 79.12,-169.14"/>
<polygon fill="#63b8ff" stroke="#63b8ff" points="75.63,-194.28 79.13,-204.28 82.63,-194.28 75.63,-194.28"/>
</a>
</g>
</g>
<!-- Node3 -->
<g id="Node000003" class="node">
<title>Node3</title>
<g id="a_Node000003"><a xlink:href="class_cpl_1_1_dm_1_1_model_point_common__.html" target="_top" xlink:title="This concrete class provide common infrastructure for a Model Point.">
<polygon fill="white" stroke="#666666" points="150.25,-375 0,-375 0,-355 150.25,-355 150.25,-375"/>
<text text-anchor="middle" x="75.12" y="-361.5" font-family="Helvetica,sans-Serif" font-size="10.00">Cpl::Dm::ModelPointCommon_</text>
</a>
</g>
</g>
<!-- Node3&#45;&gt;Node2 -->
<g id="edge2_Node000002_Node000003" class="edge">
<title>Node3&#45;&gt;Node2</title>
<g id="a_edge2_Node000002_Node000003"><a xlink:title=" ">
<path fill="none" stroke="#63b8ff" d="M75.71,-343.35C76.52,-314.74 77.97,-263.68 78.69,-238.26"/>
<polygon fill="#63b8ff" stroke="#63b8ff" points="72.22,-343.14 75.43,-353.24 79.21,-343.34 72.22,-343.14"/>
</a>
</g>
</g>
<!-- Node6 -->
<g id="Node000006" class="node">
<title>Node6</title>
<g id="a_Node000006"><a xlink:href="class_cpl_1_1_dm_1_1_mp_1_1_numeric.html" target="_top" xlink:title="This template class provides a mostly concrete implementation for a Model Point who&#39;s data is a C num...">
<polygon fill="white" stroke="#666666" points="224.62,-318 91.62,-318 91.62,-286 224.62,-286 224.62,-318"/>
<text text-anchor="start" x="99.62" y="-304.5" font-family="Helvetica,sans-Serif" font-size="10.00">Cpl::Dm::Mp::Numeric</text>
<text text-anchor="middle" x="158.12" y="-292.5" font-family="Helvetica,sans-Serif" font-size="10.00">&lt; ELEMTYPE, MPTYPE &gt;</text>
</a>
</g>
</g>
<!-- Node3&#45;&gt;Node6 -->
<g id="edge6_Node000006_Node000003" class="edge">
<title>Node3&#45;&gt;Node6</title>
<g id="a_edge6_Node000006_Node000003"><a xlink:title=" ">
<path fill="none" stroke="#63b8ff" d="M96.96,-347.95C109.44,-338.78 125.01,-327.34 137.32,-318.29"/>
<polygon fill="#63b8ff" stroke="#63b8ff" points="94.94,-345.1 88.95,-353.84 99.08,-350.74 94.94,-345.1"/>
</a>
</g>
</g>
<!-- Node4 -->
<g id="Node000004" class="node">
<title>Node4</title>
<g id="a_Node000004"><a xlink:href="class_cpl_1_1_dm_1_1_model_point.html" target="_top" xlink:title="This mostly abstract class defines the interface for a Model Point.">
<polygon fill="white" stroke="#666666" points="128.12,-432 22.12,-432 22.12,-412 128.12,-412 128.12,-432"/>
<text text-anchor="middle" x="75.12" y="-418.5" font-family="Helvetica,sans-Serif" font-size="10.00">Cpl::Dm::ModelPoint</text>
</a>
</g>
</g>
<!-- Node4&#45;&gt;Node3 -->
<g id="edge3_Node000003_Node000004" class="edge">
<title>Node4&#45;&gt;Node3</title>
<g id="a_edge3_Node000003_Node000004"><a xlink:title=" ">
<path fill="none" stroke="#63b8ff" d="M75.12,-400.69C75.12,-391.97 75.12,-382.22 75.12,-375.28"/>
<polygon fill="#63b8ff" stroke="#63b8ff" points="71.63,-400.4 75.13,-410.4 78.63,-400.4 71.63,-400.4"/>
</a>
</g>
</g>
<!-- Node5 -->
<g id="Node000005" class="node">
<title>Node5</title>
<g id="a_Node000005"><a xlink:href="class_cpl_1_1_container_1_1_item.html" target="_top" xlink:title="This class is used by the Container classes to implement a various types of singly linked containers.">
<polygon fill="white" stroke="#666666" points="126.25,-489 24,-489 24,-469 126.25,-469 126.25,-489"/>
<text text-anchor="middle" x="75.12" y="-475.5" font-family="Helvetica,sans-Serif" font-size="10.00">Cpl::Container::Item</text>
</a>
</g>
</g>
<!-- Node5&#45;&gt;Node4 -->
<g id="edge4_Node000004_Node000005" class="edge">
<title>Node5&#45;&gt;Node4</title>
<g id="a_edge4_Node000004_Node000005"><a xlink:title=" ">
<path fill="none" stroke="#63b8ff" d="M75.12,-457.69C75.12,-448.97 75.12,-439.22 75.12,-432.28"/>
<polygon fill="#63b8ff" stroke="#63b8ff" points="71.63,-457.4 75.13,-467.4 78.63,-457.4 71.63,-457.4"/>
</a>
</g>
</g>
<!-- Node6&#45;&gt;Node2 -->
<g id="edge5_Node000002_Node000006" class="edge">
<title>Node6&#45;&gt;Node2</title>
<g id="a_edge5_Node000002_Node000006"><a xlink:title=" ">
<path fill="none" stroke="orange" stroke-dasharray="5,2" d="M134.52,-277.69C121.64,-264.97 106.05,-249.59 94.7,-238.38"/>
<polygon fill="orange" stroke="orange" points="131.87,-279.99 141.44,-284.53 136.78,-275.01 131.87,-279.99"/>
</a>
</g>
<text text-anchor="middle" x="182.75" y="-258.5" font-family="Helvetica,sans-Serif" font-size="10.00" fill="grey"> &lt; WORDSIZE, MPTYPE &gt;</text>
</g>
<!-- Node8 -->
<g id="Node000008" class="node">
<title>Node8</title>
<g id="a_Node000008"><a xlink:href="class_cpl_1_1_dm_1_1_mp_1_1_bit_array16.html" target="_top" xlink:title="This template class provides a concrete implementation for a Point who&#39;s data is a a bit array of N b...">
<polygon fill="white" stroke="#666666" points="140.38,-20 17.88,-20 17.88,0 140.38,0 140.38,-20"/>
<text text-anchor="middle" x="79.12" y="-6.5" font-family="Helvetica,sans-Serif" font-size="10.00">Cpl::Dm::Mp::BitArray16</text>
</a>
</g>
</g>
<!-- Node7&#45;&gt;Node8 -->
<g id="edge8_Node000007_Node000008" class="edge">
<title>Node7&#45;&gt;Node8</title>
<g id="a_edge8_Node000007_Node000008"><a xlink:title=" ">
<path fill="none" stroke="#63b8ff" d="M79.12,-45.36C79.12,-36.41 79.12,-27.01 79.12,-20.31"/>
<polygon fill="#63b8ff" stroke="#63b8ff" points="75.63,-45.09 79.13,-55.09 82.63,-45.09 75.63,-45.09"/>
</a>
</g>
</g>
</g>
</svg>
