<?xml version="1.0" encoding="UTF-8" standalone="no"?>
<!DOCTYPE svg PUBLIC "-//W3C//DTD SVG 1.1//EN"
 "http://www.w3.org/Graphics/SVG/1.1/DTD/svg11.dtd">
<!-- Generated by graphviz version 10.0.1 (20240210.2158)
 -->
<!-- Title: Cpl::Io::Ram::InputOutput Pages: 1 -->
<svg width="934pt" height="175pt"
 viewBox="0.00 0.00 934.00 175.35" xmlns="http://www.w3.org/2000/svg" xmlns:xlink="http://www.w3.org/1999/xlink">
<g id="graph0" class="graph" transform="scale(1 1) rotate(0) translate(4 171.35)">
<title>Cpl::Io::Ram::InputOutput</title>
<!-- Node1 -->
<g id="Node000001" class="node">
<title>Node1</title>
<g id="a_Node000001"><a xlink:title="This concrete class implements an InputOutput stream using a Ring Buffer.">
<polygon fill="#999999" stroke="#666666" points="926,-75.35 799.75,-75.35 799.75,-55.35 926,-55.35 926,-75.35"/>
<text text-anchor="middle" x="862.88" y="-61.85" font-family="Helvetica,sans-Serif" font-size="10.00">Cpl::Io::Ram::InputOutput</text>
</a>
</g>
</g>
<!-- Node2 -->
<g id="Node000002" class="node">
<title>Node2</title>
<g id="a_Node000002"><a xlink:href="class_cpl_1_1_io_1_1_input_output.html" target="_top" xlink:title="This abstract class defines a interface for operating on an input&#45;output stream (example of a stream ...">
<polygon fill="white" stroke="#666666" points="692.88,-146.35 592.88,-146.35 592.88,-126.35 692.88,-126.35 692.88,-146.35"/>
<text text-anchor="middle" x="642.88" y="-132.85" font-family="Helvetica,sans-Serif" font-size="10.00">Cpl::Io::InputOutput</text>
</a>
</g>
</g>
<!-- Node2&#45;&gt;Node1 -->
<g id="edge1_Node000001_Node000002" class="edge">
<title>Node2&#45;&gt;Node1</title>
<g id="a_edge1_Node000001_Node000002"><a xlink:title=" ">
<path fill="none" stroke="#63b8ff" d="M696.34,-122.89C722.25,-115.9 753.85,-106.84 781.75,-97.35 800.75,-90.89 821.82,-82.42 837.57,-75.82"/>
<polygon fill="#63b8ff" stroke="#63b8ff" points="695.46,-119.5 686.71,-125.47 697.27,-126.27 695.46,-119.5"/>
</a>
</g>
</g>
<!-- Node3 -->
<g id="Node000003" class="node">
<title>Node3</title>
<g id="a_Node000003"><a xlink:href="class_cpl_1_1_io_1_1_input.html" target="_top" xlink:title="This partially abstract class defines a interface for operating on an input stream (example of a stre...">
<polygon fill="white" stroke="#666666" points="389,-167.35 318.25,-167.35 318.25,-147.35 389,-147.35 389,-167.35"/>
<text text-anchor="middle" x="353.62" y="-153.85" font-family="Helvetica,sans-Serif" font-size="10.00">Cpl::Io::Input</text>
</a>
</g>
</g>
<!-- Node3&#45;&gt;Node2 -->
<g id="edge2_Node000002_Node000003" class="edge">
<title>Node3&#45;&gt;Node2</title>
<g id="a_edge2_Node000002_Node000003"><a xlink:title=" ">
<path fill="none" stroke="#63b8ff" d="M400.58,-153.99C453.05,-150.15 538.55,-143.9 592.43,-139.96"/>
<polygon fill="#63b8ff" stroke="#63b8ff" points="400.5,-150.49 390.78,-154.71 401.01,-157.47 400.5,-150.49"/>
</a>
</g>
</g>
<!-- Node4 -->
<g id="Node000004" class="node">
<title>Node4</title>
<g id="a_Node000004"><a xlink:href="class_cpl_1_1_io_1_1_close.html" target="_top" xlink:title="This abstract class defines a close operation that is intended to be used Input and Output streams/fi...">
<polygon fill="white" stroke="#666666" points="233.25,-92.35 158.75,-92.35 158.75,-72.35 233.25,-72.35 233.25,-92.35"/>
<text text-anchor="middle" x="196" y="-78.85" font-family="Helvetica,sans-Serif" font-size="10.00">Cpl::Io::Close</text>
</a>
</g>
</g>
<!-- Node4&#45;&gt;Node3 -->
<g id="edge3_Node000003_Node000004" class="edge">
<title>Node4&#45;&gt;Node3</title>
<g id="a_edge3_Node000003_Node000004"><a xlink:title=" ">
<path fill="none" stroke="#63b8ff" d="M220.98,-99.12C239.19,-111.28 265.21,-127.44 289.75,-138.35 298.61,-142.29 308.51,-145.7 317.8,-148.51"/>
<polygon fill="#63b8ff" stroke="#63b8ff" points="222.97,-96.24 212.73,-93.52 219.03,-102.03 222.97,-96.24"/>
</a>
</g>
</g>
<!-- Node7 -->
<g id="Node000007" class="node">
<title>Node7</title>
<g id="a_Node000007"><a xlink:href="class_cpl_1_1_io_1_1_output.html" target="_top" xlink:title="This partially abstract class defines a interface for operating on an output stream (example of a str...">
<polygon fill="white" stroke="#666666" points="393.12,-129.35 314.12,-129.35 314.12,-109.35 393.12,-109.35 393.12,-129.35"/>
<text text-anchor="middle" x="353.62" y="-115.85" font-family="Helvetica,sans-Serif" font-size="10.00">Cpl::Io::Output</text>
</a>
</g>
</g>
<!-- Node4&#45;&gt;Node7 -->
<g id="edge7_Node000007_Node000004" class="edge">
<title>Node4&#45;&gt;Node7</title>
<g id="a_edge7_Node000007_Node000004"><a xlink:title=" ">
<path fill="none" stroke="#63b8ff" d="M244.79,-90.62C253.78,-92.37 263.07,-94.31 271.75,-96.35 287.24,-99.99 304.2,-104.7 318.57,-108.91"/>
<polygon fill="#63b8ff" stroke="#63b8ff" points="245.6,-87.21 235.13,-88.8 244.3,-94.09 245.6,-87.21"/>
</a>
</g>
</g>
<!-- Node5 -->
<g id="Node000005" class="node">
<title>Node5</title>
<g id="a_Node000005"><a xlink:href="class_cpl_1_1_container_1_1_item.html" target="_top" xlink:title="This class is used by the Container classes to implement a various types of singly linked containers.">
<polygon fill="white" stroke="#666666" points="102.25,-66.35 0,-66.35 0,-46.35 102.25,-46.35 102.25,-66.35"/>
<text text-anchor="middle" x="51.12" y="-52.85" font-family="Helvetica,sans-Serif" font-size="10.00">Cpl::Container::Item</text>
</a>
</g>
</g>
<!-- Node5&#45;&gt;Node4 -->
<g id="edge4_Node000004_Node000005" class="edge">
<title>Node5&#45;&gt;Node4</title>
<g id="a_edge4_Node000004_Node000005"><a xlink:title=" ">
<path fill="none" stroke="#63b8ff" d="M113.52,-67.52C128.87,-70.31 144.84,-73.22 158.54,-75.72"/>
<polygon fill="#63b8ff" stroke="#63b8ff" points="114.45,-64.13 103.99,-65.79 113.2,-71.02 114.45,-64.13"/>
</a>
</g>
</g>
<!-- Node12 -->
<g id="Node000012" class="node">
<title>Node12</title>
<g id="a_Node000012"><a xlink:href="class_cpl_1_1_system_1_1_signable.html" target="_top" xlink:title="This abstract class defines the interface by which a client can cause an object that is waiting&#45;on&#45;a&#45;...">
<polygon fill="white" stroke="#666666" points="252.75,-48.35 139.25,-48.35 139.25,-28.35 252.75,-28.35 252.75,-48.35"/>
<text text-anchor="middle" x="196" y="-34.85" font-family="Helvetica,sans-Serif" font-size="10.00">Cpl::System::Signable</text>
</a>
</g>
</g>
<!-- Node5&#45;&gt;Node12 -->
<g id="edge14_Node000012_Node000005" class="edge">
<title>Node5&#45;&gt;Node12</title>
<g id="a_edge14_Node000012_Node000005"><a xlink:title=" ">
<path fill="none" stroke="#63b8ff" d="M113.69,-48.59C122.02,-47.54 130.53,-46.47 138.75,-45.44"/>
<polygon fill="#63b8ff" stroke="#63b8ff" points="113.48,-45.09 104,-49.81 114.36,-52.04 113.48,-45.09"/>
</a>
</g>
</g>
<!-- Node6 -->
<g id="Node000006" class="node">
<title>Node6</title>
<g id="a_Node000006"><a xlink:href="class_cpl_1_1_io_1_1_is_eos.html" target="_top" xlink:title="This abstract class defines a isEos() operation that is intended to be used Input and Output streams.">
<polygon fill="white" stroke="#666666" points="233.25,-154.35 158.75,-154.35 158.75,-134.35 233.25,-134.35 233.25,-154.35"/>
<text text-anchor="middle" x="196" y="-140.85" font-family="Helvetica,sans-Serif" font-size="10.00">Cpl::Io::IsEos</text>
</a>
</g>
</g>
<!-- Node6&#45;&gt;Node3 -->
<g id="edge5_Node000003_Node000006" class="edge">
<title>Node6&#45;&gt;Node3</title>
<g id="a_edge5_Node000003_Node000006"><a xlink:title=" ">
<path fill="none" stroke="#63b8ff" d="M244.7,-148.33C268.35,-150.31 296.4,-152.65 317.97,-154.45"/>
<polygon fill="#63b8ff" stroke="#63b8ff" points="245.25,-144.87 235,-147.52 244.67,-151.84 245.25,-144.87"/>
</a>
</g>
</g>
<!-- Node6&#45;&gt;Node7 -->
<g id="edge8_Node000007_Node000006" class="edge">
<title>Node6&#45;&gt;Node7</title>
<g id="a_edge8_Node000007_Node000006"><a xlink:title=" ">
<path fill="none" stroke="#63b8ff" d="M244.65,-136.69C266.77,-133.14 292.72,-128.97 313.65,-125.61"/>
<polygon fill="#63b8ff" stroke="#63b8ff" points="244.3,-133.21 234.98,-138.25 245.41,-140.12 244.3,-133.21"/>
</a>
</g>
</g>
<!-- Node7&#45;&gt;Node2 -->
<g id="edge6_Node000002_Node000007" class="edge">
<title>Node7&#45;&gt;Node2</title>
<g id="a_edge6_Node000002_Node000007"><a xlink:title=" ">
<path fill="none" stroke="#63b8ff" d="M404.8,-122.32C457.54,-125.44 540,-130.32 592.46,-133.43"/>
<polygon fill="#63b8ff" stroke="#63b8ff" points="405.07,-118.83 394.88,-121.73 404.65,-125.82 405.07,-118.83"/>
</a>
</g>
</g>
<!-- Node8 -->
<g id="Node000008" class="node">
<title>Node8</title>
<g id="a_Node000008"><a xlink:href="class_cpl_1_1_container_1_1_ring_buffer.html" target="_top" xlink:title=" ">
<polygon fill="white" stroke="#666666" points="706.75,-108.35 579,-108.35 579,-76.35 706.75,-76.35 706.75,-108.35"/>
<text text-anchor="start" x="587" y="-94.85" font-family="Helvetica,sans-Serif" font-size="10.00">Cpl::Container::RingBuffer</text>
<text text-anchor="middle" x="642.88" y="-82.85" font-family="Helvetica,sans-Serif" font-size="10.00">&lt; uint8_t &gt;</text>
</a>
</g>
</g>
<!-- Node8&#45;&gt;Node1 -->
<g id="edge9_Node000001_Node000008" class="edge">
<title>Node8&#45;&gt;Node1</title>
<g id="a_edge9_Node000001_Node000008"><a xlink:title=" ">
<path fill="none" stroke="#9a32cd" stroke-dasharray="5,2" d="M718.34,-83.13C744.76,-79.86 774.19,-76.21 799.5,-73.08"/>
<polygon fill="#9a32cd" stroke="#9a32cd" points="718.22,-79.62 708.72,-84.32 719.08,-86.56 718.22,-79.62"/>
</a>
</g>
<text text-anchor="middle" x="753.25" y="-83.85" font-family="Helvetica,sans-Serif" font-size="10.00" fill="grey"> m_ringBuffer</text>
</g>
<!-- Node9 -->
<g id="Node000009" class="node">
<title>Node9</title>
<g id="a_Node000009"><a xlink:href="class_cpl_1_1_container_1_1_ring_buffer.html" target="_top" xlink:title="This template class implements a Ring Buffer.">
<polygon fill="white" stroke="#666666" points="417.5,-91.35 289.75,-91.35 289.75,-59.35 417.5,-59.35 417.5,-91.35"/>
<text text-anchor="start" x="297.75" y="-77.85" font-family="Helvetica,sans-Serif" font-size="10.00">Cpl::Container::RingBuffer</text>
<text text-anchor="middle" x="353.62" y="-65.85" font-family="Helvetica,sans-Serif" font-size="10.00">&lt; ITEM &gt;</text>
</a>
</g>
</g>
<!-- Node9&#45;&gt;Node8 -->
<g id="edge10_Node000008_Node000009" class="edge">
<title>Node9&#45;&gt;Node8</title>
<g id="a_edge10_Node000008_Node000009"><a xlink:title=" ">
<path fill="none" stroke="orange" stroke-dasharray="5,2" d="M428.9,-79.75C475.44,-82.5 534.77,-86.01 578.98,-88.63"/>
<polygon fill="orange" stroke="orange" points="429.36,-76.27 419.17,-79.17 428.95,-83.25 429.36,-76.27"/>
</a>
</g>
<text text-anchor="middle" x="498.25" y="-88.85" font-family="Helvetica,sans-Serif" font-size="10.00" fill="grey"> &lt; uint8_t &gt;</text>
</g>
<!-- Node10 -->
<g id="Node000010" class="node">
<title>Node10</title>
<g id="a_Node000010"><a xlink:href="class_cpl_1_1_system_1_1_mutex.html" target="_top" xlink:title="This mutex class defines the interface for a mutex that has &quot;recursive&quot; semantics.">
<polygon fill="white" stroke="#666666" points="694.38,-58.35 591.38,-58.35 591.38,-38.35 694.38,-38.35 694.38,-58.35"/>
<text text-anchor="middle" x="642.88" y="-44.85" font-family="Helvetica,sans-Serif" font-size="10.00">Cpl::System::Mutex</text>
</a>
</g>
</g>
<!-- Node10&#45;&gt;Node1 -->
<g id="edge11_Node000001_Node000010" class="edge">
<title>Node10&#45;&gt;Node1</title>
<g id="a_edge11_Node000001_Node000010"><a xlink:title=" ">
<path fill="none" stroke="#9a32cd" stroke-dasharray="5,2" d="M706.05,-49.12C729.78,-49.8 757.05,-51.06 781.75,-53.35 787.49,-53.88 793.45,-54.55 799.41,-55.3"/>
<polygon fill="#9a32cd" stroke="#9a32cd" points="706.31,-45.63 696.22,-48.87 706.13,-52.62 706.31,-45.63"/>
</a>
</g>
<text text-anchor="middle" x="753.25" y="-55.85" font-family="Helvetica,sans-Serif" font-size="10.00" fill="grey"> m_lock</text>
</g>
<!-- Node11 -->
<g id="Node000011" class="node">
<title>Node11</title>
<g id="a_Node000011"><a xlink:href="class_cpl_1_1_system_1_1_semaphore.html" target="_top" xlink:title="This semaphore class defines the interface for a Counting Semaphore.">
<polygon fill="white" stroke="#666666" points="561,-21.35 435.5,-21.35 435.5,-1.35 561,-1.35 561,-21.35"/>
<text text-anchor="middle" x="498.25" y="-7.85" font-family="Helvetica,sans-Serif" font-size="10.00">Cpl::System::Semaphore</text>
</a>
</g>
</g>
<!-- Node11&#45;&gt;Node1 -->
<g id="edge12_Node000001_Node000011" class="edge">
<title>Node11&#45;&gt;Node1</title>
<g id="a_edge12_Node000001_Node000011"><a xlink:title=" ">
<path fill="none" stroke="#9a32cd" stroke-dasharray="5,2" d="M572.79,-5.61C574.88,-5.51 576.96,-5.43 579,-5.35 635.74,-3.22 650.94,5.07 706.75,-5.35 757.56,-14.83 813.16,-40.39 842.01,-54.9"/>
<polygon fill="#9a32cd" stroke="#9a32cd" points="572.79,-2.11 562.99,-6.13 573.16,-9.1 572.79,-2.11"/>
</a>
</g>
<text text-anchor="middle" x="642.88" y="-19.85" font-family="Helvetica,sans-Serif" font-size="10.00" fill="grey"> m_semaReaders</text>
<text text-anchor="middle" x="642.88" y="-7.85" font-family="Helvetica,sans-Serif" font-size="10.00" fill="grey">m_semaWriters</text>
</g>
<!-- Node12&#45;&gt;Node11 -->
<g id="edge13_Node000011_Node000012" class="edge">
<title>Node12&#45;&gt;Node11</title>
<g id="a_edge13_Node000011_Node000012"><a xlink:title=" ">
<path fill="none" stroke="#63b8ff" d="M264.4,-32.29C315.57,-27.69 385.38,-21.41 435.19,-16.93"/>
<polygon fill="#63b8ff" stroke="#63b8ff" points="264.28,-28.79 254.63,-33.17 264.9,-35.76 264.28,-28.79"/>
</a>
</g>
</g>
</g>
</svg>
