<?xml version="1.0" encoding="UTF-8" standalone="no"?>
<!DOCTYPE svg PUBLIC "-//W3C//DTD SVG 1.1//EN"
 "http://www.w3.org/Graphics/SVG/1.1/DTD/svg11.dtd">
<!-- Generated by graphviz version 2.38.0 (20140413.2041)
 -->
<!-- Title: Cpl::Container::RingBuffer&lt; ITEM &gt; Pages: 1 -->
<svg width="960pt" height="112pt"
 viewBox="0.00 0.00 960.00 112.00" xmlns="http://www.w3.org/2000/svg" xmlns:xlink="http://www.w3.org/1999/xlink">
<g id="graph0" class="graph" transform="scale(1 1) rotate(0) translate(4 108)">
<title>Cpl::Container::RingBuffer&lt; ITEM &gt;</title>
<polygon fill="white" stroke="none" points="-4,4 -4,-108 956,-108 956,4 -4,4"/>
<!-- Node1 -->
<g id="node1" class="node"><title>Node1</title>
<g id="a_node1"><a xlink:title="This template class implements a Ring Buffer.">
<polygon fill="#bfbfbf" stroke="black" points="0,-51.5 0,-81.5 130,-81.5 130,-51.5 0,-51.5"/>
<text text-anchor="start" x="8" y="-69.5" font-family="Helvetica,sans-Serif" font-size="10.00">Cpl::Container::RingBuffer</text>
<text text-anchor="middle" x="65" y="-58.5" font-family="Helvetica,sans-Serif" font-size="10.00">&lt; ITEM &gt;</text>
</a>
</g>
</g>
<!-- Node2 -->
<g id="node2" class="node"><title>Node2</title>
<g id="a_node2"><a xlink:href="class_cpl_1_1_container_1_1_ring_buffer_m_t.html" target="_top" xlink:title="This template class implements a THREAD SAFE Ring Buffer.">
<polygon fill="white" stroke="black" points="258,-73.5 258,-103.5 388,-103.5 388,-73.5 258,-73.5"/>
<text text-anchor="start" x="266" y="-91.5" font-family="Helvetica,sans-Serif" font-size="10.00">Cpl::Container::RingBuffer</text>
<text text-anchor="middle" x="323" y="-80.5" font-family="Helvetica,sans-Serif" font-size="10.00">MT&lt; ITEM &gt;</text>
</a>
</g>
</g>
<!-- Node1&#45;&gt;Node2 -->
<g id="edge1" class="edge"><title>Node1&#45;&gt;Node2</title>
<path fill="none" stroke="midnightblue" d="M140.533,-72.9051C177.656,-76.0954 222.095,-79.9144 257.704,-82.9746"/>
<polygon fill="midnightblue" stroke="midnightblue" points="140.532,-69.3923 130.269,-72.0231 139.933,-76.3666 140.532,-69.3923"/>
</g>
<!-- Node4 -->
<g id="node4" class="node"><title>Node4</title>
<g id="a_node4"><a xlink:href="class_cpl_1_1_container_1_1_ring_buffer.html" target="_top" xlink:title=" ">
<polygon fill="white" stroke="black" points="258,-24.5 258,-54.5 388,-54.5 388,-24.5 258,-24.5"/>
<text text-anchor="start" x="266" y="-42.5" font-family="Helvetica,sans-Serif" font-size="10.00">Cpl::Container::RingBuffer</text>
<text text-anchor="middle" x="323" y="-31.5" font-family="Helvetica,sans-Serif" font-size="10.00">&lt; FSM_EVENT_T &gt;</text>
</a>
</g>
</g>
<!-- Node1&#45;&gt;Node4 -->
<g id="edge3" class="edge"><title>Node1&#45;&gt;Node4</title>
<path fill="none" stroke="orange" stroke-dasharray="5,2" d="M140.533,-58.6391C177.656,-54.7238 222.095,-50.0369 257.704,-46.2812"/>
<polygon fill="orange" stroke="orange" points="139.847,-55.192 130.269,-59.7216 140.581,-62.1533 139.847,-55.192"/>
<text text-anchor="middle" x="194" y="-60.5" font-family="Helvetica,sans-Serif" font-size="10.00"> &lt; FSM_EVENT_T &gt;</text>
</g>
<!-- Node3 -->
<g id="node3" class="node"><title>Node3</title>
<g id="a_node3"><a xlink:href="class_cpl_1_1_container_1_1_ring_buffer_m_p.html" target="_top" xlink:title="This template class implements a THREAD SAFE Ring Buffer AND it maintains/reports the number of eleme...">
<polygon fill="white" stroke="black" points="435.5,-73.5 435.5,-103.5 565.5,-103.5 565.5,-73.5 435.5,-73.5"/>
<text text-anchor="start" x="443.5" y="-91.5" font-family="Helvetica,sans-Serif" font-size="10.00">Cpl::Container::RingBuffer</text>
<text text-anchor="middle" x="500.5" y="-80.5" font-family="Helvetica,sans-Serif" font-size="10.00">MP&lt; ITEM &gt;</text>
</a>
</g>
</g>
<!-- Node2&#45;&gt;Node3 -->
<g id="edge2" class="edge"><title>Node2&#45;&gt;Node3</title>
<path fill="none" stroke="midnightblue" d="M398.559,-88.5C410.833,-88.5 423.459,-88.5 435.448,-88.5"/>
<polygon fill="midnightblue" stroke="midnightblue" points="398.353,-85.0001 388.353,-88.5 398.353,-92.0001 398.353,-85.0001"/>
</g>
<!-- Node5 -->
<g id="node5" class="node"><title>Node5</title>
<g id="a_node5"><a xlink:href="class_storm_1_1_component_1_1_equipment_1_1_stage_1_1_fsm_event_queue__.html" target="_top" xlink:title="Event Queue for FSM events.">
<polygon fill="white" stroke="black" points="425,-24.5 425,-54.5 576,-54.5 576,-24.5 425,-24.5"/>
<text text-anchor="start" x="433" y="-42.5" font-family="Helvetica,sans-Serif" font-size="10.00">Storm::Component::Equipment</text>
<text text-anchor="middle" x="500.5" y="-31.5" font-family="Helvetica,sans-Serif" font-size="10.00">::Stage::FsmEventQueue_</text>
</a>
</g>
</g>
<!-- Node4&#45;&gt;Node5 -->
<g id="edge4" class="edge"><title>Node4&#45;&gt;Node5</title>
<path fill="none" stroke="midnightblue" d="M398.465,-39.5C407.167,-39.5 416.047,-39.5 424.752,-39.5"/>
<polygon fill="midnightblue" stroke="midnightblue" points="398.353,-36.0001 388.353,-39.5 398.353,-43.0001 398.353,-36.0001"/>
</g>
<!-- Node6 -->
<g id="node6" class="node"><title>Node6</title>
<g id="a_node6"><a xlink:href="class_storm_1_1_component_1_1_equipment_1_1_stage_1_1_basic.html" target="_top" xlink:title="This partially concrete class implements the Storm::Component::Equipment::Stage interface for a singl...">
<polygon fill="white" stroke="black" points="613,-24.5 613,-54.5 764,-54.5 764,-24.5 613,-24.5"/>
<text text-anchor="start" x="621" y="-42.5" font-family="Helvetica,sans-Serif" font-size="10.00">Storm::Component::Equipment</text>
<text text-anchor="middle" x="688.5" y="-31.5" font-family="Helvetica,sans-Serif" font-size="10.00">::Stage::Basic</text>
</a>
</g>
</g>
<!-- Node5&#45;&gt;Node6 -->
<g id="edge5" class="edge"><title>Node5&#45;&gt;Node6</title>
<path fill="none" stroke="midnightblue" d="M586.11,-39.5C595.048,-39.5 604.09,-39.5 612.902,-39.5"/>
<polygon fill="midnightblue" stroke="midnightblue" points="586.082,-36.0001 576.082,-39.5 586.082,-43.0001 586.082,-36.0001"/>
</g>
<!-- Node7 -->
<g id="node7" class="node"><title>Node7</title>
<g id="a_node7"><a xlink:href="class_storm_1_1_component_1_1_equipment_1_1_stage_1_1_basic_cooling.html" target="_top" xlink:title="This concrete class implements the Storm::Component::Equipment::Stage interface for a single compress...">
<polygon fill="white" stroke="black" points="801,-49.5 801,-79.5 952,-79.5 952,-49.5 801,-49.5"/>
<text text-anchor="start" x="809" y="-67.5" font-family="Helvetica,sans-Serif" font-size="10.00">Storm::Component::Equipment</text>
<text text-anchor="middle" x="876.5" y="-56.5" font-family="Helvetica,sans-Serif" font-size="10.00">::Stage::BasicCooling</text>
</a>
</g>
</g>
<!-- Node6&#45;&gt;Node7 -->
<g id="edge6" class="edge"><title>Node6&#45;&gt;Node7</title>
<path fill="none" stroke="midnightblue" d="M774.11,-50.8724C783.048,-52.0736 792.09,-53.2889 800.902,-54.4733"/>
<polygon fill="midnightblue" stroke="midnightblue" points="774.459,-47.3878 764.082,-49.5244 773.526,-54.3254 774.459,-47.3878"/>
</g>
<!-- Node8 -->
<g id="node8" class="node"><title>Node8</title>
<g id="a_node8"><a xlink:href="class_storm_1_1_component_1_1_equipment_1_1_stage_1_1_basic_indoor_heat.html" target="_top" xlink:title="This concrete class implements the Storm::Component::Equipment::Stage interface for a single compress...">
<polygon fill="white" stroke="black" points="801,-0.5 801,-30.5 952,-30.5 952,-0.5 801,-0.5"/>
<text text-anchor="start" x="809" y="-18.5" font-family="Helvetica,sans-Serif" font-size="10.00">Storm::Component::Equipment</text>
<text text-anchor="middle" x="876.5" y="-7.5" font-family="Helvetica,sans-Serif" font-size="10.00">::Stage::BasicIndoorHeat</text>
</a>
</g>
</g>
<!-- Node6&#45;&gt;Node8 -->
<g id="edge7" class="edge"><title>Node6&#45;&gt;Node8</title>
<path fill="none" stroke="midnightblue" d="M774.11,-28.5825C783.048,-27.4293 792.09,-26.2626 800.902,-25.1256"/>
<polygon fill="midnightblue" stroke="midnightblue" points="773.551,-25.1255 764.082,-29.8766 774.447,-32.068 773.551,-25.1255"/>
</g>
</g>
</svg>
