<?xml version="1.0" encoding="UTF-8" standalone="no"?>
<!DOCTYPE svg PUBLIC "-//W3C//DTD SVG 1.1//EN"
 "http://www.w3.org/Graphics/SVG/1.1/DTD/svg11.dtd">
<!-- Generated by graphviz version 2.38.0 (20140413.2041)
 -->
<!-- Title: Storm::Dm::MpHvacRelayOutputs Pages: 1 -->
<svg width="173pt" height="364pt"
 viewBox="0.00 0.00 173.00 364.00" xmlns="http://www.w3.org/2000/svg" xmlns:xlink="http://www.w3.org/1999/xlink">
<g id="graph0" class="graph" transform="scale(1 1) rotate(0) translate(4 360)">
<title>Storm::Dm::MpHvacRelayOutputs</title>
<polygon fill="white" stroke="none" points="-4,4 -4,-360 169,-360 169,4 -4,4"/>
<!-- Node1 -->
<g id="node1" class="node"><title>Node1</title>
<g id="a_node1"><a xlink:title="This class provides a concrete implementation for the HVAC Relay outputs for the System.">
<polygon fill="#bfbfbf" stroke="black" points="0,-0.5 0,-19.5 165,-19.5 165,-0.5 0,-0.5"/>
<text text-anchor="middle" x="82.5" y="-7.5" font-family="Helvetica,sans-Serif" font-size="10.00">Storm::Dm::MpHvacRelayOutputs</text>
</a>
</g>
</g>
<!-- Node2 -->
<g id="node2" class="node"><title>Node2</title>
<g id="a_node2"><a xlink:href="class_cpl_1_1_dm_1_1_model_point_common__.html" target="_top" xlink:title="This concrete class provide common infrastructure for a Model Point.">
<polygon fill="white" stroke="black" points="7,-56.5 7,-75.5 158,-75.5 158,-56.5 7,-56.5"/>
<text text-anchor="middle" x="82.5" y="-63.5" font-family="Helvetica,sans-Serif" font-size="10.00">Cpl::Dm::ModelPointCommon_</text>
</a>
</g>
</g>
<!-- Node2&#45;&gt;Node1 -->
<g id="edge1" class="edge"><title>Node2&#45;&gt;Node1</title>
<path fill="none" stroke="midnightblue" d="M82.5,-45.8045C82.5,-36.9102 82.5,-26.7798 82.5,-19.7511"/>
<polygon fill="midnightblue" stroke="midnightblue" points="79.0001,-46.083 82.5,-56.083 86.0001,-46.083 79.0001,-46.083"/>
</g>
<!-- Node3 -->
<g id="node3" class="node"><title>Node3</title>
<g id="a_node3"><a xlink:href="class_cpl_1_1_dm_1_1_model_point.html" target="_top" xlink:title="This mostly abstract class defines the interface for a Model Point.">
<polygon fill="white" stroke="black" points="29,-112.5 29,-131.5 136,-131.5 136,-112.5 29,-112.5"/>
<text text-anchor="middle" x="82.5" y="-119.5" font-family="Helvetica,sans-Serif" font-size="10.00">Cpl::Dm::ModelPoint</text>
</a>
</g>
</g>
<!-- Node3&#45;&gt;Node2 -->
<g id="edge2" class="edge"><title>Node3&#45;&gt;Node2</title>
<path fill="none" stroke="midnightblue" d="M82.5,-101.805C82.5,-92.9102 82.5,-82.7798 82.5,-75.7511"/>
<polygon fill="midnightblue" stroke="midnightblue" points="79.0001,-102.083 82.5,-112.083 86.0001,-102.083 79.0001,-102.083"/>
</g>
<!-- Node4 -->
<g id="node4" class="node"><title>Node4</title>
<g id="a_node4"><a xlink:href="class_cpl_1_1_container_1_1_map_item.html" target="_top" xlink:title="This abstract class represents a item that can be contained in an Map (aka a sorted list implemented ...">
<polygon fill="white" stroke="black" points="21.5,-168.5 21.5,-187.5 143.5,-187.5 143.5,-168.5 21.5,-168.5"/>
<text text-anchor="middle" x="82.5" y="-175.5" font-family="Helvetica,sans-Serif" font-size="10.00">Cpl::Container::MapItem</text>
</a>
</g>
</g>
<!-- Node4&#45;&gt;Node3 -->
<g id="edge3" class="edge"><title>Node4&#45;&gt;Node3</title>
<path fill="none" stroke="midnightblue" d="M82.5,-157.805C82.5,-148.91 82.5,-138.78 82.5,-131.751"/>
<polygon fill="midnightblue" stroke="midnightblue" points="79.0001,-158.083 82.5,-168.083 86.0001,-158.083 79.0001,-158.083"/>
</g>
<!-- Node5 -->
<g id="node5" class="node"><title>Node5</title>
<g id="a_node5"><a xlink:href="class_cpl_1_1_container_1_1_dict_item.html" target="_top" xlink:title="This abstract class represents a item that can be contained in Dictionary.">
<polygon fill="white" stroke="black" points="22,-224.5 22,-243.5 143,-243.5 143,-224.5 22,-224.5"/>
<text text-anchor="middle" x="82.5" y="-231.5" font-family="Helvetica,sans-Serif" font-size="10.00">Cpl::Container::DictItem</text>
</a>
</g>
</g>
<!-- Node5&#45;&gt;Node4 -->
<g id="edge4" class="edge"><title>Node5&#45;&gt;Node4</title>
<path fill="none" stroke="midnightblue" d="M82.5,-213.805C82.5,-204.91 82.5,-194.78 82.5,-187.751"/>
<polygon fill="midnightblue" stroke="midnightblue" points="79.0001,-214.083 82.5,-224.083 86.0001,-214.083 79.0001,-214.083"/>
</g>
<!-- Node6 -->
<g id="node6" class="node"><title>Node6</title>
<g id="a_node6"><a xlink:href="class_cpl_1_1_container_1_1_extended_item.html" target="_top" xlink:title="This class is used by the Container classes to implement a various types of DOUBLY linked containers.">
<polygon fill="white" stroke="black" points="10,-280.5 10,-299.5 155,-299.5 155,-280.5 10,-280.5"/>
<text text-anchor="middle" x="82.5" y="-287.5" font-family="Helvetica,sans-Serif" font-size="10.00">Cpl::Container::ExtendedItem</text>
</a>
</g>
</g>
<!-- Node6&#45;&gt;Node5 -->
<g id="edge5" class="edge"><title>Node6&#45;&gt;Node5</title>
<path fill="none" stroke="midnightblue" d="M82.5,-269.805C82.5,-260.91 82.5,-250.78 82.5,-243.751"/>
<polygon fill="midnightblue" stroke="midnightblue" points="79.0001,-270.083 82.5,-280.083 86.0001,-270.083 79.0001,-270.083"/>
</g>
<!-- Node7 -->
<g id="node7" class="node"><title>Node7</title>
<g id="a_node7"><a xlink:href="class_cpl_1_1_container_1_1_item.html" target="_top" xlink:title="This class is used by the Container classes to implement a various types of singly linked containers.">
<polygon fill="white" stroke="black" points="30.5,-336.5 30.5,-355.5 134.5,-355.5 134.5,-336.5 30.5,-336.5"/>
<text text-anchor="middle" x="82.5" y="-343.5" font-family="Helvetica,sans-Serif" font-size="10.00">Cpl::Container::Item</text>
</a>
</g>
</g>
<!-- Node7&#45;&gt;Node6 -->
<g id="edge6" class="edge"><title>Node7&#45;&gt;Node6</title>
<path fill="none" stroke="midnightblue" d="M82.5,-325.805C82.5,-316.91 82.5,-306.78 82.5,-299.751"/>
<polygon fill="midnightblue" stroke="midnightblue" points="79.0001,-326.083 82.5,-336.083 86.0001,-326.083 79.0001,-326.083"/>
</g>
</g>
</svg>
