<?xml version="1.0" encoding="UTF-8" standalone="no"?>
<!DOCTYPE svg PUBLIC "-//W3C//DTD SVG 1.1//EN"
 "http://www.w3.org/Graphics/SVG/1.1/DTD/svg11.dtd">
<!-- Generated by graphviz version 10.0.1 (20240210.2158)
 -->
<!-- Title: Cpl::Io::Socket::StreamPool&lt; N &gt; Pages: 1 -->
<svg width="354pt" height="303pt"
 viewBox="0.00 0.00 353.62 303.00" xmlns="http://www.w3.org/2000/svg" xmlns:xlink="http://www.w3.org/1999/xlink">
<g id="graph0" class="graph" transform="scale(1 1) rotate(0) translate(4 299)">
<title>Cpl::Io::Socket::StreamPool&lt; N &gt;</title>
<!-- Node1 -->
<g id="Node000001" class="node">
<title>Node1</title>
<g id="a_Node000001"><a xlink:title="This concrete template class implement a socket factory that is capable of creating N concurrently op...">
<polygon fill="#999999" stroke="#666666" points="162.25,-20 0,-20 0,0 162.25,0 162.25,-20"/>
<text text-anchor="middle" x="81.12" y="-6.5" font-family="Helvetica,sans-Serif" font-size="10.00">Cpl::Io::Socket::StreamPool&lt; N &gt;</text>
</a>
</g>
</g>
<!-- Node2 -->
<g id="Node000002" class="node">
<title>Node2</title>
<g id="a_Node000002"><a xlink:href="class_cpl_1_1_io_1_1_socket_1_1_factory.html" target="_top" xlink:title="This abstract class defines an interface for a Socket factory.">
<polygon fill="white" stroke="#666666" points="128.88,-83 9.38,-83 9.38,-63 128.88,-63 128.88,-83"/>
<text text-anchor="middle" x="69.12" y="-69.5" font-family="Helvetica,sans-Serif" font-size="10.00">Cpl::Io::Socket::Factory</text>
</a>
</g>
</g>
<!-- Node2&#45;&gt;Node1 -->
<g id="edge1_Node000001_Node000002" class="edge">
<title>Node2&#45;&gt;Node1</title>
<g id="a_edge1_Node000001_Node000002"><a xlink:title=" ">
<path fill="none" stroke="#63b8ff" d="M73.15,-51.53C75.23,-40.98 77.66,-28.62 79.29,-20.35"/>
<polygon fill="#63b8ff" stroke="#63b8ff" points="69.74,-50.76 71.24,-61.25 76.6,-52.11 69.74,-50.76"/>
</a>
</g>
</g>
<!-- Node3 -->
<g id="Node000003" class="node">
<title>Node3</title>
<g id="a_Node000003"><a xlink:href="class_cpl_1_1_memory_1_1_s_pool.html" target="_top" xlink:title=" ">
<polygon fill="white" stroke="#666666" points="314.88,-89 147.38,-89 147.38,-57 314.88,-57 314.88,-89"/>
<text text-anchor="start" x="155.38" y="-75.5" font-family="Helvetica,sans-Serif" font-size="10.00">Cpl::Memory::SPool</text>
<text text-anchor="middle" x="231.12" y="-63.5" font-family="Helvetica,sans-Serif" font-size="10.00">&lt; Cpl::Io::Socket::InputOutput, N &gt;</text>
</a>
</g>
</g>
<!-- Node3&#45;&gt;Node1 -->
<g id="edge2_Node000001_Node000003" class="edge">
<title>Node3&#45;&gt;Node1</title>
<g id="a_edge2_Node000001_Node000003"><a xlink:title=" ">
<path fill="none" stroke="#63b8ff" d="M182.76,-52.33C156.53,-41.66 125.3,-28.97 104.45,-20.49"/>
<polygon fill="#63b8ff" stroke="#63b8ff" points="181.29,-55.51 191.87,-56.04 183.93,-49.03 181.29,-55.51"/>
</a>
</g>
</g>
<!-- Node4 -->
<g id="Node000004" class="node">
<title>Node4</title>
<g id="a_Node000004"><a xlink:href="class_cpl_1_1_memory_1_1_allocator.html" target="_top" xlink:title="This abstract class defines the interface for a Memory Allocator.">
<polygon fill="white" stroke="#666666" points="273,-238 157.25,-238 157.25,-218 273,-218 273,-238"/>
<text text-anchor="middle" x="215.12" y="-224.5" font-family="Helvetica,sans-Serif" font-size="10.00">Cpl::Memory::Allocator</text>
</a>
</g>
</g>
<!-- Node4&#45;&gt;Node3 -->
<g id="edge3_Node000003_Node000004" class="edge">
<title>Node4&#45;&gt;Node3</title>
<g id="a_edge3_Node000003_Node000004"><a xlink:title=" ">
<path fill="none" stroke="#63b8ff" d="M216.77,-206.84C218.09,-191.08 220.07,-168.63 222.12,-149 224.29,-128.39 227.21,-104.65 229.13,-89.5"/>
<polygon fill="#63b8ff" stroke="#63b8ff" points="213.32,-206.1 215.98,-216.36 220.29,-206.68 213.32,-206.1"/>
</a>
</g>
</g>
<!-- Node6 -->
<g id="Node000006" class="node">
<title>Node6</title>
<g id="a_Node000006"><a xlink:href="class_cpl_1_1_memory_1_1_s_pool.html" target="_top" xlink:title="This template class defines a concrete Allocator that STATICALLY allocates all of its Memory and can ...">
<polygon fill="white" stroke="#666666" points="335,-181 231.25,-181 231.25,-149 335,-149 335,-181"/>
<text text-anchor="start" x="239.25" y="-167.5" font-family="Helvetica,sans-Serif" font-size="10.00">Cpl::Memory::SPool</text>
<text text-anchor="middle" x="283.12" y="-155.5" font-family="Helvetica,sans-Serif" font-size="10.00">&lt; T, N &gt;</text>
</a>
</g>
</g>
<!-- Node4&#45;&gt;Node6 -->
<g id="edge6_Node000006_Node000004" class="edge">
<title>Node4&#45;&gt;Node6</title>
<g id="a_edge6_Node000006_Node000004"><a xlink:title=" ">
<path fill="none" stroke="#63b8ff" d="M233.93,-210.13C243.99,-201.1 256.29,-190.07 266.08,-181.29"/>
<polygon fill="#63b8ff" stroke="#63b8ff" points="231.69,-207.44 226.58,-216.72 236.36,-212.65 231.69,-207.44"/>
</a>
</g>
</g>
<!-- Node5 -->
<g id="Node000005" class="node">
<title>Node5</title>
<g id="a_Node000005"><a xlink:href="class_cpl_1_1_container_1_1_item.html" target="_top" xlink:title="This class is used by the Container classes to implement a various types of singly linked containers.">
<polygon fill="white" stroke="#666666" points="266.25,-295 164,-295 164,-275 266.25,-275 266.25,-295"/>
<text text-anchor="middle" x="215.12" y="-281.5" font-family="Helvetica,sans-Serif" font-size="10.00">Cpl::Container::Item</text>
</a>
</g>
</g>
<!-- Node5&#45;&gt;Node4 -->
<g id="edge4_Node000004_Node000005" class="edge">
<title>Node5&#45;&gt;Node4</title>
<g id="a_edge4_Node000004_Node000005"><a xlink:title=" ">
<path fill="none" stroke="#63b8ff" d="M215.12,-263.69C215.12,-254.97 215.12,-245.22 215.12,-238.28"/>
<polygon fill="#63b8ff" stroke="#63b8ff" points="211.63,-263.4 215.13,-273.4 218.63,-263.4 211.63,-263.4"/>
</a>
</g>
</g>
<!-- Node6&#45;&gt;Node3 -->
<g id="edge5_Node000003_Node000006" class="edge">
<title>Node6&#45;&gt;Node3</title>
<g id="a_edge5_Node000003_Node000006"><a xlink:title=" ">
<path fill="none" stroke="orange" stroke-dasharray="5,2" d="M268.67,-138.98C259.47,-123.06 247.85,-102.94 239.99,-89.34"/>
<polygon fill="orange" stroke="orange" points="265.51,-140.51 273.55,-147.42 271.57,-137.01 265.51,-140.51"/>
</a>
</g>
<text text-anchor="start" x="263.12" y="-121.5" font-family="Helvetica,sans-Serif" font-size="10.00" fill="grey"> &lt; Cpl::Io::Socket::</text>
<text text-anchor="middle" x="304.38" y="-109.5" font-family="Helvetica,sans-Serif" font-size="10.00" fill="grey">InputOutput, N &gt;</text>
</g>
</g>
</svg>
