<?xml version="1.0" encoding="UTF-8" standalone="no"?>
<!DOCTYPE svg PUBLIC "-//W3C//DTD SVG 1.1//EN"
 "http://www.w3.org/Graphics/SVG/1.1/DTD/svg11.dtd">
<!-- Generated by graphviz version 10.0.1 (20240210.2158)
 -->
<!-- Title: Cpl::Io::Tcp::AsyncListener::Client Pages: 1 -->
<svg width="192pt" height="320pt"
 viewBox="0.00 0.00 191.62 320.00" xmlns="http://www.w3.org/2000/svg" xmlns:xlink="http://www.w3.org/1999/xlink">
<g id="graph0" class="graph" transform="scale(1 1) rotate(0) translate(4 316)">
<title>Cpl::Io::Tcp::AsyncListener::Client</title>
<!-- Node1 -->
<g id="Node000001" class="node">
<title>Node1</title>
<g id="a_Node000001"><a xlink:title="This class defines the callback mechanism used for accepting incoming TCP connections.">
<polygon fill="#999999" stroke="#666666" points="164,-32 30.25,-32 30.25,0 164,0 164,-32"/>
<text text-anchor="start" x="38.25" y="-18.5" font-family="Helvetica,sans-Serif" font-size="10.00">Cpl::Io::Tcp::AsyncListener</text>
<text text-anchor="middle" x="97.12" y="-6.5" font-family="Helvetica,sans-Serif" font-size="10.00">::Client</text>
</a>
</g>
</g>
<!-- Node2 -->
<g id="Node000002" class="node">
<title>Node2</title>
<g id="a_Node000002"><a xlink:href="class_cpl_1_1_io_1_1_tcp_1_1_input_output.html" target="_top" xlink:title="This concrete class defines a platform independent implementation of an InputOutput stream used by th...">
<polygon fill="white" stroke="#666666" points="158,-88 36.25,-88 36.25,-68 158,-68 158,-88"/>
<text text-anchor="middle" x="97.12" y="-74.5" font-family="Helvetica,sans-Serif" font-size="10.00">Cpl::Io::Tcp::InputOutput</text>
</a>
</g>
</g>
<!-- Node2&#45;&gt;Node1 -->
<g id="edge1_Node000001_Node000002" class="edge">
<title>Node2&#45;&gt;Node1</title>
<g id="a_edge1_Node000001_Node000002"><a xlink:title=" ">
<path fill="none" stroke="#63b8ff" d="M97.12,-56.31C97.12,-48.37 97.12,-39.46 97.12,-32.14"/>
<polygon fill="#63b8ff" stroke="#63b8ff" points="93.63,-56.11 97.13,-66.11 100.63,-56.11 93.63,-56.11"/>
</a>
</g>
</g>
<!-- Node3 -->
<g id="Node000003" class="node">
<title>Node3</title>
<g id="a_Node000003"><a xlink:href="class_cpl_1_1_io_1_1_input_output.html" target="_top" xlink:title="This abstract class defines a interface for operating on an input&#45;output stream (example of a stream ...">
<polygon fill="white" stroke="#666666" points="147.12,-144 47.12,-144 47.12,-124 147.12,-124 147.12,-144"/>
<text text-anchor="middle" x="97.12" y="-130.5" font-family="Helvetica,sans-Serif" font-size="10.00">Cpl::Io::InputOutput</text>
</a>
</g>
</g>
<!-- Node3&#45;&gt;Node2 -->
<g id="edge2_Node000002_Node000003" class="edge">
<title>Node3&#45;&gt;Node2</title>
<g id="a_edge2_Node000002_Node000003"><a xlink:title=" ">
<path fill="none" stroke="#63b8ff" d="M97.12,-112.13C97.12,-103.9 97.12,-94.85 97.12,-88.3"/>
<polygon fill="#63b8ff" stroke="#63b8ff" points="93.63,-112.08 97.13,-122.08 100.63,-112.08 93.63,-112.08"/>
</a>
</g>
</g>
<!-- Node4 -->
<g id="Node000004" class="node">
<title>Node4</title>
<g id="a_Node000004"><a xlink:href="class_cpl_1_1_io_1_1_input.html" target="_top" xlink:title="This partially abstract class defines a interface for operating on an input stream (example of a stre...">
<polygon fill="white" stroke="#666666" points="86.5,-200 15.75,-200 15.75,-180 86.5,-180 86.5,-200"/>
<text text-anchor="middle" x="51.12" y="-186.5" font-family="Helvetica,sans-Serif" font-size="10.00">Cpl::Io::Input</text>
</a>
</g>
</g>
<!-- Node4&#45;&gt;Node3 -->
<g id="edge3_Node000003_Node000004" class="edge">
<title>Node4&#45;&gt;Node3</title>
<g id="a_edge3_Node000003_Node000004"><a xlink:title=" ">
<path fill="none" stroke="#63b8ff" d="M66.46,-171C74.08,-162.06 82.96,-151.62 89.2,-144.3"/>
<polygon fill="#63b8ff" stroke="#63b8ff" points="63.94,-168.56 60.12,-178.44 69.27,-173.1 63.94,-168.56"/>
</a>
</g>
</g>
<!-- Node5 -->
<g id="Node000005" class="node">
<title>Node5</title>
<g id="a_Node000005"><a xlink:href="class_cpl_1_1_io_1_1_close.html" target="_top" xlink:title="This abstract class defines a close operation that is intended to be used Input and Output streams/fi...">
<polygon fill="white" stroke="#666666" points="88.38,-256 13.88,-256 13.88,-236 88.38,-236 88.38,-256"/>
<text text-anchor="middle" x="51.12" y="-242.5" font-family="Helvetica,sans-Serif" font-size="10.00">Cpl::Io::Close</text>
</a>
</g>
</g>
<!-- Node5&#45;&gt;Node4 -->
<g id="edge4_Node000004_Node000005" class="edge">
<title>Node5&#45;&gt;Node4</title>
<g id="a_edge4_Node000004_Node000005"><a xlink:title=" ">
<path fill="none" stroke="#63b8ff" d="M51.12,-224.13C51.12,-215.9 51.12,-206.85 51.12,-200.3"/>
<polygon fill="#63b8ff" stroke="#63b8ff" points="47.63,-224.08 51.13,-234.08 54.63,-224.08 47.63,-224.08"/>
</a>
</g>
</g>
<!-- Node8 -->
<g id="Node000008" class="node">
<title>Node8</title>
<g id="a_Node000008"><a xlink:href="class_cpl_1_1_io_1_1_output.html" target="_top" xlink:title="This partially abstract class defines a interface for operating on an output stream (example of a str...">
<polygon fill="white" stroke="#666666" points="183.62,-200 104.62,-200 104.62,-180 183.62,-180 183.62,-200"/>
<text text-anchor="middle" x="144.12" y="-186.5" font-family="Helvetica,sans-Serif" font-size="10.00">Cpl::Io::Output</text>
</a>
</g>
</g>
<!-- Node5&#45;&gt;Node8 -->
<g id="edge8_Node000008_Node000005" class="edge">
<title>Node5&#45;&gt;Node8</title>
<g id="a_edge8_Node000008_Node000005"><a xlink:title=" ">
<path fill="none" stroke="#63b8ff" d="M76.82,-230.08C93.12,-220.62 113.71,-208.66 127.8,-200.48"/>
<polygon fill="#63b8ff" stroke="#63b8ff" points="75.52,-226.79 68.63,-234.83 79.04,-232.84 75.52,-226.79"/>
</a>
</g>
</g>
<!-- Node6 -->
<g id="Node000006" class="node">
<title>Node6</title>
<g id="a_Node000006"><a xlink:href="class_cpl_1_1_container_1_1_item.html" target="_top" xlink:title="This class is used by the Container classes to implement a various types of singly linked containers.">
<polygon fill="white" stroke="#666666" points="102.25,-312 0,-312 0,-292 102.25,-292 102.25,-312"/>
<text text-anchor="middle" x="51.12" y="-298.5" font-family="Helvetica,sans-Serif" font-size="10.00">Cpl::Container::Item</text>
</a>
</g>
</g>
<!-- Node6&#45;&gt;Node5 -->
<g id="edge5_Node000005_Node000006" class="edge">
<title>Node6&#45;&gt;Node5</title>
<g id="a_edge5_Node000005_Node000006"><a xlink:title=" ">
<path fill="none" stroke="#63b8ff" d="M51.12,-280.13C51.12,-271.9 51.12,-262.85 51.12,-256.3"/>
<polygon fill="#63b8ff" stroke="#63b8ff" points="47.63,-280.08 51.13,-290.08 54.63,-280.08 47.63,-280.08"/>
</a>
</g>
</g>
<!-- Node7 -->
<g id="Node000007" class="node">
<title>Node7</title>
<g id="a_Node000007"><a xlink:href="class_cpl_1_1_io_1_1_is_eos.html" target="_top" xlink:title="This abstract class defines a isEos() operation that is intended to be used Input and Output streams.">
<polygon fill="white" stroke="#666666" points="181.38,-256 106.88,-256 106.88,-236 181.38,-236 181.38,-256"/>
<text text-anchor="middle" x="144.12" y="-242.5" font-family="Helvetica,sans-Serif" font-size="10.00">Cpl::Io::IsEos</text>
</a>
</g>
</g>
<!-- Node7&#45;&gt;Node4 -->
<g id="edge6_Node000004_Node000007" class="edge">
<title>Node7&#45;&gt;Node4</title>
<g id="a_edge6_Node000004_Node000007"><a xlink:title=" ">
<path fill="none" stroke="#63b8ff" d="M118.43,-230.08C102.13,-220.62 81.54,-208.66 67.45,-200.48"/>
<polygon fill="#63b8ff" stroke="#63b8ff" points="116.21,-232.84 126.62,-234.83 119.73,-226.79 116.21,-232.84"/>
</a>
</g>
</g>
<!-- Node7&#45;&gt;Node8 -->
<g id="edge9_Node000008_Node000007" class="edge">
<title>Node7&#45;&gt;Node8</title>
<g id="a_edge9_Node000008_Node000007"><a xlink:title=" ">
<path fill="none" stroke="#63b8ff" d="M144.12,-224.13C144.12,-215.9 144.12,-206.85 144.12,-200.3"/>
<polygon fill="#63b8ff" stroke="#63b8ff" points="140.63,-224.08 144.13,-234.08 147.63,-224.08 140.63,-224.08"/>
</a>
</g>
</g>
<!-- Node8&#45;&gt;Node3 -->
<g id="edge7_Node000003_Node000008" class="edge">
<title>Node8&#45;&gt;Node3</title>
<g id="a_edge7_Node000003_Node000008"><a xlink:title=" ">
<path fill="none" stroke="#63b8ff" d="M128.46,-171C120.68,-162.06 111.59,-151.62 105.22,-144.3"/>
<polygon fill="#63b8ff" stroke="#63b8ff" points="125.74,-173.21 134.94,-178.45 131.02,-168.61 125.74,-173.21"/>
</a>
</g>
</g>
</g>
</svg>
