<?xml version="1.0" encoding="UTF-8" standalone="no"?>
<!DOCTYPE svg PUBLIC "-//W3C//DTD SVG 1.1//EN"
 "http://www.w3.org/Graphics/SVG/1.1/DTD/svg11.dtd">
<!-- Generated by graphviz version 2.38.0 (20140413.2041)
 -->
<!-- Title: Cpl::Dm::Mp::BasicArray&lt; ELEMTYPE &gt; Pages: 1 -->
<svg width="284pt" height="594pt"
 viewBox="0.00 0.00 283.50 594.00" xmlns="http://www.w3.org/2000/svg" xmlns:xlink="http://www.w3.org/1999/xlink">
<g id="graph0" class="graph" transform="scale(1 1) rotate(0) translate(4 590)">
<title>Cpl::Dm::Mp::BasicArray&lt; ELEMTYPE &gt;</title>
<polygon fill="white" stroke="none" points="-4,4 -4,-590 279.5,-590 279.5,4 -4,4"/>
<!-- Node1 -->
<g id="node1" class="node"><title>Node1</title>
<g id="a_node1"><a xlink:title="This template class provides a mostly concrete implementation for a Model Point who&#39;s data is a array...">
<polygon fill="#bfbfbf" stroke="black" points="47.5,-213.5 47.5,-243.5 172.5,-243.5 172.5,-213.5 47.5,-213.5"/>
<text text-anchor="start" x="55.5" y="-231.5" font-family="Helvetica,sans-Serif" font-size="10.00">Cpl::Dm::Mp::BasicArray</text>
<text text-anchor="middle" x="110" y="-220.5" font-family="Helvetica,sans-Serif" font-size="10.00">&lt; ELEMTYPE &gt;</text>
</a>
</g>
</g>
<!-- Node8 -->
<g id="node8" class="node"><title>Node8</title>
<g id="a_node8"><a xlink:href="class_cpl_1_1_dm_1_1_mp_1_1_basic_integer_array.html" target="_top" xlink:title="This template class extends the implementation of BasicArray&lt;ELEMTYPE&gt; to support the toJSON() and fr...">
<polygon fill="white" stroke="black" points="0,-135.5 0,-165.5 132,-165.5 132,-135.5 0,-135.5"/>
<text text-anchor="start" x="8" y="-153.5" font-family="Helvetica,sans-Serif" font-size="10.00">Cpl::Dm::Mp::BasicInteger</text>
<text text-anchor="middle" x="66" y="-142.5" font-family="Helvetica,sans-Serif" font-size="10.00">Array&lt; ELEMTYPE &gt;</text>
</a>
</g>
</g>
<!-- Node1&#45;&gt;Node8 -->
<g id="edge7" class="edge"><title>Node1&#45;&gt;Node8</title>
<path fill="none" stroke="midnightblue" d="M96.5133,-204.205C89.2395,-191.641 80.4978,-176.542 74.239,-165.731"/>
<polygon fill="midnightblue" stroke="midnightblue" points="93.6845,-206.304 101.724,-213.205 99.7425,-202.797 93.6845,-206.304"/>
</g>
<!-- Node11 -->
<g id="node11" class="node"><title>Node11</title>
<g id="a_node11"><a xlink:href="class_cpl_1_1_dm_1_1_mp_1_1_basic_array.html" target="_top" xlink:title=" ">
<polygon fill="white" stroke="black" points="150.5,-135.5 150.5,-165.5 275.5,-165.5 275.5,-135.5 150.5,-135.5"/>
<text text-anchor="start" x="158.5" y="-153.5" font-family="Helvetica,sans-Serif" font-size="10.00">Cpl::Dm::Mp::BasicArray</text>
<text text-anchor="middle" x="213" y="-142.5" font-family="Helvetica,sans-Serif" font-size="10.00">&lt; uint8_t &gt;</text>
</a>
</g>
</g>
<!-- Node1&#45;&gt;Node11 -->
<g id="edge10" class="edge"><title>Node1&#45;&gt;Node11</title>
<path fill="none" stroke="orange" stroke-dasharray="5,2" d="M137.633,-207.111C155.353,-194.036 177.913,-177.39 193.713,-165.731"/>
<polygon fill="orange" stroke="orange" points="135.342,-204.451 129.374,-213.205 139.498,-210.084 135.342,-204.451"/>
<text text-anchor="middle" x="193.5" y="-187" font-family="Helvetica,sans-Serif" font-size="10.00"> &lt; uint8_t &gt;</text>
</g>
<!-- Node2 -->
<g id="node2" class="node"><title>Node2</title>
<g id="a_node2"><a xlink:href="class_cpl_1_1_dm_1_1_model_point_common__.html" target="_top" xlink:title="This concrete class provide common infrastructure for a Model Point.">
<polygon fill="white" stroke="black" points="34.5,-281.5 34.5,-300.5 185.5,-300.5 185.5,-281.5 34.5,-281.5"/>
<text text-anchor="middle" x="110" y="-288.5" font-family="Helvetica,sans-Serif" font-size="10.00">Cpl::Dm::ModelPointCommon_</text>
</a>
</g>
</g>
<!-- Node2&#45;&gt;Node1 -->
<g id="edge1" class="edge"><title>Node2&#45;&gt;Node1</title>
<path fill="none" stroke="midnightblue" d="M110,-271.215C110,-262.356 110,-251.958 110,-243.759"/>
<polygon fill="midnightblue" stroke="midnightblue" points="106.5,-271.332 110,-281.332 113.5,-271.332 106.5,-271.332"/>
</g>
<!-- Node3 -->
<g id="node3" class="node"><title>Node3</title>
<g id="a_node3"><a xlink:href="class_cpl_1_1_dm_1_1_model_point.html" target="_top" xlink:title="This mostly abstract class defines the interface for a Model Point.">
<polygon fill="white" stroke="black" points="56.5,-338.5 56.5,-357.5 163.5,-357.5 163.5,-338.5 56.5,-338.5"/>
<text text-anchor="middle" x="110" y="-345.5" font-family="Helvetica,sans-Serif" font-size="10.00">Cpl::Dm::ModelPoint</text>
</a>
</g>
</g>
<!-- Node3&#45;&gt;Node2 -->
<g id="edge2" class="edge"><title>Node3&#45;&gt;Node2</title>
<path fill="none" stroke="midnightblue" d="M110,-328.117C110,-318.817 110,-308.056 110,-300.715"/>
<polygon fill="midnightblue" stroke="midnightblue" points="106.5,-328.406 110,-338.406 113.5,-328.406 106.5,-328.406"/>
</g>
<!-- Node4 -->
<g id="node4" class="node"><title>Node4</title>
<g id="a_node4"><a xlink:href="class_cpl_1_1_container_1_1_map_item.html" target="_top" xlink:title="This abstract class represents a item that can be contained in an Map (aka a sorted list implemented ...">
<polygon fill="white" stroke="black" points="49,-395.5 49,-414.5 171,-414.5 171,-395.5 49,-395.5"/>
<text text-anchor="middle" x="110" y="-402.5" font-family="Helvetica,sans-Serif" font-size="10.00">Cpl::Container::MapItem</text>
</a>
</g>
</g>
<!-- Node4&#45;&gt;Node3 -->
<g id="edge3" class="edge"><title>Node4&#45;&gt;Node3</title>
<path fill="none" stroke="midnightblue" d="M110,-385.117C110,-375.817 110,-365.056 110,-357.715"/>
<polygon fill="midnightblue" stroke="midnightblue" points="106.5,-385.406 110,-395.406 113.5,-385.406 106.5,-385.406"/>
</g>
<!-- Node5 -->
<g id="node5" class="node"><title>Node5</title>
<g id="a_node5"><a xlink:href="class_cpl_1_1_container_1_1_dict_item.html" target="_top" xlink:title="This abstract class represents a item that can be contained in Dictionary.">
<polygon fill="white" stroke="black" points="49.5,-452.5 49.5,-471.5 170.5,-471.5 170.5,-452.5 49.5,-452.5"/>
<text text-anchor="middle" x="110" y="-459.5" font-family="Helvetica,sans-Serif" font-size="10.00">Cpl::Container::DictItem</text>
</a>
</g>
</g>
<!-- Node5&#45;&gt;Node4 -->
<g id="edge4" class="edge"><title>Node5&#45;&gt;Node4</title>
<path fill="none" stroke="midnightblue" d="M110,-442.117C110,-432.817 110,-422.056 110,-414.715"/>
<polygon fill="midnightblue" stroke="midnightblue" points="106.5,-442.406 110,-452.406 113.5,-442.406 106.5,-442.406"/>
</g>
<!-- Node6 -->
<g id="node6" class="node"><title>Node6</title>
<g id="a_node6"><a xlink:href="class_cpl_1_1_container_1_1_extended_item.html" target="_top" xlink:title="This class is used by the Container classes to implement a various types of DOUBLY linked containers.">
<polygon fill="white" stroke="black" points="37.5,-509.5 37.5,-528.5 182.5,-528.5 182.5,-509.5 37.5,-509.5"/>
<text text-anchor="middle" x="110" y="-516.5" font-family="Helvetica,sans-Serif" font-size="10.00">Cpl::Container::ExtendedItem</text>
</a>
</g>
</g>
<!-- Node6&#45;&gt;Node5 -->
<g id="edge5" class="edge"><title>Node6&#45;&gt;Node5</title>
<path fill="none" stroke="midnightblue" d="M110,-499.117C110,-489.817 110,-479.056 110,-471.715"/>
<polygon fill="midnightblue" stroke="midnightblue" points="106.5,-499.406 110,-509.406 113.5,-499.406 106.5,-499.406"/>
</g>
<!-- Node7 -->
<g id="node7" class="node"><title>Node7</title>
<g id="a_node7"><a xlink:href="class_cpl_1_1_container_1_1_item.html" target="_top" xlink:title="This class is used by the Container classes to implement a various types of singly linked containers.">
<polygon fill="white" stroke="black" points="58,-566.5 58,-585.5 162,-585.5 162,-566.5 58,-566.5"/>
<text text-anchor="middle" x="110" y="-573.5" font-family="Helvetica,sans-Serif" font-size="10.00">Cpl::Container::Item</text>
</a>
</g>
</g>
<!-- Node7&#45;&gt;Node6 -->
<g id="edge6" class="edge"><title>Node7&#45;&gt;Node6</title>
<path fill="none" stroke="midnightblue" d="M110,-556.117C110,-546.817 110,-536.056 110,-528.715"/>
<polygon fill="midnightblue" stroke="midnightblue" points="106.5,-556.406 110,-566.406 113.5,-556.406 106.5,-556.406"/>
</g>
<!-- Node9 -->
<g id="node9" class="node"><title>Node9</title>
<g id="a_node9"><a xlink:href="class_cpl_1_1_dm_1_1_mp_1_1_basic_integer_array.html" target="_top" xlink:title=" ">
<polygon fill="white" stroke="black" points="83,-57.5 83,-87.5 215,-87.5 215,-57.5 83,-57.5"/>
<text text-anchor="start" x="91" y="-75.5" font-family="Helvetica,sans-Serif" font-size="10.00">Cpl::Dm::Mp::BasicInteger</text>
<text text-anchor="middle" x="149" y="-64.5" font-family="Helvetica,sans-Serif" font-size="10.00">Array&lt; uint8_t &gt;</text>
</a>
</g>
</g>
<!-- Node8&#45;&gt;Node9 -->
<g id="edge8" class="edge"><title>Node8&#45;&gt;Node9</title>
<path fill="none" stroke="orange" stroke-dasharray="5,2" d="M89.0498,-128.394C103.206,-115.432 120.957,-99.1775 133.458,-87.7309"/>
<polygon fill="orange" stroke="orange" points="86.6233,-125.87 81.6117,-135.205 91.3506,-131.033 86.6233,-125.87"/>
<text text-anchor="middle" x="138.5" y="-109" font-family="Helvetica,sans-Serif" font-size="10.00"> &lt; uint8_t &gt;</text>
</g>
<!-- Node10 -->
<g id="node10" class="node"><title>Node10</title>
<g id="a_node10"><a xlink:href="class_cpl_1_1_dm_1_1_mp_1_1_array_uint8.html" target="_top" xlink:title="This class provides a concrete implementation for a Point who&#39;s data is a Array of uint8_t.">
<polygon fill="white" stroke="black" points="87.5,-0.5 87.5,-19.5 210.5,-19.5 210.5,-0.5 87.5,-0.5"/>
<text text-anchor="middle" x="149" y="-7.5" font-family="Helvetica,sans-Serif" font-size="10.00">Cpl::Dm::Mp::ArrayUint8</text>
</a>
</g>
</g>
<!-- Node9&#45;&gt;Node10 -->
<g id="edge9" class="edge"><title>Node9&#45;&gt;Node10</title>
<path fill="none" stroke="midnightblue" d="M149,-47.3524C149,-37.5132 149,-26.7753 149,-19.5399"/>
<polygon fill="midnightblue" stroke="midnightblue" points="145.5,-47.468 149,-57.468 152.5,-47.4681 145.5,-47.468"/>
</g>
<!-- Node11&#45;&gt;Node9 -->
<g id="edge11" class="edge"><title>Node11&#45;&gt;Node9</title>
<path fill="none" stroke="midnightblue" d="M194.311,-127.307C183.554,-114.533 170.355,-98.8596 160.984,-87.7309"/>
<polygon fill="midnightblue" stroke="midnightblue" points="191.844,-129.81 200.962,-135.205 197.198,-125.301 191.844,-129.81"/>
</g>
</g>
</svg>
