<?xml version="1.0" encoding="UTF-8" standalone="no"?>
<!DOCTYPE svg PUBLIC "-//W3C//DTD SVG 1.1//EN"
 "http://www.w3.org/Graphics/SVG/1.1/DTD/svg11.dtd">
<!-- Generated by graphviz version 2.38.0 (20140413.2041)
 -->
<!-- Title: Cpl::TShell::Maker Pages: 1 -->
<svg width="1062pt" height="197pt"
 viewBox="0.00 0.00 1062.00 197.00" xmlns="http://www.w3.org/2000/svg" xmlns:xlink="http://www.w3.org/1999/xlink">
<g id="graph0" class="graph" transform="scale(1 1) rotate(0) translate(4 193)">
<title>Cpl::TShell::Maker</title>
<polygon fill="white" stroke="none" points="-4,4 -4,-193 1058,-193 1058,4 -4,4"/>
<!-- Node1 -->
<g id="node1" class="node"><title>Node1</title>
<g id="a_node1"><a xlink:title="This concrete class is a &quot;Maker&quot; that assembles the objects needed for a &#39;basic&#39; TShell Processor eng...">
<polygon fill="#bfbfbf" stroke="black" points="956,-110.5 956,-129.5 1054,-129.5 1054,-110.5 956,-110.5"/>
<text text-anchor="middle" x="1005" y="-117.5" font-family="Helvetica,sans-Serif" font-size="10.00">Cpl::TShell::Maker</text>
</a>
</g>
</g>
<!-- Node2 -->
<g id="node2" class="node"><title>Node2</title>
<g id="a_node2"><a xlink:href="class_cpl_1_1_text_1_1_frame_1_1_stream_encoder.html" target="_top" xlink:title="This concrete class implements the Encoder API where the Output destination is a Cpl::Io::Output stre...">
<polygon fill="white" stroke="black" points="526,-127 526,-157 654,-157 654,-127 526,-127"/>
<text text-anchor="start" x="534" y="-145" font-family="Helvetica,sans-Serif" font-size="10.00">Cpl::Text::Frame::Stream</text>
<text text-anchor="middle" x="590" y="-134" font-family="Helvetica,sans-Serif" font-size="10.00">Encoder</text>
</a>
</g>
</g>
<!-- Node2&#45;&gt;Node1 -->
<g id="edge1" class="edge"><title>Node2&#45;&gt;Node1</title>
<path fill="none" stroke="#9a32cd" stroke-dasharray="5,2" d="M664.178,-138.102C748.366,-133.617 884.196,-126.382 955.979,-122.558"/>
<polygon fill="#9a32cd" stroke="#9a32cd" points="663.975,-134.608 654.175,-138.635 664.347,-141.598 663.975,-134.608"/>
<text text-anchor="middle" x="802.5" y="-137" font-family="Helvetica,sans-Serif" font-size="10.00"> m_framer</text>
</g>
<!-- Node9 -->
<g id="node9" class="node"><title>Node9</title>
<g id="a_node9"><a xlink:href="class_cpl_1_1_t_shell_1_1_processor.html" target="_top" xlink:title="This concrete class provides the implementation of Command Processor for a TShell engine.">
<polygon fill="white" stroke="black" points="745,-72.5 745,-91.5 860,-91.5 860,-72.5 745,-72.5"/>
<text text-anchor="middle" x="802.5" y="-79.5" font-family="Helvetica,sans-Serif" font-size="10.00">Cpl::TShell::Processor</text>
</a>
</g>
</g>
<!-- Node2&#45;&gt;Node9 -->
<g id="edge17" class="edge"><title>Node2&#45;&gt;Node9</title>
<path fill="none" stroke="#9a32cd" stroke-dasharray="5,2" d="M648.696,-123.919C656.515,-121.549 664.445,-119.186 672,-117 703.208,-107.97 738.858,-98.3881 764.842,-91.5375"/>
<polygon fill="#9a32cd" stroke="#9a32cd" points="647.429,-120.646 638.887,-126.913 649.473,-127.341 647.429,-120.646"/>
<text text-anchor="middle" x="699.5" y="-120" font-family="Helvetica,sans-Serif" font-size="10.00"> m_framer</text>
</g>
<!-- Node3 -->
<g id="node3" class="node"><title>Node3</title>
<g id="a_node3"><a xlink:href="class_cpl_1_1_text_1_1_frame_1_1_encoder__.html" target="_top" xlink:title="This Private Namespace partially concrete class implements common/helper method for supporting the En...">
<polygon fill="white" stroke="black" points="310,-169.5 310,-188.5 447,-188.5 447,-169.5 310,-169.5"/>
<text text-anchor="middle" x="378.5" y="-176.5" font-family="Helvetica,sans-Serif" font-size="10.00">Cpl::Text::Frame::Encoder_</text>
</a>
</g>
</g>
<!-- Node3&#45;&gt;Node2 -->
<g id="edge2" class="edge"><title>Node3&#45;&gt;Node2</title>
<path fill="none" stroke="midnightblue" d="M446.057,-167.782C465.988,-164.375 487.889,-160.583 508,-157 513.773,-155.971 519.774,-154.887 525.783,-153.792"/>
<polygon fill="midnightblue" stroke="midnightblue" points="445.411,-164.341 436.142,-169.473 446.588,-171.241 445.411,-164.341"/>
</g>
<!-- Node4 -->
<g id="node4" class="node"><title>Node4</title>
<g id="a_node4"><a xlink:href="class_cpl_1_1_text_1_1_frame_1_1_encoder.html" target="_top" xlink:title="This class defines an interface for &#39;transmitted&#39; (encoding) a frame.">
<polygon fill="white" stroke="black" points="141,-169.5 141,-188.5 273,-188.5 273,-169.5 141,-169.5"/>
<text text-anchor="middle" x="207" y="-176.5" font-family="Helvetica,sans-Serif" font-size="10.00">Cpl::Text::Frame::Encoder</text>
</a>
</g>
</g>
<!-- Node4&#45;&gt;Node3 -->
<g id="edge3" class="edge"><title>Node4&#45;&gt;Node3</title>
<path fill="none" stroke="midnightblue" d="M283.32,-179C292.144,-179 301.106,-179 309.816,-179"/>
<polygon fill="midnightblue" stroke="midnightblue" points="283.048,-175.5 273.048,-179 283.048,-182.5 283.048,-175.5"/>
</g>
<!-- Node5 -->
<g id="node5" class="node"><title>Node5</title>
<g id="a_node5"><a xlink:href="class_cpl_1_1_io_1_1_output.html" target="_top" xlink:title="This partially abstract class defines a interface for operating on an output stream (example of a str...">
<polygon fill="white" stroke="black" points="338.5,-131.5 338.5,-150.5 418.5,-150.5 418.5,-131.5 338.5,-131.5"/>
<text text-anchor="middle" x="378.5" y="-138.5" font-family="Helvetica,sans-Serif" font-size="10.00">Cpl::Io::Output</text>
</a>
</g>
</g>
<!-- Node5&#45;&gt;Node2 -->
<g id="edge4" class="edge"><title>Node5&#45;&gt;Node2</title>
<path fill="none" stroke="#9a32cd" stroke-dasharray="5,2" d="M429.189,-141.237C458.133,-141.375 494.913,-141.551 525.89,-141.699"/>
<polygon fill="#9a32cd" stroke="#9a32cd" points="428.922,-137.736 418.905,-141.188 428.888,-144.736 428.922,-137.736"/>
<text text-anchor="middle" x="486.5" y="-145" font-family="Helvetica,sans-Serif" font-size="10.00"> m_dstPtr</text>
</g>
<!-- Node6 -->
<g id="node6" class="node"><title>Node6</title>
<g id="a_node6"><a xlink:href="class_cpl_1_1_io_1_1_close.html" target="_top" xlink:title="This abstract class defines a close operation that is intended to be used Input and Output streams/fi...">
<polygon fill="white" stroke="black" points="169,-128.5 169,-147.5 245,-147.5 245,-128.5 169,-128.5"/>
<text text-anchor="middle" x="207" y="-135.5" font-family="Helvetica,sans-Serif" font-size="10.00">Cpl::Io::Close</text>
</a>
</g>
</g>
<!-- Node6&#45;&gt;Node5 -->
<g id="edge5" class="edge"><title>Node6&#45;&gt;Node5</title>
<path fill="none" stroke="midnightblue" d="M255.21,-139.24C266.906,-139.519 279.408,-139.793 291,-140 306.466,-140.276 323.49,-140.491 338.314,-140.651"/>
<polygon fill="midnightblue" stroke="midnightblue" points="255.266,-135.741 245.183,-138.995 255.095,-142.738 255.266,-135.741"/>
</g>
<!-- Node15 -->
<g id="node15" class="node"><title>Node15</title>
<g id="a_node15"><a xlink:href="class_cpl_1_1_io_1_1_input.html" target="_top" xlink:title="This partially abstract class defines a interface for operating on an input stream (example of a stre...">
<polygon fill="white" stroke="black" points="342,-82.5 342,-101.5 415,-101.5 415,-82.5 342,-82.5"/>
<text text-anchor="middle" x="378.5" y="-89.5" font-family="Helvetica,sans-Serif" font-size="10.00">Cpl::Io::Input</text>
</a>
</g>
</g>
<!-- Node6&#45;&gt;Node15 -->
<g id="edge15" class="edge"><title>Node6&#45;&gt;Node15</title>
<path fill="none" stroke="midnightblue" d="M253.067,-125.77C281.065,-118.171 316.527,-108.547 342.424,-101.519"/>
<polygon fill="midnightblue" stroke="midnightblue" points="251.855,-122.472 243.121,-128.469 253.688,-129.227 251.855,-122.472"/>
</g>
<!-- Node7 -->
<g id="node7" class="node"><title>Node7</title>
<g id="a_node7"><a xlink:href="class_cpl_1_1_container_1_1_item.html" target="_top" xlink:title="This class is used by the Container classes to implement a various types of singly linked containers.">
<polygon fill="white" stroke="black" points="0,-128.5 0,-147.5 104,-147.5 104,-128.5 0,-128.5"/>
<text text-anchor="middle" x="52" y="-135.5" font-family="Helvetica,sans-Serif" font-size="10.00">Cpl::Container::Item</text>
</a>
</g>
</g>
<!-- Node7&#45;&gt;Node6 -->
<g id="edge6" class="edge"><title>Node7&#45;&gt;Node6</title>
<path fill="none" stroke="midnightblue" d="M114.4,-138C132.724,-138 152.252,-138 168.549,-138"/>
<polygon fill="midnightblue" stroke="midnightblue" points="114.372,-134.5 104.372,-138 114.372,-141.5 114.372,-134.5"/>
</g>
<!-- Node8 -->
<g id="node8" class="node"><title>Node8</title>
<g id="a_node8"><a xlink:href="class_cpl_1_1_io_1_1_is_eos.html" target="_top" xlink:title="This abstract class defines a isEos() operation that is intended to be used Input and Output streams.">
<polygon fill="white" stroke="black" points="168.5,-85.5 168.5,-104.5 245.5,-104.5 245.5,-85.5 168.5,-85.5"/>
<text text-anchor="middle" x="207" y="-92.5" font-family="Helvetica,sans-Serif" font-size="10.00">Cpl::Io::IsEos</text>
</a>
</g>
</g>
<!-- Node8&#45;&gt;Node5 -->
<g id="edge7" class="edge"><title>Node8&#45;&gt;Node5</title>
<path fill="none" stroke="midnightblue" d="M253.067,-107.23C281.065,-114.829 316.527,-124.453 342.424,-131.481"/>
<polygon fill="midnightblue" stroke="midnightblue" points="253.688,-103.773 243.121,-104.531 251.855,-110.528 253.688,-103.773"/>
</g>
<!-- Node8&#45;&gt;Node15 -->
<g id="edge16" class="edge"><title>Node8&#45;&gt;Node15</title>
<path fill="none" stroke="midnightblue" d="M255.9,-93.7435C267.396,-93.4702 279.635,-93.2026 291,-93 307.668,-92.7029 326.144,-92.4754 341.726,-92.313"/>
<polygon fill="midnightblue" stroke="midnightblue" points="255.509,-90.2518 245.597,-93.9943 255.679,-97.2498 255.509,-90.2518"/>
</g>
<!-- Node9&#45;&gt;Node1 -->
<g id="edge8" class="edge"><title>Node9&#45;&gt;Node1</title>
<path fill="none" stroke="#9a32cd" stroke-dasharray="5,2" d="M863.977,-93.462C893.348,-99.0286 928.156,-105.626 955.719,-110.849"/>
<polygon fill="#9a32cd" stroke="#9a32cd" points="864.313,-89.9634 853.836,-91.54 863.009,-96.8409 864.313,-89.9634"/>
<text text-anchor="middle" x="908" y="-110" font-family="Helvetica,sans-Serif" font-size="10.00"> m_processor</text>
</g>
<!-- Node10 -->
<g id="node10" class="node"><title>Node10</title>
<g id="a_node10"><a xlink:href="class_cpl_1_1_t_shell_1_1_context__.html" target="_top" xlink:title="This Private Namespace class defines a &quot;Context&quot; for a TShell command.">
<polygon fill="white" stroke="black" points="535,-0.5 535,-19.5 645,-19.5 645,-0.5 535,-0.5"/>
<text text-anchor="middle" x="590" y="-7.5" font-family="Helvetica,sans-Serif" font-size="10.00">Cpl::TShell::Context_</text>
</a>
</g>
</g>
<!-- Node10&#45;&gt;Node9 -->
<g id="edge9" class="edge"><title>Node10&#45;&gt;Node9</title>
<path fill="none" stroke="midnightblue" d="M633.63,-22.5458C640.46,-24.6451 647.437,-26.8431 654,-29 697.299,-43.2305 747.083,-61.5286 776.329,-72.4793"/>
<polygon fill="midnightblue" stroke="midnightblue" points="634.38,-19.1157 623.794,-19.5568 632.344,-25.8132 634.38,-19.1157"/>
</g>
<!-- Node11 -->
<g id="node11" class="node"><title>Node11</title>
<g id="a_node11"><a xlink:href="class_cpl_1_1_t_shell_1_1_processor_api.html" target="_top" xlink:title="This class defines the interface a TShell Command Processor.">
<polygon fill="white" stroke="black" points="314,-0.5 314,-19.5 443,-19.5 443,-0.5 314,-0.5"/>
<text text-anchor="middle" x="378.5" y="-7.5" font-family="Helvetica,sans-Serif" font-size="10.00">Cpl::TShell::ProcessorApi</text>
</a>
</g>
</g>
<!-- Node11&#45;&gt;Node10 -->
<g id="edge10" class="edge"><title>Node11&#45;&gt;Node10</title>
<path fill="none" stroke="midnightblue" d="M453.33,-10C480.159,-10 509.96,-10 534.782,-10"/>
<polygon fill="midnightblue" stroke="midnightblue" points="453.21,-6.5001 443.21,-10 453.21,-13.5001 453.21,-6.5001"/>
</g>
<!-- Node12 -->
<g id="node12" class="node"><title>Node12</title>
<g id="a_node12"><a xlink:href="class_cpl_1_1_text_1_1_frame_1_1_stream_decoder.html" target="_top" xlink:title="This partially concrete class defines an interface a Text &quot;Decoder&quot; that has a Cpl::Io::Input stream ...">
<polygon fill="white" stroke="black" points="526,-77 526,-107 654,-107 654,-77 526,-77"/>
<text text-anchor="start" x="534" y="-95" font-family="Helvetica,sans-Serif" font-size="10.00">Cpl::Text::Frame::Stream</text>
<text text-anchor="middle" x="590" y="-84" font-family="Helvetica,sans-Serif" font-size="10.00">Decoder</text>
</a>
</g>
</g>
<!-- Node12&#45;&gt;Node9 -->
<g id="edge11" class="edge"><title>Node12&#45;&gt;Node9</title>
<path fill="none" stroke="#9a32cd" stroke-dasharray="5,2" d="M664.29,-83.5159C666.89,-83.3234 669.466,-83.1501 672,-83 695.791,-81.5902 722.082,-81.1764 744.725,-81.1756"/>
<polygon fill="#9a32cd" stroke="#9a32cd" points="663.859,-80.0393 654.179,-84.3447 664.431,-87.0159 663.859,-80.0393"/>
<text text-anchor="middle" x="699.5" y="-86" font-family="Helvetica,sans-Serif" font-size="10.00"> m_deframer</text>
</g>
<!-- Node13 -->
<g id="node13" class="node"><title>Node13</title>
<g id="a_node13"><a xlink:href="class_cpl_1_1_text_1_1_frame_1_1_decoder__.html" target="_top" xlink:title="This private partially concrete class implements the basic/common logic for a frame decoder.">
<polygon fill="white" stroke="black" points="310,-44.5 310,-63.5 447,-63.5 447,-44.5 310,-44.5"/>
<text text-anchor="middle" x="378.5" y="-51.5" font-family="Helvetica,sans-Serif" font-size="10.00">Cpl::Text::Frame::Decoder_</text>
</a>
</g>
</g>
<!-- Node13&#45;&gt;Node12 -->
<g id="edge12" class="edge"><title>Node13&#45;&gt;Node12</title>
<path fill="none" stroke="midnightblue" d="M442.023,-65.3407C468.527,-70.1482 499.364,-75.7414 525.927,-80.5596"/>
<polygon fill="midnightblue" stroke="midnightblue" points="442.559,-61.881 432.095,-63.54 441.31,-68.7686 442.559,-61.881"/>
</g>
<!-- Node14 -->
<g id="node14" class="node"><title>Node14</title>
<g id="a_node14"><a xlink:href="class_cpl_1_1_text_1_1_frame_1_1_decoder.html" target="_top" xlink:title="This class defines an interface for &#39;receiving&#39; (decode) a frame.">
<polygon fill="white" stroke="black" points="141,-44.5 141,-63.5 273,-63.5 273,-44.5 141,-44.5"/>
<text text-anchor="middle" x="207" y="-51.5" font-family="Helvetica,sans-Serif" font-size="10.00">Cpl::Text::Frame::Decoder</text>
</a>
</g>
</g>
<!-- Node14&#45;&gt;Node13 -->
<g id="edge13" class="edge"><title>Node14&#45;&gt;Node13</title>
<path fill="none" stroke="midnightblue" d="M283.32,-54C292.144,-54 301.106,-54 309.816,-54"/>
<polygon fill="midnightblue" stroke="midnightblue" points="283.048,-50.5001 273.048,-54 283.048,-57.5001 283.048,-50.5001"/>
</g>
<!-- Node15&#45;&gt;Node12 -->
<g id="edge14" class="edge"><title>Node15&#45;&gt;Node12</title>
<path fill="none" stroke="#9a32cd" stroke-dasharray="5,2" d="M425.045,-92C454.502,-92 493.26,-92 525.697,-92"/>
<polygon fill="#9a32cd" stroke="#9a32cd" points="425.039,-88.5001 415.039,-92 425.039,-95.5001 425.039,-88.5001"/>
<text text-anchor="middle" x="486.5" y="-95" font-family="Helvetica,sans-Serif" font-size="10.00"> m_srcPtr</text>
</g>
<!-- Node16 -->
<g id="node16" class="node"><title>Node16</title>
<g id="a_node16"><a xlink:href="class_cpl_1_1_system_1_1_mutex.html" target="_top" xlink:title="This mutex class defines the interface for a mutex that has &quot;recursive&quot; semantics.">
<polygon fill="white" stroke="black" points="538,-38.5 538,-57.5 642,-57.5 642,-38.5 538,-38.5"/>
<text text-anchor="middle" x="590" y="-45.5" font-family="Helvetica,sans-Serif" font-size="10.00">Cpl::System::Mutex</text>
</a>
</g>
</g>
<!-- Node16&#45;&gt;Node9 -->
<g id="edge18" class="edge"><title>Node16&#45;&gt;Node9</title>
<path fill="none" stroke="#9a32cd" stroke-dasharray="5,2" d="M652.281,-55.7678C675.707,-58.945 702.638,-62.8495 727,-67 736.495,-68.6176 746.632,-70.5323 756.274,-72.4432"/>
<polygon fill="#9a32cd" stroke="#9a32cd" points="652.508,-52.267 642.131,-54.4066 651.577,-59.2048 652.508,-52.267"/>
<text text-anchor="middle" x="699.5" y="-70" font-family="Helvetica,sans-Serif" font-size="10.00"> m_outLock</text>
</g>
</g>
</svg>
