<?xml version="1.0" encoding="UTF-8" standalone="no"?>
<!DOCTYPE svg PUBLIC "-//W3C//DTD SVG 1.1//EN"
 "http://www.w3.org/Graphics/SVG/1.1/DTD/svg11.dtd">
<!-- Generated by graphviz version 10.0.1 (20240210.2158)
 -->
<!-- Title: Cpl::Io::File::InputApi Pages: 1 -->
<svg width="332pt" height="308pt"
 viewBox="0.00 0.00 332.12 308.00" xmlns="http://www.w3.org/2000/svg" xmlns:xlink="http://www.w3.org/1999/xlink">
<g id="graph0" class="graph" transform="scale(1 1) rotate(0) translate(4 304)">
<title>Cpl::Io::File::InputApi</title>
<!-- Node1 -->
<g id="Node000001" class="node">
<title>Node1</title>
<g id="a_Node000001"><a xlink:title="This abstract class defines the interface for a Random Access Input File.">
<polygon fill="#999999" stroke="#666666" points="205.5,-132 98.75,-132 98.75,-112 205.5,-112 205.5,-132"/>
<text text-anchor="middle" x="152.12" y="-118.5" font-family="Helvetica,sans-Serif" font-size="10.00">Cpl::Io::File::InputApi</text>
</a>
</g>
</g>
<!-- Node7 -->
<g id="Node000007" class="node">
<title>Node7</title>
<g id="a_Node000007"><a xlink:href="class_cpl_1_1_io_1_1_file_1_1_input.html" target="_top" xlink:title="This concrete class provides a platform independent &#39;standard&#39; implementation of a Cpl::Io::File::Inp...">
<polygon fill="white" stroke="#666666" points="132.38,-76 39.88,-76 39.88,-56 132.38,-56 132.38,-76"/>
<text text-anchor="middle" x="86.12" y="-62.5" font-family="Helvetica,sans-Serif" font-size="10.00">Cpl::Io::File::Input</text>
</a>
</g>
</g>
<!-- Node1&#45;&gt;Node7 -->
<g id="edge6_Node000001_Node000007" class="edge">
<title>Node1&#45;&gt;Node7</title>
<g id="a_edge6_Node000001_Node000007"><a xlink:title=" ">
<path fill="none" stroke="#63b8ff" d="M131.84,-104.4C120.55,-95.17 106.91,-84.01 97.49,-76.3"/>
<polygon fill="#63b8ff" stroke="#63b8ff" points="129.5,-107.01 139.46,-110.64 133.93,-101.59 129.5,-107.01"/>
</a>
</g>
</g>
<!-- Node8 -->
<g id="Node000008" class="node">
<title>Node8</title>
<g id="a_Node000008"><a xlink:href="class_cpl_1_1_io_1_1_file_1_1_input_output_api.html" target="_top" xlink:title="This abstract class defines the interface for a Random Access Input Output File.">
<polygon fill="white" stroke="#666666" points="286.12,-76 150.12,-76 150.12,-56 286.12,-56 286.12,-76"/>
<text text-anchor="middle" x="218.12" y="-62.5" font-family="Helvetica,sans-Serif" font-size="10.00">Cpl::Io::File::InputOutputApi</text>
</a>
</g>
</g>
<!-- Node1&#45;&gt;Node8 -->
<g id="edge7_Node000001_Node000008" class="edge">
<title>Node1&#45;&gt;Node8</title>
<g id="a_edge7_Node000001_Node000008"><a xlink:title=" ">
<path fill="none" stroke="#63b8ff" d="M172.41,-104.4C183.7,-95.17 197.34,-84.01 206.76,-76.3"/>
<polygon fill="#63b8ff" stroke="#63b8ff" points="170.32,-101.59 164.79,-110.64 174.75,-107.01 170.32,-101.59"/>
</a>
</g>
</g>
<!-- Node2 -->
<g id="Node000002" class="node">
<title>Node2</title>
<g id="a_Node000002"><a xlink:href="class_cpl_1_1_io_1_1_input.html" target="_top" xlink:title="This partially abstract class defines a interface for operating on an input stream (example of a stre...">
<polygon fill="white" stroke="#666666" points="132.5,-188 61.75,-188 61.75,-168 132.5,-168 132.5,-188"/>
<text text-anchor="middle" x="97.12" y="-174.5" font-family="Helvetica,sans-Serif" font-size="10.00">Cpl::Io::Input</text>
</a>
</g>
</g>
<!-- Node2&#45;&gt;Node1 -->
<g id="edge1_Node000001_Node000002" class="edge">
<title>Node2&#45;&gt;Node1</title>
<g id="a_edge1_Node000001_Node000002"><a xlink:title=" ">
<path fill="none" stroke="#63b8ff" d="M114.88,-159.57C124.12,-150.5 135.04,-139.78 142.65,-132.3"/>
<polygon fill="#63b8ff" stroke="#63b8ff" points="112.47,-157.03 107.79,-166.53 117.37,-162.03 112.47,-157.03"/>
</a>
</g>
</g>
<!-- Node3 -->
<g id="Node000003" class="node">
<title>Node3</title>
<g id="a_Node000003"><a xlink:href="class_cpl_1_1_io_1_1_close.html" target="_top" xlink:title="This abstract class defines a close operation that is intended to be used Input and Output streams/fi...">
<polygon fill="white" stroke="#666666" points="88.38,-244 13.88,-244 13.88,-224 88.38,-224 88.38,-244"/>
<text text-anchor="middle" x="51.12" y="-230.5" font-family="Helvetica,sans-Serif" font-size="10.00">Cpl::Io::Close</text>
</a>
</g>
</g>
<!-- Node3&#45;&gt;Node2 -->
<g id="edge2_Node000002_Node000003" class="edge">
<title>Node3&#45;&gt;Node2</title>
<g id="a_edge2_Node000002_Node000003"><a xlink:title=" ">
<path fill="none" stroke="#63b8ff" d="M66.46,-215C74.08,-206.06 82.96,-195.62 89.2,-188.3"/>
<polygon fill="#63b8ff" stroke="#63b8ff" points="63.94,-212.56 60.12,-222.44 69.27,-217.1 63.94,-212.56"/>
</a>
</g>
</g>
<!-- Node4 -->
<g id="Node000004" class="node">
<title>Node4</title>
<g id="a_Node000004"><a xlink:href="class_cpl_1_1_container_1_1_item.html" target="_top" xlink:title="This class is used by the Container classes to implement a various types of singly linked containers.">
<polygon fill="white" stroke="#666666" points="102.25,-300 0,-300 0,-280 102.25,-280 102.25,-300"/>
<text text-anchor="middle" x="51.12" y="-286.5" font-family="Helvetica,sans-Serif" font-size="10.00">Cpl::Container::Item</text>
</a>
</g>
</g>
<!-- Node4&#45;&gt;Node3 -->
<g id="edge3_Node000003_Node000004" class="edge">
<title>Node4&#45;&gt;Node3</title>
<g id="a_edge3_Node000003_Node000004"><a xlink:title=" ">
<path fill="none" stroke="#63b8ff" d="M51.12,-268.13C51.12,-259.9 51.12,-250.85 51.12,-244.3"/>
<polygon fill="#63b8ff" stroke="#63b8ff" points="47.63,-268.08 51.13,-278.08 54.63,-268.08 47.63,-268.08"/>
</a>
</g>
</g>
<!-- Node5 -->
<g id="Node000005" class="node">
<title>Node5</title>
<g id="a_Node000005"><a xlink:href="class_cpl_1_1_io_1_1_is_eos.html" target="_top" xlink:title="This abstract class defines a isEos() operation that is intended to be used Input and Output streams.">
<polygon fill="white" stroke="#666666" points="181.38,-244 106.88,-244 106.88,-224 181.38,-224 181.38,-244"/>
<text text-anchor="middle" x="144.12" y="-230.5" font-family="Helvetica,sans-Serif" font-size="10.00">Cpl::Io::IsEos</text>
</a>
</g>
</g>
<!-- Node5&#45;&gt;Node2 -->
<g id="edge4_Node000002_Node000005" class="edge">
<title>Node5&#45;&gt;Node2</title>
<g id="a_edge4_Node000002_Node000005"><a xlink:title=" ">
<path fill="none" stroke="#63b8ff" d="M128.46,-215C120.68,-206.06 111.59,-195.62 105.22,-188.3"/>
<polygon fill="#63b8ff" stroke="#63b8ff" points="125.74,-217.21 134.94,-222.45 131.02,-212.61 125.74,-217.21"/>
</a>
</g>
</g>
<!-- Node6 -->
<g id="Node000006" class="node">
<title>Node6</title>
<g id="a_Node000006"><a xlink:href="class_cpl_1_1_io_1_1_file_1_1_object_api.html" target="_top" xlink:title="This abstract class defines the basic additional functionality, beyond that of a stream,...">
<polygon fill="white" stroke="#666666" points="265.25,-188 151,-188 151,-168 265.25,-168 265.25,-188"/>
<text text-anchor="middle" x="208.12" y="-174.5" font-family="Helvetica,sans-Serif" font-size="10.00">Cpl::Io::File::ObjectApi</text>
</a>
</g>
</g>
<!-- Node6&#45;&gt;Node1 -->
<g id="edge5_Node000001_Node000006" class="edge">
<title>Node6&#45;&gt;Node1</title>
<g id="a_edge5_Node000001_Node000006"><a xlink:title=" ">
<path fill="none" stroke="#63b8ff" d="M190.34,-159.85C180.87,-150.72 169.6,-139.86 161.77,-132.3"/>
<polygon fill="#63b8ff" stroke="#63b8ff" points="187.65,-162.12 197.28,-166.54 192.51,-157.08 187.65,-162.12"/>
</a>
</g>
</g>
<!-- Node9 -->
<g id="Node000009" class="node">
<title>Node9</title>
<g id="a_Node000009"><a xlink:href="class_cpl_1_1_io_1_1_file_1_1_input_output.html" target="_top" xlink:title="This concrete class provides a platform independent &#39;standard&#39; implementation of an InputOutputFileAp...">
<polygon fill="white" stroke="#666666" points="218,-20 96.25,-20 96.25,0 218,0 218,-20"/>
<text text-anchor="middle" x="157.12" y="-6.5" font-family="Helvetica,sans-Serif" font-size="10.00">Cpl::Io::File::InputOutput</text>
</a>
</g>
</g>
<!-- Node8&#45;&gt;Node9 -->
<g id="edge8_Node000008_Node000009" class="edge">
<title>Node8&#45;&gt;Node9</title>
<g id="a_edge8_Node000008_Node000009"><a xlink:title=" ">
<path fill="none" stroke="#63b8ff" d="M199.06,-48.13C188.69,-38.94 176.25,-27.93 167.63,-20.3"/>
<polygon fill="#63b8ff" stroke="#63b8ff" points="196.56,-50.58 206.37,-54.59 201.2,-45.34 196.56,-50.58"/>
</a>
</g>
</g>
<!-- Node10 -->
<g id="Node000010" class="node">
<title>Node10</title>
<g id="a_Node000010"><a xlink:href="class_cpl_1_1_io_1_1_file_1_1_null.html" target="_top" xlink:title="This concrete class implements a NULL InputOutputApi File that all of its input operations return &#39;En...">
<polygon fill="white" stroke="#666666" points="324.12,-20 236.12,-20 236.12,0 324.12,0 324.12,-20"/>
<text text-anchor="middle" x="280.12" y="-6.5" font-family="Helvetica,sans-Serif" font-size="10.00">Cpl::Io::File::Null</text>
</a>
</g>
</g>
<!-- Node8&#45;&gt;Node10 -->
<g id="edge9_Node000008_Node000010" class="edge">
<title>Node8&#45;&gt;Node10</title>
<g id="a_edge9_Node000008_Node000010"><a xlink:title=" ">
<path fill="none" stroke="#63b8ff" d="M237.5,-48.13C248.04,-38.94 260.68,-27.93 269.45,-20.3"/>
<polygon fill="#63b8ff" stroke="#63b8ff" points="235.31,-45.39 230.07,-54.6 239.91,-50.67 235.31,-45.39"/>
</a>
</g>
</g>
</g>
</svg>
