<?xml version="1.0" encoding="UTF-8" standalone="no"?>
<!DOCTYPE svg PUBLIC "-//W3C//DTD SVG 1.1//EN"
 "http://www.w3.org/Graphics/SVG/1.1/DTD/svg11.dtd">
<!-- Generated by graphviz version 10.0.1 (20240210.2158)
 -->
<!-- Title: Storm::Component::Base Pages: 1 -->
<svg width="494pt" height="318pt"
 viewBox="0.00 0.00 494.00 318.00" xmlns="http://www.w3.org/2000/svg" xmlns:xlink="http://www.w3.org/1999/xlink">
<g id="graph0" class="graph" transform="scale(1 1) rotate(0) translate(4 314)">
<title>Storm::Component::Base</title>
<!-- Node1 -->
<g id="Node000001" class="node">
<title>Node1</title>
<g id="a_Node000001"><a xlink:title="This partially concrete class provide core infrastructure for Components.">
<polygon fill="#999999" stroke="#666666" points="280.25,-156 154,-156 154,-136 280.25,-136 280.25,-156"/>
<text text-anchor="middle" x="217.12" y="-142.5" font-family="Helvetica,sans-Serif" font-size="10.00">Storm::Component::Base</text>
</a>
</g>
</g>
<!-- Node3 -->
<g id="Node000003" class="node">
<title>Node3</title>
<g id="a_Node000003"><a xlink:href="class_storm_1_1_component_1_1_air_filter_monitor.html" target="_top" xlink:title="This class is responsible for monitoring how long the indoor fan has been running and raise an alert ...">
<polygon fill="white" stroke="#666666" points="469.88,-310 332.38,-310 332.38,-278 469.88,-278 469.88,-310"/>
<text text-anchor="start" x="340.38" y="-296.5" font-family="Helvetica,sans-Serif" font-size="10.00">Storm::Component::AirFilter</text>
<text text-anchor="middle" x="401.12" y="-284.5" font-family="Helvetica,sans-Serif" font-size="10.00">Monitor</text>
</a>
</g>
</g>
<!-- Node1&#45;&gt;Node3 -->
<g id="edge2_Node000001_Node000003" class="edge">
<title>Node1&#45;&gt;Node3</title>
<g id="a_edge2_Node000001_Node000003"><a xlink:title=" ">
<path fill="none" stroke="#63b8ff" d="M229.03,-166.34C244.73,-193.7 276.25,-242.01 316.25,-269 321.16,-272.31 326.52,-275.2 332.09,-277.71"/>
<polygon fill="#63b8ff" stroke="#63b8ff" points="232.12,-164.7 224.2,-157.66 226,-168.1 232.12,-164.7"/>
</a>
</g>
</g>
<!-- Node4 -->
<g id="Node000004" class="node">
<title>Node4</title>
<g id="a_Node000004"><a xlink:href="class_storm_1_1_component_1_1_control.html" target="_top" xlink:title="This concrete class provides the Component wrapper that is responsible for determining how to control...">
<polygon fill="white" stroke="#666666" points="468.38,-260 333.88,-260 333.88,-240 468.38,-240 468.38,-260"/>
<text text-anchor="middle" x="401.12" y="-246.5" font-family="Helvetica,sans-Serif" font-size="10.00">Storm::Component::Control</text>
</a>
</g>
</g>
<!-- Node1&#45;&gt;Node4 -->
<g id="edge3_Node000001_Node000004" class="edge">
<title>Node1&#45;&gt;Node4</title>
<g id="a_edge3_Node000001_Node000004"><a xlink:title=" ">
<path fill="none" stroke="#63b8ff" d="M234.53,-164.88C252.59,-184.43 283.44,-214.4 316.25,-231 323.04,-234.44 330.46,-237.26 337.98,-239.57"/>
<polygon fill="#63b8ff" stroke="#63b8ff" points="237.26,-162.68 227.97,-157.59 232.06,-167.37 237.26,-162.68"/>
</a>
</g>
</g>
<!-- Node5 -->
<g id="Node000005" class="node">
<title>Node5</title>
<g id="a_Node000005"><a xlink:href="class_storm_1_1_component_1_1_fan_control.html" target="_top" xlink:title="This class is responsible for implementing the Indoor Fan Policies (e.g.">
<polygon fill="white" stroke="#666666" points="476.62,-222 325.62,-222 325.62,-202 476.62,-202 476.62,-222"/>
<text text-anchor="middle" x="401.12" y="-208.5" font-family="Helvetica,sans-Serif" font-size="10.00">Storm::Component::FanControl</text>
</a>
</g>
</g>
<!-- Node1&#45;&gt;Node5 -->
<g id="edge4_Node000001_Node000005" class="edge">
<title>Node1&#45;&gt;Node5</title>
<g id="a_edge4_Node000001_Node000005"><a xlink:title=" ">
<path fill="none" stroke="#63b8ff" d="M246.67,-161.77C265.87,-171.85 292.01,-184.57 316.25,-193 325.7,-196.29 335.95,-199.15 345.93,-201.6"/>
<polygon fill="#63b8ff" stroke="#63b8ff" points="248.57,-158.82 238.1,-157.2 245.28,-165 248.57,-158.82"/>
</a>
</g>
</g>
<!-- Node6 -->
<g id="Node000006" class="node">
<title>Node6</title>
<g id="a_Node000006"><a xlink:href="class_storm_1_1_component_1_1_hvac_relay_outputs.html" target="_top" xlink:title="This class is responsible for implementing the Indoor Fan Policies (e.g.">
<polygon fill="white" stroke="#666666" points="475.88,-184 326.38,-184 326.38,-152 475.88,-152 475.88,-184"/>
<text text-anchor="start" x="334.38" y="-170.5" font-family="Helvetica,sans-Serif" font-size="10.00">Storm::Component::HvacRelay</text>
<text text-anchor="middle" x="401.12" y="-158.5" font-family="Helvetica,sans-Serif" font-size="10.00">Outputs</text>
</a>
</g>
</g>
<!-- Node1&#45;&gt;Node6 -->
<g id="edge5_Node000001_Node000006" class="edge">
<title>Node1&#45;&gt;Node6</title>
<g id="a_edge5_Node000001_Node000006"><a xlink:title=" ">
<path fill="none" stroke="#63b8ff" d="M291.64,-154.89C302.93,-156.25 314.59,-157.66 325.9,-159.03"/>
<polygon fill="#63b8ff" stroke="#63b8ff" points="292.35,-151.45 282.01,-153.72 291.51,-158.4 292.35,-151.45"/>
</a>
</g>
</g>
<!-- Node7 -->
<g id="Node000007" class="node">
<title>Node7</title>
<g id="a_Node000007"><a xlink:href="class_storm_1_1_component_1_1_idt_selection.html" target="_top" xlink:title="This concrete class determines which Indoor&#45;Temperature (IDT) value to be used for the rest of the al...">
<polygon fill="white" stroke="#666666" points="478.5,-134 323.75,-134 323.75,-114 478.5,-114 478.5,-134"/>
<text text-anchor="middle" x="401.12" y="-120.5" font-family="Helvetica,sans-Serif" font-size="10.00">Storm::Component::IdtSelection</text>
</a>
</g>
</g>
<!-- Node1&#45;&gt;Node7 -->
<g id="edge6_Node000001_Node000007" class="edge">
<title>Node1&#45;&gt;Node7</title>
<g id="a_edge6_Node000001_Node000007"><a xlink:title=" ">
<path fill="none" stroke="#63b8ff" d="M291.67,-137.11C302.1,-135.85 312.85,-134.55 323.34,-133.28"/>
<polygon fill="#63b8ff" stroke="#63b8ff" points="291.51,-133.6 282.01,-138.28 292.35,-140.55 291.51,-133.6"/>
</a>
</g>
</g>
<!-- Node8 -->
<g id="Node000008" class="node">
<title>Node8</title>
<g id="a_Node000008"><a xlink:href="class_storm_1_1_component_1_1_operating_mode.html" target="_top" xlink:title="This concrete class determine the actual mode of operation for the thermostat when the user has selec...">
<polygon fill="white" stroke="#666666" points="486,-96 316.25,-96 316.25,-76 486,-76 486,-96"/>
<text text-anchor="middle" x="401.12" y="-82.5" font-family="Helvetica,sans-Serif" font-size="10.00">Storm::Component::OperatingMode</text>
</a>
</g>
</g>
<!-- Node1&#45;&gt;Node8 -->
<g id="edge7_Node000001_Node000008" class="edge">
<title>Node1&#45;&gt;Node8</title>
<g id="a_edge7_Node000001_Node000008"><a xlink:title=" ">
<path fill="none" stroke="#63b8ff" d="M250.35,-130.87C269.25,-122.43 293.76,-112.19 316.25,-105 326.21,-101.82 336.99,-98.96 347.4,-96.48"/>
<polygon fill="#63b8ff" stroke="#63b8ff" points="248.97,-127.66 241.31,-134.98 251.86,-134.03 248.97,-127.66"/>
</a>
</g>
</g>
<!-- Node9 -->
<g id="Node000009" class="node">
<title>Node9</title>
<g id="a_Node000009"><a xlink:href="class_storm_1_1_component_1_1_pi.html" target="_top" xlink:title="This concrete class implements a simple (P)roportional (I)ntegral controller that only allows the int...">
<polygon fill="white" stroke="#666666" points="457.5,-58 344.75,-58 344.75,-38 457.5,-38 457.5,-58"/>
<text text-anchor="middle" x="401.12" y="-44.5" font-family="Helvetica,sans-Serif" font-size="10.00">Storm::Component::Pi</text>
</a>
</g>
</g>
<!-- Node1&#45;&gt;Node9 -->
<g id="edge8_Node000001_Node000009" class="edge">
<title>Node1&#45;&gt;Node9</title>
<g id="a_edge8_Node000001_Node000009"><a xlink:title=" ">
<path fill="none" stroke="#63b8ff" d="M235.64,-127.67C254.02,-109.52 284.61,-82.3 316.25,-67 324.99,-62.78 334.7,-59.47 344.32,-56.89"/>
<polygon fill="#63b8ff" stroke="#63b8ff" points="233.25,-125.11 228.71,-134.68 238.23,-130.03 233.25,-125.11"/>
</a>
</g>
</g>
<!-- Node10 -->
<g id="Node000010" class="node">
<title>Node10</title>
<g id="a_Node000010"><a xlink:href="class_storm_1_1_component_1_1_pi_pre_process.html" target="_top" xlink:title="This concrete class provide the context for a PI controller.">
<polygon fill="white" stroke="#666666" points="483,-20 319.25,-20 319.25,0 483,0 483,-20"/>
<text text-anchor="middle" x="401.12" y="-6.5" font-family="Helvetica,sans-Serif" font-size="10.00">Storm::Component::PiPreProcess</text>
</a>
</g>
</g>
<!-- Node1&#45;&gt;Node10 -->
<g id="edge9_Node000001_Node000010" class="edge">
<title>Node1&#45;&gt;Node10</title>
<g id="a_edge9_Node000001_Node000010"><a xlink:title=" ">
<path fill="none" stroke="#63b8ff" d="M229.27,-125.88C245.05,-99.37 276.47,-53.27 316.25,-29 321.86,-25.58 328.02,-22.77 334.37,-20.47"/>
<polygon fill="#63b8ff" stroke="#63b8ff" points="226.38,-123.9 224.42,-134.31 232.44,-127.39 226.38,-123.9"/>
</a>
</g>
</g>
<!-- Node2 -->
<g id="Node000002" class="node">
<title>Node2</title>
<g id="a_Node000002"><a xlink:href="class_storm_1_1_component_1_1_api.html" target="_top" xlink:title="This class define the interface for a Component.">
<polygon fill="white" stroke="#666666" points="118,-156 0,-156 0,-136 118,-136 118,-156"/>
<text text-anchor="middle" x="59" y="-142.5" font-family="Helvetica,sans-Serif" font-size="10.00">Storm::Component::Api</text>
</a>
</g>
</g>
<!-- Node2&#45;&gt;Node1 -->
<g id="edge1_Node000001_Node000002" class="edge">
<title>Node2&#45;&gt;Node1</title>
<g id="a_edge1_Node000001_Node000002"><a xlink:title=" ">
<path fill="none" stroke="#63b8ff" d="M129.46,-146C137.55,-146 145.77,-146 153.75,-146"/>
<polygon fill="#63b8ff" stroke="#63b8ff" points="129.65,-142.5 119.65,-146 129.65,-149.5 129.65,-142.5"/>
</a>
</g>
</g>
</g>
</svg>
