<?xml version="1.0" encoding="UTF-8" standalone="no"?>
<!DOCTYPE svg PUBLIC "-//W3C//DTD SVG 1.1//EN"
 "http://www.w3.org/Graphics/SVG/1.1/DTD/svg11.dtd">
<!-- Generated by graphviz version 10.0.1 (20240210.2158)
 -->
<!-- Title: Storm::Dm::MpCycleInfo Pages: 1 -->
<svg width="1159pt" height="204pt"
 viewBox="0.00 0.00 1159.00 204.00" xmlns="http://www.w3.org/2000/svg" xmlns:xlink="http://www.w3.org/1999/xlink">
<g id="graph0" class="graph" transform="scale(1 1) rotate(0) translate(4 200)">
<title>Storm::Dm::MpCycleInfo</title>
<!-- Node1 -->
<g id="Node000001" class="node">
<title>Node1</title>
<g id="a_Node000001"><a xlink:title="This class provides a concrete implementation for Model Point with a type of Storm::Type::CycleInfo_T...">
<polygon fill="#999999" stroke="#666666" points="1151,-107 1028.5,-107 1028.5,-87 1151,-87 1151,-107"/>
<text text-anchor="middle" x="1089.75" y="-93.5" font-family="Helvetica,sans-Serif" font-size="10.00">Storm::Dm::MpCycleInfo</text>
</a>
</g>
</g>
<!-- Node2 -->
<g id="Node000002" class="node">
<title>Node2</title>
<g id="a_Node000002"><a xlink:href="class_cpl_1_1_dm_1_1_model_point_common__.html" target="_top" xlink:title="This concrete class provide common infrastructure for a Model Point.">
<polygon fill="white" stroke="#666666" points="957.25,-131 807,-131 807,-111 957.25,-111 957.25,-131"/>
<text text-anchor="middle" x="882.12" y="-117.5" font-family="Helvetica,sans-Serif" font-size="10.00">Cpl::Dm::ModelPointCommon_</text>
</a>
</g>
</g>
<!-- Node2&#45;&gt;Node1 -->
<g id="edge1_Node000001_Node000002" class="edge">
<title>Node2&#45;&gt;Node1</title>
<g id="a_edge1_Node000001_Node000002"><a xlink:title=" ">
<path fill="none" stroke="#63b8ff" d="M968.94,-110.98C988.89,-108.66 1009.72,-106.22 1028.3,-104.06"/>
<polygon fill="#63b8ff" stroke="#63b8ff" points="968.68,-107.49 959.15,-112.13 969.49,-114.44 968.68,-107.49"/>
</a>
</g>
</g>
<!-- Node3 -->
<g id="Node000003" class="node">
<title>Node3</title>
<g id="a_Node000003"><a xlink:href="class_cpl_1_1_dm_1_1_model_point.html" target="_top" xlink:title="This mostly abstract class defines the interface for a Model Point.">
<polygon fill="white" stroke="#666666" points="672,-196 566,-196 566,-176 672,-176 672,-196"/>
<text text-anchor="middle" x="619" y="-182.5" font-family="Helvetica,sans-Serif" font-size="10.00">Cpl::Dm::ModelPoint</text>
</a>
</g>
</g>
<!-- Node3&#45;&gt;Node2 -->
<g id="edge2_Node000002_Node000003" class="edge">
<title>Node3&#45;&gt;Node2</title>
<g id="a_edge2_Node000002_Node000003"><a xlink:title=" ">
<path fill="none" stroke="#63b8ff" d="M683.4,-173.98C715.26,-167.57 754.36,-159.12 789,-150 809.76,-144.54 832.79,-137.29 850.63,-131.4"/>
<polygon fill="#63b8ff" stroke="#63b8ff" points="683.06,-170.48 673.94,-175.87 684.43,-177.34 683.06,-170.48"/>
</a>
</g>
</g>
<!-- Node4 -->
<g id="Node000004" class="node">
<title>Node4</title>
<g id="a_Node000004"><a xlink:href="class_cpl_1_1_container_1_1_item.html" target="_top" xlink:title="This class is used by the Container classes to implement a various types of singly linked containers.">
<polygon fill="white" stroke="#666666" points="373.62,-196 271.38,-196 271.38,-176 373.62,-176 373.62,-196"/>
<text text-anchor="middle" x="322.5" y="-182.5" font-family="Helvetica,sans-Serif" font-size="10.00">Cpl::Container::Item</text>
</a>
</g>
</g>
<!-- Node4&#45;&gt;Node3 -->
<g id="edge3_Node000003_Node000004" class="edge">
<title>Node4&#45;&gt;Node3</title>
<g id="a_edge3_Node000003_Node000004"><a xlink:title=" ">
<path fill="none" stroke="#63b8ff" d="M385.19,-186C438.74,-186 515.42,-186 565.93,-186"/>
<polygon fill="#63b8ff" stroke="#63b8ff" points="385.31,-182.5 375.31,-186 385.31,-189.5 385.31,-182.5"/>
</a>
</g>
</g>
<!-- Node5 -->
<g id="Node000005" class="node">
<title>Node5</title>
<g id="a_Node000005"><a xlink:href="class_cpl_1_1_container_1_1_d_list.html" target="_top" xlink:title=" ">
<polygon fill="white" stroke="#666666" points="687,-158 551,-158 551,-126 687,-126 687,-158"/>
<text text-anchor="start" x="559" y="-144.5" font-family="Helvetica,sans-Serif" font-size="10.00">Cpl::Container::DList</text>
<text text-anchor="middle" x="619" y="-132.5" font-family="Helvetica,sans-Serif" font-size="10.00">&lt; Cpl::Dm::SubscriberApi &gt;</text>
</a>
</g>
</g>
<!-- Node5&#45;&gt;Node2 -->
<g id="edge4_Node000002_Node000005" class="edge">
<title>Node5&#45;&gt;Node2</title>
<g id="a_edge4_Node000002_Node000005"><a xlink:title=" ">
<path fill="none" stroke="#9a32cd" stroke-dasharray="5,2" d="M698.64,-135.68C732.94,-132.92 772.95,-129.7 806.75,-126.98"/>
<polygon fill="#9a32cd" stroke="#9a32cd" points="698.44,-132.18 688.75,-136.47 699,-139.16 698.44,-132.18"/>
</a>
</g>
<text text-anchor="middle" x="747" y="-136.5" font-family="Helvetica,sans-Serif" font-size="10.00" fill="grey"> m_subscribers</text>
</g>
<!-- Node6 -->
<g id="Node000006" class="node">
<title>Node6</title>
<g id="a_Node000006"><a xlink:href="class_cpl_1_1_container_1_1_d_list.html" target="_top" xlink:title="This template class implements a Doubly linked list which maintains the ordering imposed on it by the...">
<polygon fill="white" stroke="#666666" points="375.5,-158 269.5,-158 269.5,-126 375.5,-126 375.5,-158"/>
<text text-anchor="start" x="277.5" y="-144.5" font-family="Helvetica,sans-Serif" font-size="10.00">Cpl::Container::DList</text>
<text text-anchor="middle" x="322.5" y="-132.5" font-family="Helvetica,sans-Serif" font-size="10.00">&lt; ITEM &gt;</text>
</a>
</g>
</g>
<!-- Node6&#45;&gt;Node5 -->
<g id="edge5_Node000005_Node000006" class="edge">
<title>Node6&#45;&gt;Node5</title>
<g id="a_edge5_Node000005_Node000006"><a xlink:title=" ">
<path fill="none" stroke="orange" stroke-dasharray="5,2" d="M387.05,-142C435.29,-142 501.48,-142 550.64,-142"/>
<polygon fill="orange" stroke="orange" points="387.32,-138.5 377.32,-142 387.32,-145.5 387.32,-138.5"/>
</a>
</g>
<text text-anchor="middle" x="471.5" y="-144.5" font-family="Helvetica,sans-Serif" font-size="10.00" fill="grey"> &lt; Cpl::Dm::SubscriberApi &gt;</text>
</g>
<!-- Node7 -->
<g id="Node000007" class="node">
<title>Node7</title>
<g id="a_Node000007"><a xlink:href="class_cpl_1_1_dm_1_1_model_database.html" target="_top" xlink:title="This concrete class implements a simple Model Database.">
<polygon fill="white" stroke="#666666" points="681.38,-108 556.62,-108 556.62,-88 681.38,-88 681.38,-108"/>
<text text-anchor="middle" x="619" y="-94.5" font-family="Helvetica,sans-Serif" font-size="10.00">Cpl::Dm::ModelDatabase</text>
</a>
</g>
</g>
<!-- Node7&#45;&gt;Node2 -->
<g id="edge6_Node000002_Node000007" class="edge">
<title>Node7&#45;&gt;Node2</title>
<g id="a_edge6_Node000002_Node000007"><a xlink:title=" ">
<path fill="none" stroke="#9a32cd" stroke-dasharray="5,2" d="M692.84,-104.42C728.43,-107.55 771.2,-111.32 806.97,-114.47"/>
<polygon fill="#9a32cd" stroke="#9a32cd" points="693.33,-100.95 683.06,-103.55 692.71,-107.92 693.33,-100.95"/>
</a>
</g>
<text text-anchor="middle" x="747" y="-114.5" font-family="Helvetica,sans-Serif" font-size="10.00" fill="grey"> m_modelDatabase</text>
</g>
<!-- Node8 -->
<g id="Node000008" class="node">
<title>Node8</title>
<g id="a_Node000008"><a xlink:href="class_cpl_1_1_dm_1_1_model_database_api.html" target="_top" xlink:title="This class defines the basic operations that can be performed on a Model Base.">
<polygon fill="white" stroke="#666666" points="392,-108 253,-108 253,-88 392,-88 392,-108"/>
<text text-anchor="middle" x="322.5" y="-94.5" font-family="Helvetica,sans-Serif" font-size="10.00">Cpl::Dm::ModelDatabaseApi</text>
</a>
</g>
</g>
<!-- Node8&#45;&gt;Node7 -->
<g id="edge7_Node000007_Node000008" class="edge">
<title>Node8&#45;&gt;Node7</title>
<g id="a_edge7_Node000007_Node000008"><a xlink:title=" ">
<path fill="none" stroke="#63b8ff" d="M403.49,-98C451.57,-98 511.84,-98 556.24,-98"/>
<polygon fill="#63b8ff" stroke="#63b8ff" points="403.69,-94.5 393.69,-98 403.69,-101.5 403.69,-94.5"/>
</a>
</g>
</g>
<!-- Node9 -->
<g id="Node000009" class="node">
<title>Node9</title>
<g id="a_Node000009"><a xlink:href="class_cpl_1_1_container_1_1_s_list.html" target="_top" xlink:title=" ">
<polygon fill="white" stroke="#666666" points="384.5,-70 260.5,-70 260.5,-38 384.5,-38 384.5,-70"/>
<text text-anchor="start" x="268.5" y="-56.5" font-family="Helvetica,sans-Serif" font-size="10.00">Cpl::Container::SList</text>
<text text-anchor="middle" x="322.5" y="-44.5" font-family="Helvetica,sans-Serif" font-size="10.00">&lt; Cpl::Dm::ModelPoint &gt;</text>
</a>
</g>
</g>
<!-- Node9&#45;&gt;Node7 -->
<g id="edge8_Node000007_Node000009" class="edge">
<title>Node9&#45;&gt;Node7</title>
<g id="a_edge8_Node000007_Node000009"><a xlink:title=" ">
<path fill="none" stroke="#9a32cd" stroke-dasharray="5,2" d="M395.95,-62.72C436.36,-67.82 487.56,-74.69 533,-82 543.38,-83.67 554.44,-85.62 565.03,-87.58"/>
<polygon fill="#9a32cd" stroke="#9a32cd" points="396.45,-59.25 386.09,-61.48 395.58,-66.2 396.45,-59.25"/>
</a>
</g>
<text text-anchor="middle" x="471.5" y="-84.5" font-family="Helvetica,sans-Serif" font-size="10.00" fill="grey"> m_list</text>
</g>
<!-- Node10 -->
<g id="Node000010" class="node">
<title>Node10</title>
<g id="a_Node000010"><a xlink:href="class_cpl_1_1_container_1_1_s_list.html" target="_top" xlink:title="This template class implements a singly linked list which maintains the ordering imposed on it by the...">
<polygon fill="white" stroke="#666666" points="106,-70 0,-70 0,-38 106,-38 106,-70"/>
<text text-anchor="start" x="8" y="-56.5" font-family="Helvetica,sans-Serif" font-size="10.00">Cpl::Container::SList</text>
<text text-anchor="middle" x="53" y="-44.5" font-family="Helvetica,sans-Serif" font-size="10.00">&lt; ITEM &gt;</text>
</a>
</g>
</g>
<!-- Node10&#45;&gt;Node9 -->
<g id="edge9_Node000009_Node000010" class="edge">
<title>Node10&#45;&gt;Node9</title>
<g id="a_edge9_Node000009_Node000010"><a xlink:title=" ">
<path fill="none" stroke="orange" stroke-dasharray="5,2" d="M117.7,-54C160.8,-54 217.42,-54 260.04,-54"/>
<polygon fill="orange" stroke="orange" points="117.73,-50.5 107.73,-54 117.73,-57.5 117.73,-50.5"/>
</a>
</g>
<text text-anchor="middle" x="179.5" y="-56.5" font-family="Helvetica,sans-Serif" font-size="10.00" fill="grey"> &lt; Cpl::Dm::ModelPoint &gt;</text>
</g>
<!-- Node11 -->
<g id="Node000011" class="node">
<title>Node11</title>
<g id="a_Node000011"><a xlink:href="class_cpl_1_1_system_1_1_mutex.html" target="_top" xlink:title="This mutex class defines the interface for a mutex that has &quot;recursive&quot; semantics.">
<polygon fill="white" stroke="#666666" points="374,-20 271,-20 271,0 374,0 374,-20"/>
<text text-anchor="middle" x="322.5" y="-6.5" font-family="Helvetica,sans-Serif" font-size="10.00">Cpl::System::Mutex</text>
</a>
</g>
</g>
<!-- Node11&#45;&gt;Node7 -->
<g id="edge10_Node000007_Node000011" class="edge">
<title>Node11&#45;&gt;Node7</title>
<g id="a_edge10_Node000007_Node000011"><a xlink:title=" ">
<path fill="none" stroke="#9a32cd" stroke-dasharray="5,2" d="M385.78,-8.49C430.4,-10.34 489.96,-19.09 533,-49 545.77,-57.87 538.65,-69.55 551,-79 555.51,-82.45 560.63,-85.28 565.97,-87.59"/>
<polygon fill="#9a32cd" stroke="#9a32cd" points="386.1,-5 376,-8.2 385.89,-12 386.1,-5"/>
</a>
</g>
<text text-anchor="middle" x="471.5" y="-51.5" font-family="Helvetica,sans-Serif" font-size="10.00" fill="grey"> m_lock</text>
</g>
<!-- Node12 -->
<g id="Node000012" class="node">
<title>Node12</title>
<g id="a_Node000012"><a xlink:href="struct_storm_1_1_type_1_1_cycle_info___t.html" target="_top" xlink:title="The following typedef is used to store the information about the current on/off cycling of the equipm...">
<polygon fill="white" stroke="#666666" points="944.88,-89 819.38,-89 819.38,-69 944.88,-69 944.88,-89"/>
<text text-anchor="middle" x="882.12" y="-75.5" font-family="Helvetica,sans-Serif" font-size="10.00">Storm::Type::CycleInfo_T</text>
</a>
</g>
</g>
<!-- Node12&#45;&gt;Node1 -->
<g id="edge11_Node000001_Node000012" class="edge">
<title>Node12&#45;&gt;Node1</title>
<g id="a_edge11_Node000001_Node000012"><a xlink:title=" ">
<path fill="none" stroke="#9a32cd" stroke-dasharray="5,2" d="M956.76,-83.65C974.37,-84.91 993.12,-86.39 1010.5,-88 1016.22,-88.53 1022.17,-89.13 1028.12,-89.76"/>
<polygon fill="#9a32cd" stroke="#9a32cd" points="957.1,-80.16 946.87,-82.95 956.6,-87.15 957.1,-80.16"/>
</a>
</g>
<text text-anchor="middle" x="992.88" y="-90.5" font-family="Helvetica,sans-Serif" font-size="10.00" fill="grey"> m_data</text>
</g>
<!-- Node13 -->
<g id="Node000013" class="node">
<title>Node13</title>
<g id="a_Node000013"><a xlink:href="struct_cpl_1_1_system_1_1_elapsed_time_1_1_precision___t.html" target="_top" xlink:title="Data type for time in seconds with a &#39;fractional&#39; millisecond precision.">
<polygon fill="white" stroke="#666666" points="685.12,-70 552.88,-70 552.88,-38 685.12,-38 685.12,-70"/>
<text text-anchor="start" x="560.88" y="-56.5" font-family="Helvetica,sans-Serif" font-size="10.00">Cpl::System::ElapsedTime</text>
<text text-anchor="middle" x="619" y="-44.5" font-family="Helvetica,sans-Serif" font-size="10.00">::Precision_T</text>
</a>
</g>
</g>
<!-- Node13&#45;&gt;Node12 -->
<g id="edge12_Node000012_Node000013" class="edge">
<title>Node13&#45;&gt;Node12</title>
<g id="a_edge12_Node000012_Node000013"><a xlink:title=" ">
<path fill="none" stroke="#9a32cd" stroke-dasharray="5,2" d="M696.85,-61.36C735.81,-65.09 782.5,-69.56 819.14,-73.07"/>
<polygon fill="#9a32cd" stroke="#9a32cd" points="697.35,-57.89 687.06,-60.42 696.68,-64.86 697.35,-57.89"/>
</a>
</g>
<text text-anchor="middle" x="747" y="-83.5" font-family="Helvetica,sans-Serif" font-size="10.00" fill="grey"> beginOffTime</text>
<text text-anchor="middle" x="747" y="-71.5" font-family="Helvetica,sans-Serif" font-size="10.00" fill="grey">beginOnTime</text>
</g>
</g>
</svg>
