<?xml version="1.0" encoding="UTF-8" standalone="no"?>
<!DOCTYPE svg PUBLIC "-//W3C//DTD SVG 1.1//EN"
 "http://www.w3.org/Graphics/SVG/1.1/DTD/svg11.dtd">
<!-- Generated by graphviz version 10.0.1 (20240210.2158)
 -->
<!-- Title: Cpl::Persistent::ClearAllEntriesRequest Pages: 1 -->
<svg width="586pt" height="68pt"
 viewBox="0.00 0.00 585.75 68.00" xmlns="http://www.w3.org/2000/svg" xmlns:xlink="http://www.w3.org/1999/xlink">
<g id="graph0" class="graph" transform="scale(1 1) rotate(0) translate(4 64)">
<title>Cpl::Persistent::ClearAllEntriesRequest</title>
<!-- Node1 -->
<g id="Node000001" class="node">
<title>Node1</title>
<g id="a_Node000001"><a xlink:title="This abstract class define ITC message type and payload for the application to clear/delete all entri...">
<polygon fill="#999999" stroke="#666666" points="120.25,-54 0,-54 0,-22 120.25,-22 120.25,-54"/>
<text text-anchor="start" x="8" y="-40.5" font-family="Helvetica,sans-Serif" font-size="10.00">Cpl::Persistent::ClearAll</text>
<text text-anchor="middle" x="60.12" y="-28.5" font-family="Helvetica,sans-Serif" font-size="10.00">EntriesRequest</text>
</a>
</g>
</g>
<!-- Node2 -->
<g id="Node000002" class="node">
<title>Node2</title>
<g id="a_Node000002"><a xlink:href="class_cpl_1_1_persistent_1_1_indexed_entry_server.html" target="_top" xlink:title=" ">
<polygon fill="white" stroke="#666666" points="577.75,-60 448.5,-60 448.5,-16 577.75,-16 577.75,-60"/>
<text text-anchor="start" x="456.5" y="-46.5" font-family="Helvetica,sans-Serif" font-size="10.00">Cpl::Persistent::Indexed</text>
<text text-anchor="start" x="456.5" y="-34.5" font-family="Helvetica,sans-Serif" font-size="10.00">EntryServer&lt; Cpl::Logging</text>
<text text-anchor="middle" x="513.12" y="-22.5" font-family="Helvetica,sans-Serif" font-size="10.00">::EntryData_T &gt;</text>
</a>
</g>
</g>
<!-- Node1&#45;&gt;Node2 -->
<g id="edge1_Node000001_Node000002" class="edge">
<title>Node1&#45;&gt;Node2</title>
<g id="a_edge1_Node000001_Node000002"><a xlink:title=" ">
<path fill="none" stroke="#63b8ff" d="M131.74,-42.48C206.1,-46.51 326.6,-51.08 430.5,-46 436.19,-45.72 442.09,-45.34 448.01,-44.88"/>
<polygon fill="#63b8ff" stroke="#63b8ff" points="132.35,-39.01 122.17,-41.95 131.96,-46 132.35,-39.01"/>
</a>
</g>
</g>
<!-- Node3 -->
<g id="Node000003" class="node">
<title>Node3</title>
<g id="a_Node000003"><a xlink:href="class_cpl_1_1_persistent_1_1_indexed_entry_server.html" target="_top" xlink:title="This concrete template class implements the ITC messaging (and Model Point monitoring) needed to prov...">
<polygon fill="white" stroke="#666666" points="277.5,-32 157.25,-32 157.25,0 277.5,0 277.5,-32"/>
<text text-anchor="start" x="165.25" y="-18.5" font-family="Helvetica,sans-Serif" font-size="10.00">Cpl::Persistent::Indexed</text>
<text text-anchor="middle" x="217.38" y="-6.5" font-family="Helvetica,sans-Serif" font-size="10.00">EntryServer&lt; ENTRY &gt;</text>
</a>
</g>
</g>
<!-- Node1&#45;&gt;Node3 -->
<g id="edge2_Node000001_Node000003" class="edge">
<title>Node1&#45;&gt;Node3</title>
<g id="a_edge2_Node000001_Node000003"><a xlink:title=" ">
<path fill="none" stroke="#63b8ff" d="M131.99,-27.96C140.33,-26.78 148.79,-25.58 156.95,-24.42"/>
<polygon fill="#63b8ff" stroke="#63b8ff" points="131.61,-24.48 122.2,-29.34 132.6,-31.41 131.61,-24.48"/>
</a>
</g>
</g>
<!-- Node3&#45;&gt;Node2 -->
<g id="edge3_Node000003_Node000002" class="edge">
<title>Node3&#45;&gt;Node2</title>
<g id="a_edge3_Node000003_Node000002"><a xlink:title=" ">
<path fill="none" stroke="orange" stroke-dasharray="5,2" d="M289.16,-21.3C337.59,-24.93 401.28,-29.7 448.19,-33.21"/>
<polygon fill="orange" stroke="orange" points="289.56,-17.82 279.33,-20.57 289.04,-24.8 289.56,-17.82"/>
</a>
</g>
<text text-anchor="middle" x="363" y="-33.5" font-family="Helvetica,sans-Serif" font-size="10.00" fill="grey"> &lt; Cpl::Logging::EntryData_T &gt;</text>
</g>
</g>
</svg>
