<?xml version="1.0" encoding="UTF-8" standalone="no"?>
<!DOCTYPE svg PUBLIC "-//W3C//DTD SVG 1.1//EN"
 "http://www.w3.org/Graphics/SVG/1.1/DTD/svg11.dtd">
<!-- Generated by graphviz version 2.38.0 (20140413.2041)
 -->
<!-- Title: Cpl/Text/format.h Pages: 1 -->
<svg width="511pt" height="252pt"
 viewBox="0.00 0.00 510.50 252.00" xmlns="http://www.w3.org/2000/svg" xmlns:xlink="http://www.w3.org/1999/xlink">
<g id="graph0" class="graph" transform="scale(1 1) rotate(0) translate(4 248)">
<title>Cpl/Text/format.h</title>
<polygon fill="white" stroke="none" points="-4,4 -4,-248 506.5,-248 506.5,4 -4,4"/>
<!-- Node1 -->
<g id="node1" class="node"><title>Node1</title>
<g id="a_node1"><a xlink:title=" ">
<polygon fill="#bfbfbf" stroke="black" points="322.5,-224.5 322.5,-243.5 414.5,-243.5 414.5,-224.5 322.5,-224.5"/>
<text text-anchor="middle" x="368.5" y="-231.5" font-family="Helvetica,sans-Serif" font-size="10.00">Cpl/Text/format.h</text>
</a>
</g>
</g>
<!-- Node2 -->
<g id="node2" class="node"><title>Node2</title>
<g id="a_node2"><a xlink:href="_text_2_string_8h.html" target="_top" xlink:title=" ">
<polygon fill="white" stroke="black" points="192.5,-168.5 192.5,-187.5 282.5,-187.5 282.5,-168.5 192.5,-168.5"/>
<text text-anchor="middle" x="237.5" y="-175.5" font-family="Helvetica,sans-Serif" font-size="10.00">Cpl/Text/String.h</text>
</a>
</g>
</g>
<!-- Node1&#45;&gt;Node2 -->
<g id="edge1" class="edge"><title>Node1&#45;&gt;Node2</title>
<path fill="none" stroke="midnightblue" d="M347.743,-224.444C326.184,-215.557 292.237,-201.563 267.706,-191.451"/>
<polygon fill="midnightblue" stroke="midnightblue" points="268.739,-188.092 258.16,-187.516 266.072,-194.563 268.739,-188.092"/>
</g>
<!-- Node12 -->
<g id="node12" class="node"><title>Node12</title>
<g id="a_node12"><a xlink:href="_elapsed_time_8h.html" target="_top" xlink:title=" ">
<polygon fill="white" stroke="black" points="300.5,-168.5 300.5,-187.5 436.5,-187.5 436.5,-168.5 300.5,-168.5"/>
<text text-anchor="middle" x="368.5" y="-175.5" font-family="Helvetica,sans-Serif" font-size="10.00">Cpl/System/ElapsedTime.h</text>
</a>
</g>
</g>
<!-- Node1&#45;&gt;Node12 -->
<g id="edge12" class="edge"><title>Node1&#45;&gt;Node12</title>
<path fill="none" stroke="midnightblue" d="M368.5,-224.083C368.5,-217.006 368.5,-206.861 368.5,-197.986"/>
<polygon fill="midnightblue" stroke="midnightblue" points="372,-197.751 368.5,-187.751 365,-197.751 372,-197.751"/>
</g>
<!-- Node13 -->
<g id="node13" class="node"><title>Node13</title>
<g id="a_node13"><a xlink:title=" ">
<polygon fill="white" stroke="#bfbfbf" points="454.5,-168.5 454.5,-187.5 502.5,-187.5 502.5,-168.5 454.5,-168.5"/>
<text text-anchor="middle" x="478.5" y="-175.5" font-family="Helvetica,sans-Serif" font-size="10.00">stdlib.h</text>
</a>
</g>
</g>
<!-- Node1&#45;&gt;Node13 -->
<g id="edge14" class="edge"><title>Node1&#45;&gt;Node13</title>
<path fill="none" stroke="midnightblue" d="M386.173,-224.324C403.894,-215.625 431.403,-202.12 451.788,-192.113"/>
<polygon fill="midnightblue" stroke="midnightblue" points="453.436,-195.203 460.87,-187.655 450.351,-188.919 453.436,-195.203"/>
</g>
<!-- Node3 -->
<g id="node3" class="node"><title>Node3</title>
<g id="a_node3"><a xlink:title=" ">
<polygon fill="white" stroke="#bfbfbf" points="0,-56.5 0,-75.5 77,-75.5 77,-56.5 0,-56.5"/>
<text text-anchor="middle" x="38.5" y="-63.5" font-family="Helvetica,sans-Serif" font-size="10.00">colony_map.h</text>
</a>
</g>
</g>
<!-- Node2&#45;&gt;Node3 -->
<g id="edge2" class="edge"><title>Node2&#45;&gt;Node3</title>
<path fill="none" stroke="midnightblue" d="M192.209,-171.495C160.06,-165.803 117.166,-154.43 85.5,-132 68.3265,-119.836 55.05,-99.3813 47.0543,-84.6639"/>
<polygon fill="midnightblue" stroke="midnightblue" points="50.0622,-82.8595 42.3795,-75.5638 43.8357,-86.0581 50.0622,-82.8595"/>
</g>
<!-- Node4 -->
<g id="node4" class="node"><title>Node4</title>
<g id="a_node4"><a xlink:href="_key_8h.html" target="_top" xlink:title=" ">
<polygon fill="white" stroke="black" points="94.5,-112.5 94.5,-131.5 198.5,-131.5 198.5,-112.5 94.5,-112.5"/>
<text text-anchor="middle" x="146.5" y="-119.5" font-family="Helvetica,sans-Serif" font-size="10.00">Cpl/Container/Key.h</text>
</a>
</g>
</g>
<!-- Node2&#45;&gt;Node4 -->
<g id="edge3" class="edge"><title>Node2&#45;&gt;Node4</title>
<path fill="none" stroke="midnightblue" d="M222.879,-168.324C208.551,-159.822 186.487,-146.729 169.751,-136.797"/>
<polygon fill="midnightblue" stroke="midnightblue" points="171.47,-133.748 161.084,-131.655 167.898,-139.768 171.47,-133.748"/>
</g>
<!-- Node10 -->
<g id="node10" class="node"><title>Node10</title>
<g id="a_node10"><a xlink:title=" ">
<polygon fill="white" stroke="#bfbfbf" points="216.5,-112.5 216.5,-131.5 268.5,-131.5 268.5,-112.5 216.5,-112.5"/>
<text text-anchor="middle" x="242.5" y="-119.5" font-family="Helvetica,sans-Serif" font-size="10.00">stdarg.h</text>
</a>
</g>
</g>
<!-- Node2&#45;&gt;Node10 -->
<g id="edge10" class="edge"><title>Node2&#45;&gt;Node10</title>
<path fill="none" stroke="midnightblue" d="M238.326,-168.083C238.981,-161.006 239.92,-150.861 240.742,-141.986"/>
<polygon fill="midnightblue" stroke="midnightblue" points="244.253,-142.031 241.69,-131.751 237.283,-141.386 244.253,-142.031"/>
</g>
<!-- Node11 -->
<g id="node11" class="node"><title>Node11</title>
<g id="a_node11"><a xlink:title=" ">
<polygon fill="white" stroke="#bfbfbf" points="286.5,-112.5 286.5,-131.5 340.5,-131.5 340.5,-112.5 286.5,-112.5"/>
<text text-anchor="middle" x="313.5" y="-119.5" font-family="Helvetica,sans-Serif" font-size="10.00">iostream</text>
</a>
</g>
</g>
<!-- Node2&#45;&gt;Node11 -->
<g id="edge11" class="edge"><title>Node2&#45;&gt;Node11</title>
<path fill="none" stroke="midnightblue" d="M249.711,-168.324C261.276,-160.107 278.875,-147.602 292.661,-137.807"/>
<polygon fill="midnightblue" stroke="midnightblue" points="294.943,-140.479 301.067,-131.834 290.888,-134.773 294.943,-140.479"/>
</g>
<!-- Node4&#45;&gt;Node3 -->
<g id="edge9" class="edge"><title>Node4&#45;&gt;Node3</title>
<path fill="none" stroke="midnightblue" d="M129.148,-112.324C111.828,-103.664 84.9847,-90.2424 64.9981,-80.249"/>
<polygon fill="midnightblue" stroke="midnightblue" points="66.3186,-76.9962 55.809,-75.6545 63.188,-83.2572 66.3186,-76.9962"/>
</g>
<!-- Node5 -->
<g id="node5" class="node"><title>Node5</title>
<g id="a_node5"><a xlink:href="_fatal_error_8h.html" target="_top" xlink:title=" ">
<polygon fill="white" stroke="black" points="95.5,-56.5 95.5,-75.5 217.5,-75.5 217.5,-56.5 95.5,-56.5"/>
<text text-anchor="middle" x="156.5" y="-63.5" font-family="Helvetica,sans-Serif" font-size="10.00">Cpl/System/FatalError.h</text>
</a>
</g>
</g>
<!-- Node4&#45;&gt;Node5 -->
<g id="edge4" class="edge"><title>Node4&#45;&gt;Node5</title>
<path fill="none" stroke="midnightblue" d="M148.151,-112.083C149.476,-104.927 151.382,-94.6353 153.039,-85.6911"/>
<polygon fill="midnightblue" stroke="midnightblue" points="156.5,-86.2212 154.879,-75.7511 149.617,-84.9466 156.5,-86.2212"/>
</g>
<!-- Node8 -->
<g id="node8" class="node"><title>Node8</title>
<g id="a_node8"><a xlink:title=" ">
<polygon fill="white" stroke="#bfbfbf" points="323,-56.5 323,-75.5 372,-75.5 372,-56.5 323,-56.5"/>
<text text-anchor="middle" x="347.5" y="-63.5" font-family="Helvetica,sans-Serif" font-size="10.00">stdint.h</text>
</a>
</g>
</g>
<!-- Node4&#45;&gt;Node8 -->
<g id="edge7" class="edge"><title>Node4&#45;&gt;Node8</title>
<path fill="none" stroke="midnightblue" d="M178.349,-112.444C214.977,-102.603 274.911,-86.5016 312.728,-76.3418"/>
<polygon fill="midnightblue" stroke="midnightblue" points="314.021,-79.6186 322.77,-73.6439 312.204,-72.8584 314.021,-79.6186"/>
</g>
<!-- Node9 -->
<g id="node9" class="node"><title>Node9</title>
<g id="a_node9"><a xlink:title=" ">
<polygon fill="white" stroke="#bfbfbf" points="236,-56.5 236,-75.5 285,-75.5 285,-56.5 236,-56.5"/>
<text text-anchor="middle" x="260.5" y="-63.5" font-family="Helvetica,sans-Serif" font-size="10.00">string.h</text>
</a>
</g>
</g>
<!-- Node4&#45;&gt;Node9 -->
<g id="edge8" class="edge"><title>Node4&#45;&gt;Node9</title>
<path fill="none" stroke="midnightblue" d="M164.564,-112.444C183.075,-103.675 212.081,-89.9355 233.355,-79.8579"/>
<polygon fill="midnightblue" stroke="midnightblue" points="234.982,-82.9604 242.521,-75.5164 231.985,-76.6343 234.982,-82.9604"/>
</g>
<!-- Node6 -->
<g id="node6" class="node"><title>Node6</title>
<g id="a_node6"><a xlink:title=" ">
<polygon fill="white" stroke="#bfbfbf" points="86.5,-0.5 86.5,-19.5 138.5,-19.5 138.5,-0.5 86.5,-0.5"/>
<text text-anchor="middle" x="112.5" y="-7.5" font-family="Helvetica,sans-Serif" font-size="10.00">stddef.h</text>
</a>
</g>
</g>
<!-- Node5&#45;&gt;Node6 -->
<g id="edge5" class="edge"><title>Node5&#45;&gt;Node6</title>
<path fill="none" stroke="midnightblue" d="M149.234,-56.083C142.955,-48.3768 133.712,-37.0333 126.069,-27.6531"/>
<polygon fill="midnightblue" stroke="midnightblue" points="128.661,-25.2926 119.631,-19.7511 123.234,-29.7143 128.661,-25.2926"/>
</g>
<!-- Node7 -->
<g id="node7" class="node"><title>Node7</title>
<g id="a_node7"><a xlink:title=" ">
<polygon fill="white" stroke="#bfbfbf" points="157,-0.5 157,-19.5 242,-19.5 242,-0.5 157,-0.5"/>
<text text-anchor="middle" x="199.5" y="-7.5" font-family="Helvetica,sans-Serif" font-size="10.00">colony_config.h</text>
</a>
</g>
</g>
<!-- Node5&#45;&gt;Node7 -->
<g id="edge6" class="edge"><title>Node5&#45;&gt;Node7</title>
<path fill="none" stroke="midnightblue" d="M163.601,-56.083C169.737,-48.3768 178.77,-37.0333 186.239,-27.6531"/>
<polygon fill="midnightblue" stroke="midnightblue" points="189.04,-29.7542 192.532,-19.7511 183.564,-25.3936 189.04,-29.7542"/>
</g>
<!-- Node12&#45;&gt;Node8 -->
<g id="edge13" class="edge"><title>Node12&#45;&gt;Node8</title>
<path fill="none" stroke="midnightblue" d="M366.852,-168.368C363.463,-150.617 355.645,-109.666 351.05,-85.5974"/>
<polygon fill="midnightblue" stroke="midnightblue" points="354.453,-84.7577 349.14,-75.5914 347.578,-86.0704 354.453,-84.7577"/>
</g>
</g>
</svg>
