<?xml version="1.0" encoding="UTF-8" standalone="no"?>
<!DOCTYPE svg PUBLIC "-//W3C//DTD SVG 1.1//EN"
 "http://www.w3.org/Graphics/SVG/1.1/DTD/svg11.dtd">
<!-- Generated by graphviz version 2.38.0 (20140413.2041)
 -->
<!-- Title: Cpl/Text/format.h Pages: 1 -->
<svg width="483pt" height="252pt"
 viewBox="0.00 0.00 482.50 252.00" xmlns="http://www.w3.org/2000/svg" xmlns:xlink="http://www.w3.org/1999/xlink">
<g id="graph0" class="graph" transform="scale(1 1) rotate(0) translate(4 248)">
<title>Cpl/Text/format.h</title>
<polygon fill="white" stroke="none" points="-4,4 -4,-248 478.5,-248 478.5,4 -4,4"/>
<!-- Node1 -->
<g id="node1" class="node"><title>Node1</title>
<g id="a_node1"><a xlink:title="This file contains some general purpose string formatting functions.">
<polygon fill="#bfbfbf" stroke="black" points="294.5,-224.5 294.5,-243.5 386.5,-243.5 386.5,-224.5 294.5,-224.5"/>
<text text-anchor="middle" x="340.5" y="-231.5" font-family="Helvetica,sans-Serif" font-size="10.00">Cpl/Text/format.h</text>
</a>
</g>
</g>
<!-- Node2 -->
<g id="node2" class="node"><title>Node2</title>
<g id="a_node2"><a xlink:href="_string_8h.html" target="_top" xlink:title=" ">
<polygon fill="white" stroke="black" points="118.5,-168.5 118.5,-187.5 208.5,-187.5 208.5,-168.5 118.5,-168.5"/>
<text text-anchor="middle" x="163.5" y="-175.5" font-family="Helvetica,sans-Serif" font-size="10.00">Cpl/Text/String.h</text>
</a>
</g>
</g>
<!-- Node1&#45;&gt;Node2 -->
<g id="edge1" class="edge"><title>Node1&#45;&gt;Node2</title>
<path fill="none" stroke="midnightblue" d="M312.454,-224.444C282.418,-215.28 234.587,-200.688 201.257,-190.519"/>
<polygon fill="midnightblue" stroke="midnightblue" points="202.001,-187.087 191.415,-187.516 199.958,-193.782 202.001,-187.087"/>
</g>
<!-- Node11 -->
<g id="node11" class="node"><title>Node11</title>
<g id="a_node11"><a xlink:href="_elapsed_time_8h.html" target="_top" xlink:title=" ">
<polygon fill="white" stroke="black" points="272.5,-168.5 272.5,-187.5 408.5,-187.5 408.5,-168.5 272.5,-168.5"/>
<text text-anchor="middle" x="340.5" y="-175.5" font-family="Helvetica,sans-Serif" font-size="10.00">Cpl/System/ElapsedTime.h</text>
</a>
</g>
</g>
<!-- Node1&#45;&gt;Node11 -->
<g id="edge12" class="edge"><title>Node1&#45;&gt;Node11</title>
<path fill="none" stroke="midnightblue" d="M340.5,-224.083C340.5,-217.006 340.5,-206.861 340.5,-197.986"/>
<polygon fill="midnightblue" stroke="midnightblue" points="344,-197.751 340.5,-187.751 337,-197.751 344,-197.751"/>
</g>
<!-- Node13 -->
<g id="node13" class="node"><title>Node13</title>
<g id="a_node13"><a xlink:title=" ">
<polygon fill="white" stroke="#bfbfbf" points="426.5,-168.5 426.5,-187.5 474.5,-187.5 474.5,-168.5 426.5,-168.5"/>
<text text-anchor="middle" x="450.5" y="-175.5" font-family="Helvetica,sans-Serif" font-size="10.00">stdlib.h</text>
</a>
</g>
</g>
<!-- Node1&#45;&gt;Node13 -->
<g id="edge15" class="edge"><title>Node1&#45;&gt;Node13</title>
<path fill="none" stroke="midnightblue" d="M358.173,-224.324C375.894,-215.625 403.403,-202.12 423.788,-192.113"/>
<polygon fill="midnightblue" stroke="midnightblue" points="425.436,-195.203 432.87,-187.655 422.351,-188.919 425.436,-195.203"/>
</g>
<!-- Node3 -->
<g id="node3" class="node"><title>Node3</title>
<g id="a_node3"><a xlink:title=" ">
<polygon fill="white" stroke="#bfbfbf" points="0,-56.5 0,-75.5 77,-75.5 77,-56.5 0,-56.5"/>
<text text-anchor="middle" x="38.5" y="-63.5" font-family="Helvetica,sans-Serif" font-size="10.00">colony_map.h</text>
</a>
</g>
</g>
<!-- Node2&#45;&gt;Node3 -->
<g id="edge2" class="edge"><title>Node2&#45;&gt;Node3</title>
<path fill="none" stroke="midnightblue" d="M121.946,-168.458C99.9738,-161.93 74.1732,-150.749 57.5,-132 46.1569,-119.244 41.5687,-100.05 39.722,-85.8233"/>
<polygon fill="midnightblue" stroke="midnightblue" points="43.1896,-85.3172 38.752,-75.6965 36.2215,-85.9847 43.1896,-85.3172"/>
</g>
<!-- Node4 -->
<g id="node4" class="node"><title>Node4</title>
<g id="a_node4"><a xlink:href="_key_8h.html" target="_top" xlink:title=" ">
<polygon fill="white" stroke="black" points="66.5,-112.5 66.5,-131.5 170.5,-131.5 170.5,-112.5 66.5,-112.5"/>
<text text-anchor="middle" x="118.5" y="-119.5" font-family="Helvetica,sans-Serif" font-size="10.00">Cpl/Container/Key.h</text>
</a>
</g>
</g>
<!-- Node2&#45;&gt;Node4 -->
<g id="edge3" class="edge"><title>Node2&#45;&gt;Node4</title>
<path fill="none" stroke="midnightblue" d="M151.155,-168.324C143.185,-160.733 133.406,-149.482 126.413,-140.09"/>
<polygon fill="midnightblue" stroke="midnightblue" points="129.275,-138.074 120.713,-131.834 123.514,-142.052 129.275,-138.074"/>
</g>
<!-- Node9 -->
<g id="node9" class="node"><title>Node9</title>
<g id="a_node9"><a xlink:title=" ">
<polygon fill="white" stroke="#bfbfbf" points="188.5,-112.5 188.5,-131.5 240.5,-131.5 240.5,-112.5 188.5,-112.5"/>
<text text-anchor="middle" x="214.5" y="-119.5" font-family="Helvetica,sans-Serif" font-size="10.00">stdarg.h</text>
</a>
</g>
</g>
<!-- Node2&#45;&gt;Node9 -->
<g id="edge10" class="edge"><title>Node2&#45;&gt;Node9</title>
<path fill="none" stroke="midnightblue" d="M171.922,-168.083C179.348,-160.22 190.352,-148.569 199.312,-139.081"/>
<polygon fill="midnightblue" stroke="midnightblue" points="201.913,-141.424 206.235,-131.751 196.824,-136.618 201.913,-141.424"/>
</g>
<!-- Node10 -->
<g id="node10" class="node"><title>Node10</title>
<g id="a_node10"><a xlink:title=" ">
<polygon fill="white" stroke="#bfbfbf" points="258.5,-112.5 258.5,-131.5 312.5,-131.5 312.5,-112.5 258.5,-112.5"/>
<text text-anchor="middle" x="285.5" y="-119.5" font-family="Helvetica,sans-Serif" font-size="10.00">iostream</text>
</a>
</g>
</g>
<!-- Node2&#45;&gt;Node10 -->
<g id="edge11" class="edge"><title>Node2&#45;&gt;Node10</title>
<path fill="none" stroke="midnightblue" d="M182.831,-168.444C202.82,-159.596 234.243,-145.687 257.064,-135.586"/>
<polygon fill="midnightblue" stroke="midnightblue" points="258.532,-138.764 266.259,-131.516 255.698,-132.363 258.532,-138.764"/>
</g>
<!-- Node4&#45;&gt;Node2 -->
<g id="edge8" class="edge"><title>Node4&#45;&gt;Node2</title>
<path fill="none" stroke="midnightblue" d="M130.924,-131.751C138.863,-139.327 148.579,-150.505 155.546,-159.855"/>
<polygon fill="midnightblue" stroke="midnightblue" points="152.669,-161.849 161.235,-168.083 158.427,-157.867 152.669,-161.849"/>
</g>
<!-- Node4&#45;&gt;Node3 -->
<g id="edge9" class="edge"><title>Node4&#45;&gt;Node3</title>
<path fill="none" stroke="midnightblue" d="M105.647,-112.324C93.2836,-103.979 74.3699,-91.2122 59.7628,-81.3524"/>
<polygon fill="midnightblue" stroke="midnightblue" points="61.5682,-78.3483 51.3215,-75.6545 57.6518,-84.1503 61.5682,-78.3483"/>
</g>
<!-- Node5 -->
<g id="node5" class="node"><title>Node5</title>
<g id="a_node5"><a xlink:href="_fatal_error_8h.html" target="_top" xlink:title=" ">
<polygon fill="white" stroke="black" points="95.5,-56.5 95.5,-75.5 217.5,-75.5 217.5,-56.5 95.5,-56.5"/>
<text text-anchor="middle" x="156.5" y="-63.5" font-family="Helvetica,sans-Serif" font-size="10.00">Cpl/System/FatalError.h</text>
</a>
</g>
</g>
<!-- Node4&#45;&gt;Node5 -->
<g id="edge4" class="edge"><title>Node4&#45;&gt;Node5</title>
<path fill="none" stroke="midnightblue" d="M124.775,-112.083C130.142,-104.455 138.018,-93.2645 144.579,-83.9408"/>
<polygon fill="midnightblue" stroke="midnightblue" points="147.449,-85.9434 150.342,-75.7511 141.725,-81.9149 147.449,-85.9434"/>
</g>
<!-- Node8 -->
<g id="node8" class="node"><title>Node8</title>
<g id="a_node8"><a xlink:title=" ">
<polygon fill="white" stroke="#bfbfbf" points="276,-56.5 276,-75.5 325,-75.5 325,-56.5 276,-56.5"/>
<text text-anchor="middle" x="300.5" y="-63.5" font-family="Helvetica,sans-Serif" font-size="10.00">stdint.h</text>
</a>
</g>
</g>
<!-- Node4&#45;&gt;Node8 -->
<g id="edge7" class="edge"><title>Node4&#45;&gt;Node8</title>
<path fill="none" stroke="midnightblue" d="M147.338,-112.444C179.633,-102.862 231.935,-87.3435 266.275,-77.1548"/>
<polygon fill="midnightblue" stroke="midnightblue" points="267.291,-80.5041 275.882,-74.3042 265.3,-73.7933 267.291,-80.5041"/>
</g>
<!-- Node6 -->
<g id="node6" class="node"><title>Node6</title>
<g id="a_node6"><a xlink:title=" ">
<polygon fill="white" stroke="#bfbfbf" points="86.5,-0.5 86.5,-19.5 138.5,-19.5 138.5,-0.5 86.5,-0.5"/>
<text text-anchor="middle" x="112.5" y="-7.5" font-family="Helvetica,sans-Serif" font-size="10.00">stddef.h</text>
</a>
</g>
</g>
<!-- Node5&#45;&gt;Node6 -->
<g id="edge5" class="edge"><title>Node5&#45;&gt;Node6</title>
<path fill="none" stroke="midnightblue" d="M149.234,-56.083C142.955,-48.3768 133.712,-37.0333 126.069,-27.6531"/>
<polygon fill="midnightblue" stroke="midnightblue" points="128.661,-25.2926 119.631,-19.7511 123.234,-29.7143 128.661,-25.2926"/>
</g>
<!-- Node7 -->
<g id="node7" class="node"><title>Node7</title>
<g id="a_node7"><a xlink:title=" ">
<polygon fill="white" stroke="#bfbfbf" points="157,-0.5 157,-19.5 242,-19.5 242,-0.5 157,-0.5"/>
<text text-anchor="middle" x="199.5" y="-7.5" font-family="Helvetica,sans-Serif" font-size="10.00">colony_config.h</text>
</a>
</g>
</g>
<!-- Node5&#45;&gt;Node7 -->
<g id="edge6" class="edge"><title>Node5&#45;&gt;Node7</title>
<path fill="none" stroke="midnightblue" d="M163.601,-56.083C169.737,-48.3768 178.77,-37.0333 186.239,-27.6531"/>
<polygon fill="midnightblue" stroke="midnightblue" points="189.04,-29.7542 192.532,-19.7511 183.564,-25.3936 189.04,-29.7542"/>
</g>
<!-- Node11&#45;&gt;Node8 -->
<g id="edge13" class="edge"><title>Node11&#45;&gt;Node8</title>
<path fill="none" stroke="midnightblue" d="M338.444,-168.451C335.326,-155.893 328.965,-131.802 321.5,-112 318.079,-102.924 313.609,-93.1351 309.673,-85.012"/>
<polygon fill="midnightblue" stroke="midnightblue" points="312.676,-83.1907 305.092,-75.793 306.407,-86.3058 312.676,-83.1907"/>
</g>
<!-- Node12 -->
<g id="node12" class="node"><title>Node12</title>
<g id="a_node12"><a xlink:title=" ">
<polygon fill="white" stroke="#bfbfbf" points="368.5,-112.5 368.5,-131.5 428.5,-131.5 428.5,-112.5 368.5,-112.5"/>
<text text-anchor="middle" x="398.5" y="-119.5" font-family="Helvetica,sans-Serif" font-size="10.00">memory.h</text>
</a>
</g>
</g>
<!-- Node11&#45;&gt;Node12 -->
<g id="edge14" class="edge"><title>Node11&#45;&gt;Node12</title>
<path fill="none" stroke="midnightblue" d="M349.819,-168.324C358.393,-160.341 371.312,-148.313 381.688,-138.653"/>
<polygon fill="midnightblue" stroke="midnightblue" points="384.078,-141.21 389.012,-131.834 379.308,-136.086 384.078,-141.21"/>
</g>
</g>
</svg>
