<?xml version="1.0" encoding="UTF-8" standalone="no"?>
<!DOCTYPE svg PUBLIC "-//W3C//DTD SVG 1.1//EN"
 "http://www.w3.org/Graphics/SVG/1.1/DTD/svg11.dtd">
<!-- Generated by graphviz version 10.0.1 (20240210.2158)
 -->
<!-- Title: Graphical Class Hierarchy Pages: 1 -->
<svg width="695pt" height="106pt"
 viewBox="0.00 0.00 694.50 106.00" xmlns="http://www.w3.org/2000/svg" xmlns:xlink="http://www.w3.org/1999/xlink">
<g id="graph0" class="graph" transform="scale(1 1) rotate(0) translate(4 102)">
<title>Graphical Class Hierarchy</title>
<!-- Node0 -->
<g id="Node000000" class="node">
<title>Node0</title>
<g id="a_Node000000"><a xlink:href="class_storm_1_1_component_1_1_equipment_1_1_stage_1_1_fsm.html" target="_top" xlink:title="Here is the graph that shows the state machine this class implements.">
<polygon fill="white" stroke="#666666" points="81.62,-98 46.12,-98 46.12,-78 81.62,-78 81.62,-98"/>
<text text-anchor="middle" x="63.88" y="-84.5" font-family="Helvetica,sans-Serif" font-size="10.00">Fsm</text>
</a>
</g>
</g>
<!-- Node1 -->
<g id="Node000001" class="node">
<title>Node1</title>
<g id="a_Node000001"><a xlink:href="class_storm_1_1_component_1_1_equipment_1_1_stage_1_1_fsm_event_queue__.html" target="_top" xlink:title="Event Queue for FSM events.">
<polygon fill="white" stroke="#666666" points="314,-82 163.75,-82 163.75,-50 314,-50 314,-82"/>
<text text-anchor="start" x="171.75" y="-68.5" font-family="Helvetica,sans-Serif" font-size="10.00">Storm::Component::Equipment</text>
<text text-anchor="middle" x="238.88" y="-56.5" font-family="Helvetica,sans-Serif" font-size="10.00">::Stage::FsmEventQueue_</text>
</a>
</g>
</g>
<!-- Node0&#45;&gt;Node1 -->
<g id="edge332_Node000000_Node000001" class="edge">
<title>Node0&#45;&gt;Node1</title>
<g id="a_edge332_Node000000_Node000001"><a xlink:title=" ">
<path fill="none" stroke="#63b8ff" d="M93.32,-84.38C112.5,-81.94 138.75,-78.6 163.63,-75.44"/>
<polygon fill="#63b8ff" stroke="#63b8ff" points="93.08,-80.89 83.6,-85.62 93.96,-87.83 93.08,-80.89"/>
</a>
</g>
</g>
<!-- Node2 -->
<g id="Node000002" class="node">
<title>Node2</title>
<g id="a_Node000002"><a xlink:href="class_storm_1_1_component_1_1_equipment_1_1_stage_1_1_basic.html" target="_top" xlink:title="This partially concrete class implements the Storm::Component::Equipment::Stage interface for a singl...">
<polygon fill="white" stroke="#666666" points="500.25,-57 350,-57 350,-25 500.25,-25 500.25,-57"/>
<text text-anchor="start" x="358" y="-43.5" font-family="Helvetica,sans-Serif" font-size="10.00">Storm::Component::Equipment</text>
<text text-anchor="middle" x="425.12" y="-31.5" font-family="Helvetica,sans-Serif" font-size="10.00">::Stage::Basic</text>
</a>
</g>
</g>
<!-- Node1&#45;&gt;Node2 -->
<g id="edge333_Node000001_Node000002" class="edge">
<title>Node1&#45;&gt;Node2</title>
<g id="a_edge333_Node000001_Node000002"><a xlink:title=" ">
<path fill="none" stroke="#63b8ff" d="M325.61,-54.37C333.67,-53.27 341.79,-52.17 349.74,-51.09"/>
<polygon fill="#63b8ff" stroke="#63b8ff" points="325.22,-50.89 315.79,-55.7 326.17,-57.82 325.22,-50.89"/>
</a>
</g>
</g>
<!-- Node3 -->
<g id="Node000003" class="node">
<title>Node3</title>
<g id="a_Node000003"><a xlink:href="class_storm_1_1_component_1_1_equipment_1_1_stage_1_1_basic_cooling.html" target="_top" xlink:title="This concrete class implements the Storm::Component::Equipment::Stage interface for a single compress...">
<polygon fill="white" stroke="#666666" points="686.5,-82 536.25,-82 536.25,-50 686.5,-50 686.5,-82"/>
<text text-anchor="start" x="544.25" y="-68.5" font-family="Helvetica,sans-Serif" font-size="10.00">Storm::Component::Equipment</text>
<text text-anchor="middle" x="611.38" y="-56.5" font-family="Helvetica,sans-Serif" font-size="10.00">::Stage::BasicCooling</text>
</a>
</g>
</g>
<!-- Node2&#45;&gt;Node3 -->
<g id="edge334_Node000002_Node000003" class="edge">
<title>Node2&#45;&gt;Node3</title>
<g id="a_edge334_Node000002_Node000003"><a xlink:title=" ">
<path fill="none" stroke="#63b8ff" d="M511.86,-52.63C519.92,-53.73 528.04,-54.83 535.99,-55.91"/>
<polygon fill="#63b8ff" stroke="#63b8ff" points="512.42,-49.18 502.04,-51.3 511.47,-56.11 512.42,-49.18"/>
</a>
</g>
</g>
<!-- Node4 -->
<g id="Node000004" class="node">
<title>Node4</title>
<g id="a_Node000004"><a xlink:href="class_storm_1_1_component_1_1_equipment_1_1_stage_1_1_basic_indoor_heat.html" target="_top" xlink:title="This concrete class implements the Storm::Component::Equipment::Stage interface for a single compress...">
<polygon fill="white" stroke="#666666" points="686.5,-32 536.25,-32 536.25,0 686.5,0 686.5,-32"/>
<text text-anchor="start" x="544.25" y="-18.5" font-family="Helvetica,sans-Serif" font-size="10.00">Storm::Component::Equipment</text>
<text text-anchor="middle" x="611.38" y="-6.5" font-family="Helvetica,sans-Serif" font-size="10.00">::Stage::BasicIndoorHeat</text>
</a>
</g>
</g>
<!-- Node2&#45;&gt;Node4 -->
<g id="edge335_Node000002_Node000004" class="edge">
<title>Node2&#45;&gt;Node4</title>
<g id="a_edge335_Node000002_Node000004"><a xlink:title=" ">
<path fill="none" stroke="#63b8ff" d="M511.86,-29.37C519.92,-28.27 528.04,-27.17 535.99,-26.09"/>
<polygon fill="#63b8ff" stroke="#63b8ff" points="511.47,-25.89 502.04,-30.7 512.42,-32.82 511.47,-25.89"/>
</a>
</g>
</g>
<!-- Node6 -->
<g id="Node000006" class="node">
<title>Node6</title>
<g id="a_Node000006"><a xlink:href="class_cpl_1_1_container_1_1_ring_buffer.html" target="_top" xlink:title=" ">
<polygon fill="white" stroke="#666666" points="127.75,-60 0,-60 0,-28 127.75,-28 127.75,-60"/>
<text text-anchor="start" x="8" y="-46.5" font-family="Helvetica,sans-Serif" font-size="10.00">Cpl::Container::RingBuffer</text>
<text text-anchor="middle" x="63.88" y="-34.5" font-family="Helvetica,sans-Serif" font-size="10.00">&lt; FSM_EVENT_T &gt;</text>
</a>
</g>
</g>
<!-- Node6&#45;&gt;Node1 -->
<g id="edge336_Node000006_Node000001" class="edge">
<title>Node6&#45;&gt;Node1</title>
<g id="a_edge336_Node000006_Node000001"><a xlink:title=" ">
<path fill="none" stroke="#63b8ff" d="M139.12,-53.44C147.2,-54.47 155.43,-55.52 163.51,-56.54"/>
<polygon fill="#63b8ff" stroke="#63b8ff" points="139.68,-49.99 129.32,-52.2 138.8,-56.93 139.68,-49.99"/>
</a>
</g>
</g>
<!-- Node5 -->
<g id="Node000005" class="node">
<title>Node5</title>
<g id="a_Node000005"><a xlink:href="class_storm_1_1_component_1_1_equipment_1_1_stage_api.html" target="_top" xlink:title="This abstract class define &#39;equipments&#39; interface to a &quot;stage&quot;.">
<polygon fill="white" stroke="#666666" points="314,-32 163.75,-32 163.75,0 314,0 314,-32"/>
<text text-anchor="start" x="171.75" y="-18.5" font-family="Helvetica,sans-Serif" font-size="10.00">Storm::Component::Equipment</text>
<text text-anchor="middle" x="238.88" y="-6.5" font-family="Helvetica,sans-Serif" font-size="10.00">::StageApi</text>
</a>
</g>
</g>
<!-- Node5&#45;&gt;Node2 -->
<g id="edge337_Node000005_Node000002" class="edge">
<title>Node5&#45;&gt;Node2</title>
<g id="a_edge337_Node000005_Node000002"><a xlink:title=" ">
<path fill="none" stroke="#63b8ff" d="M325.61,-27.63C333.67,-28.73 341.79,-29.83 349.74,-30.91"/>
<polygon fill="#63b8ff" stroke="#63b8ff" points="326.17,-24.18 315.79,-26.3 325.22,-31.11 326.17,-24.18"/>
</a>
</g>
</g>
</g>
</svg>
