<?xml version="1.0" encoding="UTF-8" standalone="no"?>
<!DOCTYPE svg PUBLIC "-//W3C//DTD SVG 1.1//EN"
 "http://www.w3.org/Graphics/SVG/1.1/DTD/svg11.dtd">
<!-- Generated by graphviz version 2.38.0 (20140413.2041)
 -->
<!-- Title: Graphical Class Hierarchy Pages: 1 -->
<svg width="407pt" height="39pt"
 viewBox="0.00 0.00 407.00 39.00" xmlns="http://www.w3.org/2000/svg" xmlns:xlink="http://www.w3.org/1999/xlink">
<g id="graph0" class="graph" transform="scale(1 1) rotate(0) translate(4 35)">
<title>Graphical Class Hierarchy</title>
<polygon fill="white" stroke="none" points="-4,4 -4,-35 403,-35 403,4 -4,4"/>
<!-- Node1 -->
<g id="node1" class="node"><title>Node1</title>
<g id="a_node1"><a xlink:href="class_cpl_1_1_itc_1_1_atomic_sync.html" target="_top" xlink:title="This concrete class provides the ITC wrapper implementation for calling the &quot;Atomic Api&quot; synchronousl...">
<polygon fill="white" stroke="black" points="135,-0.5 135,-30.5 242,-30.5 242,-0.5 135,-0.5"/>
<text text-anchor="start" x="143" y="-18.5" font-family="Helvetica,sans-Serif" font-size="10.00">Cpl::Itc::AtomicSync</text>
<text text-anchor="middle" x="188.5" y="-7.5" font-family="Helvetica,sans-Serif" font-size="10.00">&lt; ACCESS_API &gt;</text>
</a>
</g>
</g>
<!-- Node0 -->
<g id="node2" class="node"><title>Node0</title>
<g id="a_node2"><a xlink:href="class_cpl_1_1_itc_1_1_atomic_request.html" target="_top" xlink:title="This concrete class define the &#39;Atomic&#39; Message request that allows a client to invoke multiple opera...">
<polygon fill="white" stroke="black" points="278,-0.5 278,-30.5 399,-30.5 399,-0.5 278,-0.5"/>
<text text-anchor="start" x="286" y="-18.5" font-family="Helvetica,sans-Serif" font-size="10.00">Cpl::Itc::AtomicRequest</text>
<text text-anchor="middle" x="338.5" y="-7.5" font-family="Helvetica,sans-Serif" font-size="10.00">&lt; ACCESS_API &gt;</text>
</a>
</g>
</g>
<!-- Node1&#45;&gt;Node0 -->
<g id="edge1" class="edge"><title>Node1&#45;&gt;Node0</title>
<path fill="none" stroke="midnightblue" d="M252.271,-8.81955C260.719,-8.71417 269.367,-8.72854 277.761,-8.86267"/>
<polygon fill="midnightblue" stroke="midnightblue" points="252.03,-5.32332 242.096,-9.00749 252.159,-12.3221 252.03,-5.32332"/>
</g>
<!-- Node0&#45;&gt;Node1 -->
<g id="edge2" class="edge"><title>Node0&#45;&gt;Node1</title>
<path fill="none" stroke="midnightblue" d="M267.708,-22.2403C259.091,-22.2801 250.397,-22.1975 242.096,-21.9925"/>
<polygon fill="midnightblue" stroke="midnightblue" points="267.797,-25.7397 277.761,-22.1373 267.726,-18.74 267.797,-25.7397"/>
</g>
<!-- Node15 -->
<g id="node3" class="node"><title>Node15</title>
<g id="a_node3"><a xlink:href="class_cpl_1_1_itc_1_1_atomic_api.html" target="_top" xlink:title="This abstract class provides an interface to allow a client to call the server synchronously to have ...">
<polygon fill="white" stroke="black" points="0,-0.5 0,-30.5 99,-30.5 99,-0.5 0,-0.5"/>
<text text-anchor="start" x="8" y="-18.5" font-family="Helvetica,sans-Serif" font-size="10.00">Cpl::Itc::AtomicApi</text>
<text text-anchor="middle" x="49.5" y="-7.5" font-family="Helvetica,sans-Serif" font-size="10.00">&lt; ACCESS_API &gt;</text>
</a>
</g>
</g>
<!-- Node15&#45;&gt;Node1 -->
<g id="edge3" class="edge"><title>Node15&#45;&gt;Node1</title>
<path fill="none" stroke="midnightblue" d="M109.361,-15.5C117.813,-15.5 126.464,-15.5 134.786,-15.5"/>
<polygon fill="midnightblue" stroke="midnightblue" points="109.187,-12.0001 99.1868,-15.5 109.187,-19.0001 109.187,-12.0001"/>
</g>
</g>
</svg>
