<?xml version="1.0" encoding="UTF-8" standalone="no"?>
<!DOCTYPE svg PUBLIC "-//W3C//DTD SVG 1.1//EN"
 "http://www.w3.org/Graphics/SVG/1.1/DTD/svg11.dtd">
<!-- Generated by graphviz version 2.38.0 (20140413.2041)
 -->
<!-- Title: Graphical Class Hierarchy Pages: 1 -->
<svg width="313pt" height="66pt"
 viewBox="0.00 0.00 313.00 66.00" xmlns="http://www.w3.org/2000/svg" xmlns:xlink="http://www.w3.org/1999/xlink">
<g id="graph0" class="graph" transform="scale(1 1) rotate(0) translate(4 62)">
<title>Graphical Class Hierarchy</title>
<polygon fill="white" stroke="none" points="-4,4 -4,-62 309,-62 309,4 -4,4"/>
<!-- Node0 -->
<g id="node1" class="node"><title>Node0</title>
<g id="a_node1"><a xlink:href="class_cpl_1_1_checksum_1_1_api16.html" target="_top" xlink:title="This class provides an interface for calculate a 16 bit wide Checksum.">
<polygon fill="white" stroke="black" points="0,-19.5 0,-38.5 114,-38.5 114,-19.5 0,-19.5"/>
<text text-anchor="middle" x="57" y="-26.5" font-family="Helvetica,sans-Serif" font-size="10.00">Cpl::Checksum::Api16</text>
</a>
</g>
</g>
<!-- Node1 -->
<g id="node2" class="node"><title>Node1</title>
<g id="a_node2"><a xlink:href="class_cpl_1_1_checksum_1_1_crc16_ccitt_fast.html" target="_top" xlink:title="This class provides an implementation for the 16 Bit CRC&#45;CCITT standard.">
<polygon fill="white" stroke="black" points="150,-38.5 150,-57.5 305,-57.5 305,-38.5 150,-38.5"/>
<text text-anchor="middle" x="227.5" y="-45.5" font-family="Helvetica,sans-Serif" font-size="10.00">Cpl::Checksum::Crc16CcittFast</text>
</a>
</g>
</g>
<!-- Node0&#45;&gt;Node1 -->
<g id="edge1" class="edge"><title>Node0&#45;&gt;Node1</title>
<path fill="none" stroke="midnightblue" d="M124.244,-36.4697C132.676,-37.4205 141.361,-38.3997 149.938,-39.3669"/>
<polygon fill="midnightblue" stroke="midnightblue" points="124.437,-32.9693 114.108,-35.3267 123.653,-39.9253 124.437,-32.9693"/>
</g>
<!-- Node2 -->
<g id="node3" class="node"><title>Node2</title>
<g id="a_node3"><a xlink:href="class_cpl_1_1_checksum_1_1_fletcher16.html" target="_top" xlink:title="This class provides an implementation for the 16 Bit wide Fletcher Checksum.">
<polygon fill="white" stroke="black" points="160,-0.5 160,-19.5 295,-19.5 295,-0.5 160,-0.5"/>
<text text-anchor="middle" x="227.5" y="-7.5" font-family="Helvetica,sans-Serif" font-size="10.00">Cpl::Checksum::Fletcher16</text>
</a>
</g>
</g>
<!-- Node0&#45;&gt;Node2 -->
<g id="edge2" class="edge"><title>Node0&#45;&gt;Node2</title>
<path fill="none" stroke="midnightblue" d="M124.237,-21.5311C135.933,-20.2123 148.115,-18.8387 159.823,-17.5185"/>
<polygon fill="midnightblue" stroke="midnightblue" points="123.653,-18.0747 114.108,-22.6733 124.437,-25.0307 123.653,-18.0747"/>
</g>
</g>
</svg>
