<?xml version="1.0" encoding="UTF-8" standalone="no"?>
<!DOCTYPE svg PUBLIC "-//W3C//DTD SVG 1.1//EN"
 "http://www.w3.org/Graphics/SVG/1.1/DTD/svg11.dtd">
<!-- Generated by graphviz version 2.38.0 (20140413.2041)
 -->
<!-- Title: Graphical Class Hierarchy Pages: 1 -->
<svg width="349pt" height="127pt"
 viewBox="0.00 0.00 349.00 126.50" xmlns="http://www.w3.org/2000/svg" xmlns:xlink="http://www.w3.org/1999/xlink">
<g id="graph0" class="graph" transform="scale(1 1) rotate(0) translate(4 122.5)">
<title>Graphical Class Hierarchy</title>
<polygon fill="white" stroke="none" points="-4,4 -4,-122.5 345,-122.5 345,4 -4,4"/>
<!-- Node0 -->
<g id="node1" class="node"><title>Node0</title>
<g id="a_node1"><a xlink:href="class_storm_1_1_component_1_1_control_1_1_equipment.html" target="_top" xlink:title="This abstract class defines the interface for the Control Component to invoke the control logic/proce...">
<polygon fill="white" stroke="black" points="0,-39 0,-69 135,-69 135,-39 0,-39"/>
<text text-anchor="start" x="8" y="-57" font-family="Helvetica,sans-Serif" font-size="10.00">Storm::Component::Control</text>
<text text-anchor="middle" x="67.5" y="-46" font-family="Helvetica,sans-Serif" font-size="10.00">::Equipment</text>
</a>
</g>
</g>
<!-- Node1 -->
<g id="node2" class="node"><title>Node1</title>
<g id="a_node2"><a xlink:href="class_storm_1_1_component_1_1_equipment_1_1_cooling.html" target="_top" xlink:title="This concrete class provides the business logic for controlling the HVAC system when the system is in...">
<polygon fill="white" stroke="black" points="180.5,-88 180.5,-118 331.5,-118 331.5,-88 180.5,-88"/>
<text text-anchor="start" x="188.5" y="-106" font-family="Helvetica,sans-Serif" font-size="10.00">Storm::Component::Equipment</text>
<text text-anchor="middle" x="256" y="-95" font-family="Helvetica,sans-Serif" font-size="10.00">::Cooling</text>
</a>
</g>
</g>
<!-- Node0&#45;&gt;Node1 -->
<g id="edge1" class="edge"><title>Node0&#45;&gt;Node1</title>
<path fill="none" stroke="midnightblue" d="M135.575,-71.6229C155.979,-76.9837 178.202,-82.8225 197.885,-87.9938"/>
<polygon fill="midnightblue" stroke="midnightblue" points="136.285,-68.1907 125.724,-69.0346 134.506,-74.9609 136.285,-68.1907"/>
</g>
<!-- Node2 -->
<g id="node3" class="node"><title>Node2</title>
<g id="a_node3"><a xlink:href="class_storm_1_1_component_1_1_equipment_1_1_indoor_heating.html" target="_top" xlink:title="This concrete class provides the business logic for controlling the HVAC system when the system is in...">
<polygon fill="white" stroke="black" points="180.5,-39 180.5,-69 331.5,-69 331.5,-39 180.5,-39"/>
<text text-anchor="start" x="188.5" y="-57" font-family="Helvetica,sans-Serif" font-size="10.00">Storm::Component::Equipment</text>
<text text-anchor="middle" x="256" y="-46" font-family="Helvetica,sans-Serif" font-size="10.00">::IndoorHeating</text>
</a>
</g>
</g>
<!-- Node0&#45;&gt;Node2 -->
<g id="edge2" class="edge"><title>Node0&#45;&gt;Node2</title>
<path fill="none" stroke="midnightblue" d="M145.124,-54C156.724,-54 168.678,-54 180.237,-54"/>
<polygon fill="midnightblue" stroke="midnightblue" points="145.041,-50.5001 135.041,-54 145.041,-57.5001 145.041,-50.5001"/>
</g>
<!-- Node3 -->
<g id="node4" class="node"><title>Node3</title>
<g id="a_node4"><a xlink:href="class_storm_1_1_component_1_1_equipment_1_1_off.html" target="_top" xlink:title="This concrete class provides the business logic for controlling the HVAC system when the system is of...">
<polygon fill="white" stroke="black" points="171,-0.5 171,-19.5 341,-19.5 341,-0.5 171,-0.5"/>
<text text-anchor="middle" x="256" y="-7.5" font-family="Helvetica,sans-Serif" font-size="10.00">Storm::Component::Equipment::Off</text>
</a>
</g>
</g>
<!-- Node0&#45;&gt;Node3 -->
<g id="edge3" class="edge"><title>Node0&#45;&gt;Node3</title>
<path fill="none" stroke="midnightblue" d="M141.908,-36.6813C166.687,-30.8352 193.426,-24.5268 214.68,-19.5124"/>
<polygon fill="midnightblue" stroke="midnightblue" points="141.09,-33.278 132.161,-38.9808 142.698,-40.091 141.09,-33.278"/>
</g>
</g>
</svg>
