<?xml version="1.0" encoding="UTF-8" standalone="no"?>
<!DOCTYPE svg PUBLIC "-//W3C//DTD SVG 1.1//EN"
 "http://www.w3.org/Graphics/SVG/1.1/DTD/svg11.dtd">
<!-- Generated by graphviz version 2.38.0 (20140413.2041)
 -->
<!-- Title: Graphical Class Hierarchy Pages: 1 -->
<svg width="324pt" height="78pt"
 viewBox="0.00 0.00 324.00 77.50" xmlns="http://www.w3.org/2000/svg" xmlns:xlink="http://www.w3.org/1999/xlink">
<g id="graph0" class="graph" transform="scale(1 1) rotate(0) translate(4 73.5)">
<title>Graphical Class Hierarchy</title>
<polygon fill="white" stroke="none" points="-4,4 -4,-73.5 320,-73.5 320,4 -4,4"/>
<!-- Node0 -->
<g id="node1" class="node"><title>Node0</title>
<g id="a_node1"><a xlink:href="class_cpl_1_1_persistent_1_1_region_media.html" target="_top" xlink:title="This mostly abstract class defines the operations that can be performed on a persistent media.">
<polygon fill="white" stroke="black" points="0,-28 0,-47 143,-47 143,-28 0,-28"/>
<text text-anchor="middle" x="71.5" y="-35" font-family="Helvetica,sans-Serif" font-size="10.00">Cpl::Persistent::RegionMedia</text>
</a>
</g>
</g>
<!-- Node1 -->
<g id="node2" class="node"><title>Node1</title>
<g id="a_node2"><a xlink:href="class_cpl_1_1_persistent_1_1_file_adapter.html" target="_top" xlink:title="This concrete class implements the RegionMedia interface using the Cpl::Io::File interfaces.">
<polygon fill="white" stroke="black" points="179,-50 179,-69 316,-69 316,-50 179,-50"/>
<text text-anchor="middle" x="247.5" y="-57" font-family="Helvetica,sans-Serif" font-size="10.00">Cpl::Persistent::FileAdapter</text>
</a>
</g>
</g>
<!-- Node0&#45;&gt;Node1 -->
<g id="edge1" class="edge"><title>Node0&#45;&gt;Node1</title>
<path fill="none" stroke="midnightblue" d="M153.117,-47.6929C161.767,-48.7866 170.502,-49.8911 178.977,-50.9626"/>
<polygon fill="midnightblue" stroke="midnightblue" points="153.382,-44.1986 143.022,-46.4165 152.504,-51.1433 153.382,-44.1986"/>
</g>
<!-- Node2 -->
<g id="node3" class="node"><title>Node2</title>
<g id="a_node3"><a xlink:href="class_cpl_1_1_persistent_1_1_null_region_media.html" target="_top" xlink:title="This concrete class provides a &#39;null&#39; implementation of the RegionMedia interface.">
<polygon fill="white" stroke="black" points="180.5,-0.5 180.5,-30.5 314.5,-30.5 314.5,-0.5 180.5,-0.5"/>
<text text-anchor="start" x="188.5" y="-18.5" font-family="Helvetica,sans-Serif" font-size="10.00">Cpl::Persistent::NullRegion</text>
<text text-anchor="middle" x="247.5" y="-7.5" font-family="Helvetica,sans-Serif" font-size="10.00">Media</text>
</a>
</g>
</g>
<!-- Node0&#45;&gt;Node2 -->
<g id="edge2" class="edge"><title>Node0&#45;&gt;Node2</title>
<path fill="none" stroke="midnightblue" d="M153.227,-27.2932C162.319,-26.1436 171.503,-24.9824 180.378,-23.8602"/>
<polygon fill="midnightblue" stroke="midnightblue" points="152.504,-23.8567 143.022,-28.5835 153.382,-30.8014 152.504,-23.8567"/>
</g>
</g>
</svg>
