<?xml version="1.0" encoding="UTF-8" standalone="no"?>
<!DOCTYPE svg PUBLIC "-//W3C//DTD SVG 1.1//EN"
 "http://www.w3.org/Graphics/SVG/1.1/DTD/svg11.dtd">
<!-- Generated by graphviz version 10.0.1 (20240210.2158)
 -->
<!-- Title: Cpl/System/RP2040/mutex_t_.h Pages: 1 -->
<svg width="294pt" height="140pt"
 viewBox="0.00 0.00 293.75 140.00" xmlns="http://www.w3.org/2000/svg" xmlns:xlink="http://www.w3.org/1999/xlink">
<g id="graph0" class="graph" transform="scale(1 1) rotate(0) translate(4 136)">
<title>Cpl/System/RP2040/mutex_t_.h</title>
<!-- Node1 -->
<g id="Node000001" class="node">
<title>Node1</title>
<g id="a_Node000001"><a xlink:title=" ">
<polygon fill="#999999" stroke="#666666" points="276.25,-132 120,-132 120,-112 276.25,-112 276.25,-132"/>
<text text-anchor="middle" x="198.12" y="-118.5" font-family="Helvetica,sans-Serif" font-size="10.00">Cpl/System/RP2040/mutex_t_.h</text>
</a>
</g>
</g>
<!-- Node2 -->
<g id="Node000002" class="node">
<title>Node2</title>
<g id="a_Node000002"><a xlink:href="_private_startup___8h.html" target="_top" xlink:title="This file contains a collection of classes, interfaces, etc.">
<polygon fill="white" stroke="#666666" points="144.25,-76 0,-76 0,-56 144.25,-56 144.25,-76"/>
<text text-anchor="middle" x="72.12" y="-62.5" font-family="Helvetica,sans-Serif" font-size="10.00">Cpl/System/PrivateStartup_.h</text>
</a>
</g>
</g>
<!-- Node1&#45;&gt;Node2 -->
<g id="edge1_Node000001_Node000002" class="edge">
<title>Node1&#45;&gt;Node2</title>
<g id="a_edge1_Node000001_Node000002"><a xlink:title=" ">
<path fill="none" stroke="#63b8ff" d="M176.18,-111.59C156.42,-103.13 127.13,-90.58 104.66,-80.94"/>
<polygon fill="#63b8ff" stroke="#63b8ff" points="106.21,-77.8 95.63,-77.08 103.45,-84.23 106.21,-77.8"/>
</a>
</g>
</g>
<!-- Node4 -->
<g id="Node000004" class="node">
<title>Node4</title>
<g id="a_Node000004"><a xlink:title=" ">
<polygon fill="#e0e0e0" stroke="#999999" points="234.25,-76 162,-76 162,-56 234.25,-56 234.25,-76"/>
<text text-anchor="middle" x="198.12" y="-62.5" font-family="Helvetica,sans-Serif" font-size="10.00">pico/mutex.h</text>
</a>
</g>
</g>
<!-- Node1&#45;&gt;Node4 -->
<g id="edge3_Node000001_Node000004" class="edge">
<title>Node1&#45;&gt;Node4</title>
<g id="a_edge3_Node000001_Node000004"><a xlink:title=" ">
<path fill="none" stroke="#63b8ff" d="M198.12,-111.59C198.12,-105.01 198.12,-95.96 198.12,-87.73"/>
<polygon fill="#63b8ff" stroke="#63b8ff" points="201.63,-87.81 198.13,-77.81 194.63,-87.81 201.63,-87.81"/>
</a>
</g>
</g>
<!-- Node5 -->
<g id="Node000005" class="node">
<title>Node5</title>
<g id="a_Node000005"><a xlink:title=" ">
<polygon fill="#e0e0e0" stroke="#999999" points="285.75,-76 252.5,-76 252.5,-56 285.75,-56 285.75,-76"/>
<text text-anchor="middle" x="269.12" y="-62.5" font-family="Helvetica,sans-Serif" font-size="10.00">new</text>
</a>
</g>
</g>
<!-- Node1&#45;&gt;Node5 -->
<g id="edge4_Node000001_Node000005" class="edge">
<title>Node1&#45;&gt;Node5</title>
<g id="a_edge4_Node000001_Node000005"><a xlink:title=" ">
<path fill="none" stroke="#63b8ff" d="M210.49,-111.59C220.77,-103.77 235.64,-92.46 247.84,-83.19"/>
<polygon fill="#63b8ff" stroke="#63b8ff" points="249.85,-86.05 255.69,-77.21 245.62,-80.48 249.85,-86.05"/>
</a>
</g>
</g>
<!-- Node3 -->
<g id="Node000003" class="node">
<title>Node3</title>
<g id="a_Node000003"><a xlink:href="_item_8h.html" target="_top" xlink:title=" ">
<polygon fill="white" stroke="#666666" points="124.38,-20 19.88,-20 19.88,0 124.38,0 124.38,-20"/>
<text text-anchor="middle" x="72.12" y="-6.5" font-family="Helvetica,sans-Serif" font-size="10.00">Cpl/Container/Item.h</text>
</a>
</g>
</g>
<!-- Node2&#45;&gt;Node3 -->
<g id="edge2_Node000002_Node000003" class="edge">
<title>Node2&#45;&gt;Node3</title>
<g id="a_edge2_Node000002_Node000003"><a xlink:title=" ">
<path fill="none" stroke="#63b8ff" d="M72.12,-55.59C72.12,-49.01 72.12,-39.96 72.12,-31.73"/>
<polygon fill="#63b8ff" stroke="#63b8ff" points="75.63,-31.81 72.13,-21.81 68.63,-31.81 75.63,-31.81"/>
</a>
</g>
</g>
</g>
</svg>
