<?xml version="1.0" encoding="UTF-8" standalone="no"?>
<!DOCTYPE svg PUBLIC "-//W3C//DTD SVG 1.1//EN"
 "http://www.w3.org/Graphics/SVG/1.1/DTD/svg11.dtd">
<!-- Generated by graphviz version 2.38.0 (20140413.2041)
 -->
<!-- Title: Cpl/Math/real.h Pages: 1 -->
<svg width="1402pt" height="408pt"
 viewBox="0.00 0.00 1402.00 408.00" xmlns="http://www.w3.org/2000/svg" xmlns:xlink="http://www.w3.org/1999/xlink">
<g id="graph0" class="graph" transform="scale(1 1) rotate(0) translate(4 404)">
<title>Cpl/Math/real.h</title>
<polygon fill="white" stroke="none" points="-4,4 -4,-404 1398,-404 1398,4 -4,4"/>
<!-- Node1 -->
<g id="node1" class="node"><title>Node1</title>
<g id="a_node1"><a xlink:title="This file contains a collection of methods comparing, manipulating, etc.">
<polygon fill="#bfbfbf" stroke="black" points="262.5,-380.5 262.5,-399.5 345.5,-399.5 345.5,-380.5 262.5,-380.5"/>
<text text-anchor="middle" x="304" y="-387.5" font-family="Helvetica,sans-Serif" font-size="10.00">Cpl/Math/real.h</text>
</a>
</g>
</g>
<!-- Node2 -->
<g id="node2" class="node"><title>Node2</title>
<g id="a_node2"><a xlink:href="_double_8h.html" target="_top" xlink:title=" ">
<polygon fill="white" stroke="black" points="128.5,-324.5 128.5,-343.5 235.5,-343.5 235.5,-324.5 128.5,-324.5"/>
<text text-anchor="middle" x="182" y="-331.5" font-family="Helvetica,sans-Serif" font-size="10.00">Cpl/Dm/Mp/Double.h</text>
</a>
</g>
</g>
<!-- Node1&#45;&gt;Node2 -->
<g id="edge1" class="edge"><title>Node1&#45;&gt;Node2</title>
<path fill="none" stroke="midnightblue" d="M275.461,-376.368C252.614,-366.255 221.195,-352.349 201.241,-343.516"/>
<polygon fill="midnightblue" stroke="midnightblue" points="274.108,-379.597 284.669,-380.444 276.941,-373.196 274.108,-379.597"/>
</g>
<!-- Node4 -->
<g id="node4" class="node"><title>Node4</title>
<g id="a_node4"><a xlink:href="_float_8h.html" target="_top" xlink:title=" ">
<polygon fill="white" stroke="black" points="377,-324.5 377,-343.5 475,-343.5 475,-324.5 377,-324.5"/>
<text text-anchor="middle" x="426" y="-331.5" font-family="Helvetica,sans-Serif" font-size="10.00">Cpl/Dm/Mp/Float.h</text>
</a>
</g>
</g>
<!-- Node1&#45;&gt;Node4 -->
<g id="edge3" class="edge"><title>Node1&#45;&gt;Node4</title>
<path fill="none" stroke="midnightblue" d="M332.539,-376.368C355.386,-366.255 386.805,-352.349 406.759,-343.516"/>
<polygon fill="midnightblue" stroke="midnightblue" points="331.059,-373.196 323.331,-380.444 333.892,-379.597 331.059,-373.196"/>
</g>
<!-- Node3 -->
<g id="node3" class="node"><title>Node3</title>
<g id="a_node3"><a xlink:href="__file__logger_2_model_points_8h.html" target="_top" xlink:title="This file defines test/simulation specific Model Points for the Thermostat Application.">
<polygon fill="white" stroke="black" points="0,-257.5 0,-287.5 116,-287.5 116,-257.5 0,-257.5"/>
<text text-anchor="start" x="8" y="-275.5" font-family="Helvetica,sans-Serif" font-size="10.00">Storm/Thermostat/_file</text>
<text text-anchor="middle" x="58" y="-264.5" font-family="Helvetica,sans-Serif" font-size="10.00">_logger/ModelPoints.h</text>
</a>
</g>
</g>
<!-- Node2&#45;&gt;Node3 -->
<g id="edge2" class="edge"><title>Node2&#45;&gt;Node3</title>
<path fill="none" stroke="midnightblue" d="M155.053,-320.07C135.037,-310.465 107.763,-297.378 87.2243,-287.523"/>
<polygon fill="midnightblue" stroke="midnightblue" points="153.704,-323.304 164.234,-324.475 156.732,-316.993 153.704,-323.304"/>
</g>
<!-- Node5 -->
<g id="node5" class="node"><title>Node5</title>
<g id="a_node5"><a xlink:href="_control_8h.html" target="_top" xlink:title=" ">
<polygon fill="white" stroke="black" points="894.5,-263 894.5,-282 1031.5,-282 1031.5,-263 894.5,-263"/>
<text text-anchor="middle" x="963" y="-270" font-family="Helvetica,sans-Serif" font-size="10.00">Storm/Component/Control.h</text>
</a>
</g>
</g>
<!-- Node4&#45;&gt;Node5 -->
<g id="edge4" class="edge"><title>Node4&#45;&gt;Node5</title>
<path fill="none" stroke="midnightblue" d="M485.026,-326.46C585.17,-315.364 787.827,-292.909 894.224,-281.12"/>
<polygon fill="midnightblue" stroke="midnightblue" points="484.632,-322.982 475.079,-327.562 485.403,-329.939 484.632,-322.982"/>
</g>
<!-- Node14 -->
<g id="node14" class="node"><title>Node14</title>
<g id="a_node14"><a xlink:href="_fan_control_8h.html" target="_top" xlink:title=" ">
<polygon fill="white" stroke="black" points="1240,-62 1240,-81 1394,-81 1394,-62 1240,-62"/>
<text text-anchor="middle" x="1317" y="-69" font-family="Helvetica,sans-Serif" font-size="10.00">Storm/Component/FanControl.h</text>
</a>
</g>
</g>
<!-- Node4&#45;&gt;Node14 -->
<g id="edge20" class="edge"><title>Node4&#45;&gt;Node14</title>
<path fill="none" stroke="midnightblue" d="M485.061,-331.621C618.047,-328.039 937.421,-316.649 1041,-288 1104.79,-270.355 1120.73,-260.286 1174,-221 1234.2,-176.6 1291.42,-105.719 1310.4,-81.1887"/>
<polygon fill="midnightblue" stroke="midnightblue" points="484.959,-328.122 475.054,-331.885 485.143,-335.12 484.959,-328.122"/>
</g>
<!-- Node15 -->
<g id="node15" class="node"><title>Node15</title>
<g id="a_node15"><a xlink:href="_component_2_hvac_relay_outputs_8h.html" target="_top" xlink:title=" ">
<polygon fill="white" stroke="black" points="5,-190.5 5,-220.5 151,-220.5 151,-190.5 5,-190.5"/>
<text text-anchor="start" x="13" y="-208.5" font-family="Helvetica,sans-Serif" font-size="10.00">Storm/Component/HvacRelay</text>
<text text-anchor="middle" x="78" y="-197.5" font-family="Helvetica,sans-Serif" font-size="10.00">Outputs.h</text>
</a>
</g>
</g>
<!-- Node4&#45;&gt;Node15 -->
<g id="edge22" class="edge"><title>Node4&#45;&gt;Node15</title>
<path fill="none" stroke="midnightblue" d="M366.793,-331.955C312.56,-328.9 231.331,-318.927 168,-288 150.668,-279.536 112.125,-241.526 91.5532,-220.537"/>
<polygon fill="midnightblue" stroke="midnightblue" points="366.768,-335.458 376.93,-332.464 367.118,-328.467 366.768,-335.458"/>
</g>
<!-- Node16 -->
<g id="node16" class="node"><title>Node16</title>
<g id="a_node16"><a xlink:href="_idt_selection_8h.html" target="_top" xlink:title=" ">
<polygon fill="white" stroke="black" points="99,-62 99,-81 257,-81 257,-62 99,-62"/>
<text text-anchor="middle" x="178" y="-69" font-family="Helvetica,sans-Serif" font-size="10.00">Storm/Component/IdtSelection.h</text>
</a>
</g>
</g>
<!-- Node4&#45;&gt;Node16 -->
<g id="edge24" class="edge"><title>Node4&#45;&gt;Node16</title>
<path fill="none" stroke="midnightblue" d="M366.974,-328.975C307.943,-323.641 222.866,-311.953 201,-288 145.7,-227.42 167.904,-113.744 175.715,-81.3308"/>
<polygon fill="midnightblue" stroke="midnightblue" points="366.675,-332.463 376.94,-329.839 367.279,-325.489 366.675,-332.463"/>
</g>
<!-- Node17 -->
<g id="node17" class="node"><title>Node17</title>
<g id="a_node17"><a xlink:href="_component_2_operating_mode_8h.html" target="_top" xlink:title=" ">
<polygon fill="white" stroke="black" points="210,-257.5 210,-287.5 350,-287.5 350,-257.5 210,-257.5"/>
<text text-anchor="start" x="218" y="-275.5" font-family="Helvetica,sans-Serif" font-size="10.00">Storm/Component/Operating</text>
<text text-anchor="middle" x="280" y="-264.5" font-family="Helvetica,sans-Serif" font-size="10.00">Mode.h</text>
</a>
</g>
</g>
<!-- Node4&#45;&gt;Node17 -->
<g id="edge26" class="edge"><title>Node4&#45;&gt;Node17</title>
<path fill="none" stroke="midnightblue" d="M395.548,-320.59C371.876,-310.942 339.032,-297.558 314.409,-287.523"/>
<polygon fill="midnightblue" stroke="midnightblue" points="394.5,-323.942 405.082,-324.475 397.142,-317.46 394.5,-323.942"/>
</g>
<!-- Node18 -->
<g id="node18" class="node"><title>Node18</title>
<g id="a_node18"><a xlink:href="_pi_8h.html" target="_top" xlink:title=" ">
<polygon fill="white" stroke="black" points="368,-263 368,-282 484,-282 484,-263 368,-263"/>
<text text-anchor="middle" x="426" y="-270" font-family="Helvetica,sans-Serif" font-size="10.00">Storm/Component/Pi.h</text>
</a>
</g>
</g>
<!-- Node4&#45;&gt;Node18 -->
<g id="edge28" class="edge"><title>Node4&#45;&gt;Node18</title>
<path fill="none" stroke="midnightblue" d="M426,-314.317C426,-303.496 426,-290.398 426,-282.009"/>
<polygon fill="midnightblue" stroke="midnightblue" points="422.5,-314.475 426,-324.475 429.5,-314.475 422.5,-314.475"/>
</g>
<!-- Node19 -->
<g id="node19" class="node"><title>Node19</title>
<g id="a_node19"><a xlink:href="_pi_pre_process_8h.html" target="_top" xlink:title=" ">
<polygon fill="white" stroke="black" points="488.5,-129 488.5,-148 655.5,-148 655.5,-129 488.5,-129"/>
<text text-anchor="middle" x="572" y="-136" font-family="Helvetica,sans-Serif" font-size="10.00">Storm/Component/PiPreProcess.h</text>
</a>
</g>
</g>
<!-- Node4&#45;&gt;Node19 -->
<g id="edge30" class="edge"><title>Node4&#45;&gt;Node19</title>
<path fill="none" stroke="midnightblue" d="M485.083,-330.624C536.777,-326.629 612.799,-316.022 673,-288 715.356,-268.284 734.106,-263.272 754,-221 759.867,-208.534 762.339,-200.968 754,-190 739.016,-170.292 678.388,-156.264 631.174,-148.071"/>
<polygon fill="midnightblue" stroke="midnightblue" points="484.806,-327.135 475.081,-331.338 485.304,-334.117 484.806,-327.135"/>
</g>
<!-- Node20 -->
<g id="node20" class="node"><title>Node20</title>
<g id="a_node20"><a xlink:href="_model_points_8h.html" target="_top" xlink:title="This file defines all of the Model Points for the Thermostat Application.">
<polygon fill="white" stroke="black" points="502.5,-263 502.5,-282 663.5,-282 663.5,-263 502.5,-263"/>
<text text-anchor="middle" x="583" y="-270" font-family="Helvetica,sans-Serif" font-size="10.00">Storm/Thermostat/ModelPoints.h</text>
</a>
</g>
</g>
<!-- Node4&#45;&gt;Node20 -->
<g id="edge34" class="edge"><title>Node4&#45;&gt;Node20</title>
<path fill="none" stroke="midnightblue" d="M458.238,-320.782C488.748,-309.22 533.752,-292.164 560.547,-282.009"/>
<polygon fill="midnightblue" stroke="midnightblue" points="456.605,-317.658 448.494,-324.475 459.086,-324.204 456.605,-317.658"/>
</g>
<!-- Node6 -->
<g id="node6" class="node"><title>Node6</title>
<g id="a_node6"><a xlink:href="_cooling_8h.html" target="_top" xlink:title=" ">
<polygon fill="white" stroke="black" points="836.5,-123.5 836.5,-153.5 981.5,-153.5 981.5,-123.5 836.5,-123.5"/>
<text text-anchor="start" x="844.5" y="-141.5" font-family="Helvetica,sans-Serif" font-size="10.00">Storm/Component/Equipment</text>
<text text-anchor="middle" x="909" y="-130.5" font-family="Helvetica,sans-Serif" font-size="10.00">/Cooling.h</text>
</a>
</g>
</g>
<!-- Node5&#45;&gt;Node6 -->
<g id="edge5" class="edge"><title>Node5&#45;&gt;Node6</title>
<path fill="none" stroke="midnightblue" d="M889.495,-260.074C866.968,-252.745 844.57,-240.721 831,-221 823.19,-209.65 824.417,-202.104 831,-190 839.941,-173.561 856.794,-161.651 872.553,-153.541"/>
<polygon fill="midnightblue" stroke="midnightblue" points="888.55,-263.444 899.132,-262.937 890.543,-256.734 888.55,-263.444"/>
</g>
<!-- Node7 -->
<g id="node7" class="node"><title>Node7</title>
<g id="a_node7"><a xlink:href="_algorithm_8h.html" target="_top" xlink:title=" ">
<polygon fill="white" stroke="black" points="605,-0.5 605,-19.5 753,-19.5 753,-0.5 605,-0.5"/>
<text text-anchor="middle" x="679" y="-7.5" font-family="Helvetica,sans-Serif" font-size="10.00">Storm/Thermostat/Algorithm.h</text>
</a>
</g>
</g>
<!-- Node5&#45;&gt;Node7 -->
<g id="edge19" class="edge"><title>Node5&#45;&gt;Node7</title>
<path fill="none" stroke="midnightblue" d="M1019.95,-260.834C1099.2,-242.979 1229.15,-201.068 1193,-123 1173.65,-81.2243 1156.35,-74.0652 1114,-56 1050.89,-29.0752 860.043,-17.7381 753.301,-13.3995"/>
<polygon fill="midnightblue" stroke="midnightblue" points="1019.1,-257.438 1010.08,-262.994 1020.6,-264.276 1019.1,-257.438"/>
</g>
<!-- Node8 -->
<g id="node8" class="node"><title>Node8</title>
<g id="a_node8"><a xlink:href="_indoor_heating_8h.html" target="_top" xlink:title=" ">
<polygon fill="white" stroke="black" points="1038.5,-123.5 1038.5,-153.5 1183.5,-153.5 1183.5,-123.5 1038.5,-123.5"/>
<text text-anchor="start" x="1046.5" y="-141.5" font-family="Helvetica,sans-Serif" font-size="10.00">Storm/Component/Equipment</text>
<text text-anchor="middle" x="1111" y="-130.5" font-family="Helvetica,sans-Serif" font-size="10.00">/IndoorHeating.h</text>
</a>
</g>
</g>
<!-- Node5&#45;&gt;Node8 -->
<g id="edge7" class="edge"><title>Node5&#45;&gt;Node8</title>
<path fill="none" stroke="midnightblue" d="M982.779,-256.728C995.644,-246.918 1012.64,-233.575 1027,-221 1052.84,-198.378 1081.17,-170.106 1097.44,-153.503"/>
<polygon fill="midnightblue" stroke="midnightblue" points="980.479,-254.079 974.614,-262.903 984.701,-259.662 980.479,-254.079"/>
</g>
<!-- Node9 -->
<g id="node9" class="node"><title>Node9</title>
<g id="a_node9"><a xlink:href="_off_8h.html" target="_top" xlink:title=" ">
<polygon fill="white" stroke="black" points="937.5,-56.5 937.5,-86.5 1082.5,-86.5 1082.5,-56.5 937.5,-56.5"/>
<text text-anchor="start" x="945.5" y="-74.5" font-family="Helvetica,sans-Serif" font-size="10.00">Storm/Component/Equipment</text>
<text text-anchor="middle" x="1010" y="-63.5" font-family="Helvetica,sans-Serif" font-size="10.00">/Off.h</text>
</a>
</g>
</g>
<!-- Node5&#45;&gt;Node9 -->
<g id="edge9" class="edge"><title>Node5&#45;&gt;Node9</title>
<path fill="none" stroke="midnightblue" d="M976.098,-254.468C982.596,-245.101 989.912,-232.975 994,-221 1010.08,-173.883 1011.04,-113.91 1010.52,-86.8686"/>
<polygon fill="midnightblue" stroke="midnightblue" points="973.081,-252.664 970.022,-262.808 978.739,-256.786 973.081,-252.664"/>
</g>
<!-- Node10 -->
<g id="node10" class="node"><title>Node10</title>
<g id="a_node10"><a xlink:href="_stage_api_8h.html" target="_top" xlink:title=" ">
<polygon fill="white" stroke="black" points="839.5,-190.5 839.5,-220.5 984.5,-220.5 984.5,-190.5 839.5,-190.5"/>
<text text-anchor="start" x="847.5" y="-208.5" font-family="Helvetica,sans-Serif" font-size="10.00">Storm/Component/Equipment</text>
<text text-anchor="middle" x="912" y="-197.5" font-family="Helvetica,sans-Serif" font-size="10.00">/StageApi.h</text>
</a>
</g>
</g>
<!-- Node5&#45;&gt;Node10 -->
<g id="edge11" class="edge"><title>Node5&#45;&gt;Node10</title>
<path fill="none" stroke="midnightblue" d="M949.797,-254.673C941.497,-244.094 930.911,-230.602 923.054,-220.589"/>
<polygon fill="midnightblue" stroke="midnightblue" points="947.195,-257.027 956.122,-262.734 952.703,-252.706 947.195,-257.027"/>
</g>
<!-- Node6&#45;&gt;Node7 -->
<g id="edge6" class="edge"><title>Node6&#45;&gt;Node7</title>
<path fill="none" stroke="midnightblue" d="M896.114,-114.73C884.517,-96.2561 865.815,-70.9136 843,-56 813.838,-36.938 776.716,-25.8879 745.168,-19.5138"/>
<polygon fill="midnightblue" stroke="midnightblue" points="893.2,-116.675 901.369,-123.422 899.19,-113.053 893.2,-116.675"/>
</g>
<!-- Node8&#45;&gt;Node7 -->
<g id="edge8" class="edge"><title>Node8&#45;&gt;Node7</title>
<path fill="none" stroke="midnightblue" d="M1112.29,-113.191C1111.84,-94.6958 1107.91,-70.0965 1092,-56 1067.2,-34.0249 865.226,-20.4121 753.195,-14.4787"/>
<polygon fill="midnightblue" stroke="midnightblue" points="1108.79,-113.225 1112.21,-123.25 1115.79,-113.276 1108.79,-113.225"/>
</g>
<!-- Node9&#45;&gt;Node7 -->
<g id="edge10" class="edge"><title>Node9&#45;&gt;Node7</title>
<path fill="none" stroke="midnightblue" d="M927.386,-55.6495C864.016,-44.2581 778.79,-28.938 726.439,-19.5276"/>
<polygon fill="midnightblue" stroke="midnightblue" points="926.899,-59.118 937.361,-57.4425 928.138,-52.2284 926.899,-59.118"/>
</g>
<!-- Node10&#45;&gt;Node6 -->
<g id="edge12" class="edge"><title>Node10&#45;&gt;Node6</title>
<path fill="none" stroke="midnightblue" d="M910.888,-180.403C910.471,-171.37 910.011,-161.408 909.65,-153.577"/>
<polygon fill="midnightblue" stroke="midnightblue" points="907.392,-180.568 911.349,-190.396 914.384,-180.245 907.392,-180.568"/>
</g>
<!-- Node10&#45;&gt;Node8 -->
<g id="edge13" class="edge"><title>Node10&#45;&gt;Node8</title>
<path fill="none" stroke="midnightblue" d="M964.88,-187.228C997.071,-176.713 1037.67,-163.451 1067.9,-153.577"/>
<polygon fill="midnightblue" stroke="midnightblue" points="963.599,-183.964 955.18,-190.396 965.773,-190.618 963.599,-183.964"/>
</g>
<!-- Node11 -->
<g id="node11" class="node"><title>Node11</title>
<g id="a_node11"><a xlink:href="_storm_2_component_2_equipment_2_stage_2_basic_8h.html" target="_top" xlink:title=" ">
<polygon fill="white" stroke="black" points="673.5,-123.5 673.5,-153.5 818.5,-153.5 818.5,-123.5 673.5,-123.5"/>
<text text-anchor="start" x="681.5" y="-141.5" font-family="Helvetica,sans-Serif" font-size="10.00">Storm/Component/Equipment</text>
<text text-anchor="middle" x="746" y="-130.5" font-family="Helvetica,sans-Serif" font-size="10.00">/Stage/Basic.h</text>
</a>
</g>
</g>
<!-- Node10&#45;&gt;Node11 -->
<g id="edge14" class="edge"><title>Node10&#45;&gt;Node11</title>
<path fill="none" stroke="midnightblue" d="M866.494,-186.682C839.871,-176.257 806.732,-163.281 781.949,-153.577"/>
<polygon fill="midnightblue" stroke="midnightblue" points="865.393,-190.009 875.98,-190.396 867.945,-183.491 865.393,-190.009"/>
</g>
<!-- Node12 -->
<g id="node12" class="node"><title>Node12</title>
<g id="a_node12"><a xlink:href="_basic_cooling_8h.html" target="_top" xlink:title=" ">
<polygon fill="white" stroke="black" points="525.5,-56.5 525.5,-86.5 670.5,-86.5 670.5,-56.5 525.5,-56.5"/>
<text text-anchor="start" x="533.5" y="-74.5" font-family="Helvetica,sans-Serif" font-size="10.00">Storm/Component/Equipment</text>
<text text-anchor="middle" x="598" y="-63.5" font-family="Helvetica,sans-Serif" font-size="10.00">/Stage/BasicCooling.h</text>
</a>
</g>
</g>
<!-- Node11&#45;&gt;Node12 -->
<g id="edge15" class="edge"><title>Node11&#45;&gt;Node12</title>
<path fill="none" stroke="midnightblue" d="M704.489,-119.269C680.916,-108.916 651.856,-96.1528 630.051,-86.5765"/>
<polygon fill="midnightblue" stroke="midnightblue" points="703.323,-122.579 713.886,-123.396 706.138,-116.17 703.323,-122.579"/>
</g>
<!-- Node13 -->
<g id="node13" class="node"><title>Node13</title>
<g id="a_node13"><a xlink:href="_basic_indoor_heat_8h.html" target="_top" xlink:title=" ">
<polygon fill="white" stroke="black" points="688.5,-56.5 688.5,-86.5 833.5,-86.5 833.5,-56.5 688.5,-56.5"/>
<text text-anchor="start" x="696.5" y="-74.5" font-family="Helvetica,sans-Serif" font-size="10.00">Storm/Component/Equipment</text>
<text text-anchor="middle" x="761" y="-63.5" font-family="Helvetica,sans-Serif" font-size="10.00">/Stage/BasicIndoorHeat.h</text>
</a>
</g>
</g>
<!-- Node11&#45;&gt;Node13 -->
<g id="edge17" class="edge"><title>Node11&#45;&gt;Node13</title>
<path fill="none" stroke="midnightblue" d="M751.561,-113.403C753.645,-104.37 755.944,-94.4078 757.752,-86.5765"/>
<polygon fill="midnightblue" stroke="midnightblue" points="748.093,-112.865 749.255,-123.396 754.914,-114.439 748.093,-112.865"/>
</g>
<!-- Node12&#45;&gt;Node7 -->
<g id="edge16" class="edge"><title>Node12&#45;&gt;Node7</title>
<path fill="none" stroke="midnightblue" d="M625.651,-50.1886C639.832,-39.7719 656.357,-27.6329 667.214,-19.6578"/>
<polygon fill="midnightblue" stroke="midnightblue" points="623.183,-47.6584 617.196,-56.3993 627.327,-53.2999 623.183,-47.6584"/>
</g>
<!-- Node13&#45;&gt;Node7 -->
<g id="edge18" class="edge"><title>Node13&#45;&gt;Node7</title>
<path fill="none" stroke="midnightblue" d="M733.414,-50.483C718.968,-40.0013 702.026,-27.7081 690.932,-19.6578"/>
<polygon fill="midnightblue" stroke="midnightblue" points="731.418,-53.3592 741.567,-56.3993 735.529,-47.6936 731.418,-53.3592"/>
</g>
<!-- Node14&#45;&gt;Node7 -->
<g id="edge21" class="edge"><title>Node14&#45;&gt;Node7</title>
<path fill="none" stroke="midnightblue" d="M1257.95,-60.4222C1247.33,-58.8012 1236.35,-57.2486 1226,-56 1057.37,-35.6592 858.378,-21.8277 753.057,-15.3024"/>
<polygon fill="midnightblue" stroke="midnightblue" points="1257.56,-63.9042 1267.98,-61.9895 1258.64,-56.9881 1257.56,-63.9042"/>
</g>
<!-- Node15&#45;&gt;Node7 -->
<g id="edge23" class="edge"><title>Node15&#45;&gt;Node7</title>
<path fill="none" stroke="midnightblue" d="M71.5474,-180.457C64.2982,-147.43 57.4171,-88.4405 90,-56 125.77,-20.3861 454.873,-12.9352 604.983,-11.3932"/>
<polygon fill="midnightblue" stroke="midnightblue" points="68.1459,-181.282 73.8645,-190.201 74.9561,-179.663 68.1459,-181.282"/>
</g>
<!-- Node16&#45;&gt;Node7 -->
<g id="edge25" class="edge"><title>Node16&#45;&gt;Node7</title>
<path fill="none" stroke="midnightblue" d="M240.226,-60.4035C250.495,-58.8507 261.038,-57.3253 271,-56 387.38,-40.5172 522.945,-26.3252 604.801,-18.1749"/>
<polygon fill="midnightblue" stroke="midnightblue" points="239.433,-56.984 230.079,-61.959 240.494,-63.9032 239.433,-56.984"/>
</g>
<!-- Node17&#45;&gt;Node7 -->
<g id="edge27" class="edge"><title>Node17&#45;&gt;Node7</title>
<path fill="none" stroke="midnightblue" d="M281.745,-247.131C286.629,-199.813 304.964,-96.584 373,-56 411.045,-33.3058 527.166,-21.1719 604.914,-15.4131"/>
<polygon fill="midnightblue" stroke="midnightblue" points="278.233,-247.096 280.811,-257.373 285.205,-247.732 278.233,-247.096"/>
</g>
<!-- Node18&#45;&gt;Node7 -->
<g id="edge29" class="edge"><title>Node18&#45;&gt;Node7</title>
<path fill="none" stroke="midnightblue" d="M388.497,-258.897C371.078,-250.942 352.037,-238.745 342,-221 320.557,-183.089 317.676,-159.13 342,-123 399.242,-37.9745 524.263,-16.1478 604.888,-11.294"/>
<polygon fill="midnightblue" stroke="midnightblue" points="387.366,-262.218 397.94,-262.888 390.092,-255.771 387.366,-262.218"/>
</g>
<!-- Node19&#45;&gt;Node7 -->
<g id="edge33" class="edge"><title>Node19&#45;&gt;Node7</title>
<path fill="none" stroke="midnightblue" d="M550.044,-123.025C527.704,-106.494 498.649,-78.7909 516,-56 528.848,-39.1238 579.125,-26.9619 620.484,-19.5692"/>
<polygon fill="midnightblue" stroke="midnightblue" points="548.276,-126.062 558.462,-128.98 552.319,-120.347 548.276,-126.062"/>
</g>
<!-- Node19&#45;&gt;Node12 -->
<g id="edge31" class="edge"><title>Node19&#45;&gt;Node12</title>
<path fill="none" stroke="midnightblue" d="M579.244,-119.39C583.392,-109.02 588.519,-96.2013 592.364,-86.589"/>
<polygon fill="midnightblue" stroke="midnightblue" points="575.971,-118.149 575.506,-128.734 582.47,-120.749 575.971,-118.149"/>
</g>
<!-- Node19&#45;&gt;Node13 -->
<g id="edge32" class="edge"><title>Node19&#45;&gt;Node13</title>
<path fill="none" stroke="midnightblue" d="M606.922,-125.49C638.964,-114.47 686.438,-98.143 720.211,-86.5281"/>
<polygon fill="midnightblue" stroke="midnightblue" points="605.416,-122.307 597.098,-128.869 607.692,-128.926 605.416,-122.307"/>
</g>
<!-- Node21 -->
<g id="node21" class="node"><title>Node21</title>
<g id="a_node21"><a xlink:href="_installer_record_8h_source.html" target="_top" xlink:title=" ">
<polygon fill="white" stroke="black" points="488.5,-190.5 488.5,-220.5 607.5,-220.5 607.5,-190.5 488.5,-190.5"/>
<text text-anchor="start" x="496.5" y="-208.5" font-family="Helvetica,sans-Serif" font-size="10.00">Storm/Thermostat/Main</text>
<text text-anchor="middle" x="548" y="-197.5" font-family="Helvetica,sans-Serif" font-size="10.00">/InstallerRecord.h</text>
</a>
</g>
</g>
<!-- Node20&#45;&gt;Node21 -->
<g id="edge35" class="edge"><title>Node20&#45;&gt;Node21</title>
<path fill="none" stroke="midnightblue" d="M573.422,-253.713C567.809,-243.287 560.816,-230.301 555.586,-220.589"/>
<polygon fill="midnightblue" stroke="midnightblue" points="570.457,-255.588 578.28,-262.734 576.62,-252.27 570.457,-255.588"/>
</g>
<!-- Node23 -->
<g id="node23" class="node"><title>Node23</title>
<g id="a_node23"><a xlink:href="_run_time_record_8h_source.html" target="_top" xlink:title=" ">
<polygon fill="white" stroke="black" points="625.5,-190.5 625.5,-220.5 744.5,-220.5 744.5,-190.5 625.5,-190.5"/>
<text text-anchor="start" x="633.5" y="-208.5" font-family="Helvetica,sans-Serif" font-size="10.00">Storm/Thermostat/Main</text>
<text text-anchor="middle" x="685" y="-197.5" font-family="Helvetica,sans-Serif" font-size="10.00">/RunTimeRecord.h</text>
</a>
</g>
</g>
<!-- Node20&#45;&gt;Node23 -->
<g id="edge37" class="edge"><title>Node20&#45;&gt;Node23</title>
<path fill="none" stroke="midnightblue" d="M605.514,-257.153C622.584,-246.275 645.922,-231.403 662.891,-220.589"/>
<polygon fill="midnightblue" stroke="midnightblue" points="603.308,-254.408 596.756,-262.734 607.07,-260.311 603.308,-254.408"/>
</g>
<!-- Node24 -->
<g id="node24" class="node"><title>Node24</title>
<g id="a_node24"><a xlink:href="_user_record_8h_source.html" target="_top" xlink:title=" ">
<polygon fill="white" stroke="black" points="351.5,-190.5 351.5,-220.5 470.5,-220.5 470.5,-190.5 351.5,-190.5"/>
<text text-anchor="start" x="359.5" y="-208.5" font-family="Helvetica,sans-Serif" font-size="10.00">Storm/Thermostat/Main</text>
<text text-anchor="middle" x="411" y="-197.5" font-family="Helvetica,sans-Serif" font-size="10.00">/UserRecord.h</text>
</a>
</g>
</g>
<!-- Node20&#45;&gt;Node24 -->
<g id="edge39" class="edge"><title>Node20&#45;&gt;Node24</title>
<path fill="none" stroke="midnightblue" d="M550.459,-259.202C521.312,-248.188 478.589,-232.042 448.12,-220.528"/>
<polygon fill="midnightblue" stroke="midnightblue" points="549.568,-262.607 560.16,-262.869 552.043,-256.059 549.568,-262.607"/>
</g>
<!-- Node22 -->
<g id="node22" class="node"><title>Node22</title>
<g id="a_node22"><a xlink:href="statics___8h.html" target="_top" xlink:title="This file defines/creates persistent records and record server for the Thermostat simulation.">
<polygon fill="white" stroke="black" points="351.5,-123.5 351.5,-153.5 470.5,-153.5 470.5,-123.5 351.5,-123.5"/>
<text text-anchor="start" x="359.5" y="-141.5" font-family="Helvetica,sans-Serif" font-size="10.00">Storm/Thermostat/Main</text>
<text text-anchor="middle" x="411" y="-130.5" font-family="Helvetica,sans-Serif" font-size="10.00">/_simulation/statics_.h</text>
</a>
</g>
</g>
<!-- Node21&#45;&gt;Node22 -->
<g id="edge36" class="edge"><title>Node21&#45;&gt;Node22</title>
<path fill="none" stroke="midnightblue" d="M508.991,-185.992C487.276,-175.689 460.673,-163.068 440.669,-153.577"/>
<polygon fill="midnightblue" stroke="midnightblue" points="507.738,-189.272 518.273,-190.396 510.739,-182.947 507.738,-189.272"/>
</g>
<!-- Node23&#45;&gt;Node22 -->
<g id="edge38" class="edge"><title>Node23&#45;&gt;Node22</title>
<path fill="none" stroke="midnightblue" d="M615.946,-188.119C571.111,-177.483 513.277,-163.763 470.483,-153.611"/>
<polygon fill="midnightblue" stroke="midnightblue" points="615.346,-191.573 625.883,-190.476 616.961,-184.762 615.346,-191.573"/>
</g>
<!-- Node24&#45;&gt;Node22 -->
<g id="edge40" class="edge"><title>Node24&#45;&gt;Node22</title>
<path fill="none" stroke="midnightblue" d="M411,-180.108C411,-171.154 411,-161.323 411,-153.577"/>
<polygon fill="midnightblue" stroke="midnightblue" points="407.5,-180.396 411,-190.396 414.5,-180.396 407.5,-180.396"/>
</g>
</g>
</svg>
