<?xml version="1.0" encoding="UTF-8" standalone="no"?>
<!DOCTYPE svg PUBLIC "-//W3C//DTD SVG 1.1//EN"
 "http://www.w3.org/Graphics/SVG/1.1/DTD/svg11.dtd">
<!-- Generated by graphviz version 2.38.0 (20140413.2041)
 -->
<!-- Title: Storm::Component::AirFilterMonitor::Input_T Pages: 1 -->
<svg width="2638pt" height="327pt"
 viewBox="0.00 0.00 2638.00 326.50" xmlns="http://www.w3.org/2000/svg" xmlns:xlink="http://www.w3.org/1999/xlink">
<g id="graph0" class="graph" transform="scale(1 1) rotate(0) translate(4 322.5)">
<title>Storm::Component::AirFilterMonitor::Input_T</title>
<polygon fill="white" stroke="none" points="-4,4 -4,-322.5 2634,-322.5 2634,4 -4,4"/>
<!-- Node1 -->
<g id="node1" class="node"><title>Node1</title>
<g id="a_node1"><a xlink:title="Input Model Points.">
<polygon fill="#bfbfbf" stroke="black" points="2492,-119.5 2492,-149.5 2630,-149.5 2630,-119.5 2492,-119.5"/>
<text text-anchor="start" x="2500" y="-137.5" font-family="Helvetica,sans-Serif" font-size="10.00">Storm::Component::AirFilter</text>
<text text-anchor="middle" x="2561" y="-126.5" font-family="Helvetica,sans-Serif" font-size="10.00">Monitor::Input_T</text>
</a>
</g>
</g>
<!-- Node2 -->
<g id="node2" class="node"><title>Node2</title>
<g id="a_node2"><a xlink:href="class_storm_1_1_dm_1_1_mp_virtual_outputs.html" target="_top" xlink:title="This class provides a concrete implementation for the virtual outputs for the system.">
<polygon fill="white" stroke="black" points="1379,-258 1379,-277 1525,-277 1525,-258 1379,-258"/>
<text text-anchor="middle" x="1452" y="-265" font-family="Helvetica,sans-Serif" font-size="10.00">Storm::Dm::MpVirtualOutputs</text>
</a>
</g>
</g>
<!-- Node2&#45;&gt;Node1 -->
<g id="edge1" class="edge"><title>Node2&#45;&gt;Node1</title>
<path fill="none" stroke="#9a32cd" stroke-dasharray="5,2" d="M1535.42,-263.789C1597.55,-261.31 1684.86,-258.5 1761.5,-258.5 1761.5,-258.5 1761.5,-258.5 2322.5,-258.5 2415.53,-258.5 2508.16,-182.816 2544.23,-149.705"/>
<polygon fill="#9a32cd" stroke="#9a32cd" points="1535.14,-260.298 1525.29,-264.2 1535.42,-267.292 1535.14,-260.298"/>
<text text-anchor="middle" x="1992" y="-261.5" font-family="Helvetica,sans-Serif" font-size="10.00"> vOutputs</text>
</g>
<!-- Node3 -->
<g id="node3" class="node"><title>Node3</title>
<g id="a_node3"><a xlink:href="class_cpl_1_1_dm_1_1_model_point_common__.html" target="_top" xlink:title="This concrete class provide common infrastructure for a Model Point.">
<polygon fill="white" stroke="black" points="1156,-161 1156,-180 1307,-180 1307,-161 1156,-161"/>
<text text-anchor="middle" x="1231.5" y="-168" font-family="Helvetica,sans-Serif" font-size="10.00">Cpl::Dm::ModelPointCommon_</text>
</a>
</g>
</g>
<!-- Node3&#45;&gt;Node2 -->
<g id="edge2" class="edge"><title>Node3&#45;&gt;Node2</title>
<path fill="none" stroke="midnightblue" d="M1249.74,-187.296C1267.26,-203.398 1295.89,-227.169 1325,-240.5 1342.19,-248.371 1361.76,-253.988 1380.26,-257.981"/>
<polygon fill="midnightblue" stroke="midnightblue" points="1251.76,-184.391 1242.08,-180.087 1246.97,-189.489 1251.76,-184.391"/>
</g>
<!-- Node22 -->
<g id="node22" class="node"><title>Node22</title>
<g id="a_node22"><a xlink:href="class_cpl_1_1_dm_1_1_mp_1_1_basic.html" target="_top" xlink:title=" ">
<polygon fill="white" stroke="black" points="1691,-82 1691,-123 1834,-123 1834,-82 1691,-82"/>
<text text-anchor="start" x="1699" y="-111" font-family="Helvetica,sans-Serif" font-size="10.00">Cpl::Dm::Mp::Basic</text>
<text text-anchor="start" x="1699" y="-100" font-family="Helvetica,sans-Serif" font-size="10.00">&lt; Cpl::System::ElapsedTime</text>
<text text-anchor="middle" x="1762.5" y="-89" font-family="Helvetica,sans-Serif" font-size="10.00">::Precision_T &gt;</text>
</a>
</g>
</g>
<!-- Node3&#45;&gt;Node22 -->
<g id="edge22" class="edge"><title>Node3&#45;&gt;Node22</title>
<path fill="none" stroke="midnightblue" d="M1252.2,-154.441C1278.98,-133.76 1329.25,-98.8866 1379,-85.5 1484.75,-57.0431 1612.81,-72.2541 1690.66,-86.7134"/>
<polygon fill="midnightblue" stroke="midnightblue" points="1249.75,-151.922 1244.06,-160.86 1254.08,-157.42 1249.75,-151.922"/>
</g>
<!-- Node24 -->
<g id="node24" class="node"><title>Node24</title>
<g id="a_node24"><a xlink:href="class_cpl_1_1_dm_1_1_mp_1_1_basic.html" target="_top" xlink:title="This template class provides a mostly concrete implementation for a Model Point who&#39;s data is a C pri...">
<polygon fill="white" stroke="black" points="1401,-155.5 1401,-185.5 1503,-185.5 1503,-155.5 1401,-155.5"/>
<text text-anchor="start" x="1409" y="-173.5" font-family="Helvetica,sans-Serif" font-size="10.00">Cpl::Dm::Mp::Basic</text>
<text text-anchor="middle" x="1452" y="-162.5" font-family="Helvetica,sans-Serif" font-size="10.00">&lt; ELEMTYPE &gt;</text>
</a>
</g>
</g>
<!-- Node3&#45;&gt;Node24 -->
<g id="edge25" class="edge"><title>Node3&#45;&gt;Node24</title>
<path fill="none" stroke="midnightblue" d="M1317.36,-170.5C1345.57,-170.5 1376.06,-170.5 1400.79,-170.5"/>
<polygon fill="midnightblue" stroke="midnightblue" points="1317.08,-167 1307.08,-170.5 1317.08,-174 1317.08,-167"/>
</g>
<!-- Node25 -->
<g id="node25" class="node"><title>Node25</title>
<g id="a_node25"><a xlink:href="class_storm_1_1_dm_1_1_mp_simple_alarm.html" target="_top" xlink:title="This class provides a concrete implementation for a simple Alarm that has following attributes:">
<polygon fill="white" stroke="black" points="1382.5,-19 1382.5,-38 1521.5,-38 1521.5,-19 1382.5,-19"/>
<text text-anchor="middle" x="1452" y="-26" font-family="Helvetica,sans-Serif" font-size="10.00">Storm::Dm::MpSimpleAlarm</text>
</a>
</g>
</g>
<!-- Node3&#45;&gt;Node25 -->
<g id="edge27" class="edge"><title>Node3&#45;&gt;Node25</title>
<path fill="none" stroke="midnightblue" d="M1242.14,-151.785C1256.51,-125.848 1286.1,-79.4702 1325,-55.5 1342.14,-44.9374 1362.8,-38.4645 1382.39,-34.5113"/>
<polygon fill="midnightblue" stroke="midnightblue" points="1238.87,-150.466 1237.23,-160.932 1245.04,-153.774 1238.87,-150.466"/>
</g>
<!-- Node29 -->
<g id="node29" class="node"><title>Node29</title>
<g id="a_node29"><a xlink:href="class_cpl_1_1_dm_1_1_mp_1_1_basic.html" target="_top" xlink:title=" ">
<polygon fill="white" stroke="black" points="1711.5,-194.5 1711.5,-224.5 1813.5,-224.5 1813.5,-194.5 1711.5,-194.5"/>
<text text-anchor="start" x="1719.5" y="-212.5" font-family="Helvetica,sans-Serif" font-size="10.00">Cpl::Dm::Mp::Basic</text>
<text text-anchor="middle" x="1762.5" y="-201.5" font-family="Helvetica,sans-Serif" font-size="10.00">&lt; uint32_t &gt;</text>
</a>
</g>
</g>
<!-- Node3&#45;&gt;Node29 -->
<g id="edge32" class="edge"><title>Node3&#45;&gt;Node29</title>
<path fill="none" stroke="midnightblue" d="M1296.95,-181.73C1322.46,-185.999 1352.07,-190.737 1379,-194.5 1451.67,-204.656 1469.75,-209.271 1543,-213.5 1600.68,-216.83 1615.24,-214.805 1673,-213.5 1685.45,-213.219 1698.89,-212.715 1711.43,-212.158"/>
<polygon fill="midnightblue" stroke="midnightblue" points="1297.46,-178.267 1287.02,-180.058 1296.3,-185.17 1297.46,-178.267"/>
</g>
<!-- Node4 -->
<g id="node4" class="node"><title>Node4</title>
<g id="a_node4"><a xlink:href="class_cpl_1_1_dm_1_1_model_point.html" target="_top" xlink:title="This mostly abstract class defines the interface for a Model Point.">
<polygon fill="white" stroke="black" points="913,-267 913,-286 1020,-286 1020,-267 913,-267"/>
<text text-anchor="middle" x="966.5" y="-274" font-family="Helvetica,sans-Serif" font-size="10.00">Cpl::Dm::ModelPoint</text>
</a>
</g>
</g>
<!-- Node4&#45;&gt;Node3 -->
<g id="edge3" class="edge"><title>Node4&#45;&gt;Node3</title>
<path fill="none" stroke="midnightblue" d="M1000.73,-263.107C1054.53,-241.423 1159.43,-199.144 1206.56,-180.148"/>
<polygon fill="midnightblue" stroke="midnightblue" points="999.27,-259.922 991.303,-266.906 1001.89,-266.414 999.27,-259.922"/>
</g>
<!-- Node5 -->
<g id="node5" class="node"><title>Node5</title>
<g id="a_node5"><a xlink:href="class_cpl_1_1_container_1_1_map_item.html" target="_top" xlink:title="This abstract class represents a item that can be contained in an Map (aka a sorted list implemented ...">
<polygon fill="white" stroke="black" points="607,-299 607,-318 729,-318 729,-299 607,-299"/>
<text text-anchor="middle" x="668" y="-306" font-family="Helvetica,sans-Serif" font-size="10.00">Cpl::Container::MapItem</text>
</a>
</g>
</g>
<!-- Node5&#45;&gt;Node4 -->
<g id="edge4" class="edge"><title>Node5&#45;&gt;Node4</title>
<path fill="none" stroke="midnightblue" d="M739.032,-300.942C792.183,-295.205 864.131,-287.44 912.545,-282.215"/>
<polygon fill="midnightblue" stroke="midnightblue" points="738.568,-297.471 729.001,-302.024 739.319,-304.431 738.568,-297.471"/>
</g>
<!-- Node6 -->
<g id="node6" class="node"><title>Node6</title>
<g id="a_node6"><a xlink:href="class_cpl_1_1_container_1_1_dict_item.html" target="_top" xlink:title="This abstract class represents a item that can be contained in Dictionary.">
<polygon fill="white" stroke="black" points="326,-299 326,-318 447,-318 447,-299 326,-299"/>
<text text-anchor="middle" x="386.5" y="-306" font-family="Helvetica,sans-Serif" font-size="10.00">Cpl::Container::DictItem</text>
</a>
</g>
</g>
<!-- Node6&#45;&gt;Node5 -->
<g id="edge5" class="edge"><title>Node6&#45;&gt;Node5</title>
<path fill="none" stroke="midnightblue" d="M457.319,-308.5C503.374,-308.5 563.078,-308.5 606.993,-308.5"/>
<polygon fill="midnightblue" stroke="midnightblue" points="457.117,-305 447.117,-308.5 457.117,-312 457.117,-305"/>
</g>
<!-- Node7 -->
<g id="node7" class="node"><title>Node7</title>
<g id="a_node7"><a xlink:href="class_cpl_1_1_container_1_1_extended_item.html" target="_top" xlink:title="This class is used by the Container classes to implement a various types of DOUBLY linked containers.">
<polygon fill="white" stroke="black" points="141,-299 141,-318 286,-318 286,-299 141,-299"/>
<text text-anchor="middle" x="213.5" y="-306" font-family="Helvetica,sans-Serif" font-size="10.00">Cpl::Container::ExtendedItem</text>
</a>
</g>
</g>
<!-- Node7&#45;&gt;Node6 -->
<g id="edge6" class="edge"><title>Node7&#45;&gt;Node6</title>
<path fill="none" stroke="midnightblue" d="M296.047,-308.5C306.111,-308.5 316.248,-308.5 325.899,-308.5"/>
<polygon fill="midnightblue" stroke="midnightblue" points="296.029,-305 286.029,-308.5 296.029,-312 296.029,-305"/>
</g>
<!-- Node8 -->
<g id="node8" class="node"><title>Node8</title>
<g id="a_node8"><a xlink:href="class_cpl_1_1_container_1_1_item.html" target="_top" xlink:title="This class is used by the Container classes to implement a various types of singly linked containers.">
<polygon fill="white" stroke="black" points="0,-299 0,-318 104,-318 104,-299 0,-299"/>
<text text-anchor="middle" x="52" y="-306" font-family="Helvetica,sans-Serif" font-size="10.00">Cpl::Container::Item</text>
</a>
</g>
</g>
<!-- Node8&#45;&gt;Node7 -->
<g id="edge7" class="edge"><title>Node8&#45;&gt;Node7</title>
<path fill="none" stroke="midnightblue" d="M114.375,-308.5C123.061,-308.5 132.056,-308.5 140.915,-308.5"/>
<polygon fill="midnightblue" stroke="midnightblue" points="114.345,-305 104.345,-308.5 114.345,-312 114.345,-305"/>
</g>
<!-- Node9 -->
<g id="node9" class="node"><title>Node9</title>
<g id="a_node9"><a xlink:href="class_cpl_1_1_dm_1_1_model_database.html" target="_top" xlink:title="This concrete class implements a simple Model Database.">
<polygon fill="white" stroke="black" points="904,-192 904,-211 1029,-211 1029,-192 904,-192"/>
<text text-anchor="middle" x="966.5" y="-199" font-family="Helvetica,sans-Serif" font-size="10.00">Cpl::Dm::ModelDatabase</text>
</a>
</g>
</g>
<!-- Node9&#45;&gt;Node3 -->
<g id="edge8" class="edge"><title>Node9&#45;&gt;Node3</title>
<path fill="none" stroke="#9a32cd" stroke-dasharray="5,2" d="M1039.14,-193.056C1075.26,-188.798 1119.06,-183.636 1155.63,-179.325"/>
<polygon fill="#9a32cd" stroke="#9a32cd" points="1038.68,-189.585 1029.16,-194.232 1039.5,-196.537 1038.68,-189.585"/>
<text text-anchor="middle" x="1095.5" y="-194.5" font-family="Helvetica,sans-Serif" font-size="10.00"> m_modelDatabase</text>
</g>
<!-- Node10 -->
<g id="node10" class="node"><title>Node10</title>
<g id="a_node10"><a xlink:href="class_cpl_1_1_dm_1_1_model_database_api.html" target="_top" xlink:title="This class defines the basic operations that can be performed on a Model Base.">
<polygon fill="white" stroke="black" points="598,-261 598,-280 738,-280 738,-261 598,-261"/>
<text text-anchor="middle" x="668" y="-268" font-family="Helvetica,sans-Serif" font-size="10.00">Cpl::Dm::ModelDatabaseApi</text>
</a>
</g>
</g>
<!-- Node10&#45;&gt;Node9 -->
<g id="edge9" class="edge"><title>Node10&#45;&gt;Node9</title>
<path fill="none" stroke="midnightblue" d="M748.132,-260.814C788.085,-254.965 837.062,-246.322 880,-234.5 902.397,-228.334 927.057,-218.467 944.114,-211.127"/>
<polygon fill="midnightblue" stroke="midnightblue" points="747.58,-257.357 738.178,-262.241 748.574,-264.287 747.58,-257.357"/>
</g>
<!-- Node11 -->
<g id="node11" class="node"><title>Node11</title>
<g id="a_node11"><a xlink:href="class_cpl_1_1_container_1_1_map.html" target="_top" xlink:title=" ">
<polygon fill="white" stroke="black" points="605.5,-211.5 605.5,-241.5 730.5,-241.5 730.5,-211.5 605.5,-211.5"/>
<text text-anchor="start" x="613.5" y="-229.5" font-family="Helvetica,sans-Serif" font-size="10.00">Cpl::Container::Map</text>
<text text-anchor="middle" x="668" y="-218.5" font-family="Helvetica,sans-Serif" font-size="10.00">&lt; Cpl::Dm::ModelPoint &gt;</text>
</a>
</g>
</g>
<!-- Node11&#45;&gt;Node9 -->
<g id="edge10" class="edge"><title>Node11&#45;&gt;Node9</title>
<path fill="none" stroke="#9a32cd" stroke-dasharray="5,2" d="M740.855,-220.441C790.674,-216.241 856.33,-210.705 903.784,-206.704"/>
<polygon fill="#9a32cd" stroke="#9a32cd" points="740.466,-216.962 730.795,-221.29 741.054,-223.937 740.466,-216.962"/>
<text text-anchor="middle" x="818" y="-222.5" font-family="Helvetica,sans-Serif" font-size="10.00"> m_map</text>
</g>
<!-- Node12 -->
<g id="node12" class="node"><title>Node12</title>
<g id="a_node12"><a xlink:href="class_cpl_1_1_container_1_1_map.html" target="_top" xlink:title="This template class implements an Map using an AVL Binary tree (i.e.">
<polygon fill="white" stroke="black" points="335,-211.5 335,-241.5 438,-241.5 438,-211.5 335,-211.5"/>
<text text-anchor="start" x="343" y="-229.5" font-family="Helvetica,sans-Serif" font-size="10.00">Cpl::Container::Map</text>
<text text-anchor="middle" x="386.5" y="-218.5" font-family="Helvetica,sans-Serif" font-size="10.00">&lt; ITEM &gt;</text>
</a>
</g>
</g>
<!-- Node12&#45;&gt;Node11 -->
<g id="edge11" class="edge"><title>Node12&#45;&gt;Node11</title>
<path fill="none" stroke="orange" stroke-dasharray="5,2" d="M448.347,-226.5C494.819,-226.5 558.606,-226.5 605.29,-226.5"/>
<polygon fill="orange" stroke="orange" points="448.115,-223 438.115,-226.5 448.115,-230 448.115,-223"/>
<text text-anchor="middle" x="524" y="-229.5" font-family="Helvetica,sans-Serif" font-size="10.00"> &lt; Cpl::Dm::ModelPoint &gt;</text>
</g>
<!-- Node13 -->
<g id="node13" class="node"><title>Node13</title>
<g id="a_node13"><a xlink:href="class_cpl_1_1_system_1_1_mutex.html" target="_top" xlink:title="This mutex class defines the interface for a mutex that has &quot;recursive&quot; semantics.">
<polygon fill="white" stroke="black" points="616,-173 616,-192 720,-192 720,-173 616,-173"/>
<text text-anchor="middle" x="668" y="-180" font-family="Helvetica,sans-Serif" font-size="10.00">Cpl::System::Mutex</text>
</a>
</g>
</g>
<!-- Node13&#45;&gt;Node9 -->
<g id="edge12" class="edge"><title>Node13&#45;&gt;Node9</title>
<path fill="none" stroke="#9a32cd" stroke-dasharray="5,2" d="M730.378,-182.265C772.542,-182.589 829.758,-183.983 880,-188.5 889.571,-189.36 899.7,-190.603 909.51,-191.983"/>
<polygon fill="#9a32cd" stroke="#9a32cd" points="730.288,-178.765 720.268,-182.206 730.247,-185.765 730.288,-178.765"/>
<text text-anchor="middle" x="818" y="-191.5" font-family="Helvetica,sans-Serif" font-size="10.00"> m_lock</text>
</g>
<!-- Node14 -->
<g id="node14" class="node"><title>Node14</title>
<g id="a_node14"><a xlink:href="class_cpl_1_1_container_1_1_d_list.html" target="_top" xlink:title=" ">
<polygon fill="white" stroke="black" points="898,-123.5 898,-153.5 1035,-153.5 1035,-123.5 898,-123.5"/>
<text text-anchor="start" x="906" y="-141.5" font-family="Helvetica,sans-Serif" font-size="10.00">Cpl::Container::DList</text>
<text text-anchor="middle" x="966.5" y="-130.5" font-family="Helvetica,sans-Serif" font-size="10.00">&lt; Cpl::Dm::SubscriberApi &gt;</text>
</a>
</g>
</g>
<!-- Node14&#45;&gt;Node3 -->
<g id="edge13" class="edge"><title>Node14&#45;&gt;Node3</title>
<path fill="none" stroke="#9a32cd" stroke-dasharray="5,2" d="M1045.36,-147.973C1080.2,-152.212 1121.1,-157.189 1155.59,-161.386"/>
<polygon fill="#9a32cd" stroke="#9a32cd" points="1045.58,-144.474 1035.23,-146.741 1044.73,-151.423 1045.58,-144.474"/>
<text text-anchor="middle" x="1095.5" y="-162.5" font-family="Helvetica,sans-Serif" font-size="10.00"> m_subscribers</text>
</g>
<!-- Node15 -->
<g id="node15" class="node"><title>Node15</title>
<g id="a_node15"><a xlink:href="class_cpl_1_1_container_1_1_d_list.html" target="_top" xlink:title="This template class implements a Doubly linked list which maintains the ordering imposed on it by the...">
<polygon fill="white" stroke="black" points="614.5,-123.5 614.5,-153.5 721.5,-153.5 721.5,-123.5 614.5,-123.5"/>
<text text-anchor="start" x="622.5" y="-141.5" font-family="Helvetica,sans-Serif" font-size="10.00">Cpl::Container::DList</text>
<text text-anchor="middle" x="668" y="-130.5" font-family="Helvetica,sans-Serif" font-size="10.00">&lt; ITEM &gt;</text>
</a>
</g>
</g>
<!-- Node15&#45;&gt;Node14 -->
<g id="edge14" class="edge"><title>Node15&#45;&gt;Node14</title>
<path fill="none" stroke="orange" stroke-dasharray="5,2" d="M731.774,-138.5C780.532,-138.5 848.026,-138.5 897.954,-138.5"/>
<polygon fill="orange" stroke="orange" points="731.667,-135 721.667,-138.5 731.667,-142 731.667,-135"/>
<text text-anchor="middle" x="818" y="-141.5" font-family="Helvetica,sans-Serif" font-size="10.00"> &lt; Cpl::Dm::SubscriberApi &gt;</text>
</g>
<!-- Node16 -->
<g id="node16" class="node"><title>Node16</title>
<g id="a_node16"><a xlink:href="class_cpl_1_1_dm_1_1_static_info.html" target="_top" xlink:title="This class defines an interface for a Model Point to store its constant/static data in program memory...">
<polygon fill="white" stroke="black" points="916.5,-83 916.5,-102 1016.5,-102 1016.5,-83 916.5,-83"/>
<text text-anchor="middle" x="966.5" y="-90" font-family="Helvetica,sans-Serif" font-size="10.00">Cpl::Dm::StaticInfo</text>
</a>
</g>
</g>
<!-- Node16&#45;&gt;Node3 -->
<g id="edge15" class="edge"><title>Node16&#45;&gt;Node3</title>
<path fill="none" stroke="#9a32cd" stroke-dasharray="5,2" d="M1021.11,-104.355C1054.91,-112.24 1099.33,-123.353 1138,-135.5 1162.08,-143.065 1189.01,-153.482 1207.57,-160.982"/>
<polygon fill="#9a32cd" stroke="#9a32cd" points="1021.51,-100.855 1010.98,-102.014 1019.93,-107.676 1021.51,-100.855"/>
<text text-anchor="middle" x="1095.5" y="-138.5" font-family="Helvetica,sans-Serif" font-size="10.00"> m_staticInfo</text>
</g>
<!-- Node17 -->
<g id="node17" class="node"><title>Node17</title>
<g id="a_node17"><a xlink:href="class_cpl_1_1_container_1_1_key_literal_string.html" target="_top" xlink:title="This class provides a &#39;Key&#39; wrapper for a C string literal.">
<polygon fill="white" stroke="black" points="604,-74.5 604,-104.5 732,-104.5 732,-74.5 604,-74.5"/>
<text text-anchor="start" x="612" y="-92.5" font-family="Helvetica,sans-Serif" font-size="10.00">Cpl::Container::KeyLiteral</text>
<text text-anchor="middle" x="668" y="-81.5" font-family="Helvetica,sans-Serif" font-size="10.00">String</text>
</a>
</g>
</g>
<!-- Node17&#45;&gt;Node16 -->
<g id="edge16" class="edge"><title>Node17&#45;&gt;Node16</title>
<path fill="none" stroke="midnightblue" d="M742.469,-90.2434C796.575,-90.7908 868.686,-91.5204 916.069,-91.9999"/>
<polygon fill="midnightblue" stroke="midnightblue" points="742.278,-86.7413 732.243,-90.1399 742.207,-93.741 742.278,-86.7413"/>
</g>
<!-- Node18 -->
<g id="node18" class="node"><title>Node18</title>
<g id="a_node18"><a xlink:href="class_cpl_1_1_container_1_1_key_string_buffer.html" target="_top" xlink:title="This class provides a &#39;Key&#39; wrapper for a array of Character of length N, i.e.">
<polygon fill="white" stroke="black" points="323,-74.5 323,-104.5 450,-104.5 450,-74.5 323,-74.5"/>
<text text-anchor="start" x="331" y="-92.5" font-family="Helvetica,sans-Serif" font-size="10.00">Cpl::Container::KeyString</text>
<text text-anchor="middle" x="386.5" y="-81.5" font-family="Helvetica,sans-Serif" font-size="10.00">Buffer</text>
</a>
</g>
</g>
<!-- Node18&#45;&gt;Node17 -->
<g id="edge17" class="edge"><title>Node18&#45;&gt;Node17</title>
<path fill="none" stroke="midnightblue" d="M460.373,-89.5C504.769,-89.5 560.948,-89.5 603.517,-89.5"/>
<polygon fill="midnightblue" stroke="midnightblue" points="460.225,-86.0001 450.225,-89.5 460.225,-93.0001 460.225,-86.0001"/>
</g>
<!-- Node19 -->
<g id="node19" class="node"><title>Node19</title>
<g id="a_node19"><a xlink:href="class_cpl_1_1_container_1_1_key.html" target="_top" xlink:title="This abstract class defines the interface that a contained object must support if it has comparable k...">
<polygon fill="white" stroke="black" points="163,-80 163,-99 264,-99 264,-80 163,-80"/>
<text text-anchor="middle" x="213.5" y="-87" font-family="Helvetica,sans-Serif" font-size="10.00">Cpl::Container::Key</text>
</a>
</g>
</g>
<!-- Node19&#45;&gt;Node18 -->
<g id="edge18" class="edge"><title>Node19&#45;&gt;Node18</title>
<path fill="none" stroke="midnightblue" d="M274.481,-89.5C290.103,-89.5 306.976,-89.5 322.737,-89.5"/>
<polygon fill="midnightblue" stroke="midnightblue" points="274.42,-86.0001 264.42,-89.5 274.42,-93.0001 274.42,-86.0001"/>
</g>
<!-- Node20 -->
<g id="node20" class="node"><title>Node20</title>
<g id="a_node20"><a xlink:href="namespace_storm_1_1_type.html#struct_storm_1_1_type_1_1_virtual_outputs___t" target="_top" xlink:title="The following typedef is used to hold the virtual outputs for System.">
<polygon fill="white" stroke="black" points="1156.5,-278 1156.5,-297 1306.5,-297 1306.5,-278 1156.5,-278"/>
<text text-anchor="middle" x="1231.5" y="-285" font-family="Helvetica,sans-Serif" font-size="10.00">Storm::Type::VirtualOutputs_T</text>
</a>
</g>
</g>
<!-- Node20&#45;&gt;Node2 -->
<g id="edge19" class="edge"><title>Node20&#45;&gt;Node2</title>
<path fill="none" stroke="#9a32cd" stroke-dasharray="5,2" d="M1317,-279.766C1337.39,-277.899 1359,-275.921 1378.78,-274.111"/>
<polygon fill="#9a32cd" stroke="#9a32cd" points="1316.42,-276.304 1306.78,-280.701 1317.06,-283.275 1316.42,-276.304"/>
<text text-anchor="middle" x="1343" y="-282.5" font-family="Helvetica,sans-Serif" font-size="10.00"> m_data</text>
</g>
<!-- Node21 -->
<g id="node21" class="node"><title>Node21</title>
<g id="a_node21"><a xlink:href="class_cpl_1_1_dm_1_1_mp_1_1_elapsed_precision_time.html" target="_top" xlink:title="This class provides a concrete implementation for a Point who&#39;s data a Cpl::System::ElapsedTime::Prec...">
<polygon fill="white" stroke="black" points="2076,-101 2076,-120 2251,-120 2251,-101 2076,-101"/>
<text text-anchor="middle" x="2163.5" y="-108" font-family="Helvetica,sans-Serif" font-size="10.00">Cpl::Dm::Mp::ElapsedPrecisionTime</text>
</a>
</g>
</g>
<!-- Node21&#45;&gt;Node1 -->
<g id="edge20" class="edge"><title>Node21&#45;&gt;Node1</title>
<path fill="none" stroke="#9a32cd" stroke-dasharray="5,2" d="M2261.65,-116.395C2333.05,-120.728 2428.3,-126.508 2491.77,-130.36"/>
<polygon fill="#9a32cd" stroke="#9a32cd" points="2261.49,-112.879 2251.29,-115.767 2261.06,-119.866 2261.49,-112.879"/>
<text text-anchor="middle" x="2321.5" y="-126.5" font-family="Helvetica,sans-Serif" font-size="10.00"> airFilterOperationTime</text>
</g>
<!-- Node22&#45;&gt;Node21 -->
<g id="edge21" class="edge"><title>Node22&#45;&gt;Node21</title>
<path fill="none" stroke="midnightblue" d="M1844.5,-104.124C1911.76,-105.473 2007.2,-107.386 2075.95,-108.765"/>
<polygon fill="midnightblue" stroke="midnightblue" points="1844.44,-100.622 1834.37,-103.921 1844.3,-107.621 1844.44,-100.622"/>
</g>
<!-- Node23 -->
<g id="node23" class="node"><title>Node23</title>
<g id="a_node23"><a xlink:href="struct_cpl_1_1_system_1_1_elapsed_time_1_1_precision___tag.html" target="_top" xlink:title="Data type for time in seconds with a &#39;fractional&#39; millisecond precision.">
<polygon fill="white" stroke="black" points="1385,-95.5 1385,-125.5 1519,-125.5 1519,-95.5 1385,-95.5"/>
<text text-anchor="start" x="1393" y="-113.5" font-family="Helvetica,sans-Serif" font-size="10.00">Cpl::System::ElapsedTime</text>
<text text-anchor="middle" x="1452" y="-102.5" font-family="Helvetica,sans-Serif" font-size="10.00">::Precision_Tag</text>
</a>
</g>
</g>
<!-- Node23&#45;&gt;Node22 -->
<g id="edge23" class="edge"><title>Node23&#45;&gt;Node22</title>
<path fill="none" stroke="#9a32cd" stroke-dasharray="5,2" d="M1529.39,-101.425C1533.99,-101.061 1538.55,-100.746 1543,-100.5 1592.24,-97.7728 1647.82,-98.3311 1690.6,-99.5414"/>
<polygon fill="#9a32cd" stroke="#9a32cd" points="1528.95,-97.9495 1519.28,-102.294 1529.55,-104.924 1528.95,-97.9495"/>
<text text-anchor="middle" x="1608" y="-103.5" font-family="Helvetica,sans-Serif" font-size="10.00"> m_data</text>
</g>
<!-- Node24&#45;&gt;Node22 -->
<g id="edge24" class="edge"><title>Node24&#45;&gt;Node22</title>
<path fill="none" stroke="orange" stroke-dasharray="5,2" d="M1498.71,-151.808C1512.74,-146.597 1528.35,-141.322 1543,-137.5 1591.7,-124.798 1647.77,-115.931 1690.92,-110.3"/>
<polygon fill="orange" stroke="orange" points="1497.38,-148.567 1489.27,-155.388 1499.86,-155.112 1497.38,-148.567"/>
<text text-anchor="start" x="1543" y="-151.5" font-family="Helvetica,sans-Serif" font-size="10.00"> &lt; Cpl::System::ElapsedTime</text>
<text text-anchor="middle" x="1608" y="-140.5" font-family="Helvetica,sans-Serif" font-size="10.00">::Precision_T &gt;</text>
</g>
<!-- Node24&#45;&gt;Node29 -->
<g id="edge33" class="edge"><title>Node24&#45;&gt;Node29</title>
<path fill="none" stroke="orange" stroke-dasharray="5,2" d="M1513.33,-178.127C1571.07,-185.427 1657.16,-196.309 1711.27,-203.15"/>
<polygon fill="orange" stroke="orange" points="1513.61,-174.635 1503.25,-176.853 1512.73,-181.579 1513.61,-174.635"/>
<text text-anchor="middle" x="1608" y="-201.5" font-family="Helvetica,sans-Serif" font-size="10.00"> &lt; uint32_t &gt;</text>
</g>
<!-- Node30 -->
<g id="node30" class="node"><title>Node30</title>
<g id="a_node30"><a xlink:href="class_cpl_1_1_dm_1_1_mp_1_1_basic_integer.html" target="_top" xlink:title="This template class extends the implementation of Basic&lt;ELEMTYPE&gt; to support the toJSON() and fromJSO...">
<polygon fill="white" stroke="black" points="1696.5,-145.5 1696.5,-175.5 1828.5,-175.5 1828.5,-145.5 1696.5,-145.5"/>
<text text-anchor="start" x="1704.5" y="-163.5" font-family="Helvetica,sans-Serif" font-size="10.00">Cpl::Dm::Mp::BasicInteger</text>
<text text-anchor="middle" x="1762.5" y="-152.5" font-family="Helvetica,sans-Serif" font-size="10.00">&lt; ELEMTYPE &gt;</text>
</a>
</g>
</g>
<!-- Node24&#45;&gt;Node30 -->
<g id="edge35" class="edge"><title>Node24&#45;&gt;Node30</title>
<path fill="none" stroke="midnightblue" d="M1513.45,-168.54C1566.09,-166.834 1642.21,-164.367 1696.22,-162.616"/>
<polygon fill="midnightblue" stroke="midnightblue" points="1513.13,-165.049 1503.25,-168.871 1513.36,-172.045 1513.13,-165.049"/>
</g>
<!-- Node25&#45;&gt;Node1 -->
<g id="edge26" class="edge"><title>Node25&#45;&gt;Node1</title>
<path fill="none" stroke="#9a32cd" stroke-dasharray="5,2" d="M1531.76,-31.2715C1594.09,-33.227 1683.35,-35.5 1761.5,-35.5 1761.5,-35.5 1761.5,-35.5 2322.5,-35.5 2408.72,-35.5 2499.92,-91.7691 2539.59,-119.464"/>
<polygon fill="#9a32cd" stroke="#9a32cd" points="1531.71,-27.7683 1521.61,-30.9483 1531.49,-34.7647 1531.71,-27.7683"/>
<text text-anchor="middle" x="1992" y="-38.5" font-family="Helvetica,sans-Serif" font-size="10.00"> airFilterAlert</text>
</g>
<!-- Node26 -->
<g id="node26" class="node"><title>Node26</title>
<g id="a_node26"><a xlink:href="class_storm_1_1_dm_1_1_mp_simple_alarm.html#struct_storm_1_1_dm_1_1_mp_simple_alarm_1_1_data" target="_top" xlink:title="The MP&#39;s Data container.">
<polygon fill="white" stroke="black" points="1162,-0.5 1162,-30.5 1301,-30.5 1301,-0.5 1162,-0.5"/>
<text text-anchor="start" x="1170" y="-18.5" font-family="Helvetica,sans-Serif" font-size="10.00">Storm::Dm::MpSimpleAlarm</text>
<text text-anchor="middle" x="1231.5" y="-7.5" font-family="Helvetica,sans-Serif" font-size="10.00">::Data</text>
</a>
</g>
</g>
<!-- Node26&#45;&gt;Node25 -->
<g id="edge28" class="edge"><title>Node26&#45;&gt;Node25</title>
<path fill="none" stroke="#9a32cd" stroke-dasharray="5,2" d="M1311.36,-14.5614C1327.78,-14.8013 1344.97,-15.3731 1361,-16.5 1369.49,-17.0968 1378.4,-17.9757 1387.18,-18.9913"/>
<polygon fill="#9a32cd" stroke="#9a32cd" points="1311.29,-11.0605 1301.25,-14.4529 1311.21,-18.0601 1311.29,-11.0605"/>
<text text-anchor="middle" x="1343" y="-19.5" font-family="Helvetica,sans-Serif" font-size="10.00"> m_data</text>
</g>
<!-- Node27 -->
<g id="node27" class="node"><title>Node27</title>
<g id="a_node27"><a xlink:href="class_cpl_1_1_dm_1_1_mp_1_1_uint32.html" target="_top" xlink:title="This class provides a concrete implementation for a Point who&#39;s data is a uint32_t.">
<polygon fill="white" stroke="black" points="2269,-147 2269,-166 2374,-166 2374,-147 2269,-147"/>
<text text-anchor="middle" x="2321.5" y="-154" font-family="Helvetica,sans-Serif" font-size="10.00">Cpl::Dm::Mp::Uint32</text>
</a>
</g>
</g>
<!-- Node27&#45;&gt;Node1 -->
<g id="edge29" class="edge"><title>Node27&#45;&gt;Node1</title>
<path fill="none" stroke="#9a32cd" stroke-dasharray="5,2" d="M2384.02,-150.801C2417.07,-147.74 2457.88,-143.96 2491.88,-140.81"/>
<polygon fill="#9a32cd" stroke="#9a32cd" points="2383.67,-147.319 2374.03,-151.726 2384.31,-154.289 2383.67,-147.319"/>
<text text-anchor="middle" x="2433" y="-153.5" font-family="Helvetica,sans-Serif" font-size="10.00"> maxAirFilterHours</text>
</g>
<!-- Node28 -->
<g id="node28" class="node"><title>Node28</title>
<g id="a_node28"><a xlink:href="class_cpl_1_1_dm_1_1_mp_1_1_basic_integer.html" target="_top" xlink:title=" ">
<polygon fill="white" stroke="black" points="1926,-145.5 1926,-175.5 2058,-175.5 2058,-145.5 1926,-145.5"/>
<text text-anchor="start" x="1934" y="-163.5" font-family="Helvetica,sans-Serif" font-size="10.00">Cpl::Dm::Mp::BasicInteger</text>
<text text-anchor="middle" x="1992" y="-152.5" font-family="Helvetica,sans-Serif" font-size="10.00">&lt; uint32_t &gt;</text>
</a>
</g>
</g>
<!-- Node28&#45;&gt;Node27 -->
<g id="edge30" class="edge"><title>Node28&#45;&gt;Node27</title>
<path fill="none" stroke="midnightblue" d="M2068.13,-159.582C2129.63,-158.831 2214.98,-157.789 2268.97,-157.129"/>
<polygon fill="midnightblue" stroke="midnightblue" points="2068.05,-156.083 2058.1,-159.705 2068.14,-163.082 2068.05,-156.083"/>
</g>
<!-- Node29&#45;&gt;Node28 -->
<g id="edge31" class="edge"><title>Node29&#45;&gt;Node28</title>
<path fill="none" stroke="midnightblue" d="M1823.65,-196.544C1855.1,-189.771 1893.63,-181.473 1925.79,-174.546"/>
<polygon fill="midnightblue" stroke="midnightblue" points="1822.75,-193.159 1813.71,-198.686 1824.22,-200.002 1822.75,-193.159"/>
</g>
<!-- Node30&#45;&gt;Node28 -->
<g id="edge34" class="edge"><title>Node30&#45;&gt;Node28</title>
<path fill="none" stroke="orange" stroke-dasharray="5,2" d="M1838.88,-160.5C1867,-160.5 1898.67,-160.5 1925.8,-160.5"/>
<polygon fill="orange" stroke="orange" points="1838.69,-157 1828.69,-160.5 1838.69,-164 1838.69,-157"/>
<text text-anchor="middle" x="1880" y="-163.5" font-family="Helvetica,sans-Serif" font-size="10.00"> &lt; uint32_t &gt;</text>
</g>
</g>
</svg>
