<?xml version="1.0" encoding="UTF-8" standalone="no"?>
<!DOCTYPE svg PUBLIC "-//W3C//DTD SVG 1.1//EN"
 "http://www.w3.org/Graphics/SVG/1.1/DTD/svg11.dtd">
<!-- Generated by graphviz version 2.38.0 (20140413.2041)
 -->
<!-- Title: Cpl::Dm::Persistent::Record::Item_T Pages: 1 -->
<svg width="2241pt" height="517pt"
 viewBox="0.00 0.00 2241.00 516.50" xmlns="http://www.w3.org/2000/svg" xmlns:xlink="http://www.w3.org/1999/xlink">
<g id="graph0" class="graph" transform="scale(1 1) rotate(0) translate(4 512.5)">
<title>Cpl::Dm::Persistent::Record::Item_T</title>
<polygon fill="white" stroke="none" points="-4,4 -4,-512.5 2237,-512.5 2237,4 -4,4"/>
<!-- Node1 -->
<g id="node1" class="node"><title>Node1</title>
<g id="a_node1"><a xlink:title="This data structure associates a Data Model subscriber instance with a Model Point instance.">
<polygon fill="#bfbfbf" stroke="black" points="1495,-116 1495,-146 1597,-146 1597,-116 1495,-116"/>
<text text-anchor="start" x="1503" y="-134" font-family="Helvetica,sans-Serif" font-size="10.00">Cpl::Dm::Persistent</text>
<text text-anchor="middle" x="1546" y="-123" font-family="Helvetica,sans-Serif" font-size="10.00">::Record::Item_T</text>
</a>
</g>
</g>
<!-- Node25 -->
<g id="node25" class="node"><title>Node25</title>
<g id="a_node25"><a xlink:href="class_cpl_1_1_dm_1_1_persistent_1_1_record.html" target="_top" xlink:title="This mostly concrete class implements the Cpl::Persistent::Record interface where a Record instance c...">
<polygon fill="white" stroke="black" points="1778.5,-70 1778.5,-100 1880.5,-100 1880.5,-70 1778.5,-70"/>
<text text-anchor="start" x="1786.5" y="-88" font-family="Helvetica,sans-Serif" font-size="10.00">Cpl::Dm::Persistent</text>
<text text-anchor="middle" x="1829.5" y="-77" font-family="Helvetica,sans-Serif" font-size="10.00">::Record</text>
</a>
</g>
</g>
<!-- Node1&#45;&gt;Node25 -->
<g id="edge34" class="edge"><title>Node1&#45;&gt;Node25</title>
<path fill="none" stroke="#9a32cd" stroke-dasharray="5,2" d="M1606.91,-121.209C1657.97,-112.866 1730.5,-101.015 1778.49,-93.1721"/>
<polygon fill="#9a32cd" stroke="#9a32cd" points="1606.31,-117.762 1597,-122.829 1607.44,-124.671 1606.31,-117.762"/>
<text text-anchor="middle" x="1681" y="-121" font-family="Helvetica,sans-Serif" font-size="10.00"> m_items</text>
</g>
<!-- Node2 -->
<g id="node2" class="node"><title>Node2</title>
<g id="a_node2"><a xlink:href="class_cpl_1_1_dm_1_1_subscriber_composer.html" target="_top" xlink:title=" ">
<polygon fill="white" stroke="black" points="2082,-162.5 2082,-203.5 2233,-203.5 2233,-162.5 2082,-162.5"/>
<text text-anchor="start" x="2090" y="-191.5" font-family="Helvetica,sans-Serif" font-size="10.00">Cpl::Dm::SubscriberComposer</text>
<text text-anchor="start" x="2090" y="-180.5" font-family="Helvetica,sans-Serif" font-size="10.00">&lt; Cpl::Dm::Persistent::Record,</text>
<text text-anchor="middle" x="2157.5" y="-169.5" font-family="Helvetica,sans-Serif" font-size="10.00"> Cpl::Dm::ModelPoint &gt;</text>
</a>
</g>
</g>
<!-- Node2&#45;&gt;Node1 -->
<g id="edge1" class="edge"><title>Node2&#45;&gt;Node1</title>
<path fill="none" stroke="#9a32cd" stroke-dasharray="5,2" d="M2071.72,-169.906C2069.12,-169.589 2066.54,-169.285 2064,-169 1893.17,-149.823 1689.46,-138.109 1597.03,-133.397"/>
<polygon fill="#9a32cd" stroke="#9a32cd" points="2071.48,-173.404 2081.85,-171.198 2072.37,-166.46 2071.48,-173.404"/>
<text text-anchor="middle" x="1829.5" y="-157" font-family="Helvetica,sans-Serif" font-size="10.00"> observerPtr</text>
</g>
<!-- Node3 -->
<g id="node3" class="node"><title>Node3</title>
<g id="a_node3"><a xlink:href="class_cpl_1_1_dm_1_1_subscriber.html" target="_top" xlink:title=" ">
<polygon fill="white" stroke="black" points="1767,-261 1767,-291 1892,-291 1892,-261 1767,-261"/>
<text text-anchor="start" x="1775" y="-279" font-family="Helvetica,sans-Serif" font-size="10.00">Cpl::Dm::Subscriber</text>
<text text-anchor="middle" x="1829.5" y="-268" font-family="Helvetica,sans-Serif" font-size="10.00">&lt; Cpl::Dm::ModelPoint &gt;</text>
</a>
</g>
</g>
<!-- Node3&#45;&gt;Node2 -->
<g id="edge2" class="edge"><title>Node3&#45;&gt;Node2</title>
<path fill="none" stroke="midnightblue" d="M1902.36,-273.362C1949.56,-269.754 2011.95,-261.364 2064,-242 2088.28,-232.967 2112.87,-216.88 2130.58,-203.784"/>
<polygon fill="midnightblue" stroke="midnightblue" points="1901.96,-269.882 1892.23,-274.082 1902.45,-276.865 1901.96,-269.882"/>
</g>
<!-- Node4 -->
<g id="node4" class="node"><title>Node4</title>
<g id="a_node4"><a xlink:href="class_cpl_1_1_dm_1_1_subscriber_base.html" target="_top" xlink:title="This mostly concrete class defines the Subscriber interface &#45; for change notifications &#45; to a Model P...">
<polygon fill="white" stroke="black" points="1321,-232.5 1321,-251.5 1448,-251.5 1448,-232.5 1321,-232.5"/>
<text text-anchor="middle" x="1384.5" y="-239.5" font-family="Helvetica,sans-Serif" font-size="10.00">Cpl::Dm::SubscriberBase</text>
</a>
</g>
</g>
<!-- Node4&#45;&gt;Node3 -->
<g id="edge3" class="edge"><title>Node4&#45;&gt;Node3</title>
<path fill="none" stroke="midnightblue" d="M1427.84,-254.13C1445.38,-258.652 1466.02,-263.331 1485,-266 1582.78,-279.755 1697.69,-279.904 1766.72,-278.291"/>
<polygon fill="midnightblue" stroke="midnightblue" points="1428.47,-250.676 1417.91,-251.502 1426.68,-257.443 1428.47,-250.676"/>
</g>
<!-- Node24 -->
<g id="node24" class="node"><title>Node24</title>
<g id="a_node24"><a xlink:href="class_cpl_1_1_dm_1_1_subscriber.html" target="_top" xlink:title="This template class defines a type safe Subscriber.">
<polygon fill="white" stroke="black" points="1494,-227 1494,-257 1598,-257 1598,-227 1494,-227"/>
<text text-anchor="start" x="1502" y="-245" font-family="Helvetica,sans-Serif" font-size="10.00">Cpl::Dm::Subscriber</text>
<text text-anchor="middle" x="1546" y="-234" font-family="Helvetica,sans-Serif" font-size="10.00">&lt; MP &gt;</text>
</a>
</g>
</g>
<!-- Node4&#45;&gt;Node24 -->
<g id="edge29" class="edge"><title>Node4&#45;&gt;Node24</title>
<path fill="none" stroke="midnightblue" d="M1458.15,-242C1470.22,-242 1482.51,-242 1493.91,-242"/>
<polygon fill="midnightblue" stroke="midnightblue" points="1458.08,-238.5 1448.08,-242 1458.08,-245.5 1458.08,-238.5"/>
</g>
<!-- Node5 -->
<g id="node5" class="node"><title>Node5</title>
<g id="a_node5"><a xlink:href="class_cpl_1_1_dm_1_1_subscriber_api.html" target="_top" xlink:title="This abstract class defines the Subscriber interface &#45; for change notifications &#45; to a Model Points d...">
<polygon fill="white" stroke="black" points="802,-220.5 802,-239.5 921,-239.5 921,-220.5 802,-220.5"/>
<text text-anchor="middle" x="861.5" y="-227.5" font-family="Helvetica,sans-Serif" font-size="10.00">Cpl::Dm::SubscriberApi</text>
</a>
</g>
</g>
<!-- Node5&#45;&gt;Node4 -->
<g id="edge4" class="edge"><title>Node5&#45;&gt;Node4</title>
<path fill="none" stroke="midnightblue" d="M931.176,-231.582C1033.02,-233.927 1222.6,-238.294 1320.85,-240.557"/>
<polygon fill="midnightblue" stroke="midnightblue" points="931.078,-228.079 921,-231.347 930.917,-235.077 931.078,-228.079"/>
</g>
<!-- Node6 -->
<g id="node6" class="node"><title>Node6</title>
<g id="a_node6"><a xlink:href="class_cpl_1_1_container_1_1_extended_item.html" target="_top" xlink:title="This class is used by the Container classes to implement a various types of DOUBLY linked containers.">
<polygon fill="white" stroke="black" points="314,-211.5 314,-230.5 459,-230.5 459,-211.5 314,-211.5"/>
<text text-anchor="middle" x="386.5" y="-218.5" font-family="Helvetica,sans-Serif" font-size="10.00">Cpl::Container::ExtendedItem</text>
</a>
</g>
</g>
<!-- Node6&#45;&gt;Node5 -->
<g id="edge5" class="edge"><title>Node6&#45;&gt;Node5</title>
<path fill="none" stroke="midnightblue" d="M469.204,-222.555C564.017,-224.359 718.026,-227.289 801.758,-228.882"/>
<polygon fill="midnightblue" stroke="midnightblue" points="469.146,-219.053 459.082,-222.362 469.013,-226.052 469.146,-219.053"/>
</g>
<!-- Node23 -->
<g id="node23" class="node"><title>Node23</title>
<g id="a_node23"><a xlink:href="class_cpl_1_1_container_1_1_dict_item.html" target="_top" xlink:title="This abstract class represents a item that can be contained in Dictionary.">
<polygon fill="white" stroke="black" points="654,-173.5 654,-192.5 775,-192.5 775,-173.5 654,-173.5"/>
<text text-anchor="middle" x="714.5" y="-180.5" font-family="Helvetica,sans-Serif" font-size="10.00">Cpl::Container::DictItem</text>
</a>
</g>
</g>
<!-- Node6&#45;&gt;Node23 -->
<g id="edge27" class="edge"><title>Node6&#45;&gt;Node23</title>
<path fill="none" stroke="midnightblue" d="M465.181,-210.15C473.554,-209.052 481.952,-207.982 490,-207 545.396,-200.244 608.642,-193.547 653.683,-188.951"/>
<polygon fill="midnightblue" stroke="midnightblue" points="464.459,-206.715 455.005,-211.499 465.378,-213.655 464.459,-206.715"/>
</g>
<!-- Node7 -->
<g id="node7" class="node"><title>Node7</title>
<g id="a_node7"><a xlink:href="class_cpl_1_1_container_1_1_item.html" target="_top" xlink:title="This class is used by the Container classes to implement a various types of singly linked containers.">
<polygon fill="white" stroke="black" points="1.5,-231.5 1.5,-250.5 105.5,-250.5 105.5,-231.5 1.5,-231.5"/>
<text text-anchor="middle" x="53.5" y="-238.5" font-family="Helvetica,sans-Serif" font-size="10.00">Cpl::Container::Item</text>
</a>
</g>
</g>
<!-- Node7&#45;&gt;Node6 -->
<g id="edge6" class="edge"><title>Node7&#45;&gt;Node6</title>
<path fill="none" stroke="midnightblue" d="M115.99,-237.285C171.991,-233.901 254.71,-228.903 313.719,-225.337"/>
<polygon fill="midnightblue" stroke="midnightblue" points="115.626,-233.8 105.856,-237.897 116.048,-240.787 115.626,-233.8"/>
</g>
<!-- Node12 -->
<g id="node12" class="node"><title>Node12</title>
<g id="a_node12"><a xlink:href="class_cpl_1_1_system_1_1_signable.html" target="_top" xlink:title="This abstract class defines the interface by which a client can cause an object that is waiting&#45;on&#45;a&#45;...">
<polygon fill="white" stroke="black" points="329.5,-255.5 329.5,-274.5 443.5,-274.5 443.5,-255.5 329.5,-255.5"/>
<text text-anchor="middle" x="386.5" y="-262.5" font-family="Helvetica,sans-Serif" font-size="10.00">Cpl::System::Signable</text>
</a>
</g>
</g>
<!-- Node7&#45;&gt;Node12 -->
<g id="edge12" class="edge"><title>Node7&#45;&gt;Node12</title>
<path fill="none" stroke="midnightblue" d="M116.135,-245.469C177.273,-249.902 270.151,-256.636 329.313,-260.926"/>
<polygon fill="midnightblue" stroke="midnightblue" points="116.083,-241.956 105.856,-244.724 115.576,-248.938 116.083,-241.956"/>
</g>
<!-- Node8 -->
<g id="node8" class="node"><title>Node8</title>
<g id="a_node8"><a xlink:href="class_cpl_1_1_dm_1_1_event_loop.html" target="_top" xlink:title="This class extends the Cpl::System::EventLoop class to support the asynchronous change notification g...">
<polygon fill="white" stroke="black" points="1103.5,-363.5 1103.5,-382.5 1207.5,-382.5 1207.5,-363.5 1103.5,-363.5"/>
<text text-anchor="middle" x="1155.5" y="-370.5" font-family="Helvetica,sans-Serif" font-size="10.00">Cpl::Dm::EventLoop</text>
</a>
</g>
</g>
<!-- Node8&#45;&gt;Node4 -->
<g id="edge7" class="edge"><title>Node8&#45;&gt;Node4</title>
<path fill="none" stroke="#9a32cd" stroke-dasharray="5,2" d="M1182.12,-358.217C1229.02,-331.15 1327.49,-274.326 1366.78,-251.647"/>
<polygon fill="#9a32cd" stroke="#9a32cd" points="1180.1,-355.337 1173.19,-363.367 1183.6,-361.4 1180.1,-355.337"/>
<text text-anchor="middle" x="1265" y="-334" font-family="Helvetica,sans-Serif" font-size="10.00"> m_eventLoopHdl</text>
</g>
<!-- Node9 -->
<g id="node9" class="node"><title>Node9</title>
<g id="a_node9"><a xlink:href="class_cpl_1_1_system_1_1_event_loop.html" target="_top" xlink:title="This concrete class is a Runnable object that provides a event driven execution model for a thread.">
<polygon fill="white" stroke="black" points="940.5,-344.5 940.5,-363.5 1063.5,-363.5 1063.5,-344.5 940.5,-344.5"/>
<text text-anchor="middle" x="1002" y="-351.5" font-family="Helvetica,sans-Serif" font-size="10.00">Cpl::System::EventLoop</text>
</a>
</g>
</g>
<!-- Node9&#45;&gt;Node8 -->
<g id="edge8" class="edge"><title>Node9&#45;&gt;Node8</title>
<path fill="none" stroke="midnightblue" d="M1073.72,-362.869C1083.75,-364.128 1093.91,-365.401 1103.47,-366.601"/>
<polygon fill="midnightblue" stroke="midnightblue" points="1074.11,-359.39 1063.75,-361.619 1073.23,-366.336 1074.11,-359.39"/>
</g>
<!-- Node10 -->
<g id="node10" class="node"><title>Node10</title>
<g id="a_node10"><a xlink:href="class_cpl_1_1_system_1_1_runnable.html" target="_top" xlink:title="This is an abstract class defines the interface for an object that is &quot;executed&quot; when a Thread object...">
<polygon fill="white" stroke="black" points="656,-401.5 656,-420.5 773,-420.5 773,-401.5 656,-401.5"/>
<text text-anchor="middle" x="714.5" y="-408.5" font-family="Helvetica,sans-Serif" font-size="10.00">Cpl::System::Runnable</text>
</a>
</g>
</g>
<!-- Node10&#45;&gt;Node9 -->
<g id="edge9" class="edge"><title>Node10&#45;&gt;Node9</title>
<path fill="none" stroke="midnightblue" d="M783.39,-401.79C823.62,-395.831 875.473,-387.274 921,-377 937.634,-373.246 955.931,-368.066 970.823,-363.572"/>
<polygon fill="midnightblue" stroke="midnightblue" points="782.811,-398.337 773.424,-403.249 783.825,-405.264 782.811,-398.337"/>
</g>
<!-- Node11 -->
<g id="node11" class="node"><title>Node11</title>
<g id="a_node11"><a xlink:href="class_cpl_1_1_system_1_1_event_flag.html" target="_top" xlink:title="This abstract class defines the interface to generated a &#39;Event Flag&#39;.">
<polygon fill="white" stroke="black" points="654,-363.5 654,-382.5 775,-382.5 775,-363.5 654,-363.5"/>
<text text-anchor="middle" x="714.5" y="-370.5" font-family="Helvetica,sans-Serif" font-size="10.00">Cpl::System::EventFlag</text>
</a>
</g>
</g>
<!-- Node11&#45;&gt;Node9 -->
<g id="edge10" class="edge"><title>Node11&#45;&gt;Node9</title>
<path fill="none" stroke="midnightblue" d="M785.185,-368.362C832.579,-365.208 894.684,-361.075 940.098,-358.053"/>
<polygon fill="midnightblue" stroke="midnightblue" points="784.748,-364.884 775.003,-369.04 785.213,-371.868 784.748,-364.884"/>
</g>
<!-- Node12&#45;&gt;Node9 -->
<g id="edge11" class="edge"><title>Node12&#45;&gt;Node9</title>
<path fill="none" stroke="midnightblue" d="M453.678,-272.759C575.921,-287.244 832.702,-318.431 921,-335 935.171,-337.659 950.612,-341.177 964.116,-344.463"/>
<polygon fill="midnightblue" stroke="midnightblue" points="454.036,-269.277 443.694,-271.577 453.214,-276.228 454.036,-269.277"/>
</g>
<!-- Node17 -->
<g id="node17" class="node"><title>Node17</title>
<g id="a_node17"><a xlink:href="class_cpl_1_1_system_1_1_semaphore.html" target="_top" xlink:title="This semaphore class defines the interface for a Counting Semaphore.">
<polygon fill="white" stroke="black" points="651.5,-325.5 651.5,-344.5 777.5,-344.5 777.5,-325.5 651.5,-325.5"/>
<text text-anchor="middle" x="714.5" y="-332.5" font-family="Helvetica,sans-Serif" font-size="10.00">Cpl::System::Semaphore</text>
</a>
</g>
</g>
<!-- Node12&#45;&gt;Node17 -->
<g id="edge18" class="edge"><title>Node12&#45;&gt;Node17</title>
<path fill="none" stroke="midnightblue" d="M413.19,-279.269C433.43,-289.827 462.695,-303.607 490,-311 543.302,-325.431 605.963,-331.241 651.352,-333.552"/>
<polygon fill="midnightblue" stroke="midnightblue" points="414.768,-276.144 404.296,-274.534 411.478,-282.323 414.768,-276.144"/>
</g>
<!-- Node18 -->
<g id="node18" class="node"><title>Node18</title>
<g id="a_node18"><a xlink:href="class_cpl_1_1_system_1_1_thread.html" target="_top" xlink:title="This abstract class defines the operations that can be performed on a thread.">
<polygon fill="white" stroke="black" points="661,-249.5 661,-268.5 768,-268.5 768,-249.5 661,-249.5"/>
<text text-anchor="middle" x="714.5" y="-256.5" font-family="Helvetica,sans-Serif" font-size="10.00">Cpl::System::Thread</text>
</a>
</g>
</g>
<!-- Node12&#45;&gt;Node18 -->
<g id="edge20" class="edge"><title>Node12&#45;&gt;Node18</title>
<path fill="none" stroke="midnightblue" d="M453.856,-263.779C514.998,-262.653 604.538,-261.005 660.883,-259.968"/>
<polygon fill="midnightblue" stroke="midnightblue" points="453.475,-260.285 443.541,-263.969 453.604,-267.284 453.475,-260.285"/>
</g>
<!-- Node13 -->
<g id="node13" class="node"><title>Node13</title>
<g id="a_node13"><a xlink:href="class_cpl_1_1_system_1_1_timer_manager.html" target="_top" xlink:title="This mostly concrete class implements manages a list of Software Timers.">
<polygon fill="white" stroke="black" points="645,-439.5 645,-458.5 784,-458.5 784,-439.5 645,-439.5"/>
<text text-anchor="middle" x="714.5" y="-446.5" font-family="Helvetica,sans-Serif" font-size="10.00">Cpl::System::TimerManager</text>
</a>
</g>
</g>
<!-- Node13&#45;&gt;Node9 -->
<g id="edge13" class="edge"><title>Node13&#45;&gt;Node9</title>
<path fill="none" stroke="midnightblue" d="M794.122,-444.676C835.038,-439.141 884.08,-427.05 921,-401 933.088,-392.471 927.208,-381.934 939,-373 944.115,-369.125 950.025,-366.033 956.124,-363.568"/>
<polygon fill="midnightblue" stroke="midnightblue" points="793.669,-441.206 784.179,-445.916 794.535,-448.152 793.669,-441.206"/>
</g>
<!-- Node14 -->
<g id="node14" class="node"><title>Node14</title>
<g id="a_node14"><a xlink:href="class_cpl_1_1_system_1_1_counter_source__.html" target="_top" xlink:title="This abstract class defines the interface for registering for an Counter object with the Timer Manage...">
<polygon fill="white" stroke="black" points="313.5,-395.5 313.5,-414.5 459.5,-414.5 459.5,-395.5 313.5,-395.5"/>
<text text-anchor="middle" x="386.5" y="-402.5" font-family="Helvetica,sans-Serif" font-size="10.00">Cpl::System::CounterSource_</text>
</a>
</g>
</g>
<!-- Node14&#45;&gt;Node13 -->
<g id="edge14" class="edge"><title>Node14&#45;&gt;Node13</title>
<path fill="none" stroke="midnightblue" d="M468.174,-415.888C522.463,-423.216 593.274,-432.773 644.857,-439.735"/>
<polygon fill="midnightblue" stroke="midnightblue" points="468.615,-412.416 458.237,-414.547 467.679,-419.354 468.615,-412.416"/>
</g>
<!-- Node15 -->
<g id="node15" class="node"><title>Node15</title>
<g id="a_node15"><a xlink:href="class_cpl_1_1_container_1_1_d_list.html" target="_top" xlink:title=" ">
<polygon fill="white" stroke="black" points="301,-434 301,-464 472,-464 472,-434 301,-434"/>
<text text-anchor="start" x="309" y="-452" font-family="Helvetica,sans-Serif" font-size="10.00">Cpl::Container::DList</text>
<text text-anchor="middle" x="386.5" y="-441" font-family="Helvetica,sans-Serif" font-size="10.00">&lt; Cpl::System::CounterCallback_ &gt;</text>
</a>
</g>
</g>
<!-- Node15&#45;&gt;Node13 -->
<g id="edge15" class="edge"><title>Node15&#45;&gt;Node13</title>
<path fill="none" stroke="#9a32cd" stroke-dasharray="5,2" d="M482.315,-447.084C484.904,-447.053 487.469,-447.025 490,-447 550.886,-446.406 566.115,-446.296 627,-447 632.708,-447.066 638.627,-447.156 644.569,-447.263"/>
<polygon fill="#9a32cd" stroke="#9a32cd" points="482.19,-443.585 472.237,-447.218 482.283,-450.585 482.19,-443.585"/>
<text text-anchor="middle" x="558.5" y="-461" font-family="Helvetica,sans-Serif" font-size="10.00"> m_pendingAttach</text>
<text text-anchor="middle" x="558.5" y="-450" font-family="Helvetica,sans-Serif" font-size="10.00">m_counters</text>
</g>
<!-- Node16 -->
<g id="node16" class="node"><title>Node16</title>
<g id="a_node16"><a xlink:href="class_cpl_1_1_container_1_1_d_list.html" target="_top" xlink:title="This template class implements a Doubly linked list which maintains the ordering imposed on it by the...">
<polygon fill="white" stroke="black" points="0,-458 0,-488 107,-488 107,-458 0,-458"/>
<text text-anchor="start" x="8" y="-476" font-family="Helvetica,sans-Serif" font-size="10.00">Cpl::Container::DList</text>
<text text-anchor="middle" x="53.5" y="-465" font-family="Helvetica,sans-Serif" font-size="10.00">&lt; ITEM &gt;</text>
</a>
</g>
</g>
<!-- Node16&#45;&gt;Node15 -->
<g id="edge16" class="edge"><title>Node16&#45;&gt;Node15</title>
<path fill="none" stroke="orange" stroke-dasharray="5,2" d="M117.256,-460.966C119.868,-460.611 122.457,-460.287 125,-460 183.475,-453.407 249.738,-450.673 300.799,-449.58"/>
<polygon fill="orange" stroke="orange" points="116.501,-457.539 107.121,-462.464 117.525,-464.464 116.501,-457.539"/>
<text text-anchor="middle" x="204" y="-463" font-family="Helvetica,sans-Serif" font-size="10.00"> &lt; Cpl::System::CounterCallback_ &gt;</text>
</g>
<!-- Node20 -->
<g id="node20" class="node"><title>Node20</title>
<g id="a_node20"><a xlink:href="class_cpl_1_1_container_1_1_d_list.html" target="_top" xlink:title=" ">
<polygon fill="white" stroke="black" points="490,-478 490,-508 627,-508 627,-478 490,-478"/>
<text text-anchor="start" x="498" y="-496" font-family="Helvetica,sans-Serif" font-size="10.00">Cpl::Container::DList</text>
<text text-anchor="middle" x="558.5" y="-485" font-family="Helvetica,sans-Serif" font-size="10.00">&lt; Cpl::Dm::SubscriberApi &gt;</text>
</a>
</g>
</g>
<!-- Node16&#45;&gt;Node20 -->
<g id="edge23" class="edge"><title>Node16&#45;&gt;Node20</title>
<path fill="none" stroke="orange" stroke-dasharray="5,2" d="M117.428,-475.502C212.51,-479.283 392.046,-486.421 489.844,-490.31"/>
<polygon fill="orange" stroke="orange" points="117.51,-472.003 107.379,-475.103 117.232,-478.997 117.51,-472.003"/>
<text text-anchor="middle" x="204" y="-484" font-family="Helvetica,sans-Serif" font-size="10.00"> &lt; Cpl::Dm::SubscriberApi &gt;</text>
</g>
<!-- Node17&#45;&gt;Node9 -->
<g id="edge17" class="edge"><title>Node17&#45;&gt;Node9</title>
<path fill="none" stroke="#9a32cd" stroke-dasharray="5,2" d="M787.671,-337.392C827.105,-338.981 876.783,-341.441 921,-345 927.269,-345.505 933.806,-346.11 940.323,-346.765"/>
<polygon fill="#9a32cd" stroke="#9a32cd" points="787.745,-333.893 777.616,-336.997 787.47,-340.887 787.745,-333.893"/>
<text text-anchor="middle" x="861.5" y="-348" font-family="Helvetica,sans-Serif" font-size="10.00"> m_sema</text>
</g>
<!-- Node18&#45;&gt;Node9 -->
<g id="edge19" class="edge"><title>Node18&#45;&gt;Node9</title>
<path fill="none" stroke="#9a32cd" stroke-dasharray="5,2" d="M778.405,-251.577C820.615,-249.271 876.431,-251.535 921,-272 955.884,-288.018 983.639,-326.491 995.188,-344.456"/>
<polygon fill="#9a32cd" stroke="#9a32cd" points="778.009,-248.095 768.256,-252.233 778.461,-255.081 778.009,-248.095"/>
<text text-anchor="middle" x="861.5" y="-275" font-family="Helvetica,sans-Serif" font-size="10.00"> m_myThreadPtr</text>
</g>
<!-- Node19 -->
<g id="node19" class="node"><title>Node19</title>
<g id="a_node19"><a xlink:href="class_cpl_1_1_dm_1_1_notification_api__.html" target="_top" xlink:title="This class has PACKAGE Scope, i.e.">
<polygon fill="white" stroke="black" points="939,-382.5 939,-401.5 1065,-401.5 1065,-382.5 939,-382.5"/>
<text text-anchor="middle" x="1002" y="-389.5" font-family="Helvetica,sans-Serif" font-size="10.00">Cpl::Dm::NotificationApi_</text>
</a>
</g>
</g>
<!-- Node19&#45;&gt;Node8 -->
<g id="edge21" class="edge"><title>Node19&#45;&gt;Node8</title>
<path fill="none" stroke="midnightblue" d="M1075,-382.97C1084.59,-381.768 1094.26,-380.555 1103.4,-379.409"/>
<polygon fill="midnightblue" stroke="midnightblue" points="1074.54,-379.5 1065.06,-384.217 1075.42,-386.445 1074.54,-379.5"/>
</g>
<!-- Node20&#45;&gt;Node8 -->
<g id="edge22" class="edge"><title>Node20&#45;&gt;Node8</title>
<path fill="none" stroke="#9a32cd" stroke-dasharray="5,2" d="M637.187,-487.187C737.772,-478.134 917.639,-456.717 1065,-411 1089.83,-403.297 1117.17,-391.11 1135.02,-382.622"/>
<polygon fill="#9a32cd" stroke="#9a32cd" points="636.763,-483.711 627.109,-488.077 637.378,-490.684 636.763,-483.711"/>
<text text-anchor="middle" x="861.5" y="-470" font-family="Helvetica,sans-Serif" font-size="10.00"> m_pendingMpNotifications</text>
</g>
<!-- Node21 -->
<g id="node21" class="node"><title>Node21</title>
<g id="a_node21"><a xlink:href="class_cpl_1_1_dm_1_1_model_point.html" target="_top" xlink:title="This mostly abstract class defines the interface for a Model Point.">
<polygon fill="white" stroke="black" points="1102,-173.5 1102,-192.5 1209,-192.5 1209,-173.5 1102,-173.5"/>
<text text-anchor="middle" x="1155.5" y="-180.5" font-family="Helvetica,sans-Serif" font-size="10.00">Cpl::Dm::ModelPoint</text>
</a>
</g>
</g>
<!-- Node21&#45;&gt;Node1 -->
<g id="edge38" class="edge"><title>Node21&#45;&gt;Node1</title>
<path fill="none" stroke="#9a32cd" stroke-dasharray="5,2" d="M1211.76,-171.606C1216.9,-170.672 1222.04,-169.787 1227,-169 1321.31,-154.023 1432.21,-142.038 1494.99,-135.772"/>
<polygon fill="#9a32cd" stroke="#9a32cd" points="1211.1,-168.168 1201.92,-173.446 1212.39,-175.049 1211.1,-168.168"/>
<text text-anchor="middle" x="1384.5" y="-159" font-family="Helvetica,sans-Serif" font-size="10.00"> mpPtr</text>
</g>
<!-- Node21&#45;&gt;Node2 -->
<g id="edge30" class="edge"><title>Node21&#45;&gt;Node2</title>
<path fill="none" stroke="#9a32cd" stroke-dasharray="5,2" d="M1219.28,-183C1264.85,-183 1327.99,-183 1383.5,-183 1383.5,-183 1383.5,-183 1830.5,-183 1916.67,-183 2015.65,-183 2081.73,-183"/>
<polygon fill="#9a32cd" stroke="#9a32cd" points="1219.25,-179.5 1209.25,-183 1219.25,-186.5 1219.25,-179.5"/>
<text text-anchor="middle" x="1546" y="-186" font-family="Helvetica,sans-Serif" font-size="10.00"> m_notificationCb</text>
</g>
<!-- Node21&#45;&gt;Node4 -->
<g id="edge24" class="edge"><title>Node21&#45;&gt;Node4</title>
<path fill="none" stroke="#9a32cd" stroke-dasharray="5,2" d="M1211.15,-194.687C1238.8,-200.852 1272.81,-208.821 1303,-217 1320.23,-221.669 1339.32,-227.565 1354.59,-232.459"/>
<polygon fill="#9a32cd" stroke="#9a32cd" points="1211.79,-191.244 1201.27,-192.5 1210.28,-198.079 1211.79,-191.244"/>
<text text-anchor="middle" x="1265" y="-220" font-family="Helvetica,sans-Serif" font-size="10.00"> m_point</text>
</g>
<!-- Node22 -->
<g id="node22" class="node"><title>Node22</title>
<g id="a_node22"><a xlink:href="class_cpl_1_1_container_1_1_map_item.html" target="_top" xlink:title="This abstract class represents a item that can be contained in an Map (aka a sorted list implemented ...">
<polygon fill="white" stroke="black" points="941,-173.5 941,-192.5 1063,-192.5 1063,-173.5 941,-173.5"/>
<text text-anchor="middle" x="1002" y="-180.5" font-family="Helvetica,sans-Serif" font-size="10.00">Cpl::Container::MapItem</text>
</a>
</g>
</g>
<!-- Node22&#45;&gt;Node21 -->
<g id="edge25" class="edge"><title>Node22&#45;&gt;Node21</title>
<path fill="none" stroke="midnightblue" d="M1073.54,-183C1083.03,-183 1092.63,-183 1101.74,-183"/>
<polygon fill="midnightblue" stroke="midnightblue" points="1073.31,-179.5 1063.31,-183 1073.31,-186.5 1073.31,-179.5"/>
</g>
<!-- Node23&#45;&gt;Node22 -->
<g id="edge26" class="edge"><title>Node23&#45;&gt;Node22</title>
<path fill="none" stroke="midnightblue" d="M785.221,-183C832.782,-183 895.146,-183 940.591,-183"/>
<polygon fill="midnightblue" stroke="midnightblue" points="785.003,-179.5 775.003,-183 785.003,-186.5 785.003,-179.5"/>
</g>
<!-- Node24&#45;&gt;Node3 -->
<g id="edge28" class="edge"><title>Node24&#45;&gt;Node3</title>
<path fill="none" stroke="orange" stroke-dasharray="5,2" d="M1608.5,-247.164C1645.76,-250.537 1694.19,-255.356 1737,-261 1746.58,-262.262 1756.69,-263.757 1766.56,-265.306"/>
<polygon fill="orange" stroke="orange" points="1608.58,-243.657 1598.31,-246.252 1607.96,-250.629 1608.58,-243.657"/>
<text text-anchor="middle" x="1681" y="-264" font-family="Helvetica,sans-Serif" font-size="10.00"> &lt; Cpl::Dm::ModelPoint &gt;</text>
</g>
<!-- Node29 -->
<g id="node29" class="node"><title>Node29</title>
<g id="a_node29"><a xlink:href="class_cpl_1_1_dm_1_1_subscriber_composer.html" target="_top" xlink:title="This template class is a composer pattern/class that manages the callback function for a Model Point&#39;...">
<polygon fill="white" stroke="black" points="1755,-212 1755,-242 1904,-242 1904,-212 1755,-212"/>
<text text-anchor="start" x="1763" y="-230" font-family="Helvetica,sans-Serif" font-size="10.00">Cpl::Dm::SubscriberComposer</text>
<text text-anchor="middle" x="1829.5" y="-219" font-family="Helvetica,sans-Serif" font-size="10.00">&lt; CONTEXT, MP &gt;</text>
</a>
</g>
</g>
<!-- Node24&#45;&gt;Node29 -->
<g id="edge37" class="edge"><title>Node24&#45;&gt;Node29</title>
<path fill="none" stroke="midnightblue" d="M1608.36,-238.73C1651.42,-236.436 1709.2,-233.357 1754.76,-230.929"/>
<polygon fill="midnightblue" stroke="midnightblue" points="1608.1,-235.239 1598.3,-239.266 1608.48,-242.229 1608.1,-235.239"/>
</g>
<!-- Node25&#45;&gt;Node2 -->
<g id="edge31" class="edge"><title>Node25&#45;&gt;Node2</title>
<path fill="none" stroke="#9a32cd" stroke-dasharray="5,2" d="M1890.93,-86.2465C1939.25,-89.0055 2007.95,-96.9411 2064,-119 2089.8,-129.155 2115.44,-147.736 2133.16,-162.27"/>
<polygon fill="#9a32cd" stroke="#9a32cd" points="1891.1,-82.751 1880.94,-85.7331 1890.75,-89.7418 1891.1,-82.751"/>
<text text-anchor="middle" x="1993" y="-122" font-family="Helvetica,sans-Serif" font-size="10.00"> m_context</text>
</g>
<!-- Node26 -->
<g id="node26" class="node"><title>Node26</title>
<g id="a_node26"><a xlink:href="class_cpl_1_1_persistent_1_1_record.html" target="_top" xlink:title="This abstract class defines the public interface for a Record instance.">
<polygon fill="white" stroke="black" points="1487,-0.5 1487,-19.5 1605,-19.5 1605,-0.5 1487,-0.5"/>
<text text-anchor="middle" x="1546" y="-7.5" font-family="Helvetica,sans-Serif" font-size="10.00">Cpl::Persistent::Record</text>
</a>
</g>
</g>
<!-- Node26&#45;&gt;Node25 -->
<g id="edge32" class="edge"><title>Node26&#45;&gt;Node25</title>
<path fill="none" stroke="midnightblue" d="M1604.03,-21.6611C1641.96,-29.7955 1692.75,-41.4151 1737,-54 1753.46,-58.6804 1771.32,-64.5524 1786.87,-69.9235"/>
<polygon fill="midnightblue" stroke="midnightblue" points="1604.69,-18.2238 1594.18,-19.5657 1603.23,-25.0705 1604.69,-18.2238"/>
</g>
<!-- Node27 -->
<g id="node27" class="node"><title>Node27</title>
<g id="a_node27"><a xlink:href="class_cpl_1_1_persistent_1_1_payload.html" target="_top" xlink:title="This abstract class defines the interface accessing the &#39;data payload&#39; of an individual Record instan...">
<polygon fill="white" stroke="black" points="1485,-76.5 1485,-95.5 1607,-95.5 1607,-76.5 1485,-76.5"/>
<text text-anchor="middle" x="1546" y="-83.5" font-family="Helvetica,sans-Serif" font-size="10.00">Cpl::Persistent::Payload</text>
</a>
</g>
</g>
<!-- Node27&#45;&gt;Node25 -->
<g id="edge33" class="edge"><title>Node27&#45;&gt;Node25</title>
<path fill="none" stroke="midnightblue" d="M1617.16,-85.7508C1667.3,-85.5726 1733.56,-85.3373 1778.42,-85.1779"/>
<polygon fill="midnightblue" stroke="midnightblue" points="1617.03,-82.2511 1607.04,-85.7867 1617.06,-89.2511 1617.03,-82.2511"/>
</g>
<!-- Node28 -->
<g id="node28" class="node"><title>Node28</title>
<g id="a_node28"><a xlink:href="class_cpl_1_1_persistent_1_1_chunk.html" target="_top" xlink:title="This abstract class defines the interface for a Chunk.">
<polygon fill="white" stroke="black" points="1488.5,-38.5 1488.5,-57.5 1603.5,-57.5 1603.5,-38.5 1488.5,-38.5"/>
<text text-anchor="middle" x="1546" y="-45.5" font-family="Helvetica,sans-Serif" font-size="10.00">Cpl::Persistent::Chunk</text>
</a>
</g>
</g>
<!-- Node28&#45;&gt;Node25 -->
<g id="edge35" class="edge"><title>Node28&#45;&gt;Node25</title>
<path fill="none" stroke="#9a32cd" stroke-dasharray="5,2" d="M1613.62,-55.5464C1650.1,-59.8088 1696.08,-65.3938 1737,-71 1750.37,-72.8322 1764.82,-74.9693 1778.2,-77.014"/>
<polygon fill="#9a32cd" stroke="#9a32cd" points="1613.93,-52.0593 1603.59,-54.3803 1613.12,-59.0124 1613.93,-52.0593"/>
<text text-anchor="middle" x="1681" y="-74" font-family="Helvetica,sans-Serif" font-size="10.00"> m_chunkHandler</text>
</g>
<!-- Node29&#45;&gt;Node2 -->
<g id="edge36" class="edge"><title>Node29&#45;&gt;Node2</title>
<path fill="none" stroke="orange" stroke-dasharray="5,2" d="M1914.36,-216.688C1958.85,-211.1 2014.43,-203.935 2064,-197 2069.79,-196.19 2075.78,-195.331 2081.8,-194.452"/>
<polygon fill="orange" stroke="orange" points="1913.66,-213.248 1904.17,-217.964 1914.53,-220.194 1913.66,-213.248"/>
<text text-anchor="start" x="1922" y="-230" font-family="Helvetica,sans-Serif" font-size="10.00"> &lt; Cpl::Dm::Persistent</text>
<text text-anchor="middle" x="1993" y="-219" font-family="Helvetica,sans-Serif" font-size="10.00">::Record, Cpl::Dm::ModelPoint &gt;</text>
</g>
</g>
</svg>
