<?xml version="1.0" encoding="UTF-8" standalone="no"?>
<!DOCTYPE svg PUBLIC "-//W3C//DTD SVG 1.1//EN"
 "http://www.w3.org/Graphics/SVG/1.1/DTD/svg11.dtd">
<!-- Generated by graphviz version 2.38.0 (20140413.2041)
 -->
<!-- Title: Storm::Component::Pi::Input_T Pages: 1 -->
<svg width="1547pt" height="209pt"
 viewBox="0.00 0.00 1547.00 208.58" xmlns="http://www.w3.org/2000/svg" xmlns:xlink="http://www.w3.org/1999/xlink">
<g id="graph0" class="graph" transform="scale(1 1) rotate(0) translate(4 204.576)">
<title>Storm::Component::Pi::Input_T</title>
<polygon fill="white" stroke="none" points="-4,4 -4,-204.576 1543,-204.576 1543,4 -4,4"/>
<!-- Node1 -->
<g id="node1" class="node"><title>Node1</title>
<g id="a_node1"><a xlink:title="Input Model Points.">
<polygon fill="#bfbfbf" stroke="black" points="1426,-99.5759 1426,-129.576 1539,-129.576 1539,-99.5759 1426,-99.5759"/>
<text text-anchor="start" x="1434" y="-117.576" font-family="Helvetica,sans-Serif" font-size="10.00">Storm::Component::Pi</text>
<text text-anchor="middle" x="1482.5" y="-106.576" font-family="Helvetica,sans-Serif" font-size="10.00">::Input_T</text>
</a>
</g>
</g>
<!-- Node2 -->
<g id="node2" class="node"><title>Node2</title>
<g id="a_node2"><a xlink:href="class_cpl_1_1_dm_1_1_mp_1_1_bool.html" target="_top" xlink:title="This class provides a concrete implementation for a Point who&#39;s data is a bool.">
<polygon fill="white" stroke="black" points="843,-122.076 843,-141.076 940,-141.076 940,-122.076 843,-122.076"/>
<text text-anchor="middle" x="891.5" y="-129.076" font-family="Helvetica,sans-Serif" font-size="10.00">Cpl::Dm::Mp::Bool</text>
</a>
</g>
</g>
<!-- Node2&#45;&gt;Node1 -->
<g id="edge1" class="edge"><title>Node2&#45;&gt;Node1</title>
<path fill="none" stroke="#9a32cd" stroke-dasharray="5,2" d="M950.131,-130.267C1045.42,-128.046 1241.81,-123.224 1408,-117.576 1413.74,-117.381 1419.74,-117.161 1425.72,-116.933"/>
<polygon fill="#9a32cd" stroke="#9a32cd" points="950.04,-126.768 940.124,-130.5 950.202,-133.766 950.04,-126.768"/>
<text text-anchor="middle" x="1152" y="-130.576" font-family="Helvetica,sans-Serif" font-size="10.00"> pulseResetPi</text>
</g>
<!-- Node3 -->
<g id="node3" class="node"><title>Node3</title>
<g id="a_node3"><a xlink:href="class_cpl_1_1_dm_1_1_model_point_common__.html" target="_top" xlink:title="This concrete class provide common infrastructure for a Model Point.">
<polygon fill="white" stroke="black" points="457,-84.0759 457,-103.076 608,-103.076 608,-84.0759 457,-84.0759"/>
<text text-anchor="middle" x="532.5" y="-91.0759" font-family="Helvetica,sans-Serif" font-size="10.00">Cpl::Dm::ModelPointCommon_</text>
</a>
</g>
</g>
<!-- Node3&#45;&gt;Node2 -->
<g id="edge2" class="edge"><title>Node3&#45;&gt;Node2</title>
<path fill="none" stroke="midnightblue" d="M603.195,-104.579C610.881,-105.657 618.6,-106.681 626,-107.576 701.529,-116.71 789.575,-124.04 842.627,-128.097"/>
<polygon fill="midnightblue" stroke="midnightblue" points="603.535,-101.092 593.139,-103.137 602.541,-108.021 603.535,-101.092"/>
</g>
<!-- Node10 -->
<g id="node10" class="node"><title>Node10</title>
<g id="a_node10"><a xlink:href="class_cpl_1_1_dm_1_1_mp_1_1_numeric.html" target="_top" xlink:title=" ">
<polygon fill="white" stroke="black" points="958,-72.5759 958,-102.576 1071,-102.576 1071,-72.5759 958,-72.5759"/>
<text text-anchor="start" x="966" y="-90.5759" font-family="Helvetica,sans-Serif" font-size="10.00">Cpl::Dm::Mp::Numeric</text>
<text text-anchor="middle" x="1014.5" y="-79.5759" font-family="Helvetica,sans-Serif" font-size="10.00">&lt; float, Float &gt;</text>
</a>
</g>
</g>
<!-- Node3&#45;&gt;Node10 -->
<g id="edge10" class="edge"><title>Node3&#45;&gt;Node10</title>
<path fill="none" stroke="midnightblue" d="M618.39,-92.5147C716.215,-91.2919 874.188,-89.3173 957.667,-88.2738"/>
<polygon fill="midnightblue" stroke="midnightblue" points="618.192,-89.0168 608.236,-92.6417 618.279,-96.0163 618.192,-89.0168"/>
</g>
<!-- Node11 -->
<g id="node11" class="node"><title>Node11</title>
<g id="a_node11"><a xlink:href="class_cpl_1_1_dm_1_1_mp_1_1_numeric.html" target="_top" xlink:title="This template class provides a mostly concrete implementation for a Model Point who&#39;s data is a C num...">
<polygon fill="white" stroke="black" points="685,-34.5759 685,-64.5759 820,-64.5759 820,-34.5759 685,-34.5759"/>
<text text-anchor="start" x="693" y="-52.5759" font-family="Helvetica,sans-Serif" font-size="10.00">Cpl::Dm::Mp::Numeric</text>
<text text-anchor="middle" x="752.5" y="-41.5759" font-family="Helvetica,sans-Serif" font-size="10.00">&lt; ELEMTYPE, MPTYPE &gt;</text>
</a>
</g>
</g>
<!-- Node3&#45;&gt;Node11 -->
<g id="edge12" class="edge"><title>Node3&#45;&gt;Node11</title>
<path fill="none" stroke="midnightblue" d="M590.731,-82.0246C619.598,-76.1982 654.775,-69.0984 684.855,-63.0272"/>
<polygon fill="midnightblue" stroke="midnightblue" points="589.913,-78.6192 580.803,-84.0285 591.298,-85.4808 589.913,-78.6192"/>
</g>
<!-- Node12 -->
<g id="node12" class="node"><title>Node12</title>
<g id="a_node12"><a xlink:href="class_storm_1_1_dm_1_1_mp_system_config.html" target="_top" xlink:title="This class provides a concrete implementation for a Point who&#39;s data is the the System Configuration ...">
<polygon fill="white" stroke="black" points="680,-160.076 680,-179.076 825,-179.076 825,-160.076 680,-160.076"/>
<text text-anchor="middle" x="752.5" y="-167.076" font-family="Helvetica,sans-Serif" font-size="10.00">Storm::Dm::MpSystemConfig</text>
</a>
</g>
</g>
<!-- Node3&#45;&gt;Node12 -->
<g id="edge14" class="edge"><title>Node3&#45;&gt;Node12</title>
<path fill="none" stroke="midnightblue" d="M557.362,-108.573C575.56,-119.417 601.573,-133.672 626,-142.576 646.625,-150.094 669.958,-155.823 690.862,-160.028"/>
<polygon fill="midnightblue" stroke="midnightblue" points="558.972,-105.456 548.608,-103.259 555.34,-111.44 558.972,-105.456"/>
</g>
<!-- Node15 -->
<g id="node15" class="node"><title>Node15</title>
<g id="a_node15"><a xlink:href="class_cpl_1_1_dm_1_1_mp_1_1_ref_counter.html" target="_top" xlink:title="This class provides a concrete implementation for a Point who&#39;s data is 32 bit unsigned reference cou...">
<polygon fill="white" stroke="black" points="1089,-5.07586 1089,-24.0759 1215,-24.0759 1215,-5.07586 1089,-5.07586"/>
<text text-anchor="middle" x="1152" y="-12.0759" font-family="Helvetica,sans-Serif" font-size="10.00">Cpl::Dm::Mp::RefCounter</text>
</a>
</g>
</g>
<!-- Node3&#45;&gt;Node15 -->
<g id="edge18" class="edge"><title>Node3&#45;&gt;Node15</title>
<path fill="none" stroke="midnightblue" d="M557.228,-78.5521C585.292,-61.719 634.018,-35.3762 680,-24.5759 823.121,9.04068 997.467,0.379743 1088.63,-7.76192"/>
<polygon fill="midnightblue" stroke="midnightblue" points="555.247,-75.6609 548.537,-83.86 558.896,-81.635 555.247,-75.6609"/>
</g>
<!-- Node4 -->
<g id="node4" class="node"><title>Node4</title>
<g id="a_node4"><a xlink:href="class_cpl_1_1_dm_1_1_model_point.html" target="_top" xlink:title="This mostly abstract class defines the interface for a Model Point.">
<polygon fill="white" stroke="black" points="220,-105.076 220,-124.076 327,-124.076 327,-105.076 220,-105.076"/>
<text text-anchor="middle" x="273.5" y="-112.076" font-family="Helvetica,sans-Serif" font-size="10.00">Cpl::Dm::ModelPoint</text>
</a>
</g>
</g>
<!-- Node4&#45;&gt;Node3 -->
<g id="edge3" class="edge"><title>Node4&#45;&gt;Node3</title>
<path fill="none" stroke="midnightblue" d="M337.487,-109.429C373.446,-106.491 418.748,-102.789 456.531,-99.7017"/>
<polygon fill="midnightblue" stroke="midnightblue" points="336.81,-105.973 327.128,-110.276 337.38,-112.949 336.81,-105.973"/>
</g>
<!-- Node5 -->
<g id="node5" class="node"><title>Node5</title>
<g id="a_node5"><a xlink:href="class_cpl_1_1_container_1_1_item.html" target="_top" xlink:title="This class is used by the Container classes to implement a various types of singly linked containers.">
<polygon fill="white" stroke="black" points="18,-105.076 18,-124.076 122,-124.076 122,-105.076 18,-105.076"/>
<text text-anchor="middle" x="70" y="-112.076" font-family="Helvetica,sans-Serif" font-size="10.00">Cpl::Container::Item</text>
</a>
</g>
</g>
<!-- Node5&#45;&gt;Node4 -->
<g id="edge4" class="edge"><title>Node5&#45;&gt;Node4</title>
<path fill="none" stroke="midnightblue" d="M132.16,-114.576C160.091,-114.576 192.85,-114.576 219.69,-114.576"/>
<polygon fill="midnightblue" stroke="midnightblue" points="132.107,-111.076 122.107,-114.576 132.107,-118.076 132.107,-111.076"/>
</g>
<!-- Node6 -->
<g id="node6" class="node"><title>Node6</title>
<g id="a_node6"><a xlink:href="class_cpl_1_1_dm_1_1_model_database.html" target="_top" xlink:title="This concrete class implements a simple Model Database.">
<polygon fill="white" stroke="black" points="211,-67.0759 211,-86.0759 336,-86.0759 336,-67.0759 211,-67.0759"/>
<text text-anchor="middle" x="273.5" y="-74.0759" font-family="Helvetica,sans-Serif" font-size="10.00">Cpl::Dm::ModelDatabase</text>
</a>
</g>
</g>
<!-- Node6&#45;&gt;Node3 -->
<g id="edge5" class="edge"><title>Node6&#45;&gt;Node3</title>
<path fill="none" stroke="#9a32cd" stroke-dasharray="5,2" d="M346.261,-78.6138C375.106,-79.6978 408.657,-81.2926 439,-83.5759 444.799,-84.0122 450.795,-84.5236 456.82,-85.0803"/>
<polygon fill="#9a32cd" stroke="#9a32cd" points="346.387,-75.1162 336.267,-78.2513 346.134,-82.1116 346.387,-75.1162"/>
<text text-anchor="middle" x="396.5" y="-86.5759" font-family="Helvetica,sans-Serif" font-size="10.00"> m_modelDatabase</text>
</g>
<!-- Node7 -->
<g id="node7" class="node"><title>Node7</title>
<g id="a_node7"><a xlink:href="class_cpl_1_1_dm_1_1_model_database_api.html" target="_top" xlink:title="This class defines the basic operations that can be performed on a Model Base.">
<polygon fill="white" stroke="black" points="0,-67.0759 0,-86.0759 140,-86.0759 140,-67.0759 0,-67.0759"/>
<text text-anchor="middle" x="70" y="-74.0759" font-family="Helvetica,sans-Serif" font-size="10.00">Cpl::Dm::ModelDatabaseApi</text>
</a>
</g>
</g>
<!-- Node7&#45;&gt;Node6 -->
<g id="edge6" class="edge"><title>Node7&#45;&gt;Node6</title>
<path fill="none" stroke="midnightblue" d="M150.179,-76.5759C170.374,-76.5759 191.783,-76.5759 210.95,-76.5759"/>
<polygon fill="midnightblue" stroke="midnightblue" points="150.063,-73.076 140.063,-76.5759 150.063,-80.076 150.063,-73.076"/>
</g>
<!-- Node8 -->
<g id="node8" class="node"><title>Node8</title>
<g id="a_node8"><a xlink:href="class_cpl_1_1_system_1_1_mutex.html" target="_top" xlink:title="This mutex class defines the interface for a mutex that has &quot;recursive&quot; semantics.">
<polygon fill="white" stroke="black" points="18,-29.0759 18,-48.0759 122,-48.0759 122,-29.0759 18,-29.0759"/>
<text text-anchor="middle" x="70" y="-36.0759" font-family="Helvetica,sans-Serif" font-size="10.00">Cpl::System::Mutex</text>
</a>
</g>
</g>
<!-- Node8&#45;&gt;Node6 -->
<g id="edge7" class="edge"><title>Node8&#45;&gt;Node6</title>
<path fill="none" stroke="#9a32cd" stroke-dasharray="5,2" d="M131.489,-49.9776C151.111,-53.6768 172.98,-57.8 193,-61.5759 202.386,-63.346 212.394,-65.2341 222.033,-67.0526"/>
<polygon fill="#9a32cd" stroke="#9a32cd" points="131.929,-46.499 121.454,-48.0859 130.632,-53.3779 131.929,-46.499"/>
<text text-anchor="middle" x="175.5" y="-64.5759" font-family="Helvetica,sans-Serif" font-size="10.00"> m_lock</text>
</g>
<!-- Node9 -->
<g id="node9" class="node"><title>Node9</title>
<g id="a_node9"><a xlink:href="class_cpl_1_1_dm_1_1_mp_1_1_float.html" target="_top" xlink:title="This class provides a concrete implementation for a Point who&#39;s data is a float.">
<polygon fill="white" stroke="black" points="1233,-83.0759 1233,-102.076 1332,-102.076 1332,-83.0759 1233,-83.0759"/>
<text text-anchor="middle" x="1282.5" y="-90.0759" font-family="Helvetica,sans-Serif" font-size="10.00">Cpl::Dm::Mp::Float</text>
</a>
</g>
</g>
<!-- Node9&#45;&gt;Node1 -->
<g id="edge8" class="edge"><title>Node9&#45;&gt;Node1</title>
<path fill="none" stroke="#9a32cd" stroke-dasharray="5,2" d="M1342.46,-99.127C1368.92,-102.067 1399.96,-105.516 1426,-108.409"/>
<polygon fill="#9a32cd" stroke="#9a32cd" points="1342.52,-95.6117 1332.19,-97.9858 1341.74,-102.569 1342.52,-95.6117"/>
<text text-anchor="middle" x="1379" y="-109.576" font-family="Helvetica,sans-Serif" font-size="10.00"> idtDeltaError</text>
</g>
<!-- Node10&#45;&gt;Node9 -->
<g id="edge9" class="edge"><title>Node10&#45;&gt;Node9</title>
<path fill="none" stroke="midnightblue" d="M1081.34,-88.8135C1128.32,-89.6966 1190.45,-90.8644 1232.96,-91.6634"/>
<polygon fill="midnightblue" stroke="midnightblue" points="1081.33,-85.3127 1071.26,-88.624 1081.19,-92.3114 1081.33,-85.3127"/>
</g>
<!-- Node11&#45;&gt;Node10 -->
<g id="edge11" class="edge"><title>Node11&#45;&gt;Node10</title>
<path fill="none" stroke="orange" stroke-dasharray="5,2" d="M830.567,-54.7893C864.318,-57.7508 904.29,-62.1792 940,-68.5759 946.227,-69.6913 952.703,-71.0564 959.116,-72.5384"/>
<polygon fill="orange" stroke="orange" points="830.564,-51.2766 820.304,-53.9168 829.971,-58.2514 830.564,-51.2766"/>
<text text-anchor="middle" x="891.5" y="-71.5759" font-family="Helvetica,sans-Serif" font-size="10.00"> &lt; float, Float &gt;</text>
</g>
<!-- Node12&#45;&gt;Node1 -->
<g id="edge13" class="edge"><title>Node12&#45;&gt;Node1</title>
<path fill="none" stroke="#9a32cd" stroke-dasharray="5,2" d="M835.326,-169.757C959.717,-168.95 1203.54,-163.126 1408,-132.576 1413.85,-131.702 1419.91,-130.58 1425.93,-129.322"/>
<polygon fill="#9a32cd" stroke="#9a32cd" points="835.103,-166.258 825.122,-169.813 835.141,-173.258 835.103,-166.258"/>
<text text-anchor="middle" x="1152" y="-165.576" font-family="Helvetica,sans-Serif" font-size="10.00"> systemConfig</text>
</g>
<!-- Node13 -->
<g id="node13" class="node"><title>Node13</title>
<g id="a_node13"><a xlink:href="namespace_storm_1_1_type.html#struct_storm_1_1_type_1_1_system_config___t" target="_top" xlink:title="The following typedef contains system attributes, parameters, bounds, etc.">
<polygon fill="white" stroke="black" points="458,-180.076 458,-199.076 607,-199.076 607,-180.076 458,-180.076"/>
<text text-anchor="middle" x="532.5" y="-187.076" font-family="Helvetica,sans-Serif" font-size="10.00">Storm::Type::SystemConfig_T</text>
</a>
</g>
</g>
<!-- Node13&#45;&gt;Node12 -->
<g id="edge15" class="edge"><title>Node13&#45;&gt;Node12</title>
<path fill="none" stroke="#9a32cd" stroke-dasharray="5,2" d="M617.041,-181.912C637.735,-180.013 659.725,-177.996 679.797,-176.154"/>
<polygon fill="#9a32cd" stroke="#9a32cd" points="616.639,-178.434 607.001,-182.833 617.279,-185.404 616.639,-178.434"/>
<text text-anchor="middle" x="644" y="-183.576" font-family="Helvetica,sans-Serif" font-size="10.00"> m_data</text>
</g>
<!-- Node14 -->
<g id="node14" class="node"><title>Node14</title>
<g id="a_node14"><a xlink:href="namespace_storm_1_1_type.html#struct_storm_1_1_type_1_1_stage___t" target="_top" xlink:title="The following typedef information per stage.">
<polygon fill="white" stroke="black" points="217,-180.076 217,-199.076 330,-199.076 330,-180.076 217,-180.076"/>
<text text-anchor="middle" x="273.5" y="-187.076" font-family="Helvetica,sans-Serif" font-size="10.00">Storm::Type::Stage_T</text>
</a>
</g>
</g>
<!-- Node14&#45;&gt;Node13 -->
<g id="edge16" class="edge"><title>Node14&#45;&gt;Node13</title>
<path fill="none" stroke="#9a32cd" stroke-dasharray="5,2" d="M340.613,-189.576C376.451,-189.576 420.837,-189.576 457.787,-189.576"/>
<polygon fill="#9a32cd" stroke="#9a32cd" points="340.265,-186.076 330.265,-189.576 340.265,-193.076 340.265,-186.076"/>
<text text-anchor="middle" x="396.5" y="-192.576" font-family="Helvetica,sans-Serif" font-size="10.00"> stages</text>
</g>
<!-- Node15&#45;&gt;Node1 -->
<g id="edge17" class="edge"><title>Node15&#45;&gt;Node1</title>
<path fill="none" stroke="#9a32cd" stroke-dasharray="5,2" d="M1223.9,-25.9401C1257.11,-32.0971 1296.99,-40.6936 1332,-51.5759 1374.23,-64.6997 1420.89,-85.4215 1450.66,-99.4858"/>
<polygon fill="#9a32cd" stroke="#9a32cd" points="1224.28,-22.4526 1213.82,-24.1077 1223.03,-29.3398 1224.28,-22.4526"/>
<text text-anchor="middle" x="1282.5" y="-65.5759" font-family="Helvetica,sans-Serif" font-size="10.00"> freezePiRefCnt</text>
<text text-anchor="middle" x="1282.5" y="-54.5759" font-family="Helvetica,sans-Serif" font-size="10.00">inhibitfRefCnt</text>
</g>
</g>
</svg>
