<?xml version="1.0" encoding="UTF-8" standalone="no"?>
<!DOCTYPE svg PUBLIC "-//W3C//DTD SVG 1.1//EN"
 "http://www.w3.org/Graphics/SVG/1.1/DTD/svg11.dtd">
<!-- Generated by graphviz version 10.0.1 (20240210.2158)
 -->
<!-- Title: Storm::Component::AirFilterMonitor::Output_T Pages: 1 -->
<svg width="1482pt" height="210pt"
 viewBox="0.00 0.00 1481.75 210.00" xmlns="http://www.w3.org/2000/svg" xmlns:xlink="http://www.w3.org/1999/xlink">
<g id="graph0" class="graph" transform="scale(1 1) rotate(0) translate(4 206)">
<title>Storm::Component::AirFilterMonitor::Output_T</title>
<!-- Node1 -->
<g id="Node000001" class="node">
<title>Node1</title>
<g id="a_Node000001"><a xlink:title="Output Model Points.">
<polygon fill="#999999" stroke="#666666" points="1473.75,-154 1336.25,-154 1336.25,-122 1473.75,-122 1473.75,-154"/>
<text text-anchor="start" x="1344.25" y="-140.5" font-family="Helvetica,sans-Serif" font-size="10.00">Storm::Component::AirFilter</text>
<text text-anchor="middle" x="1405" y="-128.5" font-family="Helvetica,sans-Serif" font-size="10.00">Monitor::Output_T</text>
</a>
</g>
</g>
<!-- Node2 -->
<g id="Node000002" class="node">
<title>Node2</title>
<g id="a_Node000002"><a xlink:href="class_storm_1_1_dm_1_1_mp_simple_alarm.html" target="_top" xlink:title="This class provides a concrete implementation for a simple Alarm that has following attributes:">
<polygon fill="white" stroke="#666666" points="1184.38,-130 1046.12,-130 1046.12,-110 1184.38,-110 1184.38,-130"/>
<text text-anchor="middle" x="1115.25" y="-116.5" font-family="Helvetica,sans-Serif" font-size="10.00">Storm::Dm::MpSimpleAlarm</text>
</a>
</g>
</g>
<!-- Node2&#45;&gt;Node1 -->
<g id="edge1_Node000001_Node000002" class="edge">
<title>Node2&#45;&gt;Node1</title>
<g id="a_edge1_Node000001_Node000002"><a xlink:title=" ">
<path fill="none" stroke="#9a32cd" stroke-dasharray="5,2" d="M1195.95,-118.28C1233.18,-118.22 1278.06,-119.21 1318.25,-123 1323.97,-123.54 1329.88,-124.25 1335.8,-125.07"/>
<polygon fill="#9a32cd" stroke="#9a32cd" points="1196.15,-114.78 1186.17,-118.33 1196.18,-121.78 1196.15,-114.78"/>
</a>
</g>
<text text-anchor="middle" x="1269.12" y="-125.5" font-family="Helvetica,sans-Serif" font-size="10.00" fill="grey"> airFilterAlert</text>
</g>
<!-- Node3 -->
<g id="Node000003" class="node">
<title>Node3</title>
<g id="a_Node000003"><a xlink:href="class_cpl_1_1_dm_1_1_model_point_common__.html" target="_top" xlink:title="This concrete class provide common infrastructure for a Model Point.">
<polygon fill="white" stroke="#666666" points="957.25,-152 807,-152 807,-132 957.25,-132 957.25,-152"/>
<text text-anchor="middle" x="882.12" y="-138.5" font-family="Helvetica,sans-Serif" font-size="10.00">Cpl::Dm::ModelPointCommon_</text>
</a>
</g>
</g>
<!-- Node3&#45;&gt;Node2 -->
<g id="edge2_Node000002_Node000003" class="edge">
<title>Node3&#45;&gt;Node2</title>
<g id="a_edge2_Node000002_Node000003"><a xlink:title=" ">
<path fill="none" stroke="#63b8ff" d="M968.67,-133.86C994.12,-131.43 1021.66,-128.81 1045.86,-126.51"/>
<polygon fill="#63b8ff" stroke="#63b8ff" points="968.66,-130.34 959.03,-134.77 969.32,-137.31 968.66,-130.34"/>
</a>
</g>
</g>
<!-- Node14 -->
<g id="Node000014" class="node">
<title>Node14</title>
<g id="a_Node000014"><a xlink:href="class_cpl_1_1_dm_1_1_mp_1_1_elapsed_precision_time.html" target="_top" xlink:title="This class provides a concrete implementation for a Point who&#39;s data a Cpl::System::ElapsedTime::Prec...">
<polygon fill="white" stroke="#666666" points="1202,-168 1028.5,-168 1028.5,-148 1202,-148 1202,-168"/>
<text text-anchor="middle" x="1115.25" y="-154.5" font-family="Helvetica,sans-Serif" font-size="10.00">Cpl::Dm::Mp::ElapsedPrecisionTime</text>
</a>
</g>
</g>
<!-- Node3&#45;&gt;Node14 -->
<g id="edge14_Node000014_Node000003" class="edge">
<title>Node3&#45;&gt;Node14</title>
<g id="a_edge14_Node000014_Node000003"><a xlink:title=" ">
<path fill="none" stroke="#63b8ff" d="M968.81,-147.93C988.24,-149.28 1008.88,-150.71 1028.32,-152.05"/>
<polygon fill="#63b8ff" stroke="#63b8ff" points="969.25,-144.45 959.04,-147.26 968.77,-151.44 969.25,-144.45"/>
</a>
</g>
</g>
<!-- Node4 -->
<g id="Node000004" class="node">
<title>Node4</title>
<g id="a_Node000004"><a xlink:href="class_cpl_1_1_dm_1_1_model_point.html" target="_top" xlink:title="This mostly abstract class defines the interface for a Model Point.">
<polygon fill="white" stroke="#666666" points="672,-196 566,-196 566,-176 672,-176 672,-196"/>
<text text-anchor="middle" x="619" y="-182.5" font-family="Helvetica,sans-Serif" font-size="10.00">Cpl::Dm::ModelPoint</text>
</a>
</g>
</g>
<!-- Node4&#45;&gt;Node3 -->
<g id="edge3_Node000003_Node000004" class="edge">
<title>Node4&#45;&gt;Node3</title>
<g id="a_edge3_Node000003_Node000004"><a xlink:title=" ">
<path fill="none" stroke="#63b8ff" d="M683.5,-175.6C715.2,-170.38 754.14,-163.92 789,-158 799.4,-156.23 810.46,-154.33 821.17,-152.48"/>
<polygon fill="#63b8ff" stroke="#63b8ff" points="682.96,-172.14 673.66,-177.22 684.1,-179.05 682.96,-172.14"/>
</a>
</g>
</g>
<!-- Node5 -->
<g id="Node000005" class="node">
<title>Node5</title>
<g id="a_Node000005"><a xlink:href="class_cpl_1_1_container_1_1_item.html" target="_top" xlink:title="This class is used by the Container classes to implement a various types of singly linked containers.">
<polygon fill="white" stroke="#666666" points="373.62,-196 271.38,-196 271.38,-176 373.62,-176 373.62,-196"/>
<text text-anchor="middle" x="322.5" y="-182.5" font-family="Helvetica,sans-Serif" font-size="10.00">Cpl::Container::Item</text>
</a>
</g>
</g>
<!-- Node5&#45;&gt;Node4 -->
<g id="edge4_Node000004_Node000005" class="edge">
<title>Node5&#45;&gt;Node4</title>
<g id="a_edge4_Node000004_Node000005"><a xlink:title=" ">
<path fill="none" stroke="#63b8ff" d="M385.19,-186C438.74,-186 515.42,-186 565.93,-186"/>
<polygon fill="#63b8ff" stroke="#63b8ff" points="385.31,-182.5 375.31,-186 385.31,-189.5 385.31,-182.5"/>
</a>
</g>
</g>
<!-- Node6 -->
<g id="Node000006" class="node">
<title>Node6</title>
<g id="a_Node000006"><a xlink:href="class_cpl_1_1_container_1_1_d_list.html" target="_top" xlink:title=" ">
<polygon fill="white" stroke="#666666" points="687,-158 551,-158 551,-126 687,-126 687,-158"/>
<text text-anchor="start" x="559" y="-144.5" font-family="Helvetica,sans-Serif" font-size="10.00">Cpl::Container::DList</text>
<text text-anchor="middle" x="619" y="-132.5" font-family="Helvetica,sans-Serif" font-size="10.00">&lt; Cpl::Dm::SubscriberApi &gt;</text>
</a>
</g>
</g>
<!-- Node6&#45;&gt;Node3 -->
<g id="edge5_Node000003_Node000006" class="edge">
<title>Node6&#45;&gt;Node3</title>
<g id="a_edge5_Node000003_Node000006"><a xlink:title=" ">
<path fill="none" stroke="#9a32cd" stroke-dasharray="5,2" d="M698.64,-142C732.94,-142 772.95,-142 806.75,-142"/>
<polygon fill="#9a32cd" stroke="#9a32cd" points="698.76,-138.5 688.76,-142 698.76,-145.5 698.76,-138.5"/>
</a>
</g>
<text text-anchor="middle" x="747" y="-144.5" font-family="Helvetica,sans-Serif" font-size="10.00" fill="grey"> m_subscribers</text>
</g>
<!-- Node7 -->
<g id="Node000007" class="node">
<title>Node7</title>
<g id="a_Node000007"><a xlink:href="class_cpl_1_1_container_1_1_d_list.html" target="_top" xlink:title="This template class implements a Doubly linked list which maintains the ordering imposed on it by the...">
<polygon fill="white" stroke="#666666" points="375.5,-158 269.5,-158 269.5,-126 375.5,-126 375.5,-158"/>
<text text-anchor="start" x="277.5" y="-144.5" font-family="Helvetica,sans-Serif" font-size="10.00">Cpl::Container::DList</text>
<text text-anchor="middle" x="322.5" y="-132.5" font-family="Helvetica,sans-Serif" font-size="10.00">&lt; ITEM &gt;</text>
</a>
</g>
</g>
<!-- Node7&#45;&gt;Node6 -->
<g id="edge6_Node000006_Node000007" class="edge">
<title>Node7&#45;&gt;Node6</title>
<g id="a_edge6_Node000006_Node000007"><a xlink:title=" ">
<path fill="none" stroke="orange" stroke-dasharray="5,2" d="M387.05,-142C435.29,-142 501.48,-142 550.64,-142"/>
<polygon fill="orange" stroke="orange" points="387.32,-138.5 377.32,-142 387.32,-145.5 387.32,-138.5"/>
</a>
</g>
<text text-anchor="middle" x="471.5" y="-144.5" font-family="Helvetica,sans-Serif" font-size="10.00" fill="grey"> &lt; Cpl::Dm::SubscriberApi &gt;</text>
</g>
<!-- Node8 -->
<g id="Node000008" class="node">
<title>Node8</title>
<g id="a_Node000008"><a xlink:href="class_cpl_1_1_dm_1_1_model_database.html" target="_top" xlink:title="This concrete class implements a simple Model Database.">
<polygon fill="white" stroke="#666666" points="681.38,-86 556.62,-86 556.62,-66 681.38,-66 681.38,-86"/>
<text text-anchor="middle" x="619" y="-72.5" font-family="Helvetica,sans-Serif" font-size="10.00">Cpl::Dm::ModelDatabase</text>
</a>
</g>
</g>
<!-- Node8&#45;&gt;Node3 -->
<g id="edge7_Node000003_Node000008" class="edge">
<title>Node8&#45;&gt;Node3</title>
<g id="a_edge7_Node000003_Node000008"><a xlink:title=" ">
<path fill="none" stroke="#9a32cd" stroke-dasharray="5,2" d="M672.45,-89.26C721.79,-101.73 794.66,-120.15 839.94,-131.59"/>
<polygon fill="#9a32cd" stroke="#9a32cd" points="673.4,-85.89 662.84,-86.83 671.68,-92.67 673.4,-85.89"/>
</a>
</g>
<text text-anchor="middle" x="747" y="-118.5" font-family="Helvetica,sans-Serif" font-size="10.00" fill="grey"> m_modelDatabase</text>
</g>
<!-- Node9 -->
<g id="Node000009" class="node">
<title>Node9</title>
<g id="a_Node000009"><a xlink:href="class_cpl_1_1_dm_1_1_model_database_api.html" target="_top" xlink:title="This class defines the basic operations that can be performed on a Model Base.">
<polygon fill="white" stroke="#666666" points="392,-108 253,-108 253,-88 392,-88 392,-108"/>
<text text-anchor="middle" x="322.5" y="-94.5" font-family="Helvetica,sans-Serif" font-size="10.00">Cpl::Dm::ModelDatabaseApi</text>
</a>
</g>
</g>
<!-- Node9&#45;&gt;Node8 -->
<g id="edge8_Node000008_Node000009" class="edge">
<title>Node9&#45;&gt;Node8</title>
<g id="a_edge8_Node000008_Node000009"><a xlink:title=" ">
<path fill="none" stroke="#63b8ff" d="M403.49,-92.02C451.57,-88.43 511.84,-83.93 556.24,-80.61"/>
<polygon fill="#63b8ff" stroke="#63b8ff" points="403.4,-88.52 393.68,-92.76 403.92,-95.5 403.4,-88.52"/>
</a>
</g>
</g>
<!-- Node10 -->
<g id="Node000010" class="node">
<title>Node10</title>
<g id="a_Node000010"><a xlink:href="class_cpl_1_1_container_1_1_s_list.html" target="_top" xlink:title=" ">
<polygon fill="white" stroke="#666666" points="384.5,-70 260.5,-70 260.5,-38 384.5,-38 384.5,-70"/>
<text text-anchor="start" x="268.5" y="-56.5" font-family="Helvetica,sans-Serif" font-size="10.00">Cpl::Container::SList</text>
<text text-anchor="middle" x="322.5" y="-44.5" font-family="Helvetica,sans-Serif" font-size="10.00">&lt; Cpl::Dm::ModelPoint &gt;</text>
</a>
</g>
</g>
<!-- Node10&#45;&gt;Node8 -->
<g id="edge9_Node000008_Node000010" class="edge">
<title>Node10&#45;&gt;Node8</title>
<g id="a_edge9_Node000008_Node000010"><a xlink:title=" ">
<path fill="none" stroke="#9a32cd" stroke-dasharray="5,2" d="M396.31,-57.74C436.63,-60 487.62,-63.19 533,-67 540.54,-67.63 548.45,-68.37 556.28,-69.15"/>
<polygon fill="#9a32cd" stroke="#9a32cd" points="396.66,-54.25 386.48,-57.19 396.27,-61.24 396.66,-54.25"/>
</a>
</g>
<text text-anchor="middle" x="471.5" y="-69.5" font-family="Helvetica,sans-Serif" font-size="10.00" fill="grey"> m_list</text>
</g>
<!-- Node11 -->
<g id="Node000011" class="node">
<title>Node11</title>
<g id="a_Node000011"><a xlink:href="class_cpl_1_1_container_1_1_s_list.html" target="_top" xlink:title="This template class implements a singly linked list which maintains the ordering imposed on it by the...">
<polygon fill="white" stroke="#666666" points="106,-70 0,-70 0,-38 106,-38 106,-70"/>
<text text-anchor="start" x="8" y="-56.5" font-family="Helvetica,sans-Serif" font-size="10.00">Cpl::Container::SList</text>
<text text-anchor="middle" x="53" y="-44.5" font-family="Helvetica,sans-Serif" font-size="10.00">&lt; ITEM &gt;</text>
</a>
</g>
</g>
<!-- Node11&#45;&gt;Node10 -->
<g id="edge10_Node000010_Node000011" class="edge">
<title>Node11&#45;&gt;Node10</title>
<g id="a_edge10_Node000010_Node000011"><a xlink:title=" ">
<path fill="none" stroke="orange" stroke-dasharray="5,2" d="M117.7,-54C160.8,-54 217.42,-54 260.04,-54"/>
<polygon fill="orange" stroke="orange" points="117.73,-50.5 107.73,-54 117.73,-57.5 117.73,-50.5"/>
</a>
</g>
<text text-anchor="middle" x="179.5" y="-56.5" font-family="Helvetica,sans-Serif" font-size="10.00" fill="grey"> &lt; Cpl::Dm::ModelPoint &gt;</text>
</g>
<!-- Node12 -->
<g id="Node000012" class="node">
<title>Node12</title>
<g id="a_Node000012"><a xlink:href="class_cpl_1_1_system_1_1_mutex.html" target="_top" xlink:title="This mutex class defines the interface for a mutex that has &quot;recursive&quot; semantics.">
<polygon fill="white" stroke="#666666" points="374,-20 271,-20 271,0 374,0 374,-20"/>
<text text-anchor="middle" x="322.5" y="-6.5" font-family="Helvetica,sans-Serif" font-size="10.00">Cpl::System::Mutex</text>
</a>
</g>
</g>
<!-- Node12&#45;&gt;Node8 -->
<g id="edge11_Node000008_Node000012" class="edge">
<title>Node12&#45;&gt;Node8</title>
<g id="a_edge11_Node000008_Node000012"><a xlink:title=" ">
<path fill="none" stroke="#9a32cd" stroke-dasharray="5,2" d="M385.28,-16.21C427.39,-21.29 484.15,-29.83 533,-43 554.55,-48.81 578.15,-58.23 595,-65.52"/>
<polygon fill="#9a32cd" stroke="#9a32cd" points="385.92,-12.76 375.59,-15.07 385.11,-19.71 385.92,-12.76"/>
</a>
</g>
<text text-anchor="middle" x="471.5" y="-45.5" font-family="Helvetica,sans-Serif" font-size="10.00" fill="grey"> m_lock</text>
</g>
<!-- Node13 -->
<g id="Node000013" class="node">
<title>Node13</title>
<g id="a_Node000013"><a xlink:href="struct_storm_1_1_dm_1_1_mp_simple_alarm_1_1_data.html" target="_top" xlink:title="The MP&#39;s Data container.">
<polygon fill="white" stroke="#666666" points="951.25,-114 813,-114 813,-82 951.25,-82 951.25,-114"/>
<text text-anchor="start" x="821" y="-100.5" font-family="Helvetica,sans-Serif" font-size="10.00">Storm::Dm::MpSimpleAlarm</text>
<text text-anchor="middle" x="882.12" y="-88.5" font-family="Helvetica,sans-Serif" font-size="10.00">::Data</text>
</a>
</g>
</g>
<!-- Node13&#45;&gt;Node2 -->
<g id="edge12_Node000002_Node000013" class="edge">
<title>Node13&#45;&gt;Node2</title>
<g id="a_edge12_Node000002_Node000013"><a xlink:title=" ">
<path fill="none" stroke="#9a32cd" stroke-dasharray="5,2" d="M962.93,-105.6C989.99,-108.17 1019.95,-111.02 1046.02,-113.51"/>
<polygon fill="#9a32cd" stroke="#9a32cd" points="963.33,-102.12 953.04,-104.65 962.66,-109.09 963.33,-102.12"/>
</a>
</g>
<text text-anchor="middle" x="992.88" y="-111.5" font-family="Helvetica,sans-Serif" font-size="10.00" fill="grey"> m_data</text>
</g>
<!-- Node14&#45;&gt;Node1 -->
<g id="edge13_Node000001_Node000014" class="edge">
<title>Node14&#45;&gt;Node1</title>
<g id="a_edge13_Node000001_Node000014"><a xlink:title=" ">
<path fill="none" stroke="#9a32cd" stroke-dasharray="5,2" d="M1213.64,-151.23C1253.79,-148.44 1299.35,-145.27 1335.83,-142.74"/>
<polygon fill="#9a32cd" stroke="#9a32cd" points="1213.44,-147.74 1203.7,-151.92 1213.92,-154.72 1213.44,-147.74"/>
</a>
</g>
<text text-anchor="middle" x="1269.12" y="-152.5" font-family="Helvetica,sans-Serif" font-size="10.00" fill="grey"> airFilterOperationTime</text>
</g>
<!-- Node15 -->
<g id="Node000015" class="node">
<title>Node15</title>
<g id="a_Node000015"><a xlink:href="struct_cpl_1_1_system_1_1_elapsed_time_1_1_precision___t.html" target="_top" xlink:title="Data type for time in seconds with a &#39;fractional&#39; millisecond precision.">
<polygon fill="white" stroke="#666666" points="948.25,-202 816,-202 816,-170 948.25,-170 948.25,-202"/>
<text text-anchor="start" x="824" y="-188.5" font-family="Helvetica,sans-Serif" font-size="10.00">Cpl::System::ElapsedTime</text>
<text text-anchor="middle" x="882.12" y="-176.5" font-family="Helvetica,sans-Serif" font-size="10.00">::Precision_T</text>
</a>
</g>
</g>
<!-- Node15&#45;&gt;Node14 -->
<g id="edge15_Node000014_Node000015" class="edge">
<title>Node15&#45;&gt;Node14</title>
<g id="a_edge15_Node000014_Node000015"><a xlink:title=" ">
<path fill="none" stroke="#9a32cd" stroke-dasharray="5,2" d="M959.96,-176.69C981.83,-174.04 1005.78,-171.14 1028.16,-168.43"/>
<polygon fill="#9a32cd" stroke="#9a32cd" points="959.75,-173.19 950.24,-177.87 960.59,-180.14 959.75,-173.19"/>
</a>
</g>
<text text-anchor="middle" x="992.88" y="-176.5" font-family="Helvetica,sans-Serif" font-size="10.00" fill="grey"> m_data</text>
</g>
</g>
</svg>
