<?xml version="1.0" encoding="UTF-8" standalone="no"?>
<!DOCTYPE svg PUBLIC "-//W3C//DTD SVG 1.1//EN"
 "http://www.w3.org/Graphics/SVG/1.1/DTD/svg11.dtd">
<!-- Generated by graphviz version 2.38.0 (20140413.2041)
 -->
<!-- Title: Storm::Component::PiPreProcess::Input_T Pages: 1 -->
<svg width="2402pt" height="331pt"
 viewBox="0.00 0.00 2402.00 330.50" xmlns="http://www.w3.org/2000/svg" xmlns:xlink="http://www.w3.org/1999/xlink">
<g id="graph0" class="graph" transform="scale(1 1) rotate(0) translate(4 326.5)">
<title>Storm::Component::PiPreProcess::Input_T</title>
<polygon fill="white" stroke="none" points="-4,4 -4,-326.5 2398,-326.5 2398,4 -4,4"/>
<!-- Node1 -->
<g id="node1" class="node"><title>Node1</title>
<g id="a_node1"><a xlink:title="Input Model Points.">
<polygon fill="#bfbfbf" stroke="black" points="2230,-102.5 2230,-132.5 2394,-132.5 2394,-102.5 2230,-102.5"/>
<text text-anchor="start" x="2238" y="-120.5" font-family="Helvetica,sans-Serif" font-size="10.00">Storm::Component::PiPreProcess</text>
<text text-anchor="middle" x="2312" y="-109.5" font-family="Helvetica,sans-Serif" font-size="10.00">::Input_T</text>
</a>
</g>
</g>
<!-- Node2 -->
<g id="node2" class="node"><title>Node2</title>
<g id="a_node2"><a xlink:href="class_cpl_1_1_dm_1_1_mp_1_1_bool.html" target="_top" xlink:title="This class provides a concrete implementation for a Point who&#39;s data is a bool.">
<polygon fill="white" stroke="black" points="1938,-206 1938,-225 2035,-225 2035,-206 1938,-206"/>
<text text-anchor="middle" x="1986.5" y="-213" font-family="Helvetica,sans-Serif" font-size="10.00">Cpl::Dm::Mp::Bool</text>
</a>
</g>
</g>
<!-- Node2&#45;&gt;Node1 -->
<g id="edge1" class="edge"><title>Node2&#45;&gt;Node1</title>
<path fill="none" stroke="#9a32cd" stroke-dasharray="5,2" d="M2028.91,-202.957C2088.36,-184.947 2197.73,-151.813 2261.41,-132.521"/>
<polygon fill="#9a32cd" stroke="#9a32cd" points="2027.66,-199.676 2019.11,-205.925 2029.69,-206.375 2027.66,-199.676"/>
<text text-anchor="middle" x="2103" y="-197.5" font-family="Helvetica,sans-Serif" font-size="10.00"> operatingModeChange</text>
</g>
<!-- Node3 -->
<g id="node3" class="node"><title>Node3</title>
<g id="a_node3"><a xlink:href="class_cpl_1_1_dm_1_1_mp_1_1_basic.html" target="_top" xlink:title=" ">
<polygon fill="white" stroke="black" points="1610,-226.5 1610,-256.5 1712,-256.5 1712,-226.5 1610,-226.5"/>
<text text-anchor="start" x="1618" y="-244.5" font-family="Helvetica,sans-Serif" font-size="10.00">Cpl::Dm::Mp::Basic</text>
<text text-anchor="middle" x="1661" y="-233.5" font-family="Helvetica,sans-Serif" font-size="10.00">&lt; bool &gt;</text>
</a>
</g>
</g>
<!-- Node3&#45;&gt;Node2 -->
<g id="edge2" class="edge"><title>Node3&#45;&gt;Node2</title>
<path fill="none" stroke="midnightblue" d="M1722.27,-236.656C1784.59,-231.648 1880.61,-223.93 1937.83,-219.331"/>
<polygon fill="midnightblue" stroke="midnightblue" points="1721.88,-233.176 1712.19,-237.466 1722.44,-240.154 1721.88,-233.176"/>
</g>
<!-- Node4 -->
<g id="node4" class="node"><title>Node4</title>
<g id="a_node4"><a xlink:href="class_cpl_1_1_dm_1_1_model_point_common__.html" target="_top" xlink:title="This concrete class provide common infrastructure for a Model Point.">
<polygon fill="white" stroke="black" points="1156,-126 1156,-145 1307,-145 1307,-126 1156,-126"/>
<text text-anchor="middle" x="1231.5" y="-133" font-family="Helvetica,sans-Serif" font-size="10.00">Cpl::Dm::ModelPointCommon_</text>
</a>
</g>
</g>
<!-- Node4&#45;&gt;Node3 -->
<g id="edge3" class="edge"><title>Node4&#45;&gt;Node3</title>
<path fill="none" stroke="midnightblue" d="M1255.86,-150.692C1283.92,-168.202 1332.99,-196.489 1379,-211.5 1448.68,-234.233 1469.05,-229.382 1542,-236.5 1564.24,-238.671 1588.94,-239.899 1609.96,-240.594"/>
<polygon fill="midnightblue" stroke="midnightblue" points="1257.5,-147.591 1247.18,-145.202 1253.76,-153.506 1257.5,-147.591"/>
</g>
<!-- Node21 -->
<g id="node21" class="node"><title>Node21</title>
<g id="a_node21"><a xlink:href="class_cpl_1_1_dm_1_1_mp_1_1_basic.html" target="_top" xlink:title="This template class provides a mostly concrete implementation for a Model Point who&#39;s data is a C pri...">
<polygon fill="white" stroke="black" points="1400.5,-172.5 1400.5,-202.5 1502.5,-202.5 1502.5,-172.5 1400.5,-172.5"/>
<text text-anchor="start" x="1408.5" y="-190.5" font-family="Helvetica,sans-Serif" font-size="10.00">Cpl::Dm::Mp::Basic</text>
<text text-anchor="middle" x="1451.5" y="-179.5" font-family="Helvetica,sans-Serif" font-size="10.00">&lt; ELEMTYPE &gt;</text>
</a>
</g>
</g>
<!-- Node4&#45;&gt;Node21 -->
<g id="edge21" class="edge"><title>Node4&#45;&gt;Node21</title>
<path fill="none" stroke="midnightblue" d="M1282.58,-147.446C1317.92,-155.877 1365.08,-167.125 1400.42,-175.555"/>
<polygon fill="midnightblue" stroke="midnightblue" points="1283.02,-143.953 1272.48,-145.038 1281.4,-150.762 1283.02,-143.953"/>
</g>
<!-- Node22 -->
<g id="node22" class="node"><title>Node22</title>
<g id="a_node22"><a xlink:href="class_storm_1_1_dm_1_1_mp_system_config.html" target="_top" xlink:title="This class provides a concrete implementation for a Point who&#39;s data is the the System Configuration ...">
<polygon fill="white" stroke="black" points="1379,-88 1379,-107 1524,-107 1524,-88 1379,-88"/>
<text text-anchor="middle" x="1451.5" y="-95" font-family="Helvetica,sans-Serif" font-size="10.00">Storm::Dm::MpSystemConfig</text>
</a>
</g>
</g>
<!-- Node4&#45;&gt;Node22 -->
<g id="edge23" class="edge"><title>Node4&#45;&gt;Node22</title>
<path fill="none" stroke="midnightblue" d="M1297.19,-124.224C1328.55,-118.757 1365.81,-112.262 1395.75,-107.044"/>
<polygon fill="midnightblue" stroke="midnightblue" points="1296.48,-120.795 1287.23,-125.96 1297.68,-127.691 1296.48,-120.795"/>
</g>
<!-- Node25 -->
<g id="node25" class="node"><title>Node25</title>
<g id="a_node25"><a xlink:href="class_storm_1_1_dm_1_1_mp_setpoints.html" target="_top" xlink:title="This class provides a concrete implementation for a Point who&#39;s data is the the house/room/zone cooli...">
<polygon fill="white" stroke="black" points="1389,-43 1389,-62 1514,-62 1514,-43 1389,-43"/>
<text text-anchor="middle" x="1451.5" y="-50" font-family="Helvetica,sans-Serif" font-size="10.00">Storm::Dm::MpSetpoints</text>
</a>
</g>
</g>
<!-- Node4&#45;&gt;Node25 -->
<g id="edge27" class="edge"><title>Node4&#45;&gt;Node25</title>
<path fill="none" stroke="midnightblue" d="M1266,-122.221C1295.64,-110.53 1340.1,-93.1374 1379,-78.5 1393.71,-72.9642 1410.19,-66.9569 1423.62,-62.1126"/>
<polygon fill="midnightblue" stroke="midnightblue" points="1264.56,-119.026 1256.55,-125.955 1267.13,-125.537 1264.56,-119.026"/>
</g>
<!-- Node29 -->
<g id="node29" class="node"><title>Node29</title>
<g id="a_node29"><a xlink:href="class_cpl_1_1_dm_1_1_mp_1_1_basic.html" target="_top" xlink:title=" ">
<polygon fill="white" stroke="black" points="1610,-128.5 1610,-158.5 1712,-158.5 1712,-128.5 1610,-128.5"/>
<text text-anchor="start" x="1618" y="-146.5" font-family="Helvetica,sans-Serif" font-size="10.00">Cpl::Dm::Mp::Basic</text>
<text text-anchor="middle" x="1661" y="-135.5" font-family="Helvetica,sans-Serif" font-size="10.00">&lt; float &gt;</text>
</a>
</g>
</g>
<!-- Node4&#45;&gt;Node29 -->
<g id="edge32" class="edge"><title>Node4&#45;&gt;Node29</title>
<path fill="none" stroke="midnightblue" d="M1317.61,-137.093C1405.01,-138.728 1538.1,-141.219 1609.89,-142.562"/>
<polygon fill="midnightblue" stroke="midnightblue" points="1317.52,-133.59 1307.45,-136.903 1317.39,-140.589 1317.52,-133.59"/>
</g>
<!-- Node5 -->
<g id="node5" class="node"><title>Node5</title>
<g id="a_node5"><a xlink:href="class_cpl_1_1_dm_1_1_model_point.html" target="_top" xlink:title="This mostly abstract class defines the interface for a Model Point.">
<polygon fill="white" stroke="black" points="913,-88 913,-107 1020,-107 1020,-88 913,-88"/>
<text text-anchor="middle" x="966.5" y="-95" font-family="Helvetica,sans-Serif" font-size="10.00">Cpl::Dm::ModelPoint</text>
</a>
</g>
</g>
<!-- Node5&#45;&gt;Node4 -->
<g id="edge4" class="edge"><title>Node5&#45;&gt;Node4</title>
<path fill="none" stroke="midnightblue" d="M1030.11,-106.547C1070.62,-112.4 1123.28,-120.008 1164.45,-125.957"/>
<polygon fill="midnightblue" stroke="midnightblue" points="1030.49,-103.065 1020.09,-105.099 1029.49,-109.993 1030.49,-103.065"/>
</g>
<!-- Node6 -->
<g id="node6" class="node"><title>Node6</title>
<g id="a_node6"><a xlink:href="class_cpl_1_1_container_1_1_map_item.html" target="_top" xlink:title="This abstract class represents a item that can be contained in an Map (aka a sorted list implemented ...">
<polygon fill="white" stroke="black" points="607,-79 607,-98 729,-98 729,-79 607,-79"/>
<text text-anchor="middle" x="668" y="-86" font-family="Helvetica,sans-Serif" font-size="10.00">Cpl::Container::MapItem</text>
</a>
</g>
</g>
<!-- Node6&#45;&gt;Node5 -->
<g id="edge5" class="edge"><title>Node6&#45;&gt;Node5</title>
<path fill="none" stroke="midnightblue" d="M739.032,-90.6258C792.183,-92.2391 864.131,-94.423 912.545,-95.8926"/>
<polygon fill="midnightblue" stroke="midnightblue" points="739.103,-87.1264 729.001,-90.3213 738.89,-94.1232 739.103,-87.1264"/>
</g>
<!-- Node7 -->
<g id="node7" class="node"><title>Node7</title>
<g id="a_node7"><a xlink:href="class_cpl_1_1_container_1_1_dict_item.html" target="_top" xlink:title="This abstract class represents a item that can be contained in Dictionary.">
<polygon fill="white" stroke="black" points="326,-79 326,-98 447,-98 447,-79 326,-79"/>
<text text-anchor="middle" x="386.5" y="-86" font-family="Helvetica,sans-Serif" font-size="10.00">Cpl::Container::DictItem</text>
</a>
</g>
</g>
<!-- Node7&#45;&gt;Node6 -->
<g id="edge6" class="edge"><title>Node7&#45;&gt;Node6</title>
<path fill="none" stroke="midnightblue" d="M457.319,-88.5C503.374,-88.5 563.078,-88.5 606.993,-88.5"/>
<polygon fill="midnightblue" stroke="midnightblue" points="457.117,-85.0001 447.117,-88.5 457.117,-92.0001 457.117,-85.0001"/>
</g>
<!-- Node8 -->
<g id="node8" class="node"><title>Node8</title>
<g id="a_node8"><a xlink:href="class_cpl_1_1_container_1_1_extended_item.html" target="_top" xlink:title="This class is used by the Container classes to implement a various types of DOUBLY linked containers.">
<polygon fill="white" stroke="black" points="141,-79 141,-98 286,-98 286,-79 141,-79"/>
<text text-anchor="middle" x="213.5" y="-86" font-family="Helvetica,sans-Serif" font-size="10.00">Cpl::Container::ExtendedItem</text>
</a>
</g>
</g>
<!-- Node8&#45;&gt;Node7 -->
<g id="edge7" class="edge"><title>Node8&#45;&gt;Node7</title>
<path fill="none" stroke="midnightblue" d="M296.047,-88.5C306.111,-88.5 316.248,-88.5 325.899,-88.5"/>
<polygon fill="midnightblue" stroke="midnightblue" points="296.029,-85.0001 286.029,-88.5 296.029,-92.0001 296.029,-85.0001"/>
</g>
<!-- Node9 -->
<g id="node9" class="node"><title>Node9</title>
<g id="a_node9"><a xlink:href="class_cpl_1_1_container_1_1_item.html" target="_top" xlink:title="This class is used by the Container classes to implement a various types of singly linked containers.">
<polygon fill="white" stroke="black" points="0,-79 0,-98 104,-98 104,-79 0,-79"/>
<text text-anchor="middle" x="52" y="-86" font-family="Helvetica,sans-Serif" font-size="10.00">Cpl::Container::Item</text>
</a>
</g>
</g>
<!-- Node9&#45;&gt;Node8 -->
<g id="edge8" class="edge"><title>Node9&#45;&gt;Node8</title>
<path fill="none" stroke="midnightblue" d="M114.375,-88.5C123.061,-88.5 132.056,-88.5 140.915,-88.5"/>
<polygon fill="midnightblue" stroke="midnightblue" points="114.345,-85.0001 104.345,-88.5 114.345,-92.0001 114.345,-85.0001"/>
</g>
<!-- Node10 -->
<g id="node10" class="node"><title>Node10</title>
<g id="a_node10"><a xlink:href="class_cpl_1_1_dm_1_1_model_database.html" target="_top" xlink:title="This concrete class implements a simple Model Database.">
<polygon fill="white" stroke="black" points="904,-249 904,-268 1029,-268 1029,-249 904,-249"/>
<text text-anchor="middle" x="966.5" y="-256" font-family="Helvetica,sans-Serif" font-size="10.00">Cpl::Dm::ModelDatabase</text>
</a>
</g>
</g>
<!-- Node10&#45;&gt;Node4 -->
<g id="edge9" class="edge"><title>Node10&#45;&gt;Node4</title>
<path fill="none" stroke="#9a32cd" stroke-dasharray="5,2" d="M998.283,-244.682C1032.51,-229.259 1089.37,-203.448 1138,-180.5 1163.36,-168.534 1192.4,-154.32 1211.08,-145.116"/>
<polygon fill="#9a32cd" stroke="#9a32cd" points="996.522,-241.637 988.84,-248.933 999.395,-248.02 996.522,-241.637"/>
<text text-anchor="middle" x="1095.5" y="-222.5" font-family="Helvetica,sans-Serif" font-size="10.00"> m_modelDatabase</text>
</g>
<!-- Node11 -->
<g id="node11" class="node"><title>Node11</title>
<g id="a_node11"><a xlink:href="class_cpl_1_1_dm_1_1_model_database_api.html" target="_top" xlink:title="This class defines the basic operations that can be performed on a Model Base.">
<polygon fill="white" stroke="black" points="598,-265 598,-284 738,-284 738,-265 598,-265"/>
<text text-anchor="middle" x="668" y="-272" font-family="Helvetica,sans-Serif" font-size="10.00">Cpl::Dm::ModelDatabaseApi</text>
</a>
</g>
</g>
<!-- Node11&#45;&gt;Node10 -->
<g id="edge10" class="edge"><title>Node11&#45;&gt;Node10</title>
<path fill="none" stroke="midnightblue" d="M748.346,-270.218C797.123,-267.586 858.7,-264.263 903.814,-261.829"/>
<polygon fill="midnightblue" stroke="midnightblue" points="747.939,-266.735 738.142,-270.769 748.316,-273.725 747.939,-266.735"/>
</g>
<!-- Node12 -->
<g id="node12" class="node"><title>Node12</title>
<g id="a_node12"><a xlink:href="class_cpl_1_1_container_1_1_map.html" target="_top" xlink:title=" ">
<polygon fill="white" stroke="black" points="605.5,-215.5 605.5,-245.5 730.5,-245.5 730.5,-215.5 605.5,-215.5"/>
<text text-anchor="start" x="613.5" y="-233.5" font-family="Helvetica,sans-Serif" font-size="10.00">Cpl::Container::Map</text>
<text text-anchor="middle" x="668" y="-222.5" font-family="Helvetica,sans-Serif" font-size="10.00">&lt; Cpl::Dm::ModelPoint &gt;</text>
</a>
</g>
</g>
<!-- Node12&#45;&gt;Node10 -->
<g id="edge11" class="edge"><title>Node12&#45;&gt;Node10</title>
<path fill="none" stroke="#9a32cd" stroke-dasharray="5,2" d="M741.029,-236.083C781.832,-239.386 833.802,-243.829 880,-248.5 887.732,-249.282 895.85,-250.159 903.88,-251.059"/>
<polygon fill="#9a32cd" stroke="#9a32cd" points="741.155,-232.581 730.906,-235.268 740.593,-239.559 741.155,-232.581"/>
<text text-anchor="middle" x="818" y="-251.5" font-family="Helvetica,sans-Serif" font-size="10.00"> m_map</text>
</g>
<!-- Node13 -->
<g id="node13" class="node"><title>Node13</title>
<g id="a_node13"><a xlink:href="class_cpl_1_1_container_1_1_map.html" target="_top" xlink:title="This template class implements an Map using an AVL Binary tree (i.e.">
<polygon fill="white" stroke="black" points="335,-215.5 335,-245.5 438,-245.5 438,-215.5 335,-215.5"/>
<text text-anchor="start" x="343" y="-233.5" font-family="Helvetica,sans-Serif" font-size="10.00">Cpl::Container::Map</text>
<text text-anchor="middle" x="386.5" y="-222.5" font-family="Helvetica,sans-Serif" font-size="10.00">&lt; ITEM &gt;</text>
</a>
</g>
</g>
<!-- Node13&#45;&gt;Node12 -->
<g id="edge12" class="edge"><title>Node13&#45;&gt;Node12</title>
<path fill="none" stroke="orange" stroke-dasharray="5,2" d="M448.347,-230.5C494.819,-230.5 558.606,-230.5 605.29,-230.5"/>
<polygon fill="orange" stroke="orange" points="448.115,-227 438.115,-230.5 448.115,-234 448.115,-227"/>
<text text-anchor="middle" x="524" y="-233.5" font-family="Helvetica,sans-Serif" font-size="10.00"> &lt; Cpl::Dm::ModelPoint &gt;</text>
</g>
<!-- Node14 -->
<g id="node14" class="node"><title>Node14</title>
<g id="a_node14"><a xlink:href="class_cpl_1_1_system_1_1_mutex.html" target="_top" xlink:title="This mutex class defines the interface for a mutex that has &quot;recursive&quot; semantics.">
<polygon fill="white" stroke="black" points="616,-303 616,-322 720,-322 720,-303 616,-303"/>
<text text-anchor="middle" x="668" y="-310" font-family="Helvetica,sans-Serif" font-size="10.00">Cpl::System::Mutex</text>
</a>
</g>
</g>
<!-- Node14&#45;&gt;Node10 -->
<g id="edge13" class="edge"><title>Node14&#45;&gt;Node10</title>
<path fill="none" stroke="#9a32cd" stroke-dasharray="5,2" d="M730.551,-304.84C772.792,-299.175 830.028,-290.691 880,-280.5 897.121,-277.008 915.948,-272.264 931.567,-268.075"/>
<polygon fill="#9a32cd" stroke="#9a32cd" points="729.874,-301.399 720.421,-306.184 730.794,-308.339 729.874,-301.399"/>
<text text-anchor="middle" x="818" y="-304.5" font-family="Helvetica,sans-Serif" font-size="10.00"> m_lock</text>
</g>
<!-- Node15 -->
<g id="node15" class="node"><title>Node15</title>
<g id="a_node15"><a xlink:href="class_cpl_1_1_container_1_1_d_list.html" target="_top" xlink:title=" ">
<polygon fill="white" stroke="black" points="898,-165.5 898,-195.5 1035,-195.5 1035,-165.5 898,-165.5"/>
<text text-anchor="start" x="906" y="-183.5" font-family="Helvetica,sans-Serif" font-size="10.00">Cpl::Container::DList</text>
<text text-anchor="middle" x="966.5" y="-172.5" font-family="Helvetica,sans-Serif" font-size="10.00">&lt; Cpl::Dm::SubscriberApi &gt;</text>
</a>
</g>
</g>
<!-- Node15&#45;&gt;Node4 -->
<g id="edge14" class="edge"><title>Node15&#45;&gt;Node4</title>
<path fill="none" stroke="#9a32cd" stroke-dasharray="5,2" d="M1045.34,-167.181C1086.99,-160.055 1137.3,-151.447 1174.96,-145.003"/>
<polygon fill="#9a32cd" stroke="#9a32cd" points="1044.5,-163.775 1035.23,-168.911 1045.68,-170.675 1044.5,-163.775"/>
<text text-anchor="middle" x="1095.5" y="-168.5" font-family="Helvetica,sans-Serif" font-size="10.00"> m_subscribers</text>
</g>
<!-- Node16 -->
<g id="node16" class="node"><title>Node16</title>
<g id="a_node16"><a xlink:href="class_cpl_1_1_container_1_1_d_list.html" target="_top" xlink:title="This template class implements a Doubly linked list which maintains the ordering imposed on it by the...">
<polygon fill="white" stroke="black" points="614.5,-166.5 614.5,-196.5 721.5,-196.5 721.5,-166.5 614.5,-166.5"/>
<text text-anchor="start" x="622.5" y="-184.5" font-family="Helvetica,sans-Serif" font-size="10.00">Cpl::Container::DList</text>
<text text-anchor="middle" x="668" y="-173.5" font-family="Helvetica,sans-Serif" font-size="10.00">&lt; ITEM &gt;</text>
</a>
</g>
</g>
<!-- Node16&#45;&gt;Node15 -->
<g id="edge15" class="edge"><title>Node16&#45;&gt;Node15</title>
<path fill="none" stroke="orange" stroke-dasharray="5,2" d="M731.774,-181.288C780.532,-181.124 848.026,-180.896 897.954,-180.728"/>
<polygon fill="orange" stroke="orange" points="731.655,-177.789 721.667,-181.322 731.678,-184.789 731.655,-177.789"/>
<text text-anchor="middle" x="818" y="-184.5" font-family="Helvetica,sans-Serif" font-size="10.00"> &lt; Cpl::Dm::SubscriberApi &gt;</text>
</g>
<!-- Node17 -->
<g id="node17" class="node"><title>Node17</title>
<g id="a_node17"><a xlink:href="class_cpl_1_1_dm_1_1_static_info.html" target="_top" xlink:title="This class defines an interface for a Model Point to store its constant/static data in program memory...">
<polygon fill="white" stroke="black" points="916.5,-126 916.5,-145 1016.5,-145 1016.5,-126 916.5,-126"/>
<text text-anchor="middle" x="966.5" y="-133" font-family="Helvetica,sans-Serif" font-size="10.00">Cpl::Dm::StaticInfo</text>
</a>
</g>
</g>
<!-- Node17&#45;&gt;Node4 -->
<g id="edge16" class="edge"><title>Node17&#45;&gt;Node4</title>
<path fill="none" stroke="#9a32cd" stroke-dasharray="5,2" d="M1027.1,-135.5C1065.29,-135.5 1115.16,-135.5 1155.96,-135.5"/>
<polygon fill="#9a32cd" stroke="#9a32cd" points="1026.66,-132 1016.66,-135.5 1026.66,-139 1026.66,-132"/>
<text text-anchor="middle" x="1095.5" y="-138.5" font-family="Helvetica,sans-Serif" font-size="10.00"> m_staticInfo</text>
</g>
<!-- Node18 -->
<g id="node18" class="node"><title>Node18</title>
<g id="a_node18"><a xlink:href="class_cpl_1_1_container_1_1_key_literal_string.html" target="_top" xlink:title="This class provides a &#39;Key&#39; wrapper for a C string literal.">
<polygon fill="white" stroke="black" points="604,-117.5 604,-147.5 732,-147.5 732,-117.5 604,-117.5"/>
<text text-anchor="start" x="612" y="-135.5" font-family="Helvetica,sans-Serif" font-size="10.00">Cpl::Container::KeyLiteral</text>
<text text-anchor="middle" x="668" y="-124.5" font-family="Helvetica,sans-Serif" font-size="10.00">String</text>
</a>
</g>
</g>
<!-- Node18&#45;&gt;Node17 -->
<g id="edge17" class="edge"><title>Node18&#45;&gt;Node17</title>
<path fill="none" stroke="midnightblue" d="M742.469,-133.243C796.575,-133.791 868.686,-134.52 916.069,-135"/>
<polygon fill="midnightblue" stroke="midnightblue" points="742.278,-129.741 732.243,-133.14 742.207,-136.741 742.278,-129.741"/>
</g>
<!-- Node19 -->
<g id="node19" class="node"><title>Node19</title>
<g id="a_node19"><a xlink:href="class_cpl_1_1_container_1_1_key_string_buffer.html" target="_top" xlink:title="This class provides a &#39;Key&#39; wrapper for a array of Character of length N, i.e.">
<polygon fill="white" stroke="black" points="323,-117.5 323,-147.5 450,-147.5 450,-117.5 323,-117.5"/>
<text text-anchor="start" x="331" y="-135.5" font-family="Helvetica,sans-Serif" font-size="10.00">Cpl::Container::KeyString</text>
<text text-anchor="middle" x="386.5" y="-124.5" font-family="Helvetica,sans-Serif" font-size="10.00">Buffer</text>
</a>
</g>
</g>
<!-- Node19&#45;&gt;Node18 -->
<g id="edge18" class="edge"><title>Node19&#45;&gt;Node18</title>
<path fill="none" stroke="midnightblue" d="M460.373,-132.5C504.769,-132.5 560.948,-132.5 603.517,-132.5"/>
<polygon fill="midnightblue" stroke="midnightblue" points="460.225,-129 450.225,-132.5 460.225,-136 460.225,-129"/>
</g>
<!-- Node20 -->
<g id="node20" class="node"><title>Node20</title>
<g id="a_node20"><a xlink:href="class_cpl_1_1_container_1_1_key.html" target="_top" xlink:title="This abstract class defines the interface that a contained object must support if it has comparable k...">
<polygon fill="white" stroke="black" points="163,-123 163,-142 264,-142 264,-123 163,-123"/>
<text text-anchor="middle" x="213.5" y="-130" font-family="Helvetica,sans-Serif" font-size="10.00">Cpl::Container::Key</text>
</a>
</g>
</g>
<!-- Node20&#45;&gt;Node19 -->
<g id="edge19" class="edge"><title>Node20&#45;&gt;Node19</title>
<path fill="none" stroke="midnightblue" d="M274.481,-132.5C290.103,-132.5 306.976,-132.5 322.737,-132.5"/>
<polygon fill="midnightblue" stroke="midnightblue" points="274.42,-129 264.42,-132.5 274.42,-136 274.42,-129"/>
</g>
<!-- Node21&#45;&gt;Node3 -->
<g id="edge20" class="edge"><title>Node21&#45;&gt;Node3</title>
<path fill="none" stroke="orange" stroke-dasharray="5,2" d="M1512.51,-203.117C1543.38,-211.15 1580.56,-220.827 1609.87,-228.455"/>
<polygon fill="orange" stroke="orange" points="1513.29,-199.703 1502.73,-200.572 1511.53,-206.478 1513.29,-199.703"/>
<text text-anchor="middle" x="1562" y="-224.5" font-family="Helvetica,sans-Serif" font-size="10.00"> &lt; bool &gt;</text>
</g>
<!-- Node21&#45;&gt;Node29 -->
<g id="edge33" class="edge"><title>Node21&#45;&gt;Node29</title>
<path fill="none" stroke="orange" stroke-dasharray="5,2" d="M1512.91,-174.69C1543.7,-168.162 1580.69,-160.318 1609.87,-154.129"/>
<polygon fill="orange" stroke="orange" points="1511.79,-171.351 1502.73,-176.849 1513.24,-178.198 1511.79,-171.351"/>
<text text-anchor="middle" x="1562" y="-171.5" font-family="Helvetica,sans-Serif" font-size="10.00"> &lt; float &gt;</text>
</g>
<!-- Node30 -->
<g id="node30" class="node"><title>Node30</title>
<g id="a_node30"><a xlink:href="class_cpl_1_1_dm_1_1_mp_1_1_basic_real.html" target="_top" xlink:title="This template class extends the implementation of Basic&lt;ELEMTYPE&gt; to support the toJSON() and fromJSO...">
<polygon fill="white" stroke="black" points="1600,-177.5 1600,-207.5 1722,-207.5 1722,-177.5 1600,-177.5"/>
<text text-anchor="start" x="1608" y="-195.5" font-family="Helvetica,sans-Serif" font-size="10.00">Cpl::Dm::Mp::BasicReal</text>
<text text-anchor="middle" x="1661" y="-184.5" font-family="Helvetica,sans-Serif" font-size="10.00">&lt; ELEMTYPE &gt;</text>
</a>
</g>
</g>
<!-- Node21&#45;&gt;Node30 -->
<g id="edge35" class="edge"><title>Node21&#45;&gt;Node30</title>
<path fill="none" stroke="midnightblue" d="M1512.96,-188.957C1540.32,-189.616 1572.58,-190.393 1599.9,-191.052"/>
<polygon fill="midnightblue" stroke="midnightblue" points="1512.81,-185.452 1502.73,-188.71 1512.64,-192.45 1512.81,-185.452"/>
</g>
<!-- Node22&#45;&gt;Node1 -->
<g id="edge22" class="edge"><title>Node22&#45;&gt;Node1</title>
<path fill="none" stroke="#9a32cd" stroke-dasharray="5,2" d="M1534.09,-98.6494C1572.33,-99.095 1618.5,-99.5 1660,-99.5 1660,-99.5 1660,-99.5 2104,-99.5 2145.48,-99.5 2191.47,-103.132 2229.54,-107.134"/>
<polygon fill="#9a32cd" stroke="#9a32cd" points="1534.08,-95.1492 1524.04,-98.5293 1534,-102.149 1534.08,-95.1492"/>
<text text-anchor="middle" x="1859" y="-102.5" font-family="Helvetica,sans-Serif" font-size="10.00"> systemConfig</text>
</g>
<!-- Node23 -->
<g id="node23" class="node"><title>Node23</title>
<g id="a_node23"><a xlink:href="namespace_storm_1_1_type.html#struct_storm_1_1_type_1_1_system_config___t" target="_top" xlink:title="The following typedef contains system attributes, parameters, bounds, etc.">
<polygon fill="white" stroke="black" points="1157,-50 1157,-69 1306,-69 1306,-50 1157,-50"/>
<text text-anchor="middle" x="1231.5" y="-57" font-family="Helvetica,sans-Serif" font-size="10.00">Storm::Type::SystemConfig_T</text>
</a>
</g>
</g>
<!-- Node23&#45;&gt;Node22 -->
<g id="edge24" class="edge"><title>Node23&#45;&gt;Node22</title>
<path fill="none" stroke="#9a32cd" stroke-dasharray="5,2" d="M1297.19,-70.7759C1328.55,-76.2429 1365.81,-82.7381 1395.75,-87.9561"/>
<polygon fill="#9a32cd" stroke="#9a32cd" points="1297.68,-67.3093 1287.23,-69.04 1296.48,-74.2053 1297.68,-67.3093"/>
<text text-anchor="middle" x="1343" y="-84.5" font-family="Helvetica,sans-Serif" font-size="10.00"> m_data</text>
</g>
<!-- Node24 -->
<g id="node24" class="node"><title>Node24</title>
<g id="a_node24"><a xlink:href="namespace_storm_1_1_type.html#struct_storm_1_1_type_1_1_stage___t" target="_top" xlink:title="The following typedef information per stage.">
<polygon fill="white" stroke="black" points="910,-50 910,-69 1023,-69 1023,-50 910,-50"/>
<text text-anchor="middle" x="966.5" y="-57" font-family="Helvetica,sans-Serif" font-size="10.00">Storm::Type::Stage_T</text>
</a>
</g>
</g>
<!-- Node24&#45;&gt;Node23 -->
<g id="edge25" class="edge"><title>Node24&#45;&gt;Node23</title>
<path fill="none" stroke="#9a32cd" stroke-dasharray="5,2" d="M1033.59,-59.5C1071.1,-59.5 1118.13,-59.5 1156.82,-59.5"/>
<polygon fill="#9a32cd" stroke="#9a32cd" points="1033.28,-56.0001 1023.28,-59.5 1033.28,-63.0001 1033.28,-56.0001"/>
<text text-anchor="middle" x="1095.5" y="-62.5" font-family="Helvetica,sans-Serif" font-size="10.00"> stages</text>
</g>
<!-- Node25&#45;&gt;Node1 -->
<g id="edge26" class="edge"><title>Node25&#45;&gt;Node1</title>
<path fill="none" stroke="#9a32cd" stroke-dasharray="5,2" d="M1524.42,-52.5C1564.35,-52.5 1614.93,-52.5 1660,-52.5 1660,-52.5 1660,-52.5 2104,-52.5 2170.29,-52.5 2243.27,-83.2227 2282.41,-102.424"/>
<polygon fill="#9a32cd" stroke="#9a32cd" points="1524.24,-49.0001 1514.24,-52.5 1524.24,-56.0001 1524.24,-49.0001"/>
<text text-anchor="middle" x="1859" y="-55.5" font-family="Helvetica,sans-Serif" font-size="10.00"> setpoints</text>
</g>
<!-- Node26 -->
<g id="node26" class="node"><title>Node26</title>
<g id="a_node26"><a xlink:href="class_storm_1_1_dm_1_1_mp_setpoints.html#struct_storm_1_1_dm_1_1_mp_setpoints_1_1_data" target="_top" xlink:title="The MP&#39;s Data container.">
<polygon fill="white" stroke="black" points="1169,-0.5 1169,-30.5 1294,-30.5 1294,-0.5 1169,-0.5"/>
<text text-anchor="start" x="1177" y="-18.5" font-family="Helvetica,sans-Serif" font-size="10.00">Storm::Dm::MpSetpoints</text>
<text text-anchor="middle" x="1231.5" y="-7.5" font-family="Helvetica,sans-Serif" font-size="10.00">::Data</text>
</a>
</g>
</g>
<!-- Node26&#45;&gt;Node25 -->
<g id="edge28" class="edge"><title>Node26&#45;&gt;Node25</title>
<path fill="none" stroke="#9a32cd" stroke-dasharray="5,2" d="M1304.41,-19.1394C1322.95,-20.7644 1342.8,-23.1115 1361,-26.5 1382.16,-30.4386 1405.49,-37.3025 1423.02,-42.989"/>
<polygon fill="#9a32cd" stroke="#9a32cd" points="1304.52,-15.6367 1294.27,-18.3089 1303.95,-22.6134 1304.52,-15.6367"/>
<text text-anchor="middle" x="1343" y="-29.5" font-family="Helvetica,sans-Serif" font-size="10.00"> m_data</text>
</g>
<!-- Node27 -->
<g id="node27" class="node"><title>Node27</title>
<g id="a_node27"><a xlink:href="class_cpl_1_1_dm_1_1_mp_1_1_float.html" target="_top" xlink:title="This class provides a concrete implementation for a Point who&#39;s data is a float.">
<polygon fill="white" stroke="black" points="2053.5,-130 2053.5,-149 2152.5,-149 2152.5,-130 2053.5,-130"/>
<text text-anchor="middle" x="2103" y="-137" font-family="Helvetica,sans-Serif" font-size="10.00">Cpl::Dm::Mp::Float</text>
</a>
</g>
</g>
<!-- Node27&#45;&gt;Node1 -->
<g id="edge29" class="edge"><title>Node27&#45;&gt;Node1</title>
<path fill="none" stroke="#9a32cd" stroke-dasharray="5,2" d="M2162.55,-133.278C2183.48,-131.052 2207.47,-128.503 2229.97,-126.112"/>
<polygon fill="#9a32cd" stroke="#9a32cd" points="2162.11,-129.805 2152.53,-134.342 2162.85,-136.765 2162.11,-129.805"/>
<text text-anchor="middle" x="2191.5" y="-135.5" font-family="Helvetica,sans-Serif" font-size="10.00"> activeIdt</text>
</g>
<!-- Node28 -->
<g id="node28" class="node"><title>Node28</title>
<g id="a_node28"><a xlink:href="class_cpl_1_1_dm_1_1_mp_1_1_basic_real.html" target="_top" xlink:title=" ">
<polygon fill="white" stroke="black" points="1798,-129.5 1798,-159.5 1920,-159.5 1920,-129.5 1798,-129.5"/>
<text text-anchor="start" x="1806" y="-147.5" font-family="Helvetica,sans-Serif" font-size="10.00">Cpl::Dm::Mp::BasicReal</text>
<text text-anchor="middle" x="1859" y="-136.5" font-family="Helvetica,sans-Serif" font-size="10.00">&lt; float &gt;</text>
</a>
</g>
</g>
<!-- Node28&#45;&gt;Node27 -->
<g id="edge30" class="edge"><title>Node28&#45;&gt;Node27</title>
<path fill="none" stroke="midnightblue" d="M1930.21,-143.049C1969.64,-142.235 2017.85,-141.239 2053.15,-140.509"/>
<polygon fill="midnightblue" stroke="midnightblue" points="1930.06,-139.552 1920.13,-143.258 1930.2,-146.55 1930.06,-139.552"/>
</g>
<!-- Node29&#45;&gt;Node28 -->
<g id="edge31" class="edge"><title>Node29&#45;&gt;Node28</title>
<path fill="none" stroke="midnightblue" d="M1722.26,-143.807C1746.25,-143.93 1773.8,-144.07 1797.79,-144.193"/>
<polygon fill="midnightblue" stroke="midnightblue" points="1722.24,-140.307 1712.22,-143.756 1722.2,-147.307 1722.24,-140.307"/>
</g>
<!-- Node30&#45;&gt;Node28 -->
<g id="edge34" class="edge"><title>Node30&#45;&gt;Node28</title>
<path fill="none" stroke="orange" stroke-dasharray="5,2" d="M1731.91,-175.38C1753.51,-170.089 1777.1,-164.312 1797.98,-159.2"/>
<polygon fill="orange" stroke="orange" points="1731.02,-171.994 1722.14,-177.772 1732.68,-178.793 1731.02,-171.994"/>
<text text-anchor="middle" x="1760" y="-176.5" font-family="Helvetica,sans-Serif" font-size="10.00"> &lt; float &gt;</text>
</g>
</g>
</svg>
