<?xml version="1.0" encoding="UTF-8" standalone="no"?>
<!DOCTYPE svg PUBLIC "-//W3C//DTD SVG 1.1//EN"
 "http://www.w3.org/Graphics/SVG/1.1/DTD/svg11.dtd">
<!-- Generated by graphviz version 10.0.1 (20240210.2158)
 -->
<!-- Title: Storm::Component::Control::Equipment::Args_T Pages: 1 -->
<svg width="712pt" height="262pt"
 viewBox="0.00 0.00 712.25 262.00" xmlns="http://www.w3.org/2000/svg" xmlns:xlink="http://www.w3.org/1999/xlink">
<g id="graph0" class="graph" transform="scale(1 1) rotate(0) translate(4 258)">
<title>Storm::Component::Control::Equipment::Args_T</title>
<!-- Node1 -->
<g id="Node000001" class="node">
<title>Node1</title>
<g id="a_Node000001"><a xlink:title="This structure holds all of the data/info/configuration/etc.">
<polygon fill="#999999" stroke="#666666" points="704.25,-122 569.75,-122 569.75,-90 704.25,-90 704.25,-122"/>
<text text-anchor="start" x="577.75" y="-108.5" font-family="Helvetica,sans-Serif" font-size="10.00">Storm::Component::Control</text>
<text text-anchor="middle" x="637" y="-96.5" font-family="Helvetica,sans-Serif" font-size="10.00">::Equipment::Args_T</text>
</a>
</g>
</g>
<!-- Node2 -->
<g id="Node000002" class="node">
<title>Node2</title>
<g id="a_Node000002"><a xlink:href="namespace_storm_1_1_type.html#struct_storm_1_1_type_1_1_system_config___t" target="_top" xlink:title="The following typedef contains system attributes, parameters, bounds, etc.">
<polygon fill="white" stroke="#666666" points="428.75,-252 282.25,-252 282.25,-232 428.75,-232 428.75,-252"/>
<text text-anchor="middle" x="355.5" y="-238.5" font-family="Helvetica,sans-Serif" font-size="10.00">Storm::Type::SystemConfig_T</text>
</a>
</g>
</g>
<!-- Node2&#45;&gt;Node1 -->
<g id="edge1_Node000001_Node000002" class="edge">
<title>Node2&#45;&gt;Node1</title>
<g id="a_edge1_Node000001_Node000002"><a xlink:title=" ">
<path fill="none" stroke="#9a32cd" stroke-dasharray="5,2" d="M440.23,-237.95C476.48,-233.2 518.2,-223.5 551.75,-204 586.28,-183.93 613.52,-144.39 626.92,-122.16"/>
<polygon fill="#9a32cd" stroke="#9a32cd" points="440.19,-234.43 430.67,-239.09 441.02,-241.38 440.19,-234.43"/>
</a>
</g>
<text text-anchor="middle" x="502.25" y="-237.5" font-family="Helvetica,sans-Serif" font-size="10.00" fill="grey"> systemConfig</text>
</g>
<!-- Node3 -->
<g id="Node000003" class="node">
<title>Node3</title>
<g id="a_Node000003"><a xlink:href="namespace_storm_1_1_type.html#struct_storm_1_1_type_1_1_stage___t" target="_top" xlink:title="The following typedef information per stage.">
<polygon fill="white" stroke="#666666" points="121.75,-252 10.5,-252 10.5,-232 121.75,-232 121.75,-252"/>
<text text-anchor="middle" x="66.12" y="-238.5" font-family="Helvetica,sans-Serif" font-size="10.00">Storm::Type::Stage_T</text>
</a>
</g>
</g>
<!-- Node3&#45;&gt;Node2 -->
<g id="edge2_Node000002_Node000003" class="edge">
<title>Node3&#45;&gt;Node2</title>
<g id="a_edge2_Node000002_Node000003"><a xlink:title=" ">
<path fill="none" stroke="#9a32cd" stroke-dasharray="5,2" d="M133.45,-242C177.86,-242 236.3,-242 281.94,-242"/>
<polygon fill="#9a32cd" stroke="#9a32cd" points="133.71,-238.5 123.71,-242 133.71,-245.5 133.71,-238.5"/>
</a>
</g>
<text text-anchor="middle" x="204.25" y="-244.5" font-family="Helvetica,sans-Serif" font-size="10.00" fill="grey"> stages</text>
</g>
<!-- Node4 -->
<g id="Node000004" class="node">
<title>Node4</title>
<g id="a_Node000004"><a xlink:href="struct_cpl_1_1_system_1_1_elapsed_time_1_1_precision___t.html" target="_top" xlink:title="Data type for time in seconds with a &#39;fractional&#39; millisecond precision.">
<polygon fill="white" stroke="#666666" points="132.25,-119 0,-119 0,-87 132.25,-87 132.25,-119"/>
<text text-anchor="start" x="8" y="-105.5" font-family="Helvetica,sans-Serif" font-size="10.00">Cpl::System::ElapsedTime</text>
<text text-anchor="middle" x="66.12" y="-93.5" font-family="Helvetica,sans-Serif" font-size="10.00">::Precision_T</text>
</a>
</g>
</g>
<!-- Node4&#45;&gt;Node1 -->
<g id="edge3_Node000001_Node000004" class="edge">
<title>Node4&#45;&gt;Node1</title>
<g id="a_edge3_Node000001_Node000004"><a xlink:title=" ">
<path fill="none" stroke="#9a32cd" stroke-dasharray="5,2" d="M86.64,-127.74C101.88,-144.91 124.69,-166.37 150.25,-176 310.91,-236.53 519.6,-158.41 601.17,-122.4"/>
<polygon fill="#9a32cd" stroke="#9a32cd" points="89.53,-125.73 80.38,-120.39 84.2,-130.27 89.53,-125.73"/>
</a>
</g>
<text text-anchor="middle" x="355.5" y="-212.5" font-family="Helvetica,sans-Serif" font-size="10.00" fill="grey"> currentInterval</text>
<text text-anchor="middle" x="355.5" y="-200.5" font-family="Helvetica,sans-Serif" font-size="10.00" fill="grey">currentTick</text>
</g>
<!-- Node5 -->
<g id="Node000005" class="node">
<title>Node5</title>
<g id="a_Node000005"><a xlink:href="struct_storm_1_1_type_1_1_equipment_times___t.html" target="_top" xlink:title="The following typedef is used to store the &#39;begin times&#39; for the Indoor and Outdoor HVAC equipment.">
<polygon fill="white" stroke="#666666" points="434.75,-134 276.25,-134 276.25,-114 434.75,-114 434.75,-134"/>
<text text-anchor="middle" x="355.5" y="-120.5" font-family="Helvetica,sans-Serif" font-size="10.00">Storm::Type::EquipmentTimes_T</text>
</a>
</g>
</g>
<!-- Node4&#45;&gt;Node5 -->
<g id="edge5_Node000005_Node000004" class="edge">
<title>Node4&#45;&gt;Node5</title>
<g id="a_edge5_Node000005_Node000004"><a xlink:title=" ">
<path fill="none" stroke="#9a32cd" stroke-dasharray="5,2" d="M143.44,-99.92C178.51,-99.4 220.58,-100.03 258.25,-104 276.41,-105.91 296.21,-109.72 313.09,-113.51"/>
<polygon fill="#9a32cd" stroke="#9a32cd" points="143.77,-96.42 133.83,-100.1 143.9,-103.41 143.77,-96.42"/>
</a>
</g>
<text text-anchor="middle" x="204.25" y="-166.5" font-family="Helvetica,sans-Serif" font-size="10.00" fill="grey"> indoorUnitBeginOffTime</text>
<text text-anchor="middle" x="204.25" y="-154.5" font-family="Helvetica,sans-Serif" font-size="10.00" fill="grey">indoorUnitBeginOnTime</text>
<text text-anchor="middle" x="204.25" y="-142.5" font-family="Helvetica,sans-Serif" font-size="10.00" fill="grey">outdoorUnitBeginOffTime</text>
<text text-anchor="middle" x="204.25" y="-130.5" font-family="Helvetica,sans-Serif" font-size="10.00" fill="grey">outdoorUnitBeginOnTime</text>
<text text-anchor="middle" x="204.25" y="-118.5" font-family="Helvetica,sans-Serif" font-size="10.00" fill="grey">systemBeginOffTime</text>
<text text-anchor="middle" x="204.25" y="-106.5" font-family="Helvetica,sans-Serif" font-size="10.00" fill="grey">systemBeginOnTime</text>
</g>
<!-- Node8 -->
<g id="Node000008" class="node">
<title>Node8</title>
<g id="a_Node000008"><a xlink:href="struct_storm_1_1_type_1_1_cycle_info___t.html" target="_top" xlink:title="The following typedef is used to store the information about the current on/off cycling of the equipm...">
<polygon fill="white" stroke="#666666" points="418.25,-96 292.75,-96 292.75,-76 418.25,-76 418.25,-96"/>
<text text-anchor="middle" x="355.5" y="-82.5" font-family="Helvetica,sans-Serif" font-size="10.00">Storm::Type::CycleInfo_T</text>
</a>
</g>
</g>
<!-- Node4&#45;&gt;Node8 -->
<g id="edge9_Node000008_Node000004" class="edge">
<title>Node4&#45;&gt;Node8</title>
<g id="a_edge9_Node000008_Node000004"><a xlink:title=" ">
<path fill="none" stroke="#9a32cd" stroke-dasharray="5,2" d="M99.09,-80.32C113.91,-71.16 132.21,-61.66 150.25,-57 196.73,-45 211.78,-44.96 258.25,-57 267.11,-59.3 267.73,-63.67 276.25,-67 284.71,-70.31 293.92,-73.16 302.96,-75.58"/>
<polygon fill="#9a32cd" stroke="#9a32cd" points="97.21,-77.37 90.71,-85.73 101.01,-83.25 97.21,-77.37"/>
</a>
</g>
<text text-anchor="middle" x="204.25" y="-71.5" font-family="Helvetica,sans-Serif" font-size="10.00" fill="grey"> beginOffTime</text>
<text text-anchor="middle" x="204.25" y="-59.5" font-family="Helvetica,sans-Serif" font-size="10.00" fill="grey">beginOnTime</text>
</g>
<!-- Node5&#45;&gt;Node1 -->
<g id="edge4_Node000001_Node000005" class="edge">
<title>Node5&#45;&gt;Node1</title>
<g id="a_edge4_Node000001_Node000005"><a xlink:title=" ">
<path fill="none" stroke="#9a32cd" stroke-dasharray="5,2" d="M446.46,-118.21C486.39,-115.64 532.56,-112.66 569.34,-110.29"/>
<polygon fill="#9a32cd" stroke="#9a32cd" points="446.36,-114.71 436.61,-118.84 446.81,-121.69 446.36,-114.71"/>
</a>
</g>
<text text-anchor="middle" x="502.25" y="-119.5" font-family="Helvetica,sans-Serif" font-size="10.00" fill="grey"> equipmentBeginTimes</text>
</g>
<!-- Node6 -->
<g id="Node000006" class="node">
<title>Node6</title>
<g id="a_Node000006"><a xlink:href="namespace_storm_1_1_type.html#struct_storm_1_1_type_1_1_white_box___t" target="_top" xlink:title="The following typedef contains variables/settings/flags/etc.">
<polygon fill="white" stroke="#666666" points="419.75,-58 291.25,-58 291.25,-38 419.75,-38 419.75,-58"/>
<text text-anchor="middle" x="355.5" y="-44.5" font-family="Helvetica,sans-Serif" font-size="10.00">Storm::Type::WhiteBox_T</text>
</a>
</g>
</g>
<!-- Node6&#45;&gt;Node1 -->
<g id="edge6_Node000001_Node000006" class="edge">
<title>Node6&#45;&gt;Node1</title>
<g id="a_edge6_Node000001_Node000006"><a xlink:title=" ">
<path fill="none" stroke="#9a32cd" stroke-dasharray="5,2" d="M431.28,-52.59C468,-56 512.64,-61.89 551.75,-72 568.55,-76.34 586.47,-83.23 601.44,-89.67"/>
<polygon fill="#9a32cd" stroke="#9a32cd" points="431.93,-49.13 421.66,-51.74 431.32,-56.11 431.93,-49.13"/>
</a>
</g>
<text text-anchor="middle" x="502.25" y="-74.5" font-family="Helvetica,sans-Serif" font-size="10.00" fill="grey"> whiteBox</text>
</g>
<!-- Node7 -->
<g id="Node000007" class="node">
<title>Node7</title>
<g id="a_Node000007"><a xlink:href="namespace_storm_1_1_type.html#struct_storm_1_1_type_1_1_virtual_outputs___t" target="_top" xlink:title="The following typedef is used to hold the virtual outputs for System.">
<polygon fill="white" stroke="#666666" points="429.5,-20 281.5,-20 281.5,0 429.5,0 429.5,-20"/>
<text text-anchor="middle" x="355.5" y="-6.5" font-family="Helvetica,sans-Serif" font-size="10.00">Storm::Type::VirtualOutputs_T</text>
</a>
</g>
</g>
<!-- Node7&#45;&gt;Node1 -->
<g id="edge7_Node000001_Node000007" class="edge">
<title>Node7&#45;&gt;Node1</title>
<g id="a_edge7_Node000001_Node000007"><a xlink:title=" ">
<path fill="none" stroke="#9a32cd" stroke-dasharray="5,2" d="M441.2,-12.92C476.53,-16.57 517.29,-24.04 551.75,-39 579.01,-50.83 604.9,-73.81 620.62,-89.53"/>
<polygon fill="#9a32cd" stroke="#9a32cd" points="441.72,-9.46 431.43,-12.01 441.07,-16.43 441.72,-9.46"/>
</a>
</g>
<text text-anchor="middle" x="502.25" y="-41.5" font-family="Helvetica,sans-Serif" font-size="10.00" fill="grey"> vOutputs</text>
</g>
<!-- Node8&#45;&gt;Node1 -->
<g id="edge8_Node000001_Node000008" class="edge">
<title>Node8&#45;&gt;Node1</title>
<g id="a_edge8_Node000001_Node000008"><a xlink:title=" ">
<path fill="none" stroke="#9a32cd" stroke-dasharray="5,2" d="M429.69,-87.92C466.38,-89.25 511.47,-91.45 551.75,-95 557.48,-95.51 563.42,-96.11 569.37,-96.78"/>
<polygon fill="#9a32cd" stroke="#9a32cd" points="430.21,-84.44 420.1,-87.59 429.97,-91.43 430.21,-84.44"/>
</a>
</g>
<text text-anchor="middle" x="502.25" y="-97.5" font-family="Helvetica,sans-Serif" font-size="10.00" fill="grey"> cycleInfo</text>
</g>
</g>
</svg>
