<?xml version="1.0" encoding="UTF-8" standalone="no"?>
<!DOCTYPE svg PUBLIC "-//W3C//DTD SVG 1.1//EN"
 "http://www.w3.org/Graphics/SVG/1.1/DTD/svg11.dtd">
<!-- Generated by graphviz version 2.38.0 (20140413.2041)
 -->
<!-- Title: Storm::Component::Control::Equipment::Args_T Pages: 1 -->
<svg width="720pt" height="258pt"
 viewBox="0.00 0.00 720.00 258.00" xmlns="http://www.w3.org/2000/svg" xmlns:xlink="http://www.w3.org/1999/xlink">
<g id="graph0" class="graph" transform="scale(1 1) rotate(0) translate(4 254)">
<title>Storm::Component::Control::Equipment::Args_T</title>
<polygon fill="white" stroke="none" points="-4,4 -4,-254 716,-254 716,4 -4,4"/>
<!-- Node1 -->
<g id="node1" class="node"><title>Node1</title>
<g id="a_node1"><a xlink:title="This structure holds all of the data/info/configuration/etc.">
<polygon fill="#bfbfbf" stroke="black" points="577,-89 577,-119 712,-119 712,-89 577,-89"/>
<text text-anchor="start" x="585" y="-107" font-family="Helvetica,sans-Serif" font-size="10.00">Storm::Component::Control</text>
<text text-anchor="middle" x="644.5" y="-96" font-family="Helvetica,sans-Serif" font-size="10.00">::Equipment::Args_T</text>
</a>
</g>
</g>
<!-- Node2 -->
<g id="node2" class="node"><title>Node2</title>
<g id="a_node2"><a xlink:href="namespace_storm_1_1_type.html#struct_storm_1_1_type_1_1_equipment_times___t" target="_top" xlink:title="The following typedef is used to store the &#39;begin times&#39; for the Indoor and Outdoor HVAC equipment.">
<polygon fill="white" stroke="black" points="280,-153.5 280,-172.5 441,-172.5 441,-153.5 280,-153.5"/>
<text text-anchor="middle" x="360.5" y="-160.5" font-family="Helvetica,sans-Serif" font-size="10.00">Storm::Type::EquipmentTimes_T</text>
</a>
</g>
</g>
<!-- Node2&#45;&gt;Node1 -->
<g id="edge1" class="edge"><title>Node2&#45;&gt;Node1</title>
<path fill="none" stroke="#9a32cd" stroke-dasharray="5,2" d="M451.284,-152.086C485.272,-147.125 524.155,-140.447 559,-132 573.419,-128.505 588.906,-123.693 602.633,-119.044"/>
<polygon fill="#9a32cd" stroke="#9a32cd" points="450.774,-148.623 441.371,-153.505 451.766,-155.552 450.774,-148.623"/>
<text text-anchor="middle" x="509" y="-154" font-family="Helvetica,sans-Serif" font-size="10.00"> equipmentBeginTimes</text>
</g>
<!-- Node3 -->
<g id="node3" class="node"><title>Node3</title>
<g id="a_node3"><a xlink:href="struct_cpl_1_1_system_1_1_elapsed_time_1_1_precision___tag.html" target="_top" xlink:title="Data type for time in seconds with a &#39;fractional&#39; millisecond precision.">
<polygon fill="white" stroke="black" points="0,-149 0,-179 134,-179 134,-149 0,-149"/>
<text text-anchor="start" x="8" y="-167" font-family="Helvetica,sans-Serif" font-size="10.00">Cpl::System::ElapsedTime</text>
<text text-anchor="middle" x="67" y="-156" font-family="Helvetica,sans-Serif" font-size="10.00">::Precision_Tag</text>
</a>
</g>
</g>
<!-- Node3&#45;&gt;Node1 -->
<g id="edge8" class="edge"><title>Node3&#45;&gt;Node1</title>
<path fill="none" stroke="#9a32cd" stroke-dasharray="5,2" d="M88.0468,-186.602C103.674,-202.411 126.882,-222.21 152,-231 198.145,-247.149 213.395,-236.257 262,-231 396.341,-216.471 435.854,-221.62 559,-166 585.2,-154.166 611.247,-133.323 627.35,-119.099"/>
<polygon fill="#9a32cd" stroke="#9a32cd" points="90.4451,-184.046 81.0091,-179.228 85.3811,-188.878 90.4451,-184.046"/>
<text text-anchor="middle" x="360.5" y="-242" font-family="Helvetica,sans-Serif" font-size="10.00"> currentTick</text>
<text text-anchor="middle" x="360.5" y="-231" font-family="Helvetica,sans-Serif" font-size="10.00">currentInterval</text>
</g>
<!-- Node3&#45;&gt;Node2 -->
<g id="edge2" class="edge"><title>Node3&#45;&gt;Node2</title>
<path fill="none" stroke="#9a32cd" stroke-dasharray="5,2" d="M144.254,-163.738C185.981,-163.595 237.631,-163.418 279.875,-163.273"/>
<polygon fill="#9a32cd" stroke="#9a32cd" points="144.134,-160.239 134.146,-163.773 144.158,-167.239 144.134,-160.239"/>
<text text-anchor="middle" x="207" y="-222" font-family="Helvetica,sans-Serif" font-size="10.00"> indoorUnitBeginOnTime</text>
<text text-anchor="middle" x="207" y="-211" font-family="Helvetica,sans-Serif" font-size="10.00">systemBeginOnTime</text>
<text text-anchor="middle" x="207" y="-200" font-family="Helvetica,sans-Serif" font-size="10.00">outdoorUnitBeginOffTime</text>
<text text-anchor="middle" x="207" y="-189" font-family="Helvetica,sans-Serif" font-size="10.00">outdoorUnitBeginOnTime</text>
<text text-anchor="middle" x="207" y="-178" font-family="Helvetica,sans-Serif" font-size="10.00">systemBeginOffTime</text>
<text text-anchor="middle" x="207" y="-167" font-family="Helvetica,sans-Serif" font-size="10.00">indoorUnitBeginOffTime</text>
</g>
<!-- Node4 -->
<g id="node4" class="node"><title>Node4</title>
<g id="a_node4"><a xlink:href="namespace_storm_1_1_type.html#struct_storm_1_1_type_1_1_cycle_info___t" target="_top" xlink:title="The following typedef is used to store the information about the current on/off cycling of the equipm...">
<polygon fill="white" stroke="black" points="296,-114.5 296,-133.5 425,-133.5 425,-114.5 296,-114.5"/>
<text text-anchor="middle" x="360.5" y="-121.5" font-family="Helvetica,sans-Serif" font-size="10.00">Storm::Type::CycleInfo_T</text>
</a>
</g>
</g>
<!-- Node3&#45;&gt;Node4 -->
<g id="edge4" class="edge"><title>Node3&#45;&gt;Node4</title>
<path fill="none" stroke="#9a32cd" stroke-dasharray="5,2" d="M119.414,-146.02C130.073,-142.879 141.313,-139.986 152,-138 199.745,-129.126 254.598,-125.712 295.91,-124.47"/>
<polygon fill="#9a32cd" stroke="#9a32cd" points="118.359,-142.683 109.821,-148.956 120.407,-149.377 118.359,-142.683"/>
<text text-anchor="middle" x="207" y="-152" font-family="Helvetica,sans-Serif" font-size="10.00"> beginOnTime</text>
<text text-anchor="middle" x="207" y="-141" font-family="Helvetica,sans-Serif" font-size="10.00">beginOffTime</text>
</g>
<!-- Node4&#45;&gt;Node1 -->
<g id="edge3" class="edge"><title>Node4&#45;&gt;Node1</title>
<path fill="none" stroke="#9a32cd" stroke-dasharray="5,2" d="M435.157,-118.776C478.965,-115.669 534.108,-111.758 576.657,-108.741"/>
<polygon fill="#9a32cd" stroke="#9a32cd" points="434.865,-115.288 425.138,-119.487 435.361,-122.27 434.865,-115.288"/>
<text text-anchor="middle" x="509" y="-120" font-family="Helvetica,sans-Serif" font-size="10.00"> cycleInfo</text>
</g>
<!-- Node5 -->
<g id="node5" class="node"><title>Node5</title>
<g id="a_node5"><a xlink:href="namespace_storm_1_1_type.html#struct_storm_1_1_type_1_1_system_config___t" target="_top" xlink:title="The following typedef contains system attributes, parameters, bounds, etc.">
<polygon fill="white" stroke="black" points="286,-76.5 286,-95.5 435,-95.5 435,-76.5 286,-76.5"/>
<text text-anchor="middle" x="360.5" y="-83.5" font-family="Helvetica,sans-Serif" font-size="10.00">Storm::Type::SystemConfig_T</text>
</a>
</g>
</g>
<!-- Node5&#45;&gt;Node1 -->
<g id="edge5" class="edge"><title>Node5&#45;&gt;Node1</title>
<path fill="none" stroke="#9a32cd" stroke-dasharray="5,2" d="M445.499,-84.3086C480.643,-84.3702 521.872,-85.4459 559,-89 564.784,-89.5537 570.767,-90.2869 576.754,-91.1319"/>
<polygon fill="#9a32cd" stroke="#9a32cd" points="445.276,-80.8087 435.279,-84.3186 445.283,-87.8087 445.276,-80.8087"/>
<text text-anchor="middle" x="509" y="-92" font-family="Helvetica,sans-Serif" font-size="10.00"> systemConfig</text>
</g>
<!-- Node6 -->
<g id="node6" class="node"><title>Node6</title>
<g id="a_node6"><a xlink:href="namespace_storm_1_1_type.html#struct_storm_1_1_type_1_1_stage___t" target="_top" xlink:title="The following typedef information per stage.">
<polygon fill="white" stroke="black" points="10.5,-75.5 10.5,-94.5 123.5,-94.5 123.5,-75.5 10.5,-75.5"/>
<text text-anchor="middle" x="67" y="-82.5" font-family="Helvetica,sans-Serif" font-size="10.00">Storm::Type::Stage_T</text>
</a>
</g>
</g>
<!-- Node6&#45;&gt;Node5 -->
<g id="edge6" class="edge"><title>Node6&#45;&gt;Node5</title>
<path fill="none" stroke="#9a32cd" stroke-dasharray="5,2" d="M133.519,-85.2248C178.798,-85.3801 239.083,-85.5869 286,-85.7479"/>
<polygon fill="#9a32cd" stroke="#9a32cd" points="133.527,-81.7249 123.515,-85.1904 133.503,-88.7248 133.527,-81.7249"/>
<text text-anchor="middle" x="207" y="-89" font-family="Helvetica,sans-Serif" font-size="10.00"> stages</text>
</g>
<!-- Node7 -->
<g id="node7" class="node"><title>Node7</title>
<g id="a_node7"><a xlink:href="namespace_storm_1_1_type.html#struct_storm_1_1_type_1_1_virtual_outputs___t" target="_top" xlink:title="The following typedef is used to hold the virtual outputs for System.">
<polygon fill="white" stroke="black" points="285.5,-38.5 285.5,-57.5 435.5,-57.5 435.5,-38.5 285.5,-38.5"/>
<text text-anchor="middle" x="360.5" y="-45.5" font-family="Helvetica,sans-Serif" font-size="10.00">Storm::Type::VirtualOutputs_T</text>
</a>
</g>
</g>
<!-- Node7&#45;&gt;Node1 -->
<g id="edge7" class="edge"><title>Node7&#45;&gt;Node1</title>
<path fill="none" stroke="#9a32cd" stroke-dasharray="5,2" d="M445.791,-52.327C481.15,-55.4419 522.46,-60.7967 559,-70 577.094,-74.5575 596.461,-82.1373 612.083,-88.9849"/>
<polygon fill="#9a32cd" stroke="#9a32cd" points="445.761,-48.8124 435.505,-51.4685 445.179,-55.7881 445.761,-48.8124"/>
<text text-anchor="middle" x="509" y="-73" font-family="Helvetica,sans-Serif" font-size="10.00"> vOutputs</text>
</g>
<!-- Node8 -->
<g id="node8" class="node"><title>Node8</title>
<g id="a_node8"><a xlink:href="namespace_storm_1_1_type.html#struct_storm_1_1_type_1_1_white_box___t" target="_top" xlink:title="The following typedef contains variables/settings/flags/etc.">
<polygon fill="white" stroke="black" points="295.5,-0.5 295.5,-19.5 425.5,-19.5 425.5,-0.5 295.5,-0.5"/>
<text text-anchor="middle" x="360.5" y="-7.5" font-family="Helvetica,sans-Serif" font-size="10.00">Storm::Type::WhiteBox_T</text>
</a>
</g>
</g>
<!-- Node8&#45;&gt;Node1 -->
<g id="edge9" class="edge"><title>Node8&#45;&gt;Node1</title>
<path fill="none" stroke="#9a32cd" stroke-dasharray="5,2" d="M435.536,-11.9907C473.673,-15.1916 520.187,-22.5562 559,-39 586.608,-50.6967 613.113,-73.6191 628.855,-88.8757"/>
<polygon fill="#9a32cd" stroke="#9a32cd" points="435.761,-8.49778 425.524,-11.2288 435.23,-15.4776 435.761,-8.49778"/>
<text text-anchor="middle" x="509" y="-42" font-family="Helvetica,sans-Serif" font-size="10.00"> whiteBox</text>
</g>
</g>
</svg>
